<svg xmlns="http://www.w3.org/2000/svg" viewBox="0 0 48 64">
  <g>
    <rect width="48" height="64" style="fill: none"/>
    <g>
      <polygon points="38.28 45.75 38.28 43.64 40.85 43.64 40.85 41.07 45.55 41.07 45.55 9.85 40.85 9.85 40.85 7.28 38.28 7.28 38.28 2.57 24 2.57 9.72 2.57 9.72 7.28 7.15 7.28 7.15 9.85 2.45 9.85 2.45 41.07 7.15 41.07 7.15 43.64 9.72 43.64 9.72 45.75 12.33 45.75 12.33 45.78 12.3 45.78 12.3 47.83 10 47.83 10 50.13 7.69 50.13 7.69 52.44 5.39 52.44 5.39 54.74 7.69 54.74 7.69 57.05 10 57.05 10 59.35 12.3 59.35 12.3 61.43 24 61.43 35.7 61.43 35.7 59.35 38 59.35 38 57.05 40.31 57.05 40.31 54.74 42.61 54.74 42.61 52.44 40.31 52.44 40.31 50.13 38 50.13 38 47.83 35.7 47.83 35.7 45.78 35.67 45.78 35.67 45.75 38.28 45.75" style="fill: #090a16"/>
      <g>
        <path d="M7.15,14.54h7.28v7.28H7.15Zm0,14.55h7.28v7.27H7.15ZM29,14.54H14.43V7.27H29ZM14.43,21.82H29v7.27H14.43ZM29,43.63H14.43V36.36H29Zm0-29.09h7.27v7.28H29Zm0,14.55h7.27v7.27H29Z" style="fill: #ffda00"/>
        <path d="M11.77,14.54H19v7.28H11.77Zm0,14.55H19v7.27H11.77ZM33.58,14.54H19V7.28H33.58ZM19,21.82H33.58v7.27H19ZM33.58,43.63H19V36.36H33.58Zm0-29.09h7.27v7.28H33.58Zm0,14.55h7.27v7.27H33.58Z" style="fill: #fc0332"/>
        <path d="M9.46,14.54h7.27v7.28H9.46Zm0,14.55h7.27v7.27H9.46ZM31.27,14.54H16.73V7.28H31.27ZM16.73,21.82H31.27v7.27H16.73ZM31.27,43.63H16.73V36.36H31.27Zm0-29.09h7.27v7.28H31.27Zm0,14.55h7.27v7.27H31.27Z" style="fill: #fff"/>
      </g>
      <polygon points="30.48 50.91 30.48 49.45 29.02 49.45 29.02 47.99 26.09 47.99 26.09 49.45 24.63 49.45 23.17 49.45 23.17 47.99 20.25 47.99 20.25 49.45 18.79 49.45 18.79 50.91 17.33 50.91 17.33 53.84 18.79 53.84 18.79 55.3 20.25 55.3 20.25 56.76 21.71 56.76 21.71 58.22 23.17 58.22 23.17 59.68 26.09 59.68 26.09 58.22 27.55 58.22 27.55 56.76 29.02 56.76 29.02 55.3 30.48 55.3 30.48 53.84 31.94 53.84 31.94 50.91 30.48 50.91" style="fill: #fc0332"/>
    </g>
  </g>
</svg>
