<svg width="100" height="100" viewBox="0 0 100 100" fill="none" xmlns="http://www.w3.org/2000/svg">
<path d="M57.8607 81.7712C57.8607 82.4893 57.2786 83.0714 56.5604 83.0714C55.8423 83.0714 55.2602 82.4893 55.2602 81.7712C55.2602 81.0531 55.8423 80.471 56.5604 80.471C57.2786 80.471 57.8607 81.0531 57.8607 81.7712ZM55.2602 84.8884C54.8767 84.8884 54.5403 85.0371 54.2502 85.2438C54.3073 85.077 54.3563 84.9047 54.3563 84.718C54.3563 83.8094 53.6191 83.0714 52.7097 83.0714C51.8003 83.0714 51.0631 83.8094 51.0631 84.718C51.0631 85.6283 51.8003 86.3645 52.7097 86.3645C53.0497 86.3645 53.348 86.2376 53.611 86.0599C53.542 86.2485 53.4895 86.4479 53.4895 86.6601C53.4895 87.6375 54.2828 88.4318 55.2602 88.4318C56.2386 88.4318 57.0319 87.6375 57.0319 86.6601C57.0319 85.6827 56.2386 84.8884 55.2602 84.8884ZM52.1829 88.8199C52.1185 87.7572 51.2572 86.9085 50.1782 86.9085C49.9887 86.9085 49.8182 86.9684 49.645 87.0155C49.957 86.6746 50.1591 86.2303 50.1591 85.7316C50.1591 84.6744 49.3014 83.8167 48.2442 83.8167C47.187 83.8167 46.3293 84.6744 46.3293 85.7316C46.3293 86.7888 47.187 87.6466 48.2442 87.6466C48.4092 87.6466 48.557 87.5922 48.7102 87.5523C48.3675 87.915 48.149 88.3991 48.149 88.9377C48.149 89.8607 48.7782 90.6078 49.6224 90.8545C49.6215 90.8817 49.607 90.9034 49.607 90.9306C49.607 92.1383 50.5871 93.1194 51.7966 93.1194C53.0053 93.1194 53.9854 92.1383 53.9854 90.9306C53.9854 89.8589 53.2002 89.0084 52.1829 88.8199ZM47.1199 90.7928C47.2151 90.5444 47.2804 90.2814 47.2804 89.9985C47.2804 88.838 46.3873 87.9149 45.2566 87.8025C45.535 87.4471 45.7281 87.0191 45.7281 86.5313C45.7281 85.5303 45.0127 84.7343 44.0752 84.5257C44.5041 84.1685 44.7933 83.6517 44.7933 83.0496C44.7933 82.3025 44.3581 81.6733 43.7397 81.3487C44.6954 81.307 45.4615 80.5308 45.4615 79.5661C45.4615 78.5742 44.6573 77.7708 43.6654 77.7708C42.6734 77.7708 41.8692 78.5742 41.8692 79.5661C41.8692 80.2389 42.2554 80.8046 42.804 81.1129C41.7504 81.1365 40.8999 81.9888 40.8999 83.0496C40.8999 83.9581 41.5355 84.6853 42.376 84.9011C41.881 85.2837 41.541 85.8568 41.541 86.5314C41.541 87.5886 42.337 88.4264 43.3553 88.5696C43.0252 88.9595 42.8031 89.4473 42.8031 89.9986C42.8031 91.0721 43.5747 91.9262 44.582 92.1438C44.4161 92.4793 44.3019 92.8438 44.3019 93.2446C44.3019 94.6318 45.4271 95.7561 46.8143 95.7561C48.2016 95.7561 49.3268 94.6318 49.3268 93.2446C49.3268 91.9661 48.3566 90.9506 47.1199 90.7928ZM21.4123 75.3644C21.4123 76.2548 20.9009 77.0037 20.1746 77.4118C20.307 77.3882 20.4276 77.332 20.5663 77.332C21.8837 77.332 22.9518 78.4001 22.9518 79.7166C22.9518 80.0974 22.8439 80.4438 22.6862 80.7629C23.1023 80.4039 23.6273 80.1645 24.2203 80.1645C25.5132 80.1645 26.556 81.2018 26.5859 82.4875C26.8425 81.5028 27.6803 80.772 28.732 80.7248C28.5126 80.3948 28.353 80.0194 28.353 79.5915C28.353 78.4345 29.2905 77.497 30.4475 77.497C31.6035 77.497 32.5411 78.4345 32.5411 79.5915C32.5411 80.6686 31.7169 81.5246 30.6705 81.6406C30.9834 82.0414 31.2001 82.5237 31.2001 83.0714C31.2001 83.6897 30.9498 84.2428 30.5617 84.6635C30.9915 85.0788 31.2454 85.6464 31.3143 86.272C31.3841 85.67 31.6462 85.135 32.0723 84.747C31.5908 84.3353 31.2699 83.746 31.2699 83.0641C31.2699 81.8945 32.1757 80.9642 33.319 80.8608C33.028 80.5109 32.8303 80.0757 32.8303 79.5842C32.8303 78.8462 33.2438 78.2296 33.8313 77.8742C32.9645 77.7346 32.2908 77.0165 32.2908 76.1079C32.2908 75.1015 33.1068 74.2855 34.1142 74.2855C35.1215 74.2855 35.9375 75.1015 35.9375 76.1079C35.9375 76.7463 35.5912 77.2794 35.0961 77.6058C36.0962 77.7291 36.8823 78.5488 36.8823 79.5842C36.8823 80.6015 36.1207 81.4067 35.1451 81.5517C35.515 81.9507 35.7526 82.4766 35.7526 83.0641C35.7526 83.6607 35.5105 84.1957 35.1297 84.5983C35.7408 85.0444 36.1633 85.7298 36.1633 86.544C36.1633 86.9883 36.0128 87.3836 35.8061 87.7427C36.613 88.1997 37.1815 89.032 37.1815 90.024C37.1815 90.3086 37.1027 90.5698 37.0192 90.8273C37.2949 90.9579 37.546 91.1265 37.7664 91.3314C37.5152 90.947 37.3321 90.5136 37.3321 90.0185C37.3321 89.4963 37.5324 89.0375 37.8126 88.6385C36.9793 88.3012 36.3891 87.4925 36.3891 86.5368C36.3891 85.8604 36.6992 85.2692 37.1689 84.854C36.5351 84.4931 36.0881 83.8385 36.0881 83.0569C36.0881 81.9616 36.9376 81.0912 38.0085 80.9969C37.6086 80.6469 37.3429 80.1482 37.3429 79.5752C37.3429 78.7918 37.8162 78.1227 38.4908 77.8271C38.3911 77.8452 38.3004 77.8869 38.1962 77.8869C37.2088 77.8869 36.4091 77.0854 36.4091 76.0989C36.4091 75.1124 37.2088 74.3109 38.1962 74.3109C39.1835 74.3109 39.9833 75.1124 39.9833 76.0989C39.9833 76.8297 39.5408 77.4571 38.9115 77.7328C39.0267 77.711 39.1328 77.6639 39.2543 77.6639C40.3097 77.6639 41.1656 78.5198 41.1656 79.5752C41.1656 80.5544 40.4176 81.3342 39.4674 81.443C39.9479 81.8274 40.2761 82.3932 40.2761 83.0569C40.2761 83.6299 40.044 84.1486 39.6704 84.5258C40.4121 84.9011 40.9344 85.6501 40.9344 86.5368C40.9344 86.9829 40.773 87.3746 40.5508 87.7264C41.5201 88.0528 42.2282 88.9414 42.2282 90.0185C42.2282 90.3196 42.1566 90.6007 42.0569 90.8672C43.2174 91.2063 44.0824 92.2345 44.0824 93.5039C44.0824 95.0453 42.833 96.2947 41.2916 96.2947C39.9606 96.2947 38.8997 95.3427 38.6205 94.0951C38.3412 95.4533 37.1951 96.4942 35.7535 96.4942C34.5811 96.4942 33.5901 95.8015 33.1014 94.8186C32.6009 95.9212 31.5038 96.6955 30.2145 96.6955C29.0349 96.6955 28.0466 96.0227 27.4971 95.0689C26.9404 96.0753 25.9077 96.7843 24.6764 96.7843C23.484 96.7843 22.4849 96.1134 21.9145 95.1577C21.3433 96.1206 20.3378 96.797 19.1373 96.797C17.7347 96.797 16.5587 95.9067 16.0908 94.6681C15.496 95.2593 14.6782 95.6256 13.7733 95.6256C11.9572 95.6256 10.4838 94.1531 10.4838 92.3361C10.4838 92.1946 10.5473 92.0731 10.5645 91.9371C10.2281 92.055 9.87903 92.1511 9.50185 92.1511C7.69933 92.1511 6.23773 90.6895 6.23773 88.887C6.23773 88.1798 6.51065 87.5614 6.89237 87.0264C5.27844 86.8777 4 85.563 4 83.9092C4 82.6507 4.74802 81.5826 5.81249 81.0694C4.87315 80.5417 4.21126 79.5734 4.21126 78.4201C4.21126 76.7572 5.53504 75.4207 7.18433 75.359C6.65482 74.8205 6.32387 74.0824 6.32387 73.2664C6.32387 71.6126 7.66397 70.2725 9.31779 70.2725C9.36766 70.2725 9.40937 70.2978 9.45924 70.3015C8.88258 69.7629 8.51083 69.0103 8.51083 68.158C8.51083 66.5278 9.83189 65.2077 11.4621 65.2077C11.5827 65.2077 11.6843 65.262 11.8003 65.2766C11.1439 64.7434 10.6978 63.9618 10.6978 63.0497C10.6978 61.443 11.9998 60.141 13.6056 60.141C13.796 60.141 13.9619 60.2135 14.1414 60.2498C13.4007 59.7312 12.8848 58.9152 12.8848 57.9414C12.8848 56.3583 14.1677 55.0762 15.7499 55.0762C16.0111 55.0762 16.2459 55.1596 16.4871 55.2249C15.6565 54.7335 15.0717 53.8685 15.0717 52.833C15.0717 51.2735 16.3356 50.0096 17.8943 50.0096C18.2252 50.0096 18.5317 50.093 18.8264 50.1982C17.9061 49.7448 17.2587 48.8182 17.2587 47.7247C17.2587 46.1887 18.5036 44.9447 20.0386 44.9447C20.8573 44.9447 21.5755 45.3129 22.0841 45.8768C22.4024 45.7372 22.7505 45.652 23.1214 45.652C23.9501 45.652 24.6537 46.0672 25.1261 46.6747C25.4507 46.5079 25.8043 46.39 26.1951 46.39C27.0419 46.39 27.7501 46.8579 28.1699 47.5252C28.489 47.3402 28.839 47.2061 29.2352 47.2061C30.2417 47.2061 31.0496 47.906 31.2925 48.8363C31.5092 48.7547 31.7386 48.6967 31.9844 48.6967C33.0706 48.6967 33.951 49.5762 33.951 50.6624C33.951 51.239 33.6935 51.745 33.2982 52.1059C33.5049 52.0188 33.7316 51.9699 33.97 51.9699C34.9293 51.9699 35.7064 52.7478 35.7064 53.7071C35.7064 54.1786 35.515 54.6047 35.2095 54.9166C35.4833 54.67 35.8369 54.5104 36.2341 54.5104C37.0891 54.5104 37.7827 55.2031 37.7827 56.0591C37.7827 56.9132 37.0891 57.6059 36.2341 57.6059C35.3799 57.6059 34.6863 56.9132 34.6863 56.0591C34.6863 55.6384 34.8568 55.2594 35.1288 54.9801C34.8205 55.2612 34.4197 55.4425 33.97 55.4425C33.0116 55.4425 32.2346 54.6646 32.2346 53.7071C32.2346 53.2265 32.4314 52.7913 32.7469 52.4758C32.513 52.5755 32.2555 52.6299 31.9844 52.6299C31.1321 52.6299 30.4239 52.0805 30.151 51.3207C29.8708 51.453 29.5662 51.5401 29.2352 51.5401C28.5307 51.5401 27.935 51.1828 27.5388 50.6624C27.1526 50.9362 26.7056 51.1321 26.1951 51.1321C25.5123 51.1321 24.9076 50.8347 24.4742 50.3723C24.0752 50.6261 23.6291 50.8111 23.1214 50.8111C22.445 50.8111 21.8402 50.5373 21.3805 50.1111C20.9761 50.3396 20.5355 50.5046 20.0386 50.5046C19.714 50.5046 19.413 50.4212 19.1237 50.3197C19.3894 50.4502 19.6396 50.6062 19.85 50.8093C20.2218 50.608 20.6261 50.4629 21.0786 50.4629C21.8484 50.4629 22.5248 50.8093 23.0035 51.3406C23.3734 51.1067 23.7869 50.9362 24.2566 50.9362C25.0445 50.9362 25.71 51.3406 26.1479 51.9245C26.507 51.6652 26.9259 51.4802 27.4037 51.4802C28.3412 51.4802 29.1264 52.075 29.4393 52.9037C29.6877 52.7913 29.9588 52.7206 30.2498 52.7206C31.3451 52.7206 32.2319 53.6092 32.2319 54.7026C32.2319 55.107 32.0814 55.4624 31.8737 55.7762C32.0288 55.7308 32.1829 55.6783 32.3534 55.6783C33.3254 55.6783 34.1133 56.4671 34.1133 57.4391C34.1133 57.7201 34.0326 57.9776 33.9156 58.2134C34.1523 58.0701 34.4143 57.965 34.7108 57.965C35.5767 57.965 36.2794 58.6667 36.2794 59.5336C36.2794 60.3985 35.5767 61.1003 34.7108 61.1003C33.8449 61.1003 33.1422 60.3985 33.1422 59.5336C33.1422 59.3051 33.1957 59.0911 33.2837 58.8952C33.0098 59.073 32.7034 59.1999 32.3534 59.1999C31.3805 59.1999 30.5926 58.4111 30.5926 57.4391C30.5926 57.1127 30.705 56.8243 30.861 56.5614C30.6651 56.6249 30.4665 56.6847 30.2498 56.6847C29.4592 56.6847 28.7882 56.2132 28.47 55.5441C28.1499 55.7254 27.799 55.8596 27.4037 55.8596C26.7645 55.8596 26.2023 55.5749 25.8016 55.1379C25.3827 55.4987 24.8532 55.7381 24.2566 55.7381C23.64 55.7381 23.0896 55.4879 22.6644 55.1052C22.2201 55.4534 21.6861 55.6946 21.0786 55.6946C20.7259 55.6946 20.3922 55.6202 20.0848 55.4933C20.3759 55.6202 20.6352 55.8016 20.8619 56.0174C21.2717 55.7018 21.7613 55.4824 22.3189 55.4824C23.0461 55.4824 23.6799 55.8179 24.1242 56.3238C24.5141 55.9811 25.0127 55.7544 25.5731 55.7544C26.4544 55.7544 27.2015 56.2785 27.5569 57.0256C27.8453 56.8642 28.1608 56.7464 28.5153 56.7464C29.6188 56.7464 30.5137 57.6404 30.5137 58.7429C30.5137 58.9968 30.4557 59.2362 30.3695 59.4592C30.491 59.432 30.6053 59.3849 30.7358 59.3849C31.7214 59.3849 32.5211 60.1846 32.5211 61.1711C32.5211 61.3415 32.4685 61.4975 32.4241 61.6534C32.6535 61.5229 32.9046 61.4286 33.1875 61.4286C34.0589 61.4286 34.7652 62.1358 34.7652 63.008C34.7652 63.8785 34.0589 64.5857 33.1875 64.5857C32.3153 64.5857 31.609 63.8785 31.609 63.008C31.609 62.8793 31.6534 62.765 31.6824 62.6453C31.4032 62.8249 31.0913 62.9554 30.7358 62.9554C29.7502 62.9554 28.9505 62.1557 28.9505 61.1711C28.9505 60.9807 29.004 60.8048 29.0593 60.6325C28.8825 60.6833 28.7085 60.7413 28.5153 60.7413C27.7845 60.7413 27.1725 60.3278 26.8243 59.7421C26.4635 59.9978 26.0482 60.1791 25.5731 60.1791C24.991 60.1791 24.4696 59.9434 24.0743 59.5753C23.8612 59.8019 23.6074 59.9833 23.3208 60.1138C23.4614 60.0848 23.592 60.0286 23.7416 60.0286C24.5667 60.0286 25.2594 60.4983 25.6456 61.1638C25.9739 60.9335 26.351 60.7685 26.7817 60.7685C27.8942 60.7685 28.7955 61.6716 28.7955 62.7832C28.7955 62.9264 28.7429 63.0534 28.7139 63.1875C28.8481 63.1567 28.975 63.1059 29.1192 63.1059C30.1102 63.1059 30.9145 63.9111 30.9145 64.903C30.9145 64.9919 30.8764 65.068 30.8646 65.1515C31.1021 65.0082 31.3651 64.903 31.6634 64.903C32.5347 64.903 33.2411 65.6102 33.2411 66.4807C33.2411 67.3529 32.5347 68.0583 31.6634 68.0583C30.7921 68.0583 30.0857 67.3529 30.0857 66.4807C30.0857 66.4371 30.1066 66.4027 30.1102 66.3592C29.8219 66.5568 29.4937 66.6983 29.1192 66.6983C28.1273 66.6983 27.323 65.8931 27.323 64.903C27.323 64.8232 27.3584 64.7561 27.3684 64.68C27.1798 64.738 26.9894 64.7978 26.7817 64.7978C26.109 64.7978 25.5432 64.4479 25.1778 63.9419C24.7861 64.2756 24.2956 64.4986 23.7416 64.4986C23.1894 64.4986 22.7007 64.2774 22.3108 63.9455C22.2147 64.0725 22.1258 64.1976 22.0061 64.3046C22.7333 64.3354 23.3444 64.7181 23.7379 65.2766C24.0961 64.9737 24.5422 64.7707 25.0472 64.7707C26.1806 64.7707 27.0991 65.6901 27.0991 66.8234C27.0991 66.8561 27.0818 66.8833 27.08 66.9159C27.2197 66.8815 27.3529 66.8307 27.5026 66.8307C28.4981 66.8307 29.306 67.6395 29.306 68.635C29.306 69.6306 28.4981 70.4375 27.5026 70.4375C26.5442 70.4375 25.778 69.6832 25.7218 68.7402C25.5078 68.8145 25.2866 68.8762 25.0472 68.8762C24.4325 68.8762 23.8984 68.5933 23.5221 68.1653C23.1105 68.5788 22.5402 68.8363 21.91 68.8363C21.386 68.8363 20.9263 68.6296 20.5418 68.3322C20.4874 68.421 20.433 68.5062 20.3686 68.5879C20.977 68.6676 21.4966 68.9632 21.8638 69.4184C22.2428 69.0321 22.7678 68.7891 23.3526 68.7891C24.5068 68.7891 25.4425 69.7248 25.4425 70.8782C25.4425 72.0333 24.5068 72.969 23.3526 72.969C22.7587 72.969 22.2292 72.7169 21.8484 72.318C21.4222 72.8348 20.8021 73.1848 20.0794 73.1848M20.4004 87.2205C20.8846 87.5505 21.2889 87.9785 21.5102 88.528C21.5818 88.4101 21.6525 88.294 21.7396 88.1889C21.386 87.7537 21.1529 87.2241 21.1303 86.6257C20.9254 86.8705 20.6796 87.0627 20.4004 87.2205ZM26.0056 87.8896C26.2876 88.1544 26.517 88.4663 26.6784 88.8235C26.7436 88.6839 26.8461 88.5715 26.9322 88.4464C26.6176 88.1471 26.4054 87.7645 26.2694 87.342C26.2042 87.5397 26.1126 87.7156 26.0056 87.8896ZM31.3161 86.8215C31.2771 87.1806 31.1729 87.5106 31.0042 87.8117C31.5029 88.2034 31.8438 88.7419 31.9962 89.3784C32.075 89.072 32.1993 88.7981 32.3742 88.5461C31.794 88.1562 31.4014 87.5487 31.3161 86.8215ZM25.4589 84.5185C25.8415 84.8395 26.118 85.2529 26.2731 85.7389C26.4245 85.2783 26.6874 84.8848 27.0483 84.5766C26.7119 84.1776 26.4916 83.6825 26.4789 83.124C26.3239 83.717 25.9639 84.2012 25.4589 84.5185ZM20.5663 82.1031C19.6877 82.1031 18.9524 81.6062 18.5389 80.899C18.5498 80.9987 18.597 81.084 18.597 81.1873C18.597 81.6443 18.4537 82.0523 18.2524 82.4295C18.5262 82.3352 18.8091 82.2554 19.1156 82.2554C20.5581 82.2554 21.7169 83.4033 21.7677 84.834C21.9835 84.5784 22.2401 84.3735 22.5357 84.2157C22.1086 83.7859 21.8438 83.1948 21.8438 82.5401C21.8438 82.1629 21.9499 81.8202 22.1068 81.5029C21.6888 81.8637 21.1611 82.1031 20.5663 82.1031ZM19.0331 77.7437C18.4347 77.7437 17.9042 77.5025 17.4853 77.138C17.2877 77.7618 16.8715 78.2623 16.3157 78.5887C17.139 78.7157 17.8208 79.1944 18.2161 79.8925C18.2116 79.8309 18.1808 79.7783 18.1808 79.7167C18.1808 78.8226 18.694 78.0737 19.4221 77.6657C19.2906 77.6875 19.1709 77.7437 19.0331 77.7437ZM22.319 60.3423C21.7704 60.3423 21.2899 60.1283 20.8837 59.8219C20.7821 59.9198 20.6488 59.976 20.5328 60.0576C21.1475 60.0975 21.7088 60.3369 22.1186 60.7467C22.3162 60.5345 22.5502 60.3641 22.8158 60.2426C22.6499 60.277 22.4958 60.3423 22.319 60.3423ZM20.0422 55.4769C19.8337 55.3863 19.6614 55.2412 19.4855 55.1016C19.3858 55.1705 19.2924 55.2466 19.1845 55.3047C19.4846 55.321 19.7775 55.3681 20.0422 55.4769ZM22.1829 45.3527C22.5864 45.3527 22.9636 45.2548 23.3082 45.0971C23.7733 45.6012 24.4252 45.9276 25.1651 45.9276C25.5903 45.9276 25.973 45.797 26.3248 45.6139C26.7536 46.1561 27.3883 46.526 28.1336 46.526C28.558 46.526 28.9342 46.3828 29.277 46.1851C29.6551 46.7926 30.2979 47.2187 31.0659 47.2187C31.3461 47.2187 31.6108 47.1571 31.8556 47.0592C32.0587 47.9205 32.7968 48.5733 33.7189 48.5733C34.728 48.5733 35.5305 47.7972 35.632 46.8143C35.8678 47.4617 36.4753 47.9296 37.2042 47.9296C38.1363 47.9296 38.8925 47.1752 38.8925 46.2413C38.8925 45.3092 38.1363 44.5549 37.2042 44.5549C36.3402 44.5549 35.6538 45.2131 35.554 46.0509C35.3065 45.2585 34.593 44.6727 33.7189 44.6727C33.5176 44.6727 33.3344 44.7307 33.1522 44.787C33.0053 43.7461 32.1476 42.9319 31.0659 42.9319C30.7531 42.9319 30.4602 43.0062 30.1918 43.1277C29.8029 42.3751 29.0394 41.8438 28.1336 41.8438C27.8226 41.8438 27.5289 41.9109 27.2577 42.0215C26.8035 41.327 26.0564 40.841 25.1651 40.841C24.8713 40.841 24.6011 40.9172 24.3382 41.0078C23.8395 40.3405 23.0806 39.8799 22.1829 39.8799C20.6715 39.8799 19.4456 41.104 19.4456 42.6163C19.4456 44.1269 20.6715 45.3527 22.1829 45.3527ZM24.3264 40.2009C24.6501 40.2009 24.9511 40.1211 25.2385 40.0177C25.6964 40.6234 26.3891 41.0423 27.2079 41.0423C27.5488 41.0423 27.8734 40.9716 28.1699 40.8483C28.5824 41.4793 29.2606 41.9218 30.0712 41.9218C30.4094 41.9218 30.7259 41.8402 31.0151 41.7096C31.3624 42.4078 32.0651 42.8992 32.8974 42.8992C33.1304 42.8992 33.3453 42.8357 33.5548 42.7668C33.6518 43.7461 34.4497 44.5186 35.4534 44.5186C36.3093 44.5186 37.0111 43.9546 37.2668 43.1839C37.5279 43.7842 38.1245 44.2067 38.8218 44.2067C39.7584 44.2067 40.5182 43.4469 40.5182 42.5093C40.5182 41.5718 39.7584 40.812 38.8218 40.812C38.1037 40.812 37.4962 41.2617 37.2487 41.8928C36.9703 41.1674 36.2776 40.647 35.4534 40.647C35.2965 40.647 35.156 40.7014 35.01 40.7358C34.9864 39.5861 34.0544 38.6577 32.8974 38.6577C32.6562 38.6577 32.4341 38.7211 32.2183 38.7955C31.8873 37.9232 31.0586 37.2976 30.0712 37.2976C29.8436 37.2976 29.6369 37.3665 29.4284 37.4282C29.0167 36.6067 28.1889 36.0282 27.2079 36.0282C26.993 36.0282 26.8008 36.099 26.6013 36.1515C26.1307 35.3645 25.3083 34.8133 24.3264 34.8133C22.8394 34.8133 21.6326 36.0192 21.6326 37.508C21.6326 38.995 22.8394 40.2009 24.3264 40.2009ZM26.4707 35.0508C26.7128 35.0508 26.9295 34.9728 27.1526 34.913C27.5814 35.6438 28.3422 36.1588 29.2516 36.1588C29.5064 36.1588 29.7376 36.0863 29.9688 36.0137C30.3369 36.779 31.104 37.3158 32.0097 37.3158C32.279 37.3158 32.5284 37.2487 32.7687 37.1634C33.0534 37.9831 33.8114 38.5797 34.7289 38.5797C34.9257 38.5797 35.1025 38.518 35.2839 38.4673C35.282 38.4945 35.2684 38.5162 35.2684 38.5416C35.2684 39.6025 36.1271 40.462 37.1879 40.462C37.9233 40.462 38.5416 40.034 38.8635 39.4266C39.1192 40.0467 39.7267 40.4838 40.4384 40.4838C41.3805 40.4838 42.1448 39.7203 42.1448 38.7774C42.1448 37.8362 41.3805 37.0709 40.4384 37.0709C39.8083 37.0709 39.2806 37.43 38.985 37.9378C38.7293 37.1779 38.0339 36.623 37.1879 36.623C37.0438 36.623 36.9168 36.6738 36.7817 36.7046C36.7908 36.6285 36.8271 36.5614 36.8271 36.4816C36.8271 35.3228 35.8877 34.3835 34.729 34.3835C34.5349 34.3835 34.3608 34.4451 34.1831 34.4941C33.9347 33.5022 33.0788 32.7514 32.0098 32.7514C31.8475 32.7514 31.7042 32.8113 31.551 32.8439C31.2037 31.8991 30.3161 31.2173 29.2516 31.2173C29.1147 31.2173 28.9959 31.2735 28.8653 31.2953C28.4446 30.3868 27.5379 29.7484 26.4707 29.7484C25.0073 29.7484 23.8205 30.9344 23.8205 32.3996C23.8205 33.863 25.0073 35.0508 26.4707 35.0508ZM28.6151 29.899C28.7747 29.899 28.9134 29.8355 29.0657 29.8083C29.4393 30.6697 30.2943 31.2753 31.2944 31.2753C31.4875 31.2753 31.6589 31.2082 31.8384 31.1647C32.1385 32.0569 32.9554 32.7097 33.9483 32.7097C34.1668 32.7097 34.3654 32.6426 34.5657 32.5846C34.758 33.533 35.5559 34.2602 36.5596 34.2602C36.7473 34.2602 36.9159 34.2003 37.0891 34.1532C37.0664 34.2711 37.0184 34.3799 37.0184 34.5032C37.0184 35.5531 37.8707 36.4073 38.9224 36.4073C39.5644 36.4073 40.1048 36.0682 40.4493 35.5803C40.6769 36.2622 41.2989 36.7609 42.056 36.7609C43.0026 36.7609 43.7705 35.992 43.7705 35.0454C43.7705 34.0988 43.0026 33.3299 42.056 33.3299C41.5065 33.3299 41.0396 33.6056 40.7258 34.0063C40.5037 33.2012 39.7983 32.5973 38.9224 32.5973C38.7855 32.5973 38.6649 32.6481 38.5353 32.6753C38.5761 32.5139 38.635 32.3579 38.635 32.1838C38.635 31.0378 37.7065 30.1093 36.5596 30.1093C36.4136 30.1093 36.2848 30.1637 36.147 30.1927C36.0092 29.0793 35.098 28.2071 33.9483 28.2071C33.8295 28.2071 33.7279 28.256 33.6137 28.2742C33.3535 27.2115 32.4386 26.4064 31.2944 26.4064C31.2091 26.4064 31.1375 26.4463 31.055 26.4553C30.7032 25.4307 29.7593 24.6836 28.6151 24.6836C27.1752 24.6836 26.0074 25.8496 26.0074 27.2913C26.0074 28.7311 27.1752 29.899 28.6151 29.899ZM30.7594 24.7471C30.8728 24.7471 30.9698 24.6963 31.0786 24.6818C31.3796 25.6629 32.2582 26.39 33.3381 26.39C33.484 26.39 33.6101 26.332 33.7497 26.3066C33.9537 27.3239 34.8096 28.1055 35.8859 28.1055C36.0555 28.1055 36.2051 28.0457 36.3628 28.0094C36.4299 29.0829 37.3013 29.9389 38.3911 29.9389C38.5697 29.9389 38.7293 29.8808 38.8943 29.8373C38.8254 30.0332 38.7692 30.2381 38.7692 30.4575C38.7692 31.5002 39.6152 32.347 40.6579 32.347C41.3986 32.347 42.0252 31.91 42.3343 31.288C42.3244 31.3606 42.2908 31.4258 42.2908 31.502C42.2908 32.454 43.0624 33.2247 44.0145 33.2247C44.9665 33.2247 45.7381 32.454 45.7381 31.502C45.7381 30.55 44.9665 29.7775 44.0145 29.7775C43.3417 29.7775 42.7741 30.1746 42.4903 30.7368C42.5048 30.6406 42.5465 30.5554 42.5465 30.4575C42.5465 29.4148 41.7015 28.5697 40.6579 28.5697C40.5282 28.5697 40.414 28.6187 40.2906 28.6441C40.3849 28.4083 40.4439 28.1545 40.4439 27.8861C40.4439 26.7527 39.5245 25.8333 38.3911 25.8333C38.2905 25.8333 38.2034 25.8768 38.1064 25.8913C38.1064 25.8877 38.1082 25.8859 38.1082 25.8823C38.1082 24.6546 37.1136 23.6609 35.8859 23.6609C35.8116 23.6609 35.749 23.6953 35.6774 23.7026C35.5278 22.5221 34.5594 21.5954 33.3381 21.5954C33.2927 21.5954 33.2556 21.619 33.2111 21.6208C32.9482 20.4838 31.9762 19.617 30.7594 19.617C29.3423 19.617 28.1944 20.7667 28.1944 22.1829C28.1944 23.5992 29.3422 24.7471 30.7594 24.7471ZM32.9418 19.6134C33.0425 19.6134 33.1286 19.568 33.2256 19.5553C33.3988 20.696 34.3391 21.5845 35.5277 21.5845C35.6792 21.5845 35.8115 21.5247 35.9557 21.4975C35.9702 22.707 36.9495 23.6844 38.1617 23.6844C38.4074 23.6844 38.6332 23.6192 38.8544 23.5448C38.829 23.6736 38.7764 23.7932 38.7764 23.9311C38.7764 25.0681 39.6995 25.9911 40.8365 25.9911C41.1765 25.9911 41.4839 25.8877 41.7667 25.7427C41.502 26.0709 41.3207 26.4716 41.3207 26.925C41.3207 27.9822 42.1766 28.8381 43.232 28.8381C44.2883 28.8381 45.1442 27.9822 45.1442 26.925C45.1442 25.8696 44.2883 25.0137 43.232 25.0137C42.9328 25.0137 42.6589 25.0953 42.4069 25.2186C42.6988 24.8631 42.8965 24.4261 42.8965 23.9311C42.8965 22.7941 41.9744 21.871 40.8365 21.871C40.6352 21.871 40.4538 21.9309 40.2707 21.9853C40.3124 21.8166 40.3741 21.6534 40.3741 21.4721C40.3741 20.2499 39.383 19.2598 38.1617 19.2598C38.0611 19.2598 37.9749 19.3033 37.8779 19.3178C37.8788 19.2797 37.8988 19.2507 37.8988 19.2126C37.8988 17.9033 36.837 16.8425 35.5278 16.8425C35.4888 16.8425 35.457 16.8624 35.418 16.8643C35.2984 15.584 34.2538 14.5685 32.9418 14.5685C31.5492 14.5685 30.4194 15.6982 30.4194 17.0909C30.4194 18.4836 31.5492 19.6134 32.9418 19.6134ZM36.0908 15.0327C36.2594 15.0327 36.4082 14.9693 36.5677 14.9366C36.5587 15.0182 36.5197 15.0889 36.5197 15.1724C36.5197 16.4726 37.5742 17.528 38.8762 17.528C39.1328 17.528 39.3676 17.4572 39.5997 17.3829C39.5372 17.5878 39.471 17.7927 39.471 18.0176C39.471 19.2489 40.4683 20.2462 41.6987 20.2462C42.1983 20.2462 42.6372 20.0504 43.0089 19.773C42.6771 20.1447 42.4604 20.6234 42.4604 21.162C42.4604 22.328 43.4052 23.2728 44.5712 23.2728C45.7372 23.2728 46.682 22.328 46.682 21.162C46.682 19.996 45.7372 19.0512 44.5712 19.0512C44.1033 19.0512 43.6935 19.2326 43.3435 19.4901C43.6962 19.0966 43.9265 18.5888 43.9265 18.0176C43.9265 16.7881 42.9291 15.7907 41.6988 15.7907C41.4802 15.7907 41.2826 15.856 41.0831 15.914C41.1629 15.6783 41.2327 15.4353 41.2327 15.1724C41.2327 13.8703 40.1773 12.8149 38.8762 12.8149C38.7438 12.8149 38.6287 12.8693 38.5017 12.8911C38.518 12.775 38.5697 12.6735 38.5697 12.5538C38.5697 11.1847 37.4599 10.0749 36.0908 10.0749C34.7217 10.0749 33.611 11.1847 33.611 12.5538C33.611 13.9229 34.7217 15.0327 36.0908 15.0327ZM40.3886 11.5238C40.6669 11.5238 40.9244 11.4513 41.1738 11.366C41.0359 11.6634 40.9471 11.9898 40.9471 12.3398C40.9471 13.6346 41.9961 14.6827 43.29 14.6827C44.5839 14.6827 45.632 13.6346 45.632 12.3398C45.632 11.0469 44.5839 9.99691 43.29 9.99691C43.0307 9.99691 42.7922 10.0676 42.5592 10.1438C42.7179 9.82101 42.8249 9.47102 42.8249 9.08658C42.8249 7.74104 41.7341 6.65119 40.3886 6.65119C39.043 6.65119 37.9523 7.74105 37.9523 9.08658C37.9523 10.4321 39.043 11.5238 40.3886 11.5238ZM45.4815 9.35497C46.8035 9.35497 47.8752 8.28325 47.8752 6.96128C47.8752 5.63931 46.8035 4.5676 45.4815 4.5676C44.1595 4.5676 43.0878 5.63931 43.0878 6.96128C43.0878 8.28325 44.1595 9.35497 45.4815 9.35497ZM50.9706 8.70033C52.269 8.70033 53.3217 7.64856 53.3217 6.35017C53.3217 5.05177 52.269 4 50.9706 4C49.6723 4 48.6205 5.05177 48.6205 6.35017C48.6205 7.64856 49.6723 8.70033 50.9706 8.70033ZM56.409 9.6161C57.683 9.6161 58.7166 8.58246 58.7166 7.30765C58.7166 6.03283 57.6829 4.99919 56.409 4.99919C55.1342 4.99919 54.1006 6.03283 54.1006 7.30765C54.1006 8.58246 55.1342 9.6161 56.409 9.6161ZM63.3145 14.1315C63.0977 14.0644 62.8783 13.9955 62.6381 13.9955C61.3759 13.9955 60.3523 15.02 60.3523 16.2822C60.3523 16.5977 60.4166 16.8987 60.5327 17.1725C60.3704 17.1363 60.2181 17.0746 60.0449 17.0746C58.7801 17.0746 57.7546 18.0992 57.7546 19.3649C57.7546 19.8437 57.935 20.2626 58.1862 20.6289C58.0393 20.5999 57.9024 20.54 57.7464 20.54C56.497 20.54 55.4842 21.5537 55.4842 22.8031C55.4842 23.3689 55.7127 23.8712 56.0563 24.2684C55.8623 24.2103 55.6683 24.1469 55.4552 24.1469C54.2584 24.1469 53.2882 25.117 53.2882 26.3139C53.2882 27.5107 54.2584 28.4809 55.4552 28.4809C56.652 28.4809 57.6213 27.5107 57.6213 26.3139C57.6213 25.7808 57.4073 25.3093 57.0882 24.9321C57.3003 24.9974 57.5125 25.0645 57.7464 25.0645C58.995 25.0645 60.0077 24.0508 60.0077 22.8032C60.0077 22.3335 59.8309 21.9218 59.587 21.561C59.7393 21.5936 59.8826 21.6535 60.0449 21.6535C61.3088 21.6535 62.3343 20.6289 62.3343 19.365C62.3343 19.0476 62.269 18.7448 62.1512 18.4691C62.3135 18.5054 62.4658 18.5671 62.6381 18.5671C63.9002 18.5671 64.9238 17.5443 64.9238 16.2822C64.9238 16.0392 64.8558 15.8179 64.786 15.5985C64.9873 15.6584 65.1877 15.7237 65.4089 15.7237C66.6366 15.7237 67.6313 14.7299 67.6313 13.5022C67.6313 12.2746 66.6366 11.2808 65.4089 11.2808C64.1822 11.2808 63.1875 12.2746 63.1875 13.5022C63.1875 13.7253 63.2537 13.9284 63.3145 14.1315ZM85.8758 64.1432C85.8758 65.1188 86.6665 65.9094 87.6412 65.9094C88.6159 65.9094 89.4065 65.1188 89.4065 64.1432C89.4065 63.1694 88.6159 62.3787 87.6412 62.3787C86.6665 62.3787 85.8758 63.1694 85.8758 64.1432ZM88.0973 69.2461C88.0973 70.1836 88.858 70.9452 89.7964 70.9452C90.7349 70.9452 91.4956 70.1836 91.4956 69.2461C91.4956 68.3067 90.7349 67.5469 89.7964 67.5469C88.858 67.5469 88.0973 68.3067 88.0973 69.2461ZM90.3187 74.3472C90.3187 75.2502 91.0495 75.981 91.9516 75.981C92.8529 75.981 93.5837 75.2502 93.5837 74.3472C93.5837 73.4459 92.8529 72.7151 91.9516 72.7151C91.0495 72.7151 90.3187 73.4459 90.3187 74.3472ZM92.4322 79.4936C92.4322 80.3586 93.134 81.0604 93.9981 81.0604C94.863 81.0604 95.5648 80.3586 95.5648 79.4936C95.5648 78.6286 94.863 77.9286 93.9981 77.9286C93.134 77.9286 92.4322 78.6286 92.4322 79.4936ZM94.1703 83.4849C93.3425 83.4849 92.6706 84.1558 92.6706 84.9846C92.6706 85.8133 93.3425 86.4842 94.1703 86.4842C94.9981 86.4842 95.67 85.8133 95.67 84.9846C95.67 84.1558 94.9981 83.4849 94.1703 83.4849ZM91.8863 88.5479C91.0948 88.5479 90.4528 89.1898 90.4528 89.9805C90.4528 90.7729 91.0948 91.4149 91.8863 91.4149C92.6779 91.4149 93.3189 90.7729 93.3189 89.9805C93.3189 89.1898 92.6779 88.5479 91.8863 88.5479ZM88.0175 92.4521C87.2631 92.4521 86.651 93.0651 86.651 93.8194C86.651 94.5738 87.2631 95.1849 88.0175 95.1849C88.7727 95.1849 89.3839 94.5738 89.3839 93.8194C89.3839 93.0651 88.7728 92.4521 88.0175 92.4521ZM83.6535 93.5909C82.7724 93.5909 82.0595 94.3059 82.0595 95.187C82.0595 96.0639 82.7724 96.7789 83.6535 96.7789C84.5346 96.7789 85.2475 96.0639 85.2475 95.187C85.2475 94.3059 84.5346 93.5909 83.6535 93.5909ZM46.0319 10.978C46.0319 12.2637 47.0746 13.3046 48.3603 13.3046C49.646 13.3046 50.6887 12.2637 50.6887 10.978C50.6887 9.69046 49.646 8.64956 48.3603 8.64956C47.0746 8.64956 46.0319 9.69045 46.0319 10.978ZM51.2862 11.2191C51.2862 12.4976 52.3225 13.533 53.6001 13.533C54.8785 13.533 55.914 12.4976 55.914 11.2191C55.914 9.9407 54.8785 8.90525 53.6001 8.90525C52.3225 8.90525 51.2862 9.9407 51.2862 11.2191ZM58.5144 10.7459C57.2441 10.7459 56.2141 11.7759 56.2141 13.0452C56.2141 13.6273 56.4489 14.146 56.8062 14.5504C56.5314 14.4343 56.2304 14.3672 55.9131 14.3672C54.6573 14.3672 53.6391 15.3845 53.6391 16.6412C53.6391 17.8961 54.6573 18.9152 55.9131 18.9152C57.1689 18.9152 58.1871 17.8961 58.1871 16.6412C58.1871 16.0664 57.955 15.555 57.6032 15.156C57.8834 15.2757 58.1898 15.3464 58.5144 15.3464C59.7847 15.3464 60.8147 14.3164 60.8147 13.0452C60.8147 12.572 60.637 12.1567 60.3922 11.7922C60.6859 11.9318 61.0069 12.0243 61.3542 12.0243C62.6054 12.0243 63.6191 11.0088 63.6191 9.75937C63.6191 8.50812 62.6054 7.49443 61.3542 7.49443C60.1029 7.49443 59.0892 8.50812 59.0892 9.75937C59.0892 10.2236 59.2624 10.6298 59.5018 10.9889C59.1999 10.8438 58.8725 10.7459 58.5144 10.7459ZM85.9783 67.313C85.0081 67.313 84.2211 68.1 84.2211 69.0702C84.2211 70.0403 85.0081 70.8273 85.9783 70.8273C86.9494 70.8273 87.7364 70.0403 87.7364 69.0702C87.7364 68.1 86.9494 67.313 85.9783 67.313ZM89.6994 73.9174C89.6994 72.9889 88.9468 72.2364 88.0175 72.2364C87.0881 72.2364 86.3355 72.9889 86.3355 73.9174C86.3355 74.8477 87.0881 75.6002 88.0175 75.6002C88.9468 75.6002 89.6994 74.8477 89.6994 73.9174ZM91.6633 78.7664C91.6633 77.8779 90.9434 77.1579 90.0557 77.1579C89.169 77.1579 88.449 77.8778 88.449 78.7664C88.449 79.6532 89.169 80.3731 90.0557 80.3731C90.9434 80.3731 91.6633 79.6532 91.6633 78.7664ZM91.3287 85.3762C92.1747 85.3762 92.8601 84.6908 92.8601 83.8457C92.8601 82.9989 92.1747 82.3134 91.3287 82.3134C90.4828 82.3134 89.7973 82.9989 89.7973 83.8457C89.7973 84.6908 90.4828 85.3762 91.3287 85.3762ZM48.4301 15.9304C48.4301 14.6918 47.4255 13.6872 46.1869 13.6872C44.9474 13.6872 43.9437 14.6918 43.9437 15.9304C43.9437 17.1689 44.9474 18.1735 46.1869 18.1735C47.4255 18.1735 48.4301 17.1689 48.4301 15.9304ZM51.1112 13.1939C49.8636 13.1939 48.8526 14.2058 48.8526 15.4534C48.8526 16.6992 49.8636 17.7111 51.1112 17.7111C52.3588 17.7111 53.3698 16.6992 53.3698 15.4534C53.3698 14.2058 52.3588 13.1939 51.1112 13.1939ZM82.4521 73.6943C82.4521 74.6482 83.2247 75.4207 84.1776 75.4207C85.1305 75.4207 85.903 74.6482 85.903 73.6943C85.903 72.7423 85.1305 71.9698 84.1776 71.9698C83.2247 71.9698 82.4521 72.7423 82.4521 73.6943ZM84.4532 78.2786C84.4532 79.1853 85.1885 79.9197 86.0962 79.9197C87.0029 79.9197 87.7382 79.1853 87.7382 78.2786C87.7382 77.3701 87.0029 76.6357 86.0962 76.6357C85.1886 76.6357 84.4532 77.3701 84.4532 78.2786ZM89.4228 82.9191C89.4228 82.0577 88.7247 81.3596 87.8633 81.3596C87.002 81.3596 86.3038 82.0577 86.3038 82.9191C86.3038 83.7804 87.002 84.4786 87.8633 84.4786C88.7247 84.4786 89.4228 83.7804 89.4228 82.9191ZM89.3394 86.4915C88.5243 86.4915 87.8633 87.1516 87.8633 87.9676C87.8633 88.7818 88.5243 89.4437 89.3394 89.4437C90.1555 89.4437 90.8164 88.7818 90.8164 87.9676C90.8164 87.1515 90.1555 86.4915 89.3394 86.4915ZM51.6896 83.2745C52.5655 83.2745 53.2782 82.5636 53.2782 81.686C53.2782 80.8083 52.5655 80.0975 51.6896 80.0975C50.812 80.0975 50.1011 80.8083 50.1011 81.686C50.1011 82.5636 50.812 83.2745 51.6896 83.2745ZM47.6893 83.7043C48.683 83.7043 49.4882 82.8991 49.4882 81.9054C49.4882 80.9117 48.683 80.1065 47.6893 80.1065C46.6965 80.1065 45.8904 80.9117 45.8904 81.9054C45.8904 82.8991 46.6965 83.7043 47.6893 83.7043ZM49.0575 22.1412C50.2516 22.1412 51.2191 21.1729 51.2191 19.9778C51.2191 18.7846 50.2516 17.8163 49.0575 17.8163C47.8634 17.8163 46.895 18.7846 46.895 19.9778C46.895 21.1729 47.8634 22.1412 49.0575 22.1412ZM55.894 20.5509C55.894 19.3287 54.903 18.3367 53.6808 18.3367C52.4586 18.3367 51.4675 19.3287 51.4675 20.5509C51.4675 21.7731 52.4586 22.7632 53.6808 22.7632C54.903 22.7632 55.894 21.7731 55.894 20.5509ZM80.4837 72.0369C79.5072 72.0369 78.7147 72.8275 78.7147 73.8049C78.7147 74.7824 79.5072 75.573 80.4837 75.573C81.4602 75.573 82.2527 74.7824 82.2527 73.8049C82.2527 72.8275 81.4602 72.0369 80.4837 72.0369ZM80.6016 78.1154C80.6016 79.042 81.3523 79.7928 82.279 79.7928C83.2056 79.7928 83.9564 79.042 83.9564 78.1154C83.9564 77.1888 83.2056 76.438 82.279 76.438C81.3523 76.438 80.6016 77.1888 80.6016 78.1154ZM85.6609 82.4295C85.6609 81.5536 84.951 80.8427 84.0751 80.8427C83.1993 80.8427 82.4893 81.5536 82.4893 82.4295C82.4893 83.3053 83.1993 84.0162 84.0751 84.0162C84.951 84.0162 85.6609 83.3053 85.6609 82.4295ZM86.3038 88.3158C87.1298 88.3158 87.7989 87.6466 87.7989 86.8215C87.7989 85.9946 87.1298 85.3255 86.3038 85.3255C85.4787 85.3255 84.8086 85.9946 84.8086 86.8215C84.8086 87.6466 85.4787 88.3158 86.3038 88.3158ZM88.0546 91.0477C88.0546 90.2715 87.4263 89.6423 86.6511 89.6423C85.8758 89.6423 85.2475 90.2715 85.2475 91.0477C85.2475 91.822 85.8758 92.4512 86.6511 92.4512C87.4263 92.4512 88.0546 91.822 88.0546 91.0477ZM50.8383 78.2877C50.8383 77.3592 50.0848 76.6067 49.1563 76.6067C48.2279 76.6067 47.4744 77.3592 47.4744 78.2877C47.4744 79.2161 48.2279 79.9687 49.1563 79.9687C50.0848 79.9687 50.8383 79.2161 50.8383 78.2877ZM26.2304 80.6632C27.3919 80.6632 28.334 79.7221 28.334 78.5597C28.334 77.3991 27.3919 76.4561 26.2304 76.4561C25.069 76.4561 24.1269 77.3991 24.1269 78.5597C24.1269 79.7221 25.069 80.6632 26.2304 80.6632ZM25.6085 75.1995C25.6085 74.0335 24.6628 73.0869 23.4958 73.0869C22.3289 73.0869 21.3823 74.0335 21.3823 75.1995C21.3823 76.3673 22.3289 77.3121 23.4958 77.3121C24.6628 77.3121 25.6085 76.3673 25.6085 75.1995ZM45.0544 24.8559C45.0544 25.9585 45.9484 26.8543 47.0519 26.8543C48.1544 26.8543 49.0484 25.9585 49.0484 24.8559C49.0484 23.7534 48.1544 22.8594 47.0519 22.8594C45.9484 22.8594 45.0544 23.7534 45.0544 24.8559ZM49.3431 24.6311C49.3431 25.7807 50.2752 26.7128 51.4249 26.7128C52.5746 26.7128 53.5067 25.7807 53.5067 24.6311C53.5067 23.4814 52.5746 22.5493 51.4249 22.5493C50.2752 22.5493 49.3431 23.4814 49.3431 24.6311ZM76.8959 78.2877C76.8959 79.2325 77.6621 79.9995 78.6077 79.9995C79.5525 79.9995 80.3196 79.2325 80.3196 78.2877C80.3196 77.3411 79.5525 76.5758 78.6077 76.5758C77.6621 76.5758 76.8959 77.3411 76.8959 78.2877ZM81.9018 82.3479C81.9018 81.4575 81.18 80.7358 80.2896 80.7358C79.3993 80.7358 78.6775 81.4575 78.6775 82.3479C78.6775 83.2383 79.3993 83.96 80.2896 83.96C81.18 83.96 81.9018 83.2383 81.9018 82.3479ZM82.9653 84.7452C82.1312 84.7452 81.4529 85.4216 81.4529 86.2576C81.4529 87.0917 82.1311 87.77 82.9653 87.77C83.8013 87.77 84.4777 87.0917 84.4777 86.2576C84.4777 85.4216 83.8013 84.7452 82.9653 84.7452ZM83.4345 88.5696C82.6548 88.5696 82.0219 89.2007 82.0219 89.9805C82.0219 90.7602 82.6548 91.3949 83.4345 91.3949C84.2143 91.3949 84.8463 90.7602 84.8463 89.9805C84.8463 89.2007 84.2143 88.5696 83.4345 88.5696ZM54.8957 79.1545C54.8957 78.3783 54.2665 77.7491 53.4903 77.7491C52.7124 77.7491 52.0832 78.3784 52.0832 79.1545C52.0832 79.9306 52.7124 80.5599 53.4903 80.5599C54.2665 80.5599 54.8957 79.9306 54.8957 79.1545ZM50.1881 75.8287C50.1881 76.6592 50.8609 77.3302 51.6896 77.3302C52.5183 77.3302 53.1911 76.6592 53.1911 75.8287C53.1911 74.9982 52.5183 74.3272 51.6896 74.3272C50.8609 74.3272 50.1881 74.9982 50.1881 75.8287ZM46.3301 77.7491C47.2114 77.7491 47.9259 77.0328 47.9259 76.1515C47.9259 75.2702 47.2114 74.5557 46.3301 74.5557C45.4479 74.5557 44.7334 75.2702 44.7334 76.1515C44.7334 77.0328 45.4479 77.7491 46.3301 77.7491ZM42.2609 77.7799C43.1957 77.7799 43.9528 77.0219 43.9528 76.088C43.9528 75.1541 43.1957 74.3961 42.2609 74.3961C41.327 74.3961 40.569 75.1541 40.569 76.088C40.569 77.0219 41.327 77.7799 42.2609 77.7799ZM30.1247 77.3701C31.1275 77.3701 31.9408 76.5559 31.9408 75.5531C31.9408 74.5503 31.1275 73.7361 30.1247 73.7361C29.121 73.7361 28.3077 74.5503 28.3077 75.5531C28.3077 76.5559 29.121 77.3701 30.1247 77.3701ZM29.2652 72.6063C29.2652 71.6071 28.4546 70.7966 27.4554 70.7966C26.4562 70.7966 25.6456 71.6071 25.6456 72.6063C25.6456 73.6055 26.4562 74.4161 27.4554 74.4161C28.4546 74.4161 29.2652 73.6055 29.2652 72.6063ZM37.2985 49.9751C37.2985 49.0285 36.5323 48.2633 35.5876 48.2633C34.6419 48.2633 33.8757 49.0285 33.8757 49.9751C33.8757 50.9199 34.6419 51.6851 35.5876 51.6851C36.5323 51.6851 37.2985 50.9199 37.2985 49.9751ZM47.4019 31.172C48.411 31.172 49.2298 30.3542 49.2298 29.3441C49.2298 28.3358 48.411 27.5162 47.4019 27.5162C46.3927 27.5162 45.574 28.3358 45.574 29.3441C45.574 30.3542 46.3927 31.172 47.4019 31.172ZM51.4231 27.3076C50.3486 27.3076 49.4782 28.1781 49.4782 29.2516C49.4782 30.327 50.3486 31.1974 51.4231 31.1974C52.4975 31.1974 53.3679 30.327 53.3679 29.2516C53.3679 28.1781 52.4975 27.3076 51.4231 27.3076ZM75.5249 78.139C74.5666 78.139 73.7895 78.9152 73.7895 79.8744C73.7895 80.8319 74.5666 81.6098 75.5249 81.6098C76.4833 81.6098 77.2604 80.8319 77.2604 79.8744C77.2604 78.9151 76.4833 78.139 75.5249 78.139ZM77.0736 85.2639C77.9739 85.2639 78.7029 84.5349 78.7029 83.6354C78.7029 82.7342 77.9739 82.0052 77.0736 82.0052C76.1741 82.0052 75.4451 82.7342 75.4451 83.6354C75.4451 84.5349 76.1741 85.2639 77.0736 85.2639ZM81.093 87.1244C81.093 86.283 80.4111 85.6011 79.5697 85.6011C78.7292 85.6011 78.0474 86.283 78.0474 87.1244C78.0474 87.9658 78.7292 88.6477 79.5697 88.6477C80.4111 88.6477 81.093 87.9658 81.093 87.1244ZM80.2887 89.9805C79.5072 89.9805 78.8725 90.6152 78.8725 91.3986C78.8725 92.182 79.5072 92.8167 80.2887 92.8167C81.0721 92.8167 81.7068 92.182 81.7068 91.3986C81.7068 90.6152 81.0721 89.9805 80.2887 89.9805ZM49.3785 71.9227C48.5724 71.9227 47.9187 72.5773 47.9187 73.3825C47.9187 74.1894 48.5724 74.8423 49.3785 74.8423C50.1845 74.8423 50.8382 74.1894 50.8382 73.3825C50.8382 72.5773 50.1845 71.9227 49.3785 71.9227ZM45.661 74.164C46.4952 74.164 47.1715 73.4877 47.1715 72.6535C47.1715 71.8175 46.4951 71.1411 45.661 71.1411C44.8259 71.1411 44.1495 71.8175 44.1495 72.6535C44.1495 73.4877 44.8259 74.164 45.661 74.164ZM41.8538 74.1713C42.716 74.1713 43.416 73.4732 43.416 72.61C43.416 71.7468 42.716 71.0468 41.8538 71.0468C40.9906 71.0468 40.2915 71.7468 40.2915 72.61C40.2915 73.4731 40.9906 74.1713 41.8538 74.1713ZM38.0565 74.1985C38.9269 74.1985 39.6332 73.4931 39.6332 72.6226C39.6332 71.7522 38.9269 71.045 38.0565 71.045C37.1852 71.045 36.4788 71.7522 36.4788 72.6226C36.4788 73.4931 37.1852 74.1985 38.0565 74.1985ZM34.2674 74.0951C35.1387 74.0951 35.8451 73.3897 35.8451 72.5175C35.8451 71.647 35.1387 70.9416 34.2674 70.9416C33.3961 70.9416 32.6907 71.647 32.6907 72.5175C32.6907 73.3897 33.3961 74.0951 34.2674 74.0951ZM33.0488 70.1492C33.0488 69.2769 32.3425 68.5715 31.4711 68.5715C30.5998 68.5715 29.8935 69.2769 29.8935 70.1492C29.8935 71.0196 30.5998 71.7268 31.4711 71.7268C32.3425 71.7268 33.0488 71.0196 33.0488 70.1492ZM37.7582 54.1115C38.6014 54.1115 39.286 53.4278 39.286 52.5846C39.286 51.7396 38.6014 51.0559 37.7582 51.0559C36.9141 51.0559 36.2304 51.7396 36.2304 52.5846C36.2304 53.4278 36.9141 54.1115 37.7582 54.1115ZM37.7745 49.1101C37.7745 49.9425 38.4491 50.6171 39.2814 50.6171C40.1138 50.6171 40.7893 49.9425 40.7893 49.1101C40.7893 48.2778 40.1138 47.6032 39.2814 47.6032C38.4491 47.6032 37.7745 48.2778 37.7745 49.1101ZM39.3014 45.6357C39.3014 46.4662 39.9742 47.139 40.8056 47.139C41.6361 47.139 42.3098 46.4662 42.3098 45.6357C42.3098 44.8051 41.6361 44.1305 40.8056 44.1305C39.9742 44.1305 39.3014 44.8051 39.3014 45.6357ZM40.8047 42.1612C40.8047 43.0026 41.4874 43.6844 42.3289 43.6844C43.1703 43.6844 43.853 43.0026 43.853 42.1612C43.853 41.318 43.1703 40.6361 42.3289 40.6361C41.4874 40.6361 40.8047 41.318 40.8047 42.1612ZM42.3089 38.6867C42.3089 39.539 42.9998 40.2299 43.853 40.2299C44.7053 40.2299 45.3962 39.539 45.3962 38.6867C45.3962 37.8326 44.7053 37.1417 43.853 37.1417C42.9998 37.1417 42.3089 37.8326 42.3089 38.6867ZM44.0162 35.3156C44.0162 36.1788 44.7162 36.8788 45.5803 36.8788C46.4435 36.8788 47.1434 36.1788 47.1434 35.3156C47.1434 34.4524 46.4435 33.7525 45.5803 33.7525C44.7162 33.7525 44.0162 34.4524 44.0162 35.3156ZM50.4955 33.5874C50.4955 32.6862 49.7656 31.9572 48.8643 31.9572C47.9631 31.9572 47.2332 32.6862 47.2332 33.5874C47.2332 34.4887 47.9631 35.2195 48.8643 35.2195C49.7656 35.2195 50.4955 34.4887 50.4955 33.5874ZM54.2338 34.5558C54.2338 33.5729 53.4368 32.775 52.4531 32.775C51.4693 32.775 50.6723 33.5729 50.6723 34.5558C50.6723 35.5405 51.4693 36.3366 52.4531 36.3366C53.4368 36.3366 54.2338 35.5405 54.2338 34.5558ZM75.583 89.5163C75.583 90.3613 76.2684 91.0468 77.1135 91.0468C77.9585 91.0468 78.644 90.3613 78.644 89.5163C78.644 88.6712 77.9585 87.9857 77.1135 87.9857C76.2684 87.9857 75.583 88.6712 75.583 89.5163ZM55.9874 79.0638C56.6828 79.0638 57.2468 78.4999 57.2468 77.8035C57.2468 77.109 56.6828 76.545 55.9874 76.545C55.2919 76.545 54.728 77.109 54.728 77.8035C54.728 78.4999 55.2919 79.0638 55.9874 79.0638ZM54.495 73.3897C53.8222 73.3897 53.2754 73.9356 53.2754 74.6083C53.2754 75.2829 53.8222 75.8287 54.495 75.8287C55.1686 75.8287 55.7145 75.2829 55.7145 74.6083C55.7145 73.9356 55.1686 73.3897 54.495 73.3897ZM52.152 70.7966C51.501 70.7966 50.9733 71.3243 50.9733 71.9753C50.9733 72.6263 51.501 73.154 52.152 73.154C52.8031 73.154 53.3316 72.6263 53.3316 71.9753C53.3316 71.3243 52.803 70.7966 52.152 70.7966ZM49.1563 71.2572C49.7846 71.2572 50.2951 70.7476 50.2951 70.1184C50.2951 69.4891 49.7847 68.9795 49.1563 68.9795C48.5271 68.9795 48.0175 69.4891 48.0175 70.1184C48.0175 70.7476 48.5271 71.2572 49.1563 71.2572ZM45.7526 70.3323C46.3773 70.3323 46.8832 69.8264 46.8832 69.2008C46.8832 68.5769 46.3773 68.071 45.7526 68.071C45.1287 68.071 44.6228 68.5769 44.6228 69.2008C44.6228 69.8264 45.1287 70.3323 45.7526 70.3323ZM41.0831 69.1282C41.0831 69.7539 41.5908 70.2616 42.2164 70.2616C42.842 70.2616 43.3498 69.7539 43.3498 69.1282C43.3498 68.5026 42.842 67.9948 42.2164 67.9948C41.5908 67.9948 41.0831 68.5026 41.0831 69.1282ZM38.6785 68.0112C38.0511 68.0112 37.5424 68.5207 37.5424 69.1482C37.5424 69.7756 38.0511 70.2852 38.6785 70.2852C39.3059 70.2852 39.8146 69.7756 39.8146 69.1482C39.8146 68.5207 39.3059 68.0112 38.6785 68.0112ZM36.7354 67.8534C36.7354 67.2241 36.2259 66.7128 35.5966 66.7128C34.9674 66.7128 34.4569 67.2242 34.4569 67.8534C34.4569 68.4826 34.9674 68.9922 35.5966 68.9922C36.2259 68.9922 36.7354 68.4827 36.7354 67.8534ZM34.6156 64.4968C34.6156 65.1279 35.127 65.6392 35.758 65.6392C36.3891 65.6392 36.9004 65.1279 36.9004 64.4968C36.9004 63.8658 36.3891 63.3544 35.758 63.3544C35.127 63.3544 34.6156 63.8658 34.6156 64.4968ZM38.353 61.2671C38.353 60.6288 37.8353 60.112 37.1978 60.112C36.5595 60.112 36.0418 60.6288 36.0418 61.2671C36.0418 61.9055 36.5595 62.4223 37.1978 62.4223C37.8353 62.4223 38.353 61.9055 38.353 61.2671ZM38.6368 56.8443C37.9785 56.8443 37.4445 57.3774 37.4445 58.0375C37.4445 58.6957 37.9785 59.2289 38.6368 59.2289C39.295 59.2289 39.8291 58.6957 39.8291 58.0375C39.8291 57.3774 39.295 56.8443 38.6368 56.8443ZM41.3052 54.806C41.3052 54.1278 40.7548 53.5783 40.0766 53.5783C39.3975 53.5783 38.848 54.1278 38.848 54.806C38.848 55.486 39.3975 56.0355 40.0766 56.0355C40.7548 56.0355 41.3052 55.486 41.3052 54.806ZM41.5165 50.3106C40.8174 50.3106 40.2507 50.8782 40.2507 51.5763C40.2507 52.2763 40.8174 52.8421 41.5165 52.8421C42.2146 52.8421 42.7813 52.2763 42.7813 51.5763C42.7813 50.8782 42.2146 50.3106 41.5165 50.3106ZM42.9554 47.0447C42.2364 47.0447 41.6534 47.6268 41.6534 48.3467C41.6534 49.0666 42.2364 49.6487 42.9554 49.6487C43.6744 49.6487 44.2574 49.0666 44.2574 48.3467C44.2574 47.6268 43.6744 47.0447 42.9554 47.0447ZM45.7344 45.117C45.7344 44.3772 45.1342 43.7787 44.3952 43.7787C43.6554 43.7787 43.056 44.3772 43.056 45.117C43.056 45.8569 43.6554 46.4553 44.3952 46.4553C45.1342 46.4553 45.7344 45.8569 45.7344 45.117ZM45.8351 40.511C45.0753 40.511 44.4596 41.1275 44.4596 41.8874C44.4596 42.6472 45.0753 43.2619 45.8351 43.2619C46.594 43.2619 47.2105 42.6472 47.2105 41.8874C47.2105 41.1275 46.594 40.511 45.8351 40.511ZM48.8879 38.7792C48.8879 37.9994 48.2559 37.3666 47.4762 37.3666C46.6964 37.3666 46.0636 37.9994 46.0636 38.7792C46.0636 39.559 46.6964 40.1918 47.4762 40.1918C48.256 40.1918 48.8879 39.559 48.8879 38.7792ZM52.2282 38.5344C52.2282 37.722 51.569 37.0637 50.7566 37.0637C49.9433 37.0637 49.2841 37.722 49.2841 38.5344C49.2841 39.3486 49.9433 40.0069 50.7566 40.0069C51.569 40.0069 52.2282 39.3486 52.2282 38.5344ZM77.3528 92.7931C77.3528 93.7705 76.5604 94.5629 75.583 94.5629C74.6046 94.5629 73.8122 93.7705 73.8122 92.7931C73.8122 92.5483 73.862 92.3161 73.9509 92.1058C73.6571 92.2781 73.3343 92.405 72.968 92.405C71.8773 92.405 70.9933 91.5201 70.9933 90.4284C70.9933 90.082 71.1066 89.7738 71.2625 89.4909C71.2181 89.4927 71.1809 89.5163 71.1356 89.5163C69.9723 89.5163 69.0303 88.5733 69.0303 87.4109C69.0303 86.9866 69.1862 86.6148 69.4011 86.2848C68.3684 86.0908 67.5714 85.2258 67.5714 84.1359C67.5714 83.7515 67.6938 83.4087 67.8642 83.0932C66.8642 82.8212 66.1143 81.9453 66.1143 80.8591C66.1143 80.5055 66.205 80.1773 66.3446 79.8762C65.3844 79.5426 64.6853 78.6576 64.6853 77.5841C64.6853 77.2414 64.757 76.9168 64.8839 76.6194C63.9627 76.2531 63.3071 75.3609 63.3071 74.3073C63.3071 73.9772 63.3788 73.6672 63.4949 73.3788C62.5764 72.9944 61.9299 72.0895 61.9299 71.0323C61.9299 70.7113 62.0042 70.4103 62.1121 70.1292C61.1955 69.7285 60.5526 68.8199 60.5526 67.7555C60.5526 67.4418 60.6288 67.1498 60.7312 66.8723C59.8173 66.4589 59.1744 65.5486 59.1744 64.4805C59.1744 64.1686 59.2524 63.8802 59.3512 63.6046C58.4464 63.1766 57.8099 62.2718 57.8099 61.2037C57.8099 60.87 57.8878 60.5563 58.0003 60.2625C57.1335 59.8346 56.5233 58.9605 56.5233 57.9287C56.5233 57.5533 56.6076 57.1997 56.7499 56.8769C55.9158 56.4761 55.3291 55.6402 55.3291 54.6537C55.3291 54.2185 55.4706 53.8304 55.6664 53.475C54.8232 53.1467 54.2202 52.3361 54.2202 51.3769C54.2202 50.8673 54.4197 50.4212 54.7035 50.0422C53.8041 49.8355 53.1186 49.0666 53.1186 48.1019C53.1186 47.5071 53.3843 46.983 53.7923 46.6113C52.8167 46.5967 52.0288 45.8043 52.0288 44.8251C52.0288 43.8368 52.8303 43.0352 53.8195 43.0352C54.4723 43.0352 55.019 43.4034 55.3319 43.9256C55.4298 43.6627 55.5758 43.4306 55.7598 43.2256C54.9447 43.1459 54.2783 42.6163 54.0144 41.871C53.8621 42.591 53.2528 43.1422 52.4876 43.1422C51.6072 43.1422 50.8945 42.4296 50.8945 41.5501C50.8945 40.6706 51.6072 39.9561 52.4876 39.9561C53.134 39.9561 53.6853 40.346 53.9346 40.899C54.0126 40.3532 54.2882 39.889 54.7062 39.5662C54.6419 39.5735 54.5857 39.6043 54.5195 39.6043C53.4532 39.6043 52.5891 38.7411 52.5891 37.6748C52.5891 36.6085 53.4532 35.7436 54.5195 35.7436C54.7289 35.7436 54.9202 35.8016 55.1088 35.8632C54.9075 35.5332 54.7606 35.1669 54.7606 34.7516C54.7606 34.1568 55.0018 33.6201 55.389 33.2266C55.2312 33.2646 55.0807 33.3227 54.9112 33.3227C53.7723 33.3227 52.8493 32.3996 52.8493 31.2608C52.8493 30.122 53.7723 29.199 54.9112 29.199C55.3754 29.199 55.7825 29.3803 56.127 29.6397C56.127 29.6197 56.1162 29.6034 56.1162 29.5834C56.1162 28.3431 57.1226 27.3366 58.363 27.3366C58.45 27.3366 58.5243 27.3765 58.6087 27.3856C58.4681 27.0882 58.3766 26.7654 58.3766 26.4136C58.3766 25.1424 59.4084 24.1106 60.6805 24.1106C60.7575 24.1106 60.8219 24.1469 60.8972 24.1541C60.7947 23.893 60.7276 23.6119 60.7276 23.3145C60.7276 22.0415 61.7604 21.0097 63.0334 21.0097C63.163 21.0097 63.2755 21.0623 63.4006 21.084C63.3661 20.9263 63.3045 20.7776 63.3045 20.6089C63.3045 19.3541 64.3218 18.3367 65.5758 18.3367C65.7644 18.3367 65.933 18.4002 66.108 18.4437C66.1007 18.373 66.0663 18.3113 66.0663 18.237C66.0663 17.0329 67.0428 16.0573 68.246 16.0573C69.4491 16.0573 70.4248 17.0329 70.4248 18.237C70.4248 19.4411 69.4492 20.4167 68.246 20.4167C68.0846 20.4167 67.9413 20.3587 67.7899 20.3242C67.8026 20.4221 67.847 20.5074 67.847 20.6089C67.847 21.8638 66.8306 22.8793 65.5757 22.8793C65.4551 22.8793 65.3518 22.8285 65.2366 22.8104C65.2747 22.9772 65.3382 23.135 65.3382 23.3145C65.3382 24.5875 64.3064 25.6211 63.0334 25.6211C62.9563 25.6211 62.891 25.5849 62.8149 25.5776C62.9173 25.8369 62.9844 26.1162 62.9844 26.4136C62.9844 26.6022 62.92 26.769 62.8774 26.9449C63.2374 26.1289 64.048 25.5559 64.9964 25.5559C65.1432 25.5559 65.272 25.6139 65.4116 25.6393C65.4053 25.574 65.3726 25.516 65.3726 25.4489C65.3726 24.2013 66.3836 23.1912 67.6303 23.1912C67.8561 23.1912 68.0619 23.2583 68.2677 23.3199C68.2786 22.1485 69.227 21.2001 70.4012 21.2001C71.5808 21.2001 72.5374 22.1576 72.5374 23.3381C72.5374 24.5186 71.5808 25.4743 70.4012 25.4743C70.2135 25.4743 70.0449 25.4126 69.8708 25.3673C69.8717 25.3963 69.8871 25.4199 69.8871 25.4489C69.8871 26.6947 68.877 27.7047 67.6303 27.7047C67.5016 27.7047 67.39 27.6522 67.2667 27.6322C67.2758 27.7156 67.3166 27.79 67.3166 27.877C67.3166 29.1591 66.2775 30.1982 64.9964 30.1982C64.9139 30.1982 64.844 30.1601 64.7643 30.151C64.8087 30.3324 64.8749 30.5065 64.8749 30.7005C64.8749 31.6181 64.3354 32.3906 63.5692 32.7768C63.8095 32.6952 64.057 32.6245 64.3245 32.6245C64.4306 32.6245 64.5213 32.6716 64.6228 32.6843C64.6155 32.6064 64.5775 32.5375 64.5775 32.4577C64.5775 31.1683 65.6238 30.122 66.914 30.122C67.1054 30.122 67.2758 30.1873 67.4544 30.2308C67.4898 29.0322 68.4618 28.0674 69.6686 28.0674C69.9642 28.0674 70.2434 28.1309 70.5018 28.2361C70.6079 27.1789 71.4711 26.3429 72.5555 26.3429C73.7125 26.3429 74.6509 27.2804 74.6509 28.4374C74.6509 29.5943 73.7125 30.5337 72.5555 30.5337C72.3143 30.5337 72.0913 30.472 71.8755 30.3958C71.8193 31.5782 70.8627 32.523 69.6686 32.523C69.519 32.523 69.3884 32.4667 69.247 32.4377C69.247 32.445 69.2506 32.4504 69.2506 32.4577C69.2506 33.7488 68.2043 34.7951 66.914 34.7951C66.8234 34.7951 66.7463 34.7534 66.6574 34.7444C66.6683 34.835 66.7118 34.9166 66.7118 35.0109C66.7118 35.8832 66.2204 36.614 65.5222 37.0292C65.7181 36.9785 65.9076 36.9096 66.1198 36.9096C66.273 36.9096 66.4063 36.9694 66.5513 36.9966C66.5758 35.7526 67.5832 34.7498 68.8326 34.7498C69.0983 34.7498 69.3449 34.8169 69.5824 34.9003C69.7067 33.8195 70.5925 32.9672 71.7077 32.9672C72.0795 32.9672 72.4113 33.0851 72.7178 33.2483C72.8638 32.2582 73.6807 31.4857 74.7107 31.4857C75.8441 31.4857 76.7635 32.4051 76.7635 33.5384C76.7635 34.6718 75.8441 35.5912 74.7107 35.5912C74.3934 35.5912 74.1014 35.506 73.8331 35.3772C73.7106 36.4616 72.8248 37.3158 71.7078 37.3158C71.4892 37.3158 71.2907 37.2505 71.0921 37.1924C71.0105 38.3802 70.044 39.3304 68.8326 39.3304C68.722 39.3304 68.6277 39.2833 68.5216 39.267C68.5216 39.2869 68.5325 39.3032 68.5325 39.3214C68.5325 40.2517 67.9885 41.035 67.2169 41.4376C67.4408 41.3651 67.6675 41.2962 67.915 41.2962C68.1453 41.2962 68.3548 41.3651 68.5642 41.4267C68.6676 40.2952 69.5906 39.3957 70.7503 39.3957C71.093 39.3957 71.4085 39.4882 71.6996 39.626C71.8764 38.6341 72.7042 37.867 73.746 37.867C74.1939 37.867 74.5874 38.0375 74.9292 38.275C75.1061 37.3448 75.8858 36.6285 76.866 36.6285C77.9758 36.6285 78.8761 37.5297 78.8761 38.6395C78.8761 39.7493 77.9758 40.6488 76.866 40.6488C76.467 40.6488 76.1161 40.5019 75.8033 40.3024C75.6464 41.3161 74.806 42.1086 73.746 42.1086C73.4495 42.1086 73.1684 42.0451 72.9128 41.9363C72.7532 43.0098 71.8673 43.8458 70.7503 43.8458C70.5653 43.8458 70.4012 43.7823 70.2298 43.7406C70.17 44.9774 69.1672 45.9675 67.915 45.9675C67.8017 45.9675 67.7047 45.9185 67.5959 45.904C67.5696 46.5097 67.3311 47.0555 66.944 47.4726C67.1471 47.4817 67.3357 47.5324 67.5225 47.5887C67.6983 46.5151 68.5878 45.6828 69.7112 45.6828C70.0186 45.6828 70.3105 45.7462 70.578 45.8569C70.7494 44.8359 71.598 44.0417 72.6689 44.0417C73.095 44.0417 73.4695 44.1976 73.8041 44.4098C74.0053 43.4795 74.7942 42.7687 75.7852 42.7687C76.3102 42.7687 76.7762 42.9808 77.1407 43.3018C77.3447 42.4332 78.0891 41.7713 79.0212 41.7713C80.1083 41.7713 80.9887 42.6526 80.9887 43.7388C80.9887 44.8269 80.1083 45.7082 79.0212 45.7082C78.5397 45.7082 78.1145 45.516 77.7718 45.2276C77.5832 46.1724 76.7871 46.9014 75.7852 46.9014C75.4007 46.9014 75.0607 46.7672 74.7524 46.584C74.5666 47.5887 73.727 48.363 72.6688 48.363C72.4023 48.363 72.152 48.2995 71.9163 48.2107C71.7785 49.3259 70.8636 50.2018 69.7112 50.2018C69.528 50.2018 69.3648 50.1383 69.1935 50.0966C69.1354 50.666 68.9133 51.1883 68.528 51.5709C68.8453 51.5727 69.149 51.6344 69.4247 51.7504C69.6559 50.7948 70.4783 50.0694 71.5065 50.0694C71.9018 50.0694 72.2518 50.2018 72.5718 50.3867C72.7632 49.4256 73.571 48.6894 74.5865 48.6894C75.0961 48.6894 75.5458 48.8925 75.9094 49.1953C76.1306 48.3249 76.8841 47.6685 77.8234 47.6685C78.4391 47.6685 78.9704 47.9604 79.3403 48.3974C79.5453 47.5542 80.2706 46.9141 81.1764 46.9141C82.24 46.9141 83.1013 47.7773 83.1013 48.8399C83.1013 49.9044 82.24 50.7657 81.1764 50.7657C80.6034 50.7657 80.1029 50.5046 79.7502 50.1075C79.5498 51.0069 78.7836 51.6942 77.8234 51.6942C77.351 51.6942 76.9349 51.5074 76.5921 51.2336C76.3809 52.1693 75.5848 52.8802 74.5865 52.8802C74.2302 52.8802 73.911 52.7695 73.6173 52.6118C73.4396 53.6382 72.5845 54.4342 71.5065 54.4342C71.2535 54.4342 71.0187 54.369 70.7929 54.2892C70.6904 54.913 70.3604 55.437 69.8699 55.7925C69.9805 55.7761 70.0802 55.7272 70.1954 55.7272C70.6034 55.7272 70.9661 55.865 71.297 56.0554C71.5282 55.1433 72.318 54.4542 73.3017 54.4542C73.785 54.4542 74.2093 54.6446 74.5647 54.9184C74.7742 54.019 75.5422 53.3353 76.5051 53.3353C77.1071 53.3353 77.633 53.6091 78.0048 54.0244C78.2314 53.1939 78.9595 52.5682 79.8626 52.5682C80.5825 52.5682 81.1846 52.9763 81.5255 53.5547C81.7086 52.7061 82.4277 52.0569 83.3307 52.0569C84.3716 52.0569 85.2148 52.9001 85.2148 53.941C85.2148 54.9801 84.3716 55.8233 83.3307 55.8233C82.648 55.8233 82.0768 55.4407 81.7467 54.8966C81.5681 55.7961 80.8128 56.487 79.8626 56.487C79.2959 56.487 78.7954 56.2386 78.4373 55.8541C78.2142 56.7336 77.4535 57.3973 76.5051 57.3973C76.0554 57.3973 75.6619 57.2232 75.3255 56.9748C75.1278 57.9341 74.3181 58.6685 73.3017 58.6685C72.9581 58.6685 72.6471 58.567 72.3606 58.4219C72.1502 59.4483 71.2843 60.2353 70.1954 60.2353C70.1038 60.2353 70.0258 60.1936 69.937 60.1827C70.034 60.4184 70.0757 60.6796 70.0911 60.9461C70.4665 60.3368 71.1093 59.9089 71.8782 59.9089C72.3715 59.9089 72.804 60.1029 73.1657 60.384C73.3888 59.5045 74.1486 58.8408 75.097 58.8408C75.6709 58.8408 76.185 59.0838 76.5541 59.4664C76.7726 58.6195 77.5079 57.9812 78.4237 57.9812C79.1391 57.9812 79.7366 58.382 80.0811 58.9532C80.2779 58.11 80.9978 57.468 81.9009 57.468C82.7604 57.468 83.4595 58.0483 83.697 58.8317C83.8068 57.9232 84.5484 57.2087 85.486 57.2087C86.4979 57.2087 87.3184 58.0302 87.3184 59.0421C87.3184 60.0539 86.4978 60.8736 85.486 60.8736C84.6663 60.8736 83.999 60.3278 83.7641 59.5843C83.6544 60.5327 82.8783 61.2798 81.9009 61.2798C81.2154 61.2798 80.6424 60.8972 80.3069 60.355C80.1147 61.2381 79.3639 61.9145 78.4237 61.9145C77.8806 61.9145 77.3892 61.6951 77.0337 61.3378C76.8179 62.2282 76.0527 62.9028 75.097 62.9028C74.65 62.9028 74.2583 62.7287 73.9228 62.4839C73.7134 63.4432 72.9001 64.1758 71.8782 64.1758C71.7005 64.1758 71.5418 64.116 71.3759 64.0742C71.4647 64.3118 71.5291 64.5639 71.5291 64.8322C71.5291 65.5685 71.1429 66.1887 70.5871 66.5876C70.6868 66.5731 70.7757 66.5296 70.879 66.5296C71.1574 66.5296 71.4213 66.5876 71.6633 66.6874C71.6053 66.5006 71.5455 66.3102 71.5455 66.1034C71.5455 64.99 72.4476 64.0888 73.5601 64.0888C74.1459 64.0888 74.6618 64.3463 75.0299 64.7452C75.233 63.8857 75.9701 63.231 76.8932 63.231C77.5922 63.231 78.178 63.6191 78.5216 64.1722C78.6939 63.3054 79.4229 62.638 80.3413 62.638C81.2208 62.638 81.9281 63.251 82.1393 64.0652C82.2218 63.1313 82.9835 62.3896 83.94 62.3896C84.9519 62.3896 85.7725 63.2093 85.7725 64.2212C85.7725 65.233 84.9519 66.0545 83.94 66.0545C83.0923 66.0545 82.4104 65.467 82.201 64.6854C82.1185 65.6537 81.3306 66.4208 80.3413 66.4208C79.6713 66.4208 79.11 66.0509 78.7746 65.525C78.6059 66.4335 77.8479 67.1335 76.8932 67.1335C76.3392 67.1335 75.8441 66.8977 75.4896 66.526C75.2892 67.4291 74.5222 68.1182 73.5601 68.1182C73.2963 68.1182 73.047 68.0601 72.8157 67.9676C72.8801 68.1689 72.9418 68.372 72.9418 68.5933C72.9418 69.7321 72.0179 70.6551 70.879 70.6551C70.3631 70.6551 69.9052 70.4466 69.5444 70.1347C69.4528 70.3559 69.3095 70.5427 69.1563 70.7222C69.7774 70.8038 70.2942 71.1429 70.6233 71.6416C70.908 70.9199 71.6035 70.4049 72.4277 70.4049C72.8094 70.4049 73.1449 70.5427 73.4459 70.7331C73.3879 70.5499 73.3307 70.3668 73.3307 70.1637C73.3307 69.1083 74.1867 68.2524 75.243 68.2524C75.9547 68.2524 76.5504 68.6586 76.8796 69.2352C77.0101 68.3358 77.7527 67.634 78.6884 67.634C79.5634 67.634 80.2625 68.2487 80.461 69.063C80.4891 68.0874 81.2789 67.304 82.2599 67.304C83.2582 67.304 84.0679 68.1127 84.0679 69.1119C84.0679 70.1111 83.2582 70.9217 82.2599 70.9217C81.4131 70.9217 80.7358 70.3269 80.5381 69.5435C80.51 70.5463 79.6976 71.3533 78.6884 71.3533C78.0021 71.3533 77.4272 70.9634 77.1044 70.4103C76.9784 71.346 76.2104 72.0768 75.243 72.0768C74.8739 72.0768 74.5484 71.9445 74.2565 71.7631C74.3172 71.9517 74.3752 72.1439 74.3752 72.3525C74.3752 73.4278 73.503 74.3001 72.4277 74.3001C71.7712 74.3001 71.2199 73.9537 70.8663 73.4568C70.7539 73.7869 70.5789 74.0788 70.3314 74.3128C71.2399 74.3128 71.9716 74.9384 72.2028 75.7744C72.3678 74.9257 73.0796 74.2729 73.9763 74.2729C74.4614 74.2729 74.8957 74.4687 75.2239 74.7752C75.1677 74.5993 75.1133 74.4216 75.1133 74.2257C75.1133 73.2247 75.9248 72.4141 76.9249 72.4141C77.9259 72.4141 78.7365 73.2247 78.7365 74.2257C78.7365 75.2267 77.9259 76.0373 76.9249 76.0373C76.4507 76.0373 76.0264 75.8451 75.7036 75.5459C75.7634 75.7272 75.8178 75.9122 75.8178 76.1135C75.8178 77.1308 74.9936 77.9541 73.9763 77.9541C73.143 77.9541 72.4666 77.3919 72.2391 76.6321C72.1275 77.2541 71.7495 77.7727 71.2009 78.0484C71.3813 77.9904 71.5645 77.9341 71.764 77.9341C72.7958 77.9341 73.6327 78.7719 73.6327 79.8038C73.6327 80.8356 72.7958 81.6716 71.764 81.6716C71.3741 81.6716 71.0313 81.5247 70.7321 81.3198C70.6786 81.5791 70.5943 81.8166 70.4628 82.0379C70.9062 82.1793 71.2716 82.4459 71.5472 82.8086C71.7676 82.0905 72.4104 81.5573 73.2011 81.5573C74.1712 81.5573 74.9573 82.3443 74.9573 83.3145C74.9573 84.2847 74.1712 85.0699 73.2011 85.0699C72.7096 85.0699 72.2681 84.8668 71.9498 84.5422C71.8891 84.8577 71.7712 85.1424 71.5917 85.3963C72.2563 85.5468 72.8148 85.9748 73.0759 86.5895C73.1929 85.7952 73.8475 85.1769 74.6726 85.1769C75.5802 85.1769 76.3165 85.9131 76.3165 86.8216C76.3165 87.7283 75.5803 88.4646 74.6726 88.4646C74.0289 88.4646 73.4849 88.0837 73.2147 87.5452C73.1929 87.8843 73.0832 88.1871 72.9191 88.4646C72.9363 88.4627 72.9508 88.4537 72.968 88.4537C74.0588 88.4537 74.9428 89.3386 74.9428 90.4285C74.9428 90.7295 74.864 91.0087 74.7434 91.2644C74.9963 91.1248 75.2729 91.0232 75.583 91.0232C76.5604 91.0232 77.3528 91.8156 77.3528 92.7931ZM59.6151 31.3987C59.7765 31.3642 59.9288 31.3007 60.1011 31.3007C60.1763 31.3007 60.2398 31.337 60.3133 31.3443C60.2616 31.1665 60.2117 30.9888 60.2035 30.7984C60.0449 31.0378 59.8508 31.2355 59.6151 31.3987ZM68.1072 58.7991C68.1063 58.7991 68.1063 58.8009 68.1054 58.8009H68.1081C68.1072 58.8009 68.1072 58.7991 68.1072 58.7991ZM70.9334 78.1499C70.7394 78.2134 70.5417 78.2732 70.3268 78.2732C70.0249 78.2732 69.7474 78.1952 69.4917 78.0737C69.4473 78.2841 69.4011 78.4872 69.3068 78.674C69.5788 78.7791 69.8191 78.9333 70.0321 79.1255C70.2008 78.6957 70.5254 78.3566 70.9334 78.1499ZM68.9341 74.8858C68.9187 74.8858 68.9051 74.8948 68.8897 74.8948C68.6494 74.8948 68.4282 74.8314 68.2133 74.7588C68.177 74.951 68.158 75.1469 68.08 75.321C68.2333 75.3844 68.352 75.4987 68.4871 75.5894C68.5887 75.3246 68.7356 75.0816 68.9341 74.8858ZM69.674 66.963C69.557 66.9812 69.4519 67.0319 69.3295 67.0319C68.926 67.0319 68.5687 66.8941 68.2432 66.7037C68.1789 66.856 68.0628 66.9739 67.9703 67.1099C68.3829 67.2078 68.7664 67.3801 69.0565 67.6721C69.2034 67.3837 69.4174 67.1534 69.674 66.963ZM66.1197 41.7332C66.049 41.7332 65.9892 41.6988 65.9194 41.6933C65.9203 41.7096 65.9293 41.7242 65.9293 41.7405C65.9293 42.3679 65.6764 42.9246 65.2901 43.3598C65.4062 43.3671 65.5104 43.4034 65.6211 43.4269C65.6945 42.6182 66.1642 41.9454 66.8478 41.5863C66.6139 41.6607 66.3781 41.7332 66.1197 41.7332ZM64.3245 37.3992C64.2483 37.3992 64.1839 37.3629 64.1096 37.3557C64.1259 37.4663 64.1749 37.5642 64.1749 37.6785C64.1749 37.8272 64.1168 37.9559 64.0905 38.0955C64.2964 37.7583 64.572 37.4826 64.912 37.2813C64.7189 37.3303 64.533 37.3992 64.3245 37.3992ZM63.2682 32.8984C63.0324 32.9781 62.7912 33.0471 62.5292 33.0471C62.4458 33.0471 62.376 33.0072 62.2944 32.9999C62.3515 33.2012 62.4195 33.3988 62.4195 33.6183C62.4195 33.631 62.4123 33.6437 62.4123 33.6564C62.6371 33.339 62.9173 33.0743 63.2682 32.8984ZM60.6805 28.7185C60.5807 28.7185 60.4964 28.6731 60.4003 28.6623C60.5127 28.9089 60.5698 29.1809 60.5853 29.4656C61.0014 28.8128 61.6978 28.3558 62.5292 28.3558C62.619 28.3558 62.6951 28.3975 62.7822 28.4066C62.7405 28.2325 62.6752 28.0656 62.6752 27.8771C62.6752 27.6866 62.7405 27.5162 62.784 27.3403C62.4268 28.1491 61.6216 28.7185 60.6805 28.7185ZM79.0402 93.0016C78.1788 93.0016 77.4798 93.7016 77.4798 94.563C77.4798 95.4261 78.1788 96.1243 79.0402 96.1243C79.9025 96.1243 80.6015 95.4261 80.6015 94.563C80.6015 93.7016 79.9025 93.0016 79.0402 93.0016Z" fill="#EB1000"/>
</svg>
