<svg xmlns="http://www.w3.org/2000/svg" viewBox="0 0 100 100" width="1em" height="1em"><path fill="#eb1000" d="M0 5h36v1h-36zM63 5h37v1h-37zM0 6h36v1h-36zM63 6h37v1h-37zM0 7h35v1h-35zM64 7h36v1h-36zM0 8h35v1h-35zM65 8h35v1h-35zM0 9h35v1h-35zM65 9h35v1h-35zM0 10h35v1h-35zM65 10h35v1h-35zM0 11h34v1h-34zM66 11h34v1h-34zM0 12h34v1h-34zM66 12h34v1h-34zM0 13h33v1h-33zM67 13h33v1h-33zM0 14h33v1h-33zM67 14h33v1h-33zM0 15h32v1h-32zM68 15h32v1h-32zM0 16h32v1h-32zM68 16h32v1h-32zM0 17h31v1h-31zM68 17h32v1h-32zM0 18h31v1h-31zM69 18h31v1h-31zM0 19h31v1h-31zM69 19h31v1h-31zM0 20h30v1h-30zM70 20h30v1h-30zM0 21h30v1h-30zM70 21h30v1h-30zM0 22h30v1h-30zM70 22h30v1h-30zM0 23h29v1h-29zM71 23h29v1h-29zM0 24h28v1h-28zM71 24h29v1h-29zM0 25h28v1h-28zM71 25h29v1h-29zM0 26h28v1h-28zM72 26h28v1h-28zM0 27h27v1h-27zM73 27h27v1h-27zM0 28h27v1h-27zM73 28h27v1h-27zM0 29h26v1h-26zM73 29h27v1h-27zM0 30h26v1h-26zM74 30h26v1h-26zM0 31h26v1h-26zM74 31h26v1h-26zM0 32h25v1h-25zM75 32h25v1h-25zM0 33h25v1h-25zM75 33h25v1h-25zM0 34h24v1h-24zM76 34h24v1h-24zM0 35h24v1h-24zM76 35h24v1h-24zM0 36h24v1h-24zM76 36h24v1h-24zM0 37h23v1h-23zM76 37h24v1h-24zM0 38h23v1h-23zM77 38h23v1h-23zM0 39h22v1h-22zM77 39h23v1h-23zM0 40h22v1h-22zM78 40h22v1h-22zM0 41h21v1h-21zM50 41h1v1h-1zM78 41h22v1h-22zM0 42h22v1h-22zM50 42h1v1h-1zM79 42h21v1h-21zM0 43h21v1h-21zM49 43h2v1h-2zM79 43h21v1h-21zM0 44h20v1h-20zM49 44h2v1h-2zM79 44h21v1h-21zM0 45h20v1h-20zM48 45h4v1h-4zM80 45h20v1h-20zM0 46h19v1h-19zM48 46h4v1h-4zM81 46h19v1h-19zM0 47h20v1h-20zM48 47h5v1h-5zM81 47h19v1h-19zM0 48h19v1h-19zM47 48h6v1h-6zM81 48h19v1h-19zM0 49h19v1h-19zM47 49h6v1h-6zM82 49h18v1h-18zM0 50h18v1h-18zM46 50h8v1h-8zM82 50h18v1h-18zM0 51h17v1h-17zM46 51h8v1h-8zM83 51h17v1h-17zM0 52h18v1h-18zM46 52h8v1h-8zM83 52h17v1h-17zM0 53h17v1h-17zM45 53h10v1h-10zM84 53h16v1h-16zM0 54h17v1h-17zM45 54h10v1h-10zM84 54h16v1h-16zM0 55h16v1h-16zM44 55h12v1h-12zM84 55h16v1h-16zM0 56h15v1h-15zM44 56h12v1h-12zM84 56h16v1h-16zM0 57h15v1h-15zM44 57h12v1h-12zM85 57h15v1h-15zM0 58h15v1h-15zM43 58h14v1h-14zM86 58h14v1h-14zM0 59h14v1h-14zM43 59h14v1h-14zM86 59h14v1h-14zM0 60h14v1h-14zM42 60h15v1h-15zM86 60h14v1h-14zM0 61h13v1h-13zM42 61h16v1h-16zM87 61h13v1h-13zM0 62h13v1h-13zM42 62h17v1h-17zM87 62h13v1h-13zM0 63h12v1h-12zM41 63h18v1h-18zM87 63h13v1h-13zM0 64h12v1h-12zM40 64h20v1h-20zM88 64h12v1h-12zM0 65h12v1h-12zM40 65h19v1h-19zM89 65h11v1h-11zM0 66h12v1h-12zM39 66h21v1h-21zM89 66h11v1h-11zM0 67h11v1h-11zM40 67h20v1h-20zM89 67h11v1h-11zM0 68h11v1h-11zM39 68h21v1h-21zM90 68h10v1h-10zM0 69h10v1h-10zM38 69h23v1h-23zM90 69h10v1h-10zM0 70h10v1h-10zM38 70h23v1h-23zM91 70h9v1h-9zM0 71h9v1h-9zM37 71h25v1h-25zM91 71h9v1h-9zM0 72h9v1h-9zM38 72h24v1h-24zM92 72h8v1h-8zM0 73h8v1h-8zM37 73h25v1h-25zM92 73h8v1h-8zM0 74h8v1h-8zM36 74h27v1h-27zM92 74h8v1h-8zM0 75h8v1h-8zM36 75h27v1h-27zM92 75h8v1h-8zM0 76h7v1h-7zM36 76h28v1h-28zM93 76h7v1h-7zM0 77h7v1h-7zM50 77h14v1h-14zM94 77h6v1h-6zM0 78h7v1h-7zM51 78h13v1h-13zM94 78h6v1h-6zM0 79h6v1h-6zM51 79h14v1h-14zM94 79h6v1h-6zM0 80h5v1h-5zM52 80h14v1h-14zM95 80h5v1h-5zM0 81h5v1h-5zM52 81h13v1h-13zM95 81h5v1h-5zM0 82h5v1h-5zM53 82h13v1h-13zM95 82h5v1h-5zM0 83h4v1h-4zM53 83h13v1h-13zM96 83h4v1h-4zM0 84h4v1h-4zM54 84h13v1h-13zM97 84h3v1h-3zM0 85h3v1h-3zM55 85h13v1h-13zM97 85h3v1h-3zM0 86h3v1h-3zM55 86h13v1h-13zM97 86h3v1h-3zM0 87h3v1h-3zM56 87h12v1h-12zM98 87h2v1h-2zM0 88h2v1h-2zM56 88h12v1h-12zM98 88h2v1h-2zM0 89h2v1h-2zM57 89h11v1h-11zM99 89h1v1h-1zM0 90h1v1h-1zM56 90h13v1h-13zM99 90h1v1h-1zM0 91h2v1h-2zM58 91h11v1h-11zM0 92h1v1h-1zM58 92h12v1h-12zM58 93h12v1h-12z" /><path fill="#eb0f00" d="M36 5h1v1h-1zM36 6h1v1h-1zM32 15h1v1h-1zM30 20h1v1h-1zM69 20h1v1h-1zM28 25h1v1h-1zM26 30h1v1h-1zM24 34h1v1h-1zM52 46h1v1h-1zM53 48h1v1h-1zM17 51h1v1h-1zM54 51h1v1h-1zM15 57h1v1h-1zM85 58h1v1h-1zM13 61h1v1h-1zM13 62h1v1h-1zM59 65h1v1h-1zM61 69h1v1h-1zM9 71h1v1h-1zM62 73h1v1h-1zM63 75h1v1h-1zM7 76h1v1h-1zM93 77h1v1h-1zM50 78h1v1h-1zM51 80h1v1h-1zM5 81h1v1h-1zM3 86h1v1h-1zM54 86h1v1h-1zM1 90h1v1h-1zM57 92h1v1h-1z" /><path fill="#ea1000" d="M35 7h1v1h-1zM63 7h1v1h-1zM35 8h1v1h-1zM64 8h1v1h-1zM67 15h1v1h-1zM67 16h1v1h-1zM70 23h1v1h-1zM28 24h1v1h-1zM72 27h1v1h-1zM26 29h1v1h-1zM75 34h1v1h-1zM24 35h1v1h-1zM75 35h1v1h-1zM22 39h1v1h-1zM22 40h1v1h-1zM50 40h1v1h-1zM21 41h1v1h-1zM49 42h1v1h-1zM78 42h1v1h-1zM51 43h1v1h-1zM48 44h1v1h-1zM51 44h1v1h-1zM19 46h1v1h-1zM80 46h1v1h-1zM47 47h1v1h-1zM80 47h1v1h-1zM46 49h1v1h-1zM53 49h1v1h-1zM54 52h1v1h-1zM83 53h1v1h-1zM44 54h1v1h-1zM55 54h1v1h-1zM83 54h1v1h-1zM15 56h1v1h-1zM14 59h1v1h-1zM42 59h1v1h-1zM57 59h1v1h-1zM57 60h1v1h-1zM41 61h1v1h-1zM86 61h1v1h-1zM12 63h1v1h-1zM88 65h1v1h-1zM88 66h1v1h-1zM60 67h1v1h-1zM60 68h1v1h-1zM91 72h1v1h-1zM91 73h1v1h-1zM5 80h1v1h-1zM94 80h1v1h-1zM65 81h1v1h-1zM52 82h1v1h-1zM66 83h1v1h-1zM53 84h1v1h-1zM96 84h1v1h-1zM3 85h1v1h-1zM54 85h1v1h-1zM96 85h1v1h-1zM55 87h1v1h-1zM68 88h1v1h-1zM56 89h1v1h-1zM68 89h1v1h-1zM57 91h1v1h-1zM99 91h1v1h-1zM99 92h1v1h-1zM0 93h1v1h-1z" /><path fill="#ea0f00" d="M64 9h1v1h-1zM65 11h1v1h-1zM33 13h1v1h-1zM66 13h1v1h-1zM66 14h1v1h-1zM31 17h1v1h-1zM31 18h1v1h-1zM68 18h1v1h-1zM69 21h1v1h-1zM29 23h1v1h-1zM71 26h1v1h-1zM27 27h1v1h-1zM72 28h1v1h-1zM73 30h1v1h-1zM25 32h1v1h-1zM74 32h1v1h-1zM74 33h1v1h-1zM23 37h1v1h-1zM77 40h1v1h-1zM49 41h1v1h-1zM20 44h1v1h-1zM79 45h1v1h-1zM47 46h1v1h-1zM81 49h1v1h-1zM45 51h1v1h-1zM82 51h1v1h-1zM45 52h1v1h-1zM82 52h1v1h-1zM43 56h1v1h-1zM56 56h1v1h-1zM43 57h1v1h-1zM56 57h1v1h-1zM85 59h1v1h-1zM41 62h1v1h-1zM12 64h1v1h-1zM87 64h1v1h-1zM39 67h1v1h-1zM89 68h1v1h-1zM10 69h1v1h-1zM61 70h1v1h-1zM90 70h1v1h-1zM90 71h1v1h-1zM37 72h1v1h-1zM62 72h1v1h-1zM8 73h1v1h-1zM8 74h1v1h-1zM64 77h1v1h-1zM64 78h1v1h-1zM93 78h1v1h-1zM6 79h1v1h-1zM4 83h1v1h-1zM95 83h1v1h-1zM97 87h1v1h-1zM2 88h1v1h-1zM55 88h1v1h-1zM98 89h1v1h-1zM98 90h1v1h-1zM69 91h1v1h-1z" /></svg>