<svg xmlns="http://www.w3.org/2000/svg" viewBox="0 0 100 100" width="1em" height="1em"><path fill="#eb1000" d="M50 4h1v1h-1zM45 5h1v1h-1zM50 5h2v1h-2zM43 6h4v1h-4zM49 6h4v1h-4zM55 6h3v1h-3zM40 7h1v1h-1zM44 7h3v1h-3zM50 7h3v1h-3zM55 7h3v1h-3zM39 8h3v1h-3zM45 8h1v1h-1zM55 8h3v1h-3zM60 8h2v1h-2zM39 9h3v1h-3zM47 9h2v1h-2zM52 9h2v1h-2zM60 9h3v1h-3zM35 10h1v1h-1zM40 10h3v1h-3zM47 10h3v1h-3zM51 10h4v1h-4zM59 10h4v1h-4zM34 11h4v1h-4zM41 11h4v1h-4zM47 11h3v1h-3zM51 11h4v1h-4zM58 11h2v1h-2zM34 12h4v1h-4zM41 12h4v1h-4zM48 12h1v1h-1zM53 12h1v1h-1zM57 12h3v1h-3zM63 12h4v1h-4zM35 13h6v1h-6zM42 13h4v1h-4zM52 13h1v1h-1zM57 13h3v1h-3zM64 13h3v1h-3zM37 14h4v1h-4zM44 14h3v1h-3zM50 14h2v1h-2zM55 14h5v1h-5zM62 14h5v1h-5zM32 15h2v1h-2zM37 15h4v1h-4zM44 15h4v1h-4zM49 15h4v1h-4zM54 15h3v1h-3zM61 15h3v1h-3zM65 15h1v1h-1zM31 16h4v1h-4zM38 16h4v1h-4zM45 16h3v1h-3zM50 16h3v1h-3zM54 16h4v1h-4zM61 16h3v1h-3zM68 16h1v1h-1zM31 17h5v1h-5zM39 17h4v1h-4zM54 17h3v1h-3zM59 17h1v1h-1zM61 17h2v1h-2zM66 17h4v1h-4zM32 18h6v1h-6zM40 18h3v1h-3zM48 18h3v1h-3zM59 18h3v1h-3zM65 18h1v1h-1zM67 18h3v1h-3zM33 19h4v1h-4zM41 19h1v1h-1zM43 19h3v1h-3zM48 19h3v1h-3zM52 19h3v1h-3zM58 19h4v1h-4zM64 19h3v1h-3zM69 19h1v1h-1zM30 20h3v1h-3zM34 20h5v1h-5zM43 20h7v1h-7zM52 20h4v1h-4zM59 20h2v1h-2zM63 20h2v1h-2zM28 21h4v1h-4zM36 21h4v1h-4zM43 21h3v1h-3zM53 21h2v1h-2zM57 21h2v1h-2zM63 21h1v1h-1zM68 21h2v1h-2zM71 21h1v1h-1zM29 22h5v1h-5zM37 22h5v1h-5zM56 22h4v1h-4zM62 22h2v1h-2zM68 22h4v1h-4zM30 23h5v1h-5zM39 23h3v1h-3zM46 23h2v1h-2zM50 23h2v1h-2zM56 23h3v1h-3zM61 23h3v1h-3zM66 23h6v1h-6zM32 24h6v1h-6zM40 24h2v1h-2zM45 24h3v1h-3zM49 24h4v1h-4zM54 24h1v1h-1zM56 24h1v1h-1zM61 24h3v1h-3zM66 24h6v1h-6zM27 25h3v1h-3zM32 25h1v1h-1zM34 25h4v1h-4zM41 25h3v1h-3zM45 25h3v1h-3zM51 25h2v1h-2zM54 25h3v1h-3zM59 25h3v1h-3zM65 25h5v1h-5zM27 26h4v1h-4zM35 26h5v1h-5zM42 26h3v1h-3zM53 26h4v1h-4zM59 26h3v1h-3zM64 26h4v1h-4zM27 27h6v1h-6zM37 27h3v1h-3zM42 27h3v1h-3zM52 27h1v1h-1zM54 27h3v1h-3zM59 27h2v1h-2zM63 27h4v1h-4zM71 27h3v1h-3zM28 28h6v1h-6zM37 28h3v1h-3zM46 28h2v1h-2zM49 28h4v1h-4zM57 28h5v1h-5zM63 28h3v1h-3zM69 28h5v1h-5zM30 29h5v1h-5zM39 29h3v1h-3zM46 29h2v1h-2zM50 29h3v1h-3zM57 29h3v1h-3zM61 29h3v1h-3zM68 29h6v1h-6zM25 30h4v1h-4zM32 30h5v1h-5zM39 30h6v1h-6zM50 30h14v1h-14zM67 30h5v1h-5zM25 31h5v1h-5zM33 31h5v1h-5zM40 31h1v1h-1zM43 31h3v1h-3zM54 31h16v1h-16zM25 32h7v1h-7zM35 32h4v1h-4zM43 32h2v1h-2zM48 32h1v1h-1zM52 32h2v1h-2zM55 32h8v1h-8zM65 32h3v1h-3zM73 32h3v1h-3zM24 33h9v1h-9zM36 33h1v1h-1zM38 33h3v1h-3zM48 33h2v1h-2zM51 33h2v1h-2zM56 33h6v1h-6zM63 33h5v1h-5zM71 33h5v1h-5zM28 34h6v1h-6zM38 34h5v1h-5zM45 34h1v1h-1zM49 34h1v1h-1zM51 34h3v1h-3zM55 34h11v1h-11zM70 34h6v1h-6zM22 35h3v1h-3zM28 35h2v1h-2zM31 35h5v1h-5zM41 35h2v1h-2zM44 35h3v1h-3zM54 35h12v1h-12zM68 35h5v1h-5zM22 36h6v1h-6zM33 36h3v1h-3zM37 36h1v1h-1zM53 36h11v1h-11zM65 36h1v1h-1zM67 36h3v1h-3zM22 37h7v1h-7zM31 37h1v1h-1zM34 37h4v1h-4zM40 37h1v1h-1zM46 37h2v1h-2zM50 37h1v1h-1zM53 37h11v1h-11zM65 37h5v1h-5zM76 37h2v1h-2zM23 38h9v1h-9zM33 38h1v1h-1zM36 38h6v1h-6zM43 38h2v1h-2zM46 38h5v1h-5zM54 38h15v1h-15zM73 38h6v1h-6zM26 39h8v1h-8zM36 39h1v1h-1zM40 39h1v1h-1zM55 39h13v1h-13zM72 39h3v1h-3zM20 40h3v1h-3zM25 40h1v1h-1zM28 40h7v1h-7zM38 40h1v1h-1zM45 40h2v1h-2zM52 40h2v1h-2zM55 40h13v1h-13zM69 40h6v1h-6zM20 41h6v1h-6zM28 41h2v1h-2zM32 41h5v1h-5zM38 41h2v1h-2zM41 41h2v1h-2zM44 41h3v1h-3zM52 41h2v1h-2zM55 41h18v1h-18zM20 42h9v1h-9zM33 42h4v1h-4zM38 42h2v1h-2zM42 42h2v1h-2zM46 42h1v1h-1zM55 42h9v1h-9zM66 42h6v1h-6zM78 42h2v1h-2zM21 43h12v1h-12zM34 43h1v1h-1zM44 43h1v1h-1zM53 43h2v1h-2zM56 43h14v1h-14zM75 43h5v1h-5zM24 44h9v1h-9zM40 44h2v1h-2zM44 44h2v1h-2zM53 44h16v1h-16zM71 44h6v1h-6zM78 44h1v1h-1zM19 45h2v1h-2zM23 45h2v1h-2zM30 45h8v1h-8zM40 45h2v1h-2zM54 45h14v1h-14zM70 45h7v1h-7zM17 46h7v1h-7zM26 46h1v1h-1zM31 46h5v1h-5zM37 46h1v1h-1zM53 46h13v1h-13zM68 46h6v1h-6zM18 47h9v1h-9zM28 47h2v1h-2zM32 47h1v1h-1zM39 47h1v1h-1zM42 47h1v1h-1zM53 47h18v1h-18zM79 47h3v1h-3zM18 48h14v1h-14zM34 48h3v1h-3zM38 48h2v1h-2zM54 48h17v1h-17zM75 48h1v1h-1zM77 48h6v1h-6zM21 49h12v1h-12zM34 49h3v1h-3zM38 49h1v1h-1zM55 49h14v1h-14zM73 49h9v1h-9zM17 50h2v1h-2zM21 50h1v1h-1zM31 50h2v1h-2zM35 50h2v1h-2zM41 50h1v1h-1zM55 50h14v1h-14zM71 50h5v1h-5zM78 50h1v1h-1zM16 51h9v1h-9zM27 51h1v1h-1zM32 51h1v1h-1zM36 51h2v1h-2zM41 51h1v1h-1zM55 51h18v1h-18zM74 51h2v1h-2zM16 52h13v1h-13zM33 52h2v1h-2zM37 52h1v1h-1zM56 52h17v1h-17zM80 52h1v1h-1zM83 52h1v1h-1zM16 53h15v1h-15zM33 53h2v1h-2zM39 53h2v1h-2zM56 53h14v1h-14zM76 53h2v1h-2zM79 53h6v1h-6zM16 54h4v1h-4zM22 54h2v1h-2zM27 54h1v1h-1zM29 54h2v1h-2zM56 54h14v1h-14zM72 54h1v1h-1zM74 54h7v1h-7zM83 54h1v1h-1zM14 55h7v1h-7zM22 55h1v1h-1zM24 55h1v1h-1zM26 55h1v1h-1zM35 55h2v1h-2zM57 55h12v1h-12zM72 55h5v1h-5zM14 56h13v1h-13zM31 56h2v1h-2zM57 56h18v1h-18zM76 56h1v1h-1zM14 57h16v1h-16zM32 57h1v1h-1zM38 57h1v1h-1zM57 57h15v1h-15zM78 57h1v1h-1zM82 57h1v1h-1zM85 57h1v1h-1zM13 58h18v1h-18zM34 58h1v1h-1zM58 58h13v1h-13zM74 58h1v1h-1zM77 58h2v1h-2zM81 58h2v1h-2zM84 58h3v1h-3zM15 59h5v1h-5zM29 59h2v1h-2zM33 59h2v1h-2zM59 59h11v1h-11zM71 59h1v1h-1zM74 59h6v1h-6zM81 59h2v1h-2zM84 59h2v1h-2zM12 60h9v1h-9zM23 60h2v1h-2zM26 60h1v1h-1zM29 60h3v1h-3zM36 60h2v1h-2zM58 60h12v1h-12zM71 60h9v1h-9zM12 61h16v1h-16zM30 61h2v1h-2zM33 61h1v1h-1zM59 61h15v1h-15zM75 61h1v1h-1zM11 62h17v1h-17zM32 62h2v1h-2zM59 62h14v1h-14zM82 62h3v1h-3zM87 62h2v1h-2zM12 63h10v1h-10zM26 63h1v1h-1zM28 63h3v1h-3zM35 63h2v1h-2zM60 63h11v1h-11zM72 63h1v1h-1zM76 63h2v1h-2zM79 63h3v1h-3zM83 63h2v1h-2zM86 63h3v1h-3zM12 64h12v1h-12zM28 64h2v1h-2zM35 64h2v1h-2zM60 64h14v1h-14zM75 64h3v1h-3zM79 64h2v1h-2zM82 64h2v1h-2zM87 64h2v1h-2zM10 65h16v1h-16zM29 65h1v1h-1zM31 65h1v1h-1zM61 65h9v1h-9zM72 65h3v1h-3zM9 66h18v1h-18zM31 66h1v1h-1zM60 66h15v1h-15zM9 67h13v1h-13zM25 67h4v1h-4zM35 67h2v1h-2zM38 67h1v1h-1zM45 67h1v1h-1zM61 67h11v1h-11zM78 67h1v1h-1zM81 67h3v1h-3zM85 67h2v1h-2zM89 67h2v1h-2zM10 68h11v1h-11zM24 68h1v1h-1zM27 68h1v1h-1zM31 68h2v1h-2zM38 68h2v1h-2zM41 68h2v1h-2zM45 68h1v1h-1zM62 68h10v1h-10zM74 68h6v1h-6zM81 68h3v1h-3zM85 68h2v1h-2zM89 68h2v1h-2zM9 69h16v1h-16zM31 69h1v1h-1zM49 69h1v1h-1zM62 69h7v1h-7zM74 69h2v1h-2zM78 69h1v1h-1zM86 69h1v1h-1zM89 69h1v1h-1zM8 70h17v1h-17zM26 70h1v1h-1zM28 70h1v1h-1zM33 70h1v1h-1zM62 70h7v1h-7zM72 70h2v1h-2zM75 70h1v1h-1zM7 71h14v1h-14zM23 71h1v1h-1zM26 71h3v1h-3zM33 71h2v1h-2zM37 71h2v1h-2zM40 71h3v1h-3zM45 71h1v1h-1zM51 71h2v1h-2zM63 71h11v1h-11zM79 71h1v1h-1zM83 71h1v1h-1zM7 72h13v1h-13zM23 72h1v1h-1zM27 72h1v1h-1zM33 72h1v1h-1zM41 72h1v1h-1zM45 72h1v1h-1zM48 72h2v1h-2zM63 72h7v1h-7zM72 72h1v1h-1zM76 72h2v1h-2zM79 72h2v1h-2zM83 72h2v1h-2zM87 72h2v1h-2zM8 73h12v1h-12zM22 73h3v1h-3zM49 73h2v1h-2zM54 73h1v1h-1zM64 73h6v1h-6zM76 73h5v1h-5zM83 73h2v1h-2zM86 73h3v1h-3zM91 73h2v1h-2zM7 74h14v1h-14zM22 74h3v1h-3zM29 74h2v1h-2zM33 74h2v1h-2zM37 74h3v1h-3zM42 74h1v1h-1zM46 74h1v1h-1zM51 74h1v1h-1zM54 74h1v1h-1zM63 74h5v1h-5zM69 74h2v1h-2zM72 74h3v1h-3zM6 75h15v1h-15zM23 75h1v1h-1zM29 75h2v1h-2zM33 75h2v1h-2zM36 75h3v1h-3zM41 75h3v1h-3zM45 75h2v1h-2zM51 75h1v1h-1zM65 75h7v1h-7zM73 75h2v1h-2zM5 76h12v1h-12zM25 76h3v1h-3zM33 76h2v1h-2zM37 76h3v1h-3zM42 76h1v1h-1zM46 76h1v1h-1zM65 76h6v1h-6zM73 76h1v1h-1zM78 76h1v1h-1zM81 76h2v1h-2zM89 76h1v1h-1zM5 77h11v1h-11zM20 77h2v1h-2zM25 77h3v1h-3zM30 77h1v1h-1zM34 77h3v1h-3zM39 77h1v1h-1zM43 77h1v1h-1zM48 77h2v1h-2zM53 77h1v1h-1zM66 77h3v1h-3zM71 77h1v1h-1zM75 77h1v1h-1zM77 77h3v1h-3zM81 77h2v1h-2zM85 77h2v1h-2zM89 77h2v1h-2zM93 77h1v1h-1zM5 78h12v1h-12zM18 78h5v1h-5zM24 78h3v1h-3zM29 78h3v1h-3zM33 78h3v1h-3zM38 78h3v1h-3zM42 78h3v1h-3zM48 78h1v1h-1zM53 78h2v1h-2zM67 78h3v1h-3zM71 78h2v1h-2zM74 78h5v1h-5zM89 78h1v1h-1zM93 78h2v1h-2zM6 79h18v1h-18zM26 79h1v1h-1zM29 79h3v1h-3zM34 79h2v1h-2zM38 79h2v1h-2zM42 79h2v1h-2zM47 79h1v1h-1zM51 79h1v1h-1zM66 79h8v1h-8zM75 79h1v1h-1zM94 79h1v1h-1zM6 80h12v1h-12zM20 80h5v1h-5zM29 80h1v1h-1zM34 80h1v1h-1zM42 80h1v1h-1zM47 80h2v1h-2zM51 80h2v1h-2zM56 80h2v1h-2zM67 80h3v1h-3zM75 80h1v1h-1zM79 80h3v1h-3zM87 80h1v1h-1zM4 81h14v1h-14zM22 81h4v1h-4zM27 81h3v1h-3zM31 81h5v1h-5zM37 81h2v1h-2zM42 81h2v1h-2zM46 81h3v1h-3zM50 81h3v1h-3zM56 81h1v1h-1zM68 81h3v1h-3zM72 81h2v1h-2zM79 81h2v1h-2zM83 81h3v1h-3zM87 81h2v1h-2zM5 82h15v1h-15zM23 82h3v1h-3zM27 82h4v1h-4zM32 82h3v1h-3zM37 82h3v1h-3zM42 82h2v1h-2zM47 82h1v1h-1zM53 82h1v1h-1zM68 82h6v1h-6zM76 82h3v1h-3zM87 82h2v1h-2zM91 82h2v1h-2zM5 83h16v1h-16zM23 83h3v1h-3zM27 83h3v1h-3zM33 83h2v1h-2zM37 83h2v1h-2zM43 83h1v1h-1zM52 83h2v1h-2zM68 83h3v1h-3zM72 83h1v1h-1zM77 83h1v1h-1zM91 83h1v1h-1zM93 83h2v1h-2zM5 84h20v1h-20zM27 84h3v1h-3zM32 84h3v1h-3zM37 84h4v1h-4zM43 84h2v1h-2zM46 84h4v1h-4zM51 84h3v1h-3zM69 84h3v1h-3zM82 84h2v1h-2zM93 84h2v1h-2zM7 85h13v1h-13zM21 85h10v1h-10zM32 85h4v1h-4zM37 85h4v1h-4zM42 85h4v1h-4zM47 85h3v1h-3zM53 85h3v1h-3zM70 85h3v1h-3zM74 85h1v1h-1zM79 85h1v1h-1zM82 85h2v1h-2zM85 85h3v1h-3zM7 86h14v1h-14zM22 86h3v1h-3zM27 86h3v1h-3zM31 86h4v1h-4zM37 86h3v1h-3zM43 86h2v1h-2zM49 86h1v1h-1zM55 86h1v1h-1zM69 86h3v1h-3zM74 86h2v1h-2zM79 86h2v1h-2zM86 86h1v1h-1zM88 86h2v1h-2zM7 87h19v1h-19zM27 87h4v1h-4zM33 87h3v1h-3zM38 87h2v1h-2zM43 87h4v1h-4zM49 87h2v1h-2zM69 87h3v1h-3zM76 87h1v1h-1zM78 87h1v1h-1zM89 87h2v1h-2zM6 88h30v1h-30zM38 88h3v1h-3zM44 88h3v1h-3zM49 88h3v1h-3zM72 88h3v1h-3zM76 88h2v1h-2zM83 88h1v1h-1zM91 88h1v1h-1zM8 89h29v1h-29zM38 89h4v1h-4zM44 89h3v1h-3zM50 89h4v1h-4zM72 89h2v1h-2zM77 89h1v1h-1zM83 89h1v1h-1zM86 89h1v1h-1zM91 89h1v1h-1zM9 90h34v1h-34zM45 90h3v1h-3zM50 90h4v1h-4zM71 90h3v1h-3zM75 90h1v1h-1zM79 90h2v1h-2zM86 90h1v1h-1zM10 91h39v1h-39zM51 91h2v1h-2zM74 91h3v1h-3zM80 91h1v1h-1zM11 92h32v1h-32zM45 92h4v1h-4zM75 92h2v1h-2zM79 92h1v1h-1zM87 92h2v1h-2zM13 93h25v1h-25zM39 93h4v1h-4zM46 93h2v1h-2zM78 93h2v1h-2zM83 93h1v1h-1zM18 94h4v1h-4zM23 94h3v1h-3zM29 94h7v1h-7zM42 94h1v1h-1zM83 94h1v1h-1zM83 95h1v1h-1z" /><path fill="#ea0f00" d="M51 4h1v1h-1zM55 5h1v1h-1zM54 6h1v1h-1zM49 7h1v1h-1zM54 7h1v1h-1zM38 8h1v1h-1zM59 8h1v1h-1zM54 9h1v1h-1zM59 9h1v1h-1zM44 10h1v1h-1zM46 10h1v1h-1zM46 11h1v1h-1zM62 11h1v1h-1zM64 11h1v1h-1zM56 12h1v1h-1zM41 13h1v1h-1zM50 13h2v1h-2zM56 13h1v1h-1zM63 13h1v1h-1zM36 14h1v1h-1zM43 14h1v1h-1zM47 14h1v1h-1zM31 15h1v1h-1zM37 16h1v1h-1zM69 16h1v1h-1zM43 17h1v1h-1zM45 17h1v1h-1zM57 17h1v1h-1zM55 18h1v1h-1zM67 19h2v1h-2zM61 20h1v1h-1zM69 20h1v1h-1zM33 21h1v1h-1zM46 21h1v1h-1zM59 21h1v1h-1zM67 21h1v1h-1zM43 22h1v1h-1zM53 22h1v1h-1zM55 22h1v1h-1zM64 22h1v1h-1zM48 23h2v1h-2zM59 23h1v1h-1zM64 23h1v1h-1zM31 24h1v1h-1zM55 24h1v1h-1zM57 24h1v1h-1zM64 24h1v1h-1zM33 25h1v1h-1zM40 25h1v1h-1zM44 25h1v1h-1zM53 25h1v1h-1zM62 25h1v1h-1zM32 26h1v1h-1zM41 26h1v1h-1zM57 26h2v1h-2zM68 26h1v1h-1zM51 27h1v1h-1zM57 27h1v1h-1zM68 28h1v1h-1zM53 29h1v1h-1zM60 29h1v1h-1zM65 29h1v1h-1zM31 30h1v1h-1zM37 30h1v1h-1zM65 30h1v1h-1zM30 31h1v1h-1zM39 31h1v1h-1zM75 31h1v1h-1zM39 32h1v1h-1zM63 32h1v1h-1zM45 33h1v1h-1zM47 33h1v1h-1zM68 33h1v1h-1zM27 34h1v1h-1zM37 34h1v1h-1zM38 35h1v1h-1zM40 35h1v1h-1zM51 35h1v1h-1zM53 35h1v1h-1zM66 35h1v1h-1zM28 36h1v1h-1zM31 36h1v1h-1zM76 36h1v1h-1zM33 37h1v1h-1zM39 37h1v1h-1zM41 37h1v1h-1zM48 37h2v1h-2zM64 37h1v1h-1zM70 37h1v1h-1zM78 37h1v1h-1zM22 38h1v1h-1zM42 38h1v1h-1zM53 38h1v1h-1zM69 38h1v1h-1zM22 39h1v1h-1zM25 39h1v1h-1zM34 39h1v1h-1zM75 39h1v1h-1zM23 40h2v1h-2zM52 42h1v1h-1zM75 42h1v1h-1zM39 43h1v1h-1zM55 43h1v1h-1zM80 43h1v1h-1zM20 44h1v1h-1zM22 44h1v1h-1zM39 44h1v1h-1zM21 45h1v1h-1zM28 45h1v1h-1zM43 45h1v1h-1zM52 45h1v1h-1zM68 45h1v1h-1zM34 47h1v1h-1zM72 47h1v1h-1zM77 47h1v1h-1zM82 47h1v1h-1zM43 48h1v1h-1zM76 48h1v1h-1zM69 49h2v1h-2zM82 49h1v1h-1zM20 50h1v1h-1zM24 50h1v1h-1zM42 50h1v1h-1zM76 50h1v1h-1zM33 51h1v1h-1zM40 51h1v1h-1zM15 52h1v1h-1zM15 53h1v1h-1zM31 53h1v1h-1zM15 54h1v1h-1zM24 54h3v1h-3zM33 54h1v1h-1zM81 54h2v1h-2zM84 54h1v1h-1zM23 55h1v1h-1zM30 55h1v1h-1zM32 55h1v1h-1zM70 55h1v1h-1zM79 55h1v1h-1zM36 56h1v1h-1zM73 57h1v1h-1zM33 58h1v1h-1zM71 58h1v1h-1zM76 58h1v1h-1zM79 58h1v1h-1zM13 59h1v1h-1zM20 59h1v1h-1zM24 59h1v1h-1zM80 59h1v1h-1zM28 61h1v1h-1zM37 61h1v1h-1zM58 61h1v1h-1zM28 62h1v1h-1zM23 63h1v1h-1zM27 63h1v1h-1zM59 63h1v1h-1zM73 63h1v1h-1zM11 64h1v1h-1zM25 64h1v1h-1zM81 64h1v1h-1zM28 65h1v1h-1zM30 65h1v1h-1zM70 65h1v1h-1zM77 65h1v1h-1zM80 65h1v1h-1zM27 66h1v1h-1zM30 66h1v1h-1zM32 66h1v1h-1zM42 67h1v1h-1zM72 67h1v1h-1zM77 67h1v1h-1zM84 67h1v1h-1zM88 67h1v1h-1zM23 68h1v1h-1zM46 68h1v1h-1zM84 68h1v1h-1zM87 68h1v1h-1zM27 69h1v1h-1zM32 69h1v1h-1zM69 69h1v1h-1zM73 69h1v1h-1zM77 69h1v1h-1zM81 69h2v1h-2zM88 69h1v1h-1zM90 69h1v1h-1zM31 70h1v1h-1zM37 70h2v1h-2zM52 70h1v1h-1zM21 71h1v1h-1zM80 71h1v1h-1zM70 72h1v1h-1zM75 72h1v1h-1zM82 72h1v1h-1zM63 73h1v1h-1zM73 73h1v1h-1zM75 73h1v1h-1zM85 73h1v1h-1zM28 74h1v1h-1zM31 74h1v1h-1zM43 74h1v1h-1zM68 74h1v1h-1zM88 74h1v1h-1zM31 75h2v1h-2zM39 75h1v1h-1zM47 75h1v1h-1zM50 75h1v1h-1zM35 76h1v1h-1zM45 76h1v1h-1zM71 76h1v1h-1zM74 76h1v1h-1zM83 76h1v1h-1zM16 77h1v1h-1zM24 77h1v1h-1zM44 77h1v1h-1zM54 77h2v1h-2zM72 77h1v1h-1zM76 77h1v1h-1zM88 77h1v1h-1zM17 78h1v1h-1zM27 78h1v1h-1zM49 78h1v1h-1zM92 78h1v1h-1zM5 79h1v1h-1zM33 79h1v1h-1zM40 79h1v1h-1zM19 80h1v1h-1zM27 80h1v1h-1zM30 80h1v1h-1zM32 80h1v1h-1zM37 80h1v1h-1zM66 80h1v1h-1zM70 80h2v1h-2zM84 80h1v1h-1zM57 81h1v1h-1zM67 81h1v1h-1zM71 81h1v1h-1zM77 81h1v1h-1zM82 81h1v1h-1zM91 81h1v1h-1zM4 82h1v1h-1zM36 82h1v1h-1zM48 82h1v1h-1zM80 82h1v1h-1zM83 82h1v1h-1zM4 83h1v1h-1zM21 83h1v1h-1zM47 83h1v1h-1zM49 83h1v1h-1zM87 83h1v1h-1zM26 84h1v1h-1zM68 84h1v1h-1zM86 84h1v1h-1zM31 85h1v1h-1zM80 85h2v1h-2zM40 86h1v1h-1zM47 86h1v1h-1zM72 86h2v1h-2zM6 87h1v1h-1zM26 87h1v1h-1zM32 87h1v1h-1zM36 87h1v1h-1zM48 87h1v1h-1zM72 87h1v1h-1zM77 87h1v1h-1zM88 87h1v1h-1zM78 88h1v1h-1zM82 88h1v1h-1zM84 88h1v1h-1zM74 89h1v1h-1zM76 89h1v1h-1zM82 89h1v1h-1zM84 89h1v1h-1zM8 90h1v1h-1zM50 91h1v1h-1zM78 92h1v1h-1zM43 93h1v1h-1zM82 93h1v1h-1zM28 94h1v1h-1zM37 94h1v1h-1zM46 94h1v1h-1zM78 94h1v1h-1z" /><path fill="#ea1000" d="M44 5h1v1h-1zM46 5h1v1h-1zM49 5h1v1h-1zM52 5h1v1h-1zM56 5h1v1h-1zM47 6h1v1h-1zM39 7h1v1h-1zM42 8h1v1h-1zM46 8h1v1h-1zM62 8h1v1h-1zM42 9h1v1h-1zM46 9h1v1h-1zM49 9h1v1h-1zM36 10h1v1h-1zM39 10h1v1h-1zM50 10h1v1h-1zM61 11h1v1h-1zM66 11h1v1h-1zM49 12h1v1h-1zM52 12h1v1h-1zM54 12h1v1h-1zM34 13h1v1h-1zM42 14h1v1h-1zM52 14h1v1h-1zM34 15h1v1h-1zM35 16h1v1h-1zM44 16h1v1h-1zM49 16h1v1h-1zM60 16h1v1h-1zM36 17h1v1h-1zM63 17h1v1h-1zM31 18h1v1h-1zM53 18h2v1h-2zM58 18h1v1h-1zM66 18h1v1h-1zM37 19h2v1h-2zM47 19h1v1h-1zM29 20h1v1h-1zM39 20h1v1h-1zM57 20h2v1h-2zM68 20h1v1h-1zM32 21h1v1h-1zM49 21h1v1h-1zM52 21h1v1h-1zM56 21h1v1h-1zM62 21h1v1h-1zM64 21h1v1h-1zM34 22h1v1h-1zM44 22h1v1h-1zM52 22h1v1h-1zM61 22h1v1h-1zM67 22h1v1h-1zM29 23h1v1h-1zM35 23h1v1h-1zM52 23h1v1h-1zM39 24h1v1h-1zM48 24h1v1h-1zM59 24h1v1h-1zM65 24h1v1h-1zM50 25h1v1h-1zM26 26h1v1h-1zM31 26h1v1h-1zM72 26h2v1h-2zM33 27h1v1h-1zM58 27h1v1h-1zM61 27h1v1h-1zM27 28h1v1h-1zM34 28h1v1h-1zM48 28h1v1h-1zM56 28h1v1h-1zM26 29h1v1h-1zM35 29h1v1h-1zM48 29h2v1h-2zM54 29h3v1h-3zM47 30h1v1h-1zM64 30h1v1h-1zM66 30h1v1h-1zM24 31h1v1h-1zM32 31h1v1h-1zM42 31h1v1h-1zM70 31h1v1h-1zM24 32h1v1h-1zM64 32h1v1h-1zM68 32h1v1h-1zM33 33h1v1h-1zM37 33h1v1h-1zM50 33h1v1h-1zM53 33h1v1h-1zM26 34h1v1h-1zM35 34h1v1h-1zM46 34h1v1h-1zM48 34h1v1h-1zM69 34h1v1h-1zM25 35h1v1h-1zM36 35h1v1h-1zM39 35h1v1h-1zM73 35h1v1h-1zM64 36h1v1h-1zM66 36h1v1h-1zM70 36h1v1h-1zM29 37h2v1h-2zM43 37h1v1h-1zM51 37h1v1h-1zM51 38h1v1h-1zM37 39h3v1h-3zM41 39h1v1h-1zM44 39h1v1h-1zM51 39h1v1h-1zM69 39h1v1h-1zM71 39h1v1h-1zM77 39h1v1h-1zM26 40h1v1h-1zM51 40h1v1h-1zM54 40h1v1h-1zM26 41h1v1h-1zM37 41h1v1h-1zM40 41h1v1h-1zM43 41h1v1h-1zM51 41h1v1h-1zM54 41h1v1h-1zM78 41h1v1h-1zM37 42h1v1h-1zM41 42h1v1h-1zM45 42h1v1h-1zM64 42h1v1h-1zM20 43h1v1h-1zM35 43h1v1h-1zM38 43h1v1h-1zM52 43h1v1h-1zM21 44h1v1h-1zM43 44h1v1h-1zM52 44h1v1h-1zM77 44h1v1h-1zM79 44h1v1h-1zM18 45h1v1h-1zM22 45h1v1h-1zM38 45h1v1h-1zM44 45h1v1h-1zM53 45h1v1h-1zM24 46h2v1h-2zM36 46h1v1h-1zM40 46h1v1h-1zM66 46h1v1h-1zM74 46h1v1h-1zM27 47h1v1h-1zM33 47h1v1h-1zM38 47h1v1h-1zM43 47h1v1h-1zM78 47h1v1h-1zM32 48h1v1h-1zM40 48h1v1h-1zM42 48h1v1h-1zM71 48h1v1h-1zM18 49h3v1h-3zM33 49h1v1h-1zM39 49h1v1h-1zM54 49h1v1h-1zM16 50h1v1h-1zM19 50h1v1h-1zM22 50h2v1h-2zM28 50h2v1h-2zM70 50h1v1h-1zM77 50h1v1h-1zM15 51h1v1h-1zM25 51h1v1h-1zM42 51h1v1h-1zM73 51h1v1h-1zM29 52h1v1h-1zM35 52h2v1h-2zM38 52h1v1h-1zM79 52h1v1h-1zM82 52h1v1h-1zM71 53h1v1h-1zM78 53h1v1h-1zM20 54h2v1h-2zM28 54h1v1h-1zM31 54h1v1h-1zM39 54h2v1h-2zM73 54h1v1h-1zM29 55h1v1h-1zM31 55h1v1h-1zM56 55h1v1h-1zM69 55h1v1h-1zM77 55h1v1h-1zM80 55h1v1h-1zM27 56h1v1h-1zM33 56h1v1h-1zM35 56h1v1h-1zM38 56h1v1h-1zM13 57h1v1h-1zM31 57h1v1h-1zM33 57h1v1h-1zM39 57h1v1h-1zM81 57h1v1h-1zM84 57h1v1h-1zM35 58h1v1h-1zM83 58h1v1h-1zM21 59h3v1h-3zM28 59h1v1h-1zM31 59h1v1h-1zM35 59h1v1h-1zM58 59h1v1h-1zM72 59h2v1h-2zM83 59h1v1h-1zM21 60h2v1h-2zM25 60h1v1h-1zM32 60h1v1h-1zM70 60h1v1h-1zM11 61h1v1h-1zM29 61h1v1h-1zM32 61h1v1h-1zM74 61h1v1h-1zM34 62h1v1h-1zM73 62h1v1h-1zM79 62h3v1h-3zM22 63h1v1h-1zM24 63h1v1h-1zM71 63h1v1h-1zM75 63h1v1h-1zM78 63h1v1h-1zM82 63h1v1h-1zM74 64h1v1h-1zM78 64h1v1h-1zM84 64h1v1h-1zM26 65h1v1h-1zM32 65h1v1h-1zM76 65h1v1h-1zM28 66h1v1h-1zM60 67h1v1h-1zM79 67h1v1h-1zM26 68h1v1h-1zM28 68h1v1h-1zM30 68h1v1h-1zM61 68h1v1h-1zM72 68h1v1h-1zM80 68h1v1h-1zM30 69h1v1h-1zM48 69h1v1h-1zM71 69h2v1h-2zM76 69h1v1h-1zM79 69h1v1h-1zM85 69h1v1h-1zM7 70h1v1h-1zM27 70h1v1h-1zM34 70h1v1h-1zM41 70h1v1h-1zM69 70h1v1h-1zM71 70h1v1h-1zM74 70h1v1h-1zM76 70h1v1h-1zM35 71h1v1h-1zM44 71h1v1h-1zM46 71h1v1h-1zM62 71h1v1h-1zM84 71h1v1h-1zM20 72h1v1h-1zM26 72h1v1h-1zM34 72h1v1h-1zM37 72h2v1h-2zM42 72h1v1h-1zM50 72h1v1h-1zM71 72h1v1h-1zM73 72h1v1h-1zM81 72h1v1h-1zM86 72h1v1h-1zM91 72h2v1h-2zM7 73h1v1h-1zM27 73h1v1h-1zM29 73h2v1h-2zM38 73h1v1h-1zM53 73h1v1h-1zM89 73h2v1h-2zM35 74h1v1h-1zM41 74h1v1h-1zM45 74h1v1h-1zM71 74h1v1h-1zM76 74h1v1h-1zM80 74h1v1h-1zM87 74h1v1h-1zM91 74h1v1h-1zM5 75h1v1h-1zM22 75h1v1h-1zM24 75h2v1h-2zM72 75h1v1h-1zM4 76h1v1h-1zM18 76h3v1h-3zM24 76h1v1h-1zM30 76h1v1h-1zM49 76h1v1h-1zM55 76h2v1h-2zM85 76h2v1h-2zM90 76h1v1h-1zM19 77h1v1h-1zM28 77h2v1h-2zM31 77h1v1h-1zM33 77h1v1h-1zM38 77h1v1h-1zM42 77h1v1h-1zM50 77h1v1h-1zM52 77h1v1h-1zM65 77h1v1h-1zM83 77h2v1h-2zM4 78h1v1h-1zM28 78h1v1h-1zM32 78h1v1h-1zM52 78h1v1h-1zM66 78h1v1h-1zM70 78h1v1h-1zM79 78h1v1h-1zM82 78h1v1h-1zM86 78h1v1h-1zM90 78h1v1h-1zM44 79h1v1h-1zM74 79h1v1h-1zM76 79h1v1h-1zM93 79h1v1h-1zM5 80h1v1h-1zM18 80h1v1h-1zM25 80h1v1h-1zM28 80h1v1h-1zM35 80h1v1h-1zM38 80h2v1h-2zM43 80h1v1h-1zM46 80h1v1h-1zM50 80h1v1h-1zM83 80h1v1h-1zM18 81h1v1h-1zM36 81h1v1h-1zM39 81h1v1h-1zM74 81h1v1h-1zM76 81h1v1h-1zM78 81h1v1h-1zM86 81h1v1h-1zM20 82h1v1h-1zM22 82h1v1h-1zM35 82h1v1h-1zM41 82h1v1h-1zM51 82h1v1h-1zM79 82h1v1h-1zM90 82h1v1h-1zM22 83h1v1h-1zM32 83h1v1h-1zM39 83h1v1h-1zM42 83h1v1h-1zM44 83h1v1h-1zM48 83h1v1h-1zM51 83h1v1h-1zM71 83h1v1h-1zM73 83h1v1h-1zM76 83h1v1h-1zM92 83h1v1h-1zM25 84h1v1h-1zM42 84h1v1h-1zM55 84h1v1h-1zM74 84h1v1h-1zM95 84h1v1h-1zM20 85h1v1h-1zM36 85h1v1h-1zM56 85h1v1h-1zM69 85h1v1h-1zM73 85h1v1h-1zM75 85h1v1h-1zM84 85h1v1h-1zM94 85h1v1h-1zM21 86h1v1h-1zM25 86h1v1h-1zM30 86h1v1h-1zM42 86h1v1h-1zM45 86h1v1h-1zM48 86h1v1h-1zM50 86h1v1h-1zM54 86h1v1h-1zM56 86h1v1h-1zM78 86h1v1h-1zM85 86h1v1h-1zM90 86h1v1h-1zM51 87h1v1h-1zM73 87h1v1h-1zM79 87h1v1h-1zM36 88h2v1h-2zM41 88h1v1h-1zM43 88h1v1h-1zM52 88h1v1h-1zM71 88h1v1h-1zM92 88h1v1h-1zM7 89h1v1h-1zM71 89h1v1h-1zM79 89h2v1h-2zM85 89h1v1h-1zM43 90h2v1h-2zM48 90h1v1h-1zM74 90h1v1h-1zM76 90h1v1h-1zM81 90h1v1h-1zM87 90h1v1h-1zM43 92h1v1h-1zM12 93h1v1h-1zM38 93h1v1h-1zM45 93h1v1h-1zM77 93h1v1h-1zM36 94h1v1h-1zM40 94h2v1h-2zM79 94h1v1h-1zM82 94h1v1h-1zM84 94h1v1h-1z" /><path fill="#eb0f00" d="M57 5h1v1h-1zM41 7h1v1h-1zM43 7h1v1h-1zM47 7h1v1h-1zM58 7h1v1h-1zM44 8h1v1h-1zM50 8h1v1h-1zM54 8h1v1h-1zM38 9h1v1h-1zM63 9h1v1h-1zM43 10h1v1h-1zM55 10h1v1h-1zM55 11h1v1h-1zM57 11h1v1h-1zM60 11h1v1h-1zM65 11h1v1h-1zM38 12h1v1h-1zM45 12h1v1h-1zM47 12h1v1h-1zM60 12h1v1h-1zM67 13h1v1h-1zM35 14h1v1h-1zM49 14h1v1h-1zM61 14h1v1h-1zM57 15h1v1h-1zM64 15h1v1h-1zM42 16h1v1h-1zM64 16h1v1h-1zM67 16h1v1h-1zM30 17h1v1h-1zM46 17h2v1h-2zM60 17h1v1h-1zM43 18h1v1h-1zM47 18h1v1h-1zM56 18h1v1h-1zM40 19h1v1h-1zM42 19h1v1h-1zM55 19h1v1h-1zM50 20h2v1h-2zM65 20h1v1h-1zM40 21h1v1h-1zM48 21h1v1h-1zM55 21h1v1h-1zM70 21h1v1h-1zM28 22h1v1h-1zM45 22h1v1h-1zM51 22h1v1h-1zM66 22h1v1h-1zM38 23h1v1h-1zM42 23h1v1h-1zM45 23h1v1h-1zM65 23h1v1h-1zM42 24h1v1h-1zM58 24h1v1h-1zM60 24h1v1h-1zM48 25h1v1h-1zM34 26h1v1h-1zM62 26h2v1h-2zM71 26h1v1h-1zM26 27h1v1h-1zM35 27h2v1h-2zM47 27h1v1h-1zM50 27h1v1h-1zM70 27h1v1h-1zM36 28h1v1h-1zM40 28h1v1h-1zM62 28h1v1h-1zM66 28h1v1h-1zM74 28h1v1h-1zM27 29h1v1h-1zM29 29h1v1h-1zM38 29h1v1h-1zM64 29h1v1h-1zM67 29h1v1h-1zM24 30h1v1h-1zM30 30h1v1h-1zM38 31h1v1h-1zM41 31h1v1h-1zM53 31h1v1h-1zM74 31h1v1h-1zM49 32h1v1h-1zM54 32h1v1h-1zM35 33h1v1h-1zM41 33h2v1h-2zM55 33h1v1h-1zM62 33h1v1h-1zM70 33h1v1h-1zM76 33h1v1h-1zM34 34h1v1h-1zM43 34h2v1h-2zM66 34h1v1h-1zM30 35h1v1h-1zM52 35h1v1h-1zM67 35h1v1h-1zM32 36h1v1h-1zM36 36h1v1h-1zM71 36h2v1h-2zM77 36h1v1h-1zM38 37h1v1h-1zM44 37h1v1h-1zM75 37h1v1h-1zM32 38h1v1h-1zM35 38h1v1h-1zM72 38h1v1h-1zM23 39h2v1h-2zM43 39h1v1h-1zM47 39h1v1h-1zM52 39h1v1h-1zM54 39h1v1h-1zM70 39h1v1h-1zM76 39h1v1h-1zM35 40h1v1h-1zM42 40h1v1h-1zM27 41h1v1h-1zM31 41h1v1h-1zM29 42h1v1h-1zM53 42h1v1h-1zM65 42h1v1h-1zM76 42h2v1h-2zM80 42h1v1h-1zM36 43h1v1h-1zM74 43h1v1h-1zM23 44h1v1h-1zM33 44h2v1h-2zM36 44h2v1h-2zM69 44h1v1h-1zM27 45h1v1h-1zM29 45h1v1h-1zM39 45h1v1h-1zM69 45h1v1h-1zM38 46h1v1h-1zM67 46h1v1h-1zM17 47h1v1h-1zM30 47h1v1h-1zM71 47h1v1h-1zM53 48h1v1h-1zM74 48h1v1h-1zM25 50h1v1h-1zM30 50h1v1h-1zM33 50h2v1h-2zM54 50h1v1h-1zM26 51h1v1h-1zM28 51h1v1h-1zM31 51h1v1h-1zM38 51h1v1h-1zM54 51h1v1h-1zM30 52h1v1h-1zM32 52h1v1h-1zM55 52h1v1h-1zM84 52h1v1h-1zM32 53h1v1h-1zM35 53h1v1h-1zM37 53h1v1h-1zM70 53h1v1h-1zM75 53h1v1h-1zM34 54h3v1h-3zM21 55h1v1h-1zM25 55h1v1h-1zM37 55h1v1h-1zM71 55h1v1h-1zM13 56h1v1h-1zM28 56h1v1h-1zM85 56h1v1h-1zM34 57h1v1h-1zM37 57h1v1h-1zM72 57h1v1h-1zM86 57h1v1h-1zM57 58h1v1h-1zM75 58h1v1h-1zM80 58h1v1h-1zM14 59h1v1h-1zM27 59h1v1h-1zM70 59h1v1h-1zM86 59h1v1h-1zM11 60h1v1h-1zM27 60h1v1h-1zM81 60h1v1h-1zM76 61h1v1h-1zM86 62h1v1h-1zM11 63h1v1h-1zM32 63h2v1h-2zM85 63h1v1h-1zM24 64h1v1h-1zM27 64h1v1h-1zM30 64h2v1h-2zM59 64h1v1h-1zM86 64h1v1h-1zM9 65h1v1h-1zM60 65h1v1h-1zM71 65h1v1h-1zM75 65h1v1h-1zM35 66h1v1h-1zM22 67h1v1h-1zM24 67h1v1h-1zM9 68h1v1h-1zM21 68h2v1h-2zM48 68h2v1h-2zM88 68h1v1h-1zM70 69h1v1h-1zM42 70h1v1h-1zM45 70h1v1h-1zM51 70h1v1h-1zM70 70h1v1h-1zM22 71h1v1h-1zM24 71h1v1h-1zM39 71h1v1h-1zM49 71h1v1h-1zM28 72h1v1h-1zM44 72h1v1h-1zM46 72h1v1h-1zM78 72h1v1h-1zM85 72h1v1h-1zM20 73h1v1h-1zM34 73h1v1h-1zM48 73h1v1h-1zM55 73h1v1h-1zM70 73h1v1h-1zM81 73h1v1h-1zM93 73h1v1h-1zM21 74h1v1h-1zM25 74h1v1h-1zM47 74h1v1h-1zM50 74h1v1h-1zM52 74h1v1h-1zM75 74h1v1h-1zM77 74h1v1h-1zM92 74h1v1h-1zM35 75h1v1h-1zM52 75h1v1h-1zM64 75h1v1h-1zM75 75h1v1h-1zM17 76h1v1h-1zM41 76h1v1h-1zM47 76h2v1h-2zM77 76h1v1h-1zM79 76h1v1h-1zM4 77h1v1h-1zM22 77h1v1h-1zM40 77h1v1h-1zM56 77h1v1h-1zM70 77h1v1h-1zM80 77h1v1h-1zM94 77h1v1h-1zM36 78h2v1h-2zM73 78h1v1h-1zM81 78h1v1h-1zM85 78h1v1h-1zM24 79h2v1h-2zM36 79h1v1h-1zM52 79h2v1h-2zM33 80h1v1h-1zM55 80h1v1h-1zM72 80h1v1h-1zM19 81h2v1h-2zM26 81h1v1h-1zM30 81h1v1h-1zM41 81h1v1h-1zM44 81h1v1h-1zM81 81h1v1h-1zM26 82h1v1h-1zM31 82h1v1h-1zM44 82h1v1h-1zM52 82h1v1h-1zM74 82h1v1h-1zM84 82h1v1h-1zM86 82h1v1h-1zM30 83h1v1h-1zM90 83h1v1h-1zM95 83h1v1h-1zM30 84h1v1h-1zM35 84h1v1h-1zM54 84h1v1h-1zM56 84h1v1h-1zM6 85h1v1h-1zM41 85h1v1h-1zM46 85h1v1h-1zM78 85h1v1h-1zM89 85h1v1h-1zM93 85h1v1h-1zM26 86h1v1h-1zM35 86h1v1h-1zM82 86h2v1h-2zM31 87h1v1h-1zM40 87h1v1h-1zM48 88h1v1h-1zM75 88h1v1h-1zM90 88h1v1h-1zM37 89h1v1h-1zM43 89h1v1h-1zM49 89h1v1h-1zM87 89h1v1h-1zM90 89h1v1h-1zM92 89h1v1h-1zM85 90h1v1h-1zM44 92h1v1h-1zM74 92h1v1h-1zM48 93h1v1h-1zM84 93h1v1h-1zM87 93h2v1h-2zM17 94h1v1h-1zM22 94h1v1h-1zM26 94h1v1h-1zM39 94h1v1h-1zM19 95h1v1h-1zM24 95h1v1h-1zM30 95h1v1h-1z" /></svg>