<svg xmlns="http://www.w3.org/2000/svg" viewBox="0 0 100 100" width="1em" height="1em"><path fill="#eb1000" d="M50 4h1v1h-1zM45 5h1v1h-1zM50 5h2v1h-2zM57 5h1v1h-1zM44 6h3v1h-3zM49 6h4v1h-4zM55 6h3v1h-3zM40 7h1v1h-1zM43 7h4v1h-4zM50 7h2v1h-2zM55 7h3v1h-3zM39 8h3v1h-3zM45 8h1v1h-1zM50 8h1v1h-1zM55 8h3v1h-3zM60 8h3v1h-3zM39 9h3v1h-3zM48 9h2v1h-2zM53 9h2v1h-2zM60 9h4v1h-4zM35 10h1v1h-1zM39 10h3v1h-3zM44 10h1v1h-1zM46 10h4v1h-4zM52 10h3v1h-3zM60 10h3v1h-3zM34 11h4v1h-4zM42 11h3v1h-3zM46 11h4v1h-4zM52 11h3v1h-3zM57 11h3v1h-3zM65 11h1v1h-1zM34 12h4v1h-4zM42 12h3v1h-3zM48 12h1v1h-1zM53 12h2v1h-2zM56 12h4v1h-4zM64 12h3v1h-3zM35 13h4v1h-4zM42 13h2v1h-2zM50 13h1v1h-1zM57 13h4v1h-4zM64 13h3v1h-3zM37 14h3v1h-3zM43 14h1v1h-1zM46 14h1v1h-1zM49 14h4v1h-4zM57 14h2v1h-2zM64 14h3v1h-3zM31 15h3v1h-3zM37 15h4v1h-4zM45 15h3v1h-3zM49 15h4v1h-4zM54 15h3v1h-3zM61 15h3v1h-3zM65 15h1v1h-1zM31 16h4v1h-4zM37 16h5v1h-5zM45 16h3v1h-3zM50 16h2v1h-2zM54 16h4v1h-4zM61 16h4v1h-4zM31 17h5v1h-5zM40 17h3v1h-3zM46 17h2v1h-2zM55 17h2v1h-2zM61 17h3v1h-3zM67 17h3v1h-3zM32 18h5v1h-5zM40 18h3v1h-3zM53 18h3v1h-3zM59 18h4v1h-4zM65 18h1v1h-1zM67 18h3v1h-3zM33 19h4v1h-4zM38 19h1v1h-1zM41 19h1v1h-1zM43 19h1v1h-1zM45 19h1v1h-1zM48 19h3v1h-3zM53 19h2v1h-2zM58 19h4v1h-4zM64 19h5v1h-5zM29 20h3v1h-3zM34 20h5v1h-5zM43 20h3v1h-3zM48 20h2v1h-2zM52 20h3v1h-3zM58 20h4v1h-4zM64 20h4v1h-4zM28 21h4v1h-4zM37 21h3v1h-3zM43 21h4v1h-4zM52 21h3v1h-3zM57 21h2v1h-2zM60 21h1v1h-1zM64 21h4v1h-4zM29 22h5v1h-5zM37 22h4v1h-4zM44 22h1v1h-1zM56 22h3v1h-3zM61 22h4v1h-4zM66 22h1v1h-1zM69 22h3v1h-3zM29 23h6v1h-6zM39 23h4v1h-4zM46 23h1v1h-1zM51 23h1v1h-1zM56 23h3v1h-3zM61 23h4v1h-4zM68 23h4v1h-4zM32 24h5v1h-5zM40 24h2v1h-2zM45 24h3v1h-3zM49 24h4v1h-4zM55 24h1v1h-1zM60 24h4v1h-4zM66 24h5v1h-5zM28 25h1v1h-1zM32 25h5v1h-5zM40 25h1v1h-1zM43 25h1v1h-1zM46 25h2v1h-2zM50 25h3v1h-3zM54 25h3v1h-3zM59 25h3v1h-3zM63 25h1v1h-1zM66 25h3v1h-3zM27 26h3v1h-3zM34 26h5v1h-5zM42 26h2v1h-2zM51 26h1v1h-1zM54 26h3v1h-3zM59 26h3v1h-3zM64 26h6v1h-6zM72 26h1v1h-1zM27 27h5v1h-5zM36 27h4v1h-4zM42 27h2v1h-2zM55 27h3v1h-3zM59 27h3v1h-3zM63 27h4v1h-4zM72 27h2v1h-2zM27 28h6v1h-6zM37 28h4v1h-4zM47 28h2v1h-2zM50 28h2v1h-2zM57 28h3v1h-3zM61 28h1v1h-1zM63 28h4v1h-4zM71 28h4v1h-4zM30 29h5v1h-5zM37 29h4v1h-4zM46 29h3v1h-3zM50 29h3v1h-3zM57 29h8v1h-8zM68 29h5v1h-5zM26 30h1v1h-1zM31 30h7v1h-7zM39 30h3v1h-3zM46 30h2v1h-2zM51 30h2v1h-2zM54 30h6v1h-6zM61 30h4v1h-4zM67 30h4v1h-4zM25 31h3v1h-3zM32 31h6v1h-6zM40 31h1v1h-1zM43 31h2v1h-2zM53 31h6v1h-6zM61 31h4v1h-4zM66 31h5v1h-5zM24 32h7v1h-7zM33 32h1v1h-1zM35 32h3v1h-3zM49 32h1v1h-1zM54 32h8v1h-8zM65 32h4v1h-4zM73 32h3v1h-3zM24 33h9v1h-9zM35 33h5v1h-5zM48 33h2v1h-2zM51 33h2v1h-2zM56 33h6v1h-6zM64 33h4v1h-4zM71 33h1v1h-1zM73 33h3v1h-3zM28 34h7v1h-7zM38 34h5v1h-5zM45 34h1v1h-1zM51 34h3v1h-3zM55 34h11v1h-11zM67 34h1v1h-1zM70 34h6v1h-6zM24 35h2v1h-2zM29 35h7v1h-7zM38 35h5v1h-5zM45 35h2v1h-2zM51 35h2v1h-2zM56 35h10v1h-10zM68 35h5v1h-5zM23 36h3v1h-3zM27 36h1v1h-1zM31 36h6v1h-6zM41 36h1v1h-1zM54 36h12v1h-12zM67 36h5v1h-5zM22 37h7v1h-7zM30 37h1v1h-1zM34 37h5v1h-5zM40 37h1v1h-1zM50 37h2v1h-2zM53 37h11v1h-11zM65 37h6v1h-6zM76 37h2v1h-2zM23 38h8v1h-8zM36 38h5v1h-5zM43 38h2v1h-2zM46 38h6v1h-6zM54 38h10v1h-10zM65 38h5v1h-5zM73 38h5v1h-5zM24 39h10v1h-10zM36 39h2v1h-2zM40 39h1v1h-1zM46 39h3v1h-3zM55 39h13v1h-13zM71 39h8v1h-8zM22 40h1v1h-1zM29 40h5v1h-5zM51 40h2v1h-2zM54 40h13v1h-13zM70 40h5v1h-5zM20 41h7v1h-7zM29 41h1v1h-1zM32 41h4v1h-4zM38 41h1v1h-1zM42 41h1v1h-1zM45 41h1v1h-1zM51 41h3v1h-3zM55 41h11v1h-11zM69 41h3v1h-3zM20 42h9v1h-9zM34 42h6v1h-6zM42 42h1v1h-1zM45 42h1v1h-1zM52 42h1v1h-1zM54 42h12v1h-12zM67 42h5v1h-5zM20 43h10v1h-10zM35 43h1v1h-1zM38 43h1v1h-1zM56 43h9v1h-9zM66 43h4v1h-4zM71 43h1v1h-1zM75 43h1v1h-1zM78 43h2v1h-2zM21 44h11v1h-11zM44 44h1v1h-1zM53 44h16v1h-16zM72 44h1v1h-1zM74 44h6v1h-6zM24 45h10v1h-10zM37 45h2v1h-2zM40 45h2v1h-2zM44 45h2v1h-2zM53 45h15v1h-15zM71 45h7v1h-7zM18 46h7v1h-7zM31 46h4v1h-4zM36 46h2v1h-2zM53 46h14v1h-14zM68 46h6v1h-6zM18 47h9v1h-9zM33 47h2v1h-2zM37 47h1v1h-1zM54 47h12v1h-12zM68 47h5v1h-5zM18 48h12v1h-12zM39 48h2v1h-2zM42 48h2v1h-2zM53 48h18v1h-18zM77 48h1v1h-1zM80 48h2v1h-2zM19 49h14v1h-14zM35 49h2v1h-2zM39 49h1v1h-1zM55 49h15v1h-15zM74 49h1v1h-1zM76 49h7v1h-7zM17 50h1v1h-1zM26 50h1v1h-1zM28 50h5v1h-5zM35 50h1v1h-1zM39 50h1v1h-1zM55 50h13v1h-13zM73 50h7v1h-7zM16 51h7v1h-7zM31 51h2v1h-2zM41 51h1v1h-1zM55 51h13v1h-13zM70 51h8v1h-8zM15 52h13v1h-13zM36 52h3v1h-3zM55 52h18v1h-18zM75 52h1v1h-1zM15 53h16v1h-16zM33 53h2v1h-2zM56 53h16v1h-16zM76 53h1v1h-1zM78 53h3v1h-3zM82 53h2v1h-2zM17 54h15v1h-15zM33 54h2v1h-2zM40 54h1v1h-1zM56 54h14v1h-14zM76 54h5v1h-5zM82 54h2v1h-2zM15 55h1v1h-1zM17 55h2v1h-2zM21 55h1v1h-1zM29 55h2v1h-2zM36 55h2v1h-2zM56 55h13v1h-13zM72 55h6v1h-6zM79 55h2v1h-2zM13 56h10v1h-10zM25 56h1v1h-1zM31 56h2v1h-2zM35 56h3v1h-3zM57 56h14v1h-14zM72 56h5v1h-5zM14 57h15v1h-15zM31 57h3v1h-3zM38 57h1v1h-1zM57 57h17v1h-17zM14 58h16v1h-16zM32 58h1v1h-1zM38 58h2v1h-2zM57 58h17v1h-17zM81 58h2v1h-2zM84 58h3v1h-3zM14 59h6v1h-6zM22 59h1v1h-1zM25 59h2v1h-2zM28 59h2v1h-2zM33 59h3v1h-3zM58 59h13v1h-13zM76 59h7v1h-7zM84 59h3v1h-3zM13 60h1v1h-1zM15 60h5v1h-5zM24 60h1v1h-1zM30 60h2v1h-2zM58 60h11v1h-11zM73 60h7v1h-7zM81 60h1v1h-1zM12 61h13v1h-13zM26 61h1v1h-1zM30 61h2v1h-2zM37 61h1v1h-1zM58 61h18v1h-18zM77 61h2v1h-2zM11 62h17v1h-17zM31 62h4v1h-4zM58 62h16v1h-16zM11 63h11v1h-11zM23 63h2v1h-2zM26 63h2v1h-2zM29 63h1v1h-1zM32 63h2v1h-2zM35 63h1v1h-1zM60 63h12v1h-12zM79 63h2v1h-2zM83 63h2v1h-2zM87 63h2v1h-2zM11 64h11v1h-11zM28 64h2v1h-2zM35 64h1v1h-1zM60 64h11v1h-11zM72 64h6v1h-6zM79 64h3v1h-3zM83 64h2v1h-2zM87 64h2v1h-2zM12 65h11v1h-11zM25 65h1v1h-1zM28 65h2v1h-2zM60 65h11v1h-11zM72 65h7v1h-7zM80 65h2v1h-2zM87 65h2v1h-2zM9 66h17v1h-17zM29 66h4v1h-4zM61 66h10v1h-10zM72 66h4v1h-4zM9 67h19v1h-19zM35 67h2v1h-2zM61 67h8v1h-8zM70 67h5v1h-5zM86 67h1v1h-1zM9 68h12v1h-12zM25 68h4v1h-4zM38 68h1v1h-1zM42 68h1v1h-1zM61 68h11v1h-11zM75 68h1v1h-1zM78 68h2v1h-2zM81 68h2v1h-2zM85 68h2v1h-2zM88 68h3v1h-3zM10 69h11v1h-11zM23 69h1v1h-1zM27 69h1v1h-1zM31 69h1v1h-1zM38 69h1v1h-1zM45 69h1v1h-1zM62 69h11v1h-11zM74 69h2v1h-2zM77 69h3v1h-3zM81 69h2v1h-2zM85 69h2v1h-2zM89 69h2v1h-2zM8 70h1v1h-1zM10 70h15v1h-15zM31 70h1v1h-1zM48 70h1v1h-1zM63 70h7v1h-7zM72 70h1v1h-1zM74 70h2v1h-2zM78 70h2v1h-2zM82 70h1v1h-1zM89 70h1v1h-1zM8 71h17v1h-17zM27 71h1v1h-1zM31 71h1v1h-1zM33 71h1v1h-1zM37 71h1v1h-1zM41 71h1v1h-1zM45 71h1v1h-1zM51 71h1v1h-1zM62 71h12v1h-12zM7 72h13v1h-13zM21 72h4v1h-4zM26 72h3v1h-3zM33 72h2v1h-2zM37 72h2v1h-2zM41 72h2v1h-2zM44 72h3v1h-3zM63 72h11v1h-11zM79 72h2v1h-2zM6 73h14v1h-14zM22 73h3v1h-3zM27 73h1v1h-1zM42 73h1v1h-1zM45 73h2v1h-2zM49 73h1v1h-1zM54 73h1v1h-1zM64 73h6v1h-6zM72 73h2v1h-2zM76 73h2v1h-2zM79 73h6v1h-6zM87 73h2v1h-2zM91 73h1v1h-1zM7 74h14v1h-14zM22 74h3v1h-3zM30 74h1v1h-1zM33 74h2v1h-2zM51 74h1v1h-1zM53 74h3v1h-3zM64 74h6v1h-6zM73 74h1v1h-1zM76 74h2v1h-2zM79 74h2v1h-2zM84 74h1v1h-1zM87 74h2v1h-2zM91 74h2v1h-2zM8 75h13v1h-13zM22 75h3v1h-3zM29 75h2v1h-2zM32 75h3v1h-3zM37 75h2v1h-2zM41 75h2v1h-2zM46 75h1v1h-1zM51 75h1v1h-1zM64 75h4v1h-4zM69 75h2v1h-2zM73 75h3v1h-3zM91 75h1v1h-1zM5 76h15v1h-15zM23 76h1v1h-1zM30 76h5v1h-5zM37 76h2v1h-2zM41 76h3v1h-3zM45 76h2v1h-2zM50 76h3v1h-3zM65 76h7v1h-7zM73 76h2v1h-2zM5 77h12v1h-12zM20 77h1v1h-1zM24 77h4v1h-4zM34 77h1v1h-1zM49 77h1v1h-1zM55 77h1v1h-1zM65 77h6v1h-6zM77 77h2v1h-2zM81 77h2v1h-2zM86 77h1v1h-1zM5 78h11v1h-11zM19 78h4v1h-4zM25 78h3v1h-3zM30 78h1v1h-1zM34 78h2v1h-2zM39 78h1v1h-1zM43 78h2v1h-2zM48 78h2v1h-2zM53 78h1v1h-1zM66 78h3v1h-3zM72 78h1v1h-1zM78 78h2v1h-2zM81 78h3v1h-3zM85 78h3v1h-3zM89 78h2v1h-2zM94 78h1v1h-1zM5 79h13v1h-13zM19 79h3v1h-3zM25 79h2v1h-2zM29 79h3v1h-3zM33 79h3v1h-3zM37 79h4v1h-4zM42 79h3v1h-3zM53 79h1v1h-1zM67 79h2v1h-2zM71 79h2v1h-2zM75 79h2v1h-2zM79 79h1v1h-1zM89 79h2v1h-2zM93 79h2v1h-2zM5 80h13v1h-13zM19 80h8v1h-8zM29 80h3v1h-3zM34 80h3v1h-3zM38 80h2v1h-2zM43 80h1v1h-1zM67 80h6v1h-6zM75 80h1v1h-1zM93 80h2v1h-2zM6 81h12v1h-12zM20 81h1v1h-1zM23 81h3v1h-3zM28 81h2v1h-2zM32 81h3v1h-3zM37 81h2v1h-2zM47 81h2v1h-2zM51 81h2v1h-2zM55 81h2v1h-2zM67 81h3v1h-3zM71 81h1v1h-1zM75 81h1v1h-1zM80 81h1v1h-1zM4 82h14v1h-14zM19 82h1v1h-1zM22 82h8v1h-8zM32 82h3v1h-3zM37 82h2v1h-2zM42 82h3v1h-3zM47 82h2v1h-2zM50 82h2v1h-2zM68 82h2v1h-2zM73 82h1v1h-1zM79 82h2v1h-2zM83 82h3v1h-3zM87 82h2v1h-2zM5 83h16v1h-16zM23 83h3v1h-3zM27 83h4v1h-4zM32 83h4v1h-4zM37 83h3v1h-3zM42 83h2v1h-2zM51 83h1v1h-1zM53 83h1v1h-1zM68 83h6v1h-6zM76 83h3v1h-3zM83 83h1v1h-1zM87 83h2v1h-2zM91 83h1v1h-1zM5 84h16v1h-16zM23 84h2v1h-2zM28 84h2v1h-2zM33 84h2v1h-2zM38 84h1v1h-1zM43 84h1v1h-1zM48 84h2v1h-2zM52 84h2v1h-2zM68 84h3v1h-3zM72 84h1v1h-1zM91 84h1v1h-1zM94 84h1v1h-1zM5 85h20v1h-20zM27 85h4v1h-4zM32 85h3v1h-3zM38 85h2v1h-2zM43 85h2v1h-2zM46 85h4v1h-4zM52 85h2v1h-2zM69 85h2v1h-2zM86 85h1v1h-1zM94 85h1v1h-1zM6 86h14v1h-14zM22 86h9v1h-9zM32 86h4v1h-4zM37 86h3v1h-3zM42 86h3v1h-3zM47 86h3v1h-3zM54 86h2v1h-2zM69 86h3v1h-3zM74 86h2v1h-2zM79 86h1v1h-1zM82 86h2v1h-2zM86 86h1v1h-1zM7 87h13v1h-13zM22 87h13v1h-13zM37 87h3v1h-3zM43 87h2v1h-2zM49 87h1v1h-1zM55 87h1v1h-1zM69 87h6v1h-6zM78 87h2v1h-2zM83 87h1v1h-1zM85 87h3v1h-3zM89 87h1v1h-1zM7 88h14v1h-14zM22 88h9v1h-9zM32 88h5v1h-5zM38 88h4v1h-4zM44 88h2v1h-2zM49 88h2v1h-2zM69 88h3v1h-3zM77 88h1v1h-1zM89 88h2v1h-2zM7 89h24v1h-24zM33 89h3v1h-3zM38 89h4v1h-4zM44 89h3v1h-3zM49 89h3v1h-3zM72 89h2v1h-2zM76 89h2v1h-2zM83 89h1v1h-1zM91 89h1v1h-1zM8 90h29v1h-29zM38 90h4v1h-4zM44 90h3v1h-3zM50 90h3v1h-3zM72 90h2v1h-2zM76 90h1v1h-1zM83 90h1v1h-1zM86 90h2v1h-2zM91 90h1v1h-1zM9 91h1v1h-1zM11 91h26v1h-26zM38 91h4v1h-4zM45 91h2v1h-2zM50 91h4v1h-4zM72 91h2v1h-2zM75 91h1v1h-1zM79 91h2v1h-2zM85 91h3v1h-3zM11 92h32v1h-32zM45 92h3v1h-3zM50 92h1v1h-1zM74 92h3v1h-3zM11 93h38v1h-38zM75 93h1v1h-1zM87 93h2v1h-2zM11 94h4v1h-4zM17 94h16v1h-16zM34 94h4v1h-4zM39 94h4v1h-4zM45 94h3v1h-3zM78 94h2v1h-2zM83 94h1v1h-1zM13 95h1v1h-1zM17 95h4v1h-4zM23 95h3v1h-3zM29 95h4v1h-4zM35 95h3v1h-3zM41 95h2v1h-2zM47 95h1v1h-1zM82 95h3v1h-3zM83 96h1v1h-1z" /><path fill="#ea0f00" d="M51 4h1v1h-1zM56 5h1v1h-1zM47 6h1v1h-1zM54 6h1v1h-1zM54 7h1v1h-1zM42 8h1v1h-1zM51 8h1v1h-1zM36 10h1v1h-1zM38 10h1v1h-1zM43 10h1v1h-1zM50 10h1v1h-1zM41 11h1v1h-1zM50 11h2v1h-2zM55 11h1v1h-1zM45 12h1v1h-1zM49 12h1v1h-1zM60 12h1v1h-1zM41 13h1v1h-1zM56 13h1v1h-1zM67 13h1v1h-1zM61 14h2v1h-2zM57 15h1v1h-1zM49 16h1v1h-1zM52 16h1v1h-1zM60 16h1v1h-1zM68 16h1v1h-1zM36 17h1v1h-1zM51 17h1v1h-1zM60 17h1v1h-1zM31 18h1v1h-1zM56 18h1v1h-1zM69 19h1v1h-1zM32 20h1v1h-1zM51 20h1v1h-1zM55 20h1v1h-1zM63 20h1v1h-1zM59 21h1v1h-1zM62 21h1v1h-1zM34 22h1v1h-1zM41 22h1v1h-1zM43 22h1v1h-1zM59 22h1v1h-1zM65 22h1v1h-1zM37 23h2v1h-2zM59 23h1v1h-1zM31 24h1v1h-1zM58 24h1v1h-1zM64 24h1v1h-1zM48 25h1v1h-1zM62 25h1v1h-1zM41 26h1v1h-1zM51 27h1v1h-1zM62 27h1v1h-1zM26 28h1v1h-1zM33 28h1v1h-1zM42 28h1v1h-1zM60 28h1v1h-1zM69 28h1v1h-1zM27 29h2v1h-2zM35 29h1v1h-1zM49 29h1v1h-1zM53 29h1v1h-1zM56 29h1v1h-1zM27 30h1v1h-1zM50 30h1v1h-1zM71 30h1v1h-1zM24 31h1v1h-1zM41 31h2v1h-2zM48 32h1v1h-1zM63 32h1v1h-1zM69 32h1v1h-1zM33 33h1v1h-1zM62 33h1v1h-1zM70 33h1v1h-1zM72 33h1v1h-1zM37 34h1v1h-1zM43 34h2v1h-2zM46 34h1v1h-1zM37 35h1v1h-1zM53 35h1v1h-1zM66 35h1v1h-1zM73 35h1v1h-1zM26 36h1v1h-1zM28 36h1v1h-1zM42 36h1v1h-1zM45 36h1v1h-1zM33 37h1v1h-1zM43 37h1v1h-1zM47 37h1v1h-1zM31 38h1v1h-1zM34 38h2v1h-2zM72 38h1v1h-1zM38 39h1v1h-1zM41 39h1v1h-1zM44 39h1v1h-1zM54 39h1v1h-1zM68 39h1v1h-1zM26 40h1v1h-1zM34 40h1v1h-1zM30 41h1v1h-1zM43 41h1v1h-1zM74 41h1v1h-1zM29 42h1v1h-1zM33 42h1v1h-1zM40 42h1v1h-1zM39 43h1v1h-1zM42 43h1v1h-1zM53 43h1v1h-1zM65 43h1v1h-1zM70 43h1v1h-1zM77 43h1v1h-1zM41 44h1v1h-1zM19 45h2v1h-2zM39 45h1v1h-1zM43 45h1v1h-1zM52 45h1v1h-1zM68 45h1v1h-1zM78 45h1v1h-1zM26 46h2v1h-2zM41 46h1v1h-1zM74 46h2v1h-2zM28 47h1v1h-1zM17 48h1v1h-1zM34 48h2v1h-2zM71 48h1v1h-1zM79 48h1v1h-1zM18 49h1v1h-1zM70 49h1v1h-1zM73 49h1v1h-1zM19 50h2v1h-2zM25 50h1v1h-1zM27 50h1v1h-1zM41 50h1v1h-1zM71 50h2v1h-2zM23 51h1v1h-1zM25 51h1v1h-1zM28 51h1v1h-1zM35 51h4v1h-4zM40 51h1v1h-1zM69 51h1v1h-1zM34 52h1v1h-1zM73 52h1v1h-1zM82 52h2v1h-2zM35 53h1v1h-1zM38 53h1v1h-1zM55 53h1v1h-1zM35 54h1v1h-1zM55 54h1v1h-1zM14 55h1v1h-1zM16 55h1v1h-1zM19 55h1v1h-1zM26 55h1v1h-1zM40 55h1v1h-1zM82 55h1v1h-1zM24 56h1v1h-1zM29 56h1v1h-1zM77 56h1v1h-1zM29 57h1v1h-1zM39 57h1v1h-1zM31 58h1v1h-1zM34 58h1v1h-1zM79 58h1v1h-1zM13 59h1v1h-1zM24 59h1v1h-1zM57 59h1v1h-1zM12 60h1v1h-1zM21 60h1v1h-1zM36 60h1v1h-1zM85 60h1v1h-1zM36 61h1v1h-1zM30 62h1v1h-1zM59 63h1v1h-1zM85 63h1v1h-1zM59 64h1v1h-1zM10 65h2v1h-2zM26 65h1v1h-1zM59 65h1v1h-1zM83 65h1v1h-1zM71 66h1v1h-1zM77 66h1v1h-1zM82 67h1v1h-1zM41 68h1v1h-1zM72 68h1v1h-1zM80 68h1v1h-1zM83 68h2v1h-2zM87 68h1v1h-1zM30 69h1v1h-1zM39 69h1v1h-1zM46 69h1v1h-1zM61 69h1v1h-1zM84 69h1v1h-1zM87 69h2v1h-2zM9 70h1v1h-1zM32 70h1v1h-1zM70 70h1v1h-1zM81 70h1v1h-1zM86 70h1v1h-1zM26 71h1v1h-1zM38 71h1v1h-1zM46 71h1v1h-1zM74 71h1v1h-1zM39 72h1v1h-1zM51 72h1v1h-1zM83 72h1v1h-1zM87 72h2v1h-2zM26 73h1v1h-1zM33 73h1v1h-1zM70 73h1v1h-1zM85 73h1v1h-1zM42 74h1v1h-1zM63 74h1v1h-1zM75 74h1v1h-1zM85 74h1v1h-1zM90 74h1v1h-1zM93 74h1v1h-1zM21 75h1v1h-1zM28 75h1v1h-1zM31 75h1v1h-1zM35 75h1v1h-1zM77 75h1v1h-1zM20 76h1v1h-1zM35 76h1v1h-1zM39 76h1v1h-1zM47 76h1v1h-1zM72 76h1v1h-1zM18 77h1v1h-1zM39 77h1v1h-1zM46 77h1v1h-1zM73 77h1v1h-1zM89 77h1v1h-1zM50 78h1v1h-1zM52 78h1v1h-1zM55 78h2v1h-2zM69 78h1v1h-1zM22 79h1v1h-1zM24 79h1v1h-1zM28 79h1v1h-1zM32 79h1v1h-1zM36 79h1v1h-1zM48 79h2v1h-2zM78 79h1v1h-1zM40 80h1v1h-1zM47 80h2v1h-2zM51 80h2v1h-2zM18 81h1v1h-1zM21 81h1v1h-1zM27 81h1v1h-1zM42 81h1v1h-1zM50 81h1v1h-1zM57 81h1v1h-1zM81 81h1v1h-1zM83 81h1v1h-1zM18 82h1v1h-1zM31 82h1v1h-1zM35 82h1v1h-1zM67 82h1v1h-1zM71 82h1v1h-1zM74 82h1v1h-1zM76 82h2v1h-2zM81 82h1v1h-1zM86 82h1v1h-1zM91 82h1v1h-1zM4 83h1v1h-1zM22 83h1v1h-1zM47 83h1v1h-1zM52 83h1v1h-1zM74 83h1v1h-1zM80 83h1v1h-1zM86 83h1v1h-1zM4 84h1v1h-1zM39 84h1v1h-1zM51 84h1v1h-1zM35 85h1v1h-1zM40 85h1v1h-1zM71 85h1v1h-1zM21 86h1v1h-1zM36 86h1v1h-1zM40 86h1v1h-1zM53 86h1v1h-1zM80 86h1v1h-1zM35 87h1v1h-1zM82 87h1v1h-1zM6 88h1v1h-1zM21 88h1v1h-1zM31 88h1v1h-1zM43 88h1v1h-1zM76 88h1v1h-1zM6 89h1v1h-1zM74 89h1v1h-1zM78 89h1v1h-1zM82 89h1v1h-1zM53 90h1v1h-1zM71 90h1v1h-1zM74 90h1v1h-1zM85 90h1v1h-1zM37 91h1v1h-1zM42 91h1v1h-1zM71 91h1v1h-1zM74 91h1v1h-1zM43 92h1v1h-1zM79 93h1v1h-1zM15 94h2v1h-2zM43 94h1v1h-1zM48 94h1v1h-1zM84 94h1v1h-1zM21 95h1v1h-1zM18 96h1v1h-1zM25 96h1v1h-1zM29 96h2v1h-2z" /><path fill="#ea1000" d="M44 5h1v1h-1zM46 5h1v1h-1zM49 5h1v1h-1zM52 5h1v1h-1zM39 7h1v1h-1zM41 7h1v1h-1zM49 7h1v1h-1zM38 8h1v1h-1zM47 9h1v1h-1zM55 9h1v1h-1zM59 9h1v1h-1zM51 10h1v1h-1zM55 10h1v1h-1zM60 11h1v1h-1zM38 12h1v1h-1zM41 12h1v1h-1zM47 12h1v1h-1zM52 12h1v1h-1zM34 13h1v1h-1zM39 13h1v1h-1zM44 13h1v1h-1zM51 13h1v1h-1zM36 14h1v1h-1zM40 14h1v1h-1zM45 14h1v1h-1zM47 14h1v1h-1zM55 14h1v1h-1zM64 15h1v1h-1zM44 16h1v1h-1zM54 17h1v1h-1zM57 17h1v1h-1zM37 18h1v1h-1zM48 18h3v1h-3zM47 19h1v1h-1zM52 19h1v1h-1zM46 20h1v1h-1zM50 20h1v1h-1zM32 21h1v1h-1zM35 21h2v1h-2zM48 21h2v1h-2zM55 21h2v1h-2zM63 21h1v1h-1zM69 21h2v1h-2zM28 22h1v1h-1zM36 22h1v1h-1zM45 22h1v1h-1zM54 22h1v1h-1zM47 23h1v1h-1zM50 23h1v1h-1zM30 24h1v1h-1zM37 24h1v1h-1zM39 24h1v1h-1zM56 24h2v1h-2zM59 24h1v1h-1zM27 25h1v1h-1zM29 25h1v1h-1zM37 25h1v1h-1zM42 25h1v1h-1zM45 25h1v1h-1zM31 26h1v1h-1zM44 26h1v1h-1zM46 26h1v1h-1zM63 26h1v1h-1zM26 27h1v1h-1zM32 27h1v1h-1zM35 27h1v1h-1zM41 27h1v1h-1zM54 27h1v1h-1zM58 27h1v1h-1zM71 27h1v1h-1zM34 28h1v1h-1zM46 28h1v1h-1zM52 28h1v1h-1zM68 28h1v1h-1zM29 29h1v1h-1zM41 29h1v1h-1zM65 29h2v1h-2zM73 29h1v1h-1zM30 30h1v1h-1zM42 30h3v1h-3zM60 30h1v1h-1zM66 30h1v1h-1zM28 31h2v1h-2zM45 31h1v1h-1zM59 31h1v1h-1zM65 31h1v1h-1zM38 32h1v1h-1zM43 32h2v1h-2zM53 32h1v1h-1zM62 32h1v1h-1zM53 33h1v1h-1zM63 33h1v1h-1zM26 34h2v1h-2zM48 34h1v1h-1zM66 34h1v1h-1zM44 35h1v1h-1zM55 35h1v1h-1zM67 35h1v1h-1zM22 36h1v1h-1zM53 36h1v1h-1zM72 36h1v1h-1zM29 37h1v1h-1zM39 37h1v1h-1zM22 38h1v1h-1zM41 38h1v1h-1zM53 38h1v1h-1zM64 38h1v1h-1zM39 39h1v1h-1zM43 39h1v1h-1zM50 39h2v1h-2zM70 39h1v1h-1zM23 40h1v1h-1zM67 40h1v1h-1zM75 40h1v1h-1zM39 41h1v1h-1zM41 41h1v1h-1zM46 41h1v1h-1zM54 41h1v1h-1zM67 41h1v1h-1zM72 41h2v1h-2zM41 42h1v1h-1zM46 42h1v1h-1zM66 42h1v1h-1zM78 42h2v1h-2zM34 43h1v1h-1zM54 43h2v1h-2zM74 43h1v1h-1zM80 43h1v1h-1zM32 44h1v1h-1zM40 44h1v1h-1zM43 44h1v1h-1zM71 44h1v1h-1zM73 44h1v1h-1zM18 45h1v1h-1zM23 45h1v1h-1zM34 45h1v1h-1zM36 45h1v1h-1zM69 45h1v1h-1zM79 45h1v1h-1zM30 46h1v1h-1zM35 46h1v1h-1zM40 46h1v1h-1zM17 47h1v1h-1zM27 47h1v1h-1zM29 47h1v1h-1zM53 47h1v1h-1zM66 47h1v1h-1zM73 47h1v1h-1zM81 47h1v1h-1zM30 48h1v1h-1zM78 48h1v1h-1zM82 48h1v1h-1zM33 49h1v1h-1zM38 49h1v1h-1zM40 49h1v1h-1zM54 49h1v1h-1zM18 50h1v1h-1zM22 50h3v1h-3zM33 50h1v1h-1zM36 50h1v1h-1zM54 50h1v1h-1zM68 50h1v1h-1zM70 50h1v1h-1zM81 50h1v1h-1zM15 51h1v1h-1zM33 51h1v1h-1zM42 51h1v1h-1zM54 51h1v1h-1zM28 52h1v1h-1zM31 52h1v1h-1zM33 52h1v1h-1zM41 52h1v1h-1zM31 53h1v1h-1zM37 53h1v1h-1zM72 53h1v1h-1zM81 53h1v1h-1zM84 53h1v1h-1zM16 54h1v1h-1zM32 54h1v1h-1zM39 54h1v1h-1zM75 54h1v1h-1zM81 54h1v1h-1zM84 54h1v1h-1zM22 55h1v1h-1zM25 55h1v1h-1zM28 55h1v1h-1zM31 55h1v1h-1zM35 55h1v1h-1zM69 55h1v1h-1zM78 55h1v1h-1zM26 56h1v1h-1zM71 56h1v1h-1zM13 57h1v1h-1zM36 57h1v1h-1zM85 57h1v1h-1zM13 58h1v1h-1zM30 58h1v1h-1zM33 58h1v1h-1zM77 58h1v1h-1zM21 59h1v1h-1zM27 59h1v1h-1zM75 59h1v1h-1zM83 59h1v1h-1zM14 60h1v1h-1zM29 60h1v1h-1zM34 60h1v1h-1zM37 60h1v1h-1zM69 60h1v1h-1zM71 60h2v1h-2zM82 60h1v1h-1zM11 61h1v1h-1zM76 61h1v1h-1zM28 62h1v1h-1zM22 63h1v1h-1zM25 63h1v1h-1zM34 63h1v1h-1zM76 63h2v1h-2zM82 63h1v1h-1zM86 63h1v1h-1zM36 64h1v1h-1zM71 64h1v1h-1zM78 64h1v1h-1zM86 64h1v1h-1zM24 65h1v1h-1zM30 65h3v1h-3zM35 65h1v1h-1zM26 66h1v1h-1zM28 66h1v1h-1zM60 66h1v1h-1zM76 66h1v1h-1zM28 67h1v1h-1zM31 67h2v1h-2zM21 68h2v1h-2zM35 68h1v1h-1zM45 68h2v1h-2zM74 68h1v1h-1zM77 68h1v1h-1zM21 69h2v1h-2zM24 69h1v1h-1zM26 69h1v1h-1zM28 69h1v1h-1zM32 69h1v1h-1zM41 69h2v1h-2zM80 69h1v1h-1zM27 70h1v1h-1zM30 70h1v1h-1zM49 70h1v1h-1zM76 70h2v1h-2zM90 70h1v1h-1zM7 71h1v1h-1zM28 71h1v1h-1zM34 71h1v1h-1zM52 71h1v1h-1zM75 71h1v1h-1zM20 72h1v1h-1zM35 72h1v1h-1zM49 72h1v1h-1zM62 72h1v1h-1zM34 73h1v1h-1zM38 73h1v1h-1zM41 73h1v1h-1zM48 73h1v1h-1zM50 73h1v1h-1zM75 73h1v1h-1zM78 73h1v1h-1zM89 73h1v1h-1zM92 73h1v1h-1zM29 74h1v1h-1zM31 74h1v1h-1zM49 74h1v1h-1zM70 74h1v1h-1zM74 74h1v1h-1zM78 74h1v1h-1zM83 74h1v1h-1zM89 74h1v1h-1zM25 75h1v1h-1zM43 75h1v1h-1zM47 75h1v1h-1zM50 75h1v1h-1zM52 75h1v1h-1zM76 75h1v1h-1zM22 76h1v1h-1zM24 76h1v1h-1zM29 76h1v1h-1zM75 76h1v1h-1zM4 77h1v1h-1zM30 77h1v1h-1zM37 77h1v1h-1zM41 77h2v1h-2zM48 77h1v1h-1zM50 77h1v1h-1zM56 77h1v1h-1zM83 77h1v1h-1zM85 77h1v1h-1zM90 77h1v1h-1zM4 78h1v1h-1zM29 78h1v1h-1zM31 78h1v1h-1zM33 78h1v1h-1zM38 78h1v1h-1zM54 78h1v1h-1zM65 78h1v1h-1zM70 78h2v1h-2zM76 78h2v1h-2zM91 78h1v1h-1zM93 78h1v1h-1zM4 79h1v1h-1zM54 79h1v1h-1zM66 79h1v1h-1zM69 79h2v1h-2zM73 79h2v1h-2zM77 79h1v1h-1zM81 79h2v1h-2zM85 79h1v1h-1zM18 80h1v1h-1zM28 80h1v1h-1zM66 80h1v1h-1zM76 80h1v1h-1zM5 81h1v1h-1zM19 81h1v1h-1zM22 81h1v1h-1zM35 81h1v1h-1zM39 81h1v1h-1zM46 81h1v1h-1zM66 81h1v1h-1zM70 81h1v1h-1zM79 81h1v1h-1zM84 81h1v1h-1zM87 81h1v1h-1zM30 82h1v1h-1zM36 82h1v1h-1zM39 82h1v1h-1zM46 82h1v1h-1zM56 82h2v1h-2zM72 82h1v1h-1zM26 83h1v1h-1zM31 83h1v1h-1zM44 83h1v1h-1zM79 83h1v1h-1zM90 83h1v1h-1zM21 84h2v1h-2zM27 84h1v1h-1zM30 84h1v1h-1zM32 84h1v1h-1zM42 84h1v1h-1zM47 84h1v1h-1zM71 84h1v1h-1zM73 84h1v1h-1zM76 84h2v1h-2zM90 84h1v1h-1zM92 84h2v1h-2zM95 84h1v1h-1zM25 85h2v1h-2zM37 85h1v1h-1zM51 85h1v1h-1zM55 85h1v1h-1zM75 85h1v1h-1zM82 85h2v1h-2zM93 85h1v1h-1zM45 86h1v1h-1zM85 86h1v1h-1zM20 87h1v1h-1zM40 87h1v1h-1zM42 87h1v1h-1zM48 87h1v1h-1zM50 87h1v1h-1zM54 87h1v1h-1zM75 87h1v1h-1zM90 87h1v1h-1zM37 88h1v1h-1zM46 88h1v1h-1zM51 88h1v1h-1zM72 88h1v1h-1zM79 88h1v1h-1zM88 88h1v1h-1zM36 89h1v1h-1zM43 89h1v1h-1zM48 89h1v1h-1zM52 89h1v1h-1zM92 89h1v1h-1zM7 90h1v1h-1zM37 90h1v1h-1zM43 90h1v1h-1zM77 90h1v1h-1zM84 90h1v1h-1zM92 90h1v1h-1zM8 91h1v1h-1zM10 91h1v1h-1zM44 91h1v1h-1zM47 91h1v1h-1zM44 92h1v1h-1zM48 92h1v1h-1zM51 92h2v1h-2zM80 92h1v1h-1zM87 92h1v1h-1zM74 93h1v1h-1zM76 93h1v1h-1zM78 93h1v1h-1zM33 94h1v1h-1zM38 94h1v1h-1zM80 94h1v1h-1zM82 94h1v1h-1zM22 95h1v1h-1zM34 95h1v1h-1zM39 95h2v1h-2zM46 95h1v1h-1zM78 95h1v1h-1zM19 96h1v1h-1zM24 96h1v1h-1z" /><path fill="#eb0f00" d="M55 5h1v1h-1zM43 6h1v1h-1zM58 6h1v1h-1zM47 7h1v1h-1zM52 7h1v1h-1zM58 7h1v1h-1zM44 8h1v1h-1zM46 8h1v1h-1zM54 8h1v1h-1zM38 9h1v1h-1zM42 9h1v1h-1zM52 9h1v1h-1zM56 9h1v1h-1zM42 10h1v1h-1zM59 10h1v1h-1zM61 11h2v1h-2zM63 12h1v1h-1zM63 13h1v1h-1zM35 14h1v1h-1zM44 14h1v1h-1zM56 14h1v1h-1zM59 14h1v1h-1zM63 14h1v1h-1zM34 15h1v1h-1zM44 15h1v1h-1zM42 16h1v1h-1zM67 16h1v1h-1zM39 17h1v1h-1zM43 17h1v1h-1zM45 17h1v1h-1zM50 17h1v1h-1zM59 17h1v1h-1zM64 17h1v1h-1zM66 17h1v1h-1zM43 18h1v1h-1zM58 18h1v1h-1zM66 18h1v1h-1zM32 19h1v1h-1zM37 19h1v1h-1zM40 19h1v1h-1zM42 19h1v1h-1zM44 19h1v1h-1zM55 19h1v1h-1zM39 20h1v1h-1zM47 20h1v1h-1zM53 22h1v1h-1zM68 22h1v1h-1zM35 23h1v1h-1zM52 23h1v1h-1zM67 23h1v1h-1zM42 24h1v1h-1zM48 24h1v1h-1zM54 24h1v1h-1zM71 24h1v1h-1zM41 25h1v1h-1zM53 25h1v1h-1zM65 25h1v1h-1zM69 25h1v1h-1zM26 26h1v1h-1zM30 26h1v1h-1zM39 26h1v1h-1zM47 26h1v1h-1zM53 26h1v1h-1zM57 26h2v1h-2zM62 26h1v1h-1zM34 27h1v1h-1zM44 27h1v1h-1zM67 27h1v1h-1zM36 28h1v1h-1zM43 28h1v1h-1zM56 28h1v1h-1zM62 28h1v1h-1zM70 28h1v1h-1zM54 29h2v1h-2zM25 30h1v1h-1zM48 30h1v1h-1zM53 30h1v1h-1zM39 31h1v1h-1zM60 31h1v1h-1zM34 32h1v1h-1zM64 32h1v1h-1zM41 33h2v1h-2zM47 33h1v1h-1zM55 33h1v1h-1zM68 33h1v1h-1zM76 33h1v1h-1zM25 34h1v1h-1zM49 34h1v1h-1zM23 35h1v1h-1zM28 35h1v1h-1zM36 35h1v1h-1zM43 35h1v1h-1zM74 35h1v1h-1zM30 36h1v1h-1zM66 36h1v1h-1zM44 37h1v1h-1zM64 37h1v1h-1zM75 37h1v1h-1zM42 38h1v1h-1zM78 38h1v1h-1zM23 39h1v1h-1zM34 39h1v1h-1zM21 40h1v1h-1zM27 40h2v1h-2zM53 40h1v1h-1zM69 40h1v1h-1zM76 40h1v1h-1zM31 41h1v1h-1zM36 41h2v1h-2zM66 41h1v1h-1zM68 41h1v1h-1zM32 42h1v1h-1zM43 42h1v1h-1zM51 42h1v1h-1zM53 42h1v1h-1zM72 42h1v1h-1zM30 43h2v1h-2zM36 43h2v1h-2zM76 43h1v1h-1zM20 44h1v1h-1zM45 44h1v1h-1zM52 44h1v1h-1zM69 44h1v1h-1zM80 44h1v1h-1zM21 45h1v1h-1zM38 46h1v1h-1zM67 46h1v1h-1zM76 46h1v1h-1zM32 47h1v1h-1zM36 47h1v1h-1zM42 47h2v1h-2zM67 47h1v1h-1zM80 47h1v1h-1zM33 48h1v1h-1zM38 48h1v1h-1zM76 48h1v1h-1zM34 49h1v1h-1zM42 49h1v1h-1zM75 49h1v1h-1zM16 50h1v1h-1zM21 50h1v1h-1zM34 50h1v1h-1zM80 50h1v1h-1zM24 51h1v1h-1zM30 51h1v1h-1zM68 51h1v1h-1zM78 51h1v1h-1zM32 52h1v1h-1zM74 52h1v1h-1zM32 53h1v1h-1zM70 54h1v1h-1zM20 55h1v1h-1zM23 55h2v1h-2zM27 55h1v1h-1zM39 55h1v1h-1zM83 55h1v1h-1zM23 56h1v1h-1zM30 56h1v1h-1zM33 56h1v1h-1zM56 56h1v1h-1zM74 57h1v1h-1zM35 58h1v1h-1zM78 58h1v1h-1zM80 58h1v1h-1zM83 58h1v1h-1zM20 59h1v1h-1zM23 59h1v1h-1zM30 59h1v1h-1zM71 59h1v1h-1zM74 59h1v1h-1zM20 60h1v1h-1zM22 60h2v1h-2zM28 60h1v1h-1zM35 60h1v1h-1zM70 60h1v1h-1zM80 60h1v1h-1zM84 60h1v1h-1zM25 61h1v1h-1zM27 61h1v1h-1zM29 61h1v1h-1zM32 61h1v1h-1zM79 61h1v1h-1zM74 62h2v1h-2zM83 62h1v1h-1zM87 62h1v1h-1zM28 63h1v1h-1zM72 63h1v1h-1zM81 63h1v1h-1zM22 64h2v1h-2zM26 64h2v1h-2zM30 64h1v1h-1zM82 64h1v1h-1zM85 64h1v1h-1zM23 65h1v1h-1zM27 65h1v1h-1zM71 65h1v1h-1zM79 65h1v1h-1zM84 65h1v1h-1zM69 67h1v1h-1zM85 67h1v1h-1zM24 68h1v1h-1zM39 68h1v1h-1zM9 69h1v1h-1zM48 69h2v1h-2zM76 69h1v1h-1zM83 69h1v1h-1zM62 70h1v1h-1zM71 70h1v1h-1zM73 70h1v1h-1zM85 70h1v1h-1zM42 71h1v1h-1zM6 72h1v1h-1zM40 72h1v1h-1zM48 72h1v1h-1zM52 72h1v1h-1zM81 72h1v1h-1zM84 72h1v1h-1zM28 73h1v1h-1zM37 73h1v1h-1zM44 73h1v1h-1zM63 73h1v1h-1zM71 73h1v1h-1zM86 73h1v1h-1zM37 74h2v1h-2zM81 74h1v1h-1zM86 74h1v1h-1zM7 75h1v1h-1zM39 75h1v1h-1zM45 75h1v1h-1zM54 75h1v1h-1zM68 75h1v1h-1zM71 75h2v1h-2zM80 75h1v1h-1zM92 75h1v1h-1zM25 76h1v1h-1zM19 77h1v1h-1zM33 77h1v1h-1zM38 77h1v1h-1zM71 77h1v1h-1zM74 77h1v1h-1zM79 77h1v1h-1zM16 78h1v1h-1zM24 78h1v1h-1zM28 78h1v1h-1zM40 78h1v1h-1zM42 78h1v1h-1zM75 78h1v1h-1zM80 78h1v1h-1zM18 79h1v1h-1zM27 79h1v1h-1zM52 79h1v1h-1zM86 79h1v1h-1zM92 79h1v1h-1zM95 79h1v1h-1zM33 80h1v1h-1zM42 80h1v1h-1zM44 80h1v1h-1zM53 80h1v1h-1zM73 80h2v1h-2zM30 81h1v1h-1zM43 81h1v1h-1zM72 81h1v1h-1zM41 82h1v1h-1zM52 82h1v1h-1zM70 82h1v1h-1zM36 83h1v1h-1zM41 83h1v1h-1zM48 83h1v1h-1zM84 83h1v1h-1zM92 83h1v1h-1zM25 84h1v1h-1zM37 84h1v1h-1zM31 85h1v1h-1zM42 85h1v1h-1zM54 85h1v1h-1zM56 85h1v1h-1zM68 85h1v1h-1zM74 85h1v1h-1zM95 85h1v1h-1zM5 86h1v1h-1zM20 86h1v1h-1zM31 86h1v1h-1zM56 86h1v1h-1zM72 86h2v1h-2zM78 86h1v1h-1zM84 86h1v1h-1zM87 86h1v1h-1zM21 87h1v1h-1zM56 87h1v1h-1zM80 87h1v1h-1zM88 87h1v1h-1zM48 88h1v1h-1zM31 89h2v1h-2zM37 89h1v1h-1zM71 89h1v1h-1zM84 89h1v1h-1zM49 90h1v1h-1zM79 90h2v1h-2zM82 90h1v1h-1zM43 91h1v1h-1zM48 91h1v1h-1zM76 91h1v1h-1zM81 91h1v1h-1zM75 94h1v1h-1zM87 94h2v1h-2zM26 95h1v1h-1zM28 95h1v1h-1zM79 95h1v1h-1zM23 96h1v1h-1z" /></svg>