<svg xmlns="http://www.w3.org/2000/svg" viewBox="0 0 100 100" width="1em" height="1em"><path fill="#00005b" d="M14 1h72v1h-72zM11 2h78v1h-78zM9 3h82v1h-82zM8 4h84v1h-84zM7 5h86v1h-86zM5 6h90v1h-90zM4 7h91v1h-91zM3 8h93v1h-93zM3 9h94v1h-94zM2 10h96v1h-96zM2 11h96v1h-96zM1 12h97v1h-97zM1 13h98v1h-98zM1 14h98v1h-98zM0 15h99v1h-99zM0 16h99v1h-99zM1 17h98v1h-98zM0 18h100v1h-100zM0 19h100v1h-100zM0 20h100v1h-100zM0 21h100v1h-100zM0 22h100v1h-100zM0 23h100v1h-100zM0 24h100v1h-100zM0 25h100v1h-100zM0 26h26v1h-26zM39 26h61v1h-61zM0 27h26v1h-26zM39 27h61v1h-61zM0 28h26v1h-26zM40 28h60v1h-60zM0 29h26v1h-26zM40 29h60v1h-60zM0 30h25v1h-25zM40 30h60v1h-60zM0 31h25v1h-25zM41 31h59v1h-59zM0 32h25v1h-25zM41 32h59v1h-59zM0 33h24v1h-24zM41 33h59v1h-59zM0 34h24v1h-24zM42 34h58v1h-58zM0 35h23v1h-23zM42 35h58v1h-58zM0 36h23v1h-23zM32 36h1v1h-1zM42 36h23v1h-23zM77 36h23v1h-23zM0 37h23v1h-23zM32 37h1v1h-1zM43 37h20v1h-20zM79 37h21v1h-21zM0 38h22v1h-22zM32 38h1v1h-1zM43 38h19v1h-19zM81 38h19v1h-19zM0 39h22v1h-22zM31 39h2v1h-2zM43 39h17v1h-17zM82 39h18v1h-18zM0 40h22v1h-22zM31 40h3v1h-3zM44 40h15v1h-15zM83 40h17v1h-17zM0 41h21v1h-21zM31 41h3v1h-3zM44 41h15v1h-15zM84 41h16v1h-16zM0 42h21v1h-21zM30 42h4v1h-4zM45 42h13v1h-13zM84 42h16v1h-16zM0 43h21v1h-21zM30 43h5v1h-5zM45 43h12v1h-12zM85 43h15v1h-15zM0 44h20v1h-20zM30 44h5v1h-5zM45 44h12v1h-12zM69 44h4v1h-4zM85 44h15v1h-15zM0 45h20v1h-20zM29 45h6v1h-6zM46 45h10v1h-10zM67 45h8v1h-8zM85 45h15v1h-15zM0 46h20v1h-20zM29 46h7v1h-7zM46 46h10v1h-10zM66 46h10v1h-10zM86 46h14v1h-14zM0 47h19v1h-19zM29 47h7v1h-7zM46 47h10v1h-10zM66 47h10v1h-10zM86 47h14v1h-14zM0 48h19v1h-19zM29 48h7v1h-7zM47 48h8v1h-8zM65 48h11v1h-11zM86 48h14v1h-14zM0 49h19v1h-19zM28 49h9v1h-9zM47 49h8v1h-8zM86 49h14v1h-14zM0 50h18v1h-18zM28 50h9v1h-9zM47 50h8v1h-8zM86 50h14v1h-14zM0 51h18v1h-18zM48 51h7v1h-7zM86 51h14v1h-14zM0 52h18v1h-18zM48 52h7v1h-7zM86 52h14v1h-14zM0 53h17v1h-17zM49 53h6v1h-6zM86 53h14v1h-14zM0 54h17v1h-17zM49 54h6v1h-6zM86 54h14v1h-14zM0 55h16v1h-16zM49 55h6v1h-6zM86 55h14v1h-14zM0 56h16v1h-16zM50 56h5v1h-5zM66 56h34v1h-34zM0 57h16v1h-16zM50 57h5v1h-5zM66 57h34v1h-34zM0 58h15v1h-15zM50 58h5v1h-5zM66 58h34v1h-34zM0 59h15v1h-15zM51 59h5v1h-5zM67 59h33v1h-33zM0 60h15v1h-15zM25 60h15v1h-15zM51 60h5v1h-5zM68 60h32v1h-32zM0 61h14v1h-14zM25 61h15v1h-15zM51 61h5v1h-5zM70 61h10v1h-10zM83 61h17v1h-17zM0 62h14v1h-14zM24 62h17v1h-17zM52 62h5v1h-5zM83 62h17v1h-17zM0 63h14v1h-14zM24 63h17v1h-17zM52 63h5v1h-5zM83 63h17v1h-17zM0 64h13v1h-13zM24 64h17v1h-17zM52 64h6v1h-6zM83 64h17v1h-17zM0 65h13v1h-13zM23 65h19v1h-19zM53 65h5v1h-5zM83 65h17v1h-17zM0 66h13v1h-13zM23 66h19v1h-19zM53 66h6v1h-6zM83 66h17v1h-17zM0 67h12v1h-12zM23 67h19v1h-19zM54 67h6v1h-6zM83 67h17v1h-17zM0 68h12v1h-12zM22 68h21v1h-21zM54 68h8v1h-8zM83 68h17v1h-17zM0 69h12v1h-12zM22 69h21v1h-21zM54 69h9v1h-9zM83 69h17v1h-17zM0 70h66v1h-66zM79 70h21v1h-21zM0 71h100v1h-100zM0 72h100v1h-100zM0 73h100v1h-100zM0 74h100v1h-100zM0 75h100v1h-100zM0 76h100v1h-100zM0 77h100v1h-100zM0 78h100v1h-100zM0 79h100v1h-100zM0 80h100v1h-100zM1 81h98v1h-98zM0 82h99v1h-99zM1 83h99v1h-99zM0 84h100v1h-100zM1 85h98v1h-98zM1 86h97v1h-97zM2 87h97v1h-97zM2 88h96v1h-96zM3 89h94v1h-94zM4 90h92v1h-92zM4 91h92v1h-92zM5 92h90v1h-90zM5 93h89v1h-89zM7 94h86v1h-86zM8 95h83v1h-83zM10 96h79v1h-79zM13 97h75v1h-75zM18 98h64v1h-64z" /><path fill="#00005a" d="M7 4h1v1h-1zM92 4h1v1h-1zM6 5h1v1h-1zM93 5h1v1h-1zM95 7h1v1h-1zM96 8h1v1h-1zM98 12h1v1h-1zM99 15h1v1h-1zM99 16h1v1h-1zM0 17h1v1h-1zM99 17h1v1h-1zM0 81h1v1h-1zM99 81h1v1h-1zM99 82h1v1h-1zM0 83h1v1h-1zM98 86h1v1h-1zM1 87h1v1h-1zM2 89h1v1h-1zM97 89h1v1h-1zM3 90h1v1h-1zM96 90h1v1h-1zM4 92h1v1h-1zM95 92h1v1h-1zM94 93h1v1h-1zM91 95h1v1h-1zM89 96h1v1h-1zM12 97h1v1h-1z" /><path fill="#4141a1" d="M26 26h1v1h-1zM46 49h1v1h-1z" /><path fill="#8f8ff4" d="M27 26h10v1h-10zM28 51h9v1h-9z" /><path fill="#8c8cf1" d="M37 26h1v1h-1zM81 40h1v1h-1zM43 42h1v1h-1zM64 48h1v1h-1zM48 56h1v1h-1zM64 56h1v1h-1z" /><path fill="#1b1b78" d="M38 26h1v1h-1z" /><path fill="#5b5bbc" d="M26 27h1v1h-1zM57 44h1v1h-1z" /><path fill="#9999ff" d="M27 27h11v1h-11zM27 28h11v1h-11zM27 29h12v1h-12zM26 30h13v1h-13zM26 31h13v1h-13zM26 32h14v1h-14zM25 33h7v1h-7zM33 33h7v1h-7zM25 34h6v1h-6zM33 34h7v1h-7zM25 35h6v1h-6zM33 35h8v1h-8zM24 36h7v1h-7zM34 36h7v1h-7zM24 37h7v1h-7zM34 37h8v1h-8zM66 37h10v1h-10zM24 38h6v1h-6zM34 38h8v1h-8zM64 38h15v1h-15zM23 39h7v1h-7zM35 39h7v1h-7zM62 39h18v1h-18zM23 40h7v1h-7zM35 40h8v1h-8zM61 40h20v1h-20zM23 41h6v1h-6zM35 41h8v1h-8zM60 41h22v1h-22zM22 42h7v1h-7zM36 42h7v1h-7zM59 42h24v1h-24zM22 43h7v1h-7zM36 43h8v1h-8zM59 43h9v1h-9zM74 43h9v1h-9zM22 44h7v1h-7zM36 44h8v1h-8zM58 44h8v1h-8zM76 44h8v1h-8zM21 45h7v1h-7zM37 45h7v1h-7zM58 45h8v1h-8zM76 45h8v1h-8zM21 46h7v1h-7zM37 46h8v1h-8zM57 46h8v1h-8zM77 46h7v1h-7zM21 47h7v1h-7zM37 47h8v1h-8zM57 47h8v1h-8zM77 47h8v1h-8zM20 48h7v1h-7zM37 48h8v1h-8zM57 48h7v1h-7zM77 48h8v1h-8zM20 49h7v1h-7zM38 49h8v1h-8zM56 49h8v1h-8zM77 49h8v1h-8zM20 50h7v1h-7zM38 50h8v1h-8zM56 50h29v1h-29zM19 51h8v1h-8zM38 51h9v1h-9zM56 51h29v1h-29zM19 52h28v1h-28zM56 52h29v1h-29zM18 53h29v1h-29zM56 53h29v1h-29zM18 54h30v1h-30zM56 54h29v1h-29zM18 55h30v1h-30zM56 55h8v1h-8zM17 56h31v1h-31zM56 56h8v1h-8zM17 57h32v1h-32zM56 57h9v1h-9zM17 58h32v1h-32zM56 58h9v1h-9zM16 59h8v1h-8zM41 59h8v1h-8zM57 59h8v1h-8zM16 60h8v1h-8zM41 60h9v1h-9zM57 60h9v1h-9zM16 61h7v1h-7zM42 61h8v1h-8zM57 61h10v1h-10zM15 62h8v1h-8zM42 62h8v1h-8zM58 62h11v1h-11zM81 62h1v1h-1zM15 63h8v1h-8zM42 63h9v1h-9zM59 63h23v1h-23zM15 64h7v1h-7zM43 64h8v1h-8zM59 64h23v1h-23zM14 65h8v1h-8zM43 65h9v1h-9zM60 65h22v1h-22zM14 66h8v1h-8zM43 66h9v1h-9zM61 66h21v1h-21zM14 67h7v1h-7zM44 67h8v1h-8zM63 67h19v1h-19zM13 68h8v1h-8zM44 68h9v1h-9zM64 68h18v1h-18zM67 69h12v1h-12z" /><path fill="#5555b6" d="M38 27h1v1h-1zM24 34h1v1h-1z" /><path fill="#6868cb" d="M26 28h1v1h-1z" /><path fill="#8a8aef" d="M38 28h1v1h-1zM80 39h1v1h-1zM64 55h1v1h-1z" /><path fill="#02025d" d="M39 28h1v1h-1zM15 58h1v1h-1zM66 70h1v1h-1z" /><path fill="#8080e5" d="M26 29h1v1h-1z" /><path fill="#292987" d="M39 29h1v1h-1zM33 38h1v1h-1zM15 59h1v1h-1zM77 70h1v1h-1z" /><path fill="#181875" d="M25 30h1v1h-1z" /><path fill="#6060c2" d="M39 30h1v1h-1zM59 41h1v1h-1z" /><path fill="#4d4dae" d="M25 31h1v1h-1zM37 50h1v1h-1zM52 66h1v1h-1zM69 70h1v1h-1z" /><path fill="#9191f7" d="M39 31h1v1h-1zM63 38h1v1h-1z" /><path fill="#060661" d="M40 31h1v1h-1zM65 36h1v1h-1zM21 41h1v1h-1zM41 64h1v1h-1z" /><path fill="#8282e7" d="M25 32h1v1h-1z" /><path fill="#343493" d="M40 32h1v1h-1zM21 42h1v1h-1zM66 45h1v1h-1z" /><path fill="#1f1f7c" d="M24 33h1v1h-1zM73 62h2v1h-2z" /><path fill="#9191f6" d="M32 33h1v1h-1zM34 39h1v1h-1zM66 69h1v1h-1z" /><path fill="#6b6bce" d="M40 33h1v1h-1z" /><path fill="#9898fe" d="M31 34h1v1h-1zM76 37h1v1h-1zM36 45h1v1h-1zM19 50h1v1h-1zM62 67h1v1h-1z" /><path fill="#4c4cac" d="M32 34h1v1h-1z" /><path fill="#9797fc" d="M40 34h1v1h-1zM75 44h1v1h-1zM84 46h1v1h-1zM45 48h1v1h-1z" /><path fill="#0d0d69" d="M41 34h1v1h-1zM63 37h1v1h-1zM46 48h1v1h-1z" /><path fill="#01015c" d="M23 35h1v1h-1zM83 41h1v1h-1zM68 44h1v1h-1zM73 44h1v1h-1zM48 53h1v1h-1zM16 55h1v1h-1zM65 56h1v1h-1zM53 67h1v1h-1zM63 69h1v1h-1zM82 69h1v1h-1z" /><path fill="#8888ed" d="M24 35h1v1h-1z" /><path fill="#7d7de1" d="M31 35h1v1h-1z" /><path fill="#171774" d="M32 35h1v1h-1zM52 65h1v1h-1z" /><path fill="#40409f" d="M41 35h1v1h-1z" /><path fill="#262684" d="M23 36h1v1h-1zM28 47h1v1h-1zM55 49h1v1h-1z" /><path fill="#5757b8" d="M31 36h1v1h-1zM61 67h1v1h-1z" /><path fill="#8585e9" d="M33 36h1v1h-1zM71 36h1v1h-1z" /><path fill="#7777da" d="M41 36h1v1h-1zM36 46h1v1h-1z" /><path fill="#2f2f8d" d="M66 36h1v1h-1z" /><path fill="#5252b2" d="M67 36h1v1h-1zM74 49h2v1h-2z" /><path fill="#6a6acc" d="M68 36h1v1h-1zM30 39h1v1h-1zM21 43h1v1h-1z" /><path fill="#7979dc" d="M69 36h1v1h-1z" /><path fill="#8383e7" d="M70 36h1v1h-1zM72 36h1v1h-1z" /><path fill="#7676d9" d="M73 36h1v1h-1zM82 41h1v1h-1zM84 45h1v1h-1zM56 47h1v1h-1z" /><path fill="#5f5fc1" d="M74 36h1v1h-1zM55 52h1v1h-1zM65 58h1v1h-1zM15 60h1v1h-1zM82 68h1v1h-1zM73 70h1v1h-1z" /><path fill="#3d3d9d" d="M75 36h1v1h-1zM76 70h1v1h-1z" /><path fill="#131370" d="M76 36h1v1h-1z" /><path fill="#5c5cbd" d="M23 37h1v1h-1zM65 55h13v1h-13zM45 69h8v1h-8zM70 70h1v1h-1zM74 70h1v1h-1z" /><path fill="#2b2b89" d="M31 37h1v1h-1zM44 43h1v1h-1zM64 69h1v1h-1z" /><path fill="#5858b9" d="M33 37h1v1h-1zM48 55h1v1h-1zM16 57h1v1h-1z" /><path fill="#161673" d="M42 37h1v1h-1zM36 48h1v1h-1zM47 51h1v1h-1z" /><path fill="#5656b8" d="M64 37h1v1h-1zM85 50h1v1h-1z" /><path fill="#9090f5" d="M65 37h1v1h-1zM58 43h1v1h-1zM23 61h1v1h-1zM43 67h1v1h-1z" /><path fill="#7171d5" d="M77 37h1v1h-1z" /><path fill="#2c2c8a" d="M78 37h1v1h-1zM49 57h1v1h-1zM24 60h1v1h-1zM81 61h1v1h-1zM72 62h1v1h-1z" /><path fill="#03035e" d="M22 38h1v1h-1zM28 48h1v1h-1zM49 56h1v1h-1z" /><path fill="#8e8ef3" d="M23 38h1v1h-1zM27 48h1v1h-1zM66 60h1v1h-1z" /><path fill="#9494f9" d="M30 38h1v1h-1zM41 61h1v1h-1zM80 62h1v1h-1zM14 64h1v1h-1z" /><path fill="#050561" d="M31 38h1v1h-1zM55 48h1v1h-1zM59 66h1v1h-1z" /><path fill="#4b4bab" d="M42 38h1v1h-1z" /><path fill="#3d3d9c" d="M62 38h1v1h-1z" /><path fill="#6e6ed1" d="M79 38h1v1h-1zM60 40h1v1h-1zM35 43h1v1h-1zM50 61h1v1h-1zM60 66h1v1h-1zM21 68h1v1h-1z" /><path fill="#10106c" d="M80 38h1v1h-1z" /><path fill="#2d2d8b" d="M22 39h1v1h-1z" /><path fill="#04045f" d="M33 39h1v1h-1zM60 39h1v1h-1zM59 40h1v1h-1zM14 61h1v1h-1zM24 61h1v1h-1zM80 61h1v1h-1zM42 67h1v1h-1z" /><path fill="#8282e6" d="M42 39h1v1h-1z" /><path fill="#6262c4" d="M61 39h1v1h-1zM22 40h1v1h-1zM44 44h1v1h-1zM49 58h1v1h-1zM23 62h1v1h-1z" /><path fill="#1d1d7b" d="M81 39h1v1h-1zM57 63h1v1h-1z" /><path fill="#3a3a99" d="M30 40h1v1h-1zM85 54h1v1h-1z" /><path fill="#6565c8" d="M34 40h1v1h-1zM65 46h1v1h-1z" /><path fill="#20207d" d="M43 40h1v1h-1zM76 48h1v1h-1z" /><path fill="#161672" d="M82 40h1v1h-1z" /><path fill="#9292f7" d="M22 41h1v1h-1zM44 45h1v1h-1zM42 64h1v1h-1z" /><path fill="#9797fd" d="M29 41h1v1h-1zM20 47h1v1h-1zM50 62h1v1h-1zM69 62h1v1h-1zM58 63h1v1h-1z" /><path fill="#0c0c68" d="M30 41h1v1h-1zM69 61h1v1h-1zM12 67h1v1h-1z" /><path fill="#353594" d="M34 41h1v1h-1zM75 45h1v1h-1z" /><path fill="#5656b7" d="M43 41h1v1h-1z" /><path fill="#7373d6" d="M29 42h1v1h-1zM76 49h1v1h-1zM82 62h1v1h-1zM82 63h1v1h-1zM82 64h1v1h-1zM82 65h1v1h-1zM82 66h1v1h-1zM82 67h1v1h-1z" /><path fill="#090965" d="M34 42h1v1h-1z" /><path fill="#9595fb" d="M35 42h1v1h-1zM66 44h1v1h-1z" /><path fill="#02025e" d="M44 42h1v1h-1zM58 65h1v1h-1zM60 67h1v1h-1z" /><path fill="#3b3b9b" d="M58 42h1v1h-1zM12 69h1v1h-1z" /><path fill="#4141a0" d="M83 42h1v1h-1zM67 44h1v1h-1zM85 48h1v1h-1z" /><path fill="#4444a4" d="M29 43h1v1h-1zM77 62h1v1h-1z" /><path fill="#0e0e6a" d="M57 43h1v1h-1zM19 47h1v1h-1zM85 55h1v1h-1zM51 62h1v1h-1z" /><path fill="#8383e8" d="M68 43h1v1h-1zM47 53h1v1h-1z" /><path fill="#4f4fb0" d="M69 43h1v1h-1zM85 52h1v1h-1z" /><path fill="#3b3b9a" d="M70 43h1v1h-1zM20 45h1v1h-1z" /><path fill="#343492" d="M71 43h1v1h-1zM55 57h1v1h-1zM41 63h1v1h-1z" /><path fill="#4848a8" d="M72 43h1v1h-1z" /><path fill="#7f7fe3" d="M73 43h1v1h-1zM28 45h1v1h-1zM37 49h1v1h-1zM18 52h1v1h-1z" /><path fill="#8d8df2" d="M83 43h1v1h-1z" /><path fill="#050560" d="M84 43h1v1h-1z" /><path fill="#0a0a65" d="M20 44h1v1h-1z" /><path fill="#9595fa" d="M21 44h1v1h-1zM57 45h1v1h-1zM56 48h1v1h-1z" /><path fill="#151572" d="M29 44h1v1h-1z" /><path fill="#3e3e9d" d="M35 44h1v1h-1zM82 61h1v1h-1z" /><path fill="#3c3c9b" d="M74 44h1v1h-1z" /><path fill="#393998" d="M84 44h1v1h-1zM68 70h1v1h-1z" /><path fill="#0f0f6b" d="M35 45h1v1h-1zM56 45h1v1h-1zM78 70h1v1h-1z" /><path fill="#070762" d="M45 45h1v1h-1zM85 46h1v1h-1zM23 64h1v1h-1z" /><path fill="#7171d4" d="M20 46h1v1h-1z" /><path fill="#5252b3" d="M28 46h1v1h-1zM75 70h1v1h-1z" /><path fill="#363695" d="M45 46h1v1h-1z" /><path fill="#4646a6" d="M56 46h1v1h-1zM55 50h1v1h-1z" /><path fill="#6c6ccf" d="M76 46h1v1h-1zM24 59h1v1h-1zM59 65h1v1h-1z" /><path fill="#4747a7" d="M36 47h1v1h-1z" /><path fill="#6d6dcf" d="M45 47h1v1h-1z" /><path fill="#21217e" d="M65 47h1v1h-1zM48 54h1v1h-1z" /><path fill="#383897" d="M76 47h1v1h-1zM40 60h1v1h-1zM13 65h1v1h-1z" /><path fill="#282886" d="M85 47h1v1h-1zM27 50h1v1h-1z" /><path fill="#4242a2" d="M19 48h1v1h-1z" /><path fill="#7878dc" d="M19 49h1v1h-1zM46 50h1v1h-1z" /><path fill="#5c5cbe" d="M27 49h1v1h-1z" /><path fill="#8585ea" d="M64 49h1v1h-1zM17 55h1v1h-1z" /><path fill="#4747a8" d="M65 49h8v1h-8zM71 62h1v1h-1z" /><path fill="#4d4dad" d="M73 49h1v1h-1z" /><path fill="#4c4cad" d="M85 49h1v1h-1zM47 52h1v1h-1z" /><path fill="#141471" d="M18 50h1v1h-1z" /><path fill="#4949a9" d="M18 51h1v1h-1zM85 53h1v1h-1zM68 61h1v1h-1z" /><path fill="#8f8ff5" d="M27 51h1v1h-1zM15 61h1v1h-1z" /><path fill="#9292f8" d="M37 51h1v1h-1zM49 59h1v1h-1zM67 61h1v1h-1z" /><path fill="#5353b4" d="M55 51h1v1h-1zM84 55h1v1h-1z" /><path fill="#5454b5" d="M85 51h1v1h-1z" /><path fill="#1c1c79" d="M17 53h1v1h-1zM65 57h1v1h-1zM53 69h1v1h-1z" /><path fill="#6969cc" d="M55 53h1v1h-1z" /><path fill="#5151b2" d="M17 54h1v1h-1z" /><path fill="#6464c6" d="M55 54h1v1h-1zM42 65h1v1h-1zM65 69h1v1h-1z" /><path fill="#5959ba" d="M55 55h1v1h-1z" /><path fill="#5e5ebf" d="M78 55h1v1h-1z" /><path fill="#6666c8" d="M79 55h1v1h-1zM82 55h1v1h-1zM14 63h1v1h-1zM72 70h1v1h-1z" /><path fill="#7070d3" d="M80 55h2v1h-2zM13 69h7v1h-7z" /><path fill="#5e5ec0" d="M83 55h1v1h-1z" /><path fill="#222280" d="M16 56h1v1h-1zM66 59h1v1h-1zM53 68h1v1h-1z" /><path fill="#4e4eaf" d="M55 56h1v1h-1z" /><path fill="#8b8bf0" d="M16 58h1v1h-1z" /><path fill="#12126e" d="M55 58h1v1h-1z" /><path fill="#333392" d="M25 59h15v1h-15z" /><path fill="#7474d7" d="M40 59h1v1h-1z" /><path fill="#070763" d="M50 59h1v1h-1z" /><path fill="#8989ee" d="M56 59h1v1h-1z" /><path fill="#9696fc" d="M65 59h1v1h-1zM13 67h1v1h-1zM21 67h1v1h-1z" /><path fill="#373796" d="M50 60h1v1h-1zM22 66h1v1h-1z" /><path fill="#5a5abb" d="M56 60h1v1h-1zM44 69h1v1h-1z" /><path fill="#1a1a77" d="M67 60h1v1h-1z" /><path fill="#080863" d="M40 61h1v1h-1zM13 64h1v1h-1z" /><path fill="#20207e" d="M56 61h1v1h-1z" /><path fill="#31318f" d="M14 62h1v1h-1z" /><path fill="#6868ca" d="M41 62h1v1h-1zM22 65h1v1h-1z" /><path fill="#7272d5" d="M57 62h1v1h-1z" /><path fill="#7474d8" d="M70 62h1v1h-1z" /><path fill="#252582" d="M75 62h1v1h-1zM81 69h1v1h-1z" /><path fill="#2e2e8d" d="M76 62h1v1h-1z" /><path fill="#5b5bbd" d="M78 62h1v1h-1zM80 69h1v1h-1z" /><path fill="#7777db" d="M79 62h1v1h-1z" /><path fill="#313190" d="M23 63h1v1h-1z" /><path fill="#4343a2" d="M51 63h1v1h-1z" /><path fill="#9393f9" d="M22 64h1v1h-1z" /><path fill="#7979dd" d="M51 64h1v1h-1z" /><path fill="#4f4faf" d="M58 64h1v1h-1z" /><path fill="#6d6dd0" d="M13 66h1v1h-1z" /><path fill="#30308e" d="M42 66h1v1h-1z" /><path fill="#0a0a66" d="M22 67h1v1h-1z" /><path fill="#8484e8" d="M52 67h1v1h-1zM79 69h1v1h-1z" /><path fill="#3e3e9e" d="M12 68h1v1h-1z" /><path fill="#6161c3" d="M43 68h1v1h-1zM71 70h1v1h-1z" /><path fill="#272785" d="M62 68h1v1h-1zM21 69h1v1h-1z" /><path fill="#7b7bdf" d="M63 68h1v1h-1z" /><path fill="#6f6fd2" d="M20 69h1v1h-1z" /><path fill="#191975" d="M43 69h1v1h-1z" /><path fill="#1e1e7b" d="M67 70h1v1h-1z" /></svg>