<svg xmlns="http://www.w3.org/2000/svg" viewBox="0 0 100 100" width="1em" height="1em"><path fill="#891a26" d="M7 0h1v1h-1zM99 9h1v1h-1zM99 90h1v1h-1zM99 91h1v1h-1zM0 92h1v1h-1zM9 99h1v1h-1zM90 99h1v1h-1z" /><path fill="#881b25" d="M8 0h1v1h-1zM94 1h1v1h-1zM3 2h1v1h-1zM98 5h1v1h-1zM0 8h1v1h-1zM99 8h1v1h-1zM5 98h1v1h-1zM8 99h1v1h-1zM91 99h1v1h-1z" /><path fill="#881a26" d="M9 0h1v1h-1zM90 0h1v1h-1zM97 3h1v1h-1zM0 7h1v1h-1zM0 9h1v1h-1zM0 90h1v1h-1zM97 96h1v1h-1z" /><path fill="#891b26" d="M10 0h80v1h-80zM6 1h88v1h-88zM4 2h92v1h-92zM2 3h95v1h-95zM2 4h96v1h-96zM2 5h96v1h-96zM1 6h98v1h-98zM1 7h42v1h-42zM52 7h2v1h-2zM91 7h8v1h-8zM1 8h42v1h-42zM53 8h2v1h-2zM92 8h7v1h-7zM1 9h41v1h-41zM53 9h3v1h-3zM93 9h6v1h-6zM0 10h41v1h-41zM54 10h2v1h-2zM93 10h7v1h-7zM0 11h41v1h-41zM54 11h3v1h-3zM93 11h7v1h-7zM0 12h40v1h-40zM55 12h2v1h-2zM93 12h7v1h-7zM0 13h40v1h-40zM55 13h3v1h-3zM93 13h7v1h-7zM0 14h40v1h-40zM56 14h2v1h-2zM93 14h7v1h-7zM0 15h41v1h-41zM57 15h2v1h-2zM93 15h7v1h-7zM0 16h41v1h-41zM57 16h3v1h-3zM93 16h7v1h-7zM0 17h37v1h-37zM39 17h3v1h-3zM58 17h2v1h-2zM93 17h7v1h-7zM0 18h37v1h-37zM40 18h2v1h-2zM58 18h3v1h-3zM93 18h7v1h-7zM0 19h36v1h-36zM41 19h2v1h-2zM59 19h2v1h-2zM93 19h7v1h-7zM0 20h36v1h-36zM41 20h3v1h-3zM60 20h2v1h-2zM93 20h7v1h-7zM0 21h35v1h-35zM42 21h2v1h-2zM60 21h2v1h-2zM93 21h7v1h-7zM0 22h34v1h-34zM42 22h3v1h-3zM61 22h2v1h-2zM93 22h7v1h-7zM0 23h34v1h-34zM43 23h2v1h-2zM61 23h3v1h-3zM93 23h7v1h-7zM0 24h33v1h-33zM43 24h3v1h-3zM62 24h2v1h-2zM93 24h7v1h-7zM0 25h33v1h-33zM44 25h2v1h-2zM62 25h3v1h-3zM93 25h7v1h-7zM0 26h32v1h-32zM45 26h2v1h-2zM63 26h2v1h-2zM93 26h7v1h-7zM0 27h32v1h-32zM45 27h3v1h-3zM64 27h2v1h-2zM93 27h7v1h-7zM0 28h31v1h-31zM46 28h2v1h-2zM64 28h3v1h-3zM93 28h7v1h-7zM0 29h31v1h-31zM46 29h3v1h-3zM65 29h2v1h-2zM93 29h7v1h-7zM0 30h31v1h-31zM47 30h2v1h-2zM65 30h3v1h-3zM93 30h7v1h-7zM0 31h32v1h-32zM48 31h2v1h-2zM66 31h2v1h-2zM93 31h7v1h-7zM0 32h29v1h-29zM30 32h2v1h-2zM48 32h2v1h-2zM66 32h3v1h-3zM93 32h7v1h-7zM0 33h28v1h-28zM30 33h3v1h-3zM49 33h2v1h-2zM67 33h2v1h-2zM93 33h7v1h-7zM0 34h28v1h-28zM31 34h3v1h-3zM49 34h3v1h-3zM68 34h2v1h-2zM93 34h7v1h-7zM0 35h27v1h-27zM31 35h3v1h-3zM50 35h2v1h-2zM68 35h3v1h-3zM93 35h7v1h-7zM0 36h26v1h-26zM32 36h3v1h-3zM50 36h3v1h-3zM69 36h2v1h-2zM93 36h7v1h-7zM0 37h26v1h-26zM33 37h2v1h-2zM51 37h2v1h-2zM69 37h3v1h-3zM93 37h7v1h-7zM0 38h25v1h-25zM33 38h3v1h-3zM52 38h2v1h-2zM70 38h2v1h-2zM93 38h7v1h-7zM0 39h25v1h-25zM34 39h3v1h-3zM52 39h3v1h-3zM70 39h3v1h-3zM93 39h7v1h-7zM0 40h24v1h-24zM34 40h3v1h-3zM53 40h2v1h-2zM71 40h2v1h-2zM93 40h7v1h-7zM0 41h23v1h-23zM35 41h3v1h-3zM53 41h3v1h-3zM72 41h2v1h-2zM93 41h7v1h-7zM0 42h23v1h-23zM36 42h2v1h-2zM54 42h2v1h-2zM72 42h3v1h-3zM93 42h7v1h-7zM0 43h23v1h-23zM36 43h3v1h-3zM54 43h3v1h-3zM73 43h2v1h-2zM93 43h7v1h-7zM0 44h23v1h-23zM37 44h2v1h-2zM55 44h2v1h-2zM73 44h3v1h-3zM93 44h7v1h-7zM0 45h23v1h-23zM37 45h3v1h-3zM56 45h2v1h-2zM74 45h2v1h-2zM93 45h7v1h-7zM0 46h23v1h-23zM38 46h3v1h-3zM56 46h3v1h-3zM75 46h2v1h-2zM93 46h7v1h-7zM0 47h23v1h-23zM38 47h3v1h-3zM57 47h2v1h-2zM75 47h2v1h-2zM93 47h7v1h-7zM0 48h19v1h-19zM21 48h2v1h-2zM39 48h3v1h-3zM57 48h3v1h-3zM76 48h2v1h-2zM93 48h7v1h-7zM0 49h19v1h-19zM21 49h3v1h-3zM40 49h2v1h-2zM58 49h2v1h-2zM76 49h3v1h-3zM93 49h7v1h-7zM0 50h18v1h-18zM22 50h2v1h-2zM40 50h3v1h-3zM58 50h3v1h-3zM77 50h2v1h-2zM93 50h7v1h-7zM0 51h18v1h-18zM22 51h3v1h-3zM41 51h2v1h-2zM59 51h2v1h-2zM77 51h3v1h-3zM93 51h7v1h-7zM0 52h17v1h-17zM23 52h2v1h-2zM41 52h3v1h-3zM60 52h2v1h-2zM78 52h2v1h-2zM93 52h7v1h-7zM0 53h17v1h-17zM24 53h2v1h-2zM42 53h2v1h-2zM60 53h3v1h-3zM79 53h2v1h-2zM93 53h7v1h-7zM0 54h16v1h-16zM24 54h2v1h-2zM42 54h3v1h-3zM61 54h2v1h-2zM79 54h3v1h-3zM93 54h7v1h-7zM0 55h15v1h-15zM25 55h2v1h-2zM43 55h3v1h-3zM61 55h3v1h-3zM80 55h2v1h-2zM93 55h7v1h-7zM0 56h15v1h-15zM25 56h3v1h-3zM44 56h2v1h-2zM62 56h2v1h-2zM80 56h3v1h-3zM93 56h7v1h-7zM0 57h14v1h-14zM26 57h2v1h-2zM44 57h3v1h-3zM63 57h2v1h-2zM81 57h2v1h-2zM93 57h7v1h-7zM0 58h14v1h-14zM26 58h3v1h-3zM45 58h2v1h-2zM63 58h2v1h-2zM81 58h3v1h-3zM93 58h7v1h-7zM0 59h13v1h-13zM27 59h2v1h-2zM45 59h3v1h-3zM64 59h2v1h-2zM82 59h2v1h-2zM93 59h7v1h-7zM0 60h13v1h-13zM28 60h2v1h-2zM46 60h2v1h-2zM64 60h3v1h-3zM83 60h2v1h-2zM93 60h7v1h-7zM0 61h12v1h-12zM28 61h2v1h-2zM46 61h3v1h-3zM65 61h2v1h-2zM83 61h3v1h-3zM93 61h7v1h-7zM0 62h11v1h-11zM29 62h2v1h-2zM47 62h3v1h-3zM65 62h3v1h-3zM84 62h2v1h-2zM93 62h7v1h-7zM0 63h11v1h-11zM29 63h3v1h-3zM48 63h2v1h-2zM66 63h2v1h-2zM84 63h3v1h-3zM93 63h7v1h-7zM0 64h10v1h-10zM30 64h2v1h-2zM48 64h3v1h-3zM67 64h2v1h-2zM85 64h2v1h-2zM93 64h7v1h-7zM0 65h10v1h-10zM30 65h3v1h-3zM49 65h2v1h-2zM67 65h3v1h-3zM86 65h2v1h-2zM93 65h7v1h-7zM0 66h9v1h-9zM31 66h2v1h-2zM49 66h3v1h-3zM68 66h2v1h-2zM86 66h2v1h-2zM93 66h7v1h-7zM0 67h8v1h-8zM32 67h2v1h-2zM50 67h2v1h-2zM68 67h3v1h-3zM87 67h2v1h-2zM93 67h7v1h-7zM0 68h8v1h-8zM32 68h3v1h-3zM51 68h2v1h-2zM69 68h2v1h-2zM87 68h3v1h-3zM93 68h7v1h-7zM0 69h7v1h-7zM33 69h2v1h-2zM51 69h3v1h-3zM69 69h3v1h-3zM88 69h2v1h-2zM93 69h7v1h-7zM0 70h7v1h-7zM33 70h3v1h-3zM52 70h2v1h-2zM70 70h2v1h-2zM88 70h3v1h-3zM93 70h7v1h-7zM0 71h7v1h-7zM34 71h2v1h-2zM52 71h3v1h-3zM71 71h2v1h-2zM89 71h2v1h-2zM93 71h7v1h-7zM0 72h7v1h-7zM34 72h3v1h-3zM53 72h2v1h-2zM71 72h3v1h-3zM90 72h10v1h-10zM0 73h7v1h-7zM35 73h2v1h-2zM53 73h3v1h-3zM72 73h2v1h-2zM90 73h10v1h-10zM0 74h7v1h-7zM36 74h2v1h-2zM54 74h2v1h-2zM72 74h3v1h-3zM91 74h9v1h-9zM0 75h7v1h-7zM36 75h3v1h-3zM55 75h2v1h-2zM73 75h2v1h-2zM91 75h9v1h-9zM0 76h7v1h-7zM37 76h2v1h-2zM55 76h3v1h-3zM74 76h2v1h-2zM92 76h8v1h-8zM0 77h7v1h-7zM37 77h3v1h-3zM56 77h2v1h-2zM74 77h2v1h-2zM92 77h8v1h-8zM0 78h7v1h-7zM38 78h2v1h-2zM56 78h3v1h-3zM75 78h2v1h-2zM93 78h7v1h-7zM0 79h7v1h-7zM39 79h2v1h-2zM57 79h2v1h-2zM75 79h3v1h-3zM93 79h7v1h-7zM0 80h7v1h-7zM39 80h2v1h-2zM57 80h3v1h-3zM76 80h2v1h-2zM93 80h7v1h-7zM0 81h7v1h-7zM40 81h2v1h-2zM58 81h2v1h-2zM76 81h3v1h-3zM93 81h7v1h-7zM0 82h7v1h-7zM40 82h3v1h-3zM59 82h2v1h-2zM77 82h2v1h-2zM93 82h7v1h-7zM0 83h7v1h-7zM41 83h2v1h-2zM59 83h3v1h-3zM78 83h2v1h-2zM93 83h7v1h-7zM0 84h7v1h-7zM41 84h3v1h-3zM60 84h2v1h-2zM78 84h2v1h-2zM93 84h7v1h-7zM0 85h7v1h-7zM42 85h2v1h-2zM60 85h3v1h-3zM79 85h2v1h-2zM93 85h7v1h-7zM0 86h7v1h-7zM43 86h2v1h-2zM61 86h2v1h-2zM79 86h3v1h-3zM93 86h7v1h-7zM0 87h7v1h-7zM43 87h3v1h-3zM62 87h2v1h-2zM80 87h2v1h-2zM93 87h7v1h-7zM0 88h7v1h-7zM44 88h2v1h-2zM62 88h2v1h-2zM80 88h3v1h-3zM93 88h7v1h-7zM0 89h7v1h-7zM44 89h3v1h-3zM63 89h2v1h-2zM81 89h2v1h-2zM93 89h7v1h-7zM1 90h6v1h-6zM45 90h2v1h-2zM63 90h3v1h-3zM82 90h2v1h-2zM92 90h7v1h-7zM1 91h7v1h-7zM45 91h3v1h-3zM64 91h2v1h-2zM82 91h3v1h-3zM92 91h7v1h-7zM1 92h8v1h-8zM46 92h2v1h-2zM64 92h3v1h-3zM82 92h3v1h-3zM90 92h10v1h-10zM1 93h98v1h-98zM2 94h97v1h-97zM2 95h96v1h-96zM3 96h94v1h-94zM4 97h93v1h-93zM6 98h89v1h-89zM10 99h80v1h-80zM92 99h1v1h-1z" /><path fill="#891b25" d="M91 0h1v1h-1zM5 1h1v1h-1zM96 2h1v1h-1zM1 5h1v1h-1zM0 91h1v1h-1zM3 97h1v1h-1z" /><path fill="#881b26" d="M92 0h1v1h-1zM99 7h1v1h-1zM1 94h1v1h-1zM2 96h1v1h-1zM7 99h1v1h-1z" /><path fill="#9c3230" d="M43 7h1v1h-1z" /><path fill="#fda365" d="M44 7h1v1h-1z" /><path fill="#ffa667" d="M45 7h3v1h-3zM46 8h3v1h-3zM46 9h4v1h-4zM47 10h4v1h-4zM48 11h4v1h-4zM49 12h4v1h-4zM50 13h4v1h-4zM91 13h1v1h-1zM51 14h4v1h-4zM89 14h3v1h-3zM52 15h3v1h-3zM88 15h4v1h-4zM53 16h3v1h-3zM86 16h5v1h-5zM55 17h1v1h-1zM84 17h6v1h-6zM56 18h1v1h-1zM62 18h1v1h-1zM82 18h6v1h-6zM63 19h3v1h-3zM78 19h9v1h-9zM63 20h21v1h-21zM64 21h17v1h-17zM67 22h10v1h-10z" /><path fill="#ffa668" d="M48 7h1v1h-1zM49 8h1v1h-1zM50 9h1v1h-1zM51 10h1v1h-1zM52 11h1v1h-1zM91 11h1v1h-1zM90 12h2v1h-2zM89 13h2v1h-2zM88 14h1v1h-1zM86 15h2v1h-2zM84 16h2v1h-2zM62 17h1v1h-1zM82 17h2v1h-2zM63 18h3v1h-3zM78 18h4v1h-4zM66 19h12v1h-12z" /><path fill="#ffa768" d="M49 7h2v1h-2zM50 8h1v1h-1zM51 9h1v1h-1zM90 10h2v1h-2zM88 11h3v1h-3zM87 12h3v1h-3zM85 13h4v1h-4zM60 14h1v1h-1zM84 14h4v1h-4zM60 15h3v1h-3zM81 15h5v1h-5zM61 16h6v1h-6zM78 16h6v1h-6zM63 17h19v1h-19zM66 18h12v1h-12z" /><path fill="#a84037" d="M51 7h1v1h-1zM59 15h1v1h-1z" /><path fill="#8c1f28" d="M54 7h1v1h-1zM56 15h1v1h-1z" /><path fill="#ef9660" d="M55 7h1v1h-1z" /><path fill="#ffa86a" d="M56 7h4v1h-4zM85 7h3v1h-3zM57 8h4v1h-4zM83 8h4v1h-4zM59 9h4v1h-4zM81 9h5v1h-5zM60 10h6v1h-6zM79 10h5v1h-5zM62 11h8v1h-8zM74 11h9v1h-9zM64 12h16v1h-16zM68 13h9v1h-9z" /><path fill="#ffa96a" d="M60 7h1v1h-1zM83 7h2v1h-2zM61 8h2v1h-2zM82 8h1v1h-1zM63 9h2v1h-2zM80 9h1v1h-1zM66 10h2v1h-2zM76 10h3v1h-3zM70 11h4v1h-4z" /><path fill="#ffa96b" d="M61 7h8v1h-8zM76 7h7v1h-7zM63 8h19v1h-19zM65 9h15v1h-15zM68 10h8v1h-8z" /><path fill="#ffaa6c" d="M69 7h7v1h-7z" /><path fill="#fda568" d="M88 7h1v1h-1z" /><path fill="#eb915d" d="M89 7h1v1h-1z" /><path fill="#b04a3c" d="M90 7h1v1h-1z" /><path fill="#de7f55" d="M43 8h1v1h-1z" /><path fill="#ffa566" d="M44 8h1v1h-1zM43 9h3v1h-3zM43 10h4v1h-4zM43 11h4v1h-4zM44 12h4v1h-4zM45 13h4v1h-4zM46 14h4v1h-4zM47 15h4v1h-4zM48 16h5v1h-5zM49 17h5v1h-5zM91 17h1v1h-1zM50 18h5v1h-5zM89 18h3v1h-3zM51 19h6v1h-6zM87 19h5v1h-5zM53 20h5v1h-5zM85 20h7v1h-7zM54 21h5v1h-5zM83 21h7v1h-7zM56 22h3v1h-3zM65 22h1v1h-1zM79 22h9v1h-9zM58 23h2v1h-2zM65 23h21v1h-21zM66 24h17v1h-17zM66 25h14v1h-14z" /><path fill="#ffa567" d="M45 8h1v1h-1zM47 11h1v1h-1zM48 12h1v1h-1zM49 13h1v1h-1zM50 14h1v1h-1zM51 15h1v1h-1zM91 16h1v1h-1zM54 17h1v1h-1zM90 17h1v1h-1zM55 18h1v1h-1zM88 18h1v1h-1zM84 20h1v1h-1zM81 21h2v1h-2zM66 22h1v1h-1zM77 22h2v1h-2z" /><path fill="#ea8f5d" d="M51 8h1v1h-1zM59 14h1v1h-1z" /><path fill="#8b1e27" d="M52 8h1v1h-1zM58 14h1v1h-1zM40 19h1v1h-1zM46 25h1v1h-1z" /><path fill="#ae473b" d="M55 8h1v1h-1z" /><path fill="#ffa869" d="M56 8h1v1h-1zM87 8h2v1h-2zM57 9h2v1h-2zM86 9h2v1h-2zM58 10h2v1h-2zM84 10h3v1h-3zM59 11h3v1h-3zM83 11h2v1h-2zM61 12h3v1h-3zM80 12h4v1h-4zM63 13h5v1h-5zM77 13h5v1h-5zM66 14h13v1h-13z" /><path fill="#ffa769" d="M89 8h2v1h-2zM88 9h3v1h-3zM87 10h3v1h-3zM58 11h1v1h-1zM85 11h3v1h-3zM59 12h2v1h-2zM84 12h3v1h-3zM59 13h4v1h-4zM82 13h3v1h-3zM61 14h5v1h-5zM79 14h5v1h-5zM63 15h18v1h-18zM67 16h11v1h-11z" /><path fill="#bd5843" d="M91 8h1v1h-1z" /><path fill="#ad453a" d="M42 9h1v1h-1z" /><path fill="#ba5541" d="M52 9h1v1h-1z" /><path fill="#e08357" d="M56 9h1v1h-1z" /><path fill="#fba265" d="M91 9h1v1h-1z" /><path fill="#93272c" d="M92 9h1v1h-1zM40 12h1v1h-1zM68 31h1v1h-1z" /><path fill="#8c1e27" d="M41 10h1v1h-1zM42 18h1v1h-1zM69 33h1v1h-1zM26 36h1v1h-1zM57 44h1v1h-1zM15 55h1v1h-1zM82 60h1v1h-1zM33 66h1v1h-1zM70 71h1v1h-1zM35 74h1v1h-1zM58 82h1v1h-1zM83 89h1v1h-1z" /><path fill="#ee915c" d="M42 10h1v1h-1z" /><path fill="#f69d63" d="M52 10h1v1h-1z" /><path fill="#91252a" d="M53 10h1v1h-1zM57 12h1v1h-1zM45 23h1v1h-1z" /><path fill="#9e3332" d="M56 10h1v1h-1z" /><path fill="#fda468" d="M57 10h1v1h-1z" /><path fill="#ad463a" d="M92 10h1v1h-1zM55 14h1v1h-1z" /><path fill="#c05b43" d="M41 11h1v1h-1z" /><path fill="#ffa465" d="M42 11h1v1h-1zM42 12h2v1h-2zM41 13h4v1h-4zM42 14h3v1h-3zM43 15h3v1h-3zM44 16h3v1h-3zM44 17h4v1h-4zM45 18h5v1h-5zM47 19h4v1h-4zM48 20h4v1h-4zM49 21h5v1h-5zM91 21h1v1h-1zM50 22h6v1h-6zM89 22h3v1h-3zM52 23h6v1h-6zM87 23h5v1h-5zM54 24h6v1h-6zM84 24h7v1h-7zM55 25h6v1h-6zM81 25h8v1h-8zM58 26h4v1h-4zM67 26h2v1h-2zM75 26h12v1h-12zM60 27h2v1h-2zM67 27h17v1h-17zM68 28h12v1h-12z" /><path fill="#cc6b4b" d="M53 11h1v1h-1z" /><path fill="#ce6d4d" d="M57 11h1v1h-1z" /><path fill="#b34c3e" d="M92 11h1v1h-1z" /><path fill="#f89c61" d="M41 12h1v1h-1z" /><path fill="#fda367" d="M53 12h1v1h-1z" /><path fill="#9e3331" d="M54 12h1v1h-1z" /><path fill="#f69d64" d="M58 12h1v1h-1z" /><path fill="#b34c3d" d="M92 12h1v1h-1zM92 13h1v1h-1zM92 14h1v1h-1zM92 15h1v1h-1z" /><path fill="#c96547" d="M40 13h1v1h-1z" /><path fill="#df7f55" d="M54 13h1v1h-1z" /><path fill="#bb5642" d="M58 13h1v1h-1z" /><path fill="#a13732" d="M40 14h1v1h-1z" /><path fill="#fea363" d="M41 14h1v1h-1zM68 29h1v1h-1z" /><path fill="#ffa565" d="M45 14h1v1h-1zM46 15h1v1h-1zM47 16h1v1h-1zM48 17h1v1h-1zM52 20h1v1h-1zM90 21h1v1h-1zM88 22h1v1h-1zM86 23h1v1h-1zM83 24h1v1h-1zM80 25h1v1h-1zM69 26h6v1h-6z" /><path fill="#d4724d" d="M41 15h1v1h-1z" /><path fill="#ffa464" d="M42 15h1v1h-1zM43 16h1v1h-1zM43 17h1v1h-1zM44 18h1v1h-1zM45 19h2v1h-2zM46 20h2v1h-2zM47 21h2v1h-2zM49 22h1v1h-1zM50 23h2v1h-2zM52 24h2v1h-2zM91 24h1v1h-1zM53 25h2v1h-2zM89 25h2v1h-2zM55 26h3v1h-3zM87 26h2v1h-2zM57 27h3v1h-3zM84 27h3v1h-3zM60 28h3v1h-3zM80 28h4v1h-4zM69 29h12v1h-12z" /><path fill="#ef935e" d="M55 15h1v1h-1z" /><path fill="#94282c" d="M41 16h1v1h-1z" /><path fill="#f99c61" d="M42 16h1v1h-1z" /><path fill="#c05c44" d="M56 16h1v1h-1z" /><path fill="#db7c54" d="M60 16h1v1h-1z" /><path fill="#b34b3d" d="M92 16h1v1h-1zM92 17h1v1h-1zM92 18h1v1h-1zM92 19h1v1h-1zM92 20h1v1h-1zM92 21h1v1h-1zM92 22h1v1h-1zM92 23h1v1h-1z" /><path fill="#8d2028" d="M37 17h1v1h-1zM53 37h1v1h-1zM39 44h1v1h-1zM43 51h1v1h-1z" /><path fill="#cb6748" d="M38 17h1v1h-1z" /><path fill="#c15c44" d="M42 17h1v1h-1z" /><path fill="#f99f64" d="M56 17h1v1h-1z" /><path fill="#95282c" d="M57 17h1v1h-1zM45 28h1v1h-1zM72 43h1v1h-1zM46 56h1v1h-1zM67 61h1v1h-1z" /><path fill="#992e2f" d="M60 17h1v1h-1z" /><path fill="#fca266" d="M61 17h1v1h-1z" /><path fill="#c45e45" d="M37 18h1v1h-1z" /><path fill="#ffa263" d="M38 18h1v1h-1zM38 19h1v1h-1zM39 20h1v1h-1zM50 28h1v1h-1zM50 29h3v1h-3zM52 30h3v1h-3zM90 30h2v1h-2zM54 31h3v1h-3zM87 31h4v1h-4zM56 32h4v1h-4zM84 32h4v1h-4zM59 33h6v1h-6zM80 33h5v1h-5zM63 34h3v1h-3zM71 34h11v1h-11zM72 35h1v1h-1z" /><path fill="#a94137" d="M39 18h1v1h-1z" /><path fill="#ee8f5b" d="M43 18h1v1h-1z" /><path fill="#d2704e" d="M57 18h1v1h-1z" /><path fill="#c96649" d="M61 18h1v1h-1z" /><path fill="#962a2d" d="M36 19h1v1h-1zM64 24h1v1h-1zM52 35h1v1h-1z" /><path fill="#fa9c60" d="M37 19h1v1h-1z" /><path fill="#ec8b59" d="M39 19h1v1h-1z" /><path fill="#af463a" d="M43 19h1v1h-1zM70 40h1v1h-1z" /><path fill="#ffa364" d="M44 19h1v1h-1zM45 20h1v1h-1zM46 21h1v1h-1zM46 22h3v1h-3zM47 23h3v1h-3zM48 24h4v1h-4zM49 25h4v1h-4zM91 25h1v1h-1zM51 26h4v1h-4zM89 26h3v1h-3zM53 27h4v1h-4zM87 27h5v1h-5zM55 28h5v1h-5zM84 28h6v1h-6zM57 29h6v1h-6zM81 29h7v1h-7zM60 30h4v1h-4zM69 30h16v1h-16zM70 31h11v1h-11z" /><path fill="#fea466" d="M57 19h1v1h-1z" /><path fill="#a23833" d="M58 19h1v1h-1z" /><path fill="#8f2229" d="M61 19h1v1h-1zM33 24h1v1h-1zM49 30h1v1h-1zM25 52h1v1h-1zM87 64h1v1h-1zM75 75h1v1h-1zM40 78h1v1h-1z" /><path fill="#f39961" d="M62 19h1v1h-1z" /><path fill="#d7744e" d="M36 20h1v1h-1z" /><path fill="#ffa262" d="M37 20h2v1h-2zM37 21h3v1h-3zM37 22h4v1h-4zM38 23h3v1h-3zM39 24h3v1h-3zM40 25h3v1h-3zM42 26h1v1h-1zM43 27h1v1h-1zM51 30h1v1h-1zM51 31h3v1h-3zM91 31h1v1h-1zM52 32h4v1h-4zM88 32h4v1h-4zM53 33h6v1h-6zM85 33h7v1h-7zM55 34h8v1h-8zM82 34h8v1h-8zM57 35h10v1h-10zM73 35h14v1h-14zM61 36h6v1h-6zM73 36h11v1h-11zM66 37h2v1h-2zM73 37h5v1h-5z" /><path fill="#ba533f" d="M40 20h1v1h-1z" /><path fill="#df7e53" d="M44 20h1v1h-1z" /><path fill="#e58657" d="M58 20h1v1h-1z" /><path fill="#891c26" d="M59 20h1v1h-1zM47 31h1v1h-1zM32 32h1v1h-1zM23 41h1v1h-1zM35 42h1v1h-1zM77 47h1v1h-1zM23 53h1v1h-1zM44 53h1v1h-1zM62 57h1v1h-1zM65 58h1v1h-1zM48 60h1v1h-1zM30 61h1v1h-1zM85 65h1v1h-1zM52 67h1v1h-1zM50 68h1v1h-1zM56 74h1v1h-1zM73 76h1v1h-1zM38 79h1v1h-1zM60 81h1v1h-1zM80 84h1v1h-1zM61 87h1v1h-1z" /><path fill="#b7513f" d="M62 20h1v1h-1z" /><path fill="#a43a33" d="M35 21h1v1h-1zM51 33h1v1h-1z" /><path fill="#ffa062" d="M36 21h1v1h-1z" /><path fill="#f7995f" d="M40 21h1v1h-1z" /><path fill="#92252a" d="M41 21h1v1h-1zM56 47h1v1h-1zM79 55h1v1h-1zM44 58h1v1h-1zM32 69h1v1h-1z" /><path fill="#9d3131" d="M44 21h1v1h-1z" /><path fill="#fda063" d="M45 21h1v1h-1z" /><path fill="#b24c3d" d="M59 21h1v1h-1z" /><path fill="#8a1c27" d="M62 21h1v1h-1zM34 22h1v1h-1zM29 32h1v1h-1zM50 32h1v1h-1zM51 38h1v1h-1zM74 46h1v1h-1zM39 49h1v1h-1zM26 54h1v1h-1zM27 60h1v1h-1zM88 66h1v1h-1zM8 67h1v1h-1zM89 72h1v1h-1zM76 77h1v1h-1zM41 80h1v1h-1zM77 83h1v1h-1zM64 88h1v1h-1z" /><path fill="#e6895a" d="M63 21h1v1h-1z" /><path fill="#e68655" d="M35 22h1v1h-1z" /><path fill="#ffa161" d="M36 22h1v1h-1zM35 23h2v1h-2zM35 24h3v1h-3zM35 25h4v1h-4zM36 26h5v1h-5zM37 27h5v1h-5zM38 28h5v1h-5zM39 29h5v1h-5zM41 30h4v1h-4zM42 31h4v1h-4zM43 32h4v1h-4zM45 33h2v1h-2zM46 34h2v1h-2zM54 35h1v1h-1zM89 35h3v1h-3zM54 36h4v1h-4zM86 36h6v1h-6zM55 37h7v1h-7zM82 37h10v1h-10zM55 38h13v1h-13zM75 38h15v1h-15zM58 39h11v1h-11zM74 39h13v1h-13zM61 40h9v1h-9zM75 40h8v1h-8zM68 41h2v1h-2zM75 41h1v1h-1z" /><path fill="#cc6848" d="M41 22h1v1h-1z" /><path fill="#ce6b4b" d="M45 22h1v1h-1z" /><path fill="#f2965f" d="M59 22h1v1h-1z" /><path fill="#8e2128" d="M60 22h1v1h-1zM48 33h1v1h-1zM36 44h1v1h-1zM86 67h1v1h-1zM51 70h1v1h-1z" /><path fill="#a33a35" d="M63 22h1v1h-1z" /><path fill="#ffa466" d="M64 22h1v1h-1z" /><path fill="#b74f3d" d="M34 23h1v1h-1z" /><path fill="#ffa162" d="M37 23h1v1h-1zM38 24h1v1h-1zM39 25h1v1h-1zM41 26h1v1h-1zM42 27h1v1h-1zM43 28h1v1h-1zM44 29h1v1h-1zM52 33h1v1h-1zM53 34h2v1h-2zM90 34h2v1h-2zM55 35h2v1h-2zM87 35h2v1h-2zM58 36h3v1h-3zM84 36h2v1h-2zM62 37h4v1h-4zM78 37h4v1h-4zM74 38h1v1h-1z" /><path fill="#fd9f61" d="M41 23h1v1h-1z" /><path fill="#9d3230" d="M42 23h1v1h-1z" /><path fill="#f6995f" d="M46 23h1v1h-1z" /><path fill="#c46046" d="M60 23h1v1h-1zM65 25h1v1h-1z" /><path fill="#d6744f" d="M64 23h1v1h-1z" /><path fill="#f3945b" d="M34 24h1v1h-1z" /><path fill="#e07e52" d="M42 24h1v1h-1z" /><path fill="#bc5640" d="M46 24h1v1h-1zM67 35h1v1h-1z" /><path fill="#ffa363" d="M47 24h1v1h-1zM48 25h1v1h-1zM48 26h3v1h-3zM49 27h4v1h-4zM51 28h4v1h-4zM90 28h2v1h-2zM53 29h4v1h-4zM88 29h4v1h-4zM55 30h5v1h-5zM85 30h5v1h-5zM57 31h7v1h-7zM81 31h6v1h-6zM60 32h5v1h-5zM70 32h14v1h-14zM65 33h1v1h-1zM71 33h9v1h-9z" /><path fill="#fba062" d="M60 24h1v1h-1z" /><path fill="#982d2e" d="M61 24h1v1h-1z" /><path fill="#fa9f64" d="M65 24h1v1h-1z" /><path fill="#b34b3c" d="M92 24h1v1h-1zM92 25h1v1h-1zM92 26h1v1h-1zM92 27h1v1h-1zM92 28h1v1h-1z" /><path fill="#c96345" d="M33 25h1v1h-1z" /><path fill="#ffa060" d="M34 25h1v1h-1zM34 26h2v1h-2zM33 27h4v1h-4zM34 28h4v1h-4zM35 29h4v1h-4zM36 30h5v1h-5zM37 31h5v1h-5zM38 32h5v1h-5zM39 33h6v1h-6zM41 34h5v1h-5zM42 35h6v1h-6zM44 36h5v1h-5zM45 37h5v1h-5zM47 38h3v1h-3zM90 38h2v1h-2zM49 39h2v1h-2zM56 39h2v1h-2zM87 39h5v1h-5zM57 40h4v1h-4zM83 40h9v1h-9zM57 41h11v1h-11zM76 41h15v1h-15zM58 42h13v1h-13zM76 42h12v1h-12zM61 43h10v1h-10zM77 43h7v1h-7zM67 44h5v1h-5z" /><path fill="#ad4439" d="M43 25h1v1h-1zM70 34h1v1h-1z" /><path fill="#eb8c59" d="M47 25h1v1h-1z" /><path fill="#d77550" d="M61 25h1v1h-1z" /><path fill="#992d2e" d="M32 26h1v1h-1z" /><path fill="#fc9d5e" d="M33 26h1v1h-1z" /><path fill="#ef905a" d="M43 26h1v1h-1z" /><path fill="#8c1e28" d="M44 26h1v1h-1zM32 37h1v1h-1zM80 52h1v1h-1z" /><path fill="#a83f36" d="M47 26h1v1h-1z" /><path fill="#a63c36" d="M62 26h1v1h-1z" /><path fill="#8d2029" d="M65 26h1v1h-1z" /><path fill="#f1935e" d="M66 26h1v1h-1z" /><path fill="#db784d" d="M32 27h1v1h-1z" /><path fill="#bf5942" d="M44 27h1v1h-1zM69 32h1v1h-1z" /><path fill="#db7950" d="M48 27h1v1h-1z" /><path fill="#e88959" d="M62 27h1v1h-1z" /><path fill="#8a1d27" d="M63 27h1v1h-1zM73 40h1v1h-1zM19 48h1v1h-1zM61 51h1v1h-1zM37 73h1v1h-1zM54 75h1v1h-1zM42 86h1v1h-1z" /><path fill="#b24b3c" d="M66 27h1v1h-1z" /><path fill="#a83e35" d="M31 28h1v1h-1z" /><path fill="#ff9f5f" d="M32 28h1v1h-1zM32 29h2v1h-2zM33 30h2v1h-2zM33 31h3v1h-3zM34 32h3v1h-3zM35 33h3v1h-3zM36 34h4v1h-4zM37 35h4v1h-4zM38 36h4v1h-4zM40 37h4v1h-4zM41 38h5v1h-5zM43 39h5v1h-5zM44 40h6v1h-6zM46 41h6v1h-6zM48 42h4v1h-4zM90 42h2v1h-2zM51 43h2v1h-2zM87 43h5v1h-5zM53 44h1v1h-1zM59 44h3v1h-3zM82 44h9v1h-9zM59 45h13v1h-13zM78 45h10v1h-10zM60 46h13v1h-13zM78 46h6v1h-6zM66 47h8v1h-8z" /><path fill="#ffa05f" d="M33 28h1v1h-1zM34 29h1v1h-1zM35 30h1v1h-1zM36 31h1v1h-1zM37 32h1v1h-1zM38 33h1v1h-1zM40 34h1v1h-1zM41 35h1v1h-1zM42 36h2v1h-2zM44 37h1v1h-1zM46 38h1v1h-1zM48 39h1v1h-1zM50 40h1v1h-1zM91 41h1v1h-1zM88 42h2v1h-2zM58 43h3v1h-3zM84 43h3v1h-3zM62 44h5v1h-5zM77 44h5v1h-5z" /><path fill="#f99b5f" d="M44 28h1v1h-1z" /><path fill="#992d2f" d="M48 28h1v1h-1z" /><path fill="#fc9f61" d="M49 28h1v1h-1z" /><path fill="#b7503e" d="M63 28h1v1h-1z" /><path fill="#e28355" d="M67 28h1v1h-1z" /><path fill="#c05940" d="M31 29h1v1h-1z" /><path fill="#d16d4b" d="M45 29h1v1h-1z" /><path fill="#c96446" d="M49 29h1v1h-1z" /><path fill="#f4965e" d="M63 29h1v1h-1z" /><path fill="#90232a" d="M64 29h1v1h-1z" /><path fill="#a03633" d="M67 29h1v1h-1z" /><path fill="#b34a3c" d="M92 29h1v1h-1zM92 30h1v1h-1zM92 31h1v1h-1zM92 32h1v1h-1zM92 33h1v1h-1z" /><path fill="#8d1f28" d="M31 30h1v1h-1zM35 37h1v1h-1zM71 41h1v1h-1zM59 52h1v1h-1zM47 58h1v1h-1zM29 59h1v1h-1zM11 62h1v1h-1zM47 63h1v1h-1zM68 63h1v1h-1zM51 65h1v1h-1zM55 72h1v1h-1zM74 78h1v1h-1zM59 79h1v1h-1zM79 82h1v1h-1zM44 85h1v1h-1zM62 89h1v1h-1zM45 92h1v1h-1z" /><path fill="#f08e58" d="M32 30h1v1h-1z" /><path fill="#fea060" d="M45 30h1v1h-1z" /><path fill="#a23632" d="M46 30h1v1h-1z" /><path fill="#f3955c" d="M50 30h1v1h-1z" /><path fill="#c96548" d="M64 30h1v1h-1z" /><path fill="#d16e4c" d="M68 30h1v1h-1z" /><path fill="#b14839" d="M32 31h1v1h-1zM36 38h1v1h-1z" /><path fill="#e58353" d="M46 31h1v1h-1z" /><path fill="#b7503d" d="M50 31h1v1h-1z" /><path fill="#fca063" d="M64 31h1v1h-1z" /><path fill="#9b302f" d="M65 31h1v1h-1z" /><path fill="#f89b60" d="M69 31h1v1h-1z" /><path fill="#e38052" d="M33 32h1v1h-1z" /><path fill="#b24a3a" d="M47 32h1v1h-1z" /><path fill="#e88756" d="M51 32h1v1h-1z" /><path fill="#dc7a50" d="M65 32h1v1h-1z" /><path fill="#9c312f" d="M28 33h1v1h-1zM59 47h1v1h-1z" /><path fill="#ca6344" d="M29 33h1v1h-1z" /><path fill="#a03531" d="M33 33h1v1h-1zM55 40h1v1h-1zM45 54h1v1h-1z" /><path fill="#fe9e5d" d="M34 33h1v1h-1z" /><path fill="#f2925a" d="M47 33h1v1h-1z" /><path fill="#ab4237" d="M66 33h1v1h-1z" /><path fill="#ed8f5a" d="M70 33h1v1h-1z" /><path fill="#df7a4d" d="M28 34h1v1h-1zM82 54h1v1h-1z" /><path fill="#fd9c5d" d="M29 34h1v1h-1z" /><path fill="#9d312f" d="M30 34h1v1h-1zM80 57h1v1h-1z" /><path fill="#d36d49" d="M34 34h1v1h-1z" /><path fill="#ff9f5e" d="M35 34h1v1h-1zM36 35h1v1h-1zM36 36h2v1h-2zM37 37h3v1h-3zM39 38h2v1h-2zM40 39h3v1h-3zM42 40h2v1h-2zM43 41h3v1h-3zM45 42h3v1h-3zM47 43h4v1h-4zM49 44h4v1h-4zM91 44h1v1h-1zM52 45h2v1h-2zM88 45h4v1h-4zM84 46h6v1h-6zM61 47h5v1h-5zM79 47h7v1h-7zM63 48h11v1h-11zM80 48h1v1h-1z" /><path fill="#c45e44" d="M48 34h1v1h-1zM53 36h1v1h-1z" /><path fill="#d6724d" d="M52 34h1v1h-1z" /><path fill="#ec8d59" d="M66 34h1v1h-1z" /><path fill="#8b1d27" d="M67 34h1v1h-1zM20 48h1v1h-1zM43 56h1v1h-1zM31 67h1v1h-1zM81 90h1v1h-1z" /><path fill="#b34a3b" d="M92 34h1v1h-1zM92 35h1v1h-1zM92 36h1v1h-1z" /><path fill="#af4438" d="M27 35h1v1h-1zM58 51h1v1h-1z" /><path fill="#ff9d5d" d="M28 35h1v1h-1zM29 36h1v1h-1zM30 37h1v1h-1zM31 38h1v1h-1zM41 45h2v1h-2zM43 46h2v1h-2zM44 47h3v1h-3zM47 48h2v1h-2zM49 49h3v1h-3zM52 50h3v1h-3zM89 50h3v1h-3zM55 51h3v1h-3zM85 51h5v1h-5zM63 52h2v1h-2zM82 52h4v1h-4zM65 53h12v1h-12z" /><path fill="#ff9e5d" d="M29 35h1v1h-1zM30 36h1v1h-1zM39 41h1v1h-1zM40 42h2v1h-2zM40 43h3v1h-3zM41 44h4v1h-4zM43 45h4v1h-4zM45 46h5v1h-5zM47 47h5v1h-5zM49 48h7v1h-7zM89 48h3v1h-3zM52 49h4v1h-4zM85 49h7v1h-7zM55 50h2v1h-2zM62 50h4v1h-4zM81 50h8v1h-8zM63 51h13v1h-13zM81 51h4v1h-4zM65 52h12v1h-12z" /><path fill="#e07b4f" d="M30 35h1v1h-1z" /><path fill="#94272b" d="M34 35h1v1h-1zM25 38h1v1h-1zM38 42h1v1h-1zM79 50h1v1h-1zM32 64h1v1h-1z" /><path fill="#f9975b" d="M35 35h1v1h-1z" /><path fill="#fb9c5f" d="M48 35h1v1h-1z" /><path fill="#972c2d" d="M49 35h1v1h-1z" /><path fill="#fa9b5f" d="M53 35h1v1h-1z" /><path fill="#de7c51" d="M71 35h1v1h-1z" /><path fill="#ee8a55" d="M27 36h1v1h-1z" /><path fill="#ff9d5c" d="M28 36h1v1h-1zM27 37h3v1h-3zM27 38h4v1h-4zM28 39h4v1h-4zM29 40h4v1h-4zM30 41h3v1h-3zM31 42h3v1h-3zM33 43h2v1h-2zM34 44h1v1h-1zM42 46h1v1h-1zM43 47h1v1h-1zM43 48h4v1h-4zM44 49h5v1h-5zM44 50h8v1h-8zM47 51h8v1h-8zM90 51h2v1h-2zM49 52h9v1h-9zM86 52h6v1h-6zM52 53h7v1h-7zM64 53h1v1h-1zM82 53h10v1h-10zM55 54h4v1h-4zM65 54h13v1h-13zM83 54h6v1h-6zM65 55h13v1h-13zM84 55h1v1h-1zM67 56h10v1h-10z" /><path fill="#ac4237" d="M31 36h1v1h-1z" /><path fill="#c25b42" d="M35 36h1v1h-1z" /><path fill="#d6724c" d="M49 36h1v1h-1z" /><path fill="#f7995e" d="M67 36h1v1h-1z" /><path fill="#92262b" d="M68 36h1v1h-1z" /><path fill="#9c3130" d="M71 36h1v1h-1z" /><path fill="#fda061" d="M72 36h1v1h-1z" /><path fill="#c15940" d="M26 37h1v1h-1z" /><path fill="#ef8c55" d="M31 37h1v1h-1z" /><path fill="#f08d57" d="M36 37h1v1h-1z" /><path fill="#a63b34" d="M50 37h1v1h-1z" /><path fill="#f1905a" d="M54 37h1v1h-1z" /><path fill="#ce6a4a" d="M68 37h1v1h-1z" /><path fill="#cc6748" d="M72 37h1v1h-1z" /><path fill="#b3493b" d="M92 37h1v1h-1zM92 38h1v1h-1zM92 39h1v1h-1zM92 40h1v1h-1zM92 41h1v1h-1zM92 42h1v1h-1zM92 43h1v1h-1z" /><path fill="#f99459" d="M26 38h1v1h-1z" /><path fill="#bf573f" d="M32 38h1v1h-1z" /><path fill="#ff9e5e" d="M37 38h2v1h-2zM38 39h2v1h-2zM39 40h3v1h-3zM40 41h3v1h-3zM42 42h3v1h-3zM43 43h4v1h-4zM45 44h4v1h-4zM47 45h5v1h-5zM50 46h5v1h-5zM90 46h2v1h-2zM52 47h3v1h-3zM86 47h6v1h-6zM61 48h2v1h-2zM79 48h1v1h-1zM81 48h8v1h-8zM62 49h13v1h-13zM80 49h5v1h-5zM66 50h9v1h-9z" /><path fill="#e88655" d="M50 38h1v1h-1z" /><path fill="#b24a3b" d="M54 38h1v1h-1z" /><path fill="#fe9f60" d="M68 38h1v1h-1z" /><path fill="#9f3431" d="M69 38h1v1h-1z" /><path fill="#91242a" d="M72 38h1v1h-1z" /><path fill="#f6965d" d="M73 38h1v1h-1z" /><path fill="#d46d48" d="M25 39h1v1h-1zM67 60h1v1h-1z" /><path fill="#ff9c5b" d="M26 39h1v1h-1zM26 40h3v1h-3zM25 41h5v1h-5zM26 42h5v1h-5zM27 43h5v1h-5zM28 44h6v1h-6zM30 45h5v1h-5zM31 46h5v1h-5zM32 47h5v1h-5zM34 48h3v1h-3zM35 49h3v1h-3zM37 50h2v1h-2zM45 51h1v1h-1zM45 52h3v1h-3zM46 53h5v1h-5zM47 54h7v1h-7zM90 54h2v1h-2zM47 55h11v1h-11zM86 55h6v1h-6zM50 56h10v1h-10zM84 56h8v1h-8zM53 57h8v1h-8zM66 57h13v1h-13zM85 57h6v1h-6zM57 58h5v1h-5zM67 58h13v1h-13zM85 58h2v1h-2zM68 59h13v1h-13z" /><path fill="#ff9c5c" d="M27 39h1v1h-1zM32 43h1v1h-1zM35 45h1v1h-1zM42 47h1v1h-1zM46 51h1v1h-1zM48 52h1v1h-1zM51 53h1v1h-1zM54 54h1v1h-1zM89 54h1v1h-1zM58 55h2v1h-2zM85 55h1v1h-1zM66 56h1v1h-1zM77 56h2v1h-2z" /><path fill="#f9965a" d="M32 39h1v1h-1zM80 50h1v1h-1z" /><path fill="#95272b" d="M33 39h1v1h-1zM83 62h1v1h-1z" /><path fill="#e37e51" d="M37 39h1v1h-1z" /><path fill="#b74f3c" d="M51 39h1v1h-1z" /><path fill="#e28052" d="M55 39h1v1h-1z" /><path fill="#e17f52" d="M69 39h1v1h-1z" /><path fill="#ba523e" d="M73 39h1v1h-1z" /><path fill="#a13530" d="M24 40h1v1h-1z" /><path fill="#fe9b5a" d="M25 40h1v1h-1zM46 54h1v1h-1z" /><path fill="#d16a48" d="M33 40h1v1h-1z" /><path fill="#a03431" d="M37 40h1v1h-1z" /><path fill="#fe9d5c" d="M38 40h1v1h-1z" /><path fill="#f5945b" d="M51 40h1v1h-1z" /><path fill="#90222a" d="M52 40h1v1h-1z" /><path fill="#fe9f5f" d="M56 40h1v1h-1z" /><path fill="#ea8957" d="M74 40h1v1h-1z" /><path fill="#e6804f" d="M24 41h1v1h-1z" /><path fill="#fe9c5b" d="M33 41h1v1h-1z" /><path fill="#a23631" d="M34 41h1v1h-1zM41 47h1v1h-1zM49 61h1v1h-1z" /><path fill="#d36d48" d="M38 41h1v1h-1zM60 55h1v1h-1z" /><path fill="#c96344" d="M52 41h1v1h-1z" /><path fill="#d16c4a" d="M56 41h1v1h-1z" /><path fill="#f08f59" d="M70 41h1v1h-1z" /><path fill="#a73d35" d="M74 41h1v1h-1z" /><path fill="#ab3f35" d="M23 42h1v1h-1z" /><path fill="#ff9b5a" d="M24 42h2v1h-2zM24 43h3v1h-3zM24 44h4v1h-4zM25 45h4v1h-4zM26 46h4v1h-4zM27 47h5v1h-5zM29 48h4v1h-4zM30 49h5v1h-5zM31 50h5v1h-5zM33 51h5v1h-5zM34 52h6v1h-6zM36 53h4v1h-4zM38 54h3v1h-3zM40 55h2v1h-2zM48 56h1v1h-1zM48 57h4v1h-4zM49 58h7v1h-7zM89 58h3v1h-3zM50 59h11v1h-11zM86 59h6v1h-6zM53 60h10v1h-10zM68 60h13v1h-13zM86 60h6v1h-6zM57 61h6v1h-6zM69 61h13v1h-13zM87 61h1v1h-1zM62 62h2v1h-2zM69 62h13v1h-13z" /><path fill="#e47f50" d="M34 42h1v1h-1z" /><path fill="#f9975a" d="M39 42h1v1h-1zM59 54h1v1h-1z" /><path fill="#fc9c5e" d="M52 42h1v1h-1z" /><path fill="#9b2f2e" d="M53 42h1v1h-1z" /><path fill="#93272b" d="M56 42h1v1h-1z" /><path fill="#f8995c" d="M57 42h1v1h-1z" /><path fill="#c15b42" d="M71 42h1v1h-1z" /><path fill="#d9764d" d="M75 42h1v1h-1z" /><path fill="#da724a" d="M23 43h1v1h-1z" /><path fill="#b14838" d="M35 43h1v1h-1z" /><path fill="#c25b41" d="M39 43h1v1h-1z" /><path fill="#db774d" d="M53 43h1v1h-1z" /><path fill="#bf5841" d="M57 43h1v1h-1z" /><path fill="#f9995d" d="M71 43h1v1h-1z" /><path fill="#992c2e" d="M75 43h1v1h-1z" /><path fill="#fb9c5e" d="M76 43h1v1h-1z" /><path fill="#f08b53" d="M23 44h1v1h-1z" /><path fill="#f28f56" d="M35 44h1v1h-1z" /><path fill="#f18d57" d="M40 44h1v1h-1z" /><path fill="#aa4036" d="M54 44h1v1h-1z" /><path fill="#ed8b57" d="M58 44h1v1h-1z" /><path fill="#d46f4b" d="M72 44h1v1h-1z" /><path fill="#c76044" d="M76 44h1v1h-1z" /><path fill="#b3493a" d="M92 44h1v1h-1zM92 45h1v1h-1zM92 46h1v1h-1zM92 47h1v1h-1zM92 48h1v1h-1zM92 49h1v1h-1z" /><path fill="#fa9657" d="M23 45h1v1h-1z" /><path fill="#ff9b59" d="M24 45h1v1h-1zM24 46h2v1h-2zM26 47h1v1h-1zM27 48h2v1h-2zM28 49h2v1h-2zM30 50h1v1h-1zM31 51h2v1h-2zM33 52h1v1h-1zM34 53h2v1h-2zM36 54h2v1h-2zM38 55h2v1h-2zM40 56h2v1h-2zM42 57h1v1h-1zM49 59h1v1h-1zM50 60h3v1h-3zM53 61h4v1h-4zM88 61h4v1h-4zM57 62h5v1h-5zM62 63h3v1h-3zM70 63h12v1h-12z" /><path fill="#ff9c5a" d="M29 45h1v1h-1zM30 46h1v1h-1zM33 48h1v1h-1zM36 50h1v1h-1zM38 51h1v1h-1zM49 56h1v1h-1zM52 57h1v1h-1zM91 57h1v1h-1zM56 58h1v1h-1zM87 58h2v1h-2zM61 59h1v1h-1z" /><path fill="#c45c41" d="M36 45h1v1h-1z" /><path fill="#b24839" d="M40 45h1v1h-1z" /><path fill="#ec8955" d="M54 45h1v1h-1z" /><path fill="#8b1d26" d="M55 45h1v1h-1zM78 53h1v1h-1zM84 59h1v1h-1zM66 64h1v1h-1zM72 70h1v1h-1z" /><path fill="#ad4437" d="M58 45h1v1h-1z" /><path fill="#ff9e5f" d="M72 45h1v1h-1z" /><path fill="#a23732" d="M73 45h1v1h-1zM61 56h1v1h-1z" /><path fill="#8f2128" d="M76 45h1v1h-1zM75 48h1v1h-1zM64 56h1v1h-1zM63 59h1v1h-1zM7 69h1v1h-1z" /><path fill="#f39259" d="M77 45h1v1h-1z" /><path fill="#ee8852" d="M23 46h1v1h-1z" /><path fill="#fb975a" d="M36 46h1v1h-1z" /><path fill="#972b2c" d="M37 46h1v1h-1zM87 69h1v1h-1z" /><path fill="#e37d4f" d="M41 46h1v1h-1zM45 53h1v1h-1z" /><path fill="#bc543f" d="M55 46h1v1h-1z" /><path fill="#de7a4e" d="M59 46h1v1h-1z" /><path fill="#e78454" d="M73 46h1v1h-1z" /><path fill="#b44c3b" d="M77 46h1v1h-1z" /><path fill="#d46b46" d="M23 47h1v1h-1z" /><path fill="#ff9a59" d="M24 47h2v1h-2zM24 48h3v1h-3zM25 49h3v1h-3zM26 50h4v1h-4zM27 51h4v1h-4zM29 52h4v1h-4zM30 53h4v1h-4zM32 54h4v1h-4zM33 55h5v1h-5zM35 56h5v1h-5zM37 57h5v1h-5zM39 58h4v1h-4zM41 59h3v1h-3zM43 60h1v1h-1zM51 61h2v1h-2zM51 62h6v1h-6zM88 62h4v1h-4zM52 63h10v1h-10zM82 63h1v1h-1zM88 63h4v1h-4zM56 64h9v1h-9zM70 64h13v1h-13zM62 65h4v1h-4zM71 65h12v1h-12z" /><path fill="#d66f48" d="M37 47h1v1h-1z" /><path fill="#f7955b" d="M55 47h1v1h-1z" /><path fill="#fd9d5e" d="M60 47h1v1h-1z" /><path fill="#b44b3b" d="M74 47h1v1h-1z" /><path fill="#e68352" d="M78 47h1v1h-1z" /><path fill="#a33732" d="M23 48h1v1h-1zM66 59h1v1h-1z" /><path fill="#ff9b5b" d="M37 48h1v1h-1zM60 56h1v1h-1zM67 59h1v1h-1z" /><path fill="#a43932" d="M38 48h1v1h-1z" /><path fill="#d46e48" d="M42 48h1v1h-1z" /><path fill="#ce6847" d="M56 48h1v1h-1z" /><path fill="#cd6646" d="M60 48h1v1h-1z" /><path fill="#f39258" d="M74 48h1v1h-1z" /><path fill="#a33833" d="M78 48h1v1h-1z" /><path fill="#b94e3a" d="M19 49h1v1h-1z" /><path fill="#be543d" d="M20 49h1v1h-1z" /><path fill="#dc7549" d="M24 49h1v1h-1z" /><path fill="#e88351" d="M38 49h1v1h-1z" /><path fill="#95292c" d="M42 49h1v1h-1z" /><path fill="#fa975a" d="M43 49h1v1h-1z" /><path fill="#fe9c5c" d="M56 49h1v1h-1z" /><path fill="#9e3330" d="M57 49h1v1h-1z" /><path fill="#912429" d="M60 49h1v1h-1zM83 57h1v1h-1zM71 68h1v1h-1z" /><path fill="#f6945a" d="M61 49h1v1h-1z" /><path fill="#c75f43" d="M75 49h1v1h-1z" /><path fill="#d46e4a" d="M79 49h1v1h-1z" /><path fill="#902329" d="M18 50h1v1h-1z" /><path fill="#f58e53" d="M19 50h1v1h-1z" /><path fill="#f99255" d="M20 50h1v1h-1z" /><path fill="#94262a" d="M21 50h1v1h-1zM71 73h1v1h-1zM59 84h1v1h-1zM82 87h1v1h-1z" /><path fill="#9a2d2d" d="M24 50h1v1h-1z" /><path fill="#fc9757" d="M25 50h1v1h-1z" /><path fill="#b64d3a" d="M39 50h1v1h-1z" /><path fill="#c35b40" d="M43 50h1v1h-1z" /><path fill="#e17d4f" d="M57 50h1v1h-1z" /><path fill="#ba523d" d="M61 50h1v1h-1z" /><path fill="#fc9b5c" d="M75 50h1v1h-1z" /><path fill="#9a2d2e" d="M76 50h1v1h-1zM64 61h1v1h-1z" /><path fill="#b3483a" d="M92 50h1v1h-1z" /><path fill="#cb6142" d="M18 51h1v1h-1z" /><path fill="#ff9957" d="M19 51h2v1h-2zM20 52h1v1h-1zM21 53h1v1h-1zM22 54h1v1h-1zM30 57h1v1h-1zM30 58h3v1h-3zM31 59h3v1h-3zM31 60h5v1h-5zM33 61h5v1h-5zM35 62h5v1h-5zM37 63h6v1h-6zM39 64h6v1h-6zM41 65h6v1h-6zM44 66h4v1h-4zM47 67h1v1h-1zM54 67h1v1h-1zM91 67h1v1h-1zM55 68h6v1h-6zM84 68h2v1h-2zM91 68h1v1h-1zM55 69h13v1h-13zM73 69h13v1h-13zM58 70h11v1h-11zM74 70h12v1h-12zM66 71h3v1h-3zM74 71h4v1h-4z" /><path fill="#d06744" d="M21 51h1v1h-1z" /><path fill="#ca6142" d="M25 51h1v1h-1zM87 63h1v1h-1z" /><path fill="#ff9a58" d="M26 51h1v1h-1zM27 52h2v1h-2zM27 53h3v1h-3zM29 54h3v1h-3zM30 55h3v1h-3zM32 56h3v1h-3zM33 57h4v1h-4zM35 58h4v1h-4zM37 59h4v1h-4zM39 60h4v1h-4zM41 61h4v1h-4zM44 62h2v1h-2zM52 64h4v1h-4zM89 64h3v1h-3zM53 65h9v1h-9zM83 65h1v1h-1zM89 65h3v1h-3zM57 66h9v1h-9zM72 66h13v1h-13zM64 67h3v1h-3zM72 67h9v1h-9z" /><path fill="#f59156" d="M39 51h1v1h-1z" /><path fill="#902229" d="M40 51h1v1h-1zM28 62h1v1h-1zM90 74h1v1h-1zM55 77h1v1h-1zM78 85h1v1h-1zM43 88h1v1h-1z" /><path fill="#f18c55" d="M44 51h1v1h-1z" /><path fill="#ea8653" d="M62 51h1v1h-1z" /><path fill="#d9744b" d="M76 51h1v1h-1z" /><path fill="#c25a41" d="M80 51h1v1h-1z" /><path fill="#b34839" d="M92 51h1v1h-1zM44 52h1v1h-1zM92 52h1v1h-1zM92 53h1v1h-1zM92 54h1v1h-1zM92 55h1v1h-1zM92 56h1v1h-1zM92 57h1v1h-1zM92 58h1v1h-1zM92 59h1v1h-1z" /><path fill="#9c2f2d" d="M17 52h1v1h-1z" /><path fill="#fd9655" d="M18 52h1v1h-1z" /><path fill="#ff9857" d="M19 52h1v1h-1zM20 53h1v1h-1zM21 54h1v1h-1zM32 61h1v1h-1zM33 62h2v1h-2zM35 63h2v1h-2zM37 64h2v1h-2zM39 65h2v1h-2zM42 66h2v1h-2zM44 67h3v1h-3zM48 67h1v1h-1zM90 67h1v1h-1zM47 68h2v1h-2zM54 68h1v1h-1zM56 70h2v1h-2zM86 70h1v1h-1zM60 71h6v1h-6zM78 71h6v1h-6z" /><path fill="#fe9856" d="M21 52h1v1h-1z" /><path fill="#a13430" d="M22 52h1v1h-1z" /><path fill="#f48f54" d="M26 52h1v1h-1zM88 64h1v1h-1z" /><path fill="#c86042" d="M40 52h1v1h-1z" /><path fill="#f08c55" d="M58 52h1v1h-1z" /><path fill="#a83d34" d="M62 52h1v1h-1zM85 60h1v1h-1z" /><path fill="#a93f35" d="M77 52h1v1h-1z" /><path fill="#ee8b55" d="M81 52h1v1h-1z" /><path fill="#dd7448" d="M17 53h1v1h-1z" /><path fill="#ff9856" d="M18 53h2v1h-2zM17 54h4v1h-4zM18 55h5v1h-5zM19 56h5v1h-5zM20 57h4v1h-4zM21 58h4v1h-4zM23 59h2v1h-2zM24 60h2v1h-2zM26 61h1v1h-1zM33 63h2v1h-2zM34 64h3v1h-3zM34 65h5v1h-5zM35 66h7v1h-7zM36 67h8v1h-8zM39 68h8v1h-8zM41 69h9v1h-9zM44 70h6v1h-6zM47 71h4v1h-4zM56 71h4v1h-4zM84 71h3v1h-3zM50 72h1v1h-1zM57 72h13v1h-13zM75 72h13v1h-13zM57 73h13v1h-13zM76 73h13v1h-13zM59 74h12v1h-12zM76 74h9v1h-9z" /><path fill="#e47c4c" d="M22 53h1v1h-1zM53 67h1v1h-1z" /><path fill="#b84d3a" d="M26 53h1v1h-1zM88 65h1v1h-1z" /><path fill="#fc9859" d="M40 53h1v1h-1zM63 61h1v1h-1z" /><path fill="#9b2e2d" d="M41 53h1v1h-1zM29 64h1v1h-1zM91 76h1v1h-1zM56 79h1v1h-1z" /><path fill="#c15840" d="M59 53h1v1h-1z" /><path fill="#da744b" d="M63 53h1v1h-1z" /><path fill="#eb8853" d="M77 53h1v1h-1z" /><path fill="#af4538" d="M81 53h1v1h-1z" /><path fill="#ac4034" d="M16 54h1v1h-1z" /><path fill="#b14636" d="M23 54h1v1h-1z" /><path fill="#e7804e" d="M27 54h1v1h-1zM89 66h1v1h-1z" /><path fill="#ff9958" d="M28 54h1v1h-1zM29 55h1v1h-1zM29 56h3v1h-3zM31 57h2v1h-2zM33 58h2v1h-2zM34 59h3v1h-3zM36 60h3v1h-3zM38 61h3v1h-3zM40 62h4v1h-4zM43 63h3v1h-3zM45 64h2v1h-2zM53 66h4v1h-4zM90 66h2v1h-2zM55 67h9v1h-9zM81 67h4v1h-4zM61 68h6v1h-6zM73 68h11v1h-11z" /><path fill="#db744a" d="M41 54h1v1h-1z" /><path fill="#95282b" d="M60 54h1v1h-1zM50 63h1v1h-1zM48 65h1v1h-1zM54 70h1v1h-1z" /><path fill="#992c2d" d="M63 54h1v1h-1zM86 62h1v1h-1z" /><path fill="#fb995a" d="M64 54h1v1h-1z" /><path fill="#ba513c" d="M78 54h1v1h-1z" /><path fill="#ed844e" d="M16 55h1v1h-1z" /><path fill="#ff9755" d="M17 55h1v1h-1zM16 56h3v1h-3zM16 57h4v1h-4zM16 58h5v1h-5zM18 59h5v1h-5zM19 60h5v1h-5zM20 61h6v1h-6zM22 62h5v1h-5zM23 63h5v1h-5zM25 64h3v1h-3zM26 65h3v1h-3zM28 66h2v1h-2zM35 67h1v1h-1zM36 68h3v1h-3zM37 69h4v1h-4zM37 70h7v1h-7zM38 71h9v1h-9zM40 72h10v1h-10zM43 73h9v1h-9zM46 74h7v1h-7zM58 74h1v1h-1zM85 74h4v1h-4zM49 75h4v1h-4zM59 75h12v1h-12zM77 75h13v1h-13zM53 76h1v1h-1zM59 76h13v1h-13zM77 76h13v1h-13zM60 77h13v1h-13zM78 77h8v1h-8zM70 78h3v1h-3z" /><path fill="#f28a51" d="M23 55h1v1h-1z" /><path fill="#8e2028" d="M24 55h1v1h-1zM91 71h1v1h-1zM39 81h1v1h-1zM63 86h1v1h-1z" /><path fill="#a43831" d="M27 55h1v1h-1zM89 67h1v1h-1zM88 71h1v1h-1z" /><path fill="#ff9858" d="M28 55h1v1h-1z" /><path fill="#aa3f34" d="M42 55h1v1h-1z" /><path fill="#d46c47" d="M46 55h1v1h-1zM50 62h1v1h-1z" /><path fill="#c76042" d="M64 55h1v1h-1z" /><path fill="#f79459" d="M78 55h1v1h-1z" /><path fill="#9d3030" d="M82 55h1v1h-1z" /><path fill="#fd9b5c" d="M83 55h1v1h-1z" /><path fill="#be533b" d="M15 56h1v1h-1z" /><path fill="#c3593e" d="M24 56h1v1h-1z" /><path fill="#d86f47" d="M28 56h1v1h-1z" /><path fill="#ec8652" d="M42 56h1v1h-1z" /><path fill="#fa9558" d="M47 56h1v1h-1z" /><path fill="#f38f57" d="M65 56h1v1h-1z" /><path fill="#cc6445" d="M79 56h1v1h-1z" /><path fill="#cf6745" d="M83 56h1v1h-1z" /><path fill="#93262a" d="M14 57h1v1h-1zM47 90h1v1h-1zM9 92h1v1h-1z" /><path fill="#f89052" d="M15 57h1v1h-1z" /><path fill="#fb9454" d="M24 57h1v1h-1zM51 72h1v1h-1z" /><path fill="#972a2c" d="M25 57h1v1h-1z" /><path fill="#96292c" d="M28 57h1v1h-1zM90 69h1v1h-1zM78 80h1v1h-1z" /><path fill="#fa9455" d="M29 57h1v1h-1z" /><path fill="#bb513c" d="M43 57h1v1h-1z" /><path fill="#c45b40" d="M47 57h1v1h-1z" /><path fill="#e5804f" d="M61 57h1v1h-1z" /><path fill="#b54b3a" d="M65 57h1v1h-1z" /><path fill="#fd9a5b" d="M79 57h1v1h-1z" /><path fill="#f69257" d="M84 57h1v1h-1z" /><path fill="#d06642" d="M14 58h1v1h-1z" /><path fill="#ff9754" d="M15 58h1v1h-1zM17 59h1v1h-1zM18 60h1v1h-1zM19 61h1v1h-1zM21 62h1v1h-1zM22 63h1v1h-1zM23 64h2v1h-2zM25 65h1v1h-1zM27 66h1v1h-1zM28 67h2v1h-2zM30 68h1v1h-1zM38 72h2v1h-2zM41 73h2v1h-2zM44 74h2v1h-2zM47 75h2v1h-2zM50 76h3v1h-3zM86 77h4v1h-4zM61 78h9v1h-9zM78 78h6v1h-6z" /><path fill="#d56c45" d="M25 58h1v1h-1z" /><path fill="#c55b3f" d="M29 58h1v1h-1z" /><path fill="#f79256" d="M43 58h1v1h-1z" /><path fill="#f18b54" d="M48 58h1v1h-1z" /><path fill="#b44a39" d="M62 58h1v1h-1z" /><path fill="#e68150" d="M66 58h1v1h-1z" /><path fill="#e0794d" d="M80 58h1v1h-1z" /><path fill="#bd543d" d="M84 58h1v1h-1z" /><path fill="#9f322f" d="M13 59h1v1h-1z" /><path fill="#fe9453" d="M14 59h1v1h-1z" /><path fill="#ff9654" d="M15 59h2v1h-2zM14 60h4v1h-4zM15 61h4v1h-4zM17 62h4v1h-4zM18 63h4v1h-4zM19 64h4v1h-4zM21 65h4v1h-4zM22 66h5v1h-5zM24 67h4v1h-4zM25 68h5v1h-5zM27 69h4v1h-4zM29 70h3v1h-3zM31 71h1v1h-1zM39 73h2v1h-2zM39 74h5v1h-5zM40 75h7v1h-7zM42 76h8v1h-8zM45 77h9v1h-9zM90 77h1v1h-1zM49 78h6v1h-6zM60 78h1v1h-1zM84 78h8v1h-8zM53 79h2v1h-2zM61 79h13v1h-13zM79 79h13v1h-13zM61 80h13v1h-13zM80 80h6v1h-6zM68 81h7v1h-7z" /><path fill="#ff9756" d="M25 59h1v1h-1zM87 71h1v1h-1z" /><path fill="#a53932" d="M26 59h1v1h-1zM92 71h1v1h-1z" /><path fill="#f18a51" d="M30 59h1v1h-1z" /><path fill="#cd6444" d="M44 59h1v1h-1z" /><path fill="#b34838" d="M48 59h1v1h-1zM92 60h1v1h-1z" /><path fill="#f38e54" d="M62 59h1v1h-1z" /><path fill="#ac4136" d="M81 59h1v1h-1z" /><path fill="#eb8551" d="M85 59h1v1h-1z" /><path fill="#e27847" d="M13 60h1v1h-1z" /><path fill="#e8804c" d="M26 60h1v1h-1zM88 72h1v1h-1z" /><path fill="#b34737" d="M30 60h1v1h-1zM50 69h1v1h-1zM92 70h1v1h-1z" /><path fill="#fe9858" d="M44 60h1v1h-1z" /><path fill="#9e322f" d="M45 60h1v1h-1z" /><path fill="#e37d4d" d="M49 60h1v1h-1z" /><path fill="#c65d40" d="M63 60h1v1h-1z" /><path fill="#ef8a53" d="M81 60h1v1h-1z" /><path fill="#b14535" d="M12 61h1v1h-1z" /><path fill="#ff9653" d="M13 61h2v1h-2zM14 62h3v1h-3zM16 63h2v1h-2zM17 64h2v1h-2zM18 65h3v1h-3zM20 66h2v1h-2zM21 67h3v1h-3zM23 68h2v1h-2zM24 69h3v1h-3zM26 70h3v1h-3zM28 71h3v1h-3zM30 72h3v1h-3zM32 73h2v1h-2zM41 76h1v1h-1zM41 77h4v1h-4zM44 78h5v1h-5zM47 79h6v1h-6zM51 80h5v1h-5zM86 80h6v1h-6zM56 81h1v1h-1zM62 81h6v1h-6zM80 81h9v1h-9zM63 82h12v1h-12zM81 82h1v1h-1z" /><path fill="#b64b39" d="M27 61h1v1h-1z" /><path fill="#e37a4a" d="M31 61h1v1h-1z" /><path fill="#e0794b" d="M45 61h1v1h-1z" /><path fill="#ff9959" d="M50 61h1v1h-1z" /><path fill="#f99558" d="M68 61h1v1h-1z" /><path fill="#bf563e" d="M82 61h1v1h-1z" /><path fill="#dc754a" d="M86 61h1v1h-1z" /><path fill="#b34738" d="M92 61h1v1h-1zM92 62h1v1h-1zM92 63h1v1h-1zM92 64h1v1h-1zM92 65h1v1h-1zM92 66h1v1h-1zM92 67h1v1h-1zM92 68h1v1h-1zM92 69h1v1h-1z" /><path fill="#f0854e" d="M12 62h1v1h-1z" /><path fill="#ff9553" d="M13 62h1v1h-1zM13 63h3v1h-3zM14 64h3v1h-3zM15 65h3v1h-3zM17 66h3v1h-3zM18 67h3v1h-3zM20 68h3v1h-3zM21 69h3v1h-3zM23 70h3v1h-3zM24 71h4v1h-4zM26 72h4v1h-4zM28 73h4v1h-4zM30 74h4v1h-4zM32 75h3v1h-3zM34 76h1v1h-1zM42 78h2v1h-2zM42 79h5v1h-5zM45 80h6v1h-6zM48 81h8v1h-8zM89 81h3v1h-3zM52 82h5v1h-5zM75 82h1v1h-1zM82 82h10v1h-10zM57 83h1v1h-1zM63 83h13v1h-13zM81 83h6v1h-6zM66 84h11v1h-11z" /><path fill="#f48c51" d="M27 62h1v1h-1zM76 75h1v1h-1z" /><path fill="#a03430" d="M31 62h1v1h-1z" /><path fill="#fe9755" d="M32 62h1v1h-1z" /><path fill="#ae4336" d="M46 62h1v1h-1z" /><path fill="#d87149" d="M64 62h1v1h-1z" /><path fill="#c25940" d="M68 62h1v1h-1z" /><path fill="#f99456" d="M82 62h1v1h-1z" /><path fill="#fc9858" d="M87 62h1v1h-1z" /><path fill="#c4583c" d="M11 63h1v1h-1z" /><path fill="#ff9552" d="M12 63h1v1h-1zM12 64h2v1h-2zM12 65h3v1h-3zM13 66h4v1h-4zM15 67h3v1h-3zM16 68h4v1h-4zM17 69h4v1h-4zM19 70h4v1h-4zM20 71h4v1h-4zM22 72h4v1h-4zM24 73h4v1h-4zM25 74h5v1h-5zM27 75h5v1h-5zM29 76h5v1h-5zM31 77h5v1h-5zM33 78h3v1h-3zM36 79h1v1h-1zM43 80h2v1h-2zM44 81h4v1h-4zM44 82h8v1h-8zM48 83h9v1h-9zM87 83h5v1h-5zM52 84h6v1h-6zM64 84h2v1h-2zM82 84h10v1h-10zM57 85h2v1h-2zM64 85h13v1h-13zM83 85h5v1h-5zM65 86h13v1h-13z" /><path fill="#c85e3f" d="M28 63h1v1h-1z" /><path fill="#d36944" d="M32 63h1v1h-1zM48 66h1v1h-1z" /><path fill="#ef8951" d="M46 63h1v1h-1z" /><path fill="#fa9456" d="M51 63h1v1h-1z" /><path fill="#a93e34" d="M65 63h1v1h-1z" /><path fill="#f08a52" d="M69 63h1v1h-1z" /><path fill="#d16945" d="M83 63h1v1h-1z" /><path fill="#96282b" d="M10 64h1v1h-1zM43 83h1v1h-1zM62 84h1v1h-1z" /><path fill="#fa9050" d="M11 64h1v1h-1zM63 84h1v1h-1z" /><path fill="#fc9454" d="M28 64h1v1h-1zM90 76h1v1h-1z" /><path fill="#f99153" d="M33 64h1v1h-1z" /><path fill="#c1563d" d="M47 64h1v1h-1z" /><path fill="#c45a3f" d="M51 64h1v1h-1z" /><path fill="#eb8550" d="M65 64h1v1h-1z" /><path fill="#b04536" d="M69 64h1v1h-1z" /><path fill="#fe9958" d="M83 64h1v1h-1z" /><path fill="#a23530" d="M84 64h1v1h-1zM49 67h1v1h-1z" /><path fill="#d66942" d="M10 65h1v1h-1zM43 82h1v1h-1z" /><path fill="#ff9452" d="M11 65h1v1h-1zM12 66h1v1h-1zM13 67h2v1h-2zM14 68h2v1h-2zM16 69h1v1h-1zM17 70h2v1h-2zM19 71h1v1h-1zM20 72h2v1h-2zM22 73h2v1h-2zM23 74h2v1h-2zM25 75h2v1h-2zM27 76h2v1h-2zM29 77h2v1h-2zM31 78h2v1h-2zM33 79h3v1h-3zM35 80h3v1h-3zM43 81h1v1h-1zM45 83h3v1h-3zM47 84h5v1h-5zM51 85h6v1h-6zM88 85h4v1h-4zM57 86h2v1h-2zM83 86h5v1h-5zM65 87h13v1h-13z" /><path fill="#da7047" d="M29 65h1v1h-1z" /><path fill="#c1563c" d="M33 65h1v1h-1z" /><path fill="#f99355" d="M47 65h1v1h-1z" /><path fill="#f18a52" d="M52 65h1v1h-1z" /><path fill="#b94f3b" d="M66 65h1v1h-1z" /><path fill="#e17a4d" d="M70 65h1v1h-1z" /><path fill="#e47d4d" d="M84 65h1v1h-1z" /><path fill="#a33630" d="M9 66h1v1h-1zM42 81h1v1h-1z" /><path fill="#ff9351" d="M10 66h1v1h-1zM9 68h1v1h-1zM13 71h1v1h-1zM16 73h1v1h-1zM17 74h1v1h-1zM19 75h1v1h-1zM22 77h1v1h-1zM24 78h1v1h-1zM26 79h1v1h-1zM28 80h1v1h-1zM30 81h1v1h-1zM32 82h1v1h-1zM35 83h1v1h-1zM37 84h1v1h-1zM40 85h1v1h-1zM47 87h1v1h-1zM51 88h1v1h-1zM56 89h2v1h-2zM66 89h1v1h-1zM86 89h3v1h-3zM67 90h13v1h-13z" /><path fill="#ff9451" d="M11 66h1v1h-1zM10 67h3v1h-3zM10 68h4v1h-4zM11 69h5v1h-5zM12 70h5v1h-5zM14 71h5v1h-5zM15 72h5v1h-5zM17 73h5v1h-5zM18 74h5v1h-5zM20 75h5v1h-5zM21 76h6v1h-6zM23 77h6v1h-6zM25 78h6v1h-6zM27 79h6v1h-6zM29 80h6v1h-6zM31 81h7v1h-7zM33 82h6v1h-6zM36 83h3v1h-3zM38 84h2v1h-2zM45 84h2v1h-2zM46 85h5v1h-5zM46 86h11v1h-11zM88 86h4v1h-4zM48 87h12v1h-12zM84 87h8v1h-8zM52 88h9v1h-9zM66 88h13v1h-13zM84 88h8v1h-8zM58 89h3v1h-3zM67 89h13v1h-13zM85 89h1v1h-1z" /><path fill="#aa3d33" d="M30 66h1v1h-1z" /><path fill="#ee8650" d="M34 66h1v1h-1z" /><path fill="#b44838" d="M52 66h1v1h-1z" /><path fill="#f79155" d="M66 66h1v1h-1z" /><path fill="#92242a" d="M67 66h1v1h-1z" /><path fill="#9d302f" d="M70 66h1v1h-1zM68 68h1v1h-1z" /><path fill="#fd9858" d="M71 66h1v1h-1z" /><path fill="#b14737" d="M85 66h1v1h-1z" /><path fill="#e67b48" d="M9 67h1v1h-1zM65 88h1v1h-1z" /><path fill="#ec834d" d="M30 67h1v1h-1z" /><path fill="#ae4235" d="M34 67h1v1h-1z" /><path fill="#cb6242" d="M67 67h1v1h-1z" /><path fill="#cf6743" d="M71 67h1v1h-1z" /><path fill="#f28b52" d="M85 67h1v1h-1z" /><path fill="#b64936" d="M8 68h1v1h-1z" /><path fill="#bb503a" d="M31 68h1v1h-1z" /><path fill="#de7548" d="M35 68h1v1h-1z" /><path fill="#e57d4c" d="M49 68h1v1h-1z" /><path fill="#a33731" d="M53 68h1v1h-1z" /><path fill="#fd9758" d="M67 68h1v1h-1z" /><path fill="#f79055" d="M72 68h1v1h-1z" /><path fill="#c45a3e" d="M86 68h1v1h-1z" /><path fill="#d76e46" d="M90 68h1v1h-1z" /><path fill="#f3884c" d="M8 69h1v1h-1z" /><path fill="#ff9350" d="M9 69h2v1h-2zM8 70h4v1h-4zM8 71h5v1h-5zM7 72h8v1h-8zM7 73h9v1h-9zM7 74h10v1h-10zM7 75h12v1h-12zM7 76h14v1h-14zM7 77h15v1h-15zM7 78h17v1h-17zM7 79h19v1h-19zM7 80h21v1h-21zM7 81h23v1h-23zM7 82h25v1h-25zM7 83h28v1h-28zM7 84h30v1h-30zM7 85h33v1h-33zM7 86h34v1h-34zM7 87h35v1h-35zM8 88h34v1h-34zM48 88h3v1h-3zM8 89h35v1h-35zM48 89h8v1h-8zM89 89h3v1h-3zM8 90h35v1h-35zM49 90h13v1h-13zM85 90h6v1h-6zM10 91h34v1h-34zM49 91h13v1h-13zM68 91h13v1h-13zM86 91h4v1h-4z" /><path fill="#f78e51" d="M31 69h1v1h-1zM37 71h1v1h-1z" /><path fill="#9c302e" d="M35 69h1v1h-1z" /><path fill="#fd9555" d="M36 69h1v1h-1z" /><path fill="#d56c46" d="M54 69h1v1h-1z" /><path fill="#e0774a" d="M68 69h1v1h-1z" /><path fill="#bd533c" d="M72 69h1v1h-1z" /><path fill="#fb9555" d="M86 69h1v1h-1z" /><path fill="#fa9255" d="M91 69h1v1h-1zM55 70h1v1h-1z" /><path fill="#c85b3d" d="M7 70h1v1h-1z" /><path fill="#cd6140" d="M32 70h1v1h-1z" /><path fill="#cd6341" d="M36 70h1v1h-1z" /><path fill="#f38b51" d="M50 70h1v1h-1z" /><path fill="#ac4035" d="M69 70h1v1h-1z" /><path fill="#eb844e" d="M73 70h1v1h-1z" /><path fill="#d66c46" d="M87 70h1v1h-1z" /><path fill="#c55a3f" d="M91 70h1v1h-1zM55 71h1v1h-1z" /><path fill="#fc904f" d="M7 71h1v1h-1z" /><path fill="#fd9454" d="M32 71h1v1h-1z" /><path fill="#9d302d" d="M33 71h1v1h-1z" /><path fill="#922429" d="M36 71h1v1h-1z" /><path fill="#c65b3e" d="M51 71h1v1h-1z" /><path fill="#ed8650" d="M69 71h1v1h-1z" /><path fill="#ab3f34" d="M73 71h1v1h-1z" /><path fill="#e07648" d="M33 72h1v1h-1z" /><path fill="#bb4f3a" d="M37 72h1v1h-1z" /><path fill="#982b2c" d="M52 72h1v1h-1z" /><path fill="#f18950" d="M56 72h1v1h-1z" /><path fill="#be543c" d="M70 72h1v1h-1z" /><path fill="#dc7348" d="M74 72h1v1h-1z" /><path fill="#ae4234" d="M34 73h1v1h-1z" /><path fill="#ea814c" d="M38 73h1v1h-1z" /><path fill="#d86e46" d="M52 73h1v1h-1z" /><path fill="#b44837" d="M56 73h1v1h-1zM60 80h1v1h-1z" /><path fill="#f99154" d="M70 73h1v1h-1z" /><path fill="#9a2c2d" d="M74 73h1v1h-1z" /><path fill="#fc9555" d="M75 73h1v1h-1z" /><path fill="#b64b38" d="M89 73h1v1h-1z" /><path fill="#ef864d" d="M34 74h1v1h-1z" /><path fill="#a83b32" d="M38 74h1v1h-1zM80 89h1v1h-1z" /><path fill="#a73a31" d="M53 74h1v1h-1z" /><path fill="#e47a4a" d="M57 74h1v1h-1zM72 76h1v1h-1z" /><path fill="#d06743" d="M71 74h1v1h-1z" /><path fill="#ca6041" d="M75 74h1v1h-1z" /><path fill="#f58c51" d="M89 74h1v1h-1z" /><path fill="#c0543b" d="M35 75h1v1h-1z" /><path fill="#da7045" d="M39 75h1v1h-1z" /><path fill="#e9804c" d="M53 75h1v1h-1z" /><path fill="#a33631" d="M57 75h1v1h-1zM61 82h1v1h-1z" /><path fill="#ff9655" d="M58 75h1v1h-1z" /><path fill="#fe9654" d="M71 75h1v1h-1z" /><path fill="#a1342f" d="M72 75h1v1h-1z" /><path fill="#c85d40" d="M90 75h1v1h-1z" /><path fill="#f98e51" d="M35 76h1v1h-1z" /><path fill="#95272a" d="M36 76h1v1h-1z" /><path fill="#992b2c" d="M39 76h1v1h-1z" /><path fill="#fc9352" d="M40 76h1v1h-1z" /><path fill="#b84c39" d="M54 76h1v1h-1zM76 76h1v1h-1z" /><path fill="#d56c44" d="M58 76h1v1h-1z" /><path fill="#d26641" d="M36 77h1v1h-1zM82 86h1v1h-1z" /><path fill="#c85c3f" d="M40 77h1v1h-1z" /><path fill="#f58c50" d="M54 77h1v1h-1z" /><path fill="#96292b" d="M58 77h1v1h-1z" /><path fill="#fa9153" d="M59 77h1v1h-1z" /><path fill="#b14536" d="M73 77h1v1h-1z" /><path fill="#e77e4c" d="M77 77h1v1h-1z" /><path fill="#db7046" d="M91 77h1v1h-1z" /><path fill="#fe9451" d="M36 78h1v1h-1zM82 85h1v1h-1z" /><path fill="#a2342f" d="M37 78h1v1h-1z" /><path fill="#f48a4f" d="M41 78h1v1h-1z" /><path fill="#cb6040" d="M55 78h1v1h-1z" /><path fill="#c5593e" d="M59 78h1v1h-1z" /><path fill="#f18850" d="M73 78h1v1h-1z" /><path fill="#a63931" d="M77 78h1v1h-1zM41 85h1v1h-1z" /><path fill="#a53831" d="M92 78h1v1h-1z" /><path fill="#e57a48" d="M37 79h1v1h-1z" /><path fill="#b64a37" d="M41 79h1v1h-1z" /><path fill="#fd9453" d="M55 79h1v1h-1z" /><path fill="#f1874e" d="M60 79h1v1h-1z" /><path fill="#c3583d" d="M74 79h1v1h-1z" /><path fill="#d76c45" d="M78 79h1v1h-1z" /><path fill="#b34636" d="M92 79h1v1h-1zM92 80h1v1h-1zM92 81h1v1h-1zM92 82h1v1h-1zM80 83h1v1h-1zM92 83h1v1h-1zM92 84h1v1h-1z" /><path fill="#b34635" d="M38 80h1v1h-1z" /><path fill="#e67b49" d="M42 80h1v1h-1z" /><path fill="#df7447" d="M56 80h1v1h-1z" /><path fill="#fb9252" d="M74 80h1v1h-1z" /><path fill="#972a2b" d="M75 80h1v1h-1zM66 91h1v1h-1z" /><path fill="#fa9152" d="M79 80h1v1h-1z" /><path fill="#f3874d" d="M38 81h1v1h-1z" /><path fill="#ab3f33" d="M57 81h1v1h-1z" /><path fill="#e67c49" d="M61 81h1v1h-1z" /><path fill="#d56b43" d="M75 81h1v1h-1z" /><path fill="#c5593d" d="M79 81h1v1h-1zM63 85h1v1h-1z" /><path fill="#c5583c" d="M39 82h1v1h-1z" /><path fill="#ee844c" d="M57 82h1v1h-1z" /><path fill="#ff9453" d="M62 82h1v1h-1z" /><path fill="#a53931" d="M76 82h1v1h-1z" /><path fill="#f1874d" d="M80 82h1v1h-1z" /><path fill="#fb904f" d="M39 83h1v1h-1z" /><path fill="#982b2b" d="M40 83h1v1h-1z" /><path fill="#fa8f50" d="M44 83h1v1h-1z" /><path fill="#bd513a" d="M58 83h1v1h-1z" /><path fill="#d66b43" d="M62 83h1v1h-1z" /><path fill="#e87d4a" d="M76 83h1v1h-1z" /><path fill="#d76b43" d="M40 84h1v1h-1z" /><path fill="#c4583b" d="M44 84h1v1h-1z" /><path fill="#f98e4f" d="M58 84h1v1h-1z" /><path fill="#b64a38" d="M77 84h1v1h-1z" /><path fill="#e37747" d="M81 84h1v1h-1z" /><path fill="#f0844c" d="M45 85h1v1h-1zM61 89h1v1h-1z" /><path fill="#cf6440" d="M59 85h1v1h-1z" /><path fill="#f48a4e" d="M77 85h1v1h-1z" /><path fill="#a0332f" d="M81 85h1v1h-1zM46 88h1v1h-1z" /><path fill="#b34536" d="M92 85h1v1h-1zM92 86h1v1h-1zM92 87h1v1h-1z" /><path fill="#e97c48" d="M41 86h1v1h-1z" /><path fill="#b14435" d="M45 86h1v1h-1z" /><path fill="#fe9351" d="M59 86h1v1h-1z" /><path fill="#a1342e" d="M60 86h1v1h-1z" /><path fill="#f2864d" d="M64 86h1v1h-1z" /><path fill="#c85c3e" d="M78 86h1v1h-1z" /><path fill="#b84b37" d="M42 87h1v1h-1z" /><path fill="#e27645" d="M46 87h1v1h-1z" /><path fill="#e47847" d="M60 87h1v1h-1z" /><path fill="#b54836" d="M64 87h1v1h-1z" /><path fill="#fc9251" d="M78 87h1v1h-1z" /><path fill="#9b2d2c" d="M79 87h1v1h-1zM44 90h1v1h-1zM63 92h1v1h-1z" /><path fill="#f88d4e" d="M83 87h1v1h-1z" /><path fill="#fd9150" d="M7 88h1v1h-1z" /><path fill="#f5884c" d="M42 88h1v1h-1z" /><path fill="#fe924f" d="M47 88h1v1h-1z" /><path fill="#b04334" d="M61 88h1v1h-1zM11 92h34v1h-34zM49 92h14v1h-14zM68 92h13v1h-13zM86 92h2v1h-2z" /><path fill="#da6e44" d="M79 88h1v1h-1z" /><path fill="#c0533a" d="M83 88h1v1h-1z" /><path fill="#b14434" d="M92 88h1v1h-1z" /><path fill="#eb7f49" d="M7 89h1v1h-1z" /><path fill="#ca5d3d" d="M43 89h1v1h-1z" /><path fill="#d16440" d="M47 89h1v1h-1z" /><path fill="#a43730" d="M65 89h1v1h-1z" /><path fill="#ef844b" d="M84 89h1v1h-1z" /><path fill="#9e312d" d="M92 89h1v1h-1z" /><path fill="#ae4133" d="M7 90h1v1h-1zM84 90h1v1h-1z" /><path fill="#fd914f" d="M43 90h1v1h-1z" /><path fill="#f88c4d" d="M48 90h1v1h-1z" /><path fill="#c2553b" d="M62 90h1v1h-1z" /><path fill="#d76a42" d="M66 90h1v1h-1z" /><path fill="#ec7f49" d="M80 90h1v1h-1z" /><path fill="#db6e44" d="M91 90h1v1h-1z" /><path fill="#bd5038" d="M8 91h1v1h-1z" /><path fill="#fb8f4e" d="M9 91h1v1h-1zM67 91h1v1h-1z" /><path fill="#dc7043" d="M44 91h1v1h-1z" /><path fill="#be5139" d="M48 91h1v1h-1z" /><path fill="#fa8e4f" d="M62 91h1v1h-1z" /><path fill="#95282a" d="M63 91h1v1h-1z" /><path fill="#bb4e38" d="M81 91h1v1h-1z" /><path fill="#e07345" d="M85 91h1v1h-1z" /><path fill="#da6d43" d="M90 91h1v1h-1z" /><path fill="#912329" d="M91 91h1v1h-1z" /><path fill="#ad4032" d="M10 92h1v1h-1z" /><path fill="#8c1d27" d="M48 92h1v1h-1z" /><path fill="#a53830" d="M67 92h1v1h-1z" /><path fill="#a93c32" d="M81 92h1v1h-1z" /><path fill="#97292b" d="M85 92h1v1h-1z" /><path fill="#b04233" d="M88 92h1v1h-1z" /><path fill="#9e302d" d="M89 92h1v1h-1z" /></svg>