<svg xmlns="http://www.w3.org/2000/svg" viewBox="0 0 100 100"><path fill="#12b7f9" fill-rule="evenodd" stroke="#12b7f9" stroke-width=".1" d="M43 0h1v1h-1zm5 0h4v1h-4z"/><path fill="#11b7fa" fill-rule="evenodd" stroke="#11b7fa" stroke-width=".1" d="M44 0h1v1h-1zm8 0h1v1h-1zm3 0h1v1h-1z"/><path fill="#11b7f9" fill-rule="evenodd" stroke="#11b7f9" stroke-width=".1" d="M45 0h1v1h-1zm9 0h1v1h-1z"/><path fill="#12b7fa" fill-rule="evenodd" stroke="#12b7fa" stroke-width=".1" d="M46 0h2v1h-2zm7 0h1v1h-1z"/><path fill="#12b6f9" fill-rule="evenodd" stroke="#12b6f9" stroke-width=".1" d="M56 0h1v1h-1zm2 73h1v1h-1z"/><path fill="#11b5fa" fill-rule="evenodd" stroke="#11b5fa" stroke-width=".1" d="M38 1h1v1h-1zm-3 1h1v1h-1zm29 0h1v1h-1zm-9 70h6v1h-5v1h-1z"/><path fill="#12b6fa" fill-rule="evenodd" stroke="#12b6fa" stroke-width=".1" d="M39 1h21v1h-21zm18 72h1v1h-1z"/><path fill="#12b5fa" fill-rule="evenodd" stroke="#12b5fa" stroke-width=".1" d="M60 1h2v1h2v1h-28v-1h24z"/><path fill="#12b5f9" fill-rule="evenodd" stroke="#12b5f9" stroke-width=".1" d="M34 2h1v1h-1z"/><path fill="#11b5f9" fill-rule="evenodd" stroke="#11b5f9" stroke-width=".1" d="M65 2h1v1h-1zm-9 71h1v1h-1z"/><path fill="#11b3f9" fill-rule="evenodd" stroke="#11b3f9" stroke-width=".1" d="M32 3h1v1h-1zm-5 2h1v1h-1zm44 0h1v1h-1zm-19 66h1v1h-1z"/><path fill="#11b4fa" fill-rule="evenodd" stroke="#11b4fa" stroke-width=".1" d="M33 3h34v1h2v1h-38v-1h2z"/><path fill="#10b4fa" fill-rule="evenodd" stroke="#10b4fa" stroke-width=".1" d="M67 3h1v1h-1zm3 1h1v1h-1z"/><path fill="#11b4f9" fill-rule="evenodd" stroke="#11b4f9" stroke-width=".1" d="M29 4h1v1h-1zm25 68h1v1h-1z"/><path fill="#10b4f9" fill-rule="evenodd" stroke="#10b4f9" stroke-width=".1" d="M30 4h1v1h-1z"/><path fill="#10b3f9" fill-rule="evenodd" stroke="#10b3f9" stroke-width=".1" d="M69 4h1v1h-1z"/><path fill="#10b2f9" fill-rule="evenodd" stroke="#10b2f9" stroke-width=".1" d="M28 5h1v1h-1z"/><path fill="#11b3fa" fill-rule="evenodd" stroke="#11b3fa" stroke-width=".1" d="M29 5h42v1h-42zm24 66h9v1h-9z"/><path fill="#10b2fa" fill-rule="evenodd" stroke="#10b2fa" stroke-width=".1" d="M72 5h1v1h-1zm-9 65h1v1h-1zm0 1v1h-1v-1z"/><path fill="#11b1f9" fill-rule="evenodd" stroke="#11b1f9" stroke-width=".1" d="M25 6h1v1h-1zm48 0h1v1h-1zm2 1h1v1h-1z"/><path fill="#11b2f9" fill-rule="evenodd" stroke="#11b2f9" stroke-width=".1" d="M26 6h1v1h-1zm26 64h1v1h-1z"/><path fill="#11b2fa" fill-rule="evenodd" stroke="#11b2fa" stroke-width=".1" d="M27 6h46v1h2v1h-50v-1h2zm26 64h10v1h-10z"/><path fill="#10b1f9" fill-rule="evenodd" stroke="#10b1f9" stroke-width=".1" d="M74 6h1v1h-1zm-52 2h1v1h-1z"/><path fill="#10b1fa" fill-rule="evenodd" stroke="#10b1fa" stroke-width=".1" d="M24 7h1v1h52v1h-54v-1h1z"/><path fill="#0fb0f9" fill-rule="evenodd" stroke="#0fb0f9" stroke-width=".1" d="M77 8h1v1h-1zm-26 61h1v1h-1z"/><path fill="#10aff9" fill-rule="evenodd" stroke="#10aff9" stroke-width=".1" d="M21 9h1v1h-1zm10 2h1v1h-1zm12 57h1v1h-1z"/><path fill="#10b0fa" fill-rule="evenodd" stroke="#10b0fa" stroke-width=".1" d="M22 9h56v1h-56zm30 60h12v1h-12z"/><path fill="#0faff9" fill-rule="evenodd" stroke="#0faff9" stroke-width=".1" d="M78 9h1v1h-1zm-59 1h1v1h-1zm15 1h1v1h-1zm9 0h1v1h-1zm38 0h1v1h-1z"/><path fill="#10aef9" fill-rule="evenodd" stroke="#10aef9" stroke-width=".1" d="M20 10h1v1h-1zm-2 1h1v1h-1zm23 0h1v1h-1zm3 0h1v1h-1zm3 1h1v1h-1zm4 56h1v1h-1z"/><path fill="#10affa" fill-rule="evenodd" stroke="#10affa" stroke-width=".1" d="M21 10h59v1h1v1h-36v-1h-14v1h-12v-1h2zm23 58h2v1h-2zm8 0h12v1h-12z"/><path fill="#10aefa" fill-rule="evenodd" stroke="#10aefa" stroke-width=".1" d="M80 10h1v1h-1zm-63 2h10v1h-10zm11 0h1v1h-1zm22 0h32v1h-32z"/><path fill="#0faffa" fill-rule="evenodd" stroke="#0faffa" stroke-width=".1" d="M32 11h2v1h-2zm10 0h1v1h-1z"/><path fill="#0fadf9" fill-rule="evenodd" stroke="#0fadf9" stroke-width=".1" d="M27 12h1v1h-1z"/><path fill="#10adfa" fill-rule="evenodd" stroke="#10adfa" stroke-width=".1" d="M48 12h1v1h-1zm34 0h1v2h-30v-1h29zm-65 1h7v1h-7zm26 54h4v1h-4zm8 0h13v1h-13z"/><path fill="#10adf9" fill-rule="evenodd" stroke="#10adf9" stroke-width=".1" d="M49 12h1v1h-1zm15 55h1v1h-1z"/><path fill="#10acf9" fill-rule="evenodd" stroke="#10acf9" stroke-width=".1" d="M16 13h1v1h-1zm36 0h1v1h-1zm31 0h1v1h-1z"/><path fill="#0facf9" fill-rule="evenodd" stroke="#0facf9" stroke-width=".1" d="M24 13h1v1h-1zm27 0h1v1h-1zm5 2h1v1h-1z"/><path fill="#10acfa" fill-rule="evenodd" stroke="#10acfa" stroke-width=".1" d="M25 13h1v1h-1z"/><path fill="#0eadf9" fill-rule="evenodd" stroke="#0eadf9" stroke-width=".1" d="M15 14h1v1h-1zm69 0h1v1h-1z"/><path fill="#0fadfa" fill-rule="evenodd" stroke="#0fadfa" stroke-width=".1" d="M16 14h6v1h-6zm39 0h29v1h-29zm-13 53h1v1h-1z"/><path fill="#0facfa" fill-rule="evenodd" stroke="#0facfa" stroke-width=".1" d="M22 14h1v1h-1zm-7 1h5v1h-5zm42 0h28v1h-28zm-15 51h6v2h-1v-1h-5zm9 0h13v1h-13z"/><path fill="#0eacf9" fill-rule="evenodd" stroke="#0eacf9" stroke-width=".1" d="M53 14h2v1h-2zm-39 1h1v1h-1zm71 0h1v1h-1zm-21 51h1v1h-1z"/><path fill="#0eacfa" fill-rule="evenodd" stroke="#0eacfa" stroke-width=".1" d="M20 15h1v1h-1z"/><path fill="#0fabf9" fill-rule="evenodd" stroke="#0fabf9" stroke-width=".1" d="M13 16h1v1h-1zm44 0h1v1h-1z"/><path fill="#0fabfa" fill-rule="evenodd" stroke="#0fabfa" stroke-width=".1" d="M14 16h4v1h-4zm45 0h27v1h-27z"/><path fill="#0eabfa" fill-rule="evenodd" stroke="#0eabfa" stroke-width=".1" d="M18 16h1v1h-1z"/><path fill="#0faaf9" fill-rule="evenodd" stroke="#0faaf9" stroke-width=".1" d="M58 16h1v1h-1zm1 1h1v1h-1zm27-1h1v1h-1zm-71 2h1v1h-1zm46 0h1v1h-1zm-19 47h1v1h-1zm5 0h1v1h-1zm3 0h1v1h-1z"/><path fill="#0fa9fa" fill-rule="evenodd" stroke="#0fa9fa" stroke-width=".1" d="M12 17h1v1h-1z"/><path fill="#0faafa" fill-rule="evenodd" stroke="#0faafa" stroke-width=".1" d="M13 17h3v1h-1v1h-3v-1h1zm4 0h1v1h-1zm43 0h27v1h1v1h-26v-1h-2zm-17 48h4v1h-4zm8 0h14v1h-14z"/><path fill="#0fa9f9" fill-rule="evenodd" stroke="#0fa9f9" stroke-width=".1" d="M16 17h1v1h-1zm-5 1h1v1h-1zm77 0h1v1h-1z"/><path fill="#0eaafa" fill-rule="evenodd" stroke="#0eaafa" stroke-width=".1" d="M87 17h1v1h-1z"/><path fill="#0da9f9" fill-rule="evenodd" stroke="#0da9f9" stroke-width=".1" d="M10 19h1v1h-1zm52 0h1v1h-1zm-15 45h1v1h-1z"/><path fill="#0ea9fa" fill-rule="evenodd" stroke="#0ea9fa" stroke-width=".1" d="M11 19h4v1h-4zm52 0h26v1h-26zm-20 45h4v1h-4zm8 0h14v1h-14z"/><path fill="#0da8f9" fill-rule="evenodd" stroke="#0da8f9" stroke-width=".1" d="M89 19h1v1h-1zm-76 2h1v1h-1z"/><path fill="#0ea7f9" fill-rule="evenodd" stroke="#0ea7f9" stroke-width=".1" d="M10 20h1v1h-1zm54 0h1v1h-1zm-52 2h1v1h-1z"/><path fill="#0ea8fa" fill-rule="evenodd" stroke="#0ea8fa" stroke-width=".1" d="M11 20h3v1h-1v1h-3v-1h1zm54 0h25v2h-24v-1h-1z"/><path fill="#0da7fa" fill-rule="evenodd" stroke="#0da7fa" stroke-width=".1" d="M14 20h1v1h-1z"/><path fill="#0da7f9" fill-rule="evenodd" stroke="#0da7f9" stroke-width=".1" d="M9 21h1v1h-1zm81 0h1v1h-1zm1 1h1v1h-1z"/><path fill="#0ea8f9" fill-rule="evenodd" stroke="#0ea8f9" stroke-width=".1" d="M65 21h1v1h-1z"/><path fill="#0da6f9" fill-rule="evenodd" stroke="#0da6f9" stroke-width=".1" d="M8 22h1v1h-1zm57 41h1v1h-1z"/><path fill="#0ea7fa" fill-rule="evenodd" stroke="#0ea7fa" stroke-width=".1" d="M9 22h3v1h-3zm58 0h24v1h-24zm-23 41h1v1h-1zm7 0h14v1h-14z"/><path fill="#0ea6fa" fill-rule="evenodd" stroke="#0ea6fa" stroke-width=".1" d="M66 22h1v1h-1zm-58 1h3v1h-3zm60 0h24v1h-24zm-19 39h16v1h-16z"/><path fill="#0ea5f9" fill-rule="evenodd" stroke="#0ea5f9" stroke-width=".1" d="M11 23h1v1h-1zm56 0h1v1h-1z"/><path fill="#0ea4f9" fill-rule="evenodd" stroke="#0ea4f9" stroke-width=".1" d="M7 24h1v1h-1z"/><path fill="#0ea5fa" fill-rule="evenodd" stroke="#0ea5fa" stroke-width=".1" d="M8 24h3v1h-3zm60 0h24v1h-24z"/><path fill="#0da4f9" fill-rule="evenodd" stroke="#0da4f9" stroke-width=".1" d="M11 24h1v1h-1zm81 0h1v1h-1zm-23 1h1v1h-1z"/><path fill="#0ca5f9" fill-rule="evenodd" stroke="#0ca5f9" stroke-width=".1" d="M6 25h1v1h-1zm87 0h1v1h-1z"/><path fill="#0da5fa" fill-rule="evenodd" stroke="#0da5fa" stroke-width=".1" d="M7 25h3v1h-3zm63 0h23v1h-23z"/><path fill="#0da4fa" fill-rule="evenodd" stroke="#0da4fa" stroke-width=".1" d="M10 25h1v1h-1zm0 1v1h-3v-1zm62 0h21v1h-21zm-23 35h17v1h-17z"/><path fill="#006efb" fill-rule="evenodd" stroke="#006efb" stroke-width=".1" d="M40 25h1v1h-1zm7 74h1v1h-1zm5 0h1v1h-1zm2 0h1v1h-1zm2 0h1v1h-1z"/><path fill="#006ffb" fill-rule="evenodd" stroke="#006ffb" stroke-width=".1" d="M41 25h2v1h-2zm-3 73h2v1h-2zm5 1h1v1h-1zm2 0h2v1h-2zm8 0h1v1h-1z"/><path fill="#0da3f9" fill-rule="evenodd" stroke="#0da3f9" stroke-width=".1" d="M6 26h1v1h-1zm65 0h1v1h-1zm1 1h1v1h-1zm21-1h1v1h-1zm-84 1h1v1h-1zm57 33h1v2h-1z"/><path fill="#0071fb" fill-rule="evenodd" stroke="#0071fb" stroke-width=".1" d="M38 26h6v1h-6zm-3 71h29v1h-29z"/><path fill="#0070fa" fill-rule="evenodd" stroke="#0070fa" stroke-width=".1" d="M44 26h1v1h-1zm17 72h1v1h-1z"/><path fill="#0ca2fa" fill-rule="evenodd" stroke="#0ca2fa" stroke-width=".1" d="M5 27h1v1h-1zm89 0h1v1h-1z"/><path fill="#0da3fa" fill-rule="evenodd" stroke="#0da3fa" stroke-width=".1" d="M6 27h3v1h-3zm67 0h21v1h-21zm-25 33h18v1h-18z"/><path fill="#0171fa" fill-rule="evenodd" stroke="#0171fa" stroke-width=".1" d="M37 27h1v1h-1z"/><path fill="#0172fb" fill-rule="evenodd" stroke="#0172fb" stroke-width=".1" d="M38 27h8v1h-8zm-11 67h1v1h-1zm2 1h1v1h-1zm2 0h38v1h-1v1h-35v-1h-2z"/><path fill="#0171fb" fill-rule="evenodd" stroke="#0171fb" stroke-width=".1" d="M46 27h1v1h-1zm24 68h1v1h-1zm-38 1h1v1h-1z"/><path fill="#0da2f9" fill-rule="evenodd" stroke="#0da2f9" stroke-width=".1" d="M5 28h1v1h-1zm3 0h1v1h-1zm65 0h1v1h-1zm-26 32h1v1h-1z"/><path fill="#0da2fa" fill-rule="evenodd" stroke="#0da2fa" stroke-width=".1" d="M6 28h2v2h-3v-1h1zm68 0h20v1h1v1h-20v-1h-1z"/><path fill="#0173fa" fill-rule="evenodd" stroke="#0173fa" stroke-width=".1" d="M36 28h1v1h-1zm39 64h1v1h-1zm-49 1h1v1h-1z"/><path fill="#0174fb" fill-rule="evenodd" stroke="#0174fb" stroke-width=".1" d="M37 28h10v1h-10zm-2 1h1v1h-1zm-10 63h50v2h-1v-1h-1v1h-46v-1h-1v1h-1z"/><path fill="#0da1f9" fill-rule="evenodd" stroke="#0da1f9" stroke-width=".1" d="M94 28h1v1h-1zm-90 1h1v1h-1zm70 0h1v1h-1zm-23 30h1v1h-1z"/><path fill="#0da1fa" fill-rule="evenodd" stroke="#0da1fa" stroke-width=".1" d="M8 29h1v1h-1zm0 1v1h-3v-1zm68 0h14v1h-14zm16 0h3v1h-3zm-47 29h6v1h-6zm15 0h7v1h-7z"/><path fill="#0275fb" fill-rule="evenodd" stroke="#0275fb" stroke-width=".1" d="M36 29h11v1h-11zm-13 62h54v1h-54z"/><path fill="#0275fa" fill-rule="evenodd" stroke="#0275fa" stroke-width=".1" d="M47 29h1v1h-1zm31 61h1v1h-1z"/><path fill="#0ca1f9" fill-rule="evenodd" stroke="#0ca1f9" stroke-width=".1" d="M95 29h1v1h-1zm-51 30h1v1h-1zm8 0h1v1h-1zm15 0h1v1h-1z"/><path fill="#0da0f9" fill-rule="evenodd" stroke="#0da0f9" stroke-width=".1" d="M4 30h1v1h-1zm38 29h1v1h-1z"/><path fill="#0276fa" fill-rule="evenodd" stroke="#0276fa" stroke-width=".1" d="M35 30h1v1h-1zm19 0h1v1h-1zm-34 59h1v1h-1zm1 1h1v1h-1z"/><path fill="#0277fb" fill-rule="evenodd" stroke="#0277fb" stroke-width=".1" d="M36 30h12v1h-12zm17 0h1v1h-1zm-36 57h1v1h-1zm2 1h63v1h-3v1h-58v-1h-2z"/><path fill="#0176fa" fill-rule="evenodd" stroke="#0176fa" stroke-width=".1" d="M55 30h1v1h-1z"/><path fill="#0da0fa" fill-rule="evenodd" stroke="#0da0fa" stroke-width=".1" d="M75 30h1v1h-1z"/><path fill="#0ca0f9" fill-rule="evenodd" stroke="#0ca0f9" stroke-width=".1" d="M90 30h1v1h-1zm5 0h1v1h-1zm-18 1h1v1h-1zm1 1h1v1h-1z"/><path fill="#0ca0fa" fill-rule="evenodd" stroke="#0ca0fa" stroke-width=".1" d="M4 31h3v2h-3zm74 0h11v1h-2v1h-8v-1h-1zm14 0h4v1h1v1h-4v-1h-1zm-52 27h10v1h-6v1h-1v-1h-3zm23 0h5v1h-5zm-4 1h1v1h-1z"/><path fill="#0b9ff9" fill-rule="evenodd" stroke="#0b9ff9" stroke-width=".1" d="M7 31h1v1h-1zm69 0h1v1h-1zm-70 2h1v1h-1zm64 24h1v1h-1zm-20 1h1v1h-1zm12 0h1v1h-1z"/><path fill="#0278fb" fill-rule="evenodd" stroke="#0278fb" stroke-width=".1" d="M35 31h13v1h-13zm18 0h3v1h-3zm18 55h1v1h11v1h-14v-1h2zm-53 1h37v1h-37zm49 0h1v1h-1z"/><path fill="#0178fa" fill-rule="evenodd" stroke="#0178fa" stroke-width=".1" d="M48 31h1v1h-1zm8 56h2v1h-2zm10 0h1v1h-1z"/><path fill="#0278fa" fill-rule="evenodd" stroke="#0278fa" stroke-width=".1" d="M52 31h1v1h-1zm4 0h1v1h-1zm-6 55h1v1h-1zm33 0h1v1h-1zm-15 1h1v1h-1z"/><path fill="#0ba0fa" fill-rule="evenodd" stroke="#0ba0fa" stroke-width=".1" d="M89 31h1v1h-1z"/><path fill="#0c9ff9" fill-rule="evenodd" stroke="#0c9ff9" stroke-width=".1" d="M3 32h1v1h-1zm78 1h1v1h-1zm-17 24h1v1h-1zm-25 1h1v1h-1zm29 0h1v1h-1z"/><path fill="#037afb" fill-rule="evenodd" stroke="#037afb" stroke-width=".1" d="M35 32h14v1h-14zm16 0h6v1h-5v1h-1zm6 1h1v1h-1zm-42 51h30v1h-30zm63 0h7v1h-7z"/><path fill="#0ba0f9" fill-rule="evenodd" stroke="#0ba0f9" stroke-width=".1" d="M87 32h2v1h-2z"/><path fill="#0c9ffa" fill-rule="evenodd" stroke="#0c9ffa" stroke-width=".1" d="M3 33h3v1h-3zm79 0h1v1h-1zm3 0h1v1h-1zm9 0h3v1h-3zm-56 24h12v1h-12zm27 0h5v1h-5z"/><path fill="#037bfa" fill-rule="evenodd" stroke="#037bfa" stroke-width=".1" d="M34 33h1v1h-1zm14 0h1v1h-1zm-5 50h1v1h-1zm43 0h1v1h-1z"/><path fill="#037bfb" fill-rule="evenodd" stroke="#037bfb" stroke-width=".1" d="M35 33h13v1h-13zm17 0h5v1h-5zm30 48h1v1h-1zm-70 1h1v1h-1zm2 1h29v1h-29zm65 0h7v1h-7z"/><path fill="#0b9ffa" fill-rule="evenodd" stroke="#0b9ffa" stroke-width=".1" d="M83 33h1v1h-1zm-45 25h1v1h-1z"/><path fill="#0b9ef9" fill-rule="evenodd" stroke="#0b9ef9" stroke-width=".1" d="M84 33h1v1h-1zm9 0h1v1h-1zm-91 1h1v1h-1zm4 0h1v1h-1zm91 0h1v1h-1z"/><path fill="#0c9efa" fill-rule="evenodd" stroke="#0c9efa" stroke-width=".1" d="M3 34h3v1h-3zm91 0h3v1h-3zm-57 23h1v1h-1zm34 0h1v1h-1z"/><path fill="#037dfa" fill-rule="evenodd" stroke="#037dfa" stroke-width=".1" d="M34 34h1v1h-1z"/><path fill="#037dfb" fill-rule="evenodd" stroke="#037dfb" stroke-width=".1" d="M35 34h14v1h-14zm17 0h5v1h-5z"/><path fill="#0c9df9" fill-rule="evenodd" stroke="#0c9df9" stroke-width=".1" d="M93 34h1v1h-1zm-28 22h1v1h-1zm9 0h1v1h-1z"/><path fill="#0b9cfa" fill-rule="evenodd" stroke="#0b9cfa" stroke-width=".1" d="M2 35h1v1h-1zm0 2h3v1h-3zm93 0h3v1h-3zm-73 18h6v1h-2v1h-1v-1h-3zm15 0h12v1h-12zm29 0h11v1h-11z"/><path fill="#0c9dfa" fill-rule="evenodd" stroke="#0c9dfa" stroke-width=".1" d="M3 35h3v1h-3zm91 0h4v1h-4zm-68 21h1v1h-1zm11 0h12v1h-12zm29 0h8v1h-8z"/><path fill="#047efb" fill-rule="evenodd" stroke="#047efb" stroke-width=".1" d="M34 35h15v1h-15zm20 0h1v1h-1zm-44 43h25v1h2v1h-26v-1h-1zm77 0h3v1h-1v1h-3v-1h1z"/><path fill="#037efb" fill-rule="evenodd" stroke="#037efb" stroke-width=".1" d="M52 35h1v1h-1zm-19 1h1v1h-1z"/><path fill="#047dfa" fill-rule="evenodd" stroke="#047dfa" stroke-width=".1" d="M53 35h1v1h-1zm2 0h1v1h-1zm-17 45h1v1h-1z"/><path fill="#0b9dfa" fill-rule="evenodd" stroke="#0b9dfa" stroke-width=".1" d="M2 36h4v1h-4zm93 0h3v1h-3z"/><path fill="#047ffb" fill-rule="evenodd" stroke="#047ffb" stroke-width=".1" d="M34 36h15v1h-15zm-25 41h25v1h-25zm79 0h3v1h-3z"/><path fill="#047efa" fill-rule="evenodd" stroke="#047efa" stroke-width=".1" d="M49 36h1v1h-1zm42 41h1v1h-1zm0 1v1h-1v-1zm-82 0h1v1h-1zm1 1h1v1h-1zm25-1h1v1h-1zm51 0h1v1h-1zm0 1v1h-1v-1zm4 0v1h-1v-1zm-53 0h1v1h-1z"/><path fill="#0a9cf9" fill-rule="evenodd" stroke="#0a9cf9" stroke-width=".1" d="M94 36h1v1h-1z"/><path fill="#0b9bfa" fill-rule="evenodd" stroke="#0b9bfa" stroke-width=".1" d="M5 37h1v1h-1zm0 1v2h-4v-2zm90 0h3v2h-3z"/><path fill="#0481fa" fill-rule="evenodd" stroke="#0481fa" stroke-width=".1" d="M33 37h1v1h-1zm56 37h1v1h-1zm-82 1h1v1h-1zm85 0h1v1h-1z"/><path fill="#0481fb" fill-rule="evenodd" stroke="#0481fb" stroke-width=".1" d="M34 37h16v1h-16zm-2 1h1v1h-1zm-24 37h24v1h-24zm81 0h3v1h-3z"/><path fill="#0a9bfa" fill-rule="evenodd" stroke="#0a9bfa" stroke-width=".1" d="M94 37h1v1h-1zm4 1h1v2h-1z"/><path fill="#0582fb" fill-rule="evenodd" stroke="#0582fb" stroke-width=".1" d="M33 38h17v1h-17zm61 34h1v1h-1zm-87 1h22v1h-22zm83 0h3v1h-3z"/><path fill="#0581fa" fill-rule="evenodd" stroke="#0581fa" stroke-width=".1" d="M50 38h1v1h-1zm-21 35h1v1h-1zm64 0h1v1h-1z"/><path fill="#0584fb" fill-rule="evenodd" stroke="#0584fb" stroke-width=".1" d="M32 39h8v1h-8zm15 0h5v1h-5zm-22 30h1v2h1v1h-21v-1h-2v-1h21zm67 1h3v1h-1v1h-3v-1h1z"/><path fill="#0584fa" fill-rule="evenodd" stroke="#0584fa" stroke-width=".1" d="M40 39h1v1h-1zm3 0h2v1h-2zm3 0h1v1h-1zm-42 30h1v1h-1zm87 1h1v1h-1zm-86 1h1v1h-1zm22 0h1v1h-1z"/><path fill="#0483fb" fill-rule="evenodd" stroke="#0483fb" stroke-width=".1" d="M41 39h1v1h-1zm4 0h1v1h-1zm-40 33h1v1h-1z"/><path fill="#0583fb" fill-rule="evenodd" stroke="#0583fb" stroke-width=".1" d="M42 39h1v1h-1zm10 0h1v1h-1zm43 31h1v1h-1zm-89 2h22v1h-22zm85 0h3v1h-3z"/><path fill="#0b9afa" fill-rule="evenodd" stroke="#0b9afa" stroke-width=".1" d="M1 40h3v1h-3zm95 0h2v1h-2zm-76 14h9v1h-9zm16 0h13v1h-13zm31 0h12v1h-12z"/><path fill="#0b99fa" fill-rule="evenodd" stroke="#0b99fa" stroke-width=".1" d="M4 40h1v1h-1zm0 1v1h-3v-1zm92 0h3v1h-3zm-67 13h1v1h-1zm50 0h1v1h-1z"/><path fill="#0685fa" fill-rule="evenodd" stroke="#0685fa" stroke-width=".1" d="M31 40h1v1h-1zm-7 28h1v1h-1z"/><path fill="#0685fb" fill-rule="evenodd" stroke="#0685fb" stroke-width=".1" d="M32 40h5v1h-5zm17 0h9v1h-9zm-46 27h1v1h-1zm7 0h1v1h-1zm-3 1h1v1h-1z"/><path fill="#0585fb" fill-rule="evenodd" stroke="#0585fb" stroke-width=".1" d="M37 40h1v1h-1zm22 0h1v1h-1zm-54 29h3v1h-3zm4 0h16v1h-16zm83 0h3v1h-3z"/><path fill="#0684fa" fill-rule="evenodd" stroke="#0684fa" stroke-width=".1" d="M48 40h1v1h-1zm10 0h1v1h-1z"/><path fill="#0b9af9" fill-rule="evenodd" stroke="#0b9af9" stroke-width=".1" d="M95 40h1v1h-1z"/><path fill="#0b99f9" fill-rule="evenodd" stroke="#0b99f9" stroke-width=".1" d="M98 40h1v1h-1zm-3 1h1v1h-1z"/><path fill="#0a99fa" fill-rule="evenodd" stroke="#0a99fa" stroke-width=".1" d="M4 41h1v1h-1zm15 12h11v1h-11zm17 0h12v1h-12zm31 0h13v1h-13zm0 1v1h-1v-1z"/><path fill="#0687fb" fill-rule="evenodd" stroke="#0687fb" stroke-width=".1" d="M29 41h6v1h-6zm21 0h10v1h-10zm-24 1h1v1h-1zm-12 23h2v1h4v1h-7v-1h1zm-11 1h3v1h-3zm91 0h3v1h-3z"/><path fill="#0687fa" fill-rule="evenodd" stroke="#0687fa" stroke-width=".1" d="M35 41h1v1h-1zm-29 25h1v1h-1zm14 0h1v1h-1zm73 0h1v1h-1z"/><path fill="#0686fa" fill-rule="evenodd" stroke="#0686fa" stroke-width=".1" d="M49 41h1v1h-1zm11 0h1v1h-1zm-48 25h1v1h-1z"/><path fill="#0a98fa" fill-rule="evenodd" stroke="#0a98fa" stroke-width=".1" d="M1 42h3v2h-3zm95 0h3v2h-3zm-48 11h1v1h-1z"/><path fill="#0997f9" fill-rule="evenodd" stroke="#0997f9" stroke-width=".1" d="M4 42h1v1h-1zm54 10h1v1h-1z"/><path fill="#0587fa" fill-rule="evenodd" stroke="#0587fa" stroke-width=".1" d="M27 42h1v1h-1z"/><path fill="#0688fb" fill-rule="evenodd" stroke="#0688fb" stroke-width=".1" d="M28 42h6v1h-6zm22 0h12v1h-12zm-47 23h3v1h-3zm14 0h1v1h-1zm77 0h3v1h-3z"/><path fill="#0688fa" fill-rule="evenodd" stroke="#0688fa" stroke-width=".1" d="M34 42h1v1h-1zm15 0h1v1h-1zm45 21h1v1h-1zm-76 2h1v1h-1z"/><path fill="#0587fb" fill-rule="evenodd" stroke="#0587fb" stroke-width=".1" d="M62 42h1v1h-1zm-46 23h1v1h-1zm77 0h1v1h-1zm4 0h1v1h-1z"/><path fill="#0a98f9" fill-rule="evenodd" stroke="#0a98f9" stroke-width=".1" d="M95 42h1v1h-1z"/><path fill="#0998f9" fill-rule="evenodd" stroke="#0998f9" stroke-width=".1" d="M0 43h1v1h-1zm99 0h1v1h-1z"/><path fill="#0789fb" fill-rule="evenodd" stroke="#0789fb" stroke-width=".1" d="M22 43h1v1h-1zm55 0h1v1h-1zm-75 20h3v1h-3zm93 0h2v1h-2z"/><path fill="#078afa" fill-rule="evenodd" stroke="#078afa" stroke-width=".1" d="M23 43h1v1h-1zm-19 17h1v1h-1zm1 2h1v1h-1z"/><path fill="#078afb" fill-rule="evenodd" stroke="#078afb" stroke-width=".1" d="M24 43h9v1h-9zm9 1h1v1h-1zm17-1h13v1h-13zm23 0h4v1h-4zm-53 1h1v1h-1zm59 0h1v1h-1zm-77 18h3v1h-3zm93 0h3v1h-3z"/><path fill="#0789fa" fill-rule="evenodd" stroke="#0789fa" stroke-width=".1" d="M33 43h1v1h-1zm39 0h1v1h-1z"/><path fill="#068afb" fill-rule="evenodd" stroke="#068afb" stroke-width=".1" d="M71 43h1v1h-1zm27 17h1v2h-1zm-97 1h1v1h-1z"/><path fill="#0a97fa" fill-rule="evenodd" stroke="#0a97fa" stroke-width=".1" d="M0 44h4v1h-4zm96 0h3v1h-3zm-77 8h11v1h-11zm17 0h12v1h-12zm20 0h2v1h-2zm12 0h13v1h-13z"/><path fill="#078bfb" fill-rule="evenodd" stroke="#078bfb" stroke-width=".1" d="M21 44h12v1h-12zm30 0h12v1h-12zm20 0h8v1h-8zm-69 16h2v1h1v1h-3zm93 0h3v2h-3z"/><path fill="#068afa" fill-rule="evenodd" stroke="#068afa" stroke-width=".1" d="M50 44h1v1h-1zm-49 16h1v1h-1z"/><path fill="#078bfa" fill-rule="evenodd" stroke="#078bfa" stroke-width=".1" d="M63 44h1v1h-1z"/><path fill="#068bfb" fill-rule="evenodd" stroke="#068bfb" stroke-width=".1" d="M70 44h1v1h-1z"/><path fill="#0a96fa" fill-rule="evenodd" stroke="#0a96fa" stroke-width=".1" d="M99 44h1v1h-1zm0 1v1h1v1h-3v-1h-1v-1zm-98 0h3v2h-3zm17 6h13v1h-13zm18 0h12v1h-12zm19 0h6v1h-6zm13 0h13v1h-13z"/><path fill="#0a95f9" fill-rule="evenodd" stroke="#0a95f9" stroke-width=".1" d="M0 45h1v1h-1zm99 0h1v1h-1zm-3 1h1v1h-1zm-42 5h1v1h-1z"/><path fill="#068cfb" fill-rule="evenodd" stroke="#068cfb" stroke-width=".1" d="M19 45h1v1h-1z"/><path fill="#078dfb" fill-rule="evenodd" stroke="#078dfb" stroke-width=".1" d="M20 45h12v1h-12zm31 0h12v1h-12zm18 0h11v1h-11zm30 11h1v1h-1zm-98 2h3v1h-3zm95 0h3v1h-3z"/><path fill="#078cfa" fill-rule="evenodd" stroke="#078cfa" stroke-width=".1" d="M32 45h1v1h-1zm18 0h1v1h-1zm-46 13h1v1h-1zm91 0h1v1h-1z"/><path fill="#068dfb" fill-rule="evenodd" stroke="#068dfb" stroke-width=".1" d="M63 45h1v1h-1z"/><path fill="#0995fa" fill-rule="evenodd" stroke="#0995fa" stroke-width=".1" d="M0 46h1v1h-1zm1 1h2v1h-2zm96 0h2v1h-2zm-30 4h1v1h-1zm14 0h1v1h-1z"/><path fill="#088dfb" fill-rule="evenodd" stroke="#088dfb" stroke-width=".1" d="M18 46h1v1h-1z"/><path fill="#088efb" fill-rule="evenodd" stroke="#088efb" stroke-width=".1" d="M19 46h13v1h-13zm32 0h12v1h-12zm18 0h11v1h-11zm-68 10h3v2h-3zm95 0h3v2h-3z"/><path fill="#078efa" fill-rule="evenodd" stroke="#078efa" stroke-width=".1" d="M32 46h1v1h-1zm31 0h1v1h-1zm-63 9h1v1h-1zm99 0h1v1h-1z"/><path fill="#088efa" fill-rule="evenodd" stroke="#088efa" stroke-width=".1" d="M80 46h1v1h-1z"/><path fill="#0994fa" fill-rule="evenodd" stroke="#0994fa" stroke-width=".1" d="M0 47h1v1h-1zm1 1h2v1h-2zm96 0h2v1h-2zm-79 2h13v1h-13zm19 0h10v1h-10zm16 0h8v1h-8zm14 0h14v1h-14z"/><path fill="#0994f9" fill-rule="evenodd" stroke="#0994f9" stroke-width=".1" d="M3 47h1v1h-1z"/><path fill="#0890fa" fill-rule="evenodd" stroke="#0890fa" stroke-width=".1" d="M18 47h1v1h-1zm33 0h1v1h-1zm12 0h1v1h-1z"/><path fill="#0890fb" fill-rule="evenodd" stroke="#0890fb" stroke-width=".1" d="M19 47h13v1h-13zm21 0h4v1h-4zm12 0h11v1h-11zm17 0h12v1h-12zm-23 1h1v1h-1zm-45 5h3v2h-3zm95 0h3v2h-3z"/><path fill="#0790fb" fill-rule="evenodd" stroke="#0790fb" stroke-width=".1" d="M39 47h1v1h-1zm60 7h1v1h-1z"/><path fill="#078ffa" fill-rule="evenodd" stroke="#078ffa" stroke-width=".1" d="M44 47h1v1h-1z"/><path fill="#088ffb" fill-rule="evenodd" stroke="#088ffb" stroke-width=".1" d="M68 47h1v1h-1zm-68 6h1v1h-1zm99 0h1v1h-1zm-98 2h3v1h-3zm95 0h3v1h-3z"/><path fill="#0995f9" fill-rule="evenodd" stroke="#0995f9" stroke-width=".1" d="M96 47h1v1h-1zm-43 4h1v1h-1z"/><path fill="#0895fa" fill-rule="evenodd" stroke="#0895fa" stroke-width=".1" d="M99 47h1v1h-1z"/><path fill="#0894f9" fill-rule="evenodd" stroke="#0894f9" stroke-width=".1" d="M0 48h1v1h-1zm99 0h1v1h-1zm-68 2h1v1h-1zm21 0h1v1h-1z"/><path fill="#0893f9" fill-rule="evenodd" stroke="#0893f9" stroke-width=".1" d="M3 48h1v1h-1zm93 0h1v1h-1zm-60 2h1v1h-1zm11 0h1v1h-1z"/><path fill="#0991fb" fill-rule="evenodd" stroke="#0991fb" stroke-width=".1" d="M18 48h14v1h-14zm21 0h7v1h-7zm12 0h12v1h-12zm17 0h13v1h-13zm-67 4h2v1h-2zm96 0h2v1h-2z"/><path fill="#0990fa" fill-rule="evenodd" stroke="#0990fa" stroke-width=".1" d="M38 48h1v1h-1zm-38 4h1v1h-1zm3 0h1v1h-1zm93 0h1v1h-1z"/><path fill="#0990fb" fill-rule="evenodd" stroke="#0990fb" stroke-width=".1" d="M81 48h1v1h-1zm18 4h1v1h-1z"/><path fill="#0993f9" fill-rule="evenodd" stroke="#0993f9" stroke-width=".1" d="M0 49h1v1h-1zm61 1h1v1h-1z"/><path fill="#0993fa" fill-rule="evenodd" stroke="#0993fa" stroke-width=".1" d="M1 49h2v1h-2zm0 1v1h-1v-1zm36-1h1v1h-1zm60 0h2v1h-2zm2 1h1v1h-1z"/><path fill="#0892fa" fill-rule="evenodd" stroke="#0892fa" stroke-width=".1" d="M3 49h1v1h-1zm93 1h1v1h-1zm-96 1h1v1h-1zm99 0h1v1h-1z"/><path fill="#0993fb" fill-rule="evenodd" stroke="#0993fb" stroke-width=".1" d="M18 49h13v1h-13zm20 0h9v1h-9zm14 0h10v1h-10zm16 0h13v1h-13zm-67 1h2v1h-2zm96 0h2v1h-2z"/><path fill="#0893fa" fill-rule="evenodd" stroke="#0893fa" stroke-width=".1" d="M31 49h1v1h-1zm31 0h1v1h-1zm34 0h1v1h-1zm-93 1h1v1h-1z"/><path fill="#0992fb" fill-rule="evenodd" stroke="#0992fb" stroke-width=".1" d="M81 49h1v1h-1zm-80 2h2v1h-2zm96 0h2v1h-2z"/><path fill="#0992f9" fill-rule="evenodd" stroke="#0992f9" stroke-width=".1" d="M99 49h1v1h-1z"/><path fill="#0894fa" fill-rule="evenodd" stroke="#0894fa" stroke-width=".1" d="M81 50h1v1h-1z"/><path fill="#0991fa" fill-rule="evenodd" stroke="#0991fa" stroke-width=".1" d="M3 51h1v1h-1z"/><path fill="#0891fa" fill-rule="evenodd" stroke="#0891fa" stroke-width=".1" d="M96 51h1v1h-1z"/><path fill="#0996fa" fill-rule="evenodd" stroke="#0996fa" stroke-width=".1" d="M18 52h1v1h-1zm30 0h1v1h-1z"/><path fill="#0a96f9" fill-rule="evenodd" stroke="#0a96f9" stroke-width=".1" d="M30 52h1v1h-1zm37 0h1v1h-1z"/><path fill="#0a97f9" fill-rule="evenodd" stroke="#0a97f9" stroke-width=".1" d="M55 52h1v1h-1z"/><path fill="#0999fa" fill-rule="evenodd" stroke="#0999fa" stroke-width=".1" d="M30 53h1v1h-1z"/><path fill="#0999f9" fill-rule="evenodd" stroke="#0999f9" stroke-width=".1" d="M80 53h1v1h-1z"/><path fill="#078ffb" fill-rule="evenodd" stroke="#078ffb" stroke-width=".1" d="M0 54h1v1h-1z"/><path fill="#0a9af9" fill-rule="evenodd" stroke="#0a9af9" stroke-width=".1" d="M19 54h1v1h-1z"/><path fill="#0b9cf9" fill-rule="evenodd" stroke="#0b9cf9" stroke-width=".1" d="M21 55h1v1h-1zm7 0h1v1h-1zm49 0h1v1h-1z"/><path fill="#0b9bf9" fill-rule="evenodd" stroke="#0b9bf9" stroke-width=".1" d="M36 55h1v1h-1z"/><path fill="#0a9bf9" fill-rule="evenodd" stroke="#0a9bf9" stroke-width=".1" d="M78 55h1v1h-1z"/><path fill="#078efb" fill-rule="evenodd" stroke="#078efb" stroke-width=".1" d="M0 56h1v1h-1zm4 1h1v1h-1z"/><path fill="#0c9cf9" fill-rule="evenodd" stroke="#0c9cf9" stroke-width=".1" d="M22 56h1v1h-1zm14 0h1v1h-1z"/><path fill="#0c9cfa" fill-rule="evenodd" stroke="#0c9cfa" stroke-width=".1" d="M23 56h1v1h-1z"/><path fill="#0b9df9" fill-rule="evenodd" stroke="#0b9df9" stroke-width=".1" d="M24 56h1v1h-1zm25 0h1v1h-1zm26 0h1v1h-1z"/><path fill="#078cfb" fill-rule="evenodd" stroke="#078cfb" stroke-width=".1" d="M1 59h3v1h-3zm95 0h3v1h-3z"/><path fill="#068cfa" fill-rule="evenodd" stroke="#068cfa" stroke-width=".1" d="M4 59h1v1h-1z"/><path fill="#0ca1fa" fill-rule="evenodd" stroke="#0ca1fa" stroke-width=".1" d="M41 59h1v1h-1z"/><path fill="#068bfa" fill-rule="evenodd" stroke="#068bfa" stroke-width=".1" d="M95 59h1v1h-1z"/><path fill="#0ea6f9" fill-rule="evenodd" stroke="#0ea6f9" stroke-width=".1" d="M65 62h1v1h-1zm-20 1h1v1h-1zm5 0h1v1h-1z"/><path fill="#0689fa" fill-rule="evenodd" stroke="#0689fa" stroke-width=".1" d="M94 62h1v1h-1zm-89 1h1v1h-1z"/><path fill="#0788fa" fill-rule="evenodd" stroke="#0788fa" stroke-width=".1" d="M97 63h1v1h-1z"/><path fill="#0588fb" fill-rule="evenodd" stroke="#0588fb" stroke-width=".1" d="M2 64h1v2h-1zm95 0h1v1h-1zm-91 1h1v1h-1z"/><path fill="#0689fb" fill-rule="evenodd" stroke="#0689fb" stroke-width=".1" d="M3 64h3v1h-3zm91 0h3v1h-3z"/><path fill="#0da9fa" fill-rule="evenodd" stroke="#0da9fa" stroke-width=".1" d="M50 64h1v1h-1z"/><path fill="#0686fb" fill-rule="evenodd" stroke="#0686fb" stroke-width=".1" d="M21 66h1v2h2v1h-14v-1h1v-1h10zm-17 1h3v2h-3zm89 0h4v1h-1v1h-4v-1h1z"/><path fill="#0586fa" fill-rule="evenodd" stroke="#0586fa" stroke-width=".1" d="M22 67h1v1h-1zm-13 1h1v1h-1z"/><path fill="#0faef9" fill-rule="evenodd" stroke="#0faef9" stroke-width=".1" d="M46 68h1v1h-1z"/><path fill="#0485fa" fill-rule="evenodd" stroke="#0485fa" stroke-width=".1" d="M8 69h1v1h-1z"/><path fill="#0585fa" fill-rule="evenodd" stroke="#0585fa" stroke-width=".1" d="M95 69h1v1h-1z"/><path fill="#0484fb" fill-rule="evenodd" stroke="#0484fb" stroke-width=".1" d="M26 70h1v1h-1z"/><path fill="#0583fa" fill-rule="evenodd" stroke="#0583fa" stroke-width=".1" d="M94 71h1v1h-1z"/><path fill="#0582fa" fill-rule="evenodd" stroke="#0582fa" stroke-width=".1" d="M28 72h1v1h-1zm62 0h1v1h-1zm-84 1h1v1h-1z"/><path fill="#10b5fa" fill-rule="evenodd" stroke="#10b5fa" stroke-width=".1" d="M61 72h1v1h-1z"/><path fill="#11b6f9" fill-rule="evenodd" stroke="#11b6f9" stroke-width=".1" d="M59 73h1v1h-1z"/><path fill="#0580fb" fill-rule="evenodd" stroke="#0580fb" stroke-width=".1" d="M6 74h1v1h-1zm25 0h1v1h-1zm62 0h1v1h-1z"/><path fill="#0581fb" fill-rule="evenodd" stroke="#0581fb" stroke-width=".1" d="M7 74h24v1h-24zm83 0h3v1h-3z"/><path fill="#0480fa" fill-rule="evenodd" stroke="#0480fa" stroke-width=".1" d="M32 75h1v1h-1z"/><path fill="#0380fb" fill-rule="evenodd" stroke="#0380fb" stroke-width=".1" d="M88 75h1v1h-1zm-55 1h1v1h-1z"/><path fill="#0480fb" fill-rule="evenodd" stroke="#0480fb" stroke-width=".1" d="M8 76h25v1h-25zm81 0h3v1h-3z"/><path fill="#047ffa" fill-rule="evenodd" stroke="#047ffa" stroke-width=".1" d="M88 76h1v1h-1zm0 1v1h-1v-1zm-80 0h1v1h-1zm26 0h1v1h-1z"/><path fill="#037cfb" fill-rule="evenodd" stroke="#037cfb" stroke-width=".1" d="M10 80h1v1h-1zm79 0h1v1h-1zm-77 1h28v1h1v1h-28v-1h-1zm72 0h4v2h-6v-1h2z"/><path fill="#047dfb" fill-rule="evenodd" stroke="#047dfb" stroke-width=".1" d="M11 80h27v1h-27zm74 0h4v1h-4z"/><path fill="#047cfa" fill-rule="evenodd" stroke="#047cfa" stroke-width=".1" d="M84 80h1v1h-1z"/><path fill="#027bfb" fill-rule="evenodd" stroke="#027bfb" stroke-width=".1" d="M11 81h1v1h-1z"/><path fill="#037cfa" fill-rule="evenodd" stroke="#037cfa" stroke-width=".1" d="M40 81h1v1h-1zm1 1h1v1h-1zm42-1h1v1h-1zm-2 1h1v1h-1z"/><path fill="#027cfb" fill-rule="evenodd" stroke="#027cfb" stroke-width=".1" d="M88 81h1v1h-1z"/><path fill="#037afa" fill-rule="evenodd" stroke="#037afa" stroke-width=".1" d="M13 83h1v1h-1zm32 1h1v1h-1zm40 0h1v1h-1z"/><path fill="#0379fa" fill-rule="evenodd" stroke="#0379fa" stroke-width=".1" d="M14 84h1v1h-1zm1 1h1v1h-1zm60 0h1v1h-1zm9 0h1v1h-1z"/><path fill="#0379fb" fill-rule="evenodd" stroke="#0379fb" stroke-width=".1" d="M77 84h1v1h6v1h-8v-1h1zm-61 1h31v1h-31z"/><path fill="#0378fa" fill-rule="evenodd" stroke="#0378fa" stroke-width=".1" d="M47 85h1v1h-1zm27 0h1v1h-1z"/><path fill="#0279fa" fill-rule="evenodd" stroke="#0279fa" stroke-width=".1" d="M48 85h1v1h-1zm-32 1h1v1h-1zm56 0h1v1h-1z"/><path fill="#0279fb" fill-rule="evenodd" stroke="#0279fb" stroke-width=".1" d="M17 86h33v1h-33zm56 0h10v1h-10z"/><path fill="#0179fa" fill-rule="evenodd" stroke="#0179fa" stroke-width=".1" d="M51 86h1v1h-1z"/><path fill="#0179fb" fill-rule="evenodd" stroke="#0179fb" stroke-width=".1" d="M70 86h1v1h-1z"/><path fill="#0277fa" fill-rule="evenodd" stroke="#0277fa" stroke-width=".1" d="M55 87h1v1h-1zm24 2h1v1h-1z"/><path fill="#0178fb" fill-rule="evenodd" stroke="#0178fb" stroke-width=".1" d="M58 87h1v1h-1zm7 0h1v1h-1z"/><path fill="#0177fb" fill-rule="evenodd" stroke="#0177fb" stroke-width=".1" d="M64 87h1v1h-1zm16 2h1v1h-1z"/><path fill="#0276fb" fill-rule="evenodd" stroke="#0276fb" stroke-width=".1" d="M18 88h1v1h-1zm4 2h56v1h-56z"/><path fill="#0175fa" fill-rule="evenodd" stroke="#0175fa" stroke-width=".1" d="M22 91h1v1h-1zm55 0h1v1h-1z"/><path fill="#0174fa" fill-rule="evenodd" stroke="#0174fa" stroke-width=".1" d="M24 92h1v1h-1zm49 1h1v1h-1z"/><path fill="#0172fa" fill-rule="evenodd" stroke="#0172fa" stroke-width=".1" d="M28 94h1v1h-1zm43 0h2v1h-2zm-41 1h1v1h-1zm39 0h1v1h-1z"/><path fill="#0173fb" fill-rule="evenodd" stroke="#0173fb" stroke-width=".1" d="M29 94h42v1h-42z"/><path fill="#0070fb" fill-rule="evenodd" stroke="#0070fb" stroke-width=".1" d="M34 97h1v1h-1zm30 0h2v1h-2zm-24 1h20v1h-20z"/><path fill="#006ffa" fill-rule="evenodd" stroke="#006ffa" stroke-width=".1" d="M60 98h1v1h-1z"/><path fill="#006efa" fill-rule="evenodd" stroke="#006efa" stroke-width=".1" d="M44 99h1v1h-1zm4 0h4v1h-4zm7 0h1v1h-1z"/></svg>