<svg xmlns="http://www.w3.org/2000/svg" viewBox="0 0 100 100" width="1em" height="1em"><path fill="#006efb" d="M43 0h1v1h-1zM46 0h2v1h-2zM52 0h2v1h-2zM56 0h1v1h-1zM64 2h1v1h-1zM32 3h1v1h-1zM67 3h1v1h-1zM29 4h1v1h-1zM27 5h1v1h-1zM25 6h1v1h-1zM74 6h1v1h-1zM19 10h1v1h-1zM80 10h1v1h-1zM18 11h1v1h-1zM81 11h1v1h-1zM87 17h1v1h-1zM11 18h1v1h-1zM88 18h1v1h-1zM89 19h1v1h-1zM5 27h1v1h-1zM94 27h1v1h-1zM4 29h1v1h-1zM95 29h1v1h-1zM3 32h1v1h-1zM96 32h1v1h-1zM97 35h1v1h-1zM1 38h1v1h-1zM99 43h1v1h-1zM99 45h1v1h-1zM99 54h1v1h-1zM0 56h1v1h-1zM1 61h1v1h-1zM98 61h1v1h-1zM2 64h1v1h-1zM2 65h1v1h-1zM97 65h1v1h-1zM96 67h1v1h-1zM95 70h1v1h-1zM5 72h1v1h-1zM6 74h1v1h-1zM10 80h1v1h-1zM89 80h1v1h-1zM11 81h1v1h-1zM12 82h1v1h-1zM17 87h1v1h-1zM82 87h1v1h-1zM18 88h1v1h-1zM80 89h1v1h-1zM27 94h1v1h-1zM29 95h1v1h-1zM32 96h1v1h-1zM34 97h2v1h-2zM65 97h1v1h-1zM39 98h1v1h-1zM47 99h1v1h-1zM52 99h1v1h-1zM54 99h1v1h-1zM56 99h1v1h-1z" /><path fill="#006efa" d="M44 0h1v1h-1zM49 0h2v1h-2zM60 1h1v1h-1zM26 6h1v1h-1zM73 6h1v1h-1zM75 7h1v1h-1zM78 9h1v1h-1zM14 15h1v1h-1zM9 21h1v1h-1zM91 22h1v1h-1zM93 26h1v1h-1zM5 28h1v1h-1zM4 30h1v1h-1zM95 30h1v1h-1zM0 44h1v1h-1zM99 44h1v1h-1zM0 48h1v1h-1zM99 48h1v1h-1zM0 49h1v1h-1zM0 50h1v1h-1zM0 51h1v1h-1zM99 51h1v1h-1zM0 55h1v1h-1zM99 55h1v1h-1zM4 69h1v1h-1zM5 71h1v1h-1zM6 73h1v1h-1zM7 75h1v1h-1zM92 75h1v1h-1zM13 83h1v1h-1zM86 83h1v1h-1zM14 84h1v1h-1zM15 85h1v1h-1zM84 85h1v1h-1zM16 86h1v1h-1zM20 89h1v1h-1zM21 90h1v1h-1zM78 90h1v1h-1zM22 91h1v1h-1zM24 92h1v1h-1zM26 93h1v1h-1zM71 94h1v1h-1zM60 98h1v1h-1zM44 99h1v1h-1zM48 99h4v1h-4zM55 99h1v1h-1z" /><path fill="#006ffb" d="M45 0h1v1h-1zM54 0h1v1h-1zM38 1h22v1h-22zM34 2h30v1h-30zM65 2h1v1h-1zM33 3h34v1h-34zM31 4h38v1h-38zM70 4h1v1h-1zM29 5h42v1h-42zM27 6h46v1h-46zM25 7h50v1h-50zM23 8h54v1h-54zM22 9h56v1h-56zM21 10h58v1h-58zM19 11h62v1h-62zM17 12h66v1h-66zM17 13h66v1h-66zM16 14h68v1h-68zM15 15h70v1h-70zM14 16h72v1h-72zM12 17h75v1h-75zM12 18h76v1h-76zM10 19h79v1h-79zM11 20h78v1h-78zM10 21h80v1h-80zM9 22h82v1h-82zM8 23h41v1h-41zM51 23h41v1h-41zM8 24h41v1h-41zM51 24h41v1h-41zM6 25h43v1h-43zM51 25h43v1h-43zM7 26h41v1h-41zM52 26h41v1h-41zM6 27h42v1h-42zM52 27h42v1h-42zM6 28h42v1h-42zM52 28h42v1h-42zM5 29h42v1h-42zM53 29h42v1h-42zM5 30h42v1h-42zM53 30h42v1h-42zM4 31h43v1h-43zM53 31h43v1h-43zM4 32h16v1h-16zM21 32h26v1h-26zM53 32h26v1h-26zM80 32h16v1h-16zM3 33h17v1h-17zM22 33h25v1h-25zM53 33h25v1h-25zM80 33h17v1h-17zM2 34h17v1h-17zM22 34h24v1h-24zM54 34h24v1h-24zM81 34h17v1h-17zM2 35h17v1h-17zM22 35h24v1h-24zM54 35h24v1h-24zM81 35h16v1h-16zM2 36h16v1h-16zM22 36h24v1h-24zM54 36h24v1h-24zM82 36h16v1h-16zM2 37h16v1h-16zM22 37h24v1h-24zM54 37h24v1h-24zM82 37h16v1h-16zM2 38h16v1h-16zM23 38h23v1h-23zM54 38h23v1h-23zM82 38h17v1h-17zM2 39h16v1h-16zM23 39h23v1h-23zM54 39h23v1h-23zM82 39h17v1h-17zM1 40h16v1h-16zM23 40h23v1h-23zM54 40h23v1h-23zM83 40h16v1h-16zM1 41h16v1h-16zM23 41h23v1h-23zM54 41h23v1h-23zM83 41h16v1h-16zM1 42h16v1h-16zM23 42h23v1h-23zM54 42h23v1h-23zM83 42h16v1h-16zM0 43h17v1h-17zM23 43h23v1h-23zM54 43h23v1h-23zM83 43h16v1h-16zM1 44h16v1h-16zM23 44h23v1h-23zM54 44h23v1h-23zM83 44h16v1h-16zM0 45h17v1h-17zM23 45h23v1h-23zM54 45h23v1h-23zM83 45h16v1h-16zM0 46h16v1h-16zM23 46h24v1h-24zM53 46h24v1h-24zM84 46h16v1h-16zM1 47h15v1h-15zM23 47h23v1h-23zM54 47h23v1h-23zM84 47h16v1h-16zM1 48h15v1h-15zM23 48h23v1h-23zM54 48h23v1h-23zM84 48h15v1h-15zM1 49h15v1h-15zM24 49h22v1h-22zM54 49h22v1h-22zM84 49h15v1h-15zM1 50h16v1h-16zM24 50h22v1h-22zM54 50h22v1h-22zM83 50h16v1h-16zM1 51h16v1h-16zM24 51h22v1h-22zM54 51h22v1h-22zM83 51h16v1h-16zM1 52h16v1h-16zM24 52h21v1h-21zM55 52h21v1h-21zM83 52h17v1h-17zM0 53h17v1h-17zM25 53h20v1h-20zM55 53h20v1h-20zM83 53h17v1h-17zM0 54h17v1h-17zM25 54h19v1h-19zM56 54h19v1h-19zM83 54h16v1h-16zM1 55h16v1h-16zM26 55h18v1h-18zM56 55h18v1h-18zM83 55h16v1h-16zM1 56h16v1h-16zM27 56h16v1h-16zM57 56h16v1h-16zM83 56h17v1h-17zM1 57h17v1h-17zM28 57h13v1h-13zM59 57h13v1h-13zM82 57h17v1h-17zM1 58h17v1h-17zM30 58h10v1h-10zM60 58h10v1h-10zM82 58h17v1h-17zM1 59h17v1h-17zM33 59h4v1h-4zM63 59h4v1h-4zM82 59h17v1h-17zM2 60h17v1h-17zM49 60h2v1h-2zM81 60h18v1h-18zM2 61h17v1h-17zM48 61h4v1h-4zM81 61h17v1h-17zM2 62h17v1h-17zM47 62h6v1h-6zM81 62h17v1h-17zM2 63h18v1h-18zM46 63h8v1h-8zM80 63h17v1h-17zM3 64h17v1h-17zM44 64h12v1h-12zM80 64h18v1h-18zM3 65h18v1h-18zM42 65h16v1h-16zM79 65h18v1h-18zM3 66h19v1h-19zM31 66h1v1h-1zM38 66h24v1h-24zM68 66h1v1h-1zM78 66h19v1h-19zM3 67h19v1h-19zM32 67h36v1h-36zM78 67h18v1h-18zM4 68h19v1h-19zM33 68h34v1h-34zM77 68h19v1h-19zM5 69h19v1h-19zM34 69h32v1h-32zM76 69h19v1h-19zM4 70h21v1h-21zM36 70h28v1h-28zM75 70h20v1h-20zM6 71h20v1h-20zM37 71h26v1h-26zM74 71h20v1h-20zM6 72h20v1h-20zM39 72h22v1h-22zM74 72h21v1h-21zM7 73h21v1h-21zM42 73h16v1h-16zM72 73h21v1h-21zM7 74h22v1h-22zM46 74h8v1h-8zM71 74h23v1h-23zM8 75h22v1h-22zM70 75h22v1h-22zM8 76h24v1h-24zM69 76h23v1h-23zM9 77h24v1h-24zM67 77h24v1h-24zM10 78h25v1h-25zM65 78h25v1h-25zM11 79h26v1h-26zM63 79h26v1h-26zM11 80h29v1h-29zM60 80h29v1h-29zM12 81h33v1h-33zM55 81h34v1h-34zM13 82h75v1h-75zM14 83h72v1h-72zM15 84h70v1h-70zM16 85h68v1h-68zM17 86h66v1h-66zM18 87h64v1h-64zM19 88h63v1h-63zM21 89h58v1h-58zM22 90h56v1h-56zM23 91h54v1h-54zM25 92h50v1h-50zM25 93h1v1h-1zM27 93h46v1h-46zM74 93h1v1h-1zM29 94h42v1h-42zM31 95h38v1h-38zM70 95h1v1h-1zM33 96h35v1h-35zM36 97h29v1h-29zM38 98h1v1h-1zM40 98h20v1h-20zM43 99h1v1h-1zM45 99h2v1h-2zM53 99h1v1h-1z" /><path fill="#006ffa" d="M48 0h1v1h-1zM51 0h1v1h-1zM55 0h1v1h-1zM61 1h1v1h-1zM30 4h1v1h-1zM69 4h1v1h-1zM28 5h1v1h-1zM71 5h2v1h-2zM24 7h1v1h-1zM22 8h1v1h-1zM77 8h1v1h-1zM21 9h1v1h-1zM20 10h1v1h-1zM79 10h1v1h-1zM16 13h1v1h-1zM83 13h1v1h-1zM15 14h1v1h-1zM84 14h1v1h-1zM85 15h1v1h-1zM13 16h1v1h-1zM86 16h1v1h-1zM10 20h1v1h-1zM89 20h1v1h-1zM90 21h1v1h-1zM8 22h1v1h-1zM7 24h1v1h-1zM92 24h1v1h-1zM6 26h1v1h-1zM94 28h1v1h-1zM1 39h1v1h-1zM0 47h1v1h-1zM99 49h1v1h-1zM99 50h1v1h-1zM0 52h1v1h-1zM1 60h1v1h-1zM97 63h1v1h-1zM95 69h1v1h-1zM94 71h1v1h-1zM93 73h1v1h-1zM8 77h1v1h-1zM91 77h1v1h-1zM9 78h1v1h-1zM90 78h1v1h-1zM10 79h1v1h-1zM89 79h1v1h-1zM85 84h1v1h-1zM83 86h1v1h-1zM79 89h1v1h-1zM77 91h1v1h-1zM75 92h1v1h-1zM73 93h1v1h-1zM28 94h1v1h-1zM72 94h1v1h-1zM30 95h1v1h-1zM69 95h1v1h-1zM61 98h1v1h-1z" /><path fill="#338cfc" d="M49 23h1v1h-1zM53 35h1v1h-1zM24 53h1v1h-1z" /><path fill="#328bfc" d="M50 23h1v1h-1zM76 68h1v1h-1z" /><path fill="#84bafd" d="M49 24h2v1h-2z" /><path fill="#d0e4fe" d="M49 25h1v1h-1zM78 64h1v1h-1z" /><path fill="#cfe4fe" d="M50 25h1v1h-1zM77 45h1v1h-1z" /><path fill="#1a7efb" d="M48 26h1v1h-1z" /><path fill="#fefeff" d="M49 26h2v1h-2zM47 34h1v1h-1zM52 34h1v1h-1zM47 45h1v1h-1zM52 45h1v1h-1zM44 56h1v1h-1zM55 56h1v1h-1zM22 65h1v1h-1zM77 65h1v1h-1zM45 75h1v1h-1zM54 75h1v1h-1z" /><path fill="#1b7efb" d="M51 26h1v1h-1zM30 66h1v1h-1zM69 66h1v1h-1z" /><path fill="#65a8fd" d="M48 27h1v1h-1zM56 56h1v1h-1z" /><path fill="#ffffff" d="M49 27h2v1h-2zM49 28h2v1h-2zM49 29h2v1h-2zM48 30h4v1h-4zM48 31h4v1h-4zM48 32h4v1h-4zM48 33h4v1h-4zM48 34h4v1h-4zM20 35h1v1h-1zM47 35h6v1h-6zM79 35h1v1h-1zM20 36h1v1h-1zM47 36h6v1h-6zM79 36h1v1h-1zM19 37h2v1h-2zM47 37h6v1h-6zM79 37h2v1h-2zM19 38h2v1h-2zM47 38h6v1h-6zM79 38h2v1h-2zM19 39h3v1h-3zM47 39h6v1h-6zM78 39h3v1h-3zM18 40h4v1h-4zM47 40h6v1h-6zM78 40h4v1h-4zM18 41h4v1h-4zM47 41h6v1h-6zM78 41h4v1h-4zM18 42h4v1h-4zM47 42h6v1h-6zM78 42h4v1h-4zM18 43h4v1h-4zM47 43h6v1h-6zM78 43h4v1h-4zM18 44h4v1h-4zM47 44h6v1h-6zM78 44h4v1h-4zM18 45h4v1h-4zM48 45h4v1h-4zM78 45h4v1h-4zM18 46h4v1h-4zM48 46h4v1h-4zM78 46h4v1h-4zM17 47h5v1h-5zM48 47h4v1h-4zM78 47h5v1h-5zM17 48h5v1h-5zM47 48h6v1h-6zM78 48h5v1h-5zM17 49h6v1h-6zM47 49h6v1h-6zM77 49h6v1h-6zM18 50h5v1h-5zM47 50h6v1h-6zM77 50h5v1h-5zM18 51h5v1h-5zM47 51h6v1h-6zM77 51h5v1h-5zM18 52h5v1h-5zM47 52h6v1h-6zM77 52h5v1h-5zM18 53h5v1h-5zM46 53h8v1h-8zM77 53h5v1h-5zM18 54h6v1h-6zM46 54h8v1h-8zM76 54h6v1h-6zM18 55h7v1h-7zM45 55h10v1h-10zM75 55h7v1h-7zM19 56h6v1h-6zM45 56h10v1h-10zM75 56h6v1h-6zM19 57h7v1h-7zM44 57h12v1h-12zM74 57h7v1h-7zM19 58h9v1h-9zM42 58h7v1h-7zM51 58h7v1h-7zM72 58h9v1h-9zM20 59h9v1h-9zM41 59h7v1h-7zM52 59h7v1h-7zM71 59h9v1h-9zM20 60h12v1h-12zM38 60h9v1h-9zM53 60h9v1h-9zM68 60h12v1h-12zM20 61h26v1h-26zM54 61h26v1h-26zM21 62h24v1h-24zM55 62h24v1h-24zM21 63h22v1h-22zM57 63h22v1h-22zM22 64h19v1h-19zM59 64h19v1h-19zM23 65h6v1h-6zM32 65h6v1h-6zM62 65h6v1h-6zM71 65h6v1h-6zM23 66h6v1h-6zM71 66h6v1h-6zM24 67h6v1h-6zM70 67h6v1h-6zM25 68h6v1h-6zM69 68h6v1h-6zM25 69h7v1h-7zM68 69h7v1h-7zM26 70h7v1h-7zM67 70h7v1h-7zM27 71h8v1h-8zM65 71h8v1h-8zM28 72h9v1h-9zM63 72h9v1h-9zM30 73h9v1h-9zM61 73h9v1h-9zM31 74h10v1h-10zM59 74h10v1h-10zM32 75h13v1h-13zM55 75h13v1h-13zM34 76h32v1h-32zM36 77h28v1h-28zM38 78h24v1h-24zM41 79h18v1h-18zM45 80h10v1h-10z" /><path fill="#63a7fd" d="M51 27h1v1h-1zM75 69h1v1h-1z" /><path fill="#aed1fe" d="M48 28h1v1h-1zM22 43h1v1h-1z" /><path fill="#acd0fe" d="M51 28h1v1h-1z" /><path fill="#0572fb" d="M47 29h1v1h-1zM44 54h1v1h-1zM35 70h1v1h-1zM37 79h1v1h-1zM62 79h1v1h-1z" /><path fill="#f0f7ff" d="M48 29h1v1h-1zM17 45h1v1h-1z" /><path fill="#f1f7ff" d="M51 29h1v1h-1zM47 60h1v1h-1zM64 77h1v1h-1z" /><path fill="#0672fb" d="M52 29h1v1h-1zM64 70h1v1h-1z" /><path fill="#3e92fc" d="M47 30h1v1h-1zM55 74h1v1h-1z" /><path fill="#3d91fc" d="M52 30h1v1h-1zM21 65h1v1h-1zM44 74h1v1h-1z" /><path fill="#75b1fd" d="M47 31h1v1h-1z" /><path fill="#73b0fd" d="M52 31h1v1h-1z" /><path fill="#0c76fb" d="M20 32h1v1h-1zM79 32h1v1h-1zM17 56h1v1h-1z" /><path fill="#a8cefe" d="M47 32h1v1h-1zM52 32h1v1h-1zM39 59h1v1h-1z" /><path fill="#97c4fd" d="M20 33h1v1h-1z" /><path fill="#0773fb" d="M21 33h1v1h-1zM78 33h1v1h-1zM16 49h1v1h-1zM83 49h1v1h-1zM45 63h1v1h-1zM54 63h1v1h-1z" /><path fill="#deecfe" d="M47 33h1v1h-1zM81 39h1v1h-1z" /><path fill="#ddecfe" d="M52 33h1v1h-1zM17 44h1v1h-1zM31 68h1v1h-1z" /><path fill="#96c4fd" d="M79 33h1v1h-1zM18 38h1v1h-1zM42 64h1v1h-1z" /><path fill="#197dfb" d="M19 34h1v1h-1zM32 66h1v1h-1zM67 66h1v1h-1zM31 67h1v1h-1z" /><path fill="#f9fcff" d="M20 34h1v1h-1zM79 34h1v1h-1zM32 60h1v1h-1zM56 63h1v1h-1z" /><path fill="#388ffc" d="M21 34h1v1h-1zM51 60h1v1h-1z" /><path fill="#137afb" d="M46 34h1v1h-1zM53 34h1v1h-1zM83 48h1v1h-1zM76 49h1v1h-1z" /><path fill="#398ffc" d="M78 34h1v1h-1zM46 41h1v1h-1z" /><path fill="#187dfb" d="M80 34h1v1h-1zM30 75h1v1h-1z" /><path fill="#7eb6fd" d="M19 35h1v1h-1zM82 54h1v1h-1z" /><path fill="#6babfd" d="M21 35h1v1h-1zM22 41h1v1h-1z" /><path fill="#348cfc" d="M46 35h1v1h-1zM23 68h1v1h-1zM46 81h1v1h-1zM53 81h1v1h-1z" /><path fill="#6dadfd" d="M78 35h1v1h-1zM23 51h1v1h-1zM71 73h1v1h-1z" /><path fill="#7bb4fd" d="M80 35h1v1h-1z" /><path fill="#0471fb" d="M18 36h1v1h-1zM55 54h1v1h-1zM20 64h1v1h-1zM79 64h1v1h-1z" /><path fill="#e3efff" d="M19 36h1v1h-1zM36 60h1v1h-1zM70 66h1v1h-1z" /><path fill="#9ec8fd" d="M21 36h1v1h-1z" /><path fill="#4697fc" d="M46 36h1v1h-1zM46 40h1v1h-1zM45 53h1v1h-1z" /><path fill="#4495fc" d="M53 36h1v1h-1zM29 74h1v1h-1zM47 81h1v1h-1zM52 81h1v1h-1z" /><path fill="#a0c9fe" d="M78 36h1v1h-1z" /><path fill="#e2efff" d="M80 36h1v1h-1zM63 60h1v1h-1zM66 60h1v1h-1zM29 66h1v1h-1zM33 76h1v1h-1z" /><path fill="#0371fb" d="M81 36h1v1h-1zM16 46h1v1h-1zM83 46h1v1h-1z" /><path fill="#4a99fc" d="M18 37h1v1h-1zM22 40h1v1h-1zM31 59h1v1h-1zM68 59h1v1h-1z" /><path fill="#d1e5fe" d="M21 37h1v1h-1zM78 37h1v1h-1zM49 58h2v1h-2z" /><path fill="#56a0fc" d="M46 37h1v1h-1z" /><path fill="#559ffc" d="M53 37h1v1h-1zM19 61h1v1h-1zM80 61h1v1h-1z" /><path fill="#4797fc" d="M81 37h1v1h-1zM46 50h1v1h-1zM53 50h1v1h-1zM82 55h1v1h-1z" /><path fill="#fbfdff" d="M21 38h1v1h-1zM78 38h1v1h-1zM37 60h1v1h-1zM62 60h1v1h-1zM58 74h1v1h-1z" /><path fill="#0874fb" d="M22 38h1v1h-1zM77 38h1v1h-1zM40 80h1v1h-1zM59 80h1v1h-1z" /><path fill="#60a5fd" d="M46 38h1v1h-1zM17 41h1v1h-1zM20 63h1v1h-1zM59 65h1v1h-1zM59 73h1v1h-1z" /><path fill="#5fa5fc" d="M53 38h1v1h-1zM40 65h1v1h-1zM40 73h1v1h-1zM49 81h2v1h-2z" /><path fill="#93c2fd" d="M81 38h1v1h-1zM73 71h1v1h-1z" /><path fill="#dfedfe" d="M18 39h1v1h-1zM46 75h1v1h-1zM53 75h1v1h-1z" /><path fill="#2886fc" d="M22 39h1v1h-1zM32 68h1v1h-1z" /><path fill="#549efc" d="M46 39h1v1h-1zM48 81h1v1h-1zM51 81h1v1h-1z" /><path fill="#529dfc" d="M53 39h1v1h-1z" /><path fill="#2a87fc" d="M77 39h1v1h-1zM17 40h1v1h-1zM46 42h1v1h-1zM53 42h1v1h-1z" /><path fill="#4596fc" d="M53 40h1v1h-1z" /><path fill="#4b99fc" d="M77 40h1v1h-1z" /><path fill="#2986fc" d="M82 40h1v1h-1z" /><path fill="#378efc" d="M53 41h1v1h-1zM48 60h1v1h-1z" /><path fill="#6eadfd" d="M77 41h1v1h-1zM43 74h1v1h-1z" /><path fill="#5ea4fc" d="M82 41h1v1h-1zM67 76h1v1h-1z" /><path fill="#8cbefd" d="M17 42h1v1h-1z" /><path fill="#8dbffd" d="M22 42h1v1h-1z" /><path fill="#8fc0fd" d="M77 42h1v1h-1z" /><path fill="#8bbdfd" d="M82 42h1v1h-1z" /><path fill="#bad8fe" d="M17 43h1v1h-1zM24 54h1v1h-1zM41 58h1v1h-1zM42 74h1v1h-1zM57 74h1v1h-1zM48 75h1v1h-1zM51 75h1v1h-1z" /><path fill="#1d7ffb" d="M46 43h1v1h-1zM53 43h1v1h-1zM18 59h1v1h-1zM43 64h1v1h-1z" /><path fill="#afd2fe" d="M77 43h1v1h-1z" /><path fill="#b9d7fe" d="M82 43h1v1h-1zM68 75h1v1h-1z" /><path fill="#c0dbfe" d="M22 44h1v1h-1z" /><path fill="#0f77fb" d="M46 44h1v1h-1zM53 44h1v1h-1zM37 59h1v1h-1zM41 65h1v1h-1zM77 67h1v1h-1zM54 74h1v1h-1zM33 77h1v1h-1zM45 81h1v1h-1zM54 81h1v1h-1z" /><path fill="#c1dcfe" d="M77 44h1v1h-1z" /><path fill="#dcebfe" d="M82 44h1v1h-1zM76 67h1v1h-1z" /><path fill="#cde3fe" d="M22 45h1v1h-1z" /><path fill="#0270fb" d="M46 45h1v1h-1zM53 45h1v1h-1zM46 47h1v1h-1zM53 47h1v1h-1zM41 57h1v1h-1zM19 62h1v1h-1zM80 62h1v1h-1z" /><path fill="#eef5ff" d="M82 45h1v1h-1zM53 61h1v1h-1z" /><path fill="#fdfeff" d="M17 46h1v1h-1zM82 46h1v1h-1zM47 47h1v1h-1zM52 47h1v1h-1zM23 53h1v1h-1zM76 53h1v1h-1zM43 57h1v1h-1zM56 57h1v1h-1zM19 59h1v1h-1zM40 59h1v1h-1zM80 59h1v1h-1zM33 70h1v1h-1zM66 70h1v1h-1zM29 73h1v1h-1z" /><path fill="#daeafe" d="M22 46h1v1h-1zM30 67h1v1h-1z" /><path fill="#f4f9ff" d="M47 46h1v1h-1zM52 46h1v1h-1z" /><path fill="#dbebfe" d="M77 46h1v1h-1z" /><path fill="#1179fb" d="M16 47h1v1h-1zM46 48h1v1h-1zM53 48h1v1h-1zM35 78h1v1h-1zM64 78h1v1h-1z" /><path fill="#e7f1ff" d="M22 47h1v1h-1zM69 74h1v1h-1z" /><path fill="#e8f2ff" d="M77 47h1v1h-1zM48 59h1v1h-1zM30 74h1v1h-1zM44 80h1v1h-1zM55 80h1v1h-1z" /><path fill="#1279fb" d="M83 47h1v1h-1zM16 48h1v1h-1zM41 73h1v1h-1zM58 73h1v1h-1z" /><path fill="#f7faff" d="M22 48h1v1h-1zM77 48h1v1h-1zM41 64h1v1h-1zM40 79h1v1h-1z" /><path fill="#1078fb" d="M23 49h1v1h-1zM58 65h1v1h-1z" /><path fill="#2282fc" d="M46 49h1v1h-1z" /><path fill="#2182fc" d="M53 49h1v1h-1z" /><path fill="#fafcff" d="M17 50h1v1h-1zM82 50h1v1h-1zM18 56h1v1h-1zM81 56h1v1h-1zM26 57h1v1h-1zM73 57h1v1h-1zM41 74h1v1h-1z" /><path fill="#2c88fc" d="M23 50h1v1h-1z" /><path fill="#2e89fc" d="M76 50h1v1h-1z" /><path fill="#ecf4ff" d="M17 51h1v1h-1zM82 51h1v1h-1zM70 65h1v1h-1zM32 69h1v1h-1zM67 69h1v1h-1z" /><path fill="#83b9fd" d="M46 51h1v1h-1zM53 51h1v1h-1zM44 63h1v1h-1zM42 80h1v1h-1z" /><path fill="#6faefd" d="M76 51h1v1h-1zM56 74h1v1h-1z" /><path fill="#cbe2fe" d="M17 52h1v1h-1zM54 54h1v1h-1zM34 60h1v1h-1z" /><path fill="#bbd9fe" d="M23 52h1v1h-1zM75 54h1v1h-1zM31 75h1v1h-1z" /><path fill="#0170fb" d="M45 52h1v1h-1zM54 52h1v1h-1zM58 57h1v1h-1zM26 72h1v1h-1zM73 72h1v1h-1zM68 76h1v1h-1z" /><path fill="#d4e7fe" d="M46 52h1v1h-1z" /><path fill="#d3e6fe" d="M53 52h1v1h-1zM54 62h1v1h-1z" /><path fill="#bcd9fe" d="M76 52h1v1h-1zM19 60h1v1h-1zM80 60h1v1h-1z" /><path fill="#cae1fe" d="M82 52h1v1h-1zM65 60h1v1h-1zM39 73h1v1h-1zM60 73h1v1h-1zM47 75h1v1h-1zM52 75h1v1h-1z" /><path fill="#a5ccfe" d="M17 53h1v1h-1z" /><path fill="#4395fc" d="M54 53h1v1h-1zM66 69h1v1h-1zM36 71h1v1h-1zM63 71h1v1h-1z" /><path fill="#2f8afc" d="M75 53h1v1h-1zM33 66h1v1h-1zM36 66h1v1h-1zM63 66h1v1h-1zM66 66h1v1h-1z" /><path fill="#a3cbfe" d="M82 53h1v1h-1z" /><path fill="#7fb7fd" d="M17 54h1v1h-1zM36 78h1v1h-1zM63 78h1v1h-1z" /><path fill="#cce2fe" d="M45 54h1v1h-1zM35 60h1v1h-1zM64 60h1v1h-1z" /><path fill="#4898fc" d="M17 55h1v1h-1z" /><path fill="#71affd" d="M25 55h1v1h-1z" /><path fill="#80b7fd" d="M44 55h1v1h-1zM55 55h1v1h-1zM25 70h1v1h-1z" /><path fill="#72affd" d="M74 55h1v1h-1z" /><path fill="#fcfdff" d="M25 56h1v1h-1zM74 56h1v1h-1zM59 59h1v1h-1zM70 73h1v1h-1z" /><path fill="#4d9afc" d="M26 56h1v1h-1zM73 56h1v1h-1zM32 76h1v1h-1zM38 79h1v1h-1zM61 79h1v1h-1z" /><path fill="#64a7fd" d="M43 56h1v1h-1z" /><path fill="#0b75fb" d="M82 56h1v1h-1z" /><path fill="#c5defe" d="M18 57h1v1h-1z" /><path fill="#69aafd" d="M27 57h1v1h-1z" /><path fill="#77b2fd" d="M42 57h1v1h-1zM81 58h1v1h-1z" /><path fill="#76b2fd" d="M57 57h1v1h-1z" /><path fill="#67a9fd" d="M72 57h1v1h-1z" /><path fill="#c4defe" d="M81 57h1v1h-1z" /><path fill="#78b3fd" d="M18 58h1v1h-1z" /><path fill="#a6cdfe" d="M28 58h1v1h-1z" /><path fill="#1f81fb" d="M29 58h1v1h-1zM70 58h1v1h-1z" /><path fill="#2785fc" d="M40 58h1v1h-1z" /><path fill="#b7d6fe" d="M58 58h1v1h-1z" /><path fill="#2684fc" d="M59 58h1v1h-1z" /><path fill="#a4ccfe" d="M71 58h1v1h-1z" /><path fill="#f8fbff" d="M29 59h1v1h-1zM70 59h1v1h-1zM67 60h1v1h-1zM43 63h1v1h-1zM58 64h1v1h-1zM24 68h1v1h-1zM75 68h1v1h-1z" /><path fill="#9ac6fd" d="M30 59h1v1h-1zM69 59h1v1h-1z" /><path fill="#0974fb" d="M32 59h1v1h-1zM67 59h1v1h-1z" /><path fill="#509cfc" d="M38 59h1v1h-1zM61 59h1v1h-1z" /><path fill="#1c7ffb" d="M49 59h2v1h-2zM81 59h1v1h-1z" /><path fill="#e9f3ff" d="M51 59h1v1h-1zM31 65h1v1h-1zM68 65h1v1h-1zM62 78h1v1h-1z" /><path fill="#a7cdfe" d="M60 59h1v1h-1z" /><path fill="#0e77fb" d="M62 59h1v1h-1zM45 74h1v1h-1zM66 77h1v1h-1z" /><path fill="#e4f0ff" d="M33 60h1v1h-1z" /><path fill="#f2f8ff" d="M52 60h1v1h-1zM35 77h1v1h-1z" /><path fill="#edf5ff" d="M46 61h1v1h-1z" /><path fill="#3a90fc" d="M47 61h1v1h-1z" /><path fill="#3c91fc" d="M52 61h1v1h-1z" /><path fill="#d8e9fe" d="M20 62h1v1h-1zM68 68h1v1h-1z" /><path fill="#d2e6fe" d="M45 62h1v1h-1zM21 64h1v1h-1z" /><path fill="#2383fc" d="M46 62h1v1h-1zM67 68h1v1h-1z" /><path fill="#2584fc" d="M53 62h1v1h-1z" /><path fill="#d7e8fe" d="M79 62h1v1h-1z" /><path fill="#85bafd" d="M55 63h1v1h-1zM72 72h1v1h-1zM65 77h1v1h-1z" /><path fill="#5da4fc" d="M79 63h1v1h-1z" /><path fill="#1e80fb" d="M56 64h1v1h-1z" /><path fill="#98c5fd" d="M57 64h1v1h-1z" /><path fill="#ebf4ff" d="M29 65h1v1h-1z" /><path fill="#b8d7fe" d="M30 65h1v1h-1zM69 65h1v1h-1z" /><path fill="#e5f0ff" d="M38 65h1v1h-1zM61 65h1v1h-1z" /><path fill="#b0d2fe" d="M39 65h1v1h-1zM60 65h1v1h-1z" /><path fill="#3b90fc" d="M78 65h1v1h-1z" /><path fill="#9fc9fd" d="M22 66h1v1h-1z" /><path fill="#4093fc" d="M34 66h1v1h-1zM65 66h1v1h-1zM38 72h1v1h-1z" /><path fill="#3f93fc" d="M35 66h1v1h-1zM64 66h1v1h-1z" /><path fill="#167bfb" d="M37 66h1v1h-1zM62 66h1v1h-1zM68 67h1v1h-1z" /><path fill="#9dc8fd" d="M77 66h1v1h-1z" /><path fill="#0d76fb" d="M22 67h1v1h-1z" /><path fill="#d9eafe" d="M23 67h1v1h-1z" /><path fill="#d5e7fe" d="M69 67h1v1h-1zM35 71h1v1h-1z" /><path fill="#66a9fd" d="M24 69h1v1h-1z" /><path fill="#4294fc" d="M33 69h1v1h-1zM41 80h1v1h-1z" /><path fill="#86bbfd" d="M34 70h1v1h-1z" /><path fill="#88bcfd" d="M65 70h1v1h-1z" /><path fill="#7db6fd" d="M74 70h1v1h-1z" /><path fill="#95c3fd" d="M26 71h1v1h-1z" /><path fill="#d6e8fe" d="M64 71h1v1h-1z" /><path fill="#87bbfd" d="M27 72h1v1h-1zM34 77h1v1h-1z" /><path fill="#b6d6fe" d="M37 72h1v1h-1zM62 72h1v1h-1z" /><path fill="#4194fc" d="M61 72h1v1h-1zM70 74h1v1h-1zM58 80h1v1h-1z" /><path fill="#70aefd" d="M28 73h1v1h-1z" /><path fill="#aacffe" d="M49 75h2v1h-2zM39 79h1v1h-1z" /><path fill="#177cfb" d="M69 75h1v1h-1z" /><path fill="#e6f1ff" d="M66 76h1v1h-1z" /><path fill="#eaf3ff" d="M37 78h1v1h-1z" /><path fill="#f6faff" d="M59 79h1v1h-1z" /><path fill="#a9cefe" d="M60 79h1v1h-1z" /><path fill="#bfdbfe" d="M43 80h1v1h-1zM56 80h1v1h-1z" /><path fill="#82b8fd" d="M57 80h1v1h-1z" /></svg>