<svg xmlns="http://www.w3.org/2000/svg" viewBox="0 0 100 100" width="1em" height="1em"><path fill="#ec2701" d="M43 4h14v1h-14z" /><path fill="#eb2902" d="M42 5h1v1h-1zM57 5h1v1h-1z" /><path fill="#ec2a02" d="M43 5h14v1h-14z" /><path fill="#ec2b02" d="M42 6h16v1h-16z" /><path fill="#ec2d02" d="M41 7h1v1h-1zM58 7h1v1h-1z" /><path fill="#ed2d02" d="M42 7h16v1h-16z" /><path fill="#ed2e02" d="M41 8h18v1h-18z" /><path fill="#ec3001" d="M40 9h1v1h-1z" /><path fill="#ed3002" d="M41 9h18v1h-18z" /><path fill="#ed2f01" d="M59 9h1v1h-1z" /><path fill="#ec3002" d="M40 10h1v1h-1zM59 10h1v1h-1z" /><path fill="#ed3102" d="M41 10h18v1h-18z" /><path fill="#ed3302" d="M40 11h20v1h-20zM60 12h1v1h-1z" /><path fill="#ec3402" d="M39 12h1v1h-1z" /><path fill="#ed3402" d="M40 12h20v1h-20z" /><path fill="#ee3602" d="M39 13h22v1h-22z" /><path fill="#ee3601" d="M38 14h1v1h-1zM61 14h1v1h-1z" /><path fill="#ee3702" d="M39 14h22v1h-22z" /><path fill="#ed3802" d="M38 15h1v1h-1z" /><path fill="#ee3902" d="M39 15h22v1h-22z" /><path fill="#ed3902" d="M61 15h1v1h-1z" /><path fill="#ed3901" d="M37 16h1v1h-1z" /><path fill="#ee3a02" d="M38 16h24v1h-24z" /><path fill="#ed3a01" d="M62 16h1v1h-1z" /><path fill="#ee3c02" d="M37 17h25v1h-25z" /><path fill="#ee3b02" d="M62 17h1v1h-1z" /><path fill="#ee3d02" d="M37 18h26v1h-26z" /><path fill="#ee3f01" d="M36 19h1v1h-1z" /><path fill="#ef3f02" d="M37 19h26v1h-26z" /><path fill="#ee3e01" d="M63 19h1v1h-1z" /><path fill="#ee3f02" d="M36 20h1v1h-1z" /><path fill="#ef4002" d="M37 20h26v1h-26z" /><path fill="#ee4002" d="M63 20h1v1h-1z" /><path fill="#ee4101" d="M35 21h1v1h-1z" /><path fill="#ef4202" d="M36 21h28v1h-28zM35 22h1v1h-1z" /><path fill="#ef4201" d="M64 21h1v1h-1z" /><path fill="#ef4302" d="M36 22h28v1h-28z" /><path fill="#ee4302" d="M64 22h1v1h-1z" /><path fill="#ef4502" d="M35 23h30v1h-30zM49 24h2v1h-2z" /><path fill="#f04601" d="M34 24h1v1h-1zM65 24h1v1h-1z" /><path fill="#f04602" d="M35 24h14v1h-14zM51 24h14v1h-14z" /><path fill="#ef4802" d="M34 25h1v1h-1zM65 25h1v1h-1z" /><path fill="#f04802" d="M35 25h14v1h-14zM51 25h14v1h-14z" /><path fill="#ef4701" d="M49 25h1v1h-1z" /><path fill="#ef4801" d="M50 25h1v1h-1z" /><path fill="#f04901" d="M33 26h1v1h-1zM66 26h1v1h-1z" /><path fill="#f04902" d="M34 26h14v1h-14zM52 26h14v1h-14z" /><path fill="#ef4902" d="M48 26h1v1h-1zM51 26h1v1h-1z" /><path fill="#ef4b01" d="M33 27h1v1h-1z" /><path fill="#f04b01" d="M34 27h15v1h-15zM52 27h14v1h-14z" /><path fill="#f04a01" d="M51 27h1v1h-1z" /><path fill="#ef4a01" d="M66 27h1v1h-1z" /><path fill="#f04c01" d="M33 28h15v1h-15zM52 28h15v1h-15z" /><path fill="#f04d01" d="M32 29h1v1h-1z" /><path fill="#f04e01" d="M33 29h15v1h-15zM52 29h16v1h-16z" /><path fill="#f04f01" d="M32 30h1v1h-1z" /><path fill="#f14f01" d="M33 30h14v1h-14zM53 30h15v1h-15z" /><path fill="#f05001" d="M31 31h1v1h-1zM68 31h1v1h-1z" /><path fill="#f15101" d="M32 31h15v1h-15zM54 31h14v1h-14zM31 32h1v1h-1z" /><path fill="#f05101" d="M53 31h1v1h-1zM46 32h1v1h-1z" /><path fill="#f15201" d="M32 32h14v1h-14zM54 32h15v1h-15z" /><path fill="#f05201" d="M53 32h1v1h-1z" /><path fill="#f15401" d="M31 33h14v1h-14zM55 33h14v1h-14z" /><path fill="#f05301" d="M45 33h1v1h-1zM54 33h1v1h-1z" /><path fill="#f05501" d="M30 34h1v1h-1zM45 34h1v1h-1zM54 34h1v1h-1zM69 34h1v1h-1z" /><path fill="#f15601" d="M31 34h14v1h-14z" /><path fill="#f15501" d="M55 34h14v1h-14z" /><path fill="#f15701" d="M30 35h15v1h-15zM55 35h15v1h-15z" /><path fill="#f25801" d="M29 36h1v1h-1zM58 36h12v1h-12z" /><path fill="#f25901" d="M30 36h14v1h-14zM56 36h2v1h-2z" /><path fill="#f15901" d="M44 36h1v1h-1zM55 36h1v1h-1z" /><path fill="#f25701" d="M70 36h1v1h-1z" /><path fill="#f25a01" d="M29 37h15v1h-15zM56 37h15v1h-15z" /><path fill="#f25c01" d="M29 38h14v1h-14zM56 38h15v1h-15zM43 39h1v1h-1z" /><path fill="#f25b01" d="M43 38h1v1h-1z" /><path fill="#f25d01" d="M28 39h15v1h-15zM56 39h16v1h-16z" /><path fill="#f25f01" d="M28 40h14v1h-14zM58 40h14v1h-14zM42 41h1v1h-1z" /><path fill="#f15f01" d="M42 40h1v1h-1zM72 41h1v1h-1z" /><path fill="#f15e01" d="M57 40h1v1h-1z" /><path fill="#f35f01" d="M27 41h1v1h-1z" /><path fill="#f36001" d="M28 41h14v1h-14zM58 41h6v1h-6z" /><path fill="#f26001" d="M57 41h1v1h-1zM64 41h8v1h-8z" /><path fill="#f36201" d="M27 42h15v1h-15zM58 42h14v1h-14zM41 43h1v1h-1zM58 43h1v1h-1z" /><path fill="#f36101" d="M72 42h1v1h-1z" /><path fill="#f36301" d="M27 43h14v1h-14zM59 43h14v1h-14z" /><path fill="#f26501" d="M26 44h1v1h-1z" /><path fill="#f36501" d="M27 44h14v1h-14zM59 44h14v1h-14zM40 45h1v1h-1zM59 45h1v1h-1z" /><path fill="#f26401" d="M73 44h1v1h-1z" /><path fill="#f36601" d="M26 45h14v1h-14zM60 45h14v1h-14z" /><path fill="#bfe6fd" d="M49 45h1v1h-1z" /><path fill="#bfe6ff" d="M50 45h1v1h-1z" /><path fill="#f36801" d="M25 46h16v1h-16zM60 46h14v1h-14z" /><path fill="#fafdff" d="M49 46h1v1h-1zM47 51h1v1h-1zM47 60h1v1h-1zM52 60h1v1h-1z" /><path fill="#fbfdff" d="M50 46h1v1h-1zM52 51h1v1h-1zM46 57h1v1h-1zM53 57h1v1h-1zM48 62h1v1h-1zM51 62h1v1h-1z" /><path fill="#f36701" d="M59 46h1v1h-1zM74 46h1v1h-1z" /><path fill="#f46901" d="M25 47h15v1h-15zM61 47h13v1h-13z" /><path fill="#a6dcff" d="M48 47h1v1h-1zM51 47h1v1h-1z" /><path fill="#ffffff" d="M49 47h2v1h-2zM49 48h2v1h-2zM48 49h4v1h-4zM48 50h4v1h-4zM48 51h4v1h-4zM47 52h6v1h-6zM47 53h6v1h-6zM46 54h7v1h-7zM47 55h6v1h-6zM47 56h6v1h-6zM48 57h4v1h-4zM48 58h4v1h-4zM49 59h2v1h-2zM49 60h2v1h-2zM49 61h2v1h-2z" /><path fill="#f36901" d="M60 47h1v1h-1z" /><path fill="#f46801" d="M74 47h1v1h-1z" /><path fill="#f46b01" d="M25 48h14v1h-14zM60 48h15v1h-15z" /><path fill="#f46a01" d="M39 48h1v1h-1z" /><path fill="#e2f3ff" d="M48 48h1v1h-1zM46 53h1v1h-1z" /><path fill="#e4f4ff" d="M51 48h1v1h-1z" /><path fill="#f36b01" d="M24 49h1v1h-1z" /><path fill="#f46c01" d="M25 49h14v1h-14zM61 49h15v1h-15z" /><path fill="#8ad2ff" d="M47 49h1v1h-1z" /><path fill="#8ad3ff" d="M52 49h1v1h-1z" /><path fill="#f46e01" d="M24 50h14v1h-14zM62 50h14v1h-14z" /><path fill="#f36e01" d="M38 50h1v1h-1zM61 50h1v1h-1zM76 51h1v1h-1z" /><path fill="#c0e6fd" d="M47 50h1v1h-1z" /><path fill="#c0e6ff" d="M52 50h1v1h-1z" /><path fill="#f36f01" d="M23 51h1v1h-1z" /><path fill="#f46f01" d="M24 51h14v1h-14zM62 51h14v1h-14z" /><path fill="#f37001" d="M23 52h1v1h-1zM37 52h1v1h-1zM62 52h1v1h-1zM76 52h1v1h-1z" /><path fill="#f47101" d="M24 52h13v1h-13zM63 52h13v1h-13z" /><path fill="#a2dafd" d="M46 52h1v1h-1z" /><path fill="#a3dbff" d="M53 52h1v1h-1zM55 62h1v1h-1zM53 67h1v1h-1z" /><path fill="#f57201" d="M23 53h15v1h-15zM63 53h14v1h-14z" /><path fill="#e4f3fd" d="M53 53h1v1h-1z" /><path fill="#f57101" d="M62 53h1v1h-1z" /><path fill="#f57401" d="M22 54h15v1h-15zM63 54h15v1h-15z" /><path fill="#82cfff" d="M45 54h1v1h-1z" /><path fill="#feffff" d="M53 54h1v1h-1zM46 55h1v1h-1zM53 55h1v1h-1zM47 57h1v1h-1zM52 57h1v1h-1zM47 58h1v1h-1zM52 58h1v1h-1zM48 59h1v1h-1zM51 59h1v1h-1zM48 60h1v1h-1zM51 60h1v1h-1zM49 62h2v1h-2z" /><path fill="#82ceff" d="M54 54h1v1h-1z" /><path fill="#f57501" d="M22 55h14v1h-14zM64 55h14v1h-14z" /><path fill="#f47501" d="M36 55h1v1h-1z" /><path fill="#bde5ff" d="M45 55h1v1h-1z" /><path fill="#bbe3fd" d="M54 55h1v1h-1z" /><path fill="#f47401" d="M63 55h1v1h-1z" /><path fill="#f57701" d="M21 56h15v1h-15zM64 56h14v1h-14z" /><path fill="#f4fbff" d="M45 56h1v1h-1zM49 66h2v1h-2z" /><path fill="#fdfeff" d="M46 56h1v1h-1zM53 56h1v1h-1zM48 61h1v1h-1zM51 61h1v1h-1zM49 63h2v1h-2z" /><path fill="#f5fbff" d="M54 56h1v1h-1zM46 59h1v1h-1zM53 59h1v1h-1zM48 64h1v1h-1zM51 64h1v1h-1z" /><path fill="#f57601" d="M78 56h1v1h-1z" /><path fill="#f47701" d="M21 57h1v1h-1z" /><path fill="#f57801" d="M22 57h13v1h-13zM65 57h13v1h-13z" /><path fill="#f47801" d="M35 57h1v1h-1zM64 57h1v1h-1zM78 57h1v1h-1z" /><path fill="#90d3fd" d="M44 57h1v1h-1z" /><path fill="#f3faff" d="M45 57h1v1h-1zM47 62h1v1h-1z" /><path fill="#f2faff" d="M54 57h1v1h-1zM52 62h1v1h-1z" /><path fill="#91d4ff" d="M55 57h1v1h-1z" /><path fill="#f57a01" d="M21 58h14v1h-14zM65 58h14v1h-14zM65 59h1v1h-1z" /><path fill="#c4e8ff" d="M44 58h1v1h-1z" /><path fill="#edf8ff" d="M45 58h1v1h-1zM54 58h1v1h-1zM47 63h1v1h-1zM52 63h1v1h-1z" /><path fill="#f9fdff" d="M46 58h1v1h-1zM49 65h2v1h-2z" /><path fill="#f8fcff" d="M53 58h1v1h-1zM48 63h1v1h-1zM51 63h1v1h-1z" /><path fill="#c4e7fd" d="M55 58h1v1h-1z" /><path fill="#f67a01" d="M20 59h1v1h-1z" /><path fill="#f67b01" d="M21 59h13v1h-13zM66 59h13v1h-13z" /><path fill="#f57b01" d="M34 59h1v1h-1zM79 59h1v1h-1z" /><path fill="#5fc1ff" d="M43 59h1v1h-1z" /><path fill="#ceecff" d="M44 59h1v1h-1zM46 64h1v1h-1zM49 70h2v1h-2z" /><path fill="#e7f5ff" d="M45 59h1v1h-1zM47 64h1v1h-1zM49 68h2v1h-2z" /><path fill="#fcfeff" d="M47 59h1v1h-1zM52 59h1v1h-1zM49 64h2v1h-2z" /><path fill="#e6f5ff" d="M54 59h1v1h-1zM52 64h1v1h-1z" /><path fill="#cdecff" d="M55 59h1v1h-1zM53 64h1v1h-1z" /><path fill="#5fc2ff" d="M56 59h1v1h-1z" /><path fill="#f67d01" d="M20 60h14v1h-14zM66 60h14v1h-14z" /><path fill="#f57c01" d="M34 60h1v1h-1z" /><path fill="#7acbfd" d="M43 60h1v1h-1z" /><path fill="#c1e7ff" d="M44 60h1v1h-1zM55 60h1v1h-1zM46 65h1v1h-1zM53 65h1v1h-1z" /><path fill="#def2ff" d="M45 60h1v1h-1zM47 65h1v1h-1z" /><path fill="#f1faff" d="M46 60h1v1h-1z" /><path fill="#f0f9ff" d="M53 60h1v1h-1zM48 65h1v1h-1zM51 65h1v1h-1z" /><path fill="#ddf2ff" d="M54 60h1v1h-1zM52 65h1v1h-1z" /><path fill="#7bccff" d="M56 60h1v1h-1z" /><path fill="#f57d01" d="M65 60h1v1h-1zM80 61h1v1h-1z" /><path fill="#f57e01" d="M19 61h1v1h-1z" /><path fill="#f67e01" d="M20 61h14v1h-14zM66 61h14v1h-14z" /><path fill="#8ad1ff" d="M43 61h1v1h-1z" /><path fill="#b4e2ff" d="M44 61h1v1h-1z" /><path fill="#d4eeff" d="M45 61h1v1h-1zM47 66h1v1h-1z" /><path fill="#eaf7ff" d="M46 61h1v1h-1zM53 61h1v1h-1zM48 66h1v1h-1zM51 66h1v1h-1z" /><path fill="#f7fcff" d="M47 61h1v1h-1zM52 61h1v1h-1z" /><path fill="#d3eeff" d="M54 61h1v1h-1zM52 66h1v1h-1z" /><path fill="#b3e1ff" d="M55 61h1v1h-1zM46 66h1v1h-1zM53 66h1v1h-1z" /><path fill="#8bd2ff" d="M56 61h1v1h-1z" /><path fill="#f58001" d="M19 62h1v1h-1z" /><path fill="#f68001" d="M20 62h13v1h-13zM66 62h14v1h-14z" /><path fill="#f57f01" d="M33 62h1v1h-1zM80 62h1v1h-1z" /><path fill="#3bb3fd" d="M42 62h1v1h-1z" /><path fill="#7cccfe" d="M43 62h1v1h-1z" /><path fill="#a4dcff" d="M44 62h1v1h-1zM46 67h1v1h-1z" /><path fill="#c8eaff" d="M45 62h1v1h-1z" /><path fill="#e3f4ff" d="M46 62h1v1h-1z" /><path fill="#e2f4ff" d="M53 62h1v1h-1zM48 67h1v1h-1z" /><path fill="#c7e9ff" d="M54 62h1v1h-1zM47 67h1v1h-1z" /><path fill="#7bccfe" d="M56 62h1v1h-1zM45 67h1v1h-1zM54 67h1v1h-1z" /><path fill="#3bb4ff" d="M57 62h1v1h-1z" /><path fill="#f68101" d="M19 63h14v1h-14zM67 63h14v1h-14z" /><path fill="#40b4fd" d="M42 63h1v1h-1z" /><path fill="#6cc6fe" d="M43 63h1v1h-1zM56 63h1v1h-1zM45 68h1v1h-1z" /><path fill="#95d6ff" d="M44 63h1v1h-1zM46 68h1v1h-1z" /><path fill="#bbe4ff" d="M45 63h1v1h-1zM51 70h1v1h-1z" /><path fill="#d9f0ff" d="M46 63h1v1h-1z" /><path fill="#d8f0ff" d="M53 63h1v1h-1z" /><path fill="#bae4ff" d="M54 63h1v1h-1zM47 68h1v1h-1zM52 68h1v1h-1z" /><path fill="#94d5ff" d="M55 63h1v1h-1zM53 68h1v1h-1z" /><path fill="#40b5ff" d="M57 63h1v1h-1z" /><path fill="#f68201" d="M18 64h1v1h-1zM81 64h1v1h-1z" /><path fill="#f78301" d="M19 64h14v1h-14zM67 64h14v1h-14z" /><path fill="#15a4fd" d="M41 64h1v1h-1z" /><path fill="#39b2fe" d="M42 64h1v1h-1zM57 64h1v1h-1zM44 69h1v1h-1zM55 69h1v1h-1z" /><path fill="#5cbffe" d="M43 64h1v1h-1zM56 64h1v1h-1zM45 69h1v1h-1z" /><path fill="#84cfff" d="M44 64h1v1h-1zM46 69h1v1h-1z" /><path fill="#acdfff" d="M45 64h1v1h-1z" /><path fill="#abdeff" d="M54 64h1v1h-1zM47 69h1v1h-1z" /><path fill="#83cfff" d="M55 64h1v1h-1zM53 69h1v1h-1z" /><path fill="#14a3fd" d="M58 64h1v1h-1zM58 66h1v1h-1z" /><path fill="#f78501" d="M18 65h4v1h-4zM82 66h1v1h-1z" /><path fill="#f78401" d="M22 65h10v1h-10zM67 65h15v1h-15z" /><path fill="#15a3fd" d="M41 65h1v1h-1zM58 65h1v1h-1zM41 66h1v1h-1z" /><path fill="#2eaefe" d="M42 65h1v1h-1zM57 65h1v1h-1zM44 70h1v1h-1zM47 76h1v1h-1zM52 76h1v1h-1z" /><path fill="#4dbafe" d="M43 65h1v1h-1z" /><path fill="#73c9fe" d="M44 65h1v1h-1zM46 70h1v1h-1z" /><path fill="#9cd9ff" d="M45 65h1v1h-1z" /><path fill="#9bd8ff" d="M54 65h1v1h-1z" /><path fill="#72c8fe" d="M55 65h1v1h-1zM53 70h1v1h-1z" /><path fill="#4cb9fe" d="M56 65h1v1h-1zM45 70h1v1h-1zM54 70h1v1h-1z" /><path fill="#f78601" d="M17 66h14v1h-14zM69 66h13v1h-13zM68 67h1v1h-1z" /><path fill="#f68501" d="M31 66h1v1h-1z" /><path fill="#24aafe" d="M42 66h1v1h-1zM57 66h1v1h-1zM44 71h1v1h-1z" /><path fill="#40b4fe" d="M43 66h1v1h-1z" /><path fill="#64c3fe" d="M44 66h1v1h-1zM47 73h1v1h-1zM52 73h1v1h-1z" /><path fill="#8cd2ff" d="M45 66h1v1h-1zM54 66h1v1h-1z" /><path fill="#63c2fe" d="M55 66h1v1h-1zM46 71h1v1h-1zM53 71h1v1h-1z" /><path fill="#3fb4fe" d="M56 66h1v1h-1zM45 71h1v1h-1zM54 71h1v1h-1zM47 75h1v1h-1zM52 75h1v1h-1z" /><path fill="#f68601" d="M68 66h1v1h-1z" /><path fill="#f68701" d="M17 67h1v1h-1zM82 67h1v1h-1z" /><path fill="#f78801" d="M18 67h14v1h-14z" /><path fill="#10a2fd" d="M41 67h1v1h-1z" /><path fill="#1ca7fe" d="M42 67h1v1h-1zM57 67h1v1h-1zM44 72h1v1h-1z" /><path fill="#33affe" d="M43 67h1v1h-1zM56 67h1v1h-1zM45 72h1v1h-1z" /><path fill="#54bcfe" d="M44 67h1v1h-1z" /><path fill="#eef9ff" d="M49 67h2v1h-2z" /><path fill="#e1f3ff" d="M51 67h1v1h-1z" /><path fill="#c6e9ff" d="M52 67h1v1h-1z" /><path fill="#53bcfe" d="M55 67h1v1h-1zM46 72h1v1h-1zM53 72h1v1h-1zM48 75h1v1h-1zM51 75h1v1h-1z" /><path fill="#11a2fd" d="M58 67h1v1h-1z" /><path fill="#f78701" d="M69 67h13v1h-13z" /><path fill="#f78901" d="M17 68h14v1h-14zM69 68h14v1h-14z" /><path fill="#16a4fe" d="M42 68h1v1h-1zM57 68h1v1h-1zM44 73h1v1h-1zM55 73h1v1h-1z" /><path fill="#29acfe" d="M43 68h1v1h-1zM46 75h1v1h-1zM53 75h1v1h-1z" /><path fill="#45b7fe" d="M44 68h1v1h-1zM55 68h1v1h-1z" /><path fill="#d7efff" d="M48 68h1v1h-1zM51 68h1v1h-1z" /><path fill="#6bc5fe" d="M54 68h1v1h-1zM48 74h1v1h-1zM51 74h1v1h-1z" /><path fill="#28abfe" d="M56 68h1v1h-1zM45 73h1v1h-1zM54 73h1v1h-1z" /><path fill="#f68b01" d="M16 69h1v1h-1z" /><path fill="#f78b01" d="M17 69h13v1h-13z" /><path fill="#f78a01" d="M30 69h1v1h-1zM69 69h14v1h-14z" /><path fill="#12a2fd" d="M42 69h1v1h-1z" /><path fill="#20a8fe" d="M43 69h1v1h-1zM47 77h1v1h-1zM52 77h1v1h-1z" /><path fill="#caeaff" d="M48 69h1v1h-1zM51 69h1v1h-1z" /><path fill="#dcf1ff" d="M49 69h2v1h-2z" /><path fill="#aadeff" d="M52 69h1v1h-1zM48 71h1v1h-1zM51 71h1v1h-1zM49 72h1v1h-1z" /><path fill="#5bbffe" d="M54 69h1v1h-1z" /><path fill="#1fa8fe" d="M56 69h1v1h-1zM45 74h1v1h-1zM54 74h1v1h-1z" /><path fill="#12a3fd" d="M57 69h1v1h-1z" /><path fill="#f68a01" d="M83 69h1v1h-1z" /><path fill="#f88c01" d="M16 70h14v1h-14zM70 70h14v1h-14z" /><path fill="#11a0fd" d="M42 70h1v1h-1z" /><path fill="#19a5fe" d="M43 70h1v1h-1zM56 70h1v1h-1z" /><path fill="#9ad8ff" d="M47 70h1v1h-1zM52 70h1v1h-1z" /><path fill="#bce5ff" d="M48 70h1v1h-1z" /><path fill="#2dadfe" d="M55 70h1v1h-1z" /><path fill="#11a1fd" d="M57 70h1v1h-1z" /><path fill="#f78d01" d="M15 71h1v1h-1z" /><path fill="#f88e01" d="M16 71h14v1h-14z" /><path fill="#14a3fe" d="M43 71h1v1h-1z" /><path fill="#89d1ff" d="M47 71h1v1h-1zM52 71h1v1h-1z" /><path fill="#bee6ff" d="M49 71h2v1h-2z" /><path fill="#23a9fe" d="M55 71h1v1h-1z" /><path fill="#13a3fe" d="M56 71h1v1h-1zM49 79h2v1h-2z" /><path fill="#f88d01" d="M70 71h14v1h-14z" /><path fill="#f78c01" d="M84 71h1v1h-1z" /><path fill="#f78e01" d="M15 72h1v1h-1zM70 72h1v1h-1z" /><path fill="#f88f01" d="M16 72h13v1h-13zM71 72h13v1h-13z" /><path fill="#f78f01" d="M29 72h1v1h-1zM84 72h1v1h-1z" /><path fill="#0fa1ff" d="M43 72h1v1h-1z" /><path fill="#77cafe" d="M47 72h1v1h-1z" /><path fill="#97d6ff" d="M48 72h1v1h-1zM51 72h1v1h-1z" /><path fill="#a9deff" d="M50 72h1v1h-1z" /><path fill="#76cafe" d="M52 72h1v1h-1z" /><path fill="#32affe" d="M54 72h1v1h-1z" /><path fill="#1ba6fe" d="M55 72h1v1h-1zM48 78h1v1h-1zM51 78h1v1h-1z" /><path fill="#0fa1fd" d="M56 72h1v1h-1z" /><path fill="#f89100" d="M15 73h13v1h-13zM72 73h7v1h-7z" /><path fill="#f79100" d="M28 73h1v1h-1zM71 74h1v1h-1z" /><path fill="#0fa2fd" d="M43 73h1v1h-1zM56 73h1v1h-1z" /><path fill="#44b6fe" d="M46 73h1v1h-1zM53 73h1v1h-1z" /><path fill="#81cefe" d="M48 73h1v1h-1zM51 73h1v1h-1z" /><path fill="#93d5ff" d="M49 73h2v1h-2z" /><path fill="#f79000" d="M71 73h1v1h-1z" /><path fill="#f89000" d="M79 73h6v1h-6z" /><path fill="#f89200" d="M14 74h14v1h-14zM72 74h14v1h-14z" /><path fill="#f79200" d="M28 74h1v1h-1z" /><path fill="#11a2fe" d="M44 74h1v1h-1zM55 74h1v1h-1zM48 79h1v1h-1zM51 79h1v1h-1z" /><path fill="#36b1fe" d="M46 74h1v1h-1zM53 74h1v1h-1z" /><path fill="#51bbfe" d="M47 74h1v1h-1zM52 74h1v1h-1z" /><path fill="#79cbfe" d="M49 74h2v1h-2z" /><path fill="#f89400" d="M14 75h14v1h-14zM72 75h14v1h-14zM72 76h1v1h-1z" /><path fill="#0da1fd" d="M44 75h1v1h-1zM55 75h1v1h-1z" /><path fill="#18a5fe" d="M45 75h1v1h-1zM54 75h1v1h-1z" /><path fill="#5fc1fe" d="M49 75h2v1h-2z" /><path fill="#f99500" d="M13 76h14v1h-14zM73 76h13v1h-13z" /><path fill="#f89500" d="M27 76h1v1h-1z" /><path fill="#0ca0fd" d="M44 76h1v1h-1z" /><path fill="#12a3fe" d="M45 76h1v1h-1zM54 76h1v1h-1z" /><path fill="#1ea8fe" d="M46 76h1v1h-1zM53 76h1v1h-1zM49 78h2v1h-2z" /><path fill="#3eb4fe" d="M48 76h1v1h-1zM51 76h1v1h-1z" /><path fill="#46b7fe" d="M49 76h2v1h-2z" /><path fill="#0da0fd" d="M55 76h1v1h-1z" /><path fill="#f99400" d="M86 76h1v1h-1z" /><path fill="#f89700" d="M13 77h1v1h-1zM86 77h1v1h-1zM26 78h1v1h-1zM73 78h1v1h-1z" /><path fill="#f99700" d="M14 77h13v1h-13zM73 77h13v1h-13z" /><path fill="#0ea1fe" d="M45 77h1v1h-1zM54 77h1v1h-1zM47 79h1v1h-1zM52 79h1v1h-1z" /><path fill="#15a4fe" d="M46 77h1v1h-1zM53 77h1v1h-1zM47 78h1v1h-1zM52 78h1v1h-1z" /><path fill="#2aacfe" d="M48 77h1v1h-1zM51 77h1v1h-1z" /><path fill="#30aefe" d="M49 77h2v1h-2z" /><path fill="#f99800" d="M13 78h13v1h-13zM74 78h13v1h-13z" /><path fill="#0a9ffd" d="M45 78h1v1h-1z" /><path fill="#0fa1fe" d="M46 78h1v1h-1zM53 78h1v1h-1z" /><path fill="#0aa0fd" d="M54 78h1v1h-1z" /><path fill="#f99900" d="M12 79h1v1h-1zM87 79h1v1h-1z" /><path fill="#f99a00" d="M13 79h14v1h-14zM73 79h14v1h-14z" /><path fill="#089ffd" d="M45 79h1v1h-1zM54 79h1v1h-1z" /><path fill="#0aa0fe" d="M46 79h1v1h-1zM53 79h1v1h-1z" /><path fill="#f99b00" d="M12 80h13v1h-13zM75 80h13v1h-13z" /><path fill="#f89b00" d="M25 80h1v1h-1z" /><path fill="#089ffe" d="M46 80h1v1h-1zM53 80h1v1h-1zM48 81h4v1h-4z" /><path fill="#099ffe" d="M47 80h1v1h-1zM52 80h1v1h-1z" /><path fill="#0ba0fe" d="M48 80h4v1h-4z" /><path fill="#f89a00" d="M74 80h1v1h-1z" /><path fill="#f99d00" d="M11 81h1v1h-1zM11 82h1v1h-1z" /><path fill="#fa9d00" d="M12 81h14v1h-14zM74 81h14v1h-14z" /><path fill="#079efe" d="M46 81h2v1h-2zM52 81h2v1h-2z" /><path fill="#f99c00" d="M88 81h1v1h-1z" /><path fill="#fa9e00" d="M12 82h13v1h-13zM75 82h13v1h-13z" /><path fill="#059dfd" d="M46 82h1v1h-1zM50 95h1v1h-1z" /><path fill="#069efe" d="M47 82h6v1h-6zM47 83h6v1h-6zM47 84h6v1h-6zM47 85h6v1h-6zM48 86h4v1h-4zM48 87h4v1h-4zM48 88h4v1h-4zM48 89h4v1h-4zM49 90h2v1h-2zM49 91h2v1h-2zM49 92h2v1h-2zM49 93h2v1h-2z" /><path fill="#059efd" d="M53 82h1v1h-1zM47 86h1v1h-1zM52 86h1v1h-1zM51 90h1v1h-1zM48 91h1v1h-1zM51 91h1v1h-1zM49 95h1v1h-1z" /><path fill="#f99e00" d="M88 82h1v1h-1z" /><path fill="#f9a000" d="M10 83h1v1h-1zM89 83h1v1h-1zM89 84h1v1h-1z" /><path fill="#faa000" d="M11 83h13v1h-13zM76 83h13v1h-13z" /><path fill="#fa9f00" d="M24 83h1v1h-1zM75 83h1v1h-1z" /><path fill="#069efd" d="M46 83h1v1h-1zM48 90h1v1h-1zM50 96h1v1h-1z" /><path fill="#069dfd" d="M53 83h1v1h-1zM47 87h1v1h-1zM52 87h1v1h-1zM49 94h2v1h-2zM49 96h1v1h-1z" /><path fill="#faa100" d="M10 84h14v1h-14zM76 84h13v1h-13z" /><path fill="#faa300" d="M10 85h13v1h-13zM77 85h13v1h-13z" /><path fill="#f9a300" d="M23 85h1v1h-1zM9 86h1v1h-1zM76 86h1v1h-1z" /><path fill="#f9a200" d="M76 85h1v1h-1z" /><path fill="#faa400" d="M10 86h13v1h-13zM77 86h13v1h-13z" /><path fill="#f9a400" d="M23 86h1v1h-1zM90 86h1v1h-1z" /><path fill="#faa600" d="M9 87h1v1h-1zM77 87h1v1h-1zM9 88h13v1h-13zM78 88h13v1h-13z" /><path fill="#fba600" d="M10 87h12v1h-12zM78 87h12v1h-12z" /><path fill="#faa500" d="M22 87h1v1h-1zM90 87h1v1h-1z" /><path fill="#fba700" d="M22 88h1v1h-1zM77 88h1v1h-1z" /></svg>