<svg xmlns="http://www.w3.org/2000/svg" viewBox="0 0 100 100"><path fill="#ec2701" fill-rule="evenodd" stroke="#ec2701" stroke-width=".1" d="M43 4h14v1h-14z"/><path fill="#eb2902" fill-rule="evenodd" stroke="#eb2902" stroke-width=".1" d="M42 5h1v1h-1zm15 0h1v1h-1z"/><path fill="#ec2a02" fill-rule="evenodd" stroke="#ec2a02" stroke-width=".1" d="M43 5h14v1h-14z"/><path fill="#ec2b02" fill-rule="evenodd" stroke="#ec2b02" stroke-width=".1" d="M42 6h16v1h-16z"/><path fill="#ec2d02" fill-rule="evenodd" stroke="#ec2d02" stroke-width=".1" d="M41 7h1v1h-1zm17 0h1v1h-1z"/><path fill="#ed2d02" fill-rule="evenodd" stroke="#ed2d02" stroke-width=".1" d="M42 7h16v1h-16z"/><path fill="#ed2e02" fill-rule="evenodd" stroke="#ed2e02" stroke-width=".1" d="M41 8h18v1h-18z"/><path fill="#ec3001" fill-rule="evenodd" stroke="#ec3001" stroke-width=".1" d="M40 9h1v1h-1z"/><path fill="#ed3002" fill-rule="evenodd" stroke="#ed3002" stroke-width=".1" d="M41 9h18v1h-18z"/><path fill="#ed2f01" fill-rule="evenodd" stroke="#ed2f01" stroke-width=".1" d="M59 9h1v1h-1z"/><path fill="#ec3002" fill-rule="evenodd" stroke="#ec3002" stroke-width=".1" d="M40 10h1v1h-1zm19 0h1v1h-1z"/><path fill="#ed3102" fill-rule="evenodd" stroke="#ed3102" stroke-width=".1" d="M41 10h18v1h-18z"/><path fill="#ed3302" fill-rule="evenodd" stroke="#ed3302" stroke-width=".1" d="M40 11h20v1h-20zm20 1h1v1h-1z"/><path fill="#ec3402" fill-rule="evenodd" stroke="#ec3402" stroke-width=".1" d="M39 12h1v1h-1z"/><path fill="#ed3402" fill-rule="evenodd" stroke="#ed3402" stroke-width=".1" d="M40 12h20v1h-20z"/><path fill="#ee3602" fill-rule="evenodd" stroke="#ee3602" stroke-width=".1" d="M39 13h22v1h-22z"/><path fill="#ee3601" fill-rule="evenodd" stroke="#ee3601" stroke-width=".1" d="M38 14h1v1h-1zm23 0h1v1h-1z"/><path fill="#ee3702" fill-rule="evenodd" stroke="#ee3702" stroke-width=".1" d="M39 14h22v1h-22z"/><path fill="#ed3802" fill-rule="evenodd" stroke="#ed3802" stroke-width=".1" d="M38 15h1v1h-1z"/><path fill="#ee3902" fill-rule="evenodd" stroke="#ee3902" stroke-width=".1" d="M39 15h22v1h-22z"/><path fill="#ed3902" fill-rule="evenodd" stroke="#ed3902" stroke-width=".1" d="M61 15h1v1h-1z"/><path fill="#ed3901" fill-rule="evenodd" stroke="#ed3901" stroke-width=".1" d="M37 16h1v1h-1z"/><path fill="#ee3a02" fill-rule="evenodd" stroke="#ee3a02" stroke-width=".1" d="M38 16h24v1h-24z"/><path fill="#ed3a01" fill-rule="evenodd" stroke="#ed3a01" stroke-width=".1" d="M62 16h1v1h-1z"/><path fill="#ee3c02" fill-rule="evenodd" stroke="#ee3c02" stroke-width=".1" d="M37 17h25v1h-25z"/><path fill="#ee3b02" fill-rule="evenodd" stroke="#ee3b02" stroke-width=".1" d="M62 17h1v1h-1z"/><path fill="#ee3d02" fill-rule="evenodd" stroke="#ee3d02" stroke-width=".1" d="M37 18h26v1h-26z"/><path fill="#ee3f01" fill-rule="evenodd" stroke="#ee3f01" stroke-width=".1" d="M36 19h1v1h-1z"/><path fill="#ef3f02" fill-rule="evenodd" stroke="#ef3f02" stroke-width=".1" d="M37 19h26v1h-26z"/><path fill="#ee3e01" fill-rule="evenodd" stroke="#ee3e01" stroke-width=".1" d="M63 19h1v1h-1z"/><path fill="#ee3f02" fill-rule="evenodd" stroke="#ee3f02" stroke-width=".1" d="M36 20h1v1h-1z"/><path fill="#ef4002" fill-rule="evenodd" stroke="#ef4002" stroke-width=".1" d="M37 20h26v1h-26z"/><path fill="#ee4002" fill-rule="evenodd" stroke="#ee4002" stroke-width=".1" d="M63 20h1v1h-1z"/><path fill="#ee4101" fill-rule="evenodd" stroke="#ee4101" stroke-width=".1" d="M35 21h1v1h-1z"/><path fill="#ef4202" fill-rule="evenodd" stroke="#ef4202" stroke-width=".1" d="M36 21h28v1h-28zm0 1v1h-1v-1z"/><path fill="#ef4201" fill-rule="evenodd" stroke="#ef4201" stroke-width=".1" d="M64 21h1v1h-1z"/><path fill="#ef4302" fill-rule="evenodd" stroke="#ef4302" stroke-width=".1" d="M36 22h28v1h-28z"/><path fill="#ee4302" fill-rule="evenodd" stroke="#ee4302" stroke-width=".1" d="M64 22h1v1h-1z"/><path fill="#ef4502" fill-rule="evenodd" stroke="#ef4502" stroke-width=".1" d="M35 23h30v1h-14v1h-2v-1h-14z"/><path fill="#f04601" fill-rule="evenodd" stroke="#f04601" stroke-width=".1" d="M34 24h1v1h-1zm31 0h1v1h-1z"/><path fill="#f04602" fill-rule="evenodd" stroke="#f04602" stroke-width=".1" d="M35 24h14v1h-14zm16 0h14v1h-14z"/><path fill="#ef4802" fill-rule="evenodd" stroke="#ef4802" stroke-width=".1" d="M34 25h1v1h-1zm31 0h1v1h-1z"/><path fill="#f04802" fill-rule="evenodd" stroke="#f04802" stroke-width=".1" d="M35 25h14v1h-14zm16 0h14v1h-14z"/><path fill="#ef4701" fill-rule="evenodd" stroke="#ef4701" stroke-width=".1" d="M49 25h1v1h-1z"/><path fill="#ef4801" fill-rule="evenodd" stroke="#ef4801" stroke-width=".1" d="M50 25h1v1h-1z"/><path fill="#f04901" fill-rule="evenodd" stroke="#f04901" stroke-width=".1" d="M33 26h1v1h-1zm33 0h1v1h-1z"/><path fill="#f04902" fill-rule="evenodd" stroke="#f04902" stroke-width=".1" d="M34 26h14v1h-14zm18 0h14v1h-14z"/><path fill="#ef4902" fill-rule="evenodd" stroke="#ef4902" stroke-width=".1" d="M48 26h1v1h-1zm3 0h1v1h-1z"/><path fill="#ef4b01" fill-rule="evenodd" stroke="#ef4b01" stroke-width=".1" d="M33 27h1v1h-1z"/><path fill="#f04b01" fill-rule="evenodd" stroke="#f04b01" stroke-width=".1" d="M34 27h15v1h-15zm18 0h14v1h-14z"/><path fill="#f04a01" fill-rule="evenodd" stroke="#f04a01" stroke-width=".1" d="M51 27h1v1h-1z"/><path fill="#ef4a01" fill-rule="evenodd" stroke="#ef4a01" stroke-width=".1" d="M66 27h1v1h-1z"/><path fill="#f04c01" fill-rule="evenodd" stroke="#f04c01" stroke-width=".1" d="M33 28h15v1h-15zm19 0h15v1h-15z"/><path fill="#f04d01" fill-rule="evenodd" stroke="#f04d01" stroke-width=".1" d="M32 29h1v1h-1z"/><path fill="#f04e01" fill-rule="evenodd" stroke="#f04e01" stroke-width=".1" d="M33 29h15v1h-15zm19 0h16v1h-16z"/><path fill="#f04f01" fill-rule="evenodd" stroke="#f04f01" stroke-width=".1" d="M32 30h1v1h-1z"/><path fill="#f14f01" fill-rule="evenodd" stroke="#f14f01" stroke-width=".1" d="M33 30h14v1h-14zm20 0h15v1h-15z"/><path fill="#f05001" fill-rule="evenodd" stroke="#f05001" stroke-width=".1" d="M31 31h1v1h-1zm37 0h1v1h-1z"/><path fill="#f15101" fill-rule="evenodd" stroke="#f15101" stroke-width=".1" d="M32 31h15v1h-15zm0 1v1h-1v-1zm22-1h14v1h-14z"/><path fill="#f05101" fill-rule="evenodd" stroke="#f05101" stroke-width=".1" d="M53 31h1v1h-1zm-7 1h1v1h-1z"/><path fill="#f15201" fill-rule="evenodd" stroke="#f15201" stroke-width=".1" d="M32 32h14v1h-14zm22 0h15v1h-15z"/><path fill="#f05201" fill-rule="evenodd" stroke="#f05201" stroke-width=".1" d="M53 32h1v1h-1z"/><path fill="#f15401" fill-rule="evenodd" stroke="#f15401" stroke-width=".1" d="M31 33h14v1h-14zm24 0h14v1h-14z"/><path fill="#f05301" fill-rule="evenodd" stroke="#f05301" stroke-width=".1" d="M45 33h1v1h-1zm9 0h1v1h-1z"/><path fill="#f05501" fill-rule="evenodd" stroke="#f05501" stroke-width=".1" d="M30 34h1v1h-1zm15 0h1v1h-1zm9 0h1v1h-1zm15 0h1v1h-1z"/><path fill="#f15601" fill-rule="evenodd" stroke="#f15601" stroke-width=".1" d="M31 34h14v1h-14z"/><path fill="#f15501" fill-rule="evenodd" stroke="#f15501" stroke-width=".1" d="M55 34h14v1h-14z"/><path fill="#f15701" fill-rule="evenodd" stroke="#f15701" stroke-width=".1" d="M30 35h15v1h-15zm25 0h15v1h-15z"/><path fill="#f25801" fill-rule="evenodd" stroke="#f25801" stroke-width=".1" d="M29 36h1v1h-1zm29 0h12v1h-12z"/><path fill="#f25901" fill-rule="evenodd" stroke="#f25901" stroke-width=".1" d="M30 36h14v1h-14zm26 0h2v1h-2z"/><path fill="#f15901" fill-rule="evenodd" stroke="#f15901" stroke-width=".1" d="M44 36h1v1h-1zm11 0h1v1h-1z"/><path fill="#f25701" fill-rule="evenodd" stroke="#f25701" stroke-width=".1" d="M70 36h1v1h-1z"/><path fill="#f25a01" fill-rule="evenodd" stroke="#f25a01" stroke-width=".1" d="M29 37h15v1h-15zm27 0h15v1h-15z"/><path fill="#f25c01" fill-rule="evenodd" stroke="#f25c01" stroke-width=".1" d="M29 38h14v1h-14zm14 1h1v1h-1zm13-1h15v1h-15z"/><path fill="#f25b01" fill-rule="evenodd" stroke="#f25b01" stroke-width=".1" d="M43 38h1v1h-1z"/><path fill="#f25d01" fill-rule="evenodd" stroke="#f25d01" stroke-width=".1" d="M28 39h15v1h-15zm28 0h16v1h-16z"/><path fill="#f25f01" fill-rule="evenodd" stroke="#f25f01" stroke-width=".1" d="M28 40h14v1h-14zm14 1h1v1h-1zm16-1h14v1h-14z"/><path fill="#f15f01" fill-rule="evenodd" stroke="#f15f01" stroke-width=".1" d="M42 40h1v1h-1zm30 1h1v1h-1z"/><path fill="#f15e01" fill-rule="evenodd" stroke="#f15e01" stroke-width=".1" d="M57 40h1v1h-1z"/><path fill="#f35f01" fill-rule="evenodd" stroke="#f35f01" stroke-width=".1" d="M27 41h1v1h-1z"/><path fill="#f36001" fill-rule="evenodd" stroke="#f36001" stroke-width=".1" d="M28 41h14v1h-14zm30 0h6v1h-6z"/><path fill="#f26001" fill-rule="evenodd" stroke="#f26001" stroke-width=".1" d="M57 41h1v1h-1zm7 0h8v1h-8z"/><path fill="#f36201" fill-rule="evenodd" stroke="#f36201" stroke-width=".1" d="M27 42h15v2h-1v-1h-14zm31 0h14v1h-13v1h-1z"/><path fill="#f36101" fill-rule="evenodd" stroke="#f36101" stroke-width=".1" d="M72 42h1v1h-1z"/><path fill="#f36301" fill-rule="evenodd" stroke="#f36301" stroke-width=".1" d="M27 43h14v1h-14zm32 0h14v1h-14z"/><path fill="#f26501" fill-rule="evenodd" stroke="#f26501" stroke-width=".1" d="M26 44h1v1h-1z"/><path fill="#f36501" fill-rule="evenodd" stroke="#f36501" stroke-width=".1" d="M27 44h14v2h-1v-1h-13zm32 0h14v1h-13v1h-1z"/><path fill="#f26401" fill-rule="evenodd" stroke="#f26401" stroke-width=".1" d="M73 44h1v1h-1z"/><path fill="#f36601" fill-rule="evenodd" stroke="#f36601" stroke-width=".1" d="M26 45h14v1h-14zm34 0h14v1h-14z"/><path fill="#bfe6fd" fill-rule="evenodd" stroke="#bfe6fd" stroke-width=".1" d="M49 45h1v1h-1z"/><path fill="#bfe6ff" fill-rule="evenodd" stroke="#bfe6ff" stroke-width=".1" d="M50 45h1v1h-1z"/><path fill="#f36801" fill-rule="evenodd" stroke="#f36801" stroke-width=".1" d="M25 46h16v1h-16zm35 0h14v1h-14z"/><path fill="#fafdff" fill-rule="evenodd" stroke="#fafdff" stroke-width=".1" d="M49 46h1v1h-1zm-2 5h1v1h-1zm0 9h1v1h-1zm5 0h1v1h-1z"/><path fill="#fbfdff" fill-rule="evenodd" stroke="#fbfdff" stroke-width=".1" d="M50 46h1v1h-1zm2 5h1v1h-1zm-6 6h1v1h-1zm7 0h1v1h-1zm-5 5h1v1h-1zm3 0h1v1h-1z"/><path fill="#f36701" fill-rule="evenodd" stroke="#f36701" stroke-width=".1" d="M59 46h1v1h-1zm15 0h1v1h-1z"/><path fill="#f46901" fill-rule="evenodd" stroke="#f46901" stroke-width=".1" d="M25 47h15v1h-15zm36 0h13v1h-13z"/><path fill="#a6dcff" fill-rule="evenodd" stroke="#a6dcff" stroke-width=".1" d="M48 47h1v1h-1zm3 0h1v1h-1z"/><path fill="#fff" fill-rule="evenodd" stroke="#fff" stroke-width=".1" d="M49 47h2v2h1v3h1v5h-1v2h-1v3h-2v-3h-1v-2h-1v-2h-1v-1h1v-2h1v-3h1z"/><path fill="#f36901" fill-rule="evenodd" stroke="#f36901" stroke-width=".1" d="M60 47h1v1h-1z"/><path fill="#f46801" fill-rule="evenodd" stroke="#f46801" stroke-width=".1" d="M74 47h1v1h-1z"/><path fill="#f46b01" fill-rule="evenodd" stroke="#f46b01" stroke-width=".1" d="M25 48h14v1h-14zm35 0h15v1h-15z"/><path fill="#f46a01" fill-rule="evenodd" stroke="#f46a01" stroke-width=".1" d="M39 48h1v1h-1z"/><path fill="#e2f3ff" fill-rule="evenodd" stroke="#e2f3ff" stroke-width=".1" d="M48 48h1v1h-1zm-2 5h1v1h-1z"/><path fill="#e4f4ff" fill-rule="evenodd" stroke="#e4f4ff" stroke-width=".1" d="M51 48h1v1h-1z"/><path fill="#f36b01" fill-rule="evenodd" stroke="#f36b01" stroke-width=".1" d="M24 49h1v1h-1z"/><path fill="#f46c01" fill-rule="evenodd" stroke="#f46c01" stroke-width=".1" d="M25 49h14v1h-14zm36 0h15v1h-15z"/><path fill="#8ad2ff" fill-rule="evenodd" stroke="#8ad2ff" stroke-width=".1" d="M47 49h1v1h-1z"/><path fill="#8ad3ff" fill-rule="evenodd" stroke="#8ad3ff" stroke-width=".1" d="M52 49h1v1h-1z"/><path fill="#f46e01" fill-rule="evenodd" stroke="#f46e01" stroke-width=".1" d="M24 50h14v1h-14zm38 0h14v1h-14z"/><path fill="#f36e01" fill-rule="evenodd" stroke="#f36e01" stroke-width=".1" d="M38 50h1v1h-1zm23 0h1v1h-1zm15 1h1v1h-1z"/><path fill="#c0e6fd" fill-rule="evenodd" stroke="#c0e6fd" stroke-width=".1" d="M47 50h1v1h-1z"/><path fill="#c0e6ff" fill-rule="evenodd" stroke="#c0e6ff" stroke-width=".1" d="M52 50h1v1h-1z"/><path fill="#f36f01" fill-rule="evenodd" stroke="#f36f01" stroke-width=".1" d="M23 51h1v1h-1z"/><path fill="#f46f01" fill-rule="evenodd" stroke="#f46f01" stroke-width=".1" d="M24 51h14v1h-14zm38 0h14v1h-14z"/><path fill="#f37001" fill-rule="evenodd" stroke="#f37001" stroke-width=".1" d="M23 52h1v1h-1zm14 0h1v1h-1zm25 0h1v1h-1zm14 0h1v1h-1z"/><path fill="#f47101" fill-rule="evenodd" stroke="#f47101" stroke-width=".1" d="M24 52h13v1h-13zm39 0h13v1h-13z"/><path fill="#a2dafd" fill-rule="evenodd" stroke="#a2dafd" stroke-width=".1" d="M46 52h1v1h-1z"/><path fill="#a3dbff" fill-rule="evenodd" stroke="#a3dbff" stroke-width=".1" d="M53 52h1v1h-1zm2 10h1v1h-1zm-2 5h1v1h-1z"/><path fill="#f57201" fill-rule="evenodd" stroke="#f57201" stroke-width=".1" d="M23 53h15v1h-15zm40 0h14v1h-14z"/><path fill="#e4f3fd" fill-rule="evenodd" stroke="#e4f3fd" stroke-width=".1" d="M53 53h1v1h-1z"/><path fill="#f57101" fill-rule="evenodd" stroke="#f57101" stroke-width=".1" d="M62 53h1v1h-1z"/><path fill="#f57401" fill-rule="evenodd" stroke="#f57401" stroke-width=".1" d="M22 54h15v1h-15zm41 0h15v1h-15z"/><path fill="#82cfff" fill-rule="evenodd" stroke="#82cfff" stroke-width=".1" d="M45 54h1v1h-1z"/><path fill="#feffff" fill-rule="evenodd" stroke="#feffff" stroke-width=".1" d="M53 54h1v2h-1zm-7 1h1v1h-1zm1 2h1v2h-1zm5 0h1v2h-1zm-4 2h1v2h-1zm4 0v2h-1v-2zm-3 3h2v1h-2z"/><path fill="#82ceff" fill-rule="evenodd" stroke="#82ceff" stroke-width=".1" d="M54 54h1v1h-1z"/><path fill="#f57501" fill-rule="evenodd" stroke="#f57501" stroke-width=".1" d="M22 55h14v1h-14zm42 0h14v1h-14z"/><path fill="#f47501" fill-rule="evenodd" stroke="#f47501" stroke-width=".1" d="M36 55h1v1h-1z"/><path fill="#bde5ff" fill-rule="evenodd" stroke="#bde5ff" stroke-width=".1" d="M45 55h1v1h-1z"/><path fill="#bbe3fd" fill-rule="evenodd" stroke="#bbe3fd" stroke-width=".1" d="M54 55h1v1h-1z"/><path fill="#f47401" fill-rule="evenodd" stroke="#f47401" stroke-width=".1" d="M63 55h1v1h-1z"/><path fill="#f57701" fill-rule="evenodd" stroke="#f57701" stroke-width=".1" d="M21 56h15v1h-15zm43 0h14v1h-14z"/><path fill="#f4fbff" fill-rule="evenodd" stroke="#f4fbff" stroke-width=".1" d="M45 56h1v1h-1zm4 10h2v1h-2z"/><path fill="#fdfeff" fill-rule="evenodd" stroke="#fdfeff" stroke-width=".1" d="M46 56h1v1h-1zm7 0h1v1h-1zm-5 5h1v1h-1zm3 0h1v1h-1zm-2 2h2v1h-2z"/><path fill="#f5fbff" fill-rule="evenodd" stroke="#f5fbff" stroke-width=".1" d="M54 56h1v1h-1zm-8 3h1v1h-1zm7 0h1v1h-1zm-5 5h1v1h-1zm3 0h1v1h-1z"/><path fill="#f57601" fill-rule="evenodd" stroke="#f57601" stroke-width=".1" d="M78 56h1v1h-1z"/><path fill="#f47701" fill-rule="evenodd" stroke="#f47701" stroke-width=".1" d="M21 57h1v1h-1z"/><path fill="#f57801" fill-rule="evenodd" stroke="#f57801" stroke-width=".1" d="M22 57h13v1h-13zm43 0h13v1h-13z"/><path fill="#f47801" fill-rule="evenodd" stroke="#f47801" stroke-width=".1" d="M35 57h1v1h-1zm29 0h1v1h-1zm14 0h1v1h-1z"/><path fill="#90d3fd" fill-rule="evenodd" stroke="#90d3fd" stroke-width=".1" d="M44 57h1v1h-1z"/><path fill="#f3faff" fill-rule="evenodd" stroke="#f3faff" stroke-width=".1" d="M45 57h1v1h-1zm2 5h1v1h-1z"/><path fill="#f2faff" fill-rule="evenodd" stroke="#f2faff" stroke-width=".1" d="M54 57h1v1h-1zm-2 5h1v1h-1z"/><path fill="#91d4ff" fill-rule="evenodd" stroke="#91d4ff" stroke-width=".1" d="M55 57h1v1h-1z"/><path fill="#f57a01" fill-rule="evenodd" stroke="#f57a01" stroke-width=".1" d="M21 58h14v1h-14zm44 0h14v1h-13v1h-1z"/><path fill="#c4e8ff" fill-rule="evenodd" stroke="#c4e8ff" stroke-width=".1" d="M44 58h1v1h-1z"/><path fill="#edf8ff" fill-rule="evenodd" stroke="#edf8ff" stroke-width=".1" d="M45 58h1v1h-1zm9 0h1v1h-1zm-7 5h1v1h-1zm5 0h1v1h-1z"/><path fill="#f9fdff" fill-rule="evenodd" stroke="#f9fdff" stroke-width=".1" d="M46 58h1v1h-1zm3 7h2v1h-2z"/><path fill="#f8fcff" fill-rule="evenodd" stroke="#f8fcff" stroke-width=".1" d="M53 58h1v1h-1zm-5 5h1v1h-1zm3 0h1v1h-1z"/><path fill="#c4e7fd" fill-rule="evenodd" stroke="#c4e7fd" stroke-width=".1" d="M55 58h1v1h-1z"/><path fill="#f67a01" fill-rule="evenodd" stroke="#f67a01" stroke-width=".1" d="M20 59h1v1h-1z"/><path fill="#f67b01" fill-rule="evenodd" stroke="#f67b01" stroke-width=".1" d="M21 59h13v1h-13zm45 0h13v1h-13z"/><path fill="#f57b01" fill-rule="evenodd" stroke="#f57b01" stroke-width=".1" d="M34 59h1v1h-1zm45 0h1v1h-1z"/><path fill="#5fc1ff" fill-rule="evenodd" stroke="#5fc1ff" stroke-width=".1" d="M43 59h1v1h-1z"/><path fill="#ceecff" fill-rule="evenodd" stroke="#ceecff" stroke-width=".1" d="M44 59h1v1h-1zm2 5h1v1h-1zm3 6h2v1h-2z"/><path fill="#e7f5ff" fill-rule="evenodd" stroke="#e7f5ff" stroke-width=".1" d="M45 59h1v1h-1zm2 5h1v1h-1zm2 4h2v1h-2z"/><path fill="#fcfeff" fill-rule="evenodd" stroke="#fcfeff" stroke-width=".1" d="M47 59h1v1h-1zm5 0h1v1h-1zm-3 5h2v1h-2z"/><path fill="#e6f5ff" fill-rule="evenodd" stroke="#e6f5ff" stroke-width=".1" d="M54 59h1v1h-1zm-2 5h1v1h-1z"/><path fill="#cdecff" fill-rule="evenodd" stroke="#cdecff" stroke-width=".1" d="M55 59h1v1h-1zm-2 5h1v1h-1z"/><path fill="#5fc2ff" fill-rule="evenodd" stroke="#5fc2ff" stroke-width=".1" d="M56 59h1v1h-1z"/><path fill="#f67d01" fill-rule="evenodd" stroke="#f67d01" stroke-width=".1" d="M20 60h14v1h-14zm46 0h14v1h-14z"/><path fill="#f57c01" fill-rule="evenodd" stroke="#f57c01" stroke-width=".1" d="M34 60h1v1h-1z"/><path fill="#7acbfd" fill-rule="evenodd" stroke="#7acbfd" stroke-width=".1" d="M43 60h1v1h-1z"/><path fill="#c1e7ff" fill-rule="evenodd" stroke="#c1e7ff" stroke-width=".1" d="M44 60h1v1h-1zm11 0h1v1h-1zm-9 5h1v1h-1zm7 0h1v1h-1z"/><path fill="#def2ff" fill-rule="evenodd" stroke="#def2ff" stroke-width=".1" d="M45 60h1v1h-1zm2 5h1v1h-1z"/><path fill="#f1faff" fill-rule="evenodd" stroke="#f1faff" stroke-width=".1" d="M46 60h1v1h-1z"/><path fill="#f0f9ff" fill-rule="evenodd" stroke="#f0f9ff" stroke-width=".1" d="M53 60h1v1h-1zm-5 5h1v1h-1zm3 0h1v1h-1z"/><path fill="#ddf2ff" fill-rule="evenodd" stroke="#ddf2ff" stroke-width=".1" d="M54 60h1v1h-1zm-2 5h1v1h-1z"/><path fill="#7bccff" fill-rule="evenodd" stroke="#7bccff" stroke-width=".1" d="M56 60h1v1h-1z"/><path fill="#f57d01" fill-rule="evenodd" stroke="#f57d01" stroke-width=".1" d="M65 60h1v1h-1zm15 1h1v1h-1z"/><path fill="#f57e01" fill-rule="evenodd" stroke="#f57e01" stroke-width=".1" d="M19 61h1v1h-1z"/><path fill="#f67e01" fill-rule="evenodd" stroke="#f67e01" stroke-width=".1" d="M20 61h14v1h-14zm46 0h14v1h-14z"/><path fill="#8ad1ff" fill-rule="evenodd" stroke="#8ad1ff" stroke-width=".1" d="M43 61h1v1h-1z"/><path fill="#b4e2ff" fill-rule="evenodd" stroke="#b4e2ff" stroke-width=".1" d="M44 61h1v1h-1z"/><path fill="#d4eeff" fill-rule="evenodd" stroke="#d4eeff" stroke-width=".1" d="M45 61h1v1h-1zm2 5h1v1h-1z"/><path fill="#eaf7ff" fill-rule="evenodd" stroke="#eaf7ff" stroke-width=".1" d="M46 61h1v1h-1zm7 0h1v1h-1zm-5 5h1v1h-1zm3 0h1v1h-1z"/><path fill="#f7fcff" fill-rule="evenodd" stroke="#f7fcff" stroke-width=".1" d="M47 61h1v1h-1zm5 0h1v1h-1z"/><path fill="#d3eeff" fill-rule="evenodd" stroke="#d3eeff" stroke-width=".1" d="M54 61h1v1h-1zm-2 5h1v1h-1z"/><path fill="#b3e1ff" fill-rule="evenodd" stroke="#b3e1ff" stroke-width=".1" d="M55 61h1v1h-1zm-9 5h1v1h-1zm7 0h1v1h-1z"/><path fill="#8bd2ff" fill-rule="evenodd" stroke="#8bd2ff" stroke-width=".1" d="M56 61h1v1h-1z"/><path fill="#f58001" fill-rule="evenodd" stroke="#f58001" stroke-width=".1" d="M19 62h1v1h-1z"/><path fill="#f68001" fill-rule="evenodd" stroke="#f68001" stroke-width=".1" d="M20 62h13v1h-13zm46 0h14v1h-14z"/><path fill="#f57f01" fill-rule="evenodd" stroke="#f57f01" stroke-width=".1" d="M33 62h1v1h-1zm47 0h1v1h-1z"/><path fill="#3bb3fd" fill-rule="evenodd" stroke="#3bb3fd" stroke-width=".1" d="M42 62h1v1h-1z"/><path fill="#7cccfe" fill-rule="evenodd" stroke="#7cccfe" stroke-width=".1" d="M43 62h1v1h-1z"/><path fill="#a4dcff" fill-rule="evenodd" stroke="#a4dcff" stroke-width=".1" d="M44 62h1v1h-1zm2 5h1v1h-1z"/><path fill="#c8eaff" fill-rule="evenodd" stroke="#c8eaff" stroke-width=".1" d="M45 62h1v1h-1z"/><path fill="#e3f4ff" fill-rule="evenodd" stroke="#e3f4ff" stroke-width=".1" d="M46 62h1v1h-1z"/><path fill="#e2f4ff" fill-rule="evenodd" stroke="#e2f4ff" stroke-width=".1" d="M53 62h1v1h-1zm-5 5h1v1h-1z"/><path fill="#c7e9ff" fill-rule="evenodd" stroke="#c7e9ff" stroke-width=".1" d="M54 62h1v1h-1zm-7 5h1v1h-1z"/><path fill="#7bccfe" fill-rule="evenodd" stroke="#7bccfe" stroke-width=".1" d="M56 62h1v1h-1zm-11 5h1v1h-1zm9 0h1v1h-1z"/><path fill="#3bb4ff" fill-rule="evenodd" stroke="#3bb4ff" stroke-width=".1" d="M57 62h1v1h-1z"/><path fill="#f68101" fill-rule="evenodd" stroke="#f68101" stroke-width=".1" d="M19 63h14v1h-14zm48 0h14v1h-14z"/><path fill="#40b4fd" fill-rule="evenodd" stroke="#40b4fd" stroke-width=".1" d="M42 63h1v1h-1z"/><path fill="#6cc6fe" fill-rule="evenodd" stroke="#6cc6fe" stroke-width=".1" d="M43 63h1v1h-1zm13 0h1v1h-1zm-11 5h1v1h-1z"/><path fill="#95d6ff" fill-rule="evenodd" stroke="#95d6ff" stroke-width=".1" d="M44 63h1v1h-1zm2 5h1v1h-1z"/><path fill="#bbe4ff" fill-rule="evenodd" stroke="#bbe4ff" stroke-width=".1" d="M45 63h1v1h-1zm6 7h1v1h-1z"/><path fill="#d9f0ff" fill-rule="evenodd" stroke="#d9f0ff" stroke-width=".1" d="M46 63h1v1h-1z"/><path fill="#d8f0ff" fill-rule="evenodd" stroke="#d8f0ff" stroke-width=".1" d="M53 63h1v1h-1z"/><path fill="#bae4ff" fill-rule="evenodd" stroke="#bae4ff" stroke-width=".1" d="M54 63h1v1h-1zm-7 5h1v1h-1zm5 0h1v1h-1z"/><path fill="#94d5ff" fill-rule="evenodd" stroke="#94d5ff" stroke-width=".1" d="M55 63h1v1h-1zm-2 5h1v1h-1z"/><path fill="#40b5ff" fill-rule="evenodd" stroke="#40b5ff" stroke-width=".1" d="M57 63h1v1h-1z"/><path fill="#f68201" fill-rule="evenodd" stroke="#f68201" stroke-width=".1" d="M18 64h1v1h-1zm63 0h1v1h-1z"/><path fill="#f78301" fill-rule="evenodd" stroke="#f78301" stroke-width=".1" d="M19 64h14v1h-14zm48 0h14v1h-14z"/><path fill="#15a4fd" fill-rule="evenodd" stroke="#15a4fd" stroke-width=".1" d="M41 64h1v1h-1z"/><path fill="#39b2fe" fill-rule="evenodd" stroke="#39b2fe" stroke-width=".1" d="M42 64h1v1h-1zm15 0h1v1h-1zm-13 5h1v1h-1zm11 0h1v1h-1z"/><path fill="#5cbffe" fill-rule="evenodd" stroke="#5cbffe" stroke-width=".1" d="M43 64h1v1h-1zm13 0h1v1h-1zm-11 5h1v1h-1z"/><path fill="#84cfff" fill-rule="evenodd" stroke="#84cfff" stroke-width=".1" d="M44 64h1v1h-1zm2 5h1v1h-1z"/><path fill="#acdfff" fill-rule="evenodd" stroke="#acdfff" stroke-width=".1" d="M45 64h1v1h-1z"/><path fill="#abdeff" fill-rule="evenodd" stroke="#abdeff" stroke-width=".1" d="M54 64h1v1h-1zm-7 5h1v1h-1z"/><path fill="#83cfff" fill-rule="evenodd" stroke="#83cfff" stroke-width=".1" d="M55 64h1v1h-1zm-2 5h1v1h-1z"/><path fill="#14a3fd" fill-rule="evenodd" stroke="#14a3fd" stroke-width=".1" d="M58 64h1v1h-1zm0 2h1v1h-1z"/><path fill="#f78501" fill-rule="evenodd" stroke="#f78501" stroke-width=".1" d="M18 65h4v1h-4zm64 1h1v1h-1z"/><path fill="#f78401" fill-rule="evenodd" stroke="#f78401" stroke-width=".1" d="M22 65h10v1h-10zm45 0h15v1h-15z"/><path fill="#15a3fd" fill-rule="evenodd" stroke="#15a3fd" stroke-width=".1" d="M41 65h1v2h-1zm17 0h1v1h-1z"/><path fill="#2eaefe" fill-rule="evenodd" stroke="#2eaefe" stroke-width=".1" d="M42 65h1v1h-1zm15 0h1v1h-1zm-13 5h1v1h-1zm3 6h1v1h-1zm5 0h1v1h-1z"/><path fill="#4dbafe" fill-rule="evenodd" stroke="#4dbafe" stroke-width=".1" d="M43 65h1v1h-1z"/><path fill="#73c9fe" fill-rule="evenodd" stroke="#73c9fe" stroke-width=".1" d="M44 65h1v1h-1zm2 5h1v1h-1z"/><path fill="#9cd9ff" fill-rule="evenodd" stroke="#9cd9ff" stroke-width=".1" d="M45 65h1v1h-1z"/><path fill="#9bd8ff" fill-rule="evenodd" stroke="#9bd8ff" stroke-width=".1" d="M54 65h1v1h-1z"/><path fill="#72c8fe" fill-rule="evenodd" stroke="#72c8fe" stroke-width=".1" d="M55 65h1v1h-1zm-2 5h1v1h-1z"/><path fill="#4cb9fe" fill-rule="evenodd" stroke="#4cb9fe" stroke-width=".1" d="M56 65h1v1h-1zm-11 5h1v1h-1zm9 0h1v1h-1z"/><path fill="#f78601" fill-rule="evenodd" stroke="#f78601" stroke-width=".1" d="M17 66h14v1h-14zm52 0h13v1h-13zm0 1v1h-1v-1z"/><path fill="#f68501" fill-rule="evenodd" stroke="#f68501" stroke-width=".1" d="M31 66h1v1h-1z"/><path fill="#24aafe" fill-rule="evenodd" stroke="#24aafe" stroke-width=".1" d="M42 66h1v1h-1zm15 0h1v1h-1zm-13 5h1v1h-1z"/><path fill="#40b4fe" fill-rule="evenodd" stroke="#40b4fe" stroke-width=".1" d="M43 66h1v1h-1z"/><path fill="#64c3fe" fill-rule="evenodd" stroke="#64c3fe" stroke-width=".1" d="M44 66h1v1h-1zm3 7h1v1h-1zm5 0h1v1h-1z"/><path fill="#8cd2ff" fill-rule="evenodd" stroke="#8cd2ff" stroke-width=".1" d="M45 66h1v1h-1zm9 0h1v1h-1z"/><path fill="#63c2fe" fill-rule="evenodd" stroke="#63c2fe" stroke-width=".1" d="M55 66h1v1h-1zm-9 5h1v1h-1zm7 0h1v1h-1z"/><path fill="#3fb4fe" fill-rule="evenodd" stroke="#3fb4fe" stroke-width=".1" d="M56 66h1v1h-1zm-11 5h1v1h-1zm9 0h1v1h-1zm-7 4h1v1h-1zm5 0h1v1h-1z"/><path fill="#f68601" fill-rule="evenodd" stroke="#f68601" stroke-width=".1" d="M68 66h1v1h-1z"/><path fill="#f68701" fill-rule="evenodd" stroke="#f68701" stroke-width=".1" d="M17 67h1v1h-1zm65 0h1v1h-1z"/><path fill="#f78801" fill-rule="evenodd" stroke="#f78801" stroke-width=".1" d="M18 67h14v1h-14z"/><path fill="#10a2fd" fill-rule="evenodd" stroke="#10a2fd" stroke-width=".1" d="M41 67h1v1h-1z"/><path fill="#1ca7fe" fill-rule="evenodd" stroke="#1ca7fe" stroke-width=".1" d="M42 67h1v1h-1zm15 0h1v1h-1zm-13 5h1v1h-1z"/><path fill="#33affe" fill-rule="evenodd" stroke="#33affe" stroke-width=".1" d="M43 67h1v1h-1zm13 0h1v1h-1zm-11 5h1v1h-1z"/><path fill="#54bcfe" fill-rule="evenodd" stroke="#54bcfe" stroke-width=".1" d="M44 67h1v1h-1z"/><path fill="#eef9ff" fill-rule="evenodd" stroke="#eef9ff" stroke-width=".1" d="M49 67h2v1h-2z"/><path fill="#e1f3ff" fill-rule="evenodd" stroke="#e1f3ff" stroke-width=".1" d="M51 67h1v1h-1z"/><path fill="#c6e9ff" fill-rule="evenodd" stroke="#c6e9ff" stroke-width=".1" d="M52 67h1v1h-1z"/><path fill="#53bcfe" fill-rule="evenodd" stroke="#53bcfe" stroke-width=".1" d="M55 67h1v1h-1zm-9 5h1v1h-1zm7 0h1v1h-1zm-5 3h1v1h-1zm3 0h1v1h-1z"/><path fill="#11a2fd" fill-rule="evenodd" stroke="#11a2fd" stroke-width=".1" d="M58 67h1v1h-1z"/><path fill="#f78701" fill-rule="evenodd" stroke="#f78701" stroke-width=".1" d="M69 67h13v1h-13z"/><path fill="#f78901" fill-rule="evenodd" stroke="#f78901" stroke-width=".1" d="M17 68h14v1h-14zm52 0h14v1h-14z"/><path fill="#16a4fe" fill-rule="evenodd" stroke="#16a4fe" stroke-width=".1" d="M42 68h1v1h-1zm15 0h1v1h-1zm-13 5h1v1h-1zm11 0h1v1h-1z"/><path fill="#29acfe" fill-rule="evenodd" stroke="#29acfe" stroke-width=".1" d="M43 68h1v1h-1zm3 7h1v1h-1zm7 0h1v1h-1z"/><path fill="#45b7fe" fill-rule="evenodd" stroke="#45b7fe" stroke-width=".1" d="M44 68h1v1h-1zm11 0h1v1h-1z"/><path fill="#d7efff" fill-rule="evenodd" stroke="#d7efff" stroke-width=".1" d="M48 68h1v1h-1zm3 0h1v1h-1z"/><path fill="#6bc5fe" fill-rule="evenodd" stroke="#6bc5fe" stroke-width=".1" d="M54 68h1v1h-1zm-6 6h1v1h-1zm3 0h1v1h-1z"/><path fill="#28abfe" fill-rule="evenodd" stroke="#28abfe" stroke-width=".1" d="M56 68h1v1h-1zm-11 5h1v1h-1zm9 0h1v1h-1z"/><path fill="#f68b01" fill-rule="evenodd" stroke="#f68b01" stroke-width=".1" d="M16 69h1v1h-1z"/><path fill="#f78b01" fill-rule="evenodd" stroke="#f78b01" stroke-width=".1" d="M17 69h13v1h-13z"/><path fill="#f78a01" fill-rule="evenodd" stroke="#f78a01" stroke-width=".1" d="M30 69h1v1h-1zm39 0h14v1h-14z"/><path fill="#12a2fd" fill-rule="evenodd" stroke="#12a2fd" stroke-width=".1" d="M42 69h1v1h-1z"/><path fill="#20a8fe" fill-rule="evenodd" stroke="#20a8fe" stroke-width=".1" d="M43 69h1v1h-1zm4 8h1v1h-1zm5 0h1v1h-1z"/><path fill="#caeaff" fill-rule="evenodd" stroke="#caeaff" stroke-width=".1" d="M48 69h1v1h-1zm3 0h1v1h-1z"/><path fill="#dcf1ff" fill-rule="evenodd" stroke="#dcf1ff" stroke-width=".1" d="M49 69h2v1h-2z"/><path fill="#aadeff" fill-rule="evenodd" stroke="#aadeff" stroke-width=".1" d="M52 69h1v1h-1zm-4 2h1v1h-1zm1 1h1v1h-1zm2-1h1v1h-1z"/><path fill="#5bbffe" fill-rule="evenodd" stroke="#5bbffe" stroke-width=".1" d="M54 69h1v1h-1z"/><path fill="#1fa8fe" fill-rule="evenodd" stroke="#1fa8fe" stroke-width=".1" d="M56 69h1v1h-1zm-11 5h1v1h-1zm9 0h1v1h-1z"/><path fill="#12a3fd" fill-rule="evenodd" stroke="#12a3fd" stroke-width=".1" d="M57 69h1v1h-1z"/><path fill="#f68a01" fill-rule="evenodd" stroke="#f68a01" stroke-width=".1" d="M83 69h1v1h-1z"/><path fill="#f88c01" fill-rule="evenodd" stroke="#f88c01" stroke-width=".1" d="M16 70h14v1h-14zm54 0h14v1h-14z"/><path fill="#11a0fd" fill-rule="evenodd" stroke="#11a0fd" stroke-width=".1" d="M42 70h1v1h-1z"/><path fill="#19a5fe" fill-rule="evenodd" stroke="#19a5fe" stroke-width=".1" d="M43 70h1v1h-1zm13 0h1v1h-1z"/><path fill="#9ad8ff" fill-rule="evenodd" stroke="#9ad8ff" stroke-width=".1" d="M47 70h1v1h-1zm5 0h1v1h-1z"/><path fill="#bce5ff" fill-rule="evenodd" stroke="#bce5ff" stroke-width=".1" d="M48 70h1v1h-1z"/><path fill="#2dadfe" fill-rule="evenodd" stroke="#2dadfe" stroke-width=".1" d="M55 70h1v1h-1z"/><path fill="#11a1fd" fill-rule="evenodd" stroke="#11a1fd" stroke-width=".1" d="M57 70h1v1h-1z"/><path fill="#f78d01" fill-rule="evenodd" stroke="#f78d01" stroke-width=".1" d="M15 71h1v1h-1z"/><path fill="#f88e01" fill-rule="evenodd" stroke="#f88e01" stroke-width=".1" d="M16 71h14v1h-14z"/><path fill="#14a3fe" fill-rule="evenodd" stroke="#14a3fe" stroke-width=".1" d="M43 71h1v1h-1z"/><path fill="#89d1ff" fill-rule="evenodd" stroke="#89d1ff" stroke-width=".1" d="M47 71h1v1h-1zm5 0h1v1h-1z"/><path fill="#bee6ff" fill-rule="evenodd" stroke="#bee6ff" stroke-width=".1" d="M49 71h2v1h-2z"/><path fill="#23a9fe" fill-rule="evenodd" stroke="#23a9fe" stroke-width=".1" d="M55 71h1v1h-1z"/><path fill="#13a3fe" fill-rule="evenodd" stroke="#13a3fe" stroke-width=".1" d="M56 71h1v1h-1zm-7 8h2v1h-2z"/><path fill="#f88d01" fill-rule="evenodd" stroke="#f88d01" stroke-width=".1" d="M70 71h14v1h-14z"/><path fill="#f78c01" fill-rule="evenodd" stroke="#f78c01" stroke-width=".1" d="M84 71h1v1h-1z"/><path fill="#f78e01" fill-rule="evenodd" stroke="#f78e01" stroke-width=".1" d="M15 72h1v1h-1zm55 0h1v1h-1z"/><path fill="#f88f01" fill-rule="evenodd" stroke="#f88f01" stroke-width=".1" d="M16 72h13v1h-13zm55 0h13v1h-13z"/><path fill="#f78f01" fill-rule="evenodd" stroke="#f78f01" stroke-width=".1" d="M29 72h1v1h-1zm55 0h1v1h-1z"/><path fill="#0fa1ff" fill-rule="evenodd" stroke="#0fa1ff" stroke-width=".1" d="M43 72h1v1h-1z"/><path fill="#77cafe" fill-rule="evenodd" stroke="#77cafe" stroke-width=".1" d="M47 72h1v1h-1z"/><path fill="#97d6ff" fill-rule="evenodd" stroke="#97d6ff" stroke-width=".1" d="M48 72h1v1h-1zm3 0h1v1h-1z"/><path fill="#a9deff" fill-rule="evenodd" stroke="#a9deff" stroke-width=".1" d="M50 72h1v1h-1z"/><path fill="#76cafe" fill-rule="evenodd" stroke="#76cafe" stroke-width=".1" d="M52 72h1v1h-1z"/><path fill="#32affe" fill-rule="evenodd" stroke="#32affe" stroke-width=".1" d="M54 72h1v1h-1z"/><path fill="#1ba6fe" fill-rule="evenodd" stroke="#1ba6fe" stroke-width=".1" d="M55 72h1v1h-1zm-7 6h1v1h-1zm3 0h1v1h-1z"/><path fill="#0fa1fd" fill-rule="evenodd" stroke="#0fa1fd" stroke-width=".1" d="M56 72h1v1h-1z"/><path fill="#f89100" fill-rule="evenodd" stroke="#f89100" stroke-width=".1" d="M15 73h13v1h-13zm57 0h7v1h-7z"/><path fill="#f79100" fill-rule="evenodd" stroke="#f79100" stroke-width=".1" d="M28 73h1v1h-1zm43 1h1v1h-1z"/><path fill="#0fa2fd" fill-rule="evenodd" stroke="#0fa2fd" stroke-width=".1" d="M43 73h1v1h-1zm13 0h1v1h-1z"/><path fill="#44b6fe" fill-rule="evenodd" stroke="#44b6fe" stroke-width=".1" d="M46 73h1v1h-1zm7 0h1v1h-1z"/><path fill="#81cefe" fill-rule="evenodd" stroke="#81cefe" stroke-width=".1" d="M48 73h1v1h-1zm3 0h1v1h-1z"/><path fill="#93d5ff" fill-rule="evenodd" stroke="#93d5ff" stroke-width=".1" d="M49 73h2v1h-2z"/><path fill="#f79000" fill-rule="evenodd" stroke="#f79000" stroke-width=".1" d="M71 73h1v1h-1z"/><path fill="#f89000" fill-rule="evenodd" stroke="#f89000" stroke-width=".1" d="M79 73h6v1h-6z"/><path fill="#f89200" fill-rule="evenodd" stroke="#f89200" stroke-width=".1" d="M14 74h14v1h-14zm58 0h14v1h-14z"/><path fill="#f79200" fill-rule="evenodd" stroke="#f79200" stroke-width=".1" d="M28 74h1v1h-1z"/><path fill="#11a2fe" fill-rule="evenodd" stroke="#11a2fe" stroke-width=".1" d="M44 74h1v1h-1zm11 0h1v1h-1zm-7 5h1v1h-1zm3 0h1v1h-1z"/><path fill="#36b1fe" fill-rule="evenodd" stroke="#36b1fe" stroke-width=".1" d="M46 74h1v1h-1zm7 0h1v1h-1z"/><path fill="#51bbfe" fill-rule="evenodd" stroke="#51bbfe" stroke-width=".1" d="M47 74h1v1h-1zm5 0h1v1h-1z"/><path fill="#79cbfe" fill-rule="evenodd" stroke="#79cbfe" stroke-width=".1" d="M49 74h2v1h-2z"/><path fill="#f89400" fill-rule="evenodd" stroke="#f89400" stroke-width=".1" d="M14 75h14v1h-14zm58 0h14v1h-13v1h-1z"/><path fill="#0da1fd" fill-rule="evenodd" stroke="#0da1fd" stroke-width=".1" d="M44 75h1v1h-1zm11 0h1v1h-1z"/><path fill="#18a5fe" fill-rule="evenodd" stroke="#18a5fe" stroke-width=".1" d="M45 75h1v1h-1zm9 0h1v1h-1z"/><path fill="#5fc1fe" fill-rule="evenodd" stroke="#5fc1fe" stroke-width=".1" d="M49 75h2v1h-2z"/><path fill="#f99500" fill-rule="evenodd" stroke="#f99500" stroke-width=".1" d="M13 76h14v1h-14zm60 0h13v1h-13z"/><path fill="#f89500" fill-rule="evenodd" stroke="#f89500" stroke-width=".1" d="M27 76h1v1h-1z"/><path fill="#0ca0fd" fill-rule="evenodd" stroke="#0ca0fd" stroke-width=".1" d="M44 76h1v1h-1z"/><path fill="#12a3fe" fill-rule="evenodd" stroke="#12a3fe" stroke-width=".1" d="M45 76h1v1h-1zm9 0h1v1h-1z"/><path fill="#1ea8fe" fill-rule="evenodd" stroke="#1ea8fe" stroke-width=".1" d="M46 76h1v1h-1zm7 0h1v1h-1zm-4 2h2v1h-2z"/><path fill="#3eb4fe" fill-rule="evenodd" stroke="#3eb4fe" stroke-width=".1" d="M48 76h1v1h-1zm3 0h1v1h-1z"/><path fill="#46b7fe" fill-rule="evenodd" stroke="#46b7fe" stroke-width=".1" d="M49 76h2v1h-2z"/><path fill="#0da0fd" fill-rule="evenodd" stroke="#0da0fd" stroke-width=".1" d="M55 76h1v1h-1z"/><path fill="#f99400" fill-rule="evenodd" stroke="#f99400" stroke-width=".1" d="M86 76h1v1h-1z"/><path fill="#f89700" fill-rule="evenodd" stroke="#f89700" stroke-width=".1" d="M13 77h1v1h-1zm73 0h1v1h-1zm-60 1h1v1h-1zm47 0h1v1h-1z"/><path fill="#f99700" fill-rule="evenodd" stroke="#f99700" stroke-width=".1" d="M14 77h13v1h-13zm59 0h13v1h-13z"/><path fill="#0ea1fe" fill-rule="evenodd" stroke="#0ea1fe" stroke-width=".1" d="M45 77h1v1h-1zm9 0h1v1h-1zm-7 2h1v1h-1zm5 0h1v1h-1z"/><path fill="#15a4fe" fill-rule="evenodd" stroke="#15a4fe" stroke-width=".1" d="M46 77h1v1h-1zm1 1h1v1h-1zm6-1h1v1h-1zm0 1v1h-1v-1z"/><path fill="#2aacfe" fill-rule="evenodd" stroke="#2aacfe" stroke-width=".1" d="M48 77h1v1h-1zm3 0h1v1h-1z"/><path fill="#30aefe" fill-rule="evenodd" stroke="#30aefe" stroke-width=".1" d="M49 77h2v1h-2z"/><path fill="#f99800" fill-rule="evenodd" stroke="#f99800" stroke-width=".1" d="M13 78h13v1h-13zm61 0h13v1h-13z"/><path fill="#0a9ffd" fill-rule="evenodd" stroke="#0a9ffd" stroke-width=".1" d="M45 78h1v1h-1z"/><path fill="#0fa1fe" fill-rule="evenodd" stroke="#0fa1fe" stroke-width=".1" d="M46 78h1v1h-1zm7 0h1v1h-1z"/><path fill="#0aa0fd" fill-rule="evenodd" stroke="#0aa0fd" stroke-width=".1" d="M54 78h1v1h-1z"/><path fill="#f99900" fill-rule="evenodd" stroke="#f99900" stroke-width=".1" d="M12 79h1v1h-1zm75 0h1v1h-1z"/><path fill="#f99a00" fill-rule="evenodd" stroke="#f99a00" stroke-width=".1" d="M13 79h14v1h-14zm60 0h14v1h-14z"/><path fill="#089ffd" fill-rule="evenodd" stroke="#089ffd" stroke-width=".1" d="M45 79h1v1h-1zm9 0h1v1h-1z"/><path fill="#0aa0fe" fill-rule="evenodd" stroke="#0aa0fe" stroke-width=".1" d="M46 79h1v1h-1zm7 0h1v1h-1z"/><path fill="#f99b00" fill-rule="evenodd" stroke="#f99b00" stroke-width=".1" d="M12 80h13v1h-13zm63 0h13v1h-13z"/><path fill="#f89b00" fill-rule="evenodd" stroke="#f89b00" stroke-width=".1" d="M25 80h1v1h-1z"/><path fill="#089ffe" fill-rule="evenodd" stroke="#089ffe" stroke-width=".1" d="M46 80h1v1h-1zm7 0h1v1h-1zm-5 1h4v1h-4z"/><path fill="#099ffe" fill-rule="evenodd" stroke="#099ffe" stroke-width=".1" d="M47 80h1v1h-1zm5 0h1v1h-1z"/><path fill="#0ba0fe" fill-rule="evenodd" stroke="#0ba0fe" stroke-width=".1" d="M48 80h4v1h-4z"/><path fill="#f89a00" fill-rule="evenodd" stroke="#f89a00" stroke-width=".1" d="M74 80h1v1h-1z"/><path fill="#f99d00" fill-rule="evenodd" stroke="#f99d00" stroke-width=".1" d="M11 81h1v2h-1z"/><path fill="#fa9d00" fill-rule="evenodd" stroke="#fa9d00" stroke-width=".1" d="M12 81h14v1h-14zm62 0h14v1h-14z"/><path fill="#079efe" fill-rule="evenodd" stroke="#079efe" stroke-width=".1" d="M46 81h2v1h-2zm6 0h2v1h-2z"/><path fill="#f99c00" fill-rule="evenodd" stroke="#f99c00" stroke-width=".1" d="M88 81h1v1h-1z"/><path fill="#fa9e00" fill-rule="evenodd" stroke="#fa9e00" stroke-width=".1" d="M12 82h13v1h-13zm63 0h13v1h-13z"/><path fill="#059dfd" fill-rule="evenodd" stroke="#059dfd" stroke-width=".1" d="M46 82h1v1h-1zm4 13h1v1h-1z"/><path fill="#069efe" fill-rule="evenodd" stroke="#069efe" stroke-width=".1" d="M47 82h6v4h-1v4h-1v4h-2v-4h-1v-4h-1z"/><path fill="#059efd" fill-rule="evenodd" stroke="#059efd" stroke-width=".1" d="M53 82h1v1h-1zm-6 4h1v1h-1zm5 0h1v1h-1zm-1 4h1v2h-1zm-3 1h1v1h-1zm1 4h1v1h-1z"/><path fill="#f99e00" fill-rule="evenodd" stroke="#f99e00" stroke-width=".1" d="M88 82h1v1h-1z"/><path fill="#f9a000" fill-rule="evenodd" stroke="#f9a000" stroke-width=".1" d="M10 83h1v1h-1zm79 0h1v2h-1z"/><path fill="#faa000" fill-rule="evenodd" stroke="#faa000" stroke-width=".1" d="M11 83h13v1h-13zm65 0h13v1h-13z"/><path fill="#fa9f00" fill-rule="evenodd" stroke="#fa9f00" stroke-width=".1" d="M24 83h1v1h-1zm51 0h1v1h-1z"/><path fill="#069efd" fill-rule="evenodd" stroke="#069efd" stroke-width=".1" d="M46 83h1v1h-1zm2 7h1v1h-1zm2 6h1v1h-1z"/><path fill="#069dfd" fill-rule="evenodd" stroke="#069dfd" stroke-width=".1" d="M53 83h1v1h-1zm-6 4h1v1h-1zm5 0h1v1h-1zm-3 7h2v1h-2zm0 2h1v1h-1z"/><path fill="#faa100" fill-rule="evenodd" stroke="#faa100" stroke-width=".1" d="M10 84h14v1h-14zm66 0h13v1h-13z"/><path fill="#faa300" fill-rule="evenodd" stroke="#faa300" stroke-width=".1" d="M10 85h13v1h-13zm67 0h13v1h-13z"/><path fill="#f9a300" fill-rule="evenodd" stroke="#f9a300" stroke-width=".1" d="M23 85h1v1h-1zm-14 1h1v1h-1zm67 0h1v1h-1z"/><path fill="#f9a200" fill-rule="evenodd" stroke="#f9a200" stroke-width=".1" d="M76 85h1v1h-1z"/><path fill="#faa400" fill-rule="evenodd" stroke="#faa400" stroke-width=".1" d="M10 86h13v1h-13zm67 0h13v1h-13z"/><path fill="#f9a400" fill-rule="evenodd" stroke="#f9a400" stroke-width=".1" d="M23 86h1v1h-1zm67 0h1v1h-1z"/><path fill="#faa600" fill-rule="evenodd" stroke="#faa600" stroke-width=".1" d="M9 87h1v1h12v1h-13zm68 0h1v1h-1zm1 1h13v1h-13z"/><path fill="#fba600" fill-rule="evenodd" stroke="#fba600" stroke-width=".1" d="M10 87h12v1h-12zm68 0h12v1h-12z"/><path fill="#faa500" fill-rule="evenodd" stroke="#faa500" stroke-width=".1" d="M22 87h1v1h-1zm68 0h1v1h-1z"/><path fill="#fba700" fill-rule="evenodd" stroke="#fba700" stroke-width=".1" d="M22 88h1v1h-1zm55 0h1v1h-1z"/></svg>