<svg xmlns="http://www.w3.org/2000/svg" viewBox="0 0 100 100" width="1em" height="1em"><path fill="#5367ff" d="M10 0h1v1h-1zM12 0h1v1h-1zM87 0h1v1h-1zM5 2h1v1h-1zM1 7h1v1h-1zM0 11h1v1h-1zM99 12h1v1h-1zM0 87h1v1h-1zM0 89h1v1h-1zM3 95h1v1h-1z" /><path fill="#5368ff" d="M11 0h1v1h-1zM93 2h1v1h-1zM2 5h1v1h-1zM97 6h1v1h-1zM0 12h1v1h-1zM99 87h1v1h-1zM0 88h1v1h-1zM99 88h1v1h-1zM98 92h1v1h-1zM2 93h1v1h-1zM97 93h1v1h-1zM95 96h1v1h-1zM6 97h1v1h-1zM93 97h1v1h-1zM12 99h1v1h-1zM87 99h1v1h-1z" /><path fill="#5468ff" d="M13 0h74v1h-74zM8 1h84v1h-84zM7 2h86v1h-86zM5 3h90v1h-90zM3 4h94v1h-94zM3 5h94v1h-94zM3 6h94v1h-94zM2 7h96v1h-96zM1 8h98v1h-98zM1 9h98v1h-98zM1 10h99v1h-99zM1 11h98v1h-98zM1 12h98v1h-98zM0 13h100v1h-100zM0 14h44v1h-44zM58 14h42v1h-42zM0 15h42v1h-42zM60 15h40v1h-40zM0 16h42v1h-42zM60 16h40v1h-40zM0 17h41v1h-41zM61 17h39v1h-39zM0 18h41v1h-41zM61 18h39v1h-39zM0 19h41v1h-41zM61 19h39v1h-39zM0 20h41v1h-41zM61 20h39v1h-39zM0 21h41v1h-41zM61 21h39v1h-39zM0 22h41v1h-41zM47 22h8v1h-8zM61 22h39v1h-39zM0 23h26v1h-26zM29 23h71v1h-71zM0 24h24v1h-24zM31 24h69v1h-69zM0 25h23v1h-23zM32 25h12v1h-12zM58 25h42v1h-42zM0 26h22v1h-22zM33 26h8v1h-8zM61 26h39v1h-39zM0 27h22v1h-22zM33 27h6v1h-6zM64 27h36v1h-36zM0 28h21v1h-21zM33 28h4v1h-4zM66 28h34v1h-34zM0 29h21v1h-21zM31 29h4v1h-4zM67 29h33v1h-33zM0 30h21v1h-21zM30 30h4v1h-4zM69 30h31v1h-31zM0 31h21v1h-21zM29 31h3v1h-3zM70 31h30v1h-30zM0 32h21v1h-21zM28 32h3v1h-3zM71 32h29v1h-29zM0 33h22v1h-22zM27 33h3v1h-3zM72 33h28v1h-28zM0 34h23v1h-23zM27 34h2v1h-2zM48 34h7v1h-7zM73 34h27v1h-27zM0 35h24v1h-24zM26 35h3v1h-3zM44 35h14v1h-14zM74 35h26v1h-26zM0 36h28v1h-28zM42 36h18v1h-18zM75 36h25v1h-25zM0 37h27v1h-27zM40 37h11v1h-11zM57 37h5v1h-5zM75 37h25v1h-25zM0 38h26v1h-26zM39 38h12v1h-12zM59 38h4v1h-4zM76 38h24v1h-24zM0 39h26v1h-26zM38 39h13v1h-13zM61 39h3v1h-3zM76 39h24v1h-24zM0 40h25v1h-25zM37 40h14v1h-14zM62 40h3v1h-3zM77 40h23v1h-23zM0 41h25v1h-25zM36 41h15v1h-15zM63 41h3v1h-3zM77 41h23v1h-23zM0 42h24v1h-24zM35 42h16v1h-16zM64 42h3v1h-3zM78 42h22v1h-22zM0 43h24v1h-24zM35 43h16v1h-16zM65 43h3v1h-3zM78 43h22v1h-22zM0 44h24v1h-24zM34 44h17v1h-17zM66 44h2v1h-2zM79 44h21v1h-21zM0 45h23v1h-23zM34 45h17v1h-17zM66 45h3v1h-3zM79 45h21v1h-21zM0 46h23v1h-23zM33 46h18v1h-18zM66 46h3v1h-3zM79 46h21v1h-21zM0 47h23v1h-23zM33 47h18v1h-18zM64 47h5v1h-5zM79 47h21v1h-21zM0 48h23v1h-23zM32 48h19v1h-19zM62 48h8v1h-8zM80 48h20v1h-20zM0 49h23v1h-23zM32 49h19v1h-19zM60 49h10v1h-10zM80 49h20v1h-20zM0 50h23v1h-23zM32 50h19v1h-19zM58 50h12v1h-12zM80 50h20v1h-20zM0 51h22v1h-22zM32 51h19v1h-19zM56 51h14v1h-14zM80 51h20v1h-20zM0 52h22v1h-22zM32 52h19v1h-19zM54 52h17v1h-17zM80 52h20v1h-20zM0 53h22v1h-22zM32 53h19v1h-19zM53 53h18v1h-18zM80 53h20v1h-20zM0 54h22v1h-22zM32 54h39v1h-39zM80 54h20v1h-20zM0 55h22v1h-22zM32 55h38v1h-38zM80 55h20v1h-20zM0 56h23v1h-23zM32 56h38v1h-38zM80 56h20v1h-20zM0 57h23v1h-23zM32 57h38v1h-38zM80 57h20v1h-20zM0 58h23v1h-23zM32 58h38v1h-38zM80 58h20v1h-20zM0 59h23v1h-23zM33 59h37v1h-37zM79 59h21v1h-21zM0 60h23v1h-23zM33 60h36v1h-36zM79 60h21v1h-21zM0 61h23v1h-23zM34 61h35v1h-35zM79 61h21v1h-21zM0 62h24v1h-24zM34 62h34v1h-34zM79 62h21v1h-21zM0 63h24v1h-24zM35 63h33v1h-33zM78 63h22v1h-22zM0 64h24v1h-24zM35 64h32v1h-32zM78 64h22v1h-22zM0 65h25v1h-25zM36 65h30v1h-30zM77 65h23v1h-23zM0 66h25v1h-25zM37 66h28v1h-28zM77 66h23v1h-23zM0 67h26v1h-26zM38 67h26v1h-26zM76 67h24v1h-24zM0 68h26v1h-26zM39 68h24v1h-24zM76 68h24v1h-24zM0 69h27v1h-27zM40 69h22v1h-22zM75 69h25v1h-25zM0 70h28v1h-28zM42 70h18v1h-18zM75 70h25v1h-25zM0 71h29v1h-29zM44 71h14v1h-14zM74 71h26v1h-26zM0 72h29v1h-29zM47 72h8v1h-8zM73 72h27v1h-27zM0 73h30v1h-30zM72 73h28v1h-28zM0 74h31v1h-31zM71 74h29v1h-29zM0 75h32v1h-32zM70 75h30v1h-30zM0 76h34v1h-34zM69 76h31v1h-31zM0 77h35v1h-35zM67 77h33v1h-33zM0 78h37v1h-37zM66 78h34v1h-34zM0 79h39v1h-39zM64 79h36v1h-36zM0 80h41v1h-41zM61 80h39v1h-39zM0 81h44v1h-44zM58 81h42v1h-42zM0 82h100v1h-100zM0 83h100v1h-100zM0 84h100v1h-100zM0 85h100v1h-100zM0 86h100v1h-100zM1 87h98v1h-98zM1 88h98v1h-98zM1 89h99v1h-99zM1 90h98v1h-98zM1 91h98v1h-98zM2 92h96v1h-96zM3 93h94v1h-94zM3 94h94v1h-94zM4 95h92v1h-92zM5 96h90v1h-90zM7 97h86v1h-86zM8 98h85v1h-85zM10 99h1v1h-1zM13 99h74v1h-74zM89 99h1v1h-1z" /><path fill="#5467ff" d="M88 0h2v1h-2zM7 1h1v1h-1zM92 1h1v1h-1zM6 2h1v1h-1zM4 3h1v1h-1zM95 3h1v1h-1zM2 6h1v1h-1zM98 7h1v1h-1zM0 10h1v1h-1zM99 11h1v1h-1zM1 92h1v1h-1zM96 95h1v1h-1zM4 96h1v1h-1zM7 98h1v1h-1zM11 99h1v1h-1zM88 99h1v1h-1z" /><path fill="#7181ff" d="M44 14h1v1h-1zM43 35h1v1h-1zM38 68h1v1h-1zM62 69h1v1h-1z" /><path fill="#98a4ff" d="M45 14h1v1h-1zM56 14h1v1h-1zM64 28h1v1h-1zM28 36h1v1h-1zM45 72h1v1h-1zM55 81h1v1h-1z" /><path fill="#a4aeff" d="M46 14h10v1h-10zM31 56h1v1h-1z" /><path fill="#7383ff" d="M57 14h1v1h-1z" /><path fill="#5a6dff" d="M42 15h1v1h-1zM57 25h1v1h-1zM56 37h1v1h-1zM64 39h1v1h-1zM25 40h1v1h-1zM70 51h1v1h-1z" /><path fill="#c3caff" d="M43 15h1v1h-1zM40 27h1v1h-1zM29 71h1v1h-1z" /><path fill="#ffffff" d="M44 15h14v1h-14zM43 16h16v1h-16zM43 17h17v1h-17zM42 18h18v1h-18zM42 19h18v1h-18zM42 20h18v1h-18zM42 21h5v1h-5zM55 21h5v1h-5zM27 24h2v1h-2zM25 25h5v1h-5zM24 26h7v1h-7zM45 26h12v1h-12zM23 27h9v1h-9zM42 27h18v1h-18zM23 28h7v1h-7zM39 28h24v1h-24zM22 29h7v1h-7zM38 29h27v1h-27zM22 30h6v1h-6zM36 30h30v1h-30zM22 31h5v1h-5zM35 31h33v1h-33zM23 32h3v1h-3zM33 32h36v1h-36zM24 33h2v1h-2zM32 33h15v1h-15zM55 33h15v1h-15zM31 34h13v1h-13zM59 34h12v1h-12zM30 35h11v1h-11zM61 35h11v1h-11zM29 36h11v1h-11zM63 36h10v1h-10zM29 37h9v1h-9zM64 37h10v1h-10zM28 38h9v1h-9zM52 38h4v1h-4zM65 38h9v1h-9zM27 39h9v1h-9zM52 39h6v1h-6zM66 39h9v1h-9zM27 40h8v1h-8zM52 40h8v1h-8zM67 40h9v1h-9zM26 41h8v1h-8zM52 41h9v1h-9zM68 41h8v1h-8zM26 42h8v1h-8zM52 42h10v1h-10zM68 42h9v1h-9zM25 43h8v1h-8zM52 43h11v1h-11zM69 43h8v1h-8zM25 44h8v1h-8zM52 44h12v1h-12zM70 44h7v1h-7zM25 45h7v1h-7zM52 45h13v1h-13zM70 45h8v1h-8zM24 46h8v1h-8zM52 46h11v1h-11zM70 46h8v1h-8zM24 47h8v1h-8zM52 47h9v1h-9zM71 47h7v1h-7zM24 48h7v1h-7zM52 48h7v1h-7zM71 48h7v1h-7zM24 49h7v1h-7zM52 49h5v1h-5zM71 49h8v1h-8zM24 50h7v1h-7zM52 50h4v1h-4zM71 50h8v1h-8zM23 51h8v1h-8zM52 51h2v1h-2zM71 51h8v1h-8zM23 52h8v1h-8zM72 52h7v1h-7zM23 53h8v1h-8zM72 53h7v1h-7zM23 54h8v1h-8zM72 54h7v1h-7zM23 55h8v1h-8zM71 55h8v1h-8zM24 56h7v1h-7zM71 56h8v1h-8zM24 57h7v1h-7zM71 57h8v1h-8zM24 58h7v1h-7zM71 58h7v1h-7zM24 59h8v1h-8zM71 59h7v1h-7zM24 60h8v1h-8zM70 60h8v1h-8zM25 61h7v1h-7zM70 61h8v1h-8zM25 62h8v1h-8zM70 62h7v1h-7zM25 63h8v1h-8zM69 63h8v1h-8zM26 64h8v1h-8zM69 64h8v1h-8zM26 65h8v1h-8zM68 65h8v1h-8zM27 66h8v1h-8zM67 66h9v1h-9zM27 67h9v1h-9zM66 67h9v1h-9zM28 68h9v1h-9zM65 68h9v1h-9zM29 69h9v1h-9zM64 69h10v1h-10zM29 70h11v1h-11zM63 70h10v1h-10zM30 71h11v1h-11zM61 71h11v1h-11zM31 72h12v1h-12zM59 72h12v1h-12zM32 73h15v1h-15zM56 73h14v1h-14zM33 74h36v1h-36zM34 75h34v1h-34zM36 76h30v1h-30zM38 77h27v1h-27zM39 78h24v1h-24zM42 79h19v1h-19zM45 80h12v1h-12z" /><path fill="#c7cdff" d="M58 15h1v1h-1zM23 58h1v1h-1z" /><path fill="#5c6fff" d="M59 15h1v1h-1zM34 63h1v1h-1zM57 81h1v1h-1z" /><path fill="#c0c7ff" d="M42 16h1v1h-1zM69 45h1v1h-1zM31 57h1v1h-1zM68 63h1v1h-1z" /><path fill="#c5ccff" d="M59 16h1v1h-1zM49 25h1v1h-1zM68 43h1v1h-1zM23 48h1v1h-1zM65 67h1v1h-1z" /><path fill="#6b7cff" d="M41 17h1v1h-1zM75 38h1v1h-1z" /><path fill="#fefeff" d="M42 17h1v1h-1zM30 25h1v1h-1zM31 26h1v1h-1zM60 27h1v1h-1zM22 28h1v1h-1zM30 28h1v1h-1zM37 29h1v1h-1zM66 30h1v1h-1zM34 31h1v1h-1zM34 41h1v1h-1zM59 48h1v1h-1zM57 49h1v1h-1zM68 64h1v1h-1zM34 65h1v1h-1zM43 72h1v1h-1zM55 73h1v1h-1zM66 76h1v1h-1zM37 77h1v1h-1z" /><path fill="#7081ff" d="M60 17h1v1h-1zM41 36h1v1h-1zM32 47h1v1h-1zM70 56h1v1h-1z" /><path fill="#8f9cff" d="M41 18h1v1h-1zM70 49h1v1h-1z" /><path fill="#95a1ff" d="M60 18h1v1h-1zM31 25h1v1h-1zM56 34h1v1h-1z" /><path fill="#96a2ff" d="M41 19h1v1h-1zM41 20h1v1h-1zM41 21h1v1h-1zM42 26h1v1h-1zM79 52h1v1h-1zM79 54h1v1h-1zM62 79h1v1h-1z" /><path fill="#9ca8ff" d="M60 19h1v1h-1zM60 20h1v1h-1zM60 21h1v1h-1zM79 53h1v1h-1zM59 71h1v1h-1z" /><path fill="#fafbff" d="M47 21h1v1h-1zM54 21h1v1h-1zM27 31h1v1h-1zM47 33h1v1h-1zM61 41h1v1h-1zM71 52h1v1h-1zM71 54h1v1h-1zM69 62h1v1h-1zM28 69h1v1h-1z" /><path fill="#e8ebff" d="M48 21h1v1h-1zM72 35h1v1h-1zM70 47h1v1h-1z" /><path fill="#dde1ff" d="M49 21h1v1h-1zM65 29h1v1h-1zM52 37h1v1h-1z" /><path fill="#d9ddff" d="M50 21h1v1h-1zM66 40h1v1h-1z" /><path fill="#d8ddff" d="M51 21h1v1h-1zM27 38h1v1h-1zM68 75h1v1h-1z" /><path fill="#e4e7ff" d="M52 21h1v1h-1zM59 22h1v1h-1z" /><path fill="#eff1ff" d="M53 21h1v1h-1zM26 40h1v1h-1z" /><path fill="#8593ff" d="M41 22h1v1h-1zM30 24h1v1h-1zM29 30h1v1h-1z" /><path fill="#f3f4ff" d="M42 22h1v1h-1zM71 53h1v1h-1z" /><path fill="#cdd3ff" d="M43 22h1v1h-1zM30 34h1v1h-1zM75 39h1v1h-1zM64 68h1v1h-1zM73 70h1v1h-1zM32 74h1v1h-1zM52 81h1v1h-1z" /><path fill="#a3aeff" d="M44 22h1v1h-1z" /><path fill="#8291ff" d="M45 22h1v1h-1zM24 43h1v1h-1zM31 52h1v1h-1z" /><path fill="#6577ff" d="M46 22h1v1h-1zM69 31h1v1h-1zM69 75h1v1h-1zM35 77h1v1h-1z" /><path fill="#5d70ff" d="M55 22h1v1h-1zM41 26h1v1h-1zM34 43h1v1h-1zM30 73h1v1h-1z" /><path fill="#7e8dff" d="M56 22h1v1h-1zM67 64h1v1h-1zM76 66h1v1h-1zM39 79h1v1h-1zM56 81h1v1h-1z" /><path fill="#a1acff" d="M57 22h1v1h-1z" /><path fill="#c4cbff" d="M58 22h1v1h-1zM24 62h1v1h-1z" /><path fill="#8493ff" d="M60 22h1v1h-1zM67 42h1v1h-1z" /><path fill="#576aff" d="M26 23h1v1h-1zM63 27h1v1h-1zM32 28h1v1h-1zM68 30h1v1h-1zM23 45h1v1h-1zM24 64h1v1h-1zM64 67h1v1h-1zM68 76h1v1h-1z" /><path fill="#6f80ff" d="M27 23h1v1h-1zM45 25h1v1h-1zM70 74h1v1h-1z" /><path fill="#697bff" d="M28 23h1v1h-1zM55 34h1v1h-1zM75 68h1v1h-1z" /><path fill="#5569ff" d="M24 24h1v1h-1zM23 25h1v1h-1zM44 25h1v1h-1zM22 26h1v1h-1zM26 34h1v1h-1zM25 35h1v1h-1zM74 36h1v1h-1zM26 38h1v1h-1zM24 42h1v1h-1zM69 47h1v1h-1zM79 48h1v1h-1zM52 53h1v1h-1zM79 58h1v1h-1zM74 70h1v1h-1z" /><path fill="#a0abff" d="M25 24h1v1h-1zM25 65h1v1h-1zM74 69h1v1h-1z" /><path fill="#f2f3ff" d="M26 24h1v1h-1zM35 30h1v1h-1zM70 33h1v1h-1zM60 35h1v1h-1zM77 44h1v1h-1zM47 73h1v1h-1zM70 73h1v1h-1z" /><path fill="#e5e8ff" d="M29 24h1v1h-1zM51 38h1v1h-1zM51 39h1v1h-1zM51 40h1v1h-1zM51 41h1v1h-1zM51 42h1v1h-1zM51 43h1v1h-1zM51 44h1v1h-1zM51 45h1v1h-1zM51 46h1v1h-1zM51 47h1v1h-1zM51 48h1v1h-1zM51 49h1v1h-1zM51 50h1v1h-1zM51 51h1v1h-1zM70 59h1v1h-1z" /><path fill="#bac2ff" d="M24 25h1v1h-1zM48 25h1v1h-1zM59 39h1v1h-1z" /><path fill="#8c99ff" d="M46 25h1v1h-1zM27 32h1v1h-1zM34 76h1v1h-1z" /><path fill="#a5b0ff" d="M47 25h1v1h-1zM23 47h1v1h-1zM31 50h1v1h-1z" /><path fill="#ccd2ff" d="M50 25h1v1h-1zM52 33h1v1h-1zM53 37h1v1h-1zM40 70h1v1h-1z" /><path fill="#d0d6ff" d="M51 25h1v1h-1zM76 65h1v1h-1z" /><path fill="#c6cdff" d="M52 25h1v1h-1zM43 26h1v1h-1zM50 33h2v1h-2zM60 48h1v1h-1z" /><path fill="#bdc5ff" d="M53 25h1v1h-1zM62 47h1v1h-1z" /><path fill="#aeb7ff" d="M54 25h1v1h-1zM78 46h1v1h-1z" /><path fill="#94a1ff" d="M55 25h1v1h-1zM33 62h1v1h-1z" /><path fill="#7a89ff" d="M56 25h1v1h-1zM66 29h1v1h-1zM23 46h1v1h-1z" /><path fill="#bbc3ff" d="M23 26h1v1h-1zM57 38h1v1h-1zM69 61h1v1h-1zM50 73h2v1h-2z" /><path fill="#93a0ff" d="M32 26h1v1h-1z" /><path fill="#f1f3ff" d="M44 26h1v1h-1zM77 62h1v1h-1zM26 66h1v1h-1zM35 66h1v1h-1z" /><path fill="#fafaff" d="M57 26h1v1h-1zM38 37h1v1h-1z" /><path fill="#d4d9ff" d="M58 26h1v1h-1zM40 36h1v1h-1z" /><path fill="#a6b1ff" d="M59 26h1v1h-1z" /><path fill="#6b7dff" d="M60 26h1v1h-1zM23 34h1v1h-1zM72 72h1v1h-1z" /><path fill="#b0b9ff" d="M22 27h1v1h-1zM67 76h1v1h-1z" /><path fill="#c2c9ff" d="M32 27h1v1h-1zM31 49h1v1h-1z" /><path fill="#7888ff" d="M39 27h1v1h-1zM62 37h1v1h-1z" /><path fill="#f9faff" d="M41 27h1v1h-1zM28 37h1v1h-1zM74 38h1v1h-1zM23 56h1v1h-1zM41 71h1v1h-1z" /><path fill="#d7dcff" d="M61 27h1v1h-1zM68 31h1v1h-1zM58 80h1v1h-1z" /><path fill="#929fff" d="M62 27h1v1h-1z" /><path fill="#6e7fff" d="M21 28h1v1h-1zM70 32h1v1h-1zM61 48h1v1h-1zM60 80h1v1h-1z" /><path fill="#b2bbff" d="M31 28h1v1h-1z" /><path fill="#7b8aff" d="M37 28h1v1h-1zM69 46h1v1h-1z" /><path fill="#d1d7ff" d="M38 28h1v1h-1zM76 41h1v1h-1zM44 72h1v1h-1zM50 81h1v1h-1z" /><path fill="#e9ebff" d="M63 28h1v1h-1zM36 67h1v1h-1zM54 73h1v1h-1z" /><path fill="#566aff" d="M65 28h1v1h-1zM32 31h1v1h-1zM21 32h1v1h-1zM47 34h1v1h-1zM26 68h1v1h-1zM65 78h1v1h-1zM44 81h1v1h-1z" /><path fill="#9faaff" d="M21 29h1v1h-1z" /><path fill="#fbfbff" d="M29 29h1v1h-1zM58 34h1v1h-1zM62 36h1v1h-1zM63 46h1v1h-1zM41 79h1v1h-1z" /><path fill="#909dff" d="M30 29h1v1h-1z" /><path fill="#6274ff" d="M35 29h1v1h-1zM22 54h1v1h-1z" /><path fill="#bfc6ff" d="M36 29h1v1h-1zM29 35h1v1h-1zM57 72h1v1h-1z" /><path fill="#a8b2ff" d="M21 30h1v1h-1z" /><path fill="#f8f9ff" d="M28 30h1v1h-1zM78 48h1v1h-1zM23 50h1v1h-1zM78 58h1v1h-1zM74 68h1v1h-1z" /><path fill="#8694ff" d="M34 30h1v1h-1zM55 37h1v1h-1zM24 63h1v1h-1z" /><path fill="#afb9ff" d="M67 30h1v1h-1z" /><path fill="#8896ff" d="M21 31h1v1h-1zM63 42h1v1h-1z" /><path fill="#8290ff" d="M28 31h1v1h-1zM78 45h1v1h-1zM31 54h1v1h-1z" /><path fill="#b1baff" d="M33 31h1v1h-1zM34 64h1v1h-1z" /><path fill="#e0e4ff" d="M22 32h1v1h-1z" /><path fill="#fdfdff" d="M26 32h1v1h-1zM62 42h1v1h-1z" /><path fill="#596dff" d="M31 32h1v1h-1zM22 51h1v1h-1zM22 55h1v1h-1zM70 55h1v1h-1z" /><path fill="#c8ceff" d="M32 32h1v1h-1zM25 34h1v1h-1z" /><path fill="#eaedff" d="M69 32h1v1h-1zM60 40h1v1h-1zM25 42h1v1h-1zM31 58h1v1h-1zM67 65h1v1h-1zM69 74h1v1h-1zM63 78h1v1h-1z" /><path fill="#6a7cff" d="M22 33h1v1h-1zM68 44h1v1h-1z" /><path fill="#eceeff" d="M23 33h1v1h-1zM24 34h1v1h-1zM31 48h1v1h-1zM33 63h1v1h-1zM37 68h1v1h-1z" /><path fill="#a4afff" d="M26 33h1v1h-1z" /><path fill="#5b6eff" d="M30 33h1v1h-1zM24 35h1v1h-1zM65 40h1v1h-1zM58 71h1v1h-1zM31 74h1v1h-1z" /><path fill="#d3d9ff" d="M31 33h1v1h-1z" /><path fill="#e1e5ff" d="M48 33h1v1h-1z" /><path fill="#cfd5ff" d="M49 33h1v1h-1zM56 50h1v1h-1zM53 73h1v1h-1z" /><path fill="#dadeff" d="M53 33h1v1h-1z" /><path fill="#f4f6ff" d="M54 33h1v1h-1zM35 40h1v1h-1z" /><path fill="#7585ff" d="M71 33h1v1h-1zM27 69h1v1h-1zM71 73h1v1h-1z" /><path fill="#576bff" d="M29 34h1v1h-1zM65 44h1v1h-1zM23 61h1v1h-1zM33 61h1v1h-1zM78 62h1v1h-1zM60 70h1v1h-1zM32 75h1v1h-1zM63 79h1v1h-1z" /><path fill="#dbe0ff" d="M44 34h1v1h-1zM52 52h1v1h-1z" /><path fill="#a2adff" d="M45 34h1v1h-1zM74 37h1v1h-1z" /><path fill="#7686ff" d="M46 34h1v1h-1zM77 64h1v1h-1zM45 81h1v1h-1z" /><path fill="#c9d0ff" d="M57 34h1v1h-1zM40 79h1v1h-1zM49 81h1v1h-1z" /><path fill="#f0f1ff" d="M71 34h1v1h-1zM71 72h1v1h-1z" /><path fill="#6c7dff" d="M72 34h1v1h-1zM46 72h1v1h-1z" /><path fill="#fcfcff" d="M41 35h1v1h-1zM69 44h1v1h-1zM57 80h1v1h-1z" /><path fill="#bfc7ff" d="M42 35h1v1h-1z" /><path fill="#6173ff" d="M58 35h1v1h-1zM73 35h1v1h-1zM41 80h1v1h-1z" /><path fill="#a7b1ff" d="M59 35h1v1h-1zM23 59h1v1h-1z" /><path fill="#5b6fff" d="M60 36h1v1h-1zM51 53h1v1h-1zM25 66h1v1h-1zM63 68h1v1h-1z" /><path fill="#aab4ff" d="M61 36h1v1h-1zM32 60h1v1h-1z" /><path fill="#ced4ff" d="M73 36h1v1h-1z" /><path fill="#7282ff" d="M27 37h1v1h-1z" /><path fill="#9aa6ff" d="M39 37h1v1h-1zM64 78h1v1h-1zM42 80h1v1h-1z" /><path fill="#c1c9ff" d="M51 37h1v1h-1zM48 81h1v1h-1z" /><path fill="#adb7ff" d="M54 37h1v1h-1zM32 46h1v1h-1z" /><path fill="#eaecff" d="M63 37h1v1h-1z" /><path fill="#f0f2ff" d="M37 38h1v1h-1z" /><path fill="#7787ff" d="M38 38h1v1h-1zM77 42h1v1h-1zM69 60h1v1h-1z" /><path fill="#f5f6ff" d="M56 38h1v1h-1zM35 76h1v1h-1zM44 80h1v1h-1z" /><path fill="#6d7eff" d="M58 38h1v1h-1zM37 39h1v1h-1zM32 59h1v1h-1zM36 66h1v1h-1z" /><path fill="#5f72ff" d="M63 38h1v1h-1zM66 65h1v1h-1z" /><path fill="#d6dbff" d="M64 38h1v1h-1zM54 51h1v1h-1z" /><path fill="#96a3ff" d="M26 39h1v1h-1zM65 45h1v1h-1z" /><path fill="#eef0ff" d="M36 39h1v1h-1zM67 41h1v1h-1zM33 43h1v1h-1zM32 45h1v1h-1z" /><path fill="#fcfdff" d="M58 39h1v1h-1zM61 47h1v1h-1z" /><path fill="#5e71ff" d="M60 39h1v1h-1z" /><path fill="#cfd4ff" d="M65 39h1v1h-1z" /><path fill="#7283ff" d="M36 40h1v1h-1zM59 49h1v1h-1zM70 50h1v1h-1z" /><path fill="#7c8bff" d="M61 40h1v1h-1zM23 60h1v1h-1zM66 77h1v1h-1z" /><path fill="#7f8eff" d="M76 40h1v1h-1z" /><path fill="#9ca7ff" d="M25 41h1v1h-1z" /><path fill="#8a97ff" d="M35 41h1v1h-1z" /><path fill="#8e9bff" d="M62 41h1v1h-1z" /><path fill="#6376ff" d="M66 41h1v1h-1z" /><path fill="#b7bfff" d="M34 42h1v1h-1zM70 58h1v1h-1z" /><path fill="#f7f8ff" d="M63 43h1v1h-1zM24 61h1v1h-1zM38 69h1v1h-1z" /><path fill="#7484ff" d="M64 43h1v1h-1z" /><path fill="#b7c0ff" d="M77 43h1v1h-1zM64 46h1v1h-1zM33 75h1v1h-1z" /><path fill="#c1c8ff" d="M24 44h1v1h-1zM52 73h1v1h-1zM36 77h1v1h-1z" /><path fill="#99a5ff" d="M33 44h1v1h-1z" /><path fill="#dfe3ff" d="M64 44h1v1h-1zM23 49h1v1h-1zM65 77h1v1h-1z" /><path fill="#586cff" d="M78 44h1v1h-1zM65 66h1v1h-1z" /><path fill="#f6f7ff" d="M24 45h1v1h-1zM58 72h1v1h-1z" /><path fill="#596cff" d="M33 45h1v1h-1zM29 72h1v1h-1z" /><path fill="#6073ff" d="M65 46h1v1h-1zM73 71h1v1h-1zM55 72h1v1h-1z" /><path fill="#697aff" d="M63 47h1v1h-1zM41 70h1v1h-1z" /><path fill="#d9deff" d="M78 47h1v1h-1zM78 59h1v1h-1zM31 73h1v1h-1z" /><path fill="#b9c1ff" d="M70 48h1v1h-1z" /><path fill="#cad0ff" d="M58 49h1v1h-1z" /><path fill="#687aff" d="M79 49h1v1h-1zM22 53h1v1h-1zM79 57h1v1h-1zM43 71h1v1h-1z" /><path fill="#7887ff" d="M57 50h1v1h-1z" /><path fill="#8190ff" d="M79 50h1v1h-1zM79 56h1v1h-1z" /><path fill="#8d9aff" d="M31 51h1v1h-1zM79 51h1v1h-1zM79 55h1v1h-1z" /><path fill="#7d8cff" d="M55 51h1v1h-1z" /><path fill="#6174ff" d="M22 52h1v1h-1z" /><path fill="#dee2ff" d="M51 52h1v1h-1z" /><path fill="#8391ff" d="M53 52h1v1h-1zM35 65h1v1h-1z" /><path fill="#7c8cff" d="M31 53h1v1h-1z" /><path fill="#8c9aff" d="M31 55h1v1h-1zM70 57h1v1h-1z" /><path fill="#e1e4ff" d="M23 57h1v1h-1z" /><path fill="#adb6ff" d="M78 60h1v1h-1z" /><path fill="#ebedff" d="M32 61h1v1h-1zM60 71h1v1h-1z" /><path fill="#808fff" d="M78 61h1v1h-1zM37 78h1v1h-1z" /><path fill="#6779ff" d="M68 62h1v1h-1zM37 67h1v1h-1z" /><path fill="#b6beff" d="M77 63h1v1h-1z" /><path fill="#edefff" d="M25 64h1v1h-1z" /><path fill="#d2d7ff" d="M66 66h1v1h-1zM30 72h1v1h-1z" /><path fill="#9ba7ff" d="M26 67h1v1h-1z" /><path fill="#cbd1ff" d="M75 67h1v1h-1zM43 80h1v1h-1z" /><path fill="#dce0ff" d="M27 68h1v1h-1z" /><path fill="#919eff" d="M39 69h1v1h-1zM46 81h1v1h-1z" /><path fill="#e3e6ff" d="M63 69h1v1h-1z" /><path fill="#9da9ff" d="M28 70h1v1h-1z" /><path fill="#9eaaff" d="M61 70h1v1h-1z" /><path fill="#f8f8ff" d="M62 70h1v1h-1z" /><path fill="#b5beff" d="M42 71h1v1h-1z" /><path fill="#e8eaff" d="M72 71h1v1h-1z" /><path fill="#8a98ff" d="M56 72h1v1h-1z" /><path fill="#d7dbff" d="M48 73h1v1h-1zM38 78h1v1h-1z" /><path fill="#c5cbff" d="M49 73h1v1h-1zM53 81h1v1h-1z" /><path fill="#dbdfff" d="M61 79h1v1h-1z" /><path fill="#a9b3ff" d="M59 80h1v1h-1z" /><path fill="#acb6ff" d="M47 81h1v1h-1z" /><path fill="#d5daff" d="M51 81h1v1h-1z" /><path fill="#b3bbff" d="M54 81h1v1h-1z" /></svg>