<svg xmlns="http://www.w3.org/2000/svg" viewBox="0 0 100 100"><path fill="#969696" fill-rule="evenodd" stroke="#969696" stroke-width=".1" d="M42 0h1v1h-1zm15 0h1v1h-1zm-27 59h1v1h-1z"/><path fill="#a0a0a0" fill-rule="evenodd" stroke="#a0a0a0" stroke-width=".1" d="M43 0h1v1h-1zm13 0h1v1h-1zm-36 10h1v1h-1zm31 13h1v1h-1z"/><path fill="#adadad" fill-rule="evenodd" stroke="#adadad" stroke-width=".1" d="M44 0h1v1h-1zm11 0h1v1h-1zm33 20h1v1h-1zm8 28h1v1h-1z"/><path fill="#b9b9b9" fill-rule="evenodd" stroke="#b9b9b9" stroke-width=".1" d="M45 0h1v1h-1zm9 0h1v1h-1zm-13 92h1v1h-1zm17 0h1v1h-1z"/><path fill="#bebebe" fill-rule="evenodd" stroke="#bebebe" stroke-width=".1" d="M46 0h1v1h-1zm7 0h1v1h-1zm40 30h1v1h-1z"/><path fill="#c4c4c4" fill-rule="evenodd" stroke="#c4c4c4" stroke-width=".1" d="M47 0h1v1h-1zm5 0h1v1h-1zm-40 19h1v1h-1zm75 0h1v1h-1zm-34 16h1v1h-1zm42 2h1v1h-1zm-50 12h1v1h-1zm7 18h1v1h-1z"/><path fill="#cdcdcd" fill-rule="evenodd" stroke="#cdcdcd" stroke-width=".1" d="M48 0h1v1h-1zm3 0h1v1h-1zm-9 38h1v1h-1zm53 17h1v1h-1zm-90 3h2v1h1v3h1v1h-3v-3h-1zm88 0h2v2h-1v3h-3v-1h1v-3h1zm-83 8h1v1h-1zm79 0h1v1h-1zm-78 2h1v1h-1zm77 0h1v1h-1zm-71 8h1v1h-1zm65 0h1v1h-1zm-63 2h1v1h-1zm61 0h1v1h-1zm-53 6h1v1h-1zm18 6h1v1h-1zm9 0h1v1h-1z"/><path fill="#d4d4d4" fill-rule="evenodd" stroke="#d4d4d4" stroke-width=".1" d="M49 0h2v1h-2zm-18 4h1v1h-1zm-4 2h1v1h-1zm-4 3h3v1h-1v1h-2v1h-1v1h-1v1h-1v1h-1v1h-3v-1h1v-1h1v-1h1v-1h1v-1h1v-1h2zm51 0h3v1h2v1h1v1h1v1h1v1h1v1h1v1h-3v-1h-1v-1h-1v-1h-1v-1h-1v-1h-2v-1h-1zm-60 11h1v1h-1zm71 0h1v1h-1zm-73 3h1v1h-1zm75 0h1v1h-1zm-55 32h1v1h-1zm-20 14h1v1h-1zm11 12h1v1h-1z"/><path fill="#9c9c9c" fill-rule="evenodd" stroke="#9c9c9c" stroke-width=".1" d="M38 1h1v1h-1zm18 37h1v1h-1z"/><path fill="#b3b3b3" fill-rule="evenodd" stroke="#b3b3b3" stroke-width=".1" d="M39 1h1v1h-1zm9 27h1v1h-1zm30 55h1v1h-1zm-51 4h1v1h-1z"/><path fill="#d1d1d1" fill-rule="evenodd" stroke="#d1d1d1" stroke-width=".1" d="M40 1h1v1h-1zm-27 17h1v1h-1zm73 0h1v1h-1zm-77 6h1v1h-1zm81 0h1v1h-1zm-82 2h1v1h-1zm83 0h1v1h-1zm-85 5h3v1h-1v3h-1v3h-2v-4h1zm85 0h3v3h1v4h-2v-3h-1v-3h-1zm-83 30h1v1h-1zm47 1h1v1h-1zm13 24h1v1h-1zm-20 4h4v1h-4z"/><path fill="#d5d5d5" fill-rule="evenodd" stroke="#d5d5d5" stroke-width=".1" d="M41 1h18v1h4v1h3v1h3v1h2v1h2v1h1v1h2v1h-4v-1h-2v-1h-2v-1h-2v-1h-3v-1h-4v-1h-18v1h-4v1h-3v1h-2v1h-2v1h-2v1h-4v-1h2v-1h2v-1h1v-1h3v-1h2v-1h3v-1h4zm-18 10h1v1h-1zm53 0h1v1h-1zm-13 22h1v1h-1zm30 7h1v1h-1zm-17 41h1v1h-1z"/><path fill="#d3d3d3" fill-rule="evenodd" stroke="#d3d3d3" stroke-width=".1" d="M59 1h1v1h-1zm-44 15h3v1h-1v1h-1v1h-1v1h-1v2h-1v1h-1v1h-2v-1h1v-2h1v-1h1v-1h1v-2h1zm67 0h3v1h1v2h1v1h1v1h1v2h1v1h-2v-1h-1v-1h-1v-2h-1v-1h-1v-1h-1v-1h-1zm-76 37h1v1h-1zm87 0h1v1h-1zm-46 6h1v1h-1zm40 10h1v1h-1zm-73 3h1v1h-1z"/><path fill="#bbb" fill-rule="evenodd" stroke="#bbb" stroke-width=".1" d="M60 1h1v1h-1zm-14 60h1v1h-1zm40 14h1v1h-1z"/><path fill="#a4a4a4" fill-rule="evenodd" stroke="#a4a4a4" stroke-width=".1" d="M61 1h1v1h-1zm34 35h1v1h-1zm-92 7h1v1h-1zm20 28h1v1h-1z"/><path fill="#959595" fill-rule="evenodd" stroke="#959595" stroke-width=".1" d="M62 1h1v1h-1zm-28 1h1v1h-1zm59 27h1v1h-1zm-89 28h1v1h-1zm32 34h1v1h-1zm27 0h1v1h-1z"/><path fill="#b0b0b0" fill-rule="evenodd" stroke="#b0b0b0" stroke-width=".1" d="M35 2h1v1h-1zm49 13h1v1h-1zm-73 5h1v1h-1zm85 25h1v1h-1zm-47 11h1v1h-1zm45 4h1v1h-1z"/><path fill="#d2d2d2" fill-rule="evenodd" stroke="#d2d2d2" stroke-width=".1" d="M36 2h1v1h-1zm27 0h1v1h-1zm-53 22h2v1h-1v2h-1v2h-1v2h-2v-2h1v-2h1v-2h1zm78 0h2v1h1v2h1v2h1v2h-2v-2h-1v-2h-1v-2h-1zm-82 15h1v1h-1zm87 0h1v1h-1zm-8 33h1v1h-1zm-56 13h1v1h-1zm41 0h1v1h-1zm-30 4h1v1h-1zm19 0h1v1h-1z"/><path fill="#aeaeae" fill-rule="evenodd" stroke="#aeaeae" stroke-width=".1" d="M64 2h1v1h-1zm-49 13h1v1h-1zm-12 33h1v1h-1z"/><path fill="#949494" fill-rule="evenodd" stroke="#949494" stroke-width=".1" d="M65 2h1v1h-1zm-62 39h1v1h-1zm47 29h1v1h-1z"/><path fill="#a6a6a6" fill-rule="evenodd" stroke="#a6a6a6" stroke-width=".1" d="M32 3h1v1h-1zm35 0h1v1h-1zm-61 60h1v1h-1z"/><path fill="#ccc" fill-rule="evenodd" stroke="#ccc" stroke-width=".1" d="M33 3h1v1h-1zm-8 4h1v1h-1zm-18 56h2v2h1v1h-2v-1h-1zm84 0h2v2h-1v1h-2v-1h1zm-75 12h1v1h-1zm67 0h1v1h-1zm-63 4h1v1h-1zm59 0h1v1h-1zm-40 10h1v1h-1zm21 0h1v1h-1z"/><path fill="#d6d6d6" fill-rule="evenodd" stroke="#d6d6d6" stroke-width=".1" d="M41 3h1v1h-1zm17 0h1v1h-1zm-21 1h1v1h-1zm-3 1h1v1h-1zm31 0h1v1h-1zm-39 4h1v1h-1zm47 0h1v1h-1zm11 10h1v1h-1zm-73 6h1v1h-1zm50 0h1v1h-1zm27 0h1v1h-1zm1 2h1v1h-1zm-80 2h1v1h-1zm53 0h1v1h-1zm28 0h1v1h-1zm-83 6h1v1h-1zm85 0h1v1h-1zm-86 5h1v1h-1zm0 12h1v1h-1zm87 0h1v1h-1zm-1 5h1v1h-1zm-52 1h1v1h-1zm-31 5h1v1h-1zm81 0h1v1h-1zm-46 1h1v1h-1zm28 2h1v1h-1zm16 1h1v1h-1zm-37 2h1v1h-1zm22 14h1v1h-1zm-39 4h1v1h-1zm31 0h1v1h-1z"/><path fill="#d9d9d9" fill-rule="evenodd" stroke="#d9d9d9" stroke-width=".1" d="M42 3h1v1h-1zm15 0h1v1h-1zm-25 3h1v1h-1zm35 0h1v1h-1zm-39 2h1v1h-1zm43 0h1v1h-1zm-55 10h1v1h-1zm67 0h1v1h-1zm-77 33h1v1h-1zm62 0h1v1h-1zm25 0h1v1h-1zm-65 33h1v1h-1zm4 2h1v1h-1zm35 0h1v1h-1zm-25 3h1v1h-1zm15 0h1v1h-1z"/><path fill="#dcdcdc" fill-rule="evenodd" stroke="#dcdcdc" stroke-width=".1" d="M43 3h1v1h-1zm13 0h1v1h-1zm5 1h1v1h-1zm-36 6h1v1h-1zm49 0h1v1h-1zm-54 4h1v1h-1zm59 0h1v1h-1zm-23 25h1v1h-1zm-50 3h1v1h-1zm1 14h1v1h-1zm85 0h1v1h-1zm-34 1h1v1h-1zm-45 13h1v1h-1zm4 5h1v1h-1zm65 0h1v1h-1zm-56 7h48v1h-1v1h-2v1h-2v1h-38v-1h-2v-1h-2v-1h-1z"/><path fill="#e0e0e0" fill-rule="evenodd" stroke="#e0e0e0" stroke-width=".1" d="M44 3h1v1h-1zm11 0h1v1h-1zm-41 18h1v1h-1zm71 0h1v1h-1zm-77 12h1v1h-1zm35 3h1v1h-1zm-37 10h1v1h-1zm87 0h1v1h-1zm-42 6h1v1h-1zm-44 3h1v1h-1zm85 0h1v1h-1zm-53 5h1v1h-1zm-29 4h1v1h-1zm79 0h1v1h-1zm-77 2h14v1h-1v2h-1v2h-10v-1h-1v-2h-1zm24 0h7v2h-1v1h-1v2h-7v-2h1v-1h1zm17 0h11v4h1v1h-14v-1h1v-2h1zm20 0h15v2h-1v2h-1v1h-12v-1h-1z"/><path fill="#e3e3e3" fill-rule="evenodd" stroke="#e3e3e3" stroke-width=".1" d="M45 3h1v1h-1zm9 0h1v1h-1zm-21 3h1v1h-1zm33 0h1v1h-1zm-16 18h1v1h-1zm-43 30h26v1h-1v2h-1v1h-23v-3h-1zm36 0h7v2h-1v1h-1v1h-7v-1h1v-2h1zm26 0h24v1h-1v3h-22v-3h-1zm-9 1h1v3h-2v-2h1z"/><path fill="#e5e5e5" fill-rule="evenodd" stroke="#e5e5e5" stroke-width=".1" d="M46 3h2v1h-2zm6 0h2v1h-2zm-16 2h1v1h-1zm27 0h1v1h-1zm-32 2h1v1h-1zm37 0h1v1h-1zm2 1h1v1h-1zm-55 12h1v1h-1zm-6 11h1v1h-1zm81 0h1v1h-1zm-82 3h1v1h-1zm83 0h1v1h-1zm-36 2h1v1h-1zm-48 10h31v1h-1v1h-1v2h-29zm41 0h7v1h-1v2h-1v1h-7v-2h1v-1h1zm19 0h26v4h-25v-3h-1z"/><path fill="#e6e6e6" fill-rule="evenodd" stroke="#e6e6e6" stroke-width=".1" d="M48 3h1v1h-1zm3 0h1v1h-1zm-11 1h1v1h-1zm-11 4h1v1h-1zm-6 4h1v1h-1zm53 0h1v1h-1zm-63 11h1v1h-1zm73 0h1v1h-1zm-39 6h1v1h-1zm-39 9h34v2h-1v1h-1v2h-1v2h-1v1h-31v-7h1zm44 0h4v2h1v4h-1v2h-8v-1h1v-2h1v-2h1v-1h1zm18 0h22v1h1v7h-26v-4h1v-2h1v-1h1z"/><path fill="#e8e8e8" fill-rule="evenodd" stroke="#e8e8e8" stroke-width=".1" d="M49 3h2v1h-2zm10 1h1v1h-1zm-33 6h1v1h-1zm47 0h1v1h-1zm-57 9h1v1h-1zm67 0h1v1h-1zm-70 5h37v2h-1v2h-1v1h-1v2h-37v-2h1v-2h1v-2h1zm48 0h26v1h1v2h1v2h1v2h-27v-2h-1v-4h-1z"/><path fill="#cbcbcb" fill-rule="evenodd" stroke="#cbcbcb" stroke-width=".1" d="M66 3h1v1h-1zm-13 46h1v1h-1zm-45 17h2v1h1v2h1v1h1v1h-3v-2h-1v-2h-1zm82 0h2v1h-1v2h-1v2h-3v-1h1v-1h1v-2h1zm-69 14h1v1h-1zm57 0h1v1h-1zm-53 3h1v1h-1zm19 7h1v1h-1zm11 0h1v1h-1z"/><path fill="#afafaf" fill-rule="evenodd" stroke="#afafaf" stroke-width=".1" d="M30 4h1v1h-1zm38 35h1v1h-1zm-37 50h1v1h-1z"/><path fill="#dadada" fill-rule="evenodd" stroke="#dadada" stroke-width=".1" d="M38 4h1v1h-1zm-8 3h1v1h-1zm-9 6h1v1h-1zm57 0h1v1h-1zm-65 9h1v1h-1zm73 0h1v1h-1zm-16 14h1v1h-1zm23 14h1v1h-1zm-64 10h1v1h-1zm12 9h1v1h-1zm-20 10h1v1h-1zm1 1h1v1h-1zm55 0h1v1h-1zm-6 4h1v1h-1zm-41 1h1v1h-1zm39 0h1v1h-1z"/><path fill="#e1e1e1" fill-rule="evenodd" stroke="#e1e1e1" stroke-width=".1" d="M39 4h1v1h-1zm-12 5h1v1h-1zm-17 19h1v1h-1zm79 0h1v1h-1zm-82 9h1v1h-1zm85 0h1v1h-1zm-25 10h1v1h-1zm-34 6h1v1h-1zm15 4h1v1h-1zm-3 5h1v1h-1zm0 1v1h-1v2h-7v-2h1v-1zm17-1h1v4h-9v-1h1v-2h7zm-52 1h18v1h-1v1h-1v1h-15v-2h-1zm62 0h18v1h-1v2h-17z"/><path fill="#ebebeb" fill-rule="evenodd" stroke="#ebebeb" stroke-width=".1" d="M41 4h18v1h4v1h2v1h3v1h2v1h-40v-1h2v-1h3v-1h2v-1h4z"/><path fill="#e2e2e2" fill-rule="evenodd" stroke="#e2e2e2" stroke-width=".1" d="M60 4h1v1h-1zm12 5h1v1h-1zm-48 2h1v1h-1zm51 0h1v1h-1zm-64 15h1v1h-1zm77 0h1v1h-1zm-37 13h1v1h-1zm-4 7h1v1h-1zm-4 7h1v1h-1zm-35 5h23v1h-1v1h-1v2h-1v1h-18v-1h-1v-3h-1zm33 0h7v1h-1v2h-1v1h-1v1h-7v-1h1v-1h1v-2h1zm17 0h3v1h1v4h-6v-2h1v-2h1zm12 0h22v1h-1v3h-1v1h-18v-1h-1v-3h-1z"/><path fill="#d7d7d7" fill-rule="evenodd" stroke="#d7d7d7" stroke-width=".1" d="M62 4h1v1h-1zm-47 15h1v1h-1zm-5 8h1v1h-1zm42 10h1v1h-1zm-13 6h1v1h-1zm5 8h1v1h-1zm-37 6h1v1h-1zm3 8h1v1h-1zm26 0h1v1h-1zm53 0h1v1h-1zm-78 2h1v1h-1zm15 16h1v1h-1zm11 5h1v1h-1zm25 0h1v1h-1zm-21 1h1v1h-1zm17 0h1v1h-1z"/><path fill="#b7b7b7" fill-rule="evenodd" stroke="#b7b7b7" stroke-width=".1" d="M69 4h1v1h-1zm-41 1h1v1h-1zm-5 3h1v1h-1zm60 6h1v1h-1z"/><path fill="#909090" fill-rule="evenodd" stroke="#909090" stroke-width=".1" d="M70 4h1v1h-1zm-21 89h2v1h-2z"/><path fill="#8e8e8e" fill-rule="evenodd" stroke="#8e8e8e" stroke-width=".1" d="M27 5h1v1h-1zm51 4h1v1h-1zm17 26h1v1h-1zm-56 24h1v1h-1z"/><path fill="#ddd" fill-rule="evenodd" stroke="#ddd" stroke-width=".1" d="M35 5h1v1h-1zm29 0h1v1h-1zm-46 11h1v1h-1zm63 0h1v1h-1zm-29 5h1v1h-1zm19 13h1v1h-1zm-65 9h1v1h-1zm87 0h1v1h-1zm-57 5h1v1h-1zm-30 1h1v1h-1zm87 0h1v1h-1zm-39 15h1v1h-1zm-36 12h1v1h-1zm1 1h1v1h-1zm62-1h1v1h-1zm0 1v1h-1v-1zm-60 1h58v1h-1v1h-1v1h-1v1h-52v-1h-1v-1h-1v-1h-1z"/><path fill="#b5b5b5" fill-rule="evenodd" stroke="#b5b5b5" stroke-width=".1" d="M71 5h1v1h-1zm25 42h1v1h-1zm-1 9h1v1h-1zm-74 27h1v1h-1zm49 5h1v1h-1z"/><path fill="#8d8d8d" fill-rule="evenodd" stroke="#8d8d8d" stroke-width=".1" d="M72 5h1v1h-1zm17 16h1v1h-1zm-23 69h1v1h-1z"/><path fill="#a9a9a9" fill-rule="evenodd" stroke="#a9a9a9" stroke-width=".1" d="M26 6h1v1h-1zm-18 19h1v1h-1zm45 40h1v1h-1zm36 6h1v1h-1z"/><path fill="#eaeaea" fill-rule="evenodd" stroke="#eaeaea" stroke-width=".1" d="M34 6h1v1h-1zm31 0h1v1h-1zm-37 3h44v1h1v1h2v1h1v1h1v1h2v1h1v1h-60v-1h1v-1h2v-1h1v-1h1v-1h2v-1h1z"/><path fill="#b1b1b1" fill-rule="evenodd" stroke="#b1b1b1" stroke-width=".1" d="M73 6h1v1h-1zm-55 6h1v1h-1zm37 23h1v1h-1zm-14 5h1v1h-1zm26 8h1v1h-1zm4 15h1v1h-1zm-3 26h1v1h-1z"/><path fill="#999" fill-rule="evenodd" stroke="#999" stroke-width=".1" d="M24 7h1v1h-1zm62 10h1v1h-1zm-83 34h1v1h-1zm19 33h1v1h-1zm18 8h1v1h-1zm19 0h1v1h-1z"/><path fill="#dbdbdb" fill-rule="evenodd" stroke="#dbdbdb" stroke-width=".1" d="M69 7h1v1h-1zm-52 10h1v1h-1zm65 0h1v1h-1zm-75 19h1v1h-1zm85 0h1v1h-1zm1 6h1v1h-1zm-27 1h1v1h-1zm-60 7h1v1h-1zm80 20h1v1h-1zm-70 4h1v1h-1zm67 0h1v1h-1zm-63 4h1v1h-1zm59 0h1v1h-1zm0 1v1h-1v-1zm-54 3h1v1h-1zm49 0h1v1h-1zm-41 4h34v1h-2v1h-3v1h-5v1h-14v-1h-5v-1h-3v-1h-2z"/><path fill="#cecece" fill-rule="evenodd" stroke="#cecece" stroke-width=".1" d="M74 7h1v1h-1zm-70 47h2v1h1v3h-2v-2h-1zm90 0h2v1h-1v3h-2v-3h1zm-25 1h1v1h-1zm-60 9h1v1h-1zm81 0h1v1h-1zm-17 6h1v1h-1zm-60 1h1v1h-1zm27 0h1v1h-1zm46 0h1v1h-1zm-68 6h1v1h-1zm63 0h1v1h-1zm-48 10h1v1h-1zm33 0h1v1h-1z"/><path fill="#9d9d9d" fill-rule="evenodd" stroke="#9d9d9d" stroke-width=".1" d="M75 7h1v1h-1zm-14 19h1v1h-1zm1 4h1v1h-1zm-57 2h1v1h-1zm39 3h1v1h-1zm11 11h1v1h-1z"/><path fill="#b8b8b8" fill-rule="evenodd" stroke="#b8b8b8" stroke-width=".1" d="M76 8h1v1h-1zm-59 5h1v1h-1zm0 1v1h-1v-1zm65-1h1v1h-1zm-78 43h1v1h-1zm58 5h1v1h-1z"/><path fill="#919191" fill-rule="evenodd" stroke="#919191" stroke-width=".1" d="M21 9h1v1h-1zm48 28h1v1h-1zm-24 26h1v1h-1z"/><path fill="#c9c9c9" fill-rule="evenodd" stroke="#c9c9c9" stroke-width=".1" d="M22 9h1v1h-1zm55 0h1v1h-1zm-10 32h1v1h-1zm-56 31h1v1h-1zm2 2h2v1h1v1h1v1h1v1h-3v-2h-1v-1h-1zm72 0h2v1h-1v1h-1v2h-3v-1h1v-1h1v-1h1zm-63 7h1v1h-1zm55 0h1v1h-1zm-42 7h1v1h-1zm29 0h1v1h-1z"/><path fill="#9e9e9e" fill-rule="evenodd" stroke="#9e9e9e" stroke-width=".1" d="M79 10h1v1h-1zm-19 12h1v1h-1zm30 1h1v1h-1zm4 9h1v1h-1zm2 10h1v1h-1zm-84 32h1v1h-1zm62 12h1v1h-1z"/><path fill="#aaa" fill-rule="evenodd" stroke="#aaa" stroke-width=".1" d="M19 11h1v1h-1zm-16 33h1v1h-1zm93 0h1v1h-1z"/><path fill="#ababab" fill-rule="evenodd" stroke="#ababab" stroke-width=".1" d="M80 11h1v1h-1zm-46 57h1v1h-1z"/><path fill="#d8d8d8" fill-rule="evenodd" stroke="#d8d8d8" stroke-width=".1" d="M22 12h1v1h-1zm55 0h1v1h-1zm-31 19h1v1h-1zm-38 1h1v1h-1zm83 0h1v1h-1zm-85 9h1v1h-1zm87 0h1v1h-1zm-45 3h1v1h-1zm-40 16h1v1h-1zm83 0h1v1h-1zm-76 13h1v1h-1zm69 0h1v1h-1z"/><path fill="#b2b2b2" fill-rule="evenodd" stroke="#b2b2b2" stroke-width=".1" d="M81 12h1v1h-1zm-78 33h1v1h-1zm2 15h1v1h-1z"/><path fill="#e9e9e9" fill-rule="evenodd" stroke="#e9e9e9" stroke-width=".1" d="M22 13h1v1h-1zm55 0h1v1h-1zm-58 3h62v1h1v1h1v2h1v1h1v1h1v2h-25v-3h-9v2h-1v1h-37v-2h1v-1h1v-1h1v-2h1v-1h1z"/><path fill="#dedede" fill-rule="evenodd" stroke="#dedede" stroke-width=".1" d="M19 15h1v1h-1zm61 0h1v1h-1zm-68 9h1v1h-1zm75 0h1v1h-1zm-78 6h1v1h-1zm81 0h1v1h-1zm-84 14h1v1h-1zm87 0h1v1h-1zm-39 3h1v1h-1zm-48 1h1v1h-1zm87 0h1v1h-1zm-84 14h1v1h-1zm81 0h1v1h-1zm-64 3h1v1h-1zm9 2h1v1h-1zm-23 1h1v1h-1zm75 0h1v1h-1zm-73 3h1v1h-1zm36 0h1v1h-1zm35 0h1v1h-1zm-68 3h66v1h-1v1h-1v1h-1v1h-60v-1h-1v-1h-1v-1h-1z"/><path fill="#a8a8a8" fill-rule="evenodd" stroke="#a8a8a8" stroke-width=".1" d="M14 16h1v1h-1zm32 31h1v1h-1zm6 4h1v1h-1z"/><path fill="#a7a7a7" fill-rule="evenodd" stroke="#a7a7a7" stroke-width=".1" d="M85 16h1v1h-1zm6 9h1v1h-1zm-37 8h1v1h-1zm-4 7h1v1h-1zm-47 9h1v1h-1zm24 15h1v1h-1zm-17 7h1v1h-1z"/><path fill="#9b9b9b" fill-rule="evenodd" stroke="#9b9b9b" stroke-width=".1" d="M13 17h1v1h-1zm44 41h1v1h-1zm-32 28h1v1h-1z"/><path fill="#898989" fill-rule="evenodd" stroke="#898989" stroke-width=".1" d="M12 18h1v1h-1zm75 0h1v1h-1zm-82 43h1v1h-1zm3 7h1v1h-1zm83 0h1v1h-1z"/><path fill="#e4e4e4" fill-rule="evenodd" stroke="#e4e4e4" stroke-width=".1" d="M84 20h1v1h-1zm-24 1h1v1h-1zm-53 17h1v1h-1zm62 0h1v1h-1zm23 0h1v1h-1zm-52 3h1v1h-1zm-33 9h28v2h-1v1h-1v1h-26zm38 0h8v1h-1v1h-1v2h-7v-2h1zm23 0h25v4h-24v-3h-1z"/><path fill="#8f8f8f" fill-rule="evenodd" stroke="#8f8f8f" stroke-width=".1" d="M10 21h1v1h-1zm-6 14h1v1h-1zm31 31h1v1h-1zm-2 24h1v1h-1z"/><path fill="#cacaca" fill-rule="evenodd" stroke="#cacaca" stroke-width=".1" d="M53 21h7v1h-7zm-18 29h1v1h-1zm-24 21h2v1h1v1h1v1h-3v-2h-1zm76 0h2v1h-1v2h-3v-1h1v-1h1zm-72 3h1v1h-1zm70 0v1h-1v-1zm-11 9h1v1h-1z"/><path fill="#c5c5c5" fill-rule="evenodd" stroke="#c5c5c5" stroke-width=".1" d="M10 22h1v1h-1zm-6 15h1v1h-1zm45 5h1v1h-1zm7 2h1v1h-1zm-36 38h1v1h-1zm59 0h1v1h-1zm-44 8h8v1h14v-1h8v1h-3v1h-4v1h-16v-1h-4v-1h-3z"/><path fill="#424242" fill-rule="evenodd" stroke="#424242" stroke-width=".1" d="M52 22h1v1h-1zm4 23h1v1h-1z"/><path fill-rule="evenodd" stroke="#000" stroke-width=".1" d="M53 22h7v4h1v4h1v4h1v1h7v1h-1v2h-1v2h-1v1h-1v2h-1v1h1v4h1v4h1v4h1v3h1v4h1v4h1v4h-6v-1h-1v-4h-1v-4h-1v-4h-1v-4h-1v-2h-1v1h-1v2h-1v2h-1v2h-1v1h-1v2h-1v2h-1v2h-1v1h-1v2h-1v2h-8v-1h1v-2h1v-1h1v-2h1v-2h1v-1h1v-2h1v-2h1v-1h1v-2h1v-2h1v-2h1v-1h1v-2h1v-2h1v-1h1v-6h-1v-3h-1v-3h-1v-1h-1v2h-1v1h-1v2h-1v2h-1v2h-1v1h-1v2h-1v2h-1v2h-1v1h-1v2h-1v2h-1v2h-1v1h-1v2h-1v2h-1v2h-1v1h-1v2h-1v2h-1v1h-1v2h-1v1h-7v-1h1v-2h1v-2h1v-2h1v-1h1v-2h1v-2h1v-1h1v-2h1v-2h1v-2h1v-1h1v-2h1v-2h1v-1h1v-2h1v-2h1v-1h1v-2h1v-2h1v-2h1v-1h1v-2h1v-2h1v-1h1v-2h1v-2h1v-2h1z"/><path fill="#c7c7c7" fill-rule="evenodd" stroke="#c7c7c7" stroke-width=".1" d="M89 22h1v1h-1zm-48 34h1v1h-1zm-20 26h3v1h1v1h2v1h1v1h-3v-1h-2v-1h-1v-1h-1zm55 0h3v1h-1v1h-1v1h-2v1h-3v-1h1v-1h2v-1h1zm-46 4h1v1h-1zm2 1h1v1h-1zm35 0h1v1h-1zm-29 2h1v1h-1zm23 0h1v1h-1zm-18 1h1v1h-1zm13 0h1v1h-1z"/><path fill="#a1a1a1" fill-rule="evenodd" stroke="#a1a1a1" stroke-width=".1" d="M9 23h1v1h-1zm64 48h1v1h-1zm14 3h1v1h-1z"/><path fill="#656565" fill-rule="evenodd" stroke="#656565" stroke-width=".1" d="M60 23h1v1h-1zm-14 9h1v1h-1zm10 61h1v1h-1z"/><path fill="#222" fill-rule="evenodd" stroke="#222" stroke-width=".1" d="M51 24h1v1h-1z"/><path fill="#2a2a2a" fill-rule="evenodd" stroke="#2a2a2a" stroke-width=".1" d="M60 24h1v1h-1zm1 4h1v1h-1zm1 4h1v1h-1zm-16 14h1v1h-1zm-12 7h1v1h-1z"/><path fill="#787878" fill-rule="evenodd" stroke="#787878" stroke-width=".1" d="M50 25h1v1h-1zm-22 63h1v1h-1zm32 4h1v1h-1zm-15 1h1v1h-1zm9 0h1v1h-1z"/><path fill="#010101" fill-rule="evenodd" stroke="#010101" stroke-width=".1" d="M60 25h1v1h-1zm-11 3h1v1h-1zm12 1h1v1h-1zm1 4h1v1h-1zm-20 7h1v1h-1zm17 13h1v1h-1zm9 2h1v1h-1zm-18 1h1v1h-1zm-17 12h1v1h-1z"/><path fill="#cfcfcf" fill-rule="evenodd" stroke="#cfcfcf" stroke-width=".1" d="M49 26h1v1h-1zm-42 2h1v1h-1zm85 0h1v1h-1zm-88 18h2v8h-2zm90 0h2v8h-2zm-88 8h1v1h-1zm88 0v1h-1v-1zm-44 0h1v1h-1zm-43 4h1v1h-1zm85 0h1v1h-1zm-68 24h1v1h-1zm51 0h1v1h-1zm-3 2h1v1h-1zm-41 2h1v1h-1zm15 4h1v1h-1zm7 0h1v1h-1z"/><path fill="#0b0b0b" fill-rule="evenodd" stroke="#0b0b0b" stroke-width=".1" d="M50 26h1v1h-1z"/><path fill="#a5a5a5" fill-rule="evenodd" stroke="#a5a5a5" stroke-width=".1" d="M7 27h1v1h-1zm-3 9h1v1h-1zm92 13h1v1h-1z"/><path fill="#525252" fill-rule="evenodd" stroke="#525252" stroke-width=".1" d="M49 27h1v1h-1zm10 27h1v1h-1z"/><path fill="#646464" fill-rule="evenodd" stroke="#646464" stroke-width=".1" d="M61 27h1v1h-1zm1 4h1v1h-1z"/><path fill="#a2a2a2" fill-rule="evenodd" stroke="#a2a2a2" stroke-width=".1" d="M92 27h1v1h-1zm-24 25h1v1h-1z"/><path fill="#979797" fill-rule="evenodd" stroke="#979797" stroke-width=".1" d="M6 29h1v1h-1z"/><path fill="#303030" fill-rule="evenodd" stroke="#303030" stroke-width=".1" d="M48 29h1v1h-1z"/><path fill="#bcbcbc" fill-rule="evenodd" stroke="#bcbcbc" stroke-width=".1" d="M6 30h1v1h-1z"/><path fill="#8b8b8b" fill-rule="evenodd" stroke="#8b8b8b" stroke-width=".1" d="M47 30h1v1h-1zm0 15h1v1h-1zm-4 7h1v1h-1zm39 28h1v1h-1z"/><path fill="#838383" fill-rule="evenodd" stroke="#838383" stroke-width=".1" d="M5 31h1v1h-1zm89 0h1v1h-1zm-28 14h1v1h-1zm-3 19h1v1h-1z"/><path fill="#e7e7e7" fill-rule="evenodd" stroke="#e7e7e7" stroke-width=".1" d="M10 31h36v2h-1v2h-1v1h-1v2h-35v-3h1v-3h1zm53 0h27v1h1v3h1v3h-22v-1h1v-2h1v-1h-8v-1h-1zm-9 3h1v3h1v1h-3v-2h1z"/><path fill="#131313" fill-rule="evenodd" stroke="#131313" stroke-width=".1" d="M47 31h1v1h-1z"/><path fill="#191919" fill-rule="evenodd" stroke="#191919" stroke-width=".1" d="M54 32h1v1h-1zm-4 37h1v1h-1z"/><path fill="#c2c2c2" fill-rule="evenodd" stroke="#c2c2c2" stroke-width=".1" d="M5 33h1v1h-1zm86 34h1v1h-1z"/><path fill="#c1c1c1" fill-rule="evenodd" stroke="#c1c1c1" stroke-width=".1" d="M45 33h1v1h-1zm19 36h1v1h-1zm-30 21h1v1h-1zm31 0h1v1h-1zm-28 1h1v1h-1z"/><path fill="#050505" fill-rule="evenodd" stroke="#050505" stroke-width=".1" d="M46 33h1v1h-1zm6 2h1v1h-1zm-4 7h1v1h-1zm17 1h1v1h-1zm-21 6h1v1h-1zm23 2h1v1h-1zm4 15h1v1h-1z"/><path fill="#242424" fill-rule="evenodd" stroke="#242424" stroke-width=".1" d="M55 33h1v1h-1z"/><path fill="#dfdfdf" fill-rule="evenodd" stroke="#dfdfdf" stroke-width=".1" d="M91 33h1v1h-1zm-85 12h1v1h-1zm87 0h1v1h-1zm-87 2h1v1h-1zm87 0h1v1h-1zm-33 7h1v1h-1zm1 4h1v1h-1zm-53 1h1v1h-1zm83 0h1v1h-1zm-20 3h1v1h-1zm-60 4h1v1h-1zm77 0h1v1h-1zm-73 5h8v1h10v-1h7v1h11v-1h14v1h9v-1h11v2h-1v1h-68v-1h-1z"/><path fill="#c3c3c3" fill-rule="evenodd" stroke="#c3c3c3" stroke-width=".1" d="M94 33h1v1h-1zm-37 9h1v1h-1zm-49 25h1v1h-1zm16 18h1v1h-1zm51 0h1v1h-1z"/><path fill="#3e3e3e" fill-rule="evenodd" stroke="#3e3e3e" stroke-width=".1" d="M45 34h1v1h-1zm19 0h6v1h-6z"/><path fill="#454545" fill-rule="evenodd" stroke="#454545" stroke-width=".1" d="M53 34h1v1h-1zm17 0h1v1h-1zm-8 25h1v1h-1zm-13 12h1v1h-1z"/><path fill="#6b6b6b" fill-rule="evenodd" stroke="#6b6b6b" stroke-width=".1" d="M55 34h1v1h-1zm-11 16h1v1h-1zm23 40h1v1h-1z"/><path fill="#2f2f2f" fill-rule="evenodd" stroke="#2f2f2f" stroke-width=".1" d="M63 34h1v1h-1zm-14 23h1v1h-1z"/><path fill="#707070" fill-rule="evenodd" stroke="#707070" stroke-width=".1" d="M70 35h1v1h-1zm-41 26h1v1h-1zm22 7h1v1h-1z"/><path fill="#1e1e1e" fill-rule="evenodd" stroke="#1e1e1e" stroke-width=".1" d="M44 36h1v1h-1zm11 11h1v1h-1zm2 10h1v1h-1zm-33 14h8v1h-8zm18 0h7v1h-7zm24 0h7v1h-7z"/><path fill="#676767" fill-rule="evenodd" stroke="#676767" stroke-width=".1" d="M52 36h1v1h-1zm-8 29h1v1h-1zm-6 27h1v1h-1z"/><path fill="#151515" fill-rule="evenodd" stroke="#151515" stroke-width=".1" d="M56 36h1v1h-1zm13 0h1v1h-1z"/><path fill="#767676" fill-rule="evenodd" stroke="#767676" stroke-width=".1" d="M43 37h1v1h-1zm15 19h1v1h-1zm-44 21h1v1h-1zm59 10h1v1h-1zm-2 1h1v1h-1z"/><path fill="#101010" fill-rule="evenodd" stroke="#101010" stroke-width=".1" d="M51 37h1v1h-1zm3 25h1v1h-1z"/><path fill="#575757" fill-rule="evenodd" stroke="#575757" stroke-width=".1" d="M56 37h1v1h-1zm13 20h1v1h-1z"/><path fill="#d0d0d0" fill-rule="evenodd" stroke="#d0d0d0" stroke-width=".1" d="M4 38h3v1h-1v7h-2zm89 0h3v8h-2v-7h-1zm-2 23h1v1h-1zm-66 6h1v1h-1zm11 21h1v1h-1zm27 0h1v1h-1zm-16 2h1v1h-1zm5 0h1v1h-1z"/><path fill="#0a0a0a" fill-rule="evenodd" stroke="#0a0a0a" stroke-width=".1" d="M43 38h1v1h-1zm11 11h1v1h-1zm-18 1h1v1h-1z"/><path fill="#888" fill-rule="evenodd" stroke="#888" stroke-width=".1" d="M51 38h1v1h-1zm-48 2h1v1h-1zm54 1h1v1h-1zm-17 1h1v1h-1zm24 26h1v1h-1zm-16 25h1v1h-1zm3 0h1v1h-1z"/><path fill="#2c2c2c" fill-rule="evenodd" stroke="#2c2c2c" stroke-width=".1" d="M68 38h1v1h-1zm-26 15h1v1h-1zm-4 7h1v1h-1zm34 9h1v1h-1z"/><path fill="#7e7e7e" fill-rule="evenodd" stroke="#7e7e7e" stroke-width=".1" d="M3 39h1v1h-1zm93 14h1v1h-1zm-90 11h1v1h-1zm40 29h1v1h-1zm7 0h1v1h-1z"/><path fill="#4e4e4e" fill-rule="evenodd" stroke="#4e4e4e" stroke-width=".1" d="M42 39h1v1h-1zm-5 23h1v1h-1z"/><path fill="#262626" fill-rule="evenodd" stroke="#262626" stroke-width=".1" d="M50 39h1v1h-1zm3 25h1v1h-1zm-12 7h1v1h-1z"/><path fill="#070707" fill-rule="evenodd" stroke="#070707" stroke-width=".1" d="M57 39h1v1h-1zm9 2h1v1h-1zm-26 15h1v1h-1z"/><path fill="#434343" fill-rule="evenodd" stroke="#434343" stroke-width=".1" d="M57 40h1v1h-1z"/><path fill="#4f4f4f" fill-rule="evenodd" stroke="#4f4f4f" stroke-width=".1" d="M67 40h1v1h-1zm-3 27h1v1h-1z"/><path fill="#868686" fill-rule="evenodd" stroke="#868686" stroke-width=".1" d="M96 40h1v1h-1zm-2 21h1v1h-1zm-83 12h1v1h-1zm72 6h1v1h-1zm-66 1h1v1h-1z"/><path fill="#2e2e2e" fill-rule="evenodd" stroke="#2e2e2e" stroke-width=".1" d="M41 41h1v1h-1z"/><path fill="#484848" fill-rule="evenodd" stroke="#484848" stroke-width=".1" d="M49 41h1v1h-1z"/><path fill="#939393" fill-rule="evenodd" stroke="#939393" stroke-width=".1" d="M96 41h1v1h-1zm-27 15h1v1h-1z"/><path fill="#9f9f9f" fill-rule="evenodd" stroke="#9f9f9f" stroke-width=".1" d="M3 42h1v1h-1zm0 8h1v1h-1zm93 0h1v1h-1z"/><path fill="#6f6f6f" fill-rule="evenodd" stroke="#6f6f6f" stroke-width=".1" d="M66 42h1v1h-1zm-30 22h1v1h-1zm8 29h1v1h-1zm11 0h1v1h-1z"/><path fill="#121212" fill-rule="evenodd" stroke="#121212" stroke-width=".1" d="M40 43h1v1h-1zm-7 12h1v1h-1zm15 4h1v1h-1zm15 3h1v1h-1z"/><path fill="#696969" fill-rule="evenodd" stroke="#696969" stroke-width=".1" d="M48 43h1v1h-1z"/><path fill="#6a6a6a" fill-rule="evenodd" stroke="#6a6a6a" stroke-width=".1" d="M57 43h1v1h-1zm-37 40h1v1h-1zm59 0h1v1h-1z"/><path fill="#a3a3a3" fill-rule="evenodd" stroke="#a3a3a3" stroke-width=".1" d="M96 43h1v1h-1zm-3 20h1v1h-1zm-21 4h1v1h-1z"/><path fill="#616161" fill-rule="evenodd" stroke="#616161" stroke-width=".1" d="M39 44h1v1h-1zm16 17h1v1h-1z"/><path fill="#141414" fill-rule="evenodd" stroke="#141414" stroke-width=".1" d="M47 44h1v1h-1zm-4 7h1v1h-1zm-4 7h1v1h-1z"/><path fill="#060606" fill-rule="evenodd" stroke="#060606" stroke-width=".1" d="M57 44h1v1h-1zm-13 22h1v1h-1z"/><path fill="silver" fill-rule="evenodd" stroke="silver" stroke-width=".1" d="M66 44h1v1h-1zm-28 1h1v1h-1zm32 14h1v1h-1zm22 6h1v1h-1zm-49 1h1v1h-1z"/><path fill="#040404" fill-rule="evenodd" stroke="#040404" stroke-width=".1" d="M39 45h1v1h-1zm-7 12h1v1h-1zm15 4h1v1h-1z"/><path fill="#b6b6b6" fill-rule="evenodd" stroke="#b6b6b6" stroke-width=".1" d="M3 46h1v2h-1zm93 0h1v1h-1zm-72 23h1v1h-1zm48 18h1v1h-1zm-43 1h1v1h-1z"/><path fill="#3f3f3f" fill-rule="evenodd" stroke="#3f3f3f" stroke-width=".1" d="M38 46h1v1h-1z"/><path fill="#464646" fill-rule="evenodd" stroke="#464646" stroke-width=".1" d="M66 46h1v1h-1z"/><path fill="#9a9a9a" fill-rule="evenodd" stroke="#9a9a9a" stroke-width=".1" d="M37 47h1v1h-1zm5 21h1v1h-1z"/><path fill="#0c0c0c" fill-rule="evenodd" stroke="#0c0c0c" stroke-width=".1" d="M66 47h1v1h-1zm-5 7h1v1h-1z"/><path fill="#1d1d1d" fill-rule="evenodd" stroke="#1d1d1d" stroke-width=".1" d="M37 48h1v1h-1z"/><path fill="#4a4a4a" fill-rule="evenodd" stroke="#4a4a4a" stroke-width=".1" d="M45 48h1v1h-1zm18 15h1v1h-1z"/><path fill="#737373" fill-rule="evenodd" stroke="#737373" stroke-width=".1" d="M54 48h1v1h-1zm-18 1h1v1h-1zm-6 40h1v1h-1zm5 2h1v1h-1z"/><path fill="#747474" fill-rule="evenodd" stroke="#747474" stroke-width=".1" d="M67 49h1v1h-1zm-48 33h1v1h-1z"/><path fill="#494949" fill-rule="evenodd" stroke="#494949" stroke-width=".1" d="M53 50h1v1h-1zm17 11h1v1h-1zm-42 2h1v1h-1z"/><path fill="#373737" fill-rule="evenodd" stroke="#373737" stroke-width=".1" d="M67 50h1v1h-1zm-43 20h1v1h-1z"/><path fill="#4c4c4c" fill-rule="evenodd" stroke="#4c4c4c" stroke-width=".1" d="M35 51h1v1h-1zm6 4h1v1h-1zm11 11h1v1h-1z"/><path fill="#989898" fill-rule="evenodd" stroke="#989898" stroke-width=".1" d="M96 51h1v1h-1zm-19 33h1v1h-1z"/><path fill="#8c8c8c" fill-rule="evenodd" stroke="#8c8c8c" stroke-width=".1" d="M3 52h1v1h-1z"/><path fill="#acacac" fill-rule="evenodd" stroke="#acacac" stroke-width=".1" d="M34 52h1v1h-1zm8 2h1v1h-1zm-4 7h1v1h-1z"/><path fill="#252525" fill-rule="evenodd" stroke="#252525" stroke-width=".1" d="M52 52h1v1h-1z"/><path fill="#020202" fill-rule="evenodd" stroke="#020202" stroke-width=".1" d="M60 52h1v1h-1zm12 18h1v1h-1z"/><path fill="#8a8a8a" fill-rule="evenodd" stroke="#8a8a8a" stroke-width=".1" d="M96 52h1v1h-1z"/><path fill="gray" fill-rule="evenodd" stroke="gray" stroke-width=".1" d="M3 53h1v1h-1zm23 13h1v1h-1zm-11 12h1v1h-1zm69 0h1v1h-1zm-3 3h1v1h-1z"/><path fill="#7d7d7d" fill-rule="evenodd" stroke="#7d7d7d" stroke-width=".1" d="M51 53h1v1h-1zm-47 5h1v1h-1zm5 12h1v1h-1zm67 15h1v1h-1z"/><path fill="#797979" fill-rule="evenodd" stroke="#797979" stroke-width=".1" d="M60 53h1v1h-1zm9 36h1v1h-1zm-30 3h1v1h-1z"/><path fill="#666" fill-rule="evenodd" stroke="#666" stroke-width=".1" d="M68 53h1v1h-1z"/><path fill="#848484" fill-rule="evenodd" stroke="#848484" stroke-width=".1" d="M33 54h1v1h-1zm37 6h1v1h-1zm-23 33h1v1h-1zm5 0h1v1h-1z"/><path fill="#0d0d0d" fill-rule="evenodd" stroke="#0d0d0d" stroke-width=".1" d="M51 54h1v1h-1z"/><path fill="#292929" fill-rule="evenodd" stroke="#292929" stroke-width=".1" d="M68 54h1v1h-1zm-41 11h1v1h-1z"/><path fill="#545454" fill-rule="evenodd" stroke="#545454" stroke-width=".1" d="M50 55h1v1h-1z"/><path fill="#090909" fill-rule="evenodd" stroke="#090909" stroke-width=".1" d="M58 55h1v1h-1zm-29 7h1v1h-1z"/><path fill="#c8c8c8" fill-rule="evenodd" stroke="#c8c8c8" stroke-width=".1" d="M59 55h1v1h-1zm-31 7h1v1h-1zm60 10h1v1h-1zm-72 6h3v1h1v1h1v1h1v1h-3v-1h-1v-1h-1v-1h-1zm65 0h3v1h-1v1h-1v1h-1v1h-3v-1h1v-1h1v-1h1zm-53 7h1v1h-1zm43 0h1v1h-1zm-2 1h1v1h-1z"/><path fill="#404040" fill-rule="evenodd" stroke="#404040" stroke-width=".1" d="M61 55h1v1h-1zm-18 12h1v1h-1z"/><path fill="#5e5e5e" fill-rule="evenodd" stroke="#5e5e5e" stroke-width=".1" d="M32 56h1v1h-1zm15 4h1v1h-1z"/><path fill="#7a7a7a" fill-rule="evenodd" stroke="#7a7a7a" stroke-width=".1" d="M61 56h1v1h-1zm24 21h1v1h-1z"/><path fill="#bdbdbd" fill-rule="evenodd" stroke="#bdbdbd" stroke-width=".1" d="M31 57h1v1h-1zm32 8h1v1h-1z"/><path fill="#6d6d6d" fill-rule="evenodd" stroke="#6d6d6d" stroke-width=".1" d="M40 57h1v1h-1z"/><path fill="#b4b4b4" fill-rule="evenodd" stroke="#b4b4b4" stroke-width=".1" d="M61 57h1v1h-1z"/><path fill="#929292" fill-rule="evenodd" stroke="#929292" stroke-width=".1" d="M95 57h1v1h-1z"/><path fill="#393939" fill-rule="evenodd" stroke="#393939" stroke-width=".1" d="M31 58h1v1h-1z"/><path fill="#878787" fill-rule="evenodd" stroke="#878787" stroke-width=".1" d="M48 58h1v1h-1zm-41 8h1v1h-1zm9 13h1v1h-1z"/><path fill="#0e0e0e" fill-rule="evenodd" stroke="#0e0e0e" stroke-width=".1" d="M62 58h1v1h-1zm8 4h1v1h-1z"/><path fill="#1b1b1b" fill-rule="evenodd" stroke="#1b1b1b" stroke-width=".1" d="M69 58h1v1h-1zm-4 12h1v1h-1z"/><path fill="#7c7c7c" fill-rule="evenodd" stroke="#7c7c7c" stroke-width=".1" d="M95 58h1v1h-1zm-2 6h1v1h-1zm-3 6h1v1h-1zm-72 11h1v1h-1zm5 4h1v1h-1z"/><path fill="#3a3a3a" fill-rule="evenodd" stroke="#3a3a3a" stroke-width=".1" d="M56 59h1v1h-1zm15 6h1v1h-1z"/><path fill="#1c1c1c" fill-rule="evenodd" stroke="#1c1c1c" stroke-width=".1" d="M30 60h1v1h-1z"/><path fill="#030303" fill-rule="evenodd" stroke="#030303" stroke-width=".1" d="M55 60h1v1h-1zm-30 9h1v1h-1z"/><path fill="#bababa" fill-rule="evenodd" stroke="#bababa" stroke-width=".1" d="M56 60h1v1h-1zm-43 15h1v1h-1z"/><path fill="#7f7f7f" fill-rule="evenodd" stroke="#7f7f7f" stroke-width=".1" d="M62 60h1v1h-1z"/><path fill="#383838" fill-rule="evenodd" stroke="#383838" stroke-width=".1" d="M46 62h1v1h-1z"/><path fill="#080808" fill-rule="evenodd" stroke="#080808" stroke-width=".1" d="M36 63h1v1h-1zm15 4h1v1h-1zm-19 3h1v1h-1z"/><path fill="#c6c6c6" fill-rule="evenodd" stroke="#c6c6c6" stroke-width=".1" d="M37 63h1v1h-1zm-4 7h1v1h-1zm-19 6h1v1h-1zm71 0h1v1h-1zm-59 10h4v1h2v1h3v1h3v1h-6v-1h-2v-1h-2v-1h-2zm44 0h4v1h-2v1h-2v1h-2v1h-6v-1h3v-1h3v-1h2z"/><path fill="#858585" fill-rule="evenodd" stroke="#858585" stroke-width=".1" d="M54 63h1v1h-1zm38 3h1v1h-1zm-4 7h1v1h-1z"/><path fill="#181818" fill-rule="evenodd" stroke="#181818" stroke-width=".1" d="M45 64h1v1h-1zm-10 1h1v1h-1z"/><path fill="#757575" fill-rule="evenodd" stroke="#757575" stroke-width=".1" d="M71 64h1v1h-1zm9 18h1v1h-1z"/><path fill="#bfbfbf" fill-rule="evenodd" stroke="#bfbfbf" stroke-width=".1" d="M7 65h1v1h-1zm2 4h1v1h-1zm81 0h1v1h-1zm-28 22h1v1h-1z"/><path fill="#171717" fill-rule="evenodd" stroke="#171717" stroke-width=".1" d="M64 66h1v1h-1z"/><path fill="#111" fill-rule="evenodd" stroke="#111" stroke-width=".1" d="M26 67h1v1h-1z"/><path fill="#2d2d2d" fill-rule="evenodd" stroke="#2d2d2d" stroke-width=".1" d="M34 67h1v1h-1z"/><path fill="#5a5a5a" fill-rule="evenodd" stroke="#5a5a5a" stroke-width=".1" d="M25 68h1v1h-1z"/><path fill="#686868" fill-rule="evenodd" stroke="#686868" stroke-width=".1" d="M72 68h1v1h-1zm-11 24h1v1h-1z"/><path fill="#505050" fill-rule="evenodd" stroke="#505050" stroke-width=".1" d="M33 69h1v1h-1z"/><path fill="#202020" fill-rule="evenodd" stroke="#202020" stroke-width=".1" d="M42 69h1v1h-1z"/><path fill="#717171" fill-rule="evenodd" stroke="#717171" stroke-width=".1" d="M41 70h1v1h-1zm-28 6h1v1h-1zm51 15h1v1h-1z"/><path fill="#777" fill-rule="evenodd" stroke="#777" stroke-width=".1" d="M32 71h1v1h-1z"/><path fill="#636363" fill-rule="evenodd" stroke="#636363" stroke-width=".1" d="M65 71h1v1h-1zm-22 22h1v1h-1z"/><path fill="#6e6e6e" fill-rule="evenodd" stroke="#6e6e6e" stroke-width=".1" d="M86 76h1v1h-1zm-60 11h1v1h-1z"/><path fill="#6c6c6c" fill-rule="evenodd" stroke="#6c6c6c" stroke-width=".1" d="M32 90h1v1h-1z"/></svg>