<svg xmlns="http://www.w3.org/2000/svg" viewBox="0 0 100 100" width="1em" height="1em"><path fill="#2d3441" d="M22 27h1v1h-1zM22 28h1v1h-1zM21 29h3v1h-3zM20 30h5v1h-5zM19 31h7v1h-7zM18 32h9v1h-9zM17 33h11v1h-11zM16 34h13v1h-13zM15 35h15v1h-15zM14 36h17v1h-17zM13 37h19v1h-19zM12 38h21v1h-21zM11 39h23v1h-23zM10 40h25v1h-25zM9 41h27v1h-27zM8 42h29v1h-29zM7 43h31v1h-31zM6 44h33v1h-33zM5 45h36v1h-36zM4 46h38v1h-38zM3 47h39v1h-39zM2 48h41v1h-41zM1 49h44v1h-44zM2 50h43v1h-43zM3 51h44v1h-44zM4 52h44v1h-44zM5 53h44v1h-44zM6 54h43v1h-43zM7 55h43v1h-43zM8 56h43v1h-43zM9 57h43v1h-43zM10 58h43v1h-43zM10 59h44v1h-44zM12 60h43v1h-43zM13 61h43v1h-43zM14 62h43v1h-43zM15 63h43v1h-43zM16 64h43v1h-43zM17 65h43v1h-43zM18 66h43v1h-43zM19 67h44v1h-44zM20 68h44v1h-44zM21 69h44v1h-44zM22 70h44v1h-44zM23 71h44v1h-44z" /><path fill="#76c1d2" d="M77 27h1v1h-1zM73 31h1v1h-1zM67 37h1v1h-1zM66 38h1v1h-1zM60 53h1v1h-1zM61 54h1v1h-1zM62 55h1v1h-1zM64 57h1v1h-1zM65 58h1v1h-1zM90 58h1v1h-1zM66 59h1v1h-1zM89 59h1v1h-1z" /><path fill="#2d3440" d="M21 28h1v1h-1zM20 29h1v1h-1zM19 30h1v1h-1zM18 31h1v1h-1zM27 32h1v1h-1zM28 33h1v1h-1zM29 34h1v1h-1zM30 35h1v1h-1zM2 47h1v1h-1zM1 48h1v1h-1zM6 55h1v1h-1zM7 56h1v1h-1zM8 57h1v1h-1zM9 58h1v1h-1zM13 62h1v1h-1zM14 63h1v1h-1zM61 66h1v1h-1zM22 71h1v1h-1zM23 72h1v1h-1z" /><path fill="#2c3341" d="M23 28h1v1h-1zM24 29h1v1h-1zM25 30h1v1h-1zM12 37h1v1h-1zM11 38h1v1h-1zM10 39h1v1h-1zM9 40h1v1h-1zM8 41h1v1h-1zM7 42h1v1h-1zM6 43h1v1h-1zM5 44h1v1h-1zM4 45h1v1h-1zM2 51h1v1h-1zM3 52h1v1h-1zM4 53h1v1h-1zM5 54h1v1h-1zM52 57h1v1h-1zM53 58h1v1h-1zM54 59h1v1h-1zM11 60h1v1h-1zM12 61h1v1h-1zM17 66h1v1h-1zM18 67h1v1h-1z" /><path fill="#77c1d2" d="M76 28h2v1h-2zM75 29h4v1h-4zM74 30h6v1h-6zM74 31h7v1h-7zM73 32h10v1h-10zM72 33h12v1h-12zM71 34h14v1h-14zM70 35h16v1h-16zM69 36h18v1h-18zM68 37h20v1h-20zM67 38h22v1h-22zM66 39h24v1h-24zM65 40h26v1h-26zM64 41h28v1h-28zM63 42h30v1h-30zM62 43h32v1h-32zM61 44h34v1h-34zM60 45h35v1h-35zM59 46h37v1h-37zM58 47h39v1h-39zM57 48h41v1h-41zM57 49h42v1h-42zM58 50h40v1h-40zM59 51h38v1h-38zM60 52h36v1h-36zM61 53h34v1h-34zM62 54h32v1h-32zM63 55h31v1h-31zM63 56h30v1h-30zM65 57h27v1h-27zM66 58h24v1h-24zM67 59h22v1h-22zM68 60h20v1h-20zM69 61h18v1h-18zM70 62h16v1h-16zM71 63h14v1h-14zM72 64h12v1h-12zM73 65h10v1h-10zM74 66h8v1h-8zM75 67h6v1h-6zM76 68h4v1h-4zM77 69h2v1h-2z" /><path fill="#76c0d1" d="M78 28h1v1h-1zM95 45h1v1h-1zM96 46h1v1h-1zM87 61h1v1h-1z" /><path fill="#77c0d2" d="M79 29h1v1h-1zM80 30h1v1h-1zM81 31h1v1h-1zM65 39h1v1h-1zM64 40h1v1h-1zM57 50h1v1h-1zM58 51h1v1h-1zM59 52h1v1h-1zM67 60h1v1h-1zM68 61h1v1h-1zM69 62h1v1h-1zM86 62h1v1h-1zM85 63h1v1h-1z" /><path fill="#2c3441" d="M26 31h1v1h-1zM17 32h1v1h-1zM16 33h1v1h-1zM15 34h1v1h-1zM14 35h1v1h-1zM13 36h1v1h-1zM37 42h1v1h-1zM38 43h1v1h-1zM39 44h1v1h-1zM0 49h1v1h-1zM19 68h1v1h-1z" /><path fill="#77c0d1" d="M72 32h1v1h-1zM71 33h1v1h-1zM70 34h1v1h-1zM69 35h1v1h-1zM97 47h1v1h-1zM98 48h1v1h-1zM96 52h1v1h-1zM88 60h1v1h-1zM79 69h1v1h-1zM78 70h1v1h-1z" /><path fill="#2d3341" d="M31 36h1v1h-1zM55 60h1v1h-1zM56 61h1v1h-1zM57 62h1v1h-1zM67 72h1v1h-1z" /><path fill="#77c1d1" d="M68 36h1v1h-1zM60 44h1v1h-1zM59 45h1v1h-1zM58 46h1v1h-1zM56 49h1v1h-1zM73 66h1v1h-1zM82 66h1v1h-1zM74 67h1v1h-1zM81 67h1v1h-1zM75 68h1v1h-1z" /><path fill="#2c3340" d="M32 37h1v1h-1zM33 38h1v1h-1zM3 46h1v1h-1z" /><path fill="#2c3440" d="M34 39h1v1h-1zM35 40h1v1h-1zM36 41h1v1h-1zM1 50h1v1h-1zM49 54h1v1h-1zM50 55h1v1h-1zM51 56h1v1h-1zM20 69h1v1h-1zM21 70h1v1h-1z" /><path fill="#76c0d2" d="M63 41h1v1h-1zM62 42h1v1h-1zM61 43h1v1h-1zM99 49h1v1h-1zM95 53h1v1h-1zM94 54h1v1h-1zM70 63h1v1h-1zM71 64h1v1h-1zM84 64h1v1h-1zM72 65h1v1h-1zM83 65h1v1h-1z" /><path fill="#2d3340" d="M42 47h1v1h-1zM43 48h1v1h-1zM45 50h1v1h-1zM58 63h1v1h-1zM15 64h1v1h-1zM59 64h1v1h-1zM16 65h1v1h-1zM60 65h1v1h-1zM24 72h43v1h-43z" /><path fill="#76c1d1" d="M57 47h1v1h-1zM56 48h1v1h-1zM98 50h1v1h-1zM97 51h1v1h-1zM80 68h1v1h-1zM76 69h1v1h-1zM77 70h1v1h-1z" /></svg>