<svg xmlns="http://www.w3.org/2000/svg" viewBox="0 0 100 100" width="1em" height="1em"><path fill="#ff9800" d="M56 11h1v1h-1zM53 12h2v1h-2zM82 12h2v1h-2zM46 14h1v1h-1zM67 14h1v1h-1zM97 14h1v1h-1zM65 15h2v1h-2zM78 15h1v1h-1zM94 15h2v1h-2zM44 16h1v1h-1zM51 16h2v1h-2zM80 16h2v1h-2zM47 17h1v1h-1zM54 17h2v1h-2zM67 17h1v1h-1zM83 17h2v1h-2zM50 18h1v1h-1zM63 18h1v1h-1zM92 18h1v1h-1zM61 19h1v1h-1zM55 20h1v1h-1zM84 20h1v1h-1zM68 34h1v1h-1zM75 34h1v1h-1zM97 34h2v1h-2zM63 36h1v1h-1zM80 36h1v1h-1zM11 37h1v1h-1zM15 37h2v1h-2zM44 37h2v1h-2zM83 37h1v1h-1zM89 37h1v1h-1zM7 38h2v1h-2zM18 38h1v1h-1zM4 40h1v1h-1zM23 40h2v1h-2zM32 40h2v1h-2zM53 40h1v1h-1zM7 41h1v1h-1zM36 41h1v1h-1zM9 42h1v1h-1zM17 42h2v1h-2zM24 42h1v1h-1zM38 42h1v1h-1zM47 42h1v1h-1zM53 42h2v1h-2zM12 43h1v1h-1zM15 43h1v1h-1zM22 43h1v1h-1zM41 43h1v1h-1zM44 43h1v1h-1zM50 43h1v1h-1zM7 44h2v1h-2zM19 44h1v1h-1zM36 44h2v1h-2zM47 44h1v1h-1zM15 45h2v1h-2zM0 59h1v1h-1zM29 59h2v1h-2zM3 60h1v1h-1zM6 61h1v1h-1zM20 61h1v1h-1zM35 61h1v1h-1zM50 61h1v1h-1zM8 62h1v1h-1zM17 62h2v1h-2zM27 62h1v1h-1zM38 62h1v1h-1zM46 62h2v1h-2zM11 63h1v1h-1zM40 63h1v1h-1zM39 65h1v1h-1zM16 67h1v1h-1zM23 67h1v1h-1zM33 67h2v1h-2zM40 67h1v1h-1zM31 68h1v1h-1zM37 68h1v1h-1zM22 69h1v1h-1zM28 69h1v1h-1zM24 70h1v1h-1zM32 70h1v1h-1zM16 85h1v1h-1zM39 85h1v1h-1zM19 86h2v1h-2zM37 86h1v1h-1z" /><path fill="#ff9900" d="M57 11h2v1h-2zM85 11h3v1h-3zM55 12h7v1h-7zM84 12h7v1h-7zM49 13h16v1h-16zM78 13h16v1h-16zM47 14h20v1h-20zM75 14h22v1h-22zM48 15h17v1h-17zM77 15h1v1h-1zM79 15h15v1h-15zM45 16h1v1h-1zM53 16h11v1h-11zM69 16h2v1h-2zM73 16h2v1h-2zM82 16h11v1h-11zM98 16h2v1h-2zM44 17h3v1h-3zM48 17h1v1h-1zM56 17h5v1h-5zM66 17h1v1h-1zM68 17h3v1h-3zM73 17h5v1h-5zM85 17h5v1h-5zM96 17h4v1h-4zM44 18h6v1h-6zM57 18h1v1h-1zM64 18h7v1h-7zM73 18h7v1h-7zM86 18h1v1h-1zM93 18h7v1h-7zM44 19h10v1h-10zM62 19h9v1h-9zM73 19h10v1h-10zM90 19h10v1h-10zM44 20h11v1h-11zM59 20h12v1h-12zM73 20h11v1h-11zM88 20h12v1h-12zM44 21h12v1h-12zM59 21h12v1h-12zM73 21h12v1h-12zM88 21h12v1h-12zM44 22h12v1h-12zM59 22h12v1h-12zM73 22h12v1h-12zM88 22h12v1h-12zM44 23h12v1h-12zM59 23h12v1h-12zM73 23h12v1h-12zM88 23h12v1h-12zM44 24h12v1h-12zM59 24h12v1h-12zM73 24h12v1h-12zM88 24h12v1h-12zM44 25h12v1h-12zM59 25h12v1h-12zM73 25h12v1h-12zM88 25h12v1h-12zM44 26h12v1h-12zM59 26h12v1h-12zM73 26h12v1h-12zM88 26h12v1h-12zM44 27h12v1h-12zM59 27h12v1h-12zM73 27h12v1h-12zM88 27h12v1h-12zM44 28h12v1h-12zM59 28h12v1h-12zM73 28h12v1h-12zM88 28h12v1h-12zM44 29h12v1h-12zM59 29h12v1h-12zM73 29h12v1h-12zM88 29h12v1h-12zM44 30h12v1h-12zM59 30h12v1h-12zM73 30h12v1h-12zM88 30h12v1h-12zM44 31h12v1h-12zM59 31h12v1h-12zM73 31h12v1h-12zM88 31h12v1h-12zM44 32h12v1h-12zM59 32h12v1h-12zM73 32h12v1h-12zM88 32h12v1h-12zM44 33h12v1h-12zM59 33h12v1h-12zM73 33h12v1h-12zM88 33h12v1h-12zM45 34h11v1h-11zM59 34h9v1h-9zM69 34h1v1h-1zM74 34h1v1h-1zM76 34h9v1h-9zM88 34h9v1h-9zM48 35h8v1h-8zM59 35h8v1h-8zM77 35h8v1h-8zM88 35h8v1h-8zM50 36h6v1h-6zM59 36h4v1h-4zM79 36h1v1h-1zM81 36h4v1h-4zM88 36h5v1h-5zM10 37h1v1h-1zM12 37h3v1h-3zM39 37h5v1h-5zM53 37h3v1h-3zM59 37h3v1h-3zM82 37h1v1h-1zM84 37h1v1h-1zM88 37h1v1h-1zM90 37h1v1h-1zM9 38h9v1h-9zM19 38h1v1h-1zM36 38h13v1h-13zM3 39h20v1h-20zM32 39h20v1h-20zM3 40h1v1h-1zM5 40h18v1h-18zM34 40h19v1h-19zM6 41h1v1h-1zM8 41h14v1h-14zM35 41h1v1h-1zM37 41h14v1h-14zM0 42h3v1h-3zM10 42h7v1h-7zM25 42h2v1h-2zM29 42h3v1h-3zM39 42h8v1h-8zM55 42h1v1h-1zM0 43h6v1h-6zM13 43h2v1h-2zM21 43h1v1h-1zM23 43h4v1h-4zM29 43h6v1h-6zM42 43h2v1h-2zM51 43h5v1h-5zM0 44h7v1h-7zM18 44h1v1h-1zM20 44h7v1h-7zM29 44h7v1h-7zM48 44h8v1h-8zM0 45h12v1h-12zM17 45h10v1h-10zM29 45h12v1h-12zM44 45h12v1h-12zM0 46h12v1h-12zM15 46h12v1h-12zM29 46h12v1h-12zM44 46h12v1h-12zM0 47h12v1h-12zM15 47h12v1h-12zM29 47h12v1h-12zM44 47h12v1h-12zM0 48h12v1h-12zM15 48h12v1h-12zM29 48h12v1h-12zM44 48h12v1h-12zM0 49h12v1h-12zM15 49h12v1h-12zM29 49h12v1h-12zM44 49h12v1h-12zM0 50h12v1h-12zM15 50h12v1h-12zM29 50h12v1h-12zM44 50h12v1h-12zM0 51h12v1h-12zM15 51h12v1h-12zM29 51h12v1h-12zM44 51h12v1h-12zM0 52h12v1h-12zM15 52h12v1h-12zM29 52h12v1h-12zM44 52h12v1h-12zM0 53h12v1h-12zM15 53h12v1h-12zM29 53h12v1h-12zM44 53h12v1h-12zM0 54h12v1h-12zM15 54h12v1h-12zM29 54h12v1h-12zM44 54h12v1h-12zM0 55h12v1h-12zM15 55h12v1h-12zM29 55h12v1h-12zM44 55h12v1h-12zM0 56h12v1h-12zM15 56h12v1h-12zM29 56h12v1h-12zM44 56h12v1h-12zM0 57h12v1h-12zM15 57h12v1h-12zM29 57h12v1h-12zM44 57h12v1h-12zM0 58h12v1h-12zM15 58h12v1h-12zM29 58h12v1h-12zM44 58h12v1h-12zM1 59h11v1h-11zM15 59h12v1h-12zM31 59h10v1h-10zM44 59h12v1h-12zM4 60h8v1h-8zM15 60h10v1h-10zM32 60h9v1h-9zM44 60h10v1h-10zM5 61h1v1h-1zM7 61h5v1h-5zM15 61h5v1h-5zM21 61h1v1h-1zM34 61h1v1h-1zM36 61h5v1h-5zM44 61h6v1h-6zM9 62h3v1h-3zM15 62h2v1h-2zM28 62h2v1h-2zM37 62h1v1h-1zM39 62h2v1h-2zM44 62h2v1h-2zM15 63h1v1h-1zM23 63h11v1h-11zM44 63h1v1h-1zM20 64h17v1h-17zM17 65h22v1h-22zM19 66h19v1h-19zM15 67h1v1h-1zM22 67h1v1h-1zM24 67h9v1h-9zM41 67h1v1h-1zM15 68h5v1h-5zM25 68h6v1h-6zM38 68h4v1h-4zM15 69h7v1h-7zM34 69h8v1h-8zM15 70h9v1h-9zM25 70h1v1h-1zM31 70h1v1h-1zM33 70h9v1h-9zM15 71h12v1h-12zM30 71h12v1h-12zM15 72h12v1h-12zM30 72h12v1h-12zM15 73h12v1h-12zM30 73h12v1h-12zM15 74h12v1h-12zM30 74h12v1h-12zM15 75h12v1h-12zM30 75h12v1h-12zM15 76h12v1h-12zM30 76h12v1h-12zM15 77h12v1h-12zM30 77h12v1h-12zM15 78h12v1h-12zM30 78h12v1h-12zM15 79h12v1h-12zM30 79h12v1h-12zM15 80h12v1h-12zM30 80h12v1h-12zM15 81h12v1h-12zM30 81h12v1h-12zM15 82h12v1h-12zM30 82h12v1h-12zM15 83h12v1h-12zM30 83h12v1h-12zM15 84h12v1h-12zM30 84h12v1h-12zM17 85h10v1h-10zM30 85h9v1h-9zM40 85h1v1h-1zM21 86h6v1h-6zM30 86h7v1h-7zM22 87h5v1h-5zM30 87h5v1h-5zM25 88h2v1h-2zM30 88h2v1h-2z" /></svg>