<svg xmlns="http://www.w3.org/2000/svg" viewBox="0 0 100 100" width="1em" height="1em"><path fill="#f9aa00" d="M80 0h1v1h-1zM85 0h1v1h-1zM71 8h1v1h-1zM71 91h1v1h-1zM93 93h1v1h-1zM81 99h1v1h-1zM85 99h1v1h-1z" /><path fill="#f9ab00" d="M81 0h1v1h-1zM84 0h1v1h-1zM79 1h8v1h-8zM77 2h12v1h-12zM75 3h16v1h-16zM74 4h18v1h-18zM74 5h18v1h-18zM73 6h20v1h-20zM72 7h22v1h-22zM72 8h23v1h-23zM72 9h22v1h-22zM71 10h24v1h-24zM71 11h24v1h-24zM71 12h24v1h-24zM71 13h24v1h-24zM71 14h24v1h-24zM71 15h24v1h-24zM71 16h24v1h-24zM71 17h24v1h-24zM71 18h24v1h-24zM71 19h24v1h-24zM71 20h24v1h-24zM71 21h24v1h-24zM71 22h24v1h-24zM71 23h24v1h-24zM71 24h24v1h-24zM71 25h24v1h-24zM71 26h24v1h-24zM71 27h24v1h-24zM71 28h24v1h-24zM71 29h24v1h-24zM71 30h24v1h-24zM71 31h24v1h-24zM71 32h24v1h-24zM71 33h24v1h-24zM71 34h24v1h-24zM71 35h24v1h-24zM71 36h24v1h-24zM71 37h24v1h-24zM71 38h24v1h-24zM71 39h24v1h-24zM71 40h24v1h-24zM71 41h24v1h-24zM71 42h24v1h-24zM71 43h24v1h-24zM71 44h24v1h-24zM71 45h24v1h-24zM71 46h24v1h-24zM71 47h24v1h-24zM71 48h24v1h-24zM71 49h24v1h-24zM71 50h24v1h-24zM71 51h24v1h-24zM71 52h24v1h-24zM71 53h24v1h-24zM71 54h24v1h-24zM71 55h24v1h-24zM71 56h24v1h-24zM71 57h24v1h-24zM71 58h24v1h-24zM71 59h24v1h-24zM71 60h24v1h-24zM71 61h24v1h-24zM71 62h24v1h-24zM71 63h24v1h-24zM71 64h24v1h-24zM71 65h24v1h-24zM71 66h24v1h-24zM71 67h24v1h-24zM71 68h24v1h-24zM71 69h24v1h-24zM71 70h24v1h-24zM71 71h24v1h-24zM71 72h24v1h-24zM71 73h24v1h-24zM71 74h24v1h-24zM71 75h24v1h-24zM71 76h24v1h-24zM71 77h24v1h-24zM71 78h24v1h-24zM71 79h24v1h-24zM71 80h24v1h-24zM71 81h24v1h-24zM71 82h24v1h-24zM71 83h24v1h-24zM71 84h24v1h-24zM71 85h24v1h-24zM71 86h24v1h-24zM71 87h24v1h-24zM71 88h24v1h-24zM71 89h24v1h-24zM72 90h22v1h-22zM72 91h22v1h-22zM72 92h22v1h-22zM73 93h20v1h-20zM74 94h18v1h-18zM75 95h17v1h-17zM76 96h14v1h-14zM77 97h12v1h-12zM79 98h8v1h-8z" /><path fill="#f8ab00" d="M82 0h2v1h-2zM77 1h1v1h-1zM87 1h1v1h-1zM76 2h1v1h-1zM73 5h1v1h-1zM71 9h1v1h-1zM94 9h1v1h-1zM71 90h1v1h-1zM94 90h1v1h-1zM73 94h1v1h-1zM76 97h1v1h-1zM89 97h1v1h-1zM77 98h1v1h-1zM88 98h1v1h-1zM80 99h1v1h-1zM83 99h1v1h-1z" /><path fill="#f8aa00" d="M78 1h1v1h-1zM88 1h1v1h-1zM89 2h1v1h-1zM92 5h1v1h-1zM72 6h1v1h-1zM93 6h1v1h-1zM94 91h1v1h-1zM72 93h1v1h-1zM92 94h1v1h-1zM74 95h1v1h-1zM75 96h1v1h-1zM90 96h1v1h-1zM78 98h1v1h-1zM87 98h1v1h-1zM82 99h1v1h-1zM84 99h1v1h-1z" /><path fill="#e37300" d="M46 38h1v1h-1zM44 39h1v1h-1zM57 40h1v1h-1zM38 48h1v1h-1zM15 75h2v1h-2zM18 75h1v1h-1zM10 77h1v1h-1zM23 77h1v1h-1zM26 79h1v1h-1zM27 81h1v1h-1zM5 85h1v1h-1zM29 85h1v1h-1zM29 86h1v1h-1zM38 86h1v1h-1zM39 91h1v1h-1zM61 91h1v1h-1zM61 92h1v1h-1zM41 95h1v1h-1zM45 98h1v1h-1zM16 99h2v1h-2zM47 99h1v1h-1zM49 99h1v1h-1zM52 99h1v1h-1z" /><path fill="#e37400" d="M47 38h6v1h-6zM45 39h11v1h-11zM44 40h13v1h-13zM43 41h15v1h-15zM42 42h18v1h-18zM41 43h20v1h-20zM40 44h20v1h-20zM39 45h22v1h-22zM39 46h22v1h-22zM38 47h24v1h-24zM39 48h23v1h-23zM38 49h24v1h-24zM38 50h24v1h-24zM38 51h24v1h-24zM38 52h24v1h-24zM38 53h24v1h-24zM38 54h24v1h-24zM38 55h24v1h-24zM38 56h24v1h-24zM38 57h24v1h-24zM38 58h24v1h-24zM38 59h24v1h-24zM38 60h24v1h-24zM38 61h24v1h-24zM38 62h24v1h-24zM38 63h24v1h-24zM38 64h24v1h-24zM38 65h24v1h-24zM38 66h24v1h-24zM38 67h24v1h-24zM38 68h24v1h-24zM38 69h24v1h-24zM38 70h24v1h-24zM38 71h24v1h-24zM38 72h24v1h-24zM38 73h24v1h-24zM38 74h24v1h-24zM38 75h24v1h-24zM14 76h8v1h-8zM38 76h24v1h-24zM11 77h12v1h-12zM38 77h24v1h-24zM9 78h16v1h-16zM38 78h24v1h-24zM8 79h18v1h-18zM38 79h24v1h-24zM7 80h20v1h-20zM38 80h24v1h-24zM7 81h20v1h-20zM38 81h24v1h-24zM7 82h21v1h-21zM38 82h24v1h-24zM6 83h23v1h-23zM38 83h24v1h-24zM6 84h23v1h-23zM38 84h24v1h-24zM6 85h23v1h-23zM39 85h23v1h-23zM5 86h24v1h-24zM39 86h23v1h-23zM5 87h24v1h-24zM38 87h25v1h-25zM5 88h24v1h-24zM38 88h24v1h-24zM6 89h24v1h-24zM39 89h23v1h-23zM6 90h23v1h-23zM39 90h23v1h-23zM6 91h22v1h-22zM40 91h21v1h-21zM6 92h22v1h-22zM40 92h21v1h-21zM7 93h21v1h-21zM40 93h20v1h-20zM8 94h20v1h-20zM41 94h19v1h-19zM8 95h18v1h-18zM42 95h18v1h-18zM9 96h16v1h-16zM42 96h17v1h-17zM11 97h13v1h-13zM43 97h14v1h-14zM12 98h10v1h-10zM46 98h8v1h-8zM55 98h1v1h-1zM14 99h1v1h-1zM20 99h1v1h-1zM48 99h1v1h-1zM50 99h1v1h-1z" /><path fill="#e27300" d="M53 38h1v1h-1zM43 40h1v1h-1zM61 45h1v1h-1zM61 46h1v1h-1zM62 49h1v1h-1zM62 50h1v1h-1zM62 51h1v1h-1zM62 52h1v1h-1zM62 53h1v1h-1zM62 54h1v1h-1zM62 55h1v1h-1zM62 56h1v1h-1zM62 57h1v1h-1zM62 58h1v1h-1zM62 59h1v1h-1zM62 60h1v1h-1zM62 61h1v1h-1zM62 62h1v1h-1zM62 63h1v1h-1zM62 64h1v1h-1zM62 65h1v1h-1zM62 66h1v1h-1zM62 67h1v1h-1zM62 68h1v1h-1zM62 69h1v1h-1zM62 70h1v1h-1zM62 71h1v1h-1zM62 72h1v1h-1zM62 73h1v1h-1zM62 74h1v1h-1zM19 75h1v1h-1zM62 75h1v1h-1zM22 76h1v1h-1zM62 76h1v1h-1zM62 77h1v1h-1zM25 78h1v1h-1zM62 78h1v1h-1zM62 79h1v1h-1zM62 80h1v1h-1zM62 81h1v1h-1zM6 82h1v1h-1zM62 82h1v1h-1zM62 83h1v1h-1zM62 84h1v1h-1zM38 85h1v1h-1zM62 85h1v1h-1zM62 86h1v1h-1zM29 87h1v1h-1zM5 89h1v1h-1zM28 91h1v1h-1zM7 94h1v1h-1zM24 97h1v1h-1zM22 98h1v1h-1zM54 98h1v1h-1zM18 99h2v1h-2zM51 99h1v1h-1z" /><path fill="#e27400" d="M56 39h1v1h-1zM42 41h1v1h-1zM58 41h1v1h-1zM41 42h1v1h-1zM40 43h1v1h-1zM39 44h1v1h-1zM60 44h1v1h-1zM17 75h1v1h-1zM12 76h2v1h-2zM28 82h1v1h-1zM5 84h1v1h-1zM29 88h1v1h-1zM5 90h1v1h-1zM28 92h1v1h-1zM39 92h1v1h-1zM60 93h1v1h-1zM26 95h1v1h-1zM25 96h1v1h-1zM10 97h1v1h-1zM15 99h1v1h-1z" /></svg>