<svg xmlns="http://www.w3.org/2000/svg" viewBox="0 0 100 100" width="1em" height="1em"><path fill="#dd25cb" d="M37 0h1v1h-1z" /><path fill="#e326cf" d="M38 0h1v1h-1z" /><path fill="#c123e3" d="M61 0h1v1h-1z" /><path fill="#c023e3" d="M62 0h1v1h-1z" /><path fill="#e525c8" d="M35 1h1v1h-1z" /><path fill="#f32cd2" d="M36 1h1v1h-1z" /><path fill="#fc32d8" d="M37 1h1v1h-1zM35 2h1v1h-1z" /><path fill="#da2ee0" d="M62 1h1v1h-1z" /><path fill="#d42be1" d="M63 1h1v1h-1z" /><path fill="#bf24e7" d="M64 1h1v1h-1z" /><path fill="#ea23c4" d="M33 2h1v1h-1z" /><path fill="#f72ed2" d="M34 2h1v1h-1z" /><path fill="#fc32d7" d="M36 2h1v1h-1zM35 3h1v1h-1zM34 4h1v1h-1z" /><path fill="#f02bd1" d="M37 2h1v1h-1z" /><path fill="#c826e3" d="M62 2h1v1h-1z" /><path fill="#d92fe2" d="M63 2h1v1h-1z" /><path fill="#d82de2" d="M64 2h1v1h-1z" /><path fill="#d32be1" d="M65 2h1v1h-1z" /><path fill="#bf23e5" d="M66 2h1v1h-1z" /><path fill="#ee25be" d="M31 3h1v1h-1z" /><path fill="#fa2fd3" d="M32 3h1v1h-1z" /><path fill="#fd31d8" d="M33 3h1v1h-1z" /><path fill="#fd32d7" d="M34 3h1v1h-1z" /><path fill="#fb31d6" d="M36 3h1v1h-1zM35 5h1v1h-1z" /><path fill="#df25c8" d="M37 3h1v1h-1z" /><path fill="#d82ee0" d="M63 3h1v1h-1z" /><path fill="#d72de2" d="M64 3h1v1h-1z" /><path fill="#d52de3" d="M65 3h1v1h-1z" /><path fill="#d42ce2" d="M66 3h1v1h-1z" /><path fill="#d02be2" d="M67 3h1v1h-1z" /><path fill="#be24e5" d="M68 3h1v1h-1z" /><path fill="#f324be" d="M29 4h1v1h-1z" /><path fill="#fc2fd5" d="M30 4h1v1h-1z" /><path fill="#fe31d7" d="M31 4h1v1h-1zM30 5h1v1h-1zM29 6h2v1h-2z" /><path fill="#fd31d7" d="M32 4h2v1h-2z" /><path fill="#fb31d7" d="M35 4h1v1h-1z" /><path fill="#f32cd0" d="M36 4h1v1h-1z" /><path fill="#c827e2" d="M63 4h1v1h-1z" /><path fill="#d62ee1" d="M64 4h1v1h-1z" /><path fill="#d42de2" d="M65 4h1v1h-1z" /><path fill="#d22ce3" d="M66 4h1v1h-1z" /><path fill="#d12ce3" d="M67 4h1v1h-1zM65 7h1v1h-1z" /><path fill="#cf2be3" d="M68 4h1v1h-1z" /><path fill="#cc2ae4" d="M69 4h1v1h-1zM68 7h1v1h-1z" /><path fill="#bd25e7" d="M70 4h1v1h-1z" /><path fill="#f626be" d="M27 5h1v1h-1z" /><path fill="#fe30d8" d="M28 5h1v1h-1z" /><path fill="#fe31d8" d="M29 5h1v1h-1zM28 6h1v1h-1z" /><path fill="#fe31d6" d="M31 5h1v1h-1zM28 7h2v1h-2zM27 8h1v1h-1zM26 9h1v1h-1zM25 10h1v1h-1z" /><path fill="#fd31d6" d="M32 5h1v1h-1zM31 6h1v1h-1z" /><path fill="#fc32d6" d="M33 5h1v1h-1z" /><path fill="#fc31d6" d="M34 5h1v1h-1z" /><path fill="#e623c4" d="M36 5h1v1h-1z" /><path fill="#d52de2" d="M64 5h1v1h-1z" /><path fill="#d32de2" d="M65 5h1v1h-1z" /><path fill="#d22ce2" d="M66 5h1v1h-1z" /><path fill="#cf2be4" d="M67 5h1v1h-1z" /><path fill="#ce2be4" d="M68 5h1v1h-1z" /><path fill="#cc2be4" d="M69 5h1v1h-1z" /><path fill="#ca2ae4" d="M70 5h1v1h-1zM69 7h1v1h-1z" /><path fill="#c829e5" d="M71 5h1v1h-1z" /><path fill="#bb24e8" d="M72 5h1v1h-1z" /><path fill="#f927bf" d="M25 6h1v1h-1z" /><path fill="#ff31d8" d="M26 6h2v1h-2zM26 7h1v1h-1zM25 8h1v1h-1zM23 9h2v1h-2zM22 10h1v1h-1zM21 11h1v1h-1zM11 13h1v1h-1zM19 13h1v1h-1zM18 14h1v1h-1zM17 15h1v1h-1zM16 16h1v1h-1zM14 17h1v1h-1zM13 18h1v1h-1zM11 20h1v1h-1zM10 21h1v1h-1zM9 22h1v1h-1zM8 23h1v1h-1zM6 24h1v1h-1zM5 25h1v1h-1z" /><path fill="#fd32d5" d="M32 6h1v1h-1z" /><path fill="#fc31d5" d="M33 6h1v1h-1zM32 7h1v1h-1z" /><path fill="#fb31d5" d="M34 6h1v1h-1z" /><path fill="#f52dd1" d="M35 6h1v1h-1z" /><path fill="#c828e3" d="M64 6h1v1h-1z" /><path fill="#d22de3" d="M65 6h1v1h-1z" /><path fill="#d02ce3" d="M66 6h1v1h-1z" /><path fill="#cf2ce3" d="M67 6h1v1h-1z" /><path fill="#cd2be3" d="M68 6h1v1h-1z" /><path fill="#cb2ae5" d="M69 6h1v1h-1z" /><path fill="#c92ae5" d="M70 6h1v1h-1z" /><path fill="#c729e5" d="M71 6h1v1h-1zM70 8h1v1h-1z" /><path fill="#c528e6" d="M72 6h1v1h-1z" /><path fill="#c328e6" d="M73 6h1v1h-1zM70 12h1v1h-1z" /><path fill="#b823e7" d="M74 6h1v1h-1z" /><path fill="#f71fa5" d="M22 7h1v1h-1z" /><path fill="#fb29c2" d="M23 7h1v1h-1z" /><path fill="#ff31d9" d="M24 7h2v1h-2zM22 8h3v1h-3zM20 9h3v1h-3zM18 10h4v1h-4zM16 11h5v1h-5zM14 12h7v1h-7zM12 13h7v1h-7zM9 14h9v1h-9zM7 15h10v1h-10zM5 16h11v1h-11zM4 17h10v1h-10zM4 18h9v1h-9zM4 19h9v1h-9zM4 20h7v1h-7zM4 21h6v1h-6zM4 22h5v1h-5zM4 23h4v1h-4zM4 24h2v1h-2zM4 25h1v1h-1zM4 26h1v1h-1z" /><path fill="#ff31d7" d="M27 7h1v1h-1zM26 8h1v1h-1zM25 9h1v1h-1zM23 10h2v1h-2zM22 11h1v1h-1zM21 12h1v1h-1zM20 13h1v1h-1zM18 15h1v1h-1zM17 16h1v1h-1zM15 17h2v1h-2zM14 18h1v1h-1zM13 19h1v1h-1zM12 20h1v1h-1zM7 24h1v1h-1zM6 25h1v1h-1zM5 26h1v1h-1zM4 27h1v1h-1z" /><path fill="#fd31d5" d="M30 7h2v1h-2zM29 8h1v1h-1z" /><path fill="#fc31d4" d="M33 7h1v1h-1zM32 8h1v1h-1z" /><path fill="#fb31d4" d="M34 7h1v1h-1zM33 8h1v1h-1z" /><path fill="#e924bf" d="M35 7h1v1h-1z" /><path fill="#cf2ce4" d="M66 7h1v1h-1z" /><path fill="#cd2ce4" d="M67 7h1v1h-1z" /><path fill="#c82ae5" d="M70 7h1v1h-1zM68 10h1v1h-1zM68 11h1v1h-1z" /><path fill="#c629e6" d="M71 7h1v1h-1zM70 9h1v1h-1z" /><path fill="#c428e6" d="M72 7h1v1h-1z" /><path fill="#c227e6" d="M73 7h1v1h-1zM71 11h1v1h-1z" /><path fill="#c026e7" d="M74 7h1v1h-1z" /><path fill="#be26e8" d="M75 7h1v1h-1z" /><path fill="#b622e7" d="M76 7h1v1h-1z" /><path fill="#a81ceb" d="M77 7h1v1h-1z" /><path fill="#fa21a6" d="M20 8h1v1h-1z" /><path fill="#fc2bc6" d="M21 8h1v1h-1z" /><path fill="#fe31d5" d="M28 8h1v1h-1zM27 9h1v1h-1zM26 10h1v1h-1zM24 11h2v1h-2z" /><path fill="#fd30d5" d="M30 8h1v1h-1z" /><path fill="#fd31d4" d="M31 8h1v1h-1zM30 9h1v1h-1z" /><path fill="#f82ed0" d="M34 8h1v1h-1z" /><path fill="#c729e3" d="M65 8h1v1h-1z" /><path fill="#ce2ce3" d="M66 8h1v1h-1z" /><path fill="#cc2be3" d="M67 8h1v1h-1z" /><path fill="#ca2be5" d="M68 8h1v1h-1z" /><path fill="#c929e4" d="M69 8h1v1h-1z" /><path fill="#c529e5" d="M71 8h1v1h-1zM70 10h1v1h-1z" /><path fill="#c327e6" d="M72 8h1v1h-1z" /><path fill="#c127e7" d="M73 8h1v1h-1z" /><path fill="#bf27e7" d="M74 8h1v1h-1zM72 12h1v1h-1z" /><path fill="#be25e7" d="M75 8h1v1h-1z" /><path fill="#bb25e8" d="M76 8h1v1h-1zM75 10h1v1h-1z" /><path fill="#ba24e8" d="M77 8h1v1h-1zM76 9h1v1h-1z" /><path fill="#b422e8" d="M78 8h1v1h-1z" /><path fill="#a71cea" d="M79 8h1v1h-1z" /><path fill="#fa21a7" d="M18 9h1v1h-1z" /><path fill="#fc2cca" d="M19 9h1v1h-1z" /><path fill="#fe31d4" d="M28 9h1v1h-1zM27 10h1v1h-1zM26 11h1v1h-1zM24 12h1v1h-1zM23 13h1v1h-1zM22 14h1v1h-1zM21 15h1v1h-1zM6 27h1v1h-1zM5 28h1v1h-1z" /><path fill="#fd30d3" d="M29 9h1v1h-1z" /><path fill="#fc31d3" d="M31 9h2v1h-2z" /><path fill="#fb31d3" d="M33 9h1v1h-1z" /><path fill="#ed25bf" d="M34 9h1v1h-1z" /><path fill="#b823e6" d="M65 9h1v1h-1z" /><path fill="#cd2be4" d="M66 9h1v1h-1z" /><path fill="#cb2be4" d="M67 9h1v1h-1z" /><path fill="#c92ae4" d="M68 9h1v1h-1z" /><path fill="#c829e4" d="M69 9h1v1h-1z" /><path fill="#c428e5" d="M71 9h1v1h-1z" /><path fill="#c228e6" d="M72 9h1v1h-1zM71 10h1v1h-1zM70 13h1v1h-1z" /><path fill="#c027e7" d="M73 9h1v1h-1z" /><path fill="#be26e7" d="M74 9h1v1h-1z" /><path fill="#bc25e8" d="M75 9h1v1h-1z" /><path fill="#b824e9" d="M77 9h1v1h-1z" /><path fill="#b724e9" d="M78 9h1v1h-1zM75 14h1v1h-1z" /><path fill="#b623e9" d="M79 9h1v1h-1zM78 10h1v1h-1zM77 11h1v1h-1zM76 13h1v1h-1z" /><path fill="#b121e9" d="M80 9h1v1h-1z" /><path fill="#a61bec" d="M81 9h1v1h-1z" /><path fill="#fb23ab" d="M16 10h1v1h-1z" /><path fill="#fd2ecf" d="M17 10h1v1h-1z" /><path fill="#fe30d3" d="M28 10h1v1h-1zM27 11h1v1h-1zM26 12h1v1h-1zM22 15h1v1h-1z" /><path fill="#fd31d3" d="M29 10h1v1h-1z" /><path fill="#fd31d2" d="M30 10h1v1h-1zM28 11h1v1h-1z" /><path fill="#fc31d2" d="M31 10h1v1h-1z" /><path fill="#fb31d2" d="M32 10h1v1h-1z" /><path fill="#f930d0" d="M33 10h1v1h-1z" /><path fill="#c729e4" d="M66 10h1v1h-1z" /><path fill="#ca2ae5" d="M67 10h1v1h-1z" /><path fill="#c72ae5" d="M69 10h1v1h-1z" /><path fill="#c128e6" d="M72 10h1v1h-1zM69 15h1v1h-1z" /><path fill="#bf26e7" d="M73 10h1v1h-1z" /><path fill="#bd26e6" d="M74 10h1v1h-1z" /><path fill="#b924e8" d="M76 10h1v1h-1zM75 12h1v1h-1z" /><path fill="#b723e9" d="M77 10h1v1h-1z" /><path fill="#b423ea" d="M79 10h1v1h-1z" /><path fill="#b322ea" d="M80 10h1v1h-1z" /><path fill="#b222ea" d="M81 10h1v1h-1zM80 11h1v1h-1zM78 12h1v1h-1zM78 13h1v1h-1zM77 15h1v1h-1z" /><path fill="#af20e9" d="M82 10h1v1h-1z" /><path fill="#a51cec" d="M83 10h1v1h-1z" /><path fill="#fb24ae" d="M14 11h1v1h-1z" /><path fill="#fe2fd3" d="M15 11h1v1h-1zM3 17h1v1h-1z" /><path fill="#ff31d6" d="M23 11h1v1h-1zM22 12h1v1h-1zM21 13h1v1h-1zM19 14h1v1h-1zM15 18h1v1h-1zM14 19h1v1h-1zM13 20h1v1h-1zM11 21h1v1h-1zM10 22h1v1h-1zM9 23h1v1h-1zM8 24h1v1h-1zM7 25h1v1h-1zM6 26h1v1h-1zM5 27h1v1h-1zM4 28h1v1h-1z" /><path fill="#fd31d1" d="M29 11h1v1h-1zM28 12h2v1h-2zM27 13h1v1h-1z" /><path fill="#fc31d1" d="M30 11h1v1h-1z" /><path fill="#fc31d0" d="M31 11h1v1h-1zM30 12h1v1h-1z" /><path fill="#fb31d1" d="M32 11h1v1h-1z" /><path fill="#f126bc" d="M33 11h1v1h-1z" /><path fill="#b923e6" d="M66 11h1v1h-1z" /><path fill="#c92be4" d="M67 11h1v1h-1z" /><path fill="#c529e6" d="M69 11h1v1h-1z" /><path fill="#c429e6" d="M70 11h1v1h-1z" /><path fill="#c027e6" d="M72 11h1v1h-1zM70 14h1v1h-1z" /><path fill="#be27e7" d="M73 11h1v1h-1zM70 17h1v1h-1z" /><path fill="#bc25e7" d="M74 11h1v1h-1z" /><path fill="#ba25e8" d="M75 11h1v1h-1zM74 13h1v1h-1z" /><path fill="#b823e8" d="M76 11h1v1h-1z" /><path fill="#b423e9" d="M78 11h1v1h-1z" /><path fill="#b322e9" d="M79 11h1v1h-1zM77 14h1v1h-1z" /><path fill="#b021eb" d="M81 11h1v1h-1z" /><path fill="#af21eb" d="M82 11h1v1h-1z" /><path fill="#ae20ea" d="M83 11h1v1h-1zM78 17h1v1h-1z" /><path fill="#ab20e9" d="M84 11h1v1h-1zM75 27h1v1h-1z" /><path fill="#a41bec" d="M85 11h1v1h-1z" /><path fill="#fc26b4" d="M12 12h1v1h-1z" /><path fill="#ff30d7" d="M13 12h1v1h-1z" /><path fill="#ff31d5" d="M23 12h1v1h-1zM22 13h1v1h-1zM20 14h2v1h-2zM19 15h1v1h-1zM18 16h1v1h-1zM17 17h1v1h-1zM14 20h1v1h-1zM12 21h2v1h-2zM11 22h1v1h-1zM10 23h1v1h-1zM9 24h1v1h-1z" /><path fill="#fe31d3" d="M25 12h1v1h-1zM23 14h1v1h-1zM20 16h1v1h-1zM19 17h1v1h-1zM18 18h1v1h-1zM8 26h1v1h-1zM7 27h1v1h-1zM6 28h1v1h-1zM4 29h2v1h-2z" /><path fill="#fd30d2" d="M27 12h1v1h-1z" /><path fill="#fc31cf" d="M31 12h1v1h-1zM30 13h1v1h-1z" /><path fill="#fb31ce" d="M32 12h1v1h-1zM31 13h1v1h-1z" /><path fill="#c52ae4" d="M67 12h1v1h-1zM69 12h1v1h-1z" /><path fill="#c629e5" d="M68 12h1v1h-1z" /><path fill="#c128e7" d="M71 12h1v1h-1z" /><path fill="#bd26e7" d="M73 12h1v1h-1zM71 16h1v1h-1z" /><path fill="#bb25e7" d="M74 12h1v1h-1zM73 14h1v1h-1z" /><path fill="#b724e8" d="M76 12h1v1h-1z" /><path fill="#b523e8" d="M77 12h1v1h-1zM70 19h1v1h-1z" /><path fill="#b122ea" d="M79 12h1v1h-1z" /><path fill="#b021ea" d="M80 12h1v1h-1zM79 13h1v1h-1zM77 16h1v1h-1z" /><path fill="#af21ea" d="M81 12h1v1h-1zM78 15h1v1h-1zM76 19h1v1h-1z" /><path fill="#ad20eb" d="M82 12h1v1h-1zM79 15h1v1h-1zM77 20h1v1h-1z" /><path fill="#ac20eb" d="M83 12h1v1h-1zM78 18h1v1h-1z" /><path fill="#ab1feb" d="M84 12h1v1h-1zM80 15h1v1h-1z" /><path fill="#aa1feb" d="M85 12h1v1h-1zM82 14h1v1h-1zM81 15h1v1h-1zM80 16h1v1h-1zM79 18h1v1h-1zM77 23h1v1h-1z" /><path fill="#a81eec" d="M86 12h1v1h-1zM85 13h1v1h-1z" /><path fill="#a21beb" d="M87 12h1v1h-1z" /><path fill="#fc27b8" d="M10 13h1v1h-1z" /><path fill="#fe31d2" d="M24 13h1v1h-1zM17 19h1v1h-1zM16 20h1v1h-1zM15 21h1v1h-1zM9 26h1v1h-1zM4 30h1v1h-1z" /><path fill="#fe30d1" d="M25 13h2v1h-2zM24 14h1v1h-1zM23 15h1v1h-1zM22 16h1v1h-1zM20 17h1v1h-1zM13 23h1v1h-1zM5 30h1v1h-1z" /><path fill="#fd31d0" d="M28 13h1v1h-1z" /><path fill="#fd31cf" d="M29 13h1v1h-1zM27 14h2v1h-2z" /><path fill="#f427bc" d="M32 13h1v1h-1z" /><path fill="#b821e5" d="M67 13h1v1h-1z" /><path fill="#c52ae5" d="M68 13h1v1h-1z" /><path fill="#c329e5" d="M69 13h1v1h-1zM69 14h1v1h-1z" /><path fill="#c028e5" d="M71 13h1v1h-1z" /><path fill="#bd26e8" d="M72 13h1v1h-1z" /><path fill="#bc26e8" d="M73 13h1v1h-1z" /><path fill="#b825e8" d="M75 13h1v1h-1zM73 17h1v1h-1z" /><path fill="#b323e9" d="M77 13h1v1h-1zM76 15h1v1h-1zM76 16h1v1h-1zM75 18h1v1h-1zM74 19h1v1h-1z" /><path fill="#ae21eb" d="M80 13h1v1h-1zM79 14h1v1h-1z" /><path fill="#ad20ea" d="M81 13h1v1h-1zM80 14h1v1h-1z" /><path fill="#ac20ea" d="M82 13h1v1h-1zM81 14h1v1h-1zM79 16h1v1h-1z" /><path fill="#ab1fea" d="M83 13h1v1h-1z" /><path fill="#a91feb" d="M84 13h1v1h-1zM83 14h1v1h-1zM82 15h1v1h-1zM79 19h1v1h-1zM78 21h1v1h-1z" /><path fill="#a71eec" d="M86 13h1v1h-1zM83 15h1v1h-1zM82 16h1v1h-1z" /><path fill="#a61dec" d="M87 13h1v1h-1zM84 15h1v1h-1zM83 16h1v1h-1zM81 18h1v1h-1z" /><path fill="#a41ded" d="M88 13h1v1h-1zM83 17h1v1h-1z" /><path fill="#9e1aed" d="M89 13h1v1h-1zM89 16h1v1h-1zM88 17h1v1h-1zM87 18h1v1h-1zM86 19h1v1h-1zM85 20h1v1h-1zM84 21h1v1h-1zM82 24h1v1h-1z" /><path fill="#fb219d" d="M7 14h1v1h-1z" /><path fill="#fc2abe" d="M8 14h1v1h-1z" /><path fill="#fe30d0" d="M25 14h1v1h-1zM24 15h1v1h-1zM7 29h1v1h-1zM6 30h1v1h-1zM4 31h1v1h-1z" /><path fill="#fe31cf" d="M26 14h1v1h-1zM25 15h1v1h-1zM24 16h1v1h-1zM22 17h2v1h-2zM21 18h1v1h-1zM20 19h1v1h-1zM19 20h1v1h-1zM16 22h1v1h-1zM14 24h1v1h-1zM13 25h1v1h-1zM12 26h1v1h-1zM10 27h2v1h-2zM9 28h1v1h-1zM7 30h1v1h-1z" /><path fill="#fc31ce" d="M29 14h2v1h-2z" /><path fill="#fb30ce" d="M31 14h1v1h-1z" /><path fill="#c328e4" d="M68 14h1v1h-1z" /><path fill="#be27e6" d="M71 14h1v1h-1zM71 15h1v1h-1z" /><path fill="#bd27e6" d="M72 14h1v1h-1z" /><path fill="#b925e8" d="M74 14h1v1h-1zM73 16h1v1h-1z" /><path fill="#b523e9" d="M76 14h1v1h-1zM75 16h1v1h-1z" /><path fill="#b122eb" d="M78 14h1v1h-1z" /><path fill="#a81eeb" d="M84 14h1v1h-1zM79 20h1v1h-1zM78 22h1v1h-1z" /><path fill="#a71eeb" d="M85 14h1v1h-1zM81 17h1v1h-1zM80 19h1v1h-1zM78 24h1v1h-1zM76 29h1v1h-1z" /><path fill="#a51dec" d="M86 14h1v1h-1zM85 15h1v1h-1zM84 16h1v1h-1zM81 19h1v1h-1zM80 21h1v1h-1z" /><path fill="#a41dec" d="M87 14h1v1h-1zM82 18h1v1h-1z" /><path fill="#a31cec" d="M88 14h1v1h-1zM83 18h1v1h-1z" /><path fill="#a11bee" d="M89 14h1v1h-1z" /><path fill="#a01bee" d="M90 14h1v1h-1zM82 21h1v1h-1z" /><path fill="#9c18ec" d="M91 14h1v1h-1z" /><path fill="#9415ef" d="M92 14h1v1h-1zM95 18h1v1h-1zM87 25h1v1h-1zM84 29h1v1h-1z" /><path fill="#fb21a0" d="M5 15h1v1h-1z" /><path fill="#fd2bc3" d="M6 15h1v1h-1z" /><path fill="#ff31d4" d="M20 15h1v1h-1zM19 16h1v1h-1zM18 17h1v1h-1zM16 18h2v1h-2zM15 19h1v1h-1zM12 22h2v1h-2zM11 23h1v1h-1zM10 24h1v1h-1zM8 25h2v1h-2zM7 26h1v1h-1z" /><path fill="#fd31ce" d="M26 15h2v1h-2z" /><path fill="#fd31cd" d="M28 15h1v1h-1zM26 16h1v1h-1z" /><path fill="#fc31cd" d="M29 15h1v1h-1z" /><path fill="#fc30cd" d="M30 15h1v1h-1z" /><path fill="#f628bb" d="M31 15h1v1h-1z" /><path fill="#b723e6" d="M68 15h1v1h-1z" /><path fill="#c028e6" d="M70 15h1v1h-1z" /><path fill="#bc26e7" d="M72 15h1v1h-1z" /><path fill="#ba26e7" d="M73 15h1v1h-1z" /><path fill="#b825e7" d="M74 15h1v1h-1zM72 19h1v1h-1z" /><path fill="#b624e8" d="M75 15h1v1h-1zM74 17h1v1h-1z" /><path fill="#a41cec" d="M86 15h1v1h-1zM80 22h1v1h-1z" /><path fill="#a21ced" d="M87 15h1v1h-1zM86 16h1v1h-1zM85 17h1v1h-1zM84 18h1v1h-1zM83 19h1v1h-1zM82 20h1v1h-1zM81 21h1v1h-1z" /><path fill="#a11bed" d="M88 15h1v1h-1zM87 16h1v1h-1zM86 17h1v1h-1zM81 23h1v1h-1z" /><path fill="#a01bed" d="M89 15h1v1h-1zM88 16h1v1h-1zM85 18h1v1h-1zM84 19h1v1h-1zM83 20h1v1h-1zM81 24h1v1h-1z" /><path fill="#9f1aec" d="M90 15h1v1h-1z" /><path fill="#9d1aed" d="M91 15h1v1h-1zM90 16h1v1h-1zM89 17h1v1h-1zM83 22h1v1h-1zM81 27h1v1h-1zM80 30h1v1h-1z" /><path fill="#9c19ed" d="M92 15h1v1h-1zM91 16h1v1h-1zM87 19h1v1h-1zM86 20h1v1h-1zM83 23h1v1h-1zM82 25h1v1h-1z" /><path fill="#9918ed" d="M93 15h1v1h-1zM82 29h1v1h-1zM80 34h1v1h-1z" /><path fill="#9414ef" d="M94 15h1v1h-1z" /><path fill="#fa21a2" d="M3 16h1v1h-1z" /><path fill="#fd2cc9" d="M4 16h1v1h-1z" /><path fill="#fe30d2" d="M21 16h1v1h-1zM19 18h1v1h-1zM18 19h1v1h-1zM14 22h1v1h-1zM6 29h1v1h-1z" /><path fill="#fe31d0" d="M23 16h1v1h-1zM21 17h1v1h-1zM20 18h1v1h-1zM19 19h1v1h-1zM18 20h1v1h-1zM17 21h1v1h-1zM15 23h1v1h-1zM13 24h1v1h-1zM12 25h1v1h-1zM11 26h1v1h-1zM9 27h1v1h-1zM8 28h1v1h-1z" /><path fill="#fe31ce" d="M25 16h1v1h-1zM24 17h1v1h-1zM22 18h1v1h-1zM21 19h1v1h-1zM20 20h1v1h-1zM18 21h1v1h-1zM17 22h1v1h-1zM16 23h1v1h-1zM15 24h1v1h-1zM9 29h1v1h-1zM8 30h1v1h-1z" /><path fill="#fd31cc" d="M27 16h2v1h-2zM26 17h1v1h-1z" /><path fill="#fc30cb" d="M29 16h2v1h-2zM28 17h1v1h-1z" /><path fill="#bf28e5" d="M69 16h1v1h-1z" /><path fill="#be28e7" d="M70 16h1v1h-1z" /><path fill="#bb27e7" d="M72 16h1v1h-1z" /><path fill="#b625e8" d="M74 16h1v1h-1zM73 18h1v1h-1zM72 21h1v1h-1z" /><path fill="#ae21ea" d="M78 16h1v1h-1zM77 18h1v1h-1zM77 19h1v1h-1zM75 23h1v1h-1z" /><path fill="#a91eec" d="M81 16h1v1h-1z" /><path fill="#a31ced" d="M85 16h1v1h-1zM84 17h1v1h-1zM82 19h1v1h-1z" /><path fill="#9b19ed" d="M92 16h1v1h-1zM88 19h1v1h-1zM87 20h1v1h-1zM84 23h1v1h-1zM82 27h1v1h-1zM81 29h1v1h-1zM80 32h1v1h-1z" /><path fill="#9918ee" d="M93 16h1v1h-1zM92 17h1v1h-1zM91 18h1v1h-1zM85 23h1v1h-1zM84 24h1v1h-1zM83 26h1v1h-1z" /><path fill="#9817ee" d="M94 16h1v1h-1zM93 17h1v1h-1zM86 23h1v1h-1zM85 24h1v1h-1z" /><path fill="#9516ee" d="M95 16h1v1h-1zM84 28h1v1h-1zM82 34h1v1h-1z" /><path fill="#8f13ef" d="M96 16h1v1h-1zM95 21h1v1h-1zM94 22h1v1h-1zM92 24h1v1h-1zM91 25h1v1h-1zM87 28h1v1h-1zM86 29h1v1h-1z" /><path fill="#fe31cd" d="M25 17h1v1h-1zM23 18h2v1h-2zM22 19h1v1h-1zM21 20h1v1h-1zM19 21h2v1h-2zM18 22h1v1h-1zM17 23h1v1h-1zM16 24h1v1h-1zM14 25h1v1h-1zM13 26h1v1h-1zM12 27h1v1h-1zM10 28h1v1h-1zM6 32h1v1h-1z" /><path fill="#fd31cb" d="M27 17h1v1h-1zM7 32h2v1h-2z" /><path fill="#fc30ca" d="M29 17h1v1h-1z" /><path fill="#f82bbc" d="M30 17h1v1h-1z" /><path fill="#b724e7" d="M69 17h1v1h-1z" /><path fill="#bc27e7" d="M71 17h1v1h-1z" /><path fill="#ba26e8" d="M72 17h1v1h-1z" /><path fill="#b324e9" d="M75 17h1v1h-1z" /><path fill="#b222e9" d="M76 17h1v1h-1z" /><path fill="#af22e9" d="M77 17h1v1h-1z" /><path fill="#ab20eb" d="M79 17h1v1h-1zM78 19h1v1h-1z" /><path fill="#a91eeb" d="M80 17h1v1h-1z" /><path fill="#a61deb" d="M82 17h1v1h-1z" /><path fill="#9f1bed" d="M87 17h1v1h-1zM86 18h1v1h-1zM81 25h1v1h-1z" /><path fill="#9b19ee" d="M90 17h1v1h-1zM89 18h1v1h-1zM86 21h1v1h-1zM85 22h1v1h-1zM83 24h1v1h-1zM82 26h1v1h-1z" /><path fill="#9a18ee" d="M91 17h1v1h-1zM90 18h1v1h-1zM88 20h1v1h-1zM87 21h1v1h-1zM86 22h1v1h-1z" /><path fill="#9617ef" d="M94 17h1v1h-1zM93 18h1v1h-1zM92 19h1v1h-1zM86 24h1v1h-1zM85 25h1v1h-1z" /><path fill="#9516ef" d="M95 17h1v1h-1zM94 18h1v1h-1zM93 19h1v1h-1zM87 24h1v1h-1zM86 25h1v1h-1zM85 26h1v1h-1z" /><path fill="#9416ef" d="M96 17h1v1h-1zM92 20h1v1h-1zM91 21h1v1h-1zM90 22h1v1h-1zM88 24h1v1h-1z" /><path fill="#fd2dca" d="M3 18h1v1h-1z" /><path fill="#fe31cb" d="M25 18h1v1h-1zM23 19h1v1h-1zM19 23h1v1h-1zM15 26h1v1h-1zM14 27h1v1h-1zM13 28h1v1h-1zM11 29h2v1h-2zM10 30h1v1h-1zM9 31h1v1h-1z" /><path fill="#fd31ca" d="M26 18h1v1h-1zM25 19h1v1h-1zM7 33h1v1h-1zM6 34h1v1h-1z" /><path fill="#fd30ca" d="M27 18h1v1h-1z" /><path fill="#fd30c9" d="M28 18h1v1h-1zM26 19h1v1h-1zM23 21h1v1h-1zM22 22h1v1h-1zM5 35h1v1h-1z" /><path fill="#fc30c8" d="M29 18h1v1h-1zM28 19h1v1h-1z" /><path fill="#f420a6" d="M30 18h1v1h-1z" /><path fill="#bd28e6" d="M70 18h1v1h-1z" /><path fill="#bb26e7" d="M71 18h1v1h-1z" /><path fill="#b926e7" d="M72 18h1v1h-1zM71 20h1v1h-1z" /><path fill="#b524e9" d="M74 18h1v1h-1z" /><path fill="#b122e9" d="M76 18h1v1h-1zM75 20h1v1h-1z" /><path fill="#a71fec" d="M80 18h1v1h-1z" /><path fill="#9c1aee" d="M88 18h1v1h-1z" /><path fill="#9717ef" d="M92 18h1v1h-1zM91 19h1v1h-1zM89 21h1v1h-1zM88 22h1v1h-1zM84 25h1v1h-1z" /><path fill="#9215f0" d="M96 18h1v1h-1zM95 19h1v1h-1zM88 25h1v1h-1zM87 26h1v1h-1z" /><path fill="#fc2ac3" d="M3 19h1v1h-1z" /><path fill="#ff31d3" d="M16 19h1v1h-1zM15 20h1v1h-1zM14 21h1v1h-1z" /><path fill="#fe31ca" d="M24 19h1v1h-1zM23 20h1v1h-1zM22 21h1v1h-1zM20 22h2v1h-2zM18 24h1v1h-1zM17 25h1v1h-1zM16 26h1v1h-1zM11 30h1v1h-1z" /><path fill="#fd30c8" d="M27 19h1v1h-1zM25 20h2v1h-2zM24 21h1v1h-1zM23 22h1v1h-1zM22 23h1v1h-1zM5 36h1v1h-1z" /><path fill="#f92dbe" d="M29 19h1v1h-1z" /><path fill="#ba27e7" d="M71 19h1v1h-1z" /><path fill="#b625e7" d="M73 19h1v1h-1z" /><path fill="#b223ea" d="M75 19h1v1h-1z" /><path fill="#9f1bec" d="M85 19h1v1h-1zM82 22h1v1h-1zM80 27h1v1h-1zM80 28h1v1h-1zM78 33h1v1h-1z" /><path fill="#9a18ed" d="M89 19h1v1h-1zM82 28h1v1h-1z" /><path fill="#9818ee" d="M90 19h1v1h-1zM89 20h1v1h-1zM88 21h1v1h-1zM82 30h1v1h-1z" /><path fill="#9315f0" d="M94 19h1v1h-1zM91 22h1v1h-1zM90 23h1v1h-1zM86 26h1v1h-1z" /><path fill="#9013f0" d="M96 19h1v1h-1z" /><path fill="#fb28bb" d="M3 20h1v1h-1z" /><path fill="#fe31d1" d="M17 20h1v1h-1zM16 21h1v1h-1zM15 22h1v1h-1zM14 23h1v1h-1zM11 25h1v1h-1zM10 26h1v1h-1zM8 27h1v1h-1zM7 28h1v1h-1z" /><path fill="#fe31cc" d="M22 20h1v1h-1zM21 21h1v1h-1zM19 22h1v1h-1zM18 23h1v1h-1zM17 24h1v1h-1zM15 25h2v1h-2zM14 26h1v1h-1zM13 27h1v1h-1zM11 28h2v1h-2zM10 29h1v1h-1zM9 30h1v1h-1zM8 31h1v1h-1z" /><path fill="#fe31c9" d="M24 20h1v1h-1zM20 23h1v1h-1zM19 24h1v1h-1zM18 25h1v1h-1zM17 26h1v1h-1zM15 27h1v1h-1zM14 28h1v1h-1zM13 29h1v1h-1zM10 31h1v1h-1z" /><path fill="#fd30c7" d="M27 20h1v1h-1zM25 21h1v1h-1zM24 22h1v1h-1zM23 23h1v1h-1zM21 24h1v1h-1zM20 25h1v1h-1zM19 26h1v1h-1zM11 32h1v1h-1zM10 33h1v1h-1zM7 35h1v1h-1zM6 36h1v1h-1z" /><path fill="#fc30c6" d="M28 20h1v1h-1z" /><path fill="#f722a4" d="M29 20h1v1h-1z" /><path fill="#b725e8" d="M72 20h1v1h-1z" /><path fill="#b524e8" d="M73 20h1v1h-1zM72 22h1v1h-1z" /><path fill="#b324e8" d="M74 20h1v1h-1zM73 22h1v1h-1z" /><path fill="#ae22e9" d="M76 20h1v1h-1z" /><path fill="#aa20eb" d="M78 20h1v1h-1z" /><path fill="#a61eec" d="M80 20h1v1h-1zM78 25h1v1h-1z" /><path fill="#a31ded" d="M81 20h1v1h-1z" /><path fill="#9f1aed" d="M84 20h1v1h-1zM83 21h1v1h-1z" /><path fill="#9717ee" d="M90 20h1v1h-1zM87 23h1v1h-1zM83 28h1v1h-1z" /><path fill="#9616ef" d="M91 20h1v1h-1zM90 21h1v1h-1zM89 22h1v1h-1z" /><path fill="#9315ef" d="M93 20h1v1h-1zM92 21h1v1h-1zM89 24h1v1h-1zM85 27h1v1h-1z" /><path fill="#9215ef" d="M94 20h1v1h-1zM86 27h1v1h-1zM85 29h1v1h-1z" /><path fill="#9014f0" d="M95 20h1v1h-1zM87 27h1v1h-1zM85 30h1v1h-1z" /><path fill="#8e12ef" d="M96 20h1v1h-1z" /><path fill="#fa27b5" d="M3 21h1v1h-1z" /><path fill="#fd30c6" d="M26 21h2v1h-2zM25 22h1v1h-1zM24 23h1v1h-1zM22 24h1v1h-1zM20 26h1v1h-1zM12 32h1v1h-1zM9 34h1v1h-1zM8 35h1v1h-1z" /><path fill="#fb2ebe" d="M28 21h1v1h-1zM5 42h1v1h-1z" /><path fill="#b323e7" d="M71 21h1v1h-1z" /><path fill="#b425e8" d="M73 21h1v1h-1z" /><path fill="#b223e9" d="M74 21h1v1h-1zM73 23h1v1h-1z" /><path fill="#b023e9" d="M75 21h1v1h-1zM74 23h1v1h-1z" /><path fill="#ae21e9" d="M76 21h1v1h-1z" /><path fill="#ac20e9" d="M77 21h1v1h-1z" /><path fill="#a71feb" d="M79 21h1v1h-1zM78 23h1v1h-1z" /><path fill="#9c19ee" d="M85 21h1v1h-1zM84 22h1v1h-1z" /><path fill="#9115f0" d="M93 21h1v1h-1z" /><path fill="#9014ef" d="M94 21h1v1h-1zM93 22h1v1h-1zM92 23h1v1h-1zM91 24h1v1h-1zM90 25h1v1h-1zM89 26h1v1h-1zM86 28h1v1h-1zM85 31h1v1h-1zM84 33h1v1h-1zM84 34h1v1h-1z" /><path fill="#8c12ef" d="M96 21h1v1h-1zM86 32h1v1h-1zM85 36h1v1h-1z" /><path fill="#fa26ae" d="M3 22h1v1h-1z" /><path fill="#fd30c5" d="M26 22h1v1h-1zM23 24h2v1h-2zM21 25h2v1h-2zM19 27h1v1h-1zM11 33h1v1h-1zM10 34h1v1h-1zM7 36h1v1h-1z" /><path fill="#fd30c3" d="M27 22h1v1h-1zM26 23h1v1h-1zM25 24h1v1h-1zM23 25h2v1h-2zM22 26h1v1h-1zM21 27h1v1h-1zM18 29h1v1h-1zM17 30h1v1h-1zM13 33h1v1h-1zM12 34h1v1h-1zM10 35h2v1h-2zM9 36h1v1h-1z" /><path fill="#f923a4" d="M28 22h1v1h-1zM3 24h1v1h-1z" /><path fill="#b123e9" d="M74 22h1v1h-1z" /><path fill="#af22ea" d="M75 22h1v1h-1z" /><path fill="#ad22ea" d="M76 22h1v1h-1zM74 26h1v1h-1z" /><path fill="#ab20ea" d="M77 22h1v1h-1zM76 24h1v1h-1z" /><path fill="#a61eeb" d="M79 22h1v1h-1zM79 23h1v1h-1z" /><path fill="#a21cec" d="M81 22h1v1h-1zM80 24h1v1h-1z" /><path fill="#9817ef" d="M87 22h1v1h-1z" /><path fill="#9114f0" d="M92 22h1v1h-1zM91 23h1v1h-1zM90 24h1v1h-1zM89 25h1v1h-1zM88 26h1v1h-1z" /><path fill="#8d13f0" d="M95 22h1v1h-1zM94 23h1v1h-1zM87 29h1v1h-1zM86 31h1v1h-1z" /><path fill="#8a11f0" d="M96 22h1v1h-1zM91 28h1v1h-1zM90 29h1v1h-1z" /><path fill="#fa22aa" d="M3 23h1v1h-1z" /><path fill="#ff31d2" d="M12 23h1v1h-1zM11 24h1v1h-1z" /><path fill="#fe30c8" d="M21 23h1v1h-1zM20 24h1v1h-1zM19 25h1v1h-1zM18 26h1v1h-1zM15 28h1v1h-1zM14 29h1v1h-1zM13 30h1v1h-1z" /><path fill="#fd30c4" d="M25 23h1v1h-1zM21 26h1v1h-1zM20 27h1v1h-1zM19 28h1v1h-1zM17 29h1v1h-1zM12 33h1v1h-1zM11 34h1v1h-1zM9 35h1v1h-1zM8 36h1v1h-1z" /><path fill="#fb2dbe" d="M27 23h1v1h-1z" /><path fill="#b222e8" d="M72 23h1v1h-1z" /><path fill="#ac21e9" d="M76 23h1v1h-1zM75 25h1v1h-1z" /><path fill="#a31deb" d="M80 23h1v1h-1zM79 25h1v1h-1zM78 28h1v1h-1zM78 29h1v1h-1z" /><path fill="#9e1bed" d="M82 23h1v1h-1zM80 29h1v1h-1z" /><path fill="#9616ee" d="M88 23h1v1h-1zM83 30h1v1h-1z" /><path fill="#9416f0" d="M89 23h1v1h-1z" /><path fill="#8f13f0" d="M93 23h1v1h-1zM88 27h1v1h-1z" /><path fill="#8c12f0" d="M95 23h1v1h-1zM93 25h1v1h-1zM92 26h1v1h-1zM89 28h1v1h-1zM88 29h1v1h-1zM87 30h1v1h-1zM84 39h1v1h-1z" /><path fill="#8810f1" d="M96 23h1v1h-1zM95 26h1v1h-1zM94 27h1v1h-1zM91 29h1v1h-1zM90 30h1v1h-1zM89 31h1v1h-1zM88 32h1v1h-1zM87 34h1v1h-1z" /><path fill="#ff31d1" d="M12 24h1v1h-1z" /><path fill="#fd2fc2" d="M26 24h1v1h-1zM25 25h1v1h-1zM22 27h1v1h-1z" /><path fill="#f924a4" d="M27 24h1v1h-1z" /><path fill="#a91de8" d="M72 24h1v1h-1z" /><path fill="#b223e8" d="M73 24h1v1h-1z" /><path fill="#af22e8" d="M74 24h1v1h-1z" /><path fill="#ad21ea" d="M75 24h1v1h-1z" /><path fill="#a920eb" d="M77 24h1v1h-1z" /><path fill="#a41eec" d="M79 24h1v1h-1z" /><path fill="#8d12ef" d="M93 24h1v1h-1zM85 34h1v1h-1zM84 38h1v1h-1zM83 41h1v1h-1z" /><path fill="#8c12f1" d="M94 24h1v1h-1z" /><path fill="#8b11f1" d="M95 24h1v1h-1zM88 30h1v1h-1zM87 31h1v1h-1z" /><path fill="#860ef1" d="M96 24h1v1h-1z" /><path fill="#f922a2" d="M3 25h1v1h-1z" /><path fill="#fe32d3" d="M10 25h1v1h-1z" /><path fill="#fc2fbf" d="M26 25h1v1h-1zM11 37h1v1h-1zM10 38h1v1h-1z" /><path fill="#ae21e8" d="M73 25h1v1h-1z" /><path fill="#ae23e9" d="M74 25h1v1h-1z" /><path fill="#aa20ea" d="M76 25h1v1h-1zM75 28h1v1h-1z" /><path fill="#a81fea" d="M77 25h1v1h-1zM76 27h1v1h-1zM76 28h1v1h-1z" /><path fill="#a11ded" d="M80 25h1v1h-1z" /><path fill="#9a19ed" d="M83 25h1v1h-1zM80 33h1v1h-1z" /><path fill="#8d12f0" d="M92 25h1v1h-1zM91 26h1v1h-1zM90 27h1v1h-1z" /><path fill="#8b11f0" d="M94 25h1v1h-1zM93 26h1v1h-1zM90 28h1v1h-1zM89 29h1v1h-1zM85 37h1v1h-1z" /><path fill="#8910f0" d="M95 25h1v1h-1zM92 28h1v1h-1zM85 39h1v1h-1z" /><path fill="#860ef0" d="M96 25h1v1h-1z" /><path fill="#f81e9c" d="M3 26h1v1h-1z" /><path fill="#fd30c2" d="M23 26h1v1h-1zM21 28h1v1h-1zM20 29h1v1h-1zM13 34h1v1h-1zM10 36h1v1h-1z" /><path fill="#fd2fc1" d="M24 26h1v1h-1zM23 27h1v1h-1zM22 28h1v1h-1z" /><path fill="#fd30c1" d="M25 26h1v1h-1zM21 29h1v1h-1zM19 30h1v1h-1zM18 31h1v1h-1zM14 34h1v1h-1zM12 35h1v1h-1z" /><path fill="#fb26a7" d="M26 26h1v1h-1z" /><path fill="#a61fe7" d="M73 26h1v1h-1z" /><path fill="#ab21e9" d="M75 26h1v1h-1zM74 27h1v1h-1z" /><path fill="#a920ea" d="M76 26h1v1h-1z" /><path fill="#a71fea" d="M77 26h1v1h-1z" /><path fill="#a41eeb" d="M78 26h1v1h-1zM77 29h1v1h-1z" /><path fill="#a21ceb" d="M79 26h1v1h-1zM79 27h1v1h-1z" /><path fill="#a01cec" d="M80 26h1v1h-1zM79 28h1v1h-1z" /><path fill="#9e1aec" d="M81 26h1v1h-1z" /><path fill="#9718ef" d="M84 26h1v1h-1z" /><path fill="#8e13f0" d="M90 26h1v1h-1zM89 27h1v1h-1zM86 30h1v1h-1z" /><path fill="#8910f1" d="M94 26h1v1h-1zM93 27h1v1h-1zM88 31h1v1h-1z" /><path fill="#840cf0" d="M96 26h1v1h-1z" /><path fill="#fe31c8" d="M16 27h1v1h-1zM12 30h1v1h-1zM11 31h1v1h-1z" /><path fill="#fe30c7" d="M17 27h2v1h-2zM16 28h1v1h-1zM15 29h1v1h-1zM14 30h1v1h-1zM12 31h1v1h-1z" /><path fill="#fd30c0" d="M24 27h1v1h-1zM23 28h1v1h-1zM17 32h1v1h-1zM13 35h1v1h-1zM11 36h1v1h-1z" /><path fill="#fd30bf" d="M25 27h1v1h-1zM22 29h1v1h-1zM20 30h2v1h-2zM19 31h1v1h-1zM18 32h1v1h-1zM16 33h2v1h-2zM15 34h1v1h-1zM14 35h1v1h-1zM13 36h1v1h-1z" /><path fill="#d728cb" d="M50 27h1v1h-1z" /><path fill="#a61feb" d="M77 27h1v1h-1z" /><path fill="#a41deb" d="M78 27h1v1h-1z" /><path fill="#9817ed" d="M83 27h1v1h-1z" /><path fill="#9617ee" d="M84 27h1v1h-1zM83 29h1v1h-1z" /><path fill="#8b12f1" d="M91 27h1v1h-1z" /><path fill="#8a11f1" d="M92 27h1v1h-1zM86 35h1v1h-1z" /><path fill="#860ff2" d="M95 27h1v1h-1zM94 28h1v1h-1z" /><path fill="#fe30c6" d="M17 28h1v1h-1zM15 30h1v1h-1zM13 31h1v1h-1z" /><path fill="#fe30c4" d="M18 28h1v1h-1zM13 32h1v1h-1z" /><path fill="#fd31c3" d="M20 28h1v1h-1zM16 31h1v1h-1z" /><path fill="#fd30be" d="M24 28h1v1h-1zM23 29h1v1h-1zM22 30h1v1h-1zM20 31h1v1h-1zM19 32h1v1h-1zM18 33h1v1h-1zM16 34h1v1h-1zM15 35h1v1h-1zM14 36h1v1h-1zM12 37h1v1h-1z" /><path fill="#fa28a8" d="M25 28h1v1h-1z" /><path fill="#d726c4" d="M49 28h1v1h-1z" /><path fill="#dd2ccd" d="M50 28h1v1h-1z" /><path fill="#a51feb" d="M74 28h1v1h-1z" /><path fill="#a51eec" d="M77 28h1v1h-1z" /><path fill="#9c1aed" d="M81 28h1v1h-1z" /><path fill="#9216f0" d="M85 28h1v1h-1z" /><path fill="#8e13ef" d="M88 28h1v1h-1z" /><path fill="#870ff2" d="M93 28h1v1h-1zM90 31h1v1h-1z" /><path fill="#850ef2" d="M95 28h1v1h-1zM91 31h1v1h-1zM89 33h1v1h-1z" /><path fill="#fe30cf" d="M8 29h1v1h-1zM5 31h1v1h-1z" /><path fill="#fe30c5" d="M16 29h1v1h-1zM14 31h1v1h-1z" /><path fill="#fd31c2" d="M19 29h1v1h-1zM18 30h1v1h-1zM17 31h1v1h-1zM16 32h1v1h-1z" /><path fill="#fd30bd" d="M24 29h1v1h-1zM23 30h1v1h-1zM21 31h1v1h-1zM20 32h1v1h-1zM19 33h1v1h-1zM17 34h2v1h-2zM16 35h1v1h-1zM13 37h1v1h-1z" /><path fill="#df2bc8" d="M49 29h1v1h-1z" /><path fill="#df2dcc" d="M50 29h1v1h-1z" /><path fill="#d324ca" d="M51 29h1v1h-1z" /><path fill="#a720e9" d="M75 29h1v1h-1z" /><path fill="#a01bec" d="M79 29h1v1h-1z" /><path fill="#870ff1" d="M92 29h1v1h-1zM91 30h1v1h-1zM89 32h1v1h-1zM88 33h1v1h-1zM86 38h1v1h-1zM86 39h1v1h-1z" /><path fill="#860ff1" d="M93 29h1v1h-1zM87 36h1v1h-1zM87 37h1v1h-1z" /><path fill="#850ef1" d="M94 29h1v1h-1zM90 32h1v1h-1z" /><path fill="#830df2" d="M95 29h1v1h-1zM94 30h1v1h-1zM93 31h1v1h-1z" /><path fill="#fd31c4" d="M16 30h1v1h-1z" /><path fill="#fa29ac" d="M24 30h1v1h-1z" /><path fill="#e22dc7" d="M49 30h1v1h-1z" /><path fill="#df2cca" d="M50 30h1v1h-1z" /><path fill="#d929ca" d="M51 30h1v1h-1z" /><path fill="#a31eea" d="M75 30h1v1h-1z" /><path fill="#a61fea" d="M76 30h1v1h-1z" /><path fill="#a31eeb" d="M77 30h1v1h-1z" /><path fill="#a11ceb" d="M78 30h1v1h-1z" /><path fill="#9f1beb" d="M79 30h1v1h-1z" /><path fill="#9a1aee" d="M81 30h1v1h-1z" /><path fill="#9316ef" d="M84 30h1v1h-1z" /><path fill="#8911f1" d="M89 30h1v1h-1z" /><path fill="#850ff2" d="M92 30h1v1h-1z" /><path fill="#840ef2" d="M93 30h1v1h-1zM92 31h1v1h-1zM90 33h1v1h-1zM89 34h1v1h-1zM88 35h1v1h-1z" /><path fill="#820df1" d="M95 30h1v1h-1zM87 41h1v1h-1z" /><path fill="#fe30ce" d="M6 31h1v1h-1zM5 32h1v1h-1z" /><path fill="#fe30cd" d="M7 31h1v1h-1z" /><path fill="#fe31c4" d="M15 31h1v1h-1z" /><path fill="#fd30bc" d="M22 31h1v1h-1zM15 36h1v1h-1zM14 37h1v1h-1z" /><path fill="#fd2fbc" d="M23 31h1v1h-1zM21 32h1v1h-1zM20 33h1v1h-1z" /><path fill="#df29c0" d="M48 31h1v1h-1z" /><path fill="#e12bc5" d="M49 31h1v1h-1z" /><path fill="#e02cc7" d="M50 31h1v1h-1z" /><path fill="#dd2cca" d="M51 31h1v1h-1z" /><path fill="#a51ee9" d="M76 31h1v1h-1z" /><path fill="#a31dea" d="M77 31h1v1h-1z" /><path fill="#a01deb" d="M78 31h1v1h-1z" /><path fill="#9e1bec" d="M79 31h1v1h-1z" /><path fill="#9c1aec" d="M80 31h1v1h-1zM79 34h1v1h-1z" /><path fill="#9919ec" d="M81 31h1v1h-1z" /><path fill="#9717ed" d="M82 31h1v1h-1z" /><path fill="#9416ee" d="M83 31h1v1h-1zM83 32h1v1h-1z" /><path fill="#9215ee" d="M84 31h1v1h-1z" /><path fill="#810cf2" d="M94 31h1v1h-1zM93 32h1v1h-1zM91 34h1v1h-1zM90 35h1v1h-1zM88 39h1v1h-1z" /><path fill="#800cf2" d="M95 31h1v1h-1zM94 32h1v1h-1zM93 33h1v1h-1zM89 37h1v1h-1z" /><path fill="#fc2fc9" d="M4 32h1v1h-1z" /><path fill="#fd31c9" d="M9 32h1v1h-1z" /><path fill="#fd31c8" d="M10 32h1v1h-1zM8 33h2v1h-2zM7 34h1v1h-1zM6 35h1v1h-1z" /><path fill="#fe31c3" d="M14 32h1v1h-1z" /><path fill="#fe31c2" d="M15 32h1v1h-1zM14 33h1v1h-1z" /><path fill="#fc2fbb" d="M22 32h1v1h-1zM12 39h1v1h-1zM11 40h1v1h-1z" /><path fill="#fa2baf" d="M23 32h1v1h-1z" /><path fill="#e42bc2" d="M48 32h1v1h-1z" /><path fill="#e22cc4" d="M49 32h1v1h-1z" /><path fill="#df2bc6" d="M50 32h1v1h-1z" /><path fill="#dd2cc8" d="M51 32h1v1h-1z" /><path fill="#d426c8" d="M52 32h1v1h-1z" /><path fill="#a01dea" d="M76 32h1v1h-1z" /><path fill="#a21deb" d="M77 32h1v1h-1z" /><path fill="#a01ceb" d="M78 32h1v1h-1z" /><path fill="#9d1aec" d="M79 32h1v1h-1z" /><path fill="#9818ed" d="M81 32h1v1h-1z" /><path fill="#9718ed" d="M82 32h1v1h-1zM81 34h1v1h-1z" /><path fill="#9214ef" d="M84 32h1v1h-1z" /><path fill="#8f14ef" d="M85 32h1v1h-1z" /><path fill="#8a10f0" d="M87 32h1v1h-1z" /><path fill="#840ef1" d="M91 32h1v1h-1zM88 36h1v1h-1zM87 39h1v1h-1z" /><path fill="#820df2" d="M92 32h1v1h-1zM91 33h1v1h-1zM90 34h1v1h-1zM89 35h1v1h-1z" /><path fill="#7f0bf2" d="M95 32h1v1h-1zM89 39h1v1h-1z" /><path fill="#fb2cc1" d="M4 33h1v1h-1z" /><path fill="#fd30cc" d="M5 33h1v1h-1z" /><path fill="#fd30cb" d="M6 33h1v1h-1zM5 34h1v1h-1z" /><path fill="#fd31c0" d="M15 33h1v1h-1z" /><path fill="#fd2fbb" d="M21 33h1v1h-1zM19 34h1v1h-1z" /><path fill="#fc2fb9" d="M22 33h1v1h-1zM13 39h2v1h-2zM12 40h1v1h-1z" /><path fill="#f92497" d="M23 33h1v1h-1z" /><path fill="#e225b7" d="M47 33h1v1h-1z" /><path fill="#e42bc0" d="M48 33h1v1h-1z" /><path fill="#e22bc2" d="M49 33h1v1h-1z" /><path fill="#e02bc4" d="M50 33h1v1h-1z" /><path fill="#dd2ac7" d="M51 33h1v1h-1z" /><path fill="#da2ac9" d="M52 33h1v1h-1z" /><path fill="#a11cea" d="M77 33h1v1h-1z" /><path fill="#9c1bec" d="M79 33h1v1h-1z" /><path fill="#9819ec" d="M81 33h1v1h-1z" /><path fill="#9517ee" d="M82 33h1v1h-1z" /><path fill="#9315ee" d="M83 33h1v1h-1z" /><path fill="#8f13ee" d="M85 33h1v1h-1zM84 35h1v1h-1zM83 38h1v1h-1z" /><path fill="#8b12f0" d="M86 33h1v1h-1zM86 34h1v1h-1z" /><path fill="#8911f0" d="M87 33h1v1h-1z" /><path fill="#810cf1" d="M92 33h1v1h-1z" /><path fill="#7e0bf2" d="M94 33h1v1h-1zM93 34h1v1h-1zM92 35h1v1h-1zM91 36h1v1h-1zM89 40h1v1h-1zM88 43h1v1h-1z" /><path fill="#7d0af2" d="M95 33h1v1h-1zM94 34h1v1h-1zM92 36h1v1h-1zM91 37h1v1h-1zM89 41h1v1h-1z" /><path fill="#fa2ab8" d="M4 34h1v1h-1z" /><path fill="#fd31c7" d="M8 34h1v1h-1z" /><path fill="#fd2fba" d="M20 34h1v1h-1zM18 35h2v1h-2zM17 36h1v1h-1zM16 37h1v1h-1zM15 38h1v1h-1z" /><path fill="#fd2fb9" d="M21 34h1v1h-1zM20 35h1v1h-1zM18 36h1v1h-1zM17 37h1v1h-1zM16 38h1v1h-1z" /><path fill="#fb2db0" d="M22 34h1v1h-1z" /><path fill="#e528bb" d="M47 34h1v1h-1z" /><path fill="#e52abf" d="M48 34h1v1h-1z" /><path fill="#e22ac1" d="M49 34h1v1h-1z" /><path fill="#e02ac3" d="M50 34h1v1h-1z" /><path fill="#dd2bc5" d="M51 34h1v1h-1z" /><path fill="#db2ac8" d="M52 34h1v1h-1z" /><path fill="#d025c7" d="M53 34h1v1h-1z" /><path fill="#9e1aea" d="M77 34h1v1h-1z" /><path fill="#9e1ceb" d="M78 34h1v1h-1z" /><path fill="#9216ef" d="M83 34h1v1h-1z" /><path fill="#860ef2" d="M88 34h1v1h-1z" /><path fill="#800bf2" d="M92 34h1v1h-1zM91 35h1v1h-1z" /><path fill="#7b09f2" d="M95 34h1v1h-1zM90 40h1v1h-1zM90 41h1v1h-1zM89 44h1v1h-1zM88 47h1v1h-1z" /><path fill="#fa29b2" d="M4 35h1v1h-1z" /><path fill="#fd30bb" d="M17 35h1v1h-1zM16 36h1v1h-1zM15 37h1v1h-1z" /><path fill="#fd2fb8" d="M21 35h1v1h-1zM19 36h2v1h-2zM18 37h1v1h-1zM17 38h1v1h-1z" /><path fill="#fa2499" d="M22 35h1v1h-1z" /><path fill="#e420ae" d="M46 35h1v1h-1z" /><path fill="#e729ba" d="M47 35h1v1h-1z" /><path fill="#e52abc" d="M48 35h1v1h-1z" /><path fill="#e329be" d="M49 35h1v1h-1z" /><path fill="#e02ac1" d="M50 35h1v1h-1z" /><path fill="#de2ac4" d="M51 35h1v1h-1z" /><path fill="#db2ac6" d="M52 35h1v1h-1z" /><path fill="#d627c7" d="M53 35h1v1h-1z" /><path fill="#9d1beb" d="M78 35h1v1h-1z" /><path fill="#9b19ec" d="M79 35h1v1h-1z" /><path fill="#9918eb" d="M80 35h1v1h-1z" /><path fill="#9617ed" d="M81 35h1v1h-1zM80 38h1v1h-1z" /><path fill="#9416ed" d="M82 35h1v1h-1zM82 36h1v1h-1zM81 38h1v1h-1z" /><path fill="#9115ee" d="M83 35h1v1h-1z" /><path fill="#8c11f0" d="M85 35h1v1h-1z" /><path fill="#8710f1" d="M87 35h1v1h-1z" /><path fill="#7d0af3" d="M93 35h1v1h-1zM90 38h1v1h-1z" /><path fill="#7c09f3" d="M94 35h1v1h-1zM93 36h1v1h-1z" /><path fill="#7a07f2" d="M95 35h1v1h-1z" /><path fill="#f827ab" d="M4 36h1v1h-1z" /><path fill="#fd2fc0" d="M12 36h1v1h-1z" /><path fill="#fb2db2" d="M21 36h1v1h-1z" /><path fill="#e826b1" d="M46 36h1v1h-1z" /><path fill="#e829b8" d="M47 36h1v1h-1z" /><path fill="#e529ba" d="M48 36h1v1h-1z" /><path fill="#e329bc" d="M49 36h1v1h-1z" /><path fill="#e129bf" d="M50 36h1v1h-1z" /><path fill="#de29c1" d="M51 36h1v1h-1z" /><path fill="#db29c5" d="M52 36h1v1h-1z" /><path fill="#d92ac7" d="M53 36h1v1h-1z" /><path fill="#9b19e9" d="M78 36h1v1h-1z" /><path fill="#9a1aec" d="M79 36h1v1h-1z" /><path fill="#9818ec" d="M80 36h1v1h-1z" /><path fill="#9517ed" d="M81 36h1v1h-1zM81 37h1v1h-1z" /><path fill="#9014ee" d="M83 36h1v1h-1zM83 37h1v1h-1z" /><path fill="#8e13ee" d="M84 36h1v1h-1z" /><path fill="#8910ef" d="M86 36h1v1h-1zM84 43h1v1h-1z" /><path fill="#820cf1" d="M89 36h1v1h-1z" /><path fill="#800bf1" d="M90 36h1v1h-1zM89 38h1v1h-1z" /><path fill="#7a08f4" d="M94 36h1v1h-1z" /><path fill="#7808f5" d="M95 36h1v1h-1z" /><path fill="#f925a4" d="M4 37h1v1h-1z" /><path fill="#fc30c7" d="M5 37h1v1h-1z" /><path fill="#fc30c5" d="M6 37h1v1h-1z" /><path fill="#fc30c4" d="M7 37h1v1h-1zM5 38h2v1h-2z" /><path fill="#fc30c3" d="M8 37h1v1h-1z" /><path fill="#fc30c1" d="M9 37h1v1h-1zM8 38h1v1h-1zM6 39h2v1h-2z" /><path fill="#fc30c0" d="M10 37h1v1h-1zM9 38h1v1h-1zM8 39h1v1h-1zM6 40h1v1h-1z" /><path fill="#fc30b7" d="M19 37h1v1h-1z" /><path fill="#fc2eb5" d="M20 37h1v1h-1zM15 41h1v1h-1z" /><path fill="#fa259a" d="M21 37h1v1h-1z" /><path fill="#ea29b4" d="M46 37h1v1h-1z" /><path fill="#e828b6" d="M47 37h1v1h-1z" /><path fill="#e629b8" d="M48 37h1v1h-1z" /><path fill="#e328ba" d="M49 37h1v1h-1z" /><path fill="#e129bd" d="M50 37h1v1h-1z" /><path fill="#de28c0" d="M51 37h1v1h-1z" /><path fill="#dc29c2" d="M52 37h1v1h-1z" /><path fill="#d928c5" d="M53 37h1v1h-1z" /><path fill="#d124c4" d="M54 37h1v1h-1z" /><path fill="#9a19ec" d="M79 37h1v1h-1z" /><path fill="#9717ec" d="M80 37h1v1h-1z" /><path fill="#9216ee" d="M82 37h1v1h-1z" /><path fill="#8d13ef" d="M84 37h1v1h-1z" /><path fill="#8810f0" d="M86 37h1v1h-1zM85 40h1v1h-1zM85 41h1v1h-1z" /><path fill="#830ef2" d="M88 37h1v1h-1z" /><path fill="#7e0af2" d="M90 37h1v1h-1z" /><path fill="#7b09f3" d="M92 37h1v1h-1zM91 38h1v1h-1z" /><path fill="#7a08f3" d="M93 37h1v1h-1zM92 38h1v1h-1zM91 39h1v1h-1zM90 42h1v1h-1z" /><path fill="#7908f3" d="M94 37h1v1h-1z" /><path fill="#7706f3" d="M95 37h1v1h-1zM92 40h1v1h-1zM91 42h1v1h-1z" /><path fill="#f7239e" d="M4 38h1v1h-1z" /><path fill="#fc30c2" d="M7 38h1v1h-1z" /><path fill="#fc2fbd" d="M11 38h1v1h-1zM10 39h1v1h-1zM9 40h1v1h-1z" /><path fill="#fc2fbc" d="M12 38h1v1h-1zM11 39h1v1h-1zM10 40h1v1h-1z" /><path fill="#fc30bb" d="M13 38h2v1h-2z" /><path fill="#fd30b6" d="M18 38h1v1h-1zM17 39h1v1h-1z" /><path fill="#fd2fb5" d="M19 38h1v1h-1zM18 39h1v1h-1z" /><path fill="#fb2eb2" d="M20 38h1v1h-1zM15 43h1v1h-1z" /><path fill="#e921a8" d="M45 38h1v1h-1z" /><path fill="#eb27b2" d="M46 38h1v1h-1z" /><path fill="#e828b4" d="M47 38h1v1h-1z" /><path fill="#e628b7" d="M48 38h1v1h-1z" /><path fill="#e428b8" d="M49 38h1v1h-1z" /><path fill="#e128bb" d="M50 38h1v1h-1z" /><path fill="#de28be" d="M51 38h1v1h-1z" /><path fill="#dc28c0" d="M52 38h1v1h-1z" /><path fill="#d928c3" d="M53 38h1v1h-1z" /><path fill="#d627c5" d="M54 38h1v1h-1z" /><path fill="#9816ec" d="M79 38h1v1h-1z" /><path fill="#9115ef" d="M82 38h1v1h-1z" /><path fill="#8a10ef" d="M85 38h1v1h-1z" /><path fill="#840ff1" d="M87 38h1v1h-1z" /><path fill="#830df1" d="M88 38h1v1h-1z" /><path fill="#7907f3" d="M93 38h1v1h-1zM91 40h1v1h-1z" /><path fill="#7707f4" d="M94 38h1v1h-1zM93 39h1v1h-1zM91 41h1v1h-1z" /><path fill="#7505f3" d="M95 38h1v1h-1z" /><path fill="#f6219a" d="M4 39h1v1h-1z" /><path fill="#fc2fc3" d="M5 39h1v1h-1z" /><path fill="#fc2fbe" d="M9 39h1v1h-1z" /><path fill="#fc2fb7" d="M15 39h1v1h-1zM14 40h1v1h-1zM13 41h1v1h-1z" /><path fill="#fd2fb7" d="M16 39h1v1h-1z" /><path fill="#fd2fb4" d="M19 39h1v1h-1z" /><path fill="#fb269c" d="M20 39h1v1h-1z" /><path fill="#ec26ac" d="M45 39h1v1h-1zM46 40h1v1h-1z" /><path fill="#eb28af" d="M46 39h1v1h-1z" /><path fill="#e927b2" d="M47 39h1v1h-1z" /><path fill="#e628b4" d="M48 39h1v1h-1z" /><path fill="#e427b7" d="M49 39h1v1h-1z" /><path fill="#e228b9" d="M50 39h1v1h-1z" /><path fill="#df27bb" d="M51 39h1v1h-1z" /><path fill="#dc28be" d="M52 39h1v1h-1z" /><path fill="#da28c1" d="M53 39h1v1h-1z" /><path fill="#d728c4" d="M54 39h1v1h-1z" /><path fill="#ce23c3" d="M55 39h1v1h-1z" /><path fill="#9618ea" d="M79 39h1v1h-1z" /><path fill="#9517ec" d="M80 39h1v1h-1z" /><path fill="#9316ed" d="M81 39h1v1h-1z" /><path fill="#9114ed" d="M82 39h1v1h-1z" /><path fill="#8e14ed" d="M83 39h1v1h-1z" /><path fill="#7c0af3" d="M90 39h1v1h-1z" /><path fill="#7807f4" d="M92 39h1v1h-1zM90 43h1v1h-1z" /><path fill="#7606f4" d="M94 39h1v1h-1zM91 43h1v1h-1z" /><path fill="#7504f4" d="M95 39h1v1h-1z" /><path fill="#f52096" d="M4 40h1v1h-1z" /><path fill="#fc2fc1" d="M5 40h1v1h-1z" /><path fill="#fc30bf" d="M7 40h1v1h-1z" /><path fill="#fb2fbd" d="M8 40h1v1h-1zM7 41h1v1h-1zM6 42h1v1h-1z" /><path fill="#fc2fb8" d="M13 40h1v1h-1zM12 41h1v1h-1z" /><path fill="#fc2fb6" d="M15 40h1v1h-1zM14 41h1v1h-1z" /><path fill="#fc2fb5" d="M16 40h2v1h-2z" /><path fill="#fd2fb3" d="M18 40h1v1h-1z" /><path fill="#fc2fb2" d="M19 40h1v1h-1zM18 41h1v1h-1z" /><path fill="#e9209f" d="M44 40h1v1h-1z" /><path fill="#ee26ab" d="M45 40h1v1h-1z" /><path fill="#e927af" d="M47 40h1v1h-1z" /><path fill="#e726b1" d="M48 40h1v1h-1z" /><path fill="#e427b4" d="M49 40h1v1h-1z" /><path fill="#e227b7" d="M50 40h1v1h-1z" /><path fill="#df27ba" d="M51 40h1v1h-1z" /><path fill="#dd26bc" d="M52 40h1v1h-1z" /><path fill="#da27bf" d="M53 40h1v1h-1z" /><path fill="#d727c3" d="M54 40h1v1h-1z" /><path fill="#d326c4" d="M55 40h1v1h-1z" /><path fill="#9515ec" d="M80 40h1v1h-1z" /><path fill="#9315ed" d="M81 40h1v1h-1z" /><path fill="#9015ed" d="M82 40h1v1h-1z" /><path fill="#8d13ee" d="M83 40h1v1h-1z" /><path fill="#8b11ee" d="M84 40h1v1h-1z" /><path fill="#850ef0" d="M86 40h1v1h-1zM86 41h1v1h-1z" /><path fill="#830ef0" d="M87 40h1v1h-1z" /><path fill="#810cf0" d="M88 40h1v1h-1zM87 44h1v1h-1zM86 47h1v1h-1z" /><path fill="#7506f4" d="M93 40h1v1h-1zM92 41h1v1h-1z" /><path fill="#7405f4" d="M94 40h1v1h-1zM93 41h1v1h-1zM92 42h1v1h-1z" /><path fill="#7103f2" d="M95 40h1v1h-1zM94 54h1v1h-1z" /><path fill="#f42092" d="M4 41h1v1h-1z" /><path fill="#fb2fc0" d="M5 41h1v1h-1z" /><path fill="#fb2fbe" d="M6 41h1v1h-1z" /><path fill="#fb2fbc" d="M8 41h1v1h-1zM7 42h1v1h-1z" /><path fill="#fb2fba" d="M9 41h2v1h-2zM8 42h1v1h-1zM7 43h1v1h-1zM6 44h1v1h-1z" /><path fill="#fb2eb9" d="M11 41h1v1h-1z" /><path fill="#fc2eb3" d="M16 41h1v1h-1zM15 42h1v1h-1z" /><path fill="#fc2eb2" d="M17 41h1v1h-1zM16 42h1v1h-1z" /><path fill="#fb289d" d="M19 41h1v1h-1z" /><path fill="#ee24a5" d="M44 41h1v1h-1z" /><path fill="#ee26a9" d="M45 41h1v1h-1z" /><path fill="#ec26ab" d="M46 41h1v1h-1z" /><path fill="#ea26ad" d="M47 41h1v1h-1z" /><path fill="#e726af" d="M48 41h1v1h-1z" /><path fill="#e526b2" d="M49 41h1v1h-1z" /><path fill="#e326b4" d="M50 41h1v1h-1z" /><path fill="#e026b7" d="M51 41h1v1h-1z" /><path fill="#dd27ba" d="M52 41h1v1h-1z" /><path fill="#da26bd" d="M53 41h1v1h-1z" /><path fill="#d727c0" d="M54 41h1v1h-1z" /><path fill="#d526c3" d="M55 41h1v1h-1z" /><path fill="#9115ec" d="M80 41h1v1h-1z" /><path fill="#9216ed" d="M81 41h1v1h-1z" /><path fill="#8f14ed" d="M82 41h1v1h-1z" /><path fill="#8a11ef" d="M84 41h1v1h-1zM84 42h1v1h-1zM83 45h1v1h-1z" /><path fill="#800cf1" d="M88 41h1v1h-1zM88 42h1v1h-1z" /><path fill="#7304f3" d="M94 41h1v1h-1zM92 44h1v1h-1zM91 49h1v1h-1zM92 51h1v1h-1zM93 53h1v1h-1z" /><path fill="#7103f5" d="M95 41h1v1h-1z" /><path fill="#fb2fb9" d="M9 42h1v1h-1zM8 43h1v1h-1z" /><path fill="#fb2eb8" d="M10 42h2v1h-2zM9 43h1v1h-1z" /><path fill="#fb2eb7" d="M12 42h1v1h-1z" /><path fill="#fb2fb5" d="M13 42h1v1h-1z" /><path fill="#fb2eb4" d="M14 42h1v1h-1zM13 43h1v1h-1z" /><path fill="#fc2fb1" d="M17 42h1v1h-1z" /><path fill="#fc2eb0" d="M18 42h1v1h-1zM16 43h2v1h-2z" /><path fill="#f026a6" d="M44 42h1v1h-1z" /><path fill="#ee25a7" d="M45 42h1v1h-1z" /><path fill="#ed25a9" d="M46 42h1v1h-1z" /><path fill="#eb26ab" d="M47 42h1v1h-1z" /><path fill="#e825ad" d="M48 42h1v1h-1z" /><path fill="#e626af" d="M49 42h1v1h-1z" /><path fill="#e325b2" d="M50 42h1v1h-1z" /><path fill="#e126b5" d="M51 42h1v1h-1z" /><path fill="#de26b8" d="M52 42h1v1h-1z" /><path fill="#db26ba" d="M53 42h1v1h-1z" /><path fill="#d826bd" d="M54 42h1v1h-1z" /><path fill="#d526c0" d="M55 42h1v1h-1z" /><path fill="#d023c2" d="M56 42h1v1h-1z" /><path fill="#9015ec" d="M81 42h1v1h-1z" /><path fill="#8e14ee" d="M82 42h1v1h-1z" /><path fill="#8c12ee" d="M83 42h1v1h-1z" /><path fill="#860ff0" d="M85 42h1v1h-1z" /><path fill="#850df0" d="M86 42h1v1h-1z" /><path fill="#820cf0" d="M87 42h1v1h-1z" /><path fill="#7c0af2" d="M89 42h1v1h-1z" /><path fill="#7204f4" d="M93 42h1v1h-1z" /><path fill="#7103f4" d="M94 42h1v1h-1zM93 43h1v1h-1zM92 46h1v1h-1z" /><path fill="#fb2ebd" d="M5 43h1v1h-1z" /><path fill="#fb2fbb" d="M6 43h1v1h-1z" /><path fill="#fb2eb6" d="M10 43h1v1h-1z" /><path fill="#fb2eb5" d="M11 43h2v1h-2z" /><path fill="#fb2eb3" d="M14 43h1v1h-1zM12 44h1v1h-1z" /><path fill="#fa289f" d="M18 43h1v1h-1z" /><path fill="#f0239a" d="M43 43h1v1h-1zM45 48h1v1h-1z" /><path fill="#f025a4" d="M44 43h1v1h-1z" /><path fill="#ee25a5" d="M45 43h1v1h-1z" /><path fill="#ed24a6" d="M46 43h1v1h-1z" /><path fill="#eb24a8" d="M47 43h1v1h-1z" /><path fill="#e925ab" d="M48 43h1v1h-1z" /><path fill="#e625ae" d="M49 43h1v1h-1z" /><path fill="#e425b0" d="M50 43h1v1h-1z" /><path fill="#e125b2" d="M51 43h1v1h-1z" /><path fill="#de25b6" d="M52 43h1v1h-1z" /><path fill="#dc25b8" d="M53 43h1v1h-1z" /><path fill="#d925bb" d="M54 43h1v1h-1z" /><path fill="#d525bf" d="M55 43h1v1h-1z" /><path fill="#d324c2" d="M56 43h1v1h-1z" /><path fill="#8f13e9" d="M81 43h1v1h-1z" /><path fill="#8e13ed" d="M82 43h1v1h-1z" /><path fill="#8b12ee" d="M83 43h1v1h-1zM83 44h1v1h-1z" /><path fill="#860eef" d="M85 43h1v1h-1zM85 44h1v1h-1z" /><path fill="#840df1" d="M86 43h1v1h-1z" /><path fill="#810df1" d="M87 43h1v1h-1z" /><path fill="#7c09f2" d="M89 43h1v1h-1zM88 46h1v1h-1z" /><path fill="#7305f4" d="M92 43h1v1h-1z" /><path fill="#6f02f5" d="M94 43h1v1h-1z" /><path fill="#fa2ebb" d="M5 44h1v1h-1z" /><path fill="#fa2fb9" d="M7 44h1v1h-1z" /><path fill="#fa2eb7" d="M8 44h1v1h-1zM7 45h1v1h-1zM5 46h1v1h-1z" /><path fill="#fa2eb6" d="M9 44h1v1h-1zM8 45h1v1h-1z" /><path fill="#fa2eb5" d="M10 44h1v1h-1zM9 45h1v1h-1zM7 46h1v1h-1z" /><path fill="#fa2eb4" d="M11 44h1v1h-1zM8 46h1v1h-1z" /><path fill="#fb2eb1" d="M13 44h2v1h-2z" /><path fill="#fb2eb0" d="M15 44h1v1h-1zM13 45h1v1h-1z" /><path fill="#fb2daf" d="M16 44h1v1h-1zM15 45h1v1h-1z" /><path fill="#fb2eae" d="M17 44h1v1h-1z" /><path fill="#f0259e" d="M43 44h1v1h-1z" /><path fill="#f025a1" d="M44 44h1v1h-1z" /><path fill="#ef24a3" d="M45 44h1v1h-1z" /><path fill="#ed24a4" d="M46 44h1v1h-1z" /><path fill="#ec24a7" d="M47 44h1v1h-1z" /><path fill="#e924a8" d="M48 44h1v1h-1z" /><path fill="#e723ab" d="M49 44h1v1h-1z" /><path fill="#e424ae" d="M50 44h1v1h-1z" /><path fill="#e124b0" d="M51 44h1v1h-1z" /><path fill="#df24b3" d="M52 44h1v1h-1z" /><path fill="#dc24b7" d="M53 44h1v1h-1z" /><path fill="#d924ba" d="M54 44h1v1h-1z" /><path fill="#d624bc" d="M55 44h1v1h-1z" /><path fill="#d325bf" d="M56 44h1v1h-1z" /><path fill="#cd20bf" d="M57 44h1v1h-1z" /><path fill="#8e12ec" d="M82 44h1v1h-1z" /><path fill="#8810ef" d="M84 44h1v1h-1z" /><path fill="#830def" d="M86 44h1v1h-1zM85 47h1v1h-1zM85 48h1v1h-1z" /><path fill="#7d0af1" d="M88 44h1v1h-1zM88 45h1v1h-1z" /><path fill="#7807f2" d="M90 44h1v1h-1zM90 45h1v1h-1z" /><path fill="#7506f2" d="M91 44h1v1h-1z" /><path fill="#6f02f4" d="M93 44h1v1h-1zM93 45h1v1h-1zM93 48h1v1h-1zM94 50h1v1h-1zM94 51h1v1h-1z" /><path fill="#6e01f4" d="M94 44h1v1h-1zM94 48h1v1h-1z" /><path fill="#fa2eb9" d="M5 45h1v1h-1z" /><path fill="#fa2eb8" d="M6 45h1v1h-1z" /><path fill="#fa2eb3" d="M10 45h1v1h-1zM9 46h1v1h-1z" /><path fill="#fa2db2" d="M11 45h1v1h-1zM10 46h1v1h-1z" /><path fill="#fa2eb1" d="M12 45h1v1h-1z" /><path fill="#fb2eaf" d="M14 45h1v1h-1z" /><path fill="#fb2dae" d="M16 45h1v1h-1z" /><path fill="#fa29a1" d="M17 45h1v1h-1z" /><path fill="#f11f93" d="M42 45h1v1h-1z" /><path fill="#f2259e" d="M43 45h1v1h-1z" /><path fill="#f1249f" d="M44 45h1v1h-1z" /><path fill="#ef24a0" d="M45 45h1v1h-1z" /><path fill="#ed24a2" d="M46 45h1v1h-1z" /><path fill="#ec24a4" d="M47 45h1v1h-1z" /><path fill="#ea23a5" d="M48 45h1v1h-1z" /><path fill="#e723a8" d="M49 45h1v1h-1z" /><path fill="#e523ab" d="M50 45h1v1h-1z" /><path fill="#e224af" d="M51 45h1v1h-1z" /><path fill="#df23b1" d="M52 45h1v1h-1z" /><path fill="#dc24b4" d="M53 45h1v1h-1z" /><path fill="#da23b7" d="M54 45h1v1h-1z" /><path fill="#d724bb" d="M55 45h1v1h-1z" /><path fill="#d424bd" d="M56 45h1v1h-1z" /><path fill="#cf22bf" d="M57 45h1v1h-1z" /><path fill="#8b12ec" d="M82 45h1v1h-1z" /><path fill="#870fee" d="M84 45h1v1h-1z" /><path fill="#850def" d="M85 45h1v1h-1z" /><path fill="#820df0" d="M86 45h1v1h-1zM86 46h1v1h-1z" /><path fill="#7f0cf1" d="M87 45h1v1h-1z" /><path fill="#7a08f2" d="M89 45h1v1h-1z" /><path fill="#7405f3" d="M91 45h1v1h-1zM91 46h1v1h-1z" /><path fill="#7203f3" d="M92 45h1v1h-1zM91 48h1v1h-1zM92 49h1v1h-1zM92 50h1v1h-1zM93 51h1v1h-1zM93 52h1v1h-1z" /><path fill="#6d00f5" d="M94 45h1v1h-1z" /><path fill="#fa2db6" d="M6 46h1v1h-1z" /><path fill="#fa2db1" d="M11 46h1v1h-1z" /><path fill="#fa2db0" d="M12 46h1v1h-1zM10 47h1v1h-1z" /><path fill="#fa2eae" d="M13 46h1v1h-1z" /><path fill="#fa2dad" d="M14 46h1v1h-1zM13 47h1v1h-1z" /><path fill="#fa2dac" d="M15 46h1v1h-1zM14 47h1v1h-1zM13 48h1v1h-1z" /><path fill="#fb2dab" d="M16 46h1v1h-1z" /><path fill="#f7228d" d="M17 46h1v1h-1zM40 51h1v1h-1z" /><path fill="#f32398" d="M42 46h1v1h-1z" /><path fill="#f3249b" d="M43 46h1v1h-1z" /><path fill="#f1249c" d="M44 46h1v1h-1z" /><path fill="#f0249f" d="M45 46h1v1h-1z" /><path fill="#ee24a0" d="M46 46h1v1h-1z" /><path fill="#ec23a2" d="M47 46h1v1h-1z" /><path fill="#eb23a3" d="M48 46h1v1h-1z" /><path fill="#e822a5" d="M49 46h1v1h-1z" /><path fill="#e523a8" d="M50 46h1v1h-1z" /><path fill="#e322ab" d="M51 46h1v1h-1z" /><path fill="#e023ae" d="M52 46h1v1h-1z" /><path fill="#dd23b2" d="M53 46h1v1h-1z" /><path fill="#da23b5" d="M54 46h1v1h-1z" /><path fill="#d723b8" d="M55 46h1v1h-1z" /><path fill="#d423bc" d="M56 46h1v1h-1z" /><path fill="#d123bf" d="M57 46h1v1h-1z" /><path fill="#8910ee" d="M83 46h1v1h-1z" /><path fill="#870eef" d="M84 46h1v1h-1z" /><path fill="#840eef" d="M85 46h1v1h-1z" /><path fill="#7f0bf0" d="M87 46h1v1h-1z" /><path fill="#7907f2" d="M89 46h1v1h-1z" /><path fill="#7706f2" d="M90 46h1v1h-1zM93 58h1v1h-1z" /><path fill="#6f01f4" d="M93 46h1v1h-1zM93 47h1v1h-1z" /><path fill="#6c00f5" d="M94 46h1v1h-1z" /><path fill="#f82cb2" d="M5 47h1v1h-1z" /><path fill="#f92db4" d="M6 47h1v1h-1z" /><path fill="#f92db3" d="M7 47h1v1h-1zM6 48h1v1h-1z" /><path fill="#f92eb2" d="M8 47h1v1h-1z" /><path fill="#f92db2" d="M9 47h1v1h-1zM7 48h1v1h-1z" /><path fill="#fa2daf" d="M11 47h1v1h-1z" /><path fill="#fa2cae" d="M12 47h1v1h-1z" /><path fill="#fa2dab" d="M15 47h1v1h-1z" /><path fill="#f928a3" d="M16 47h1v1h-1z" /><path fill="#f42498" d="M42 47h1v1h-1zM5 51h1v1h-1z" /><path fill="#f32499" d="M43 47h1v1h-1z" /><path fill="#f1239b" d="M44 47h1v1h-1z" /><path fill="#f0249c" d="M45 47h1v1h-1z" /><path fill="#ee239e" d="M46 47h1v1h-1z" /><path fill="#ec239f" d="M47 47h1v1h-1z" /><path fill="#eb22a1" d="M48 47h1v1h-1z" /><path fill="#e922a3" d="M49 47h1v1h-1z" /><path fill="#e622a6" d="M50 47h1v1h-1z" /><path fill="#e322a9" d="M51 47h1v1h-1z" /><path fill="#e122ac" d="M52 47h1v1h-1z" /><path fill="#de22af" d="M53 47h1v1h-1z" /><path fill="#db22b2" d="M54 47h1v1h-1z" /><path fill="#d722b5" d="M55 47h1v1h-1z" /><path fill="#d522b8" d="M56 47h1v1h-1z" /><path fill="#d222bd" d="M57 47h1v1h-1z" /><path fill="#ca20be" d="M58 47h1v1h-1z" /><path fill="#880fed" d="M83 47h1v1h-1z" /><path fill="#870eee" d="M84 47h1v1h-1z" /><path fill="#7e0af1" d="M87 47h1v1h-1z" /><path fill="#7908f2" d="M89 47h1v1h-1z" /><path fill="#7606f3" d="M90 47h1v1h-1z" /><path fill="#7404f3" d="M91 47h1v1h-1z" /><path fill="#7102f4" d="M92 47h1v1h-1z" /><path fill="#6d01f5" d="M94 47h1v1h-1z" /><path fill="#f72aac" d="M5 48h1v1h-1z" /><path fill="#f92db0" d="M8 48h1v1h-1zM7 49h1v1h-1z" /><path fill="#f92daf" d="M9 48h2v1h-2zM8 49h1v1h-1z" /><path fill="#f92cae" d="M11 48h1v1h-1z" /><path fill="#fa2cac" d="M12 48h1v1h-1z" /><path fill="#fa2daa" d="M14 48h1v1h-1z" /><path fill="#fa2ca9" d="M15 48h1v1h-1z" /><path fill="#f6228c" d="M16 48h1v1h-1z" /><path fill="#f5218e" d="M41 48h1v1h-1z" /><path fill="#f52495" d="M42 48h1v1h-1z" /><path fill="#f42396" d="M43 48h1v1h-1z" /><path fill="#f22399" d="M44 48h1v1h-1z" /><path fill="#ef239c" d="M46 48h1v1h-1z" /><path fill="#ed229d" d="M47 48h1v1h-1z" /><path fill="#eb229f" d="M48 48h1v1h-1z" /><path fill="#e921a1" d="M49 48h1v1h-1z" /><path fill="#e722a4" d="M50 48h1v1h-1z" /><path fill="#e421a6" d="M51 48h1v1h-1z" /><path fill="#e121a9" d="M52 48h1v1h-1z" /><path fill="#df21ac" d="M53 48h1v1h-1z" /><path fill="#db21b0" d="M54 48h1v1h-1z" /><path fill="#d822b2" d="M55 48h1v1h-1z" /><path fill="#d522b6" d="M56 48h1v1h-1z" /><path fill="#d222ba" d="M57 48h1v1h-1z" /><path fill="#cf21bc" d="M58 48h1v1h-1z" /><path fill="#850eee" d="M84 48h1v1h-1zM84 49h1v1h-1z" /><path fill="#800cef" d="M86 48h1v1h-1z" /><path fill="#7e0af0" d="M87 48h1v1h-1z" /><path fill="#7b08f0" d="M88 48h1v1h-1zM88 49h1v1h-1zM88 53h1v1h-1zM89 55h1v1h-1zM90 57h1v1h-1zM90 58h1v1h-1zM91 59h1v1h-1zM91 60h1v1h-1zM92 61h1v1h-1zM92 62h1v1h-1z" /><path fill="#7907f1" d="M89 48h1v1h-1zM88 51h1v1h-1zM89 52h1v1h-1zM89 53h1v1h-1zM90 55h1v1h-1zM91 57h1v1h-1zM92 59h1v1h-1zM93 61h1v1h-1z" /><path fill="#7605f1" d="M90 48h1v1h-1z" /><path fill="#7103f3" d="M92 48h1v1h-1zM93 50h1v1h-1z" /><path fill="#f628a5" d="M5 49h1v1h-1z" /><path fill="#f92cb1" d="M6 49h1v1h-1z" /><path fill="#f92dad" d="M9 49h1v1h-1zM8 50h1v1h-1z" /><path fill="#f92cac" d="M10 49h1v1h-1zM9 50h1v1h-1z" /><path fill="#f92cab" d="M11 49h2v1h-2zM10 50h1v1h-1z" /><path fill="#f92daa" d="M13 49h1v1h-1z" /><path fill="#f92ca9" d="M14 49h1v1h-1z" /><path fill="#f829a2" d="M15 49h1v1h-1z" /><path fill="#f72491" d="M41 49h1v1h-1z" /><path fill="#f52393" d="M42 49h1v1h-1z" /><path fill="#f42394" d="M43 49h1v1h-1z" /><path fill="#f32295" d="M44 49h1v1h-1z" /><path fill="#f12297" d="M45 49h1v1h-1z" /><path fill="#ef2299" d="M46 49h1v1h-1z" /><path fill="#ed229a" d="M47 49h1v1h-1z" /><path fill="#ec219d" d="M48 49h1v1h-1z" /><path fill="#ea209f" d="M49 49h1v1h-1z" /><path fill="#e820a1" d="M50 49h1v1h-1z" /><path fill="#e520a4" d="M51 49h1v1h-1z" /><path fill="#e221a6" d="M52 49h1v1h-1z" /><path fill="#df20aa" d="M53 49h1v1h-1z" /><path fill="#dc21ad" d="M54 49h1v1h-1z" /><path fill="#d920b1" d="M55 49h1v1h-1z" /><path fill="#d621b3" d="M56 49h1v1h-1z" /><path fill="#d321b7" d="M57 49h1v1h-1z" /><path fill="#d021bb" d="M58 49h1v1h-1z" /><path fill="#c91fbd" d="M59 49h1v1h-1z" /><path fill="#830df0" d="M85 49h1v1h-1z" /><path fill="#800bf0" d="M86 49h1v1h-1z" /><path fill="#7d09f0" d="M87 49h1v1h-1zM91 62h1v1h-1zM92 64h1v1h-1z" /><path fill="#7707f2" d="M89 49h1v1h-1z" /><path fill="#7505f2" d="M90 49h1v1h-1zM90 50h1v1h-1zM91 51h1v1h-1zM91 52h1v1h-1zM92 53h1v1h-1zM92 54h1v1h-1zM93 55h1v1h-1zM93 56h1v1h-1z" /><path fill="#7002f4" d="M93 49h1v1h-1z" /><path fill="#6e01f3" d="M94 49h1v1h-1z" /><path fill="#f5259e" d="M5 50h1v1h-1z" /><path fill="#f82cb0" d="M6 50h1v1h-1z" /><path fill="#f82dae" d="M7 50h1v1h-1z" /><path fill="#f92caa" d="M11 50h1v1h-1z" /><path fill="#f92ba8" d="M12 50h1v1h-1z" /><path fill="#f92ca8" d="M13 50h1v1h-1z" /><path fill="#f92ca7" d="M14 50h1v1h-1z" /><path fill="#f7238e" d="M15 50h1v1h-1z" /><path fill="#f62087" d="M40 50h1v1h-1z" /><path fill="#f8238f" d="M41 50h1v1h-1z" /><path fill="#f62391" d="M42 50h1v1h-1z" /><path fill="#f42292" d="M43 50h1v1h-1z" /><path fill="#f32293" d="M44 50h1v1h-1z" /><path fill="#f12195" d="M45 50h1v1h-1z" /><path fill="#f02196" d="M46 50h1v1h-1z" /><path fill="#ee2198" d="M47 50h1v1h-1z" /><path fill="#ec209a" d="M48 50h1v1h-1z" /><path fill="#ea209c" d="M49 50h1v1h-1z" /><path fill="#e81f9d" d="M50 50h1v1h-1z" /><path fill="#e620a2" d="M51 50h1v1h-1z" /><path fill="#e320a5" d="M52 50h1v1h-1z" /><path fill="#e020a7" d="M53 50h1v1h-1z" /><path fill="#dd20aa" d="M54 50h1v1h-1z" /><path fill="#da20ae" d="M55 50h1v1h-1z" /><path fill="#d720b2" d="M56 50h1v1h-1z" /><path fill="#d320b5" d="M57 50h1v1h-1z" /><path fill="#d120b8" d="M58 50h1v1h-1z" /><path fill="#cb1fbb" d="M59 50h1v1h-1z" /><path fill="#820cef" d="M85 50h1v1h-1z" /><path fill="#7f0af0" d="M86 50h1v1h-1z" /><path fill="#7c09f0" d="M87 50h1v1h-1zM87 53h1v1h-1zM88 55h1v1h-1zM89 57h1v1h-1zM90 59h1v1h-1zM91 61h1v1h-1zM92 63h1v1h-1z" /><path fill="#7a08f1" d="M88 50h1v1h-1z" /><path fill="#7706f1" d="M89 50h1v1h-1zM90 52h1v1h-1zM91 54h1v1h-1zM92 56h1v1h-1zM93 59h1v1h-1z" /><path fill="#7404f2" d="M91 50h1v1h-1zM92 52h1v1h-1zM93 54h1v1h-1z" /><path fill="#f82cae" d="M6 51h1v1h-1z" /><path fill="#f82cad" d="M7 51h1v1h-1z" /><path fill="#f82cab" d="M8 51h1v1h-1zM6 52h1v1h-1z" /><path fill="#f82caa" d="M9 51h1v1h-1zM8 52h1v1h-1z" /><path fill="#f82ca9" d="M10 51h1v1h-1zM9 52h1v1h-1z" /><path fill="#f82ba8" d="M11 51h1v1h-1zM10 52h1v1h-1z" /><path fill="#f82ba7" d="M12 51h1v1h-1z" /><path fill="#f92ca6" d="M13 51h1v1h-1z" /><path fill="#f82ba2" d="M14 51h1v1h-1z" /><path fill="#f7228e" d="M41 51h2v1h-2z" /><path fill="#f52190" d="M43 51h1v1h-1z" /><path fill="#f32191" d="M44 51h1v1h-1z" /><path fill="#f12092" d="M45 51h1v1h-1z" /><path fill="#f02094" d="M46 51h1v1h-1z" /><path fill="#ee2096" d="M47 51h1v1h-1z" /><path fill="#ec2098" d="M48 51h1v1h-1z" /><path fill="#eb1f9a" d="M49 51h1v1h-1z" /><path fill="#e91f9b" d="M50 51h1v1h-1z" /><path fill="#e71e9e" d="M51 51h1v1h-1z" /><path fill="#e41fa1" d="M52 51h1v1h-1z" /><path fill="#e01fa4" d="M53 51h1v1h-1z" /><path fill="#dd1fa7" d="M54 51h1v1h-1z" /><path fill="#db20ab" d="M55 51h1v1h-1z" /><path fill="#d81faf" d="M56 51h1v1h-1z" /><path fill="#d41fb3" d="M57 51h1v1h-1z" /><path fill="#d11fb7" d="M58 51h1v1h-1z" /><path fill="#ce1fba" d="M59 51h1v1h-1z" /><path fill="#800cee" d="M85 51h1v1h-1z" /><path fill="#7e0aef" d="M86 51h1v1h-1zM87 55h1v1h-1z" /><path fill="#7c09ef" d="M87 51h1v1h-1z" /><path fill="#7806f1" d="M89 51h1v1h-1zM90 53h1v1h-1zM91 55h1v1h-1zM92 57h1v1h-1z" /><path fill="#7605f2" d="M90 51h1v1h-1zM91 53h1v1h-1zM92 55h1v1h-1zM93 57h1v1h-1z" /><path fill="#f22293" d="M5 52h1v1h-1z" /><path fill="#f82bab" d="M7 52h1v1h-1z" /><path fill="#f82ba6" d="M11 52h1v1h-1z" /><path fill="#f82ba5" d="M12 52h1v1h-1z" /><path fill="#f82aa4" d="M13 52h1v1h-1zM12 53h1v1h-1z" /><path fill="#f5228c" d="M14 52h1v1h-1z" /><path fill="#f71d81" d="M39 52h1v1h-1z" /><path fill="#f7228c" d="M40 52h1v1h-1z" /><path fill="#f7228b" d="M41 52h1v1h-1z" /><path fill="#f7218b" d="M42 52h1v1h-1z" /><path fill="#f5218d" d="M43 52h1v1h-1z" /><path fill="#f4208f" d="M44 52h1v1h-1z" /><path fill="#f22090" d="M45 52h1v1h-1z" /><path fill="#f01f92" d="M46 52h1v1h-1z" /><path fill="#ef2094" d="M47 52h1v1h-1z" /><path fill="#ed1f95" d="M48 52h1v1h-1z" /><path fill="#eb1f97" d="M49 52h1v1h-1z" /><path fill="#e91e99" d="M50 52h1v1h-1z" /><path fill="#e71d9c" d="M51 52h1v1h-1z" /><path fill="#e51e9e" d="M52 52h1v1h-1z" /><path fill="#e21ea1" d="M53 52h1v1h-1z" /><path fill="#de1ea5" d="M54 52h1v1h-1z" /><path fill="#db1ea8" d="M55 52h1v1h-1z" /><path fill="#d81fac" d="M56 52h1v1h-1z" /><path fill="#d51faf" d="M57 52h1v1h-1z" /><path fill="#d21eb3" d="M58 52h1v1h-1z" /><path fill="#ce1fb7" d="M59 52h1v1h-1z" /><path fill="#c91eb9" d="M60 52h1v1h-1z" /><path fill="#7e09ef" d="M86 52h1v1h-1zM89 59h1v1h-1zM90 61h1v1h-1zM91 63h1v1h-1z" /><path fill="#7c08f0" d="M87 52h1v1h-1zM88 54h1v1h-1zM89 56h1v1h-1z" /><path fill="#7a08f0" d="M88 52h1v1h-1zM93 63h1v1h-1z" /><path fill="#7102f3" d="M94 52h1v1h-1z" /><path fill="#f4218f" d="M5 53h1v1h-1z" /><path fill="#f72baa" d="M6 53h1v1h-1z" /><path fill="#f72ba9" d="M7 53h1v1h-1z" /><path fill="#f72ba7" d="M8 53h2v1h-2zM7 54h1v1h-1z" /><path fill="#f72ba6" d="M10 53h1v1h-1z" /><path fill="#f72ba5" d="M11 53h1v1h-1zM9 54h1v1h-1z" /><path fill="#f72aa1" d="M13 53h1v1h-1zM11 55h2v1h-2z" /><path fill="#f82187" d="M39 53h1v1h-1z" /><path fill="#f8228a" d="M40 53h1v1h-1z" /><path fill="#f7218a" d="M41 53h1v1h-1z" /><path fill="#f72189" d="M42 53h1v1h-1zM41 54h1v1h-1z" /><path fill="#f6208a" d="M43 53h1v1h-1z" /><path fill="#f4208b" d="M44 53h1v1h-1z" /><path fill="#f3208e" d="M45 53h1v1h-1z" /><path fill="#f12090" d="M46 53h1v1h-1z" /><path fill="#ef1f91" d="M47 53h1v1h-1z" /><path fill="#ee1f93" d="M48 53h1v1h-1z" /><path fill="#eb1e95" d="M49 53h1v1h-1z" /><path fill="#ea1d97" d="M50 53h1v1h-1z" /><path fill="#e71e99" d="M51 53h1v1h-1z" /><path fill="#e51d9c" d="M52 53h1v1h-1z" /><path fill="#e21d9f" d="M53 53h1v1h-1z" /><path fill="#df1da2" d="M54 53h1v1h-1z" /><path fill="#dc1da6" d="M55 53h1v1h-1z" /><path fill="#d81eaa" d="M56 53h1v1h-1z" /><path fill="#d61dad" d="M57 53h1v1h-1z" /><path fill="#d21eb1" d="M58 53h1v1h-1z" /><path fill="#cf1eb4" d="M59 53h1v1h-1z" /><path fill="#ca1eb9" d="M60 53h1v1h-1z" /><path fill="#7d09ee" d="M86 53h1v1h-1z" /><path fill="#7002f2" d="M94 53h1v1h-1z" /><path fill="#f1208b" d="M5 54h1v1h-1z" /><path fill="#f72ba8" d="M6 54h1v1h-1z" /><path fill="#f72aa6" d="M8 54h1v1h-1z" /><path fill="#f72ba4" d="M10 54h1v1h-1z" /><path fill="#f72aa3" d="M11 54h1v1h-1z" /><path fill="#f72aa2" d="M12 54h1v1h-1zM10 55h1v1h-1z" /><path fill="#f6248f" d="M13 54h1v1h-1z" /><path fill="#f8238a" d="M39 54h1v1h-1z" /><path fill="#f82189" d="M40 54h1v1h-1z" /><path fill="#f72088" d="M42 54h2v1h-2z" /><path fill="#f52089" d="M44 54h1v1h-1z" /><path fill="#f3208a" d="M45 54h1v1h-1z" /><path fill="#f11f8d" d="M46 54h1v1h-1z" /><path fill="#f01e8e" d="M47 54h1v1h-1z" /><path fill="#ee1e90" d="M48 54h1v1h-1z" /><path fill="#ec1d93" d="M49 54h1v1h-1z" /><path fill="#ea1e95" d="M50 54h1v1h-1z" /><path fill="#e81d97" d="M51 54h1v1h-1z" /><path fill="#e61d99" d="M52 54h1v1h-1z" /><path fill="#e31c9c" d="M53 54h1v1h-1z" /><path fill="#e01ca0" d="M54 54h1v1h-1z" /><path fill="#dd1ca3" d="M55 54h1v1h-1z" /><path fill="#da1ca7" d="M56 54h1v1h-1z" /><path fill="#d61dab" d="M57 54h1v1h-1z" /><path fill="#d31dae" d="M58 54h1v1h-1z" /><path fill="#d01db2" d="M59 54h1v1h-1z" /><path fill="#cc1db6" d="M60 54h1v1h-1z" /><path fill="#7f09ef" d="M86 54h1v1h-1z" /><path fill="#7d09ef" d="M87 54h1v1h-1zM88 56h1v1h-1zM89 58h1v1h-1zM90 60h1v1h-1zM92 65h1v1h-1zM93 66h1v1h-1z" /><path fill="#7a07f0" d="M89 54h1v1h-1zM90 56h1v1h-1zM91 58h1v1h-1z" /><path fill="#7807f1" d="M90 54h1v1h-1zM91 56h1v1h-1zM92 58h1v1h-1zM93 60h1v1h-1z" /><path fill="#f11f88" d="M5 55h1v1h-1z" /><path fill="#f62ba7" d="M6 55h1v1h-1z" /><path fill="#f62aa5" d="M7 55h1v1h-1zM6 56h1v1h-1z" /><path fill="#f62aa4" d="M8 55h1v1h-1zM7 56h1v1h-1zM6 57h1v1h-1z" /><path fill="#f62aa3" d="M9 55h1v1h-1zM8 56h1v1h-1z" /><path fill="#f81f83" d="M38 55h1v1h-1z" /><path fill="#f82289" d="M39 55h1v1h-1z" /><path fill="#f82288" d="M40 55h1v1h-1zM39 56h1v1h-1z" /><path fill="#f72087" d="M41 55h1v1h-1z" /><path fill="#f72086" d="M42 55h2v1h-2zM41 56h1v1h-1z" /><path fill="#f51f87" d="M44 55h1v1h-1z" /><path fill="#f41f88" d="M45 55h1v1h-1z" /><path fill="#f21e8a" d="M46 55h1v1h-1z" /><path fill="#f01e8c" d="M47 55h1v1h-1z" /><path fill="#ee1e8d" d="M48 55h1v1h-1z" /><path fill="#ec1e90" d="M49 55h1v1h-1z" /><path fill="#eb1d91" d="M50 55h1v1h-1z" /><path fill="#e91c93" d="M51 55h1v1h-1z" /><path fill="#e61c96" d="M52 55h1v1h-1z" /><path fill="#e41b99" d="M53 55h1v1h-1z" /><path fill="#e11c9d" d="M54 55h1v1h-1z" /><path fill="#de1ba0" d="M55 55h1v1h-1z" /><path fill="#da1ba4" d="M56 55h1v1h-1z" /><path fill="#d71ca8" d="M57 55h1v1h-1z" /><path fill="#d41bac" d="M58 55h1v1h-1z" /><path fill="#d11caf" d="M59 55h1v1h-1z" /><path fill="#cd1cb4" d="M60 55h1v1h-1z" /><path fill="#c91bb7" d="M61 55h1v1h-1z" /><path fill="#7203f2" d="M94 55h1v1h-1z" /><path fill="#f01e85" d="M5 56h1v1h-1z" /><path fill="#f629a1" d="M9 56h1v1h-1z" /><path fill="#f62aa0" d="M10 56h1v1h-1z" /><path fill="#f62a9f" d="M11 56h1v1h-1z" /><path fill="#f5238f" d="M12 56h1v1h-1z" /><path fill="#f62186" d="M38 56h1v1h-1z" /><path fill="#f72186" d="M40 56h1v1h-1z" /><path fill="#f72085" d="M42 56h1v1h-1z" /><path fill="#f61f84" d="M43 56h2v1h-2z" /><path fill="#f41e85" d="M45 56h1v1h-1z" /><path fill="#f31e88" d="M46 56h1v1h-1z" /><path fill="#f11d89" d="M47 56h1v1h-1z" /><path fill="#ef1d8b" d="M48 56h1v1h-1z" /><path fill="#ed1d8d" d="M49 56h1v1h-1z" /><path fill="#eb1c8f" d="M50 56h1v1h-1z" /><path fill="#e91c91" d="M51 56h1v1h-1z" /><path fill="#e71b94" d="M52 56h1v1h-1z" /><path fill="#e51b96" d="M53 56h1v1h-1z" /><path fill="#e21b9a" d="M54 56h1v1h-1z" /><path fill="#df1b9d" d="M55 56h1v1h-1z" /><path fill="#dc1ba0" d="M56 56h1v1h-1z" /><path fill="#d81ba4" d="M57 56h1v1h-1z" /><path fill="#d41aa8" d="M58 56h1v1h-1z" /><path fill="#d11bac" d="M59 56h1v1h-1z" /><path fill="#ce1bb1" d="M60 56h1v1h-1z" /><path fill="#ca1bb5" d="M61 56h1v1h-1z" /><path fill="#7e0aee" d="M87 56h1v1h-1zM88 57h1v1h-1zM88 58h1v1h-1zM91 64h1v1h-1z" /><path fill="#7303f1" d="M94 56h1v1h-1z" /><path fill="#f62aa2" d="M7 57h1v1h-1z" /><path fill="#f529a1" d="M8 57h1v1h-1zM7 58h1v1h-1z" /><path fill="#f629a0" d="M9 57h1v1h-1z" /><path fill="#f6299f" d="M10 57h1v1h-1z" /><path fill="#f6299e" d="M11 57h1v1h-1z" /><path fill="#f61e81" d="M38 57h1v1h-1zM40 57h1v1h-1z" /><path fill="#f61e82" d="M39 57h1v1h-1z" /><path fill="#f61e7f" d="M41 57h1v1h-1z" /><path fill="#f61d7f" d="M42 57h1v1h-1z" /><path fill="#f51d7f" d="M43 57h1v1h-1z" /><path fill="#f61c7e" d="M44 57h1v1h-1z" /><path fill="#f41c80" d="M45 57h1v1h-1z" /><path fill="#f21c82" d="M46 57h1v1h-1z" /><path fill="#f21c85" d="M47 57h1v1h-1z" /><path fill="#ee1b86" d="M48 57h1v1h-1z" /><path fill="#ed1b87" d="M49 57h1v1h-1z" /><path fill="#ea1b8b" d="M50 57h1v1h-1z" /><path fill="#e91a8d" d="M51 57h1v1h-1z" /><path fill="#e71a91" d="M52 57h1v1h-1z" /><path fill="#e41992" d="M53 57h1v1h-1z" /><path fill="#e21793" d="M54 57h1v1h-1z" /><path fill="#de199a" d="M55 57h1v1h-1z" /><path fill="#dc199c" d="M56 57h1v1h-1z" /><path fill="#d819a0" d="M57 57h1v1h-1z" /><path fill="#d41aa4" d="M58 57h1v1h-1z" /><path fill="#d119a9" d="M59 57h1v1h-1z" /><path fill="#ce19ad" d="M60 57h1v1h-1z" /><path fill="#cb19b0" d="M61 57h1v1h-1z" /><path fill="#c718b4" d="M62 57h1v1h-1z" /><path fill="#f62aa1" d="M6 58h1v1h-1z" /><path fill="#f5299f" d="M8 58h1v1h-1zM6 60h1v1h-1z" /><path fill="#f5299e" d="M9 58h1v1h-1zM7 59h1v1h-1z" /><path fill="#f5289d" d="M10 58h1v1h-1zM8 59h2v1h-2zM7 60h1v1h-1zM6 61h1v1h-1z" /><path fill="#f32591" d="M11 58h1v1h-1z" /><path fill="#f529a0" d="M6 59h1v1h-1z" /><path fill="#f5289c" d="M10 59h1v1h-1zM7 61h1v1h-1z" /><path fill="#f5289b" d="M8 60h1v1h-1z" /><path fill="#f4289a" d="M9 60h1v1h-1zM8 61h1v1h-1zM7 62h1v1h-1z" /><path fill="#f32492" d="M10 60h1v1h-1z" /><path fill="#7e09ee" d="M89 60h1v1h-1zM90 62h1v1h-1zM92 66h1v1h-1z" /><path fill="#7a07f1" d="M92 60h1v1h-1zM93 62h1v1h-1z" /><path fill="#f42798" d="M9 61h1v1h-1zM8 62h1v1h-1z" /><path fill="#f01c7f" d="M10 61h1v1h-1z" /><path fill="#f42799" d="M6 62h1v1h-1zM7 63h1v1h-1z" /><path fill="#f32592" d="M9 62h1v1h-1z" /><path fill="#f22594" d="M6 63h1v1h-1z" /><path fill="#f42797" d="M8 63h1v1h-1zM7 64h1v1h-1z" /><path fill="#ef1d7f" d="M9 63h1v1h-1z" /><path fill="#f12390" d="M6 64h1v1h-1z" /><path fill="#f22493" d="M8 64h1v1h-1z" /><path fill="#7b08ef" d="M93 64h1v1h-1zM93 65h1v1h-1z" /><path fill="#f1228a" d="M6 65h1v1h-1z" /><path fill="#f32695" d="M7 65h1v1h-1z" /><path fill="#ef1d80" d="M8 65h1v1h-1zM6 68h1v1h-1z" /><path fill="#f12087" d="M6 66h1v1h-1z" /><path fill="#f22592" d="M7 66h1v1h-1z" /><path fill="#f01f84" d="M6 67h1v1h-1z" /><path fill="#f01f82" d="M7 67h1v1h-1z" /><path fill="#7c08ee" d="M93 67h1v1h-1z" /><path fill="#7d0aee" d="M93 68h1v1h-1z" /><path fill="#f61a69" d="M31 73h1v1h-1z" /><path fill="#f81a6a" d="M32 73h1v1h-1zM35 75h1v1h-1z" /><path fill="#f8196a" d="M33 73h1v1h-1zM35 73h1v1h-1z" /><path fill="#f81969" d="M34 73h1v1h-1z" /><path fill="#f81768" d="M36 73h1v1h-1z" /><path fill="#f81767" d="M37 73h2v1h-2z" /><path fill="#f81668" d="M39 73h1v1h-1z" /><path fill="#f61668" d="M40 73h1v1h-1z" /><path fill="#f61667" d="M41 73h1v1h-1zM41 74h1v1h-1z" /><path fill="#f41667" d="M42 73h1v1h-1z" /><path fill="#f41466" d="M43 73h1v1h-1z" /><path fill="#f61365" d="M44 73h1v1h-1zM45 74h1v1h-1z" /><path fill="#f41365" d="M45 73h1v1h-1z" /><path fill="#f61166" d="M46 73h1v1h-1z" /><path fill="#f41166" d="M47 73h1v1h-1z" /><path fill="#f61163" d="M48 73h1v1h-1z" /><path fill="#f40f61" d="M49 73h1v1h-1z" /><path fill="#f21062" d="M50 73h2v1h-2z" /><path fill="#f20e60" d="M52 73h1v1h-1z" /><path fill="#ee0e64" d="M53 73h1v1h-1z" /><path fill="#ec0e67" d="M54 73h1v1h-1z" /><path fill="#ec0c69" d="M55 73h1v1h-1z" /><path fill="#e90c6d" d="M56 73h1v1h-1z" /><path fill="#e80b6f" d="M57 73h1v1h-1z" /><path fill="#e50b76" d="M58 73h1v1h-1z" /><path fill="#e10b78" d="M59 73h1v1h-1z" /><path fill="#e1097a" d="M60 73h1v1h-1z" /><path fill="#db097e" d="M61 73h1v1h-1z" /><path fill="#db0983" d="M62 73h1v1h-1z" /><path fill="#d50988" d="M63 73h1v1h-1z" /><path fill="#d0098e" d="M64 73h1v1h-1z" /><path fill="#cc0b94" d="M65 73h1v1h-1z" /><path fill="#ca0b99" d="M66 73h1v1h-1z" /><path fill="#c60d9f" d="M67 73h1v1h-1zM68 75h1v1h-1z" /><path fill="#c10da5" d="M68 73h1v1h-1z" /><path fill="#f51c6f" d="M30 74h1v1h-1z" /><path fill="#f61b6e" d="M31 74h1v1h-1z" /><path fill="#f71c6e" d="M32 74h1v1h-1z" /><path fill="#f81b6d" d="M33 74h1v1h-1z" /><path fill="#f81c6c" d="M34 74h1v1h-1z" /><path fill="#f81b6c" d="M35 74h1v1h-1z" /><path fill="#f81a6b" d="M36 74h1v1h-1z" /><path fill="#f71a6a" d="M37 74h1v1h-1zM33 76h1v1h-1z" /><path fill="#f71869" d="M38 74h1v1h-1z" /><path fill="#f71769" d="M39 74h1v1h-1z" /><path fill="#f71768" d="M40 74h1v1h-1z" /><path fill="#f61568" d="M42 74h1v1h-1z" /><path fill="#f61666" d="M43 74h1v1h-1z" /><path fill="#f61466" d="M44 74h1v1h-1z" /><path fill="#f51364" d="M46 74h1v1h-1z" /><path fill="#f51264" d="M47 74h1v1h-1z" /><path fill="#f41163" d="M48 74h2v1h-2z" /><path fill="#f40f62" d="M50 74h1v1h-1z" /><path fill="#f30e61" d="M51 74h1v1h-1z" /><path fill="#f30d61" d="M52 74h1v1h-1z" /><path fill="#f20d62" d="M53 74h1v1h-1z" /><path fill="#ef0d65" d="M54 74h1v1h-1z" /><path fill="#ed0c67" d="M55 74h1v1h-1z" /><path fill="#ea0b6b" d="M56 74h1v1h-1z" /><path fill="#e80c6e" d="M57 74h1v1h-1z" /><path fill="#e60b71" d="M58 74h1v1h-1z" /><path fill="#e30a74" d="M59 74h1v1h-1z" /><path fill="#e00978" d="M60 74h1v1h-1z" /><path fill="#dd087c" d="M61 74h1v1h-1zM66 84h1v1h-1zM67 86h1v1h-1z" /><path fill="#da0880" d="M62 74h1v1h-1zM63 76h1v1h-1zM64 78h1v1h-1zM65 80h1v1h-1z" /><path fill="#d70985" d="M63 74h1v1h-1z" /><path fill="#d30a8b" d="M64 74h1v1h-1zM65 76h1v1h-1z" /><path fill="#cf0b91" d="M65 74h1v1h-1zM66 76h1v1h-1zM67 78h1v1h-1z" /><path fill="#cb0c97" d="M66 74h1v1h-1zM67 76h1v1h-1zM68 78h1v1h-1zM69 80h1v1h-1z" /><path fill="#c80c9c" d="M67 74h1v1h-1z" /><path fill="#c40da2" d="M68 74h1v1h-1zM69 76h1v1h-1z" /><path fill="#c00ea8" d="M69 74h1v1h-1z" /><path fill="#f51867" d="M29 75h1v1h-1z" /><path fill="#f51b6d" d="M30 75h1v1h-1z" /><path fill="#f61b6c" d="M31 75h1v1h-1z" /><path fill="#f71b6c" d="M32 75h1v1h-1z" /><path fill="#f71b6b" d="M33 75h1v1h-1z" /><path fill="#f81b6b" d="M34 75h1v1h-1z" /><path fill="#f81a69" d="M36 75h1v1h-1z" /><path fill="#f71969" d="M37 75h1v1h-1zM34 76h1v1h-1z" /><path fill="#f71767" d="M38 75h2v1h-2z" /><path fill="#f71666" d="M40 75h1v1h-1z" /><path fill="#f71566" d="M41 75h1v1h-1z" /><path fill="#f61665" d="M42 75h1v1h-1z" /><path fill="#f61564" d="M43 75h1v1h-1z" /><path fill="#f61364" d="M44 75h1v1h-1z" /><path fill="#f61362" d="M45 75h1v1h-1z" /><path fill="#f51262" d="M46 75h1v1h-1z" /><path fill="#f41161" d="M47 75h1v1h-1z" /><path fill="#f41061" d="M48 75h1v1h-1z" /><path fill="#f41060" d="M49 75h1v1h-1zM47 76h1v1h-1z" /><path fill="#f40e60" d="M50 75h1v1h-1z" /><path fill="#f30d5f" d="M51 75h1v1h-1zM53 75h1v1h-1z" /><path fill="#f30c5f" d="M52 75h1v1h-1z" /><path fill="#f00c62" d="M54 75h1v1h-1z" /><path fill="#ee0b65" d="M55 75h1v1h-1z" /><path fill="#eb0a68" d="M56 75h1v1h-1z" /><path fill="#e90a6b" d="M57 75h1v1h-1z" /><path fill="#e60a6e" d="M58 75h1v1h-1z" /><path fill="#e30972" d="M59 75h1v1h-1z" /><path fill="#e10875" d="M60 75h1v1h-1zM62 79h1v1h-1zM63 81h1v1h-1z" /><path fill="#de0878" d="M61 75h1v1h-1z" /><path fill="#dc087d" d="M62 75h1v1h-1zM63 77h1v1h-1zM64 79h1v1h-1z" /><path fill="#d80983" d="M63 75h1v1h-1zM64 77h1v1h-1zM65 79h1v1h-1zM66 81h1v1h-1z" /><path fill="#d50a88" d="M64 75h1v1h-1z" /><path fill="#d10a8e" d="M65 75h1v1h-1zM66 77h1v1h-1z" /><path fill="#cd0b94" d="M66 75h1v1h-1zM67 77h1v1h-1zM68 79h1v1h-1z" /><path fill="#c90c9a" d="M67 75h1v1h-1zM68 77h1v1h-1zM69 79h1v1h-1zM70 81h1v1h-1z" /><path fill="#c20ea5" d="M69 75h1v1h-1zM70 77h1v1h-1z" /><path fill="#be0daa" d="M70 75h1v1h-1z" /><path fill="#f31a6a" d="M29 76h1v1h-1z" /><path fill="#f51a6c" d="M30 76h1v1h-1z" /><path fill="#f51a6b" d="M31 76h1v1h-1z" /><path fill="#f6196a" d="M32 76h1v1h-1z" /><path fill="#f81a68" d="M35 76h1v1h-1z" /><path fill="#f81968" d="M36 76h1v1h-1z" /><path fill="#f81867" d="M37 76h1v1h-1z" /><path fill="#f71866" d="M38 76h1v1h-1z" /><path fill="#f71665" d="M39 76h1v1h-1z" /><path fill="#f71565" d="M40 76h1v1h-1z" /><path fill="#f71664" d="M41 76h1v1h-1z" /><path fill="#f61563" d="M42 76h1v1h-1zM41 77h1v1h-1z" /><path fill="#f61463" d="M43 76h1v1h-1z" /><path fill="#f51362" d="M44 76h1v1h-1z" /><path fill="#f51261" d="M45 76h1v1h-1z" /><path fill="#f51161" d="M46 76h1v1h-1z" /><path fill="#f4105f" d="M48 76h1v1h-1z" /><path fill="#f40f5f" d="M49 76h1v1h-1z" /><path fill="#f40e5e" d="M50 76h1v1h-1zM49 77h1v1h-1z" /><path fill="#f40d5d" d="M51 76h1v1h-1z" /><path fill="#f30d5d" d="M52 76h1v1h-1z" /><path fill="#f30c5c" d="M53 76h1v1h-1z" /><path fill="#f10b5e" d="M54 76h1v1h-1z" /><path fill="#ef0a61" d="M55 76h1v1h-1z" /><path fill="#ed0a64" d="M56 76h1v1h-1z" /><path fill="#e90967" d="M57 76h1v1h-1z" /><path fill="#e7096a" d="M58 76h1v1h-1z" /><path fill="#e4086e" d="M59 76h1v1h-1zM60 78h1v1h-1zM61 80h1v1h-1zM62 82h1v1h-1z" /><path fill="#e20872" d="M60 76h1v1h-1zM61 78h1v1h-1zM62 80h1v1h-1z" /><path fill="#e00876" d="M61 76h1v1h-1z" /><path fill="#dd087b" d="M62 76h1v1h-1zM63 78h1v1h-1zM64 80h1v1h-1zM65 82h1v1h-1z" /><path fill="#d60986" d="M64 76h1v1h-1zM65 78h1v1h-1zM66 80h1v1h-1zM67 82h1v1h-1z" /><path fill="#c70c9d" d="M68 76h1v1h-1z" /><path fill="#c00da7" d="M70 76h1v1h-1z" /><path fill="#f41969" d="M29 77h2v1h-2z" /><path fill="#f51968" d="M31 77h1v1h-1z" /><path fill="#f61967" d="M32 77h2v1h-2z" /><path fill="#f71868" d="M34 77h1v1h-1z" /><path fill="#f81967" d="M35 77h1v1h-1z" /><path fill="#f81866" d="M36 77h1v1h-1z" /><path fill="#f81766" d="M37 77h1v1h-1z" /><path fill="#f71765" d="M38 77h1v1h-1z" /><path fill="#f71564" d="M39 77h1v1h-1z" /><path fill="#f71563" d="M40 77h1v1h-1z" /><path fill="#f61462" d="M42 77h1v1h-1z" /><path fill="#f51361" d="M43 77h1v1h-1z" /><path fill="#f51360" d="M44 77h1v1h-1zM43 78h1v1h-1z" /><path fill="#f51160" d="M45 77h1v1h-1z" /><path fill="#f5105f" d="M46 77h1v1h-1z" /><path fill="#f40f5e" d="M47 77h2v1h-2z" /><path fill="#f40d5c" d="M50 77h1v1h-1z" /><path fill="#f40c5c" d="M51 77h1v1h-1z" /><path fill="#f30c5b" d="M52 77h1v1h-1z" /><path fill="#f30b5a" d="M53 77h1v1h-1z" /><path fill="#f20a5b" d="M54 77h1v1h-1z" /><path fill="#ef095e" d="M55 77h1v1h-1z" /><path fill="#ed0961" d="M56 77h1v1h-1z" /><path fill="#ea0864" d="M57 77h1v1h-1z" /><path fill="#e80767" d="M58 77h1v1h-1zM59 79h1v1h-1z" /><path fill="#e6086c" d="M59 77h1v1h-1z" /><path fill="#e30870" d="M60 77h1v1h-1zM61 79h1v1h-1zM62 81h1v1h-1z" /><path fill="#e10874" d="M61 77h1v1h-1z" /><path fill="#de0879" d="M62 77h1v1h-1zM63 79h1v1h-1zM64 81h1v1h-1zM65 83h1v1h-1z" /><path fill="#d40a89" d="M65 77h1v1h-1zM66 79h1v1h-1zM67 81h1v1h-1zM68 83h1v1h-1z" /><path fill="#c50da0" d="M69 77h1v1h-1zM70 79h1v1h-1zM71 81h1v1h-1z" /><path fill="#f11765" d="M28 78h1v1h-1zM28 80h1v1h-1z" /><path fill="#f31968" d="M29 78h1v1h-1z" /><path fill="#f41867" d="M30 78h2v1h-2z" /><path fill="#f51866" d="M32 78h1v1h-1z" /><path fill="#f61765" d="M33 78h1v1h-1z" /><path fill="#f61865" d="M34 78h1v1h-1z" /><path fill="#f71864" d="M35 78h1v1h-1z" /><path fill="#f81764" d="M36 78h1v1h-1z" /><path fill="#f81763" d="M37 78h1v1h-1z" /><path fill="#f81662" d="M38 78h1v1h-1z" /><path fill="#f71561" d="M39 78h1v1h-1zM38 79h1v1h-1z" /><path fill="#f61561" d="M40 78h1v1h-1z" /><path fill="#f61460" d="M41 78h1v1h-1z" /><path fill="#f61360" d="M42 78h1v1h-1z" /><path fill="#f5125f" d="M44 78h1v1h-1z" /><path fill="#f5115e" d="M45 78h1v1h-1z" /><path fill="#f50f5d" d="M46 78h2v1h-2z" /><path fill="#f40e5d" d="M48 78h1v1h-1z" /><path fill="#f40d5b" d="M49 78h1v1h-1zM51 78h1v1h-1z" /><path fill="#f40c5b" d="M50 78h1v1h-1z" /><path fill="#f30b59" d="M52 78h1v1h-1z" /><path fill="#f20a59" d="M53 78h1v1h-1z" /><path fill="#f20959" d="M54 78h1v1h-1z" /><path fill="#f0095b" d="M55 78h1v1h-1z" /><path fill="#ee085d" d="M56 78h1v1h-1z" /><path fill="#eb0761" d="M57 78h1v1h-1zM58 80h1v1h-1zM59 82h1v1h-1zM60 84h1v1h-1z" /><path fill="#e90765" d="M58 78h1v1h-1zM59 80h1v1h-1z" /><path fill="#e7086a" d="M59 78h1v1h-1zM60 80h1v1h-1z" /><path fill="#e00877" d="M62 78h1v1h-1z" /><path fill="#d20a8c" d="M66 78h1v1h-1zM67 80h1v1h-1zM68 82h1v1h-1zM69 84h1v1h-1z" /><path fill="#c70d9d" d="M69 78h1v1h-1zM70 80h1v1h-1zM71 82h1v1h-1z" /><path fill="#c30da3" d="M70 78h1v1h-1zM71 80h1v1h-1zM72 82h1v1h-1zM73 84h1v1h-1z" /><path fill="#bf0ea7" d="M71 78h1v1h-1z" /><path fill="#f21766" d="M28 79h1v1h-1z" /><path fill="#f31866" d="M29 79h1v1h-1z" /><path fill="#f31865" d="M30 79h1v1h-1z" /><path fill="#f41765" d="M31 79h1v1h-1z" /><path fill="#f51764" d="M32 79h2v1h-2z" /><path fill="#f61764" d="M34 79h1v1h-1z" /><path fill="#f71663" d="M35 79h1v1h-1z" /><path fill="#f81762" d="M36 79h1v1h-1z" /><path fill="#f71661" d="M37 79h1v1h-1z" /><path fill="#f61660" d="M39 79h1v1h-1z" /><path fill="#f6145f" d="M40 79h1v1h-1z" /><path fill="#f6135e" d="M41 79h1v1h-1z" /><path fill="#f6125e" d="M42 79h1v1h-1z" /><path fill="#f6125d" d="M43 79h1v1h-1zM41 80h2v1h-2z" /><path fill="#f5115c" d="M44 79h1v1h-1z" /><path fill="#f5105c" d="M45 79h1v1h-1z" /><path fill="#f50f5b" d="M46 79h1v1h-1z" /><path fill="#f50e5b" d="M47 79h1v1h-1z" /><path fill="#f40d5a" d="M48 79h1v1h-1z" /><path fill="#f40d59" d="M49 79h2v1h-2z" /><path fill="#f40c57" d="M51 79h1v1h-1z" /><path fill="#f30a57" d="M52 79h1v1h-1z" /><path fill="#f20957" d="M53 79h1v1h-1z" /><path fill="#f20856" d="M54 79h1v1h-1z" /><path fill="#f10856" d="M55 79h1v1h-1z" /><path fill="#ef075a" d="M56 79h1v1h-1z" /><path fill="#ed075f" d="M57 79h1v1h-1zM58 81h1v1h-1z" /><path fill="#ea0763" d="M58 79h1v1h-1zM59 81h1v1h-1z" /><path fill="#e5086c" d="M60 79h1v1h-1zM61 81h1v1h-1zM62 83h1v1h-1zM63 85h1v1h-1z" /><path fill="#d10a8f" d="M67 79h1v1h-1z" /><path fill="#c10ea6" d="M71 79h1v1h-1z" /><path fill="#f21764" d="M29 80h1v1h-1z" /><path fill="#f31764" d="M30 80h1v1h-1z" /><path fill="#f31763" d="M31 80h1v1h-1z" /><path fill="#f41763" d="M32 80h1v1h-1z" /><path fill="#f41662" d="M33 80h1v1h-1z" /><path fill="#f51661" d="M34 80h1v1h-1z" /><path fill="#f61661" d="M35 80h1v1h-1z" /><path fill="#f71660" d="M36 80h1v1h-1z" /><path fill="#f71560" d="M37 80h1v1h-1z" /><path fill="#f7155f" d="M38 80h2v1h-2zM36 81h2v1h-2z" /><path fill="#f6135d" d="M40 80h1v1h-1z" /><path fill="#f6115b" d="M43 80h1v1h-1z" /><path fill="#f5105b" d="M44 80h1v1h-1z" /><path fill="#f50f5a" d="M45 80h1v1h-1z" /><path fill="#f50f59" d="M46 80h1v1h-1z" /><path fill="#f50d59" d="M47 80h1v1h-1z" /><path fill="#f50d58" d="M48 80h1v1h-1z" /><path fill="#f40c58" d="M49 80h1v1h-1z" /><path fill="#f30c57" d="M50 80h1v1h-1z" /><path fill="#f30b56" d="M51 80h1v1h-1z" /><path fill="#f30a56" d="M52 80h1v1h-1z" /><path fill="#f20855" d="M53 80h1v1h-1z" /><path fill="#f20755" d="M54 80h2v1h-2zM55 81h1v1h-1zM56 82h1v1h-1zM56 83h1v1h-1zM57 84h1v1h-1zM57 85h1v1h-1zM58 86h1v1h-1zM58 87h1v1h-1zM59 88h1v1h-1zM59 89h1v1h-1zM60 90h1v1h-1zM60 91h1v1h-1z" /><path fill="#f00758" d="M56 80h1v1h-1z" /><path fill="#ee075d" d="M57 80h1v1h-1zM58 82h1v1h-1zM59 84h1v1h-1z" /><path fill="#df0877" d="M63 80h1v1h-1zM64 82h1v1h-1zM65 84h1v1h-1zM66 86h1v1h-1z" /><path fill="#cf0b92" d="M68 80h1v1h-1z" /><path fill="#c00da8" d="M72 80h1v1h-1z" /><path fill="#f01461" d="M27 81h1v1h-1z" /><path fill="#f11662" d="M28 81h1v1h-1z" /><path fill="#f21661" d="M29 81h2v1h-2z" /><path fill="#f31660" d="M31 81h1v1h-1z" /><path fill="#f41660" d="M32 81h2v1h-2z" /><path fill="#f51560" d="M34 81h1v1h-1z" /><path fill="#f6165f" d="M35 81h1v1h-1z" /><path fill="#f7155d" d="M38 81h1v1h-1z" /><path fill="#f7145d" d="M39 81h1v1h-1z" /><path fill="#f6135c" d="M40 81h1v1h-1z" /><path fill="#f6125c" d="M41 81h1v1h-1z" /><path fill="#f6115a" d="M42 81h1v1h-1z" /><path fill="#f6105a" d="M43 81h1v1h-1z" /><path fill="#f60f5a" d="M44 81h1v1h-1z" /><path fill="#f50f58" d="M45 81h1v1h-1z" /><path fill="#f50e58" d="M46 81h1v1h-1z" /><path fill="#f50d57" d="M47 81h1v1h-1z" /><path fill="#f50c57" d="M48 81h1v1h-1z" /><path fill="#f30c56" d="M49 81h1v1h-1z" /><path fill="#f30b55" d="M50 81h1v1h-1z" /><path fill="#f30a55" d="M51 81h1v1h-1z" /><path fill="#f30954" d="M52 81h1v1h-1z" /><path fill="#f30754" d="M53 81h1v1h-1z" /><path fill="#f20754" d="M54 81h1v1h-1zM55 82h1v1h-1zM55 83h1v1h-1zM56 84h1v1h-1zM56 85h1v1h-1zM56 86h2v1h-2zM57 87h1v1h-1zM57 88h2v1h-2zM58 89h1v1h-1zM58 90h2v1h-2zM59 91h1v1h-1zM59 92h2v1h-2zM60 93h1v1h-1z" /><path fill="#f10756" d="M56 81h1v1h-1zM57 83h1v1h-1z" /><path fill="#ef075b" d="M57 81h1v1h-1zM58 83h1v1h-1zM59 85h1v1h-1zM60 87h1v1h-1z" /><path fill="#e80768" d="M60 81h1v1h-1zM61 83h1v1h-1z" /><path fill="#dc087e" d="M65 81h1v1h-1z" /><path fill="#d00b8f" d="M68 81h1v1h-1zM69 83h1v1h-1zM70 85h1v1h-1z" /><path fill="#cd0b95" d="M69 81h1v1h-1z" /><path fill="#c10ea5" d="M72 81h1v1h-1z" /><path fill="#ef1561" d="M27 82h1v1h-1z" /><path fill="#f01661" d="M28 82h1v1h-1z" /><path fill="#f11560" d="M29 82h1v1h-1z" /><path fill="#f1155f" d="M30 82h1v1h-1z" /><path fill="#f2155f" d="M31 82h1v1h-1z" /><path fill="#f3155e" d="M32 82h1v1h-1z" /><path fill="#f3145d" d="M33 82h1v1h-1z" /><path fill="#f4155d" d="M34 82h1v1h-1z" /><path fill="#f5145c" d="M35 82h1v1h-1z" /><path fill="#f6145c" d="M36 82h1v1h-1z" /><path fill="#f6155b" d="M37 82h1v1h-1z" /><path fill="#f7145b" d="M38 82h1v1h-1z" /><path fill="#f7135a" d="M39 82h1v1h-1zM38 83h1v1h-1z" /><path fill="#f7125a" d="M40 82h1v1h-1z" /><path fill="#f61158" d="M41 82h1v1h-1z" /><path fill="#f61058" d="M42 82h1v1h-1z" /><path fill="#f60f59" d="M43 82h1v1h-1z" /><path fill="#f60e57" d="M44 82h1v1h-1z" /><path fill="#f50e57" d="M45 82h2v1h-2z" /><path fill="#f50c56" d="M47 82h1v1h-1z" /><path fill="#f40b55" d="M48 82h2v1h-2z" /><path fill="#f30a54" d="M50 82h1v1h-1z" /><path fill="#f30953" d="M51 82h1v1h-1z" /><path fill="#f30853" d="M52 82h2v1h-2zM54 84h1v1h-1zM55 86h1v1h-1zM56 89h1v1h-1zM57 91h1v1h-1zM58 93h1v1h-1z" /><path fill="#f20753" d="M54 82h1v1h-1zM55 84h1v1h-1z" /><path fill="#f00759" d="M57 82h1v1h-1zM58 84h1v1h-1zM59 86h1v1h-1zM60 88h1v1h-1zM61 90h1v1h-1z" /><path fill="#e90766" d="M60 82h1v1h-1zM61 84h1v1h-1zM62 86h1v1h-1zM63 88h1v1h-1z" /><path fill="#e6086a" d="M61 82h1v1h-1zM62 84h1v1h-1zM63 86h1v1h-1z" /><path fill="#e20873" d="M63 82h1v1h-1zM64 84h1v1h-1z" /><path fill="#da0981" d="M66 82h1v1h-1z" /><path fill="#ce0b92" d="M69 82h1v1h-1zM70 84h1v1h-1z" /><path fill="#cb0c98" d="M70 82h1v1h-1z" /><path fill="#ee135d" d="M26 83h1v1h-1z" /><path fill="#ef155f" d="M27 83h1v1h-1z" /><path fill="#f0145f" d="M28 83h1v1h-1z" /><path fill="#f1145e" d="M29 83h1v1h-1z" /><path fill="#f1145d" d="M30 83h1v1h-1z" /><path fill="#f2145c" d="M31 83h1v1h-1z" /><path fill="#f3145c" d="M32 83h2v1h-2z" /><path fill="#f4145c" d="M34 83h1v1h-1z" /><path fill="#f5135b" d="M35 83h2v1h-2z" /><path fill="#f6135a" d="M37 83h1v1h-1z" /><path fill="#f71259" d="M39 83h1v1h-1z" /><path fill="#f71258" d="M40 83h1v1h-1z" /><path fill="#f61157" d="M41 83h1v1h-1z" /><path fill="#f60f57" d="M42 83h1v1h-1z" /><path fill="#f60e56" d="M43 83h1v1h-1z" /><path fill="#f60e55" d="M44 83h2v1h-2zM42 84h1v1h-1z" /><path fill="#f50d53" d="M46 83h1v1h-1zM45 84h1v1h-1z" /><path fill="#f40c53" d="M47 83h1v1h-1z" /><path fill="#f40b53" d="M48 83h1v1h-1z" /><path fill="#f40a52" d="M49 83h1v1h-1z" /><path fill="#f30951" d="M50 83h1v1h-1z" /><path fill="#f30851" d="M51 83h1v1h-1zM51 84h2v1h-2zM52 85h1v1h-1zM52 86h2v1h-2zM53 87h1v1h-1zM53 88h2v1h-2zM54 89h1v1h-1zM54 90h2v1h-2zM55 91h1v1h-1zM55 92h1v1h-1zM56 93h1v1h-1zM56 94h1v1h-1z" /><path fill="#f30852" d="M52 83h2v1h-2zM53 84h1v1h-1zM53 85h2v1h-2zM54 86h1v1h-1zM54 87h2v1h-2zM55 88h1v1h-1zM55 89h1v1h-1zM56 90h1v1h-1zM56 91h1v1h-1zM56 92h2v1h-2zM57 93h1v1h-1zM57 94h2v1h-2z" /><path fill="#f30753" d="M54 83h1v1h-1zM55 85h1v1h-1zM56 87h1v1h-1zM56 88h1v1h-1zM57 89h1v1h-1zM57 90h1v1h-1zM58 91h1v1h-1zM58 92h1v1h-1zM59 93h1v1h-1z" /><path fill="#ec075f" d="M59 83h1v1h-1zM60 85h1v1h-1z" /><path fill="#ea0764" d="M60 83h1v1h-1zM61 85h1v1h-1zM62 87h1v1h-1zM63 89h1v1h-1z" /><path fill="#e30871" d="M63 83h1v1h-1zM64 85h1v1h-1zM65 87h1v1h-1z" /><path fill="#e00875" d="M64 83h1v1h-1zM65 85h1v1h-1zM66 87h1v1h-1z" /><path fill="#db087e" d="M66 83h1v1h-1zM67 85h1v1h-1zM68 87h1v1h-1z" /><path fill="#d80984" d="M67 83h1v1h-1z" /><path fill="#cc0b95" d="M70 83h1v1h-1zM71 85h1v1h-1z" /><path fill="#c90c9b" d="M71 83h1v1h-1z" /><path fill="#c50da1" d="M72 83h1v1h-1z" /><path fill="#c00ea6" d="M73 83h1v1h-1z" /><path fill="#ed135e" d="M26 84h1v1h-1z" /><path fill="#ee145e" d="M27 84h1v1h-1z" /><path fill="#ef135d" d="M28 84h1v1h-1z" /><path fill="#f0135d" d="M29 84h1v1h-1z" /><path fill="#f0135c" d="M30 84h1v1h-1z" /><path fill="#f1135b" d="M31 84h1v1h-1z" /><path fill="#f2125b" d="M32 84h1v1h-1z" /><path fill="#f2135a" d="M33 84h1v1h-1z" /><path fill="#f3125a" d="M34 84h1v1h-1z" /><path fill="#f41259" d="M35 84h1v1h-1z" /><path fill="#f51258" d="M36 84h2v1h-2z" /><path fill="#f61257" d="M38 84h1v1h-1z" /><path fill="#f71157" d="M39 84h1v1h-1z" /><path fill="#f71156" d="M40 84h1v1h-1zM39 85h1v1h-1z" /><path fill="#f71056" d="M41 84h1v1h-1z" /><path fill="#f60e54" d="M43 84h2v1h-2z" /><path fill="#f40c52" d="M46 84h1v1h-1z" /><path fill="#f40b52" d="M47 84h1v1h-1z" /><path fill="#f40a51" d="M48 84h1v1h-1z" /><path fill="#f40950" d="M49 84h1v1h-1z" /><path fill="#f40850" d="M50 84h1v1h-1zM50 85h1v1h-1zM51 86h1v1h-1zM51 87h1v1h-1zM52 88h1v1h-1zM52 89h1v1h-1zM53 90h1v1h-1zM53 91h1v1h-1zM54 92h1v1h-1zM54 93h1v1h-1zM55 95h1v1h-1z" /><path fill="#e4086f" d="M63 84h1v1h-1zM64 86h1v1h-1zM65 88h1v1h-1z" /><path fill="#d90981" d="M67 84h1v1h-1zM68 86h1v1h-1z" /><path fill="#d60987" d="M68 84h1v1h-1zM69 86h1v1h-1z" /><path fill="#ca0c98" d="M71 84h1v1h-1z" /><path fill="#c70d9e" d="M72 84h1v1h-1z" /><path fill="#ed125a" d="M26 85h1v1h-1z" /><path fill="#ee125b" d="M27 85h1v1h-1z" /><path fill="#ef125a" d="M28 85h1v1h-1z" /><path fill="#ef1259" d="M29 85h1v1h-1z" /><path fill="#f01259" d="M30 85h1v1h-1z" /><path fill="#f11258" d="M31 85h2v1h-2z" /><path fill="#f21258" d="M33 85h1v1h-1z" /><path fill="#f31158" d="M34 85h1v1h-1z" /><path fill="#f41258" d="M35 85h1v1h-1z" /><path fill="#f41157" d="M36 85h1v1h-1z" /><path fill="#f51157" d="M37 85h1v1h-1z" /><path fill="#f61056" d="M38 85h1v1h-1z" /><path fill="#f71055" d="M40 85h1v1h-1z" /><path fill="#f70f54" d="M41 85h1v1h-1z" /><path fill="#f60e53" d="M42 85h2v1h-2z" /><path fill="#f50d52" d="M44 85h1v1h-1z" /><path fill="#f50c51" d="M45 85h1v1h-1z" /><path fill="#f50b51" d="M46 85h1v1h-1z" /><path fill="#f40b50" d="M47 85h1v1h-1z" /><path fill="#f40a4f" d="M48 85h1v1h-1z" /><path fill="#f4084f" d="M49 85h1v1h-1zM49 86h2v1h-2zM50 87h1v1h-1zM50 88h2v1h-2zM51 89h1v1h-1zM51 90h2v1h-2zM52 91h1v1h-1zM52 92h2v1h-2zM53 93h1v1h-1zM53 94h2v1h-2zM54 95h1v1h-1z" /><path fill="#f30850" d="M51 85h1v1h-1zM52 87h1v1h-1zM53 89h1v1h-1zM54 91h1v1h-1zM55 93h1v1h-1zM55 94h1v1h-1z" /><path fill="#f10757" d="M58 85h1v1h-1zM59 87h1v1h-1zM60 89h1v1h-1zM61 91h1v1h-1z" /><path fill="#e70768" d="M62 85h1v1h-1zM63 87h1v1h-1z" /><path fill="#de087a" d="M66 85h1v1h-1zM67 87h1v1h-1z" /><path fill="#d70984" d="M68 85h1v1h-1zM69 87h1v1h-1z" /><path fill="#d40a8a" d="M69 85h1v1h-1z" /><path fill="#c80c9b" d="M72 85h1v1h-1z" /><path fill="#c40da0" d="M73 85h1v1h-1z" /><path fill="#ed1156" d="M27 86h1v1h-1z" /><path fill="#ed1258" d="M28 86h1v1h-1z" /><path fill="#ef1158" d="M29 86h1v1h-1z" /><path fill="#ef1157" d="M30 86h1v1h-1z" /><path fill="#f01157" d="M31 86h1v1h-1z" /><path fill="#f01156" d="M32 86h1v1h-1z" /><path fill="#f11056" d="M33 86h1v1h-1z" /><path fill="#f21055" d="M34 86h1v1h-1z" /><path fill="#f31054" d="M35 86h2v1h-2z" /><path fill="#f41054" d="M37 86h1v1h-1z" /><path fill="#f51053" d="M38 86h1v1h-1z" /><path fill="#f61052" d="M39 86h1v1h-1z" /><path fill="#f70f52" d="M40 86h1v1h-1z" /><path fill="#f70e52" d="M41 86h1v1h-1z" /><path fill="#f60e51" d="M42 86h1v1h-1zM39 87h1v1h-1z" /><path fill="#f50d50" d="M43 86h1v1h-1z" /><path fill="#f50c50" d="M44 86h1v1h-1z" /><path fill="#f50b4f" d="M45 86h1v1h-1z" /><path fill="#f50a4e" d="M46 86h1v1h-1z" /><path fill="#f40a4d" d="M47 86h1v1h-1z" /><path fill="#f4094e" d="M48 86h1v1h-1zM48 87h2v1h-2zM49 88h1v1h-1zM49 89h2v1h-2zM50 90h1v1h-1zM50 91h2v1h-2zM51 92h1v1h-1zM51 93h2v1h-2zM52 94h1v1h-1zM52 95h2v1h-2zM53 96h1v1h-1zM53 97h1v1h-1z" /><path fill="#ed075d" d="M60 86h1v1h-1z" /><path fill="#eb0762" d="M61 86h1v1h-1zM62 88h1v1h-1zM63 90h1v1h-1z" /><path fill="#e10873" d="M65 86h1v1h-1zM66 88h1v1h-1z" /><path fill="#d20a8d" d="M70 86h1v1h-1z" /><path fill="#ce0b93" d="M71 86h1v1h-1z" /><path fill="#c90c97" d="M72 86h1v1h-1z" /><path fill="#ee1054" d="M29 87h1v1h-1z" /><path fill="#ef0f55" d="M30 87h1v1h-1z" /><path fill="#ef1054" d="M31 87h1v1h-1z" /><path fill="#f01055" d="M32 87h1v1h-1z" /><path fill="#f10f54" d="M33 87h1v1h-1z" /><path fill="#f21054" d="M34 87h1v1h-1z" /><path fill="#f20f53" d="M35 87h1v1h-1z" /><path fill="#f30f53" d="M36 87h1v1h-1z" /><path fill="#f40e52" d="M37 87h1v1h-1z" /><path fill="#f50f52" d="M38 87h1v1h-1z" /><path fill="#f70e51" d="M40 87h1v1h-1z" /><path fill="#f60d50" d="M41 87h1v1h-1z" /><path fill="#f60e4f" d="M42 87h1v1h-1z" /><path fill="#f50d4f" d="M43 87h1v1h-1zM39 88h1v1h-1z" /><path fill="#f50b4e" d="M44 87h1v1h-1z" /><path fill="#f50a4d" d="M45 87h1v1h-1z" /><path fill="#f5094d" d="M46 87h2v1h-2zM48 89h1v1h-1zM48 90h1v1h-1zM49 92h1v1h-1zM50 94h1v1h-1zM51 96h1v1h-1z" /><path fill="#ec0760" d="M61 87h1v1h-1zM62 89h1v1h-1z" /><path fill="#e5086d" d="M64 87h1v1h-1zM65 89h1v1h-1z" /><path fill="#d30a89" d="M70 87h1v1h-1z" /><path fill="#ee0f51" d="M31 88h1v1h-1z" /><path fill="#f00e53" d="M32 88h1v1h-1z" /><path fill="#f00f52" d="M33 88h1v1h-1z" /><path fill="#f10e51" d="M34 88h2v1h-2z" /><path fill="#f20d50" d="M36 88h1v1h-1z" /><path fill="#f30e50" d="M37 88h1v1h-1z" /><path fill="#f40e4f" d="M38 88h1v1h-1z" /><path fill="#f50e4f" d="M40 88h1v1h-1z" /><path fill="#f60e4e" d="M41 88h1v1h-1z" /><path fill="#f60d4e" d="M42 88h1v1h-1z" /><path fill="#f50c4d" d="M43 88h1v1h-1zM40 89h1v1h-1z" /><path fill="#f50a4c" d="M44 88h1v1h-1z" /><path fill="#f5094c" d="M45 88h3v1h-3zM47 89h1v1h-1zM47 90h1v1h-1zM48 91h1v1h-1zM48 92h1v1h-1zM48 93h2v1h-2zM49 94h1v1h-1zM49 95h2v1h-2zM50 96h1v1h-1zM50 97h2v1h-2z" /><path fill="#f4094d" d="M48 88h1v1h-1zM49 90h1v1h-1zM49 91h1v1h-1zM50 92h1v1h-1zM50 93h1v1h-1zM51 94h1v1h-1zM51 95h1v1h-1zM52 96h1v1h-1zM52 97h1v1h-1z" /><path fill="#ed075e" d="M61 88h1v1h-1zM62 90h1v1h-1z" /><path fill="#e6086b" d="M64 88h1v1h-1z" /><path fill="#df0878" d="M67 88h1v1h-1z" /><path fill="#dc077b" d="M68 88h1v1h-1z" /><path fill="#f00d4f" d="M33 89h2v1h-2z" /><path fill="#f10d50" d="M35 89h1v1h-1z" /><path fill="#f20c4f" d="M36 89h1v1h-1z" /><path fill="#f30d4e" d="M37 89h1v1h-1z" /><path fill="#f40d4e" d="M38 89h1v1h-1z" /><path fill="#f50d4e" d="M39 89h1v1h-1z" /><path fill="#f60d4d" d="M41 89h1v1h-1z" /><path fill="#f60c4d" d="M42 89h1v1h-1z" /><path fill="#f60b4b" d="M43 89h1v1h-1z" /><path fill="#f50a4b" d="M44 89h1v1h-1z" /><path fill="#f5094b" d="M45 89h2v1h-2zM46 90h1v1h-1zM46 91h2v1h-2zM47 92h1v1h-1zM47 93h1v1h-1zM48 94h1v1h-1zM48 95h1v1h-1zM49 96h1v1h-1zM49 97h1v1h-1zM50 98h1v1h-1z" /><path fill="#ee075b" d="M61 89h1v1h-1z" /><path fill="#e70769" d="M64 89h1v1h-1z" /><path fill="#e10870" d="M66 89h1v1h-1z" /><path fill="#df0776" d="M67 89h1v1h-1z" /><path fill="#f10b4a" d="M34 90h1v1h-1z" /><path fill="#f00c4b" d="M35 90h1v1h-1z" /><path fill="#f10d4c" d="M36 90h1v1h-1z" /><path fill="#f20c4b" d="M37 90h1v1h-1z" /><path fill="#f30c4b" d="M38 90h2v1h-2z" /><path fill="#f40c4a" d="M40 90h1v1h-1z" /><path fill="#f50c4a" d="M41 90h1v1h-1z" /><path fill="#f60b49" d="M42 90h1v1h-1z" /><path fill="#f60a49" d="M43 90h1v1h-1zM43 91h2v1h-2zM44 92h1v1h-1zM44 93h2v1h-2zM45 94h1v1h-1zM45 95h2v1h-2zM46 96h1v1h-1z" /><path fill="#f50a4a" d="M44 90h1v1h-1zM45 91h1v1h-1zM45 92h1v1h-1zM46 93h1v1h-1zM46 94h1v1h-1zM47 95h1v1h-1zM47 96h1v1h-1zM48 97h1v1h-1z" /><path fill="#f5094a" d="M45 90h1v1h-1zM46 92h1v1h-1zM47 94h1v1h-1zM48 96h1v1h-1z" /><path fill="#e80766" d="M64 90h1v1h-1z" /><path fill="#e5076a" d="M65 90h1v1h-1z" /><path fill="#ef0c4a" d="M36 91h1v1h-1z" /><path fill="#f20b4a" d="M37 91h2v1h-2z" /><path fill="#f30a49" d="M39 91h1v1h-1z" /><path fill="#f40b49" d="M40 91h1v1h-1z" /><path fill="#f50a48" d="M41 91h1v1h-1z" /><path fill="#f60a48" d="M42 91h1v1h-1zM43 92h1v1h-1zM43 93h1v1h-1zM44 94h1v1h-1zM44 95h1v1h-1z" /><path fill="#ee075c" d="M62 91h1v1h-1z" /><path fill="#eb0660" d="M63 91h1v1h-1z" /><path fill="#f10a47" d="M38 92h1v1h-1z" /><path fill="#f30a47" d="M39 92h1v1h-1z" /><path fill="#f30a46" d="M40 92h1v1h-1z" /><path fill="#f40946" d="M41 92h1v1h-1zM41 93h1v1h-1z" /><path fill="#f50a47" d="M42 92h1v1h-1zM43 94h1v1h-1z" /><path fill="#f10755" d="M61 92h1v1h-1z" /><path fill="#ee075a" d="M62 92h1v1h-1z" /><path fill="#f30845" d="M40 93h1v1h-1z" /><path fill="#f50947" d="M42 93h1v1h-1zM45 96h1v1h-1z" /><path fill="#f40844" d="M41 94h1v1h-1z" /><path fill="#f40945" d="M42 94h1v1h-1z" /><path fill="#f50847" d="M43 95h1v1h-1z" /><path fill="#f3074f" d="M56 95h1v1h-1z" /><path fill="#f3084f" d="M54 96h1v1h-1z" /><path fill="#f3084e" d="M55 96h1v1h-1z" /><path fill="#f60949" d="M47 97h1v1h-1z" /><path fill="#f40a49" d="M48 98h1v1h-1z" /><path fill="#f4094a" d="M49 98h1v1h-1z" /><path fill="#f4094b" d="M51 98h1v1h-1z" /></svg>