<svg xmlns="http://www.w3.org/2000/svg" viewBox="0 0 100 100" width="1em" height="1em"><path fill="#ef2e65" d="M19 0h1v1h-1zM80 0h1v1h-1zM11 3h1v1h-1zM89 4h1v1h-1zM0 19h1v1h-1zM0 23h1v1h-1zM99 23h1v1h-1zM0 76h1v1h-1zM99 76h1v1h-1zM0 80h1v1h-1zM16 98h1v1h-1zM80 99h1v1h-1z" /><path fill="#f02e65" d="M20 0h1v1h-1zM22 0h56v1h-56zM79 0h1v1h-1zM15 1h1v1h-1zM17 1h66v1h-66zM84 1h1v1h-1zM14 2h72v1h-72zM12 3h76v1h-76zM11 4h78v1h-78zM9 5h82v1h-82zM8 6h84v1h-84zM7 7h86v1h-86zM6 8h89v1h-89zM5 9h90v1h-90zM5 10h90v1h-90zM4 11h92v1h-92zM3 12h94v1h-94zM3 13h94v1h-94zM2 14h96v1h-96zM1 15h97v1h-97zM2 16h96v1h-96zM1 17h98v1h-98zM1 18h98v1h-98zM1 19h98v1h-98zM1 20h98v1h-98zM1 21h98v1h-98zM1 22h99v1h-99zM1 23h98v1h-98zM0 24h100v1h-100zM0 25h30v1h-30zM45 25h10v1h-10zM70 25h30v1h-30zM0 26h27v1h-27zM47 26h5v1h-5zM73 26h27v1h-27zM0 27h25v1h-25zM49 27h1v1h-1zM75 27h25v1h-25zM0 28h23v1h-23zM76 28h24v1h-24zM0 29h22v1h-22zM78 29h22v1h-22zM0 30h21v1h-21zM34 30h7v1h-7zM79 30h21v1h-21zM0 31h19v1h-19zM30 31h14v1h-14zM80 31h20v1h-20zM0 32h18v1h-18zM28 32h18v1h-18zM81 32h19v1h-19zM0 33h18v1h-18zM26 33h22v1h-22zM82 33h18v1h-18zM0 34h17v1h-17zM25 34h24v1h-24zM83 34h17v1h-17zM0 35h16v1h-16zM24 35h27v1h-27zM84 35h16v1h-16zM0 36h15v1h-15zM23 36h29v1h-29zM84 36h16v1h-16zM0 37h15v1h-15zM22 37h30v1h-30zM85 37h15v1h-15zM0 38h14v1h-14zM21 38h32v1h-32zM85 38h15v1h-15zM0 39h14v1h-14zM21 39h33v1h-33zM86 39h14v1h-14zM0 40h13v1h-13zM20 40h35v1h-35zM86 40h14v1h-14zM0 41h13v1h-13zM19 41h18v1h-18zM41 41h14v1h-14zM87 41h13v1h-13zM0 42h13v1h-13zM19 42h18v1h-18zM40 42h16v1h-16zM87 42h13v1h-13zM0 43h12v1h-12zM19 43h18v1h-18zM40 43h16v1h-16zM87 43h13v1h-13zM0 44h12v1h-12zM18 44h19v1h-19zM40 44h16v1h-16zM88 44h12v1h-12zM0 45h12v1h-12zM18 45h18v1h-18zM40 45h17v1h-17zM88 45h12v1h-12zM0 46h12v1h-12zM18 46h12v1h-12zM34 46h2v1h-2zM39 46h1v1h-1zM44 46h13v1h-13zM88 46h12v1h-12zM0 47h12v1h-12zM17 47h12v1h-12zM34 47h2v1h-2zM39 47h1v1h-1zM45 47h12v1h-12zM88 47h12v1h-12zM0 48h12v1h-12zM17 48h12v1h-12zM33 48h3v1h-3zM39 48h2v1h-2zM46 48h11v1h-11zM88 48h12v1h-12zM0 49h12v1h-12zM17 49h11v1h-11zM32 49h3v1h-3zM39 49h3v1h-3zM46 49h11v1h-11zM88 49h12v1h-12zM0 50h12v1h-12zM17 50h12v1h-12zM33 50h2v1h-2zM38 50h3v1h-3zM46 50h11v1h-11zM88 50h12v1h-12zM0 51h12v1h-12zM17 51h13v1h-13zM34 51h1v1h-1zM38 51h2v1h-2zM45 51h12v1h-12zM88 51h12v1h-12zM0 52h12v1h-12zM17 52h14v1h-14zM34 52h1v1h-1zM38 52h2v1h-2zM44 52h13v1h-13zM88 52h12v1h-12zM0 53h12v1h-12zM18 53h17v1h-17zM38 53h19v1h-19zM88 53h12v1h-12zM0 54h12v1h-12zM18 54h16v1h-16zM38 54h19v1h-19zM88 54h12v1h-12zM0 55h12v1h-12zM18 55h16v1h-16zM37 55h19v1h-19zM88 55h12v1h-12zM0 56h12v1h-12zM18 56h16v1h-16zM37 56h19v1h-19zM87 56h13v1h-13zM0 57h13v1h-13zM19 57h37v1h-37zM87 57h13v1h-13zM0 58h13v1h-13zM19 58h36v1h-36zM87 58h13v1h-13zM0 59h13v1h-13zM20 59h35v1h-35zM86 59h14v1h-14zM0 60h14v1h-14zM20 60h34v1h-34zM86 60h14v1h-14zM0 61h14v1h-14zM21 61h33v1h-33zM86 61h14v1h-14zM0 62h15v1h-15zM22 62h31v1h-31zM85 62h15v1h-15zM0 63h15v1h-15zM23 63h29v1h-29zM85 63h15v1h-15zM0 64h16v1h-16zM24 64h27v1h-27zM84 64h16v1h-16zM0 65h17v1h-17zM25 65h25v1h-25zM83 65h17v1h-17zM0 66h17v1h-17zM26 66h23v1h-23zM82 66h18v1h-18zM0 67h18v1h-18zM28 67h19v1h-19zM82 67h18v1h-18zM0 68h19v1h-19zM30 68h15v1h-15zM81 68h19v1h-19zM0 69h20v1h-20zM32 69h10v1h-10zM80 69h20v1h-20zM0 70h21v1h-21zM78 70h22v1h-22zM0 71h23v1h-23zM77 71h23v1h-23zM0 72h24v1h-24zM75 72h25v1h-25zM0 73h26v1h-26zM48 73h4v1h-4zM73 73h27v1h-27zM0 74h29v1h-29zM46 74h8v1h-8zM71 74h29v1h-29zM0 75h33v1h-33zM41 75h17v1h-17zM66 75h34v1h-34zM1 76h98v1h-98zM1 77h99v1h-99zM1 78h98v1h-98zM1 79h98v1h-98zM1 80h98v1h-98zM1 81h98v1h-98zM1 82h98v1h-98zM2 83h96v1h-96zM1 84h97v1h-97zM2 85h96v1h-96zM3 86h94v1h-94zM3 87h94v1h-94zM4 88h92v1h-92zM5 89h90v1h-90zM5 90h90v1h-90zM6 91h88v1h-88zM7 92h86v1h-86zM8 93h85v1h-85zM8 94h83v1h-83zM11 95h78v1h-78zM11 96h77v1h-77zM14 97h73v1h-73zM17 98h66v1h-66zM23 99h54v1h-54z" /><path fill="#ef2e64" d="M21 0h1v1h-1zM78 0h1v1h-1zM13 2h1v1h-1zM86 2h1v1h-1zM97 13h1v1h-1zM98 16h1v1h-1zM0 21h1v1h-1zM0 78h1v1h-1zM98 83h1v1h-1zM98 84h1v1h-1zM97 86h1v1h-1zM83 98h2v1h-2zM19 99h2v1h-2z" /><path fill="#f02d65" d="M16 1h1v1h-1zM83 1h1v1h-1zM88 3h1v1h-1zM10 4h1v1h-1zM6 7h1v1h-1zM95 10h1v1h-1zM1 16h1v1h-1zM99 21h1v1h-1zM0 22h1v1h-1zM0 77h1v1h-1zM99 78h1v1h-1zM95 89h1v1h-1zM6 92h1v1h-1zM10 95h1v1h-1zM21 99h1v1h-1zM78 99h1v1h-1z" /><path fill="#f02d64" d="M8 5h1v1h-1zM92 6h1v1h-1zM5 8h1v1h-1zM4 10h1v1h-1zM2 86h1v1h-1zM4 89h1v1h-1zM7 93h1v1h-1zM89 95h1v1h-1zM13 97h1v1h-1zM22 99h1v1h-1zM77 99h1v1h-1z" /><path fill="#f02e64" d="M91 5h1v1h-1zM0 20h1v1h-1zM0 79h1v1h-1zM1 83h1v1h-1zM5 91h1v1h-1z" /><path fill="#ef2d65" d="M7 6h1v1h-1zM93 7h1v1h-1zM2 13h1v1h-1zM99 19h1v1h-1zM99 80h1v1h-1zM94 91h1v1h-1zM93 92h1v1h-1zM91 94h1v1h-1zM88 96h1v1h-1z" /><path fill="#ef2d64" d="M3 11h1v1h-1zM96 11h1v1h-1zM98 15h1v1h-1zM99 20h1v1h-1zM99 79h1v1h-1zM3 88h1v1h-1zM96 88h1v1h-1zM15 98h1v1h-1zM79 99h1v1h-1z" /><path fill="#f13c6f" d="M30 25h1v1h-1zM14 38h1v1h-1zM43 52h1v1h-1zM29 74h1v1h-1z" /><path fill="#f57197" d="M31 25h1v1h-1zM42 52h1v1h-1zM28 68h1v1h-1z" /><path fill="#f89ab5" d="M32 25h1v1h-1zM86 57h1v1h-1z" /><path fill="#fbc1d1" d="M33 25h1v1h-1z" /><path fill="#fcdbe4" d="M34 25h1v1h-1zM16 51h1v1h-1zM19 67h1v1h-1z" /><path fill="#feecf1" d="M35 25h1v1h-1zM14 40h1v1h-1z" /><path fill="#fffefe" d="M36 25h1v1h-1zM55 39h1v1h-1zM18 40h1v1h-1zM38 45h1v1h-1zM16 53h1v1h-1zM17 57h1v1h-1zM77 69h1v1h-1zM74 71h1v1h-1z" /><path fill="#ffffff" d="M37 25h1v1h-1zM31 26h13v1h-13zM56 26h13v1h-13zM28 27h19v1h-19zM53 27h19v1h-19zM26 28h23v1h-23zM51 28h23v1h-23zM24 29h9v1h-9zM41 29h35v1h-35zM23 30h7v1h-7zM45 30h32v1h-32zM21 31h6v1h-6zM47 31h31v1h-31zM20 32h6v1h-6zM49 32h30v1h-30zM19 33h5v1h-5zM50 33h30v1h-30zM18 34h5v1h-5zM51 34h30v1h-30zM18 35h4v1h-4zM52 35h30v1h-30zM17 36h4v1h-4zM53 36h30v1h-30zM16 37h4v1h-4zM54 37h29v1h-29zM16 38h4v1h-4zM55 38h29v1h-29zM15 39h4v1h-4zM56 39h29v1h-29zM15 40h3v1h-3zM56 40h29v1h-29zM14 41h4v1h-4zM57 41h28v1h-28zM14 42h4v1h-4zM38 42h1v1h-1zM57 42h29v1h-29zM14 43h3v1h-3zM38 43h1v1h-1zM57 43h29v1h-29zM13 44h4v1h-4zM38 44h1v1h-1zM58 44h28v1h-28zM13 45h4v1h-4zM58 45h29v1h-29zM13 46h4v1h-4zM37 46h1v1h-1zM58 46h29v1h-29zM13 47h3v1h-3zM31 47h1v1h-1zM37 47h1v1h-1zM42 47h1v1h-1zM58 47h29v1h-29zM13 48h3v1h-3zM30 48h1v1h-1zM37 48h1v1h-1zM43 48h1v1h-1zM58 48h29v1h-29zM13 49h3v1h-3zM30 49h1v1h-1zM37 49h1v1h-1zM43 49h2v1h-2zM58 49h29v1h-29zM13 50h3v1h-3zM31 50h1v1h-1zM36 50h1v1h-1zM43 50h1v1h-1zM58 50h29v1h-29zM13 51h3v1h-3zM31 51h1v1h-1zM36 51h1v1h-1zM42 51h1v1h-1zM58 51h29v1h-29zM13 52h3v1h-3zM36 52h1v1h-1zM58 52h29v1h-29zM13 53h3v1h-3zM36 53h1v1h-1zM58 53h29v1h-29zM13 54h4v1h-4zM35 54h1v1h-1zM58 54h29v1h-29zM13 55h4v1h-4zM35 55h1v1h-1zM58 55h28v1h-28zM14 56h3v1h-3zM57 56h29v1h-29zM14 57h3v1h-3zM57 57h29v1h-29zM14 58h4v1h-4zM57 58h29v1h-29zM15 59h3v1h-3zM56 59h29v1h-29zM15 60h4v1h-4zM56 60h29v1h-29zM16 61h3v1h-3zM55 61h29v1h-29zM16 62h4v1h-4zM54 62h30v1h-30zM17 63h4v1h-4zM54 63h29v1h-29zM17 64h5v1h-5zM53 64h29v1h-29zM18 65h5v1h-5zM52 65h30v1h-30zM19 66h5v1h-5zM51 66h30v1h-30zM20 67h5v1h-5zM49 67h31v1h-31zM21 68h6v1h-6zM48 68h31v1h-31zM22 69h7v1h-7zM46 69h31v1h-31zM24 70h8v1h-8zM43 70h33v1h-33zM25 71h24v1h-24zM50 71h24v1h-24zM27 72h20v1h-20zM52 72h21v1h-21zM30 73h15v1h-15zM55 73h15v1h-15zM34 74h7v1h-7zM59 74h7v1h-7z" /><path fill="#fef3f6" d="M38 25h1v1h-1zM70 73h1v1h-1z" /><path fill="#fde6ec" d="M39 25h1v1h-1zM29 69h1v1h-1z" /><path fill="#fccfdb" d="M40 25h1v1h-1zM57 45h1v1h-1zM13 57h1v1h-1z" /><path fill="#f9b1c6" d="M41 25h1v1h-1z" /><path fill="#f686a6" d="M42 25h1v1h-1zM51 27h1v1h-1zM21 30h1v1h-1z" /><path fill="#f35884" d="M43 25h1v1h-1zM29 31h1v1h-1zM21 37h1v1h-1zM64 75h1v1h-1z" /><path fill="#f02f66" d="M44 25h1v1h-1zM52 37h1v1h-1zM20 39h1v1h-1zM40 41h1v1h-1zM18 43h1v1h-1zM84 63h1v1h-1zM79 69h1v1h-1zM24 72h1v1h-1z" /><path fill="#f1366b" d="M55 25h1v1h-1zM33 30h1v1h-1z" /><path fill="#f4618a" d="M56 25h1v1h-1z" /><path fill="#f78ba9" d="M57 25h1v1h-1z" /><path fill="#fab5c9" d="M58 25h1v1h-1zM54 26h1v1h-1zM43 30h1v1h-1z" /><path fill="#fcd4df" d="M59 25h1v1h-1zM39 42h1v1h-1zM16 49h1v1h-1zM18 66h1v1h-1zM67 74h1v1h-1z" /><path fill="#fde1e9" d="M60 25h1v1h-1zM34 29h1v1h-1zM22 35h1v1h-1zM12 49h1v1h-1zM20 62h1v1h-1zM26 72h1v1h-1z" /><path fill="#feeff4" d="M61 25h1v1h-1zM51 65h1v1h-1z" /><path fill="#fffcfd" d="M62 25h1v1h-1zM30 26h1v1h-1zM80 33h1v1h-1zM37 45h1v1h-1zM86 55h1v1h-1zM15 61h1v1h-1z" /><path fill="#fef1f5" d="M63 25h1v1h-1zM15 38h1v1h-1zM16 63h1v1h-1z" /><path fill="#fde7ed" d="M64 25h1v1h-1z" /><path fill="#fcd4e0" d="M65 25h1v1h-1zM37 44h1v1h-1zM41 70h1v1h-1z" /><path fill="#fab4c8" d="M66 25h1v1h-1z" /><path fill="#f791ae" d="M67 25h1v1h-1zM87 47h1v1h-1z" /><path fill="#f45f89" d="M68 25h1v1h-1zM78 30h1v1h-1zM20 61h1v1h-1zM74 72h1v1h-1z" /><path fill="#f03268" d="M69 25h1v1h-1zM49 34h1v1h-1zM87 44h1v1h-1zM30 46h1v1h-1zM40 47h1v1h-1z" /><path fill="#f1396d" d="M27 26h1v1h-1zM44 31h1v1h-1zM53 38h1v1h-1zM56 44h1v1h-1zM87 55h1v1h-1zM20 69h1v1h-1zM42 69h1v1h-1z" /><path fill="#f683a4" d="M28 26h1v1h-1zM26 67h1v1h-1z" /><path fill="#fbccda" d="M29 26h1v1h-1zM83 63h1v1h-1z" /><path fill="#fde6ed" d="M44 26h1v1h-1zM72 27h1v1h-1zM46 31h1v1h-1zM54 38h1v1h-1zM17 43h1v1h-1zM84 61h1v1h-1z" /><path fill="#f8a2bb" d="M45 26h1v1h-1zM46 68h1v1h-1z" /><path fill="#f35d87" d="M46 26h1v1h-1zM22 29h1v1h-1zM32 30h1v1h-1zM40 46h1v1h-1zM87 54h1v1h-1z" /><path fill="#f03369" d="M52 26h1v1h-1zM15 36h1v1h-1zM35 49h1v1h-1zM85 61h1v1h-1zM33 75h1v1h-1z" /><path fill="#f56d93" d="M53 26h1v1h-1z" /><path fill="#fef5f8" d="M55 26h1v1h-1zM27 27h1v1h-1zM16 47h1v1h-1zM18 59h1v1h-1zM58 74h1v1h-1zM66 74h1v1h-1z" /><path fill="#fef6f8" d="M69 26h1v1h-1zM25 28h1v1h-1zM24 33h1v1h-1zM56 58h1v1h-1zM82 64h1v1h-1z" /><path fill="#fab9cb" d="M70 26h1v1h-1zM37 51h1v1h-1zM23 65h1v1h-1z" /><path fill="#f46c93" d="M71 26h1v1h-1zM81 33h1v1h-1zM12 55h1v1h-1zM27 73h1v1h-1z" /><path fill="#f03167" d="M72 26h1v1h-1zM56 55h1v1h-1zM80 68h1v1h-1z" /><path fill="#f14273" d="M25 27h1v1h-1z" /><path fill="#f9a6bd" d="M26 27h1v1h-1zM83 36h1v1h-1zM17 44h1v1h-1z" /><path fill="#fcd1dd" d="M47 27h1v1h-1zM16 50h1v1h-1z" /><path fill="#f46b92" d="M48 27h1v1h-1zM33 51h1v1h-1zM33 52h1v1h-1zM77 70h1v1h-1zM69 74h1v1h-1zM62 75h1v1h-1z" /><path fill="#f03469" d="M50 27h1v1h-1zM23 28h1v1h-1zM13 40h1v1h-1zM12 43h1v1h-1zM54 74h1v1h-1z" /><path fill="#fde8ee" d="M52 27h1v1h-1zM50 28h1v1h-1zM74 28h1v1h-1z" /><path fill="#f687a6" d="M73 27h1v1h-1zM86 42h1v1h-1z" /><path fill="#f1356a" d="M74 27h1v1h-1zM46 32h1v1h-1zM41 48h1v1h-1zM24 65h1v1h-1zM70 74h1v1h-1z" /><path fill="#f898b3" d="M24 28h1v1h-1zM14 39h1v1h-1z" /><path fill="#fcd5e0" d="M49 28h1v1h-1zM24 71h1v1h-1z" /><path fill="#f57398" d="M75 28h1v1h-1zM87 46h1v1h-1z" /><path fill="#fddde6" d="M23 29h1v1h-1zM82 35h1v1h-1zM38 46h1v1h-1zM41 51h1v1h-1z" /><path fill="#fffdfd" d="M33 29h1v1h-1zM27 31h1v1h-1zM79 32h1v1h-1zM83 37h1v1h-1zM13 56h1v1h-1zM47 72h1v1h-1zM33 74h1v1h-1z" /><path fill="#fcd0dd" d="M35 29h1v1h-1zM42 48h1v1h-1z" /><path fill="#fbc2d2" d="M36 29h1v1h-1zM76 29h1v1h-1zM86 43h1v1h-1zM41 47h1v1h-1zM21 63h1v1h-1zM21 69h1v1h-1zM33 70h1v1h-1z" /><path fill="#fab9cc" d="M37 29h1v1h-1zM54 61h1v1h-1z" /><path fill="#fbc8d7" d="M38 29h1v1h-1zM51 72h1v1h-1zM42 74h1v1h-1z" /><path fill="#fcd8e2" d="M39 29h1v1h-1zM30 30h1v1h-1zM44 48h1v1h-1zM85 59h1v1h-1z" /><path fill="#fef0f4" d="M40 29h1v1h-1zM57 55h1v1h-1zM41 74h1v1h-1z" /><path fill="#f13f72" d="M77 29h1v1h-1zM86 41h1v1h-1zM39 45h1v1h-1zM18 67h1v1h-1z" /><path fill="#fffbfc" d="M22 30h1v1h-1zM85 41h1v1h-1zM57 44h1v1h-1zM29 49h1v1h-1zM32 51h1v1h-1zM45 69h1v1h-1zM23 70h1v1h-1zM42 70h1v1h-1zM29 73h1v1h-1z" /><path fill="#f897b2" d="M31 30h1v1h-1zM87 52h1v1h-1zM30 69h1v1h-1z" /><path fill="#f24c7b" d="M41 30h1v1h-1zM43 46h1v1h-1zM18 57h1v1h-1zM49 72h1v1h-1z" /><path fill="#f5799c" d="M42 30h1v1h-1zM29 50h1v1h-1z" /><path fill="#fef8fa" d="M44 30h1v1h-1zM20 37h1v1h-1zM36 49h1v1h-1z" /><path fill="#fde9ef" d="M77 30h1v1h-1zM21 36h1v1h-1z" /><path fill="#f03066" d="M19 31h1v1h-1zM18 32h1v1h-1zM29 47h1v1h-1zM45 50h1v1h-1zM81 67h1v1h-1zM26 73h1v1h-1zM45 74h1v1h-1z" /><path fill="#f9a8bf" d="M20 31h1v1h-1z" /><path fill="#f9b2c6" d="M28 31h1v1h-1zM53 37h1v1h-1zM15 62h1v1h-1z" /><path fill="#f682a3" d="M45 31h1v1h-1zM17 34h1v1h-1zM57 47h1v1h-1zM45 49h1v1h-1zM49 66h1v1h-1z" /><path fill="#fff9fb" d="M78 31h1v1h-1zM31 48h1v1h-1z" /><path fill="#f57297" d="M79 31h1v1h-1zM43 69h1v1h-1z" /><path fill="#f9afc4" d="M19 32h1v1h-1zM53 73h1v1h-1zM31 74h1v1h-1z" /><path fill="#fbc6d5" d="M26 32h1v1h-1zM56 42h1v1h-1zM36 55h1v1h-1z" /><path fill="#f2507e" d="M27 32h1v1h-1zM55 41h1v1h-1z" /><path fill="#f790ad" d="M47 32h1v1h-1z" /><path fill="#fef2f5" d="M48 32h1v1h-1zM54 73h1v1h-1z" /><path fill="#f67c9e" d="M80 32h1v1h-1zM16 64h1v1h-1z" /><path fill="#f9a5bd" d="M18 33h1v1h-1zM50 34h1v1h-1zM57 46h1v1h-1z" /><path fill="#f67da0" d="M25 33h1v1h-1zM85 60h1v1h-1z" /><path fill="#f14274" d="M48 33h1v1h-1zM15 63h1v1h-1zM45 68h1v1h-1z" /><path fill="#fbcedb" d="M49 33h1v1h-1z" /><path fill="#fde5ec" d="M23 34h1v1h-1zM43 47h1v1h-1z" /><path fill="#f35581" d="M24 34h1v1h-1zM51 64h1v1h-1z" /><path fill="#fef7f9" d="M81 34h1v1h-1z" /><path fill="#f35280" d="M82 34h1v1h-1zM40 52h1v1h-1z" /><path fill="#f35481" d="M16 35h1v1h-1z" /><path fill="#fffafb" d="M17 35h1v1h-1zM14 59h1v1h-1zM50 66h1v1h-1z" /><path fill="#f24576" d="M23 35h1v1h-1zM33 47h1v1h-1zM59 75h1v1h-1z" /><path fill="#f78dab" d="M51 35h1v1h-1zM13 58h1v1h-1z" /><path fill="#f1376c" d="M83 35h1v1h-1zM44 51h1v1h-1z" /><path fill="#fcd8e3" d="M16 36h1v1h-1z" /><path fill="#f24475" d="M22 36h1v1h-1zM17 46h1v1h-1zM44 47h1v1h-1z" /><path fill="#f89db7" d="M52 36h1v1h-1zM31 46h1v1h-1z" /><path fill="#f78eac" d="M15 37h1v1h-1zM35 51h1v1h-1z" /><path fill="#f35783" d="M84 37h1v1h-1z" /><path fill="#f688a7" d="M20 38h1v1h-1zM12 45h1v1h-1zM30 51h1v1h-1z" /><path fill="#fbcad8" d="M84 38h1v1h-1z" /><path fill="#fbcdda" d="M19 39h1v1h-1zM57 74h1v1h-1z" /><path fill="#f46890" d="M54 39h1v1h-1zM57 51h1v1h-1z" /><path fill="#f35e89" d="M85 39h1v1h-1zM52 73h1v1h-1zM35 75h1v1h-1z" /><path fill="#f35a86" d="M19 40h1v1h-1z" /><path fill="#fab7ca" d="M55 40h1v1h-1zM12 53h1v1h-1z" /><path fill="#fabecf" d="M85 40h1v1h-1zM31 49h1v1h-1z" /><path fill="#f5769a" d="M13 41h1v1h-1zM42 49h1v1h-1zM34 55h1v1h-1z" /><path fill="#fabfd0" d="M18 41h1v1h-1zM44 50h1v1h-1z" /><path fill="#f13b6f" d="M37 41h1v1h-1zM17 53h1v1h-1zM55 58h1v1h-1zM21 62h1v1h-1z" /><path fill="#f9a9c0" d="M38 41h1v1h-1zM35 56h1v1h-1z" /><path fill="#f9abc1" d="M39 41h1v1h-1zM32 46h1v1h-1zM41 46h2v1h-2zM87 49h1v1h-1zM56 57h1v1h-1zM40 70h1v1h-1z" /><path fill="#fffdfe" d="M56 41h1v1h-1zM30 50h1v1h-1zM19 61h1v1h-1zM49 71h1v1h-1z" /><path fill="#fabacc" d="M13 42h1v1h-1z" /><path fill="#f4668e" d="M18 42h1v1h-1zM31 52h1v1h-1zM36 75h2v1h-2zM63 75h1v1h-1z" /><path fill="#f56e94" d="M37 42h1v1h-1zM55 74h1v1h-1z" /><path fill="#fef4f7" d="M13 43h1v1h-1zM86 44h1v1h-1zM36 54h1v1h-1zM55 60h1v1h-1zM25 67h1v1h-1z" /><path fill="#f8a2ba" d="M37 43h1v1h-1zM68 74h1v1h-1z" /><path fill="#f8a1ba" d="M39 43h1v1h-1zM18 58h1v1h-1z" /><path fill="#f5759a" d="M56 43h1v1h-1z" /><path fill="#f35e88" d="M12 44h1v1h-1zM35 50h1v1h-1zM50 65h1v1h-1z" /><path fill="#f57095" d="M39 44h1v1h-1zM17 45h1v1h-1z" /><path fill="#f1386c" d="M36 45h1v1h-1zM45 48h1v1h-1z" /><path fill="#f35380" d="M87 45h1v1h-1zM86 58h1v1h-1zM39 75h1v1h-1zM60 75h1v1h-1z" /><path fill="#f9aec3" d="M12 46h1v1h-1zM71 73h1v1h-1z" /><path fill="#f5789b" d="M33 46h1v1h-1z" /><path fill="#f4678f" d="M36 46h1v1h-1z" /><path fill="#fbc5d4" d="M12 47h1v1h-1z" /><path fill="#fab6c9" d="M30 47h1v1h-1zM14 60h1v1h-1zM80 67h1v1h-1z" /><path fill="#feebf0" d="M32 47h1v1h-1z" /><path fill="#f899b4" d="M36 47h1v1h-1zM57 53h1v1h-1zM78 69h1v1h-1zM43 74h1v1h-1z" /><path fill="#f9acc2" d="M38 47h1v1h-1z" /><path fill="#fcdae4" d="M12 48h1v1h-1zM20 68h1v1h-1zM32 74h1v1h-1z" /><path fill="#fddfe7" d="M16 48h1v1h-1z" /><path fill="#f9a7be" d="M29 48h1v1h-1z" /><path fill="#f35c87" d="M32 48h1v1h-1zM52 63h1v1h-1zM44 74h1v1h-1z" /><path fill="#fbcbd8" d="M36 48h1v1h-1z" /><path fill="#f67b9e" d="M38 48h1v1h-1zM84 62h1v1h-1zM36 70h1v1h-1z" /><path fill="#f56f95" d="M57 48h1v1h-1z" /><path fill="#f8a0b9" d="M87 48h1v1h-1zM34 70h1v1h-1z" /><path fill="#f24d7c" d="M28 49h1v1h-1z" /><path fill="#f24a7a" d="M38 49h1v1h-1z" /><path fill="#f4628b" d="M57 49h1v1h-1zM17 54h1v1h-1zM61 75h1v1h-1z" /><path fill="#fde3ea" d="M12 50h1v1h-1z" /><path fill="#f681a2" d="M32 50h1v1h-1z" /><path fill="#fdeaef" d="M37 50h1v1h-1zM35 53h1v1h-1z" /><path fill="#f24778" d="M41 50h1v1h-1zM34 54h1v1h-1zM34 75h1v1h-1z" /><path fill="#feedf2" d="M42 50h1v1h-1zM32 70h1v1h-1z" /><path fill="#f4628c" d="M57 50h1v1h-1z" /><path fill="#f9adc3" d="M87 50h1v1h-1z" /><path fill="#fddee7" d="M12 51h1v1h-1z" /><path fill="#f13e70" d="M40 51h1v1h-1zM12 56h1v1h-1z" /><path fill="#fcd2de" d="M43 51h1v1h-1zM17 56h1v1h-1zM86 56h1v1h-1z" /><path fill="#f8a3bb" d="M87 51h1v1h-1zM81 66h1v1h-1zM56 74h1v1h-1z" /><path fill="#fbcbd9" d="M12 52h1v1h-1z" /><path fill="#feeef2" d="M16 52h1v1h-1z" /><path fill="#f57498" d="M32 52h1v1h-1zM41 52h1v1h-1zM36 56h1v1h-1zM37 70h1v1h-1z" /><path fill="#fabccd" d="M35 52h1v1h-1z" /><path fill="#f687a7" d="M37 52h1v1h-1z" /><path fill="#f67ea0" d="M57 52h1v1h-1zM38 70h1v1h-1z" /><path fill="#f35582" d="M37 53h1v1h-1zM31 69h1v1h-1z" /><path fill="#f67d9f" d="M87 53h1v1h-1z" /><path fill="#f794b0" d="M12 54h1v1h-1zM17 55h1v1h-1zM22 70h1v1h-1z" /><path fill="#f03067" d="M37 54h1v1h-1zM22 63h1v1h-1zM23 64h1v1h-1zM27 67h1v1h-1zM29 68h1v1h-1zM21 70h1v1h-1zM58 75h1v1h-1z" /><path fill="#fbc4d4" d="M57 54h1v1h-1z" /><path fill="#f4648d" d="M34 56h1v1h-1zM38 75h1v1h-1z" /><path fill="#f4638c" d="M56 56h1v1h-1z" /><path fill="#f14072" d="M13 59h1v1h-1zM19 59h1v1h-1zM19 68h1v1h-1z" /><path fill="#f795b1" d="M55 59h1v1h-1z" /><path fill="#f9a6be" d="M19 60h1v1h-1z" /><path fill="#f14173" d="M54 60h1v1h-1zM76 71h1v1h-1zM40 75h1v1h-1z" /><path fill="#f24e7d" d="M14 61h1v1h-1z" /><path fill="#f57a9d" d="M53 62h1v1h-1zM82 65h1v1h-1z" /><path fill="#fff8fa" d="M53 63h1v1h-1zM47 68h1v1h-1z" /><path fill="#fab4c7" d="M22 64h1v1h-1zM75 71h1v1h-1z" /><path fill="#feeff3" d="M52 64h1v1h-1zM76 70h1v1h-1z" /><path fill="#f24f7d" d="M83 64h1v1h-1z" /><path fill="#fab3c7" d="M17 65h1v1h-1zM48 72h1v1h-1z" /><path fill="#f0356a" d="M17 66h1v1h-1z" /><path fill="#fcd3de" d="M24 66h1v1h-1z" /><path fill="#f24878" d="M25 66h1v1h-1z" /><path fill="#f24777" d="M47 67h1v1h-1z" /><path fill="#fbc3d3" d="M48 67h1v1h-1zM28 73h1v1h-1z" /><path fill="#fcdce5" d="M27 68h1v1h-1z" /><path fill="#f9b0c5" d="M79 68h1v1h-1z" /><path fill="#fabbcd" d="M44 69h1v1h-1z" /><path fill="#f789a8" d="M35 70h1v1h-1z" /><path fill="#f792af" d="M39 70h1v1h-1z" /><path fill="#f35683" d="M23 71h1v1h-1z" /><path fill="#f5779b" d="M25 72h1v1h-1z" /><path fill="#f4608a" d="M50 72h1v1h-1z" /><path fill="#fbc7d6" d="M73 72h1v1h-1z" /><path fill="#feebf1" d="M45 73h1v1h-1z" /><path fill="#f89cb6" d="M46 73h1v1h-1z" /><path fill="#f24979" d="M47 73h1v1h-1z" /><path fill="#f35b86" d="M72 73h1v1h-1z" /><path fill="#f5799d" d="M30 74h1v1h-1z" /><path fill="#f24677" d="M65 75h1v1h-1z" /></svg>