<svg xmlns="http://www.w3.org/2000/svg" viewBox="0 0 100 100" width="1em" height="1em"><path fill="#2683ff" d="M49 0h1v1h-1zM46 4h1v1h-1zM45 6h1v1h-1zM55 8h1v1h-1zM43 10h1v1h-1zM57 12h1v1h-1zM40 16h1v1h-1zM59 16h1v1h-1zM61 20h1v1h-1zM63 24h1v1h-1zM65 28h1v1h-1zM37 32h1v1h-1zM37 35h1v1h-1zM37 36h1v1h-1zM37 42h1v1h-1zM38 46h1v1h-1zM38 47h1v1h-1zM39 51h1v1h-1zM41 58h1v1h-1zM42 61h1v1h-1zM43 63h1v1h-1zM45 67h1v1h-1zM46 69h1v1h-1zM47 71h1v1h-1zM48 73h1v1h-1zM49 75h1v1h-1zM50 77h1v1h-1zM51 79h1v1h-1zM52 81h1v1h-1zM53 83h1v1h-1zM54 85h1v1h-1zM5 86h1v1h-1zM55 87h1v1h-1zM4 88h1v1h-1zM56 89h1v1h-1zM3 90h1v1h-1zM57 91h1v1h-1zM2 92h1v1h-1zM58 93h1v1h-1zM1 94h1v1h-1zM0 95h1v1h-1zM0 97h1v1h-1zM60 97h1v1h-1zM1 99h1v1h-1zM61 99h1v1h-1zM97 99h1v1h-1z" /><path fill="#2583ff" d="M50 0h2v1h-2zM52 1h1v1h-1zM53 3h1v1h-1zM54 5h1v1h-1zM55 7h1v1h-1zM43 9h1v1h-1zM56 9h1v1h-1zM57 11h1v1h-1zM58 13h1v1h-1zM59 15h1v1h-1zM60 17h1v1h-1zM61 19h1v1h-1zM39 21h1v1h-1zM62 21h1v1h-1zM63 23h1v1h-1zM64 25h1v1h-1zM65 27h1v1h-1zM66 29h1v1h-1zM67 31h1v1h-1zM68 33h1v1h-1zM69 35h1v1h-1zM71 39h1v1h-1zM73 43h1v1h-1zM75 47h1v1h-1zM38 48h1v1h-1zM77 51h1v1h-1zM39 52h1v1h-1zM79 55h1v1h-1zM81 59h1v1h-1zM83 63h1v1h-1zM44 66h1v1h-1zM85 67h1v1h-1zM45 68h1v1h-1zM86 69h1v1h-1zM46 70h1v1h-1zM87 71h1v1h-1zM47 72h1v1h-1zM88 73h1v1h-1zM48 74h1v1h-1zM89 75h1v1h-1zM49 76h1v1h-1zM90 77h1v1h-1zM50 78h1v1h-1zM91 79h1v1h-1zM51 80h1v1h-1zM92 81h1v1h-1zM52 82h1v1h-1zM93 83h1v1h-1zM53 84h1v1h-1zM94 85h1v1h-1zM54 86h1v1h-1zM4 87h1v1h-1zM95 87h1v1h-1zM55 88h1v1h-1zM3 89h1v1h-1zM96 89h1v1h-1zM56 90h1v1h-1zM2 91h1v1h-1zM97 91h1v1h-1zM57 92h1v1h-1zM1 93h1v1h-1zM98 93h1v1h-1zM58 94h1v1h-1zM0 96h1v1h-1zM59 96h1v1h-1zM99 96h1v1h-1zM0 98h1v1h-1zM3 99h25v1h-25zM63 99h34v1h-34z" /><path fill="#2684ff" d="M48 1h4v1h-4zM48 2h4v1h-4zM46 3h7v1h-7zM47 4h6v1h-6zM45 5h9v1h-9zM46 6h8v1h-8zM45 7h10v1h-10zM44 8h11v1h-11zM44 9h12v1h-12zM44 10h12v1h-12zM42 11h15v1h-15zM42 12h15v1h-15zM42 13h16v1h-16zM42 14h16v1h-16zM41 15h18v1h-18zM41 16h18v1h-18zM40 17h20v1h-20zM40 18h20v1h-20zM40 19h21v1h-21zM39 20h22v1h-22zM40 21h22v1h-22zM39 22h23v1h-23zM39 23h24v1h-24zM39 24h24v1h-24zM38 25h26v1h-26zM38 26h26v1h-26zM38 27h27v1h-27zM38 28h27v1h-27zM38 29h28v1h-28zM38 30h28v1h-28zM38 31h29v1h-29zM38 32h29v1h-29zM37 33h31v1h-31zM37 34h31v1h-31zM38 35h31v1h-31zM38 36h31v1h-31zM38 37h32v1h-32zM37 38h33v1h-33zM38 39h33v1h-33zM37 40h34v1h-34zM37 41h35v1h-35zM38 42h34v1h-34zM38 43h35v1h-35zM38 44h35v1h-35zM38 45h36v1h-36zM39 46h35v1h-35zM39 47h36v1h-36zM39 48h36v1h-36zM39 49h37v1h-37zM39 50h37v1h-37zM40 51h37v1h-37zM40 52h37v1h-37zM39 53h39v1h-39zM40 54h38v1h-38zM40 55h39v1h-39zM40 56h39v1h-39zM41 57h39v1h-39zM42 58h38v1h-38zM42 59h39v1h-39zM42 60h39v1h-39zM43 61h39v1h-39zM43 62h39v1h-39zM44 63h39v1h-39zM43 64h40v1h-40zM45 65h39v1h-39zM45 66h39v1h-39zM46 67h39v1h-39zM46 68h39v1h-39zM47 69h39v1h-39zM47 70h39v1h-39zM48 71h39v1h-39zM48 72h39v1h-39zM49 73h39v1h-39zM49 74h39v1h-39zM50 75h39v1h-39zM50 76h39v1h-39zM51 77h39v1h-39zM51 78h39v1h-39zM52 79h39v1h-39zM52 80h39v1h-39zM53 81h39v1h-39zM53 82h39v1h-39zM54 83h39v1h-39zM54 84h39v1h-39zM55 85h39v1h-39zM55 86h39v1h-39zM5 87h2v1h-2zM56 87h39v1h-39zM5 88h4v1h-4zM56 88h39v1h-39zM4 89h7v1h-7zM57 89h39v1h-39zM4 90h9v1h-9zM57 90h39v1h-39zM3 91h11v1h-11zM58 91h39v1h-39zM3 92h13v1h-13zM58 92h39v1h-39zM2 93h16v1h-16zM59 93h39v1h-39zM2 94h18v1h-18zM59 94h39v1h-39zM1 95h20v1h-20zM60 95h39v1h-39zM1 96h22v1h-22zM60 96h39v1h-39zM1 97h24v1h-24zM61 97h38v1h-38zM1 98h25v1h-25zM61 98h38v1h-38zM2 99h1v1h-1zM62 99h1v1h-1zM98 99h1v1h-1z" /><path fill="#2584ff" d="M47 2h1v1h-1zM52 2h1v1h-1zM53 4h1v1h-1zM54 6h1v1h-1zM44 7h1v1h-1zM56 10h1v1h-1zM41 14h1v1h-1zM58 14h1v1h-1zM60 18h1v1h-1zM62 22h1v1h-1zM38 24h1v1h-1zM64 26h1v1h-1zM66 30h1v1h-1zM37 31h1v1h-1zM67 32h1v1h-1zM68 34h1v1h-1zM69 36h1v1h-1zM37 37h1v1h-1zM70 37h1v1h-1zM70 38h1v1h-1zM37 39h1v1h-1zM71 40h1v1h-1zM72 41h1v1h-1zM72 42h1v1h-1zM73 44h1v1h-1zM74 45h1v1h-1zM74 46h1v1h-1zM75 48h1v1h-1zM38 49h1v1h-1zM76 49h1v1h-1zM76 50h1v1h-1zM77 52h1v1h-1zM78 53h1v1h-1zM78 54h1v1h-1zM79 56h1v1h-1zM80 57h1v1h-1zM80 58h1v1h-1zM41 59h1v1h-1zM81 60h1v1h-1zM82 61h1v1h-1zM82 62h1v1h-1zM83 64h1v1h-1zM44 65h1v1h-1zM84 65h1v1h-1zM84 66h1v1h-1zM85 68h1v1h-1zM86 70h1v1h-1zM87 72h1v1h-1zM88 74h1v1h-1zM89 76h1v1h-1zM90 78h1v1h-1zM91 80h1v1h-1zM92 82h1v1h-1zM93 84h1v1h-1zM94 86h1v1h-1zM95 88h1v1h-1zM96 90h1v1h-1zM97 92h1v1h-1zM98 94h1v1h-1zM59 95h1v1h-1zM99 95h1v1h-1zM99 97h1v1h-1zM60 98h1v1h-1zM99 98h1v1h-1z" /><path fill="#0153cd" d="M26 45h2v1h-2zM28 46h1v1h-1zM31 48h1v1h-1z" /><path fill="#0052cc" d="M28 45h1v1h-1z" /><path fill="#0255ce" d="M25 46h1v1h-1z" /><path fill="#0254ce" d="M26 46h1v1h-1zM28 47h1v1h-1zM29 48h1v1h-1zM31 49h1v1h-1z" /><path fill="#0154ce" d="M27 46h1v1h-1zM29 47h1v1h-1zM30 48h1v1h-1z" /><path fill="#0053cd" d="M29 46h1v1h-1z" /><path fill="#0356cf" d="M24 47h1v1h-1z" /><path fill="#0356d0" d="M25 47h1v1h-1zM26 48h1v1h-1zM27 49h2v1h-2zM29 50h2v1h-2zM31 51h2v1h-2zM33 52h1v1h-1zM34 53h1v1h-1z" /><path fill="#0255cf" d="M26 47h2v1h-2zM28 48h1v1h-1zM30 49h1v1h-1zM31 50h1v1h-1z" /><path fill="#0152cc" d="M30 47h1v1h-1z" /><path fill="#0457d0" d="M24 48h1v1h-1z" /><path fill="#0357d1" d="M25 48h1v1h-1z" /><path fill="#0355d0" d="M27 48h1v1h-1zM34 52h1v1h-1z" /><path fill="#0557d3" d="M23 49h1v1h-1z" /><path fill="#0558d2" d="M24 49h1v1h-1zM25 50h1v1h-1zM27 51h1v1h-1zM29 52h1v1h-1zM31 53h1v1h-1zM32 54h1v1h-1zM34 55h1v1h-1z" /><path fill="#0457d2" d="M25 49h1v1h-1zM32 53h1v1h-1z" /><path fill="#0457d1" d="M26 49h1v1h-1zM27 50h2v1h-2zM29 51h2v1h-2zM31 52h1v1h-1zM33 53h1v1h-1zM34 54h1v1h-1z" /><path fill="#0355cf" d="M29 49h1v1h-1z" /><path fill="#0659d3" d="M23 50h1v1h-1zM25 51h1v1h-1z" /><path fill="#0559d3" d="M24 50h1v1h-1zM26 51h1v1h-1zM27 52h2v1h-2zM29 53h1v1h-1zM31 54h1v1h-1zM32 55h2v1h-2zM34 56h2v1h-2zM36 57h1v1h-1z" /><path fill="#0458d2" d="M26 50h1v1h-1zM28 51h1v1h-1zM30 52h1v1h-1zM33 54h1v1h-1zM35 55h1v1h-1zM36 56h1v1h-1z" /><path fill="#0254cf" d="M32 50h1v1h-1zM33 51h1v1h-1z" /><path fill="#065bd4" d="M22 51h1v1h-1z" /><path fill="#065ad4" d="M23 51h2v1h-2zM25 52h2v1h-2zM27 53h2v1h-2zM29 54h1v1h-1zM30 55h2v1h-2zM32 56h2v1h-2zM34 57h1v1h-1zM36 58h1v1h-1zM37 59h1v1h-1z" /><path fill="#075bd5" d="M22 52h3v1h-3zM25 53h2v1h-2zM27 54h1v1h-1zM29 55h1v1h-1zM30 56h2v1h-2zM32 57h1v1h-1zM34 58h1v1h-1zM35 59h2v1h-2zM37 60h2v1h-2z" /><path fill="#0356d1" d="M32 52h1v1h-1zM35 54h1v1h-1z" /><path fill="#085cd6" d="M21 53h1v1h-1zM23 53h1v1h-1zM25 54h1v1h-1zM28 56h1v1h-1zM30 57h1v1h-1zM32 58h1v1h-1zM35 60h1v1h-1zM37 61h1v1h-1z" /><path fill="#085dd7" d="M22 53h1v1h-1zM23 54h2v1h-2zM25 55h1v1h-1zM27 56h1v1h-1zM28 57h2v1h-2zM30 58h1v1h-1zM32 59h1v1h-1zM34 60h1v1h-1zM35 61h2v1h-2zM37 62h1v1h-1z" /><path fill="#075cd6" d="M24 53h1v1h-1zM27 55h1v1h-1zM29 56h1v1h-1zM31 57h1v1h-1zM34 59h1v1h-1zM36 60h1v1h-1zM38 61h1v1h-1z" /><path fill="#0558d3" d="M30 53h1v1h-1z" /><path fill="#095ed8" d="M21 54h2v1h-2zM23 55h1v1h-1zM25 56h1v1h-1zM26 57h2v1h-2zM28 58h2v1h-2zM30 59h1v1h-1zM32 60h1v1h-1zM33 61h2v1h-2zM35 62h1v1h-1zM37 63h1v1h-1zM39 64h1v1h-1z" /><path fill="#075bd6" d="M26 54h1v1h-1zM28 55h1v1h-1zM33 58h1v1h-1z" /><path fill="#065ad5" d="M28 54h1v1h-1zM35 58h1v1h-1z" /><path fill="#0659d4" d="M30 54h1v1h-1zM35 57h1v1h-1z" /><path fill="#0a60d9" d="M20 55h1v1h-1z" /><path fill="#0a5fd9" d="M21 55h1v1h-1zM23 56h1v1h-1zM25 57h1v1h-1zM26 58h2v1h-2zM28 59h1v1h-1zM30 60h1v1h-1zM31 61h2v1h-2zM33 62h2v1h-2zM35 63h1v1h-1zM37 64h1v1h-1zM38 65h2v1h-2z" /><path fill="#095ed9" d="M22 55h1v1h-1zM24 56h1v1h-1zM29 59h1v1h-1zM31 60h1v1h-1zM36 63h1v1h-1zM38 64h1v1h-1z" /><path fill="#095dd8" d="M24 55h1v1h-1zM26 56h1v1h-1zM31 59h1v1h-1zM36 62h1v1h-1zM38 63h1v1h-1z" /><path fill="#085cd7" d="M26 55h1v1h-1zM31 58h1v1h-1zM33 59h1v1h-1zM38 62h1v1h-1z" /><path fill="#0b5fdb" d="M20 56h1v1h-1z" /><path fill="#0b60da" d="M21 56h1v1h-1zM24 58h1v1h-1zM26 59h1v1h-1zM28 60h1v1h-1zM31 62h1v1h-1zM33 63h1v1h-1zM35 64h1v1h-1zM38 66h1v1h-1zM40 67h1v1h-1z" /><path fill="#0a5fda" d="M22 56h1v1h-1zM24 57h1v1h-1zM27 59h1v1h-1zM29 60h1v1h-1zM34 63h1v1h-1zM36 64h1v1h-1z" /><path fill="#0b61db" d="M19 57h1v1h-1zM21 57h1v1h-1zM23 58h1v1h-1zM24 59h2v1h-2zM26 60h1v1h-1zM28 61h1v1h-1zM30 62h1v1h-1zM31 63h2v1h-2zM33 64h1v1h-1zM35 65h1v1h-1zM37 66h1v1h-1zM38 67h1v1h-1zM40 68h1v1h-1zM41 69h1v1h-1z" /><path fill="#0c61dc" d="M20 57h1v1h-1zM22 58h1v1h-1zM25 60h1v1h-1zM27 61h1v1h-1zM32 64h1v1h-1zM34 65h1v1h-1zM39 68h1v1h-1zM41 70h1v1h-1z" /><path fill="#0b60db" d="M22 57h1v1h-1zM27 60h1v1h-1zM29 61h1v1h-1zM34 64h1v1h-1zM36 65h1v1h-1zM39 67h1v1h-1zM41 68h1v1h-1z" /><path fill="#0a60da" d="M23 57h1v1h-1zM25 58h1v1h-1zM30 61h1v1h-1zM32 62h1v1h-1zM37 65h1v1h-1zM39 66h1v1h-1z" /><path fill="#065bd5" d="M33 57h1v1h-1z" /><path fill="#0d62dd" d="M19 58h1v1h-1zM30 64h1v1h-1z" /><path fill="#0c62dd" d="M20 58h1v1h-1zM25 61h1v1h-1zM27 62h1v1h-1zM32 65h1v1h-1zM34 66h1v1h-1zM37 68h1v1h-1zM39 69h1v1h-1z" /><path fill="#0c62dc" d="M21 58h1v1h-1zM22 59h2v1h-2zM24 60h1v1h-1zM26 61h1v1h-1zM28 62h1v1h-1zM29 63h2v1h-2zM31 64h1v1h-1zM33 65h1v1h-1zM35 66h1v1h-1zM36 67h2v1h-2zM38 68h1v1h-1zM40 69h1v1h-1z" /><path fill="#0559d2" d="M37 58h1v1h-1z" /><path fill="#0d64de" d="M18 59h2v1h-2zM21 60h1v1h-1zM26 63h1v1h-1zM28 64h1v1h-1zM31 66h1v1h-1zM33 67h1v1h-1zM38 70h1v1h-1zM40 71h1v1h-1z" /><path fill="#0d63de" d="M20 59h1v1h-1zM23 61h1v1h-1zM25 62h1v1h-1zM30 65h1v1h-1zM32 66h1v1h-1zM35 68h1v1h-1zM37 69h1v1h-1zM39 70h1v1h-1z" /><path fill="#0d63dd" d="M21 59h1v1h-1zM22 60h2v1h-2zM24 61h1v1h-1zM26 62h1v1h-1zM27 63h2v1h-2zM29 64h1v1h-1zM31 65h1v1h-1zM33 66h1v1h-1zM34 67h2v1h-2zM36 68h1v1h-1zM38 69h1v1h-1zM40 70h1v1h-1zM41 71h1v1h-1z" /><path fill="#0f64e0" d="M18 60h1v1h-1z" /><path fill="#0e65df" d="M19 60h1v1h-1zM20 61h1v1h-1zM22 62h1v1h-1zM24 63h1v1h-1zM26 64h1v1h-1zM27 65h1v1h-1zM29 66h1v1h-1zM31 67h1v1h-1zM32 68h2v1h-2zM34 69h1v1h-1zM36 70h1v1h-1zM38 71h1v1h-1zM39 72h1v1h-1zM41 73h1v1h-1z" /><path fill="#0e64de" d="M20 60h1v1h-1zM22 61h1v1h-1zM24 62h1v1h-1zM27 64h1v1h-1zM29 65h1v1h-1zM34 68h1v1h-1zM36 69h1v1h-1zM39 71h1v1h-1zM41 72h1v1h-1zM42 73h1v1h-1z" /><path fill="#095dd7" d="M33 60h1v1h-1z" /><path fill="#0f67e0" d="M17 61h1v1h-1z" /><path fill="#0f66e0" d="M18 61h2v1h-2zM20 62h1v1h-1zM22 63h1v1h-1zM24 64h1v1h-1zM25 65h1v1h-1zM27 66h1v1h-1zM29 67h1v1h-1zM31 68h1v1h-1zM32 69h1v1h-1zM34 70h1v1h-1zM36 71h1v1h-1zM37 72h2v1h-2zM39 73h1v1h-1zM41 74h1v1h-1z" /><path fill="#0e64df" d="M21 61h1v1h-1zM23 62h1v1h-1zM25 63h1v1h-1zM28 65h1v1h-1zM30 66h1v1h-1zM32 67h1v1h-1zM35 69h1v1h-1zM37 70h1v1h-1zM40 72h1v1h-1z" /><path fill="#1066e2" d="M17 62h1v1h-1z" /><path fill="#1067e1" d="M18 62h1v1h-1zM20 63h1v1h-1zM22 64h1v1h-1zM23 65h2v1h-2zM25 66h1v1h-1zM27 67h1v1h-1zM29 68h1v1h-1zM30 69h1v1h-1zM32 70h1v1h-1zM34 71h1v1h-1zM36 72h1v1h-1zM37 73h1v1h-1zM39 74h1v1h-1zM41 75h1v1h-1z" /><path fill="#1066e1" d="M19 62h1v1h-1zM31 69h1v1h-1zM38 73h1v1h-1z" /><path fill="#0f65e0" d="M21 62h1v1h-1zM23 63h1v1h-1zM26 65h1v1h-1zM28 66h1v1h-1zM30 67h1v1h-1zM33 69h1v1h-1zM35 70h1v1h-1zM37 71h1v1h-1zM40 73h1v1h-1z" /><path fill="#0c61db" d="M29 62h1v1h-1zM36 66h1v1h-1z" /><path fill="#085bd6" d="M39 62h1v1h-1z" /><path fill="#1169e3" d="M16 63h1v1h-1zM18 64h1v1h-1zM20 65h1v1h-1zM21 66h1v1h-1zM23 67h1v1h-1zM25 68h1v1h-1zM27 69h1v1h-1zM28 70h1v1h-1zM30 71h1v1h-1zM32 72h1v1h-1zM34 73h1v1h-1zM35 74h1v1h-1zM37 75h1v1h-1zM39 76h1v1h-1zM41 77h1v1h-1zM42 78h1v1h-1z" /><path fill="#1168e3" d="M17 63h1v1h-1zM19 64h1v1h-1zM21 65h1v1h-1zM22 66h1v1h-1zM24 67h1v1h-1zM26 68h1v1h-1zM28 69h1v1h-1zM29 70h1v1h-1zM31 71h1v1h-1zM33 72h1v1h-1zM36 74h1v1h-1zM38 75h1v1h-1zM40 76h1v1h-1z" /><path fill="#1168e2" d="M18 63h1v1h-1zM20 64h1v1h-1zM23 66h1v1h-1zM25 67h1v1h-1zM30 70h1v1h-1zM32 71h1v1h-1zM35 73h1v1h-1zM37 74h1v1h-1zM39 75h1v1h-1zM42 77h1v1h-1z" /><path fill="#1067e2" d="M19 63h1v1h-1zM21 64h1v1h-1zM24 66h1v1h-1zM26 67h1v1h-1zM28 68h1v1h-1zM31 70h1v1h-1zM33 71h1v1h-1zM35 72h1v1h-1zM38 74h1v1h-1zM40 75h1v1h-1z" /><path fill="#0f66e1" d="M21 63h1v1h-1zM23 64h1v1h-1zM26 66h1v1h-1zM28 67h1v1h-1zM30 68h1v1h-1zM33 70h1v1h-1zM35 71h1v1h-1zM40 74h1v1h-1z" /><path fill="#085dd6" d="M39 63h1v1h-1z" /><path fill="#1269e4" d="M16 64h2v1h-2zM19 65h1v1h-1zM22 67h1v1h-1zM24 68h1v1h-1zM26 69h1v1h-1zM27 70h1v1h-1zM29 71h1v1h-1zM31 72h1v1h-1zM33 73h1v1h-1zM34 74h1v1h-1zM36 75h1v1h-1zM38 76h1v1h-1zM41 78h1v1h-1z" /><path fill="#0f65df" d="M25 64h1v1h-1z" /><path fill="#126be5" d="M15 65h1v1h-1z" /><path fill="#136be5" d="M16 65h1v1h-1zM18 66h1v1h-1zM19 67h1v1h-1zM21 68h1v1h-1zM23 69h1v1h-1zM25 70h1v1h-1zM26 71h1v1h-1zM28 72h1v1h-1zM30 73h1v1h-1zM32 74h1v1h-1zM33 75h1v1h-1zM35 76h1v1h-1zM37 77h1v1h-1zM38 78h1v1h-1zM40 79h1v1h-1zM42 80h1v1h-1z" /><path fill="#126ae5" d="M17 65h1v1h-1zM19 66h1v1h-1zM22 68h1v1h-1zM24 69h1v1h-1zM26 70h1v1h-1zM29 72h1v1h-1zM31 73h1v1h-1zM36 76h1v1h-1zM38 77h1v1h-1zM41 79h1v1h-1z" /><path fill="#126ae4" d="M18 65h1v1h-1zM20 66h1v1h-1zM21 67h1v1h-1zM23 68h1v1h-1zM25 69h1v1h-1zM28 71h1v1h-1zM30 72h1v1h-1zM32 73h1v1h-1zM33 74h1v1h-1zM35 75h1v1h-1zM37 76h1v1h-1zM39 77h1v1h-1zM40 78h1v1h-1zM42 79h1v1h-1z" /><path fill="#1068e2" d="M22 65h1v1h-1zM27 68h1v1h-1zM29 69h1v1h-1zM34 72h1v1h-1zM36 73h1v1h-1zM41 76h1v1h-1z" /><path fill="#085dd8" d="M40 65h1v1h-1z" /><path fill="#136be7" d="M15 66h1v1h-1z" /><path fill="#136ce6" d="M16 66h1v1h-1zM23 70h1v1h-1zM30 74h1v1h-1zM37 78h1v1h-1zM42 81h1v1h-1z" /><path fill="#136be6" d="M17 66h1v1h-1zM18 67h1v1h-1zM20 68h1v1h-1zM22 69h1v1h-1zM24 70h1v1h-1zM25 71h1v1h-1zM27 72h1v1h-1zM29 73h1v1h-1zM31 74h1v1h-1zM32 75h1v1h-1zM34 76h1v1h-1zM36 77h1v1h-1zM39 79h1v1h-1zM41 80h1v1h-1z" /><path fill="#095fd8" d="M40 66h1v1h-1z" /><path fill="#146ee7" d="M14 67h1v1h-1z" /><path fill="#156de8" d="M15 67h1v1h-1zM16 68h1v1h-1zM18 69h1v1h-1zM20 70h1v1h-1zM22 71h1v1h-1zM23 72h1v1h-1zM25 73h1v1h-1zM27 74h1v1h-1zM29 75h1v1h-1zM30 76h1v1h-1zM32 77h1v1h-1zM34 78h1v1h-1zM35 79h1v1h-1zM37 80h1v1h-1zM39 81h1v1h-1zM41 82h1v1h-1zM42 83h1v1h-1z" /><path fill="#146de7" d="M16 67h1v1h-1zM17 68h1v1h-1zM19 69h1v1h-1zM21 70h1v1h-1zM23 71h1v1h-1zM24 72h1v1h-1zM26 73h1v1h-1zM28 74h1v1h-1zM31 76h1v1h-1zM33 77h1v1h-1zM35 78h1v1h-1zM36 79h1v1h-1zM38 80h1v1h-1zM40 81h1v1h-1zM42 82h1v1h-1z" /><path fill="#146ce7" d="M17 67h1v1h-1zM18 68h1v1h-1zM20 69h1v1h-1zM22 70h1v1h-1zM24 71h1v1h-1zM25 72h1v1h-1zM27 73h1v1h-1zM29 74h1v1h-1zM30 75h1v1h-1zM32 76h1v1h-1zM34 77h1v1h-1zM36 78h1v1h-1zM37 79h1v1h-1zM39 80h1v1h-1zM41 81h1v1h-1z" /><path fill="#136ae5" d="M20 67h1v1h-1zM27 71h1v1h-1zM34 75h1v1h-1zM39 78h1v1h-1z" /><path fill="#156fe9" d="M14 68h1v1h-1z" /><path fill="#156ee9" d="M15 68h1v1h-1zM18 70h1v1h-1zM20 71h1v1h-1zM22 72h1v1h-1zM25 74h1v1h-1zM27 75h1v1h-1zM30 77h1v1h-1zM32 78h1v1h-1zM34 79h1v1h-1zM37 81h1v1h-1zM39 82h1v1h-1zM41 83h1v1h-1z" /><path fill="#146ce6" d="M19 68h1v1h-1zM21 69h1v1h-1zM26 72h1v1h-1zM28 73h1v1h-1zM31 75h1v1h-1zM33 76h1v1h-1zM35 77h1v1h-1zM38 79h1v1h-1zM40 80h1v1h-1z" /><path fill="#1770ea" d="M13 69h1v1h-1zM15 70h1v1h-1zM17 71h1v1h-1zM22 74h1v1h-1zM24 75h1v1h-1zM27 77h1v1h-1zM29 78h1v1h-1zM34 81h1v1h-1zM36 82h1v1h-1zM41 85h1v1h-1z" /><path fill="#166fea" d="M14 69h1v1h-1zM16 70h1v1h-1zM18 71h1v1h-1zM20 72h1v1h-1zM21 73h1v1h-1zM23 74h1v1h-1zM25 75h1v1h-1zM26 76h2v1h-2zM28 77h1v1h-1zM30 78h1v1h-1zM32 79h1v1h-1zM33 80h1v1h-1zM35 81h1v1h-1zM37 82h1v1h-1zM39 83h1v1h-1zM40 84h1v1h-1zM42 85h1v1h-1zM42 86h1v1h-1z" /><path fill="#166fe9" d="M15 69h1v1h-1zM17 70h1v1h-1zM19 71h1v1h-1zM22 73h1v1h-1zM24 74h1v1h-1zM26 75h1v1h-1zM29 77h1v1h-1zM31 78h1v1h-1zM33 79h1v1h-1zM34 80h1v1h-1zM36 81h1v1h-1zM38 82h1v1h-1zM41 84h1v1h-1z" /><path fill="#166ee9" d="M16 69h1v1h-1zM21 72h1v1h-1zM23 73h1v1h-1zM28 76h1v1h-1zM35 80h1v1h-1zM40 83h1v1h-1zM42 84h1v1h-1z" /><path fill="#156ee8" d="M17 69h1v1h-1zM19 70h1v1h-1zM21 71h1v1h-1zM24 73h1v1h-1zM26 74h1v1h-1zM28 75h1v1h-1zM29 76h1v1h-1zM31 77h1v1h-1zM33 78h1v1h-1zM36 80h1v1h-1zM38 81h1v1h-1zM40 82h1v1h-1z" /><path fill="#1671eb" d="M13 70h1v1h-1z" /><path fill="#1770eb" d="M14 70h1v1h-1zM16 71h1v1h-1zM18 72h1v1h-1zM19 73h2v1h-2zM21 74h1v1h-1zM23 75h1v1h-1zM25 76h1v1h-1zM26 77h1v1h-1zM28 78h1v1h-1zM30 79h1v1h-1zM31 80h2v1h-2zM33 81h1v1h-1zM35 82h1v1h-1zM37 83h1v1h-1zM38 84h2v1h-2zM40 85h1v1h-1z" /><path fill="#1971ec" d="M12 71h1v1h-1z" /><path fill="#1872ec" d="M13 71h1v1h-1zM15 72h1v1h-1zM20 75h1v1h-1zM22 76h1v1h-1zM25 78h1v1h-1zM27 79h1v1h-1zM29 80h1v1h-1zM32 82h1v1h-1zM34 83h1v1h-1zM36 84h1v1h-1zM39 86h1v1h-1zM41 87h1v1h-1zM42 88h1v1h-1z" /><path fill="#1871ec" d="M14 71h1v1h-1zM16 72h1v1h-1zM17 73h2v1h-2zM19 74h1v1h-1zM21 75h1v1h-1zM23 76h1v1h-1zM24 77h1v1h-1zM26 78h1v1h-1zM28 79h1v1h-1zM30 80h1v1h-1zM31 81h1v1h-1zM33 82h1v1h-1zM35 83h1v1h-1zM37 84h1v1h-1zM38 85h1v1h-1zM40 86h1v1h-1z" /><path fill="#1771eb" d="M15 71h1v1h-1zM17 72h1v1h-1zM20 74h1v1h-1zM22 75h1v1h-1zM24 76h1v1h-1zM27 78h1v1h-1zM29 79h1v1h-1zM32 81h1v1h-1zM34 82h1v1h-1zM36 83h1v1h-1zM39 85h1v1h-1zM41 86h1v1h-1z" /><path fill="#1873ed" d="M12 72h1v1h-1z" /><path fill="#1973ed" d="M13 72h1v1h-1zM15 73h1v1h-1zM18 75h1v1h-1zM20 76h1v1h-1zM25 79h1v1h-1zM27 80h1v1h-1zM30 82h1v1h-1zM32 83h1v1h-1zM34 84h1v1h-1zM37 86h1v1h-1zM39 87h1v1h-1zM41 88h1v1h-1z" /><path fill="#1872ed" d="M14 72h1v1h-1zM16 73h1v1h-1zM18 74h1v1h-1zM21 76h1v1h-1zM23 77h1v1h-1zM26 79h1v1h-1zM28 80h1v1h-1zM30 81h1v1h-1zM33 83h1v1h-1zM35 84h1v1h-1zM37 85h1v1h-1zM40 87h1v1h-1z" /><path fill="#1670ea" d="M19 72h1v1h-1zM31 79h1v1h-1zM38 83h1v1h-1z" /><path fill="#1975ef" d="M11 73h1v1h-1z" /><path fill="#1a74ef" d="M12 73h1v1h-1zM13 74h2v1h-2zM15 75h1v1h-1zM17 76h1v1h-1zM19 77h1v1h-1zM20 78h2v1h-2zM22 79h1v1h-1zM24 80h1v1h-1zM26 81h1v1h-1zM27 82h2v1h-2zM29 83h1v1h-1zM31 84h1v1h-1zM33 85h1v1h-1zM34 86h2v1h-2zM36 87h1v1h-1zM38 88h1v1h-1zM39 89h2v1h-2zM41 90h1v1h-1z" /><path fill="#1a74ee" d="M13 73h1v1h-1zM16 75h1v1h-1zM18 76h1v1h-1zM23 79h1v1h-1zM25 80h1v1h-1zM30 83h1v1h-1zM32 84h1v1h-1zM37 87h1v1h-1zM39 88h1v1h-1z" /><path fill="#1973ee" d="M14 73h1v1h-1zM15 74h2v1h-2zM17 75h1v1h-1zM19 76h1v1h-1zM21 77h1v1h-1zM22 78h2v1h-2zM24 79h1v1h-1zM26 80h1v1h-1zM28 81h1v1h-1zM29 82h1v1h-1zM31 83h1v1h-1zM33 84h1v1h-1zM34 85h2v1h-2zM36 86h1v1h-1zM38 87h1v1h-1zM40 88h1v1h-1zM41 89h1v1h-1z" /><path fill="#1a76ef" d="M11 74h1v1h-1z" /><path fill="#1b75f0" d="M12 74h1v1h-1zM13 75h2v1h-2zM15 76h1v1h-1zM17 77h1v1h-1zM19 78h1v1h-1zM20 79h1v1h-1zM22 80h1v1h-1zM24 81h1v1h-1zM25 82h2v1h-2zM27 83h1v1h-1zM29 84h1v1h-1zM31 85h1v1h-1zM32 86h2v1h-2zM34 87h1v1h-1zM36 88h1v1h-1zM38 89h1v1h-1zM39 90h1v1h-1z" /><path fill="#1972ed" d="M17 74h1v1h-1zM19 75h1v1h-1zM22 77h1v1h-1zM24 78h1v1h-1zM29 81h1v1h-1zM31 82h1v1h-1zM36 85h1v1h-1zM38 86h1v1h-1z" /><path fill="#0f64df" d="M42 74h1v1h-1z" /><path fill="#1b77f1" d="M10 75h1v1h-1zM41 93h1v1h-1z" /><path fill="#1c76f1" d="M11 75h1v1h-1zM13 76h1v1h-1zM18 79h1v1h-1zM20 80h1v1h-1zM25 83h1v1h-1zM27 84h1v1h-1zM30 86h1v1h-1zM32 87h1v1h-1zM34 88h1v1h-1zM37 90h1v1h-1zM39 91h1v1h-1z" /><path fill="#1b76f1" d="M12 75h1v1h-1zM15 77h1v1h-1zM17 78h1v1h-1zM19 79h1v1h-1zM22 81h1v1h-1zM24 82h1v1h-1zM26 83h1v1h-1zM29 85h1v1h-1zM31 86h1v1h-1zM33 87h1v1h-1zM36 89h1v1h-1zM38 90h1v1h-1z" /><path fill="#0f65e1" d="M42 75h1v1h-1z" /><path fill="#1c78f2" d="M10 76h1v1h-1z" /><path fill="#1c77f2" d="M11 76h2v1h-2zM13 77h1v1h-1zM15 78h1v1h-1zM16 79h2v1h-2zM18 80h2v1h-2zM20 81h1v1h-1zM22 82h1v1h-1zM23 83h2v1h-2zM25 84h1v1h-1zM27 85h1v1h-1zM29 86h1v1h-1zM30 87h2v1h-2zM32 88h1v1h-1zM34 89h1v1h-1zM35 90h2v1h-2zM37 91h2v1h-2zM39 92h1v1h-1z" /><path fill="#1b76f0" d="M14 76h1v1h-1zM16 77h1v1h-1zM18 78h1v1h-1zM21 80h1v1h-1zM23 81h1v1h-1zM28 84h1v1h-1zM30 85h1v1h-1zM35 88h1v1h-1zM37 89h1v1h-1zM40 91h1v1h-1z" /><path fill="#1a75ef" d="M16 76h1v1h-1zM18 77h1v1h-1zM23 80h1v1h-1zM25 81h1v1h-1zM28 83h1v1h-1zM30 84h1v1h-1zM32 85h1v1h-1zM35 87h1v1h-1zM37 88h1v1h-1z" /><path fill="#0f67e1" d="M42 76h1v1h-1z" /><path fill="#1e78f4" d="M9 77h1v1h-1zM40 95h1v1h-1z" /><path fill="#1d79f4" d="M10 77h1v1h-1zM17 81h1v1h-1zM36 92h1v1h-1z" /><path fill="#1d78f3" d="M11 77h1v1h-1zM13 78h1v1h-1zM15 79h1v1h-1zM16 80h2v1h-2zM18 81h1v1h-1zM20 82h1v1h-1zM21 83h2v1h-2zM23 84h2v1h-2zM25 85h1v1h-1zM27 86h1v1h-1zM28 87h2v1h-2zM30 88h2v1h-2zM32 89h1v1h-1zM34 90h1v1h-1zM35 91h2v1h-2zM37 92h1v1h-1zM39 93h1v1h-1z" /><path fill="#1d78f2" d="M12 77h1v1h-1zM14 78h1v1h-1zM19 81h1v1h-1zM21 82h1v1h-1zM26 85h1v1h-1zM28 86h1v1h-1zM33 89h1v1h-1zM38 92h1v1h-1zM40 93h1v1h-1z" /><path fill="#1c77f1" d="M14 77h1v1h-1zM16 78h1v1h-1zM21 81h1v1h-1zM23 82h1v1h-1zM26 84h1v1h-1zM28 85h1v1h-1zM33 88h1v1h-1zM35 89h1v1h-1zM40 92h1v1h-1z" /><path fill="#1974ee" d="M20 77h1v1h-1zM27 81h1v1h-1z" /><path fill="#1771ec" d="M25 77h1v1h-1zM42 87h1v1h-1z" /><path fill="#1269e3" d="M40 77h1v1h-1z" /><path fill="#1e7af4" d="M9 78h2v1h-2zM12 79h1v1h-1zM17 82h1v1h-1zM19 83h1v1h-1zM24 86h1v1h-1zM31 90h1v1h-1zM36 93h1v1h-1zM38 94h1v1h-1z" /><path fill="#1e79f4" d="M11 78h1v1h-1zM13 79h1v1h-1zM14 80h2v1h-2zM16 81h1v1h-1zM18 82h1v1h-1zM20 83h1v1h-1zM21 84h2v1h-2zM23 85h1v1h-1zM25 86h1v1h-1zM26 87h2v1h-2zM28 88h2v1h-2zM30 89h1v1h-1zM32 90h1v1h-1zM33 91h2v1h-2zM35 92h1v1h-1zM37 93h1v1h-1zM39 94h1v1h-1z" /><path fill="#1d79f3" d="M12 78h1v1h-1zM14 79h1v1h-1zM19 82h1v1h-1zM24 85h1v1h-1zM26 86h1v1h-1zM31 89h1v1h-1zM33 90h1v1h-1zM38 93h1v1h-1zM40 94h1v1h-1z" /><path fill="#207cf6" d="M8 79h1v1h-1zM10 80h1v1h-1zM15 83h1v1h-1zM22 87h1v1h-1zM29 91h1v1h-1zM34 94h1v1h-1zM36 95h1v1h-1zM39 97h1v1h-1z" /><path fill="#1f7bf6" d="M9 79h1v1h-1zM11 80h1v1h-1zM12 81h2v1h-2zM14 82h2v1h-2zM16 83h1v1h-1zM18 84h1v1h-1zM19 85h2v1h-2zM21 86h1v1h-1zM23 87h1v1h-1zM24 88h2v1h-2zM26 89h2v1h-2zM28 90h1v1h-1zM30 91h1v1h-1zM31 92h2v1h-2zM33 93h2v1h-2zM35 94h1v1h-1zM37 95h1v1h-1zM38 96h2v1h-2z" /><path fill="#1f7bf5" d="M10 79h1v1h-1zM17 83h1v1h-1zM22 86h1v1h-1zM24 87h1v1h-1zM29 90h1v1h-1zM36 94h1v1h-1z" /><path fill="#1e7af5" d="M11 79h1v1h-1zM13 80h1v1h-1zM15 81h1v1h-1zM18 83h1v1h-1zM20 84h1v1h-1zM22 85h1v1h-1zM25 87h1v1h-1zM27 88h1v1h-1zM29 89h1v1h-1zM30 90h1v1h-1zM32 91h1v1h-1zM34 92h1v1h-1zM37 94h1v1h-1zM39 95h1v1h-1z" /><path fill="#1a75f0" d="M21 79h1v1h-1zM40 90h1v1h-1zM41 92h1v1h-1z" /><path fill="#1f7df6" d="M8 80h1v1h-1z" /><path fill="#207cf7" d="M9 80h1v1h-1zM10 81h2v1h-2zM12 82h2v1h-2zM14 83h1v1h-1zM16 84h1v1h-1zM17 85h2v1h-2zM19 86h2v1h-2zM21 87h1v1h-1zM22 88h2v1h-2zM24 89h2v1h-2zM26 90h2v1h-2zM28 91h1v1h-1zM29 92h2v1h-2zM31 93h2v1h-2zM33 94h1v1h-1zM35 95h1v1h-1zM36 96h2v1h-2zM38 97h1v1h-1z" /><path fill="#1f7af5" d="M12 80h1v1h-1zM14 81h1v1h-1zM16 82h1v1h-1zM19 84h1v1h-1zM21 85h1v1h-1zM23 86h1v1h-1zM26 88h1v1h-1zM28 89h1v1h-1zM31 91h1v1h-1zM33 92h1v1h-1zM35 93h1v1h-1zM38 95h1v1h-1z" /><path fill="#207df8" d="M7 81h1v1h-1zM13 83h1v1h-1zM25 90h1v1h-1zM32 94h1v1h-1z" /><path fill="#217df8" d="M8 81h2v1h-2zM10 82h2v1h-2zM12 83h1v1h-1zM14 84h1v1h-1zM15 85h2v1h-2zM17 86h2v1h-2zM19 87h1v1h-1zM21 88h1v1h-1zM22 89h2v1h-2zM24 90h1v1h-1zM26 91h1v1h-1zM28 92h1v1h-1zM29 93h2v1h-2zM31 94h1v1h-1zM33 95h1v1h-1zM34 96h2v1h-2zM36 97h2v1h-2zM38 98h1v1h-1z" /><path fill="#217ff9" d="M7 82h1v1h-1z" /><path fill="#227ef9" d="M8 82h1v1h-1zM10 83h1v1h-1zM12 84h1v1h-1zM13 85h1v1h-1zM15 86h1v1h-1zM17 87h1v1h-1zM20 89h1v1h-1zM22 90h1v1h-1zM24 91h1v1h-1zM27 93h1v1h-1zM29 94h1v1h-1zM31 95h1v1h-1zM34 97h1v1h-1zM36 98h1v1h-1z" /><path fill="#217ef9" d="M9 82h1v1h-1zM11 83h1v1h-1zM14 85h1v1h-1zM16 86h1v1h-1zM18 87h1v1h-1zM19 88h1v1h-1zM21 89h1v1h-1zM23 90h1v1h-1zM25 91h1v1h-1zM26 92h1v1h-1zM28 93h1v1h-1zM30 94h1v1h-1zM33 96h1v1h-1zM35 97h1v1h-1zM37 98h1v1h-1z" /><path fill="#237ffb" d="M6 83h1v1h-1z" /><path fill="#2380fb" d="M7 83h1v1h-1zM6 84h1v1h-1zM8 84h2v1h-2zM10 85h1v1h-1zM11 86h2v1h-2zM13 87h2v1h-2zM15 88h2v1h-2zM17 89h1v1h-1zM18 90h2v1h-2zM20 91h2v1h-2zM22 92h2v1h-2zM24 93h1v1h-1zM25 94h2v1h-2zM27 95h2v1h-2zM29 96h1v1h-1zM30 97h2v1h-2zM32 98h2v1h-2z" /><path fill="#227ffa" d="M8 83h2v1h-2zM10 84h2v1h-2zM12 85h1v1h-1zM14 86h1v1h-1zM15 87h2v1h-2zM17 88h1v1h-1zM19 89h1v1h-1zM20 90h2v1h-2zM22 91h2v1h-2zM24 92h1v1h-1zM26 93h1v1h-1zM27 94h2v1h-2zM29 95h2v1h-2zM31 96h1v1h-1zM33 97h1v1h-1zM34 98h2v1h-2z" /><path fill="#2481fc" d="M7 84h1v1h-1zM8 85h1v1h-1zM10 86h1v1h-1zM11 87h2v1h-2zM13 88h1v1h-1zM15 89h1v1h-1zM16 90h2v1h-2zM18 91h2v1h-2zM20 92h1v1h-1zM22 93h1v1h-1zM23 94h2v1h-2zM25 95h2v1h-2zM27 96h1v1h-1zM29 97h1v1h-1zM30 98h2v1h-2zM31 99h1v1h-1z" /><path fill="#217ef8" d="M13 84h1v1h-1zM20 88h1v1h-1zM27 92h1v1h-1zM32 95h1v1h-1z" /><path fill="#207df7" d="M15 84h1v1h-1zM20 87h1v1h-1zM27 91h1v1h-1zM34 95h1v1h-1zM39 98h1v1h-1z" /><path fill="#207bf6" d="M17 84h1v1h-1z" /><path fill="#2583fd" d="M5 85h1v1h-1zM14 90h1v1h-1z" /><path fill="#2582fd" d="M6 85h1v1h-1zM8 86h1v1h-1zM9 87h1v1h-1zM11 88h1v1h-1zM13 89h1v1h-1zM16 91h1v1h-1zM18 92h1v1h-1zM20 93h1v1h-1zM21 94h1v1h-1zM23 95h1v1h-1zM25 96h1v1h-1zM27 97h1v1h-1zM28 98h1v1h-1zM28 99h2v1h-2z" /><path fill="#2482fd" d="M7 85h1v1h-1zM10 87h1v1h-1zM12 88h1v1h-1zM14 89h1v1h-1zM15 90h1v1h-1zM17 91h1v1h-1zM19 92h1v1h-1zM21 93h1v1h-1zM22 94h1v1h-1zM24 95h1v1h-1zM26 96h1v1h-1zM29 98h1v1h-1z" /><path fill="#2381fc" d="M9 85h1v1h-1zM14 88h1v1h-1zM21 92h1v1h-1zM28 96h1v1h-1z" /><path fill="#2380fa" d="M11 85h1v1h-1zM18 89h1v1h-1zM30 96h1v1h-1z" /><path fill="#2583fe" d="M6 86h2v1h-2zM8 87h1v1h-1zM9 88h2v1h-2zM11 89h2v1h-2zM13 90h1v1h-1zM15 91h1v1h-1zM16 92h2v1h-2zM18 93h2v1h-2zM20 94h1v1h-1zM22 95h1v1h-1zM23 96h2v1h-2zM25 97h2v1h-2zM27 98h1v1h-1z" /><path fill="#2482fc" d="M9 86h1v1h-1zM28 97h1v1h-1z" /><path fill="#237ffa" d="M13 86h1v1h-1zM25 93h1v1h-1zM32 97h1v1h-1zM34 99h2v1h-2z" /><path fill="#2683fe" d="M7 87h1v1h-1zM14 91h1v1h-1zM21 95h1v1h-1zM26 98h1v1h-1z" /><path fill="#227ff9" d="M18 88h1v1h-1zM25 92h1v1h-1zM32 96h1v1h-1zM36 99h1v1h-1z" /><path fill="#2381fb" d="M16 89h1v1h-1zM23 93h1v1h-1z" /><path fill="#1b75ef" d="M41 91h1v1h-1z" /><path fill="#2581fc" d="M30 99h1v1h-1z" /><path fill="#2480fb" d="M32 99h2v1h-2z" /><path fill="#217ffa" d="M37 99h1v1h-1z" /><path fill="#227df9" d="M38 99h1v1h-1z" /></svg>