<svg xmlns="http://www.w3.org/2000/svg" viewBox="0 0 100 100" width="1em" height="1em"><path fill="#e00054" d="M34 15h1v1h-1zM34 17h2v1h-2zM34 18h3v1h-3zM33 19h3v1h-3zM33 20h4v1h-4zM32 21h5v1h-5zM32 22h6v1h-6zM30 23h8v1h-8zM31 24h8v1h-8zM30 25h9v1h-9zM29 26h11v1h-11zM47 26h1v1h-1zM29 27h11v1h-11zM53 27h1v1h-1zM29 28h12v1h-12zM28 29h13v1h-13zM28 30h14v1h-14zM27 31h15v1h-15zM26 32h17v1h-17zM25 33h18v1h-18zM25 34h20v1h-20zM51 34h1v1h-1zM25 35h19v1h-19zM25 36h20v1h-20zM52 36h1v1h-1zM24 37h21v1h-21zM24 38h23v1h-23zM23 39h23v1h-23zM22 40h25v1h-25zM22 41h25v1h-25zM22 42h26v1h-26zM55 42h1v1h-1zM21 43h28v1h-28zM21 44h28v1h-28zM61 44h1v1h-1zM20 45h29v1h-29zM20 46h30v1h-30zM19 47h31v1h-31zM19 48h32v1h-32zM18 49h33v1h-33zM18 50h34v1h-34zM64 50h1v1h-1zM17 51h35v1h-35zM17 52h36v1h-36zM60 52h1v1h-1zM16 53h37v1h-37zM15 54h39v1h-39zM61 54h1v1h-1zM15 55h40v1h-40zM15 56h40v1h-40zM14 57h41v1h-41zM14 58h42v1h-42zM13 59h43v1h-43zM13 60h44v1h-44zM12 61h45v1h-45zM11 62h47v1h-47zM70 62h1v1h-1zM11 63h23v1h-23zM36 63h23v1h-23zM11 64h22v1h-22zM36 64h23v1h-23zM71 64h1v1h-1zM10 65h23v1h-23zM37 65h23v1h-23zM10 66h23v1h-23zM37 66h23v1h-23zM10 67h22v1h-22zM38 67h22v1h-22zM9 68h23v1h-23zM38 68h23v1h-23zM9 69h21v1h-21zM39 69h23v1h-23zM8 70h22v1h-22zM39 70h23v1h-23zM80 70h1v1h-1zM8 71h21v1h-21zM40 71h22v1h-22zM7 72h22v1h-22zM40 72h23v1h-23zM7 73h21v1h-21zM41 73h22v1h-22zM76 73h1v1h-1zM6 74h22v1h-22zM41 74h23v1h-23zM6 75h21v1h-21zM41 75h24v1h-24zM5 76h22v1h-22zM42 76h23v1h-23zM5 77h21v1h-21zM42 77h23v1h-23zM72 77h1v1h-1zM4 78h22v1h-22zM44 78h22v1h-22zM4 79h21v1h-21zM43 79h24v1h-24zM79 79h1v1h-1zM3 80h22v1h-22zM45 80h21v1h-21zM85 80h1v1h-1zM3 81h21v1h-21zM45 81h22v1h-22zM74 81h1v1h-1zM80 81h1v1h-1zM2 82h22v1h-22zM45 82h22v1h-22zM2 83h22v1h-22zM46 83h22v1h-22zM1 84h22v1h-22zM46 84h22v1h-22z" /><path fill="#df0053" d="M36 15h11v1h-11zM48 15h5v1h-5zM34 16h1v1h-1zM37 16h11v1h-11zM49 16h5v1h-5zM33 17h1v1h-1zM37 17h11v1h-11zM50 17h4v1h-4zM33 18h1v1h-1zM38 18h11v1h-11zM50 18h5v1h-5zM38 19h12v1h-12zM51 19h4v1h-4zM32 20h1v1h-1zM37 20h1v1h-1zM45 20h4v1h-4zM51 20h4v1h-4zM31 21h1v1h-1zM45 21h5v1h-5zM52 21h4v1h-4zM46 22h4v1h-4zM52 22h4v1h-4zM38 23h1v1h-1zM46 23h11v1h-11zM39 24h1v1h-1zM47 24h4v1h-4zM52 24h5v1h-5zM39 25h1v1h-1zM47 25h5v1h-5zM53 25h5v1h-5zM48 26h4v1h-4zM54 26h4v1h-4zM40 27h1v1h-1zM48 27h5v1h-5zM54 27h5v1h-5zM28 28h1v1h-1zM49 28h5v1h-5zM55 28h5v1h-5zM49 29h11v1h-11zM49 30h5v1h-5zM56 30h4v1h-4zM26 31h1v1h-1zM50 31h5v1h-5zM56 31h5v1h-5zM43 32h1v1h-1zM51 32h5v1h-5zM57 32h4v1h-4zM51 33h5v1h-5zM57 33h5v1h-5zM52 34h5v1h-5zM58 34h4v1h-4zM24 35h1v1h-1zM52 35h5v1h-5zM58 35h5v1h-5zM24 36h1v1h-1zM45 36h1v1h-1zM53 36h4v1h-4zM59 36h4v1h-4zM45 37h1v1h-1zM53 37h11v1h-11zM54 38h4v1h-4zM60 38h4v1h-4zM46 39h1v1h-1zM54 39h5v1h-5zM60 39h5v1h-5zM47 40h1v1h-1zM55 40h5v1h-5zM61 40h4v1h-4zM55 41h5v1h-5zM61 41h5v1h-5zM21 42h1v1h-1zM56 42h4v1h-4zM62 42h4v1h-4zM56 43h5v1h-5zM62 43h5v1h-5zM57 44h4v1h-4zM63 44h5v1h-5zM57 45h5v1h-5zM63 45h5v1h-5zM58 46h4v1h-4zM64 46h5v1h-5zM50 47h1v1h-1zM58 47h5v1h-5zM64 47h5v1h-5zM59 48h4v1h-4zM65 48h5v1h-5zM59 49h5v1h-5zM65 49h5v1h-5zM60 50h4v1h-4zM66 50h4v1h-4zM60 51h5v1h-5zM66 51h5v1h-5zM61 52h4v1h-4zM67 52h4v1h-4zM61 53h5v1h-5zM67 53h5v1h-5zM62 54h4v1h-4zM68 54h4v1h-4zM62 55h5v1h-5zM68 55h5v1h-5zM62 56h5v1h-5zM69 56h4v1h-4zM55 57h1v1h-1zM62 57h12v1h-12zM64 58h4v1h-4zM70 58h4v1h-4zM64 59h11v1h-11zM12 60h1v1h-1zM65 60h4v1h-4zM71 60h4v1h-4zM65 61h11v1h-11zM66 62h4v1h-4zM71 62h6v1h-6zM66 63h5v1h-5zM72 63h5v1h-5zM67 64h4v1h-4zM72 64h5v1h-5zM66 65h6v1h-6zM73 65h5v1h-5zM36 66h1v1h-1zM67 66h5v1h-5zM74 66h5v1h-5zM60 67h1v1h-1zM68 67h5v1h-5zM74 67h5v1h-5zM37 68h1v1h-1zM68 68h5v1h-5zM75 68h4v1h-4zM30 69h1v1h-1zM38 69h1v1h-1zM68 69h6v1h-6zM75 69h5v1h-5zM69 70h6v1h-6zM76 70h4v1h-4zM7 71h1v1h-1zM69 71h12v1h-12zM70 72h5v1h-5zM76 72h5v1h-5zM6 73h1v1h-1zM63 73h1v1h-1zM71 73h5v1h-5zM77 73h5v1h-5zM5 74h1v1h-1zM28 74h1v1h-1zM71 74h5v1h-5zM77 74h5v1h-5zM72 75h4v1h-4zM78 75h4v1h-4zM72 76h5v1h-5zM78 76h5v1h-5zM26 77h1v1h-1zM65 77h1v1h-1zM73 77h4v1h-4zM79 77h4v1h-4zM3 78h1v1h-1zM43 78h1v1h-1zM73 78h11v1h-11zM25 79h1v1h-1zM73 79h5v1h-5zM80 79h4v1h-4zM74 80h5v1h-5zM80 80h5v1h-5zM2 81h1v1h-1zM75 81h4v1h-4zM81 81h4v1h-4zM75 82h5v1h-5zM81 82h5v1h-5zM1 83h1v1h-1zM76 83h5v1h-5zM82 83h4v1h-4zM68 84h1v1h-1zM76 84h12v1h-12z" /><path fill="#df0052" d="M47 15h1v1h-1zM49 17h1v1h-1zM49 18h1v1h-1zM50 19h1v1h-1zM55 20h1v1h-1zM51 21h1v1h-1zM56 22h1v1h-1zM57 24h1v1h-1zM58 26h1v1h-1zM64 38h1v1h-1zM67 56h1v1h-1zM75 60h1v1h-1zM73 66h1v1h-1zM74 68h1v1h-1zM75 70h1v1h-1zM82 75h1v1h-1zM83 77h1v1h-1zM84 79h1v1h-1zM85 81h1v1h-1z" /><path fill="#e00053" d="M53 15h1v1h-1zM32 19h1v1h-1zM38 22h1v1h-1zM45 22h1v1h-1zM30 24h1v1h-1zM29 25h1v1h-1zM40 26h1v1h-1zM53 26h1v1h-1zM59 27h1v1h-1zM27 29h1v1h-1zM41 29h1v1h-1zM42 30h1v1h-1zM42 31h1v1h-1zM56 32h1v1h-1zM43 33h1v1h-1zM44 35h1v1h-1zM57 35h1v1h-1zM23 38h1v1h-1zM47 41h1v1h-1zM61 43h1v1h-1zM19 46h1v1h-1zM63 46h1v1h-1zM63 48h1v1h-1zM51 49h1v1h-1zM64 49h1v1h-1zM17 50h1v1h-1zM66 52h1v1h-1zM53 53h1v1h-1zM66 54h1v1h-1zM13 58h1v1h-1zM63 58h1v1h-1zM63 59h1v1h-1zM64 60h1v1h-1zM57 61h1v1h-1zM35 64h1v1h-1zM72 65h1v1h-1zM9 66h1v1h-1zM74 69h1v1h-1zM7 70h1v1h-1zM29 71h1v1h-1zM29 72h1v1h-1zM28 73h1v1h-1zM40 73h1v1h-1zM76 74h1v1h-1zM27 75h1v1h-1zM77 75h1v1h-1zM4 76h1v1h-1zM4 77h1v1h-1zM84 78h1v1h-1zM3 79h1v1h-1zM2 80h1v1h-1zM44 80h1v1h-1zM86 82h1v1h-1zM68 83h1v1h-1zM0 84h1v1h-1z" /><path fill="#df0054" d="M35 16h1v1h-1zM36 19h1v1h-1zM44 20h1v1h-1zM37 21h1v1h-1zM31 22h1v1h-1zM46 24h1v1h-1zM52 25h1v1h-1zM28 27h1v1h-1zM41 28h1v1h-1zM27 30h1v1h-1zM55 31h1v1h-1zM61 32h1v1h-1zM56 33h1v1h-1zM61 42h1v1h-1zM20 44h1v1h-1zM56 44h1v1h-1zM49 45h1v1h-1zM57 46h1v1h-1zM18 48h1v1h-1zM58 48h1v1h-1zM59 50h1v1h-1zM52 51h1v1h-1zM65 51h1v1h-1zM16 52h1v1h-1zM66 53h1v1h-1zM72 54h1v1h-1zM14 56h1v1h-1zM73 56h1v1h-1zM68 58h1v1h-1zM56 59h1v1h-1zM69 60h1v1h-1zM65 62h1v1h-1zM34 63h2v1h-2zM71 63h1v1h-1zM10 64h1v1h-1zM33 64h1v1h-1zM66 64h1v1h-1zM36 65h1v1h-1zM9 67h1v1h-1zM37 67h1v1h-1zM8 68h1v1h-1zM8 69h1v1h-1zM30 70h1v1h-1zM39 71h1v1h-1zM62 71h1v1h-1zM6 72h1v1h-1zM5 75h1v1h-1zM83 76h1v1h-1zM66 80h1v1h-1zM79 80h1v1h-1zM24 81h1v1h-1zM44 81h1v1h-1zM67 81h1v1h-1zM1 82h1v1h-1zM67 82h1v1h-1zM45 83h1v1h-1z" /><path fill="#df0055" d="M36 16h1v1h-1zM37 18h1v1h-1zM49 20h2v1h-2zM51 22h1v1h-1zM66 42h1v1h-1zM62 46h1v1h-1zM77 64h1v1h-1zM71 75h1v1h-1z" /><path fill="#de0054" d="M48 16h1v1h-1zM48 17h1v1h-1zM54 30h1v1h-1zM57 36h1v1h-1zM67 54h1v1h-1zM67 55h1v1h-1z" /><path fill="#de0053" d="M54 17h1v1h-1zM52 26h1v1h-1zM58 38h1v1h-1zM54 40h1v1h-1zM60 42h1v1h-1zM64 48h1v1h-1zM65 50h1v1h-1zM65 52h1v1h-1zM74 58h1v1h-1zM70 60h1v1h-1zM72 66h1v1h-1zM73 67h1v1h-1zM70 73h1v1h-1zM78 79h1v1h-1zM79 81h1v1h-1z" /><path fill="#e10055" d="M55 19h1v1h-1zM64 61h1v1h-1zM73 68h1v1h-1zM77 76h1v1h-1z" /><path fill="#e20054" d="M50 21h1v1h-1z" /><path fill="#de0055" d="M56 21h1v1h-1zM62 44h1v1h-1zM67 67h1v1h-1z" /><path fill="#e10053" d="M50 22h1v1h-1zM51 24h1v1h-1zM63 35h1v1h-1zM59 38h1v1h-1zM59 39h1v1h-1zM60 40h1v1h-1zM65 40h1v1h-1zM68 56h1v1h-1zM69 58h1v1h-1zM76 75h1v1h-1zM77 77h1v1h-1z" /><path fill="#dd0053" d="M57 23h1v1h-1zM54 28h1v1h-1zM58 36h1v1h-1z" /><path fill="#e10054" d="M58 25h1v1h-1zM60 30h1v1h-1zM50 32h1v1h-1zM62 34h1v1h-1zM63 36h1v1h-1zM53 38h1v1h-1zM81 72h1v1h-1zM82 74h1v1h-1zM86 83h1v1h-1z" /><path fill="#e00055" d="M48 28h1v1h-1zM61 31h1v1h-1zM71 52h1v1h-1zM79 68h1v1h-1zM75 72h1v1h-1zM80 82h1v1h-1zM75 83h1v1h-1z" /><path fill="#e00052" d="M60 29h1v1h-1zM55 30h1v1h-1zM57 34h1v1h-1zM60 41h1v1h-1zM62 45h1v1h-1zM81 83h1v1h-1z" /><path fill="#dd0051" d="M62 33h1v1h-1z" /><path fill="#de0052" d="M63 47h1v1h-1zM65 63h1v1h-1z" /><path fill="#e20055" d="M70 50h1v1h-1z" /><path fill="#e30055" d="M78 77h1v1h-1z" /></svg>