<svg xmlns="http://www.w3.org/2000/svg" viewBox="0 0 100 100" width="1em" height="1em"><path fill="#4b4b76" d="M16 23h1v1h-1zM35 23h5v1h-5zM64 23h1v1h-1zM81 23h2v1h-2zM42 24h1v1h-1zM58 24h1v1h-1zM13 25h1v1h-1zM23 25h1v1h-1zM57 25h1v1h-1zM56 26h1v1h-1zM25 27h1v1h-1zM74 27h1v1h-1zM45 28h1v1h-1zM88 29h1v1h-1zM33 31h1v1h-1zM53 32h1v1h-1zM66 32h1v1h-1zM34 34h1v1h-1zM65 34h1v1h-1zM48 35h1v1h-1zM35 36h1v1h-1zM36 38h1v1h-1zM63 39h1v1h-1zM6 40h1v1h-1zM6 41h1v1h-1zM31 41h1v1h-1zM61 44h1v1h-1zM95 45h1v1h-1zM60 46h1v1h-1zM60 47h1v1h-1zM96 47h1v1h-1zM3 48h1v1h-1zM65 48h1v1h-1zM40 49h1v1h-1zM2 50h1v1h-1zM64 50h1v1h-1zM97 50h1v1h-1zM58 51h1v1h-1zM1 52h1v1h-1zM17 54h4v1h-4zM57 54h1v1h-1zM79 54h4v1h-4zM76 55h1v1h-1zM85 55h1v1h-1zM24 56h1v1h-1zM56 56h1v1h-1zM75 56h1v1h-1zM99 56h1v1h-1zM0 57h1v1h-1zM74 57h1v1h-1zM62 58h1v1h-1zM74 58h1v1h-1zM36 59h1v1h-1zM54 59h1v1h-1zM63 59h1v1h-1zM35 60h1v1h-1zM72 60h1v1h-1zM89 60h1v1h-1zM98 60h1v1h-1zM5 61h1v1h-1zM8 61h1v1h-1zM32 61h1v1h-1zM91 61h1v1h-1zM96 61h1v1h-1z" /><path fill="#4a4a76" d="M17 23h1v1h-1zM19 23h1v1h-1zM62 23h1v1h-1zM22 24h1v1h-1zM33 25h1v1h-1zM43 25h1v1h-1zM44 26h1v1h-1zM75 26h1v1h-1zM55 27h1v1h-1zM87 27h1v1h-1zM25 28h1v1h-1zM67 28h1v1h-1zM33 30h1v1h-1zM73 30h1v1h-1zM47 32h1v1h-1zM89 32h1v1h-1zM34 33h1v1h-1zM47 33h1v1h-1zM9 34h1v1h-1zM90 34h1v1h-1zM28 35h1v1h-1zM71 35h1v1h-1zM8 36h1v1h-1zM52 36h1v1h-1zM29 37h1v1h-1zM64 37h1v1h-1zM7 38h1v1h-1zM30 39h1v1h-1zM67 43h1v1h-1zM32 44h1v1h-1zM38 44h1v1h-1zM33 46h1v1h-1zM3 47h1v1h-1zM34 48h1v1h-1zM40 48h1v1h-1zM65 49h1v1h-1zM1 53h1v1h-1zM98 53h1v1h-1zM16 54h1v1h-1zM63 54h1v1h-1zM23 55h1v1h-1zM11 58h1v1h-1zM25 58h1v1h-1zM26 59h1v1h-1zM1 60h1v1h-1zM9 60h1v1h-1zM46 60h1v1h-1zM64 60h1v1h-1zM90 60h1v1h-1zM68 61h1v1h-1zM70 61h1v1h-1zM93 61h1v1h-1z" /><path fill="#4b4b77" d="M18 23h1v1h-1zM20 23h1v1h-1zM40 23h1v1h-1zM60 23h2v1h-2zM79 23h1v1h-1zM14 24h8v1h-8zM35 24h7v1h-7zM59 24h8v1h-8zM78 24h7v1h-7zM14 25h9v1h-9zM34 25h9v1h-9zM58 25h9v1h-9zM76 25h11v1h-11zM13 26h12v1h-12zM33 26h11v1h-11zM57 26h10v1h-10zM76 26h11v1h-11zM13 27h12v1h-12zM32 27h13v1h-13zM56 27h12v1h-12zM75 27h12v1h-12zM12 28h13v1h-13zM33 28h12v1h-12zM56 28h11v1h-11zM74 28h14v1h-14zM11 29h15v1h-15zM33 29h13v1h-13zM55 29h13v1h-13zM74 29h14v1h-14zM11 30h16v1h-16zM34 30h12v1h-12zM54 30h13v1h-13zM74 30h15v1h-15zM11 31h16v1h-16zM34 31h13v1h-13zM54 31h13v1h-13zM73 31h16v1h-16zM11 32h17v1h-17zM34 32h13v1h-13zM54 32h12v1h-12zM73 32h16v1h-16zM10 33h18v1h-18zM35 33h12v1h-12zM54 33h12v1h-12zM72 33h19v1h-19zM10 34h18v1h-18zM35 34h13v1h-13zM53 34h12v1h-12zM72 34h18v1h-18zM9 35h19v1h-19zM35 35h13v1h-13zM53 35h13v1h-13zM72 35h19v1h-19zM9 36h20v1h-20zM36 36h12v1h-12zM53 36h12v1h-12zM70 36h21v1h-21zM8 37h21v1h-21zM36 37h14v1h-14zM51 37h13v1h-13zM70 37h22v1h-22zM8 38h22v1h-22zM37 38h27v1h-27zM70 38h23v1h-23zM7 39h23v1h-23zM36 39h27v1h-27zM69 39h24v1h-24zM7 40h24v1h-24zM37 40h26v1h-26zM69 40h25v1h-25zM7 41h24v1h-24zM38 41h25v1h-25zM68 41h26v1h-26zM6 42h26v1h-26zM38 42h25v1h-25zM68 42h26v1h-26zM5 43h28v1h-28zM38 43h24v1h-24zM68 43h26v1h-26zM5 44h27v1h-27zM39 44h22v1h-22zM67 44h28v1h-28zM4 45h29v1h-29zM39 45h22v1h-22zM67 45h28v1h-28zM4 46h29v1h-29zM40 46h20v1h-20zM67 46h29v1h-29zM4 47h30v1h-30zM40 47h20v1h-20zM66 47h30v1h-30zM4 48h30v1h-30zM41 48h19v1h-19zM66 48h30v1h-30zM3 49h32v1h-32zM41 49h18v1h-18zM66 49h31v1h-31zM3 50h32v1h-32zM41 50h18v1h-18zM65 50h32v1h-32zM2 51h34v1h-34zM42 51h16v1h-16zM64 51h34v1h-34zM2 52h34v1h-34zM42 52h16v1h-16zM64 52h34v1h-34zM2 53h34v1h-34zM42 53h16v1h-16zM63 53h35v1h-35zM1 54h15v1h-15zM21 54h15v1h-15zM42 54h15v1h-15zM64 54h14v1h-14zM83 54h1v1h-1zM85 54h14v1h-14zM0 55h15v1h-15zM24 55h13v1h-13zM43 55h14v1h-14zM63 55h13v1h-13zM86 55h14v1h-14zM1 56h12v1h-12zM25 56h12v1h-12zM44 56h12v1h-12zM62 56h13v1h-13zM87 56h12v1h-12zM1 57h12v1h-12zM25 57h13v1h-13zM44 57h12v1h-12zM63 57h11v1h-11zM88 57h12v1h-12zM1 58h10v1h-10zM26 58h11v1h-11zM44 58h12v1h-12zM63 58h11v1h-11zM88 58h11v1h-11zM1 59h11v1h-11zM27 59h9v1h-9zM45 59h9v1h-9zM64 59h9v1h-9zM88 59h11v1h-11zM2 60h7v1h-7zM28 60h7v1h-7zM47 60h7v1h-7zM65 60h7v1h-7zM91 60h7v1h-7zM3 61h2v1h-2zM6 61h1v1h-1zM31 61h1v1h-1zM33 61h1v1h-1zM49 61h2v1h-2zM65 61h3v1h-3zM95 61h1v1h-1z" /><path fill="#4a4a77" d="M63 23h1v1h-1zM80 23h1v1h-1zM83 23h1v1h-1zM34 24h1v1h-1zM77 24h1v1h-1zM32 26h1v1h-1zM67 26h1v1h-1zM12 27h1v1h-1zM32 28h1v1h-1zM55 28h1v1h-1zM46 30h1v1h-1zM10 31h1v1h-1zM89 31h1v1h-1zM10 32h1v1h-1zM72 32h1v1h-1zM53 33h1v1h-1zM28 34h1v1h-1zM71 34h1v1h-1zM52 35h1v1h-1zM29 36h1v1h-1zM48 36h1v1h-1zM91 36h1v1h-1zM63 40h1v1h-1zM37 41h1v1h-1zM94 43h1v1h-1zM39 46h1v1h-1zM66 46h1v1h-1zM96 48h1v1h-1zM59 49h1v1h-1zM35 50h1v1h-1zM41 51h1v1h-1zM41 52h1v1h-1zM58 52h1v1h-1zM98 52h1v1h-1zM36 53h1v1h-1zM36 54h1v1h-1zM78 54h1v1h-1zM84 54h1v1h-1zM0 56h1v1h-1zM13 56h1v1h-1zM37 56h1v1h-1zM43 56h1v1h-1zM86 56h1v1h-1zM62 57h1v1h-1zM87 57h1v1h-1zM0 58h1v1h-1zM99 58h1v1h-1zM73 59h1v1h-1zM10 60h1v1h-1zM27 60h1v1h-1zM7 61h1v1h-1zM29 61h2v1h-2zM34 61h1v1h-1zM48 61h1v1h-1zM51 61h1v1h-1zM69 61h1v1h-1zM92 61h1v1h-1zM94 61h1v1h-1z" /><path fill="#dfc6c0" d="M16 59h1v1h-1zM20 59h1v1h-1zM13 64h1v1h-1zM22 69h1v1h-1zM77 69h1v1h-1zM84 71h1v1h-1zM21 72h1v1h-1zM83 72h1v1h-1zM17 74h1v1h-1zM82 74h1v1h-1zM18 76h1v1h-1zM80 76h2v1h-2z" /><path fill="#e0c6c1" d="M17 59h1v1h-1zM83 59h1v1h-1zM23 62h1v1h-1zM22 70h1v1h-1zM20 74h1v1h-1zM82 75h1v1h-1z" /><path fill="#e0c7c1" d="M18 59h2v1h-2zM80 59h2v1h-2zM15 60h7v1h-7zM78 60h6v1h-6zM15 61h8v1h-8zM77 61h9v1h-9zM15 62h8v1h-8zM77 62h8v1h-8zM14 63h10v1h-10zM76 63h10v1h-10zM14 64h10v1h-10zM76 64h10v1h-10zM14 65h10v1h-10zM76 65h10v1h-10zM14 66h10v1h-10zM76 66h10v1h-10zM15 67h8v1h-8zM77 67h9v1h-9zM15 68h8v1h-8zM77 68h9v1h-9zM15 69h7v1h-7zM78 69h7v1h-7zM15 70h7v1h-7zM77 70h7v1h-7zM16 71h6v1h-6zM78 71h6v1h-6zM17 72h4v1h-4zM78 72h5v1h-5zM17 73h4v1h-4zM79 73h4v1h-4zM18 74h2v1h-2zM80 74h2v1h-2zM18 75h2v1h-2zM80 75h2v1h-2z" /><path fill="#dfc7c1" d="M79 59h1v1h-1zM77 60h1v1h-1zM84 60h1v1h-1zM14 62h1v1h-1zM76 62h1v1h-1zM85 62h1v1h-1zM14 67h1v1h-1zM23 67h1v1h-1zM83 73h1v1h-1z" /><path fill="#e0c7c0" d="M82 59h1v1h-1zM22 60h1v1h-1zM86 65h1v1h-1zM84 70h1v1h-1z" /><path fill="#dfc6c1" d="M14 61h1v1h-1zM86 64h1v1h-1zM76 67h1v1h-1zM23 68h1v1h-1zM16 73h1v1h-1zM17 75h1v1h-1z" /><path fill="#e0c6c0" d="M13 65h1v1h-1zM16 72h1v1h-1zM79 74h1v1h-1zM19 76h1v1h-1z" /><path fill="#dfc7c0" d="M14 68h1v1h-1zM15 71h1v1h-1z" /></svg>