<svg xmlns="http://www.w3.org/2000/svg" viewBox="0 0 100 100" width="1em" height="1em"><path fill="#252f3d" d="M13 20h1v1h-1zM10 21h1v1h-1zM53 21h1v1h-1zM77 22h1v1h-1zM76 23h1v1h-1zM15 24h1v1h-1zM83 24h1v1h-1zM87 24h1v1h-1zM6 25h1v1h-1zM22 27h1v1h-1zM79 27h1v1h-1zM69 28h1v1h-1zM81 31h1v1h-1zM83 32h1v1h-1zM67 33h1v1h-1zM86 33h1v1h-1zM9 34h1v1h-1zM67 34h1v1h-1zM53 35h1v1h-1zM78 35h1v1h-1zM57 36h1v1h-1zM5 38h1v1h-1zM94 38h1v1h-1zM44 39h1v1h-1zM58 39h1v1h-1zM90 42h1v1h-1zM64 43h1v1h-1zM4 44h1v1h-1zM59 44h1v1h-1zM78 46h1v1h-1zM20 48h1v1h-1zM25 49h1v1h-1zM27 49h1v1h-1zM62 49h1v1h-1zM76 49h1v1h-1zM90 49h1v1h-1zM9 50h1v1h-1zM16 50h1v1h-1z" /><path fill="#242e3d" d="M14 20h1v1h-1zM85 20h2v1h-2zM22 21h1v1h-1zM66 21h1v1h-1zM7 22h1v1h-1zM6 23h1v1h-1zM54 23h1v1h-1zM13 24h1v1h-1zM84 24h1v1h-1zM47 25h1v1h-1zM27 27h1v1h-1zM51 27h1v1h-1zM69 27h1v1h-1zM50 28h1v1h-1zM79 29h1v1h-1zM56 31h1v1h-1zM75 32h1v1h-1zM17 33h1v1h-1zM49 34h1v1h-1zM57 34h1v1h-1zM77 34h1v1h-1zM89 34h1v1h-1zM35 35h1v1h-1zM15 36h1v1h-1zM17 36h1v1h-1zM93 36h1v1h-1zM22 37h1v1h-1zM84 37h1v1h-1zM89 39h1v1h-1zM4 40h1v1h-1zM41 40h1v1h-1zM47 41h1v1h-1zM4 42h1v1h-1zM9 42h1v1h-1zM64 44h1v1h-1zM28 45h1v1h-1zM94 45h1v1h-1zM46 46h1v1h-1zM94 46h1v1h-1zM21 47h1v1h-1zM29 47h1v1h-1zM56 47h1v1h-1zM24 48h1v1h-1zM45 49h1v1h-1zM11 50h1v1h-1zM15 50h1v1h-1zM87 50h1v1h-1z" /><path fill="#242f3e" d="M15 20h2v1h-2zM25 23h1v1h-1zM17 24h1v1h-1zM32 24h1v1h-1zM65 24h1v1h-1zM9 25h1v1h-1zM70 25h1v1h-1zM7 26h1v1h-1zM33 27h1v1h-1zM55 27h1v1h-1zM38 28h1v1h-1zM64 28h1v1h-1zM74 29h1v1h-1zM46 30h1v1h-1zM34 31h1v1h-1zM52 31h1v1h-1zM68 31h1v1h-1zM39 32h1v1h-1zM12 33h2v1h-2zM18 33h1v1h-1zM76 33h1v1h-1zM53 34h1v1h-1zM45 35h1v1h-1zM57 35h1v1h-1zM62 35h1v1h-1zM6 36h1v1h-1zM16 36h1v1h-1zM5 37h1v1h-1zM66 37h1v1h-1zM10 39h1v1h-1zM54 39h1v1h-1zM58 40h1v1h-1zM65 40h1v1h-1zM4 41h1v1h-1zM55 42h1v1h-1zM42 43h2v1h-2zM90 43h1v1h-1zM38 44h1v1h-1zM11 46h1v1h-1zM18 46h1v1h-1zM23 46h1v1h-1zM63 46h1v1h-1zM93 47h1v1h-1zM10 50h1v1h-1zM80 50h1v1h-1z" /><path fill="#252e3e" d="M17 20h1v1h-1zM79 21h1v1h-1zM24 22h1v1h-1zM65 23h1v1h-1zM12 24h1v1h-1zM18 24h1v1h-1zM37 24h1v1h-1zM70 24h1v1h-1zM82 24h1v1h-1zM32 25h1v1h-1zM80 25h1v1h-1zM22 28h1v1h-1zM74 28h1v1h-1zM50 30h1v1h-1zM80 30h1v1h-1zM63 32h1v1h-1zM45 34h1v1h-1zM7 35h1v1h-1zM91 35h1v1h-1zM40 36h1v1h-1zM80 36h2v1h-2zM12 37h1v1h-1zM36 37h1v1h-1zM36 38h1v1h-1zM87 38h1v1h-1zM41 39h1v1h-1zM61 39h1v1h-1zM95 41h1v1h-1zM22 42h1v1h-1zM47 42h1v1h-1zM4 43h1v1h-1zM55 43h1v1h-1zM59 43h2v1h-2zM95 43h1v1h-1zM60 44h1v1h-1zM10 45h1v1h-1zM38 45h1v1h-1zM74 45h1v1h-1zM76 45h1v1h-1zM87 46h1v1h-1zM74 48h1v1h-1zM8 49h1v1h-1z" /><path fill="#242f3d" d="M18 20h1v1h-1zM84 20h1v1h-1zM87 20h1v1h-1zM23 21h1v1h-1zM93 22h1v1h-1zM88 24h1v1h-1zM10 25h1v1h-1zM75 25h1v1h-1zM91 25h1v1h-1zM47 26h1v1h-1zM55 26h1v1h-1zM79 28h1v1h-1zM46 29h1v1h-1zM49 33h1v1h-1zM54 38h1v1h-1zM90 41h1v1h-1zM21 44h1v1h-1zM28 44h1v1h-1zM46 45h1v1h-1zM80 46h1v1h-1zM86 46h1v1h-1zM56 48h1v1h-1zM92 48h1v1h-1zM18 49h1v1h-1zM78 50h1v1h-1zM88 50h1v1h-1z" /><path fill="#252e3d" d="M19 20h2v1h-2zM81 20h2v1h-2zM37 23h1v1h-1zM16 24h1v1h-1zM26 24h1v1h-1zM26 25h1v1h-1zM21 26h1v1h-1zM74 27h1v1h-1zM33 28h1v1h-1zM68 30h1v1h-1zM56 32h1v1h-1zM14 36h1v1h-1zM18 36h1v1h-1zM44 38h1v1h-1zM48 38h1v1h-1zM61 40h1v1h-1zM9 41h1v1h-1zM37 41h1v1h-1zM65 41h1v1h-1zM42 44h1v1h-1zM55 44h1v1h-1zM20 45h1v1h-1zM89 45h1v1h-1zM12 46h1v1h-1zM79 46h1v1h-1zM63 47h1v1h-1zM39 48h1v1h-1zM79 50h1v1h-1z" /><path fill="#242e3e" d="M83 20h1v1h-1zM88 20h1v1h-1zM31 21h1v1h-1zM36 21h1v1h-1zM92 21h1v1h-1zM6 24h1v1h-1zM14 24h1v1h-1zM89 24h1v1h-1zM38 27h1v1h-1zM52 30h1v1h-1zM56 30h1v1h-1zM46 31h1v1h-1zM63 31h1v1h-1zM34 32h1v1h-1zM11 33h1v1h-1zM35 34h1v1h-1zM40 35h1v1h-1zM83 37h1v1h-1zM10 38h1v1h-1zM75 45h1v1h-1zM6 48h1v1h-1z" /><path fill="#252f3e" d="M89 20h1v1h-1zM9 21h1v1h-1zM11 21h11v1h-11zM32 21h4v1h-4zM49 21h4v1h-4zM67 21h4v1h-4zM80 21h12v1h-12zM8 22h16v1h-16zM31 22h6v1h-6zM48 22h7v1h-7zM66 22h5v1h-5zM78 22h15v1h-15zM7 23h18v1h-18zM32 23h5v1h-5zM48 23h6v1h-6zM66 23h5v1h-5zM77 23h17v1h-17zM7 24h5v1h-5zM19 24h7v1h-7zM33 24h4v1h-4zM48 24h7v1h-7zM66 24h4v1h-4zM76 24h6v1h-6zM85 24h2v1h-2zM90 24h4v1h-4zM7 25h2v1h-2zM20 25h6v1h-6zM33 25h5v1h-5zM48 25h7v1h-7zM65 25h5v1h-5zM76 25h4v1h-4zM92 25h2v1h-2zM22 26h5v1h-5zM33 26h5v1h-5zM48 26h7v1h-7zM65 26h5v1h-5zM75 26h5v1h-5zM23 27h4v1h-4zM34 27h4v1h-4zM47 27h4v1h-4zM52 27h3v1h-3zM64 27h5v1h-5zM75 27h4v1h-4zM23 28h5v1h-5zM34 28h4v1h-4zM47 28h3v1h-3zM52 28h4v1h-4zM65 28h4v1h-4zM75 28h4v1h-4zM23 29h5v1h-5zM34 29h5v1h-5zM47 29h4v1h-4zM52 29h4v1h-4zM64 29h5v1h-5zM75 29h4v1h-4zM23 30h5v1h-5zM34 30h5v1h-5zM47 30h3v1h-3zM53 30h3v1h-3zM64 30h4v1h-4zM75 30h5v1h-5zM23 31h5v1h-5zM35 31h5v1h-5zM47 31h3v1h-3zM53 31h3v1h-3zM64 31h4v1h-4zM75 31h6v1h-6zM23 32h5v1h-5zM35 32h4v1h-4zM46 32h4v1h-4zM53 32h3v1h-3zM64 32h4v1h-4zM76 32h7v1h-7zM14 33h3v1h-3zM19 33h2v1h-2zM23 33h5v1h-5zM35 33h5v1h-5zM46 33h3v1h-3zM53 33h4v1h-4zM63 33h4v1h-4zM77 33h9v1h-9zM10 34h18v1h-18zM36 34h4v1h-4zM46 34h3v1h-3zM54 34h3v1h-3zM63 34h4v1h-4zM78 34h11v1h-11zM8 35h20v1h-20zM36 35h4v1h-4zM46 35h3v1h-3zM54 35h3v1h-3zM63 35h4v1h-4zM79 35h12v1h-12zM7 36h7v1h-7zM19 36h9v1h-9zM36 36h4v1h-4zM45 36h4v1h-4zM54 36h3v1h-3zM62 36h5v1h-5zM82 36h11v1h-11zM6 37h6v1h-6zM23 37h5v1h-5zM37 37h4v1h-4zM45 37h4v1h-4zM54 37h4v1h-4zM62 37h4v1h-4zM85 37h9v1h-9zM6 38h4v1h-4zM23 38h5v1h-5zM37 38h4v1h-4zM45 38h3v1h-3zM55 38h3v1h-3zM62 38h4v1h-4zM86 38h1v1h-1zM88 38h6v1h-6zM5 39h5v1h-5zM23 39h5v1h-5zM37 39h4v1h-4zM45 39h3v1h-3zM55 39h3v1h-3zM62 39h4v1h-4zM90 39h5v1h-5zM5 40h5v1h-5zM23 40h5v1h-5zM37 40h4v1h-4zM44 40h4v1h-4zM55 40h3v1h-3zM62 40h3v1h-3zM90 40h6v1h-6zM5 41h4v1h-4zM22 41h6v1h-6zM38 41h4v1h-4zM44 41h3v1h-3zM55 41h4v1h-4zM61 41h4v1h-4zM91 41h4v1h-4zM5 42h4v1h-4zM23 42h5v1h-5zM38 42h4v1h-4zM43 42h4v1h-4zM56 42h3v1h-3zM61 42h4v1h-4zM91 42h5v1h-5zM5 43h5v1h-5zM22 43h6v1h-6zM38 43h4v1h-4zM44 43h3v1h-3zM56 43h3v1h-3zM61 43h3v1h-3zM91 43h4v1h-4zM5 44h5v1h-5zM22 44h6v1h-6zM39 44h3v1h-3zM43 44h4v1h-4zM56 44h3v1h-3zM61 44h3v1h-3zM90 44h5v1h-5zM5 45h5v1h-5zM19 45h1v1h-1zM21 45h7v1h-7zM39 45h7v1h-7zM56 45h8v1h-8zM90 45h4v1h-4zM5 46h6v1h-6zM17 46h1v1h-1zM19 46h4v1h-4zM24 46h5v1h-5zM39 46h7v1h-7zM56 46h7v1h-7zM74 46h4v1h-4zM88 46h6v1h-6zM6 47h15v1h-15zM24 47h5v1h-5zM39 47h7v1h-7zM57 47h6v1h-6zM74 47h19v1h-19zM7 48h13v1h-13zM25 48h4v1h-4zM40 48h6v1h-6zM57 48h6v1h-6zM75 48h17v1h-17zM9 49h9v1h-9zM26 49h1v1h-1zM40 49h5v1h-5zM57 49h5v1h-5zM77 49h13v1h-13zM12 50h3v1h-3zM81 50h6v1h-6z" /><path fill="#ff9800" d="M90 57h2v1h-2zM93 57h1v1h-1zM95 57h1v1h-1zM86 58h1v1h-1zM1 59h1v1h-1zM83 59h2v1h-2zM99 59h1v1h-1zM0 60h1v1h-1zM84 61h1v1h-1zM95 62h1v1h-1zM4 63h1v1h-1zM99 63h1v1h-1zM10 64h2v1h-2zM95 65h1v1h-1zM8 66h1v1h-1zM85 66h1v1h-1zM98 66h1v1h-1zM9 67h1v1h-1zM19 67h1v1h-1zM82 67h2v1h-2zM89 67h1v1h-1zM88 68h1v1h-1zM97 68h1v1h-1zM25 69h1v1h-1zM76 69h1v1h-1zM86 69h1v1h-1zM94 69h1v1h-1zM29 70h2v1h-2zM71 70h2v1h-2zM84 70h1v1h-1zM96 70h1v1h-1zM67 71h1v1h-1zM83 71h1v1h-1zM18 72h1v1h-1zM42 72h1v1h-1zM58 72h1v1h-1zM60 72h2v1h-2zM79 73h1v1h-1zM76 74h1v1h-1zM25 75h2v1h-2zM73 75h1v1h-1zM92 75h1v1h-1zM28 76h1v1h-1zM33 77h1v1h-1zM66 77h2v1h-2zM38 78h1v1h-1zM60 78h1v1h-1zM62 78h1v1h-1zM43 79h1v1h-1zM45 79h1v1h-1zM47 79h1v1h-1zM49 79h1v1h-1zM51 79h1v1h-1zM55 79h1v1h-1z" /><path fill="#ff9900" d="M92 57h1v1h-1zM94 57h1v1h-1zM87 58h12v1h-12zM0 59h1v1h-1zM85 59h14v1h-14zM1 60h2v1h-2zM82 60h18v1h-18zM1 61h4v1h-4zM82 61h2v1h-2zM93 61h7v1h-7zM2 62h5v1h-5zM96 62h4v1h-4zM5 63h4v1h-4zM95 63h4v1h-4zM5 64h5v1h-5zM95 64h4v1h-4zM6 65h8v1h-8zM87 65h4v1h-4zM96 65h3v1h-3zM9 66h8v1h-8zM86 66h5v1h-5zM95 66h3v1h-3zM10 67h9v1h-9zM84 67h5v1h-5zM95 67h4v1h-4zM10 68h13v1h-13zM79 68h9v1h-9zM94 68h3v1h-3zM12 69h13v1h-13zM75 69h1v1h-1zM77 69h9v1h-9zM95 69h3v1h-3zM14 70h15v1h-15zM73 70h11v1h-11zM85 70h1v1h-1zM94 70h2v1h-2zM16 71h20v1h-20zM65 71h2v1h-2zM68 71h15v1h-15zM93 71h4v1h-4zM19 72h23v1h-23zM43 72h5v1h-5zM55 72h3v1h-3zM59 72h1v1h-1zM62 72h20v1h-20zM93 72h3v1h-3zM20 73h59v1h-59zM93 73h2v1h-2zM22 74h54v1h-54zM92 74h2v1h-2zM27 75h46v1h-46zM74 75h1v1h-1zM29 76h43v1h-43zM31 77h2v1h-2zM34 77h32v1h-32zM36 78h2v1h-2zM39 78h21v1h-21zM61 78h1v1h-1zM44 79h1v1h-1zM46 79h1v1h-1zM48 79h1v1h-1zM50 79h1v1h-1zM52 79h3v1h-3z" /></svg>