<svg xmlns="http://www.w3.org/2000/svg" viewBox="0 0 100 100"><path fill-rule="evenodd" stroke="#000" stroke-width=".1" d="M49 14h2v1h-2zm-10 10h1v2h-1zm21 0h1v2h-1zm-16 10h1v2h-1v1h-1v-2h1zm11 0h1v1h1v2h1v1h1v2h1v2h1v2h-1v-1h-1v-2h-1v-2h-1v-1h-1v-2h-1zm-6 1h2v1h-2zm-6 2v2h-1v2h-1v2h-1v1h-1v-2h1v-2h1v-2h1v-1zm-4 7v2h-1v2h-1v2h-1v1h-1v-2h1v-2h1v-2h1v-1zm22 0h1v1h1v2h1v2h1v2h-1v-1h-1v-2h-1v-2h-1zm-26 7v2h-1v2h-1v2h-1v1h-1v-2h1v-2h1v-2h1v-1zm30 0h1v1h1v2h1v2h1v2h-1v-1h-1v-2h-1v-2h-1zm-34 7v2h-1v1h-1v-2h1v-1zm38 0h1v1h1v2h-1v-1h-1zm-46 1h2v1h-2zm52 0h2v1h-2zm-62 10h1v2h-1zm21 0h1v2h-1zm31 0h1v2h-1zm21 0h1v2h-1zm-63 11h2v1h-2zm52 0h2v1h-2z"/><path fill="#000300" fill-rule="evenodd" stroke="#000300" stroke-width=".1" d="M45 15h1v1h-1zm9 0h1v1h-1zm-14 5h1v1h-1zm19 0h1v1h-1zm-19 9h1v1h-1zm19 0h1v1h-1z"/><path fill="#000400" fill-rule="evenodd" stroke="#000400" stroke-width=".1" d="M46 15h1v1h-1zm7 0h1v1h-1zm-9 1h1v1h-1zm11 0h1v1h-1zm-14 3h1v1h-1zm17 0h1v1h-1zm-18 2h1v1h-1zm19 0h1v1h-1zm-19 7h1v1h-1zm19 0h1v1h-1zm-18 2h1v1h-1zm17 0h1v1h-1zm-14 3h1v1h-1zm11 0h1v1h-1zm-9 1h1v1h-1zm7 0h1v1h-1z"/><path fill="#000700" fill-rule="evenodd" stroke="#000700" stroke-width=".1" d="M47 15h1v1h-1zm-7 7h1v1h-1zm0 5h1v1h-1z"/><path fill="#003200" fill-rule="evenodd" stroke="#003200" stroke-width=".1" d="M48 15h1v1h-1zm-8 11h1v1h-1z"/><path fill="#004f00" fill-rule="evenodd" stroke="#004f00" stroke-width=".1" d="M49 15h2v1h-2zm0 19h2v1h-2z"/><path fill="#003100" fill-rule="evenodd" stroke="#003100" stroke-width=".1" d="M51 15h1v1h-1z"/><path fill="#000600" fill-rule="evenodd" stroke="#000600" stroke-width=".1" d="M52 15h1v1h-1zm7 7h1v1h-1zm0 5h1v1h-1zm-12 7h1v1h-1zm5 0h1v1h-1z"/><path fill="#002b00" fill-rule="evenodd" stroke="#002b00" stroke-width=".1" d="M45 16h1v1h-1z"/><path fill="#00ac00" fill-rule="evenodd" stroke="#00ac00" stroke-width=".1" d="M46 16h1v1h-1zm7 0h1v1h-1zm-12 5h1v1h-1zm0 7h1v1h-1z"/><path fill="#00f500" fill-rule="evenodd" stroke="#00f500" stroke-width=".1" d="M47 16h1v1h-1zm5 0h1v1h-1zm-11 6h1v1h-1zm0 5h1v1h-1z"/><path fill="#0f0" fill-rule="evenodd" stroke="#0f0" stroke-width=".1" d="M48 16h4v1h2v1h2v1h1v2h1v2h1v4h-1v2h-1v2h-1v1h-2v1h-2v1h-4v-1h-2v-1h-2v-1h-1v-2h-1v-2h-1v-4h1v-2h1v-2h1v-1h2v-1h2z"/><path fill="#002900" fill-rule="evenodd" stroke="#002900" stroke-width=".1" d="M54 16h1v1h-1z"/><path fill="#000200" fill-rule="evenodd" stroke="#000200" stroke-width=".1" d="M43 17h1v1h-1zm0 1v1h-1v-1zm13-1h1v1h-1zm1 1h1v1h-1zm-15 13h1v1h-1zm1 1h1v1h-1zm14-1h1v1h-1zm0 1v1h-1v-1zm-12 2h1v1h-1zm9 0h1v1h-1z"/><path fill="#008e00" fill-rule="evenodd" stroke="#008e00" stroke-width=".1" d="M44 17h1v1h-1zm-2 2h1v1h-1z"/><path fill="#00fd00" fill-rule="evenodd" stroke="#00fd00" stroke-width=".1" d="M45 17h1v1h-1zm9 0h1v1h-1zm-12 3h1v1h-1zm15 0h1v1h-1zm-15 9h1v1h-1zm3 3h1v1h-1zm9 0h1v1h-1z"/><path fill="#008d00" fill-rule="evenodd" stroke="#008d00" stroke-width=".1" d="M55 17h1v1h-1zm-13 13h1v1h-1z"/><path fill="#00b300" fill-rule="evenodd" stroke="#00b300" stroke-width=".1" d="M43 18h1v1h-1z"/><path fill="#00b200" fill-rule="evenodd" stroke="#00b200" stroke-width=".1" d="M56 18h1v1h-1z"/><path fill="#008b00" fill-rule="evenodd" stroke="#008b00" stroke-width=".1" d="M57 19h1v1h-1zm-13 13h1v1h-1z"/><path fill="#002a00" fill-rule="evenodd" stroke="#002a00" stroke-width=".1" d="M41 20h1v1h-1zm0 9h1v1h-1z"/><path fill="#002800" fill-rule="evenodd" stroke="#002800" stroke-width=".1" d="M58 20h1v1h-1zm-13 13h1v1h-1z"/><path fill="#0a0" fill-rule="evenodd" stroke="#0a0" stroke-width=".1" d="M58 21h1v1h-1zm0 7h1v1h-1zm-12 5h1v1h-1zm7 0h1v1h-1z"/><path fill="#00f400" fill-rule="evenodd" stroke="#00f400" stroke-width=".1" d="M58 22h1v1h-1zm0 5h1v1h-1zm-11 6h1v1h-1zm5 0h1v1h-1z"/><path fill="#030" fill-rule="evenodd" stroke="#030" stroke-width=".1" d="M40 23h1v1h-1z"/><path fill="#003000" fill-rule="evenodd" stroke="#003000" stroke-width=".1" d="M59 23h1v1h-1zm0 3h1v1h-1zm-11 8h1v1h-1zm3 0h1v1h-1z"/><path fill="#005100" fill-rule="evenodd" stroke="#005100" stroke-width=".1" d="M40 24h1v1h-1z"/><path fill="#005000" fill-rule="evenodd" stroke="#005000" stroke-width=".1" d="M59 24h1v1h-1zm-19 1h1v1h-1z"/><path fill="#004e00" fill-rule="evenodd" stroke="#004e00" stroke-width=".1" d="M59 25h1v1h-1z"/><path fill="#00fc00" fill-rule="evenodd" stroke="#00fc00" stroke-width=".1" d="M57 29h1v1h-1z"/><path fill="#002700" fill-rule="evenodd" stroke="#002700" stroke-width=".1" d="M58 29h1v1h-1zm-4 4h1v1h-1z"/><path fill="#008a00" fill-rule="evenodd" stroke="#008a00" stroke-width=".1" d="M57 30h1v1h-1zm-2 2h1v1h-1z"/><path fill="#00b100" fill-rule="evenodd" stroke="#00b100" stroke-width=".1" d="M43 31h1v1h-1z"/><path fill="#00b000" fill-rule="evenodd" stroke="#00b000" stroke-width=".1" d="M56 31h1v1h-1z"/><path fill="#030000" fill-rule="evenodd" stroke="#030000" stroke-width=".1" d="M19 60h1v1h-1zm8 0h1v1h-1zm2 1h1v1h-1zm2 2h1v1h-1zm1 1h1v1h-1zm-18 1h1v1h-1zm19 1h1v1h-1zm0 7h1v1h-1zm-19 1h1v1h-1zm18 1h1v1h-1zm-1 2h1v1h-1zm-12 2h1v1h-1zm9 0h1v1h-1z"/><path fill="#040000" fill-rule="evenodd" stroke="#040000" stroke-width=".1" d="M20 60h1v1h-1zm8 0h1v1h-1zm-10 1h1v1h-1zm-3 3h1v1h-1zm18 1h1v1h-1zm-19 1h1v1h-1zm0 6h1v2h-1zm19 2h1v1h-1zm-18 1h1v1h-1zm3 3h1v1h-1zm11 0h1v1h-1zm-9 1h1v1h-1zm7 0h1v1h-1z"/><path fill="#060000" fill-rule="evenodd" stroke="#060000" stroke-width=".1" d="M21 60h1v1h-1zm5 19h1v1h-1z"/><path fill="#310000" fill-rule="evenodd" stroke="#310000" stroke-width=".1" d="M22 60h1v1h-1zm3 19h1v1h-1z"/><path fill="#4f0000" fill-rule="evenodd" stroke="#4f0000" stroke-width=".1" d="M23 60h1v1h-1zm1 19h1v1h-1z"/><path fill="#500000" fill-rule="evenodd" stroke="#500000" stroke-width=".1" d="M24 60h1v1h-1z"/><path fill="#320000" fill-rule="evenodd" stroke="#320000" stroke-width=".1" d="M25 60h1v1h-1z"/><path fill="#070000" fill-rule="evenodd" stroke="#070000" stroke-width=".1" d="M26 60h1v1h-1zm7 7h1v1h-1zm0 5h1v1h-1z"/><path fill="#000004" fill-rule="evenodd" stroke="#000004" stroke-width=".1" d="M71 60h1v1h-1zm8 0h1v1h-1zm2 1h1v1h-1zm3 3h1v1h-1zm-18 1h1v1h-1zm19 2h1v1h-1zm0 5h1v1h-1zm-1 3h1v1h-1zm-14 3h1v1h-1zm11 0h1v1h-1zm-9 1h1v1h-1zm7 0h1v1h-1z"/><path fill="#000003" fill-rule="evenodd" stroke="#000003" stroke-width=".1" d="M72 60h1v1h-1zm8 0h1v1h-1zm-10 1h1v1h-1zm-2 2h1v1h-1zm0 1v1h-1v-1zm17 1h1v1h-1zm-19 1h1v1h-1zm0 7h1v2h-1zm1 2h1v1h-1zm18-1h1v1h-1zm-17 2h1v1h-1zm3 3h1v1h-1zm9 0h1v1h-1z"/><path fill="#000007" fill-rule="evenodd" stroke="#000007" stroke-width=".1" d="M73 60h1v1h-1z"/><path fill="#000032" fill-rule="evenodd" stroke="#000032" stroke-width=".1" d="M74 60h1v1h-1z"/><path fill="#000050" fill-rule="evenodd" stroke="#000050" stroke-width=".1" d="M75 60h1v1h-1z"/><path fill="#00004f" fill-rule="evenodd" stroke="#00004f" stroke-width=".1" d="M76 60h1v1h-1zm-1 19h1v1h-1z"/><path fill="#000031" fill-rule="evenodd" stroke="#000031" stroke-width=".1" d="M77 60h1v1h-1zm-3 19h1v1h-1z"/><path fill="#000006" fill-rule="evenodd" stroke="#000006" stroke-width=".1" d="M78 60h1v1h-1zm-5 19h1v1h-1z"/><path fill="#280000" fill-rule="evenodd" stroke="#280000" stroke-width=".1" d="M19 61h1v1h-1z"/><path fill="#a00" fill-rule="evenodd" stroke="#a00" stroke-width=".1" d="M20 61h1v1h-1z"/><path fill="#f50000" fill-rule="evenodd" stroke="#f50000" stroke-width=".1" d="M21 61h1v1h-1zm5 17h1v1h-1z"/><path fill="red" fill-rule="evenodd" stroke="red" stroke-width=".1" d="M22 61h4v1h2v1h2v1h1v2h1v2h1v4h-1v2h-1v2h-1v1h-2v1h-2v1h-4v-1h-2v-1h-2v-1h-1v-2h-1v-2h-1v-4h1v-2h1v-2h1v-1h2v-1h2z"/><path fill="#f60000" fill-rule="evenodd" stroke="#f60000" stroke-width=".1" d="M26 61h1v1h-1zm6 11h1v1h-1z"/><path fill="#ae0000" fill-rule="evenodd" stroke="#ae0000" stroke-width=".1" d="M27 61h1v1h-1z"/><path fill="#2c0000" fill-rule="evenodd" stroke="#2c0000" stroke-width=".1" d="M28 61h1v1h-1zm-14 10h1v1h-1zm18 3h1v1h-1z"/><path fill="#00002c" fill-rule="evenodd" stroke="#00002c" stroke-width=".1" d="M71 61h1v1h-1z"/><path fill="#0000ae" fill-rule="evenodd" stroke="#0000ae" stroke-width=".1" d="M72 61h1v1h-1zm10 2h1v1h-1z"/><path fill="#0000f6" fill-rule="evenodd" stroke="#0000f6" stroke-width=".1" d="M73 61h1v1h-1z"/><path fill="#00f" fill-rule="evenodd" stroke="#00f" stroke-width=".1" d="M74 61h4v1h2v1h2v1h1v2h1v2h1v4h-1v2h-1v2h-1v1h-2v1h-2v1h-4v-1h-2v-1h-2v-1h-1v-2h-1v-2h-1v-4h1v-2h1v-2h1v-1h2v-1h2z"/><path fill="#0000f4" fill-rule="evenodd" stroke="#0000f4" stroke-width=".1" d="M78 61h1v1h-1z"/><path fill="#00a" fill-rule="evenodd" stroke="#00a" stroke-width=".1" d="M79 61h1v1h-1z"/><path fill="#000027" fill-rule="evenodd" stroke="#000027" stroke-width=".1" d="M80 61h1v1h-1z"/><path fill="#020000" fill-rule="evenodd" stroke="#020000" stroke-width=".1" d="M17 62h1v1h-1zm0 1v1h-1v-1zm13-1h1v1h-1zm-14 14h1v1h-1zm1 1h1v1h-1zm14-1h1v1h-1zm0 1v1h-1v-1z"/><path fill="#8a0000" fill-rule="evenodd" stroke="#8a0000" stroke-width=".1" d="M18 62h1v1h-1z"/><path fill="#fd0000" fill-rule="evenodd" stroke="#fd0000" stroke-width=".1" d="M19 62h1v1h-1zm9 0h1v1h-1zm3 3h1v1h-1zm0 9h1v1h-1zm-3 3h1v1h-1z"/><path fill="#910000" fill-rule="evenodd" stroke="#910000" stroke-width=".1" d="M29 62h1v1h-1z"/><path fill="#010000" fill-rule="evenodd" stroke="#010000" stroke-width=".1" d="M31 62h1v1h-1z"/><path fill="#000001" fill-rule="evenodd" stroke="#000001" stroke-width=".1" d="M68 62h1v1h-1zm0 15h1v1h-1z"/><path fill="#000002" fill-rule="evenodd" stroke="#000002" stroke-width=".1" d="M69 62h1v1h-1zm13 0h1v1h-1zm1 1h1v1h-1zm0 13h1v1h-1zm0 1v1h-1v-1zm-14 0h1v1h-1z"/><path fill="#000092" fill-rule="evenodd" stroke="#000092" stroke-width=".1" d="M70 62h1v1h-1zm-2 13h1v1h-1z"/><path fill="#0000fe" fill-rule="evenodd" stroke="#0000fe" stroke-width=".1" d="M71 62h1v1h-1zm-3 3h1v1h-1zm0 9h1v1h-1z"/><path fill="#0000fd" fill-rule="evenodd" stroke="#0000fd" stroke-width=".1" d="M80 62h1v1h-1zm-9 15h1v1h-1z"/><path fill="#008" fill-rule="evenodd" stroke="#008" stroke-width=".1" d="M81 62h1v1h-1z"/><path fill="#af0000" fill-rule="evenodd" stroke="#af0000" stroke-width=".1" d="M17 63h1v1h-1zm15 3h1v1h-1zm0 7h1v1h-1z"/><path fill="#b60000" fill-rule="evenodd" stroke="#b60000" stroke-width=".1" d="M30 63h1v1h-1z"/><path fill="#0000b7" fill-rule="evenodd" stroke="#0000b7" stroke-width=".1" d="M69 63h1v1h-1z"/><path fill="#800" fill-rule="evenodd" stroke="#800" stroke-width=".1" d="M16 64h1v1h-1z"/><path fill="#900000" fill-rule="evenodd" stroke="#900000" stroke-width=".1" d="M31 64h1v1h-1z"/><path fill="#000093" fill-rule="evenodd" stroke="#000093" stroke-width=".1" d="M68 64h1v1h-1z"/><path fill="#000085" fill-rule="evenodd" stroke="#000085" stroke-width=".1" d="M83 64h1v1h-1z"/><path fill="#260000" fill-rule="evenodd" stroke="#260000" stroke-width=".1" d="M15 65h1v1h-1zm0 9h1v1h-1zm4 4h1v1h-1z"/><path fill="#fc0000" fill-rule="evenodd" stroke="#fc0000" stroke-width=".1" d="M16 65h1v1h-1zm0 9h1v1h-1zm3 3h1v1h-1z"/><path fill="#2d0000" fill-rule="evenodd" stroke="#2d0000" stroke-width=".1" d="M32 65h1v1h-1zm-18 3h1v1h-1z"/><path fill="#00002f" fill-rule="evenodd" stroke="#00002f" stroke-width=".1" d="M67 65h1v1h-1zm10 14h1v1h-1z"/><path fill="#0000fc" fill-rule="evenodd" stroke="#0000fc" stroke-width=".1" d="M83 65h1v1h-1zm-3 12h1v1h-1z"/><path fill="#000024" fill-rule="evenodd" stroke="#000024" stroke-width=".1" d="M84 65h1v1h-1z"/><path fill="#a70000" fill-rule="evenodd" stroke="#a70000" stroke-width=".1" d="M15 66h1v1h-1zm0 7h1v1h-1z"/><path fill="#0000b1" fill-rule="evenodd" stroke="#0000b1" stroke-width=".1" d="M67 66h1v1h-1zm0 7h1v1h-1z"/><path fill="#0000a5" fill-rule="evenodd" stroke="#0000a5" stroke-width=".1" d="M84 66h1v1h-1zm0 7h1v1h-1z"/><path fill="#000005" fill-rule="evenodd" stroke="#000005" stroke-width=".1" d="M85 66h1v1h-1zm0 7h1v1h-1zm-7 6h1v1h-1z"/><path fill="#050000" fill-rule="evenodd" stroke="#050000" stroke-width=".1" d="M14 67h1v1h-1zm7 12h1v1h-1z"/><path fill="#f30000" fill-rule="evenodd" stroke="#f30000" stroke-width=".1" d="M15 67h1v1h-1z"/><path fill="#f70000" fill-rule="evenodd" stroke="#f70000" stroke-width=".1" d="M32 67h1v1h-1z"/><path fill="#000008" fill-rule="evenodd" stroke="#000008" stroke-width=".1" d="M66 67h1v1h-1zm0 5h1v1h-1z"/><path fill="#0000f7" fill-rule="evenodd" stroke="#0000f7" stroke-width=".1" d="M67 67h1v1h-1zm0 5h1v1h-1z"/><path fill="#0000f1" fill-rule="evenodd" stroke="#0000f1" stroke-width=".1" d="M84 67h1v1h-1zm0 5h1v1h-1z"/><path fill="#360000" fill-rule="evenodd" stroke="#360000" stroke-width=".1" d="M33 68h1v1h-1zm0 3h1v1h-1z"/><path fill="#000037" fill-rule="evenodd" stroke="#000037" stroke-width=".1" d="M66 68h1v1h-1zm0 3h1v1h-1z"/><path fill="#00002b" fill-rule="evenodd" stroke="#00002b" stroke-width=".1" d="M85 68h1v1h-1zm0 3h1v1h-1zm-14 7h1v1h-1z"/><path fill="#4b0000" fill-rule="evenodd" stroke="#4b0000" stroke-width=".1" d="M14 69h1v1h-1z"/><path fill="#560000" fill-rule="evenodd" stroke="#560000" stroke-width=".1" d="M33 69h1v1h-1z"/><path fill="#000057" fill-rule="evenodd" stroke="#000057" stroke-width=".1" d="M66 69h1v1h-1z"/><path fill="#000049" fill-rule="evenodd" stroke="#000049" stroke-width=".1" d="M85 69h1v1h-1z"/><path fill="#4a0000" fill-rule="evenodd" stroke="#4a0000" stroke-width=".1" d="M14 70h1v1h-1z"/><path fill="#530000" fill-rule="evenodd" stroke="#530000" stroke-width=".1" d="M33 70h1v1h-1z"/><path fill="#000056" fill-rule="evenodd" stroke="#000056" stroke-width=".1" d="M66 70h1v1h-1z"/><path fill="#000047" fill-rule="evenodd" stroke="#000047" stroke-width=".1" d="M85 70h1v1h-1z"/><path fill="#f20000" fill-rule="evenodd" stroke="#f20000" stroke-width=".1" d="M15 72h1v1h-1z"/><path fill="#00002e" fill-rule="evenodd" stroke="#00002e" stroke-width=".1" d="M67 74h1v1h-1z"/><path fill="#0000fb" fill-rule="evenodd" stroke="#0000fb" stroke-width=".1" d="M83 74h1v1h-1z"/><path fill="#000023" fill-rule="evenodd" stroke="#000023" stroke-width=".1" d="M84 74h1v1h-1z"/><path fill="#870000" fill-rule="evenodd" stroke="#870000" stroke-width=".1" d="M16 75h1v1h-1z"/><path fill="#8f0000" fill-rule="evenodd" stroke="#8f0000" stroke-width=".1" d="M31 75h1v1h-1z"/><path fill="#000084" fill-rule="evenodd" stroke="#000084" stroke-width=".1" d="M83 75h1v1h-1z"/><path fill="#ad0000" fill-rule="evenodd" stroke="#ad0000" stroke-width=".1" d="M17 76h1v1h-1z"/><path fill="#b40000" fill-rule="evenodd" stroke="#b40000" stroke-width=".1" d="M30 76h1v1h-1z"/><path fill="#0000b5" fill-rule="evenodd" stroke="#0000b5" stroke-width=".1" d="M69 76h1v1h-1z"/><path fill="#0000ac" fill-rule="evenodd" stroke="#0000ac" stroke-width=".1" d="M82 76h1v1h-1zm-10 2h1v1h-1z"/><path fill="#860000" fill-rule="evenodd" stroke="#860000" stroke-width=".1" d="M18 77h1v1h-1z"/><path fill="#8e0000" fill-rule="evenodd" stroke="#8e0000" stroke-width=".1" d="M29 77h1v1h-1z"/><path fill="#00008f" fill-rule="evenodd" stroke="#00008f" stroke-width=".1" d="M70 77h1v1h-1z"/><path fill="#000086" fill-rule="evenodd" stroke="#000086" stroke-width=".1" d="M81 77h1v1h-1z"/><path fill="#a80000" fill-rule="evenodd" stroke="#a80000" stroke-width=".1" d="M20 78h1v1h-1z"/><path fill="#f40000" fill-rule="evenodd" stroke="#f40000" stroke-width=".1" d="M21 78h1v1h-1z"/><path fill="#ac0000" fill-rule="evenodd" stroke="#ac0000" stroke-width=".1" d="M27 78h1v1h-1z"/><path fill="#2b0000" fill-rule="evenodd" stroke="#2b0000" stroke-width=".1" d="M28 78h1v1h-1z"/><path fill="#0000f5" fill-rule="evenodd" stroke="#0000f5" stroke-width=".1" d="M73 78h1v1h-1z"/><path fill="#0000f3" fill-rule="evenodd" stroke="#0000f3" stroke-width=".1" d="M78 78h1v1h-1z"/><path fill="#0000a8" fill-rule="evenodd" stroke="#0000a8" stroke-width=".1" d="M79 78h1v1h-1z"/><path fill="#000025" fill-rule="evenodd" stroke="#000025" stroke-width=".1" d="M80 78h1v1h-1z"/><path fill="#300000" fill-rule="evenodd" stroke="#300000" stroke-width=".1" d="M22 79h1v1h-1z"/><path fill="#4e0000" fill-rule="evenodd" stroke="#4e0000" stroke-width=".1" d="M23 79h1v1h-1z"/><path fill="#00004e" fill-rule="evenodd" stroke="#00004e" stroke-width=".1" d="M76 79h1v1h-1z"/></svg>