<svg xmlns="http://www.w3.org/2000/svg" viewBox="0 0 100 100" width="1em" height="1em"><path fill="#272727" d="M3 38h1v1h-1zM7 38h5v1h-5zM46 38h1v1h-1zM60 38h2v1h-2zM72 38h3v1h-3zM77 38h2v1h-2zM87 38h2v1h-2zM91 38h1v1h-1zM93 38h1v1h-1zM2 39h13v1h-13zM45 39h3v1h-3zM60 39h3v1h-3zM71 39h8v1h-8zM85 39h12v1h-12zM3 40h13v1h-13zM44 40h4v1h-4zM59 40h4v1h-4zM69 40h10v1h-10zM83 40h15v1h-15zM3 41h7v1h-7zM12 41h4v1h-4zM44 41h4v1h-4zM59 41h4v1h-4zM69 41h5v1h-5zM75 41h4v1h-4zM83 41h7v1h-7zM92 41h1v1h-1zM94 41h5v1h-5zM14 42h3v1h-3zM44 42h4v1h-4zM59 42h4v1h-4zM69 42h4v1h-4zM82 42h4v1h-4zM95 42h4v1h-4zM14 43h3v1h-3zM44 43h4v1h-4zM59 43h4v1h-4zM69 43h4v1h-4zM82 43h3v1h-3zM96 43h3v1h-3zM14 44h3v1h-3zM44 44h4v1h-4zM59 44h4v1h-4zM69 44h4v1h-4zM82 44h4v1h-4zM96 44h4v1h-4zM15 45h2v1h-2zM44 45h4v1h-4zM59 45h4v1h-4zM69 45h4v1h-4zM82 45h3v1h-3zM96 45h4v1h-4zM14 46h3v1h-3zM44 46h4v1h-4zM59 46h4v1h-4zM69 46h4v1h-4zM82 46h4v1h-4zM96 46h4v1h-4zM14 47h3v1h-3zM44 47h4v1h-4zM59 47h4v1h-4zM69 47h4v1h-4zM82 47h3v1h-3zM97 47h3v1h-3zM4 48h2v1h-2zM14 48h3v1h-3zM44 48h4v1h-4zM59 48h4v1h-4zM69 48h4v1h-4zM82 48h3v1h-3zM90 48h10v1h-10zM2 49h15v1h-15zM44 49h4v1h-4zM59 49h4v1h-4zM69 49h4v1h-4zM81 49h4v1h-4zM89 49h11v1h-11zM1 50h16v1h-16zM44 50h4v1h-4zM59 50h4v1h-4zM69 50h4v1h-4zM81 50h4v1h-4zM89 50h10v1h-10zM1 51h4v1h-4zM7 51h10v1h-10zM44 51h4v1h-4zM59 51h4v1h-4zM69 51h4v1h-4zM82 51h3v1h-3zM90 51h9v1h-9zM0 52h5v1h-5zM14 52h3v1h-3zM45 52h3v1h-3zM59 52h4v1h-4zM69 52h4v1h-4zM82 52h3v1h-3zM1 53h3v1h-3zM14 53h3v1h-3zM45 53h3v1h-3zM59 53h4v1h-4zM69 53h4v1h-4zM82 53h3v1h-3zM1 54h2v1h-2zM14 54h3v1h-3zM45 54h4v1h-4zM59 54h4v1h-4zM69 54h4v1h-4zM82 54h3v1h-3zM1 55h3v1h-3zM14 55h3v1h-3zM45 55h4v1h-4zM59 55h4v1h-4zM69 55h4v1h-4zM82 55h4v1h-4zM0 56h4v1h-4zM14 56h3v1h-3zM45 56h3v1h-3zM59 56h4v1h-4zM69 56h4v1h-4zM83 56h3v1h-3zM0 57h4v1h-4zM15 57h2v1h-2zM45 57h4v1h-4zM59 57h4v1h-4zM69 57h4v1h-4zM82 57h5v1h-5zM1 58h5v1h-5zM7 58h1v1h-1zM11 58h1v1h-1zM13 58h4v1h-4zM46 58h8v1h-8zM59 58h4v1h-4zM69 58h4v1h-4zM84 58h5v1h-5zM97 58h1v1h-1zM1 59h16v1h-16zM46 59h17v1h-17zM69 59h4v1h-4zM84 59h14v1h-14zM3 60h15v1h-15zM48 60h15v1h-15zM69 60h3v1h-3zM86 60h12v1h-12zM7 61h1v1h-1zM11 61h2v1h-2zM51 61h1v1h-1zM54 61h1v1h-1zM58 61h1v1h-1zM70 61h2v1h-2zM87 61h3v1h-3zM91 61h2v1h-2zM94 61h1v1h-1zM96 61h1v1h-1z" /><path fill="#262626" d="M4 38h3v1h-3zM12 38h1v1h-1zM45 38h1v1h-1zM47 38h1v1h-1zM62 38h1v1h-1zM75 38h2v1h-2zM89 38h2v1h-2zM92 38h1v1h-1zM94 38h1v1h-1zM59 39h1v1h-1zM70 39h1v1h-1zM79 39h1v1h-1zM84 39h1v1h-1zM2 40h1v1h-1zM79 40h1v1h-1zM10 41h2v1h-2zM16 41h1v1h-1zM74 41h1v1h-1zM90 41h2v1h-2zM93 41h1v1h-1zM13 42h1v1h-1zM86 42h1v1h-1zM17 43h1v1h-1zM85 43h1v1h-1zM95 43h1v1h-1zM17 44h1v1h-1zM14 45h1v1h-1zM17 45h1v1h-1zM85 45h1v1h-1zM17 46h1v1h-1zM17 47h1v1h-1zM96 47h1v1h-1zM6 48h8v1h-8zM17 48h1v1h-1zM89 48h1v1h-1zM17 49h1v1h-1zM17 50h1v1h-1zM99 50h1v1h-1zM5 51h2v1h-2zM17 51h1v1h-1zM89 51h1v1h-1zM17 52h1v1h-1zM0 53h1v1h-1zM17 53h1v1h-1zM85 53h1v1h-1zM0 54h1v1h-1zM3 54h1v1h-1zM17 54h1v1h-1zM85 54h1v1h-1zM0 55h1v1h-1zM17 55h1v1h-1zM17 56h1v1h-1zM48 56h1v1h-1zM82 56h1v1h-1zM4 57h1v1h-1zM14 57h1v1h-1zM17 57h1v1h-1zM49 57h1v1h-1zM6 58h1v1h-1zM8 58h3v1h-3zM12 58h1v1h-1zM17 58h1v1h-1zM54 58h5v1h-5zM83 58h1v1h-1zM89 58h8v1h-8zM17 59h1v1h-1zM2 60h1v1h-1zM47 60h1v1h-1zM72 60h1v1h-1zM85 60h1v1h-1zM5 61h2v1h-2zM8 61h3v1h-3zM13 61h2v1h-2zM50 61h1v1h-1zM52 61h2v1h-2zM55 61h3v1h-3zM59 61h2v1h-2zM69 61h1v1h-1zM90 61h1v1h-1zM93 61h1v1h-1zM95 61h1v1h-1z" /><path fill="#009cd9" d="M22 38h1v1h-1zM22 39h4v1h-4zM23 40h3v1h-3zM23 41h4v1h-4zM24 42h4v1h-4zM25 43h3v1h-3zM25 44h4v1h-4zM27 45h3v1h-3zM27 46h4v1h-4zM28 47h3v1h-3zM29 48h3v1h-3zM29 49h4v1h-4zM29 50h3v1h-3zM27 51h4v1h-4zM27 52h4v1h-4zM26 53h4v1h-4zM26 54h4v1h-4zM24 55h4v1h-4zM23 56h4v1h-4zM24 57h3v1h-3zM23 58h3v1h-3zM22 59h3v1h-3zM21 60h3v1h-3z" /><path fill="#009bd8" d="M23 38h2v1h-2zM29 44h1v1h-1zM30 45h1v1h-1zM27 47h1v1h-1zM28 49h1v1h-1zM28 50h1v1h-1zM31 51h1v1h-1zM25 54h1v1h-1zM27 56h1v1h-1zM23 57h1v1h-1zM21 59h1v1h-1zM25 59h1v1h-1zM24 60h1v1h-1z" /><path fill="#73ba10" d="M37 38h2v1h-2zM38 41h1v1h-1zM37 43h1v1h-1zM36 44h1v1h-1z" /><path fill="#74bb10" d="M39 38h1v1h-1z" /><path fill="#74bb11" d="M36 39h4v1h-4zM36 40h3v1h-3zM34 41h4v1h-4zM34 42h3v1h-3zM35 43h2v1h-2zM35 44h1v1h-1z" /><path fill="#009cd8" d="M22 40h1v1h-1zM28 42h1v1h-1zM28 43h1v1h-1zM31 47h1v1h-1zM28 48h1v1h-1zM26 52h1v1h-1zM28 55h1v1h-1zM22 58h1v1h-1zM26 58h1v1h-1zM22 61h2v1h-2z" /><path fill="#009bd9" d="M26 40h1v1h-1zM27 41h1v1h-1zM26 45h1v1h-1zM32 48h1v1h-1z" /><path fill="#73ba11" d="M35 40h1v1h-1zM39 40h1v1h-1z" /><path fill="#73bb11" d="M37 42h1v1h-1zM34 43h1v1h-1zM35 45h1v1h-1z" /><path fill="#ea1f84" d="M35 53h1v1h-1zM35 58h1v1h-1z" /><path fill="#ea1f83" d="M34 54h1v1h-1zM37 55h1v1h-1zM34 56h1v1h-1zM38 56h1v1h-1z" /><path fill="#eb2084" d="M35 54h1v1h-1zM34 55h3v1h-3zM35 56h3v1h-3zM35 57h3v1h-3zM36 58h3v1h-3zM37 59h4v1h-4zM37 60h4v1h-4z" /><path fill="#eb1f84" d="M36 54h1v1h-1zM39 58h1v1h-1z" /><path fill="#ea2084" d="M38 57h1v1h-1z" /><path fill="#ea2083" d="M36 59h1v1h-1z" /><path fill="#eb1f83" d="M38 61h2v1h-2z" /></svg>