<svg xmlns="http://www.w3.org/2000/svg" viewBox="0 0 100 100" width="1em" height="1em"><path fill="#416edc" d="M77 0h2v1h-2zM79 1h1v1h-1zM69 5h1v1h-1zM62 10h1v1h-1zM81 10h1v1h-1zM61 11h1v1h-1zM7 27h1v1h-1zM65 30h1v1h-1zM63 31h1v1h-1zM44 34h1v1h-1zM14 41h1v1h-1zM18 44h1v1h-1zM73 44h1v1h-1zM69 46h1v1h-1zM25 47h3v1h-3zM97 51h1v1h-1zM95 56h1v1h-1zM26 64h1v1h-1zM87 64h1v1h-1zM86 65h1v1h-1zM0 68h1v1h-1zM40 68h1v1h-1zM75 68h2v1h-2zM1 75h1v1h-1zM51 78h1v1h-1zM3 79h1v1h-1zM54 82h1v1h-1zM55 84h1v1h-1zM24 98h1v1h-1zM56 99h1v1h-1z" /><path fill="#406fdc" d="M76 1h1v1h-1zM64 8h1v1h-1zM32 24h1v1h-1zM39 28h1v1h-1zM68 28h1v1h-1zM58 30h1v1h-1zM42 31h1v1h-1zM59 57h1v1h-1zM93 59h1v1h-1zM25 64h1v1h-1zM32 65h1v1h-1zM57 65h1v1h-1zM84 66h1v1h-1zM0 67h1v1h-1zM38 67h1v1h-1zM58 68h17v1h-17zM49 75h1v1h-1zM22 97h1v1h-1zM31 99h1v1h-1z" /><path fill="#416fdc" d="M77 1h2v1h-2zM75 2h5v1h-5zM72 3h8v1h-8zM71 4h9v1h-9zM68 5h1v1h-1zM70 5h11v1h-11zM68 6h13v1h-13zM66 7h15v1h-15zM65 8h16v1h-16zM63 9h18v1h-18zM63 10h18v1h-18zM62 11h19v1h-19zM61 12h20v1h-20zM60 13h21v1h-21zM60 14h21v1h-21zM59 15h22v1h-22zM59 16h21v1h-21zM58 17h22v1h-22zM58 18h21v1h-21zM58 19h21v1h-21zM58 20h21v1h-21zM57 21h20v1h-20zM57 22h20v1h-20zM8 23h20v1h-20zM30 23h1v1h-1zM57 23h18v1h-18zM7 24h25v1h-25zM33 24h1v1h-1zM57 24h17v1h-17zM7 25h27v1h-27zM35 25h1v1h-1zM58 25h15v1h-15zM7 26h29v1h-29zM58 26h13v1h-13zM8 27h30v1h-30zM57 27h14v1h-14zM8 28h31v1h-31zM58 28h10v1h-10zM7 29h33v1h-33zM59 29h8v1h-8zM8 30h33v1h-33zM59 30h5v1h-5zM9 31h33v1h-33zM59 31h4v1h-4zM9 32h35v1h-35zM59 32h2v1h-2zM9 33h35v1h-35zM10 34h34v1h-34zM10 35h35v1h-35zM11 36h34v1h-34zM12 37h34v1h-34zM12 38h34v1h-34zM13 39h34v1h-34zM13 40h34v1h-34zM15 41h32v1h-32zM15 42h33v1h-33zM18 43h30v1h-30zM77 43h1v1h-1zM79 43h19v1h-19zM19 44h29v1h-29zM74 44h25v1h-25zM21 45h27v1h-27zM70 45h1v1h-1zM72 45h27v1h-27zM23 46h25v1h-25zM70 46h29v1h-29zM28 47h19v1h-19zM68 47h30v1h-30zM67 48h31v1h-31zM66 49h33v1h-33zM65 50h33v1h-33zM64 51h33v1h-33zM63 52h34v1h-34zM62 53h35v1h-35zM61 54h35v1h-35zM61 55h35v1h-35zM60 56h35v1h-35zM60 57h34v1h-34zM59 58h35v1h-35zM59 59h34v1h-34zM58 60h34v1h-34zM58 61h34v1h-34zM58 62h32v1h-32zM58 63h30v1h-30zM2 64h23v1h-23zM27 64h1v1h-1zM58 64h29v1h-29zM1 65h31v1h-31zM58 65h27v1h-27zM1 66h36v1h-36zM58 66h25v1h-25zM1 67h37v1h-37zM57 67h23v1h-23zM81 67h1v1h-1zM1 68h39v1h-39zM1 69h41v1h-41zM0 70h43v1h-43zM1 71h43v1h-43zM1 72h45v1h-45zM2 73h45v1h-45zM2 74h47v1h-47zM2 75h47v1h-47zM2 76h48v1h-48zM3 77h48v1h-48zM3 78h48v1h-48zM4 79h48v1h-48zM4 80h49v1h-49zM5 81h48v1h-48zM4 82h50v1h-50zM5 83h49v1h-49zM6 84h49v1h-49zM7 85h49v1h-49zM7 86h49v1h-49zM9 87h47v1h-47zM10 88h46v1h-46zM11 89h46v1h-46zM12 90h45v1h-45zM13 91h44v1h-44zM14 92h43v1h-43zM15 93h43v1h-43zM16 94h42v1h-42zM19 95h39v1h-39zM20 96h38v1h-38zM23 97h35v1h-35zM26 98h32v1h-32zM30 99h1v1h-1zM36 99h20v1h-20z" /><path fill="#406edc" d="M74 2h1v1h-1zM81 9h1v1h-1zM81 11h1v1h-1zM60 12h1v1h-1zM58 16h1v1h-1zM74 24h1v1h-1zM57 25h1v1h-1zM38 27h1v1h-1zM17 43h1v1h-1zM76 43h1v1h-1zM71 45h1v1h-1zM65 49h1v1h-1zM62 52h1v1h-1zM97 52h1v1h-1zM94 57h1v1h-1zM92 60h1v1h-1zM28 64h1v1h-1zM57 64h1v1h-1zM0 66h1v1h-1zM42 69h1v1h-1zM47 73h1v1h-1zM50 76h1v1h-1zM4 81h1v1h-1zM54 83h1v1h-1zM56 87h1v1h-1zM56 88h1v1h-1zM12 91h1v1h-1zM32 99h1v1h-1zM35 99h1v1h-1zM57 99h1v1h-1z" /><path fill="#416fdb" d="M80 3h1v1h-1zM70 4h1v1h-1zM81 6h1v1h-1zM57 20h1v1h-1zM7 23h1v1h-1zM75 23h1v1h-1zM34 25h1v1h-1zM41 30h1v1h-1zM61 32h1v1h-1zM9 34h1v1h-1zM46 38h1v1h-1zM78 43h1v1h-1zM47 47h1v1h-1zM98 47h1v1h-1zM64 50h1v1h-1zM88 63h1v1h-1zM1 64h1v1h-1zM85 65h1v1h-1zM0 69h1v1h-1zM44 71h1v1h-1zM46 72h1v1h-1zM2 77h1v1h-1zM53 81h1v1h-1zM11 90h1v1h-1zM57 91h1v1h-1zM18 95h1v1h-1zM19 96h1v1h-1zM25 98h1v1h-1zM33 99h2v1h-2z" /><path fill="#406edb" d="M80 4h1v1h-1zM67 6h1v1h-1zM80 16h1v1h-1zM57 19h1v1h-1zM28 23h1v1h-1zM72 26h1v1h-1zM7 28h1v1h-1zM40 29h1v1h-1zM47 41h1v1h-1zM22 46h1v1h-1zM61 53h1v1h-1zM96 54h1v1h-1zM58 59h1v1h-1zM57 62h1v1h-1zM29 64h1v1h-1zM33 65h1v1h-1zM57 66h1v1h-1zM43 70h1v1h-1zM1 73h1v1h-1zM3 80h1v1h-1zM6 85h1v1h-1zM9 88h1v1h-1zM10 89h1v1h-1zM29 99h1v1h-1z" /><path fill="#406fdb" d="M65 7h1v1h-1zM81 7h1v1h-1zM81 8h1v1h-1zM81 12h1v1h-1zM81 13h1v1h-1zM59 14h1v1h-1zM36 26h1v1h-1zM57 26h1v1h-1zM71 26h1v1h-1zM58 29h1v1h-1zM64 30h1v1h-1zM8 31h1v1h-1zM8 32h1v1h-1zM12 39h1v1h-1zM98 43h1v1h-1zM66 48h1v1h-1zM98 48h1v1h-1zM60 55h1v1h-1zM80 67h1v1h-1zM1 74h1v1h-1zM52 79h1v1h-1zM57 90h1v1h-1zM13 92h1v1h-1zM17 95h1v1h-1z" /><path fill="#416edb" d="M79 18h1v1h-1zM77 21h1v1h-1zM29 23h1v1h-1zM73 25h1v1h-1zM10 36h1v1h-1zM45 36h1v1h-1zM11 37h1v1h-1zM20 45h1v1h-1zM67 47h1v1h-1zM63 51h1v1h-1zM90 62h1v1h-1zM57 63h1v1h-1zM89 63h1v1h-1zM0 65h1v1h-1zM83 66h1v1h-1zM45 71h1v1h-1zM8 87h1v1h-1zM57 92h1v1h-1zM14 93h1v1h-1zM21 97h1v1h-1z" /></svg>