<svg xmlns="http://www.w3.org/2000/svg" viewBox="0 0 100 100"><path fill="#9478d8" fill-rule="evenodd" d="M48 0h1v1h-1z"/><path fill="#9778d9" fill-rule="evenodd" d="M49 0h1v1h-1z"/><path fill="#997ad8" fill-rule="evenodd" d="M50 0h1v1h-1z"/><path fill="#9d79d8" fill-rule="evenodd" d="M51 0h1v1h-1z"/><path fill="#a07ad8" fill-rule="evenodd" d="M52 0h1v1h-1zm8 5h1v1h-1z"/><path fill="#a37ad7" fill-rule="evenodd" d="M53 0h1v1h-1zm8 5h1v1h-1z"/><path fill="#a67ad7" fill-rule="evenodd" d="M54 0h1v1h-1zm5 3h1v1h-1zm3 2h1v1h-1z"/><path fill="#a97ad6" fill-rule="evenodd" d="M55 0h1v1h-1zm5 3h1v1h-1z"/><path fill="#ac7ad6" fill-rule="evenodd" d="M56 0h1v1h-1zm5 3h1v1h-1z"/><path fill="#ae7bd5" fill-rule="evenodd" d="M57 0h1v1h-1zm3 2h1v1h-1z"/><path fill="#b17bd5" fill-rule="evenodd" d="M58 0h1v1h-1zm3 2h1v1h-1z"/><path fill="#b47bd4" fill-rule="evenodd" d="M59 0h1v1h-1z"/><path fill="#b77bd4" fill-rule="evenodd" d="M60 0h1v1h-1z"/><path fill="#ba7bd4" fill-rule="evenodd" d="M61 0h1v1h-1z"/><path fill="#bd7cd3" fill-rule="evenodd" d="M62 0h1v1h-1z"/><path fill="#c07cd3" fill-rule="evenodd" d="M63 0h1v1h-1z"/><path fill="#c47cd3" fill-rule="evenodd" d="M64 0h1v1h-1z"/><path fill="#a65aad" fill-rule="evenodd" d="M65 0h1v1h-1z"/><path fill="#813585" fill-rule="evenodd" d="M66 0h1v1h-1z"/><path fill="#722676" fill-rule="evenodd" d="M67 0h1v1h-1z"/><path fill="#722575" fill-rule="evenodd" d="M68 0h1v1h-1z"/><path fill="#732576" fill-rule="evenodd" d="M69 0h1v1h-1z"/><path fill="#8879db" fill-rule="evenodd" d="M45 1h1v1h-1zm1 1h1v1h-1zm3 2h1v1h-1zm5 3h1v1h-1zm3 2h1v1h-1zm5 3h1v1h-1z"/><path fill="#8c78da" fill-rule="evenodd" d="M46 1h1v1h-1z"/><path fill="#8e79da" fill-rule="evenodd" d="M47 1h1v1h-1zm5 3h1v1h-1zm3 2h1v1h-1zm5 3h1v1h-1z"/><path fill="#9079da" fill-rule="evenodd" d="M48 1h1v1h-1zm3 2h1v1h-1zm2 1h1v1h-1zm3 2h1v1h-1zm5 3h1v1h-1z"/><path fill="#9379da" fill-rule="evenodd" d="M49 1h1v1h-1zm8 5h1v1h-1z"/><path fill="#9679d9" fill-rule="evenodd" d="M50 1h1v1h-1zm5 3h1v1h-1zm3 2h1v1h-1z"/><path fill="#9979d9" fill-rule="evenodd" d="M51 1h1v1h-1zm5 3h1v1h-1zm3 2h1v1h-1z"/><path fill="#9b7ad8" fill-rule="evenodd" d="M52 1h1v1h-1zm3 2h1v1h-1zm5 3h1v1h-1z"/><path fill="#9e7ad8" fill-rule="evenodd" d="M53 1h1v1h-1zm3 2h1v1h-1zm5 3h1v1h-1z"/><path fill="#a17ad7" fill-rule="evenodd" d="M54 1h1v1h-1zm3 2h1v1h-1zm5 3h1v1h-1z"/><path fill="#a47ad7" fill-rule="evenodd" d="M55 1h1v1h-1zm3 2h1v1h-1z"/><path fill="#a77ad6" fill-rule="evenodd" d="M56 1h1v1h-1z"/><path fill="#aa7ad6" fill-rule="evenodd" d="M57 1h1v1h-1zm5 3h1v1h-1z"/><path fill="#ad7ad6" fill-rule="evenodd" d="M58 1h1v1h-1z"/><path fill="#b07bd5" fill-rule="evenodd" d="M59 1h1v1h-1z"/><path fill="#b27bd5" fill-rule="evenodd" d="M60 1h1v1h-1z"/><path fill="#b57bd4" fill-rule="evenodd" d="M61 1h1v1h-1z"/><path fill="#b87bd4" fill-rule="evenodd" d="M62 1h1v1h-1z"/><path fill="#bb7bd3" fill-rule="evenodd" d="M63 1h1v1h-1z"/><path fill="#964ea3" fill-rule="evenodd" d="M64 1h1v1h-1z"/><path fill="#742576" fill-rule="evenodd" d="M65 1h1v1h-1z"/><path fill="#752577" fill-rule="evenodd" d="M66 1h1v1h-1z"/><path fill="#762577" fill-rule="evenodd" d="M67 1h1v1h-1z"/><path fill="#772577" fill-rule="evenodd" d="M68 1h1v1h-1z"/><path fill="#792578" fill-rule="evenodd" d="M69 1h1v1h-1zm-4 1h1v1h-1z"/><path fill="#7a2578" fill-rule="evenodd" d="M70 1h2v1h-2zm-4 1h1v1h-1z"/><path fill="#8278db" fill-rule="evenodd" d="M43 2h1v1h-1z"/><path fill="#8478dc" fill-rule="evenodd" d="M44 2h1v1h-1zm5 3h1v1h-1zm3 2h1v1h-1zm5 3h1v1h-1zm3 2h1v1h-1z"/><path fill="#8678db" fill-rule="evenodd" d="M45 2h1v1h-1zm5 3h1v1h-1zm3 2h1v1h-1zm5 3h1v1h-1zm3 2h1v1h-1z"/><path fill="#8a79db" fill-rule="evenodd" d="M47 2h1v1h-1zm3 2h1v1h-1zm5 3h1v1h-1zm3 2h1v1h-1z"/><path fill="#8d79db" fill-rule="evenodd" d="M48 2h1v1h-1z"/><path fill="#8f79da" fill-rule="evenodd" d="M49 2h1v1h-1zm5 3h1v1h-1zm3 2h1v1h-1zm2 1h1v1h-1zm3 2h1v1h-1z"/><path fill="#9179da" fill-rule="evenodd" d="M50 2h1v1h-1zm8 5h1v1h-1z"/><path fill="#9479d9" fill-rule="evenodd" d="M51 2h1v1h-1zm8 5h1v1h-1z"/><path fill="#9779d9" fill-rule="evenodd" d="M52 2h1v1h-1zm5 3h1v1h-1zm3 2h1v1h-1z"/><path fill="#9a79d9" fill-rule="evenodd" d="M53 2h1v1h-1zm8 5h1v1h-1z"/><path fill="#9d7ad8" fill-rule="evenodd" d="M54 2h1v1h-1zm5 3h1v1h-1zm3 2h1v1h-1z"/><path fill="#9f7ad8" fill-rule="evenodd" d="M55 2h1v1h-1zm3 2h1v1h-1z"/><path fill="#a27ad7" fill-rule="evenodd" d="M56 2h1v1h-1zm3 2h1v1h-1z"/><path fill="#a57ad7" fill-rule="evenodd" d="M57 2h1v1h-1zm3 2h1v1h-1z"/><path fill="#a87ad6" fill-rule="evenodd" d="M58 2h1v1h-1zm3 2h1v1h-1z"/><path fill="#ab7ad6" fill-rule="evenodd" d="M59 2h1v1h-1z"/><path fill="#b47bd5" fill-rule="evenodd" d="M62 2h1v1h-1z"/><path fill="#ad6ec6" fill-rule="evenodd" d="M63 2h1v1h-1z"/><path fill="#782678" fill-rule="evenodd" d="M64 2h1v1h-1z"/><path fill="#7b2679" fill-rule="evenodd" d="M67 2h1v1h-1z"/><path fill="#7c2679" fill-rule="evenodd" d="M68 2h1v1h-1zm-4 1h1v1h-1z"/><path fill="#7e267a" fill-rule="evenodd" d="M69 2h1v1h-1zm-4 1h1v1h-1z"/><path fill="#7f267a" fill-rule="evenodd" d="M70 2h1v1h-1zm-4 1h1v1h-1z"/><path fill="#80267b" fill-rule="evenodd" d="M71 2h2v1h-2zm-4 1h1v1h-1z"/><path fill="#7978dd" fill-rule="evenodd" d="M41 3h1v1h-1zm1 1h1v1h-1zm5 3h1v1h-1zm3 2h1v1h-1zm5 3h1v1h-1zm3 2h1v1h-1zm2 1h1v1h-1z"/><path fill="#7c78dd" fill-rule="evenodd" d="M42 3h1v1h-1zm3 2h1v1h-1zm5 3h1v1h-1zm3 2h1v1h-1zm5 3h1v1h-1zm3 2h1v1h-1z"/><path fill="#7e78dd" fill-rule="evenodd" d="M43 3h1v1h-1zm3 2h1v1h-1zm5 3h1v1h-1zm3 2h1v1h-1zm5 3h1v1h-1zm3 2h1v1h-1z"/><path fill="#8078dc" fill-rule="evenodd" d="M44 3h1v1h-1zm3 2h1v1h-1zm3 2h1v1h-1zm2 1h1v1h-1zm3 2h1v1h-1zm3 2h1v1h-1zm2 1h1v1h-1z"/><path fill="#8378dc" fill-rule="evenodd" d="M45 3h1v1h-1zm2 1h1v1h-1zm3 2h1v1h-1zm3 2h1v1h-1zm2 1h1v1h-1zm3 2h1v1h-1zm3 2h1v1h-1z"/><path fill="#8578dc" fill-rule="evenodd" d="M46 3h1v1h-1zm5 3h1v1h-1zm3 2h1v1h-1zm5 3h1v1h-1zm3 2h1v1h-1z"/><path fill="#8778db" fill-rule="evenodd" d="M47 3h1v1h-1zm5 3h1v1h-1zm3 2h1v1h-1zm5 3h1v1h-1z"/><path fill="#8979db" fill-rule="evenodd" d="M48 3h1v1h-1zm3 2h1v1h-1zm2 1h1v1h-1zm3 2h1v1h-1zm3 2h1v1h-1zm2 1h1v1h-1z"/><path fill="#8b79db" fill-rule="evenodd" d="M49 3h1v1h-1zm3 2h1v1h-1zm5 3h1v1h-1zm3 2h1v1h-1z"/><path fill="#8d79da" fill-rule="evenodd" d="M50 3h1v1h-1zm3 2h1v1h-1zm5 3h1v1h-1zm3 2h1v1h-1z"/><path fill="#9279da" fill-rule="evenodd" d="M52 3h1v1h-1zm3 2h1v1h-1zm5 3h1v1h-1z"/><path fill="#9579d9" fill-rule="evenodd" d="M53 3h1v1h-1zm3 2h1v1h-1zm5 3h1v1h-1z"/><path fill="#9879d9" fill-rule="evenodd" d="M54 3h1v1h-1zm8 5h1v1h-1z"/><path fill="#af7bd5" fill-rule="evenodd" d="M62 3h1v1h-1z"/><path fill="#9b57af" fill-rule="evenodd" d="M63 3h1v1h-1z"/><path fill="#81267b" fill-rule="evenodd" d="M68 3h1v1h-1zm-4 1h1v1h-1z"/><path fill="#83267c" fill-rule="evenodd" d="M69 3h1v1h-1zm-4 1h1v1h-1z"/><path fill="#84267c" fill-rule="evenodd" d="M70 3h1v1h-1zm-4 1h1v1h-1z"/><path fill="#85267d" fill-rule="evenodd" d="M71 3h1v1h-1zm-4 1h1v1h-1z"/><path fill="#86267d" fill-rule="evenodd" d="M72 3h1v1h-1zm-4 1h1v1h-1zm-4 1h1v1h-1z"/><path fill="#7477de" fill-rule="evenodd" d="M40 4h1v1h-1zm3 2h1v1h-1zm5 3h1v1h-1zm3 2h1v1h-1zm5 3h1v1h-1zm3 2h1v1h-1z"/><path fill="#7778de" fill-rule="evenodd" d="M41 4h1v1h-1zm2 1h1v1h-1zm3 2h1v1h-1zm3 2h1v1h-1zm2 1h1v1h-1zm3 2h1v1h-1zm5 3h1v1h-1zm3 2h1v1h-1z"/><path fill="#7b78dd" fill-rule="evenodd" d="M43 4h1v1h-1zm5 3h1v1h-1zm3 2h1v1h-1zm5 3h1v1h-1zm3 2h1v1h-1z"/><path fill="#7d78dd" fill-rule="evenodd" d="M44 4h1v1h-1zm3 2h1v1h-1zm2 1h1v1h-1zm3 2h1v1h-1zm3 2h1v1h-1zm2 1h1v1h-1zm3 2h1v1h-1z"/><path fill="#7f78dc" fill-rule="evenodd" d="M45 4h1v1h-1zm8 5h1v1h-1zm8 5h1v1h-1z"/><path fill="#8178dc" fill-rule="evenodd" d="M46 4h1v1h-1zm3 2h1v1h-1zm5 3h1v1h-1zm3 2h1v1h-1zm5 3h1v1h-1z"/><path fill="#8678dc" fill-rule="evenodd" d="M48 4h1v1h-1zm8 5h1v1h-1z"/><path fill="#8c79db" fill-rule="evenodd" d="M51 4h1v1h-1zm3 2h1v1h-1zm2 1h1v1h-1zm3 2h1v1h-1zm3 2h1v1h-1z"/><path fill="#9379d9" fill-rule="evenodd" d="M54 4h1v1h-1zm8 5h1v1h-1z"/><path fill="#9c7ad8" fill-rule="evenodd" d="M57 4h1v1h-1z"/><path fill="#9751a9" fill-rule="evenodd" d="M63 4h1v1h-1z"/><path fill="#87267e" fill-rule="evenodd" d="M69 4h1v1h-1zm-4 1h1v1h-1z"/><path fill="#88277e" fill-rule="evenodd" d="M70 4h1v1h-1zm-4 1h1v1h-1z"/><path fill="#89277e" fill-rule="evenodd" d="M71 4h1v1h-1zm-4 1h1v1h-1z"/><path fill="#8b277f" fill-rule="evenodd" d="M72 4h1v1h-1zm-4 1h1v1h-1zm-4 1h1v1h-1zm1 62h1v1h-1z"/><path fill="#8b277e" fill-rule="evenodd" d="M73 4h1v1h-1zm-7 64h1v1h-1z"/><path fill="#6e76df" fill-rule="evenodd" d="M39 5h1v1h-1z"/><path fill="#7177df" fill-rule="evenodd" d="M40 5h1v1h-1zm5 3h1v1h-1zm3 2h1v1h-1zm5 3h1v1h-1zm3 2h1v1h-1zm5 3h1v1h-1z"/><path fill="#7377de" fill-rule="evenodd" d="M41 5h1v1h-1zm3 2h1v1h-1zm2 1h1v1h-1zm3 2h1v1h-1zm3 2h1v1h-1zm2 1h1v1h-1zm3 2h1v1h-1zm3 2h1v1h-1zm2 1h1v1h-1z"/><path fill="#7577de" fill-rule="evenodd" d="M42 5h1v1h-1zm3 2h1v1h-1zm5 3h1v1h-1zm3 2h1v1h-1zm5 3h1v1h-1zm3 2h1v1h-1z"/><path fill="#7a78dd" fill-rule="evenodd" d="M44 5h1v1h-1zm2 1h1v1h-1zm3 2h1v1h-1zm3 2h1v1h-1zm2 1h1v1h-1zm3 2h1v1h-1zm5 3h1v1h-1z"/><path fill="#8278dc" fill-rule="evenodd" d="M48 5h1v1h-1zm3 2h1v1h-1zm5 3h1v1h-1zm3 2h1v1h-1z"/><path fill="#9a7ad8" fill-rule="evenodd" d="M58 5h1v1h-1z"/><path fill="#9751aa" fill-rule="evenodd" d="M63 5h1v1h-1z"/><path fill="#8c277f" fill-rule="evenodd" d="M69 5h1v1h-1zm-4 1h1v1h-1z"/><path fill="#8d2780" fill-rule="evenodd" d="M70 5h1v1h-1zm-4 1h1v1h-1z"/><path fill="#8e2780" fill-rule="evenodd" d="M71 5h1v1h-1zm-4 1h1v1h-1z"/><path fill="#8f2780" fill-rule="evenodd" d="M72 5h1v1h-1zm-4 1h1v1h-1zm-4 1h1v1h-1z"/><path fill="#902781" fill-rule="evenodd" d="M73 5h1v1h-1zm-4 1h1v1h-1zm-4 1h1v1h-1z"/><path fill="#6a77df" fill-rule="evenodd" d="M38 6h1v1h-1z"/><path fill="#6c77df" fill-rule="evenodd" d="M39 6h1v1h-1zm2 1h1v1h-1zm3 2h1v1h-1zm3 2h1v1h-1zm2 1h1v1h-1zm3 2h1v1h-1zm3 2h1v1h-1zm2 1h1v1h-1zm3 2h1v1h-1z"/><path fill="#6e77df" fill-rule="evenodd" d="M40 6h1v1h-1zm2 1h1v1h-1zm3 2h1v1h-1zm3 2h1v1h-1zm2 1h1v1h-1zm3 2h1v1h-1zm5 3h1v1h-1zm3 2h1v1h-1z"/><path fill="#7077df" fill-rule="evenodd" d="M41 6h1v1h-1zm2 1h1v1h-1zm3 2h1v1h-1zm3 2h1v1h-1zm2 1h1v1h-1zm3 2h1v1h-1zm3 2h1v1h-1zm2 1h1v1h-1zm3 2h1v1h-1z"/><path fill="#7277de" fill-rule="evenodd" d="M42 6h1v1h-1zm5 3h1v1h-1zm3 2h1v1h-1zm5 3h1v1h-1zm3 2h1v1h-1z"/><path fill="#7677de" fill-rule="evenodd" d="M44 6h1v1h-1zm3 2h1v1h-1zm5 3h1v1h-1zm3 2h1v1h-1zm2 1h1v1h-1zm3 2h1v1h-1z"/><path fill="#7878dd" fill-rule="evenodd" d="M45 6h1v1h-1zm8 5h1v1h-1z"/><path fill="#7f78dd" fill-rule="evenodd" d="M48 6h1v1h-1zm8 5h1v1h-1z"/><path fill="#9650ab" fill-rule="evenodd" d="M63 6h1v1h-1z"/><path fill="#912781" fill-rule="evenodd" d="M70 6h1v1h-1zm-4 1h1v1h-1zm0 60h1v1h-1z"/><path fill="#932882" fill-rule="evenodd" d="M71 6h1v1h-1zm-4 1h1v1h-1z"/><path fill="#942882" fill-rule="evenodd" d="M72 6h1v1h-1zm-4 1h1v1h-1zm-4 1h1v1h-1zm0 59h1v1h-1z"/><path fill="#952882" fill-rule="evenodd" d="M73 6h1v1h-1zm-4 1h1v1h-1zm-4 1h1v1h-1z"/><path fill="#6576df" fill-rule="evenodd" d="M37 7h1v1h-1z"/><path fill="#6777e0" fill-rule="evenodd" d="M38 7h1v1h-1zm5 3h1v1h-1zm3 2h1v1h-1zm5 3h1v1h-1zm3 2h1v1h-1zm5 3h1v1h-1zm3 2h1v1h-1z"/><path fill="#6977e0" fill-rule="evenodd" d="M39 7h1v1h-1zm5 3h1v1h-1zm3 2h1v1h-1zm2 1h1v1h-1zm3 2h1v1h-1zm3 2h1v1h-1zm2 1h1v1h-1zm3 2h1v1h-1z"/><path fill="#6b77df" fill-rule="evenodd" d="M40 7h1v1h-1zm2 1h1v1h-1zm3 2h1v1h-1zm3 2h1v1h-1zm2 1h1v1h-1zm3 2h1v1h-1zm3 2h1v1h-1zm2 1h1v1h-1zm3 2h1v1h-1z"/><path fill="#9651ac" fill-rule="evenodd" d="M63 7h1v1h-1z"/><path fill="#962883" fill-rule="evenodd" d="M70 7h1v1h-1zm-4 1h1v1h-1z"/><path fill="#972883" fill-rule="evenodd" d="M71 7h1v1h-1zm-4 1h1v1h-1zm-1 58h1v1h-1z"/><path fill="#982884" fill-rule="evenodd" d="M72 7h1v1h-1zm-4 1h1v1h-1zm-4 1h1v1h-1z"/><path fill="#992884" fill-rule="evenodd" d="M73 7h1v1h-1zm-4 1h1v1h-1zm-4 1h1v1h-1zm0 57h1v1h-1z"/><path fill="#9a2784" fill-rule="evenodd" d="M74 7h1v1h-1z"/><path fill="#5f75e0" fill-rule="evenodd" d="M36 8h1v1h-1z"/><path fill="#6276e1" fill-rule="evenodd" d="M37 8h1v1h-1zm3 2h1v1h-1zm5 3h1v1h-1zm3 2h1v1h-1zm2 1h1v1h-1zm3 2h1v1h-1zm3 2h1v1h-1zm2 1h1v1h-1zm3 2h1v1h-1z"/><path fill="#6476e0" fill-rule="evenodd" d="M38 8h1v1h-1zm3 2h1v1h-1zm2 1h1v1h-1zm3 2h1v1h-1zm3 2h1v1h-1zm2 1h1v1h-1zm3 2h1v1h-1zm3 2h1v1h-1zm2 1h1v1h-1zm3 2h1v1h-1zm33 6h1v1h-1z"/><path fill="#6676e0" fill-rule="evenodd" d="M39 8h1v1h-1zm5 3h1v1h-1zm3 2h1v1h-1zm5 3h1v1h-1zm3 2h1v1h-1zm5 3h1v1h-1z"/><path fill="#6877e0" fill-rule="evenodd" d="M40 8h1v1h-1zm2 1h1v1h-1zm3 2h1v1h-1zm3 2h1v1h-1zm2 1h1v1h-1zm3 2h1v1h-1zm3 2h1v1h-1zm2 1h1v1h-1zm3 2h1v1h-1z"/><path fill="#6a77e0" fill-rule="evenodd" d="M41 8h1v1h-1zm2 1h1v1h-1zm3 2h1v1h-1zm5 3h1v1h-1zm3 2h1v1h-1zm5 3h1v1h-1zm3 2h1v1h-1z"/><path fill="#6d77df" fill-rule="evenodd" d="M43 8h1v1h-1zm3 2h1v1h-1zm5 3h1v1h-1zm3 2h1v1h-1zm2 1h1v1h-1zm3 2h1v1h-1zm3 2h1v1h-1z"/><path fill="#6f77df" fill-rule="evenodd" d="M44 8h1v1h-1zm3 2h1v1h-1zm5 3h1v1h-1zm3 2h1v1h-1zm5 3h1v1h-1z"/><path fill="#7878de" fill-rule="evenodd" d="M48 8h1v1h-1zm8 5h1v1h-1zm5 3h1v1h-1z"/><path fill="#9750ac" fill-rule="evenodd" d="M63 8h1v1h-1z"/><path fill="#9a2884" fill-rule="evenodd" d="M70 8h1v1h-1zm-4 1h1v1h-1zm-2 57h1v1h-1z"/><path fill="#9c2985" fill-rule="evenodd" d="M71 8h1v1h-1zm-4 1h1v1h-1z"/><path fill="#9d2985" fill-rule="evenodd" d="M72 8h1v1h-1zm-4 1h1v1h-1zm-4 1h1v1h-1z"/><path fill="#9e2986" fill-rule="evenodd" d="M73 8h1v1h-1zm-4 1h1v1h-1zm-4 1h1v1h-1z"/><path fill="#9f2985" fill-rule="evenodd" d="M74 8h1v1h-1z"/><path fill="#5b75e2" fill-rule="evenodd" d="M35 9h1v1h-1z"/><path fill="#5d76e1" fill-rule="evenodd" d="M36 9h1v1h-1zm3 2h1v1h-1zm3 2h1v1h-1zm2 1h1v1h-1zm3 2h1v1h-1zm3 2h1v1h-1zm2 1h1v1h-1zm3 2h1v1h-1zm3 2h1v1h-1zm2 1h1v1h-1z"/><path fill="#5f76e1" fill-rule="evenodd" d="M37 9h1v1h-1zm3 2h1v1h-1zm5 3h1v1h-1zm3 2h1v1h-1zm5 3h1v1h-1zm3 2h1v1h-1zm5 3h1v1h-1z"/><path fill="#6176e1" fill-rule="evenodd" d="M38 9h1v1h-1zm3 2h1v1h-1zm2 1h1v1h-1zm3 2h1v1h-1zm3 2h1v1h-1zm2 1h1v1h-1zm3 2h1v1h-1zm3 2h1v1h-1zm2 1h1v1h-1zm3 2h1v1h-1zm15 6h20v1h-20z"/><path fill="#6376e1" fill-rule="evenodd" d="M39 9h1v1h-1zm3 2h1v1h-1zm5 3h1v1h-1zm8 5h1v1h-1z"/><path fill="#6576e0" fill-rule="evenodd" d="M40 9h1v1h-1zm2 1h1v1h-1zm3 2h1v1h-1zm3 2h1v1h-1zm2 1h1v1h-1zm3 2h1v1h-1zm3 2h1v1h-1zm2 1h1v1h-1zm3 2h1v1h-1z"/><path fill="#6776e0" fill-rule="evenodd" d="M41 9h1v1h-1zm8 5h1v1h-1zm8 5h1v1h-1z"/><path fill="#9750ad" fill-rule="evenodd" d="M63 9h1v1h-1z"/><path fill="#9f2986" fill-rule="evenodd" d="M70 9h1v1h-1zm-4 1h1v1h-1zm-1 55h1v1h-1z"/><path fill="#a02986" fill-rule="evenodd" d="M71 9h1v1h-1zm-4 1h1v1h-1zm-3 55h1v1h-1z"/><path fill="#a12987" fill-rule="evenodd" d="M72 9h1v1h-1zm-4 1h1v1h-1zm-4 1h1v1h-1z"/><path fill="#a22987" fill-rule="evenodd" d="M73 9h1v1h-1zm-4 1h1v1h-1zm-4 1h1v1h-1z"/><path fill="#a42988" fill-rule="evenodd" d="M74 9h1v1h-1zm-4 1h1v1h-1zm-4 1h1v1h-1zm-1 53h1v1h-1z"/><path fill="#5875e1" fill-rule="evenodd" d="M35 10h1v1h-1z"/><path fill="#5a76e2" fill-rule="evenodd" d="M36 10h1v1h-1zm3 2h1v1h-1zm3 2h1v1h-1zm2 1h1v1h-1zm3 2h1v1h-1zm3 2h1v1h-1zm2 1h1v1h-1zm3 2h1v1h-1zm3 2h1v1h-1zm2 1h1v1h-1z"/><path fill="#5c76e1" fill-rule="evenodd" d="M37 10h1v1h-1zm3 2h1v1h-1zm5 3h1v1h-1zm8 5h1v1h-1zm8 5h1v1h-1z"/><path fill="#5e76e1" fill-rule="evenodd" d="M38 10h1v1h-1zm3 2h1v1h-1zm2 1h1v1h-1zm3 2h1v1h-1zm3 2h1v1h-1zm2 1h1v1h-1zm3 2h1v1h-1zm3 2h1v1h-1zm2 1h1v1h-1zm3 2h1v1h-1z"/><path fill="#6076e1" fill-rule="evenodd" d="M39 10h1v1h-1zm3 2h1v1h-1zm2 1h1v1h-1zm3 2h1v1h-1zm3 2h1v1h-1zm2 1h1v1h-1zm3 2h1v1h-1zm3 2h1v1h-1zm2 1h1v1h-1z"/><path fill="#974fae" fill-rule="evenodd" d="M63 10h1v1h-1z"/><path fill="#a52988" fill-rule="evenodd" d="M71 10h1v1h-1zm-4 1h1v1h-1z"/><path fill="#a62a88" fill-rule="evenodd" d="M72 10h1v1h-1zm-4 1h1v1h-1zm-4 1h1v1h-1z"/><path fill="#a72a89" fill-rule="evenodd" d="M73 10h1v1h-1zm-4 1h1v1h-1zm-4 1h1v1h-1z"/><path fill="#a82a89" fill-rule="evenodd" d="M74 10h1v1h-1zm-4 1h1v1h-1zm-4 1h1v1h-1z"/><path fill="#a82a8a" fill-rule="evenodd" d="M75 10h1v1h-1z"/><path fill="#5474e3" fill-rule="evenodd" d="M34 11h1v1h-1z"/><path fill="#5675e2" fill-rule="evenodd" d="M35 11h1v1h-1zm2 1h1v1h-1zm3 2h1v1h-1zm3 2h1v1h-1zm2 1h1v1h-1zm3 2h1v1h-1zm3 2h1v1h-1zm2 1h1v1h-1zm3 2h1v1h-1zm3 2h1v1h-1zm2 1h1v1h-1z"/><path fill="#5875e2" fill-rule="evenodd" d="M36 11h1v1h-1zm2 1h1v1h-1zm3 2h1v1h-1zm5 3h1v1h-1zm3 2h1v1h-1zm5 3h1v1h-1zm3 2h1v1h-1zm5 3h1v1h-1zm11 6h24v1h-24z"/><path fill="#5976e2" fill-rule="evenodd" d="M37 11h1v1h-1zm3 2h1v1h-1zm3 2h1v1h-1zm2 1h1v1h-1zm3 2h1v1h-1zm3 2h1v1h-1zm2 1h1v1h-1zm3 2h1v1h-1zm3 2h1v1h-1zm2 1h1v1h-1z"/><path fill="#5b76e2" fill-rule="evenodd" d="M38 11h1v1h-1zm3 2h1v1h-1zm5 3h1v1h-1zm3 2h1v1h-1zm2 1h1v1h-1zm3 2h1v1h-1zm3 2h1v1h-1zm2 1h1v1h-1zm3 2h1v1h-1zm12 6h23v1h-23z"/><path fill="#974fad" fill-rule="evenodd" d="M63 11h1v1h-1z"/><path fill="#a92a8a" fill-rule="evenodd" d="M71 11h1v1h-1zm-4 1h1v1h-1zm-1 51h1v1h-1z"/><path fill="#aa2a8a" fill-rule="evenodd" d="M72 11h1v1h-1zm-4 1h1v1h-1zm-4 1h1v1h-1zm1 50h1v1h-1z"/><path fill="#ab2a8a" fill-rule="evenodd" d="M73 11h1v1h-1zm-4 1h1v1h-1zm-4 1h1v1h-1z"/><path fill="#ac2a8b" fill-rule="evenodd" d="M74 11h1v1h-1zm-4 1h1v1h-1zm-4 1h1v1h-1zm-2 50h1v1h-1z"/><path fill="#ad2a8b" fill-rule="evenodd" d="M75 11h1v1h-1zm-4 1h1v1h-1zm-4 1h1v1h-1z"/><path fill="#5075e2" fill-rule="evenodd" d="M34 12h1v1h-1z"/><path fill="#5375e3" fill-rule="evenodd" d="M35 12h1v1h-1zm2 1h1v1h-1zm3 2h1v1h-1zm3 2h1v1h-1zm2 1h1v1h-1zm3 2h1v1h-1zm3 2h1v1h-1zm2 1h1v1h-1zm3 2h1v1h-1zm3 2h1v1h-1zm2 1h1v1h-1zm10 7h26v1h-26z"/><path fill="#5575e3" fill-rule="evenodd" d="M36 12h1v1h-1zm8 5h1v1h-1zm8 5h1v1h-1z"/><path fill="#6376e0" fill-rule="evenodd" d="M44 12h1v1h-1zm8 5h1v1h-1zm8 5h1v1h-1z"/><path fill="#984faf" fill-rule="evenodd" d="M63 12h1v1h-1z"/><path fill="#ae2a8c" fill-rule="evenodd" d="M72 12h1v1h-1zm-4 1h1v1h-1zm-4 1h1v1h-1zm2 48h1v1h-1z"/><path fill="#af2a8c" fill-rule="evenodd" d="M73 12h1v1h-1z"/><path fill="#b02b8c" fill-rule="evenodd" d="M74 12h1v1h-1zm-4 1h1v1h-1zm-4 1h1v1h-1z"/><path fill="#b12b8d" fill-rule="evenodd" d="M75 12h1v1h-1zm-4 1h1v1h-1zm-4 1h1v1h-1zm-3 48h1v1h-1z"/><path fill="#4d75e3" fill-rule="evenodd" d="M33 13h1v1h-1z"/><path fill="#4f75e3" fill-rule="evenodd" d="M34 13h1v1h-1zm2 1h1v1h-1zm1 1h1v1h-1zm2 1h1v1h-1zm3 2h1v1h-1zm2 1h1v1h-1zm3 2h1v1h-1zm3 2h1v1h-1zm2 1h1v1h-1zm3 2h1v1h-1zm3 2h1v1h-1zm2 1h1v1h-1z"/><path fill="#5075e3" fill-rule="evenodd" d="M35 13h1v1h-1zm3 2h1v1h-1zm2 1h1v1h-1zm1 1h1v1h-1zm2 1h1v1h-1zm3 2h1v1h-1zm2 1h1v1h-1zm1 1h1v1h-1zm2 1h1v1h-1zm3 2h1v1h-1zm2 1h1v1h-1zm1 1h1v1h-1zm2 1h1v1h-1zm3 2h1v1h-1zm8 6h27v1h-27z"/><path fill="#5275e3" fill-rule="evenodd" d="M36 13h1v1h-1zm2 1h1v1h-1zm3 2h1v1h-1zm3 2h1v1h-1zm2 1h1v1h-1zm3 2h1v1h-1zm3 2h1v1h-1zm2 1h1v1h-1zm3 2h1v1h-1zm3 2h1v1h-1zm2 1h1v1h-1z"/><path fill="#5575e2" fill-rule="evenodd" d="M38 13h1v1h-1zm3 2h1v1h-1zm5 3h1v1h-1zm3 2h1v1h-1zm5 3h1v1h-1zm3 2h1v1h-1zm5 3h1v1h-1z"/><path fill="#5775e2" fill-rule="evenodd" d="M39 13h1v1h-1zm3 2h1v1h-1zm2 1h1v1h-1zm3 2h1v1h-1zm3 2h1v1h-1zm2 1h1v1h-1zm3 2h1v1h-1zm3 2h1v1h-1zm2 1h1v1h-1z"/><path fill="#994eb0" fill-rule="evenodd" d="M63 13h1v1h-1z"/><path fill="#af2b8c" fill-rule="evenodd" d="M69 13h1v1h-1zm-4 1h1v1h-1z"/><path fill="#b22b8d" fill-rule="evenodd" d="M72 13h1v1h-1zm-4 1h1v1h-1zm-4 1h1v1h-1z"/><path fill="#b32b8e" fill-rule="evenodd" d="M73 13h1v1h-1zm-4 1h1v1h-1zm-4 1h1v1h-1z"/><path fill="#b42b8e" fill-rule="evenodd" d="M74 13h1v1h-1zm-4 1h1v1h-1zm-4 1h1v1h-1zm0 46h1v1h-1z"/><path fill="#b52b8e" fill-rule="evenodd" d="M75 13h1v1h-1zm-4 1h1v1h-1zm-4 1h1v1h-1z"/><path fill="#4a75e4" fill-rule="evenodd" d="M33 14h1v1h-1z"/><path fill="#4d75e4" fill-rule="evenodd" d="M34 14h1v1h-1zm2 1h1v1h-1zm3 2h1v1h-1zm2 1h1v1h-1zm1 1h1v1h-1zm2 1h1v1h-1zm3 2h1v1h-1zm2 1h1v1h-1zm1 1h1v1h-1zm2 1h1v1h-1zm3 2h1v1h-1zm2 1h1v1h-1zm1 1h1v1h-1zm2 1h1v1h-1zm10 7h27v1h-27z"/><path fill="#4e75e4" fill-rule="evenodd" d="M35 14h1v1h-1zm3 2h1v1h-1zm5 3h1v1h-1zm3 2h1v1h-1zm5 3h1v1h-1zm3 2h1v1h-1zm5 3h1v1h-1zm3 2h1v1h-1z"/><path fill="#5175e3" fill-rule="evenodd" d="M37 14h1v1h-1zm2 1h1v1h-1zm3 2h1v1h-1zm3 2h1v1h-1zm2 1h1v1h-1zm3 2h1v1h-1zm3 2h1v1h-1zm2 1h1v1h-1zm3 2h1v1h-1zm3 2h1v1h-1z"/><path fill="#5475e3" fill-rule="evenodd" d="M39 14h1v1h-1zm3 2h1v1h-1zm5 3h1v1h-1zm3 2h1v1h-1zm5 3h1v1h-1zm3 2h1v1h-1zm2 1h1v1h-1z"/><path fill="#5c76e2" fill-rule="evenodd" d="M43 14h1v1h-1zm5 3h1v1h-1zm8 5h1v1h-1z"/><path fill="#9a4eb0" fill-rule="evenodd" d="M63 14h1v1h-1z"/><path fill="#b62b8f" fill-rule="evenodd" d="M72 14h1v1h-1zm-4 1h1v1h-1zm-4 1h1v1h-1z"/><path fill="#b72b8f" fill-rule="evenodd" d="M73 14h1v1h-1zm-4 1h1v1h-1zm-4 1h1v1h-1zm-1 45h1v1h-1z"/><path fill="#b82b8f" fill-rule="evenodd" d="M74 14h1v1h-1zm-4 1h1v1h-1zm-4 1h1v1h-1z"/><path fill="#b92b90" fill-rule="evenodd" d="M75 14h1v1h-1zm-4 1h1v1h-1zm-4 1h1v1h-1z"/><path fill="#b92c90" fill-rule="evenodd" d="M76 14h1v1h-1z"/><path fill="#4974e4" fill-rule="evenodd" d="M33 15h1v1h-1zm3 2h1v1h-1zm2 1h1v1h-1zm1 1h1v1h-1zm2 1h1v1h-1zm3 2h1v1h-1zm2 1h1v1h-1zm1 1h1v1h-1zm2 1h1v1h-1zm3 2h1v1h-1zm2 1h1v1h-1zm1 1h1v1h-1zm2 1h1v1h-1zm3 2h1v1h-1zm2 1h1v1h-1z"/><path fill="#4b74e4" fill-rule="evenodd" d="M34 15h1v1h-1zm5 3h1v1h-1zm3 2h1v1h-1zm5 3h1v1h-1zm8 5h1v1h-1zm5 3h1v1h-1zm9 7h28v1h-28z"/><path fill="#4c75e4" fill-rule="evenodd" d="M35 15h1v1h-1zm2 1h1v1h-1zm1 1h1v1h-1zm2 1h1v1h-1zm3 2h1v1h-1zm2 1h1v1h-1zm1 1h1v1h-1zm2 1h1v1h-1zm3 2h1v1h-1zm2 1h1v1h-1zm1 1h1v1h-1zm2 1h1v1h-1zm3 2h1v1h-1zm2 1h1v1h-1zm1 1h1v1h-1z"/><path fill="#9a4eb1" fill-rule="evenodd" d="M63 15h1v1h-1z"/><path fill="#ba2c90" fill-rule="evenodd" d="M72 15h1v1h-1zm-4 1h1v1h-1zm-4 1h1v1h-1z"/><path fill="#bb2c91" fill-rule="evenodd" d="M73 15h1v1h-1zm-4 1h1v1h-1zm-4 1h1v1h-1zm0 43h1v1h-1z"/><path fill="#bc2c91" fill-rule="evenodd" d="M74 15h1v1h-1zm-4 1h1v1h-1zm-4 1h1v1h-1z"/><path fill="#bd2c91" fill-rule="evenodd" d="M75 15h1v1h-1zm-4 1h1v1h-1zm-4 1h1v1h-1zm-3 43h1v1h-1z"/><path fill="#be2c92" fill-rule="evenodd" d="M76 15h1v1h-1zm-4 1h1v1h-1zm-4 1h1v1h-1zm-4 1h1v1h-1z"/><path fill="#4674e4" fill-rule="evenodd" d="M32 16h1v1h-1z"/><path fill="#4774e5" fill-rule="evenodd" d="M33 16h1v1h-1zm3 2h1v1h-1zm2 1h1v1h-1zm1 1h1v1h-1zm2 1h1v1h-1zm3 2h1v1h-1zm2 1h1v1h-1zm3 2h1v1h-1zm3 2h1v1h-1zm2 1h1v1h-1zm3 2h1v1h-1zm3 2h1v1h-1zm2 1h1v1h-1z"/><path fill="#4874e4" fill-rule="evenodd" d="M34 16h1v1h-1zm3 2h1v1h-1zm5 3h1v1h-1zm3 2h1v1h-1zm5 3h1v1h-1zm3 2h1v1h-1zm5 3h1v1h-1zm3 2h1v1h-1z"/><path fill="#4a74e4" fill-rule="evenodd" d="M35 16h1v1h-1zm2 1h1v1h-1zm3 2h1v1h-1zm3 2h1v1h-1zm2 1h1v1h-1zm3 2h1v1h-1zm2 1h1v1h-1zm1 1h1v1h-1zm2 1h1v1h-1zm3 2h1v1h-1zm2 1h1v1h-1zm1 1h1v1h-1zm2 1h1v1h-1z"/><path fill="#4b75e4" fill-rule="evenodd" d="M36 16h1v1h-1zm5 3h1v1h-1zm3 2h1v1h-1zm5 3h1v1h-1zm3 2h1v1h-1zm5 3h1v1h-1z"/><path fill="#9b4eb2" fill-rule="evenodd" d="M63 16h1v1h-1z"/><path fill="#bf2c92" fill-rule="evenodd" d="M73 16h1v1h-1zm-4 1h1v1h-1zm-4 1h1v1h-1zm1 41h1v1h-1z"/><path fill="#c02c92" fill-rule="evenodd" d="M74 16h1v1h-1zm-4 1h1v1h-1zm-4 1h1v1h-1z"/><path fill="#c12c93" fill-rule="evenodd" d="M75 16h1v1h-1zm-4 1h1v1h-1zm-4 1h1v1h-1z"/><path fill="#c22c93" fill-rule="evenodd" d="M76 16h1v1h-1zm-4 1h1v1h-1zm-4 1h1v1h-1zm-4 1h1v1h-1zm0 40h1v1h-1z"/><path fill="#4473e5" fill-rule="evenodd" d="M32 17h1v1h-1z"/><path fill="#4574e5" fill-rule="evenodd" d="M33 17h1v1h-1zm2 1h1v1h-1zm1 1h1v1h-1zm2 1h1v1h-1zm3 2h1v1h-1zm2 1h1v1h-1zm1 1h1v1h-1zm2 1h1v1h-1zm3 2h1v1h-1zm2 1h1v1h-1zm1 1h1v1h-1zm2 1h1v1h-1zm3 2h1v1h-1zm2 1h1v1h-1zm1 1h1v1h-1zm2 1h1v1h-1zm7 5h28v1h-28z"/><path fill="#4674e5" fill-rule="evenodd" d="M34 17h1v1h-1zm3 2h1v1h-1zm3 2h1v1h-1zm2 1h1v1h-1zm3 2h1v1h-1zm2 1h1v1h-1zm1 1h1v1h-1zm2 1h1v1h-1zm3 2h1v1h-1zm2 1h1v1h-1zm1 1h1v1h-1zm2 1h1v1h-1zm3 2h1v1h-1z"/><path fill="#4874e5" fill-rule="evenodd" d="M35 17h1v1h-1zm5 3h1v1h-1zm3 2h1v1h-1zm5 3h1v1h-1zm3 2h1v1h-1zm5 3h1v1h-1zm3 2h1v1h-1zm10 7h28v1h-28z"/><path fill="#4e75e3" fill-rule="evenodd" d="M40 17h1v1h-1zm5 3h1v1h-1zm3 2h1v1h-1zm5 3h1v1h-1zm3 2h1v1h-1zm5 3h1v1h-1z"/><path fill="#9d4db2" fill-rule="evenodd" d="M63 17h1v1h-1z"/><path fill="#c32c94" fill-rule="evenodd" d="M73 17h1v1h-1zm-4 1h1v1h-1zm-4 1h1v1h-1z"/><path fill="#c42c94" fill-rule="evenodd" d="M74 17h1v1h-1zm-4 1h1v1h-1zm-4 1h1v1h-1zm0 39h1v1h-1z"/><path fill="#c52d94" fill-rule="evenodd" d="M75 17h1v1h-1zm-4 1h1v1h-1zm-4 1h1v1h-1z"/><path fill="#c62d95" fill-rule="evenodd" d="M76 17h1v1h-1zm-4 1h1v1h-1zm-4 1h1v1h-1zm-4 1h1v1h-1z"/><path fill="#c62c95" fill-rule="evenodd" d="M77 17h1v1h-1z"/><path fill="#4174e6" fill-rule="evenodd" d="M32 18h1v1h-1zm1 1h1v1h-1zm2 1h1v1h-1zm3 2h1v1h-1zm2 1h1v1h-1zm1 1h1v1h-1zm2 1h1v1h-1zm3 2h1v1h-1zm2 1h1v1h-1zm1 1h1v1h-1zm2 1h1v1h-1zm3 2h1v1h-1zm2 1h1v1h-1zm1 1h1v1h-1zm2 1h1v1h-1zm3 2h1v1h-1z"/><path fill="#4374e5" fill-rule="evenodd" d="M33 18h1v1h-1zm2 1h1v1h-1zm1 1h1v1h-1zm2 1h1v1h-1zm3 2h1v1h-1zm2 1h1v1h-1zm1 1h1v1h-1zm2 1h1v1h-1zm3 2h1v1h-1zm2 1h1v1h-1zm3 2h1v1h-1zm3 2h1v1h-1zm2 1h1v1h-1zm3 2h1v1h-1zm6 5h29v1h-29z"/><path fill="#4474e5" fill-rule="evenodd" d="M34 18h1v1h-1zm3 2h1v1h-1zm2 1h1v1h-1zm1 1h1v1h-1zm2 1h1v1h-1zm3 2h1v1h-1zm2 1h1v1h-1zm1 1h1v1h-1zm2 1h1v1h-1zm3 2h1v1h-1zm2 1h1v1h-1zm1 1h1v1h-1zm2 1h1v1h-1zm3 2h1v1h-1z"/><path fill="#9e4db3" fill-rule="evenodd" d="M63 18h1v1h-1z"/><path fill="#c72d95" fill-rule="evenodd" d="M73 18h1v1h-1zm-4 1h1v1h-1zm-4 1h1v1h-1z"/><path fill="#c82d95" fill-rule="evenodd" d="M74 18h1v1h-1zm-4 1h1v1h-1zm-4 1h1v1h-1zm0 37h1v1h-1z"/><path fill="#c92d96" fill-rule="evenodd" d="M75 18h3v1h-3zm-4 1h2v1h-2zm-4 1h2v1h-2zm-3 1h1v1h-1zm1 36h1v1h-1z"/><path fill="#3e73e6" fill-rule="evenodd" d="M31 19h1v1h-1zm3 2h1v1h-1zm2 1h1v1h-1zm3 2h1v1h-1zm3 2h1v1h-1zm2 1h1v1h-1zm3 2h1v1h-1zm2 1h1v1h-1zm1 1h1v1h-1zm2 1h1v1h-1zm3 2h1v1h-1zm2 1h1v1h-1zm1 1h1v1h-1zm2 1h1v1h-1zm8 7h29v1h-29z"/><path fill="#3f74e6" fill-rule="evenodd" d="M32 19h1v1h-1zm3 2h1v1h-1zm5 3h1v1h-1zm3 2h1v1h-1zm5 3h1v1h-1zm3 2h1v1h-1zm5 3h1v1h-1zm3 2h1v1h-1zm9 7h29v1h-29z"/><path fill="#4274e5" fill-rule="evenodd" d="M34 19h1v1h-1zm5 3h1v1h-1zm8 5h1v1h-1zm5 3h1v1h-1zm3 2h1v1h-1zm5 3h1v1h-1z"/><path fill="#9f4cb4" fill-rule="evenodd" d="M63 19h1v1h-1z"/><path fill="#ca2d96" fill-rule="evenodd" d="M73 19h1v1h-1zm-4 1h1v1h-1zm-4 1h1v1h-1zm-1 36h1v1h-1z"/><path fill="#cb2d97" fill-rule="evenodd" d="M74 19h1v1h-1zm-4 1h1v1h-1zm-4 1h1v1h-1z"/><path fill="#cc2d97" fill-rule="evenodd" d="M75 19h3v1h-3zm-4 1h2v1h-2zm-4 1h2v1h-2zm-3 1h1v1h-1zm2 34h1v1h-1z"/><path fill="#3b72e6" fill-rule="evenodd" d="M31 20h1v1h-1z"/><path fill="#3d73e6" fill-rule="evenodd" d="M32 20h1v1h-1zm3 2h1v1h-1zm2 1h1v1h-1zm1 1h1v1h-1zm2 1h1v1h-1zm3 2h1v1h-1zm2 1h1v1h-1zm1 1h1v1h-1zm2 1h1v1h-1zm3 2h1v1h-1zm2 1h1v1h-1zm1 1h1v1h-1zm2 1h1v1h-1zm3 2h1v1h-1zm2 1h1v1h-1zm1 1h1v1h-1z"/><path fill="#3f73e6" fill-rule="evenodd" d="M33 20h1v1h-1zm5 3h1v1h-1zm3 2h1v1h-1zm5 3h1v1h-1zm8 5h1v1h-1zm8 5h1v1h-1z"/><path fill="#4074e6" fill-rule="evenodd" d="M34 20h1v1h-1zm2 1h1v1h-1zm1 1h1v1h-1zm2 1h1v1h-1zm3 2h1v1h-1zm2 1h1v1h-1zm1 1h1v1h-1zm2 1h1v1h-1zm3 2h1v1h-1zm2 1h1v1h-1zm1 1h1v1h-1zm2 1h1v1h-1zm3 2h1v1h-1zm2 1h1v1h-1zm1 1h1v1h-1z"/><path fill="#a04db4" fill-rule="evenodd" d="M63 20h1v1h-1z"/><path fill="#cd2d97" fill-rule="evenodd" d="M73 20h1v1h-1zm-4 1h1v1h-1zm-4 1h1v1h-1zm0 34h1v1h-1z"/><path fill="#ce2d98" fill-rule="evenodd" d="M74 20h2v1h-2zm-4 1h2v1h-2zm-4 1h2v1h-2zm-2 34h1v1h-1z"/><path fill="#cf2e98" fill-rule="evenodd" d="M76 20h1v1h-1zm-4 1h1v1h-1zm-4 1h1v1h-1zm-4 1h1v1h-1z"/><path fill="#d02e98" fill-rule="evenodd" d="M77 20h1v1h-1zm-4 1h1v1h-1zm-4 1h1v1h-1zm-4 1h1v1h-1z"/><path fill="#3a73e7" fill-rule="evenodd" d="M31 21h1v1h-1zm2 1h1v1h-1zm3 2h1v1h-1zm3 2h1v1h-1zm2 1h1v1h-1zm3 2h1v1h-1zm3 2h1v1h-1zm2 1h1v1h-1zm3 2h1v1h-1zm2 1h1v1h-1zm1 1h1v1h-1zm2 1h1v1h-1zm3 2h1v1h-1zm2 1h1v1h-1z"/><path fill="#3b73e7" fill-rule="evenodd" d="M32 21h1v1h-1zm3 2h1v1h-1zm2 1h1v1h-1zm1 1h1v1h-1zm2 1h1v1h-1zm3 2h1v1h-1zm2 1h1v1h-1zm1 1h1v1h-1zm2 1h1v1h-1zm3 2h1v1h-1zm2 1h1v1h-1zm3 2h1v1h-1zm3 2h1v1h-1zm2 1h1v1h-1z"/><path fill="#3c73e6" fill-rule="evenodd" d="M33 21h1v1h-1zm3 2h1v1h-1zm5 3h1v1h-1zm3 2h1v1h-1zm5 3h1v1h-1zm3 2h1v1h-1zm5 3h1v1h-1zm3 2h1v1h-1zm8 7h29v1h-29z"/><path fill="#4274e6" fill-rule="evenodd" d="M37 21h1v1h-1zm5 3h1v1h-1zm3 2h1v1h-1zm5 3h1v1h-1zm3 2h1v1h-1zm5 3h1v1h-1zm3 2h1v1h-1z"/><path fill="#a24cb4" fill-rule="evenodd" d="M63 21h1v1h-1z"/><path fill="#d02e99" fill-rule="evenodd" d="M74 21h1v1h-1zm-4 1h1v1h-1zm-4 1h1v1h-1z"/><path fill="#d12e99" fill-rule="evenodd" d="M75 21h1v1h-1zm-4 1h1v1h-1zm-4 1h1v1h-1z"/><path fill="#d22e99" fill-rule="evenodd" d="M76 21h1v1h-1zm-4 1h1v1h-1zm-4 1h1v1h-1zm-4 1h1v1h-1z"/><path fill="#d32e99" fill-rule="evenodd" d="M77 21h1v1h-1zm-4 1h1v1h-1zm-4 1h1v1h-1zm-4 1h1v1h-1z"/><path fill="#d22e9a" fill-rule="evenodd" d="M78 21h1v1h-1z"/><path fill="#3673e7" fill-rule="evenodd" d="M30 22h1v1h-1zm2 2h1v1h-1zm1 1h2v1h-2zm2 1h1v1h-1zm2 1h1v1h-1zm1 1h1v1h-1zm2 1h1v1h-1zm1 1h2v1h-2zm2 1h1v1h-1zm2 1h1v1h-1zm1 1h1v1h-1zm2 1h1v1h-1zm1 1h2v1h-2zm2 1h1v1h-1zm2 1h1v1h-1zm1 1h1v1h-1zm2 1h1v1h-1zm1 1h2v1h-2zm2 1h1v1h-1zm2 1h1v1h-1zm1 1h1v1h-1zm6 5h29v1h-29z"/><path fill="#3873e7" fill-rule="evenodd" d="M31 22h1v1h-1zm1 1h2v1h-2zm2 1h1v1h-1zm2 1h1v1h-1zm1 1h1v1h-1zm2 1h1v1h-1zm1 1h2v1h-2zm2 1h1v1h-1zm2 1h1v1h-1zm1 1h1v1h-1zm2 1h1v1h-1zm1 1h2v1h-2zm2 1h1v1h-1zm2 1h1v1h-1zm1 1h1v1h-1zm2 1h1v1h-1zm2 1h1v1h-1zm1 1h1v1h-1zm2 1h1v1h-1zm1 1h1v1h-1zm7 6h29v1h-29z"/><path fill="#3973e7" fill-rule="evenodd" d="M32 22h1v1h-1zm2 1h1v1h-1zm1 1h1v1h-1zm2 1h1v1h-1zm1 1h1v1h-1zm2 1h1v1h-1zm2 1h1v1h-1zm1 1h1v1h-1zm2 1h1v1h-1zm1 1h1v1h-1zm2 1h1v1h-1zm2 1h1v1h-1zm1 1h1v1h-1zm2 1h1v1h-1zm1 1h1v1h-1zm2 1h1v1h-1zm2 1h1v1h-1zm1 1h1v1h-1zm2 1h1v1h-1zm1 1h1v1h-1z"/><path fill="#3c73e7" fill-rule="evenodd" d="M34 22h1v1h-1zm5 3h1v1h-1zm3 2h1v1h-1zm5 3h1v1h-1zm3 2h1v1h-1zm5 3h1v1h-1zm3 2h1v1h-1z"/><path fill="#a34bb5" fill-rule="evenodd" d="M63 22h1v2h-1z"/><path fill="#d32e9a" fill-rule="evenodd" d="M74 22h1v1h-1zm-4 1h1v1h-1zm-4 1h1v1h-1z"/><path fill="#d42e9a" fill-rule="evenodd" d="M75 22h1v1h-1zm-4 1h1v1h-1zm-4 1h1v1h-1zm-1 30h1v1h-1z"/><path fill="#d52e9a" fill-rule="evenodd" d="M76 22h2v1h-2zm-4 1h2v1h-2zm-4 1h2v1h-2zm-4 1h2v1h-2zm1 29h1v1h-1z"/><path fill="#d62e9a" fill-rule="evenodd" d="M78 22h1v1h-1z"/><path fill="#3672e7" fill-rule="evenodd" d="M30 23h1v1h-1z"/><path fill="#3773e7" fill-rule="evenodd" d="M31 23h1v1h-1zm2 1h1v1h-1zm2 1h1v1h-1zm1 1h1v1h-1zm2 1h1v1h-1zm1 1h1v1h-1zm2 1h1v1h-1zm2 1h1v1h-1zm1 1h1v1h-1zm2 1h1v1h-1zm1 1h1v1h-1zm2 1h1v1h-1zm2 1h1v1h-1zm1 1h1v1h-1zm2 1h1v1h-1zm1 1h2v1h-2zm2 1h1v1h-1zm2 1h1v1h-1zm1 1h1v1h-1zm2 1h1v1h-1z"/><path fill="#d62e9b" fill-rule="evenodd" d="M74 23h1v1h-1zm-4 1h1v1h-1zm-4 1h1v1h-1zm-2 29h1v1h-1z"/><path fill="#d72e9b" fill-rule="evenodd" d="M75 23h2v1h-2zm-4 1h2v1h-2zm-4 1h2v1h-2zm-3 1h1v1h-1z"/><path fill="#d82e9b" fill-rule="evenodd" d="M77 23h1v1h-1zm-4 1h1v1h-1zm-4 1h1v1h-1zm-4 1h1v1h-1z"/><path fill="#d92e9c" fill-rule="evenodd" d="M78 23h1v1h-1zm-4 1h2v1h-2zm-4 1h2v1h-2zm-4 1h2v1h-2z"/><path fill="#3473e8" fill-rule="evenodd" d="M30 24h1v1h-1zm1 1h1v1h-1zm2 1h1v1h-1zm1 1h1v1h-1zm2 1h1v1h-1zm2 1h1v1h-1zm1 1h1v1h-1zm2 1h1v1h-1zm1 1h1v1h-1zm2 1h1v1h-1zm2 1h1v1h-1zm1 1h1v1h-1zm2 1h1v1h-1zm1 1h2v1h-2zm2 1h1v1h-1zm2 1h1v1h-1zm1 1h1v1h-1zm2 1h1v1h-1zm1 1h2v1h-2zm2 1h1v1h-1zm2 1h1v1h-1z"/><path fill="#3573e7" fill-rule="evenodd" d="M31 24h1v1h-1zm1 1h1v1h-1zm2 1h1v1h-1zm1 1h2v1h-2zm2 1h1v1h-1zm2 1h1v1h-1zm1 1h1v1h-1zm2 1h1v1h-1zm1 1h2v1h-2zm2 1h1v1h-1zm2 1h1v1h-1zm1 1h1v1h-1zm2 1h1v1h-1zm2 1h1v1h-1zm1 1h1v1h-1zm2 1h1v1h-1zm1 1h1v1h-1zm2 1h1v1h-1zm2 1h1v1h-1zm1 1h1v1h-1z"/><path fill="#a54bb6" fill-rule="evenodd" d="M63 24h1v2h-1z"/><path fill="#da2f9c" fill-rule="evenodd" d="M76 24h1v1h-1zm-4 1h1v1h-1zm-4 1h1v1h-1zm-4 1h1v1h-1z"/><path fill="#db2f9c" fill-rule="evenodd" d="M77 24h1v1h-1z"/><path fill="#dc2f9d" fill-rule="evenodd" d="M78 24h1v1h-1zm-4 1h2v1h-2zm-4 1h2v1h-2zm-4 1h2v1h-2z"/><path fill="#3172e8" fill-rule="evenodd" d="M29 25h1v1h-1zm39 26h29v1h-29z"/><path fill="#3373e8" fill-rule="evenodd" d="M30 25h1v1h-1zm2 1h1v1h-1zm1 1h1v1h-1zm2 1h1v1h-1zm1 1h2v1h-2zm2 1h1v1h-1zm2 1h1v1h-1zm1 1h1v1h-1zm2 1h1v1h-1zm1 1h2v1h-2zm2 1h1v1h-1zm2 1h1v1h-1zm1 1h1v1h-1zm2 1h1v1h-1zm1 1h2v1h-2zm2 1h1v1h-1zm2 1h1v1h-1zm1 1h1v1h-1zm2 1h1v1h-1zm1 1h2v1h-2zm2 1h1v1h-1z"/><path fill="#db2f9d" fill-rule="evenodd" d="M73 25h1v1h-1zm-4 1h1v1h-1zm-4 1h1v1h-1z"/><path fill="#dd2f9d" fill-rule="evenodd" d="M76 25h1v1h-1zm-4 1h1v1h-1zm-4 1h1v1h-1zm-4 1h1v1h-1z"/><path fill="#de2f9e" fill-rule="evenodd" d="M77 25h2v1h-2zm-4 1h2v1h-2zm-4 1h2v1h-2zm-4 1h2v1h-2z"/><path fill="#de2f9d" fill-rule="evenodd" d="M79 25h1v1h-1z"/><path fill="#3172e7" fill-rule="evenodd" d="M29 26h1v1h-1z"/><path fill="#3273e8" fill-rule="evenodd" d="M30 26h2v1h-2zm2 1h1v1h-1zm2 1h1v1h-1zm1 1h1v1h-1zm2 1h1v1h-1zm2 1h1v1h-1zm1 1h1v1h-1zm2 1h1v1h-1zm1 1h1v1h-1zm2 1h1v1h-1zm2 1h1v1h-1zm1 1h1v1h-1zm2 1h1v1h-1zm1 1h1v1h-1zm2 1h1v1h-1zm2 1h1v1h-1zm1 1h1v1h-1zm2 1h1v1h-1zm1 1h1v1h-1zm2 1h1v1h-1z"/><path fill="#a74bb7" fill-rule="evenodd" d="M63 26h1v1h-1z"/><path fill="#df2f9e" fill-rule="evenodd" d="M75 26h2v1h-2zm-4 1h2v1h-2zm-4 1h2v1h-2zm-3 1h1v1h-1z"/><path fill="#e02f9e" fill-rule="evenodd" d="M77 26h2v1h-2zm-4 1h2v1h-2zm-4 1h2v1h-2zm-4 1h2v1h-2zm0 22h2v1h-2z"/><path fill="#e12f9e" fill-rule="evenodd" d="M79 26h1v1h-1z"/><path fill="#2f72e8" fill-rule="evenodd" d="M29 27h1v1h-1zm1 1h1v1h-1zm2 1h1v1h-1zm2 1h1v1h-1zm1 1h1v1h-1zm2 1h1v1h-1zm1 1h1v1h-1zm2 1h1v1h-1zm2 1h1v1h-1zm1 1h1v1h-1zm2 1h1v1h-1zm1 1h1v1h-1zm2 1h1v1h-1zm2 1h1v1h-1zm1 1h1v1h-1zm2 1h1v1h-1zm1 1h1v1h-1zm2 1h1v1h-1zm2 1h1v1h-1zm1 1h1v1h-1zm2 1h1v1h-1zm1 1h1v1h-1zm6 4h29v1h-29z"/><path fill="#3073e8" fill-rule="evenodd" d="M30 27h1v1h-1zm2 1h1v1h-1zm3 2h1v1h-1zm3 2h1v1h-1zm2 1h1v1h-1zm3 2h1v1h-1zm3 2h1v1h-1zm2 1h1v1h-1zm3 2h1v1h-1zm3 2h1v1h-1zm2 1h1v1h-1zm3 2h1v1h-1zm3 2h1v1h-1z"/><path fill="#3173e8" fill-rule="evenodd" d="M31 27h1v1h-1zm2 1h1v1h-1zm1 1h1v1h-1zm2 1h1v1h-1zm1 1h2v1h-2zm2 1h1v1h-1zm2 1h1v1h-1zm1 1h1v1h-1zm2 1h1v1h-1zm1 1h2v1h-2zm2 1h1v1h-1zm2 1h1v1h-1zm1 1h1v1h-1zm2 1h1v1h-1zm1 1h2v1h-2zm2 1h1v1h-1zm2 1h1v1h-1zm1 1h1v1h-1zm2 1h1v1h-1zm1 1h2v1h-2z"/><path fill="#a84ab7" fill-rule="evenodd" d="M63 27h1v1h-1z"/><path fill="#e12f9f" fill-rule="evenodd" d="M75 27h3v1h-3zm-4 1h2v1h-2zm-4 1h2v1h-2zm-3 1h1v1h-1zm0 21h1v1h-1z"/><path fill="#e22f9f" fill-rule="evenodd" d="M78 27h2v1h-2zm-5 1h3v1h-3zm-4 1h3v1h-3zm-4 1h3v1h-3z"/><path fill="#2d72e7" fill-rule="evenodd" d="M28 28h1v1h-1z"/><path fill="#2e72e8" fill-rule="evenodd" d="M29 28h1v1h-1zm2 1h1v1h-1zm1 1h2v1h-2zm2 1h1v1h-1zm2 1h1v1h-1zm1 1h1v1h-1zm2 1h1v1h-1zm1 1h2v1h-2zm2 1h1v1h-1zm2 1h1v1h-1zm1 1h1v1h-1zm2 1h1v1h-1zm1 1h2v1h-2zm2 1h1v1h-1zm2 1h1v1h-1zm1 1h1v1h-1zm2 1h1v1h-1zm1 1h2v1h-2zm2 1h1v1h-1zm2 1h1v1h-1zm1 1h1v1h-1z"/><path fill="#3072e8" fill-rule="evenodd" d="M31 28h1v1h-1zm2 1h1v1h-1zm3 2h1v1h-1zm3 2h1v1h-1zm2 1h1v1h-1zm3 2h1v1h-1zm3 2h1v1h-1zm2 1h1v1h-1zm3 2h1v1h-1zm3 2h1v1h-1zm2 1h1v1h-1zm3 2h1v1h-1z"/><path fill="#a84ab8" fill-rule="evenodd" d="M63 28h1v1h-1z"/><path fill="#e32f9f" fill-rule="evenodd" d="M76 28h1v1h-1zm-4 1h1v1h-1zm-4 1h1v1h-1zm-4 1h1v1h-1zm2 19h1v1h-1z"/><path fill="#e32fa0" fill-rule="evenodd" d="M77 28h1v1h-1zm-4 1h1v1h-1zm-4 1h1v1h-1zm-4 1h1v1h-1z"/><path fill="#e42fa0" fill-rule="evenodd" d="M78 28h1v1h-1zm-4 1h2v1h-2zm-4 1h3v1h-3zm-4 1h3v1h-3zm-2 1h1v1h-1z"/><path fill="#e131a2" fill-rule="evenodd" d="M79 28h1v1h-1z"/><path fill="#c541b0" fill-rule="evenodd" d="M80 28h1v1h-1z"/><path fill="#2b72e9" fill-rule="evenodd" d="M28 29h1v1h-1zm1 1h1v1h-1zm2 1h1v1h-1zm1 1h1v1h-1zm2 1h1v1h-1zm1 1h2v1h-2zm2 1h1v1h-1zm2 1h1v1h-1zm1 1h1v1h-1zm2 1h1v1h-1zm1 1h2v1h-2zm2 1h1v1h-1zm2 1h1v1h-1zm1 1h1v1h-1zm2 1h1v1h-1zm1 1h2v1h-2zm2 1h1v1h-1zm2 1h1v1h-1zm1 1h1v1h-1zm2 1h1v1h-1zm1 1h2v1h-2zm2 1h1v1h-1z"/><path fill="#2c72e8" fill-rule="evenodd" d="M29 29h1v1h-1zm1 1h1v1h-1zm2 1h1v1h-1zm1 1h1v1h-1zm2 1h1v1h-1zm2 1h1v1h-1zm1 1h1v1h-1zm2 1h1v1h-1zm1 1h1v1h-1zm2 1h1v1h-1zm2 1h1v1h-1zm1 1h1v1h-1zm2 1h1v1h-1zm1 1h2v1h-2zm2 1h1v1h-1zm2 1h1v1h-1zm1 1h1v1h-1zm2 1h1v1h-1zm1 1h2v1h-2zm2 1h1v1h-1zm2 1h1v1h-1zm1 1h1v1h-1zm6 4h28v1h-28z"/><path fill="#2d72e8" fill-rule="evenodd" d="M30 29h1v1h-1zm1 1h1v1h-1zm2 1h1v1h-1zm1 1h2v1h-2zm2 1h1v1h-1zm2 1h1v1h-1zm1 1h1v1h-1zm2 1h1v1h-1zm1 1h2v1h-2zm2 1h1v1h-1zm2 1h1v1h-1zm1 1h1v1h-1zm2 1h1v1h-1zm2 1h1v1h-1zm1 1h1v1h-1zm2 1h1v1h-1zm1 1h1v1h-1zm2 1h1v1h-1zm2 1h1v1h-1zm1 1h1v1h-1zm2 1h1v1h-1zm6 4h29v1h-29z"/><path fill="#aa4ab8" fill-rule="evenodd" d="M63 29h1v1h-1z"/><path fill="#de33a3" fill-rule="evenodd" d="M76 29h1v1h-1z"/><path fill="#b44ab9" fill-rule="evenodd" d="M77 29h1v1h-1z"/><path fill="#8d60cd" fill-rule="evenodd" d="M78 29h1v1h-1z"/><path fill="#6973de" fill-rule="evenodd" d="M79 29h1v1h-1z"/><path fill="#6476e1" fill-rule="evenodd" d="M80 29h15v1h-15z"/><path fill="#2971e9" fill-rule="evenodd" d="M27 30h1v1h-1z"/><path fill="#2a72e9" fill-rule="evenodd" d="M28 30h1v1h-1zm1 1h2v1h-2zm2 1h1v1h-1zm2 1h1v1h-1zm1 1h1v1h-1zm2 1h1v1h-1zm1 1h2v1h-2zm2 1h1v1h-1zm2 1h1v1h-1zm1 1h1v1h-1zm2 1h1v1h-1zm2 1h1v1h-1zm1 1h1v1h-1zm2 1h1v1h-1zm1 1h1v1h-1zm2 1h1v1h-1zm2 1h1v1h-1zm1 1h1v1h-1zm2 1h1v1h-1zm1 1h1v1h-1zm2 1h1v1h-1zm2 1h1v1h-1zm6 4h28v1h-28z"/><path fill="#ab49b9" fill-rule="evenodd" d="M63 30h1v1h-1z"/><path fill="#e52fa0" fill-rule="evenodd" d="M73 30h1v1h-1zm-4 1h2v1h-2zm-4 1h2v1h-2zm-1 18h1v1h-1z"/><path fill="#e231a1" fill-rule="evenodd" d="M74 30h1v1h-1z"/><path fill="#ad4dbc" fill-rule="evenodd" d="M75 30h1v1h-1z"/><path fill="#6d70dc" fill-rule="evenodd" d="M76 30h1v1h-1z"/><path fill="#2771e8" fill-rule="evenodd" d="M27 31h1v1h-1z"/><path fill="#2972e9" fill-rule="evenodd" d="M28 31h1v1h-1zm2 1h1v1h-1zm2 1h1v1h-1zm1 1h1v1h-1zm2 1h1v1h-1zm1 1h1v1h-1zm2 1h1v1h-1zm2 1h1v1h-1zm1 1h1v1h-1zm2 1h1v1h-1zm1 1h2v1h-2zm2 1h1v1h-1zm2 1h1v1h-1zm1 1h1v1h-1zm2 1h1v1h-1zm1 1h2v1h-2zm2 1h1v1h-1zm2 1h1v1h-1zm1 1h1v1h-1zm2 1h1v1h-1zm1 1h2v1h-2zm2 1h1v1h-1zm6 4h28v1h-28z"/><path fill="#ac49b8" fill-rule="evenodd" d="M63 31h1v1h-1z"/><path fill="#e630a1" fill-rule="evenodd" d="M71 31h2v1h-2zm-4 1h3v1h-3zm-3 1h2v1h-2z"/><path fill="#d13bab" fill-rule="evenodd" d="M73 31h1v1h-1z"/><path fill="#736bd8" fill-rule="evenodd" d="M74 31h1v1h-1z"/><path fill="#5e76e2" fill-rule="evenodd" d="M75 31h22v1h-22z"/><path fill="#2772e9" fill-rule="evenodd" d="M27 32h2v1h-2zm2 1h1v1h-1zm1 1h2v1h-2zm2 1h2v1h-2zm2 1h1v1h-1zm1 1h2v1h-2zm2 1h1v1h-1zm1 1h2v1h-2zm2 1h2v1h-2zm2 1h1v1h-1zm1 1h2v1h-2zm2 1h1v1h-1zm1 1h2v1h-2zm2 1h2v1h-2zm2 1h1v1h-1zm1 1h2v1h-2zm2 1h1v1h-1zm1 1h2v1h-2zm2 1h2v1h-2zm2 1h1v1h-1zm1 1h2v1h-2zm2 1h1v1h-1zm1 1h1v1h-1z"/><path fill="#2872e9" fill-rule="evenodd" d="M29 32h1v1h-1zm1 1h2v1h-2zm2 1h1v1h-1zm2 1h1v1h-1zm1 1h1v1h-1zm2 1h1v1h-1zm1 1h2v1h-2zm2 1h1v1h-1zm2 1h1v1h-1zm1 1h1v1h-1zm2 1h1v1h-1zm1 1h2v1h-2zm2 1h1v1h-1zm2 1h1v1h-1zm1 1h1v1h-1zm2 1h1v1h-1zm1 1h2v1h-2zm2 1h1v1h-1zm2 1h1v1h-1zm1 1h1v1h-1zm2 1h1v1h-1zm1 1h1v1h-1zm6 4h28v1h-28z"/><path fill="#ad49b9" fill-rule="evenodd" d="M63 32h1v1h-1z"/><path fill="#e730a1" fill-rule="evenodd" d="M70 32h2v1h-2zm-4 1h2v1h-2zm-1 16h1v1h-1z"/><path fill="#c044b3" fill-rule="evenodd" d="M72 32h1v1h-1z"/><path fill="#6472de" fill-rule="evenodd" d="M73 32h1v1h-1z"/><path fill="#2572e9" fill-rule="evenodd" d="M26 33h1v1h-1zm1 1h1v1h-1zm1 1h2v1h2v1h1v1h-2v-1h-2v-1h-1zm5 3h2v1h1v1h-2v-1h-1zm3 2h2v1h2v1h1v1h-2v-1h-2v-1h-1zm5 3h2v1h1v1h-2v-1h-1zm3 2h2v1h2v1h1v1h-2v-1h-2v-1h-1zm5 3h2v1h1v1h-2v-1h-1zm3 2h2v1h-2zm2 1h2v1h1v1h-2v-1h-1zm3 2h2v1h1v1h-2v-1h-1zm3 2h2v1h-2zm2 1h1v1h-1z"/><path fill="#2672e9" fill-rule="evenodd" d="M27 33h2v1h1v1h-2v-1h-1zm3 2h2v1h-2zm2 1h2v1h1v1h-2v-1h-1zm3 2h2v1h1v1h-2v-1h-1zm3 2h2v1h-2zm2 1h2v1h1v1h-2v-1h-1zm3 2h2v1h1v1h-2v-1h-1zm3 2h2v1h-2zm2 1h2v1h1v1h-2v-1h-1zm3 2h2v1h1v1h-2v-1h-1zm3 2h2v1h-2zm2 1h2v1h1v1h-2v-1h-1zm3 2h2v1h1v1h-2v-1h-1zm3 2h1v1h-1zm6 3h28v1h-28z"/><path fill="#af48b9" fill-rule="evenodd" d="M63 33h1v1h-1z"/><path fill="#e830a1" fill-rule="evenodd" d="M68 33h2v1h-2zm-4 1h2v1h-2zm0 15h1v1h-1z"/><path fill="#e830a2" fill-rule="evenodd" d="M70 33h1v1h-1zm-4 1h1v1h-1z"/><path fill="#c243b3" fill-rule="evenodd" d="M71 33h1v1h-1z"/><path fill="#5b74e1" fill-rule="evenodd" d="M72 33h1v1h-1z"/><path fill="#2472e8" fill-rule="evenodd" d="M26 34h1v1h-1z"/><path fill="#af48b8" fill-rule="evenodd" d="M63 34h1v1h-1z"/><path fill="#e930a2" fill-rule="evenodd" d="M67 34h2v1h-2zm-3 1h1v1h-1z"/><path fill="#ea30a2" fill-rule="evenodd" d="M69 34h1v1h-1zm-4 1h2v1h-2zm1 13h1v1h-1z"/><path fill="#d63aaa" fill-rule="evenodd" d="M70 34h1v1h-1z"/><path fill="#6170de" fill-rule="evenodd" d="M71 34h1v1h-1z"/><path fill="#5675e3" fill-rule="evenodd" d="M72 34h25v1h-25z"/><path fill="#2472e9" fill-rule="evenodd" d="M26 35h2v1h-2zm2 1h1v1h-1zm2 1h1v1h-1zm1 1h2v1h-2zm2 1h1v1h-1zm1 1h2v1h-2zm2 1h1v1h-1zm2 1h1v1h-1zm1 1h2v1h-2zm2 1h1v1h-1zm1 1h2v1h-2zm2 1h1v1h-1zm2 1h1v1h-1zm1 1h2v1h-2zm2 1h1v1h-1zm1 1h2v1h-2zm2 1h2v1h-2zm2 1h1v1h-1zm1 1h2v1h-2zm2 1h1v1h-1zm1 1h2v1h-2zm2 1h2v1h-2zm2 1h1v1h-1z"/><path fill="#b047b9" fill-rule="evenodd" d="M63 35h1v1h-1z"/><path fill="#eb30a2" fill-rule="evenodd" d="M67 35h1v1h-1zm-3 13h2v1h-2z"/><path fill="#eb30a3" fill-rule="evenodd" d="M68 35h1v1h-1zm-4 1h2v1h-2z"/><path fill="#e831a4" fill-rule="evenodd" d="M69 35h1v1h-1z"/><path fill="#6e68d8" fill-rule="evenodd" d="M70 35h1v1h-1z"/><path fill="#2272e9" fill-rule="evenodd" d="M25 36h1v2h-1z"/><path fill="#2372ea" fill-rule="evenodd" d="M26 36h1v1h-1zm1 1h2v1h-2zm2 1h2v1h1v1h-2v-1h-1zm3 2h2v1h1v1h-2v-1h-1zm3 2h2v1h-2zm2 1h2v1h1v1h-2v-1h-1zm3 2h2v1h1v1h-2v-1h-1zm3 2h2v1h-2zm2 1h2v1h1v1h-2v-1h-1zm3 2h2v1h1v1h-2v-1h-1zm3 2h2v1h-2zm2 1h2v1h1v1h-2v-1h-1zm3 2h2v1h1v1h-2v-1h-1zm3 2h2v1h-2zm2 1h2v2h-1v-1h-1z"/><path fill="#2472ea" fill-rule="evenodd" d="M27 36h1v1h-1zm2 1h1v1h-1zm3 2h1v1h-1zm3 2h1v1h-1zm2 1h1v1h-1zm3 2h1v1h-1zm3 2h1v1h-1zm2 1h1v1h-1zm3 2h1v1h-1zm3 2h1v1h-1zm2 1h1v1h-1zm3 2h1v1h-1zm3 2h1v1h-1zm2 1h1v1h-1z"/><path fill="#b248b9" fill-rule="evenodd" d="M63 36h1v1h-1z"/><path fill="#ec30a3" fill-rule="evenodd" d="M66 36h3v1h-3zm0 1v1h-2v-1zm-1 10h1v1h-1z"/><path fill="#ae4bbc" fill-rule="evenodd" d="M69 36h1v1h-1z"/><path fill="#2272ea" fill-rule="evenodd" d="M26 37h1v1h2v1h1v1h-2v-1h-2zm4 3h2v1h1v1h-2v-1h-1zm3 2h2v1h2v1h1v1h-2v-1h-2v-1h-1zm5 3h2v1h1v1h-2v-1h-1zm3 2h2v1h2v1h1v1h-2v-1h-2v-1h-1zm5 3h2v1h1v1h-2v-1h-1zm3 2h2v1h2v1h1v1h-2v-1h-2v-1h-1zm5 3h2v1h1v1h-2v-1h-1zm3 2h2v1h2v1h1v1h-2v-1h-2v-1h-1zm5 3h1v1h-1z"/><path fill="#b247b9" fill-rule="evenodd" d="M63 37h1v1h-1z"/><path fill="#ed30a3" fill-rule="evenodd" d="M66 37h2v1h-2zm0 1v1h-2v-1zm0 8h1v1h-1zm-2 1h1v1h-1z"/><path fill="#e832a5" fill-rule="evenodd" d="M68 37h1v1h-1z"/><path fill="#5f6ddd" fill-rule="evenodd" d="M69 37h1v1h-1z"/><path fill="#2172ea" fill-rule="evenodd" d="M25 38h1v1h-1zm1 1h2v1h-2zm2 1h2v1h1v1h-2v-1h-1zm3 2h2v1h1v1h-2v-1h-1zm3 2h2v1h-2zm2 1h2v1h1v1h-2v-1h-1zm3 2h2v1h1v1h-2v-1h-1zm3 2h2v1h-2zm2 1h2v1h1v1h-2v-1h-1zm3 2h2v1h1v1h-2v-1h-1zm3 2h2v1h-2zm2 1h2v1h1v1h-2v-1h-1zm3 2h2v1h1v1h-2v-1h-1zm3 2h2v1h-2zm2 1h2v1h1v1h-2v-1h-1z"/><path fill="#b446b9" fill-rule="evenodd" d="M63 38h1v1h-1zm0 2h1v1h-1z"/><path fill="#ed30a4" fill-rule="evenodd" d="M66 38h2v1h-2z"/><path fill="#b946b9" fill-rule="evenodd" d="M68 38h1v1h-1z"/><path fill="#1f71e9" fill-rule="evenodd" d="M24 39h1v1h-1z"/><path fill="#2071ea" fill-rule="evenodd" d="M25 39h1v1h2v1h1v1h-2v-1h-2zm4 3h2v1h1v1h-2v-1h-1zm3 2h2v1h2v1h1v1h-2v-1h-2v-1h-1zm5 3h2v1h1v1h-2v-1h-1zm3 2h2v1h2v1h1v1h-2v-1h-2v-1h-1zm5 3h2v1h1v1h-2v-1h-1zm3 2h2v1h-2zm2 1h2v1h1v1h-2v-1h-1zm3 2h2v1h1v1h-2v-1h-1zm3 2h2v1h-2zm2 1h2v1h1v1h-2v-1h-1zm3 2h2v2h-1v-1h-1z"/><path fill="#b445ba" fill-rule="evenodd" d="M63 39h1v1h-1z"/><path fill="#ee30a4" fill-rule="evenodd" d="M64 39h4v1h-3v1h-1z"/><path fill="#855bcd" fill-rule="evenodd" d="M68 39h1v1h-1z"/><path fill="#1f71ea" fill-rule="evenodd" d="M24 40h1v1h-1zm1 1h2v1h-2zm2 1h2v1h1v1h-2v-1h-1zm3 2h2v1h1v1h-2v-1h-1zm3 2h2v1h-2zm2 1h2v1h1v1h-2v-1h-1zm3 2h2v1h1v1h-2v-1h-1zm3 2h2v1h-2zm2 1h2v1h1v1h-2v-1h-1zm3 2h2v1h2v1h1v1h-2v-1h-2v-1h-1zm5 3h2v1h1v1h-2v-1h-1zm3 2h2v1h2v1h1v1h-2v-1h-2v-1h-1zm5 3h2v1h1v1h-2v-1h-1zm3 2h1v1h-1z"/><path fill="#ef31a4" fill-rule="evenodd" d="M65 40h2v2h-3v-1h1zm-1 5h3v1h-3z"/><path fill="#ee31a4" fill-rule="evenodd" d="M67 40h1v1h-1z"/><path fill="#536fe0" fill-rule="evenodd" d="M68 40h1v1h-1z"/><path fill="#1e71ea" fill-rule="evenodd" d="M24 41h1v1h2v1h1v1h-2v-1h-2zm4 3h2v1h1v1h-2v-1h-1zm3 2h2v1h-2zm2 1h2v1h1v1h-2v-1h-1zm3 2h2v1h1v1h-2v-1h-1zm3 2h2v1h-2zm2 1h2v1h1v1h-2v-1h-1zm3 2h2v1h1v1h-2v-1h-1zm3 2h2v1h-2zm2 1h2v1h1v1h-2v-1h-1zm3 2h2v1h1v1h-2v-1h-1zm3 2h2v1h-2zm2 1h2v1h1v1h-2v-1h-1zm3 2h2v1h1v1h-2v-1h-1z"/><path fill="#b646b9" fill-rule="evenodd" d="M63 41h1v1h-1z"/><path fill="#e137aa" fill-rule="evenodd" d="M67 41h1v1h-1z"/><path fill="#1d71eb" fill-rule="evenodd" d="M23 42h1v1h-1zm1 1h2v1h-2zm2 1h1v1h-1zm1 1h2v1h-2zm2 1h1v1h-1zm1 1h2v1h-2zm2 1h2v1h-2zm2 1h1v1h-1zm1 1h2v1h-2zm2 1h1v1h-1zm1 1h2v1h-2zm2 1h2v1h-2zm2 1h1v1h-1zm1 1h2v1h-2zm2 1h1v1h-1zm1 1h2v1h-2zm2 1h2v1h-2zm2 1h1v1h-1zm1 1h2v1h-2zm2 1h1v1h-1zm1 1h2v1h-2zm2 1h2v1h-2zm2 1h1v1h-1zm1 1h2v1h-2zm32-1h1v1h-1zm-30 2h1v1h-1zm7-1h22v1h-22z"/><path fill="#b746b9" fill-rule="evenodd" d="M63 42h1v1h-1z"/><path fill="#f031a4" fill-rule="evenodd" d="M64 42h1v1h-1z"/><path fill="#f031a5" fill-rule="evenodd" d="M65 42h2v1h-2zm0 1v1h-1v-1zm0 1h2v1h-2z"/><path fill="#d03db1" fill-rule="evenodd" d="M67 42h1v1h-1z"/><path fill="#4174e5" fill-rule="evenodd" d="M68 42h29v1h-29z"/><path fill="#1b71ea" fill-rule="evenodd" d="M23 43h1v1h-1zm65 23h1v1h-1zm-6 2h1v1h-1z"/><path fill="#b845ba" fill-rule="evenodd" d="M63 43h1v1h-1z"/><path fill="#f131a5" fill-rule="evenodd" d="M65 43h2v1h-2zm0 1v1h-1v-1z"/><path fill="#c044b7" fill-rule="evenodd" d="M67 43h1v1h-1z"/><path fill="#1b71eb" fill-rule="evenodd" d="M23 44h1v1h1v1h-2zm2 2h2v1h1v1h-2v-1h-1zm3 2h2v1h2v1h1v1h-2v-1h-2v-1h-1zm5 3h2v1h1v1h-2v-1h-1zm3 2h2v1h2v1h1v1h-2v-1h-2v-1h-1zm5 3h2v1h1v1h-2v-1h-1zm3 2h2v1h-2zm2 1h2v1h1v1h-2v-1h-1zm3 2h2v1h1v1h-2v-1h-1zm3 2h2v1h-2zm2 1h2v1h1v1h-2v-1h-1zm3 2h2v1h1v1h-2v-1h-1zm3 2h2v1h-2zm2 1h1v1h-1z"/><path fill="#1c71eb" fill-rule="evenodd" d="M24 44h2v1h1v1h-2v-1h-1zm3 2h2v1h1v1h-2v-1h-1zm3 2h2v1h-2zm2 1h2v1h1v1h-2v-1h-1zm3 2h2v1h1v1h-2v-1h-1zm3 2h2v1h-2zm2 1h2v1h1v1h-2v-1h-1zm3 2h2v1h1v1h-2v-1h-1zm3 2h2v1h-2zm2 1h2v1h1v1h-2v-1h-1zm3 2h2v1h1v1h-2v-1h-1zm3 2h2v1h-2zm2 1h2v1h1v1h-2v-1h-1zm3 2h2v1h2v2h-1v-1h-2v-1h-1zm9 0h20v1h-2v1h-18z"/><path fill="#1d71ea" fill-rule="evenodd" d="M27 44h1v1h-1zm3 2h1v1h-1zm2 1h1v1h-1zm3 2h1v1h-1zm3 2h1v1h-1zm2 1h1v1h-1zm3 2h1v1h-1zm3 2h1v1h-1zm2 1h1v1h-1zm3 2h1v1h-1zm3 2h1v1h-1zm2 1h1v1h-1zm3 2h1v1h-1zm3 2h1v1h-1z"/><path fill="#b944b9" fill-rule="evenodd" d="M63 44h1v1h-1z"/><path fill="#ba44b8" fill-rule="evenodd" d="M67 44h1v1h-1z"/><path fill="#1a70eb" fill-rule="evenodd" d="M22 45h1v1h-1z"/><path fill="#b845b8" fill-rule="evenodd" d="M63 45h1v1h-1z"/><path fill="#b944b8" fill-rule="evenodd" d="M67 45h1v1h-1z"/><path fill="#1a71ea" fill-rule="evenodd" d="M22 46h1v1h-1z"/><path fill="#1a71eb" fill-rule="evenodd" d="M23 46h2v1h1v1h2v1h1v1h2v1h2v1h1v1h2v1h1v1h2v1h2v1h1v1h2v1h2v1h1v1h2v1h1v1h2v1h2v1h1v1h2v1h1v1h2v1h2v1h1v2h-2v-1h-1v-1h-2v-1h-1v-1h-2v-1h-2v-1h-1v-1h-2v-1h-1v-1h-2v-1h-2v-1h-1v-1h-2v-1h-1v-1h-2v-1h-2v-1h-1v-1h-2v-1h-1v-1h-2v-1h-2v-1h-1v-1h-2v-1h-1v-1h-2z"/><path fill="#b844b7" fill-rule="evenodd" d="M63 46h1v1h-1z"/><path fill="#ee30a3" fill-rule="evenodd" d="M64 46h2v1h-2z"/><path fill="#b744b7" fill-rule="evenodd" d="M67 46h1v2h-1z"/><path fill="#3a73e6" fill-rule="evenodd" d="M68 46h29v1h-29z"/><path fill="#1971eb" fill-rule="evenodd" d="M22 47h1v1h2v1h1v1h2v1h1v1h2v1h2v1h1v1h2v1h1v1h2v1h2v1h1v1h2v1h1v1h2v1h2v1h1v1h2v1h1v1h2v1h2v1h1v1h2v1h1v1h2v3h-1v-1h-2v-1h-1v-1h-2v-1h-2v-1h-1v-1h-2v-1h-1v-1h-2v-1h-2v-1h-1v-1h-2v-1h-1v-1h-2v-1h-2v-1h-1v-1h-2v-1h-2v-1h-1v-1h-2v-1h-1v-1h-2v-1h-2v-1h-1v-1h-2v-1h-1z"/><path fill="#b842b7" fill-rule="evenodd" d="M63 47h1v1h-1z"/><path fill="#ec30a2" fill-rule="evenodd" d="M66 47h1v1h-1z"/><path fill="#1870eb" fill-rule="evenodd" d="M21 48h1v1h-1zm-1 3h1v1h-1z"/><path fill="#b743b6" fill-rule="evenodd" d="M63 48h1v1h-1z"/><path fill="#b444b6" fill-rule="evenodd" d="M67 48h1v1h-1z"/><path fill="#1871eb" fill-rule="evenodd" d="M21 49h1v1h1v1h2v1h1v1h2v1h2v1h1v1h2v1h1v1h2v1h2v1h1v1h2v1h2v1h1v1h2v1h1v1h2v1h2v1h1v1h2v1h1v1h2v1h2v1h1v1h2v1h1v3h-1v-1h-2v-1h-1v-1h-2v-1h-1v-1h-2v-1h-2v-1h-1v-1h-2v-1h-1v-1h-2v-1h-2v-1h-1v-1h-2v-1h-1v-1h-2v-1h-2v-1h-1v-1h-2v-1h-1v-1h-2v-1h-2v-1h-1v-1h-2v-1h-1v-1h-2v-1h-1z"/><path fill="#b642b5" fill-rule="evenodd" d="M63 49h1v1h-1z"/><path fill="#e62fa0" fill-rule="evenodd" d="M66 49h1v1h-1z"/><path fill="#b043b5" fill-rule="evenodd" d="M67 49h1v1h-1z"/><path fill="#3473e7" fill-rule="evenodd" d="M68 49h29v1h-29z"/><path fill="#1770eb" fill-rule="evenodd" d="M20 50h1v1h-1z"/><path fill="#b440b3" fill-rule="evenodd" d="M63 50h1v1h-1z"/><path fill="#e42f9f" fill-rule="evenodd" d="M65 50h1v1h-1z"/><path fill="#ae43b5" fill-rule="evenodd" d="M67 50h1v1h-1z"/><path fill="#3272e7" fill-rule="evenodd" d="M68 50h29v1h-29z"/><path fill="#b241b2" fill-rule="evenodd" d="M63 51h1v1h-1z"/><path fill="#ac43b4" fill-rule="evenodd" d="M67 51h1v1h-1z"/><path fill="#1771eb" fill-rule="evenodd" d="M20 52h2v1h2v1h1v1h2v1h1v1h2v1h2v1h1v1h2v1h1v1h2v1h2v1h1v1h2v1h1v1h2v1h2v1h1v1h2v1h1v1h2v1h2v1h1v1h2v1h1v1h2v1h1v3h-1v-1h-1v-1h-2v-1h-1v-1h-2v-1h-2v-1h-1v-1h-2v-1h-1v-1h-2v-1h-2v-1h-1v-1h-2v-1h-2v-1h-1v-1h-2v-1h-1v-1h-2v-1h-2v-1h-1v-1h-2v-1h-1v-1h-2v-1h-2v-1h-1v-1h-2v-1h-1v-1h-1z"/><path fill="#b140b1" fill-rule="evenodd" d="M63 52h1v1h-1z"/><path fill="#de2e9d" fill-rule="evenodd" d="M64 52h1v1h-1z"/><path fill="#dd2e9d" fill-rule="evenodd" d="M65 52h1v1h-1z"/><path fill="#dc2e9d" fill-rule="evenodd" d="M66 52h1v1h-1z"/><path fill="#a842b3" fill-rule="evenodd" d="M67 52h1v1h-1z"/><path fill="#1670eb" fill-rule="evenodd" d="M19 53h1v1h-1z"/><path fill="#ae3faf" fill-rule="evenodd" d="M63 53h1v1h-1z"/><path fill="#da2e9c" fill-rule="evenodd" d="M64 53h2v1h-2z"/><path fill="#d92e9b" fill-rule="evenodd" d="M66 53h1v1h-1z"/><path fill="#a442b2" fill-rule="evenodd" d="M67 53h1v1h-1z"/><path fill="#1670ec" fill-rule="evenodd" d="M19 54h1v1h-1z"/><path fill="#1671ec" fill-rule="evenodd" d="M20 54h1v1h1v1h2v1h1v1h2v1h2v1h1v1h2v1h1v1h2v1h2v1h1v1h2v1h1v1h2v1h2v1h1v1h2v1h2v1h1v1h2v1h1v1h2v1h2v1h1v1h2v1h1v1h1v1h-1v1h-1v-1h-2v-1h-1v-1h-2v-1h-1v-1h-2v-1h-2v-1h-1v-1h-2v-1h-1v-1h-2v-1h-2v-1h-1v-1h-2v-1h-1v-1h-2v-1h-2v-1h-1v-1h-2v-1h-1v-1h-2v-1h-2v-1h-1v-1h-2v-1h-1v-1h-2v-1h-2v-2h1z"/><path fill="#ac3faf" fill-rule="evenodd" d="M63 54h1v1h-1z"/><path fill="#a142b1" fill-rule="evenodd" d="M67 54h1v1h-1z"/><path fill="#2c71e8" fill-rule="evenodd" d="M96 54h1v1h-1z"/><path fill="#aa3ead" fill-rule="evenodd" d="M63 55h1v1h-1z"/><path fill="#d22d99" fill-rule="evenodd" d="M64 55h1v1h-1z"/><path fill="#d12d99" fill-rule="evenodd" d="M65 55h1v1h-1z"/><path fill="#d02d98" fill-rule="evenodd" d="M66 55h1v1h-1z"/><path fill="#9e42b0" fill-rule="evenodd" d="M67 55h1v1h-1z"/><path fill="#2a71e9" fill-rule="evenodd" d="M96 55h1v1h-1z"/><path fill="#1470eb" fill-rule="evenodd" d="M18 56h1v1h-1zm44 27h1v1h-1z"/><path fill="#a73dab" fill-rule="evenodd" d="M63 56h1v1h-1z"/><path fill="#9a42ae" fill-rule="evenodd" d="M67 56h1v1h-1z"/><path fill="#2872e8" fill-rule="evenodd" d="M96 56h1v1h-1z"/><path fill="#1571eb" fill-rule="evenodd" d="M18 57h1v1h-1zm44 27h1v1h-1z"/><path fill="#1571ec" fill-rule="evenodd" d="M19 57h2v1h2v1h1v1h2v1h1v1h2v1h2v1h1v1h2v1h1v1h2v1h2v1h1v1h2v1h1v1h2v1h2v1h1v1h2v1h1v1h2v1h2v1h1v1h2v1h1v1h2v1h1v3h-1v-1h-1v-1h-2v-1h-1v-1h-2v-1h-2v-1h-1v-1h-2v-1h-1v-1h-2v-1h-2v-1h-1v-1h-2v-1h-2v-1h-1v-1h-2v-1h-1v-1h-2v-1h-2v-1h-1v-1h-2v-1h-1v-1h-2v-1h-2v-1h-1v-1h-2v-1h-1v-1h-2v-1h1z"/><path fill="#a53da9" fill-rule="evenodd" d="M63 57h1v1h-1z"/><path fill="#9842ae" fill-rule="evenodd" d="M67 57h1v1h-1z"/><path fill="#a33ca8" fill-rule="evenodd" d="M63 58h1v1h-1z"/><path fill="#c62c94" fill-rule="evenodd" d="M64 58h1v1h-1z"/><path fill="#c52c94" fill-rule="evenodd" d="M65 58h1v1h-1z"/><path fill="#9441ac" fill-rule="evenodd" d="M67 58h1v1h-1z"/><path fill="#1371eb" fill-rule="evenodd" d="M17 59h1v1h-1zm-1 3h1v1h-1zm-1 4h1v1h-1zm-2 4h1v1h-1zm47 18h1v1h-1zm-2 4h1v1h-1zm0 1v1h-1v-1z"/><path fill="#1471ec" fill-rule="evenodd" d="M18 59h2v1h1v1h2v1h1v1h2v1h2v1h1v1h2v1h1v1h2v1h2v1h1v1h2v1h1v1h2v1h2v1h1v1h2v1h2v1h1v1h2v1h1v1h2v1h2v1h1v1h2v1h1v3h-1v-1h-2v-1h-1v-1h-2v-1h-1v-1h-2v-1h-2v-1h-1v-1h-2v-1h-1v-1h-2v-1h-2v-1h-1v-1h-2v-1h-1v-1h-2v-1h-2v-1h-1v-1h-2v-1h-1v-1h-2v-1h-2v-1h-1v-1h-2v-1h-1v-1h-2v-1h-2z"/><path fill="#a03ba6" fill-rule="evenodd" d="M63 59h1v1h-1z"/><path fill="#c02c93" fill-rule="evenodd" d="M65 59h1v1h-1z"/><path fill="#9041ac" fill-rule="evenodd" d="M67 59h1v1h-1z"/><path fill="#2571ea" fill-rule="evenodd" d="M68 59h27v1h-27z"/><path fill="#2570e9" fill-rule="evenodd" d="M95 59h1v1h-1z"/><path fill="#1370ec" fill-rule="evenodd" d="M17 60h1v1h-1z"/><path fill="#9c3ca5" fill-rule="evenodd" d="M63 60h1v1h-1z"/><path fill="#ba2b90" fill-rule="evenodd" d="M66 60h1v1h-1z"/><path fill="#8c40ab" fill-rule="evenodd" d="M67 60h1v1h-1z"/><path fill="#2471ea" fill-rule="evenodd" d="M68 60h27v1h-27z"/><path fill="#1371ec" fill-rule="evenodd" d="M17 61h1v1h2v1h2v1h1v1h2v1h1v1h2v1h2v1h1v1h2v1h1v1h2v1h2v1h1v1h2v1h1v1h2v1h2v1h1v1h2v1h1v1h2v1h2v1h1v1h2v1h1v1h2v3h-1v2h-1v1h-1v1h-1v1h-1v1h-2v-1h-2v-1h-2v-1h-1v-1h-2v-1h-1v-1h-2v-1h-2v-1h-1v-1h-2v-1h-2v-1h-1v-1h-2v-1h-1v-1h-2v-1h-2v-1h-1v-1h-2v-1h-1v-1h-2v-1h-2v-1h-1v-1h-2v-1h-1v-1h-2v-3h1v-2h1v-3h1z"/><path fill="#993aa3" fill-rule="evenodd" d="M63 61h1v1h-1z"/><path fill="#b62b8e" fill-rule="evenodd" d="M65 61h1v1h-1z"/><path fill="#8840a9" fill-rule="evenodd" d="M67 61h1v1h-1z"/><path fill="#2271ea" fill-rule="evenodd" d="M68 61h26v1h-26z"/><path fill="#2270ea" fill-rule="evenodd" d="M94 61h1v1h-1z"/><path fill="#9539a0" fill-rule="evenodd" d="M63 62h1v1h-1z"/><path fill="#b02a8c" fill-rule="evenodd" d="M65 62h1v1h-1z"/><path fill="#833fa8" fill-rule="evenodd" d="M67 62h1v1h-1z"/><path fill="#2171ea" fill-rule="evenodd" d="M68 62h25v1h-25z"/><path fill="#2070e9" fill-rule="evenodd" d="M93 62h1v1h-1z"/><path fill="#1370eb" fill-rule="evenodd" d="M16 63h1v1h-1zm-1 2h1v1h-1zm-1 3h1v1h-1zm47 19h1v1h-1zm-1 2h1v1h-1z"/><path fill="#90399e" fill-rule="evenodd" d="M63 63h1v1h-1z"/><path fill="#7e3fa6" fill-rule="evenodd" d="M67 63h1v1h-1z"/><path fill="#1f71eb" fill-rule="evenodd" d="M68 63h24v1h-24z"/><path fill="#1f70ea" fill-rule="evenodd" d="M92 63h1v1h-1z"/><path fill="#8d379c" fill-rule="evenodd" d="M63 64h1v1h-1z"/><path fill="#a62988" fill-rule="evenodd" d="M64 64h1v1h-1z"/><path fill="#a32987" fill-rule="evenodd" d="M66 64h1v1h-1z"/><path fill="#7b3fa5" fill-rule="evenodd" d="M67 64h1v1h-1z"/><path fill="#1e71eb" fill-rule="evenodd" d="M68 64h23v1h-23z"/><path fill="#8a369a" fill-rule="evenodd" d="M63 65h1v1h-1z"/><path fill="#9d2885" fill-rule="evenodd" d="M66 65h1v1h-1z"/><path fill="#773ea3" fill-rule="evenodd" d="M67 65h1v1h-1z"/><path fill="#1d70eb" fill-rule="evenodd" d="M90 65h1v1h-1z"/><path fill="#853597" fill-rule="evenodd" d="M63 66h1v1h-1z"/><path fill="#713ea1" fill-rule="evenodd" d="M67 66h1v1h-1z"/><path fill="#1c71ea" fill-rule="evenodd" d="M89 66h1v1h-1zm-2 1h1v1h-1z"/><path fill="#813594" fill-rule="evenodd" d="M63 67h1v1h-1z"/><path fill="#922781" fill-rule="evenodd" d="M65 67h1v1h-1z"/><path fill="#6c3da0" fill-rule="evenodd" d="M67 67h1v1h-1z"/><path fill="#1b70ea" fill-rule="evenodd" d="M86 67h1v1h-1z"/><path fill="#733899" fill-rule="evenodd" d="M63 68h1v1h-1z"/><path fill="#8e277f" fill-rule="evenodd" d="M64 68h1v1h-1z"/><path fill="#6a3a9b" fill-rule="evenodd" d="M67 68h1v1h-1z"/><path fill="#355ecf" fill-rule="evenodd" d="M68 68h2v1h-2z"/><path fill="#345dcf" fill-rule="evenodd" d="M70 68h1v1h-1z"/><path fill="#345dce" fill-rule="evenodd" d="M71 68h2v1h-2z"/><path fill="#335dce" fill-rule="evenodd" d="M73 68h3v1h-3z"/><path fill="#325dce" fill-rule="evenodd" d="M76 68h2v1h-2z"/><path fill="#325dcd" fill-rule="evenodd" d="M78 68h1v1h-1z"/><path fill="#315dcd" fill-rule="evenodd" d="M79 68h1v1h-1z"/><path fill="#2a63d6" fill-rule="evenodd" d="M80 68h1v1h-1z"/><path fill="#1b70eb" fill-rule="evenodd" d="M81 68h1v1h-1zm2 0h1v1h-1z"/><path fill="#1270eb" fill-rule="evenodd" d="M13 71h1v1h-1zm-2 6h1v1h-1zm42 19h1v1h-1zm-9 3h1v1h-1z"/><path fill="#1271ec" fill-rule="evenodd" d="M13 72h3v1h1v1h2v1h1v1h2v1h2v1h1v1h2v1h1v1h2v1h2v1h1v1h2v1h1v1h2v1h2v1h1v1h2v1h2v1h1v1h2v1h1v1h2v1h2v2h-2v2h-1v-1h-1v1h-6v1h-2v-1h-2v-1h-1v-1h-2v-1h-2v-1h-1v-1h-2v-1h-1v-1h-2v-1h-2v-1h-1v-1h-2v-1h-1v-1h-2v-1h-2v-1h-1v-1h-2v-1h-1v-1h-2v-1h-1v-3h1v-3h1zm-5 14h1v1h-1zm-1 2h1v1h-1zm52 2h1v1h-1zm-3 4h1v1h-1zm0 1v1h-1v-1z"/><path fill="#1171eb" fill-rule="evenodd" d="M12 73h1v1h-1zm-2 6h1v1h-1zm36 20h1v1h-1z"/><path fill="#1171ec" fill-rule="evenodd" d="M12 74h1v1h-1zm-6 16h1v2h-1z"/><path fill="#1170eb" fill-rule="evenodd" d="M11 76h1v1h-1zm41 21h1v1h-1z"/><path fill="#1170ec" fill-rule="evenodd" d="M10 80h1v1h-1zm39 18h1v1h-1z"/><path fill="#1271ed" fill-rule="evenodd" d="M10 81h2v1h2v1h1v1h2v1h1v1h2v1h2v1h1v1h2v1h1v1h2v1h2v1h1v1h2v1h1v1h2v1h2v1h1v1h2v1h-18v-1h-2v-1h-1v-1h-2v-1h-2v-1h-1v-1h-2v-1h-1v-1h-2v-1h-2v-1h-1v-1h1v-2h1v-3h1z"/><path fill="#1170ed" fill-rule="evenodd" d="M9 82h1v1h-1zm-4 12h1v1h-1z"/><path fill="#1570eb" fill-rule="evenodd" d="M62 82h1v1h-1z"/><path fill="#1270ec" fill-rule="evenodd" d="M9 83h1v1h-1zm-1 2h1v1h-1z"/><path fill="#1471eb" fill-rule="evenodd" d="M61 86h1v1h-1z"/><path fill="#1171ed" fill-rule="evenodd" d="M7 90h1v1h2v1h2v1h1v1h2v1h1v1h2v1h2v1h1v1h2v1h-16v-1h-1v1h-1v-5h1v-1h-1v-1h1v-1h1z"/><path fill="#1071ed" fill-rule="evenodd" d="M4 96h1v1h-1z"/><path fill="#1071ec" fill-rule="evenodd" d="M4 97h1v1h-1z"/><path fill="#1271eb" fill-rule="evenodd" d="M51 97h1v1h-1zm-8 2h1v1h-1zm2 0h1v1h-1z"/><path fill="#1070ec" fill-rule="evenodd" d="M4 98h1v1h-1z"/><path fill="#1070ed" fill-rule="evenodd" d="M6 99h1v1h-1z"/></svg>