<svg xmlns="http://www.w3.org/2000/svg" viewBox="0 0 100 100" width="1em" height="1em"><path fill="#104582" d="M31 3h1v1h-1z" /><path fill="#0f427c" d="M32 3h1v1h-1z" /><path fill="#0f437d" d="M33 3h1v1h-1z" /><path fill="#15538d" d="M34 3h1v1h-1z" /><path fill="#2279ab" d="M35 3h1v1h-1z" /><path fill="#37bce6" d="M36 3h1v1h-1z" /><path fill="#3ccbf4" d="M37 3h25v1h-25zM38 4h22v1h-22zM39 5h18v1h-18zM39 6h15v1h-15zM39 7h13v1h-13zM40 8h9v1h-9zM40 9h6v1h-6zM40 10h4v1h-4z" /><path fill="#3ccaf4" d="M62 3h4v1h-4zM60 4h4v1h-4zM57 5h4v1h-4zM54 6h5v1h-5zM52 7h4v1h-4zM49 8h4v1h-4zM46 9h5v1h-5zM44 10h4v1h-4zM41 11h4v1h-4zM41 12h2v1h-2z" /><path fill="#3cc9f3" d="M66 3h1v1h-1z" /><path fill="#3ac8f3" d="M67 3h1v1h-1zM70 5h1v1h-1z" /><path fill="#3ac9f2" d="M68 3h1v1h-1z" /><path fill="#104787" d="M30 4h1v1h-1z" /><path fill="#104683" d="M31 4h1v1h-1zM33 9h1v1h-1z" /><path fill="#0f437e" d="M32 4h1v1h-1zM34 8h1v1h-1zM34 9h3v1h-3zM36 10h1v1h-1z" /><path fill="#0f427d" d="M33 4h2v1h-2zM33 5h3v1h-3zM33 6h3v1h-3zM34 7h2v1h-2z" /><path fill="#0f417a" d="M35 4h1v1h-1zM36 7h1v1h-1z" /><path fill="#134a7e" d="M36 4h1v1h-1z" /><path fill="#35b3dd" d="M37 4h1v1h-1z" /><path fill="#3bcaf3" d="M64 4h1v1h-1zM56 7h1v1h-1zM48 10h1v1h-1z" /><path fill="#3bc9f3" d="M65 4h4v1h-4zM62 5h5v1h-5zM59 6h5v1h-5zM57 7h4v1h-4zM54 8h5v1h-5zM51 9h5v1h-5zM49 10h4v1h-4zM46 11h5v1h-5zM43 12h5v1h-5zM41 13h4v1h-4zM42 14h1v1h-1z" /><path fill="#3bc8f2" d="M69 4h1v1h-1z" /><path fill="#114a8b" d="M29 5h1v1h-1z" /><path fill="#114988" d="M30 5h1v1h-1zM31 7h1v1h-1z" /><path fill="#104684" d="M31 5h1v1h-1zM32 7h1v1h-1z" /><path fill="#104480" d="M32 5h1v1h-1z" /><path fill="#0e3e74" d="M36 5h1v1h-1zM37 8h1v1h-1z" /><path fill="#165685" d="M37 5h1v1h-1z" /><path fill="#3ccaf3" d="M38 5h1v1h-1zM61 5h1v1h-1zM53 8h1v1h-1zM45 11h1v1h-1z" /><path fill="#3bc8f3" d="M67 5h3v1h-3zM64 6h5v1h-5zM61 7h5v1h-5zM59 8h4v1h-4zM56 9h5v1h-5zM53 10h5v1h-5zM51 11h5v1h-5zM48 12h5v1h-5zM45 13h5v1h-5zM43 14h5v1h-5zM42 15h3v1h-3z" /><path fill="#114a8c" d="M29 6h1v1h-1zM31 9h1v1h-1z" /><path fill="#11498b" d="M30 6h1v1h-1z" /><path fill="#104786" d="M31 6h1v1h-1z" /><path fill="#104581" d="M32 6h1v1h-1z" /><path fill="#0f3f77" d="M36 6h1v1h-1z" /><path fill="#0d3a6e" d="M37 6h1v1h-1zM38 9h1v1h-1z" /><path fill="#30a5cf" d="M38 6h1v1h-1z" /><path fill="#3bc7f3" d="M69 6h2v1h-2zM66 7h3v1h-3zM63 8h3v1h-3zM61 9h3v1h-3zM58 10h3v1h-3zM56 11h2v1h-2zM53 12h3v1h-3zM50 13h3v1h-3zM48 14h2v1h-2zM45 15h3v1h-3zM42 16h3v1h-3z" /><path fill="#114b8c" d="M28 7h3v1h-3z" /><path fill="#0f437f" d="M33 7h1v1h-1zM35 10h1v1h-1zM35 11h3v1h-3z" /><path fill="#0e3c71" d="M37 7h1v1h-1z" /><path fill="#20739e" d="M38 7h1v1h-1z" /><path fill="#3bc7f2" d="M69 7h1v1h-1zM66 8h1v1h-1zM64 9h1v1h-1zM61 10h1v1h-1zM58 11h1v1h-1zM56 12h1v1h-1zM53 13h1v1h-1zM50 14h1v1h-1zM48 15h1v1h-1zM45 16h1v1h-1z" /><path fill="#3ac7f2" d="M70 7h1v1h-1zM67 8h1v1h-1zM65 9h1v1h-1zM62 10h1v1h-1zM59 11h1v1h-1zM57 12h1v1h-1zM54 13h1v1h-1zM51 14h1v1h-1zM49 15h1v1h-1zM46 16h1v1h-1zM43 17h1v1h-1z" /><path fill="#3ac6f2" d="M71 7h1v1h-1zM68 8h3v1h-3zM66 9h4v1h-4zM63 10h5v1h-5zM60 11h5v1h-5zM58 12h4v1h-4zM55 13h5v1h-5zM52 14h5v1h-5zM50 15h4v1h-4zM47 16h5v1h-5zM44 17h5v1h-5zM43 18h3v1h-3zM43 19h1v1h-1z" /><path fill="#104a8c" d="M28 8h1v1h-1z" /><path fill="#114b8d" d="M29 8h2v1h-2zM29 9h2v1h-2z" /><path fill="#114a89" d="M31 8h1v1h-1z" /><path fill="#104785" d="M32 8h1v1h-1zM33 10h1v1h-1z" /><path fill="#104580" d="M33 8h1v1h-1z" /><path fill="#0f427e" d="M35 8h2v1h-2z" /><path fill="#114373" d="M38 8h1v1h-1z" /><path fill="#3bc9f2" d="M39 8h1v1h-1z" /><path fill="#3ac5f1" d="M71 8h1v1h-1z" /><path fill="#104b8d" d="M28 9h1v1h-1zM31 10h1v1h-1zM32 12h1v1h-1zM33 14h1v1h-1z" /><path fill="#104887" d="M32 9h1v1h-1z" /><path fill="#0f4078" d="M37 9h1v1h-1z" /><path fill="#2fa3cd" d="M39 9h1v1h-1z" /><path fill="#3ac5f2" d="M70 9h2v1h-2zM68 10h4v1h-4zM65 11h5v1h-5zM62 12h5v1h-5zM60 13h5v1h-5zM57 14h5v1h-5zM54 15h5v1h-5zM52 16h5v1h-5zM49 17h5v1h-5zM46 18h5v1h-5zM44 19h5v1h-5zM44 20h2v1h-2z" /><path fill="#0f4b8e" d="M27 10h1v1h-1z" /><path fill="#104c8e" d="M28 10h2v1h-2zM28 11h4v1h-4zM30 12h2v1h-2zM33 15h1v1h-1zM34 17h1v1h-1z" /><path fill="#104c8d" d="M30 10h1v1h-1zM35 19h1v1h-1z" /><path fill="#114989" d="M32 10h1v1h-1z" /><path fill="#0f4480" d="M34 10h1v1h-1z" /><path fill="#0f427b" d="M37 10h1v1h-1z" /><path fill="#0e3d72" d="M38 10h1v1h-1z" /><path fill="#1f709d" d="M39 10h1v1h-1z" /><path fill="#3ac4f1" d="M72 10h1v1h-1zM71 11h1v1h-1zM69 12h1v1h-1zM66 13h2v1h-2zM63 14h2v1h-2zM61 15h1v1h-1zM58 16h2v1h-2zM55 17h2v1h-2zM53 18h1v1h-1zM50 19h2v1h-2zM47 20h2v1h-2zM45 21h1v1h-1z" /><path fill="#0f4c8d" d="M27 11h1v1h-1z" /><path fill="#104b8c" d="M32 11h1v1h-1zM34 16h1v1h-1z" /><path fill="#0f4886" d="M33 11h1v1h-1zM34 13h1v1h-1zM36 18h1v1h-1zM37 20h1v1h-1z" /><path fill="#0f4581" d="M34 11h1v1h-1zM35 13h1v1h-1z" /><path fill="#0e3f76" d="M38 11h1v1h-1z" /><path fill="#104373" d="M39 11h1v1h-1z" /><path fill="#3bc8f1" d="M40 11h1v1h-1z" /><path fill="#3ac4f2" d="M70 11h1v1h-1zM67 12h2v1h-2zM65 13h1v1h-1zM62 14h1v1h-1zM59 15h2v1h-2zM57 16h1v1h-1zM54 17h1v1h-1zM51 18h2v1h-2zM49 19h1v1h-1zM46 20h1v1h-1zM44 21h1v1h-1z" /><path fill="#39c4f0" d="M72 11h1v1h-1z" /><path fill="#104c8f" d="M27 12h3v1h-3zM30 13h3v1h-3z" /><path fill="#0f4988" d="M33 12h1v1h-1zM36 19h1v1h-1zM37 21h1v1h-1z" /><path fill="#0f4784" d="M34 12h1v1h-1zM37 19h1v1h-1z" /><path fill="#0e4480" d="M35 12h1v1h-1zM36 13h2v1h-2zM36 14h3v1h-3zM36 15h3v1h-3z" /><path fill="#0e447f" d="M36 12h1v1h-1zM40 19h1v1h-1z" /><path fill="#0e437f" d="M37 12h1v1h-1z" /><path fill="#0f4079" d="M38 12h1v1h-1z" /><path fill="#0d3b70" d="M39 12h1v1h-1z" /><path fill="#2ea0cb" d="M40 12h1v1h-1z" /><path fill="#39c4f1" d="M70 12h2v1h-2zM68 13h1v1h-1zM65 14h2v1h-2zM62 15h2v1h-2zM60 16h1v1h-1zM57 17h2v1h-2zM54 18h2v1h-2zM52 19h1v1h-1zM49 20h2v1h-2zM46 21h2v1h-2zM44 22h1v1h-1z" /><path fill="#39c3f1" d="M72 12h1v1h-1zM69 13h4v1h-4zM67 14h4v1h-4zM64 15h5v1h-5zM61 16h5v1h-5zM59 17h4v1h-4zM56 18h5v1h-5zM53 19h5v1h-5zM51 20h4v1h-4zM48 21h5v1h-5zM45 22h5v1h-5zM45 23h3v1h-3z" /><path fill="#104d90" d="M26 13h1v1h-1zM27 14h3v1h-3zM27 15h6v1h-6zM25 16h1v1h-1zM30 16h4v1h-4zM33 17h1v1h-1zM35 20h1v1h-1z" /><path fill="#104d8f" d="M27 13h3v1h-3zM30 14h3v1h-3z" /><path fill="#104a8a" d="M33 13h1v1h-1z" /><path fill="#0e437d" d="M38 13h1v1h-1zM41 21h1v1h-1z" /><path fill="#0d3e73" d="M39 13h1v1h-1zM42 21h1v1h-1z" /><path fill="#1e6f9b" d="M40 13h1v1h-1z" /><path fill="#39c2f1" d="M73 13h1v1h-1zM71 14h2v1h-2zM69 15h5v1h-5zM66 16h5v1h-5zM63 17h5v1h-5zM61 18h5v1h-5zM58 19h5v1h-5zM55 20h5v1h-5zM53 21h5v1h-5zM50 22h5v1h-5zM48 23h4v1h-4zM45 24h5v1h-5zM45 25h2v1h-2z" /><path fill="#104c90" d="M26 14h1v1h-1z" /><path fill="#0f4888" d="M34 14h1v1h-1zM35 16h1v1h-1z" /><path fill="#0f4684" d="M35 14h1v1h-1z" /><path fill="#0d4077" d="M39 14h1v1h-1zM42 22h1v1h-1z" /><path fill="#0f4272" d="M40 14h1v1h-1z" /><path fill="#3ac5ef" d="M41 14h1v1h-1z" /><path fill="#39c2f0" d="M73 14h1v1h-1z" /><path fill="#104e91" d="M26 15h1v1h-1zM26 16h4v1h-4zM27 17h6v1h-6zM30 18h4v1h-4zM33 19h2v1h-2z" /><path fill="#0f4a89" d="M34 15h1v1h-1z" /><path fill="#0f4885" d="M35 15h1v1h-1z" /><path fill="#0e417a" d="M39 15h1v1h-1z" /><path fill="#0d3c70" d="M40 15h1v1h-1z" /><path fill="#2d9dc9" d="M41 15h1v1h-1z" /><path fill="#0f4682" d="M36 16h1v1h-1z" /><path fill="#0e4580" d="M37 16h2v1h-2zM39 17h1v1h-1zM41 22h1v1h-1z" /><path fill="#0e437e" d="M39 16h1v1h-1z" /><path fill="#0d3e75" d="M40 16h1v1h-1z" /><path fill="#1d6d9b" d="M41 16h1v1h-1z" /><path fill="#39c1f0" d="M71 16h2v1h-2zM68 17h3v1h-3zM66 18h2v1h-2zM63 19h2v1h-2zM60 20h3v1h-3zM58 21h2v1h-2zM55 22h2v1h-2zM52 23h3v1h-3zM50 24h2v1h-2zM47 25h2v1h-2zM46 26h1v1h-1z" /><path fill="#38c1f0" d="M73 16h1v1h-1zM71 17h2v1h-2zM68 18h2v1h-2zM65 19h3v1h-3zM63 20h2v1h-2zM60 21h2v1h-2zM57 22h3v1h-3zM55 23h2v1h-2zM52 24h2v1h-2zM49 25h3v1h-3zM47 26h2v1h-2z" /><path fill="#37c0f0" d="M74 16h1v1h-1z" /><path fill="#0f4e92" d="M25 17h1v1h-1zM26 18h2v1h-2zM29 19h2v1h-2zM32 20h2v1h-2z" /><path fill="#104e92" d="M26 17h1v1h-1zM28 18h2v1h-2zM31 19h2v1h-2zM34 20h1v1h-1z" /><path fill="#0f4989" d="M35 17h1v1h-1z" /><path fill="#0f4785" d="M36 17h1v1h-1z" /><path fill="#0e4581" d="M37 17h2v1h-2zM37 18h3v1h-3zM39 19h1v1h-1z" /><path fill="#0d4178" d="M40 17h1v1h-1z" /><path fill="#0f4274" d="M41 17h1v1h-1z" /><path fill="#39c3ee" d="M42 17h1v1h-1z" /><path fill="#38c0f0" d="M73 17h1v1h-1zM70 18h5v1h-5zM68 19h5v1h-5zM65 20h5v1h-5zM62 21h5v1h-5zM60 22h5v1h-5zM57 23h5v1h-5zM54 24h5v1h-5zM52 25h5v1h-5zM49 26h5v1h-5zM46 27h5v1h-5zM46 28h3v1h-3z" /><path fill="#37bff0" d="M74 17h1v1h-1z" /><path fill="#0f4f92" d="M25 18h1v1h-1zM26 19h3v1h-3zM29 20h3v1h-3zM32 21h3v1h-3zM35 22h1v1h-1zM36 24h1v1h-1zM37 26h1v1h-1z" /><path fill="#104e90" d="M34 18h1v1h-1z" /><path fill="#0f4b8c" d="M35 18h1v1h-1z" /><path fill="#0e427c" d="M40 18h1v1h-1z" /><path fill="#0d3d73" d="M41 18h1v1h-1z" /><path fill="#2b9ac7" d="M42 18h1v1h-1z" /><path fill="#0e4f92" d="M24 19h1v1h-1zM39 31h1v1h-1zM40 33h1v1h-1z" /><path fill="#0f4f93" d="M25 19h1v1h-1zM25 20h4v1h-4zM26 21h6v1h-6zM29 22h6v1h-6zM32 23h4v1h-4zM35 24h1v1h-1z" /><path fill="#0e4582" d="M38 19h1v1h-1z" /><path fill="#0d3f76" d="M41 19h1v1h-1z" /><path fill="#1c6a99" d="M42 19h1v1h-1z" /><path fill="#38bff0" d="M73 19h2v1h-2zM70 20h3v1h-3zM67 21h4v1h-4zM65 22h3v1h-3zM62 23h3v1h-3zM59 24h4v1h-4zM57 25h3v1h-3zM54 26h3v1h-3zM51 27h4v1h-4zM49 28h3v1h-3zM47 29h2v1h-2z" /><path fill="#38bef0" d="M75 19h1v1h-1z" /><path fill="#0f4e93" d="M24 20h1v1h-1z" /><path fill="#0f4a8a" d="M36 20h1v1h-1z" /><path fill="#0e4682" d="M38 20h3v1h-3zM39 21h2v1h-2z" /><path fill="#0d417a" d="M41 20h1v1h-1z" /><path fill="#0e4172" d="M42 20h1v1h-1z" /><path fill="#38c0ed" d="M43 20h1v1h-1z" /><path fill="#38bfef" d="M73 20h2v1h-2zM71 21h1v1h-1zM68 22h1v1h-1zM65 23h2v1h-2zM63 24h1v1h-1zM60 25h1v1h-1zM57 26h2v1h-2zM55 27h1v1h-1zM52 28h1v1h-1zM49 29h2v1h-2zM47 30h1v1h-1z" /><path fill="#37bdee" d="M75 20h1v1h-1z" /><path fill="#0f5094" d="M24 21h1v1h-1zM24 22h4v1h-4zM26 23h5v1h-5zM29 24h5v1h-5zM32 25h5v1h-5zM35 26h2v1h-2zM37 27h1v1h-1z" /><path fill="#0f4f94" d="M25 21h1v1h-1zM28 22h1v1h-1zM31 23h1v1h-1zM34 24h1v1h-1z" /><path fill="#0f4e91" d="M35 21h1v1h-1zM36 23h1v1h-1zM38 28h1v1h-1z" /><path fill="#0e4b8d" d="M36 21h1v1h-1z" /><path fill="#0e4683" d="M38 21h1v1h-1zM40 22h1v1h-1z" /><path fill="#2b98c6" d="M43 21h1v1h-1z" /><path fill="#38beef" d="M72 21h2v1h-2zM69 22h2v1h-2zM67 23h1v1h-1zM64 24h2v1h-2zM61 25h2v1h-2zM59 26h1v1h-1zM56 27h2v1h-2zM53 28h2v1h-2zM51 29h1v1h-1zM48 30h2v1h-2z" /><path fill="#37beef" d="M74 21h2v1h-2zM71 22h3v1h-3zM68 23h3v1h-3zM66 24h3v1h-3zM63 25h3v1h-3zM60 26h3v1h-3zM58 27h3v1h-3zM55 28h3v1h-3zM52 29h3v1h-3zM50 30h3v1h-3zM47 31h3v1h-3z" /><path fill="#0e5093" d="M23 22h1v1h-1zM40 34h1v1h-1z" /><path fill="#0f4d8e" d="M36 22h1v1h-1z" /><path fill="#0e4a89" d="M37 22h1v1h-1zM38 24h1v1h-1zM40 29h1v1h-1zM41 31h1v1h-1z" /><path fill="#0e4785" d="M38 22h1v1h-1zM39 24h1v1h-1z" /><path fill="#0d4683" d="M39 22h1v1h-1zM41 23h1v1h-1z" /><path fill="#1b6897" d="M43 22h1v1h-1z" /><path fill="#37bdef" d="M74 22h2v1h-2zM71 23h5v1h-5zM69 24h5v1h-5zM66 25h5v1h-5zM63 26h5v1h-5zM61 27h5v1h-5zM58 28h5v1h-5zM55 29h5v1h-5zM53 30h5v1h-5zM50 31h5v1h-5zM48 32h4v1h-4zM48 33h2v1h-2z" /><path fill="#37bcef" d="M76 22h1v1h-1zM76 23h1v1h-1zM74 24h2v1h-2zM71 25h2v1h-2zM68 26h2v1h-2zM66 27h2v1h-2zM63 28h2v1h-2zM60 29h2v1h-2zM58 30h2v1h-2zM55 31h2v1h-2zM52 32h2v1h-2zM50 33h2v1h-2zM48 34h1v1h-1z" /><path fill="#0e4f94" d="M23 23h1v1h-1z" /><path fill="#0f5095" d="M24 23h2v1h-2zM24 24h5v1h-5zM22 25h1v1h-1zM27 25h5v1h-5zM30 26h5v1h-5zM33 27h4v1h-4zM36 28h2v1h-2z" /><path fill="#0e4b8c" d="M37 23h1v1h-1z" /><path fill="#0e4987" d="M38 23h1v1h-1z" /><path fill="#0d4783" d="M39 23h2v1h-2zM41 24h1v1h-1zM43 28h1v1h-1z" /><path fill="#0d427b" d="M42 23h1v1h-1z" /><path fill="#0d4074" d="M43 23h1v1h-1z" /><path fill="#37bdeb" d="M44 23h1v1h-1z" /><path fill="#0f5195" d="M23 24h1v1h-1zM26 25h1v1h-1zM29 26h1v1h-1zM32 27h1v1h-1zM35 28h1v1h-1zM38 30h1v1h-1z" /><path fill="#0e4c8e" d="M37 24h1v1h-1zM39 29h1v1h-1z" /><path fill="#0d4784" d="M40 24h1v1h-1zM40 25h2v1h-2zM41 26h2v1h-2z" /><path fill="#0d447e" d="M42 24h1v1h-1zM45 32h1v1h-1z" /><path fill="#0c3f75" d="M43 24h1v1h-1z" /><path fill="#2996c4" d="M44 24h1v1h-1z" /><path fill="#37bcee" d="M76 24h1v1h-1zM73 25h3v1h-3zM70 26h3v1h-3zM68 27h2v1h-2zM65 28h3v1h-3zM62 29h3v1h-3zM60 30h2v1h-2zM57 31h3v1h-3zM54 32h3v1h-3zM52 33h2v1h-2zM49 34h3v1h-3z" /><path fill="#0f5196" d="M23 25h3v1h-3zM25 26h4v1h-4zM28 27h4v1h-4zM31 28h4v1h-4zM34 29h4v1h-4zM37 30h1v1h-1z" /><path fill="#0f4d91" d="M37 25h1v1h-1z" /><path fill="#0e4b8b" d="M38 25h1v1h-1z" /><path fill="#0e4886" d="M39 25h1v1h-1z" /><path fill="#0d4682" d="M42 25h1v1h-1z" /><path fill="#0c4178" d="M43 25h1v1h-1z" /><path fill="#1a6797" d="M44 25h1v1h-1z" /><path fill="#37bbee" d="M76 25h1v1h-1zM73 26h1v1h-1zM70 27h1v1h-1zM68 28h1v1h-1zM65 29h1v1h-1zM62 30h1v1h-1zM60 31h1v1h-1zM57 32h1v1h-1zM54 33h1v1h-1zM52 34h1v1h-1zM49 35h1v1h-1z" /><path fill="#36baed" d="M77 25h1v1h-1z" /><path fill="#0d5197" d="M22 26h1v1h-1z" /><path fill="#0e5196" d="M23 26h2v1h-2zM26 27h2v1h-2zM29 28h2v1h-2zM32 29h2v1h-2zM35 30h2v1h-2zM37 31h2v1h-2zM40 35h1v1h-1z" /><path fill="#0e4c8d" d="M38 26h1v1h-1zM39 28h1v1h-1z" /><path fill="#0e4a88" d="M39 26h1v1h-1z" /><path fill="#0d4785" d="M40 26h1v1h-1z" /><path fill="#0d437c" d="M43 26h1v1h-1z" /><path fill="#0d4275" d="M44 26h1v1h-1z" /><path fill="#37bbea" d="M45 26h1v1h-1z" /><path fill="#36bbee" d="M74 26h3v1h-3zM71 27h4v1h-4zM69 28h4v1h-4zM66 29h4v1h-4zM63 30h4v1h-4zM61 31h4v1h-4zM58 32h4v1h-4zM55 33h4v1h-4zM53 34h4v1h-4zM50 35h4v1h-4zM49 36h2v1h-2z" /><path fill="#35baee" d="M77 26h1v1h-1z" /><path fill="#0e5297" d="M22 27h1v1h-1zM23 28h3v1h-3zM25 29h4v1h-4zM28 30h4v1h-4zM31 31h4v1h-4zM34 32h4v1h-4zM37 33h2v1h-2zM40 36h1v1h-1zM41 38h1v1h-1z" /><path fill="#0e5197" d="M23 27h3v1h-3zM26 28h3v1h-3zM29 29h3v1h-3zM32 30h3v1h-3zM35 31h2v1h-2zM38 32h1v1h-1z" /><path fill="#0e4d8f" d="M38 27h1v1h-1z" /><path fill="#0e4b8a" d="M39 27h1v1h-1z" /><path fill="#0e4885" d="M40 27h1v1h-1z" /><path fill="#0d4885" d="M41 27h2v1h-2zM41 28h2v1h-2z" /><path fill="#0d4480" d="M43 27h1v1h-1z" /><path fill="#0c3f76" d="M44 27h1v1h-1z" /><path fill="#2893c2" d="M45 27h1v1h-1z" /><path fill="#36baee" d="M75 27h3v1h-3zM73 28h4v1h-4zM70 29h5v1h-5zM67 30h5v1h-5zM65 31h4v1h-4zM62 32h5v1h-5zM59 33h5v1h-5zM57 34h4v1h-4zM54 35h5v1h-5zM51 36h5v1h-5zM49 37h4v1h-4zM50 38h1v1h-1z" /><path fill="#0d5298" d="M21 28h1v1h-1z" /><path fill="#0e5298" d="M22 28h1v1h-1zM22 29h3v1h-3zM23 30h5v1h-5zM26 31h5v1h-5zM29 32h5v1h-5zM32 33h5v1h-5zM35 34h5v1h-5zM37 35h3v1h-3z" /><path fill="#0e4988" d="M40 28h1v1h-1z" /><path fill="#0c427a" d="M44 28h1v1h-1z" /><path fill="#196495" d="M45 28h1v1h-1z" /><path fill="#36b9ee" d="M77 28h1v1h-1zM72 30h1v1h-1zM69 31h1v1h-1zM64 33h1v1h-1zM61 34h1v1h-1zM56 36h1v1h-1zM53 37h1v1h-1z" /><path fill="#35b8ec" d="M78 28h1v1h-1z" /><path fill="#0d5198" d="M21 29h1v1h-1z" /><path fill="#0f5093" d="M38 29h1v1h-1z" /><path fill="#0d4886" d="M41 29h3v1h-3zM42 30h2v1h-2z" /><path fill="#0d437d" d="M44 29h1v1h-1z" /><path fill="#0d4175" d="M45 29h1v1h-1z" /><path fill="#36b8e9" d="M46 29h1v1h-1z" /><path fill="#36b9ed" d="M75 29h4v1h-4zM73 30h4v1h-4zM70 31h4v1h-4zM67 32h4v1h-4zM65 33h4v1h-4zM62 34h4v1h-4zM59 35h4v1h-4zM57 36h4v1h-4zM54 37h4v1h-4zM51 38h4v1h-4zM50 39h3v1h-3z" /><path fill="#0e5399" d="M21 30h1v1h-1zM21 31h4v1h-4zM22 32h6v1h-6zM25 33h6v1h-6zM28 34h6v1h-6zM31 35h6v1h-6zM34 36h6v1h-6zM37 37h4v1h-4zM40 38h1v1h-1zM42 41h1v1h-1z" /><path fill="#0e5398" d="M22 30h1v1h-1zM25 31h1v1h-1zM28 32h1v1h-1zM31 33h1v1h-1zM34 34h1v1h-1z" /><path fill="#0e4e91" d="M39 30h1v1h-1z" /><path fill="#0e4c8c" d="M40 30h1v1h-1z" /><path fill="#0e4986" d="M41 30h1v1h-1z" /><path fill="#0d4581" d="M44 30h1v1h-1z" /><path fill="#0c4078" d="M45 30h1v1h-1z" /><path fill="#2790c0" d="M46 30h1v1h-1z" /><path fill="#35b8ed" d="M77 30h2v1h-2zM74 31h5v1h-5zM72 32h4v1h-4zM69 33h5v1h-5zM66 34h5v1h-5zM64 35h4v1h-4zM61 36h5v1h-5zM58 37h5v1h-5zM56 38h4v1h-4zM53 39h5v1h-5zM50 40h5v1h-5zM51 41h1v1h-1z" /><path fill="#0d5299" d="M20 31h1v1h-1zM20 32h1v1h-1z" /><path fill="#0e4d8e" d="M40 31h1v1h-1z" /><path fill="#0d4987" d="M42 31h2v1h-2zM42 32h3v1h-3zM43 33h2v1h-2z" /><path fill="#0d4884" d="M44 31h1v1h-1z" /><path fill="#0c427b" d="M45 31h1v1h-1z" /><path fill="#1a6495" d="M46 31h1v1h-1z" /><path fill="#34b7ed" d="M79 31h1v1h-1z" /><path fill="#0e539a" d="M21 32h1v1h-1zM22 33h3v1h-3zM25 34h3v1h-3zM28 35h3v1h-3zM31 36h3v1h-3zM34 37h3v1h-3zM37 38h3v1h-3zM40 39h2v1h-2z" /><path fill="#0e5095" d="M39 32h1v1h-1zM42 39h1v1h-1z" /><path fill="#0d4e90" d="M40 32h1v1h-1z" /><path fill="#0d4b8a" d="M41 32h1v1h-1zM42 34h1v1h-1zM44 39h1v1h-1zM45 40h1v1h-1zM45 41h3v1h-3zM46 42h2v1h-2z" /><path fill="#0d4177" d="M46 32h1v1h-1z" /><path fill="#35b6e7" d="M47 32h1v1h-1z" /><path fill="#36b8ed" d="M71 32h1v1h-1zM63 35h1v1h-1zM55 38h1v1h-1z" /><path fill="#35b7ed" d="M76 32h4v1h-4zM74 33h4v1h-4zM71 34h4v1h-4zM68 35h4v1h-4zM66 36h4v1h-4zM63 37h4v1h-4zM60 38h4v1h-4zM58 39h4v1h-4zM55 40h4v1h-4zM52 41h4v1h-4zM51 42h3v1h-3z" /><path fill="#0e549a" d="M20 33h2v1h-2zM22 34h3v1h-3zM25 35h3v1h-3zM28 36h3v1h-3zM31 37h3v1h-3zM34 38h3v1h-3zM37 39h3v1h-3zM40 40h2v1h-2z" /><path fill="#0e5296" d="M39 33h1v1h-1zM42 40h1v1h-1z" /><path fill="#0d4c8d" d="M41 33h1v1h-1zM42 35h1v1h-1zM44 40h1v1h-1z" /><path fill="#0d4988" d="M42 33h1v1h-1zM44 34h1v1h-1z" /><path fill="#0c4682" d="M45 33h1v1h-1zM48 41h1v1h-1z" /><path fill="#0c4179" d="M46 33h1v1h-1z" /><path fill="#278ebf" d="M47 33h1v1h-1z" /><path fill="#35b6ec" d="M78 33h2v1h-2zM76 34h4v1h-4zM73 35h4v1h-4zM70 36h5v1h-5zM68 37h4v1h-4zM65 38h4v1h-4zM62 39h5v1h-5zM60 40h4v1h-4zM57 41h4v1h-4zM54 42h5v1h-5zM52 43h4v1h-4zM52 44h1v1h-1z" /><path fill="#0d549a" d="M19 34h1v1h-1zM43 44h1v1h-1z" /><path fill="#0d549b" d="M20 34h1v1h-1zM20 35h4v1h-4zM22 36h5v1h-5zM25 37h5v1h-5zM28 38h5v1h-5zM31 39h5v1h-5zM34 40h5v1h-5zM36 41h6v1h-6zM39 42h4v1h-4zM42 43h1v1h-1zM44 47h1v1h-1zM45 49h1v1h-1z" /><path fill="#0e549b" d="M21 34h1v1h-1zM24 35h1v1h-1zM27 36h1v1h-1zM30 37h1v1h-1zM33 38h1v1h-1zM36 39h1v1h-1zM39 40h1v1h-1z" /><path fill="#0d4d8f" d="M41 34h1v1h-1zM43 39h1v1h-1z" /><path fill="#0d4a88" d="M43 34h1v1h-1zM43 35h3v1h-3z" /><path fill="#0c4886" d="M45 34h1v1h-1z" /><path fill="#0c437c" d="M46 34h1v1h-1z" /><path fill="#186193" d="M47 34h1v1h-1z" /><path fill="#35b7ec" d="M75 34h1v1h-1zM72 35h1v1h-1zM67 37h1v1h-1zM64 38h1v1h-1zM59 40h1v1h-1zM56 41h1v1h-1zM51 43h1v1h-1z" /><path fill="#33b5eb" d="M80 34h1v1h-1z" /><path fill="#0d539b" d="M19 35h1v1h-1z" /><path fill="#0d4e91" d="M41 35h1v1h-1zM42 37h1v1h-1z" /><path fill="#0c4580" d="M46 35h1v1h-1z" /><path fill="#0c4176" d="M47 35h1v1h-1z" /><path fill="#34b3e5" d="M48 35h1v1h-1z" /><path fill="#34b6ec" d="M77 35h1v1h-1zM72 37h1v1h-1zM69 38h1v1h-1zM64 40h1v1h-1zM61 41h1v1h-1zM56 43h1v1h-1zM53 44h1v1h-1z" /><path fill="#34b5ec" d="M78 35h2v1h-2zM75 36h5v1h-5zM73 37h4v1h-4zM70 38h5v1h-5zM67 39h5v1h-5zM65 40h4v1h-4zM62 41h5v1h-5zM59 42h5v1h-5zM57 43h4v1h-4zM51 44h1v1h-1zM54 44h5v1h-5zM52 45h4v1h-4zM52 46h1v1h-1z" /><path fill="#33b4ec" d="M80 35h1v1h-1z" /><path fill="#0d559c" d="M19 36h2v1h-2zM18 37h6v1h-6zM22 38h5v1h-5zM24 39h6v1h-6zM27 40h6v1h-6zM30 41h6v1h-6zM33 42h6v1h-6zM36 43h6v1h-6zM39 44h4v1h-4zM42 45h2v1h-2zM45 50h1v1h-1z" /><path fill="#0d549c" d="M21 36h1v1h-1zM24 37h1v1h-1zM18 38h1v1h-1zM27 38h1v1h-1zM30 39h1v1h-1zM33 40h1v1h-1z" /><path fill="#0e4f93" d="M41 36h1v1h-1z" /><path fill="#0d4d8e" d="M42 36h1v1h-1zM43 38h1v1h-1z" /><path fill="#0d4a89" d="M43 36h3v1h-3zM44 37h2v1h-2zM46 38h1v1h-1z" /><path fill="#0c4783" d="M46 36h1v1h-1z" /><path fill="#0b4279" d="M47 36h1v1h-1z" /><path fill="#268abc" d="M48 36h1v1h-1z" /><path fill="#34b4ec" d="M80 36h1v1h-1zM77 37h3v1h-3zM75 38h2v1h-2zM72 39h3v1h-3zM69 40h3v1h-3zM67 41h2v1h-2zM64 42h3v1h-3zM61 43h3v1h-3zM59 44h2v1h-2zM51 45h1v1h-1zM56 45h3v1h-3zM53 46h3v1h-3zM52 47h1v1h-1z" /><path fill="#0e5195" d="M41 37h1v1h-1z" /><path fill="#0d4b8b" d="M43 37h1v1h-1z" /><path fill="#0c4987" d="M46 37h1v1h-1z" /><path fill="#0c447e" d="M47 37h1v1h-1z" /><path fill="#176093" d="M48 37h1v1h-1z" /><path fill="#34b4eb" d="M80 37h1v1h-1zM77 38h2v1h-2zM75 39h2v1h-2zM72 40h2v1h-2zM69 41h2v1h-2zM67 42h2v1h-2zM64 43h2v1h-2zM61 44h2v1h-2zM59 45h2v1h-2zM56 46h2v1h-2zM53 47h2v1h-2z" /><path fill="#34b3ea" d="M81 37h1v1h-1z" /><path fill="#0d559d" d="M19 38h3v1h-3zM20 39h4v1h-4zM23 40h4v1h-4zM26 41h4v1h-4zM29 42h4v1h-4zM32 43h4v1h-4zM35 44h4v1h-4zM38 45h4v1h-4zM41 46h3v1h-3z" /><path fill="#0d4f92" d="M42 38h1v1h-1z" /><path fill="#0d4b89" d="M44 38h2v1h-2zM45 39h2v1h-2zM46 40h1v1h-1z" /><path fill="#0c4581" d="M47 38h1v1h-1z" /><path fill="#0c4278" d="M48 38h1v1h-1z" /><path fill="#33b1e4" d="M49 38h1v1h-1z" /><path fill="#34b3eb" d="M79 38h2v1h-2zM77 39h3v1h-3zM74 40h4v1h-4zM71 41h4v1h-4zM69 42h3v1h-3zM66 43h4v1h-4zM63 44h4v1h-4zM61 45h3v1h-3zM58 46h4v1h-4zM55 47h4v1h-4zM53 48h3v1h-3zM53 49h1v1h-1z" /><path fill="#34b2eb" d="M81 38h1v1h-1z" /><path fill="#0d569d" d="M18 39h2v1h-2zM21 40h2v1h-2zM24 41h2v1h-2zM27 42h2v1h-2zM30 43h2v1h-2zM33 44h2v1h-2zM36 45h2v1h-2zM39 46h2v1h-2zM42 47h2v1h-2z" /><path fill="#0c4885" d="M47 39h1v1h-1z" /><path fill="#0b437b" d="M48 39h1v1h-1z" /><path fill="#2588bb" d="M49 39h1v1h-1z" /><path fill="#33b3eb" d="M80 39h2v1h-2zM78 40h1v1h-1zM75 41h1v1h-1zM72 42h2v1h-2zM70 43h1v1h-1zM67 44h1v1h-1zM64 45h2v1h-2zM62 46h1v1h-1zM59 47h1v1h-1zM56 48h2v1h-2zM54 49h1v1h-1z" /><path fill="#0c559e" d="M17 40h1v1h-1z" /><path fill="#0d569e" d="M18 40h3v1h-3zM18 41h6v1h-6zM21 42h6v1h-6zM24 43h6v1h-6zM27 44h6v1h-6zM30 45h6v1h-6zM33 46h6v1h-6zM36 47h6v1h-6zM39 48h6v1h-6zM42 49h3v1h-3z" /><path fill="#0d4e92" d="M43 40h1v1h-1z" /><path fill="#0c4a88" d="M47 40h1v1h-1z" /><path fill="#0c457f" d="M48 40h1v1h-1z" /><path fill="#165f92" d="M49 40h1v1h-1z" /><path fill="#33b2eb" d="M79 40h4v1h-4zM76 41h5v1h-5zM74 42h4v1h-4zM71 43h5v1h-5zM68 44h5v1h-5zM66 45h4v1h-4zM63 46h5v1h-5zM60 47h5v1h-5zM58 48h4v1h-4zM55 49h5v1h-5zM54 50h3v1h-3zM53 51h1v1h-1z" /><path fill="#0d569f" d="M17 41h1v1h-1zM20 42h1v1h-1zM23 43h1v1h-1zM25 44h2v1h-2zM28 45h2v1h-2zM31 46h2v1h-2zM34 47h2v1h-2zM37 48h2v1h-2zM40 49h2v1h-2zM43 50h2v1h-2z" /><path fill="#0d5093" d="M43 41h1v1h-1z" /><path fill="#0d4e8f" d="M44 41h1v1h-1z" /><path fill="#0b4178" d="M49 41h1v1h-1z" /><path fill="#35b7eb" d="M50 41h1v1h-1z" /><path fill="#33b1eb" d="M81 41h1v1h-1zM78 42h2v1h-2zM76 43h1v1h-1zM73 44h1v1h-1zM70 45h2v1h-2zM68 46h1v1h-1zM65 47h1v1h-1zM62 48h2v1h-2zM60 49h1v1h-1zM57 50h1v1h-1zM54 51h2v1h-2z" /><path fill="#33b1e9" d="M82 41h1v1h-1z" /><path fill="#0c579f" d="M17 42h1v1h-1zM18 43h3v1h-3zM16 44h1v1h-1zM21 44h3v1h-3zM24 45h3v1h-3zM27 46h3v1h-3zM30 47h3v1h-3zM33 48h3v1h-3zM36 49h2v1h-2zM39 50h2v1h-2zM42 51h2v1h-2zM45 52h1v1h-1z" /><path fill="#0d579f" d="M18 42h2v1h-2zM21 43h2v1h-2zM24 44h1v1h-1zM27 45h1v1h-1zM30 46h1v1h-1zM33 47h1v1h-1zM36 48h1v1h-1zM38 49h2v1h-2zM41 50h2v1h-2zM44 51h2v1h-2z" /><path fill="#0d5196" d="M43 42h1v1h-1z" /><path fill="#0c4f91" d="M44 42h1v1h-1zM46 47h1v1h-1z" /><path fill="#0d4c8c" d="M45 42h1v1h-1z" /><path fill="#0c4986" d="M48 42h1v1h-1z" /><path fill="#0a437d" d="M49 42h1v1h-1z" /><path fill="#34b7ec" d="M50 42h1v1h-1z" /><path fill="#33b1ea" d="M80 42h3v1h-3zM77 43h4v1h-4zM74 44h4v1h-4zM72 45h3v1h-3zM69 46h4v1h-4zM66 47h4v1h-4zM64 48h3v1h-3zM61 49h4v1h-4zM53 50h1v1h-1zM58 50h4v1h-4zM56 51h3v1h-3zM54 52h3v1h-3z" /><path fill="#0c569f" d="M16 43h1v1h-1zM45 53h1v1h-1zM45 54h1v1h-1z" /><path fill="#0c57a0" d="M17 43h1v1h-1zM17 44h4v1h-4zM19 45h5v1h-5zM22 46h5v1h-5zM25 47h5v1h-5zM28 48h5v1h-5zM31 49h5v1h-5zM34 50h5v1h-5zM37 51h5v1h-5zM39 52h6v1h-6zM42 53h3v1h-3z" /><path fill="#0d5297" d="M43 43h1v1h-1zM44 45h1v1h-1zM46 50h1v1h-1z" /><path fill="#0c4f92" d="M44 43h1v1h-1z" /><path fill="#0c4d8e" d="M45 43h1v1h-1z" /><path fill="#0c4b8b" d="M46 43h2v1h-2zM46 44h2v1h-2z" /><path fill="#0c4b8a" d="M48 43h1v1h-1z" /><path fill="#33b0ea" d="M81 43h2v1h-2zM78 44h3v1h-3zM75 45h3v1h-3zM73 46h2v1h-2zM70 47h3v1h-3zM67 48h3v1h-3zM65 49h2v1h-2zM62 50h3v1h-3zM59 51h3v1h-3zM57 52h2v1h-2zM54 53h3v1h-3z" /><path fill="#32b0e9" d="M83 43h1v1h-1z" /><path fill="#0c5195" d="M44 44h1v1h-1z" /><path fill="#0c4e8f" d="M45 44h1v1h-1zM46 46h1v1h-1z" /><path fill="#0b4b8b" d="M48 44h1v1h-1z" /><path fill="#32b0ea" d="M81 44h2v1h-2zM78 45h2v1h-2zM75 46h2v1h-2zM73 47h2v1h-2zM70 48h2v1h-2zM67 49h2v1h-2zM65 50h2v1h-2zM62 51h2v1h-2zM59 52h2v1h-2zM57 53h2v1h-2zM55 54h1v1h-1z" /><path fill="#31afe9" d="M83 44h1v1h-1z" /><path fill="#0c58a1" d="M16 45h2v1h-2zM15 46h6v1h-6zM15 47h1v1h-1zM18 47h6v1h-6zM21 48h6v1h-6zM24 49h6v1h-6zM26 50h7v1h-7zM29 51h7v1h-7zM32 52h6v1h-6zM35 53h6v1h-6zM38 54h6v1h-6zM41 55h4v1h-4zM44 56h1v1h-1z" /><path fill="#0c58a0" d="M18 45h1v1h-1zM21 46h1v1h-1zM24 47h1v1h-1zM27 48h1v1h-1zM30 49h1v1h-1zM33 50h1v1h-1zM36 51h1v1h-1zM38 52h1v1h-1zM41 53h1v1h-1zM44 54h1v1h-1z" /><path fill="#0c5092" d="M45 45h1v1h-1z" /><path fill="#0c4d8d" d="M46 45h1v1h-1z" /><path fill="#0c4c8c" d="M47 45h1v1h-1zM47 46h1v1h-1z" /><path fill="#0b4a8a" d="M48 45h1v1h-1z" /><path fill="#32afea" d="M80 45h4v1h-4zM77 46h5v1h-5zM75 47h4v1h-4zM72 48h5v1h-5zM69 49h5v1h-5zM67 50h4v1h-4zM64 51h5v1h-5zM61 52h5v1h-5zM59 53h4v1h-4zM56 54h5v1h-5zM55 55h3v1h-3z" /><path fill="#0d539a" d="M44 46h1v1h-1z" /><path fill="#0c5194" d="M45 46h1v1h-1z" /><path fill="#32aee9" d="M82 46h2v1h-2zM79 47h5v1h-5zM77 48h5v1h-5zM74 49h5v1h-5zM71 50h5v1h-5zM69 51h5v1h-5zM66 52h5v1h-5zM63 53h5v1h-5zM61 54h5v1h-5zM58 55h5v1h-5zM56 56h4v1h-4zM56 57h2v1h-2z" /><path fill="#31ade8" d="M84 46h1v1h-1zM55 57h1v1h-1z" /><path fill="#0c58a2" d="M16 47h2v1h-2zM18 48h3v1h-3zM21 49h3v1h-3zM24 50h2v1h-2zM27 51h2v1h-2zM30 52h2v1h-2zM33 53h2v1h-2zM36 54h2v1h-2zM39 55h2v1h-2zM42 56h2v1h-2z" /><path fill="#0c5196" d="M45 47h1v1h-1z" /><path fill="#0c4c8d" d="M47 47h1v1h-1z" /><path fill="#31ace8" d="M84 47h1v1h-1zM84 50h1v1h-1zM82 51h1v1h-1zM79 52h2v1h-2zM76 53h2v1h-2zM74 54h1v1h-1zM71 55h2v1h-2zM69 56h1v1h-1zM66 57h1v1h-1zM63 58h2v1h-2zM61 59h1v1h-1zM58 60h1v1h-1z" /><path fill="#0c59a2" d="M15 48h3v1h-3zM14 49h1v1h-1zM17 49h4v1h-4zM14 50h1v1h-1zM20 50h4v1h-4zM23 51h4v1h-4zM26 52h4v1h-4zM29 53h4v1h-4zM32 54h4v1h-4zM35 55h4v1h-4zM38 56h4v1h-4zM41 57h3v1h-3z" /><path fill="#0d5398" d="M45 48h1v1h-1z" /><path fill="#0c5193" d="M46 48h1v1h-1z" /><path fill="#0b4c8f" d="M47 48h1v1h-1z" /><path fill="#34b4ea" d="M52 48h1v1h-1z" /><path fill="#32ade9" d="M82 48h2v1h-2zM79 49h2v1h-2zM76 50h2v1h-2zM74 51h2v1h-2zM71 52h2v1h-2zM68 53h2v1h-2zM66 54h2v1h-2zM63 55h2v1h-2zM55 56h1v1h-1zM60 56h2v1h-2zM58 57h2v1h-2zM56 58h1v1h-1z" /><path fill="#31ade9" d="M84 48h1v1h-1zM81 49h3v1h-3zM78 50h3v1h-3zM76 51h2v1h-2zM73 52h3v1h-3zM70 53h3v1h-3zM68 54h2v1h-2zM65 55h3v1h-3zM62 56h3v1h-3zM60 57h2v1h-2zM57 58h3v1h-3z" /><path fill="#0c59a3" d="M15 49h2v1h-2zM15 50h5v1h-5zM17 51h6v1h-6zM20 52h6v1h-6zM23 53h6v1h-6zM26 54h6v1h-6zM29 55h6v1h-6zM32 56h6v1h-6zM35 57h6v1h-6zM38 58h6v1h-6zM41 59h2v1h-2z" /><path fill="#0c5296" d="M46 49h1v1h-1z" /><path fill="#31ace9" d="M84 49h1v1h-1zM81 50h3v1h-3zM78 51h4v1h-4zM76 52h3v1h-3zM73 53h3v1h-3zM70 54h4v1h-4zM68 55h3v1h-3zM65 56h4v1h-4zM62 57h4v1h-4zM60 58h3v1h-3zM57 59h4v1h-4zM57 60h1v1h-1z" /><path fill="#30ace9" d="M85 49h1v1h-1z" /><path fill="#30ace7" d="M85 50h1v1h-1z" /><path fill="#0b5aa4" d="M14 51h3v1h-3zM14 52h6v1h-6zM13 53h1v1h-1zM17 53h6v1h-6zM20 54h6v1h-6zM23 55h6v1h-6zM26 56h6v1h-6zM29 57h6v1h-6zM32 58h6v1h-6zM35 59h6v1h-6zM38 60h6v1h-6zM41 61h2v1h-2zM42 63h1v1h-1z" /><path fill="#0c5399" d="M46 51h1v1h-1z" /><path fill="#31abe8" d="M83 51h3v1h-3zM81 52h4v1h-4zM78 53h5v1h-5zM75 54h5v1h-5zM73 55h4v1h-4zM70 56h5v1h-5zM67 57h5v1h-5zM65 58h4v1h-4zM62 59h5v1h-5zM56 60h1v1h-1zM59 60h5v1h-5zM57 61h4v1h-4zM58 62h1v1h-1z" /><path fill="#0a59a5" d="M13 52h1v1h-1z" /><path fill="#31aae8" d="M85 52h1v1h-1zM83 53h1v1h-1zM80 54h1v1h-1zM77 55h2v1h-2zM75 56h1v1h-1zM72 57h1v1h-1zM69 58h2v1h-2zM67 59h1v1h-1zM64 60h1v1h-1zM61 61h2v1h-2zM59 62h1v1h-1z" /><path fill="#31a9e8" d="M86 52h1v1h-1z" /><path fill="#0b5aa5" d="M14 53h3v1h-3zM16 54h4v1h-4zM19 55h4v1h-4zM22 56h4v1h-4zM25 57h4v1h-4zM28 58h4v1h-4zM31 59h4v1h-4zM34 60h4v1h-4zM37 61h4v1h-4zM40 62h2v1h-2z" /><path fill="#30aae8" d="M84 53h2v1h-2zM81 54h4v1h-4zM79 55h3v1h-3zM76 56h3v1h-3zM73 57h4v1h-4zM71 58h3v1h-3zM68 59h3v1h-3zM65 60h4v1h-4zM63 61h3v1h-3zM60 62h3v1h-3zM58 63h3v1h-3z" /><path fill="#30aae7" d="M86 53h1v1h-1zM57 63h1v1h-1z" /><path fill="#0b5ba6" d="M13 54h1v1h-1zM13 55h4v1h-4zM14 56h6v1h-6zM17 57h6v1h-6zM20 58h6v1h-6zM23 59h6v1h-6zM25 60h7v1h-7zM28 61h7v1h-7zM31 62h6v1h-6zM34 63h6v1h-6z" /><path fill="#0b5ba5" d="M14 54h2v1h-2zM17 55h2v1h-2zM20 56h2v1h-2zM23 57h2v1h-2zM26 58h2v1h-2zM29 59h2v1h-2zM32 60h2v1h-2zM35 61h2v1h-2zM37 62h3v1h-3zM40 63h2v1h-2z" /><path fill="#32afe9" d="M54 54h1v1h-1z" /><path fill="#30a9e8" d="M85 54h2v1h-2zM82 55h2v1h-2zM79 56h3v1h-3zM77 57h2v1h-2zM74 58h2v1h-2zM71 59h3v1h-3zM69 60h2v1h-2zM66 61h2v1h-2zM63 62h3v1h-3zM61 63h2v1h-2zM58 64h2v1h-2z" /><path fill="#0a5aa5" d="M12 55h1v1h-1z" /><path fill="#30a9e7" d="M84 55h3v1h-3zM82 56h2v1h-2zM79 57h3v1h-3zM76 58h3v1h-3zM74 59h2v1h-2zM71 60h3v1h-3zM68 61h3v1h-3zM66 62h2v1h-2zM63 63h3v1h-3zM60 64h3v1h-3zM59 65h1v1h-1z" /><path fill="#30a8e7" d="M87 55h1v1h-1zM84 56h3v1h-3zM82 57h4v1h-4zM79 58h5v1h-5zM76 59h5v1h-5zM74 60h4v1h-4zM71 61h5v1h-5zM68 62h5v1h-5zM66 63h4v1h-4zM63 64h5v1h-5zM60 65h5v1h-5zM59 66h3v1h-3zM59 67h1v1h-1z" /><path fill="#0b5ba7" d="M12 56h2v1h-2zM16 57h1v1h-1zM19 58h1v1h-1zM22 59h1v1h-1zM24 60h1v1h-1zM27 61h1v1h-1zM30 62h1v1h-1zM33 63h1v1h-1z" /><path fill="#30a7e6" d="M87 56h1v1h-1z" /><path fill="#0b5ca7" d="M12 57h4v1h-4zM13 58h6v1h-6zM16 59h6v1h-6zM19 60h5v1h-5zM22 61h5v1h-5zM25 62h5v1h-5zM28 63h5v1h-5z" /><path fill="#0b58a2" d="M44 57h1v1h-1z" /><path fill="#30a7e7" d="M86 57h1v1h-1zM81 59h1v1h-1zM78 60h1v1h-1zM73 62h1v1h-1zM70 63h1v1h-1zM65 65h1v1h-1zM62 66h1v1h-1z" /><path fill="#2fa7e7" d="M87 57h1v1h-1zM84 58h4v1h-4zM82 59h4v1h-4zM79 60h4v1h-4zM76 61h5v1h-5zM74 62h4v1h-4zM71 63h4v1h-4zM68 64h5v1h-5zM66 65h4v1h-4zM63 66h4v1h-4zM60 67h5v1h-5zM60 68h2v1h-2z" /><path fill="#0a5ba8" d="M11 58h1v1h-1z" /><path fill="#0b5ca8" d="M12 58h1v1h-1zM14 59h2v1h-2zM17 60h2v1h-2zM20 61h2v1h-2zM23 62h2v1h-2zM25 63h3v1h-3z" /><path fill="#2ea6e6" d="M88 58h1v1h-1z" /><path fill="#0a5da7" d="M11 59h1v1h-1z" /><path fill="#0a5ca8" d="M12 59h2v1h-2zM15 60h2v1h-2zM18 61h2v1h-2zM21 62h2v1h-2zM24 63h1v1h-1z" /><path fill="#0b58a3" d="M43 59h1v1h-1z" /><path fill="#30ade8" d="M56 59h1v1h-1z" /><path fill="#2fa6e7" d="M86 59h1v1h-1zM83 60h1v1h-1zM78 62h1v1h-1zM75 63h1v1h-1zM70 65h1v1h-1zM67 66h1v1h-1zM62 68h1v1h-1z" /><path fill="#2fa6e6" d="M87 59h1v1h-1zM84 60h4v1h-4zM81 61h4v1h-4zM79 62h4v1h-4zM76 63h4v1h-4zM73 64h4v1h-4zM71 65h4v1h-4zM68 66h4v1h-4zM65 67h4v1h-4zM63 68h4v1h-4zM60 69h4v1h-4zM60 70h1v1h-1z" /><path fill="#2fa5e5" d="M88 59h1v1h-1z" /><path fill="#0a5da9" d="M11 60h2v1h-2zM10 61h6v1h-6zM13 62h6v1h-6zM16 63h6v1h-6zM19 64h6v1h-6zM22 65h5v1h-5zM25 66h2v1h-2z" /><path fill="#0a5da8" d="M13 60h2v1h-2zM16 61h2v1h-2zM19 62h2v1h-2zM22 63h2v1h-2zM25 64h2v1h-2z" /><path fill="#2fa5e6" d="M88 60h1v1h-1zM85 61h4v1h-4zM83 62h4v1h-4zM80 63h5v1h-5zM77 64h5v1h-5zM75 65h4v1h-4zM72 66h5v1h-5zM69 67h5v1h-5zM67 68h4v1h-4zM64 69h5v1h-5zM61 70h5v1h-5zM61 71h2v1h-2z" /><path fill="#2fa4e5" d="M89 61h1v1h-1z" /><path fill="#0a5ea9" d="M10 62h1v1h-1z" /><path fill="#0a5daa" d="M11 62h2v1h-2zM14 63h2v1h-2zM17 64h2v1h-2zM20 65h2v1h-2zM23 66h2v1h-2zM26 67h1v1h-1z" /><path fill="#0a5aa4" d="M42 62h1v1h-1z" /><path fill="#31aae7" d="M57 62h1v1h-1z" /><path fill="#2ea4e6" d="M87 62h3v1h-3zM85 63h4v1h-4zM82 64h4v1h-4zM79 65h5v1h-5zM77 66h4v1h-4zM74 67h4v1h-4zM71 68h5v1h-5zM69 69h4v1h-4zM66 70h4v1h-4zM63 71h5v1h-5zM61 72h4v1h-4zM61 73h1v1h-1z" /><path fill="#0a5eaa" d="M10 63h4v1h-4zM9 64h1v1h-1zM13 64h4v1h-4zM16 65h4v1h-4zM19 66h4v1h-4zM22 67h4v1h-4zM25 68h3v1h-3zM28 69h1v1h-1z" /><path fill="#2ea4e5" d="M89 63h1v1h-1zM86 64h1v1h-1zM81 66h1v1h-1zM78 67h1v1h-1zM73 69h1v1h-1zM70 70h1v1h-1zM65 72h1v1h-1zM62 73h1v1h-1z" /><path fill="#0a5eab" d="M10 64h3v1h-3zM10 65h6v1h-6zM13 66h6v1h-6zM16 67h6v1h-6zM19 68h6v1h-6zM22 69h6v1h-6zM25 70h5v1h-5zM28 71h3v1h-3zM31 72h1v1h-1z" /><path fill="#095eab" d="M27 64h1v1h-1z" /><path fill="#046fc6" d="M28 64h1v1h-1z" /><path fill="#0176d0" d="M29 64h1v1h-1z" /><path fill="#0176d1" d="M30 64h12v1h-12zM32 71h1v1h-1z" /><path fill="#0077d3" d="M42 64h1v1h-1zM45 83h1v1h-1zM46 84h1v1h-1zM47 85h1v1h-1zM50 88h1v1h-1zM51 89h1v1h-1zM52 90h1v1h-1zM53 91h1v1h-1zM54 92h1v1h-1z" /><path fill="#0078d4" d="M43 64h7v1h-7zM28 65h22v1h-22zM28 66h23v1h-23zM28 67h23v1h-23zM30 68h21v1h-21zM31 69h21v1h-21zM32 70h20v1h-20zM33 71h19v1h-19zM34 72h19v1h-19zM35 73h18v1h-18zM36 74h17v1h-17zM37 75h17v1h-17zM38 76h16v1h-16zM38 77h16v1h-16zM40 78h15v1h-15zM41 79h14v1h-14zM42 80h13v1h-13zM44 81h12v1h-12zM45 82h11v1h-11zM46 83h10v1h-10zM47 84h10v1h-10zM48 85h9v1h-9zM49 86h8v1h-8zM49 87h9v1h-9zM51 88h7v1h-7zM52 89h6v1h-6zM53 90h6v1h-6zM54 91h5v1h-5zM55 92h4v1h-4zM55 93h5v1h-5zM57 94h3v1h-3zM59 95h2v1h-2zM60 96h1v1h-1z" /><path fill="#0075cf" d="M50 64h1v1h-1zM56 81h1v1h-1zM57 84h1v1h-1zM58 87h1v1h-1zM59 90h1v1h-1zM60 93h1v1h-1zM61 96h1v1h-1z" /><path fill="#0072c9" d="M51 64h1v1h-1zM52 67h1v1h-1z" /><path fill="#006dc2" d="M52 64h1v1h-1z" /><path fill="#006bbe" d="M53 64h3v1h-3z" /><path fill="#0064b1" d="M56 64h1v1h-1zM57 67h1v1h-1z" /><path fill="#0968ad" d="M57 64h1v1h-1z" /><path fill="#2ea3e5" d="M87 64h3v1h-3zM84 65h5v1h-5zM82 66h4v1h-4zM79 67h5v1h-5zM76 68h5v1h-5zM74 69h4v1h-4zM71 70h5v1h-5zM68 71h5v1h-5zM66 72h4v1h-4zM63 73h5v1h-5zM62 74h3v1h-3z" /><path fill="#2ea3e4" d="M90 64h1v1h-1z" /><path fill="#0a5fab" d="M9 65h1v1h-1zM24 70h1v1h-1zM27 71h1v1h-1zM30 72h1v1h-1z" /><path fill="#046dc2" d="M27 65h1v1h-1z" /><path fill="#0077d2" d="M50 65h1v1h-1zM51 68h1v1h-1zM30 69h1v1h-1zM52 71h1v1h-1zM58 88h1v1h-1zM59 91h1v1h-1zM60 94h1v1h-1z" /><path fill="#0073cc" d="M51 65h1v1h-1zM52 68h1v1h-1zM53 71h1v1h-1zM54 74h1v1h-1z" /><path fill="#0070c5" d="M52 65h1v1h-1zM53 68h1v1h-1zM54 71h1v1h-1zM55 74h1v1h-1z" /><path fill="#006cbe" d="M53 65h3v1h-3zM54 66h2v1h-2zM54 67h3v1h-3zM54 68h3v1h-3zM55 69h2v1h-2zM55 70h3v1h-3zM55 71h3v1h-3zM56 72h2v1h-2zM56 73h3v1h-3zM56 74h3v1h-3zM57 75h2v1h-2zM57 76h3v1h-3zM58 77h2v1h-2zM58 78h2v1h-2zM58 79h3v1h-3zM59 80h2v1h-2zM59 81h2v1h-2zM59 82h3v1h-3zM60 83h2v1h-2zM60 84h2v1h-2zM60 85h3v1h-3zM61 86h2v1h-2zM61 87h2v1h-2zM61 88h3v1h-3zM62 89h2v1h-2zM62 90h2v1h-2zM62 91h3v1h-3zM63 92h2v1h-2zM63 93h2v1h-2zM63 94h3v1h-3zM64 95h1v1h-1z" /><path fill="#0067b6" d="M56 65h1v1h-1zM57 68h1v1h-1zM58 71h1v1h-1zM59 74h1v1h-1z" /><path fill="#005fa7" d="M57 65h1v1h-1zM58 68h1v1h-1z" /><path fill="#289cda" d="M58 65h1v1h-1z" /><path fill="#2ea2e5" d="M89 65h2v1h-2zM86 66h4v1h-4zM84 67h4v1h-4zM81 68h4v1h-4zM78 69h4v1h-4zM76 70h4v1h-4zM73 71h4v1h-4zM70 72h4v1h-4zM68 73h4v1h-4zM65 74h4v1h-4zM62 75h4v1h-4zM63 76h1v1h-1z" /><path fill="#0a5fac" d="M9 66h4v1h-4zM10 67h6v1h-6zM13 68h6v1h-6zM16 69h6v1h-6zM19 70h5v1h-5zM22 71h5v1h-5zM25 72h5v1h-5zM28 73h5v1h-5zM31 74h3v1h-3zM34 75h1v1h-1z" /><path fill="#0371c7" d="M27 66h1v1h-1z" /><path fill="#0075ce" d="M51 66h1v1h-1zM52 69h1v1h-1zM53 72h1v1h-1zM54 75h1v1h-1zM55 78h1v1h-1z" /><path fill="#0071c8" d="M52 66h1v1h-1zM53 69h1v1h-1zM54 72h1v1h-1zM55 75h1v1h-1zM56 78h1v1h-1zM57 81h1v1h-1zM58 84h1v1h-1zM59 87h1v1h-1zM60 90h1v1h-1zM61 93h1v1h-1zM62 96h1v1h-1z" /><path fill="#006dc1" d="M53 66h1v1h-1zM54 69h1v1h-1zM55 72h1v1h-1zM56 75h1v1h-1zM57 78h1v1h-1zM58 81h1v1h-1z" /><path fill="#0069ba" d="M56 66h1v1h-1zM57 69h1v1h-1z" /><path fill="#0062ad" d="M57 66h1v1h-1zM58 69h1v1h-1zM59 72h1v1h-1z" /><path fill="#187fbf" d="M58 66h1v1h-1z" /><path fill="#2da2e5" d="M90 66h1v1h-1zM88 67h1v1h-1zM85 68h1v1h-1zM82 69h1v1h-1zM80 70h1v1h-1zM77 71h1v1h-1zM74 72h1v1h-1zM72 73h1v1h-1zM69 74h1v1h-1zM66 75h1v1h-1zM64 76h1v1h-1z" /><path fill="#085eac" d="M8 67h1v1h-1z" /><path fill="#095fad" d="M9 67h1v1h-1zM10 68h2v1h-2zM12 69h3v1h-3zM15 70h3v1h-3zM18 71h3v1h-3zM21 72h3v1h-3zM24 73h3v1h-3zM27 74h3v1h-3zM30 75h3v1h-3zM33 76h3v1h-3zM36 77h1v1h-1z" /><path fill="#0766b8" d="M27 67h1v1h-1zM2 88h2v1h-2zM4 89h3v1h-3zM7 90h3v1h-3zM10 91h3v1h-3zM13 92h3v1h-3zM16 93h3v1h-3zM19 94h3v1h-3zM22 95h3v1h-3zM25 96h3v1h-3z" /><path fill="#0076d1" d="M51 67h1v1h-1zM52 70h1v1h-1zM53 73h1v1h-1zM54 76h1v1h-1zM55 79h1v1h-1zM56 82h1v1h-1zM57 85h1v1h-1z" /><path fill="#006ec3" d="M53 67h1v1h-1z" /><path fill="#0866aa" d="M58 67h1v1h-1z" /><path fill="#2da1e5" d="M89 67h2v1h-2zM86 68h3v1h-3zM83 69h3v1h-3zM81 70h2v1h-2zM78 71h3v1h-3zM75 72h3v1h-3zM73 73h2v1h-2zM70 74h3v1h-3zM67 75h3v1h-3zM65 76h2v1h-2zM63 77h2v1h-2z" /><path fill="#2da1e3" d="M91 67h1v1h-1z" /><path fill="#0960ad" d="M8 68h2v1h-2zM9 69h3v1h-3zM12 70h3v1h-3zM15 71h3v1h-3zM18 72h3v1h-3zM21 73h3v1h-3zM24 74h3v1h-3zM27 75h3v1h-3zM30 76h3v1h-3zM33 77h3v1h-3zM36 78h1v1h-1z" /><path fill="#095fac" d="M12 68h1v1h-1zM15 69h1v1h-1zM18 70h1v1h-1zM21 71h1v1h-1zM24 72h1v1h-1zM27 73h1v1h-1zM30 74h1v1h-1zM33 75h1v1h-1z" /><path fill="#0668b9" d="M28 68h1v1h-1zM0 92h1v1h-1z" /><path fill="#0077d4" d="M29 68h1v1h-1zM40 79h1v1h-1zM44 82h1v1h-1zM59 96h1v1h-1z" /><path fill="#2799d9" d="M59 68h1v1h-1z" /><path fill="#2da1e4" d="M89 68h2v1h-2zM86 69h2v1h-2zM83 70h2v1h-2zM81 71h2v1h-2zM78 72h2v1h-2zM75 73h2v1h-2zM73 74h2v1h-2zM70 75h2v1h-2zM67 76h2v1h-2zM65 77h2v1h-2zM63 78h1v1h-1z" /><path fill="#2da0e4" d="M91 68h1v1h-1zM88 69h4v1h-4zM85 70h5v1h-5zM83 71h4v1h-4zM80 72h5v1h-5zM77 73h5v1h-5zM75 74h4v1h-4zM72 75h5v1h-5zM69 76h5v1h-5zM67 77h4v1h-4zM64 78h5v1h-5zM64 79h2v1h-2z" /><path fill="#0960ae" d="M8 69h1v1h-1zM8 70h4v1h-4zM9 71h6v1h-6zM12 72h6v1h-6zM15 73h6v1h-6zM18 74h6v1h-6zM21 75h6v1h-6zM24 76h6v1h-6zM27 77h6v1h-6zM30 78h6v1h-6zM33 79h4v1h-4z" /><path fill="#0766b7" d="M29 69h1v1h-1zM2 86h3v1h-3zM1 87h7v1h-7zM4 88h7v1h-7zM7 89h6v1h-6zM10 90h6v1h-6zM13 91h6v1h-6zM16 92h6v1h-6zM19 93h6v1h-6zM22 94h6v1h-6zM25 95h5v1h-5zM28 96h1v1h-1z" /><path fill="#177ebe" d="M59 69h1v1h-1z" /><path fill="#085fad" d="M7 70h1v1h-1zM36 80h1v1h-1z" /><path fill="#0765b5" d="M30 70h1v1h-1zM2 84h1v1h-1zM5 84h1v1h-1zM8 85h1v1h-1zM11 86h1v1h-1zM14 87h1v1h-1zM17 88h1v1h-1zM20 89h1v1h-1zM23 90h1v1h-1zM25 91h2v1h-2zM28 92h2v1h-2zM31 93h1v1h-1z" /><path fill="#0177d2" d="M31 70h1v1h-1z" /><path fill="#0072ca" d="M53 70h1v1h-1zM54 73h1v1h-1zM55 76h1v1h-1zM56 79h1v1h-1zM57 82h1v1h-1zM58 85h1v1h-1zM59 88h1v1h-1z" /><path fill="#006fc3" d="M54 70h1v1h-1zM55 73h1v1h-1zM56 76h1v1h-1zM57 79h1v1h-1zM58 82h1v1h-1zM59 85h1v1h-1zM60 88h1v1h-1z" /><path fill="#0065b2" d="M58 70h1v1h-1zM59 73h1v1h-1zM60 76h1v1h-1zM61 79h1v1h-1z" /><path fill="#0765aa" d="M59 70h1v1h-1z" /><path fill="#2d9fe4" d="M90 70h2v1h-2zM87 71h4v1h-4zM85 72h3v1h-3zM82 73h3v1h-3zM79 74h4v1h-4zM77 75h3v1h-3zM74 76h3v1h-3zM71 77h4v1h-4zM69 78h3v1h-3zM63 79h1v1h-1zM66 79h3v1h-3zM64 80h3v1h-3z" /><path fill="#2c9fe4" d="M92 70h1v1h-1zM91 71h1v1h-1zM88 72h2v1h-2zM85 73h2v1h-2zM83 74h1v1h-1zM80 75h2v1h-2zM77 76h2v1h-2zM75 77h1v1h-1zM72 78h2v1h-2zM69 79h2v1h-2zM67 80h1v1h-1zM64 81h2v1h-2z" /><path fill="#0961af" d="M7 71h2v1h-2zM7 72h5v1h-5zM9 73h6v1h-6zM12 74h6v1h-6zM15 75h6v1h-6zM18 76h6v1h-6zM21 77h5v1h-5zM24 78h5v1h-5zM27 79h5v1h-5zM30 80h5v1h-5zM33 81h3v1h-3zM35 82h1v1h-1z" /><path fill="#0863b3" d="M31 71h1v1h-1zM5 79h3v1h-3zM6 80h5v1h-5zM9 81h5v1h-5zM12 82h5v1h-5zM15 83h5v1h-5zM18 84h5v1h-5zM21 85h5v1h-5zM24 86h5v1h-5zM27 87h5v1h-5zM30 88h3v1h-3z" /><path fill="#005fa8" d="M59 71h1v1h-1z" /><path fill="#2796d8" d="M60 71h1v1h-1z" /><path fill="#2c9ee4" d="M92 71h1v1h-1zM90 72h1v1h-1zM87 73h1v1h-1zM84 74h2v1h-2zM82 75h1v1h-1zM79 76h1v1h-1zM76 77h2v1h-2zM74 78h1v1h-1zM71 79h1v1h-1zM68 80h2v1h-2zM66 81h1v1h-1z" /><path fill="#0862b2" d="M32 72h1v1h-1zM7 77h2v1h-2zM10 78h2v1h-2zM13 79h1v1h-1zM16 80h1v1h-1zM19 81h1v1h-1zM22 82h1v1h-1zM25 83h1v1h-1zM28 84h1v1h-1zM31 85h1v1h-1zM33 89h1v1h-1z" /><path fill="#0176cf" d="M33 72h1v1h-1z" /><path fill="#006abb" d="M58 72h1v1h-1zM59 75h1v1h-1zM60 78h1v1h-1zM61 81h1v1h-1z" /><path fill="#177cbd" d="M60 72h1v1h-1z" /><path fill="#2c9ee3" d="M91 72h2v1h-2zM88 73h4v1h-4zM86 74h3v1h-3zM83 75h3v1h-3zM80 76h4v1h-4zM78 77h3v1h-3zM75 78h3v1h-3zM72 79h4v1h-4zM70 80h3v1h-3zM67 81h3v1h-3zM65 82h3v1h-3z" /><path fill="#0861af" d="M6 73h1v1h-1z" /><path fill="#0961b0" d="M7 73h2v1h-2zM8 74h4v1h-4zM11 75h4v1h-4zM14 76h4v1h-4zM17 77h4v1h-4zM20 78h4v1h-4zM23 79h4v1h-4zM26 80h4v1h-4zM29 81h4v1h-4zM32 82h3v1h-3zM35 83h1v1h-1z" /><path fill="#0963b0" d="M33 73h1v1h-1z" /><path fill="#0175ce" d="M34 73h1v1h-1z" /><path fill="#0665aa" d="M60 73h1v1h-1z" /><path fill="#2c9de3" d="M92 73h1v1h-1zM89 74h5v1h-5zM86 75h5v1h-5zM84 76h5v1h-5zM81 77h5v1h-5zM78 78h5v1h-5zM76 79h5v1h-5zM73 80h5v1h-5zM70 81h5v1h-5zM64 82h1v1h-1zM68 82h5v1h-5zM65 83h5v1h-5zM65 84h2v1h-2z" /><path fill="#2b9ce2" d="M93 73h1v1h-1z" /><path fill="#0962b0" d="M6 74h2v1h-2zM34 74h1v1h-1zM9 75h2v1h-2zM12 76h2v1h-2zM15 77h2v1h-2zM18 78h2v1h-2zM21 79h2v1h-2zM24 80h2v1h-2zM26 81h3v1h-3zM29 82h3v1h-3zM32 83h3v1h-3z" /><path fill="#0274cd" d="M35 74h1v1h-1z" /><path fill="#0078d3" d="M53 74h1v1h-1zM54 77h1v1h-1zM39 78h1v1h-1zM55 80h1v1h-1zM43 81h1v1h-1zM56 83h1v1h-1zM48 86h1v1h-1zM57 86h1v1h-1zM58 89h1v1h-1zM59 92h1v1h-1zM58 95h1v1h-1z" /><path fill="#0060a9" d="M60 74h1v1h-1zM61 77h1v1h-1z" /><path fill="#2594d5" d="M61 74h1v1h-1z" /><path fill="#0762b1" d="M5 75h1v1h-1zM34 86h1v1h-1z" /><path fill="#0862b1" d="M6 75h1v1h-1zM6 76h3v1h-3zM9 77h3v1h-3zM12 78h3v1h-3zM14 79h4v1h-4zM17 80h4v1h-4zM20 81h4v1h-4zM23 82h4v1h-4zM26 83h4v1h-4zM29 84h4v1h-4zM32 85h2v1h-2z" /><path fill="#0962b1" d="M7 75h2v1h-2zM9 76h3v1h-3zM12 77h3v1h-3zM15 78h3v1h-3zM18 79h3v1h-3zM21 80h3v1h-3zM24 81h2v1h-2zM27 82h2v1h-2zM30 83h2v1h-2zM33 84h2v1h-2z" /><path fill="#0960af" d="M35 75h1v1h-1zM26 77h1v1h-1zM29 78h1v1h-1zM32 79h1v1h-1zM35 80h1v1h-1z" /><path fill="#0273cb" d="M36 75h1v1h-1z" /><path fill="#0062ae" d="M60 75h1v1h-1zM61 78h1v1h-1zM62 81h1v1h-1z" /><path fill="#167abc" d="M61 75h1v1h-1z" /><path fill="#2c9ce3" d="M91 75h3v1h-3zM89 76h2v1h-2zM86 77h2v1h-2zM83 78h3v1h-3zM81 79h2v1h-2zM78 80h2v1h-2zM75 81h3v1h-3zM73 82h2v1h-2zM70 83h2v1h-2zM67 84h3v1h-3zM66 85h1v1h-1z" /><path fill="#2b9ce3" d="M94 75h1v1h-1zM91 76h2v1h-2zM88 77h3v1h-3zM86 78h2v1h-2zM83 79h2v1h-2zM80 80h3v1h-3zM78 81h2v1h-2zM75 82h2v1h-2zM72 83h3v1h-3zM70 84h2v1h-2zM67 85h2v1h-2zM66 86h1v1h-1z" /><path fill="#0861b1" d="M5 76h1v1h-1zM34 85h1v1h-1z" /><path fill="#0961ae" d="M36 76h1v1h-1z" /><path fill="#0371c9" d="M37 76h1v1h-1z" /><path fill="#0664aa" d="M61 76h1v1h-1zM66 91h1v1h-1z" /><path fill="#2ea1e5" d="M62 76h1v1h-1z" /><path fill="#2b9be2" d="M93 76h1v1h-1zM91 77h4v1h-4zM88 78h5v1h-5zM85 79h5v1h-5zM83 80h4v1h-4zM80 81h5v1h-5zM77 82h5v1h-5zM75 83h4v1h-4zM72 84h5v1h-5zM69 85h5v1h-5zM67 86h4v1h-4zM66 87h3v1h-3z" /><path fill="#2a9ae1" d="M94 76h1v1h-1z" /><path fill="#0863b2" d="M5 77h2v1h-2zM5 78h5v1h-5zM4 79h1v1h-1zM8 79h5v1h-5zM11 80h5v1h-5zM14 81h5v1h-5zM17 82h5v1h-5zM20 83h5v1h-5zM23 84h5v1h-5zM26 85h5v1h-5zM29 86h5v1h-5zM32 87h2v1h-2z" /><path fill="#0860af" d="M37 77h1v1h-1z" /><path fill="#0074cd" d="M55 77h1v1h-1zM56 80h1v1h-1zM57 83h1v1h-1zM58 86h1v1h-1zM59 89h1v1h-1zM60 92h1v1h-1zM61 95h1v1h-1z" /><path fill="#0070c6" d="M56 77h1v1h-1zM57 80h1v1h-1zM58 83h1v1h-1zM59 86h1v1h-1zM60 89h1v1h-1zM61 92h1v1h-1zM62 95h1v1h-1z" /><path fill="#006cbf" d="M57 77h1v1h-1zM58 80h1v1h-1zM59 83h1v1h-1zM60 86h1v1h-1zM61 89h1v1h-1zM62 92h1v1h-1zM63 95h1v1h-1z" /><path fill="#0068b7" d="M60 77h1v1h-1zM61 80h1v1h-1zM62 83h1v1h-1zM63 86h1v1h-1z" /><path fill="#2491d4" d="M62 77h1v1h-1z" /><path fill="#0762b3" d="M4 78h1v1h-1z" /><path fill="#1579bb" d="M62 78h1v1h-1z" /><path fill="#2b9ae2" d="M93 78h2v1h-2zM90 79h5v1h-5zM87 80h5v1h-5zM85 81h5v1h-5zM82 82h5v1h-5zM79 83h5v1h-5zM77 84h5v1h-5zM74 85h5v1h-5zM71 86h5v1h-5zM69 87h5v1h-5zM67 88h4v1h-4zM67 89h1v1h-1z" /><path fill="#2a9ae2" d="M95 78h1v1h-1z" /><path fill="#0563a8" d="M62 79h1v1h-1zM63 82h1v1h-1z" /><path fill="#2a99e2" d="M95 79h1v1h-1zM94 80h2v1h-2zM91 81h2v1h-2zM89 82h1v1h-1zM86 83h2v1h-2zM83 84h2v1h-2zM81 85h1v1h-1zM78 86h2v1h-2zM75 87h2v1h-2zM73 88h1v1h-1zM70 89h2v1h-2zM67 90h2v1h-2z" /><path fill="#0864b4" d="M4 80h1v1h-1zM4 81h4v1h-4zM3 82h1v1h-1zM5 82h6v1h-6zM8 83h6v1h-6zM11 84h6v1h-6zM14 85h6v1h-6zM17 86h6v1h-6zM20 87h6v1h-6zM23 88h6v1h-6zM26 89h6v1h-6zM29 90h4v1h-4zM32 91h1v1h-1z" /><path fill="#0864b3" d="M5 80h1v1h-1zM8 81h1v1h-1zM11 82h1v1h-1zM14 83h1v1h-1zM17 84h1v1h-1zM20 85h1v1h-1zM23 86h1v1h-1zM26 87h1v1h-1zM29 88h1v1h-1zM32 89h1v1h-1z" /><path fill="#0060aa" d="M62 80h1v1h-1zM63 83h1v1h-1zM64 86h1v1h-1zM65 89h1v1h-1z" /><path fill="#238fd3" d="M63 80h1v1h-1z" /><path fill="#2b99e2" d="M92 80h2v1h-2zM90 81h1v1h-1zM87 82h2v1h-2zM84 83h2v1h-2zM82 84h1v1h-1zM79 85h2v1h-2zM76 86h2v1h-2zM74 87h1v1h-1zM71 88h2v1h-2zM68 89h2v1h-2z" /><path fill="#0764b3" d="M3 81h1v1h-1z" /><path fill="#1477ba" d="M63 81h1v1h-1z" /><path fill="#2a99e1" d="M93 81h1v1h-1zM90 82h2v1h-2zM88 83h1v1h-1zM85 84h1v1h-1zM82 85h2v1h-2zM80 86h1v1h-1zM77 87h1v1h-1zM66 88h1v1h-1zM74 88h2v1h-2zM72 89h1v1h-1zM69 90h1v1h-1zM67 91h1v1h-1z" /><path fill="#2a98e1" d="M94 81h2v1h-2zM92 82h4v1h-4zM89 83h5v1h-5zM86 84h5v1h-5zM84 85h5v1h-5zM81 86h5v1h-5zM78 87h5v1h-5zM76 88h5v1h-5zM73 89h5v1h-5zM70 90h5v1h-5zM68 91h5v1h-5zM67 92h3v1h-3z" /><path fill="#2997e0" d="M96 81h1v1h-1z" /><path fill="#0864b5" d="M4 82h1v1h-1zM6 83h2v1h-2zM9 84h2v1h-2zM12 85h2v1h-2zM14 86h3v1h-3zM17 87h3v1h-3zM20 88h3v1h-3zM23 89h3v1h-3zM26 90h3v1h-3zM29 91h3v1h-3z" /><path fill="#0065b3" d="M62 82h1v1h-1zM63 85h1v1h-1zM64 88h1v1h-1z" /><path fill="#2a97e1" d="M96 82h1v1h-1zM94 83h3v1h-3zM91 84h5v1h-5zM89 85h4v1h-4zM86 86h5v1h-5zM83 87h5v1h-5zM81 88h4v1h-4zM78 89h5v1h-5zM75 90h5v1h-5zM73 91h4v1h-4zM70 92h5v1h-5zM67 93h5v1h-5zM67 94h2v1h-2z" /><path fill="#0865b5" d="M3 83h3v1h-3zM6 84h3v1h-3zM9 85h3v1h-3zM12 86h2v1h-2zM15 87h2v1h-2zM18 88h2v1h-2zM21 89h2v1h-2zM24 90h2v1h-2zM27 91h2v1h-2zM30 92h2v1h-2z" /><path fill="#228dd1" d="M64 83h1v1h-1z" /><path fill="#0765b6" d="M3 84h2v1h-2zM3 85h5v1h-5zM5 86h6v1h-6zM8 87h6v1h-6zM11 88h6v1h-6zM14 89h6v1h-6zM17 90h6v1h-6zM20 91h5v1h-5zM23 92h5v1h-5zM25 93h6v1h-6zM28 94h3v1h-3z" /><path fill="#006ec2" d="M59 84h1v1h-1zM60 87h1v1h-1zM61 90h1v1h-1zM62 93h1v1h-1zM63 96h1v1h-1z" /><path fill="#006abc" d="M62 84h1v1h-1zM63 87h1v1h-1zM64 90h1v1h-1z" /><path fill="#0063af" d="M63 84h1v1h-1zM64 87h1v1h-1zM65 90h1v1h-1z" /><path fill="#1375b9" d="M64 84h1v1h-1z" /><path fill="#2a96e1" d="M96 84h1v1h-1zM93 85h1v1h-1zM91 86h1v1h-1zM88 87h1v1h-1zM85 88h1v1h-1zM83 89h1v1h-1zM80 90h1v1h-1zM77 91h1v1h-1zM75 92h1v1h-1zM72 93h1v1h-1zM69 94h1v1h-1zM67 95h1v1h-1z" /><path fill="#2895e1" d="M97 84h1v1h-1z" /><path fill="#0664b5" d="M2 85h1v1h-1zM31 94h1v1h-1z" /><path fill="#0461a7" d="M64 85h1v1h-1z" /><path fill="#2c9ce2" d="M65 85h1v1h-1z" /><path fill="#2996e1" d="M94 85h1v1h-1zM92 86h1v1h-1zM89 87h1v1h-1zM86 88h1v1h-1zM84 89h1v1h-1zM81 90h1v1h-1zM78 91h1v1h-1zM76 92h1v1h-1zM73 93h1v1h-1zM70 94h1v1h-1zM68 95h1v1h-1z" /><path fill="#2996e0" d="M95 85h2v1h-2zM93 86h2v1h-2zM90 87h3v1h-3zM87 88h3v1h-3zM85 89h2v1h-2zM82 90h3v1h-3zM79 91h3v1h-3zM77 92h2v1h-2zM74 93h3v1h-3zM71 94h3v1h-3zM69 95h2v1h-2zM66 96h3v1h-3z" /><path fill="#2896e0" d="M97 85h1v1h-1z" /><path fill="#218bd0" d="M65 86h1v1h-1z" /><path fill="#2995e0" d="M95 86h3v1h-3zM93 87h5v1h-5zM90 88h5v1h-5zM87 89h5v1h-5zM85 90h5v1h-5zM82 91h5v1h-5zM79 92h5v1h-5zM77 93h5v1h-5zM74 94h5v1h-5zM71 95h5v1h-5zM69 96h5v1h-5z" /><path fill="#1274b8" d="M65 87h1v1h-1z" /><path fill="#2993e0" d="M98 87h1v1h-1zM94 90h1v1h-1zM86 93h1v1h-1zM78 96h1v1h-1z" /><path fill="#0666b7" d="M1 88h1v1h-1z" /><path fill="#0862b3" d="M33 88h1v1h-1z" /><path fill="#0462a8" d="M65 88h1v1h-1z" /><path fill="#2994e0" d="M95 88h3v1h-3zM92 89h5v1h-5zM90 90h4v1h-4zM87 91h5v1h-5zM84 92h5v1h-5zM82 93h4v1h-4zM79 94h5v1h-5zM76 95h5v1h-5zM74 96h4v1h-4z" /><path fill="#2894df" d="M98 88h1v1h-1z" /><path fill="#0767b8" d="M1 89h3v1h-3zM0 90h1v1h-1zM4 90h3v1h-3zM7 91h3v1h-3zM10 92h3v1h-3zM13 93h3v1h-3zM16 94h3v1h-3zM19 95h3v1h-3zM22 96h3v1h-3z" /><path fill="#0766b6" d="M13 89h1v1h-1zM16 90h1v1h-1zM19 91h1v1h-1zM22 92h1v1h-1zM30 95h1v1h-1z" /><path fill="#0068b8" d="M64 89h1v1h-1zM65 92h1v1h-1z" /><path fill="#2088ce" d="M66 89h1v1h-1z" /><path fill="#2893e0" d="M97 89h1v1h-1zM89 92h1v1h-1zM81 95h1v1h-1z" /><path fill="#2893df" d="M98 89h1v1h-1zM95 90h4v1h-4zM92 91h5v1h-5zM90 92h4v1h-4zM87 93h4v1h-4zM84 94h5v1h-5zM82 95h4v1h-4zM79 96h4v1h-4z" /><path fill="#0767b9" d="M1 90h3v1h-3zM1 91h6v1h-6zM4 92h6v1h-6zM7 93h6v1h-6zM10 94h6v1h-6zM13 95h6v1h-6zM16 96h6v1h-6z" /><path fill="#1272b7" d="M66 90h1v1h-1z" /><path fill="#2891df" d="M99 90h1v1h-1zM97 96h1v1h-1z" /><path fill="#0766ba" d="M0 91h1v1h-1z" /><path fill="#0073cb" d="M60 91h1v1h-1zM61 94h1v1h-1z" /><path fill="#006fc4" d="M61 91h1v1h-1zM62 94h1v1h-1z" /><path fill="#0066b4" d="M65 91h1v1h-1z" /><path fill="#2892df" d="M97 91h2v1h-2zM94 92h5v1h-5zM91 93h8v1h-8zM89 94h11v1h-11zM86 95h12v1h-12zM83 96h13v1h-13z" /><path fill="#2891de" d="M99 91h1v1h-1z" /><path fill="#0668ba" d="M1 92h1v1h-1zM1 93h4v1h-4zM4 94h4v1h-4zM7 95h4v1h-4zM10 96h4v1h-4z" /><path fill="#0768ba" d="M2 92h1v1h-1zM5 93h1v1h-1zM8 94h1v1h-1zM11 95h1v1h-1zM14 96h1v1h-1z" /><path fill="#0767ba" d="M3 92h1v1h-1zM6 93h1v1h-1zM9 94h1v1h-1zM12 95h1v1h-1zM15 96h1v1h-1z" /><path fill="#0863b4" d="M32 92h1v1h-1z" /><path fill="#0061ab" d="M66 92h1v1h-1z" /><path fill="#2892de" d="M99 92h1v1h-1zM99 93h1v1h-1zM96 96h1v1h-1z" /><path fill="#0567ba" d="M0 93h1v1h-1z" /><path fill="#006bbd" d="M65 93h1v1h-1z" /><path fill="#0468b4" d="M66 93h1v1h-1z" /><path fill="#0568ba" d="M0 94h1v1h-1z" /><path fill="#0668bb" d="M1 94h3v1h-3zM2 95h5v1h-5zM5 96h5v1h-5z" /><path fill="#127bc7" d="M66 94h1v1h-1z" /><path fill="#0568bb" d="M1 95h1v1h-1z" /><path fill="#0572c2" d="M65 95h1v1h-1z" /><path fill="#2794dd" d="M66 95h1v1h-1z" /><path fill="#2791df" d="M98 95h1v1h-1z" /><path fill="#0568bc" d="M2 96h1v1h-1z" /><path fill="#0668bc" d="M3 96h1v1h-1z" /><path fill="#0669bb" d="M4 96h1v1h-1z" /><path fill="#0665b6" d="M29 96h1v1h-1z" /><path fill="#0d79c8" d="M64 96h1v1h-1z" /><path fill="#2492dd" d="M65 96h1v1h-1z" /><path fill="#1578c1" d="M69 97h2v1h-2z" /><path fill="#1576c1" d="M71 97h5v1h-5z" /><path fill="#1576bf" d="M76 97h11v1h-11z" /></svg>