<svg xmlns="http://www.w3.org/2000/svg" viewBox="0 0 100 100" width="1em" height="1em"><path fill="#9478d8" d="M48 0h1v1h-1z" /><path fill="#9778d9" d="M49 0h1v1h-1z" /><path fill="#997ad8" d="M50 0h1v1h-1z" /><path fill="#9d79d8" d="M51 0h1v1h-1z" /><path fill="#a07ad8" d="M52 0h1v1h-1zM60 5h1v1h-1z" /><path fill="#a37ad7" d="M53 0h1v1h-1zM61 5h1v1h-1z" /><path fill="#a67ad7" d="M54 0h1v1h-1zM59 3h1v1h-1zM62 5h1v1h-1z" /><path fill="#a97ad6" d="M55 0h1v1h-1zM60 3h1v1h-1z" /><path fill="#ac7ad6" d="M56 0h1v1h-1zM61 3h1v1h-1z" /><path fill="#ae7bd5" d="M57 0h1v1h-1zM60 2h1v1h-1z" /><path fill="#b17bd5" d="M58 0h1v1h-1zM61 2h1v1h-1z" /><path fill="#b47bd4" d="M59 0h1v1h-1z" /><path fill="#b77bd4" d="M60 0h1v1h-1z" /><path fill="#ba7bd4" d="M61 0h1v1h-1z" /><path fill="#bd7cd3" d="M62 0h1v1h-1z" /><path fill="#c07cd3" d="M63 0h1v1h-1z" /><path fill="#c47cd3" d="M64 0h1v1h-1z" /><path fill="#a65aad" d="M65 0h1v1h-1z" /><path fill="#813585" d="M66 0h1v1h-1z" /><path fill="#722676" d="M67 0h1v1h-1z" /><path fill="#722575" d="M68 0h1v1h-1z" /><path fill="#732576" d="M69 0h1v1h-1z" /><path fill="#8879db" d="M45 1h1v1h-1zM46 2h1v1h-1zM49 4h1v1h-1zM54 7h1v1h-1zM57 9h1v1h-1zM62 12h1v1h-1z" /><path fill="#8c78da" d="M46 1h1v1h-1z" /><path fill="#8e79da" d="M47 1h1v1h-1zM52 4h1v1h-1zM55 6h1v1h-1zM60 9h1v1h-1z" /><path fill="#9079da" d="M48 1h1v1h-1zM51 3h1v1h-1zM53 4h1v1h-1zM56 6h1v1h-1zM61 9h1v1h-1z" /><path fill="#9379da" d="M49 1h1v1h-1zM57 6h1v1h-1z" /><path fill="#9679d9" d="M50 1h1v1h-1zM55 4h1v1h-1zM58 6h1v1h-1z" /><path fill="#9979d9" d="M51 1h1v1h-1zM56 4h1v1h-1zM59 6h1v1h-1z" /><path fill="#9b7ad8" d="M52 1h1v1h-1zM55 3h1v1h-1zM60 6h1v1h-1z" /><path fill="#9e7ad8" d="M53 1h1v1h-1zM56 3h1v1h-1zM61 6h1v1h-1z" /><path fill="#a17ad7" d="M54 1h1v1h-1zM57 3h1v1h-1zM62 6h1v1h-1z" /><path fill="#a47ad7" d="M55 1h1v1h-1zM58 3h1v1h-1z" /><path fill="#a77ad6" d="M56 1h1v1h-1z" /><path fill="#aa7ad6" d="M57 1h1v1h-1zM62 4h1v1h-1z" /><path fill="#ad7ad6" d="M58 1h1v1h-1z" /><path fill="#b07bd5" d="M59 1h1v1h-1z" /><path fill="#b27bd5" d="M60 1h1v1h-1z" /><path fill="#b57bd4" d="M61 1h1v1h-1z" /><path fill="#b87bd4" d="M62 1h1v1h-1z" /><path fill="#bb7bd3" d="M63 1h1v1h-1z" /><path fill="#964ea3" d="M64 1h1v1h-1z" /><path fill="#742576" d="M65 1h1v1h-1z" /><path fill="#752577" d="M66 1h1v1h-1z" /><path fill="#762577" d="M67 1h1v1h-1z" /><path fill="#772577" d="M68 1h1v1h-1z" /><path fill="#792578" d="M69 1h1v1h-1zM65 2h1v1h-1z" /><path fill="#7a2578" d="M70 1h2v1h-2zM66 2h1v1h-1z" /><path fill="#8278db" d="M43 2h1v1h-1z" /><path fill="#8478dc" d="M44 2h1v1h-1zM49 5h1v1h-1zM52 7h1v1h-1zM57 10h1v1h-1zM60 12h1v1h-1z" /><path fill="#8678db" d="M45 2h1v1h-1zM50 5h1v1h-1zM53 7h1v1h-1zM58 10h1v1h-1zM61 12h1v1h-1z" /><path fill="#8a79db" d="M47 2h1v1h-1zM50 4h1v1h-1zM55 7h1v1h-1zM58 9h1v1h-1z" /><path fill="#8d79db" d="M48 2h1v1h-1z" /><path fill="#8f79da" d="M49 2h1v1h-1zM54 5h1v1h-1zM57 7h1v1h-1zM59 8h1v1h-1zM62 10h1v1h-1z" /><path fill="#9179da" d="M50 2h1v1h-1zM58 7h1v1h-1z" /><path fill="#9479d9" d="M51 2h1v1h-1zM59 7h1v1h-1z" /><path fill="#9779d9" d="M52 2h1v1h-1zM57 5h1v1h-1zM60 7h1v1h-1z" /><path fill="#9a79d9" d="M53 2h1v1h-1zM61 7h1v1h-1z" /><path fill="#9d7ad8" d="M54 2h1v1h-1zM59 5h1v1h-1zM62 7h1v1h-1z" /><path fill="#9f7ad8" d="M55 2h1v1h-1zM58 4h1v1h-1z" /><path fill="#a27ad7" d="M56 2h1v1h-1zM59 4h1v1h-1z" /><path fill="#a57ad7" d="M57 2h1v1h-1zM60 4h1v1h-1z" /><path fill="#a87ad6" d="M58 2h1v1h-1zM61 4h1v1h-1z" /><path fill="#ab7ad6" d="M59 2h1v1h-1z" /><path fill="#b47bd5" d="M62 2h1v1h-1z" /><path fill="#ad6ec6" d="M63 2h1v1h-1z" /><path fill="#782678" d="M64 2h1v1h-1z" /><path fill="#7b2679" d="M67 2h1v1h-1z" /><path fill="#7c2679" d="M68 2h1v1h-1zM64 3h1v1h-1z" /><path fill="#7e267a" d="M69 2h1v1h-1zM65 3h1v1h-1z" /><path fill="#7f267a" d="M70 2h1v1h-1zM66 3h1v1h-1z" /><path fill="#80267b" d="M71 2h2v1h-2zM67 3h1v1h-1z" /><path fill="#7978dd" d="M41 3h1v1h-1zM42 4h1v1h-1zM47 7h1v1h-1zM50 9h1v1h-1zM55 12h1v1h-1zM58 14h1v1h-1zM60 15h1v1h-1z" /><path fill="#7c78dd" d="M42 3h1v1h-1zM45 5h1v1h-1zM50 8h1v1h-1zM53 10h1v1h-1zM58 13h1v1h-1zM61 15h1v1h-1z" /><path fill="#7e78dd" d="M43 3h1v1h-1zM46 5h1v1h-1zM51 8h1v1h-1zM54 10h1v1h-1zM59 13h1v1h-1zM62 15h1v1h-1z" /><path fill="#8078dc" d="M44 3h1v1h-1zM47 5h1v1h-1zM50 7h1v1h-1zM52 8h1v1h-1zM55 10h1v1h-1zM58 12h1v1h-1zM60 13h1v1h-1z" /><path fill="#8378dc" d="M45 3h1v1h-1zM47 4h1v1h-1zM50 6h1v1h-1zM53 8h1v1h-1zM55 9h1v1h-1zM58 11h1v1h-1zM61 13h1v1h-1z" /><path fill="#8578dc" d="M46 3h1v1h-1zM51 6h1v1h-1zM54 8h1v1h-1zM59 11h1v1h-1zM62 13h1v1h-1z" /><path fill="#8778db" d="M47 3h1v1h-1zM52 6h1v1h-1zM55 8h1v1h-1zM60 11h1v1h-1z" /><path fill="#8979db" d="M48 3h1v1h-1zM51 5h1v1h-1zM53 6h1v1h-1zM56 8h1v1h-1zM59 10h1v1h-1zM61 11h1v1h-1z" /><path fill="#8b79db" d="M49 3h1v1h-1zM52 5h1v1h-1zM57 8h1v1h-1zM60 10h1v1h-1z" /><path fill="#8d79da" d="M50 3h1v1h-1zM53 5h1v1h-1zM58 8h1v1h-1zM61 10h1v1h-1z" /><path fill="#9279da" d="M52 3h1v1h-1zM55 5h1v1h-1zM60 8h1v1h-1z" /><path fill="#9579d9" d="M53 3h1v1h-1zM56 5h1v1h-1zM61 8h1v1h-1z" /><path fill="#9879d9" d="M54 3h1v1h-1zM62 8h1v1h-1z" /><path fill="#af7bd5" d="M62 3h1v1h-1z" /><path fill="#9b57af" d="M63 3h1v1h-1z" /><path fill="#81267b" d="M68 3h1v1h-1zM64 4h1v1h-1z" /><path fill="#83267c" d="M69 3h1v1h-1zM65 4h1v1h-1z" /><path fill="#84267c" d="M70 3h1v1h-1zM66 4h1v1h-1z" /><path fill="#85267d" d="M71 3h1v1h-1zM67 4h1v1h-1z" /><path fill="#86267d" d="M72 3h1v1h-1zM68 4h1v1h-1zM64 5h1v1h-1z" /><path fill="#7477de" d="M40 4h1v1h-1zM43 6h1v1h-1zM48 9h1v1h-1zM51 11h1v1h-1zM56 14h1v1h-1zM59 16h1v1h-1z" /><path fill="#7778de" d="M41 4h1v1h-1zM43 5h1v1h-1zM46 7h1v1h-1zM49 9h1v1h-1zM51 10h1v1h-1zM54 12h1v1h-1zM59 15h1v1h-1zM62 17h1v1h-1z" /><path fill="#7b78dd" d="M43 4h1v1h-1zM48 7h1v1h-1zM51 9h1v1h-1zM56 12h1v1h-1zM59 14h1v1h-1z" /><path fill="#7d78dd" d="M44 4h1v1h-1zM47 6h1v1h-1zM49 7h1v1h-1zM52 9h1v1h-1zM55 11h1v1h-1zM57 12h1v1h-1zM60 14h1v1h-1z" /><path fill="#7f78dc" d="M45 4h1v1h-1zM53 9h1v1h-1zM61 14h1v1h-1z" /><path fill="#8178dc" d="M46 4h1v1h-1zM49 6h1v1h-1zM54 9h1v1h-1zM57 11h1v1h-1zM62 14h1v1h-1z" /><path fill="#8678dc" d="M48 4h1v1h-1zM56 9h1v1h-1z" /><path fill="#8c79db" d="M51 4h1v1h-1zM54 6h1v1h-1zM56 7h1v1h-1zM59 9h1v1h-1zM62 11h1v1h-1z" /><path fill="#9379d9" d="M54 4h1v1h-1zM62 9h1v1h-1z" /><path fill="#9c7ad8" d="M57 4h1v1h-1z" /><path fill="#9751a9" d="M63 4h1v1h-1z" /><path fill="#87267e" d="M69 4h1v1h-1zM65 5h1v1h-1z" /><path fill="#88277e" d="M70 4h1v1h-1zM66 5h1v1h-1z" /><path fill="#89277e" d="M71 4h1v1h-1zM67 5h1v1h-1z" /><path fill="#8b277f" d="M72 4h1v1h-1zM68 5h1v1h-1zM64 6h1v1h-1zM65 68h1v1h-1z" /><path fill="#8b277e" d="M73 4h1v1h-1zM66 68h1v1h-1z" /><path fill="#6e76df" d="M39 5h1v1h-1z" /><path fill="#7177df" d="M40 5h1v1h-1zM45 8h1v1h-1zM48 10h1v1h-1zM53 13h1v1h-1zM56 15h1v1h-1zM61 18h1v1h-1z" /><path fill="#7377de" d="M41 5h1v1h-1zM44 7h1v1h-1zM46 8h1v1h-1zM49 10h1v1h-1zM52 12h1v1h-1zM54 13h1v1h-1zM57 15h1v1h-1zM60 17h1v1h-1zM62 18h1v1h-1z" /><path fill="#7577de" d="M42 5h1v1h-1zM45 7h1v1h-1zM50 10h1v1h-1zM53 12h1v1h-1zM58 15h1v1h-1zM61 17h1v1h-1z" /><path fill="#7a78dd" d="M44 5h1v1h-1zM46 6h1v1h-1zM49 8h1v1h-1zM52 10h1v1h-1zM54 11h1v1h-1zM57 13h1v1h-1zM62 16h1v1h-1z" /><path fill="#8278dc" d="M48 5h1v1h-1zM51 7h1v1h-1zM56 10h1v1h-1zM59 12h1v1h-1z" /><path fill="#9a7ad8" d="M58 5h1v1h-1z" /><path fill="#9751aa" d="M63 5h1v1h-1z" /><path fill="#8c277f" d="M69 5h1v1h-1zM65 6h1v1h-1z" /><path fill="#8d2780" d="M70 5h1v1h-1zM66 6h1v1h-1z" /><path fill="#8e2780" d="M71 5h1v1h-1zM67 6h1v1h-1z" /><path fill="#8f2780" d="M72 5h1v1h-1zM68 6h1v1h-1zM64 7h1v1h-1z" /><path fill="#902781" d="M73 5h1v1h-1zM69 6h1v1h-1zM65 7h1v1h-1z" /><path fill="#6a77df" d="M38 6h1v1h-1z" /><path fill="#6c77df" d="M39 6h1v1h-1zM41 7h1v1h-1zM44 9h1v1h-1zM47 11h1v1h-1zM49 12h1v1h-1zM52 14h1v1h-1zM55 16h1v1h-1zM57 17h1v1h-1zM60 19h1v1h-1z" /><path fill="#6e77df" d="M40 6h1v1h-1zM42 7h1v1h-1zM45 9h1v1h-1zM48 11h1v1h-1zM50 12h1v1h-1zM53 14h1v1h-1zM58 17h1v1h-1zM61 19h1v1h-1z" /><path fill="#7077df" d="M41 6h1v1h-1zM43 7h1v1h-1zM46 9h1v1h-1zM49 11h1v1h-1zM51 12h1v1h-1zM54 14h1v1h-1zM57 16h1v1h-1zM59 17h1v1h-1zM62 19h1v1h-1z" /><path fill="#7277de" d="M42 6h1v1h-1zM47 9h1v1h-1zM50 11h1v1h-1zM55 14h1v1h-1zM58 16h1v1h-1z" /><path fill="#7677de" d="M44 6h1v1h-1zM47 8h1v1h-1zM52 11h1v1h-1zM55 13h1v1h-1zM57 14h1v1h-1zM60 16h1v1h-1z" /><path fill="#7878dd" d="M45 6h1v1h-1zM53 11h1v1h-1z" /><path fill="#7f78dd" d="M48 6h1v1h-1zM56 11h1v1h-1z" /><path fill="#9650ab" d="M63 6h1v1h-1z" /><path fill="#912781" d="M70 6h1v1h-1zM66 7h1v1h-1zM66 67h1v1h-1z" /><path fill="#932882" d="M71 6h1v1h-1zM67 7h1v1h-1z" /><path fill="#942882" d="M72 6h1v1h-1zM68 7h1v1h-1zM64 8h1v1h-1zM64 67h1v1h-1z" /><path fill="#952882" d="M73 6h1v1h-1zM69 7h1v1h-1zM65 8h1v1h-1z" /><path fill="#6576df" d="M37 7h1v1h-1z" /><path fill="#6777e0" d="M38 7h1v1h-1zM43 10h1v1h-1zM46 12h1v1h-1zM51 15h1v1h-1zM54 17h1v1h-1zM59 20h1v1h-1zM62 22h1v1h-1z" /><path fill="#6977e0" d="M39 7h1v1h-1zM44 10h1v1h-1zM47 12h1v1h-1zM49 13h1v1h-1zM52 15h1v1h-1zM55 17h1v1h-1zM57 18h1v1h-1zM60 20h1v1h-1z" /><path fill="#6b77df" d="M40 7h1v1h-1zM42 8h1v1h-1zM45 10h1v1h-1zM48 12h1v1h-1zM50 13h1v1h-1zM53 15h1v1h-1zM56 17h1v1h-1zM58 18h1v1h-1zM61 20h1v1h-1z" /><path fill="#9651ac" d="M63 7h1v1h-1z" /><path fill="#962883" d="M70 7h1v1h-1zM66 8h1v1h-1z" /><path fill="#972883" d="M71 7h1v1h-1zM67 8h1v1h-1zM66 66h1v1h-1z" /><path fill="#982884" d="M72 7h1v1h-1zM68 8h1v1h-1zM64 9h1v1h-1z" /><path fill="#992884" d="M73 7h1v1h-1zM69 8h1v1h-1zM65 9h1v1h-1zM65 66h1v1h-1z" /><path fill="#9a2784" d="M74 7h1v1h-1z" /><path fill="#5f75e0" d="M36 8h1v1h-1z" /><path fill="#6276e1" d="M37 8h1v1h-1zM40 10h1v1h-1zM45 13h1v1h-1zM48 15h1v1h-1zM50 16h1v1h-1zM53 18h1v1h-1zM56 20h1v1h-1zM58 21h1v1h-1zM61 23h1v1h-1z" /><path fill="#6476e0" d="M38 8h1v1h-1zM41 10h1v1h-1zM43 11h1v1h-1zM46 13h1v1h-1zM49 15h1v1h-1zM51 16h1v1h-1zM54 18h1v1h-1zM57 20h1v1h-1zM59 21h1v1h-1zM62 23h1v1h-1zM95 29h1v1h-1z" /><path fill="#6676e0" d="M39 8h1v1h-1zM44 11h1v1h-1zM47 13h1v1h-1zM52 16h1v1h-1zM55 18h1v1h-1zM60 21h1v1h-1z" /><path fill="#6877e0" d="M40 8h1v1h-1zM42 9h1v1h-1zM45 11h1v1h-1zM48 13h1v1h-1zM50 14h1v1h-1zM53 16h1v1h-1zM56 18h1v1h-1zM58 19h1v1h-1zM61 21h1v1h-1z" /><path fill="#6a77e0" d="M41 8h1v1h-1zM43 9h1v1h-1zM46 11h1v1h-1zM51 14h1v1h-1zM54 16h1v1h-1zM59 19h1v1h-1zM62 21h1v1h-1z" /><path fill="#6d77df" d="M43 8h1v1h-1zM46 10h1v1h-1zM51 13h1v1h-1zM54 15h1v1h-1zM56 16h1v1h-1zM59 18h1v1h-1zM62 20h1v1h-1z" /><path fill="#6f77df" d="M44 8h1v1h-1zM47 10h1v1h-1zM52 13h1v1h-1zM55 15h1v1h-1zM60 18h1v1h-1z" /><path fill="#7878de" d="M48 8h1v1h-1zM56 13h1v1h-1zM61 16h1v1h-1z" /><path fill="#9750ac" d="M63 8h1v1h-1z" /><path fill="#9a2884" d="M70 8h1v1h-1zM66 9h1v1h-1zM64 66h1v1h-1z" /><path fill="#9c2985" d="M71 8h1v1h-1zM67 9h1v1h-1z" /><path fill="#9d2985" d="M72 8h1v1h-1zM68 9h1v1h-1zM64 10h1v1h-1z" /><path fill="#9e2986" d="M73 8h1v1h-1zM69 9h1v1h-1zM65 10h1v1h-1z" /><path fill="#9f2985" d="M74 8h1v1h-1z" /><path fill="#5b75e2" d="M35 9h1v1h-1z" /><path fill="#5d76e1" d="M36 9h1v1h-1zM39 11h1v1h-1zM42 13h1v1h-1zM44 14h1v1h-1zM47 16h1v1h-1zM50 18h1v1h-1zM52 19h1v1h-1zM55 21h1v1h-1zM58 23h1v1h-1zM60 24h1v1h-1z" /><path fill="#5f76e1" d="M37 9h1v1h-1zM40 11h1v1h-1zM45 14h1v1h-1zM48 16h1v1h-1zM53 19h1v1h-1zM56 21h1v1h-1zM61 24h1v1h-1z" /><path fill="#6176e1" d="M38 9h1v1h-1zM41 11h1v1h-1zM43 12h1v1h-1zM46 14h1v1h-1zM49 16h1v1h-1zM51 17h1v1h-1zM54 19h1v1h-1zM57 21h1v1h-1zM59 22h1v1h-1zM62 24h1v1h-1zM77 30h20v1h-20z" /><path fill="#6376e1" d="M39 9h1v1h-1zM42 11h1v1h-1zM47 14h1v1h-1zM55 19h1v1h-1z" /><path fill="#6576e0" d="M40 9h1v1h-1zM42 10h1v1h-1zM45 12h1v1h-1zM48 14h1v1h-1zM50 15h1v1h-1zM53 17h1v1h-1zM56 19h1v1h-1zM58 20h1v1h-1zM61 22h1v1h-1z" /><path fill="#6776e0" d="M41 9h1v1h-1zM49 14h1v1h-1zM57 19h1v1h-1z" /><path fill="#9750ad" d="M63 9h1v1h-1z" /><path fill="#9f2986" d="M70 9h1v1h-1zM66 10h1v1h-1zM65 65h1v1h-1z" /><path fill="#a02986" d="M71 9h1v1h-1zM67 10h1v1h-1zM64 65h1v1h-1z" /><path fill="#a12987" d="M72 9h1v1h-1zM68 10h1v1h-1zM64 11h1v1h-1z" /><path fill="#a22987" d="M73 9h1v1h-1zM69 10h1v1h-1zM65 11h1v1h-1z" /><path fill="#a42988" d="M74 9h1v1h-1zM70 10h1v1h-1zM66 11h1v1h-1zM65 64h1v1h-1z" /><path fill="#5875e1" d="M35 10h1v1h-1z" /><path fill="#5a76e2" d="M36 10h1v1h-1zM39 12h1v1h-1zM42 14h1v1h-1zM44 15h1v1h-1zM47 17h1v1h-1zM50 19h1v1h-1zM52 20h1v1h-1zM55 22h1v1h-1zM58 24h1v1h-1zM60 25h1v1h-1z" /><path fill="#5c76e1" d="M37 10h1v1h-1zM40 12h1v1h-1zM45 15h1v1h-1zM53 20h1v1h-1zM61 25h1v1h-1z" /><path fill="#5e76e1" d="M38 10h1v1h-1zM41 12h1v1h-1zM43 13h1v1h-1zM46 15h1v1h-1zM49 17h1v1h-1zM51 18h1v1h-1zM54 20h1v1h-1zM57 22h1v1h-1zM59 23h1v1h-1zM62 25h1v1h-1z" /><path fill="#6076e1" d="M39 10h1v1h-1zM42 12h1v1h-1zM44 13h1v1h-1zM47 15h1v1h-1zM50 17h1v1h-1zM52 18h1v1h-1zM55 20h1v1h-1zM58 22h1v1h-1zM60 23h1v1h-1z" /><path fill="#974fae" d="M63 10h1v1h-1z" /><path fill="#a52988" d="M71 10h1v1h-1zM67 11h1v1h-1z" /><path fill="#a62a88" d="M72 10h1v1h-1zM68 11h1v1h-1zM64 12h1v1h-1z" /><path fill="#a72a89" d="M73 10h1v1h-1zM69 11h1v1h-1zM65 12h1v1h-1z" /><path fill="#a82a89" d="M74 10h1v1h-1zM70 11h1v1h-1zM66 12h1v1h-1z" /><path fill="#a82a8a" d="M75 10h1v1h-1z" /><path fill="#5474e3" d="M34 11h1v1h-1z" /><path fill="#5675e2" d="M35 11h1v1h-1zM37 12h1v1h-1zM40 14h1v1h-1zM43 16h1v1h-1zM45 17h1v1h-1zM48 19h1v1h-1zM51 21h1v1h-1zM53 22h1v1h-1zM56 24h1v1h-1zM59 26h1v1h-1zM61 27h1v1h-1z" /><path fill="#5875e2" d="M36 11h1v1h-1zM38 12h1v1h-1zM41 14h1v1h-1zM46 17h1v1h-1zM49 19h1v1h-1zM54 22h1v1h-1zM57 24h1v1h-1zM62 27h1v1h-1zM73 33h24v1h-24z" /><path fill="#5976e2" d="M37 11h1v1h-1zM40 13h1v1h-1zM43 15h1v1h-1zM45 16h1v1h-1zM48 18h1v1h-1zM51 20h1v1h-1zM53 21h1v1h-1zM56 23h1v1h-1zM59 25h1v1h-1zM61 26h1v1h-1z" /><path fill="#5b76e2" d="M38 11h1v1h-1zM41 13h1v1h-1zM46 16h1v1h-1zM49 18h1v1h-1zM51 19h1v1h-1zM54 21h1v1h-1zM57 23h1v1h-1zM59 24h1v1h-1zM62 26h1v1h-1zM74 32h23v1h-23z" /><path fill="#974fad" d="M63 11h1v1h-1z" /><path fill="#a92a8a" d="M71 11h1v1h-1zM67 12h1v1h-1zM66 63h1v1h-1z" /><path fill="#aa2a8a" d="M72 11h1v1h-1zM68 12h1v1h-1zM64 13h1v1h-1zM65 63h1v1h-1z" /><path fill="#ab2a8a" d="M73 11h1v1h-1zM69 12h1v1h-1zM65 13h1v1h-1z" /><path fill="#ac2a8b" d="M74 11h1v1h-1zM70 12h1v1h-1zM66 13h1v1h-1zM64 63h1v1h-1z" /><path fill="#ad2a8b" d="M75 11h1v1h-1zM71 12h1v1h-1zM67 13h1v1h-1z" /><path fill="#5075e2" d="M34 12h1v1h-1z" /><path fill="#5375e3" d="M35 12h1v1h-1zM37 13h1v1h-1zM40 15h1v1h-1zM43 17h1v1h-1zM45 18h1v1h-1zM48 20h1v1h-1zM51 22h1v1h-1zM53 23h1v1h-1zM56 25h1v1h-1zM59 27h1v1h-1zM61 28h1v1h-1zM71 35h26v1h-26z" /><path fill="#5575e3" d="M36 12h1v1h-1zM44 17h1v1h-1zM52 22h1v1h-1z" /><path fill="#6376e0" d="M44 12h1v1h-1zM52 17h1v1h-1zM60 22h1v1h-1z" /><path fill="#984faf" d="M63 12h1v1h-1z" /><path fill="#ae2a8c" d="M72 12h1v1h-1zM68 13h1v1h-1zM64 14h1v1h-1zM66 62h1v1h-1z" /><path fill="#af2a8c" d="M73 12h1v1h-1z" /><path fill="#b02b8c" d="M74 12h1v1h-1zM70 13h1v1h-1zM66 14h1v1h-1z" /><path fill="#b12b8d" d="M75 12h1v1h-1zM71 13h1v1h-1zM67 14h1v1h-1zM64 62h1v1h-1z" /><path fill="#4d75e3" d="M33 13h1v1h-1z" /><path fill="#4f75e3" d="M34 13h1v1h-1zM36 14h1v1h-1zM37 15h1v1h-1zM39 16h1v1h-1zM42 18h1v1h-1zM44 19h1v1h-1zM47 21h1v1h-1zM50 23h1v1h-1zM52 24h1v1h-1zM55 26h1v1h-1zM58 28h1v1h-1zM60 29h1v1h-1z" /><path fill="#5075e3" d="M35 13h1v1h-1zM38 15h1v1h-1zM40 16h1v1h-1zM41 17h1v1h-1zM43 18h1v1h-1zM46 20h1v1h-1zM48 21h1v1h-1zM49 22h1v1h-1zM51 23h1v1h-1zM54 25h1v1h-1zM56 26h1v1h-1zM57 27h1v1h-1zM59 28h1v1h-1zM62 30h1v1h-1zM70 36h27v1h-27z" /><path fill="#5275e3" d="M36 13h1v1h-1zM38 14h1v1h-1zM41 16h1v1h-1zM44 18h1v1h-1zM46 19h1v1h-1zM49 21h1v1h-1zM52 23h1v1h-1zM54 24h1v1h-1zM57 26h1v1h-1zM60 28h1v1h-1zM62 29h1v1h-1z" /><path fill="#5575e2" d="M38 13h1v1h-1zM41 15h1v1h-1zM46 18h1v1h-1zM49 20h1v1h-1zM54 23h1v1h-1zM57 25h1v1h-1zM62 28h1v1h-1z" /><path fill="#5775e2" d="M39 13h1v1h-1zM42 15h1v1h-1zM44 16h1v1h-1zM47 18h1v1h-1zM50 20h1v1h-1zM52 21h1v1h-1zM55 23h1v1h-1zM58 25h1v1h-1zM60 26h1v1h-1z" /><path fill="#994eb0" d="M63 13h1v1h-1z" /><path fill="#af2b8c" d="M69 13h1v1h-1zM65 14h1v1h-1z" /><path fill="#b22b8d" d="M72 13h1v1h-1zM68 14h1v1h-1zM64 15h1v1h-1z" /><path fill="#b32b8e" d="M73 13h1v1h-1zM69 14h1v1h-1zM65 15h1v1h-1z" /><path fill="#b42b8e" d="M74 13h1v1h-1zM70 14h1v1h-1zM66 15h1v1h-1zM66 61h1v1h-1z" /><path fill="#b52b8e" d="M75 13h1v1h-1zM71 14h1v1h-1zM67 15h1v1h-1z" /><path fill="#4a75e4" d="M33 14h1v1h-1z" /><path fill="#4d75e4" d="M34 14h1v1h-1zM36 15h1v1h-1zM39 17h1v1h-1zM41 18h1v1h-1zM42 19h1v1h-1zM44 20h1v1h-1zM47 22h1v1h-1zM49 23h1v1h-1zM50 24h1v1h-1zM52 25h1v1h-1zM55 27h1v1h-1zM57 28h1v1h-1zM58 29h1v1h-1zM60 30h1v1h-1zM70 37h27v1h-27z" /><path fill="#4e75e4" d="M35 14h1v1h-1zM38 16h1v1h-1zM43 19h1v1h-1zM46 21h1v1h-1zM51 24h1v1h-1zM54 26h1v1h-1zM59 29h1v1h-1zM62 31h1v1h-1z" /><path fill="#5175e3" d="M37 14h1v1h-1zM39 15h1v1h-1zM42 17h1v1h-1zM45 19h1v1h-1zM47 20h1v1h-1zM50 22h1v1h-1zM53 24h1v1h-1zM55 25h1v1h-1zM58 27h1v1h-1zM61 29h1v1h-1z" /><path fill="#5475e3" d="M39 14h1v1h-1zM42 16h1v1h-1zM47 19h1v1h-1zM50 21h1v1h-1zM55 24h1v1h-1zM58 26h1v1h-1zM60 27h1v1h-1z" /><path fill="#5c76e2" d="M43 14h1v1h-1zM48 17h1v1h-1zM56 22h1v1h-1z" /><path fill="#9a4eb0" d="M63 14h1v1h-1z" /><path fill="#b62b8f" d="M72 14h1v1h-1zM68 15h1v1h-1zM64 16h1v1h-1z" /><path fill="#b72b8f" d="M73 14h1v1h-1zM69 15h1v1h-1zM65 16h1v1h-1zM64 61h1v1h-1z" /><path fill="#b82b8f" d="M74 14h1v1h-1zM70 15h1v1h-1zM66 16h1v1h-1z" /><path fill="#b92b90" d="M75 14h1v1h-1zM71 15h1v1h-1zM67 16h1v1h-1z" /><path fill="#b92c90" d="M76 14h1v1h-1z" /><path fill="#4974e4" d="M33 15h1v1h-1zM36 17h1v1h-1zM38 18h1v1h-1zM39 19h1v1h-1zM41 20h1v1h-1zM44 22h1v1h-1zM46 23h1v1h-1zM47 24h1v1h-1zM49 25h1v1h-1zM52 27h1v1h-1zM54 28h1v1h-1zM55 29h1v1h-1zM57 30h1v1h-1zM60 32h1v1h-1zM62 33h1v1h-1z" /><path fill="#4b74e4" d="M34 15h1v1h-1zM39 18h1v1h-1zM42 20h1v1h-1zM47 23h1v1h-1zM55 28h1v1h-1zM60 31h1v1h-1zM69 38h28v1h-28z" /><path fill="#4c75e4" d="M35 15h1v1h-1zM37 16h1v1h-1zM38 17h1v1h-1zM40 18h1v1h-1zM43 20h1v1h-1zM45 21h1v1h-1zM46 22h1v1h-1zM48 23h1v1h-1zM51 25h1v1h-1zM53 26h1v1h-1zM54 27h1v1h-1zM56 28h1v1h-1zM59 30h1v1h-1zM61 31h1v1h-1zM62 32h1v1h-1z" /><path fill="#9a4eb1" d="M63 15h1v1h-1z" /><path fill="#ba2c90" d="M72 15h1v1h-1zM68 16h1v1h-1zM64 17h1v1h-1z" /><path fill="#bb2c91" d="M73 15h1v1h-1zM69 16h1v1h-1zM65 17h1v1h-1zM65 60h1v1h-1z" /><path fill="#bc2c91" d="M74 15h1v1h-1zM70 16h1v1h-1zM66 17h1v1h-1z" /><path fill="#bd2c91" d="M75 15h1v1h-1zM71 16h1v1h-1zM67 17h1v1h-1zM64 60h1v1h-1z" /><path fill="#be2c92" d="M76 15h1v1h-1zM72 16h1v1h-1zM68 17h1v1h-1zM64 18h1v1h-1z" /><path fill="#4674e4" d="M32 16h1v1h-1z" /><path fill="#4774e5" d="M33 16h1v1h-1zM36 18h1v1h-1zM38 19h1v1h-1zM39 20h1v1h-1zM41 21h1v1h-1zM44 23h1v1h-1zM46 24h1v1h-1zM49 26h1v1h-1zM52 28h1v1h-1zM54 29h1v1h-1zM57 31h1v1h-1zM60 33h1v1h-1zM62 34h1v1h-1z" /><path fill="#4874e4" d="M34 16h1v1h-1zM37 18h1v1h-1zM42 21h1v1h-1zM45 23h1v1h-1zM50 26h1v1h-1zM53 28h1v1h-1zM58 31h1v1h-1zM61 33h1v1h-1z" /><path fill="#4a74e4" d="M35 16h1v1h-1zM37 17h1v1h-1zM40 19h1v1h-1zM43 21h1v1h-1zM45 22h1v1h-1zM48 24h1v1h-1zM50 25h1v1h-1zM51 26h1v1h-1zM53 27h1v1h-1zM56 29h1v1h-1zM58 30h1v1h-1zM59 31h1v1h-1zM61 32h1v1h-1z" /><path fill="#4b75e4" d="M36 16h1v1h-1zM41 19h1v1h-1zM44 21h1v1h-1zM49 24h1v1h-1zM52 26h1v1h-1zM57 29h1v1h-1z" /><path fill="#9b4eb2" d="M63 16h1v1h-1z" /><path fill="#bf2c92" d="M73 16h1v1h-1zM69 17h1v1h-1zM65 18h1v1h-1zM66 59h1v1h-1z" /><path fill="#c02c92" d="M74 16h1v1h-1zM70 17h1v1h-1zM66 18h1v1h-1z" /><path fill="#c12c93" d="M75 16h1v1h-1zM71 17h1v1h-1zM67 18h1v1h-1z" /><path fill="#c22c93" d="M76 16h1v1h-1zM72 17h1v1h-1zM68 18h1v1h-1zM64 19h1v1h-1zM64 59h1v1h-1z" /><path fill="#4473e5" d="M32 17h1v1h-1z" /><path fill="#4574e5" d="M33 17h1v1h-1zM35 18h1v1h-1zM36 19h1v1h-1zM38 20h1v1h-1zM41 22h1v1h-1zM43 23h1v1h-1zM44 24h1v1h-1zM46 25h1v1h-1zM49 27h1v1h-1zM51 28h1v1h-1zM52 29h1v1h-1zM54 30h1v1h-1zM57 32h1v1h-1zM59 33h1v1h-1zM60 34h1v1h-1zM62 35h1v1h-1zM69 40h28v1h-28z" /><path fill="#4674e5" d="M34 17h1v1h-1zM37 19h1v1h-1zM40 21h1v1h-1zM42 22h1v1h-1zM45 24h1v1h-1zM47 25h1v1h-1zM48 26h1v1h-1zM50 27h1v1h-1zM53 29h1v1h-1zM55 30h1v1h-1zM56 31h1v1h-1zM58 32h1v1h-1zM61 34h1v1h-1z" /><path fill="#4874e5" d="M35 17h1v1h-1zM40 20h1v1h-1zM43 22h1v1h-1zM48 25h1v1h-1zM51 27h1v1h-1zM56 30h1v1h-1zM59 32h1v1h-1zM69 39h28v1h-28z" /><path fill="#4e75e3" d="M40 17h1v1h-1zM45 20h1v1h-1zM48 22h1v1h-1zM53 25h1v1h-1zM56 27h1v1h-1zM61 30h1v1h-1z" /><path fill="#9d4db2" d="M63 17h1v1h-1z" /><path fill="#c32c94" d="M73 17h1v1h-1zM69 18h1v1h-1zM65 19h1v1h-1z" /><path fill="#c42c94" d="M74 17h1v1h-1zM70 18h1v1h-1zM66 19h1v1h-1zM66 58h1v1h-1z" /><path fill="#c52d94" d="M75 17h1v1h-1zM71 18h1v1h-1zM67 19h1v1h-1z" /><path fill="#c62d95" d="M76 17h1v1h-1zM72 18h1v1h-1zM68 19h1v1h-1zM64 20h1v1h-1z" /><path fill="#c62c95" d="M77 17h1v1h-1z" /><path fill="#4174e6" d="M32 18h1v1h-1zM33 19h1v1h-1zM35 20h1v1h-1zM38 22h1v1h-1zM40 23h1v1h-1zM41 24h1v1h-1zM43 25h1v1h-1zM46 27h1v1h-1zM48 28h1v1h-1zM49 29h1v1h-1zM51 30h1v1h-1zM54 32h1v1h-1zM56 33h1v1h-1zM57 34h1v1h-1zM59 35h1v1h-1zM62 37h1v1h-1z" /><path fill="#4374e5" d="M33 18h1v1h-1zM35 19h1v1h-1zM36 20h1v1h-1zM38 21h1v1h-1zM41 23h1v1h-1zM43 24h1v1h-1zM44 25h1v1h-1zM46 26h1v1h-1zM49 28h1v1h-1zM51 29h1v1h-1zM54 31h1v1h-1zM57 33h1v1h-1zM59 34h1v1h-1zM62 36h1v1h-1zM68 41h29v1h-29z" /><path fill="#4474e5" d="M34 18h1v1h-1zM37 20h1v1h-1zM39 21h1v1h-1zM40 22h1v1h-1zM42 23h1v1h-1zM45 25h1v1h-1zM47 26h1v1h-1zM48 27h1v1h-1zM50 28h1v1h-1zM53 30h1v1h-1zM55 31h1v1h-1zM56 32h1v1h-1zM58 33h1v1h-1zM61 35h1v1h-1z" /><path fill="#9e4db3" d="M63 18h1v1h-1z" /><path fill="#c72d95" d="M73 18h1v1h-1zM69 19h1v1h-1zM65 20h1v1h-1z" /><path fill="#c82d95" d="M74 18h1v1h-1zM70 19h1v1h-1zM66 20h1v1h-1zM66 57h1v1h-1z" /><path fill="#c92d96" d="M75 18h3v1h-3zM71 19h2v1h-2zM67 20h2v1h-2zM64 21h1v1h-1zM65 57h1v1h-1z" /><path fill="#3e73e6" d="M31 19h1v1h-1zM34 21h1v1h-1zM36 22h1v1h-1zM39 24h1v1h-1zM42 26h1v1h-1zM44 27h1v1h-1zM47 29h1v1h-1zM49 30h1v1h-1zM50 31h1v1h-1zM52 32h1v1h-1zM55 34h1v1h-1zM57 35h1v1h-1zM58 36h1v1h-1zM60 37h1v1h-1zM68 44h29v1h-29z" /><path fill="#3f74e6" d="M32 19h1v1h-1zM35 21h1v1h-1zM40 24h1v1h-1zM43 26h1v1h-1zM48 29h1v1h-1zM51 31h1v1h-1zM56 34h1v1h-1zM59 36h1v1h-1zM68 43h29v1h-29z" /><path fill="#4274e5" d="M34 19h1v1h-1zM39 22h1v1h-1zM47 27h1v1h-1zM52 30h1v1h-1zM55 32h1v1h-1zM60 35h1v1h-1z" /><path fill="#9f4cb4" d="M63 19h1v1h-1z" /><path fill="#ca2d96" d="M73 19h1v1h-1zM69 20h1v1h-1zM65 21h1v1h-1zM64 57h1v1h-1z" /><path fill="#cb2d97" d="M74 19h1v1h-1zM70 20h1v1h-1zM66 21h1v1h-1z" /><path fill="#cc2d97" d="M75 19h3v1h-3zM71 20h2v1h-2zM67 21h2v1h-2zM64 22h1v1h-1zM66 56h1v1h-1z" /><path fill="#3b72e6" d="M31 20h1v1h-1z" /><path fill="#3d73e6" d="M32 20h1v1h-1zM35 22h1v1h-1zM37 23h1v1h-1zM38 24h1v1h-1zM40 25h1v1h-1zM43 27h1v1h-1zM45 28h1v1h-1zM46 29h1v1h-1zM48 30h1v1h-1zM51 32h1v1h-1zM53 33h1v1h-1zM54 34h1v1h-1zM56 35h1v1h-1zM59 37h1v1h-1zM61 38h1v1h-1zM62 39h1v1h-1z" /><path fill="#3f73e6" d="M33 20h1v1h-1zM38 23h1v1h-1zM41 25h1v1h-1zM46 28h1v1h-1zM54 33h1v1h-1zM62 38h1v1h-1z" /><path fill="#4074e6" d="M34 20h1v1h-1zM36 21h1v1h-1zM37 22h1v1h-1zM39 23h1v1h-1zM42 25h1v1h-1zM44 26h1v1h-1zM45 27h1v1h-1zM47 28h1v1h-1zM50 30h1v1h-1zM52 31h1v1h-1zM53 32h1v1h-1zM55 33h1v1h-1zM58 35h1v1h-1zM60 36h1v1h-1zM61 37h1v1h-1z" /><path fill="#a04db4" d="M63 20h1v1h-1z" /><path fill="#cd2d97" d="M73 20h1v1h-1zM69 21h1v1h-1zM65 22h1v1h-1zM65 56h1v1h-1z" /><path fill="#ce2d98" d="M74 20h2v1h-2zM70 21h2v1h-2zM66 22h2v1h-2zM64 56h1v1h-1z" /><path fill="#cf2e98" d="M76 20h1v1h-1zM72 21h1v1h-1zM68 22h1v1h-1zM64 23h1v1h-1z" /><path fill="#d02e98" d="M77 20h1v1h-1zM73 21h1v1h-1zM69 22h1v1h-1zM65 23h1v1h-1z" /><path fill="#3a73e7" d="M31 21h1v1h-1zM33 22h1v1h-1zM36 24h1v1h-1zM39 26h1v1h-1zM41 27h1v1h-1zM44 29h1v1h-1zM47 31h1v1h-1zM49 32h1v1h-1zM52 34h1v1h-1zM54 35h1v1h-1zM55 36h1v1h-1zM57 37h1v1h-1zM60 39h1v1h-1zM62 40h1v1h-1z" /><path fill="#3b73e7" d="M32 21h1v1h-1zM35 23h1v1h-1zM37 24h1v1h-1zM38 25h1v1h-1zM40 26h1v1h-1zM43 28h1v1h-1zM45 29h1v1h-1zM46 30h1v1h-1zM48 31h1v1h-1zM51 33h1v1h-1zM53 34h1v1h-1zM56 36h1v1h-1zM59 38h1v1h-1zM61 39h1v1h-1z" /><path fill="#3c73e6" d="M33 21h1v1h-1zM36 23h1v1h-1zM41 26h1v1h-1zM44 28h1v1h-1zM49 31h1v1h-1zM52 33h1v1h-1zM57 36h1v1h-1zM60 38h1v1h-1zM68 45h29v1h-29z" /><path fill="#4274e6" d="M37 21h1v1h-1zM42 24h1v1h-1zM45 26h1v1h-1zM50 29h1v1h-1zM53 31h1v1h-1zM58 34h1v1h-1zM61 36h1v1h-1z" /><path fill="#a24cb4" d="M63 21h1v1h-1z" /><path fill="#d02e99" d="M74 21h1v1h-1zM70 22h1v1h-1zM66 23h1v1h-1z" /><path fill="#d12e99" d="M75 21h1v1h-1zM71 22h1v1h-1zM67 23h1v1h-1z" /><path fill="#d22e99" d="M76 21h1v1h-1zM72 22h1v1h-1zM68 23h1v1h-1zM64 24h1v1h-1z" /><path fill="#d32e99" d="M77 21h1v1h-1zM73 22h1v1h-1zM69 23h1v1h-1zM65 24h1v1h-1z" /><path fill="#d22e9a" d="M78 21h1v1h-1z" /><path fill="#3673e7" d="M30 22h1v1h-1zM32 24h1v1h-1zM33 25h2v1h-2zM35 26h1v1h-1zM37 27h1v1h-1zM38 28h1v1h-1zM40 29h1v1h-1zM41 30h2v1h-2zM43 31h1v1h-1zM45 32h1v1h-1zM46 33h1v1h-1zM48 34h1v1h-1zM49 35h2v1h-2zM51 36h1v1h-1zM53 37h1v1h-1zM54 38h1v1h-1zM56 39h1v1h-1zM57 40h2v1h-2zM59 41h1v1h-1zM61 42h1v1h-1zM62 43h1v1h-1zM68 48h29v1h-29z" /><path fill="#3873e7" d="M31 22h1v1h-1zM32 23h2v1h-2zM34 24h1v1h-1zM36 25h1v1h-1zM37 26h1v1h-1zM39 27h1v1h-1zM40 28h2v1h-2zM42 29h1v1h-1zM44 30h1v1h-1zM45 31h1v1h-1zM47 32h1v1h-1zM48 33h2v1h-2zM50 34h1v1h-1zM52 35h1v1h-1zM53 36h1v1h-1zM55 37h1v1h-1zM57 38h1v1h-1zM58 39h1v1h-1zM60 40h1v1h-1zM61 41h1v1h-1zM68 47h29v1h-29z" /><path fill="#3973e7" d="M32 22h1v1h-1zM34 23h1v1h-1zM35 24h1v1h-1zM37 25h1v1h-1zM38 26h1v1h-1zM40 27h1v1h-1zM42 28h1v1h-1zM43 29h1v1h-1zM45 30h1v1h-1zM46 31h1v1h-1zM48 32h1v1h-1zM50 33h1v1h-1zM51 34h1v1h-1zM53 35h1v1h-1zM54 36h1v1h-1zM56 37h1v1h-1zM58 38h1v1h-1zM59 39h1v1h-1zM61 40h1v1h-1zM62 41h1v1h-1z" /><path fill="#3c73e7" d="M34 22h1v1h-1zM39 25h1v1h-1zM42 27h1v1h-1zM47 30h1v1h-1zM50 32h1v1h-1zM55 35h1v1h-1zM58 37h1v1h-1z" /><path fill="#a34bb5" d="M63 22h1v1h-1zM63 23h1v1h-1z" /><path fill="#d32e9a" d="M74 22h1v1h-1zM70 23h1v1h-1zM66 24h1v1h-1z" /><path fill="#d42e9a" d="M75 22h1v1h-1zM71 23h1v1h-1zM67 24h1v1h-1zM66 54h1v1h-1z" /><path fill="#d52e9a" d="M76 22h2v1h-2zM72 23h2v1h-2zM68 24h2v1h-2zM64 25h2v1h-2zM65 54h1v1h-1z" /><path fill="#d62e9a" d="M78 22h1v1h-1z" /><path fill="#3672e7" d="M30 23h1v1h-1z" /><path fill="#3773e7" d="M31 23h1v1h-1zM33 24h1v1h-1zM35 25h1v1h-1zM36 26h1v1h-1zM38 27h1v1h-1zM39 28h1v1h-1zM41 29h1v1h-1zM43 30h1v1h-1zM44 31h1v1h-1zM46 32h1v1h-1zM47 33h1v1h-1zM49 34h1v1h-1zM51 35h1v1h-1zM52 36h1v1h-1zM54 37h1v1h-1zM55 38h2v1h-2zM57 39h1v1h-1zM59 40h1v1h-1zM60 41h1v1h-1zM62 42h1v1h-1z" /><path fill="#d62e9b" d="M74 23h1v1h-1zM70 24h1v1h-1zM66 25h1v1h-1zM64 54h1v1h-1z" /><path fill="#d72e9b" d="M75 23h2v1h-2zM71 24h2v1h-2zM67 25h2v1h-2zM64 26h1v1h-1z" /><path fill="#d82e9b" d="M77 23h1v1h-1zM73 24h1v1h-1zM69 25h1v1h-1zM65 26h1v1h-1z" /><path fill="#d92e9c" d="M78 23h1v1h-1zM74 24h2v1h-2zM70 25h2v1h-2zM66 26h2v1h-2z" /><path fill="#3473e8" d="M30 24h1v1h-1zM31 25h1v1h-1zM33 26h1v1h-1zM34 27h1v1h-1zM36 28h1v1h-1zM38 29h1v1h-1zM39 30h1v1h-1zM41 31h1v1h-1zM42 32h1v1h-1zM44 33h1v1h-1zM46 34h1v1h-1zM47 35h1v1h-1zM49 36h1v1h-1zM50 37h2v1h-2zM52 38h1v1h-1zM54 39h1v1h-1zM55 40h1v1h-1zM57 41h1v1h-1zM58 42h2v1h-2zM60 43h1v1h-1zM62 44h1v1h-1z" /><path fill="#3573e7" d="M31 24h1v1h-1zM32 25h1v1h-1zM34 26h1v1h-1zM35 27h2v1h-2zM37 28h1v1h-1zM39 29h1v1h-1zM40 30h1v1h-1zM42 31h1v1h-1zM43 32h2v1h-2zM45 33h1v1h-1zM47 34h1v1h-1zM48 35h1v1h-1zM50 36h1v1h-1zM52 37h1v1h-1zM53 38h1v1h-1zM55 39h1v1h-1zM56 40h1v1h-1zM58 41h1v1h-1zM60 42h1v1h-1zM61 43h1v1h-1z" /><path fill="#a54bb6" d="M63 24h1v1h-1zM63 25h1v1h-1z" /><path fill="#da2f9c" d="M76 24h1v1h-1zM72 25h1v1h-1zM68 26h1v1h-1zM64 27h1v1h-1z" /><path fill="#db2f9c" d="M77 24h1v1h-1z" /><path fill="#dc2f9d" d="M78 24h1v1h-1zM74 25h2v1h-2zM70 26h2v1h-2zM66 27h2v1h-2z" /><path fill="#3172e8" d="M29 25h1v1h-1zM68 51h29v1h-29z" /><path fill="#3373e8" d="M30 25h1v1h-1zM32 26h1v1h-1zM33 27h1v1h-1zM35 28h1v1h-1zM36 29h2v1h-2zM38 30h1v1h-1zM40 31h1v1h-1zM41 32h1v1h-1zM43 33h1v1h-1zM44 34h2v1h-2zM46 35h1v1h-1zM48 36h1v1h-1zM49 37h1v1h-1zM51 38h1v1h-1zM52 39h2v1h-2zM54 40h1v1h-1zM56 41h1v1h-1zM57 42h1v1h-1zM59 43h1v1h-1zM60 44h2v1h-2zM62 45h1v1h-1z" /><path fill="#db2f9d" d="M73 25h1v1h-1zM69 26h1v1h-1zM65 27h1v1h-1z" /><path fill="#dd2f9d" d="M76 25h1v1h-1zM72 26h1v1h-1zM68 27h1v1h-1zM64 28h1v1h-1z" /><path fill="#de2f9e" d="M77 25h2v1h-2zM73 26h2v1h-2zM69 27h2v1h-2zM65 28h2v1h-2z" /><path fill="#de2f9d" d="M79 25h1v1h-1z" /><path fill="#3172e7" d="M29 26h1v1h-1z" /><path fill="#3273e8" d="M30 26h2v1h-2zM32 27h1v1h-1zM34 28h1v1h-1zM35 29h1v1h-1zM37 30h1v1h-1zM39 31h1v1h-1zM40 32h1v1h-1zM42 33h1v1h-1zM43 34h1v1h-1zM45 35h1v1h-1zM47 36h1v1h-1zM48 37h1v1h-1zM50 38h1v1h-1zM51 39h1v1h-1zM53 40h1v1h-1zM55 41h1v1h-1zM56 42h1v1h-1zM58 43h1v1h-1zM59 44h1v1h-1zM61 45h1v1h-1z" /><path fill="#a74bb7" d="M63 26h1v1h-1z" /><path fill="#df2f9e" d="M75 26h2v1h-2zM71 27h2v1h-2zM67 28h2v1h-2zM64 29h1v1h-1z" /><path fill="#e02f9e" d="M77 26h2v1h-2zM73 27h2v1h-2zM69 28h2v1h-2zM65 29h2v1h-2zM65 51h2v1h-2z" /><path fill="#e12f9e" d="M79 26h1v1h-1z" /><path fill="#2f72e8" d="M29 27h1v1h-1zM30 28h1v1h-1zM32 29h1v1h-1zM34 30h1v1h-1zM35 31h1v1h-1zM37 32h1v1h-1zM38 33h1v1h-1zM40 34h1v1h-1zM42 35h1v1h-1zM43 36h1v1h-1zM45 37h1v1h-1zM46 38h1v1h-1zM48 39h1v1h-1zM50 40h1v1h-1zM51 41h1v1h-1zM53 42h1v1h-1zM54 43h1v1h-1zM56 44h1v1h-1zM58 45h1v1h-1zM59 46h1v1h-1zM61 47h1v1h-1zM62 48h1v1h-1zM68 52h29v1h-29z" /><path fill="#3073e8" d="M30 27h1v1h-1zM32 28h1v1h-1zM35 30h1v1h-1zM38 32h1v1h-1zM40 33h1v1h-1zM43 35h1v1h-1zM46 37h1v1h-1zM48 38h1v1h-1zM51 40h1v1h-1zM54 42h1v1h-1zM56 43h1v1h-1zM59 45h1v1h-1zM62 47h1v1h-1z" /><path fill="#3173e8" d="M31 27h1v1h-1zM33 28h1v1h-1zM34 29h1v1h-1zM36 30h1v1h-1zM37 31h2v1h-2zM39 32h1v1h-1zM41 33h1v1h-1zM42 34h1v1h-1zM44 35h1v1h-1zM45 36h2v1h-2zM47 37h1v1h-1zM49 38h1v1h-1zM50 39h1v1h-1zM52 40h1v1h-1zM53 41h2v1h-2zM55 42h1v1h-1zM57 43h1v1h-1zM58 44h1v1h-1zM60 45h1v1h-1zM61 46h2v1h-2z" /><path fill="#a84ab7" d="M63 27h1v1h-1z" /><path fill="#e12f9f" d="M75 27h3v1h-3zM71 28h2v1h-2zM67 29h2v1h-2zM64 30h1v1h-1zM64 51h1v1h-1z" /><path fill="#e22f9f" d="M78 27h2v1h-2zM73 28h3v1h-3zM69 29h3v1h-3zM65 30h3v1h-3z" /><path fill="#2d72e7" d="M28 28h1v1h-1z" /><path fill="#2e72e8" d="M29 28h1v1h-1zM31 29h1v1h-1zM32 30h2v1h-2zM34 31h1v1h-1zM36 32h1v1h-1zM37 33h1v1h-1zM39 34h1v1h-1zM40 35h2v1h-2zM42 36h1v1h-1zM44 37h1v1h-1zM45 38h1v1h-1zM47 39h1v1h-1zM48 40h2v1h-2zM50 41h1v1h-1zM52 42h1v1h-1zM53 43h1v1h-1zM55 44h1v1h-1zM56 45h2v1h-2zM58 46h1v1h-1zM60 47h1v1h-1zM61 48h1v1h-1z" /><path fill="#3072e8" d="M31 28h1v1h-1zM33 29h1v1h-1zM36 31h1v1h-1zM39 33h1v1h-1zM41 34h1v1h-1zM44 36h1v1h-1zM47 38h1v1h-1zM49 39h1v1h-1zM52 41h1v1h-1zM55 43h1v1h-1zM57 44h1v1h-1zM60 46h1v1h-1z" /><path fill="#a84ab8" d="M63 28h1v1h-1z" /><path fill="#e32f9f" d="M76 28h1v1h-1zM72 29h1v1h-1zM68 30h1v1h-1zM64 31h1v1h-1zM66 50h1v1h-1z" /><path fill="#e32fa0" d="M77 28h1v1h-1zM73 29h1v1h-1zM69 30h1v1h-1zM65 31h1v1h-1z" /><path fill="#e42fa0" d="M78 28h1v1h-1zM74 29h2v1h-2zM70 30h3v1h-3zM66 31h3v1h-3zM64 32h1v1h-1z" /><path fill="#e131a2" d="M79 28h1v1h-1z" /><path fill="#c541b0" d="M80 28h1v1h-1z" /><path fill="#2b72e9" d="M28 29h1v1h-1zM29 30h1v1h-1zM31 31h1v1h-1zM32 32h1v1h-1zM34 33h1v1h-1zM35 34h2v1h-2zM37 35h1v1h-1zM39 36h1v1h-1zM40 37h1v1h-1zM42 38h1v1h-1zM43 39h2v1h-2zM45 40h1v1h-1zM47 41h1v1h-1zM48 42h1v1h-1zM50 43h1v1h-1zM51 44h2v1h-2zM53 45h1v1h-1zM55 46h1v1h-1zM56 47h1v1h-1zM58 48h1v1h-1zM59 49h2v1h-2zM61 50h1v1h-1z" /><path fill="#2c72e8" d="M29 29h1v1h-1zM30 30h1v1h-1zM32 31h1v1h-1zM33 32h1v1h-1zM35 33h1v1h-1zM37 34h1v1h-1zM38 35h1v1h-1zM40 36h1v1h-1zM41 37h1v1h-1zM43 38h1v1h-1zM45 39h1v1h-1zM46 40h1v1h-1zM48 41h1v1h-1zM49 42h2v1h-2zM51 43h1v1h-1zM53 44h1v1h-1zM54 45h1v1h-1zM56 46h1v1h-1zM57 47h2v1h-2zM59 48h1v1h-1zM61 49h1v1h-1zM62 50h1v1h-1zM68 54h28v1h-28z" /><path fill="#2d72e8" d="M30 29h1v1h-1zM31 30h1v1h-1zM33 31h1v1h-1zM34 32h2v1h-2zM36 33h1v1h-1zM38 34h1v1h-1zM39 35h1v1h-1zM41 36h1v1h-1zM42 37h2v1h-2zM44 38h1v1h-1zM46 39h1v1h-1zM47 40h1v1h-1zM49 41h1v1h-1zM51 42h1v1h-1zM52 43h1v1h-1zM54 44h1v1h-1zM55 45h1v1h-1zM57 46h1v1h-1zM59 47h1v1h-1zM60 48h1v1h-1zM62 49h1v1h-1zM68 53h29v1h-29z" /><path fill="#aa4ab8" d="M63 29h1v1h-1z" /><path fill="#de33a3" d="M76 29h1v1h-1z" /><path fill="#b44ab9" d="M77 29h1v1h-1z" /><path fill="#8d60cd" d="M78 29h1v1h-1z" /><path fill="#6973de" d="M79 29h1v1h-1z" /><path fill="#6476e1" d="M80 29h15v1h-15z" /><path fill="#2971e9" d="M27 30h1v1h-1z" /><path fill="#2a72e9" d="M28 30h1v1h-1zM29 31h2v1h-2zM31 32h1v1h-1zM33 33h1v1h-1zM34 34h1v1h-1zM36 35h1v1h-1zM37 36h2v1h-2zM39 37h1v1h-1zM41 38h1v1h-1zM42 39h1v1h-1zM44 40h1v1h-1zM46 41h1v1h-1zM47 42h1v1h-1zM49 43h1v1h-1zM50 44h1v1h-1zM52 45h1v1h-1zM54 46h1v1h-1zM55 47h1v1h-1zM57 48h1v1h-1zM58 49h1v1h-1zM60 50h1v1h-1zM62 51h1v1h-1zM68 55h28v1h-28z" /><path fill="#ab49b9" d="M63 30h1v1h-1z" /><path fill="#e52fa0" d="M73 30h1v1h-1zM69 31h2v1h-2zM65 32h2v1h-2zM64 50h1v1h-1z" /><path fill="#e231a1" d="M74 30h1v1h-1z" /><path fill="#ad4dbc" d="M75 30h1v1h-1z" /><path fill="#6d70dc" d="M76 30h1v1h-1z" /><path fill="#2771e8" d="M27 31h1v1h-1z" /><path fill="#2972e9" d="M28 31h1v1h-1zM30 32h1v1h-1zM32 33h1v1h-1zM33 34h1v1h-1zM35 35h1v1h-1zM36 36h1v1h-1zM38 37h1v1h-1zM40 38h1v1h-1zM41 39h1v1h-1zM43 40h1v1h-1zM44 41h2v1h-2zM46 42h1v1h-1zM48 43h1v1h-1zM49 44h1v1h-1zM51 45h1v1h-1zM52 46h2v1h-2zM54 47h1v1h-1zM56 48h1v1h-1zM57 49h1v1h-1zM59 50h1v1h-1zM60 51h2v1h-2zM62 52h1v1h-1zM68 56h28v1h-28z" /><path fill="#ac49b8" d="M63 31h1v1h-1z" /><path fill="#e630a1" d="M71 31h2v1h-2zM67 32h3v1h-3zM64 33h2v1h-2z" /><path fill="#d13bab" d="M73 31h1v1h-1z" /><path fill="#736bd8" d="M74 31h1v1h-1z" /><path fill="#5e76e2" d="M75 31h22v1h-22z" /><path fill="#2772e9" d="M27 32h2v1h-2zM29 33h1v1h-1zM30 34h2v1h-2zM32 35h2v1h-2zM34 36h1v1h-1zM35 37h2v1h-2zM37 38h1v1h-1zM38 39h2v1h-2zM40 40h2v1h-2zM42 41h1v1h-1zM43 42h2v1h-2zM45 43h1v1h-1zM46 44h2v1h-2zM48 45h2v1h-2zM50 46h1v1h-1zM51 47h2v1h-2zM53 48h1v1h-1zM54 49h2v1h-2zM56 50h2v1h-2zM58 51h1v1h-1zM59 52h2v1h-2zM61 53h1v1h-1zM62 54h1v1h-1z" /><path fill="#2872e9" d="M29 32h1v1h-1zM30 33h2v1h-2zM32 34h1v1h-1zM34 35h1v1h-1zM35 36h1v1h-1zM37 37h1v1h-1zM38 38h2v1h-2zM40 39h1v1h-1zM42 40h1v1h-1zM43 41h1v1h-1zM45 42h1v1h-1zM46 43h2v1h-2zM48 44h1v1h-1zM50 45h1v1h-1zM51 46h1v1h-1zM53 47h1v1h-1zM54 48h2v1h-2zM56 49h1v1h-1zM58 50h1v1h-1zM59 51h1v1h-1zM61 52h1v1h-1zM62 53h1v1h-1zM68 57h28v1h-28z" /><path fill="#ad49b9" d="M63 32h1v1h-1z" /><path fill="#e730a1" d="M70 32h2v1h-2zM66 33h2v1h-2zM65 49h1v1h-1z" /><path fill="#c044b3" d="M72 32h1v1h-1z" /><path fill="#6472de" d="M73 32h1v1h-1z" /><path fill="#2572e9" d="M26 33h1v1h-1zM27 34h1v1h-1zM28 35h2v1h-2zM29 36h3v1h-3zM31 37h2v1h-2zM33 38h2v1h-2zM34 39h2v1h-2zM36 40h2v1h-2zM37 41h3v1h-3zM39 42h2v1h-2zM41 43h2v1h-2zM42 44h2v1h-2zM44 45h2v1h-2zM45 46h3v1h-3zM47 47h2v1h-2zM49 48h2v1h-2zM50 49h2v1h-2zM52 50h2v1h-2zM54 51h2v1h-2zM55 52h2v1h-2zM57 53h2v1h-2zM58 54h2v1h-2zM60 55h2v1h-2zM62 56h1v1h-1z" /><path fill="#2672e9" d="M27 33h2v1h-2zM28 34h2v1h-2zM30 35h2v1h-2zM32 36h2v1h-2zM33 37h2v1h-2zM35 38h2v1h-2zM36 39h2v1h-2zM38 40h2v1h-2zM40 41h2v1h-2zM41 42h2v1h-2zM43 43h2v1h-2zM44 44h2v1h-2zM46 45h2v1h-2zM48 46h2v1h-2zM49 47h2v1h-2zM51 48h2v1h-2zM52 49h2v1h-2zM54 50h2v1h-2zM56 51h2v1h-2zM57 52h2v1h-2zM59 53h2v1h-2zM60 54h2v1h-2zM62 55h1v1h-1zM68 58h28v1h-28z" /><path fill="#af48b9" d="M63 33h1v1h-1z" /><path fill="#e830a1" d="M68 33h2v1h-2zM64 34h2v1h-2zM64 49h1v1h-1z" /><path fill="#e830a2" d="M70 33h1v1h-1zM66 34h1v1h-1z" /><path fill="#c243b3" d="M71 33h1v1h-1z" /><path fill="#5b74e1" d="M72 33h1v1h-1z" /><path fill="#2472e8" d="M26 34h1v1h-1z" /><path fill="#af48b8" d="M63 34h1v1h-1z" /><path fill="#e930a2" d="M67 34h2v1h-2zM64 35h1v1h-1z" /><path fill="#ea30a2" d="M69 34h1v1h-1zM65 35h2v1h-2zM66 48h1v1h-1z" /><path fill="#d63aaa" d="M70 34h1v1h-1z" /><path fill="#6170de" d="M71 34h1v1h-1z" /><path fill="#5675e3" d="M72 34h25v1h-25z" /><path fill="#2472e9" d="M26 35h2v1h-2zM28 36h1v1h-1zM30 37h1v1h-1zM31 38h2v1h-2zM33 39h1v1h-1zM34 40h2v1h-2zM36 41h1v1h-1zM38 42h1v1h-1zM39 43h2v1h-2zM41 44h1v1h-1zM42 45h2v1h-2zM44 46h1v1h-1zM46 47h1v1h-1zM47 48h2v1h-2zM49 49h1v1h-1zM50 50h2v1h-2zM52 51h2v1h-2zM54 52h1v1h-1zM55 53h2v1h-2zM57 54h1v1h-1zM58 55h2v1h-2zM60 56h2v1h-2zM62 57h1v1h-1z" /><path fill="#b047b9" d="M63 35h1v1h-1z" /><path fill="#eb30a2" d="M67 35h1v1h-1zM64 48h2v1h-2z" /><path fill="#eb30a3" d="M68 35h1v1h-1zM64 36h2v1h-2z" /><path fill="#e831a4" d="M69 35h1v1h-1z" /><path fill="#6e68d8" d="M70 35h1v1h-1z" /><path fill="#2272e9" d="M25 36h1v1h-1zM25 37h1v1h-1z" /><path fill="#2372ea" d="M26 36h1v1h-1zM27 37h2v1h-2zM29 38h2v1h-2zM30 39h2v1h-2zM32 40h2v1h-2zM33 41h2v1h-2zM35 42h2v1h-2zM37 43h2v1h-2zM38 44h2v1h-2zM40 45h2v1h-2zM41 46h2v1h-2zM43 47h2v1h-2zM45 48h2v1h-2zM46 49h2v1h-2zM48 50h2v1h-2zM49 51h2v1h-2zM51 52h2v1h-2zM53 53h2v1h-2zM54 54h2v1h-2zM56 55h2v1h-2zM57 56h2v1h-2zM59 57h2v1h-2zM61 58h2v1h-2zM62 59h1v1h-1z" /><path fill="#2472ea" d="M27 36h1v1h-1zM29 37h1v1h-1zM32 39h1v1h-1zM35 41h1v1h-1zM37 42h1v1h-1zM40 44h1v1h-1zM43 46h1v1h-1zM45 47h1v1h-1zM48 49h1v1h-1zM51 51h1v1h-1zM53 52h1v1h-1zM56 54h1v1h-1zM59 56h1v1h-1zM61 57h1v1h-1z" /><path fill="#b248b9" d="M63 36h1v1h-1z" /><path fill="#ec30a3" d="M66 36h3v1h-3zM64 37h2v1h-2zM65 47h1v1h-1z" /><path fill="#ae4bbc" d="M69 36h1v1h-1z" /><path fill="#2272ea" d="M26 37h1v1h-1zM26 38h3v1h-3zM28 39h2v1h-2zM30 40h2v1h-2zM31 41h2v1h-2zM33 42h2v1h-2zM34 43h3v1h-3zM36 44h2v1h-2zM38 45h2v1h-2zM39 46h2v1h-2zM41 47h2v1h-2zM42 48h3v1h-3zM44 49h2v1h-2zM46 50h2v1h-2zM47 51h2v1h-2zM49 52h2v1h-2zM50 53h3v1h-3zM52 54h2v1h-2zM54 55h2v1h-2zM55 56h2v1h-2zM57 57h2v1h-2zM58 58h3v1h-3zM60 59h2v1h-2zM62 60h1v1h-1z" /><path fill="#b247b9" d="M63 37h1v1h-1z" /><path fill="#ed30a3" d="M66 37h2v1h-2zM64 38h2v1h-2zM66 46h1v1h-1zM64 47h1v1h-1z" /><path fill="#e832a5" d="M68 37h1v1h-1z" /><path fill="#5f6ddd" d="M69 37h1v1h-1z" /><path fill="#2172ea" d="M25 38h1v1h-1zM26 39h2v1h-2zM28 40h2v1h-2zM29 41h2v1h-2zM31 42h2v1h-2zM32 43h2v1h-2zM34 44h2v1h-2zM36 45h2v1h-2zM37 46h2v1h-2zM39 47h2v1h-2zM40 48h2v1h-2zM42 49h2v1h-2zM44 50h2v1h-2zM45 51h2v1h-2zM47 52h2v1h-2zM48 53h2v1h-2zM50 54h2v1h-2zM52 55h2v1h-2zM53 56h2v1h-2zM55 57h2v1h-2zM56 58h2v1h-2zM58 59h2v1h-2zM60 60h2v1h-2zM61 61h2v1h-2z" /><path fill="#b446b9" d="M63 38h1v1h-1zM63 40h1v1h-1z" /><path fill="#ed30a4" d="M66 38h2v1h-2z" /><path fill="#b946b9" d="M68 38h1v1h-1z" /><path fill="#1f71e9" d="M24 39h1v1h-1z" /><path fill="#2071ea" d="M25 39h1v1h-1zM25 40h3v1h-3zM27 41h2v1h-2zM29 42h2v1h-2zM30 43h2v1h-2zM32 44h2v1h-2zM33 45h3v1h-3zM35 46h2v1h-2zM37 47h2v1h-2zM38 48h2v1h-2zM40 49h2v1h-2zM41 50h3v1h-3zM43 51h2v1h-2zM45 52h2v1h-2zM46 53h2v1h-2zM48 54h2v1h-2zM50 55h2v1h-2zM51 56h2v1h-2zM53 57h2v1h-2zM54 58h2v1h-2zM56 59h2v1h-2zM58 60h2v1h-2zM59 61h2v1h-2zM61 62h2v1h-2zM62 63h1v1h-1z" /><path fill="#b445ba" d="M63 39h1v1h-1z" /><path fill="#ee30a4" d="M64 39h4v1h-4zM64 40h1v1h-1z" /><path fill="#855bcd" d="M68 39h1v1h-1z" /><path fill="#1f71ea" d="M24 40h1v1h-1zM25 41h2v1h-2zM27 42h2v1h-2zM28 43h2v1h-2zM30 44h2v1h-2zM31 45h2v1h-2zM33 46h2v1h-2zM35 47h2v1h-2zM36 48h2v1h-2zM38 49h2v1h-2zM39 50h2v1h-2zM41 51h2v1h-2zM43 52h2v1h-2zM44 53h2v1h-2zM46 54h2v1h-2zM47 55h3v1h-3zM49 56h2v1h-2zM51 57h2v1h-2zM52 58h2v1h-2zM54 59h2v1h-2zM55 60h3v1h-3zM57 61h2v1h-2zM59 62h2v1h-2zM60 63h2v1h-2zM62 64h1v1h-1z" /><path fill="#ef31a4" d="M65 40h2v1h-2zM64 41h3v1h-3zM64 45h3v1h-3z" /><path fill="#ee31a4" d="M67 40h1v1h-1z" /><path fill="#536fe0" d="M68 40h1v1h-1z" /><path fill="#1e71ea" d="M24 41h1v1h-1zM24 42h3v1h-3zM26 43h2v1h-2zM28 44h2v1h-2zM29 45h2v1h-2zM31 46h2v1h-2zM33 47h2v1h-2zM34 48h2v1h-2zM36 49h2v1h-2zM37 50h2v1h-2zM39 51h2v1h-2zM41 52h2v1h-2zM42 53h2v1h-2zM44 54h2v1h-2zM45 55h2v1h-2zM47 56h2v1h-2zM49 57h2v1h-2zM50 58h2v1h-2zM52 59h2v1h-2zM53 60h2v1h-2zM55 61h2v1h-2zM57 62h2v1h-2zM58 63h2v1h-2zM60 64h2v1h-2zM61 65h2v1h-2z" /><path fill="#b646b9" d="M63 41h1v1h-1z" /><path fill="#e137aa" d="M67 41h1v1h-1z" /><path fill="#1d71eb" d="M23 42h1v1h-1zM24 43h2v1h-2zM26 44h1v1h-1zM27 45h2v1h-2zM29 46h1v1h-1zM30 47h2v1h-2zM32 48h2v1h-2zM34 49h1v1h-1zM35 50h2v1h-2zM37 51h1v1h-1zM38 52h2v1h-2zM40 53h2v1h-2zM42 54h1v1h-1zM43 55h2v1h-2zM45 56h1v1h-1zM46 57h2v1h-2zM48 58h2v1h-2zM50 59h1v1h-1zM51 60h2v1h-2zM53 61h1v1h-1zM54 62h2v1h-2zM56 63h2v1h-2zM58 64h1v1h-1zM91 64h1v1h-1zM59 65h2v1h-2zM68 65h22v1h-22zM61 66h1v1h-1z" /><path fill="#b746b9" d="M63 42h1v1h-1z" /><path fill="#f031a4" d="M64 42h1v1h-1z" /><path fill="#f031a5" d="M65 42h2v1h-2zM64 43h1v1h-1zM65 44h2v1h-2z" /><path fill="#d03db1" d="M67 42h1v1h-1z" /><path fill="#4174e5" d="M68 42h29v1h-29z" /><path fill="#1b71ea" d="M23 43h1v1h-1zM88 66h1v1h-1zM82 68h1v1h-1z" /><path fill="#b845ba" d="M63 43h1v1h-1z" /><path fill="#f131a5" d="M65 43h2v1h-2zM64 44h1v1h-1z" /><path fill="#c044b7" d="M67 43h1v1h-1z" /><path fill="#1b71eb" d="M23 44h1v1h-1zM23 45h2v1h-2zM25 46h2v1h-2zM26 47h2v1h-2zM28 48h2v1h-2zM29 49h3v1h-3zM31 50h2v1h-2zM33 51h2v1h-2zM34 52h2v1h-2zM36 53h2v1h-2zM37 54h3v1h-3zM39 55h2v1h-2zM41 56h2v1h-2zM42 57h2v1h-2zM44 58h2v1h-2zM46 59h2v1h-2zM47 60h2v1h-2zM49 61h2v1h-2zM50 62h2v1h-2zM52 63h2v1h-2zM54 64h2v1h-2zM55 65h2v1h-2zM57 66h2v1h-2zM58 67h2v1h-2zM60 68h2v1h-2zM62 69h1v1h-1z" /><path fill="#1c71eb" d="M24 44h2v1h-2zM25 45h2v1h-2zM27 46h2v1h-2zM28 47h2v1h-2zM30 48h2v1h-2zM32 49h2v1h-2zM33 50h2v1h-2zM35 51h2v1h-2zM36 52h2v1h-2zM38 53h2v1h-2zM40 54h2v1h-2zM41 55h2v1h-2zM43 56h2v1h-2zM44 57h2v1h-2zM46 58h2v1h-2zM48 59h2v1h-2zM49 60h2v1h-2zM51 61h2v1h-2zM52 62h2v1h-2zM54 63h2v1h-2zM56 64h2v1h-2zM57 65h2v1h-2zM59 66h2v1h-2zM68 66h20v1h-20zM60 67h3v1h-3zM68 67h18v1h-18zM62 68h1v1h-1z" /><path fill="#1d71ea" d="M27 44h1v1h-1zM30 46h1v1h-1zM32 47h1v1h-1zM35 49h1v1h-1zM38 51h1v1h-1zM40 52h1v1h-1zM43 54h1v1h-1zM46 56h1v1h-1zM48 57h1v1h-1zM51 59h1v1h-1zM54 61h1v1h-1zM56 62h1v1h-1zM59 64h1v1h-1zM62 66h1v1h-1z" /><path fill="#b944b9" d="M63 44h1v1h-1z" /><path fill="#ba44b8" d="M67 44h1v1h-1z" /><path fill="#1a70eb" d="M22 45h1v1h-1z" /><path fill="#b845b8" d="M63 45h1v1h-1z" /><path fill="#b944b8" d="M67 45h1v1h-1z" /><path fill="#1a71ea" d="M22 46h1v1h-1z" /><path fill="#1a71eb" d="M23 46h2v1h-2zM23 47h3v1h-3zM25 48h3v1h-3zM26 49h3v1h-3zM28 50h3v1h-3zM29 51h4v1h-4zM31 52h3v1h-3zM33 53h3v1h-3zM34 54h3v1h-3zM36 55h3v1h-3zM37 56h4v1h-4zM39 57h3v1h-3zM41 58h3v1h-3zM42 59h4v1h-4zM44 60h3v1h-3zM45 61h4v1h-4zM47 62h3v1h-3zM49 63h3v1h-3zM50 64h4v1h-4zM52 65h3v1h-3zM53 66h4v1h-4zM55 67h3v1h-3zM57 68h3v1h-3zM58 69h4v1h-4zM60 70h3v1h-3zM61 71h2v1h-2z" /><path fill="#b844b7" d="M63 46h1v1h-1z" /><path fill="#ee30a3" d="M64 46h2v1h-2z" /><path fill="#b744b7" d="M67 46h1v1h-1zM67 47h1v1h-1z" /><path fill="#3a73e6" d="M68 46h29v1h-29z" /><path fill="#1971eb" d="M22 47h1v1h-1zM22 48h3v1h-3zM22 49h4v1h-4zM23 50h5v1h-5zM25 51h4v1h-4zM26 52h5v1h-5zM28 53h5v1h-5zM30 54h4v1h-4zM31 55h5v1h-5zM33 56h4v1h-4zM34 57h5v1h-5zM36 58h5v1h-5zM38 59h4v1h-4zM39 60h5v1h-5zM41 61h4v1h-4zM43 62h4v1h-4zM44 63h5v1h-5zM46 64h4v1h-4zM47 65h5v1h-5zM49 66h4v1h-4zM51 67h4v1h-4zM52 68h5v1h-5zM54 69h4v1h-4zM55 70h5v1h-5zM57 71h4v1h-4zM59 72h4v1h-4zM60 73h3v1h-3zM62 74h1v1h-1z" /><path fill="#b842b7" d="M63 47h1v1h-1z" /><path fill="#ec30a2" d="M66 47h1v1h-1z" /><path fill="#1870eb" d="M21 48h1v1h-1zM20 51h1v1h-1z" /><path fill="#b743b6" d="M63 48h1v1h-1z" /><path fill="#b444b6" d="M67 48h1v1h-1z" /><path fill="#1871eb" d="M21 49h1v1h-1zM21 50h2v1h-2zM21 51h4v1h-4zM22 52h4v1h-4zM24 53h4v1h-4zM25 54h5v1h-5zM27 55h4v1h-4zM28 56h5v1h-5zM30 57h4v1h-4zM32 58h4v1h-4zM33 59h5v1h-5zM35 60h4v1h-4zM36 61h5v1h-5zM38 62h5v1h-5zM40 63h4v1h-4zM41 64h5v1h-5zM43 65h4v1h-4zM44 66h5v1h-5zM46 67h5v1h-5zM48 68h4v1h-4zM49 69h5v1h-5zM51 70h4v1h-4zM52 71h5v1h-5zM54 72h5v1h-5zM56 73h4v1h-4zM57 74h5v1h-5zM59 75h4v1h-4zM60 76h3v1h-3zM62 77h1v1h-1z" /><path fill="#b642b5" d="M63 49h1v1h-1z" /><path fill="#e62fa0" d="M66 49h1v1h-1z" /><path fill="#b043b5" d="M67 49h1v1h-1z" /><path fill="#3473e7" d="M68 49h29v1h-29z" /><path fill="#1770eb" d="M20 50h1v1h-1z" /><path fill="#b440b3" d="M63 50h1v1h-1z" /><path fill="#e42f9f" d="M65 50h1v1h-1z" /><path fill="#ae43b5" d="M67 50h1v1h-1z" /><path fill="#3272e7" d="M68 50h29v1h-29z" /><path fill="#b241b2" d="M63 51h1v1h-1z" /><path fill="#ac43b4" d="M67 51h1v1h-1z" /><path fill="#1771eb" d="M20 52h2v1h-2zM20 53h4v1h-4zM21 54h4v1h-4zM22 55h5v1h-5zM24 56h4v1h-4zM25 57h5v1h-5zM27 58h5v1h-5zM29 59h4v1h-4zM30 60h5v1h-5zM32 61h4v1h-4zM33 62h5v1h-5zM35 63h5v1h-5zM37 64h4v1h-4zM38 65h5v1h-5zM40 66h4v1h-4zM41 67h5v1h-5zM43 68h5v1h-5zM45 69h4v1h-4zM46 70h5v1h-5zM48 71h4v1h-4zM50 72h4v1h-4zM51 73h5v1h-5zM53 74h4v1h-4zM54 75h5v1h-5zM56 76h4v1h-4zM58 77h4v1h-4zM59 78h4v1h-4zM61 79h2v1h-2zM62 80h1v1h-1z" /><path fill="#b140b1" d="M63 52h1v1h-1z" /><path fill="#de2e9d" d="M64 52h1v1h-1z" /><path fill="#dd2e9d" d="M65 52h1v1h-1z" /><path fill="#dc2e9d" d="M66 52h1v1h-1z" /><path fill="#a842b3" d="M67 52h1v1h-1z" /><path fill="#1670eb" d="M19 53h1v1h-1z" /><path fill="#ae3faf" d="M63 53h1v1h-1z" /><path fill="#da2e9c" d="M64 53h2v1h-2z" /><path fill="#d92e9b" d="M66 53h1v1h-1z" /><path fill="#a442b2" d="M67 53h1v1h-1z" /><path fill="#1670ec" d="M19 54h1v1h-1z" /><path fill="#1671ec" d="M20 54h1v1h-1zM19 55h3v1h-3zM19 56h5v1h-5zM21 57h4v1h-4zM23 58h4v1h-4zM24 59h5v1h-5zM26 60h4v1h-4zM27 61h5v1h-5zM29 62h4v1h-4zM31 63h4v1h-4zM32 64h5v1h-5zM34 65h4v1h-4zM35 66h5v1h-5zM37 67h4v1h-4zM39 68h4v1h-4zM40 69h5v1h-5zM42 70h4v1h-4zM43 71h5v1h-5zM45 72h5v1h-5zM47 73h4v1h-4zM48 74h5v1h-5zM50 75h4v1h-4zM51 76h5v1h-5zM53 77h5v1h-5zM55 78h4v1h-4zM56 79h5v1h-5zM58 80h4v1h-4zM59 81h4v1h-4zM61 82h1v1h-1z" /><path fill="#ac3faf" d="M63 54h1v1h-1z" /><path fill="#a142b1" d="M67 54h1v1h-1z" /><path fill="#2c71e8" d="M96 54h1v1h-1z" /><path fill="#aa3ead" d="M63 55h1v1h-1z" /><path fill="#d22d99" d="M64 55h1v1h-1z" /><path fill="#d12d99" d="M65 55h1v1h-1z" /><path fill="#d02d98" d="M66 55h1v1h-1z" /><path fill="#9e42b0" d="M67 55h1v1h-1z" /><path fill="#2a71e9" d="M96 55h1v1h-1z" /><path fill="#1470eb" d="M18 56h1v1h-1zM62 83h1v1h-1z" /><path fill="#a73dab" d="M63 56h1v1h-1z" /><path fill="#9a42ae" d="M67 56h1v1h-1z" /><path fill="#2872e8" d="M96 56h1v1h-1z" /><path fill="#1571eb" d="M18 57h1v1h-1zM62 84h1v1h-1z" /><path fill="#1571ec" d="M19 57h2v1h-2zM18 58h5v1h-5zM20 59h4v1h-4zM21 60h5v1h-5zM23 61h4v1h-4zM24 62h5v1h-5zM26 63h5v1h-5zM28 64h4v1h-4zM29 65h5v1h-5zM31 66h4v1h-4zM32 67h5v1h-5zM34 68h5v1h-5zM36 69h4v1h-4zM37 70h5v1h-5zM39 71h4v1h-4zM40 72h5v1h-5zM42 73h5v1h-5zM44 74h4v1h-4zM45 75h5v1h-5zM47 76h4v1h-4zM49 77h4v1h-4zM50 78h5v1h-5zM52 79h4v1h-4zM53 80h5v1h-5zM55 81h4v1h-4zM57 82h4v1h-4zM58 83h4v1h-4zM60 84h2v1h-2zM61 85h1v1h-1z" /><path fill="#a53da9" d="M63 57h1v1h-1z" /><path fill="#9842ae" d="M67 57h1v1h-1z" /><path fill="#a33ca8" d="M63 58h1v1h-1z" /><path fill="#c62c94" d="M64 58h1v1h-1z" /><path fill="#c52c94" d="M65 58h1v1h-1z" /><path fill="#9441ac" d="M67 58h1v1h-1z" /><path fill="#1371eb" d="M17 59h1v1h-1zM16 62h1v1h-1zM15 66h1v1h-1zM13 70h1v1h-1zM60 88h1v1h-1zM58 92h1v1h-1zM57 93h1v1h-1z" /><path fill="#1471ec" d="M18 59h2v1h-2zM18 60h3v1h-3zM18 61h5v1h-5zM20 62h4v1h-4zM22 63h4v1h-4zM23 64h5v1h-5zM25 65h4v1h-4zM26 66h5v1h-5zM28 67h4v1h-4zM30 68h4v1h-4zM31 69h5v1h-5zM33 70h4v1h-4zM34 71h5v1h-5zM36 72h4v1h-4zM38 73h4v1h-4zM39 74h5v1h-5zM41 75h4v1h-4zM42 76h5v1h-5zM44 77h5v1h-5zM46 78h4v1h-4zM47 79h5v1h-5zM49 80h4v1h-4zM50 81h5v1h-5zM52 82h5v1h-5zM54 83h4v1h-4zM55 84h5v1h-5zM57 85h4v1h-4zM58 86h3v1h-3zM60 87h1v1h-1z" /><path fill="#a03ba6" d="M63 59h1v1h-1z" /><path fill="#c02c93" d="M65 59h1v1h-1z" /><path fill="#9041ac" d="M67 59h1v1h-1z" /><path fill="#2571ea" d="M68 59h27v1h-27z" /><path fill="#2570e9" d="M95 59h1v1h-1z" /><path fill="#1370ec" d="M17 60h1v1h-1z" /><path fill="#9c3ca5" d="M63 60h1v1h-1z" /><path fill="#ba2b90" d="M66 60h1v1h-1z" /><path fill="#8c40ab" d="M67 60h1v1h-1z" /><path fill="#2471ea" d="M68 60h27v1h-27z" /><path fill="#1371ec" d="M17 61h1v1h-1zM17 62h3v1h-3zM17 63h5v1h-5zM16 64h7v1h-7zM16 65h9v1h-9zM16 66h10v1h-10zM15 67h13v1h-13zM15 68h15v1h-15zM14 69h17v1h-17zM14 70h19v1h-19zM14 71h20v1h-20zM16 72h20v1h-20zM17 73h21v1h-21zM19 74h20v1h-20zM20 75h21v1h-21zM22 76h20v1h-20zM24 77h20v1h-20zM25 78h21v1h-21zM27 79h20v1h-20zM28 80h21v1h-21zM30 81h20v1h-20zM32 82h20v1h-20zM33 83h21v1h-21zM35 84h20v1h-20zM36 85h21v1h-21zM38 86h20v1h-20zM40 87h20v1h-20zM41 88h19v1h-19zM43 89h17v1h-17zM45 90h14v1h-14zM46 91h13v1h-13zM48 92h10v1h-10zM49 93h8v1h-8zM51 94h5v1h-5zM53 95h2v1h-2z" /><path fill="#993aa3" d="M63 61h1v1h-1z" /><path fill="#b62b8e" d="M65 61h1v1h-1z" /><path fill="#8840a9" d="M67 61h1v1h-1z" /><path fill="#2271ea" d="M68 61h26v1h-26z" /><path fill="#2270ea" d="M94 61h1v1h-1z" /><path fill="#9539a0" d="M63 62h1v1h-1z" /><path fill="#b02a8c" d="M65 62h1v1h-1z" /><path fill="#833fa8" d="M67 62h1v1h-1z" /><path fill="#2171ea" d="M68 62h25v1h-25z" /><path fill="#2070e9" d="M93 62h1v1h-1z" /><path fill="#1370eb" d="M16 63h1v1h-1zM15 65h1v1h-1zM14 68h1v1h-1zM61 87h1v1h-1zM60 89h1v1h-1z" /><path fill="#90399e" d="M63 63h1v1h-1z" /><path fill="#7e3fa6" d="M67 63h1v1h-1z" /><path fill="#1f71eb" d="M68 63h24v1h-24z" /><path fill="#1f70ea" d="M92 63h1v1h-1z" /><path fill="#8d379c" d="M63 64h1v1h-1z" /><path fill="#a62988" d="M64 64h1v1h-1z" /><path fill="#a32987" d="M66 64h1v1h-1z" /><path fill="#7b3fa5" d="M67 64h1v1h-1z" /><path fill="#1e71eb" d="M68 64h23v1h-23z" /><path fill="#8a369a" d="M63 65h1v1h-1z" /><path fill="#9d2885" d="M66 65h1v1h-1z" /><path fill="#773ea3" d="M67 65h1v1h-1z" /><path fill="#1d70eb" d="M90 65h1v1h-1z" /><path fill="#853597" d="M63 66h1v1h-1z" /><path fill="#713ea1" d="M67 66h1v1h-1z" /><path fill="#1c71ea" d="M89 66h1v1h-1zM87 67h1v1h-1z" /><path fill="#813594" d="M63 67h1v1h-1z" /><path fill="#922781" d="M65 67h1v1h-1z" /><path fill="#6c3da0" d="M67 67h1v1h-1z" /><path fill="#1b70ea" d="M86 67h1v1h-1z" /><path fill="#733899" d="M63 68h1v1h-1z" /><path fill="#8e277f" d="M64 68h1v1h-1z" /><path fill="#6a3a9b" d="M67 68h1v1h-1z" /><path fill="#355ecf" d="M68 68h2v1h-2z" /><path fill="#345dcf" d="M70 68h1v1h-1z" /><path fill="#345dce" d="M71 68h2v1h-2z" /><path fill="#335dce" d="M73 68h3v1h-3z" /><path fill="#325dce" d="M76 68h2v1h-2z" /><path fill="#325dcd" d="M78 68h1v1h-1z" /><path fill="#315dcd" d="M79 68h1v1h-1z" /><path fill="#2a63d6" d="M80 68h1v1h-1z" /><path fill="#1b70eb" d="M81 68h1v1h-1zM83 68h1v1h-1z" /><path fill="#1270eb" d="M13 71h1v1h-1zM11 77h1v1h-1zM53 96h1v1h-1zM44 99h1v1h-1z" /><path fill="#1271ec" d="M13 72h3v1h-3zM13 73h4v1h-4zM13 74h6v1h-6zM12 75h8v1h-8zM12 76h10v1h-10zM12 77h12v1h-12zM11 78h14v1h-14zM11 79h16v1h-16zM11 80h17v1h-17zM12 81h18v1h-18zM14 82h18v1h-18zM15 83h18v1h-18zM17 84h18v1h-18zM18 85h18v1h-18zM8 86h1v1h-1zM20 86h18v1h-18zM22 87h18v1h-18zM7 88h1v1h-1zM23 88h18v1h-18zM25 89h18v1h-18zM26 90h19v1h-19zM59 90h1v1h-1zM28 91h18v1h-18zM30 92h18v1h-18zM31 93h18v1h-18zM33 94h18v1h-18zM56 94h1v1h-1zM34 95h19v1h-19zM55 95h1v1h-1zM36 96h17v1h-17zM38 97h13v1h-13zM39 98h10v1h-10zM50 98h1v1h-1zM41 99h2v1h-2z" /><path fill="#1171eb" d="M12 73h1v1h-1zM10 79h1v1h-1zM46 99h1v1h-1z" /><path fill="#1171ec" d="M12 74h1v1h-1zM6 90h1v1h-1zM6 91h1v1h-1z" /><path fill="#1170eb" d="M11 76h1v1h-1zM52 97h1v1h-1z" /><path fill="#1170ec" d="M10 80h1v1h-1zM49 98h1v1h-1z" /><path fill="#1271ed" d="M10 81h2v1h-2zM10 82h4v1h-4zM10 83h5v1h-5zM9 84h8v1h-8zM9 85h9v1h-9zM9 86h11v1h-11zM8 87h14v1h-14zM8 88h15v1h-15zM7 89h18v1h-18zM8 90h18v1h-18zM10 91h18v1h-18zM12 92h18v1h-18zM13 93h18v1h-18zM15 94h18v1h-18zM16 95h18v1h-18zM18 96h18v1h-18zM20 97h18v1h-18zM21 98h18v1h-18zM23 99h18v1h-18z" /><path fill="#1170ed" d="M9 82h1v1h-1zM5 94h1v1h-1z" /><path fill="#1570eb" d="M62 82h1v1h-1z" /><path fill="#1270ec" d="M9 83h1v1h-1zM8 85h1v1h-1z" /><path fill="#1471eb" d="M61 86h1v1h-1z" /><path fill="#1171ed" d="M7 90h1v1h-1zM7 91h3v1h-3zM6 92h6v1h-6zM5 93h8v1h-8zM6 94h9v1h-9zM5 95h11v1h-11zM5 96h13v1h-13zM5 97h15v1h-15zM5 98h16v1h-16zM5 99h1v1h-1zM7 99h16v1h-16z" /><path fill="#1071ed" d="M4 96h1v1h-1z" /><path fill="#1071ec" d="M4 97h1v1h-1z" /><path fill="#1271eb" d="M51 97h1v1h-1zM43 99h1v1h-1zM45 99h1v1h-1z" /><path fill="#1070ec" d="M4 98h1v1h-1z" /><path fill="#1070ed" d="M6 99h1v1h-1z" /></svg>