<svg xmlns="http://www.w3.org/2000/svg" viewBox="0 0 100 100" width="1em" height="1em"><path fill="#2831e1" d="M37 4h1v1h-1zM34 6h1v1h-1zM33 7h1v1h-1zM46 9h1v1h-1zM31 10h1v1h-1zM48 14h1v1h-1zM48 15h1v1h-1zM29 18h1v1h-1zM74 23h1v1h-1zM30 24h1v1h-1zM18 25h1v1h-1zM73 25h1v1h-1zM22 26h1v1h-1zM13 27h1v1h-1zM12 28h1v1h-1zM41 31h2v1h-2zM78 32h1v1h-1zM74 34h1v1h-1zM71 39h1v1h-1zM91 42h1v1h-1zM39 46h1v1h-1zM17 52h1v1h-1zM33 54h1v1h-1zM28 59h1v1h-1zM24 62h1v1h-1zM75 64h1v1h-1zM27 67h1v1h-1zM81 69h1v1h-1zM15 72h1v1h-1zM24 73h1v1h-1zM24 75h1v1h-1zM51 85h1v1h-1zM32 87h1v1h-1zM25 94h1v1h-1zM60 94h1v1h-1zM65 95h2v1h-2z" /><path fill="#2931e0" d="M38 4h1v1h-1zM35 5h1v1h-1zM44 6h1v1h-1zM69 8h1v1h-1zM59 10h1v1h-1zM48 16h1v1h-1zM75 18h1v1h-1zM48 20h1v1h-1zM54 22h1v1h-1zM47 24h1v1h-1zM17 25h1v1h-1zM27 31h1v1h-1zM58 31h1v1h-1zM67 32h1v1h-1zM42 43h1v1h-1zM9 45h1v1h-1zM40 45h1v1h-1zM10 46h1v1h-1zM26 48h1v1h-1zM61 48h1v1h-1zM12 49h1v1h-1zM71 51h1v1h-1zM65 54h1v1h-1zM88 55h1v1h-1zM70 59h1v1h-1zM21 65h1v1h-1zM19 67h1v1h-1zM16 70h1v1h-1zM84 74h1v1h-1zM14 76h1v1h-1zM14 80h1v1h-1zM33 81h1v1h-1zM58 81h1v1h-1zM17 89h1v1h-1zM19 91h1v1h-1zM80 91h1v1h-1zM47 92h2v1h-2zM57 93h1v1h-1zM78 93h1v1h-1zM33 94h1v1h-1zM71 95h1v1h-1z" /><path fill="#2931e1" d="M39 4h1v1h-1zM42 5h1v1h-1zM62 7h1v1h-1zM47 11h1v1h-1zM30 12h1v1h-1zM29 19h1v1h-1zM48 21h1v1h-1zM54 21h1v1h-1zM19 25h1v1h-1zM72 27h1v1h-1zM56 29h1v1h-1zM34 30h1v1h-1zM36 31h1v1h-1zM77 32h1v1h-1zM81 32h2v1h-2zM75 33h1v1h-1zM28 34h1v1h-1zM73 35h1v1h-1zM90 39h1v1h-1zM8 41h1v1h-1zM71 41h1v1h-1zM43 43h1v1h-1zM55 43h1v1h-1zM57 44h1v1h-1zM27 47h1v1h-1zM37 48h1v1h-1zM91 48h1v1h-1zM25 49h1v1h-1zM24 50h1v1h-1zM72 53h1v1h-1zM89 54h1v1h-1zM67 56h1v1h-1zM68 57h1v1h-1zM71 60h1v1h-1zM25 61h1v1h-1zM23 63h1v1h-1zM34 64h1v1h-1zM26 69h1v1h-1zM25 70h1v1h-1zM25 71h1v1h-1zM15 73h1v1h-1zM31 73h1v1h-1zM31 74h1v1h-1zM24 76h1v1h-1zM14 77h1v1h-1zM24 78h1v1h-1zM31 78h1v1h-1zM14 81h1v1h-1zM50 83h1v1h-1zM84 85h1v1h-1zM53 86h1v1h-1zM20 92h1v1h-1zM51 92h1v1h-1zM43 93h1v1h-1zM26 94h3v1h-3zM75 94h1v1h-1z" /><path fill="#2932e0" d="M40 4h1v1h-1zM65 6h1v1h-1zM45 7h1v1h-1zM68 7h1v1h-1zM32 8h1v1h-1zM58 11h1v1h-1zM72 11h1v1h-1zM54 20h1v1h-1zM75 20h1v1h-1zM48 22h1v1h-1zM14 26h2v1h-2zM23 27h1v1h-1zM32 27h1v1h-1zM32 28h1v1h-1zM70 30h1v1h-1zM68 31h1v1h-1zM66 32h1v1h-1zM86 34h1v1h-1zM9 35h1v1h-1zM8 38h1v1h-1zM91 44h1v1h-1zM27 46h1v1h-1zM11 48h1v1h-1zM14 51h2v1h-2zM23 51h1v1h-1zM35 51h1v1h-1zM63 51h1v1h-1zM66 55h1v1h-1zM87 56h1v1h-1zM69 58h1v1h-1zM27 60h1v1h-1zM30 65h1v1h-1zM20 66h1v1h-1zM78 67h1v1h-1zM40 70h1v1h-1zM40 71h1v1h-1zM32 72h1v1h-1zM40 72h1v1h-1zM40 73h1v1h-1zM40 74h1v1h-1zM40 75h1v1h-1zM40 76h1v1h-1zM24 77h1v1h-1zM31 77h1v1h-1zM40 77h1v1h-1zM40 78h1v1h-1zM40 79h1v1h-1zM40 80h1v1h-1zM40 81h1v1h-1zM26 83h1v1h-1zM15 85h1v1h-1zM28 85h1v1h-1zM46 87h1v1h-1zM17 88h1v1h-1zM21 92h1v1h-1zM23 93h1v1h-1zM58 93h1v1h-1zM35 94h1v1h-1zM76 94h1v1h-1z" /><path fill="#2932e1" d="M36 5h6v1h-6zM35 6h9v1h-9zM34 7h11v1h-11zM64 7h4v1h-4zM33 8h13v1h-13zM62 8h7v1h-7zM32 9h14v1h-14zM61 9h11v1h-11zM32 10h15v1h-15zM60 10h12v1h-12zM31 11h16v1h-16zM59 11h13v1h-13zM31 12h17v1h-17zM58 12h15v1h-15zM31 13h17v1h-17zM57 13h17v1h-17zM30 14h18v1h-18zM57 14h17v1h-17zM30 15h18v1h-18zM56 15h19v1h-19zM30 16h18v1h-18zM56 16h19v1h-19zM30 17h19v1h-19zM55 17h20v1h-20zM30 18h19v1h-19zM55 18h20v1h-20zM30 19h19v1h-19zM55 19h20v1h-20zM30 20h18v1h-18zM55 20h20v1h-20zM30 21h18v1h-18zM55 21h20v1h-20zM30 22h18v1h-18zM55 22h20v1h-20zM31 23h17v1h-17zM55 23h19v1h-19zM31 24h16v1h-16zM55 24h19v1h-19zM31 25h16v1h-16zM55 25h18v1h-18zM16 26h6v1h-6zM32 26h15v1h-15zM56 26h17v1h-17zM14 27h9v1h-9zM33 27h13v1h-13zM56 27h16v1h-16zM13 28h11v1h-11zM33 28h12v1h-12zM56 28h16v1h-16zM12 29h13v1h-13zM34 29h10v1h-10zM57 29h14v1h-14zM11 30h15v1h-15zM35 30h8v1h-8zM58 30h12v1h-12zM11 31h16v1h-16zM37 31h4v1h-4zM59 31h9v1h-9zM69 31h1v1h-1zM10 32h17v1h-17zM60 32h6v1h-6zM80 32h1v1h-1zM9 33h19v1h-19zM76 33h9v1h-9zM10 34h18v1h-18zM75 34h11v1h-11zM10 35h19v1h-19zM74 35h14v1h-14zM9 36h20v1h-20zM73 36h15v1h-15zM9 37h20v1h-20zM73 37h16v1h-16zM9 38h20v1h-20zM72 38h18v1h-18zM9 39h20v1h-20zM72 39h18v1h-18zM9 40h20v1h-20zM72 40h19v1h-19zM9 41h20v1h-20zM72 41h19v1h-19zM9 42h20v1h-20zM46 42h7v1h-7zM71 42h20v1h-20zM9 43h19v1h-19zM44 43h11v1h-11zM71 43h20v1h-20zM10 44h18v1h-18zM42 44h15v1h-15zM71 44h20v1h-20zM10 45h18v1h-18zM41 45h17v1h-17zM71 45h20v1h-20zM11 46h16v1h-16zM40 46h20v1h-20zM71 46h20v1h-20zM11 47h16v1h-16zM39 47h21v1h-21zM71 47h20v1h-20zM12 48h14v1h-14zM38 48h23v1h-23zM71 48h20v1h-20zM13 49h12v1h-12zM37 49h25v1h-25zM71 49h20v1h-20zM14 50h10v1h-10zM36 50h26v1h-26zM72 50h19v1h-19zM16 51h6v1h-6zM36 51h27v1h-27zM72 51h18v1h-18zM20 52h1v1h-1zM35 52h30v1h-30zM72 52h18v1h-18zM34 53h31v1h-31zM73 53h17v1h-17zM34 54h31v1h-31zM73 54h16v1h-16zM33 55h33v1h-33zM74 55h14v1h-14zM32 56h9v1h-9zM47 56h20v1h-20zM75 56h12v1h-12zM31 57h10v1h-10zM47 57h21v1h-21zM77 57h8v1h-8zM86 57h1v1h-1zM30 58h11v1h-11zM47 58h22v1h-22zM80 58h1v1h-1zM82 58h1v1h-1zM29 59h12v1h-12zM47 59h23v1h-23zM28 60h13v1h-13zM47 60h24v1h-24zM26 61h15v1h-15zM47 61h25v1h-25zM25 62h16v1h-16zM47 62h26v1h-26zM24 63h17v1h-17zM47 63h27v1h-27zM23 64h9v1h-9zM35 64h6v1h-6zM47 64h28v1h-28zM22 65h8v1h-8zM47 65h2v1h-2zM56 65h8v1h-8zM71 65h5v1h-5zM21 66h7v1h-7zM47 66h3v1h-3zM56 66h8v1h-8zM71 66h7v1h-7zM20 67h7v1h-7zM47 67h3v1h-3zM56 67h8v1h-8zM71 67h7v1h-7zM18 68h9v1h-9zM47 68h3v1h-3zM56 68h8v1h-8zM71 68h9v1h-9zM18 69h8v1h-8zM47 69h3v1h-3zM56 69h8v1h-8zM71 69h10v1h-10zM17 70h8v1h-8zM35 70h5v1h-5zM47 70h3v1h-3zM56 70h8v1h-8zM71 70h11v1h-11zM17 71h8v1h-8zM33 71h7v1h-7zM47 71h3v1h-3zM56 71h8v1h-8zM71 71h11v1h-11zM16 72h9v1h-9zM33 72h7v1h-7zM47 72h3v1h-3zM56 72h8v1h-8zM71 72h12v1h-12zM16 73h8v1h-8zM32 73h8v1h-8zM47 73h3v1h-3zM56 73h8v1h-8zM71 73h13v1h-13zM15 74h9v1h-9zM32 74h8v1h-8zM47 74h3v1h-3zM56 74h8v1h-8zM71 74h13v1h-13zM15 75h9v1h-9zM31 75h9v1h-9zM47 75h3v1h-3zM56 75h8v1h-8zM71 75h13v1h-13zM15 76h9v1h-9zM31 76h9v1h-9zM47 76h3v1h-3zM56 76h8v1h-8zM71 76h14v1h-14zM15 77h9v1h-9zM32 77h8v1h-8zM47 77h3v1h-3zM56 77h8v1h-8zM71 77h14v1h-14zM14 78h10v1h-10zM32 78h8v1h-8zM47 78h3v1h-3zM56 78h8v1h-8zM71 78h14v1h-14zM15 79h10v1h-10zM32 79h8v1h-8zM47 79h3v1h-3zM56 79h8v1h-8zM71 79h14v1h-14zM15 80h10v1h-10zM32 80h8v1h-8zM47 80h3v1h-3zM57 80h7v1h-7zM71 80h14v1h-14zM15 81h10v1h-10zM34 81h6v1h-6zM47 81h2v1h-2zM57 81h1v1h-1zM71 81h14v1h-14zM15 82h11v1h-11zM47 82h3v1h-3zM71 82h14v1h-14zM15 83h11v1h-11zM47 83h3v1h-3zM71 83h13v1h-13zM16 84h11v1h-11zM47 84h3v1h-3zM71 84h14v1h-14zM16 85h12v1h-12zM47 85h4v1h-4zM71 85h13v1h-13zM16 86h14v1h-14zM47 86h5v1h-5zM71 86h13v1h-13zM17 87h15v1h-15zM33 87h1v1h-1zM47 87h7v1h-7zM56 87h14v1h-14zM71 87h13v1h-13zM18 88h65v1h-65zM18 89h65v1h-65zM19 90h62v1h-62zM20 91h60v1h-60zM22 92h25v1h-25zM52 92h27v1h-27zM22 93h1v1h-1zM24 93h18v1h-18zM59 93h19v1h-19zM62 94h13v1h-13zM69 95h1v1h-1z" /><path fill="#2831e0" d="M63 7h1v1h-1zM61 8h1v1h-1zM56 14h1v1h-1zM55 16h1v1h-1zM74 24h1v1h-1zM31 26h1v1h-1zM44 29h1v1h-1zM43 30h1v1h-1zM88 36h1v1h-1zM71 40h1v1h-1zM49 41h1v1h-1zM45 42h1v1h-1zM90 51h1v1h-1zM90 52h1v1h-1zM74 56h1v1h-1zM85 57h1v1h-1zM79 58h1v1h-1zM73 62h1v1h-1zM32 64h1v1h-1zM49 65h1v1h-1zM70 65h1v1h-1zM28 66h1v1h-1zM16 71h1v1h-1zM82 71h1v1h-1zM14 79h1v1h-1zM84 83h1v1h-1zM15 84h1v1h-1zM27 84h1v1h-1zM50 84h1v1h-1zM54 87h1v1h-1zM70 87h1v1h-1zM81 90h1v1h-1zM42 93h1v1h-1zM34 94h1v1h-1zM68 95h1v1h-1z" /><path fill="#2832e1" d="M70 8h1v1h-1zM57 12h1v1h-1zM74 14h1v1h-1zM29 17h1v1h-1zM75 17h1v1h-1zM54 23h1v1h-1zM47 25h1v1h-1zM55 26h1v1h-1zM46 27h1v1h-1zM45 28h1v1h-1zM33 29h1v1h-1zM71 29h1v1h-1zM27 32h1v1h-1zM79 32h1v1h-1zM83 32h1v1h-1zM28 33h1v1h-1zM9 34h1v1h-1zM72 37h1v1h-1zM8 39h1v1h-1zM44 42h1v1h-1zM53 42h1v1h-1zM28 43h1v1h-1zM91 45h1v1h-1zM91 46h1v1h-1zM10 47h1v1h-1zM60 47h1v1h-1zM13 50h1v1h-1zM62 50h1v1h-1zM71 50h1v1h-1zM19 52h1v1h-1zM72 54h1v1h-1zM73 55h1v1h-1zM31 56h1v1h-1zM30 57h1v1h-1zM76 57h1v1h-1zM81 58h1v1h-1zM72 61h1v1h-1zM74 63h1v1h-1zM33 64h1v1h-1zM64 65h1v1h-1zM76 65h1v1h-1zM29 66h1v1h-1zM17 69h1v1h-1zM34 70h1v1h-1zM14 75h1v1h-1zM56 80h1v1h-1zM49 81h1v1h-1zM59 81h5v1h-5zM30 86h1v1h-1zM52 86h1v1h-1zM16 87h1v1h-1zM49 92h2v1h-2zM29 94h3v1h-3zM36 94h1v1h-1zM61 94h1v1h-1zM67 95h1v1h-1zM72 95h1v1h-1z" /><path fill="#2832e0" d="M60 9h1v1h-1zM73 12h1v1h-1zM30 13h1v1h-1zM75 19h1v1h-1zM30 23h1v1h-1zM73 26h1v1h-1zM55 27h1v1h-1zM24 28h1v1h-1zM11 29h1v1h-1zM25 29h1v1h-1zM26 30h1v1h-1zM57 30h1v1h-1zM10 31h1v1h-1zM85 33h1v1h-1zM89 37h1v1h-1zM8 40h1v1h-1zM91 43h1v1h-1zM9 44h1v1h-1zM28 44h1v1h-1zM41 44h1v1h-1zM58 45h1v1h-1zM38 47h1v1h-1zM91 47h1v1h-1zM22 51h1v1h-1zM18 52h1v1h-1zM34 52h1v1h-1zM32 55h1v1h-1zM29 58h1v1h-1zM22 64h1v1h-1zM80 68h1v1h-1zM83 72h1v1h-1zM24 74h1v1h-1zM84 75h1v1h-1zM25 81h1v1h-1zM14 82h1v1h-1zM55 87h1v1h-1zM18 90h1v1h-1zM79 92h1v1h-1zM56 93h1v1h-1zM32 94h1v1h-1zM37 94h1v1h-1zM70 95h1v1h-1z" /></svg>