<svg xmlns="http://www.w3.org/2000/svg" viewBox="0 0 100 100" width="1em" height="1em"><path fill="#00bbeb" d="M19 0h3v1h-3zM27 4h1v1h-1zM38 13h1v1h-1zM39 25h1v1h-1zM39 26h1v1h-1zM39 29h1v1h-1zM39 30h1v1h-1zM39 31h1v1h-1z" /><path fill="#00bbec" d="M18 1h6v1h-6zM18 2h7v1h-7zM17 3h10v1h-10zM17 4h10v1h-10zM17 5h12v1h-12zM17 6h14v1h-14zM17 7h16v1h-16zM17 8h16v1h-16zM17 9h17v1h-17zM17 10h19v1h-19zM17 11h19v1h-19zM17 12h21v1h-21zM17 13h21v1h-21zM17 14h22v1h-22zM17 15h22v1h-22zM17 16h22v1h-22zM17 17h22v1h-22zM17 18h22v1h-22zM17 19h22v1h-22zM17 20h23v1h-23zM17 21h23v1h-23zM17 22h22v1h-22zM17 23h22v1h-22zM17 24h23v1h-23zM17 25h22v1h-22zM17 26h22v1h-22zM17 27h22v1h-22zM17 28h22v1h-22zM17 29h22v1h-22zM17 30h22v1h-22zM17 31h22v1h-22zM17 32h22v1h-22zM17 33h22v1h-22zM17 34h22v1h-22zM17 35h22v1h-22zM17 36h22v1h-22zM17 37h22v1h-22zM17 38h22v1h-22zM17 39h22v1h-22zM17 40h22v1h-22zM17 41h22v1h-22zM17 42h22v1h-22z" /><path fill="#00baec" d="M17 2h1v1h-1zM33 8h1v1h-1zM39 18h1v1h-1zM39 19h1v1h-1zM39 22h1v1h-1zM39 23h1v1h-1zM17 43h22v1h-22zM17 44h22v1h-22zM17 45h22v1h-22zM17 46h22v1h-22zM17 47h22v1h-22zM17 48h22v1h-22zM17 49h22v1h-22zM17 50h22v1h-22zM17 51h22v1h-22zM17 52h22v1h-22zM17 53h22v1h-22zM17 54h22v1h-22zM17 55h22v1h-22zM17 56h22v1h-22zM17 57h22v1h-22zM17 58h22v1h-22zM17 59h22v1h-22zM17 60h22v1h-22zM17 61h22v1h-22zM17 62h22v1h-22zM17 63h22v1h-22zM17 64h22v1h-22z" /><path fill="#00baeb" d="M29 5h1v1h-1zM34 9h1v1h-1zM36 11h1v1h-1zM39 17h1v1h-1zM39 27h1v1h-1zM39 28h1v1h-1zM39 32h1v1h-1zM39 33h1v1h-1zM39 34h1v1h-1zM39 35h1v1h-1zM39 36h1v1h-1zM39 37h1v1h-1zM39 38h1v1h-1zM39 39h1v1h-1zM39 40h1v1h-1zM39 41h1v1h-1zM39 42h1v1h-1zM17 65h22v1h-22zM17 66h22v1h-22zM17 67h22v1h-22zM17 68h22v1h-22zM17 69h22v1h-22zM17 70h22v1h-22zM17 71h22v1h-22zM17 72h22v1h-22zM17 73h22v1h-22zM17 74h22v1h-22zM17 75h22v1h-22zM17 76h22v1h-22zM18 77h21v1h-21zM18 78h21v1h-21zM18 79h21v1h-21zM19 80h20v1h-20zM20 81h18v1h-18zM21 82h16v1h-16zM21 83h14v1h-14zM23 84h10v1h-10zM26 85h5v1h-5z" /><path fill="#0397ce" d="M48 32h4v1h-4zM47 33h7v1h-7zM47 34h9v1h-9zM47 35h11v1h-11zM47 36h12v1h-12zM48 37h14v1h-14zM48 38h15v1h-15zM64 38h1v1h-1zM49 39h16v1h-16zM66 39h1v1h-1zM49 40h18v1h-18zM49 41h20v1h-20zM50 42h20v1h-20zM49 43h23v1h-23zM50 44h23v1h-23zM50 45h24v1h-24zM51 46h25v1h-25zM52 47h24v1h-24zM52 48h24v1h-24zM52 49h25v1h-25zM52 50h26v1h-26zM53 51h25v1h-25zM54 52h25v1h-25zM54 53h26v1h-26zM54 54h26v1h-26zM55 55h25v1h-25zM55 56h26v1h-26zM57 57h24v1h-24zM59 58h23v1h-23zM62 59h19v1h-19zM65 60h16v1h-16zM66 61h14v1h-14zM70 62h2v1h-2z" /><path fill="#0296ce" d="M52 32h1v1h-1zM54 33h1v1h-1zM56 34h1v1h-1zM63 60h1v1h-1z" /><path fill="#0296cd" d="M58 35h1v1h-1zM73 44h1v1h-1z" /><path fill="#0396cd" d="M59 36h1v1h-1zM47 37h1v1h-1zM62 37h1v1h-1zM63 38h1v1h-1zM48 39h1v1h-1zM65 39h1v1h-1zM49 42h1v1h-1zM81 59h1v1h-1z" /><path fill="#0396ce" d="M60 36h1v1h-1zM67 40h1v1h-1zM72 43h1v1h-1zM76 48h1v1h-1zM78 51h1v1h-1zM79 52h1v1h-1zM56 57h1v1h-1zM61 59h1v1h-1zM64 60h1v1h-1zM81 60h1v1h-1zM80 61h2v1h-2zM72 62h10v1h-10zM72 63h10v1h-10zM74 64h8v1h-8zM75 65h7v1h-7zM76 66h6v1h-6zM77 67h5v1h-5zM78 68h4v1h-4zM78 69h4v1h-4zM78 70h3v1h-3zM80 73h1v1h-1z" /><path fill="#0397cd" d="M47 38h1v1h-1zM70 42h1v1h-1zM51 47h1v1h-1zM77 49h1v1h-1zM78 50h1v1h-1zM52 51h1v1h-1zM53 52h1v1h-1zM57 58h2v1h-2z" /><path fill="#0297ce" d="M48 40h1v1h-1zM74 45h1v1h-1zM51 48h1v1h-1zM54 55h1v1h-1zM80 55h1v1h-1z" /><path fill="#0297cd" d="M69 41h1v1h-1zM53 53h1v1h-1zM60 59h1v1h-1z" /><path fill="#00b9eb" d="M39 43h1v1h-1zM39 44h1v1h-1zM39 45h1v1h-1zM39 46h1v1h-1zM39 47h1v1h-1zM39 48h1v1h-1zM39 49h1v1h-1zM39 50h1v1h-1zM39 51h1v1h-1zM39 52h1v1h-1zM39 53h1v1h-1zM39 54h1v1h-1zM39 55h1v1h-1zM39 56h1v1h-1zM39 57h1v1h-1zM39 58h1v1h-1zM39 59h1v1h-1zM39 60h1v1h-1zM39 61h1v1h-1zM39 62h1v1h-1zM39 63h1v1h-1zM39 64h1v1h-1zM19 81h1v1h-1zM25 85h1v1h-1z" /><path fill="#0495cd" d="M69 62h1v1h-1z" /><path fill="#128acc" d="M68 63h1v1h-1zM76 80h1v1h-1zM20 87h1v1h-1zM22 90h1v1h-1zM25 93h1v1h-1zM58 94h1v1h-1zM46 99h1v1h-1z" /><path fill="#138acb" d="M69 63h1v1h-1zM65 65h1v1h-1zM77 72h1v1h-1zM22 85h1v1h-1zM69 87h1v1h-1zM67 88h1v1h-1zM60 92h1v1h-1zM28 95h1v1h-1zM54 96h1v1h-1z" /><path fill="#128bcc" d="M70 63h1v1h-1zM60 68h1v1h-1zM59 69h1v1h-1zM57 70h1v1h-1zM77 71h1v1h-1zM74 83h1v1h-1zM73 84h1v1h-1zM65 89h1v1h-1zM62 91h1v1h-1zM59 93h1v1h-1zM30 96h1v1h-1zM35 98h1v1h-1zM40 99h1v1h-1z" /><path fill="#0791cc" d="M71 63h1v1h-1z" /><path fill="#138bcb" d="M67 64h1v1h-1zM75 67h1v1h-1zM56 71h1v1h-1zM52 97h1v1h-1zM34 98h1v1h-1zM38 99h1v1h-1zM41 99h3v1h-3z" /><path fill="#138bcc" d="M68 64h4v1h-4zM66 65h8v1h-8zM64 66h10v1h-10zM63 67h12v1h-12zM61 68h15v1h-15zM60 69h17v1h-17zM58 70h19v1h-19zM57 71h20v1h-20zM55 72h22v1h-22zM53 73h25v1h-25zM52 74h26v1h-26zM50 75h28v1h-28zM49 76h29v1h-29zM48 77h30v1h-30zM47 78h30v1h-30zM46 79h31v1h-31zM45 80h31v1h-31zM44 81h32v1h-32zM43 82h32v1h-32zM42 83h32v1h-32zM41 84h32v1h-32zM40 85h31v1h-31zM39 86h31v1h-31zM38 87h30v1h-30zM37 88h30v1h-30zM36 89h29v1h-29zM35 90h29v1h-29zM34 91h28v1h-28zM33 92h27v1h-27zM32 93h27v1h-27zM31 94h26v1h-26zM30 95h26v1h-26zM31 96h23v1h-23zM31 97h1v1h-1zM33 97h19v1h-19zM36 98h13v1h-13z" /><path fill="#108ccd" d="M72 64h1v1h-1z" /><path fill="#0593cd" d="M73 64h1v1h-1z" /><path fill="#00b9ea" d="M39 65h1v1h-1zM39 66h1v1h-1zM39 67h1v1h-1zM39 68h1v1h-1zM39 69h1v1h-1zM39 70h1v1h-1zM39 71h1v1h-1zM39 72h1v1h-1zM39 73h1v1h-1zM39 74h1v1h-1zM39 75h1v1h-1zM39 76h1v1h-1zM39 77h1v1h-1zM39 78h1v1h-1zM39 79h1v1h-1zM39 80h1v1h-1zM31 85h1v1h-1z" /><path fill="#0891cd" d="M74 65h1v1h-1z" /><path fill="#138acc" d="M63 66h1v1h-1zM74 66h1v1h-1zM62 67h1v1h-1zM55 71h1v1h-1zM52 73h1v1h-1zM47 76h1v1h-1zM47 77h1v1h-1zM44 78h3v1h-3zM44 79h2v1h-2zM42 80h3v1h-3zM41 81h3v1h-3zM39 82h4v1h-4zM19 83h1v1h-1zM37 83h5v1h-5zM19 84h2v1h-2zM36 84h5v1h-5zM20 85h2v1h-2zM34 85h6v1h-6zM71 85h1v1h-1zM20 86h5v1h-5zM31 86h8v1h-8zM21 87h17v1h-17zM68 87h1v1h-1zM22 88h15v1h-15zM23 89h13v1h-13zM23 90h12v1h-12zM24 91h10v1h-10zM25 92h8v1h-8zM61 92h1v1h-1zM26 93h6v1h-6zM28 94h3v1h-3zM57 94h1v1h-1zM29 95h1v1h-1zM56 95h1v1h-1zM32 97h1v1h-1zM39 99h1v1h-1z" /><path fill="#0991cc" d="M75 66h1v1h-1z" /><path fill="#0793cc" d="M76 67h1v1h-1z" /><path fill="#128ccc" d="M76 68h1v1h-1z" /><path fill="#0395cd" d="M77 68h1v1h-1z" /><path fill="#0793cd" d="M77 69h1v1h-1z" /><path fill="#0e8dcc" d="M77 70h1v1h-1z" /><path fill="#0496ce" d="M81 70h1v1h-1zM78 71h3v1h-3zM79 72h2v1h-2zM79 73h1v1h-1zM79 74h1v1h-1zM79 75h1v1h-1z" /><path fill="#128bcb" d="M54 72h1v1h-1zM77 78h1v1h-1zM75 82h1v1h-1zM44 99h2v1h-2z" /><path fill="#0595ce" d="M78 72h1v1h-1z" /><path fill="#0892cc" d="M78 73h1v1h-1z" /><path fill="#128acb" d="M51 74h1v1h-1zM19 85h1v1h-1zM70 86h1v1h-1zM64 90h1v1h-1zM49 98h2v1h-2z" /><path fill="#0a91cc" d="M78 74h1v1h-1z" /><path fill="#0395ce" d="M80 74h1v1h-1z" /><path fill="#1389cc" d="M49 75h1v1h-1zM18 82h1v1h-1zM21 88h1v1h-1zM27 94h1v1h-1z" /><path fill="#0a90cd" d="M78 75h1v1h-1z" /><path fill="#1389cb" d="M48 76h1v1h-1zM40 81h1v1h-1zM18 83h1v1h-1zM22 89h1v1h-1z" /><path fill="#0892ce" d="M78 76h1v1h-1z" /><path fill="#0496cd" d="M79 76h1v1h-1z" /><path fill="#00b8eb" d="M17 77h1v1h-1z" /><path fill="#1289cb" d="M46 77h1v1h-1zM43 79h1v1h-1zM24 92h1v1h-1z" /><path fill="#0594ce" d="M78 77h1v1h-1z" /><path fill="#02b2e6" d="M17 78h1v1h-1z" /><path fill="#0495ce" d="M78 78h1v1h-1z" /><path fill="#099fda" d="M17 79h1v1h-1z" /><path fill="#0f8ccc" d="M77 79h1v1h-1z" /><path fill="#138cce" d="M17 80h1v1h-1z" /><path fill="#01b5e8" d="M18 80h1v1h-1zM24 85h1v1h-1z" /><path fill="#1289cc" d="M41 80h1v1h-1zM23 91h1v1h-1z" /><path fill="#0f94d2" d="M18 81h1v1h-1z" /><path fill="#00baea" d="M38 81h1v1h-1zM20 82h1v1h-1z" /><path fill="#0aa0d8" d="M39 81h1v1h-1z" /><path fill="#128ccd" d="M76 81h1v1h-1z" /><path fill="#0a9dd9" d="M19 82h1v1h-1z" /><path fill="#02b1e6" d="M37 82h1v1h-1z" /><path fill="#108fce" d="M38 82h1v1h-1z" /><path fill="#0a9fd7" d="M20 83h1v1h-1z" /><path fill="#00b8ea" d="M35 83h1v1h-1zM33 84h1v1h-1z" /><path fill="#0c99d5" d="M36 83h1v1h-1z" /><path fill="#0e95d2" d="M21 84h1v1h-1z" /><path fill="#01b7e9" d="M22 84h1v1h-1z" /><path fill="#06aae0" d="M34 84h1v1h-1zM32 85h1v1h-1z" /><path fill="#118bcc" d="M35 84h1v1h-1z" /><path fill="#0b9dd9" d="M23 85h1v1h-1z" /><path fill="#118ece" d="M33 85h1v1h-1z" /><path fill="#118ccc" d="M25 86h1v1h-1z" /><path fill="#0e96d4" d="M26 86h1v1h-1z" /><path fill="#0b9cd7" d="M27 86h1v1h-1z" /><path fill="#0b9ed9" d="M28 86h1v1h-1z" /><path fill="#0b9ad7" d="M29 86h1v1h-1z" /><path fill="#1090d0" d="M30 86h1v1h-1z" /></svg>