<svg xmlns="http://www.w3.org/2000/svg" viewBox="0 0 100 100" width="1em" height="1em"><path fill="#074c83" d="M46 1h1v1h-1z" /><path fill="#094c85" d="M47 1h1v1h-1z" /><path fill="#0a4e86" d="M48 1h1v1h-1zM48 2h1v1h-1zM48 3h1v1h-1zM48 4h1v1h-1zM48 5h1v1h-1zM48 6h1v1h-1zM48 7h1v1h-1zM48 8h1v1h-1zM48 9h1v1h-1zM48 10h1v1h-1zM48 11h1v1h-1zM48 12h1v1h-1zM48 13h1v1h-1zM48 14h1v1h-1zM48 15h1v1h-1zM48 16h1v1h-1zM48 17h1v1h-1zM48 18h1v1h-1zM48 19h1v1h-1zM48 20h1v1h-1z" /><path fill="#0b5087" d="M49 1h1v1h-1zM49 2h1v1h-1zM49 3h1v1h-1zM49 4h1v1h-1zM49 5h1v1h-1zM49 6h1v1h-1zM49 7h1v1h-1zM49 8h1v1h-1zM49 9h1v1h-1zM49 10h1v1h-1zM49 11h1v1h-1zM49 12h1v1h-1zM49 13h1v1h-1zM49 14h1v1h-1zM49 15h1v1h-1zM49 16h1v1h-1zM49 17h1v1h-1zM49 18h1v1h-1zM49 19h1v1h-1z" /><path fill="#0c5188" d="M50 1h1v1h-1zM50 2h1v1h-1zM50 3h1v1h-1zM50 4h1v1h-1zM50 5h1v1h-1zM50 6h1v1h-1zM50 7h1v1h-1zM50 8h1v1h-1zM50 9h1v1h-1zM50 10h1v1h-1zM50 11h1v1h-1zM50 12h1v1h-1zM50 13h1v1h-1zM50 14h1v1h-1zM50 15h1v1h-1zM50 16h1v1h-1zM50 17h1v1h-1zM50 18h1v1h-1zM50 19h1v1h-1zM50 20h1v1h-1z" /><path fill="#0d5289" d="M51 1h1v1h-1zM51 2h1v1h-1zM51 3h1v1h-1zM51 4h1v1h-1zM51 5h1v1h-1zM51 6h1v1h-1zM51 7h1v1h-1zM51 8h1v1h-1zM51 9h1v1h-1zM51 10h1v1h-1zM51 11h1v1h-1zM51 12h1v1h-1zM51 13h1v1h-1zM51 14h1v1h-1zM51 15h1v1h-1zM51 16h1v1h-1zM51 17h1v1h-1zM51 18h1v1h-1zM51 19h1v1h-1zM51 20h1v1h-1z" /><path fill="#0e5289" d="M52 1h1v1h-1zM52 21h1v1h-1z" /><path fill="#0f548a" d="M53 1h1v1h-1zM79 33h1v1h-1z" /><path fill="#064982" d="M44 2h1v1h-1zM44 23h1v1h-1z" /><path fill="#074b83" d="M45 2h1v1h-1zM45 3h1v1h-1zM45 4h1v1h-1zM45 5h1v1h-1zM45 6h1v1h-1zM45 7h1v1h-1zM45 8h1v1h-1zM45 9h1v1h-1zM45 10h1v1h-1zM45 11h1v1h-1zM45 12h1v1h-1zM45 13h1v1h-1zM45 14h1v1h-1zM45 15h1v1h-1zM45 16h1v1h-1zM45 17h1v1h-1zM45 18h1v1h-1zM45 19h1v1h-1zM45 20h1v1h-1zM45 21h1v1h-1z" /><path fill="#084c84" d="M46 2h1v1h-1zM46 3h1v1h-1zM46 4h1v1h-1zM46 5h1v1h-1zM46 6h1v1h-1zM46 7h1v1h-1zM46 8h1v1h-1zM46 9h1v1h-1zM46 10h1v1h-1zM46 11h1v1h-1zM46 12h1v1h-1zM46 13h1v1h-1zM46 14h1v1h-1zM46 15h1v1h-1zM46 16h1v1h-1zM46 17h1v1h-1zM46 18h1v1h-1zM46 19h1v1h-1zM46 20h1v1h-1zM46 21h1v1h-1z" /><path fill="#094d85" d="M47 2h1v1h-1zM47 3h1v1h-1zM47 4h1v1h-1zM47 5h1v1h-1zM47 6h1v1h-1zM47 7h1v1h-1zM47 8h1v1h-1zM47 9h1v1h-1zM47 10h1v1h-1zM47 11h1v1h-1zM47 12h1v1h-1zM47 13h1v1h-1zM47 14h1v1h-1zM47 15h1v1h-1zM47 16h1v1h-1zM47 17h1v1h-1zM47 18h1v1h-1zM47 19h1v1h-1zM47 20h1v1h-1z" /><path fill="#0e538a" d="M52 2h1v1h-1zM52 3h1v1h-1zM52 4h1v1h-1zM52 5h1v1h-1zM52 6h1v1h-1zM52 7h1v1h-1zM52 8h1v1h-1zM52 9h1v1h-1zM52 10h1v1h-1zM52 11h1v1h-1zM52 12h1v1h-1zM52 13h1v1h-1zM52 14h1v1h-1zM52 15h1v1h-1zM52 16h1v1h-1zM52 17h1v1h-1zM52 18h1v1h-1zM52 19h1v1h-1zM52 20h1v1h-1z" /><path fill="#0f548b" d="M53 2h1v1h-1zM53 3h1v1h-1zM53 4h1v1h-1zM53 5h1v1h-1zM53 6h1v1h-1zM53 7h1v1h-1zM53 8h1v1h-1zM53 9h1v1h-1zM53 10h1v1h-1zM53 11h1v1h-1zM53 12h1v1h-1zM53 13h1v1h-1zM53 14h1v1h-1zM53 15h1v1h-1zM53 16h1v1h-1zM53 17h1v1h-1zM53 18h1v1h-1zM53 19h1v1h-1zM53 20h1v1h-1zM53 21h1v1h-1z" /><path fill="#10568c" d="M54 2h1v1h-1zM54 3h1v1h-1zM54 4h1v1h-1zM54 5h1v1h-1zM54 6h1v1h-1zM54 7h1v1h-1zM54 8h1v1h-1zM54 9h1v1h-1zM54 10h1v1h-1zM54 11h1v1h-1zM54 12h1v1h-1zM54 13h1v1h-1zM54 14h1v1h-1zM54 15h1v1h-1zM54 16h1v1h-1zM54 17h1v1h-1zM54 18h1v1h-1zM54 19h1v1h-1zM54 20h1v1h-1zM54 21h1v1h-1z" /><path fill="#11568d" d="M55 2h1v1h-1z" /><path fill="#04467f" d="M42 3h1v1h-1z" /><path fill="#054880" d="M43 3h1v1h-1z" /><path fill="#064a82" d="M44 3h1v1h-1zM44 4h1v1h-1zM44 5h1v1h-1zM44 6h1v1h-1zM44 7h1v1h-1zM44 8h1v1h-1zM44 9h1v1h-1zM44 10h1v1h-1zM44 11h1v1h-1zM44 12h1v1h-1zM44 13h1v1h-1zM44 14h1v1h-1zM44 15h1v1h-1zM44 16h1v1h-1zM44 17h1v1h-1zM44 18h1v1h-1zM44 19h1v1h-1zM44 20h1v1h-1zM44 21h1v1h-1zM44 22h1v1h-1zM81 32h1v1h-1z" /><path fill="#11578d" d="M55 3h1v1h-1zM55 4h1v1h-1zM55 5h1v1h-1zM55 6h1v1h-1zM55 7h1v1h-1zM55 8h1v1h-1zM55 9h1v1h-1zM55 10h1v1h-1zM55 11h1v1h-1zM55 12h1v1h-1zM55 13h1v1h-1zM55 14h1v1h-1zM55 15h1v1h-1zM55 16h1v1h-1zM55 17h1v1h-1zM55 18h1v1h-1zM55 19h1v1h-1zM55 20h1v1h-1zM55 21h1v1h-1zM55 22h1v1h-1z" /><path fill="#11588e" d="M56 3h1v1h-1z" /><path fill="#145890" d="M57 3h1v1h-1z" /><path fill="#03457f" d="M41 4h1v1h-1z" /><path fill="#044780" d="M42 4h1v1h-1zM42 5h1v1h-1zM42 6h1v1h-1zM42 7h1v1h-1zM42 8h1v1h-1zM42 9h1v1h-1zM42 10h1v1h-1zM42 11h1v1h-1zM42 12h1v1h-1zM42 13h1v1h-1zM42 14h1v1h-1zM42 15h1v1h-1zM42 16h1v1h-1zM42 17h1v1h-1zM42 18h1v1h-1zM42 19h1v1h-1zM42 20h1v1h-1zM42 21h1v1h-1zM42 22h1v1h-1zM42 23h1v1h-1z" /><path fill="#054881" d="M43 4h1v1h-1zM43 5h1v1h-1zM43 6h1v1h-1zM43 7h1v1h-1zM43 8h1v1h-1zM43 9h1v1h-1zM43 10h1v1h-1zM43 11h1v1h-1zM43 12h1v1h-1zM43 13h1v1h-1zM43 14h1v1h-1zM43 15h1v1h-1zM43 16h1v1h-1zM43 17h1v1h-1zM43 18h1v1h-1zM43 19h1v1h-1zM43 20h1v1h-1zM43 21h1v1h-1zM43 22h1v1h-1zM43 23h1v1h-1z" /><path fill="#12588e" d="M56 4h1v1h-1zM56 5h1v1h-1zM56 6h1v1h-1zM56 7h1v1h-1zM56 8h1v1h-1zM56 9h1v1h-1zM56 10h1v1h-1zM56 11h1v1h-1zM56 12h1v1h-1zM56 13h1v1h-1zM56 14h1v1h-1zM56 15h1v1h-1zM56 16h1v1h-1zM56 17h1v1h-1zM56 18h1v1h-1zM56 19h1v1h-1zM56 20h1v1h-1zM56 21h1v1h-1zM56 22h1v1h-1zM56 23h1v1h-1z" /><path fill="#145990" d="M57 4h1v1h-1zM57 5h1v1h-1zM57 6h1v1h-1zM57 7h1v1h-1zM57 8h1v1h-1zM57 9h1v1h-1zM57 10h1v1h-1zM57 11h1v1h-1zM57 12h1v1h-1zM57 13h1v1h-1zM57 14h1v1h-1zM57 15h1v1h-1zM57 16h1v1h-1zM57 17h1v1h-1zM57 18h1v1h-1zM57 19h1v1h-1zM57 20h1v1h-1zM57 21h1v1h-1zM57 22h1v1h-1zM57 23h1v1h-1zM58 25h1v1h-1z" /><path fill="#155991" d="M58 4h1v1h-1z" /><path fill="#00447c" d="M39 5h1v1h-1z" /><path fill="#02457e" d="M40 5h1v1h-1zM40 6h1v1h-1zM40 7h1v1h-1zM40 8h1v1h-1zM40 9h1v1h-1zM40 10h1v1h-1zM40 11h1v1h-1zM40 12h1v1h-1zM40 13h1v1h-1zM40 14h1v1h-1zM40 15h1v1h-1zM40 16h1v1h-1zM40 17h1v1h-1zM40 18h1v1h-1zM40 19h1v1h-1zM40 20h1v1h-1zM40 21h1v1h-1zM40 22h1v1h-1zM40 23h1v1h-1zM40 24h1v1h-1z" /><path fill="#03467f" d="M41 5h1v1h-1zM41 6h1v1h-1zM41 7h1v1h-1zM41 8h1v1h-1zM41 9h1v1h-1zM41 10h1v1h-1zM41 11h1v1h-1zM41 12h1v1h-1zM41 13h1v1h-1zM41 14h1v1h-1zM41 15h1v1h-1zM41 16h1v1h-1zM41 17h1v1h-1zM41 18h1v1h-1zM41 19h1v1h-1zM41 20h1v1h-1zM41 21h1v1h-1zM41 22h1v1h-1zM41 23h1v1h-1zM41 24h1v1h-1z" /><path fill="#155a91" d="M58 5h1v1h-1zM58 6h1v1h-1zM58 7h1v1h-1zM58 8h1v1h-1zM58 9h1v1h-1zM58 10h1v1h-1zM58 11h1v1h-1zM58 12h1v1h-1zM58 13h1v1h-1zM58 14h1v1h-1zM58 15h1v1h-1zM58 16h1v1h-1zM58 17h1v1h-1zM58 18h1v1h-1zM58 19h1v1h-1zM58 20h1v1h-1zM58 21h1v1h-1zM58 22h1v1h-1zM58 23h1v1h-1zM58 24h1v1h-1z" /><path fill="#165c92" d="M59 5h1v1h-1zM59 6h1v1h-1zM59 7h1v1h-1zM59 8h1v1h-1zM59 9h1v1h-1zM59 10h1v1h-1zM59 11h1v1h-1zM59 12h1v1h-1zM59 13h1v1h-1zM59 14h1v1h-1zM59 15h1v1h-1zM59 16h1v1h-1zM59 17h1v1h-1zM59 18h1v1h-1zM59 19h1v1h-1zM59 20h1v1h-1zM59 21h1v1h-1zM59 22h1v1h-1zM59 23h1v1h-1zM59 24h1v1h-1z" /><path fill="#175c92" d="M60 5h1v1h-1z" /><path fill="#00437c" d="M39 6h1v1h-1zM39 7h1v1h-1zM39 8h1v1h-1zM39 9h1v1h-1zM39 10h1v1h-1zM39 11h1v1h-1zM39 12h1v1h-1zM39 13h1v1h-1zM39 14h1v1h-1zM39 15h1v1h-1zM39 16h1v1h-1zM39 17h1v1h-1zM39 18h1v1h-1zM39 19h1v1h-1zM39 20h1v1h-1zM39 21h1v1h-1zM39 22h1v1h-1zM39 23h1v1h-1zM39 24h1v1h-1zM39 25h1v1h-1zM91 27h3v1h-3zM89 28h4v1h-4zM87 29h7v1h-7zM86 30h8v1h-8zM84 31h10v1h-10zM82 32h12v1h-12zM80 33h14v1h-14zM78 34h16v1h-16zM77 35h17v1h-17zM76 36h18v1h-18zM76 37h18v1h-18zM76 38h18v1h-18zM76 39h18v1h-18zM76 40h18v1h-18zM76 41h18v1h-18zM76 42h18v1h-18zM76 43h18v1h-18zM76 44h18v1h-18zM76 45h18v1h-18zM76 46h18v1h-18zM76 47h18v1h-18zM76 48h18v1h-18zM76 49h18v1h-18zM76 50h18v1h-18zM76 51h18v1h-18zM76 52h18v1h-18zM76 53h18v1h-18zM76 54h18v1h-18zM76 55h18v1h-18zM76 56h18v1h-18zM76 57h18v1h-18zM76 58h18v1h-18zM76 59h18v1h-18zM76 60h18v1h-18zM76 61h18v1h-18zM76 62h18v1h-18zM76 63h18v1h-18zM76 64h18v1h-18zM75 65h19v1h-19zM23 66h3v1h-3zM73 66h21v1h-21zM21 67h6v1h-6zM73 67h21v1h-21zM19 68h10v1h-10zM71 68h23v1h-23zM18 69h13v1h-13zM69 69h25v1h-25zM16 70h16v1h-16zM67 70h27v1h-27zM14 71h20v1h-20zM66 71h28v1h-28zM12 72h24v1h-24zM63 72h30v1h-30zM10 73h29v1h-29zM61 73h32v1h-32zM9 74h30v1h-30zM61 74h32v1h-32zM8 75h33v1h-33zM59 75h34v1h-34zM9 76h34v1h-34zM57 76h34v1h-34zM10 77h34v1h-34zM55 77h35v1h-35zM11 78h35v1h-35zM52 78h36v1h-36zM13 79h35v1h-35zM52 79h35v1h-35zM15 80h70v1h-70zM17 81h67v1h-67zM18 82h63v1h-63zM82 82h1v1h-1zM19 83h62v1h-62zM22 84h57v1h-57zM24 85h52v1h-52zM24 86h52v1h-52zM27 87h46v1h-46zM28 88h43v1h-43zM29 89h41v1h-41zM32 90h36v1h-36zM34 91h32v1h-32zM36 92h28v1h-28zM36 93h27v1h-27zM38 94h23v1h-23zM41 95h18v1h-18zM43 96h14v1h-14zM44 97h11v1h-11zM56 97h1v1h-1zM45 98h9v1h-9zM52 99h1v1h-1z" /><path fill="#175d93" d="M60 6h1v1h-1zM60 7h1v1h-1zM60 8h1v1h-1zM60 9h1v1h-1zM60 10h1v1h-1zM60 11h1v1h-1zM60 12h1v1h-1zM60 13h1v1h-1zM60 14h1v1h-1zM60 15h1v1h-1zM60 16h1v1h-1zM60 17h1v1h-1zM60 18h1v1h-1zM60 19h1v1h-1zM60 20h1v1h-1zM60 21h1v1h-1zM60 22h1v1h-1zM60 23h1v1h-1zM60 24h1v1h-1zM60 25h1v1h-1z" /><path fill="#185e93" d="M61 6h1v1h-1z" /><path fill="#195e95" d="M62 6h1v1h-1zM62 27h1v1h-1z" /><path fill="#185e94" d="M61 7h1v1h-1zM61 8h1v1h-1zM61 9h1v1h-1zM61 10h1v1h-1zM61 11h1v1h-1zM61 12h1v1h-1zM61 13h1v1h-1zM61 14h1v1h-1zM61 15h1v1h-1zM61 16h1v1h-1zM61 17h1v1h-1zM61 18h1v1h-1zM61 19h1v1h-1zM61 20h1v1h-1zM61 21h1v1h-1zM61 22h1v1h-1zM61 23h1v1h-1zM61 24h1v1h-1zM61 25h1v1h-1zM61 26h1v1h-1z" /><path fill="#195f95" d="M62 7h1v1h-1zM62 8h1v1h-1zM62 9h1v1h-1zM62 10h1v1h-1zM62 11h1v1h-1zM62 12h1v1h-1zM62 13h1v1h-1zM62 14h1v1h-1zM62 15h1v1h-1zM62 16h1v1h-1zM62 17h1v1h-1zM62 18h1v1h-1zM62 19h1v1h-1zM62 20h1v1h-1zM62 21h1v1h-1zM62 22h1v1h-1zM62 23h1v1h-1zM62 24h1v1h-1zM62 25h1v1h-1zM62 26h1v1h-1z" /><path fill="#1a6096" d="M63 7h1v1h-1zM63 8h1v1h-1zM63 9h1v1h-1zM63 10h1v1h-1zM63 11h1v1h-1zM63 12h1v1h-1zM63 13h1v1h-1zM63 14h1v1h-1zM63 15h1v1h-1zM63 16h1v1h-1zM63 17h1v1h-1zM63 18h1v1h-1zM63 19h1v1h-1zM63 20h1v1h-1zM63 21h1v1h-1zM63 22h1v1h-1zM63 23h1v1h-1zM63 24h1v1h-1zM63 25h1v1h-1zM63 26h1v1h-1zM63 27h1v1h-1z" /><path fill="#1b6297" d="M64 8h1v1h-1zM64 9h1v1h-1zM64 10h1v1h-1zM64 11h1v1h-1zM64 12h1v1h-1zM64 13h1v1h-1zM64 14h1v1h-1zM64 15h1v1h-1zM64 16h1v1h-1zM64 17h1v1h-1zM64 18h1v1h-1zM64 19h1v1h-1zM64 20h1v1h-1zM64 21h1v1h-1zM64 22h1v1h-1zM64 23h1v1h-1zM64 24h1v1h-1zM64 25h1v1h-1zM64 26h1v1h-1zM64 27h1v1h-1zM64 28h1v1h-1z" /><path fill="#1b6298" d="M65 8h1v1h-1z" /><path fill="#1c6398" d="M65 9h1v1h-1zM65 10h1v1h-1zM65 11h1v1h-1zM65 12h1v1h-1zM65 13h1v1h-1zM65 14h1v1h-1zM65 15h1v1h-1zM65 16h1v1h-1zM65 17h1v1h-1zM65 18h1v1h-1zM65 19h1v1h-1zM65 20h1v1h-1zM65 21h1v1h-1zM65 22h1v1h-1zM65 23h1v1h-1zM65 24h1v1h-1zM65 25h1v1h-1zM65 26h1v1h-1zM65 27h1v1h-1zM65 28h1v1h-1z" /><path fill="#1d6499" d="M66 9h1v1h-1zM66 10h1v1h-1zM66 11h1v1h-1zM66 12h1v1h-1zM66 13h1v1h-1zM66 14h1v1h-1zM66 15h1v1h-1zM66 16h1v1h-1zM66 17h1v1h-1zM66 18h1v1h-1zM66 19h1v1h-1zM66 20h1v1h-1zM66 21h1v1h-1zM66 22h1v1h-1zM66 23h1v1h-1zM66 24h1v1h-1zM66 25h1v1h-1zM66 26h1v1h-1zM66 27h1v1h-1zM66 28h1v1h-1z" /><path fill="#1d6599" d="M67 9h1v1h-1z" /><path fill="#1e659a" d="M67 10h1v1h-1zM67 11h1v1h-1zM67 12h1v1h-1zM67 13h1v1h-1zM67 14h1v1h-1zM67 15h1v1h-1zM67 16h1v1h-1zM67 17h1v1h-1zM67 18h1v1h-1zM67 19h1v1h-1zM67 20h1v1h-1zM67 21h1v1h-1zM67 22h1v1h-1zM67 23h1v1h-1zM67 24h1v1h-1zM67 25h1v1h-1zM67 26h1v1h-1zM67 27h1v1h-1zM67 28h1v1h-1zM67 29h1v1h-1z" /><path fill="#1f669b" d="M68 10h1v1h-1z" /><path fill="#1f679c" d="M69 10h1v1h-1z" /><path fill="#1f679b" d="M68 11h1v1h-1zM68 12h1v1h-1zM68 13h1v1h-1zM68 14h1v1h-1zM68 15h1v1h-1zM68 16h1v1h-1zM68 17h1v1h-1zM68 18h1v1h-1zM68 19h1v1h-1zM68 20h1v1h-1zM68 21h1v1h-1zM68 22h1v1h-1zM68 23h1v1h-1zM68 24h1v1h-1zM68 25h1v1h-1zM68 26h1v1h-1zM68 27h1v1h-1zM68 28h1v1h-1zM68 29h1v1h-1zM68 30h1v1h-1z" /><path fill="#20689c" d="M69 11h1v1h-1zM69 12h1v1h-1zM69 13h1v1h-1zM69 14h1v1h-1zM69 15h1v1h-1zM69 16h1v1h-1zM69 17h1v1h-1zM69 18h1v1h-1zM69 19h1v1h-1zM69 20h1v1h-1zM69 21h1v1h-1zM69 22h1v1h-1zM69 23h1v1h-1zM69 24h1v1h-1zM69 25h1v1h-1zM69 26h1v1h-1zM69 27h1v1h-1zM69 28h1v1h-1zM69 29h1v1h-1zM69 30h1v1h-1zM69 31h1v1h-1z" /><path fill="#21699d" d="M70 11h1v1h-1zM70 12h1v1h-1zM70 13h1v1h-1zM70 14h1v1h-1zM70 15h1v1h-1zM70 16h1v1h-1zM70 17h1v1h-1zM70 18h1v1h-1zM70 19h1v1h-1zM70 20h1v1h-1zM70 21h1v1h-1zM70 22h1v1h-1zM70 23h1v1h-1zM70 24h1v1h-1zM70 25h1v1h-1zM70 26h1v1h-1zM70 27h1v1h-1zM70 28h1v1h-1zM70 29h1v1h-1zM70 30h1v1h-1zM70 31h1v1h-1zM71 32h1v1h-1z" /><path fill="#226a9e" d="M71 12h1v1h-1zM71 13h1v1h-1zM71 14h1v1h-1zM71 15h1v1h-1zM71 16h1v1h-1zM71 17h1v1h-1zM71 18h1v1h-1zM71 19h1v1h-1zM71 20h1v1h-1zM71 21h1v1h-1zM71 22h1v1h-1zM71 23h1v1h-1zM71 24h1v1h-1zM71 25h1v1h-1zM71 26h1v1h-1zM71 27h1v1h-1zM71 28h1v1h-1zM71 29h1v1h-1zM71 30h1v1h-1zM71 31h1v1h-1z" /><path fill="#236a9e" d="M72 12h1v1h-1zM72 33h1v1h-1z" /><path fill="#236b9f" d="M72 13h1v1h-1zM72 14h1v1h-1zM72 15h1v1h-1zM72 16h1v1h-1zM72 17h1v1h-1zM72 18h1v1h-1zM72 19h1v1h-1zM72 20h1v1h-1zM72 21h1v1h-1zM72 22h1v1h-1zM72 23h1v1h-1zM72 24h1v1h-1zM72 25h1v1h-1zM72 26h1v1h-1zM72 27h1v1h-1zM72 28h1v1h-1zM72 29h1v1h-1zM72 30h1v1h-1zM72 31h1v1h-1zM72 32h1v1h-1z" /><path fill="#246da0" d="M73 13h1v1h-1zM73 14h1v1h-1zM73 15h1v1h-1zM73 16h1v1h-1zM73 17h1v1h-1zM73 18h1v1h-1zM73 19h1v1h-1zM73 20h1v1h-1zM73 21h1v1h-1zM73 22h1v1h-1zM73 23h1v1h-1zM73 24h1v1h-1zM73 25h1v1h-1zM73 26h1v1h-1zM73 27h1v1h-1zM89 27h1v1h-1zM73 28h1v1h-1zM73 29h1v1h-1zM73 30h1v1h-1zM73 31h1v1h-1zM73 32h1v1h-1zM74 34h1v1h-1z" /><path fill="#256da0" d="M74 13h1v1h-1z" /><path fill="#033b71" d="M23 14h1v1h-1zM19 67h1v1h-1zM12 71h1v1h-1zM6 73h1v1h-1z" /><path fill="#256ea1" d="M74 14h1v1h-1zM74 15h1v1h-1zM74 16h1v1h-1zM74 17h1v1h-1zM74 18h1v1h-1zM74 19h1v1h-1zM74 20h1v1h-1zM74 21h1v1h-1zM74 22h1v1h-1zM74 23h1v1h-1zM74 24h1v1h-1zM74 25h1v1h-1zM74 26h1v1h-1zM74 27h1v1h-1zM74 28h1v1h-1zM74 29h1v1h-1zM74 30h1v1h-1zM74 31h1v1h-1zM74 32h1v1h-1zM74 33h1v1h-1z" /><path fill="#266fa3" d="M75 14h1v1h-1z" /><path fill="#2870a3" d="M76 14h1v1h-1z" /><path fill="#043a70" d="M21 15h1v1h-1zM11 21h1v1h-1zM6 25h1v1h-1zM15 69h1v1h-1zM8 73h1v1h-1z" /><path fill="#043b71" d="M22 15h2v1h-2zM21 16h3v1h-3zM18 17h6v1h-6zM17 18h7v1h-7zM15 19h9v1h-9zM14 20h10v1h-10zM12 21h12v1h-12zM10 22h14v1h-14zM9 23h15v1h-15zM7 24h17v1h-17zM7 25h17v1h-17zM7 26h17v1h-17zM6 27h18v1h-18zM6 28h18v1h-18zM6 29h18v1h-18zM6 30h18v1h-18zM6 31h18v1h-18zM6 32h18v1h-18zM6 33h18v1h-18zM6 34h18v1h-18zM6 35h18v1h-18zM6 36h18v1h-18zM6 37h18v1h-18zM6 38h18v1h-18zM6 39h18v1h-18zM6 40h18v1h-18zM6 41h18v1h-18zM6 42h18v1h-18zM6 43h18v1h-18zM6 44h18v1h-18zM6 45h18v1h-18zM6 46h18v1h-18zM6 47h18v1h-18zM6 48h18v1h-18zM6 49h18v1h-18zM6 50h18v1h-18zM6 51h18v1h-18zM6 52h18v1h-18zM6 53h18v1h-18zM6 54h18v1h-18zM6 55h18v1h-18zM6 56h18v1h-18zM6 57h18v1h-18zM6 58h18v1h-18zM6 59h18v1h-18zM6 60h18v1h-18zM6 61h18v1h-18zM6 62h18v1h-18zM6 63h18v1h-18zM6 64h18v1h-18zM6 65h16v1h-16zM6 66h14v1h-14zM6 67h13v1h-13zM6 68h12v1h-12zM6 69h9v1h-9zM6 70h8v1h-8zM6 71h6v1h-6zM6 72h4v1h-4zM7 73h1v1h-1z" /><path fill="#276fa3" d="M75 15h1v1h-1zM75 16h1v1h-1zM75 17h1v1h-1zM75 18h1v1h-1zM75 19h1v1h-1zM75 20h1v1h-1zM75 21h1v1h-1zM75 22h1v1h-1zM75 23h1v1h-1zM75 24h1v1h-1zM75 25h1v1h-1zM75 26h1v1h-1zM75 27h1v1h-1zM75 28h1v1h-1zM75 29h1v1h-1zM75 30h1v1h-1zM75 31h1v1h-1zM75 32h1v1h-1zM75 33h1v1h-1zM75 34h2v1h-2z" /><path fill="#2870a4" d="M76 15h1v1h-1zM76 16h1v1h-1zM76 17h1v1h-1zM76 18h1v1h-1zM76 19h1v1h-1zM76 20h1v1h-1zM76 21h1v1h-1zM76 22h1v1h-1zM76 23h1v1h-1zM76 24h1v1h-1zM76 25h1v1h-1zM76 26h1v1h-1zM76 27h1v1h-1zM76 28h1v1h-1zM76 29h1v1h-1zM76 30h1v1h-1zM76 31h1v1h-1zM76 32h1v1h-1zM76 33h1v1h-1z" /><path fill="#2971a5" d="M77 15h1v1h-1zM77 16h1v1h-1zM77 17h1v1h-1zM77 18h1v1h-1zM77 19h1v1h-1zM77 20h1v1h-1zM77 21h1v1h-1zM77 22h1v1h-1zM77 23h1v1h-1zM77 24h1v1h-1zM77 25h1v1h-1zM77 26h1v1h-1zM77 27h1v1h-1zM77 28h1v1h-1zM77 29h1v1h-1zM77 30h1v1h-1zM77 31h1v1h-1zM77 32h1v1h-1zM77 33h1v1h-1z" /><path fill="#043a71" d="M20 16h1v1h-1zM14 19h1v1h-1zM13 20h1v1h-1zM9 22h1v1h-1zM8 23h1v1h-1zM6 26h1v1h-1zM22 65h1v1h-1z" /><path fill="#2a73a6" d="M78 16h1v1h-1zM78 17h1v1h-1zM78 18h1v1h-1zM78 19h1v1h-1zM78 20h1v1h-1zM78 21h1v1h-1zM78 22h1v1h-1zM78 23h1v1h-1zM78 24h1v1h-1zM78 25h1v1h-1zM78 26h1v1h-1zM78 27h1v1h-1zM78 28h1v1h-1zM78 29h1v1h-1zM78 30h1v1h-1zM78 31h1v1h-1zM78 32h1v1h-1z" /><path fill="#2a74a7" d="M79 16h1v1h-1z" /><path fill="#2b74a7" d="M79 17h1v1h-1zM79 18h1v1h-1zM79 19h1v1h-1zM79 20h1v1h-1zM79 21h1v1h-1zM79 22h1v1h-1zM79 23h1v1h-1zM79 24h1v1h-1zM79 25h1v1h-1zM79 26h1v1h-1zM79 27h1v1h-1zM79 28h1v1h-1zM79 29h1v1h-1zM79 30h1v1h-1zM79 31h1v1h-1zM79 32h1v1h-1z" /><path fill="#2c75a7" d="M80 17h1v1h-1z" /><path fill="#2d76a9" d="M81 17h1v1h-1zM81 18h2v1h-2zM81 19h1v1h-1zM81 20h1v1h-1zM81 21h1v1h-1zM81 22h1v1h-1zM81 23h1v1h-1zM81 24h1v1h-1zM81 25h1v1h-1zM81 26h1v1h-1zM81 27h1v1h-1zM81 28h1v1h-1zM87 28h1v1h-1zM81 29h1v1h-1zM81 30h1v1h-1z" /><path fill="#033a70" d="M16 18h1v1h-1z" /><path fill="#2c75a8" d="M80 18h1v1h-1zM80 19h1v1h-1zM80 20h1v1h-1zM80 21h1v1h-1zM80 22h1v1h-1zM80 23h1v1h-1zM80 24h1v1h-1zM80 25h1v1h-1zM80 26h1v1h-1zM80 27h1v1h-1zM80 28h1v1h-1zM80 29h1v1h-1zM80 30h1v1h-1zM80 31h1v1h-1z" /><path fill="#2e77aa" d="M82 19h1v1h-1zM82 20h1v1h-1zM82 21h1v1h-1zM82 22h1v1h-1zM82 23h1v1h-1zM82 24h1v1h-1zM82 25h1v1h-1zM82 26h1v1h-1zM82 27h1v1h-1zM82 28h1v1h-1zM82 29h1v1h-1zM82 30h1v1h-1z" /><path fill="#2f79ab" d="M83 19h1v1h-1zM83 20h1v1h-1zM83 21h1v1h-1zM83 22h1v1h-1zM83 23h1v1h-1zM83 24h1v1h-1zM83 25h1v1h-1zM83 26h1v1h-1zM83 27h1v1h-1zM83 28h1v1h-1zM83 29h1v1h-1z" /><path fill="#307aab" d="M84 19h1v1h-1z" /><path fill="#0b4f86" d="M49 20h1v1h-1z" /><path fill="#307aac" d="M84 20h1v1h-1zM84 21h1v1h-1zM84 22h1v1h-1zM84 23h1v1h-1zM84 24h1v1h-1zM84 25h1v1h-1zM84 26h1v1h-1zM84 27h1v1h-1zM84 28h1v1h-1zM84 29h1v1h-1z" /><path fill="#317bad" d="M85 20h1v1h-1zM85 21h1v1h-1zM85 22h1v1h-1zM85 23h1v1h-1zM85 24h1v1h-1zM85 25h1v1h-1zM85 26h1v1h-1zM85 27h1v1h-1zM85 28h1v1h-1z" /><path fill="#327bad" d="M86 20h1v1h-1z" /><path fill="#084d85" d="M47 21h1v1h-1z" /><path fill="#0d5188" d="M51 21h1v1h-1z" /><path fill="#327cae" d="M86 21h1v1h-1zM86 22h1v1h-1zM86 23h1v1h-1zM86 24h1v1h-1zM86 25h1v1h-1zM86 26h1v1h-1zM86 27h1v1h-1zM86 28h1v1h-1z" /><path fill="#327daf" d="M87 21h1v1h-1z" /><path fill="#337eb0" d="M88 21h1v1h-1z" /><path fill="#074a82" d="M45 22h1v1h-1z" /><path fill="#074b84" d="M46 22h1v1h-1z" /><path fill="#0f538b" d="M53 22h1v1h-1z" /><path fill="#10568b" d="M54 22h1v1h-1z" /><path fill="#337daf" d="M87 22h1v1h-1zM87 23h1v1h-1zM87 24h1v1h-1zM87 25h1v1h-1zM87 26h1v1h-1zM87 27h1v1h-1z" /><path fill="#347fb0" d="M88 22h1v1h-1zM88 23h1v1h-1zM88 24h1v1h-1zM88 25h1v1h-1zM88 26h1v1h-1z" /><path fill="#357fb0" d="M89 22h1v1h-1z" /><path fill="#11578c" d="M55 23h1v1h-1z" /><path fill="#3580b1" d="M89 23h1v1h-1zM89 24h1v1h-1zM89 25h1v1h-1zM89 26h1v1h-1z" /><path fill="#3681b2" d="M90 23h1v1h-1zM90 24h1v1h-1zM90 25h1v1h-1z" /><path fill="#034780" d="M42 24h1v1h-1z" /><path fill="#13598f" d="M57 24h1v1h-1z" /><path fill="#3681b3" d="M91 24h1v1h-1z" /><path fill="#02447e" d="M40 25h1v1h-1z" /><path fill="#155c92" d="M59 25h1v1h-1z" /><path fill="#3782b3" d="M91 25h1v1h-1z" /><path fill="#347caf" d="M92 25h1v1h-1z" /><path fill="#165d93" d="M60 26h1v1h-1z" /><path fill="#3480b0" d="M90 26h1v1h-1z" /><path fill="#1a6095" d="M91 26h1v1h-1z" /><path fill="#00447d" d="M92 26h1v1h-1z" /><path fill="#337fb0" d="M88 27h1v1h-1z" /><path fill="#03467e" d="M90 27h1v1h-1zM83 31h1v1h-1zM76 35h1v1h-1z" /><path fill="#074a84" d="M88 28h1v1h-1z" /><path fill="#00427c" d="M93 28h1v1h-1zM26 66h1v1h-1zM27 67h1v1h-1zM34 71h1v1h-1zM65 71h1v1h-1zM36 72h1v1h-1zM93 73h1v1h-1zM39 74h1v1h-1zM59 74h2v1h-2zM58 75h1v1h-1zM56 76h1v1h-1zM45 77h1v1h-1zM54 77h1v1h-1zM90 77h1v1h-1zM46 78h1v1h-1zM89 78h1v1h-1zM48 79h1v1h-1zM17 82h1v1h-1zM21 84h1v1h-1zM22 85h2v1h-2zM76 85h1v1h-1zM26 87h1v1h-1zM64 92h1v1h-1zM63 93h1v1h-1zM61 94h1v1h-1zM40 95h1v1h-1zM59 95h1v1h-1zM41 96h1v1h-1zM54 98h1v1h-1zM47 99h2v1h-2zM51 99h1v1h-1z" /><path fill="#1c6297" d="M65 29h1v1h-1z" /><path fill="#1d6399" d="M66 29h1v1h-1z" /><path fill="#2e78aa" d="M85 29h1v1h-1z" /><path fill="#0e5489" d="M86 29h1v1h-1z" /><path fill="#1d649a" d="M67 30h1v1h-1z" /><path fill="#2e78ab" d="M83 30h1v1h-1z" /><path fill="#1a6197" d="M84 30h1v1h-1z" /><path fill="#01427c" d="M85 30h1v1h-1z" /><path fill="#2c76a9" d="M81 31h1v1h-1z" /><path fill="#226b9e" d="M82 31h1v1h-1z" /><path fill="#276fa2" d="M80 32h1v1h-1z" /><path fill="#246d9f" d="M73 33h1v1h-1z" /><path fill="#2872a4" d="M78 33h1v1h-1z" /><path fill="#175c93" d="M77 34h1v1h-1z" /><path fill="#00567a" d="M49 38h2v1h-2zM47 39h1v1h-1zM52 39h1v1h-1zM53 40h2v1h-2z" /><path fill="#00577b" d="M48 39h4v1h-4zM46 40h7v1h-7zM45 41h10v1h-10zM42 42h15v1h-15zM41 43h18v1h-18zM41 44h18v1h-18zM43 45h14v1h-14zM45 46h10v1h-10zM46 47h7v1h-7zM48 48h4v1h-4z" /><path fill="#00567b" d="M45 40h1v1h-1zM43 41h1v1h-1zM57 42h1v1h-1z" /><path fill="#00577a" d="M44 41h1v1h-1zM55 41h1v1h-1zM40 43h1v1h-1zM59 43h1v1h-1z" /><path fill="#132525" d="M39 44h1v1h-1z" /><path fill="#064761" d="M40 44h1v1h-1z" /><path fill="#0c4b66" d="M59 44h1v1h-1z" /><path fill="#1a3c50" d="M60 44h1v1h-1z" /><path fill="#14201e" d="M39 45h1v1h-1zM39 46h1v1h-1zM39 47h1v1h-1zM39 48h1v1h-1zM39 49h1v1h-1zM39 50h1v1h-1zM39 51h1v1h-1zM39 52h1v1h-1zM39 53h1v1h-1zM39 54h1v1h-1zM39 55h1v1h-1zM43 58h1v1h-1zM45 59h1v1h-1z" /><path fill="#15211f" d="M40 45h1v1h-1zM40 46h2v1h-2zM40 47h4v1h-4zM40 48h6v1h-6zM40 49h8v1h-8zM40 50h9v1h-9zM40 51h9v1h-9zM40 52h9v1h-9zM40 53h9v1h-9zM40 54h9v1h-9zM40 55h9v1h-9zM40 56h9v1h-9zM42 57h7v1h-7zM44 58h5v1h-5zM46 59h3v1h-3zM47 60h2v1h-2z" /><path fill="#11292d" d="M41 45h1v1h-1z" /><path fill="#02506f" d="M42 45h1v1h-1z" /><path fill="#074f6e" d="M57 45h1v1h-1z" /><path fill="#1c3a4e" d="M58 45h1v1h-1z" /><path fill="#1e384b" d="M59 45h1v1h-1zM58 46h2v1h-2zM56 47h4v1h-4zM54 48h6v1h-6zM52 49h8v1h-8zM51 50h9v1h-9zM50 51h10v1h-10zM50 52h10v1h-10zM50 53h10v1h-10zM50 54h10v1h-10zM50 55h10v1h-10zM50 56h9v1h-9zM50 57h8v1h-8zM50 58h6v1h-6zM50 59h4v1h-4zM50 60h2v1h-2zM53 60h1v1h-1zM50 61h1v1h-1z" /><path fill="#1e374b" d="M60 45h1v1h-1zM60 46h1v1h-1zM60 47h1v1h-1zM60 48h1v1h-1zM60 49h1v1h-1zM50 50h1v1h-1zM60 50h1v1h-1zM60 51h1v1h-1zM60 52h1v1h-1zM60 53h1v1h-1zM60 54h1v1h-1zM60 55h1v1h-1zM54 59h1v1h-1zM52 60h1v1h-1z" /><path fill="#14211f" d="M42 46h1v1h-1zM49 51h1v1h-1zM49 52h1v1h-1zM49 53h1v1h-1zM49 54h1v1h-1zM49 55h1v1h-1zM49 56h1v1h-1zM49 57h1v1h-1zM49 58h1v1h-1zM44 59h1v1h-1zM49 59h1v1h-1zM49 60h1v1h-1zM49 61h1v1h-1z" /><path fill="#0e333e" d="M43 46h1v1h-1z" /><path fill="#015578" d="M44 46h1v1h-1z" /><path fill="#035375" d="M55 46h1v1h-1z" /><path fill="#173f56" d="M56 46h1v1h-1z" /><path fill="#1e374a" d="M57 46h1v1h-1z" /><path fill="#152120" d="M44 47h1v1h-1z" /><path fill="#093e50" d="M45 47h1v1h-1z" /><path fill="#015679" d="M53 47h1v1h-1z" /><path fill="#104461" d="M54 47h1v1h-1z" /><path fill="#1d374b" d="M55 47h1v1h-1zM59 56h1v1h-1zM58 57h1v1h-1z" /><path fill="#132626" d="M46 48h1v1h-1z" /><path fill="#044c67" d="M47 48h1v1h-1z" /><path fill="#0a4b6a" d="M52 48h1v1h-1z" /><path fill="#1d384c" d="M53 48h1v1h-1z" /><path fill="#102c32" d="M48 49h1v1h-1z" /><path fill="#025272" d="M49 49h1v1h-1z" /><path fill="#055172" d="M50 49h1v1h-1z" /><path fill="#193b51" d="M51 49h1v1h-1z" /><path fill="#142221" d="M49 50h1v1h-1z" /><path fill="#15201f" d="M39 56h1v1h-1zM46 60h1v1h-1z" /><path fill="#14211e" d="M41 57h1v1h-1z" /><path fill="#1d374a" d="M56 58h1v1h-1z" /><path fill="#14201f" d="M48 61h1v1h-1z" /><path fill="#1d384b" d="M51 61h1v1h-1z" /><path fill="#023e75" d="M23 65h1v1h-1z" /><path fill="#00427d" d="M24 65h1v1h-1z" /><path fill="#043b70" d="M20 66h1v1h-1zM10 72h1v1h-1z" /><path fill="#033b73" d="M21 66h1v1h-1zM14 70h1v1h-1z" /><path fill="#00427a" d="M22 66h1v1h-1zM8 74h1v1h-1z" /><path fill="#01417a" d="M20 67h1v1h-1z" /><path fill="#00437b" d="M72 67h1v1h-1zM70 68h1v1h-1zM17 69h1v1h-1zM43 76h1v1h-1zM44 77h1v1h-1zM10 78h1v1h-1zM51 79h1v1h-1zM87 79h1v1h-1zM85 80h1v1h-1zM15 81h1v1h-1zM70 89h1v1h-1zM33 91h1v1h-1zM35 92h1v1h-1zM42 96h1v1h-1zM57 96h1v1h-1zM43 97h1v1h-1zM49 99h2v1h-2z" /><path fill="#013f77" d="M18 68h1v1h-1z" /><path fill="#00427b" d="M29 68h1v1h-1zM31 69h1v1h-1zM68 69h1v1h-1zM15 70h1v1h-1zM32 70h1v1h-1zM66 70h1v1h-1zM93 72h1v1h-1zM7 75h1v1h-1zM41 75h1v1h-1zM8 76h1v1h-1zM91 76h1v1h-1zM9 77h1v1h-1zM88 78h1v1h-1zM12 79h1v1h-1zM14 80h1v1h-1zM16 81h1v1h-1zM81 82h1v1h-1zM73 87h1v1h-1zM71 88h1v1h-1zM31 90h1v1h-1zM68 90h1v1h-1zM66 91h1v1h-1zM55 97h1v1h-1z" /><path fill="#023e74" d="M16 69h1v1h-1z" /><path fill="#014178" d="M13 71h1v1h-1z" /><path fill="#013f76" d="M11 72h1v1h-1z" /><path fill="#023d74" d="M9 73h1v1h-1z" /><path fill="#033b72" d="M7 74h1v1h-1z" /></svg>