<svg xmlns="http://www.w3.org/2000/svg" viewBox="0 0 100 100" width="1em" height="1em"><path fill="#563d7b" d="M10 0h1v1h-1zM89 0h1v1h-1zM96 4h1v1h-1zM0 10h1v1h-1zM0 11h1v1h-1zM0 12h1v1h-1zM99 12h1v1h-1zM0 87h1v1h-1zM99 87h1v1h-1zM0 89h1v1h-1zM96 95h1v1h-1zM12 99h1v1h-1zM87 99h1v1h-1z" /><path fill="#563c7b" d="M11 0h1v1h-1zM88 0h1v1h-1zM99 11h1v1h-1zM99 88h1v1h-1zM11 99h1v1h-1zM88 99h1v1h-1z" /><path fill="#563d7c" d="M12 0h76v1h-76zM7 1h85v1h-85zM6 2h88v1h-88zM5 3h90v1h-90zM4 4h92v1h-92zM3 5h94v1h-94zM2 6h96v1h-96zM2 7h96v1h-96zM1 8h98v1h-98zM1 9h98v1h-98zM1 10h98v1h-98zM1 11h98v1h-98zM1 12h98v1h-98zM0 13h100v1h-100zM0 14h100v1h-100zM0 15h100v1h-100zM0 16h100v1h-100zM0 17h100v1h-100zM0 18h100v1h-100zM0 19h28v1h-28zM62 19h38v1h-38zM0 20h28v1h-28zM67 20h33v1h-33zM0 21h28v1h-28zM69 21h31v1h-31zM0 22h28v1h-28zM71 22h29v1h-29zM0 23h28v1h-28zM72 23h28v1h-28zM0 24h28v1h-28zM73 24h27v1h-27zM0 25h28v1h-28zM74 25h26v1h-26zM0 26h28v1h-28zM75 26h25v1h-25zM0 27h28v1h-28zM75 27h25v1h-25zM0 28h28v1h-28zM76 28h24v1h-24zM0 29h28v1h-28zM76 29h24v1h-24zM0 30h28v1h-28zM76 30h24v1h-24zM0 31h28v1h-28zM42 31h17v1h-17zM76 31h24v1h-24zM0 32h28v1h-28zM42 32h19v1h-19zM76 32h24v1h-24zM0 33h28v1h-28zM42 33h19v1h-19zM76 33h24v1h-24zM0 34h28v1h-28zM42 34h20v1h-20zM76 34h24v1h-24zM0 35h28v1h-28zM42 35h20v1h-20zM76 35h24v1h-24zM0 36h28v1h-28zM42 36h21v1h-21zM76 36h24v1h-24zM0 37h28v1h-28zM42 37h21v1h-21zM76 37h24v1h-24zM0 38h28v1h-28zM42 38h20v1h-20zM76 38h24v1h-24zM0 39h28v1h-28zM42 39h20v1h-20zM76 39h24v1h-24zM0 40h28v1h-28zM42 40h20v1h-20zM76 40h24v1h-24zM0 41h28v1h-28zM42 41h19v1h-19zM75 41h25v1h-25zM0 42h28v1h-28zM42 42h18v1h-18zM75 42h25v1h-25zM0 43h28v1h-28zM42 43h15v1h-15zM74 43h26v1h-26zM0 44h28v1h-28zM73 44h27v1h-27zM0 45h28v1h-28zM72 45h28v1h-28zM0 46h28v1h-28zM71 46h29v1h-29zM0 47h28v1h-28zM70 47h30v1h-30zM0 48h28v1h-28zM72 48h28v1h-28zM0 49h28v1h-28zM74 49h26v1h-26zM0 50h28v1h-28zM75 50h25v1h-25zM0 51h28v1h-28zM76 51h24v1h-24zM0 52h28v1h-28zM77 52h23v1h-23zM0 53h28v1h-28zM77 53h23v1h-23zM0 54h28v1h-28zM42 54h18v1h-18zM78 54h22v1h-22zM0 55h28v1h-28zM42 55h20v1h-20zM78 55h22v1h-22zM0 56h28v1h-28zM42 56h21v1h-21zM78 56h22v1h-22zM0 57h28v1h-28zM42 57h22v1h-22zM79 57h21v1h-21zM0 58h28v1h-28zM42 58h22v1h-22zM79 58h21v1h-21zM0 59h28v1h-28zM42 59h23v1h-23zM79 59h21v1h-21zM0 60h28v1h-28zM42 60h23v1h-23zM79 60h21v1h-21zM0 61h28v1h-28zM42 61h23v1h-23zM79 61h21v1h-21zM0 62h28v1h-28zM42 62h23v1h-23zM79 62h21v1h-21zM0 63h28v1h-28zM42 63h23v1h-23zM79 63h21v1h-21zM0 64h28v1h-28zM42 64h23v1h-23zM79 64h21v1h-21zM0 65h28v1h-28zM42 65h22v1h-22zM79 65h21v1h-21zM0 66h28v1h-28zM42 66h22v1h-22zM79 66h21v1h-21zM0 67h28v1h-28zM42 67h20v1h-20zM79 67h21v1h-21zM0 68h28v1h-28zM42 68h19v1h-19zM79 68h21v1h-21zM0 69h28v1h-28zM78 69h22v1h-22zM0 70h28v1h-28zM78 70h22v1h-22zM0 71h28v1h-28zM77 71h23v1h-23zM0 72h28v1h-28zM77 72h23v1h-23zM0 73h28v1h-28zM76 73h24v1h-24zM0 74h28v1h-28zM75 74h25v1h-25zM0 75h28v1h-28zM74 75h26v1h-26zM0 76h28v1h-28zM73 76h27v1h-27zM0 77h28v1h-28zM71 77h29v1h-29zM0 78h28v1h-28zM69 78h31v1h-31zM0 79h28v1h-28zM67 79h33v1h-33zM0 80h28v1h-28zM62 80h38v1h-38zM0 81h100v1h-100zM0 82h100v1h-100zM0 83h100v1h-100zM0 84h100v1h-100zM0 85h100v1h-100zM0 86h100v1h-100zM1 87h98v1h-98zM1 88h98v1h-98zM1 89h98v1h-98zM1 90h98v1h-98zM1 91h98v1h-98zM2 92h96v1h-96zM2 93h96v1h-96zM3 94h94v1h-94zM4 95h92v1h-92zM5 96h90v1h-90zM6 97h88v1h-88zM8 98h84v1h-84zM13 99h74v1h-74z" /><path fill="#553c7b" d="M92 1h1v1h-1zM4 3h1v1h-1zM99 89h1v1h-1zM7 98h1v1h-1zM89 99h1v1h-1z" /><path fill="#553c7c" d="M5 2h1v1h-1zM2 5h1v1h-1zM98 92h1v1h-1z" /><path fill="#553d7b" d="M94 2h1v1h-1zM97 5h1v1h-1zM2 94h1v1h-1zM3 95h1v1h-1zM5 97h1v1h-1z" /><path fill="#563c7c" d="M95 3h1v1h-1zM3 4h1v1h-1zM1 7h1v1h-1zM4 96h1v1h-1zM92 98h1v1h-1z" /><path fill="#553d7c" d="M98 7h1v1h-1zM99 10h1v1h-1zM0 88h1v1h-1zM1 92h1v1h-1zM97 94h1v1h-1zM95 96h1v1h-1zM94 97h1v1h-1zM10 99h1v1h-1z" /><path fill="#7c6899" d="M28 19h1v1h-1zM70 77h1v1h-1zM65 79h1v1h-1zM28 80h1v1h-1z" /><path fill="#83719f" d="M29 19h28v1h-28zM29 80h29v1h-29z" /><path fill="#7e6b9b" d="M57 19h1v1h-1z" /><path fill="#786496" d="M58 19h1v1h-1z" /><path fill="#6d578d" d="M59 19h1v1h-1z" /><path fill="#675089" d="M60 19h1v1h-1zM73 43h1v1h-1zM71 48h1v1h-1zM62 55h1v1h-1z" /><path fill="#573f7d" d="M61 19h1v1h-1zM75 40h1v1h-1zM73 49h1v1h-1zM76 52h1v1h-1z" /><path fill="#e4e1ea" d="M28 20h1v1h-1zM28 21h1v1h-1zM28 22h1v1h-1zM28 23h1v1h-1zM28 24h1v1h-1zM28 25h1v1h-1zM28 26h1v1h-1zM28 27h1v1h-1zM28 28h1v1h-1zM28 29h1v1h-1zM28 30h1v1h-1zM28 31h1v1h-1zM28 32h1v1h-1zM28 33h1v1h-1zM28 34h1v1h-1zM28 35h1v1h-1zM28 36h1v1h-1zM28 37h1v1h-1zM28 38h1v1h-1zM28 39h1v1h-1zM28 40h1v1h-1zM28 41h1v1h-1zM28 42h1v1h-1zM28 43h1v1h-1zM28 44h1v1h-1zM28 45h1v1h-1zM28 46h1v1h-1zM28 47h1v1h-1zM28 48h1v1h-1zM28 49h1v1h-1zM28 50h1v1h-1zM28 51h1v1h-1zM28 52h1v1h-1zM28 53h1v1h-1zM28 54h1v1h-1zM28 55h1v1h-1zM28 56h1v1h-1zM28 57h1v1h-1zM28 58h1v1h-1zM28 59h1v1h-1zM28 60h1v1h-1zM28 61h1v1h-1zM28 62h1v1h-1zM78 62h1v1h-1zM28 63h1v1h-1zM28 64h1v1h-1zM28 65h1v1h-1zM28 66h1v1h-1zM28 67h1v1h-1zM28 68h1v1h-1zM28 69h1v1h-1zM28 70h1v1h-1zM28 71h1v1h-1zM28 72h1v1h-1zM28 73h1v1h-1zM28 74h1v1h-1zM28 75h1v1h-1zM28 76h1v1h-1zM28 77h1v1h-1zM28 78h1v1h-1zM28 79h1v1h-1z" /><path fill="#ffffff" d="M29 20h32v1h-32zM29 21h37v1h-37zM29 22h40v1h-40zM29 23h41v1h-41zM29 24h42v1h-42zM29 25h43v1h-43zM29 26h44v1h-44zM29 27h45v1h-45zM29 28h45v1h-45zM29 29h46v1h-46zM29 30h12v1h-12zM60 30h15v1h-15zM29 31h12v1h-12zM61 31h14v1h-14zM29 32h12v1h-12zM62 32h13v1h-13zM29 33h12v1h-12zM63 33h12v1h-12zM29 34h12v1h-12zM63 34h12v1h-12zM29 35h12v1h-12zM63 35h12v1h-12zM29 36h12v1h-12zM64 36h11v1h-11zM29 37h12v1h-12zM64 37h11v1h-11zM29 38h12v1h-12zM63 38h12v1h-12zM29 39h12v1h-12zM63 39h12v1h-12zM29 40h12v1h-12zM63 40h11v1h-11zM29 41h12v1h-12zM63 41h11v1h-11zM29 42h12v1h-12zM62 42h11v1h-11zM29 43h12v1h-12zM60 43h12v1h-12zM29 44h12v1h-12zM58 44h13v1h-13zM29 45h41v1h-41zM29 46h39v1h-39zM29 47h38v1h-38zM29 48h40v1h-40zM29 49h42v1h-42zM29 50h44v1h-44zM29 51h45v1h-45zM29 52h46v1h-46zM29 53h12v1h-12zM61 53h15v1h-15zM29 54h12v1h-12zM63 54h13v1h-13zM29 55h12v1h-12zM64 55h13v1h-13zM29 56h12v1h-12zM65 56h12v1h-12zM29 57h12v1h-12zM65 57h13v1h-13zM29 58h12v1h-12zM66 58h12v1h-12zM29 59h12v1h-12zM66 59h12v1h-12zM29 60h12v1h-12zM66 60h12v1h-12zM29 61h12v1h-12zM66 61h12v1h-12zM29 62h12v1h-12zM66 62h12v1h-12zM29 63h12v1h-12zM66 63h12v1h-12zM29 64h12v1h-12zM66 64h12v1h-12zM29 65h12v1h-12zM66 65h12v1h-12zM29 66h12v1h-12zM65 66h13v1h-13zM29 67h12v1h-12zM64 67h14v1h-14zM29 68h12v1h-12zM63 68h14v1h-14zM29 69h12v1h-12zM62 69h15v1h-15zM29 70h47v1h-47zM29 71h47v1h-47zM29 72h46v1h-46zM29 73h45v1h-45zM29 74h44v1h-44zM29 75h43v1h-43zM29 76h41v1h-41zM29 77h40v1h-40zM29 78h37v1h-37zM29 79h32v1h-32z" /><path fill="#faf9fb" d="M61 20h1v1h-1z" /><path fill="#e1dce7" d="M62 20h1v1h-1z" /><path fill="#c7bfd4" d="M63 20h1v1h-1z" /><path fill="#ab9fbe" d="M64 20h1v1h-1zM74 27h1v1h-1zM41 30h1v1h-1zM41 69h1v1h-1z" /><path fill="#82709e" d="M65 20h1v1h-1z" /><path fill="#5b4380" d="M66 20h1v1h-1z" /><path fill="#f6f4f8" d="M66 21h1v1h-1zM62 54h1v1h-1zM65 58h1v1h-1z" /><path fill="#c0b7ce" d="M67 21h1v1h-1z" /><path fill="#776396" d="M68 21h1v1h-1z" /><path fill="#cbc3d6" d="M69 22h1v1h-1z" /><path fill="#6c568d" d="M70 22h1v1h-1z" /><path fill="#f7f6f9" d="M70 23h1v1h-1zM69 48h1v1h-1zM71 49h1v1h-1z" /><path fill="#8e7ea8" d="M71 23h1v1h-1zM42 53h14v1h-14z" /><path fill="#fefefe" d="M71 24h1v1h-1zM57 44h1v1h-1zM65 65h1v1h-1zM70 76h1v1h-1z" /><path fill="#9c8db2" d="M72 24h1v1h-1zM57 30h1v1h-1z" /><path fill="#fefdfe" d="M72 25h1v1h-1zM61 69h1v1h-1z" /><path fill="#84719f" d="M73 25h1v1h-1zM78 67h1v1h-1z" /><path fill="#eeebf2" d="M73 26h1v1h-1z" /><path fill="#5f4783" d="M74 26h1v1h-1zM77 54h1v1h-1z" /><path fill="#f2f0f5" d="M74 28h1v1h-1z" /><path fill="#5b4280" d="M75 28h1v1h-1zM78 68h1v1h-1z" /><path fill="#8674a1" d="M75 29h1v1h-1z" /><path fill="#614a85" d="M42 30h12v1h-12zM42 69h14v1h-14z" /><path fill="#664f88" d="M54 30h1v1h-1zM71 45h1v1h-1z" /><path fill="#6f598f" d="M55 30h1v1h-1zM59 80h1v1h-1z" /><path fill="#806e9d" d="M56 30h1v1h-1zM75 39h1v1h-1zM74 74h1v1h-1z" /><path fill="#c7bed3" d="M58 30h1v1h-1z" /><path fill="#f9f8fa" d="M59 30h1v1h-1zM75 34h1v1h-1z" /><path fill="#b1a6c3" d="M75 30h1v1h-1zM75 38h1v1h-1z" /><path fill="#a698ba" d="M41 31h1v1h-1zM41 32h1v1h-1zM61 32h1v1h-1zM41 33h1v1h-1zM41 34h1v1h-1zM41 35h1v1h-1zM41 36h1v1h-1zM41 37h1v1h-1zM41 38h1v1h-1zM41 39h1v1h-1zM41 40h1v1h-1zM41 41h1v1h-1zM41 42h1v1h-1zM41 43h1v1h-1zM41 54h1v1h-1zM41 55h1v1h-1zM41 56h1v1h-1zM41 57h1v1h-1zM41 58h1v1h-1zM41 59h1v1h-1zM41 60h1v1h-1zM41 61h1v1h-1zM41 62h1v1h-1zM41 63h1v1h-1zM41 64h1v1h-1zM41 65h1v1h-1zM41 66h1v1h-1zM41 67h1v1h-1zM41 68h1v1h-1z" /><path fill="#654e87" d="M59 31h1v1h-1z" /><path fill="#bdb3cc" d="M60 31h1v1h-1z" /><path fill="#d0c9db" d="M75 31h1v1h-1zM70 45h1v1h-1zM78 60h1v1h-1z" /><path fill="#e7e4ed" d="M75 32h1v1h-1zM41 44h1v1h-1z" /><path fill="#573e7d" d="M61 33h1v1h-1zM70 46h1v1h-1zM62 67h1v1h-1z" /><path fill="#d3cddd" d="M62 33h1v1h-1zM69 77h1v1h-1z" /><path fill="#f2f1f5" d="M75 33h1v1h-1z" /><path fill="#8c7ba6" d="M62 34h1v1h-1zM58 43h1v1h-1z" /><path fill="#614984" d="M62 35h1v1h-1zM74 50h1v1h-1z" /><path fill="#f4f2f6" d="M75 35h1v1h-1z" /><path fill="#f8f7fa" d="M63 36h1v1h-1zM73 74h1v1h-1z" /><path fill="#e9e6ee" d="M75 36h1v1h-1zM71 44h1v1h-1z" /><path fill="#f6f5f8" d="M63 37h1v1h-1zM77 68h1v1h-1zM74 73h1v1h-1z" /><path fill="#d1cbdc" d="M75 37h1v1h-1z" /><path fill="#5c4481" d="M62 38h1v1h-1z" /><path fill="#816e9d" d="M62 39h1v1h-1z" /><path fill="#bcb2cb" d="M62 40h1v1h-1z" /><path fill="#eae7ef" d="M74 40h1v1h-1z" /><path fill="#7c699a" d="M61 41h1v1h-1z" /><path fill="#fdfdfd" d="M62 41h1v1h-1zM76 70h1v1h-1z" /><path fill="#9888af" d="M74 41h1v1h-1zM76 53h1v1h-1zM78 58h1v1h-1z" /><path fill="#8675a1" d="M60 42h1v1h-1z" /><path fill="#f5f4f7" d="M61 42h1v1h-1z" /><path fill="#d9d3e1" d="M73 42h1v1h-1zM78 64h1v1h-1z" /><path fill="#583f7e" d="M74 42h1v1h-1zM66 79h1v1h-1z" /><path fill="#604884" d="M57 43h1v1h-1z" /><path fill="#cfc7d9" d="M59 43h1v1h-1z" /><path fill="#edeaf1" d="M72 43h1v1h-1z" /><path fill="#d2cbdc" d="M42 44h12v1h-12zM59 53h1v1h-1z" /><path fill="#d3ccdd" d="M54 44h1v1h-1z" /><path fill="#ded9e5" d="M55 44h1v1h-1zM74 51h1v1h-1z" /><path fill="#ebe8f0" d="M56 44h1v1h-1zM64 56h1v1h-1z" /><path fill="#6d588e" d="M72 44h1v1h-1zM64 65h1v1h-1z" /><path fill="#f0edf3" d="M68 46h1v1h-1z" /><path fill="#9a8bb1" d="M69 46h1v1h-1z" /><path fill="#fafafb" d="M67 47h1v1h-1zM60 53h1v1h-1z" /><path fill="#9b8cb1" d="M68 47h1v1h-1z" /><path fill="#5d4582" d="M69 47h1v1h-1zM75 51h1v1h-1z" /><path fill="#bbb1ca" d="M70 48h1v1h-1z" /><path fill="#a79abb" d="M72 49h1v1h-1z" /><path fill="#cfc8da" d="M73 50h1v1h-1z" /><path fill="#c9c1d5" d="M75 52h1v1h-1z" /><path fill="#c3bbd1" d="M41 53h1v1h-1z" /><path fill="#8f7ea8" d="M56 53h1v1h-1z" /><path fill="#9a8bb0" d="M57 53h1v1h-1z" /><path fill="#afa3c1" d="M58 53h1v1h-1z" /><path fill="#634b86" d="M60 54h1v1h-1zM63 56h1v1h-1z" /><path fill="#a496b8" d="M61 54h1v1h-1z" /><path fill="#efedf3" d="M76 54h1v1h-1z" /><path fill="#dfdae6" d="M63 55h1v1h-1z" /><path fill="#a294b7" d="M77 55h1v1h-1z" /><path fill="#e1dde8" d="M77 56h1v1h-1zM78 63h1v1h-1zM62 79h1v1h-1z" /><path fill="#9383ab" d="M64 57h1v1h-1z" /><path fill="#725d92" d="M78 57h1v1h-1zM57 69h1v1h-1z" /><path fill="#59407e" d="M64 58h1v1h-1zM61 80h1v1h-1z" /><path fill="#ccc4d7" d="M65 59h1v1h-1z" /><path fill="#bab0ca" d="M78 59h1v1h-1zM77 69h1v1h-1z" /><path fill="#b5aac5" d="M65 60h1v1h-1z" /><path fill="#a89bbc" d="M65 61h1v1h-1zM59 69h1v1h-1z" /><path fill="#dbd5e3" d="M78 61h1v1h-1z" /><path fill="#ab9ebe" d="M65 62h1v1h-1z" /><path fill="#bbb1cb" d="M65 63h1v1h-1z" /><path fill="#dcd7e4" d="M65 64h1v1h-1z" /><path fill="#c5bdd2" d="M78 65h1v1h-1z" /><path fill="#cdc5d8" d="M64 66h1v1h-1z" /><path fill="#aa9dbd" d="M78 66h1v1h-1z" /><path fill="#afa4c1" d="M63 67h1v1h-1z" /><path fill="#735e93" d="M61 68h1v1h-1z" /><path fill="#cec7d9" d="M62 68h1v1h-1z" /><path fill="#6a548b" d="M56 69h1v1h-1z" /><path fill="#8a79a5" d="M58 69h1v1h-1z" /><path fill="#d9d4e2" d="M60 69h1v1h-1z" /><path fill="#705b90" d="M77 70h1v1h-1z" /><path fill="#b5abc6" d="M76 71h1v1h-1z" /><path fill="#e6e3ec" d="M75 72h1v1h-1z" /><path fill="#5f4883" d="M76 72h1v1h-1z" /><path fill="#745f93" d="M75 73h1v1h-1z" /><path fill="#ece9f0" d="M72 75h1v1h-1z" /><path fill="#796597" d="M73 75h1v1h-1zM58 80h1v1h-1z" /><path fill="#bfb5cd" d="M71 76h1v1h-1z" /><path fill="#624b85" d="M72 76h1v1h-1z" /><path fill="#f0eef4" d="M66 78h1v1h-1z" /><path fill="#b9afc9" d="M67 78h1v1h-1z" /><path fill="#766295" d="M68 78h1v1h-1z" /><path fill="#fcfcfd" d="M61 79h1v1h-1z" /><path fill="#c1b7cf" d="M63 79h1v1h-1z" /><path fill="#a091b5" d="M64 79h1v1h-1z" /><path fill="#634c86" d="M60 80h1v1h-1z" /></svg>