<svg xmlns="http://www.w3.org/2000/svg" viewBox="0 0 100 100" width="1em" height="1em"><path fill="#00d0b2" d="M47 0h1v1h-1zM22 25h1v1h-1zM21 30h1v1h-1zM21 32h1v1h-1zM76 32h1v1h-1zM75 33h1v1h-1zM74 34h1v1h-1zM73 35h1v1h-1zM72 36h1v1h-1zM20 37h1v1h-1zM71 37h1v1h-1zM70 38h1v1h-1zM20 39h1v1h-1zM69 39h1v1h-1zM68 40h1v1h-1zM67 41h1v1h-1zM66 42h1v1h-1zM65 43h1v1h-1zM19 44h1v1h-1zM64 44h1v1h-1zM63 45h1v1h-1zM19 46h1v1h-1zM62 46h1v1h-1zM61 47h1v1h-1zM60 48h1v1h-1zM59 49h1v1h-1zM59 50h1v1h-1zM18 51h1v1h-1zM60 51h1v1h-1zM61 52h1v1h-1zM18 53h1v1h-1zM62 53h1v1h-1zM63 54h1v1h-1zM64 55h1v1h-1zM65 56h1v1h-1zM66 57h1v1h-1zM17 58h1v1h-1zM67 58h1v1h-1zM68 59h1v1h-1zM17 60h1v1h-1zM69 60h1v1h-1zM70 61h1v1h-1zM71 62h1v1h-1zM72 63h1v1h-1zM73 64h1v1h-1zM16 65h1v1h-1zM74 65h1v1h-1zM75 66h1v1h-1zM16 67h1v1h-1zM76 67h1v1h-1zM78 69h1v1h-1zM79 70h1v1h-1zM80 71h1v1h-1zM81 72h1v1h-1zM82 73h1v1h-1zM83 74h1v1h-1zM83 75h1v1h-1zM82 76h1v1h-1zM80 77h1v1h-1zM79 78h1v1h-1zM77 79h1v1h-1zM76 80h1v1h-1zM74 81h1v1h-1zM73 82h1v1h-1zM71 83h1v1h-1zM70 84h1v1h-1zM68 85h1v1h-1zM67 86h1v1h-1zM65 87h1v1h-1zM64 88h1v1h-1zM62 89h1v1h-1zM61 90h1v1h-1zM59 91h1v1h-1zM58 92h1v1h-1zM56 93h1v1h-1zM55 94h1v1h-1zM53 95h1v1h-1zM52 96h1v1h-1zM50 97h1v1h-1zM49 98h1v1h-1z" /><path fill="#00d0b1" d="M46 1h1v1h-1zM45 2h1v1h-1zM44 3h1v1h-1zM43 4h1v1h-1zM42 5h1v1h-1zM41 6h1v1h-1zM40 7h1v1h-1zM39 8h1v1h-1zM38 9h1v1h-1zM37 10h1v1h-1zM36 11h1v1h-1zM35 12h1v1h-1zM34 13h1v1h-1zM33 14h1v1h-1zM32 15h1v1h-1zM31 16h1v1h-1zM30 17h1v1h-1zM29 18h1v1h-1zM28 19h1v1h-1zM27 20h1v1h-1zM26 21h1v1h-1zM25 22h1v1h-1zM24 23h1v1h-1zM23 24h1v1h-1zM77 31h1v1h-1zM16 68h1v1h-1zM77 68h1v1h-1zM17 69h1v1h-1zM18 70h1v1h-1zM19 71h1v1h-1zM20 72h1v1h-1zM21 73h1v1h-1zM22 74h1v1h-1zM23 75h1v1h-1zM24 76h1v1h-1zM25 77h1v1h-1zM26 78h1v1h-1zM27 79h1v1h-1zM28 80h1v1h-1zM29 81h1v1h-1zM30 82h1v1h-1zM31 83h1v1h-1zM32 84h1v1h-1zM33 85h1v1h-1zM34 86h1v1h-1zM35 87h1v1h-1zM36 88h1v1h-1zM37 89h1v1h-1zM38 90h1v1h-1zM39 91h1v1h-1zM40 92h1v1h-1zM41 93h1v1h-1zM42 94h1v1h-1zM43 95h1v1h-1zM44 96h1v1h-1zM45 97h1v1h-1zM46 98h1v1h-1z" /><path fill="#00d1b2" d="M47 1h1v1h-1zM46 2h3v1h-3zM45 3h5v1h-5zM44 4h7v1h-7zM43 5h9v1h-9zM42 6h11v1h-11zM41 7h13v1h-13zM40 8h15v1h-15zM39 9h17v1h-17zM38 10h19v1h-19zM37 11h21v1h-21zM36 12h23v1h-23zM35 13h25v1h-25zM34 14h27v1h-27zM33 15h29v1h-29zM32 16h31v1h-31zM31 17h33v1h-33zM30 18h35v1h-35zM29 19h37v1h-37zM28 20h39v1h-39zM27 21h41v1h-41zM26 22h43v1h-43zM25 23h45v1h-45zM24 24h47v1h-47zM23 25h49v1h-49zM23 26h50v1h-50zM22 27h52v1h-52zM22 28h53v1h-53zM22 29h54v1h-54zM22 30h55v1h-55zM21 31h56v1h-56zM22 32h54v1h-54zM22 33h53v1h-53zM21 34h53v1h-53zM21 35h52v1h-52zM21 36h51v1h-51zM21 37h50v1h-50zM20 38h50v1h-50zM21 39h48v1h-48zM21 40h47v1h-47zM20 41h47v1h-47zM20 42h46v1h-46zM20 43h45v1h-45zM20 44h44v1h-44zM19 45h44v1h-44zM20 46h42v1h-42zM20 47h41v1h-41zM19 48h41v1h-41zM19 49h40v1h-40zM19 50h40v1h-40zM19 51h41v1h-41zM18 52h43v1h-43zM19 53h43v1h-43zM19 54h44v1h-44zM18 55h46v1h-46zM18 56h47v1h-47zM18 57h48v1h-48zM18 58h49v1h-49zM17 59h51v1h-51zM18 60h51v1h-51zM18 61h52v1h-52zM17 62h54v1h-54zM17 63h55v1h-55zM17 64h56v1h-56zM17 65h57v1h-57zM16 66h59v1h-59zM17 67h59v1h-59zM17 68h60v1h-60zM18 69h60v1h-60zM19 70h60v1h-60zM20 71h60v1h-60zM21 72h60v1h-60zM22 73h60v1h-60zM23 74h60v1h-60zM24 75h59v1h-59zM25 76h56v1h-56zM26 77h54v1h-54zM27 78h51v1h-51zM28 79h49v1h-49zM29 80h46v1h-46zM30 81h44v1h-44zM31 82h41v1h-41zM32 83h39v1h-39zM33 84h36v1h-36zM34 85h34v1h-34zM35 86h31v1h-31zM36 87h29v1h-29zM37 88h26v1h-26zM38 89h24v1h-24zM39 90h21v1h-21zM40 91h19v1h-19zM41 92h16v1h-16zM42 93h14v1h-14zM43 94h11v1h-11zM44 95h9v1h-9zM45 96h6v1h-6zM46 97h4v1h-4zM47 98h1v1h-1zM47 99h1v1h-1z" /><path fill="#00d1b1" d="M48 1h1v1h-1zM49 2h1v1h-1zM50 3h1v1h-1zM51 4h1v1h-1zM52 5h1v1h-1zM53 6h1v1h-1zM54 7h1v1h-1zM55 8h1v1h-1zM56 9h1v1h-1zM57 10h1v1h-1zM58 11h1v1h-1zM59 12h1v1h-1zM60 13h1v1h-1zM61 14h1v1h-1zM62 15h1v1h-1zM63 16h1v1h-1zM64 17h1v1h-1zM65 18h1v1h-1zM66 19h1v1h-1zM67 20h1v1h-1zM68 21h1v1h-1zM69 22h1v1h-1zM70 23h1v1h-1zM71 24h1v1h-1zM72 25h1v1h-1zM22 26h1v1h-1zM73 26h1v1h-1zM74 27h1v1h-1zM75 28h1v1h-1zM76 29h1v1h-1zM77 30h1v1h-1zM21 33h1v1h-1zM20 40h1v1h-1zM19 47h1v1h-1zM18 54h1v1h-1zM17 61h1v1h-1zM81 76h1v1h-1zM78 78h1v1h-1zM75 80h1v1h-1zM72 82h1v1h-1zM69 84h1v1h-1zM66 86h1v1h-1zM63 88h1v1h-1zM60 90h1v1h-1zM57 92h1v1h-1zM54 94h1v1h-1zM51 96h1v1h-1zM48 98h1v1h-1z" /></svg>