<svg xmlns="http://www.w3.org/2000/svg" viewBox="0 0 100 100" width="1em" height="1em"><path fill="#000000" d="M44 7h7v1h-7zM41 8h13v1h-13zM39 9h17v1h-17zM37 10h7v1h-7zM52 10h6v1h-6zM36 11h5v1h-5zM55 11h5v1h-5zM34 12h5v1h-5zM56 12h6v1h-6zM32 13h5v1h-5zM58 13h5v1h-5zM31 14h5v1h-5zM60 14h5v1h-5zM29 15h5v1h-5zM61 15h6v1h-6zM28 16h5v1h-5zM63 16h5v1h-5zM26 17h5v1h-5zM65 17h5v1h-5zM24 18h5v1h-5zM66 18h6v1h-6zM22 19h6v1h-6zM68 19h5v1h-5zM21 20h5v1h-5zM70 20h5v1h-5zM19 21h5v1h-5zM72 21h5v1h-5zM17 22h5v1h-5zM73 22h5v1h-5zM16 23h5v1h-5zM75 23h5v1h-5zM15 24h4v1h-4zM77 24h4v1h-4zM13 25h5v1h-5zM78 25h4v1h-4zM12 26h4v1h-4zM79 26h4v1h-4zM11 27h4v1h-4zM81 27h3v1h-3zM10 28h4v1h-4zM82 28h3v1h-3zM9 29h4v1h-4zM83 29h3v1h-3zM9 30h3v1h-3zM84 30h3v1h-3zM8 31h3v1h-3zM85 31h3v1h-3zM7 32h3v1h-3zM85 32h4v1h-4zM6 33h4v1h-4zM86 33h4v1h-4zM6 34h3v1h-3zM87 34h4v1h-4zM5 35h3v1h-3zM88 35h4v1h-4zM5 36h3v1h-3zM88 36h5v1h-5zM4 37h3v1h-3zM89 37h5v1h-5zM4 38h3v1h-3zM89 38h5v1h-5zM3 39h3v1h-3zM90 39h5v1h-5zM3 40h3v1h-3zM90 40h6v1h-6zM3 41h2v1h-2zM90 41h6v1h-6zM2 42h3v1h-3zM30 42h5v1h-5zM61 42h5v1h-5zM91 42h6v1h-6zM2 43h3v1h-3zM33 43h4v1h-4zM64 43h4v1h-4zM91 43h6v1h-6zM2 44h2v1h-2zM33 44h5v1h-5zM64 44h5v1h-5zM91 44h6v1h-6zM2 45h2v1h-2zM33 45h5v1h-5zM64 45h5v1h-5zM92 45h6v1h-6zM1 46h3v1h-3zM26 46h1v1h-1zM33 46h6v1h-6zM57 46h1v1h-1zM64 46h6v1h-6zM92 46h6v1h-6zM1 47h3v1h-3zM26 47h2v1h-2zM33 47h6v1h-6zM57 47h2v1h-2zM64 47h6v1h-6zM92 47h6v1h-6zM1 48h3v1h-3zM26 48h3v1h-3zM32 48h7v1h-7zM57 48h3v1h-3zM63 48h7v1h-7zM92 48h7v1h-7zM1 49h3v1h-3zM26 49h13v1h-13zM57 49h13v1h-13zM92 49h7v1h-7zM1 50h3v1h-3zM27 50h11v1h-11zM58 50h11v1h-11zM92 50h7v1h-7zM1 51h3v1h-3zM27 51h11v1h-11zM58 51h11v1h-11zM92 51h7v1h-7zM1 52h3v1h-3zM28 52h9v1h-9zM59 52h9v1h-9zM92 52h8v1h-8zM1 53h3v1h-3zM30 53h5v1h-5zM61 53h5v1h-5zM92 53h8v1h-8zM1 54h3v1h-3zM92 54h8v1h-8zM1 55h3v1h-3zM92 55h8v1h-8zM2 56h2v1h-2zM91 56h9v1h-9zM2 57h2v1h-2zM91 57h9v1h-9zM2 58h3v1h-3zM91 58h9v1h-9zM2 59h3v1h-3zM39 59h1v1h-1zM56 59h1v1h-1zM91 59h9v1h-9zM3 60h2v1h-2zM39 60h1v1h-1zM56 60h1v1h-1zM90 60h9v1h-9zM3 61h3v1h-3zM90 61h9v1h-9zM3 62h3v1h-3zM45 62h1v1h-1zM90 62h9v1h-9zM4 63h3v1h-3zM89 63h10v1h-10zM4 64h3v1h-3zM41 64h1v1h-1zM54 64h1v1h-1zM89 64h9v1h-9zM5 65h3v1h-3zM42 65h1v1h-1zM53 65h1v1h-1zM88 65h10v1h-10zM5 66h3v1h-3zM43 66h1v1h-1zM52 66h1v1h-1zM87 66h11v1h-11zM6 67h3v1h-3zM87 67h10v1h-10zM6 68h4v1h-4zM86 68h11v1h-11zM7 69h3v1h-3zM85 69h12v1h-12zM8 70h3v1h-3zM85 70h11v1h-11zM9 71h3v1h-3zM84 71h12v1h-12zM9 72h4v1h-4zM83 72h12v1h-12zM10 73h4v1h-4zM82 73h12v1h-12zM11 74h4v1h-4zM81 74h13v1h-13zM12 75h4v1h-4zM79 75h14v1h-14zM13 76h5v1h-5zM78 76h14v1h-14zM14 77h5v1h-5zM77 77h14v1h-14zM15 78h6v1h-6zM75 78h15v1h-15zM16 79h6v1h-6zM73 79h16v1h-16zM17 80h7v1h-7zM72 80h16v1h-16zM19 81h7v1h-7zM69 81h18v1h-18zM20 82h9v1h-9zM67 82h19v1h-19zM21 83h11v1h-11zM64 83h21v1h-21zM22 84h13v1h-13zM60 84h23v1h-23zM24 85h17v1h-17zM54 85h28v1h-28zM26 86h54v1h-54zM27 87h51v1h-51zM30 88h46v1h-46zM32 89h42v1h-42zM35 90h36v1h-36zM38 91h30v1h-30zM42 92h22v1h-22zM52 93h2v1h-2z" /><path fill="#21201f" d="M44 10h1v1h-1z" /><path fill="#807e7a" d="M45 10h1v1h-1z" /><path fill="#b0adaa" d="M46 10h1v1h-1zM10 33h1v1h-1z" /><path fill="#d1d0cc" d="M47 10h1v1h-1z" /><path fill="#cdcac7" d="M48 10h1v1h-1z" /><path fill="#aca8a4" d="M49 10h1v1h-1z" /><path fill="#6c6865" d="M50 10h1v1h-1z" /><path fill="#100f0e" d="M51 10h1v1h-1z" /><path fill="#040404" d="M41 11h1v1h-1zM39 12h1v1h-1zM88 37h1v1h-1zM32 43h1v1h-1zM4 44h1v1h-1zM89 62h1v1h-1zM83 71h1v1h-1z" /><path fill="#72706d" d="M42 11h1v1h-1z" /><path fill="#e8e6e4" d="M43 11h1v1h-1z" /><path fill="#fffefc" d="M44 11h1v1h-1zM42 12h1v1h-1zM40 13h1v1h-1zM38 14h1v1h-1zM36 15h1v1h-1zM35 16h1v1h-1zM33 17h1v1h-1zM31 18h2v1h-2zM30 19h1v1h-1zM28 20h1v1h-1zM26 21h1v1h-1zM21 24h1v1h-1zM18 26h1v1h-1zM17 27h1v1h-1zM14 30h1v1h-1zM13 31h1v1h-1zM12 32h1v1h-1zM11 33h1v1h-1zM10 34h1v1h-1zM10 35h1v1h-1zM9 36h1v1h-1zM8 37h2v1h-2zM8 38h1v1h-1zM7 39h1v1h-1zM7 40h1v1h-1zM6 41h2v1h-2zM6 42h1v1h-1zM6 43h1v1h-1zM5 45h1v1h-1z" /><path fill="#fefcf8" d="M45 11h1v1h-1zM39 14h1v1h-1z" /><path fill="#fdf7ef" d="M46 11h1v1h-1zM26 22h1v1h-1z" /><path fill="#fcf4e7" d="M47 11h1v1h-1zM21 25h1v1h-1zM10 37h1v1h-1z" /><path fill="#fbf0e0" d="M48 11h1v1h-1zM11 36h1v1h-1z" /><path fill="#fbf0df" d="M49 11h3v1h-3zM45 12h2v1h-2zM49 12h1v1h-1zM53 12h1v1h-1zM43 13h1v1h-1zM46 13h1v1h-1zM49 13h1v1h-1zM55 13h1v1h-1zM42 14h2v1h-2zM46 14h1v1h-1zM50 14h1v1h-1zM56 14h2v1h-2zM42 15h2v1h-2zM46 15h2v1h-2zM51 15h1v1h-1zM57 15h2v1h-2zM38 16h1v1h-1zM42 16h1v1h-1zM46 16h2v1h-2zM51 16h2v1h-2zM58 16h3v1h-3zM36 17h2v1h-2zM41 17h2v1h-2zM46 17h2v1h-2zM52 17h2v1h-2zM59 17h4v1h-4zM35 18h3v1h-3zM41 18h2v1h-2zM46 18h3v1h-3zM52 18h3v1h-3zM59 18h5v1h-5zM33 19h4v1h-4zM41 19h2v1h-2zM46 19h3v1h-3zM53 19h3v1h-3zM60 19h6v1h-6zM32 20h4v1h-4zM40 20h2v1h-2zM46 20h3v1h-3zM53 20h3v1h-3zM60 20h8v1h-8zM30 21h5v1h-5zM39 21h3v1h-3zM46 21h3v1h-3zM53 21h4v1h-4zM61 21h8v1h-8zM28 22h5v1h-5zM39 22h2v1h-2zM45 22h5v1h-5zM53 22h4v1h-4zM61 22h10v1h-10zM26 23h6v1h-6zM38 23h3v1h-3zM45 23h5v1h-5zM53 23h5v1h-5zM61 23h12v1h-12zM24 24h6v1h-6zM37 24h3v1h-3zM44 24h6v1h-6zM53 24h5v1h-5zM61 24h13v1h-13zM22 25h5v1h-5zM35 25h5v1h-5zM44 25h6v1h-6zM53 25h5v1h-5zM61 25h15v1h-15zM21 26h6v1h-6zM33 26h6v1h-6zM43 26h6v1h-6zM52 26h6v1h-6zM61 26h16v1h-16zM19 27h19v1h-19zM42 27h7v1h-7zM52 27h7v1h-7zM61 27h18v1h-18zM18 28h19v1h-19zM41 28h8v1h-8zM52 28h7v1h-7zM60 28h20v1h-20zM17 29h20v1h-20zM39 29h10v1h-10zM51 29h30v1h-30zM16 30h33v1h-33zM51 30h31v1h-31zM15 31h68v1h-68zM14 32h70v1h-70zM14 33h71v1h-71zM13 34h72v1h-72zM12 35h74v1h-74zM12 36h75v1h-75zM11 37h76v1h-76zM10 38h78v1h-78zM10 39h78v1h-78zM9 40h80v1h-80zM9 41h20v1h-20zM36 41h24v1h-24zM67 41h22v1h-22zM8 42h19v1h-19zM38 42h20v1h-20zM69 42h21v1h-21zM8 43h18v1h-18zM39 43h18v1h-18zM70 43h20v1h-20zM7 44h19v1h-19zM39 44h18v1h-18zM70 44h20v1h-20zM7 45h18v1h-18zM40 45h16v1h-16zM70 45h20v1h-20zM7 46h18v1h-18zM40 46h16v1h-16zM71 46h19v1h-19zM6 47h19v1h-19zM40 47h16v1h-16zM71 47h19v1h-19zM6 48h19v1h-19zM40 48h16v1h-16zM71 48h18v1h-18zM6 49h19v1h-19zM40 49h16v1h-16zM71 49h18v1h-18zM5 50h20v1h-20zM40 50h16v1h-16zM71 50h18v1h-18zM5 51h21v1h-21zM39 51h18v1h-18zM70 51h19v1h-19zM5 52h20v1h-20zM39 52h18v1h-18zM71 52h17v1h-17zM5 53h18v1h-18zM38 53h20v1h-20zM73 53h15v1h-15zM5 54h17v1h-17zM36 54h24v1h-24zM74 54h14v1h-14zM5 55h16v1h-16zM37 55h22v1h-22zM75 55h12v1h-12zM5 56h16v1h-16zM37 56h22v1h-22zM75 56h12v1h-12zM6 57h15v1h-15zM37 57h22v1h-22zM75 57h12v1h-12zM6 58h16v1h-16zM36 58h3v1h-3zM57 58h3v1h-3zM74 58h12v1h-12zM6 59h17v1h-17zM35 59h3v1h-3zM58 59h2v1h-2zM73 59h13v1h-13zM6 60h18v1h-18zM34 60h4v1h-4zM58 60h4v1h-4zM72 60h13v1h-13zM7 61h31v1h-31zM58 61h27v1h-27zM7 62h32v1h-32zM57 62h27v1h-27zM8 63h31v1h-31zM57 63h26v1h-26zM8 64h32v1h-32zM56 64h26v1h-26zM9 65h31v1h-31zM56 65h26v1h-26zM10 66h31v1h-31zM55 66h26v1h-26zM10 67h32v1h-32zM53 67h27v1h-27zM11 68h33v1h-33zM52 68h27v1h-27zM12 69h35v1h-35zM49 69h29v1h-29zM13 70h64v1h-64zM14 71h62v1h-62zM15 72h59v1h-59zM16 73h57v1h-57zM17 74h54v1h-54zM19 75h50v1h-50zM21 76h46v1h-46zM23 77h42v1h-42zM26 78h36v1h-36zM30 79h28v1h-28zM35 80h18v1h-18z" /><path fill="#dcd3c3" d="M52 11h1v1h-1z" /><path fill="#43403c" d="M53 11h1v1h-1z" /><path fill="#010101" d="M54 11h1v1h-1zM37 13h1v1h-1zM71 21h1v1h-1zM80 27h1v1h-1zM84 31h1v1h-1zM87 35h1v1h-1zM35 42h1v1h-1zM60 42h1v1h-1zM66 42h1v1h-1zM27 44h1v1h-1zM91 45h1v1h-1zM4 57h1v1h-1zM80 74h1v1h-1zM41 85h1v1h-1z" /><path fill="#868481" d="M40 12h1v1h-1z" /><path fill="#f6f4f2" d="M41 12h1v1h-1z" /><path fill="#fefaf4" d="M43 12h1v1h-1zM19 26h1v1h-1zM7 42h1v1h-1zM5 47h1v1h-1z" /><path fill="#f9f2e4" d="M44 12h1v1h-1z" /><path fill="#ebe0cd" d="M47 12h1v1h-1z" /><path fill="#fbefde" d="M48 12h1v1h-1zM87 55h1v1h-1zM60 59h1v1h-1z" /><path fill="#e8dcc8" d="M50 12h1v1h-1z" /><path fill="#e3d7c2" d="M51 12h1v1h-1zM53 13h1v1h-1zM58 24h1v1h-1zM49 30h1v1h-1z" /><path fill="#f7ebda" d="M52 12h1v1h-1z" /><path fill="#eae1d1" d="M54 12h1v1h-1z" /><path fill="#47443f" d="M55 12h1v1h-1zM85 33h1v1h-1z" /><path fill="#646360" d="M38 13h1v1h-1z" /><path fill="#f1efed" d="M39 13h1v1h-1z" /><path fill="#fefbf6" d="M41 13h1v1h-1zM36 16h1v1h-1z" /><path fill="#fcf4e6" d="M42 13h1v1h-1zM7 43h1v1h-1z" /><path fill="#d9ccb6" d="M44 13h1v1h-1z" /><path fill="#f3e8d5" d="M45 13h1v1h-1z" /><path fill="#d8cab5" d="M47 13h1v1h-1z" /><path fill="#e1d4c0" d="M48 13h1v1h-1zM45 19h1v1h-1zM57 21h1v1h-1z" /><path fill="#f6ebd9" d="M50 13h1v1h-1zM45 21h1v1h-1zM37 23h1v1h-1zM59 28h1v1h-1z" /><path fill="#d6c9b3" d="M51 13h1v1h-1zM44 14h1v1h-1zM40 15h1v1h-1zM44 22h1v1h-1zM58 23h1v1h-1z" /><path fill="#cec0a9" d="M52 13h1v1h-1zM49 15h1v1h-1zM55 15h1v1h-1zM56 16h1v1h-1z" /><path fill="#f9eedd" d="M54 13h1v1h-1zM36 24h1v1h-1zM77 26h1v1h-1zM60 27h1v1h-1zM38 43h1v1h-1zM25 45h1v1h-1zM56 45h1v1h-1zM39 50h1v1h-1zM70 50h1v1h-1zM37 53h1v1h-1zM5 57h1v1h-1zM40 65h1v1h-1z" /><path fill="#d8cebf" d="M56 13h1v1h-1z" /><path fill="#22211f" d="M57 13h1v1h-1z" /><path fill="#31302e" d="M36 14h1v1h-1z" /><path fill="#e0dedb" d="M37 14h1v1h-1z" /><path fill="#f4ecdf" d="M40 14h1v1h-1z" /><path fill="#f5ead8" d="M41 14h1v1h-1zM50 15h1v1h-1zM58 17h1v1h-1z" /><path fill="#e9decb" d="M45 14h1v1h-1zM49 14h1v1h-1z" /><path fill="#f0e5d2" d="M47 14h1v1h-1z" /><path fill="#ccbea7" d="M48 14h1v1h-1zM53 14h1v1h-1zM54 15h1v1h-1zM49 16h1v1h-1zM55 16h1v1h-1zM44 17h1v1h-1zM50 17h1v1h-1zM56 17h1v1h-1zM39 18h1v1h-1zM44 18h1v1h-1zM50 18h1v1h-1zM57 18h1v1h-1zM38 19h1v1h-1zM44 19h1v1h-1zM50 19h1v1h-1zM57 19h2v1h-2zM37 20h2v1h-2zM44 20h1v1h-1zM50 20h2v1h-2zM58 20h1v1h-1zM36 21h2v1h-2zM43 21h2v1h-2zM50 21h2v1h-2zM58 21h1v1h-1zM35 22h2v1h-2zM43 22h1v1h-1zM51 22h1v1h-1zM58 22h2v1h-2zM34 23h2v1h-2zM42 23h2v1h-2zM51 23h1v1h-1zM59 23h1v1h-1zM33 24h2v1h-2zM42 24h1v1h-1zM51 24h1v1h-1zM59 24h1v1h-1zM31 25h2v1h-2zM41 25h1v1h-1zM51 25h1v1h-1zM59 25h1v1h-1zM40 26h1v1h-1zM50 26h1v1h-1zM59 26h1v1h-1zM39 27h1v1h-1zM50 27h1v1h-1z" /><path fill="#faeede" d="M51 14h1v1h-1zM33 22h1v1h-1zM50 30h1v1h-1z" /><path fill="#ddd0bb" d="M52 14h1v1h-1zM45 18h1v1h-1zM38 21h1v1h-1zM35 24h1v1h-1z" /><path fill="#d3c6af" d="M54 14h1v1h-1zM44 15h1v1h-1zM55 17h1v1h-1zM39 19h1v1h-1z" /><path fill="#f2e6d3" d="M55 14h1v1h-1z" /><path fill="#a59d92" d="M58 14h1v1h-1z" /><path fill="#050504" d="M59 14h1v1h-1zM29 18h1v1h-1zM29 42h1v1h-1z" /><path fill="#080807" d="M34 15h1v1h-1zM88 64h1v1h-1z" /><path fill="#afaca9" d="M35 15h1v1h-1z" /><path fill="#fffefb" d="M37 15h1v1h-1zM29 20h1v1h-1zM27 21h1v1h-1zM23 23h1v1h-1zM16 28h1v1h-1zM15 29h1v1h-1zM11 34h1v1h-1zM8 39h1v1h-1zM5 46h1v1h-1z" /><path fill="#fdf8ef" d="M38 15h1v1h-1z" /><path fill="#fbf1e1" d="M39 15h1v1h-1zM20 26h1v1h-1z" /><path fill="#eee2cf" d="M41 15h1v1h-1z" /><path fill="#e2d6c2" d="M45 15h1v1h-1z" /><path fill="#d9cbb5" d="M48 15h1v1h-1z" /><path fill="#faefde" d="M52 15h1v1h-1zM43 16h1v1h-1zM53 16h1v1h-1zM48 17h1v1h-1zM40 19h1v1h-1zM52 19h1v1h-1zM60 21h1v1h-1zM41 22h1v1h-1zM27 25h1v1h-1zM26 43h1v1h-1zM57 43h1v1h-1zM25 50h1v1h-1zM56 50h1v1h-1zM38 52h1v1h-1zM57 52h1v1h-1zM55 65h1v1h-1zM42 67h1v1h-1zM25 78h1v1h-1zM34 80h1v1h-1z" /><path fill="#ddd0bc" d="M53 15h1v1h-1zM45 16h1v1h-1zM51 18h1v1h-1zM27 26h1v1h-1z" /><path fill="#ece1ce" d="M56 15h1v1h-1z" /><path fill="#f2e9d7" d="M59 15h1v1h-1z" /><path fill="#54504a" d="M60 15h1v1h-1z" /><path fill="#696765" d="M33 16h1v1h-1z" /><path fill="#f6f5f3" d="M34 16h1v1h-1z" /><path fill="#fcf3e4" d="M37 16h1v1h-1zM12 34h1v1h-1zM8 41h1v1h-1z" /><path fill="#ebdfcc" d="M39 16h1v1h-1zM45 20h1v1h-1z" /><path fill="#cdc0a8" d="M40 16h1v1h-1zM44 16h1v1h-1zM50 22h1v1h-1zM50 25h1v1h-1zM50 28h1v1h-1z" /><path fill="#f9eedc" d="M41 16h1v1h-1z" /><path fill="#ece0cd" d="M48 16h1v1h-1zM40 18h1v1h-1zM39 20h1v1h-1z" /><path fill="#dbcdb8" d="M50 16h1v1h-1zM40 17h1v1h-1zM40 25h1v1h-1z" /><path fill="#dacdb8" d="M54 16h1v1h-1zM49 29h1v1h-1z" /><path fill="#f0e4d2" d="M57 16h1v1h-1zM34 25h1v1h-1zM49 27h1v1h-1z" /><path fill="#d3c9bb" d="M61 16h1v1h-1z" /><path fill="#171615" d="M62 16h1v1h-1zM77 25h1v1h-1z" /><path fill="#222120" d="M31 17h1v1h-1z" /><path fill="#d5d3d0" d="M32 17h1v1h-1z" /><path fill="#fffdfb" d="M34 17h1v1h-1z" /><path fill="#fdf7ec" d="M35 17h1v1h-1zM14 31h1v1h-1z" /><path fill="#f7ecda" d="M38 17h1v1h-1zM58 26h1v1h-1z" /><path fill="#d1c3ad" d="M39 17h1v1h-1zM51 26h1v1h-1zM59 27h1v1h-1z" /><path fill="#f4e8d6" d="M43 17h1v1h-1zM57 22h1v1h-1z" /><path fill="#ddcfba" d="M45 17h1v1h-1zM30 26h1v1h-1z" /><path fill="#cfc1ab" d="M49 17h1v1h-1zM50 24h1v1h-1zM42 25h1v1h-1z" /><path fill="#f1e5d3" d="M51 17h1v1h-1zM49 20h1v1h-1zM32 23h1v1h-1z" /><path fill="#f8eddc" d="M54 17h1v1h-1zM42 20h1v1h-1zM74 24h1v1h-1zM69 43h1v1h-1zM54 66h1v1h-1z" /><path fill="#d0c2ab" d="M57 17h1v1h-1zM51 19h1v1h-1zM59 21h1v1h-1zM41 24h1v1h-1zM40 27h1v1h-1z" /><path fill="#969085" d="M63 17h1v1h-1z" /><path fill="#030303" d="M64 17h1v1h-1zM22 22h1v1h-1zM83 30h1v1h-1zM89 39h1v1h-1zM63 43h1v1h-1zM60 53h1v1h-1z" /><path fill="#979491" d="M30 18h1v1h-1z" /><path fill="#fefaf5" d="M33 18h1v1h-1z" /><path fill="#fcf2e4" d="M34 18h1v1h-1zM23 24h1v1h-1zM9 39h1v1h-1z" /><path fill="#dccfba" d="M38 18h1v1h-1zM49 18h1v1h-1zM29 25h1v1h-1zM39 28h1v1h-1z" /><path fill="#e9dcc9" d="M43 18h1v1h-1zM49 19h1v1h-1z" /><path fill="#f1e4d2" d="M55 18h1v1h-1zM59 19h1v1h-1zM52 20h1v1h-1zM41 27h1v1h-1z" /><path fill="#ccbfa8" d="M56 18h1v1h-1zM32 24h1v1h-1z" /><path fill="#dcceba" d="M58 18h1v1h-1zM43 19h1v1h-1z" /><path fill="#efe4d5" d="M64 18h1v1h-1z" /><path fill="#47433f" d="M65 18h1v1h-1zM4 55h1v1h-1z" /><path fill="#5c5a57" d="M28 19h1v1h-1z" /><path fill="#f3f2ef" d="M29 19h1v1h-1zM14 29h1v1h-1zM12 31h1v1h-1z" /><path fill="#fffdfa" d="M31 19h1v1h-1zM25 22h1v1h-1z" /><path fill="#fdf6ea" d="M32 19h1v1h-1zM17 28h1v1h-1zM15 30h1v1h-1z" /><path fill="#e4d8c4" d="M37 19h1v1h-1z" /><path fill="#e0d4be" d="M56 19h1v1h-1z" /><path fill="#c7beb1" d="M66 19h1v1h-1zM39 49h1v1h-1zM70 49h1v1h-1z" /><path fill="#161613" d="M67 19h1v1h-1z" /><path fill="#2c2b2a" d="M26 20h1v1h-1z" /><path fill="#dad8d5" d="M27 20h1v1h-1z" /><path fill="#fdf8f0" d="M30 20h1v1h-1zM24 23h1v1h-1z" /><path fill="#fbf1e2" d="M31 20h1v1h-1zM25 23h1v1h-1zM5 49h1v1h-1z" /><path fill="#e9ddc9" d="M36 20h1v1h-1zM37 28h1v1h-1z" /><path fill="#cebfa9" d="M43 20h1v1h-1z" /><path fill="#f6ebda" d="M56 20h1v1h-1zM40 24h1v1h-1zM49 26h1v1h-1z" /><path fill="#cec0aa" d="M57 20h1v1h-1zM41 26h1v1h-1z" /><path fill="#ddd1bc" d="M59 20h1v1h-1z" /><path fill="#a39c91" d="M68 20h1v1h-1z" /><path fill="#070705" d="M69 20h1v1h-1z" /><path fill="#111010" d="M24 21h1v1h-1z" /><path fill="#bab7b4" d="M25 21h1v1h-1z" /><path fill="#fdf8f1" d="M28 21h1v1h-1z" /><path fill="#fcf2e3" d="M29 21h1v1h-1z" /><path fill="#e8dbc7" d="M35 21h1v1h-1z" /><path fill="#e8dbc8" d="M42 21h1v1h-1zM41 23h1v1h-1z" /><path fill="#f8eedd" d="M49 21h1v1h-1z" /><path fill="#eadecb" d="M52 21h1v1h-1z" /><path fill="#f5eadb" d="M69 21h1v1h-1z" /><path fill="#6e6862" d="M70 21h1v1h-1z" /><path fill="#8e8c88" d="M23 22h1v1h-1z" /><path fill="#fdfcfa" d="M24 22h1v1h-1z" /><path fill="#fbf2e3" d="M27 22h1v1h-1z" /><path fill="#dfd2be" d="M34 22h1v1h-1z" /><path fill="#d5c8b2" d="M37 22h1v1h-1z" /><path fill="#f9efdd" d="M38 22h1v1h-1z" /><path fill="#d2c5af" d="M42 22h1v1h-1zM28 26h1v1h-1z" /><path fill="#e6dac5" d="M52 22h1v1h-1zM31 26h1v1h-1zM49 28h1v1h-1z" /><path fill="#f4e8d7" d="M60 22h1v1h-1z" /><path fill="#e8ddcd" d="M71 22h1v1h-1z" /><path fill="#3c3a36" d="M72 22h1v1h-1z" /><path fill="#41403d" d="M21 23h1v1h-1z" /><path fill="#eae8e6" d="M22 23h1v1h-1z" /><path fill="#d4c7b1" d="M33 23h1v1h-1z" /><path fill="#d5c7b2" d="M36 23h1v1h-1zM29 26h1v1h-1z" /><path fill="#ece1cd" d="M44 23h1v1h-1z" /><path fill="#d0c3ac" d="M50 23h1v1h-1z" /><path fill="#e6d9c6" d="M52 23h1v1h-1z" /><path fill="#eee2d0" d="M60 23h1v1h-1zM42 26h1v1h-1z" /><path fill="#c5bdaf" d="M73 23h1v1h-1z" /><path fill="#0f0f0e" d="M74 23h1v1h-1zM8 35h1v1h-1zM12 71h1v1h-1zM14 73h1v1h-1z" /><path fill="#111110" d="M19 24h1v1h-1z" /><path fill="#c4c2be" d="M20 24h1v1h-1z" /><path fill="#fef9f3" d="M22 24h1v1h-1zM9 38h1v1h-1z" /><path fill="#f5e9d7" d="M30 24h1v1h-1zM43 25h1v1h-1zM32 26h1v1h-1z" /><path fill="#ded1bd" d="M31 24h1v1h-1z" /><path fill="#d6c9b2" d="M43 24h1v1h-1z" /><path fill="#eadfcc" d="M52 24h1v1h-1z" /><path fill="#ebdfcd" d="M60 24h1v1h-1z" /><path fill="#79746c" d="M75 24h1v1h-1z" /><path fill="#020101" d="M76 24h1v1h-1zM16 26h1v1h-1zM50 67h1v1h-1zM10 69h1v1h-1z" /><path fill="#696764" d="M18 25h1v1h-1z" /><path fill="#fbfaf7" d="M19 25h1v1h-1zM9 35h1v1h-1z" /><path fill="#fffcf9" d="M20 25h1v1h-1z" /><path fill="#ede1ce" d="M28 25h1v1h-1zM60 25h1v1h-1z" /><path fill="#cdbfa7" d="M30 25h1v1h-1z" /><path fill="#d7c9b4" d="M33 25h1v1h-1z" /><path fill="#f2e7d4" d="M52 25h1v1h-1zM38 29h1v1h-1z" /><path fill="#efe4d1" d="M58 25h1v1h-1z" /><path fill="#e3d9ca" d="M76 25h1v1h-1z" /><path fill="#a7a5a1" d="M17 26h1v1h-1z" /><path fill="#e4d7c4" d="M39 26h1v1h-1zM37 29h1v1h-1z" /><path fill="#f2e6d4" d="M60 26h1v1h-1z" /><path fill="#5e5a53" d="M78 26h1v1h-1z" /><path fill="#0e0e0e" d="M15 27h1v1h-1z" /><path fill="#d9d6d3" d="M16 27h1v1h-1z" /><path fill="#fdf7ed" d="M18 27h1v1h-1zM6 45h1v1h-1z" /><path fill="#e9deca" d="M38 27h1v1h-1z" /><path fill="#e0d3bf" d="M51 27h1v1h-1z" /><path fill="#9a9288" d="M79 27h1v1h-1z" /><path fill="#1e1e1d" d="M14 28h1v1h-1z" /><path fill="#f2f1ee" d="M15 28h1v1h-1z" /><path fill="#cdbfa8" d="M38 28h1v1h-1z" /><path fill="#f7ecdb" d="M40 28h1v1h-1zM27 42h1v1h-1zM39 45h1v1h-1zM58 53h1v1h-1z" /><path fill="#f5ebd9" d="M51 28h1v1h-1z" /><path fill="#ccc3b5" d="M80 28h1v1h-1zM83 31h1v1h-1z" /><path fill="#020202" d="M81 28h1v1h-1zM10 32h1v1h-1zM58 44h1v1h-1zM35 53h1v1h-1zM84 70h1v1h-1zM16 75h1v1h-1zM22 79h1v1h-1z" /><path fill="#1f1e1d" d="M13 29h1v1h-1zM6 62h1v1h-1z" /><path fill="#fcf5e8" d="M16 29h1v1h-1z" /><path fill="#e2d5c1" d="M50 29h1v1h-1z" /><path fill="#cdc3b5" d="M81 29h1v1h-1z" /><path fill="#030202" d="M82 29h1v1h-1zM29 53h1v1h-1zM39 61h1v1h-1zM47 68h2v1h-2zM24 80h1v1h-1z" /><path fill="#1c1c1b" d="M12 30h1v1h-1z" /><path fill="#f1f0ed" d="M13 30h1v1h-1z" /><path fill="#d0c7b8" d="M82 30h1v1h-1z" /><path fill="#151514" d="M11 31h1v1h-1z" /><path fill="#dcdad6" d="M11 32h1v1h-1z" /><path fill="#fef9f2" d="M13 32h1v1h-1z" /><path fill="#989388" d="M84 32h1v1h-1z" /><path fill="#fefbf7" d="M12 33h1v1h-1zM10 36h1v1h-1z" /><path fill="#fbf1e0" d="M13 33h1v1h-1z" /><path fill="#686763" d="M9 34h1v1h-1z" /><path fill="#f6ebdb" d="M85 34h1v1h-1zM68 42h1v1h-1zM41 66h1v1h-1z" /><path fill="#141312" d="M86 34h1v1h-1z" /><path fill="#fdf7ee" d="M11 35h1v1h-1z" /><path fill="#d7cebf" d="M86 35h1v1h-1z" /><path fill="#b5b3af" d="M8 36h1v1h-1z" /><path fill="#615d57" d="M87 36h1v1h-1z" /><path fill="#32312f" d="M7 37h1v1h-1z" /><path fill="#f3e9d9" d="M87 37h1v1h-1zM9 66h1v1h-1zM14 72h1v1h-1z" /><path fill="#d8d6d3" d="M7 38h1v1h-1z" /><path fill="#807b72" d="M88 38h1v1h-1z" /><path fill="#3c3b3a" d="M6 39h1v1h-1z" /><path fill="#f5eada" d="M88 39h1v1h-1zM58 42h1v1h-1z" /><path fill="#c7c5c2" d="M6 40h1v1h-1z" /><path fill="#fef9f1" d="M8 40h1v1h-1z" /><path fill="#5d5954" d="M89 40h1v1h-1z" /><path fill="#0e0d0d" d="M5 41h1v1h-1z" /><path fill="#d1c8b9" d="M29 41h1v1h-1zM39 63h1v1h-1z" /><path fill="#68645d" d="M30 41h1v1h-1z" /><path fill="#2f2d2a" d="M31 41h1v1h-1zM62 41h1v1h-1z" /><path fill="#21201e" d="M32 41h1v1h-1zM63 41h1v1h-1z" /><path fill="#2e2c29" d="M33 41h1v1h-1zM64 41h1v1h-1z" /><path fill="#736e66" d="M34 41h1v1h-1zM67 42h1v1h-1z" /><path fill="#cfc6b8" d="M35 41h1v1h-1z" /><path fill="#cbc2b4" d="M60 41h1v1h-1z" /><path fill="#67635c" d="M61 41h1v1h-1zM40 58h1v1h-1zM55 58h1v1h-1z" /><path fill="#66625b" d="M65 41h1v1h-1zM59 42h1v1h-1z" /><path fill="#c9c0b2" d="M66 41h1v1h-1zM70 46h1v1h-1zM7 63h1v1h-1z" /><path fill="#dcd2c4" d="M89 41h1v1h-1z" /><path fill="#72706c" d="M5 42h1v1h-1z" /><path fill="#716c65" d="M28 42h1v1h-1z" /><path fill="#635f58" d="M36 42h1v1h-1z" /><path fill="#f4e9d9" d="M37 42h1v1h-1z" /><path fill="#161413" d="M90 42h1v1h-1z" /><path fill="#cecbc9" d="M5 43h1v1h-1z" /><path fill="#605c56" d="M27 43h1v1h-1z" /><path fill="#131313" d="M28 43h1v1h-1z" /><path fill="#8d8d8d" d="M29 43h1v1h-1zM32 44h1v1h-1z" /><path fill="#b9b9b9" d="M30 43h1v1h-1z" /><path fill="#747474" d="M31 43h1v1h-1z" /><path fill="#4c4843" d="M37 43h1v1h-1zM68 43h1v1h-1z" /><path fill="#504c47" d="M58 43h1v1h-1z" /><path fill="#161616" d="M59 43h1v1h-1z" /><path fill="#919191" d="M60 43h1v1h-1z" /><path fill="#b8b8b8" d="M61 43h1v1h-1z" /><path fill="#6f6f6f" d="M62 43h1v1h-1z" /><path fill="#66625a" d="M90 43h1v1h-1z" /><path fill="#fefdfb" d="M5 44h1v1h-1z" /><path fill="#fefcf7" d="M6 44h1v1h-1z" /><path fill="#968f85" d="M26 44h1v1h-1zM57 44h1v1h-1z" /><path fill="#c6c6c6" d="M28 44h1v1h-1z" /><path fill="#ffffff" d="M29 44h3v1h-3zM60 44h3v1h-3zM28 45h4v1h-4zM59 45h4v1h-4zM29 46h3v1h-3zM60 46h3v1h-3zM29 47h2v1h-2zM60 47h2v1h-2z" /><path fill="#908980" d="M38 44h1v1h-1zM69 44h1v1h-1z" /><path fill="#cecece" d="M59 44h1v1h-1z" /><path fill="#848484" d="M63 44h1v1h-1z" /><path fill="#c8bcae" d="M90 44h1v1h-1z" /><path fill="#2f2d2c" d="M4 45h1v1h-1z" /><path fill="#1d1b19" d="M26 45h1v1h-1zM69 50h1v1h-1z" /><path fill="#252525" d="M27 45h1v1h-1zM31 48h1v1h-1z" /><path fill="#e9e9e9" d="M32 45h1v1h-1z" /><path fill="#1a1817" d="M38 45h1v1h-1zM91 46h1v1h-1z" /><path fill="#1e1c1a" d="M57 45h1v1h-1z" /><path fill="#2f2f2f" d="M58 45h1v1h-1z" /><path fill="#e0e0e0" d="M63 45h1v1h-1z" /><path fill="#23221f" d="M69 45h1v1h-1z" /><path fill="#f6e4d3" d="M90 45h1v1h-1z" /><path fill="#6a6965" d="M4 46h1v1h-1z" /><path fill="#fbf2e2" d="M6 46h1v1h-1z" /><path fill="#cac1b3" d="M25 46h1v1h-1z" /><path fill="#121212" d="M27 46h1v1h-1z" /><path fill="#fdfdfd" d="M28 46h1v1h-1z" /><path fill="#d9d9d9" d="M32 46h1v1h-1z" /><path fill="#c4bbae" d="M39 46h1v1h-1z" /><path fill="#d4cabc" d="M56 46h1v1h-1z" /><path fill="#1b1b1b" d="M58 46h1v1h-1z" /><path fill="#fefefe" d="M59 46h1v1h-1z" /><path fill="#d0d0d0" d="M63 46h1v1h-1z" /><path fill="#f8e4d3" d="M90 46h1v1h-1zM89 51h1v1h-1zM87 57h1v1h-1zM37 81h1v1h-1z" /><path fill="#999593" d="M4 47h1v1h-1z" /><path fill="#a59e93" d="M25 47h1v1h-1z" /><path fill="#818181" d="M28 47h1v1h-1z" /><path fill="#fbfbfb" d="M31 47h1v1h-1z" /><path fill="#515151" d="M32 47h1v1h-1z" /><path fill="#9f988e" d="M39 47h1v1h-1z" /><path fill="#afa89c" d="M56 47h1v1h-1z" /><path fill="#8b8b8b" d="M59 47h1v1h-1z" /><path fill="#f9f9f9" d="M62 47h1v1h-1z" /><path fill="#4a4a4a" d="M63 47h1v1h-1z" /><path fill="#a0998f" d="M70 47h1v1h-1zM39 48h1v1h-1z" /><path fill="#f6e1d1" d="M90 47h1v1h-1zM57 80h1v1h-1z" /><path fill="#413d39" d="M91 47h1v1h-1z" /><path fill="#bcbab7" d="M4 48h1v1h-1z" /><path fill="#fcf6ea" d="M5 48h1v1h-1z" /><path fill="#a9a296" d="M25 48h1v1h-1zM56 48h1v1h-1z" /><path fill="#363636" d="M29 48h1v1h-1z" /><path fill="#616161" d="M30 48h1v1h-1zM61 48h1v1h-1z" /><path fill="#393939" d="M60 48h1v1h-1z" /><path fill="#222222" d="M62 48h1v1h-1z" /><path fill="#a19a8f" d="M70 48h1v1h-1z" /><path fill="#fbf0de" d="M89 48h1v1h-1zM82 64h1v1h-1z" /><path fill="#f6decf" d="M90 48h1v1h-1zM78 70h1v1h-1zM67 77h1v1h-1zM25 79h1v1h-1zM29 80h1v1h-1z" /><path fill="#675f58" d="M91 48h1v1h-1z" /><path fill="#cfcdca" d="M4 49h1v1h-1z" /><path fill="#cdc4b6" d="M25 49h1v1h-1zM56 49h1v1h-1z" /><path fill="#faecdb" d="M89 49h1v1h-1zM88 53h1v1h-1zM80 67h1v1h-1zM78 69h1v1h-1zM28 79h1v1h-1zM33 80h1v1h-1zM54 80h1v1h-1z" /><path fill="#f6dece" d="M90 49h1v1h-1zM90 50h1v1h-1zM90 51h1v1h-1zM90 52h1v1h-1zM89 53h2v1h-2zM89 54h2v1h-2zM89 55h2v1h-2zM88 56h2v1h-2zM88 57h2v1h-2zM87 58h3v1h-3zM87 59h3v1h-3zM86 60h3v1h-3zM86 61h3v1h-3zM85 62h3v1h-3zM85 63h3v1h-3zM84 64h3v1h-3zM83 65h4v1h-4zM82 66h4v1h-4zM82 67h3v1h-3zM81 68h4v1h-4zM80 69h4v1h-4zM79 70h4v1h-4zM77 71h5v1h-5zM76 72h5v1h-5zM75 73h5v1h-5zM73 74h6v1h-6zM72 75h5v1h-5zM70 76h6v1h-6zM68 77h7v1h-7zM65 78h8v1h-8zM62 79h9v1h-9zM27 80h2v1h-2zM58 80h11v1h-11zM29 81h6v1h-6zM53 81h13v1h-13zM32 82h32v1h-32zM36 83h24v1h-24zM41 84h13v1h-13z" /><path fill="#7b726a" d="M91 49h1v1h-1z" /><path fill="#d8d3cd" d="M4 50h1v1h-1z" /><path fill="#201f1d" d="M26 50h1v1h-1z" /><path fill="#1b1918" d="M38 50h1v1h-1zM52 85h1v1h-1z" /><path fill="#1f1e1c" d="M57 50h1v1h-1z" /><path fill="#f9e9d7" d="M89 50h1v1h-1z" /><path fill="#8b7f76" d="M91 50h1v1h-1z" /><path fill="#d1cbc1" d="M4 51h1v1h-1z" /><path fill="#9c958a" d="M26 51h1v1h-1zM57 51h1v1h-1zM38 60h1v1h-1z" /><path fill="#958e84" d="M38 51h1v1h-1z" /><path fill="#a49d92" d="M69 51h1v1h-1zM57 60h1v1h-1z" /><path fill="#867b72" d="M91 51h1v1h-1z" /><path fill="#b9afa5" d="M4 52h1v1h-1z" /><path fill="#fce8dd" d="M25 52h1v1h-1zM59 55h1v1h-1z" /><path fill="#fcd9d7" d="M26 52h1v1h-1z" /><path fill="#594a4c" d="M27 52h1v1h-1z" /><path fill="#5a5650" d="M37 52h1v1h-1z" /><path fill="#58544e" d="M58 52h1v1h-1z" /><path fill="#534547" d="M68 52h1v1h-1z" /><path fill="#fddbd9" d="M69 52h1v1h-1zM73 58h1v1h-1z" /><path fill="#fbe9dd" d="M70 52h1v1h-1z" /><path fill="#fbefdf" d="M88 52h1v1h-1zM18 75h1v1h-1zM20 76h1v1h-1zM29 79h1v1h-1z" /><path fill="#f7dfcf" d="M89 52h1v1h-1zM80 68h1v1h-1zM74 73h1v1h-1z" /><path fill="#71685f" d="M91 52h1v1h-1zM89 61h1v1h-1z" /><path fill="#a29a90" d="M4 53h1v1h-1z" /><path fill="#fce6dc" d="M23 53h1v1h-1z" /><path fill="#fdc9d4" d="M24 53h1v1h-1z" /><path fill="#febbd0" d="M25 53h2v1h-2zM69 53h2v1h-2zM24 54h5v1h-5zM67 54h5v1h-5zM23 55h12v1h-12zM61 55h12v1h-12zM22 56h14v1h-14zM60 56h14v1h-14zM23 57h13v1h-13zM60 57h13v1h-13zM23 58h12v1h-12zM61 58h12v1h-12zM25 59h8v1h-8zM63 59h8v1h-8z" /><path fill="#fbb9ce" d="M27 53h1v1h-1z" /><path fill="#74555f" d="M28 53h1v1h-1z" /><path fill="#726d65" d="M36 53h1v1h-1z" /><path fill="#706b64" d="M59 53h1v1h-1z" /><path fill="#020102" d="M66 53h1v1h-1z" /><path fill="#6d5059" d="M67 53h1v1h-1z" /><path fill="#f8b7cb" d="M68 53h1v1h-1z" /><path fill="#fdcad4" d="M71 53h1v1h-1z" /><path fill="#fce8dc" d="M72 53h1v1h-1zM36 57h1v1h-1z" /><path fill="#5c554f" d="M91 53h1v1h-1z" /><path fill="#847d75" d="M4 54h1v1h-1z" /><path fill="#fce0db" d="M22 54h1v1h-1z" /><path fill="#febdd0" d="M23 54h1v1h-1zM35 55h1v1h-1zM22 57h1v1h-1zM73 57h1v1h-1z" /><path fill="#d59daf" d="M29 54h1v1h-1z" /><path fill="#765760" d="M30 54h1v1h-1z" /><path fill="#3b2b30" d="M31 54h1v1h-1zM62 54h1v1h-1z" /><path fill="#271d20" d="M32 54h1v1h-1z" /><path fill="#463339" d="M33 54h1v1h-1z" /><path fill="#73555e" d="M34 54h1v1h-1z" /><path fill="#d1b5b4" d="M35 54h1v1h-1z" /><path fill="#d3b4b4" d="M60 54h1v1h-1z" /><path fill="#75565f" d="M61 54h1v1h-1z" /><path fill="#231a1d" d="M63 54h1v1h-1z" /><path fill="#3a2b2f" d="M64 54h1v1h-1z" /><path fill="#71535c" d="M65 54h1v1h-1z" /><path fill="#d29bac" d="M66 54h1v1h-1z" /><path fill="#febcd1" d="M72 54h1v1h-1zM60 55h1v1h-1z" /><path fill="#fce2db" d="M73 54h1v1h-1z" /><path fill="#f8e6d6" d="M88 54h1v1h-1zM70 75h1v1h-1zM63 78h1v1h-1zM48 81h1v1h-1z" /><path fill="#433d3a" d="M91 54h1v1h-1z" /><path fill="#fbeedf" d="M21 55h1v1h-1zM74 55h1v1h-1zM74 57h1v1h-1zM24 60h1v1h-1zM33 60h1v1h-1zM71 60h1v1h-1z" /><path fill="#febfd1" d="M22 55h1v1h-1zM33 59h1v1h-1z" /><path fill="#fbeade" d="M36 55h1v1h-1z" /><path fill="#fec0d2" d="M73 55h1v1h-1z" /><path fill="#f7e0d0" d="M88 55h1v1h-1zM64 78h1v1h-1zM61 79h1v1h-1zM35 81h1v1h-1z" /><path fill="#141211" d="M91 55h1v1h-1z" /><path fill="#161513" d="M4 56h1v1h-1zM90 59h1v1h-1z" /><path fill="#fce5dc" d="M21 56h1v1h-1zM59 57h1v1h-1z" /><path fill="#fcdfdb" d="M36 56h1v1h-1zM25 60h1v1h-1z" /><path fill="#fcddd9" d="M59 56h1v1h-1zM23 59h1v1h-1z" /><path fill="#fce7dc" d="M74 56h1v1h-1z" /><path fill="#f9ebd9" d="M87 56h1v1h-1z" /><path fill="#f0dac9" d="M90 56h1v1h-1z" /><path fill="#fbecde" d="M21 57h1v1h-1z" /><path fill="#c6b4a7" d="M90 57h1v1h-1z" /><path fill="#c0b6a9" d="M5 58h1v1h-1z" /><path fill="#fdd8d8" d="M22 58h1v1h-1z" /><path fill="#fcd2d6" d="M35 58h1v1h-1z" /><path fill="#9e988d" d="M39 58h1v1h-1z" /><path fill="#646059" d="M41 58h14v1h-14z" /><path fill="#a29b90" d="M56 58h1v1h-1z" /><path fill="#fccfd6" d="M60 58h1v1h-1z" /><path fill="#faeddc" d="M86 58h1v1h-1zM85 60h1v1h-1zM62 78h1v1h-1z" /><path fill="#776d65" d="M90 58h1v1h-1z" /><path fill="#4b4943" d="M5 59h1v1h-1z" /><path fill="#fec1d2" d="M24 59h1v1h-1z" /><path fill="#fdd9d9" d="M34 59h1v1h-1z" /><path fill="#a69f94" d="M38 59h1v1h-1z" /><path fill="#170607" d="M40 59h1v1h-1z" /><path fill="#1a0708" d="M41 59h14v1h-14z" /><path fill="#160607" d="M55 59h1v1h-1z" /><path fill="#ada69a" d="M57 59h1v1h-1z" /><path fill="#fdd7d8" d="M61 59h1v1h-1z" /><path fill="#febed1" d="M62 59h1v1h-1z" /><path fill="#fec1d1" d="M71 59h1v1h-1z" /><path fill="#fcdfda" d="M72 59h1v1h-1z" /><path fill="#f8e4d4" d="M86 59h1v1h-1zM49 81h1v1h-1z" /><path fill="#050505" d="M5 60h1v1h-1zM15 74h1v1h-1z" /><path fill="#fcd0d5" d="M26 60h1v1h-1z" /><path fill="#fdc7d4" d="M27 60h1v1h-1zM68 60h1v1h-1z" /><path fill="#fdc2d2" d="M28 60h2v1h-2zM66 60h2v1h-2z" /><path fill="#fdc6d3" d="M30 60h1v1h-1zM65 60h1v1h-1z" /><path fill="#fdced5" d="M31 60h1v1h-1z" /><path fill="#fcdcda" d="M32 60h1v1h-1z" /><path fill="#95101c" d="M40 60h1v1h-1z" /><path fill="#b71422" d="M41 60h14v1h-14zM41 61h4v1h-4zM52 61h3v1h-3zM42 62h1v1h-1z" /><path fill="#8f101b" d="M55 60h1v1h-1z" /><path fill="#fbedde" d="M62 60h1v1h-1z" /><path fill="#fddcd9" d="M63 60h1v1h-1z" /><path fill="#fdcfd5" d="M64 60h1v1h-1z" /><path fill="#fcd0d6" d="M69 60h1v1h-1z" /><path fill="#fce0da" d="M70 60h1v1h-1z" /><path fill="#dac7b9" d="M89 60h1v1h-1z" /><path fill="#b8afa3" d="M6 61h1v1h-1z" /><path fill="#e5dbcc" d="M38 61h1v1h-1zM51 68h1v1h-1z" /><path fill="#550910" d="M40 61h1v1h-1z" /><path fill="#97111c" d="M45 61h1v1h-1z" /><path fill="#5b0a11" d="M46 61h1v1h-1z" /><path fill="#41080c" d="M47 61h1v1h-1z" /><path fill="#37080b" d="M48 61h1v1h-1z" /><path fill="#48080d" d="M49 61h1v1h-1z" /><path fill="#730d15" d="M50 61h1v1h-1z" /><path fill="#aa1320" d="M51 61h1v1h-1z" /><path fill="#4e090f" d="M55 61h1v1h-1z" /><path fill="#060505" d="M56 61h1v1h-1zM82 72h1v1h-1zM81 73h1v1h-1zM66 82h1v1h-1zM53 85h1v1h-1z" /><path fill="#ece2d2" d="M57 61h1v1h-1z" /><path fill="#f7e3d2" d="M85 61h1v1h-1z" /><path fill="#534f49" d="M39 62h1v1h-1z" /><path fill="#0a0304" d="M40 62h1v1h-1z" /><path fill="#a8121f" d="M41 62h1v1h-1z" /><path fill="#9f111d" d="M43 62h1v1h-1z" /><path fill="#34070b" d="M44 62h1v1h-1z" /><path fill="#2b0f10" d="M46 62h1v1h-1z" /><path fill="#602425" d="M47 62h1v1h-1z" /><path fill="#712b2c" d="M48 62h1v1h-1z" /><path fill="#521e20" d="M49 62h1v1h-1z" /><path fill="#110506" d="M50 62h1v1h-1z" /><path fill="#090202" d="M51 62h1v1h-1z" /><path fill="#580a11" d="M52 62h1v1h-1z" /><path fill="#b11321" d="M53 62h1v1h-1z" /><path fill="#a5121f" d="M54 62h1v1h-1z" /><path fill="#080303" d="M55 62h1v1h-1z" /><path fill="#5e5953" d="M56 62h1v1h-1z" /><path fill="#fae9d8" d="M84 62h1v1h-1z" /><path fill="#eed7c9" d="M88 62h1v1h-1zM87 64h1v1h-1z" /><path fill="#040303" d="M40 63h1v1h-1z" /><path fill="#3d070c" d="M41 63h1v1h-1z" /><path fill="#90101b" d="M42 63h1v1h-1z" /><path fill="#0d0303" d="M43 63h1v1h-1z" /><path fill="#351314" d="M44 63h1v1h-1z" /><path fill="#cb4d50" d="M45 63h1v1h-1z" /><path fill="#ff6164" d="M46 63h4v1h-4zM45 64h7v1h-7zM45 65h6v1h-6zM46 66h4v1h-4z" /><path fill="#fb5f62" d="M50 63h1v1h-1z" /><path fill="#a03d3f" d="M51 63h1v1h-1z" /><path fill="#180809" d="M52 63h1v1h-1z" /><path fill="#2a0709" d="M53 63h1v1h-1z" /><path fill="#39080b" d="M54 63h1v1h-1z" /><path fill="#060404" d="M55 63h1v1h-1z" /><path fill="#d9cfc0" d="M56 63h1v1h-1z" /><path fill="#faefdd" d="M83 63h1v1h-1zM69 75h1v1h-1zM58 79h1v1h-1z" /><path fill="#f7e0cf" d="M84 63h1v1h-1z" /><path fill="#877b73" d="M88 63h1v1h-1z" /><path fill="#292725" d="M7 64h1v1h-1z" /><path fill="#817b73" d="M40 64h1v1h-1z" /><path fill="#320a0c" d="M42 64h1v1h-1z" /><path fill="#552021" d="M43 64h1v1h-1z" /><path fill="#fc6063" d="M44 64h1v1h-1z" /><path fill="#e7585b" d="M52 64h1v1h-1z" /><path fill="#551f20" d="M53 64h1v1h-1z" /><path fill="#8c867c" d="M55 64h1v1h-1z" /><path fill="#f7e2d2" d="M83 64h1v1h-1zM23 78h1v1h-1zM26 79h1v1h-1zM30 80h1v1h-1zM36 81h1v1h-1zM50 81h1v1h-1z" /><path fill="#ada699" d="M8 65h1v1h-1z" /><path fill="#514d48" d="M41 65h1v1h-1z" /><path fill="#7a2e30" d="M43 65h1v1h-1z" /><path fill="#fe6164" d="M44 65h1v1h-1zM51 65h1v1h-1z" /><path fill="#7c2f31" d="M52 65h1v1h-1z" /><path fill="#5b554f" d="M54 65h1v1h-1z" /><path fill="#f9e7d7" d="M82 65h1v1h-1zM40 81h1v1h-1z" /><path fill="#69605a" d="M87 65h1v1h-1zM25 80h1v1h-1z" /><path fill="#060606" d="M8 66h1v1h-1z" /><path fill="#57524c" d="M42 66h1v1h-1z" /><path fill="#4b1d1d" d="M44 66h1v1h-1z" /><path fill="#dc5456" d="M45 66h1v1h-1z" /><path fill="#d95355" d="M50 66h1v1h-1z" /><path fill="#491c1d" d="M51 66h1v1h-1z" /><path fill="#5f5953" d="M53 66h1v1h-1z" /><path fill="#f9eada" d="M81 66h1v1h-1z" /><path fill="#d1beb0" d="M86 66h1v1h-1z" /><path fill="#54504b" d="M9 67h1v1h-1z" /><path fill="#8a847a" d="M43 67h1v1h-1z" /><path fill="#0a0707" d="M44 67h1v1h-1z" /><path fill="#030101" d="M45 67h1v1h-1z" /><path fill="#461b1b" d="M46 67h1v1h-1z" /><path fill="#863335" d="M47 67h1v1h-1z" /><path fill="#843234" d="M48 67h1v1h-1z" /><path fill="#441a1b" d="M49 67h1v1h-1z" /><path fill="#0c0908" d="M51 67h1v1h-1z" /><path fill="#918a81" d="M52 67h1v1h-1z" /><path fill="#f6dfcf" d="M81 67h1v1h-1zM69 76h1v1h-1z" /><path fill="#f3dbcd" d="M85 67h1v1h-1z" /><path fill="#1f1c1a" d="M86 67h1v1h-1z" /><path fill="#a59d93" d="M10 68h1v1h-1z" /><path fill="#e2d8c9" d="M44 68h1v1h-1z" /><path fill="#7c776e" d="M45 68h1v1h-1z" /><path fill="#29211f" d="M46 68h1v1h-1z" /><path fill="#2c2422" d="M49 68h1v1h-1z" /><path fill="#7f7971" d="M50 68h1v1h-1z" /><path fill="#faecdc" d="M79 68h1v1h-1z" /><path fill="#635a55" d="M85 68h1v1h-1z" /><path fill="#d7cebe" d="M11 69h1v1h-1z" /><path fill="#f2e8d7" d="M47 69h1v1h-1z" /><path fill="#f3e8d8" d="M48 69h1v1h-1z" /><path fill="#f6dfce" d="M79 69h1v1h-1zM71 75h1v1h-1zM52 81h1v1h-1z" /><path fill="#a89a8f" d="M84 69h1v1h-1z" /><path fill="#0b0b0a" d="M11 70h1v1h-1zM42 85h1v1h-1z" /><path fill="#ebe1d1" d="M12 70h1v1h-1z" /><path fill="#f9e9d9" d="M77 70h1v1h-1zM73 73h1v1h-1z" /><path fill="#cab8aa" d="M83 70h1v1h-1zM80 73h1v1h-1z" /><path fill="#eee3d3" d="M13 71h1v1h-1z" /><path fill="#f8e7d6" d="M76 71h1v1h-1zM27 79h1v1h-1z" /><path fill="#d2bfb1" d="M82 71h1v1h-1z" /><path fill="#181716" d="M13 72h1v1h-1z" /><path fill="#faeedd" d="M74 72h1v1h-1zM67 76h1v1h-1zM53 80h1v1h-1z" /><path fill="#f7e3d3" d="M75 72h1v1h-1zM72 74h1v1h-1z" /><path fill="#d6c2b4" d="M81 72h1v1h-1z" /><path fill="#e4dacb" d="M15 73h1v1h-1z" /><path fill="#d3cabc" d="M16 74h1v1h-1z" /><path fill="#fbeddc" d="M71 74h1v1h-1zM22 77h1v1h-1z" /><path fill="#ab9c90" d="M79 74h1v1h-1z" /><path fill="#a79d92" d="M17 75h1v1h-1z" /><path fill="#f4dccc" d="M77 75h1v1h-1zM66 81h1v1h-1z" /><path fill="#786f67" d="M78 75h1v1h-1z" /><path fill="#45403b" d="M18 76h1v1h-1z" /><path fill="#eedfd0" d="M19 76h1v1h-1z" /><path fill="#f8e5d5" d="M68 76h1v1h-1z" /><path fill="#dfcabc" d="M76 76h1v1h-1z" /><path fill="#272422" d="M77 76h1v1h-1z" /><path fill="#100e0d" d="M19 77h1v1h-1z" /><path fill="#c5b5a8" d="M20 77h1v1h-1z" /><path fill="#f8e6d5" d="M21 77h1v1h-1zM60 79h1v1h-1zM31 80h1v1h-1z" /><path fill="#faebda" d="M65 77h1v1h-1z" /><path fill="#f8e3d4" d="M66 77h1v1h-1z" /><path fill="#9b8e84" d="M75 77h1v1h-1z" /><path fill="#030302" d="M76 77h1v1h-1z" /><path fill="#3d3834" d="M21 78h1v1h-1zM58 84h1v1h-1z" /><path fill="#e2cebf" d="M22 78h1v1h-1z" /><path fill="#f9e9d8" d="M24 78h1v1h-1zM32 80h1v1h-1zM55 80h1v1h-1zM42 81h3v1h-3z" /><path fill="#d0beb0" d="M73 78h1v1h-1z" /><path fill="#252320" d="M74 78h1v1h-1z" /><path fill="#7d746b" d="M23 79h1v1h-1z" /><path fill="#edd6c7" d="M24 79h1v1h-1z" /><path fill="#f9ebda" d="M59 79h1v1h-1z" /><path fill="#ddc8bb" d="M71 79h1v1h-1z" /><path fill="#524c47" d="M72 79h1v1h-1z" /><path fill="#e6d0c1" d="M26 80h1v1h-1z" /><path fill="#f7e5d5" d="M56 80h1v1h-1z" /><path fill="#d7c3b5" d="M69 80h1v1h-1z" /><path fill="#534d47" d="M70 80h1v1h-1z" /><path fill="#010000" d="M71 80h1v1h-1z" /><path fill="#020201" d="M26 81h1v1h-1z" /><path fill="#564f49" d="M27 81h1v1h-1z" /><path fill="#cab9aa" d="M28 81h1v1h-1z" /><path fill="#f8e5d4" d="M38 81h1v1h-1z" /><path fill="#f8e5d6" d="M39 81h1v1h-1z" /><path fill="#f9e8d8" d="M41 81h1v1h-1z" /><path fill="#f9e8d7" d="M45 81h3v1h-3z" /><path fill="#f6e0d0" d="M51 81h1v1h-1z" /><path fill="#af9f95" d="M67 81h1v1h-1z" /><path fill="#383330" d="M68 81h1v1h-1z" /><path fill="#131211" d="M29 82h1v1h-1zM32 83h1v1h-1z" /><path fill="#83796f" d="M30 82h1v1h-1z" /><path fill="#dec9bb" d="M31 82h1v1h-1z" /><path fill="#cdbaad" d="M64 82h1v1h-1z" /><path fill="#675e57" d="M65 82h1v1h-1z" /><path fill="#645c55" d="M33 83h1v1h-1z" /><path fill="#bbaa9f" d="M34 83h1v1h-1z" /><path fill="#f1daca" d="M35 83h1v1h-1z" /><path fill="#e8d2c3" d="M60 83h1v1h-1z" /><path fill="#a6988c" d="M61 83h1v1h-1z" /><path fill="#4c4640" d="M62 83h1v1h-1z" /><path fill="#070606" d="M63 83h1v1h-1z" /><path fill="#010100" d="M35 84h1v1h-1z" /><path fill="#181614" d="M36 84h1v1h-1z" /><path fill="#4f4a44" d="M37 84h1v1h-1z" /><path fill="#91847a" d="M38 84h1v1h-1z" /><path fill="#c1aea2" d="M39 84h1v1h-1z" /><path fill="#dec8bb" d="M40 84h1v1h-1z" /><path fill="#f2dbcb" d="M54 84h1v1h-1z" /><path fill="#d8c4b6" d="M55 84h1v1h-1z" /><path fill="#b5a69a" d="M56 84h1v1h-1z" /><path fill="#7d736b" d="M57 84h1v1h-1z" /><path fill="#0c0b0a" d="M59 84h1v1h-1z" /><path fill="#221f1c" d="M43 85h1v1h-1z" /><path fill="#2d2a27" d="M44 85h1v1h-1z" /><path fill="#36322e" d="M45 85h1v1h-1z" /><path fill="#46413d" d="M46 85h1v1h-1z" /><path fill="#4d4741" d="M47 85h1v1h-1z" /><path fill="#49453f" d="M48 85h1v1h-1z" /><path fill="#413b37" d="M49 85h1v1h-1z" /><path fill="#36312d" d="M50 85h1v1h-1z" /><path fill="#262321" d="M51 85h1v1h-1z" /></svg>