<svg xmlns="http://www.w3.org/2000/svg" viewBox="0 0 100 100"><path fill="#77e6db" fill-rule="evenodd" d="M80 13h1v1h-1zm7 1h1v1h-1zm-7 1h1v1h-1zm11 0h1v1h-1zm4 6h1v2h-1zm-15 1h1v2h-1zm0 3h1v2h-1zm0 20h1v2h-1zm15 3h1v2h-1zm0 5h1v1h-1zm0 8h1v2h-1zm0 26h1v1h-1z"/><path fill="#78e6dc" fill-rule="evenodd" d="M81 13h1v1h4v1h4v1h4v1h1v10h1v2h-1v3h1v2h-1v12h1v2h-1v19h1v1h-1v7h1v2h-1v1h1v2h-1v7h-1v1h-1v1h-1v-1h-1v1h-4v1h-4v1h-2v-49h-1v-1h1v-2h-1v-1h1v-10h-1v-1h1z"/><path fill="#78e5db" fill-rule="evenodd" d="M82 13h2v1h-2zm13 6h1v2h-1zm-15 14h1v2h-1zm15 1h1v2h-1zm-15 2h1v2h-1zm15 2h1v2h-1zm-15 9h1v1h-1zm15 13h1v1h-1zm0 10h1v1h-1zm0 3h1v1h-1zm0 11h1v1h-1zm-1 3h1v1h-1z"/><path fill="#78e6db" fill-rule="evenodd" d="M84 13h1v1h-1zm-4 1h1v1h-1zm10 1h1v1h-1zm2 0h1v1h-1zm3 8h1v2h-1zm-15 1h1v1h-1zm0 20h1v1h-1zm15 6h1v3h-1zm0 13h1v2h-1zm0 18h1v2h-1z"/><path fill="#77e6dc" fill-rule="evenodd" d="M86 14h1v1h-1zm-6 2h1v2h-1zm15 0h1v1h-1zm0 9h1v2h-1zm-15 3h1v2h-1zm15 1h1v3h-1zm-15 10h1v2h-1zm0 3h1v2h-1zm15 2h1v2h-1zm0 21h1v2h-1zm0 12h1v1h-1zm0 3h1v1h-1z"/><path fill="#77e5dc" fill-rule="evenodd" d="M94 16h1v1h-1zm-14 2h1v3h-1zm0 13h1v2h-1zm15 9h1v2h-1zm-15 11h1v1h-1zm15 4h1v2h-1zm0 3h1v2h-1zm0 10h1v2h-1zm0 17h1v2h-1zm-8 4h1v1h-1zm-3 1h1v1h-1z"/><path fill="#315ab3" fill-rule="evenodd" d="M4 17h1v1h-1zm15 3h1v1h-1zm-15 1h1v1h-1zm0 11h1v2h-1zm0 9h1v2h-1zm15 16h1v1h-1zm0 6h1v1h-1zm0 10h1v1h-1zm0 3h1v1h-1zm0 5h1v1h-1zm-9 4h1v1h-1z"/><path fill="#325ab4" fill-rule="evenodd" d="M5 17h1v1h1v-1h1v1h2v1h4v1h4v1h2v32h-1v1h1v1h-1v4h1v1h-1v5h1v1h-1v4h1v1h-1v4h1v1h-1v7h-1v1h-2v1h-4v1h-1v-1h-1v1h-2v1h-1v-1h-1v1h-2v-37h1v-3h-1v-1h1v-6h-1v-2h1v-7h-1v-1h1v-6h-1v-1h1v-4h-1v-1h1z"/><path fill="#315ab4" fill-rule="evenodd" d="M6 17h1v1h-1zm4 1h1v1h-1zm4 1h1v1h-1zm-10 8h1v1h-1zm0 7h1v1h-1zm15 28h1v1h-1zm0 5h1v1h-1zm0 11h1v1h-1zm0 2h1v1h-1z"/><path fill="#77e5db" fill-rule="evenodd" d="M95 17h1v2h-1zm-15 18h1v1h-1zm15 1h1v2h-1zm-15 12h1v2h-1zm15 23h1v2h-1zm0 3h1v1h-1zm0 9h1v1h-1z"/><path fill="#3159b4" fill-rule="evenodd" d="M11 18h1v1h-1zm-7 22h1v1h-1zm0 9h1v1h-1zm15 9h1v1h-1zm0 10h1v1h-1zm0 3h1v1h-1zm0 6h1v1h-1z"/><path fill="#3159b3" fill-rule="evenodd" d="M4 19h1v1h-1zm0 12h1v1h-1zm0 16h1v2h-1zm15 6h1v1h-1zm0 11h1v1h-1zm0 2h1v1h-1zm0 6h1v1h-1zm0 10h1v1h-1z"/><path fill="#3259b3" fill-rule="evenodd" d="M15 19h1v1h-1zm-11 3h1v1h-1zm0 4h1v1h-1zm0 17h1v1h-1zm15 13h1v1h-1zm0 13h1v1h-1zm0 10h1v1h-1zm0 4h1v1h-1zm-13 3h1v1h-1z"/><path fill="#325ab3" fill-rule="evenodd" d="M4 20h1v1h-1zm14 0h1v1h-1zm-14 4h1v1h-1zm0 4h1v2h-1zm0 9h1v1h-1zm15 23h1v1h-1z"/><path fill="#78e5dc" fill-rule="evenodd" d="M80 21h1v1h-1zm0 9h1v1h-1zm15 12h1v2h-1zm-15 8h1v1h-1zm0 2h1v39h-1zm15 2h1v1h-1zm0 3h1v1h-1zm-4 31h1v1h-1zm-3 1h1v1h-1zm-5 1h1v1h-1z"/><path fill="#3259b4" fill-rule="evenodd" d="M4 25h1v1h-1zm0 10h1v2h-1zm0 9h1v2h-1zm15 11h1v1h-1zm0 6h1v1h-1zm0 13h1v1h-1zm-1 9h1v1h-1z"/><path fill="#00c8d1" fill-rule="evenodd" d="M68 38h1v1h-1zm-3 1h1v1h-1zm5 0h1v1h-1zm-9 1h1v1h-1zm9 3h1v1h-1zm0 2h1v2h-1zm0 11h1v1h-1zm-14 19h1v1h-1z"/><path fill="#00c8d2" fill-rule="evenodd" d="M69 38h1v3h1v1h-1v2h1v1h-1v4h1v1h-1v2h1v2h-1v25h-2v-1h-3v-1h-4v-1h-4v-1h-1v-33h2v-1h2v-1h1v1h1v-1h4v-1h3z"/><path fill="#00c7d1" fill-rule="evenodd" d="M70 38h1v1h-1zm-6 1h1v1h-1zm-7 2h1v1h-1zm13 6h1v1h-1zm0 3h1v2h-1zm0 4h1v2h-1zm-10 22h1v1h-1z"/><path fill="#00c7d2" fill-rule="evenodd" d="M70 40h1v1h-1zm-14 1h1v1h-1zm0 1v34h-1v-34zm14 0h1v1h-1zm0 6h1v1h-1zm0 9h1v22h-1zm-11 19h1v1h-1zm4 1h2v1h-2zm4 1h1v1h-1z"/><path fill="#3b8cff" fill-rule="evenodd" d="M30 48h1v1h-1zm4 1h1v1h-1zm4 1h1v1h-1zm4 1h1v1h-1zm-13 2h1v1h-1zm0 4h1v1h-1zm15 1h1v1h-1zm-15 4h1v1h-1zm15 1h1v1h-1zm-15 2h1v1h-1zm15 2h1v2h-1zm0 5h1v1h-1zm0 6h1v1h-1zm0 3h1v1h-1zm-1 4h1v1h-1zm-7 2h2v1h-2zm-3 1h1v1h-1z"/><path fill="#3c8cff" fill-rule="evenodd" d="M29 49h4v1h4v1h4v1h4v1h-1v3h1v1h-1v2h1v1h-1v1h1v1h-1v3h1v1h-1v3h1v1h-1v1h1v1h-1v3h1v1h-1v1h1v1h-1v2h1v1h-1v2h1v1h-1v1h-1v1h-1v1h-1v-1h-1v1h-4v1h-4v1h-2v-21h-1v-1h1v-3h-1v-1h1v-1h-1v-1h1v-1h-1v-1h1v-9h-1z"/><path fill="#3c8bff" fill-rule="evenodd" d="M33 49h1v1h-1zm-4 1h1v1h-1zm12 1h1v1h-1zm-12 1h1v1h-1zm0 2h1v1h-1zm15 1h1v1h-1zm-15 1h1v1h-1zm0 4h1v1h-1zm15 0h1v1h-1zm-15 4h1v1h-1zm15 0h1v1h-1zm-15 4h1v21h-1zm15 6h1v1h-1zm0 11h1v1h-1zm-4 1h1v1h-1zm-8 2h1v1h-1z"/><path fill="#3b8bff" fill-rule="evenodd" d="M37 50h1v1h-1zm-8 1h1v1h-1zm15 2h1v2h-1zm-15 2h1v1h-1zm15 2h1v1h-1zm-15 1h1v1h-1zm15 4h1v1h-1zm-15 4h1v1h-1zm15 0h1v1h-1zm0 4h1v1h-1zm0 3h1v1h-1zm0 3h1v1h-1zm0 3h1v1h-1zm0 3h1v1h-1zm0 2h1v1h-1z"/></svg>