<svg xmlns="http://www.w3.org/2000/svg" viewBox="0 0 100 100" width="1em" height="1em"><path fill="#5b8dbc" d="M48 0h1v1h-1zM64 7h1v1h-1zM72 11h1v1h-1zM9 22h1v1h-1zM92 23h1v1h-1zM6 26h1v1h-1zM6 29h1v1h-1zM77 33h1v1h-1zM51 48h1v1h-1zM18 67h1v1h-1z" /><path fill="#5c8dbc" d="M49 0h1v1h-1zM47 1h7v1h-7zM44 2h12v1h-12zM43 3h14v1h-14zM42 4h17v1h-17zM40 5h21v1h-21zM38 6h25v1h-25zM36 7h28v1h-28zM35 8h31v1h-31zM32 9h37v1h-37zM31 10h40v1h-40zM29 11h42v1h-42zM28 12h45v1h-45zM26 13h50v1h-50zM24 14h53v1h-53zM22 15h56v1h-56zM21 16h59v1h-59zM19 17h63v1h-63zM17 18h68v1h-68zM16 19h69v1h-69zM14 20h30v1h-30zM56 20h31v1h-31zM12 21h28v1h-28zM60 21h29v1h-29zM10 22h28v1h-28zM63 22h27v1h-27zM9 23h27v1h-27zM65 23h27v1h-27zM8 24h26v1h-26zM67 24h26v1h-26zM7 25h26v1h-26zM68 25h23v1h-23zM7 26h24v1h-24zM69 26h21v1h-21zM7 27h23v1h-23zM70 27h18v1h-18zM7 28h22v1h-22zM72 28h14v1h-14zM7 29h21v1h-21zM73 29h11v1h-11zM6 30h21v1h-21zM73 30h10v1h-10zM6 31h21v1h-21zM74 31h7v1h-7zM6 32h20v1h-20zM75 32h4v1h-4zM6 33h19v1h-19zM76 33h1v1h-1zM6 34h19v1h-19zM6 35h18v1h-18zM6 36h17v1h-17zM46 36h9v1h-9zM6 37h17v1h-17zM44 37h13v1h-13zM6 38h17v1h-17zM42 38h17v1h-17zM6 39h16v1h-16zM41 39h19v1h-19zM6 40h16v1h-16zM40 40h21v1h-21zM6 41h16v1h-16zM39 41h23v1h-23zM6 42h15v1h-15zM38 42h24v1h-24zM6 43h15v1h-15zM38 43h22v1h-22zM6 44h15v1h-15zM37 44h21v1h-21zM6 45h15v1h-15zM37 45h20v1h-20zM6 46h15v1h-15zM37 46h18v1h-18zM6 47h15v1h-15zM36 47h17v1h-17zM6 48h14v1h-14zM36 48h15v1h-15zM6 49h14v1h-14zM36 49h14v1h-14zM6 50h14v1h-14zM36 50h12v1h-12zM6 51h14v1h-14zM36 51h10v1h-10zM6 52h15v1h-15zM37 52h7v1h-7zM6 53h15v1h-15zM37 53h6v1h-6zM6 54h15v1h-15zM37 54h4v1h-4zM6 55h15v1h-15zM38 55h1v1h-1zM6 56h15v1h-15zM6 57h15v1h-15zM6 58h16v1h-16zM6 59h16v1h-16zM6 60h16v1h-16zM6 61h17v1h-17zM6 62h17v1h-17zM6 63h18v1h-18zM6 64h18v1h-18zM6 65h16v1h-16zM6 66h14v1h-14zM6 67h12v1h-12zM6 68h11v1h-11zM6 69h9v1h-9zM7 70h6v1h-6zM7 71h4v1h-4zM7 72h3v1h-3zM7 73h1v1h-1z" /><path fill="#5c8cbb" d="M50 0h1v1h-1zM57 3h1v1h-1zM41 4h1v1h-1zM35 7h1v1h-1zM66 8h1v1h-1zM18 17h1v1h-1zM82 17h1v1h-1zM15 19h1v1h-1zM85 19h1v1h-1zM13 20h1v1h-1zM6 28h1v1h-1zM11 71h1v1h-1zM6 72h1v1h-1z" /><path fill="#5c8cbc" d="M51 0h1v1h-1zM34 8h1v1h-1zM23 14h1v1h-1zM16 18h1v1h-1zM7 24h1v1h-1z" /><path fill="#5b8cbb" d="M52 0h1v1h-1zM37 6h1v1h-1zM28 11h1v1h-1zM78 15h1v1h-1zM86 19h1v1h-1zM87 20h1v1h-1zM91 25h1v1h-1zM84 29h1v1h-1zM58 44h1v1h-1zM6 70h1v1h-1z" /><path fill="#5b8cbc" d="M45 1h2v1h-2zM56 2h1v1h-1zM42 3h1v1h-1zM59 4h1v1h-1zM63 6h1v1h-1zM33 8h1v1h-1zM26 12h1v1h-1zM25 13h1v1h-1zM77 14h1v1h-1zM79 15h1v1h-1zM20 16h1v1h-1zM80 16h1v1h-1zM6 27h1v1h-1z" /><path fill="#5c8dbb" d="M54 1h1v1h-1zM61 5h1v1h-1zM30 10h1v1h-1zM71 11h1v1h-1zM27 12h1v1h-1zM73 12h1v1h-1zM11 21h1v1h-1zM90 22h1v1h-1zM6 71h1v1h-1z" /><path fill="#5b8dbb" d="M58 3h1v1h-1zM40 4h1v1h-1zM39 5h1v1h-1zM65 7h1v1h-1zM21 15h1v1h-1zM14 19h1v1h-1zM89 21h1v1h-1zM8 23h1v1h-1z" /><path fill="#6090be" d="M44 20h1v1h-1z" /><path fill="#78a1c8" d="M45 20h1v1h-1z" /><path fill="#91b2d2" d="M46 20h1v1h-1z" /><path fill="#a6c0da" d="M47 20h1v1h-1z" /><path fill="#b0c8de" d="M48 20h1v1h-1zM42 21h1v1h-1zM42 37h1v1h-1z" /><path fill="#b7cce1" d="M49 20h1v1h-1zM35 24h1v1h-1z" /><path fill="#bdd1e4" d="M50 20h1v1h-1zM21 44h1v1h-1z" /><path fill="#b2c9df" d="M51 20h1v1h-1z" /><path fill="#a7c1db" d="M52 20h1v1h-1z" /><path fill="#9dbad7" d="M53 20h1v1h-1z" /><path fill="#8cafd0" d="M54 20h1v1h-1z" /><path fill="#6d99c3" d="M55 20h1v1h-1zM57 37h1v1h-1z" /><path fill="#5d8dbc" d="M40 21h1v1h-1zM66 24h1v1h-1zM72 29h1v1h-1zM20 51h1v1h-1zM37 55h1v1h-1z" /><path fill="#83a8cc" d="M41 21h1v1h-1z" /><path fill="#d9e5ef" d="M43 21h1v1h-1zM28 30h1v1h-1zM46 35h1v1h-1zM35 48h1v1h-1zM22 58h1v1h-1z" /><path fill="#fcfdfe" d="M44 21h1v1h-1zM38 23h1v1h-1zM36 24h1v1h-1zM41 37h1v1h-1zM60 38h1v1h-1zM61 39h1v1h-1zM21 47h1v1h-1z" /><path fill="#ffffff" d="M45 21h11v1h-11zM41 22h18v1h-18zM39 23h23v1h-23zM37 24h27v1h-27zM35 25h31v1h-31zM34 26h33v1h-33zM32 27h36v1h-36zM31 28h39v1h-39zM30 29h41v1h-41zM29 30h43v1h-43zM28 31h44v1h-44zM27 32h46v1h-46zM27 33h47v1h-47zM26 34h49v1h-49zM25 35h20v1h-20zM55 35h19v1h-19zM25 36h18v1h-18zM58 36h14v1h-14zM24 37h17v1h-17zM59 37h11v1h-11zM24 38h16v1h-16zM61 38h8v1h-8zM23 39h16v1h-16zM62 39h5v1h-5zM23 40h15v1h-15zM62 40h3v1h-3zM23 41h15v1h-15zM63 41h1v1h-1zM22 42h15v1h-15zM22 43h14v1h-14zM22 44h14v1h-14zM22 45h14v1h-14zM74 45h2v1h-2zM86 45h2v1h-2zM22 46h14v1h-14zM74 46h2v1h-2zM86 46h2v1h-2zM22 47h13v1h-13zM74 47h2v1h-2zM86 47h2v1h-2zM21 48h14v1h-14zM74 48h2v1h-2zM86 48h3v1h-3zM21 49h14v1h-14zM70 49h10v1h-10zM83 49h9v1h-9zM21 50h14v1h-14zM70 50h10v1h-10zM83 50h9v1h-9zM22 51h13v1h-13zM74 51h2v1h-2zM86 51h2v1h-2zM22 52h13v1h-13zM74 52h2v1h-2zM86 52h2v1h-2zM22 53h14v1h-14zM74 53h2v1h-2zM86 53h2v1h-2zM22 54h14v1h-14zM22 55h14v1h-14zM22 56h15v1h-15zM23 57h14v1h-14zM23 58h15v1h-15zM63 58h1v1h-1zM23 59h15v1h-15zM62 59h4v1h-4zM24 60h15v1h-15zM61 60h7v1h-7zM24 61h16v1h-16zM60 61h10v1h-10zM25 62h17v1h-17zM59 62h12v1h-12zM25 63h18v1h-18zM57 63h16v1h-16zM26 64h20v1h-20zM55 64h20v1h-20zM26 65h49v1h-49zM27 66h47v1h-47zM28 67h45v1h-45zM28 68h44v1h-44zM29 69h42v1h-42zM30 70h40v1h-40zM31 71h38v1h-38zM33 72h35v1h-35zM34 73h33v1h-33zM35 74h30v1h-30zM37 75h26v1h-26zM39 76h22v1h-22zM42 77h17v1h-17zM46 78h8v1h-8z" /><path fill="#eef3f8" d="M56 21h1v1h-1zM34 25h1v1h-1zM67 39h1v1h-1zM21 46h1v1h-1zM35 47h1v1h-1z" /><path fill="#cddceb" d="M57 21h1v1h-1z" /><path fill="#a5c0da" d="M58 21h1v1h-1z" /><path fill="#6e9ac3" d="M59 21h1v1h-1z" /><path fill="#6f9ac4" d="M38 22h1v1h-1zM67 25h1v1h-1zM36 46h1v1h-1z" /><path fill="#afc7de" d="M39 22h1v1h-1z" /><path fill="#ebf1f7" d="M40 22h1v1h-1z" /><path fill="#fefefe" d="M59 22h1v1h-1zM45 35h1v1h-1zM38 59h1v1h-1zM43 63h1v1h-1zM61 76h1v1h-1z" /><path fill="#d7e3ef" d="M60 22h1v1h-1z" /><path fill="#9ebbd7" d="M61 22h1v1h-1zM65 24h1v1h-1z" /><path fill="#6492bf" d="M62 22h1v1h-1z" /><path fill="#749ec6" d="M36 23h1v1h-1zM55 36h1v1h-1zM21 42h1v1h-1z" /><path fill="#c1d4e6" d="M37 23h1v1h-1zM71 29h1v1h-1z" /><path fill="#f2f6f9" d="M62 23h1v1h-1zM43 36h1v1h-1z" /><path fill="#a6c1da" d="M63 23h1v1h-1z" /><path fill="#6291bf" d="M64 23h1v1h-1z" /><path fill="#6493bf" d="M34 24h1v1h-1zM43 37h1v1h-1z" /><path fill="#f0f5f9" d="M64 24h1v1h-1z" /><path fill="#8baecf" d="M33 25h1v1h-1z" /><path fill="#d3e0ed" d="M66 25h1v1h-1z" /><path fill="#3f75a7" d="M92 25h1v1h-1z" /><path fill="#246095" d="M93 25h1v1h-1z" /><path fill="#5f8fbd" d="M31 26h1v1h-1zM71 28h1v1h-1zM23 36h1v1h-1z" /><path fill="#b4cae0" d="M32 26h1v1h-1z" /><path fill="#feffff" d="M33 26h1v1h-1zM68 27h1v1h-1zM72 31h1v1h-1zM70 37h1v1h-1zM36 43h1v1h-1zM22 57h1v1h-1zM24 62h1v1h-1z" /><path fill="#f5f8fb" d="M67 26h1v1h-1z" /><path fill="#94b4d3" d="M68 26h1v1h-1zM38 41h1v1h-1z" /><path fill="#497eae" d="M90 26h1v1h-1z" /><path fill="#256195" d="M91 26h1v1h-1z" /><path fill="#1b598e" d="M92 26h2v1h-2zM90 27h4v1h-4zM89 28h5v1h-5zM87 29h7v1h-7zM85 30h9v1h-9zM83 31h11v1h-11zM82 32h12v1h-12zM80 33h14v1h-14zM78 34h16v1h-16zM77 35h17v1h-17zM75 36h19v1h-19zM73 37h21v1h-21zM71 38h23v1h-23zM70 39h24v1h-24zM68 40h26v1h-26zM66 41h28v1h-28zM64 42h30v1h-30zM63 43h31v1h-31zM61 44h12v1h-12zM77 44h8v1h-8zM89 44h5v1h-5zM59 45h14v1h-14zM77 45h8v1h-8zM89 45h5v1h-5zM57 46h16v1h-16zM77 46h8v1h-8zM89 46h5v1h-5zM56 47h17v1h-17zM77 47h8v1h-8zM89 47h5v1h-5zM54 48h15v1h-15zM81 48h1v1h-1zM93 48h1v1h-1zM52 49h17v1h-17zM81 49h1v1h-1zM93 49h1v1h-1zM53 50h16v1h-16zM81 50h1v1h-1zM93 50h1v1h-1zM55 51h14v1h-14zM81 51h1v1h-1zM93 51h1v1h-1zM57 52h16v1h-16zM77 52h8v1h-8zM89 52h5v1h-5zM58 53h15v1h-15zM77 53h8v1h-8zM89 53h5v1h-5zM60 54h13v1h-13zM77 54h8v1h-8zM89 54h5v1h-5zM62 55h32v1h-32zM63 56h31v1h-31zM65 57h29v1h-29zM67 58h27v1h-27zM69 59h25v1h-25zM70 60h24v1h-24zM72 61h22v1h-22zM74 62h20v1h-20zM76 63h18v1h-18zM77 64h17v1h-17zM79 65h15v1h-15zM81 66h13v1h-13zM82 67h12v1h-12zM84 68h10v1h-10zM86 69h8v1h-8zM88 70h6v1h-6zM89 71h5v1h-5zM91 72h3v1h-3zM93 73h1v1h-1z" /><path fill="#346da0" d="M94 26h1v1h-1z" /><path fill="#6593c0" d="M30 27h1v1h-1z" /><path fill="#d5e1ee" d="M31 27h1v1h-1zM37 42h1v1h-1zM36 44h1v1h-1z" /><path fill="#a9c3dc" d="M69 27h1v1h-1zM75 34h1v1h-1zM36 54h1v1h-1z" /><path fill="#5285b5" d="M88 27h1v1h-1zM55 46h1v1h-1z" /><path fill="#2e689b" d="M89 27h1v1h-1zM56 46h1v1h-1z" /><path fill="#30699d" d="M94 27h1v1h-1z" /><path fill="#6b97c2" d="M29 28h1v1h-1zM21 57h1v1h-1z" /><path fill="#dfe9f2" d="M30 28h1v1h-1zM54 35h1v1h-1z" /><path fill="#c0d3e5" d="M70 28h1v1h-1zM62 41h1v1h-1z" /><path fill="#588ab8" d="M86 28h1v1h-1zM53 47h1v1h-1z" /><path fill="#3971a4" d="M87 28h1v1h-1zM54 47h1v1h-1z" /><path fill="#1c5a8f" d="M88 28h1v1h-1zM55 47h1v1h-1zM87 70h1v1h-1z" /><path fill="#2b6799" d="M94 28h1v1h-1z" /><path fill="#6895c1" d="M28 29h1v1h-1z" /><path fill="#e4ecf4" d="M29 29h1v1h-1zM36 55h1v1h-1z" /><path fill="#4077a9" d="M85 29h1v1h-1z" /><path fill="#205d91" d="M86 29h1v1h-1zM85 69h1v1h-1z" /><path fill="#296497" d="M94 29h1v1h-1z" /><path fill="#6291be" d="M27 30h1v1h-1zM20 48h1v1h-1z" /><path fill="#adc5dd" d="M72 30h1v1h-1z" /><path fill="#4b80b0" d="M83 30h1v1h-1z" /><path fill="#276296" d="M84 30h1v1h-1z" /><path fill="#296498" d="M94 30h1v1h-1zM94 31h1v1h-1zM94 32h1v1h-1zM94 33h1v1h-1zM77 34h1v1h-1zM94 34h1v1h-1zM94 35h1v1h-1zM94 36h1v1h-1zM94 37h1v1h-1zM94 38h1v1h-1zM94 39h1v1h-1zM94 40h1v1h-1zM94 41h1v1h-1zM94 42h1v1h-1zM94 43h1v1h-1zM94 44h1v1h-1zM94 45h1v1h-1zM94 46h1v1h-1zM94 47h1v1h-1zM94 48h1v1h-1zM94 49h1v1h-1zM94 50h1v1h-1zM94 51h1v1h-1zM94 52h1v1h-1zM94 53h1v1h-1zM94 54h1v1h-1zM94 55h1v1h-1zM94 56h1v1h-1zM94 57h1v1h-1zM94 58h1v1h-1zM94 59h1v1h-1zM94 60h1v1h-1zM94 61h1v1h-1zM94 62h1v1h-1zM94 63h1v1h-1zM94 64h1v1h-1zM94 65h1v1h-1zM94 66h1v1h-1zM94 67h1v1h-1zM94 68h1v1h-1zM94 69h1v1h-1z" /><path fill="#c9d9e9" d="M27 31h1v1h-1z" /><path fill="#99b7d5" d="M73 31h1v1h-1z" /><path fill="#5386b5" d="M81 31h1v1h-1z" /><path fill="#316a9e" d="M82 31h1v1h-1z" /><path fill="#a0bcd8" d="M26 32h1v1h-1z" /><path fill="#fbfcfd" d="M73 32h1v1h-1zM88 45h1v1h-1zM88 46h1v1h-1zM88 47h1v1h-1zM88 52h1v1h-1zM88 53h1v1h-1zM64 58h1v1h-1zM27 67h1v1h-1z" /><path fill="#77a0c7" d="M74 32h1v1h-1zM25 33h1v1h-1zM36 53h1v1h-1z" /><path fill="#598bba" d="M79 32h1v1h-1z" /><path fill="#3c73a5" d="M80 32h1v1h-1z" /><path fill="#1d5b8f" d="M81 32h1v1h-1z" /><path fill="#fafbfd" d="M26 33h1v1h-1zM65 40h1v1h-1z" /><path fill="#dce7f1" d="M74 33h1v1h-1z" /><path fill="#5e8ebd" d="M75 33h1v1h-1z" /><path fill="#447aab" d="M78 33h1v1h-1zM52 48h1v1h-1z" /><path fill="#215e93" d="M79 33h1v1h-1z" /><path fill="#d5e2ee" d="M25 34h1v1h-1z" /><path fill="#4e82b2" d="M76 34h1v1h-1z" /><path fill="#97b6d4" d="M24 35h1v1h-1zM23 37h1v1h-1z" /><path fill="#abc4dd" d="M47 35h1v1h-1z" /><path fill="#90b2d2" d="M48 35h1v1h-1z" /><path fill="#82a8cc" d="M49 35h1v1h-1z" /><path fill="#7da4c9" d="M50 35h1v1h-1z" /><path fill="#87abce" d="M51 35h1v1h-1z" /><path fill="#98b7d5" d="M52 35h1v1h-1z" /><path fill="#b7cde2" d="M53 35h1v1h-1zM56 36h1v1h-1z" /><path fill="#eaf1f6" d="M74 35h1v1h-1z" /><path fill="#759bbe" d="M75 35h1v1h-1z" /><path fill="#1b5a8e" d="M76 35h1v1h-1z" /><path fill="#e9f0f6" d="M24 36h1v1h-1z" /><path fill="#a4bfd9" d="M44 36h1v1h-1z" /><path fill="#6a97c2" d="M45 36h1v1h-1z" /><path fill="#f9fbfd" d="M57 36h1v1h-1z" /><path fill="#f8fafc" d="M72 36h1v1h-1z" /><path fill="#9db9d2" d="M73 36h1v1h-1z" /><path fill="#266294" d="M74 36h1v1h-1z" /><path fill="#ccdcea" d="M58 37h1v1h-1zM23 61h1v1h-1z" /><path fill="#bdd0e1" d="M71 37h1v1h-1z" /><path fill="#3b71a0" d="M72 37h1v1h-1z" /><path fill="#e2eaf3" d="M23 38h1v1h-1z" /><path fill="#f3f7fa" d="M40 38h1v1h-1zM21 52h1v1h-1z" /><path fill="#86abcd" d="M41 38h1v1h-1z" /><path fill="#9fbcd8" d="M59 38h1v1h-1z" /><path fill="#dae5ef" d="M69 38h1v1h-1z" /><path fill="#5987af" d="M70 38h1v1h-1z" /><path fill="#7ca3c9" d="M22 39h1v1h-1zM39 40h1v1h-1z" /><path fill="#ecf2f7" d="M39 39h1v1h-1zM22 41h1v1h-1z" /><path fill="#739dc5" d="M40 39h1v1h-1z" /><path fill="#8eb0d0" d="M60 39h1v1h-1z" /><path fill="#7fa3c3" d="M68 39h1v1h-1z" /><path fill="#1d5a8e" d="M69 39h1v1h-1zM75 63h1v1h-1z" /><path fill="#b8cde2" d="M22 40h1v1h-1z" /><path fill="#f9fbfc" d="M38 40h1v1h-1z" /><path fill="#99b8d5" d="M61 40h1v1h-1z" /><path fill="#a4bed5" d="M66 40h1v1h-1z" /><path fill="#2a6495" d="M67 40h1v1h-1zM73 62h1v1h-1z" /><path fill="#c3d5e5" d="M64 41h1v1h-1z" /><path fill="#3f75a2" d="M65 41h1v1h-1z" /><path fill="#5b8bb9" d="M62 42h1v1h-1z" /><path fill="#618db3" d="M63 42h1v1h-1z" /><path fill="#9dbbd7" d="M21 43h1v1h-1z" /><path fill="#7da4ca" d="M37 43h1v1h-1zM23 62h1v1h-1z" /><path fill="#5789b9" d="M60 43h1v1h-1z" /><path fill="#3770a2" d="M61 43h1v1h-1z" /><path fill="#1c5a8e" d="M62 43h1v1h-1zM56 52h1v1h-1z" /><path fill="#4077a8" d="M59 44h1v1h-1z" /><path fill="#1e5c91" d="M60 44h1v1h-1z" /><path fill="#4074a0" d="M73 44h1v1h-1z" /><path fill="#507fa8" d="M74 44h2v1h-2zM86 44h2v1h-2z" /><path fill="#3e729f" d="M76 44h1v1h-1z" /><path fill="#306898" d="M85 44h1v1h-1z" /><path fill="#4e7ea7" d="M88 44h1v1h-1z" /><path fill="#d7e3ee" d="M21 45h1v1h-1z" /><path fill="#a1bdd8" d="M36 45h1v1h-1z" /><path fill="#4a7fb0" d="M57 45h1v1h-1z" /><path fill="#266296" d="M58 45h1v1h-1z" /><path fill="#becfdf" d="M73 45h1v1h-1zM73 46h1v1h-1zM73 47h1v1h-1zM73 52h1v1h-1zM73 53h1v1h-1z" /><path fill="#b3c8d9" d="M76 45h1v1h-1zM76 46h1v1h-1zM76 47h1v1h-1zM76 52h1v1h-1zM76 53h1v1h-1z" /><path fill="#759bbb" d="M85 45h1v1h-1zM85 46h1v1h-1zM85 47h1v1h-1zM85 52h1v1h-1zM85 53h1v1h-1z" /><path fill="#215e91" d="M53 48h1v1h-1z" /><path fill="#2b6596" d="M69 48h1v1h-1z" /><path fill="#dfe8ef" d="M70 48h3v1h-3zM77 48h3v1h-3zM83 48h2v1h-2zM89 48h3v1h-3z" /><path fill="#f6f8fb" d="M73 48h1v1h-1z" /><path fill="#f4f7fa" d="M76 48h1v1h-1z" /><path fill="#225e92" d="M80 48h1v1h-1z" /><path fill="#b1c6d8" d="M82 48h1v1h-1z" /><path fill="#ebf1f5" d="M85 48h1v1h-1z" /><path fill="#608bb0" d="M92 48h1v1h-1z" /><path fill="#6996c2" d="M20 49h1v1h-1z" /><path fill="#d0deec" d="M35 49h1v1h-1z" /><path fill="#4577a8" d="M50 49h1v1h-1z" /><path fill="#266295" d="M51 49h1v1h-1z" /><path fill="#2f6798" d="M69 49h1v1h-1zM69 50h1v1h-1z" /><path fill="#246092" d="M80 49h1v1h-1zM80 50h1v1h-1z" /><path fill="#cbd9e5" d="M82 49h1v1h-1zM82 50h1v1h-1z" /><path fill="#6c94b6" d="M92 49h1v1h-1zM92 50h1v1h-1z" /><path fill="#6694c0" d="M20 50h1v1h-1z" /><path fill="#d4e1ed" d="M35 50h1v1h-1z" /><path fill="#4b7ba8" d="M48 50h1v1h-1z" /><path fill="#214e7c" d="M49 50h1v1h-1z" /><path fill="#1a4674" d="M50 50h1v1h-1zM48 51h4v1h-4zM47 52h7v1h-7zM45 53h11v1h-11zM43 54h14v1h-14zM42 55h17v1h-17zM40 56h21v1h-21zM39 57h23v1h-23zM39 58h22v1h-22zM40 59h21v1h-21zM41 60h18v1h-18zM43 61h15v1h-15zM44 62h12v1h-12zM47 63h7v1h-7zM24 65h1v1h-1zM23 66h2v1h-2zM75 66h3v1h-3zM21 67h5v1h-5zM75 67h5v1h-5zM19 68h8v1h-8zM74 68h8v1h-8zM17 69h11v1h-11zM73 69h10v1h-10zM16 70h12v1h-12zM72 70h13v1h-13zM14 71h15v1h-15zM71 71h16v1h-16zM12 72h19v1h-19zM70 72h19v1h-19zM11 73h21v1h-21zM69 73h21v1h-21zM9 74h24v1h-24zM68 74h24v1h-24zM8 75h27v1h-27zM66 75h26v1h-26zM9 76h27v1h-27zM64 76h27v1h-27zM11 77h28v1h-28zM62 77h28v1h-28zM13 78h28v1h-28zM59 78h29v1h-29zM14 79h32v1h-32zM55 79h32v1h-32zM16 80h69v1h-69zM18 81h65v1h-65zM19 82h62v1h-62zM21 83h59v1h-59zM23 84h55v1h-55zM25 85h51v1h-51zM26 86h48v1h-48zM28 87h45v1h-45zM30 88h41v1h-41zM32 89h37v1h-37zM33 90h34v1h-34zM35 91h31v1h-31zM37 92h27v1h-27zM39 93h23v1h-23zM40 94h20v1h-20zM42 95h17v1h-17zM44 96h13v1h-13zM45 97h10v1h-10zM47 98h6v1h-6z" /><path fill="#1e4f7f" d="M51 50h1v1h-1z" /><path fill="#235e92" d="M52 50h1v1h-1z" /><path fill="#fdfefe" d="M21 51h1v1h-1zM88 51h1v1h-1zM23 60h1v1h-1zM40 61h1v1h-1zM25 64h1v1h-1zM54 64h1v1h-1zM32 72h1v1h-1zM63 75h1v1h-1z" /><path fill="#dee8f2" d="M35 51h1v1h-1z" /><path fill="#5687b6" d="M46 51h1v1h-1z" /><path fill="#2a5786" d="M47 51h1v1h-1z" /><path fill="#1a4775" d="M52 51h1v1h-1zM10 73h1v1h-1zM12 78h1v1h-1zM38 93h1v1h-1zM60 94h1v1h-1z" /><path fill="#225687" d="M53 51h1v1h-1z" /><path fill="#1f5b90" d="M54 51h1v1h-1z" /><path fill="#256093" d="M69 51h1v1h-1z" /><path fill="#92b0c9" d="M70 51h3v1h-3zM77 51h3v1h-3zM83 51h2v1h-2zM89 51h3v1h-3z" /><path fill="#e0e8ef" d="M73 51h1v1h-1z" /><path fill="#dae4ed" d="M76 51h1v1h-1z" /><path fill="#1f5c90" d="M80 51h1v1h-1zM92 73h1v1h-1z" /><path fill="#769bbb" d="M82 51h1v1h-1z" /><path fill="#bdcfde" d="M85 51h1v1h-1z" /><path fill="#4578a3" d="M92 51h1v1h-1z" /><path fill="#f7fafc" d="M35 52h1v1h-1z" /><path fill="#5d8ebd" d="M36 52h1v1h-1z" /><path fill="#5a8dbc" d="M44 52h1v1h-1z" /><path fill="#356391" d="M45 52h1v1h-1z" /><path fill="#1b4675" d="M46 52h1v1h-1zM39 56h1v1h-1z" /><path fill="#1a4978" d="M54 52h1v1h-1z" /><path fill="#245b8d" d="M55 52h1v1h-1z" /><path fill="#e8eff6" d="M21 53h1v1h-1z" /><path fill="#4472a1" d="M43 53h1v1h-1z" /><path fill="#1d4a78" d="M44 53h1v1h-1z" /><path fill="#1c4c7b" d="M56 53h1v1h-1z" /><path fill="#245e92" d="M57 53h1v1h-1z" /><path fill="#ceddeb" d="M21 54h1v1h-1z" /><path fill="#4f7fad" d="M41 54h1v1h-1z" /><path fill="#244f7e" d="M42 54h1v1h-1z" /><path fill="#1a4675" d="M57 54h1v1h-1zM41 55h1v1h-1zM59 55h1v1h-1z" /><path fill="#1f5282" d="M58 54h1v1h-1z" /><path fill="#215d92" d="M59 54h1v1h-1z" /><path fill="#acc2d6" d="M73 54h1v1h-1z" /><path fill="#e8eef3" d="M74 54h2v1h-2zM86 54h2v1h-2z" /><path fill="#a3bcd1" d="M76 54h1v1h-1z" /><path fill="#6b94b6" d="M85 54h1v1h-1z" /><path fill="#e3ebf1" d="M88 54h1v1h-1z" /><path fill="#aec6de" d="M21 55h1v1h-1z" /><path fill="#5788b8" d="M39 55h1v1h-1z" /><path fill="#2d5b88" d="M40 55h1v1h-1z" /><path fill="#23588a" d="M60 55h1v1h-1z" /><path fill="#1d5a90" d="M61 55h1v1h-1zM80 66h1v1h-1z" /><path fill="#8dafd0" d="M21 56h1v1h-1z" /><path fill="#8eafcf" d="M37 56h1v1h-1z" /><path fill="#386594" d="M38 56h1v1h-1z" /><path fill="#1b4978" d="M61 56h1v1h-1z" /><path fill="#245d8f" d="M62 56h1v1h-1z" /><path fill="#dce4eb" d="M37 57h1v1h-1z" /><path fill="#204b78" d="M38 57h1v1h-1z" /><path fill="#40648b" d="M62 57h1v1h-1zM58 78h1v1h-1z" /><path fill="#c2d0dd" d="M63 57h1v1h-1z" /><path fill="#4a7ba6" d="M64 57h1v1h-1z" /><path fill="#95a9bf" d="M38 58h1v1h-1z" /><path fill="#1e4a77" d="M61 58h1v1h-1z" /><path fill="#ced7e1" d="M62 58h1v1h-1z" /><path fill="#a6bbd0" d="M65 58h1v1h-1z" /><path fill="#316999" d="M66 58h1v1h-1z" /><path fill="#a2bed9" d="M22 59h1v1h-1z" /><path fill="#6e89a7" d="M39 59h1v1h-1z" /><path fill="#a2b4c7" d="M61 59h1v1h-1z" /><path fill="#f0f3f6" d="M66 59h1v1h-1zM68 72h1v1h-1z" /><path fill="#8dabc6" d="M67 59h1v1h-1z" /><path fill="#215e92" d="M68 59h1v1h-1z" /><path fill="#6c98c3" d="M22 60h1v1h-1z" /><path fill="#f9fafb" d="M39 60h1v1h-1zM69 71h1v1h-1z" /><path fill="#6583a2" d="M40 60h1v1h-1z" /><path fill="#1c4775" d="M59 60h1v1h-1zM56 62h1v1h-1z" /><path fill="#9db0c4" d="M60 60h1v1h-1z" /><path fill="#d9e1e9" d="M68 60h1v1h-1z" /><path fill="#608cb1" d="M69 60h1v1h-1z" /><path fill="#879eb6" d="M41 61h1v1h-1zM50 64h1v1h-1z" /><path fill="#1d4876" d="M42 61h1v1h-1zM67 74h1v1h-1zM41 78h1v1h-1z" /><path fill="#2a537e" d="M58 61h1v1h-1z" /><path fill="#b6c4d3" d="M59 61h1v1h-1z" /><path fill="#bacbda" d="M70 61h1v1h-1z" /><path fill="#3f74a1" d="M71 61h1v1h-1z" /><path fill="#cad4df" d="M42 62h1v1h-1z" /><path fill="#486b90" d="M43 62h1v1h-1z" /><path fill="#6885a3" d="M57 62h1v1h-1z" /><path fill="#e7ebf0" d="M58 62h1v1h-1zM33 73h1v1h-1z" /><path fill="#f8f9fb" d="M71 62h1v1h-1zM46 64h1v1h-1zM65 74h1v1h-1z" /><path fill="#9ab4cb" d="M72 62h1v1h-1z" /><path fill="#cfddeb" d="M24 63h1v1h-1z" /><path fill="#bcc9d6" d="M44 63h1v1h-1z" /><path fill="#6582a1" d="M45 63h1v1h-1z" /><path fill="#214c78" d="M46 63h1v1h-1z" /><path fill="#2d557f" d="M54 63h1v1h-1z" /><path fill="#7b94af" d="M55 63h1v1h-1z" /><path fill="#d7dee6" d="M56 63h1v1h-1z" /><path fill="#e8edf2" d="M73 63h1v1h-1z" /><path fill="#789bbc" d="M74 63h1v1h-1z" /><path fill="#6f95bb" d="M24 64h1v1h-1z" /><path fill="#ccd6e0" d="M47 64h1v1h-1z" /><path fill="#a4b6c8" d="M48 64h1v1h-1z" /><path fill="#91a6bc" d="M49 64h1v1h-1z" /><path fill="#97abc0" d="M51 64h1v1h-1z" /><path fill="#adbdcd" d="M52 64h1v1h-1z" /><path fill="#d9e1e8" d="M53 64h1v1h-1zM59 77h1v1h-1z" /><path fill="#b7c7d7" d="M75 64h1v1h-1z" /><path fill="#276195" d="M76 64h1v1h-1z" /><path fill="#5282b1" d="M22 65h1v1h-1z" /><path fill="#2d5a89" d="M23 65h1v1h-1zM75 86h1v1h-1z" /><path fill="#99acc1" d="M25 65h1v1h-1z" /><path fill="#5c7b9c" d="M75 65h1v1h-1z" /><path fill="#1a4776" d="M76 65h1v1h-1z" /><path fill="#295d8c" d="M77 65h1v1h-1z" /><path fill="#225f92" d="M78 65h1v1h-1z" /><path fill="#5889b7" d="M20 66h1v1h-1z" /><path fill="#396796" d="M21 66h1v1h-1z" /><path fill="#1b4775" d="M22 66h1v1h-1zM83 69h1v1h-1zM28 70h1v1h-1zM29 71h1v1h-1zM90 73h1v1h-1zM36 76h1v1h-1zM24 85h1v1h-1zM74 86h1v1h-1zM31 89h1v1h-1zM55 97h1v1h-1zM53 98h1v1h-1z" /><path fill="#224d79" d="M25 66h1v1h-1zM54 79h1v1h-1z" /><path fill="#dde3ea" d="M26 66h1v1h-1z" /><path fill="#a6b7c9" d="M74 66h1v1h-1z" /><path fill="#1d4977" d="M78 66h1v1h-1zM69 89h1v1h-1zM36 92h1v1h-1z" /><path fill="#2b6193" d="M79 66h1v1h-1z" /><path fill="#4473a2" d="M19 67h1v1h-1zM12 71h1v1h-1z" /><path fill="#204c7a" d="M20 67h1v1h-1zM64 92h1v1h-1z" /><path fill="#507295" d="M26 67h1v1h-1zM69 72h1v1h-1z" /><path fill="#e4e9ef" d="M73 67h1v1h-1zM45 78h1v1h-1z" /><path fill="#28527d" d="M74 67h1v1h-1z" /><path fill="#204f7e" d="M80 67h1v1h-1z" /><path fill="#2a6395" d="M81 67h1v1h-1z" /><path fill="#4b7ba9" d="M17 68h1v1h-1z" /><path fill="#265281" d="M18 68h1v1h-1z" /><path fill="#738eaa" d="M27 68h1v1h-1z" /><path fill="#f3f6f8" d="M72 68h1v1h-1z" /><path fill="#44688e" d="M73 68h1v1h-1zM52 79h1v1h-1z" /><path fill="#265988" d="M82 68h1v1h-1z" /><path fill="#246094" d="M83 68h1v1h-1z" /><path fill="#5383b1" d="M15 69h1v1h-1z" /><path fill="#305e8c" d="M16 69h1v1h-1z" /><path fill="#94a9be" d="M28 69h1v1h-1zM40 77h1v1h-1z" /><path fill="#fbfbfc" d="M71 69h1v1h-1z" /><path fill="#59799a" d="M72 69h1v1h-1zM49 79h1v1h-1z" /><path fill="#2b5f90" d="M84 69h1v1h-1z" /><path fill="#598ab9" d="M13 70h1v1h-1z" /><path fill="#3b6998" d="M14 70h1v1h-1z" /><path fill="#1c4876" d="M15 70h1v1h-1zM10 77h1v1h-1zM62 93h1v1h-1zM43 96h1v1h-1z" /><path fill="#abbccc" d="M29 70h1v1h-1z" /><path fill="#fcfdfd" d="M70 70h1v1h-1zM54 78h1v1h-1z" /><path fill="#6f8ba8" d="M71 70h1v1h-1z" /><path fill="#1e4b7b" d="M85 70h1v1h-1z" /><path fill="#2a6294" d="M86 70h1v1h-1z" /><path fill="#296597" d="M94 70h1v1h-1z" /><path fill="#214c7b" d="M13 71h1v1h-1z" /><path fill="#8da3ba" d="M30 71h1v1h-1zM60 77h1v1h-1z" /><path fill="#6684a2" d="M70 71h1v1h-1z" /><path fill="#225281" d="M87 71h1v1h-1z" /><path fill="#286295" d="M88 71h1v1h-1z" /><path fill="#2c679a" d="M94 71h1v1h-1z" /><path fill="#4f7ead" d="M10 72h1v1h-1z" /><path fill="#285684" d="M11 72h1v1h-1z" /><path fill="#7d96b0" d="M31 72h1v1h-1z" /><path fill="#285b8b" d="M89 72h1v1h-1z" /><path fill="#235e93" d="M90 72h1v1h-1z" /><path fill="#306a9d" d="M94 72h1v1h-1z" /><path fill="#5586b4" d="M8 73h1v1h-1z" /><path fill="#335f8f" d="M9 73h1v1h-1z" /><path fill="#5a7a9b" d="M32 73h1v1h-1z" /><path fill="#c8d3de" d="M67 73h1v1h-1z" /><path fill="#385e86" d="M68 73h1v1h-1z" /><path fill="#2b6091" d="M91 73h1v1h-1z" /><path fill="#3a6998" d="M7 74h1v1h-1z" /><path fill="#1c4977" d="M8 74h1v1h-1z" /><path fill="#27517c" d="M33 74h1v1h-1z" /><path fill="#a3b5c7" d="M34 74h1v1h-1z" /><path fill="#859cb5" d="M66 74h1v1h-1z" /><path fill="#214f7e" d="M92 74h1v1h-1z" /><path fill="#2e6597" d="M93 74h1v1h-1z" /><path fill="#315f8d" d="M7 75h1v1h-1zM35 92h1v1h-1z" /><path fill="#5c7c9c" d="M35 75h1v1h-1z" /><path fill="#d3dbe4" d="M36 75h1v1h-1z" /><path fill="#b3c1d1" d="M64 75h1v1h-1z" /><path fill="#3e638a" d="M65 75h1v1h-1z" /><path fill="#1b4876" d="M92 75h1v1h-1zM91 76h1v1h-1zM17 81h1v1h-1zM81 82h1v1h-1z" /><path fill="#2c5a88" d="M8 76h1v1h-1z" /><path fill="#6280a0" d="M37 76h1v1h-1z" /><path fill="#d6dee6" d="M38 76h1v1h-1z" /><path fill="#b5c4d2" d="M62 76h1v1h-1zM44 78h1v1h-1z" /><path fill="#43678d" d="M63 76h1v1h-1z" /><path fill="#336290" d="M92 76h1v1h-1z" /><path fill="#315d8c" d="M9 77h1v1h-1zM84 81h1v1h-1zM77 85h1v1h-1zM28 88h1v1h-1z" /><path fill="#41658b" d="M39 77h1v1h-1z" /><path fill="#e9edf1" d="M41 77h1v1h-1z" /><path fill="#395f87" d="M61 77h1v1h-1zM47 79h1v1h-1z" /><path fill="#214d7b" d="M90 77h1v1h-1zM34 91h1v1h-1z" /><path fill="#2b5887" d="M11 78h1v1h-1zM68 90h1v1h-1zM37 93h1v1h-1zM44 97h1v1h-1z" /><path fill="#537496" d="M42 78h1v1h-1z" /><path fill="#869db5" d="M43 78h1v1h-1z" /><path fill="#d7dfe7" d="M55 78h1v1h-1z" /><path fill="#a8b9ca" d="M56 78h1v1h-1z" /><path fill="#7892ad" d="M57 78h1v1h-1z" /><path fill="#1c4976" d="M88 78h1v1h-1z" /><path fill="#2f5c8b" d="M89 78h1v1h-1zM16 81h1v1h-1zM70 89h1v1h-1zM63 93h1v1h-1zM42 96h1v1h-1z" /><path fill="#255281" d="M13 79h1v1h-1zM66 91h1v1h-1zM39 94h1v1h-1zM46 98h1v1h-1z" /><path fill="#264f7b" d="M46 79h1v1h-1z" /><path fill="#496c90" d="M48 79h1v1h-1z" /><path fill="#6481a1" d="M50 79h1v1h-1z" /><path fill="#547597" d="M51 79h1v1h-1z" /><path fill="#355c84" d="M53 79h1v1h-1z" /><path fill="#285683" d="M87 79h1v1h-1zM25 86h1v1h-1zM50 99h1v1h-1z" /><path fill="#336291" d="M14 80h1v1h-1zM65 92h1v1h-1zM40 95h1v1h-1z" /><path fill="#204c79" d="M15 80h1v1h-1z" /><path fill="#24517f" d="M85 80h1v1h-1z" /><path fill="#1e4b78" d="M83 81h1v1h-1z" /><path fill="#295785" d="M18 82h1v1h-1zM61 94h1v1h-1z" /><path fill="#2d5b89" d="M82 82h1v1h-1zM23 85h1v1h-1zM30 89h1v1h-1zM56 97h1v1h-1z" /><path fill="#23507e" d="M20 83h1v1h-1z" /><path fill="#275383" d="M80 83h1v1h-1z" /><path fill="#32608e" d="M21 84h1v1h-1zM58 96h1v1h-1z" /><path fill="#1f4b78" d="M22 84h1v1h-1z" /><path fill="#224e7c" d="M78 84h1v1h-1z" /><path fill="#1e4a78" d="M76 85h1v1h-1z" /><path fill="#22507d" d="M27 87h1v1h-1z" /><path fill="#275584" d="M73 87h1v1h-1z" /><path fill="#1d4a77" d="M29 88h1v1h-1z" /><path fill="#214f7c" d="M71 88h1v1h-1z" /><path fill="#356091" d="M72 88h1v1h-1z" /><path fill="#275381" d="M32 90h1v1h-1z" /><path fill="#1b4674" d="M67 90h1v1h-1z" /><path fill="#366391" d="M33 91h1v1h-1z" /><path fill="#204b79" d="M41 95h1v1h-1z" /><path fill="#255280" d="M59 95h1v1h-1z" /><path fill="#1f4c7a" d="M57 96h1v1h-1z" /><path fill="#2a5987" d="M54 98h1v1h-1z" /><path fill="#305d8b" d="M48 99h1v1h-1z" /><path fill="#2b5885" d="M49 99h1v1h-1z" /><path fill="#2b5987" d="M51 99h1v1h-1z" /><path fill="#325f8e" d="M52 99h1v1h-1z" /></svg>