<svg xmlns="http://www.w3.org/2000/svg" viewBox="0 0 100 100" width="1em" height="1em"><path fill="#d32f2f" d="M38 10h1v1h-1zM41 10h2v1h-2zM45 10h2v1h-2zM48 10h4v1h-4zM53 10h2v1h-2zM57 10h3v1h-3zM61 10h1v1h-1zM31 11h1v1h-1zM33 11h34v1h-34zM68 11h1v1h-1zM26 12h48v1h-48zM20 13h59v1h-59zM17 14h67v1h-67zM14 15h73v1h-73zM11 16h78v1h-78zM8 17h83v1h-83zM6 18h88v1h-88zM5 19h90v1h-90zM4 20h93v1h-93zM3 21h94v1h-94zM2 22h97v1h-97zM1 23h98v1h-98zM1 24h99v1h-99zM1 25h98v1h-98zM0 26h100v1h-100zM0 27h100v1h-100zM0 28h100v1h-100zM0 29h100v1h-100zM0 30h100v1h-100zM0 31h100v1h-100zM0 32h100v1h-100zM0 33h100v1h-100zM0 34h100v1h-100zM0 35h100v1h-100zM0 36h100v1h-100zM0 37h100v1h-100zM0 38h100v1h-100zM0 39h100v1h-100zM0 40h100v1h-100zM1 41h50v1h-50zM52 41h47v1h-47zM1 42h49v1h-49zM54 42h1v1h-1zM56 42h43v1h-43zM1 43h49v1h-49zM59 43h40v1h-40zM2 44h48v1h-48zM61 44h37v1h-37zM2 45h48v1h-48zM66 45h32v1h-32zM2 46h48v1h-48zM71 46h26v1h-26zM5 47h45v1h-45zM74 47h21v1h-21zM6 48h44v1h-44zM79 48h15v1h-15zM8 49h42v1h-42zM83 49h9v1h-9zM9 50h41v1h-41zM87 50h4v1h-4zM13 51h37v1h-37zM15 52h35v1h-35zM19 53h31v1h-31zM22 54h28v1h-28zM27 55h1v1h-1zM29 55h21v1h-21zM35 56h1v1h-1zM38 56h12v1h-12zM50 58h2v1h-2zM50 59h7v1h-7zM0 60h1v1h-1zM50 60h12v1h-12zM0 61h1v1h-1zM50 61h14v1h-14zM99 61h1v1h-1zM0 62h3v1h-3zM50 62h17v1h-17zM68 62h2v1h-2zM98 62h2v1h-2zM0 63h3v1h-3zM50 63h23v1h-23zM97 63h3v1h-3zM0 64h4v1h-4zM50 64h25v1h-25zM95 64h5v1h-5zM0 65h7v1h-7zM50 65h29v1h-29zM80 65h2v1h-2zM94 65h6v1h-6zM0 66h7v1h-7zM50 66h33v1h-33zM93 66h7v1h-7zM0 67h11v1h-11zM50 67h37v1h-37zM88 67h1v1h-1zM90 67h10v1h-10zM0 68h12v1h-12zM50 68h50v1h-50zM0 69h15v1h-15zM50 69h50v1h-50zM0 70h20v1h-20zM50 70h50v1h-50zM0 71h24v1h-24zM26 71h1v1h-1zM50 71h50v1h-50zM0 72h30v1h-30zM33 72h1v1h-1zM50 72h50v1h-50zM1 73h39v1h-39zM41 73h3v1h-3zM53 73h46v1h-46zM1 74h49v1h-49zM56 74h44v1h-44zM1 75h49v1h-49zM61 75h38v1h-38zM2 76h48v1h-48zM65 76h34v1h-34zM3 77h47v1h-47zM67 77h1v1h-1zM69 77h28v1h-28zM4 78h46v1h-46zM70 78h1v1h-1zM73 78h24v1h-24zM5 79h45v1h-45zM77 79h19v1h-19zM7 80h43v1h-43zM81 80h12v1h-12zM94 80h1v1h-1zM9 81h41v1h-41zM85 81h6v1h-6zM11 82h39v1h-39zM86 82h2v1h-2zM12 83h1v1h-1zM14 83h36v1h-36zM17 84h33v1h-33zM18 85h32v1h-32zM25 86h25v1h-25zM29 87h21v1h-21zM40 88h1v1h-1zM43 88h7v1h-7z" /><path fill="#d32e2e" d="M39 10h1v1h-1zM60 10h1v1h-1zM29 11h1v1h-1zM32 11h1v1h-1zM70 11h1v1h-1zM24 12h2v1h-2zM76 12h1v1h-1zM12 15h2v1h-2zM92 17h1v1h-1zM4 19h1v1h-1zM3 20h1v1h-1zM0 42h1v1h-1zM53 42h1v1h-1zM98 44h1v1h-1zM65 45h1v1h-1zM97 46h1v1h-1zM4 47h1v1h-1zM73 47h1v1h-1zM95 47h1v1h-1zM85 50h2v1h-2zM17 53h1v1h-1zM26 55h1v1h-1zM37 56h1v1h-1zM73 63h1v1h-1zM96 63h1v1h-1zM79 65h1v1h-1zM93 65h1v1h-1zM8 66h1v1h-1zM83 66h1v1h-1zM91 66h1v1h-1zM87 67h1v1h-1zM12 68h1v1h-1zM15 69h1v1h-1zM25 71h1v1h-1zM30 72h3v1h-3zM0 73h1v1h-1zM45 73h5v1h-5zM97 77h1v1h-1zM76 79h1v1h-1zM6 80h1v1h-1zM79 80h1v1h-1zM93 80h1v1h-1zM7 81h2v1h-2zM84 81h1v1h-1zM92 81h1v1h-1zM88 82h3v1h-3zM16 84h1v1h-1zM23 86h1v1h-1zM37 88h1v1h-1zM42 88h1v1h-1z" /><path fill="#d22f2f" d="M40 10h1v1h-1zM43 10h2v1h-2zM55 10h2v1h-2zM67 11h1v1h-1zM74 12h1v1h-1zM19 13h1v1h-1zM80 13h1v1h-1zM15 14h1v1h-1zM87 15h1v1h-1zM91 17h1v1h-1zM95 19h1v1h-1zM2 21h1v1h-1zM0 24h1v1h-1zM0 41h1v1h-1zM51 41h1v1h-1zM99 41h1v1h-1zM55 42h1v1h-1zM99 42h1v1h-1zM0 43h1v1h-1zM1 44h1v1h-1zM69 46h1v1h-1zM81 49h2v1h-2zM92 49h1v1h-1zM12 51h1v1h-1zM18 53h1v1h-1zM21 54h1v1h-1zM28 55h1v1h-1zM33 56h2v1h-2zM36 56h1v1h-1zM52 58h2v1h-2zM57 59h1v1h-1zM1 61h1v1h-1zM98 61h1v1h-1zM67 62h1v1h-1zM3 63h1v1h-1zM4 64h1v1h-1zM75 64h2v1h-2zM7 66h1v1h-1zM92 66h1v1h-1zM89 67h1v1h-1zM13 68h1v1h-1zM20 70h1v1h-1zM40 73h1v1h-1zM44 73h1v1h-1zM51 73h2v1h-2zM99 73h1v1h-1zM59 75h1v1h-1zM64 76h1v1h-1zM2 77h1v1h-1zM68 77h1v1h-1zM71 78h2v1h-2zM5 80h1v1h-1zM80 80h1v1h-1zM91 81h1v1h-1zM9 82h2v1h-2zM13 83h1v1h-1zM24 86h1v1h-1zM38 88h2v1h-2z" /><path fill="#d22e2e" d="M47 10h1v1h-1zM52 10h1v1h-1zM30 11h1v1h-1zM69 11h1v1h-1zM23 12h1v1h-1zM75 12h1v1h-1zM79 13h1v1h-1zM16 14h1v1h-1zM84 14h1v1h-1zM10 16h1v1h-1zM89 16h1v1h-1zM97 21h1v1h-1zM1 22h1v1h-1zM0 25h1v1h-1zM99 25h1v1h-1zM57 43h2v1h-2zM99 43h1v1h-1zM70 46h1v1h-1zM5 48h1v1h-1zM77 48h2v1h-2zM94 48h1v1h-1zM7 49h1v1h-1zM11 51h1v1h-1zM14 52h1v1h-1zM49 57h1v1h-1zM99 60h1v1h-1zM64 61h2v1h-2zM97 62h1v1h-1zM77 64h1v1h-1zM84 66h2v1h-2zM16 69h1v1h-1zM24 71h1v1h-1zM0 74h1v1h-1zM55 74h1v1h-1zM60 75h1v1h-1zM1 76h1v1h-1zM63 76h1v1h-1zM3 78h1v1h-1zM4 79h1v1h-1zM74 79h2v1h-2zM82 81h2v1h-2zM15 84h1v1h-1zM22 86h1v1h-1zM28 87h1v1h-1zM36 88h1v1h-1zM41 88h1v1h-1z" /></svg>