<svg xmlns="http://www.w3.org/2000/svg" viewBox="0 0 100 100" width="1em" height="1em"><path fill="#7bcad3" d="M43 0h1v1h-1zM45 0h1v1h-1zM54 0h1v1h-1zM56 0h1v1h-1z" /><path fill="#7acad3" d="M44 0h1v1h-1zM49 0h2v1h-2z" /><path fill="#7acad4" d="M46 0h1v1h-1zM53 0h1v1h-1z" /><path fill="#7bcbd4" d="M47 0h1v1h-1zM52 0h1v1h-1zM55 0h1v1h-1z" /><path fill="#7bcad4" d="M48 0h1v1h-1zM51 0h1v1h-1z" /><path fill="#79cbd3" d="M38 1h1v1h-1zM36 2h29v1h-29z" /><path fill="#79cbd4" d="M39 1h1v1h-1z" /><path fill="#7acbd4" d="M40 1h20v1h-20z" /><path fill="#79cad3" d="M60 1h2v1h-2z" /><path fill="#78cad3" d="M34 2h1v1h-1z" /><path fill="#78cbd2" d="M35 2h1v1h-1zM65 2h1v1h-1z" /><path fill="#78cbd3" d="M32 3h35v1h-35z" /><path fill="#78cad2" d="M67 3h1v1h-1z" /><path fill="#77cad3" d="M29 4h1v1h-1z" /><path fill="#76cad3" d="M30 4h1v1h-1z" /><path fill="#77cbd3" d="M31 4h38v1h-38z" /><path fill="#77cad2" d="M69 4h1v1h-1z" /><path fill="#76cbd3" d="M70 4h1v1h-1z" /><path fill="#75cad1" d="M27 5h1v1h-1zM74 6h1v1h-1zM75 7h1v1h-1z" /><path fill="#75cbd1" d="M28 5h1v1h-1z" /><path fill="#76cbd2" d="M29 5h42v1h-42zM27 6h46v1h-46z" /><path fill="#76cad2" d="M71 5h1v1h-1zM25 6h1v1h-1z" /><path fill="#76cbd1" d="M72 5h1v1h-1z" /><path fill="#75cbd2" d="M26 6h1v1h-1zM73 6h1v1h-1zM25 7h50v1h-50z" /><path fill="#74cbd2" d="M24 7h1v1h-1zM23 8h55v1h-55z" /><path fill="#73cad1" d="M22 8h1v1h-1z" /><path fill="#72cad0" d="M21 9h1v1h-1zM19 10h1v1h-1zM18 11h1v1h-1z" /><path fill="#73cbd1" d="M22 9h56v1h-56z" /><path fill="#72cad1" d="M78 9h1v1h-1zM21 10h58v1h-58zM80 10h1v1h-1zM19 11h62v1h-62z" /><path fill="#72c9d0" d="M20 10h1v1h-1zM79 10h1v1h-1z" /><path fill="#71c9d1" d="M81 11h1v1h-1z" /><path fill="#71cad0" d="M17 12h65v1h-65z" /><path fill="#70cacf" d="M82 12h1v1h-1zM83 13h1v1h-1z" /><path fill="#70c9d0" d="M16 13h1v1h-1z" /><path fill="#70cad0" d="M17 13h66v1h-66z" /><path fill="#6fcad0" d="M15 14h70v1h-70z" /><path fill="#6dc9d0" d="M14 15h1v1h-1z" /><path fill="#6ecad0" d="M15 15h71v1h-71z" /><path fill="#6dcacf" d="M13 16h73v1h-73zM13 17h74v1h-74z" /><path fill="#6cc9cf" d="M86 16h1v1h-1z" /><path fill="#6ccacf" d="M12 17h1v1h-1zM11 18h49v1h-49zM63 18h25v1h-25z" /><path fill="#6cc9ce" d="M87 17h1v1h-1zM88 18h1v1h-1z" /><path fill="#84d3d7" d="M60 18h1v1h-1z" /><path fill="#e6f6f7" d="M61 18h1v1h-1z" /><path fill="#97d9dd" d="M62 18h1v1h-1z" /><path fill="#6acace" d="M10 19h1v1h-1zM89 19h1v1h-1zM11 20h47v1h-47zM62 20h27v1h-27z" /><path fill="#6bcace" d="M11 19h48v1h-48zM63 19h26v1h-26z" /><path fill="#83d3d6" d="M59 19h1v1h-1z" /><path fill="#f2fafb" d="M60 19h1v1h-1zM58 25h1v1h-1z" /><path fill="#feffff" d="M61 19h1v1h-1zM59 56h1v1h-1zM58 57h1v1h-1zM41 69h1v1h-1zM44 70h1v1h-1z" /><path fill="#8bd5d9" d="M62 19h1v1h-1z" /><path fill="#6ac9cd" d="M10 20h1v1h-1zM89 20h1v1h-1z" /><path fill="#81d2d6" d="M58 20h1v1h-1z" /><path fill="#f0fafa" d="M59 20h1v1h-1z" /><path fill="#ffffff" d="M60 20h1v1h-1zM59 21h1v1h-1zM58 22h2v1h-2zM57 23h2v1h-2zM56 24h3v1h-3zM55 25h3v1h-3zM54 26h4v1h-4zM53 27h4v1h-4zM52 28h5v1h-5zM51 29h5v1h-5zM50 30h6v1h-6zM49 31h6v1h-6zM48 32h6v1h-6zM47 33h7v1h-7zM46 34h7v1h-7zM45 35h8v1h-8zM44 36h8v1h-8zM43 37h9v1h-9zM42 38h9v1h-9zM41 39h10v1h-10zM40 40h10v1h-10zM39 41h11v1h-11zM38 42h11v1h-11zM37 43h12v1h-12zM36 44h36v1h-36zM35 45h36v1h-36zM34 46h36v1h-36zM33 47h36v1h-36zM32 48h36v1h-36zM31 49h36v1h-36zM30 50h36v1h-36zM29 51h36v1h-36zM28 52h36v1h-36zM52 53h11v1h-11zM52 54h10v1h-10zM52 55h9v1h-9zM51 56h8v1h-8zM50 57h8v1h-8zM49 58h8v1h-8zM49 59h7v1h-7zM48 60h7v1h-7zM47 61h7v1h-7zM47 62h6v1h-6zM46 63h6v1h-6zM45 64h6v1h-6zM44 65h6v1h-6zM44 66h5v1h-5zM43 67h5v1h-5zM42 68h5v1h-5zM42 69h4v1h-4zM41 70h3v1h-3zM40 71h3v1h-3zM39 72h3v1h-3zM39 73h2v1h-2zM38 74h2v1h-2zM37 75h2v1h-2zM36 76h2v1h-2zM36 77h1v1h-1zM35 78h1v1h-1zM34 79h1v1h-1z" /><path fill="#ceeeef" d="M61 20h1v1h-1z" /><path fill="#69cacd" d="M9 21h1v1h-1zM90 21h1v1h-1zM9 22h47v1h-47zM61 22h30v1h-30z" /><path fill="#69cace" d="M10 21h47v1h-47zM62 21h28v1h-28z" /><path fill="#81d3d6" d="M57 21h1v1h-1zM61 21h1v1h-1z" /><path fill="#f1fafa" d="M58 21h1v1h-1zM57 22h1v1h-1z" /><path fill="#fdfefe" d="M60 21h1v1h-1zM54 32h1v1h-1z" /><path fill="#68cacd" d="M8 22h1v1h-1zM8 23h47v1h-47zM61 23h31v1h-31z" /><path fill="#81d3d5" d="M56 22h1v1h-1z" /><path fill="#c0e9ea" d="M60 22h1v1h-1z" /><path fill="#69c9cc" d="M91 22h1v1h-1z" /><path fill="#84d4d6" d="M55 23h1v1h-1z" /><path fill="#f3fbfb" d="M56 23h1v1h-1zM55 24h1v1h-1zM54 25h1v1h-1zM52 27h1v1h-1zM51 28h1v1h-1zM69 47h1v1h-1z" /><path fill="#f8fdfd" d="M59 23h1v1h-1zM56 59h1v1h-1z" /><path fill="#76cfd2" d="M60 23h1v1h-1z" /><path fill="#66c9cc" d="M7 24h1v1h-1zM93 25h1v1h-1z" /><path fill="#67cacd" d="M8 24h46v1h-46zM60 24h32v1h-32z" /><path fill="#83d4d6" d="M54 24h1v1h-1zM53 25h1v1h-1z" /><path fill="#b2e4e6" d="M59 24h1v1h-1z" /><path fill="#66cacd" d="M92 24h1v1h-1zM7 25h46v1h-46zM60 25h33v1h-33z" /><path fill="#65cacc" d="M6 25h1v1h-1zM6 26h46v1h-46zM59 26h34v1h-34z" /><path fill="#6ecdd0" d="M59 25h1v1h-1z" /><path fill="#82d4d6" d="M52 26h1v1h-1zM51 27h1v1h-1zM50 28h1v1h-1z" /><path fill="#f4fbfb" d="M53 26h1v1h-1zM50 29h1v1h-1zM49 30h1v1h-1z" /><path fill="#a3dfe0" d="M58 26h1v1h-1z" /><path fill="#64cacc" d="M93 26h1v1h-1zM6 27h45v1h-45zM59 27h35v1h-35zM6 28h44v1h-44zM58 28h36v1h-36z" /><path fill="#64c9cc" d="M5 27h1v1h-1z" /><path fill="#e7f7f7" d="M57 27h1v1h-1z" /><path fill="#66cbcd" d="M58 27h1v1h-1z" /><path fill="#63cacb" d="M94 27h1v1h-1zM5 29h44v1h-44zM58 29h37v1h-37z" /><path fill="#64c9cb" d="M5 28h1v1h-1z" /><path fill="#94dadc" d="M57 28h1v1h-1z" /><path fill="#63c9cc" d="M94 28h1v1h-1z" /><path fill="#62c9cb" d="M4 29h1v1h-1zM4 30h44v1h-44zM57 30h39v1h-39z" /><path fill="#82d4d5" d="M49 29h1v1h-1z" /><path fill="#dcf3f3" d="M56 29h1v1h-1z" /><path fill="#64cacb" d="M57 29h1v1h-1z" /><path fill="#62caca" d="M95 29h1v1h-1z" /><path fill="#81d4d5" d="M48 30h1v1h-1zM47 31h1v1h-1z" /><path fill="#86d5d7" d="M56 30h1v1h-1z" /><path fill="#61c9cb" d="M4 31h43v1h-43zM56 31h40v1h-40z" /><path fill="#f4fbfc" d="M48 31h1v1h-1zM47 32h1v1h-1z" /><path fill="#cbedee" d="M55 31h1v1h-1z" /><path fill="#5fc8cb" d="M3 32h1v1h-1z" /><path fill="#60c9cb" d="M4 32h42v1h-42zM56 32h40v1h-40z" /><path fill="#80d4d5" d="M46 32h1v1h-1z" /><path fill="#7ad2d3" d="M55 32h1v1h-1z" /><path fill="#5fc9ca" d="M96 32h1v1h-1zM3 34h41v1h-41zM55 34h42v1h-42z" /><path fill="#60c9ca" d="M3 33h42v1h-42zM55 33h42v1h-42z" /><path fill="#84d5d6" d="M45 33h1v1h-1z" /><path fill="#f6fcfc" d="M46 33h1v1h-1zM45 34h1v1h-1z" /><path fill="#bce8e9" d="M54 33h1v1h-1z" /><path fill="#5ec8ca" d="M2 34h1v1h-1zM97 34h1v1h-1z" /><path fill="#83d5d6" d="M44 34h1v1h-1zM43 35h1v1h-1z" /><path fill="#f7fcfd" d="M53 34h1v1h-1z" /><path fill="#6ececf" d="M54 34h1v1h-1z" /><path fill="#5dc9ca" d="M2 35h1v1h-1z" /><path fill="#5ec9ca" d="M3 35h40v1h-40zM54 35h44v1h-44z" /><path fill="#f7fcfc" d="M44 35h1v1h-1zM43 36h1v1h-1zM42 37h1v1h-1zM41 38h1v1h-1zM40 39h1v1h-1zM39 40h1v1h-1zM38 41h1v1h-1zM70 46h1v1h-1z" /><path fill="#ade3e4" d="M53 35h1v1h-1z" /><path fill="#5dc9c9" d="M2 36h40v1h-40zM54 36h44v1h-44z" /><path fill="#82d5d5" d="M42 36h1v1h-1z" /><path fill="#effafa" d="M52 36h1v1h-1zM54 61h1v1h-1z" /><path fill="#64cbcb" d="M53 36h1v1h-1z" /><path fill="#5cc9c9" d="M2 37h39v1h-39zM53 37h45v1h-45z" /><path fill="#82d6d6" d="M41 37h1v1h-1zM40 38h1v1h-1zM39 39h1v1h-1z" /><path fill="#9ddfdf" d="M52 37h1v1h-1z" /><path fill="#5bc8c8" d="M1 38h1v1h-1z" /><path fill="#5bc9c9" d="M2 38h38v1h-38zM53 38h46v1h-46zM2 39h37v1h-37zM52 39h46v1h-46z" /><path fill="#e6f7f7" d="M51 38h1v1h-1z" /><path fill="#5ecaca" d="M52 38h1v1h-1z" /><path fill="#5ac8c8" d="M1 39h1v1h-1z" /><path fill="#8ddada" d="M51 39h1v1h-1z" /><path fill="#5ac9c9" d="M98 39h1v1h-1z" /><path fill="#5ac9c8" d="M1 40h37v1h-37zM51 40h48v1h-48z" /><path fill="#82d6d5" d="M38 40h1v1h-1z" /><path fill="#d8f2f2" d="M50 40h1v1h-1z" /><path fill="#59c9c8" d="M1 41h36v1h-36zM51 41h48v1h-48z" /><path fill="#81d6d5" d="M37 41h1v1h-1z" /><path fill="#7fd5d5" d="M50 41h1v1h-1z" /><path fill="#58c9c8" d="M1 42h35v1h-35zM50 42h49v1h-49z" /><path fill="#85d8d7" d="M36 42h1v1h-1zM33 45h1v1h-1zM32 46h1v1h-1z" /><path fill="#f9fdfd" d="M37 42h1v1h-1zM36 43h1v1h-1zM72 44h1v1h-1zM51 55h1v1h-1z" /><path fill="#d0f0f0" d="M49 42h1v1h-1z" /><path fill="#57c9c7" d="M0 43h35v1h-35zM73 43h27v1h-27zM0 44h34v1h-34zM74 44h25v1h-25z" /><path fill="#85d8d6" d="M35 43h1v1h-1zM31 47h1v1h-1zM28 50h1v1h-1z" /><path fill="#ebf9f8" d="M49 43h1v1h-1z" /><path fill="#9ddfde" d="M50 43h1v1h-1z" /><path fill="#9adfdd" d="M51 43h21v1h-21z" /><path fill="#87d8d7" d="M72 43h1v1h-1z" /><path fill="#86d8d7" d="M34 44h1v1h-1z" /><path fill="#fafdfd" d="M35 44h1v1h-1zM34 45h1v1h-1zM33 46h1v1h-1zM32 47h1v1h-1zM31 48h1v1h-1zM29 50h1v1h-1zM28 51h1v1h-1z" /><path fill="#5acac8" d="M73 44h1v1h-1z" /><path fill="#56c8c6" d="M99 44h1v1h-1z" /><path fill="#55c9c6" d="M0 45h1v1h-1zM99 46h1v1h-1z" /><path fill="#56c9c7" d="M1 45h32v1h-32zM73 45h26v1h-26z" /><path fill="#fafefd" d="M71 45h1v1h-1zM30 49h1v1h-1zM38 73h1v1h-1z" /><path fill="#8bdad9" d="M72 45h1v1h-1z" /><path fill="#55c8c7" d="M99 45h1v1h-1z" /><path fill="#54c8c7" d="M0 46h1v1h-1z" /><path fill="#55c9c7" d="M1 46h31v1h-31zM72 46h27v1h-27z" /><path fill="#81d7d5" d="M71 46h1v1h-1z" /><path fill="#54c9c6" d="M0 47h31v1h-31zM71 47h28v1h-28z" /><path fill="#78d4d2" d="M70 47h1v1h-1z" /><path fill="#53c9c5" d="M99 47h1v1h-1z" /><path fill="#52c9c5" d="M0 48h1v1h-1zM64 53h1v1h-1z" /><path fill="#53c9c6" d="M1 48h29v1h-29zM70 48h29v1h-29z" /><path fill="#84d8d6" d="M30 48h1v1h-1zM27 51h1v1h-1z" /><path fill="#eefaf9" d="M68 48h1v1h-1zM40 70h1v1h-1zM39 75h1v1h-1z" /><path fill="#71d2d0" d="M69 48h1v1h-1z" /><path fill="#52c8c5" d="M99 48h1v1h-1zM1 50h27v1h-27zM68 50h32v1h-32z" /><path fill="#51c8c5" d="M0 49h1v1h-1zM1 51h26v1h-26zM67 51h32v1h-32z" /><path fill="#52c9c6" d="M1 49h28v1h-28zM69 49h30v1h-30z" /><path fill="#84d9d7" d="M29 49h1v1h-1z" /><path fill="#e8f8f7" d="M67 49h1v1h-1zM45 63h1v1h-1zM38 76h1v1h-1z" /><path fill="#69d0ce" d="M68 49h1v1h-1z" /><path fill="#52c8c6" d="M99 49h1v1h-1z" /><path fill="#51c7c4" d="M0 50h1v1h-1z" /><path fill="#e1f6f5" d="M66 50h1v1h-1zM37 77h1v1h-1z" /><path fill="#63cdcb" d="M67 50h1v1h-1z" /><path fill="#50c8c4" d="M0 51h1v1h-1zM26 53h1v1h-1z" /><path fill="#d9f3f2" d="M65 51h1v1h-1z" /><path fill="#5dccc9" d="M66 51h1v1h-1z" /><path fill="#51c7c5" d="M99 51h1v1h-1z" /><path fill="#4fc8c4" d="M0 52h1v1h-1zM1 53h25v1h-25zM65 53h35v1h-35zM63 54h1v1h-1z" /><path fill="#50c8c5" d="M1 52h25v1h-25zM66 52h33v1h-33z" /><path fill="#5ecdca" d="M26 52h1v1h-1z" /><path fill="#fbfefe" d="M27 52h1v1h-1zM57 58h1v1h-1zM46 62h1v1h-1z" /><path fill="#cdefee" d="M64 52h1v1h-1z" /><path fill="#57cac7" d="M65 52h1v1h-1z" /><path fill="#50c7c5" d="M99 52h1v1h-1z" /><path fill="#4ec7c3" d="M0 53h1v1h-1z" /><path fill="#95dedb" d="M27 53h1v1h-1z" /><path fill="#a1e2e0" d="M28 53h22v1h-22z" /><path fill="#a2e2e0" d="M50 53h1v1h-1z" /><path fill="#e0f5f5" d="M51 53h1v1h-1z" /><path fill="#c3eceb" d="M63 53h1v1h-1z" /><path fill="#4ec7c4" d="M0 54h1v1h-1z" /><path fill="#4ec8c4" d="M1 54h50v1h-50zM64 54h36v1h-36zM62 55h1v1h-1z" /><path fill="#ace5e3" d="M51 54h1v1h-1z" /><path fill="#b8e9e7" d="M62 54h1v1h-1z" /><path fill="#4dc7c4" d="M0 55h1v1h-1z" /><path fill="#4dc8c4" d="M1 55h49v1h-49zM63 55h36v1h-36zM1 56h48v1h-48zM61 56h38v1h-38z" /><path fill="#6bd1ce" d="M50 55h1v1h-1z" /><path fill="#b2e7e6" d="M61 55h1v1h-1z" /><path fill="#4cc8c4" d="M99 55h1v1h-1zM0 56h1v1h-1z" /><path fill="#53cac6" d="M49 56h1v1h-1z" /><path fill="#dff5f4" d="M50 56h1v1h-1z" /><path fill="#a6e4e2" d="M60 56h1v1h-1z" /><path fill="#4cc7c3" d="M99 56h1v1h-1z" /><path fill="#4cc8c3" d="M1 57h48v1h-48zM60 57h39v1h-39z" /><path fill="#b6e9e7" d="M49 57h1v1h-1z" /><path fill="#94dedb" d="M59 57h1v1h-1z" /><path fill="#4bc8c3" d="M1 58h47v1h-47zM59 58h40v1h-40z" /><path fill="#84d9d6" d="M48 58h1v1h-1z" /><path fill="#88dbd7" d="M58 58h1v1h-1z" /><path fill="#4ac8c3" d="M1 59h46v1h-46zM58 59h41v1h-41z" /><path fill="#5ececa" d="M47 59h1v1h-1z" /><path fill="#f2fbfb" d="M48 59h1v1h-1z" /><path fill="#7ed8d4" d="M57 59h1v1h-1z" /><path fill="#48c8c1" d="M1 60h1v1h-1z" /><path fill="#49c8c2" d="M2 60h44v1h-44zM57 60h41v1h-41zM1 61h45v1h-45zM56 61h42v1h-42z" /><path fill="#4ac8c2" d="M46 60h1v1h-1z" /><path fill="#d0f1ef" d="M47 60h1v1h-1z" /><path fill="#f4fcfb" d="M55 60h1v1h-1zM40 74h1v1h-1zM35 77h1v1h-1z" /><path fill="#74d5d0" d="M56 60h1v1h-1z" /><path fill="#49c7c2" d="M98 60h1v1h-1z" /><path fill="#a3e3e0" d="M46 61h1v1h-1z" /><path fill="#6cd3ce" d="M55 61h1v1h-1z" /><path fill="#48c8c2" d="M98 61h1v1h-1zM2 62h43v1h-43zM55 62h43v1h-43z" /><path fill="#6fd4cf" d="M45 62h1v1h-1z" /><path fill="#e9f9f8" d="M53 62h1v1h-1z" /><path fill="#64d0cb" d="M54 62h1v1h-1z" /><path fill="#47c8c2" d="M2 63h42v1h-42zM54 63h43v1h-43z" /><path fill="#53cbc6" d="M44 63h1v1h-1z" /><path fill="#e3f7f6" d="M52 63h1v1h-1z" /><path fill="#5dcec9" d="M53 63h1v1h-1z" /><path fill="#47c7c1" d="M97 63h1v1h-1z" /><path fill="#45c7c0" d="M2 64h1v1h-1zM97 64h1v1h-1z" /><path fill="#46c8c1" d="M3 64h41v1h-41zM53 64h44v1h-44z" /><path fill="#beece9" d="M44 64h1v1h-1zM48 67h1v1h-1z" /><path fill="#dbf4f3" d="M51 64h1v1h-1zM42 67h1v1h-1z" /><path fill="#56cdc6" d="M52 64h1v1h-1z" /><path fill="#44c7c0" d="M2 65h1v1h-1z" /><path fill="#45c8c1" d="M3 65h40v1h-40zM52 65h45v1h-45z" /><path fill="#8eded9" d="M43 65h1v1h-1z" /><path fill="#d3f2f0" d="M50 65h1v1h-1z" /><path fill="#50cbc5" d="M51 65h1v1h-1z" /><path fill="#45c7c1" d="M97 65h1v1h-1z" /><path fill="#44c8c1" d="M3 66h39v1h-39zM51 66h46v1h-46z" /><path fill="#5fd0ca" d="M42 66h1v1h-1z" /><path fill="#f5fcfc" d="M43 66h1v1h-1z" /><path fill="#c9efed" d="M49 66h1v1h-1z" /><path fill="#4bcac3" d="M50 66h1v1h-1z" /><path fill="#44c7bf" d="M3 67h1v1h-1zM96 67h1v1h-1z" /><path fill="#44c8c0" d="M4 67h37v1h-37zM50 67h46v1h-46zM48 68h1v1h-1z" /><path fill="#49cac2" d="M41 67h1v1h-1z" /><path fill="#48c9c1" d="M49 67h1v1h-1z" /><path fill="#43c8c0" d="M4 68h37v1h-37zM49 68h47v1h-47zM47 69h1v1h-1z" /><path fill="#aee7e4" d="M41 68h1v1h-1z" /><path fill="#b3e9e6" d="M47 68h1v1h-1z" /><path fill="#42c8bf" d="M4 69h1v1h-1z" /><path fill="#42c8c0" d="M5 69h35v1h-35zM48 69h47v1h-47z" /><path fill="#78d8d2" d="M40 69h1v1h-1z" /><path fill="#a7e5e2" d="M46 69h1v1h-1z" /><path fill="#41c7bf" d="M95 69h1v1h-1zM38 71h1v1h-1z" /><path fill="#40c7c0" d="M4 70h1v1h-1zM95 70h1v1h-1z" /><path fill="#41c7c0" d="M5 70h34v1h-34zM46 70h49v1h-49z" /><path fill="#52ccc6" d="M39 70h1v1h-1z" /><path fill="#9ae1dd" d="M45 70h1v1h-1z" /><path fill="#3fc6bf" d="M5 71h1v1h-1z" /><path fill="#40c7bf" d="M6 71h32v1h-32zM45 71h49v1h-49zM6 72h32v1h-32zM44 72h50v1h-50z" /><path fill="#cbf0ee" d="M39 71h1v1h-1zM33 80h1v1h-1z" /><path fill="#fdfffe" d="M43 71h1v1h-1z" /><path fill="#8cddd9" d="M44 71h1v1h-1z" /><path fill="#3fc7bf" d="M94 71h1v1h-1zM7 73h30v1h-30zM43 73h50v1h-50z" /><path fill="#40c7be" d="M5 72h1v1h-1zM94 72h1v1h-1z" /><path fill="#99e1dd" d="M38 72h1v1h-1z" /><path fill="#fbfefd" d="M42 72h1v1h-1z" /><path fill="#81dad5" d="M43 72h1v1h-1z" /><path fill="#3ec7be" d="M6 73h1v1h-1zM6 74h30v1h-30zM42 74h51v1h-51z" /><path fill="#66d2cc" d="M37 73h1v1h-1z" /><path fill="#f7fdfc" d="M41 73h1v1h-1z" /><path fill="#76d7d1" d="M42 73h1v1h-1z" /><path fill="#3fc6be" d="M93 73h1v1h-1z" /><path fill="#47cac1" d="M36 74h1v1h-1z" /><path fill="#e2f7f5" d="M37 74h1v1h-1z" /><path fill="#6bd4cd" d="M41 74h1v1h-1z" /><path fill="#3ec6be" d="M93 74h1v1h-1z" /><path fill="#3dc7be" d="M7 75h29v1h-29zM41 75h51v1h-51z" /><path fill="#b9ebe8" d="M36 75h1v1h-1z" /><path fill="#62d2ca" d="M40 75h1v1h-1z" /><path fill="#3cc6bd" d="M92 75h1v1h-1z" /><path fill="#3cc7be" d="M8 76h27v1h-27zM40 76h52v1h-52z" /><path fill="#84dcd6" d="M35 76h1v1h-1z" /><path fill="#5ad0c8" d="M39 76h1v1h-1z" /><path fill="#3ac7bd" d="M8 77h1v1h-1zM11 79h22v1h-22zM37 79h52v1h-52z" /><path fill="#3bc7be" d="M9 77h25v1h-25zM39 77h52v1h-52z" /><path fill="#56cfc7" d="M34 77h1v1h-1z" /><path fill="#52cec6" d="M38 77h1v1h-1z" /><path fill="#3bc6be" d="M91 77h1v1h-1z" /><path fill="#3bc6bd" d="M9 78h1v1h-1z" /><path fill="#3bc7bd" d="M10 78h23v1h-23zM38 78h52v1h-52z" /><path fill="#3fc8be" d="M33 78h1v1h-1z" /><path fill="#d4f3f1" d="M34 78h1v1h-1z" /><path fill="#d9f4f2" d="M36 78h1v1h-1z" /><path fill="#4cccc3" d="M37 78h1v1h-1z" /><path fill="#3ac7bc" d="M90 78h1v1h-1z" /><path fill="#3ac6bc" d="M10 79h1v1h-1zM89 79h1v1h-1z" /><path fill="#a2e5e0" d="M33 79h1v1h-1z" /><path fill="#d0f2ef" d="M35 79h1v1h-1z" /><path fill="#46cac1" d="M36 79h1v1h-1z" /><path fill="#39c7bd" d="M10 80h23v1h-23zM36 80h53v1h-53z" /><path fill="#c1edea" d="M34 80h1v1h-1z" /><path fill="#41c9c0" d="M35 80h1v1h-1z" /><path fill="#39c7bc" d="M89 80h1v1h-1z" /><path fill="#38c6bb" d="M11 81h1v1h-1z" /><path fill="#38c7bc" d="M12 81h76v1h-76z" /><path fill="#37c7bb" d="M88 81h1v1h-1zM12 82h1v1h-1z" /><path fill="#37c7bc" d="M13 82h74v1h-74zM14 83h72v1h-72z" /><path fill="#36c7bb" d="M87 82h1v1h-1zM15 84h70v1h-70z" /><path fill="#37c6bc" d="M13 83h1v1h-1zM86 83h1v1h-1z" /><path fill="#36c7ba" d="M14 84h1v1h-1z" /><path fill="#35c6bb" d="M85 84h1v1h-1zM15 85h1v1h-1zM84 85h1v1h-1z" /><path fill="#35c7bb" d="M16 85h68v1h-68z" /><path fill="#33c7ba" d="M16 86h1v1h-1z" /><path fill="#34c7bb" d="M17 86h66v1h-66z" /><path fill="#33c6ba" d="M83 86h1v1h-1z" /><path fill="#32c6ba" d="M17 87h1v1h-1zM82 87h1v1h-1zM20 89h1v1h-1z" /><path fill="#33c7bb" d="M18 87h64v1h-64z" /><path fill="#31c6ba" d="M18 88h1v1h-1zM80 89h1v1h-1zM22 90h56v1h-56z" /><path fill="#32c7ba" d="M19 88h63v1h-63zM21 89h58v1h-58z" /><path fill="#32c6b9" d="M79 89h1v1h-1z" /><path fill="#31c5ba" d="M21 90h1v1h-1z" /><path fill="#30c5b9" d="M78 90h1v1h-1z" /><path fill="#2fc5b9" d="M22 91h1v1h-1zM24 92h1v1h-1z" /><path fill="#30c6b9" d="M23 91h54v1h-54z" /><path fill="#30c6b8" d="M77 91h1v1h-1z" /><path fill="#2fc6b9" d="M25 92h50v1h-50z" /><path fill="#2ec6b8" d="M75 92h1v1h-1zM28 94h1v1h-1z" /><path fill="#2ec5b8" d="M25 93h1v1h-1z" /><path fill="#2dc6b8" d="M26 93h1v1h-1zM27 94h1v1h-1zM31 95h39v1h-39z" /><path fill="#2ec6b9" d="M27 93h46v1h-46zM29 94h42v1h-42z" /><path fill="#2dc5b8" d="M73 93h1v1h-1z" /><path fill="#2dc6b9" d="M74 93h1v1h-1zM72 94h1v1h-1z" /><path fill="#2ec5b9" d="M71 94h1v1h-1z" /><path fill="#2dc6b7" d="M29 95h1v1h-1zM70 95h1v1h-1z" /><path fill="#2cc5b8" d="M30 95h1v1h-1z" /><path fill="#2cc5b7" d="M32 96h1v1h-1z" /><path fill="#2cc6b8" d="M33 96h34v1h-34z" /><path fill="#2bc6b8" d="M67 96h1v1h-1zM36 97h28v1h-28z" /><path fill="#2ac6b8" d="M34 97h1v1h-1z" /><path fill="#2ac5b7" d="M35 97h1v1h-1z" /><path fill="#2bc5b8" d="M64 97h1v1h-1z" /><path fill="#2bc5b7" d="M65 97h1v1h-1z" /><path fill="#29c6b7" d="M38 98h2v1h-2zM43 99h1v1h-1zM47 99h1v1h-1zM52 99h1v1h-1z" /><path fill="#2ac6b7" d="M40 98h20v1h-20zM61 98h1v1h-1z" /><path fill="#2ac6b6" d="M60 98h1v1h-1z" /><path fill="#29c5b6" d="M44 99h1v1h-1zM55 99h2v1h-2z" /><path fill="#29c6b6" d="M45 99h1v1h-1z" /><path fill="#28c6b6" d="M46 99h1v1h-1zM53 99h1v1h-1z" /><path fill="#28c5b6" d="M48 99h1v1h-1zM51 99h1v1h-1z" /><path fill="#28c5b7" d="M49 99h2v1h-2z" /><path fill="#29c5b7" d="M54 99h1v1h-1z" /></svg>