<svg xmlns="http://www.w3.org/2000/svg" viewBox="0 0 100 100" width="1em" height="1em"><path fill="#5049f3" d="M38 8h1v1h-1zM33 9h1v1h-1zM49 9h1v1h-1zM51 15h1v1h-1zM61 19h1v1h-1zM12 20h1v1h-1zM20 22h1v1h-1zM33 22h2v1h-2zM41 22h2v1h-2zM8 24h1v1h-1zM17 25h1v1h-1zM71 28h1v1h-1zM59 29h1v1h-1zM30 30h1v1h-1zM30 32h1v1h-1zM73 32h1v1h-1zM11 33h1v1h-1zM74 34h1v1h-1zM58 35h1v1h-1zM24 36h1v1h-1zM58 37h1v1h-1zM78 37h1v1h-1zM1 38h1v1h-1zM28 41h1v1h-1zM65 42h1v1h-1zM39 43h1v1h-1zM65 43h1v1h-1zM17 45h1v1h-1zM33 45h1v1h-1zM41 45h1v1h-1zM66 47h1v1h-1zM97 47h1v1h-1zM38 49h1v1h-1zM55 50h1v1h-1zM0 51h1v1h-1zM59 51h1v1h-1zM16 52h1v1h-1zM8 53h1v1h-1zM16 53h1v1h-1zM35 53h1v1h-1zM85 53h1v1h-1zM90 53h1v1h-1zM16 54h1v1h-1zM38 54h1v1h-1zM67 54h1v1h-1zM16 55h1v1h-1zM67 55h1v1h-1zM74 55h1v1h-1zM67 56h1v1h-1zM68 57h1v1h-1zM89 59h1v1h-1zM92 59h1v1h-1zM30 60h1v1h-1zM90 60h1v1h-1zM94 60h1v1h-1zM73 61h1v1h-1zM29 62h1v1h-1zM16 63h1v1h-1zM29 63h1v1h-1zM16 66h1v1h-1zM4 67h1v1h-1zM17 68h1v1h-1zM19 69h1v1h-1zM77 69h1v1h-1zM76 71h1v1h-1zM75 72h1v1h-1zM18 74h1v1h-1zM31 82h2v1h-2zM36 83h1v1h-1zM18 84h1v1h-1zM23 87h1v1h-1zM33 90h1v1h-1zM43 91h1v1h-1z" /><path fill="#5049f4" d="M39 8h1v1h-1zM43 8h1v1h-1zM24 12h1v1h-1zM58 12h1v1h-1zM41 14h1v1h-1zM18 15h1v1h-1zM35 15h1v1h-1zM17 16h1v1h-1zM66 17h1v1h-1zM14 18h1v1h-1zM24 19h1v1h-1zM21 21h1v1h-1zM35 22h6v1h-6zM66 23h1v1h-1zM67 24h1v1h-1zM68 25h1v1h-1zM7 26h1v1h-1zM5 29h1v1h-1zM4 31h1v1h-1zM10 35h1v1h-1zM54 36h1v1h-1zM56 37h1v1h-1zM55 38h1v1h-1zM60 38h1v1h-1zM65 41h1v1h-1zM8 43h1v1h-1zM0 44h1v1h-1zM77 44h1v1h-1zM99 44h1v1h-1zM37 46h1v1h-1zM42 46h1v1h-1zM88 49h1v1h-1zM37 50h1v1h-1zM91 52h1v1h-1zM84 54h1v1h-1zM83 55h2v1h-2zM91 57h1v1h-1zM84 58h1v1h-1zM86 59h1v1h-1zM88 59h1v1h-1zM89 60h1v1h-1zM66 62h1v1h-1zM68 66h1v1h-1zM39 67h1v1h-1zM58 67h1v1h-1zM75 68h1v1h-1zM77 68h1v1h-1zM5 69h1v1h-1zM7 72h1v1h-1zM73 75h1v1h-1zM20 76h1v1h-1zM21 77h1v1h-1zM61 78h1v1h-1zM59 79h1v1h-1zM57 80h1v1h-1zM49 82h1v1h-1zM20 85h1v1h-1zM56 88h1v1h-1zM53 89h1v1h-1z" /><path fill="#4f49f3" d="M40 8h1v1h-1zM44 8h1v1h-1zM52 10h1v1h-1zM55 11h1v1h-1zM22 13h1v1h-1zM20 14h1v1h-1zM42 14h1v1h-1zM50 15h1v1h-1zM30 16h1v1h-1zM53 16h1v1h-1zM64 16h1v1h-1zM28 17h1v1h-1zM62 20h1v1h-1zM11 21h1v1h-1zM30 25h1v1h-1zM52 25h1v1h-1zM74 26h1v1h-1zM15 27h1v1h-1zM30 29h1v1h-1zM30 33h1v1h-1zM2 35h1v1h-1zM22 37h1v1h-1zM57 37h1v1h-1zM64 37h1v1h-1zM59 38h1v1h-1zM86 39h1v1h-1zM76 40h1v1h-1zM77 42h1v1h-1zM77 43h1v1h-1zM37 45h1v1h-1zM94 45h1v1h-1zM30 47h1v1h-1zM84 47h1v1h-1zM93 47h1v1h-1zM0 48h1v1h-1zM78 48h1v1h-1zM32 50h1v1h-1zM58 50h1v1h-1zM66 50h1v1h-1zM46 51h1v1h-1zM81 51h1v1h-1zM87 52h1v1h-1zM0 53h1v1h-1zM52 53h1v1h-1zM79 53h1v1h-1zM40 54h1v1h-1zM8 55h1v1h-1zM8 56h1v1h-1zM62 56h1v1h-1zM62 57h1v1h-1zM76 57h1v1h-1zM86 57h1v1h-1zM34 58h1v1h-1zM76 58h1v1h-1zM93 58h1v1h-1zM63 59h1v1h-1zM16 60h1v1h-1zM93 60h1v1h-1zM65 61h1v1h-1zM10 62h1v1h-1zM10 63h1v1h-1zM3 65h1v1h-1zM11 65h1v1h-1zM39 66h1v1h-1zM74 68h1v1h-1zM18 69h1v1h-1zM26 69h1v1h-1zM14 70h1v1h-1zM64 75h1v1h-1zM22 78h1v1h-1zM68 80h1v1h-1zM28 81h2v1h-2zM50 81h1v1h-1zM35 83h1v1h-1zM43 83h1v1h-1zM63 84h1v1h-1zM62 85h1v1h-1zM21 86h2v1h-2zM26 88h1v1h-1zM55 88h1v1h-1zM52 89h1v1h-1zM48 90h2v1h-2zM38 91h1v1h-1z" /><path fill="#4f49f4" d="M41 8h1v1h-1zM26 11h1v1h-1zM62 14h1v1h-1zM34 15h1v1h-1zM13 19h1v1h-1zM68 19h1v1h-1zM19 23h1v1h-1zM16 26h1v1h-1zM70 27h1v1h-1zM77 34h1v1h-1zM78 39h1v1h-1zM84 40h1v1h-1zM87 41h1v1h-1zM95 42h2v1h-2zM29 44h1v1h-1zM38 44h1v1h-1zM82 44h1v1h-1zM0 47h1v1h-1zM92 47h1v1h-1zM95 48h1v1h-1zM16 51h1v1h-1zM8 54h1v1h-1zM81 55h1v1h-1zM85 55h1v1h-1zM16 57h1v1h-1zM16 58h1v1h-1zM83 58h1v1h-1zM16 59h1v1h-1zM83 59h1v1h-1zM87 59h1v1h-1zM91 60h1v1h-1zM67 62h1v1h-1zM60 66h1v1h-1zM51 68h1v1h-1zM57 68h1v1h-1zM41 69h1v1h-1zM63 69h1v1h-1zM15 71h1v1h-1zM19 75h1v1h-1zM26 80h1v1h-1zM28 89h1v1h-1zM39 91h1v1h-1zM41 91h1v1h-1z" /><path fill="#4f4af3" d="M42 8h1v1h-1zM63 15h1v1h-1zM15 17h1v1h-1zM59 18h1v1h-1zM63 20h1v1h-1zM71 22h1v1h-1zM45 23h1v1h-1zM72 24h1v1h-1zM54 26h1v1h-1zM13 29h1v1h-1zM75 29h1v1h-1zM59 35h1v1h-1zM31 37h1v1h-1zM20 39h1v1h-1zM85 39h1v1h-1zM28 40h1v1h-1zM87 40h1v1h-1zM8 42h1v1h-1zM83 42h1v1h-1zM29 43h1v1h-1zM85 45h1v1h-1zM99 45h1v1h-1zM35 48h1v1h-1zM81 48h1v1h-1zM31 49h1v1h-1zM45 49h1v1h-1zM78 49h1v1h-1zM78 50h1v1h-1zM88 50h1v1h-1zM33 51h1v1h-1zM53 51h1v1h-1zM76 56h1v1h-1zM88 57h1v1h-1zM35 58h1v1h-1zM9 59h1v1h-1zM75 59h1v1h-1zM90 59h1v1h-1zM2 61h1v1h-1zM29 61h1v1h-1zM70 62h1v1h-1zM3 64h1v1h-1zM11 64h1v1h-1zM29 66h1v1h-1zM61 66h1v1h-1zM16 72h1v1h-1zM8 74h1v1h-1zM63 76h1v1h-1zM54 77h1v1h-1zM24 79h1v1h-1zM45 83h2v1h-2zM65 83h1v1h-1zM24 87h1v1h-1zM50 90h1v1h-1zM42 91h1v1h-1z" /><path fill="#504af4" d="M32 9h1v1h-1zM34 9h14v1h-14zM29 10h23v1h-23zM27 11h28v1h-28zM56 11h1v1h-1zM25 12h33v1h-33zM23 13h37v1h-37zM21 14h19v1h-19zM43 14h18v1h-18zM19 15h14v1h-14zM52 15h11v1h-11zM18 16h12v1h-12zM54 16h10v1h-10zM16 17h12v1h-12zM58 17h8v1h-8zM15 18h11v1h-11zM60 18h7v1h-7zM14 19h10v1h-10zM62 19h6v1h-6zM13 20h11v1h-11zM64 20h5v1h-5zM12 21h9v1h-9zM65 21h5v1h-5zM11 22h9v1h-9zM66 22h5v1h-5zM10 23h9v1h-9zM32 23h13v1h-13zM67 23h5v1h-5zM9 24h9v1h-9zM31 24h16v1h-16zM68 24h4v1h-4zM8 25h9v1h-9zM31 25h20v1h-20zM69 25h5v1h-5zM8 26h8v1h-8zM31 26h23v1h-23zM55 26h1v1h-1zM70 26h4v1h-4zM7 27h8v1h-8zM30 27h26v1h-26zM71 27h3v1h-3zM6 28h9v1h-9zM31 28h28v1h-28zM72 28h3v1h-3zM6 29h7v1h-7zM31 29h28v1h-28zM72 29h3v1h-3zM5 30h8v1h-8zM31 30h29v1h-29zM72 30h4v1h-4zM5 31h7v1h-7zM31 31h30v1h-30zM74 31h2v1h-2zM4 32h7v1h-7zM31 32h31v1h-31zM74 32h3v1h-3zM4 33h7v1h-7zM31 33h31v1h-31zM75 33h2v1h-2zM3 34h7v1h-7zM31 34h32v1h-32zM75 34h2v1h-2zM3 35h7v1h-7zM31 35h25v1h-25zM60 35h4v1h-4zM75 35h3v1h-3zM3 36h7v1h-7zM25 36h2v1h-2zM31 36h23v1h-23zM60 36h4v1h-4zM76 36h2v1h-2zM2 37h7v1h-7zM23 37h4v1h-4zM32 37h22v1h-22zM61 37h3v1h-3zM76 37h2v1h-2zM2 38h7v1h-7zM22 38h6v1h-6zM31 38h23v1h-23zM56 38h3v1h-3zM61 38h4v1h-4zM76 38h3v1h-3zM2 39h7v1h-7zM21 39h7v1h-7zM31 39h23v1h-23zM55 39h10v1h-10zM76 39h2v1h-2zM1 40h7v1h-7zM19 40h9v1h-9zM32 40h33v1h-33zM77 40h2v1h-2zM85 40h2v1h-2zM1 41h7v1h-7zM19 41h9v1h-9zM32 41h33v1h-33zM77 41h2v1h-2zM84 41h3v1h-3zM1 42h7v1h-7zM19 42h10v1h-10zM32 42h33v1h-33zM78 42h1v1h-1zM84 42h3v1h-3zM1 43h7v1h-7zM18 43h11v1h-11zM33 43h6v1h-6zM40 43h25v1h-25zM78 43h1v1h-1zM83 43h3v1h-3zM94 43h4v1h-4zM1 44h7v1h-7zM17 44h12v1h-12zM34 44h4v1h-4zM41 44h25v1h-25zM78 44h1v1h-1zM83 44h3v1h-3zM95 44h4v1h-4zM0 45h8v1h-8zM18 45h12v1h-12zM34 45h3v1h-3zM42 45h24v1h-24zM78 45h1v1h-1zM82 45h3v1h-3zM95 45h4v1h-4zM1 46h7v1h-7zM17 46h14v1h-14zM35 46h2v1h-2zM43 46h23v1h-23zM78 46h1v1h-1zM82 46h3v1h-3zM95 46h3v1h-3zM1 47h7v1h-7zM17 47h13v1h-13zM35 47h3v1h-3zM44 47h22v1h-22zM78 47h1v1h-1zM82 47h2v1h-2zM94 47h3v1h-3zM1 48h7v1h-7zM17 48h14v1h-14zM36 48h2v1h-2zM45 48h22v1h-22zM82 48h2v1h-2zM90 48h5v1h-5zM1 49h7v1h-7zM17 49h14v1h-14zM36 49h2v1h-2zM46 49h20v1h-20zM81 49h2v1h-2zM89 49h2v1h-2zM1 50h7v1h-7zM17 50h15v1h-15zM38 50h1v1h-1zM46 50h9v1h-9zM56 50h2v1h-2zM59 50h7v1h-7zM81 50h1v1h-1zM1 51h7v1h-7zM17 51h16v1h-16zM47 51h6v1h-6zM61 51h6v1h-6zM88 51h2v1h-2zM0 52h8v1h-8zM17 52h17v1h-17zM45 52h8v1h-8zM61 52h6v1h-6zM80 52h1v1h-1zM88 52h3v1h-3zM1 53h7v1h-7zM17 53h18v1h-18zM43 53h9v1h-9zM62 53h5v1h-5zM87 53h3v1h-3zM1 54h7v1h-7zM17 54h20v1h-20zM41 54h11v1h-11zM62 54h5v1h-5zM85 54h2v1h-2zM1 55h7v1h-7zM17 55h35v1h-35zM62 55h5v1h-5zM1 56h7v1h-7zM16 56h36v1h-36zM63 56h4v1h-4zM73 56h3v1h-3zM2 57h7v1h-7zM17 57h35v1h-35zM63 57h5v1h-5zM73 57h3v1h-3zM89 57h2v1h-2zM93 57h2v1h-2zM1 58h8v1h-8zM17 58h16v1h-16zM36 58h16v1h-16zM63 58h13v1h-13zM94 58h1v1h-1zM2 59h7v1h-7zM17 59h14v1h-14zM38 59h14v1h-14zM64 59h11v1h-11zM93 59h2v1h-2zM2 60h7v1h-7zM17 60h13v1h-13zM39 60h13v1h-13zM64 60h11v1h-11zM3 61h7v1h-7zM17 61h12v1h-12zM39 61h13v1h-13zM66 61h7v1h-7zM3 62h7v1h-7zM17 62h12v1h-12zM40 62h12v1h-12zM68 62h2v1h-2zM71 62h1v1h-1zM3 63h7v1h-7zM17 63h12v1h-12zM39 63h13v1h-13zM4 64h7v1h-7zM17 64h12v1h-12zM39 64h13v1h-13zM4 65h7v1h-7zM17 65h12v1h-12zM39 65h13v1h-13zM4 66h8v1h-8zM17 66h12v1h-12zM40 66h12v1h-12zM62 66h6v1h-6zM5 67h7v1h-7zM17 67h12v1h-12zM40 67h12v1h-12zM59 67h12v1h-12zM5 68h9v1h-9zM18 68h10v1h-10zM41 68h10v1h-10zM58 68h15v1h-15zM6 69h8v1h-8zM20 69h6v1h-6zM43 69h5v1h-5zM49 69h1v1h-1zM65 69h12v1h-12zM6 70h8v1h-8zM65 70h12v1h-12zM6 71h9v1h-9zM65 71h11v1h-11zM8 72h8v1h-8zM65 72h10v1h-10zM8 73h9v1h-9zM65 73h10v1h-10zM9 74h9v1h-9zM64 74h11v1h-11zM10 75h9v1h-9zM65 75h8v1h-8zM11 76h9v1h-9zM64 76h8v1h-8zM11 77h10v1h-10zM62 77h9v1h-9zM12 78h10v1h-10zM62 78h9v1h-9zM12 79h12v1h-12zM54 79h2v1h-2zM60 79h10v1h-10zM14 80h12v1h-12zM52 80h4v1h-4zM58 80h10v1h-10zM16 81h12v1h-12zM52 81h15v1h-15zM17 82h14v1h-14zM50 82h16v1h-16zM18 83h16v1h-16zM47 83h18v1h-18zM19 84h44v1h-44zM21 85h41v1h-41zM23 86h38v1h-38zM25 87h34v1h-34zM27 88h28v1h-28zM30 89h22v1h-22zM34 90h14v1h-14z" /><path fill="#504af3" d="M48 9h1v1h-1zM50 9h1v1h-1zM23 12h1v1h-1zM40 14h1v1h-1zM61 14h1v1h-1zM33 15h1v1h-1zM57 17h1v1h-1zM26 18h1v1h-1zM67 18h1v1h-1zM69 20h1v1h-1zM70 21h1v1h-1zM10 22h1v1h-1zM65 22h1v1h-1zM30 26h1v1h-1zM69 26h1v1h-1zM56 27h1v1h-1zM60 30h1v1h-1zM76 30h1v1h-1zM30 31h1v1h-1zM61 31h1v1h-1zM73 31h1v1h-1zM76 31h1v1h-1zM11 32h1v1h-1zM3 33h1v1h-1zM62 33h1v1h-1zM74 33h1v1h-1zM10 34h1v1h-1zM2 36h1v1h-1zM27 37h1v1h-1zM9 38h1v1h-1zM21 38h1v1h-1zM1 39h1v1h-1zM8 40h1v1h-1zM0 43h1v1h-1zM98 43h1v1h-1zM33 44h1v1h-1zM40 44h1v1h-1zM94 44h1v1h-1zM0 46h1v1h-1zM85 46h1v1h-1zM98 46h1v1h-1zM31 48h1v1h-1zM44 48h1v1h-1zM0 49h1v1h-1zM66 49h1v1h-1zM83 49h1v1h-1zM91 49h1v1h-1zM16 50h1v1h-1zM82 50h1v1h-1zM89 50h1v1h-1zM60 51h1v1h-1zM80 51h1v1h-1zM90 51h1v1h-1zM61 53h1v1h-1zM86 53h1v1h-1zM37 54h1v1h-1zM87 54h2v1h-2zM82 55h1v1h-1zM1 57h1v1h-1zM87 57h1v1h-1zM92 57h1v1h-1zM1 59h1v1h-1zM84 59h2v1h-2zM91 59h1v1h-1zM9 60h1v1h-1zM38 60h1v1h-1zM16 61h1v1h-1zM16 62h1v1h-1zM72 62h1v1h-1zM12 67h1v1h-1zM73 68h1v1h-1zM76 68h1v1h-1zM27 69h1v1h-1zM48 69h1v1h-1zM64 69h1v1h-1zM17 73h1v1h-1zM9 75h1v1h-1zM10 76h1v1h-1zM72 76h1v1h-1zM71 77h1v1h-1zM54 78h1v1h-1zM53 79h1v1h-1zM15 81h1v1h-1zM51 81h1v1h-1zM67 81h1v1h-1zM16 82h1v1h-1zM48 82h1v1h-1zM66 82h1v1h-1zM17 83h1v1h-1zM34 83h1v1h-1zM40 91h1v1h-1zM44 91h1v1h-1z" /><path fill="#4f4af4" d="M53 10h1v1h-1zM60 13h1v1h-1zM49 15h1v1h-1zM31 16h1v1h-1zM64 21h1v1h-1zM43 22h1v1h-1zM9 23h1v1h-1zM18 24h1v1h-1zM51 25h1v1h-1zM6 27h1v1h-1zM57 27h1v1h-1zM74 27h1v1h-1zM30 28h1v1h-1zM75 28h1v1h-1zM12 31h1v1h-1zM77 33h1v1h-1zM27 36h1v1h-1zM75 36h1v1h-1zM9 37h1v1h-1zM60 37h1v1h-1zM54 39h1v1h-1zM8 41h1v1h-1zM18 42h1v1h-1zM86 43h1v1h-1zM86 44h1v1h-1zM34 46h1v1h-1zM94 46h1v1h-1zM43 47h1v1h-1zM81 47h1v1h-1zM92 49h1v1h-1zM0 50h1v1h-1zM80 50h1v1h-1zM44 52h1v1h-1zM42 53h1v1h-1zM0 54h1v1h-1zM39 54h1v1h-1zM73 55h1v1h-1zM72 57h1v1h-1zM33 58h1v1h-1zM62 58h1v1h-1zM31 59h1v1h-1zM37 59h1v1h-1zM92 60h1v1h-1zM2 62h1v1h-1zM39 62h1v1h-1zM16 64h1v1h-1zM29 64h1v1h-1zM16 65h1v1h-1zM29 65h1v1h-1zM12 66h1v1h-1zM69 66h1v1h-1zM71 67h1v1h-1zM28 68h1v1h-1zM40 68h1v1h-1zM42 69h1v1h-1zM23 78h1v1h-1zM13 80h1v1h-1zM37 83h1v1h-1zM44 83h1v1h-1zM29 89h1v1h-1zM32 90h1v1h-1z" /></svg>