<svg xmlns="http://www.w3.org/2000/svg" viewBox="0 0 100 100" width="1em" height="1em"><path fill="#1871e6" d="M43 0h1v1h-1zM54 0h1v1h-1zM56 0h1v1h-1zM61 1h1v1h-1zM34 2h1v1h-1zM65 2h1v1h-1zM69 4h1v1h-1z" /><path fill="#1872e7" d="M44 0h1v1h-1zM39 1h1v1h-1z" /><path fill="#1872e6" d="M45 0h1v1h-1zM38 1h1v1h-1zM29 4h2v1h-2z" /><path fill="#1972e6" d="M46 0h1v1h-1zM53 0h1v1h-1zM45 2h19v1h-19zM33 3h26v1h-26zM31 4h12v1h-12z" /><path fill="#1871e7" d="M47 0h2v1h-2zM51 0h2v1h-2zM60 1h1v1h-1zM35 2h1v1h-1z" /><path fill="#1972e7" d="M49 0h2v1h-2zM40 1h20v1h-20zM36 2h9v1h-9z" /><path fill="#1971e7" d="M55 0h1v1h-1z" /><path fill="#1972e5" d="M64 2h1v1h-1zM32 3h1v1h-1z" /><path fill="#1971e6" d="M59 3h8v1h-8zM43 4h26v1h-26zM29 5h28v1h-28zM27 6h14v1h-14z" /><path fill="#1971e5" d="M67 3h1v1h-1zM70 4h1v1h-1zM57 5h14v1h-14zM41 6h32v1h-32zM24 7h51v1h-51zM23 8h46v1h-46zM22 9h31v1h-31zM20 10h17v1h-17zM19 11h1v1h-1z" /><path fill="#1870e6" d="M27 5h1v1h-1zM25 6h2v1h-2z" /><path fill="#1970e5" d="M28 5h1v1h-1zM22 8h1v1h-1z" /><path fill="#1971e4" d="M71 5h1v1h-1zM69 8h8v1h-8zM53 9h25v1h-25zM37 10h30v1h-30zM18 11h1v1h-1zM20 11h31v1h-31zM18 12h17v1h-17zM17 13h1v1h-1z" /><path fill="#1871e4" d="M72 5h1v1h-1zM74 6h1v1h-1z" /><path fill="#1870e5" d="M73 6h1v1h-1zM75 7h1v1h-1zM21 9h1v1h-1z" /><path fill="#1870e3" d="M77 8h1v1h-1zM16 13h1v1h-1zM83 13h1v1h-1z" /><path fill="#1971e3" d="M78 9h1v1h-1z" /><path fill="#1870e4" d="M19 10h1v1h-1z" /><path fill="#1970e4" d="M67 10h13v1h-13zM51 11h30v1h-30zM35 12h30v1h-30zM18 13h31v1h-31zM16 14h17v1h-17zM15 15h1v1h-1z" /><path fill="#196fe4" d="M80 10h1v1h-1z" /><path fill="#1870e2" d="M81 11h1v1h-1z" /><path fill="#1871e3" d="M17 12h1v1h-1z" /><path fill="#1970e3" d="M65 12h17v1h-17zM49 13h34v1h-34zM15 14h1v1h-1zM33 14h51v1h-51zM16 15h61v1h-61zM14 16h47v1h-47zM13 17h32v1h-32zM12 18h17v1h-17zM11 19h1v1h-1z" /><path fill="#196fe2" d="M82 12h1v1h-1zM13 16h1v1h-1zM75 17h12v1h-12zM59 18h29v1h-29zM10 19h1v1h-1zM43 19h30v1h-30zM26 20h31v1h-31zM10 21h31v1h-31zM9 22h15v1h-15z" /><path fill="#196fe3" d="M84 14h1v1h-1zM14 15h1v1h-1zM11 18h1v1h-1z" /><path fill="#1970e2" d="M77 15h9v1h-9zM61 16h25v1h-25zM45 17h30v1h-30zM29 18h30v1h-30zM12 19h31v1h-31zM10 20h16v1h-16z" /><path fill="#186fe1" d="M86 16h1v1h-1zM9 21h1v1h-1z" /><path fill="#186fe2" d="M12 17h1v1h-1zM8 22h1v1h-1z" /><path fill="#196ee2" d="M87 17h1v1h-1z" /><path fill="#186ee2" d="M88 18h1v1h-1z" /><path fill="#196fe1" d="M73 19h16v1h-16zM57 20h33v1h-33zM41 21h49v1h-49zM24 22h61v1h-61zM8 23h61v1h-61zM8 24h45v1h-45zM8 25h29v1h-29zM8 26h12v1h-12zM10 30h1v1h-1z" /><path fill="#196fe0" d="M89 19h1v1h-1zM85 22h6v1h-6zM69 23h23v1h-23zM53 24h30v1h-30zM37 25h6v1h-6zM20 26h20v1h-20zM9 27h25v1h-25zM9 28h9v1h-9z" /><path fill="#186ee1" d="M90 21h1v1h-1z" /><path fill="#186fdf" d="M91 22h1v1h-1z" /><path fill="#196ee1" d="M7 24h1v1h-1z" /><path fill="#196ee0" d="M83 24h9v1h-9zM34 27h4v1h-4zM18 28h18v1h-18zM10 29h22v1h-22zM11 30h5v1h-5z" /><path fill="#186ddf" d="M92 24h1v1h-1z" /><path fill="#5f99f5" d="M6 25h1v1h-1z" /><path fill="#1f73e3" d="M7 25h1v1h-1z" /><path fill="#3581e4" d="M43 25h1v1h-1z" /><path fill="#70a5ec" d="M44 25h1v1h-1z" /><path fill="#9ec3f2" d="M45 25h1v1h-1z" /><path fill="#c2d9f7" d="M46 25h1v1h-1z" /><path fill="#dfebfb" d="M47 25h1v1h-1z" /><path fill="#f0f5fd" d="M48 25h1v1h-1z" /><path fill="#fafcfe" d="M49 25h1v1h-1zM25 49h1v1h-1zM25 50h1v1h-1z" /><path fill="#fdfeff" d="M50 25h1v1h-1zM27 40h1v1h-1zM27 59h1v1h-1zM40 72h1v1h-1z" /><path fill="#fafcff" d="M51 25h1v1h-1zM63 29h1v1h-1zM70 36h1v1h-1z" /><path fill="#f4f8fe" d="M52 25h1v1h-1zM29 63h1v1h-1z" /><path fill="#e9f1fe" d="M53 25h1v1h-1zM68 33h1v1h-1z" /><path fill="#ddeafd" d="M54 25h1v1h-1z" /><path fill="#cddffc" d="M55 25h1v1h-1zM73 58h1v1h-1z" /><path fill="#b8d2fb" d="M56 25h1v1h-1zM59 26h1v1h-1zM72 38h1v1h-1zM30 65h1v1h-1z" /><path fill="#afccfb" d="M57 25h36v1h-36zM68 32h1v1h-1zM72 61h1v1h-1z" /><path fill="#aecbfb" d="M93 25h1v1h-1zM62 27h32v1h-32zM66 30h1v1h-1z" /><path fill="#639cf5" d="M6 26h1v1h-1z" /><path fill="#5190f1" d="M7 26h1v1h-1z" /><path fill="#3782e4" d="M40 26h1v1h-1z" /><path fill="#8bb6ef" d="M41 26h1v1h-1z" /><path fill="#ddeafa" d="M42 26h1v1h-1z" /><path fill="#ffffff" d="M43 26h14v1h-14zM41 27h18v1h-18zM39 28h23v1h-23zM37 29h9v1h-9zM54 29h9v1h-9zM35 30h7v1h-7zM58 30h7v1h-7zM34 31h6v1h-6zM60 31h6v1h-6zM33 32h5v1h-5zM62 32h5v1h-5zM32 33h5v1h-5zM63 33h5v1h-5zM31 34h5v1h-5zM64 34h5v1h-5zM30 35h5v1h-5zM65 35h5v1h-5zM30 36h4v1h-4zM66 36h4v1h-4zM29 37h4v1h-4zM67 37h4v1h-4zM29 38h3v1h-3zM68 38h4v1h-4zM28 39h4v1h-4zM68 39h4v1h-4zM28 40h3v1h-3zM69 40h3v1h-3zM27 41h4v1h-4zM69 41h4v1h-4zM27 42h3v1h-3zM70 42h3v1h-3zM26 43h4v1h-4zM70 43h4v1h-4zM26 44h4v1h-4zM70 44h4v1h-4zM26 45h4v1h-4zM70 45h4v1h-4zM26 46h3v1h-3zM71 46h3v1h-3zM26 47h3v1h-3zM71 47h3v1h-3zM26 48h3v1h-3zM71 48h3v1h-3zM26 49h3v1h-3zM71 49h3v1h-3zM26 50h3v1h-3zM71 50h3v1h-3zM26 51h3v1h-3zM71 51h3v1h-3zM26 52h3v1h-3zM71 52h3v1h-3zM26 53h3v1h-3zM71 53h3v1h-3zM26 54h4v1h-4zM70 54h4v1h-4zM26 55h4v1h-4zM70 55h4v1h-4zM26 56h4v1h-4zM70 56h4v1h-4zM27 57h3v1h-3zM70 57h3v1h-3zM27 58h4v1h-4zM69 58h4v1h-4zM28 59h3v1h-3zM69 59h3v1h-3zM28 60h4v1h-4zM68 60h4v1h-4zM29 61h3v1h-3zM68 61h4v1h-4zM29 62h4v1h-4zM67 62h4v1h-4zM30 63h4v1h-4zM66 63h4v1h-4zM30 64h5v1h-5zM65 64h5v1h-5zM31 65h5v1h-5zM64 65h5v1h-5zM32 66h5v1h-5zM63 66h5v1h-5zM33 67h5v1h-5zM62 67h5v1h-5zM34 68h6v1h-6zM60 68h6v1h-6zM35 69h7v1h-7zM57 69h8v1h-8zM37 70h9v1h-9zM54 70h9v1h-9zM39 71h22v1h-22zM41 72h18v1h-18zM43 73h14v1h-14z" /><path fill="#f3f7fe" d="M57 26h1v1h-1zM36 70h1v1h-1zM63 70h1v1h-1zM48 74h1v1h-1zM51 74h1v1h-1z" /><path fill="#d6e5fd" d="M58 26h1v1h-1zM74 54h1v1h-1z" /><path fill="#aeccfb" d="M60 26h33v1h-33z" /><path fill="#aecbfa" d="M93 26h1v1h-1z" /><path fill="#639bf5" d="M5 27h1v1h-1zM7 27h1v1h-1z" /><path fill="#649bf6" d="M6 27h1v1h-1zM40 73h1v1h-1z" /><path fill="#2777e4" d="M8 27h1v1h-1z" /><path fill="#4288e6" d="M38 27h1v1h-1z" /><path fill="#abcaf4" d="M39 27h1v1h-1zM37 28h1v1h-1z" /><path fill="#fcfdff" d="M40 27h1v1h-1zM46 29h1v1h-1zM53 29h1v1h-1zM29 46h1v1h-1zM70 46h1v1h-1zM74 49h1v1h-1zM74 50h1v1h-1zM29 53h1v1h-1zM46 70h1v1h-1zM53 70h1v1h-1z" /><path fill="#feffff" d="M59 27h1v1h-1zM42 30h1v1h-1zM57 30h1v1h-1zM72 40h1v1h-1zM61 71h1v1h-1z" /><path fill="#e7effe" d="M60 27h1v1h-1z" /><path fill="#bfd6fc" d="M61 27h1v1h-1z" /><path fill="#aecafa" d="M94 27h1v1h-1z" /><path fill="#639af5" d="M5 28h1v1h-1z" /><path fill="#639bf6" d="M6 28h2v1h-2zM5 29h4v1h-4z" /><path fill="#5d97f3" d="M8 28h1v1h-1z" /><path fill="#2e7be3" d="M36 28h1v1h-1z" /><path fill="#fefeff" d="M38 28h1v1h-1zM38 32h1v1h-1zM61 32h1v1h-1zM28 38h1v1h-1zM32 38h1v1h-1zM67 38h1v1h-1zM30 42h1v1h-1zM69 42h1v1h-1zM30 57h1v1h-1zM69 57h1v1h-1zM72 59h1v1h-1zM28 61h1v1h-1zM32 61h1v1h-1zM67 61h1v1h-1zM38 67h1v1h-1zM61 67h1v1h-1zM42 69h1v1h-1zM38 71h1v1h-1zM59 72h1v1h-1z" /><path fill="#e4eefe" d="M62 28h1v1h-1z" /><path fill="#b4d0fb" d="M63 28h1v1h-1z" /><path fill="#adcbfb" d="M64 28h30v1h-30zM65 29h30v1h-30z" /><path fill="#adcbfa" d="M94 28h1v1h-1z" /><path fill="#629af6" d="M4 29h1v1h-1zM5 30h4v1h-4zM4 31h6v1h-6zM3 32h7v1h-7zM28 63h1v1h-1zM43 74h1v1h-1z" /><path fill="#367ee7" d="M9 29h1v1h-1z" /><path fill="#196edf" d="M32 29h3v1h-3zM16 30h17v1h-17zM11 31h21v1h-21zM12 32h19v1h-19zM12 33h16v1h-16z" /><path fill="#69a1ea" d="M35 29h1v1h-1z" /><path fill="#f1f6fd" d="M36 29h1v1h-1zM29 36h1v1h-1z" /><path fill="#e2edfd" d="M47 29h1v1h-1zM52 29h1v1h-1zM70 47h1v1h-1zM70 52h1v1h-1z" /><path fill="#cee0fb" d="M48 29h1v1h-1zM30 43h1v1h-1zM43 69h1v1h-1z" /><path fill="#c6dbfb" d="M49 29h2v1h-2zM28 62h1v1h-1z" /><path fill="#cfe1fb" d="M51 29h1v1h-1zM43 30h1v1h-1zM70 48h1v1h-1z" /><path fill="#c9ddfc" d="M64 29h1v1h-1z" /><path fill="#accafb" d="M95 29h1v1h-1zM67 30h28v1h-28zM68 31h28v1h-28z" /><path fill="#619af5" d="M4 30h1v1h-1z" /><path fill="#5f98f5" d="M9 30h1v1h-1z" /><path fill="#1e71e0" d="M33 30h1v1h-1z" /><path fill="#a4c6f2" d="M34 30h1v1h-1zM30 34h1v1h-1z" /><path fill="#91baf7" d="M44 30h1v1h-1zM55 30h1v1h-1zM69 44h1v1h-1z" /><path fill="#5e99f3" d="M45 30h1v1h-1z" /><path fill="#3b83f0" d="M46 30h1v1h-1zM53 30h1v1h-1z" /><path fill="#3680f0" d="M47 30h6v1h-6z" /><path fill="#5f9af3" d="M54 30h1v1h-1z" /><path fill="#d0e1fb" d="M56 30h1v1h-1zM69 43h1v1h-1zM69 56h1v1h-1z" /><path fill="#dde9fd" d="M65 30h1v1h-1z" /><path fill="#acc9fa" d="M95 30h1v1h-1z" /><path fill="#4587ec" d="M10 31h1v1h-1z" /><path fill="#2374e0" d="M32 31h1v1h-1z" /><path fill="#bfd7f6" d="M33 31h1v1h-1zM31 33h1v1h-1z" /><path fill="#f7fafe" d="M40 31h1v1h-1zM59 31h1v1h-1zM31 40h1v1h-1zM31 59h1v1h-1zM68 59h1v1h-1zM40 68h1v1h-1zM59 68h1v1h-1z" /><path fill="#a7c8f8" d="M41 31h1v1h-1zM68 41h1v1h-1z" /><path fill="#5091f2" d="M42 31h1v1h-1z" /><path fill="#3580f0" d="M43 31h14v1h-14z" /><path fill="#5191f2" d="M57 31h1v1h-1z" /><path fill="#a8c8f9" d="M58 31h1v1h-1z" /><path fill="#eaf1fe" d="M66 31h1v1h-1z" /><path fill="#b1cdfb" d="M67 31h1v1h-1zM71 36h1v1h-1z" /><path fill="#6199f5" d="M10 32h1v1h-1zM55 90h1v1h-1z" /><path fill="#2072e1" d="M11 32h1v1h-1z" /><path fill="#2575e1" d="M31 32h1v1h-1z" /><path fill="#cde0f8" d="M32 32h1v1h-1z" /><path fill="#b4cff9" d="M39 32h1v1h-1z" /><path fill="#478bf1" d="M40 32h1v1h-1zM37 34h1v1h-1z" /><path fill="#357ff0" d="M41 32h18v1h-18zM39 33h22v1h-22z" /><path fill="#488bf1" d="M59 32h1v1h-1zM65 37h1v1h-1z" /><path fill="#b5d0fa" d="M60 32h1v1h-1z" /><path fill="#edf3fe" d="M67 32h1v1h-1zM37 33h1v1h-1z" /><path fill="#abcafb" d="M69 32h27v1h-27z" /><path fill="#aacafb" d="M96 32h1v1h-1z" /><path fill="#6199f6" d="M3 33h8v1h-8zM3 34h8v1h-8z" /><path fill="#528ff1" d="M11 33h1v1h-1z" /><path fill="#196ede" d="M28 33h2v1h-2zM13 34h17v1h-17zM14 35h12v1h-12z" /><path fill="#1e71df" d="M30 33h1v1h-1z" /><path fill="#6ba1f4" d="M38 33h1v1h-1z" /><path fill="#6ca2f4" d="M61 33h1v1h-1z" /><path fill="#eef4fe" d="M62 33h1v1h-1z" /><path fill="#adcafb" d="M69 33h1v1h-1z" /><path fill="#abc9fb" d="M70 33h27v1h-27z" /><path fill="#6099f5" d="M2 34h1v1h-1zM11 34h1v1h-1zM59 83h1v1h-1z" /><path fill="#2a78e3" d="M12 34h1v1h-1z" /><path fill="#d6e5fc" d="M36 34h1v1h-1zM63 34h1v1h-1zM65 36h1v1h-1z" /><path fill="#347ff0" d="M38 34h24v1h-24z" /><path fill="#488cf1" d="M62 34h1v1h-1z" /><path fill="#dce9fd" d="M69 34h1v1h-1z" /><path fill="#aac9fb" d="M70 34h27v1h-27zM71 35h26v1h-26zM74 56h1v1h-1zM73 59h1v1h-1z" /><path fill="#aac8fb" d="M97 34h1v1h-1zM97 35h1v1h-1z" /><path fill="#6098f5" d="M2 35h1v1h-1zM51 97h1v1h-1z" /><path fill="#6099f6" d="M3 35h9v1h-9z" /><path fill="#5b96f4" d="M12 35h1v1h-1z" /><path fill="#196fdd" d="M13 35h1v1h-1z" /><path fill="#196dde" d="M26 35h3v1h-3zM14 36h14v1h-14zM15 37h9v1h-9z" /><path fill="#679ee9" d="M29 35h1v1h-1z" /><path fill="#ccdffb" d="M35 35h1v1h-1zM64 35h1v1h-1zM29 48h1v1h-1zM48 70h1v1h-1zM51 70h1v1h-1z" /><path fill="#3e86f0" d="M36 35h1v1h-1zM63 35h1v1h-1z" /><path fill="#347fef" d="M37 35h26v1h-26z" /><path fill="#c8dcfc" d="M70 35h1v1h-1z" /><path fill="#6098f6" d="M2 36h11v1h-11z" /><path fill="#377fe7" d="M13 36h1v1h-1z" /><path fill="#2e7ae1" d="M28 36h1v1h-1z" /><path fill="#d5e5fc" d="M34 36h1v1h-1z" /><path fill="#3d86f0" d="M35 36h1v1h-1zM64 36h1v1h-1z" /><path fill="#337fef" d="M36 36h28v1h-28z" /><path fill="#a9c8fb" d="M72 36h26v1h-26z" /><path fill="#5f98f6" d="M2 37h11v1h-11zM2 38h12v1h-12z" /><path fill="#5d97f6" d="M13 37h1v1h-1zM1 41h14v1h-14zM1 42h15v1h-15z" /><path fill="#1c6fdf" d="M14 37h1v1h-1z" /><path fill="#196ddd" d="M24 37h4v1h-4zM15 38h12v1h-12zM16 39h11v1h-11zM16 40h10v1h-10zM17 41h3v1h-3z" /><path fill="#accaf3" d="M28 37h1v1h-1z" /><path fill="#ecf3fd" d="M33 37h1v1h-1zM33 62h1v1h-1zM37 66h1v1h-1z" /><path fill="#468af1" d="M34 37h1v1h-1z" /><path fill="#337eef" d="M35 37h30v1h-30zM34 38h32v1h-32z" /><path fill="#edf4fe" d="M66 37h1v1h-1zM66 62h1v1h-1z" /><path fill="#dfebfd" d="M71 37h1v1h-1z" /><path fill="#a9c8fa" d="M72 37h26v1h-26zM70 64h1v1h-1z" /><path fill="#5e98f5" d="M1 38h1v1h-1zM14 39h1v1h-1zM63 76h1v1h-1z" /><path fill="#4889ee" d="M14 38h1v1h-1z" /><path fill="#468ae4" d="M27 38h1v1h-1z" /><path fill="#69a0f3" d="M33 38h1v1h-1z" /><path fill="#6ba1f3" d="M66 38h1v1h-1z" /><path fill="#a8c8fa" d="M73 38h25v1h-25zM73 39h25v1h-25z" /><path fill="#a8c7fa" d="M98 38h1v1h-1zM74 40h25v1h-25z" /><path fill="#5e97f5" d="M1 39h1v1h-1z" /><path fill="#5e98f6" d="M2 39h12v1h-12zM63 71h1v1h-1z" /><path fill="#2172df" d="M15 39h1v1h-1z" /><path fill="#b4cff4" d="M27 39h1v1h-1z" /><path fill="#b2cef9" d="M32 39h1v1h-1z" /><path fill="#327eef" d="M33 39h34v1h-34zM33 40h34v1h-34z" /><path fill="#b4d0f9" d="M67 39h1v1h-1zM67 60h1v1h-1z" /><path fill="#e2ecfd" d="M72 39h1v1h-1zM57 73h1v1h-1z" /><path fill="#a7c7fa" d="M98 39h1v1h-1zM74 41h25v1h-25zM74 42h25v1h-25z" /><path fill="#5e97f6" d="M1 40h14v1h-14z" /><path fill="#528ff2" d="M15 40h1v1h-1z" /><path fill="#3780e1" d="M26 40h1v1h-1z" /><path fill="#448af0" d="M32 40h1v1h-1z" /><path fill="#458af1" d="M67 40h1v1h-1z" /><path fill="#f8fafe" d="M68 40h1v1h-1z" /><path fill="#b3cefb" d="M73 40h1v1h-1zM37 71h1v1h-1zM45 74h1v1h-1zM54 74h1v1h-1z" /><path fill="#5d96f5" d="M15 41h1v1h-1z" /><path fill="#2b78e4" d="M16 41h1v1h-1z" /><path fill="#196ddc" d="M20 41h6v1h-6zM18 42h8v1h-8z" /><path fill="#8cb6ed" d="M26 41h1v1h-1z" /><path fill="#a5c6f8" d="M31 41h1v1h-1z" /><path fill="#317eef" d="M32 41h36v1h-36zM32 42h6v1h-6z" /><path fill="#d1e2fc" d="M73 41h1v1h-1zM66 68h1v1h-1z" /><path fill="#5a94f4" d="M16 42h1v1h-1zM0 49h1v1h-1z" /><path fill="#1a6cdb" d="M17 42h1v1h-1z" /><path fill="#dde9fa" d="M26 42h1v1h-1z" /><path fill="#4c8ff1" d="M31 42h1v1h-1z" /><path fill="#317def" d="M38 42h30v1h-30zM31 43h38v1h-38z" /><path fill="#4e8ff1" d="M68 42h1v1h-1z" /><path fill="#f1f6fe" d="M73 42h1v1h-1z" /><path fill="#5c96f6" d="M0 43h17v1h-17z" /><path fill="#3981e8" d="M17 43h1v1h-1z" /><path fill="#196cdc" d="M18 43h7v1h-7zM19 44h6v1h-6z" /><path fill="#347de0" d="M25 43h1v1h-1z" /><path fill="#b0cdfb" d="M74 43h1v1h-1z" /><path fill="#a6c6fa" d="M75 43h24v1h-24zM75 44h24v1h-24z" /><path fill="#a6c6f9" d="M99 43h1v1h-1z" /><path fill="#5c95f4" d="M0 44h1v1h-1z" /><path fill="#5c96f5" d="M1 44h16v1h-16z" /><path fill="#5b95f5" d="M17 44h1v1h-1zM1 46h17v1h-17zM1 47h18v1h-18z" /><path fill="#1d6fdd" d="M18 44h1v1h-1z" /><path fill="#70a4e9" d="M25 44h1v1h-1z" /><path fill="#8db8f6" d="M30 44h1v1h-1z" /><path fill="#307def" d="M31 44h38v1h-38z" /><path fill="#c7dbfc" d="M74 44h1v1h-1z" /><path fill="#a5c6fa" d="M99 44h1v1h-1zM75 45h24v1h-24z" /><path fill="#5a95f4" d="M0 45h1v1h-1zM0 48h1v1h-1z" /><path fill="#5b96f5" d="M1 45h17v1h-17z" /><path fill="#4988ed" d="M18 45h1v1h-1z" /><path fill="#196cdb" d="M19 45h6v1h-6zM20 46h5v1h-5zM20 47h5v1h-5zM21 48h4v1h-4z" /><path fill="#9ec1f0" d="M25 45h1v1h-1z" /><path fill="#5997f1" d="M30 45h1v1h-1z" /><path fill="#307dee" d="M31 45h38v1h-38z" /><path fill="#5c99f2" d="M69 45h1v1h-1z" /><path fill="#d8e6fd" d="M74 45h1v1h-1zM67 67h1v1h-1z" /><path fill="#a5c5f9" d="M99 45h1v1h-1z" /><path fill="#5b94f4" d="M0 46h1v1h-1z" /><path fill="#5b95f4" d="M18 46h1v1h-1z" /><path fill="#2271de" d="M19 46h1v1h-1z" /><path fill="#c2d8f5" d="M25 46h1v1h-1zM25 53h1v1h-1z" /><path fill="#3480ee" d="M30 46h1v1h-1zM69 46h1v1h-1zM64 63h1v1h-1zM63 64h1v1h-1z" /><path fill="#2f7dee" d="M31 46h38v1h-38zM30 47h21v1h-21z" /><path fill="#e6effe" d="M74 46h1v1h-1z" /><path fill="#a5c5fa" d="M75 46h25v1h-25z" /><path fill="#5b94f5" d="M0 47h1v1h-1z" /><path fill="#5290f2" d="M19 47h1v1h-1z" /><path fill="#e0ebfa" d="M25 47h1v1h-1zM25 52h1v1h-1z" /><path fill="#e1ecfd" d="M29 47h1v1h-1zM29 52h1v1h-1z" /><path fill="#2f7cee" d="M51 47h19v1h-19zM30 48h40v1h-40z" /><path fill="#f2f7fe" d="M74 47h1v1h-1zM74 52h1v1h-1z" /><path fill="#a4c5fa" d="M75 47h24v1h-24zM75 48h24v1h-24z" /><path fill="#a4c4f9" d="M99 47h1v1h-1z" /><path fill="#5a95f5" d="M1 48h19v1h-19z" /><path fill="#2f79e3" d="M20 48h1v1h-1z" /><path fill="#eff5fc" d="M25 48h1v1h-1zM25 51h1v1h-1z" /><path fill="#f8faff" d="M74 48h1v1h-1zM74 51h1v1h-1z" /><path fill="#a4c5f9" d="M99 48h1v1h-1z" /><path fill="#5a94f5" d="M1 49h19v1h-19z" /><path fill="#5893f4" d="M20 49h1v1h-1z" /><path fill="#1b6ddb" d="M21 49h1v1h-1z" /><path fill="#196cda" d="M22 49h3v1h-3zM22 50h3v1h-3z" /><path fill="#c2d9fa" d="M29 49h1v1h-1zM29 50h1v1h-1zM49 70h2v1h-2z" /><path fill="#2e7cee" d="M30 49h40v1h-40zM30 50h40v1h-40z" /><path fill="#c3d9fa" d="M70 49h1v1h-1zM70 50h1v1h-1z" /><path fill="#a3c4fa" d="M75 49h24v1h-24zM75 50h24v1h-24zM58 73h1v1h-1z" /><path fill="#a2c4f9" d="M99 49h1v1h-1z" /><path fill="#5994f4" d="M0 50h1v1h-1z" /><path fill="#5994f5" d="M1 50h20v1h-20zM0 51h21v1h-21zM31 67h1v1h-1zM32 68h1v1h-1z" /><path fill="#3c82e9" d="M21 50h1v1h-1z" /><path fill="#a3c4f9" d="M99 50h1v1h-1z" /><path fill="#5893f5" d="M21 51h1v1h-1zM0 53h22v1h-22z" /><path fill="#1e6edc" d="M22 51h1v1h-1z" /><path fill="#196bda" d="M23 51h2v1h-2zM23 52h1v1h-1z" /><path fill="#cde0fb" d="M29 51h1v1h-1zM30 56h1v1h-1z" /><path fill="#2d7cee" d="M30 51h40v1h-40zM30 52h34v1h-34z" /><path fill="#cee1fb" d="M70 51h1v1h-1zM56 69h1v1h-1z" /><path fill="#a2c4fa" d="M75 51h24v1h-24zM75 52h24v1h-24z" /><path fill="#a1c4f9" d="M99 51h1v1h-1z" /><path fill="#5793f4" d="M0 52h1v1h-1zM0 54h1v1h-1zM0 55h1v1h-1z" /><path fill="#5894f5" d="M1 52h21v1h-21z" /><path fill="#488aed" d="M22 52h1v1h-1z" /><path fill="#196bd9" d="M24 52h1v1h-1zM24 53h1v1h-1zM24 54h1v1h-1z" /><path fill="#2d7bee" d="M64 52h6v1h-6zM31 53h38v1h-38z" /><path fill="#a1c4fa" d="M99 52h1v1h-1z" /><path fill="#5892f4" d="M22 53h1v1h-1z" /><path fill="#2672de" d="M23 53h1v1h-1z" /><path fill="#327eee" d="M30 53h1v1h-1zM69 53h1v1h-1z" /><path fill="#fdfdff" d="M70 53h1v1h-1z" /><path fill="#e5eefe" d="M74 53h1v1h-1zM47 74h1v1h-1zM52 74h1v1h-1z" /><path fill="#a1c3fa" d="M75 53h25v1h-25zM75 54h24v1h-24z" /><path fill="#5793f5" d="M1 54h22v1h-22zM1 55h23v1h-23z" /><path fill="#518ff2" d="M23 54h1v1h-1z" /><path fill="#9ec1ef" d="M25 54h1v1h-1z" /><path fill="#5796f1" d="M30 54h1v1h-1z" /><path fill="#2c7bee" d="M31 54h38v1h-38z" /><path fill="#5997f2" d="M69 54h1v1h-1z" /><path fill="#a1c3f9" d="M99 54h1v1h-1z" /><path fill="#3179e4" d="M24 55h1v1h-1z" /><path fill="#70a3e7" d="M25 55h1v1h-1z" /><path fill="#8cb7f5" d="M30 55h1v1h-1z" /><path fill="#2c7bed" d="M31 55h38v1h-38z" /><path fill="#90baf6" d="M69 55h1v1h-1z" /><path fill="#c3d9fc" d="M74 55h1v1h-1z" /><path fill="#a0c3fa" d="M75 55h24v1h-24z" /><path fill="#a0c2fa" d="M99 55h1v1h-1zM75 56h24v1h-24z" /><path fill="#5692f5" d="M0 56h24v1h-24zM1 57h24v1h-24z" /><path fill="#5391f3" d="M24 56h1v1h-1z" /><path fill="#357ddd" d="M25 56h1v1h-1z" /><path fill="#2b7bed" d="M31 56h38v1h-38zM32 57h36v1h-36z" /><path fill="#9fc1f9" d="M99 56h1v1h-1z" /><path fill="#3e83e8" d="M25 57h1v1h-1z" /><path fill="#dce8f9" d="M26 57h1v1h-1z" /><path fill="#488def" d="M31 57h1v1h-1z" /><path fill="#498ef0" d="M68 57h1v1h-1z" /><path fill="#eff5fe" d="M73 57h1v1h-1z" /><path fill="#9fc2fa" d="M74 57h25v1h-25zM74 58h25v1h-25z" /><path fill="#5592f5" d="M1 58h24v1h-24z" /><path fill="#5591f5" d="M25 58h1v1h-1zM1 59h25v1h-25zM30 66h1v1h-1z" /><path fill="#93b9ee" d="M26 58h1v1h-1z" /><path fill="#a3c5f7" d="M31 58h1v1h-1zM58 68h1v1h-1z" /><path fill="#2b7aed" d="M32 58h36v1h-36z" /><path fill="#a4c6f7" d="M68 58h1v1h-1z" /><path fill="#659bf1" d="M26 59h1v1h-1z" /><path fill="#3e87ef" d="M32 59h1v1h-1zM34 62h1v1h-1z" /><path fill="#2a7aed" d="M33 59h34v1h-34zM33 60h34v1h-34zM34 61h5v1h-5z" /><path fill="#3f87ef" d="M67 59h1v1h-1z" /><path fill="#9ec1fa" d="M74 59h25v1h-25zM73 60h25v1h-25z" /><path fill="#5490f4" d="M1 60h1v1h-1zM52 95h1v1h-1z" /><path fill="#5491f5" d="M2 60h24v1h-24zM2 61h25v1h-25zM2 62h26v1h-26zM33 69h1v1h-1z" /><path fill="#5391f4" d="M26 60h1v1h-1zM56 88h1v1h-1z" /><path fill="#c0d6f5" d="M27 60h1v1h-1z" /><path fill="#b0cef8" d="M32 60h1v1h-1zM39 67h1v1h-1z" /><path fill="#deeafd" d="M72 60h1v1h-1z" /><path fill="#9ec0fa" d="M98 60h1v1h-1z" /><path fill="#5390f5" d="M1 61h1v1h-1zM2 63h26v1h-26zM3 64h26v1h-26zM66 69h1v1h-1z" /><path fill="#76a7f5" d="M27 61h1v1h-1z" /><path fill="#649ff2" d="M33 61h1v1h-1z" /><path fill="#297aed" d="M39 61h27v1h-27zM35 62h30v1h-30z" /><path fill="#65a0f2" d="M66 61h1v1h-1z" /><path fill="#9dc1fa" d="M73 61h25v1h-25z" /><path fill="#9cc0fa" d="M98 61h1v1h-1z" /><path fill="#4088ef" d="M65 62h1v1h-1z" /><path fill="#d4e3fc" d="M71 62h1v1h-1z" /><path fill="#9dc0f9" d="M72 62h26v1h-26zM81 63h16v1h-16z" /><path fill="#d8e7fc" d="M34 63h1v1h-1z" /><path fill="#3681ee" d="M35 63h1v1h-1z" /><path fill="#2979ed" d="M36 63h28v1h-28z" /><path fill="#d5e5fb" d="M65 63h1v1h-1zM63 65h1v1h-1z" /><path fill="#f3f7ff" d="M70 63h1v1h-1z" /><path fill="#9bbff9" d="M71 63h1v1h-1zM97 64h1v1h-1zM70 66h27v1h-27zM70 67h26v1h-26z" /><path fill="#9cc0f9" d="M72 63h9v1h-9zM71 64h26v1h-26zM71 65h26v1h-26z" /><path fill="#9cbff8" d="M97 63h1v1h-1z" /><path fill="#5290f5" d="M2 64h1v1h-1zM3 65h27v1h-27z" /><path fill="#8cb5f8" d="M29 64h1v1h-1zM35 70h1v1h-1zM67 96h1v1h-1zM52 98h8v1h-8z" /><path fill="#c9ddfa" d="M35 64h1v1h-1zM64 64h1v1h-1z" /><path fill="#3380ee" d="M36 64h1v1h-1z" /><path fill="#2879ed" d="M37 64h26v1h-26z" /><path fill="#5190f5" d="M2 65h1v1h-1z" /><path fill="#d4e4fb" d="M36 65h1v1h-1z" /><path fill="#3e87ee" d="M37 65h1v1h-1z" /><path fill="#2879ec" d="M38 65h24v1h-24zM39 66h13v1h-13z" /><path fill="#3f87ee" d="M62 65h1v1h-1z" /><path fill="#bad3fa" d="M69 65h1v1h-1z" /><path fill="#99bef9" d="M70 65h1v1h-1zM68 70h28v1h-28zM67 71h27v1h-27z" /><path fill="#9cbff9" d="M97 65h1v1h-1z" /><path fill="#528ff5" d="M3 66h27v1h-27z" /><path fill="#cedffc" d="M31 66h1v1h-1zM33 68h1v1h-1zM53 74h1v1h-1z" /><path fill="#639ef1" d="M38 66h1v1h-1z" /><path fill="#2779ec" d="M52 66h9v1h-9zM41 67h18v1h-18z" /><path fill="#649ff1" d="M61 66h1v1h-1z" /><path fill="#edf4fd" d="M62 66h1v1h-1z" /><path fill="#d2e2fc" d="M68 66h1v1h-1z" /><path fill="#7eacf7" d="M69 66h1v1h-1z" /><path fill="#508ef4" d="M3 67h1v1h-1zM65 72h1v1h-1z" /><path fill="#518ff5" d="M4 67h27v1h-27zM4 68h28v1h-28z" /><path fill="#d9e6fd" d="M32 67h1v1h-1z" /><path fill="#3b86ee" d="M40 67h1v1h-1z" /><path fill="#3c86ee" d="M59 67h1v1h-1z" /><path fill="#b2cff8" d="M60 67h1v1h-1z" /><path fill="#6097f5" d="M68 67h1v1h-1z" /><path fill="#99bef8" d="M69 67h1v1h-1zM94 71h1v1h-1z" /><path fill="#9abef8" d="M96 67h1v1h-1zM95 69h1v1h-1z" /><path fill="#a2c5f7" d="M41 68h1v1h-1z" /><path fill="#458bef" d="M42 68h1v1h-1zM57 68h1v1h-1z" /><path fill="#2778ec" d="M43 68h14v1h-14z" /><path fill="#5995f5" d="M67 68h1v1h-1z" /><path fill="#89b2f7" d="M68 68h1v1h-1z" /><path fill="#9abff9" d="M69 68h27v1h-27z" /><path fill="#4f8ef4" d="M4 69h1v1h-1z" /><path fill="#508ef5" d="M5 69h28v1h-28zM5 70h30v1h-30zM65 70h1v1h-1z" /><path fill="#b8d1fb" d="M34 69h1v1h-1z" /><path fill="#8bb7f5" d="M44 69h1v1h-1z" /><path fill="#5495f0" d="M45 69h1v1h-1zM54 69h1v1h-1z" /><path fill="#2b7bec" d="M46 69h1v1h-1z" /><path fill="#2678ec" d="M47 69h6v1h-6z" /><path fill="#2c7ced" d="M53 69h1v1h-1z" /><path fill="#8cb8f5" d="M55 69h1v1h-1z" /><path fill="#b6d0fb" d="M65 69h1v1h-1z" /><path fill="#5e98f7" d="M67 69h1v1h-1z" /><path fill="#9abef9" d="M68 69h27v1h-27z" /><path fill="#508df4" d="M4 70h1v1h-1z" /><path fill="#e1ecfc" d="M47 70h1v1h-1zM52 70h1v1h-1z" /><path fill="#8ab4f8" d="M64 70h1v1h-1z" /><path fill="#4f8ef5" d="M66 70h1v1h-1zM6 71h30v1h-30zM64 71h2v1h-2z" /><path fill="#92b8f9" d="M67 70h1v1h-1z" /><path fill="#4e8ef4" d="M5 71h1v1h-1z" /><path fill="#5b96f6" d="M36 71h1v1h-1z" /><path fill="#bfd6fb" d="M62 71h1v1h-1z" /><path fill="#6ba2f5" d="M66 71h1v1h-1z" /><path fill="#4e8df5" d="M5 72h1v1h-1zM7 73h33v1h-33zM60 73h5v1h-5zM7 74h36v1h-36zM57 74h7v1h-7z" /><path fill="#4f8df5" d="M6 72h32v1h-32zM62 72h3v1h-3z" /><path fill="#6ea1f7" d="M38 72h1v1h-1z" /><path fill="#bfd5fb" d="M39 72h1v1h-1z" /><path fill="#cbddfc" d="M60 72h1v1h-1z" /><path fill="#72a4f7" d="M61 72h1v1h-1z" /><path fill="#96bcf8" d="M66 72h1v1h-1z" /><path fill="#98bdf9" d="M67 72h27v1h-27zM66 73h27v1h-27z" /><path fill="#97bdf8" d="M94 72h1v1h-1z" /><path fill="#4e8df4" d="M6 73h1v1h-1z" /><path fill="#a4c4fa" d="M41 73h1v1h-1z" /><path fill="#e3edfd" d="M42 73h1v1h-1z" /><path fill="#639af6" d="M59 73h1v1h-1z" /><path fill="#7cabf7" d="M65 73h1v1h-1z" /><path fill="#97bcf8" d="M93 73h1v1h-1z" /><path fill="#4e8cf4" d="M6 74h1v1h-1z" /><path fill="#8fb7f9" d="M44 74h1v1h-1zM55 74h1v1h-1z" /><path fill="#cee0fc" d="M46 74h1v1h-1z" /><path fill="#fbfcff" d="M49 74h2v1h-2z" /><path fill="#619af6" d="M56 74h1v1h-1z" /><path fill="#5490f6" d="M64 74h1v1h-1z" /><path fill="#97bdf9" d="M65 74h28v1h-28zM68 75h24v1h-24z" /><path fill="#96bcf9" d="M93 74h1v1h-1zM92 75h1v1h-1zM64 76h28v1h-28zM64 77h27v1h-27z" /><path fill="#4d8cf4" d="M7 75h1v1h-1z" /><path fill="#4d8df5" d="M8 75h55v1h-55z" /><path fill="#4d8df4" d="M63 75h1v1h-1z" /><path fill="#87b2f6" d="M64 75h1v1h-1z" /><path fill="#97bcf9" d="M65 75h3v1h-3z" /><path fill="#4d8cf5" d="M8 76h55v1h-55zM9 77h54v1h-54z" /><path fill="#4d8bf5" d="M8 77h1v1h-1z" /><path fill="#91b7f8" d="M63 77h1v1h-1z" /><path fill="#96bbf9" d="M91 77h1v1h-1z" /><path fill="#4b8cf5" d="M9 78h1v1h-1z" /><path fill="#4c8cf5" d="M10 78h52v1h-52z" /><path fill="#6da2f7" d="M62 78h1v1h-1z" /><path fill="#95bcf9" d="M63 78h27v1h-27z" /><path fill="#94bbf8" d="M90 78h1v1h-1z" /><path fill="#4c8af4" d="M10 79h1v1h-1z" /><path fill="#4c8bf5" d="M11 79h50v1h-50z" /><path fill="#4e8cf5" d="M61 79h1v1h-1z" /><path fill="#94b9f8" d="M62 79h1v1h-1z" /><path fill="#95bbf9" d="M63 79h26v1h-26z" /><path fill="#94baf8" d="M89 79h1v1h-1z" /><path fill="#4a8bf4" d="M10 80h1v1h-1z" /><path fill="#4b8bf5" d="M11 80h50v1h-50z" /><path fill="#7baaf7" d="M61 80h1v1h-1z" /><path fill="#94bbf9" d="M62 80h27v1h-27zM61 81h27v1h-27z" /><path fill="#93baf9" d="M89 80h1v1h-1zM61 82h26v1h-26zM60 83h27v1h-27z" /><path fill="#4b8af3" d="M11 81h1v1h-1z" /><path fill="#4b8bf4" d="M12 81h48v1h-48z" /><path fill="#5491f3" d="M60 81h1v1h-1z" /><path fill="#93baf8" d="M88 81h1v1h-1z" /><path fill="#4a8af4" d="M12 82h47v1h-47zM14 83h45v1h-45z" /><path fill="#498af3" d="M59 82h1v1h-1z" /><path fill="#88b2f8" d="M60 82h1v1h-1z" /><path fill="#93b9f9" d="M87 82h1v1h-1z" /><path fill="#4a89f3" d="M13 83h1v1h-1z" /><path fill="#4889f4" d="M14 84h1v1h-1zM17 86h40v1h-40zM18 87h38v1h-38z" /><path fill="#498af4" d="M15 84h43v1h-43z" /><path fill="#498bf4" d="M58 84h1v1h-1z" /><path fill="#8db7f7" d="M59 84h1v1h-1z" /><path fill="#92baf9" d="M60 84h25v1h-25z" /><path fill="#92baf8" d="M85 84h1v1h-1z" /><path fill="#4989f4" d="M15 85h43v1h-43z" /><path fill="#6fa2f7" d="M58 85h1v1h-1z" /><path fill="#92b9f9" d="M59 85h25v1h-25z" /><path fill="#91b8f8" d="M84 85h1v1h-1zM82 87h1v1h-1z" /><path fill="#4788f3" d="M16 86h1v1h-1zM18 88h1v1h-1z" /><path fill="#4c8bf4" d="M57 86h1v1h-1z" /><path fill="#91b9f8" d="M58 86h1v1h-1zM58 87h24v1h-24zM57 88h24v1h-24z" /><path fill="#91b9f9" d="M59 86h24v1h-24z" /><path fill="#90b9f9" d="M83 86h1v1h-1z" /><path fill="#4789f4" d="M17 87h1v1h-1zM19 88h37v1h-37z" /><path fill="#4888f3" d="M56 87h1v1h-1z" /><path fill="#7caaf6" d="M57 87h1v1h-1z" /><path fill="#90b9f8" d="M81 88h1v1h-1z" /><path fill="#4688f3" d="M20 89h1v1h-1zM55 89h1v1h-1z" /><path fill="#4788f4" d="M21 89h34v1h-34z" /><path fill="#85b1f7" d="M56 89h1v1h-1zM52 96h1v1h-1z" /><path fill="#90b8f8" d="M57 89h22v1h-22zM56 90h22v1h-22z" /><path fill="#8fb7f7" d="M79 89h1v1h-1z" /><path fill="#90b8f7" d="M80 89h1v1h-1z" /><path fill="#4587f4" d="M21 90h1v1h-1zM27 93h26v1h-26zM29 94h23v1h-23z" /><path fill="#4688f4" d="M22 90h33v1h-33zM23 91h31v1h-31z" /><path fill="#90b7f7" d="M78 90h1v1h-1z" /><path fill="#4588f4" d="M22 91h1v1h-1z" /><path fill="#4689f3" d="M54 91h1v1h-1z" /><path fill="#8bb7f8" d="M55 91h1v1h-1z" /><path fill="#8fb8f8" d="M56 91h21v1h-21z" /><path fill="#8fb7f8" d="M77 91h1v1h-1zM55 92h20v1h-20z" /><path fill="#4587f3" d="M24 92h1v1h-1zM26 93h1v1h-1zM28 94h1v1h-1z" /><path fill="#4687f4" d="M25 92h29v1h-29z" /><path fill="#6fa1f4" d="M54 92h1v1h-1z" /><path fill="#8eb6f8" d="M75 92h1v1h-1z" /><path fill="#4486f4" d="M25 93h1v1h-1zM31 95h21v1h-21zM33 96h18v1h-18z" /><path fill="#4a8af3" d="M53 93h1v1h-1z" /><path fill="#8eb7f8" d="M54 93h19v1h-19zM54 94h17v1h-17z" /><path fill="#8db6f7" d="M73 93h1v1h-1z" /><path fill="#8eb6f7" d="M74 93h1v1h-1z" /><path fill="#4487f4" d="M27 94h1v1h-1z" /><path fill="#4487f3" d="M52 94h1v1h-1z" /><path fill="#7dabf6" d="M53 94h1v1h-1z" /><path fill="#8eb7f7" d="M71 94h1v1h-1z" /><path fill="#8db6f8" d="M72 94h1v1h-1zM53 95h16v1h-16zM53 96h14v1h-14z" /><path fill="#4385f3" d="M29 95h1v1h-1zM32 96h1v1h-1z" /><path fill="#4386f3" d="M30 95h1v1h-1z" /><path fill="#8cb5f7" d="M69 95h1v1h-1zM64 97h2v1h-2z" /><path fill="#8db5f8" d="M70 95h1v1h-1z" /><path fill="#4586f4" d="M51 96h1v1h-1z" /><path fill="#4286f3" d="M34 97h1v1h-1z" /><path fill="#4285f4" d="M35 97h1v1h-1zM45 99h1v1h-1z" /><path fill="#4386f4" d="M36 97h15v1h-15z" /><path fill="#8cb6f8" d="M52 97h12v1h-12z" /><path fill="#4285f3" d="M38 98h1v1h-1z" /><path fill="#4284f3" d="M39 98h1v1h-1zM43 99h1v1h-1zM46 99h1v1h-1z" /><path fill="#4385f4" d="M40 98h10v1h-10z" /><path fill="#4485f4" d="M50 98h1v1h-1z" /><path fill="#89b4f7" d="M51 98h1v1h-1z" /><path fill="#8bb4f8" d="M60 98h1v1h-1zM54 99h1v1h-1z" /><path fill="#8bb5f7" d="M61 98h1v1h-1z" /><path fill="#4284f4" d="M44 99h1v1h-1z" /><path fill="#4184f3" d="M47 99h1v1h-1z" /><path fill="#4185f4" d="M48 99h1v1h-1z" /><path fill="#4185f3" d="M49 99h1v1h-1z" /><path fill="#6ea3f7" d="M50 99h1v1h-1z" /><path fill="#8ab4f7" d="M51 99h1v1h-1zM56 99h1v1h-1z" /><path fill="#8ab5f8" d="M52 99h1v1h-1z" /><path fill="#8ab5f7" d="M53 99h1v1h-1zM55 99h1v1h-1z" /></svg>