<svg xmlns="http://www.w3.org/2000/svg" viewBox="0 0 100 100" width="1em" height="1em"><path fill="#df382b" d="M43 0h1v1h-1z" /><path fill="#e0382c" d="M44 0h1v1h-1zM42 1h3v1h-3zM42 2h3v1h-3zM42 3h3v1h-3zM42 4h3v1h-3zM42 5h3v1h-3zM42 6h3v1h-3zM42 7h3v1h-3zM42 8h3v1h-3zM42 9h3v1h-3zM42 10h3v1h-3zM42 11h3v1h-3zM42 12h3v1h-3zM42 13h3v1h-3zM42 14h3v1h-3zM42 15h3v1h-3zM42 16h3v1h-3zM42 17h3v1h-3zM42 18h3v1h-3zM42 19h3v1h-3zM42 20h3v1h-3zM42 21h3v1h-3zM42 22h3v1h-3zM42 23h3v1h-3zM42 24h3v1h-3zM42 25h1v1h-1z" /><path fill="#e1382c" d="M45 0h1v1h-1zM48 0h1v1h-1z" /><path fill="#e1382b" d="M46 0h1v1h-1z" /><path fill="#e1382d" d="M47 0h1v1h-1z" /><path fill="#e1392d" d="M49 0h1v1h-1zM47 1h3v1h-3zM47 2h3v1h-3zM47 3h3v1h-3zM47 4h3v1h-3zM47 5h3v1h-3zM47 6h3v1h-3zM47 7h3v1h-3zM47 8h3v1h-3zM47 9h3v1h-3zM47 10h3v1h-3zM47 11h3v1h-3zM47 12h3v1h-3zM47 13h3v1h-3zM47 14h3v1h-3zM47 15h3v1h-3zM47 16h3v1h-3zM47 17h3v1h-3zM47 18h3v1h-3zM47 19h3v1h-3zM47 20h3v1h-3zM47 21h3v1h-3zM47 22h3v1h-3zM47 23h3v1h-3zM47 24h3v1h-3z" /><path fill="#e23a2d" d="M50 0h1v1h-1zM55 0h1v1h-1zM50 1h3v1h-3zM50 2h3v1h-3zM50 3h3v1h-3zM50 4h3v1h-3zM50 5h3v1h-3zM50 6h3v1h-3zM50 7h3v1h-3zM50 8h3v1h-3zM50 9h3v1h-3zM50 10h3v1h-3zM50 11h3v1h-3zM50 12h3v1h-3zM50 13h3v1h-3zM50 14h3v1h-3zM50 15h3v1h-3zM50 16h3v1h-3zM50 17h3v1h-3zM50 18h3v1h-3zM50 19h3v1h-3zM50 20h3v1h-3zM50 21h3v1h-3zM50 22h3v1h-3zM50 23h3v1h-3zM50 24h3v1h-3z" /><path fill="#e2392c" d="M51 0h1v1h-1z" /><path fill="#e2392d" d="M52 0h1v1h-1z" /><path fill="#e2392e" d="M53 0h1v1h-1z" /><path fill="#e23a2e" d="M54 0h1v1h-1zM53 1h2v1h-2zM53 2h2v1h-2zM53 3h2v1h-2zM53 4h2v1h-2zM53 5h2v1h-2zM53 6h2v1h-2zM53 7h2v1h-2zM53 8h2v1h-2zM53 9h2v1h-2zM53 10h2v1h-2zM53 11h2v1h-2zM53 12h2v1h-2zM53 13h2v1h-2zM53 14h2v1h-2zM53 15h2v1h-2zM53 16h2v1h-2zM53 17h2v1h-2zM53 18h2v1h-2zM53 19h2v1h-2zM53 20h2v1h-2zM53 21h2v1h-2zM53 22h2v1h-2zM53 23h2v1h-2zM53 24h2v1h-2z" /><path fill="#e33b2d" d="M56 0h1v1h-1z" /><path fill="#df372a" d="M38 1h1v1h-1z" /><path fill="#de362b" d="M39 1h1v1h-1z" /><path fill="#e0372b" d="M40 1h1v1h-1zM40 2h1v1h-1zM40 3h1v1h-1zM40 4h1v1h-1zM40 5h1v1h-1zM40 6h1v1h-1zM40 7h1v1h-1zM40 8h1v1h-1zM40 9h1v1h-1zM40 10h1v1h-1zM40 11h1v1h-1zM40 12h1v1h-1zM40 13h1v1h-1zM40 14h1v1h-1zM40 15h1v1h-1zM40 16h1v1h-1zM40 17h1v1h-1zM40 18h1v1h-1zM40 19h1v1h-1zM40 20h1v1h-1zM40 21h1v1h-1zM40 22h1v1h-1zM40 23h1v1h-1zM40 24h1v1h-1zM40 25h1v1h-1z" /><path fill="#e0382b" d="M41 1h1v1h-1zM41 2h1v1h-1zM41 3h1v1h-1zM41 4h1v1h-1zM41 5h1v1h-1zM41 6h1v1h-1zM41 7h1v1h-1zM41 8h1v1h-1zM41 9h1v1h-1zM41 10h1v1h-1zM41 11h1v1h-1zM41 12h1v1h-1zM41 13h1v1h-1zM41 14h1v1h-1zM41 15h1v1h-1zM41 16h1v1h-1zM41 17h1v1h-1zM41 18h1v1h-1zM41 19h1v1h-1zM41 20h1v1h-1zM41 21h1v1h-1zM41 22h1v1h-1zM41 23h1v1h-1zM41 24h1v1h-1zM41 25h1v1h-1z" /><path fill="#e1392c" d="M45 1h2v1h-2zM45 2h2v1h-2zM45 3h2v1h-2zM45 4h2v1h-2zM45 5h2v1h-2zM45 6h2v1h-2zM45 7h2v1h-2zM45 8h2v1h-2zM45 9h2v1h-2zM45 10h2v1h-2zM45 11h2v1h-2zM45 12h2v1h-2zM45 13h2v1h-2zM45 14h2v1h-2zM45 15h2v1h-2zM45 16h2v1h-2zM45 17h2v1h-2zM45 18h2v1h-2zM45 19h2v1h-2zM45 20h2v1h-2zM45 21h2v1h-2zM45 22h2v1h-2zM45 23h2v1h-2zM45 24h2v1h-2z" /><path fill="#e33b2e" d="M55 1h3v1h-3zM55 2h3v1h-3zM55 3h3v1h-3zM55 4h3v1h-3zM55 5h3v1h-3zM55 6h3v1h-3zM55 7h3v1h-3zM55 8h3v1h-3zM55 9h3v1h-3zM55 10h3v1h-3zM55 11h3v1h-3zM55 12h3v1h-3zM55 13h3v1h-3zM55 14h3v1h-3zM55 15h3v1h-3zM55 16h3v1h-3zM55 17h3v1h-3zM55 18h3v1h-3zM55 19h3v1h-3zM55 20h3v1h-3zM55 21h3v1h-3zM55 22h3v1h-3zM55 23h3v1h-3zM55 24h3v1h-3z" /><path fill="#e33b2f" d="M58 1h1v1h-1zM60 1h1v1h-1zM58 2h1v1h-1zM58 3h1v1h-1zM58 4h1v1h-1zM58 5h1v1h-1zM58 6h1v1h-1zM58 7h1v1h-1zM58 8h1v1h-1zM58 9h1v1h-1zM58 10h1v1h-1zM58 11h1v1h-1zM58 12h1v1h-1zM58 13h1v1h-1zM58 14h1v1h-1zM58 15h1v1h-1zM58 16h1v1h-1zM58 17h1v1h-1zM58 18h1v1h-1zM58 19h1v1h-1zM58 20h1v1h-1zM58 21h1v1h-1zM58 22h1v1h-1zM58 23h1v1h-1zM58 24h1v1h-1z" /><path fill="#e33c2f" d="M59 1h1v1h-1zM59 2h1v1h-1zM59 3h1v1h-1zM59 4h1v1h-1zM59 5h1v1h-1zM59 6h1v1h-1zM59 7h1v1h-1zM59 8h1v1h-1zM59 9h1v1h-1zM59 10h1v1h-1zM59 11h1v1h-1zM59 12h1v1h-1zM59 13h1v1h-1zM59 14h1v1h-1zM59 15h1v1h-1zM59 16h1v1h-1zM59 17h1v1h-1zM59 18h1v1h-1zM59 19h1v1h-1zM59 20h1v1h-1zM59 21h1v1h-1zM59 22h1v1h-1zM59 23h1v1h-1zM59 24h1v1h-1z" /><path fill="#e43b2f" d="M61 1h1v1h-1z" /><path fill="#de3629" d="M34 2h1v1h-1z" /><path fill="#de362a" d="M35 2h1v1h-1zM33 3h2v1h-2zM32 4h3v1h-3zM32 5h3v1h-3zM32 6h3v1h-3zM32 7h3v1h-3zM32 8h3v1h-3zM32 9h3v1h-3zM32 10h3v1h-3zM32 11h3v1h-3zM32 12h3v1h-3zM32 13h3v1h-3zM32 14h3v1h-3zM32 15h3v1h-3zM32 16h3v1h-3zM32 17h3v1h-3zM32 18h3v1h-3zM32 19h3v1h-3zM32 20h3v1h-3zM32 21h3v1h-3zM32 22h3v1h-3zM32 23h3v1h-3zM32 24h3v1h-3zM32 25h3v1h-3zM32 26h3v1h-3zM32 27h3v1h-3zM32 28h3v1h-3zM32 29h3v1h-3zM32 30h1v1h-1zM32 31h1v1h-1z" /><path fill="#df372b" d="M36 2h4v1h-4zM36 3h4v1h-4zM36 4h4v1h-4zM36 5h4v1h-4zM36 6h4v1h-4zM36 7h4v1h-4zM36 8h4v1h-4zM36 9h4v1h-4zM36 10h4v1h-4zM36 11h4v1h-4zM36 12h4v1h-4zM36 13h4v1h-4zM36 14h4v1h-4zM36 15h4v1h-4zM36 16h4v1h-4zM36 17h4v1h-4zM36 18h4v1h-4zM36 19h4v1h-4zM36 20h4v1h-4zM36 21h4v1h-4zM36 22h4v1h-4zM36 23h4v1h-4zM36 24h4v1h-4zM36 25h4v1h-4zM36 26h4v1h-4zM36 27h2v1h-2z" /><path fill="#e43c2f" d="M60 2h4v1h-4zM65 2h1v1h-1zM60 3h4v1h-4zM60 4h4v1h-4zM60 5h4v1h-4zM60 6h4v1h-4zM60 7h4v1h-4zM60 8h4v1h-4zM60 9h4v1h-4zM60 10h4v1h-4zM60 11h4v1h-4zM60 12h4v1h-4zM60 13h4v1h-4zM60 14h4v1h-4zM60 15h4v1h-4zM60 16h4v1h-4zM60 17h4v1h-4zM60 18h4v1h-4zM60 19h4v1h-4zM60 20h4v1h-4zM60 21h4v1h-4zM60 22h4v1h-4zM60 23h4v1h-4zM60 24h4v1h-4z" /><path fill="#e43c30" d="M64 2h1v1h-1z" /><path fill="#dd3529" d="M32 3h1v1h-1zM29 5h1v1h-1zM27 6h3v1h-3zM27 7h3v1h-3zM27 8h3v1h-3zM27 9h3v1h-3zM27 10h3v1h-3zM27 11h3v1h-3zM27 12h3v1h-3zM27 13h3v1h-3zM27 14h3v1h-3zM27 15h3v1h-3zM27 16h3v1h-3zM27 17h3v1h-3zM27 18h3v1h-3zM27 19h3v1h-3zM27 20h3v1h-3zM27 21h3v1h-3zM27 22h3v1h-3zM27 23h3v1h-3zM27 24h3v1h-3zM27 25h3v1h-3zM27 26h3v1h-3zM27 27h3v1h-3zM27 28h3v1h-3zM27 29h3v1h-3zM27 30h3v1h-3zM27 31h3v1h-3zM27 32h3v1h-3zM27 33h3v1h-3zM27 34h3v1h-3zM27 35h2v1h-2zM27 36h1v1h-1zM27 37h1v1h-1z" /><path fill="#df362a" d="M35 3h1v1h-1zM35 4h1v1h-1zM35 5h1v1h-1zM35 6h1v1h-1zM35 7h1v1h-1zM35 8h1v1h-1zM35 9h1v1h-1zM35 10h1v1h-1zM35 11h1v1h-1zM35 12h1v1h-1zM35 13h1v1h-1zM35 14h1v1h-1zM35 15h1v1h-1zM35 16h1v1h-1zM35 17h1v1h-1zM35 18h1v1h-1zM35 19h1v1h-1zM35 20h1v1h-1zM35 21h1v1h-1zM35 22h1v1h-1zM35 23h1v1h-1zM35 24h1v1h-1zM35 25h1v1h-1zM35 26h1v1h-1zM35 27h1v1h-1zM35 28h1v1h-1z" /><path fill="#e43d30" d="M64 3h1v1h-1zM64 4h1v1h-1zM64 5h1v1h-1zM64 6h1v1h-1zM64 7h1v1h-1zM64 8h1v1h-1zM64 9h1v1h-1zM64 10h1v1h-1zM64 11h1v1h-1zM64 12h1v1h-1zM64 13h1v1h-1zM64 14h1v1h-1zM64 15h1v1h-1zM64 16h1v1h-1zM64 17h1v1h-1zM64 18h1v1h-1zM64 19h1v1h-1zM64 20h1v1h-1zM64 21h1v1h-1zM64 22h1v1h-1zM64 23h1v1h-1zM64 24h1v1h-1z" /><path fill="#e53d30" d="M65 3h2v1h-2zM65 4h3v1h-3zM70 4h1v1h-1zM65 5h3v1h-3zM71 5h2v1h-2zM65 6h3v1h-3zM65 7h3v1h-3zM65 8h3v1h-3zM65 9h3v1h-3zM65 10h3v1h-3zM65 11h3v1h-3zM65 12h3v1h-3zM65 13h3v1h-3zM65 14h3v1h-3zM65 15h3v1h-3zM65 16h3v1h-3zM65 17h3v1h-3zM65 18h3v1h-3zM65 19h3v1h-3zM65 20h3v1h-3zM65 21h3v1h-3zM65 22h3v1h-3zM65 23h3v1h-3zM65 24h3v1h-3z" /><path fill="#e53d2f" d="M67 3h1v1h-1z" /><path fill="#dd3428" d="M29 4h1v1h-1zM26 6h1v1h-1zM25 7h1v1h-1zM25 8h1v1h-1zM25 9h1v1h-1zM25 10h1v1h-1zM25 11h1v1h-1zM25 12h1v1h-1zM25 13h1v1h-1zM25 14h1v1h-1zM25 15h1v1h-1zM25 16h1v1h-1zM25 17h1v1h-1zM25 18h1v1h-1zM25 19h1v1h-1zM25 20h1v1h-1zM25 21h1v1h-1zM25 22h1v1h-1zM25 23h1v1h-1zM25 24h1v1h-1zM25 25h1v1h-1zM25 26h1v1h-1zM25 27h1v1h-1zM25 28h1v1h-1zM25 29h1v1h-1zM25 30h1v1h-1zM25 31h1v1h-1zM25 32h1v1h-1zM25 33h1v1h-1zM25 34h1v1h-1zM25 35h1v1h-1zM25 36h1v1h-1zM25 37h1v1h-1zM25 38h1v1h-1zM25 39h1v1h-1zM25 40h1v1h-1zM25 41h1v1h-1zM25 42h1v1h-1z" /><path fill="#dd3528" d="M30 4h1v1h-1z" /><path fill="#de352a" d="M31 4h1v1h-1zM31 5h1v1h-1zM31 6h1v1h-1zM31 7h1v1h-1zM31 8h1v1h-1zM31 9h1v1h-1zM31 10h1v1h-1zM31 11h1v1h-1zM31 12h1v1h-1zM31 13h1v1h-1zM31 14h1v1h-1zM31 15h1v1h-1zM31 16h1v1h-1zM31 17h1v1h-1zM31 18h1v1h-1zM31 19h1v1h-1zM31 20h1v1h-1zM31 21h1v1h-1zM31 22h1v1h-1zM31 23h1v1h-1zM31 24h1v1h-1zM31 25h1v1h-1zM31 26h1v1h-1zM31 27h1v1h-1zM31 28h1v1h-1zM31 29h1v1h-1zM31 30h1v1h-1zM31 31h1v1h-1z" /><path fill="#e53e30" d="M68 4h1v1h-1zM68 5h1v1h-1zM68 6h1v1h-1zM68 7h1v1h-1zM68 8h1v1h-1zM68 9h1v1h-1zM68 10h1v1h-1zM68 11h1v1h-1zM68 12h1v1h-1zM68 13h1v1h-1zM68 14h1v1h-1zM68 15h1v1h-1zM68 16h1v1h-1zM68 17h1v1h-1zM68 18h1v1h-1zM68 19h1v1h-1zM68 20h1v1h-1zM68 21h1v1h-1zM68 22h1v1h-1zM68 23h1v1h-1zM68 24h1v1h-1z" /><path fill="#e53d31" d="M69 4h1v1h-1z" /><path fill="#dc3528" d="M27 5h1v1h-1z" /><path fill="#dc3429" d="M28 5h1v1h-1z" /><path fill="#de3529" d="M30 5h1v1h-1zM30 6h1v1h-1zM30 7h1v1h-1zM30 8h1v1h-1zM30 9h1v1h-1zM30 10h1v1h-1zM30 11h1v1h-1zM30 12h1v1h-1zM30 13h1v1h-1zM30 14h1v1h-1zM30 15h1v1h-1zM30 16h1v1h-1zM30 17h1v1h-1zM30 18h1v1h-1zM30 19h1v1h-1zM30 20h1v1h-1zM30 21h1v1h-1zM30 22h1v1h-1zM30 23h1v1h-1zM30 24h1v1h-1zM30 25h1v1h-1zM30 26h1v1h-1zM30 27h1v1h-1zM30 28h1v1h-1zM30 29h1v1h-1zM30 30h1v1h-1zM33 30h1v1h-1zM30 31h1v1h-1zM30 32h1v1h-1z" /><path fill="#e53e31" d="M69 5h1v1h-1zM69 6h1v1h-1zM69 7h1v1h-1zM69 8h1v1h-1zM69 9h1v1h-1zM69 10h1v1h-1zM69 11h1v1h-1zM69 12h1v1h-1zM69 13h1v1h-1zM69 14h1v1h-1zM69 15h1v1h-1zM69 16h1v1h-1zM69 17h1v1h-1zM69 18h1v1h-1zM69 19h1v1h-1zM69 20h1v1h-1zM69 21h1v1h-1zM69 22h1v1h-1zM69 23h1v1h-1zM69 24h1v1h-1z" /><path fill="#e63e31" d="M70 5h1v1h-1zM70 6h3v1h-3zM70 7h3v1h-3zM70 8h3v1h-3zM70 9h3v1h-3zM70 10h3v1h-3zM70 11h3v1h-3zM70 12h3v1h-3zM70 13h3v1h-3zM70 14h3v1h-3zM70 15h3v1h-3zM70 16h3v1h-3zM70 17h3v1h-3zM70 18h3v1h-3zM70 19h3v1h-3zM70 20h3v1h-3zM70 21h3v1h-3zM70 22h3v1h-3zM70 23h3v1h-3zM70 24h3v1h-3z" /><path fill="#dd3328" d="M25 6h1v1h-1z" /><path fill="#e63f31" d="M73 6h2v1h-2zM73 7h1v1h-1zM73 8h1v1h-1zM73 9h1v1h-1zM78 9h1v1h-1zM73 10h1v1h-1zM73 11h1v1h-1zM73 12h1v1h-1zM73 13h1v1h-1zM73 14h1v1h-1zM73 15h1v1h-1zM73 16h1v1h-1zM73 17h1v1h-1zM73 18h1v1h-1zM73 19h1v1h-1zM73 20h1v1h-1zM73 21h1v1h-1zM73 22h1v1h-1zM73 23h1v1h-1zM73 24h1v1h-1z" /><path fill="#db3428" d="M24 7h1v1h-1z" /><path fill="#dd3429" d="M26 7h1v1h-1zM26 8h1v1h-1zM26 9h1v1h-1zM26 10h1v1h-1zM26 11h1v1h-1zM26 12h1v1h-1zM26 13h1v1h-1zM26 14h1v1h-1zM26 15h1v1h-1zM26 16h1v1h-1zM26 17h1v1h-1zM26 18h1v1h-1zM26 19h1v1h-1zM26 20h1v1h-1zM26 21h1v1h-1zM26 22h1v1h-1zM26 23h1v1h-1zM26 24h1v1h-1zM26 25h1v1h-1zM26 26h1v1h-1zM26 27h1v1h-1zM26 28h1v1h-1zM26 29h1v1h-1zM26 30h1v1h-1zM26 31h1v1h-1zM26 32h1v1h-1zM26 33h1v1h-1zM30 33h1v1h-1zM26 34h1v1h-1zM26 35h1v1h-1zM26 36h1v1h-1zM26 37h1v1h-1zM26 38h1v1h-1zM26 39h1v1h-1z" /><path fill="#e63f32" d="M74 7h1v1h-1zM74 8h1v1h-1zM74 9h1v1h-1zM74 10h1v1h-1zM74 11h1v1h-1zM74 12h1v1h-1zM74 13h1v1h-1zM74 14h1v1h-1zM74 15h1v1h-1zM74 16h1v1h-1zM74 17h1v1h-1zM74 18h1v1h-1zM74 19h1v1h-1zM74 20h1v1h-1zM74 21h1v1h-1zM74 22h1v1h-1zM74 23h1v1h-1zM74 24h1v1h-1z" /><path fill="#e73f31" d="M75 7h1v1h-1z" /><path fill="#dc3328" d="M22 8h1v1h-1zM22 9h1v1h-1zM20 10h3v1h-3zM20 11h3v1h-3zM20 12h3v1h-3zM20 13h3v1h-3zM20 14h3v1h-3zM20 15h3v1h-3zM20 16h3v1h-3zM20 17h3v1h-3zM20 18h3v1h-3zM20 19h3v1h-3zM20 20h3v1h-3zM20 21h3v1h-3zM20 22h3v1h-3zM20 23h3v1h-3zM20 24h3v1h-3zM20 25h3v1h-3zM20 26h3v1h-3zM20 27h3v1h-3zM20 28h3v1h-3zM20 29h3v1h-3zM20 30h3v1h-3zM20 31h3v1h-3zM20 32h3v1h-3zM20 33h3v1h-3zM20 34h3v1h-3zM20 35h3v1h-3zM20 36h3v1h-3zM20 37h3v1h-3zM20 38h3v1h-3zM20 39h3v1h-3zM20 40h3v1h-3zM20 41h3v1h-3zM20 42h3v1h-3zM20 43h3v1h-3zM20 44h3v1h-3zM20 45h3v1h-3zM20 46h3v1h-3zM20 47h3v1h-3zM21 48h2v1h-2zM22 49h1v1h-1zM22 50h1v1h-1z" /><path fill="#dc3428" d="M23 8h2v1h-2zM23 9h2v1h-2zM23 10h2v1h-2zM23 11h2v1h-2zM23 12h2v1h-2zM23 13h2v1h-2zM23 14h2v1h-2zM23 15h2v1h-2zM23 16h2v1h-2zM23 17h2v1h-2zM23 18h2v1h-2zM23 19h2v1h-2zM23 20h2v1h-2zM23 21h2v1h-2zM23 22h2v1h-2zM23 23h2v1h-2zM23 24h2v1h-2zM23 25h2v1h-2zM23 26h2v1h-2zM23 27h2v1h-2zM23 28h2v1h-2zM23 29h2v1h-2zM23 30h2v1h-2zM23 31h2v1h-2zM23 32h2v1h-2zM23 33h2v1h-2zM23 34h2v1h-2zM23 35h2v1h-2zM23 36h2v1h-2zM23 37h2v1h-2zM23 38h2v1h-2zM23 39h2v1h-2zM23 40h2v1h-2zM23 41h2v1h-2zM23 42h2v1h-2zM23 43h2v1h-2zM23 44h2v1h-2zM23 45h2v1h-2zM23 46h2v1h-2zM23 47h2v1h-2zM23 48h2v1h-2zM23 49h2v1h-2zM23 50h2v1h-2zM23 51h2v1h-2zM23 52h2v1h-2zM24 53h1v1h-1zM24 54h1v1h-1z" /><path fill="#e73f32" d="M75 8h2v1h-2zM75 9h2v1h-2zM75 10h2v1h-2zM75 11h2v1h-2zM81 11h1v1h-1zM75 12h2v1h-2zM75 13h2v1h-2zM75 14h2v1h-2zM75 15h2v1h-2zM75 16h2v1h-2zM75 17h2v1h-2zM75 18h2v1h-2zM75 19h2v1h-2zM75 20h2v1h-2zM75 21h2v1h-2zM75 22h2v1h-2zM75 23h2v1h-2zM75 24h2v1h-2z" /><path fill="#e64031" d="M77 8h1v1h-1z" /><path fill="#db3327" d="M21 9h1v1h-1zM18 12h1v1h-1zM18 13h1v1h-1zM18 14h1v1h-1zM18 15h1v1h-1zM18 16h1v1h-1zM18 17h1v1h-1zM18 18h1v1h-1zM18 19h1v1h-1zM18 20h1v1h-1zM18 21h1v1h-1zM18 22h1v1h-1zM18 23h1v1h-1zM18 24h1v1h-1zM18 25h1v1h-1zM18 26h1v1h-1zM18 27h1v1h-1zM18 28h1v1h-1zM18 29h1v1h-1zM18 30h1v1h-1zM18 31h1v1h-1zM18 32h1v1h-1zM18 33h1v1h-1zM18 34h1v1h-1zM18 35h1v1h-1zM18 36h1v1h-1zM18 37h1v1h-1zM18 38h1v1h-1zM18 39h1v1h-1zM18 40h1v1h-1zM18 41h1v1h-1zM18 42h1v1h-1zM18 43h1v1h-1z" /><path fill="#e74032" d="M77 9h1v1h-1zM77 10h3v1h-3zM77 11h3v1h-3zM77 12h3v1h-3zM77 13h3v1h-3zM77 14h3v1h-3zM77 15h3v1h-3zM77 16h3v1h-3zM77 17h3v1h-3zM77 18h3v1h-3zM77 19h3v1h-3zM77 20h3v1h-3zM77 21h3v1h-3zM77 22h3v1h-3zM77 23h3v1h-3zM77 24h3v1h-3z" /><path fill="#dc3227" d="M19 10h1v1h-1z" /><path fill="#e74033" d="M80 10h1v1h-1zM80 11h1v1h-1zM80 12h1v1h-1zM80 13h1v1h-1zM80 14h1v1h-1zM80 15h1v1h-1zM80 16h1v1h-1zM80 17h1v1h-1zM80 18h1v1h-1zM80 19h1v1h-1zM80 20h1v1h-1zM80 21h1v1h-1zM80 22h1v1h-1zM80 23h1v1h-1zM80 24h1v1h-1z" /><path fill="#db3226" d="M18 11h1v1h-1zM14 16h1v1h-1zM14 17h1v1h-1zM14 18h1v1h-1zM14 19h1v1h-1zM14 20h1v1h-1zM14 21h1v1h-1zM14 22h1v1h-1zM14 23h1v1h-1zM14 24h1v1h-1zM14 25h1v1h-1zM14 26h1v1h-1zM14 27h1v1h-1zM14 28h1v1h-1zM14 29h1v1h-1zM14 30h1v1h-1zM14 31h1v1h-1zM14 32h1v1h-1zM14 33h1v1h-1zM14 34h1v1h-1zM14 35h1v1h-1zM14 36h1v1h-1z" /><path fill="#dc3327" d="M19 11h1v1h-1zM19 12h1v1h-1zM19 13h1v1h-1zM19 14h1v1h-1zM19 15h1v1h-1zM19 16h1v1h-1zM19 17h1v1h-1zM19 18h1v1h-1zM19 19h1v1h-1zM19 20h1v1h-1zM19 21h1v1h-1zM19 22h1v1h-1zM19 23h1v1h-1zM19 24h1v1h-1zM19 25h1v1h-1zM19 26h1v1h-1zM19 27h1v1h-1zM19 28h1v1h-1zM19 29h1v1h-1zM19 30h1v1h-1zM19 31h1v1h-1zM19 32h1v1h-1zM19 33h1v1h-1zM19 34h1v1h-1zM19 35h1v1h-1zM19 36h1v1h-1zM19 37h1v1h-1zM19 38h1v1h-1zM19 39h1v1h-1zM19 40h1v1h-1zM19 41h1v1h-1zM19 42h1v1h-1zM19 43h1v1h-1zM19 44h1v1h-1zM19 45h1v1h-1z" /><path fill="#db3227" d="M17 12h1v1h-1zM17 13h1v1h-1zM16 14h2v1h-2zM15 15h3v1h-3zM15 16h3v1h-3zM15 17h3v1h-3zM15 18h3v1h-3zM15 19h3v1h-3zM15 20h3v1h-3zM15 21h3v1h-3zM15 22h3v1h-3zM15 23h3v1h-3zM15 24h3v1h-3zM15 25h3v1h-3zM15 26h3v1h-3zM15 27h3v1h-3zM15 28h3v1h-3zM15 29h3v1h-3zM15 30h3v1h-3zM15 31h3v1h-3zM15 32h3v1h-3zM15 33h3v1h-3zM15 34h3v1h-3zM15 35h3v1h-3zM15 36h3v1h-3zM15 37h3v1h-3zM15 38h3v1h-3zM16 39h2v1h-2zM16 40h2v1h-2zM17 41h1v1h-1z" /><path fill="#e84033" d="M81 12h2v1h-2zM81 13h1v1h-1zM81 14h1v1h-1zM81 15h1v1h-1zM81 16h1v1h-1zM81 17h1v1h-1zM81 18h1v1h-1zM81 19h1v1h-1zM81 20h1v1h-1zM81 21h1v1h-1zM81 22h1v1h-1zM81 23h1v1h-1zM81 24h1v1h-1z" /><path fill="#db3127" d="M16 13h1v1h-1z" /><path fill="#e84133" d="M82 13h2v1h-2zM82 14h2v1h-2zM82 15h3v1h-3zM82 16h3v1h-3zM82 17h3v1h-3zM82 18h3v1h-3zM82 19h3v1h-3zM82 20h3v1h-3zM82 21h3v1h-3zM82 22h3v1h-3zM82 23h3v1h-3zM82 24h3v1h-3z" /><path fill="#db3126" d="M15 14h1v1h-1z" /><path fill="#e74132" d="M84 14h1v1h-1z" /><path fill="#db3125" d="M14 15h1v1h-1z" /><path fill="#e74133" d="M85 15h1v1h-1z" /><path fill="#da3025" d="M13 16h1v1h-1z" /><path fill="#e84134" d="M85 16h1v1h-1zM85 17h1v1h-1zM85 18h1v1h-1zM85 19h1v1h-1zM85 20h1v1h-1zM85 21h1v1h-1zM85 22h1v1h-1zM85 23h1v1h-1zM85 24h1v1h-1z" /><path fill="#e94133" d="M86 16h1v1h-1z" /><path fill="#d93026" d="M12 17h1v1h-1z" /><path fill="#da3126" d="M13 17h1v1h-1zM12 18h2v1h-2zM11 19h3v1h-3zM10 20h4v1h-4zM10 21h4v1h-4zM9 22h5v1h-5zM9 23h5v1h-5zM9 24h5v1h-5zM9 25h5v1h-5zM9 26h5v1h-5zM9 27h5v1h-5zM9 28h5v1h-5zM10 29h4v1h-4zM11 30h3v1h-3zM11 31h3v1h-3zM12 32h2v1h-2zM12 33h2v1h-2zM13 34h1v1h-1z" /><path fill="#e94234" d="M86 17h1v1h-1zM86 18h2v1h-2zM86 19h3v1h-3zM86 20h4v1h-4zM86 21h4v1h-4zM86 22h5v1h-5zM86 23h5v1h-5zM86 24h5v1h-5z" /><path fill="#e94134" d="M87 17h1v1h-1z" /><path fill="#da3026" d="M11 18h1v1h-1z" /><path fill="#e84233" d="M88 18h1v1h-1z" /><path fill="#d93125" d="M10 19h1v1h-1z" /><path fill="#e94233" d="M89 19h1v1h-1z" /><path fill="#da3125" d="M9 21h1v1h-1z" /><path fill="#e84234" d="M90 21h1v1h-1z" /><path fill="#d93025" d="M8 22h1v1h-1zM8 23h1v1h-1zM8 24h1v1h-1zM8 25h1v1h-1zM8 26h1v1h-1z" /><path fill="#ea4235" d="M91 22h1v1h-1z" /><path fill="#ea4335" d="M91 23h1v1h-1zM91 24h2v1h-2z" /><path fill="#d83025" d="M7 24h1v1h-1z" /><path fill="#409e51" d="M6 25h1v1h-1z" /><path fill="#cc3a28" d="M7 25h1v1h-1z" /><path fill="#e03c30" d="M43 25h1v1h-1z" /><path fill="#e55a51" d="M44 25h1v1h-1z" /><path fill="#ec8c84" d="M45 25h1v1h-1z" /><path fill="#f5c1bc" d="M46 25h1v1h-1z" /><path fill="#f9dcda" d="M47 25h1v1h-1z" /><path fill="#fbeae9" d="M48 25h1v1h-1z" /><path fill="#fdf8f7" d="M49 25h1v1h-1zM25 50h1v1h-1z" /><path fill="#fffaf0" d="M50 25h1v1h-1z" /><path fill="#fff6e0" d="M51 25h1v1h-1z" /><path fill="#fdf1ce" d="M52 25h1v1h-1z" /><path fill="#fde8ac" d="M53 25h1v1h-1zM66 31h1v1h-1z" /><path fill="#fcd86c" d="M54 25h1v1h-1z" /><path fill="#fbc834" d="M55 25h1v1h-1z" /><path fill="#fabe11" d="M56 25h1v1h-1zM59 26h1v1h-1z" /><path fill="#fbbe0d" d="M57 25h1v1h-1zM69 32h1v1h-1zM70 33h2v1h-2zM71 34h2v1h-2zM72 35h3v1h-3zM74 36h3v1h-3zM76 37h3v1h-3zM78 38h2v1h-2zM79 39h3v1h-3zM81 40h3v1h-3zM83 41h3v1h-3zM85 42h2v1h-2zM86 43h3v1h-3zM88 44h3v1h-3zM90 45h2v1h-2zM92 46h2v1h-2zM93 47h3v1h-3zM95 48h3v1h-3zM97 49h2v1h-2zM98 50h1v1h-1zM99 53h1v1h-1z" /><path fill="#fbbe0c" d="M58 25h3v1h-3zM60 26h3v1h-3zM62 27h3v1h-3zM64 28h3v1h-3zM65 29h3v1h-3zM67 30h3v1h-3zM68 31h4v1h-4zM70 32h4v1h-4zM72 33h3v1h-3zM73 34h4v1h-4zM75 35h4v1h-4zM77 36h3v1h-3zM79 37h3v1h-3zM80 38h4v1h-4zM82 39h4v1h-4zM84 40h3v1h-3zM86 41h3v1h-3zM87 42h4v1h-4zM89 43h4v1h-4zM91 44h3v1h-3zM92 45h4v1h-4zM94 46h4v1h-4zM96 47h3v1h-3zM98 48h1v1h-1z" /><path fill="#fbbe0b" d="M61 25h4v1h-4zM63 26h4v1h-4zM65 27h3v1h-3zM67 28h3v1h-3zM68 29h4v1h-4zM70 30h4v1h-4zM72 31h3v1h-3zM74 32h3v1h-3zM75 33h4v1h-4zM77 34h4v1h-4zM79 35h3v1h-3zM80 36h4v1h-4zM82 37h4v1h-4zM84 38h4v1h-4zM86 39h3v1h-3zM87 40h4v1h-4zM89 41h4v1h-4zM91 42h3v1h-3zM93 43h3v1h-3zM94 44h4v1h-4zM96 45h3v1h-3zM98 46h1v1h-1z" /><path fill="#fbbe0a" d="M65 25h3v1h-3zM67 26h3v1h-3zM68 27h4v1h-4zM70 28h4v1h-4zM72 29h3v1h-3zM74 30h3v1h-3zM75 31h4v1h-4zM77 32h4v1h-4zM79 33h3v1h-3zM81 34h3v1h-3zM82 35h4v1h-4zM84 36h4v1h-4zM86 37h3v1h-3zM88 38h3v1h-3zM89 39h4v1h-4zM91 40h3v1h-3zM93 41h3v1h-3zM94 42h4v1h-4zM96 43h4v1h-4zM98 44h1v1h-1z" /><path fill="#fbbd0a" d="M68 25h1v1h-1zM75 29h1v1h-1zM94 40h1v1h-1zM99 45h1v1h-1zM99 46h1v1h-1z" /><path fill="#fbbd09" d="M69 25h3v1h-3zM70 26h4v1h-4zM72 27h4v1h-4zM74 28h3v1h-3zM76 29h3v1h-3zM77 30h4v1h-4zM79 31h4v1h-4zM81 32h3v1h-3zM82 33h4v1h-4zM84 34h4v1h-4zM86 35h4v1h-4zM88 36h3v1h-3zM89 37h4v1h-4zM91 38h4v1h-4zM93 39h3v1h-3zM95 40h3v1h-3zM96 41h3v1h-3zM98 42h1v1h-1z" /><path fill="#fbbd08" d="M72 25h4v1h-4zM74 26h4v1h-4zM76 27h3v1h-3zM77 28h4v1h-4zM79 29h4v1h-4zM81 30h4v1h-4zM83 31h3v1h-3zM84 32h4v1h-4zM86 33h4v1h-4zM88 34h3v1h-3zM90 35h3v1h-3zM91 36h4v1h-4zM93 37h4v1h-4zM95 38h3v1h-3zM96 39h2v1h-2zM98 40h1v1h-1z" /><path fill="#fbbd07" d="M76 25h3v1h-3zM78 26h3v1h-3zM79 27h4v1h-4zM81 28h4v1h-4zM83 29h3v1h-3zM85 30h3v1h-3zM86 31h4v1h-4zM88 32h4v1h-4zM90 33h3v1h-3zM91 34h4v1h-4zM93 35h4v1h-4zM95 36h3v1h-3zM97 37h1v1h-1z" /><path fill="#fbbd06" d="M79 25h3v1h-3zM81 26h3v1h-3zM83 27h2v1h-2zM85 28h2v1h-2zM86 29h3v1h-3zM88 30h2v1h-2zM90 31h2v1h-2zM92 32h2v1h-2zM93 33h3v1h-3zM95 34h2v1h-2zM98 38h1v1h-1z" /><path fill="#fbbc06" d="M82 25h1v1h-1zM84 26h1v1h-1zM85 27h2v1h-2zM87 28h1v1h-1zM89 29h1v1h-1zM90 30h2v1h-2zM92 31h1v1h-1zM94 32h1v1h-1zM96 33h1v1h-1zM97 35h1v1h-1z" /><path fill="#fbbc05" d="M83 25h4v1h-4zM85 26h3v1h-3zM87 27h3v1h-3zM88 28h4v1h-4zM90 29h4v1h-4zM92 30h3v1h-3zM93 31h3v1h-3zM95 32h1v1h-1zM97 34h1v1h-1z" /><path fill="#fbbc04" d="M87 25h6v1h-6zM88 26h5v1h-5zM90 27h4v1h-4zM92 28h2v1h-2zM94 29h1v1h-1z" /><path fill="#fbbc03" d="M93 25h1v1h-1z" /><path fill="#34a753" d="M6 26h1v1h-1z" /><path fill="#5c8847" d="M7 26h1v1h-1z" /><path fill="#e03b2f" d="M40 26h1v1h-1z" /><path fill="#ea756d" d="M41 26h1v1h-1z" /><path fill="#f8d5d2" d="M42 26h1v1h-1zM26 42h1v1h-1z" /><path fill="#ffffff" d="M43 26h13v1h-13zM41 27h18v1h-18zM39 28h22v1h-22zM37 29h26v1h-26zM35 30h9v1h-9zM56 30h9v1h-9zM34 31h7v1h-7zM59 31h7v1h-7zM33 32h6v1h-6zM61 32h6v1h-6zM32 33h6v1h-6zM62 33h6v1h-6zM31 34h6v1h-6zM63 34h6v1h-6zM30 35h6v1h-6zM64 35h6v1h-6zM30 36h5v1h-5zM65 36h5v1h-5zM29 37h5v1h-5zM66 37h5v1h-5zM29 38h4v1h-4zM67 38h4v1h-4zM28 39h4v1h-4zM68 39h4v1h-4zM28 40h4v1h-4zM68 40h4v1h-4zM27 41h4v1h-4zM69 41h4v1h-4zM27 42h4v1h-4zM69 42h4v1h-4zM26 43h5v1h-5zM69 43h5v1h-5zM26 44h4v1h-4zM70 44h4v1h-4zM26 45h4v1h-4zM70 45h4v1h-4zM26 46h4v1h-4zM70 46h4v1h-4zM26 47h4v1h-4zM70 47h4v1h-4zM26 48h4v1h-4zM70 48h4v1h-4zM26 49h4v1h-4zM70 49h4v1h-4zM26 50h4v1h-4zM70 50h4v1h-4zM26 51h4v1h-4zM70 51h4v1h-4zM26 52h4v1h-4zM70 52h4v1h-4zM26 53h4v1h-4zM70 53h4v1h-4zM26 54h4v1h-4zM70 54h4v1h-4zM26 55h4v1h-4zM70 55h4v1h-4zM27 56h4v1h-4zM69 56h5v1h-5zM27 57h4v1h-4zM69 57h4v1h-4zM27 58h4v1h-4zM69 58h4v1h-4zM28 59h4v1h-4zM68 59h4v1h-4zM28 60h4v1h-4zM68 60h4v1h-4zM29 61h4v1h-4zM67 61h4v1h-4zM29 62h5v1h-5zM66 62h5v1h-5zM30 63h5v1h-5zM65 63h5v1h-5zM30 64h6v1h-6zM64 64h6v1h-6zM31 65h6v1h-6zM63 65h6v1h-6zM32 66h6v1h-6zM62 66h6v1h-6zM33 67h6v1h-6zM60 67h7v1h-7zM34 68h7v1h-7zM59 68h7v1h-7zM35 69h9v1h-9zM56 69h9v1h-9zM37 70h26v1h-26zM39 71h22v1h-22zM41 72h18v1h-18zM43 73h14v1h-14z" /><path fill="#fffffe" d="M56 26h1v1h-1z" /><path fill="#fdefc5" d="M57 26h1v1h-1z" /><path fill="#fcd053" d="M58 26h1v1h-1z" /><path fill="#fabb04" d="M93 26h1v1h-1zM94 28h1v1h-1zM95 30h1v1h-1z" /><path fill="#34a752" d="M5 27h1v1h-1z" /><path fill="#33a753" d="M6 27h1v1h-1z" /><path fill="#33a751" d="M7 27h1v1h-1zM4 30h1v1h-1z" /><path fill="#b9472d" d="M8 27h1v1h-1z" /><path fill="#df3e32" d="M38 27h1v1h-1z" /><path fill="#ef9e99" d="M39 27h1v1h-1z" /><path fill="#fffcfc" d="M40 27h1v1h-1zM38 28h1v1h-1zM28 38h1v1h-1zM27 40h1v1h-1z" /><path fill="#fffdfa" d="M59 27h1v1h-1zM72 59h1v1h-1z" /><path fill="#fde190" d="M60 27h1v1h-1zM72 39h1v1h-1z" /><path fill="#fbc014" d="M61 27h1v1h-1zM75 50h1v1h-1zM75 51h3v1h-3zM76 52h3v1h-3zM77 53h4v1h-4zM79 54h4v1h-4zM81 55h4v1h-4zM83 56h3v1h-3zM84 57h4v1h-4zM86 58h4v1h-4zM88 59h3v1h-3zM90 60h3v1h-3zM91 61h4v1h-4zM93 62h4v1h-4zM95 63h3v1h-3zM96 64h1v1h-1z" /><path fill="#fbbb03" d="M94 27h1v1h-1zM95 29h1v1h-1z" /><path fill="#32a652" d="M5 28h1v1h-1zM7 31h1v1h-1z" /><path fill="#33a752" d="M6 28h2v1h-2zM5 29h4v1h-4zM5 30h2v1h-2zM4 31h1v1h-1z" /><path fill="#419b4d" d="M8 28h1v1h-1z" /><path fill="#df382c" d="M36 28h1v1h-1z" /><path fill="#efa19c" d="M37 28h1v1h-1zM28 37h1v1h-1z" /><path fill="#fffefc" d="M61 28h1v1h-1z" /><path fill="#fce18f" d="M62 28h1v1h-1z" /><path fill="#fabe0d" d="M63 28h1v1h-1zM68 32h1v1h-1zM69 33h1v1h-1z" /><path fill="#32a752" d="M4 29h1v1h-1zM3 32h1v1h-1z" /><path fill="#9c5c36" d="M9 29h1v1h-1z" /><path fill="#e35045" d="M35 29h1v1h-1z" /><path fill="#fbe9e7" d="M36 29h1v1h-1z" /><path fill="#fff8e7" d="M63 29h1v1h-1zM74 51h1v1h-1z" /><path fill="#fbc72f" d="M64 29h1v1h-1z" /><path fill="#33a652" d="M7 30h2v1h-2zM5 31h2v1h-2zM4 32h2v1h-2zM3 33h1v1h-1z" /><path fill="#36a251" d="M9 30h1v1h-1z" /><path fill="#d63426" d="M10 30h1v1h-1z" /><path fill="#ee9691" d="M34 30h1v1h-1z" /><path fill="#f7fafe" d="M44 30h1v1h-1zM55 30h1v1h-1zM30 44h1v1h-1zM30 55h1v1h-1z" /><path fill="#c2daf9" d="M45 30h1v1h-1zM30 45h1v1h-1z" /><path fill="#93bdf4" d="M46 30h1v1h-1zM30 46h1v1h-1zM30 53h1v1h-1z" /><path fill="#71a8f1" d="M47 30h1v1h-1zM52 30h1v1h-1z" /><path fill="#5899ee" d="M48 30h1v1h-1zM51 30h1v1h-1z" /><path fill="#4f93ed" d="M49 30h2v1h-2zM30 49h1v1h-1zM30 50h1v1h-1zM49 69h2v1h-2z" /><path fill="#94bef4" d="M53 30h1v1h-1z" /><path fill="#c3daf9" d="M54 30h1v1h-1zM30 54h1v1h-1z" /><path fill="#fcdb7a" d="M65 30h1v1h-1z" /><path fill="#fabe0c" d="M66 30h1v1h-1zM99 47h1v1h-1zM99 49h1v1h-1z" /><path fill="#32a651" d="M8 31h2v1h-2zM6 32h4v1h-4zM4 33h5v1h-5zM3 34h4v1h-4zM3 35h2v1h-2zM2 36h1v1h-1z" /><path fill="#757841" d="M10 31h1v1h-1z" /><path fill="#f2b5b1" d="M33 31h1v1h-1z" /><path fill="#fdfeff" d="M41 31h1v1h-1zM58 31h1v1h-1zM68 41h1v1h-1zM31 58h1v1h-1zM68 58h1v1h-1zM41 68h1v1h-1zM58 68h1v1h-1z" /><path fill="#b7d3f8" d="M42 31h1v1h-1zM31 42h1v1h-1z" /><path fill="#629fef" d="M43 31h1v1h-1zM31 43h1v1h-1z" /><path fill="#2077e9" d="M44 31h1v1h-1zM55 31h1v1h-1zM31 44h1v1h-1z" /><path fill="#1a73e8" d="M45 31h10v1h-10zM42 32h16v1h-16zM40 33h20v1h-20zM39 34h22v1h-22zM38 35h24v1h-24zM36 36h28v1h-28zM36 37h28v1h-28zM35 38h30v1h-30zM34 39h32v1h-32zM33 40h34v1h-34zM33 41h34v1h-34zM32 42h36v1h-36zM32 43h36v1h-36zM32 44h36v1h-36zM31 45h38v1h-38zM31 46h38v1h-38zM31 47h38v1h-38zM31 48h38v1h-38zM31 49h38v1h-38zM31 50h38v1h-38zM31 51h38v1h-38zM31 52h38v1h-38zM31 53h38v1h-38zM31 54h38v1h-38zM32 55h36v1h-36zM32 56h36v1h-36zM32 57h36v1h-36zM33 58h34v1h-34zM33 59h34v1h-34zM34 60h32v1h-32zM35 61h30v1h-30zM36 62h28v1h-28zM36 63h28v1h-28zM38 64h24v1h-24zM39 65h22v1h-22zM40 66h20v1h-20zM42 67h16v1h-16zM45 68h10v1h-10z" /><path fill="#639fef" d="M56 31h1v1h-1zM31 56h1v1h-1z" /><path fill="#b8d4f8" d="M57 31h1v1h-1zM31 57h1v1h-1z" /><path fill="#fabd0d" d="M67 31h1v1h-1zM99 50h1v1h-1z" /><path fill="#32a450" d="M10 32h1v1h-1zM1 38h1v1h-1z" /><path fill="#c83d2b" d="M11 32h1v1h-1z" /><path fill="#de352b" d="M31 32h1v1h-1z" /><path fill="#f6ccca" d="M32 32h1v1h-1z" /><path fill="#fefeff" d="M39 32h1v1h-1zM60 32h1v1h-1zM32 39h1v1h-1zM67 39h1v1h-1zM32 60h1v1h-1zM67 60h1v1h-1zM39 67h1v1h-1z" /><path fill="#acccf7" d="M40 32h1v1h-1zM32 40h1v1h-1z" /><path fill="#3c88eb" d="M41 32h1v1h-1zM32 41h1v1h-1z" /><path fill="#3d88ec" d="M58 32h1v1h-1zM32 58h1v1h-1z" /><path fill="#aecef7" d="M59 32h1v1h-1zM32 59h1v1h-1z" /><path fill="#fdedbe" d="M67 32h1v1h-1z" /><path fill="#fbbb05" d="M96 32h1v1h-1z" /><path fill="#32a551" d="M9 33h2v1h-2zM7 34h3v1h-3zM5 35h3v1h-3zM3 36h3v1h-3zM2 37h3v1h-3zM2 38h1v1h-1z" /><path fill="#548d48" d="M11 33h1v1h-1z" /><path fill="#f2b2ae" d="M31 33h1v1h-1z" /><path fill="#ddeafc" d="M38 33h1v1h-1zM33 38h1v1h-1z" /><path fill="#5194ed" d="M39 33h1v1h-1zM66 39h1v1h-1z" /><path fill="#5396ee" d="M60 33h1v1h-1zM33 39h1v1h-1zM39 66h1v1h-1z" /><path fill="#dfebfc" d="M61 33h1v1h-1zM66 38h1v1h-1zM33 61h1v1h-1zM38 66h1v1h-1z" /><path fill="#fde7a7" d="M68 33h1v1h-1z" /><path fill="#31a551" d="M2 34h1v1h-1zM10 34h1v1h-1zM8 35h1v1h-1zM6 36h1v1h-1zM5 37h1v1h-1zM3 38h1v1h-1z" /><path fill="#31a54f" d="M11 34h1v1h-1z" /><path fill="#b14d30" d="M12 34h1v1h-1z" /><path fill="#ee968f" d="M30 34h1v1h-1z" /><path fill="#b1cff7" d="M37 34h1v1h-1zM34 37h1v1h-1zM67 59h1v1h-1z" /><path fill="#267ae9" d="M38 34h1v1h-1zM34 38h1v1h-1z" /><path fill="#277be9" d="M61 34h1v1h-1zM65 38h1v1h-1zM34 61h1v1h-1zM65 61h1v1h-1zM38 65h1v1h-1zM61 65h1v1h-1z" /><path fill="#b3d0f7" d="M62 34h1v1h-1zM34 62h1v1h-1z" /><path fill="#fcdb7c" d="M69 34h1v1h-1z" /><path fill="#fbbf0d" d="M70 34h1v1h-1zM73 36h1v1h-1zM75 37h1v1h-1zM77 38h1v1h-1zM78 39h1v1h-1zM80 40h1v1h-1zM82 41h1v1h-1zM84 42h1v1h-1zM85 43h1v1h-1zM87 44h1v1h-1zM89 45h1v1h-1zM91 46h1v1h-1zM92 47h1v1h-1zM94 48h1v1h-1zM96 49h1v1h-1z" /><path fill="#31a550" d="M2 35h1v1h-1zM9 35h3v1h-3zM7 36h3v1h-3zM6 37h2v1h-2zM4 38h3v1h-3zM2 39h3v1h-3zM1 40h2v1h-2z" /><path fill="#3d9d4c" d="M12 35h1v1h-1z" /><path fill="#d83226" d="M13 35h1v1h-1z" /><path fill="#e15248" d="M29 35h1v1h-1z" /><path fill="#9cc3f5" d="M36 35h1v1h-1z" /><path fill="#1c74e8" d="M37 35h1v1h-1zM64 62h1v1h-1zM37 64h1v1h-1z" /><path fill="#1b74e8" d="M62 35h1v1h-1zM35 37h1v1h-1zM64 37h1v1h-1zM35 62h1v1h-1zM62 64h1v1h-1z" /><path fill="#96bff4" d="M63 35h1v1h-1zM69 46h1v1h-1zM69 53h1v1h-1zM63 64h1v1h-1z" /><path fill="#fbc831" d="M70 35h1v1h-1zM53 99h1v1h-1z" /><path fill="#fbbf0e" d="M71 35h1v1h-1zM72 36h1v1h-1zM72 37h3v1h-3zM73 38h4v1h-4zM75 39h3v1h-3zM77 40h3v1h-3zM78 41h4v1h-4zM80 42h4v1h-4zM82 43h3v1h-3zM84 44h3v1h-3zM85 45h4v1h-4zM87 46h4v1h-4zM89 47h3v1h-3zM90 48h4v1h-4zM92 49h4v1h-4zM94 50h4v1h-4zM96 51h3v1h-3zM97 52h2v1h-2z" /><path fill="#31a450" d="M10 36h3v1h-3zM8 37h5v1h-5zM7 38h4v1h-4zM5 39h4v1h-4zM3 40h4v1h-4zM1 41h5v1h-5zM1 42h3v1h-3zM1 43h1v1h-1z" /><path fill="#906238" d="M13 36h1v1h-1z" /><path fill="#dd362b" d="M28 36h1v1h-1z" /><path fill="#fbebea" d="M29 36h1v1h-1zM25 48h1v1h-1z" /><path fill="#9dc3f5" d="M35 36h1v1h-1zM36 64h1v1h-1z" /><path fill="#98c0f5" d="M64 36h1v1h-1z" /><path fill="#fff9e9" d="M70 36h1v1h-1z" /><path fill="#fac010" d="M71 36h1v1h-1z" /><path fill="#32a24f" d="M13 37h1v1h-1z" /><path fill="#d53528" d="M14 37h1v1h-1z" /><path fill="#b4d1f7" d="M65 37h1v1h-1zM37 65h1v1h-1z" /><path fill="#fde08b" d="M71 37h1v1h-1z" /><path fill="#30a450" d="M11 38h1v1h-1zM9 39h1v1h-1zM7 40h2v1h-2zM6 41h1v1h-1zM4 42h1v1h-1zM2 43h2v1h-2zM0 44h2v1h-2z" /><path fill="#30a44f" d="M12 38h1v1h-1zM10 39h2v1h-2zM9 40h1v1h-1zM7 41h1v1h-1zM5 42h1v1h-1zM4 43h1v1h-1zM2 44h1v1h-1z" /><path fill="#30a34f" d="M13 38h1v1h-1zM12 39h2v1h-2zM10 40h5v1h-5zM8 41h6v1h-6zM6 42h6v1h-6zM5 43h5v1h-5zM3 44h5v1h-5zM1 45h6v1h-6zM1 46h4v1h-4zM1 47h2v1h-2zM0 48h1v1h-1z" /><path fill="#6c7c41" d="M14 38h1v1h-1z" /><path fill="#de3c30" d="M27 38h1v1h-1z" /><path fill="#fffdfc" d="M71 38h1v1h-1z" /><path fill="#fbc117" d="M72 38h1v1h-1zM74 57h3v1h-3zM75 58h4v1h-4zM77 59h4v1h-4zM79 60h3v1h-3zM80 61h4v1h-4zM82 62h4v1h-4zM84 63h4v1h-4zM86 64h3v1h-3zM87 65h4v1h-4zM89 66h4v1h-4zM91 67h3v1h-3zM93 68h3v1h-3zM94 69h1v1h-1z" /><path fill="#30a550" d="M1 39h1v1h-1z" /><path fill="#2fa24e" d="M14 39h1v1h-1zM14 42h2v1h-2zM12 43h5v1h-5zM10 44h6v1h-6zM8 45h7v1h-7zM7 46h6v1h-6zM5 47h6v1h-6zM3 48h6v1h-6zM1 49h7v1h-7zM1 50h5v1h-5zM1 51h3v1h-3zM1 52h1v1h-1z" /><path fill="#c3402b" d="M15 39h1v1h-1z" /><path fill="#efa7a2" d="M27 39h1v1h-1z" /><path fill="#fbbf0f" d="M73 39h2v1h-2zM74 40h3v1h-3zM75 41h3v1h-3zM76 42h4v1h-4zM78 43h4v1h-4zM80 44h4v1h-4zM82 45h3v1h-3zM83 46h4v1h-4zM85 47h4v1h-4zM87 48h3v1h-3zM89 49h3v1h-3zM90 50h4v1h-4zM92 51h4v1h-4zM94 52h3v1h-3zM95 53h4v1h-4zM97 54h2v1h-2z" /><path fill="#fbbc08" d="M98 39h1v1h-1z" /><path fill="#4a9048" d="M15 40h1v1h-1z" /><path fill="#de382e" d="M26 40h1v1h-1z" /><path fill="#afcef7" d="M67 40h1v1h-1z" /><path fill="#fffdfb" d="M72 40h1v1h-1zM71 61h1v1h-1z" /><path fill="#fbc013" d="M73 40h1v1h-1zM75 48h1v1h-1zM75 49h3v1h-3zM76 50h3v1h-3zM78 51h3v1h-3zM79 52h4v1h-4zM81 53h4v1h-4zM83 54h3v1h-3zM85 55h3v1h-3zM86 56h4v1h-4zM88 57h4v1h-4zM90 58h3v1h-3zM91 59h4v1h-4zM93 60h4v1h-4zM95 61h4v1h-4zM97 62h1v1h-1zM97 64h1v1h-1z" /><path fill="#2fa34f" d="M14 41h1v1h-1zM12 42h1v1h-1zM10 43h1v1h-1zM8 44h2v1h-2zM7 45h1v1h-1zM5 46h1v1h-1zM3 47h1v1h-1zM1 48h2v1h-2z" /><path fill="#2fa14e" d="M15 41h1v1h-1zM0 53h1v1h-1z" /><path fill="#a85233" d="M16 41h1v1h-1z" /><path fill="#e7746d" d="M26 41h1v1h-1z" /><path fill="#fcfdff" d="M31 41h1v1h-1z" /><path fill="#3e89ec" d="M67 41h1v1h-1zM41 67h1v1h-1z" /><path fill="#fcd258" d="M73 41h1v1h-1z" /><path fill="#fbbf10" d="M74 41h1v1h-1zM74 42h2v1h-2zM75 43h3v1h-3zM76 44h4v1h-4zM78 45h4v1h-4zM80 46h3v1h-3zM81 47h4v1h-4zM83 48h4v1h-4zM85 49h4v1h-4zM87 50h3v1h-3zM88 51h4v1h-4zM90 52h4v1h-4zM92 53h3v1h-3zM94 54h3v1h-3zM95 55h4v1h-4zM97 56h2v1h-2z" /><path fill="#2fa24f" d="M13 42h1v1h-1zM11 43h1v1h-1zM6 46h1v1h-1zM4 47h1v1h-1z" /><path fill="#369c4b" d="M16 42h1v1h-1z" /><path fill="#d83328" d="M17 42h1v1h-1z" /><path fill="#b9d4f8" d="M68 42h1v1h-1zM42 68h1v1h-1z" /><path fill="#fdf1ca" d="M73 42h1v1h-1z" /><path fill="#31a44f" d="M0 43h1v1h-1z" /><path fill="#866839" d="M17 43h1v1h-1z" /><path fill="#de372c" d="M25 43h1v1h-1z" /><path fill="#65a1ef" d="M68 43h1v1h-1z" /><path fill="#fbbf15" d="M74 43h1v1h-1z" /><path fill="#2ea14e" d="M16 44h1v1h-1zM15 45h2v1h-2zM13 46h2v1h-2zM11 47h2v1h-2zM9 48h2v1h-2zM8 49h2v1h-2zM0 50h1v1h-1zM6 50h2v1h-2zM4 51h2v1h-2zM2 52h2v1h-2zM1 53h2v1h-2z" /><path fill="#2f9f4d" d="M17 44h1v1h-1z" /><path fill="#d13929" d="M18 44h1v1h-1z" /><path fill="#e2574c" d="M25 44h1v1h-1z" /><path fill="#2177e9" d="M68 44h1v1h-1zM31 55h1v1h-1zM44 68h1v1h-1z" /><path fill="#f8fbfe" d="M69 44h1v1h-1zM69 55h1v1h-1zM44 69h1v1h-1zM55 69h1v1h-1z" /><path fill="#fbca38" d="M74 44h1v1h-1z" /><path fill="#fbbf11" d="M75 44h1v1h-1zM76 45h2v1h-2zM78 46h2v1h-2zM80 47h1v1h-1zM82 48h1v1h-1zM83 49h2v1h-2zM85 50h2v1h-2zM87 51h1v1h-1zM89 52h1v1h-1zM90 53h2v1h-2zM92 54h2v1h-2zM94 55h1v1h-1zM96 56h1v1h-1zM97 57h2v1h-2zM98 60h1v1h-1z" /><path fill="#fabe0a" d="M99 44h1v1h-1z" /><path fill="#2fa44e" d="M0 45h1v1h-1z" /><path fill="#2ea14d" d="M17 45h1v1h-1zM15 46h4v1h-4zM13 47h5v1h-5zM11 48h5v1h-5zM10 49h4v1h-4zM8 50h5v1h-5zM6 51h5v1h-5zM4 52h5v1h-5zM3 53h4v1h-4zM1 54h5v1h-5zM1 55h3v1h-3zM1 56h1v1h-1z" /><path fill="#608041" d="M18 45h1v1h-1z" /><path fill="#eb8882" d="M25 45h1v1h-1z" /><path fill="#c5dbf9" d="M69 45h1v1h-1zM45 69h1v1h-1zM54 69h1v1h-1z" /><path fill="#fcd972" d="M74 45h1v1h-1z" /><path fill="#fbc011" d="M75 45h1v1h-1zM76 46h2v1h-2zM78 47h2v1h-2zM80 48h2v1h-2zM81 49h2v1h-2zM83 50h2v1h-2zM85 51h2v1h-2zM87 52h2v1h-2zM88 53h2v1h-2zM90 54h2v1h-2zM92 55h2v1h-2zM93 56h3v1h-3zM95 57h2v1h-2zM97 58h2v1h-2z" /><path fill="#30a24e" d="M0 46h1v1h-1z" /><path fill="#c0442c" d="M19 46h1v1h-1z" /><path fill="#f3beba" d="M25 46h1v1h-1z" /><path fill="#fde9b1" d="M74 46h1v1h-1z" /><path fill="#fbc012" d="M75 46h1v1h-1zM75 47h3v1h-3zM76 48h4v1h-4zM78 49h3v1h-3zM79 50h4v1h-4zM81 51h4v1h-4zM83 52h4v1h-4zM85 53h3v1h-3zM86 54h4v1h-4zM88 55h4v1h-4zM90 56h3v1h-3zM92 57h3v1h-3zM93 58h4v1h-4zM95 59h4v1h-4zM97 60h1v1h-1z" /><path fill="#2fa34e" d="M0 47h1v1h-1z" /><path fill="#2ea04d" d="M18 47h1v1h-1zM16 48h1v1h-1zM14 49h1v1h-1zM13 50h1v1h-1zM11 51h1v1h-1zM9 52h1v1h-1zM7 53h2v1h-2zM0 54h1v1h-1zM6 54h1v1h-1zM4 55h1v1h-1zM2 56h1v1h-1zM1 57h1v1h-1z" /><path fill="#429248" d="M19 47h1v1h-1z" /><path fill="#f9dcd9" d="M25 47h1v1h-1z" /><path fill="#70a8f1" d="M30 47h1v1h-1zM30 52h1v1h-1z" /><path fill="#73a9f1" d="M69 47h1v1h-1zM69 52h1v1h-1zM47 69h1v1h-1zM52 69h1v1h-1z" /><path fill="#fdf3d5" d="M74 47h1v1h-1z" /><path fill="#2da04d" d="M17 48h3v1h-3zM15 49h3v1h-3zM14 50h2v1h-2zM12 51h2v1h-2zM10 52h3v1h-3zM9 53h2v1h-2zM7 54h2v1h-2zM5 55h3v1h-3zM3 56h3v1h-3zM2 57h2v1h-2zM1 58h1v1h-1z" /><path fill="#a05a34" d="M20 48h1v1h-1z" /><path fill="#5a9aee" d="M30 48h1v1h-1zM30 51h1v1h-1z" /><path fill="#5c9bef" d="M69 48h1v1h-1zM69 51h1v1h-1z" /><path fill="#fff8e8" d="M74 48h1v1h-1z" /><path fill="#fabe0b" d="M99 48h1v1h-1z" /><path fill="#2ea34e" d="M0 49h1v1h-1z" /><path fill="#2da04c" d="M18 49h2v1h-2zM16 50h3v1h-3zM14 51h3v1h-3zM13 52h3v1h-3zM11 53h3v1h-3zM9 54h3v1h-3zM8 55h3v1h-3zM6 56h3v1h-3zM4 57h3v1h-3zM2 58h3v1h-3zM1 59h3v1h-3z" /><path fill="#339c4a" d="M20 49h1v1h-1z" /><path fill="#da3427" d="M21 49h1v1h-1z" /><path fill="#fdf8f8" d="M25 49h1v1h-1z" /><path fill="#5094ed" d="M69 49h1v1h-1zM69 50h1v1h-1z" /><path fill="#fffdf8" d="M74 49h1v1h-1z" /><path fill="#2d9f4c" d="M19 50h2v1h-2zM17 51h3v1h-3zM16 52h2v1h-2zM14 53h2v1h-2zM12 54h3v1h-3zM11 55h2v1h-2zM9 56h2v1h-2zM7 57h2v1h-2zM5 58h3v1h-3zM4 59h2v1h-2zM2 60h2v1h-2zM2 61h1v1h-1z" /><path fill="#7b6f3b" d="M21 50h1v1h-1z" /><path fill="#fffcf8" d="M74 50h1v1h-1z" /><path fill="#2fa24d" d="M0 51h1v1h-1z" /><path fill="#2c9f4c" d="M20 51h1v1h-1zM18 52h3v1h-3zM16 53h3v1h-3zM15 54h2v1h-2zM13 55h3v1h-3zM11 56h3v1h-3zM9 57h3v1h-3zM8 58h3v1h-3zM6 59h3v1h-3zM4 60h3v1h-3zM3 61h2v1h-2zM2 62h2v1h-2z" /><path fill="#2c9d4b" d="M21 51h1v1h-1z" /><path fill="#ce3b2b" d="M22 51h1v1h-1z" /><path fill="#fbe9e8" d="M25 51h1v1h-1z" /><path fill="#fabf0c" d="M99 51h1v1h-1z" /><path fill="#2ea24e" d="M0 52h1v1h-1z" /><path fill="#2c9f4b" d="M21 52h1v1h-1zM19 53h2v1h-2zM17 54h2v1h-2zM16 55h1v1h-1zM14 56h1v1h-1zM12 57h2v1h-2zM11 58h1v1h-1zM9 59h1v1h-1zM1 60h1v1h-1zM7 60h2v1h-2zM5 61h2v1h-2zM4 62h1v1h-1zM2 63h1v1h-1z" /><path fill="#568342" d="M22 52h1v1h-1z" /><path fill="#f8d9d7" d="M25 52h1v1h-1z" /><path fill="#fdf3d3" d="M74 52h1v1h-1z" /><path fill="#fbc015" d="M75 52h1v1h-1zM80 55h1v1h-1zM82 56h1v1h-1zM87 59h1v1h-1zM89 60h1v1h-1zM94 63h1v1h-1z" /><path fill="#fabf0e" d="M99 52h1v1h-1z" /><path fill="#2c9e4b" d="M21 53h1v1h-1zM19 54h4v1h-4zM17 55h4v1h-4zM15 56h4v1h-4zM14 57h3v1h-3zM12 58h4v1h-4zM10 59h4v1h-4zM9 60h3v1h-3zM7 61h3v1h-3zM5 62h4v1h-4zM3 63h4v1h-4zM3 64h2v1h-2z" /><path fill="#2b9e4b" d="M22 53h1v1h-1zM21 55h3v1h-3zM19 56h3v1h-3zM17 57h3v1h-3zM16 58h3v1h-3zM14 59h3v1h-3zM12 60h3v1h-3zM10 61h3v1h-3zM9 62h3v1h-3zM7 63h3v1h-3zM5 64h3v1h-3zM3 65h4v1h-4zM3 66h2v1h-2z" /><path fill="#b9492e" d="M23 53h1v1h-1z" /><path fill="#f3bbb7" d="M25 53h1v1h-1z" /><path fill="#fdeab1" d="M74 53h1v1h-1z" /><path fill="#fbc115" d="M75 53h2v1h-2zM76 54h3v1h-3zM77 55h3v1h-3zM79 56h3v1h-3zM81 57h3v1h-3zM82 58h4v1h-4zM84 59h3v1h-3zM86 60h3v1h-3zM88 61h3v1h-3zM89 62h4v1h-4zM91 63h3v1h-3zM93 64h3v1h-3zM95 65h3v1h-3zM96 66h1v1h-1z" /><path fill="#3a9449" d="M23 54h1v1h-1z" /><path fill="#ea857e" d="M25 54h1v1h-1z" /><path fill="#c6dcf9" d="M69 54h1v1h-1z" /><path fill="#fcda73" d="M74 54h1v1h-1z" /><path fill="#fbc116" d="M75 54h1v1h-1zM75 55h2v1h-2zM75 56h4v1h-4zM77 57h4v1h-4zM79 58h3v1h-3zM81 59h3v1h-3zM82 60h4v1h-4zM84 61h4v1h-4zM86 62h3v1h-3zM88 63h3v1h-3zM89 64h4v1h-4zM91 65h4v1h-4zM93 66h3v1h-3zM94 67h3v1h-3z" /><path fill="#fbbe0e" d="M99 54h1v1h-1z" /><path fill="#2da14d" d="M0 55h1v1h-1zM0 56h1v1h-1z" /><path fill="#975d35" d="M24 55h1v1h-1z" /><path fill="#e1534a" d="M25 55h1v1h-1z" /><path fill="#2278e9" d="M68 55h1v1h-1zM55 68h1v1h-1z" /><path fill="#fbca3a" d="M74 55h1v1h-1z" /><path fill="#fabf0f" d="M99 55h1v1h-1z" /><path fill="#2b9d4a" d="M22 56h2v1h-2zM21 57h4v1h-4zM19 58h4v1h-4zM17 59h5v1h-5zM15 60h5v1h-5zM14 61h4v1h-4zM12 62h5v1h-5zM10 63h5v1h-5zM8 64h5v1h-5zM2 65h1v1h-1zM7 65h4v1h-4zM5 66h5v1h-5zM4 67h4v1h-4zM4 68h2v1h-2z" /><path fill="#2e9a49" d="M24 56h1v1h-1z" /><path fill="#d83a2c" d="M25 56h1v1h-1z" /><path fill="#fffefe" d="M26 56h1v1h-1z" /><path fill="#65a1f0" d="M68 56h1v1h-1zM56 68h1v1h-1z" /><path fill="#fbc21a" d="M74 56h1v1h-1zM72 62h3v1h-3zM73 63h4v1h-4zM75 64h3v1h-3zM77 65h3v1h-3zM78 66h4v1h-4zM80 67h4v1h-4zM82 68h3v1h-3zM84 69h3v1h-3zM85 70h4v1h-4zM87 71h4v1h-4zM89 72h3v1h-3zM90 73h3v1h-3zM92 74h2v1h-2z" /><path fill="#fbbe10" d="M99 56h1v1h-1z" /><path fill="#2b9d4b" d="M20 57h1v1h-1zM13 61h1v1h-1z" /><path fill="#6d753c" d="M25 57h1v1h-1z" /><path fill="#f6cecc" d="M26 57h1v1h-1z" /><path fill="#bad5f8" d="M68 57h1v1h-1zM57 68h1v1h-1z" /><path fill="#fdf0c8" d="M73 57h1v1h-1z" /><path fill="#2a9d4a" d="M23 58h2v1h-2zM22 59h2v1h-2zM20 60h2v1h-2zM18 61h2v1h-2zM17 62h1v1h-1zM15 63h2v1h-2zM13 64h2v1h-2zM11 65h2v1h-2zM10 66h1v1h-1zM8 67h2v1h-2zM6 68h2v1h-2zM5 69h1v1h-1z" /><path fill="#2b9b49" d="M25 58h1v1h-1z" /><path fill="#d18272" d="M26 58h1v1h-1z" /><path fill="#3f8aec" d="M67 58h1v1h-1z" /><path fill="#fcd259" d="M73 58h1v1h-1z" /><path fill="#fbc118" d="M74 58h1v1h-1zM74 59h3v1h-3zM76 60h3v1h-3zM78 61h2v1h-2zM79 62h3v1h-3zM81 63h3v1h-3zM83 64h3v1h-3zM84 65h3v1h-3zM86 66h3v1h-3zM88 67h3v1h-3zM90 68h3v1h-3zM91 69h3v1h-3zM93 70h2v1h-2z" /><path fill="#2a9c4a" d="M24 59h1v1h-1zM22 60h2v1h-2zM20 61h2v1h-2zM18 62h2v1h-2zM17 63h1v1h-1zM15 64h2v1h-2zM13 65h2v1h-2zM11 66h2v1h-2zM10 67h1v1h-1zM8 68h2v1h-2zM6 69h2v1h-2zM5 70h1v1h-1z" /><path fill="#2a9c49" d="M25 59h1v1h-1zM24 60h2v1h-2zM22 61h4v1h-4zM20 62h4v1h-4zM18 63h5v1h-5zM17 64h4v1h-4zM15 65h4v1h-4zM13 66h5v1h-5zM11 67h5v1h-5zM10 68h4v1h-4zM8 69h4v1h-4zM6 70h5v1h-5zM6 71h3v1h-3zM6 72h1v1h-1z" /><path fill="#4d924d" d="M26 59h1v1h-1z" /><path fill="#fdfbfb" d="M27 59h1v1h-1z" /><path fill="#fac21b" d="M73 59h1v1h-1zM92 75h1v1h-1z" /><path fill="#2a9c48" d="M26 60h1v1h-1z" /><path fill="#c0c1a9" d="M27 60h1v1h-1z" /><path fill="#5497ee" d="M33 60h1v1h-1z" /><path fill="#5295ee" d="M66 60h1v1h-1z" /><path fill="#fde292" d="M72 60h1v1h-1z" /><path fill="#fbc219" d="M73 60h2v1h-2zM73 61h4v1h-4zM75 62h4v1h-4zM77 63h3v1h-3zM78 64h4v1h-4zM80 65h4v1h-4zM82 66h4v1h-4zM84 67h3v1h-3zM85 68h4v1h-4zM87 69h4v1h-4zM89 70h3v1h-3zM91 71h3v1h-3zM92 72h2v1h-2z" /><path fill="#fbc218" d="M75 60h1v1h-1zM77 61h1v1h-1zM80 63h1v1h-1zM82 64h1v1h-1zM87 67h1v1h-1zM89 68h1v1h-1zM92 70h1v1h-1z" /><path fill="#2d9e4b" d="M1 61h1v1h-1z" /><path fill="#299c49" d="M26 61h1v1h-1zM24 62h1v1h-1zM21 64h1v1h-1zM19 65h1v1h-1zM14 68h1v1h-1zM12 69h1v1h-1zM7 72h1v1h-1z" /><path fill="#379c51" d="M27 61h1v1h-1z" /><path fill="#fdfcfa" d="M28 61h1v1h-1z" /><path fill="#e0ecfc" d="M66 61h1v1h-1zM61 66h1v1h-1z" /><path fill="#fbc321" d="M72 61h1v1h-1zM84 85h1v1h-1z" /><path fill="#299b49" d="M25 62h3v1h-3zM23 63h4v1h-4zM22 64h3v1h-3zM20 65h3v1h-3zM18 66h3v1h-3zM16 67h4v1h-4zM15 68h3v1h-3zM13 69h3v1h-3zM11 70h4v1h-4zM9 71h4v1h-4zM8 72h3v1h-3zM7 73h2v1h-2zM7 74h1v1h-1z" /><path fill="#9acca6" d="M28 62h1v1h-1z" /><path fill="#b5d2f8" d="M65 62h1v1h-1z" /><path fill="#f7df8e" d="M71 62h1v1h-1z" /><path fill="#299b48" d="M27 63h1v1h-1zM25 64h3v1h-3zM23 65h3v1h-3zM21 66h4v1h-4zM20 67h3v1h-3zM18 68h3v1h-3zM16 69h4v1h-4zM15 70h3v1h-3zM13 71h3v1h-3zM11 72h3v1h-3zM9 73h4v1h-4zM8 74h3v1h-3zM8 75h1v1h-1z" /><path fill="#2a9b49" d="M28 63h1v1h-1z" /><path fill="#eaf5ec" d="M29 63h1v1h-1z" /><path fill="#9fc4f5" d="M35 63h1v1h-1z" /><path fill="#9ac1f5" d="M64 63h1v1h-1z" /><path fill="#f0f5ea" d="M70 63h1v1h-1z" /><path fill="#efc01f" d="M71 63h1v1h-1z" /><path fill="#fbc21b" d="M72 63h1v1h-1zM71 64h4v1h-4zM73 65h4v1h-4zM75 66h3v1h-3zM76 67h4v1h-4zM78 68h4v1h-4zM80 69h4v1h-4zM82 70h3v1h-3zM83 71h4v1h-4zM85 72h4v1h-4zM87 73h3v1h-3zM89 74h3v1h-3zM90 75h2v1h-2z" /><path fill="#2b9e4a" d="M2 64h1v1h-1z" /><path fill="#299a48" d="M28 64h1v1h-1zM26 65h1v1h-1zM23 67h1v1h-1zM21 68h1v1h-1zM16 71h1v1h-1zM14 72h1v1h-1zM11 74h1v1h-1zM9 75h1v1h-1z" /><path fill="#43a75f" d="M29 64h1v1h-1z" /><path fill="#c4bf4e" d="M70 64h1v1h-1z" /><path fill="#289a48" d="M27 65h3v1h-3zM25 66h5v1h-5zM24 67h4v1h-4zM22 68h4v1h-4zM20 69h4v1h-4zM18 70h5v1h-5zM17 71h4v1h-4zM15 72h4v1h-4zM6 73h1v1h-1zM13 73h5v1h-5zM12 74h4v1h-4zM10 75h4v1h-4zM8 76h4v1h-4zM8 77h3v1h-3z" /><path fill="#8ac89c" d="M30 65h1v1h-1z" /><path fill="#b6d3f8" d="M62 65h1v1h-1z" /><path fill="#9fca97" d="M69 65h1v1h-1z" /><path fill="#f3c21e" d="M70 65h1v1h-1z" /><path fill="#fbc21c" d="M71 65h2v1h-2zM73 66h2v1h-2zM75 67h1v1h-1zM76 68h2v1h-2zM78 69h2v1h-2zM80 70h2v1h-2zM82 71h1v1h-1zM83 72h2v1h-2zM85 73h2v1h-2zM87 74h2v1h-2zM88 75h2v1h-2zM90 76h2v1h-2z" /><path fill="#279a47" d="M30 66h1v1h-1z" /><path fill="#b1d9bc" d="M31 66h1v1h-1z" /><path fill="#5597ee" d="M60 66h1v1h-1z" /><path fill="#a8d4b5" d="M68 66h1v1h-1z" /><path fill="#9dae2e" d="M69 66h1v1h-1z" /><path fill="#fcc31d" d="M70 66h1v1h-1zM70 67h3v1h-3zM71 68h4v1h-4zM73 69h3v1h-3zM74 70h4v1h-4zM76 71h4v1h-4zM78 72h3v1h-3zM80 73h3v1h-3zM81 74h4v1h-4zM83 75h4v1h-4zM85 76h3v1h-3zM87 77h3v1h-3zM88 78h2v1h-2z" /><path fill="#fcc31c" d="M71 66h2v1h-2zM73 67h2v1h-2zM75 68h1v1h-1zM76 69h2v1h-2zM78 70h2v1h-2zM80 71h2v1h-2zM81 72h2v1h-2zM83 73h2v1h-2zM85 74h2v1h-2zM87 75h1v1h-1zM88 76h2v1h-2zM90 77h2v1h-2z" /><path fill="#2b9c49" d="M3 67h1v1h-1z" /><path fill="#289a47" d="M28 67h2v1h-2zM26 68h2v1h-2zM24 69h2v1h-2zM23 70h1v1h-1zM21 71h2v1h-2zM19 72h2v1h-2zM18 73h1v1h-1zM16 74h2v1h-2zM14 75h2v1h-2zM12 76h2v1h-2zM11 77h1v1h-1zM10 78h1v1h-1z" /><path fill="#289947" d="M30 67h1v1h-1zM28 68h2v1h-2zM26 69h2v1h-2zM24 70h2v1h-2zM23 71h2v1h-2zM21 72h2v1h-2zM19 73h2v1h-2zM18 74h1v1h-1zM16 75h2v1h-2zM14 76h2v1h-2zM12 77h2v1h-2zM11 78h1v1h-1zM10 79h1v1h-1z" /><path fill="#289948" d="M31 67h1v1h-1z" /><path fill="#c6e4cf" d="M32 67h1v1h-1z" /><path fill="#b0cff7" d="M40 67h1v1h-1z" /><path fill="#408aec" d="M58 67h1v1h-1z" /><path fill="#b2d0f7" d="M59 67h1v1h-1z" /><path fill="#c1e0ca" d="M67 67h1v1h-1z" /><path fill="#379842" d="M68 67h1v1h-1z" /><path fill="#fac21d" d="M69 67h1v1h-1z" /><path fill="#279947" d="M30 68h2v1h-2zM28 69h5v1h-5zM26 70h5v1h-5zM25 71h4v1h-4zM23 72h5v1h-5zM21 73h5v1h-5zM19 74h5v1h-5zM18 75h4v1h-4zM16 76h5v1h-5zM14 77h5v1h-5zM12 78h5v1h-5zM11 79h4v1h-4zM11 80h3v1h-3zM11 81h1v1h-1z" /><path fill="#269847" d="M32 68h1v1h-1z" /><path fill="#aed9b9" d="M33 68h1v1h-1z" /><path fill="#64a0ef" d="M43 68h1v1h-1z" /><path fill="#abd6b7" d="M66 68h1v1h-1z" /><path fill="#239442" d="M67 68h1v1h-1zM57 74h1v1h-1zM55 75h1v1h-1zM50 78h1v1h-1zM48 79h1v1h-1zM43 82h1v1h-1zM41 83h1v1h-1zM36 86h1v1h-1zM31 89h1v1h-1zM21 90h1v1h-1zM29 90h1v1h-1z" /><path fill="#c5b727" d="M68 68h1v1h-1z" /><path fill="#fcc31e" d="M69 68h2v1h-2zM69 69h4v1h-4zM71 70h3v1h-3zM73 71h3v1h-3zM74 72h4v1h-4zM76 73h4v1h-4zM78 74h3v1h-3zM79 75h4v1h-4zM81 76h4v1h-4zM83 77h4v1h-4zM85 78h3v1h-3zM86 79h4v1h-4zM88 80h1v1h-1z" /><path fill="#299c4a" d="M4 69h1v1h-1z" /><path fill="#269846" d="M33 69h1v1h-1zM34 70h1v1h-1zM32 71h4v1h-4zM31 72h3v1h-3zM29 73h4v1h-4zM27 74h4v1h-4zM26 75h3v1h-3zM24 76h3v1h-3zM22 77h4v1h-4zM20 78h4v1h-4zM19 79h3v1h-3zM17 80h4v1h-4zM15 81h4v1h-4zM13 82h4v1h-4zM14 83h1v1h-1z" /><path fill="#8cc89c" d="M34 69h1v1h-1z" /><path fill="#95bef4" d="M46 69h1v1h-1zM53 69h1v1h-1z" /><path fill="#5b9bee" d="M48 69h1v1h-1zM51 69h1v1h-1z" /><path fill="#83c394" d="M65 69h1v1h-1z" /><path fill="#239241" d="M66 69h1v1h-1z" /><path fill="#4d9c3c" d="M67 69h1v1h-1z" /><path fill="#fcc31f" d="M68 69h1v1h-1zM68 70h3v1h-3zM69 71h4v1h-4zM71 72h3v1h-3zM72 73h4v1h-4zM74 74h4v1h-4zM76 75h3v1h-3zM78 76h3v1h-3zM79 77h4v1h-4zM81 78h4v1h-4zM83 79h3v1h-3zM85 80h3v1h-3zM86 81h3v1h-3z" /><path fill="#fac117" d="M95 69h1v1h-1z" /><path fill="#299d49" d="M4 70h1v1h-1z" /><path fill="#279846" d="M31 70h3v1h-3zM29 71h3v1h-3zM28 72h3v1h-3zM26 73h3v1h-3zM24 74h3v1h-3zM23 75h3v1h-3zM21 76h3v1h-3zM19 77h3v1h-3zM17 78h3v1h-3zM16 79h3v1h-3zM14 80h3v1h-3zM12 81h3v1h-3z" /><path fill="#41a55c" d="M35 70h1v1h-1z" /><path fill="#e7f3ea" d="M36 70h1v1h-1z" /><path fill="#eaf5ed" d="M63 70h1v1h-1z" /><path fill="#40a15a" d="M64 70h1v1h-1z" /><path fill="#239342" d="M65 70h1v1h-1zM58 74h1v1h-1zM56 75h1v1h-1zM54 76h1v1h-1zM52 77h2v1h-2zM51 78h1v1h-1zM49 79h1v1h-1zM47 80h1v1h-1zM45 81h2v1h-2zM44 82h1v1h-1zM42 83h1v1h-1zM40 84h1v1h-1zM38 85h2v1h-2zM37 86h1v1h-1zM35 87h1v1h-1zM33 88h1v1h-1zM32 89h1v1h-1zM30 90h1v1h-1zM28 91h1v1h-1zM24 92h1v1h-1zM26 92h2v1h-2z" /><path fill="#229342" d="M66 70h1v1h-1zM64 71h2v1h-2zM62 72h3v1h-3zM60 73h5v1h-5zM59 74h5v1h-5zM57 75h5v1h-5zM55 76h6v1h-6zM54 77h5v1h-5zM52 78h5v1h-5zM50 79h6v1h-6zM48 80h6v1h-6zM47 81h5v1h-5zM45 82h5v1h-5zM43 83h6v1h-6zM41 84h6v1h-6zM40 85h5v1h-5zM38 86h5v1h-5zM36 87h6v1h-6zM34 88h6v1h-6zM33 89h5v1h-5zM31 90h5v1h-5zM29 91h6v1h-6zM28 92h5v1h-5zM27 93h4v1h-4zM29 94h1v1h-1z" /><path fill="#e4be22" d="M67 70h1v1h-1z" /><path fill="#fbc017" d="M95 70h1v1h-1z" /><path fill="#2a9b48" d="M5 71h1v1h-1zM5 72h1v1h-1z" /><path fill="#289747" d="M36 71h1v1h-1z" /><path fill="#98cda8" d="M37 71h1v1h-1z" /><path fill="#fcfdfd" d="M38 71h1v1h-1zM61 71h1v1h-1zM40 72h1v1h-1z" /><path fill="#94caa2" d="M62 71h1v1h-1z" /><path fill="#239242" d="M63 71h1v1h-1z" /><path fill="#77a633" d="M66 71h1v1h-1z" /><path fill="#fcc420" d="M67 71h1v1h-1zM67 72h3v1h-3zM69 73h3v1h-3zM71 74h2v1h-2zM72 75h3v1h-3zM74 76h3v1h-3zM76 77h3v1h-3zM77 78h3v1h-3zM79 79h3v1h-3zM81 80h3v1h-3zM83 81h3v1h-3zM84 82h3v1h-3z" /><path fill="#fcc320" d="M68 71h1v1h-1zM70 72h1v1h-1zM73 74h1v1h-1zM75 75h1v1h-1zM77 76h1v1h-1zM80 78h1v1h-1zM82 79h1v1h-1zM84 80h1v1h-1z" /><path fill="#fac218" d="M94 71h1v1h-1z" /><path fill="#269746" d="M34 72h2v1h-2zM33 73h1v1h-1zM31 74h1v1h-1zM29 75h2v1h-2zM27 76h2v1h-2zM26 77h1v1h-1zM24 78h1v1h-1zM22 79h2v1h-2zM21 80h1v1h-1zM19 81h1v1h-1zM17 82h1v1h-1zM15 83h2v1h-2z" /><path fill="#269745" d="M36 72h2v1h-2zM34 73h3v1h-3zM32 74h3v1h-3zM31 75h2v1h-2zM29 76h3v1h-3zM27 77h3v1h-3zM25 78h3v1h-3zM24 79h2v1h-2zM22 80h3v1h-3zM20 81h3v1h-3zM18 82h3v1h-3zM17 83h3v1h-3zM15 84h3v1h-3z" /><path fill="#2d9a4a" d="M38 72h1v1h-1z" /><path fill="#9ccfaa" d="M39 72h1v1h-1z" /><path fill="#fbfdfc" d="M59 72h1v1h-1z" /><path fill="#9dcfac" d="M60 72h1v1h-1z" /><path fill="#2a9648" d="M61 72h1v1h-1z" /><path fill="#269342" d="M65 72h1v1h-1z" /><path fill="#f6c221" d="M66 72h1v1h-1z" /><path fill="#fac219" d="M94 72h1v1h-1z" /><path fill="#259745" d="M37 73h2v1h-2zM35 74h3v1h-3zM33 75h3v1h-3zM32 76h2v1h-2zM30 77h2v1h-2zM28 78h3v1h-3zM26 79h3v1h-3zM25 80h2v1h-2zM23 81h2v1h-2zM21 82h3v1h-3zM20 83h2v1h-2zM18 84h2v1h-2zM16 85h3v1h-3z" /><path fill="#259645" d="M39 73h1v1h-1zM38 74h3v1h-3zM36 75h3v1h-3zM34 76h3v1h-3zM32 77h3v1h-3zM31 78h3v1h-3zM29 79h3v1h-3zM27 80h3v1h-3zM25 81h3v1h-3zM24 82h3v1h-3zM22 83h3v1h-3zM14 84h1v1h-1zM20 84h3v1h-3zM19 85h3v1h-3zM17 86h3v1h-3z" /><path fill="#289748" d="M40 73h1v1h-1z" /><path fill="#66b57c" d="M41 73h1v1h-1z" /><path fill="#d0e8d7" d="M42 73h1v1h-1z" /><path fill="#cde6d4" d="M57 73h1v1h-1z" /><path fill="#64b279" d="M58 73h1v1h-1z" /><path fill="#279545" d="M59 73h1v1h-1z" /><path fill="#a7b12d" d="M65 73h1v1h-1z" /><path fill="#fcc421" d="M66 73h3v1h-3zM67 74h4v1h-4zM69 75h3v1h-3zM70 76h4v1h-4zM72 77h4v1h-4zM74 78h3v1h-3zM76 79h3v1h-3zM77 80h4v1h-4zM79 81h4v1h-4zM81 82h3v1h-3zM82 83h4v1h-4zM84 84h1v1h-1z" /><path fill="#fac119" d="M93 73h1v1h-1z" /><path fill="#289a49" d="M6 74h1v1h-1z" /><path fill="#259644" d="M41 74h2v1h-2zM39 75h2v1h-2zM37 76h3v1h-3zM35 77h3v1h-3zM34 78h2v1h-2zM32 79h2v1h-2zM30 80h3v1h-3zM28 81h3v1h-3zM27 82h2v1h-2zM25 83h2v1h-2zM23 84h3v1h-3zM15 85h1v1h-1zM22 85h2v1h-2zM20 86h2v1h-2zM17 87h3v1h-3z" /><path fill="#289846" d="M43 74h1v1h-1z" /><path fill="#48a663" d="M44 74h1v1h-1z" /><path fill="#7ec090" d="M45 74h1v1h-1z" /><path fill="#b8dcc3" d="M46 74h1v1h-1z" /><path fill="#d9ecde" d="M47 74h1v1h-1z" /><path fill="#ebf5ee" d="M48 74h1v1h-1zM51 74h1v1h-1z" /><path fill="#fbfcfb" d="M49 74h2v1h-2z" /><path fill="#d7ecdd" d="M52 74h1v1h-1z" /><path fill="#b7dcc2" d="M53 74h1v1h-1z" /><path fill="#7dbf90" d="M54 74h1v1h-1z" /><path fill="#47a561" d="M55 74h1v1h-1z" /><path fill="#259545" d="M56 74h1v1h-1z" /><path fill="#35963e" d="M64 74h1v1h-1z" /><path fill="#fcc422" d="M65 74h2v1h-2zM65 75h4v1h-4zM67 76h3v1h-3zM69 77h3v1h-3zM70 78h4v1h-4zM72 79h4v1h-4zM74 80h3v1h-3zM75 81h4v1h-4zM77 82h4v1h-4zM79 83h3v1h-3zM81 84h3v1h-3zM82 85h2v1h-2z" /><path fill="#289b48" d="M7 75h1v1h-1z" /><path fill="#279946" d="M22 75h1v1h-1zM15 79h1v1h-1zM10 80h1v1h-1z" /><path fill="#249644" d="M41 75h1v1h-1zM40 76h1v1h-1zM38 77h1v1h-1zM36 78h1v1h-1zM34 79h2v1h-2zM33 80h1v1h-1zM31 81h1v1h-1zM29 82h1v1h-1zM27 83h2v1h-2zM26 84h1v1h-1zM24 85h1v1h-1zM22 86h1v1h-1zM20 87h2v1h-2zM19 88h1v1h-1z" /><path fill="#249544" d="M42 75h5v1h-5zM41 76h4v1h-4zM39 77h5v1h-5zM37 78h5v1h-5zM36 79h4v1h-4zM34 80h4v1h-4zM32 81h5v1h-5zM30 82h5v1h-5zM29 83h4v1h-4zM27 84h4v1h-4zM25 85h5v1h-5zM23 86h5v1h-5zM22 87h4v1h-4zM20 88h5v1h-5zM20 89h3v1h-3z" /><path fill="#249543" d="M47 75h2v1h-2zM45 76h2v1h-2zM44 77h2v1h-2zM42 78h2v1h-2zM40 79h2v1h-2zM38 80h2v1h-2zM37 81h2v1h-2zM35 82h2v1h-2zM33 83h2v1h-2zM31 84h3v1h-3zM30 85h2v1h-2zM28 86h2v1h-2zM26 87h2v1h-2zM25 88h2v1h-2zM23 89h2v1h-2zM22 90h1v1h-1z" /><path fill="#239443" d="M49 75h6v1h-6zM47 76h7v1h-7zM46 77h6v1h-6zM44 78h6v1h-6zM42 79h6v1h-6zM40 80h7v1h-7zM39 81h6v1h-6zM37 82h6v1h-6zM35 83h6v1h-6zM34 84h6v1h-6zM32 85h6v1h-6zM30 86h6v1h-6zM28 87h7v1h-7zM27 88h6v1h-6zM25 89h6v1h-6zM23 90h6v1h-6zM23 91h5v1h-5zM25 92h1v1h-1z" /><path fill="#229242" d="M62 75h1v1h-1zM61 76h1v1h-1zM59 77h1v1h-1zM57 78h1v1h-1zM56 79h1v1h-1zM54 80h1v1h-1zM52 81h1v1h-1zM50 82h1v1h-1zM49 83h1v1h-1zM47 84h1v1h-1zM45 85h1v1h-1zM43 86h2v1h-2zM42 87h1v1h-1zM40 88h1v1h-1zM38 89h1v1h-1zM36 90h2v1h-2zM35 91h1v1h-1zM33 92h1v1h-1zM25 93h1v1h-1zM31 93h1v1h-1zM27 94h1v1h-1zM30 94h1v1h-1z" /><path fill="#219242" d="M63 75h1v1h-1z" /><path fill="#d0b928" d="M64 75h1v1h-1z" /><path fill="#229241" d="M62 76h1v1h-1zM60 77h1v1h-1zM58 78h2v1h-2zM57 79h1v1h-1zM55 80h1v1h-1zM53 81h1v1h-1zM51 82h2v1h-2zM50 83h1v1h-1zM48 84h1v1h-1zM46 85h2v1h-2zM45 86h1v1h-1zM43 87h1v1h-1zM41 88h1v1h-1zM39 89h2v1h-2zM38 90h1v1h-1zM36 91h1v1h-1zM34 92h1v1h-1zM32 93h2v1h-2zM28 94h1v1h-1zM31 94h1v1h-1z" /><path fill="#579e38" d="M63 76h1v1h-1z" /><path fill="#fcc423" d="M64 76h3v1h-3zM65 77h4v1h-4zM67 78h3v1h-3zM69 79h3v1h-3zM71 80h3v1h-3zM72 81h3v1h-3zM74 82h3v1h-3zM76 83h3v1h-3zM77 84h4v1h-4zM79 85h3v1h-3zM81 86h2v1h-2z" /><path fill="#219241" d="M61 77h1v1h-1zM60 78h2v1h-2zM58 79h3v1h-3zM56 80h4v1h-4zM54 81h5v1h-5zM53 82h4v1h-4zM51 83h4v1h-4zM49 84h5v1h-5zM48 85h4v1h-4zM46 86h4v1h-4zM44 87h4v1h-4zM42 88h5v1h-5zM41 89h4v1h-4zM39 90h4v1h-4zM37 91h4v1h-4zM35 92h5v1h-5zM34 93h4v1h-4zM32 94h4v1h-4zM31 95h3v1h-3zM32 96h1v1h-1z" /><path fill="#229240" d="M62 77h1v1h-1z" /><path fill="#eac127" d="M63 77h1v1h-1z" /><path fill="#fcc524" d="M64 77h1v1h-1zM63 78h4v1h-4zM65 79h3v1h-3zM66 80h4v1h-4zM68 81h4v1h-4zM70 82h4v1h-4zM72 83h3v1h-3zM73 84h4v1h-4zM75 85h4v1h-4zM77 86h3v1h-3zM79 87h3v1h-3zM80 88h1v1h-1z" /><path fill="#279a46" d="M9 78h1v1h-1z" /><path fill="#83a934" d="M62 78h1v1h-1z" /><path fill="#fbc31c" d="M90 78h1v1h-1z" /><path fill="#28933f" d="M61 79h1v1h-1z" /><path fill="#f8c424" d="M62 79h1v1h-1z" /><path fill="#fcc525" d="M63 79h2v1h-2zM63 80h3v1h-3zM65 81h3v1h-3zM66 82h4v1h-4zM68 83h4v1h-4zM70 84h3v1h-3zM72 85h3v1h-3zM73 86h4v1h-4zM75 87h4v1h-4zM77 88h3v1h-3zM78 89h2v1h-2z" /><path fill="#fcc523" d="M68 79h1v1h-1zM70 80h1v1h-1zM75 83h1v1h-1zM80 86h1v1h-1z" /><path fill="#219141" d="M60 80h1v1h-1zM59 81h1v1h-1zM57 82h2v1h-2zM55 83h3v1h-3zM54 84h2v1h-2zM52 85h3v1h-3zM50 86h3v1h-3zM48 87h3v1h-3zM47 88h2v1h-2zM45 89h3v1h-3zM43 90h3v1h-3zM41 91h3v1h-3zM40 92h2v1h-2zM38 93h3v1h-3zM36 94h3v1h-3zM29 95h1v1h-1zM34 95h3v1h-3zM33 96h2v1h-2z" /><path fill="#b5b42f" d="M61 80h1v1h-1z" /><path fill="#fcc526" d="M62 80h1v1h-1zM61 81h4v1h-4zM63 82h3v1h-3zM64 83h4v1h-4zM66 84h4v1h-4zM68 85h4v1h-4zM70 86h3v1h-3zM71 87h4v1h-4zM73 88h4v1h-4zM75 89h3v1h-3zM77 90h1v1h-1z" /><path fill="#fbc31d" d="M89 80h1v1h-1z" /><path fill="#3e973d" d="M60 81h1v1h-1z" /><path fill="#279845" d="M12 82h1v1h-1z" /><path fill="#209140" d="M59 82h1v1h-1zM57 84h1v1h-1zM55 85h3v1h-3zM54 86h3v1h-3zM52 87h3v1h-3zM50 88h3v1h-3zM49 89h3v1h-3zM47 90h3v1h-3zM45 91h3v1h-3zM43 92h3v1h-3zM42 93h3v1h-3zM40 94h3v1h-3zM38 95h3v1h-3zM36 96h3v1h-3zM36 97h2v1h-2z" /><path fill="#d8bc2a" d="M60 82h1v1h-1z" /><path fill="#fcc527" d="M61 82h2v1h-2zM62 83h2v1h-2zM64 84h2v1h-2zM66 85h2v1h-2zM68 86h2v1h-2zM69 87h2v1h-2zM71 88h2v1h-2zM73 89h2v1h-2zM75 90h2v1h-2zM76 91h1v1h-1z" /><path fill="#fbc21f" d="M87 82h1v1h-1z" /><path fill="#259846" d="M13 83h1v1h-1z" /><path fill="#219140" d="M58 83h1v1h-1zM56 84h1v1h-1zM53 86h1v1h-1zM51 87h1v1h-1zM49 88h1v1h-1zM48 89h1v1h-1zM46 90h1v1h-1zM44 91h1v1h-1zM42 92h1v1h-1zM41 93h1v1h-1zM39 94h1v1h-1zM37 95h1v1h-1zM35 96h1v1h-1z" /><path fill="#62a039" d="M59 83h1v1h-1z" /><path fill="#fcc628" d="M60 83h1v1h-1zM60 84h3v1h-3zM61 85h3v1h-3zM62 86h4v1h-4zM64 87h4v1h-4zM66 88h4v1h-4zM68 89h3v1h-3zM69 90h4v1h-4zM71 91h4v1h-4zM73 92h2v1h-2z" /><path fill="#fcc627" d="M61 83h1v1h-1zM63 84h1v1h-1zM64 85h2v1h-2zM66 86h2v1h-2zM68 87h1v1h-1zM70 88h1v1h-1zM71 89h2v1h-2zM73 90h2v1h-2zM75 91h1v1h-1z" /><path fill="#fbc41f" d="M86 83h1v1h-1z" /><path fill="#21923f" d="M58 84h1v1h-1z" /><path fill="#efc22a" d="M59 84h1v1h-1z" /><path fill="#fbc320" d="M85 84h1v1h-1z" /><path fill="#90aa34" d="M58 85h1v1h-1z" /><path fill="#fcc629" d="M59 85h2v1h-2zM59 86h3v1h-3zM61 87h3v1h-3zM62 88h4v1h-4zM64 89h4v1h-4zM66 90h3v1h-3zM67 91h4v1h-4zM69 92h4v1h-4zM71 93h2v1h-2z" /><path fill="#249645" d="M16 86h1v1h-1z" /><path fill="#2a933e" d="M57 86h1v1h-1z" /><path fill="#f9c42b" d="M58 86h1v1h-1z" /><path fill="#fbc423" d="M83 86h1v1h-1z" /><path fill="#209040" d="M55 87h1v1h-1zM53 88h3v1h-3zM52 89h3v1h-3zM50 90h4v1h-4zM48 91h4v1h-4zM46 92h5v1h-5zM45 93h4v1h-4zM43 94h4v1h-4zM41 95h4v1h-4zM39 96h5v1h-5zM38 97h4v1h-4z" /><path fill="#208f40" d="M56 87h1v1h-1z" /><path fill="#c0b730" d="M57 87h1v1h-1z" /><path fill="#fcc62a" d="M58 87h3v1h-3zM59 88h3v1h-3zM60 89h4v1h-4zM62 90h4v1h-4zM64 91h3v1h-3zM66 92h3v1h-3zM67 93h4v1h-4zM69 94h2v1h-2z" /><path fill="#fbc523" d="M82 87h1v1h-1z" /><path fill="#259643" d="M18 88h1v1h-1z" /><path fill="#44983c" d="M56 88h1v1h-1z" /><path fill="#fcc72b" d="M57 88h1v1h-1zM57 89h2v1h-2zM59 90h2v1h-2zM60 91h3v1h-3zM62 92h3v1h-3zM64 93h2v1h-2zM65 94h3v1h-3zM67 95h2v1h-2zM67 96h1v1h-1z" /><path fill="#fcc62b" d="M58 88h1v1h-1zM59 89h1v1h-1zM61 90h1v1h-1zM63 91h1v1h-1zM65 92h1v1h-1zM66 93h1v1h-1zM68 94h1v1h-1z" /><path fill="#fcc424" d="M81 88h1v1h-1z" /><path fill="#239444" d="M19 89h1v1h-1z" /><path fill="#20903f" d="M55 89h1v1h-1zM54 90h1v1h-1zM52 91h1v1h-1zM47 94h1v1h-1zM45 95h1v1h-1zM42 97h1v1h-1zM40 98h1v1h-1z" /><path fill="#e0c02e" d="M56 89h1v1h-1z" /><path fill="#fbc524" d="M80 89h1v1h-1z" /><path fill="#6ca339" d="M55 90h1v1h-1z" /><path fill="#fcc72c" d="M56 90h3v1h-3zM57 91h3v1h-3zM58 92h4v1h-4zM60 93h4v1h-4zM62 94h3v1h-3zM64 95h3v1h-3zM65 96h2v1h-2z" /><path fill="#fbc426" d="M78 90h1v1h-1z" /><path fill="#229343" d="M22 91h1v1h-1z" /><path fill="#1f903f" d="M53 91h1v1h-1zM51 92h2v1h-2zM49 93h2v1h-2zM48 94h2v1h-2zM46 95h2v1h-2zM44 96h2v1h-2zM43 97h1v1h-1zM38 98h1v1h-1zM41 98h2v1h-2z" /><path fill="#22903e" d="M54 91h1v1h-1z" /><path fill="#f3c42c" d="M55 91h1v1h-1z" /><path fill="#fcc72d" d="M56 91h1v1h-1zM55 92h3v1h-3zM57 93h3v1h-3zM58 94h4v1h-4zM60 95h4v1h-4zM62 96h3v1h-3zM63 97h1v1h-1z" /><path fill="#fcc427" d="M77 91h1v1h-1z" /><path fill="#1f8f3f" d="M53 92h1v1h-1zM51 93h2v1h-2zM50 94h2v1h-2zM48 95h4v1h-4zM46 96h5v1h-5zM44 97h6v1h-6zM43 98h5v1h-5z" /><path fill="#9daf35" d="M54 92h1v1h-1z" /><path fill="#fbc527" d="M75 92h1v1h-1z" /><path fill="#219341" d="M26 93h1v1h-1z" /><path fill="#2e933e" d="M53 93h1v1h-1z" /><path fill="#fcc72e" d="M54 93h3v1h-3zM55 94h3v1h-3zM57 95h3v1h-3zM58 96h4v1h-4zM60 97h3v1h-3z" /><path fill="#fbc528" d="M73 93h1v1h-1z" /><path fill="#fbc628" d="M74 93h1v1h-1z" /><path fill="#1f8e3e" d="M52 94h1v1h-1zM44 99h1v1h-1z" /><path fill="#cbbb32" d="M53 94h1v1h-1z" /><path fill="#fcc82f" d="M54 94h1v1h-1zM53 95h3v1h-3zM55 96h3v1h-3zM56 97h4v1h-4zM58 98h2v1h-2z" /><path fill="#fbc62a" d="M71 94h1v1h-1z" /><path fill="#fbc52a" d="M72 94h1v1h-1z" /><path fill="#219240" d="M30 95h1v1h-1z" /><path fill="#4e9b3c" d="M52 95h1v1h-1z" /><path fill="#fcc82e" d="M56 95h1v1h-1z" /><path fill="#fbc72b" d="M69 95h1v1h-1z" /><path fill="#fbc62b" d="M70 95h1v1h-1z" /><path fill="#1f8f3e" d="M51 96h1v1h-1zM48 98h1v1h-1zM45 99h1v1h-1z" /><path fill="#e7c230" d="M52 96h1v1h-1z" /><path fill="#fcc830" d="M53 96h2v1h-2zM53 97h3v1h-3zM54 98h4v1h-4z" /><path fill="#20913f" d="M34 97h1v1h-1z" /><path fill="#1f913f" d="M35 97h1v1h-1z" /><path fill="#1e8f3e" d="M50 97h1v1h-1z" /><path fill="#76a338" d="M51 97h1v1h-1z" /><path fill="#fcc831" d="M52 97h1v1h-1zM52 98h2v1h-2zM54 99h1v1h-1z" /><path fill="#fcc62d" d="M64 97h1v1h-1z" /><path fill="#fbc62c" d="M65 97h1v1h-1z" /><path fill="#208f3f" d="M39 98h1v1h-1z" /><path fill="#1e8e3e" d="M49 98h1v1h-1zM48 99h1v1h-1z" /><path fill="#238f3e" d="M50 98h1v1h-1z" /><path fill="#f6c530" d="M51 98h1v1h-1z" /><path fill="#fbc82e" d="M60 98h1v1h-1z" /><path fill="#fbc72e" d="M61 98h1v1h-1z" /><path fill="#1f8e3f" d="M43 99h1v1h-1zM46 99h1v1h-1z" /><path fill="#1e8e3d" d="M47 99h1v1h-1z" /><path fill="#1e8d3e" d="M49 99h1v1h-1z" /><path fill="#a9b236" d="M50 99h1v1h-1z" /><path fill="#fbc832" d="M51 99h1v1h-1z" /><path fill="#fbc730" d="M52 99h1v1h-1z" /><path fill="#fcc731" d="M55 99h1v1h-1z" /><path fill="#fbc82f" d="M56 99h1v1h-1z" /></svg>