<svg xmlns="http://www.w3.org/2000/svg" viewBox="0 0 100 100" width="1em" height="1em"><path fill="#00e6e6" d="M28 17h1v1h-1zM32 17h1v1h-1zM25 19h1v1h-1zM34 19h1v1h-1zM24 20h1v1h-1zM34 24h1v1h-1zM33 25h1v1h-1zM18 26h1v1h-1zM32 26h1v1h-1zM17 27h1v1h-1zM31 27h1v1h-1zM16 28h1v1h-1zM30 28h1v1h-1zM15 29h1v1h-1zM29 29h1v1h-1zM28 30h1v1h-1zM27 31h1v1h-1zM26 32h1v1h-1zM25 33h1v1h-1zM10 34h1v1h-1zM9 35h1v1h-1zM8 36h1v1h-1zM7 37h1v1h-1zM6 38h1v1h-1zM15 44h1v1h-1zM0 46h1v1h-1zM15 48h1v1h-1zM1 49h1v1h-1zM17 51h1v1h-1zM41 51h1v1h-1zM58 51h1v1h-1zM18 52h1v1h-1zM40 52h1v1h-1zM5 53h1v1h-1zM19 53h1v1h-1zM40 53h1v1h-1zM59 53h1v1h-1zM6 54h1v1h-1zM20 54h1v1h-1zM21 55h1v1h-1zM22 56h1v1h-1zM23 57h1v1h-1zM58 57h1v1h-1zM24 58h1v1h-1zM57 58h1v1h-1zM11 59h1v1h-1zM25 59h1v1h-1zM26 60h1v1h-1zM27 61h1v1h-1zM54 61h1v1h-1zM28 62h1v1h-1zM53 62h1v1h-1zM29 63h1v1h-1zM38 63h1v1h-1zM52 63h1v1h-1zM16 64h1v1h-1zM30 64h1v1h-1zM37 64h1v1h-1zM51 64h1v1h-1zM17 65h1v1h-1zM33 65h2v1h-2zM18 66h1v1h-1zM49 66h1v1h-1zM19 67h1v1h-1zM48 67h1v1h-1zM20 68h1v1h-1zM47 68h1v1h-1zM21 69h1v1h-1zM46 69h1v1h-1zM22 70h1v1h-1zM45 70h1v1h-1zM23 71h1v1h-1zM24 72h1v1h-1zM25 73h1v1h-1zM29 77h1v1h-1zM30 78h1v1h-1zM31 79h1v1h-1zM36 79h1v1h-1zM34 80h1v1h-1z" /><path fill="#00e7e7" d="M29 17h3v1h-3zM26 18h8v1h-8zM26 19h8v1h-8zM25 20h10v1h-10zM23 21h12v1h-12zM22 22h13v1h-13zM21 23h14v1h-14zM20 24h14v1h-14zM19 25h14v1h-14zM19 26h13v1h-13zM18 27h13v1h-13zM17 28h13v1h-13zM16 29h13v1h-13zM14 30h14v1h-14zM13 31h14v1h-14zM12 32h14v1h-14zM11 33h14v1h-14zM11 34h14v1h-14zM10 35h14v1h-14zM9 36h14v1h-14zM8 37h14v1h-14zM7 38h14v1h-14zM5 39h15v1h-15zM4 40h15v1h-15zM3 41h15v1h-15zM2 42h15v1h-15zM1 43h16v1h-16zM1 44h14v1h-14zM0 45h15v1h-15zM1 46h14v1h-14zM0 47h15v1h-15zM1 48h14v1h-14zM2 49h14v1h-14zM2 50h15v1h-15zM3 51h14v1h-14zM42 51h16v1h-16zM4 52h14v1h-14zM41 52h19v1h-19zM6 53h13v1h-13zM41 53h18v1h-18zM7 54h13v1h-13zM40 54h20v1h-20zM7 55h14v1h-14zM40 55h20v1h-20zM8 56h14v1h-14zM40 56h19v1h-19zM9 57h14v1h-14zM40 57h18v1h-18zM10 58h14v1h-14zM40 58h17v1h-17zM12 59h13v1h-13zM40 59h17v1h-17zM12 60h14v1h-14zM40 60h16v1h-16zM13 61h14v1h-14zM39 61h15v1h-15zM14 62h14v1h-14zM39 62h14v1h-14zM15 63h14v1h-14zM39 63h13v1h-13zM17 64h13v1h-13zM38 64h13v1h-13zM18 65h15v1h-15zM35 65h16v1h-16zM19 66h30v1h-30zM20 67h28v1h-28zM21 68h26v1h-26zM22 69h24v1h-24zM23 70h22v1h-22zM24 71h21v1h-21zM25 72h19v1h-19zM26 73h17v1h-17zM26 74h16v1h-16zM27 75h14v1h-14zM28 76h12v1h-12zM30 77h9v1h-9zM31 78h7v1h-7zM32 79h4v1h-4zM33 80h1v1h-1z" /><path fill="#00beff" d="M64 17h1v1h-1zM67 17h1v1h-1zM63 18h1v1h-1zM62 19h1v1h-1zM69 19h1v1h-1zM61 20h1v1h-1zM70 20h1v1h-1zM60 21h1v1h-1zM71 21h1v1h-1zM72 22h1v1h-1zM58 23h1v1h-1zM73 23h1v1h-1zM57 24h1v1h-1zM74 24h1v1h-1zM56 25h1v1h-1zM75 25h1v1h-1zM55 26h1v1h-1zM76 26h1v1h-1zM77 27h1v1h-1zM78 28h1v1h-1zM79 29h1v1h-1zM80 30h1v1h-1zM65 31h2v1h-2zM81 31h1v1h-1zM82 32h1v1h-1zM62 33h1v1h-1zM69 33h1v1h-1zM83 33h1v1h-1zM47 34h1v1h-1zM61 34h1v1h-1zM70 34h1v1h-1zM84 34h1v1h-1zM46 35h1v1h-1zM71 35h1v1h-1zM45 36h1v1h-1zM72 36h1v1h-1zM44 37h1v1h-1zM73 37h1v1h-1zM43 38h1v1h-1zM74 38h1v1h-1zM75 39h1v1h-1zM41 40h1v1h-1zM76 40h1v1h-1zM90 40h1v1h-1zM40 41h1v1h-1zM77 41h1v1h-1zM91 41h1v1h-1zM78 42h1v1h-1zM92 42h1v1h-1zM79 43h1v1h-1zM93 43h1v1h-1zM59 44h1v1h-1zM80 44h1v1h-1zM94 44h1v1h-1zM81 45h1v1h-1zM95 45h1v1h-1zM42 46h1v1h-1zM44 46h12v1h-12zM82 46h1v1h-1zM96 46h1v1h-1zM83 47h1v1h-1zM97 47h1v1h-1zM84 48h1v1h-1zM99 49h1v1h-1zM99 51h1v1h-1zM83 54h1v1h-1zM82 55h1v1h-1zM96 55h1v1h-1zM95 56h1v1h-1zM94 57h1v1h-1zM93 58h1v1h-1zM92 59h1v1h-1zM91 60h1v1h-1zM76 61h1v1h-1zM90 61h1v1h-1zM75 62h1v1h-1zM89 62h1v1h-1zM74 63h1v1h-1zM88 63h1v1h-1zM73 64h1v1h-1zM87 64h1v1h-1zM67 70h1v1h-1zM65 73h1v1h-1zM78 73h1v1h-1zM77 74h1v1h-1zM76 75h1v1h-1zM75 76h1v1h-1zM65 77h1v1h-1zM72 79h1v1h-1zM69 80h1v1h-1z" /><path fill="#00bfff" d="M65 17h2v1h-2zM64 18h5v1h-5zM63 19h6v1h-6zM62 20h8v1h-8zM61 21h10v1h-10zM59 22h13v1h-13zM59 23h14v1h-14zM58 24h16v1h-16zM57 25h18v1h-18zM56 26h20v1h-20zM54 27h23v1h-23zM53 28h25v1h-25zM52 29h27v1h-27zM51 30h29v1h-29zM50 31h15v1h-15zM67 31h14v1h-14zM49 32h15v1h-15zM68 32h14v1h-14zM48 33h14v1h-14zM70 33h13v1h-13zM48 34h13v1h-13zM71 34h13v1h-13zM47 35h14v1h-14zM72 35h14v1h-14zM46 36h14v1h-14zM73 36h14v1h-14zM45 37h15v1h-15zM74 37h14v1h-14zM44 38h16v1h-16zM75 38h14v1h-14zM42 39h18v1h-18zM76 39h14v1h-14zM42 40h18v1h-18zM77 40h13v1h-13zM41 41h19v1h-19zM78 41h13v1h-13zM40 42h20v1h-20zM79 42h13v1h-13zM40 43h20v1h-20zM80 43h13v1h-13zM40 44h19v1h-19zM81 44h13v1h-13zM41 45h18v1h-18zM82 45h13v1h-13zM43 46h1v1h-1zM56 46h2v1h-2zM83 46h13v1h-13zM84 47h13v1h-13zM85 48h14v1h-14zM85 49h14v1h-14zM85 50h15v1h-15zM85 51h14v1h-14zM85 52h15v1h-15zM84 53h15v1h-15zM84 54h14v1h-14zM83 55h13v1h-13zM81 56h14v1h-14zM80 57h14v1h-14zM79 58h14v1h-14zM78 59h14v1h-14zM77 60h14v1h-14zM77 61h13v1h-13zM76 62h13v1h-13zM75 63h13v1h-13zM74 64h13v1h-13zM72 65h15v1h-15zM71 66h15v1h-15zM70 67h15v1h-15zM69 68h15v1h-15zM68 69h15v1h-15zM68 70h14v1h-14zM66 71h15v1h-15zM65 72h15v1h-15zM66 73h12v1h-12zM65 74h12v1h-12zM65 75h11v1h-11zM65 76h10v1h-10zM66 77h9v1h-9zM66 78h8v1h-8zM67 79h5v1h-5zM70 80h1v1h-1z" /></svg>