<svg xmlns="http://www.w3.org/2000/svg" viewBox="0 0 100 100" width="1em" height="1em"><path fill="#ed4222" d="M48 1h1v1h-1zM51 4h1v1h-1zM52 5h1v1h-1zM48 8h1v1h-1zM54 8h1v1h-1zM55 9h1v1h-1zM45 14h1v1h-1zM41 19h1v1h-1zM34 26h1v1h-1zM55 33h1v1h-1zM24 35h1v1h-1zM70 39h1v1h-1zM19 41h1v1h-1zM18 42h1v1h-1zM66 44h1v1h-1zM43 47h1v1h-1zM38 48h1v1h-1zM86 52h1v1h-1zM8 65h1v1h-1zM33 66h1v1h-1zM8 67h1v1h-1zM33 70h1v1h-1zM8 72h1v1h-1zM35 74h1v1h-1zM42 75h1v1h-1zM39 76h1v1h-1zM89 76h1v1h-1zM23 80h1v1h-1zM85 83h1v1h-1zM23 87h1v1h-1zM26 93h1v1h-1zM69 94h1v1h-1zM30 98h1v1h-1z" /><path fill="#ed4323" d="M48 2h1v1h-1zM56 12h1v1h-1zM46 13h1v1h-1zM57 15h1v1h-1zM38 22h1v1h-1zM74 40h1v1h-1zM80 45h1v1h-1zM85 51h1v1h-1zM38 56h1v1h-1zM88 56h1v1h-1zM39 58h1v1h-1zM57 58h1v1h-1zM9 60h1v1h-1zM62 61h1v1h-1zM63 62h1v1h-1zM45 66h1v1h-1zM68 66h1v1h-1zM71 70h1v1h-1zM26 72h1v1h-1zM8 73h1v1h-1zM26 73h1v1h-1zM34 73h1v1h-1zM44 74h1v1h-1zM37 75h1v1h-1zM40 76h1v1h-1zM74 76h1v1h-1zM74 77h1v1h-1zM86 82h1v1h-1zM13 85h1v1h-1zM74 85h1v1h-1zM16 89h1v1h-1zM74 93h1v1h-1zM73 94h1v1h-1zM69 96h1v1h-1zM30 97h1v1h-1z" /><path fill="#ed4322" d="M49 2h1v1h-1zM50 3h1v1h-1zM46 12h1v1h-1zM43 17h1v1h-1zM37 23h1v1h-1zM57 26h1v1h-1zM56 29h1v1h-1zM55 37h1v1h-1zM72 39h1v1h-1zM42 42h1v1h-1zM41 43h1v1h-1zM67 43h1v1h-1zM15 46h1v1h-1zM14 48h1v1h-1zM45 50h1v1h-1zM85 50h1v1h-1zM48 52h1v1h-1zM88 55h1v1h-1zM53 56h1v1h-1zM89 58h1v1h-1zM89 59h1v1h-1zM41 61h1v1h-1zM90 61h1v1h-1zM32 66h1v1h-1zM8 69h1v1h-1zM29 69h1v1h-1zM72 72h1v1h-1zM24 76h1v1h-1zM9 77h1v1h-1zM74 78h1v1h-1zM88 78h1v1h-1zM23 79h1v1h-1zM88 79h1v1h-1zM14 87h1v1h-1zM77 91h1v1h-1zM25 92h1v1h-1zM20 93h1v1h-1zM28 97h1v1h-1z" /><path fill="#ee4323" d="M49 3h1v1h-1zM49 4h2v1h-2zM49 5h3v1h-3zM49 6h4v1h-4zM48 7h6v1h-6zM49 8h5v1h-5zM48 9h7v1h-7zM48 10h8v1h-8zM48 11h9v1h-9zM47 12h9v1h-9zM47 13h10v1h-10zM46 14h11v1h-11zM44 15h13v1h-13zM45 16h13v1h-13zM44 17h14v1h-14zM43 18h15v1h-15zM42 19h16v1h-16zM41 20h17v1h-17zM40 21h18v1h-18zM39 22h19v1h-19zM38 23h20v1h-20zM36 24h21v1h-21zM36 25h21v1h-21zM35 26h22v1h-22zM34 27h23v1h-23zM32 28h24v1h-24zM31 29h25v1h-25zM30 30h26v1h-26zM29 31h27v1h-27zM28 32h27v1h-27zM27 33h28v1h-28zM26 34h29v1h-29zM25 35h31v1h-31zM24 36h31v1h-31zM23 37h32v1h-32zM22 38h33v1h-33zM70 38h1v1h-1zM21 39h35v1h-35zM71 39h1v1h-1zM21 40h35v1h-35zM70 40h4v1h-4zM20 41h37v1h-37zM70 41h5v1h-5zM19 42h23v1h-23zM43 42h14v1h-14zM69 42h8v1h-8zM18 43h23v1h-23zM43 43h15v1h-15zM68 43h10v1h-10zM17 44h24v1h-24zM43 44h17v1h-17zM67 44h12v1h-12zM16 45h24v1h-24zM43 45h37v1h-37zM16 46h23v1h-23zM44 46h37v1h-37zM15 47h24v1h-24zM44 47h38v1h-38zM15 48h23v1h-23zM45 48h38v1h-38zM14 49h24v1h-24zM45 49h39v1h-39zM14 50h24v1h-24zM46 50h39v1h-39zM13 51h25v1h-25zM47 51h38v1h-38zM13 52h25v1h-25zM49 52h37v1h-37zM12 53h26v1h-26zM49 53h38v1h-38zM12 54h26v1h-26zM51 54h36v1h-36zM11 55h27v1h-27zM53 55h35v1h-35zM11 56h27v1h-27zM55 56h33v1h-33zM11 57h28v1h-28zM56 57h33v1h-33zM10 58h29v1h-29zM58 58h31v1h-31zM9 59h31v1h-31zM59 59h30v1h-30zM10 60h30v1h-30zM61 60h29v1h-29zM9 61h32v1h-32zM63 61h27v1h-27zM9 62h33v1h-33zM64 62h26v1h-26zM9 63h34v1h-34zM65 63h25v1h-25zM9 64h34v1h-34zM66 64h25v1h-25zM9 65h36v1h-36zM67 65h24v1h-24zM9 66h23v1h-23zM34 66h11v1h-11zM69 66h22v1h-22zM9 67h23v1h-23zM33 67h12v1h-12zM69 67h22v1h-22zM9 68h22v1h-22zM34 68h12v1h-12zM70 68h21v1h-21zM9 69h20v1h-20zM34 69h12v1h-12zM71 69h20v1h-20zM8 70h20v1h-20zM34 70h12v1h-12zM72 70h19v1h-19zM9 71h18v1h-18zM34 71h12v1h-12zM72 71h19v1h-19zM9 72h17v1h-17zM34 72h11v1h-11zM73 72h17v1h-17zM9 73h17v1h-17zM35 73h10v1h-10zM73 73h17v1h-17zM9 74h16v1h-16zM36 74h8v1h-8zM74 74h16v1h-16zM9 75h16v1h-16zM38 75h4v1h-4zM43 75h1v1h-1zM74 75h15v1h-15zM9 76h15v1h-15zM75 76h14v1h-14zM10 77h14v1h-14zM75 77h14v1h-14zM10 78h13v1h-13zM75 78h13v1h-13zM10 79h13v1h-13zM75 79h13v1h-13zM11 80h12v1h-12zM75 80h12v1h-12zM11 81h12v1h-12zM75 81h12v1h-12zM12 82h11v1h-11zM75 82h11v1h-11zM12 83h11v1h-11zM75 83h10v1h-10zM12 84h11v1h-11zM75 84h10v1h-10zM14 85h9v1h-9zM75 85h10v1h-10zM14 86h9v1h-9zM75 86h8v1h-8zM15 87h8v1h-8zM74 87h8v1h-8zM16 88h7v1h-7zM74 88h8v1h-8zM17 89h7v1h-7zM74 89h7v1h-7zM18 90h6v1h-6zM73 90h6v1h-6zM19 91h6v1h-6zM72 91h5v1h-5zM20 92h5v1h-5zM71 92h5v1h-5zM22 93h4v1h-4zM71 93h3v1h-3zM23 94h4v1h-4zM70 94h3v1h-3zM25 95h3v1h-3zM68 95h3v1h-3zM27 96h3v1h-3zM68 96h1v1h-1zM29 97h1v1h-1zM65 97h1v1h-1zM67 97h1v1h-1zM63 98h2v1h-2z" /><path fill="#ed4223" d="M53 6h1v1h-1zM54 7h1v1h-1zM47 11h1v1h-1zM57 14h1v1h-1zM44 16h1v1h-1zM58 19h1v1h-1zM40 20h1v1h-1zM57 24h1v1h-1zM33 27h1v1h-1zM28 31h1v1h-1zM55 32h1v1h-1zM71 38h1v1h-1zM20 40h1v1h-1zM78 43h1v1h-1zM60 44h1v1h-1zM83 48h1v1h-1zM84 49h1v1h-1zM50 54h1v1h-1zM54 56h1v1h-1zM55 57h1v1h-1zM43 64h1v1h-1zM8 68h1v1h-1zM33 69h1v1h-1zM28 70h1v1h-1zM27 71h1v1h-1zM45 72h1v1h-1zM89 75h1v1h-1zM23 78h1v1h-1zM87 80h1v1h-1zM11 82h1v1h-1zM13 86h1v1h-1zM73 89h1v1h-1zM79 90h1v1h-1zM21 93h1v1h-1zM26 96h1v1h-1zM66 97h1v1h-1z" /><path fill="#ee4322" d="M47 10h1v1h-1zM39 21h1v1h-1zM27 32h1v1h-1zM55 34h1v1h-1zM55 36h1v1h-1zM21 38h1v1h-1zM69 41h1v1h-1zM17 43h1v1h-1zM65 44h1v1h-1zM82 47h1v1h-1zM38 49h1v1h-1zM11 54h1v1h-1zM61 61h1v1h-1zM90 63h1v1h-1zM8 66h1v1h-1zM45 67h1v1h-1zM25 74h1v1h-1zM83 86h1v1h-1zM15 88h1v1h-1zM73 88h1v1h-1zM24 90h1v1h-1zM76 92h1v1h-1zM70 93h1v1h-1zM22 94h1v1h-1zM71 95h1v1h-1z" /><path fill="#ee4223" d="M42 18h1v1h-1zM58 21h1v1h-1zM57 25h1v1h-1zM31 28h1v1h-1zM26 33h1v1h-1zM23 36h1v1h-1zM22 37h1v1h-1zM55 38h1v1h-1zM57 42h1v1h-1zM79 44h1v1h-1zM43 46h1v1h-1zM81 46h1v1h-1zM12 51h1v1h-1zM46 51h1v1h-1zM12 52h1v1h-1zM8 63h1v1h-1zM64 63h1v1h-1zM65 64h1v1h-1zM33 68h1v1h-1zM69 68h1v1h-1zM70 69h1v1h-1zM33 71h1v1h-1zM90 72h1v1h-1zM45 73h1v1h-1zM90 73h1v1h-1zM8 74h1v1h-1zM73 74h1v1h-1zM74 84h1v1h-1zM74 86h1v1h-1zM82 87h1v1h-1zM17 90h1v1h-1zM19 92h1v1h-1zM75 93h1v1h-1zM27 94h1v1h-1zM25 96h1v1h-1zM67 96h1v1h-1zM27 97h1v1h-1zM31 98h1v1h-1z" /><path fill="#ee4222" d="M58 18h1v1h-1zM58 20h1v1h-1zM35 25h1v1h-1zM56 28h1v1h-1zM30 29h1v1h-1zM29 30h1v1h-1zM25 34h1v1h-1zM56 40h1v1h-1zM75 41h1v1h-1zM77 42h1v1h-1zM58 43h1v1h-1zM61 44h1v1h-1zM40 45h1v1h-1zM39 46h1v1h-1zM44 48h1v1h-1zM13 50h1v1h-1zM87 54h1v1h-1zM52 55h1v1h-1zM10 56h1v1h-1zM10 57h1v1h-1zM58 59h1v1h-1zM40 60h1v1h-1zM60 60h1v1h-1zM42 62h1v1h-1zM90 62h1v1h-1zM8 64h1v1h-1zM8 71h1v1h-1zM36 75h1v1h-1zM9 78h1v1h-1zM10 80h1v1h-1zM23 88h1v1h-1zM72 90h1v1h-1zM18 91h1v1h-1zM24 95h1v1h-1z" /></svg>