<svg xmlns="http://www.w3.org/2000/svg" viewBox="0 0 100 100" width="1em" height="1em"><path fill="#39584d" d="M27 4h1v1h-1zM31 4h45v1h-45zM23 5h1v1h-1zM20 6h1v1h-1zM83 6h2v1h-2zM18 7h1v1h-1zM14 10h1v1h-1zM89 10h1v1h-1zM12 12h1v1h-1zM10 14h1v1h-1zM6 20h1v1h-1zM5 23h1v1h-1zM4 27h1v1h-1zM4 30h1v1h-1zM90 34h1v1h-1zM87 37h1v1h-1zM5 38h1v1h-1zM85 38h1v1h-1zM78 42h1v1h-1zM69 46h1v1h-1zM62 49h2v1h-2zM57 51h1v1h-1zM16 53h1v1h-1zM45 56h1v1h-1zM24 57h1v1h-1z" /><path fill="#39584c" d="M28 4h2v1h-2zM88 9h1v1h-1zM93 19h1v1h-1zM4 35h1v1h-1zM88 36h1v1h-1zM5 39h1v1h-1zM71 45h1v1h-1zM70 46h1v1h-1zM64 48h1v1h-1zM48 55h1v1h-1zM21 56h1v1h-1zM42 57h1v1h-1zM32 58h3v1h-3z" /><path fill="#38594c" d="M30 4h1v1h-1zM77 4h1v1h-1zM86 8h1v1h-1zM15 9h1v1h-1zM9 15h1v1h-1zM7 18h1v1h-1zM5 24h1v1h-1zM4 29h1v1h-1zM82 40h1v1h-1zM72 45h1v1h-1zM44 56h1v1h-1zM25 57h1v1h-1zM31 58h1v1h-1z" /><path fill="#38584d" d="M76 4h1v1h-1zM85 7h1v1h-1zM93 18h1v1h-1zM92 30h1v1h-1zM80 41h1v1h-1zM7 44h1v1h-1zM17 54h1v1h-1zM50 54h1v1h-1zM41 57h1v1h-1zM30 58h1v1h-1z" /><path fill="#38584c" d="M78 4h1v1h-1zM13 11h1v1h-1zM6 21h1v1h-1zM93 27h1v1h-1zM89 35h1v1h-1zM6 41h1v1h-1zM74 44h1v1h-1zM67 47h1v1h-1zM60 50h1v1h-1zM58 51h1v1h-1zM52 53h2v1h-2zM35 58h1v1h-1z" /><path fill="#39594d" d="M24 5h57v1h-57zM22 6h61v1h-61zM19 7h66v1h-66zM17 8h69v1h-69zM16 9h72v1h-72zM15 10h74v1h-74zM14 11h76v1h-76zM13 12h78v1h-78zM12 13h79v1h-79zM11 14h81v1h-81zM10 15h82v1h-82zM9 16h84v1h-84zM8 17h85v1h-85zM8 18h85v1h-85zM7 19h86v1h-86zM7 20h87v1h-87zM7 21h87v1h-87zM6 22h88v1h-88zM6 23h88v1h-88zM6 24h88v1h-88zM5 25h89v1h-89zM5 26h89v1h-89zM5 27h88v1h-88zM5 28h88v1h-88zM5 29h88v1h-88zM5 30h87v1h-87zM5 31h88v1h-88zM5 32h86v1h-86zM5 33h86v1h-86zM5 34h85v1h-85zM5 35h84v1h-84zM5 36h83v1h-83zM5 37h82v1h-82zM6 38h79v1h-79zM6 39h79v1h-79zM6 40h76v1h-76zM7 41h73v1h-73zM6 42h72v1h-72zM8 43h68v1h-68zM8 44h66v1h-66zM9 45h62v1h-62zM9 46h60v1h-60zM10 47h57v1h-57zM10 48h54v1h-54zM12 49h50v1h-50zM12 50h48v1h-48zM13 51h44v1h-44zM14 52h41v1h-41zM17 53h35v1h-35zM18 54h32v1h-32zM20 55h28v1h-28zM22 56h22v1h-22zM27 57h14v1h-14z" /><path fill="#38594d" d="M81 5h1v1h-1zM21 6h1v1h-1zM91 13h1v1h-1zM93 28h1v1h-1zM4 33h1v1h-1zM7 43h1v1h-1zM8 45h1v1h-1zM9 47h1v1h-1zM26 57h1v1h-1zM36 58h1v1h-1z" /><path fill="#39594c" d="M11 13h1v1h-1zM92 15h1v1h-1zM93 17h1v1h-1zM4 28h1v1h-1zM4 31h1v1h-1zM4 32h1v1h-1zM91 32h1v1h-1zM4 34h1v1h-1zM76 43h1v1h-1zM65 48h1v1h-1zM11 49h1v1h-1zM55 52h1v1h-1zM19 55h1v1h-1zM37 58h1v1h-1z" /><path fill="#d08de1" d="M72 53h2v1h-2zM65 55h1v1h-1zM82 55h1v1h-1zM84 56h1v1h-1zM86 57h1v1h-1zM87 58h1v1h-1zM56 59h1v1h-1zM54 60h1v1h-1zM90 61h1v1h-1zM91 62h1v1h-1zM48 63h1v1h-1zM41 78h1v1h-1zM41 79h1v1h-1zM85 92h1v1h-1zM51 93h1v1h-1zM83 93h1v1h-1zM58 95h1v1h-1zM75 95h1v1h-1z" /><path fill="#d08de2" d="M74 53h1v1h-1zM60 57h1v1h-1zM58 58h1v1h-1zM51 61h1v1h-1zM45 66h1v1h-1zM44 67h1v1h-1zM44 87h1v1h-1zM47 90h1v1h-1zM81 94h1v1h-1z" /><path fill="#d18ee1" d="M75 53h1v1h-1zM61 57h1v1h-1zM46 65h1v1h-1zM94 68h1v1h-1zM42 72h1v1h-1zM41 77h1v1h-1zM86 91h1v1h-1zM76 95h1v1h-1z" /><path fill="#d18de2" d="M76 53h1v1h-1zM42 71h1v1h-1zM95 76h1v1h-1zM94 80h1v1h-1zM94 81h1v1h-1zM92 85h1v1h-1z" /><path fill="#d08ee1" d="M77 53h1v1h-1zM66 55h1v1h-1zM85 56h1v1h-1zM92 63h1v1h-1zM94 67h1v1h-1zM43 69h1v1h-1zM95 74h1v1h-1zM88 90h1v1h-1zM53 94h2v1h-2z" /><path fill="#d18de1" d="M68 54h1v1h-1zM80 54h2v1h-2zM83 55h1v1h-1zM89 59h1v1h-1zM93 65h1v1h-1zM95 75h1v1h-1zM42 83h1v1h-1zM45 88h1v1h-1zM57 95h1v1h-1z" /><path fill="#d18ee2" d="M69 54h11v1h-11zM67 55h15v1h-15zM63 56h21v1h-21zM62 57h24v1h-24zM59 58h28v1h-28zM57 59h32v1h-32zM55 60h35v1h-35zM52 61h38v1h-38zM50 62h41v1h-41zM49 63h43v1h-43zM47 64h46v1h-46zM47 65h46v1h-46zM46 66h48v1h-48zM45 67h49v1h-49zM44 68h50v1h-50zM44 69h51v1h-51zM43 70h52v1h-52zM43 71h53v1h-53zM43 72h53v1h-53zM42 73h54v1h-54zM42 74h53v1h-53zM41 75h54v1h-54zM42 76h53v1h-53zM42 77h54v1h-54zM42 78h53v1h-53zM42 79h53v1h-53zM42 80h52v1h-52zM42 81h52v1h-52zM43 82h51v1h-51zM43 83h51v1h-51zM43 84h50v1h-50zM43 85h49v1h-49zM44 86h47v1h-47zM45 87h46v1h-46zM46 88h45v1h-45zM47 89h43v1h-43zM48 90h40v1h-40zM49 91h37v1h-37zM49 92h36v1h-36zM52 93h31v1h-31zM55 94h26v1h-26zM77 95h1v1h-1z" /><path fill="#d08ee2" d="M55 59h1v1h-1zM53 60h1v1h-1zM49 62h1v1h-1zM41 76h1v1h-1zM42 82h1v1h-1zM91 86h1v1h-1zM46 89h1v1h-1zM48 91h1v1h-1zM56 95h1v1h-1zM59 95h16v1h-16z" /><path fill="#ff7758" d="M18 62h2v1h-2zM14 63h1v1h-1zM25 63h1v1h-1zM27 64h1v1h-1zM28 65h1v1h-1zM35 80h1v1h-1zM4 82h1v1h-1zM34 84h1v1h-1zM6 87h1v1h-1zM7 89h1v1h-1zM28 92h1v1h-1zM14 94h1v1h-1z" /><path fill="#ff7658" d="M20 62h1v1h-1zM11 65h1v1h-1zM9 66h1v1h-1zM8 67h1v1h-1zM31 67h1v1h-1zM6 70h1v1h-1zM34 73h1v1h-1zM35 77h1v1h-1zM7 88h1v1h-1zM29 91h1v1h-1zM12 93h1v1h-1zM27 93h1v1h-1zM25 94h1v1h-1z" /><path fill="#ff7659" d="M21 62h1v1h-1zM15 63h1v1h-1zM7 68h1v1h-1zM32 69h1v1h-1zM34 72h1v1h-1zM4 76h1v1h-1zM4 77h1v1h-1zM4 80h1v1h-1zM5 84h1v1h-1zM5 85h1v1h-1zM33 86h1v1h-1zM33 87h1v1h-1zM11 92h1v1h-1zM26 93h1v1h-1zM18 95h1v1h-1zM20 95h1v1h-1z" /><path fill="#ff7759" d="M16 63h9v1h-9zM12 64h15v1h-15zM10 65h1v1h-1zM12 65h16v1h-16zM10 66h21v1h-21zM9 67h22v1h-22zM8 68h24v1h-24zM7 69h25v1h-25zM7 70h27v1h-27zM6 71h28v1h-28zM5 72h29v1h-29zM5 73h29v1h-29zM5 74h30v1h-30zM4 75h31v1h-31zM5 76h31v1h-31zM5 77h30v1h-30zM4 78h32v1h-32zM4 79h32v1h-32zM5 80h30v1h-30zM4 81h31v1h-31zM5 82h30v1h-30zM5 83h30v1h-30zM6 84h28v1h-28zM6 85h29v1h-29zM6 86h27v1h-27zM7 87h26v1h-26zM8 88h25v1h-25zM8 89h24v1h-24zM8 90h23v1h-23zM9 91h20v1h-20zM12 92h16v1h-16zM13 93h13v1h-13zM15 94h10v1h-10zM19 95h1v1h-1z" /></svg>