<svg xmlns="http://www.w3.org/2000/svg" viewBox="0 0 100 100" width="1em" height="1em"><path fill="#f9ab00" d="M24 21h1v1h-1zM27 21h4v1h-4zM34 21h1v1h-1zM65 21h2v1h-2zM68 21h5v1h-5zM22 22h14v1h-14zM63 22h15v1h-15zM79 22h1v1h-1zM19 23h20v1h-20zM60 23h21v1h-21zM15 24h1v1h-1zM17 24h25v1h-25zM58 24h25v1h-25zM13 25h1v1h-1zM15 25h28v1h-28zM56 25h29v1h-29zM13 26h33v1h-33zM54 26h32v1h-32zM12 27h34v1h-34zM52 27h36v1h-36zM11 28h34v1h-34zM52 28h37v1h-37zM9 29h36v1h-36zM51 29h39v1h-39zM11 30h34v1h-34zM50 30h39v1h-39zM12 31h32v1h-32zM49 31h39v1h-39zM13 32h31v1h-31zM48 32h39v1h-39zM14 33h28v1h-28zM46 33h40v1h-40zM15 34h27v1h-27zM47 34h38v1h-38zM16 35h7v1h-7zM33 35h1v1h-1zM35 35h7v1h-7zM46 35h38v1h-38zM17 36h4v1h-4zM22 36h1v1h-1zM35 36h1v1h-1zM37 36h4v1h-4zM45 36h21v1h-21zM76 36h7v1h-7zM18 37h2v1h-2zM38 37h2v1h-2zM44 37h20v1h-20zM78 37h4v1h-4zM44 38h18v1h-18zM63 38h1v1h-1zM44 39h17v1h-17zM44 40h16v1h-16zM43 41h16v1h-16zM43 42h16v1h-16zM43 43h15v1h-15zM42 44h15v1h-15zM42 45h15v1h-15zM42 46h15v1h-15zM42 47h14v1h-14zM41 48h16v1h-16zM41 49h16v1h-16zM41 50h15v1h-15zM41 51h15v1h-15zM42 52h14v1h-14zM41 53h15v1h-15zM42 54h14v1h-14zM42 55h15v1h-15zM43 56h15v1h-15zM42 57h15v1h-15zM43 58h15v1h-15zM44 59h14v1h-14zM44 60h15v1h-15zM44 61h14v1h-14zM17 62h3v1h-3zM37 62h3v1h-3zM44 62h13v1h-13zM16 63h5v1h-5zM37 63h4v1h-4zM45 63h11v1h-11zM16 64h7v1h-7zM24 64h1v1h-1zM33 64h1v1h-1zM35 64h7v1h-7zM46 64h9v1h-9zM15 65h13v1h-13zM30 65h12v1h-12zM46 65h8v1h-8zM14 66h28v1h-28zM47 66h6v1h-6zM13 67h30v1h-30zM47 67h5v1h-5zM12 68h32v1h-32zM49 68h2v1h-2zM11 69h33v1h-33zM10 70h35v1h-35zM10 71h35v1h-35zM12 72h35v1h-35zM12 73h33v1h-33zM15 74h29v1h-29zM16 75h26v1h-26zM19 76h21v1h-21zM21 77h17v1h-17zM27 78h5v1h-5z" /><path fill="#f8aa00" d="M25 21h1v1h-1zM36 22h2v1h-2zM61 22h1v1h-1zM16 24h1v1h-1zM56 24h1v1h-1zM83 24h1v1h-1zM43 25h2v1h-2zM12 26h1v1h-1zM86 26h1v1h-1zM46 27h1v1h-1zM88 27h1v1h-1zM51 28h1v1h-1zM50 29h1v1h-1zM10 30h1v1h-1zM11 31h1v1h-1zM12 32h1v1h-1zM47 32h1v1h-1zM13 33h1v1h-1zM14 34h1v1h-1zM46 34h1v1h-1zM15 35h1v1h-1zM34 35h1v1h-1zM45 35h1v1h-1zM16 36h1v1h-1zM36 36h1v1h-1zM17 37h1v1h-1zM37 37h1v1h-1zM40 37h1v1h-1zM42 43h1v1h-1zM58 43h1v1h-1zM57 44h1v1h-1zM41 47h1v1h-1zM56 47h1v1h-1zM56 50h1v1h-1zM56 54h1v1h-1zM42 56h1v1h-1zM57 57h1v1h-1zM43 59h1v1h-1zM58 59h1v1h-1zM43 60h1v1h-1zM39 61h1v1h-1zM15 64h1v1h-1zM23 64h1v1h-1zM34 64h1v1h-1zM14 65h1v1h-1zM13 66h1v1h-1zM43 67h1v1h-1zM11 68h1v1h-1zM49 69h1v1h-1zM40 76h1v1h-1zM20 77h1v1h-1zM24 78h1v1h-1zM26 78h1v1h-1zM32 78h2v1h-2z" /><path fill="#f8ab00" d="M26 21h1v1h-1zM31 21h1v1h-1zM67 21h1v1h-1zM73 21h1v1h-1zM21 22h1v1h-1zM62 22h1v1h-1zM78 22h1v1h-1zM17 23h2v1h-2zM39 23h1v1h-1zM58 23h2v1h-2zM81 23h1v1h-1zM42 24h1v1h-1zM57 24h1v1h-1zM14 25h1v1h-1zM55 25h1v1h-1zM11 27h1v1h-1zM10 28h1v1h-1zM45 28h1v1h-1zM49 30h1v1h-1zM48 31h1v1h-1zM42 33h1v1h-1zM23 35h2v1h-2zM21 36h1v1h-1zM66 36h1v1h-1zM75 36h1v1h-1zM64 37h1v1h-1zM18 38h1v1h-1zM39 38h1v1h-1zM62 38h1v1h-1zM61 39h1v1h-1zM43 40h1v1h-1zM60 40h1v1h-1zM59 41h1v1h-1zM57 45h1v1h-1zM56 51h1v1h-1zM41 52h1v1h-1zM56 53h1v1h-1zM18 61h1v1h-1zM40 62h1v1h-1zM21 63h1v1h-1zM36 63h1v1h-1zM28 65h2v1h-2zM42 66h1v1h-1zM46 66h1v1h-1zM12 67h1v1h-1zM48 68h1v1h-1zM10 69h1v1h-1zM9 70h1v1h-1zM45 71h1v1h-1zM11 72h1v1h-1zM45 73h1v1h-1zM13 74h2v1h-2zM15 75h1v1h-1zM18 76h1v1h-1zM34 78h1v1h-1z" /><path fill="#f9aa00" d="M32 21h2v1h-2zM64 21h1v1h-1zM74 21h2v1h-2zM20 22h1v1h-1zM40 23h1v1h-1zM85 25h1v1h-1zM53 26h1v1h-1zM87 26h1v1h-1zM89 28h1v1h-1zM67 36h1v1h-1zM20 37h1v1h-1zM80 38h1v1h-1zM43 39h1v1h-1zM42 42h1v1h-1zM56 52h1v1h-1zM20 62h1v1h-1zM45 64h1v1h-1zM42 65h1v1h-1zM44 69h1v1h-1zM45 70h1v1h-1zM44 74h1v1h-1zM42 75h1v1h-1zM17 76h1v1h-1zM19 77h1v1h-1zM38 77h1v1h-1zM23 78h1v1h-1zM25 78h1v1h-1z" /><path fill="#f6a001" d="M90 29h1v1h-1z" /><path fill="#e8710a" d="M8 30h1v1h-1zM8 31h2v1h-2zM90 31h3v1h-3zM7 32h4v1h-4zM88 32h5v1h-5zM6 33h6v1h-6zM88 33h6v1h-6zM5 34h8v1h-8zM86 34h9v1h-9zM5 35h9v1h-9zM86 35h9v1h-9zM4 36h11v1h-11zM84 36h11v1h-11zM4 37h12v1h-12zM83 37h13v1h-13zM3 38h14v1h-14zM83 38h13v1h-13zM3 39h14v1h-14zM82 39h15v1h-15zM2 40h15v1h-15zM83 40h14v1h-14zM2 41h15v1h-15zM83 41h14v1h-14zM2 42h13v1h-13zM84 42h14v1h-14zM1 43h15v1h-15zM84 43h14v1h-14zM1 44h13v1h-13zM84 44h15v1h-15zM1 45h13v1h-13zM85 45h13v1h-13zM0 46h14v1h-14zM84 46h14v1h-14zM1 47h13v1h-13zM85 47h13v1h-13zM1 48h13v1h-13zM85 48h13v1h-13zM0 49h14v1h-14zM85 49h14v1h-14zM0 50h14v1h-14zM85 50h13v1h-13zM1 51h13v1h-13zM85 51h13v1h-13zM0 52h14v1h-14zM85 52h14v1h-14zM1 53h13v1h-13zM84 53h15v1h-15zM1 54h14v1h-14zM84 54h14v1h-14zM1 55h13v1h-13zM84 55h14v1h-14zM1 56h14v1h-14zM83 56h15v1h-15zM2 57h13v1h-13zM82 57h15v1h-15zM2 58h14v1h-14zM81 58h16v1h-16zM2 59h15v1h-15zM81 59h16v1h-16zM3 60h14v1h-14zM80 60h16v1h-16zM3 61h14v1h-14zM79 61h17v1h-17zM4 62h12v1h-12zM59 62h2v1h-2zM77 62h18v1h-18zM4 63h11v1h-11zM57 63h7v1h-7zM75 63h20v1h-20zM4 64h10v1h-10zM56 64h38v1h-38zM5 65h8v1h-8zM56 65h38v1h-38zM6 66h6v1h-6zM55 66h38v1h-38zM6 67h5v1h-5zM54 67h38v1h-38zM7 68h3v1h-3zM53 68h38v1h-38zM8 69h1v1h-1zM52 69h39v1h-39zM51 70h38v1h-38zM52 71h36v1h-36zM53 72h34v1h-34zM54 73h31v1h-31zM56 74h29v1h-29zM57 75h25v1h-25zM59 76h20v1h-20zM63 77h13v1h-13zM71 78h1v1h-1z" /><path fill="#f09203" d="M9 30h1v1h-1zM10 31h1v1h-1zM14 35h1v1h-1z" /><path fill="#f6a201" d="M89 30h1v1h-1zM55 64h1v1h-1z" /><path fill="#e8720a" d="M90 30h1v1h-1zM87 33h1v1h-1zM58 62h1v1h-1zM55 65h1v1h-1z" /><path fill="#e87109" d="M91 30h1v1h-1zM0 48h1v1h-1zM84 49h1v1h-1zM84 50h1v1h-1zM0 51h1v1h-1zM97 57h1v1h-1zM52 68h1v1h-1zM86 73h1v1h-1zM55 74h1v1h-1zM82 75h1v1h-1zM67 78h1v1h-1zM69 78h1v1h-1z" /><path fill="#e7700a" d="M7 31h1v1h-1zM89 31h1v1h-1zM3 37h1v1h-1zM2 38h1v1h-1zM98 46h1v1h-1zM98 48h1v1h-1zM84 51h1v1h-1zM15 56h1v1h-1zM82 56h1v1h-1zM60 61h1v1h-1zM3 62h1v1h-1zM92 67h1v1h-1zM52 72h1v1h-1zM87 72h1v1h-1zM85 73h1v1h-1z" /><path fill="#f5a301" d="M88 31h1v1h-1zM83 36h1v1h-1z" /><path fill="#e77109" d="M6 32h1v1h-1zM96 38h1v1h-1zM0 45h1v1h-1zM98 45h1v1h-1zM1 58h1v1h-1zM97 58h1v1h-1zM95 62h1v1h-1zM95 63h1v1h-1zM53 67h1v1h-1zM50 70h1v1h-1zM89 70h1v1h-1zM88 71h1v1h-1zM80 76h1v1h-1zM70 78h1v1h-1z" /><path fill="#f08f05" d="M11 32h1v1h-1z" /><path fill="#f6a301" d="M87 32h1v1h-1zM85 34h1v1h-1z" /><path fill="#e8700a" d="M5 33h1v1h-1zM4 35h1v1h-1zM85 35h1v1h-1zM95 36h1v1h-1zM2 39h1v1h-1zM82 40h1v1h-1zM97 41h1v1h-1zM1 42h1v1h-1zM84 45h1v1h-1zM0 47h1v1h-1zM1 57h1v1h-1zM15 57h1v1h-1zM16 58h1v1h-1zM2 60h1v1h-1zM65 63h1v1h-1zM94 64h1v1h-1zM68 78h1v1h-1z" /><path fill="#f19203" d="M12 33h1v1h-1zM17 61h1v1h-1z" /><path fill="#f5a201" d="M86 33h1v1h-1z" /><path fill="#f19005" d="M13 34h1v1h-1z" /><path fill="#f7a301" d="M84 35h1v1h-1zM57 62h1v1h-1zM56 63h1v1h-1z" /><path fill="#e7710a" d="M3 36h1v1h-1zM17 39h1v1h-1zM15 42h1v1h-1zM83 42h1v1h-1zM83 43h1v1h-1zM14 44h1v1h-1zM84 47h1v1h-1zM98 47h1v1h-1zM84 48h1v1h-1zM98 50h1v1h-1zM98 51h1v1h-1zM84 52h1v1h-1zM0 53h1v1h-1zM14 55h1v1h-1zM83 55h1v1h-1zM17 60h1v1h-1zM78 61h1v1h-1zM61 62h2v1h-2zM3 63h1v1h-1zM74 63h1v1h-1zM79 76h1v1h-1zM72 78h1v1h-1z" /><path fill="#f09103" d="M15 36h1v1h-1z" /><path fill="#f09003" d="M16 37h1v1h-1zM17 38h1v1h-1z" /><path fill="#f7a201" d="M82 37h1v1h-1zM81 38h1v1h-1z" /><path fill="#e87209" d="M82 38h1v1h-1zM81 39h1v1h-1zM54 66h1v1h-1z" /><path fill="#e77009" d="M97 40h1v1h-1zM14 45h1v1h-1zM98 54h1v1h-1zM80 59h1v1h-1zM79 60h1v1h-1zM96 60h1v1h-1zM2 61h1v1h-1zM51 71h1v1h-1zM76 77h1v1h-1zM66 78h1v1h-1z" /><path fill="#e87009" d="M1 41h1v1h-1zM0 54h1v1h-1zM83 54h1v1h-1zM77 61h1v1h-1zM76 62h1v1h-1zM64 63h1v1h-1zM73 63h1v1h-1zM4 65h1v1h-1zM5 66h1v1h-1zM93 66h1v1h-1zM91 68h1v1h-1zM53 73h1v1h-1zM62 77h1v1h-1zM77 77h1v1h-1z" /><path fill="#f7a501" d="M59 60h1v1h-1z" /><path fill="#f8a501" d="M58 61h1v1h-1z" /><path fill="#e97209" d="M59 61h1v1h-1z" /><path fill="#f19104" d="M16 62h1v1h-1z" /><path fill="#f19103" d="M15 63h1v1h-1z" /><path fill="#f09004" d="M14 64h1v1h-1z" /><path fill="#f18f05" d="M13 65h1v1h-1z" /><path fill="#f5a101" d="M54 65h1v1h-1zM52 67h1v1h-1z" /><path fill="#f08e05" d="M12 66h1v1h-1zM10 68h1v1h-1z" /><path fill="#f7a101" d="M53 66h1v1h-1z" /><path fill="#f18c05" d="M11 67h1v1h-1z" /><path fill="#f5a002" d="M51 68h1v1h-1z" /><path fill="#f08c05" d="M9 69h1v1h-1z" /><path fill="#f4a002" d="M50 69h1v1h-1z" /><path fill="#e77209" d="M51 69h1v1h-1z" /></svg>