<svg xmlns="http://www.w3.org/2000/svg" viewBox="0 0 100 100"><path fill="#82ffff" fill-rule="evenodd" d="M42 0h3v1h-3zm7 0h3v1h-3zm-11 1h2v1h-2zm4 1h2v1h-2zm8 0h1v1h-1zm-3 1h2v1h-2z"/><path fill="#83ffff" fill-rule="evenodd" d="M45 0h4v1h2v1h-1v2h-1v-1h-2v1h-1v-1h-2v-1h-2v1h-1v-1h-1v-1h5z"/><path fill="#80ffff" fill-rule="evenodd" d="M52 0h1v1h-1zm-1 2h1v1h-1z"/><path fill="#7effff" fill-rule="evenodd" d="M53 0h1v1h-1zm-1 2h1v1h-1zm0 1v1h-1v-1zm-1 1v1h-1v-1z"/><path fill="#7bffff" fill-rule="evenodd" d="M54 0h1v2h-1zm0 2v1h-1v-1zm-2 2h1v1h-1z"/><path fill="#7affff" fill-rule="evenodd" d="M55 0h1v1h-1zm-2 3h1v1h-1z"/><path fill="#81ffff" fill-rule="evenodd" d="M51 1h1v1h-1zm-1 2h1v1h-1zm0 1v1h-1v-1z"/><path fill="#7fffff" fill-rule="evenodd" d="M52 1h1v1h-1z"/><path fill="#7dffff" fill-rule="evenodd" d="M53 1h1v1h-1zm-2 3h1v1h-1z"/><path fill="#78ffff" fill-rule="evenodd" d="M55 1h1v1h-1zm-3 4h1v1h-1z"/><path fill="#76feff" fill-rule="evenodd" d="M56 1h1v1h-1zm-1 2h1v1h-1zm0 1v1h-1v-1z"/><path fill="#74feff" fill-rule="evenodd" d="M57 1h1v1h-1zm-2 3h1v1h-1z"/><path fill="#72feff" fill-rule="evenodd" d="M58 1h1v1h-1zm-2 3h1v1h-1z"/><path fill="#70fdff" fill-rule="evenodd" d="M59 1h1v1h-1z"/><path fill="#6dfdff" fill-rule="evenodd" d="M60 1h1v1h-1z"/><path fill="#6bfdff" fill-rule="evenodd" d="M61 1h1v1h-1z"/><path fill="#79ffff" fill-rule="evenodd" d="M54 2h1v1h-1zm-1 2h1v1h-1z"/><path fill="#77feff" fill-rule="evenodd" d="M55 2h1v1h-1zm-2 3h1v1h-1z"/><path fill="#75feff" fill-rule="evenodd" d="M56 2h1v1h-1zm-2 3h1v1h-1z"/><path fill="#73feff" fill-rule="evenodd" d="M57 2h1v1h-1zm0 1v1h-1v-1zm-2 2h1v1h-1z"/><path fill="#70feff" fill-rule="evenodd" d="M58 2h1v1h-1zm-1 2h1v1h-1z"/><path fill="#6efeff" fill-rule="evenodd" d="M59 2h1v1h-1zm-1 2h1v1h-1zm0 1v1h-1v-1z"/><path fill="#6cfeff" fill-rule="evenodd" d="M60 2h1v1h-1zm-2 3h1v1h-1zm-1 2h1v1h-1z"/><path fill="#6afeff" fill-rule="evenodd" d="M61 2h1v1h-1zm-2 3h1v1h-1z"/><path fill="#68feff" fill-rule="evenodd" d="M62 2h1v1h-1zm0 1v1h-1v-1zm-2 2h1v1h-1z"/><path fill="#64fdff" fill-rule="evenodd" d="M63 2h1v1h-1z"/><path fill="#63fdff" fill-rule="evenodd" d="M64 2h1v1h-1z"/><path fill="#7cffff" fill-rule="evenodd" d="M52 3h1v1h-1z"/><path fill="#78feff" fill-rule="evenodd" d="M54 3h1v1h-1z"/><path fill="#71feff" fill-rule="evenodd" d="M57 3h1v1h-1zm-1 2h1v1h-1zm0 1v1h-1v-1z"/><path fill="#6ffeff" fill-rule="evenodd" d="M58 3h1v1h-1zm-2 3h1v1h-1z"/><path fill="#6dfeff" fill-rule="evenodd" d="M59 3h1v1h-1zm-2 3h1v1h-1z"/><path fill="#6bfeff" fill-rule="evenodd" d="M60 3h1v1h-1zm0 1v1h-1v-1zm-2 2h1v1h-1z"/><path fill="#66feff" fill-rule="evenodd" d="M62 3h1v1h-1zm-1 2h1v1h-1zm0 1v1h-1v-1zm-2 2h1v1h-1z"/><path fill="#64feff" fill-rule="evenodd" d="M63 3h1v1h-1zm-2 3h1v1h-1zm-1 2h1v1h-1z"/><path fill="#62fdfe" fill-rule="evenodd" d="M64 3h1v1h-1zm-2 3h1v1h-1z"/><path fill="#60fdfe" fill-rule="evenodd" d="M65 3h1v1h-1zm0 1v1h-1v-1zm-2 2h1v1h-1zm-2 3h1v1h-1z"/><path fill="#5dfcfd" fill-rule="evenodd" d="M66 3h1v1h-1z"/><path fill="#5bfdfd" fill-rule="evenodd" d="M67 3h1v1h-1z"/><path fill="#fff" fill-rule="evenodd" d="M33 4h4v1h2v1h1v1h1v2h-1v2h-1v1h-1v1h-2v1h-2v-1h-2v-1h-1v-1h-1v-5h1v-1h2zm-14 26h3v1h3v1h1v5h-1v2h-2v1h-4v-1h-2v-1h-1v-2h-1v-3h1v-1h1v-1h2zm64 16h3v3h-3zm7 7h3v1h1v1h-1v2h-3v-1h-1v-2h1zm-74 4h4v1h1v1h1v4h-1v1h-2v1h-2v-1h-2v-1h-1v-2h-1v-1h1v-2h2zm59 7h4v1h1v1h1v3h-1v2h-6v-1h-1v-4h1v-1h1zm-16 10h4v1h1v1h-1v2h-4v-1h-1v-2h1zm3 11h4v1h1v1h1v2h-1v2h-2v1h-2v-1h-2v-1h-1v-3h1v-1h1z"/><path fill="#69feff" fill-rule="evenodd" d="M60 4h1v1h-1zm-1 2h1v1h-1zm0 1v1h-1v-1z"/><path fill="#67feff" fill-rule="evenodd" d="M61 4h1v1h-1zm-2 3h1v1h-1z"/><path fill="#65feff" fill-rule="evenodd" d="M62 4h1v1h-1zm-2 3h1v1h-1z"/><path fill="#63feff" fill-rule="evenodd" d="M63 4h1v1h-1zm0 1v1h-1v-1zm-2 2h1v1h-1z"/><path fill="#5efdfe" fill-rule="evenodd" d="M65 4h1v1h-1zm-1 2h1v1h-1zm0 1v1h-1v-1zm-2 2h1v1h-1z"/><path fill="#5cfdfe" fill-rule="evenodd" d="M66 4h1v1h-1zm-2 3h1v1h-1zm-1 2h1v1h-1z"/><path fill="#5afdfe" fill-rule="evenodd" d="M67 4h1v1h-1zm-2 3h1v1h-1zm-2 3h1v1h-1z"/><path fill="#58fdfe" fill-rule="evenodd" d="M68 4h1v1h-1zm0 1v1h-1v-1zm-2 2h1v1h-1zm-2 3h1v1h-1z"/><path fill="#55fcfd" fill-rule="evenodd" d="M69 4h1v1h-1z"/><path fill="#61fdfe" fill-rule="evenodd" d="M63 5h1v1h-1zm-1 2h1v1h-1zm0 1v1h-1v-1z"/><path fill="#5ffdfe" fill-rule="evenodd" d="M64 5h1v1h-1zm-2 3h1v1h-1z"/><path fill="#5dfdfe" fill-rule="evenodd" d="M65 5h1v1h-1zm-2 3h1v1h-1z"/><path fill="#5bfdfe" fill-rule="evenodd" d="M66 5h1v1h-1zm0 1v1h-1v-1zm-2 2h1v1h-1z"/><path fill="#56fdfe" fill-rule="evenodd" d="M68 5h1v1h-1zm-1 2h1v1h-1zm0 1v1h-1v-1zm-2 2h1v1h-1z"/><path fill="#54fdfe" fill-rule="evenodd" d="M69 5h1v1h-1zm-1 2h1v1h-1zm0 1v1h-1v-1zm-2 2h1v1h-1zm0 1v1h-1v-1z"/><path fill="#52fdfe" fill-rule="evenodd" d="M70 5h1v1h-1zm-2 3h1v1h-1zm-2 3h1v1h-1z"/><path fill="#50fcfd" fill-rule="evenodd" d="M71 5h1v1h-1zm-5 7h1v1h-1z"/><path fill="#4dfdfd" fill-rule="evenodd" d="M72 5h1v1h-1z"/><path fill="#0bd6fd" fill-rule="evenodd" d="M25 6h2v1h-2zm-4 3h1v1h-1z"/><path fill="#0bd7fd" fill-rule="evenodd" d="M27 6h1v1h-1z"/><path fill="#74fdff" fill-rule="evenodd" d="M54 6h1v1h-1z"/><path fill="#59fdfe" fill-rule="evenodd" d="M66 6h1v1h-1zm-1 2h1v1h-1zm0 1v1h-1v-1z"/><path fill="#57fdfe" fill-rule="evenodd" d="M67 6h1v1h-1zm-2 3h1v1h-1z"/><path fill="#55fdfe" fill-rule="evenodd" d="M68 6h1v1h-1zm-2 3h1v1h-1z"/><path fill="#53fdfe" fill-rule="evenodd" d="M69 6h1v1h-1zm-2 3h1v1h-1z"/><path fill="#51fdfe" fill-rule="evenodd" d="M70 6h1v1h-1zm0 1v1h-1v-1zm-2 2h1v1h-1zm0 1v1h-1v-1z"/><path fill="#4efdfe" fill-rule="evenodd" d="M71 6h1v1h-1zm-1 2h1v1h-1zm-2 3h1v1h-1z"/><path fill="#4cfcfe" fill-rule="evenodd" d="M72 6h1v1h-1zm-1 2h1v1h-1zm0 1v1h-1v-1zm-2 2h1v1h-1zm0 1v1h-1v-1z"/><path fill="#4afbfd" fill-rule="evenodd" d="M73 6h1v1h-1z"/><path fill="#48fbfd" fill-rule="evenodd" d="M74 6h1v1h-1z"/><path fill="#0cd7fd" fill-rule="evenodd" d="M24 7h1v1h-1z"/><path fill="#0cd6fe" fill-rule="evenodd" d="M25 7h2v1h-1v1h-2v-1h1zm-3 2h1v1h-1z"/><path fill="#6efdff" fill-rule="evenodd" d="M56 7h1v1h-1z"/><path fill="#4ffdfe" fill-rule="evenodd" d="M70 7h1v1h-1zm-1 2h1v1h-1zm0 1v1h-1v-1zm-2 2h1v1h-1z"/><path fill="#4dfdfe" fill-rule="evenodd" d="M71 7h1v1h-1zm-2 3h1v1h-1z"/><path fill="#4bfcfe" fill-rule="evenodd" d="M72 7h1v1h-1zm-2 3h1v1h-1z"/><path fill="#49fcfe" fill-rule="evenodd" d="M73 7h1v1h-1zm0 1v1h-1v-1zm-2 2h1v1h-1zm-2 3h1v1h-1z"/><path fill="#46fcfe" fill-rule="evenodd" d="M74 7h1v1h-1zm-1 2h1v1h-1zm-2 3h1v1h-1z"/><path fill="#43fbfd" fill-rule="evenodd" d="M75 7h1v1h-1z"/><path fill="#0cd6fd" fill-rule="evenodd" d="M22 8h1v1h-1z"/><path fill="#0cd5fd" fill-rule="evenodd" d="M23 8h1v1h-1zm3 0h1v1h-1zm-6 2h1v1h-1z"/><path fill="#93ecff" fill-rule="evenodd" d="M29 8h1v1h-1z"/><path fill="#67fdff" fill-rule="evenodd" d="M58 8h1v1h-1z"/><path fill="#50fdfe" fill-rule="evenodd" d="M69 8h1v1h-1zm-2 3h1v1h-1z"/><path fill="#47fcfe" fill-rule="evenodd" d="M73 8h1v1h-1zm-1 2h1v1h-1zm0 1v1h-1v-1zm-2 2h1v1h-1z"/><path fill="#45fcfe" fill-rule="evenodd" d="M74 8h1v1h-1zm-2 3h1v1h-1zm-1 2h1v1h-1z"/><path fill="#43fcfe" fill-rule="evenodd" d="M75 8h1v1h-1zm-2 3h1v1h-1zm-2 3h1v1h-1z"/><path fill="#41fcfe" fill-rule="evenodd" d="M76 8h1v1h-1zm0 1v1h-1v-1zm-2 2h1v1h-1zm-2 3h1v1h-1z"/><path fill="#3efcfd" fill-rule="evenodd" d="M77 8h1v1h-1z"/><path fill="#0cd5fe" fill-rule="evenodd" d="M23 9h3v1h-3zm0 1v1h-2v-1zm-2 1v1h-2v-1z"/><path fill="#0ad3fd" fill-rule="evenodd" d="M26 9h1v1h-1zm-10 4h1v1h-1z"/><path fill="#8bebff" fill-rule="evenodd" d="M29 9h1v2h1v1h1v1h1v1h4v-1h2v-1h1v-2h1v-1h1v3h-1v2h-1v1h-1v1h-1v1h-4v-1h-3v-1h-1v-3h-1zm-3 27h1v3h-1v1h1v1h-2v2h-3v1h-2v-1h-2v-1h-1v-1h-1v-1h-2v-1h1v-2h1v1h1v1h1v1h6v-1h1v-1h1zm58 13h1v1h-1zm7 8h1v1h-1zm-78 5h1v1h1v1h1v1h3v-1h2v-1h1v-1h1v1h-1v1h1v1h-2v2h-5v-1h-1v-1h-1v-1h-1zm68 5h1v1h-1zm-9 2h1v1h-1zm1 1h1v1h2v1h2v-1h2v-1h1v2h-1v1h-2v1h-2v-1h-2v-1h-1zm-10 6h1v1h-1zm-5 1h1v1h-1zm1 1h5v1h-3v1h-1v-1h-1zm0 10h1v1h-1zm1 2h1v1h1v1h3v-1h2v-1h1v1h-1v2h-1v1h-3v-1h-3z"/><path fill="#d8f8ff" fill-rule="evenodd" d="M40 9h1v1h-1z"/><path fill="#0acffe" fill-rule="evenodd" d="M44 9h1v1h-1zm-18 6h1v2h-3v-1h2zm-2 2v1h-2v1h-3v1h-3v-1h2v-1h3v-1zm-8 3v1h-2v1h-3v1h-2v-1h1v-1h3v-1z"/><path fill="#0acefe" fill-rule="evenodd" d="M45 9h1v2h-2v-1h1zm-21 8h2v1h-1v1h-3v-1h2zm-2 2v1h-3v-1zm-3 1v1h-2v1h-3v-1h2v-1zm-5 2v1h-3v-1zm-3 1v1h-2v1h-1v-2z"/><path fill="#0acdfd" fill-rule="evenodd" d="M46 9h1v1h-1z"/><path fill="#0acefd" fill-rule="evenodd" d="M47 9h1v1h-1zm-20 7h1v1h-1zm0 1v1h-1v-1zm-20 7h1v1h-1z"/><path fill="#61fcfd" fill-rule="evenodd" d="M60 9h1v1h-1z"/><path fill="#4afcfe" fill-rule="evenodd" d="M71 9h1v1h-1zm-1 2h1v1h-1zm0 1v1h-1v-1z"/><path fill="#48fcfe" fill-rule="evenodd" d="M72 9h1v1h-1zm-2 3h1v1h-1z"/><path fill="#44fcfe" fill-rule="evenodd" d="M74 9h1v1h-1zm0 1v1h-1v-1zm-2 2h1v1h-1z"/><path fill="#3ffcfe" fill-rule="evenodd" d="M76 9h1v1h-1zm-1 2h1v1h-1zm0 1v1h-1v-1zm-2 2h1v1h-1z"/><path fill="#3dfcfe" fill-rule="evenodd" d="M77 9h1v1h-1zm-2 3h1v1h-1zm-1 2h1v1h-1zm0 1v1h-1v-1z"/><path fill="#3bfbfd" fill-rule="evenodd" d="M78 9h1v1h-1z"/><path fill="#0bd5fe" fill-rule="evenodd" d="M23 10h1v1h-1z"/><path fill="#0bd4fe" fill-rule="evenodd" d="M24 10h2v1h-2zm0 1v1h-3v-1zm-3 1v1h-2v1h-2v-1h1v-1z"/><path fill="#0bd4fd" fill-rule="evenodd" d="M26 10h1v1h-1zm-9 2h1v1h-1z"/><path fill="#0acdfe" fill-rule="evenodd" d="M46 10h3v1h-3zm0 1v1h-2v-1zm-24 8h2v1h-2zm0 1v1h-2v1h-3v-1h2v-1zm-5 2v1h-2v1h-3v1h-3v-1h2v-1h3v-1zm-8 3v1h-2v-1z"/><path fill="#09ccfd" fill-rule="evenodd" d="M49 10h2v1h-2zm-6 2h1v2h-1zm-18 6h1v1h-1z"/><path fill="#5bfcfd" fill-rule="evenodd" d="M62 10h1v1h-1z"/><path fill="#42fcfe" fill-rule="evenodd" d="M74 10h1v1h-1zm-1 2h1v1h-1zm0 1v1h-1v-1z"/><path fill="#40fcfe" fill-rule="evenodd" d="M75 10h1v1h-1zm-2 3h1v1h-1z"/><path fill="#3efcfe" fill-rule="evenodd" d="M76 10h1v1h-1zm-2 3h1v1h-1z"/><path fill="#3cfcfe" fill-rule="evenodd" d="M77 10h1v1h-1zm0 1v1h-1v-1zm-2 2h1v1h-1z"/><path fill="#39fcfe" fill-rule="evenodd" d="M78 10h1v1h-1zm-1 2h1v1h-1zm-2 3h1v1h-1z"/><path fill="#37fcfe" fill-rule="evenodd" d="M79 10h1v1h-1zm-2 3h1v1h-1z"/><path fill="#35fbfd" fill-rule="evenodd" d="M80 10h1v1h-1z"/><path fill="#0bd5fd" fill-rule="evenodd" d="M18 11h1v1h-1z"/><path fill="#0bd3fe" fill-rule="evenodd" d="M24 11h2v1h-1v1h-3v1h-3v-1h2v-1h3zm-5 3v1h-2v1h-2v-1h1v-1z"/><path fill="#0bd2fd" fill-rule="evenodd" d="M26 11h1v1h-1zm-14 6h1v1h-1z"/><path fill="#ddf9ff" fill-rule="evenodd" d="M39 11h1v1h-1z"/><path fill="#0accfe" fill-rule="evenodd" d="M46 11h4v1h-3v1h-3v-1h2zm-26 10h1v1h-1zm0 1v1h-2v1h-3v-1h2v-1zm-5 2v1h-2v1h-3v1h-3v-1h2v-1h3v-1zm-8 3v1h-1v-1z"/><path fill="#0acbfe" fill-rule="evenodd" d="M50 11h1v1h-1zm-3 1h1v1h-1zm-3 1h2v1h-2zm-26 10h1v1h-1zm-3 1h2v1h-2zm-2 1h1v1h-1zm-3 1h1v1h-1zm-3 1h2v1h-2z"/><path fill="#09cafd" fill-rule="evenodd" d="M51 11h2v1h-2zm-7 3h1v1h-1zm-25 9h1v1h-1zm-15 7h1v1h-1z"/><path fill="#57fcfd" fill-rule="evenodd" d="M64 11h1v1h-1z"/><path fill="#3afcfe" fill-rule="evenodd" d="M77 11h1v1h-1zm-1 2h1v1h-1zm0 1v1h-1v-1z"/><path fill="#38fcfe" fill-rule="evenodd" d="M78 11h1v1h-1zm-2 3h1v1h-1z"/><path fill="#36fbfe" fill-rule="evenodd" d="M79 11h1v1h-1zm-2 3h1v1h-1z"/><path fill="#34fbfe" fill-rule="evenodd" d="M80 11h1v1h-1zm0 1v1h-1v-1zm-2 2h1v1h-1z"/><path fill="#30fbfd" fill-rule="evenodd" d="M81 11h1v1h-1z"/><path fill="#0bd2fe" fill-rule="evenodd" d="M25 12h1v1h-1zm0 1v1h-2v1h-3v1h-3v-1h2v-1h3v-1zm-8 3v1h-2v1h-2v-1h1v-1z"/><path fill="#0ad1fd" fill-rule="evenodd" d="M26 12h1v1h-1z"/><path fill="#8aeaff" fill-rule="evenodd" d="M29 12h1v2h-1zm10 3h1v1h-1zm-6 1h1v1h-1zm-19 19h1v1h-1zm0 2h1v1h-1zm5 6h1v1h-1zm64 6h1v1h-1zm6 7h1v1h-1zm1 1h1v1h-1zm-77 7h1v1h-1zm1 1h1v1h-1zm1 1h1v1h-1zm2 1h1v1h-1zm55 0h1v2h-1zm0 3h1v1h-1zm1 2h1v1h-1zm7 0h1v1h-1zm-17 5h1v1h-1zm-2 2h1v1h-1zm0 14h1v1h-1z"/><path fill="#d9f8ff" fill-rule="evenodd" d="M38 12h1v1h-1z"/><path fill="#09cbfe" fill-rule="evenodd" d="M48 12h2v1h-2zm0 1v1h-2v-1zm-31 11h1v1h-1zm-3 1h2v1h-2zm-3 1h2v1h-2zm-2 1h1v1h-1zm-3 1h2v1h-2z"/><path fill="#09cafe" fill-rule="evenodd" d="M50 12h3v1h-2v1h-3v-1h2zm-2 2v1h-3v-1zm-32 11h2v1h-2zm0 1v1h-2v1h-3v1h-3v-1h2v-1h3v-1zm-8 3v1h-2v1h-1v-2z"/><path fill="#09c8fd" fill-rule="evenodd" d="M53 12h1v1h-1zm-38 16h1v1h-1zm-12 5h1v1h-1z"/><path fill="#08c9fd" fill-rule="evenodd" d="M54 12h1v1h-1zm-38 15h1v1h-1z"/><path fill="#3bfcfe" fill-rule="evenodd" d="M76 12h1v1h-1zm-2 3h1v1h-1z"/><path fill="#37fbfe" fill-rule="evenodd" d="M78 12h1v1h-1zm-2 3h1v1h-1z"/><path fill="#32fbfe" fill-rule="evenodd" d="M80 12h1v1h-1zm-1 2h1v1h-1zm0 1v1h-1v-1z"/><path fill="#30fbfe" fill-rule="evenodd" d="M81 12h1v1h-1zm-2 3h1v1h-1zm-1 2h1v1h-1z"/><path fill="#2efbfd" fill-rule="evenodd" d="M82 12h1v1h-1z"/><path fill="#0bd1fe" fill-rule="evenodd" d="M25 13h1v2h-3v-1h2zm-2 2v1h-3v-1zm-3 1v1h-2v1h-3v-1h2v-1zm-5 2v1h-3v-1zm-3 1v1h-1v-1z"/><path fill="#0bd1fd" fill-rule="evenodd" d="M26 13h1v1h-1zm-15 5h1v1h-1zm0 1v1h-1v-1z"/><path fill="#a1efff" fill-rule="evenodd" d="M33 13h1v1h-1z"/><path fill="#c8f5ff" fill-rule="evenodd" d="M36 13h1v1h-1z"/><path fill="#09c9fe" fill-rule="evenodd" d="M51 13h3v1h-3zm0 1v1h-2v1h-1v-2zm-35 12h1v1h-1zm0 1v1h-2v-1zm-2 1v1h-2v1h-3v1h-3v-1h2v-1h3v-1zm-8 3v1h-2v-1z"/><path fill="#09c8fe" fill-rule="evenodd" d="M54 13h2v1h-2zm0 1v1h-2v1h-3v-1h2v-1zm-40 14h1v2h-3v-1h2zm-2 2v1h-3v-1zm-3 1v1h-2v1h-3v-1h2v-1z"/><path fill="#08c8fd" fill-rule="evenodd" d="M56 13h1v1h-1zm-10 2h1v1h-1zm4 11h1v1h-1zm6 40h1v1h-1z"/><path fill="#4bfbfd" fill-rule="evenodd" d="M68 13h1v1h-1z"/><path fill="#35fbfe" fill-rule="evenodd" d="M78 13h1v1h-1zm-1 2h1v1h-1zm0 1v1h-1v-1z"/><path fill="#33fbfe" fill-rule="evenodd" d="M79 13h1v1h-1zm-2 3h1v1h-1z"/><path fill="#31fbfe" fill-rule="evenodd" d="M80 13h1v1h-1zm-2 3h1v1h-1z"/><path fill="#2ffbfe" fill-rule="evenodd" d="M81 13h1v1h-1zm0 1v1h-1v-1zm-2 2h1v1h-1z"/><path fill="#2cfbfe" fill-rule="evenodd" d="M82 13h1v1h-1zm-1 2h1v1h-1z"/><path fill="#2afafd" fill-rule="evenodd" d="M83 13h1v1h-1z"/><path fill="#0bd3fd" fill-rule="evenodd" d="M15 14h1v1h-1zm0 1v1h-1v-1zm-1 1v1h-1v-1z"/><path fill="#0bd0fe" fill-rule="evenodd" d="M26 14h1v1h-1zm-3 1h2v1h-2zm0 1v1h-3v-1zm-3 1v1h-2v-1zm-5 1h2v1h-2zm0 1v1h-3v-1zm-3 1v1h-2v-1z"/><path fill="#08cafd" fill-rule="evenodd" d="M43 14h1v1h-1z"/><path fill="#09c7fe" fill-rule="evenodd" d="M54 14h3v1h-2v1h-3v-1h2zm-2 2v1h-2v-1zm-40 14h2v1h-1v1h-3v1h-3v-1h2v-1h3zm-5 3v1h-2v1h-2v-1h1v-1z"/><path fill="#09c6fd" fill-rule="evenodd" d="M57 14h1v1h-1z"/><path fill="#07c6fd" fill-rule="evenodd" d="M58 14h1v1h-1zm-10 9h1v4h-1zm1 4h1v2h-1zm5 40h2v5h-1v-4h-1z"/><path fill="#45fbfd" fill-rule="evenodd" d="M70 14h1v1h-1z"/><path fill="#2dfbfe" fill-rule="evenodd" d="M81 14h1v1h-1zm-1 2h1v1h-1zm0 1v1h-1v-1z"/><path fill="#2bfbfe" fill-rule="evenodd" d="M82 14h1v1h-1zm-2 3h1v1h-1z"/><path fill="#29fbfe" fill-rule="evenodd" d="M83 14h1v1h-1zm-2 3h1v1h-1z"/><path fill="#26fafd" fill-rule="evenodd" d="M84 14h1v1h-1z"/><path fill="#0ad0fe" fill-rule="evenodd" d="M25 15h1v1h-1zm-2 1h1v1h-1zm-3 1h1v1h-1zm-3 1h1v1h-1zm-2 1h1v1h-1zm-3 1h1v1h-1z"/><path fill="#09cffd" fill-rule="evenodd" d="M27 15h1v1h-1zm-19 7h1v1h-1z"/><path fill="#09c9fd" fill-rule="evenodd" d="M47 15h1v1h-1zm-29 9h1v1h-1zm-1 2h1v1h-1zm-14 6h1v1h-1z"/><path fill="#09c6fe" fill-rule="evenodd" d="M55 15h1v1h-1zm-3 1h1v1h-1zm-42 16h1v1h-1zm-3 1h1v1h-1z"/><path fill="#08c6fe" fill-rule="evenodd" d="M56 15h2v1h-2zm0 1v1h-3v-1zm-3 1v1h-1v-1zm-42 15h2v1h-2zm0 1v1h-3v-1zm-3 1v1h-3v-1zm-3 1v1h-2v-1zm-2 1v1h-1v-1z"/><path fill="#08c5fe" fill-rule="evenodd" d="M58 15h1v2h-3v-1h2zm-2 2v1h-3v-1zm-45 16h1v1h-1zm0 1v1h-3v-1zm-3 1v1h-2v1h-3v-1h2v-1zm-5 2v1h-1v-1z"/><path fill="#08c5fd" fill-rule="evenodd" d="M59 15h1v1h-1zm-57 20h1v1h-1z"/><path fill="#07c5fd" fill-rule="evenodd" d="M60 15h1v1h-1zm-9 2h1v1h-1zm-38 14h1v1h-1zm-1 2h1v1h-1z"/><path fill="#40fbfd" fill-rule="evenodd" d="M72 15h1v1h-1z"/><path fill="#2efbfe" fill-rule="evenodd" d="M80 15h1v1h-1z"/><path fill="#2afbfe" fill-rule="evenodd" d="M82 15h1v1h-1zm0 1v1h-1v-1zm-2 2h1v1h-1z"/><path fill="#27fbfe" fill-rule="evenodd" d="M83 15h1v1h-1zm-1 2h1v1h-1z"/><path fill="#25fbfe" fill-rule="evenodd" d="M84 15h1v1h-1zm-1 2h1v1h-1zm0 1v1h-1v-1z"/><path fill="#23fafd" fill-rule="evenodd" d="M85 15h1v1h-1zm-3 4h1v1h-1z"/><path fill="#8beaff" fill-rule="evenodd" d="M32 16h1v1h-1zm-6 23h1v1h-1zm-10 2h1v1h-1zm6 2h1v1h-1zm71 13h1v1h-1zm-71 4h1v1h-1zm0 3h1v1h-1zm-1 2h1v1h-1zm60 4h1v1h-1zm-6 4h1v1h-1zm3 0h1v1h-1zm-19 6h1v1h-1zm0 10h1v1h-1zm9 0h1v1h-1zm-1 2h1v1h-1z"/><path fill="#09c7fd" fill-rule="evenodd" d="M49 16h1v1h-1zm-35 14h1v1h-1z"/><path fill="#08c4fe" fill-rule="evenodd" d="M59 16h2v1h-2zm0 1v1h-2v1h-3v-1h2v-1zm-51 18h3v1h-2v1h-3v-1h2zm-2 2v1h-2v1h-2v-1h1v-1z"/><path fill="#07c4fd" fill-rule="evenodd" d="M61 16h1v1h-1zm-50 19h1v1h-1z"/><path fill="#3afcfd" fill-rule="evenodd" d="M74 16h1v1h-1z"/><path fill="#37fbfd" fill-rule="evenodd" d="M75 16h1v1h-1z"/><path fill="#28fbfe" fill-rule="evenodd" d="M82 16h1v1h-1zm-1 2h1v1h-1z"/><path fill="#26fbfe" fill-rule="evenodd" d="M83 16h1v1h-1z"/><path fill="#24fbfe" fill-rule="evenodd" d="M84 16h1v1h-1z"/><path fill="#22fbfe" fill-rule="evenodd" d="M85 16h1v1h-1zm0 1v1h-1v-1zm-2 2h1v1h-1z"/><path fill="#1ef9fc" fill-rule="evenodd" d="M86 16h1v1h-1z"/><path fill="#08c3fe" fill-rule="evenodd" d="M59 17h3v1h-2v1h-3v-1h2zm-2 2v1h-1v-1zm-48 17h1v2h-3v1h-3v-1h2v-1h3zm-5 3v1h-2v-1zm-2 1v1h-1v-1z"/><path fill="#08c2fe" fill-rule="evenodd" d="M62 17h1v2h-3v-1h2zm-2 2v1h-3v-1zm-53 19h3v1h-3zm0 1v1h-2v1h-3v-1h2v-1zm-5 2v1h-1v-1z"/><path fill="#08c2fd" fill-rule="evenodd" d="M63 17h1v1h-1zm-53 19h1v1h-1zm-9 3h1v1h-1z"/><path fill="#34fbfd" fill-rule="evenodd" d="M76 17h1v1h-1z"/><path fill="#32fafd" fill-rule="evenodd" d="M77 17h1v1h-1z"/><path fill="#20fafd" fill-rule="evenodd" d="M85 17h1v1h-1zm-1 2h1v1h-1z"/><path fill="#1efafd" fill-rule="evenodd" d="M86 17h1v1h-1z"/><path fill="#1cfafc" fill-rule="evenodd" d="M87 17h1v1h-1z"/><path fill="#07c3fd" fill-rule="evenodd" d="M53 18h1v1h-1zm2 1h1v1h-1z"/><path fill="#07c1ff" fill-rule="evenodd" d="M63 18h2v1h-1v1h-3v1h-3v-1h2v-1h3zm-56 21h2v1h-1v1h-3v-1h2zm-2 2v1h-2v1h-3v-1h2v-1z"/><path fill="#06c1ff" fill-rule="evenodd" d="M65 18h1v1h-1z"/><path fill="#2bfafd" fill-rule="evenodd" d="M79 18h1v1h-1z"/><path fill="#23fbfe" fill-rule="evenodd" d="M83 18h1v1h-1z"/><path fill="#21fafd" fill-rule="evenodd" d="M84 18h1v1h-1z"/><path fill="#1ffafd" fill-rule="evenodd" d="M85 18h1v1h-1z"/><path fill="#1dfafd" fill-rule="evenodd" d="M86 18h1v1h-1zm0 1v1h-1v-1z"/><path fill="#1afafd" fill-rule="evenodd" d="M87 18h1v1h-1zm-1 2h1v1h-1z"/><path fill="#18f9fc" fill-rule="evenodd" d="M88 18h1v1h-1z"/><path fill="#04a3f1" fill-rule="evenodd" d="M34 19h1v1h-1z"/><path fill="#03a6f1" fill-rule="evenodd" d="M35 19h1v1h-1z"/><path fill="#03aaf3" fill-rule="evenodd" d="M36 19h1v1h-1z"/><path fill="#03adf3" fill-rule="evenodd" d="M37 19h1v1h-1zm9 59h1v1h-1z"/><path fill="#04aff5" fill-rule="evenodd" d="M38 19h1v1h-1zm0 3h1v2h-1zm8 53h1v2h-1z"/><path fill="#04b4f7" fill-rule="evenodd" d="M39 19h1v1h-1zm8 52h1v2h-1z"/><path fill="#07c0ff" fill-rule="evenodd" d="M64 19h3v1h-3zm0 1v1h-2v1h-4v-1h3v-1zm-55 19h1v1h-1zm0 1v1h-1v-1zm-1 1v1h-2v1h-3v-1h2v-1zm-5 2v1h-2v1h-1v-2z"/><path fill="#06beff" fill-rule="evenodd" d="M67 19h1v1h-1zm2 1h1v1h-1z"/><path fill="#26fbfd" fill-rule="evenodd" d="M81 19h1v1h-1z"/><path fill="#1bfafd" fill-rule="evenodd" d="M86 19h1v1h-1z"/><path fill="#19fafd" fill-rule="evenodd" d="M87 19h1v1h-1z"/><path fill="#17fafd" fill-rule="evenodd" d="M88 19h1v1h-1z"/><path fill="#15f9fd" fill-rule="evenodd" d="M89 19h1v1h-1z"/><path fill="#0accfd" fill-rule="evenodd" d="M22 20h1v1h-1zm0 1v1h-1v-1zm-16 5h1v1h-1z"/><path fill="#0299ec" fill-rule="evenodd" d="M31 20h1v1h-1z"/><path fill="#039eee" fill-rule="evenodd" d="M32 20h1v1h-1z"/><path fill="#04a1ef" fill-rule="evenodd" d="M33 20h1v1h-1zm9 58h1v2h-1z"/><path fill="#04a4f0" fill-rule="evenodd" d="M34 20h1v1h-1z"/><path fill="#04a7f2" fill-rule="evenodd" d="M35 20h1v1h-1z"/><path fill="#04aaf3" fill-rule="evenodd" d="M36 20h1v1h-1zm8 52h1v2h-1z"/><path fill="#04adf4" fill-rule="evenodd" d="M37 20h1v1h-1zm8 52h1v2h-1z"/><path fill="#04b0f5" fill-rule="evenodd" d="M38 20h1v2h-1zm8 53h1v2h-1z"/><path fill="#04b3f7" fill-rule="evenodd" d="M39 20h1v1h-1zm8 53h1v1h-1z"/><path fill="#04b6f8" fill-rule="evenodd" d="M40 20h1v2h-1zm8 53h1v2h-1z"/><path fill="#05b9f9" fill-rule="evenodd" d="M41 20h1v2h-1zm8 53h1v2h-1z"/><path fill="#05bcf9" fill-rule="evenodd" d="M42 20h1v1h-1z"/><path fill="#05befc" fill-rule="evenodd" d="M43 20h1v1h-1z"/><path fill="#07c2fd" fill-rule="evenodd" d="M56 20h1v1h-1zm-46 17h1v1h-1z"/><path fill="#08c1fd" fill-rule="evenodd" d="M57 20h1v1h-1z"/><path fill="#07bfff" fill-rule="evenodd" d="M64 20h3v1h-2v1h-3v-1h2zm-2 2v1h-2v-1zm-54 19h1v2h-3v-1h2zm-2 2v1h-2v1h-3v-1h2v-1z"/><path fill="#07beff" fill-rule="evenodd" d="M67 20h2v1h-1v1h-3v-1h2zm-2 2v1h-3v-1zm-59 21h2v1h-1v1h-3v-1h2zm-2 2v1h-2v1h-1v-2z"/><path fill="#1dfafc" fill-rule="evenodd" d="M84 20h1v1h-1z"/><path fill="#1cfafd" fill-rule="evenodd" d="M85 20h1v1h-1z"/><path fill="#18fafd" fill-rule="evenodd" d="M87 20h1v1h-1z"/><path fill="#15fafd" fill-rule="evenodd" d="M88 20h1v1h-1z"/><path fill="#13fafd" fill-rule="evenodd" d="M89 20h1v1h-1z"/><path fill="#0acffd" fill-rule="evenodd" d="M9 21h1v1h-1z"/><path fill="#0394ea" fill-rule="evenodd" d="M29 21h1v1h-1zm9 59h1v2h-1z"/><path fill="#0397eb" fill-rule="evenodd" d="M30 21h1v1h-1zm9 59h1v2h-1z"/><path fill="#039aec" fill-rule="evenodd" d="M31 21h1v2h-1zm8 54h1v1h-1z"/><path fill="#039dee" fill-rule="evenodd" d="M32 21h1v2h-1zm8 53h1v2h-1zm1 6h1v1h-1z"/><path fill="#04a0ef" fill-rule="evenodd" d="M33 21h1v2h-1zm8 53h1v2h-1z"/><path fill="#04a3f0" fill-rule="evenodd" d="M34 21h1v2h-1zm8 53h1v2h-1z"/><path fill="#04a6f1" fill-rule="evenodd" d="M35 21h1v2h-1zm8 52h1v3h-1z"/><path fill="#04a9f3" fill-rule="evenodd" d="M36 21h1v1h-1zm8 53h1v1h-1z"/><path fill="#04acf4" fill-rule="evenodd" d="M37 21h1v3h-1zm8 53h1v3h-1z"/><path fill="#04b3f6" fill-rule="evenodd" d="M39 21h1v1h-1zm1 3h1v1h-1zm7 50h1v1h-1z"/><path fill="#05bcfa" fill-rule="evenodd" d="M42 21h1v1h-1zm8 52h1v2h-1z"/><path fill="#05bffb" fill-rule="evenodd" d="M43 21h1v1h-1zm8 53h1v1h-1z"/><path fill="#05c2fd" fill-rule="evenodd" d="M44 21h1v1h-1z"/><path fill="#05c4fd" fill-rule="evenodd" d="M45 21h1v1h-1zm7 47h1v1h-1z"/><path fill="#06c5fc" fill-rule="evenodd" d="M46 21h1v1h-1zm9 51h1v1h-1z"/><path fill="#07bdff" fill-rule="evenodd" d="M68 21h2v1h-2zm0 1v1h-3v-1zm-3 1v1h-3v-1zm-58 21h1v1h-1zm0 1v1h-3v-1zm-3 1v1h-2v-1zm-4 0h1v1h-1zm1 1h1v1h-1z"/><path fill="#06bdff" fill-rule="evenodd" d="M70 21h1v1h-1zm-5 2h1v1h-1zm-61 23h1v1h-1z"/><path fill="#05bbff" fill-rule="evenodd" d="M71 21h1v1h-1zm3 1h1v1h-1zm-10 2h1v1h-1zm2 1h1v1h-1z"/><path fill="#18f9fd" fill-rule="evenodd" d="M86 21h1v1h-1z"/><path fill="#16fafd" fill-rule="evenodd" d="M87 21h1v1h-1z"/><path fill="#14fafd" fill-rule="evenodd" d="M88 21h1v1h-1z"/><path fill="#12fafd" fill-rule="evenodd" d="M89 21h1v1h-1z"/><path fill="#0ff9fc" fill-rule="evenodd" d="M90 21h1v1h-1z"/><path fill="#0acbfd" fill-rule="evenodd" d="M20 22h1v1h-1zm-15 6h1v1h-1z"/><path fill="#038de7" fill-rule="evenodd" d="M27 22h1v2h-1zm1 6h1v2h-1zm7 47h1v2h-1z"/><path fill="#0390e9" fill-rule="evenodd" d="M28 22h1v1h-1zm8 53h1v1h-1z"/><path fill="#0393ea" fill-rule="evenodd" d="M29 22h1v2h-1zm8 53h1v2h-1z"/><path fill="#0396eb" fill-rule="evenodd" d="M30 22h1v2h-1zm8 52h1v4h-1z"/><path fill="#04a9f2" fill-rule="evenodd" d="M36 22h1v1h-1zm8 53h1v1h-1z"/><path fill="#04b2f6" fill-rule="evenodd" d="M39 22h1v2h-1zm8 53h1v2h-1z"/><path fill="#04b5f7" fill-rule="evenodd" d="M40 22h1v2h-1zm8 53h1v2h-1z"/><path fill="#05b8f9" fill-rule="evenodd" d="M41 22h1v2h-1zm8 53h1v1h-1z"/><path fill="#05bbfa" fill-rule="evenodd" d="M42 22h1v2h-1zm7 48h1v1h-1z"/><path fill="#05befb" fill-rule="evenodd" d="M43 22h1v3h-1zm7 48h1v1h-1zm1 5h1v1h-1z"/><path fill="#05c2fc" fill-rule="evenodd" d="M44 22h1v1h-1zm7 46h1v1h-1z"/><path fill="#05c3fd" fill-rule="evenodd" d="M45 22h1v4h-1zm7 47h1v5h-1z"/><path fill="#06c4fd" fill-rule="evenodd" d="M46 22h1v4h-1zm7 46h1v5h-1zm1 5h1v1h-1z"/><path fill="#06c5fd" fill-rule="evenodd" d="M47 22h1v6h-1zm7 46h1v5h-1z"/><path fill="#06c6fc" fill-rule="evenodd" d="M48 22h1v1h-1z"/><path fill="#06bcff" fill-rule="evenodd" d="M68 22h4v1h-3v1h-3v-1h2zm-2 2v1h-1v-1zm-61 22h2v1h-2zm0 1v1h-2v1h-2v-1h1v-1z"/><path fill="#06bbff" fill-rule="evenodd" d="M72 22h2v1h-2zm0 1v1h-2v1h-4v-1h3v-1zm-65 23h1v1h-1zm0 1v1h-1v1h-3v-1h2v-1zm-7 1h1v1h2v1h-2v1h-1z"/><path fill="#12f9fc" fill-rule="evenodd" d="M88 22h1v1h-1z"/><path fill="#10fafd" fill-rule="evenodd" d="M89 22h1v1h-1z"/><path fill="#0efafd" fill-rule="evenodd" d="M90 22h1v1h-1z"/><path fill="#0cf9fd" fill-rule="evenodd" d="M91 22h1v1h-1z"/><path fill="#0387e5" fill-rule="evenodd" d="M25 23h1v1h-1zm1 5h1v2h-1zm2 14h1v2h-1zm5 33h1v2h-1zm1 6h1v2h-1z"/><path fill="#038ae6" fill-rule="evenodd" d="M26 23h1v1h-1zm1 5h1v2h-1zm2 15h1v1h-1zm5 32h1v2h-1zm1 6h1v2h-1z"/><path fill="#0390e8" fill-rule="evenodd" d="M28 23h1v1h-1zm8 53h1v1h-1z"/><path fill="#0399ec" fill-rule="evenodd" d="M31 23h1v2h-1zm8 53h1v2h-1zm1 5h1v1h-1z"/><path fill="#039ced" fill-rule="evenodd" d="M32 23h1v2h-1zm8 53h1v2h-1z"/><path fill="#049fef" fill-rule="evenodd" d="M33 23h1v1h-1zm8 53h1v1h-1z"/><path fill="#04a2f0" fill-rule="evenodd" d="M34 23h1v2h-1zm8 53h1v2h-1z"/><path fill="#04a5f1" fill-rule="evenodd" d="M35 23h1v2h-1zm8 53h1v2h-1z"/><path fill="#04a8f2" fill-rule="evenodd" d="M36 23h1v1h-1zm8 53h1v3h-1z"/><path fill="#05c1fc" fill-rule="evenodd" d="M44 23h1v2h-1zm7 46h1v2h-1z"/><path fill="#07c7fd" fill-rule="evenodd" d="M49 23h1v4h-1zm7 46h1v3h-1z"/><path fill="#07c7fb" fill-rule="evenodd" d="M50 23h1v1h-1zm7 48h1v1h-1z"/><path fill="#06baff" fill-rule="evenodd" d="M72 23h3v1h-2v1h-3v-1h2zm-2 2v1h-3v-1zm-64 23h1v2h-3v1h-3v-1h2v-1h3z"/><path fill="#06b9ff" fill-rule="evenodd" d="M75 23h1v2h-3v-1h2zm-2 2v1h-2v1h-2v-1h1v-1zm-69 25h3v1h-3zm0 1v1h-2v1h-2v-1h1v-1z"/><path fill="#05b8ff" fill-rule="evenodd" d="M76 23h1v1h-1zm-1 2h1v1h-1zm-3 1h2v1h-2zm-68 26h1v1h-1zm-3 1h1v1h-1z"/><path fill="#0cf9fc" fill-rule="evenodd" d="M90 23h1v1h-1z"/><path fill="#0bf9fd" fill-rule="evenodd" d="M91 23h1v1h-1z"/><path fill="#0282e2" fill-rule="evenodd" d="M24 24h1v1h-1zm3 19h1v1h-1z"/><path fill="#0386e4" fill-rule="evenodd" d="M25 24h1v2h-1zm3 20h1v2h-1zm5 33h1v2h-1z"/><path fill="#0389e6" fill-rule="evenodd" d="M26 24h1v1h-1zm1 6h1v1h-1zm7 47h1v2h-1z"/><path fill="#038ce7" fill-rule="evenodd" d="M27 24h1v2h-1zm1 6h1v1h-1zm7 47h1v2h-1z"/><path fill="#038fe8" fill-rule="evenodd" d="M28 24h1v2h-1zm8 53h1v2h-1z"/><path fill="#0392e9" fill-rule="evenodd" d="M29 24h1v2h-1zm8 53h1v3h-1zm1 5h1v1h-1z"/><path fill="#0395eb" fill-rule="evenodd" d="M30 24h1v1h-1z"/><path fill="#049fee" fill-rule="evenodd" d="M33 24h1v1h-1zm8 53h1v1h-1z"/><path fill="#03a7f1" fill-rule="evenodd" d="M36 24h1v1h-1z"/><path fill="#04aaf2" fill-rule="evenodd" d="M37 24h1v1h-1z"/><path fill="#04aef4" fill-rule="evenodd" d="M38 24h1v1h-1z"/><path fill="#03b1f5" fill-rule="evenodd" d="M39 24h1v1h-1z"/><path fill="#05b7f8" fill-rule="evenodd" d="M41 24h1v1h-1zm7 47h1v2h-1z"/><path fill="#05bafa" fill-rule="evenodd" d="M42 24h1v1h-1z"/><path fill="#08c8fc" fill-rule="evenodd" d="M50 24h1v2h-1zm1 2h1v3h-1zm6 40h1v5h-1z"/><path fill="#08c9fc" fill-rule="evenodd" d="M51 24h1v2h-1z"/><path fill="#08c9fb" fill-rule="evenodd" d="M52 24h1v1h-1zm1 6h1v1h-1zm4 35h1v1h-1z"/><path fill="#06b8ff" fill-rule="evenodd" d="M76 24h2v1h-2zm-3 1h2v1h-2zm-2 1h1v1h-1zm-67 25h2v1h-2zm0 1v1h-2v-1z"/><path fill="#04b7ff" fill-rule="evenodd" d="M78 24h1v1h-1zm-8 3h1v1h-1z"/><path fill="#09f9fc" fill-rule="evenodd" d="M91 24h1v1h-1z"/><path fill="#07f8fc" fill-rule="evenodd" d="M92 24h1v1h-1z"/><path fill="#027ee2" fill-rule="evenodd" d="M23 25h1v1h-1zm7 47h1v1h-1z"/><path fill="#0283e3" fill-rule="evenodd" d="M24 25h1v1h-1zm3 19h1v2h-1zm5 33h1v2h-1z"/><path fill="#0389e5" fill-rule="evenodd" d="M26 25h1v1h-1z"/><path fill="#0395ea" fill-rule="evenodd" d="M30 25h1v2h-1zm8 53h1v2h-1z"/><path fill="#0398ec" fill-rule="evenodd" d="M31 25h1v2h-1zm8 53h1v2h-1z"/><path fill="#039bed" fill-rule="evenodd" d="M32 25h1v1h-1zm8 53h1v2h-1z"/><path fill="#049dee" fill-rule="evenodd" d="M33 25h1v1h-1z"/><path fill="#03a0ee" fill-rule="evenodd" d="M34 25h1v1h-1z"/><path fill="#04bdfb" fill-rule="evenodd" d="M43 25h1v1h-1z"/><path fill="#05c0fc" fill-rule="evenodd" d="M44 25h1v1h-1zm7 46h1v2h-1z"/><path fill="#09cafc" fill-rule="evenodd" d="M52 25h2v5h-1v-4h-1zm7 40h1v5h-1z"/><path fill="#0acafb" fill-rule="evenodd" d="M54 25h1v1h-1zm1 6h1v1h-1z"/><path fill="#05b7ff" fill-rule="evenodd" d="M76 25h4v1h-3v1h-3v-1h2zm-2 2v1h-3v-1zm-68 24h1v1h-1zm0 1v2h-3v1h-2v-1h-1v-1h1v1h1v-1h3v-1z"/><path fill="#05b6ff" fill-rule="evenodd" d="M80 25h1v1h-1zm0 1v1h-2v1h-3v1h-2v-1h1v-1h3v-1zm-77 28h3v1h-3zm0 1v1h-2v-1z"/><path fill="#06f8fc" fill-rule="evenodd" d="M92 25h1v1h-1z"/><path fill="#03f9fd" fill-rule="evenodd" d="M93 25h1v1h-1z"/><path fill="#027cdf" fill-rule="evenodd" d="M22 26h1v1h-1z"/><path fill="#027fe2" fill-rule="evenodd" d="M23 26h1v1h-1zm3 19h1v2h-1zm5 34h1v1h-1z"/><path fill="#0282e3" fill-rule="evenodd" d="M24 26h1v2h-1zm3 20h1v2h-1zm4 27h1v1h-1zm1 6h1v2h-1z"/><path fill="#0385e4" fill-rule="evenodd" d="M25 26h1v1h-1zm8 53h1v1h-1z"/><path fill="#0388e5" fill-rule="evenodd" d="M26 26h1v2h-1zm7 48h1v1h-1zm1 5h1v2h-1z"/><path fill="#038be7" fill-rule="evenodd" d="M27 26h1v1h-1zm8 53h1v1h-1z"/><path fill="#038ee8" fill-rule="evenodd" d="M28 26h1v2h-1zm7 48h1v1h-1zm1 5h1v2h-1z"/><path fill="#0391e9" fill-rule="evenodd" d="M29 26h1v3h-1zm7 48h1v1h-1zm1 6h1v2h-1z"/><path fill="#039aed" fill-rule="evenodd" d="M32 26h1v1h-1zm8 54h1v1h-1z"/><path fill="#04c2fd" fill-rule="evenodd" d="M45 26h1v1h-1z"/><path fill="#06c3fc" fill-rule="evenodd" d="M46 26h1v1h-1z"/><path fill="#09c9fc" fill-rule="evenodd" d="M52 26h1v4h-1zm6 39h1v5h-1z"/><path fill="#0acbfc" fill-rule="evenodd" d="M54 26h1v5h-1zm6 38h1v5h-1z"/><path fill="#0accfc" fill-rule="evenodd" d="M55 26h1v5h-1zm1 6h1v1h-1zm5 33h1v3h-1z"/><path fill="#0bcdfc" fill-rule="evenodd" d="M56 26h1v4h-1zm1 4h1v3h-1zm4 33h2v5h-1v-4h-1z"/><path fill="#05b9ff" fill-rule="evenodd" d="M68 26h1v1h-1zm-68 25h1v1h-1z"/><path fill="#05b5ff" fill-rule="evenodd" d="M80 26h2v1h-1v1h-3v-1h2zm-2 2v1h-3v-1zm-3 1v1h-1v-1zm-72 26h3v1h-2v1h-3v-1h2z"/><path fill="#05b4ff" fill-rule="evenodd" d="M82 26h2v2h-3v-1h1zm-1 2v1h-2v1h-4v-1h3v-1zm-75 27h1v1h-1zm0 1v1h-1v1h-4v-1h3v-1z"/><path fill="#02f8fc" fill-rule="evenodd" d="M93 26h1v1h-1z"/><path fill="#0277de" fill-rule="evenodd" d="M21 27h1v1h-1zm3 23h1v1h-1zm3 20h1v1h-1zm1 6h1v2h-1z"/><path fill="#027be0" fill-rule="evenodd" d="M22 27h1v1h-1zm3 20h1v2h-1zm4 27h1v2h-1zm1 6h1v2h-1z"/><path fill="#027fe1" fill-rule="evenodd" d="M23 27h1v1h-1zm7 46h1v1h-1zm1 7h1v1h-1z"/><path fill="#0285e4" fill-rule="evenodd" d="M25 27h1v1h-1zm8 53h1v1h-1z"/><path fill="#038be6" fill-rule="evenodd" d="M27 27h1v1h-1zm8 53h1v1h-1z"/><path fill="#0394e9" fill-rule="evenodd" d="M30 27h1v1h-1z"/><path fill="#07c5fc" fill-rule="evenodd" d="M48 27h1v1h-1z"/><path fill="#08c7fd" fill-rule="evenodd" d="M50 27h1v2h-1zm6 40h1v2h-1z"/><path fill="#0bcdfb" fill-rule="evenodd" d="M57 27h1v1h-1z"/><path fill="#0ccefb" fill-rule="evenodd" d="M58 27h1v1h-1zm5 34h1v1h-1z"/><path fill="#05b3ff" fill-rule="evenodd" d="M84 27h1v1h-1zm-3 1h1v1h-1zm-2 1h1v1h-1zm-73 27h1v1h-1zm0 1v1h-1v-1zm-5 1h2v1h-2z"/><path fill="#04b2ff" fill-rule="evenodd" d="M85 27h1v1h2v1h-3v1h-3v-1h2v-1h1zm-3 3v1h-3v-1zm-5 0h1v1h-1zm-72 28h2v1h-1v1h-3v1h-1v-2h3z"/><path fill="#017bdf" fill-rule="evenodd" d="M22 28h1v1h-1z"/><path fill="#027de1" fill-rule="evenodd" d="M23 28h1v1h-1zm3 22h1v1h-1zm4 26h1v2h-1z"/><path fill="#0281e2" fill-rule="evenodd" d="M24 28h1v1h-1zm7 47h1v1h-1zm1 6h1v2h-1z"/><path fill="#0284e4" fill-rule="evenodd" d="M25 28h1v1h-1zm7 46h1v2h-1zm1 7h1v2h-1z"/><path fill="#0bcefc" fill-rule="evenodd" d="M57 28h1v2h-1zm6 39h1v1h-1z"/><path fill="#0ccffc" fill-rule="evenodd" d="M58 28h1v1h-1zm1 1h1v5h-1zm5 33h1v4h-1z"/><path fill="#0ccffb" fill-rule="evenodd" d="M59 28h2v1h-2zm0 6h1v1h-1zm5 32h1v1h-1z"/><path fill="#04b5ff" fill-rule="evenodd" d="M72 28h1v1h-1zm-66 25h1v2h-1z"/><path fill="#04b3ff" fill-rule="evenodd" d="M82 28h2v1h-2zm0 1v1h-2v-1zm-6 1h1v1h-1zm2 0h1v1h-1zm-72 27h1v1h-1zm-3 1h2v1h-2z"/><path fill="#0183e3" fill-rule="evenodd" d="M25 29h1v1h-1z"/><path fill="#038fe7" fill-rule="evenodd" d="M29 29h1v1h-1z"/><path fill="#07c7fc" fill-rule="evenodd" d="M51 29h1v1h-1z"/><path fill="#0ccefc" fill-rule="evenodd" d="M58 29h1v4h-1zm5 33h1v5h-1z"/><path fill="#0dd0fc" fill-rule="evenodd" d="M60 29h1v5h-1zm5 32h1v5h-1z"/><path fill="#0cd0fa" fill-rule="evenodd" d="M61 29h1v1h-1z"/><path fill="#04b1ff" fill-rule="evenodd" d="M85 29h3v1h-2v1h-3v1h-4v-1h3v-1h3zm-79 30h1v1h-1zm0 1v1h-2v1h-2v-1h1v-1z"/><path fill="#04afff" fill-rule="evenodd" d="M88 29h1v1h-1zm1 1h1v1h-1zm0 1v1h-2v1h-4v-1h3v-1zm-85 31h3v1h-2v1h-2v-1h1z"/><path fill="#03afff" fill-rule="evenodd" d="M89 29h1v1h-1zm1 1h1v1h-1zm-7 3h1v1h-1zm-76 27h1v1h-1z"/><path fill="#0bccfc" fill-rule="evenodd" d="M56 30h1v2h-1zm5 34h1v1h-1z"/><path fill="#0dd1fb" fill-rule="evenodd" d="M61 30h1v2h-1zm5 32h1v3h-1z"/><path fill="#0ed2fb" fill-rule="evenodd" d="M62 30h1v4h-1zm1 4h1v2h-1zm3 26h2v5h-1v-4h-1z"/><path fill="#0ed3fa" fill-rule="evenodd" d="M63 30h1v1h-1z"/><path fill="#04b0ff" fill-rule="evenodd" d="M86 30h3v1h-3zm0 1v1h-3v-1zm-3 1v1h-1v-1zm-77 28h1v2h-3v-1h2zm-2 2v1h-2v-1z"/><path fill="#0388e6" fill-rule="evenodd" d="M27 31h1v1h-1z"/><path fill="#08cafb" fill-rule="evenodd" d="M54 31h1v1h-1z"/><path fill="#0ed3fb" fill-rule="evenodd" d="M63 31h1v3h-1zm5 32h1v1h-1z"/><path fill="#0fd4fb" fill-rule="evenodd" d="M64 31h1v1h1v5h-1v-4h-1zm4 28h2v4h1v1h-2v-4h-1z"/><path fill="#0ed4fa" fill-rule="evenodd" d="M65 31h1v1h-1z"/><path fill="#10d5fb" fill-rule="evenodd" d="M66 31h1v7h-1zm4 27h1v5h-1z"/><path fill="#04aeff" fill-rule="evenodd" d="M89 31h1v1h-1zm-82 30h1v2h-1z"/><path fill="#03aeff" fill-rule="evenodd" d="M90 31h1v1h-1zm0 1v1h-3v-1zm-3 1v1h-3v-1zm-85 30h1v1h-1zm1 1h2v-1h3v1h-3v1h-2z"/><path fill="#03adff" fill-rule="evenodd" d="M91 31h1v1h1v1h-3v-1h1zm-1 2v1h-2v1h-2v-1h1v-1zm-85 31h3v1h-2v1h-3v-1h2z"/><path fill-rule="evenodd" d="M36 32h3v1h2v1h2v1h2v1h2v1h2v1h1v1h2v1h2v1h2v1h2v1h2v1h2v1h2v1h2v1h1v1h2v2h-1v1h-3v1h-3v1h-3v1h-3v1h-3v1h-1v2h-1v2h-1v2h-1v2h-1v2h-1v2h-1v1h-1v1h-1v-1h-1v-3h-1v-4h-1v-5h-1v-4h-1v-5h-1v-5h-1v-4h-1v-5h-1v-1h1z"/><path fill="#0dd1fc" fill-rule="evenodd" d="M61 32h1v3h-1z"/><path fill="#10d6fa" fill-rule="evenodd" d="M67 32h1v1h-1z"/><path fill="#11d7fa" fill-rule="evenodd" d="M68 32h1v1h-1zm1 1h1v1h-1zm0 6h1v1h-1zm3 17h1v1h-1z"/><path fill="#03b0ff" fill-rule="evenodd" d="M81 32h1v1h-1z"/><path fill="#0acdfb" fill-rule="evenodd" d="M58 33h1v1h-1zm4 29h1v1h-1z"/><path fill="#0fd3fb" fill-rule="evenodd" d="M64 33h1v4h-1zm4 27h1v3h-1z"/><path fill="#10d6fb" fill-rule="evenodd" d="M67 33h1v5h-1zm4 26h1v3h1v1h-2z"/><path fill="#11d7fb" fill-rule="evenodd" d="M68 33h1v4h1v2h-1v-1h-1zm3 24h2v5h-1v-4h-1z"/><path fill="#11d9fa" fill-rule="evenodd" d="M70 33h1v1h-1z"/><path fill="#03acff" fill-rule="evenodd" d="M90 33h3v1h-2v1h-3v-1h2zm-5 1h1v1h-1zm3 1v1h-1v-1zm-82 30h2v1h-2zm0 1v1h-2v-1z"/><path fill="#02aaff" fill-rule="evenodd" d="M93 33h1v1h-1z"/><path fill="#08c3fd" fill-rule="evenodd" d="M11 34h1v1h-1zm-10 4h1v1h-1z"/><path fill="#8aebff" fill-rule="evenodd" d="M14 34h1v1h-1zm0 2h1v1h-1zm0 2h1v1h-1zm1 2h1v1h-1zm10 1h1v1h-1zm-8 1h1v1h-1zm68 7h1v1h-1zm7 8h1v1h-1zm-70 4h1v1h-1zm-4 6h1v1h-1zm63 1h1v1h-1zm0 2h1v1h-1zm-9 1h1v1h-1zm2 2h1v1h-1zm5 0h1v1h-1zm-21 5h1v1h-1zm4 1h1v1h-1zm-3 11h1v1h-1zm3 3h1v1h-1z"/><path fill="#cef6ff" fill-rule="evenodd" d="M26 34h1v1h-1z"/><path fill="#0cd0fb" fill-rule="evenodd" d="M60 34h1v1h-1zm4 27h1v1h-1zm2 4h1v1h-1z"/><path fill="#0ed1fb" fill-rule="evenodd" d="M62 34h1v2h-1zm1 2h1v1h-1zm3 25h1v1h-1z"/><path fill="#11d8fb" fill-rule="evenodd" d="M69 34h1v3h-1zm4 26h1v2h-1z"/><path fill="#12d9fb" fill-rule="evenodd" d="M70 34h1v2h1v5h-1v-4h-1zm3 22h2v6h-1v-5h-1z"/><path fill="#13dafb" fill-rule="evenodd" d="M71 34h1v1h-1zm1 4h1v3h-1zm3 20h1v3h-1z"/><path fill="#13daf9" fill-rule="evenodd" d="M72 34h1v1h-1zm3 17h1v1h-1z"/><path fill="#03abff" fill-rule="evenodd" d="M91 34h1v1h-1zm-3 1h1v1h-1zm-80 30h1v1h-1zm-2 1h1v1h-1z"/><path fill="#03abfe" fill-rule="evenodd" d="M92 34h1v1h-1zm-3 1h1v1h-1zm-82 31h1v1h-1zm-3 1h2v1h-2z"/><path fill="#03aafe" fill-rule="evenodd" d="M93 34h1v1h-1zm0 1v1h-3v-1zm-3 1v1h-1v-1zm-84 31h2v1h-2z"/><path fill="#02aafd" fill-rule="evenodd" d="M94 34h1v1h-1z"/><path fill="#9ceeff" fill-rule="evenodd" d="M26 35h1v1h-1z"/><path fill="#0cd0fc" fill-rule="evenodd" d="M61 35h1v1h-1zm4 25h1v1h-1z"/><path fill="#12dafb" fill-rule="evenodd" d="M71 35h1v1h-1zm3 19h1v2h-1z"/><path fill="#13dbfa" fill-rule="evenodd" d="M72 35h1v1h-1zm1 1h1v6h-1zm1 6h1v1h-1zm1 11h1v2h-1zm1 3h1v4h-1z"/><path fill="#14dbfa" fill-rule="evenodd" d="M73 35h1v1h-1zm3 20h1v1h-1z"/><path fill="#14dcf9" fill-rule="evenodd" d="M74 35h1v1h-1zm4 24h1v1h-1z"/><path fill="#02abff" fill-rule="evenodd" d="M86 35h1v1h-1z"/><path fill="#03a9fe" fill-rule="evenodd" d="M93 35h1v1h-1zm-3 1h1v1h-1zm-82 31h1v1h-1zm-3 1h1v1h-1z"/><path fill="#03a9fd" fill-rule="evenodd" d="M94 35h1v1h-1zm-3 1h1v1h-1zm-87 32h1v1h-1zm2 0h2v1h-2z"/><path fill="#eafbff" fill-rule="evenodd" d="M15 36h1v1h-1z"/><path fill="#13dafa" fill-rule="evenodd" d="M72 36h1v2h-1zm3 19h1v3h-1z"/><path fill="#14dcfa" fill-rule="evenodd" d="M74 36h1v5h1v4h-1v-3h-1zm2 12h1v6h1v7h-1v-6h-1z"/><path fill="#15ddfa" fill-rule="evenodd" d="M75 36h2v1h-2zm1 4h1v4h-1zm1 7h1v3h-1zm1 7h1v3h-1z"/><path fill="#03aafd" fill-rule="evenodd" d="M88 36h1v1h-1zm-80 30h1v1h-1z"/><path fill="#03a8fd" fill-rule="evenodd" d="M92 36h3v1h-3zm0 1v1h-2v-1zm-84 31h2v1h-2zm-3 1h2v1h-2z"/><path fill="#03a6fc" fill-rule="evenodd" d="M95 36h1v2h-2v-1h1zm-1 2v1h-2v-1zm-2 1v1h-1v-1zm-85 31h3v1h-3zm0 1v1h-1v-1z"/><path fill="#e0faff" fill-rule="evenodd" d="M25 37h1v1h-1z"/><path fill="#0fd3fa" fill-rule="evenodd" d="M65 37h1v1h-1z"/><path fill="#12d8fb" fill-rule="evenodd" d="M70 37h1v3h-1zm3 18h1v1h-1zm0 2h1v3h-1z"/><path fill="#14ddfa" fill-rule="evenodd" d="M75 37h1v4h-1zm1 7h1v4h-1zm1 6h1v4h-1zm1 7h1v2h-1z"/><path fill="#15defa" fill-rule="evenodd" d="M76 37h1v3h-1zm1 3h1v6h1v7h1v6h-1v-5h-1v-7h-1z"/><path fill="#16dffa" fill-rule="evenodd" d="M77 37h1v1h-1zm1 2h1v6h-1zm1 7h1v5h-1zm1 6h1v6h-1z"/><path fill="#16e0fa" fill-rule="evenodd" d="M78 37h1v2h-1zm1 2h1v7h-1zm1 7h1v2h1v1h-1v3h-1zm1 6h1v6h-1z"/><path fill="#03a8fc" fill-rule="evenodd" d="M89 37h1v1h-1z"/><path fill="#03a7fd" fill-rule="evenodd" d="M92 37h1v1h-1zm-85 32h1v1h-1zm-2 1h1v1h-1z"/><path fill="#03a7fc" fill-rule="evenodd" d="M93 37h1v1h-1zm-3 1h2v1h-2zm-82 31h1v1h-1zm-2 1h1v1h-1z"/><path fill="#02a5fc" fill-rule="evenodd" d="M96 37h1v1h-1zm-91 34h1v1h-1z"/><path fill="#0fd5fa" fill-rule="evenodd" d="M67 38h1v1h-1zm2 20h1v1h-1z"/><path fill="#11d6fb" fill-rule="evenodd" d="M68 38h1v1h-1zm3 20h1v1h-1z"/><path fill="#15dffa" fill-rule="evenodd" d="M77 38h1v2h-1zm1 7h1v1h-1zm1 6h1v2h-1zm1 7h1v1h-1z"/><path fill="#17e1fa" fill-rule="evenodd" d="M79 38h2v7h-1v-6h-1zm2 7h2v1h-2zm0 5h1v1h1v6h-1v-5h-1z"/><path fill="#03a5fc" fill-rule="evenodd" d="M94 38h1v1h-1z"/><path fill="#03a5fb" fill-rule="evenodd" d="M95 38h2v1h-2zm-3 1h2v1h-2zm-85 32h2v1h-2zm0 1v1h-1v-1z"/><path fill="#fdffff" fill-rule="evenodd" d="M18 39h1v1h-1zm62 30h1v1h-1z"/><path fill="#a0efff" fill-rule="evenodd" d="M23 39h1v1h-1z"/><path fill="#0fd6fb" fill-rule="evenodd" d="M68 39h1v1h-1z"/><path fill="#18e2fa" fill-rule="evenodd" d="M81 39h1v1h-1zm1 5h1v1h-1zm1 7h1v3h-1z"/><path fill="#17e2f9" fill-rule="evenodd" d="M82 39h1v1h-1z"/><path fill="#02a6fc" fill-rule="evenodd" d="M90 39h1v1h-1z"/><path fill="#03a4fb" fill-rule="evenodd" d="M94 39h2v1h-2zm0 1v1h-2v-1zm-85 31h1v1h-1zm0 1v1h-2v-1z"/><path fill="#03a3fb" fill-rule="evenodd" d="M96 39h1v1h-1zm-90 34h1v1h-1z"/><path fill="#02a3fa" fill-rule="evenodd" d="M97 39h1v1h-1z"/><path fill="#0156d0" fill-rule="evenodd" d="M12 40h1v1h-1zm5 34h1v1h-1z"/><path fill="#10d8fb" fill-rule="evenodd" d="M70 40h1v1h-1z"/><path fill="#17e2fa" fill-rule="evenodd" d="M81 40h1v5h-1zm2 14h1v2h1v1h-2z"/><path fill="#18e3fa" fill-rule="evenodd" d="M82 40h1v4h-1zm1 4h1v1h-1zm1 8h1v4h-1z"/><path fill="#19e4f8" fill-rule="evenodd" d="M83 40h1v1h-1zm1 1h1v1h-1z"/><path fill="#03a3fa" fill-rule="evenodd" d="M91 40h1v1h-1zm1 1h1v1h-1zm2-1h2v1h-2zm-85 32h2v1h-2zm0 1v1h-2v-1z"/><path fill="#03a2fa" fill-rule="evenodd" d="M96 40h2v1h-2zm0 1v1h-3v-1zm-87 32h2v1h-2zm-2 1h1v1h-1z"/><path fill="#0156d1" fill-rule="evenodd" d="M12 41h1v2h-1zm1 6h1v3h-1zm1 7h1v1h-1z"/><path fill="#0286e5" fill-rule="evenodd" d="M28 41h1v1h-1z"/><path fill="#028be6" fill-rule="evenodd" d="M29 41h1v1h-1z"/><path fill="#12dafa" fill-rule="evenodd" d="M72 41h1v1h-1zm3 11h1v1h-1z"/><path fill="#18e4f9" fill-rule="evenodd" d="M83 41h1v3h-1z"/><path fill="#03a1f9" fill-rule="evenodd" d="M96 41h2v1h-2zm-4 1h3v1h-3zm-83 32h2v1h-2zm-2 1h1v1h-1z"/><path fill="#03a0f8" fill-rule="evenodd" d="M98 41h1v1h-1z"/><path fill="#0052cf" fill-rule="evenodd" d="M11 42h1v1h-1zm0 2h1v1h-1zm1 6h1v2h-1zm3 20h1v1h-1z"/><path fill="#0159d2" fill-rule="evenodd" d="M13 42h1v1h-1zm1 6h1v2h-1zm1 6h1v1h-1zm3 20h1v1h-1z"/><path fill="#038ae5" fill-rule="evenodd" d="M29 42h1v1h-1z"/><path fill="#12daf9" fill-rule="evenodd" d="M73 42h1v1h-1zm1 1h1v1h-1z"/><path fill="#19e5f9" fill-rule="evenodd" d="M84 42h1v1h-1zm1 1h1v2h-1zm1 2h1v1h-1zm0 5h1v3h-1zm0 4h1v1h-1z"/><path fill="#1ae4f8" fill-rule="evenodd" d="M85 42h1v1h-1z"/><path fill="#03a0f9" fill-rule="evenodd" d="M95 42h3v1h-3zm0 1v1h-2v-1zm-84 31h1v1h-1zm-3 1h2v1h-2z"/><path fill="#039ef7" fill-rule="evenodd" d="M98 42h1v1h-1z"/><path fill="#0051cf" fill-rule="evenodd" d="M11 43h1v1h-1zm0 2h1v2h-1zm1 7h1v2h-1zm1 4h1v1h-1zm2 13h1v1h-1z"/><path fill="#0155d1" fill-rule="evenodd" d="M12 43h1v2h-1zm1 7h1v1h-1zm1 5h1v1h-1zm2 15h1v1h-1z"/><path fill="#0158d2" fill-rule="evenodd" d="M13 43h1v2h-1zm1 7h1v2h-1zm3 20h1v2h-1zm1 5h1v1h-1z"/><path fill="#015bd2" fill-rule="evenodd" d="M14 43h1v1h-1z"/><path fill="#19e4f9" fill-rule="evenodd" d="M84 43h1v2h-1zm1 8h1v4h-1z"/><path fill="#19e6f8" fill-rule="evenodd" d="M86 43h1v1h-1z"/><path fill="#02a0f9" fill-rule="evenodd" d="M92 43h1v1h-1z"/><path fill="#039ff8" fill-rule="evenodd" d="M95 43h3v1h-3zm0 1v1h-2v-1zm-84 31h1v1h-1zm-3 1h2v1h-2z"/><path fill="#039ef8" fill-rule="evenodd" d="M98 43h1v1h-1zm-3 1h2v1h-2zm0 1v1h-2v-1zm-83 30h1v2h-3v-1h2zm-2 2v1h-1v-1z"/><path fill="#015bd3" fill-rule="evenodd" d="M14 44h1v1h-1zm1 6h1v2h-1zm3 20h1v2h-1zm1 6h1v1h-1z"/><path fill="#015dd3" fill-rule="evenodd" d="M15 44h1v1h-1zm1 9h1v1h-1z"/><path fill="#017de0" fill-rule="evenodd" d="M25 44h1v1h-1z"/><path fill="#0280e2" fill-rule="evenodd" d="M26 44h1v1h-1zm5 32h1v3h-1z"/><path fill="#0288e5" fill-rule="evenodd" d="M29 44h1v1h-1z"/><path fill="#1ae6f9" fill-rule="evenodd" d="M86 44h2v1h-2zm1 6h1v1h-1z"/><path fill="#039df7" fill-rule="evenodd" d="M97 44h2v1h-2zm0 1v1h-2v-1zm-4 1h1v1h-1zm-80 30h1v1h-1zm-3 1h2v1h-2z"/><path fill="#039cf7" fill-rule="evenodd" d="M99 44h1v1h-1zm0 1v1h-2v-1zm-2 1v1h-3v-1zm-3 1v1h-1v-1zm-82 30h1v1h-1zm0 1v1h-2v-1z"/><path fill="#06bfff" fill-rule="evenodd" d="M0 45h1v1h-1z"/><path fill="#05bdff" fill-rule="evenodd" d="M7 45h1v1h-1z"/><path fill="#0154d0" fill-rule="evenodd" d="M12 45h1v2h-1zm1 7h1v2h-1z"/><path fill="#0157d2" fill-rule="evenodd" d="M13 45h1v1h-1zm1 7h1v1h-1zm3 20h1v1h-1z"/><path fill="#015ad3" fill-rule="evenodd" d="M14 45h1v2h-1zm1 7h1v2h-1zm3 20h1v2h-1z"/><path fill="#015ed4" fill-rule="evenodd" d="M15 45h1v1h-1zm4 25h1v2h-1z"/><path fill="#0161d5" fill-rule="evenodd" d="M16 45h1v1h-1zm4 26h1v1h-1z"/><path fill="#0163d6" fill-rule="evenodd" d="M17 45h1v1h-1zm4 27h1v3h-1z"/><path fill="#0176dd" fill-rule="evenodd" d="M23 45h1v1h-1z"/><path fill="#0278de" fill-rule="evenodd" d="M24 45h1v1h-1z"/><path fill="#027ce1" fill-rule="evenodd" d="M25 45h1v1h-1zm1 6h1v1h-1zm4 27h1v1h-1z"/><path fill="#13dcfa" fill-rule="evenodd" d="M75 45h1v1h-1z"/><path fill="#17e0fa" fill-rule="evenodd" d="M80 45h1v1h-1z"/><path fill="#1ae6f8" fill-rule="evenodd" d="M87 45h1v1h-1z"/><path fill="#029af6" fill-rule="evenodd" d="M99 45h1v1h-1z"/><path fill="#004ecd" fill-rule="evenodd" d="M10 46h1v1h-1z"/><path fill="#0157d1" fill-rule="evenodd" d="M13 46h1v1h-1zm1 7h1v1h-1zm3 20h1v1h-1z"/><path fill="#015dd4" fill-rule="evenodd" d="M15 46h1v2h-1zm1 5h1v2h-1zm3 21h1v2h-1z"/><path fill="#0160d5" fill-rule="evenodd" d="M16 46h1v2h-1zm4 26h1v2h-1z"/><path fill="#0272dc" fill-rule="evenodd" d="M22 46h1v3h-1zm1 8h1v2h-1zm2 11h1v1h-1zm0 2h1v2h-1zm1 7h1v1h-1zm1 6h1v2h-1z"/><path fill="#0276de" fill-rule="evenodd" d="M23 46h1v1h-1zm1 5h1v3h-1zm3 18h1v1h-1zm0 2h1v3h-1zm1 7h1v2h-1zm1 4h1v1h-1z"/><path fill="#0279df" fill-rule="evenodd" d="M24 46h1v1h-1zm1 6h1v2h-1zm3 20h1v2h-1zm1 6h1v2h-1z"/><path fill="#027ce0" fill-rule="evenodd" d="M25 46h1v1h-1zm4 26h1v2h-1zm1 7h1v1h-1z"/><path fill="#0385e3" fill-rule="evenodd" d="M28 46h1v1h-1z"/><path fill="#17e1f9" fill-rule="evenodd" d="M81 46h1v1h-1z"/><path fill="#1ae7f9" fill-rule="evenodd" d="M87 46h1v1h-1z"/><path fill="#039bf6" fill-rule="evenodd" d="M97 46h2v1h-2zm-3 1h2v1h-2zm-81 30h1v2h-2v-1h1zm-1 2v1h-3v-1z"/><path fill="#0299f6" fill-rule="evenodd" d="M99 46h1v1h-1z"/><path fill="#07bcff" fill-rule="evenodd" d="M0 47h1v1h-1z"/><path fill="#004ccd" fill-rule="evenodd" d="M10 47h1v1h-1zm0 2h1v2h-1zm1 7h1v2h-1z"/><path fill="#0050cf" fill-rule="evenodd" d="M11 47h1v2h-1zm1 7h1v1h-1z"/><path fill="#0053d0" fill-rule="evenodd" d="M12 47h1v2h-1zm1 7h1v2h-1z"/><path fill="#015ad2" fill-rule="evenodd" d="M14 47h1v1h-1z"/><path fill="#0275de" fill-rule="evenodd" d="M23 47h1v1h-1zm1 7h1v1h-1zm2 13h1v1h-1zm1 7h1v1h-1zm1 6h1v1h-1z"/><path fill="#0278df" fill-rule="evenodd" d="M24 47h1v2h-1zm1 7h1v1h-1zm3 20h1v2h-1zm1 6h1v2h-1z"/><path fill="#027ee1" fill-rule="evenodd" d="M26 47h1v3h-1zm4 27h1v2h-1zm1 7h1v2h-1z"/><path fill="#0185e4" fill-rule="evenodd" d="M28 47h1v1h-1z"/><path fill="#16e1fa" fill-rule="evenodd" d="M81 47h1v1h-1z"/><path fill="#1be7f9" fill-rule="evenodd" d="M88 47h1v1h-1z"/><path fill="#039af6" fill-rule="evenodd" d="M96 47h2v1h-2zm0 1v1h-2v-1zm-82 30h1v1h-1zm0 1v1h-2v-1z"/><path fill="#039af5" fill-rule="evenodd" d="M98 47h1v1h-1zm-5 1h1v1h-1z"/><path fill="#0398f5" fill-rule="evenodd" d="M99 47h1v1h-1zm0 1v1h-1v-1zm-1 1v1h-2v-1zm-5 1h2v1h-2zm-79 30h2v1h-2zm-2 1h1v1h-1z"/><path fill="#004dcd" fill-rule="evenodd" d="M10 48h1v1h-1zm1 6h1v2h-1z"/><path fill="#015cd4" fill-rule="evenodd" d="M15 48h1v1h-1zm1 6h1v1h-1zm3 20h1v1h-1z"/><path fill="#015fd4" fill-rule="evenodd" d="M16 48h1v1h-1zm4 28h1v1h-1z"/><path fill="#016eda" fill-rule="evenodd" d="M21 48h1v1h-1z"/><path fill="#0275dd" fill-rule="evenodd" d="M23 48h1v1h-1zm1 7h1v1h-1zm2 13h1v1h-1zm1 7h1v1h-1zm1 6h1v1h-1z"/><path fill="#0280e1" fill-rule="evenodd" d="M27 48h1v1h-1z"/><path fill="#0399f5" fill-rule="evenodd" d="M96 48h2v1h-2zm0 1v1h-2v-1zm-82 30h1v1h-1zm0 1v1h-4v-1z"/><path fill="#0398f4" fill-rule="evenodd" d="M99 48h1v1h-1zm-6 1h1v1h-1zm2 1h1v1h-1zm-84 31h1v1h-1zm2 0h1v1h-1z"/><path fill="#004fce" fill-rule="evenodd" d="M11 49h1v2h-1zm1 7h1v1h-1z"/><path fill="#0052d0" fill-rule="evenodd" d="M12 49h1v1h-1z"/><path fill="#015cd3" fill-rule="evenodd" d="M15 49h1v1h-1zm4 26h1v1h-1z"/><path fill="#015fd5" fill-rule="evenodd" d="M16 49h1v1h-1zm3 20h1v1h-1zm1 5h1v2h-1z"/><path fill="#026edb" fill-rule="evenodd" d="M21 49h1v1h-1zm1 6h1v1h-1zm2 14h1v2h-1zm1 6h1v2h-1z"/><path fill="#0271dc" fill-rule="evenodd" d="M22 49h1v2h-1zm1 7h1v1h-1zm2 13h1v2h-1zm1 6h1v3h-1z"/><path fill="#0274dd" fill-rule="evenodd" d="M23 49h1v2h-1zm1 7h1v2h-1zm1 8h1v1h-1zm1 5h1v2h-1zm1 7h1v2h-1z"/><path fill="#0277df" fill-rule="evenodd" d="M24 49h1v1h-1z"/><path fill="#027ae0" fill-rule="evenodd" d="M25 49h1v2h-1zm3 21h1v1h-1zm1 6h1v1h-1z"/><path fill="#0181e2" fill-rule="evenodd" d="M27 49h1v1h-1z"/><path fill="#16e0f9" fill-rule="evenodd" d="M81 49h1v1h-1z"/><path fill="#1ae5f8" fill-rule="evenodd" d="M87 49h1v1h-1z"/><path fill="#0397f4" fill-rule="evenodd" d="M98 49h1v1h-1zm0 1v1h-2v-1zm-5 1h2v1h-2zm-79 30h2v1h-2z"/><path fill="#0397f3" fill-rule="evenodd" d="M99 49h1v1h-1z"/><path fill="#015ed3" fill-rule="evenodd" d="M16 50h1v1h-1zm4 27h1v1h-1z"/><path fill="#026ddb" fill-rule="evenodd" d="M21 50h1v1h-1zm4 27h1v1h-1z"/><path fill="#16e1f9" fill-rule="evenodd" d="M82 50h1v1h-1z"/><path fill="#0396f4" fill-rule="evenodd" d="M98 50h1v1h-1zm-3 1h2v1h-2zm-79 30h1v1h-1zm-3 1h2v1h-2z"/><path fill="#0395f4" fill-rule="evenodd" d="M99 50h1v1h-1z"/><path fill="#004bcd" fill-rule="evenodd" d="M10 51h1v2h-1z"/><path fill="#004ece" fill-rule="evenodd" d="M11 51h1v3h-1z"/><path fill="#0155d0" fill-rule="evenodd" d="M13 51h1v1h-1zm3 20h1v1h-1z"/><path fill="#026dda" fill-rule="evenodd" d="M21 51h1v2h-1zm1 5h1v1h-1zm2 15h1v2h-1zm1 7h1v2h-1z"/><path fill="#0270dc" fill-rule="evenodd" d="M22 51h1v1h-1zm3 20h1v1h-1zm1 7h1v1h-1z"/><path fill="#0273dd" fill-rule="evenodd" d="M23 51h1v2h-1zm2 15h1v1h-1zm1 5h1v2h-1zm1 7h1v2h-1z"/><path fill="#027adf" fill-rule="evenodd" d="M25 51h1v1h-1zm3 20h1v1h-1zm1 6h1v1h-1zm1 5h1v1h-1z"/><path fill="#17e3f9" fill-rule="evenodd" d="M84 51h1v1h-1z"/><path fill="#1ae5f9" fill-rule="evenodd" d="M87 51h1v1h-1z"/><path fill="#0396f3" fill-rule="evenodd" d="M97 51h1v1h-1zm-85 31h1v1h-1zm3 0h1v1h-1z"/><path fill="#0395f3" fill-rule="evenodd" d="M98 51h1v1h-1zm-3 1h2v1h-2zm-78 29h1v2h-2v-1h1zm-4 2h2v1h-2z"/><path fill="#0395f2" fill-rule="evenodd" d="M99 51h1v1h-1z"/><path fill="#04b6ff" fill-rule="evenodd" d="M6 52h1v1h-1zm-6 2h1v1h-1z"/><path fill="#0270db" fill-rule="evenodd" d="M22 52h1v1h-1zm1 5h1v1h-1zm2 15h1v1h-1zm1 7h1v1h-1z"/><path fill="#19e5f8" fill-rule="evenodd" d="M87 52h1v1h-1zm0 1v1h-1v-1z"/><path fill="#0396f2" fill-rule="evenodd" d="M94 52h1v1h-1z"/><path fill="#0394f3" fill-rule="evenodd" d="M97 52h2v1h-2zm-82 31h2v1h-2z"/><path fill="#0293f1" fill-rule="evenodd" d="M99 52h1v1h-1zm-4 2h1v1h-1zm-76 29h1v1h-1z"/><path fill="#004acc" fill-rule="evenodd" d="M10 53h1v1h-1zm1 5h1v1h-1z"/><path fill="#026cda" fill-rule="evenodd" d="M21 53h1v1h-1zm3 20h1v1h-1z"/><path fill="#026fdb" fill-rule="evenodd" d="M22 53h1v2h-1zm2 14h1v2h-1zm1 6h1v2h-1zm1 7h1v2h-1z"/><path fill="#0272dd" fill-rule="evenodd" d="M23 53h1v1h-1zm3 20h1v1h-1z"/><path fill="#0394f2" fill-rule="evenodd" d="M95 53h2v1h-2zm-78 30h1v1h-1zm-3 1h1v1h-1z"/><path fill="#0393f2" fill-rule="evenodd" d="M97 53h2v1h-2zm0 1v1h-1v-1zm-79 29h1v1h-1zm-3 1h2v1h-2z"/><path fill="#0291f2" fill-rule="evenodd" d="M99 53h1v1h-1z"/><path fill="#004acb" fill-rule="evenodd" d="M10 54h1v1h-1z"/><path fill="#016cda" fill-rule="evenodd" d="M21 54h1v1h-1zm2 13h1v2h-1zm1 7h1v1h-1zm1 6h1v1h-1z"/><path fill="#0392f2" fill-rule="evenodd" d="M97 54h1v1h-1zm-80 30h2v1h-2z"/><path fill="#0392f1" fill-rule="evenodd" d="M98 54h1v1h-1zm-2 1h1v1h-1zm-77 29h1v1h-1zm-3 1h1v1h-1z"/><path fill="#0391f0" fill-rule="evenodd" d="M99 54h1v1h-1zm-83 32h1v1h-1z"/><path fill="#0049cb" fill-rule="evenodd" d="M10 55h1v1h-1z"/><path fill="#0050ce" fill-rule="evenodd" d="M12 55h1v1h-1z"/><path fill="#0159d1" fill-rule="evenodd" d="M15 55h1v1h-1z"/><path fill="#016ada" fill-rule="evenodd" d="M21 55h1v1h-1z"/><path fill="#0177df" fill-rule="evenodd" d="M25 55h1v1h-1z"/><path fill="#17e4f8" fill-rule="evenodd" d="M85 55h1v1h-1z"/><path fill="#d1f6ff" fill-rule="evenodd" d="M93 55h1v1h-1z"/><path fill="#0391f1" fill-rule="evenodd" d="M97 55h2v1h-2zm-2 1h1v1h-1zm-80 29h1v1h-1zm2 0h3v1h-3z"/><path fill="#0390f1" fill-rule="evenodd" d="M99 55h1v1h-1zm-3 1h2v1h-2zm-76 29h1v1h-1zm-3 1h1v1h-1z"/><path fill="#0049cc" fill-rule="evenodd" d="M10 56h1v1h-1z"/><path fill="#0390f0" fill-rule="evenodd" d="M98 56h1v1h-1zm-78 28h1v1h-1zm1 1h1v1h-1zm-3 1h1v1h-1z"/><path fill="#0048cb" fill-rule="evenodd" d="M10 57h1v1h-1z"/><path fill="#10d5fa" fill-rule="evenodd" d="M70 57h1v1h-1z"/><path fill="#17e0f9" fill-rule="evenodd" d="M82 57h1v1h-1z"/><path fill="#16e2fa" fill-rule="evenodd" d="M83 57h1v1h-1z"/><path fill="#038fef" fill-rule="evenodd" d="M95 57h1v1h-1z"/><path fill="#038ff0" fill-rule="evenodd" d="M96 57h1v1h-1zm-77 29h1v1h-1z"/><path fill="#028ff0" fill-rule="evenodd" d="M97 57h1v1h-1zm-2 1h1v1h-1zm-6 2h1v1h-1zm-69 26h2v1h-2zm-2 1h1v1h-1z"/><path fill="#028ef0" fill-rule="evenodd" d="M98 57h1v1h-1zm-2 1h1v1h-1zm-6 2h2v1h-2zm-68 26h1v1h-1zm-3 1h1v1h-1z"/><path fill="#0273dc" fill-rule="evenodd" d="M24 58h1v1h-1z"/><path fill="#0ed4fb" fill-rule="evenodd" d="M68 58h1v1h-1z"/><path fill="#16dff9" fill-rule="evenodd" d="M81 58h1v1h-1z"/><path fill="#038eef" fill-rule="evenodd" d="M94 58h1v1h-1zm-72 27h1v1h-1z"/><path fill="#028eef" fill-rule="evenodd" d="M97 58h1v1h-1zm-3 1h1v1h-1zm-2 1h1v1h-1zm-3 1h1v1h-1zm-2 1h1v1h-1zm-64 24h1v1h-1zm-3 1h1v1h-1z"/><path fill="#028def" fill-rule="evenodd" d="M98 58h1v1h-1zm0 1v1h-3v-1zm-3 1v1h-2v-1zm-2 1v1h-3v-1zm-5 0h1v1h1v1h-2zm-3 2h2v1h-2zm0 1v1h-2v-1zm-64 23h3v1h-3zm0 1v1h-2v-1z"/><path fill="#03b2ff" fill-rule="evenodd" d="M1 59h1v2h-1z"/><path fill="#e0f9ff" fill-rule="evenodd" d="M13 59h1v1h-1z"/><path fill="#0ed2fa" fill-rule="evenodd" d="M67 59h1v1h-1z"/><path fill="#14defa" fill-rule="evenodd" d="M79 59h1v1h-1z"/><path fill="#018df0" fill-rule="evenodd" d="M93 59h1v1h-1z"/><path fill="#028bee" fill-rule="evenodd" d="M98 59h1v1h-1zm-3 2h2v1h-2zm0 1v1h-3v-1zm-3 1v1h-2v-1zm-5 1h2v1h-2zm0 1v1h-3v-1zm-18 6h1v1h-1zm-2 1h1v1h-1zm-44 16h3v1h-3zm0 1v1h-2v-1z"/><path fill="#12dbf9" fill-rule="evenodd" d="M76 60h1v1h-1z"/><path fill="#028cef" fill-rule="evenodd" d="M95 60h1v1h-1zm-5 2h1v1h-1zm-3 1h1v1h-1zm-2 1h1v1h-1zm-61 23h1v1h-1zm-3 1h1v1h-1z"/><path fill="#028cee" fill-rule="evenodd" d="M96 60h2v1h-2zm-3 1h2v1h-2zm-2 1h1v1h-1zm-3 1h2v1h-2zm-6 1h1v1h-1zm4 0h1v1h-1zm-64 24h1v1h-1z"/><path fill="#018bed" fill-rule="evenodd" d="M98 60h1v1h-1z"/><path fill="#a2efff" fill-rule="evenodd" d="M13 61h1v1h-1z"/><path fill="#018ef0" fill-rule="evenodd" d="M87 61h1v1h-1z"/><path fill="#028aee" fill-rule="evenodd" d="M97 61h1v1h-1zm-5 2h1v1h-1zm-3 1h1v1h-1zm-5 2h1v1h-1zm-16 6h1v1h-1zm-42 16h1v1h-1zm-3 1h1v1h-1z"/><path fill="#018aec" fill-rule="evenodd" d="M98 61h1v1h-1z"/><path fill="#028dee" fill-rule="evenodd" d="M86 62h1v1h-1zm-2 1h1v1h-1z"/><path fill="#028aed" fill-rule="evenodd" d="M95 62h2v1h-2zm-2 1h1v1h-1zm-3 1h2v1h-2zm-3 1h2v1h-2zm-2 1h1v1h-1zm-17 5h1v1h-1zm1 1h1v1h-1zm-3 0h1v1h1v1h-2zm-39 16h1v1h-1zm-3 1h2v1h-2zm-2 1h1v1h-1z"/><path fill="#0289ed" fill-rule="evenodd" d="M97 62h1v1h-1zm0 1v1h-3v-1zm-3 1v1h-2v-1zm-5 1h2v1h-2zm0 1v1h-3v-1zm-3 1v1h-2v-1zm-21 6h1v1h-1zm1 1h2v-1h2v1h-2v1h-2zm-40 15h2v1h-2zm-3 1h2v1h-2z"/><path fill="#0174dc" fill-rule="evenodd" d="M25 63h1v1h-1z"/><path fill="#09ccfc" fill-rule="evenodd" d="M60 63h1v1h-1z"/><path fill="#018def" fill-rule="evenodd" d="M83 63h1v1h-1zm-65 25h1v1h-1z"/><path fill="#0287eb" fill-rule="evenodd" d="M97 63h1v1h-1zm-5 3h1v1h-1z"/><path fill="#c1f4ff" fill-rule="evenodd" d="M16 64h1v1h-1z"/><path fill="#08cafc" fill-rule="evenodd" d="M58 64h1v1h-1z"/><path fill="#09cbfc" fill-rule="evenodd" d="M59 64h1v1h-1z"/><path fill="#0dd2fb" fill-rule="evenodd" d="M68 64h1v1h-1z"/><path fill="#0288ed" fill-rule="evenodd" d="M94 64h1v1h-1zm-8 3h1v1h-1zm-16 6h1v1h-1zm-42 16h1v1h-1zm-3 1h1v1h-1z"/><path fill="#0288ec" fill-rule="evenodd" d="M95 64h1v1h-1zm-2 1h1v1h-1zm-9 3h2v1h-2zm-16 6h2v1h-2zm-2 1h1v1h-1zm-11 4h1v1h-1zm-27 9h1v1h-1zm1 1h1v1h-1zm-3 1h2v1h-2zm-2 1h1v1h-1z"/><path fill="#0287ec" fill-rule="evenodd" d="M96 64h1v1h-1zm0 1v1h-2v-1zm-5 0h1v1h-1zm-21 9h1v1h-1zm0 1v1h-3v-1zm-3 1v1h-1v-1zm-12 4h1v1h-1zm-2 1h1v1h-1zm-23 8h3v1h-3zm0 1v1h-2v-1zm-5 1h2v1h-2z"/><path fill="#0286eb" fill-rule="evenodd" d="M97 64h1v1h-1zm-3 2h2v1h-2zm-2 1h1v1h-1zm-21 7h1v1h-1zm0 1v1h-1v-1zm-3 1h1v1h-1zm-2 1h1v1h-1zm-12 3h1v1h1v1h-2zm-2 1h1v1h1v1h-2zm-2 2h1v1h-1zm-13 5h1v1h-1zm-4 1h2v1h-2zm-3 1h2v1h-2zm0 1v1h-2v-1zm-4 1h1v1h-1z"/><path fill="#016fdb" fill-rule="evenodd" d="M24 65h1v1h-1z"/><path fill="#08c8fb" fill-rule="evenodd" d="M56 65h1v1h-1z"/><path fill="#028bed" fill-rule="evenodd" d="M83 65h1v1h-1zm-58 22h1v1h-1z"/><path fill="#0188ec" fill-rule="evenodd" d="M92 65h1v1h-1zm-39 15h1v1h-1z"/><path fill="#0286ec" fill-rule="evenodd" d="M96 65h1v1h-1zm-3 1h1v1h-1zm-26 10h1v1h-1zm-16 6h1v1h-1zm-24 9h1v1h-1z"/><path fill="#02acff" fill-rule="evenodd" d="M3 66h1v1h-1z"/><path fill="#0270da" fill-rule="evenodd" d="M24 66h1v1h-1z"/><path fill="#07c6fc" fill-rule="evenodd" d="M55 66h1v1h-1z"/><path fill="#018aee" fill-rule="evenodd" d="M83 66h1v1h-1z"/><path fill="#0288eb" fill-rule="evenodd" d="M89 66h1v1h-1zm-2 1h1v1h-1zm-64 24h1v1h-1z"/><path fill="#0188eb" fill-rule="evenodd" d="M90 66h1v1h-1z"/><path fill="#0284ea" fill-rule="evenodd" d="M96 66h1v1h-1zm-3 2h2v1h-2zm0 1v1h-2v-1zm-28 10h1v1h-1zm-9 3h2v1h-2zm0 1v1h-2v-1zm-5 1h2v1h-2zm-3 1h2v1h-2zm0 1v1h-2v-1zm-5 1h2v1h-2zm-3 1h2v1h-2zm0 1v1h-2v-1zm-5 1h2v1h-2zm-3 1h2v1h-2zm0 1v1h-2v-1zm-5 1h2v1h-2z"/><path fill="#05c4fc" fill-rule="evenodd" d="M53 67h1v1h-1z"/><path fill="#0186ec" fill-rule="evenodd" d="M88 67h1v1h-1zm-2 1h1v1h-1zm-2 1h1v1h-1z"/><path fill="#0186eb" fill-rule="evenodd" d="M91 67h1v1h-1zm-55 21h1v1h-1zm-12 4h1v1h-1z"/><path fill="#0285eb" fill-rule="evenodd" d="M93 67h3v1h-3zm0 1v1h-1v-1zm-22 7h1v1h-1zm-4 2h1v1h-1zm-11 3h1v1h1v1h-2zm0 2v1h-2v-1zm-7 1h1v1h1v-1h2v1h-2v1h-3v-1h1zm-1 2v1h-2v-1zm-5 1h2v1h-2zm0 1v1h-1v-1zm-5 1h2v1h-2zm-3 1h2v1h-2zm0 1v1h-3v-1zm-3 1v1h-2v-1zm-5 1h2v1h-2z"/><path fill="#0283ea" fill-rule="evenodd" d="M96 67h1v1h-1zm0 1v1h-1v-1zm-1 1v1h-2v-1zm-5 0h1v1h1v1h-2zm0 2v1h-1v-1zm-23 7h1v1h-1zm-3 2h2v1h-2zm-6 2h3v1h-3zm0 1v1h-2v-1zm-5 1h2v1h-2zm0 1v1h-3v-1zm-3 1v1h-2v-1zm-5 1h2v1h-2zm0 1v1h-3v-1zm-3 1v1h-2v-1zm-5 1h2v1h-2zm0 1v1h-3v-1zm-3 1v1h-2v-1zm-2 1v1h-3v-1z"/><path fill="#0168d8" fill-rule="evenodd" d="M22 68h1v2h-1zm1 7h1v2h-1z"/><path fill="#09ccfb" fill-rule="evenodd" d="M61 68h1v1h-1z"/><path fill="#0285ea" fill-rule="evenodd" d="M91 68h1v1h-1zm-22 8h1v1h-1zm0 1v1h-1v-1zm-28 10h1v1h-1zm-16 5h1v1h-1z"/><path fill="#02a9fd" fill-rule="evenodd" d="M4 69h1v1h-1z"/><path fill="#03a6fb" fill-rule="evenodd" d="M9 69h1v1h-1z"/><path fill="#004fcd" fill-rule="evenodd" d="M14 69h1v1h-1z"/><path fill="#0154d1" fill-rule="evenodd" d="M16 69h1v1h-1z"/><path fill="#0161d6" fill-rule="evenodd" d="M20 69h1v2h-1zm1 8h1v1h-1z"/><path fill="#0165d7" fill-rule="evenodd" d="M21 69h1v1h-1zm1 6h1v2h-1zm1 5h1v1h-1z"/><path fill="#016bda" fill-rule="evenodd" d="M23 69h1v1h-1zm1 6h1v1h-1zm1 6h1v1h-1z"/><path fill="#04bafa" fill-rule="evenodd" d="M49 69h1v1h-1z"/><path fill="#05befa" fill-rule="evenodd" d="M50 69h1v1h-1z"/><path fill="#09cbfb" fill-rule="evenodd" d="M60 69h1v1h-1z"/><path fill="#0281e9" fill-rule="evenodd" d="M95 69h1v1h-1zm-3 2h2v1h-2zm0 1v1h-3v-1zm-3 1v1h-2v-1zm-2 1v1h-1v-1zm-32 11h2v1h-2zm0 1v1h-3v-1zm-3 1v1h-2v-1zm-5 1h2v1h-2zm0 1v1h-3v-1zm-3 1v1h-2v-1zm-2 1v1h-3v-1zm-3 1v1h-2v-1zm-5 1h2v1h-2zm0 1v1h-3v-1z"/><path fill="#0164d7" fill-rule="evenodd" d="M21 70h1v2h-1zm1 7h1v2h-1z"/><path fill="#0167d8" fill-rule="evenodd" d="M22 70h1v3h-1zm1 7h1v2h-1z"/><path fill="#016bd9" fill-rule="evenodd" d="M23 70h1v1h-1zm1 6h1v1h-1z"/><path fill="#05b7f7" fill-rule="evenodd" d="M48 70h1v1h-1z"/><path fill="#07c8fb" fill-rule="evenodd" d="M58 70h1v1h-1z"/><path fill="#018cee" fill-rule="evenodd" d="M69 70h1v1h-1zm-45 16h1v1h-1z"/><path fill="#0183e9" fill-rule="evenodd" d="M89 70h1v1h-1z"/><path fill="#0282ea" fill-rule="evenodd" d="M92 70h1v1h-1zm-45 17h1v1h-1zm-8 3h1v1h-1z"/><path fill="#0282e9" fill-rule="evenodd" d="M93 70h2v1h-2zm-3 1h2v1h-2zm-2 1h1v1h-1zm-24 9h1v1h-1zm-2 1h1v1h-1zm-4 1h2v1h-2zm0 1v1h-3v-1zm-3 1v1h-2v-1zm-5 1h2v1h-2zm0 1v1h-2v-1zm-5 1h2v1h-2zm-3 1h2v1h-2zm0 1v1h-2v-1zm-5 1h2v1h-2zm0 1v1h-3v-1zm-3 1v1h-2v-1zm-4 1h1v1h-1z"/><path fill="#0181e9" fill-rule="evenodd" d="M95 70h1v1h-1zm-32 12h2v1h-2z"/><path fill="#02a3fb" fill-rule="evenodd" d="M10 71h1v1h-1z"/><path fill="#0051ce" fill-rule="evenodd" d="M15 71h1v1h-1z"/><path fill="#016ad9" fill-rule="evenodd" d="M23 71h1v2h-1zm1 6h1v2h-1z"/><path fill="#027de0" fill-rule="evenodd" d="M29 71h1v1h-1z"/><path fill="#03b0f5" fill-rule="evenodd" d="M46 71h1v1h-1z"/><path fill="#05baf9" fill-rule="evenodd" d="M49 71h1v2h-1z"/><path fill="#05bdfb" fill-rule="evenodd" d="M50 71h1v2h-1z"/><path fill="#c2f5ff" fill-rule="evenodd" d="M76 71h1v1h-1z"/><path fill="#bdf4ff" fill-rule="evenodd" d="M77 71h1v1h-1z"/><path fill="#0182e9" fill-rule="evenodd" d="M88 71h1v1h-1zm-23 10h1v1h-1z"/><path fill="#027fe7" fill-rule="evenodd" d="M94 71h1v1h-1zm-1 2h1v1h-1zm-5 2h1v1h-1zm-19 7h1v1h-1zm-18 7h1v1h-1zm-8 3h1v1h-1z"/><path fill="#0153d0" fill-rule="evenodd" d="M16 72h1v1h-1z"/><path fill="#04b0f6" fill-rule="evenodd" d="M46 72h1v1h-1z"/><path fill="#028aec" fill-rule="evenodd" d="M70 72h1v1h-1z"/><path fill="#0280e8" fill-rule="evenodd" d="M92 72h2v1h-2zm0 1v1h-3v-1zm-3 1v1h-2v-1zm-4 0h1v2h-1zm-2 2h1v1h-1zm-4 1h2v1h-2zm-3 1h2v1h-2zm0 1v1h-2v-1zm-4 1h1v1h-1zm-14 4h1v1h-1zm0 1v1h-1v-1zm-1 1v1h-2v-1zm-5 1h2v1h-2zm0 1v1h-3v-1zm-3 1v1h-2v-1zm-2 1v1h-3v-1zm-3 1v1h-2v-1zm-5 1h2v1h-2zm0 1v1h-3v-1zm-3 1v1h-2v-1zm-4 1h1v1h-1z"/><path fill="#017ee8" fill-rule="evenodd" d="M94 72h1v1h-1z"/><path fill="#02a1f8" fill-rule="evenodd" d="M11 73h1v1h-1z"/><path fill="#0153cf" fill-rule="evenodd" d="M16 73h1v1h-1z"/><path fill="#0166d8" fill-rule="evenodd" d="M22 73h1v1h-1zm1 6h1v1h-1z"/><path fill="#0169d9" fill-rule="evenodd" d="M23 73h1v2h-1zm1 6h1v1h-1z"/><path fill="#0285e3" fill-rule="evenodd" d="M32 73h1v1h-1z"/><path fill="#04a3ef" fill-rule="evenodd" d="M42 73h1v1h-1zm1 7h1v1h-1z"/><path fill="#05bffc" fill-rule="evenodd" d="M51 73h1v1h-1z"/><path fill="#05c3fc" fill-rule="evenodd" d="M53 73h1v1h-1z"/><path fill="#0182e8" fill-rule="evenodd" d="M86 73h1v1h-1z"/><path fill="#027fe8" fill-rule="evenodd" d="M92 73h1v1h-1zm-3 1h2v1h-2zm-5 1h1v1h1v-1h2v1h-2v1h-2zm-3 2h2v1h-2zm0 1v1h-3v-1zm-3 1v1h-2v-1zm-5 1h2v1h-2zm0 1v1h-2v-1zm-19 6h3v1h-3zm0 1v1h-2v-1zm-5 1h2v1h-2zm0 1v1h-2v-1zm-5 1h2v1h-2zm-3 1h2v1h-2zm0 1v1h-2v-1zm-5 1h2v1h-2zm0 1v1h-3v-1z"/><path fill="#03a1fa" fill-rule="evenodd" d="M8 74h1v1h-1z"/><path fill="#0166d7" fill-rule="evenodd" d="M22 74h1v1h-1z"/><path fill="#0281e3" fill-rule="evenodd" d="M31 74h1v1h-1z"/><path fill="#038be5" fill-rule="evenodd" d="M34 74h1v1h-1z"/><path fill="#0299eb" fill-rule="evenodd" d="M39 74h1v1h-1z"/><path fill="#04c2fc" fill-rule="evenodd" d="M52 74h1v1h-1z"/><path fill="#0289ec" fill-rule="evenodd" d="M65 74h1v1h-1zm-36 14h1v1h-1zm-8 2h1v1h-1z"/><path fill="#027ee7" fill-rule="evenodd" d="M91 74h2v1h-2zm0 1v1h-2v-1zm-5 1h2v1h-2zm0 1v1h-3v-1zm-3 1v1h-2v-1zm-5 1h2v1h-2zm0 1v1h-3v-1zm-3 1v1h-2v-1zm-5 1h2v1h-2zm0 1v1h-1v-1zm-16 5h2v1h-2zm0 1v1h-2v-1zm-5 1h2v1h-2zm0 1v1h-3v-1zm-3 1v1h-2v-1zm-5 1h2v1h-2zm0 1v1h-3v-1zm-3 1v1h-2v-1zm-5 1h2v1h-2z"/><path fill="#017de6" fill-rule="evenodd" d="M93 74h1v1h-1z"/><path fill="#039ff9" fill-rule="evenodd" d="M10 75h1v1h-1z"/><path fill="#0162d6" fill-rule="evenodd" d="M21 75h1v2h-1z"/><path fill="#05bbf9" fill-rule="evenodd" d="M50 75h1v1h-1z"/><path fill="#0184ea" fill-rule="evenodd" d="M72 75h1v1h-1zm-2 1h1v1h-1zm-5 2h1v1h-1zm-39 15h1v1h-1z"/><path fill="#0181e8" fill-rule="evenodd" d="M83 75h1v1h-1zm-23 8h1v1h-1zm-30 12h1v1h-1z"/><path fill="#027de7" fill-rule="evenodd" d="M91 75h2v1h-2zm-3 1h2v1h-2zm0 1v1h-2v-1zm-5 1h2v1h-2zm-3 1h2v1h-2zm0 1v1h-2v-1zm-5 1h2v1h-2zm0 1v1h-3v-1zm-3 1v1h-2v-1zm-18 6h2v1h-2zm-3 1h2v1h-2zm0 1v1h-2v-1zm-5 1h2v1h-2zm-3 1h2v1h-2zm0 1v1h-2v-1zm-5 1h2v1h-2zm-3 1h2v1h-2z"/><path fill="#0284e3" fill-rule="evenodd" d="M32 76h1v1h-1z"/><path fill="#04b7f9" fill-rule="evenodd" d="M49 76h1v1h-1z"/><path fill="#017fe8" fill-rule="evenodd" d="M81 76h1v1h-1z"/><path fill="#0280e7" fill-rule="evenodd" d="M82 76h1v1h-1zm-51 19h1v1h-1z"/><path fill="#027de6" fill-rule="evenodd" d="M90 76h1v1h-1zm-8 3h1v1h-1zm-29 11h1v1h-1zm-8 3h1v1h-1zm-8 3h1v1h-1z"/><path fill="#027ce6" fill-rule="evenodd" d="M91 76h1v1h-1zm-3 1h2v1h-2zm0 1v1h-3v-1zm-3 1v1h-2v-1zm-5 1h2v1h-2zm0 1v1h-3v-1zm-3 1v1h-2v-1zm-2 1v1h-3v-1zm-3 1v1h-2v-1zm-18 6h2v1h-2zm-3 1h2v1h-2zm0 1v1h-3v-1zm-3 1v1h-2v-1zm-5 1h2v1h-2zm0 1v1h-3v-1zm-3 1v1h-2v-1zm-2 1v1h-1v-1z"/><path fill="#029ef8" fill-rule="evenodd" d="M8 77h1v1h-1z"/><path fill="#04abf3" fill-rule="evenodd" d="M45 77h1v2h-1z"/><path fill="#04aef5" fill-rule="evenodd" d="M46 77h1v1h-1z"/><path fill="#04b1f5" fill-rule="evenodd" d="M47 77h1v1h-1z"/><path fill="#03b4f7" fill-rule="evenodd" d="M48 77h1v1h-1z"/><path fill="#0180e9" fill-rule="evenodd" d="M78 77h1v1h-1z"/><path fill="#027be6" fill-rule="evenodd" d="M90 77h1v1h-1zm0 1v1h-2v-1zm-5 1h2v1h-2zm-3 1h2v1h-2zm0 1v1h-2v-1zm-5 1h2v1h-2zm-2 1h1v1h-1zm-3 1h2v1h-2zm-2 1h1v1h-1zm-17 6h2v1h-2zm0 1v1h-2v-1zm-5 1h2v1h-2zm-3 1h2v1h-2zm0 1v1h-2v-1zm-5 1h2v1h-2zm-2 1h1v1h-1z"/><path fill="#017ae5" fill-rule="evenodd" d="M91 77h1v1h-1z"/><path fill="#039cf6" fill-rule="evenodd" d="M9 78h1v1h-1z"/><path fill="#0160d4" fill-rule="evenodd" d="M21 78h1v1h-1z"/><path fill="#049eee" fill-rule="evenodd" d="M41 78h1v2h-1z"/><path fill="#04a4f1" fill-rule="evenodd" d="M43 78h1v2h-1z"/><path fill="#0284eb" fill-rule="evenodd" d="M66 78h1v1h-1zm-13 5h1v1h-1zm-8 3h1v1h-1zm-8 3h1v1h-1zm-8 3h1v1h-1z"/><path fill="#0281e8" fill-rule="evenodd" d="M75 78h1v1h-1zm-14 4h1v1h-1zm-32 12h1v1h-1z"/><path fill="#027ae4" fill-rule="evenodd" d="M90 78h1v1h-1zm0 1v1h-1v-1zm-20 7h1v1h-1z"/><path fill="#0298f4" fill-rule="evenodd" d="M15 79h1v1h-1z"/><path fill="#0163d5" fill-rule="evenodd" d="M22 79h1v1h-1z"/><path fill="#04a6f2" fill-rule="evenodd" d="M44 79h1v1h-1z"/><path fill="#0187eb" fill-rule="evenodd" d="M56 79h1v1h-1z"/><path fill="#0283e9" fill-rule="evenodd" d="M66 79h1v1h-1z"/><path fill="#017fe7" fill-rule="evenodd" d="M73 79h1v1h-1z"/><path fill="#027be5" fill-rule="evenodd" d="M87 79h1v1h-1zm-3 1h1v1h-1zm-5 2h1v1h-1zm-3 1h1v1h-1zm-5 2h1v1h-1zm-15 4h1v1h-1zm-1 2h1v1h-1zm-8 3h1v1h-1zm-5 2h1v1h-1zm-3 1h1v1h-1z"/><path fill="#027ae5" fill-rule="evenodd" d="M88 79h1v1h-1zm-3 1h2v1h-2zm0 1v1h-3v-1zm-3 1v1h-2v-1zm-5 1h2v1h-2zm0 1v1h-3v-1zm-3 1v1h-2v-1zm-18 5h1v2h-1zm-3 2h2v1h-2zm0 1v1h-3v-1zm-3 1v1h-2v-1zm-2 1v1h-3v-1zm-3 1v1h-2v-1zm-5 1h2v1h-2z"/><path fill="#0296f4" fill-rule="evenodd" d="M16 80h1v1h-1z"/><path fill="#0169d8" fill-rule="evenodd" d="M24 80h1v1h-1z"/><path fill="#04a0ee" fill-rule="evenodd" d="M42 80h1v1h-1z"/><path fill="#0279e5" fill-rule="evenodd" d="M87 80h2v1h-2zm-2 1h1v1h-1zm-3 1h2v1h-2zm-3 1h2v1h-2zm-2 1h1v1h-1zm-3 1h2v1h-2zm-3 1h2v1h-2zm-16 6h2v1h-2zm0 1v1h-2v-1zm-5 1h2v1h-2zm-2 1h1v1h-1zm-3 1h2v1h-2zm-3 1h2v1h-2zm-2 1h1v1h-1z"/><path fill="#038ee7" fill-rule="evenodd" d="M36 81h1v1h-1z"/><path fill="#039cee" fill-rule="evenodd" d="M41 81h1v1h-1z"/><path fill="#0185ea" fill-rule="evenodd" d="M58 81h1v1h-1zm-18 6h1v1h-1z"/><path fill="#0182ea" fill-rule="evenodd" d="M62 81h1v1h-1z"/><path fill="#0282e8" fill-rule="evenodd" d="M63 81h1v1h-1z"/><path fill="#017ee7" fill-rule="evenodd" d="M70 81h1v1h-1zm-13 5h1v1h-1zm-25 10h1v1h-1z"/><path fill="#0279e4" fill-rule="evenodd" d="M86 81h1v1h-1zm-5 2h1v1h-1zm-3 1h1v1h-1zm-5 2h1v1h-1zm-21 8h1v1h-1zm-3 1h1v1h-1zm-5 2h1v1h-1z"/><path fill="#0278e4" fill-rule="evenodd" d="M87 81h1v1h-1zm0 1v1h-3v-1zm-3 1v1h-2v-1zm-5 1h2v1h-2zm0 1v1h-3v-1zm-3 1v1h-2v-1zm-5 1h2v1h-2zm-16 6h2v1h-2zm0 1v1h-2v-1zm-5 1h2v1h-2zm0 1v1h-3v-1zm-3 1v1h-2v-1zm-6 1h3v1h-3z"/><path fill="#0177e4" fill-rule="evenodd" d="M88 81h1v1h-1z"/><path fill="#0293f3" fill-rule="evenodd" d="M18 82h1v1h-1z"/><path fill="#0174dd" fill-rule="evenodd" d="M28 82h1v1h-1z"/><path fill="#038de6" fill-rule="evenodd" d="M36 82h1v1h-1z"/><path fill="#028fe7" fill-rule="evenodd" d="M37 82h1v1h-1z"/><path fill="#0187ec" fill-rule="evenodd" d="M50 82h1v1h-1z"/><path fill="#0177e3" fill-rule="evenodd" d="M87 82h1v1h-1z"/><path fill="#027ee6" fill-rule="evenodd" d="M68 83h1v1h-1zm-12 5h1v1h-1z"/><path fill="#0277e4" fill-rule="evenodd" d="M84 83h2v1h-2zm-3 1h2v1h-2zm-2 1h1v1h-1zm-3 1h2v1h-2zm-3 1h2v1h-2zm-2 1h1v1h-1zm-14 5h1v1h-1zm-2 1h1v1h-1zm-3 1h2v1h-2zm-2 1h1v1h-1zm-3 1h2v1h-2zm-3 1h2v1h-2z"/><path fill="#0176e3" fill-rule="evenodd" d="M86 83h1v1h-1zm0 1v1h-1v-1z"/><path fill="#0286ea" fill-rule="evenodd" d="M47 84h1v1h-1z"/><path fill="#027de5" fill-rule="evenodd" d="M69 84h1v1h-1z"/><path fill="#0277e3" fill-rule="evenodd" d="M83 84h1v1h-1zm-3 1h1v1h-1zm-5 2h1v1h-1zm-3 1h1v1h-1zm-16 6h1v1h-1zm-2 1h1v1h-1zm-3 1h1v1h-1zm-5 2h1v1h-1z"/><path fill="#0276e3" fill-rule="evenodd" d="M84 84h1v1h-1zm-3 1h2v1h-2zm0 1v1h-3v-1zm-3 1v1h-2v-1zm-2 1v1h-3v-1zm-3 1v1h-2v-1zm-16 5h1v1h-1zm0 1v1h-2v-1zm-5 1h2v1h-2zm0 1v1h-3v-1zm-3 1v1h-2v-1z"/><path fill="#0185eb" fill-rule="evenodd" d="M45 85h1v1h-1zm-10 3h1v1h-1z"/><path fill="#0275e3" fill-rule="evenodd" d="M83 85h1v1h-1zm-2 1h1v1h-1zm-3 1h2v1h-2zm-2 1h1v1h-1zm-3 1h1v1h-1zm-2 1h1v1h-1zm-17 6h2v1h-2zm-2 1h1v1h-1zm-3 1h1v1h-1z"/><path fill="#0175e2" fill-rule="evenodd" d="M84 85h1v1h-1zm-36 14h1v1h-1z"/><path fill="#0275e2" fill-rule="evenodd" d="M82 86h1v1h-1zm-2 1h1v1h-1zm-3 1h1v1h-1zm-3 1h1v1h-1zm-2 1h1v1h-1zm-16 6h1v1h-1zm-3 1h1v1h-1zm-3 1h1v1h-1z"/><path fill="#0174e2" fill-rule="evenodd" d="M83 86h1v1h-1zm-36 13h1v1h-1zm2 0h2v1h-2z"/><path fill="#038ef0" fill-rule="evenodd" d="M17 87h1v1h-1z"/><path fill="#018bee" fill-rule="evenodd" d="M26 87h1v1h-1z"/><path fill="#0274e2" fill-rule="evenodd" d="M81 87h1v1h-1zm-3 1h2v1h-2zm0 1v1h-3v-1zm-3 1v1h-2v-1zm-4 1h1v1h-1zm-14 4h1v1h-1zm-3 2h1v1h-1zm-3 1h2v1h-2z"/><path fill="#0173e2" fill-rule="evenodd" d="M82 87h1v1h-1zm0 1v1h-1v-1z"/><path fill="#0189ec" fill-rule="evenodd" d="M30 88h1v1h-1z"/><path fill="#0273e2" fill-rule="evenodd" d="M80 88h1v1h-1zm-2 1h1v1h-1zm-3 1h1v1h-1zm-3 1h2v1h-2zm-17 6h1v1h-1z"/><path fill="#028ced" fill-rule="evenodd" d="M20 89h1v1h-1z"/><path fill="#abf1ff" fill-rule="evenodd" d="M67 89h1v1h-1z"/><path fill="#0273e1" fill-rule="evenodd" d="M79 89h1v1h-1zm-3 1h1v1h-1zm-2 1h1v1h-1zm-3 1h1v1h-1zm-18 6h1v1h-1z"/><path fill="#0272e1" fill-rule="evenodd" d="M77 90h2v1h-1v1h-2v1h-2v1h-1v1h-3v-3h1v1h1v-1h3v-1h2z"/><path fill="#94edff" fill-rule="evenodd" d="M62 91h1v1h-1z"/><path fill="#0178e3" fill-rule="evenodd" d="M57 92h1v1h-1z"/><path fill="#0271e0" fill-rule="evenodd" d="M74 93h1v1h-1z"/><path fill="#0183ea" fill-rule="evenodd" d="M28 94h1v1h-1z"/><path fill="#0276e2" fill-rule="evenodd" d="M58 94h1v1h-1z"/><path fill="#0171e1" fill-rule="evenodd" d="M69 94h1v1h-1z"/><path fill="#0271e1" fill-rule="evenodd" d="M69 95h1v1h-1z"/><path fill="#0172e0" fill-rule="evenodd" d="M70 95h1v1h-1z"/><path fill="#017be6" fill-rule="evenodd" d="M35 97h1v1h-1z"/><path fill="#027ce5" fill-rule="evenodd" d="M36 97h1v1h-1z"/><path fill="#0179e5" fill-rule="evenodd" d="M39 98h1v1h-1z"/><path fill="#0172e2" fill-rule="evenodd" d="M54 98h1v1h-1z"/><path fill="#0175e3" fill-rule="evenodd" d="M45 99h2v1h-2z"/></svg>