<svg xmlns="http://www.w3.org/2000/svg" viewBox="0 0 100 100" width="1em" height="1em"><path fill="#5eae90" d="M18 0h1v1h-1zM26 0h1v1h-1zM72 0h1v1h-1zM79 0h1v1h-1zM74 4h1v1h-1zM79 4h1v1h-1zM84 5h1v1h-1zM60 7h1v1h-1zM90 9h1v1h-1zM6 13h1v1h-1zM93 13h1v1h-1zM32 14h1v1h-1zM60 14h1v1h-1zM15 15h1v1h-1zM14 17h1v1h-1zM64 17h1v1h-1zM0 18h1v1h-1zM87 21h1v1h-1zM37 28h1v1h-1zM1 29h1v1h-1zM60 30h1v1h-1zM56 31h1v1h-1zM2 32h1v1h-1zM61 32h1v1h-1zM92 32h1v1h-1zM42 33h1v1h-1zM41 34h1v1h-1zM63 34h1v1h-1zM96 34h1v1h-1zM40 36h1v1h-1zM65 36h1v1h-1zM21 37h1v1h-1zM39 37h1v1h-1zM60 37h1v1h-1zM71 37h1v1h-1zM38 38h1v1h-1zM18 40h1v1h-1zM65 41h1v1h-1zM69 43h1v1h-1zM6 44h1v1h-1zM17 44h1v1h-1zM82 44h1v1h-1zM1 46h1v1h-1zM98 47h1v1h-1zM95 52h1v1h-1zM99 56h1v1h-1zM95 58h1v1h-1zM64 59h1v1h-1zM7 63h1v1h-1zM1 65h1v1h-1zM9 65h1v1h-1zM1 66h1v1h-1zM6 68h1v1h-1zM97 68h1v1h-1zM77 71h1v1h-1zM14 72h1v1h-1zM4 73h1v1h-1zM16 73h1v1h-1zM83 73h1v1h-1zM7 78h1v1h-1zM12 78h1v1h-1zM37 78h1v1h-1zM63 78h1v1h-1zM86 80h1v1h-1zM91 80h1v1h-1zM83 83h1v1h-1zM87 84h1v1h-1zM13 85h1v1h-1zM20 86h1v1h-1zM21 87h1v1h-1zM84 87h1v1h-1zM23 88h1v1h-1zM80 90h1v1h-1zM70 91h1v1h-1zM38 94h1v1h-1zM73 94h1v1h-1zM51 95h1v1h-1zM31 96h1v1h-1zM37 98h2v1h-2zM54 99h1v1h-1zM56 99h1v1h-1z" /><path fill="#5ead91" d="M19 0h1v1h-1zM81 0h1v1h-1zM29 1h1v1h-1zM12 2h1v1h-1zM67 2h1v1h-1zM11 3h1v1h-1zM65 3h1v1h-1zM27 4h1v1h-1zM75 4h1v1h-1zM62 5h1v1h-1zM11 7h1v1h-1zM87 7h1v1h-1zM10 8h1v1h-1zM34 8h1v1h-1zM65 8h1v1h-1zM94 8h1v1h-1zM4 9h1v1h-1zM57 11h1v1h-1zM2 12h1v1h-1zM29 12h1v1h-1zM92 12h1v1h-1zM31 13h1v1h-1zM81 13h1v1h-1zM17 14h1v1h-1zM39 14h1v1h-1zM67 14h1v1h-1zM82 14h1v1h-1zM65 15h1v1h-1zM35 17h1v1h-1zM36 18h1v1h-1zM86 18h1v1h-1zM37 21h1v1h-1zM95 21h1v1h-1zM99 22h1v1h-1zM0 25h1v1h-1zM4 26h1v1h-1zM12 28h1v1h-1zM44 28h1v1h-1zM94 28h1v1h-1zM43 30h1v1h-1zM64 32h1v1h-1zM97 32h1v1h-1zM7 33h1v1h-1zM36 34h1v1h-1zM84 34h1v1h-1zM9 35h1v1h-1zM32 35h1v1h-1zM35 35h1v1h-1zM18 36h1v1h-1zM59 36h1v1h-1zM94 37h1v1h-1zM3 41h1v1h-1zM85 43h1v1h-1zM97 43h1v1h-1zM2 44h1v1h-1zM94 48h1v1h-1zM4 58h1v1h-1zM36 58h1v1h-1zM41 59h1v1h-1zM99 59h1v1h-1zM0 60h1v1h-1zM94 60h1v1h-1zM0 62h1v1h-1zM13 67h1v1h-1zM15 68h1v1h-1zM84 68h1v1h-1zM82 69h1v1h-1zM91 69h1v1h-1zM76 71h1v1h-1zM8 73h1v1h-1zM31 73h1v1h-1zM68 73h1v1h-1zM36 74h2v1h-2zM39 74h1v1h-1zM60 74h1v1h-1zM62 74h2v1h-2zM31 77h1v1h-1zM68 77h1v1h-1zM70 77h1v1h-1zM87 78h1v1h-1zM8 80h1v1h-1zM13 80h1v1h-1zM89 82h1v1h-1zM11 83h1v1h-1zM12 84h1v1h-1zM85 86h1v1h-1zM15 87h1v1h-1zM17 89h1v1h-1zM72 90h1v1h-1zM22 92h1v1h-1zM32 92h1v1h-1zM47 95h1v1h-1zM68 96h1v1h-1zM33 97h2v1h-2zM60 98h1v1h-1z" /><path fill="#5dae91" d="M20 0h1v1h-1zM80 0h1v1h-1zM84 1h1v1h-1zM88 3h1v1h-1zM76 4h1v1h-1zM80 4h1v1h-1zM70 5h1v1h-1zM91 5h1v1h-1zM13 6h1v1h-1zM32 6h1v1h-1zM38 6h1v1h-1zM61 6h1v1h-1zM33 7h1v1h-1zM93 7h1v1h-1zM88 8h1v1h-1zM9 9h1v1h-1zM35 9h1v1h-1zM59 9h1v1h-1zM36 10h1v1h-1zM58 10h1v1h-1zM63 10h1v1h-1zM18 13h1v1h-1zM38 13h1v1h-1zM43 13h1v1h-1zM93 14h1v1h-1zM94 15h1v1h-1zM98 15h1v1h-1zM94 16h1v1h-1zM4 18h1v1h-1zM45 18h1v1h-1zM4 19h1v1h-1zM0 20h1v1h-1zM37 20h1v1h-1zM95 20h1v1h-1zM95 23h1v1h-1zM99 26h1v1h-1zM7 32h1v1h-1zM57 33h1v1h-1zM62 33h1v1h-1zM92 33h1v1h-1zM15 34h1v1h-1zM95 35h1v1h-1zM33 37h1v1h-1zM4 39h1v1h-1zM26 40h1v1h-1zM80 40h1v1h-1zM89 41h1v1h-1zM33 42h1v1h-1zM92 42h1v1h-1zM96 42h1v1h-1zM18 44h1v1h-1zM72 44h1v1h-1zM94 49h1v1h-1zM99 51h1v1h-1zM4 53h1v1h-1zM4 54h1v1h-1zM95 55h1v1h-1zM4 57h1v1h-1zM35 63h1v1h-1zM41 63h1v1h-1zM40 64h1v1h-1zM89 65h2v1h-2zM12 67h1v1h-1zM87 67h1v1h-1zM2 69h1v1h-1zM8 69h1v1h-1zM16 69h2v1h-2zM83 69h1v1h-1zM10 70h1v1h-1zM19 70h1v1h-1zM89 70h1v1h-1zM92 70h1v1h-1zM3 72h1v1h-1zM91 73h1v1h-1zM4 74h1v1h-1zM38 74h1v1h-1zM61 74h1v1h-1zM90 74h1v1h-1zM6 77h1v1h-1zM30 77h1v1h-1zM93 77h1v1h-1zM79 86h1v1h-1zM78 87h1v1h-1zM16 88h1v1h-1zM76 88h1v1h-1zM20 91h1v1h-1zM29 91h1v1h-1zM26 94h1v1h-1zM45 95h1v1h-1zM54 95h1v1h-1zM43 99h1v1h-1z" /><path fill="#5eae91" d="M21 0h4v1h-4zM75 0h4v1h-4zM16 1h13v1h-13zM30 1h1v1h-1zM71 1h13v1h-13zM13 2h19v1h-19zM68 2h19v1h-19zM12 3h22v1h-22zM66 3h22v1h-22zM10 4h7v1h-7zM18 4h1v1h-1zM28 4h7v1h-7zM64 4h9v1h-9zM81 4h9v1h-9zM9 5h6v1h-6zM31 5h6v1h-6zM63 5h7v1h-7zM85 5h6v1h-6zM8 6h5v1h-5zM33 6h5v1h-5zM62 6h6v1h-6zM85 6h1v1h-1zM87 6h5v1h-5zM7 7h4v1h-4zM34 7h5v1h-5zM61 7h5v1h-5zM88 7h5v1h-5zM6 8h4v1h-4zM35 8h5v1h-5zM60 8h5v1h-5zM90 8h4v1h-4zM5 9h4v1h-4zM36 9h5v1h-5zM60 9h5v1h-5zM91 9h4v1h-4zM4 10h4v1h-4zM37 10h4v1h-4zM59 10h4v1h-4zM92 10h4v1h-4zM4 11h3v1h-3zM38 11h4v1h-4zM58 11h4v1h-4zM92 11h4v1h-4zM3 12h4v1h-4zM20 12h1v1h-1zM22 12h7v1h-7zM39 12h3v1h-3zM58 12h4v1h-4zM72 12h7v1h-7zM93 12h4v1h-4zM2 13h4v1h-4zM19 13h12v1h-12zM39 13h4v1h-4zM57 13h4v1h-4zM69 13h12v1h-12zM94 13h3v1h-3zM2 14h4v1h-4zM18 14h14v1h-14zM40 14h20v1h-20zM68 14h14v1h-14zM94 14h4v1h-4zM2 15h3v1h-3zM16 15h18v1h-18zM40 15h21v1h-21zM66 15h18v1h-18zM95 15h3v1h-3zM1 16h4v1h-4zM15 16h20v1h-20zM40 16h20v1h-20zM65 16h20v1h-20zM95 16h4v1h-4zM1 17h4v1h-4zM15 17h20v1h-20zM41 17h18v1h-18zM65 17h20v1h-20zM95 17h4v1h-4zM1 18h3v1h-3zM14 18h22v1h-22zM41 18h4v1h-4zM55 18h5v1h-5zM63 18h23v1h-23zM95 18h4v1h-4zM1 19h3v1h-3zM13 19h24v1h-24zM41 19h4v1h-4zM55 19h4v1h-4zM63 19h24v1h-24zM96 19h3v1h-3zM1 20h4v1h-4zM13 20h24v1h-24zM41 20h4v1h-4zM55 20h4v1h-4zM62 20h25v1h-25zM96 20h4v1h-4zM0 21h4v1h-4zM13 21h24v1h-24zM41 21h4v1h-4zM55 21h4v1h-4zM63 21h24v1h-24zM96 21h3v1h-3zM0 22h4v1h-4zM12 22h26v1h-26zM41 22h4v1h-4zM54 22h5v1h-5zM62 22h26v1h-26zM95 22h4v1h-4zM0 23h4v1h-4zM12 23h26v1h-26zM41 23h4v1h-4zM55 23h4v1h-4zM62 23h26v1h-26zM96 23h4v1h-4zM0 24h4v1h-4zM12 24h26v1h-26zM41 24h4v1h-4zM55 24h4v1h-4zM62 24h26v1h-26zM96 24h3v1h-3zM1 25h3v1h-3zM12 25h26v1h-26zM41 25h4v1h-4zM55 25h4v1h-4zM62 25h26v1h-26zM96 25h4v1h-4zM1 26h3v1h-3zM12 26h26v1h-26zM41 26h4v1h-4zM55 26h4v1h-4zM62 26h26v1h-26zM96 26h3v1h-3zM1 27h4v1h-4zM12 27h26v1h-26zM41 27h3v1h-3zM55 27h5v1h-5zM62 27h26v1h-26zM95 27h4v1h-4zM1 28h4v1h-4zM13 28h24v1h-24zM40 28h4v1h-4zM56 28h3v1h-3zM63 28h24v1h-24zM95 28h4v1h-4zM2 29h3v1h-3zM13 29h25v1h-25zM40 29h4v1h-4zM56 29h4v1h-4zM63 29h25v1h-25zM95 29h3v1h-3zM2 30h4v1h-4zM13 30h24v1h-24zM40 30h3v1h-3zM57 30h3v1h-3zM63 30h24v1h-24zM94 30h4v1h-4zM2 31h5v1h-5zM14 31h22v1h-22zM39 31h4v1h-4zM57 31h4v1h-4zM64 31h22v1h-22zM94 31h4v1h-4zM3 32h4v1h-4zM15 32h21v1h-21zM39 32h4v1h-4zM57 32h4v1h-4zM65 32h20v1h-20zM93 32h4v1h-4zM3 33h4v1h-4zM15 33h20v1h-20zM38 33h4v1h-4zM58 33h4v1h-4zM65 33h20v1h-20zM93 33h4v1h-4zM4 34h4v1h-4zM16 34h18v1h-18zM37 34h4v1h-4zM59 34h4v1h-4zM66 34h18v1h-18zM92 34h4v1h-4zM5 35h4v1h-4zM18 35h14v1h-14zM36 35h5v1h-5zM59 35h5v1h-5zM68 35h15v1h-15zM91 35h4v1h-4zM5 36h6v1h-6zM19 36h12v1h-12zM35 36h5v1h-5zM60 36h5v1h-5zM69 36h12v1h-12zM90 36h4v1h-4zM6 37h5v1h-5zM22 37h6v1h-6zM29 37h1v1h-1zM34 37h5v1h-5zM61 37h5v1h-5zM72 37h6v1h-6zM79 37h1v1h-1zM89 37h5v1h-5zM5 38h8v1h-8zM33 38h5v1h-5zM62 38h6v1h-6zM87 38h8v1h-8zM5 39h11v1h-11zM31 39h6v1h-6zM62 39h7v1h-7zM85 39h10v1h-10zM4 40h4v1h-4zM10 40h7v1h-7zM27 40h9v1h-9zM64 40h8v1h-8zM82 40h8v1h-8zM92 40h4v1h-4zM4 41h4v1h-4zM11 41h23v1h-23zM64 41h1v1h-1zM66 41h23v1h-23zM92 41h4v1h-4zM3 42h4v1h-4zM13 42h20v1h-20zM67 42h20v1h-20zM93 42h3v1h-3zM3 43h4v1h-4zM15 43h15v1h-15zM70 43h15v1h-15zM93 43h4v1h-4zM3 44h3v1h-3zM19 44h9v1h-9zM73 44h8v1h-8zM94 44h3v1h-3zM2 45h4v1h-4zM93 45h5v1h-5zM2 46h4v1h-4zM94 46h5v1h-5zM2 47h3v1h-3zM94 47h4v1h-4zM2 48h3v1h-3zM95 48h3v1h-3zM1 49h4v1h-4zM95 49h4v1h-4zM1 50h4v1h-4zM95 50h4v1h-4zM0 51h5v1h-5zM95 51h4v1h-4zM0 52h4v1h-4zM96 52h3v1h-3zM1 53h3v1h-3zM95 53h4v1h-4zM0 54h4v1h-4zM96 54h3v1h-3zM0 55h4v1h-4zM96 55h3v1h-3zM0 56h4v1h-4zM96 56h3v1h-3zM0 57h4v1h-4zM96 57h3v1h-3zM0 58h4v1h-4zM37 58h3v1h-3zM60 58h3v1h-3zM96 58h3v1h-3zM0 59h5v1h-5zM35 59h6v1h-6zM59 59h5v1h-5zM95 59h4v1h-4zM1 60h4v1h-4zM35 60h7v1h-7zM58 60h7v1h-7zM95 60h4v1h-4zM1 61h5v1h-5zM35 61h7v1h-7zM58 61h7v1h-7zM94 61h5v1h-5zM1 62h5v1h-5zM35 62h7v1h-7zM58 62h7v1h-7zM94 62h5v1h-5zM1 63h6v1h-6zM36 63h5v1h-5zM59 63h5v1h-5zM93 63h6v1h-6zM1 64h7v1h-7zM37 64h3v1h-3zM59 64h4v1h-4zM92 64h7v1h-7zM2 65h7v1h-7zM91 65h7v1h-7zM2 66h9v1h-9zM88 66h10v1h-10zM2 67h10v1h-10zM88 67h10v1h-10zM2 68h4v1h-4zM8 68h6v1h-6zM85 68h7v1h-7zM94 68h3v1h-3zM3 69h3v1h-3zM9 69h7v1h-7zM84 69h7v1h-7zM93 69h4v1h-4zM3 70h4v1h-4zM11 70h8v1h-8zM81 70h8v1h-8zM93 70h4v1h-4zM4 71h4v1h-4zM13 71h10v1h-10zM78 71h9v1h-9zM92 71h4v1h-4zM4 72h4v1h-4zM15 72h11v1h-11zM75 72h10v1h-10zM91 72h5v1h-5zM5 73h3v1h-3zM17 73h13v1h-13zM70 73h13v1h-13zM92 73h4v1h-4zM5 74h4v1h-4zM20 74h16v1h-16zM40 74h1v1h-1zM59 74h1v1h-1zM64 74h16v1h-16zM81 74h1v1h-1zM91 74h4v1h-4zM6 75h4v1h-4zM23 75h55v1h-55zM90 75h4v1h-4zM6 76h4v1h-4zM27 76h46v1h-46zM90 76h4v1h-4zM7 77h4v1h-4zM32 77h36v1h-36zM69 77h1v1h-1zM89 77h4v1h-4zM8 78h4v1h-4zM38 78h24v1h-24zM88 78h4v1h-4zM8 79h5v1h-5zM87 79h5v1h-5zM9 80h4v1h-4zM87 80h4v1h-4zM10 81h5v1h-5zM86 81h5v1h-5zM11 82h4v1h-4zM85 82h4v1h-4zM12 83h4v1h-4zM84 83h5v1h-5zM13 84h4v1h-4zM83 84h4v1h-4zM14 85h5v1h-5zM80 85h6v1h-6zM15 86h5v1h-5zM80 86h5v1h-5zM16 87h5v1h-5zM79 87h5v1h-5zM17 88h6v1h-6zM77 88h6v1h-6zM18 89h7v1h-7zM75 89h7v1h-7zM19 90h8v1h-8zM73 90h7v1h-7zM21 91h8v1h-8zM71 91h9v1h-9zM23 92h8v1h-8zM69 92h8v1h-8zM25 93h9v1h-9zM66 93h10v1h-10zM27 94h11v1h-11zM62 94h11v1h-11zM28 95h16v1h-16zM48 95h3v1h-3zM53 95h1v1h-1zM56 95h15v1h-15zM32 96h36v1h-36zM69 96h1v1h-1zM35 97h30v1h-30zM39 98h21v1h-21zM61 98h1v1h-1z" /><path fill="#5dae90" d="M25 0h1v1h-1zM73 0h1v1h-1zM70 1h1v1h-1zM87 2h1v1h-1zM34 3h1v1h-1zM19 4h1v1h-1zM25 4h1v1h-1zM73 4h1v1h-1zM8 5h1v1h-1zM30 5h1v1h-1zM71 5h1v1h-1zM83 5h1v1h-1zM31 6h1v1h-1zM86 6h1v1h-1zM39 7h1v1h-1zM66 7h1v1h-1zM91 11h1v1h-1zM96 11h1v1h-1zM21 12h1v1h-1zM38 12h1v1h-1zM57 12h1v1h-1zM71 12h1v1h-1zM59 17h1v1h-1zM85 17h1v1h-1zM13 18h1v1h-1zM40 18h1v1h-1zM99 18h1v1h-1zM95 19h1v1h-1zM99 19h1v1h-1zM12 20h1v1h-1zM87 20h1v1h-1zM99 24h1v1h-1zM0 26h1v1h-1zM44 27h1v1h-1zM55 28h1v1h-1zM62 28h1v1h-1zM87 28h1v1h-1zM62 29h1v1h-1zM63 31h1v1h-1zM93 31h1v1h-1zM14 32h1v1h-1zM38 32h1v1h-1zM65 34h1v1h-1zM91 34h1v1h-1zM17 35h1v1h-1zM67 35h1v1h-1zM34 36h1v1h-1zM68 36h1v1h-1zM81 36h1v1h-1zM88 37h1v1h-1zM86 38h1v1h-1zM84 39h1v1h-1zM36 40h1v1h-1zM81 40h1v1h-1zM91 40h1v1h-1zM34 41h1v1h-1zM87 42h1v1h-1zM31 43h1v1h-1zM68 43h1v1h-1zM16 44h1v1h-1zM93 44h1v1h-1zM97 44h1v1h-1zM6 45h1v1h-1zM5 47h1v1h-1zM99 55h1v1h-1zM95 56h1v1h-1zM95 57h1v1h-1zM59 58h1v1h-1zM58 59h1v1h-1zM93 62h1v1h-1zM64 63h1v1h-1zM63 64h1v1h-1zM86 67h1v1h-1zM14 68h1v1h-1zM7 70h1v1h-1zM79 70h1v1h-1zM8 72h1v1h-1zM74 72h1v1h-1zM85 72h1v1h-1zM18 74h1v1h-1zM80 74h1v1h-1zM95 74h1v1h-1zM22 75h1v1h-1zM78 75h1v1h-1zM25 76h1v1h-1zM29 77h1v1h-1zM36 78h1v1h-1zM64 78h1v1h-1zM92 78h1v1h-1zM47 79h2v1h-2zM52 79h1v1h-1zM10 82h1v1h-1zM16 83h1v1h-1zM18 84h1v1h-1zM86 85h1v1h-1zM74 89h1v1h-1zM27 90h1v1h-1zM35 93h1v1h-1zM65 93h1v1h-1zM40 94h1v1h-1zM59 94h1v1h-1zM61 94h1v1h-1zM44 95h1v1h-1zM52 95h1v1h-1zM71 95h1v1h-1zM30 96h1v1h-1z" /><path fill="#5ead90" d="M27 0h1v1h-1zM74 0h1v1h-1zM15 1h1v1h-1zM69 1h1v1h-1zM9 4h1v1h-1zM17 4h1v1h-1zM90 4h1v1h-1zM37 5h1v1h-1zM68 6h1v1h-1zM92 6h1v1h-1zM89 8h1v1h-1zM91 10h1v1h-1zM7 11h1v1h-1zM37 11h1v1h-1zM62 11h1v1h-1zM42 12h1v1h-1zM79 12h1v1h-1zM56 13h1v1h-1zM61 13h1v1h-1zM1 14h1v1h-1zM1 15h1v1h-1zM5 15h1v1h-1zM84 15h1v1h-1zM5 16h1v1h-1zM0 19h1v1h-1zM4 22h1v1h-1zM45 22h1v1h-1zM45 23h1v1h-1zM54 23h1v1h-1zM4 25h1v1h-1zM40 26h1v1h-1zM95 26h1v1h-1zM59 28h1v1h-1zM5 29h1v1h-1zM12 29h1v1h-1zM60 29h1v1h-1zM94 29h1v1h-1zM56 30h1v1h-1zM98 30h1v1h-1zM13 31h1v1h-1zM36 31h1v1h-1zM38 31h1v1h-1zM43 31h1v1h-1zM86 31h1v1h-1zM34 34h1v1h-1zM58 34h1v1h-1zM31 36h1v1h-1zM94 36h1v1h-1zM66 37h1v1h-1zM70 37h1v1h-1zM78 37h1v1h-1zM13 38h1v1h-1zM31 38h1v1h-1zM29 39h2v1h-2zM37 39h1v1h-1zM69 39h1v1h-1zM95 39h1v1h-1zM9 40h1v1h-1zM19 40h1v1h-1zM72 40h2v1h-2zM90 40h1v1h-1zM12 42h1v1h-1zM2 43h1v1h-1zM28 44h1v1h-1zM81 44h1v1h-1zM83 44h1v1h-1zM1 48h1v1h-1zM98 48h1v1h-1zM0 50h1v1h-1zM4 52h1v1h-1zM95 54h1v1h-1zM99 54h1v1h-1zM99 57h1v1h-1zM99 58h1v1h-1zM5 60h1v1h-1zM99 60h1v1h-1zM0 61h1v1h-1zM99 61h1v1h-1zM99 62h1v1h-1zM92 63h1v1h-1zM91 64h1v1h-1zM98 65h1v1h-1zM98 66h1v1h-1zM1 67h1v1h-1zM92 68h2v1h-2zM6 69h1v1h-1zM80 70h1v1h-1zM12 71h1v1h-1zM87 71h1v1h-1zM96 71h1v1h-1zM26 72h1v1h-1zM72 72h2v1h-2zM30 73h1v1h-1zM69 73h1v1h-1zM9 74h1v1h-1zM19 74h1v1h-1zM21 75h1v1h-1zM10 76h1v1h-1zM73 76h1v1h-1zM7 79h1v1h-1zM51 79h1v1h-1zM92 79h1v1h-1zM17 84h1v1h-1zM82 84h1v1h-1zM19 85h1v1h-1zM22 87h1v1h-1zM25 89h1v1h-1zM31 92h1v1h-1zM24 93h1v1h-1zM64 93h1v1h-1zM39 94h1v1h-1zM60 94h1v1h-1zM65 97h1v1h-1zM46 99h8v1h-8zM55 99h1v1h-1z" /><path fill="#5dad90" d="M32 2h1v1h-1zM26 4h1v1h-1zM78 4h1v1h-1zM15 5h1v1h-1zM29 5h1v1h-1zM6 7h1v1h-1zM5 8h1v1h-1zM95 9h1v1h-1zM41 10h1v1h-1zM3 11h1v1h-1zM70 12h1v1h-1zM97 13h1v1h-1zM4 21h1v1h-1zM12 21h1v1h-1zM62 21h1v1h-1zM99 21h1v1h-1zM4 23h1v1h-1zM4 24h1v1h-1zM40 27h1v1h-1zM5 28h1v1h-1zM85 32h1v1h-1zM37 33h1v1h-1zM3 34h1v1h-1zM8 34h1v1h-1zM41 35h1v1h-1zM58 35h1v1h-1zM90 35h1v1h-1zM89 36h1v1h-1zM11 37h1v1h-1zM32 38h1v1h-1zM8 40h1v1h-1zM17 40h1v1h-1zM63 40h1v1h-1zM10 41h1v1h-1zM96 41h1v1h-1zM66 42h1v1h-1zM14 43h1v1h-1zM30 43h1v1h-1zM71 44h1v1h-1zM1 47h1v1h-1zM5 48h1v1h-1zM99 52h1v1h-1zM4 56h1v1h-1zM40 58h1v1h-1zM6 62h1v1h-1zM36 64h1v1h-1zM20 70h1v1h-1zM3 71h1v1h-1zM96 72h1v1h-1zM5 75h1v1h-1zM74 76h1v1h-1zM89 76h1v1h-1zM11 77h1v1h-1zM85 81h1v1h-1zM15 82h1v1h-1zM84 82h1v1h-1zM14 86h1v1h-1zM83 88h1v1h-1zM77 92h1v1h-1zM66 97h1v1h-1zM57 99h1v1h-1z" /><path fill="#5dad91" d="M35 4h1v1h-1zM77 4h1v1h-1zM7 6h1v1h-1zM8 10h1v1h-1zM7 12h1v1h-1zM97 12h1v1h-1zM68 13h1v1h-1zM34 15h1v1h-1zM39 15h1v1h-1zM40 17h1v1h-1zM54 18h1v1h-1zM95 24h1v1h-1zM95 25h1v1h-1zM59 26h1v1h-1zM39 29h1v1h-1zM98 29h1v1h-1zM1 30h1v1h-1zM39 30h1v1h-1zM4 35h1v1h-1zM5 37h1v1h-1zM20 37h1v1h-1zM28 37h1v1h-1zM61 38h1v1h-1zM70 39h1v1h-1zM7 42h1v1h-1zM0 53h1v1h-1zM99 53h1v1h-1zM4 55h1v1h-1zM63 58h1v1h-1zM58 63h1v1h-1zM8 64h1v1h-1zM11 66h1v1h-1zM7 68h1v1h-1zM97 69h1v1h-1zM23 71h1v1h-1zM27 72h1v1h-1zM94 75h1v1h-1zM26 76h1v1h-1zM88 77h1v1h-1zM35 78h1v1h-1zM62 78h1v1h-1zM49 79h2v1h-2zM9 81h1v1h-1zM77 87h1v1h-1zM82 89h1v1h-1zM67 92h2v1h-2zM34 93h1v1h-1zM46 95h1v1h-1zM55 95h1v1h-1zM62 98h1v1h-1zM44 99h2v1h-2z" /></svg>