<svg xmlns="http://www.w3.org/2000/svg" viewBox="0 0 100 100" width="1em" height="1em"><path fill="#254de3" d="M6 0h1v1h-1zM93 6h1v1h-1zM92 14h1v1h-1zM8 22h1v1h-1zM91 24h1v1h-1zM9 37h1v1h-1zM10 47h1v1h-1zM89 48h1v1h-1zM88 62h1v1h-1zM87 70h1v1h-1zM72 93h1v1h-1zM31 94h1v1h-1zM54 98h1v1h-1zM49 99h1v1h-1z" /><path fill="#264de4" d="M7 0h87v1h-87zM6 1h88v1h-88zM7 2h86v1h-86zM7 3h86v1h-86zM7 4h86v1h-86zM7 5h87v1h-87zM7 6h86v1h-86zM7 7h43v1h-43zM87 7h6v1h-6zM7 8h43v1h-43zM87 8h6v1h-6zM7 9h43v1h-43zM86 9h7v1h-7zM7 10h43v1h-43zM86 10h7v1h-7zM7 11h43v1h-43zM86 11h7v1h-7zM8 12h42v1h-42zM86 12h7v1h-7zM8 13h42v1h-42zM86 13h7v1h-7zM7 14h43v1h-43zM86 14h6v1h-6zM8 15h42v1h-42zM86 15h7v1h-7zM8 16h42v1h-42zM86 16h6v1h-6zM8 17h42v1h-42zM86 17h6v1h-6zM8 18h14v1h-14zM86 18h6v1h-6zM8 19h14v1h-14zM86 19h6v1h-6zM8 20h14v1h-14zM85 20h7v1h-7zM8 21h14v1h-14zM85 21h7v1h-7zM9 22h13v1h-13zM85 22h7v1h-7zM9 23h13v1h-13zM85 23h7v1h-7zM8 24h14v1h-14zM85 24h6v1h-6zM9 25h14v1h-14zM85 25h6v1h-6zM9 26h14v1h-14zM85 26h6v1h-6zM9 27h14v1h-14zM85 27h6v1h-6zM9 28h14v1h-14zM85 28h6v1h-6zM9 29h14v1h-14zM85 29h6v1h-6zM9 30h41v1h-41zM85 30h6v1h-6zM9 31h41v1h-41zM84 31h7v1h-7zM9 32h41v1h-41zM84 32h7v1h-7zM10 33h40v1h-40zM84 33h7v1h-7zM10 34h40v1h-40zM84 34h7v1h-7zM10 35h40v1h-40zM84 35h6v1h-6zM10 36h40v1h-40zM84 36h6v1h-6zM10 37h40v1h-40zM84 37h6v1h-6zM9 38h41v1h-41zM84 38h6v1h-6zM10 39h40v1h-40zM84 39h7v1h-7zM10 40h14v1h-14zM84 40h6v1h-6zM10 41h14v1h-14zM84 41h6v1h-6zM10 42h14v1h-14zM83 42h7v1h-7zM10 43h14v1h-14zM83 43h7v1h-7zM10 44h14v1h-14zM83 44h7v1h-7zM11 45h13v1h-13zM83 45h7v1h-7zM11 46h13v1h-13zM83 46h6v1h-6zM11 47h13v1h-13zM83 47h6v1h-6zM11 48h14v1h-14zM83 48h6v1h-6zM11 49h14v1h-14zM83 49h7v1h-7zM11 50h14v1h-14zM83 50h6v1h-6zM11 51h14v1h-14zM83 51h6v1h-6zM11 52h39v1h-39zM83 52h6v1h-6zM11 53h39v1h-39zM83 53h6v1h-6zM11 54h39v1h-39zM82 54h7v1h-7zM11 55h39v1h-39zM82 55h7v1h-7zM12 56h38v1h-38zM82 56h7v1h-7zM12 57h13v1h-13zM38 57h12v1h-12zM82 57h7v1h-7zM12 58h13v1h-13zM38 58h12v1h-12zM82 58h6v1h-6zM12 59h14v1h-14zM38 59h12v1h-12zM82 59h6v1h-6zM12 60h14v1h-14zM38 60h12v1h-12zM82 60h6v1h-6zM12 61h14v1h-14zM38 61h12v1h-12zM82 61h7v1h-7zM12 62h14v1h-14zM38 62h12v1h-12zM82 62h6v1h-6zM12 63h14v1h-14zM38 63h12v1h-12zM82 63h6v1h-6zM12 64h14v1h-14zM38 64h12v1h-12zM82 64h6v1h-6zM12 65h14v1h-14zM38 65h12v1h-12zM81 65h7v1h-7zM12 66h14v1h-14zM41 66h9v1h-9zM81 66h7v1h-7zM13 67h13v1h-13zM45 67h5v1h-5zM81 67h7v1h-7zM12 68h14v1h-14zM49 68h1v1h-1zM81 68h7v1h-7zM13 69h13v1h-13zM81 69h7v1h-7zM13 70h14v1h-14zM81 70h6v1h-6zM13 71h14v1h-14zM81 71h7v1h-7zM13 72h14v1h-14zM81 72h6v1h-6zM13 73h14v1h-14zM81 73h6v1h-6zM13 74h14v1h-14zM81 74h6v1h-6zM13 75h16v1h-16zM81 75h6v1h-6zM13 76h19v1h-19zM80 76h7v1h-7zM13 77h23v1h-23zM80 77h7v1h-7zM14 78h25v1h-25zM80 78h7v1h-7zM14 79h29v1h-29zM80 79h7v1h-7zM14 80h32v1h-32zM80 80h6v1h-6zM14 81h36v1h-36zM80 81h7v1h-7zM13 82h37v1h-37zM80 82h6v1h-6zM14 83h36v1h-36zM80 83h6v1h-6zM14 84h36v1h-36zM80 84h6v1h-6zM14 85h36v1h-36zM77 85h9v1h-9zM14 86h36v1h-36zM73 86h13v1h-13zM14 87h36v1h-36zM70 87h16v1h-16zM14 88h36v1h-36zM66 88h20v1h-20zM15 89h35v1h-35zM62 89h24v1h-24zM18 90h32v1h-32zM59 90h23v1h-23zM22 91h28v1h-28zM55 91h25v1h-25zM24 92h26v1h-26zM52 92h23v1h-23zM28 93h43v1h-43zM32 94h36v1h-36zM36 95h28v1h-28zM40 96h22v1h-22zM42 97h15v1h-15zM46 98h7v1h-7zM51 99h1v1h-1z" /><path fill="#264de3" d="M6 2h1v1h-1zM7 15h1v1h-1zM92 16h1v1h-1zM8 25h1v1h-1zM10 45h1v1h-1zM89 46h1v1h-1zM11 56h1v1h-1zM11 59h1v1h-1zM11 61h1v1h-1zM12 69h1v1h-1zM87 72h1v1h-1zM87 74h1v1h-1zM14 89h1v1h-1z" /><path fill="#254ce3" d="M93 2h1v1h-1zM6 3h1v1h-1zM93 4h1v1h-1zM6 5h1v1h-1zM91 29h1v1h-1zM9 34h1v1h-1zM10 49h1v1h-1zM89 50h1v1h-1zM11 57h1v1h-1zM88 58h1v1h-1zM88 60h1v1h-1zM12 72h1v1h-1zM86 85h1v1h-1zM20 91h1v1h-1zM38 96h1v1h-1zM57 97h1v1h-1zM50 99h1v1h-1z" /><path fill="#264ce4" d="M93 3h1v1h-1zM6 4h1v1h-1zM92 18h1v1h-1zM10 48h1v1h-1zM89 51h1v1h-1zM11 58h1v1h-1zM88 59h1v1h-1zM17 90h1v1h-1zM82 90h1v1h-1zM80 91h1v1h-1zM23 92h1v1h-1zM35 95h1v1h-1zM64 95h1v1h-1zM62 96h1v1h-1zM41 97h1v1h-1z" /><path fill="#285beb" d="M50 7h1v1h-1zM81 58h1v1h-1z" /><path fill="#285ded" d="M51 7h35v1h-35zM85 12h1v1h-1zM84 23h1v1h-1zM81 57h1v1h-1zM80 68h1v1h-1zM79 79h1v1h-1zM63 88h1v1h-1z" /><path fill="#264fe5" d="M86 7h1v1h-1zM83 41h1v1h-1zM79 84h1v1h-1z" /><path fill="#2863f0" d="M50 8h1v1h-1zM50 9h1v1h-1zM50 10h1v1h-1zM50 11h1v1h-1zM50 12h1v1h-1zM50 13h1v1h-1zM50 14h1v1h-1zM50 15h1v1h-1zM50 16h1v1h-1zM50 17h1v1h-1zM50 30h1v1h-1zM50 31h1v1h-1zM50 32h1v1h-1zM50 33h1v1h-1zM50 34h1v1h-1zM50 35h1v1h-1zM50 36h1v1h-1zM50 37h1v1h-1zM50 38h1v1h-1zM50 39h1v1h-1zM50 52h1v1h-1zM50 53h1v1h-1zM50 54h1v1h-1zM50 55h1v1h-1zM50 56h1v1h-1zM50 57h1v1h-1zM50 58h1v1h-1zM50 59h1v1h-1zM50 60h1v1h-1zM50 61h1v1h-1zM50 62h1v1h-1zM50 63h1v1h-1zM50 64h1v1h-1zM50 65h1v1h-1zM50 66h1v1h-1zM50 67h1v1h-1zM50 68h1v1h-1zM50 81h1v1h-1zM50 82h1v1h-1zM50 83h1v1h-1zM50 84h1v1h-1zM50 85h1v1h-1zM50 86h1v1h-1zM50 87h1v1h-1zM50 88h1v1h-1zM62 88h1v1h-1zM50 89h1v1h-1zM50 90h1v1h-1zM50 91h1v1h-1z" /><path fill="#2965f1" d="M51 8h35v1h-35zM51 9h34v1h-34zM51 10h34v1h-34zM51 11h34v1h-34zM51 12h34v1h-34zM51 13h34v1h-34zM51 14h34v1h-34zM51 15h34v1h-34zM51 16h34v1h-34zM51 17h34v1h-34zM78 18h7v1h-7zM78 19h7v1h-7zM78 20h6v1h-6zM78 21h6v1h-6zM78 22h6v1h-6zM78 23h6v1h-6zM78 24h6v1h-6zM78 25h6v1h-6zM78 26h6v1h-6zM77 27h7v1h-7zM77 28h7v1h-7zM77 29h7v1h-7zM51 30h14v1h-14zM77 30h7v1h-7zM51 31h14v1h-14zM77 31h6v1h-6zM51 32h14v1h-14zM77 32h6v1h-6zM51 33h14v1h-14zM77 33h6v1h-6zM51 34h14v1h-14zM77 34h6v1h-6zM51 35h14v1h-14zM77 35h6v1h-6zM51 36h13v1h-13zM77 36h6v1h-6zM51 37h13v1h-13zM77 37h6v1h-6zM51 38h13v1h-13zM76 38h7v1h-7zM51 39h13v1h-13zM76 39h7v1h-7zM76 40h7v1h-7zM76 41h7v1h-7zM76 42h6v1h-6zM76 43h6v1h-6zM76 44h6v1h-6zM76 45h6v1h-6zM76 46h6v1h-6zM76 47h6v1h-6zM76 48h6v1h-6zM75 49h7v1h-7zM75 50h7v1h-7zM75 51h7v1h-7zM51 52h12v1h-12zM75 52h7v1h-7zM51 53h12v1h-12zM75 53h7v1h-7zM51 54h12v1h-12zM75 54h6v1h-6zM51 55h12v1h-12zM75 55h6v1h-6zM51 56h12v1h-12zM75 56h6v1h-6zM51 57h12v1h-12zM75 57h6v1h-6zM51 58h12v1h-12zM75 58h6v1h-6zM51 59h11v1h-11zM75 59h6v1h-6zM51 60h11v1h-11zM74 60h7v1h-7zM51 61h11v1h-11zM74 61h7v1h-7zM51 62h11v1h-11zM74 62h7v1h-7zM51 63h11v1h-11zM74 63h7v1h-7zM51 64h11v1h-11zM74 64h7v1h-7zM51 65h11v1h-11zM74 65h6v1h-6zM51 66h8v1h-8zM74 66h6v1h-6zM51 67h4v1h-4zM74 67h6v1h-6zM74 68h6v1h-6zM74 69h6v1h-6zM74 70h6v1h-6zM73 71h7v1h-7zM73 72h7v1h-7zM73 73h7v1h-7zM73 74h7v1h-7zM72 75h8v1h-8zM68 76h11v1h-11zM65 77h14v1h-14zM61 78h18v1h-18zM57 79h22v1h-22zM54 80h25v1h-25zM51 81h28v1h-28zM51 82h28v1h-28zM51 83h28v1h-28zM51 84h25v1h-25zM51 85h22v1h-22zM51 86h18v1h-18zM51 87h15v1h-15zM51 88h11v1h-11zM51 89h7v1h-7zM51 90h4v1h-4z" /><path fill="#264ee5" d="M86 8h1v1h-1zM84 30h1v1h-1zM81 64h1v1h-1zM76 85h1v1h-1z" /><path fill="#2864f0" d="M85 9h1v1h-1zM80 65h1v1h-1z" /><path fill="#2962ef" d="M85 10h1v1h-1zM80 66h1v1h-1zM79 77h1v1h-1zM73 85h1v1h-1zM55 90h1v1h-1z" /><path fill="#285fed" d="M85 11h1v1h-1zM80 67h1v1h-1z" /><path fill="#264ce3" d="M7 12h1v1h-1zM91 26h1v1h-1zM8 27h1v1h-1zM91 28h1v1h-1zM9 33h1v1h-1zM9 35h1v1h-1zM90 35h1v1h-1zM90 36h1v1h-1zM90 38h1v1h-1zM12 71h1v1h-1zM13 78h1v1h-1zM13 79h1v1h-1zM13 81h1v1h-1zM86 82h1v1h-1zM86 84h1v1h-1zM83 90h1v1h-1zM21 91h1v1h-1zM27 93h1v1h-1zM71 93h1v1h-1zM65 95h1v1h-1zM39 96h1v1h-1zM45 98h1v1h-1zM53 98h1v1h-1zM48 99h1v1h-1z" /><path fill="#254ce4" d="M7 13h1v1h-1zM91 25h1v1h-1zM8 26h1v1h-1zM91 27h1v1h-1zM9 36h1v1h-1zM90 37h1v1h-1zM12 67h1v1h-1zM12 70h1v1h-1zM13 80h1v1h-1zM86 80h1v1h-1zM86 83h1v1h-1zM16 90h1v1h-1zM76 92h1v1h-1zM73 93h1v1h-1zM30 94h1v1h-1zM34 95h1v1h-1zM58 97h1v1h-1zM55 98h1v1h-1z" /><path fill="#285bec" d="M85 13h1v1h-1zM80 69h1v1h-1z" /><path fill="#2859ea" d="M85 14h1v1h-1z" /><path fill="#2756e9" d="M85 15h1v1h-1zM82 49h1v1h-1zM80 71h1v1h-1zM64 88h1v1h-1z" /><path fill="#254de4" d="M7 16h1v1h-1zM92 17h1v1h-1zM8 23h1v1h-1zM90 40h1v1h-1zM10 46h1v1h-1zM89 47h1v1h-1zM11 60h1v1h-1zM87 73h1v1h-1zM13 83h1v1h-1zM75 92h1v1h-1zM68 94h2v1h-2z" /><path fill="#2754e8" d="M85 16h1v1h-1zM81 61h1v1h-1zM80 72h1v1h-1z" /><path fill="#2752e7" d="M85 17h1v1h-1zM80 73h1v1h-1z" /><path fill="#6983e6" d="M22 18h1v1h-1z" /><path fill="#9cace8" d="M23 18h27v1h-27zM45 79h1v1h-1z" /><path fill="#a7bff9" d="M50 18h1v1h-1z" /><path fill="#a9c1f9" d="M51 18h26v1h-26zM77 19h1v1h-1zM58 78h1v1h-1z" /><path fill="#7fa3f7" d="M77 18h1v1h-1zM60 66h1v1h-1zM73 66h1v1h-1zM66 76h1v1h-1zM55 79h1v1h-1z" /><path fill="#2650e5" d="M85 18h1v1h-1zM54 91h1v1h-1z" /><path fill="#879be7" d="M22 19h1v1h-1z" /><path fill="#ebebeb" d="M23 19h27v1h-27zM23 20h27v1h-27zM23 21h27v1h-27zM23 22h27v1h-27zM23 23h27v1h-27zM23 24h27v1h-27zM24 25h26v1h-26zM24 26h26v1h-26zM24 27h26v1h-26zM24 28h26v1h-26zM25 41h25v1h-25zM25 42h25v1h-25zM25 43h25v1h-25zM25 44h25v1h-25zM25 45h25v1h-25zM25 46h25v1h-25zM26 47h24v1h-24zM26 48h24v1h-24zM26 49h24v1h-24zM26 50h24v1h-24zM27 58h10v1h-10zM27 59h10v1h-10zM27 60h10v1h-10zM27 61h10v1h-10zM27 62h10v1h-10zM27 63h10v1h-10zM27 64h10v1h-10zM27 65h10v1h-10zM27 66h10v1h-10zM27 67h14v1h-14zM27 68h18v1h-18zM27 69h21v1h-21zM28 70h22v1h-22zM28 71h22v1h-22zM28 72h22v1h-22zM28 73h22v1h-22zM29 74h21v1h-21zM33 75h17v1h-17zM36 76h14v1h-14zM40 77h10v1h-10zM44 78h6v1h-6zM47 79h3v1h-3z" /><path fill="#f5f8fe" d="M50 19h1v1h-1zM50 20h1v1h-1zM50 21h1v1h-1zM50 22h1v1h-1zM50 23h1v1h-1zM50 24h1v1h-1zM50 25h1v1h-1zM50 26h1v1h-1zM50 27h1v1h-1zM50 28h1v1h-1zM50 41h1v1h-1zM50 42h1v1h-1zM50 43h1v1h-1zM50 44h1v1h-1zM50 45h1v1h-1zM50 46h1v1h-1zM50 47h1v1h-1zM50 48h1v1h-1zM50 49h1v1h-1zM50 50h1v1h-1zM51 69h1v1h-1zM50 70h1v1h-1zM50 71h1v1h-1zM72 71h1v1h-1zM50 72h1v1h-1zM50 73h1v1h-1zM50 74h1v1h-1zM50 75h1v1h-1zM50 76h1v1h-1zM50 77h1v1h-1zM50 78h1v1h-1zM50 79h1v1h-1zM53 79h1v1h-1z" /><path fill="#ffffff" d="M51 19h26v1h-26zM51 20h26v1h-26zM51 21h26v1h-26zM51 22h26v1h-26zM51 23h26v1h-26zM51 24h26v1h-26zM51 25h26v1h-26zM51 26h25v1h-25zM51 27h25v1h-25zM51 28h25v1h-25zM66 29h10v1h-10zM66 30h10v1h-10zM66 31h10v1h-10zM66 32h10v1h-10zM66 33h10v1h-10zM66 34h10v1h-10zM66 35h10v1h-10zM66 36h10v1h-10zM65 37h10v1h-10zM65 38h10v1h-10zM65 39h10v1h-10zM65 40h10v1h-10zM51 41h24v1h-24zM51 42h24v1h-24zM51 43h24v1h-24zM51 44h24v1h-24zM51 45h24v1h-24zM51 46h24v1h-24zM51 47h24v1h-24zM51 48h23v1h-23zM51 49h23v1h-23zM51 50h23v1h-23zM64 51h10v1h-10zM64 52h10v1h-10zM64 53h10v1h-10zM64 54h10v1h-10zM64 55h10v1h-10zM64 56h10v1h-10zM64 57h10v1h-10zM64 58h10v1h-10zM63 59h11v1h-11zM63 60h10v1h-10zM63 61h10v1h-10zM63 62h10v1h-10zM63 63h10v1h-10zM63 64h10v1h-10zM63 65h10v1h-10zM63 66h10v1h-10zM59 67h14v1h-14zM56 68h17v1h-17zM52 69h21v1h-21zM51 70h22v1h-22zM51 71h21v1h-21zM51 72h21v1h-21zM51 73h21v1h-21zM51 74h20v1h-20zM51 75h16v1h-16zM51 76h13v1h-13zM51 77h9v1h-9zM51 78h6v1h-6zM51 79h2v1h-2z" /><path fill="#264ee4" d="M85 19h1v1h-1zM82 53h1v1h-1zM80 75h1v1h-1zM51 92h1v1h-1z" /><path fill="#768de7" d="M22 20h1v1h-1z" /><path fill="#95b3f8" d="M77 20h1v1h-1z" /><path fill="#2964f1" d="M84 20h1v1h-1zM82 42h1v1h-1zM79 76h1v1h-1zM69 86h1v1h-1zM58 89h1v1h-1zM51 91h1v1h-1z" /><path fill="#637ee6" d="M22 21h1v1h-1z" /><path fill="#83a6f7" d="M77 21h1v1h-1z" /><path fill="#2862ef" d="M84 21h1v1h-1z" /><path fill="#5270e6" d="M22 22h1v1h-1z" /><path fill="#6f98f6" d="M77 22h1v1h-1z" /><path fill="#2960ee" d="M84 22h1v1h-1zM59 89h1v1h-1z" /><path fill="#3f61e4" d="M22 23h1v1h-1z" /><path fill="#5c8af4" d="M77 23h1v1h-1z" /><path fill="#2d52e4" d="M22 24h1v1h-1z" /><path fill="#497cf3" d="M77 24h1v1h-1z" /><path fill="#275bec" d="M84 24h1v1h-1zM79 80h1v1h-1z" /><path fill="#e1e3eb" d="M23 25h1v1h-1z" /><path fill="#366ef2" d="M77 25h1v1h-1z" /><path fill="#2859eb" d="M84 25h1v1h-1zM79 81h1v1h-1z" /><path fill="#cfd5ea" d="M23 26h1v1h-1z" /><path fill="#f9fbff" d="M76 26h1v1h-1z" /><path fill="#2a66f1" d="M77 26h1v1h-1zM64 77h1v1h-1z" /><path fill="#2757e9" d="M84 26h1v1h-1zM79 82h1v1h-1z" /><path fill="#bdc6ea" d="M23 27h1v1h-1zM27 72h1v1h-1z" /><path fill="#e7edfd" d="M76 27h1v1h-1z" /><path fill="#2755e8" d="M84 27h1v1h-1zM83 38h1v1h-1zM79 83h1v1h-1zM75 85h1v1h-1zM57 90h1v1h-1z" /><path fill="#abb8e9" d="M23 28h1v1h-1zM27 73h1v1h-1z" /><path fill="#d3e0fc" d="M76 28h1v1h-1z" /><path fill="#2753e7" d="M84 28h1v1h-1zM68 87h1v1h-1z" /><path fill="#5d79e6" d="M23 29h1v1h-1z" /><path fill="#8297e8" d="M24 29h26v1h-26zM30 75h1v1h-1z" /><path fill="#8babf7" d="M50 29h1v1h-1z" /><path fill="#8dadf8" d="M51 29h14v1h-14zM53 68h1v1h-1zM62 77h1v1h-1z" /><path fill="#bdcffb" d="M65 29h1v1h-1z" /><path fill="#c1d2fb" d="M76 29h1v1h-1z" /><path fill="#2651e6" d="M84 29h1v1h-1z" /><path fill="#93b1f8" d="M65 30h1v1h-1z" /><path fill="#adc4fa" d="M76 30h1v1h-1z" /><path fill="#a6bff9" d="M65 31h1v1h-1z" /><path fill="#99b6f8" d="M76 31h1v1h-1z" /><path fill="#2964f0" d="M83 31h1v1h-1z" /><path fill="#b9ccfa" d="M65 32h1v1h-1z" /><path fill="#87a9f7" d="M76 32h1v1h-1z" /><path fill="#2862f0" d="M83 32h1v1h-1z" /><path fill="#ccdafc" d="M65 33h1v1h-1z" /><path fill="#749bf6" d="M76 33h1v1h-1z" /><path fill="#2860ee" d="M83 33h1v1h-1z" /><path fill="#dfe8fd" d="M65 34h1v1h-1z" /><path fill="#608df5" d="M76 34h1v1h-1z" /><path fill="#285eed" d="M83 34h1v1h-1z" /><path fill="#f2f6fe" d="M65 35h1v1h-1zM71 74h1v1h-1z" /><path fill="#4d7ff3" d="M76 35h1v1h-1z" /><path fill="#285cec" d="M83 35h1v1h-1zM82 46h1v1h-1zM74 85h1v1h-1zM56 90h1v1h-1z" /><path fill="#2f69f1" d="M64 36h1v1h-1zM74 59h1v1h-1z" /><path fill="#fefeff" d="M65 36h1v1h-1z" /><path fill="#3a71f2" d="M76 36h1v1h-1z" /><path fill="#285aeb" d="M83 36h1v1h-1zM67 87h1v1h-1z" /><path fill="#4277f3" d="M64 37h1v1h-1z" /><path fill="#fcfdff" d="M75 37h1v1h-1z" /><path fill="#2b66f1" d="M76 37h1v1h-1z" /><path fill="#2757ea" d="M83 37h1v1h-1zM53 91h1v1h-1z" /><path fill="#5584f4" d="M64 38h1v1h-1z" /><path fill="#ebf1fe" d="M75 38h1v1h-1z" /><path fill="#6892f5" d="M64 39h1v1h-1z" /><path fill="#d8e3fc" d="M75 39h1v1h-1z" /><path fill="#2653e7" d="M83 39h1v1h-1z" /><path fill="#4566e5" d="M24 40h1v1h-1zM37 59h1v1h-1z" /><path fill="#5b77e6" d="M25 40h25v1h-25zM24 44h1v1h-1zM47 68h1v1h-1zM33 76h1v1h-1z" /><path fill="#638ef4" d="M50 40h1v1h-1z" /><path fill="#628ef5" d="M51 40h13v1h-13zM56 67h1v1h-1zM70 75h1v1h-1z" /><path fill="#9cb8f9" d="M64 40h1v1h-1z" /><path fill="#c5d5fb" d="M75 40h1v1h-1z" /><path fill="#2751e6" d="M83 40h1v1h-1zM72 86h1v1h-1z" /><path fill="#90a2e8" d="M24 41h1v1h-1z" /><path fill="#b1c7fa" d="M75 41h1v1h-1z" /><path fill="#7e94e7" d="M24 42h1v1h-1z" /><path fill="#9db8f9" d="M75 42h1v1h-1z" /><path fill="#6c86e7" d="M24 43h1v1h-1z" /><path fill="#8aabf7" d="M75 43h1v1h-1z" /><path fill="#2963ef" d="M82 43h1v1h-1z" /><path fill="#769df6" d="M75 44h1v1h-1z" /><path fill="#2860ef" d="M82 44h1v1h-1z" /><path fill="#4868e5" d="M24 45h1v1h-1z" /><path fill="#648ff5" d="M75 45h1v1h-1z" /><path fill="#295eed" d="M82 45h1v1h-1z" /><path fill="#375ae4" d="M24 46h1v1h-1z" /><path fill="#5081f4" d="M75 46h1v1h-1z" /><path fill="#284ee4" d="M24 47h1v1h-1zM46 80h1v1h-1z" /><path fill="#e8e8eb" d="M25 47h1v1h-1z" /><path fill="#3d73f2" d="M75 47h1v1h-1z" /><path fill="#275aeb" d="M82 47h1v1h-1z" /><path fill="#d9ddeb" d="M25 48h1v1h-1z" /><path fill="#fdfeff" d="M74 48h1v1h-1zM67 75h1v1h-1z" /><path fill="#2c67f1" d="M75 48h1v1h-1zM51 68h1v1h-1zM53 80h1v1h-1z" /><path fill="#2858ea" d="M82 48h1v1h-1z" /><path fill="#c8cfea" d="M25 49h1v1h-1z" /><path fill="#edf2fe" d="M74 49h1v1h-1zM64 76h1v1h-1z" /><path fill="#b5c0e9" d="M25 50h1v1h-1z" /><path fill="#dae4fd" d="M74 50h1v1h-1z" /><path fill="#2754e7" d="M82 50h1v1h-1z" /><path fill="#8c9fe8" d="M25 51h1v1h-1z" /><path fill="#c4cbea" d="M26 51h24v1h-24zM42 78h1v1h-1z" /><path fill="#cfdcfb" d="M50 51h1v1h-1z" /><path fill="#d4e0fc" d="M51 51h12v1h-12zM58 67h1v1h-1zM68 75h1v1h-1z" /><path fill="#e4ecfd" d="M63 51h1v1h-1z" /><path fill="#c8d7fb" d="M74 51h1v1h-1z" /><path fill="#2752e6" d="M82 51h1v1h-1z" /><path fill="#84a7f7" d="M63 52h1v1h-1z" /><path fill="#b3c9fa" d="M74 52h1v1h-1z" /><path fill="#2650e6" d="M82 52h1v1h-1zM80 74h1v1h-1z" /><path fill="#98b5f8" d="M63 53h1v1h-1z" /><path fill="#a1bbf9" d="M74 53h1v1h-1z" /><path fill="#abc3fa" d="M63 54h1v1h-1z" /><path fill="#8eadf8" d="M74 54h1v1h-1z" /><path fill="#2963f0" d="M81 54h1v1h-1z" /><path fill="#bed0fb" d="M63 55h1v1h-1z" /><path fill="#7aa0f6" d="M74 55h1v1h-1z" /><path fill="#2961ee" d="M81 55h1v1h-1z" /><path fill="#d2defc" d="M63 56h1v1h-1z" /><path fill="#6792f5" d="M74 56h1v1h-1z" /><path fill="#285fee" d="M81 56h1v1h-1zM79 78h1v1h-1zM70 86h1v1h-1zM52 91h1v1h-1z" /><path fill="#3358e5" d="M25 57h1v1h-1zM37 58h1v1h-1z" /><path fill="#b6c1e9" d="M26 57h10v1h-10zM31 75h1v1h-1z" /><path fill="#b4bfe9" d="M36 57h1v1h-1zM49 69h1v1h-1z" /><path fill="#274ee4" d="M37 57h1v1h-1z" /><path fill="#e5ecfd" d="M63 57h1v1h-1z" /><path fill="#5484f4" d="M74 57h1v1h-1zM52 68h1v1h-1zM63 77h1v1h-1z" /><path fill="#2950e4" d="M25 58h1v1h-1zM39 78h1v1h-1z" /><path fill="#e9eaeb" d="M26 58h1v1h-1z" /><path fill="#f7faff" d="M63 58h1v1h-1z" /><path fill="#4177f3" d="M74 58h1v1h-1z" /><path fill="#dcdfea" d="M26 59h1v1h-1z" /><path fill="#346df2" d="M62 59h1v1h-1zM60 78h1v1h-1z" /><path fill="#2759ea" d="M81 59h1v1h-1zM80 70h1v1h-1zM78 84h1v1h-1z" /><path fill="#cad1ea" d="M26 60h1v1h-1z" /><path fill="#5774e6" d="M37 60h1v1h-1z" /><path fill="#477bf3" d="M62 60h1v1h-1z" /><path fill="#f2f5fe" d="M73 60h1v1h-1z" /><path fill="#2856e9" d="M81 60h1v1h-1z" /><path fill="#b9c3e9" d="M26 61h1v1h-1z" /><path fill="#6882e6" d="M37 61h1v1h-1z" /><path fill="#5b89f4" d="M62 61h1v1h-1z" /><path fill="#dee7fd" d="M73 61h1v1h-1z" /><path fill="#a8b5e9" d="M26 62h1v1h-1z" /><path fill="#7a90e7" d="M37 62h1v1h-1zM39 66h1v1h-1zM27 74h1v1h-1z" /><path fill="#6e97f5" d="M62 62h1v1h-1z" /><path fill="#cbdafc" d="M73 62h1v1h-1z" /><path fill="#2652e7" d="M81 62h1v1h-1zM50 92h1v1h-1z" /><path fill="#96a7e8" d="M26 63h1v1h-1zM46 68h1v1h-1z" /><path fill="#8b9ee8" d="M37 63h1v1h-1z" /><path fill="#81a4f7" d="M62 63h1v1h-1z" /><path fill="#b8ccfa" d="M73 63h1v1h-1zM65 76h1v1h-1z" /><path fill="#274fe5" d="M81 63h1v1h-1z" /><path fill="#8498e7" d="M26 64h1v1h-1zM48 80h1v1h-1z" /><path fill="#9dace8" d="M37 64h1v1h-1z" /><path fill="#94b2f8" d="M62 64h1v1h-1zM51 80h1v1h-1z" /><path fill="#a4bef9" d="M73 64h1v1h-1z" /><path fill="#728ae6" d="M26 65h1v1h-1z" /><path fill="#afbbe9" d="M37 65h1v1h-1zM38 66h1v1h-1z" /><path fill="#a8c0f9" d="M62 65h1v1h-1z" /><path fill="#92b0f8" d="M73 65h1v1h-1z" /><path fill="#617ce6" d="M26 66h1v1h-1z" /><path fill="#e4e6eb" d="M37 66h1v1h-1zM48 69h1v1h-1z" /><path fill="#4465e5" d="M40 66h1v1h-1z" /><path fill="#467af3" d="M59 66h1v1h-1zM73 69h1v1h-1z" /><path fill="#b9cdfa" d="M61 66h1v1h-1z" /><path fill="#f4f7fe" d="M62 66h1v1h-1z" /><path fill="#4f6ee6" d="M26 67h1v1h-1z" /><path fill="#d9dcea" d="M41 67h1v1h-1z" /><path fill="#aab7e9" d="M42 67h1v1h-1zM38 77h1v1h-1z" /><path fill="#758ce7" d="M43 67h1v1h-1zM37 77h1v1h-1z" /><path fill="#3a5de5" d="M44 67h1v1h-1z" /><path fill="#336cf2" d="M55 67h1v1h-1z" /><path fill="#9bb7f8" d="M57 67h1v1h-1zM69 75h1v1h-1z" /><path fill="#6b95f5" d="M73 67h1v1h-1z" /><path fill="#3e61e5" d="M26 68h1v1h-1z" /><path fill="#d1d6ea" d="M45 68h1v1h-1z" /><path fill="#2c52e4" d="M48 68h1v1h-1zM26 69h1v1h-1z" /><path fill="#c6d6fb" d="M54 68h1v1h-1zM61 77h1v1h-1z" /><path fill="#fbfcff" d="M55 68h1v1h-1z" /><path fill="#5887f4" d="M73 68h1v1h-1z" /><path fill="#bccefa" d="M50 69h1v1h-1z" /><path fill="#e0e2eb" d="M27 70h1v1h-1zM39 77h1v1h-1z" /><path fill="#326cf2" d="M73 70h1v1h-1z" /><path fill="#cfd4ea" d="M27 71h1v1h-1z" /><path fill="#e2eafd" d="M72 72h1v1h-1zM57 78h1v1h-1z" /><path fill="#cfddfc" d="M72 73h1v1h-1z" /><path fill="#dcdfeb" d="M28 74h1v1h-1z" /><path fill="#96b4f8" d="M72 74h1v1h-1z" /><path fill="#4868e6" d="M29 75h1v1h-1z" /><path fill="#e6e7ea" d="M32 75h1v1h-1z" /><path fill="#2e69f1" d="M71 75h1v1h-1z" /><path fill="#2e54e4" d="M32 76h1v1h-1z" /><path fill="#8fa1e7" d="M34 76h1v1h-1z" /><path fill="#cbd1ea" d="M35 76h1v1h-1z" /><path fill="#3e74f2" d="M67 76h1v1h-1z" /><path fill="#4062e5" d="M36 77h1v1h-1z" /><path fill="#f8faff" d="M60 77h1v1h-1z" /><path fill="#4d6de5" d="M40 78h1v1h-1z" /><path fill="#899ce8" d="M41 78h1v1h-1z" /><path fill="#eaeaeb" d="M43 78h1v1h-1z" /><path fill="#7098f6" d="M59 78h1v1h-1z" /><path fill="#365ae4" d="M43 79h1v1h-1z" /><path fill="#6781e6" d="M44 79h1v1h-1z" /><path fill="#d7dbea" d="M46 79h1v1h-1z" /><path fill="#bfd1fb" d="M54 79h1v1h-1z" /><path fill="#4378f3" d="M56 79h1v1h-1z" /><path fill="#4e6de6" d="M47 80h1v1h-1z" /><path fill="#bbc5e9" d="M49 80h1v1h-1z" /><path fill="#c9d7fb" d="M50 80h1v1h-1z" /><path fill="#5987f4" d="M52 80h1v1h-1z" /><path fill="#2965f0" d="M76 84h1v1h-1z" /><path fill="#295fee" d="M77 84h1v1h-1z" /><path fill="#2758ea" d="M71 86h1v1h-1zM60 89h1v1h-1z" /><path fill="#2861ef" d="M66 87h1v1h-1z" /><path fill="#264de5" d="M69 87h1v1h-1z" /><path fill="#264fe6" d="M65 88h1v1h-1z" /><path fill="#2652e6" d="M61 89h1v1h-1z" /><path fill="#264fe4" d="M58 90h1v1h-1z" /></svg>