<svg xmlns="http://www.w3.org/2000/svg" viewBox="0 0 100 100" width="1em" height="1em"><path fill="#58d09e" d="M46 0h1v1h-1zM53 0h1v1h-1zM56 0h2v1h-2zM43 1h8v1h-8zM56 1h1v1h-1zM62 1h1v1h-1zM39 2h12v1h-12zM54 2h2v1h-2zM37 3h13v1h-13zM54 3h1v1h-1zM35 4h12v1h-12zM51 4h1v1h-1zM57 4h1v1h-1zM65 4h1v1h-1zM35 5h11v1h-11zM50 5h1v1h-1zM56 5h1v1h-1zM36 6h9v1h-9zM48 6h2v1h-2zM55 6h1v1h-1zM58 6h1v1h-1zM64 6h1v1h-1zM72 6h1v1h-1zM36 7h8v1h-8zM63 7h1v1h-1zM71 7h1v1h-1zM77 7h1v1h-1zM36 8h4v1h-4zM9 60h2v1h-2zM5 61h6v1h-6zM5 62h6v1h-6zM5 63h6v1h-6zM6 64h5v1h-5zM6 65h5v1h-5zM6 66h4v1h-4zM7 67h3v1h-3zM7 68h3v1h-3zM8 69h2v1h-2zM8 70h1v1h-1z" /><path fill="#57d09e" d="M47 0h1v1h-1zM55 0h1v1h-1zM64 1h1v1h-1zM56 2h1v1h-1zM61 2h2v1h-2zM55 3h1v1h-1zM61 3h1v1h-1zM59 4h1v1h-1zM63 4h1v1h-1zM69 4h2v1h-2zM62 5h1v1h-1zM69 5h1v1h-1zM72 5h1v1h-1zM46 6h1v1h-1zM52 6h1v1h-1zM60 6h1v1h-1zM66 6h1v1h-1zM70 6h2v1h-2zM45 7h1v1h-1zM61 7h1v1h-1zM65 7h1v1h-1zM69 7h2v1h-2zM76 7h1v1h-1zM67 8h1v1h-1zM73 8h1v1h-1zM38 9h1v1h-1zM72 9h1v1h-1zM74 10h1v1h-1zM7 70h1v1h-1z" /><path fill="#58cf9d" d="M48 0h1v1h-1zM59 0h1v1h-1zM51 1h1v1h-1zM57 1h1v1h-1zM61 1h1v1h-1zM59 2h1v1h-1zM65 2h1v1h-1zM35 3h2v1h-2zM58 3h1v1h-1zM64 3h1v1h-1zM66 4h2v1h-2zM46 5h1v1h-1zM54 5h1v1h-1zM60 5h2v1h-2zM65 5h2v1h-2zM71 5h1v1h-1zM45 6h1v1h-1zM53 6h1v1h-1zM59 6h1v1h-1zM68 6h1v1h-1zM67 7h2v1h-2zM74 9h1v1h-1zM73 10h1v1h-1zM11 62h1v1h-1zM10 66h1v1h-1zM6 67h1v1h-1zM9 70h1v1h-1zM8 71h1v1h-1z" /><path fill="#57cf9d" d="M49 0h1v1h-1zM54 0h1v1h-1zM42 1h1v1h-1zM55 1h1v1h-1zM52 2h2v1h-2zM50 3h3v1h-3zM56 3h1v1h-1zM62 3h1v1h-1zM70 3h1v1h-1zM50 4h1v1h-1zM54 4h1v1h-1zM60 4h1v1h-1zM47 5h1v1h-1zM49 5h1v1h-1zM52 5h2v1h-2zM59 5h1v1h-1zM67 5h1v1h-1zM73 5h1v1h-1zM47 6h1v1h-1zM51 6h1v1h-1zM65 6h1v1h-1zM75 6h1v1h-1zM64 7h1v1h-1zM66 7h1v1h-1zM74 7h1v1h-1zM76 9h1v1h-1zM75 10h1v1h-1zM74 11h1v1h-1z" /><path fill="#57cf9e" d="M50 0h1v1h-1zM53 1h1v1h-1zM58 1h2v1h-2zM57 2h1v1h-1zM63 2h1v1h-1zM66 2h2v1h-2zM60 3h1v1h-1zM65 3h2v1h-2zM58 4h1v1h-1zM64 4h1v1h-1zM57 5h1v1h-1zM63 5h1v1h-1zM68 5h1v1h-1zM61 6h1v1h-1zM67 6h1v1h-1zM75 7h1v1h-1zM68 8h1v1h-1zM74 8h1v1h-1zM73 9h1v1h-1z" /><path fill="#58cf9e" d="M51 0h2v1h-2zM52 1h1v1h-1zM51 2h1v1h-1zM60 2h1v1h-1zM53 3h1v1h-1zM59 3h1v1h-1zM67 3h1v1h-1zM47 4h1v1h-1zM52 4h2v1h-2zM51 5h1v1h-1zM74 5h1v1h-1zM54 6h1v1h-1zM73 6h1v1h-1zM66 8h1v1h-1zM69 8h1v1h-1zM68 9h1v1h-1zM76 10h1v1h-1zM75 11h1v1h-1zM5 64h1v1h-1zM7 69h1v1h-1zM8 72h1v1h-1z" /><path fill="#59cf9d" d="M58 0h1v1h-1z" /><path fill="#57d09d" d="M41 1h1v1h-1zM54 1h1v1h-1zM38 2h1v1h-1zM49 4h1v1h-1zM68 4h1v1h-1zM48 5h1v1h-1zM58 5h1v1h-1zM56 6h2v1h-2zM62 7h1v1h-1zM40 8h2v1h-2zM72 8h1v1h-1zM78 8h1v1h-1zM71 9h1v1h-1zM77 9h1v1h-1z" /><path fill="#58d09d" d="M60 1h1v1h-1zM58 2h1v1h-1zM64 2h1v1h-1zM57 3h1v1h-1zM63 3h1v1h-1zM68 3h2v1h-2zM48 4h1v1h-1zM55 4h2v1h-2zM61 4h2v1h-2zM55 5h1v1h-1zM64 5h1v1h-1zM70 5h1v1h-1zM50 6h1v1h-1zM62 6h2v1h-2zM69 6h1v1h-1zM74 6h1v1h-1zM44 7h1v1h-1zM73 7h1v1h-1zM70 8h2v1h-2zM76 8h1v1h-1zM70 9h1v1h-1zM71 10h1v1h-1zM5 65h1v1h-1z" /><path fill="#56cf9d" d="M63 1h1v1h-1z" /><path fill="#5dd09f" d="M34 3h1v1h-1z" /><path fill="#69d3a7" d="M32 4h1v1h-1zM32 5h2v1h-2zM30 6h4v1h-4zM28 7h7v1h-7zM26 8h9v1h-9zM25 9h11v1h-11zM24 10h10v1h-10zM22 11h11v1h-11zM21 12h10v1h-10zM20 13h9v1h-9zM18 14h10v1h-10zM17 15h9v1h-9zM17 16h8v1h-8zM16 17h8v1h-8zM14 18h9v1h-9zM14 19h8v1h-8zM14 20h7v1h-7zM13 21h7v1h-7zM12 22h7v1h-7zM11 23h8v1h-8zM11 24h7v1h-7zM10 25h7v1h-7zM10 26h6v1h-6zM9 27h7v1h-7zM9 28h7v1h-7zM8 29h7v1h-7zM8 30h6v1h-6zM7 31h7v1h-7zM7 32h6v1h-6zM7 33h6v1h-6zM6 34h6v1h-6zM5 35h7v1h-7zM6 36h6v1h-6zM5 37h6v1h-6zM5 38h7v1h-7zM5 39h6v1h-6zM5 40h5v1h-5zM4 41h6v1h-6zM4 42h6v1h-6zM4 43h6v1h-6zM4 44h6v1h-6zM3 45h7v1h-7zM3 46h7v1h-7zM4 47h6v1h-6zM4 48h6v1h-6zM4 49h5v1h-5zM4 50h5v1h-5zM4 51h6v1h-6zM4 52h6v1h-6zM4 53h6v1h-6zM3 54h7v1h-7zM4 55h6v1h-6zM4 56h6v1h-6zM4 57h6v1h-6zM4 58h6v1h-6zM4 59h5v1h-5z" /><path fill="#68d3a7" d="M33 4h1v1h-1zM34 6h1v1h-1zM20 12h1v1h-1zM28 14h1v1h-1zM16 16h1v1h-1zM24 17h1v1h-1zM20 21h1v1h-1zM11 22h1v1h-1zM16 26h1v1h-1zM3 56h1v1h-1zM10 58h1v1h-1z" /><path fill="#5bd1a0" d="M34 4h1v1h-1z" /><path fill="#58d09f" d="M71 4h1v1h-1zM72 10h1v1h-1z" /><path fill="#59cf9c" d="M72 4h1v1h-1z" /><path fill="#69d3a6" d="M30 5h1v1h-1zM22 10h1v1h-1zM25 16h1v1h-1zM13 20h1v1h-1zM12 21h1v1h-1zM4 39h1v1h-1z" /><path fill="#68d2a6" d="M31 5h1v1h-1zM27 7h1v1h-1zM26 15h1v1h-1zM8 27h1v1h-1zM8 28h1v1h-1zM14 30h1v1h-1zM13 32h1v1h-1zM12 34h1v1h-1zM4 38h1v1h-1zM10 41h1v1h-1zM3 44h1v1h-1zM3 47h1v1h-1zM3 51h1v1h-1zM4 60h1v1h-1z" /><path fill="#62d2a3" d="M34 5h1v1h-1z" /><path fill="#69d2a6" d="M28 6h1v1h-1zM23 10h1v1h-1zM34 10h1v1h-1zM21 11h1v1h-1zM29 13h1v1h-1zM17 25h1v1h-1zM6 32h1v1h-1zM6 33h1v1h-1zM10 40h1v1h-1zM3 43h1v1h-1z" /><path fill="#68d3a6" d="M29 6h1v1h-1zM24 9h1v1h-1zM23 18h1v1h-1zM22 19h1v1h-1zM10 24h1v1h-1zM11 37h1v1h-1zM3 49h1v1h-1zM3 50h1v1h-1zM3 52h1v1h-1zM3 53h1v1h-1z" /><path fill="#59d19e" d="M35 6h1v1h-1z" /><path fill="#57d19e" d="M76 6h1v1h-1z" /><path fill="#5fd1a2" d="M35 7h1v1h-1z" /><path fill="#57ce9d" d="M46 7h1v1h-1zM11 63h1v1h-1zM10 67h1v1h-1zM9 71h1v1h-1z" /><path fill="#58cf9c" d="M72 7h1v1h-1z" /><path fill="#56d09c" d="M78 7h1v1h-1z" /><path fill="#68d2a7" d="M25 8h1v1h-1zM33 11h1v1h-1zM31 12h1v1h-1zM15 17h1v1h-1zM9 26h1v1h-1zM5 36h1v1h-1zM4 40h1v1h-1zM10 42h1v1h-1zM3 48h1v1h-1zM9 49h1v1h-1zM9 50h1v1h-1zM10 57h1v1h-1z" /><path fill="#66d2a5" d="M35 8h1v1h-1z" /><path fill="#59d09e" d="M65 8h1v1h-1zM37 9h1v1h-1z" /><path fill="#58cf9f" d="M75 8h1v1h-1z" /><path fill="#57d19d" d="M77 8h1v1h-1z" /><path fill="#5cd1a0" d="M36 9h1v1h-1zM4 61h1v1h-1z" /><path fill="#58ce9d" d="M69 9h1v1h-1zM75 9h1v1h-1z" /><path fill="#69d2a7" d="M35 10h1v1h-1zM19 13h1v1h-1zM21 20h1v1h-1zM19 22h1v1h-1zM7 29h1v1h-1zM7 30h1v1h-1zM12 35h1v1h-1zM3 55h1v1h-1z" /><path fill="#56d09e" d="M73 11h1v1h-1z" /><path fill="#1a1d2e" d="M33 33h1v1h-1zM35 33h1v1h-1zM55 37h1v1h-1zM38 39h1v1h-1zM78 40h1v1h-1zM30 42h1v1h-1zM53 42h1v1h-1zM47 45h1v1h-1zM21 46h1v1h-1zM74 49h1v1h-1zM67 50h1v1h-1zM21 53h1v1h-1zM69 54h1v1h-1zM79 54h1v1h-1zM69 55h1v1h-1zM30 57h1v1h-1zM52 58h1v1h-1zM64 59h1v1h-1zM37 60h1v1h-1zM40 60h1v1h-1zM64 60h1v1h-1zM44 65h1v1h-1zM34 66h1v1h-1zM54 99h2v1h-2z" /><path fill="#1a1e2e" d="M34 33h1v1h-1zM54 33h7v1h-7zM81 33h7v1h-7zM30 34h1v1h-1zM44 34h1v1h-1zM27 36h1v1h-1zM26 37h1v1h-1zM86 37h1v1h-1zM23 40h1v1h-1zM50 44h1v1h-1zM82 46h1v1h-1zM66 47h1v1h-1zM68 52h1v1h-1zM73 52h1v1h-1zM72 55h1v1h-1zM46 56h1v1h-1zM63 57h1v1h-1zM23 59h1v1h-1zM39 60h1v1h-1zM50 61h1v1h-1zM65 62h1v1h-1zM45 65h1v1h-1zM66 65h1v1h-1zM33 66h1v1h-1zM40 66h1v1h-1zM73 68h1v1h-1zM70 76h1v1h-1zM66 85h1v1h-1zM56 92h1v1h-1z" /><path fill="#1b1e2e" d="M36 33h4v1h-4zM32 34h12v1h-12zM54 34h8v1h-8zM81 34h6v1h-6zM30 35h17v1h-17zM55 35h6v1h-6zM81 35h6v1h-6zM28 36h21v1h-21zM55 36h7v1h-7zM80 36h7v1h-7zM27 37h22v1h-22zM56 37h6v1h-6zM80 37h6v1h-6zM26 38h24v1h-24zM56 38h7v1h-7zM79 38h7v1h-7zM25 39h10v1h-10zM41 39h10v1h-10zM56 39h7v1h-7zM79 39h6v1h-6zM24 40h9v1h-9zM43 40h9v1h-9zM57 40h6v1h-6zM79 40h6v1h-6zM24 41h7v1h-7zM45 41h7v1h-7zM57 41h7v1h-7zM78 41h7v1h-7zM22 42h8v1h-8zM46 42h7v1h-7zM58 42h6v1h-6zM78 42h6v1h-6zM22 43h8v1h-8zM47 43h6v1h-6zM58 43h7v1h-7zM77 43h7v1h-7zM22 44h7v1h-7zM47 44h3v1h-3zM58 44h8v1h-8zM77 44h6v1h-6zM22 45h7v1h-7zM59 45h6v1h-6zM77 45h6v1h-6zM22 46h6v1h-6zM59 46h7v1h-7zM76 46h6v1h-6zM21 47h7v1h-7zM60 47h6v1h-6zM76 47h6v1h-6zM21 48h7v1h-7zM60 48h7v1h-7zM75 48h6v1h-6zM21 49h7v1h-7zM60 49h7v1h-7zM75 49h7v1h-7zM21 50h7v1h-7zM60 50h7v1h-7zM75 50h6v1h-6zM21 51h7v1h-7zM61 51h7v1h-7zM74 51h6v1h-6zM21 52h7v1h-7zM62 52h6v1h-6zM74 52h6v1h-6zM22 53h6v1h-6zM62 53h7v1h-7zM73 53h6v1h-6zM22 54h7v1h-7zM63 54h6v1h-6zM72 54h7v1h-7zM22 55h7v1h-7zM47 55h3v1h-3zM51 55h1v1h-1zM62 55h7v1h-7zM73 55h6v1h-6zM22 56h8v1h-8zM47 56h6v1h-6zM63 56h7v1h-7zM72 56h6v1h-6zM23 57h7v1h-7zM46 57h7v1h-7zM64 57h6v1h-6zM72 57h6v1h-6zM24 58h7v1h-7zM45 58h7v1h-7zM64 58h13v1h-13zM24 59h9v1h-9zM43 59h9v1h-9zM65 59h12v1h-12zM25 60h11v1h-11zM41 60h10v1h-10zM65 60h12v1h-12zM26 61h24v1h-24zM65 61h12v1h-12zM27 62h22v1h-22zM66 62h10v1h-10zM28 63h21v1h-21zM66 63h9v1h-9zM30 64h16v1h-16zM67 64h8v1h-8zM30 65h14v1h-14zM67 65h7v1h-7zM35 66h5v1h-5zM67 66h7v1h-7zM67 67h7v1h-7zM66 68h7v1h-7zM67 69h6v1h-6zM66 70h6v1h-6zM66 71h6v1h-6zM65 72h7v1h-7zM64 73h7v1h-7zM64 74h7v1h-7zM64 75h6v1h-6zM63 76h7v1h-7zM63 77h7v1h-7zM63 78h6v1h-6zM62 79h7v1h-7zM62 80h6v1h-6zM62 81h6v1h-6zM61 82h6v1h-6zM61 83h6v1h-6zM60 84h7v1h-7zM60 85h6v1h-6zM60 86h6v1h-6zM59 87h6v1h-6zM59 88h6v1h-6zM58 89h7v1h-7zM58 90h6v1h-6zM57 91h7v1h-7zM57 92h6v1h-6zM56 93h7v1h-7zM56 94h6v1h-6zM56 95h6v1h-6zM55 96h6v1h-6zM55 97h5v1h-5zM55 98h3v1h-3z" /><path fill="#1b1e2d" d="M40 33h1v1h-1zM42 33h1v1h-1zM29 35h1v1h-1zM54 35h1v1h-1zM61 35h1v1h-1zM35 39h1v1h-1zM40 39h1v1h-1zM78 39h1v1h-1zM42 40h1v1h-1zM63 40h1v1h-1zM23 41h1v1h-1zM31 41h1v1h-1zM57 43h1v1h-1zM76 45h1v1h-1zM59 47h1v1h-1zM81 48h1v1h-1zM67 49h1v1h-1zM62 54h1v1h-1zM53 57h1v1h-1zM31 58h1v1h-1zM77 59h1v1h-1zM51 60h1v1h-1zM74 65h1v1h-1zM41 66h1v1h-1zM72 71h1v1h-1zM63 75h1v1h-1zM61 81h1v1h-1zM67 82h1v1h-1zM57 89h1v1h-1zM64 91h1v1h-1zM62 94h1v1h-1zM58 98h1v1h-1z" /><path fill="#1b1d2d" d="M41 33h1v1h-1zM25 38h1v1h-1zM50 38h1v1h-1zM36 39h1v1h-1zM52 40h1v1h-1zM56 40h1v1h-1zM57 42h1v1h-1zM64 42h1v1h-1zM77 42h1v1h-1zM84 42h1v1h-1zM48 45h1v1h-1zM75 47h1v1h-1zM59 48h1v1h-1zM61 53h1v1h-1zM21 54h1v1h-1zM53 56h1v1h-1zM71 57h1v1h-1zM44 58h1v1h-1zM36 60h1v1h-1zM49 62h1v1h-1zM42 66h1v1h-1zM65 71h1v1h-1zM71 73h1v1h-1zM61 80h1v1h-1zM68 81h1v1h-1zM60 97h1v1h-1zM56 99h1v1h-1z" /><path fill="#1b1d2e" d="M31 34h1v1h-1zM87 34h1v1h-1zM62 37h1v1h-1zM24 39h1v1h-1zM85 39h1v1h-1zM44 41h1v1h-1zM45 42h1v1h-1zM21 45h1v1h-1zM58 45h1v1h-1zM28 46h1v1h-1zM74 50h1v1h-1zM80 51h1v1h-1zM28 53h1v1h-1zM48 54h1v1h-1zM70 57h1v1h-1zM24 60h1v1h-1zM26 62h1v1h-1zM66 64h1v1h-1zM60 83h1v1h-1zM57 90h1v1h-1zM61 96h1v1h-1zM57 99h1v1h-1z" /><path fill="#1a1d2d" d="M45 34h1v1h-1zM80 34h1v1h-1zM80 35h1v1h-1zM55 38h1v1h-1zM37 39h1v1h-1zM63 39h1v1h-1zM52 41h1v1h-1zM46 43h1v1h-1zM29 44h1v1h-1zM65 45h1v1h-1zM47 54h1v1h-1zM29 55h1v1h-1zM22 57h1v1h-1zM23 58h1v1h-1zM77 58h1v1h-1zM42 59h1v1h-1zM38 60h1v1h-1zM75 63h1v1h-1zM29 64h1v1h-1zM46 64h1v1h-1zM74 66h1v1h-1zM66 69h1v1h-1zM70 75h1v1h-1zM69 78h1v1h-1zM68 80h1v1h-1zM67 83h1v1h-1zM59 85h1v1h-1zM59 86h1v1h-1zM63 92h1v1h-1zM63 93h1v1h-1z" /><path fill="#1a1e2d" d="M49 37h1v1h-1zM79 37h1v1h-1zM39 39h1v1h-1zM51 39h1v1h-1zM33 40h1v1h-1zM53 43h1v1h-1zM76 44h1v1h-1zM83 44h1v1h-1zM61 52h1v1h-1zM79 53h1v1h-1zM50 55h1v1h-1zM78 56h1v1h-1zM45 57h1v1h-1zM33 59h1v1h-1zM25 61h1v1h-1zM27 63h1v1h-1zM72 70h1v1h-1zM62 78h1v1h-1zM65 87h1v1h-1zM58 88h1v1h-1zM64 90h1v1h-1zM62 95h1v1h-1zM59 98h1v1h-1z" /><path fill="#67d3a6" d="M9 59h1v1h-1z" /><path fill="#61d0a3" d="M10 59h1v1h-1z" /><path fill="#65d2a5" d="M5 60h1v1h-1z" /><path fill="#61d2a3" d="M6 60h1v1h-1z" /><path fill="#5ed1a1" d="M7 60h1v1h-1z" /><path fill="#5ad09f" d="M8 60h1v1h-1zM11 61h1v1h-1z" /><path fill="#5ed1a0" d="M4 62h1v1h-1z" /><path fill="#57cd9c" d="M11 64h1v1h-1zM10 68h1v1h-1zM9 72h1v1h-1z" /><path fill="#56c999" d="M12 64h1v1h-1zM11 69h1v1h-1z" /><path fill="#57cc9c" d="M11 65h1v1h-1zM10 69h1v1h-1z" /><path fill="#55c899" d="M12 65h1v1h-1zM12 66h1v1h-1zM11 70h1v1h-1zM10 74h1v1h-1z" /><path fill="#56cc9b" d="M11 66h1v1h-1z" /><path fill="#56cb9b" d="M11 67h1v1h-1zM10 70h1v1h-1z" /><path fill="#55c799" d="M12 67h1v1h-1z" /><path fill="#54c496" d="M13 67h1v1h-1zM12 71h1v1h-1zM11 75h1v1h-1z" /><path fill="#56ca9a" d="M11 68h1v1h-1zM10 71h1v1h-1zM10 72h1v1h-1z" /><path fill="#55c698" d="M12 68h1v1h-1zM11 72h1v1h-1zM10 75h1v1h-1z" /><path fill="#54c396" d="M13 68h1v1h-1z" /><path fill="#54c597" d="M12 69h1v1h-1zM12 70h1v1h-1zM11 73h1v1h-1z" /><path fill="#53c295" d="M13 69h1v1h-1zM12 73h1v1h-1zM11 77h1v1h-1z" /><path fill="#52bf93" d="M14 69h1v1h-1zM13 73h1v1h-1zM12 76h1v1h-1z" /><path fill="#53c195" d="M13 70h1v1h-1zM12 74h1v1h-1z" /><path fill="#52bd92" d="M14 70h1v1h-1zM14 71h1v1h-1z" /><path fill="#55c798" d="M11 71h1v1h-1z" /><path fill="#53c094" d="M13 71h1v1h-1zM12 75h1v1h-1z" /><path fill="#50b98f" d="M15 71h1v1h-1zM15 72h1v1h-1zM14 76h1v1h-1z" /><path fill="#53c396" d="M12 72h1v1h-1zM11 76h1v1h-1z" /><path fill="#52bf94" d="M13 72h1v1h-1z" /><path fill="#51bc92" d="M14 72h1v1h-1z" /><path fill="#57cc9b" d="M9 73h1v1h-1z" /><path fill="#55c999" d="M10 73h1v1h-1z" /><path fill="#51bb91" d="M14 73h1v1h-1zM13 77h1v1h-1z" /><path fill="#50b88f" d="M15 73h1v1h-1zM14 77h1v1h-1z" /><path fill="#4eb58c" d="M16 73h1v1h-1z" /><path fill="#55cb9a" d="M9 74h1v1h-1z" /><path fill="#54c497" d="M11 74h1v1h-1z" /><path fill="#52be92" d="M13 74h1v1h-1z" /><path fill="#51ba90" d="M14 74h1v1h-1zM13 78h1v1h-1z" /><path fill="#4fb78e" d="M15 74h1v1h-1zM14 78h1v1h-1z" /><path fill="#4eb48c" d="M16 74h1v1h-1z" /><path fill="#4caf89" d="M17 74h1v1h-1z" /><path fill="#51bd92" d="M13 75h1v1h-1z" /><path fill="#50b990" d="M14 75h1v1h-1zM13 79h1v1h-1z" /><path fill="#4fb68e" d="M15 75h1v1h-1zM14 79h1v1h-1z" /><path fill="#4eb38c" d="M16 75h1v1h-1zM15 78h1v1h-1z" /><path fill="#4daf8a" d="M17 75h1v1h-1z" /><path fill="#51bc91" d="M13 76h1v1h-1z" /><path fill="#4fb58d" d="M15 76h1v1h-1zM14 80h1v1h-1z" /><path fill="#4eb28b" d="M16 76h1v1h-1zM15 80h1v1h-1z" /><path fill="#4daf89" d="M17 76h1v1h-1zM16 79h1v1h-1z" /><path fill="#4aab87" d="M18 76h1v1h-1z" /><path fill="#52be93" d="M12 77h1v1h-1z" /><path fill="#4fb48d" d="M15 77h1v1h-1z" /><path fill="#4db18b" d="M16 77h1v1h-1z" /><path fill="#4cae88" d="M17 77h1v1h-1z" /><path fill="#4baa86" d="M18 77h1v1h-1zM17 81h1v1h-1z" /><path fill="#49a783" d="M19 77h1v1h-1zM17 84h1v1h-1z" /><path fill="#52bc92" d="M12 78h1v1h-1z" /><path fill="#4db08a" d="M16 78h1v1h-1z" /><path fill="#4cad88" d="M17 78h1v1h-1zM16 81h1v1h-1zM16 82h1v1h-1z" /><path fill="#4ba986" d="M18 78h1v1h-1zM17 82h1v1h-1z" /><path fill="#4aa684" d="M19 78h1v1h-1zM18 82h1v1h-1z" /><path fill="#47a281" d="M20 78h1v1h-1z" /><path fill="#4eb38b" d="M15 79h1v1h-1z" /><path fill="#4cac87" d="M17 79h1v1h-1z" /><path fill="#4aa985" d="M18 79h1v1h-1z" /><path fill="#49a583" d="M19 79h1v1h-1zM18 83h1v1h-1z" /><path fill="#48a281" d="M20 79h1v1h-1zM19 83h1v1h-1z" /><path fill="#469e7f" d="M21 79h1v1h-1z" /><path fill="#50b78f" d="M13 80h1v1h-1z" /><path fill="#4cae89" d="M16 80h1v1h-1z" /><path fill="#4bab87" d="M17 80h1v1h-1z" /><path fill="#4aa885" d="M18 80h1v1h-1zM17 83h1v1h-1z" /><path fill="#49a483" d="M19 80h1v1h-1z" /><path fill="#48a180" d="M20 80h1v1h-1zM19 84h1v1h-1z" /><path fill="#479e7e" d="M21 80h1v1h-1z" /><path fill="#459a7c" d="M22 80h1v1h-1z" /><path fill="#4db48c" d="M14 81h1v1h-1z" /><path fill="#4db18a" d="M15 81h1v1h-1z" /><path fill="#4aa784" d="M18 81h1v1h-1z" /><path fill="#49a382" d="M19 81h1v1h-1z" /><path fill="#48a080" d="M20 81h1v1h-1zM19 85h1v1h-1z" /><path fill="#469d7e" d="M21 81h1v1h-1zM20 85h1v1h-1z" /><path fill="#45997c" d="M22 81h1v1h-1zM21 85h1v1h-1z" /><path fill="#449679" d="M23 81h1v1h-1zM22 85h1v1h-1z" /><path fill="#4caf8a" d="M15 82h1v1h-1z" /><path fill="#48a381" d="M19 82h1v1h-1z" /><path fill="#479f7f" d="M20 82h1v1h-1z" /><path fill="#469c7d" d="M21 82h1v1h-1zM20 86h1v1h-1z" /><path fill="#45997b" d="M22 82h1v1h-1z" /><path fill="#449579" d="M23 82h1v1h-1zM22 86h1v1h-1z" /><path fill="#429276" d="M24 82h1v1h-1z" /><path fill="#4cac86" d="M16 83h1v1h-1z" /><path fill="#479e7f" d="M20 83h1v1h-1z" /><path fill="#469b7d" d="M21 83h1v1h-1z" /><path fill="#45987b" d="M22 83h1v1h-1zM21 86h1v1h-1z" /><path fill="#449478" d="M23 83h1v1h-1z" /><path fill="#429176" d="M24 83h1v1h-1zM23 87h1v1h-1z" /><path fill="#418e74" d="M25 83h1v1h-1z" /><path fill="#49a482" d="M18 84h1v1h-1z" /><path fill="#479d7e" d="M20 84h1v1h-1z" /><path fill="#469a7c" d="M21 84h1v1h-1z" /><path fill="#44977a" d="M22 84h1v1h-1zM21 88h1v1h-1z" /><path fill="#439378" d="M23 84h1v1h-1zM22 88h1v1h-1z" /><path fill="#429076" d="M24 84h1v1h-1zM23 88h1v1h-1z" /><path fill="#418d74" d="M25 84h1v1h-1zM24 87h1v1h-1zM24 88h1v1h-1z" /><path fill="#408872" d="M26 84h1v1h-1z" /><path fill="#3f856e" d="M27 84h1v1h-1z" /><path fill="#48a382" d="M18 85h1v1h-1z" /><path fill="#439377" d="M23 85h1v1h-1z" /><path fill="#428f75" d="M24 85h1v1h-1z" /><path fill="#418c73" d="M25 85h1v1h-1zM24 89h1v1h-1z" /><path fill="#3f8871" d="M26 85h1v1h-1zM25 89h1v1h-1z" /><path fill="#3e856f" d="M27 85h1v1h-1zM26 89h1v1h-1z" /><path fill="#3c826d" d="M28 85h1v1h-1z" /><path fill="#469e7e" d="M19 86h1v1h-1z" /><path fill="#439277" d="M23 86h1v1h-1z" /><path fill="#418e75" d="M24 86h1v1h-1z" /><path fill="#408b73" d="M25 86h1v1h-1z" /><path fill="#3f8870" d="M26 86h1v1h-1z" /><path fill="#3e846e" d="M27 86h1v1h-1zM26 90h1v1h-1z" /><path fill="#3d816c" d="M28 86h1v1h-1zM27 90h1v1h-1z" /><path fill="#3c7d6a" d="M29 86h1v1h-1zM28 90h1v1h-1z" /><path fill="#459b7c" d="M20 87h1v1h-1z" /><path fill="#45977a" d="M21 87h1v1h-1z" /><path fill="#439478" d="M22 87h1v1h-1z" /><path fill="#408a72" d="M25 87h1v1h-1z" /><path fill="#3f8770" d="M26 87h1v1h-1zM25 90h1v1h-1z" /><path fill="#3e836e" d="M27 87h1v1h-1zM26 91h1v1h-1z" /><path fill="#3d806c" d="M28 87h1v1h-1zM27 91h1v1h-1z" /><path fill="#3b7d6a" d="M29 87h1v1h-1z" /><path fill="#3a7967" d="M30 87h1v1h-1zM29 91h1v1h-1z" /><path fill="#387564" d="M31 87h1v1h-1z" /><path fill="#1b1e2c" d="M58 87h1v1h-1z" /><path fill="#408971" d="M25 88h1v1h-1z" /><path fill="#3f866f" d="M26 88h1v1h-1z" /><path fill="#3d826d" d="M27 88h1v1h-1zM27 89h1v1h-1z" /><path fill="#3c7f6b" d="M28 88h1v1h-1z" /><path fill="#3b7c69" d="M29 88h1v1h-1zM28 91h1v1h-1zM28 92h1v1h-1z" /><path fill="#3a7867" d="M30 88h1v1h-1zM29 92h1v1h-1z" /><path fill="#397565" d="M31 88h1v1h-1zM30 92h1v1h-1z" /><path fill="#387263" d="M32 88h1v1h-1zM31 91h1v1h-1zM31 92h1v1h-1z" /><path fill="#366d60" d="M33 88h1v1h-1zM32 93h1v1h-1z" /><path fill="#1b1c2f" d="M65 88h1v1h-1z" /><path fill="#439176" d="M22 89h1v1h-1z" /><path fill="#428e75" d="M23 89h1v1h-1z" /><path fill="#3c7e6b" d="M28 89h1v1h-1z" /><path fill="#3b7b68" d="M29 89h1v1h-1z" /><path fill="#3a7866" d="M30 89h1v1h-1z" /><path fill="#397464" d="M31 89h1v1h-1z" /><path fill="#377162" d="M32 89h1v1h-1zM31 93h1v1h-1z" /><path fill="#366e60" d="M33 89h1v1h-1zM32 92h1v1h-1z" /><path fill="#356a5e" d="M34 89h1v1h-1zM33 93h1v1h-1z" /><path fill="#33675c" d="M35 89h1v1h-1z" /><path fill="#408b72" d="M24 90h1v1h-1z" /><path fill="#3b7a68" d="M29 90h1v1h-1z" /><path fill="#397766" d="M30 90h1v1h-1z" /><path fill="#387364" d="M31 90h1v1h-1z" /><path fill="#377062" d="M32 90h1v1h-1z" /><path fill="#366d5f" d="M33 90h1v1h-1z" /><path fill="#35695d" d="M34 90h1v1h-1zM33 94h1v1h-1z" /><path fill="#34665b" d="M35 90h1v1h-1zM34 94h1v1h-1z" /><path fill="#336359" d="M36 90h1v1h-1z" /><path fill="#315e57" d="M37 90h1v1h-1zM37 91h1v1h-1z" /><path fill="#2f5c55" d="M38 90h1v1h-1z" /><path fill="#3e8570" d="M25 91h1v1h-1z" /><path fill="#397665" d="M30 91h1v1h-1z" /><path fill="#376f61" d="M32 91h1v1h-1z" /><path fill="#366c5f" d="M33 91h1v1h-1zM32 94h1v1h-1zM32 95h1v1h-1z" /><path fill="#35685d" d="M34 91h1v1h-1z" /><path fill="#33655b" d="M35 91h1v1h-1zM34 95h1v1h-1z" /><path fill="#326259" d="M36 91h1v1h-1zM35 94h1v1h-1z" /><path fill="#305b54" d="M38 91h1v1h-1zM37 95h1v1h-1z" /><path fill="#2f5852" d="M39 91h1v1h-1z" /><path fill="#2d534f" d="M40 91h1v1h-1zM40 93h1v1h-1z" /><path fill="#2b514d" d="M41 91h1v1h-1z" /><path fill="#3b7f6b" d="M27 92h1v1h-1z" /><path fill="#356b5e" d="M33 92h1v1h-1z" /><path fill="#34685c" d="M34 92h1v1h-1z" /><path fill="#33645a" d="M35 92h1v1h-1z" /><path fill="#326158" d="M36 92h1v1h-1z" /><path fill="#315e56" d="M37 92h1v1h-1zM36 95h1v1h-1z" /><path fill="#305a54" d="M38 92h1v1h-1zM37 96h1v1h-1z" /><path fill="#2e5752" d="M39 92h1v1h-1zM38 96h1v1h-1z" /><path fill="#2d5350" d="M40 92h1v1h-1zM39 96h1v1h-1z" /><path fill="#2c504e" d="M41 92h1v1h-1z" /><path fill="#2b4d4b" d="M42 92h1v1h-1zM41 96h1v1h-1z" /><path fill="#2a4949" d="M43 92h1v1h-1zM43 93h1v1h-1zM42 96h1v1h-1z" /><path fill="#294646" d="M44 92h1v1h-1z" /><path fill="#284245" d="M45 92h1v1h-1z" /><path fill="#263f43" d="M46 92h1v1h-1zM45 96h1v1h-1z" /><path fill="#3b7b67" d="M28 93h1v1h-1z" /><path fill="#3a7765" d="M29 93h1v1h-1z" /><path fill="#387464" d="M30 93h1v1h-1z" /><path fill="#34675c" d="M34 93h1v1h-1z" /><path fill="#33635a" d="M35 93h1v1h-1z" /><path fill="#326058" d="M36 93h1v1h-1z" /><path fill="#305d55" d="M37 93h1v1h-1z" /><path fill="#2f5953" d="M38 93h1v1h-1z" /><path fill="#2e5651" d="M39 93h1v1h-1z" /><path fill="#2c4f4d" d="M41 93h1v1h-1zM40 97h1v1h-1z" /><path fill="#2b4c4b" d="M42 93h1v1h-1zM41 97h1v1h-1z" /><path fill="#284547" d="M44 93h1v1h-1zM43 97h1v1h-1z" /><path fill="#274245" d="M45 93h1v1h-1z" /><path fill="#263f42" d="M46 93h1v1h-1z" /><path fill="#253b40" d="M47 93h1v1h-1zM46 97h1v1h-1z" /><path fill="#24383e" d="M48 93h1v1h-1zM47 97h1v1h-1z" /><path fill="#23353c" d="M49 93h1v1h-1z" /><path fill="#22313a" d="M50 93h1v1h-1z" /><path fill="#202e38" d="M51 93h1v1h-1zM50 97h1v1h-1z" /><path fill="#1f2a36" d="M52 93h1v1h-1zM51 97h1v1h-1z" /><path fill="#1e2734" d="M53 93h1v1h-1zM52 97h1v1h-1z" /><path fill="#1d2432" d="M54 93h1v1h-1zM53 96h1v1h-1zM53 97h1v1h-1z" /><path fill="#1c2030" d="M55 93h1v1h-1z" /><path fill="#387264" d="M30 94h1v1h-1z" /><path fill="#366f61" d="M31 94h1v1h-1z" /><path fill="#315f57" d="M36 94h1v1h-1z" /><path fill="#305c55" d="M37 94h1v1h-1z" /><path fill="#2f5853" d="M38 94h1v1h-1z" /><path fill="#2e5551" d="M39 94h1v1h-1zM38 97h1v1h-1z" /><path fill="#2d524f" d="M40 94h1v1h-1z" /><path fill="#2c4e4c" d="M41 94h1v1h-1z" /><path fill="#2a4b4a" d="M42 94h1v1h-1z" /><path fill="#294848" d="M43 94h1v1h-1z" /><path fill="#284446" d="M44 94h1v1h-1z" /><path fill="#274144" d="M45 94h1v1h-1zM44 98h1v1h-1z" /><path fill="#263e42" d="M46 94h1v1h-1zM45 97h1v1h-1z" /><path fill="#253a40" d="M47 94h1v1h-1zM46 98h1v1h-1z" /><path fill="#24373e" d="M48 94h1v1h-1z" /><path fill="#22343c" d="M49 94h1v1h-1z" /><path fill="#21303a" d="M50 94h1v1h-1z" /><path fill="#202d37" d="M51 94h1v1h-1zM50 98h1v1h-1z" /><path fill="#1f2a35" d="M52 94h1v1h-1z" /><path fill="#1e2633" d="M53 94h1v1h-1zM52 98h1v1h-1z" /><path fill="#1d2331" d="M54 94h1v1h-1zM53 98h1v1h-1z" /><path fill="#1c202f" d="M55 94h1v1h-1zM54 97h1v1h-1z" /><path fill="#34675d" d="M33 95h1v1h-1z" /><path fill="#326258" d="M35 95h1v1h-1z" /><path fill="#2f5752" d="M38 95h1v1h-1z" /><path fill="#2e5450" d="M39 95h1v1h-1z" /><path fill="#2c514e" d="M40 95h1v1h-1z" /><path fill="#2b4d4c" d="M41 95h1v1h-1z" /><path fill="#2a4a4a" d="M42 95h1v1h-1z" /><path fill="#294748" d="M43 95h1v1h-1z" /><path fill="#284346" d="M44 95h1v1h-1z" /><path fill="#274043" d="M45 95h1v1h-1z" /><path fill="#263d41" d="M46 95h1v1h-1z" /><path fill="#24393f" d="M47 95h1v1h-1zM47 96h1v1h-1z" /><path fill="#23363d" d="M48 95h1v1h-1z" /><path fill="#22333b" d="M49 95h1v1h-1zM48 98h1v1h-1z" /><path fill="#212f39" d="M50 95h1v1h-1z" /><path fill="#202c37" d="M51 95h1v1h-1z" /><path fill="#1f2935" d="M52 95h1v1h-1zM51 98h1v1h-1z" /><path fill="#1e2533" d="M53 95h1v1h-1z" /><path fill="#1c2231" d="M54 95h1v1h-1z" /><path fill="#1b1f2e" d="M55 95h1v1h-1z" /><path fill="#316158" d="M35 96h1v1h-1z" /><path fill="#315d56" d="M36 96h1v1h-1z" /><path fill="#2c504d" d="M40 96h1v1h-1z" /><path fill="#294647" d="M43 96h1v1h-1z" /><path fill="#284345" d="M44 96h1v1h-1zM43 98h1v1h-1z" /><path fill="#253c41" d="M46 96h1v1h-1z" /><path fill="#23353d" d="M48 96h1v1h-1z" /><path fill="#22323a" d="M49 96h1v1h-1z" /><path fill="#212f38" d="M50 96h1v1h-1zM49 99h1v1h-1z" /><path fill="#202b36" d="M51 96h1v1h-1z" /><path fill="#1e2834" d="M52 96h1v1h-1z" /><path fill="#1c2130" d="M54 96h1v1h-1z" /><path fill="#2d514e" d="M39 97h1v1h-1z" /><path fill="#2a4849" d="M42 97h1v1h-1z" /><path fill="#274244" d="M44 97h1v1h-1z" /><path fill="#23343c" d="M48 97h1v1h-1z" /><path fill="#21313a" d="M49 97h1v1h-1z" /><path fill="#294b49" d="M41 98h1v1h-1z" /><path fill="#284748" d="M42 98h1v1h-1z" /><path fill="#263d42" d="M45 98h1v1h-1z" /><path fill="#23373e" d="M47 98h1v1h-1z" /><path fill="#213039" d="M49 98h1v1h-1z" /><path fill="#1b1f2f" d="M54 98h1v1h-1z" /><path fill="#23383e" d="M46 99h1v1h-1z" /><path fill="#23363c" d="M47 99h1v1h-1z" /><path fill="#21323a" d="M48 99h1v1h-1z" /><path fill="#1f2c36" d="M50 99h1v1h-1z" /><path fill="#1f2834" d="M51 99h1v1h-1z" /><path fill="#1c2433" d="M52 99h1v1h-1z" /><path fill="#1c2230" d="M53 99h1v1h-1z" /></svg>