<svg xmlns="http://www.w3.org/2000/svg" viewBox="0 0 100 100" width="1em" height="1em"><path fill="#632ba6" d="M81 0h2v1h-2zM72 1h1v1h-1zM74 1h2v1h-2zM55 3h2v1h-2zM48 4h2v1h-2zM29 6h2v1h-2zM32 6h1v1h-1zM20 7h1v1h-1zM15 8h1v1h-1zM85 8h1v1h-1zM24 11h1v1h-1zM29 13h1v1h-1zM64 16h1v1h-1zM4 19h1v1h-1zM63 21h1v1h-1zM74 22h1v1h-1zM65 23h1v1h-1zM30 25h1v1h-1zM64 27h1v1h-1zM5 28h1v1h-1zM66 28h1v1h-1zM67 30h1v1h-1zM24 35h1v1h-1zM41 35h1v1h-1zM21 36h1v1h-1zM88 39h1v1h-1zM7 43h1v1h-1zM7 45h1v1h-1zM61 46h1v1h-1zM64 48h1v1h-1zM91 49h1v1h-1zM92 51h1v1h-1zM83 53h2v1h-2zM92 54h1v1h-1zM30 57h1v1h-1zM53 57h1v1h-1zM46 58h1v1h-1zM90 59h1v1h-1zM9 60h1v1h-1zM72 66h1v1h-1zM10 67h1v1h-1zM27 68h1v1h-1zM77 68h1v1h-1zM88 68h1v1h-1zM91 68h1v1h-1zM46 72h1v1h-1zM19 75h1v1h-1zM56 77h1v1h-1zM45 79h1v1h-1zM95 80h1v1h-1zM47 81h1v1h-1zM16 82h1v1h-1zM78 83h2v1h-2zM91 84h1v1h-1zM67 85h1v1h-1zM18 86h1v1h-1zM52 88h1v1h-1zM68 88h1v1h-1zM87 89h1v1h-1zM17 90h1v1h-1zM48 90h1v1h-1zM58 90h1v1h-1zM40 92h1v1h-1zM60 92h2v1h-2zM47 93h1v1h-1zM52 93h1v1h-1zM37 96h1v1h-1z" /><path fill="#622ba6" d="M83 0h1v1h-1zM64 2h1v1h-1zM66 2h1v1h-1zM57 3h1v1h-1zM47 4h1v1h-1zM38 5h1v1h-1zM40 5h1v1h-1zM85 5h1v1h-1zM59 8h1v1h-1zM3 9h1v1h-1zM68 10h1v1h-1zM25 11h1v1h-1zM27 11h1v1h-1zM43 12h1v1h-1zM64 12h1v1h-1zM55 13h1v1h-1zM16 14h1v1h-1zM30 14h1v1h-1zM31 15h1v1h-1zM65 15h1v1h-1zM15 17h1v1h-1zM14 18h1v1h-1zM60 18h1v1h-1zM67 18h1v1h-1zM62 19h1v1h-1zM12 20h1v1h-1zM13 21h1v1h-1zM69 21h1v1h-1zM74 21h1v1h-1zM5 25h1v1h-1zM87 25h1v1h-1zM5 26h1v1h-1zM30 26h1v1h-1zM87 28h1v1h-1zM16 31h1v1h-1zM28 33h1v1h-1zM21 34h1v1h-1zM22 36h1v1h-1zM29 36h1v1h-1zM48 36h1v1h-1zM42 37h1v1h-1zM45 37h1v1h-1zM61 45h1v1h-1zM23 48h1v1h-1zM74 51h1v1h-1zM42 52h1v1h-1zM89 52h1v1h-1zM45 53h1v1h-1zM85 53h1v1h-1zM28 54h1v1h-1zM30 56h1v1h-1zM90 56h1v1h-1zM64 57h1v1h-1zM50 59h1v1h-1zM61 59h1v1h-1zM54 60h1v1h-1zM93 60h1v1h-1zM30 64h1v1h-1zM43 64h1v1h-1zM93 64h1v1h-1zM91 66h1v1h-1zM76 68h1v1h-1zM10 69h1v1h-1zM94 69h1v1h-1zM24 70h1v1h-1zM79 70h2v1h-2zM91 71h1v1h-1zM35 74h1v1h-1zM35 75h1v1h-1zM59 75h2v1h-2zM18 76h1v1h-1zM92 80h1v1h-1zM41 81h1v1h-1zM53 81h1v1h-1zM53 82h1v1h-1zM92 83h1v1h-1zM69 85h1v1h-1zM62 86h1v1h-1zM79 86h3v1h-3zM70 88h1v1h-1zM46 89h1v1h-1zM13 90h1v1h-1zM59 90h1v1h-1zM42 91h1v1h-1zM68 91h1v1h-1zM62 92h1v1h-1zM38 95h1v1h-1zM27 96h1v1h-1zM35 97h1v1h-1zM34 99h1v1h-1z" /><path fill="#622ca6" d="M84 0h1v1h-1zM65 2h1v1h-1zM58 3h1v1h-1zM39 5h1v1h-1zM31 6h1v1h-1zM33 6h1v1h-1zM85 7h1v1h-1zM12 8h2v1h-2zM57 11h1v1h-1zM21 12h1v1h-1zM19 13h1v1h-1zM44 13h1v1h-1zM46 13h1v1h-1zM32 15h1v1h-1zM33 16h1v1h-1zM74 19h1v1h-1zM4 20h1v1h-1zM62 20h1v1h-1zM68 20h1v1h-1zM29 21h1v1h-1zM31 25h1v1h-1zM13 26h1v1h-1zM87 26h1v1h-1zM63 27h1v1h-1zM87 27h1v1h-1zM62 29h1v1h-1zM44 30h1v1h-1zM32 31h1v1h-1zM67 31h1v1h-1zM17 32h1v1h-1zM32 32h1v1h-1zM19 33h1v1h-1zM41 33h1v1h-1zM49 33h1v1h-1zM6 37h1v1h-1zM44 37h1v1h-1zM88 38h1v1h-1zM7 42h1v1h-1zM64 43h2v1h-2zM74 43h1v1h-1zM22 44h1v1h-1zM62 44h1v1h-1zM23 49h1v1h-1zM25 52h1v1h-1zM43 52h1v1h-1zM66 52h1v1h-1zM45 54h2v1h-2zM66 54h1v1h-1zM71 54h2v1h-2zM77 54h1v1h-1zM51 56h1v1h-1zM68 56h1v1h-1zM49 57h1v1h-1zM54 57h1v1h-1zM48 58h1v1h-1zM87 59h1v1h-1zM93 61h1v1h-1zM85 62h1v1h-1zM45 64h1v1h-1zM28 66h1v1h-1zM83 66h1v1h-1zM91 67h1v1h-1zM10 68h1v1h-1zM44 71h1v1h-1zM33 73h1v1h-1zM46 73h1v1h-1zM94 73h1v1h-1zM36 76h1v1h-1zM57 76h1v1h-1zM62 76h1v1h-1zM45 77h1v1h-1zM92 78h1v1h-1zM39 81h1v1h-1zM89 81h1v1h-1zM12 85h1v1h-1zM86 85h1v1h-1zM44 86h1v1h-1zM74 87h1v1h-1zM94 88h1v1h-1zM18 90h1v1h-1zM79 90h1v1h-1zM40 96h1v1h-1zM33 99h1v1h-1z" /><path fill="#632ca5" d="M73 1h1v1h-1zM59 3h1v1h-1zM60 7h1v1h-1zM67 9h1v1h-1zM63 10h1v1h-1zM28 12h1v1h-1zM46 12h1v1h-1zM40 14h1v1h-1zM72 14h1v1h-1zM16 16h1v1h-1zM34 16h1v1h-1zM28 17h1v1h-1zM28 18h1v1h-1zM13 19h1v1h-1zM86 20h1v1h-1zM64 21h1v1h-1zM30 22h1v1h-1zM71 22h1v1h-1zM31 24h1v1h-1zM30 27h1v1h-1zM30 29h1v1h-1zM87 29h1v1h-1zM48 31h1v1h-1zM64 32h1v1h-1zM67 32h1v1h-1zM6 34h1v1h-1zM26 34h1v1h-1zM31 34h1v1h-1zM49 34h1v1h-1zM49 35h1v1h-1zM21 37h1v1h-1zM21 39h1v1h-1zM7 41h1v1h-1zM8 49h1v1h-1zM26 51h1v1h-1zM8 53h1v1h-1zM66 56h1v1h-1zM48 57h1v1h-1zM63 57h1v1h-1zM62 58h1v1h-1zM90 58h1v1h-1zM9 59h1v1h-1zM55 60h1v1h-1zM59 60h1v1h-1zM87 60h1v1h-1zM9 61h1v1h-1zM43 61h1v1h-1zM87 61h1v1h-1zM93 62h1v1h-1zM85 63h1v1h-1zM93 63h1v1h-1zM75 67h1v1h-1zM83 67h1v1h-1zM78 69h1v1h-1zM46 71h1v1h-1zM94 72h1v1h-1zM88 73h1v1h-1zM34 74h1v1h-1zM94 74h1v1h-1zM36 75h1v1h-1zM46 75h1v1h-1zM58 75h1v1h-1zM37 77h2v1h-2zM47 79h1v1h-1zM47 80h1v1h-1zM52 83h1v1h-1zM72 84h1v1h-1zM68 85h1v1h-1zM46 86h1v1h-1zM82 86h1v1h-1zM51 87h1v1h-1zM56 87h2v1h-2zM48 88h1v1h-1zM53 88h1v1h-1zM48 89h1v1h-1zM64 89h2v1h-2zM19 90h1v1h-1zM78 90h1v1h-1zM69 91h2v1h-2zM50 93h2v1h-2zM39 97h1v1h-1zM38 98h1v1h-1z" /><path fill="#632ba5" d="M76 1h1v1h-1zM61 7h1v1h-1zM4 9h2v1h-2zM26 11h1v1h-1zM3 12h1v1h-1zM44 12h1v1h-1zM17 15h1v1h-1zM72 15h1v1h-1zM15 16h1v1h-1zM73 17h1v1h-1zM86 17h1v1h-1zM61 19h1v1h-1zM64 22h1v1h-1zM30 24h1v1h-1zM67 25h1v1h-1zM31 26h1v1h-1zM67 26h1v1h-1zM68 28h1v1h-1zM32 29h1v1h-1zM30 30h1v1h-1zM29 32h1v1h-1zM6 33h1v1h-1zM30 35h1v1h-1zM88 36h1v1h-1zM72 38h1v1h-1zM70 43h1v1h-1zM22 45h1v1h-1zM65 48h1v1h-1zM68 48h1v1h-1zM89 48h1v1h-1zM8 50h1v1h-1zM23 50h1v1h-1zM25 51h1v1h-1zM88 52h1v1h-1zM27 53h1v1h-1zM64 54h1v1h-1zM63 55h1v1h-1zM59 57h1v1h-1zM87 62h1v1h-1zM84 65h1v1h-1zM44 70h1v1h-1zM88 70h1v1h-1zM69 71h1v1h-1zM94 71h1v1h-1zM21 73h1v1h-1zM11 76h1v1h-1zM11 77h1v1h-1zM65 77h1v1h-1zM37 78h1v1h-1zM39 78h1v1h-1zM55 79h1v1h-1zM89 79h1v1h-1zM54 80h1v1h-1zM89 80h1v1h-1zM16 81h1v1h-1zM92 82h1v1h-1zM80 83h1v1h-1zM85 85h1v1h-1zM63 86h1v1h-1zM46 87h1v1h-1zM20 88h1v1h-1zM69 88h1v1h-1zM21 89h1v1h-1zM48 91h1v1h-1zM67 91h1v1h-1zM29 98h1v1h-1zM35 99h1v1h-1z" /><path fill="#632ca6" d="M77 1h8v1h-8zM67 2h18v1h-18zM60 3h25v1h-25zM51 4h34v1h-34zM41 5h44v1h-44zM34 6h51v1h-51zM22 7h1v1h-1zM25 7h35v1h-35zM65 7h20v1h-20zM14 8h1v1h-1zM16 8h43v1h-43zM67 8h18v1h-18zM7 9h52v1h-52zM68 9h17v1h-17zM4 10h54v1h-54zM69 10h17v1h-17zM4 11h19v1h-19zM28 11h29v1h-29zM69 11h17v1h-17zM4 12h17v1h-17zM29 12h14v1h-14zM47 12h9v1h-9zM71 12h15v1h-15zM4 13h15v1h-15zM30 13h12v1h-12zM48 13h7v1h-7zM64 13h1v1h-1zM72 13h14v1h-14zM4 14h12v1h-12zM17 14h1v1h-1zM31 14h9v1h-9zM64 14h1v1h-1zM73 14h13v1h-13zM4 15h12v1h-12zM33 15h6v1h-6zM64 15h1v1h-1zM73 15h14v1h-14zM4 16h11v1h-11zM35 16h1v1h-1zM65 16h1v1h-1zM74 16h12v1h-12zM5 17h10v1h-10zM64 17h2v1h-2zM74 17h12v1h-12zM4 18h10v1h-10zM65 18h2v1h-2zM74 18h12v1h-12zM5 19h8v1h-8zM66 19h2v1h-2zM75 19h11v1h-11zM5 20h7v1h-7zM29 20h1v1h-1zM66 20h2v1h-2zM74 20h12v1h-12zM5 21h8v1h-8zM65 21h4v1h-4zM75 21h12v1h-12zM5 22h8v1h-8zM65 22h6v1h-6zM75 22h12v1h-12zM5 23h8v1h-8zM30 23h1v1h-1zM66 23h21v1h-21zM5 24h8v1h-8zM67 24h20v1h-20zM6 25h7v1h-7zM68 25h19v1h-19zM6 26h7v1h-7zM68 26h19v1h-19zM6 27h8v1h-8zM31 27h1v1h-1zM69 27h18v1h-18zM6 28h9v1h-9zM30 28h2v1h-2zM63 28h3v1h-3zM69 28h18v1h-18zM6 29h9v1h-9zM31 29h1v1h-1zM63 29h4v1h-4zM69 29h18v1h-18zM6 30h10v1h-10zM31 30h1v1h-1zM46 30h3v1h-3zM63 30h4v1h-4zM69 30h18v1h-18zM6 31h10v1h-10zM30 31h2v1h-2zM43 31h5v1h-5zM63 31h4v1h-4zM69 31h19v1h-19zM6 32h11v1h-11zM30 32h2v1h-2zM42 32h8v1h-8zM65 32h2v1h-2zM70 32h18v1h-18zM7 33h12v1h-12zM29 33h3v1h-3zM42 33h7v1h-7zM70 33h18v1h-18zM7 34h13v1h-13zM27 34h4v1h-4zM42 34h7v1h-7zM70 34h18v1h-18zM6 35h17v1h-17zM25 35h5v1h-5zM42 35h7v1h-7zM70 35h18v1h-18zM7 36h14v1h-14zM23 36h5v1h-5zM42 36h6v1h-6zM71 36h17v1h-17zM7 37h14v1h-14zM43 37h1v1h-1zM72 37h16v1h-16zM7 38h14v1h-14zM73 38h15v1h-15zM7 39h14v1h-14zM73 39h15v1h-15zM7 40h15v1h-15zM74 40h14v1h-14zM8 41h14v1h-14zM74 41h15v1h-15zM8 42h14v1h-14zM74 42h15v1h-15zM8 43h14v1h-14zM63 43h1v1h-1zM66 43h4v1h-4zM75 43h14v1h-14zM7 44h15v1h-15zM61 44h1v1h-1zM63 44h8v1h-8zM75 44h14v1h-14zM8 45h14v1h-14zM62 45h8v1h-8zM75 45h14v1h-14zM8 46h15v1h-15zM62 46h8v1h-8zM75 46h15v1h-15zM8 47h15v1h-15zM63 47h6v1h-6zM75 47h14v1h-14zM8 48h15v1h-15zM66 48h2v1h-2zM75 48h14v1h-14zM9 49h14v1h-14zM75 49h14v1h-14zM9 50h14v1h-14zM75 50h18v1h-18zM9 51h16v1h-16zM42 51h1v1h-1zM75 51h17v1h-17zM9 52h16v1h-16zM26 52h1v1h-1zM74 52h14v1h-14zM90 52h2v1h-2zM9 53h18v1h-18zM43 53h1v1h-1zM65 53h1v1h-1zM74 53h9v1h-9zM90 53h2v1h-2zM9 54h19v1h-19zM65 54h1v1h-1zM70 54h1v1h-1zM73 54h4v1h-4zM78 54h1v1h-1zM91 54h1v1h-1zM9 55h21v1h-21zM47 55h1v1h-1zM64 55h11v1h-11zM90 55h3v1h-3zM9 56h21v1h-21zM48 56h3v1h-3zM62 56h4v1h-4zM91 56h2v1h-2zM9 57h21v1h-21zM50 57h3v1h-3zM58 57h1v1h-1zM60 57h3v1h-3zM91 57h2v1h-2zM10 58h21v1h-21zM47 58h1v1h-1zM50 58h12v1h-12zM91 58h2v1h-2zM10 59h21v1h-21zM43 59h6v1h-6zM52 59h9v1h-9zM91 59h2v1h-2zM10 60h21v1h-21zM43 60h2v1h-2zM56 60h3v1h-3zM91 60h2v1h-2zM10 61h21v1h-21zM44 61h1v1h-1zM86 61h1v1h-1zM91 61h2v1h-2zM10 62h21v1h-21zM44 62h1v1h-1zM86 62h1v1h-1zM91 62h2v1h-2zM10 63h20v1h-20zM44 63h1v1h-1zM86 63h2v1h-2zM91 63h2v1h-2zM10 64h20v1h-20zM44 64h1v1h-1zM85 64h3v1h-3zM91 64h2v1h-2zM10 65h19v1h-19zM44 65h1v1h-1zM85 65h3v1h-3zM91 65h3v1h-3zM10 66h18v1h-18zM44 66h2v1h-2zM73 66h1v1h-1zM84 66h4v1h-4zM92 66h2v1h-2zM11 67h17v1h-17zM44 67h2v1h-2zM72 67h3v1h-3zM84 67h4v1h-4zM92 67h2v1h-2zM11 68h16v1h-16zM44 68h2v1h-2zM72 68h4v1h-4zM82 68h6v1h-6zM92 68h2v1h-2zM11 69h15v1h-15zM45 69h1v1h-1zM71 69h7v1h-7zM83 69h5v1h-5zM92 69h2v1h-2zM11 70h13v1h-13zM45 70h1v1h-1zM71 70h8v1h-8zM81 70h7v1h-7zM92 70h3v1h-3zM11 71h13v1h-13zM45 71h1v1h-1zM70 71h18v1h-18zM92 71h2v1h-2zM11 72h12v1h-12zM45 72h1v1h-1zM69 72h20v1h-20zM92 72h2v1h-2zM11 73h10v1h-10zM32 73h1v1h-1zM45 73h1v1h-1zM69 73h19v1h-19zM92 73h2v1h-2zM12 74h9v1h-9zM33 74h1v1h-1zM45 74h1v1h-1zM68 74h21v1h-21zM92 74h2v1h-2zM12 75h7v1h-7zM45 75h1v1h-1zM68 75h21v1h-21zM92 75h3v1h-3zM12 76h6v1h-6zM37 76h1v1h-1zM45 76h2v1h-2zM58 76h4v1h-4zM67 76h22v1h-22zM92 76h3v1h-3zM12 77h6v1h-6zM46 77h1v1h-1zM57 77h8v1h-8zM66 77h23v1h-23zM92 77h3v1h-3zM12 78h6v1h-6zM38 78h1v1h-1zM46 78h1v1h-1zM55 78h34v1h-34zM93 78h2v1h-2zM12 79h5v1h-5zM39 79h2v1h-2zM46 79h1v1h-1zM56 79h33v1h-33zM92 79h4v1h-4zM12 80h5v1h-5zM39 80h2v1h-2zM46 80h1v1h-1zM55 80h34v1h-34zM93 80h2v1h-2zM12 81h4v1h-4zM40 81h1v1h-1zM46 81h1v1h-1zM54 81h35v1h-35zM92 81h3v1h-3zM12 82h4v1h-4zM40 82h2v1h-2zM46 82h2v1h-2zM54 82h29v1h-29zM84 82h1v1h-1zM93 82h2v1h-2zM12 83h5v1h-5zM40 83h2v1h-2zM46 83h1v1h-1zM53 83h25v1h-25zM93 83h2v1h-2zM13 84h4v1h-4zM41 84h7v1h-7zM52 84h20v1h-20zM74 84h1v1h-1zM93 84h3v1h-3zM13 85h4v1h-4zM41 85h7v1h-7zM52 85h15v1h-15zM87 85h9v1h-9zM13 86h5v1h-5zM41 86h3v1h-3zM45 86h1v1h-1zM47 86h1v1h-1zM51 86h11v1h-11zM64 86h1v1h-1zM83 86h13v1h-13zM13 87h7v1h-7zM41 87h2v1h-2zM47 87h1v1h-1zM52 87h4v1h-4zM77 87h19v1h-19zM13 88h7v1h-7zM41 88h2v1h-2zM46 88h2v1h-2zM71 88h22v1h-22zM95 88h1v1h-1zM13 89h8v1h-8zM41 89h2v1h-2zM47 89h1v1h-1zM63 89h1v1h-1zM66 89h18v1h-18zM86 89h1v1h-1zM14 90h3v1h-3zM41 90h2v1h-2zM47 90h1v1h-1zM60 90h15v1h-15zM41 91h1v1h-1zM47 91h1v1h-1zM52 91h1v1h-1zM55 91h12v1h-12zM41 92h1v1h-1zM47 92h13v1h-13zM40 93h3v1h-3zM48 93h2v1h-2zM53 93h1v1h-1zM40 94h2v1h-2zM39 95h2v1h-2zM38 96h2v1h-2zM28 97h1v1h-1zM36 97h3v1h-3zM30 98h8v1h-8z" /><path fill="#622ba5" d="M50 4h1v1h-1zM21 7h1v1h-1zM24 7h1v1h-1zM64 7h1v1h-1zM6 9h1v1h-1zM85 9h1v1h-1zM23 11h1v1h-1zM45 12h1v1h-1zM56 12h1v1h-1zM42 13h1v1h-1zM71 13h1v1h-1zM86 16h1v1h-1zM66 17h1v1h-1zM29 19h1v1h-1zM13 20h1v1h-1zM63 20h1v1h-1zM30 21h1v1h-1zM62 28h1v1h-1zM15 29h1v1h-1zM45 30h1v1h-1zM87 30h1v1h-1zM29 31h1v1h-1zM42 31h1v1h-1zM69 33h1v1h-1zM20 34h1v1h-1zM23 35h1v1h-1zM6 36h1v1h-1zM28 36h1v1h-1zM21 38h1v1h-1zM73 40h1v1h-1zM88 40h1v1h-1zM70 45h1v1h-1zM89 47h1v1h-1zM44 53h1v1h-1zM73 53h1v1h-1zM92 53h1v1h-1zM90 54h1v1h-1zM46 55h1v1h-1zM48 55h1v1h-1zM47 56h1v1h-1zM49 58h1v1h-1zM49 59h1v1h-1zM51 59h1v1h-1zM45 60h1v1h-1zM43 63h1v1h-1zM45 65h1v1h-1zM82 69h1v1h-1zM88 69h1v1h-1zM44 72h1v1h-1zM11 74h1v1h-1zM46 74h1v1h-1zM57 75h1v1h-1zM63 76h1v1h-1zM38 79h1v1h-1zM39 82h1v1h-1zM83 82h1v1h-1zM95 82h1v1h-1zM45 83h1v1h-1zM47 83h1v1h-1zM12 84h1v1h-1zM92 84h1v1h-1zM17 85h1v1h-1zM76 87h1v1h-1zM84 89h1v1h-1zM57 90h1v1h-1zM75 90h1v1h-1zM77 90h1v1h-1zM54 91h1v1h-1zM31 99h1v1h-1z" /><path fill="#622ca5" d="M85 6h1v1h-1zM23 7h1v1h-1zM66 8h1v1h-1zM3 10h1v1h-1zM3 11h1v1h-1zM64 11h1v1h-1zM70 12h1v1h-1zM16 15h1v1h-1zM39 15h1v1h-1zM36 16h1v1h-1zM73 16h1v1h-1zM4 17h1v1h-1zM86 18h1v1h-1zM65 19h1v1h-1zM86 19h1v1h-1zM65 20h1v1h-1zM66 24h1v1h-1zM5 27h1v1h-1zM68 27h1v1h-1zM32 30h1v1h-1zM69 32h1v1h-1zM41 34h1v1h-1zM69 34h1v1h-1zM70 36h1v1h-1zM71 37h1v1h-1zM88 37h1v1h-1zM72 39h1v1h-1zM69 47h1v1h-1zM89 49h1v1h-1zM24 50h1v1h-1zM74 50h1v1h-1zM8 51h1v1h-1zM8 52h1v1h-1zM92 52h1v1h-1zM66 53h1v1h-1zM29 54h1v1h-1zM79 54h1v1h-1zM61 56h1v1h-1zM67 56h1v1h-1zM90 57h1v1h-1zM9 58h1v1h-1zM86 60h1v1h-1zM43 62h1v1h-1zM30 63h1v1h-1zM45 63h1v1h-1zM84 64h1v1h-1zM29 65h1v1h-1zM71 68h1v1h-1zM44 69h1v1h-1zM91 69h1v1h-1zM70 70h1v1h-1zM91 70h1v1h-1zM88 71h1v1h-1zM31 73h1v1h-1zM68 73h1v1h-1zM11 75h1v1h-1zM67 75h1v1h-1zM66 76h1v1h-1zM45 78h1v1h-1zM45 80h1v1h-1zM95 81h1v1h-1zM85 82h1v1h-1zM95 83h1v1h-1zM40 84h1v1h-1zM73 84h1v1h-1zM40 85h1v1h-1zM51 85h1v1h-1zM58 87h1v1h-1zM75 87h1v1h-1zM51 88h1v1h-1zM93 88h1v1h-1zM85 89h1v1h-1zM76 90h1v1h-1zM53 91h1v1h-1zM42 92h1v1h-1zM54 93h1v1h-1zM39 94h1v1h-1zM41 95h1v1h-1zM29 97h1v1h-1zM34 97h1v1h-1zM32 99h1v1h-1zM36 99h1v1h-1z" /></svg>