<svg xmlns="http://www.w3.org/2000/svg" viewBox="0 0 100 100" width="1em" height="1em"><path fill="#ee3d2b" d="M49 0h1v1h-1zM47 1h1v1h-1zM42 4h1v1h-1zM47 6h1v1h-1zM44 8h1v1h-1zM42 9h1v1h-1zM57 9h1v1h-1zM66 9h1v1h-1zM67 10h2v1h-2zM69 11h1v1h-1zM26 13h1v1h-1zM64 13h1v1h-1zM74 14h2v1h-2zM29 16h2v1h-2zM19 17h1v1h-1zM28 17h1v1h-1zM22 20h2v1h-2zM21 21h1v1h-1zM80 22h1v1h-1zM83 22h1v1h-1zM5 25h1v1h-1zM14 29h1v1h-1zM85 29h1v1h-1zM15 30h2v1h-2zM12 33h1v1h-1zM78 33h1v1h-1zM23 34h1v1h-1zM76 34h1v1h-1zM26 36h1v1h-1zM76 39h1v1h-1zM9 41h1v1h-1zM37 42h1v1h-1zM69 43h1v1h-1zM14 44h1v1h-1zM94 44h1v1h-1zM33 45h1v1h-1zM66 45h1v1h-1zM11 47h1v1h-1zM62 47h1v1h-1zM88 47h2v1h-2zM21 48h1v1h-1zM78 48h1v1h-1zM87 48h1v1h-1zM57 50h1v1h-1zM26 51h1v1h-1zM44 51h1v1h-1zM55 51h1v1h-1zM19 52h1v1h-1zM71 52h1v1h-1zM48 53h1v1h-1zM52 53h1v1h-1zM69 53h1v1h-1zM62 57h1v1h-1zM69 58h1v1h-1zM5 59h1v1h-1zM14 59h1v1h-1zM85 59h1v1h-1zM15 60h2v1h-2zM33 60h1v1h-1zM57 60h1v1h-1zM66 60h1v1h-1zM44 61h1v1h-1zM62 62h1v1h-1zM88 62h2v1h-2zM78 63h1v1h-1zM87 63h1v1h-1zM14 64h1v1h-1zM40 64h1v1h-1zM77 64h1v1h-1zM85 64h1v1h-1zM57 65h1v1h-1zM83 65h1v1h-1zM81 66h2v1h-2zM19 67h1v1h-1zM28 67h1v1h-1zM80 67h1v1h-1zM21 68h1v1h-1zM30 68h1v1h-1zM26 71h1v1h-1zM28 72h1v1h-1zM62 72h1v1h-1zM5 74h1v1h-1zM14 74h1v1h-1zM85 74h1v1h-1zM94 74h1v1h-1zM15 75h2v1h-2zM57 75h1v1h-1zM66 75h1v1h-1zM17 76h1v1h-1zM44 76h1v1h-1zM55 76h1v1h-1zM64 76h1v1h-1zM45 77h2v1h-2zM62 77h1v1h-1zM47 78h1v1h-1zM78 78h1v1h-1zM22 79h1v1h-1zM41 79h1v1h-1zM59 79h1v1h-1zM77 79h1v1h-1zM42 80h1v1h-1zM57 80h1v1h-1zM19 82h1v1h-1zM68 84h1v1h-1zM76 84h1v1h-1zM74 85h2v1h-2zM26 86h1v1h-1zM35 86h1v1h-1zM73 86h1v1h-1zM63 87h1v1h-1zM69 88h1v1h-1zM67 89h2v1h-2zM42 90h1v1h-1zM66 90h1v1h-1zM44 91h1v1h-1zM56 91h1v1h-1zM47 93h1v1h-1zM52 93h1v1h-1zM59 94h1v1h-1zM42 95h1v1h-1zM57 95h1v1h-1zM47 98h1v1h-1z" /><path fill="#ed3c2c" d="M50 0h1v1h-1zM48 1h1v1h-1zM38 11h1v1h-1zM84 30h1v1h-1zM82 31h1v1h-1zM85 34h1v1h-1zM83 35h1v1h-1zM78 38h1v1h-1zM23 39h1v1h-1zM8 41h1v1h-1zM10 42h1v1h-1zM34 45h1v1h-1zM47 48h1v1h-1zM41 49h1v1h-1zM70 53h1v1h-1zM68 54h1v1h-1zM33 55h1v1h-1zM94 55h1v1h-1zM63 57h1v1h-1zM71 57h1v1h-1zM61 58h1v1h-1zM34 60h1v1h-1zM90 61h1v1h-1zM59 64h1v1h-1zM24 65h1v1h-1zM31 69h1v1h-1zM25 70h1v1h-1zM64 71h1v1h-1zM63 72h1v1h-1zM71 72h1v1h-1zM61 73h1v1h-1zM69 73h1v1h-1zM90 76h1v1h-1zM54 77h1v1h-1zM85 79h1v1h-1zM83 80h1v1h-1zM53 82h1v1h-1zM39 93h1v1h-1zM48 98h1v1h-1zM50 99h1v1h-1z" /><path fill="#ee3d2c" d="M49 1h2v1h-2zM47 2h6v1h-6zM45 3h10v1h-10zM43 4h15v1h-15zM42 5h8v1h-8zM52 5h6v1h-6zM40 6h7v1h-7zM53 6h7v1h-7zM37 7h8v1h-8zM55 7h7v1h-7zM36 8h7v1h-7zM57 8h7v1h-7zM35 9h7v1h-7zM59 9h6v1h-6zM33 10h7v1h-7zM59 10h8v1h-8zM31 11h7v1h-7zM62 11h7v1h-7zM29 12h7v1h-7zM63 12h8v1h-8zM28 13h7v1h-7zM66 13h7v1h-7zM25 14h8v1h-8zM67 14h7v1h-7zM24 15h8v1h-8zM69 15h8v1h-8zM21 16h8v1h-8zM70 16h8v1h-8zM21 17h6v1h-6zM73 17h7v1h-7zM19 18h7v1h-7zM74 18h7v1h-7zM16 19h9v1h-9zM76 19h7v1h-7zM15 20h7v1h-7zM78 20h6v1h-6zM14 21h6v1h-6zM80 21h4v1h-4zM12 22h8v1h-8zM81 22h2v1h-2zM10 23h7v1h-7zM8 24h8v1h-8zM6 25h7v1h-7zM5 26h7v1h-7zM92 26h3v1h-3zM4 27h7v1h-7zM90 27h6v1h-6zM5 28h8v1h-8zM88 28h8v1h-8zM7 29h6v1h-6zM86 29h10v1h-10zM7 30h8v1h-8zM85 30h11v1h-11zM10 31h8v1h-8zM83 31h7v1h-7zM91 31h5v1h-5zM11 32h8v1h-8zM81 32h7v1h-7zM91 32h5v1h-5zM14 33h7v1h-7zM79 33h7v1h-7zM91 33h5v1h-5zM15 34h7v1h-7zM78 34h7v1h-7zM91 34h5v1h-5zM17 35h7v1h-7zM76 35h7v1h-7zM91 35h5v1h-5zM18 36h8v1h-8zM74 36h7v1h-7zM91 36h5v1h-5zM21 37h7v1h-7zM72 37h7v1h-7zM91 37h5v1h-5zM21 38h8v1h-8zM71 38h7v1h-7zM91 38h5v1h-5zM24 39h7v1h-7zM69 39h7v1h-7zM91 39h5v1h-5zM6 40h2v1h-2zM26 40h7v1h-7zM67 40h7v1h-7zM91 40h5v1h-5zM4 41h4v1h-4zM26 41h1v1h-1zM28 41h7v1h-7zM65 41h7v1h-7zM91 41h5v1h-5zM4 42h6v1h-6zM29 42h7v1h-7zM64 42h7v1h-7zM90 42h6v1h-6zM4 43h8v1h-8zM31 43h7v1h-7zM61 43h8v1h-8zM88 43h7v1h-7zM4 44h10v1h-10zM33 44h8v1h-8zM60 44h7v1h-7zM86 44h7v1h-7zM4 45h11v1h-11zM35 45h7v1h-7zM58 45h7v1h-7zM85 45h7v1h-7zM4 46h5v1h-5zM10 46h7v1h-7zM36 46h9v1h-9zM57 46h8v1h-8zM83 46h8v1h-8zM4 47h5v1h-5zM12 47h7v1h-7zM38 47h7v1h-7zM54 47h8v1h-8zM81 47h7v1h-7zM4 48h5v1h-5zM14 48h7v1h-7zM40 48h7v1h-7zM53 48h7v1h-7zM79 48h7v1h-7zM4 49h5v1h-5zM15 49h7v1h-7zM42 49h8v1h-8zM51 49h7v1h-7zM78 49h7v1h-7zM4 50h5v1h-5zM17 50h7v1h-7zM44 50h13v1h-13zM76 50h7v1h-7zM4 51h5v1h-5zM18 51h8v1h-8zM45 51h10v1h-10zM74 51h7v1h-7zM4 52h5v1h-5zM21 52h7v1h-7zM46 52h7v1h-7zM72 52h7v1h-7zM4 53h5v1h-5zM22 53h7v1h-7zM49 53h2v1h-2zM71 53h7v1h-7zM4 54h5v1h-5zM24 54h7v1h-7zM49 54h1v1h-1zM69 54h7v1h-7zM4 55h5v1h-5zM26 55h7v1h-7zM66 55h8v1h-8zM92 55h1v1h-1zM4 56h5v1h-5zM28 56h7v1h-7zM65 56h7v1h-7zM91 56h5v1h-5zM4 57h6v1h-6zM29 57h7v1h-7zM64 57h7v1h-7zM90 57h6v1h-6zM5 58h7v1h-7zM31 58h8v1h-8zM62 58h7v1h-7zM88 58h8v1h-8zM7 59h6v1h-6zM33 59h7v1h-7zM60 59h7v1h-7zM87 59h9v1h-9zM8 60h7v1h-7zM35 60h8v1h-8zM58 60h7v1h-7zM84 60h12v1h-12zM10 61h7v1h-7zM36 61h7v1h-7zM57 61h8v1h-8zM82 61h8v1h-8zM91 61h5v1h-5zM12 62h7v1h-7zM38 62h7v1h-7zM55 62h7v1h-7zM80 62h8v1h-8zM91 62h5v1h-5zM14 63h7v1h-7zM40 63h7v1h-7zM53 63h7v1h-7zM80 63h6v1h-6zM91 63h5v1h-5zM15 64h7v1h-7zM42 64h8v1h-8zM51 64h7v1h-7zM78 64h7v1h-7zM91 64h5v1h-5zM16 65h8v1h-8zM44 65h13v1h-13zM75 65h8v1h-8zM91 65h5v1h-5zM19 66h7v1h-7zM45 66h10v1h-10zM74 66h7v1h-7zM91 66h5v1h-5zM21 67h7v1h-7zM47 67h6v1h-6zM73 67h6v1h-6zM91 67h5v1h-5zM22 68h7v1h-7zM48 68h3v1h-3zM71 68h8v1h-8zM91 68h5v1h-5zM23 69h8v1h-8zM69 69h7v1h-7zM91 69h5v1h-5zM26 70h7v1h-7zM67 70h8v1h-8zM91 70h5v1h-5zM4 71h4v1h-4zM28 71h7v1h-7zM65 71h7v1h-7zM73 71h1v1h-1zM91 71h5v1h-5zM4 72h6v1h-6zM29 72h7v1h-7zM64 72h7v1h-7zM90 72h6v1h-6zM5 73h7v1h-7zM31 73h7v1h-7zM62 73h7v1h-7zM88 73h7v1h-7zM6 74h7v1h-7zM33 74h7v1h-7zM60 74h7v1h-7zM87 74h7v1h-7zM8 75h7v1h-7zM35 75h8v1h-8zM58 75h7v1h-7zM84 75h8v1h-8zM10 76h7v1h-7zM37 76h6v1h-6zM57 76h7v1h-7zM83 76h7v1h-7zM12 77h7v1h-7zM38 77h7v1h-7zM55 77h7v1h-7zM80 77h8v1h-8zM14 78h7v1h-7zM40 78h7v1h-7zM52 78h8v1h-8zM80 78h7v1h-7zM15 79h7v1h-7zM42 79h7v1h-7zM51 79h7v1h-7zM78 79h7v1h-7zM16 80h8v1h-8zM44 80h13v1h-13zM76 80h7v1h-7zM19 81h7v1h-7zM44 81h11v1h-11zM73 81h8v1h-8zM21 82h7v1h-7zM47 82h6v1h-6zM73 82h7v1h-7zM21 83h8v1h-8zM48 83h3v1h-3zM71 83h7v1h-7zM23 84h8v1h-8zM50 84h1v1h-1zM69 84h7v1h-7zM25 85h8v1h-8zM67 85h7v1h-7zM28 86h7v1h-7zM66 86h6v1h-6zM29 87h7v1h-7zM64 87h7v1h-7zM31 88h7v1h-7zM61 88h8v1h-8zM33 89h7v1h-7zM60 89h7v1h-7zM35 90h7v1h-7zM59 90h6v1h-6zM36 91h7v1h-7zM57 91h7v1h-7zM37 92h8v1h-8zM54 92h8v1h-8zM40 93h7v1h-7zM53 93h7v1h-7zM42 94h7v1h-7zM50 94h8v1h-8zM43 95h14v1h-14zM45 96h10v1h-10zM47 97h6v1h-6zM49 98h2v1h-2z" /><path fill="#ed3d2c" d="M51 1h2v1h-2zM51 5h1v1h-1zM58 5h1v1h-1zM45 7h1v1h-1zM54 7h1v1h-1zM58 9h1v1h-1zM65 9h1v1h-1zM30 11h1v1h-1zM35 13h1v1h-1zM65 13h1v1h-1zM73 13h1v1h-1zM20 17h1v1h-1zM27 17h1v1h-1zM80 17h1v1h-1zM81 18h1v1h-1zM12 21h2v1h-2zM20 21h1v1h-1zM13 25h2v1h-2zM92 25h2v1h-2zM87 28h1v1h-1zM5 29h2v1h-2zM13 29h1v1h-1zM13 33h1v1h-1zM21 33h1v1h-1zM86 33h2v1h-2zM77 34h1v1h-1zM24 35h1v1h-1zM79 37h2v1h-2zM29 38h2v1h-2zM66 40h1v1h-1zM64 41h1v1h-1zM73 41h1v1h-1zM28 42h1v1h-1zM36 42h1v1h-1zM12 43h1v1h-1zM87 43h1v1h-1zM85 44h1v1h-1zM93 44h1v1h-1zM9 46h1v1h-1zM35 46h1v1h-1zM55 46h2v1h-2zM37 47h1v1h-1zM80 47h1v1h-1zM12 48h2v1h-2zM86 48h1v1h-1zM77 49h1v1h-1zM42 50h2v1h-2zM53 52h1v1h-1zM79 52h2v1h-2zM29 53h2v1h-2zM78 53h1v1h-1zM50 54h1v1h-1zM76 54h1v1h-1zM36 57h2v1h-2zM89 57h1v1h-1zM4 58h1v1h-1zM13 59h1v1h-1zM35 61h1v1h-1zM43 61h1v1h-1zM37 62h1v1h-1zM21 63h1v1h-1zM79 63h1v1h-1zM86 63h1v1h-1zM42 65h2v1h-2zM20 67h1v1h-1zM46 67h1v1h-1zM53 67h1v1h-1zM71 67h2v1h-2zM79 67h1v1h-1zM49 69h1v1h-1zM6 70h1v1h-1zM27 71h1v1h-1zM36 72h2v1h-2zM30 73h1v1h-1zM13 74h1v1h-1zM86 74h1v1h-1zM7 75h1v1h-1zM35 76h2v1h-2zM43 76h1v1h-1zM56 76h1v1h-1zM12 78h2v1h-2zM21 78h1v1h-1zM39 78h1v1h-1zM60 78h1v1h-1zM79 78h1v1h-1zM87 78h1v1h-1zM23 79h1v1h-1zM58 79h1v1h-1zM43 80h1v1h-1zM81 81h1v1h-1zM20 82h1v1h-1zM28 82h1v1h-1zM71 82h2v1h-2zM80 82h1v1h-1zM51 83h1v1h-1zM64 86h2v1h-2zM72 86h1v1h-1zM30 88h1v1h-1zM38 88h1v1h-1zM57 90h2v1h-2zM65 90h1v1h-1zM58 94h1v1h-1zM51 98h2v1h-2z" /><path fill="#ed3d2b" d="M46 2h1v1h-1zM44 3h1v1h-1zM59 5h1v1h-1zM39 6h1v1h-1zM43 8h1v1h-1zM33 9h1v1h-1zM28 12h1v1h-1zM36 12h2v1h-2zM71 12h1v1h-1zM71 17h1v1h-1zM73 18h1v1h-1zM82 18h1v1h-1zM75 19h1v1h-1zM78 21h1v1h-1zM17 23h1v1h-1zM7 24h1v1h-1zM94 25h1v1h-1zM12 26h1v1h-1zM80 32h1v1h-1zM22 34h1v1h-1zM16 35h1v1h-1zM75 35h1v1h-1zM19 37h1v1h-1zM28 37h1v1h-1zM69 38h1v1h-1zM33 40h1v1h-1zM62 42h1v1h-1zM71 42h1v1h-1zM95 43h1v1h-1zM32 44h1v1h-1zM59 44h1v1h-1zM67 44h1v1h-1zM15 45h2v1h-2zM17 46h1v1h-1zM82 46h1v1h-1zM45 47h2v1h-2zM60 48h1v1h-1zM22 49h2v1h-2zM58 49h2v1h-2zM24 50h1v1h-1zM73 51h1v1h-1zM28 52h1v1h-1zM51 53h1v1h-1zM23 54h1v1h-1zM35 56h1v1h-1zM32 59h1v1h-1zM7 60h1v1h-1zM9 61h1v1h-1zM55 61h2v1h-2zM19 62h1v1h-1zM54 62h1v1h-1zM12 63h1v1h-1zM60 63h1v1h-1zM58 64h1v1h-1zM18 66h1v1h-1zM29 68h1v1h-1zM51 68h2v1h-2zM50 69h1v1h-1zM7 70h1v1h-1zM66 70h1v1h-1zM90 71h1v1h-1zM19 77h1v1h-1zM88 77h2v1h-2zM14 79h1v1h-1zM40 79h1v1h-1zM50 79h1v1h-1zM82 81h1v1h-1zM29 83h2v1h-2zM52 83h1v1h-1zM78 83h1v1h-1zM49 84h1v1h-1zM36 87h2v1h-2zM71 87h1v1h-1zM33 90h1v1h-1zM45 92h1v1h-1zM46 97h1v1h-1z" /><path fill="#ee3c2b" d="M53 2h1v1h-1zM50 5h1v1h-1zM60 6h1v1h-1zM62 7h1v1h-1zM35 8h1v1h-1zM32 10h1v1h-1zM14 20h1v1h-1zM77 20h1v1h-1zM84 20h1v1h-1zM84 21h1v1h-1zM9 23h1v1h-1zM4 26h1v1h-1zM90 26h1v1h-1zM95 26h1v1h-1zM4 28h1v1h-1zM9 31h1v1h-1zM90 31h1v1h-1zM73 36h1v1h-1zM71 37h1v1h-1zM31 39h1v1h-1zM68 39h1v1h-1zM90 41h1v1h-1zM38 43h1v1h-1zM19 47h1v1h-1zM39 48h1v1h-1zM76 49h1v1h-1zM75 50h1v1h-1zM81 51h1v1h-1zM25 55h1v1h-1zM74 55h1v1h-1zM26 56h1v1h-1zM64 56h1v1h-1zM73 56h1v1h-1zM28 57h1v1h-1zM30 58h1v1h-1zM59 59h1v1h-1zM17 61h1v1h-1zM11 62h1v1h-1zM45 62h1v1h-1zM47 63h1v1h-1zM52 63h1v1h-1zM23 64h1v1h-1zM55 66h1v1h-1zM73 66h1v1h-1zM68 69h1v1h-1zM33 70h1v1h-1zM10 72h1v1h-1zM4 73h1v1h-1zM38 73h1v1h-1zM95 73h1v1h-1zM59 74h1v1h-1zM37 77h1v1h-1zM31 84h1v1h-1zM32 89h1v1h-1zM40 89h1v1h-1zM59 89h1v1h-1zM35 91h1v1h-1zM62 92h1v1h-1zM60 93h1v1h-1zM44 96h1v1h-1zM53 97h1v1h-1z" /><path fill="#ee3c2c" d="M55 3h1v1h-1zM52 6h1v1h-1zM56 8h1v1h-1zM64 8h1v1h-1zM40 10h1v1h-1zM18 18h1v1h-1zM26 18h1v1h-1zM83 19h1v1h-1zM11 22h1v1h-1zM91 26h1v1h-1zM89 27h1v1h-1zM88 32h1v1h-1zM81 36h1v1h-1zM5 40h1v1h-1zM89 42h1v1h-1zM30 43h1v1h-1zM84 45h1v1h-1zM92 45h1v1h-1zM14 49h1v1h-1zM40 49h1v1h-1zM50 49h1v1h-1zM83 50h1v1h-1zM10 57h1v1h-1zM40 59h1v1h-1zM39 63h1v1h-1zM22 64h1v1h-1zM41 64h1v1h-1zM50 64h1v1h-1zM26 66h1v1h-1zM44 66h1v1h-1zM70 68h1v1h-1zM8 71h1v1h-1zM35 71h1v1h-1zM12 73h1v1h-1zM87 73h1v1h-1zM32 74h1v1h-1zM40 74h1v1h-1zM34 75h1v1h-1zM92 75h1v1h-1zM9 76h1v1h-1zM11 77h1v1h-1zM49 79h1v1h-1zM24 80h1v1h-1zM18 81h1v1h-1zM55 81h1v1h-1zM70 83h1v1h-1zM33 85h1v1h-1zM66 85h1v1h-1zM64 91h1v1h-1zM49 94h1v1h-1zM55 96h1v1h-1z" /><path fill="#ed3c2b" d="M40 5h2v1h-2zM34 9h1v1h-1zM61 11h1v1h-1zM27 13h1v1h-1zM33 14h1v1h-1zM66 14h1v1h-1zM23 15h1v1h-1zM68 15h1v1h-1zM78 16h1v1h-1zM72 17h1v1h-1zM79 21h1v1h-1zM11 27h1v1h-1zM19 32h1v1h-1zM14 34h1v1h-1zM20 37h1v1h-1zM70 38h1v1h-1zM25 40h1v1h-1zM74 40h1v1h-1zM27 41h1v1h-1zM35 41h1v1h-1zM72 41h1v1h-1zM63 42h1v1h-1zM42 45h1v1h-1zM57 45h1v1h-1zM65 45h1v1h-1zM52 48h1v1h-1zM85 49h1v1h-1zM16 50h1v1h-1zM20 52h1v1h-1zM21 53h1v1h-1zM31 54h1v1h-1zM93 55h1v1h-1zM27 56h1v1h-1zM72 56h1v1h-1zM12 58h1v1h-1zM87 58h1v1h-1zM6 59h1v1h-1zM67 59h1v1h-1zM86 59h1v1h-1zM65 60h1v1h-1zM13 63h1v1h-1zM76 64h1v1h-1zM76 69h1v1h-1zM5 70h1v1h-1zM72 71h1v1h-1zM89 72h1v1h-1zM67 74h1v1h-1zM65 75h1v1h-1zM82 76h1v1h-1zM75 80h1v1h-1zM26 81h1v1h-1zM46 82h1v1h-1zM27 86h1v1h-1zM28 87h1v1h-1zM34 90h1v1h-1zM43 91h1v1h-1zM40 94h2v1h-2zM49 99h1v1h-1z" /></svg>