<svg xmlns="http://www.w3.org/2000/svg" viewBox="0 0 100 100" width="1em" height="1em"><path fill="#4c6bfd" d="M68 13h1v1h-1zM48 14h1v1h-1zM51 14h1v1h-1zM68 14h1v1h-1zM43 15h1v1h-1zM51 16h1v1h-1zM71 16h1v1h-1zM23 17h2v1h-2zM31 17h1v1h-1zM33 17h2v1h-2zM37 17h1v1h-1zM67 17h1v1h-1zM72 17h1v1h-1zM73 18h1v1h-1zM97 19h1v1h-1zM15 20h1v1h-1zM10 23h1v1h-1zM80 23h1v1h-1zM51 24h1v1h-1zM8 25h1v1h-1zM7 26h1v1h-1zM54 26h1v1h-1zM67 26h1v1h-1zM55 27h1v1h-1zM58 29h1v1h-1zM4 30h1v1h-1zM59 30h1v1h-1zM69 30h1v1h-1zM93 33h1v1h-1zM74 35h1v1h-1zM90 35h1v1h-1zM89 36h1v1h-1zM85 37h1v1h-1zM10 38h1v1h-1zM83 38h1v1h-1zM22 40h1v1h-1zM70 40h1v1h-1zM24 41h1v1h-1zM83 41h1v1h-1zM26 42h1v1h-1zM6 43h1v1h-1zM29 43h1v1h-1zM6 44h1v1h-1zM51 44h1v1h-1zM0 45h1v1h-1zM6 45h1v1h-1zM0 46h1v1h-1zM53 46h1v1h-1zM62 46h1v1h-1zM7 49h1v1h-1zM37 49h1v1h-1zM0 50h1v1h-1zM0 52h1v1h-1zM8 52h1v1h-1zM66 52h1v1h-1zM40 53h1v1h-1zM66 53h1v1h-1zM41 54h1v1h-1zM63 55h1v1h-1zM10 58h1v1h-1zM45 59h1v1h-1zM77 60h1v1h-1zM12 61h1v1h-1zM76 62h1v1h-1zM14 64h1v1h-1zM5 65h1v1h-1zM74 65h1v1h-1zM6 67h1v1h-1zM36 67h1v1h-1zM72 67h1v1h-1zM17 68h1v1h-1zM7 69h1v1h-1zM52 69h1v1h-1zM41 70h1v1h-1zM70 70h1v1h-1zM21 71h1v1h-1zM10 72h1v1h-1zM71 72h1v1h-1zM45 73h1v1h-1zM26 74h1v1h-1zM34 74h1v1h-1zM76 74h1v1h-1zM28 75h2v1h-2zM32 75h1v1h-1zM14 76h1v1h-1zM60 76h1v1h-1zM16 78h1v1h-1zM63 78h1v1h-1zM68 79h1v1h-1zM20 80h1v1h-1zM21 81h1v1h-1zM49 84h1v1h-1zM35 85h1v1h-1zM46 85h1v1h-1z" /><path fill="#4d6bfe" d="M69 13h1v1h-1zM69 14h2v1h-2zM45 15h8v1h-8zM68 15h3v1h-3zM42 16h9v1h-9zM68 16h3v1h-3zM39 17h11v1h-11zM68 17h4v1h-4zM21 18h29v1h-29zM67 18h6v1h-6zM18 19h31v1h-31zM67 19h7v1h-7zM98 19h1v1h-1zM16 20h33v1h-33zM67 20h9v1h-9zM97 20h2v1h-2zM14 21h35v1h-35zM67 21h11v1h-11zM96 21h3v1h-3zM13 22h37v1h-37zM67 22h12v1h-12zM94 22h5v1h-5zM11 23h39v1h-39zM67 23h13v1h-13zM88 23h11v1h-11zM10 24h41v1h-41zM68 24h12v1h-12zM85 24h14v1h-14zM9 25h44v1h-44zM68 25h13v1h-13zM84 25h15v1h-15zM8 26h46v1h-46zM68 26h13v1h-13zM82 26h16v1h-16zM7 27h48v1h-48zM68 27h30v1h-30zM7 28h50v1h-50zM69 28h28v1h-28zM6 29h52v1h-52zM69 29h28v1h-28zM5 30h54v1h-54zM70 30h26v1h-26zM5 31h55v1h-55zM71 31h24v1h-24zM4 32h57v1h-57zM72 32h23v1h-23zM4 33h58v1h-58zM73 33h20v1h-20zM3 34h60v1h-60zM74 34h18v1h-18zM3 35h61v1h-61zM75 35h15v1h-15zM2 36h63v1h-63zM75 36h13v1h-13zM2 37h64v1h-64zM75 37h9v1h-9zM2 38h8v1h-8zM15 38h52v1h-52zM75 38h8v1h-8zM1 39h5v1h-5zM20 39h48v1h-48zM75 39h8v1h-8zM1 40h5v1h-5zM23 40h47v1h-47zM74 40h9v1h-9zM1 41h5v1h-5zM26 41h27v1h-27zM57 41h26v1h-26zM1 42h5v1h-5zM28 42h24v1h-24zM59 42h24v1h-24zM1 43h5v1h-5zM30 43h21v1h-21zM60 43h23v1h-23zM1 44h5v1h-5zM31 44h20v1h-20zM62 44h21v1h-21zM1 45h5v1h-5zM33 45h21v1h-21zM62 45h21v1h-21zM1 46h6v1h-6zM34 46h19v1h-19zM55 46h1v1h-1zM63 46h19v1h-19zM1 47h6v1h-6zM35 47h17v1h-17zM55 47h2v1h-2zM64 47h18v1h-18zM1 48h6v1h-6zM37 48h15v1h-15zM55 48h2v1h-2zM65 48h17v1h-17zM1 49h6v1h-6zM38 49h14v1h-14zM55 49h2v1h-2zM65 49h17v1h-17zM1 50h6v1h-6zM39 50h18v1h-18zM66 50h16v1h-16zM1 51h7v1h-7zM40 51h17v1h-17zM66 51h15v1h-15zM1 52h7v1h-7zM40 52h17v1h-17zM67 52h14v1h-14zM1 53h7v1h-7zM41 53h17v1h-17zM67 53h14v1h-14zM1 54h8v1h-8zM42 54h17v1h-17zM67 54h13v1h-13zM2 55h7v1h-7zM43 55h17v1h-17zM65 55h15v1h-15zM2 56h7v1h-7zM44 56h35v1h-35zM2 57h8v1h-8zM44 57h35v1h-35zM3 58h7v1h-7zM45 58h33v1h-33zM3 59h8v1h-8zM46 59h32v1h-32zM3 60h8v1h-8zM46 60h31v1h-31zM4 61h8v1h-8zM47 61h30v1h-30zM4 62h9v1h-9zM48 62h28v1h-28zM5 63h8v1h-8zM48 63h28v1h-28zM5 64h9v1h-9zM49 64h26v1h-26zM6 65h9v1h-9zM50 65h24v1h-24zM6 66h10v1h-10zM51 66h22v1h-22zM7 67h9v1h-9zM33 67h3v1h-3zM51 67h21v1h-21zM8 68h9v1h-9zM33 68h5v1h-5zM52 68h19v1h-19zM8 69h10v1h-10zM33 69h7v1h-7zM53 69h18v1h-18zM9 70h11v1h-11zM34 70h7v1h-7zM54 70h16v1h-16zM10 71h11v1h-11zM34 71h9v1h-9zM55 71h14v1h-14zM11 72h11v1h-11zM35 72h9v1h-9zM56 72h14v1h-14zM12 73h12v1h-12zM35 73h10v1h-10zM57 73h16v1h-16zM13 74h12v1h-12zM35 74h12v1h-12zM58 74h17v1h-17zM14 75h14v1h-14zM34 75h14v1h-14zM59 75h18v1h-18zM15 76h34v1h-34zM61 76h18v1h-18zM16 77h36v1h-36zM61 77h17v1h-17zM18 78h43v1h-43zM65 78h12v1h-12zM19 79h41v1h-41zM21 80h37v1h-37zM23 81h33v1h-33zM25 82h30v1h-30zM27 83h25v1h-25zM30 84h19v1h-19zM37 85h4v1h-4z" /><path fill="#4d6afd" d="M70 13h1v1h-1zM50 14h1v1h-1zM25 17h1v1h-1zM27 17h1v1h-1zM50 17h1v1h-1zM14 20h1v1h-1zM95 21h1v1h-1zM99 21h1v1h-1zM79 22h1v1h-1zM99 22h1v1h-1zM50 23h1v1h-1zM86 23h1v1h-1zM98 26h1v1h-1zM98 27h1v1h-1zM57 28h1v1h-1zM97 28h1v1h-1zM5 29h1v1h-1zM97 29h1v1h-1zM96 30h1v1h-1zM3 32h1v1h-1zM61 32h1v1h-1zM71 32h1v1h-1zM72 33h1v1h-1zM73 34h1v1h-1zM2 35h1v1h-1zM65 36h1v1h-1zM1 38h1v1h-1zM12 38h1v1h-1zM67 38h1v1h-1zM18 39h2v1h-2zM74 39h1v1h-1zM21 40h1v1h-1zM53 41h3v1h-3zM6 42h1v1h-1zM0 43h1v1h-1zM32 45h1v1h-1zM34 47h1v1h-1zM52 47h1v1h-1zM0 48h1v1h-1zM7 48h1v1h-1zM52 48h1v1h-1zM82 48h1v1h-1zM53 49h1v1h-1zM38 50h1v1h-1zM65 50h1v1h-1zM0 51h1v1h-1zM57 52h1v1h-1zM59 54h1v1h-1zM66 54h1v1h-1zM1 55h1v1h-1zM61 55h1v1h-1zM79 57h1v1h-1zM44 58h1v1h-1zM11 60h1v1h-1zM45 60h1v1h-1zM77 61h1v1h-1zM3 62h1v1h-1zM4 64h1v1h-1zM75 64h1v1h-1zM73 66h1v1h-1zM37 67h1v1h-1zM50 67h1v1h-1zM32 68h1v1h-1zM51 68h1v1h-1zM53 70h1v1h-1zM43 71h1v1h-1zM70 72h1v1h-1zM11 73h1v1h-1zM57 74h1v1h-1zM48 75h1v1h-1zM78 75h1v1h-1zM50 76h1v1h-1zM59 76h1v1h-1zM52 77h1v1h-1zM67 79h1v1h-1zM69 79h1v1h-1zM58 80h1v1h-1zM55 82h1v1h-1zM29 84h1v1h-1zM50 84h1v1h-1z" /><path fill="#4c6afd" d="M49 14h1v1h-1zM71 15h1v1h-1zM41 16h1v1h-1zM67 16h1v1h-1zM32 17h1v1h-1zM38 17h1v1h-1zM20 18h1v1h-1zM74 19h1v1h-1zM49 20h1v1h-1zM76 20h1v1h-1zM96 20h1v1h-1zM99 20h1v1h-1zM49 21h1v1h-1zM78 21h1v1h-1zM11 22h1v1h-1zM99 23h1v1h-1zM80 24h1v1h-1zM53 25h1v1h-1zM83 25h1v1h-1zM6 27h1v1h-1zM68 28h1v1h-1zM4 31h1v1h-1zM60 31h1v1h-1zM70 31h1v1h-1zM95 31h1v1h-1zM62 33h1v1h-1zM63 34h1v1h-1zM92 34h1v1h-1zM64 35h1v1h-1zM91 35h1v1h-1zM11 38h1v1h-1zM13 38h2v1h-2zM69 39h1v1h-1zM83 39h1v1h-1zM83 40h1v1h-1zM56 41h1v1h-1zM27 42h1v1h-1zM52 42h1v1h-1zM83 42h1v1h-1zM28 43h1v1h-1zM59 43h1v1h-1zM83 43h1v1h-1zM0 44h1v1h-1zM54 46h1v1h-1zM63 47h1v1h-1zM82 47h1v1h-1zM54 49h1v1h-1zM7 50h1v1h-1zM81 51h1v1h-1zM81 52h1v1h-1zM8 53h1v1h-1zM9 55h1v1h-1zM42 55h1v1h-1zM60 55h1v1h-1zM62 55h1v1h-1zM64 55h1v1h-1zM43 56h1v1h-1zM79 56h1v1h-1zM10 57h1v1h-1zM43 57h1v1h-1zM3 61h1v1h-1zM47 62h1v1h-1zM13 63h1v1h-1zM49 65h1v1h-1zM34 66h2v1h-2zM50 66h1v1h-1zM40 69h1v1h-1zM8 70h1v1h-1zM20 70h1v1h-1zM54 71h1v1h-1zM22 72h1v1h-1zM34 72h1v1h-1zM24 73h1v1h-1zM12 74h1v1h-1zM75 74h1v1h-1zM13 75h1v1h-1zM30 75h2v1h-2zM77 75h1v1h-1zM49 76h1v1h-1zM15 77h1v1h-1zM53 77h1v1h-1zM17 78h1v1h-1zM77 78h1v1h-1zM60 79h1v1h-1zM72 79h1v1h-1zM74 79h1v1h-1zM19 80h1v1h-1zM23 82h1v1h-1zM33 85h2v1h-2zM36 85h1v1h-1zM42 85h1v1h-1zM44 85h1v1h-1z" /><path fill="#4d6bfd" d="M44 15h1v1h-1zM40 16h1v1h-1zM26 17h1v1h-1zM28 17h3v1h-3zM19 18h1v1h-1zM16 19h2v1h-2zM49 19h1v1h-1zM99 19h1v1h-1zM13 21h1v1h-1zM12 22h1v1h-1zM93 22h1v1h-1zM87 23h1v1h-1zM9 24h1v1h-1zM67 24h1v1h-1zM84 24h1v1h-1zM67 25h1v1h-1zM81 26h1v1h-1zM6 28h1v1h-1zM3 33h1v1h-1zM2 34h1v1h-1zM88 36h1v1h-1zM1 37h1v1h-1zM66 37h1v1h-1zM84 37h1v1h-1zM74 38h1v1h-1zM6 39h2v1h-2zM68 39h1v1h-1zM6 40h1v1h-1zM71 40h1v1h-1zM0 41h1v1h-1zM6 41h1v1h-1zM25 41h1v1h-1zM0 42h1v1h-1zM58 42h1v1h-1zM51 43h1v1h-1zM30 44h1v1h-1zM61 44h1v1h-1zM54 45h2v1h-2zM33 46h1v1h-1zM56 46h1v1h-1zM82 46h1v1h-1zM0 47h1v1h-1zM36 48h1v1h-1zM64 48h1v1h-1zM0 49h1v1h-1zM52 49h1v1h-1zM39 51h1v1h-1zM58 53h1v1h-1zM80 54h1v1h-1zM1 56h1v1h-1zM9 56h1v1h-1zM2 58h1v1h-1zM78 58h1v1h-1zM2 59h1v1h-1zM11 59h1v1h-1zM78 59h1v1h-1zM46 61h1v1h-1zM4 63h1v1h-1zM48 64h1v1h-1zM15 65h1v1h-1zM5 66h1v1h-1zM33 66h1v1h-1zM16 67h1v1h-1zM32 67h1v1h-1zM7 68h1v1h-1zM38 68h1v1h-1zM71 68h1v1h-1zM18 69h1v1h-1zM33 70h1v1h-1zM9 71h1v1h-1zM69 71h1v1h-1zM44 72h1v1h-1zM55 72h1v1h-1zM56 73h1v1h-1zM73 73h1v1h-1zM25 74h1v1h-1zM47 74h1v1h-1zM33 75h1v1h-1zM58 75h1v1h-1zM54 77h1v1h-1zM60 77h1v1h-1zM78 77h1v1h-1zM61 78h1v1h-1zM64 78h1v1h-1zM18 79h1v1h-1zM70 79h2v1h-2zM73 79h1v1h-1zM75 79h1v1h-1zM22 81h1v1h-1zM56 81h2v1h-2zM24 82h1v1h-1zM25 83h2v1h-2zM52 83h2v1h-2zM28 84h1v1h-1zM41 85h1v1h-1zM43 85h1v1h-1zM45 85h1v1h-1z" /></svg>