<svg xmlns="http://www.w3.org/2000/svg" viewBox="0 0 100 100" width="1em" height="1em"><path fill="#293175" d="M47 0h1v1h-1zM52 0h1v1h-1zM54 1h1v1h-1zM54 5h1v1h-1zM41 6h1v1h-1zM59 9h1v1h-1zM44 11h1v1h-1zM13 13h1v1h-1zM41 13h1v1h-1zM58 13h1v1h-1zM17 14h1v1h-1zM79 16h1v1h-1zM89 17h1v1h-1zM94 18h1v1h-1zM91 19h1v1h-1zM77 20h1v1h-1zM80 22h1v1h-1zM92 24h1v1h-1zM22 25h1v1h-1zM91 26h1v1h-1zM21 27h1v1h-1zM51 27h1v1h-1zM78 27h1v1h-1zM83 28h1v1h-1zM44 29h1v1h-1zM56 29h1v1h-1zM55 34h1v1h-1zM59 36h1v1h-1zM55 39h1v1h-1zM13 40h1v1h-1zM41 40h1v1h-1zM54 40h1v1h-1zM46 41h1v1h-1zM90 41h1v1h-1zM51 42h1v1h-1zM56 43h1v1h-1zM6 44h1v1h-1zM88 44h1v1h-1zM81 46h1v1h-1zM8 52h1v1h-1zM95 52h1v1h-1zM85 55h1v1h-1zM17 58h1v1h-1zM86 59h1v1h-1zM44 60h1v1h-1zM44 61h1v1h-1zM59 63h1v1h-1zM54 67h1v1h-1zM46 68h1v1h-1zM53 68h1v1h-1zM82 68h1v1h-1zM19 69h1v1h-1zM79 70h1v1h-1zM15 71h1v1h-1zM93 71h1v1h-1zM19 76h1v1h-1zM92 77h1v1h-1zM22 79h1v1h-1zM18 80h1v1h-1zM5 81h1v1h-1zM47 81h1v1h-1zM94 81h1v1h-1zM6 82h1v1h-1zM56 83h1v1h-1zM16 85h1v1h-1zM46 85h1v1h-1zM53 85h1v1h-1zM58 86h1v1h-1zM55 87h1v1h-1zM59 90h1v1h-1zM41 93h1v1h-1zM42 95h1v1h-1z" /><path fill="#293274" d="M48 0h1v1h-1zM51 0h1v1h-1zM49 3h1v1h-1zM42 4h1v1h-1zM57 4h1v1h-1zM45 5h1v1h-1zM59 10h1v1h-1zM41 12h1v1h-1zM83 14h1v1h-1zM49 15h1v1h-1zM51 15h1v1h-1zM56 16h1v1h-1zM48 18h1v1h-1zM82 18h1v1h-1zM95 20h1v1h-1zM4 21h1v1h-1zM95 24h1v1h-1zM22 26h1v1h-1zM52 27h1v1h-1zM84 28h1v1h-1zM93 28h1v1h-1zM7 29h1v1h-1zM17 31h1v1h-1zM90 31h1v1h-1zM13 32h1v1h-1zM86 32h1v1h-1zM86 40h1v1h-1zM9 41h1v1h-1zM42 41h1v1h-1zM19 42h1v1h-1zM91 42h1v1h-1zM79 43h1v1h-1zM54 44h1v1h-1zM84 44h1v1h-1zM21 45h1v1h-1zM80 48h1v1h-1zM5 54h1v1h-1zM16 55h1v1h-1zM20 56h1v1h-1zM10 58h1v1h-1zM53 58h1v1h-1zM82 58h1v1h-1zM44 65h1v1h-1zM55 65h1v1h-1zM45 67h1v1h-1zM90 68h1v1h-1zM8 69h1v1h-1zM51 69h1v1h-1zM11 71h1v1h-1zM89 71h1v1h-1zM49 72h1v1h-1zM51 72h1v1h-1zM18 73h1v1h-1zM8 74h1v1h-1zM77 74h1v1h-1zM95 74h1v1h-1zM19 75h1v1h-1zM9 81h1v1h-1zM51 81h1v1h-1zM15 82h1v1h-1zM7 83h1v1h-1zM90 85h1v1h-1zM41 87h1v1h-1zM59 89h1v1h-1zM44 93h1v1h-1zM54 94h1v1h-1zM58 94h1v1h-1zM57 95h1v1h-1z" /><path fill="#2a3174" d="M49 0h1v1h-1zM44 2h1v1h-1zM51 3h1v1h-1zM55 6h1v1h-1zM54 13h1v1h-1zM10 14h1v1h-1zM89 14h1v1h-1zM19 15h1v1h-1zM91 15h1v1h-1zM84 17h1v1h-1zM51 18h1v1h-1zM90 18h1v1h-1zM22 19h1v1h-1zM81 19h1v1h-1zM92 21h1v1h-1zM4 22h1v1h-1zM19 23h1v1h-1zM4 24h1v1h-1zM18 26h1v1h-1zM90 27h1v1h-1zM88 28h1v1h-1zM41 33h1v1h-1zM55 33h1v1h-1zM55 38h1v1h-1zM41 39h1v1h-1zM44 39h1v1h-1zM17 41h1v1h-1zM89 41h1v1h-1zM50 42h1v1h-1zM16 44h1v1h-1zM83 44h1v1h-1zM89 44h1v1h-1zM52 45h1v1h-1zM82 45h1v1h-1zM90 45h1v1h-1zM77 47h1v1h-1zM4 48h1v1h-1zM22 53h1v1h-1zM9 54h1v1h-1zM47 54h2v1h-2zM52 54h1v1h-1zM90 54h1v1h-1zM6 55h1v1h-1zM11 55h1v1h-1zM84 55h1v1h-1zM93 55h1v1h-1zM7 56h1v1h-1zM50 57h1v1h-1zM90 58h1v1h-1zM13 59h1v1h-1zM13 67h1v1h-1zM41 67h1v1h-1zM9 68h1v1h-1zM42 68h1v1h-1zM91 69h1v1h-1zM16 71h1v1h-1zM21 71h1v1h-1zM5 72h1v1h-1zM9 72h1v1h-1zM17 72h1v1h-1zM92 76h1v1h-1zM4 77h1v1h-1zM80 78h1v1h-1zM95 78h1v1h-1zM77 79h1v1h-1zM16 82h1v1h-1zM89 85h1v1h-1zM41 86h1v1h-1zM59 91h1v1h-1zM44 92h1v1h-1zM55 93h1v1h-1zM50 96h1v1h-1zM51 99h1v1h-1z" /><path fill="#293174" d="M50 0h1v1h-1zM45 1h1v1h-1zM41 5h1v1h-1zM55 7h1v1h-1zM44 12h1v1h-1zM81 15h1v1h-1zM16 17h1v1h-1zM83 17h1v1h-1zM5 18h1v1h-1zM19 21h1v1h-1zM4 23h1v1h-1zM8 25h1v1h-1zM81 26h1v1h-1zM17 27h1v1h-1zM49 27h1v1h-1zM82 27h1v1h-1zM11 28h1v1h-1zM49 30h1v1h-1zM46 31h1v1h-1zM57 31h1v1h-1zM14 32h1v1h-1zM44 33h1v1h-1zM59 35h1v1h-1zM59 37h1v1h-1zM8 42h1v1h-1zM44 43h1v1h-1zM11 44h1v1h-1zM21 44h1v1h-1zM4 49h1v1h-1zM80 49h1v1h-1zM81 53h1v1h-1zM44 56h1v1h-1zM81 57h1v1h-1zM83 58h1v1h-1zM89 58h1v1h-1zM58 59h1v1h-1zM59 62h1v1h-1zM59 64h1v1h-1zM85 67h1v1h-1zM87 67h1v1h-1zM57 68h1v1h-1zM49 69h2v1h-2zM7 70h1v1h-1zM54 71h1v1h-1zM88 71h1v1h-1zM21 72h1v1h-1zM50 72h1v1h-1zM81 73h1v1h-1zM4 76h1v1h-1zM80 76h1v1h-1zM95 77h1v1h-1zM77 78h1v1h-1zM92 78h1v1h-1zM8 79h1v1h-1zM52 81h1v1h-1zM82 81h1v1h-1zM90 81h1v1h-1zM92 83h1v1h-1zM8 84h1v1h-1zM19 84h1v1h-1zM48 84h1v1h-1zM82 85h2v1h-2zM45 86h1v1h-1zM55 92h1v1h-1zM50 99h1v1h-1z" /><path fill="#2a3275" d="M46 1h8v1h-8zM45 2h10v1h-10zM44 3h5v1h-5zM52 3h5v1h-5zM43 4h3v1h-3zM53 4h4v1h-4zM42 5h3v1h-3zM55 5h3v1h-3zM42 6h2v1h-2zM56 6h2v1h-2zM41 7h3v1h-3zM56 7h3v1h-3zM41 8h3v1h-3zM56 8h4v1h-4zM41 9h3v1h-3zM56 9h3v1h-3zM41 10h3v1h-3zM56 10h3v1h-3zM41 11h3v1h-3zM56 11h3v1h-3zM42 12h2v1h-2zM56 12h3v1h-3zM42 13h3v1h-3zM55 13h3v1h-3zM11 14h5v1h-5zM43 14h3v1h-3zM53 14h5v1h-5zM84 14h5v1h-5zM8 15h11v1h-11zM43 15h5v1h-5zM52 15h5v1h-5zM82 15h9v1h-9zM8 16h12v1h-12zM45 16h11v1h-11zM80 16h12v1h-12zM7 17h5v1h-5zM17 17h4v1h-4zM46 17h8v1h-8zM79 17h4v1h-4zM88 17h1v1h-1zM90 17h3v1h-3zM6 18h4v1h-4zM18 18h4v1h-4zM49 18h2v1h-2zM52 18h1v1h-1zM79 18h3v1h-3zM91 18h3v1h-3zM6 19h3v1h-3zM19 19h3v1h-3zM78 19h3v1h-3zM92 19h3v1h-3zM5 20h4v1h-4zM19 20h3v1h-3zM78 20h3v1h-3zM92 20h3v1h-3zM5 21h3v1h-3zM20 21h3v1h-3zM78 21h2v1h-2zM93 21h2v1h-2zM5 22h3v1h-3zM19 22h4v1h-4zM77 22h3v1h-3zM93 22h2v1h-2zM5 23h3v1h-3zM20 23h3v1h-3zM77 23h3v1h-3zM92 23h3v1h-3zM5 24h3v1h-3zM20 24h3v1h-3zM78 24h2v1h-2zM93 24h2v1h-2zM5 25h3v1h-3zM19 25h3v1h-3zM78 25h3v1h-3zM92 25h3v1h-3zM5 26h4v1h-4zM19 26h3v1h-3zM78 26h3v1h-3zM92 26h3v1h-3zM6 27h3v1h-3zM18 27h3v1h-3zM48 27h1v1h-1zM50 27h1v1h-1zM79 27h3v1h-3zM91 27h3v1h-3zM7 28h4v1h-4zM15 28h1v1h-1zM17 28h5v1h-5zM46 28h9v1h-9zM79 28h4v1h-4zM89 28h4v1h-4zM8 29h12v1h-12zM45 29h11v1h-11zM80 29h13v1h-13zM9 30h10v1h-10zM44 30h4v1h-4zM52 30h5v1h-5zM82 30h9v1h-9zM11 31h6v1h-6zM43 31h3v1h-3zM54 31h3v1h-3zM82 31h1v1h-1zM84 31h6v1h-6zM42 32h3v1h-3zM55 32h3v1h-3zM42 33h2v1h-2zM56 33h3v1h-3zM41 34h4v1h-4zM56 34h3v1h-3zM41 35h3v1h-3zM56 35h3v1h-3zM41 36h3v1h-3zM56 36h3v1h-3zM41 37h3v1h-3zM56 37h3v1h-3zM41 38h3v1h-3zM56 38h3v1h-3zM42 39h2v1h-2zM56 39h3v1h-3zM42 40h3v1h-3zM55 40h4v1h-4zM11 41h6v1h-6zM43 41h3v1h-3zM54 41h3v1h-3zM84 41h5v1h-5zM9 42h10v1h-10zM43 42h5v1h-5zM52 42h5v1h-5zM82 42h9v1h-9zM7 43h13v1h-13zM45 43h11v1h-11zM80 43h13v1h-13zM7 44h4v1h-4zM17 44h4v1h-4zM46 44h8v1h-8zM79 44h4v1h-4zM90 44h4v1h-4zM6 45h3v1h-3zM19 45h2v1h-2zM49 45h2v1h-2zM79 45h3v1h-3zM91 45h3v1h-3zM5 46h4v1h-4zM19 46h3v1h-3zM78 46h3v1h-3zM91 46h4v1h-4zM5 47h3v1h-3zM20 47h2v1h-2zM78 47h3v1h-3zM92 47h3v1h-3zM5 48h3v1h-3zM20 48h3v1h-3zM78 48h2v1h-2zM93 48h2v1h-2zM5 49h3v1h-3zM20 49h3v1h-3zM77 49h3v1h-3zM93 49h2v1h-2zM5 50h3v1h-3zM20 50h3v1h-3zM77 50h3v1h-3zM92 50h3v1h-3zM5 51h3v1h-3zM20 51h3v1h-3zM78 51h3v1h-3zM93 51h2v1h-2zM5 52h3v1h-3zM20 52h2v1h-2zM77 52h4v1h-4zM92 52h3v1h-3zM6 53h3v1h-3zM19 53h3v1h-3zM78 53h3v1h-3zM92 53h3v1h-3zM6 54h3v1h-3zM19 54h3v1h-3zM49 54h2v1h-2zM79 54h4v1h-4zM91 54h4v1h-4zM7 55h4v1h-4zM17 55h4v1h-4zM46 55h8v1h-8zM79 55h5v1h-5zM89 55h4v1h-4zM8 56h12v1h-12zM45 56h11v1h-11zM80 56h12v1h-12zM9 57h10v1h-10zM43 57h5v1h-5zM52 57h5v1h-5zM82 57h9v1h-9zM9 58h1v1h-1zM11 58h5v1h-5zM43 58h4v1h-4zM54 58h3v1h-3zM84 58h5v1h-5zM42 59h3v1h-3zM54 59h4v1h-4zM42 60h2v1h-2zM56 60h3v1h-3zM41 61h3v1h-3zM56 61h3v1h-3zM41 62h3v1h-3zM56 62h3v1h-3zM41 63h3v1h-3zM56 63h3v1h-3zM41 64h3v1h-3zM56 64h3v1h-3zM41 65h3v1h-3zM56 65h3v1h-3zM42 66h3v1h-3zM56 66h2v1h-2zM42 67h3v1h-3zM55 67h3v1h-3zM10 68h7v1h-7zM43 68h3v1h-3zM54 68h3v1h-3zM83 68h6v1h-6zM9 69h10v1h-10zM44 69h4v1h-4zM52 69h5v1h-5zM81 69h10v1h-10zM8 70h12v1h-12zM44 70h12v1h-12zM80 70h13v1h-13zM7 71h4v1h-4zM17 71h4v1h-4zM46 71h8v1h-8zM79 71h4v1h-4zM90 71h3v1h-3zM6 72h3v1h-3zM18 72h3v1h-3zM79 72h3v1h-3zM91 72h3v1h-3zM5 73h4v1h-4zM19 73h4v1h-4zM78 73h3v1h-3zM91 73h4v1h-4zM5 74h3v1h-3zM19 74h3v1h-3zM78 74h3v1h-3zM92 74h3v1h-3zM4 75h4v1h-4zM20 75h3v1h-3zM78 75h2v1h-2zM93 75h2v1h-2zM5 76h3v1h-3zM20 76h3v1h-3zM77 76h3v1h-3zM93 76h2v1h-2zM5 77h3v1h-3zM20 77h3v1h-3zM77 77h3v1h-3zM93 77h2v1h-2zM5 78h3v1h-3zM20 78h3v1h-3zM78 78h2v1h-2zM93 78h2v1h-2zM5 79h3v1h-3zM19 79h3v1h-3zM78 79h3v1h-3zM92 79h3v1h-3zM6 80h3v1h-3zM19 80h3v1h-3zM78 80h3v1h-3zM92 80h3v1h-3zM6 81h3v1h-3zM18 81h3v1h-3zM49 81h2v1h-2zM79 81h3v1h-3zM91 81h3v1h-3zM7 82h5v1h-5zM17 82h4v1h-4zM45 82h9v1h-9zM79 82h4v1h-4zM90 82h3v1h-3zM8 83h13v1h-13zM45 83h11v1h-11zM80 83h12v1h-12zM9 84h9v1h-9zM43 84h5v1h-5zM52 84h5v1h-5zM81 84h10v1h-10zM11 85h5v1h-5zM17 85h1v1h-1zM43 85h3v1h-3zM54 85h4v1h-4zM84 85h5v1h-5zM42 86h3v1h-3zM54 86h4v1h-4zM42 87h3v1h-3zM56 87h3v1h-3zM41 88h4v1h-4zM56 88h3v1h-3zM41 89h3v1h-3zM56 89h3v1h-3zM41 90h3v1h-3zM56 90h3v1h-3zM41 91h3v1h-3zM56 91h3v1h-3zM41 92h3v1h-3zM56 92h3v1h-3zM42 93h2v1h-2zM56 93h2v1h-2zM42 94h4v1h-4zM55 94h3v1h-3zM43 95h3v1h-3zM53 95h4v1h-4zM44 96h4v1h-4zM52 96h5v1h-5zM45 97h10v1h-10zM45 98h9v1h-9z" /><path fill="#2a3274" d="M55 2h1v1h-1zM44 6h1v1h-1zM58 6h1v1h-1zM86 13h1v1h-1zM16 14h1v1h-1zM46 14h1v1h-1zM48 15h1v1h-1zM20 16h1v1h-1zM44 16h1v1h-1zM6 17h1v1h-1zM15 17h1v1h-1zM45 17h1v1h-1zM54 17h1v1h-1zM5 19h1v1h-1zM18 19h1v1h-1zM22 20h1v1h-1zM80 21h1v1h-1zM92 22h1v1h-1zM95 23h1v1h-1zM19 24h1v1h-1zM77 24h1v1h-1zM95 25h1v1h-1zM47 27h1v1h-1zM8 30h1v1h-1zM43 30h1v1h-1zM50 30h1v1h-1zM81 30h1v1h-1zM83 31h1v1h-1zM54 32h1v1h-1zM44 38h1v1h-1zM49 42h1v1h-1zM81 42h1v1h-1zM5 45h1v1h-1zM22 46h1v1h-1zM95 49h1v1h-1zM19 52h1v1h-1zM22 52h1v1h-1zM5 53h1v1h-1zM78 54h1v1h-1zM45 55h1v1h-1zM92 56h1v1h-1zM8 57h1v1h-1zM48 57h2v1h-2zM51 57h1v1h-1zM16 58h1v1h-1zM57 58h1v1h-1zM55 60h1v1h-1zM58 66h1v1h-1zM43 69h1v1h-1zM80 69h1v1h-1zM47 72h2v1h-2zM77 75h1v1h-1zM19 77h1v1h-1zM81 80h1v1h-1zM84 82h1v1h-1zM89 82h1v1h-1zM44 83h1v1h-1zM18 84h1v1h-1zM10 85h1v1h-1zM58 93h1v1h-1zM48 99h1v1h-1zM52 99h1v1h-1z" /><path fill="#2a3175" d="M43 3h1v1h-1zM58 5h1v1h-1zM42 14h1v1h-1zM82 14h1v1h-1zM7 16h1v1h-1zM92 16h1v1h-1zM93 17h1v1h-1zM77 21h1v1h-1zM95 21h1v1h-1zM80 23h1v1h-1zM77 25h1v1h-1zM5 27h1v1h-1zM45 28h1v1h-1zM19 30h1v1h-1zM51 30h1v1h-1zM42 31h1v1h-1zM45 32h1v1h-1zM58 32h1v1h-1zM10 41h1v1h-1zM57 41h1v1h-1zM83 41h1v1h-1zM20 43h1v1h-1zM9 45h1v1h-1zM18 45h1v1h-1zM47 45h2v1h-2zM51 45h1v1h-1zM78 45h1v1h-1zM94 45h1v1h-1zM19 47h1v1h-1zM22 47h1v1h-1zM95 47h1v1h-1zM77 48h1v1h-1zM92 48h1v1h-1zM92 49h1v1h-1zM4 50h1v1h-1zM80 50h1v1h-1zM4 51h1v1h-1zM77 51h1v1h-1zM92 51h1v1h-1zM95 51h1v1h-1zM91 53h1v1h-1zM18 54h1v1h-1zM51 54h1v1h-1zM54 55h1v1h-1zM87 55h2v1h-2zM56 56h1v1h-1zM79 56h1v1h-1zM91 57h1v1h-1zM41 59h1v1h-1zM41 60h1v1h-1zM14 67h1v1h-1zM17 68h1v1h-1zM89 68h1v1h-1zM6 71h1v1h-1zM45 71h1v1h-1zM83 71h1v1h-1zM82 72h1v1h-1zM94 72h1v1h-1zM95 76h1v1h-1zM80 77h1v1h-1zM95 79h1v1h-1zM5 80h1v1h-1zM22 80h1v1h-1zM17 81h1v1h-1zM21 81h1v1h-1zM48 81h1v1h-1zM78 81h1v1h-1zM54 82h1v1h-1zM83 82h1v1h-1zM88 82h1v1h-1zM50 84h1v1h-1zM91 84h1v1h-1zM42 85h1v1h-1zM41 94h1v1h-1zM46 95h1v1h-1zM43 96h1v1h-1zM44 97h1v1h-1zM55 97h1v1h-1zM49 99h1v1h-1z" /><path fill="#293275" d="M50 3h1v1h-1zM46 4h1v1h-1zM44 7h1v1h-1zM55 12h1v1h-1zM45 13h1v1h-1zM90 14h1v1h-1zM50 15h1v1h-1zM17 18h1v1h-1zM47 18h1v1h-1zM78 18h1v1h-1zM95 22h1v1h-1zM80 24h1v1h-1zM9 27h1v1h-1zM94 27h1v1h-1zM6 28h1v1h-1zM16 28h1v1h-1zM20 29h1v1h-1zM79 29h1v1h-1zM48 30h1v1h-1zM91 30h1v1h-1zM9 31h2v1h-2zM53 31h1v1h-1zM41 32h1v1h-1zM45 40h1v1h-1zM53 41h1v1h-1zM82 41h1v1h-1zM48 42h1v1h-1zM45 44h1v1h-1zM8 47h1v1h-1zM95 48h1v1h-1zM95 50h1v1h-1zM19 57h1v1h-1zM42 58h1v1h-1zM45 59h1v1h-1zM41 66h1v1h-1zM55 66h1v1h-1zM58 67h1v1h-1zM86 67h1v1h-1zM48 69h1v1h-1zM20 70h1v1h-1zM52 72h1v1h-1zM78 72h1v1h-1zM90 72h1v1h-1zM22 74h1v1h-1zM80 75h1v1h-1zM92 75h1v1h-1zM95 75h1v1h-1zM4 78h1v1h-1zM19 78h1v1h-1zM91 80h1v1h-1zM93 82h1v1h-1zM49 84h1v1h-1zM51 84h1v1h-1zM48 96h2v1h-2zM51 96h1v1h-1zM54 98h1v1h-1zM47 99h1v1h-1z" /><path fill="#5698da" d="M34 12h2v1h-2zM36 13h1v1h-1zM29 14h1v1h-1zM67 19h2v1h-2zM27 20h1v1h-1zM69 26h1v1h-1zM73 27h1v1h-1zM35 28h1v1h-1zM37 30h1v1h-1zM68 32h1v1h-1zM68 40h1v1h-1zM62 41h1v1h-1zM72 41h1v1h-1zM26 44h1v1h-1zM35 45h1v1h-1zM34 46h1v1h-1zM30 47h1v1h-1zM29 52h1v1h-1zM67 53h2v1h-2zM64 54h1v1h-1zM29 58h1v1h-1zM32 67h1v1h-1zM62 68h1v1h-1zM71 73h1v1h-1zM27 74h1v1h-1zM26 81h1v1h-1zM37 86h1v1h-1zM65 88h2v1h-2z" /><path fill="#5699da" d="M65 12h1v1h-1zM67 13h1v1h-1zM73 16h1v1h-1zM28 20h1v1h-1zM26 26h1v1h-1zM66 27h1v1h-1zM64 28h1v1h-1zM62 31h1v1h-1zM30 32h1v1h-1zM37 32h1v1h-1zM67 33h1v1h-1zM66 39h1v1h-1zM33 40h1v1h-1zM36 40h1v1h-1zM31 41h1v1h-1zM62 42h1v1h-1zM26 43h1v1h-1zM69 46h1v1h-1zM28 48h1v1h-1zM73 53h1v1h-1zM26 56h1v1h-1zM37 58h1v1h-1zM65 65h1v1h-1zM34 66h1v1h-1zM37 67h1v1h-1zM27 69h1v1h-1zM63 70h1v1h-1zM34 72h1v1h-1zM31 73h1v1h-1zM30 87h1v1h-1z" /><path fill="#5598db" d="M31 13h1v1h-1zM68 13h1v1h-1zM32 19h1v1h-1zM69 20h1v1h-1zM67 39h1v1h-1zM30 41h1v1h-1zM36 45h1v1h-1zM68 46h1v1h-1zM69 52h1v1h-1zM72 52h1v1h-1zM73 56h1v1h-1zM31 59h1v1h-1zM64 60h1v1h-1zM70 67h1v1h-1zM26 70h1v1h-1zM68 72h1v1h-1zM66 82h1v1h-1zM36 83h1v1h-1zM37 84h1v1h-1zM62 86h1v1h-1zM35 88h1v1h-1z" /><path fill="#5698db" d="M32 13h1v1h-1zM63 13h1v1h-1zM72 15h1v1h-1zM36 17h1v1h-1zM65 18h1v1h-1zM70 20h1v1h-1zM30 26h2v1h-2zM71 31h1v1h-1zM33 33h1v1h-1zM71 41h1v1h-1zM37 43h1v1h-1zM62 43h1v1h-1zM33 46h1v1h-1zM26 53h1v1h-1zM65 54h1v1h-1zM62 57h1v1h-1zM72 57h1v1h-1zM32 59h1v1h-1zM36 59h1v1h-1zM34 60h1v1h-1zM65 60h1v1h-1zM64 65h1v1h-1zM67 72h1v1h-1zM70 80h1v1h-1zM69 87h1v1h-1z" /><path fill="#5699db" d="M33 13h3v1h-3zM64 13h3v1h-3zM30 14h8v1h-8zM63 14h8v1h-8zM28 15h10v1h-10zM63 15h9v1h-9zM27 16h10v1h-10zM62 16h11v1h-11zM26 17h10v1h-10zM64 17h10v1h-10zM26 18h8v1h-8zM35 18h1v1h-1zM64 18h1v1h-1zM66 18h8v1h-8zM27 19h4v1h-4zM69 19h5v1h-5zM29 20h2v1h-2zM27 26h3v1h-3zM70 26h2v1h-2zM26 27h7v1h-7zM67 27h6v1h-6zM25 28h10v1h-10zM65 28h9v1h-9zM26 29h11v1h-11zM63 29h11v1h-11zM26 30h11v1h-11zM62 30h11v1h-11zM27 31h1v1h-1zM29 31h9v1h-9zM63 31h8v1h-8zM72 31h1v1h-1zM31 32h6v1h-6zM62 32h6v1h-6zM34 33h2v1h-2zM64 33h2v1h-2zM64 39h2v1h-2zM63 40h5v1h-5zM32 41h6v1h-6zM63 41h8v1h-8zM28 42h9v1h-9zM63 42h10v1h-10zM27 43h10v1h-10zM63 43h11v1h-11zM27 44h11v1h-11zM65 44h9v1h-9zM26 45h9v1h-9zM66 45h8v1h-8zM27 46h6v1h-6zM70 46h4v1h-4zM27 47h3v1h-3zM30 52h1v1h-1zM27 53h4v1h-4zM32 53h1v1h-1zM69 53h4v1h-4zM26 54h8v1h-8zM35 54h1v1h-1zM66 54h8v1h-8zM26 55h10v1h-10zM64 55h10v1h-10zM27 56h10v1h-10zM63 56h10v1h-10zM27 57h10v1h-10zM63 57h9v1h-9zM30 58h7v1h-7zM63 58h7v1h-7zM33 59h3v1h-3zM63 59h4v1h-4zM68 59h1v1h-1zM63 66h4v1h-4zM31 67h1v1h-1zM33 67h4v1h-4zM63 67h7v1h-7zM28 68h9v1h-9zM63 68h9v1h-9zM28 69h10v1h-10zM62 69h12v1h-12zM27 70h10v1h-10zM64 70h10v1h-10zM26 71h10v1h-10zM66 71h8v1h-8zM26 72h8v1h-8zM69 72h5v1h-5zM27 73h4v1h-4zM72 80h1v1h-1zM27 81h4v1h-4zM69 81h4v1h-4zM26 82h8v1h-8zM67 82h7v1h-7zM26 83h10v1h-10zM64 83h10v1h-10zM27 84h10v1h-10zM63 84h11v1h-11zM26 85h12v1h-12zM63 85h11v1h-11zM30 86h7v1h-7zM63 86h7v1h-7zM31 87h6v1h-6zM63 87h6v1h-6zM33 88h1v1h-1zM64 88h1v1h-1z" /><path fill="#5598da" d="M62 14h1v1h-1zM27 15h1v1h-1zM62 15h1v1h-1zM37 16h1v1h-1zM63 17h1v1h-1zM34 18h1v1h-1zM26 19h1v1h-1zM36 33h1v1h-1zM63 39h1v1h-1zM35 40h1v1h-1zM73 42h1v1h-1zM27 52h1v1h-1zM34 54h1v1h-1zM37 56h1v1h-1zM37 57h1v1h-1zM35 66h1v1h-1zM37 68h1v1h-1zM72 68h1v1h-1zM29 74h1v1h-1zM29 80h1v1h-1zM63 83h1v1h-1zM71 86h1v1h-1z" /><path fill="#5599da" d="M26 16h1v1h-1zM31 19h1v1h-1zM68 26h1v1h-1zM72 26h1v1h-1zM33 27h1v1h-1zM28 31h1v1h-1zM63 33h1v1h-1zM34 40h1v1h-1zM69 40h1v1h-1zM26 46h1v1h-1zM31 47h1v1h-1zM31 53h1v1h-1zM36 55h1v1h-1zM62 58h1v1h-1zM70 58h1v1h-1zM35 60h1v1h-1zM67 66h2v1h-2zM36 71h1v1h-1zM26 73h1v1h-1zM70 73h1v1h-1zM72 73h1v1h-1zM28 74h1v1h-1zM28 80h1v1h-1zM71 80h1v1h-1zM31 81h1v1h-1zM34 82h1v1h-1zM74 83h1v1h-1zM26 84h1v1h-1zM62 85h1v1h-1zM29 86h1v1h-1zM70 86h1v1h-1z" /><path fill="#5599db" d="M71 20h2v1h-2zM73 30h1v1h-1zM69 32h1v1h-1zM32 33h1v1h-1zM66 33h1v1h-1zM62 40h1v1h-1zM37 42h1v1h-1zM64 44h1v1h-1zM28 52h1v1h-1zM70 52h2v1h-2zM63 55h1v1h-1zM62 56h1v1h-1zM67 59h1v1h-1zM62 67h1v1h-1zM71 67h1v1h-1zM37 70h1v1h-1zM65 71h1v1h-1zM32 73h1v1h-1zM68 81h1v1h-1zM73 81h1v1h-1zM65 82h1v1h-1zM62 84h1v1h-1zM28 86h1v1h-1zM34 88h1v1h-1z" /></svg>