<svg xmlns="http://www.w3.org/2000/svg" viewBox="0 0 100 100" width="1em" height="1em"><path fill="#000000" d="M43 0h14v1h-14zM38 1h24v1h-24zM34 2h32v1h-32zM32 3h36v1h-36zM29 4h42v1h-42zM27 5h14v1h-14zM46 5h11v1h-11zM59 5h14v1h-14zM25 6h15v1h-15zM46 6h10v1h-10zM62 6h13v1h-13zM24 7h16v1h-16zM46 7h10v1h-10zM62 7h14v1h-14zM22 8h18v1h-18zM46 8h10v1h-10zM62 8h16v1h-16zM21 9h18v1h-18zM46 9h10v1h-10zM62 9h17v1h-17zM19 10h20v1h-20zM45 10h11v1h-11zM62 10h19v1h-19zM18 11h21v1h-21zM45 11h11v1h-11zM61 11h21v1h-21zM17 12h22v1h-22zM45 12h11v1h-11zM61 12h22v1h-22zM16 13h22v1h-22zM45 13h13v1h-13zM59 13h17v1h-17zM77 13h7v1h-7zM15 14h23v1h-23zM44 14h32v1h-32zM79 14h6v1h-6zM14 15h24v1h-24zM44 15h31v1h-31zM80 15h6v1h-6zM13 16h10v1h-10zM26 16h12v1h-12zM44 16h31v1h-31zM81 16h6v1h-6zM12 17h10v1h-10zM27 17h10v1h-10zM44 17h31v1h-31zM81 17h7v1h-7zM11 18h10v1h-10zM27 18h10v1h-10zM43 18h33v1h-33zM81 18h8v1h-8zM10 19h11v1h-11zM27 19h11v1h-11zM43 19h22v1h-22zM69 19h8v1h-8zM80 19h10v1h-10zM10 20h11v1h-11zM27 20h11v1h-11zM42 20h22v1h-22zM70 20h20v1h-20zM9 21h12v1h-12zM27 21h37v1h-37zM70 21h21v1h-21zM8 22h12v1h-12zM27 22h37v1h-37zM70 22h22v1h-22zM8 23h12v1h-12zM26 23h37v1h-37zM70 23h22v1h-22zM7 24h13v1h-13zM26 24h37v1h-37zM69 24h24v1h-24zM6 25h14v1h-14zM26 25h37v1h-37zM69 25h25v1h-25zM6 26h13v1h-13zM26 26h37v1h-37zM69 26h25v1h-25zM5 27h14v1h-14zM25 27h37v1h-37zM69 27h26v1h-26zM5 28h5v1h-5zM13 28h6v1h-6zM25 28h16v1h-16zM55 28h7v1h-7zM68 28h13v1h-13zM85 28h10v1h-10zM4 29h5v1h-5zM13 29h5v1h-5zM25 29h12v1h-12zM59 29h3v1h-3zM68 29h13v1h-13zM86 29h10v1h-10zM4 30h5v1h-5zM13 30h5v1h-5zM24 30h11v1h-11zM61 30h3v1h-3zM68 30h12v1h-12zM86 30h10v1h-10zM4 31h4v1h-4zM13 31h5v1h-5zM24 31h9v1h-9zM63 31h2v1h-2zM67 31h13v1h-13zM86 31h10v1h-10zM3 32h5v1h-5zM13 32h5v1h-5zM24 32h7v1h-7zM65 32h15v1h-15zM86 32h11v1h-11zM3 33h5v1h-5zM13 33h6v1h-6zM23 33h7v1h-7zM66 33h13v1h-13zM86 33h11v1h-11zM2 34h5v1h-5zM13 34h15v1h-15zM67 34h12v1h-12zM85 34h13v1h-13zM2 35h5v1h-5zM12 35h15v1h-15zM68 35h11v1h-11zM85 35h13v1h-13zM2 36h5v1h-5zM12 36h14v1h-14zM69 36h10v1h-10zM85 36h13v1h-13zM2 37h4v1h-4zM12 37h14v1h-14zM50 37h2v1h-2zM70 37h8v1h-8zM85 37h13v1h-13zM1 38h5v1h-5zM12 38h13v1h-13zM49 38h4v1h-4zM71 38h7v1h-7zM84 38h15v1h-15zM1 39h5v1h-5zM11 39h13v1h-13zM49 39h5v1h-5zM72 39h6v1h-6zM84 39h15v1h-15zM1 40h5v1h-5zM11 40h13v1h-13zM49 40h5v1h-5zM72 40h5v1h-5zM84 40h15v1h-15zM1 41h4v1h-4zM11 41h12v1h-12zM50 41h3v1h-3zM73 41h4v1h-4zM83 41h16v1h-16zM1 42h4v1h-4zM11 42h12v1h-12zM73 42h4v1h-4zM83 42h16v1h-16zM0 43h5v1h-5zM10 43h12v1h-12zM74 43h3v1h-3zM83 43h17v1h-17zM0 44h5v1h-5zM10 44h12v1h-12zM74 44h3v1h-3zM83 44h7v1h-7zM93 44h7v1h-7zM0 45h5v1h-5zM9 45h13v1h-13zM74 45h4v1h-4zM82 45h7v1h-7zM94 45h6v1h-6zM0 46h22v1h-22zM75 46h14v1h-14zM95 46h5v1h-5zM0 47h15v1h-15zM19 47h3v1h-3zM75 47h13v1h-13zM95 47h5v1h-5zM0 48h15v1h-15zM20 48h2v1h-2zM75 48h13v1h-13zM94 48h6v1h-6zM0 49h14v1h-14zM20 49h2v1h-2zM76 49h12v1h-12zM94 49h6v1h-6zM0 50h14v1h-14zM20 50h2v1h-2zM76 50h12v1h-12zM94 50h6v1h-6zM0 51h14v1h-14zM20 51h2v1h-2zM76 51h11v1h-11zM94 51h6v1h-6zM0 52h13v1h-13zM20 52h2v1h-2zM77 52h10v1h-10zM93 52h7v1h-7zM0 53h13v1h-13zM19 53h3v1h-3zM77 53h10v1h-10zM93 53h7v1h-7zM0 54h13v1h-13zM19 54h4v1h-4zM77 54h10v1h-10zM93 54h7v1h-7zM0 55h13v1h-13zM19 55h4v1h-4zM77 55h9v1h-9zM93 55h7v1h-7zM0 56h12v1h-12zM19 56h5v1h-5zM78 56h8v1h-8zM92 56h8v1h-8zM1 57h11v1h-11zM18 57h6v1h-6zM78 57h8v1h-8zM92 57h7v1h-7zM1 58h11v1h-11zM18 58h7v1h-7zM78 58h7v1h-7zM92 58h7v1h-7zM1 59h10v1h-10zM18 59h8v1h-8zM78 59h7v1h-7zM91 59h8v1h-8zM1 60h10v1h-10zM17 60h10v1h-10zM79 60h6v1h-6zM91 60h8v1h-8zM1 61h10v1h-10zM17 61h8v1h-8zM26 61h2v1h-2zM79 61h7v1h-7zM91 61h8v1h-8zM2 62h9v1h-9zM17 62h8v1h-8zM28 62h2v1h-2zM79 62h19v1h-19zM2 63h9v1h-9zM17 63h8v1h-8zM29 63h2v1h-2zM80 63h18v1h-18zM2 64h10v1h-10zM16 64h8v1h-8zM30 64h4v1h-4zM80 64h18v1h-18zM2 65h22v1h-22zM30 65h7v1h-7zM80 65h18v1h-18zM3 66h21v1h-21zM30 66h14v1h-14zM80 66h17v1h-17zM3 67h21v1h-21zM30 67h20v1h-20zM81 67h16v1h-16zM4 68h19v1h-19zM30 68h20v1h-20zM81 68h15v1h-15zM4 69h19v1h-19zM29 69h22v1h-22zM81 69h15v1h-15zM4 70h19v1h-19zM29 70h22v1h-22zM81 70h15v1h-15zM5 71h17v1h-17zM29 71h22v1h-22zM82 71h13v1h-13zM5 72h17v1h-17zM28 72h23v1h-23zM82 72h13v1h-13zM6 73h16v1h-16zM28 73h24v1h-24zM82 73h12v1h-12zM6 74h16v1h-16zM28 74h18v1h-18zM50 74h2v1h-2zM82 74h12v1h-12zM7 75h15v1h-15zM28 75h18v1h-18zM51 75h1v1h-1zM83 75h10v1h-10zM8 76h14v1h-14zM27 76h18v1h-18zM51 76h1v1h-1zM83 76h9v1h-9zM8 77h15v1h-15zM27 77h18v1h-18zM51 77h1v1h-1zM83 77h9v1h-9zM9 78h36v1h-36zM51 78h2v1h-2zM84 78h7v1h-7zM10 79h34v1h-34zM51 79h2v1h-2zM84 79h6v1h-6zM10 80h23v1h-23zM37 80h7v1h-7zM50 80h3v1h-3zM84 80h6v1h-6zM11 81h21v1h-21zM37 81h7v1h-7zM50 81h3v1h-3zM83 81h6v1h-6zM12 82h20v1h-20zM38 82h6v1h-6zM50 82h3v1h-3zM82 82h6v1h-6zM13 83h18v1h-18zM38 83h5v1h-5zM50 83h3v1h-3zM81 83h6v1h-6zM14 84h17v1h-17zM37 84h6v1h-6zM49 84h5v1h-5zM80 84h6v1h-6zM15 85h16v1h-16zM37 85h6v1h-6zM49 85h5v1h-5zM79 85h6v1h-6zM16 86h15v1h-15zM37 86h6v1h-6zM49 86h5v1h-5zM77 86h7v1h-7zM17 87h13v1h-13zM37 87h5v1h-5zM48 87h6v1h-6zM76 87h7v1h-7zM18 88h12v1h-12zM36 88h6v1h-6zM48 88h6v1h-6zM74 88h8v1h-8zM20 89h10v1h-10zM36 89h6v1h-6zM48 89h7v1h-7zM73 89h8v1h-8zM21 90h9v1h-9zM36 90h6v1h-6zM48 90h7v1h-7zM71 90h8v1h-8zM22 91h9v1h-9zM35 91h8v1h-8zM47 91h8v1h-8zM69 91h9v1h-9zM24 92h10v1h-10zM35 92h20v1h-20zM66 92h10v1h-10zM25 93h30v1h-30zM63 93h12v1h-12zM27 94h28v1h-28zM59 94h14v1h-14zM29 95h42v1h-42zM32 96h36v1h-36zM34 97h32v1h-32zM38 98h24v1h-24zM43 99h14v1h-14z" /><path fill="#1c1c1c" d="M41 5h1v1h-1zM78 60h1v1h-1z" /><path fill="#414141" d="M42 5h1v1h-1zM57 94h1v1h-1z" /><path fill="#656565" d="M43 5h1v1h-1zM45 8h1v1h-1zM28 70h1v1h-1zM82 76h1v1h-1z" /><path fill="#898989" d="M44 5h1v1h-1z" /><path fill="#aaaaaa" d="M45 5h1v1h-1zM45 7h1v1h-1zM47 28h3v1h-3zM27 36h1v1h-1zM89 46h1v1h-1zM29 61h1v1h-1zM28 69h1v1h-1z" /><path fill="#3a3a3a" d="M57 5h1v1h-1zM76 53h1v1h-1zM18 55h1v1h-1zM55 93h1v1h-1z" /><path fill="#151515" d="M58 5h1v1h-1zM23 16h1v1h-1z" /><path fill="#1e1e1e" d="M40 6h1v1h-1zM91 58h1v1h-1z" /><path fill="#ffffff" d="M41 6h4v1h-4zM58 6h1v1h-1zM41 7h4v1h-4zM57 7h4v1h-4zM41 8h4v1h-4zM57 8h4v1h-4zM41 9h4v1h-4zM57 9h4v1h-4zM40 10h4v1h-4zM57 10h3v1h-3zM40 11h4v1h-4zM57 11h3v1h-3zM40 12h4v1h-4zM58 12h1v1h-1zM40 13h3v1h-3zM39 14h4v1h-4zM39 15h4v1h-4zM77 15h1v1h-1zM39 16h4v1h-4zM76 16h3v1h-3zM24 17h1v1h-1zM39 17h3v1h-3zM77 17h3v1h-3zM23 18h3v1h-3zM39 18h3v1h-3zM78 18h1v1h-1zM22 19h4v1h-4zM39 19h2v1h-2zM22 20h4v1h-4zM66 20h3v1h-3zM22 21h4v1h-4zM65 21h4v1h-4zM22 22h3v1h-3zM65 22h4v1h-4zM21 23h4v1h-4zM65 23h3v1h-3zM21 24h4v1h-4zM64 24h4v1h-4zM21 25h4v1h-4zM64 25h4v1h-4zM21 26h3v1h-3zM64 26h4v1h-4zM20 27h4v1h-4zM64 27h3v1h-3zM20 28h4v1h-4zM63 28h4v1h-4zM11 29h1v1h-1zM20 29h4v1h-4zM42 29h13v1h-13zM64 29h3v1h-3zM82 29h2v1h-2zM10 30h2v1h-2zM19 30h4v1h-4zM38 30h20v1h-20zM66 30h1v1h-1zM81 30h4v1h-4zM10 31h2v1h-2zM19 31h4v1h-4zM36 31h25v1h-25zM81 31h4v1h-4zM9 32h3v1h-3zM20 32h3v1h-3zM34 32h28v1h-28zM81 32h4v1h-4zM9 33h3v1h-3zM32 33h32v1h-32zM81 33h3v1h-3zM9 34h2v1h-2zM31 34h34v1h-34zM80 34h4v1h-4zM8 35h3v1h-3zM29 35h38v1h-38zM80 35h4v1h-4zM8 36h3v1h-3zM28 36h21v1h-21zM53 36h15v1h-15zM80 36h4v1h-4zM7 37h4v1h-4zM27 37h21v1h-21zM54 37h14v1h-14zM80 37h3v1h-3zM7 38h3v1h-3zM26 38h22v1h-22zM55 38h14v1h-14zM79 38h4v1h-4zM7 39h3v1h-3zM26 39h22v1h-22zM55 39h15v1h-15zM79 39h4v1h-4zM7 40h3v1h-3zM25 40h23v1h-23zM55 40h16v1h-16zM79 40h4v1h-4zM6 41h4v1h-4zM25 41h23v1h-23zM54 41h17v1h-17zM78 41h4v1h-4zM6 42h3v1h-3zM24 42h25v1h-25zM54 42h18v1h-18zM78 42h4v1h-4zM6 43h3v1h-3zM24 43h48v1h-48zM78 43h4v1h-4zM6 44h2v1h-2zM23 44h50v1h-50zM79 44h2v1h-2zM23 45h50v1h-50zM91 45h1v1h-1zM23 46h50v1h-50zM90 46h3v1h-3zM23 47h51v1h-51zM90 47h3v1h-3zM16 48h2v1h-2zM23 48h51v1h-51zM89 48h4v1h-4zM15 49h4v1h-4zM23 49h51v1h-51zM89 49h4v1h-4zM15 50h4v1h-4zM23 50h52v1h-52zM89 50h4v1h-4zM15 51h4v1h-4zM23 51h52v1h-52zM89 51h3v1h-3zM15 52h3v1h-3zM23 52h52v1h-52zM88 52h4v1h-4zM14 53h4v1h-4zM24 53h52v1h-52zM88 53h4v1h-4zM14 54h4v1h-4zM24 54h52v1h-52zM88 54h4v1h-4zM14 55h4v1h-4zM24 55h52v1h-52zM87 55h4v1h-4zM14 56h3v1h-3zM25 56h51v1h-51zM87 56h4v1h-4zM13 57h4v1h-4zM26 57h51v1h-51zM87 57h4v1h-4zM13 58h4v1h-4zM27 58h50v1h-50zM87 58h4v1h-4zM13 59h4v1h-4zM28 59h49v1h-49zM86 59h4v1h-4zM12 60h4v1h-4zM29 60h49v1h-49zM87 60h3v1h-3zM12 61h4v1h-4zM30 61h48v1h-48zM12 62h4v1h-4zM32 62h46v1h-46zM13 63h2v1h-2zM26 63h1v1h-1zM35 63h43v1h-43zM26 64h2v1h-2zM38 64h41v1h-41zM25 65h4v1h-4zM44 65h35v1h-35zM25 66h4v1h-4zM51 66h28v1h-28zM25 67h4v1h-4zM51 67h28v1h-28zM24 68h4v1h-4zM52 68h28v1h-28zM24 69h4v1h-4zM52 69h28v1h-28zM24 70h4v1h-4zM52 70h28v1h-28zM24 71h4v1h-4zM52 71h28v1h-28zM23 72h4v1h-4zM52 72h29v1h-29zM23 73h4v1h-4zM53 73h28v1h-28zM23 74h4v1h-4zM53 74h28v1h-28zM23 75h3v1h-3zM47 75h2v1h-2zM53 75h29v1h-29zM23 76h3v1h-3zM46 76h4v1h-4zM53 76h29v1h-29zM46 77h4v1h-4zM53 77h29v1h-29zM46 78h4v1h-4zM54 78h28v1h-28zM46 79h3v1h-3zM54 79h29v1h-29zM45 80h4v1h-4zM54 80h28v1h-28zM33 81h3v1h-3zM45 81h4v1h-4zM54 81h27v1h-27zM33 82h3v1h-3zM45 82h4v1h-4zM54 82h26v1h-26zM33 83h3v1h-3zM45 83h3v1h-3zM55 83h24v1h-24zM32 84h4v1h-4zM44 84h4v1h-4zM55 84h23v1h-23zM32 85h4v1h-4zM44 85h4v1h-4zM55 85h21v1h-21zM32 86h4v1h-4zM44 86h4v1h-4zM55 86h20v1h-20zM31 87h4v1h-4zM43 87h4v1h-4zM55 87h18v1h-18zM31 88h4v1h-4zM43 88h4v1h-4zM55 88h17v1h-17zM31 89h4v1h-4zM43 89h4v1h-4zM56 89h14v1h-14zM32 90h2v1h-2zM44 90h2v1h-2zM56 90h12v1h-12zM56 91h9v1h-9zM56 92h7v1h-7zM56 93h3v1h-3z" /><path fill="#ebebeb" d="M45 6h1v1h-1zM25 17h1v1h-1zM91 55h1v1h-1zM53 78h1v1h-1z" /><path fill="#090909" d="M56 6h1v1h-1zM79 15h1v1h-1zM81 28h1v1h-1zM65 31h1v1h-1zM11 38h1v1h-1zM73 43h1v1h-1zM93 51h1v1h-1zM25 61h1v1h-1zM27 62h1v1h-1zM44 79h1v1h-1zM36 80h1v1h-1zM79 84h1v1h-1zM70 90h1v1h-1z" /><path fill="#f7f7f7" d="M57 6h1v1h-1zM39 13h1v1h-1zM41 19h1v1h-1zM10 38h1v1h-1zM92 51h1v1h-1zM51 68h1v1h-1zM45 79h1v1h-1zM54 83h1v1h-1z" /><path fill="#dadada" d="M59 6h1v1h-1zM52 36h1v1h-1z" /><path fill="#a2a2a2" d="M60 6h1v1h-1zM38 19h1v1h-1zM78 39h1v1h-1zM12 58h1v1h-1z" /><path fill="#676767" d="M61 6h1v1h-1zM39 65h1v1h-1z" /><path fill="#636363" d="M40 7h1v1h-1zM53 41h1v1h-1z" /><path fill="#464646" d="M56 7h1v1h-1zM63 24h1v1h-1zM38 29h1v1h-1zM93 50h1v1h-1z" /><path fill="#c8c8c8" d="M61 7h1v1h-1zM68 24h1v1h-1z" /><path fill="#a8a8a8" d="M40 8h1v1h-1zM50 36h1v1h-1zM13 64h1v1h-1zM36 81h1v1h-1z" /><path fill="#8b8b8b" d="M56 8h1v1h-1zM63 25h1v1h-1zM29 34h1v1h-1zM93 49h1v1h-1zM51 70h1v1h-1z" /><path fill="#838383" d="M61 8h1v1h-1z" /><path fill="#020202" d="M39 9h1v1h-1zM75 15h1v1h-1zM79 19h1v1h-1zM28 34h1v1h-1zM22 43h1v1h-1zM92 55h1v1h-1zM85 58h1v1h-1zM22 71h1v1h-1zM83 78h1v1h-1zM37 83h1v1h-1zM72 89h1v1h-1zM31 91h1v1h-1z" /><path fill="#eaeaea" d="M40 9h1v1h-1zM76 15h1v1h-1zM71 41h1v1h-1zM18 48h1v1h-1zM23 71h1v1h-1zM43 90h1v1h-1z" /><path fill="#212121" d="M45 9h1v1h-1zM77 44h1v1h-1zM19 48h1v1h-1zM28 71h1v1h-1zM82 75h1v1h-1z" /><path fill="#d0d0d0" d="M56 9h1v1h-1zM63 26h1v1h-1zM21 33h1v1h-1zM93 48h1v1h-1zM34 91h1v1h-1z" /><path fill="#3e3e3e" d="M61 9h1v1h-1zM23 32h1v1h-1z" /><path fill="#323232" d="M39 10h1v1h-1zM8 45h1v1h-1zM45 76h1v1h-1z" /><path fill="#dbdbdb" d="M44 10h1v1h-1zM27 72h1v1h-1zM81 74h1v1h-1z" /><path fill="#fbfbfb" d="M56 10h1v1h-1zM43 13h1v1h-1zM88 51h1v1h-1zM18 52h1v1h-1zM12 63h1v1h-1zM25 64h1v1h-1zM26 75h1v1h-1zM49 75h1v1h-1zM76 85h1v1h-1z" /><path fill="#f3f3f3" d="M60 10h1v1h-1zM58 30h1v1h-1zM36 83h1v1h-1z" /><path fill="#060606" d="M61 10h1v1h-1zM68 27h1v1h-1zM52 37h1v1h-1zM37 65h1v1h-1z" /><path fill="#777777" d="M39 11h1v1h-1zM64 21h1v1h-1zM45 77h1v1h-1z" /><path fill="#969696" d="M44 11h1v1h-1zM52 42h1v1h-1zM27 73h1v1h-1z" /><path fill="#d6d6d6" d="M56 11h1v1h-1zM77 59h1v1h-1z" /><path fill="#a6a6a6" d="M60 11h1v1h-1zM60 93h1v1h-1z" /><path fill="#bcbcbc" d="M39 12h1v1h-1zM61 31h1v1h-1z" /><path fill="#515151" d="M44 12h1v1h-1zM48 38h1v1h-1zM23 77h1v1h-1z" /><path fill="#353535" d="M56 12h1v1h-1zM9 44h1v1h-1zM25 58h1v1h-1z" /><path fill="#dcdcdc" d="M57 12h1v1h-1zM87 54h1v1h-1z" /><path fill="#c5c5c5" d="M59 12h1v1h-1zM79 16h1v1h-1zM84 34h1v1h-1zM49 42h1v1h-1zM22 75h1v1h-1z" /><path fill="#1a1a1a" d="M60 12h1v1h-1zM77 19h1v1h-1zM19 26h1v1h-1zM18 32h1v1h-1zM48 39h1v1h-1zM51 72h1v1h-1zM82 81h1v1h-1zM81 82h1v1h-1z" /><path fill="#0a0a0a" d="M38 13h1v1h-1zM79 33h1v1h-1zM13 52h1v1h-1zM16 63h1v1h-1z" /><path fill="#101010" d="M44 13h1v1h-1zM37 17h1v1h-1zM92 44h1v1h-1zM87 51h1v1h-1zM27 75h1v1h-1zM54 88h1v1h-1z" /><path fill="#0c0c0c" d="M58 13h1v1h-1zM76 13h1v1h-1zM25 16h1v1h-1zM20 22h1v1h-1zM41 28h1v1h-1zM75 87h1v1h-1z" /><path fill="#474747" d="M38 14h1v1h-1zM32 63h1v1h-1zM44 80h1v1h-1z" /><path fill="#c6c6c6" d="M43 14h1v1h-1zM49 80h1v1h-1zM79 83h1v1h-1z" /><path fill="#a7a7a7" d="M76 14h1v1h-1zM78 15h1v1h-1zM6 39h1v1h-1zM91 56h1v1h-1z" /><path fill="#808080" d="M77 14h1v1h-1zM7 35h1v1h-1zM84 35h1v1h-1z" /><path fill="#010101" d="M78 14h1v1h-1zM12 28h1v1h-1zM18 29h1v1h-1zM77 40h1v1h-1zM10 42h1v1h-1zM11 59h1v1h-1zM85 60h1v1h-1zM31 63h1v1h-1zM79 63h1v1h-1zM44 66h1v1h-1zM78 85h1v1h-1zM36 87h1v1h-1z" /><path fill="#8c8c8c" d="M38 15h1v1h-1zM22 51h1v1h-1zM53 80h1v1h-1zM44 81h1v1h-1z" /><path fill="#818181" d="M43 15h1v1h-1zM52 75h1v1h-1zM49 81h1v1h-1z" /><path fill="#3c3c3c" d="M24 16h1v1h-1zM42 28h1v1h-1zM84 36h1v1h-1zM50 75h1v1h-1zM49 82h1v1h-1zM54 87h1v1h-1z" /><path fill="#d1d1d1" d="M38 16h1v1h-1zM27 63h1v1h-1zM44 82h1v1h-1z" /><path fill="#3d3d3d" d="M43 16h1v1h-1zM68 26h1v1h-1zM64 30h1v1h-1zM88 48h1v1h-1z" /><path fill="#222222" d="M75 16h1v1h-1zM64 20h1v1h-1zM62 29h1v1h-1zM23 41h1v1h-1zM48 66h1v1h-1z" /><path fill="#161616" d="M80 16h1v1h-1zM80 18h1v1h-1zM62 27h1v1h-1zM12 34h1v1h-1zM24 39h1v1h-1zM5 41h1v1h-1zM31 83h1v1h-1zM80 83h1v1h-1z" /><path fill="#545454" d="M22 17h1v1h-1zM11 28h1v1h-1z" /><path fill="#f9f9f9" d="M23 17h1v1h-1zM76 17h1v1h-1zM21 22h1v1h-1zM23 53h1v1h-1z" /><path fill="#313131" d="M26 17h1v1h-1zM14 49h1v1h-1zM92 54h1v1h-1z" /><path fill="#fefefe" d="M38 17h1v1h-1zM38 18h1v1h-1zM20 26h1v1h-1zM63 27h1v1h-1zM35 31h1v1h-1zM33 32h1v1h-1zM62 32h1v1h-1zM8 34h1v1h-1zM11 34h1v1h-1zM30 34h1v1h-1zM68 37h1v1h-1zM79 37h1v1h-1zM73 46h1v1h-1zM93 47h1v1h-1zM13 56h1v1h-1zM32 83h1v1h-1zM44 83h1v1h-1zM73 87h1v1h-1zM34 90h1v1h-1z" /><path fill="#f2f2f2" d="M42 17h1v1h-1zM49 36h1v1h-1zM83 37h1v1h-1zM89 47h1v1h-1zM17 56h1v1h-1zM48 83h1v1h-1z" /><path fill="#050505" d="M43 17h1v1h-1zM25 26h1v1h-1zM84 37h1v1h-1zM90 44h1v1h-1zM88 47h1v1h-1zM94 47h1v1h-1zM18 56h1v1h-1zM49 83h1v1h-1z" /><path fill="#111111" d="M75 17h1v1h-1zM85 33h1v1h-1zM22 53h1v1h-1zM45 66h2v1h-2zM50 79h1v1h-1zM46 91h1v1h-1z" /><path fill="#888888" d="M80 17h1v1h-1z" /><path fill="#030303" d="M21 18h1v1h-1zM38 20h1v1h-1zM26 36h1v1h-1zM49 41h1v1h-1zM94 46h1v1h-1zM15 47h1v1h-1zM29 68h1v1h-1zM26 77h1v1h-1zM68 91h1v1h-1z" /><path fill="#e7e7e7" d="M22 18h1v1h-1zM19 29h1v1h-1zM6 40h1v1h-1zM23 43h1v1h-1z" /><path fill="#b4b4b4" d="M26 18h1v1h-1zM36 84h1v1h-1z" /><path fill="#141414" d="M37 18h1v1h-1zM81 45h1v1h-1zM85 59h1v1h-1z" /><path fill="#b1b1b1" d="M42 18h1v1h-1zM83 38h1v1h-1zM48 84h1v1h-1z" /><path fill="#707070" d="M76 18h1v1h-1zM42 89h1v1h-1z" /><path fill="#fafafa" d="M77 18h1v1h-1zM65 20h1v1h-1zM25 22h1v1h-1zM76 56h1v1h-1z" /><path fill="#d2d2d2" d="M79 18h1v1h-1zM79 36h1v1h-1z" /><path fill="#363636" d="M21 19h1v1h-1zM33 31h1v1h-1zM62 31h1v1h-1zM11 63h1v1h-1z" /><path fill="#c7c7c7" d="M26 19h1v1h-1zM20 33h1v1h-1zM22 48h1v1h-1zM88 50h1v1h-1z" /><path fill="#393939" d="M42 19h1v1h-1zM25 25h1v1h-1zM22 44h1v1h-1z" /><path fill="#555555" d="M65 19h1v1h-1zM93 45h1v1h-1z" /><path fill="#d8d8d8" d="M66 19h1v1h-1zM7 36h1v1h-1zM81 44h1v1h-1zM90 59h1v1h-1zM82 80h1v1h-1z" /><path fill="#dddddd" d="M67 19h1v1h-1zM12 31h1v1h-1z" /><path fill="#6b6b6b" d="M68 19h1v1h-1zM66 34h1v1h-1zM17 58h1v1h-1z" /><path fill="#2d2d2d" d="M78 19h1v1h-1z" /><path fill="#7b7b7b" d="M21 20h1v1h-1zM80 45h1v1h-1zM44 91h1v1h-1z" /><path fill="#939393" d="M26 20h1v1h-1z" /><path fill="#585858" d="M39 20h1v1h-1zM82 43h1v1h-1zM47 89h1v1h-1zM67 91h1v1h-1z" /><path fill="#747474" d="M40 20h1v1h-1zM6 45h1v1h-1zM35 80h1v1h-1z" /><path fill="#292929" d="M41 20h1v1h-1zM30 87h1v1h-1z" /><path fill="#404040" d="M69 20h1v1h-1zM80 68h1v1h-1z" /><path fill="#c0c0c0" d="M21 21h1v1h-1zM87 61h1v1h-1z" /><path fill="#4e4e4e" d="M26 21h1v1h-1zM10 28h1v1h-1zM18 31h1v1h-1zM19 51h1v1h-1z" /><path fill="#767676" d="M69 21h1v1h-1zM10 40h1v1h-1zM77 43h1v1h-1zM74 47h1v1h-1zM92 53h1v1h-1zM47 74h1v1h-1z" /><path fill="#0e0e0e" d="M26 22h1v1h-1zM5 45h1v1h-1zM24 64h1v1h-1z" /><path fill="#bbbbbb" d="M64 22h1v1h-1zM81 29h1v1h-1zM92 52h1v1h-1zM33 91h1v1h-1zM66 91h1v1h-1z" /><path fill="#525252" d="M69 22h1v1h-1zM87 52h1v1h-1zM81 72h1v1h-1zM27 74h1v1h-1zM33 80h1v1h-1z" /><path fill="#4b4b4b" d="M20 23h1v1h-1zM16 47h1v1h-1z" /><path fill="#c3c3c3" d="M25 23h1v1h-1zM76 55h1v1h-1z" /><path fill="#080808" d="M63 23h1v1h-1zM9 29h1v1h-1zM37 82h1v1h-1z" /><path fill="#f6f6f6" d="M64 23h1v1h-1zM19 32h1v1h-1z" /><path fill="#fcfcfc" d="M68 23h1v1h-1zM41 29h1v1h-1zM84 33h1v1h-1zM65 34h1v1h-1zM24 41h1v1h-1zM34 63h1v1h-1zM80 71h1v1h-1zM49 79h1v1h-1zM36 82h1v1h-1z" /><path fill="#121212" d="M69 23h1v1h-1zM81 71h1v1h-1zM34 92h1v1h-1zM58 94h1v1h-1z" /><path fill="#909090" d="M20 24h1v1h-1zM39 29h1v1h-1zM85 31h1v1h-1z" /><path fill="#7e7e7e" d="M25 24h1v1h-1zM12 29h1v1h-1zM90 60h1v1h-1z" /><path fill="#d5d5d5" d="M20 25h1v1h-1zM46 90h1v1h-1z" /><path fill="#828282" d="M68 25h1v1h-1zM51 28h1v1h-1zM79 45h1v1h-1zM88 49h1v1h-1z" /><path fill="#f1f1f1" d="M24 26h1v1h-1zM75 52h1v1h-1z" /><path fill="#5f5f5f" d="M19 27h1v1h-1zM17 47h1v1h-1zM32 81h1v1h-1z" /><path fill="#afafaf" d="M24 27h1v1h-1zM75 51h1v1h-1z" /><path fill="#f4f4f4" d="M67 27h1v1h-1zM92 45h1v1h-1zM27 59h1v1h-1zM37 64h1v1h-1zM79 67h1v1h-1z" /><path fill="#a4a4a4" d="M19 28h1v1h-1zM78 62h1v1h-1z" /><path fill="#6a6a6a" d="M24 28h1v1h-1z" /><path fill="#606060" d="M43 28h1v1h-1zM8 32h1v1h-1zM78 61h1v1h-1z" /><path fill="#7f7f7f" d="M44 28h1v1h-1zM18 54h1v1h-1zM76 54h1v1h-1zM25 62h1v1h-1z" /><path fill="#979797" d="M45 28h1v1h-1zM85 30h1v1h-1zM51 36h1v1h-1zM87 53h1v1h-1zM81 73h1v1h-1zM26 76h1v1h-1z" /><path fill="#a5a5a5" d="M46 28h1v1h-1zM9 43h1v1h-1z" /><path fill="#999999" d="M50 28h1v1h-1zM74 87h1v1h-1z" /><path fill="#686868" d="M52 28h1v1h-1zM25 77h1v1h-1z" /><path fill="#434343" d="M53 28h1v1h-1zM65 33h1v1h-1zM30 62h1v1h-1z" /><path fill="#131313" d="M54 28h1v1h-1zM64 32h1v1h-1zM18 47h1v1h-1zM28 61h1v1h-1z" /><path fill="#5a5a5a" d="M62 28h1v1h-1zM22 52h1v1h-1zM31 84h1v1h-1z" /><path fill="#b3b3b3" d="M67 28h1v1h-1zM34 31h1v1h-1zM22 50h1v1h-1zM30 89h1v1h-1z" /><path fill="#6c6c6c" d="M82 28h1v1h-1zM9 30h1v1h-1zM83 39h1v1h-1zM77 42h1v1h-1zM35 64h1v1h-1zM48 85h1v1h-1zM54 86h1v1h-1zM30 90h1v1h-1z" /><path fill="#858585" d="M83 28h1v1h-1z" /><path fill="#2f2f2f" d="M84 28h1v1h-1z" /><path fill="#e6e6e6" d="M10 29h1v1h-1zM12 59h1v1h-1zM50 66h1v1h-1zM70 89h1v1h-1z" /><path fill="#262626" d="M24 29h1v1h-1z" /><path fill="#070707" d="M37 29h1v1h-1zM8 31h1v1h-1zM27 35h1v1h-1zM82 44h1v1h-1zM90 61h1v1h-1zM80 67h1v1h-1zM50 68h1v1h-1zM47 90h1v1h-1z" /><path fill="#d4d4d4" d="M40 29h1v1h-1z" /><path fill="#e0e0e0" d="M55 29h1v1h-1zM23 30h1v1h-1zM90 45h1v1h-1zM31 90h1v1h-1z" /><path fill="#9c9c9c" d="M56 29h1v1h-1zM16 61h1v1h-1zM14 64h1v1h-1z" /><path fill="#565656" d="M57 29h1v1h-1zM25 38h1v1h-1z" /><path fill="#0b0b0b" d="M58 29h1v1h-1zM53 38h1v1h-1zM46 74h1v1h-1z" /><path fill="#acacac" d="M63 29h1v1h-1z" /><path fill="#6f6f6f" d="M67 29h1v1h-1zM11 61h1v1h-1zM36 85h1v1h-1zM69 90h1v1h-1z" /><path fill="#f8f8f8" d="M84 29h1v1h-1zM80 33h1v1h-1zM8 44h1v1h-1zM14 52h1v1h-1z" /><path fill="#373737" d="M85 29h1v1h-1zM27 60h1v1h-1zM28 63h1v1h-1z" /><path fill="#e4e4e4" d="M12 30h1v1h-1zM64 33h1v1h-1zM88 61h1v1h-1zM55 89h1v1h-1z" /><path fill="#2e2e2e" d="M18 30h1v1h-1zM35 30h1v1h-1zM79 64h1v1h-1z" /><path fill="#929292" d="M36 30h1v1h-1zM50 76h1v1h-1z" /><path fill="#ededed" d="M37 30h1v1h-1zM86 58h1v1h-1z" /><path fill="#a1a1a1" d="M59 30h1v1h-1zM53 37h1v1h-1z" /><path fill="#343434" d="M60 30h1v1h-1zM38 65h1v1h-1zM29 67h1v1h-1z" /><path fill="#d9d9d9" d="M65 30h1v1h-1zM86 60h1v1h-1zM24 67h1v1h-1zM81 81h1v1h-1zM80 82h1v1h-1z" /><path fill="#2a2a2a" d="M67 30h1v1h-1zM36 86h1v1h-1zM42 87h1v1h-1z" /><path fill="#333333" d="M80 30h1v1h-1zM22 72h1v1h-1zM83 79h1v1h-1z" /><path fill="#e3e3e3" d="M9 31h1v1h-1zM82 41h1v1h-1zM28 60h1v1h-1zM15 63h1v1h-1zM52 73h1v1h-1zM43 86h1v1h-1zM47 87h1v1h-1zM59 93h1v1h-1z" /><path fill="#9b9b9b" d="M23 31h1v1h-1zM34 80h1v1h-1zM54 85h1v1h-1z" /><path fill="#7d7d7d" d="M66 31h1v1h-1z" /><path fill="#797979" d="M80 31h1v1h-1zM14 50h1v1h-1zM29 66h1v1h-1z" /><path fill="#9e9e9e" d="M12 32h1v1h-1zM24 40h1v1h-1zM47 88h1v1h-1z" /><path fill="#181818" d="M31 32h1v1h-1zM78 37h1v1h-1zM12 56h1v1h-1zM83 80h1v1h-1zM35 90h1v1h-1z" /><path fill="#a0a0a0" d="M32 32h1v1h-1zM43 85h1v1h-1zM35 88h1v1h-1z" /><path fill="#9f9f9f" d="M63 32h1v1h-1zM22 46h1v1h-1zM26 62h1v1h-1zM31 85h1v1h-1z" /><path fill="#bebebe" d="M80 32h1v1h-1zM29 65h1v1h-1zM46 75h1v1h-1z" /><path fill="#505050" d="M85 32h1v1h-1zM52 76h1v1h-1zM50 78h1v1h-1z" /><path fill="#c1c1c1" d="M8 33h1v1h-1z" /><path fill="#595959" d="M12 33h1v1h-1z" /><path fill="#454545" d="M19 33h1v1h-1zM12 64h1v1h-1z" /><path fill="#626262" d="M22 33h1v1h-1zM91 57h1v1h-1z" /><path fill="#4f4f4f" d="M30 33h1v1h-1zM24 65h1v1h-1z" /><path fill="#ececec" d="M31 33h1v1h-1zM82 78h1v1h-1z" /><path fill="#202020" d="M7 34h1v1h-1zM49 37h1v1h-1zM86 55h1v1h-1z" /><path fill="#494949" d="M79 34h1v1h-1zM13 53h1v1h-1zM49 66h1v1h-1z" /><path fill="#cecece" d="M11 35h1v1h-1zM32 82h1v1h-1z" /><path fill="#ababab" d="M28 35h1v1h-1zM24 56h1v1h-1zM86 57h1v1h-1z" /><path fill="#878787" d="M67 35h1v1h-1zM7 45h1v1h-1z" /><path fill="#8e8e8e" d="M79 35h1v1h-1zM13 54h1v1h-1z" /><path fill="#8a8a8a" d="M11 36h1v1h-1zM5 44h1v1h-1zM19 50h1v1h-1z" /><path fill="#7c7c7c" d="M68 36h1v1h-1zM72 42h1v1h-1z" /><path fill="#1f1f1f" d="M6 37h1v1h-1zM23 68h1v1h-1zM52 77h1v1h-1z" /><path fill="#444444" d="M11 37h1v1h-1z" /><path fill="#949494" d="M26 37h1v1h-1zM89 61h1v1h-1zM29 64h1v1h-1zM24 66h1v1h-1zM50 77h1v1h-1z" /><path fill="#dedede" d="M48 37h1v1h-1zM75 86h1v1h-1z" /><path fill="#5e5e5e" d="M69 37h1v1h-1z" /><path fill="#646464" d="M6 38h1v1h-1zM23 69h1v1h-1zM22 76h1v1h-1zM71 89h1v1h-1zM55 92h1v1h-1z" /><path fill="#efefef" d="M54 38h1v1h-1zM25 39h1v1h-1zM78 44h1v1h-1zM43 65h1v1h-1z" /><path fill="#f5f5f5" d="M69 38h1v1h-1zM26 58h1v1h-1z" /><path fill="#272727" d="M70 38h1v1h-1zM17 59h1v1h-1zM48 86h1v1h-1z" /><path fill="#5d5d5d" d="M78 38h1v1h-1zM50 42h1v1h-1zM12 57h1v1h-1z" /><path fill="#bababa" d="M10 39h1v1h-1zM55 90h1v1h-1z" /><path fill="#c2c2c2" d="M54 39h1v1h-1zM73 45h1v1h-1zM22 49h1v1h-1z" /><path fill="#cacaca" d="M70 39h1v1h-1z" /><path fill="#040404" d="M71 39h1v1h-1zM76 52h1v1h-1zM53 83h1v1h-1z" /><path fill="#383838" d="M48 40h1v1h-1zM23 55h1v1h-1zM49 74h1v1h-1z" /><path fill="#e1e1e1" d="M54 40h1v1h-1zM16 60h1v1h-1z" /><path fill="#696969" d="M71 40h1v1h-1zM5 43h1v1h-1zM42 88h1v1h-1z" /><path fill="#e5e5e5" d="M78 40h1v1h-1zM35 87h1v1h-1z" /><path fill="#282828" d="M83 40h1v1h-1z" /><path fill="#303030" d="M10 41h1v1h-1zM91 44h1v1h-1z" /><path fill="#b7b7b7" d="M48 41h1v1h-1zM79 66h1v1h-1z" /><path fill="#0f0f0f" d="M72 41h1v1h-1zM19 52h1v1h-1z" /><path fill="#2c2c2c" d="M77 41h1v1h-1zM11 60h1v1h-1zM86 61h1v1h-1zM53 82h1v1h-1z" /><path fill="#3f3f3f" d="M5 42h1v1h-1z" /><path fill="#e9e9e9" d="M9 42h1v1h-1zM72 43h1v1h-1zM93 46h1v1h-1zM25 57h1v1h-1z" /><path fill="#919191" d="M23 42h1v1h-1zM77 58h1v1h-1z" /><path fill="#4d4d4d" d="M51 42h1v1h-1zM77 57h1v1h-1zM32 91h1v1h-1z" /><path fill="#fdfdfd" d="M53 42h1v1h-1zM74 49h1v1h-1zM28 64h1v1h-1zM65 91h1v1h-1z" /><path fill="#9d9d9d" d="M82 42h1v1h-1z" /><path fill="#616161" d="M73 44h1v1h-1zM75 50h1v1h-1zM61 93h1v1h-1z" /><path fill="#727272" d="M22 45h1v1h-1zM79 65h1v1h-1z" /><path fill="#252525" d="M78 45h1v1h-1zM89 45h1v1h-1z" /><path fill="#242424" d="M74 46h1v1h-1z" /><path fill="#b8b8b8" d="M22 47h1v1h-1zM22 74h1v1h-1z" /><path fill="#a9a9a9" d="M15 48h1v1h-1zM23 70h1v1h-1zM82 77h1v1h-1zM78 84h1v1h-1z" /><path fill="#c4c4c4" d="M74 48h1v1h-1zM18 53h1v1h-1zM25 63h1v1h-1zM51 69h1v1h-1z" /><path fill="#868686" d="M19 49h1v1h-1z" /><path fill="#171717" d="M75 49h1v1h-1zM24 57h1v1h-1zM34 64h1v1h-1zM43 83h1v1h-1z" /><path fill="#bfbfbf" d="M14 51h1v1h-1z" /><path fill="#b2b2b2" d="M23 54h1v1h-1zM52 74h1v1h-1z" /><path fill="#d3d3d3" d="M13 55h1v1h-1zM63 92h1v1h-1z" /><path fill="#0d0d0d" d="M77 56h1v1h-1zM55 94h1v1h-1z" /><path fill="#666666" d="M86 56h1v1h-1z" /><path fill="#b0b0b0" d="M17 57h1v1h-1z" /><path fill="#484848" d="M26 59h1v1h-1z" /><path fill="#848484" d="M11 62h1v1h-1zM80 69h1v1h-1z" /><path fill="#575757" d="M16 62h1v1h-1z" /><path fill="#cfcfcf" d="M31 62h1v1h-1z" /><path fill="#b6b6b6" d="M33 63h1v1h-1zM41 65h1v1h-1z" /><path fill="#e8e8e8" d="M78 63h1v1h-1z" /><path fill="#232323" d="M15 64h1v1h-1z" /><path fill="#b5b5b5" d="M36 64h1v1h-1z" /><path fill="#959595" d="M40 65h1v1h-1zM24 77h1v1h-1z" /><path fill="#d7d7d7" d="M42 65h1v1h-1z" /><path fill="#191919" d="M47 66h1v1h-1z" /><path fill="#5c5c5c" d="M50 67h1v1h-1z" /><path fill="#eeeeee" d="M28 68h1v1h-1z" /><path fill="#c9c9c9" d="M80 70h1v1h-1z" /><path fill="#535353" d="M51 71h1v1h-1z" /><path fill="#787878" d="M22 73h1v1h-1zM77 85h1v1h-1z" /><path fill="#8f8f8f" d="M48 74h1v1h-1zM55 91h1v1h-1z" /><path fill="#bdbdbd" d="M45 78h1v1h-1zM53 79h1v1h-1z" /><path fill="#5b5b5b" d="M53 81h1v1h-1zM43 84h1v1h-1zM35 89h1v1h-1z" /><path fill="#cbcbcb" d="M54 84h1v1h-1z" /><path fill="#e2e2e2" d="M31 86h1v1h-1z" /><path fill="#3b3b3b" d="M76 86h1v1h-1zM73 88h1v1h-1z" /><path fill="#6e6e6e" d="M30 88h1v1h-1zM56 94h1v1h-1z" /><path fill="#cdcdcd" d="M72 88h1v1h-1z" /><path fill="#1b1b1b" d="M42 90h1v1h-1zM62 93h1v1h-1z" /><path fill="#dfdfdf" d="M68 90h1v1h-1z" /><path fill="#1d1d1d" d="M43 91h1v1h-1zM65 92h1v1h-1z" /><path fill="#717171" d="M45 91h1v1h-1z" /><path fill="#7a7a7a" d="M64 92h1v1h-1z" /></svg>