<svg xmlns="http://www.w3.org/2000/svg" viewBox="0 0 100 100" width="1em" height="1em"><path fill="#007fff" d="M43 0h1v1h-1zM47 0h1v1h-1zM52 0h3v1h-3zM56 0h1v1h-1zM38 1h1v1h-1zM60 1h1v1h-1zM34 2h1v1h-1zM65 2h1v1h-1zM29 4h1v1h-1zM70 4h1v1h-1zM28 5h1v1h-1zM26 6h1v1h-1zM74 6h1v1h-1zM76 7h1v1h-1zM22 8h1v1h-1zM79 9h1v1h-1zM19 10h1v1h-1zM80 10h1v1h-1zM18 11h1v1h-1zM17 12h1v1h-1zM82 12h1v1h-1zM84 13h1v1h-1zM15 14h1v1h-1zM85 14h1v1h-1zM14 15h1v1h-1zM86 15h1v1h-1zM12 17h1v1h-1zM87 17h1v1h-1zM11 18h1v1h-1zM44 19h1v1h-1zM47 19h1v1h-1zM52 19h1v1h-1zM54 19h1v1h-1zM89 19h1v1h-1zM40 20h1v1h-1zM58 20h1v1h-1zM9 21h1v1h-1zM62 21h1v1h-1zM36 22h1v1h-1zM91 22h1v1h-1zM33 23h2v1h-2zM7 24h1v1h-1zM6 25h1v1h-1zM93 25h1v1h-1zM70 26h1v1h-1zM5 28h1v1h-1zM72 28h1v1h-1zM73 29h1v1h-1zM95 29h1v1h-1zM74 30h1v1h-1zM96 31h1v1h-1zM3 32h1v1h-1zM24 32h1v1h-1zM75 32h1v1h-1zM23 33h1v1h-1zM2 34h1v1h-1zM97 35h1v1h-1zM1 38h1v1h-1zM21 38h1v1h-1zM78 38h1v1h-1zM1 39h1v1h-1zM98 39h1v1h-1zM98 40h1v1h-1zM20 41h1v1h-1zM19 43h1v1h-1zM99 43h1v1h-1zM0 44h1v1h-1zM19 44h1v1h-1zM80 44h1v1h-1zM19 45h1v1h-1zM80 45h1v1h-1zM99 45h1v1h-1zM80 46h1v1h-1zM99 46h1v1h-1zM0 47h1v1h-1zM80 47h1v1h-1zM99 47h1v1h-1zM1 49h18v1h-18zM99 50h1v1h-1zM80 52h1v1h-1zM99 52h1v1h-1zM99 54h1v1h-1zM80 55h1v1h-1zM99 55h1v1h-1zM98 59h1v1h-1zM78 61h1v1h-1zM98 61h1v1h-1zM78 62h1v1h-1zM96 67h1v1h-1zM4 68h11v1h-11zM74 68h1v1h-1zM15 69h1v1h-1zM95 69h1v1h-1zM15 70h1v1h-1zM73 70h1v1h-1zM15 71h1v1h-1zM94 71h1v1h-1zM15 72h1v1h-1zM71 72h1v1h-1zM15 73h1v1h-1zM93 73h1v1h-1zM15 74h1v1h-1zM68 74h1v1h-1zM15 75h1v1h-1zM67 75h1v1h-1zM92 75h1v1h-1zM15 76h1v1h-1zM65 76h1v1h-1zM15 77h1v1h-1zM91 77h1v1h-1zM15 78h1v1h-1zM90 78h1v1h-1zM15 79h1v1h-1zM59 79h1v1h-1zM89 79h1v1h-1zM4 80h12v1h-12zM49 80h1v1h-1zM53 80h3v1h-3zM30 81h1v1h-1zM30 82h1v1h-1zM87 82h1v1h-1zM30 83h1v1h-1zM86 83h1v1h-1zM30 84h1v1h-1zM30 85h1v1h-1zM84 85h1v1h-1zM30 86h1v1h-1zM30 87h1v1h-1zM82 87h1v1h-1zM30 88h1v1h-1zM30 89h1v1h-1zM79 89h1v1h-1zM30 90h1v1h-1zM78 90h1v1h-1zM30 91h1v1h-1zM77 91h1v1h-1zM30 92h1v1h-1zM30 93h1v1h-1zM74 93h1v1h-1zM30 94h1v1h-1zM71 94h2v1h-2zM16 95h14v1h-14zM67 96h1v1h-1zM64 97h1v1h-1zM60 98h2v1h-2zM52 99h1v1h-1zM54 99h1v1h-1zM56 99h1v1h-1z" /><path fill="#0080ff" d="M44 0h3v1h-3zM48 0h4v1h-4zM55 0h1v1h-1zM39 1h21v1h-21zM61 1h1v1h-1zM35 2h30v1h-30zM32 3h37v1h-37zM30 4h40v1h-40zM27 5h1v1h-1zM29 5h44v1h-44zM25 6h1v1h-1zM27 6h47v1h-47zM24 7h52v1h-52zM23 8h55v1h-55zM21 9h58v1h-58zM20 10h60v1h-60zM19 11h63v1h-63zM18 12h64v1h-64zM83 12h1v1h-1zM16 13h68v1h-68zM16 14h69v1h-69zM15 15h71v1h-71zM13 16h74v1h-74zM13 17h74v1h-74zM12 18h77v1h-77zM10 19h34v1h-34zM45 19h2v1h-2zM53 19h1v1h-1zM55 19h34v1h-34zM10 20h30v1h-30zM41 20h1v1h-1zM59 20h32v1h-32zM10 21h29v1h-29zM61 21h1v1h-1zM63 21h28v1h-28zM8 22h28v1h-28zM64 22h27v1h-27zM8 23h25v1h-25zM66 23h27v1h-27zM8 24h25v1h-25zM67 24h26v1h-26zM7 25h25v1h-25zM69 25h24v1h-24zM6 26h24v1h-24zM71 26h23v1h-23zM5 27h24v1h-24zM71 27h24v1h-24zM6 28h22v1h-22zM73 28h22v1h-22zM4 29h23v1h-23zM74 29h21v1h-21zM4 30h22v1h-22zM75 30h21v1h-21zM4 31h22v1h-22zM75 31h21v1h-21zM4 32h20v1h-20zM76 32h21v1h-21zM3 33h20v1h-20zM76 33h21v1h-21zM3 34h21v1h-21zM77 34h21v1h-21zM2 35h21v1h-21zM77 35h20v1h-20zM2 36h20v1h-20zM78 36h20v1h-20zM2 37h20v1h-20zM78 37h20v1h-20zM2 38h19v1h-19zM79 38h20v1h-20zM2 39h19v1h-19zM79 39h19v1h-19zM1 40h20v1h-20zM79 40h19v1h-19zM1 41h19v1h-19zM79 41h20v1h-20zM1 42h19v1h-19zM80 42h19v1h-19zM0 43h19v1h-19zM80 43h19v1h-19zM1 44h18v1h-18zM81 44h19v1h-19zM0 45h19v1h-19zM81 45h18v1h-18zM0 46h20v1h-20zM81 46h18v1h-18zM1 47h18v1h-18zM81 47h18v1h-18zM0 48h19v1h-19zM80 48h20v1h-20zM0 49h1v1h-1zM81 49h19v1h-19zM81 50h18v1h-18zM81 51h19v1h-19zM81 52h18v1h-18zM80 53h20v1h-20zM80 54h19v1h-19zM81 55h18v1h-18zM80 56h20v1h-20zM80 57h19v1h-19zM79 58h20v1h-20zM79 59h19v1h-19zM79 60h20v1h-20zM31 61h19v1h-19zM79 61h19v1h-19zM31 62h19v1h-19zM79 62h19v1h-19zM31 63h19v1h-19zM77 63h21v1h-21zM31 64h19v1h-19zM77 64h21v1h-21zM31 65h19v1h-19zM76 65h21v1h-21zM31 66h19v1h-19zM76 66h21v1h-21zM31 67h19v1h-19zM75 67h21v1h-21zM15 68h1v1h-1zM31 68h19v1h-19zM75 68h21v1h-21zM4 69h11v1h-11zM31 69h19v1h-19zM73 69h22v1h-22zM4 70h11v1h-11zM31 70h19v1h-19zM74 70h22v1h-22zM4 71h11v1h-11zM31 71h19v1h-19zM72 71h22v1h-22zM4 72h11v1h-11zM31 72h19v1h-19zM72 72h23v1h-23zM4 73h11v1h-11zM31 73h19v1h-19zM70 73h23v1h-23zM4 74h11v1h-11zM31 74h19v1h-19zM69 74h25v1h-25zM4 75h11v1h-11zM31 75h19v1h-19zM68 75h24v1h-24zM4 76h11v1h-11zM31 76h19v1h-19zM66 76h26v1h-26zM4 77h11v1h-11zM31 77h19v1h-19zM63 77h28v1h-28zM4 78h11v1h-11zM31 78h19v1h-19zM61 78h29v1h-29zM4 79h11v1h-11zM31 79h19v1h-19zM58 79h1v1h-1zM60 79h29v1h-29zM31 80h18v1h-18zM52 80h1v1h-1zM56 80h34v1h-34zM16 81h14v1h-14zM50 81h39v1h-39zM16 82h14v1h-14zM50 82h37v1h-37zM16 83h14v1h-14zM50 83h36v1h-36zM16 84h14v1h-14zM50 84h36v1h-36zM16 85h14v1h-14zM50 85h34v1h-34zM16 86h14v1h-14zM50 86h34v1h-34zM16 87h14v1h-14zM50 87h32v1h-32zM16 88h14v1h-14zM50 88h32v1h-32zM16 89h14v1h-14zM50 89h29v1h-29zM80 89h1v1h-1zM16 90h14v1h-14zM50 90h28v1h-28zM16 91h14v1h-14zM50 91h27v1h-27zM16 92h14v1h-14zM50 92h26v1h-26zM16 93h14v1h-14zM50 93h24v1h-24zM16 94h14v1h-14zM50 94h21v1h-21zM50 95h21v1h-21zM50 96h17v1h-17zM50 97h14v1h-14zM65 97h1v1h-1zM50 98h10v1h-10zM50 99h2v1h-2zM53 99h1v1h-1zM55 99h1v1h-1z" /></svg>