<svg xmlns="http://www.w3.org/2000/svg" viewBox="0 0 100 100" width="1em" height="1em"><path fill="#2aa976" d="M46 0h1v1h-1zM46 1h1v1h-1zM46 2h1v1h-1zM46 3h1v1h-1zM46 4h1v1h-1zM46 5h1v1h-1zM46 6h1v1h-1zM46 7h1v1h-1zM46 8h1v1h-1zM46 9h1v1h-1zM46 10h1v1h-1zM46 11h1v1h-1zM46 12h1v1h-1zM46 13h1v1h-1zM46 14h1v1h-1zM46 15h1v1h-1zM46 16h1v1h-1zM46 17h1v1h-1zM46 18h1v1h-1zM46 19h1v1h-1zM46 20h1v1h-1zM46 21h1v1h-1zM46 22h1v1h-1zM46 23h1v1h-1zM22 28h1v1h-1zM11 53h1v1h-1zM36 76h1v1h-1zM70 81h1v1h-1zM64 88h1v1h-1zM59 91h1v1h-1zM78 95h1v1h-1zM71 99h1v1h-1z" /><path fill="#2ba977" d="M47 0h15v1h-15zM72 0h16v1h-16zM47 1h15v1h-15zM72 1h16v1h-16zM47 2h15v1h-15zM72 2h16v1h-16zM47 3h15v1h-15zM72 3h16v1h-16zM47 4h15v1h-15zM72 4h16v1h-16zM47 5h15v1h-15zM72 5h16v1h-16zM47 6h15v1h-15zM72 6h16v1h-16zM47 7h15v1h-15zM72 7h16v1h-16zM47 8h15v1h-15zM72 8h16v1h-16zM47 9h15v1h-15zM72 9h16v1h-16zM47 10h15v1h-15zM72 10h16v1h-16zM47 11h15v1h-15zM72 11h16v1h-16zM47 12h15v1h-15zM72 12h16v1h-16zM47 13h15v1h-15zM72 13h16v1h-16zM47 14h15v1h-15zM72 14h16v1h-16zM47 15h15v1h-15zM72 15h16v1h-16zM47 16h15v1h-15zM47 17h15v1h-15zM47 18h15v1h-15zM47 19h15v1h-15zM47 20h15v1h-15zM47 21h15v1h-15zM47 22h15v1h-15zM47 23h15v1h-15zM36 24h6v1h-6zM47 24h15v1h-15zM30 25h32v1h-32zM27 26h35v1h-35zM73 26h16v1h-16zM25 27h37v1h-37zM73 27h16v1h-16zM23 28h39v1h-39zM73 28h16v1h-16zM22 29h40v1h-40zM73 29h16v1h-16zM21 30h41v1h-41zM73 30h16v1h-16zM19 31h43v1h-43zM73 31h16v1h-16zM18 32h44v1h-44zM73 32h16v1h-16zM17 33h45v1h-45zM73 33h16v1h-16zM17 34h45v1h-45zM73 34h16v1h-16zM16 35h46v1h-46zM73 35h16v1h-16zM15 36h47v1h-47zM73 36h16v1h-16zM15 37h21v1h-21zM44 37h1v1h-1zM46 37h16v1h-16zM73 37h16v1h-16zM14 38h20v1h-20zM47 38h15v1h-15zM73 38h16v1h-16zM14 39h18v1h-18zM47 39h15v1h-15zM73 39h16v1h-16zM13 40h18v1h-18zM47 40h15v1h-15zM73 40h16v1h-16zM13 41h17v1h-17zM47 41h15v1h-15zM73 41h16v1h-16zM13 42h17v1h-17zM47 42h15v1h-15zM73 42h16v1h-16zM12 43h17v1h-17zM47 43h15v1h-15zM73 43h16v1h-16zM12 44h17v1h-17zM47 44h15v1h-15zM73 44h16v1h-16zM12 45h16v1h-16zM47 45h15v1h-15zM73 45h16v1h-16zM12 46h16v1h-16zM47 46h15v1h-15zM73 46h16v1h-16zM12 47h16v1h-16zM47 47h15v1h-15zM73 47h16v1h-16zM12 48h16v1h-16zM47 48h15v1h-15zM73 48h16v1h-16zM12 49h16v1h-16zM47 49h15v1h-15zM73 49h16v1h-16zM12 50h16v1h-16zM47 50h15v1h-15zM73 50h16v1h-16zM12 51h16v1h-16zM47 51h15v1h-15zM73 51h16v1h-16zM12 52h16v1h-16zM47 52h15v1h-15zM73 52h16v1h-16zM12 53h16v1h-16zM47 53h15v1h-15zM73 53h16v1h-16zM12 54h16v1h-16zM47 54h15v1h-15zM73 54h16v1h-16zM12 55h16v1h-16zM47 55h15v1h-15zM73 55h16v1h-16zM12 56h16v1h-16zM47 56h15v1h-15zM73 56h16v1h-16zM12 57h17v1h-17zM47 57h15v1h-15zM73 57h16v1h-16zM12 58h17v1h-17zM47 58h15v1h-15zM73 58h16v1h-16zM13 59h17v1h-17zM47 59h15v1h-15zM73 59h16v1h-16zM13 60h17v1h-17zM47 60h15v1h-15zM73 60h16v1h-16zM13 61h18v1h-18zM47 61h15v1h-15zM73 61h16v1h-16zM14 62h18v1h-18zM47 62h15v1h-15zM73 62h16v1h-16zM13 63h21v1h-21zM47 63h15v1h-15zM73 63h16v1h-16zM15 64h22v1h-22zM38 64h1v1h-1zM47 64h15v1h-15zM73 64h16v1h-16zM15 65h47v1h-47zM73 65h16v1h-16zM16 66h46v1h-46zM73 66h16v1h-16zM17 67h45v1h-45zM73 67h16v1h-16zM18 68h44v1h-44zM73 68h16v1h-16zM19 69h43v1h-43zM73 69h16v1h-16zM20 70h42v1h-42zM73 70h16v1h-16zM21 71h41v1h-41zM73 71h16v1h-16zM23 72h39v1h-39zM73 72h16v1h-16zM25 73h37v1h-37zM73 73h15v1h-15zM27 74h35v1h-35zM73 74h15v1h-15zM31 75h26v1h-26zM72 75h16v1h-16zM35 76h1v1h-1zM38 76h8v1h-8zM72 76h16v1h-16zM72 77h16v1h-16zM72 78h16v1h-16zM71 79h17v1h-17zM71 80h16v1h-16zM71 81h16v1h-16zM70 82h17v1h-17zM70 83h17v1h-17zM69 84h17v1h-17zM68 85h18v1h-18zM67 86h18v1h-18zM66 87h19v1h-19zM65 88h19v1h-19zM64 89h20v1h-20zM62 90h21v1h-21zM61 91h21v1h-21zM57 92h1v1h-1zM59 92h22v1h-22zM60 93h20v1h-20zM61 94h18v1h-18zM64 95h14v1h-14zM67 96h10v1h-10zM69 97h7v1h-7zM71 98h2v1h-2z" /><path fill="#2aa877" d="M62 0h1v1h-1zM62 1h1v1h-1zM62 2h1v1h-1zM62 3h1v1h-1zM62 4h1v1h-1zM62 5h1v1h-1zM62 6h1v1h-1zM62 7h1v1h-1zM62 8h1v1h-1zM62 9h1v1h-1zM62 10h1v1h-1zM62 11h1v1h-1zM62 12h1v1h-1zM62 13h1v1h-1zM62 14h1v1h-1zM62 15h1v1h-1zM62 16h1v1h-1zM62 17h1v1h-1zM62 18h1v1h-1zM62 19h1v1h-1zM62 20h1v1h-1zM62 21h1v1h-1zM62 22h1v1h-1zM62 23h1v1h-1zM42 24h1v1h-1zM62 24h1v1h-1zM29 25h1v1h-1zM62 25h1v1h-1zM62 26h1v1h-1zM24 27h1v1h-1zM62 27h1v1h-1zM62 28h1v1h-1zM62 29h1v1h-1zM62 30h1v1h-1zM18 31h1v1h-1zM62 31h1v1h-1zM62 32h1v1h-1zM62 33h1v1h-1zM62 34h1v1h-1zM62 35h1v1h-1zM62 36h1v1h-1zM36 37h1v1h-1zM62 37h1v1h-1zM62 38h1v1h-1zM62 39h1v1h-1zM62 40h1v1h-1zM62 41h1v1h-1zM12 42h1v1h-1zM62 42h1v1h-1zM62 43h1v1h-1zM62 44h1v1h-1zM11 45h1v1h-1zM62 45h1v1h-1zM62 46h1v1h-1zM62 47h1v1h-1zM62 48h1v1h-1zM11 49h1v1h-1zM62 49h1v1h-1zM62 50h1v1h-1zM62 51h1v1h-1zM62 52h1v1h-1zM62 53h1v1h-1zM62 54h1v1h-1zM62 55h1v1h-1zM62 56h1v1h-1zM62 57h1v1h-1zM62 58h1v1h-1zM62 59h1v1h-1zM62 60h1v1h-1zM62 61h1v1h-1zM13 62h1v1h-1zM62 62h1v1h-1zM62 63h1v1h-1zM62 64h1v1h-1zM62 65h1v1h-1zM62 66h1v1h-1zM16 67h1v1h-1zM62 67h1v1h-1zM17 68h1v1h-1zM62 68h1v1h-1zM62 69h1v1h-1zM62 70h1v1h-1zM62 71h1v1h-1zM72 71h1v1h-1zM62 72h1v1h-1zM62 73h1v1h-1zM88 74h1v1h-1zM29 75h1v1h-1zM46 76h2v1h-2zM51 76h1v1h-1zM88 76h1v1h-1zM71 77h1v1h-1zM87 80h1v1h-1zM68 84h1v1h-1zM86 84h1v1h-1zM84 88h1v1h-1zM63 89h1v1h-1zM58 92h1v1h-1zM65 96h2v1h-2zM73 98h1v1h-1zM72 99h1v1h-1z" /><path fill="#2ba877" d="M71 0h1v1h-1zM71 1h1v1h-1zM71 2h1v1h-1zM71 3h1v1h-1zM71 4h1v1h-1zM71 5h1v1h-1zM71 6h1v1h-1zM71 7h1v1h-1zM71 8h1v1h-1zM71 9h1v1h-1zM71 10h1v1h-1zM71 11h1v1h-1zM71 12h1v1h-1zM71 13h1v1h-1zM71 14h1v1h-1zM71 15h1v1h-1zM32 24h1v1h-1zM20 30h1v1h-1zM17 32h1v1h-1zM16 34h1v1h-1zM45 37h1v1h-1zM31 40h1v1h-1zM12 41h1v1h-1zM11 52h1v1h-1zM19 70h1v1h-1zM72 72h1v1h-1zM88 73h1v1h-1zM88 75h1v1h-1zM37 76h1v1h-1zM48 76h1v1h-1zM86 85h1v1h-1zM84 89h1v1h-1zM60 91h1v1h-1zM81 92h1v1h-1zM80 93h1v1h-1zM67 97h1v1h-1z" /><path fill="#2ba876" d="M72 16h15v1h-15zM28 25h1v1h-1zM21 29h1v1h-1zM13 39h1v1h-1zM28 47h1v1h-1zM28 54h1v1h-1zM11 55h1v1h-1zM30 60h1v1h-1zM32 62h1v1h-1zM43 64h1v1h-1zM45 64h2v1h-2zM22 72h1v1h-1zM23 73h1v1h-1zM72 73h1v1h-1zM72 74h1v1h-1zM28 75h1v1h-1zM50 76h1v1h-1zM70 80h1v1h-1zM69 82h1v1h-1zM87 82h1v1h-1zM67 85h1v1h-1zM85 86h1v1h-1zM79 94h1v1h-1zM77 96h1v1h-1zM74 98h1v1h-1z" /><path fill="#2aa977" d="M33 24h1v1h-1zM35 24h1v1h-1zM44 24h1v1h-1zM46 24h1v1h-1zM26 26h1v1h-1zM38 37h1v1h-1zM32 39h1v1h-1zM11 46h1v1h-1zM28 46h1v1h-1zM11 50h1v1h-1zM11 54h1v1h-1zM28 56h1v1h-1zM29 58h1v1h-1zM12 60h1v1h-1zM37 64h1v1h-1zM18 69h1v1h-1zM20 71h1v1h-1zM69 83h1v1h-1zM65 87h1v1h-1zM61 90h1v1h-1zM82 91h1v1h-1zM59 93h1v1h-1zM63 95h1v1h-1zM68 97h1v1h-1z" /><path fill="#2aa876" d="M34 24h1v1h-1zM43 24h1v1h-1zM15 35h1v1h-1zM14 37h1v1h-1zM34 38h1v1h-1zM29 43h1v1h-1zM11 48h1v1h-1zM11 51h1v1h-1zM11 56h1v1h-1zM12 59h1v1h-1zM31 61h1v1h-1zM14 64h1v1h-1zM39 64h1v1h-1zM44 64h1v1h-1zM62 74h1v1h-1zM58 75h1v1h-1zM33 76h1v1h-1zM88 77h1v1h-1zM71 78h1v1h-1zM85 87h1v1h-1zM70 98h1v1h-1z" /><path fill="#2ba976" d="M37 37h1v1h-1zM30 41h1v1h-1zM28 45h1v1h-1zM11 47h1v1h-1zM28 55h1v1h-1zM34 63h1v1h-1zM15 66h1v1h-1zM24 73h1v1h-1zM26 74h1v1h-1zM30 75h1v1h-1zM57 75h1v1h-1zM34 76h1v1h-1zM49 76h1v1h-1zM87 81h1v1h-1zM83 90h1v1h-1zM69 98h1v1h-1z" /></svg>