<svg xmlns="http://www.w3.org/2000/svg" viewBox="0 0 100 100" width="1em" height="1em"><path fill="#bfabfb" d="M15 6h1v1h-1zM17 6h5v1h-5zM14 7h11v1h-11zM12 8h15v1h-15zM11 9h17v1h-17zM10 10h19v1h-19zM9 11h21v1h-21zM8 12h23v1h-23zM8 13h24v1h-24zM7 14h26v1h-26zM7 15h27v1h-27zM7 16h28v1h-28zM6 17h30v1h-30zM6 18h31v1h-31zM6 19h32v1h-32zM6 20h33v1h-33zM6 21h34v1h-34zM7 22h34v1h-34zM7 23h35v1h-35zM7 24h37v1h-37zM7 25h37v1h-37zM8 26h37v1h-37zM9 27h36v1h-36zM10 28h36v1h-36zM11 29h35v1h-35zM11 30h35v1h-35zM13 31h34v1h-34zM13 32h34v1h-34zM15 33h32v1h-32zM15 34h32v1h-32zM16 35h31v1h-31zM18 36h29v1h-29zM18 37h28v1h-28zM19 38h27v1h-27zM21 39h24v1h-24zM21 40h24v1h-24zM23 41h21v1h-21zM23 42h20v1h-20zM24 43h18v1h-18zM26 44h15v1h-15zM28 45h11v1h-11zM31 46h6v1h-6zM62 53h8v1h-8zM60 54h12v1h-12zM58 55h16v1h-16zM56 56h19v1h-19zM56 57h20v1h-20zM55 58h22v1h-22zM55 59h23v1h-23zM53 60h26v1h-26zM54 61h26v1h-26zM53 62h28v1h-28zM53 63h29v1h-29zM53 64h30v1h-30zM53 65h31v1h-31zM53 66h32v1h-32zM53 67h33v1h-33zM53 68h34v1h-34zM53 69h35v1h-35zM54 70h35v1h-35zM54 71h36v1h-36zM55 72h36v1h-36zM55 73h37v1h-37zM56 74h37v1h-37zM57 75h36v1h-36zM57 76h36v1h-36zM59 77h34v1h-34zM59 78h34v1h-34zM60 79h34v1h-34zM62 80h32v1h-32zM62 81h32v1h-32zM63 82h30v1h-30zM65 83h28v1h-28zM65 84h28v1h-28zM67 85h26v1h-26zM67 86h25v1h-25zM68 87h23v1h-23zM70 88h21v1h-21zM70 89h20v1h-20zM72 90h17v1h-17zM73 91h14v1h-14zM75 92h11v1h-11zM77 93h5v1h-5zM84 93h1v1h-1z" /><path fill="#beaafa" d="M16 6h1v1h-1zM6 16h1v1h-1zM8 27h1v1h-1zM45 39h1v1h-1zM45 40h1v1h-1zM44 41h1v1h-1zM39 45h1v1h-1zM66 52h1v1h-1zM70 53h1v1h-1zM53 61h1v1h-1zM52 66h1v1h-1zM93 78h1v1h-1zM72 91h1v1h-1zM86 92h1v1h-1z" /><path fill="#bfaafa" d="M22 6h2v1h-2zM9 10h1v1h-1zM6 22h1v1h-1zM6 23h1v1h-1zM44 25h1v1h-1zM57 55h1v1h-1zM54 59h1v1h-1zM52 65h1v1h-1zM90 89h1v1h-1z" /><path fill="#7748f9" d="M76 6h1v1h-1zM78 6h6v1h-6zM74 7h12v1h-12zM72 8h17v1h-17zM72 9h17v1h-17zM71 10h19v1h-19zM69 11h23v1h-23zM69 12h23v1h-23zM68 13h24v1h-24zM66 14h27v1h-27zM66 15h28v1h-28zM64 16h30v1h-30zM64 17h30v1h-30zM63 18h31v1h-31zM61 19h33v1h-33zM61 20h33v1h-33zM60 21h34v1h-34zM58 22h35v1h-35zM58 23h35v1h-35zM57 24h36v1h-36zM55 25h37v1h-37zM54 26h38v1h-38zM55 27h37v1h-37zM54 28h36v1h-36zM54 29h36v1h-36zM53 30h35v1h-35zM53 31h35v1h-35zM52 32h34v1h-34zM53 33h33v1h-33zM53 34h31v1h-31zM53 35h30v1h-30zM53 36h30v1h-30zM53 37h28v1h-28zM54 38h26v1h-26zM53 39h27v1h-27zM55 40h23v1h-23zM55 41h23v1h-23zM56 42h20v1h-20zM57 43h18v1h-18zM58 44h16v1h-16zM60 45h12v1h-12zM60 46h1v1h-1zM62 46h8v1h-8zM64 47h1v1h-1zM67 47h2v1h-2zM31 52h1v1h-1zM30 53h8v1h-8zM28 54h12v1h-12zM25 55h17v1h-17zM25 56h18v1h-18zM24 57h20v1h-20zM22 58h23v1h-23zM22 59h23v1h-23zM20 60h26v1h-26zM20 61h26v1h-26zM19 62h28v1h-28zM17 63h30v1h-30zM17 64h30v1h-30zM16 65h32v1h-32zM14 66h33v1h-33zM14 67h33v1h-33zM12 68h35v1h-35zM12 69h35v1h-35zM10 70h36v1h-36zM10 71h36v1h-36zM9 72h36v1h-36zM8 73h37v1h-37zM8 74h36v1h-36zM7 75h36v1h-36zM7 76h36v1h-36zM7 77h35v1h-35zM6 78h35v1h-35zM6 79h34v1h-34zM6 80h33v1h-33zM6 81h32v1h-32zM6 82h31v1h-31zM6 83h30v1h-30zM6 84h28v1h-28zM7 85h27v1h-27zM8 86h24v1h-24zM8 87h23v1h-23zM8 88h23v1h-23zM10 89h19v1h-19zM11 90h17v1h-17zM11 91h17v1h-17zM14 92h11v1h-11zM16 93h6v1h-6z" /><path fill="#7747f8" d="M77 6h1v1h-1zM87 7h1v1h-1zM90 28h1v1h-1zM53 29h1v1h-1zM52 31h1v1h-1zM52 36h1v1h-1zM54 41h1v1h-1zM72 45h1v1h-1zM61 46h1v1h-1zM70 46h2v1h-2zM28 53h2v1h-2zM27 54h1v1h-1zM40 54h1v1h-1zM47 64h1v1h-1zM45 72h1v1h-1zM7 87h1v1h-1zM28 90h1v1h-1zM12 92h1v1h-1z" /><path fill="#7647f9" d="M84 6h1v1h-1zM70 10h1v1h-1zM68 12h1v1h-1zM67 13h1v1h-1zM65 15h1v1h-1zM92 25h1v1h-1zM43 56h1v1h-1zM23 57h1v1h-1zM21 59h1v1h-1zM19 61h1v1h-1zM18 62h1v1h-1zM16 64h1v1h-1zM15 65h1v1h-1zM13 67h1v1h-1zM11 69h1v1h-1zM6 85h1v1h-1zM15 93h1v1h-1z" /><path fill="#7648f9" d="M85 6h1v1h-1zM92 12h1v1h-1zM93 14h1v1h-1zM56 24h1v1h-1zM75 43h1v1h-1zM73 45h1v1h-1zM33 52h2v1h-2zM36 52h1v1h-1zM24 56h1v1h-1zM47 66h1v1h-1zM8 72h1v1h-1zM43 75h1v1h-1zM6 76h1v1h-1zM14 93h1v1h-1z" /><path fill="#beabfa" d="M13 7h1v1h-1zM27 8h1v1h-1zM10 9h1v1h-1zM46 30h1v1h-1zM43 42h1v1h-1zM25 44h1v1h-1zM27 45h1v1h-1zM40 45h1v1h-1zM30 46h1v1h-1zM37 46h1v1h-1zM65 52h1v1h-1zM59 54h1v1h-1zM72 54h1v1h-1zM54 72h1v1h-1zM93 82h1v1h-1zM91 87h1v1h-1zM87 91h1v1h-1zM82 93h1v1h-1z" /><path fill="#beabfb" d="M25 7h1v1h-1zM30 11h1v1h-1zM33 14h1v1h-1zM35 16h1v1h-1zM38 19h1v1h-1zM41 22h1v1h-1zM9 28h1v1h-1zM10 29h1v1h-1zM12 31h1v1h-1zM14 33h1v1h-1zM17 36h1v1h-1zM20 39h1v1h-1zM22 41h1v1h-1zM73 54h1v1h-1zM75 56h1v1h-1zM77 58h1v1h-1zM79 60h1v1h-1zM82 63h1v1h-1zM85 66h1v1h-1zM87 68h1v1h-1zM89 70h1v1h-1zM53 71h1v1h-1zM54 73h1v1h-1zM56 75h1v1h-1zM93 76h1v1h-1zM58 77h1v1h-1zM61 80h1v1h-1zM64 83h1v1h-1zM93 83h1v1h-1zM66 85h1v1h-1zM69 88h1v1h-1zM91 88h1v1h-1zM88 91h1v1h-1zM76 93h1v1h-1zM83 93h1v1h-1z" /><path fill="#7748f8" d="M86 7h1v1h-1zM92 13h1v1h-1zM53 28h1v1h-1zM57 44h1v1h-1zM74 44h1v1h-1zM66 47h1v1h-1zM38 53h2v1h-2zM42 55h1v1h-1zM44 57h1v1h-1zM46 60h1v1h-1zM46 70h1v1h-1zM44 74h1v1h-1zM13 92h1v1h-1z" /><path fill="#bfaafb" d="M11 8h1v1h-1zM28 9h1v1h-1zM8 11h1v1h-1zM6 15h1v1h-1zM46 29h1v1h-1zM29 46h1v1h-1zM63 52h1v1h-1zM68 52h1v1h-1zM58 54h1v1h-1zM74 55h1v1h-1zM54 58h1v1h-1zM52 63h1v1h-1zM52 68h1v1h-1z" /><path fill="#7648f8" d="M71 9h1v1h-1zM89 9h1v1h-1zM90 10h1v1h-1zM93 22h1v1h-1zM53 38h1v1h-1zM55 42h1v1h-1zM56 43h1v1h-1zM63 47h1v1h-1zM65 47h1v1h-1zM45 59h1v1h-1zM47 67h1v1h-1zM9 71h1v1h-1zM46 71h1v1h-1zM6 77h1v1h-1zM10 90h1v1h-1zM22 93h1v1h-1z" /><path fill="#bfabfa" d="M29 10h1v1h-1zM31 12h1v1h-1zM7 13h1v1h-1zM32 13h1v1h-1zM34 15h1v1h-1zM36 17h1v1h-1zM37 18h1v1h-1zM39 20h1v1h-1zM40 21h1v1h-1zM42 23h1v1h-1zM45 27h1v1h-1zM46 37h1v1h-1zM42 43h1v1h-1zM41 44h1v1h-1zM64 52h1v1h-1zM67 52h1v1h-1zM61 53h1v1h-1zM55 57h1v1h-1zM76 57h1v1h-1zM78 59h1v1h-1zM80 61h1v1h-1zM81 62h1v1h-1zM52 64h1v1h-1zM83 64h1v1h-1zM84 65h1v1h-1zM52 67h1v1h-1zM86 67h1v1h-1zM88 69h1v1h-1zM53 70h1v1h-1zM91 72h1v1h-1zM55 74h1v1h-1zM92 86h1v1h-1zM89 90h1v1h-1z" /><path fill="#7747f9" d="M63 17h1v1h-1zM62 18h1v1h-1zM60 20h1v1h-1zM59 21h1v1h-1zM57 23h1v1h-1zM93 23h1v1h-1zM88 30h1v1h-1zM86 32h1v1h-1zM84 34h1v1h-1zM52 35h1v1h-1zM83 35h1v1h-1zM81 37h1v1h-1zM80 38h1v1h-1zM78 40h1v1h-1zM76 42h1v1h-1zM26 54h1v1h-1zM41 54h1v1h-1zM45 58h1v1h-1zM47 63h1v1h-1zM47 68h1v1h-1zM45 73h1v1h-1zM7 74h1v1h-1zM34 84h1v1h-1zM32 86h1v1h-1zM31 87h1v1h-1zM29 89h1v1h-1zM25 92h1v1h-1zM23 93h1v1h-1z" /><path fill="#7647f8" d="M54 27h1v1h-1zM52 33h1v1h-1zM52 34h1v1h-1zM54 40h1v1h-1zM58 45h2v1h-2zM32 52h1v1h-1zM35 52h1v1h-1zM46 61h1v1h-1zM7 86h1v1h-1zM9 89h1v1h-1z" /><path fill="#beaafb" d="M46 38h1v1h-1zM38 46h1v1h-1zM60 53h1v1h-1zM71 53h1v1h-1zM90 71h1v1h-1zM93 77h1v1h-1zM71 90h1v1h-1zM74 92h1v1h-1z" /></svg>