<svg xmlns="http://www.w3.org/2000/svg" viewBox="0 0 100 100" width="1em" height="1em"><path fill="#230078" d="M27 0h1v1h-1zM25 1h1v1h-1zM27 1h2v1h-2zM30 1h1v1h-1zM25 2h6v1h-6zM22 3h12v1h-12zM21 4h14v1h-14zM18 5h1v1h-1zM20 5h16v1h-16zM37 5h1v1h-1zM18 6h20v1h-20zM15 7h26v1h-26zM14 8h28v1h-28zM11 9h1v1h-1zM13 9h30v1h-30zM44 9h1v1h-1zM11 10h34v1h-34zM8 11h40v1h-40zM6 12h44v1h-44zM8 13h41v1h-41zM11 14h38v1h-38zM11 15h1v1h-1zM13 15h36v1h-36zM14 16h35v1h-35zM15 17h34v1h-34zM18 18h31v1h-31zM18 19h1v1h-1zM20 19h29v1h-29zM21 20h28v1h-28zM22 21h27v1h-27zM25 22h24v1h-24zM25 23h1v1h-1zM27 23h22v1h-22zM28 24h21v1h-21zM28 25h21v1h-21zM72 25h1v1h-1zM28 26h21v1h-21zM70 26h3v1h-3zM28 27h21v1h-21zM68 27h8v1h-8zM28 28h21v1h-21zM67 28h10v1h-10zM28 29h21v1h-21zM65 29h13v1h-13zM79 29h1v1h-1zM28 30h21v1h-21zM63 30h17v1h-17zM28 31h21v1h-21zM61 31h22v1h-22zM28 32h21v1h-21zM58 32h1v1h-1zM60 32h24v1h-24zM28 33h21v1h-21zM58 33h27v1h-27zM86 33h1v1h-1zM28 34h21v1h-21zM56 34h31v1h-31zM28 35h21v1h-21zM54 35h36v1h-36zM28 36h21v1h-21zM51 36h40v1h-40zM28 37h21v1h-21zM51 37h41v1h-41zM28 38h19v1h-19zM52 38h41v1h-41zM28 39h17v1h-17zM55 39h38v1h-38zM28 40h15v1h-15zM44 40h1v1h-1zM56 40h37v1h-37zM28 41h14v1h-14zM58 41h35v1h-35zM28 42h12v1h-12zM59 42h34v1h-34zM28 43h10v1h-10zM60 43h1v1h-1zM62 43h31v1h-31zM28 44h8v1h-8zM37 44h1v1h-1zM63 44h30v1h-30zM28 45h7v1h-7zM65 45h28v1h-28zM28 46h5v1h-5zM66 46h27v1h-27zM28 47h3v1h-3zM68 47h25v1h-25zM28 48h1v1h-1zM30 48h1v1h-1zM70 48h23v1h-23zM72 49h21v1h-21zM27 50h1v1h-1zM72 50h21v1h-21zM25 51h1v1h-1zM27 51h2v1h-2zM30 51h1v1h-1zM72 51h21v1h-21zM25 52h6v1h-6zM72 52h21v1h-21zM23 53h11v1h-11zM72 53h21v1h-21zM21 54h14v1h-14zM72 54h21v1h-21zM18 55h1v1h-1zM20 55h16v1h-16zM37 55h1v1h-1zM72 55h21v1h-21zM18 56h20v1h-20zM72 56h21v1h-21zM15 57h26v1h-26zM72 57h21v1h-21zM14 58h28v1h-28zM72 58h21v1h-21zM11 59h1v1h-1zM13 59h30v1h-30zM44 59h1v1h-1zM72 59h21v1h-21zM11 60h34v1h-34zM72 60h21v1h-21zM8 61h40v1h-40zM72 61h21v1h-21zM6 62h44v1h-44zM72 62h20v1h-20zM8 63h41v1h-41zM72 63h19v1h-19zM11 64h38v1h-38zM72 64h18v1h-18zM11 65h1v1h-1zM13 65h36v1h-36zM72 65h15v1h-15zM14 66h35v1h-35zM72 66h13v1h-13zM86 66h1v1h-1zM15 67h34v1h-34zM72 67h12v1h-12zM18 68h31v1h-31zM72 68h11v1h-11zM18 69h1v1h-1zM20 69h29v1h-29zM72 69h8v1h-8zM21 70h28v1h-28zM72 70h6v1h-6zM79 70h1v1h-1zM22 71h27v1h-27zM72 71h5v1h-5zM25 72h24v1h-24zM72 72h4v1h-4zM25 73h1v1h-1zM27 73h22v1h-22zM72 73h1v1h-1zM28 74h21v1h-21zM28 75h21v1h-21zM28 76h21v1h-21zM28 77h21v1h-21zM28 78h21v1h-21zM28 79h21v1h-21zM28 80h21v1h-21zM28 81h21v1h-21zM28 82h21v1h-21zM28 83h21v1h-21zM28 84h21v1h-21zM28 85h21v1h-21zM28 86h21v1h-21zM28 87h22v1h-22zM28 88h19v1h-19zM28 89h17v1h-17zM28 90h15v1h-15zM44 90h1v1h-1zM28 91h14v1h-14zM28 92h12v1h-12zM28 93h10v1h-10zM28 94h8v1h-8zM37 94h1v1h-1zM28 95h7v1h-7zM28 96h5v1h-5zM28 97h3v1h-3zM28 98h1v1h-1zM30 98h1v1h-1z" /><path fill="#220078" d="M28 0h1v1h-1zM24 2h1v1h-1zM35 4h1v1h-1zM17 6h1v1h-1zM42 8h1v1h-1zM10 10h1v1h-1zM10 14h1v1h-1zM17 18h1v1h-1zM24 22h1v1h-1zM71 25h1v1h-1zM69 26h1v1h-1zM77 28h1v1h-1zM60 31h1v1h-1zM84 32h1v1h-1zM91 36h1v1h-1zM50 37h1v1h-1zM42 41h1v1h-1zM35 45h1v1h-1zM28 49h1v1h-1zM28 50h1v1h-1zM35 54h1v1h-1zM42 58h1v1h-1zM10 60h1v1h-1zM91 63h1v1h-1zM10 64h1v1h-1zM84 67h1v1h-1zM17 68h1v1h-1zM77 71h1v1h-1zM24 72h1v1h-1zM27 74h1v1h-1zM42 91h1v1h-1zM35 95h1v1h-1zM28 99h1v1h-1z" /><path fill="#230077" d="M26 1h1v1h-1zM29 1h1v1h-1zM20 4h1v1h-1zM19 5h1v1h-1zM36 5h1v1h-1zM13 8h1v1h-1zM12 9h1v1h-1zM43 9h1v1h-1zM12 15h1v1h-1zM13 16h1v1h-1zM19 19h1v1h-1zM20 20h1v1h-1zM26 23h1v1h-1zM27 24h1v1h-1zM66 28h1v1h-1zM64 29h1v1h-1zM78 29h1v1h-1zM62 30h1v1h-1zM57 33h1v1h-1zM85 33h1v1h-1zM49 37h1v1h-1zM92 37h1v1h-1zM47 38h1v1h-1zM54 39h1v1h-1zM43 40h1v1h-1zM57 41h1v1h-1zM40 42h1v1h-1zM36 44h1v1h-1zM62 44h1v1h-1zM33 46h1v1h-1zM67 47h1v1h-1zM29 48h1v1h-1zM69 48h1v1h-1zM26 51h1v1h-1zM29 51h1v1h-1zM22 53h1v1h-1zM20 54h1v1h-1zM19 55h1v1h-1zM36 55h1v1h-1zM13 58h1v1h-1zM12 59h1v1h-1zM43 59h1v1h-1zM92 62h1v1h-1zM12 65h1v1h-1zM13 66h1v1h-1zM85 66h1v1h-1zM19 69h1v1h-1zM20 70h1v1h-1zM78 70h1v1h-1zM26 73h1v1h-1zM47 88h1v1h-1zM43 90h1v1h-1zM40 92h1v1h-1zM36 94h1v1h-1zM33 96h1v1h-1zM29 98h1v1h-1z" /><path fill="#220077" d="M31 2h1v1h-1zM38 6h1v1h-1zM45 10h1v1h-1zM49 13h1v1h-1zM49 14h1v1h-1zM49 15h1v1h-1zM49 16h1v1h-1zM49 17h1v1h-1zM49 18h1v1h-1zM49 19h1v1h-1zM49 20h1v1h-1zM49 21h1v1h-1zM49 22h1v1h-1zM49 23h1v1h-1zM49 24h1v1h-1zM49 25h1v1h-1zM49 26h1v1h-1zM73 26h1v1h-1zM49 27h1v1h-1zM67 27h1v1h-1zM49 28h1v1h-1zM49 29h1v1h-1zM49 30h1v1h-1zM80 30h1v1h-1zM49 31h1v1h-1zM49 32h1v1h-1zM59 32h1v1h-1zM49 33h1v1h-1zM49 34h1v1h-1zM55 34h1v1h-1zM87 34h1v1h-1zM49 35h1v1h-1zM53 35h1v1h-1zM49 36h1v1h-1zM45 39h1v1h-1zM55 40h1v1h-1zM38 43h1v1h-1zM61 43h1v1h-1zM64 45h1v1h-1zM31 47h1v1h-1zM71 49h1v1h-1zM24 52h1v1h-1zM31 52h1v1h-1zM17 56h1v1h-1zM38 56h1v1h-1zM45 60h1v1h-1zM49 63h1v1h-1zM49 64h1v1h-1zM49 65h1v1h-1zM87 65h1v1h-1zM49 66h1v1h-1zM49 67h1v1h-1zM49 68h1v1h-1zM49 69h1v1h-1zM80 69h1v1h-1zM49 70h1v1h-1zM49 71h1v1h-1zM49 72h1v1h-1zM49 73h1v1h-1zM73 73h1v1h-1zM49 74h1v1h-1zM49 75h1v1h-1zM49 76h1v1h-1zM49 77h1v1h-1zM49 78h1v1h-1zM49 79h1v1h-1zM49 80h1v1h-1zM49 81h1v1h-1zM49 82h1v1h-1zM49 83h1v1h-1zM49 84h1v1h-1zM49 85h1v1h-1zM49 86h1v1h-1zM45 89h1v1h-1zM38 93h1v1h-1zM31 97h1v1h-1z" /></svg>