<svg xmlns="http://www.w3.org/2000/svg" viewBox="0 0 100 100"><path fill="#9d5025" fill-rule="evenodd" stroke="#9d5025" stroke-width=".1" d="M49 0h1v99h-3v-2h-2v-1h-2v-92h2v-1h2v-2h2zm-16 9h1v82h-1v-1h-3v-1h-1v-78h1v-1h3zm-12 6h1v70h-1v-1h-2v-1h-1v-66h1v-1h2zm-11 5h3v60h-3v-1h-1v-58h1z"/><path fill="#c7692c" fill-rule="evenodd" stroke="#c7692c" stroke-width=".1" d="M50 0h1v1h-1z"/><path fill="#c7682c" fill-rule="evenodd" stroke="#c7682c" stroke-width=".1" d="M50 1h1v12h-1zm0 86h1v12h-1z"/><path fill="#f68536" fill-rule="evenodd" stroke="#f68536" stroke-width=".1" d="M51 1h2v1h2v1h2v1h2v1h2v1h2v1h1v1h3v1h2v1h2v1h2v1h2v1h1v1h3v1h2v1h2v1h1v1h3v1h2v1h1v1h1v58h-1v1h-1v1h-2v1h-3v1h-1v1h-2v1h-2v1h-3v1h-1v1h-2v1h-2v1h-2v1h-2v1h-3v1h-1v1h-2v1h-2v1h-2v1h-2v1h-2v1h-2zm-16 8h3v1h3v1h1v78h-1v1h-2v1h-4zm-12 6h4v1h1v68h-1v1h-4zm-9 4h1v1h2v61h-1v-1h-2z"/><path fill="#9c5025" fill-rule="evenodd" stroke="#9c5025" stroke-width=".1" d="M46 2h1v1h-1zm-2 1h1v1h-1zm-12 6h1v1h-1zm-12 6h1v1h-1zm-8 4h1v1h-1zm0 61h1v1h-1zm8 4h1v1h-1zm12 6h1v1h-1zm12 6h1v1h-1zm2 1h1v1h-1z"/><path fill="#9d4f24" fill-rule="evenodd" stroke="#9d4f24" stroke-width=".1" d="M42 4h1v1h-1zm-13 6h1v1h-1zm-20 10h1v1h-1zm0 59h1v1h-1zm20 10h1v1h-1zm13 6h1v1h-1zm7 4h1v1h-1z"/><path fill="#9c4f25" fill-rule="evenodd" stroke="#9c4f25" stroke-width=".1" d="M42 5h1v5h-1zm0 85h1v5h-1z"/><path fill="#f68435" fill-rule="evenodd" stroke="#f68435" stroke-width=".1" d="M64 7h1v1h-1zm-26 2h1v1h-1zm38 4h1v1h-1zm-49 2h1v1h-1zm57 2h1v1h-1zm6 3h1v1h-1zm0 59h1v1h-1zm-75 1h1v1h-1zm69 2h1v1h-1zm-60 3h1v1h-1zm52 1h1v1h-1zm-12 6h1v1h-1z"/><path fill="#9e5125" fill-rule="evenodd" stroke="#9e5125" stroke-width=".1" d="M34 8h1v1h-1zm0 83h1v1h-1z"/><path fill="#f58436" fill-rule="evenodd" stroke="#f58436" stroke-width=".1" d="M35 8h1v1h-1zm6 2h1v1h-1zm-17 4h1v1h-1zm-9 5h1v1h-1zm26 70h1v1h-1z"/><path fill="#f68436" fill-rule="evenodd" stroke="#f68436" stroke-width=".1" d="M36 8h1v1h-1zm-9 76h1v1h-1z"/><path fill="#9e5025" fill-rule="evenodd" stroke="#9e5025" stroke-width=".1" d="M34 9h1v8h-1zm0 74h1v8h-1z"/><path fill="#f68535" fill-rule="evenodd" stroke="#f68535" stroke-width=".1" d="M39 9h1v1h-1zm52 12h1v58h-1z"/><path fill="#a35326" fill-rule="evenodd" stroke="#a35326" stroke-width=".1" d="M42 10h1v1h-1zm-20 69h1v1h-1zm20 10h1v1h-1z"/><path fill="#aa5728" fill-rule="evenodd" stroke="#aa5728" stroke-width=".1" d="M42 11h1v78h-1z"/><path fill="#cf6e2e" fill-rule="evenodd" stroke="#cf6e2e" stroke-width=".1" d="M50 13h1v1h-1zm0 73h1v1h-1z"/><path fill="#a05226" fill-rule="evenodd" stroke="#a05226" stroke-width=".1" d="M22 14h1v6h-1zm0 66h1v6h-1z"/><path fill="#f58535" fill-rule="evenodd" stroke="#f58535" stroke-width=".1" d="M23 14h1v1h-1zm-9 66h1v1h-1z"/><path fill="#d3702f" fill-rule="evenodd" stroke="#d3702f" stroke-width=".1" d="M50 14h1v72h-1z"/><path fill="#c0652b" fill-rule="evenodd" stroke="#c0652b" stroke-width=".1" d="M28 15h1v1h-1z"/><path fill="#9c5024" fill-rule="evenodd" stroke="#9c5024" stroke-width=".1" d="M18 16h1v1h-1zm0 67h1v1h-1z"/><path fill="#ca6b2e" fill-rule="evenodd" stroke="#ca6b2e" stroke-width=".1" d="M28 16h1v68h-1z"/><path fill="#a45427" fill-rule="evenodd" stroke="#a45427" stroke-width=".1" d="M34 17h1v1h-1z"/><path fill="#a55527" fill-rule="evenodd" stroke="#a55527" stroke-width=".1" d="M34 18h1v64h-1z"/><path fill="#e57c33" fill-rule="evenodd" stroke="#e57c33" stroke-width=".1" d="M13 19h1v62h-1z"/><path fill="#f58435" fill-rule="evenodd" stroke="#f58435" stroke-width=".1" d="M16 19h1v1h-1zm7 66h1v1h-1zm16 5h1v1h-1zm-4 1h1v1h-1z"/><path fill="#ce6e30" fill-rule="evenodd" stroke="#ce6e30" stroke-width=".1" d="M17 19h1v1h-1z"/><path fill="#df7832" fill-rule="evenodd" stroke="#df7832" stroke-width=".1" d="M17 20h1v60h-1z"/><path fill="#a25426" fill-rule="evenodd" stroke="#a25426" stroke-width=".1" d="M22 20h1v1h-1z"/><path fill="#ab5827" fill-rule="evenodd" stroke="#ab5827" stroke-width=".1" d="M22 21h1v58h-1z"/><path fill="#ca6a2e" fill-rule="evenodd" stroke="#ca6a2e" stroke-width=".1" d="M17 80h1v1h-1z"/><path fill="#a55427" fill-rule="evenodd" stroke="#a55427" stroke-width=".1" d="M34 82h1v1h-1z"/><path fill="#c1662b" fill-rule="evenodd" stroke="#c1662b" stroke-width=".1" d="M28 84h1v1h-1z"/><path fill="#f58536" fill-rule="evenodd" stroke="#f58536" stroke-width=".1" d="M36 91h1v1h-1z"/><path fill="#c66a2d" fill-rule="evenodd" stroke="#c66a2d" stroke-width=".1" d="M50 99h1v1h-1z"/></svg>