<svg xmlns="http://www.w3.org/2000/svg" viewBox="0 0 100 100" width="1em" height="1em"><path fill="#9d5025" d="M49 0h1v1h-1zM47 1h3v1h-3zM47 2h3v1h-3zM45 3h5v1h-5zM43 4h7v1h-7zM43 5h7v1h-7zM43 6h7v1h-7zM43 7h7v1h-7zM43 8h7v1h-7zM33 9h1v1h-1zM43 9h7v1h-7zM30 10h4v1h-4zM43 10h7v1h-7zM29 11h5v1h-5zM43 11h7v1h-7zM29 12h5v1h-5zM43 12h7v1h-7zM29 13h5v1h-5zM43 13h7v1h-7zM29 14h5v1h-5zM43 14h7v1h-7zM21 15h1v1h-1zM29 15h5v1h-5zM43 15h7v1h-7zM19 16h3v1h-3zM29 16h5v1h-5zM43 16h7v1h-7zM18 17h4v1h-4zM29 17h5v1h-5zM43 17h7v1h-7zM18 18h4v1h-4zM29 18h5v1h-5zM43 18h7v1h-7zM18 19h4v1h-4zM29 19h5v1h-5zM43 19h7v1h-7zM10 20h3v1h-3zM18 20h4v1h-4zM29 20h5v1h-5zM43 20h7v1h-7zM9 21h4v1h-4zM18 21h4v1h-4zM29 21h5v1h-5zM43 21h7v1h-7zM9 22h4v1h-4zM18 22h4v1h-4zM29 22h5v1h-5zM43 22h7v1h-7zM9 23h4v1h-4zM18 23h4v1h-4zM29 23h5v1h-5zM43 23h7v1h-7zM9 24h4v1h-4zM18 24h4v1h-4zM29 24h5v1h-5zM43 24h7v1h-7zM9 25h4v1h-4zM18 25h4v1h-4zM29 25h5v1h-5zM43 25h7v1h-7zM9 26h4v1h-4zM18 26h4v1h-4zM29 26h5v1h-5zM43 26h7v1h-7zM9 27h4v1h-4zM18 27h4v1h-4zM29 27h5v1h-5zM43 27h7v1h-7zM9 28h4v1h-4zM18 28h4v1h-4zM29 28h5v1h-5zM43 28h7v1h-7zM9 29h4v1h-4zM18 29h4v1h-4zM29 29h5v1h-5zM43 29h7v1h-7zM9 30h4v1h-4zM18 30h4v1h-4zM29 30h5v1h-5zM43 30h7v1h-7zM9 31h4v1h-4zM18 31h4v1h-4zM29 31h5v1h-5zM43 31h7v1h-7zM9 32h4v1h-4zM18 32h4v1h-4zM29 32h5v1h-5zM43 32h7v1h-7zM9 33h4v1h-4zM18 33h4v1h-4zM29 33h5v1h-5zM43 33h7v1h-7zM9 34h4v1h-4zM18 34h4v1h-4zM29 34h5v1h-5zM43 34h7v1h-7zM9 35h4v1h-4zM18 35h4v1h-4zM29 35h5v1h-5zM43 35h7v1h-7zM9 36h4v1h-4zM18 36h4v1h-4zM29 36h5v1h-5zM43 36h7v1h-7zM9 37h4v1h-4zM18 37h4v1h-4zM29 37h5v1h-5zM43 37h7v1h-7zM9 38h4v1h-4zM18 38h4v1h-4zM29 38h5v1h-5zM43 38h7v1h-7zM9 39h4v1h-4zM18 39h4v1h-4zM29 39h5v1h-5zM43 39h7v1h-7zM9 40h4v1h-4zM18 40h4v1h-4zM29 40h5v1h-5zM43 40h7v1h-7zM9 41h4v1h-4zM18 41h4v1h-4zM29 41h5v1h-5zM43 41h7v1h-7zM9 42h4v1h-4zM18 42h4v1h-4zM29 42h5v1h-5zM43 42h7v1h-7zM9 43h4v1h-4zM18 43h4v1h-4zM29 43h5v1h-5zM43 43h7v1h-7zM9 44h4v1h-4zM18 44h4v1h-4zM29 44h5v1h-5zM43 44h7v1h-7zM9 45h4v1h-4zM18 45h4v1h-4zM29 45h5v1h-5zM43 45h7v1h-7zM9 46h4v1h-4zM18 46h4v1h-4zM29 46h5v1h-5zM43 46h7v1h-7zM9 47h4v1h-4zM18 47h4v1h-4zM29 47h5v1h-5zM43 47h7v1h-7zM9 48h4v1h-4zM18 48h4v1h-4zM29 48h5v1h-5zM43 48h7v1h-7zM9 49h4v1h-4zM18 49h4v1h-4zM29 49h5v1h-5zM43 49h7v1h-7zM9 50h4v1h-4zM18 50h4v1h-4zM29 50h5v1h-5zM43 50h7v1h-7zM9 51h4v1h-4zM18 51h4v1h-4zM29 51h5v1h-5zM43 51h7v1h-7zM9 52h4v1h-4zM18 52h4v1h-4zM29 52h5v1h-5zM43 52h7v1h-7zM9 53h4v1h-4zM18 53h4v1h-4zM29 53h5v1h-5zM43 53h7v1h-7zM9 54h4v1h-4zM18 54h4v1h-4zM29 54h5v1h-5zM43 54h7v1h-7zM9 55h4v1h-4zM18 55h4v1h-4zM29 55h5v1h-5zM43 55h7v1h-7zM9 56h4v1h-4zM18 56h4v1h-4zM29 56h5v1h-5zM43 56h7v1h-7zM9 57h4v1h-4zM18 57h4v1h-4zM29 57h5v1h-5zM43 57h7v1h-7zM9 58h4v1h-4zM18 58h4v1h-4zM29 58h5v1h-5zM43 58h7v1h-7zM9 59h4v1h-4zM18 59h4v1h-4zM29 59h5v1h-5zM43 59h7v1h-7zM9 60h4v1h-4zM18 60h4v1h-4zM29 60h5v1h-5zM43 60h7v1h-7zM9 61h4v1h-4zM18 61h4v1h-4zM29 61h5v1h-5zM43 61h7v1h-7zM9 62h4v1h-4zM18 62h4v1h-4zM29 62h5v1h-5zM43 62h7v1h-7zM9 63h4v1h-4zM18 63h4v1h-4zM29 63h5v1h-5zM43 63h7v1h-7zM9 64h4v1h-4zM18 64h4v1h-4zM29 64h5v1h-5zM43 64h7v1h-7zM9 65h4v1h-4zM18 65h4v1h-4zM29 65h5v1h-5zM43 65h7v1h-7zM9 66h4v1h-4zM18 66h4v1h-4zM29 66h5v1h-5zM43 66h7v1h-7zM9 67h4v1h-4zM18 67h4v1h-4zM29 67h5v1h-5zM43 67h7v1h-7zM9 68h4v1h-4zM18 68h4v1h-4zM29 68h5v1h-5zM43 68h7v1h-7zM9 69h4v1h-4zM18 69h4v1h-4zM29 69h5v1h-5zM43 69h7v1h-7zM9 70h4v1h-4zM18 70h4v1h-4zM29 70h5v1h-5zM43 70h7v1h-7zM9 71h4v1h-4zM18 71h4v1h-4zM29 71h5v1h-5zM43 71h7v1h-7zM9 72h4v1h-4zM18 72h4v1h-4zM29 72h5v1h-5zM43 72h7v1h-7zM9 73h4v1h-4zM18 73h4v1h-4zM29 73h5v1h-5zM43 73h7v1h-7zM9 74h4v1h-4zM18 74h4v1h-4zM29 74h5v1h-5zM43 74h7v1h-7zM9 75h4v1h-4zM18 75h4v1h-4zM29 75h5v1h-5zM43 75h7v1h-7zM9 76h4v1h-4zM18 76h4v1h-4zM29 76h5v1h-5zM43 76h7v1h-7zM9 77h4v1h-4zM18 77h4v1h-4zM29 77h5v1h-5zM43 77h7v1h-7zM9 78h4v1h-4zM18 78h4v1h-4zM29 78h5v1h-5zM43 78h7v1h-7zM10 79h3v1h-3zM18 79h4v1h-4zM29 79h5v1h-5zM43 79h7v1h-7zM18 80h4v1h-4zM29 80h5v1h-5zM43 80h7v1h-7zM18 81h4v1h-4zM29 81h5v1h-5zM43 81h7v1h-7zM18 82h4v1h-4zM29 82h5v1h-5zM43 82h7v1h-7zM19 83h3v1h-3zM29 83h5v1h-5zM43 83h7v1h-7zM21 84h1v1h-1zM29 84h5v1h-5zM43 84h7v1h-7zM29 85h5v1h-5zM43 85h7v1h-7zM29 86h5v1h-5zM43 86h7v1h-7zM29 87h5v1h-5zM43 87h7v1h-7zM29 88h5v1h-5zM43 88h7v1h-7zM30 89h4v1h-4zM43 89h7v1h-7zM33 90h1v1h-1zM43 90h7v1h-7zM43 91h7v1h-7zM43 92h7v1h-7zM43 93h7v1h-7zM43 94h7v1h-7zM43 95h7v1h-7zM45 96h5v1h-5zM47 97h3v1h-3zM47 98h3v1h-3z" /><path fill="#c7692c" d="M50 0h1v1h-1z" /><path fill="#c7682c" d="M50 1h1v1h-1zM50 2h1v1h-1zM50 3h1v1h-1zM50 4h1v1h-1zM50 5h1v1h-1zM50 6h1v1h-1zM50 7h1v1h-1zM50 8h1v1h-1zM50 9h1v1h-1zM50 10h1v1h-1zM50 11h1v1h-1zM50 12h1v1h-1zM50 87h1v1h-1zM50 88h1v1h-1zM50 89h1v1h-1zM50 90h1v1h-1zM50 91h1v1h-1zM50 92h1v1h-1zM50 93h1v1h-1zM50 94h1v1h-1zM50 95h1v1h-1zM50 96h1v1h-1zM50 97h1v1h-1zM50 98h1v1h-1z" /><path fill="#f68536" d="M51 1h2v1h-2zM51 2h4v1h-4zM51 3h6v1h-6zM51 4h8v1h-8zM51 5h10v1h-10zM51 6h12v1h-12zM51 7h13v1h-13zM51 8h16v1h-16zM35 9h3v1h-3zM51 9h18v1h-18zM35 10h6v1h-6zM51 10h20v1h-20zM35 11h7v1h-7zM51 11h22v1h-22zM35 12h7v1h-7zM51 12h24v1h-24zM35 13h7v1h-7zM51 13h25v1h-25zM35 14h7v1h-7zM51 14h28v1h-28zM23 15h4v1h-4zM35 15h7v1h-7zM51 15h30v1h-30zM23 16h5v1h-5zM35 16h7v1h-7zM51 16h32v1h-32zM23 17h5v1h-5zM35 17h7v1h-7zM51 17h33v1h-33zM23 18h5v1h-5zM35 18h7v1h-7zM51 18h36v1h-36zM14 19h1v1h-1zM23 19h5v1h-5zM35 19h7v1h-7zM51 19h38v1h-38zM14 20h3v1h-3zM23 20h5v1h-5zM35 20h7v1h-7zM51 20h39v1h-39zM14 21h3v1h-3zM23 21h5v1h-5zM35 21h7v1h-7zM51 21h40v1h-40zM14 22h3v1h-3zM23 22h5v1h-5zM35 22h7v1h-7zM51 22h40v1h-40zM14 23h3v1h-3zM23 23h5v1h-5zM35 23h7v1h-7zM51 23h40v1h-40zM14 24h3v1h-3zM23 24h5v1h-5zM35 24h7v1h-7zM51 24h40v1h-40zM14 25h3v1h-3zM23 25h5v1h-5zM35 25h7v1h-7zM51 25h40v1h-40zM14 26h3v1h-3zM23 26h5v1h-5zM35 26h7v1h-7zM51 26h40v1h-40zM14 27h3v1h-3zM23 27h5v1h-5zM35 27h7v1h-7zM51 27h40v1h-40zM14 28h3v1h-3zM23 28h5v1h-5zM35 28h7v1h-7zM51 28h40v1h-40zM14 29h3v1h-3zM23 29h5v1h-5zM35 29h7v1h-7zM51 29h40v1h-40zM14 30h3v1h-3zM23 30h5v1h-5zM35 30h7v1h-7zM51 30h40v1h-40zM14 31h3v1h-3zM23 31h5v1h-5zM35 31h7v1h-7zM51 31h40v1h-40zM14 32h3v1h-3zM23 32h5v1h-5zM35 32h7v1h-7zM51 32h40v1h-40zM14 33h3v1h-3zM23 33h5v1h-5zM35 33h7v1h-7zM51 33h40v1h-40zM14 34h3v1h-3zM23 34h5v1h-5zM35 34h7v1h-7zM51 34h40v1h-40zM14 35h3v1h-3zM23 35h5v1h-5zM35 35h7v1h-7zM51 35h40v1h-40zM14 36h3v1h-3zM23 36h5v1h-5zM35 36h7v1h-7zM51 36h40v1h-40zM14 37h3v1h-3zM23 37h5v1h-5zM35 37h7v1h-7zM51 37h40v1h-40zM14 38h3v1h-3zM23 38h5v1h-5zM35 38h7v1h-7zM51 38h40v1h-40zM14 39h3v1h-3zM23 39h5v1h-5zM35 39h7v1h-7zM51 39h40v1h-40zM14 40h3v1h-3zM23 40h5v1h-5zM35 40h7v1h-7zM51 40h40v1h-40zM14 41h3v1h-3zM23 41h5v1h-5zM35 41h7v1h-7zM51 41h40v1h-40zM14 42h3v1h-3zM23 42h5v1h-5zM35 42h7v1h-7zM51 42h40v1h-40zM14 43h3v1h-3zM23 43h5v1h-5zM35 43h7v1h-7zM51 43h40v1h-40zM14 44h3v1h-3zM23 44h5v1h-5zM35 44h7v1h-7zM51 44h40v1h-40zM14 45h3v1h-3zM23 45h5v1h-5zM35 45h7v1h-7zM51 45h40v1h-40zM14 46h3v1h-3zM23 46h5v1h-5zM35 46h7v1h-7zM51 46h40v1h-40zM14 47h3v1h-3zM23 47h5v1h-5zM35 47h7v1h-7zM51 47h40v1h-40zM14 48h3v1h-3zM23 48h5v1h-5zM35 48h7v1h-7zM51 48h40v1h-40zM14 49h3v1h-3zM23 49h5v1h-5zM35 49h7v1h-7zM51 49h40v1h-40zM14 50h3v1h-3zM23 50h5v1h-5zM35 50h7v1h-7zM51 50h40v1h-40zM14 51h3v1h-3zM23 51h5v1h-5zM35 51h7v1h-7zM51 51h40v1h-40zM14 52h3v1h-3zM23 52h5v1h-5zM35 52h7v1h-7zM51 52h40v1h-40zM14 53h3v1h-3zM23 53h5v1h-5zM35 53h7v1h-7zM51 53h40v1h-40zM14 54h3v1h-3zM23 54h5v1h-5zM35 54h7v1h-7zM51 54h40v1h-40zM14 55h3v1h-3zM23 55h5v1h-5zM35 55h7v1h-7zM51 55h40v1h-40zM14 56h3v1h-3zM23 56h5v1h-5zM35 56h7v1h-7zM51 56h40v1h-40zM14 57h3v1h-3zM23 57h5v1h-5zM35 57h7v1h-7zM51 57h40v1h-40zM14 58h3v1h-3zM23 58h5v1h-5zM35 58h7v1h-7zM51 58h40v1h-40zM14 59h3v1h-3zM23 59h5v1h-5zM35 59h7v1h-7zM51 59h40v1h-40zM14 60h3v1h-3zM23 60h5v1h-5zM35 60h7v1h-7zM51 60h40v1h-40zM14 61h3v1h-3zM23 61h5v1h-5zM35 61h7v1h-7zM51 61h40v1h-40zM14 62h3v1h-3zM23 62h5v1h-5zM35 62h7v1h-7zM51 62h40v1h-40zM14 63h3v1h-3zM23 63h5v1h-5zM35 63h7v1h-7zM51 63h40v1h-40zM14 64h3v1h-3zM23 64h5v1h-5zM35 64h7v1h-7zM51 64h40v1h-40zM14 65h3v1h-3zM23 65h5v1h-5zM35 65h7v1h-7zM51 65h40v1h-40zM14 66h3v1h-3zM23 66h5v1h-5zM35 66h7v1h-7zM51 66h40v1h-40zM14 67h3v1h-3zM23 67h5v1h-5zM35 67h7v1h-7zM51 67h40v1h-40zM14 68h3v1h-3zM23 68h5v1h-5zM35 68h7v1h-7zM51 68h40v1h-40zM14 69h3v1h-3zM23 69h5v1h-5zM35 69h7v1h-7zM51 69h40v1h-40zM14 70h3v1h-3zM23 70h5v1h-5zM35 70h7v1h-7zM51 70h40v1h-40zM14 71h3v1h-3zM23 71h5v1h-5zM35 71h7v1h-7zM51 71h40v1h-40zM14 72h3v1h-3zM23 72h5v1h-5zM35 72h7v1h-7zM51 72h40v1h-40zM14 73h3v1h-3zM23 73h5v1h-5zM35 73h7v1h-7zM51 73h40v1h-40zM14 74h3v1h-3zM23 74h5v1h-5zM35 74h7v1h-7zM51 74h40v1h-40zM14 75h3v1h-3zM23 75h5v1h-5zM35 75h7v1h-7zM51 75h40v1h-40zM14 76h3v1h-3zM23 76h5v1h-5zM35 76h7v1h-7zM51 76h40v1h-40zM14 77h3v1h-3zM23 77h5v1h-5zM35 77h7v1h-7zM51 77h40v1h-40zM14 78h3v1h-3zM23 78h5v1h-5zM35 78h7v1h-7zM51 78h40v1h-40zM14 79h3v1h-3zM23 79h5v1h-5zM35 79h7v1h-7zM51 79h39v1h-39zM16 80h1v1h-1zM23 80h5v1h-5zM35 80h7v1h-7zM51 80h38v1h-38zM23 81h5v1h-5zM35 81h7v1h-7zM51 81h36v1h-36zM23 82h5v1h-5zM35 82h7v1h-7zM51 82h33v1h-33zM23 83h5v1h-5zM35 83h7v1h-7zM51 83h32v1h-32zM23 84h4v1h-4zM35 84h7v1h-7zM51 84h30v1h-30zM35 85h7v1h-7zM51 85h28v1h-28zM35 86h7v1h-7zM51 86h25v1h-25zM35 87h7v1h-7zM51 87h24v1h-24zM35 88h7v1h-7zM51 88h22v1h-22zM35 89h6v1h-6zM51 89h20v1h-20zM35 90h4v1h-4zM51 90h18v1h-18zM51 91h16v1h-16zM51 92h13v1h-13zM51 93h12v1h-12zM51 94h10v1h-10zM51 95h8v1h-8zM51 96h6v1h-6zM51 97h4v1h-4zM51 98h2v1h-2z" /><path fill="#9c5025" d="M46 2h1v1h-1zM44 3h1v1h-1zM32 9h1v1h-1zM20 15h1v1h-1zM12 19h1v1h-1zM12 80h1v1h-1zM20 84h1v1h-1zM32 90h1v1h-1zM44 96h1v1h-1zM46 97h1v1h-1z" /><path fill="#9d4f24" d="M42 4h1v1h-1zM29 10h1v1h-1zM9 20h1v1h-1zM9 79h1v1h-1zM29 89h1v1h-1zM42 95h1v1h-1zM49 99h1v1h-1z" /><path fill="#9c4f25" d="M42 5h1v1h-1zM42 6h1v1h-1zM42 7h1v1h-1zM42 8h1v1h-1zM42 9h1v1h-1zM42 90h1v1h-1zM42 91h1v1h-1zM42 92h1v1h-1zM42 93h1v1h-1zM42 94h1v1h-1z" /><path fill="#f68435" d="M64 7h1v1h-1zM38 9h1v1h-1zM76 13h1v1h-1zM27 15h1v1h-1zM84 17h1v1h-1zM90 20h1v1h-1zM90 79h1v1h-1zM15 80h1v1h-1zM84 82h1v1h-1zM24 85h1v1h-1zM76 86h1v1h-1zM64 92h1v1h-1z" /><path fill="#9e5125" d="M34 8h1v1h-1zM34 91h1v1h-1z" /><path fill="#f58436" d="M35 8h1v1h-1zM41 10h1v1h-1zM24 14h1v1h-1zM15 19h1v1h-1zM41 89h1v1h-1z" /><path fill="#f68436" d="M36 8h1v1h-1zM27 84h1v1h-1z" /><path fill="#9e5025" d="M34 9h1v1h-1zM34 10h1v1h-1zM34 11h1v1h-1zM34 12h1v1h-1zM34 13h1v1h-1zM34 14h1v1h-1zM34 15h1v1h-1zM34 16h1v1h-1zM34 83h1v1h-1zM34 84h1v1h-1zM34 85h1v1h-1zM34 86h1v1h-1zM34 87h1v1h-1zM34 88h1v1h-1zM34 89h1v1h-1zM34 90h1v1h-1z" /><path fill="#f68535" d="M39 9h1v1h-1zM91 21h1v1h-1zM91 22h1v1h-1zM91 23h1v1h-1zM91 24h1v1h-1zM91 25h1v1h-1zM91 26h1v1h-1zM91 27h1v1h-1zM91 28h1v1h-1zM91 29h1v1h-1zM91 30h1v1h-1zM91 31h1v1h-1zM91 32h1v1h-1zM91 33h1v1h-1zM91 34h1v1h-1zM91 35h1v1h-1zM91 36h1v1h-1zM91 37h1v1h-1zM91 38h1v1h-1zM91 39h1v1h-1zM91 40h1v1h-1zM91 41h1v1h-1zM91 42h1v1h-1zM91 43h1v1h-1zM91 44h1v1h-1zM91 45h1v1h-1zM91 46h1v1h-1zM91 47h1v1h-1zM91 48h1v1h-1zM91 49h1v1h-1zM91 50h1v1h-1zM91 51h1v1h-1zM91 52h1v1h-1zM91 53h1v1h-1zM91 54h1v1h-1zM91 55h1v1h-1zM91 56h1v1h-1zM91 57h1v1h-1zM91 58h1v1h-1zM91 59h1v1h-1zM91 60h1v1h-1zM91 61h1v1h-1zM91 62h1v1h-1zM91 63h1v1h-1zM91 64h1v1h-1zM91 65h1v1h-1zM91 66h1v1h-1zM91 67h1v1h-1zM91 68h1v1h-1zM91 69h1v1h-1zM91 70h1v1h-1zM91 71h1v1h-1zM91 72h1v1h-1zM91 73h1v1h-1zM91 74h1v1h-1zM91 75h1v1h-1zM91 76h1v1h-1zM91 77h1v1h-1zM91 78h1v1h-1z" /><path fill="#a35326" d="M42 10h1v1h-1zM22 79h1v1h-1zM42 89h1v1h-1z" /><path fill="#aa5728" d="M42 11h1v1h-1zM42 12h1v1h-1zM42 13h1v1h-1zM42 14h1v1h-1zM42 15h1v1h-1zM42 16h1v1h-1zM42 17h1v1h-1zM42 18h1v1h-1zM42 19h1v1h-1zM42 20h1v1h-1zM42 21h1v1h-1zM42 22h1v1h-1zM42 23h1v1h-1zM42 24h1v1h-1zM42 25h1v1h-1zM42 26h1v1h-1zM42 27h1v1h-1zM42 28h1v1h-1zM42 29h1v1h-1zM42 30h1v1h-1zM42 31h1v1h-1zM42 32h1v1h-1zM42 33h1v1h-1zM42 34h1v1h-1zM42 35h1v1h-1zM42 36h1v1h-1zM42 37h1v1h-1zM42 38h1v1h-1zM42 39h1v1h-1zM42 40h1v1h-1zM42 41h1v1h-1zM42 42h1v1h-1zM42 43h1v1h-1zM42 44h1v1h-1zM42 45h1v1h-1zM42 46h1v1h-1zM42 47h1v1h-1zM42 48h1v1h-1zM42 49h1v1h-1zM42 50h1v1h-1zM42 51h1v1h-1zM42 52h1v1h-1zM42 53h1v1h-1zM42 54h1v1h-1zM42 55h1v1h-1zM42 56h1v1h-1zM42 57h1v1h-1zM42 58h1v1h-1zM42 59h1v1h-1zM42 60h1v1h-1zM42 61h1v1h-1zM42 62h1v1h-1zM42 63h1v1h-1zM42 64h1v1h-1zM42 65h1v1h-1zM42 66h1v1h-1zM42 67h1v1h-1zM42 68h1v1h-1zM42 69h1v1h-1zM42 70h1v1h-1zM42 71h1v1h-1zM42 72h1v1h-1zM42 73h1v1h-1zM42 74h1v1h-1zM42 75h1v1h-1zM42 76h1v1h-1zM42 77h1v1h-1zM42 78h1v1h-1zM42 79h1v1h-1zM42 80h1v1h-1zM42 81h1v1h-1zM42 82h1v1h-1zM42 83h1v1h-1zM42 84h1v1h-1zM42 85h1v1h-1zM42 86h1v1h-1zM42 87h1v1h-1zM42 88h1v1h-1z" /><path fill="#cf6e2e" d="M50 13h1v1h-1zM50 86h1v1h-1z" /><path fill="#a05226" d="M22 14h1v1h-1zM22 15h1v1h-1zM22 16h1v1h-1zM22 17h1v1h-1zM22 18h1v1h-1zM22 19h1v1h-1zM22 80h1v1h-1zM22 81h1v1h-1zM22 82h1v1h-1zM22 83h1v1h-1zM22 84h1v1h-1zM22 85h1v1h-1z" /><path fill="#f58535" d="M23 14h1v1h-1zM14 80h1v1h-1z" /><path fill="#d3702f" d="M50 14h1v1h-1zM50 15h1v1h-1zM50 16h1v1h-1zM50 17h1v1h-1zM50 18h1v1h-1zM50 19h1v1h-1zM50 20h1v1h-1zM50 21h1v1h-1zM50 22h1v1h-1zM50 23h1v1h-1zM50 24h1v1h-1zM50 25h1v1h-1zM50 26h1v1h-1zM50 27h1v1h-1zM50 28h1v1h-1zM50 29h1v1h-1zM50 30h1v1h-1zM50 31h1v1h-1zM50 32h1v1h-1zM50 33h1v1h-1zM50 34h1v1h-1zM50 35h1v1h-1zM50 36h1v1h-1zM50 37h1v1h-1zM50 38h1v1h-1zM50 39h1v1h-1zM50 40h1v1h-1zM50 41h1v1h-1zM50 42h1v1h-1zM50 43h1v1h-1zM50 44h1v1h-1zM50 45h1v1h-1zM50 46h1v1h-1zM50 47h1v1h-1zM50 48h1v1h-1zM50 49h1v1h-1zM50 50h1v1h-1zM50 51h1v1h-1zM50 52h1v1h-1zM50 53h1v1h-1zM50 54h1v1h-1zM50 55h1v1h-1zM50 56h1v1h-1zM50 57h1v1h-1zM50 58h1v1h-1zM50 59h1v1h-1zM50 60h1v1h-1zM50 61h1v1h-1zM50 62h1v1h-1zM50 63h1v1h-1zM50 64h1v1h-1zM50 65h1v1h-1zM50 66h1v1h-1zM50 67h1v1h-1zM50 68h1v1h-1zM50 69h1v1h-1zM50 70h1v1h-1zM50 71h1v1h-1zM50 72h1v1h-1zM50 73h1v1h-1zM50 74h1v1h-1zM50 75h1v1h-1zM50 76h1v1h-1zM50 77h1v1h-1zM50 78h1v1h-1zM50 79h1v1h-1zM50 80h1v1h-1zM50 81h1v1h-1zM50 82h1v1h-1zM50 83h1v1h-1zM50 84h1v1h-1zM50 85h1v1h-1z" /><path fill="#c0652b" d="M28 15h1v1h-1z" /><path fill="#9c5024" d="M18 16h1v1h-1zM18 83h1v1h-1z" /><path fill="#ca6b2e" d="M28 16h1v1h-1zM28 17h1v1h-1zM28 18h1v1h-1zM28 19h1v1h-1zM28 20h1v1h-1zM28 21h1v1h-1zM28 22h1v1h-1zM28 23h1v1h-1zM28 24h1v1h-1zM28 25h1v1h-1zM28 26h1v1h-1zM28 27h1v1h-1zM28 28h1v1h-1zM28 29h1v1h-1zM28 30h1v1h-1zM28 31h1v1h-1zM28 32h1v1h-1zM28 33h1v1h-1zM28 34h1v1h-1zM28 35h1v1h-1zM28 36h1v1h-1zM28 37h1v1h-1zM28 38h1v1h-1zM28 39h1v1h-1zM28 40h1v1h-1zM28 41h1v1h-1zM28 42h1v1h-1zM28 43h1v1h-1zM28 44h1v1h-1zM28 45h1v1h-1zM28 46h1v1h-1zM28 47h1v1h-1zM28 48h1v1h-1zM28 49h1v1h-1zM28 50h1v1h-1zM28 51h1v1h-1zM28 52h1v1h-1zM28 53h1v1h-1zM28 54h1v1h-1zM28 55h1v1h-1zM28 56h1v1h-1zM28 57h1v1h-1zM28 58h1v1h-1zM28 59h1v1h-1zM28 60h1v1h-1zM28 61h1v1h-1zM28 62h1v1h-1zM28 63h1v1h-1zM28 64h1v1h-1zM28 65h1v1h-1zM28 66h1v1h-1zM28 67h1v1h-1zM28 68h1v1h-1zM28 69h1v1h-1zM28 70h1v1h-1zM28 71h1v1h-1zM28 72h1v1h-1zM28 73h1v1h-1zM28 74h1v1h-1zM28 75h1v1h-1zM28 76h1v1h-1zM28 77h1v1h-1zM28 78h1v1h-1zM28 79h1v1h-1zM28 80h1v1h-1zM28 81h1v1h-1zM28 82h1v1h-1zM28 83h1v1h-1z" /><path fill="#a45427" d="M34 17h1v1h-1z" /><path fill="#a55527" d="M34 18h1v1h-1zM34 19h1v1h-1zM34 20h1v1h-1zM34 21h1v1h-1zM34 22h1v1h-1zM34 23h1v1h-1zM34 24h1v1h-1zM34 25h1v1h-1zM34 26h1v1h-1zM34 27h1v1h-1zM34 28h1v1h-1zM34 29h1v1h-1zM34 30h1v1h-1zM34 31h1v1h-1zM34 32h1v1h-1zM34 33h1v1h-1zM34 34h1v1h-1zM34 35h1v1h-1zM34 36h1v1h-1zM34 37h1v1h-1zM34 38h1v1h-1zM34 39h1v1h-1zM34 40h1v1h-1zM34 41h1v1h-1zM34 42h1v1h-1zM34 43h1v1h-1zM34 44h1v1h-1zM34 45h1v1h-1zM34 46h1v1h-1zM34 47h1v1h-1zM34 48h1v1h-1zM34 49h1v1h-1zM34 50h1v1h-1zM34 51h1v1h-1zM34 52h1v1h-1zM34 53h1v1h-1zM34 54h1v1h-1zM34 55h1v1h-1zM34 56h1v1h-1zM34 57h1v1h-1zM34 58h1v1h-1zM34 59h1v1h-1zM34 60h1v1h-1zM34 61h1v1h-1zM34 62h1v1h-1zM34 63h1v1h-1zM34 64h1v1h-1zM34 65h1v1h-1zM34 66h1v1h-1zM34 67h1v1h-1zM34 68h1v1h-1zM34 69h1v1h-1zM34 70h1v1h-1zM34 71h1v1h-1zM34 72h1v1h-1zM34 73h1v1h-1zM34 74h1v1h-1zM34 75h1v1h-1zM34 76h1v1h-1zM34 77h1v1h-1zM34 78h1v1h-1zM34 79h1v1h-1zM34 80h1v1h-1zM34 81h1v1h-1z" /><path fill="#e57c33" d="M13 19h1v1h-1zM13 20h1v1h-1zM13 21h1v1h-1zM13 22h1v1h-1zM13 23h1v1h-1zM13 24h1v1h-1zM13 25h1v1h-1zM13 26h1v1h-1zM13 27h1v1h-1zM13 28h1v1h-1zM13 29h1v1h-1zM13 30h1v1h-1zM13 31h1v1h-1zM13 32h1v1h-1zM13 33h1v1h-1zM13 34h1v1h-1zM13 35h1v1h-1zM13 36h1v1h-1zM13 37h1v1h-1zM13 38h1v1h-1zM13 39h1v1h-1zM13 40h1v1h-1zM13 41h1v1h-1zM13 42h1v1h-1zM13 43h1v1h-1zM13 44h1v1h-1zM13 45h1v1h-1zM13 46h1v1h-1zM13 47h1v1h-1zM13 48h1v1h-1zM13 49h1v1h-1zM13 50h1v1h-1zM13 51h1v1h-1zM13 52h1v1h-1zM13 53h1v1h-1zM13 54h1v1h-1zM13 55h1v1h-1zM13 56h1v1h-1zM13 57h1v1h-1zM13 58h1v1h-1zM13 59h1v1h-1zM13 60h1v1h-1zM13 61h1v1h-1zM13 62h1v1h-1zM13 63h1v1h-1zM13 64h1v1h-1zM13 65h1v1h-1zM13 66h1v1h-1zM13 67h1v1h-1zM13 68h1v1h-1zM13 69h1v1h-1zM13 70h1v1h-1zM13 71h1v1h-1zM13 72h1v1h-1zM13 73h1v1h-1zM13 74h1v1h-1zM13 75h1v1h-1zM13 76h1v1h-1zM13 77h1v1h-1zM13 78h1v1h-1zM13 79h1v1h-1zM13 80h1v1h-1z" /><path fill="#f58435" d="M16 19h1v1h-1zM23 85h1v1h-1zM39 90h1v1h-1zM35 91h1v1h-1z" /><path fill="#ce6e30" d="M17 19h1v1h-1z" /><path fill="#df7832" d="M17 20h1v1h-1zM17 21h1v1h-1zM17 22h1v1h-1zM17 23h1v1h-1zM17 24h1v1h-1zM17 25h1v1h-1zM17 26h1v1h-1zM17 27h1v1h-1zM17 28h1v1h-1zM17 29h1v1h-1zM17 30h1v1h-1zM17 31h1v1h-1zM17 32h1v1h-1zM17 33h1v1h-1zM17 34h1v1h-1zM17 35h1v1h-1zM17 36h1v1h-1zM17 37h1v1h-1zM17 38h1v1h-1zM17 39h1v1h-1zM17 40h1v1h-1zM17 41h1v1h-1zM17 42h1v1h-1zM17 43h1v1h-1zM17 44h1v1h-1zM17 45h1v1h-1zM17 46h1v1h-1zM17 47h1v1h-1zM17 48h1v1h-1zM17 49h1v1h-1zM17 50h1v1h-1zM17 51h1v1h-1zM17 52h1v1h-1zM17 53h1v1h-1zM17 54h1v1h-1zM17 55h1v1h-1zM17 56h1v1h-1zM17 57h1v1h-1zM17 58h1v1h-1zM17 59h1v1h-1zM17 60h1v1h-1zM17 61h1v1h-1zM17 62h1v1h-1zM17 63h1v1h-1zM17 64h1v1h-1zM17 65h1v1h-1zM17 66h1v1h-1zM17 67h1v1h-1zM17 68h1v1h-1zM17 69h1v1h-1zM17 70h1v1h-1zM17 71h1v1h-1zM17 72h1v1h-1zM17 73h1v1h-1zM17 74h1v1h-1zM17 75h1v1h-1zM17 76h1v1h-1zM17 77h1v1h-1zM17 78h1v1h-1zM17 79h1v1h-1z" /><path fill="#a25426" d="M22 20h1v1h-1z" /><path fill="#ab5827" d="M22 21h1v1h-1zM22 22h1v1h-1zM22 23h1v1h-1zM22 24h1v1h-1zM22 25h1v1h-1zM22 26h1v1h-1zM22 27h1v1h-1zM22 28h1v1h-1zM22 29h1v1h-1zM22 30h1v1h-1zM22 31h1v1h-1zM22 32h1v1h-1zM22 33h1v1h-1zM22 34h1v1h-1zM22 35h1v1h-1zM22 36h1v1h-1zM22 37h1v1h-1zM22 38h1v1h-1zM22 39h1v1h-1zM22 40h1v1h-1zM22 41h1v1h-1zM22 42h1v1h-1zM22 43h1v1h-1zM22 44h1v1h-1zM22 45h1v1h-1zM22 46h1v1h-1zM22 47h1v1h-1zM22 48h1v1h-1zM22 49h1v1h-1zM22 50h1v1h-1zM22 51h1v1h-1zM22 52h1v1h-1zM22 53h1v1h-1zM22 54h1v1h-1zM22 55h1v1h-1zM22 56h1v1h-1zM22 57h1v1h-1zM22 58h1v1h-1zM22 59h1v1h-1zM22 60h1v1h-1zM22 61h1v1h-1zM22 62h1v1h-1zM22 63h1v1h-1zM22 64h1v1h-1zM22 65h1v1h-1zM22 66h1v1h-1zM22 67h1v1h-1zM22 68h1v1h-1zM22 69h1v1h-1zM22 70h1v1h-1zM22 71h1v1h-1zM22 72h1v1h-1zM22 73h1v1h-1zM22 74h1v1h-1zM22 75h1v1h-1zM22 76h1v1h-1zM22 77h1v1h-1zM22 78h1v1h-1z" /><path fill="#ca6a2e" d="M17 80h1v1h-1z" /><path fill="#a55427" d="M34 82h1v1h-1z" /><path fill="#c1662b" d="M28 84h1v1h-1z" /><path fill="#f58536" d="M36 91h1v1h-1z" /><path fill="#c66a2d" d="M50 99h1v1h-1z" /></svg>