<svg xmlns="http://www.w3.org/2000/svg" viewBox="0 0 100 100" width="1em" height="1em"><path fill="#2ccfed" d="M48 0h1v1h-1zM47 3h1v1h-1zM44 4h1v1h-1zM45 10h1v1h-1zM63 13h1v1h-1zM14 23h1v1h-1zM15 25h2v1h-2zM84 25h1v1h-1zM11 29h1v1h-1zM44 30h1v1h-1zM39 33h1v1h-1zM70 35h1v1h-1zM90 35h1v1h-1zM90 36h1v1h-1zM31 38h1v1h-1zM73 40h1v1h-1zM89 42h1v1h-1zM10 46h1v1h-1zM87 46h1v1h-1zM48 48h1v1h-1zM51 48h1v1h-1zM86 48h1v1h-1zM16 52h1v1h-1zM83 52h1v1h-1zM86 52h1v1h-1zM12 54h1v1h-1zM28 64h1v1h-1zM87 70h1v1h-1zM92 70h1v1h-1zM6 71h1v1h-1zM14 71h1v1h-1zM35 71h1v1h-1zM40 72h1v1h-1zM7 73h1v1h-1zM84 73h1v1h-1zM4 74h1v1h-1zM4 76h1v1h-1zM16 76h1v1h-1zM44 76h1v1h-1zM93 76h1v1h-1zM6 77h1v1h-1zM93 77h1v1h-1zM15 79h1v1h-1zM51 79h1v1h-1zM91 79h1v1h-1zM7 81h1v1h-1zM77 81h1v1h-1zM61 82h1v1h-1zM78 83h1v1h-1zM34 88h1v1h-1zM64 90h1v1h-1zM41 93h1v1h-1zM41 96h1v1h-1zM51 97h2v1h-2zM57 97h1v1h-1zM49 99h1v1h-1zM53 99h1v1h-1z" /><path fill="#2dd0ed" d="M49 0h1v1h-1zM47 1h6v1h-6zM46 2h2v1h-2zM52 2h2v1h-2zM45 3h2v1h-2zM53 3h2v1h-2zM45 4h1v1h-1zM54 4h2v1h-2zM44 5h3v1h-3zM54 5h2v1h-2zM44 6h2v1h-2zM54 6h2v1h-2zM44 7h2v1h-2zM54 7h3v1h-3zM45 8h1v1h-1zM54 8h4v1h-4zM45 9h2v1h-2zM53 9h2v1h-2zM57 9h3v1h-3zM46 10h3v1h-3zM52 10h2v1h-2zM59 10h3v1h-3zM47 11h6v1h-6zM60 11h2v1h-2zM48 12h1v1h-1zM61 12h1v1h-1zM62 13h1v1h-1zM62 14h2v1h-2zM63 15h2v1h-2zM64 16h1v1h-1zM64 17h2v1h-2zM65 18h2v1h-2zM65 19h3v1h-3zM65 20h3v1h-3zM21 21h1v1h-1zM23 21h10v1h-10zM34 21h1v1h-1zM66 21h3v1h-3zM73 21h4v1h-4zM79 21h1v1h-1zM17 22h20v1h-20zM67 22h1v1h-1zM73 22h9v1h-9zM16 23h4v1h-4zM32 23h1v1h-1zM35 23h1v1h-1zM56 23h1v1h-1zM58 23h5v1h-5zM67 23h2v1h-2zM80 23h4v1h-4zM85 23h1v1h-1zM14 24h3v1h-3zM55 24h5v1h-5zM61 24h1v1h-1zM68 24h1v1h-1zM83 24h3v1h-3zM13 25h2v1h-2zM52 25h7v1h-7zM68 25h2v1h-2zM85 25h3v1h-3zM12 26h2v1h-2zM49 26h5v1h-5zM68 26h2v1h-2zM87 26h2v1h-2zM11 27h1v1h-1zM47 27h4v1h-4zM69 27h1v1h-1zM88 27h2v1h-2zM10 28h2v1h-2zM45 28h3v1h-3zM69 28h2v1h-2zM89 28h1v1h-1zM9 29h2v1h-2zM43 29h3v1h-3zM69 29h2v1h-2zM89 29h3v1h-3zM8 30h2v1h-2zM41 30h3v1h-3zM69 30h3v1h-3zM90 30h1v1h-1zM8 31h2v1h-2zM39 31h3v1h-3zM70 31h1v1h-1zM90 31h2v1h-2zM8 32h2v1h-2zM37 32h3v1h-3zM70 32h2v1h-2zM91 32h1v1h-1zM8 33h2v1h-2zM36 33h2v1h-2zM70 33h2v1h-2zM91 33h1v1h-1zM8 34h1v1h-1zM34 34h3v1h-3zM71 34h2v1h-2zM91 34h1v1h-1zM8 35h2v1h-2zM33 35h2v1h-2zM71 35h1v1h-1zM91 35h2v1h-2zM7 36h2v1h-2zM31 36h3v1h-3zM71 36h2v1h-2zM91 36h2v1h-2zM8 37h1v1h-1zM30 37h2v1h-2zM71 37h2v1h-2zM91 37h1v1h-1zM8 38h2v1h-2zM28 38h3v1h-3zM71 38h2v1h-2zM91 38h1v1h-1zM8 39h2v1h-2zM26 39h3v1h-3zM71 39h2v1h-2zM91 39h2v1h-2zM8 40h2v1h-2zM26 40h2v1h-2zM72 40h1v1h-1zM90 40h2v1h-2zM9 41h1v1h-1zM25 41h3v1h-3zM71 41h2v1h-2zM90 41h2v1h-2zM8 42h3v1h-3zM24 42h2v1h-2zM71 42h2v1h-2zM90 42h1v1h-1zM9 43h3v1h-3zM23 43h2v1h-2zM71 43h3v1h-3zM89 43h2v1h-2zM9 44h2v1h-2zM22 44h1v1h-1zM72 44h2v1h-2zM89 44h2v1h-2zM10 45h2v1h-2zM21 45h1v1h-1zM72 45h2v1h-2zM88 45h2v1h-2zM11 46h1v1h-1zM20 46h1v1h-1zM72 46h2v1h-2zM88 46h2v1h-2zM11 47h2v1h-2zM19 47h1v1h-1zM72 47h2v1h-2zM87 47h2v1h-2zM12 48h1v1h-1zM18 48h2v1h-2zM50 48h1v1h-1zM72 48h2v1h-2zM87 48h2v1h-2zM17 49h2v1h-2zM48 49h5v1h-5zM72 49h2v1h-2zM86 49h2v1h-2zM16 50h3v1h-3zM47 50h7v1h-7zM72 50h2v1h-2zM86 50h1v1h-1zM15 51h3v1h-3zM46 51h8v1h-8zM72 51h2v1h-2zM85 51h2v1h-2zM15 52h1v1h-1zM46 52h8v1h-8zM72 52h2v1h-2zM84 52h2v1h-2zM14 53h1v1h-1zM46 53h8v1h-8zM72 53h2v1h-2zM83 53h2v1h-2zM13 54h2v1h-2zM47 54h7v1h-7zM72 54h2v1h-2zM83 54h1v1h-1zM12 55h3v1h-3zM48 55h5v1h-5zM72 55h2v1h-2zM82 55h2v1h-2zM12 56h1v1h-1zM18 56h1v1h-1zM48 56h3v1h-3zM72 56h2v1h-2zM11 57h2v1h-2zM19 57h1v1h-1zM72 57h2v1h-2zM11 58h1v1h-1zM20 58h1v1h-1zM72 58h2v1h-2zM10 59h2v1h-2zM21 59h1v1h-1zM72 59h2v1h-2zM10 60h1v1h-1zM22 60h1v1h-1zM72 60h2v1h-2zM9 61h2v1h-2zM23 61h2v1h-2zM72 61h2v1h-2zM8 62h3v1h-3zM24 62h3v1h-3zM72 62h1v1h-1zM9 63h1v1h-1zM25 63h2v1h-2zM72 63h1v1h-1zM8 64h2v1h-2zM26 64h2v1h-2zM72 64h1v1h-1zM8 65h2v1h-2zM26 65h3v1h-3zM71 65h2v1h-2zM8 66h2v1h-2zM29 66h3v1h-3zM71 66h2v1h-2zM8 67h2v1h-2zM30 67h2v1h-2zM71 67h2v1h-2zM8 68h1v1h-1zM30 68h4v1h-4zM71 68h2v1h-2zM7 69h3v1h-3zM33 69h2v1h-2zM70 69h2v1h-2zM8 70h5v1h-5zM34 70h3v1h-3zM71 70h2v1h-2zM88 70h4v1h-4zM7 71h7v1h-7zM36 71h2v1h-2zM70 71h2v1h-2zM86 71h7v1h-7zM5 72h4v1h-4zM13 72h2v1h-2zM37 72h3v1h-3zM70 72h2v1h-2zM85 72h2v1h-2zM92 72h2v1h-2zM5 73h2v1h-2zM14 73h2v1h-2zM39 73h3v1h-3zM69 73h2v1h-2zM85 73h1v1h-1zM93 73h2v1h-2zM5 74h1v1h-1zM14 74h2v1h-2zM41 74h3v1h-3zM70 74h1v1h-1zM84 74h2v1h-2zM94 74h1v1h-1zM4 75h2v1h-2zM15 75h1v1h-1zM43 75h3v1h-3zM69 75h2v1h-2zM84 75h2v1h-2zM94 75h2v1h-2zM5 76h1v1h-1zM15 76h1v1h-1zM45 76h3v1h-3zM69 76h2v1h-2zM84 76h2v1h-2zM94 76h2v1h-2zM5 77h1v1h-1zM14 77h2v1h-2zM47 77h4v1h-4zM69 77h1v1h-1zM84 77h2v1h-2zM94 77h1v1h-1zM5 78h2v1h-2zM14 78h2v1h-2zM49 78h4v1h-4zM85 78h1v1h-1zM93 78h2v1h-2zM6 79h2v1h-2zM13 79h2v1h-2zM31 79h1v1h-1zM50 79h1v1h-1zM52 79h5v1h-5zM85 79h2v1h-2zM92 79h2v1h-2zM6 80h8v1h-8zM31 80h2v1h-2zM55 80h5v1h-5zM82 80h11v1h-11zM8 81h4v1h-4zM31 81h2v1h-2zM57 81h8v1h-8zM66 81h1v1h-1zM80 81h4v1h-4zM88 81h4v1h-4zM32 82h1v1h-1zM60 82h1v1h-1zM62 82h20v1h-20zM32 83h2v1h-2zM65 83h1v1h-1zM68 83h9v1h-9zM33 84h1v1h-1zM33 85h2v1h-2zM34 86h1v1h-1zM34 87h3v1h-3zM64 87h1v1h-1zM35 88h2v1h-2zM64 88h1v1h-1zM36 89h1v1h-1zM63 89h2v1h-2zM36 90h2v1h-2zM62 90h2v1h-2zM37 91h3v1h-3zM62 91h1v1h-1zM38 92h2v1h-2zM61 92h2v1h-2zM39 93h2v1h-2zM60 93h2v1h-2zM40 94h2v1h-2zM59 94h2v1h-2zM40 95h4v1h-4zM57 95h3v1h-3zM42 96h4v1h-4zM56 96h2v1h-2zM44 97h3v1h-3zM48 97h2v1h-2zM53 97h4v1h-4zM46 98h10v1h-10z" /><path fill="#2cd0ed" d="M50 0h1v1h-1zM52 0h1v1h-1zM47 9h1v1h-1zM60 9h1v1h-1zM50 10h1v1h-1zM51 12h1v1h-1zM60 12h1v1h-1zM78 21h1v1h-1zM69 23h1v1h-1zM78 23h1v1h-1zM17 24h1v1h-1zM54 24h1v1h-1zM10 27h1v1h-1zM40 30h1v1h-1zM89 30h1v1h-1zM10 31h1v1h-1zM38 31h1v1h-1zM41 32h1v1h-1zM35 33h1v1h-1zM92 33h1v1h-1zM70 34h1v1h-1zM27 38h1v1h-1zM73 39h1v1h-1zM73 41h1v1h-1zM89 41h1v1h-1zM91 42h1v1h-1zM11 44h1v1h-1zM12 46h1v1h-1zM17 48h1v1h-1zM16 49h1v1h-1zM19 49h1v1h-1zM53 49h1v1h-1zM84 54h1v1h-1zM10 58h1v1h-1zM25 64h1v1h-1zM35 69h1v1h-1zM70 70h1v1h-1zM72 71h1v1h-1zM13 73h1v1h-1zM86 73h1v1h-1zM69 74h1v1h-1zM6 75h1v1h-1zM42 75h1v1h-1zM71 75h1v1h-1zM93 75h1v1h-1zM45 77h1v1h-1zM84 78h1v1h-1zM86 78h1v1h-1zM32 79h1v1h-1zM69 81h1v1h-1zM59 82h1v1h-1zM32 84h1v1h-1zM38 93h1v1h-1z" /><path fill="#2ccfec" d="M51 0h1v1h-1zM45 2h1v1h-1zM50 2h1v1h-1zM55 3h1v1h-1zM53 4h1v1h-1zM53 8h1v1h-1zM49 12h1v1h-1zM66 17h1v1h-1zM20 21h1v1h-1zM35 21h1v1h-1zM72 21h1v1h-1zM66 22h1v1h-1zM72 22h1v1h-1zM82 22h1v1h-1zM21 23h1v1h-1zM33 23h1v1h-1zM50 25h1v1h-1zM14 26h1v1h-1zM54 26h1v1h-1zM70 26h1v1h-1zM92 32h1v1h-1zM37 34h1v1h-1zM90 34h1v1h-1zM34 36h1v1h-1zM7 37h1v1h-1zM88 44h1v1h-1zM90 45h1v1h-1zM89 47h1v1h-1zM15 50h1v1h-1zM54 52h1v1h-1zM9 60h1v1h-1zM71 62h1v1h-1zM71 63h1v1h-1zM73 63h1v1h-1zM10 64h1v1h-1zM73 64h1v1h-1zM73 65h1v1h-1zM7 67h1v1h-1zM7 68h1v1h-1zM85 71h1v1h-1zM15 72h1v1h-1zM91 72h1v1h-1zM16 74h1v1h-1zM49 76h1v1h-1zM95 78h1v1h-1zM53 80h1v1h-1zM33 81h1v1h-1zM67 81h1v1h-1zM78 81h1v1h-1zM31 82h1v1h-1zM35 85h1v1h-1zM33 86h1v1h-1zM44 98h1v1h-1zM52 99h1v1h-1z" /><path fill="#2dd0ec" d="M46 1h1v1h-1zM49 2h1v1h-1zM57 7h1v1h-1zM55 9h2v1h-2zM50 12h1v1h-1zM64 14h1v1h-1zM62 15h1v1h-1zM60 22h1v1h-1zM77 23h1v1h-1zM69 24h1v1h-1zM67 25h1v1h-1zM48 26h1v1h-1zM46 27h1v1h-1zM51 27h1v1h-1zM49 28h1v1h-1zM71 29h1v1h-1zM69 31h1v1h-1zM7 33h1v1h-1zM90 33h1v1h-1zM7 34h1v1h-1zM33 34h1v1h-1zM7 35h1v1h-1zM30 36h1v1h-1zM90 37h1v1h-1zM10 41h1v1h-1zM85 49h1v1h-1zM88 49h1v1h-1zM54 51h1v1h-1zM53 55h1v1h-1zM34 68h1v1h-1zM33 70h1v1h-1zM37 70h1v1h-1zM39 71h1v1h-1zM41 72h1v1h-1zM38 73h1v1h-1zM71 74h1v1h-1zM93 74h1v1h-1zM16 75h1v1h-1zM6 76h1v1h-1zM4 77h1v1h-1zM70 77h1v1h-1zM54 78h1v1h-1zM12 79h1v1h-1zM30 79h1v1h-1zM58 79h1v1h-1zM14 80h1v1h-1zM61 80h1v1h-1zM13 81h1v1h-1zM79 83h1v1h-1zM65 89h1v1h-1zM38 90h1v1h-1zM36 91h1v1h-1zM42 94h1v1h-1zM56 95h1v1h-1zM60 95h1v1h-1zM54 96h1v1h-1zM42 97h1v1h-1zM50 97h1v1h-1zM47 99h2v1h-2z" /><path fill="#2dcfec" d="M53 1h1v1h-1zM51 2h1v1h-1zM46 7h1v1h-1zM44 8h1v1h-1zM46 8h1v1h-1zM52 9h1v1h-1zM51 10h1v1h-1zM62 12h1v1h-1zM63 16h1v1h-1zM37 22h1v1h-1zM20 23h1v1h-1zM22 23h2v1h-2zM36 23h1v1h-1zM79 23h1v1h-1zM84 23h1v1h-1zM13 24h1v1h-1zM53 24h1v1h-1zM67 24h1v1h-1zM86 24h1v1h-1zM12 25h1v1h-1zM51 25h1v1h-1zM88 25h1v1h-1zM11 26h1v1h-1zM85 26h2v1h-2zM12 27h1v1h-1zM43 28h1v1h-1zM48 28h1v1h-1zM42 29h1v1h-1zM46 29h1v1h-1zM10 30h1v1h-1zM36 32h1v1h-1zM40 32h1v1h-1zM90 32h1v1h-1zM38 33h1v1h-1zM92 34h1v1h-1zM32 35h1v1h-1zM9 36h1v1h-1zM29 37h1v1h-1zM92 37h1v1h-1zM92 38h1v1h-1zM29 39h1v1h-1zM90 39h1v1h-1zM25 40h1v1h-1zM28 40h1v1h-1zM71 40h1v1h-1zM26 42h1v1h-1zM22 43h1v1h-1zM25 43h1v1h-1zM91 43h1v1h-1zM21 44h1v1h-1zM23 44h1v1h-1zM12 45h1v1h-1zM20 45h1v1h-1zM22 45h1v1h-1zM19 46h1v1h-1zM21 46h1v1h-1zM20 47h1v1h-1zM49 48h1v1h-1zM87 50h1v1h-1zM74 51h1v1h-1zM14 52h1v1h-1zM15 53h1v1h-1zM85 53h1v1h-1zM46 54h1v1h-1zM11 56h1v1h-1zM13 56h1v1h-1zM19 56h1v1h-1zM51 56h1v1h-1zM18 57h1v1h-1zM20 57h1v1h-1zM19 58h1v1h-1zM21 58h1v1h-1zM20 59h1v1h-1zM22 59h1v1h-1zM11 60h1v1h-1zM21 60h1v1h-1zM23 60h1v1h-1zM22 61h1v1h-1zM23 62h1v1h-1zM73 62h1v1h-1zM8 63h1v1h-1zM71 64h1v1h-1zM29 65h1v1h-1zM7 66h1v1h-1zM28 66h1v1h-1zM29 67h1v1h-1zM72 69h1v1h-1zM13 70h1v1h-1zM38 71h1v1h-1zM9 72h1v1h-1zM11 72h1v1h-1zM94 72h1v1h-1zM95 73h1v1h-1zM6 74h1v1h-1zM41 75h1v1h-1zM46 75h1v1h-1zM43 76h1v1h-1zM83 76h1v1h-1zM51 77h1v1h-1zM7 78h1v1h-1zM30 78h1v1h-1zM53 78h1v1h-1zM57 79h1v1h-1zM87 79h1v1h-1zM60 80h1v1h-1zM12 81h1v1h-1zM68 81h1v1h-1zM79 81h1v1h-1zM84 81h1v1h-1zM87 81h1v1h-1zM92 81h1v1h-1zM33 82h1v1h-1zM64 83h1v1h-1zM66 83h2v1h-2zM77 83h1v1h-1zM35 86h1v1h-1zM63 88h1v1h-1zM37 89h1v1h-1zM59 93h1v1h-1zM58 94h1v1h-1zM43 97h1v1h-1zM45 98h1v1h-1zM51 99h1v1h-1z" /><path fill="#2cd0ec" d="M48 2h1v1h-1zM52 3h1v1h-1zM46 4h1v1h-1zM58 10h1v1h-1zM53 11h1v1h-1zM61 13h1v1h-1zM22 21h1v1h-1zM33 21h1v1h-1zM77 21h1v1h-1zM62 22h1v1h-1zM68 22h1v1h-1zM57 23h1v1h-1zM60 24h1v1h-1zM82 24h1v1h-1zM89 26h1v1h-1zM68 27h1v1h-1zM88 28h1v1h-1zM90 28h1v1h-1zM91 30h1v1h-1zM71 31h1v1h-1zM72 33h1v1h-1zM9 34h1v1h-1zM35 35h1v1h-1zM70 36h1v1h-1zM9 37h1v1h-1zM32 37h1v1h-1zM24 41h1v1h-1zM73 42h1v1h-1zM18 47h1v1h-1zM11 48h1v1h-1zM47 49h1v1h-1zM46 50h1v1h-1zM85 50h1v1h-1zM14 51h1v1h-1zM13 53h1v1h-1zM74 53h1v1h-1zM15 54h1v1h-1zM82 54h1v1h-1zM47 55h1v1h-1zM82 56h1v1h-1zM12 59h1v1h-1zM24 63h1v1h-1zM27 63h1v1h-1zM32 69h1v1h-1zM93 71h1v1h-1zM12 72h1v1h-1zM87 72h1v1h-1zM71 73h1v1h-1zM40 74h1v1h-1zM95 74h1v1h-1zM47 75h1v1h-1zM14 76h1v1h-1zM48 76h1v1h-1zM46 77h1v1h-1zM95 77h1v1h-1zM48 78h1v1h-1zM94 79h1v1h-1zM54 80h1v1h-1zM62 80h1v1h-1zM93 80h1v1h-1zM82 82h1v1h-1zM65 87h1v1h-1zM65 88h1v1h-1zM35 89h1v1h-1zM61 91h1v1h-1zM39 94h1v1h-1zM55 96h1v1h-1zM58 96h1v1h-1zM47 97h1v1h-1z" /><path fill="#2dcfed" d="M54 2h1v1h-1zM58 8h1v1h-1zM49 10h1v1h-1zM54 10h1v1h-1zM46 11h1v1h-1zM59 11h1v1h-1zM65 16h1v1h-1zM64 18h1v1h-1zM61 22h1v1h-1zM15 23h1v1h-1zM34 23h1v1h-1zM76 23h1v1h-1zM18 24h1v1h-1zM81 24h1v1h-1zM13 27h1v1h-1zM52 27h1v1h-1zM70 27h1v1h-1zM87 27h1v1h-1zM9 28h1v1h-1zM44 28h1v1h-1zM68 28h1v1h-1zM47 29h1v1h-1zM42 31h1v1h-1zM72 35h1v1h-1zM7 38h1v1h-1zM90 38h1v1h-1zM30 39h1v1h-1zM10 40h1v1h-1zM8 41h1v1h-1zM23 42h1v1h-1zM13 47h1v1h-1zM74 50h1v1h-1zM84 51h1v1h-1zM74 52h1v1h-1zM54 53h1v1h-1zM13 57h1v1h-1zM12 58h1v1h-1zM11 61h1v1h-1zM25 61h1v1h-1zM71 61h1v1h-1zM10 63h1v1h-1zM30 65h1v1h-1zM27 66h1v1h-1zM32 67h1v1h-1zM9 68h1v1h-1zM70 68h1v1h-1zM36 72h1v1h-1zM88 72h1v1h-1zM42 73h1v1h-1zM92 73h1v1h-1zM44 74h1v1h-1zM14 75h1v1h-1zM83 75h1v1h-1zM68 76h1v1h-1zM16 77h1v1h-1zM13 78h1v1h-1zM31 78h1v1h-1zM5 79h1v1h-1zM8 79h1v1h-1zM30 80h1v1h-1zM81 80h1v1h-1zM56 81h1v1h-1zM65 81h1v1h-1zM76 81h1v1h-1zM85 81h1v1h-1zM34 83h1v1h-1zM34 84h1v1h-1zM62 89h1v1h-1zM35 90h1v1h-1zM63 91h1v1h-1zM37 92h1v1h-1zM60 92h1v1h-1zM62 93h1v1h-1zM61 94h1v1h-1zM50 99h1v1h-1z" /><path fill="#2dd1ed" d="M56 6h1v1h-1z" /><path fill="#2cd1ed" d="M7 70h1v1h-1z" /><path fill="#2cd0ee" d="M84 79h1v1h-1z" /></svg>