<svg xmlns="http://www.w3.org/2000/svg" viewBox="0 0 100 100" width="1em" height="1em"><path fill="#a90432" d="M0 6h13v1h-13zM88 6h12v1h-12zM0 7h12v1h-12zM89 7h11v1h-11zM0 8h12v1h-12zM48 8h6v1h-6zM55 8h1v1h-1zM89 8h11v1h-11zM0 9h10v1h-10zM44 9h14v1h-14zM90 9h10v1h-10zM0 10h10v1h-10zM43 10h15v1h-15zM90 10h10v1h-10zM0 11h9v1h-9zM42 11h17v1h-17zM91 11h9v1h-9zM0 12h8v1h-8zM41 12h19v1h-19zM91 12h9v1h-9zM0 13h8v1h-8zM40 13h21v1h-21zM92 13h8v1h-8zM0 14h7v1h-7zM39 14h22v1h-22zM92 14h8v1h-8zM0 15h8v1h-8zM39 15h23v1h-23zM93 15h7v1h-7zM0 16h7v1h-7zM39 16h23v1h-23zM93 16h7v1h-7zM0 17h6v1h-6zM38 17h24v1h-24zM93 17h7v1h-7zM0 18h6v1h-6zM38 18h25v1h-25zM93 18h7v1h-7zM0 19h6v1h-6zM38 19h25v1h-25zM94 19h6v1h-6zM0 20h5v1h-5zM94 20h6v1h-6zM0 21h5v1h-5zM94 21h6v1h-6zM0 22h5v1h-5zM94 22h6v1h-6zM0 23h5v1h-5zM94 23h6v1h-6zM0 24h4v1h-4zM94 24h6v1h-6zM0 25h4v1h-4zM95 25h5v1h-5zM0 26h4v1h-4zM95 26h5v1h-5zM0 27h4v1h-4zM95 27h5v1h-5zM0 28h3v1h-3zM95 28h5v1h-5zM0 29h3v1h-3zM95 29h5v1h-5zM0 30h3v1h-3zM95 30h5v1h-5zM0 31h3v1h-3zM95 31h5v1h-5zM0 32h3v1h-3zM95 32h5v1h-5zM0 33h3v1h-3zM95 33h5v1h-5zM0 34h3v1h-3zM95 34h5v1h-5zM0 35h3v1h-3zM95 35h5v1h-5zM0 36h3v1h-3zM36 36h64v1h-64zM0 37h3v1h-3zM37 37h63v1h-63zM0 38h3v1h-3zM36 38h64v1h-64zM0 39h3v1h-3zM37 39h63v1h-63zM0 40h3v1h-3zM37 40h63v1h-63zM0 41h3v1h-3zM37 41h63v1h-63zM0 42h3v1h-3zM37 42h63v1h-63zM0 43h3v1h-3zM37 43h63v1h-63zM0 44h3v1h-3zM37 44h63v1h-63zM0 45h4v1h-4zM37 45h63v1h-63zM0 46h4v1h-4zM38 46h62v1h-62zM0 47h4v1h-4zM38 47h62v1h-62zM0 48h4v1h-4zM38 48h62v1h-62zM0 49h4v1h-4zM38 49h42v1h-42zM82 49h18v1h-18zM0 50h5v1h-5zM39 50h41v1h-41zM84 50h16v1h-16zM0 51h5v1h-5zM39 51h40v1h-40zM88 51h12v1h-12zM0 52h5v1h-5zM39 52h39v1h-39zM88 52h12v1h-12zM0 53h6v1h-6zM40 53h38v1h-38zM92 53h8v1h-8zM0 54h6v1h-6zM40 54h37v1h-37zM92 54h8v1h-8zM0 55h6v1h-6zM41 55h35v1h-35zM94 55h6v1h-6zM0 56h7v1h-7zM41 56h34v1h-34zM97 56h3v1h-3zM0 57h7v1h-7zM42 57h32v1h-32zM97 57h3v1h-3zM0 58h8v1h-8zM43 58h30v1h-30zM96 58h4v1h-4zM0 59h8v1h-8zM44 59h28v1h-28zM95 59h5v1h-5zM0 60h9v1h-9zM45 60h26v1h-26zM95 60h5v1h-5zM0 61h9v1h-9zM46 61h23v1h-23zM94 61h6v1h-6zM0 62h10v1h-10zM47 62h20v1h-20zM68 62h1v1h-1zM93 62h7v1h-7zM0 63h10v1h-10zM50 63h16v1h-16zM93 63h7v1h-7zM0 64h11v1h-11zM52 64h11v1h-11zM91 64h9v1h-9zM0 65h12v1h-12zM91 65h9v1h-9zM0 66h13v1h-13zM91 66h9v1h-9zM0 67h13v1h-13zM90 67h10v1h-10zM0 68h14v1h-14zM89 68h11v1h-11z" /><path fill="#a90431" d="M87 6h1v1h-1zM47 8h1v1h-1zM10 9h1v1h-1zM59 11h1v1h-1zM8 13h1v1h-1zM93 19h1v1h-1zM4 24h1v1h-1zM3 28h1v1h-1zM3 30h1v1h-1zM94 35h1v1h-1zM3 41h1v1h-1zM37 46h1v1h-1zM4 49h1v1h-1zM86 51h1v1h-1zM90 53h1v1h-1zM6 55h1v1h-1zM76 55h1v1h-1zM72 59h1v1h-1zM10 63h1v1h-1zM48 63h1v1h-1zM66 63h1v1h-1zM57 65h2v1h-2zM90 66h1v1h-1z" /><path fill="#a80431" d="M88 7h1v1h-1zM61 14h1v1h-1zM37 18h1v1h-1zM36 37h1v1h-1zM36 41h1v1h-1zM3 43h1v1h-1zM80 49h1v1h-1zM38 50h1v1h-1zM43 59h1v1h-1zM13 67h1v1h-1zM14 68h1v1h-1z" /><path fill="#a80332" d="M46 8h1v1h-1zM89 9h1v1h-1zM61 13h1v1h-1zM37 20h26v1h-26zM36 35h58v1h-58zM37 47h1v1h-1zM37 48h1v1h-1zM74 57h1v1h-1zM9 61h1v1h-1zM45 61h1v1h-1zM11 64h1v1h-1zM63 64h1v1h-1zM55 65h1v1h-1z" /><path fill="#a80432" d="M54 8h1v1h-1zM42 10h1v1h-1zM58 10h1v1h-1zM8 12h1v1h-1zM7 14h1v1h-1zM92 15h1v1h-1zM38 16h1v1h-1zM62 17h1v1h-1zM37 19h1v1h-1zM93 20h1v1h-1zM94 25h1v1h-1zM94 26h1v1h-1zM36 39h1v1h-1zM3 44h1v1h-1zM87 51h1v1h-1zM5 52h1v1h-1zM78 52h1v1h-1zM91 53h1v1h-1zM96 57h1v1h-1zM95 58h1v1h-1zM44 60h1v1h-1zM69 61h1v1h-1zM67 62h1v1h-1zM49 63h1v1h-1zM56 65h1v1h-1zM89 67h1v1h-1z" /><path fill="#a90332" d="M9 11h1v1h-1zM40 12h1v1h-1zM38 15h1v1h-1zM37 17h1v1h-1zM94 31h1v1h-1zM94 32h1v1h-1zM94 33h1v1h-1zM94 34h1v1h-1zM36 40h1v1h-1zM3 42h1v1h-1zM36 42h1v1h-1zM4 47h1v1h-1zM4 48h1v1h-1zM5 51h1v1h-1zM39 53h1v1h-1zM77 54h1v1h-1zM40 55h1v1h-1zM96 56h1v1h-1zM94 60h1v1h-1zM88 68h1v1h-1z" /><path fill="#a80331" d="M41 11h1v1h-1zM60 12h1v1h-1zM62 15h1v1h-1zM6 17h1v1h-1zM93 21h1v1h-1zM94 28h1v1h-1zM3 29h1v1h-1zM94 29h1v1h-1zM94 30h1v1h-1zM3 32h1v1h-1zM3 40h1v1h-1zM38 51h1v1h-1zM41 57h1v1h-1zM42 58h1v1h-1zM71 60h1v1h-1zM93 61h1v1h-1zM46 62h1v1h-1zM50 64h1v1h-1zM64 64h1v1h-1zM12 65h1v1h-1zM59 65h1v1h-1z" /><path fill="#a90331" d="M90 11h1v1h-1zM39 13h1v1h-1zM91 13h1v1h-1zM62 16h1v1h-1zM92 16h1v1h-1zM5 20h1v1h-1zM94 27h1v1h-1zM3 31h1v1h-1zM3 39h1v1h-1zM79 51h1v1h-1zM6 54h1v1h-1zM75 56h1v1h-1zM7 57h1v1h-1zM73 58h1v1h-1zM8 59h1v1h-1zM92 63h1v1h-1zM51 64h1v1h-1z" /><path fill="#231f1f" d="M1 77h7v1h-7zM16 77h5v1h-5zM33 77h2v1h-2zM77 77h2v1h-2zM76 78h1v1h-1zM96 78h1v1h-1zM69 79h1v1h-1zM76 79h1v1h-1zM50 80h1v1h-1zM55 80h1v1h-1zM76 80h1v1h-1zM76 81h1v1h-1zM76 82h1v1h-1zM88 82h1v1h-1zM49 83h1v1h-1zM76 83h1v1h-1zM70 84h1v1h-1zM76 84h1v1h-1zM48 85h1v1h-1zM71 85h1v1h-1zM76 85h1v1h-1zM54 86h1v1h-1zM76 86h1v1h-1zM22 87h1v1h-1zM52 87h2v1h-2zM76 87h1v1h-1zM73 88h1v1h-1zM20 89h1v1h-1zM4 90h4v1h-4zM36 90h4v1h-4zM86 90h1v1h-1z" /><path fill="#231f20" d="M52 77h2v1h-2zM66 77h2v1h-2zM1 78h7v1h-7zM16 78h7v1h-7zM33 78h2v1h-2zM52 78h2v1h-2zM66 78h2v1h-2zM77 78h2v1h-2zM89 78h7v1h-7zM1 79h7v1h-7zM16 79h2v1h-2zM21 79h3v1h-3zM33 79h2v1h-2zM51 79h4v1h-4zM66 79h3v1h-3zM77 79h2v1h-2zM87 79h4v1h-4zM94 79h3v1h-3zM1 80h2v1h-2zM16 80h2v1h-2zM22 80h2v1h-2zM33 80h2v1h-2zM51 80h4v1h-4zM66 80h4v1h-4zM77 80h2v1h-2zM87 80h2v1h-2zM96 80h2v1h-2zM1 81h2v1h-2zM16 81h2v1h-2zM22 81h3v1h-3zM33 81h2v1h-2zM51 81h4v1h-4zM66 81h5v1h-5zM77 81h2v1h-2zM86 81h2v1h-2zM1 82h2v1h-2zM16 82h2v1h-2zM22 82h3v1h-3zM33 82h2v1h-2zM50 82h2v1h-2zM54 82h2v1h-2zM66 82h6v1h-6zM77 82h2v1h-2zM86 82h2v1h-2zM1 83h2v1h-2zM16 83h2v1h-2zM22 83h2v1h-2zM33 83h2v1h-2zM50 83h2v1h-2zM54 83h2v1h-2zM66 83h2v1h-2zM70 83h2v1h-2zM77 83h2v1h-2zM85 83h3v1h-3zM1 84h7v1h-7zM16 84h2v1h-2zM22 84h2v1h-2zM33 84h2v1h-2zM49 84h2v1h-2zM54 84h2v1h-2zM66 84h2v1h-2zM71 84h2v1h-2zM77 84h2v1h-2zM85 84h3v1h-3zM1 85h7v1h-7zM16 85h8v1h-8zM33 85h2v1h-2zM49 85h2v1h-2zM55 85h2v1h-2zM66 85h2v1h-2zM72 85h2v1h-2zM77 85h2v1h-2zM85 85h2v1h-2zM93 85h6v1h-6zM1 86h2v1h-2zM16 86h6v1h-6zM33 86h2v1h-2zM49 86h2v1h-2zM55 86h2v1h-2zM66 86h2v1h-2zM73 86h1v1h-1zM77 86h2v1h-2zM85 86h3v1h-3zM93 86h6v1h-6zM1 87h2v1h-2zM16 87h2v1h-2zM20 87h2v1h-2zM33 87h2v1h-2zM48 87h3v1h-3zM54 87h3v1h-3zM66 87h2v1h-2zM73 87h2v1h-2zM77 87h2v1h-2zM85 87h3v1h-3zM96 87h3v1h-3zM1 88h2v1h-2zM16 88h2v1h-2zM21 88h2v1h-2zM33 88h2v1h-2zM48 88h10v1h-10zM66 88h2v1h-2zM74 88h5v1h-5zM86 88h2v1h-2zM96 88h3v1h-3zM1 89h2v1h-2zM16 89h2v1h-2zM21 89h2v1h-2zM33 89h2v1h-2zM48 89h2v1h-2zM51 89h4v1h-4zM56 89h2v1h-2zM66 89h2v1h-2zM74 89h5v1h-5zM86 89h3v1h-3zM96 89h2v1h-2zM1 90h2v1h-2zM16 90h2v1h-2zM22 90h3v1h-3zM33 90h2v1h-2zM47 90h2v1h-2zM56 90h3v1h-3zM66 90h2v1h-2zM76 90h3v1h-3zM87 90h4v1h-4zM95 90h2v1h-2zM1 91h7v1h-7zM16 91h2v1h-2zM22 91h3v1h-3zM33 91h7v1h-7zM47 91h2v1h-2zM57 91h2v1h-2zM66 91h2v1h-2zM77 91h2v1h-2zM88 91h8v1h-8zM1 92h7v1h-7zM16 92h2v1h-2zM23 92h3v1h-3zM33 92h7v1h-7zM46 92h2v1h-2zM57 92h2v1h-2zM66 92h2v1h-2zM77 92h2v1h-2zM90 92h5v1h-5z" /><path fill="#221e1f" d="M90 77h1v1h-1zM18 79h1v1h-1zM20 79h1v1h-1zM24 80h1v1h-1zM73 84h1v1h-1zM72 86h1v1h-1zM74 86h1v1h-1zM57 87h1v1h-1zM20 88h1v1h-1zM47 89h1v1h-1zM21 90h1v1h-1zM56 91h1v1h-1zM96 91h1v1h-1zM48 92h1v1h-1zM89 92h1v1h-1z" /><path fill="#221f20" d="M91 77h3v1h-3zM93 79h1v1h-1zM97 79h1v1h-1zM18 80h1v1h-1zM86 80h1v1h-1zM18 81h1v1h-1zM50 81h1v1h-1zM55 81h1v1h-1zM18 82h1v1h-1zM18 83h1v1h-1zM68 83h1v1h-1zM51 84h1v1h-1zM68 84h1v1h-1zM51 85h1v1h-1zM54 85h1v1h-1zM68 85h1v1h-1zM68 86h1v1h-1zM18 87h1v1h-1zM68 87h1v1h-1zM75 87h1v1h-1zM18 88h1v1h-1zM68 88h1v1h-1zM18 89h1v1h-1zM68 89h1v1h-1zM95 89h1v1h-1zM18 90h1v1h-1zM68 90h1v1h-1zM75 90h1v1h-1zM94 90h1v1h-1zM18 91h1v1h-1zM46 91h1v1h-1zM68 91h1v1h-1zM18 92h1v1h-1zM68 92h1v1h-1z" /><path fill="#221f1f" d="M94 77h1v1h-1zM68 78h1v1h-1zM92 79h1v1h-1zM21 80h1v1h-1zM96 81h1v1h-1zM24 83h1v1h-1zM53 83h1v1h-1zM56 83h1v1h-1zM87 85h1v1h-1zM57 86h1v1h-1zM51 87h1v1h-1zM47 88h1v1h-1zM85 88h1v1h-1zM98 89h1v1h-1zM76 91h1v1h-1z" /><path fill="#221e20" d="M0 78h1v1h-1zM35 78h1v1h-1zM54 78h1v1h-1zM0 79h1v1h-1zM35 79h1v1h-1zM91 79h1v1h-1zM0 80h1v1h-1zM35 80h1v1h-1zM0 81h1v1h-1zM35 81h1v1h-1zM0 82h1v1h-1zM35 82h1v1h-1zM0 83h1v1h-1zM3 83h1v1h-1zM35 83h1v1h-1zM0 84h1v1h-1zM24 84h1v1h-1zM35 84h1v1h-1zM0 85h1v1h-1zM35 85h1v1h-1zM0 86h1v1h-1zM35 86h1v1h-1zM0 87h1v1h-1zM19 87h1v1h-1zM35 87h1v1h-1zM0 88h1v1h-1zM35 88h1v1h-1zM88 88h1v1h-1zM0 89h1v1h-1zM35 89h1v1h-1zM50 89h1v1h-1zM89 89h1v1h-1zM0 90h1v1h-1zM0 91h1v1h-1zM59 91h1v1h-1zM0 92h1v1h-1zM22 92h1v1h-1z" /><path fill="#231e20" d="M23 78h1v1h-1zM88 78h1v1h-1zM24 79h1v1h-1zM95 80h1v1h-1zM88 81h1v1h-1zM20 84h1v1h-1zM56 84h1v1h-1zM3 90h1v1h-1zM97 90h1v1h-1zM87 91h1v1h-1zM92 93h1v1h-1z" /><path fill="#231e1f" d="M51 78h1v1h-1zM19 79h1v1h-1zM70 80h1v1h-1zM89 80h1v1h-1zM53 82h1v1h-1zM85 82h1v1h-1zM72 83h1v1h-1zM18 84h1v1h-1zM21 84h1v1h-1zM48 86h1v1h-1zM23 89h1v1h-1zM55 89h1v1h-1zM58 89h1v1h-1zM35 90h1v1h-1zM49 90h1v1h-1zM59 92h1v1h-1zM95 92h1v1h-1z" /></svg>