<svg xmlns="http://www.w3.org/2000/svg" viewBox="0 0 100 100" width="1em" height="1em"><path fill="#4b32c3" d="M25 6h2v1h-2zM28 6h44v1h-44zM73 6h1v1h-1zM25 7h50v1h-50zM24 8h52v1h-52zM23 9h54v1h-54zM23 10h55v1h-55zM22 11h56v1h-56zM22 12h57v1h-57zM21 13h59v1h-59zM21 14h58v1h-58zM19 15h29v1h-29zM51 15h29v1h-29zM19 16h28v1h-28zM54 16h27v1h-27zM19 17h25v1h-25zM45 17h1v1h-1zM54 17h1v1h-1zM56 17h25v1h-25zM18 18h25v1h-25zM57 18h25v1h-25zM18 19h23v1h-23zM59 19h23v1h-23zM17 20h22v1h-22zM40 20h1v1h-1zM61 20h22v1h-22zM17 21h21v1h-21zM61 21h1v1h-1zM63 21h20v1h-20zM15 22h21v1h-21zM64 22h20v1h-20zM15 23h19v1h-19zM66 23h19v1h-19zM15 24h17v1h-17zM67 24h18v1h-18zM14 25h18v1h-18zM69 25h17v1h-17zM13 26h16v1h-16zM71 26h15v1h-15zM12 27h16v1h-16zM72 27h15v1h-15zM13 28h12v1h-12zM26 28h1v1h-1zM75 28h12v1h-12zM12 29h12v1h-12zM76 29h12v1h-12zM11 30h11v1h-11zM78 30h11v1h-11zM11 31h10v1h-10zM80 31h10v1h-10zM10 32h9v1h-9zM81 32h9v1h-9zM10 33h9v1h-9zM81 33h9v1h-9zM9 34h10v1h-10zM81 34h10v1h-10zM8 35h11v1h-11zM81 35h10v1h-10zM8 36h11v1h-11zM81 36h11v1h-11zM7 37h12v1h-12zM81 37h12v1h-12zM7 38h12v1h-12zM81 38h12v1h-12zM6 39h13v1h-13zM81 39h14v1h-14zM6 40h13v1h-13zM81 40h14v1h-14zM5 41h14v1h-14zM81 41h14v1h-14zM4 42h15v1h-15zM81 42h15v1h-15zM4 43h15v1h-15zM81 43h15v1h-15zM3 44h16v1h-16zM81 44h16v1h-16zM3 45h16v1h-16zM81 45h16v1h-16zM2 46h17v1h-17zM81 46h17v1h-17zM2 47h17v1h-17zM81 47h17v1h-17zM1 48h18v1h-18zM81 48h18v1h-18zM1 49h18v1h-18zM81 49h18v1h-18zM1 50h18v1h-18zM81 50h18v1h-18zM1 51h18v1h-18zM81 51h18v1h-18zM1 52h18v1h-18zM81 52h18v1h-18zM2 53h17v1h-17zM81 53h18v1h-18zM3 54h16v1h-16zM81 54h16v1h-16zM3 55h16v1h-16zM81 55h17v1h-17zM3 56h16v1h-16zM81 56h15v1h-15zM4 57h15v1h-15zM81 57h15v1h-15zM5 58h14v1h-14zM81 58h14v1h-14zM5 59h14v1h-14zM81 59h14v1h-14zM6 60h13v1h-13zM81 60h13v1h-13zM7 61h12v1h-12zM81 61h12v1h-12zM7 62h12v1h-12zM81 62h12v1h-12zM8 63h11v1h-11zM81 63h12v1h-12zM8 64h11v1h-11zM81 64h11v1h-11zM9 65h10v1h-10zM81 65h11v1h-11zM9 66h10v1h-10zM81 66h10v1h-10zM10 67h9v1h-9zM80 67h10v1h-10zM11 68h8v1h-8zM81 68h8v1h-8zM11 69h10v1h-10zM79 69h11v1h-11zM12 70h11v1h-11zM77 70h11v1h-11zM12 71h12v1h-12zM74 71h1v1h-1zM76 71h12v1h-12zM13 72h13v1h-13zM74 72h13v1h-13zM14 73h15v1h-15zM72 73h14v1h-14zM14 74h16v1h-16zM69 74h18v1h-18zM14 75h17v1h-17zM32 75h1v1h-1zM69 75h16v1h-16zM15 76h18v1h-18zM67 76h18v1h-18zM15 77h20v1h-20zM65 77h19v1h-19zM16 78h22v1h-22zM63 78h21v1h-21zM17 79h21v1h-21zM39 79h1v1h-1zM61 79h22v1h-22zM18 80h22v1h-22zM60 80h22v1h-22zM18 81h24v1h-24zM58 81h24v1h-24zM19 82h25v1h-25zM55 82h1v1h-1zM57 82h25v1h-25zM19 83h26v1h-26zM55 83h26v1h-26zM20 84h27v1h-27zM53 84h28v1h-28zM20 85h30v1h-30zM51 85h29v1h-29zM21 86h58v1h-58zM21 87h57v1h-57zM21 88h57v1h-57zM23 89h54v1h-54zM23 90h54v1h-54zM24 91h52v1h-52zM25 92h50v1h-50zM27 93h1v1h-1zM72 93h1v1h-1z" /><path fill="#4a32c2" d="M27 6h1v1h-1zM72 6h1v1h-1zM24 7h1v1h-1zM55 17h1v1h-1zM43 18h1v1h-1zM41 19h1v1h-1zM16 20h1v1h-1zM16 21h1v1h-1zM83 21h1v1h-1zM25 28h1v1h-1zM87 28h1v1h-1zM88 29h1v1h-1zM98 47h1v1h-1zM99 49h1v1h-1zM8 65h1v1h-1zM90 67h1v1h-1zM10 68h1v1h-1zM89 68h1v1h-1zM21 69h1v1h-1zM75 71h1v1h-1zM12 72h1v1h-1zM31 75h1v1h-1zM17 81h1v1h-1zM20 86h1v1h-1zM79 86h1v1h-1zM78 87h1v1h-1zM22 89h1v1h-1zM76 91h1v1h-1z" /><path fill="#4b31c2" d="M74 6h1v1h-1zM48 15h1v1h-1zM53 16h1v1h-1zM81 17h1v1h-1zM82 19h1v1h-1zM32 24h1v1h-1zM29 26h1v1h-1zM24 29h1v1h-1zM77 30h1v1h-1zM79 31h1v1h-1zM5 40h1v1h-1zM3 43h1v1h-1zM2 45h1v1h-1zM0 48h1v1h-1zM2 55h1v1h-1zM94 60h1v1h-1zM20 68h1v1h-1zM10 69h1v1h-1zM73 72h1v1h-1zM13 74h1v1h-1zM40 80h1v1h-1zM45 83h1v1h-1zM23 91h1v1h-1z" /><path fill="#4a31c2" d="M75 7h1v1h-1zM23 8h1v1h-1zM22 10h1v1h-1zM21 12h1v1h-1zM39 20h1v1h-1zM60 20h1v1h-1zM84 22h1v1h-1zM34 23h1v1h-1zM65 23h1v1h-1zM22 30h1v1h-1zM9 32h1v1h-1zM90 33h1v1h-1zM8 34h1v1h-1zM91 34h1v1h-1zM93 38h1v1h-1zM5 39h1v1h-1zM0 50h1v1h-1zM96 56h1v1h-1zM79 68h1v1h-1zM88 70h1v1h-1zM26 72h1v1h-1zM85 75h1v1h-1zM64 77h1v1h-1zM16 79h1v1h-1zM83 79h1v1h-1zM59 80h1v1h-1zM42 81h1v1h-1zM18 82h1v1h-1zM54 83h1v1h-1zM50 85h1v1h-1zM26 93h1v1h-1z" /><path fill="#4b32c2" d="M76 8h1v1h-1zM44 17h1v1h-1zM58 19h1v1h-1zM83 20h1v1h-1zM62 21h1v1h-1zM14 24h1v1h-1zM12 28h1v1h-1zM75 29h1v1h-1zM91 35h1v1h-1zM4 41h1v1h-1zM96 43h1v1h-1zM97 45h1v1h-1zM1 46h1v1h-1zM0 49h1v1h-1zM1 53h1v1h-1zM2 54h1v1h-1zM97 54h1v1h-1zM4 58h1v1h-1zM19 67h1v1h-1zM19 68h1v1h-1zM80 68h1v1h-1zM78 69h1v1h-1zM23 70h1v1h-1zM24 71h1v1h-1zM13 73h1v1h-1zM86 73h1v1h-1zM56 82h1v1h-1zM52 84h1v1h-1zM77 89h1v1h-1zM24 92h1v1h-1z" /><path fill="#4b31c3" d="M20 13h1v1h-1zM20 14h1v1h-1zM79 14h1v1h-1zM56 18h1v1h-1zM17 19h1v1h-1zM38 21h1v1h-1zM36 22h1v1h-1zM63 22h1v1h-1zM33 24h1v1h-1zM68 25h1v1h-1zM70 26h1v1h-1zM73 28h2v1h-2zM10 31h1v1h-1zM9 33h1v1h-1zM98 46h1v1h-1zM99 51h1v1h-1zM93 62h1v1h-1zM9 67h1v1h-1zM11 70h1v1h-1zM76 70h1v1h-1zM25 71h1v1h-1zM71 73h1v1h-1zM67 75h2v1h-2zM62 78h1v1h-1zM38 79h1v1h-1zM17 80h1v1h-1zM57 81h1v1h-1zM44 82h1v1h-1zM46 83h1v1h-1zM19 84h1v1h-1zM47 84h1v1h-1zM28 93h44v1h-44z" /><path fill="#4a31c3" d="M80 15h1v1h-1zM11 29h1v1h-1zM92 36h1v1h-1zM6 38h1v1h-1zM1 47h1v1h-1zM99 48h1v1h-1zM0 51h1v1h-1zM6 61h1v1h-1zM93 61h1v1h-1zM6 62h1v1h-1zM87 72h1v1h-1zM66 76h1v1h-1zM84 77h1v1h-1zM82 80h1v1h-1zM82 81h1v1h-1zM75 92h1v1h-1z" /><path fill="#4a32c3" d="M18 17h1v1h-1zM85 24h1v1h-1zM86 26h1v1h-1zM87 27h1v1h-1zM19 32h1v1h-1zM80 32h1v1h-1zM7 36h1v1h-1zM95 41h1v1h-1zM99 50h1v1h-1zM95 58h1v1h-1zM5 60h1v1h-1zM7 63h1v1h-1zM30 74h1v1h-1zM33 76h1v1h-1zM35 77h1v1h-1zM78 88h1v1h-1zM73 93h1v1h-1z" /><path fill="#7f7ff1" d="M50 26h1v1h-1zM58 31h1v1h-1zM38 33h1v1h-1zM34 35h1v1h-1zM65 35h2v1h-2zM32 36h1v1h-1zM30 37h2v1h-2zM70 60h1v1h-1zM32 62h1v1h-1zM63 65h1v1h-1zM57 68h2v1h-2zM43 69h1v1h-1zM54 70h1v1h-1z" /><path fill="#8080f2" d="M48 27h3v1h-3zM46 28h8v1h-8zM46 29h10v1h-10zM44 30h13v1h-13zM41 31h17v1h-17zM59 31h1v1h-1zM40 32h20v1h-20zM37 33h1v1h-1zM39 33h23v1h-23zM37 34h28v1h-28zM35 35h30v1h-30zM33 36h34v1h-34zM32 37h38v1h-38zM30 38h41v1h-41zM30 39h41v1h-41zM30 40h41v1h-41zM30 41h41v1h-41zM30 42h41v1h-41zM30 43h41v1h-41zM30 44h41v1h-41zM30 45h41v1h-41zM30 46h41v1h-41zM30 47h41v1h-41zM30 48h41v1h-41zM30 49h41v1h-41zM30 50h41v1h-41zM30 51h41v1h-41zM30 52h41v1h-41zM30 53h41v1h-41zM30 54h41v1h-41zM30 55h41v1h-41zM30 56h41v1h-41zM30 57h41v1h-41zM30 58h41v1h-41zM30 59h41v1h-41zM30 60h40v1h-40zM31 61h39v1h-39zM33 62h35v1h-35zM33 63h34v1h-34zM35 64h29v1h-29zM38 65h25v1h-25zM39 66h22v1h-22zM41 67h19v1h-19zM43 68h14v1h-14zM45 69h11v1h-11zM46 70h8v1h-8zM48 71h4v1h-4zM53 71h1v1h-1zM50 72h2v1h-2z" /><path fill="#8080f1" d="M51 27h1v1h-1zM44 29h2v1h-2zM57 30h1v1h-1zM62 33h1v1h-1zM36 34h1v1h-1zM67 36h1v1h-1zM30 61h1v1h-1zM64 64h1v1h-1zM37 65h1v1h-1zM61 66h1v1h-1zM40 67h1v1h-1zM42 68h1v1h-1zM44 69h1v1h-1zM47 71h1v1h-1zM52 71h1v1h-1z" /><path fill="#7f7ff2" d="M52 27h1v1h-1zM43 30h1v1h-1zM39 32h1v1h-1zM60 32h1v1h-1zM31 62h1v1h-1zM68 62h1v1h-1zM65 64h1v1h-1zM38 66h1v1h-1zM56 69h1v1h-1zM45 70h1v1h-1zM49 72h1v1h-1z" /></svg>