<svg xmlns="http://www.w3.org/2000/svg" viewBox="0 0 100 100" width="1em" height="1em"><path fill="#3e00a5" d="M5 0h1v1h-1zM5 2h1v1h-1zM15 7h1v1h-1zM6 9h1v1h-1zM84 18h2v1h-2zM32 19h1v1h-1zM91 19h1v1h-1zM77 20h1v1h-1zM8 22h1v1h-1zM66 27h1v1h-1zM45 28h1v1h-1zM48 30h1v1h-1zM52 33h1v1h-1zM63 33h1v1h-1zM11 34h1v1h-1zM55 35h1v1h-1zM62 35h1v1h-1zM14 37h1v1h-1zM58 37h1v1h-1zM81 37h1v1h-1zM65 42h1v1h-1zM22 44h1v1h-1zM24 45h1v1h-1zM78 45h1v1h-1zM20 48h1v1h-1zM33 49h1v1h-1zM77 49h1v1h-1zM35 50h1v1h-1zM76 51h1v1h-1zM22 55h1v1h-1zM74 55h1v1h-1zM28 63h1v1h-1zM38 64h1v1h-1zM59 69h1v1h-1zM51 73h1v1h-1zM48 74h2v1h-2zM44 76h1v1h-1zM19 86h1v1h-1zM14 94h1v1h-1z" /><path fill="#3f00a4" d="M5 1h1v1h-1zM7 2h1v1h-1zM12 5h1v1h-1zM17 9h1v1h-1zM19 10h1v1h-1zM22 12h1v1h-1zM26 15h1v1h-1zM27 16h1v1h-1zM92 16h1v1h-1zM29 17h1v1h-1zM87 17h1v1h-1zM8 19h1v1h-1zM8 20h1v1h-1zM8 21h1v1h-1zM89 21h1v1h-1zM37 23h1v1h-1zM69 24h1v1h-1zM87 24h1v1h-1zM42 26h1v1h-1zM85 27h1v1h-1zM65 29h1v1h-1zM47 30h1v1h-1zM10 31h1v1h-1zM49 31h1v1h-1zM64 31h1v1h-1zM82 34h1v1h-1zM13 36h1v1h-1zM61 36h1v1h-1zM57 37h1v1h-1zM59 38h1v1h-1zM62 38h1v1h-1zM17 39h1v1h-1zM63 39h1v1h-1zM19 40h1v1h-1zM62 40h1v1h-1zM79 42h1v1h-1zM79 43h1v1h-1zM27 44h1v1h-1zM26 46h1v1h-1zM78 46h1v1h-1zM20 47h1v1h-1zM77 48h1v1h-1zM36 49h1v1h-1zM38 50h1v1h-1zM36 51h1v1h-1zM39 51h1v1h-1zM22 53h1v1h-1zM22 54h1v1h-1zM23 57h1v1h-1zM23 58h1v1h-1zM27 62h1v1h-1zM29 63h1v1h-1zM39 64h1v1h-1zM34 65h1v1h-1zM34 67h1v1h-1zM61 68h1v1h-1zM31 71h1v1h-1zM28 75h1v1h-1zM26 77h1v1h-1zM33 81h1v1h-1zM22 82h1v1h-1zM22 83h1v1h-1zM25 86h1v1h-1zM17 89h1v1h-1zM20 89h1v1h-1zM13 94h1v1h-1zM13 95h1v1h-1zM11 97h1v1h-1z" /><path fill="#3e00a4" d="M6 1h1v1h-1zM6 6h1v1h-1zM16 8h1v1h-1zM7 13h1v1h-1zM25 14h1v1h-1zM7 15h1v1h-1zM93 16h1v1h-1zM88 17h1v1h-1zM30 18h1v1h-1zM81 19h1v1h-1zM78 20h1v1h-1zM72 22h1v1h-1zM86 25h1v1h-1zM9 26h1v1h-1zM86 26h1v1h-1zM43 27h1v1h-1zM9 28h1v1h-1zM84 29h1v1h-1zM10 32h1v1h-1zM50 32h1v1h-1zM53 34h1v1h-1zM56 36h1v1h-1zM15 38h1v1h-1zM60 39h1v1h-1zM80 39h1v1h-1zM63 41h3v1h-3zM23 42h1v1h-1zM19 43h1v1h-1zM26 44h1v1h-1zM28 45h1v1h-1zM28 47h1v1h-1zM30 48h1v1h-1zM32 49h1v1h-1zM21 51h1v1h-1zM37 51h1v1h-1zM40 52h1v1h-1zM75 53h1v1h-1zM72 59h1v1h-1zM25 61h1v1h-1zM70 61h1v1h-1zM31 64h1v1h-1zM37 64h1v1h-1zM35 65h1v1h-1zM64 66h1v1h-1zM63 67h1v1h-1zM57 70h1v1h-1zM55 71h1v1h-1zM53 72h1v1h-1zM46 75h1v1h-1zM27 76h1v1h-1zM41 77h1v1h-1zM39 78h1v1h-1zM24 80h1v1h-1zM35 80h1v1h-1zM31 82h2v1h-2zM21 84h1v1h-1zM20 85h1v1h-1zM26 85h1v1h-1zM23 87h1v1h-1zM18 88h1v1h-1zM19 90h1v1h-1zM15 91h1v1h-1zM18 91h1v1h-1zM14 93h2v1h-2zM12 96h1v1h-1z" /><path fill="#3f00a5" d="M6 2h1v1h-1zM8 2h1v1h-1zM6 3h4v1h-4zM6 4h5v1h-5zM6 5h6v1h-6zM7 6h7v1h-7zM6 7h9v1h-9zM6 8h10v1h-10zM7 9h10v1h-10zM18 9h1v1h-1zM7 10h12v1h-12zM7 11h14v1h-14zM7 12h15v1h-15zM8 13h16v1h-16zM7 14h18v1h-18zM8 15h18v1h-18zM8 16h19v1h-19zM28 16h1v1h-1zM91 16h1v1h-1zM8 17h21v1h-21zM89 17h4v1h-4zM8 18h22v1h-22zM86 18h7v1h-7zM9 19h23v1h-23zM80 19h1v1h-1zM82 19h9v1h-9zM9 20h25v1h-25zM79 20h12v1h-12zM9 21h27v1h-27zM74 21h15v1h-15zM9 22h28v1h-28zM73 22h17v1h-17zM9 23h28v1h-28zM38 23h1v1h-1zM70 23h19v1h-19zM9 24h31v1h-31zM70 24h17v1h-17zM9 25h32v1h-32zM68 25h18v1h-18zM10 26h32v1h-32zM67 26h19v1h-19zM9 27h34v1h-34zM67 27h18v1h-18zM10 28h35v1h-35zM66 28h19v1h-19zM10 29h37v1h-37zM66 29h18v1h-18zM10 30h37v1h-37zM65 30h19v1h-19zM11 31h38v1h-38zM65 31h19v1h-19zM11 32h39v1h-39zM64 32h20v1h-20zM11 33h41v1h-41zM64 33h19v1h-19zM12 34h41v1h-41zM63 34h19v1h-19zM12 35h43v1h-43zM63 35h19v1h-19zM14 36h42v1h-42zM62 36h20v1h-20zM15 37h42v1h-42zM61 37h20v1h-20zM16 38h43v1h-43zM63 38h18v1h-18zM18 39h42v1h-42zM64 39h16v1h-16zM20 40h42v1h-42zM64 40h17v1h-17zM21 41h42v1h-42zM66 41h14v1h-14zM24 42h41v1h-41zM66 42h13v1h-13zM20 43h1v1h-1zM24 43h55v1h-55zM19 44h3v1h-3zM28 44h51v1h-51zM20 45h4v1h-4zM29 45h49v1h-49zM20 46h6v1h-6zM30 46h48v1h-48zM21 47h7v1h-7zM32 47h46v1h-46zM21 48h9v1h-9zM34 48h43v1h-43zM21 49h11v1h-11zM35 49h1v1h-1zM37 49h40v1h-40zM21 50h14v1h-14zM37 50h1v1h-1zM39 50h38v1h-38zM22 51h14v1h-14zM40 51h36v1h-36zM22 52h18v1h-18zM41 52h35v1h-35zM23 53h52v1h-52zM23 54h52v1h-52zM23 55h51v1h-51zM23 56h51v1h-51zM24 57h50v1h-50zM24 58h49v1h-49zM24 59h48v1h-48zM24 60h48v1h-48zM26 61h44v1h-44zM26 62h1v1h-1zM28 62h42v1h-42zM30 63h39v1h-39zM32 64h5v1h-5zM40 64h28v1h-28zM37 65h30v1h-30zM36 66h28v1h-28zM35 67h28v1h-28zM34 68h27v1h-27zM33 69h26v1h-26zM32 70h25v1h-25zM32 71h23v1h-23zM30 72h23v1h-23zM30 73h21v1h-21zM29 74h19v1h-19zM29 75h17v1h-17zM28 76h16v1h-16zM27 77h14v1h-14zM42 77h1v1h-1zM26 78h13v1h-13zM40 78h1v1h-1zM25 79h14v1h-14zM25 80h10v1h-10zM23 81h10v1h-10zM34 81h1v1h-1zM23 82h8v1h-8zM23 83h8v1h-8zM22 84h7v1h-7zM21 85h5v1h-5zM27 85h1v1h-1zM20 86h5v1h-5zM19 87h4v1h-4zM24 87h1v1h-1zM19 88h4v1h-4zM18 89h2v1h-2zM21 89h1v1h-1zM16 90h3v1h-3zM16 91h2v1h-2zM15 92h3v1h-3zM12 95h1v1h-1zM11 96h1v1h-1z" /></svg>