<svg xmlns="http://www.w3.org/2000/svg" viewBox="0 0 100 100" width="1em" height="1em"><path fill="#ffe183" d="M71 8h1v1h-1zM73 8h1v1h-1zM76 8h1v1h-1zM83 9h1v1h-1zM85 9h1v1h-1zM59 10h2v1h-2zM93 12h1v1h-1zM47 14h1v1h-1zM55 16h1v1h-1zM96 16h1v1h-1zM35 20h1v1h-1zM43 21h1v1h-1zM32 22h1v1h-1zM59 22h1v1h-1zM30 23h1v1h-1zM41 24h1v1h-1zM58 25h1v1h-1zM26 26h1v1h-1zM62 26h2v1h-2zM65 26h4v1h-4zM25 27h1v1h-1zM31 28h1v1h-1zM35 28h1v1h-1zM67 28h1v1h-1zM73 28h1v1h-1zM72 29h1v1h-1zM20 31h1v1h-1zM27 31h1v1h-1zM34 32h1v1h-1zM25 33h1v1h-1zM33 33h1v1h-1zM62 34h1v1h-1zM66 36h1v1h-1zM41 37h1v1h-1zM43 37h1v1h-1zM60 37h1v1h-1zM65 37h1v1h-1zM38 38h1v1h-1zM34 40h1v1h-1zM31 42h1v1h-1zM10 44h1v1h-1zM15 45h1v1h-1zM9 46h1v1h-1zM14 46h1v1h-1zM52 46h1v1h-1zM9 47h1v1h-1zM14 47h1v1h-1zM31 47h1v1h-1zM57 47h1v1h-1zM30 48h1v1h-1zM20 50h1v1h-1zM55 50h1v1h-1zM27 51h1v1h-1zM12 52h1v1h-1zM46 52h1v1h-1zM38 53h1v1h-1zM11 54h1v1h-1zM51 54h1v1h-1zM15 55h1v1h-1zM22 56h1v1h-1zM38 56h1v1h-1zM47 57h1v1h-1zM39 58h1v1h-1zM11 59h2v1h-2zM7 61h1v1h-1zM16 63h1v1h-1zM8 64h1v1h-1zM30 64h1v1h-1zM28 65h1v1h-1zM13 67h1v1h-1zM17 70h1v1h-1zM19 71h3v1h-3zM23 71h1v1h-1zM10 72h1v1h-1zM9 73h1v1h-1zM8 75h1v1h-1zM2 78h1v1h-1zM1 81h1v1h-1zM0 87h1v1h-1zM0 90h1v1h-1z" /><path fill="#ffe184" d="M72 8h1v1h-1zM77 8h1v1h-1zM63 9h1v1h-1zM66 9h17v1h-17zM84 9h1v1h-1zM61 10h27v1h-27zM55 11h35v1h-35zM52 12h1v1h-1zM54 12h39v1h-39zM49 13h1v1h-1zM51 13h45v1h-45zM48 14h13v1h-13zM63 14h33v1h-33zM45 15h13v1h-13zM63 15h36v1h-36zM43 16h11v1h-11zM62 16h33v1h-33zM97 16h1v1h-1zM40 17h11v1h-11zM62 17h29v1h-29zM92 17h1v1h-1zM40 18h9v1h-9zM61 18h27v1h-27zM89 18h1v1h-1zM36 19h11v1h-11zM61 19h24v1h-24zM36 20h8v1h-8zM60 20h23v1h-23zM34 21h9v1h-9zM61 21h21v1h-21zM33 22h10v1h-10zM60 22h21v1h-21zM31 23h11v1h-11zM60 23h20v1h-20zM30 24h11v1h-11zM59 24h18v1h-18zM27 25h13v1h-13zM59 25h17v1h-17zM27 26h6v1h-6zM34 26h1v1h-1zM37 26h3v1h-3zM58 26h2v1h-2zM61 26h1v1h-1zM69 26h6v1h-6zM26 27h6v1h-6zM36 27h3v1h-3zM68 27h7v1h-7zM25 28h5v1h-5zM36 28h2v1h-2zM68 28h5v1h-5zM23 29h6v1h-6zM35 29h2v1h-2zM66 29h6v1h-6zM22 30h7v1h-7zM35 30h2v1h-2zM65 30h7v1h-7zM21 31h6v1h-6zM34 31h2v1h-2zM65 31h5v1h-5zM20 32h7v1h-7zM65 32h5v1h-5zM19 33h6v1h-6zM64 33h5v1h-5zM18 34h6v1h-6zM63 34h6v1h-6zM17 35h6v1h-6zM62 35h5v1h-5zM17 36h5v1h-5zM61 36h5v1h-5zM16 37h6v1h-6zM42 37h1v1h-1zM61 37h4v1h-4zM14 38h7v1h-7zM40 38h2v1h-2zM60 38h5v1h-5zM14 39h5v1h-5zM38 39h3v1h-3zM59 39h5v1h-5zM14 40h5v1h-5zM36 40h4v1h-4zM58 40h6v1h-6zM12 41h5v1h-5zM33 41h5v1h-5zM57 41h5v1h-5zM12 42h5v1h-5zM32 42h5v1h-5zM57 42h4v1h-4zM12 43h5v1h-5zM29 43h7v1h-7zM55 43h6v1h-6zM11 44h4v1h-4zM29 44h5v1h-5zM55 44h6v1h-6zM11 45h4v1h-4zM28 45h5v1h-5zM53 45h6v1h-6zM10 46h4v1h-4zM25 46h7v1h-7zM53 46h6v1h-6zM10 47h4v1h-4zM24 47h7v1h-7zM52 47h5v1h-5zM9 48h5v1h-5zM24 48h6v1h-6zM51 48h5v1h-5zM8 49h5v1h-5zM22 49h7v1h-7zM51 49h5v1h-5zM8 50h5v1h-5zM21 50h7v1h-7zM50 50h5v1h-5zM8 51h4v1h-4zM19 51h8v1h-8zM49 51h5v1h-5zM7 52h5v1h-5zM19 52h7v1h-7zM44 52h2v1h-2zM47 52h7v1h-7zM8 53h4v1h-4zM18 53h7v1h-7zM39 53h13v1h-13zM7 54h4v1h-4zM16 54h9v1h-9zM37 54h14v1h-14zM7 55h5v1h-5zM16 55h7v1h-7zM34 55h16v1h-16zM7 56h4v1h-4zM14 56h8v1h-8zM34 56h3v1h-3zM39 56h1v1h-1zM41 56h7v1h-7zM7 57h5v1h-5zM13 57h8v1h-8zM33 57h1v1h-1zM42 57h5v1h-5zM7 58h5v1h-5zM13 58h7v1h-7zM40 58h6v1h-6zM7 59h4v1h-4zM13 59h6v1h-6zM38 59h8v1h-8zM7 60h12v1h-12zM38 60h6v1h-6zM8 61h11v1h-11zM36 61h6v1h-6zM7 62h10v1h-10zM33 62h1v1h-1zM35 62h6v1h-6zM8 63h8v1h-8zM33 63h8v1h-8zM9 64h6v1h-6zM29 64h1v1h-1zM31 64h8v1h-8zM8 65h7v1h-7zM27 65h1v1h-1zM29 65h8v1h-8zM7 66h8v1h-8zM25 66h10v1h-10zM7 67h6v1h-6zM19 67h14v1h-14zM34 67h1v1h-1zM7 68h6v1h-6zM19 68h12v1h-12zM6 69h6v1h-6zM18 69h11v1h-11zM6 70h5v1h-5zM18 70h8v1h-8zM5 71h6v1h-6zM18 71h1v1h-1zM22 71h1v1h-1zM5 72h5v1h-5zM4 73h5v1h-5zM3 74h6v1h-6zM4 75h4v1h-4zM3 76h5v1h-5zM3 77h5v1h-5zM3 78h3v1h-3zM2 79h5v1h-5zM1 80h4v1h-4zM2 81h3v1h-3zM1 82h4v1h-4zM1 83h3v1h-3zM1 84h2v1h-2zM1 85h2v1h-2zM0 86h2v1h-2zM1 87h1v1h-1z" /><path fill="#ffe084" d="M74 8h2v1h-2zM64 9h2v1h-2zM91 11h1v1h-1zM53 12h1v1h-1zM50 13h1v1h-1zM61 14h2v1h-2zM96 14h1v1h-1zM44 15h1v1h-1zM58 15h1v1h-1zM95 16h1v1h-1zM51 17h2v1h-2zM61 17h1v1h-1zM38 18h1v1h-1zM49 18h1v1h-1zM83 20h1v1h-1zM33 21h1v1h-1zM60 21h1v1h-1zM82 21h1v1h-1zM42 23h1v1h-1zM77 24h1v1h-1zM76 25h1v1h-1zM60 26h1v1h-1zM64 26h1v1h-1zM32 27h1v1h-1zM24 28h1v1h-1zM38 28h1v1h-1zM22 29h1v1h-1zM19 32h1v1h-1zM64 32h1v1h-1zM18 33h1v1h-1zM63 33h1v1h-1zM61 35h1v1h-1zM67 35h1v1h-1zM16 36h1v1h-1zM44 36h1v1h-1zM13 39h1v1h-1zM19 39h1v1h-1zM36 39h1v1h-1zM58 39h1v1h-1zM13 40h1v1h-1zM57 40h1v1h-1zM37 42h1v1h-1zM56 42h1v1h-1zM61 42h1v1h-1zM36 43h1v1h-1zM28 44h1v1h-1zM10 45h1v1h-1zM26 45h1v1h-1zM59 45h1v1h-1zM32 46h1v1h-1zM23 48h1v1h-1zM13 49h1v1h-1zM12 51h1v1h-1zM48 51h1v1h-1zM54 51h1v1h-1zM18 52h1v1h-1zM26 52h1v1h-1zM25 53h1v1h-1zM52 53h1v1h-1zM50 55h1v1h-1zM33 56h1v1h-1zM21 57h1v1h-1zM41 57h1v1h-1zM36 60h1v1h-1zM44 60h1v1h-1zM35 61h1v1h-1zM17 62h1v1h-1zM15 64h1v1h-1zM37 65h1v1h-1zM24 66h1v1h-1zM35 66h1v1h-1zM32 68h1v1h-1zM12 69h1v1h-1zM29 69h1v1h-1zM17 71h1v1h-1zM4 72h1v1h-1zM6 78h1v1h-1zM2 86h1v1h-1zM1 88h1v1h-1zM0 89h1v1h-1z" /><path fill="#ffe083" d="M88 10h1v1h-1zM90 11h1v1h-1zM62 15h1v1h-1zM42 16h1v1h-1zM54 16h1v1h-1zM91 17h1v1h-1zM39 18h1v1h-1zM88 18h1v1h-1zM85 19h2v1h-2zM44 20h1v1h-1zM84 20h1v1h-1zM59 23h1v1h-1zM29 24h1v1h-1zM40 25h1v1h-1zM33 26h1v1h-1zM36 26h1v1h-1zM40 26h1v1h-1zM75 26h1v1h-1zM39 27h1v1h-1zM30 28h1v1h-1zM29 29h1v1h-1zM37 29h1v1h-1zM21 30h1v1h-1zM70 31h1v1h-1zM17 34h1v1h-1zM43 36h1v1h-1zM15 37h1v1h-1zM39 38h1v1h-1zM42 38h1v1h-1zM59 38h1v1h-1zM37 39h1v1h-1zM64 39h1v1h-1zM35 40h1v1h-1zM17 41h1v1h-1zM38 41h1v1h-1zM62 41h1v1h-1zM17 42h1v1h-1zM11 43h1v1h-1zM15 44h1v1h-1zM34 44h1v1h-1zM54 44h1v1h-1zM27 45h1v1h-1zM33 45h1v1h-1zM56 48h1v1h-1zM21 49h1v1h-1zM29 49h1v1h-1zM50 49h1v1h-1zM28 50h1v1h-1zM49 50h1v1h-1zM42 52h2v1h-2zM7 53h1v1h-1zM17 53h1v1h-1zM36 54h1v1h-1zM23 55h1v1h-1zM11 56h1v1h-1zM37 56h1v1h-1zM40 56h1v1h-1zM48 56h1v1h-1zM31 57h2v1h-2zM20 58h1v1h-1zM46 58h1v1h-1zM19 59h1v1h-1zM37 60h1v1h-1zM42 61h1v1h-1zM34 62h1v1h-1zM41 62h1v1h-1zM31 63h2v1h-2zM33 67h1v1h-1zM6 68h1v1h-1zM18 68h1v1h-1zM31 68h1v1h-1zM5 70h1v1h-1zM11 70h1v1h-1zM26 70h2v1h-2zM3 75h1v1h-1zM2 77h1v1h-1zM5 80h1v1h-1zM3 84h1v1h-1zM0 85h1v1h-1zM0 88h1v1h-1z" /></svg>