<svg xmlns="http://www.w3.org/2000/svg" viewBox="0 0 100 100" width="1em" height="1em"><path fill="#f24e1d" d="M29 0h1v1h-1zM22 4h1v1h-1zM19 25h1v1h-1zM20 26h1v1h-1zM29 32h1v1h-1z" /><path fill="#f14d1d" d="M30 0h1v1h-1zM19 7h1v1h-1zM28 32h1v1h-1z" /><path fill="#f14e1e" d="M31 0h1v1h-1zM26 1h2v1h-2zM23 3h1v1h-1zM18 10h1v1h-1z" /><path fill="#f24e1e" d="M32 0h18v1h-18zM28 1h22v1h-22zM25 2h25v1h-25zM24 3h26v1h-26zM23 4h27v1h-27zM22 5h28v1h-28zM21 6h29v1h-29zM20 7h30v1h-30zM20 8h30v1h-30zM19 9h31v1h-31zM19 10h31v1h-31zM18 11h32v1h-32zM18 12h32v1h-32zM18 13h32v1h-32zM17 14h33v1h-33zM17 15h33v1h-33zM17 16h33v1h-33zM17 17h33v1h-33zM17 18h33v1h-33zM17 19h33v1h-33zM18 20h32v1h-32zM18 21h32v1h-32zM18 22h32v1h-32zM19 23h31v1h-31zM19 24h31v1h-31zM20 25h30v1h-30zM21 26h29v1h-29zM22 27h28v1h-28zM23 28h27v1h-27zM24 29h26v1h-26zM25 30h25v1h-25zM27 31h23v1h-23zM30 32h20v1h-20z" /><path fill="#ff7262" d="M50 0h17v1h-17zM68 0h1v1h-1zM50 1h22v1h-22zM50 2h24v1h-24zM50 3h27v1h-27zM50 4h28v1h-28zM50 5h28v1h-28zM50 6h30v1h-30zM50 7h30v1h-30zM50 8h31v1h-31zM50 9h32v1h-32zM50 10h32v1h-32zM50 11h32v1h-32zM50 12h32v1h-32zM50 13h32v1h-32zM50 14h33v1h-33zM50 15h33v1h-33zM50 16h33v1h-33zM50 17h33v1h-33zM50 18h33v1h-33zM50 19h33v1h-33zM50 20h33v1h-33zM50 21h32v1h-32zM50 22h32v1h-32zM50 23h31v1h-31zM50 24h31v1h-31zM50 25h30v1h-30zM50 26h29v1h-29zM50 27h29v1h-29zM50 28h28v1h-28zM50 29h27v1h-27zM50 30h26v1h-26zM50 31h23v1h-23zM50 32h21v1h-21z" /><path fill="#ff7162" d="M67 0h1v1h-1zM72 1h1v1h-1zM82 21h1v1h-1zM80 25h1v1h-1zM71 32h1v1h-1z" /><path fill="#ff7261" d="M69 0h1v1h-1zM73 1h1v1h-1zM82 12h1v1h-1zM81 23h1v1h-1zM79 26h1v1h-1zM73 31h1v1h-1z" /><path fill="#ff7161" d="M70 0h1v1h-1zM74 2h1v1h-1zM78 5h1v1h-1zM80 7h1v1h-1zM82 13h1v1h-1z" /><path fill="#f14d1e" d="M21 5h1v1h-1zM20 6h1v1h-1zM19 8h1v1h-1zM17 13h1v1h-1zM21 27h1v1h-1zM22 28h1v1h-1z" /><path fill="#f24d1d" d="M18 9h1v1h-1zM17 20h1v1h-1zM18 23h1v1h-1zM23 29h1v1h-1zM24 30h1v1h-1zM26 31h1v1h-1z" /><path fill="#f14e1d" d="M17 11h1v1h-1zM17 21h1v1h-1z" /><path fill="#f24d1e" d="M17 12h1v1h-1z" /><path fill="#bc55b4" d="M31 33h1v1h-1z" /><path fill="#c154a7" d="M32 33h1v1h-1z" /><path fill="#c5539e" d="M33 33h17v1h-17z" /><path fill="#6f9ec3" d="M63 33h1v1h-1z" /><path fill="#4fa9d8" d="M64 33h1v1h-1z" /><path fill="#43aee1" d="M65 33h1v1h-1z" /><path fill="#39b1e7" d="M66 33h1v1h-1z" /><path fill="#3ab1e6" d="M67 33h1v1h-1z" /><path fill="#3cb0e6" d="M68 33h1v1h-1z" /><path fill="#a259ff" d="M27 34h1v1h-1zM29 34h21v1h-21zM26 35h24v1h-24zM24 36h26v1h-26zM22 37h28v1h-28zM22 38h28v1h-28zM21 39h29v1h-29zM20 40h30v1h-30zM19 41h31v1h-31zM19 42h31v1h-31zM19 43h31v1h-31zM18 44h32v1h-32zM18 45h32v1h-32zM18 46h32v1h-32zM17 47h33v1h-33zM17 48h33v1h-33zM17 49h33v1h-33zM17 50h33v1h-33zM17 51h33v1h-33zM17 52h33v1h-33zM18 53h32v1h-32zM18 54h32v1h-32zM18 55h32v1h-32zM19 56h31v1h-31zM19 57h31v1h-31zM20 58h30v1h-30zM20 59h30v1h-30zM21 60h29v1h-29zM22 61h28v1h-28zM22 62h28v1h-28zM25 63h25v1h-25zM27 64h23v1h-23zM28 65h22v1h-22z" /><path fill="#a158ff" d="M28 34h1v1h-1zM17 53h1v1h-1zM19 58h1v1h-1zM20 60h1v1h-1zM25 64h1v1h-1z" /><path fill="#1abcfd" d="M61 34h1v1h-1zM58 35h2v1h-2zM57 36h1v1h-1zM80 41h1v1h-1zM51 43h1v1h-1zM51 56h1v1h-1zM81 56h1v1h-1zM53 59h1v1h-1zM79 60h1v1h-1zM55 61h1v1h-1zM74 64h1v1h-1zM65 66h1v1h-1z" /><path fill="#1abcfe" d="M62 34h9v1h-9zM60 35h13v1h-13zM58 36h17v1h-17zM57 37h20v1h-20zM56 38h22v1h-22zM55 39h24v1h-24zM54 40h26v1h-26zM53 41h27v1h-27zM52 42h29v1h-29zM52 43h29v1h-29zM52 44h30v1h-30zM51 45h31v1h-31zM51 46h31v1h-31zM51 47h32v1h-32zM51 48h32v1h-32zM51 49h32v1h-32zM51 50h32v1h-32zM51 51h32v1h-32zM51 52h32v1h-32zM51 53h31v1h-31zM51 54h31v1h-31zM52 55h30v1h-30zM52 56h29v1h-29zM52 57h29v1h-29zM53 58h27v1h-27zM54 59h26v1h-26zM55 60h24v1h-24zM56 61h22v1h-22zM57 62h20v1h-20zM58 63h17v1h-17zM60 64h13v1h-13zM62 65h9v1h-9z" /><path fill="#19bcfd" d="M71 34h1v1h-1zM56 37h1v1h-1zM79 39h1v1h-1zM52 41h1v1h-1zM51 44h1v1h-1zM50 46h1v1h-1zM82 46h1v1h-1zM50 48h1v1h-1zM50 49h1v1h-1zM50 50h1v1h-1zM82 53h1v1h-1zM51 55h1v1h-1zM56 62h1v1h-1zM77 62h1v1h-1zM58 64h1v1h-1zM71 65h1v1h-1zM64 66h1v1h-1zM68 66h1v1h-1z" /><path fill="#19bbfd" d="M72 34h1v1h-1zM74 35h1v1h-1zM75 36h1v1h-1zM82 45h1v1h-1zM50 53h1v1h-1zM82 54h1v1h-1zM52 58h1v1h-1zM57 63h1v1h-1zM75 63h1v1h-1zM72 65h1v1h-1zM66 66h2v1h-2z" /><path fill="#a258ff" d="M25 35h1v1h-1zM20 39h1v1h-1zM17 45h1v1h-1zM17 46h1v1h-1zM18 56h1v1h-1zM21 61h1v1h-1zM24 63h1v1h-1zM27 65h1v1h-1z" /><path fill="#1abbfd" d="M73 35h1v1h-1zM77 37h1v1h-1zM55 38h1v1h-1zM78 38h1v1h-1zM54 39h1v1h-1zM53 40h1v1h-1zM81 42h1v1h-1zM81 43h1v1h-1zM50 47h1v1h-1zM50 51h1v1h-1zM50 52h1v1h-1zM81 57h1v1h-1zM80 58h1v1h-1zM54 60h1v1h-1zM78 61h1v1h-1zM59 64h1v1h-1zM73 64h1v1h-1zM61 65h1v1h-1z" /><path fill="#a159ff" d="M21 38h1v1h-1zM18 42h1v1h-1zM18 43h1v1h-1zM17 54h1v1h-1zM18 57h1v1h-1zM26 64h1v1h-1z" /><path fill="#8a6beb" d="M31 66h1v1h-1z" /><path fill="#8b6aeb" d="M32 66h1v1h-1z" /><path fill="#8c69ee" d="M33 66h17v1h-17z" /><path fill="#09ce83" d="M28 67h1v1h-1zM17 78h1v1h-1zM49 84h1v1h-1zM18 90h1v1h-1zM47 91h1v1h-1zM41 97h1v1h-1zM27 98h1v1h-1zM29 99h1v1h-1z" /><path fill="#0acf83" d="M29 67h21v1h-21zM26 68h24v1h-24zM25 69h25v1h-25zM24 70h26v1h-26zM23 71h27v1h-27zM22 72h28v1h-28zM21 73h29v1h-29zM19 74h31v1h-31zM19 75h31v1h-31zM18 76h32v1h-32zM18 77h32v1h-32zM18 78h32v1h-32zM18 79h32v1h-32zM17 80h33v1h-33zM17 81h33v1h-33zM17 82h33v1h-33zM17 83h32v1h-32zM17 84h32v1h-32zM17 85h32v1h-32zM18 86h31v1h-31zM17 87h32v1h-32zM18 88h31v1h-31zM19 89h30v1h-30zM19 90h29v1h-29zM20 91h27v1h-27zM20 92h26v1h-26zM21 93h25v1h-25zM21 94h24v1h-24zM23 95h21v1h-21zM24 96h18v1h-18zM26 97h15v1h-15zM28 98h12v1h-12z" /><path fill="#0ace83" d="M24 69h1v1h-1zM23 70h1v1h-1zM22 71h1v1h-1zM21 72h1v1h-1zM46 92h1v1h-1zM22 95h1v1h-1zM31 99h2v1h-2z" /><path fill="#09ce82" d="M20 73h1v1h-1zM23 96h1v1h-1zM25 97h1v1h-1zM30 99h1v1h-1zM34 99h1v1h-1z" /><path fill="#0acf82" d="M17 79h1v1h-1zM49 83h1v1h-1zM17 86h1v1h-1zM19 91h1v1h-1zM19 92h1v1h-1zM42 96h1v1h-1z" /><path fill="#09cf83" d="M49 85h1v1h-1zM20 93h1v1h-1zM35 99h1v1h-1z" /><path fill="#0ace82" d="M49 86h1v1h-1zM18 89h1v1h-1zM45 94h1v1h-1zM44 95h1v1h-1zM33 99h1v1h-1zM36 99h1v1h-1z" /><path fill="#09cf82" d="M17 88h1v1h-1zM26 98h1v1h-1z" /></svg>