<svg xmlns="http://www.w3.org/2000/svg" viewBox="0 0 100 100"><path fill="#f24e1d" fill-rule="evenodd" d="M29 0h1v1h-1zm-7 4h1v1h-1zm-3 21h1v1h-1zm1 1h1v1h-1zm9 6h1v1h-1z"/><path fill="#f14d1d" fill-rule="evenodd" d="M30 0h1v1h-1zm-11 7h1v1h-1zm9 25h1v1h-1z"/><path fill="#f14e1e" fill-rule="evenodd" d="M31 0h1v1h-1zm-5 1h2v1h-2zm-3 2h1v1h-1zm-5 7h1v1h-1z"/><path fill="#f24e1e" fill-rule="evenodd" d="M32 0h18v33h-20v-1h-3v-1h-2v-1h-1v-1h-1v-1h-1v-1h-1v-1h-1v-1h-1v-2h-1v-3h-1v-6h1v-3h1v-2h1v-2h1v-1h1v-1h1v-1h1v-1h1v-1h3v-1h4z"/><path fill="#ff7262" fill-rule="evenodd" d="M50 0h17v1h1v-1h1v1h3v1h2v1h3v1h1v2h2v2h1v1h1v5h1v7h-1v2h-1v2h-1v1h-1v2h-1v1h-1v1h-1v1h-3v1h-2v1h-21z"/><path fill="#ff7162" fill-rule="evenodd" d="M67 0h1v1h-1zm5 1h1v1h-1zm10 20h1v1h-1zm-2 4h1v1h-1zm-9 7h1v1h-1z"/><path fill="#ff7261" fill-rule="evenodd" d="M69 0h1v1h-1zm4 1h1v1h-1zm9 11h1v1h-1zm-1 11h1v1h-1zm-2 3h1v1h-1zm-6 5h1v1h-1z"/><path fill="#ff7161" fill-rule="evenodd" d="M70 0h1v1h-1zm4 2h1v1h-1zm4 3h1v1h-1zm2 2h1v1h-1zm2 6h1v1h-1z"/><path fill="#f14d1e" fill-rule="evenodd" d="M21 5h1v1h-1zm0 1v1h-1v-1zm-2 2h1v1h-1zm-2 5h1v1h-1zm4 14h1v1h-1zm1 1h1v1h-1z"/><path fill="#f24d1d" fill-rule="evenodd" d="M18 9h1v1h-1zm-1 11h1v1h-1zm1 3h1v1h-1zm5 6h1v1h-1zm1 1h1v1h-1zm2 1h1v1h-1z"/><path fill="#f14e1d" fill-rule="evenodd" d="M17 11h1v1h-1zm0 10h1v1h-1z"/><path fill="#f24d1e" fill-rule="evenodd" d="M17 12h1v1h-1z"/><path fill="#bc55b4" fill-rule="evenodd" d="M31 33h1v1h-1z"/><path fill="#c154a7" fill-rule="evenodd" d="M32 33h1v1h-1z"/><path fill="#c5539e" fill-rule="evenodd" d="M33 33h17v1h-17z"/><path fill="#6f9ec3" fill-rule="evenodd" d="M63 33h1v1h-1z"/><path fill="#4fa9d8" fill-rule="evenodd" d="M64 33h1v1h-1z"/><path fill="#43aee1" fill-rule="evenodd" d="M65 33h1v1h-1z"/><path fill="#39b1e7" fill-rule="evenodd" d="M66 33h1v1h-1z"/><path fill="#3ab1e6" fill-rule="evenodd" d="M67 33h1v1h-1z"/><path fill="#3cb0e6" fill-rule="evenodd" d="M68 33h1v1h-1z"/><path fill="#a259ff" fill-rule="evenodd" d="M27 34h1v1h1v-1h21v32h-22v-1h-1v-1h-2v-1h-3v-2h-1v-1h-1v-2h-1v-2h-1v-3h-1v-6h1v-3h1v-3h1v-1h1v-1h1v-2h2v-1h2v-1h1z"/><path fill="#a158ff" fill-rule="evenodd" d="M28 34h1v1h-1zm-11 19h1v1h-1zm2 5h1v1h-1zm1 2h1v1h-1zm5 4h1v1h-1z"/><path fill="#1abcfd" fill-rule="evenodd" d="M61 34h1v1h-1zm-3 1h2v1h-2zm0 1v1h-1v-1zm22 5h1v1h-1zm-29 2h1v1h-1zm0 13h1v1h-1zm30 0h1v1h-1zm-28 3h1v1h-1zm26 1h1v1h-1zm-24 1h1v1h-1zm19 3h1v1h-1zm-9 2h1v1h-1z"/><path fill="#1abcfe" fill-rule="evenodd" d="M62 34h9v1h2v1h2v1h2v1h1v1h1v1h1v2h1v2h1v3h1v6h-1v3h-1v2h-1v2h-1v1h-1v1h-1v1h-2v1h-2v1h-2v1h-9v-1h-2v-1h-2v-1h-1v-1h-1v-1h-1v-1h-1v-1h-1v-1h-1v-3h-1v-10h1v-3h1v-1h1v-1h1v-1h1v-1h1v-1h1v-1h2v-1h2z"/><path fill="#19bcfd" fill-rule="evenodd" d="M71 34h1v1h-1zm-15 3h1v1h-1zm23 2h1v1h-1zm-27 2h1v1h-1zm-1 3h1v1h-1zm-1 2h1v1h-1zm32 0h1v1h-1zm-32 2h1v3h-1zm32 5h1v1h-1zm-31 2h1v1h-1zm5 7h1v1h-1zm21 0h1v1h-1zm-19 2h1v1h-1zm13 1h1v1h-1zm-7 1h1v1h-1zm4 0h1v1h-1z"/><path fill="#19bbfd" fill-rule="evenodd" d="M72 34h1v1h-1zm2 1h1v1h-1zm1 1h1v1h-1zm7 9h1v1h-1zm-32 8h1v1h-1zm32 1h1v1h-1zm-30 4h1v1h-1zm5 5h1v1h-1zm18 0h1v1h-1zm-3 2h1v1h-1zm-6 1h2v1h-2z"/><path fill="#a258ff" fill-rule="evenodd" d="M25 35h1v1h-1zm-5 4h1v1h-1zm-3 6h1v2h-1zm1 11h1v1h-1zm3 5h1v1h-1zm3 2h1v1h-1zm3 2h1v1h-1z"/><path fill="#1abbfd" fill-rule="evenodd" d="M73 35h1v1h-1zm4 2h1v1h-1zm1 1h1v1h-1zm-23 0h1v1h-1zm0 1v1h-1v-1zm-1 1v1h-1v-1zm27 2h1v2h-1zm-31 5h1v1h-1zm0 4h1v2h-1zm31 6h1v1h-1zm0 1v1h-1v-1zm-27 2h1v1h-1zm24 1h1v1h-1zm-19 3h1v1h-1zm14 0h1v1h-1zm-12 1h1v1h-1z"/><path fill="#a159ff" fill-rule="evenodd" d="M21 38h1v1h-1zm-3 4h1v2h-1zm-1 12h1v1h-1zm1 3h1v1h-1zm8 7h1v1h-1z"/><path fill="#8a6beb" fill-rule="evenodd" d="M31 66h1v1h-1z"/><path fill="#8b6aeb" fill-rule="evenodd" d="M32 66h1v1h-1z"/><path fill="#8c69ee" fill-rule="evenodd" d="M33 66h17v1h-17z"/><path fill="#09ce83" fill-rule="evenodd" d="M28 67h1v1h-1zm-11 11h1v1h-1zm32 6h1v1h-1zm-31 6h1v1h-1zm29 1h1v1h-1zm-6 6h1v1h-1zm-14 1h1v1h-1zm2 1h1v1h-1z"/><path fill="#0acf83" fill-rule="evenodd" d="M29 67h21v16h-1v7h-1v1h-1v1h-1v2h-1v1h-1v1h-2v1h-1v1h-1v1h-12v-1h-2v-1h-2v-1h-1v-1h-2v-2h-1v-2h-1v-2h-1v-1h-1v-1h1v-1h-1v-6h1v-4h1v-2h2v-1h1v-1h1v-1h1v-1h1v-1h1v-1h3z"/><path fill="#0ace83" fill-rule="evenodd" d="M24 69h1v1h-1zm0 1v1h-1v-1zm-1 1v1h-1v-1zm-1 1v1h-1v-1zm24 20h1v1h-1zm-24 3h1v1h-1zm9 4h2v1h-2z"/><path fill="#09ce82" fill-rule="evenodd" d="M20 73h1v1h-1zm3 23h1v1h-1zm2 1h1v1h-1zm5 2h1v1h-1zm4 0h1v1h-1z"/><path fill="#0acf82" fill-rule="evenodd" d="M17 79h1v1h-1zm32 4h1v1h-1zm-32 3h1v1h-1zm2 5h1v2h-1zm23 5h1v1h-1z"/><path fill="#09cf83" fill-rule="evenodd" d="M49 85h1v1h-1zm-29 8h1v1h-1zm15 6h1v1h-1z"/><path fill="#0ace82" fill-rule="evenodd" d="M49 86h1v1h-1zm-31 3h1v1h-1zm27 5h1v1h-1zm0 1v1h-1v-1zm-12 4h1v1h-1zm3 0h1v1h-1z"/><path fill="#09cf82" fill-rule="evenodd" d="M17 88h1v1h-1zm9 10h1v1h-1z"/></svg>