<svg xmlns="http://www.w3.org/2000/svg" viewBox="0 0 100 100" width="1em" height="1em"><path fill="#42a5f5" d="M60 0h29v1h-29zM59 1h29v1h-29zM58 2h29v1h-29zM57 3h29v1h-29zM56 4h29v1h-29zM55 5h29v1h-29zM54 6h29v1h-29zM53 7h29v1h-29zM52 8h29v1h-29zM51 9h29v1h-29zM50 10h29v1h-29zM49 11h29v1h-29zM48 12h29v1h-29zM47 13h29v1h-29zM46 14h29v1h-29zM45 15h29v1h-29zM44 16h29v1h-29zM43 17h29v1h-29zM42 18h29v1h-29zM41 19h29v1h-29zM40 20h29v1h-29zM39 21h29v1h-29zM38 22h29v1h-29zM37 23h29v1h-29zM36 24h29v1h-29zM35 25h29v1h-29zM34 26h29v1h-29zM33 27h29v1h-29zM32 28h29v1h-29zM31 29h29v1h-29zM30 30h29v1h-29zM29 31h29v1h-29zM28 32h29v1h-29zM27 33h29v1h-29zM26 34h29v1h-29zM25 35h29v1h-29zM24 36h29v1h-29zM23 37h29v1h-29zM22 38h29v1h-29zM21 39h29v1h-29zM20 40h29v1h-29zM19 41h29v1h-29zM18 42h29v1h-29zM17 43h29v1h-29zM16 44h29v1h-29zM15 45h29v1h-29zM14 46h29v1h-29zM13 47h29v1h-29zM60 47h28v1h-28zM12 48h29v1h-29zM59 48h28v1h-28zM11 49h29v1h-29zM58 49h28v1h-28zM11 50h28v1h-28zM57 50h28v1h-28zM12 51h26v1h-26zM56 51h28v1h-28zM13 52h24v1h-24zM55 52h28v1h-28zM14 53h22v1h-22zM54 53h28v1h-28zM15 54h20v1h-20zM53 54h28v1h-28zM16 55h18v1h-18zM52 55h28v1h-28zM17 56h16v1h-16zM51 56h28v1h-28zM18 57h14v1h-14zM50 57h28v1h-28zM19 58h12v1h-12zM50 58h27v1h-27zM20 59h10v1h-10zM48 59h1v1h-1zM51 59h25v1h-25zM21 60h8v1h-8zM47 60h3v1h-3zM52 60h23v1h-23zM22 61h6v1h-6zM46 61h5v1h-5zM53 61h21v1h-21zM23 62h4v1h-4zM45 62h7v1h-7zM54 62h19v1h-19zM24 63h2v1h-2zM44 63h9v1h-9zM55 63h17v1h-17zM43 64h11v1h-11zM56 64h15v1h-15zM42 65h13v1h-13zM57 65h13v1h-13zM41 66h15v1h-15zM58 66h11v1h-11zM40 67h17v1h-17zM59 67h9v1h-9zM39 68h19v1h-19zM60 68h7v1h-7zM38 69h21v1h-21zM61 69h5v1h-5zM37 70h23v1h-23zM62 70h3v1h-3zM36 71h25v1h-25zM63 71h1v1h-1zM35 72h27v1h-27zM34 73h28v1h-28zM35 74h26v1h-26zM36 75h24v1h-24zM37 76h22v1h-22zM38 77h20v1h-20zM39 78h18v1h-18zM40 79h16v1h-16zM41 80h14v1h-14zM42 81h12v1h-12zM43 82h10v1h-10zM44 83h8v1h-8zM45 84h6v1h-6zM46 85h4v1h-4zM47 86h2v1h-2z" /><path fill="#42a4f4" d="M89 0h1v1h-1zM88 1h1v1h-1zM87 2h1v1h-1zM86 3h1v1h-1zM85 4h1v1h-1zM84 5h1v1h-1zM83 6h1v1h-1zM82 7h1v1h-1zM81 8h1v1h-1zM80 9h1v1h-1zM79 10h1v1h-1zM78 11h1v1h-1zM77 12h1v1h-1zM76 13h1v1h-1zM75 14h1v1h-1zM74 15h1v1h-1zM73 16h1v1h-1zM72 17h1v1h-1zM71 18h1v1h-1zM70 19h1v1h-1zM69 20h1v1h-1zM68 21h1v1h-1zM67 22h1v1h-1zM66 23h1v1h-1zM65 24h1v1h-1zM64 25h1v1h-1zM63 26h1v1h-1zM62 27h1v1h-1zM61 28h1v1h-1zM60 29h1v1h-1zM59 30h1v1h-1zM58 31h1v1h-1zM57 32h1v1h-1zM56 33h1v1h-1zM55 34h1v1h-1zM54 35h1v1h-1zM53 36h1v1h-1zM52 37h1v1h-1zM51 38h1v1h-1zM50 39h1v1h-1zM49 40h1v1h-1zM48 41h1v1h-1zM47 42h1v1h-1zM46 43h1v1h-1zM45 44h1v1h-1zM44 45h1v1h-1zM43 46h1v1h-1zM60 46h29v1h-29zM42 47h1v1h-1zM88 47h1v1h-1zM41 48h1v1h-1zM87 48h1v1h-1zM40 49h1v1h-1zM86 49h1v1h-1zM39 50h1v1h-1zM85 50h1v1h-1zM38 51h1v1h-1zM84 51h1v1h-1zM37 52h1v1h-1zM83 52h1v1h-1zM36 53h1v1h-1zM82 53h1v1h-1zM35 54h1v1h-1zM81 54h1v1h-1zM34 55h1v1h-1zM80 55h1v1h-1zM33 56h1v1h-1zM79 56h1v1h-1zM32 57h1v1h-1zM78 57h1v1h-1zM31 58h1v1h-1zM77 58h1v1h-1zM30 59h1v1h-1zM47 59h1v1h-1zM76 59h1v1h-1zM29 60h1v1h-1zM46 60h1v1h-1zM75 60h1v1h-1zM28 61h1v1h-1zM45 61h1v1h-1zM74 61h1v1h-1zM27 62h1v1h-1zM44 62h1v1h-1zM73 62h1v1h-1zM26 63h1v1h-1zM43 63h1v1h-1zM72 63h1v1h-1zM25 64h1v1h-1zM42 64h1v1h-1zM71 64h1v1h-1zM41 65h1v1h-1zM70 65h1v1h-1zM40 66h1v1h-1zM69 66h1v1h-1zM39 67h1v1h-1zM68 67h1v1h-1zM38 68h1v1h-1zM67 68h1v1h-1zM37 69h1v1h-1zM66 69h1v1h-1zM36 70h1v1h-1zM65 70h1v1h-1zM35 71h1v1h-1zM64 71h1v1h-1zM34 72h1v1h-1zM62 73h1v1h-1zM61 74h1v1h-1zM60 75h1v1h-1zM59 76h1v1h-1zM58 77h1v1h-1zM57 78h1v1h-1zM56 79h1v1h-1zM55 80h1v1h-1zM54 81h1v1h-1z" /><path fill="#42a5f4" d="M89 46h1v1h-1zM49 57h1v1h-1z" /><path fill="#41a4f4" d="M59 47h1v1h-1zM58 48h1v1h-1zM57 49h1v1h-1zM56 50h1v1h-1zM55 51h1v1h-1zM54 52h1v1h-1zM53 53h1v1h-1zM52 54h1v1h-1zM51 55h1v1h-1zM50 56h1v1h-1zM49 58h1v1h-1zM49 59h2v1h-2zM50 60h2v1h-2zM51 61h2v1h-2zM52 62h2v1h-2zM53 63h2v1h-2zM54 64h2v1h-2zM55 65h1v1h-1zM56 66h2v1h-2zM57 67h2v1h-2zM58 68h2v1h-2zM59 69h2v1h-2zM60 70h2v1h-2zM61 71h2v1h-2zM62 72h2v1h-2z" /><path fill="#41a5f4" d="M48 58h1v1h-1zM56 65h1v1h-1z" /><path fill="#2a69ad" d="M63 73h1v1h-1z" /><path fill="#2967a7" d="M62 74h1v1h-1z" /><path fill="#164080" d="M63 74h1v1h-1z" /><path fill="#18468d" d="M64 74h1v1h-1z" /><path fill="#2764a2" d="M61 75h1v1h-1z" /><path fill="#173e7b" d="M62 75h1v1h-1zM59 81h1v1h-1z" /><path fill="#194589" d="M63 75h1v1h-1z" /><path fill="#174893" d="M64 75h1v1h-1z" /><path fill="#15489a" d="M65 75h1v1h-1z" /><path fill="#27649f" d="M60 76h1v1h-1z" /><path fill="#163c76" d="M61 76h1v1h-1z" /><path fill="#1a4484" d="M62 76h1v1h-1z" /><path fill="#18478f" d="M63 76h1v1h-1z" /><path fill="#164896" d="M64 76h1v1h-1z" /><path fill="#144899" d="M65 76h1v1h-1zM65 77h1v1h-1zM65 78h1v1h-1zM65 79h1v1h-1zM65 80h1v1h-1zM65 81h1v1h-1z" /><path fill="#11489d" d="M66 76h1v1h-1zM66 77h1v1h-1zM66 78h1v1h-1zM66 79h1v1h-1zM66 80h1v1h-1zM66 81h1v1h-1z" /><path fill="#26609b" d="M59 77h1v1h-1z" /><path fill="#173b72" d="M60 77h1v1h-1z" /><path fill="#19417f" d="M61 77h1v1h-1z" /><path fill="#19458a" d="M62 77h1v1h-1z" /><path fill="#184792" d="M63 77h1v1h-1z" /><path fill="#154896" d="M64 77h1v1h-1zM64 78h1v1h-1zM64 79h1v1h-1zM64 80h1v1h-1zM64 81h1v1h-1z" /><path fill="#0f479f" d="M67 77h1v1h-1zM67 78h1v1h-1zM67 79h1v1h-1zM67 80h1v1h-1z" /><path fill="#245c94" d="M58 78h1v1h-1z" /><path fill="#15386c" d="M59 78h1v1h-1z" /><path fill="#1a407a" d="M60 78h1v1h-1z" /><path fill="#184385" d="M61 78h1v1h-1z" /><path fill="#18458d" d="M62 78h1v1h-1z" /><path fill="#174792" d="M63 78h1v1h-1zM63 79h1v1h-1zM63 80h1v1h-1zM63 81h1v1h-1zM63 82h1v1h-1z" /><path fill="#0e47a0" d="M68 78h1v1h-1zM68 79h2v1h-2zM68 80h2v1h-2z" /><path fill="#23588f" d="M57 79h1v1h-1z" /><path fill="#153567" d="M58 79h1v1h-1zM57 81h1v1h-1z" /><path fill="#183c74" d="M59 79h1v1h-1z" /><path fill="#194180" d="M60 79h1v1h-1z" /><path fill="#184387" d="M61 79h1v1h-1z" /><path fill="#17458d" d="M62 79h1v1h-1zM62 80h1v1h-1zM62 81h1v1h-1zM62 82h1v1h-1z" /><path fill="#21558c" d="M56 80h1v1h-1z" /><path fill="#123160" d="M57 80h1v1h-1z" /><path fill="#173a6e" d="M58 80h1v1h-1z" /><path fill="#173e79" d="M59 80h1v1h-1z" /><path fill="#184182" d="M60 80h1v1h-1z" /><path fill="#174387" d="M61 80h1v1h-1zM61 81h1v1h-1zM61 82h1v1h-1z" /><path fill="#0e47a1" d="M70 80h1v1h-1zM68 81h1v1h-1zM53 87h1v1h-1zM52 88h1v1h-1zM51 89h1v1h-1z" /><path fill="#1e5084" d="M55 81h1v1h-1z" /><path fill="#112e5a" d="M56 81h1v1h-1z" /><path fill="#173b73" d="M58 81h1v1h-1z" /><path fill="#174182" d="M60 81h1v1h-1zM60 82h1v1h-1zM60 83h1v1h-1z" /><path fill="#0f48a0" d="M67 81h1v1h-1z" /><path fill="#0d47a0" d="M69 81h1v1h-1zM64 83h1v1h-1z" /><path fill="#0d47a1" d="M70 81h2v1h-2zM67 82h6v1h-6zM65 83h9v1h-9zM62 84h13v1h-13zM59 85h17v1h-17zM56 86h21v1h-21zM54 87h24v1h-24zM53 88h26v1h-26zM52 89h28v1h-28zM51 90h30v1h-30zM52 91h30v1h-30zM53 92h30v1h-30zM54 93h30v1h-30zM55 94h30v1h-30zM56 95h30v1h-30zM57 96h30v1h-30zM58 97h30v1h-30zM59 98h30v1h-30zM60 99h30v1h-30z" /><path fill="#42a3f3" d="M53 82h1v1h-1zM52 83h1v1h-1zM51 84h1v1h-1zM50 85h1v1h-1zM49 86h1v1h-1zM48 87h1v1h-1z" /><path fill="#1c4d7e" d="M54 82h1v1h-1z" /><path fill="#0d2952" d="M55 82h1v1h-1z" /><path fill="#133260" d="M56 82h1v1h-1z" /><path fill="#14366c" d="M57 82h1v1h-1z" /><path fill="#163b75" d="M58 82h1v1h-1z" /><path fill="#163e7b" d="M59 82h1v1h-1zM59 83h1v1h-1z" /><path fill="#144796" d="M64 82h1v1h-1z" /><path fill="#11489c" d="M65 82h1v1h-1z" /><path fill="#0e479f" d="M66 82h1v1h-1zM58 85h1v1h-1z" /><path fill="#184878" d="M53 83h1v1h-1z" /><path fill="#0b244b" d="M54 83h1v1h-1z" /><path fill="#102c58" d="M55 83h1v1h-1z" /><path fill="#133365" d="M56 83h1v1h-1z" /><path fill="#14366d" d="M57 83h1v1h-1z" /><path fill="#153b75" d="M58 83h1v1h-1z" /><path fill="#164388" d="M61 83h1v1h-1z" /><path fill="#134694" d="M62 83h1v1h-1z" /><path fill="#10479d" d="M63 83h1v1h-1z" /><path fill="#174575" d="M52 84h1v1h-1zM51 85h1v1h-1zM50 86h1v1h-1zM49 87h1v1h-1z" /><path fill="#081f43" d="M53 84h1v1h-1z" /><path fill="#0d2850" d="M54 84h1v1h-1z" /><path fill="#0f2d5d" d="M55 84h1v1h-1z" /><path fill="#123367" d="M56 84h1v1h-1z" /><path fill="#13366d" d="M57 84h1v1h-1z" /><path fill="#163c77" d="M58 84h1v1h-1z" /><path fill="#134087" d="M59 84h1v1h-1z" /><path fill="#114597" d="M60 84h1v1h-1z" /><path fill="#0d46a0" d="M61 84h1v1h-1z" /><path fill="#051c3f" d="M52 85h1v1h-1zM51 86h1v1h-1z" /><path fill="#092248" d="M53 85h1v1h-1z" /><path fill="#0d2954" d="M54 85h1v1h-1z" /><path fill="#0f2e60" d="M55 85h1v1h-1z" /><path fill="#103978" d="M56 85h1v1h-1z" /><path fill="#0f418e" d="M57 85h1v1h-1z" /><path fill="#072045" d="M52 86h1v1h-1z" /><path fill="#0b2c5f" d="M53 86h1v1h-1z" /><path fill="#0d3a80" d="M54 86h1v1h-1z" /><path fill="#0e459c" d="M55 86h1v1h-1z" /><path fill="#07234e" d="M50 87h1v1h-1z" /><path fill="#0c3472" d="M51 87h1v1h-1z" /><path fill="#0e4396" d="M52 87h1v1h-1z" /><path fill="#0b3a82" d="M49 88h1v1h-1z" /><path fill="#104596" d="M50 88h1v1h-1z" /><path fill="#0f479e" d="M51 88h1v1h-1zM50 89h1v1h-1z" /></svg>