<svg xmlns="http://www.w3.org/2000/svg" viewBox="0 0 100 100" width="1em" height="1em"><path fill="#4a38ef" d="M23 0h1v1h-1zM91 0h1v1h-1zM94 1h1v1h-1zM23 7h1v1h-1zM10 19h1v1h-1zM7 24h1v1h-1zM13 24h1v1h-1zM11 30h1v1h-1zM12 31h1v1h-1zM63 38h1v1h-1zM59 42h1v1h-1zM65 43h1v1h-1zM18 46h1v1h-1zM23 58h1v1h-1zM63 58h1v1h-1zM16 59h1v1h-1zM67 62h1v1h-1zM66 63h1v1h-1zM59 64h1v1h-1zM6 65h1v1h-1zM27 67h1v1h-1zM55 71h1v1h-1zM29 72h1v1h-1zM1 78h1v1h-1zM26 78h1v1h-1zM57 78h1v1h-1zM6 90h1v1h-1zM18 90h1v1h-1zM13 92h1v1h-1zM16 99h1v1h-1z" /><path fill="#4a39ee" d="M24 0h2v1h-2zM44 7h1v1h-1zM50 8h1v1h-1zM51 11h1v1h-1zM14 12h1v1h-1zM96 13h1v1h-1zM19 14h1v1h-1zM47 14h1v1h-1zM12 15h1v1h-1zM18 16h1v1h-1zM94 16h1v1h-1zM49 19h1v1h-1zM86 19h1v1h-1zM55 20h1v1h-1zM85 21h1v1h-1zM91 21h1v1h-1zM84 22h1v1h-1zM51 23h1v1h-1zM83 24h1v1h-1zM6 26h1v1h-1zM82 26h1v1h-1zM11 27h1v1h-1zM58 27h1v1h-1zM81 27h1v1h-1zM53 29h1v1h-1zM80 29h1v1h-1zM85 31h1v1h-1zM15 39h1v1h-1zM64 41h1v1h-1zM65 42h1v1h-1zM11 43h1v1h-1zM20 47h1v1h-1zM67 47h1v1h-1zM13 48h1v1h-1zM14 50h1v1h-1zM14 51h1v1h-1zM14 52h1v1h-1zM13 54h1v1h-1zM64 56h1v1h-1zM11 57h1v1h-1zM10 59h1v1h-1zM62 59h1v1h-1zM15 60h1v1h-1zM12 66h1v1h-1zM64 66h1v1h-1zM11 67h1v1h-1zM22 68h1v1h-1zM9 70h1v1h-1zM61 71h1v1h-1zM8 72h1v1h-1zM24 73h1v1h-1zM52 83h1v1h-1zM10 84h1v1h-1zM10 85h1v1h-1zM29 86h1v1h-1zM27 88h1v1h-1zM19 89h1v1h-1z" /><path fill="#4b39ef" d="M26 0h64v1h-64zM23 1h71v1h-71zM21 2h75v1h-75zM20 3h76v1h-76zM20 4h77v1h-77zM19 5h7v1h-7zM44 5h5v1h-5zM90 5h8v1h-8zM18 6h6v1h-6zM44 6h5v1h-5zM93 6h5v1h-5zM18 7h5v1h-5zM45 7h4v1h-4zM93 7h5v1h-5zM17 8h6v1h-6zM45 8h5v1h-5zM93 8h5v1h-5zM17 9h6v1h-6zM45 9h6v1h-6zM92 9h6v1h-6zM16 10h6v1h-6zM45 10h6v1h-6zM92 10h5v1h-5zM15 11h6v1h-6zM46 11h5v1h-5zM92 11h6v1h-6zM15 12h6v1h-6zM47 12h5v1h-5zM91 12h6v1h-6zM14 13h6v1h-6zM47 13h5v1h-5zM90 13h6v1h-6zM13 14h6v1h-6zM48 14h5v1h-5zM90 14h5v1h-5zM13 15h6v1h-6zM48 15h5v1h-5zM89 15h6v1h-6zM12 16h6v1h-6zM48 16h5v1h-5zM89 16h5v1h-5zM12 17h5v1h-5zM48 17h6v1h-6zM88 17h6v1h-6zM11 18h6v1h-6zM49 18h5v1h-5zM87 18h6v1h-6zM11 19h5v1h-5zM50 19h5v1h-5zM87 19h5v1h-5zM10 20h6v1h-6zM50 20h5v1h-5zM86 20h6v1h-6zM9 21h6v1h-6zM50 21h6v1h-6zM86 21h5v1h-5zM8 22h6v1h-6zM51 22h5v1h-5zM85 22h6v1h-6zM8 23h7v1h-7zM52 23h4v1h-4zM84 23h6v1h-6zM8 24h5v1h-5zM51 24h6v1h-6zM84 24h5v1h-5zM7 25h6v1h-6zM52 25h5v1h-5zM83 25h6v1h-6zM7 26h6v1h-6zM52 26h6v1h-6zM83 26h5v1h-5zM6 27h5v1h-5zM53 27h5v1h-5zM82 27h6v1h-6zM6 28h5v1h-5zM54 28h5v1h-5zM81 28h6v1h-6zM6 29h5v1h-5zM54 29h5v1h-5zM81 29h5v1h-5zM6 30h5v1h-5zM55 30h4v1h-4zM80 30h6v1h-6zM6 31h6v1h-6zM55 31h5v1h-5zM78 31h7v1h-7zM6 32h79v1h-79zM6 33h78v1h-78zM8 34h75v1h-75zM8 35h74v1h-74zM8 36h72v1h-72zM9 37h6v1h-6zM58 37h5v1h-5zM9 38h6v1h-6zM58 38h5v1h-5zM10 39h5v1h-5zM59 39h5v1h-5zM10 40h5v1h-5zM59 40h5v1h-5zM10 41h6v1h-6zM59 41h5v1h-5zM10 42h6v1h-6zM60 42h5v1h-5zM12 43h5v1h-5zM60 43h5v1h-5zM12 44h5v1h-5zM61 44h5v1h-5zM12 45h6v1h-6zM61 45h5v1h-5zM13 46h5v1h-5zM62 46h5v1h-5zM13 47h5v1h-5zM62 47h5v1h-5zM14 48h54v1h-54zM13 49h55v1h-55zM15 50h53v1h-53zM15 51h54v1h-54zM15 52h55v1h-55zM14 53h7v1h-7zM65 53h5v1h-5zM14 54h7v1h-7zM65 54h5v1h-5zM13 55h9v1h-9zM65 55h5v1h-5zM12 56h11v1h-11zM65 56h5v1h-5zM12 57h11v1h-11zM64 57h5v1h-5zM11 58h6v1h-6zM18 58h5v1h-5zM64 58h5v1h-5zM11 59h5v1h-5zM19 59h5v1h-5zM63 59h6v1h-6zM10 60h5v1h-5zM19 60h6v1h-6zM63 60h5v1h-5zM9 61h7v1h-7zM20 61h5v1h-5zM61 61h6v1h-6zM9 62h6v1h-6zM20 62h5v1h-5zM61 62h6v1h-6zM8 63h6v1h-6zM20 63h5v1h-5zM60 63h6v1h-6zM8 64h5v1h-5zM21 64h6v1h-6zM60 64h6v1h-6zM7 65h5v1h-5zM21 65h5v1h-5zM60 65h5v1h-5zM6 66h6v1h-6zM21 66h6v1h-6zM59 66h5v1h-5zM6 67h5v1h-5zM22 67h5v1h-5zM58 67h6v1h-6zM5 68h6v1h-6zM23 68h5v1h-5zM57 68h6v1h-6zM5 69h5v1h-5zM23 69h5v1h-5zM56 69h7v1h-7zM4 70h5v1h-5zM23 70h5v1h-5zM57 70h5v1h-5zM3 71h6v1h-6zM24 71h5v1h-5zM56 71h5v1h-5zM3 72h5v1h-5zM24 72h5v1h-5zM55 72h6v1h-6zM2 73h6v1h-6zM25 73h5v1h-5zM54 73h7v1h-7zM2 74h5v1h-5zM25 74h5v1h-5zM54 74h6v1h-6zM2 75h5v1h-5zM26 75h5v1h-5zM54 75h5v1h-5zM2 76h5v1h-5zM26 76h5v1h-5zM53 76h5v1h-5zM2 77h5v1h-5zM26 77h6v1h-6zM52 77h6v1h-6zM2 78h5v1h-5zM27 78h5v1h-5zM52 78h5v1h-5zM2 79h55v1h-55zM3 80h53v1h-53zM3 81h53v1h-53zM4 82h50v1h-50zM4 83h48v1h-48zM4 84h6v1h-6zM24 84h8v1h-8zM5 85h5v1h-5zM24 85h6v1h-6zM5 86h6v1h-6zM23 86h6v1h-6zM6 87h5v1h-5zM22 87h6v1h-6zM6 88h6v1h-6zM20 88h7v1h-7zM6 89h6v1h-6zM20 89h6v1h-6zM7 90h5v1h-5zM19 90h7v1h-7zM8 91h5v1h-5zM17 91h8v1h-8zM8 92h5v1h-5zM17 92h7v1h-7zM8 93h6v1h-6zM16 93h7v1h-7zM9 94h13v1h-13zM9 95h12v1h-12zM10 96h10v1h-10zM11 97h9v1h-9zM11 98h7v1h-7z" /><path fill="#4b38ee" d="M90 0h1v1h-1zM19 4h1v1h-1zM26 5h17v1h-17zM50 5h40v1h-40zM17 7h1v1h-1zM92 7h1v1h-1zM46 12h1v1h-1zM90 12h1v1h-1zM53 16h1v1h-1zM11 17h1v1h-1zM54 18h1v1h-1zM93 18h1v1h-1zM16 19h1v1h-1zM14 22h1v1h-1zM56 22h1v1h-1zM88 26h1v1h-1zM86 29h1v1h-1zM54 30h1v1h-1zM14 31h41v1h-41zM61 31h16v1h-16zM7 34h1v1h-1zM82 35h1v1h-1zM15 37h42v1h-42zM57 38h1v1h-1zM9 39h1v1h-1zM15 40h1v1h-1zM16 41h1v1h-1zM16 42h1v1h-1zM17 44h1v1h-1zM61 46h1v1h-1zM61 47h1v1h-1zM68 50h1v1h-1zM21 53h1v1h-1zM12 55h1v1h-1zM10 58h1v1h-1zM67 61h1v1h-1zM8 62h1v1h-1zM13 64h1v1h-1zM12 65h1v1h-1zM4 69h1v1h-1zM61 72h1v1h-1zM24 74h1v1h-1zM25 75h1v1h-1zM59 75h1v1h-1zM1 76h1v1h-1zM1 77h1v1h-1zM58 77h1v1h-1zM56 80h1v1h-1zM3 82h1v1h-1zM23 84h1v1h-1zM32 84h18v1h-18zM4 85h1v1h-1zM5 87h1v1h-1zM23 93h1v1h-1zM9 96h1v1h-1zM10 97h1v1h-1zM12 99h1v1h-1zM14 99h2v1h-2z" /><path fill="#4b39ee" d="M92 0h1v1h-1zM22 1h1v1h-1zM20 2h1v1h-1zM49 6h1v1h-1zM92 6h1v1h-1zM97 10h1v1h-1zM21 11h1v1h-1zM91 11h1v1h-1zM53 15h1v1h-1zM88 15h1v1h-1zM88 16h1v1h-1zM82 25h1v1h-1zM53 28h1v1h-1zM59 30h1v1h-1zM79 30h1v1h-1zM77 31h1v1h-1zM83 34h1v1h-1zM58 39h1v1h-1zM58 40h1v1h-1zM60 44h1v1h-1zM66 45h1v1h-1zM18 47h1v1h-1zM22 47h39v1h-39zM13 53h1v1h-1zM64 53h1v1h-1zM21 54h1v1h-1zM64 54h1v1h-1zM69 57h1v1h-1zM17 58h1v1h-1zM62 60h1v1h-1zM19 61h1v1h-1zM25 63h1v1h-1zM20 64h1v1h-1zM26 65h1v1h-1zM59 65h1v1h-1zM65 65h1v1h-1zM28 70h1v1h-1zM56 70h1v1h-1zM62 70h1v1h-1zM7 74h1v1h-1zM1 75h1v1h-1zM53 75h1v1h-1zM25 76h1v1h-1zM58 76h1v1h-1zM7 78h2v1h-2zM50 78h2v1h-2zM23 85h1v1h-1zM11 87h1v1h-1zM21 87h1v1h-1zM12 89h1v1h-1zM26 89h1v1h-1zM16 92h1v1h-1zM20 96h1v1h-1zM13 99h1v1h-1z" /><path fill="#4a38ee" d="M96 3h1v1h-1zM97 4h1v1h-1zM43 5h1v1h-1zM49 7h1v1h-1zM52 13h1v1h-1zM89 14h1v1h-1zM87 17h1v1h-1zM9 20h1v1h-1zM85 20h1v1h-1zM56 23h1v1h-1zM90 23h1v1h-1zM57 24h1v1h-1zM6 25h1v1h-1zM57 25h1v1h-1zM59 29h1v1h-1zM13 31h1v1h-1zM60 31h1v1h-1zM63 37h1v1h-1zM64 40h1v1h-1zM60 45h1v1h-1zM68 49h1v1h-1zM69 58h1v1h-1zM18 60h1v1h-1zM68 60h1v1h-1zM19 62h1v1h-1zM7 64h1v1h-1zM1 74h1v1h-1zM3 83h1v1h-1zM28 87h1v1h-1zM7 91h1v1h-1zM22 94h1v1h-1z" /><path fill="#4b38ef" d="M18 5h1v1h-1zM24 6h1v1h-1zM43 6h1v1h-1zM15 10h1v1h-1zM46 13h1v1h-1zM5 29h1v1h-1zM84 33h1v1h-1zM80 36h1v1h-1zM8 37h1v1h-1zM11 44h1v1h-1zM21 47h1v1h-1zM22 55h1v1h-1zM64 55h1v1h-1zM9 60h1v1h-1zM5 67h1v1h-1zM21 67h1v1h-1zM10 69h1v1h-1zM22 69h1v1h-1zM28 69h1v1h-1zM9 71h1v1h-1zM2 72h1v1h-1zM30 74h1v1h-1zM53 74h1v1h-1zM2 80h1v1h-1zM53 83h1v1h-1zM50 84h1v1h-1zM22 86h1v1h-1zM24 92h1v1h-1zM15 93h1v1h-1zM18 98h1v1h-1z" /><path fill="#4a39ef" d="M49 5h1v1h-1zM44 8h1v1h-1zM92 8h1v1h-1zM16 9h1v1h-1zM91 10h1v1h-1zM95 14h1v1h-1zM47 15h1v1h-1zM17 17h1v1h-1zM92 19h1v1h-1zM15 21h1v1h-1zM50 22h1v1h-1zM89 24h1v1h-1zM5 28h1v1h-1zM11 28h1v1h-1zM87 28h1v1h-1zM7 35h1v1h-1zM57 37h1v1h-1zM12 46h1v1h-1zM18 59h1v1h-1zM25 62h1v1h-1zM7 63h1v1h-1zM58 66h1v1h-1zM64 67h1v1h-1zM4 68h1v1h-1zM63 68h1v1h-1zM3 70h1v1h-1zM23 71h1v1h-1zM29 71h1v1h-1zM31 76h1v1h-1zM52 76h1v1h-1zM32 78h1v1h-1zM54 82h1v1h-1zM30 85h1v1h-1zM12 90h1v1h-1zM7 92h1v1h-1zM8 94h1v1h-1zM21 95h1v1h-1z" /></svg>