<svg xmlns="http://www.w3.org/2000/svg" viewBox="0 0 100 100" width="1em" height="1em"><path fill="#000000" d="M45 5h10v1h-10zM41 6h18v1h-18zM39 7h22v1h-22zM37 8h26v1h-26zM36 9h10v1h-10zM50 9h4v1h-4zM58 9h6v1h-6zM35 10h10v1h-10zM50 10h5v1h-5zM60 10h5v1h-5zM34 11h10v1h-10zM50 11h6v1h-6zM62 11h4v1h-4zM33 12h10v1h-10zM50 12h7v1h-7zM63 12h4v1h-4zM32 13h11v1h-11zM50 13h7v1h-7zM64 13h4v1h-4zM31 14h11v1h-11zM50 14h8v1h-8zM65 14h4v1h-4zM31 15h11v1h-11zM50 15h8v1h-8zM65 15h4v1h-4zM30 16h11v1h-11zM50 16h9v1h-9zM66 16h4v1h-4zM30 17h11v1h-11zM50 17h9v1h-9zM67 17h3v1h-3zM30 18h11v1h-11zM50 18h9v1h-9zM67 18h3v1h-3zM30 19h11v1h-11zM50 19h10v1h-10zM67 19h3v1h-3zM30 20h10v1h-10zM50 20h10v1h-10zM68 20h2v1h-2zM29 21h11v1h-11zM50 21h10v1h-10zM68 21h3v1h-3zM29 22h11v1h-11zM50 22h10v1h-10zM68 22h3v1h-3zM29 23h11v1h-11zM50 23h10v1h-10zM68 23h3v1h-3zM29 24h11v1h-11zM50 24h10v1h-10zM68 24h3v1h-3zM29 25h11v1h-11zM50 25h10v1h-10zM68 25h3v1h-3zM29 26h11v1h-11zM50 26h10v1h-10zM68 26h3v1h-3zM29 27h11v1h-11zM50 27h10v1h-10zM68 27h3v1h-3zM30 28h10v1h-10zM50 28h10v1h-10zM68 28h2v1h-2zM30 29h11v1h-11zM50 29h10v1h-10zM67 29h3v1h-3zM30 30h11v1h-11zM50 30h9v1h-9zM67 30h3v1h-3zM31 31h10v1h-10zM50 31h9v1h-9zM67 31h3v1h-3zM31 32h10v1h-10zM50 32h9v1h-9zM66 32h3v1h-3zM31 33h11v1h-11zM50 33h9v1h-9zM66 33h3v1h-3zM32 34h10v1h-10zM50 34h8v1h-8zM65 34h3v1h-3zM32 35h10v1h-10zM50 35h8v1h-8zM65 35h3v1h-3zM33 36h10v1h-10zM50 36h8v1h-8zM64 36h3v1h-3zM34 37h9v1h-9zM50 37h7v1h-7zM63 37h3v1h-3zM34 38h9v1h-9zM50 38h7v1h-7zM63 38h3v1h-3zM35 39h9v1h-9zM50 39h6v1h-6zM62 39h3v1h-3zM36 40h8v1h-8zM50 40h6v1h-6zM61 40h3v1h-3zM36 41h8v1h-8zM50 41h6v1h-6zM60 41h4v1h-4zM37 42h8v1h-8zM50 42h5v1h-5zM60 42h3v1h-3zM38 43h7v1h-7zM50 43h5v1h-5zM59 43h3v1h-3zM39 44h7v1h-7zM50 44h4v1h-4zM58 44h3v1h-3zM39 45h7v1h-7zM50 45h4v1h-4zM57 45h4v1h-4zM40 46h7v1h-7zM50 46h3v1h-3zM56 46h4v1h-4zM41 47h6v1h-6zM50 47h3v1h-3zM55 47h4v1h-4zM42 48h6v1h-6zM50 48h2v1h-2zM54 48h4v1h-4zM43 49h5v1h-5zM50 49h2v1h-2zM54 49h3v1h-3zM44 50h5v1h-5zM50 50h6v1h-6zM45 51h10v1h-10zM46 52h8v1h-8zM47 53h6v1h-6zM47 54h6v1h-6zM47 55h6v1h-6zM46 56h8v1h-8zM45 57h10v1h-10zM44 58h4v1h-4zM52 58h4v1h-4zM44 59h4v1h-4zM52 59h4v1h-4zM43 60h4v1h-4zM53 60h3v1h-3zM43 61h4v1h-4zM53 61h4v1h-4zM43 62h4v1h-4zM53 62h4v1h-4zM44 63h4v1h-4zM52 63h4v1h-4zM44 64h12v1h-12zM45 65h10v1h-10zM46 66h8v1h-8zM48 67h4v1h-4zM74 68h3v1h-3zM73 69h5v1h-5zM72 70h7v1h-7zM72 71h7v1h-7zM33 72h3v1h-3zM71 72h8v1h-8zM32 73h5v1h-5zM72 73h7v1h-7zM31 74h7v1h-7zM72 74h7v1h-7zM30 75h9v1h-9zM73 75h4v1h-4zM29 76h11v1h-11zM28 77h14v1h-14zM27 78h16v1h-16zM26 79h18v1h-18zM54 79h2v1h-2zM24 80h21v1h-21zM53 80h4v1h-4zM23 81h24v1h-24zM52 81h7v1h-7zM22 82h26v1h-26zM51 82h9v1h-9zM21 83h33v1h-33zM57 83h4v1h-4zM20 84h33v1h-33zM58 84h4v1h-4zM19 85h33v1h-33zM59 85h5v1h-5zM18 86h33v1h-33zM60 86h5v1h-5zM16 87h33v1h-33zM61 87h5v1h-5zM15 88h33v1h-33zM63 88h4v1h-4zM14 89h33v1h-33zM64 89h4v1h-4zM12 90h34v1h-34zM65 90h5v1h-5zM8 91h37v1h-37zM66 91h5v1h-5zM9 92h34v1h-34zM67 92h5v1h-5zM12 93h30v1h-30zM69 93h5v1h-5zM15 94h25v1h-25zM71 94h5v1h-5z" /><path fill="#040404" d="M46 9h1v1h-1zM66 17h1v1h-1zM40 20h1v1h-1zM56 39h1v1h-1z" /><path fill="#5d5d5d" d="M47 9h1v1h-1zM60 40h1v1h-1z" /><path fill="#a7a7a7" d="M48 9h1v1h-1zM44 39h1v1h-1z" /><path fill="#494949" d="M49 9h1v1h-1zM49 49h1v1h-1z" /><path fill="#080808" d="M54 9h1v1h-1z" /><path fill="#5a5a5a" d="M55 9h1v1h-1zM49 10h1v1h-1zM49 11h1v1h-1zM49 12h1v1h-1zM49 13h1v1h-1zM49 14h1v1h-1zM49 15h1v1h-1zM49 16h1v1h-1zM49 17h1v1h-1zM49 18h1v1h-1zM49 19h1v1h-1zM49 20h1v1h-1zM49 21h1v1h-1zM49 22h1v1h-1zM49 23h1v1h-1zM49 24h1v1h-1zM49 25h1v1h-1zM49 26h1v1h-1zM49 27h1v1h-1zM49 28h1v1h-1zM49 29h1v1h-1zM49 30h1v1h-1zM49 31h1v1h-1zM49 32h1v1h-1zM49 33h1v1h-1zM49 34h1v1h-1zM49 35h1v1h-1zM49 36h1v1h-1zM49 37h1v1h-1zM49 38h1v1h-1zM49 39h1v1h-1zM49 40h1v1h-1zM49 41h1v1h-1zM49 42h1v1h-1zM49 43h1v1h-1zM49 44h1v1h-1zM49 45h1v1h-1zM49 46h1v1h-1zM49 47h1v1h-1zM49 48h1v1h-1zM69 94h1v1h-1z" /><path fill="#323232" d="M56 9h1v1h-1zM57 44h1v1h-1z" /><path fill="#010101" d="M57 9h1v1h-1zM57 13h1v1h-1zM29 28h1v1h-1zM70 28h1v1h-1zM64 35h1v1h-1zM35 40h1v1h-1zM44 41h1v1h-1zM38 44h1v1h-1zM61 44h1v1h-1zM53 49h1v1h-1zM52 67h1v1h-1zM57 80h1v1h-1z" /><path fill="#363636" d="M45 10h1v1h-1z" /><path fill="#dadada" d="M46 10h1v1h-1z" /><path fill="#ffffff" d="M47 10h2v1h-2zM46 11h3v1h-3zM58 11h1v1h-1zM45 12h4v1h-4zM58 12h3v1h-3zM44 13h5v1h-5zM59 13h3v1h-3zM43 14h6v1h-6zM59 14h4v1h-4zM43 15h6v1h-6zM60 15h4v1h-4zM43 16h6v1h-6zM60 16h5v1h-5zM42 17h7v1h-7zM60 17h5v1h-5zM42 18h7v1h-7zM60 18h6v1h-6zM42 19h7v1h-7zM61 19h5v1h-5zM42 20h7v1h-7zM61 20h5v1h-5zM41 21h8v1h-8zM61 21h6v1h-6zM41 22h8v1h-8zM61 22h6v1h-6zM41 23h8v1h-8zM61 23h6v1h-6zM41 24h8v1h-8zM61 24h6v1h-6zM41 25h8v1h-8zM61 25h6v1h-6zM41 26h8v1h-8zM61 26h6v1h-6zM41 27h8v1h-8zM61 27h6v1h-6zM42 28h7v1h-7zM61 28h5v1h-5zM42 29h7v1h-7zM61 29h5v1h-5zM42 30h7v1h-7zM61 30h5v1h-5zM42 31h7v1h-7zM60 31h5v1h-5zM43 32h6v1h-6zM60 32h5v1h-5zM43 33h6v1h-6zM60 33h4v1h-4zM43 34h6v1h-6zM60 34h4v1h-4zM43 35h6v1h-6zM59 35h4v1h-4zM44 36h5v1h-5zM59 36h3v1h-3zM44 37h5v1h-5zM58 37h4v1h-4zM45 38h4v1h-4zM58 38h3v1h-3zM45 39h4v1h-4zM58 39h2v1h-2zM45 40h4v1h-4zM57 40h3v1h-3zM46 41h3v1h-3zM57 41h2v1h-2zM46 42h3v1h-3zM57 42h1v1h-1zM47 43h2v1h-2zM56 43h1v1h-1zM47 44h2v1h-2zM48 45h1v1h-1zM48 46h1v1h-1zM49 59h2v1h-2zM49 60h2v1h-2zM48 61h4v1h-4zM48 62h4v1h-4zM55 84h1v1h-1zM53 85h4v1h-4zM52 86h6v1h-6zM51 87h9v1h-9zM50 88h11v1h-11zM49 89h13v1h-13zM48 90h15v1h-15zM46 91h18v1h-18zM45 92h21v1h-21zM44 93h23v1h-23zM43 94h25v1h-25z" /><path fill="#1a1a1a" d="M55 10h1v1h-1z" /><path fill="#d7d7d7" d="M56 10h1v1h-1z" /><path fill="#e0e0e0" d="M57 10h1v1h-1z" /><path fill="#757575" d="M58 10h1v1h-1z" /><path fill="#101010" d="M59 10h1v1h-1zM48 49h1v1h-1zM70 94h1v1h-1z" /><path fill="#444444" d="M44 11h1v1h-1zM40 26h1v1h-1z" /><path fill="#f7f7f7" d="M45 11h1v1h-1zM54 46h1v1h-1zM42 94h1v1h-1z" /><path fill="#232323" d="M56 11h1v1h-1z" /><path fill="#eeeeee" d="M57 11h1v1h-1z" /><path fill="#ebebeb" d="M59 11h1v1h-1zM46 43h1v1h-1z" /><path fill="#666666" d="M60 11h1v1h-1zM60 24h1v1h-1z" /><path fill="#020202" d="M61 11h1v1h-1zM49 50h1v1h-1zM48 58h1v1h-1zM51 58h1v1h-1z" /><path fill="#191919" d="M43 12h1v1h-1z" /><path fill="#ededed" d="M44 12h1v1h-1z" /><path fill="#5e5e5e" d="M57 12h1v1h-1z" /><path fill="#b0b0b0" d="M61 12h1v1h-1zM42 15h1v1h-1z" /><path fill="#0d0d0d" d="M62 12h1v1h-1z" /><path fill="#b3b3b3" d="M43 13h1v1h-1zM60 28h1v1h-1zM66 29h1v1h-1z" /><path fill="#c9c9c9" d="M58 13h1v1h-1zM42 33h1v1h-1z" /><path fill="#d2d2d2" d="M62 13h1v1h-1z" /><path fill="#1b1b1b" d="M63 13h1v1h-1zM58 43h1v1h-1z" /><path fill="#474747" d="M42 14h1v1h-1zM56 45h1v1h-1zM52 62h1v1h-1z" /><path fill="#505050" d="M58 14h1v1h-1z" /><path fill="#cdcdcd" d="M63 14h1v1h-1z" /><path fill="#0a0a0a" d="M64 14h1v1h-1zM40 28h1v1h-1zM65 33h1v1h-1z" /><path fill="#050505" d="M58 15h1v1h-1zM66 31h1v1h-1zM62 88h1v1h-1zM68 93h1v1h-1z" /><path fill="#e9e9e9" d="M59 15h1v1h-1z" /><path fill="#aaaaaa" d="M64 15h1v1h-1z" /><path fill="#171717" d="M41 16h1v1h-1zM59 18h1v1h-1z" /><path fill="#fafafa" d="M42 16h1v1h-1zM66 28h1v1h-1zM55 45h1v1h-1z" /><path fill="#929292" d="M59 16h1v1h-1zM51 86h1v1h-1z" /><path fill="#565656" d="M65 16h1v1h-1zM66 18h1v1h-1z" /><path fill="#7458e8" d="M16 17h1v1h-1zM15 18h1v1h-1zM14 19h1v1h-1zM12 22h1v1h-1zM11 23h1v1h-1zM10 24h1v1h-1zM9 26h1v1h-1zM8 27h1v1h-1zM7 29h1v1h-1zM6 30h1v1h-1zM6 31h1v1h-1zM5 32h1v1h-1zM5 33h1v1h-1zM4 35h1v1h-1zM3 37h1v1h-1zM3 38h1v1h-1zM2 40h1v1h-1zM2 41h1v1h-1zM1 43h1v1h-1zM1 44h1v1h-1zM1 45h1v1h-1zM0 49h1v1h-1zM0 50h1v1h-1zM0 51h1v1h-1zM0 52h1v1h-1zM0 53h1v1h-1zM0 54h1v1h-1zM0 55h1v1h-1zM0 56h1v1h-1zM0 57h1v1h-1zM0 58h1v1h-1zM0 59h1v1h-1zM0 60h1v1h-1zM0 61h1v1h-1zM0 62h1v1h-1zM1 66h1v1h-1zM1 67h1v1h-1zM2 70h1v1h-1zM2 71h1v1h-1zM3 73h1v1h-1zM3 74h1v1h-1zM4 76h1v1h-1zM5 78h1v1h-1zM99 79h1v1h-1zM6 80h1v1h-1zM7 82h1v1h-1zM8 84h1v1h-1zM9 85h1v1h-1zM96 85h1v1h-1zM11 88h1v1h-1zM94 88h1v1h-1zM93 89h1v1h-1z" /><path fill="#7458e7" d="M17 17h1v1h-1zM91 20h1v1h-1zM96 25h1v1h-1zM92 90h1v1h-1z" /><path fill="#7659e8" d="M18 17h1v1h-1zM17 18h1v1h-1zM16 19h1v1h-1zM15 20h1v1h-1zM90 20h1v1h-1zM14 21h1v1h-1zM91 21h1v1h-1zM13 22h1v1h-1zM92 22h1v1h-1zM12 23h1v1h-1zM93 23h1v1h-1zM94 24h1v1h-1zM11 25h1v1h-1zM10 26h1v1h-1zM95 26h1v1h-1zM96 27h1v1h-1zM9 28h1v1h-1zM8 29h1v1h-1zM97 29h1v1h-1zM7 31h1v1h-1zM98 31h1v1h-1zM6 33h1v1h-1zM99 34h1v1h-1zM5 35h1v1h-1zM4 37h1v1h-1zM4 38h1v1h-1zM3 40h1v1h-1zM3 41h1v1h-1zM2 44h1v1h-1zM2 45h1v1h-1zM2 46h1v1h-1zM1 50h1v1h-1zM1 51h1v1h-1zM1 52h1v1h-1zM1 53h1v1h-1zM1 54h1v1h-1zM1 55h1v1h-1zM1 56h1v1h-1zM1 57h1v1h-1zM1 58h1v1h-1zM1 59h1v1h-1zM1 60h1v1h-1zM1 61h1v1h-1zM2 65h1v1h-1zM2 66h1v1h-1zM2 67h1v1h-1zM3 69h1v1h-1zM3 70h1v1h-1zM4 73h1v1h-1zM5 75h1v1h-1zM5 76h1v1h-1zM6 78h1v1h-1zM7 80h1v1h-1zM98 80h1v1h-1zM8 81h1v1h-1zM97 82h1v1h-1zM9 83h1v1h-1zM96 83h1v1h-1zM10 85h1v1h-1zM95 85h1v1h-1zM11 86h1v1h-1zM94 86h1v1h-1zM12 87h1v1h-1zM92 89h1v1h-1zM91 90h1v1h-1zM90 91h1v1h-1z" /><path fill="#765ae8" d="M19 17h1v1h-1z" /><path fill="#795be8" d="M20 17h2v1h-2zM19 18h1v1h-1zM86 18h1v1h-1zM18 19h1v1h-1zM87 19h1v1h-1zM17 20h1v1h-1zM16 21h1v1h-1zM89 21h1v1h-1zM15 22h1v1h-1zM90 22h1v1h-1zM91 23h1v1h-1zM12 26h1v1h-1zM11 27h1v1h-1zM94 27h1v1h-1zM10 29h1v1h-1zM96 30h1v1h-1zM8 32h1v1h-1zM97 32h1v1h-1zM98 34h1v1h-1zM99 36h1v1h-1zM6 37h1v1h-1zM5 39h1v1h-1zM4 43h1v1h-1zM3 47h1v1h-1zM3 48h1v1h-1zM3 62h1v1h-1zM3 63h1v1h-1zM4 68h1v1h-1zM5 71h1v1h-1zM6 74h1v1h-1zM99 74h1v1h-1zM7 76h1v1h-1zM8 78h1v1h-1zM9 80h1v1h-1zM10 82h1v1h-1zM95 82h1v1h-1zM12 85h1v1h-1zM93 85h1v1h-1zM13 86h1v1h-1zM89 90h1v1h-1zM88 91h1v1h-1zM87 92h1v1h-1zM84 94h1v1h-1z" /><path fill="#7b5be8" d="M22 17h1v1h-1zM83 17h1v1h-1z" /><path fill="#7c5be8" d="M23 17h1v1h-1z" /><path fill="#7c5de8" d="M24 17h1v1h-1z" /><path fill="#7e5de8" d="M25 17h1v1h-1z" /><path fill="#7f5ee8" d="M26 17h2v1h-2zM78 17h2v1h-2z" /><path fill="#815ee8" d="M28 17h1v1h-1zM77 17h1v1h-1z" /><path fill="#7857d7" d="M29 17h1v1h-1z" /><path fill="#626262" d="M41 17h1v1h-1z" /><path fill="#515151" d="M59 17h1v1h-1zM40 24h1v1h-1z" /><path fill="#dedede" d="M65 17h1v1h-1z" /><path fill="#7e5adb" d="M70 17h1v1h-1z" /><path fill="#8761ea" d="M71 17h1v1h-1z" /><path fill="#8561ea" d="M72 17h2v1h-2zM75 18h1v1h-1zM77 19h1v1h-1zM27 20h1v1h-1zM78 20h1v1h-1zM26 21h1v1h-1zM79 21h1v1h-1zM25 22h1v1h-1zM82 23h1v1h-1zM22 24h1v1h-1zM83 24h1v1h-1zM84 25h1v1h-1zM85 26h1v1h-1zM19 28h1v1h-1zM18 29h1v1h-1zM87 29h1v1h-1zM17 30h1v1h-1zM88 30h1v1h-1zM16 32h1v1h-1zM89 32h1v1h-1zM15 33h1v1h-1zM90 33h1v1h-1zM14 35h1v1h-1zM91 35h1v1h-1zM13 37h1v1h-1zM92 37h1v1h-1zM12 39h1v1h-1zM93 39h1v1h-1zM12 40h1v1h-1zM11 42h1v1h-1zM94 42h1v1h-1zM11 43h1v1h-1zM95 45h1v1h-1zM10 46h1v1h-1zM95 46h1v1h-1zM10 47h1v1h-1zM96 50h1v1h-1zM96 51h1v1h-1zM9 52h1v1h-1zM96 52h1v1h-1zM9 53h1v1h-1zM96 53h1v1h-1zM9 54h1v1h-1zM96 54h1v1h-1zM9 55h1v1h-1zM96 55h1v1h-1zM9 56h1v1h-1zM96 56h1v1h-1zM9 57h1v1h-1zM96 57h1v1h-1zM9 58h1v1h-1zM96 58h1v1h-1zM9 59h1v1h-1zM96 59h1v1h-1zM96 60h1v1h-1zM10 63h1v1h-1zM10 64h1v1h-1zM95 64h1v1h-1zM10 65h1v1h-1zM95 65h1v1h-1zM95 66h1v1h-1zM11 68h1v1h-1zM94 68h1v1h-1zM94 69h1v1h-1zM12 71h1v1h-1zM93 71h1v1h-1zM93 72h1v1h-1zM13 73h1v1h-1zM92 74h1v1h-1zM14 75h1v1h-1zM91 76h1v1h-1zM15 77h1v1h-1zM90 77h1v1h-1zM90 78h1v1h-1zM16 79h1v1h-1zM89 79h1v1h-1zM17 80h1v1h-1zM88 81h1v1h-1zM18 82h1v1h-1zM87 82h1v1h-1zM86 83h1v1h-1zM85 84h1v1h-1zM82 87h1v1h-1zM81 88h1v1h-1zM80 89h1v1h-1zM79 90h1v1h-1zM77 91h1v1h-1zM76 92h1v1h-1z" /><path fill="#8461ea" d="M74 17h1v1h-1zM28 19h1v1h-1zM81 22h1v1h-1zM23 23h1v1h-1zM21 25h1v1h-1zM20 26h1v1h-1zM86 27h1v1h-1zM89 31h1v1h-1zM92 36h1v1h-1zM94 41h1v1h-1zM95 44h1v1h-1zM10 45h1v1h-1zM96 49h1v1h-1zM9 51h1v1h-1zM9 60h1v1h-1zM96 61h1v1h-1zM11 69h1v1h-1zM13 74h1v1h-1zM14 76h1v1h-1zM78 91h1v1h-1z" /><path fill="#8260ea" d="M75 17h2v1h-2zM79 19h1v1h-1zM89 29h1v1h-1zM91 32h1v1h-1zM13 34h1v1h-1zM12 36h1v1h-1zM94 38h1v1h-1zM10 41h1v1h-1zM8 50h1v1h-1zM8 61h1v1h-1zM97 62h1v1h-1zM9 66h1v1h-1zM96 67h1v1h-1zM95 70h1v1h-1zM93 75h1v1h-1zM88 83h1v1h-1zM77 93h1v1h-1z" /><path fill="#7e5ee8" d="M80 17h1v1h-1z" /><path fill="#7c5ce9" d="M81 17h1v1h-1zM22 18h1v1h-1zM85 19h1v1h-1zM86 20h1v1h-1zM87 21h1v1h-1zM88 22h1v1h-1zM89 23h1v1h-1zM15 25h1v1h-1zM14 26h1v1h-1zM91 26h1v1h-1zM13 27h1v1h-1zM92 27h1v1h-1zM12 29h1v1h-1zM93 29h1v1h-1zM94 30h1v1h-1zM10 32h1v1h-1zM95 32h1v1h-1zM9 34h1v1h-1zM96 34h1v1h-1zM8 36h1v1h-1zM97 36h1v1h-1zM8 37h1v1h-1zM98 38h1v1h-1zM7 39h1v1h-1zM98 39h1v1h-1zM99 41h1v1h-1zM6 42h1v1h-1zM99 42h1v1h-1zM5 46h1v1h-1zM5 47h1v1h-1zM4 53h1v1h-1zM4 54h1v1h-1zM4 55h1v1h-1zM4 56h1v1h-1zM4 57h1v1h-1zM4 58h1v1h-1zM5 63h1v1h-1zM5 64h1v1h-1zM5 65h1v1h-1zM6 68h1v1h-1zM6 69h1v1h-1zM99 69h1v1h-1zM99 70h1v1h-1zM7 71h1v1h-1zM7 72h1v1h-1zM98 72h1v1h-1zM8 74h1v1h-1zM97 75h1v1h-1zM9 76h1v1h-1zM96 77h1v1h-1zM10 78h1v1h-1zM95 79h1v1h-1zM11 80h1v1h-1zM94 80h1v1h-1zM12 82h1v1h-1zM93 82h1v1h-1zM13 83h1v1h-1zM91 85h1v1h-1zM15 86h1v1h-1zM90 86h1v1h-1zM89 87h1v1h-1zM85 91h1v1h-1zM84 92h1v1h-1zM83 93h1v1h-1zM82 94h1v1h-1z" /><path fill="#7b5be9" d="M82 17h1v1h-1z" /><path fill="#7055e7" d="M12 18h1v1h-1z" /><path fill="#7157e7" d="M13 18h1v1h-1z" /><path fill="#7257e8" d="M14 18h1v1h-1zM13 19h1v1h-1zM12 20h1v1h-1zM11 21h1v1h-1zM10 22h1v1h-1zM9 24h1v1h-1zM8 25h1v1h-1zM7 27h1v1h-1zM6 28h1v1h-1zM5 30h1v1h-1zM4 32h1v1h-1zM3 34h1v1h-1zM2 37h1v1h-1zM1 39h1v1h-1zM1 40h1v1h-1zM0 43h1v1h-1zM0 44h1v1h-1zM0 45h1v1h-1zM0 66h1v1h-1zM0 67h1v1h-1zM0 68h1v1h-1zM1 70h1v1h-1zM1 71h1v1h-1zM2 73h1v1h-1zM2 74h1v1h-1zM3 76h1v1h-1zM3 77h1v1h-1zM4 78h1v1h-1zM4 79h1v1h-1zM5 80h1v1h-1zM5 81h1v1h-1zM6 82h1v1h-1zM7 84h1v1h-1zM8 86h1v1h-1zM9 87h1v1h-1zM10 88h1v1h-1z" /><path fill="#7559e8" d="M16 18h1v1h-1zM15 19h1v1h-1zM89 19h1v1h-1zM14 20h1v1h-1zM13 21h1v1h-1zM11 24h1v1h-1zM10 25h1v1h-1zM95 25h1v1h-1zM96 26h1v1h-1zM9 27h1v1h-1zM8 28h1v1h-1zM97 28h1v1h-1zM7 30h1v1h-1zM98 30h1v1h-1zM6 32h1v1h-1zM5 34h1v1h-1zM4 36h1v1h-1zM3 39h1v1h-1zM2 42h1v1h-1zM2 43h1v1h-1zM1 46h1v1h-1zM1 47h1v1h-1zM1 48h1v1h-1zM1 49h1v1h-1zM1 62h1v1h-1zM1 63h1v1h-1zM1 64h1v1h-1zM1 65h1v1h-1zM2 68h1v1h-1zM2 69h1v1h-1zM3 71h1v1h-1zM3 72h1v1h-1zM4 74h1v1h-1zM4 75h1v1h-1zM5 77h1v1h-1zM6 79h1v1h-1zM7 81h1v1h-1zM98 81h1v1h-1zM8 82h1v1h-1zM8 83h1v1h-1zM97 83h1v1h-1zM9 84h1v1h-1zM96 84h1v1h-1zM10 86h1v1h-1zM95 86h1v1h-1zM11 87h1v1h-1zM94 87h1v1h-1zM12 88h1v1h-1zM93 88h1v1h-1z" /><path fill="#775ae8" d="M18 18h1v1h-1zM15 21h1v1h-1zM14 22h1v1h-1zM13 23h1v1h-1zM92 23h1v1h-1zM12 24h1v1h-1zM93 24h1v1h-1zM94 25h1v1h-1zM11 26h1v1h-1zM10 27h1v1h-1zM95 27h1v1h-1zM96 28h1v1h-1zM9 29h1v1h-1zM8 30h1v1h-1zM97 30h1v1h-1zM7 32h1v1h-1zM98 32h1v1h-1zM6 34h1v1h-1zM99 35h1v1h-1zM5 36h1v1h-1zM5 37h1v1h-1zM4 39h1v1h-1zM4 40h1v1h-1zM3 42h1v1h-1zM3 43h1v1h-1zM3 44h1v1h-1zM2 47h1v1h-1zM2 48h1v1h-1zM2 49h1v1h-1zM2 50h1v1h-1zM2 61h1v1h-1zM2 62h1v1h-1zM2 63h1v1h-1zM2 64h1v1h-1zM3 67h1v1h-1zM3 68h1v1h-1zM4 71h1v1h-1zM4 72h1v1h-1zM5 74h1v1h-1zM6 76h1v1h-1zM6 77h1v1h-1zM7 78h1v1h-1zM7 79h1v1h-1zM98 79h1v1h-1zM8 80h1v1h-1zM97 81h1v1h-1zM9 82h1v1h-1zM96 82h1v1h-1zM10 84h1v1h-1zM95 84h1v1h-1zM11 85h1v1h-1zM94 85h1v1h-1zM12 86h1v1h-1zM93 87h1v1h-1zM92 88h1v1h-1zM91 89h1v1h-1zM90 90h1v1h-1zM89 91h1v1h-1zM88 92h1v1h-1z" /><path fill="#7a5be9" d="M20 18h1v1h-1zM85 18h1v1h-1zM19 19h1v1h-1zM86 19h1v1h-1zM18 20h1v1h-1zM87 20h1v1h-1zM17 21h1v1h-1zM88 21h1v1h-1zM16 22h1v1h-1zM89 22h1v1h-1zM15 23h1v1h-1zM90 23h1v1h-1zM14 24h1v1h-1zM91 24h1v1h-1zM92 25h1v1h-1zM12 27h1v1h-1zM93 27h1v1h-1zM11 28h1v1h-1zM94 28h1v1h-1zM10 30h1v1h-1zM95 30h1v1h-1zM96 31h1v1h-1zM9 32h1v1h-1zM97 33h1v1h-1zM8 34h1v1h-1zM98 35h1v1h-1zM7 36h1v1h-1zM98 36h1v1h-1zM6 38h1v1h-1zM99 38h1v1h-1zM6 39h1v1h-1zM5 41h1v1h-1zM5 42h1v1h-1zM4 45h1v1h-1zM4 46h1v1h-1zM4 47h1v1h-1zM3 52h1v1h-1zM3 53h1v1h-1zM3 54h1v1h-1zM3 55h1v1h-1zM3 56h1v1h-1zM3 57h1v1h-1zM3 58h1v1h-1zM3 59h1v1h-1zM4 64h1v1h-1zM4 65h1v1h-1zM4 66h1v1h-1zM5 69h1v1h-1zM6 72h1v1h-1zM99 72h1v1h-1zM99 73h1v1h-1zM7 74h1v1h-1zM7 75h1v1h-1zM98 75h1v1h-1zM8 77h1v1h-1zM97 77h1v1h-1zM9 79h1v1h-1zM96 79h1v1h-1zM10 81h1v1h-1zM95 81h1v1h-1zM11 82h1v1h-1zM12 84h1v1h-1zM93 84h1v1h-1zM13 85h1v1h-1zM92 85h1v1h-1zM14 86h1v1h-1zM90 88h1v1h-1zM89 89h1v1h-1zM88 90h1v1h-1zM87 91h1v1h-1zM86 92h1v1h-1zM85 93h1v1h-1z" /><path fill="#7b5ce9" d="M21 18h1v1h-1zM84 18h1v1h-1zM20 19h1v1h-1zM19 20h1v1h-1zM18 21h1v1h-1zM17 22h1v1h-1zM16 23h1v1h-1zM15 24h1v1h-1zM90 24h1v1h-1zM14 25h1v1h-1zM91 25h1v1h-1zM92 26h1v1h-1zM12 28h1v1h-1zM93 28h1v1h-1zM11 29h1v1h-1zM94 29h1v1h-1zM11 30h1v1h-1zM10 31h1v1h-1zM95 31h1v1h-1zM9 33h1v1h-1zM96 33h1v1h-1zM8 35h1v1h-1zM97 35h1v1h-1zM7 37h1v1h-1zM98 37h1v1h-1zM7 38h1v1h-1zM99 39h1v1h-1zM6 40h1v1h-1zM99 40h1v1h-1zM6 41h1v1h-1zM5 43h1v1h-1zM5 44h1v1h-1zM5 45h1v1h-1zM4 48h1v1h-1zM4 49h1v1h-1zM4 50h1v1h-1zM4 51h1v1h-1zM4 52h1v1h-1zM4 59h1v1h-1zM4 60h1v1h-1zM4 61h1v1h-1zM4 62h1v1h-1zM4 63h1v1h-1zM5 66h1v1h-1zM5 67h1v1h-1zM6 70h1v1h-1zM6 71h1v1h-1zM99 71h1v1h-1zM7 73h1v1h-1zM98 73h1v1h-1zM98 74h1v1h-1zM8 75h1v1h-1zM8 76h1v1h-1zM97 76h1v1h-1zM9 77h1v1h-1zM9 78h1v1h-1zM96 78h1v1h-1zM10 79h1v1h-1zM95 80h1v1h-1zM11 81h1v1h-1zM94 81h1v1h-1zM12 83h1v1h-1zM93 83h1v1h-1zM13 84h1v1h-1zM92 84h1v1h-1zM14 85h1v1h-1zM91 86h1v1h-1zM90 87h1v1h-1zM89 88h1v1h-1zM88 89h1v1h-1zM87 90h1v1h-1zM86 91h1v1h-1zM85 92h1v1h-1zM84 93h1v1h-1z" /><path fill="#7d5de9" d="M23 18h1v1h-1zM83 18h1v1h-1zM21 19h1v1h-1zM84 19h1v1h-1zM20 20h1v1h-1zM85 20h1v1h-1zM19 21h1v1h-1zM86 21h1v1h-1zM18 22h1v1h-1zM87 22h1v1h-1zM17 23h1v1h-1zM88 23h1v1h-1zM89 24h1v1h-1zM15 26h1v1h-1zM14 27h1v1h-1zM91 27h1v1h-1zM13 28h1v1h-1zM92 28h1v1h-1zM12 30h1v1h-1zM93 30h1v1h-1zM94 31h1v1h-1zM11 32h1v1h-1zM10 33h1v1h-1zM95 33h1v1h-1zM10 34h1v1h-1zM9 35h1v1h-1zM96 35h1v1h-1zM9 36h1v1h-1zM97 37h1v1h-1zM8 38h1v1h-1zM97 38h1v1h-1zM7 40h1v1h-1zM98 40h1v1h-1zM7 41h1v1h-1zM98 41h1v1h-1zM99 43h1v1h-1zM6 44h1v1h-1zM99 44h1v1h-1zM6 45h1v1h-1zM5 49h1v1h-1zM5 50h1v1h-1zM5 51h1v1h-1zM5 52h1v1h-1zM5 53h1v1h-1zM5 54h1v1h-1zM5 55h1v1h-1zM5 56h1v1h-1zM5 57h1v1h-1zM5 58h1v1h-1zM5 59h1v1h-1zM5 60h1v1h-1zM5 61h1v1h-1zM5 62h1v1h-1zM6 65h1v1h-1zM6 66h1v1h-1zM99 66h1v1h-1zM6 67h1v1h-1zM99 67h1v1h-1zM99 68h1v1h-1zM7 69h1v1h-1zM7 70h1v1h-1zM98 70h1v1h-1zM98 71h1v1h-1zM8 72h1v1h-1zM8 73h1v1h-1zM97 73h1v1h-1zM9 75h1v1h-1zM96 75h1v1h-1zM96 76h1v1h-1zM10 77h1v1h-1zM95 77h1v1h-1zM95 78h1v1h-1zM11 79h1v1h-1zM94 79h1v1h-1zM12 81h1v1h-1zM93 81h1v1h-1zM13 82h1v1h-1zM92 82h1v1h-1zM14 84h1v1h-1zM91 84h1v1h-1zM15 85h1v1h-1zM90 85h1v1h-1zM89 86h1v1h-1zM83 92h1v1h-1zM82 93h1v1h-1z" /><path fill="#7f5ee9" d="M24 18h1v1h-1zM81 18h1v1h-1zM23 19h1v1h-1zM82 19h1v1h-1zM22 20h1v1h-1zM83 20h1v1h-1zM21 21h1v1h-1zM84 21h1v1h-1zM20 22h1v1h-1zM19 23h1v1h-1zM18 24h1v1h-1zM87 24h1v1h-1zM17 25h1v1h-1zM88 25h1v1h-1zM16 26h1v1h-1zM89 26h1v1h-1zM90 27h1v1h-1zM14 29h1v1h-1zM91 29h1v1h-1zM13 30h1v1h-1zM92 30h1v1h-1zM12 32h1v1h-1zM93 32h1v1h-1zM94 33h1v1h-1zM11 34h1v1h-1zM94 34h1v1h-1zM95 35h1v1h-1zM10 36h1v1h-1zM95 36h1v1h-1zM9 38h1v1h-1zM96 38h1v1h-1zM9 39h1v1h-1zM97 40h1v1h-1zM8 41h1v1h-1zM97 41h1v1h-1zM8 42h1v1h-1zM98 43h1v1h-1zM7 44h1v1h-1zM98 44h1v1h-1zM7 45h1v1h-1zM98 45h1v1h-1zM7 46h1v1h-1zM99 48h1v1h-1zM6 49h1v1h-1zM99 49h1v1h-1zM6 50h1v1h-1zM99 50h1v1h-1zM6 51h1v1h-1zM99 51h1v1h-1zM6 52h1v1h-1zM99 52h1v1h-1zM6 53h1v1h-1zM6 54h1v1h-1zM6 55h1v1h-1zM6 56h1v1h-1zM6 57h1v1h-1zM6 58h1v1h-1zM6 59h1v1h-1zM99 59h1v1h-1zM6 60h1v1h-1zM99 60h1v1h-1zM6 61h1v1h-1zM99 61h1v1h-1zM99 62h1v1h-1zM99 63h1v1h-1zM7 65h1v1h-1zM7 66h1v1h-1zM98 66h1v1h-1zM98 67h1v1h-1zM8 69h1v1h-1zM8 70h1v1h-1zM97 70h1v1h-1zM9 72h1v1h-1zM96 72h1v1h-1zM96 73h1v1h-1zM10 74h1v1h-1zM10 75h1v1h-1zM95 75h1v1h-1zM11 77h1v1h-1zM94 77h1v1h-1zM12 78h1v1h-1zM12 79h1v1h-1zM93 79h1v1h-1zM13 80h1v1h-1zM92 80h1v1h-1zM92 81h1v1h-1zM14 82h1v1h-1zM91 82h1v1h-1zM15 83h1v1h-1zM90 83h1v1h-1zM16 84h1v1h-1zM89 85h1v1h-1zM88 86h1v1h-1zM87 87h1v1h-1zM86 88h1v1h-1zM85 89h1v1h-1zM84 90h1v1h-1zM83 91h1v1h-1zM82 92h1v1h-1zM80 93h1v1h-1z" /><path fill="#805ee9" d="M25 18h1v1h-1zM80 18h1v1h-1zM24 19h1v1h-1zM81 19h1v1h-1zM23 20h1v1h-1zM85 22h1v1h-1zM86 23h1v1h-1zM17 26h1v1h-1zM16 27h1v1h-1zM89 27h1v1h-1zM15 28h1v1h-1zM90 28h1v1h-1zM14 30h1v1h-1zM13 31h1v1h-1zM92 31h1v1h-1zM12 33h1v1h-1zM93 33h1v1h-1zM11 35h1v1h-1zM94 35h1v1h-1zM10 37h1v1h-1zM95 37h1v1h-1zM96 39h1v1h-1zM9 40h1v1h-1zM97 42h1v1h-1zM8 43h1v1h-1zM97 43h1v1h-1zM98 46h1v1h-1zM7 47h1v1h-1zM98 47h1v1h-1zM7 48h1v1h-1zM99 53h1v1h-1zM99 54h1v1h-1zM99 55h1v1h-1zM99 56h1v1h-1zM99 57h1v1h-1zM99 58h1v1h-1zM7 62h1v1h-1zM7 63h1v1h-1zM98 63h1v1h-1zM7 64h1v1h-1zM98 64h1v1h-1zM98 65h1v1h-1zM8 67h1v1h-1zM8 68h1v1h-1zM97 68h1v1h-1zM97 69h1v1h-1zM9 71h1v1h-1zM96 71h1v1h-1zM10 73h1v1h-1zM95 74h1v1h-1zM11 76h1v1h-1zM94 76h1v1h-1zM93 78h1v1h-1zM13 79h1v1h-1zM14 81h1v1h-1zM91 81h1v1h-1zM15 82h1v1h-1zM89 84h1v1h-1zM88 85h1v1h-1zM87 86h1v1h-1zM86 87h1v1h-1zM84 89h1v1h-1zM83 90h1v1h-1zM82 91h1v1h-1zM81 92h1v1h-1z" /><path fill="#815fe9" d="M26 18h1v1h-1zM79 18h1v1h-1zM25 19h1v1h-1zM80 19h1v1h-1zM24 20h1v1h-1zM82 20h1v1h-1zM83 21h1v1h-1zM21 22h1v1h-1zM84 22h1v1h-1zM20 23h1v1h-1zM85 23h1v1h-1zM19 24h1v1h-1zM86 24h1v1h-1zM87 25h1v1h-1zM17 27h1v1h-1zM16 28h1v1h-1zM89 28h1v1h-1zM15 29h1v1h-1zM90 29h1v1h-1zM14 31h1v1h-1zM91 31h1v1h-1zM13 32h1v1h-1zM92 32h1v1h-1zM13 33h1v1h-1zM12 34h1v1h-1zM93 34h1v1h-1zM11 36h1v1h-1zM94 36h1v1h-1zM11 37h1v1h-1zM95 38h1v1h-1zM10 39h1v1h-1zM95 39h1v1h-1zM9 41h1v1h-1zM96 41h1v1h-1zM9 42h1v1h-1zM97 44h1v1h-1zM8 45h1v1h-1zM97 45h1v1h-1zM8 46h1v1h-1zM98 49h1v1h-1zM7 50h1v1h-1zM98 50h1v1h-1zM7 51h1v1h-1zM98 51h1v1h-1zM7 52h1v1h-1zM98 52h1v1h-1zM7 53h1v1h-1zM98 53h1v1h-1zM7 54h1v1h-1zM98 54h1v1h-1zM7 55h1v1h-1zM7 56h1v1h-1zM98 56h1v1h-1zM7 57h1v1h-1zM98 57h1v1h-1zM7 58h1v1h-1zM98 58h1v1h-1zM7 59h1v1h-1zM98 59h1v1h-1zM7 60h1v1h-1zM98 60h1v1h-1zM7 61h1v1h-1zM98 61h1v1h-1zM98 62h1v1h-1zM8 64h1v1h-1zM8 65h1v1h-1zM97 65h1v1h-1zM8 66h1v1h-1zM97 66h1v1h-1zM97 67h1v1h-1zM9 69h1v1h-1zM96 69h1v1h-1zM96 70h1v1h-1zM10 72h1v1h-1zM95 72h1v1h-1zM95 73h1v1h-1zM11 74h1v1h-1zM94 74h1v1h-1zM94 75h1v1h-1zM12 76h1v1h-1zM93 77h1v1h-1zM13 78h1v1h-1zM92 78h1v1h-1zM14 80h1v1h-1zM91 80h1v1h-1zM15 81h1v1h-1zM16 83h1v1h-1zM89 83h1v1h-1zM17 84h1v1h-1zM88 84h1v1h-1zM87 85h1v1h-1zM82 90h1v1h-1zM81 91h1v1h-1zM80 92h1v1h-1zM78 93h1v1h-1z" /><path fill="#825fe9" d="M27 18h1v1h-1zM78 18h1v1h-1zM81 20h1v1h-1zM23 21h1v1h-1zM82 21h1v1h-1zM22 22h1v1h-1zM83 22h1v1h-1zM21 23h1v1h-1zM84 23h1v1h-1zM20 24h1v1h-1zM85 24h1v1h-1zM19 25h1v1h-1zM86 25h1v1h-1zM18 26h1v1h-1zM87 26h1v1h-1zM88 27h1v1h-1zM16 29h1v1h-1zM15 30h1v1h-1zM90 30h1v1h-1zM14 32h1v1h-1zM92 33h1v1h-1zM12 35h1v1h-1zM93 35h1v1h-1zM94 37h1v1h-1zM11 38h1v1h-1zM10 40h1v1h-1zM95 40h1v1h-1zM96 42h1v1h-1zM9 43h1v1h-1zM96 43h1v1h-1zM9 44h1v1h-1zM97 46h1v1h-1zM8 47h1v1h-1zM97 47h1v1h-1zM8 48h1v1h-1zM8 49h1v1h-1zM98 55h1v1h-1zM8 62h1v1h-1zM8 63h1v1h-1zM97 63h1v1h-1zM97 64h1v1h-1zM9 67h1v1h-1zM9 68h1v1h-1zM96 68h1v1h-1zM10 70h1v1h-1zM10 71h1v1h-1zM95 71h1v1h-1zM11 73h1v1h-1zM12 75h1v1h-1zM93 76h1v1h-1zM13 77h1v1h-1zM14 79h1v1h-1zM91 79h1v1h-1zM90 81h1v1h-1zM16 82h1v1h-1zM89 82h1v1h-1zM17 83h1v1h-1zM86 86h1v1h-1zM85 87h1v1h-1zM84 88h1v1h-1zM83 89h1v1h-1zM79 92h1v1h-1z" /><path fill="#8360ea" d="M28 18h1v1h-1zM77 18h1v1h-1zM27 19h1v1h-1zM25 20h1v1h-1zM80 20h1v1h-1zM24 21h1v1h-1zM81 21h1v1h-1zM23 22h1v1h-1zM82 22h1v1h-1zM22 23h1v1h-1zM83 23h1v1h-1zM21 24h1v1h-1zM84 24h1v1h-1zM20 25h1v1h-1zM85 25h1v1h-1zM19 26h1v1h-1zM86 26h1v1h-1zM18 27h1v1h-1zM87 27h1v1h-1zM17 28h1v1h-1zM88 28h1v1h-1zM16 30h1v1h-1zM89 30h1v1h-1zM15 31h1v1h-1zM90 31h1v1h-1zM14 33h1v1h-1zM91 33h1v1h-1zM92 34h1v1h-1zM13 35h1v1h-1zM92 35h1v1h-1zM93 36h1v1h-1zM12 37h1v1h-1zM93 37h1v1h-1zM11 39h1v1h-1zM94 39h1v1h-1zM11 40h1v1h-1zM95 41h1v1h-1zM10 42h1v1h-1zM95 42h1v1h-1zM10 43h1v1h-1zM96 44h1v1h-1zM9 45h1v1h-1zM96 45h1v1h-1zM9 46h1v1h-1zM96 46h1v1h-1zM9 47h1v1h-1zM97 49h1v1h-1zM97 50h1v1h-1zM8 51h1v1h-1zM97 51h1v1h-1zM8 52h1v1h-1zM97 52h1v1h-1zM8 53h1v1h-1zM97 53h1v1h-1zM8 54h1v1h-1zM97 54h1v1h-1zM8 55h1v1h-1zM97 55h1v1h-1zM8 56h1v1h-1zM97 56h1v1h-1zM8 57h1v1h-1zM97 57h1v1h-1zM8 58h1v1h-1zM97 58h1v1h-1zM8 59h1v1h-1zM97 59h1v1h-1zM8 60h1v1h-1zM97 60h1v1h-1zM97 61h1v1h-1zM9 64h1v1h-1zM9 65h1v1h-1zM96 65h1v1h-1zM96 66h1v1h-1zM10 68h1v1h-1zM10 69h1v1h-1zM95 69h1v1h-1zM11 71h1v1h-1zM11 72h1v1h-1zM94 72h1v1h-1zM12 74h1v1h-1zM93 74h1v1h-1zM13 76h1v1h-1zM92 76h1v1h-1zM14 78h1v1h-1zM91 78h1v1h-1zM15 79h1v1h-1zM90 80h1v1h-1zM16 81h1v1h-1zM89 81h1v1h-1zM17 82h1v1h-1zM88 82h1v1h-1zM87 84h1v1h-1zM86 85h1v1h-1zM85 86h1v1h-1zM84 87h1v1h-1zM83 88h1v1h-1zM82 89h1v1h-1zM81 90h1v1h-1zM79 91h1v1h-1zM78 92h1v1h-1z" /><path fill="#48337e" d="M29 18h1v1h-1z" /><path fill="#a3a3a3" d="M41 18h1v1h-1z" /><path fill="#4d3785" d="M70 18h1v1h-1z" /><path fill="#8863ea" d="M71 18h1v1h-1zM73 19h1v1h-1zM79 23h1v1h-1zM25 24h1v1h-1zM80 24h1v1h-1zM24 25h1v1h-1zM23 26h1v1h-1zM22 27h1v1h-1zM84 28h1v1h-1zM18 32h1v1h-1zM89 35h1v1h-1zM90 37h1v1h-1zM91 39h1v1h-1zM92 42h1v1h-1zM93 45h1v1h-1zM12 46h1v1h-1zM94 51h1v1h-1zM11 52h1v1h-1zM11 53h1v1h-1zM11 54h1v1h-1zM11 55h1v1h-1zM11 56h1v1h-1zM11 57h1v1h-1zM11 58h1v1h-1zM94 60h1v1h-1zM12 65h1v1h-1zM92 69h1v1h-1zM14 71h1v1h-1zM17 77h1v1h-1zM19 80h1v1h-1zM77 89h1v1h-1zM74 91h1v1h-1z" /><path fill="#8862ea" d="M72 18h1v1h-1zM75 20h1v1h-1zM77 21h1v1h-1zM27 22h1v1h-1zM78 22h1v1h-1zM26 23h1v1h-1zM21 28h1v1h-1zM20 29h1v1h-1zM85 29h1v1h-1zM19 30h1v1h-1zM86 30h1v1h-1zM87 31h1v1h-1zM17 33h1v1h-1zM88 33h1v1h-1zM16 35h1v1h-1zM90 36h1v1h-1zM15 37h1v1h-1zM91 38h1v1h-1zM14 39h1v1h-1zM13 41h1v1h-1zM92 41h1v1h-1zM13 42h1v1h-1zM93 44h1v1h-1zM12 45h1v1h-1zM94 48h1v1h-1zM11 49h1v1h-1zM94 49h1v1h-1zM11 50h1v1h-1zM94 50h1v1h-1zM11 51h1v1h-1zM11 59h1v1h-1zM11 60h1v1h-1zM11 61h1v1h-1zM94 61h1v1h-1zM11 62h1v1h-1zM94 62h1v1h-1zM94 63h1v1h-1zM12 66h1v1h-1zM93 66h1v1h-1zM93 67h1v1h-1zM13 69h1v1h-1zM92 70h1v1h-1zM14 72h1v1h-1zM91 72h1v1h-1zM15 74h1v1h-1zM90 74h1v1h-1zM16 76h1v1h-1zM89 76h1v1h-1zM88 78h1v1h-1zM18 79h1v1h-1zM87 79h1v1h-1zM85 82h1v1h-1zM84 83h1v1h-1zM83 84h1v1h-1zM82 85h1v1h-1zM81 86h1v1h-1zM80 87h1v1h-1zM79 88h1v1h-1zM76 90h1v1h-1z" /><path fill="#8762ea" d="M73 18h1v1h-1zM74 19h2v1h-2zM76 20h1v1h-1zM26 22h1v1h-1zM79 22h1v1h-1zM25 23h1v1h-1zM80 23h1v1h-1zM24 24h1v1h-1zM81 24h1v1h-1zM23 25h1v1h-1zM82 25h1v1h-1zM22 26h1v1h-1zM83 26h1v1h-1zM21 27h1v1h-1zM84 27h1v1h-1zM20 28h1v1h-1zM85 28h1v1h-1zM19 29h1v1h-1zM86 29h1v1h-1zM18 31h1v1h-1zM17 32h1v1h-1zM88 32h1v1h-1zM16 34h1v1h-1zM89 34h1v1h-1zM90 35h1v1h-1zM15 36h1v1h-1zM91 37h1v1h-1zM14 38h1v1h-1zM92 39h1v1h-1zM13 40h1v1h-1zM92 40h1v1h-1zM93 42h1v1h-1zM12 43h1v1h-1zM93 43h1v1h-1zM12 44h1v1h-1zM94 45h1v1h-1zM11 46h1v1h-1zM94 46h1v1h-1zM11 47h1v1h-1zM94 47h1v1h-1zM11 48h1v1h-1zM95 51h1v1h-1zM95 52h1v1h-1zM10 53h1v1h-1zM95 53h1v1h-1zM10 54h1v1h-1zM95 54h1v1h-1zM10 55h1v1h-1zM95 55h1v1h-1zM10 56h1v1h-1zM95 56h1v1h-1zM10 57h1v1h-1zM95 57h1v1h-1zM10 58h1v1h-1zM95 58h1v1h-1zM95 59h1v1h-1zM95 60h1v1h-1zM11 63h1v1h-1zM11 64h1v1h-1zM94 64h1v1h-1zM94 65h1v1h-1zM12 67h1v1h-1zM12 68h1v1h-1zM93 68h1v1h-1zM93 69h1v1h-1zM13 70h1v1h-1zM13 71h1v1h-1zM92 71h1v1h-1zM14 73h1v1h-1zM91 73h1v1h-1zM15 75h1v1h-1zM90 75h1v1h-1zM16 77h1v1h-1zM89 77h1v1h-1zM17 78h1v1h-1zM88 79h1v1h-1zM18 80h1v1h-1zM87 80h1v1h-1zM19 81h1v1h-1zM86 81h1v1h-1zM85 83h1v1h-1zM84 84h1v1h-1zM83 85h1v1h-1zM82 86h1v1h-1zM81 87h1v1h-1zM80 88h1v1h-1zM78 89h1v1h-1zM77 90h1v1h-1zM75 91h1v1h-1zM74 92h1v1h-1z" /><path fill="#8661ea" d="M74 18h1v1h-1zM76 19h1v1h-1zM28 20h1v1h-1zM77 20h1v1h-1zM80 22h1v1h-1zM24 23h1v1h-1zM81 23h1v1h-1zM23 24h1v1h-1zM82 24h1v1h-1zM22 25h1v1h-1zM83 25h1v1h-1zM21 26h1v1h-1zM84 26h1v1h-1zM20 27h1v1h-1zM85 27h1v1h-1zM86 28h1v1h-1zM18 30h1v1h-1zM17 31h1v1h-1zM88 31h1v1h-1zM16 33h1v1h-1zM15 34h1v1h-1zM90 34h1v1h-1zM14 36h1v1h-1zM91 36h1v1h-1zM13 38h1v1h-1zM92 38h1v1h-1zM13 39h1v1h-1zM93 40h1v1h-1zM12 41h1v1h-1zM93 41h1v1h-1zM94 43h1v1h-1zM11 44h1v1h-1zM94 44h1v1h-1zM11 45h1v1h-1zM95 47h1v1h-1zM10 48h1v1h-1zM95 48h1v1h-1zM10 49h1v1h-1zM95 49h1v1h-1zM10 50h1v1h-1zM10 60h1v1h-1zM10 61h1v1h-1zM10 62h1v1h-1zM95 62h1v1h-1zM95 63h1v1h-1zM11 66h1v1h-1zM11 67h1v1h-1zM94 67h1v1h-1zM12 69h1v1h-1zM12 70h1v1h-1zM93 70h1v1h-1zM13 72h1v1h-1zM92 73h1v1h-1zM14 74h1v1h-1zM91 75h1v1h-1zM15 76h1v1h-1zM16 78h1v1h-1zM89 78h1v1h-1zM88 80h1v1h-1zM18 81h1v1h-1zM87 81h1v1h-1zM19 82h1v1h-1zM84 85h1v1h-1zM83 86h1v1h-1zM78 90h1v1h-1zM75 92h1v1h-1z" /><path fill="#8460ea" d="M76 18h1v1h-1zM78 19h1v1h-1zM26 20h1v1h-1zM79 20h1v1h-1zM25 21h1v1h-1zM80 21h1v1h-1zM24 22h1v1h-1zM19 27h1v1h-1zM18 28h1v1h-1zM87 28h1v1h-1zM17 29h1v1h-1zM88 29h1v1h-1zM16 31h1v1h-1zM15 32h1v1h-1zM90 32h1v1h-1zM14 34h1v1h-1zM91 34h1v1h-1zM13 36h1v1h-1zM12 38h1v1h-1zM93 38h1v1h-1zM94 40h1v1h-1zM11 41h1v1h-1zM95 43h1v1h-1zM10 44h1v1h-1zM96 47h1v1h-1zM9 48h1v1h-1zM96 48h1v1h-1zM9 49h1v1h-1zM9 50h1v1h-1zM9 61h1v1h-1zM9 62h1v1h-1zM96 62h1v1h-1zM9 63h1v1h-1zM96 63h1v1h-1zM96 64h1v1h-1zM10 66h1v1h-1zM10 67h1v1h-1zM95 67h1v1h-1zM95 68h1v1h-1zM11 70h1v1h-1zM94 70h1v1h-1zM94 71h1v1h-1zM12 72h1v1h-1zM12 73h1v1h-1zM93 73h1v1h-1zM13 75h1v1h-1zM92 75h1v1h-1zM14 77h1v1h-1zM91 77h1v1h-1zM15 78h1v1h-1zM90 79h1v1h-1zM16 80h1v1h-1zM89 80h1v1h-1zM17 81h1v1h-1zM18 83h1v1h-1zM87 83h1v1h-1zM86 84h1v1h-1zM85 85h1v1h-1zM84 86h1v1h-1zM83 87h1v1h-1zM82 88h1v1h-1zM81 89h1v1h-1zM80 90h1v1h-1zM77 92h1v1h-1z" /><path fill="#7e5de9" d="M82 18h1v1h-1zM22 19h1v1h-1zM83 19h1v1h-1zM21 20h1v1h-1zM84 20h1v1h-1zM20 21h1v1h-1zM85 21h1v1h-1zM19 22h1v1h-1zM86 22h1v1h-1zM18 23h1v1h-1zM87 23h1v1h-1zM17 24h1v1h-1zM88 24h1v1h-1zM16 25h1v1h-1zM89 25h1v1h-1zM90 26h1v1h-1zM14 28h1v1h-1zM91 28h1v1h-1zM13 29h1v1h-1zM92 29h1v1h-1zM12 31h1v1h-1zM93 31h1v1h-1zM94 32h1v1h-1zM11 33h1v1h-1zM95 34h1v1h-1zM10 35h1v1h-1zM96 36h1v1h-1zM9 37h1v1h-1zM8 39h1v1h-1zM97 39h1v1h-1zM8 40h1v1h-1zM7 42h1v1h-1zM98 42h1v1h-1zM7 43h1v1h-1zM99 45h1v1h-1zM6 46h1v1h-1zM99 46h1v1h-1zM6 47h1v1h-1zM99 47h1v1h-1zM6 48h1v1h-1zM6 63h1v1h-1zM6 64h1v1h-1zM99 64h1v1h-1zM99 65h1v1h-1zM7 68h1v1h-1zM98 68h1v1h-1zM98 69h1v1h-1zM8 71h1v1h-1zM97 72h1v1h-1zM9 74h1v1h-1zM96 74h1v1h-1zM10 76h1v1h-1zM95 76h1v1h-1zM11 78h1v1h-1zM94 78h1v1h-1zM12 80h1v1h-1zM93 80h1v1h-1zM13 81h1v1h-1zM14 83h1v1h-1zM91 83h1v1h-1zM15 84h1v1h-1zM90 84h1v1h-1zM16 85h1v1h-1zM88 87h1v1h-1zM87 88h1v1h-1zM86 89h1v1h-1zM85 90h1v1h-1zM84 91h1v1h-1zM81 93h1v1h-1z" /><path fill="#7759e8" d="M87 18h1v1h-1z" /><path fill="#6e55e7" d="M10 19h1v1h-1zM9 20h1v1h-1zM8 21h1v1h-1zM7 23h1v1h-1zM6 24h1v1h-1zM5 26h1v1h-1zM4 27h1v1h-1zM3 29h1v1h-1zM2 31h1v1h-1zM1 33h1v1h-1zM1 34h1v1h-1zM0 36h1v1h-1zM0 74h1v1h-1zM0 75h1v1h-1zM1 77h1v1h-1zM2 79h1v1h-1zM2 80h1v1h-1zM3 81h1v1h-1zM4 83h1v1h-1zM5 85h1v1h-1zM6 86h1v1h-1zM7 88h1v1h-1zM8 89h1v1h-1z" /><path fill="#7056e7" d="M11 19h1v1h-1zM8 23h1v1h-1zM6 26h1v1h-1zM3 31h1v1h-1zM1 36h1v1h-1zM0 39h1v1h-1zM0 72h1v1h-1zM1 75h1v1h-1zM2 77h1v1h-1zM5 83h1v1h-1zM9 89h1v1h-1z" /><path fill="#7157e8" d="M12 19h1v1h-1zM11 20h1v1h-1zM9 23h1v1h-1zM8 24h1v1h-1zM7 26h1v1h-1zM6 27h1v1h-1zM5 29h1v1h-1zM4 31h1v1h-1zM3 33h1v1h-1zM2 35h1v1h-1zM2 36h1v1h-1zM1 38h1v1h-1zM0 41h1v1h-1zM0 42h1v1h-1zM0 69h1v1h-1zM0 70h1v1h-1zM1 72h1v1h-1zM1 73h1v1h-1zM2 75h1v1h-1zM3 78h1v1h-1zM4 80h1v1h-1zM5 82h1v1h-1zM6 83h1v1h-1zM7 85h1v1h-1zM9 88h1v1h-1zM10 89h1v1h-1z" /><path fill="#785ae8" d="M17 19h1v1h-1zM88 19h1v1h-1zM16 20h1v1h-1zM89 20h1v1h-1zM90 21h1v1h-1zM91 22h1v1h-1zM13 24h1v1h-1zM12 25h1v1h-1zM93 25h1v1h-1zM94 26h1v1h-1zM10 28h1v1h-1zM95 28h1v1h-1zM96 29h1v1h-1zM9 30h1v1h-1zM8 31h1v1h-1zM97 31h1v1h-1zM7 33h1v1h-1zM98 33h1v1h-1zM6 35h1v1h-1zM6 36h1v1h-1zM5 38h1v1h-1zM4 41h1v1h-1zM4 42h1v1h-1zM3 45h1v1h-1zM3 46h1v1h-1zM2 51h1v1h-1zM2 52h1v1h-1zM2 53h1v1h-1zM2 54h1v1h-1zM2 55h1v1h-1zM2 56h1v1h-1zM2 57h1v1h-1zM2 58h1v1h-1zM2 59h1v1h-1zM2 60h1v1h-1zM3 64h1v1h-1zM3 65h1v1h-1zM3 66h1v1h-1zM4 69h1v1h-1zM4 70h1v1h-1zM5 72h1v1h-1zM5 73h1v1h-1zM6 75h1v1h-1zM99 75h1v1h-1zM7 77h1v1h-1zM98 78h1v1h-1zM8 79h1v1h-1zM97 80h1v1h-1zM9 81h1v1h-1zM96 81h1v1h-1zM10 83h1v1h-1zM95 83h1v1h-1zM11 84h1v1h-1zM94 84h1v1h-1zM93 86h1v1h-1zM13 87h1v1h-1zM92 87h1v1h-1zM91 88h1v1h-1zM86 93h1v1h-1z" /><path fill="#825fea" d="M26 19h1v1h-1zM97 48h1v1h-1zM94 73h1v1h-1zM92 77h1v1h-1zM15 80h1v1h-1zM80 91h1v1h-1z" /><path fill="#18122c" d="M29 19h1v1h-1z" /><path fill="#d4d4d4" d="M41 19h1v1h-1z" /><path fill="#dcdcdc" d="M60 19h1v1h-1zM60 29h1v1h-1z" /><path fill="#acacac" d="M66 19h1v1h-1z" /><path fill="#1b132e" d="M70 19h1v1h-1z" /><path fill="#8a63ea" d="M71 19h1v1h-1zM73 20h1v1h-1zM75 21h1v1h-1zM76 22h1v1h-1zM79 24h1v1h-1zM25 25h1v1h-1zM80 25h1v1h-1zM24 26h1v1h-1zM81 26h1v1h-1zM23 27h1v1h-1zM82 27h1v1h-1zM22 28h1v1h-1zM83 28h1v1h-1zM84 29h1v1h-1zM19 32h1v1h-1zM86 32h1v1h-1zM87 33h1v1h-1zM17 35h1v1h-1zM88 35h1v1h-1zM16 37h1v1h-1zM89 37h1v1h-1zM15 39h1v1h-1zM90 39h1v1h-1zM91 41h1v1h-1zM14 42h1v1h-1zM92 44h1v1h-1zM13 45h1v1h-1zM92 45h1v1h-1zM13 46h1v1h-1zM93 49h1v1h-1zM12 50h1v1h-1zM93 50h1v1h-1zM12 51h1v1h-1zM12 52h1v1h-1zM12 58h1v1h-1zM12 59h1v1h-1zM12 60h1v1h-1zM93 60h1v1h-1zM12 61h1v1h-1zM93 61h1v1h-1zM93 62h1v1h-1zM13 65h1v1h-1zM13 66h1v1h-1zM92 66h1v1h-1zM14 69h1v1h-1zM91 69h1v1h-1zM15 71h1v1h-1zM90 72h1v1h-1zM89 74h1v1h-1zM17 75h1v1h-1zM88 76h1v1h-1zM18 77h1v1h-1zM87 77h1v1h-1zM86 79h1v1h-1zM20 80h1v1h-1zM85 80h1v1h-1zM21 81h1v1h-1zM77 88h1v1h-1zM76 89h1v1h-1zM74 90h1v1h-1z" /><path fill="#8963ea" d="M72 19h1v1h-1zM74 20h1v1h-1zM76 21h1v1h-1zM77 22h1v1h-1zM27 23h1v1h-1zM78 23h1v1h-1zM26 24h1v1h-1zM81 25h1v1h-1zM82 26h1v1h-1zM83 27h1v1h-1zM21 29h1v1h-1zM20 30h1v1h-1zM85 30h1v1h-1zM19 31h1v1h-1zM86 31h1v1h-1zM87 32h1v1h-1zM18 33h1v1h-1zM17 34h1v1h-1zM88 34h1v1h-1zM16 36h1v1h-1zM89 36h1v1h-1zM15 38h1v1h-1zM90 38h1v1h-1zM14 40h1v1h-1zM91 40h1v1h-1zM14 41h1v1h-1zM13 43h1v1h-1zM92 43h1v1h-1zM13 44h1v1h-1zM93 46h1v1h-1zM12 47h1v1h-1zM93 47h1v1h-1zM12 48h1v1h-1zM93 48h1v1h-1zM12 49h1v1h-1zM94 52h1v1h-1zM94 53h1v1h-1zM94 54h1v1h-1zM94 55h1v1h-1zM94 56h1v1h-1zM94 57h1v1h-1zM94 58h1v1h-1zM94 59h1v1h-1zM12 62h1v1h-1zM12 63h1v1h-1zM93 63h1v1h-1zM12 64h1v1h-1zM93 64h1v1h-1zM93 65h1v1h-1zM13 67h1v1h-1zM92 67h1v1h-1zM13 68h1v1h-1zM92 68h1v1h-1zM14 70h1v1h-1zM91 70h1v1h-1zM91 71h1v1h-1zM15 72h1v1h-1zM15 73h1v1h-1zM90 73h1v1h-1zM16 74h1v1h-1zM16 75h1v1h-1zM89 75h1v1h-1zM17 76h1v1h-1zM88 77h1v1h-1zM18 78h1v1h-1zM87 78h1v1h-1zM19 79h1v1h-1zM86 80h1v1h-1zM20 81h1v1h-1zM85 81h1v1h-1zM84 82h1v1h-1zM83 83h1v1h-1zM82 84h1v1h-1zM81 85h1v1h-1zM80 86h1v1h-1zM79 87h1v1h-1zM78 88h1v1h-1zM75 90h1v1h-1zM73 91h1v1h-1z" /><path fill="#6c53e7" d="M8 20h1v1h-1z" /><path fill="#6f56e7" d="M10 20h1v1h-1zM9 21h1v1h-1zM8 22h1v1h-1zM7 24h1v1h-1zM6 25h1v1h-1zM5 27h1v1h-1zM4 29h1v1h-1zM3 30h1v1h-1zM2 32h1v1h-1zM2 33h1v1h-1zM1 35h1v1h-1zM0 37h1v1h-1zM0 38h1v1h-1zM0 73h1v1h-1zM1 76h1v1h-1zM2 78h1v1h-1zM3 80h1v1h-1zM4 82h1v1h-1zM5 84h1v1h-1zM6 85h1v1h-1zM7 87h1v1h-1zM8 88h1v1h-1z" /><path fill="#7358e8" d="M13 20h1v1h-1zM12 21h1v1h-1zM11 22h1v1h-1zM10 23h1v1h-1zM9 25h1v1h-1zM8 26h1v1h-1zM7 28h1v1h-1zM6 29h1v1h-1zM5 31h1v1h-1zM4 33h1v1h-1zM4 34h1v1h-1zM3 36h1v1h-1zM2 38h1v1h-1zM2 39h1v1h-1zM1 41h1v1h-1zM1 42h1v1h-1zM0 46h1v1h-1zM0 47h1v1h-1zM0 48h1v1h-1zM0 63h1v1h-1zM0 64h1v1h-1zM0 65h1v1h-1zM1 68h1v1h-1zM1 69h1v1h-1zM2 72h1v1h-1zM3 75h1v1h-1zM4 77h1v1h-1zM5 79h1v1h-1zM6 81h1v1h-1zM98 82h1v1h-1zM7 83h1v1h-1zM8 85h1v1h-1zM9 86h1v1h-1zM10 87h1v1h-1zM11 89h1v1h-1z" /><path fill="#030306" d="M29 20h1v1h-1z" /><path fill="#fbfbfb" d="M41 20h1v1h-1zM62 36h1v1h-1zM54 84h1v1h-1z" /><path fill="#b8b8b8" d="M60 20h1v1h-1z" /><path fill="#f2f2f2" d="M66 20h1v1h-1zM56 44h1v1h-1zM48 47h1v1h-1z" /><path fill="#060606" d="M67 20h1v1h-1zM62 38h1v1h-1zM59 42h1v1h-1zM49 87h1v1h-1z" /><path fill="#030205" d="M70 20h1v1h-1zM44 51h1v1h-1zM39 75h1v1h-1zM72 92h1v1h-1z" /><path fill="#8c64eb" d="M71 20h1v1h-1zM73 21h1v1h-1zM74 22h1v1h-1zM76 23h1v1h-1zM77 24h1v1h-1zM27 25h1v1h-1zM23 29h1v1h-1zM22 30h1v1h-1zM21 31h1v1h-1zM84 31h1v1h-1zM85 32h1v1h-1zM19 34h1v1h-1zM86 34h1v1h-1zM87 35h1v1h-1zM18 36h1v1h-1zM88 37h1v1h-1zM89 39h1v1h-1zM16 40h1v1h-1zM15 42h1v1h-1zM90 42h1v1h-1zM14 45h1v1h-1zM91 45h1v1h-1zM14 46h1v1h-1zM92 49h1v1h-1zM13 50h1v1h-1zM92 50h1v1h-1zM13 51h1v1h-1zM92 51h1v1h-1zM13 52h1v1h-1zM13 53h1v1h-1zM13 54h1v1h-1zM13 55h1v1h-1zM13 56h1v1h-1zM13 57h1v1h-1zM13 58h1v1h-1zM13 59h1v1h-1zM13 60h1v1h-1zM92 60h1v1h-1zM92 61h1v1h-1zM14 65h1v1h-1zM91 65h1v1h-1zM91 66h1v1h-1zM15 68h1v1h-1zM90 69h1v1h-1zM16 71h1v1h-1zM89 71h1v1h-1zM17 73h1v1h-1zM18 75h1v1h-1zM87 75h1v1h-1zM86 77h1v1h-1zM20 78h1v1h-1zM83 81h1v1h-1zM82 82h1v1h-1zM81 83h1v1h-1zM80 84h1v1h-1zM79 85h1v1h-1zM78 86h1v1h-1zM75 88h1v1h-1zM74 89h1v1h-1zM72 90h1v1h-1z" /><path fill="#8b64ea" d="M72 20h1v1h-1zM74 21h1v1h-1zM75 22h1v1h-1zM77 23h1v1h-1zM27 24h1v1h-1zM78 24h1v1h-1zM26 25h1v1h-1zM79 25h1v1h-1zM25 26h1v1h-1zM80 26h1v1h-1zM24 27h1v1h-1zM81 27h1v1h-1zM23 28h1v1h-1zM82 28h1v1h-1zM22 29h1v1h-1zM83 29h1v1h-1zM21 30h1v1h-1zM84 30h1v1h-1zM20 32h1v1h-1zM19 33h1v1h-1zM86 33h1v1h-1zM87 34h1v1h-1zM18 35h1v1h-1zM17 36h1v1h-1zM88 36h1v1h-1zM16 38h1v1h-1zM89 38h1v1h-1zM16 39h1v1h-1zM90 40h1v1h-1zM15 41h1v1h-1zM91 43h1v1h-1zM14 44h1v1h-1zM92 46h1v1h-1zM13 47h1v1h-1zM92 47h1v1h-1zM13 48h1v1h-1zM92 48h1v1h-1zM13 49h1v1h-1zM93 53h1v1h-1zM93 54h1v1h-1zM93 55h1v1h-1zM93 56h1v1h-1zM93 57h1v1h-1zM93 58h1v1h-1zM13 62h1v1h-1zM13 63h1v1h-1zM92 63h1v1h-1zM92 64h1v1h-1zM14 67h1v1h-1zM91 67h1v1h-1zM91 68h1v1h-1zM15 70h1v1h-1zM90 70h1v1h-1zM16 72h1v1h-1zM89 73h1v1h-1zM17 74h1v1h-1zM18 76h1v1h-1zM87 76h1v1h-1zM86 78h1v1h-1zM20 79h1v1h-1zM85 79h1v1h-1zM21 80h1v1h-1zM83 82h1v1h-1zM82 83h1v1h-1zM81 84h1v1h-1zM80 85h1v1h-1zM79 86h1v1h-1zM76 88h1v1h-1zM75 89h1v1h-1zM73 90h1v1h-1z" /><path fill="#795be9" d="M88 20h1v1h-1zM13 25h1v1h-1zM93 26h1v1h-1zM95 29h1v1h-1zM9 31h1v1h-1zM8 33h1v1h-1zM7 35h1v1h-1zM99 37h1v1h-1zM5 40h1v1h-1zM4 44h1v1h-1zM3 49h1v1h-1zM3 50h1v1h-1zM3 51h1v1h-1zM3 60h1v1h-1zM3 61h1v1h-1zM4 67h1v1h-1zM5 70h1v1h-1zM6 73h1v1h-1zM98 76h1v1h-1zM97 78h1v1h-1zM96 80h1v1h-1zM11 83h1v1h-1zM94 83h1v1h-1zM92 86h1v1h-1zM14 87h1v1h-1zM91 87h1v1h-1z" /><path fill="#6c53e6" d="M7 21h1v1h-1zM0 77h1v1h-1z" /><path fill="#7056e8" d="M10 21h1v1h-1zM9 22h1v1h-1zM7 25h1v1h-1zM5 28h1v1h-1zM4 30h1v1h-1zM3 32h1v1h-1zM2 34h1v1h-1zM1 37h1v1h-1zM0 40h1v1h-1zM0 71h1v1h-1zM1 74h1v1h-1zM3 79h1v1h-1zM4 81h1v1h-1zM6 84h1v1h-1zM7 86h1v1h-1zM8 87h1v1h-1z" /><path fill="#805fe9" d="M22 21h1v1h-1zM18 25h1v1h-1zM88 26h1v1h-1zM91 30h1v1h-1zM10 38h1v1h-1zM96 40h1v1h-1zM8 44h1v1h-1zM98 48h1v1h-1zM7 49h1v1h-1zM9 70h1v1h-1zM11 75h1v1h-1zM12 77h1v1h-1zM92 79h1v1h-1zM90 82h1v1h-1zM85 88h1v1h-1zM79 93h1v1h-1z" /><path fill="#8662ea" d="M27 21h1v1h-1zM78 21h1v1h-1zM87 30h1v1h-1zM89 33h1v1h-1zM15 35h1v1h-1zM14 37h1v1h-1zM12 42h1v1h-1zM95 50h1v1h-1zM10 51h1v1h-1zM10 52h1v1h-1zM10 59h1v1h-1zM95 61h1v1h-1zM11 65h1v1h-1zM94 66h1v1h-1zM92 72h1v1h-1zM91 74h1v1h-1zM90 76h1v1h-1zM17 79h1v1h-1zM86 82h1v1h-1zM79 89h1v1h-1zM76 91h1v1h-1z" /><path fill="#7e5cdc" d="M28 21h1v1h-1z" /><path fill="#1d1d1d" d="M40 21h1v1h-1zM53 46h1v1h-1z" /><path fill="#9b9b9b" d="M60 21h1v1h-1zM49 58h2v1h-2z" /><path fill="#343434" d="M67 21h1v1h-1zM42 35h1v1h-1z" /><path fill="#8962e5" d="M71 21h1v1h-1z" /><path fill="#8c65eb" d="M72 21h1v1h-1zM78 25h1v1h-1zM26 26h1v1h-1zM79 26h1v1h-1zM25 27h1v1h-1zM24 28h1v1h-1zM82 29h1v1h-1zM83 30h1v1h-1zM20 33h1v1h-1zM87 36h1v1h-1zM17 38h1v1h-1zM88 38h1v1h-1zM89 40h1v1h-1zM15 43h1v1h-1zM91 46h1v1h-1zM14 47h1v1h-1zM92 52h1v1h-1zM92 53h1v1h-1zM92 54h1v1h-1zM92 55h1v1h-1zM92 56h1v1h-1zM92 57h1v1h-1zM92 58h1v1h-1zM92 59h1v1h-1zM14 64h1v1h-1zM90 68h1v1h-1zM16 70h1v1h-1zM88 73h1v1h-1zM19 76h1v1h-1zM85 78h1v1h-1zM21 79h1v1h-1z" /><path fill="#7559e7" d="M92 21h1v1h-1z" /><path fill="#6c54e7" d="M6 22h1v1h-1zM5 24h1v1h-1zM4 25h1v1h-1zM3 27h1v1h-1zM2 29h1v1h-1zM1 31h1v1h-1zM1 80h1v1h-1zM2 82h1v1h-1zM3 84h1v1h-1zM4 85h1v1h-1zM5 87h1v1h-1zM6 88h1v1h-1z" /><path fill="#6d55e7" d="M7 22h1v1h-1zM6 23h1v1h-1zM5 25h1v1h-1zM4 26h1v1h-1zM3 28h1v1h-1zM2 30h1v1h-1zM1 32h1v1h-1zM1 78h1v1h-1zM1 79h1v1h-1zM2 81h1v1h-1zM3 82h1v1h-1zM3 83h1v1h-1zM4 84h1v1h-1zM5 86h1v1h-1zM6 87h1v1h-1zM7 89h1v1h-1z" /><path fill="#6e4fbd" d="M28 22h1v1h-1z" /><path fill="#373737" d="M40 22h1v1h-1z" /><path fill="#7f7f7f" d="M60 22h1v1h-1zM42 34h1v1h-1zM57 38h1v1h-1zM53 48h1v1h-1z" /><path fill="#5b5b5b" d="M67 22h1v1h-1zM64 34h1v1h-1z" /><path fill="#7251bc" d="M71 22h1v1h-1z" /><path fill="#8e65eb" d="M72 22h1v1h-1zM74 23h1v1h-1zM78 26h1v1h-1zM26 27h1v1h-1zM79 27h1v1h-1zM25 28h1v1h-1zM80 28h1v1h-1zM24 29h1v1h-1zM81 29h1v1h-1zM82 30h1v1h-1zM21 33h1v1h-1zM84 33h1v1h-1zM85 34h1v1h-1zM19 36h1v1h-1zM86 36h1v1h-1zM18 38h1v1h-1zM87 38h1v1h-1zM17 40h1v1h-1zM88 40h1v1h-1zM89 42h1v1h-1zM16 43h1v1h-1zM90 45h1v1h-1zM15 46h1v1h-1zM90 46h1v1h-1zM91 50h1v1h-1zM14 51h1v1h-1zM91 51h1v1h-1zM14 52h1v1h-1zM91 52h1v1h-1zM14 53h1v1h-1zM14 54h1v1h-1zM14 55h1v1h-1zM14 56h1v1h-1zM14 57h1v1h-1zM14 58h1v1h-1zM14 59h1v1h-1zM91 59h1v1h-1zM91 60h1v1h-1zM91 61h1v1h-1zM15 64h1v1h-1zM15 65h1v1h-1zM90 65h1v1h-1zM16 68h1v1h-1zM89 68h1v1h-1zM88 71h1v1h-1zM18 73h1v1h-1zM87 73h1v1h-1zM86 75h1v1h-1zM20 76h1v1h-1zM84 78h1v1h-1zM22 79h1v1h-1zM83 79h1v1h-1zM76 86h1v1h-1zM75 87h1v1h-1zM73 88h1v1h-1z" /><path fill="#8d65eb" d="M73 22h1v1h-1zM75 23h1v1h-1zM76 24h1v1h-1zM77 25h1v1h-1zM27 26h1v1h-1zM80 27h1v1h-1zM81 28h1v1h-1zM23 30h1v1h-1zM22 31h1v1h-1zM83 31h1v1h-1zM21 32h1v1h-1zM84 32h1v1h-1zM85 33h1v1h-1zM20 34h1v1h-1zM19 35h1v1h-1zM86 35h1v1h-1zM18 37h1v1h-1zM87 37h1v1h-1zM17 39h1v1h-1zM88 39h1v1h-1zM16 41h1v1h-1zM89 41h1v1h-1zM16 42h1v1h-1zM90 43h1v1h-1zM15 44h1v1h-1zM90 44h1v1h-1zM15 45h1v1h-1zM91 47h1v1h-1zM14 48h1v1h-1zM91 48h1v1h-1zM14 49h1v1h-1zM91 49h1v1h-1zM14 50h1v1h-1zM14 60h1v1h-1zM14 61h1v1h-1zM14 62h1v1h-1zM91 62h1v1h-1zM14 63h1v1h-1zM91 63h1v1h-1zM91 64h1v1h-1zM15 66h1v1h-1zM90 66h1v1h-1zM15 67h1v1h-1zM90 67h1v1h-1zM16 69h1v1h-1zM89 69h1v1h-1zM89 70h1v1h-1zM17 71h1v1h-1zM17 72h1v1h-1zM88 72h1v1h-1zM18 74h1v1h-1zM87 74h1v1h-1zM19 75h1v1h-1zM86 76h1v1h-1zM20 77h1v1h-1zM85 77h1v1h-1zM21 78h1v1h-1zM84 79h1v1h-1zM22 80h1v1h-1zM83 80h1v1h-1zM82 81h1v1h-1zM81 82h1v1h-1zM80 83h1v1h-1zM79 84h1v1h-1zM78 85h1v1h-1zM77 86h1v1h-1zM76 87h1v1h-1zM74 88h1v1h-1zM72 89h2v1h-2zM71 90h1v1h-1z" /><path fill="#7459e8" d="M93 22h1v1h-1z" /><path fill="#6b53e7" d="M5 23h1v1h-1z" /><path fill="#785be8" d="M14 23h1v1h-1zM92 24h1v1h-1zM7 34h1v1h-1zM98 77h1v1h-1zM97 79h1v1h-1zM90 89h1v1h-1z" /><path fill="#5c449e" d="M28 23h1v1h-1z" /><path fill="#484848" d="M40 23h1v1h-1z" /><path fill="#6d6d6d" d="M60 23h1v1h-1zM60 25h1v1h-1zM67 26h1v1h-1zM41 94h1v1h-1z" /><path fill="#7d7d7d" d="M67 23h1v1h-1z" /><path fill="#61449c" d="M71 23h1v1h-1z" /><path fill="#9066eb" d="M72 23h1v1h-1zM75 25h1v1h-1zM76 26h1v1h-1zM25 30h1v1h-1zM24 31h1v1h-1zM23 32h1v1h-1zM82 32h1v1h-1zM83 33h1v1h-1zM21 35h1v1h-1zM85 36h1v1h-1zM86 38h1v1h-1zM87 40h1v1h-1zM18 41h1v1h-1zM17 43h1v1h-1zM88 43h1v1h-1zM16 46h1v1h-1zM89 46h1v1h-1zM16 47h1v1h-1zM90 51h1v1h-1zM15 52h1v1h-1zM90 52h1v1h-1zM15 53h1v1h-1zM90 53h1v1h-1zM15 54h1v1h-1zM15 55h1v1h-1zM15 56h1v1h-1zM15 57h1v1h-1zM90 57h1v1h-1zM15 58h1v1h-1zM90 58h1v1h-1zM90 59h1v1h-1zM90 60h1v1h-1zM16 64h1v1h-1zM89 65h1v1h-1zM17 67h1v1h-1zM88 68h1v1h-1zM18 70h1v1h-1zM19 72h1v1h-1zM20 74h1v1h-1zM21 76h1v1h-1zM84 76h1v1h-1zM22 77h1v1h-1zM82 79h1v1h-1zM81 80h1v1h-1zM80 81h1v1h-1zM79 82h1v1h-1zM78 83h1v1h-1zM77 84h1v1h-1zM73 87h1v1h-1zM71 88h1v1h-1z" /><path fill="#8f66eb" d="M73 23h1v1h-1zM74 24h1v1h-1zM76 25h1v1h-1zM77 26h1v1h-1zM27 27h1v1h-1zM78 27h1v1h-1zM26 28h1v1h-1zM79 28h1v1h-1zM25 29h1v1h-1zM80 29h1v1h-1zM24 30h1v1h-1zM81 30h1v1h-1zM23 31h1v1h-1zM82 31h1v1h-1zM83 32h1v1h-1zM22 33h1v1h-1zM21 34h1v1h-1zM84 34h1v1h-1zM85 35h1v1h-1zM20 36h1v1h-1zM19 37h1v1h-1zM86 37h1v1h-1zM19 38h1v1h-1zM18 39h1v1h-1zM87 39h1v1h-1zM18 40h1v1h-1zM88 41h1v1h-1zM17 42h1v1h-1zM88 42h1v1h-1zM16 44h1v1h-1zM89 44h1v1h-1zM16 45h1v1h-1zM89 45h1v1h-1zM15 48h1v1h-1zM90 48h1v1h-1zM15 49h1v1h-1zM90 49h1v1h-1zM15 50h1v1h-1zM90 50h1v1h-1zM15 51h1v1h-1zM15 59h1v1h-1zM15 60h1v1h-1zM15 61h1v1h-1zM90 61h1v1h-1zM15 62h1v1h-1zM90 62h1v1h-1zM90 63h1v1h-1zM16 65h1v1h-1zM16 66h1v1h-1zM89 66h1v1h-1zM89 67h1v1h-1zM17 68h1v1h-1zM17 69h1v1h-1zM88 69h1v1h-1zM18 71h1v1h-1zM87 71h1v1h-1zM87 72h1v1h-1zM19 73h1v1h-1zM86 73h1v1h-1zM86 74h1v1h-1zM20 75h1v1h-1zM85 75h1v1h-1zM84 77h1v1h-1zM22 78h1v1h-1zM83 78h1v1h-1zM23 79h1v1h-1zM81 81h1v1h-1zM80 82h1v1h-1zM79 83h1v1h-1zM76 85h1v1h-1zM75 86h1v1h-1zM74 87h1v1h-1zM72 88h1v1h-1zM70 89h1v1h-1z" /><path fill="#7357e8" d="M94 23h1v1h-1zM95 24h1v1h-1zM3 35h1v1h-1zM94 89h1v1h-1z" /><path fill="#6a54e7" d="M4 24h1v1h-1zM0 32h1v1h-1z" /><path fill="#7c5de9" d="M16 24h1v1h-1zM90 25h1v1h-1zM11 31h1v1h-1zM6 43h1v1h-1zM5 48h1v1h-1zM97 74h1v1h-1zM92 83h1v1h-1zM88 88h1v1h-1zM87 89h1v1h-1zM86 90h1v1h-1z" /><path fill="#503989" d="M28 24h1v1h-1z" /><path fill="#8d8d8d" d="M67 24h1v1h-1zM59 32h1v1h-1z" /><path fill="#543c8a" d="M71 24h1v1h-1z" /><path fill="#9167eb" d="M72 24h1v1h-1zM74 25h1v1h-1zM75 26h1v1h-1zM76 27h1v1h-1zM27 29h1v1h-1zM26 30h1v1h-1zM25 31h1v1h-1zM24 32h1v1h-1zM81 32h1v1h-1zM23 33h1v1h-1zM82 33h1v1h-1zM83 34h1v1h-1zM22 35h1v1h-1zM21 36h1v1h-1zM84 36h1v1h-1zM85 37h1v1h-1zM20 38h1v1h-1zM85 38h1v1h-1zM86 39h1v1h-1zM19 40h1v1h-1zM86 40h1v1h-1zM18 42h1v1h-1zM87 42h1v1h-1zM18 43h1v1h-1zM88 44h1v1h-1zM17 45h1v1h-1zM88 45h1v1h-1zM17 46h1v1h-1zM89 48h1v1h-1zM16 49h1v1h-1zM89 49h1v1h-1zM16 50h1v1h-1zM89 50h1v1h-1zM16 51h1v1h-1zM16 52h1v1h-1zM16 58h1v1h-1zM16 59h1v1h-1zM16 60h1v1h-1zM89 60h1v1h-1zM16 61h1v1h-1zM89 61h1v1h-1zM16 62h1v1h-1zM89 62h1v1h-1zM89 63h1v1h-1zM17 65h1v1h-1zM88 65h1v1h-1zM17 66h1v1h-1zM88 66h1v1h-1zM18 68h1v1h-1zM18 69h1v1h-1zM87 69h1v1h-1zM19 71h1v1h-1zM86 71h1v1h-1zM20 73h1v1h-1zM85 73h1v1h-1zM21 74h1v1h-1zM84 75h1v1h-1zM22 76h1v1h-1zM83 76h1v1h-1zM23 77h1v1h-1zM82 78h1v1h-1zM81 79h1v1h-1zM80 80h1v1h-1zM79 81h1v1h-1zM78 82h1v1h-1zM77 83h1v1h-1zM76 84h1v1h-1zM75 85h1v1h-1zM73 86h1v1h-1zM72 87h1v1h-1zM70 88h1v1h-1z" /><path fill="#9067eb" d="M73 24h1v1h-1zM77 27h1v1h-1zM27 28h1v1h-1zM78 28h1v1h-1zM26 29h1v1h-1zM79 29h1v1h-1zM80 30h1v1h-1zM81 31h1v1h-1zM22 34h1v1h-1zM84 35h1v1h-1zM20 37h1v1h-1zM19 39h1v1h-1zM87 41h1v1h-1zM17 44h1v1h-1zM89 47h1v1h-1zM16 48h1v1h-1zM90 54h1v1h-1zM90 55h1v1h-1zM90 56h1v1h-1zM16 63h1v1h-1zM89 64h1v1h-1zM88 67h1v1h-1zM87 70h1v1h-1zM86 72h1v1h-1zM85 74h1v1h-1zM21 75h1v1h-1zM83 77h1v1h-1zM23 78h1v1h-1zM74 86h1v1h-1z" /><path fill="#8e66eb" d="M75 24h1v1h-1zM22 32h1v1h-1zM20 35h1v1h-1zM17 41h1v1h-1zM89 43h1v1h-1zM15 47h1v1h-1zM90 47h1v1h-1zM91 53h1v1h-1zM91 54h1v1h-1zM91 55h1v1h-1zM91 56h1v1h-1zM91 57h1v1h-1zM91 58h1v1h-1zM15 63h1v1h-1zM90 64h1v1h-1zM16 67h1v1h-1zM17 70h1v1h-1zM88 70h1v1h-1zM18 72h1v1h-1zM19 74h1v1h-1zM85 76h1v1h-1zM21 77h1v1h-1zM82 80h1v1h-1zM78 84h1v1h-1zM77 85h1v1h-1zM71 89h1v1h-1z" /><path fill="#6a52e6" d="M3 25h1v1h-1zM2 84h1v1h-1z" /><path fill="#523a89" d="M28 25h1v1h-1z" /><path fill="#4e4e4e" d="M40 25h1v1h-1zM47 62h1v1h-1z" /><path fill="#8c8c8c" d="M67 25h1v1h-1z" /><path fill="#573d8b" d="M71 25h1v1h-1z" /><path fill="#9368eb" d="M72 25h1v1h-1zM73 26h1v1h-1zM75 27h1v1h-1zM76 28h1v1h-1zM28 29h1v1h-1zM77 29h1v1h-1zM27 30h1v1h-1zM78 30h1v1h-1zM26 31h1v1h-1zM79 31h1v1h-1zM25 32h1v1h-1zM80 32h1v1h-1zM81 33h1v1h-1zM24 34h1v1h-1zM23 35h1v1h-1zM82 35h1v1h-1zM83 36h1v1h-1zM22 37h1v1h-1zM21 38h1v1h-1zM84 38h1v1h-1zM20 40h1v1h-1zM85 40h1v1h-1zM20 41h1v1h-1zM19 42h1v1h-1zM86 42h1v1h-1zM19 43h1v1h-1zM86 43h1v1h-1zM18 45h1v1h-1zM87 45h1v1h-1zM18 46h1v1h-1zM87 46h1v1h-1zM88 49h1v1h-1zM17 50h1v1h-1zM88 50h1v1h-1zM17 51h1v1h-1zM88 51h1v1h-1zM17 52h1v1h-1zM17 53h1v1h-1zM17 54h1v1h-1zM17 55h1v1h-1zM17 56h1v1h-1zM17 57h1v1h-1zM17 58h1v1h-1zM17 59h1v1h-1zM88 59h1v1h-1zM17 60h1v1h-1zM88 60h1v1h-1zM17 61h1v1h-1zM88 61h1v1h-1zM88 62h1v1h-1zM18 64h1v1h-1zM18 65h1v1h-1zM87 65h1v1h-1zM87 66h1v1h-1zM19 68h1v1h-1zM86 68h1v1h-1zM86 69h1v1h-1zM20 70h1v1h-1zM85 71h1v1h-1zM21 72h1v1h-1zM84 73h1v1h-1zM22 74h1v1h-1zM83 74h1v1h-1zM23 76h1v1h-1zM82 76h1v1h-1zM24 77h1v1h-1zM81 77h1v1h-1zM75 83h1v1h-1zM74 84h1v1h-1zM73 85h1v1h-1zM71 86h1v1h-1zM69 87h1v1h-1z" /><path fill="#9267eb" d="M73 25h1v1h-1zM77 28h1v1h-1zM78 29h1v1h-1zM79 30h1v1h-1zM80 31h1v1h-1zM23 34h1v1h-1zM83 35h1v1h-1zM21 37h1v1h-1zM20 39h1v1h-1zM19 41h1v1h-1zM87 43h1v1h-1zM18 44h1v1h-1zM88 46h1v1h-1zM17 47h1v1h-1zM88 47h1v1h-1zM89 51h1v1h-1zM89 52h1v1h-1zM16 53h1v1h-1zM89 53h1v1h-1zM16 54h1v1h-1zM89 54h1v1h-1zM16 55h1v1h-1zM89 55h1v1h-1zM16 56h1v1h-1zM89 56h1v1h-1zM16 57h1v1h-1zM89 57h1v1h-1zM89 58h1v1h-1zM89 59h1v1h-1zM17 63h1v1h-1zM17 64h1v1h-1zM88 64h1v1h-1zM18 67h1v1h-1zM87 68h1v1h-1zM19 70h1v1h-1zM86 70h1v1h-1zM20 72h1v1h-1zM85 72h1v1h-1zM84 74h1v1h-1zM22 75h1v1h-1zM82 77h1v1h-1zM24 78h1v1h-1zM81 78h1v1h-1zM75 84h1v1h-1zM74 85h1v1h-1zM71 87h1v1h-1zM69 88h1v1h-1z" /><path fill="#6b54e7" d="M3 26h1v1h-1zM2 28h1v1h-1zM1 30h1v1h-1zM0 79h1v1h-1zM1 81h1v1h-1zM2 83h1v1h-1zM3 85h1v1h-1zM4 86h1v1h-1zM5 88h1v1h-1zM6 89h1v1h-1z" /><path fill="#7a5ce9" d="M13 26h1v1h-1zM96 32h1v1h-1zM97 34h1v1h-1zM5 68h1v1h-1zM10 80h1v1h-1zM94 82h1v1h-1z" /><path fill="#61459f" d="M28 26h1v1h-1z" /><path fill="#777777" d="M60 26h1v1h-1z" /><path fill="#6646a1" d="M71 26h1v1h-1z" /><path fill="#9469eb" d="M72 26h1v1h-1zM76 29h1v1h-1zM77 30h1v1h-1zM78 31h1v1h-1zM79 32h1v1h-1zM82 36h1v1h-1zM22 38h1v1h-1zM21 40h1v1h-1zM20 42h1v1h-1zM86 44h1v1h-1zM19 45h1v1h-1zM87 48h1v1h-1zM18 49h1v1h-1zM18 62h1v1h-1zM87 63h1v1h-1zM19 66h1v1h-1zM86 66h1v1h-1zM85 69h1v1h-1zM21 71h1v1h-1zM84 71h1v1h-1zM83 73h1v1h-1zM81 76h1v1h-1zM25 77h1v1h-1zM73 84h1v1h-1zM68 87h1v1h-1z" /><path fill="#9268eb" d="M74 26h1v1h-1zM24 33h1v1h-1zM82 34h1v1h-1zM22 36h1v1h-1zM84 37h1v1h-1zM85 39h1v1h-1zM86 41h1v1h-1zM87 44h1v1h-1zM17 48h1v1h-1zM88 48h1v1h-1zM17 49h1v1h-1zM17 62h1v1h-1zM88 63h1v1h-1zM18 66h1v1h-1zM87 67h1v1h-1zM19 69h1v1h-1zM20 71h1v1h-1zM21 73h1v1h-1zM83 75h1v1h-1zM80 79h1v1h-1zM79 80h1v1h-1zM78 81h1v1h-1zM77 82h1v1h-1zM76 83h1v1h-1zM72 86h1v1h-1zM70 87h1v1h-1z" /><path fill="#6a52e7" d="M2 27h1v1h-1zM1 82h1v1h-1zM5 89h1v1h-1z" /><path fill="#7e5ee9" d="M15 27h1v1h-1zM96 37h1v1h-1zM6 62h1v1h-1zM7 67h1v1h-1zM97 71h1v1h-1zM9 73h1v1h-1z" /><path fill="#7c58ca" d="M28 27h1v1h-1z" /><path fill="#282828" d="M40 27h1v1h-1zM55 42h1v1h-1z" /><path fill="#8b8b8b" d="M60 27h1v1h-1zM47 46h1v1h-1zM51 59h1v1h-1z" /><path fill="#3d3d3d" d="M67 27h1v1h-1z" /><path fill="#865ed1" d="M71 27h1v1h-1z" /><path fill="#9669ec" d="M72 27h1v1h-1zM76 30h1v1h-1zM77 31h1v1h-1zM78 32h1v1h-1zM25 35h1v1h-1zM81 36h1v1h-1zM23 38h1v1h-1zM22 40h1v1h-1zM21 42h1v1h-1zM85 44h1v1h-1zM86 47h1v1h-1zM19 48h1v1h-1zM87 53h1v1h-1zM87 54h1v1h-1zM87 55h1v1h-1zM87 56h1v1h-1zM87 57h1v1h-1zM19 62h1v1h-1zM19 63h1v1h-1zM86 63h1v1h-1zM20 66h1v1h-1zM85 67h1v1h-1zM21 69h1v1h-1zM84 69h1v1h-1zM22 71h1v1h-1zM83 71h1v1h-1zM23 73h1v1h-1zM82 73h1v1h-1zM25 76h1v1h-1zM80 76h1v1h-1zM74 82h1v1h-1zM73 83h1v1h-1zM70 85h1v1h-1zM68 86h1v1h-1z" /><path fill="#9569ec" d="M73 27h1v1h-1zM74 28h1v1h-1zM75 29h1v1h-1zM28 31h1v1h-1zM27 32h1v1h-1zM26 33h1v1h-1zM79 33h1v1h-1zM25 34h1v1h-1zM80 34h1v1h-1zM81 35h1v1h-1zM24 36h1v1h-1zM23 37h1v1h-1zM82 37h1v1h-1zM83 38h1v1h-1zM22 39h1v1h-1zM83 39h1v1h-1zM84 40h1v1h-1zM21 41h1v1h-1zM84 41h1v1h-1zM85 42h1v1h-1zM20 43h1v1h-1zM85 43h1v1h-1zM20 44h1v1h-1zM86 45h1v1h-1zM19 46h1v1h-1zM86 46h1v1h-1zM19 47h1v1h-1zM87 49h1v1h-1zM18 50h1v1h-1zM87 50h1v1h-1zM18 51h1v1h-1zM87 51h1v1h-1zM18 52h1v1h-1zM87 52h1v1h-1zM18 53h1v1h-1zM18 54h1v1h-1zM18 55h1v1h-1zM18 56h1v1h-1zM18 57h1v1h-1zM18 58h1v1h-1zM87 58h1v1h-1zM18 59h1v1h-1zM87 59h1v1h-1zM18 60h1v1h-1zM87 60h1v1h-1zM87 61h1v1h-1zM19 64h1v1h-1zM86 64h1v1h-1zM19 65h1v1h-1zM86 65h1v1h-1zM20 67h1v1h-1zM20 68h1v1h-1zM85 68h1v1h-1zM21 70h1v1h-1zM84 70h1v1h-1zM22 72h1v1h-1zM83 72h1v1h-1zM23 74h1v1h-1zM82 74h1v1h-1zM24 75h1v1h-1zM81 75h1v1h-1zM80 77h1v1h-1zM79 78h1v1h-1zM78 79h1v1h-1zM77 80h1v1h-1zM76 81h1v1h-1zM75 82h1v1h-1zM74 83h1v1h-1zM72 84h1v1h-1zM71 85h1v1h-1zM69 86h1v1h-1z" /><path fill="#9468eb" d="M74 27h1v1h-1zM75 28h1v1h-1zM28 30h1v1h-1zM27 31h1v1h-1zM26 32h1v1h-1zM25 33h1v1h-1zM80 33h1v1h-1zM81 34h1v1h-1zM23 36h1v1h-1zM83 37h1v1h-1zM21 39h1v1h-1zM84 39h1v1h-1zM85 41h1v1h-1zM19 44h1v1h-1zM18 47h1v1h-1zM87 47h1v1h-1zM18 48h1v1h-1zM88 52h1v1h-1zM88 53h1v1h-1zM88 54h1v1h-1zM88 55h1v1h-1zM88 56h1v1h-1zM88 57h1v1h-1zM88 58h1v1h-1zM18 63h1v1h-1zM87 64h1v1h-1zM19 67h1v1h-1zM86 67h1v1h-1zM20 69h1v1h-1zM85 70h1v1h-1zM84 72h1v1h-1zM22 73h1v1h-1zM23 75h1v1h-1zM82 75h1v1h-1zM24 76h1v1h-1zM80 78h1v1h-1zM79 79h1v1h-1zM78 80h1v1h-1zM77 81h1v1h-1zM76 82h1v1h-1zM72 85h1v1h-1zM70 86h1v1h-1z" /><path fill="#7457e8" d="M97 27h1v1h-1z" /><path fill="#6f55e7" d="M4 28h1v1h-1z" /><path fill="#8f67e9" d="M28 28h1v1h-1z" /><path fill="#fdfdfd" d="M41 28h1v1h-1zM42 32h1v1h-1zM58 86h1v1h-1zM47 90h1v1h-1zM64 91h1v1h-1z" /><path fill="#0e0e0e" d="M67 28h1v1h-1zM59 30h1v1h-1z" /><path fill="#986bec" d="M71 28h1v1h-1zM75 31h1v1h-1zM76 32h1v1h-1zM77 33h1v1h-1zM26 36h1v1h-1zM25 37h1v1h-1zM80 37h1v1h-1zM24 39h1v1h-1zM23 41h1v1h-1zM22 43h1v1h-1zM84 45h1v1h-1zM21 46h1v1h-1zM85 49h1v1h-1zM20 50h1v1h-1zM20 51h1v1h-1zM20 60h1v1h-1zM20 61h1v1h-1zM85 61h1v1h-1zM85 62h1v1h-1zM21 65h1v1h-1zM84 65h1v1h-1zM22 68h1v1h-1zM83 68h1v1h-1zM23 70h1v1h-1zM82 70h1v1h-1zM24 72h1v1h-1zM81 72h1v1h-1zM26 75h1v1h-1zM79 75h1v1h-1zM72 82h1v1h-1zM69 84h1v1h-1zM67 85h1v1h-1z" /><path fill="#976aec" d="M72 28h1v1h-1zM74 29h1v1h-1zM75 30h1v1h-1zM76 31h1v1h-1zM28 32h1v1h-1zM77 32h1v1h-1zM27 33h1v1h-1zM78 33h1v1h-1zM79 34h1v1h-1zM26 35h1v1h-1zM25 36h1v1h-1zM80 36h1v1h-1zM24 37h1v1h-1zM81 37h1v1h-1zM24 38h1v1h-1zM23 39h1v1h-1zM82 39h1v1h-1zM22 41h1v1h-1zM83 41h1v1h-1zM21 43h1v1h-1zM84 43h1v1h-1zM21 44h1v1h-1zM20 46h1v1h-1zM85 46h1v1h-1zM20 47h1v1h-1zM85 47h1v1h-1zM86 50h1v1h-1zM19 51h1v1h-1zM86 51h1v1h-1zM19 52h1v1h-1zM86 52h1v1h-1zM19 53h1v1h-1zM86 53h1v1h-1zM19 54h1v1h-1zM86 54h1v1h-1zM19 55h1v1h-1zM86 55h1v1h-1zM19 56h1v1h-1zM86 56h1v1h-1zM19 57h1v1h-1zM86 57h1v1h-1zM19 58h1v1h-1zM86 58h1v1h-1zM19 59h1v1h-1zM86 59h1v1h-1zM19 60h1v1h-1zM86 60h1v1h-1zM86 61h1v1h-1zM20 63h1v1h-1zM20 64h1v1h-1zM85 64h1v1h-1zM85 65h1v1h-1zM21 67h1v1h-1zM84 67h1v1h-1zM84 68h1v1h-1zM22 69h1v1h-1zM22 70h1v1h-1zM83 70h1v1h-1zM23 71h1v1h-1zM82 72h1v1h-1zM24 73h1v1h-1zM81 73h1v1h-1zM25 75h1v1h-1zM80 75h1v1h-1zM26 76h1v1h-1zM79 76h1v1h-1zM78 77h1v1h-1zM74 81h1v1h-1zM73 82h1v1h-1zM72 83h1v1h-1zM70 84h1v1h-1zM68 85h2v1h-2zM67 86h1v1h-1z" /><path fill="#966aec" d="M73 28h1v1h-1zM26 34h1v1h-1zM80 35h1v1h-1zM82 38h1v1h-1zM83 40h1v1h-1zM84 42h1v1h-1zM20 45h1v1h-1zM85 45h1v1h-1zM86 48h1v1h-1zM19 49h1v1h-1zM86 49h1v1h-1zM19 50h1v1h-1zM19 61h1v1h-1zM86 62h1v1h-1zM20 65h1v1h-1zM85 66h1v1h-1zM21 68h1v1h-1zM23 72h1v1h-1zM24 74h1v1h-1zM81 74h1v1h-1zM79 77h1v1h-1zM78 78h1v1h-1zM77 79h1v1h-1zM76 80h1v1h-1zM75 81h1v1h-1zM71 84h1v1h-1z" /><path fill="#6b52e7" d="M1 29h1v1h-1z" /><path fill="#140e20" d="M29 29h1v1h-1z" /><path fill="#d8d8d8" d="M41 29h1v1h-1z" /><path fill="#170f23" d="M70 29h1v1h-1z" /><path fill="#996bec" d="M71 29h2v1h-2zM73 30h1v1h-1zM74 31h1v1h-1zM75 32h1v1h-1zM29 33h1v1h-1zM76 33h1v1h-1zM28 34h1v1h-1zM77 34h1v1h-1zM27 35h1v1h-1zM78 35h1v1h-1zM79 36h1v1h-1zM26 37h1v1h-1zM79 37h1v1h-1zM25 38h1v1h-1zM80 38h1v1h-1zM81 39h1v1h-1zM24 40h1v1h-1zM81 40h1v1h-1zM82 41h1v1h-1zM23 42h1v1h-1zM82 42h1v1h-1zM83 43h1v1h-1zM22 44h1v1h-1zM83 44h1v1h-1zM22 45h1v1h-1zM83 45h1v1h-1zM84 46h1v1h-1zM21 47h1v1h-1zM84 47h1v1h-1zM21 48h1v1h-1zM84 48h1v1h-1zM21 49h1v1h-1zM85 50h1v1h-1zM85 51h1v1h-1zM20 52h1v1h-1zM85 52h1v1h-1zM20 53h1v1h-1zM85 53h1v1h-1zM20 54h1v1h-1zM85 54h1v1h-1zM20 55h1v1h-1zM85 55h1v1h-1zM20 56h1v1h-1zM85 56h1v1h-1zM20 57h1v1h-1zM85 57h1v1h-1zM20 58h1v1h-1zM85 58h1v1h-1zM20 59h1v1h-1zM85 59h1v1h-1zM85 60h1v1h-1zM21 61h1v1h-1zM21 62h1v1h-1zM84 62h1v1h-1zM21 63h1v1h-1zM84 63h1v1h-1zM21 64h1v1h-1zM84 64h1v1h-1zM22 66h1v1h-1zM83 66h1v1h-1zM22 67h1v1h-1zM83 67h1v1h-1zM23 68h1v1h-1zM23 69h1v1h-1zM82 69h1v1h-1zM24 70h1v1h-1zM24 71h1v1h-1zM81 71h1v1h-1zM25 72h1v1h-1zM25 73h1v1h-1zM80 73h1v1h-1zM26 74h1v1h-1zM27 75h1v1h-1zM78 76h1v1h-1zM77 77h1v1h-1zM76 78h1v1h-1zM75 79h1v1h-1zM74 80h1v1h-1zM72 81h2v1h-2zM71 82h1v1h-1zM69 83h2v1h-2zM67 84h2v1h-2zM65 85h2v1h-2z" /><path fill="#986aec" d="M73 29h1v1h-1zM74 30h1v1h-1zM29 32h1v1h-1zM28 33h1v1h-1zM27 34h1v1h-1zM78 34h1v1h-1zM79 35h1v1h-1zM81 38h1v1h-1zM23 40h1v1h-1zM82 40h1v1h-1zM22 42h1v1h-1zM83 42h1v1h-1zM84 44h1v1h-1zM21 45h1v1h-1zM20 48h1v1h-1zM85 48h1v1h-1zM20 49h1v1h-1zM20 62h1v1h-1zM85 63h1v1h-1zM21 66h1v1h-1zM84 66h1v1h-1zM83 69h1v1h-1zM82 71h1v1h-1zM25 74h1v1h-1zM80 74h1v1h-1zM77 78h1v1h-1zM76 79h1v1h-1zM75 80h1v1h-1zM71 83h1v1h-1z" /><path fill="#7558e8" d="M98 29h1v1h-1zM89 92h1v1h-1zM88 93h1v1h-1z" /><path fill="#513881" d="M29 30h1v1h-1z" /><path fill="#a4a4a4" d="M41 30h1v1h-1z" /><path fill="#fcfcfc" d="M60 30h1v1h-1z" /><path fill="#595959" d="M66 30h1v1h-1zM55 46h1v1h-1zM51 63h1v1h-1z" /><path fill="#583d86" d="M70 30h1v1h-1z" /><path fill="#9a6cec" d="M71 30h1v1h-1zM29 35h1v1h-1zM28 36h1v1h-1zM77 36h1v1h-1zM27 37h1v1h-1zM78 37h1v1h-1zM26 39h1v1h-1zM25 40h1v1h-1zM80 40h1v1h-1zM24 42h1v1h-1zM81 42h1v1h-1zM24 43h1v1h-1zM82 44h1v1h-1zM23 45h1v1h-1zM82 45h1v1h-1zM83 47h1v1h-1zM22 48h1v1h-1zM83 48h1v1h-1zM22 49h1v1h-1zM84 53h1v1h-1zM84 54h1v1h-1zM84 55h1v1h-1zM84 56h1v1h-1zM84 57h1v1h-1zM84 58h1v1h-1zM22 61h1v1h-1zM22 62h1v1h-1zM83 62h1v1h-1zM22 63h1v1h-1zM83 63h1v1h-1zM23 65h1v1h-1zM23 66h1v1h-1zM82 66h1v1h-1zM24 68h1v1h-1zM81 68h1v1h-1zM81 69h1v1h-1zM25 70h1v1h-1zM26 72h1v1h-1zM27 73h1v1h-1zM75 77h1v1h-1zM74 78h1v1h-1zM73 79h1v1h-1zM72 80h1v1h-1zM69 82h1v1h-1zM67 83h1v1h-1zM65 84h1v1h-1z" /><path fill="#9a6bec" d="M72 30h1v1h-1zM73 31h1v1h-1zM74 32h1v1h-1zM75 33h1v1h-1zM29 34h1v1h-1zM76 34h1v1h-1zM28 35h1v1h-1zM77 35h1v1h-1zM27 36h1v1h-1zM78 36h1v1h-1zM26 38h1v1h-1zM79 38h1v1h-1zM25 39h1v1h-1zM80 39h1v1h-1zM24 41h1v1h-1zM81 41h1v1h-1zM23 43h1v1h-1zM82 43h1v1h-1zM23 44h1v1h-1zM22 46h1v1h-1zM83 46h1v1h-1zM22 47h1v1h-1zM84 49h1v1h-1zM21 50h1v1h-1zM84 50h1v1h-1zM21 51h1v1h-1zM84 51h1v1h-1zM21 52h1v1h-1zM84 52h1v1h-1zM21 53h1v1h-1zM21 54h1v1h-1zM21 55h1v1h-1zM21 56h1v1h-1zM21 57h1v1h-1zM21 58h1v1h-1zM21 59h1v1h-1zM84 59h1v1h-1zM21 60h1v1h-1zM84 60h1v1h-1zM84 61h1v1h-1zM22 64h1v1h-1zM83 64h1v1h-1zM22 65h1v1h-1zM83 65h1v1h-1zM23 67h1v1h-1zM82 67h1v1h-1zM82 68h1v1h-1zM24 69h1v1h-1zM81 70h1v1h-1zM25 71h1v1h-1zM80 71h1v1h-1zM80 72h1v1h-1zM26 73h1v1h-1zM27 74h1v1h-1zM76 77h1v1h-1zM75 78h1v1h-1zM74 79h1v1h-1zM73 80h1v1h-1zM71 81h1v1h-1zM70 82h1v1h-1zM68 83h1v1h-1zM66 84h1v1h-1z" /><path fill="#8a64ea" d="M20 31h1v1h-1zM85 31h1v1h-1zM18 34h1v1h-1zM15 40h1v1h-1zM91 42h1v1h-1zM14 43h1v1h-1zM93 51h1v1h-1zM93 52h1v1h-1zM12 53h1v1h-1zM12 54h1v1h-1zM12 55h1v1h-1zM12 56h1v1h-1zM12 57h1v1h-1zM93 59h1v1h-1zM13 64h1v1h-1zM92 65h1v1h-1zM14 68h1v1h-1zM90 71h1v1h-1zM16 73h1v1h-1zM88 75h1v1h-1zM19 78h1v1h-1zM84 81h1v1h-1zM78 87h1v1h-1z" /><path fill="#9065e1" d="M29 31h1v1h-1z" /><path fill="#000001" d="M30 31h1v1h-1zM77 75h1v1h-1zM25 79h1v1h-1zM76 94h1v1h-1z" /><path fill="#5f5f5f" d="M41 31h1v1h-1zM59 86h1v1h-1zM65 91h1v1h-1z" /><path fill="#4c4c4c" d="M59 31h1v1h-1z" /><path fill="#e3e3e3" d="M65 31h1v1h-1zM64 33h1v1h-1zM57 39h1v1h-1z" /><path fill="#9365df" d="M70 31h1v1h-1z" /><path fill="#9b6cec" d="M71 31h2v1h-2zM72 32h2v1h-2zM73 33h2v1h-2zM30 34h1v1h-1zM74 34h2v1h-2zM30 35h1v1h-1zM75 35h2v1h-2zM29 36h1v1h-1zM76 36h1v1h-1zM28 37h1v1h-1zM77 37h1v1h-1zM27 38h1v1h-1zM78 38h1v1h-1zM27 39h1v1h-1zM78 39h2v1h-2zM26 40h1v1h-1zM79 40h1v1h-1zM25 41h2v1h-2zM80 41h1v1h-1zM25 42h1v1h-1zM80 42h1v1h-1zM25 43h1v1h-1zM81 43h1v1h-1zM24 44h1v1h-1zM81 44h1v1h-1zM24 45h1v1h-1zM81 45h1v1h-1zM23 46h1v1h-1zM82 46h1v1h-1zM23 47h1v1h-1zM82 47h1v1h-1zM23 48h1v1h-1zM82 48h1v1h-1zM23 49h1v1h-1zM83 49h1v1h-1zM22 50h1v1h-1zM83 50h1v1h-1zM22 51h1v1h-1zM83 51h1v1h-1zM22 52h1v1h-1zM83 52h1v1h-1zM22 53h1v1h-1zM83 53h1v1h-1zM22 54h1v1h-1zM83 54h1v1h-1zM22 55h1v1h-1zM83 55h1v1h-1zM22 56h1v1h-1zM83 56h1v1h-1zM22 57h1v1h-1zM83 57h1v1h-1zM22 58h1v1h-1zM83 58h1v1h-1zM22 59h1v1h-1zM83 59h1v1h-1zM22 60h1v1h-1zM83 60h1v1h-1zM23 61h1v1h-1zM83 61h1v1h-1zM23 62h1v1h-1zM82 62h1v1h-1zM23 63h1v1h-1zM82 63h1v1h-1zM23 64h1v1h-1zM82 64h1v1h-1zM24 65h1v1h-1zM82 65h1v1h-1zM24 66h1v1h-1zM81 66h1v1h-1zM24 67h1v1h-1zM81 67h1v1h-1zM25 68h1v1h-1zM80 68h1v1h-1zM25 69h1v1h-1zM80 69h1v1h-1zM26 70h1v1h-1zM80 70h1v1h-1zM26 71h1v1h-1zM27 72h1v1h-1zM28 73h1v1h-1zM28 74h1v1h-1zM74 77h1v1h-1zM73 78h1v1h-1zM72 79h1v1h-1zM70 80h2v1h-2zM69 81h2v1h-2zM67 82h2v1h-2zM65 83h2v1h-2zM64 84h1v1h-1z" /><path fill="#1f142f" d="M30 32h1v1h-1z" /><path fill="#151515" d="M41 32h1v1h-1zM57 84h1v1h-1zM40 94h1v1h-1z" /><path fill="#6f6f6f" d="M65 32h1v1h-1z" /><path fill="#211632" d="M69 32h1v1h-1z" /><path fill="#9d6dec" d="M70 32h1v1h-1zM71 33h1v1h-1zM72 34h1v1h-1zM73 35h1v1h-1zM31 36h1v1h-1zM74 36h1v1h-1zM30 37h1v1h-1zM75 37h1v1h-1zM76 38h1v1h-1zM29 39h1v1h-1zM76 39h1v1h-1zM28 40h1v1h-1zM77 40h1v1h-1zM27 42h1v1h-1zM78 42h1v1h-1zM26 44h1v1h-1zM79 44h1v1h-1zM26 45h1v1h-1zM25 46h1v1h-1zM80 46h1v1h-1zM25 47h1v1h-1zM80 47h1v1h-1zM25 48h1v1h-1zM81 49h1v1h-1zM24 50h1v1h-1zM81 50h1v1h-1zM24 51h1v1h-1zM81 51h1v1h-1zM24 52h1v1h-1zM81 52h1v1h-1zM24 53h1v1h-1zM24 54h1v1h-1zM24 55h1v1h-1zM24 56h1v1h-1zM24 57h1v1h-1zM24 58h1v1h-1zM81 58h1v1h-1zM24 59h1v1h-1zM81 59h1v1h-1zM24 60h1v1h-1zM81 60h1v1h-1zM81 61h1v1h-1zM25 63h1v1h-1zM25 64h1v1h-1zM80 64h1v1h-1zM80 65h1v1h-1zM26 66h1v1h-1zM26 67h1v1h-1zM79 67h1v1h-1zM27 68h1v1h-1zM27 69h1v1h-1zM28 70h1v1h-1zM29 72h1v1h-1zM30 73h1v1h-1zM72 77h1v1h-1zM70 78h1v1h-1zM69 79h1v1h-1zM67 80h2v1h-2zM65 81h2v1h-2zM63 82h2v1h-2z" /><path fill="#9c6cec" d="M71 32h1v1h-1zM72 33h1v1h-1zM30 36h1v1h-1zM75 36h1v1h-1zM29 37h1v1h-1zM76 37h1v1h-1zM28 38h1v1h-1zM77 38h1v1h-1zM27 40h1v1h-1zM78 40h1v1h-1zM79 41h1v1h-1zM26 42h1v1h-1zM79 42h1v1h-1zM80 43h1v1h-1zM25 44h1v1h-1zM80 44h1v1h-1zM24 46h1v1h-1zM81 46h1v1h-1zM24 47h1v1h-1zM81 47h1v1h-1zM82 49h1v1h-1zM23 50h1v1h-1zM82 50h1v1h-1zM23 51h1v1h-1zM82 51h1v1h-1zM23 52h1v1h-1zM82 52h1v1h-1zM23 53h1v1h-1zM23 54h1v1h-1zM23 55h1v1h-1zM23 56h1v1h-1zM23 57h1v1h-1zM23 58h1v1h-1zM23 59h1v1h-1zM82 59h1v1h-1zM23 60h1v1h-1zM82 60h1v1h-1zM82 61h1v1h-1zM24 63h1v1h-1zM24 64h1v1h-1zM81 64h1v1h-1zM81 65h1v1h-1zM25 66h1v1h-1zM25 67h1v1h-1zM80 67h1v1h-1zM26 69h1v1h-1zM27 71h1v1h-1zM28 72h1v1h-1zM73 77h1v1h-1zM72 78h1v1h-1zM71 79h1v1h-1zM69 80h1v1h-1zM68 81h1v1h-1zM66 82h1v1h-1zM63 83h2v1h-2z" /><path fill="#7658e8" d="M99 32h1v1h-1z" /><path fill="#6c54e6" d="M0 33h1v1h-1z" /><path fill="#7e58c2" d="M30 33h1v1h-1z" /><path fill="#cfcfcf" d="M59 33h1v1h-1z" /><path fill="#7f57bf" d="M69 33h1v1h-1z" /><path fill="#9d6ded" d="M70 33h1v1h-1zM71 34h1v1h-1zM31 37h1v1h-1zM74 37h1v1h-1zM30 38h1v1h-1zM75 38h1v1h-1zM28 41h1v1h-1zM77 41h1v1h-1zM27 43h1v1h-1zM78 43h1v1h-1zM79 45h1v1h-1zM26 46h1v1h-1zM80 48h1v1h-1zM25 49h1v1h-1zM81 53h1v1h-1zM81 54h1v1h-1zM81 55h1v1h-1zM81 56h1v1h-1zM81 57h1v1h-1zM25 61h1v1h-1zM25 62h1v1h-1zM80 62h1v1h-1zM80 63h1v1h-1zM26 65h1v1h-1zM79 66h1v1h-1zM28 69h1v1h-1zM29 71h1v1h-1zM72 76h1v1h-1zM71 77h1v1h-1zM68 79h1v1h-1zM62 82h1v1h-1z" /><path fill="#7558e7" d="M99 33h1v1h-1zM99 78h1v1h-1zM90 92h1v1h-1z" /><path fill="#6c55e7" d="M0 34h1v1h-1z" /><path fill="#150f21" d="M31 34h1v1h-1z" /><path fill="#1e1e1e" d="M58 34h1v1h-1z" /><path fill="#fefefe" d="M59 34h1v1h-1zM56 42h1v1h-1zM48 60h1v1h-1zM51 60h1v1h-1z" /><path fill="#171022" d="M68 34h1v1h-1z" /><path fill="#9f6eed" d="M69 34h1v1h-1zM70 35h1v1h-1zM71 36h1v1h-1zM72 37h1v1h-1zM32 38h1v1h-1zM73 38h1v1h-1zM31 39h2v1h-2zM74 39h1v1h-1zM31 40h1v1h-1zM74 40h2v1h-2zM30 41h1v1h-1zM75 41h1v1h-1zM29 42h2v1h-2zM76 42h1v1h-1zM29 43h1v1h-1zM76 43h1v1h-1zM28 44h1v1h-1zM77 44h1v1h-1zM28 45h1v1h-1zM77 45h1v1h-1zM28 46h1v1h-1zM78 46h1v1h-1zM27 47h1v1h-1zM78 47h1v1h-1zM27 48h1v1h-1zM78 48h1v1h-1zM27 49h1v1h-1zM78 49h2v1h-2zM26 50h1v1h-1zM79 50h1v1h-1zM26 51h1v1h-1zM79 51h1v1h-1zM26 52h1v1h-1zM79 52h1v1h-1zM26 53h1v1h-1zM79 53h1v1h-1zM26 54h1v1h-1zM79 54h1v1h-1zM26 55h1v1h-1zM79 55h1v1h-1zM26 56h1v1h-1zM79 56h1v1h-1zM26 57h1v1h-1zM79 57h1v1h-1zM26 58h1v1h-1zM79 58h1v1h-1zM26 59h1v1h-1zM79 59h1v1h-1zM26 60h1v1h-1zM79 60h1v1h-1zM27 61h1v1h-1zM79 61h1v1h-1zM27 62h1v1h-1zM78 62h1v1h-1zM27 63h1v1h-1zM78 63h1v1h-1zM27 64h1v1h-1zM78 64h1v1h-1zM28 65h1v1h-1zM77 65h1v1h-1zM28 66h1v1h-1zM77 66h1v1h-1zM29 67h1v1h-1zM77 67h1v1h-1zM29 68h1v1h-1zM30 69h1v1h-1zM30 70h1v1h-1zM31 71h1v1h-1zM70 75h2v1h-2zM69 76h2v1h-2zM68 77h1v1h-1zM66 78h2v1h-2zM64 79h2v1h-2zM62 80h2v1h-2zM60 81h2v1h-2z" /><path fill="#9e6ded" d="M70 34h1v1h-1zM72 35h1v1h-1zM73 36h1v1h-1zM31 38h1v1h-1zM74 38h1v1h-1zM30 39h1v1h-1zM75 39h1v1h-1zM29 40h1v1h-1zM76 40h1v1h-1zM29 41h1v1h-1zM28 42h1v1h-1zM77 42h1v1h-1zM28 43h1v1h-1zM27 44h1v1h-1zM78 44h1v1h-1zM27 45h1v1h-1zM79 46h1v1h-1zM26 47h1v1h-1zM79 47h1v1h-1zM26 48h1v1h-1zM80 49h1v1h-1zM25 50h1v1h-1zM80 50h1v1h-1zM25 51h1v1h-1zM80 51h1v1h-1zM25 52h1v1h-1zM80 52h1v1h-1zM25 53h1v1h-1zM80 53h1v1h-1zM25 54h1v1h-1zM25 55h1v1h-1zM25 56h1v1h-1zM25 57h1v1h-1zM25 58h1v1h-1zM80 58h1v1h-1zM25 59h1v1h-1zM80 59h1v1h-1zM25 60h1v1h-1zM80 60h1v1h-1zM80 61h1v1h-1zM26 63h1v1h-1zM79 63h1v1h-1zM26 64h1v1h-1zM79 64h1v1h-1zM79 65h1v1h-1zM27 66h1v1h-1zM78 66h1v1h-1zM27 67h1v1h-1zM78 67h1v1h-1zM28 68h1v1h-1zM29 70h1v1h-1zM30 71h1v1h-1zM30 72h1v1h-1zM71 76h1v1h-1zM70 77h1v1h-1zM69 78h1v1h-1zM67 79h1v1h-1zM65 80h2v1h-2zM63 81h2v1h-2z" /><path fill="#9c6dec" d="M73 34h1v1h-1zM74 35h1v1h-1zM29 38h1v1h-1zM28 39h1v1h-1zM77 39h1v1h-1zM27 41h1v1h-1zM78 41h1v1h-1zM26 43h1v1h-1zM79 43h1v1h-1zM25 45h1v1h-1zM80 45h1v1h-1zM24 48h1v1h-1zM81 48h1v1h-1zM24 49h1v1h-1zM82 53h1v1h-1zM82 54h1v1h-1zM82 55h1v1h-1zM82 56h1v1h-1zM82 57h1v1h-1zM82 58h1v1h-1zM24 61h1v1h-1zM24 62h1v1h-1zM81 62h1v1h-1zM81 63h1v1h-1zM25 65h1v1h-1zM80 66h1v1h-1zM26 68h1v1h-1zM79 68h1v1h-1zM27 70h1v1h-1zM28 71h1v1h-1zM29 73h1v1h-1zM71 78h1v1h-1zM70 79h1v1h-1zM67 81h1v1h-1zM65 82h1v1h-1z" /><path fill="#6d54e6" d="M0 35h1v1h-1z" /><path fill="#9469ec" d="M24 35h1v1h-1zM18 61h1v1h-1zM87 62h1v1h-1z" /><path fill="#7e57bf" d="M31 35h1v1h-1z" /><path fill="#767676" d="M58 35h1v1h-1z" /><path fill="#c8c8c8" d="M63 35h1v1h-1z" /><path fill="#845bc4" d="M68 35h1v1h-1z" /><path fill="#a06eed" d="M69 35h1v1h-1zM70 36h1v1h-1zM71 37h1v1h-1zM72 38h1v1h-1zM73 39h1v1h-1zM32 40h1v1h-1zM73 40h1v1h-1zM31 41h1v1h-1zM74 41h1v1h-1zM75 42h1v1h-1zM30 43h1v1h-1zM75 43h1v1h-1zM29 44h1v1h-1zM76 44h1v1h-1zM29 45h1v1h-1zM76 45h1v1h-1zM77 46h1v1h-1zM28 47h1v1h-1zM77 47h1v1h-1zM28 48h1v1h-1zM77 48h1v1h-1zM27 50h1v1h-1zM78 50h1v1h-1zM27 51h1v1h-1zM78 51h1v1h-1zM27 52h1v1h-1zM78 52h1v1h-1zM27 53h1v1h-1zM78 53h1v1h-1zM27 54h1v1h-1zM27 55h1v1h-1zM27 56h1v1h-1zM27 57h1v1h-1zM78 57h1v1h-1zM27 58h1v1h-1zM78 58h1v1h-1zM27 59h1v1h-1zM78 59h1v1h-1zM27 60h1v1h-1zM78 60h1v1h-1zM78 61h1v1h-1zM28 62h1v1h-1zM28 63h1v1h-1zM77 63h1v1h-1zM28 64h1v1h-1zM77 64h1v1h-1zM29 65h1v1h-1zM29 66h1v1h-1zM76 66h1v1h-1zM30 68h1v1h-1zM31 69h1v1h-1zM31 70h1v1h-1zM32 71h1v1h-1zM70 74h1v1h-1zM69 75h1v1h-1zM68 76h1v1h-1zM66 77h2v1h-2zM65 78h1v1h-1zM62 79h2v1h-2zM59 80h3v1h-3zM48 81h2v1h-2z" /><path fill="#9e6eed" d="M71 35h1v1h-1zM72 36h1v1h-1zM73 37h1v1h-1zM30 40h1v1h-1zM76 41h1v1h-1zM77 43h1v1h-1zM78 45h1v1h-1zM27 46h1v1h-1zM79 48h1v1h-1zM26 49h1v1h-1zM80 54h1v1h-1zM80 55h1v1h-1zM80 56h1v1h-1zM80 57h1v1h-1zM26 61h1v1h-1zM26 62h1v1h-1zM79 62h1v1h-1zM27 65h1v1h-1zM78 65h1v1h-1zM28 67h1v1h-1zM29 69h1v1h-1zM31 72h1v1h-1zM69 77h1v1h-1zM68 78h1v1h-1zM66 79h1v1h-1zM64 80h1v1h-1zM62 81h1v1h-1z" /><path fill="#261a3a" d="M32 36h1v1h-1z" /><path fill="#d6d6d6" d="M43 36h1v1h-1z" /><path fill="#cecece" d="M58 36h1v1h-1z" /><path fill="#313131" d="M63 36h1v1h-1z" /><path fill="#2a1d3e" d="M67 36h1v1h-1z" /><path fill="#a16fed" d="M68 36h1v1h-1zM69 37h1v1h-1zM70 38h1v1h-1zM71 39h1v1h-1zM33 40h1v1h-1zM72 40h1v1h-1zM32 41h2v1h-2zM73 41h1v1h-1zM32 42h1v1h-1zM73 42h1v1h-1zM31 43h1v1h-1zM74 43h1v1h-1zM31 44h1v1h-1zM74 44h2v1h-2zM30 45h1v1h-1zM75 45h1v1h-1zM30 46h1v1h-1zM75 46h1v1h-1zM29 47h1v1h-1zM76 47h1v1h-1zM29 48h1v1h-1zM76 48h1v1h-1zM29 49h1v1h-1zM76 49h1v1h-1zM28 50h1v1h-1zM77 50h1v1h-1zM28 51h1v1h-1zM77 51h1v1h-1zM28 52h1v1h-1zM77 52h1v1h-1zM28 53h1v1h-1zM77 53h1v1h-1zM28 54h1v1h-1zM77 54h1v1h-1zM28 55h1v1h-1zM77 55h1v1h-1zM28 56h1v1h-1zM77 56h1v1h-1zM28 57h1v1h-1zM77 57h1v1h-1zM28 58h1v1h-1zM77 58h1v1h-1zM28 59h1v1h-1zM77 59h1v1h-1zM28 60h1v1h-1zM77 60h1v1h-1zM29 61h1v1h-1zM77 61h1v1h-1zM29 62h1v1h-1zM76 62h1v1h-1zM29 63h1v1h-1zM76 63h1v1h-1zM29 64h2v1h-2zM76 64h1v1h-1zM30 65h1v1h-1zM75 65h1v1h-1zM30 66h1v1h-1zM75 66h1v1h-1zM31 67h1v1h-1zM31 68h1v1h-1zM32 69h1v1h-1zM33 70h1v1h-1zM70 73h1v1h-1zM68 74h2v1h-2zM67 75h2v1h-2zM66 76h1v1h-1zM64 77h2v1h-2zM61 78h3v1h-3zM46 79h2v1h-2zM58 79h4v1h-4zM48 80h3v1h-3z" /><path fill="#a06fed" d="M69 36h1v1h-1zM70 37h1v1h-1zM71 38h1v1h-1zM72 39h1v1h-1zM31 42h1v1h-1zM74 42h1v1h-1zM30 44h1v1h-1zM29 46h1v1h-1zM76 46h1v1h-1zM28 49h1v1h-1zM77 49h1v1h-1zM78 54h1v1h-1zM78 55h1v1h-1zM78 56h1v1h-1zM28 61h1v1h-1zM77 62h1v1h-1zM76 65h1v1h-1zM30 67h1v1h-1zM32 70h1v1h-1zM67 76h1v1h-1zM64 78h1v1h-1zM47 80h1v1h-1z" /><path fill="#8b64eb" d="M17 37h1v1h-1zM90 41h1v1h-1zM91 44h1v1h-1zM13 61h1v1h-1zM92 62h1v1h-1zM14 66h1v1h-1zM15 69h1v1h-1zM89 72h1v1h-1zM88 74h1v1h-1zM19 77h1v1h-1zM84 80h1v1h-1zM77 87h1v1h-1z" /><path fill="#9264db" d="M32 37h1v1h-1z" /><path fill="#010102" d="M33 37h1v1h-1zM66 37h1v1h-1zM53 55h1v1h-1zM71 71h1v1h-1zM68 89h1v1h-1z" /><path fill="#747474" d="M43 37h1v1h-1z" /><path fill="#272727" d="M57 37h1v1h-1zM61 39h1v1h-1z" /><path fill="#808080" d="M62 37h1v1h-1zM46 44h1v1h-1z" /><path fill="#9768dc" d="M67 37h1v1h-1z" /><path fill="#a26fed" d="M68 37h1v1h-1zM69 38h1v1h-1zM70 39h1v1h-1zM71 40h1v1h-1zM34 41h1v1h-1zM72 41h1v1h-1zM33 42h1v1h-1zM72 42h1v1h-1zM32 43h1v1h-1zM73 43h1v1h-1zM32 44h1v1h-1zM31 45h1v1h-1zM74 45h1v1h-1zM31 46h1v1h-1zM30 47h1v1h-1zM75 47h1v1h-1zM30 48h1v1h-1zM75 48h1v1h-1zM30 49h1v1h-1zM29 50h1v1h-1zM76 50h1v1h-1zM29 51h1v1h-1zM76 51h1v1h-1zM29 52h1v1h-1zM76 52h1v1h-1zM29 53h1v1h-1zM76 53h1v1h-1zM29 54h1v1h-1zM76 54h1v1h-1zM29 55h1v1h-1zM29 56h1v1h-1zM29 57h1v1h-1zM76 57h1v1h-1zM29 58h1v1h-1zM76 58h1v1h-1zM29 59h1v1h-1zM76 59h1v1h-1zM29 60h1v1h-1zM76 60h1v1h-1zM76 61h1v1h-1zM30 62h1v1h-1zM30 63h1v1h-1zM75 63h1v1h-1zM75 64h1v1h-1zM31 65h1v1h-1zM74 65h1v1h-1zM31 66h1v1h-1zM74 66h1v1h-1zM32 67h1v1h-1zM73 67h1v1h-1zM32 68h1v1h-1zM33 69h1v1h-1zM34 70h1v1h-1zM70 71h1v1h-1zM70 72h1v1h-1zM68 73h2v1h-2zM67 74h1v1h-1zM66 75h1v1h-1zM64 76h2v1h-2zM43 77h1v1h-1zM62 77h2v1h-2zM45 78h2v1h-2zM59 78h2v1h-2zM48 79h5v1h-5z" /><path fill="#513878" d="M33 38h1v1h-1z" /><path fill="#141414" d="M43 38h1v1h-1zM47 47h1v1h-1zM48 88h1v1h-1z" /><path fill="#f8f8f8" d="M44 38h1v1h-1z" /><path fill="#cccccc" d="M61 38h1v1h-1z" /><path fill="#563a7d" d="M66 38h1v1h-1z" /><path fill="#a370ed" d="M67 38h2v1h-2zM68 39h2v1h-2zM69 40h2v1h-2zM70 41h1v1h-1zM34 42h1v1h-1zM71 42h1v1h-1zM33 43h2v1h-2zM72 43h1v1h-1zM33 44h1v1h-1zM72 44h1v1h-1zM32 45h1v1h-1zM73 45h1v1h-1zM32 46h1v1h-1zM73 46h1v1h-1zM31 47h1v1h-1zM74 47h1v1h-1zM31 48h1v1h-1zM74 48h1v1h-1zM31 49h1v1h-1zM74 49h1v1h-1zM31 50h1v1h-1zM75 50h1v1h-1zM30 51h1v1h-1zM75 51h1v1h-1zM30 52h1v1h-1zM75 52h1v1h-1zM30 53h1v1h-1zM75 53h1v1h-1zM30 54h1v1h-1zM75 54h1v1h-1zM30 55h1v1h-1zM75 55h1v1h-1zM30 56h1v1h-1zM75 56h1v1h-1zM30 57h1v1h-1zM75 57h1v1h-1zM30 58h1v1h-1zM75 58h1v1h-1zM30 59h1v1h-1zM75 59h1v1h-1zM30 60h1v1h-1zM75 60h1v1h-1zM31 61h1v1h-1zM75 61h1v1h-1zM31 62h1v1h-1zM74 62h1v1h-1zM31 63h1v1h-1zM74 63h1v1h-1zM32 64h1v1h-1zM74 64h1v1h-1zM32 65h1v1h-1zM73 65h1v1h-1zM32 66h2v1h-2zM73 66h1v1h-1zM33 67h1v1h-1zM72 67h1v1h-1zM34 68h1v1h-1zM71 68h1v1h-1zM34 69h2v1h-2zM35 70h1v1h-1zM70 70h1v1h-1zM36 71h1v1h-1zM69 71h1v1h-1zM37 72h1v1h-1zM68 72h1v1h-1zM39 73h1v1h-1zM67 73h1v1h-1zM40 74h1v1h-1zM65 74h2v1h-2zM41 75h2v1h-2zM63 75h2v1h-2zM43 76h2v1h-2zM61 76h3v1h-3zM45 77h3v1h-3zM58 77h3v1h-3zM48 78h6v1h-6zM57 78h1v1h-1z" /><path fill="#9f6eec" d="M33 39h1v1h-1z" /><path fill="#110b19" d="M34 39h1v1h-1z" /><path fill="#f3f3f3" d="M60 39h1v1h-1zM47 45h1v1h-1z" /><path fill="#110c1a" d="M65 39h1v1h-1zM79 71h1v1h-1z" /><path fill="#a571ed" d="M66 39h1v1h-1zM67 40h1v1h-1zM68 41h1v1h-1zM69 42h1v1h-1zM69 43h1v1h-1zM35 44h1v1h-1zM70 44h1v1h-1zM35 45h1v1h-1zM71 45h1v1h-1zM34 46h1v1h-1zM71 46h1v1h-1zM72 47h1v1h-1zM33 48h1v1h-1zM72 48h1v1h-1zM33 49h1v1h-1zM72 49h1v1h-1zM73 50h1v1h-1zM32 51h1v1h-1zM73 51h1v1h-1zM32 52h1v1h-1zM73 52h1v1h-1zM32 53h1v1h-1zM73 53h1v1h-1zM32 54h1v1h-1zM73 54h1v1h-1zM32 55h1v1h-1zM73 55h1v1h-1zM32 56h1v1h-1zM73 56h1v1h-1zM32 57h1v1h-1zM73 57h1v1h-1zM32 58h1v1h-1zM73 58h1v1h-1zM32 59h1v1h-1zM73 59h1v1h-1zM32 60h1v1h-1zM73 60h1v1h-1zM33 61h1v1h-1zM73 61h1v1h-1zM33 62h1v1h-1zM72 62h1v1h-1zM33 63h1v1h-1zM72 63h1v1h-1zM34 64h1v1h-1zM34 65h1v1h-1zM71 65h1v1h-1zM35 66h1v1h-1zM70 66h1v1h-1zM35 67h1v1h-1zM70 67h1v1h-1zM36 68h1v1h-1zM69 68h1v1h-1zM37 69h1v1h-1zM68 69h1v1h-1zM38 70h1v1h-1zM67 70h1v1h-1zM39 71h1v1h-1zM66 71h1v1h-1zM40 72h1v1h-1zM65 72h1v1h-1zM41 73h2v1h-2zM63 73h2v1h-2zM43 74h2v1h-2zM61 74h2v1h-2zM45 75h3v1h-3zM58 75h3v1h-3zM48 76h10v1h-10z" /><path fill="#a470ed" d="M67 39h1v1h-1zM68 40h1v1h-1zM69 41h1v1h-1zM35 42h1v1h-1zM70 42h1v1h-1zM35 43h1v1h-1zM71 43h1v1h-1zM34 44h1v1h-1zM71 44h1v1h-1zM33 45h1v1h-1zM72 45h1v1h-1zM33 46h1v1h-1zM72 46h1v1h-1zM32 47h1v1h-1zM73 47h1v1h-1zM32 48h1v1h-1zM73 48h1v1h-1zM32 49h1v1h-1zM74 50h1v1h-1zM31 51h1v1h-1zM74 51h1v1h-1zM31 52h1v1h-1zM74 52h1v1h-1zM31 53h1v1h-1zM74 53h1v1h-1zM31 54h1v1h-1zM74 54h1v1h-1zM31 55h1v1h-1zM74 55h1v1h-1zM31 56h1v1h-1zM74 56h1v1h-1zM31 57h1v1h-1zM74 57h1v1h-1zM31 58h1v1h-1zM74 58h1v1h-1zM31 59h1v1h-1zM74 59h1v1h-1zM31 60h1v1h-1zM74 60h1v1h-1zM74 61h1v1h-1zM32 62h1v1h-1zM73 62h1v1h-1zM32 63h1v1h-1zM73 63h1v1h-1zM33 64h1v1h-1zM73 64h1v1h-1zM33 65h1v1h-1zM72 65h1v1h-1zM34 66h1v1h-1zM72 66h1v1h-1zM34 67h1v1h-1zM71 67h1v1h-1zM35 68h1v1h-1zM70 68h1v1h-1zM36 69h1v1h-1zM70 69h1v1h-1zM36 70h2v1h-2zM69 70h1v1h-1zM37 71h2v1h-2zM68 71h1v1h-1zM38 72h2v1h-2zM66 72h2v1h-2zM40 73h1v1h-1zM65 73h2v1h-2zM41 74h2v1h-2zM63 74h2v1h-2zM43 75h2v1h-2zM61 75h2v1h-2zM45 76h3v1h-3zM58 76h3v1h-3zM48 77h10v1h-10z" /><path fill="#8e62d1" d="M34 40h1v1h-1z" /><path fill="#414141" d="M44 40h1v1h-1z" /><path fill="#525252" d="M56 40h1v1h-1z" /><path fill="#010001" d="M64 40h1v1h-1zM56 60h1v1h-1zM47 67h1v1h-1zM40 76h1v1h-1zM17 86h1v1h-1z" /><path fill="#9264d2" d="M65 40h1v1h-1z" /><path fill="#a571ee" d="M66 40h1v1h-1zM67 41h1v1h-1zM68 42h1v1h-1zM34 47h1v1h-1zM33 50h1v1h-1zM71 64h1v1h-1zM36 67h1v1h-1zM41 72h1v1h-1z" /><path fill="#5a3f84" d="M35 41h1v1h-1z" /><path fill="#d9d9d9" d="M45 41h1v1h-1z" /><path fill="#bbbbbb" d="M56 41h1v1h-1z" /><path fill="#9a9a9a" d="M59 41h1v1h-1zM54 45h1v1h-1z" /><path fill="#604189" d="M64 41h1v1h-1z" /><path fill="#a772ee" d="M65 41h1v1h-1zM66 42h1v1h-1zM67 43h1v1h-1zM67 44h2v1h-2zM37 45h1v1h-1zM68 45h1v1h-1zM36 46h1v1h-1zM69 46h1v1h-1zM36 47h1v1h-1zM69 47h1v1h-1zM35 48h1v1h-1zM70 48h1v1h-1zM35 49h1v1h-1zM70 49h1v1h-1zM35 50h1v1h-1zM71 50h1v1h-1zM34 51h1v1h-1zM71 51h1v1h-1zM34 52h1v1h-1zM71 52h1v1h-1zM34 53h1v1h-1zM71 53h1v1h-1zM34 54h1v1h-1zM71 54h1v1h-1zM34 55h1v1h-1zM71 55h1v1h-1zM34 56h1v1h-1zM71 56h1v1h-1zM34 57h1v1h-1zM71 57h1v1h-1zM34 58h1v1h-1zM71 58h1v1h-1zM34 59h1v1h-1zM71 59h1v1h-1zM34 60h1v1h-1zM71 60h1v1h-1zM35 61h1v1h-1zM70 61h1v1h-1zM35 62h1v1h-1zM70 62h1v1h-1zM35 63h2v1h-2zM70 63h1v1h-1zM36 64h1v1h-1zM69 64h1v1h-1zM36 65h2v1h-2zM69 65h1v1h-1zM37 66h1v1h-1zM68 66h1v1h-1zM38 67h1v1h-1zM67 67h1v1h-1zM39 68h1v1h-1zM66 68h2v1h-2zM40 69h1v1h-1zM65 69h2v1h-2zM41 70h1v1h-1zM64 70h2v1h-2zM42 71h2v1h-2zM62 71h2v1h-2zM43 72h3v1h-3zM61 72h2v1h-2zM45 73h4v1h-4zM58 73h3v1h-3zM48 74h10v1h-10z" /><path fill="#a671ee" d="M66 41h1v1h-1zM67 42h1v1h-1zM68 43h1v1h-1zM36 44h1v1h-1zM69 44h1v1h-1zM36 45h1v1h-1zM69 45h2v1h-2zM35 46h1v1h-1zM70 46h1v1h-1zM35 47h1v1h-1zM71 47h1v1h-1zM34 48h1v1h-1zM71 48h1v1h-1zM34 49h1v1h-1zM71 49h1v1h-1zM72 50h1v1h-1zM33 51h1v1h-1zM72 51h1v1h-1zM33 52h1v1h-1zM72 52h1v1h-1zM33 53h1v1h-1zM72 53h1v1h-1zM33 54h1v1h-1zM72 54h1v1h-1zM33 55h1v1h-1zM72 55h1v1h-1zM33 56h1v1h-1zM72 56h1v1h-1zM33 57h1v1h-1zM72 57h1v1h-1zM33 58h1v1h-1zM72 58h1v1h-1zM33 59h1v1h-1zM72 59h1v1h-1zM33 60h1v1h-1zM72 60h1v1h-1zM34 61h1v1h-1zM72 61h1v1h-1zM34 62h1v1h-1zM71 62h1v1h-1zM34 63h1v1h-1zM71 63h1v1h-1zM35 64h1v1h-1zM70 64h1v1h-1zM35 65h1v1h-1zM70 65h1v1h-1zM36 66h1v1h-1zM69 66h1v1h-1zM37 67h1v1h-1zM69 67h1v1h-1zM37 68h1v1h-1zM68 68h1v1h-1zM38 69h1v1h-1zM67 69h1v1h-1zM39 70h2v1h-2zM66 70h1v1h-1zM40 71h2v1h-2zM64 71h2v1h-2zM42 72h1v1h-1zM63 72h2v1h-2zM43 73h2v1h-2zM61 73h2v1h-2zM45 74h3v1h-3zM58 74h3v1h-3zM48 75h10v1h-10z" /><path fill="#a270ed" d="M71 41h1v1h-1zM73 44h1v1h-1zM74 46h1v1h-1zM75 49h1v1h-1zM30 50h1v1h-1zM76 55h1v1h-1zM76 56h1v1h-1zM30 61h1v1h-1zM75 62h1v1h-1zM31 64h1v1h-1zM33 68h1v1h-1zM69 72h1v1h-1zM65 75h1v1h-1zM42 76h1v1h-1zM44 77h1v1h-1zM61 77h1v1h-1zM47 78h1v1h-1zM58 78h1v1h-1z" /><path fill="#261a36" d="M36 42h1v1h-1z" /><path fill="#707070" d="M45 42h1v1h-1z" /><path fill="#c6c6c6" d="M58 42h1v1h-1z" /><path fill="#281a38" d="M63 42h1v1h-1z" /><path fill="#a872ee" d="M64 42h2v1h-2zM65 43h2v1h-2zM66 44h1v1h-1zM67 45h1v1h-1zM37 46h1v1h-1zM68 46h1v1h-1zM37 47h1v1h-1zM68 47h1v1h-1zM36 48h1v1h-1zM69 48h1v1h-1zM36 49h1v1h-1zM69 49h1v1h-1zM36 50h1v1h-1zM70 50h1v1h-1zM35 51h1v1h-1zM70 51h1v1h-1zM35 52h1v1h-1zM70 52h1v1h-1zM35 53h1v1h-1zM70 53h1v1h-1zM35 54h1v1h-1zM70 54h1v1h-1zM35 55h1v1h-1zM70 55h1v1h-1zM35 56h1v1h-1zM70 56h1v1h-1zM35 57h1v1h-1zM70 57h1v1h-1zM35 58h1v1h-1zM70 58h1v1h-1zM35 59h1v1h-1zM70 59h1v1h-1zM35 60h1v1h-1zM70 60h1v1h-1zM36 61h1v1h-1zM69 61h1v1h-1zM36 62h1v1h-1zM69 62h1v1h-1zM37 63h1v1h-1zM69 63h1v1h-1zM37 64h1v1h-1zM68 64h1v1h-1zM38 65h1v1h-1zM67 65h2v1h-2zM38 66h1v1h-1zM67 66h1v1h-1zM39 67h1v1h-1zM66 67h1v1h-1zM40 68h1v1h-1zM65 68h1v1h-1zM41 69h2v1h-2zM64 69h1v1h-1zM42 70h2v1h-2zM62 70h2v1h-2zM44 71h2v1h-2zM60 71h2v1h-2zM46 72h3v1h-3zM58 72h3v1h-3zM49 73h9v1h-9z" /><path fill="#a06ee6" d="M36 43h1v1h-1z" /><path fill="#08060d" d="M37 43h1v1h-1z" /><path fill="#0b0b0b" d="M45 43h1v1h-1z" /><path fill="#9f9f9f" d="M55 43h1v1h-1z" /><path fill="#e7e7e7" d="M57 43h1v1h-1z" /><path fill="#08040a" d="M62 43h1v1h-1z" /><path fill="#a56fe8" d="M63 43h1v1h-1z" /><path fill="#a973ee" d="M64 43h1v1h-1zM65 44h1v1h-1zM66 45h1v1h-1zM66 46h2v1h-2zM38 47h1v1h-1zM67 47h1v1h-1zM37 48h2v1h-2zM68 48h1v1h-1zM37 49h1v1h-1zM68 49h1v1h-1zM37 50h1v1h-1zM68 50h2v1h-2zM36 51h1v1h-1zM69 51h1v1h-1zM36 52h1v1h-1zM69 52h1v1h-1zM36 53h1v1h-1zM69 53h1v1h-1zM36 54h1v1h-1zM69 54h1v1h-1zM36 55h1v1h-1zM69 55h1v1h-1zM36 56h1v1h-1zM69 56h1v1h-1zM36 57h1v1h-1zM69 57h1v1h-1zM36 58h1v1h-1zM69 58h1v1h-1zM36 59h1v1h-1zM69 59h1v1h-1zM36 60h1v1h-1zM69 60h1v1h-1zM37 61h1v1h-1zM68 61h1v1h-1zM37 62h1v1h-1zM68 62h1v1h-1zM38 63h1v1h-1zM67 63h2v1h-2zM38 64h1v1h-1zM67 64h1v1h-1zM39 65h1v1h-1zM66 65h1v1h-1zM40 66h1v1h-1zM65 66h2v1h-2zM40 67h2v1h-2zM64 67h2v1h-2zM41 68h2v1h-2zM63 68h2v1h-2zM43 69h1v1h-1zM62 69h2v1h-2zM44 70h2v1h-2zM60 70h2v1h-2zM46 71h3v1h-3zM57 71h3v1h-3zM49 72h9v1h-9z" /><path fill="#a471ed" d="M70 43h1v1h-1zM34 45h1v1h-1zM33 47h1v1h-1zM73 49h1v1h-1zM32 50h1v1h-1zM32 61h1v1h-1zM72 64h1v1h-1zM71 66h1v1h-1zM69 69h1v1h-1zM68 70h1v1h-1zM67 71h1v1h-1z" /><path fill="#8f62cd" d="M37 44h1v1h-1z" /><path fill="#1f1f1f" d="M54 44h1v1h-1z" /><path fill="#f9f9f9" d="M55 44h1v1h-1zM57 85h1v1h-1zM48 89h1v1h-1zM63 90h1v1h-1z" /><path fill="#9263cc" d="M62 44h1v1h-1z" /><path fill="#aa73ee" d="M63 44h2v1h-2zM64 45h2v1h-2zM65 46h1v1h-1zM39 47h1v1h-1zM66 47h1v1h-1zM39 48h1v1h-1zM67 48h1v1h-1zM38 49h1v1h-1zM67 49h1v1h-1zM38 50h1v1h-1zM67 50h1v1h-1zM37 51h1v1h-1zM68 51h1v1h-1zM37 52h1v1h-1zM68 52h1v1h-1zM37 53h1v1h-1zM68 53h1v1h-1zM37 54h1v1h-1zM68 54h1v1h-1zM37 55h1v1h-1zM68 55h1v1h-1zM37 56h1v1h-1zM68 56h1v1h-1zM37 57h1v1h-1zM68 57h1v1h-1zM37 58h1v1h-1zM68 58h1v1h-1zM37 59h1v1h-1zM68 59h1v1h-1zM37 60h2v1h-2zM68 60h1v1h-1zM38 61h1v1h-1zM67 61h1v1h-1zM38 62h1v1h-1zM67 62h1v1h-1zM39 63h1v1h-1zM66 63h1v1h-1zM39 64h1v1h-1zM66 64h1v1h-1zM40 65h1v1h-1zM65 65h1v1h-1zM41 66h1v1h-1zM64 66h1v1h-1zM42 67h1v1h-1zM63 67h1v1h-1zM43 68h2v1h-2zM62 68h1v1h-1zM44 69h2v1h-2zM60 69h2v1h-2zM46 70h3v1h-3zM57 70h3v1h-3zM49 71h8v1h-8z" /><path fill="#6f4b9d" d="M38 45h1v1h-1z" /><path fill="#121212" d="M46 45h1v1h-1z" /><path fill="#764ea2" d="M61 45h1v1h-1z" /><path fill="#ac74ee" d="M62 45h1v1h-1zM63 46h1v1h-1zM64 47h1v1h-1zM64 48h1v1h-1zM40 49h1v1h-1zM65 49h1v1h-1zM40 50h1v1h-1zM65 50h1v1h-1zM39 51h1v1h-1zM66 51h1v1h-1zM39 52h1v1h-1zM66 52h1v1h-1zM39 53h1v1h-1zM66 53h1v1h-1zM39 54h1v1h-1zM66 54h1v1h-1zM39 55h1v1h-1zM66 55h1v1h-1zM39 56h1v1h-1zM66 56h1v1h-1zM39 57h1v1h-1zM66 57h1v1h-1zM39 58h1v1h-1zM66 58h1v1h-1zM39 59h1v1h-1zM66 59h1v1h-1zM40 60h1v1h-1zM66 60h1v1h-1zM40 61h1v1h-1zM65 61h1v1h-1zM40 62h2v1h-2zM65 62h1v1h-1zM41 63h1v1h-1zM64 63h1v1h-1zM42 64h1v1h-1zM63 64h1v1h-1zM62 65h2v1h-2zM61 66h2v1h-2zM59 67h2v1h-2zM46 68h1v1h-1zM57 68h3v1h-3zM49 69h8v1h-8z" /><path fill="#ab74ee" d="M63 45h1v1h-1zM64 46h1v1h-1zM65 47h1v1h-1zM65 48h2v1h-2zM39 49h1v1h-1zM66 49h1v1h-1zM39 50h1v1h-1zM66 50h1v1h-1zM38 51h1v1h-1zM67 51h1v1h-1zM38 52h1v1h-1zM67 52h1v1h-1zM38 53h1v1h-1zM67 53h1v1h-1zM38 54h1v1h-1zM67 54h1v1h-1zM38 55h1v1h-1zM67 55h1v1h-1zM38 56h1v1h-1zM67 56h1v1h-1zM38 57h1v1h-1zM67 57h1v1h-1zM38 58h1v1h-1zM67 58h1v1h-1zM38 59h1v1h-1zM67 59h1v1h-1zM39 60h1v1h-1zM67 60h1v1h-1zM39 61h1v1h-1zM66 61h1v1h-1zM39 62h1v1h-1zM66 62h1v1h-1zM40 63h1v1h-1zM65 63h1v1h-1zM41 64h1v1h-1zM64 64h2v1h-2zM41 65h2v1h-2zM64 65h1v1h-1zM42 66h2v1h-2zM63 66h1v1h-1zM43 67h2v1h-2zM61 67h2v1h-2zM45 68h1v1h-1zM60 68h2v1h-2zM46 69h3v1h-3zM57 69h3v1h-3zM49 70h8v1h-8z" /><path fill="#a873ee" d="M38 46h1v1h-1zM39 66h1v1h-1z" /><path fill="#4b3369" d="M39 46h1v1h-1z" /><path fill="#4d346a" d="M60 46h1v1h-1z" /><path fill="#ad75ee" d="M61 46h2v1h-2zM62 47h1v1h-1zM63 48h1v1h-1zM64 49h1v1h-1zM41 50h1v1h-1zM64 50h1v1h-1zM41 51h1v1h-1zM65 51h1v1h-1zM40 52h1v1h-1zM65 52h1v1h-1zM40 53h1v1h-1zM65 53h1v1h-1zM40 54h1v1h-1zM65 54h1v1h-1zM40 55h1v1h-1zM65 55h1v1h-1zM40 56h1v1h-1zM65 56h1v1h-1zM40 57h1v1h-1zM65 57h1v1h-1zM40 58h1v1h-1zM65 58h1v1h-1zM40 59h1v1h-1zM65 59h1v1h-1zM41 60h1v1h-1zM41 61h1v1h-1zM64 61h1v1h-1zM63 62h2v1h-2zM42 63h1v1h-1zM63 63h1v1h-1zM62 64h1v1h-1zM61 65h1v1h-1zM59 66h2v1h-2zM57 67h2v1h-2zM53 68h4v1h-4z" /><path fill="#2a1d3d" d="M40 47h1v1h-1z" /><path fill="#949494" d="M53 47h1v1h-1z" /><path fill="#717171" d="M54 47h1v1h-1z" /><path fill="#291d39" d="M59 47h1v1h-1z" /><path fill="#af76ef" d="M60 47h1v1h-1zM60 48h2v1h-2zM61 49h1v1h-1zM62 50h1v1h-1zM42 52h1v1h-1zM63 52h1v1h-1zM42 53h1v1h-1zM63 53h1v1h-1zM42 54h1v1h-1zM63 54h1v1h-1zM42 55h1v1h-1zM63 55h1v1h-1zM42 56h1v1h-1zM63 56h1v1h-1zM42 57h1v1h-1zM63 57h1v1h-1zM42 58h1v1h-1zM63 58h1v1h-1zM63 59h1v1h-1zM62 60h1v1h-1zM62 61h1v1h-1zM61 62h1v1h-1zM60 63h1v1h-1zM59 64h1v1h-1zM57 65h2v1h-2z" /><path fill="#ae75ef" d="M61 47h1v1h-1zM62 48h1v1h-1zM63 49h1v1h-1zM63 50h1v1h-1zM42 51h1v1h-1zM64 51h1v1h-1zM41 52h1v1h-1zM64 52h1v1h-1zM41 53h1v1h-1zM64 53h1v1h-1zM41 54h1v1h-1zM64 54h1v1h-1zM41 55h1v1h-1zM64 55h1v1h-1zM41 56h1v1h-1zM64 56h1v1h-1zM41 57h1v1h-1zM64 57h1v1h-1zM41 58h1v1h-1zM64 58h1v1h-1zM41 59h1v1h-1zM64 59h1v1h-1zM63 60h1v1h-1zM63 61h1v1h-1zM62 62h1v1h-1zM61 63h2v1h-2zM60 64h2v1h-2zM59 65h2v1h-2zM57 66h2v1h-2zM55 67h2v1h-2z" /><path fill="#ad74ee" d="M63 47h1v1h-1zM40 51h1v1h-1zM65 60h1v1h-1z" /><path fill="#a672ee" d="M70 47h1v1h-1zM34 50h1v1h-1zM71 61h1v1h-1zM68 67h1v1h-1zM38 68h1v1h-1zM39 69h1v1h-1z" /><path fill="#aa72eb" d="M40 48h1v1h-1z" /><path fill="#150e1d" d="M41 48h1v1h-1z" /><path fill="#838383" d="M48 48h1v1h-1z" /><path fill="#181818" d="M52 48h1v1h-1z" /><path fill="#140c1a" d="M58 48h1v1h-1z" /><path fill="#ad74eb" d="M59 48h1v1h-1z" /><path fill="#a66fe3" d="M41 49h1v1h-1z" /><path fill="#09060d" d="M42 49h1v1h-1z" /><path fill="#303030" d="M52 49h1v1h-1z" /><path fill="#0a070e" d="M57 49h1v1h-1z" /><path fill="#ab72e7" d="M58 49h1v1h-1z" /><path fill="#b177ef" d="M59 49h1v1h-1zM60 50h1v1h-1zM60 51h1v1h-1zM61 52h1v1h-1zM44 53h1v1h-1zM61 53h1v1h-1zM44 54h1v1h-1zM61 54h1v1h-1zM44 55h1v1h-1zM61 55h1v1h-1zM61 56h1v1h-1zM61 57h1v1h-1zM61 58h1v1h-1zM60 60h1v1h-1zM59 61h1v1h-1zM58 62h1v1h-1zM57 63h1v1h-1z" /><path fill="#b076ef" d="M60 49h1v1h-1zM61 50h1v1h-1zM61 51h2v1h-2zM43 52h1v1h-1zM62 52h1v1h-1zM43 53h1v1h-1zM62 53h1v1h-1zM43 54h1v1h-1zM62 54h1v1h-1zM43 55h1v1h-1zM62 55h1v1h-1zM43 56h1v1h-1zM62 56h1v1h-1zM43 57h1v1h-1zM62 57h1v1h-1zM62 58h1v1h-1zM62 59h1v1h-1zM61 60h1v1h-1zM61 61h1v1h-1zM60 62h1v1h-1zM58 63h2v1h-2zM57 64h2v1h-2z" /><path fill="#af75ef" d="M62 49h1v1h-1zM63 51h1v1h-1zM42 59h1v1h-1zM56 66h1v1h-1z" /><path fill="#a16cdc" d="M42 50h1v1h-1z" /><path fill="#050308" d="M43 50h1v1h-1zM56 50h1v1h-1zM56 79h1v1h-1z" /><path fill="#a56edc" d="M57 50h1v1h-1zM57 61h1v1h-1z" /><path fill="#b277ef" d="M58 50h2v1h-2zM59 51h1v1h-1zM60 52h1v1h-1zM60 53h1v1h-1zM45 54h1v1h-1zM60 54h1v1h-1zM60 55h1v1h-1zM60 56h1v1h-1zM60 57h1v1h-1zM60 58h1v1h-1zM60 59h1v1h-1zM59 60h1v1h-1zM58 61h1v1h-1z" /><path fill="#9c69d4" d="M43 51h1v1h-1z" /><path fill="#040205" d="M55 51h1v1h-1z" /><path fill="#9f6ad4" d="M56 51h1v1h-1z" /><path fill="#b478ef" d="M57 51h1v1h-1zM57 52h2v1h-2zM58 53h1v1h-1zM58 54h1v1h-1zM59 55h1v1h-1zM58 56h1v1h-1zM58 57h1v1h-1zM58 58h1v1h-1zM57 59h1v1h-1z" /><path fill="#b378ef" d="M58 51h1v1h-1zM59 53h1v1h-1zM59 54h1v1h-1zM59 56h1v1h-1zM59 57h1v1h-1zM59 58h1v1h-1zM58 59h1v1h-1z" /><path fill="#9663c9" d="M44 52h1v1h-1z" /><path fill="#020103" d="M45 52h1v1h-1zM46 53h1v1h-1zM72 69h1v1h-1zM45 80h1v1h-1z" /><path fill="#020203" d="M54 52h1v1h-1zM45 56h1v1h-1zM50 82h1v1h-1zM62 84h1v1h-1z" /><path fill="#9d68ce" d="M55 52h1v1h-1z" /><path fill="#b579ef" d="M56 52h1v1h-1zM57 53h1v1h-1zM57 54h1v1h-1zM57 56h1v1h-1zM57 57h1v1h-1z" /><path fill="#b377ef" d="M59 52h1v1h-1zM59 59h1v1h-1zM58 60h1v1h-1z" /><path fill="#9463c6" d="M45 53h1v1h-1z" /><path fill="#020102" d="M53 53h1v1h-1zM46 55h1v1h-1zM26 78h1v1h-1z" /><path fill="#9966c9" d="M54 53h1v1h-1z" /><path fill="#b779f0" d="M55 53h1v1h-1zM56 55h1v1h-1z" /><path fill="#b679ef" d="M56 53h1v1h-1zM57 55h1v1h-1z" /><path fill="#6f4b96" d="M46 54h1v1h-1z" /><path fill="#704a94" d="M53 54h1v1h-1z" /><path fill="#b87af0" d="M54 54h1v1h-1zM55 55h1v1h-1z" /><path fill="#b77af0" d="M55 54h1v1h-1z" /><path fill="#b679f0" d="M56 54h1v1h-1zM56 56h1v1h-1zM56 57h1v1h-1z" /><path fill="#9563c7" d="M45 55h1v1h-1z" /><path fill="#9864c5" d="M54 55h1v1h-1z" /><path fill="#b578ef" d="M58 55h1v1h-1zM57 58h1v1h-1z" /><path fill="#9e6ad6" d="M44 56h1v1h-1z" /><path fill="#030204" d="M54 56h1v1h-1z" /><path fill="#a36cd6" d="M55 56h1v1h-1z" /><path fill="#100b16" d="M44 57h1v1h-1z" /><path fill="#110c17" d="M55 57h1v1h-1z" /><path fill="#67468c" d="M43 58h1v1h-1z" /><path fill="#6b478e" d="M56 58h1v1h-1z" /><path fill="#0e0913" d="M43 59h1v1h-1z" /><path fill="#8a8a8a" d="M48 59h1v1h-1z" /><path fill="#140c19" d="M56 59h1v1h-1z" /><path fill="#b176ef" d="M61 59h1v1h-1zM60 61h1v1h-1zM59 62h1v1h-1z" /><path fill="#aa72ea" d="M42 60h1v1h-1z" /><path fill="#3a3a3a" d="M47 60h1v1h-1z" /><path fill="#3b3b3b" d="M52 60h1v1h-1z" /><path fill="#b177eb" d="M57 60h1v1h-1z" /><path fill="#ae75ee" d="M64 60h1v1h-1z" /><path fill="#9d69d6" d="M42 61h1v1h-1z" /><path fill="#878787" d="M47 61h1v1h-1zM45 91h1v1h-1z" /><path fill="#848484" d="M52 61h1v1h-1z" /><path fill="#a972e8" d="M42 62h1v1h-1z" /><path fill="#af75eb" d="M57 62h1v1h-1z" /><path fill="#08050b" d="M43 63h1v1h-1zM44 65h1v1h-1z" /><path fill="#656565" d="M48 63h1v1h-1z" /><path fill="#c2c2c2" d="M49 63h1v1h-1z" /><path fill="#bababa" d="M50 63h1v1h-1zM44 92h1v1h-1z" /><path fill="#09070d" d="M56 63h1v1h-1z" /><path fill="#ab73ee" d="M40 64h1v1h-1z" /><path fill="#4d346b" d="M43 64h1v1h-1z" /><path fill="#563974" d="M56 64h1v1h-1z" /><path fill="#a770e8" d="M43 65h1v1h-1zM47 68h1v1h-1z" /><path fill="#09060c" d="M55 65h1v1h-1z" /><path fill="#ae75eb" d="M56 65h1v1h-1z" /><path fill="#9866d1" d="M44 66h1v1h-1z" /><path fill="#08050a" d="M45 66h1v1h-1z" /><path fill="#050408" d="M54 66h1v1h-1z" /><path fill="#9f6cda" d="M55 66h1v1h-1z" /><path fill="#a56fe6" d="M45 67h1v1h-1z" /><path fill="#352449" d="M46 67h1v1h-1z" /><path fill="#342246" d="M53 67h1v1h-1z" /><path fill="#a670e5" d="M54 67h1v1h-1z" /><path fill="#9668de" d="M74 67h1v1h-1z" /><path fill="#865cc6" d="M75 67h1v1h-1z" /><path fill="#9c6ae6" d="M76 67h1v1h-1z" /><path fill="#7f56b0" d="M48 68h1v1h-1z" /><path fill="#634288" d="M49 68h1v1h-1z" /><path fill="#604184" d="M50 68h1v1h-1z" /><path fill="#7f55ae" d="M51 68h1v1h-1z" /><path fill="#a871e8" d="M52 68h1v1h-1z" /><path fill="#8e61cf" d="M72 68h1v1h-1z" /><path fill="#130c1b" d="M73 68h1v1h-1z" /><path fill="#251937" d="M77 68h1v1h-1z" /><path fill="#9668e3" d="M78 68h1v1h-1z" /><path fill="#9263d5" d="M71 69h1v1h-1z" /><path fill="#0b0711" d="M78 69h1v1h-1zM79 72h1v1h-1z" /><path fill="#9a6ae7" d="M79 69h1v1h-1z" /><path fill="#221731" d="M71 70h1v1h-1z" /><path fill="#4c3674" d="M79 70h1v1h-1z" /><path fill="#8b5fcc" d="M33 71h1v1h-1z" /><path fill="#553a7d" d="M34 71h1v1h-1z" /><path fill="#885dc7" d="M35 71h1v1h-1z" /><path fill="#61428f" d="M32 72h1v1h-1z" /><path fill="#4f3674" d="M36 72h1v1h-1z" /><path fill="#473169" d="M31 73h1v1h-1z" /><path fill="#281b3b" d="M37 73h1v1h-1z" /><path fill="#9f6de8" d="M38 73h1v1h-1z" /><path fill="#09070f" d="M71 73h1v1h-1z" /><path fill="#281c3d" d="M79 73h1v1h-1z" /><path fill="#9a6cea" d="M29 74h1v1h-1z" /><path fill="#2b1e43" d="M30 74h1v1h-1z" /><path fill="#0e0916" d="M38 74h1v1h-1z" /><path fill="#9768db" d="M39 74h1v1h-1z" /><path fill="#614391" d="M71 74h1v1h-1z" /><path fill="#825bca" d="M79 74h1v1h-1z" /><path fill="#9568e5" d="M28 75h1v1h-1z" /><path fill="#181025" d="M29 75h1v1h-1z" /><path fill="#855bc3" d="M40 75h1v1h-1z" /><path fill="#3e2a5e" d="M72 75h1v1h-1z" /><path fill="#624497" d="M78 75h1v1h-1z" /><path fill="#6d55e6" d="M0 76h1v1h-1z" /><path fill="#7156e8" d="M2 76h1v1h-1z" /><path fill="#8d62da" d="M27 76h1v1h-1z" /><path fill="#0c0812" d="M28 76h1v1h-1z" /><path fill="#674696" d="M41 76h1v1h-1z" /><path fill="#8159c3" d="M73 76h1v1h-1z" /><path fill="#372553" d="M74 76h1v1h-1z" /><path fill="#221734" d="M75 76h1v1h-1z" /><path fill="#412d62" d="M76 76h1v1h-1z" /><path fill="#8d61d7" d="M77 76h1v1h-1z" /><path fill="#785ae7" d="M99 76h1v1h-1z" /><path fill="#845cd0" d="M26 77h1v1h-1z" /><path fill="#050409" d="M27 77h1v1h-1z" /><path fill="#3d2958" d="M42 77h1v1h-1z" /><path fill="#7759e7" d="M99 77h1v1h-1z" /><path fill="#6b53e6" d="M0 78h1v1h-1z" /><path fill="#7151b6" d="M25 78h1v1h-1z" /><path fill="#1c1329" d="M43 78h1v1h-1z" /><path fill="#9c6be5" d="M44 78h1v1h-1z" /><path fill="#8b60cc" d="M54 78h1v1h-1z" /><path fill="#724ea5" d="M55 78h1v1h-1z" /><path fill="#9f6de7" d="M56 78h1v1h-1z" /><path fill="#5e4399" d="M24 79h1v1h-1z" /><path fill="#09060e" d="M44 79h1v1h-1z" /><path fill="#9063d4" d="M45 79h1v1h-1z" /><path fill="#412e61" d="M53 79h1v1h-1z" /><path fill="#875dc7" d="M57 79h1v1h-1z" /><path fill="#6953e6" d="M0 80h1v1h-1z" /><path fill="#473277" d="M23 80h1v1h-1z" /><path fill="#7753b3" d="M46 80h1v1h-1z" /><path fill="#9d6be6" d="M51 80h1v1h-1z" /><path fill="#1f142d" d="M52 80h1v1h-1z" /><path fill="#6b4a9e" d="M58 80h1v1h-1z" /><path fill="#7358e7" d="M99 80h1v1h-1z" /><path fill="#332456" d="M22 81h1v1h-1z" /><path fill="#553a7e" d="M47 81h1v1h-1z" /><path fill="#9364d8" d="M50 81h1v1h-1z" /><path fill="#0b0710" d="M51 81h1v1h-1z" /><path fill="#3f2c5e" d="M59 81h1v1h-1z" /><path fill="#865fe5" d="M20 82h1v1h-1z" /><path fill="#1b132f" d="M21 82h1v1h-1z" /><path fill="#2f2146" d="M48 82h1v1h-1z" /><path fill="#7a54b6" d="M49 82h1v1h-1z" /><path fill="#201630" d="M60 82h1v1h-1z" /><path fill="#996ae7" d="M61 82h1v1h-1z" /><path fill="#6852e7" d="M1 83h1v1h-1zM2 85h1v1h-1z" /><path fill="#7e5add" d="M19 83h1v1h-1z" /><path fill="#0c0916" d="M20 83h1v1h-1z" /><path fill="#111111" d="M54 83h1v1h-1z" /><path fill="#4d4d4d" d="M55 83h1v1h-1z" /><path fill="#030303" d="M56 83h1v1h-1zM43 92h1v1h-1z" /><path fill="#0a0711" d="M61 83h1v1h-1z" /><path fill="#8d63d7" d="M62 83h1v1h-1z" /><path fill="#7257e7" d="M98 83h1v1h-1z" /><path fill="#7455d0" d="M18 84h1v1h-1z" /><path fill="#05040a" d="M19 84h1v1h-1zM67 88h1v1h-1z" /><path fill="#383838" d="M53 84h1v1h-1z" /><path fill="#ececec" d="M56 84h1v1h-1zM49 88h1v1h-1zM62 89h1v1h-1z" /><path fill="#7753b4" d="M63 84h1v1h-1z" /><path fill="#7457e7" d="M97 84h1v1h-1z" /><path fill="#664cbd" d="M17 85h1v1h-1z" /><path fill="#020104" d="M18 85h1v1h-1z" /><path fill="#6a6a6a" d="M52 85h1v1h-1z" /><path fill="#2f2f2f" d="M58 85h1v1h-1zM64 90h1v1h-1z" /><path fill="#5a3e8a" d="M64 85h1v1h-1z" /><path fill="#7258e8" d="M97 85h1v1h-1z" /><path fill="#6952e6" d="M3 86h1v1h-1z" /><path fill="#5942a7" d="M16 86h1v1h-1z" /><path fill="#2e2148" d="M65 86h1v1h-1z" /><path fill="#9569e9" d="M66 86h1v1h-1z" /><path fill="#7357e7" d="M96 86h1v1h-1zM95 87h1v1h-1z" /><path fill="#6a53e6" d="M4 87h1v1h-1z" /><path fill="#473585" d="M15 87h1v1h-1z" /><path fill="#d1d1d1" d="M50 87h1v1h-1z" /><path fill="#9e9e9e" d="M60 87h1v1h-1z" /><path fill="#140f21" d="M66 87h1v1h-1z" /><path fill="#8e64e1" d="M67 87h1v1h-1z" /><path fill="#7558e4" d="M13 88h1v1h-1z" /><path fill="#281f50" d="M14 88h1v1h-1z" /><path fill="#cacaca" d="M61 88h1v1h-1zM67 93h1v1h-1z" /><path fill="#7e5acc" d="M68 88h1v1h-1z" /><path fill="#5c46b9" d="M12 89h1v1h-1z" /><path fill="#080611" d="M13 89h1v1h-1z" /><path fill="#2b2b2b" d="M47 89h1v1h-1z" /><path fill="#161616" d="M63 89h1v1h-1z" /><path fill="#6748a8" d="M69 89h1v1h-1z" /><path fill="#5543b5" d="M7 90h1v1h-1z" /><path fill="#5b48c3" d="M8 90h1v1h-1z" /><path fill="#5540b1" d="M9 90h1v1h-1z" /><path fill="#3b2e7c" d="M10 90h1v1h-1z" /><path fill="#0d0b1d" d="M11 90h1v1h-1z" /><path fill="#555555" d="M46 90h1v1h-1z" /><path fill="#463375" d="M70 90h1v1h-1z" /><path fill="#1e1531" d="M71 91h1v1h-1z" /><path fill="#845fdf" d="M72 91h1v1h-1z" /><path fill="#7459e7" d="M91 91h1v1h-1z" /><path fill="#9d9d9d" d="M66 92h1v1h-1z" /><path fill="#503a8c" d="M73 92h1v1h-1z" /><path fill="#0c0c0c" d="M42 93h1v1h-1z" /><path fill="#e2e2e2" d="M43 93h1v1h-1z" /><path fill="#07040d" d="M74 93h1v1h-1z" /><path fill="#3e2f70" d="M75 93h1v1h-1z" /><path fill="#7958d9" d="M76 93h1v1h-1z" /><path fill="#7659e7" d="M87 93h1v1h-1z" /><path fill="#f1f1f1" d="M68 94h1v1h-1z" /><path fill="#0f0b1e" d="M77 94h1v1h-1z" /><path fill="#31245b" d="M78 94h1v1h-1z" /><path fill="#5a42a6" d="M79 94h1v1h-1z" /><path fill="#7a5ae1" d="M80 94h1v1h-1z" /><path fill="#7d5de8" d="M81 94h1v1h-1z" /><path fill="#7a5be8" d="M83 94h1v1h-1z" /></svg>