<svg xmlns="http://www.w3.org/2000/svg" viewBox="0 0 100 100" width="1em" height="1em"><path fill="#744c9d" d="M43 0h1v1h-1zM46 0h1v1h-1zM53 0h1v1h-1zM56 0h1v1h-1zM64 2h2v1h-2zM25 6h1v1h-1zM78 9h1v1h-1zM20 10h1v1h-1zM46 10h1v1h-1zM48 10h2v1h-2zM51 10h1v1h-1zM79 10h1v1h-1zM36 12h1v1h-1zM64 13h1v1h-1zM15 14h1v1h-1zM32 14h1v1h-1zM84 14h1v1h-1zM14 15h1v1h-1zM85 15h1v1h-1zM72 17h1v1h-1zM26 18h1v1h-1zM45 18h1v1h-1zM51 18h1v1h-1zM73 18h1v1h-1zM41 19h1v1h-1zM59 19h1v1h-1zM10 20h1v1h-1zM89 20h1v1h-1zM78 22h1v1h-1zM67 23h1v1h-1zM18 25h1v1h-1zM4 29h1v1h-1zM79 29h1v1h-1zM15 30h1v1h-1zM77 31h1v1h-1zM97 36h1v1h-1zM20 38h1v1h-1zM99 43h1v1h-1zM99 44h1v1h-1zM89 51h1v1h-1zM89 54h1v1h-1zM99 55h1v1h-1zM0 56h1v1h-1zM99 56h1v1h-1zM78 63h1v1h-1zM87 63h1v1h-1zM97 63h1v1h-1zM2 64h1v1h-1zM2 65h1v1h-1zM15 69h1v1h-1zM4 70h1v1h-1zM95 70h1v1h-1zM7 75h1v1h-1zM10 79h1v1h-1zM89 79h1v1h-1zM24 80h1v1h-1zM73 81h1v1h-1zM29 83h1v1h-1zM14 84h1v1h-1zM15 85h1v1h-1zM64 86h1v1h-1zM37 87h1v1h-1zM20 89h1v1h-1zM79 89h1v1h-1zM29 95h1v1h-1zM44 99h2v1h-2zM55 99h2v1h-2z" /><path fill="#744b9d" d="M44 0h2v1h-2zM54 0h1v1h-1zM67 3h1v1h-1zM72 5h1v1h-1zM77 8h1v1h-1zM37 12h1v1h-1zM65 13h1v1h-1zM71 16h1v1h-1zM23 20h1v1h-1zM9 21h1v1h-1zM91 22h1v1h-1zM19 24h1v1h-1zM29 25h1v1h-1zM70 25h1v1h-1zM6 26h1v1h-1zM28 26h1v1h-1zM26 28h1v1h-1zM74 29h1v1h-1zM4 30h1v1h-1zM95 30h1v1h-1zM75 31h2v1h-2zM97 34h1v1h-1zM12 42h1v1h-1zM13 43h1v1h-1zM0 44h1v1h-1zM0 45h1v1h-1zM15 45h1v1h-1zM16 46h1v1h-1zM17 47h1v1h-1zM18 48h1v1h-1zM19 49h1v1h-1zM21 51h1v1h-1zM22 52h1v1h-1zM0 55h1v1h-1zM29 59h1v1h-1zM32 62h1v1h-1zM3 67h1v1h-1zM37 67h1v1h-1zM76 67h1v1h-1zM96 67h1v1h-1zM75 68h1v1h-1zM4 69h1v1h-1zM40 70h1v1h-1zM5 72h1v1h-1zM19 75h1v1h-1zM45 75h1v1h-1zM68 75h1v1h-1zM8 77h1v1h-1zM21 77h1v1h-1zM91 77h1v1h-1zM22 78h1v1h-1zM88 81h1v1h-1zM28 83h1v1h-1zM62 87h1v1h-1zM59 88h1v1h-1zM81 88h1v1h-1zM22 91h1v1h-1zM77 91h1v1h-1zM24 92h1v1h-1zM72 94h1v1h-1zM67 96h1v1h-1zM34 97h1v1h-1z" /><path fill="#744c9e" d="M47 0h1v1h-1zM52 0h1v1h-1zM38 1h1v1h-1zM40 1h21v1h-21zM36 2h28v1h-28zM33 3h34v1h-34zM31 4h40v1h-40zM29 5h43v1h-43zM27 6h46v1h-46zM25 7h51v1h-51zM23 8h54v1h-54zM22 9h56v1h-56zM21 10h24v1h-24zM54 10h25v1h-25zM19 11h21v1h-21zM59 11h22v1h-22zM17 12h19v1h-19zM62 12h20v1h-20zM17 13h17v1h-17zM66 13h17v1h-17zM16 14h16v1h-16zM67 14h17v1h-17zM15 15h16v1h-16zM70 15h15v1h-15zM14 16h14v1h-14zM72 16h14v1h-14zM12 17h15v1h-15zM73 17h14v1h-14zM12 18h14v1h-14zM48 18h3v1h-3zM74 18h15v1h-15zM11 19h13v1h-13zM42 19h17v1h-17zM76 19h13v1h-13zM11 20h12v1h-12zM38 20h24v1h-24zM77 20h12v1h-12zM10 21h13v1h-13zM36 21h27v1h-27zM78 21h12v1h-12zM9 22h12v1h-12zM35 22h30v1h-30zM79 22h12v1h-12zM8 23h12v1h-12zM33 23h34v1h-34zM80 23h12v1h-12zM8 24h11v1h-11zM32 24h37v1h-37zM81 24h11v1h-11zM7 25h11v1h-11zM30 25h40v1h-40zM81 25h12v1h-12zM7 26h11v1h-11zM29 26h42v1h-42zM82 26h11v1h-11zM6 27h11v1h-11zM27 27h45v1h-45zM81 27h13v1h-13zM5 28h11v1h-11zM27 28h46v1h-46zM81 28h13v1h-13zM5 29h11v1h-11zM26 29h48v1h-48zM80 29h15v1h-15zM5 30h10v1h-10zM25 30h50v1h-50zM78 30h17v1h-17zM4 31h11v1h-11zM24 31h51v1h-51zM78 31h18v1h-18zM4 32h10v1h-10zM23 32h74v1h-74zM3 33h11v1h-11zM23 33h74v1h-74zM3 34h10v1h-10zM23 34h74v1h-74zM3 35h10v1h-10zM22 35h75v1h-75zM2 36h11v1h-11zM22 36h75v1h-75zM2 37h10v1h-10zM21 37h77v1h-77zM2 38h10v1h-10zM21 38h77v1h-77zM2 39h10v1h-10zM20 39h78v1h-78zM1 40h10v1h-10zM21 40h78v1h-78zM1 41h10v1h-10zM22 41h77v1h-77zM1 42h11v1h-11zM23 42h76v1h-76zM1 43h12v1h-12zM24 43h75v1h-75zM1 44h13v1h-13zM25 44h74v1h-74zM1 45h14v1h-14zM26 45h73v1h-73zM0 46h16v1h-16zM27 46h72v1h-72zM0 47h17v1h-17zM28 47h71v1h-71zM0 48h18v1h-18zM29 48h70v1h-70zM1 49h18v1h-18zM30 49h70v1h-70zM1 50h9v1h-9zM12 50h8v1h-8zM32 50h32v1h-32zM90 50h10v1h-10zM0 51h10v1h-10zM13 51h8v1h-8zM32 51h32v1h-32zM90 51h9v1h-9zM0 52h10v1h-10zM14 52h8v1h-8zM33 52h31v1h-31zM90 52h9v1h-9zM0 53h10v1h-10zM15 53h8v1h-8zM35 53h29v1h-29zM90 53h9v1h-9zM1 54h9v1h-9zM16 54h8v1h-8zM36 54h28v1h-28zM90 54h9v1h-9zM1 55h10v1h-10zM17 55h8v1h-8zM37 55h27v1h-27zM89 55h10v1h-10zM1 56h10v1h-10zM18 56h8v1h-8zM38 56h26v1h-26zM89 56h10v1h-10zM1 57h10v1h-10zM19 57h8v1h-8zM39 57h25v1h-25zM89 57h10v1h-10zM1 58h11v1h-11zM20 58h8v1h-8zM40 58h41v1h-41zM89 58h10v1h-10zM1 59h10v1h-10zM21 59h8v1h-8zM41 59h40v1h-40zM89 59h10v1h-10zM1 60h11v1h-11zM22 60h8v1h-8zM42 60h38v1h-38zM88 60h10v1h-10zM2 61h10v1h-10zM23 61h8v1h-8zM43 61h36v1h-36zM88 61h10v1h-10zM2 62h11v1h-11zM24 62h8v1h-8zM44 62h35v1h-35zM88 62h10v1h-10zM2 63h11v1h-11zM25 63h8v1h-8zM45 63h33v1h-33zM88 63h9v1h-9zM3 64h10v1h-10zM26 64h8v1h-8zM46 64h32v1h-32zM87 64h10v1h-10zM3 65h11v1h-11zM27 65h8v1h-8zM47 65h30v1h-30zM87 65h10v1h-10zM3 66h11v1h-11zM28 66h8v1h-8zM48 66h29v1h-29zM86 66h11v1h-11zM4 67h10v1h-10zM29 67h8v1h-8zM49 67h27v1h-27zM85 67h11v1h-11zM4 68h11v1h-11zM30 68h8v1h-8zM50 68h25v1h-25zM85 68h11v1h-11zM5 69h10v1h-10zM31 69h8v1h-8zM51 69h24v1h-24zM85 69h10v1h-10zM5 70h11v1h-11zM32 70h8v1h-8zM52 70h22v1h-22zM84 70h11v1h-11zM6 71h10v1h-10zM33 71h8v1h-8zM53 71h20v1h-20zM84 71h11v1h-11zM6 72h12v1h-12zM34 72h8v1h-8zM54 72h19v1h-19zM83 72h12v1h-12zM7 73h12v1h-12zM35 73h8v1h-8zM55 73h16v1h-16zM82 73h11v1h-11zM7 74h12v1h-12zM36 74h8v1h-8zM56 74h14v1h-14zM81 74h12v1h-12zM8 75h11v1h-11zM37 75h8v1h-8zM57 75h11v1h-11zM81 75h11v1h-11zM8 76h12v1h-12zM38 76h8v1h-8zM58 76h9v1h-9zM80 76h12v1h-12zM9 77h12v1h-12zM39 77h8v1h-8zM59 77h6v1h-6zM79 77h12v1h-12zM10 78h12v1h-12zM40 78h8v1h-8zM60 78h3v1h-3zM78 78h13v1h-13zM11 79h13v1h-13zM41 79h8v1h-8zM77 79h12v1h-12zM11 80h13v1h-13zM42 80h8v1h-8zM75 80h14v1h-14zM12 81h14v1h-14zM43 81h8v1h-8zM74 81h14v1h-14zM13 82h15v1h-15zM44 82h8v1h-8zM73 82h14v1h-14zM14 83h14v1h-14zM45 83h8v1h-8zM71 83h15v1h-15zM15 84h15v1h-15zM46 84h8v1h-8zM70 84h15v1h-15zM16 85h17v1h-17zM47 85h8v1h-8zM68 85h16v1h-16zM17 86h17v1h-17zM35 86h1v1h-1zM48 86h8v1h-8zM66 86h17v1h-17zM18 87h19v1h-19zM49 87h8v1h-8zM63 87h19v1h-19zM18 88h22v1h-22zM50 88h8v1h-8zM60 88h21v1h-21zM21 89h25v1h-25zM47 89h1v1h-1zM50 89h29v1h-29zM21 90h57v1h-57zM23 91h54v1h-54zM25 92h51v1h-51zM27 93h46v1h-46zM29 94h42v1h-42zM31 95h40v1h-40zM32 96h35v1h-35zM36 97h28v1h-28zM38 98h23v1h-23zM46 99h3v1h-3zM51 99h3v1h-3z" /><path fill="#734c9d" d="M48 0h1v1h-1zM51 0h1v1h-1zM61 1h1v1h-1zM35 2h1v1h-1zM28 5h1v1h-1zM21 9h1v1h-1zM40 11h1v1h-1zM57 11h1v1h-1zM82 12h1v1h-1zM13 16h1v1h-1zM87 17h1v1h-1zM44 18h1v1h-1zM10 19h1v1h-1zM75 19h1v1h-1zM37 20h1v1h-1zM90 21h1v1h-1zM92 24h1v1h-1zM71 26h1v1h-1zM5 27h1v1h-1zM94 27h1v1h-1zM73 28h1v1h-1zM25 29h1v1h-1zM2 35h1v1h-1zM21 35h1v1h-1zM21 36h1v1h-1zM12 51h1v1h-1zM10 52h1v1h-1zM13 52h1v1h-1zM89 53h1v1h-1zM20 59h1v1h-1zM23 62h1v1h-1zM77 65h1v1h-1zM28 67h1v1h-1zM31 70h1v1h-1zM73 71h1v1h-1zM36 75h1v1h-1zM92 75h1v1h-1zM9 78h1v1h-1zM26 81h1v1h-1zM12 82h1v1h-1zM86 83h1v1h-1zM67 85h1v1h-1zM16 86h1v1h-1zM34 86h1v1h-1zM83 86h1v1h-1zM17 87h1v1h-1zM40 88h1v1h-1zM46 89h1v1h-1zM28 94h1v1h-1zM61 98h1v1h-1z" /><path fill="#734b9d" d="M49 0h2v1h-2zM52 10h1v1h-1zM41 11h1v1h-1zM27 17h1v1h-1zM76 20h1v1h-1zM21 22h1v1h-1zM32 23h1v1h-1zM31 24h1v1h-1zM80 24h1v1h-1zM17 27h1v1h-1zM16 28h1v1h-1zM94 28h1v1h-1zM1 39h1v1h-1zM14 44h1v1h-1zM99 45h1v1h-1zM99 46h1v1h-1zM0 49h1v1h-1zM0 50h1v1h-1zM11 50h1v1h-1zM20 50h1v1h-1zM10 51h1v1h-1zM10 53h1v1h-1zM14 53h1v1h-1zM23 53h1v1h-1zM99 53h1v1h-1zM15 54h1v1h-1zM24 54h1v1h-1zM99 54h1v1h-1zM16 55h1v1h-1zM25 55h1v1h-1zM17 56h1v1h-1zM26 56h1v1h-1zM18 57h1v1h-1zM27 57h1v1h-1zM19 58h1v1h-1zM28 58h1v1h-1zM11 59h1v1h-1zM40 59h1v1h-1zM21 60h1v1h-1zM30 60h1v1h-1zM22 61h1v1h-1zM31 61h1v1h-1zM43 62h1v1h-1zM87 62h1v1h-1zM24 63h1v1h-1zM33 63h1v1h-1zM25 64h1v1h-1zM34 64h1v1h-1zM78 64h1v1h-1zM26 65h1v1h-1zM35 65h1v1h-1zM27 66h1v1h-1zM36 66h1v1h-1zM14 67h1v1h-1zM48 67h1v1h-1zM29 68h1v1h-1zM38 68h1v1h-1zM30 69h1v1h-1zM39 69h1v1h-1zM51 70h1v1h-1zM5 71h1v1h-1zM32 71h1v1h-1zM41 71h1v1h-1zM33 72h1v1h-1zM42 72h1v1h-1zM82 72h1v1h-1zM34 73h1v1h-1zM43 73h1v1h-1zM71 73h1v1h-1zM35 74h1v1h-1zM44 74h1v1h-1zM93 74h1v1h-1zM56 75h1v1h-1zM20 76h1v1h-1zM37 76h1v1h-1zM46 76h1v1h-1zM67 76h1v1h-1zM79 76h1v1h-1zM38 77h1v1h-1zM47 77h1v1h-1zM65 77h1v1h-1zM78 77h1v1h-1zM39 78h1v1h-1zM48 78h1v1h-1zM40 79h1v1h-1zM49 79h1v1h-1zM61 79h1v1h-1zM41 80h1v1h-1zM50 80h1v1h-1zM89 80h1v1h-1zM42 81h1v1h-1zM51 81h1v1h-1zM43 82h1v1h-1zM52 82h1v1h-1zM44 83h1v1h-1zM53 83h1v1h-1zM45 84h1v1h-1zM54 84h1v1h-1zM46 85h1v1h-1zM55 85h1v1h-1zM47 86h1v1h-1zM56 86h1v1h-1zM48 87h1v1h-1zM57 87h1v1h-1zM49 88h1v1h-1zM48 89h1v1h-1zM80 89h1v1h-1zM74 93h1v1h-1zM71 94h1v1h-1zM49 99h2v1h-2zM54 99h1v1h-1z" /><path fill="#734c9e" d="M55 0h1v1h-1zM26 6h1v1h-1zM73 6h1v1h-1zM24 7h1v1h-1zM22 8h1v1h-1zM53 10h1v1h-1zM80 10h1v1h-1zM81 11h1v1h-1zM69 15h1v1h-1zM28 16h1v1h-1zM86 16h1v1h-1zM46 18h1v1h-1zM89 19h1v1h-1zM35 21h1v1h-1zM64 21h1v1h-1zM8 22h1v1h-1zM65 22h1v1h-1zM79 23h1v1h-1zM93 25h1v1h-1zM81 26h1v1h-1zM93 26h1v1h-1zM97 35h1v1h-1zM20 37h1v1h-1zM0 43h1v1h-1zM10 50h1v1h-1zM10 54h1v1h-1zM79 61h1v1h-1zM13 64h1v1h-1zM97 65h1v1h-1zM84 69h1v1h-1zM16 71h1v1h-1zM83 71h1v1h-1zM6 73h1v1h-1zM93 73h1v1h-1zM6 74h1v1h-1zM64 78h1v1h-1zM10 80h1v1h-1zM11 81h1v1h-1zM72 82h1v1h-1zM70 83h1v1h-1zM85 84h1v1h-1zM84 85h1v1h-1zM41 88h1v1h-1zM19 89h1v1h-1zM78 90h1v1h-1zM25 93h2v1h-2zM73 93h1v1h-1zM35 97h1v1h-1zM65 97h1v1h-1z" /><path fill="#744b9e" d="M39 1h1v1h-1zM29 4h1v1h-1zM27 5h1v1h-1zM74 6h1v1h-1zM19 10h1v1h-1zM50 10h1v1h-1zM16 13h1v1h-1zM34 13h1v1h-1zM83 13h1v1h-1zM29 16h1v1h-1zM70 16h1v1h-1zM53 18h2v1h-2zM40 19h1v1h-1zM63 21h1v1h-1zM77 21h1v1h-1zM34 22h1v1h-1zM6 25h1v1h-1zM18 26h1v1h-1zM95 29h1v1h-1zM22 34h1v1h-1zM98 38h1v1h-1zM98 39h1v1h-1zM11 40h1v1h-1zM11 41h1v1h-1zM99 47h1v1h-1zM99 48h1v1h-1zM99 51h1v1h-1zM99 52h1v1h-1zM88 59h1v1h-1zM98 60h1v1h-1zM98 61h1v1h-1zM86 64h1v1h-1zM97 64h1v1h-1zM86 65h1v1h-1zM16 70h1v1h-1zM74 70h1v1h-1zM83 70h1v1h-1zM81 73h1v1h-1zM63 78h1v1h-1zM76 79h1v1h-1zM87 82h1v1h-1zM13 83h1v1h-1zM69 84h1v1h-1zM65 86h1v1h-1zM82 87h1v1h-1zM58 88h1v1h-1zM49 89h1v1h-1zM27 94h1v1h-1zM64 97h1v1h-1z" /><path fill="#734b9e" d="M34 2h1v1h-1zM32 3h1v1h-1zM30 4h1v1h-1zM45 10h1v1h-1zM47 10h1v1h-1zM18 11h1v1h-1zM58 11h1v1h-1zM61 12h1v1h-1zM35 13h1v1h-1zM11 18h1v1h-1zM47 18h1v1h-1zM52 18h1v1h-1zM55 18h1v1h-1zM24 19h1v1h-1zM20 23h1v1h-1zM7 24h1v1h-1zM72 27h1v1h-1zM80 28h1v1h-1zM16 29h1v1h-1zM3 32h1v1h-1zM14 32h1v1h-1zM2 34h1v1h-1zM13 34h1v1h-1zM13 35h1v1h-1zM12 37h1v1h-1zM1 38h1v1h-1zM31 50h1v1h-1zM89 50h1v1h-1zM89 52h1v1h-1zM34 53h1v1h-1zM0 54h1v1h-1zM35 54h1v1h-1zM36 55h1v1h-1zM37 56h1v1h-1zM38 57h1v1h-1zM39 58h1v1h-1zM88 58h1v1h-1zM41 60h1v1h-1zM1 61h1v1h-1zM42 61h1v1h-1zM44 63h1v1h-1zM45 64h1v1h-1zM46 65h1v1h-1zM47 66h1v1h-1zM49 68h1v1h-1zM50 69h1v1h-1zM95 69h1v1h-1zM52 71h1v1h-1zM53 72h1v1h-1zM54 73h1v1h-1zM55 74h1v1h-1zM70 74h1v1h-1zM80 75h1v1h-1zM57 76h1v1h-1zM58 77h1v1h-1zM59 78h1v1h-1zM77 78h1v1h-1zM60 79h1v1h-1zM30 84h1v1h-1zM30 95h1v1h-1zM43 99h1v1h-1z" /></svg>