<svg xmlns="http://www.w3.org/2000/svg" viewBox="0 0 100 100" width="1em" height="1em"><path fill="#e24329" d="M17 4h1v1h-1zM19 4h1v1h-1zM17 5h3v1h-3zM80 5h3v1h-3zM17 6h3v1h-3zM80 6h3v1h-3zM17 7h4v1h-4zM79 7h4v1h-4zM16 8h5v1h-5zM78 8h6v1h-6zM16 9h5v1h-5zM79 9h5v1h-5zM16 10h6v1h-6zM78 10h6v1h-6zM15 11h7v1h-7zM78 11h7v1h-7zM15 12h7v1h-7zM78 12h7v1h-7zM15 13h8v1h-8zM77 13h8v1h-8zM15 14h8v1h-8zM77 14h8v1h-8zM14 15h10v1h-10zM77 15h9v1h-9zM14 16h10v1h-10zM76 16h10v1h-10zM14 17h10v1h-10zM76 17h10v1h-10zM13 18h11v1h-11zM76 18h11v1h-11zM13 19h11v1h-11zM76 19h11v1h-11zM13 20h12v1h-12zM75 20h12v1h-12zM12 21h13v1h-13zM75 21h13v1h-13zM12 22h13v1h-13zM75 22h13v1h-13zM12 23h14v1h-14zM74 23h14v1h-14zM11 24h16v1h-16zM74 24h15v1h-15zM11 25h15v1h-15zM74 25h15v1h-15zM11 26h16v1h-16zM73 26h17v1h-17zM10 27h17v1h-17zM73 27h17v1h-17zM10 28h17v1h-17zM72 28h18v1h-18zM10 29h18v1h-18zM72 29h18v1h-18zM9 30h19v1h-19zM72 30h19v1h-19zM9 31h19v1h-19zM72 31h19v1h-19zM9 32h20v1h-20zM71 32h20v1h-20zM8 33h21v1h-21zM71 33h21v1h-21zM8 34h21v1h-21zM71 34h21v1h-21zM8 35h22v1h-22zM70 35h22v1h-22zM7 36h23v1h-23zM70 36h23v1h-23zM7 37h23v1h-23zM70 37h23v1h-23zM7 38h24v1h-24zM69 38h24v1h-24zM32 39h36v1h-36zM33 40h34v1h-34zM33 41h34v1h-34zM33 42h34v1h-34zM34 43h32v1h-32zM34 44h32v1h-32zM34 45h32v1h-32zM35 46h31v1h-31zM35 47h30v1h-30zM35 48h30v1h-30zM35 49h30v1h-30zM36 50h28v1h-28zM36 51h28v1h-28zM36 52h28v1h-28zM37 53h26v1h-26zM37 54h26v1h-26zM37 55h26v1h-26zM38 56h24v1h-24zM38 57h24v1h-24zM38 58h24v1h-24zM39 59h22v1h-22zM39 60h22v1h-22zM39 61h22v1h-22zM40 62h20v1h-20zM40 63h20v1h-20zM40 64h20v1h-20zM41 65h18v1h-18zM41 66h18v1h-18zM41 67h18v1h-18zM42 68h16v1h-16zM42 69h16v1h-16zM42 70h16v1h-16zM43 71h14v1h-14zM43 72h14v1h-14zM43 73h14v1h-14zM44 74h12v1h-12zM44 75h12v1h-12zM44 76h12v1h-12zM45 77h10v1h-10zM45 78h10v1h-10zM45 79h10v1h-10zM46 80h8v1h-8zM46 81h8v1h-8zM46 82h8v1h-8zM47 83h6v1h-6zM47 84h6v1h-6zM47 85h6v1h-6zM48 86h5v1h-5zM48 87h4v1h-4zM48 88h4v1h-4zM48 89h4v1h-4zM49 90h2v1h-2zM49 91h2v1h-2zM49 92h2v1h-2z" /><path fill="#e14228" d="M18 4h1v1h-1zM81 4h1v1h-1zM20 6h1v1h-1zM83 6h1v1h-1zM21 9h1v1h-1zM14 13h1v1h-1zM11 22h1v1h-1zM28 31h1v1h-1zM71 31h1v1h-1zM7 34h1v1h-1zM69 37h1v1h-1z" /><path fill="#e14229" d="M80 4h1v1h-1zM77 11h1v1h-1zM13 17h1v1h-1zM86 17h1v1h-1zM24 18h1v1h-1zM87 20h1v1h-1zM25 21h1v1h-1zM25 22h1v1h-1zM74 22h1v1h-1zM28 30h1v1h-1zM7 35h1v1h-1zM92 35h1v1h-1zM93 37h1v1h-1zM67 40h1v1h-1zM33 43h1v1h-1zM66 43h1v1h-1zM54 80h1v1h-1zM46 83h1v1h-1z" /><path fill="#e24229" d="M82 4h1v1h-1zM21 8h1v1h-1zM13 16h1v1h-1zM27 27h1v1h-1zM27 28h1v1h-1zM70 34h1v1h-1zM30 36h1v1h-1zM69 36h1v1h-1zM6 38h1v1h-1z" /><path fill="#e14328" d="M20 5h1v1h-1zM79 5h1v1h-1zM84 10h1v1h-1zM85 13h1v1h-1zM75 18h1v1h-1zM12 20h1v1h-1zM74 21h1v1h-1zM88 22h1v1h-1zM26 25h1v1h-1zM73 25h1v1h-1zM89 25h1v1h-1zM72 27h1v1h-1zM90 29h1v1h-1zM8 31h1v1h-1zM29 34h1v1h-1zM92 34h1v1h-1z" /><path fill="#e24328" d="M16 6h1v1h-1zM79 6h1v1h-1zM22 12h1v1h-1zM77 12h1v1h-1zM12 19h1v1h-1zM88 23h1v1h-1zM9 28h1v1h-1zM91 31h1v1h-1zM8 32h1v1h-1zM91 32h1v1h-1zM30 37h1v1h-1zM93 38h1v1h-1z" /><path fill="#e24228" d="M16 7h1v1h-1zM76 15h1v1h-1zM86 16h1v1h-1zM87 19h1v1h-1zM11 23h1v1h-1zM73 24h1v1h-1zM10 25h1v1h-1zM90 28h1v1h-1zM70 33h1v1h-1zM6 37h1v1h-1z" /><path fill="#e14329" d="M83 7h1v1h-1zM78 9h1v1h-1zM15 10h1v1h-1zM22 11h1v1h-1zM14 14h1v1h-1zM85 14h1v1h-1zM24 19h1v1h-1zM75 19h1v1h-1zM10 26h1v1h-1zM9 29h1v1h-1zM71 30h1v1h-1zM29 33h1v1h-1zM34 46h1v1h-1zM53 83h1v1h-1zM47 86h1v1h-1z" /><path fill="#ec5227" d="M6 39h1v1h-1zM93 39h1v1h-1z" /><path fill="#e95227" d="M7 39h24v1h-24zM69 39h24v1h-24z" /><path fill="#ee5728" d="M31 39h1v1h-1zM68 39h1v1h-1z" /><path fill="#fba225" d="M5 40h1v1h-1zM94 40h1v1h-1zM96 46h1v1h-1zM11 47h1v1h-1zM0 58h1v1h-1zM77 61h1v1h-1zM4 62h1v1h-1zM74 65h1v1h-1zM9 66h1v1h-1zM87 68h1v1h-1zM28 69h1v1h-1zM15 70h1v1h-1zM20 74h1v1h-1zM36 79h1v1h-1zM43 88h1v1h-1zM56 88h1v1h-1zM59 88h1v1h-1z" /><path fill="#fb9826" d="M6 40h1v1h-1z" /><path fill="#fc6d26" d="M7 40h24v1h-24zM69 40h24v1h-24zM8 41h24v1h-24zM68 41h24v1h-24zM9 42h23v1h-23zM68 42h23v1h-23zM10 43h22v1h-22zM68 43h22v1h-22zM11 44h22v1h-22zM67 44h22v1h-22zM11 45h22v1h-22zM67 45h22v1h-22zM12 46h21v1h-21zM67 46h21v1h-21zM13 47h21v1h-21zM66 47h21v1h-21zM14 48h20v1h-20zM66 48h20v1h-20zM14 49h20v1h-20zM66 49h20v1h-20zM15 50h20v1h-20zM65 50h20v1h-20zM16 51h19v1h-19zM65 51h19v1h-19zM17 52h18v1h-18zM65 52h18v1h-18zM18 53h18v1h-18zM64 53h18v1h-18zM18 54h18v1h-18zM64 54h18v1h-18zM19 55h17v1h-17zM64 55h17v1h-17zM20 56h17v1h-17zM64 56h16v1h-16zM21 57h16v1h-16zM63 57h16v1h-16zM21 58h16v1h-16zM63 58h16v1h-16zM22 59h15v1h-15zM63 59h15v1h-15zM23 60h15v1h-15zM62 60h15v1h-15zM24 61h14v1h-14zM62 61h14v1h-14zM25 62h13v1h-13zM62 62h13v1h-13zM25 63h14v1h-14zM61 63h14v1h-14zM26 64h13v1h-13zM61 64h13v1h-13zM27 65h12v1h-12zM61 65h12v1h-12zM28 66h12v1h-12zM60 66h12v1h-12zM29 67h11v1h-11zM60 67h11v1h-11zM29 68h11v1h-11zM60 68h11v1h-11zM30 69h11v1h-11zM59 69h11v1h-11zM31 70h10v1h-10zM59 70h10v1h-10zM32 71h9v1h-9zM59 71h9v1h-9zM32 72h10v1h-10zM58 72h10v1h-10zM33 73h9v1h-9zM58 73h9v1h-9zM34 74h8v1h-8zM58 74h8v1h-8zM35 75h8v1h-8zM57 75h8v1h-8zM36 76h7v1h-7zM57 76h7v1h-7zM36 77h7v1h-7zM57 77h7v1h-7zM37 78h7v1h-7zM56 78h7v1h-7zM38 79h6v1h-6zM56 79h6v1h-6zM39 80h5v1h-5zM56 80h5v1h-5zM39 81h6v1h-6zM55 81h6v1h-6zM40 82h5v1h-5zM55 82h5v1h-5zM41 83h4v1h-4zM55 83h4v1h-4zM42 84h4v1h-4zM54 84h4v1h-4zM43 85h3v1h-3zM54 85h3v1h-3zM43 86h3v1h-3zM54 86h3v1h-3zM44 87h3v1h-3zM53 87h3v1h-3zM45 88h2v1h-2zM53 88h2v1h-2zM46 89h1v1h-1zM53 89h1v1h-1zM46 90h2v1h-2zM52 90h2v1h-2zM47 91h1v1h-1zM52 91h1v1h-1z" /><path fill="#fa6b25" d="M31 40h1v1h-1zM65 49h1v1h-1zM44 80h1v1h-1zM52 89h1v1h-1z" /><path fill="#e24428" d="M32 40h1v1h-1zM45 80h1v1h-1z" /><path fill="#fb6d25" d="M68 40h1v1h-1zM32 43h1v1h-1zM75 62h1v1h-1zM39 65h1v1h-1zM55 80h1v1h-1z" /><path fill="#fc9726" d="M93 40h1v1h-1z" /><path fill="#fba326" d="M5 41h1v1h-1zM7 42h1v1h-1zM4 44h1v1h-1zM3 46h1v1h-1zM10 46h1v1h-1zM3 47h1v1h-1zM85 51h1v1h-1zM99 58h1v1h-1zM99 59h1v1h-1zM2 61h1v1h-1zM93 64h1v1h-1zM11 67h1v1h-1zM88 67h1v1h-1zM13 69h1v1h-1zM81 72h2v1h-2zM22 75h1v1h-1zM77 75h1v1h-1zM76 76h1v1h-1zM24 77h1v1h-1zM35 78h1v1h-1zM31 82h1v1h-1zM39 83h1v1h-1zM60 83h1v1h-1zM66 83h1v1h-1zM35 85h1v1h-1zM42 87h1v1h-1zM58 89h1v1h-1zM46 92h1v1h-1zM46 93h1v1h-1z" /><path fill="#fca326" d="M6 41h1v1h-1zM93 41h1v1h-1zM5 42h2v1h-2zM93 42h2v1h-2zM5 43h3v1h-3zM92 43h3v1h-3zM5 44h4v1h-4zM91 44h4v1h-4zM4 45h6v1h-6zM90 45h6v1h-6zM4 46h6v1h-6zM90 46h6v1h-6zM4 47h7v1h-7zM89 47h7v1h-7zM3 48h9v1h-9zM88 48h9v1h-9zM3 49h10v1h-10zM87 49h10v1h-10zM3 50h11v1h-11zM86 50h12v1h-12zM2 51h12v1h-12zM86 51h12v1h-12zM2 52h13v1h-13zM85 52h13v1h-13zM2 53h14v1h-14zM84 53h15v1h-15zM2 54h15v1h-15zM83 54h15v1h-15zM1 55h16v1h-16zM83 55h16v1h-16zM1 56h17v1h-17zM82 56h17v1h-17zM1 57h18v1h-18zM81 57h18v1h-18zM1 58h19v1h-19zM80 58h19v1h-19zM1 59h20v1h-20zM79 59h20v1h-20zM2 60h19v1h-19zM79 60h19v1h-19zM3 61h19v1h-19zM78 61h19v1h-19zM5 62h18v1h-18zM77 62h18v1h-18zM6 63h18v1h-18zM76 63h18v1h-18zM8 64h16v1h-16zM76 64h16v1h-16zM9 65h16v1h-16zM75 65h16v1h-16zM10 66h16v1h-16zM74 66h16v1h-16zM12 67h15v1h-15zM73 67h15v1h-15zM13 68h15v1h-15zM72 68h15v1h-15zM14 69h14v1h-14zM72 69h14v1h-14zM16 70h13v1h-13zM71 70h13v1h-13zM17 71h13v1h-13zM70 71h14v1h-14zM19 72h12v1h-12zM69 72h12v1h-12zM20 73h12v1h-12zM68 73h12v1h-12zM21 74h11v1h-11zM68 74h11v1h-11zM23 75h10v1h-10zM67 75h10v1h-10zM24 76h10v1h-10zM66 76h10v1h-10zM26 77h9v1h-9zM65 77h10v1h-10zM27 78h8v1h-8zM65 78h8v1h-8zM28 79h8v1h-8zM64 79h8v1h-8zM30 80h7v1h-7zM63 80h7v1h-7zM31 81h7v1h-7zM62 81h7v1h-7zM32 82h7v1h-7zM61 82h7v1h-7zM34 83h5v1h-5zM61 83h5v1h-5zM35 84h5v1h-5zM60 84h5v1h-5zM37 85h4v1h-4zM59 85h5v1h-5zM38 86h4v1h-4zM58 86h4v1h-4zM39 87h3v1h-3zM58 87h3v1h-3zM41 88h2v1h-2zM57 88h2v1h-2zM42 89h2v1h-2zM56 89h2v1h-2zM43 90h2v1h-2zM55 90h3v1h-3zM45 91h1v1h-1zM54 91h1v1h-1zM54 92h1v1h-1z" /><path fill="#fc8826" d="M7 41h1v1h-1zM46 91h1v1h-1z" /><path fill="#ea4e28" d="M32 41h1v1h-1zM45 81h1v1h-1z" /><path fill="#e85028" d="M67 41h1v1h-1zM54 81h1v1h-1z" /><path fill="#fc8625" d="M92 41h1v1h-1z" /><path fill="#fba226" d="M94 41h1v1h-1zM92 42h1v1h-1zM8 43h1v1h-1zM95 44h1v1h-1zM89 46h1v1h-1zM96 47h1v1h-1zM84 52h1v1h-1zM1 54h1v1h-1zM98 54h1v1h-1zM17 55h1v1h-1zM82 55h1v1h-1zM0 57h1v1h-1zM99 57h1v1h-1zM0 59h1v1h-1zM95 62h1v1h-1zM7 64h1v1h-1zM24 64h1v1h-1zM75 64h1v1h-1zM92 64h1v1h-1zM8 65h1v1h-1zM91 65h1v1h-1zM29 70h1v1h-1zM84 70h1v1h-1zM18 72h1v1h-1zM80 73h1v1h-1zM32 74h1v1h-1zM25 77h1v1h-1zM64 78h1v1h-1zM73 78h1v1h-1zM70 80h1v1h-1zM30 81h1v1h-1zM69 81h1v1h-1zM40 84h1v1h-1zM59 84h1v1h-1zM65 84h1v1h-1zM36 85h1v1h-1zM62 86h1v1h-1zM57 87h1v1h-1zM41 89h1v1h-1zM42 90h1v1h-1zM55 91h1v1h-1zM53 92h1v1h-1zM47 93h1v1h-1zM52 93h1v1h-1z" /><path fill="#fc7a26" d="M8 42h1v1h-1zM40 83h1v1h-1z" /><path fill="#f56326" d="M32 42h1v1h-1zM67 42h1v1h-1zM44 79h1v1h-1zM45 82h1v1h-1zM54 82h1v1h-1z" /><path fill="#fb7925" d="M91 42h1v1h-1z" /><path fill="#fba325" d="M4 43h1v1h-1zM95 43h1v1h-1zM88 47h1v1h-1zM14 51h1v1h-1zM21 60h1v1h-1zM78 60h1v1h-1zM22 61h1v1h-1zM97 61h1v1h-1zM71 69h1v1h-1zM86 69h1v1h-1zM19 73h1v1h-1zM67 74h1v1h-1zM75 77h1v1h-1zM26 78h1v1h-1zM63 79h1v1h-1zM29 80h1v1h-1zM33 83h1v1h-1zM64 85h1v1h-1zM37 86h1v1h-1zM40 88h1v1h-1zM44 91h1v1h-1zM53 93h1v1h-1z" /><path fill="#fb7025" d="M9 43h1v1h-1z" /><path fill="#fa6c25" d="M67 43h1v1h-1z" /><path fill="#fb7126" d="M90 43h1v1h-1zM83 52h1v1h-1zM34 75h1v1h-1zM58 84h1v1h-1zM51 93h1v1h-1z" /><path fill="#fba126" d="M91 43h1v1h-1zM18 56h1v1h-1zM81 56h1v1h-1zM73 66h1v1h-1zM33 75h1v1h-1zM66 75h1v1h-1z" /><path fill="#fc9f26" d="M9 44h1v1h-1zM87 48h1v1h-1zM30 71h1v1h-1zM37 80h1v1h-1zM55 89h1v1h-1z" /><path fill="#fb6e26" d="M10 44h1v1h-1zM17 53h1v1h-1zM28 67h1v1h-1zM71 67h1v1h-1zM35 76h1v1h-1zM64 76h1v1h-1zM38 80h1v1h-1zM42 85h1v1h-1z" /><path fill="#e94e29" d="M33 44h1v1h-1zM53 84h1v1h-1z" /><path fill="#e94d29" d="M66 44h1v1h-1z" /><path fill="#fb6c26" d="M89 44h1v1h-1zM66 46h1v1h-1zM64 52h1v1h-1zM82 53h1v1h-1zM38 62h1v1h-1zM40 68h1v1h-1zM43 77h1v1h-1zM57 85h1v1h-1zM51 92h1v1h-1z" /><path fill="#fc9d25" d="M90 44h1v1h-1zM58 85h1v1h-1z" /><path fill="#fc9125" d="M10 45h1v1h-1zM89 45h1v1h-1z" /><path fill="#f46026" d="M33 45h1v1h-1zM34 48h1v1h-1zM53 85h1v1h-1zM47 88h1v1h-1z" /><path fill="#f46226" d="M66 45h1v1h-1zM46 85h1v1h-1z" /><path fill="#fc8025" d="M11 46h1v1h-1zM43 87h1v1h-1z" /><path fill="#fb6b26" d="M33 46h1v1h-1zM46 86h1v1h-1z" /><path fill="#fb7e25" d="M88 46h1v1h-1zM56 87h1v1h-1z" /><path fill="#fb7425" d="M12 47h1v1h-1z" /><path fill="#e84d28" d="M34 47h1v1h-1zM47 87h1v1h-1z" /><path fill="#e74c28" d="M65 47h1v1h-1zM52 87h1v1h-1z" /><path fill="#fb7426" d="M87 47h1v1h-1zM44 88h1v1h-1zM55 88h1v1h-1z" /><path fill="#fca225" d="M12 48h1v1h-1zM0 56h1v1h-1zM99 56h1v1h-1zM90 66h1v1h-1zM61 87h1v1h-1z" /><path fill="#fc6f26" d="M13 48h1v1h-1zM45 89h1v1h-1z" /><path fill="#f46126" d="M65 48h1v1h-1zM52 88h1v1h-1z" /><path fill="#fb6f26" d="M86 48h1v1h-1zM54 89h1v1h-1z" /><path fill="#fc9a25" d="M13 49h1v1h-1z" /><path fill="#fb6b25" d="M34 49h1v1h-1zM35 52h1v1h-1zM47 89h1v1h-1zM48 92h1v1h-1z" /><path fill="#fc9925" d="M86 49h1v1h-1zM45 90h1v1h-1z" /><path fill="#fca226" d="M2 50h1v1h-1zM1 53h1v1h-1zM5 63h1v1h-1zM94 63h1v1h-1zM16 71h1v1h-1zM27 79h1v1h-1zM72 79h1v1h-1zM68 82h1v1h-1zM34 84h1v1h-1zM38 87h1v1h-1zM45 92h1v1h-1z" /><path fill="#fb8a26" d="M14 50h1v1h-1zM21 59h1v1h-1zM53 91h1v1h-1z" /><path fill="#e64a28" d="M35 50h1v1h-1zM62 56h1v1h-1zM51 90h1v1h-1z" /><path fill="#e74c29" d="M64 50h1v1h-1z" /><path fill="#fc8924" d="M85 50h1v1h-1z" /><path fill="#fb7d25" d="M15 51h1v1h-1z" /><path fill="#f25e26" d="M35 51h1v1h-1zM64 51h1v1h-1zM51 91h1v1h-1z" /><path fill="#fc7b26" d="M84 51h1v1h-1z" /><path fill="#fba125" d="M15 52h1v1h-1zM25 65h1v1h-1zM26 66h1v1h-1zM70 70h1v1h-1z" /><path fill="#fb7125" d="M16 52h1v1h-1zM48 93h1v1h-1z" /><path fill="#fc9e26" d="M16 53h1v1h-1z" /><path fill="#e74929" d="M36 53h1v1h-1zM49 93h1v1h-1z" /><path fill="#e54a29" d="M63 53h1v1h-1zM50 93h1v1h-1z" /><path fill="#fb9d25" d="M83 53h1v1h-1z" /><path fill="#fc9426" d="M17 54h1v1h-1zM75 63h1v1h-1z" /><path fill="#f45d26" d="M36 54h1v1h-1z" /><path fill="#f45e26" d="M63 54h1v1h-1z" /><path fill="#fc9225" d="M82 54h1v1h-1z" /><path fill="#fc8326" d="M18 55h1v1h-1z" /><path fill="#fb6b27" d="M36 55h1v1h-1z" /><path fill="#fb6a27" d="M63 55h1v1h-1z" /><path fill="#fc8126" d="M81 55h1v1h-1z" /><path fill="#fb7626" d="M19 56h1v1h-1z" /><path fill="#e64928" d="M37 56h1v1h-1z" /><path fill="#fb6d26" d="M63 56h1v1h-1zM37 59h1v1h-1zM62 59h1v1h-1zM61 62h1v1h-1zM59 68h1v1h-1zM41 71h1v1h-1z" /><path fill="#fc7625" d="M80 56h1v1h-1z" /><path fill="#fca025" d="M19 57h1v1h-1zM23 62h1v1h-1z" /><path fill="#fc6f25" d="M20 57h1v1h-1z" /><path fill="#f15b27" d="M37 57h1v1h-1z" /><path fill="#f15c26" d="M62 57h1v1h-1z" /><path fill="#fc6e26" d="M79 57h1v1h-1z" /><path fill="#fba025" d="M80 57h1v1h-1zM44 89h1v1h-1z" /><path fill="#fc9b25" d="M20 58h1v1h-1zM72 67h1v1h-1z" /><path fill="#fa6a26" d="M37 58h1v1h-1z" /><path fill="#fb6a26" d="M62 58h1v1h-1z" /><path fill="#fb9925" d="M79 58h1v1h-1z" /><path fill="#e54728" d="M38 59h1v1h-1z" /><path fill="#e54828" d="M61 59h1v1h-1z" /><path fill="#fc8b26" d="M78 59h1v1h-1z" /><path fill="#fca325" d="M1 60h1v1h-1zM98 60h1v1h-1zM12 68h1v1h-1zM79 74h1v1h-1zM23 76h1v1h-1z" /><path fill="#fb7b26" d="M22 60h1v1h-1zM77 60h1v1h-1z" /><path fill="#f05b26" d="M38 60h1v1h-1z" /><path fill="#f15b26" d="M61 60h1v1h-1z" /><path fill="#fb7326" d="M23 61h1v1h-1zM37 79h1v1h-1z" /><path fill="#fa6926" d="M38 61h1v1h-1zM61 61h1v1h-1zM39 64h1v1h-1zM60 64h1v1h-1z" /><path fill="#fb7226" d="M76 61h1v1h-1z" /><path fill="#fb6e25" d="M24 62h1v1h-1zM31 71h1v1h-1zM68 71h1v1h-1zM61 80h1v1h-1z" /><path fill="#e54729" d="M39 62h1v1h-1z" /><path fill="#e44628" d="M60 62h1v1h-1zM40 65h1v1h-1zM59 65h1v1h-1z" /><path fill="#fb9f26" d="M76 62h1v1h-1z" /><path fill="#fb9326" d="M24 63h1v1h-1z" /><path fill="#f05927" d="M39 63h1v1h-1z" /><path fill="#ef5926" d="M60 63h1v1h-1z" /><path fill="#fc8426" d="M25 64h1v1h-1z" /><path fill="#fc8226" d="M74 64h1v1h-1z" /><path fill="#fb7726" d="M26 65h1v1h-1z" /><path fill="#fb6c25" d="M60 65h1v1h-1zM58 71h1v1h-1zM42 74h1v1h-1zM57 74h1v1h-1zM56 77h1v1h-1zM45 83h1v1h-1zM54 83h1v1h-1z" /><path fill="#fb7625" d="M73 65h1v1h-1z" /><path fill="#fb6f25" d="M27 66h1v1h-1zM72 66h1v1h-1zM65 75h1v1h-1z" /><path fill="#ef5727" d="M40 66h1v1h-1z" /><path fill="#ef5725" d="M59 66h1v1h-1z" /><path fill="#fc9c26" d="M27 67h1v1h-1z" /><path fill="#f86827" d="M40 67h1v1h-1zM59 67h1v1h-1z" /><path fill="#fc8e26" d="M28 68h1v1h-1zM35 77h1v1h-1z" /><path fill="#e34529" d="M41 68h1v1h-1z" /><path fill="#e24628" d="M58 68h1v1h-1z" /><path fill="#fc8c25" d="M71 68h1v1h-1z" /><path fill="#fb7d26" d="M29 69h1v1h-1z" /><path fill="#ee5628" d="M41 69h1v1h-1z" /><path fill="#ec5526" d="M58 69h1v1h-1z" /><path fill="#fc7b25" d="M70 69h1v1h-1z" /><path fill="#fb7225" d="M30 70h1v1h-1z" /><path fill="#f86726" d="M41 70h1v1h-1zM58 70h1v1h-1z" /><path fill="#fc7226" d="M69 70h1v1h-1z" /><path fill="#e34428" d="M42 71h1v1h-1zM55 77h1v1h-1z" /><path fill="#e24327" d="M57 71h1v1h-1z" /><path fill="#fb9e25" d="M69 71h1v1h-1z" /><path fill="#fc9626" d="M31 72h1v1h-1z" /><path fill="#ed5327" d="M42 72h1v1h-1z" /><path fill="#ed5427" d="M57 72h1v1h-1z" /><path fill="#fb9526" d="M68 72h1v1h-1z" /><path fill="#fc8825" d="M32 73h1v1h-1z" /><path fill="#f86626" d="M42 73h1v1h-1zM57 73h1v1h-1z" /><path fill="#fc8525" d="M67 73h1v1h-1z" /><path fill="#fc7825" d="M33 74h1v1h-1z" /><path fill="#e34429" d="M43 74h1v1h-1z" /><path fill="#e34329" d="M56 74h1v1h-1z" /><path fill="#fb7826" d="M66 74h1v1h-1z" /><path fill="#eb5327" d="M43 75h1v1h-1zM56 75h1v1h-1z" /><path fill="#fc9d26" d="M34 76h1v1h-1z" /><path fill="#f76427" d="M43 76h1v1h-1z" /><path fill="#f76527" d="M56 76h1v1h-1z" /><path fill="#fc9b26" d="M65 76h1v1h-1z" /><path fill="#e34328" d="M44 77h1v1h-1z" /><path fill="#fc9025" d="M64 77h1v1h-1z" /><path fill="#fb7f25" d="M36 78h1v1h-1z" /><path fill="#eb5228" d="M44 78h1v1h-1z" /><path fill="#eb5129" d="M55 78h1v1h-1z" /><path fill="#fc7e26" d="M63 78h1v1h-1z" /><path fill="#f76526" d="M55 79h1v1h-1z" /><path fill="#fc7425" d="M62 79h1v1h-1z" /><path fill="#fb9f25" d="M62 80h1v1h-1z" /><path fill="#fc9724" d="M38 81h1v1h-1z" /><path fill="#fb9726" d="M61 81h1v1h-1z" /><path fill="#fb8825" d="M39 82h1v1h-1z" /><path fill="#fc8725" d="M60 82h1v1h-1z" /><path fill="#fc7725" d="M59 83h1v1h-1z" /><path fill="#fc7025" d="M41 84h1v1h-1z" /><path fill="#e84d27" d="M46 84h1v1h-1z" /><path fill="#fb9d26" d="M41 85h1v1h-1z" /><path fill="#fc9126" d="M42 86h1v1h-1z" /><path fill="#fa6b26" d="M53 86h1v1h-1z" /><path fill="#fb9025" d="M57 86h1v1h-1z" /><path fill="#e64b28" d="M48 90h1v1h-1z" /><path fill="#fb9725" d="M54 90h1v1h-1z" /><path fill="#f15f26" d="M48 91h1v1h-1z" /><path fill="#fb7a26" d="M47 92h1v1h-1z" /><path fill="#fb7825" d="M52 92h1v1h-1z" /><path fill="#fa9b27" d="M48 94h1v1h-1z" /><path fill="#f25d28" d="M49 94h1v1h-1z" /><path fill="#f25d26" d="M50 94h1v1h-1z" /><path fill="#fa9b25" d="M51 94h1v1h-1z" /><path fill="#f67b27" d="M49 95h1v1h-1z" /><path fill="#f67c26" d="M50 95h1v1h-1z" /></svg>