<svg xmlns="http://www.w3.org/2000/svg" viewBox="0 0 100 100" width="1em" height="1em"><path fill="#00acd7" d="M44 31h1v1h-1zM48 31h1v1h-1zM83 31h1v1h-1zM41 32h13v1h-13zM79 32h8v1h-8zM40 33h16v1h-16zM75 33h16v1h-16zM37 34h20v1h-20zM72 34h20v1h-20zM35 35h24v1h-24zM70 35h23v1h-23zM35 36h25v1h-25zM70 36h25v1h-25zM34 37h26v1h-26zM69 37h27v1h-27zM33 38h29v1h-29zM68 38h28v1h-28zM32 39h30v1h-30zM67 39h30v1h-30zM31 40h13v1h-13zM48 40h1v1h-1zM50 40h13v1h-13zM66 40h12v1h-12zM83 40h1v1h-1zM86 40h12v1h-12zM9 41h17v1h-17zM30 41h11v1h-11zM52 41h8v1h-8zM61 41h1v1h-1zM64 41h12v1h-12zM87 41h11v1h-11zM30 42h10v1h-10zM53 42h3v1h-3zM65 42h10v1h-10zM89 42h10v1h-10zM29 43h11v1h-11zM63 43h11v1h-11zM89 43h10v1h-10zM29 44h9v1h-9zM63 44h10v1h-10zM89 44h10v1h-10zM2 45h21v1h-21zM28 45h10v1h-10zM63 45h9v1h-9zM90 45h10v1h-10zM1 46h11v1h-11zM28 46h10v1h-10zM63 46h9v1h-9zM91 46h8v1h-8zM27 47h10v1h-10zM46 47h25v1h-25zM91 47h9v1h-9zM27 48h10v1h-10zM45 48h26v1h-26zM90 48h9v1h-9zM13 49h9v1h-9zM27 49h10v1h-10zM45 49h26v1h-26zM91 49h9v1h-9zM13 50h9v1h-9zM27 50h9v1h-9zM44 50h27v1h-27zM91 50h9v1h-9zM27 51h9v1h-9zM44 51h27v1h-27zM90 51h9v1h-9zM27 52h9v1h-9zM43 52h28v1h-28zM90 52h9v1h-9zM27 53h10v1h-10zM53 53h18v1h-18zM90 53h9v1h-9zM27 54h11v1h-11zM53 54h19v1h-19zM89 54h9v1h-9zM28 55h10v1h-10zM52 55h20v1h-20zM87 55h11v1h-11zM27 56h11v1h-11zM51 56h11v1h-11zM63 56h10v1h-10zM87 56h11v1h-11zM27 57h12v1h-12zM50 57h11v1h-11zM62 57h12v1h-12zM85 57h12v1h-12zM29 58h11v1h-11zM49 58h11v1h-11zM63 58h13v1h-13zM84 58h12v1h-12zM29 59h31v1h-31zM64 59h31v1h-31zM30 60h28v1h-28zM65 60h29v1h-29zM30 61h27v1h-27zM64 61h29v1h-29zM30 62h26v1h-26zM65 62h27v1h-27zM32 63h23v1h-23zM67 63h24v1h-24zM33 64h22v1h-22zM67 64h23v1h-23zM35 65h18v1h-18zM70 65h19v1h-19zM36 66h14v1h-14zM71 66h14v1h-14zM40 67h6v1h-6zM47 67h1v1h-1zM74 67h1v1h-1zM76 67h8v1h-8z" /><path fill="#00abd7" d="M45 31h2v1h-2zM49 31h1v1h-1zM51 31h1v1h-1zM91 33h1v1h-1zM57 34h1v1h-1zM69 36h1v1h-1zM66 39h1v1h-1zM45 40h1v1h-1zM84 40h2v1h-2zM51 41h1v1h-1zM29 42h1v1h-1zM54 43h1v1h-1zM38 44h1v1h-1zM99 44h1v1h-1zM13 46h10v1h-10zM27 46h1v1h-1zM72 46h1v1h-1zM99 46h1v1h-1zM71 49h1v1h-1zM90 49h1v1h-1zM36 50h1v1h-1zM36 51h1v1h-1zM99 51h1v1h-1zM71 52h1v1h-1zM89 52h1v1h-1zM71 53h1v1h-1zM89 53h1v1h-1zM98 54h1v1h-1zM39 57h1v1h-1zM83 58h1v1h-1zM28 59h1v1h-1zM63 59h1v1h-1zM58 60h1v1h-1zM92 62h1v1h-1zM69 65h1v1h-1zM50 66h1v1h-1zM86 66h1v1h-1zM46 67h1v1h-1zM73 67h1v1h-1z" /><path fill="#00acd6" d="M47 31h1v1h-1zM54 32h1v1h-1zM77 32h2v1h-2zM39 33h1v1h-1zM36 34h1v1h-1zM92 34h1v1h-1zM93 35h1v1h-1zM34 36h1v1h-1zM60 37h1v1h-1zM68 37h1v1h-1zM32 38h1v1h-1zM67 38h1v1h-1zM96 38h1v1h-1zM31 39h1v1h-1zM30 40h1v1h-1zM49 40h1v1h-1zM78 40h1v1h-1zM8 41h1v1h-1zM41 41h1v1h-1zM86 41h1v1h-1zM52 42h1v1h-1zM57 42h1v1h-1zM74 43h1v1h-1zM88 43h1v1h-1zM28 44h1v1h-1zM1 45h1v1h-1zM23 45h1v1h-1zM62 45h1v1h-1zM72 45h1v1h-1zM0 46h1v1h-1zM46 46h15v1h-15zM45 47h1v1h-1zM71 47h1v1h-1zM99 48h1v1h-1zM12 50h1v1h-1zM90 50h1v1h-1zM43 53h1v1h-1zM52 53h1v1h-1zM88 54h1v1h-1zM62 56h1v1h-1zM73 56h1v1h-1zM40 58h1v1h-1zM48 58h1v1h-1zM60 58h1v1h-1zM76 58h1v1h-1zM96 58h1v1h-1zM29 60h1v1h-1zM94 60h1v1h-1zM93 61h1v1h-1zM55 63h1v1h-1zM90 64h1v1h-1zM38 67h2v1h-2z" /><path fill="#00abd6" d="M50 31h1v1h-1zM82 31h1v1h-1zM84 31h1v1h-1zM40 32h1v1h-1zM76 32h1v1h-1zM87 32h2v1h-2zM38 33h1v1h-1zM56 33h1v1h-1zM73 33h2v1h-2zM95 36h1v1h-1zM33 37h1v1h-1zM97 39h1v1h-1zM44 40h1v1h-1zM65 40h1v1h-1zM79 40h2v1h-2zM42 41h1v1h-1zM60 41h1v1h-1zM76 41h2v1h-2zM98 41h1v1h-1zM40 42h1v1h-1zM56 42h1v1h-1zM64 42h1v1h-1zM75 42h1v1h-1zM88 42h1v1h-1zM53 43h1v1h-1zM73 44h1v1h-1zM12 46h1v1h-1zM62 46h1v1h-1zM90 46h1v1h-1zM90 47h1v1h-1zM71 48h1v1h-1zM22 49h1v1h-1zM44 49h1v1h-1zM22 50h1v1h-1zM43 51h1v1h-1zM36 52h1v1h-1zM44 53h8v1h-8zM27 55h1v1h-1zM72 55h1v1h-1zM38 56h1v1h-1zM86 56h1v1h-1zM74 57h1v1h-1zM28 58h1v1h-1zM41 58h1v1h-1zM95 59h1v1h-1zM64 60h1v1h-1zM57 61h1v1h-1zM56 62h1v1h-1zM31 63h1v1h-1zM66 63h1v1h-1zM91 63h1v1h-1zM32 64h1v1h-1zM34 65h1v1h-1zM51 66h1v1h-1zM85 66h1v1h-1zM48 67h1v1h-1zM75 67h1v1h-1z" /><path fill="#00aad7" d="M61 46h1v1h-1z" /></svg>