<svg xmlns="http://www.w3.org/2000/svg" viewBox="0 0 100 100"><path fill="#f99900" fill-rule="evenodd" stroke="#f99900" stroke-width=".1" d="M49 6h1v14h-1zm1 25h1v14h-1zm-26 13h1v1h-1zm25 11h1v14h-1zm1 25h1v13h-1z"/><path fill="#f99b00" fill-rule="evenodd" stroke="#f99b00" stroke-width=".1" d="M50 6h1v14h-1zm-2 26h1v14h-1zm2 23h1v14h-1zm25 0h1v1h-1zm-27 25h1v13h-1z"/><path fill="#f89500" fill-rule="evenodd" stroke="#f89500" stroke-width=".1" d="M46 7h1v1h-1zm0 14h1v1h-1zm7 11h1v1h-1zm1 14h1v1h-1zm-9 7h2v1h-2zm1 14h1v1h-1zm7 11h1v1h-1z"/><path fill="#f89700" fill-rule="evenodd" stroke="#f89700" stroke-width=".1" d="M47 7h1v1h-1zm1 13h1v1h-1zm3 11h2v1h-2zm0 48h1v1h-1z"/><path fill="#f99800" fill-rule="evenodd" stroke="#f99800" stroke-width=".1" d="M48 7h1v13h-1zm3 25h1v13h-1zm-3 23h1v13h-1zm3 25h1v13h-1zm0 13v1h-1v-1z"/><path fill="#f99c00" fill-rule="evenodd" stroke="#f99c00" stroke-width=".1" d="M51 7h1v13h-1zm-4 25h1v13h-1zm4 23h1v13h-1zm-4 24h1v13h-1z"/><path fill="#f89d00" fill-rule="evenodd" stroke="#f89d00" stroke-width=".1" d="M52 7h1v1h-1zm-6 25h1v1h-1zm6 22h1v1h-1z"/><path fill="#f89e00" fill-rule="evenodd" stroke="#f89e00" stroke-width=".1" d="M53 7h1v1h-1zm1 1h1v1h-1zm-1 13h1v1h-1zm-8 11h1v1h-1zm9 21h1v1h-1zm-1 14h1v1h-1zm-7 11h1v1h-1z"/><path fill="#f89400" fill-rule="evenodd" stroke="#f89400" stroke-width=".1" d="M45 8h1v1h-1zm9 24h1v1h-1zm0 59h1v1h-1z"/><path fill="#f99600" fill-rule="evenodd" stroke="#f99600" stroke-width=".1" d="M46 8h1v13h-1zm7 25h1v13h-1zm-7 21h1v13h-1zm1 14h1v1h-1zm6 11h1v13h-1z"/><path fill="#f99700" fill-rule="evenodd" stroke="#f99700" stroke-width=".1" d="M47 8h1v14h-1zm5 24h1v13h-1zm13 14h1v1h-1zm-18 9h1v13h-1zm5 23h1v14h-1z"/><path fill="#f99d00" fill-rule="evenodd" stroke="#f99d00" stroke-width=".1" d="M52 8h1v13h-1zm-6 25h1v14h-1zm-29 15h1v1h-1zm43 1h1v1h-1zm-21 1h1v1h-1zm13 5h1v14h-1zm-6 37h1v1h-1z"/><path fill="#f99e00" fill-rule="evenodd" stroke="#f99e00" stroke-width=".1" d="M53 8h1v13h-1zm-8 25h1v14h-1zm22 12h1v1h-1zm15 6h1v1h-1zm-29 2h1v14h-1zm1 14h1v1h-1zm-9 10h1v1h-1zm1 2h1v13h-1z"/><path fill="#f89200" fill-rule="evenodd" stroke="#f89200" stroke-width=".1" d="M43 9h1v1h-1zm16 40h1v1h-1zm-17 16h1v1h-1z"/><path fill="#f99400" fill-rule="evenodd" stroke="#f99400" stroke-width=".1" d="M44 9h1v13h1v1h-2zm-29 40h1v1h-1zm29 4h1v13h-1zm33 1h1v1h-1zm-23 23h1v1h-1z"/><path fill="#f99500" fill-rule="evenodd" stroke="#f99500" stroke-width=".1" d="M45 9h1v13h-1zm9 24h1v13h-1zm0 13v1h-1v-1zm-18 6h1v1h-1zm9 2h1v13h-1zm9 24h1v13h-1zm-1 14h1v1h-1z"/><path fill="#f99f00" fill-rule="evenodd" stroke="#f99f00" stroke-width=".1" d="M54 9h1v14h-1zm-22 45h1v1h-1zm22 0h1v13h-1zm-9 24h1v13h-1z"/><path fill="#f9a000" fill-rule="evenodd" stroke="#f9a000" stroke-width=".1" d="M55 9h1v14h-1zm-11 24h1v14h-1zm11 20h1v13h-1zm-11 24h1v14h-1z"/><path fill="#f9a100" fill-rule="evenodd" stroke="#f9a100" stroke-width=".1" d="M56 9h1v14h-1zm-13 25h1v14h-1zm19 14h1v1h-1zm-25 3h1v1h-1zm20 0h1v1h-1zm0 1v14h-1v-14zm-14 24h1v14h-1z"/><path fill="#f99000" fill-rule="evenodd" stroke="#f99000" stroke-width=".1" d="M41 10h1v14h-1zm16 24h1v1h-1zm1 1h1v14h-2v-1h1zm-17 16h1v13h-1zm-12 5h1v1h-1zm29 20h1v14h-1z"/><path fill="#f99200" fill-rule="evenodd" stroke="#f99200" stroke-width=".1" d="M42 10h1v14h-1zm14 24h1v14h-2v-1h1zm-34 11h1v1h-1zm39 3h1v1h-1zm23 2h1v1h-1zm-42 2h1v13h-1zm14 25h1v13h-1z"/><path fill="#f99300" fill-rule="evenodd" stroke="#f99300" stroke-width=".1" d="M43 10h1v14h-1zm12 24h1v13h-1zm15 9h1v1h-1zm-7 4h1v1h-1zm-20 5h1v14h-1zm1 14h1v1h-1zm11 11h1v14h-1z"/><path fill="#f9a200" fill-rule="evenodd" stroke="#f9a200" stroke-width=".1" d="M57 10h1v14h-1zm-15 25h1v13h-1zm15 17h1v14h-1zm-15 24h1v14h-1z"/><path fill="#f9a400" fill-rule="evenodd" stroke="#f9a400" stroke-width=".1" d="M58 10h1v15h-1zm-18 26h1v13h-1zm18 15h1v14h-1zm-28 4h1v1h-1zm43 1h1v1h-1zm-33 19h1v13h-1z"/><path fill="#f98e00" fill-rule="evenodd" stroke="#f98e00" stroke-width=".1" d="M39 11h1v14h-1zm21 26h1v12h-1zm-21 14h1v12h-1zm20 23h1v1h-1zm1 1h1v13h-1z"/><path fill="#f88f00" fill-rule="evenodd" stroke="#f88f00" stroke-width=".1" d="M40 11h1v1h-1zm0 14h1v1h-1zm0 39h2v1h-2zm19 24h1v1h-1z"/><path fill="#f8a500" fill-rule="evenodd" stroke="#f8a500" stroke-width=".1" d="M59 11h2v1h-2zm1 14h1v1h-1zm-1 25h1v1h-1zm1 13h1v1h-1zm-21 11h1v1h-1z"/><path fill="#f88c00" fill-rule="evenodd" stroke="#f88c00" stroke-width=".1" d="M38 12h1v1h-1z"/><path fill="#f98f00" fill-rule="evenodd" stroke="#f98f00" stroke-width=".1" d="M40 12h1v13h-1zm19 23h1v14h-1zm-19 16h1v13h-1zm19 24h1v13h-1z"/><path fill="#f9a500" fill-rule="evenodd" stroke="#f9a500" stroke-width=".1" d="M59 12h1v14h-1zm-20 24h1v14h-1zm-20 11h1v1h-1zm40 4h1v14h-1zm-24 1h1v1h-1zm45 0h1v1h-1zm-41 23h1v14h-1z"/><path fill="#f9a600" fill-rule="evenodd" stroke="#f9a600" stroke-width=".1" d="M60 12h1v13h-1zm1 14h1v1h-1zm-23 11h1v14h-1zm31 7h1v1h-1zm-5 3h1v1h-1zm-4 3h1v13h-1z"/><path fill="#f8a700" fill-rule="evenodd" stroke="#f8a700" stroke-width=".1" d="M61 12h1v1h-1zm-24 25h1v1h-1z"/><path fill="#f88a00" fill-rule="evenodd" stroke="#f88a00" stroke-width=".1" d="M36 13h1v1h-1z"/><path fill="#f98c00" fill-rule="evenodd" stroke="#f98c00" stroke-width=".1" d="M37 13h1v13h1v1h-2zm24 23h1v1h-1zm1 2h1v10h-1zm-25 14h1v11h-1zm-6 3h1v1h-1zm30 18h2v14h-1v-13h-1z"/><path fill="#f98d00" fill-rule="evenodd" stroke="#f98d00" stroke-width=".1" d="M38 13h1v13h-1zm23 24h1v11h-1zm7 7h1v1h-1zm-30 8h1v11h-1zm23 22h1v13h-1z"/><path fill="#f9a700" fill-rule="evenodd" stroke="#f9a700" stroke-width=".1" d="M61 13h1v13h-1zm-24 25h1v9h-1zm24 11h1v15h-1zm-23 24h1v15h-1z"/><path fill="#f9a800" fill-rule="evenodd" stroke="#f9a800" stroke-width=".1" d="M62 13h1v14h-1zm-25 34h1v4h-1zm25 2h1v13h-1zm-26 23h1v1h-1zm1 1h1v14h-1z"/><path fill="#f9a900" fill-rule="evenodd" stroke="#f9a900" stroke-width=".1" d="M63 13h1v14h-1zm-27 25h1v14h-1zm27 10h1v14h-1zm-27 25h1v13h-1z"/><path fill="#f98800" fill-rule="evenodd" stroke="#f98800" stroke-width=".1" d="M34 14h1v1h-1zm31 25h1v7h-1zm0 33h1v14h-1z"/><path fill="#f98a00" fill-rule="evenodd" stroke="#f98a00" stroke-width=".1" d="M35 14h1v13h1v1h-2zm28 24h1v8h1v1h-2zm-43 8h1v1h-1zm15 8h1v7h-1zm28 19h1v14h-1z"/><path fill="#f98b00" fill-rule="evenodd" stroke="#f98b00" stroke-width=".1" d="M36 14h1v13h-1zm30 31h1v1h-1zm-31 8h2v9h-1v-8h-1zm-2 1h1v1h-1z"/><path fill="#f9aa00" fill-rule="evenodd" stroke="#f9aa00" stroke-width=".1" d="M64 14h2v1h-1v13h-1zm-29 25h1v13h-1zm29 9h1v13h-1zm-31 5h1v1h-1zm2 19h1v14h-1z"/><path fill="#f98500" fill-rule="evenodd" stroke="#f98500" stroke-width=".1" d="M32 15h1v1h-1zm0 1v14h-1v-14zm36 24h1v4h-1zm-37 16h1v3h-1zm43 0h1v1h-1zm-6 14h1v13h-1z"/><path fill="#f88700" fill-rule="evenodd" stroke="#f88700" stroke-width=".1" d="M33 15h1v1h-1zm0 14h1v1h-1zm0 31h1v1h-1z"/><path fill="#f98900" fill-rule="evenodd" stroke="#f98900" stroke-width=".1" d="M34 15h1v13h-1zm30 23h1v8h-1zm-30 16h1v6h-1zm29 18h2v14h-1v-13h-1z"/><path fill="#f9ab00" fill-rule="evenodd" stroke="#f9ab00" stroke-width=".1" d="M65 15h1v13h-1zm-32 24h2v14h-1v-13h-1zm33 7h1v1h-1zm0 1v14h-1v-14zm-38 9h1v1h-1zm6 16h1v14h-1z"/><path fill="#f8ac00" fill-rule="evenodd" stroke="#f8ac00" stroke-width=".1" d="M66 15h1v1h-1zm-35 25h1v1h-1zm-4 17h1v1h-1z"/><path fill="#f8ad00" fill-rule="evenodd" stroke="#f8ad00" stroke-width=".1" d="M67 15h1v1h-1zm-35 55h1v1h-1z"/><path fill="#f98600" fill-rule="evenodd" stroke="#f98600" stroke-width=".1" d="M32 16h1v13h-1zm35 25h1v4h-1zm-42 2h1v1h-1zm7 12h1v4h-1zm35 16h1v13h-1z"/><path fill="#f98700" fill-rule="evenodd" stroke="#f98700" stroke-width=".1" d="M33 16h1v13h-1zm33 23h1v6h-1zm13 14h1v1h-1zm-46 2h1v5h-1zm33 15h1v14h-1z"/><path fill="#f9ad00" fill-rule="evenodd" stroke="#f9ad00" stroke-width=".1" d="M66 16h1v13h-1zm-34 24h1v14h-1zm39 3h1v1h-1zm-5 4h1v13h-1zm12 6h1v1h-1zm-46 18h1v13h-2v-1h1z"/><path fill="#f9ae00" fill-rule="evenodd" stroke="#f9ae00" stroke-width=".1" d="M67 16h1v13h-1zm-36 25h1v14h-1zm-10 5h1v1h-1zm46 0h1v13h-1zm-36 23h1v14h-1z"/><path fill="#f8ae00" fill-rule="evenodd" stroke="#f8ae00" stroke-width=".1" d="M68 16h1v1h-1zm-1 13h1v1h-1zm0 30h1v1h-1z"/><path fill="#f88300" fill-rule="evenodd" stroke="#f88300" stroke-width=".1" d="M29 17h1v1h-1zm40 24h1v1h-1zm2 1h1v1h-1z"/><path fill="#f98400" fill-rule="evenodd" stroke="#f98400" stroke-width=".1" d="M30 17h1v13h1v1h-2zm39 25h1v2h-1zm-39 14h1v2h-1zm38 13h2v14h-1v-13h-1z"/><path fill="#f9af00" fill-rule="evenodd" stroke="#f9af00" stroke-width=".1" d="M68 17h1v14h-1zm-38 25h1v13h-1zm38 3h1v13h1v1h-1v1h-1z"/><path fill="#f9b000" fill-rule="evenodd" stroke="#f9b000" stroke-width=".1" d="M69 17h1v14h-1zm-40 25h1v3h-1zm40 3h1v13h-1zm-39 24h1v14h-1z"/><path fill="#f9b100" fill-rule="evenodd" stroke="#f9b100" stroke-width=".1" d="M70 17h1v14h-1zm0 27h1v14h-1zm-47 1h1v1h-1zm6 0h1v11h-1zm0 23h1v14h-1z"/><path fill="#f98100" fill-rule="evenodd" stroke="#f98100" stroke-width=".1" d="M27 18h1v14h-1zm-9 29h1v1h-1zm53 21h1v14h-1z"/><path fill="#f98200" fill-rule="evenodd" stroke="#f98200" stroke-width=".1" d="M28 18h1v14h-1zm42 50h1v1h-1zm0 14h1v1h-1z"/><path fill="#f98300" fill-rule="evenodd" stroke="#f98300" stroke-width=".1" d="M29 18h1v14h-1zm41 24h1v1h-1zm-41 15h1v1h-1zm1 1h1v1h-1zm40 11h1v13h-1z"/><path fill="#f9b200" fill-rule="evenodd" stroke="#f9b200" stroke-width=".1" d="M71 18h2v1h-1v13h-1zm-43 25h1v13h-1zm43 1h1v13h-1zm5 10h1v1h-1zm-48 14h1v14h-2v-1h1z"/><path fill="#f97d00" fill-rule="evenodd" stroke="#f97d00" stroke-width=".1" d="M25 19h1v1h-1zm-1 2h1v13h-1zm0 21h1v2h-1zm51 14h1v2h-1zm0 10h1v13h-1z"/><path fill="#f87f00" fill-rule="evenodd" stroke="#f87f00" stroke-width=".1" d="M26 19h1v1h-1zm47 61h1v1h-1z"/><path fill="#f9b300" fill-rule="evenodd" stroke="#f9b300" stroke-width=".1" d="M72 19h1v13h-1zm-45 24h1v14h-1zm45 0h1v14h-1zm-47 1h1v1h-1zm2 24h1v13h-1z"/><path fill="#f8b300" fill-rule="evenodd" stroke="#f8b300" stroke-width=".1" d="M73 19h1v1h-1zm-1 13h1v1h-1zm-46 25h1v1h-1zm0 9h1v1h-1zm0 14h1v1h-1z"/><path fill="#f8b500" fill-rule="evenodd" stroke="#f8b500" stroke-width=".1" d="M74 19h1v1h-1zm0 22h1v1h-1zm-49 17h1v1h-1zm-1 7h1v1h-1zm1 1h1v1h-1z"/><path fill="#f87c00" fill-rule="evenodd" stroke="#f87c00" stroke-width=".1" d="M24 20h1v1h-1zm51 45h1v1h-1z"/><path fill="#f97e00" fill-rule="evenodd" stroke="#f97e00" stroke-width=".1" d="M25 20h1v13h-1zm0 21h1v2h-1zm49 16h1v1h-1zm0 10h1v14h-1z"/><path fill="#f98000" fill-rule="evenodd" stroke="#f98000" stroke-width=".1" d="M26 20h1v13h-1zm55 32h1v1h-1zm-9 16h1v14h-1z"/><path fill="#f89b00" fill-rule="evenodd" stroke="#f89b00" stroke-width=".1" d="M51 20h1v1h-1zm-4 25h1v1h-1zm0 47h1v1h-1z"/><path fill="#f9b400" fill-rule="evenodd" stroke="#f9b400" stroke-width=".1" d="M73 20h1v13h-1zm0 23h1v12h1v1h-2zm-47 1h1v13h-1zm0 23h1v13h-1z"/><path fill="#f9b600" fill-rule="evenodd" stroke="#f9b600" stroke-width=".1" d="M74 20h1v13h-1zm0 22h1v13h-1zm-50 3h1v14h-1zm0 21h1v13h-1z"/><path fill="#f8b700" fill-rule="evenodd" stroke="#f8b700" stroke-width=".1" d="M75 20h1v1h-1zm1 20h1v1h-1zm0 1v1h-1v-1z"/><path fill="#f87b00" fill-rule="evenodd" stroke="#f87b00" stroke-width=".1" d="M22 21h1v1h-1zm1 19h1v1h-1zm53 19h1v1h-1z"/><path fill="#f97c00" fill-rule="evenodd" stroke="#f97c00" stroke-width=".1" d="M23 21h1v13h1v1h-2zm0 20h1v3h-1zm-7 7h1v1h-1zm60 8h1v3h-1zm0 9h1v14h-1zm0 14v1h-1v-1z"/><path fill="#f9b700" fill-rule="evenodd" stroke="#f9b700" stroke-width=".1" d="M75 21h1v14h-1zm0 21h1v13h-1zm-52 4h1v14h-1zm0 19h1v14h-1z"/><path fill="#f9b800" fill-rule="evenodd" stroke="#f9b800" stroke-width=".1" d="M76 21h1v14h-1zm0 20h1v13h-1zm-54 5h1v14h-1z"/><path fill="#f9b900" fill-rule="evenodd" stroke="#f9b900" stroke-width=".1" d="M77 21h1v15h-1zm1 18h1v1h-1zm0 1v14h-1v-14zm-62 9h1v1h-1zm67 1h1v1h-1zm-61 14h1v14h-1z"/><path fill="#f97900" fill-rule="evenodd" stroke="#f97900" stroke-width=".1" d="M20 22h1v14h-1zm0 16h1v1h1v1h-1v6h-1z"/><path fill="#f97a00" fill-rule="evenodd" stroke="#f97a00" stroke-width=".1" d="M21 22h1v14h-1zm0 18h1v6h-1zm62 11h1v1h-1zm-5 3h1v7h-1zm0 10h1v14h-1zm0 14v1h-1v-1z"/><path fill="#f97b00" fill-rule="evenodd" stroke="#f97b00" stroke-width=".1" d="M22 22h1v14h-1zm0 18h1v5h-1zm55 15h1v5h-1zm0 9h1v14h-1z"/><path fill="#f9ba00" fill-rule="evenodd" stroke="#f9ba00" stroke-width=".1" d="M78 22h2v1h-1v13h-1zm0 18h1v12h1v1h-2zm-57 7h1v14h-1zm0 17h1v13h-1z"/><path fill="#f87800" fill-rule="evenodd" stroke="#f87800" stroke-width=".1" d="M19 23h1v1h-1zm1 13h1v1h-1zm-1 2h1v1h-1zm66 12h1v1h-1zm-6 13h1v1h-1z"/><path fill="#f8a100" fill-rule="evenodd" stroke="#f8a100" stroke-width=".1" d="M56 23h1v1h-1z"/><path fill="#f9bb00" fill-rule="evenodd" stroke="#f9bb00" stroke-width=".1" d="M79 23h1v13h-1zm1 14h1v1h-1zm-1 2h1v13h-1zm-59 8h1v14h-1zm-2 1h1v1h-1zm63 3h1v1h-1zm-61 13h1v13h-1z"/><path fill="#f8bb00" fill-rule="evenodd" stroke="#f8bb00" stroke-width=".1" d="M80 23h1v1h-1zm-1 13h1v1h-1zm1 2h1v1h-1zm-61 38h1v1h-1zm1 1h1v1h-1z"/><path fill="#f9bc00" fill-rule="evenodd" stroke="#f9bc00" stroke-width=".1" d="M81 23h1v1h-1zm0 1v13h-1v-13zm-1 15h1v13h-1zm-61 9h1v13h-1zm0 15h1v13h-1z"/><path fill="#f97600" fill-rule="evenodd" stroke="#f97600" stroke-width=".1" d="M17 24h1v1h-1zm-14 8h1v1h-1zm-3 4h1v1h-1zm0 2h1v2h-1zm9 8h1v1h-1zm80 6h1v1h-1zm1 1h1v1h-1zm4 2h1v1h-1zm5 5h1v2h-1zm-19 2h1v1h-1zm19 1h1v2h-1zm-3 4h1v1h-1zm0 1v1h-1v-1zm-7 3h1v1h-1z"/><path fill="#f97700" fill-rule="evenodd" stroke="#f97700" stroke-width=".1" d="M18 24h1v13h1v1h-1v9h-1v1h-2v1h-2v-1h-2v-1h-2v-1h-2v-1h-1v-1h-1v1h-1v-2h-3v-1h-1v-6h-1v-1h2v-1h1v-1h1v-1h2v-1h2v-1h1v-1h1v-1h3v-1h1v-1h2v-1h2zm66 27h4v2h2v1h2v1h1v1h2v1h2v1h2v7h-1v1h-1v1h-1v1h-2v2h-3v1h-2v2h-1v-1h-1v2h-3v1h-2v2h-1v-1h-1v-13h1v-2h-1v-8h2v-1h2zm-5 26h1v1h-1z"/><path fill="#f97800" fill-rule="evenodd" stroke="#f97800" stroke-width=".1" d="M19 24h1v13h-1zm0 15h1v8h-1zm60 15h1v7h-1zm0 10h1v13h-1z"/><path fill="#f89000" fill-rule="evenodd" stroke="#f89000" stroke-width=".1" d="M41 24h1v1h-1zm17 51h1v1h-1z"/><path fill="#f9bd00" fill-rule="evenodd" stroke="#f9bd00" stroke-width=".1" d="M81 24h1v27h-1zm-63 25h1v27h-2v-1h1z"/><path fill="#f8bf00" fill-rule="evenodd" stroke="#f8bf00" stroke-width=".1" d="M82 24h1v1h-1z"/><path fill="#f87700" fill-rule="evenodd" stroke="#f87700" stroke-width=".1" d="M15 25h1v1h-1zm-2 1h1v1h-1zm-5 3h1v1h-1zm0 1v1h-2v-1zm-2 1v1h-1v-1zm-4 2h1v1h-1zm2 10h1v1h-1zm2 1h1v1h-1zm7 4h1v1h-1zm75 4h1v1h-1zm5 3h1v1h-1zm2 1h1v1h-1zm2 1h1v1h-1zm-17 4h1v1h-1zm19 1h1v1h-1zm-1 3h1v1h-1zm-4 3h1v1h-1zm-10 6h1v1h-1zm-2 1h1v1h-1zm-2 1h1v1h-1z"/><path fill="#f88e00" fill-rule="evenodd" stroke="#f88e00" stroke-width=".1" d="M39 25h1v1h-1zm0 38h1v1h-1zm21 11h1v1h-1z"/><path fill="#f9bf00" fill-rule="evenodd" stroke="#f9bf00" stroke-width=".1" d="M82 25h1v26h-1zm-66 25h1v25h-1z"/><path fill="#f9c000" fill-rule="evenodd" stroke="#f9c000" stroke-width=".1" d="M83 25h1v25h-1zm-68 25h1v24h-1z"/><path fill="#f9c100" fill-rule="evenodd" stroke="#f9c100" stroke-width=".1" d="M84 25h1v25h-1zm-70 26h1v9h-1z"/><path fill="#f9c200" fill-rule="evenodd" stroke="#f9c200" stroke-width=".1" d="M85 26h1v23h-1zm-71 34h1v13h-1z"/><path fill="#f9c300" fill-rule="evenodd" stroke="#f9c300" stroke-width=".1" d="M86 26h1v22h-1zm-73 25h1v22h-1z"/><path fill="#f87600" fill-rule="evenodd" stroke="#f87600" stroke-width=".1" d="M12 27h1v1h-1zm-11 7h1v1h-1zm-1 3h1v1h-1zm7 8h1v1h-1zm4 2h1v1h-1zm1 1h1v1h-1zm80 6h1v1h-1zm5 12h1v1h-1zm-6 4h1v1h-1zm-4 2h1v1h-1z"/><path fill="#f8a900" fill-rule="evenodd" stroke="#f8a900" stroke-width=".1" d="M63 27h1v1h-1zm-27 59h1v1h-1z"/><path fill="#f8c300" fill-rule="evenodd" stroke="#f8c300" stroke-width=".1" d="M87 27h1v1h-1zm-75 45h1v1h-1zm1 1h1v1h-1z"/><path fill="#f9c400" fill-rule="evenodd" stroke="#f9c400" stroke-width=".1" d="M88 27h1v1h-1zm0 1v21h-1v-21zm-76 23h1v21h-1v-19h-1v-1h1z"/><path fill="#f88900" fill-rule="evenodd" stroke="#f88900" stroke-width=".1" d="M34 28h1v1h-1zm1 33h1v1h-1z"/><path fill="#f8ab00" fill-rule="evenodd" stroke="#f8ab00" stroke-width=".1" d="M65 28h1v1h-1zm-32 42h1v1h-1zm1 1h1v1h-1zm-1 13h1v1h-1z"/><path fill="#f9c500" fill-rule="evenodd" stroke="#f9c500" stroke-width=".1" d="M88 28h1v19h-1zm-77 25h1v19h-1z"/><path fill="#f8c500" fill-rule="evenodd" stroke="#f8c500" stroke-width=".1" d="M89 28h1v1h-1zm-79 24h1v1h-1z"/><path fill="#f88600" fill-rule="evenodd" stroke="#f88600" stroke-width=".1" d="M32 29h1v1h-1zm34 55h1v1h-1z"/><path fill="#f9ac00" fill-rule="evenodd" stroke="#f9ac00" stroke-width=".1" d="M66 29h1v1h-1zm-33 11h1v13h-1zm33 20h1v1h-1zm-33 11h1v13h-1zm0 13v1h-1v-1z"/><path fill="#f9c600" fill-rule="evenodd" stroke="#f9c600" stroke-width=".1" d="M89 29h1v18h-1zm-79 24h1v19h-1z"/><path fill="#f9c800" fill-rule="evenodd" stroke="#f9c800" stroke-width=".1" d="M90 29h1v17h-1zm-82 25h1v16h-1z"/><path fill="#f8c800" fill-rule="evenodd" stroke="#f8c800" stroke-width=".1" d="M91 29h1v1h-1zm-84 25h1v1h-1zm0 15h1v1h-1zm1 1h1v1h-1z"/><path fill="#f9c900" fill-rule="evenodd" stroke="#f9c900" stroke-width=".1" d="M91 30h1v16h-1zm-84 25h1v14h-1z"/><path fill="#f9ca00" fill-rule="evenodd" stroke="#f9ca00" stroke-width=".1" d="M92 30h2v1h-1v14h-1zm-86 25h1v2h-1z"/><path fill="#f89c00" fill-rule="evenodd" stroke="#f89c00" stroke-width=".1" d="M47 31h1v1h-1zm4 37h1v1h-1zm-4 10h1v1h-1z"/><path fill="#f89a00" fill-rule="evenodd" stroke="#f89a00" stroke-width=".1" d="M48 31h1v1h-1zm0 48h1v1h-1z"/><path fill="#f99a00" fill-rule="evenodd" stroke="#f99a00" stroke-width=".1" d="M49 31h1v13h-1zm-15 22h1v1h-1zm15 27h1v14h-1z"/><path fill="#f8b000" fill-rule="evenodd" stroke="#f8b000" stroke-width=".1" d="M70 31h1v1h-1zm-41 51h1v1h-1z"/><path fill="#f9cb00" fill-rule="evenodd" stroke="#f9cb00" stroke-width=".1" d="M93 31h1v13h-1zm-87 26h1v12h-1z"/><path fill="#f8cb00" fill-rule="evenodd" stroke="#f8cb00" stroke-width=".1" d="M94 31h1v1h-1zm-89 37h1v1h-1zm1 1h1v1h-1z"/><path fill="#f9cd00" fill-rule="evenodd" stroke="#f9cd00" stroke-width=".1" d="M95 31h1v1h1v1h-1v10h-1zm-91 25h1v12h-1z"/><path fill="#f88100" fill-rule="evenodd" stroke="#f88100" stroke-width=".1" d="M27 32h1v1h-1z"/><path fill="#f9cc00" fill-rule="evenodd" stroke="#f9cc00" stroke-width=".1" d="M94 32h1v12h-1zm-89 23h1v13h-1z"/><path fill="#f87e00" fill-rule="evenodd" stroke="#f87e00" stroke-width=".1" d="M25 33h1v1h-1zm48 24h1v1h-1zm1 1h1v1h-1zm-1 8h1v1h-1z"/><path fill="#f88000" fill-rule="evenodd" stroke="#f88000" stroke-width=".1" d="M26 33h1v1h-1zm0 9h1v1h-1zm46 25h1v1h-1z"/><path fill="#f8a000" fill-rule="evenodd" stroke="#f8a000" stroke-width=".1" d="M43 33h1v1h-1zm0 15h1v1h-1zm0 42h1v1h-1z"/><path fill="#f89300" fill-rule="evenodd" stroke="#f89300" stroke-width=".1" d="M55 33h1v1h-1zm-11 19h1v1h-1z"/><path fill="#f8b400" fill-rule="evenodd" stroke="#f8b400" stroke-width=".1" d="M73 33h1v1h-1zm0 9h1v1h-1z"/><path fill="#f8b600" fill-rule="evenodd" stroke="#f8b600" stroke-width=".1" d="M74 33h1v1h-1z"/><path fill="#f9ce00" fill-rule="evenodd" stroke="#f9ce00" stroke-width=".1" d="M96 33h1v9h1v1h-2zm-93 24h1v11h-1z"/><path fill="#f8cf00" fill-rule="evenodd" stroke="#f8cf00" stroke-width=".1" d="M97 33h1v1h-1zm-95 33h1v1h-1z"/><path fill="#f7a100" fill-rule="evenodd" stroke="#f7a100" stroke-width=".1" d="M42 34h1v1h-1z"/><path fill="#f9cf00" fill-rule="evenodd" stroke="#f9cf00" stroke-width=".1" d="M97 34h1v8h-1zm-95 24h1v8h-1z"/><path fill="#f8d100" fill-rule="evenodd" stroke="#f8d100" stroke-width=".1" d="M98 34h1v1h-1zm1 3h1v1h-1zm-99 25h1v1h-1z"/><path fill="#f9a300" fill-rule="evenodd" stroke="#f9a300" stroke-width=".1" d="M40 35h2v14h-1v-13h-1zm-14 8h1v1h-1zm15 33h1v14h-1z"/><path fill="#f99100" fill-rule="evenodd" stroke="#f99100" stroke-width=".1" d="M57 35h1v13h-1zm-19 16h1v1h-1zm4 0h1v1h-1zm15 25h1v14h-1zm0 14v1h-1v-1z"/><path fill="#f9d100" fill-rule="evenodd" stroke="#f9d100" stroke-width=".1" d="M98 35h2v2h-1v1h1v2h-1v1h-1zm-98 28h1v2h-1z"/><path fill="#f8a600" fill-rule="evenodd" stroke="#f8a600" stroke-width=".1" d="M38 36h1v1h-1z"/><path fill="#f88d00" fill-rule="evenodd" stroke="#f88d00" stroke-width=".1" d="M60 36h1v1h-1zm1 51h1v1h-1zm0 1v1h-1v-1z"/><path fill="#faa800" fill-rule="evenodd" stroke="#faa800" stroke-width=".1" d="M36 37h1v1h-1z"/><path fill="#f88b00" fill-rule="evenodd" stroke="#f88b00" stroke-width=".1" d="M62 37h1v1h-1z"/><path fill="#f8aa00" fill-rule="evenodd" stroke="#f8aa00" stroke-width=".1" d="M35 38h1v1h-1zm29 23h1v1h-1z"/><path fill="#f88500" fill-rule="evenodd" stroke="#f88500" stroke-width=".1" d="M67 40h1v1h-1zm-35 19h1v1h-1zm35 11h1v1h-1zm1 13h1v1h-1zm0 1v1h-1v-1z"/><path fill="#f87d00" fill-rule="evenodd" stroke="#f87d00" stroke-width=".1" d="M24 41h1v1h-1zm51 17h1v1h-1zm-1 8h1v1h-1z"/><path fill="#fab000" fill-rule="evenodd" stroke="#fab000" stroke-width=".1" d="M29 41h1v1h-1z"/><path fill="#f8af00" fill-rule="evenodd" stroke="#f8af00" stroke-width=".1" d="M30 41h1v1h-1z"/><path fill="#f9d000" fill-rule="evenodd" stroke="#f9d000" stroke-width=".1" d="M98 41h1v1h-1zm-97 17h1v7h-1v-3h-1v-2h1z"/><path fill="#f79800" fill-rule="evenodd" stroke="#f79800" stroke-width=".1" d="M27 42h1v1h-1z"/><path fill="#f8b100" fill-rule="evenodd" stroke="#f8b100" stroke-width=".1" d="M28 42h1v1h-1zm43 15h1v1h-1z"/><path fill="#f8a800" fill-rule="evenodd" stroke="#f8a800" stroke-width=".1" d="M72 42h1v1h-1zm-10 20h1v1h-1z"/><path fill="#f8cd00" fill-rule="evenodd" stroke="#f8cd00" stroke-width=".1" d="M95 43h1v1h-1z"/><path fill="#f97f00" fill-rule="evenodd" stroke="#f97f00" stroke-width=".1" d="M23 44h1v1h-1zm53 11h1v1h-1zm-3 12h1v13h-1z"/><path fill="#f89900" fill-rule="evenodd" stroke="#f89900" stroke-width=".1" d="M49 44h1v1h-1z"/><path fill="#f8ca00" fill-rule="evenodd" stroke="#f8ca00" stroke-width=".1" d="M93 44h1v1h-1z"/><path fill="#f8cc00" fill-rule="evenodd" stroke="#f8cc00" stroke-width=".1" d="M94 44h1v1h-1z"/><path fill="#f9b500" fill-rule="evenodd" stroke="#f9b500" stroke-width=".1" d="M25 45h1v13h-1zm0 22h1v13h-2v-1h1z"/><path fill="#f89600" fill-rule="evenodd" stroke="#f89600" stroke-width=".1" d="M52 45h1v1h-1zm-5 9h1v1h-1zm5 38h1v1h-1z"/><path fill="#f8c900" fill-rule="evenodd" stroke="#f8c900" stroke-width=".1" d="M92 45h1v1h-1z"/><path fill="#f9c700" fill-rule="evenodd" stroke="#f9c700" stroke-width=".1" d="M90 46h1v1h-1zm-81 8h1v17h-1z"/><path fill="#f89f00" fill-rule="evenodd" stroke="#f89f00" stroke-width=".1" d="M44 47h1v1h-1zm11 5h1v1h-1zm0 14h1v1h-1zm-10 25h1v1h-1z"/><path fill="#f8c400" fill-rule="evenodd" stroke="#f8c400" stroke-width=".1" d="M88 47h1v1h-1z"/><path fill="#f8a200" fill-rule="evenodd" stroke="#f8a200" stroke-width=".1" d="M42 48h1v1h-1z"/><path fill="#f8c200" fill-rule="evenodd" stroke="#f8c200" stroke-width=".1" d="M86 48h1v1h-1zm0 1v1h-1v-1z"/><path fill="#f87900" fill-rule="evenodd" stroke="#f87900" stroke-width=".1" d="M14 49h1v1h-1z"/><path fill="#f9be00" fill-rule="evenodd" stroke="#f9be00" stroke-width=".1" d="M17 49h1v26h-1z"/><path fill="#f8a400" fill-rule="evenodd" stroke="#f8a400" stroke-width=".1" d="M40 49h1v1h-1z"/><path fill="#f8a300" fill-rule="evenodd" stroke="#f8a300" stroke-width=".1" d="M41 49h1v1h-1zm-1 25h1v1h-1zm1 1h1v1h-1zm-1 13h1v1h-1z"/><path fill="#f8c000" fill-rule="evenodd" stroke="#f8c000" stroke-width=".1" d="M14 50h1v1h-1zm1 24h1v1h-1z"/><path fill="#f89100" fill-rule="evenodd" stroke="#f89100" stroke-width=".1" d="M40 50h1v1h-1zm16 26h1v1h-1z"/><path fill="#fac800" fill-rule="evenodd" stroke="#fac800" stroke-width=".1" d="M8 53h1v1h-1z"/><path fill="#f8c700" fill-rule="evenodd" stroke="#f8c700" stroke-width=".1" d="M9 53h1v1h-1z"/><path fill="#f8ce00" fill-rule="evenodd" stroke="#f8ce00" stroke-width=".1" d="M3 56h1v1h-1zm0 1v1h-1v-1z"/><path fill="#f88200" fill-rule="evenodd" stroke="#f88200" stroke-width=".1" d="M28 57h1v1h-1z"/><path fill="#fa9400" fill-rule="evenodd" stroke="#fa9400" stroke-width=".1" d="M72 57h1v1h-1z"/><path fill="#f7b800" fill-rule="evenodd" stroke="#f7b800" stroke-width=".1" d="M22 60h1v1h-1z"/><path fill="#f88800" fill-rule="evenodd" stroke="#f88800" stroke-width=".1" d="M34 60h1v1h-1zm31 11h1v1h-1z"/><path fill="#f8bc00" fill-rule="evenodd" stroke="#f8bc00" stroke-width=".1" d="M19 61h1v1h-1z"/><path fill="#f8b900" fill-rule="evenodd" stroke="#f8b900" stroke-width=".1" d="M20 61h1v1h-1zm1 16h1v1h-1z"/><path fill="#fabb00" fill-rule="evenodd" stroke="#fabb00" stroke-width=".1" d="M19 62h1v1h-1z"/><path fill="#f8ba00" fill-rule="evenodd" stroke="#f8ba00" stroke-width=".1" d="M20 63h1v1h-1z"/><path fill="#f8d000" fill-rule="evenodd" stroke="#f8d000" stroke-width=".1" d="M1 65h1v1h-1z"/><path fill="#f8b200" fill-rule="evenodd" stroke="#f8b200" stroke-width=".1" d="M27 67h1v1h-1z"/><path fill="#f89800" fill-rule="evenodd" stroke="#f89800" stroke-width=".1" d="M48 68h1v1h-1z"/><path fill="#f8c100" fill-rule="evenodd" stroke="#f8c100" stroke-width=".1" d="M14 73h1v1h-1z"/><path fill="#f8b800" fill-rule="evenodd" stroke="#f8b800" stroke-width=".1" d="M22 78h1v1h-1z"/></svg>