<svg xmlns="http://www.w3.org/2000/svg" viewBox="0 0 100 100" width="1em" height="1em"><path fill="#f05a28" d="M53 0h2v1h-2zM53 1h2v1h-2zM52 2h5v1h-5zM51 3h7v1h-7zM49 4h10v1h-10zM49 5h11v1h-11zM48 6h12v1h-12zM48 7h13v1h-13zM47 8h15v1h-15zM47 9h15v1h-15zM46 10h16v1h-16zM46 11h19v1h-19zM80 11h4v1h-4z" /><path fill="#f05927" d="M52 1h1v1h-1zM59 4h1v1h-1zM48 5h1v1h-1zM61 7h1v1h-1zM46 8h1v1h-1zM62 9h1v1h-1zM78 11h1v1h-1z" /><path fill="#ef5927" d="M55 1h1v1h-1zM47 7h1v1h-1zM45 10h1v1h-1zM79 11h1v1h-1z" /><path fill="#ef5a28" d="M51 2h1v1h-1zM57 2h1v1h-1zM47 6h1v1h-1zM46 9h1v1h-1zM65 11h3v1h-3zM77 11h1v1h-1z" /><path fill="#f05a27" d="M50 3h1v1h-1z" /><path fill="#ef5928" d="M58 3h1v1h-1z" /><path fill="#ef5a27" d="M60 6h1v1h-1zM62 10h1v1h-1z" /><path fill="#f05928" d="M45 11h1v1h-1z" /><path fill="#ef5b27" d="M43 12h1v1h-1z" /><path fill="#ef5b28" d="M44 12h1v1h-1z" /><path fill="#f05c28" d="M45 12h24v1h-24zM76 12h8v1h-8z" /><path fill="#f05c27" d="M69 12h2v1h-2zM75 12h1v1h-1z" /><path fill="#ef5c27" d="M40 13h2v1h-2zM72 13h1v1h-1z" /><path fill="#f05d27" d="M42 13h30v1h-30zM74 13h11v1h-11z" /><path fill="#ef5c26" d="M73 13h1v1h-1z" /><path fill="#ef5e26" d="M38 14h1v1h-1z" /><path fill="#f05e27" d="M39 14h46v1h-46z" /><path fill="#f05f27" d="M21 15h1v1h-1z" /><path fill="#f05e26" d="M22 15h1v1h-1zM26 15h1v1h-1zM36 15h1v1h-1z" /><path fill="#f15e27" d="M23 15h1v1h-1z" /><path fill="#f15f26" d="M24 15h2v1h-2z" /><path fill="#f15f27" d="M27 15h1v1h-1zM37 15h48v1h-48z" /><path fill="#f05f26" d="M28 15h1v1h-1z" /><path fill="#f16025" d="M17 16h1v1h-1z" /><path fill="#f06126" d="M18 16h1v1h-1zM31 16h1v1h-1z" /><path fill="#f16126" d="M19 16h12v1h-12zM36 16h49v1h-49zM14 17h1v1h-1z" /><path fill="#f06026" d="M32 16h1v1h-1zM35 16h1v1h-1z" /><path fill="#f06025" d="M34 16h1v1h-1z" /><path fill="#f06125" d="M15 17h1v1h-1z" /><path fill="#f16226" d="M16 17h69v1h-69z" /><path fill="#f16326" d="M14 18h71v1h-71z" /><path fill="#f16525" d="M14 19h71v1h-71z" /><path fill="#f16625" d="M14 20h71v1h-71z" /><path fill="#f16724" d="M14 21h39v1h-39zM65 21h1v1h-1zM67 21h18v1h-18z" /><path fill="#f06723" d="M53 21h1v1h-1zM63 21h1v1h-1z" /><path fill="#f16624" d="M54 21h1v1h-1zM62 21h1v1h-1z" /><path fill="#f06724" d="M55 21h1v1h-1z" /><path fill="#f06624" d="M64 21h1v1h-1z" /><path fill="#f16623" d="M66 21h1v1h-1z" /><path fill="#f16924" d="M14 22h35v1h-35zM71 22h14v1h-14z" /><path fill="#f06924" d="M49 22h1v1h-1zM69 22h1v1h-1z" /><path fill="#f06823" d="M50 22h1v1h-1zM70 22h1v1h-1z" /><path fill="#f06824" d="M85 22h1v1h-1z" /><path fill="#f26924" d="M14 23h1v1h-1z" /><path fill="#f26a24" d="M15 23h32v1h-32zM74 23h12v1h-12z" /><path fill="#f26a23" d="M47 23h1v1h-1z" /><path fill="#f16a23" d="M72 23h1v1h-1z" /><path fill="#f16923" d="M73 23h1v1h-1z" /><path fill="#f16a24" d="M86 23h1v1h-1z" /><path fill="#f16b22" d="M14 24h1v1h-1z" /><path fill="#f26b23" d="M15 24h29v1h-29zM45 24h1v1h-1zM76 24h11v1h-11z" /><path fill="#f26a22" d="M44 24h1v1h-1zM87 24h1v1h-1z" /><path fill="#f16a22" d="M75 24h1v1h-1z" /><path fill="#f16c22" d="M14 25h1v1h-1zM43 25h1v1h-1z" /><path fill="#f26c23" d="M15 25h27v1h-27zM78 25h10v1h-10z" /><path fill="#f16c23" d="M42 25h1v1h-1z" /><path fill="#f16b23" d="M77 25h1v1h-1z" /><path fill="#f26b22" d="M88 25h1v1h-1z" /><path fill="#f26e23" d="M15 26h26v1h-26zM80 26h9v1h-9z" /><path fill="#f26d23" d="M41 26h1v1h-1z" /><path fill="#f16d22" d="M78 26h1v1h-1z" /><path fill="#f16d23" d="M79 26h1v1h-1zM89 26h1v1h-1z" /><path fill="#f26f22" d="M15 27h25v1h-25zM81 27h8v1h-8z" /><path fill="#f26e21" d="M40 27h1v1h-1z" /><path fill="#f16e21" d="M80 27h1v1h-1z" /><path fill="#f16f22" d="M89 27h1v1h-1zM15 28h1v1h-1zM39 28h1v1h-1z" /><path fill="#f27022" d="M16 28h23v1h-23zM82 28h8v1h-8z" /><path fill="#f17022" d="M81 28h1v1h-1z" /><path fill="#f17021" d="M90 28h1v1h-1z" /><path fill="#f17221" d="M15 29h1v1h-1z" /><path fill="#f27222" d="M16 29h22v1h-22zM83 29h8v1h-8z" /><path fill="#f27121" d="M82 29h1v1h-1z" /><path fill="#f27321" d="M16 30h21v1h-21zM84 30h7v1h-7z" /><path fill="#f27220" d="M83 30h1v1h-1z" /><path fill="#f27221" d="M91 30h1v1h-1z" /><path fill="#f37321" d="M16 31h1v1h-1z" /><path fill="#f37421" d="M17 31h19v1h-19zM85 31h7v1h-7z" /><path fill="#f37420" d="M36 31h1v1h-1z" /><path fill="#f27421" d="M84 31h1v1h-1z" /><path fill="#f27420" d="M92 31h1v1h-1z" /><path fill="#f37621" d="M16 32h19v1h-19zM85 32h8v1h-8z" /><path fill="#f27620" d="M35 32h1v1h-1zM17 33h1v1h-1z" /><path fill="#f37720" d="M18 33h16v1h-16zM87 33h6v1h-6zM17 34h1v1h-1z" /><path fill="#f2771f" d="M34 33h1v1h-1z" /><path fill="#f3771f" d="M86 33h1v1h-1zM34 34h1v1h-1z" /><path fill="#f37820" d="M18 34h16v1h-16zM88 34h5v1h-5z" /><path fill="#f2781f" d="M87 34h1v1h-1z" /><path fill="#f27720" d="M93 34h1v1h-1z" /><path fill="#f37a1f" d="M18 35h1v1h-1zM65 35h2v1h-2z" /><path fill="#f37a20" d="M19 35h15v1h-15zM89 35h5v1h-5z" /><path fill="#f27920" d="M59 35h1v1h-1z" /><path fill="#f37920" d="M60 35h1v1h-1z" /><path fill="#f2791f" d="M61 35h1v1h-1z" /><path fill="#f27a20" d="M62 35h3v1h-3zM88 35h1v1h-1z" /><path fill="#f27a1f" d="M67 35h1v1h-1zM57 36h1v1h-1zM70 36h1v1h-1zM88 36h1v1h-1zM94 36h1v1h-1z" /><path fill="#f27b1f" d="M19 36h1v1h-1zM19 37h1v1h-1zM54 37h1v1h-1z" /><path fill="#f37b1f" d="M20 36h13v1h-13zM58 36h12v1h-12zM89 36h5v1h-5z" /><path fill="#f27b1e" d="M56 36h1v1h-1z" /><path fill="#f37b1e" d="M71 36h1v1h-1zM32 37h1v1h-1zM74 37h1v1h-1zM94 37h1v1h-1z" /><path fill="#f37c1f" d="M20 37h12v1h-12zM55 37h19v1h-19zM90 37h4v1h-4zM52 38h2v1h-2z" /><path fill="#f27c1e" d="M89 37h1v1h-1z" /><path fill="#f47d1f" d="M19 38h13v1h-13zM54 38h22v1h-22zM91 38h4v1h-4z" /><path fill="#f37d1f" d="M90 38h1v1h-1z" /><path fill="#f37e1e" d="M18 39h1v1h-1zM51 39h1v1h-1zM77 39h1v1h-1z" /><path fill="#f47f1e" d="M19 39h12v1h-12zM52 39h25v1h-25zM91 39h4v1h-4z" /><path fill="#f37f1e" d="M31 39h1v1h-1zM95 39h1v1h-1zM18 40h1v1h-1zM31 40h1v1h-1z" /><path fill="#f47e1d" d="M90 39h1v1h-1z" /><path fill="#f4801e" d="M19 40h12v1h-12zM51 40h27v1h-27zM92 40h3v1h-3zM49 41h1v1h-1zM91 41h1v1h-1z" /><path fill="#f4801d" d="M50 40h1v1h-1z" /><path fill="#f3801e" d="M78 40h1v1h-1zM91 40h1v1h-1z" /><path fill="#f47f1d" d="M95 40h1v1h-1z" /><path fill="#f4811e" d="M18 41h13v1h-13zM50 41h30v1h-30zM92 41h3v1h-3z" /><path fill="#f3811d" d="M80 41h1v1h-1z" /><path fill="#f3801d" d="M95 41h1v1h-1z" /><path fill="#f3831c" d="M17 42h1v1h-1zM30 43h1v1h-1z" /><path fill="#f4831d" d="M18 42h12v1h-12zM49 42h32v1h-32zM93 42h3v1h-3z" /><path fill="#f4831c" d="M30 42h1v1h-1zM60 43h1v1h-1zM82 43h1v1h-1zM92 43h1v1h-1z" /><path fill="#f4821c" d="M48 42h1v1h-1z" /><path fill="#f3821d" d="M81 42h1v1h-1z" /><path fill="#f3831d" d="M92 42h1v1h-1z" /><path fill="#f4841d" d="M17 43h13v1h-13zM48 43h11v1h-11zM63 43h1v1h-1zM65 43h17v1h-17zM93 43h3v1h-3z" /><path fill="#f4841c" d="M47 43h1v1h-1zM61 43h2v1h-2zM17 44h1v1h-1zM67 44h1v1h-1z" /><path fill="#f3841c" d="M59 43h1v1h-1z" /><path fill="#f3841d" d="M64 43h1v1h-1zM56 44h1v1h-1z" /><path fill="#f4851d" d="M18 44h12v1h-12zM47 44h9v1h-9zM68 44h15v1h-15zM93 44h3v1h-3z" /><path fill="#f4871c" d="M17 45h12v1h-12zM47 45h7v1h-7zM70 45h13v1h-13zM94 45h2v1h-2z" /><path fill="#f3861c" d="M29 45h1v1h-1z" /><path fill="#f4871b" d="M46 45h1v1h-1z" /><path fill="#f3871b" d="M54 45h2v1h-2zM69 45h1v1h-1z" /><path fill="#f3861b" d="M83 45h1v1h-1z" /><path fill="#f3871c" d="M93 45h1v1h-1z" /><path fill="#f5881c" d="M17 46h12v1h-12zM46 46h7v1h-7zM72 46h12v1h-12zM94 46h2v1h-2z" /><path fill="#f4881b" d="M29 46h1v1h-1zM29 47h1v1h-1zM52 47h1v1h-1z" /><path fill="#f5871c" d="M53 46h1v1h-1zM71 46h1v1h-1z" /><path fill="#f5881b" d="M84 46h1v1h-1zM72 47h1v1h-1z" /><path fill="#f5891b" d="M17 47h12v1h-12zM46 47h6v1h-6zM73 47h12v1h-12zM94 47h2v1h-2z" /><path fill="#f4881a" d="M45 47h1v1h-1z" /><path fill="#f4891b" d="M85 47h1v1h-1z" /><path fill="#f58b1a" d="M15 48h1v1h-1zM73 48h1v1h-1zM86 49h1v1h-1z" /><path fill="#f48a1a" d="M16 48h1v1h-1z" /><path fill="#f58b1b" d="M17 48h12v1h-12zM45 48h6v1h-6zM74 48h11v1h-11z" /><path fill="#f48a1b" d="M51 48h1v1h-1z" /><path fill="#f48b1a" d="M85 48h1v1h-1z" /><path fill="#f58a1b" d="M94 48h2v1h-2z" /><path fill="#f48c1a" d="M14 49h1v1h-1zM51 49h1v1h-1zM13 50h1v1h-1zM44 50h1v1h-1z" /><path fill="#f58c1b" d="M15 49h14v1h-14zM45 49h6v1h-6zM75 49h11v1h-11z" /><path fill="#f58c1a" d="M74 49h1v1h-1zM75 50h1v1h-1z" /><path fill="#f58d1a" d="M14 50h15v1h-15zM45 50h5v1h-5zM76 50h10v1h-10zM11 51h1v1h-1z" /><path fill="#f48d19" d="M50 50h1v1h-1zM86 50h1v1h-1z" /><path fill="#f58e1a" d="M12 51h17v1h-17zM45 51h5v1h-5zM76 51h11v1h-11z" /><path fill="#f58e19" d="M44 51h1v1h-1z" /><path fill="#f59019" d="M10 52h1v1h-1zM49 53h1v1h-1z" /><path fill="#f5901a" d="M11 52h18v1h-18zM44 52h5v1h-5zM77 52h10v1h-10z" /><path fill="#f48f19" d="M49 52h1v1h-1z" /><path fill="#f58f19" d="M76 52h1v1h-1z" /><path fill="#f49019" d="M87 52h1v1h-1zM87 53h1v1h-1z" /><path fill="#f49119" d="M9 53h1v1h-1z" /><path fill="#f59119" d="M10 53h19v1h-19zM44 53h5v1h-5zM77 53h10v1h-10z" /><path fill="#f69218" d="M8 54h1v1h-1zM77 54h1v1h-1z" /><path fill="#f69219" d="M9 54h20v1h-20zM44 54h5v1h-5zM78 54h10v1h-10z" /><path fill="#f69419" d="M8 55h21v1h-21zM44 55h5v1h-5zM78 55h10v1h-10z" /><path fill="#f59418" d="M88 55h1v1h-1z" /><path fill="#f69517" d="M7 56h1v1h-1zM78 57h1v1h-1z" /><path fill="#f69518" d="M8 56h21v1h-21zM44 56h5v1h-5zM78 56h10v1h-10zM88 57h1v1h-1z" /><path fill="#f59417" d="M88 56h1v1h-1z" /><path fill="#f59518" d="M6 57h1v1h-1z" /><path fill="#f69618" d="M7 57h22v1h-22zM45 57h4v1h-4zM79 57h9v1h-9z" /><path fill="#f59617" d="M44 57h1v1h-1z" /><path fill="#f59718" d="M6 58h1v1h-1z" /><path fill="#f69818" d="M7 58h22v1h-22zM45 58h4v1h-4zM78 58h10v1h-10z" /><path fill="#f69817" d="M29 58h1v1h-1zM44 58h1v1h-1z" /><path fill="#f59818" d="M49 58h1v1h-1z" /><path fill="#f69718" d="M88 58h1v1h-1z" /><path fill="#f59916" d="M5 59h1v1h-1z" /><path fill="#f69917" d="M6 59h24v1h-24zM45 59h4v1h-4zM79 59h10v1h-10z" /><path fill="#f59816" d="M44 59h1v1h-1zM78 59h1v1h-1z" /><path fill="#f69816" d="M49 59h1v1h-1z" /><path fill="#f69a17" d="M5 60h24v1h-24zM46 60h3v1h-3zM79 60h10v1h-10z" /><path fill="#f59a17" d="M29 60h1v1h-1z" /><path fill="#f59917" d="M45 60h1v1h-1zM49 60h1v1h-1z" /><path fill="#f59a16" d="M78 60h1v1h-1z" /><path fill="#f69b16" d="M4 61h1v1h-1z" /><path fill="#f79b17" d="M5 61h25v1h-25zM46 61h4v1h-4zM79 61h10v1h-10z" /><path fill="#f69b17" d="M45 61h1v1h-1z" /><path fill="#f79b16" d="M50 61h1v1h-1z" /><path fill="#f79a16" d="M78 61h1v1h-1z" /><path fill="#f69c16" d="M4 62h1v1h-1zM30 62h1v1h-1z" /><path fill="#f79d16" d="M5 62h25v1h-25zM47 62h4v1h-4zM79 62h10v1h-10z" /><path fill="#f69d16" d="M46 62h1v1h-1zM78 62h1v1h-1z" /><path fill="#f79d15" d="M5 63h1v1h-1z" /><path fill="#f79e16" d="M6 63h24v1h-24zM47 63h4v1h-4zM79 63h10v1h-10zM47 64h1v1h-1zM52 64h1v1h-1z" /><path fill="#f69e16" d="M30 63h1v1h-1zM46 63h1v1h-1zM78 63h1v1h-1z" /><path fill="#f79e15" d="M51 63h1v1h-1z" /><path fill="#f79f15" d="M6 64h1v1h-1z" /><path fill="#f79f16" d="M7 64h25v1h-25zM48 64h4v1h-4zM78 64h10v1h-10z" /><path fill="#f69f15" d="M88 64h1v1h-1z" /><path fill="#f6a114" d="M7 65h1v1h-1zM48 65h1v1h-1zM55 66h1v1h-1z" /><path fill="#f7a115" d="M8 65h23v1h-23zM49 65h4v1h-4zM78 65h11v1h-11zM77 66h1v1h-1z" /><path fill="#f7a015" d="M31 65h1v1h-1zM77 65h1v1h-1z" /><path fill="#f6a115" d="M53 65h1v1h-1zM89 65h1v1h-1zM49 66h1v1h-1zM63 66h1v1h-1z" /><path fill="#f7a114" d="M54 65h1v1h-1z" /><path fill="#f6a215" d="M8 66h1v1h-1zM56 66h1v1h-1zM64 66h1v1h-1zM10 67h1v1h-1zM64 67h1v1h-1z" /><path fill="#f7a215" d="M9 66h23v1h-23zM50 66h5v1h-5zM65 66h1v1h-1zM78 66h12v1h-12zM50 67h1v1h-1z" /><path fill="#f6a214" d="M90 66h1v1h-1z" /><path fill="#f7a315" d="M11 67h21v1h-21zM52 67h12v1h-12zM77 67h14v1h-14z" /><path fill="#f7a314" d="M32 67h1v1h-1z" /><path fill="#f6a314" d="M51 67h1v1h-1zM91 67h1v1h-1z" /><path fill="#f7a513" d="M11 68h1v1h-1zM55 69h1v1h-1zM61 69h1v1h-1z" /><path fill="#f7a514" d="M12 68h21v1h-21zM54 68h9v1h-9zM76 68h16v1h-16zM33 69h1v1h-1zM60 69h1v1h-1zM76 69h1v1h-1zM92 69h1v1h-1z" /><path fill="#f7a413" d="M33 68h1v1h-1z" /><path fill="#f6a413" d="M52 68h1v1h-1z" /><path fill="#f6a514" d="M53 68h1v1h-1z" /><path fill="#f6a513" d="M63 68h1v1h-1z" /><path fill="#f8a613" d="M13 69h1v1h-1zM15 70h1v1h-1z" /><path fill="#f8a614" d="M14 69h19v1h-19zM77 69h15v1h-15z" /><path fill="#f7a613" d="M56 69h1v1h-1zM75 70h1v1h-1z" /><path fill="#f8a514" d="M57 69h1v1h-1z" /><path fill="#f7a614" d="M58 69h2v1h-2z" /><path fill="#f8a714" d="M16 70h19v1h-19zM76 70h17v1h-17z" /><path fill="#f8a912" d="M18 71h1v1h-1zM93 71h1v1h-1z" /><path fill="#f7a812" d="M19 71h1v1h-1z" /><path fill="#f8a913" d="M20 71h15v1h-15zM75 71h18v1h-18z" /><path fill="#f7a813" d="M35 71h1v1h-1z" /><path fill="#f7a912" d="M21 72h1v1h-1z" /><path fill="#f8aa13" d="M22 72h15v1h-15zM74 72h19v1h-19z" /><path fill="#f7aa13" d="M93 72h1v1h-1z" /><path fill="#f7aa12" d="M22 73h1v1h-1zM37 73h1v1h-1z" /><path fill="#f8ab13" d="M23 73h14v1h-14zM74 73h20v1h-20z" /><path fill="#f7ab12" d="M73 73h1v1h-1zM23 74h1v1h-1z" /><path fill="#f8ac12" d="M24 74h15v1h-15zM72 74h21v1h-21z" /><path fill="#f8ac11" d="M93 74h1v1h-1z" /><path fill="#f8ad12" d="M23 75h1v1h-1z" /><path fill="#f8ae12" d="M24 75h16v1h-16zM71 75h20v1h-20z" /><path fill="#f7ad12" d="M91 75h1v1h-1z" /><path fill="#f7ae11" d="M24 76h1v1h-1z" /><path fill="#f8af11" d="M25 76h15v1h-15zM71 76h18v1h-18z" /><path fill="#f7af11" d="M40 76h1v1h-1z" /><path fill="#f7af10" d="M70 76h1v1h-1z" /><path fill="#f7ae10" d="M89 76h1v1h-1z" /><path fill="#f8af10" d="M90 76h1v1h-1zM25 77h1v1h-1z" /><path fill="#f9b011" d="M26 77h16v1h-16zM70 77h14v1h-14z" /><path fill="#f8b011" d="M42 77h1v1h-1zM85 77h1v1h-1z" /><path fill="#f9b010" d="M69 77h1v1h-1zM84 77h1v1h-1zM87 77h1v1h-1z" /><path fill="#f9af11" d="M86 77h1v1h-1z" /><path fill="#f9b211" d="M26 78h17v1h-17zM67 78h1v1h-1zM69 78h15v1h-15z" /><path fill="#f8b111" d="M43 78h1v1h-1z" /><path fill="#f9b111" d="M44 78h1v1h-1z" /><path fill="#f8b211" d="M68 78h1v1h-1z" /><path fill="#f9b30f" d="M26 79h1v1h-1zM65 79h1v1h-1zM49 80h1v1h-1zM62 80h1v1h-1z" /><path fill="#f9b310" d="M27 79h19v1h-19zM67 79h15v1h-15zM27 80h1v1h-1z" /><path fill="#f8b30f" d="M46 79h1v1h-1zM66 79h1v1h-1z" /><path fill="#f8b20f" d="M82 79h1v1h-1z" /><path fill="#f9b410" d="M28 80h20v1h-20zM64 80h18v1h-18z" /><path fill="#f8b410" d="M48 80h1v1h-1z" /><path fill="#f8b40f" d="M63 80h1v1h-1z" /><path fill="#f8b50f" d="M27 81h1v1h-1z" /><path fill="#f9b610" d="M28 81h24v1h-24zM54 81h1v1h-1zM61 81h20v1h-20z" /><path fill="#f8b610" d="M52 81h1v1h-1z" /><path fill="#f9b60f" d="M53 81h1v1h-1z" /><path fill="#f9b510" d="M55 81h5v1h-5z" /><path fill="#f8b510" d="M60 81h1v1h-1z" /><path fill="#f8b60f" d="M81 81h1v1h-1zM27 82h1v1h-1z" /><path fill="#f9b70f" d="M28 82h53v1h-53z" /><path fill="#f9b80f" d="M27 83h52v1h-52z" /><path fill="#f9b80e" d="M79 83h1v1h-1z" /><path fill="#f9b90f" d="M27 84h51v1h-51z" /><path fill="#f8b80e" d="M78 84h1v1h-1z" /><path fill="#f9bb0d" d="M26 85h1v1h-1z" /><path fill="#fabb0e" d="M27 85h51v1h-51zM26 86h1v1h-1z" /><path fill="#fabc0e" d="M27 86h48v1h-48z" /><path fill="#f9bc0e" d="M75 86h1v1h-1z" /><path fill="#f9bd0e" d="M26 87h1v1h-1z" /><path fill="#fabd0e" d="M27 87h48v1h-48z" /><path fill="#f9be0c" d="M26 88h1v1h-1z" /><path fill="#fabf0d" d="M27 88h48v1h-48zM26 89h1v1h-1z" /><path fill="#fac00d" d="M27 89h48v1h-48z" /><path fill="#f9c00c" d="M26 90h1v1h-1z" /><path fill="#fac10d" d="M27 90h16v1h-16zM44 90h30v1h-30z" /><path fill="#f9c00d" d="M43 90h1v1h-1zM74 90h1v1h-1z" /><path fill="#fac30c" d="M27 91h15v1h-15zM48 91h26v1h-26zM40 92h1v1h-1zM51 92h1v1h-1z" /><path fill="#fac20c" d="M42 91h1v1h-1zM46 91h1v1h-1z" /><path fill="#f9c20b" d="M45 91h1v1h-1z" /><path fill="#f9c20c" d="M47 91h1v1h-1z" /><path fill="#fac30b" d="M74 91h1v1h-1zM53 92h1v1h-1z" /><path fill="#fbc40c" d="M27 92h13v1h-13zM54 92h20v1h-20z" /><path fill="#fbc30b" d="M41 92h1v1h-1zM50 92h1v1h-1zM52 92h1v1h-1z" /><path fill="#fac40c" d="M27 93h1v1h-1z" /><path fill="#fbc50c" d="M28 93h10v1h-10zM39 93h1v1h-1zM59 93h14v1h-14z" /><path fill="#fac50b" d="M38 93h1v1h-1zM73 93h1v1h-1z" /><path fill="#fac60b" d="M27 94h1v1h-1z" /><path fill="#fbc70b" d="M28 94h7v1h-7zM59 94h14v1h-14zM29 95h2v1h-2zM60 95h1v1h-1z" /><path fill="#fac70b" d="M35 94h1v1h-1zM72 95h1v1h-1z" /><path fill="#fac70a" d="M36 94h1v1h-1z" /><path fill="#fbc60a" d="M73 94h1v1h-1z" /><path fill="#fac80b" d="M28 95h1v1h-1zM62 96h1v1h-1z" /><path fill="#fbc80a" d="M31 95h1v1h-1z" /><path fill="#fbc80b" d="M32 95h1v1h-1zM61 95h11v1h-11z" /><path fill="#fbc90b" d="M63 96h9v1h-9z" /><path fill="#fbca0a" d="M63 97h8v1h-8z" /><path fill="#fbc90a" d="M71 97h1v1h-1z" /><path fill="#fbcc0a" d="M65 98h5v1h-5z" /><path fill="#facb0a" d="M70 98h1v1h-1z" /><path fill="#facd09" d="M68 99h2v1h-2z" /></svg>