<svg xmlns="http://www.w3.org/2000/svg" viewBox="0 0 100 100" width="1em" height="1em"><path fill="#000000" d="M48 0h4v1h-4zM46 1h7v1h-7zM44 2h10v1h-10zM42 3h12v1h-12zM40 4h14v1h-14zM38 5h16v1h-16zM36 6h17v1h-17zM34 7h18v1h-18zM32 8h18v1h-18zM30 9h18v1h-18zM28 10h18v1h-18zM26 11h18v1h-18zM24 12h18v1h-18zM70 12h6v1h-6zM22 13h18v1h-18zM68 13h10v1h-10zM20 14h18v1h-18zM66 14h14v1h-14zM18 15h18v1h-18zM64 15h18v1h-18zM16 16h18v1h-18zM62 16h22v1h-22zM14 17h18v1h-18zM60 17h26v1h-26zM12 18h18v1h-18zM58 18h30v1h-30zM10 19h18v1h-18zM56 19h34v1h-34zM8 20h18v1h-18zM54 20h18v1h-18zM74 20h18v1h-18zM6 21h18v1h-18zM52 21h18v1h-18zM76 21h18v1h-18zM4 22h18v1h-18zM50 22h18v1h-18zM78 22h18v1h-18zM2 23h18v1h-18zM48 23h18v1h-18zM80 23h18v1h-18zM1 24h17v1h-17zM47 24h17v1h-17zM82 24h17v1h-17zM0 25h16v1h-16zM46 25h16v1h-16zM84 25h16v1h-16zM0 26h14v1h-14zM46 26h14v1h-14zM86 26h14v1h-14zM0 27h14v1h-14zM46 27h12v1h-12zM86 27h14v1h-14zM0 28h16v1h-16zM46 28h10v1h-10zM84 28h16v1h-16zM1 29h17v1h-17zM47 29h7v1h-7zM82 29h17v1h-17zM2 30h18v1h-18zM48 30h4v1h-4zM80 30h18v1h-18zM4 31h18v1h-18zM78 31h18v1h-18zM6 32h18v1h-18zM76 32h18v1h-18zM8 33h18v1h-18zM74 33h18v1h-18zM10 34h18v1h-18zM72 34h18v1h-18zM12 35h18v1h-18zM70 35h18v1h-18zM14 36h18v1h-18zM68 36h18v1h-18zM16 37h18v1h-18zM66 37h18v1h-18zM18 38h18v1h-18zM64 38h18v1h-18zM20 39h18v1h-18zM62 39h18v1h-18zM22 40h18v1h-18zM60 40h18v1h-18zM24 41h18v1h-18zM58 41h18v1h-18zM26 42h18v1h-18zM56 42h18v1h-18zM28 43h18v1h-18zM54 43h18v1h-18zM30 44h18v1h-18zM52 44h18v1h-18zM32 45h36v1h-36zM2 46h4v1h-4zM34 46h32v1h-32zM94 46h4v1h-4zM1 47h7v1h-7zM36 47h28v1h-28zM92 47h7v1h-7zM0 48h10v1h-10zM38 48h24v1h-24zM90 48h10v1h-10zM0 49h12v1h-12zM40 49h20v1h-20zM88 49h12v1h-12zM0 50h14v1h-14zM42 50h16v1h-16zM86 50h14v1h-14zM0 51h16v1h-16zM44 51h12v1h-12zM84 51h16v1h-16zM1 52h17v1h-17zM46 52h8v1h-8zM82 52h17v1h-17zM2 53h18v1h-18zM48 53h4v1h-4zM80 53h18v1h-18zM4 54h18v1h-18zM78 54h18v1h-18zM6 55h18v1h-18zM76 55h18v1h-18zM8 56h18v1h-18zM74 56h18v1h-18zM10 57h18v1h-18zM72 57h18v1h-18zM12 58h18v1h-18zM70 58h18v1h-18zM14 59h18v1h-18zM68 59h18v1h-18zM16 60h18v1h-18zM66 60h18v1h-18zM18 61h18v1h-18zM64 61h18v1h-18zM20 62h18v1h-18zM62 62h18v1h-18zM22 63h18v1h-18zM60 63h18v1h-18zM24 64h18v1h-18zM58 64h18v1h-18zM26 65h18v1h-18zM56 65h18v1h-18zM28 66h18v1h-18zM54 66h18v1h-18zM30 67h18v1h-18zM52 67h18v1h-18zM32 68h36v1h-36zM2 69h4v1h-4zM34 69h32v1h-32zM94 69h4v1h-4zM1 70h7v1h-7zM36 70h28v1h-28zM92 70h7v1h-7zM0 71h10v1h-10zM38 71h24v1h-24zM90 71h10v1h-10zM0 72h12v1h-12zM40 72h20v1h-20zM88 72h12v1h-12zM0 73h14v1h-14zM42 73h16v1h-16zM86 73h14v1h-14zM0 74h16v1h-16zM44 74h12v1h-12zM84 74h16v1h-16zM1 75h17v1h-17zM46 75h8v1h-8zM82 75h17v1h-17zM2 76h18v1h-18zM48 76h4v1h-4zM80 76h18v1h-18zM4 77h18v1h-18zM78 77h18v1h-18zM6 78h18v1h-18zM76 78h18v1h-18zM8 79h18v1h-18zM74 79h18v1h-18zM10 80h18v1h-18zM72 80h18v1h-18zM12 81h18v1h-18zM70 81h18v1h-18zM14 82h18v1h-18zM68 82h18v1h-18zM16 83h18v1h-18zM66 83h18v1h-18zM18 84h18v1h-18zM64 84h18v1h-18zM20 85h18v1h-18zM62 85h18v1h-18zM22 86h18v1h-18zM60 86h18v1h-18zM24 87h18v1h-18zM58 87h18v1h-18zM26 88h18v1h-18zM56 88h18v1h-18zM28 89h18v1h-18zM54 89h18v1h-18zM30 90h18v1h-18zM52 90h18v1h-18zM32 91h36v1h-36zM34 92h32v1h-32zM36 93h28v1h-28zM38 94h24v1h-24zM40 95h20v1h-20zM42 96h16v1h-16zM44 97h12v1h-12zM46 98h8v1h-8zM48 99h4v1h-4z" /></svg>