<svg xmlns="http://www.w3.org/2000/svg" viewBox="0 0 100 100" width="1em" height="1em"><path fill="#000000" d="M62 0h2v1h-2zM58 1h7v1h-7zM54 2h12v1h-12zM50 3h17v1h-17zM47 4h21v1h-21zM43 5h26v1h-26zM39 6h31v1h-31zM36 7h35v1h-35zM32 8h40v1h-40zM28 9h45v1h-45zM24 10h50v1h-50zM21 11h54v1h-54zM17 12h59v1h-59zM14 13h14v1h-14zM72 13h5v1h-5zM13 14h14v1h-14zM73 14h5v1h-5zM13 15h14v1h-14zM73 15h6v1h-6zM13 16h13v1h-13zM74 16h6v1h-6zM12 17h14v1h-14zM40 17h4v1h-4zM74 17h7v1h-7zM12 18h13v1h-13zM39 18h9v1h-9zM75 18h7v1h-7zM12 19h12v1h-12zM38 19h14v1h-14zM76 19h7v1h-7zM12 20h12v1h-12zM37 20h19v1h-19zM76 20h8v1h-8zM11 21h12v1h-12zM36 21h23v1h-23zM77 21h8v1h-8zM11 22h12v1h-12zM35 22h28v1h-28zM77 22h9v1h-9zM11 23h11v1h-11zM34 23h33v1h-33zM78 23h9v1h-9zM10 24h12v1h-12zM33 24h37v1h-37zM78 24h10v1h-10zM10 25h11v1h-11zM32 25h42v1h-42zM79 25h10v1h-10zM10 26h10v1h-10zM31 26h44v1h-44zM80 26h10v1h-10zM10 27h10v1h-10zM30 27h45v1h-45zM80 27h11v1h-11zM9 28h10v1h-10zM29 28h46v1h-46zM81 28h11v1h-11zM9 29h10v1h-10zM28 29h47v1h-47zM81 29h12v1h-12zM9 30h9v1h-9zM27 30h49v1h-49zM82 30h12v1h-12zM9 31h9v1h-9zM26 31h50v1h-50zM82 31h13v1h-13zM8 32h9v1h-9zM25 32h51v1h-51zM83 32h13v1h-13zM8 33h8v1h-8zM24 33h52v1h-52zM84 33h13v1h-13zM8 34h8v1h-8zM23 34h54v1h-54zM84 34h14v1h-14zM7 35h8v1h-8zM22 35h55v1h-55zM85 35h14v1h-14zM7 36h8v1h-8zM21 36h56v1h-56zM85 36h15v1h-15zM7 37h7v1h-7zM20 37h58v1h-58zM86 37h14v1h-14zM7 38h7v1h-7zM19 38h59v1h-59zM86 38h13v1h-13zM6 39h7v1h-7zM18 39h60v1h-60zM87 39h12v1h-12zM6 40h6v1h-6zM17 40h61v1h-61zM88 40h11v1h-11zM6 41h6v1h-6zM17 41h62v1h-62zM88 41h11v1h-11zM6 42h5v1h-5zM17 42h62v1h-62zM89 42h9v1h-9zM5 43h6v1h-6zM17 43h62v1h-62zM89 43h9v1h-9zM5 44h5v1h-5zM18 44h61v1h-61zM90 44h8v1h-8zM5 45h4v1h-4zM18 45h62v1h-62zM91 45h7v1h-7zM5 46h4v1h-4zM18 46h62v1h-62zM91 46h6v1h-6zM4 47h4v1h-4zM18 47h62v1h-62zM92 47h5v1h-5zM4 48h4v1h-4zM19 48h62v1h-62zM92 48h5v1h-5zM4 49h3v1h-3zM19 49h62v1h-62zM93 49h4v1h-4zM3 50h4v1h-4zM19 50h62v1h-62zM93 50h3v1h-3zM3 51h5v1h-5zM19 51h62v1h-62zM92 51h4v1h-4zM3 52h5v1h-5zM20 52h62v1h-62zM92 52h4v1h-4zM3 53h6v1h-6zM20 53h62v1h-62zM91 53h4v1h-4zM2 54h7v1h-7zM20 54h62v1h-62zM91 54h4v1h-4zM2 55h8v1h-8zM21 55h61v1h-61zM90 55h5v1h-5zM2 56h9v1h-9zM21 56h62v1h-62zM89 56h6v1h-6zM2 57h9v1h-9zM21 57h62v1h-62zM89 57h5v1h-5zM1 58h11v1h-11zM21 58h62v1h-62zM88 58h6v1h-6zM1 59h11v1h-11zM22 59h61v1h-61zM88 59h6v1h-6zM1 60h12v1h-12zM22 60h60v1h-60zM87 60h7v1h-7zM1 61h13v1h-13zM22 61h59v1h-59zM86 61h7v1h-7zM0 62h14v1h-14zM22 62h58v1h-58zM86 62h7v1h-7zM0 63h15v1h-15zM23 63h56v1h-56zM85 63h8v1h-8zM1 64h14v1h-14zM23 64h55v1h-55zM85 64h8v1h-8zM2 65h14v1h-14zM23 65h54v1h-54zM84 65h8v1h-8zM3 66h13v1h-13zM23 66h53v1h-53zM84 66h8v1h-8zM4 67h13v1h-13zM24 67h51v1h-51zM83 67h9v1h-9zM5 68h13v1h-13zM24 68h50v1h-50zM82 68h9v1h-9zM6 69h12v1h-12zM24 69h49v1h-49zM82 69h9v1h-9zM7 70h12v1h-12zM25 70h47v1h-47zM81 70h10v1h-10zM8 71h11v1h-11zM25 71h46v1h-46zM81 71h10v1h-10zM9 72h11v1h-11zM25 72h45v1h-45zM80 72h10v1h-10zM10 73h10v1h-10zM25 73h44v1h-44zM80 73h10v1h-10zM11 74h10v1h-10zM26 74h42v1h-42zM79 74h11v1h-11zM12 75h10v1h-10zM30 75h37v1h-37zM78 75h12v1h-12zM13 76h9v1h-9zM34 76h32v1h-32zM78 76h11v1h-11zM14 77h9v1h-9zM37 77h28v1h-28zM77 77h12v1h-12zM15 78h8v1h-8zM41 78h23v1h-23zM77 78h12v1h-12zM16 79h8v1h-8zM45 79h18v1h-18zM76 79h12v1h-12zM17 80h7v1h-7zM48 80h14v1h-14zM76 80h12v1h-12zM18 81h7v1h-7zM52 81h9v1h-9zM75 81h13v1h-13zM19 82h7v1h-7zM56 82h4v1h-4zM74 82h14v1h-14zM20 83h6v1h-6zM74 83h13v1h-13zM21 84h6v1h-6zM73 84h14v1h-14zM22 85h5v1h-5zM73 85h14v1h-14zM23 86h5v1h-5zM72 86h14v1h-14zM24 87h59v1h-59zM25 88h55v1h-55zM26 89h50v1h-50zM27 90h45v1h-45zM28 91h40v1h-40zM29 92h36v1h-36zM30 93h31v1h-31zM31 94h26v1h-26zM32 95h22v1h-22zM33 96h17v1h-17zM34 97h12v1h-12zM35 98h7v1h-7zM36 99h2v1h-2z" /></svg>