<svg xmlns="http://www.w3.org/2000/svg" viewBox="0 0 100 100" width="1em" height="1em"><path fill="#fffbe1" d="M19 35h1v1h-1zM21 35h2v1h-2zM24 35h1v1h-1zM40 35h1v1h-1zM42 35h1v1h-1zM58 36h1v1h-1zM75 36h1v1h-1zM27 37h1v1h-1zM48 37h1v1h-1zM14 38h1v1h-1zM57 38h1v1h-1zM75 38h1v1h-1zM88 38h1v1h-1zM13 39h1v1h-1zM21 41h1v1h-1zM29 41h1v1h-1zM77 41h6v1h-6zM11 42h1v1h-1zM22 42h1v1h-1zM32 43h1v1h-1zM10 44h1v1h-1zM23 44h1v1h-1zM54 44h1v1h-1zM24 45h5v1h-5zM9 46h1v1h-1zM16 46h1v1h-1zM40 46h1v1h-1zM84 46h1v1h-1zM9 47h1v1h-1zM33 47h1v1h-1zM53 47h1v1h-1zM59 47h1v1h-1zM79 47h1v1h-1zM90 47h1v1h-1zM42 48h1v1h-1zM52 49h1v1h-1zM72 49h1v1h-1zM8 50h1v1h-1zM35 50h1v1h-1zM36 51h1v1h-1zM61 51h1v1h-1zM72 51h1v1h-1zM82 51h1v1h-1zM37 52h1v1h-1zM79 52h1v1h-1zM8 53h1v1h-1zM88 53h1v1h-1zM8 54h1v1h-1zM28 54h2v1h-2zM38 54h1v1h-1zM46 54h1v1h-1zM56 54h1v1h-1zM8 55h1v1h-1zM39 55h1v1h-1zM49 55h1v1h-1zM57 55h3v1h-3zM29 56h1v1h-1zM39 56h1v1h-1zM85 56h1v1h-1zM27 57h1v1h-1zM8 58h1v1h-1zM16 58h1v1h-1zM27 58h1v1h-1zM48 58h1v1h-1zM70 58h1v1h-1zM78 58h1v1h-1zM36 59h1v1h-1zM70 59h1v1h-1zM9 60h1v1h-1zM45 60h1v1h-1zM47 60h1v1h-1zM45 61h1v1h-1zM69 62h1v1h-1zM76 62h1v1h-1zM23 63h1v1h-1zM31 63h1v1h-1zM13 64h1v1h-1zM45 64h1v1h-1zM75 64h1v1h-1zM37 65h1v1h-1z" /><path fill="#fffce0" d="M20 35h1v1h-1zM23 35h1v1h-1zM39 35h1v1h-1zM26 36h1v1h-1zM85 36h1v1h-1zM49 39h1v1h-1zM56 40h1v1h-1zM20 41h1v1h-1zM43 42h1v1h-1zM61 43h1v1h-1zM79 43h1v1h-1zM60 45h1v1h-1zM79 48h1v1h-1zM90 48h1v1h-1zM83 49h1v1h-1zM51 51h1v1h-1zM89 51h1v1h-1zM61 54h1v1h-1zM71 54h1v1h-1zM87 54h1v1h-1zM28 55h1v1h-1zM86 55h1v1h-1zM35 56h1v1h-1zM46 56h1v1h-1zM38 59h1v1h-1zM76 61h1v1h-1zM24 62h1v1h-1zM44 62h1v1h-1zM21 64h1v1h-1zM33 64h1v1h-1z" /><path fill="#fffbe0" d="M41 35h1v1h-1zM43 35h1v1h-1zM17 36h1v1h-1zM36 36h2v1h-2zM46 36h1v1h-1zM84 36h1v1h-1zM87 37h1v1h-1zM48 38h1v1h-1zM89 39h1v1h-1zM33 40h1v1h-1zM49 40h1v1h-1zM40 41h1v1h-1zM18 42h1v1h-1zM74 42h1v1h-1zM77 42h1v1h-1zM90 42h1v1h-1zM17 43h1v1h-1zM43 43h1v1h-1zM55 43h1v1h-1zM84 43h1v1h-1zM17 44h1v1h-1zM32 44h1v1h-1zM39 44h1v1h-1zM60 44h1v1h-1zM80 44h1v1h-1zM84 44h1v1h-1zM16 45h1v1h-1zM29 45h1v1h-1zM54 45h1v1h-1zM73 45h1v1h-1zM84 45h1v1h-1zM73 46h1v1h-1zM41 47h1v1h-1zM73 47h1v1h-1zM15 48h1v1h-1zM15 49h1v1h-1zM43 49h1v1h-1zM58 49h1v1h-1zM61 49h1v1h-1zM20 50h1v1h-1zM31 50h1v1h-1zM61 50h1v1h-1zM89 50h1v1h-1zM20 51h1v1h-1zM78 51h1v1h-1zM8 52h1v1h-1zM31 52h1v1h-1zM45 52h1v1h-1zM57 52h1v1h-1zM61 52h1v1h-1zM78 52h1v1h-1zM88 52h1v1h-1zM38 53h1v1h-1zM50 53h1v1h-1zM20 54h2v1h-2zM50 54h1v1h-1zM60 55h2v1h-2zM71 55h1v1h-1zM8 56h1v1h-1zM49 56h1v1h-1zM84 56h1v1h-1zM15 57h1v1h-1zM82 57h1v1h-1zM15 58h1v1h-1zM46 58h1v1h-1zM79 58h1v1h-1zM26 59h1v1h-1zM29 59h1v1h-1zM37 59h1v1h-1zM73 59h1v1h-1zM70 60h1v1h-1zM74 60h2v1h-2zM30 61h1v1h-1zM20 64h1v1h-1zM41 64h1v1h-1zM52 64h1v1h-1zM61 64h1v1h-1zM69 64h1v1h-1z" /><path fill="#fffce1" d="M44 35h1v1h-1zM18 36h8v1h-8zM38 36h8v1h-8zM59 36h9v1h-9zM76 36h8v1h-8zM15 37h12v1h-12zM35 37h13v1h-13zM58 37h10v1h-10zM75 37h12v1h-12zM15 38h14v1h-14zM34 38h14v1h-14zM58 38h10v1h-10zM76 38h12v1h-12zM14 39h15v1h-15zM34 39h15v1h-15zM57 39h11v1h-11zM75 39h14v1h-14zM12 40h18v1h-18zM34 40h15v1h-15zM57 40h11v1h-11zM75 40h15v1h-15zM12 41h8v1h-8zM22 41h7v1h-7zM33 41h7v1h-7zM43 41h7v1h-7zM56 41h12v1h-12zM74 41h3v1h-3zM83 41h8v1h-8zM12 42h6v1h-6zM23 42h7v1h-7zM33 42h7v1h-7zM44 42h6v1h-6zM55 42h13v1h-13zM75 42h2v1h-2zM83 42h7v1h-7zM11 43h6v1h-6zM23 43h7v1h-7zM33 43h7v1h-7zM44 43h6v1h-6zM56 43h5v1h-5zM62 43h6v1h-6zM74 43h5v1h-5zM85 43h6v1h-6zM11 44h6v1h-6zM24 44h6v1h-6zM33 44h6v1h-6zM55 44h5v1h-5zM62 44h6v1h-6zM74 44h6v1h-6zM85 44h6v1h-6zM10 45h6v1h-6zM33 45h7v1h-7zM55 45h5v1h-5zM62 45h6v1h-6zM74 45h6v1h-6zM85 45h6v1h-6zM10 46h6v1h-6zM33 46h7v1h-7zM54 46h6v1h-6zM62 46h6v1h-6zM74 46h6v1h-6zM85 46h6v1h-6zM10 47h6v1h-6zM34 47h7v1h-7zM54 47h5v1h-5zM62 47h6v1h-6zM74 47h5v1h-5zM84 47h6v1h-6zM9 48h6v1h-6zM34 48h8v1h-8zM53 48h6v1h-6zM62 48h6v1h-6zM73 48h6v1h-6zM84 48h6v1h-6zM9 49h6v1h-6zM21 49h11v1h-11zM34 49h9v1h-9zM53 49h5v1h-5zM62 49h6v1h-6zM73 49h6v1h-6zM84 49h6v1h-6zM9 50h6v1h-6zM21 50h10v1h-10zM36 50h9v1h-9zM52 50h7v1h-7zM62 50h6v1h-6zM72 50h7v1h-7zM83 50h6v1h-6zM8 51h7v1h-7zM21 51h11v1h-11zM37 51h8v1h-8zM52 51h6v1h-6zM62 51h6v1h-6zM73 51h5v1h-5zM83 51h6v1h-6zM9 52h6v1h-6zM20 52h11v1h-11zM38 52h7v1h-7zM51 52h6v1h-6zM62 52h6v1h-6zM72 52h6v1h-6zM80 52h8v1h-8zM9 53h6v1h-6zM20 53h11v1h-11zM39 53h7v1h-7zM51 53h6v1h-6zM61 53h7v1h-7zM72 53h16v1h-16zM9 54h6v1h-6zM22 54h6v1h-6zM39 54h7v1h-7zM51 54h5v1h-5zM62 54h6v1h-6zM72 54h15v1h-15zM9 55h6v1h-6zM22 55h6v1h-6zM40 55h7v1h-7zM50 55h7v1h-7zM62 55h6v1h-6zM72 55h14v1h-14zM9 56h6v1h-6zM21 56h7v1h-7zM30 56h5v1h-5zM40 56h6v1h-6zM50 56h18v1h-18zM71 56h13v1h-13zM8 57h7v1h-7zM21 57h6v1h-6zM29 57h7v1h-7zM40 57h7v1h-7zM49 57h19v1h-19zM71 57h11v1h-11zM83 57h1v1h-1zM9 58h6v1h-6zM19 58h8v1h-8zM29 58h7v1h-7zM39 58h7v1h-7zM49 58h19v1h-19zM71 58h7v1h-7zM80 58h1v1h-1zM9 59h17v1h-17zM30 59h6v1h-6zM39 59h7v1h-7zM48 59h20v1h-20zM71 59h2v1h-2zM10 60h16v1h-16zM30 60h15v1h-15zM48 60h20v1h-20zM71 60h3v1h-3zM10 61h16v1h-16zM31 61h14v1h-14zM47 61h7v1h-7zM61 61h7v1h-7zM70 61h6v1h-6zM10 62h14v1h-14zM31 62h13v1h-13zM46 62h8v1h-8zM61 62h7v1h-7zM70 62h6v1h-6zM11 63h12v1h-12zM32 63h12v1h-12zM46 63h7v1h-7zM61 63h7v1h-7zM69 63h7v1h-7zM14 64h6v1h-6zM34 64h7v1h-7zM46 64h6v1h-6zM62 64h6v1h-6zM70 64h5v1h-5z" /></svg>