<svg xmlns="http://www.w3.org/2000/svg" viewBox="0 0 100 100"><path fill="#430098" fill-rule="evenodd" d="M11 0h2v1h1v-1h72v1h3v1h1v-1h1v1h1v2h1v2h1v1h1v1h-1v84h1v1h-1v1h-1v2h-1v2h-3v1h-3v1h-72v-1h-4v-1h-1v-1h-1v-1h-1v-1h-1v-1h-1v-2h1v-1h-1v-82h1v-1h-1v-2h1v-1h1v-1h1v-1h1v-1h1v-1h1zm1 5h-1v1h-1v87h1v1h1v1h76v-1h2v-88h-2v-1zm16 10h9v29h2v-1h2v-1h1v1h1v-1h4v-1h10v-1h1v1h2v-1h1v1h1v1h2v1h3v2h1v1h2v1h-1v1h1v1h1v3h1v33h-10v-34h-1v-1h-1v1h-1v-1h-2v-1h-3v1h-1v-1h-1v1h-6v1h-4v1h-3v1h-2v1h-3v1h-1v1h-3v1h-2zm34 0h10v1h-1v2h1v1h-1v2h-1v2h-1v2h-1v1h-1v2h-1v1h-1v2h-9v-2h1v-2h2v-2h1v-2h1v-3h1zm-34 42v1h-1v-1zm0 10h1v1h1v1h2v1h1v1h1v1h2v2h1v2h-1v1h-1v1h-1v1h-1v1h-1v1h-2v1h-1v1h-1z"/><path fill="#420097" fill-rule="evenodd" d="M13 0h1v1h-1zm-5 2h1v1h-1zm0 1v1h-1v-1zm85 1h1v2h-1zm-4 2h1v1h-1zm-28 13h1v1h-1zm-2 5h1v1h-1zm8 3h1v1h-1zm-2 2h1v1h-1zm-14 11h2v1h-2zm7 0h1v1h-1zm-14 1h3v1h-3zm18 0h1v1h-1zm2 1h1v1h-1zm3 2h1v1h-1zm-13 5h2v1h-2zm17 1h1v2h-1zm-28 1h1v1h-1zm-4 1h1v1h-1zm22 0h1v1h-1zm-27 2h1v1h-1zm-5 13h1v1h-1zm3 2h1v1h-1zm1 1h1v1h-1zm1 1h1v1h-1zm2 2h1v1h-1zm0 3h1v1h-1zm-3 3h1v1h-1zm0 1v1h-1v-1zm-4 2h1v1h-1zm60 11h1v1h-1zm4 1h1v2h-1zm-85 3h1v1h-1zm1 1h1v1h-1zm3 1h2v1h-2z"/><path fill="#430097" fill-rule="evenodd" d="M86 0h1v1h-1zm2 0h1v1h-1zm4 3h1v1h-1zm-81 2h1v1h-1zm0 1v1h-1v-1zm-6 2h1v1h-1zm89 0h1v1h-1zm-23 8h1v1h-1zm-11 5h1v1h-1zm10 0h1v1h-1zm-1 2h1v1h-1zm-14 7h1v1h-1zm1 10h1v1h-1zm-16 2h1v1h-1zm-3 1h2v1h-2zm32 4h1v1h-1zm1 1h1v1h-1zm-18 1h1v1h-1zm4 0h1v1h-1zm-10 1h3v1h-3zm14 0h1v1h-1zm1 1h1v1h-1zm-19 0h1v1h-1zm-5 2h1v1h-1zm-9 13h1v1h-1zm2 2h1v1h-1zm7 6h1v2h-1zm-2 3h1v1h-1zm-5 4h1v1h-1zm-2 2h1v1h-1zm-23 8h1v1h-1zm89 0h1v1h-1zm-87 5h1v1h-1zm85 0h1v1h-1zm-2 2h1v1h-1zm-79 1h1v1h-1zm75 0h3v1h-3z"/><path fill="#420098" fill-rule="evenodd" d="M87 0h1v1h-1zm-78 1h1v1h-1zm80 0h1v1h-1zm-83 3h1v1h-1zm83 3h1v1h-1zm5 2h1v82h-1zm-67 6h1v42h-1zm44 2h1v1h-1zm-10 1h1v1h-1zm-1 4h1v1h-1zm-2 3h1v2h-1zm10 0h1v1h-1zm0 1v1h-1v-1zm-2 2h1v1h-1zm-16 12h1v1h-1zm3 0h3v1h-3zm6 0h1v1h-1zm4 1h1v1h-1zm-21 1h1v1h-1zm26 3h1v1h-1zm-28 7h1v1h-1zm-12 5h1v1h-1zm2-1h1v1h-1zm4 22h1v1h-1zm55 14h1v1h-1zm-83 3h1v1h-1zm83 3h1v1h-1z"/></svg>