<svg xmlns="http://www.w3.org/2000/svg" viewBox="0 0 100 100" width="1em" height="1em"><path fill="#0e82cd" d="M50 0h1v1h-1zM48 1h1v1h-1zM46 2h1v1h-1zM60 6h2v1h-2zM37 7h2v1h-2zM62 7h1v1h-1zM68 10h1v1h-1zM29 12h1v1h-1zM18 18h2v1h-2zM13 21h1v1h-1zM87 78h1v1h-1zM17 80h1v1h-1zM20 82h1v1h-1zM67 89h1v1h-1zM37 92h1v1h-1zM44 96h2v1h-2z" /><path fill="#0e83cd" d="M49 1h3v1h-3zM47 2h7v1h-7zM46 3h9v1h-9zM44 4h14v1h-14zM42 5h17v1h-17zM40 6h20v1h-20zM39 7h23v1h-23zM37 8h27v1h-27zM35 9h32v1h-32zM32 10h35v1h-35zM32 11h37v1h-37zM30 12h41v1h-41zM27 13h45v1h-45zM27 14h47v1h-47zM25 15h51v1h-51zM23 16h56v1h-56zM20 17h59v1h-59zM20 18h61v1h-61zM18 19h65v1h-65zM16 20h69v1h-69zM14 21h73v1h-73zM13 22h75v1h-75zM11 23h80v1h-80zM9 24h83v1h-83zM7 25h86v1h-86zM7 26h25v1h-25zM36 26h29v1h-29zM69 26h24v1h-24zM7 27h23v1h-23zM38 27h25v1h-25zM70 27h23v1h-23zM7 28h22v1h-22zM38 28h24v1h-24zM71 28h22v1h-22zM7 29h22v1h-22zM38 29h24v1h-24zM71 29h22v1h-22zM7 30h22v1h-22zM38 30h24v1h-24zM71 30h22v1h-22zM7 31h22v1h-22zM38 31h24v1h-24zM71 31h22v1h-22zM7 32h22v1h-22zM38 32h24v1h-24zM71 32h22v1h-22zM7 33h22v1h-22zM38 33h24v1h-24zM71 33h22v1h-22zM7 34h22v1h-22zM38 34h24v1h-24zM71 34h22v1h-22zM7 35h22v1h-22zM38 35h24v1h-24zM71 35h22v1h-22zM7 36h22v1h-22zM38 36h24v1h-24zM71 36h22v1h-22zM7 37h22v1h-22zM38 37h24v1h-24zM71 37h22v1h-22zM7 38h22v1h-22zM38 38h24v1h-24zM71 38h22v1h-22zM7 39h22v1h-22zM38 39h24v1h-24zM71 39h22v1h-22zM7 40h22v1h-22zM38 40h24v1h-24zM71 40h22v1h-22zM7 41h22v1h-22zM38 41h24v1h-24zM71 41h22v1h-22zM7 42h22v1h-22zM38 42h24v1h-24zM71 42h22v1h-22zM7 43h22v1h-22zM38 43h24v1h-24zM71 43h22v1h-22zM7 44h22v1h-22zM38 44h24v1h-24zM71 44h22v1h-22zM7 45h22v1h-22zM38 45h24v1h-24zM71 45h22v1h-22zM7 46h22v1h-22zM71 46h22v1h-22zM7 47h22v1h-22zM71 47h22v1h-22zM7 48h22v1h-22zM71 48h22v1h-22zM7 49h22v1h-22zM71 49h22v1h-22zM7 50h22v1h-22zM71 50h22v1h-22zM7 51h22v1h-22zM71 51h22v1h-22zM7 52h22v1h-22zM71 52h22v1h-22zM7 53h22v1h-22zM71 53h22v1h-22zM7 54h22v1h-22zM38 54h24v1h-24zM71 54h22v1h-22zM7 55h22v1h-22zM38 55h24v1h-24zM71 55h22v1h-22zM7 56h22v1h-22zM38 56h24v1h-24zM71 56h22v1h-22zM7 57h22v1h-22zM38 57h24v1h-24zM71 57h22v1h-22zM7 58h22v1h-22zM38 58h24v1h-24zM71 58h22v1h-22zM7 59h22v1h-22zM38 59h24v1h-24zM71 59h22v1h-22zM7 60h22v1h-22zM38 60h24v1h-24zM71 60h22v1h-22zM7 61h22v1h-22zM38 61h24v1h-24zM71 61h22v1h-22zM7 62h22v1h-22zM38 62h24v1h-24zM71 62h22v1h-22zM7 63h22v1h-22zM38 63h24v1h-24zM71 63h22v1h-22zM7 64h22v1h-22zM38 64h24v1h-24zM71 64h22v1h-22zM7 65h22v1h-22zM38 65h24v1h-24zM71 65h22v1h-22zM7 66h22v1h-22zM38 66h24v1h-24zM71 66h22v1h-22zM7 67h22v1h-22zM38 67h24v1h-24zM71 67h22v1h-22zM7 68h22v1h-22zM38 68h24v1h-24zM71 68h22v1h-22zM7 69h22v1h-22zM38 69h24v1h-24zM71 69h22v1h-22zM7 70h22v1h-22zM38 70h24v1h-24zM71 70h22v1h-22zM7 71h22v1h-22zM38 71h24v1h-24zM71 71h22v1h-22zM7 72h23v1h-23zM38 72h25v1h-25zM70 72h23v1h-23zM7 73h25v1h-25zM36 73h29v1h-29zM69 73h24v1h-24zM8 74h85v1h-85zM9 75h82v1h-82zM11 76h79v1h-79zM13 77h75v1h-75zM14 78h72v1h-72zM16 79h70v1h-70zM18 80h65v1h-65zM20 81h61v1h-61zM21 82h59v1h-59zM22 83h56v1h-56zM25 84h51v1h-51zM26 85h48v1h-48zM28 86h44v1h-44zM30 87h41v1h-41zM32 88h37v1h-37zM32 89h35v1h-35zM35 90h32v1h-32zM36 91h28v1h-28zM38 92h24v1h-24zM40 93h21v1h-21zM42 94h17v1h-17zM44 95h13v1h-13zM46 96h9v1h-9zM46 97h7v1h-7zM49 98h3v1h-3zM50 99h1v1h-1z" /><path fill="#0d83cc" d="M52 1h1v1h-1zM43 4h1v1h-1zM41 5h1v1h-1zM30 11h1v1h-1zM24 15h1v1h-1zM76 15h1v1h-1zM22 16h1v1h-1zM83 19h1v1h-1zM11 22h1v1h-1zM8 24h1v1h-1zM93 25h1v1h-1zM90 76h1v1h-1zM78 83h1v1h-1zM76 84h1v1h-1zM71 87h1v1h-1zM30 88h1v1h-1zM68 89h1v1h-1zM59 94h1v1h-1zM57 95h1v1h-1zM52 98h1v1h-1z" /><path fill="#0d83cd" d="M54 2h1v1h-1zM64 8h1v1h-1zM74 14h1v1h-1zM87 21h1v1h-1zM8 75h1v1h-1zM11 77h1v1h-1zM15 79h1v1h-1zM81 81h1v1h-1zM80 82h1v1h-1zM62 92h1v1h-1zM61 93h1v1h-1zM43 95h1v1h-1z" /><path fill="#0e82cc" d="M44 3h2v1h-2zM39 6h1v1h-1zM31 11h1v1h-1zM72 13h1v1h-1zM25 14h2v1h-2zM80 17h1v1h-1zM15 20h1v1h-1zM7 74h1v1h-1zM92 75h1v1h-1zM13 78h1v1h-1zM18 81h2v1h-2zM24 84h1v1h-1zM72 86h2v1h-2zM53 97h2v1h-2z" /><path fill="#0d82cc" d="M55 3h1v1h-1zM59 5h1v1h-1zM71 12h1v1h-1zM81 18h1v1h-1zM88 22h1v1h-1zM92 24h1v1h-1zM93 26h1v1h-1zM93 27h1v1h-1zM93 28h1v1h-1zM93 29h1v1h-1zM93 30h1v1h-1zM93 31h1v1h-1zM93 32h1v1h-1zM93 33h1v1h-1zM93 34h1v1h-1zM93 35h1v1h-1zM93 36h1v1h-1zM93 37h1v1h-1zM93 38h1v1h-1zM93 39h1v1h-1zM93 40h1v1h-1zM93 41h1v1h-1zM93 42h1v1h-1zM93 43h1v1h-1zM93 44h1v1h-1zM93 45h1v1h-1zM93 46h1v1h-1zM93 47h1v1h-1zM93 48h1v1h-1zM93 49h1v1h-1zM93 50h1v1h-1zM93 51h1v1h-1zM93 52h1v1h-1zM93 53h1v1h-1zM93 54h1v1h-1zM93 55h1v1h-1zM93 56h1v1h-1zM93 57h1v1h-1zM93 58h1v1h-1zM93 59h1v1h-1zM93 60h1v1h-1zM93 61h1v1h-1zM93 62h1v1h-1zM93 63h1v1h-1zM93 64h1v1h-1zM93 65h1v1h-1zM93 66h1v1h-1zM93 67h1v1h-1zM93 68h1v1h-1zM93 69h1v1h-1zM93 70h1v1h-1zM93 71h1v1h-1zM93 72h1v1h-1zM93 73h1v1h-1zM93 74h1v1h-1zM74 85h1v1h-1zM27 86h1v1h-1zM39 93h1v1h-1zM55 96h1v1h-1zM48 98h1v1h-1z" /><path fill="#0d82cd" d="M36 8h1v1h-1zM73 13h1v1h-1zM17 19h1v1h-1zM85 20h1v1h-1zM10 76h1v1h-1zM25 85h1v1h-1zM41 94h1v1h-1z" /><path fill="#0e83cc" d="M34 9h1v1h-1zM67 10h1v1h-1zM69 11h1v1h-1zM79 17h1v1h-1zM12 22h1v1h-1zM10 23h1v1h-1zM91 75h1v1h-1zM12 77h1v1h-1zM88 77h1v1h-1zM86 78h1v1h-1zM83 80h1v1h-1zM29 87h1v1h-1zM31 88h1v1h-1zM69 88h1v1h-1zM34 90h1v1h-1zM64 91h1v1h-1z" /><path fill="#2991d3" d="M32 26h1v1h-1z" /><path fill="#acd4ee" d="M33 26h1v1h-1z" /><path fill="#92c7e8" d="M34 26h1v1h-1zM70 71h1v1h-1z" /><path fill="#1b8ad0" d="M35 26h1v1h-1zM62 37h1v1h-1zM62 62h1v1h-1z" /><path fill="#2f94d4" d="M65 26h1v1h-1zM32 73h1v1h-1z" /><path fill="#afd6ee" d="M66 26h1v1h-1z" /><path fill="#7ebce4" d="M67 26h1v1h-1z" /><path fill="#1486ce" d="M68 26h1v1h-1zM30 27h1v1h-1zM29 29h1v1h-1zM29 30h1v1h-1zM29 31h1v1h-1zM29 32h1v1h-1zM29 33h1v1h-1zM29 34h1v1h-1zM29 35h1v1h-1zM29 36h1v1h-1zM29 38h1v1h-1zM29 39h1v1h-1zM29 40h1v1h-1zM29 41h1v1h-1zM29 42h1v1h-1zM29 43h1v1h-1zM29 44h1v1h-1zM29 45h1v1h-1zM29 46h1v1h-1zM29 47h1v1h-1zM29 48h1v1h-1zM29 49h1v1h-1zM29 50h1v1h-1zM62 69h1v1h-1z" /><path fill="#77b9e3" d="M31 27h1v1h-1z" /><path fill="#f4f9fd" d="M32 27h1v1h-1z" /><path fill="#ffffff" d="M33 27h2v1h-2zM66 27h2v1h-2zM31 28h6v1h-6zM64 28h6v1h-6zM30 29h7v1h-7zM63 29h7v1h-7zM30 30h7v1h-7zM63 30h7v1h-7zM30 31h7v1h-7zM63 31h7v1h-7zM30 32h7v1h-7zM63 32h7v1h-7zM30 33h7v1h-7zM63 33h7v1h-7zM30 34h7v1h-7zM63 34h7v1h-7zM30 35h7v1h-7zM63 35h7v1h-7zM30 36h7v1h-7zM63 36h7v1h-7zM30 37h7v1h-7zM63 37h7v1h-7zM30 38h7v1h-7zM63 38h7v1h-7zM30 39h7v1h-7zM63 39h7v1h-7zM30 40h7v1h-7zM63 40h7v1h-7zM30 41h7v1h-7zM63 41h7v1h-7zM30 42h7v1h-7zM63 42h7v1h-7zM30 43h7v1h-7zM63 43h7v1h-7zM30 44h7v1h-7zM63 44h7v1h-7zM30 45h7v1h-7zM63 45h7v1h-7zM30 46h40v1h-40zM30 47h40v1h-40zM30 48h40v1h-40zM30 49h40v1h-40zM30 50h40v1h-40zM30 51h40v1h-40zM30 52h40v1h-40zM30 53h40v1h-40zM30 54h7v1h-7zM63 54h7v1h-7zM30 55h7v1h-7zM63 55h7v1h-7zM30 56h7v1h-7zM63 56h7v1h-7zM30 57h7v1h-7zM63 57h7v1h-7zM30 58h7v1h-7zM63 58h7v1h-7zM30 59h7v1h-7zM63 59h7v1h-7zM30 60h7v1h-7zM63 60h7v1h-7zM30 61h7v1h-7zM63 61h7v1h-7zM30 62h7v1h-7zM63 62h7v1h-7zM30 63h7v1h-7zM63 63h7v1h-7zM30 64h7v1h-7zM63 64h7v1h-7zM30 65h7v1h-7zM63 65h7v1h-7zM30 66h7v1h-7zM63 66h7v1h-7zM30 67h7v1h-7zM63 67h7v1h-7zM30 68h7v1h-7zM63 68h7v1h-7zM30 69h7v1h-7zM63 69h7v1h-7zM30 70h7v1h-7zM63 70h7v1h-7zM31 71h6v1h-6zM64 71h6v1h-6zM33 72h2v1h-2zM66 72h2v1h-2z" /><path fill="#e8f3fa" d="M35 27h1v1h-1zM63 28h1v1h-1zM30 71h1v1h-1z" /><path fill="#6eb5e1" d="M36 27h1v1h-1zM64 72h1v1h-1z" /><path fill="#1084cd" d="M37 27h1v1h-1z" /><path fill="#1888cf" d="M63 27h1v1h-1zM62 34h1v1h-1zM62 65h1v1h-1zM30 72h1v1h-1z" /><path fill="#87c1e6" d="M64 27h1v1h-1zM31 72h1v1h-1z" /><path fill="#f7fbfd" d="M65 27h1v1h-1zM32 72h1v1h-1z" /><path fill="#ddedf8" d="M68 27h1v1h-1z" /><path fill="#5eacde" d="M69 27h1v1h-1zM69 72h1v1h-1z" /><path fill="#1184ce" d="M29 28h1v1h-1zM62 28h1v1h-1zM62 71h1v1h-1zM68 73h1v1h-1z" /><path fill="#e0eff9" d="M30 28h1v1h-1z" /><path fill="#9acbea" d="M37 28h1v1h-1z" /><path fill="#91c7e8" d="M70 28h1v1h-1z" /><path fill="#b1d7ef" d="M37 29h1v1h-1zM70 29h1v1h-1zM70 30h1v1h-1zM70 31h1v1h-1zM70 32h1v1h-1zM70 33h1v1h-1zM70 34h1v1h-1zM70 35h1v1h-1zM70 36h1v1h-1zM70 37h1v1h-1zM70 38h1v1h-1zM70 39h1v1h-1zM70 40h1v1h-1zM70 41h1v1h-1zM70 42h1v1h-1zM70 43h1v1h-1zM70 44h1v1h-1zM70 45h1v1h-1zM70 46h1v1h-1zM70 47h1v1h-1zM70 48h1v1h-1zM70 49h1v1h-1zM70 50h1v1h-1zM70 51h1v1h-1zM70 52h1v1h-1zM70 53h1v1h-1zM70 54h1v1h-1zM70 55h1v1h-1zM70 56h1v1h-1zM70 57h1v1h-1zM70 58h1v1h-1zM70 59h1v1h-1zM70 60h1v1h-1zM70 61h1v1h-1zM70 62h1v1h-1zM70 63h1v1h-1zM70 64h1v1h-1zM70 65h1v1h-1zM70 66h1v1h-1zM70 67h1v1h-1zM70 68h1v1h-1zM70 69h1v1h-1zM70 70h1v1h-1zM33 73h1v1h-1z" /><path fill="#1385ce" d="M62 29h1v1h-1zM29 37h1v1h-1zM62 70h1v1h-1zM29 71h1v1h-1zM63 72h1v1h-1z" /><path fill="#b2d8ef" d="M37 30h1v1h-1z" /><path fill="#1586ce" d="M62 30h1v1h-1zM29 51h1v1h-1zM29 52h1v1h-1zM29 53h1v1h-1zM29 54h1v1h-1zM29 55h1v1h-1zM29 56h1v1h-1zM29 57h1v1h-1zM29 58h1v1h-1zM29 59h1v1h-1zM29 60h1v1h-1zM29 61h1v1h-1zM29 62h1v1h-1zM29 63h1v1h-1zM29 64h1v1h-1zM29 65h1v1h-1zM29 66h1v1h-1zM29 67h1v1h-1zM29 68h1v1h-1zM29 69h1v1h-1zM29 70h1v1h-1z" /><path fill="#b3d8ef" d="M37 31h1v1h-1z" /><path fill="#1687cf" d="M62 31h1v1h-1zM62 68h1v1h-1z" /><path fill="#b4d9f0" d="M37 32h1v1h-1z" /><path fill="#1787cf" d="M62 32h1v1h-1zM62 67h1v1h-1z" /><path fill="#b5d9f0" d="M37 33h1v1h-1z" /><path fill="#1788cf" d="M62 33h1v1h-1zM62 66h1v1h-1z" /><path fill="#b7daf0" d="M37 34h1v1h-1z" /><path fill="#b8dbf0" d="M37 35h1v1h-1z" /><path fill="#1989cf" d="M62 35h1v1h-1zM62 64h1v1h-1zM35 73h1v1h-1z" /><path fill="#b9dbf0" d="M37 36h1v1h-1z" /><path fill="#1a89d0" d="M62 36h1v1h-1zM62 63h1v1h-1z" /><path fill="#bbdcf1" d="M37 37h1v1h-1zM37 38h1v1h-1zM37 61h1v1h-1zM37 62h1v1h-1zM37 65h1v1h-1zM37 66h1v1h-1zM37 67h1v1h-1z" /><path fill="#1d8bd0" d="M62 38h1v1h-1zM62 61h1v1h-1z" /><path fill="#bdddf1" d="M37 39h1v1h-1zM37 60h1v1h-1z" /><path fill="#1e8bd0" d="M62 39h1v1h-1zM62 60h1v1h-1z" /><path fill="#beddf1" d="M37 40h1v1h-1zM37 59h1v1h-1z" /><path fill="#1f8cd1" d="M62 40h1v1h-1zM62 59h1v1h-1z" /><path fill="#bfdef2" d="M37 41h1v1h-1zM37 58h1v1h-1z" /><path fill="#218dd1" d="M62 41h1v1h-1zM62 58h1v1h-1z" /><path fill="#c0def2" d="M37 42h1v1h-1zM37 57h1v1h-1z" /><path fill="#228dd1" d="M62 42h1v1h-1zM62 57h1v1h-1z" /><path fill="#c1dff2" d="M37 43h1v1h-1zM37 56h1v1h-1z" /><path fill="#238ed1" d="M62 43h1v1h-1zM62 56h1v1h-1z" /><path fill="#c2dff2" d="M37 44h1v1h-1zM37 55h1v1h-1z" /><path fill="#248ed2" d="M62 44h1v1h-1zM62 55h1v1h-1z" /><path fill="#c3e0f2" d="M37 45h1v1h-1zM37 54h1v1h-1z" /><path fill="#258fd2" d="M62 45h1v1h-1z" /><path fill="#268fd2" d="M62 54h1v1h-1z" /><path fill="#badbf1" d="M37 63h1v1h-1zM37 64h1v1h-1z" /><path fill="#bcdcf1" d="M37 68h1v1h-1zM37 69h1v1h-1zM37 70h1v1h-1z" /><path fill="#a2cfec" d="M37 71h1v1h-1z" /><path fill="#deeef8" d="M63 71h1v1h-1z" /><path fill="#e6f2fa" d="M35 72h1v1h-1z" /><path fill="#67b1df" d="M36 72h1v1h-1z" /><path fill="#0f83cd" d="M37 72h1v1h-1z" /><path fill="#ecf5fb" d="M65 72h1v1h-1z" /><path fill="#d9ecf7" d="M68 72h1v1h-1z" /><path fill="#8ec5e7" d="M34 73h1v1h-1z" /><path fill="#208cd1" d="M65 73h1v1h-1z" /><path fill="#95c9e9" d="M66 73h1v1h-1z" /><path fill="#6db4e1" d="M67 73h1v1h-1z" /></svg>