<svg xmlns="http://www.w3.org/2000/svg" viewBox="0 0 100 100" width="1em" height="1em"><path fill="#211f1f" d="M47 1h1v1h-1zM39 8h1v1h-1zM36 11h1v1h-1zM20 27h1v1h-1zM17 30h1v1h-1zM82 67h1v1h-1zM40 73h1v1h-1z" /><path fill="#221f20" d="M82 1h1v1h-1zM46 2h2v1h-2zM81 2h2v1h-2zM45 3h3v1h-3zM80 3h3v1h-3zM44 4h4v1h-4zM79 4h4v1h-4zM43 5h5v1h-5zM78 5h5v1h-5zM42 6h6v1h-6zM77 6h6v1h-6zM41 7h7v1h-7zM76 7h7v1h-7zM40 8h8v1h-8zM75 8h8v1h-8zM39 9h9v1h-9zM74 9h9v1h-9zM38 10h10v1h-10zM73 10h10v1h-10zM37 11h11v1h-11zM72 11h11v1h-11zM36 12h12v1h-12zM71 12h12v1h-12zM35 13h13v1h-13zM70 13h13v1h-13zM34 14h14v1h-14zM69 14h14v1h-14zM32 15h16v1h-16zM68 15h15v1h-15zM32 16h16v1h-16zM67 16h16v1h-16zM31 17h17v1h-17zM66 17h17v1h-17zM30 18h18v1h-18zM65 18h18v1h-18zM29 19h19v1h-19zM64 19h19v1h-19zM28 20h20v1h-20zM63 20h20v1h-20zM27 21h21v1h-21zM62 21h21v1h-21zM26 22h22v1h-22zM61 22h22v1h-22zM25 23h23v1h-23zM60 23h23v1h-23zM24 24h24v1h-24zM59 24h24v1h-24zM23 25h25v1h-25zM58 25h25v1h-25zM22 26h26v1h-26zM57 26h26v1h-26zM21 27h27v1h-27zM56 27h27v1h-27zM20 28h28v1h-28zM55 28h28v1h-28zM18 29h30v1h-30zM54 29h29v1h-29zM18 30h30v1h-30zM53 30h30v1h-30zM17 31h31v1h-31zM16 32h31v1h-31zM16 33h30v1h-30zM16 34h29v1h-29zM16 35h28v1h-28zM16 36h27v1h-27zM82 36h1v1h-1zM16 37h26v1h-26zM81 37h2v1h-2zM16 38h25v1h-25zM80 38h3v1h-3zM16 39h24v1h-24zM78 39h5v1h-5zM16 40h23v1h-23zM77 40h6v1h-6zM16 41h22v1h-22zM77 41h6v1h-6zM16 42h21v1h-21zM76 42h7v1h-7zM16 43h20v1h-20zM75 43h8v1h-8zM16 44h19v1h-19zM74 44h9v1h-9zM16 45h18v1h-18zM73 45h10v1h-10zM16 46h17v1h-17zM72 46h11v1h-11zM16 47h16v1h-16zM71 47h12v1h-12zM16 48h15v1h-15zM70 48h13v1h-13zM16 49h14v1h-14zM69 49h14v1h-14zM16 50h13v1h-13zM68 50h15v1h-15zM16 51h12v1h-12zM67 51h16v1h-16zM16 52h11v1h-11zM66 52h17v1h-17zM16 53h10v1h-10zM65 53h18v1h-18zM16 54h9v1h-9zM64 54h19v1h-19zM16 55h8v1h-8zM63 55h20v1h-20zM16 56h7v1h-7zM62 56h21v1h-21zM16 57h6v1h-6zM61 57h22v1h-22zM16 58h5v1h-5zM60 58h23v1h-23zM16 59h4v1h-4zM59 59h24v1h-24zM16 60h3v1h-3zM58 60h25v1h-25zM16 61h2v1h-2zM57 61h26v1h-26zM16 62h1v1h-1zM56 62h27v1h-27zM55 63h28v1h-28zM54 64h29v1h-29zM53 65h30v1h-30zM52 66h31v1h-31zM51 67h31v1h-31zM16 68h29v1h-29zM51 68h30v1h-30zM16 69h28v1h-28zM51 69h29v1h-29zM16 70h27v1h-27zM51 70h28v1h-28zM16 71h26v1h-26zM51 71h27v1h-27zM16 72h25v1h-25zM51 72h26v1h-26zM16 73h24v1h-24zM51 73h25v1h-25zM16 74h23v1h-23zM51 74h24v1h-24zM16 75h22v1h-22zM51 75h23v1h-23zM16 76h21v1h-21zM51 76h22v1h-22zM16 77h20v1h-20zM51 77h21v1h-21zM16 78h19v1h-19zM51 78h20v1h-20zM16 79h18v1h-18zM51 79h19v1h-19zM16 80h17v1h-17zM51 80h18v1h-18zM16 81h16v1h-16zM51 81h17v1h-17zM16 82h15v1h-15zM51 82h16v1h-16zM16 83h14v1h-14zM51 83h15v1h-15zM16 84h13v1h-13zM51 84h14v1h-14zM16 85h12v1h-12zM51 85h13v1h-13zM16 86h11v1h-11zM51 86h12v1h-12zM16 87h10v1h-10zM51 87h11v1h-11zM16 88h9v1h-9zM51 88h10v1h-10zM16 89h8v1h-8zM51 89h9v1h-9zM16 90h7v1h-7zM51 90h8v1h-8zM16 91h6v1h-6zM51 91h7v1h-7zM16 92h5v1h-5zM51 92h6v1h-6zM16 93h4v1h-4zM51 93h5v1h-5zM16 94h3v1h-3zM51 94h4v1h-4zM16 95h2v1h-2zM51 95h3v1h-3zM16 96h1v1h-1zM51 96h2v1h-2zM51 97h1v1h-1z" /><path fill="#221e20" d="M38 9h1v1h-1zM35 12h1v1h-1zM25 22h1v1h-1zM16 31h1v1h-1zM47 32h1v1h-1zM46 33h1v1h-1zM45 34h1v1h-1zM44 35h1v1h-1zM43 36h1v1h-1zM42 37h1v1h-1zM41 38h1v1h-1zM40 39h1v1h-1zM39 40h1v1h-1zM38 41h1v1h-1zM37 42h1v1h-1zM36 43h1v1h-1zM35 44h1v1h-1zM34 45h1v1h-1zM33 46h1v1h-1zM32 47h1v1h-1zM31 48h1v1h-1zM30 49h1v1h-1zM29 50h1v1h-1zM28 51h1v1h-1zM27 52h1v1h-1zM26 53h1v1h-1zM25 54h1v1h-1zM24 55h1v1h-1zM23 56h1v1h-1zM22 57h1v1h-1zM21 58h1v1h-1zM20 59h1v1h-1zM19 60h1v1h-1zM18 61h1v1h-1zM17 62h1v1h-1zM55 62h1v1h-1zM16 63h1v1h-1zM54 63h1v1h-1zM53 64h1v1h-1zM52 65h1v1h-1zM42 71h1v1h-1zM37 76h1v1h-1zM20 93h1v1h-1zM18 95h1v1h-1z" /><path fill="#211e20" d="M37 10h1v1h-1zM34 13h1v1h-1zM31 16h1v1h-1zM65 52h1v1h-1zM64 53h1v1h-1zM63 54h1v1h-1zM62 55h1v1h-1zM61 56h1v1h-1zM60 57h1v1h-1zM59 58h1v1h-1zM81 68h1v1h-1zM41 72h1v1h-1zM73 76h1v1h-1zM36 77h1v1h-1zM72 77h1v1h-1zM31 82h1v1h-1zM30 83h1v1h-1zM29 84h1v1h-1zM28 85h1v1h-1zM21 92h1v1h-1zM19 94h1v1h-1z" /><path fill="#221f1f" d="M33 14h1v1h-1zM29 18h1v1h-1zM28 19h1v1h-1zM22 25h1v1h-1zM82 35h1v1h-1zM81 36h1v1h-1zM80 37h1v1h-1zM79 38h1v1h-1zM76 41h1v1h-1zM75 42h1v1h-1zM74 43h1v1h-1zM73 44h1v1h-1zM16 67h30v1h-30zM50 67h1v1h-1zM43 70h1v1h-1zM39 74h1v1h-1zM38 75h1v1h-1zM33 80h1v1h-1zM32 81h1v1h-1zM63 86h1v1h-1zM26 87h1v1h-1zM62 87h1v1h-1zM25 88h1v1h-1zM61 88h1v1h-1zM24 89h1v1h-1zM60 89h1v1h-1zM59 90h1v1h-1zM58 91h1v1h-1zM57 92h1v1h-1zM52 97h1v1h-1zM51 98h1v1h-1z" /><path fill="#211e1f" d="M30 17h1v1h-1zM35 78h1v1h-1zM34 79h1v1h-1z" /><path fill="#211f20" d="M27 20h1v1h-1zM26 21h1v1h-1zM21 26h1v1h-1zM19 28h1v1h-1zM72 45h1v1h-1zM71 46h1v1h-1zM70 47h1v1h-1zM69 48h1v1h-1zM68 49h1v1h-1zM67 50h1v1h-1zM66 51h1v1h-1zM50 68h1v1h-1zM50 69h1v1h-1zM80 69h1v1h-1zM50 70h1v1h-1zM79 70h1v1h-1zM50 71h1v1h-1zM78 71h1v1h-1zM50 72h1v1h-1zM77 72h1v1h-1zM50 73h1v1h-1zM76 73h1v1h-1zM50 74h1v1h-1zM75 74h1v1h-1zM50 75h1v1h-1zM74 75h1v1h-1zM50 76h1v1h-1zM50 77h1v1h-1zM50 78h1v1h-1zM71 78h1v1h-1zM50 79h1v1h-1zM70 79h1v1h-1zM50 80h1v1h-1zM69 80h1v1h-1zM50 81h1v1h-1zM68 81h1v1h-1zM50 82h1v1h-1zM67 82h1v1h-1zM50 83h1v1h-1zM66 83h1v1h-1zM50 84h1v1h-1zM65 84h1v1h-1zM50 85h1v1h-1zM64 85h1v1h-1zM50 86h1v1h-1zM50 87h1v1h-1zM50 88h1v1h-1zM50 89h1v1h-1zM23 90h1v1h-1zM50 90h1v1h-1zM22 91h1v1h-1zM50 91h1v1h-1zM50 92h1v1h-1zM50 93h1v1h-1zM50 94h1v1h-1zM50 95h1v1h-1zM50 96h1v1h-1zM50 97h1v1h-1zM50 98h1v1h-1z" /><path fill="#221e1f" d="M24 23h1v1h-1zM23 24h1v1h-1zM58 59h1v1h-1zM57 60h1v1h-1zM56 61h1v1h-1zM51 66h1v1h-1zM27 86h1v1h-1zM56 93h1v1h-1zM55 94h1v1h-1zM54 95h1v1h-1zM17 96h1v1h-1zM53 96h1v1h-1zM16 97h1v1h-1z" /><path fill="#ededed" d="M50 33h31v1h-31zM50 34h1v1h-1zM50 35h1v1h-1zM50 36h1v1h-1zM50 37h1v1h-1zM50 38h1v1h-1zM50 39h1v1h-1zM50 40h1v1h-1zM50 41h1v1h-1zM50 42h1v1h-1zM50 43h1v1h-1zM50 44h1v1h-1zM50 45h1v1h-1zM50 46h1v1h-1zM50 47h1v1h-1zM50 48h1v1h-1zM50 49h1v1h-1zM50 50h1v1h-1zM50 51h1v1h-1zM50 52h1v1h-1zM50 53h1v1h-1zM50 54h1v1h-1zM50 55h1v1h-1zM57 55h1v1h-1zM50 56h1v1h-1zM56 56h1v1h-1zM50 57h1v1h-1zM55 57h1v1h-1zM50 58h1v1h-1zM54 58h1v1h-1zM50 59h1v1h-1zM53 59h1v1h-1zM50 60h1v1h-1zM52 60h1v1h-1zM50 61h2v1h-2z" /><path fill="#eeeeee" d="M51 34h29v1h-29zM51 35h28v1h-28zM51 36h27v1h-27zM51 37h26v1h-26zM51 38h25v1h-25zM51 39h24v1h-24zM51 40h23v1h-23zM51 41h22v1h-22zM51 42h21v1h-21zM51 43h20v1h-20zM51 44h19v1h-19zM51 45h18v1h-18zM51 46h17v1h-17zM51 47h16v1h-16zM51 48h15v1h-15zM51 49h14v1h-14zM51 50h13v1h-13zM51 51h11v1h-11zM51 52h10v1h-10zM51 53h9v1h-9zM51 54h8v1h-8zM51 55h6v1h-6zM51 56h5v1h-5zM51 57h4v1h-4zM51 58h3v1h-3zM51 59h2v1h-2zM51 60h1v1h-1zM50 62h1v1h-1z" /><path fill="#dfa23b" d="M47 36h1v1h-1zM46 37h1v1h-1zM24 58h1v1h-1zM23 59h1v1h-1z" /><path fill="#e0a33b" d="M47 37h1v1h-1zM45 38h3v1h-3zM44 39h4v1h-4zM43 40h5v1h-5zM42 41h6v1h-6zM41 42h7v1h-7zM40 43h8v1h-8zM39 44h9v1h-9zM38 45h10v1h-10zM37 46h11v1h-11zM36 47h12v1h-12zM35 48h13v1h-13zM34 49h14v1h-14zM33 50h15v1h-15zM32 51h16v1h-16zM31 52h17v1h-17zM30 53h18v1h-18zM29 54h19v1h-19zM28 55h20v1h-20zM27 56h21v1h-21zM26 57h22v1h-22zM25 58h23v1h-23zM24 59h24v1h-24zM23 60h25v1h-25zM22 61h26v1h-26zM21 62h27v1h-27zM20 63h28v1h-28z" /><path fill="#dfa23a" d="M22 60h1v1h-1zM21 61h1v1h-1zM20 62h1v1h-1zM19 64h29v1h-29z" /><path fill="#dfa33a" d="M19 63h1v1h-1z" /></svg>