<svg xmlns="http://www.w3.org/2000/svg" viewBox="0 0 100 100"><path fill="#0418ff" fill-rule="evenodd" stroke="#0418ff" stroke-width=".1" d="M0 4h1v1h-1zm89 4h5v1h3v1h1v2h1v6h1v1h-1v1h-1v2h-2v1h-1v1h-3v1h-2v-1h-3v-1h-1v-2h-1v-1h-1v-2h-1v-4h1v-2h1v-1h1v-1h1v-1h2zm-89 23h1v1h-1zm85 7h13v56h-13zm-20 25h1v1h-1zm0 3h1v28h-1z"/><path fill="#051bff" fill-rule="evenodd" stroke="#051bff" stroke-width=".1" d="M1 4h1v35h-1zm63 56h1v34h-1z"/><path fill="#051eff" fill-rule="evenodd" stroke="#051eff" stroke-width=".1" d="M2 4h1v38h-1zm61 53h1v37h-1z"/><path fill="#0620ff" fill-rule="evenodd" stroke="#0620ff" stroke-width=".1" d="M3 4h1v40h-1zm59 50h1v40h-1z"/><path fill="#0621ff" fill-rule="evenodd" stroke="#0621ff" stroke-width=".1" d="M4 4h1v1h-1zm0 42h1v1h-1zm57 5h1v1h-1z"/><path fill="#0725ff" fill-rule="evenodd" stroke="#0725ff" stroke-width=".1" d="M5 4h1v45h-1zm55 45h1v45h-1z"/><path fill="#0726ff" fill-rule="evenodd" stroke="#0726ff" stroke-width=".1" d="M6 4h1v1h-1zm0 45h1v1h-1z"/><path fill="#0729ff" fill-rule="evenodd" stroke="#0729ff" stroke-width=".1" d="M7 4h1v1h-1z"/><path fill="#072bff" fill-rule="evenodd" stroke="#072bff" stroke-width=".1" d="M8 4h1v1h-1z"/><path fill="#082eff" fill-rule="evenodd" stroke="#082eff" stroke-width=".1" d="M9 4h1v1h-1z"/><path fill="#082fff" fill-rule="evenodd" stroke="#082fff" stroke-width=".1" d="M10 4h1v1h-1zm0 50h1v1h-1z"/><path fill="#0a33ff" fill-rule="evenodd" stroke="#0a33ff" stroke-width=".1" d="M11 4h1v51h-1zm43 38h1v52h-1z"/><path fill="#0b34ff" fill-rule="evenodd" stroke="#0b34ff" stroke-width=".1" d="M12 4h1v1h-1z"/><path fill="#1e8cfd" fill-rule="evenodd" stroke="#1e8cfd" stroke-width=".1" d="M53 4h12v1h-12zm12 1h1v47h-1zm-7 37h1v1h-1zm-58 3h1v1h-1zm61 0h1v1h-1zm-60 3h1v1h-1zm1 1h1v1h-1zm1 2h1v1h-1zm62 2h1v1h-1z"/><path fill="#1d8bfd" fill-rule="evenodd" stroke="#1d8bfd" stroke-width=".1" d="M65 4h1v1h-1zm-11 34h1v1h-1zm1 1h1v1h-1zm-51 13h1v1h-1z"/><path fill="#0419ff" fill-rule="evenodd" stroke="#0419ff" stroke-width=".1" d="M0 5h1v26h-1zm0 29h1v1h-1z"/><path fill="#0622ff" fill-rule="evenodd" stroke="#0622ff" stroke-width=".1" d="M4 5h1v41h-1zm57 47h1v42h-1z"/><path fill="#0727ff" fill-rule="evenodd" stroke="#0727ff" stroke-width=".1" d="M6 5h1v44h-1zm53 44h1v45h-1z"/><path fill="#0829ff" fill-rule="evenodd" stroke="#0829ff" stroke-width=".1" d="M7 5h1v46h-1zm51 42h1v47h-1z"/><path fill="#082cff" fill-rule="evenodd" stroke="#082cff" stroke-width=".1" d="M8 5h1v48h-1zm49 40h1v49h-1z"/><path fill="#092eff" fill-rule="evenodd" stroke="#092eff" stroke-width=".1" d="M9 5h1v48h-1zm47 40h1v49h-1z"/><path fill="#0930ff" fill-rule="evenodd" stroke="#0930ff" stroke-width=".1" d="M10 5h1v49h-1z"/><path fill="#0b35ff" fill-rule="evenodd" stroke="#0b35ff" stroke-width=".1" d="M12 5h1v52h-1zm41 37h1v52h-1z"/><path fill="#0b38ff" fill-rule="evenodd" stroke="#0b38ff" stroke-width=".1" d="M13 5h1v26h-1zm0 27h1v1h-1zm0 2h1v24h-1zm39 8h1v22h-1zm0 24h1v1h-1z"/><path fill="#1e8bfd" fill-rule="evenodd" stroke="#1e8bfd" stroke-width=".1" d="M52 5h1v32h-1zm10 42h1v1h-1zm1 1h1v1h-1zm1 2h1v1h-1zm1 2h1v1h-1zm-59 3h1v1h-1zm1 1h1v1h-1zm1 1h1v1h-1zm5 4h1v33h-1z"/><path fill="#1e8cfe" fill-rule="evenodd" stroke="#1e8cfe" stroke-width=".1" d="M53 5h12v45h-1v-2h-1v-1h-1v-2h-1v-1h-1v-1h-1v-1h-1v-1h-1v-1h-1v-1h-1v-1h-2zm-53 41h1v3h1v1h1v2h1v1h1v1h1v2h1v1h1v1h2v1h1v1h1v1h1v33h-13z"/><path fill="#0317ff" fill-rule="evenodd" stroke="#0317ff" stroke-width=".1" d="M88 8h1v1h-1zm6 0h1v1h-1zm-9 2h1v1h-1zm13 1h1v1h-1zm1 2h1v1h-1zm-1 7h1v1h-1zm-13 17h13v1h-13z"/><path fill="#0417ff" fill-rule="evenodd" stroke="#0417ff" stroke-width=".1" d="M86 9h1v1h-1zm-2 2h1v1h-1zm-1 2h1v1h-1zm16 2h1v2h-1zm-16 3h1v1h-1zm2 3h1v1h-1zm11 1h1v1h-1zm0 1v1h-1v-1zm-4 1h1v1h-1z"/><path fill="#0318ff" fill-rule="evenodd" stroke="#0318ff" stroke-width=".1" d="M99 14h1v1h-1zm0 3h1v1h-1zm-15 3h1v1h-1zm-84 12h1v2h-1zm84 6h1v56h-1zm-19 24h1v1h-1z"/><path fill="#0a37ff" fill-rule="evenodd" stroke="#0a37ff" stroke-width=".1" d="M13 31h1v1h-1zm39 33h1v1h-1z"/><path fill="#0a38ff" fill-rule="evenodd" stroke="#0a38ff" stroke-width=".1" d="M13 33h1v1h-1z"/><path fill="#1c88fd" fill-rule="evenodd" stroke="#1c88fd" stroke-width=".1" d="M18 34h1v1h-1zm29 25h1v1h-1z"/><path fill="#1c85fd" fill-rule="evenodd" stroke="#1c85fd" stroke-width=".1" d="M19 34h1v1h-1z"/><path fill="#1b83fd" fill-rule="evenodd" stroke="#1b83fd" stroke-width=".1" d="M20 34h1v1h-1zm0 7h1v1h-1zm25 15h1v1h-1z"/><path fill="#1b81fd" fill-rule="evenodd" stroke="#1b81fd" stroke-width=".1" d="M21 34h1v1h-1z"/><path fill="#1b7efd" fill-rule="evenodd" stroke="#1b7efd" stroke-width=".1" d="M22 34h1v1h-1zm21 20h1v1h-1z"/><path fill="#197cfd" fill-rule="evenodd" stroke="#197cfd" stroke-width=".1" d="M23 34h1v1h-1z"/><path fill="#1979fd" fill-rule="evenodd" stroke="#1979fd" stroke-width=".1" d="M24 34h1v1h-1z"/><path fill="#1976fd" fill-rule="evenodd" stroke="#1976fd" stroke-width=".1" d="M25 34h1v1h-1zm0 11h1v1h-1zm15 7h1v1h-1z"/><path fill="#1975fd" fill-rule="evenodd" stroke="#1975fd" stroke-width=".1" d="M26 34h1v1h-1z"/><path fill="#1872fd" fill-rule="evenodd" stroke="#1872fd" stroke-width=".1" d="M27 34h1v1h-1z"/><path fill="#1870fd" fill-rule="evenodd" stroke="#1870fd" stroke-width=".1" d="M28 34h1v1h-1z"/><path fill="#166dfd" fill-rule="evenodd" stroke="#166dfd" stroke-width=".1" d="M29 34h1v1h-1z"/><path fill="#166afd" fill-rule="evenodd" stroke="#166afd" stroke-width=".1" d="M30 34h1v1h-1z"/><path fill="#1669fd" fill-rule="evenodd" stroke="#1669fd" stroke-width=".1" d="M31 34h1v1h-1z"/><path fill="#1667fd" fill-rule="evenodd" stroke="#1667fd" stroke-width=".1" d="M32 34h1v1h-1z"/><path fill="#1563fd" fill-rule="evenodd" stroke="#1563fd" stroke-width=".1" d="M33 34h1v1h-1zm0 13h1v1h-1z"/><path fill="#1562fd" fill-rule="evenodd" stroke="#1562fd" stroke-width=".1" d="M34 34h1v1h-1z"/><path fill="#1360fd" fill-rule="evenodd" stroke="#1360fd" stroke-width=".1" d="M35 34h1v1h-1zm-5 16h1v1h-1z"/><path fill="#0319ff" fill-rule="evenodd" stroke="#0319ff" stroke-width=".1" d="M0 35h1v1h-1zm65 29h1v2h-1z"/><path fill="#1e8afe" fill-rule="evenodd" stroke="#1e8afe" stroke-width=".1" d="M17 35h1v1h-1z"/><path fill="#1d88fe" fill-rule="evenodd" stroke="#1d88fe" stroke-width=".1" d="M18 35h1v3h-1zm29 25h1v3h-1z"/><path fill="#1c85fe" fill-rule="evenodd" stroke="#1c85fe" stroke-width=".1" d="M19 35h1v5h-1zm27 23h1v5h-1z"/><path fill="#1c83fe" fill-rule="evenodd" stroke="#1c83fe" stroke-width=".1" d="M20 35h1v6h-1zm25 22h1v6h-1z"/><path fill="#1b81fe" fill-rule="evenodd" stroke="#1b81fe" stroke-width=".1" d="M21 35h1v7h-1z"/><path fill="#1b7efe" fill-rule="evenodd" stroke="#1b7efe" stroke-width=".1" d="M22 35h1v8h-1zm21 20h1v9h-1z"/><path fill="#1a7cfe" fill-rule="evenodd" stroke="#1a7cfe" stroke-width=".1" d="M23 35h1v9h-1zm19 19h1v10h-1z"/><path fill="#1a79fe" fill-rule="evenodd" stroke="#1a79fe" stroke-width=".1" d="M24 35h1v10h-1zm17 19h1v10h-1z"/><path fill="#1977fe" fill-rule="evenodd" stroke="#1977fe" stroke-width=".1" d="M25 35h1v10h-1zm15 18h1v11h-1z"/><path fill="#1975fe" fill-rule="evenodd" stroke="#1975fe" stroke-width=".1" d="M26 35h1v11h-1zm13 17h1v12h-1z"/><path fill="#1872fe" fill-rule="evenodd" stroke="#1872fe" stroke-width=".1" d="M27 35h1v11h-1zm11 17h1v12h-1z"/><path fill="#1870fe" fill-rule="evenodd" stroke="#1870fe" stroke-width=".1" d="M28 35h1v12h-1zm9 17h1v12h-1z"/><path fill="#176efe" fill-rule="evenodd" stroke="#176efe" stroke-width=".1" d="M29 35h1v12h-1zm7 16h1v13h-1z"/><path fill="#176bfe" fill-rule="evenodd" stroke="#176bfe" stroke-width=".1" d="M30 35h1v12h-1zm5 16h1v13h-1z"/><path fill="#1669fe" fill-rule="evenodd" stroke="#1669fe" stroke-width=".1" d="M31 35h1v12h-1zm3 16h1v13h-1z"/><path fill="#1667fe" fill-rule="evenodd" stroke="#1667fe" stroke-width=".1" d="M32 35h1v12h-1zm1 16h1v13h-1z"/><path fill="#1564fe" fill-rule="evenodd" stroke="#1564fe" stroke-width=".1" d="M33 35h1v12h-1zm-1 16h1v12h-1z"/><path fill="#1562fe" fill-rule="evenodd" stroke="#1562fe" stroke-width=".1" d="M34 35h1v12h-1zm-3 16h1v12h-1z"/><path fill="#1460fe" fill-rule="evenodd" stroke="#1460fe" stroke-width=".1" d="M35 35h1v13h-1zm-5 16h1v12h-1z"/><path fill="#145dfe" fill-rule="evenodd" stroke="#145dfe" stroke-width=".1" d="M36 35h1v13h-1zm-7 16h1v12h-1z"/><path fill="#135bfe" fill-rule="evenodd" stroke="#135bfe" stroke-width=".1" d="M37 35h1v13h-1zm-9 15h1v13h-1z"/><path fill="#1259fe" fill-rule="evenodd" stroke="#1259fe" stroke-width=".1" d="M38 35h1v13h-1z"/><path fill="#1255fd" fill-rule="evenodd" stroke="#1255fd" stroke-width=".1" d="M39 35h1v1h-1z"/><path fill="#1054fd" fill-rule="evenodd" stroke="#1054fd" stroke-width=".1" d="M40 35h1v1h-1z"/><path fill="#1151ff" fill-rule="evenodd" stroke="#1151ff" stroke-width=".1" d="M41 35h1v15h-1zm-17 14h1v13h-1z"/><path fill="#1d8afd" fill-rule="evenodd" stroke="#1d8afd" stroke-width=".1" d="M17 36h1v1h-1zm31 25h1v1h-1zm0 2h1v1h-1z"/><path fill="#1256fe" fill-rule="evenodd" stroke="#1256fe" stroke-width=".1" d="M39 36h1v12h-1zm-13 14h1v13h-1z"/><path fill="#1154fe" fill-rule="evenodd" stroke="#1154fe" stroke-width=".1" d="M40 36h1v13h-1zm-15 14h1v13h-1z"/><path fill="#104fff" fill-rule="evenodd" stroke="#104fff" stroke-width=".1" d="M42 36h1v14h-1zm-19 13h1v14h-1z"/><path fill="#104cff" fill-rule="evenodd" stroke="#104cff" stroke-width=".1" d="M43 36h1v1h-1zm0 14h1v1h-1z"/><path fill="#0e49ff" fill-rule="evenodd" stroke="#0e49ff" stroke-width=".1" d="M44 36h1v1h-1z"/><path fill="#0b3aff" fill-rule="evenodd" stroke="#0b3aff" stroke-width=".1" d="M14 37h1v1h-1zm37 23h1v1h-1z"/><path fill="#104dff" fill-rule="evenodd" stroke="#104dff" stroke-width=".1" d="M43 37h1v13h-1zm-21 11h1v14h-1z"/><path fill="#0f4aff" fill-rule="evenodd" stroke="#0f4aff" stroke-width=".1" d="M44 37h1v14h-1zm-23 10h1v14h-1z"/><path fill="#0f48ff" fill-rule="evenodd" stroke="#0f48ff" stroke-width=".1" d="M45 37h1v15h-1zm-25 10h1v14h-1z"/><path fill="#0d45ff" fill-rule="evenodd" stroke="#0d45ff" stroke-width=".1" d="M46 37h1v1h-1zm-27 8h1v1h-1z"/><path fill="#1d8cfd" fill-rule="evenodd" stroke="#1d8cfd" stroke-width=".1" d="M52 37h1v1h-1zm4 3h1v1h-1zm1 1h1v1h-1zm2 2h1v1h-1zm1 1h1v1h-1zm-59 3h1v1h-1zm4 6h1v1h-1zm5 5h1v1h-1zm1 1h1v1h-1zm1 1h1v1h-1z"/><path fill="#0c3aff" fill-rule="evenodd" stroke="#0c3aff" stroke-width=".1" d="M14 38h1v20h-1zm37 3h1v19h-1z"/><path fill="#1c87fd" fill-rule="evenodd" stroke="#1c87fd" stroke-width=".1" d="M18 38h1v1h-1z"/><path fill="#0e46ff" fill-rule="evenodd" stroke="#0e46ff" stroke-width=".1" d="M46 38h1v14h-1zm-27 8h1v15h-1z"/><path fill="#0e43ff" fill-rule="evenodd" stroke="#0e43ff" stroke-width=".1" d="M47 38h1v16h-1zm-29 7h1v15h-1z"/><path fill="#0d40ff" fill-rule="evenodd" stroke="#0d40ff" stroke-width=".1" d="M48 38h1v1h-1z"/><path fill="#051aff" fill-rule="evenodd" stroke="#051aff" stroke-width=".1" d="M1 39h1v1h-1zm63 20h1v1h-1z"/><path fill="#0b3cff" fill-rule="evenodd" stroke="#0b3cff" stroke-width=".1" d="M15 39h1v1h-1z"/><path fill="#0d41ff" fill-rule="evenodd" stroke="#0d41ff" stroke-width=".1" d="M48 39h1v16h-1zm-31 4h1v16h-1z"/><path fill="#0d3fff" fill-rule="evenodd" stroke="#0d3fff" stroke-width=".1" d="M49 39h1v17h-1zm-33 2h1v19h-1z"/><path fill="#0c3bff" fill-rule="evenodd" stroke="#0c3bff" stroke-width=".1" d="M50 39h1v1h-1zm-35 1h1v1h-1zm35 18h1v1h-1z"/><path fill="#1b84fd" fill-rule="evenodd" stroke="#1b84fd" stroke-width=".1" d="M19 40h1v1h-1zm27 17h1v1h-1zm0 6h1v1h-1z"/><path fill="#0c3cff" fill-rule="evenodd" stroke="#0c3cff" stroke-width=".1" d="M50 40h1v18h-1zm-35 1h1v17h-1z"/><path fill="#0b39ff" fill-rule="evenodd" stroke="#0b39ff" stroke-width=".1" d="M51 40h1v1h-1zm0 21h1v1h-1z"/><path fill="#0b37ff" fill-rule="evenodd" stroke="#0b37ff" stroke-width=".1" d="M52 41h1v1h-1zm0 24h1v1h-1zm0 2h1v27h-1z"/><path fill="#041eff" fill-rule="evenodd" stroke="#041eff" stroke-width=".1" d="M2 42h1v1h-1z"/><path fill="#1b80fd" fill-rule="evenodd" stroke="#1b80fd" stroke-width=".1" d="M21 42h1v1h-1z"/><path fill="#1a7efd" fill-rule="evenodd" stroke="#1a7efd" stroke-width=".1" d="M22 43h1v1h-1z"/><path fill="#0a30ff" fill-rule="evenodd" stroke="#0a30ff" stroke-width=".1" d="M55 43h1v1h-1z"/><path fill="#061fff" fill-rule="evenodd" stroke="#061fff" stroke-width=".1" d="M3 44h1v1h-1z"/><path fill="#0d42ff" fill-rule="evenodd" stroke="#0d42ff" stroke-width=".1" d="M18 44h1v1h-1z"/><path fill="#1a7bfd" fill-rule="evenodd" stroke="#1a7bfd" stroke-width=".1" d="M23 44h1v1h-1zm19 9h1v1h-1z"/><path fill="#0a31ff" fill-rule="evenodd" stroke="#0a31ff" stroke-width=".1" d="M55 44h1v50h-1z"/><path fill="#092dff" fill-rule="evenodd" stroke="#092dff" stroke-width=".1" d="M56 44h1v1h-1zm-47 9h1v1h-1z"/><path fill="#051fff" fill-rule="evenodd" stroke="#051fff" stroke-width=".1" d="M3 45h1v1h-1zm59 8h1v1h-1z"/><path fill="#0f47ff" fill-rule="evenodd" stroke="#0f47ff" stroke-width=".1" d="M20 46h1v1h-1z"/><path fill="#1771fd" fill-rule="evenodd" stroke="#1771fd" stroke-width=".1" d="M27 46h1v1h-1z"/><path fill="#0f4cff" fill-rule="evenodd" stroke="#0f4cff" stroke-width=".1" d="M22 47h1v1h-1z"/><path fill="#176afd" fill-rule="evenodd" stroke="#176afd" stroke-width=".1" d="M30 47h1v1h-1z"/><path fill="#1569fd" fill-rule="evenodd" stroke="#1569fd" stroke-width=".1" d="M31 47h1v1h-1z"/><path fill="#1567fd" fill-rule="evenodd" stroke="#1567fd" stroke-width=".1" d="M32 47h1v1h-1zm1 3h1v1h-1z"/><path fill="#1461fd" fill-rule="evenodd" stroke="#1461fd" stroke-width=".1" d="M34 47h1v1h-1z"/><path fill="#104eff" fill-rule="evenodd" stroke="#104eff" stroke-width=".1" d="M23 48h1v1h-1z"/><path fill="#1051ff" fill-rule="evenodd" stroke="#1051ff" stroke-width=".1" d="M24 48h1v1h-1zm0 14h1v1h-1z"/><path fill="#1158fd" fill-rule="evenodd" stroke="#1158fd" stroke-width=".1" d="M38 48h1v1h-1z"/><path fill="#1256fd" fill-rule="evenodd" stroke="#1256fd" stroke-width=".1" d="M39 48h1v1h-1z"/><path fill="#0626ff" fill-rule="evenodd" stroke="#0626ff" stroke-width=".1" d="M59 48h1v1h-1z"/><path fill="#1153fd" fill-rule="evenodd" stroke="#1153fd" stroke-width=".1" d="M25 49h1v1h-1z"/><path fill="#1155fd" fill-rule="evenodd" stroke="#1155fd" stroke-width=".1" d="M26 49h1v1h-1z"/><path fill="#1258fe" fill-rule="evenodd" stroke="#1258fe" stroke-width=".1" d="M27 50h1v13h-1z"/><path fill="#145cfd" fill-rule="evenodd" stroke="#145cfd" stroke-width=".1" d="M29 50h1v1h-1z"/><path fill="#1462fd" fill-rule="evenodd" stroke="#1462fd" stroke-width=".1" d="M31 50h1v1h-1z"/><path fill="#1564fd" fill-rule="evenodd" stroke="#1564fd" stroke-width=".1" d="M32 50h1v1h-1zm0 13h1v1h-1z"/><path fill="#0828ff" fill-rule="evenodd" stroke="#0828ff" stroke-width=".1" d="M7 51h1v1h-1z"/><path fill="#1770fd" fill-rule="evenodd" stroke="#1770fd" stroke-width=".1" d="M37 51h1v1h-1z"/><path fill="#1871fd" fill-rule="evenodd" stroke="#1871fd" stroke-width=".1" d="M38 51h1v1h-1z"/><path fill="#0e4aff" fill-rule="evenodd" stroke="#0e4aff" stroke-width=".1" d="M44 51h1v1h-1z"/><path fill="#0e45ff" fill-rule="evenodd" stroke="#0e45ff" stroke-width=".1" d="M46 52h1v1h-1z"/><path fill="#1a79fd" fill-rule="evenodd" stroke="#1a79fd" stroke-width=".1" d="M41 53h1v1h-1z"/><path fill="#0932ff" fill-rule="evenodd" stroke="#0932ff" stroke-width=".1" d="M11 55h1v1h-1z"/><path fill="#1b7ffd" fill-rule="evenodd" stroke="#1b7ffd" stroke-width=".1" d="M44 55h1v1h-1z"/><path fill="#0c40ff" fill-rule="evenodd" stroke="#0c40ff" stroke-width=".1" d="M48 55h1v1h-1zm-31 4h1v1h-1z"/><path fill="#041dff" fill-rule="evenodd" stroke="#041dff" stroke-width=".1" d="M63 55h1v1h-1z"/><path fill="#1b80fe" fill-rule="evenodd" stroke="#1b80fe" stroke-width=".1" d="M44 56h1v8h-1z"/><path fill="#0c3eff" fill-rule="evenodd" stroke="#0c3eff" stroke-width=".1" d="M49 56h1v1h-1z"/><path fill="#051dff" fill-rule="evenodd" stroke="#051dff" stroke-width=".1" d="M63 56h1v1h-1z"/><path fill="#0b3bff" fill-rule="evenodd" stroke="#0b3bff" stroke-width=".1" d="M15 58h1v1h-1z"/><path fill="#041aff" fill-rule="evenodd" stroke="#041aff" stroke-width=".1" d="M64 58h1v1h-1z"/><path fill="#0d43ff" fill-rule="evenodd" stroke="#0d43ff" stroke-width=".1" d="M18 60h1v1h-1z"/><path fill="#0f49ff" fill-rule="evenodd" stroke="#0f49ff" stroke-width=".1" d="M21 61h1v1h-1z"/><path fill="#1e8afd" fill-rule="evenodd" stroke="#1e8afd" stroke-width=".1" d="M48 62h1v1h-1z"/><path fill="#135afd" fill-rule="evenodd" stroke="#135afd" stroke-width=".1" d="M28 63h1v1h-1z"/><path fill="#135dfd" fill-rule="evenodd" stroke="#135dfd" stroke-width=".1" d="M29 63h1v1h-1z"/><path fill="#1460fd" fill-rule="evenodd" stroke="#1460fd" stroke-width=".1" d="M30 63h1v1h-1z"/><path fill="#1561fd" fill-rule="evenodd" stroke="#1561fd" stroke-width=".1" d="M31 63h1v1h-1z"/><path fill="#1c83fd" fill-rule="evenodd" stroke="#1c83fd" stroke-width=".1" d="M45 63h1v1h-1z"/><path fill="#1d87fd" fill-rule="evenodd" stroke="#1d87fd" stroke-width=".1" d="M47 63h1v1h-1z"/></svg>