<svg xmlns="http://www.w3.org/2000/svg" viewBox="0 0 100 100"><path fill-rule="evenodd" d="M33 1h1v3h-1v1h1v4h-1v-3h-1v-4h1zm2 0h1v2h-1zm2 1h1v2h-1zm3 3h1v1h-1zm9 0h1v2h-2v-1h1zm-1 2v1h-1v-1zm-14 2h1v1h-1zm8-1h1v1h-1zm9 0h2v1h-1v1h-1v1h-2v-1h1v-1h1zm-6 1h2v1h-1v2h-3v-2h1v1h1zm-9 3h1v1h1v1h1v1h1v2h-7v1h-2v1h-1v-2h2v-1h3v-1h2v-1h-1zm12 0h1v1h-1zm-4 1h1v5h-4v-1h3zm3 1h2v1h-1v2h1v2h-2zm6 1h4v1h3v1h-9v-1h2zm-2 2v1h-1v-1zm9 0h2v2h-1v-1h-1zm3 3h1v1h-1zm1 1h2v2h1v1h-2v-2h-1zm-38 0h2v1h-1v1h-1zm-1 3h1v1h-1zm0 1v5h-1v2h1v1h-2v-5h1v-3zm41 0h1v1h1v5h1v1h1v1h-6v-1h-1v-1h-1v-1h-1v-1h1v1h1v1h1v1h3v-5h-1zm-38 2h2v1h-2zm5 0h2v1h-2zm2 1h1v1h-1zm1 1h1v1h-1zm18-1h6v1h-6zm0 1v1h-1v-1zm-29 1h1v1h-1zm12 0h1v1h-1zm5 1h4v1h-4zm9 0h1v1h-1zm-11 1h1v1h-1zm0 1v1h-1v1h-1v-2zm7-1h1v1h-1zm-27 1h2v1h-1v1h-1zm30 0h1v3h-1v-1h-1v-1h1zm21 0h1v1h-1zm1 2h2v1h-2zm-53 1h1v5h1v1h1v1h3v52h-1v-37h-1v-14h-2v-1h-1v-1h-1v-3h-1v-2h1zm54 1h1v1h-1zm0 2h1v1h-1zm0 1v2h-2v-1h1v-1zm-2 2v2h-1v-2zm-4 1h2v2h-1v2h-1zm-41 1h3v1h-3zm37 0h2v1h-2zm-33 1h4v1h-4zm31 0h1v2h-1zm-25 1h8v1h-8zm33 1h8v1h2v2h-1v-1h-3v-1h-6zm-19 1h1v1h-1zm1 1h1v1h-1zm9-1h1v1h-1zm-8 2h1v1h-1zm27 0h2v2h1v27h-1v-26h-1v-2h-1zm-26 2h1v2h-1zm1 2h1v1h-1zm5-1h1v1h-1zm9 1h6v1h-5v1h-1v22h-1v-23h1zm7 0h1v2h-1zm-19 1h2v1h-2zm13 23h7v1h-2v1h-4v-1h-1zm12 2h1v1h-1zm0 1v1h-1v-1zm-4 3h1v1h-1zm0 1v1h-8v1h-1v7h-1v-8h1v-1zm-10 9v2h-2v1h-3v-1h2v-1h2v-1zm-42 1h1v1h-1zm2 1h2v1h1v1h-2v-1h-1zm35 1v1h-1v-1zm-31 0h4v1h1v1h-3v-1h-2zm25 0h4v1h-2v1h-2zm-19 1h18v1h-18z"/><path fill="#010101" fill-rule="evenodd" d="M34 1h1v1h-1zm2 1h1v1h-1zm2 1h1v1h-1zm1 1h1v1h-1zm-6 0h1v1h-1zm8 2h1v1h1v1h-2zm9 0h1v1h-1zm1 1h1v1h-1zm-5 1h1v1h-1zm-3 1h1v1h-1zm-9 1h2v2h-1v-1h-1zm15 1h1v1h-1zm-5 1h1v1h-1zm4 1h1v1h-1zm-8 3h1v1h-1zm9 1h1v1h-1zm-20 1h1v1h-1zm0 1v1h-1v-1zm33-1h1v1h1v1h-2zm-34 2v1h-1v-1zm36 0h1v1h-1zm-39 3h1v1h-1zm41 1h1v1h-1zm-44 8h1v1h-1zm48 0h1v1h-1zm-22 1h1v1h-1zm24 1h1v1h-1zm-53 1h1v1h-1zm54 1h1v1h-1zm0 2h1v1h-1zm-2 4h1v1h-1zm-5 1h1v1h-1zm3 0h1v1h-1zm-1 4h1v1h-1zm11 2h1v1h-1zm-26 2h1v1h-1zm21 3h1v1h-1zm1 2h1v22h-1zm-7 22h1v1h-1zm13 1h1v1h-1zm0 1v1h-1v-1zm-1 2h1v1h-1zm0 1v1h-1v-1zm-1 1v1h-1v-1zm-12 10h1v1h-1zm-43 1h1v1h-1zm2 1h1v1h-1zm35 0h1v1h-1zm0 1v1h-1v-1zm-31 0h1v1h-1zm6 1h1v1h-1zm19 0h1v1h-1z"/><path fill="#171717" fill-rule="evenodd" d="M34 2h1v1h-1zm-2 25h1v1h-1zm37 26h1v1h-1z"/><path fill="#cbcdce" fill-rule="evenodd" d="M34 3h1v1h-1zm-7 23h1v1h-1z"/><path fill="#8a8b8c" fill-rule="evenodd" d="M35 3h1v1h-1zm11 15h1v1h-1z"/><path fill="#1c1c1d" fill-rule="evenodd" d="M36 3h1v1h-1z"/><path fill="#cfd1d2" fill-rule="evenodd" d="M34 4h1v1h-1zm13 6h1v1h-1zm13 9h1v1h-1zm4 5h1v1h-1z"/><path fill="#d1d3d4" fill-rule="evenodd" d="M35 4h1v1h2v1h1v1h1v1h1v2h1v3h1v3h-1v-1h-1v-1h-1v-1h-1v-1h-1v-1h-1v-1h-1v-2h-1zm13 5h1v1h-1zm-2 4h1v1h-1zm-13 5h8v1h6v1h2v-1h3v-1h7v1h1v1h2v1h1v2h1v2h1v3h1v3h-1v-1h-1v-1h-1v-1h-2v-1h-7v1h-2v1h-1v1h-1v2h-1v-1h-2v-1h-6v1h-2v-2h-1v-1h-1v-1h-1v-1h-9v-2h1v-2h1v-1h1v-1h1v-1h2zm-6 8v1h-1v-1z"/><path fill="#c9cbcc" fill-rule="evenodd" d="M36 4h1v1h-1z"/><path fill="#606161" fill-rule="evenodd" d="M37 4h1v1h-1zm8 9h1v1h-1z"/><path fill="#030303" fill-rule="evenodd" d="M38 4h1v1h-1zm-11 24h1v1h-1zm33 0h1v1h-1zm-8 2h1v1h-1zm-14 2h1v1h-1zm12 0h1v1h-1zm0 1v1h-1v-1zm22 6h1v1h-1zm6 44h1v1h-1zm-49 13h1v1h-1z"/><path fill="#b9bbbc" fill-rule="evenodd" d="M34 5h1v1h-1z"/><path fill="#989a9b" fill-rule="evenodd" d="M38 5h1v1h-1zm-9 15h1v1h-1zm16 10h1v1h-1z"/><path fill="#0a0a0a" fill-rule="evenodd" d="M39 5h1v1h-1zm-8 21h1v1h-1zm-9 7h1v1h-1zm4 62h1v1h-1z"/><path fill="#8c8d8e" fill-rule="evenodd" d="M34 6h1v1h-1zm12 9h1v1h-1z"/><path fill="#a9aaab" fill-rule="evenodd" d="M39 6h1v1h-1z"/><path fill="#0f0f0f" fill-rule="evenodd" d="M40 6h1v1h-1z"/><path fill="#4b4b4c" fill-rule="evenodd" d="M34 7h1v1h-1z"/><path fill="#969798" fill-rule="evenodd" d="M40 7h1v1h-1zm25 24h1v1h-1z"/><path fill="#0f0f10" fill-rule="evenodd" d="M48 7h1v1h-1z"/><path fill="#7d7f7f" fill-rule="evenodd" d="M49 7h1v1h-1z"/><path fill="#090909" fill-rule="evenodd" d="M50 7h1v1h-1zm26 77h1v1h-1z"/><path fill="#060606" fill-rule="evenodd" d="M34 8h1v1h-1zm-5 11h1v1h-1zm5 26h1v1h-1zm10 1h1v1h-1z"/><path fill="#bec0c1" fill-rule="evenodd" d="M35 8h1v1h-1zm16 10h1v1h-1z"/><path fill="#616262" fill-rule="evenodd" d="M41 8h1v1h-1zm22 13h1v1h-1z"/><path fill="#050505" fill-rule="evenodd" d="M47 8h1v1h-1zm-22 17h1v1h-1z"/><path fill="#a4a5a6" fill-rule="evenodd" d="M48 8h1v1h-1z"/><path fill="#cacccd" fill-rule="evenodd" d="M49 8h1v1h-1zm-11 4h1v1h-1z"/><path fill="#2b2c2c" fill-rule="evenodd" d="M50 8h1v1h-1z"/><path fill="#575858" fill-rule="evenodd" d="M35 9h1v1h-1z"/><path fill="#c3c5c6" fill-rule="evenodd" d="M41 9h1v1h-1zm14 8h1v1h-1z"/><path fill="#0b0b0c" fill-rule="evenodd" d="M42 9h1v1h-1z"/><path fill="#747576" fill-rule="evenodd" d="M47 9h1v1h-1z"/><path fill="#464647" fill-rule="evenodd" d="M49 9h1v1h-1zm3 8h1v1h-1z"/><path fill="#9c9d9e" fill-rule="evenodd" d="M36 10h1v1h-1z"/><path fill="#626364" fill-rule="evenodd" d="M42 10h1v1h-1z"/><path fill="#292929" fill-rule="evenodd" d="M46 10h1v1h-1zm14 19h1v1h-1z"/><path fill="#7d7e7e" fill-rule="evenodd" d="M48 10h1v1h-1z"/><path fill="#151515" fill-rule="evenodd" d="M36 11h1v1h-1zm8 7h1v1h-1zm-14 8h1v1h-1z"/><path fill="#c1c3c4" fill-rule="evenodd" d="M37 11h1v1h-1zm10 0h1v1h-1z"/><path fill="#a6a8a9" fill-rule="evenodd" d="M42 11h1v1h-1zm-7 6h1v1h-1z"/><path fill="#939495" fill-rule="evenodd" d="M46 11h1v1h-1z"/><path fill="#0e0e0e" fill-rule="evenodd" d="M48 11h1v1h-1zm23 23h1v1h-1zm-46 10h1v1h-1z"/><path fill="#363737" fill-rule="evenodd" d="M37 12h1v1h-1z"/><path fill="#d0d2d3" fill-rule="evenodd" d="M42 12h1v1h-1zm4 0h1v1h-1zm-11 14h1v1h-1zm30 1h1v1h-1z"/><path fill="#131313" fill-rule="evenodd" d="M43 12h1v1h-1zm9 17h1v1h-1zm-11 2h1v1h-1z"/><path fill="#1e1e1e" fill-rule="evenodd" d="M45 12h1v1h-1zm-20 31h1v1h-1z"/><path fill="#6c6d6e" fill-rule="evenodd" d="M47 12h1v1h-1z"/><path fill="#3d3d3e" fill-rule="evenodd" d="M38 13h1v1h-1zm-7 5h1v1h-1zm35 11h1v1h-1z"/><path fill="#cccecf" fill-rule="evenodd" d="M39 13h1v1h-1zm24 9h1v1h-1zm1 8h1v1h-1z"/><path fill="#2b2b2c" fill-rule="evenodd" d="M43 13h1v1h-1z"/><path fill="#1b1c1c" fill-rule="evenodd" d="M47 13h1v1h-1z"/><path fill="#3c3c3d" fill-rule="evenodd" d="M39 14h1v1h-1z"/><path fill="#c5c7c8" fill-rule="evenodd" d="M40 14h1v1h-1zm22 14h1v1h-1z"/><path fill="#303030" fill-rule="evenodd" d="M43 14h1v1h-1z"/><path fill="#8f9191" fill-rule="evenodd" d="M45 14h1v1h-1z"/><path fill="#b7b9b9" fill-rule="evenodd" d="M46 14h1v1h-1zm-1 4h1v1h-1z"/><path fill="#1e1f1f" fill-rule="evenodd" d="M40 15h1v1h-1z"/><path fill="#b2b4b4" fill-rule="evenodd" d="M41 15h1v1h-1zm18 3h1v1h-1z"/><path fill="#2f2f2f" fill-rule="evenodd" d="M43 15h1v1h-1zm-8 12h1v1h-1zm42 22h1v1h-1zm-9 30h1v1h-1z"/><path fill="#abadae" fill-rule="evenodd" d="M45 15h1v1h-1z"/><path fill="#020202" fill-rule="evenodd" d="M41 16h1v1h-1zm18 1h1v1h-1zm-35 14h1v1h-1zm13 0h1v1h-1zm28 13h1v1h-1zm4 35h1v1h-1zm10 3h1v1h-1z"/><path fill="#474949" fill-rule="evenodd" d="M42 16h1v1h-1z"/><path fill="#282829" fill-rule="evenodd" d="M43 16h1v1h-1z"/><path fill="#afb0b1" fill-rule="evenodd" d="M45 16h1v1h-1z"/><path fill="#7a7b7c" fill-rule="evenodd" d="M46 16h1v1h-1z"/><path fill="#303131" fill-rule="evenodd" d="M33 17h1v1h-1zm6 15h1v1h-1z"/><path fill="#747575" fill-rule="evenodd" d="M34 17h1v1h-1zm25 10h1v1h-1z"/><path fill="#c2c4c5" fill-rule="evenodd" d="M36 17h1v1h-1zm-9 6h1v1h-1zm21 8h1v1h-1z"/><path fill="#c1c2c3" fill-rule="evenodd" d="M37 17h1v1h-1zm-11 8h1v1h-1z"/><path fill="#9b9c9d" fill-rule="evenodd" d="M38 17h1v1h-1zm11 15h1v1h-1z"/><path fill="#68696a" fill-rule="evenodd" d="M39 17h1v1h-1z"/><path fill="#242424" fill-rule="evenodd" d="M40 17h1v1h-1z"/><path fill="#a1a2a3" fill-rule="evenodd" d="M45 17h1v1h-1z"/><path fill="#787a7a" fill-rule="evenodd" d="M46 17h1v1h-1z"/><path fill="#040404" fill-rule="evenodd" d="M51 17h1v1h-1zm-27 13h1v1h-1zm43 17h1v1h-1z"/><path fill="#929394" fill-rule="evenodd" d="M53 17h1v1h-1z"/><path fill="#bcbdbe" fill-rule="evenodd" d="M54 17h1v1h-1zm9 12h1v1h-1z"/><path fill="#b3b4b5" fill-rule="evenodd" d="M56 17h1v1h-1z"/><path fill="#898a8b" fill-rule="evenodd" d="M57 17h1v1h-1z"/><path fill="#444545" fill-rule="evenodd" d="M58 17h1v1h-1z"/><path fill="#acaeaf" fill-rule="evenodd" d="M32 18h1v1h-1zm9 0h1v1h-1zm24 8h1v1h-1zm-11 1h1v1h-1z"/><path fill="#6d6e6f" fill-rule="evenodd" d="M42 18h1v1h-1z"/><path fill="#333334" fill-rule="evenodd" d="M43 18h1v1h-1z"/><path fill="#222323" fill-rule="evenodd" d="M49 18h1v1h-1z"/><path fill="#6b6c6d" fill-rule="evenodd" d="M50 18h1v1h-1z"/><path fill="#393939" fill-rule="evenodd" d="M60 18h1v1h-1zm-7 32h1v1h-1z"/><path fill="#7f8081" fill-rule="evenodd" d="M30 19h1v1h-1zm-5 8h1v1h-1zm13 3h1v1h-1z"/><path fill="#b8b9ba" fill-rule="evenodd" d="M47 19h1v1h-1z"/><path fill="#c7c9ca" fill-rule="evenodd" d="M48 19h1v1h-1zm-2 11h1v1h-1z"/><path fill="#636465" fill-rule="evenodd" d="M61 19h1v1h-1z"/><path fill="#060707" fill-rule="evenodd" d="M28 20h1v1h-1z"/><path fill="#7c7d7e" fill-rule="evenodd" d="M62 20h1v1h-1z"/><path fill="#8b8d8d" fill-rule="evenodd" d="M28 21h1v1h-1z"/><path fill="#545455" fill-rule="evenodd" d="M27 22h1v1h-1zm34 6h1v1h-1z"/><path fill="#212122" fill-rule="evenodd" d="M64 22h1v1h-1z"/><path fill="#0d0d0d" fill-rule="evenodd" d="M26 23h1v1h-1zm37 9h1v1h-1z"/><path fill="#949596" fill-rule="evenodd" d="M64 23h1v1h-1z"/><path fill="#6e6f6f" fill-rule="evenodd" d="M26 24h1v1h-1z"/><path fill="#1d1d1e" fill-rule="evenodd" d="M65 24h1v1h-1z"/><path fill="#707172" fill-rule="evenodd" d="M65 25h1v1h-1z"/><path fill="#464747" fill-rule="evenodd" d="M25 26h1v1h-1zm8 0h1v1h-1z"/><path fill="#7e7f80" fill-rule="evenodd" d="M28 26h1v1h-1z"/><path fill="#3b3c3c" fill-rule="evenodd" d="M29 26h1v1h-1z"/><path fill="#1a1a1b" fill-rule="evenodd" d="M32 26h1v1h-1z"/><path fill="#909292" fill-rule="evenodd" d="M34 26h1v1h-1z"/><path fill="#a2a4a5" fill-rule="evenodd" d="M26 27h1v1h-1z"/><path fill="#1b1b1c" fill-rule="evenodd" d="M27 27h1v1h-1z"/><path fill="#202020" fill-rule="evenodd" d="M30 27h1v1h-1zm16 5h1v1h-1z"/><path fill="#313131" fill-rule="evenodd" d="M31 27h1v1h-1z"/><path fill="#b8babb" fill-rule="evenodd" d="M36 27h1v1h-1zm24 0h1v1h-1zm-8 1h1v1h-1z"/><path fill="#6b6c6c" fill-rule="evenodd" d="M55 27h1v1h-1z"/><path fill="#484949" fill-rule="evenodd" d="M56 27h1v1h-1z"/><path fill="#383839" fill-rule="evenodd" d="M57 27h1v1h-1z"/><path fill="#494a4a" fill-rule="evenodd" d="M58 27h1v1h-1z"/><path fill="#080809" fill-rule="evenodd" d="M66 27h1v1h-1z"/><path fill="#848585" fill-rule="evenodd" d="M25 28h1v1h-1z"/><path fill="#080808" fill-rule="evenodd" d="M26 28h1v1h-1zm20 3h1v1h-1zm24 2h1v1h-1zm-32 2h1v1h-1z"/><path fill="#6f6f6f" fill-rule="evenodd" d="M28 28h1v1h-1z"/><path fill="#e0e0e0" fill-rule="evenodd" d="M29 28h1v1h-1z"/><path fill="#fff" fill-rule="evenodd" d="M30 28h3v1h2v1h1v2h1v5h2v-1h1v-1h1v-1h1v-1h4v1h2v2h1v1h3v-4h1v-2h1v-1h6v1h2v2h1v1h7v1h1v2h1v2h-1v2h-2v1h-3v1h-3v1h-3v3h-1v6h-1v1h-2v-1h-1v-2h-1v-2h-1v-1h-1v-1h-1v-1h-8v-1h-8v-1h-5v-1h-5v-1h-2v-1h-1v-1h-1v-4h1v-1h1v-1h3v-2h1v-2h1v-1h2zm-4 18h2v44h2v1h3v1h4v1h17v-1h5v-1h2v-1h2v-1h1v-43h2v2h1v1h8v1h2v1h1v1h1v2h1v26h-1v2h-1v1h-2v1h-9v1h-1v9h-2v1h-3v1h-5v1h-21v-1h-5v-1h-3v-1h-1zm42 7h-1v1h-1v25h1v1h10v-27z"/><path fill="#cecece" fill-rule="evenodd" d="M33 28h1v1h-1zm0 68h1v1h-1zm24 0h1v1h-1z"/><path fill="#515151" fill-rule="evenodd" d="M34 28h1v1h-1z"/><path fill="#141414" fill-rule="evenodd" d="M36 28h1v1h-1z"/><path fill="#b5b7b8" fill-rule="evenodd" d="M37 28h1v1h-1z"/><path fill="#404141" fill-rule="evenodd" d="M53 28h1v1h-1z"/><path fill="#29292a" fill-rule="evenodd" d="M66 28h1v1h-1z"/><path fill="#101010" fill-rule="evenodd" d="M25 29h1v1h-1zm16 3h1v1h-1zm28 16h5v1h-5zm-2 30h1v1h-1zm7 1h1v1h-1z"/><path fill="#070707" fill-rule="evenodd" d="M26 29h1v1h-1z"/><path fill="#b4b4b4" fill-rule="evenodd" d="M27 29h1v1h-1zm-2 44h1v2h-1z"/><path fill="#8b8b8b" fill-rule="evenodd" d="M35 29h1v1h-1zm16 4h1v1h-1z"/><path fill="#272727" fill-rule="evenodd" d="M37 29h1v1h-1zm29 15h1v1h-1z"/><path fill="#ced0d1" fill-rule="evenodd" d="M38 29h1v1h-1z"/><path fill="#a8aaaa" fill-rule="evenodd" d="M51 29h1v1h-1z"/><path fill="#3c3c3c" fill-rule="evenodd" d="M54 29h1v1h-1zm0 24h1v1h-1zm26 25h1v1h-1zm-17 17h1v1h-1z"/><path fill="#a7a7a7" fill-rule="evenodd" d="M55 29h1v1h-1z"/><path fill="#e2e2e2" fill-rule="evenodd" d="M56 29h1v1h-1zm-32 13h1v1h-1z"/><path fill="#f3f3f3" fill-rule="evenodd" d="M57 29h1v1h-1zm19 54h1v1h-1zm-20 13h1v1h-1z"/><path fill="#dfdfdf" fill-rule="evenodd" d="M58 29h1v1h-1zm-5 20h1v1h-1z"/><path fill="#999" fill-rule="evenodd" d="M59 29h1v1h-1zm-16 3h1v1h-1zm-1 65h1v1h-1zm7 0h1v1h-1z"/><path fill="#232424" fill-rule="evenodd" d="M62 29h1v1h-1z"/><path fill="#8e8e8e" fill-rule="evenodd" d="M26 30h1v1h-1zm33 18h1v1h-1z"/><path fill="#606060" fill-rule="evenodd" d="M36 30h1v1h-1zm38 54h1v1h-1z"/><path fill="#cdcfd0" fill-rule="evenodd" d="M41 30h1v1h-1zm-2 1h1v1h-1z"/><path fill="#a1a3a4" fill-rule="evenodd" d="M42 30h1v1h-1z"/><path fill="#848586" fill-rule="evenodd" d="M43 30h1v1h-1z"/><path fill="#818283" fill-rule="evenodd" d="M44 30h1v1h-1z"/><path fill="#bdbfc0" fill-rule="evenodd" d="M50 30h1v1h-1z"/><path fill="#161616" fill-rule="evenodd" d="M51 30h1v1h-1zm-31 5h1v1h-1zm60 18h1v1h-1zm-45 44h1v1h-1z"/><path fill="#929292" fill-rule="evenodd" d="M53 30h1v1h-1zm-29 3h1v1h-1zm40 10h1v1h-1z"/><path fill="#fafafa" fill-rule="evenodd" d="M60 30h1v1h-1zm-34 1h1v1h-1zm20 2h1v1h-1zm31 17h1v1h-1zm-1 29h1v1h-1z"/><path fill="#6d6d6d" fill-rule="evenodd" d="M61 30h1v1h-1z"/><path fill="#2b2b2b" fill-rule="evenodd" d="M63 30h1v1h-1z"/><path fill="#4c4d4d" fill-rule="evenodd" d="M66 30h1v1h-1z"/><path fill="#1a1a1a" fill-rule="evenodd" d="M25 31h1v1h-1zm34 20h1v1h-1z"/><path fill="#e4e4e4" fill-rule="evenodd" d="M36 31h1v1h-1zm43 49h1v1h-1zm-18 15h1v1h-1z"/><path fill="#313232" fill-rule="evenodd" d="M38 31h1v1h-1z"/><path fill="#717273" fill-rule="evenodd" d="M40 31h1v1h-1zm24 0h1v1h-1z"/><path fill="#585959" fill-rule="evenodd" d="M47 31h1v1h-1z"/><path fill="#505151" fill-rule="evenodd" d="M50 31h1v1h-1z"/><path fill="#888" fill-rule="evenodd" d="M52 31h1v1h-1z"/><path fill="#5c5c5c" fill-rule="evenodd" d="M62 31h1v1h-1z"/><path fill="#262626" fill-rule="evenodd" d="M66 31h1v1h-1zm14 48h1v1h-1z"/><path fill="#676767" fill-rule="evenodd" d="M25 32h1v1h-1zm17 0h1v1h-1zm17 64h1v1h-1z"/><path fill="#363636" fill-rule="evenodd" d="M37 32h1v1h-1z"/><path fill="#9f9f9f" fill-rule="evenodd" d="M44 32h1v1h-1zm4 65h1v1h-1z"/><path fill="#777" fill-rule="evenodd" d="M45 32h1v1h-1zm16 12h1v1h-1z"/><path fill="#181818" fill-rule="evenodd" d="M48 32h1v1h-1zm-11 3h1v1h-1zm32 7h1v1h-1z"/><path fill="#2a2a2a" fill-rule="evenodd" d="M51 32h1v1h-1zm-31 8h1v1h-1z"/><path fill="#fcfcfc" fill-rule="evenodd" d="M52 32h1v1h-1zm-23 11h1v1h-1zm49 8h1v1h-1z"/><path fill="#ededed" fill-rule="evenodd" d="M62 32h1v1h-1zm-11 4h1v1h-1z"/><path fill="#5e5e5e" fill-rule="evenodd" d="M23 33h1v1h-1z"/><path fill="#eaeaea" fill-rule="evenodd" d="M25 33h1v1h-1zm-4 2h1v1h-1z"/><path fill="#575757" fill-rule="evenodd" d="M37 33h1v1h-1zm-1 12h1v1h-1zm21 9h1v1h-1z"/><path fill="#545454" fill-rule="evenodd" d="M40 33h1v1h-1z"/><path fill="#eee" fill-rule="evenodd" d="M41 33h1v1h-1zm1 12h1v1h-1z"/><path fill="#7f7f7f" fill-rule="evenodd" d="M47 33h1v1h-1zm-16 11h1v1h-1z"/><path fill="#7c7c7c" fill-rule="evenodd" d="M63 33h1v1h-1z"/><path fill="#191919" fill-rule="evenodd" d="M64 33h1v1h-1zm3 21h1v1h-1z"/><path fill="#636363" fill-rule="evenodd" d="M65 33h1v1h-1zm6 7h1v1h-1z"/><path fill="#bcbcbc" fill-rule="evenodd" d="M66 33h1v1h-1zm-8 20h1v1h-1zm-33 5h1v2h-1z"/><path fill="#dcdcdc" fill-rule="evenodd" d="M67 33h1v1h-1z"/><path fill="#c6c6c6" fill-rule="evenodd" d="M68 33h1v1h-1z"/><path fill="#747474" fill-rule="evenodd" d="M69 33h1v1h-1zm-38 63h1v1h-1z"/><path fill="#343434" fill-rule="evenodd" d="M21 34h1v1h-1zm15 63h1v1h-1z"/><path fill="#e3e3e3" fill-rule="evenodd" d="M22 34h1v1h-1zm41 9h1v1h-1zm2 2h1v1h-1zm2 39h1v1h-1z"/><path fill="#4c4c4c" fill-rule="evenodd" d="M37 34h1v1h-1z"/><path fill="#4f4f4f" fill-rule="evenodd" d="M39 34h1v1h-1zm-2 63h1v1h-1z"/><path fill="#fdfdfd" fill-rule="evenodd" d="M40 34h1v1h-1zm8 1h1v1h-1z"/><path fill="#878787" fill-rule="evenodd" d="M48 34h1v1h-1z"/><path fill="#bfbfbf" fill-rule="evenodd" d="M51 34h1v1h-1zm-26 18h1v1h-1z"/><path fill="#ccc" fill-rule="evenodd" d="M70 34h1v1h-1zm-19 1h1v1h-1z"/><path fill="#e7e7e7" fill-rule="evenodd" d="M39 35h1v1h-1z"/><path fill="#2d2d2d" fill-rule="evenodd" d="M49 35h1v1h-1zm13 9h1v1h-1zm12 9h1v1h-1z"/><path fill="#a0a0a0" fill-rule="evenodd" d="M71 35h1v1h-1z"/><path fill="#848484" fill-rule="evenodd" d="M20 36h1v1h-1zm46 57h1v1h-1z"/><path fill="#474747" fill-rule="evenodd" d="M37 36h1v1h-1z"/><path fill="#7b7b7b" fill-rule="evenodd" d="M38 36h1v1h-1z"/><path fill="#b2b2b2" fill-rule="evenodd" d="M49 36h1v1h-1zm-24 40h1v1h-1zm41 1h1v1h-1z"/><path fill="#3e3e3e" fill-rule="evenodd" d="M50 36h1v1h-1zm30 19h1v23h-1zm-4 22h1v1h-1zm-22 20h1v1h-1z"/><path fill="#fbfbfb" fill-rule="evenodd" d="M71 36h1v1h-1zm-37 8h1v1h-1z"/><path fill="#111" fill-rule="evenodd" d="M72 36h1v1h-1zm-26 10h1v1h-1zm24 7h4v1h-4z"/><path fill="#c2c2c2" fill-rule="evenodd" d="M20 37h1v1h-1zm5 8h1v3h-1zm42 34h1v1h-1z"/><path fill="#3b3b3b" fill-rule="evenodd" d="M72 37h1v1h-1zm-7 6h1v1h-1z"/><path fill="#c8c8c8" fill-rule="evenodd" d="M20 38h1v1h-1z"/><path fill="#323232" fill-rule="evenodd" d="M72 38h1v1h-1zm4 18h1v21h-1z"/><path fill="#979797" fill-rule="evenodd" d="M20 39h1v1h-1z"/><path fill="#e8e8e8" fill-rule="evenodd" d="M71 39h1v1h-1z"/><path fill="#f9f9f9" fill-rule="evenodd" d="M21 40h1v1h-1zm1 1h1v1h-1z"/><path fill="#5d5d5d" fill-rule="evenodd" d="M21 41h1v1h-1z"/><path fill="#f8f8f8" fill-rule="evenodd" d="M69 41h1v1h-1zm-14 12h1v1h-1z"/><path fill="#717171" fill-rule="evenodd" d="M70 41h1v1h-1zm-14 13h1v1h-1zm19 25h1v1h-1z"/><path fill="#2c2c2c" fill-rule="evenodd" d="M22 42h1v1h-1z"/><path fill="#9d9d9d" fill-rule="evenodd" d="M23 42h1v1h-1z"/><path fill="#e9e9e9" fill-rule="evenodd" d="M66 42h1v1h-1z"/><path fill="#a8a8a8" fill-rule="evenodd" d="M67 42h1v1h-1z"/><path fill="#686868" fill-rule="evenodd" d="M68 42h1v1h-1z"/><path fill="#5a5a5a" fill-rule="evenodd" d="M26 43h1v1h-1z"/><path fill="#949494" fill-rule="evenodd" d="M27 43h1v1h-1zm23 54h1v1h-1z"/><path fill="#d1d1d1" fill-rule="evenodd" d="M28 43h1v1h-1z"/><path fill="#0e0e0d" fill-rule="evenodd" d="M29 44h1v1h-1z"/><path fill="#484848" fill-rule="evenodd" d="M30 44h1v1h-1zm29 5h1v1h-1z"/><path fill="#ababab" fill-rule="evenodd" d="M32 44h1v1h-1zm-7 45h1v2h-1z"/><path fill="#d7d7d7" fill-rule="evenodd" d="M33 44h1v1h-1z"/><path fill="#f5f5f5" fill-rule="evenodd" d="M60 44h1v1h-1zm-8 4h1v1h-1z"/><path fill="#d5d5d5" fill-rule="evenodd" d="M26 45h1v1h-1zm15 0h1v1h-1z"/><path fill="#9a9a9a" fill-rule="evenodd" d="M27 45h1v1h-1z"/><path fill="#5e5343" fill-rule="evenodd" d="M28 45h1v1h-1z"/><path fill="#231909" fill-rule="evenodd" d="M29 45h1v1h-1z"/><path fill="#2e2e2e" fill-rule="evenodd" d="M35 45h1v1h-1zm25 51h1v1h-1z"/><path fill="#727272" fill-rule="evenodd" d="M37 45h1v1h-1z"/><path fill="#8d8d8d" fill-rule="evenodd" d="M38 45h1v1h-1z"/><path fill="#a3a3a3" fill-rule="evenodd" d="M39 45h1v1h-1zm27 46h1v2h-1z"/><path fill="#bebebe" fill-rule="evenodd" d="M40 45h1v1h-1zm-15 8h1v2h-1z"/><path fill="#a5a5a5" fill-rule="evenodd" d="M60 45h1v1h-1zm6 0h1v1h-1zm0 11h1v21h-1zm-34 40h1v1h-1zm11 1h1v1h-1z"/><path fill="#080603" fill-rule="evenodd" d="M62 45h1v1h-1z"/><path fill="#443d31" fill-rule="evenodd" d="M63 45h1v1h-1z"/><path fill="#8f8f8f" fill-rule="evenodd" d="M64 45h1v1h-1z"/><path fill="#fde0b3" fill-rule="evenodd" d="M28 46h1v42h-1z"/><path fill="#fbb040" fill-rule="evenodd" d="M29 46h1v1h5v1h-3v1h-1v38h1v1h4v-40h13v2h1v1h2v3h1v2h2v1h4v-1h1v-1h1v-5h1v-2h1v40h-1v1h-1v1h-3v1h-4v1h-17v-1h-4v-1h-3v-1h-1z"/><path fill="#e39f3a" fill-rule="evenodd" d="M30 46h1v1h-1z"/><path fill="#b07c2d" fill-rule="evenodd" d="M31 46h1v1h-1z"/><path fill="#865e22" fill-rule="evenodd" d="M32 46h1v1h-1z"/><path fill="#5d4118" fill-rule="evenodd" d="M33 46h1v1h-1z"/><path fill="#32230d" fill-rule="evenodd" d="M34 46h1v1h-1zm10 1h1v1h-1z"/><path fill="#0a0703" fill-rule="evenodd" d="M35 46h1v1h-1z"/><path fill="#111110" fill-rule="evenodd" d="M45 46h1v1h-1zm2 0h2v1h-2z"/><path fill="#131312" fill-rule="evenodd" d="M49 46h1v1h-1zm10 6h1v1h-1z"/><path fill="#a4a4a4" fill-rule="evenodd" d="M50 46h1v1h-1zm16 41h1v4h-1z"/><path fill="#616161" fill-rule="evenodd" d="M60 46h1v1h-1zm-35 48h1v1h-1z"/><path fill="#c08731" fill-rule="evenodd" d="M62 46h1v1h-1z"/><path fill="#fde1b6" fill-rule="evenodd" d="M63 46h1v41h-1z"/><path fill="#a9a9a9" fill-rule="evenodd" d="M66 46h1v1h-1zm1 2h1v1h-1zm9 1h1v1h-1zm-51 44h1v1h-1z"/><path fill="#f9af3f" fill-rule="evenodd" d="M35 47h1v1h-1zm27 0h1v1h-1zm-4 9h1v1h-1z"/><path fill="#dc9b38" fill-rule="evenodd" d="M36 47h1v1h-1z"/><path fill="#c28831" fill-rule="evenodd" d="M37 47h1v1h-1z"/><path fill="#ab782c" fill-rule="evenodd" d="M38 47h1v1h-1z"/><path fill="#916525" fill-rule="evenodd" d="M39 47h1v1h-1z"/><path fill="#7b561f" fill-rule="evenodd" d="M40 47h1v1h-1z"/><path fill="#604419" fill-rule="evenodd" d="M41 47h1v1h-1z"/><path fill="#4a3413" fill-rule="evenodd" d="M42 47h1v1h-1z"/><path fill="#3e2b10" fill-rule="evenodd" d="M43 47h1v1h-1z"/><path fill="#2a1e0b" fill-rule="evenodd" d="M45 47h1v1h-1z"/><path fill="#211709" fill-rule="evenodd" d="M46 47h3v1h-3z"/><path fill="#070502" fill-rule="evenodd" d="M49 47h1v1h-1zm10 7h1v1h-1z"/><path fill="#1c1c1b" fill-rule="evenodd" d="M50 47h1v1h-1z"/><path fill="#f1f1f1" fill-rule="evenodd" d="M51 47h1v1h-1zm15 7h1v1h-1zm0 31h1v1h-1z"/><path fill="#ececec" fill-rule="evenodd" d="M59 47h1v1h-1z"/><path fill="#0a0a09" fill-rule="evenodd" d="M60 47h1v1h-1z"/><path fill="#201709" fill-rule="evenodd" d="M61 47h1v1h-1z"/><path fill="#ddd" fill-rule="evenodd" d="M66 47h1v1h-1z"/><path fill="#c1c1c1" fill-rule="evenodd" d="M25 48h1v2h-1z"/><path fill="#fcb850" fill-rule="evenodd" d="M32 48h1v1h-1z"/><path fill="#fdc870" fill-rule="evenodd" d="M33 48h1v1h-1z"/><path fill="#fdc163" fill-rule="evenodd" d="M34 48h1v1h-1z"/><path fill="#fbb140" fill-rule="evenodd" d="M35 48h1v1h-1z"/><path fill="#79551f" fill-rule="evenodd" d="M49 48h1v1h-1z"/><path fill="#494949" fill-rule="evenodd" d="M51 48h1v1h-1z"/><path fill="#896023" fill-rule="evenodd" d="M61 48h1v1h-1z"/><path fill="#282828" fill-rule="evenodd" d="M68 48h1v1h-1zm-13 6h1v1h-1z"/><path fill="#0b0b0b" fill-rule="evenodd" d="M74 48h1v1h-1z"/><path fill="#fbb448" fill-rule="evenodd" d="M31 49h1v1h-1z"/><path fill="#ffd991" fill-rule="evenodd" d="M32 49h1v1h-1z"/><path fill="#ffdb96" fill-rule="evenodd" d="M33 49h2v38h-2v-1h-1v-36h1z"/><path fill="#fdc569" fill-rule="evenodd" d="M35 49h1v1h-1z"/><path fill="#f5ac3e" fill-rule="evenodd" d="M49 49h1v1h-1z"/><path fill="#463112" fill-rule="evenodd" d="M50 49h1v1h-1z"/><path fill="#2b2b2a" fill-rule="evenodd" d="M52 49h1v1h-1z"/><path fill="#010100" fill-rule="evenodd" d="M60 49h1v1h-1z"/><path fill="#e29f3a" fill-rule="evenodd" d="M61 49h1v1h-1z"/><path fill="#f0f0f0" fill-rule="evenodd" d="M75 49h1v1h-1z"/><path fill="silver" fill-rule="evenodd" d="M25 50h1v2h-1z"/><path fill="#fcbd5a" fill-rule="evenodd" d="M31 50h1v1h-1z"/><path fill="#fecf80" fill-rule="evenodd" d="M35 50h1v1h-1z"/><path fill="#f4ab3e" fill-rule="evenodd" d="M50 50h1v1h-1z"/><path fill="#6a4b1b" fill-rule="evenodd" d="M51 50h1v1h-1z"/><path fill="#212121" fill-rule="evenodd" d="M59 50h1v1h-1z"/><path fill="#181106" fill-rule="evenodd" d="M60 50h1v1h-1z"/><path fill="#626262" fill-rule="evenodd" d="M78 50h1v1h-1z"/><path fill="#fcbe5c" fill-rule="evenodd" d="M31 51h1v34h-1z"/><path fill="#fed081" fill-rule="evenodd" d="M35 51h1v34h-1z"/><path fill="#4b3413" fill-rule="evenodd" d="M52 51h1v1h-1z"/><path fill="#e5e5e5" fill-rule="evenodd" d="M54 51h1v1h-1z"/><path fill="#201708" fill-rule="evenodd" d="M60 51h1v1h-1z"/><path fill="#3d3d3d" fill-rule="evenodd" d="M79 51h1v1h-1z"/><path fill="#8f6424" fill-rule="evenodd" d="M52 52h1v1h-1z"/><path fill="#aaa" fill-rule="evenodd" d="M54 52h1v1h-1zm-29 39h1v2h-1zm19 6h4v1h-4z"/><path fill="#281c0a" fill-rule="evenodd" d="M60 52h1v1h-1z"/><path fill="#c5c5c5" fill-rule="evenodd" d="M79 52h1v1h-1z"/><path fill="#c78b33" fill-rule="evenodd" d="M52 53h1v1h-1zm4 3h1v1h-1z"/><path fill="#5a3f17" fill-rule="evenodd" d="M60 53h1v1h-1z"/><path fill="#d4d4d4" fill-rule="evenodd" d="M67 53h1v1h-1z"/><path fill="#4a4a4a" fill-rule="evenodd" d="M68 53h1v1h-1z"/><path fill="#8c8c8c" fill-rule="evenodd" d="M75 53h1v1h-1z"/><path fill="#fefefe" fill-rule="evenodd" d="M76 53h1v1h-1zm3 0h1v1h-1z"/><path fill="#593e17" fill-rule="evenodd" d="M53 54h1v1h-1z"/><path fill="#060605" fill-rule="evenodd" d="M58 54h1v1h-1z"/><path fill="#c98d33" fill-rule="evenodd" d="M60 54h1v1h-1z"/><path fill="#989898" fill-rule="evenodd" d="M76 54h1v1h-1zm-14 41h1v1h-1z"/><path fill="#373737" fill-rule="evenodd" d="M80 54h1v1h-1z"/><path fill="#bdbdbd" fill-rule="evenodd" d="M25 55h1v3h-1z"/><path fill="#f1a93d" fill-rule="evenodd" d="M53 55h1v1h-1zm2 1h1v1h-1z"/><path fill="#6d4d1c" fill-rule="evenodd" d="M54 55h1v1h-1z"/><path fill="#030201" fill-rule="evenodd" d="M55 55h1v1h-1z"/><path fill="#251b0a" fill-rule="evenodd" d="M58 55h1v1h-1z"/><path fill="#b57f2e" fill-rule="evenodd" d="M59 55h1v1h-1z"/><path fill="#b6b6b6" fill-rule="evenodd" d="M66 55h1v1h-1zm-41 14h1v2h-1z"/><path fill="#434343" fill-rule="evenodd" d="M76 55h1v1h-1z"/><path fill="#db9938" fill-rule="evenodd" d="M57 56h1v1h-1z"/><path fill="#bbb" fill-rule="evenodd" d="M25 60h1v2h-1z"/><path fill="#bababa" fill-rule="evenodd" d="M25 62h1v2h-1z"/><path fill="#b9b9b9" fill-rule="evenodd" d="M25 64h1v1h-1z"/><path fill="#b8b8b8" fill-rule="evenodd" d="M25 65h1v2h-1z"/><path fill="#b7b7b7" fill-rule="evenodd" d="M25 67h1v2h-1z"/><path fill="#b5b5b5" fill-rule="evenodd" d="M25 71h1v2h-1z"/><path fill="#b3b3b3" fill-rule="evenodd" d="M25 75h1v1h-1zm41 11h1v1h-1z"/><path fill="#b1b1b1" fill-rule="evenodd" d="M25 77h1v2h-1zm3 18h1v1h-1z"/><path fill="#ebebeb" fill-rule="evenodd" d="M66 78h1v1h-1z"/><path fill="#8a8a8a" fill-rule="evenodd" d="M76 78h1v1h-1z"/><path fill="#b0b0b0" fill-rule="evenodd" d="M25 79h1v2h-1zm53 3h1v1h-1z"/><path fill="#afafaf" fill-rule="evenodd" d="M25 81h1v2h-1z"/><path fill="#707070" fill-rule="evenodd" d="M79 81h1v1h-1z"/><path fill="#aeaeae" fill-rule="evenodd" d="M25 83h1v1h-1z"/><path fill="#7e7e7e" fill-rule="evenodd" d="M77 83h1v1h-1z"/><path fill="#adadad" fill-rule="evenodd" d="M25 84h1v2h-1z"/><path fill="#787878" fill-rule="evenodd" d="M68 84h1v1h-1z"/><path fill="#666" fill-rule="evenodd" d="M69 84h5v1h-5z"/><path fill="#454545" fill-rule="evenodd" d="M75 84h1v1h-1z"/><path fill="#fcbe5b" fill-rule="evenodd" d="M31 85h1v1h-1z"/><path fill="#fed080" fill-rule="evenodd" d="M35 85h1v1h-1z"/><path fill="#1b1b1b" fill-rule="evenodd" d="M67 85h1v1h-1z"/><path fill="#acacac" fill-rule="evenodd" d="M25 86h1v3h-1z"/><path fill="#fcb74c" fill-rule="evenodd" d="M31 86h1v1h-1z"/><path fill="#ffda95" fill-rule="evenodd" d="M32 86h1v1h-1z"/><path fill="#fdc972" fill-rule="evenodd" d="M35 86h1v1h-1z"/><path fill="#fcbf5f" fill-rule="evenodd" d="M32 87h1v1h-1z"/><path fill="#fed182" fill-rule="evenodd" d="M33 87h1v1h-1z"/><path fill="#fdcb75" fill-rule="evenodd" d="M34 87h1v1h-1z"/><path fill="#fbb345" fill-rule="evenodd" d="M35 87h1v1h-1z"/><path fill="#fde1b7" fill-rule="evenodd" d="M63 87h1v1h-1z"/><path fill="#fee3bc" fill-rule="evenodd" d="M28 88h1v1h-1z"/><path fill="#fbb244" fill-rule="evenodd" d="M62 88h1v1h-1z"/><path fill="#fef2df" fill-rule="evenodd" d="M63 88h1v1h-1zm-3 2h1v1h-1z"/><path fill="#fffbf5" fill-rule="evenodd" d="M28 89h1v1h-1zm9 3h1v1h-1z"/><path fill="#fcc471" fill-rule="evenodd" d="M29 89h1v1h-1z"/><path fill="#fcc87a" fill-rule="evenodd" d="M61 89h1v1h-1z"/><path fill="#fef0db" fill-rule="evenodd" d="M62 89h1v1h-1z"/><path fill="#fef0dc" fill-rule="evenodd" d="M30 90h1v1h-1z"/><path fill="#fdd292" fill-rule="evenodd" d="M31 90h1v1h-1z"/><path fill="#fcbb59" fill-rule="evenodd" d="M32 90h1v1h-1z"/><path fill="#fbb956" fill-rule="evenodd" d="M58 90h1v1h-1z"/><path fill="#fdd59a" fill-rule="evenodd" d="M59 90h1v1h-1z"/><path fill="#fef3e2" fill-rule="evenodd" d="M33 91h1v1h-1z"/><path fill="#fddcaa" fill-rule="evenodd" d="M34 91h1v1h-1z"/><path fill="#fcca7e" fill-rule="evenodd" d="M35 91h1v1h-1z"/><path fill="#fbba58" fill-rule="evenodd" d="M36 91h1v1h-1z"/><path fill="#fbb44a" fill-rule="evenodd" d="M54 91h1v1h-1z"/><path fill="#fcc470" fill-rule="evenodd" d="M55 91h1v1h-1z"/><path fill="#fdd79f" fill-rule="evenodd" d="M56 91h1v1h-1z"/><path fill="#feecd2" fill-rule="evenodd" d="M57 91h1v1h-1z"/><path fill="#fffefd" fill-rule="evenodd" d="M58 91h1v1h-1z"/><path fill="#fef0da" fill-rule="evenodd" d="M38 92h1v1h-1z"/><path fill="#fee4be" fill-rule="evenodd" d="M39 92h1v1h-1z"/><path fill="#fddcab" fill-rule="evenodd" d="M40 92h1v1h-1z"/><path fill="#fdd69c" fill-rule="evenodd" d="M41 92h1v1h-1z"/><path fill="#fdcf8c" fill-rule="evenodd" d="M42 92h1v1h-1z"/><path fill="#fcca80" fill-rule="evenodd" d="M43 92h2v1h-2zm4 0h1v1h-1z"/><path fill="#fcc676" fill-rule="evenodd" d="M45 92h1v1h-1z"/><path fill="#fcc674" fill-rule="evenodd" d="M46 92h1v1h-1z"/><path fill="#fccb82" fill-rule="evenodd" d="M48 92h1v1h-1z"/><path fill="#fdd08d" fill-rule="evenodd" d="M49 92h1v1h-1z"/><path fill="#fdd79e" fill-rule="evenodd" d="M50 92h1v1h-1z"/><path fill="#fddfb2" fill-rule="evenodd" d="M51 92h1v1h-1z"/><path fill="#fee8c7" fill-rule="evenodd" d="M52 92h1v1h-1z"/><path fill="#fef5e7" fill-rule="evenodd" d="M53 92h1v1h-1z"/><path fill="#efefef" fill-rule="evenodd" d="M26 94h1v1h-1zm3 1h1v1h-1z"/><path fill="#d3d3d3" fill-rule="evenodd" d="M64 94h1v1h-1z"/><path fill="#4b4b4b" fill-rule="evenodd" d="M65 94h1v1h-1z"/><path fill="#646464" fill-rule="evenodd" d="M27 95h1v1h-1z"/><path fill="#353535" fill-rule="evenodd" d="M30 96h1v1h-1z"/><path fill="#f7f7f7" fill-rule="evenodd" d="M34 96h1v1h-1z"/><path fill="#9e9e9e" fill-rule="evenodd" d="M58 96h1v1h-1z"/><path fill="#656565" fill-rule="evenodd" d="M38 97h1v1h-1z"/><path fill="#757575" fill-rule="evenodd" d="M39 97h1v1h-1z"/><path fill="#868686" fill-rule="evenodd" d="M40 97h1v1h-1z"/><path fill="#969696" fill-rule="evenodd" d="M41 97h1v1h-1z"/><path fill="gray" fill-rule="evenodd" d="M51 97h1v1h-1z"/><path fill="#6b6b6b" fill-rule="evenodd" d="M52 97h1v1h-1z"/><path fill="#555" fill-rule="evenodd" d="M53 97h1v1h-1z"/><path fill="#1c1c1c" fill-rule="evenodd" d="M55 97h1v1h-1z"/></svg>