<svg xmlns="http://www.w3.org/2000/svg" viewBox="0 0 100 100" width="1em" height="1em"><path fill="#ff3c00" d="M50 0h19v1h-19zM50 1h19v1h-19zM50 2h19v1h-19zM50 3h19v1h-19zM50 4h19v1h-19zM50 5h19v1h-19zM50 6h18v1h-18zM49 7h20v1h-20zM49 8h19v1h-19zM49 9h19v1h-19zM48 10h20v1h-20zM48 11h20v1h-20zM48 12h19v1h-19zM47 13h20v1h-20zM47 14h20v1h-20zM46 15h21v1h-21zM44 16h22v1h-22zM43 17h23v1h-23zM42 18h23v1h-23zM40 19h25v1h-25zM40 20h25v1h-25zM38 21h26v1h-26zM36 22h28v1h-28zM34 23h28v1h-28zM33 24h29v1h-29zM30 25h32v1h-32zM29 26h32v1h-32zM28 27h32v1h-32zM26 28h33v1h-33zM23 29h1v1h-1zM25 29h33v1h-33zM22 30h35v1h-35zM22 31h33v1h-33zM19 32h36v1h-36zM18 33h36v1h-36zM18 34h34v1h-34zM16 35h35v1h-35zM75 35h19v1h-19zM16 36h33v1h-33zM75 36h19v1h-19zM14 37h32v1h-32zM47 37h1v1h-1zM75 37h19v1h-19zM14 38h31v1h-31zM75 38h19v1h-19zM13 39h31v1h-31zM75 39h19v1h-19zM12 40h30v1h-30zM75 40h19v1h-19zM12 41h28v1h-28zM75 41h18v1h-18zM11 42h28v1h-28zM74 42h20v1h-20zM11 43h26v1h-26zM74 43h19v1h-19zM10 44h24v1h-24zM74 44h19v1h-19zM10 45h24v1h-24zM73 45h20v1h-20zM9 46h23v1h-23zM73 46h20v1h-20zM9 47h21v1h-21zM73 47h20v1h-20zM8 48h22v1h-22zM72 48h20v1h-20zM7 49h22v1h-22zM72 49h20v1h-20zM8 50h20v1h-20zM71 50h21v1h-21zM7 51h21v1h-21zM69 51h22v1h-22zM7 52h20v1h-20zM68 52h23v1h-23zM7 53h19v1h-19zM67 53h23v1h-23zM7 54h19v1h-19zM65 54h25v1h-25zM6 55h20v1h-20zM65 55h25v1h-25zM6 56h19v1h-19zM63 56h26v1h-26zM6 57h19v1h-19zM61 57h28v1h-28zM5 58h19v1h-19zM59 58h28v1h-28zM6 59h18v1h-18zM58 59h29v1h-29zM6 60h18v1h-18zM55 60h31v1h-31zM6 61h18v1h-18zM53 61h33v1h-33zM6 62h18v1h-18zM53 62h32v1h-32zM5 63h19v1h-19zM51 63h33v1h-33zM6 64h18v1h-18zM48 64h1v1h-1zM50 64h33v1h-33zM47 65h35v1h-35zM46 66h34v1h-34zM44 67h36v1h-36zM44 68h35v1h-35zM43 69h34v1h-34zM42 70h34v1h-34zM41 71h33v1h-33zM39 72h32v1h-32zM72 72h1v1h-1zM38 73h32v1h-32zM38 74h31v1h-31zM37 75h30v1h-30zM37 76h28v1h-28zM36 77h28v1h-28zM36 78h26v1h-26zM35 79h24v1h-24zM35 80h24v1h-24zM34 81h23v1h-23zM34 82h21v1h-21zM33 83h21v1h-21zM32 84h22v1h-22zM33 85h20v1h-20zM32 86h20v1h-20zM31 87h21v1h-21zM31 88h21v1h-21zM32 89h18v1h-18zM31 90h19v1h-19zM31 91h19v1h-19zM31 92h19v1h-19zM31 93h18v1h-18zM30 94h19v1h-19zM31 95h18v1h-18zM30 96h19v1h-19zM31 97h18v1h-18zM31 98h18v1h-18zM30 99h19v1h-19z" /><path fill="#ff3b00" d="M49 6h1v1h-1zM68 6h1v1h-1zM68 8h1v1h-1zM47 12h1v1h-1zM67 12h1v1h-1zM46 14h1v1h-1zM45 15h1v1h-1zM65 18h1v1h-1zM39 20h1v1h-1zM37 21h1v1h-1zM35 22h1v1h-1zM62 23h1v1h-1zM32 24h1v1h-1zM28 26h1v1h-1zM27 27h1v1h-1zM25 28h1v1h-1zM24 29h1v1h-1zM21 31h1v1h-1zM55 31h1v1h-1zM17 34h1v1h-1zM15 36h1v1h-1zM46 37h1v1h-1zM13 38h1v1h-1zM45 38h1v1h-1zM11 41h1v1h-1zM40 41h1v1h-1zM74 41h1v1h-1zM93 41h1v1h-1zM10 43h1v1h-1zM93 43h1v1h-1zM34 44h2v1h-2zM9 45h1v1h-1zM32 46h1v1h-1zM8 47h1v1h-1zM30 47h1v1h-1zM72 47h1v1h-1zM71 49h1v1h-1zM7 50h1v1h-1zM70 50h1v1h-1zM6 52h1v1h-1zM6 53h1v1h-1zM26 53h1v1h-1zM90 53h1v1h-1zM6 54h1v1h-1zM64 55h1v1h-1zM62 56h1v1h-1zM60 57h1v1h-1zM24 58h1v1h-1zM87 58h1v1h-1zM5 59h1v1h-1zM24 59h1v1h-1zM57 59h1v1h-1zM5 60h1v1h-1zM86 60h1v1h-1zM5 61h1v1h-1zM5 62h1v1h-1zM52 62h1v1h-1zM50 63h1v1h-1zM5 64h1v1h-1zM49 64h1v1h-1zM80 66h1v1h-1zM43 68h1v1h-1zM42 69h1v1h-1zM41 70h1v1h-1zM40 71h1v1h-1zM71 72h1v1h-1zM70 73h1v1h-1zM36 76h1v1h-1zM65 76h1v1h-1zM35 78h1v1h-1zM59 79h2v1h-2zM34 80h1v1h-1zM57 81h1v1h-1zM33 82h1v1h-1zM55 82h1v1h-1zM54 83h1v1h-1zM32 85h1v1h-1zM52 86h1v1h-1zM31 89h1v1h-1zM50 89h1v1h-1zM50 90h1v1h-1zM30 93h1v1h-1zM49 93h1v1h-1zM49 94h1v1h-1zM30 95h1v1h-1zM30 97h1v1h-1zM30 98h1v1h-1z" /></svg>