<svg xmlns="http://www.w3.org/2000/svg" viewBox="0 0 100 100" width="1em" height="1em"><path fill="#e34d25" d="M6 0h1v1h-1zM7 13h1v1h-1zM8 22h1v1h-1zM91 29h1v1h-1zM9 37h1v1h-1zM10 49h1v1h-1zM89 51h1v1h-1zM11 57h1v1h-1zM88 59h1v1h-1zM87 69h1v1h-1zM13 79h1v1h-1zM86 83h1v1h-1zM20 91h1v1h-1zM72 93h1v1h-1zM38 96h1v1h-1zM57 97h1v1h-1zM54 98h1v1h-1zM48 99h1v1h-1z" /><path fill="#e44d26" d="M7 0h87v1h-87zM6 1h88v1h-88zM7 2h86v1h-86zM7 3h86v1h-86zM7 4h86v1h-86zM7 5h86v1h-86zM7 6h86v1h-86zM7 7h43v1h-43zM87 7h6v1h-6zM7 8h43v1h-43zM87 8h6v1h-6zM7 9h43v1h-43zM86 9h7v1h-7zM7 10h43v1h-43zM86 10h7v1h-7zM7 11h43v1h-43zM86 11h7v1h-7zM8 12h42v1h-42zM86 12h7v1h-7zM8 13h42v1h-42zM86 13h6v1h-6zM7 14h43v1h-43zM86 14h7v1h-7zM8 15h42v1h-42zM86 15h6v1h-6zM8 16h42v1h-42zM86 16h6v1h-6zM8 17h42v1h-42zM86 17h6v1h-6zM8 18h14v1h-14zM86 18h6v1h-6zM8 19h14v1h-14zM86 19h6v1h-6zM8 20h14v1h-14zM85 20h7v1h-7zM8 21h14v1h-14zM85 21h7v1h-7zM9 22h13v1h-13zM85 22h7v1h-7zM9 23h13v1h-13zM85 23h7v1h-7zM9 24h13v1h-13zM85 24h6v1h-6zM9 25h14v1h-14zM85 25h6v1h-6zM9 26h14v1h-14zM85 26h6v1h-6zM9 27h14v1h-14zM85 27h6v1h-6zM9 28h14v1h-14zM85 28h6v1h-6zM9 29h14v1h-14zM85 29h6v1h-6zM9 30h14v1h-14zM35 30h15v1h-15zM85 30h6v1h-6zM9 31h14v1h-14zM35 31h15v1h-15zM84 31h7v1h-7zM9 32h14v1h-14zM35 32h15v1h-15zM84 32h7v1h-7zM10 33h13v1h-13zM35 33h15v1h-15zM84 33h7v1h-7zM10 34h13v1h-13zM35 34h15v1h-15zM84 34h7v1h-7zM10 35h13v1h-13zM36 35h14v1h-14zM84 35h6v1h-6zM10 36h13v1h-13zM36 36h14v1h-14zM84 36h6v1h-6zM10 37h14v1h-14zM36 37h14v1h-14zM84 37h6v1h-6zM10 38h14v1h-14zM36 38h14v1h-14zM84 38h7v1h-7zM10 39h14v1h-14zM36 39h14v1h-14zM84 39h6v1h-6zM10 40h14v1h-14zM84 40h6v1h-6zM10 41h14v1h-14zM84 41h6v1h-6zM10 42h14v1h-14zM83 42h7v1h-7zM10 43h14v1h-14zM83 43h7v1h-7zM10 44h14v1h-14zM83 44h7v1h-7zM11 45h13v1h-13zM83 45h7v1h-7zM11 46h13v1h-13zM83 46h7v1h-7zM11 47h13v1h-13zM83 47h6v1h-6zM11 48h14v1h-14zM83 48h6v1h-6zM11 49h14v1h-14zM83 49h6v1h-6zM11 50h14v1h-14zM83 50h7v1h-7zM11 51h14v1h-14zM83 51h6v1h-6zM11 52h39v1h-39zM83 52h6v1h-6zM11 53h39v1h-39zM83 53h6v1h-6zM11 54h39v1h-39zM82 54h7v1h-7zM11 55h39v1h-39zM82 55h7v1h-7zM12 56h38v1h-38zM82 56h7v1h-7zM12 57h13v1h-13zM38 57h12v1h-12zM82 57h7v1h-7zM11 58h14v1h-14zM38 58h12v1h-12zM82 58h7v1h-7zM12 59h14v1h-14zM38 59h12v1h-12zM82 59h6v1h-6zM12 60h14v1h-14zM38 60h12v1h-12zM82 60h7v1h-7zM12 61h14v1h-14zM38 61h12v1h-12zM82 61h6v1h-6zM12 62h14v1h-14zM38 62h12v1h-12zM82 62h6v1h-6zM12 63h14v1h-14zM38 63h12v1h-12zM82 63h6v1h-6zM12 64h14v1h-14zM38 64h12v1h-12zM82 64h6v1h-6zM12 65h14v1h-14zM38 65h12v1h-12zM81 65h7v1h-7zM12 66h14v1h-14zM41 66h9v1h-9zM81 66h7v1h-7zM13 67h13v1h-13zM45 67h5v1h-5zM81 67h7v1h-7zM13 68h13v1h-13zM49 68h1v1h-1zM81 68h7v1h-7zM13 69h13v1h-13zM81 69h6v1h-6zM13 70h14v1h-14zM81 70h6v1h-6zM12 71h15v1h-15zM81 71h6v1h-6zM13 72h14v1h-14zM81 72h6v1h-6zM13 73h14v1h-14zM81 73h7v1h-7zM13 74h14v1h-14zM81 74h6v1h-6zM13 75h16v1h-16zM81 75h6v1h-6zM13 76h19v1h-19zM80 76h7v1h-7zM13 77h23v1h-23zM80 77h7v1h-7zM14 78h25v1h-25zM80 78h7v1h-7zM14 79h29v1h-29zM80 79h7v1h-7zM14 80h32v1h-32zM80 80h6v1h-6zM14 81h36v1h-36zM80 81h6v1h-6zM14 82h36v1h-36zM80 82h6v1h-6zM14 83h36v1h-36zM80 83h6v1h-6zM14 84h36v1h-36zM80 84h6v1h-6zM14 85h36v1h-36zM77 85h9v1h-9zM14 86h36v1h-36zM73 86h13v1h-13zM14 87h36v1h-36zM69 87h17v1h-17zM14 88h36v1h-36zM66 88h20v1h-20zM15 89h35v1h-35zM62 89h24v1h-24zM18 90h32v1h-32zM59 90h23v1h-23zM22 91h28v1h-28zM55 91h25v1h-25zM25 92h25v1h-25zM52 92h23v1h-23zM29 93h42v1h-42zM30 94h1v1h-1zM32 94h36v1h-36zM36 95h28v1h-28zM40 96h22v1h-22zM42 97h15v1h-15zM46 98h7v1h-7zM50 99h1v1h-1z" /><path fill="#e34d26" d="M6 2h1v1h-1zM93 7h1v1h-1zM7 15h1v1h-1zM92 15h1v1h-1zM9 33h1v1h-1zM9 35h1v1h-1zM90 35h1v1h-1zM90 37h1v1h-1zM12 69h1v1h-1zM12 72h1v1h-1zM87 74h1v1h-1zM86 81h1v1h-1zM14 89h1v1h-1zM21 91h1v1h-1z" /><path fill="#e44c26" d="M93 2h1v1h-1zM6 4h1v1h-1zM93 4h1v1h-1zM93 6h1v1h-1zM9 38h1v1h-1zM90 40h1v1h-1zM10 46h1v1h-1zM10 48h1v1h-1zM89 48h1v1h-1zM11 56h1v1h-1zM11 61h1v1h-1zM88 63h1v1h-1zM13 80h1v1h-1zM17 90h1v1h-1zM82 90h1v1h-1zM80 91h1v1h-1zM23 92h1v1h-1zM35 95h1v1h-1zM64 95h1v1h-1zM62 96h1v1h-1zM41 97h1v1h-1z" /><path fill="#e34c25" d="M6 3h1v1h-1zM93 3h1v1h-1zM6 5h1v1h-1zM93 5h1v1h-1zM90 39h1v1h-1zM10 45h1v1h-1zM10 47h1v1h-1zM89 47h1v1h-1zM89 49h1v1h-1zM11 60h1v1h-1zM88 62h1v1h-1zM75 92h1v1h-1zM31 94h1v1h-1zM51 99h1v1h-1z" /><path fill="#eb5a27" d="M50 7h1v1h-1zM82 47h1v1h-1zM74 85h1v1h-1z" /><path fill="#ec5c28" d="M51 7h35v1h-35zM82 46h1v1h-1zM63 88h1v1h-1zM56 90h1v1h-1z" /><path fill="#e54f26" d="M86 7h1v1h-1zM84 30h1v1h-1zM83 41h1v1h-1z" /><path fill="#ef6229" d="M50 8h1v1h-1zM50 9h1v1h-1zM50 10h1v1h-1zM50 11h1v1h-1zM50 12h1v1h-1zM50 13h1v1h-1zM50 14h1v1h-1zM50 15h1v1h-1zM50 16h1v1h-1zM50 17h1v1h-1zM50 30h1v1h-1zM50 31h1v1h-1zM50 32h1v1h-1zM50 33h1v1h-1zM50 34h1v1h-1zM50 35h1v1h-1zM50 36h1v1h-1zM50 37h1v1h-1zM50 38h1v1h-1zM50 39h1v1h-1zM82 43h1v1h-1zM50 52h1v1h-1zM50 53h1v1h-1zM50 54h1v1h-1zM50 55h1v1h-1zM50 56h1v1h-1zM50 57h1v1h-1zM50 58h1v1h-1zM50 59h1v1h-1zM50 60h1v1h-1zM50 61h1v1h-1zM50 62h1v1h-1zM50 63h1v1h-1zM50 64h1v1h-1zM50 65h1v1h-1zM50 66h1v1h-1zM50 67h1v1h-1zM50 68h1v1h-1zM50 81h1v1h-1zM50 82h1v1h-1zM50 83h1v1h-1zM50 84h1v1h-1zM50 85h1v1h-1zM73 85h1v1h-1zM50 86h1v1h-1zM50 87h1v1h-1zM50 88h1v1h-1zM62 88h1v1h-1zM50 89h1v1h-1zM50 90h1v1h-1zM55 90h1v1h-1zM50 91h1v1h-1z" /><path fill="#f16529" d="M51 8h35v1h-35zM51 9h34v1h-34zM51 10h34v1h-34zM51 11h34v1h-34zM51 12h34v1h-34zM51 13h34v1h-34zM51 14h34v1h-34zM51 15h34v1h-34zM51 16h34v1h-34zM51 17h34v1h-34zM78 18h7v1h-7zM78 19h7v1h-7zM78 20h6v1h-6zM78 21h6v1h-6zM78 22h6v1h-6zM78 23h6v1h-6zM78 24h6v1h-6zM78 25h6v1h-6zM77 26h7v1h-7zM77 27h7v1h-7zM77 28h7v1h-7zM77 29h7v1h-7zM51 30h33v1h-33zM51 31h32v1h-32zM51 32h32v1h-32zM51 33h32v1h-32zM51 34h32v1h-32zM51 35h32v1h-32zM51 36h32v1h-32zM51 37h32v1h-32zM51 38h32v1h-32zM51 39h32v1h-32zM76 40h7v1h-7zM76 41h7v1h-7zM76 42h7v1h-7zM76 43h6v1h-6zM76 44h6v1h-6zM76 45h6v1h-6zM76 46h6v1h-6zM76 47h6v1h-6zM76 48h6v1h-6zM75 49h7v1h-7zM75 50h7v1h-7zM75 51h7v1h-7zM51 52h12v1h-12zM75 52h7v1h-7zM51 53h12v1h-12zM75 53h7v1h-7zM51 54h12v1h-12zM75 54h6v1h-6zM51 55h12v1h-12zM75 55h6v1h-6zM51 56h12v1h-12zM75 56h6v1h-6zM51 57h12v1h-12zM75 57h6v1h-6zM51 58h12v1h-12zM75 58h6v1h-6zM51 59h11v1h-11zM75 59h6v1h-6zM51 60h11v1h-11zM74 60h7v1h-7zM51 61h11v1h-11zM74 61h7v1h-7zM51 62h11v1h-11zM74 62h7v1h-7zM51 63h11v1h-11zM74 63h7v1h-7zM51 64h11v1h-11zM74 64h7v1h-7zM51 65h11v1h-11zM74 65h6v1h-6zM51 66h8v1h-8zM74 66h6v1h-6zM51 67h4v1h-4zM74 67h6v1h-6zM74 68h6v1h-6zM74 69h6v1h-6zM74 70h6v1h-6zM73 71h7v1h-7zM73 72h7v1h-7zM73 73h7v1h-7zM73 74h7v1h-7zM72 75h8v1h-8zM68 76h11v1h-11zM65 77h14v1h-14zM61 78h18v1h-18zM57 79h22v1h-22zM54 80h25v1h-25zM51 81h28v1h-28zM51 82h28v1h-28zM51 83h28v1h-28zM51 84h25v1h-25zM51 85h22v1h-22zM51 86h18v1h-18zM51 87h15v1h-15zM51 88h11v1h-11zM51 89h7v1h-7zM51 90h4v1h-4z" /><path fill="#e44e27" d="M86 8h1v1h-1zM23 36h1v1h-1zM24 47h1v1h-1zM37 57h1v1h-1zM80 75h1v1h-1z" /><path fill="#f16429" d="M85 9h1v1h-1zM79 76h1v1h-1zM76 84h1v1h-1zM51 91h1v1h-1z" /><path fill="#ef6228" d="M85 10h1v1h-1zM79 77h1v1h-1z" /><path fill="#ee6029" d="M85 11h1v1h-1zM79 78h1v1h-1z" /><path fill="#e34c26" d="M7 12h1v1h-1zM92 17h1v1h-1zM8 23h1v1h-1zM91 24h1v1h-1zM8 25h1v1h-1zM91 25h1v1h-1zM8 27h1v1h-1zM91 27h1v1h-1zM11 59h1v1h-1zM88 61h1v1h-1zM87 71h1v1h-1zM13 78h1v1h-1zM86 80h1v1h-1zM13 82h1v1h-1zM86 84h1v1h-1zM76 92h1v1h-1zM27 93h1v1h-1zM71 93h1v1h-1zM65 95h1v1h-1zM39 96h1v1h-1zM45 98h1v1h-1zM53 98h1v1h-1z" /><path fill="#ec5e28" d="M85 12h1v1h-1zM79 79h1v1h-1z" /><path fill="#ec5b28" d="M85 13h1v1h-1zM84 24h1v1h-1zM79 80h1v1h-1z" /><path fill="#e44c25" d="M92 13h1v1h-1zM92 18h1v1h-1zM8 24h1v1h-1zM8 26h1v1h-1zM91 26h1v1h-1zM12 67h1v1h-1zM12 68h1v1h-1zM87 70h1v1h-1zM13 81h1v1h-1zM13 83h1v1h-1zM86 85h1v1h-1zM19 91h1v1h-1zM24 92h1v1h-1zM28 93h1v1h-1zM73 93h1v1h-1zM34 95h1v1h-1zM58 97h1v1h-1zM55 98h1v1h-1z" /><path fill="#eb5928" d="M85 14h1v1h-1zM83 36h1v1h-1z" /><path fill="#e95727" d="M85 15h1v1h-1zM84 26h1v1h-1zM79 82h1v1h-1zM78 84h1v1h-1z" /><path fill="#e44d25" d="M7 16h1v1h-1zM92 16h1v1h-1zM91 28h1v1h-1zM9 34h1v1h-1zM9 36h1v1h-1zM90 36h1v1h-1zM12 70h1v1h-1zM87 72h1v1h-1zM86 82h1v1h-1zM16 90h1v1h-1zM83 90h1v1h-1zM68 94h2v1h-2zM49 99h1v1h-1z" /><path fill="#e85427" d="M85 16h1v1h-1zM81 61h1v1h-1zM80 72h1v1h-1zM79 83h1v1h-1z" /><path fill="#e75226" d="M85 17h1v1h-1z" /><path fill="#e7856c" d="M22 18h1v1h-1z" /><path fill="#e8ac9c" d="M23 18h27v1h-27zM46 68h1v1h-1z" /><path fill="#f8bfa8" d="M50 18h1v1h-1z" /><path fill="#f9c1a9" d="M51 18h26v1h-26zM77 19h1v1h-1zM58 78h1v1h-1z" /><path fill="#f7a480" d="M77 18h1v1h-1z" /><path fill="#e65027" d="M85 18h1v1h-1z" /><path fill="#e89f8c" d="M22 19h1v1h-1z" /><path fill="#ebebeb" d="M23 19h27v1h-27zM23 20h27v1h-27zM23 21h27v1h-27zM23 22h27v1h-27zM23 23h27v1h-27zM23 24h27v1h-27zM24 25h26v1h-26zM24 26h26v1h-26zM24 27h26v1h-26zM24 28h26v1h-26zM24 29h10v1h-10zM24 30h10v1h-10zM24 31h10v1h-10zM24 32h10v1h-10zM24 33h10v1h-10zM24 34h10v1h-10zM24 35h11v1h-11zM25 36h10v1h-10zM25 37h10v1h-10zM25 38h10v1h-10zM25 39h10v1h-10zM25 40h10v1h-10zM25 41h25v1h-25zM25 42h25v1h-25zM25 43h25v1h-25zM25 44h25v1h-25zM25 45h25v1h-25zM25 46h25v1h-25zM26 47h24v1h-24zM26 48h24v1h-24zM26 49h24v1h-24zM26 50h24v1h-24zM27 58h10v1h-10zM27 59h10v1h-10zM27 60h10v1h-10zM27 61h10v1h-10zM27 62h10v1h-10zM27 63h10v1h-10zM27 64h10v1h-10zM27 65h10v1h-10zM27 66h10v1h-10zM27 67h14v1h-14zM27 68h18v1h-18zM28 69h20v1h-20zM28 70h22v1h-22zM28 71h22v1h-22zM28 72h22v1h-22zM28 73h22v1h-22zM29 74h21v1h-21zM33 75h17v1h-17zM36 76h14v1h-14zM40 77h10v1h-10zM44 78h6v1h-6zM47 79h3v1h-3z" /><path fill="#fef9f7" d="M50 19h1v1h-1zM50 20h1v1h-1zM50 21h1v1h-1zM50 22h1v1h-1zM50 23h1v1h-1zM50 24h1v1h-1zM50 25h1v1h-1zM50 26h1v1h-1zM50 27h1v1h-1zM50 28h1v1h-1zM50 41h1v1h-1zM50 42h1v1h-1zM50 43h1v1h-1zM50 44h1v1h-1zM50 45h1v1h-1zM50 46h1v1h-1zM50 47h1v1h-1zM50 48h1v1h-1zM50 49h1v1h-1zM50 50h1v1h-1zM50 70h1v1h-1zM50 71h1v1h-1zM50 72h1v1h-1zM50 73h1v1h-1zM50 74h1v1h-1zM50 75h1v1h-1zM50 76h1v1h-1zM50 77h1v1h-1zM50 78h1v1h-1zM50 79h1v1h-1z" /><path fill="#ffffff" d="M51 19h26v1h-26zM51 20h26v1h-26zM51 21h26v1h-26zM51 22h26v1h-26zM51 23h26v1h-26zM51 24h26v1h-26zM51 25h26v1h-26zM51 26h25v1h-25zM51 27h25v1h-25zM51 28h25v1h-25zM51 41h24v1h-24zM51 42h24v1h-24zM51 43h24v1h-24zM51 44h24v1h-24zM51 45h24v1h-24zM51 46h24v1h-24zM51 47h24v1h-24zM51 48h23v1h-23zM51 49h23v1h-23zM51 50h23v1h-23zM64 51h10v1h-10zM64 52h10v1h-10zM64 53h10v1h-10zM64 54h10v1h-10zM64 55h10v1h-10zM64 56h10v1h-10zM64 57h10v1h-10zM64 58h10v1h-10zM63 59h10v1h-10zM63 60h10v1h-10zM63 61h10v1h-10zM63 62h10v1h-10zM63 63h10v1h-10zM63 64h10v1h-10zM63 65h10v1h-10zM63 66h10v1h-10zM60 67h13v1h-13zM56 68h17v1h-17zM52 69h21v1h-21zM51 70h21v1h-21zM51 71h21v1h-21zM51 72h21v1h-21zM51 73h21v1h-21zM51 74h20v1h-20zM51 75h16v1h-16zM51 76h13v1h-13zM51 77h9v1h-9zM51 78h6v1h-6zM51 79h2v1h-2z" /><path fill="#e44e26" d="M85 19h1v1h-1zM82 53h1v1h-1zM58 90h1v1h-1zM51 92h1v1h-1z" /><path fill="#e7907a" d="M22 20h1v1h-1zM37 62h1v1h-1z" /><path fill="#f8b395" d="M77 20h1v1h-1z" /><path fill="#f06429" d="M84 20h1v1h-1zM58 89h1v1h-1z" /><path fill="#e68268" d="M22 21h1v1h-1z" /><path fill="#f7a582" d="M77 21h1v1h-1z" /><path fill="#f06229" d="M84 21h1v1h-1z" /><path fill="#e67457" d="M22 22h1v1h-1z" /><path fill="#f6976f" d="M77 22h1v1h-1z" /><path fill="#ee6028" d="M84 22h1v1h-1z" /><path fill="#e56645" d="M22 23h1v1h-1z" /><path fill="#f4895b" d="M77 23h1v1h-1z" /><path fill="#ed5e28" d="M84 23h1v1h-1zM83 34h1v1h-1zM77 84h1v1h-1zM52 91h1v1h-1z" /><path fill="#e55733" d="M22 24h1v1h-1zM25 57h1v1h-1z" /><path fill="#f37a46" d="M77 24h1v1h-1z" /><path fill="#ebe7e6" d="M23 25h1v1h-1zM24 36h1v1h-1z" /><path fill="#f26c32" d="M77 25h1v1h-1zM55 67h1v1h-1z" /><path fill="#eb5927" d="M84 25h1v1h-1z" /><path fill="#ead9d4" d="M23 26h1v1h-1z" /><path fill="#fef8f6" d="M76 26h1v1h-1z" /><path fill="#e9cbc3" d="M23 27h1v1h-1z" /><path fill="#fde9e1" d="M76 27h1v1h-1z" /><path fill="#e85527" d="M84 27h1v1h-1zM83 38h1v1h-1zM64 88h1v1h-1zM57 90h1v1h-1z" /><path fill="#e9bdb1" d="M23 28h1v1h-1z" /><path fill="#fcdbcd" d="M76 28h1v1h-1z" /><path fill="#e85327" d="M84 28h1v1h-1z" /><path fill="#e9ae9f" d="M23 29h1v1h-1z" /><path fill="#e9c2b8" d="M34 29h1v1h-1zM26 61h1v1h-1z" /><path fill="#e89782" d="M35 29h15v1h-15zM25 51h1v1h-1zM30 75h1v1h-1z" /><path fill="#f6ac8d" d="M50 29h1v1h-1z" /><path fill="#f8ad8d" d="M51 29h25v1h-25zM53 68h1v1h-1zM62 77h1v1h-1z" /><path fill="#f6986f" d="M76 29h1v1h-1z" /><path fill="#e65126" d="M84 29h1v1h-1z" /><path fill="#e8a08d" d="M23 30h1v1h-1z" /><path fill="#e8a999" d="M34 30h1v1h-1z" /><path fill="#e7917b" d="M23 31h1v1h-1z" /><path fill="#e9b8ab" d="M34 31h1v1h-1z" /><path fill="#f06529" d="M83 31h1v1h-1z" /><path fill="#e68369" d="M23 32h1v1h-1zM37 61h1v1h-1z" /><path fill="#eac6bd" d="M34 32h1v1h-1z" /><path fill="#f06228" d="M83 32h1v1h-1z" /><path fill="#e67557" d="M23 33h1v1h-1zM37 60h1v1h-1z" /><path fill="#ead4cf" d="M34 33h1v1h-1z" /><path fill="#ef6029" d="M83 33h1v1h-1zM66 87h1v1h-1z" /><path fill="#e56746" d="M23 34h1v1h-1zM37 59h1v1h-1z" /><path fill="#ebe2e0" d="M34 34h1v1h-1zM39 77h1v1h-1z" /><path fill="#e55934" d="M23 35h1v1h-1z" /><path fill="#e4532e" d="M35 35h1v1h-1z" /><path fill="#ec5c27" d="M83 35h1v1h-1z" /><path fill="#e4603e" d="M35 36h1v1h-1z" /><path fill="#ead9d5" d="M24 37h1v1h-1z" /><path fill="#e66f51" d="M35 37h1v1h-1z" /><path fill="#ea5727" d="M83 37h1v1h-1z" /><path fill="#eacbc4" d="M24 38h1v1h-1zM42 78h1v1h-1z" /><path fill="#e67d62" d="M35 38h1v1h-1z" /><path fill="#e9bdb2" d="M24 39h1v1h-1z" /><path fill="#e78b74" d="M35 39h1v1h-1z" /><path fill="#e75327" d="M83 39h1v1h-1zM75 85h1v1h-1zM68 87h1v1h-1z" /><path fill="#e9afa0" d="M24 40h1v1h-1zM35 40h1v1h-1z" /><path fill="#e6775b" d="M36 40h14v1h-14zM33 76h1v1h-1z" /><path fill="#f38d63" d="M50 40h1v1h-1z" /><path fill="#f58e62" d="M51 40h24v1h-24zM56 67h1v1h-1zM70 75h1v1h-1z" /><path fill="#f48150" d="M75 40h1v1h-1zM74 57h1v1h-1z" /><path fill="#e75127" d="M83 40h1v1h-1z" /><path fill="#e7a08e" d="M24 41h1v1h-1z" /><path fill="#fac4ad" d="M75 41h1v1h-1z" /><path fill="#e7927c" d="M24 42h1v1h-1z" /><path fill="#f8b699" d="M75 42h1v1h-1z" /><path fill="#e6846b" d="M24 43h1v1h-1z" /><path fill="#f7a886" d="M75 43h1v1h-1z" /><path fill="#e67558" d="M24 44h1v1h-1z" /><path fill="#f69a73" d="M75 44h1v1h-1z" /><path fill="#ef6028" d="M82 44h1v1h-1z" /><path fill="#e56747" d="M24 45h1v1h-1z" /><path fill="#f58c60" d="M75 45h1v1h-1z" /><path fill="#ee5e28" d="M82 45h1v1h-1z" /><path fill="#e55935" d="M24 46h1v1h-1zM37 58h1v1h-1z" /><path fill="#f37e4c" d="M75 46h1v1h-1z" /><path fill="#eae8e7" d="M25 47h1v1h-1z" /><path fill="#f27039" d="M75 47h1v1h-1z" /><path fill="#eadbd7" d="M25 48h1v1h-1z" /><path fill="#fffdfc" d="M74 48h1v1h-1zM73 59h1v1h-1zM67 75h1v1h-1z" /><path fill="#f1662b" d="M75 48h1v1h-1z" /><path fill="#ea5828" d="M82 48h1v1h-1z" /><path fill="#eacdc5" d="M25 49h1v1h-1z" /><path fill="#feefe9" d="M74 49h1v1h-1z" /><path fill="#e95627" d="M82 49h1v1h-1zM80 71h1v1h-1zM71 86h1v1h-1zM53 91h1v1h-1z" /><path fill="#e9beb3" d="M25 50h1v1h-1z" /><path fill="#fce1d6" d="M74 50h1v1h-1z" /><path fill="#e75427" d="M82 50h1v1h-1z" /><path fill="#e9c1b6" d="M26 51h24v1h-24zM26 57h10v1h-10zM31 75h1v1h-1z" /><path fill="#fbdcd0" d="M50 51h1v1h-1z" /><path fill="#fce0d4" d="M51 51h12v1h-12zM58 67h1v1h-1zM68 75h1v1h-1z" /><path fill="#fdebe3" d="M63 51h1v1h-1z" /><path fill="#fbd4c3" d="M74 51h1v1h-1z" /><path fill="#e65227" d="M82 51h1v1h-1zM50 92h1v1h-1z" /><path fill="#f7a481" d="M63 52h1v1h-1z" /><path fill="#fac6af" d="M74 52h1v1h-1z" /><path fill="#e65026" d="M82 52h1v1h-1zM72 86h1v1h-1z" /><path fill="#f8b294" d="M63 53h1v1h-1z" /><path fill="#f9b89c" d="M74 53h1v1h-1z" /><path fill="#f9c0a8" d="M63 54h1v1h-1z" /><path fill="#f7aa8a" d="M74 54h1v1h-1z" /><path fill="#f06329" d="M81 54h1v1h-1zM80 65h1v1h-1zM69 86h1v1h-1z" /><path fill="#fbcebb" d="M63 55h1v1h-1z" /><path fill="#f69d76" d="M74 55h1v1h-1z" /><path fill="#ee6129" d="M81 55h1v1h-1z" /><path fill="#fcdcce" d="M63 56h1v1h-1z" /><path fill="#f58f63" d="M74 56h1v1h-1z" /><path fill="#ee5f28" d="M81 56h1v1h-1zM59 89h1v1h-1z" /><path fill="#e9bfb4" d="M36 57h1v1h-1z" /><path fill="#fdeae2" d="M63 57h1v1h-1zM57 78h1v1h-1z" /><path fill="#ed5d28" d="M81 57h1v1h-1zM80 68h1v1h-1zM70 86h1v1h-1z" /><path fill="#e45029" d="M25 58h1v1h-1zM39 78h1v1h-1z" /><path fill="#ebeae9" d="M26 58h1v1h-1z" /><path fill="#fef8f5" d="M63 58h1v1h-1zM51 69h1v1h-1z" /><path fill="#f2733c" d="M74 58h1v1h-1z" /><path fill="#eb5b28" d="M81 58h1v1h-1z" /><path fill="#ebdfdc" d="M26 59h1v1h-1z" /><path fill="#f26b31" d="M62 59h1v1h-1z" /><path fill="#f1672c" d="M74 59h1v1h-1zM51 68h1v1h-1zM53 80h1v1h-1z" /><path fill="#ea5927" d="M81 59h1v1h-1zM79 81h1v1h-1z" /><path fill="#e9d0c9" d="M26 60h1v1h-1z" /><path fill="#f37945" d="M62 60h1v1h-1z" /><path fill="#fef2ed" d="M73 60h1v1h-1z" /><path fill="#e95628" d="M81 60h1v1h-1z" /><path fill="#f48758" d="M62 61h1v1h-1z" /><path fill="#fde4d9" d="M73 61h1v1h-1z" /><path fill="#e9b4a6" d="M26 62h1v1h-1z" /><path fill="#f5956b" d="M62 62h1v1h-1z" /><path fill="#fbd6c6" d="M73 62h1v1h-1zM54 68h1v1h-1zM61 77h1v1h-1z" /><path fill="#e65226" d="M81 62h1v1h-1zM61 89h1v1h-1z" /><path fill="#e8a695" d="M26 63h1v1h-1z" /><path fill="#e89e8b" d="M37 63h1v1h-1z" /><path fill="#f7a37f" d="M62 63h1v1h-1zM55 79h1v1h-1z" /><path fill="#fac8b3" d="M73 63h1v1h-1z" /><path fill="#e55026" d="M81 63h1v1h-1zM80 74h1v1h-1zM54 91h1v1h-1z" /><path fill="#e89883" d="M26 64h1v1h-1z" /><path fill="#e8ac9d" d="M37 64h1v1h-1z" /><path fill="#f8b092" d="M62 64h1v1h-1zM51 80h1v1h-1z" /><path fill="#f9ba9f" d="M73 64h1v1h-1z" /><path fill="#e54e26" d="M81 64h1v1h-1zM76 85h1v1h-1z" /><path fill="#e68971" d="M26 65h1v1h-1z" /><path fill="#e9baae" d="M37 65h1v1h-1z" /><path fill="#f9bea5" d="M62 65h1v1h-1z" /><path fill="#f7ac8c" d="M73 65h1v1h-1z" /><path fill="#e67b5f" d="M26 66h1v1h-1z" /><path fill="#ebe5e3" d="M37 66h1v1h-1z" /><path fill="#e8b8ac" d="M38 66h1v1h-1z" /><path fill="#e78e77" d="M39 66h1v1h-1zM27 74h1v1h-1z" /><path fill="#e56442" d="M40 66h1v1h-1z" /><path fill="#f37741" d="M59 66h1v1h-1z" /><path fill="#f6a07a" d="M60 66h1v1h-1z" /><path fill="#fac9b4" d="M61 66h1v1h-1z" /><path fill="#fef5f2" d="M62 66h1v1h-1z" /><path fill="#f69f7a" d="M73 66h1v1h-1z" /><path fill="#ef6129" d="M80 66h1v1h-1z" /><path fill="#e56d4d" d="M26 67h1v1h-1z" /><path fill="#eadcd9" d="M41 67h1v1h-1z" /><path fill="#e9b7aa" d="M42 67h1v1h-1zM38 77h1v1h-1z" /><path fill="#e78c75" d="M43 67h1v1h-1zM37 77h1v1h-1z" /><path fill="#e55e3b" d="M44 67h1v1h-1z" /><path fill="#f8b79b" d="M57 67h1v1h-1zM69 75h1v1h-1z" /><path fill="#fffefe" d="M59 67h1v1h-1zM72 70h1v1h-1z" /><path fill="#f59065" d="M73 67h1v1h-1z" /><path fill="#ed5f28" d="M80 67h1v1h-1z" /><path fill="#e55f3c" d="M26 68h1v1h-1z" /><path fill="#ead6d1" d="M45 68h1v1h-1z" /><path fill="#e68167" d="M47 68h1v1h-1zM44 79h1v1h-1z" /><path fill="#e45530" d="M48 68h1v1h-1z" /><path fill="#f48454" d="M52 68h1v1h-1zM63 77h1v1h-1z" /><path fill="#fffbfa" d="M55 68h1v1h-1z" /><path fill="#f48352" d="M73 68h1v1h-1z" /><path fill="#e5512b" d="M26 69h1v1h-1z" /><path fill="#ebeaea" d="M27 69h1v1h-1zM43 78h1v1h-1z" /><path fill="#ebe6e5" d="M48 69h1v1h-1z" /><path fill="#e9c1b7" d="M49 69h1v1h-1z" /><path fill="#facebd" d="M50 69h1v1h-1z" /><path fill="#f37640" d="M73 69h1v1h-1z" /><path fill="#eb5b27" d="M80 69h1v1h-1z" /><path fill="#eae0de" d="M27 70h1v1h-1z" /><path fill="#f1682d" d="M73 70h1v1h-1zM71 75h1v1h-1z" /><path fill="#ea5928" d="M80 70h1v1h-1z" /><path fill="#ead2cc" d="M27 71h1v1h-1z" /><path fill="#fef4ef" d="M72 71h1v1h-1zM53 79h1v1h-1z" /><path fill="#e9c4ba" d="M27 72h1v1h-1z" /><path fill="#fde6dc" d="M72 72h1v1h-1z" /><path fill="#e9b6a9" d="M27 73h1v1h-1z" /><path fill="#fbd8c8" d="M72 73h1v1h-1z" /><path fill="#e75227" d="M80 73h1v1h-1z" /><path fill="#ebdeda" d="M28 74h1v1h-1z" /><path fill="#fef5f1" d="M71 74h1v1h-1z" /><path fill="#f8af90" d="M72 74h1v1h-1z" /><path fill="#e66848" d="M29 75h1v1h-1z" /><path fill="#eae7e6" d="M32 75h1v1h-1z" /><path fill="#e4542e" d="M32 76h1v1h-1z" /><path fill="#e8a796" d="M34 76h1v1h-1z" /><path fill="#ebd8d3" d="M35 76h1v1h-1z" /><path fill="#fef1ec" d="M64 76h1v1h-1z" /><path fill="#faccb8" d="M65 76h1v1h-1zM54 79h1v1h-1z" /><path fill="#f69e78" d="M66 76h1v1h-1z" /><path fill="#f27038" d="M67 76h1v1h-1z" /><path fill="#e56240" d="M36 77h1v1h-1z" /><path fill="#fffaf7" d="M60 77h1v1h-1z" /><path fill="#f1662a" d="M64 77h1v1h-1z" /><path fill="#e57254" d="M40 78h1v1h-1z" /><path fill="#e7a18f" d="M41 78h1v1h-1z" /><path fill="#f5936a" d="M59 78h1v1h-1z" /><path fill="#f16a30" d="M60 78h1v1h-1z" /><path fill="#e45a37" d="M43 79h1v1h-1z" /><path fill="#e8b1a3" d="M45 79h1v1h-1z" /><path fill="#eadfdd" d="M46 79h1v1h-1z" /><path fill="#f37742" d="M56 79h1v1h-1z" /><path fill="#e44f29" d="M46 80h1v1h-1z" /><path fill="#e67052" d="M47 80h1v1h-1z" /><path fill="#e89c89" d="M48 80h1v1h-1z" /><path fill="#e9c8bf" d="M49 80h1v1h-1z" /><path fill="#fad8c9" d="M50 80h1v1h-1z" /><path fill="#f48656" d="M52 80h1v1h-1z" /><path fill="#e54e27" d="M79 84h1v1h-1zM65 88h1v1h-1z" /><path fill="#eb5a28" d="M67 87h1v1h-1z" /><path fill="#ea5827" d="M60 89h1v1h-1z" /></svg>