<svg xmlns="http://www.w3.org/2000/svg" viewBox="0 0 100 100" width="1em" height="1em"><path fill="#ff9c0b" d="M46 8h2v1h-2zM51 8h1v1h-1zM58 9h1v1h-1zM37 10h1v1h-1zM62 10h1v1h-1zM35 11h1v1h-1zM67 12h1v1h-1zM74 17h1v1h-1zM22 19h1v1h-1zM20 21h1v1h-1zM19 22h1v1h-1zM18 23h1v1h-1zM83 27h1v1h-1zM14 29h1v1h-1zM87 35h1v1h-1zM88 38h1v1h-1zM10 40h1v1h-1zM10 41h1v1h-1zM89 43h1v1h-1zM9 45h1v1h-1zM89 45h1v1h-1zM9 47h1v1h-1zM89 50h1v1h-1zM10 54h1v1h-1zM85 56h1v1h-1zM11 60h1v1h-1zM87 60h2v1h-2zM7 61h1v1h-1zM6 63h1v1h-1zM93 63h1v1h-1zM5 65h1v1h-1zM6 69h1v1h-1zM94 82h1v1h-1zM90 85h1v1h-1zM46 87h1v1h-1zM49 87h1v1h-1zM53 87h1v1h-1zM86 87h1v1h-1zM39 89h1v1h-1zM60 89h1v1h-1zM24 90h1v1h-1zM75 90h1v1h-1zM71 91h1v1h-1z" /><path fill="#ff9d0b" d="M48 8h1v1h-1zM40 9h1v1h-1zM42 9h15v1h-15zM38 10h23v1h-23zM34 11h1v1h-1zM36 11h29v1h-29zM33 12h10v1h-10zM56 12h11v1h-11zM31 13h8v1h-8zM61 13h8v1h-8zM29 14h7v1h-7zM63 14h7v1h-7zM27 15h7v1h-7zM66 15h6v1h-6zM25 16h7v1h-7zM68 16h5v1h-5zM25 17h5v1h-5zM69 17h5v1h-5zM75 17h1v1h-1zM24 18h4v1h-4zM71 18h5v1h-5zM23 19h4v1h-4zM72 19h5v1h-5zM21 20h5v1h-5zM74 20h4v1h-4zM21 21h4v1h-4zM75 21h5v1h-5zM20 22h4v1h-4zM76 22h5v1h-5zM19 23h4v1h-4zM77 23h4v1h-4zM18 24h4v1h-4zM78 24h4v1h-4zM17 25h4v1h-4zM79 25h4v1h-4zM16 26h4v1h-4zM79 26h5v1h-5zM16 27h3v1h-3zM80 27h3v1h-3zM15 28h4v1h-4zM81 28h3v1h-3zM15 29h3v1h-3zM81 29h4v1h-4zM14 30h4v1h-4zM82 30h4v1h-4zM13 31h4v1h-4zM82 31h4v1h-4zM13 32h4v1h-4zM83 32h3v1h-3zM12 33h4v1h-4zM83 33h4v1h-4zM12 34h4v1h-4zM84 34h3v1h-3zM12 35h3v1h-3zM84 35h3v1h-3zM12 36h3v1h-3zM85 36h3v1h-3zM11 37h4v1h-4zM25 37h2v1h-2zM73 37h2v1h-2zM85 37h3v1h-3zM11 38h3v1h-3zM23 38h5v1h-5zM72 38h5v1h-5zM85 38h3v1h-3zM11 39h3v1h-3zM23 39h6v1h-6zM71 39h6v1h-6zM85 39h4v1h-4zM11 40h3v1h-3zM23 40h6v1h-6zM71 40h6v1h-6zM86 40h3v1h-3zM11 41h3v1h-3zM24 41h4v1h-4zM72 41h4v1h-4zM86 41h4v1h-4zM10 42h3v1h-3zM25 42h2v1h-2zM73 42h2v1h-2zM86 42h4v1h-4zM10 43h3v1h-3zM86 43h3v1h-3zM10 44h3v1h-3zM86 44h3v1h-3zM10 45h3v1h-3zM86 45h3v1h-3zM10 46h3v1h-3zM86 46h4v1h-4zM10 47h3v1h-3zM86 47h4v1h-4zM9 48h4v1h-4zM86 48h4v1h-4zM10 49h3v1h-3zM86 49h4v1h-4zM10 50h3v1h-3zM86 50h3v1h-3zM10 51h3v1h-3zM86 51h3v1h-3zM10 52h3v1h-3zM86 52h3v1h-3zM10 53h3v1h-3zM86 53h3v1h-3zM11 54h3v1h-3zM86 54h4v1h-4zM10 55h4v1h-4zM17 55h4v1h-4zM79 55h4v1h-4zM86 55h3v1h-3zM10 56h4v1h-4zM15 56h8v1h-8zM77 56h8v1h-8zM86 56h3v1h-3zM11 57h3v1h-3zM15 57h9v1h-9zM28 57h5v1h-5zM67 57h5v1h-5zM76 57h13v1h-13zM11 58h6v1h-6zM21 58h4v1h-4zM27 58h8v1h-8zM65 58h8v1h-8zM75 58h4v1h-4zM83 58h5v1h-5zM12 59h5v1h-5zM22 59h13v1h-13zM65 59h13v1h-13zM83 59h5v1h-5zM9 60h2v1h-2zM12 60h5v1h-5zM23 60h6v1h-6zM32 60h4v1h-4zM64 60h4v1h-4zM71 60h6v1h-6zM83 60h4v1h-4zM89 60h2v1h-2zM8 61h9v1h-9zM24 61h4v1h-4zM33 61h3v1h-3zM64 61h3v1h-3zM72 61h4v1h-4zM83 61h10v1h-10zM6 62h11v1h-11zM24 62h4v1h-4zM34 62h3v1h-3zM63 62h3v1h-3zM72 62h4v1h-4zM83 62h11v1h-11zM7 63h11v1h-11zM25 63h3v1h-3zM34 63h3v1h-3zM63 63h3v1h-3zM72 63h3v1h-3zM82 63h11v1h-11zM6 64h3v1h-3zM14 64h5v1h-5zM26 64h2v1h-2zM34 64h4v1h-4zM62 64h4v1h-4zM72 64h2v1h-2zM81 64h5v1h-5zM91 64h3v1h-3zM6 65h3v1h-3zM16 65h4v1h-4zM26 65h2v1h-2zM35 65h3v1h-3zM62 65h3v1h-3zM72 65h2v1h-2zM80 65h4v1h-4zM91 65h4v1h-4zM6 66h3v1h-3zM18 66h2v1h-2zM27 66h2v1h-2zM36 66h3v1h-3zM61 66h3v1h-3zM71 66h2v1h-2zM80 66h2v1h-2zM91 66h3v1h-3zM6 67h4v1h-4zM19 67h2v1h-2zM28 67h1v1h-1zM36 67h4v1h-4zM60 67h4v1h-4zM71 67h1v1h-1zM79 67h2v1h-2zM90 67h4v1h-4zM7 68h4v1h-4zM20 68h2v1h-2zM28 68h2v1h-2zM37 68h3v1h-3zM60 68h3v1h-3zM70 68h2v1h-2zM78 68h2v1h-2zM89 68h4v1h-4zM7 69h5v1h-5zM21 69h2v1h-2zM29 69h2v1h-2zM37 69h4v1h-4zM59 69h4v1h-4zM69 69h2v1h-2zM77 69h2v1h-2zM88 69h6v1h-6zM5 70h9v1h-9zM23 70h1v1h-1zM29 70h3v1h-3zM38 70h4v1h-4zM58 70h4v1h-4zM68 70h3v1h-3zM76 70h1v1h-1zM86 70h9v1h-9zM4 71h5v1h-5zM12 71h3v1h-3zM24 71h1v1h-1zM39 71h4v1h-4zM57 71h4v1h-4zM75 71h1v1h-1zM85 71h3v1h-3zM91 71h5v1h-5zM5 72h3v1h-3zM14 72h3v1h-3zM25 72h1v1h-1zM40 72h4v1h-4zM56 72h4v1h-4zM74 72h1v1h-1zM83 72h3v1h-3zM92 72h3v1h-3zM4 73h4v1h-4zM16 73h3v1h-3zM41 73h4v1h-4zM55 73h4v1h-4zM81 73h3v1h-3zM92 73h4v1h-4zM5 74h3v1h-3zM18 74h2v1h-2zM42 74h3v1h-3zM55 74h3v1h-3zM80 74h2v1h-2zM92 74h3v1h-3zM5 75h4v1h-4zM19 75h2v1h-2zM42 75h4v1h-4zM54 75h4v1h-4zM79 75h1v1h-1zM91 75h4v1h-4zM6 76h5v1h-5zM21 76h1v1h-1zM43 76h3v1h-3zM54 76h3v1h-3zM78 76h1v1h-1zM89 76h5v1h-5zM5 77h8v1h-8zM43 77h3v1h-3zM54 77h3v1h-3zM87 77h8v1h-8zM5 78h3v1h-3zM13 78h2v1h-2zM43 78h3v1h-3zM54 78h3v1h-3zM85 78h2v1h-2zM92 78h4v1h-4zM5 79h3v1h-3zM15 79h3v1h-3zM43 79h3v1h-3zM54 79h3v1h-3zM82 79h3v1h-3zM92 79h3v1h-3zM5 80h3v1h-3zM17 80h2v1h-2zM43 80h3v1h-3zM54 80h3v1h-3zM81 80h2v1h-2zM92 80h4v1h-4zM5 81h4v1h-4zM43 81h3v1h-3zM54 81h3v1h-3zM91 81h4v1h-4zM5 82h5v1h-5zM42 82h4v1h-4zM54 82h4v1h-4zM89 82h5v1h-5zM7 83h5v1h-5zM42 83h3v1h-3zM55 83h3v1h-3zM88 83h5v1h-5zM8 84h7v1h-7zM41 84h18v1h-18zM85 84h7v1h-7zM10 85h7v1h-7zM40 85h20v1h-20zM83 85h7v1h-7zM12 86h9v1h-9zM39 86h22v1h-22zM79 86h9v1h-9zM13 87h12v1h-12zM36 87h6v1h-6zM51 87h1v1h-1zM58 87h6v1h-6zM75 87h11v1h-11zM15 88h1v1h-1zM17 88h24v1h-24zM59 88h24v1h-24zM84 88h1v1h-1zM18 89h1v1h-1zM20 89h19v1h-19zM61 89h19v1h-19zM81 89h1v1h-1zM25 90h12v1h-12zM63 90h12v1h-12zM28 91h1v1h-1zM30 91h1v1h-1zM32 91h1v1h-1zM67 91h1v1h-1zM69 91h1v1h-1z" /><path fill="#ff9d0a" d="M49 8h2v1h-2zM52 8h1v1h-1zM41 9h1v1h-1zM57 9h1v1h-1zM32 12h1v1h-1zM30 13h1v1h-1zM69 13h1v1h-1zM70 14h1v1h-1zM23 18h1v1h-1zM77 19h1v1h-1zM15 27h1v1h-1zM86 32h1v1h-1zM87 34h1v1h-1zM11 35h1v1h-1zM11 36h1v1h-1zM10 39h1v1h-1zM9 46h1v1h-1zM9 49h1v1h-1zM89 51h1v1h-1zM89 52h1v1h-1zM89 53h1v1h-1zM11 59h1v1h-1zM94 66h1v1h-1zM4 72h1v1h-1zM4 74h1v1h-1zM95 74h1v1h-1zM5 76h1v1h-1zM4 79h1v1h-1zM95 79h1v1h-1zM6 83h1v1h-1zM93 83h1v1h-1zM11 86h1v1h-1zM88 86h1v1h-1zM45 87h1v1h-1zM47 87h1v1h-1zM16 88h1v1h-1zM41 88h1v1h-1zM83 88h1v1h-1zM40 89h1v1h-1zM22 90h2v1h-2zM37 90h1v1h-1zM62 90h1v1h-1zM76 90h2v1h-2zM31 91h1v1h-1zM68 91h1v1h-1z" /><path fill="#ff9c0a" d="M61 10h1v1h-1zM28 14h1v1h-1zM72 15h1v1h-1zM73 16h1v1h-1zM24 17h1v1h-1zM76 18h1v1h-1zM78 20h1v1h-1zM17 24h1v1h-1zM84 28h1v1h-1zM88 37h1v1h-1zM89 44h1v1h-1zM88 58h1v1h-1zM5 66h1v1h-1zM6 68h1v1h-1zM93 68h1v1h-1zM95 72h1v1h-1zM94 76h1v1h-1zM4 78h1v1h-1zM4 80h1v1h-1zM7 84h1v1h-1zM92 84h1v1h-1zM9 85h1v1h-1zM10 86h1v1h-1zM89 86h1v1h-1zM42 87h1v1h-1zM48 87h1v1h-1zM50 87h1v1h-1zM52 87h1v1h-1zM57 87h1v1h-1zM58 88h1v1h-1zM19 89h1v1h-1zM59 89h1v1h-1zM80 89h1v1h-1zM29 91h1v1h-1zM33 91h1v1h-1zM66 91h1v1h-1zM70 91h1v1h-1z" /><path fill="#ff9e0c" d="M43 12h1v1h-1zM33 57h1v1h-1zM66 57h1v1h-1zM79 58h1v1h-1zM35 59h1v1h-1zM64 59h1v1h-1zM22 68h1v1h-1zM77 68h1v1h-1zM31 69h1v1h-1zM68 69h1v1h-1zM22 70h1v1h-1zM77 70h1v1h-1zM15 71h1v1h-1zM84 71h1v1h-1zM12 83h1v1h-1zM87 83h1v1h-1zM17 85h1v1h-1zM82 85h1v1h-1z" /><path fill="#ffa50d" d="M44 12h1v1h-1zM16 80h1v1h-1z" /><path fill="#ffad11" d="M45 12h1v1h-1zM17 31h1v1h-1zM84 37h1v1h-1zM85 41h1v1h-1zM85 54h1v1h-1zM19 58h1v1h-1zM80 58h1v1h-1zM26 66h1v1h-1zM73 66h1v1h-1zM11 68h1v1h-1zM88 68h1v1h-1zM14 70h1v1h-1zM85 70h1v1h-1zM27 87h1v1h-1zM72 87h1v1h-1z" /><path fill="#ffb213" d="M46 12h1v1h-1zM37 14h1v1h-1zM13 49h1v1h-1zM33 63h1v1h-1zM81 63h1v1h-1zM90 65h1v1h-1zM16 78h1v1h-1zM83 78h1v1h-1z" /><path fill="#ffb514" d="M47 12h1v1h-1zM85 42h1v1h-1zM32 56h1v1h-1zM82 59h1v1h-1zM38 64h1v1h-1zM61 64h1v1h-1zM8 72h1v1h-1zM46 76h1v1h-1zM8 79h1v1h-1zM62 86h1v1h-1z" /><path fill="#ffb714" d="M48 12h1v1h-1zM78 26h1v1h-1zM19 28h1v1h-1zM18 54h1v1h-1zM81 54h1v1h-1zM82 61h1v1h-1zM62 62h1v1h-1z" /><path fill="#ffb915" d="M49 12h2v1h-2zM22 40h1v1h-1zM77 40h1v1h-1zM19 54h1v1h-1zM22 55h1v1h-1zM27 68h1v1h-1zM37 70h1v1h-1zM16 74h1v1h-1zM57 77h1v1h-1zM46 83h1v1h-1zM52 83h1v1h-1zM30 87h2v1h-2zM68 87h2v1h-2z" /><path fill="#ffb614" d="M51 12h1v1h-1zM58 13h1v1h-1zM29 18h1v1h-1zM15 36h1v1h-1zM22 39h1v1h-1zM77 39h1v1h-1zM85 53h1v1h-1zM17 59h1v1h-1zM20 69h1v1h-1zM79 69h1v1h-1zM91 72h1v1h-1zM22 76h1v1h-1zM29 87h1v1h-1zM32 87h1v1h-1zM67 87h1v1h-1zM70 87h1v1h-1z" /><path fill="#ffb413" d="M52 12h1v1h-1zM23 23h1v1h-1zM13 47h1v1h-1zM13 48h1v1h-1zM42 80h1v1h-1zM57 80h1v1h-1zM11 82h1v1h-1zM88 82h1v1h-1zM13 83h1v1h-1z" /><path fill="#ffb012" d="M53 12h1v1h-1zM40 13h1v1h-1zM68 17h1v1h-1zM71 19h1v1h-1zM22 24h1v1h-1zM14 39h1v1h-1zM18 58h1v1h-1zM81 58h1v1h-1zM36 60h1v1h-1zM65 65h1v1h-1zM18 79h1v1h-1zM81 79h1v1h-1zM18 81h1v1h-1zM81 81h1v1h-1z" /><path fill="#ffa910" d="M54 12h1v1h-1zM59 13h1v1h-1zM34 15h1v1h-1zM81 30h1v1h-1z" /><path fill="#ffa10c" d="M55 12h1v1h-1zM36 14h1v1h-1zM21 55h1v1h-1zM78 55h1v1h-1zM37 63h1v1h-1zM62 63h1v1h-1zM69 71h1v1h-1zM41 83h1v1h-1zM58 83h1v1h-1z" /><path fill="#ffa20d" d="M39 13h1v1h-1zM30 17h1v1h-1zM15 35h1v1h-1zM14 38h1v1h-1zM85 40h1v1h-1zM28 65h1v1h-1zM18 67h1v1h-1zM81 67h1v1h-1zM12 69h1v1h-1zM87 69h1v1h-1zM42 81h1v1h-1zM57 81h1v1h-1zM54 83h1v1h-1z" /><path fill="#ffbe16" d="M41 13h1v1h-1zM23 62h1v1h-1zM79 65h1v1h-1zM58 82h1v1h-1z" /><path fill="#ffca1b" d="M42 13h1v1h-1zM14 54h1v1h-1zM79 59h1v1h-1zM22 61h1v1h-1zM77 61h1v1h-1zM66 64h1v1h-1zM39 65h1v1h-1zM14 83h1v1h-1zM85 83h1v1h-1z" /><path fill="#ffd11e" d="M43 13h1v1h-1zM36 15h1v1h-1zM23 24h1v1h-1zM22 25h1v1h-1zM78 27h1v1h-1zM80 30h1v1h-1zM40 66h1v1h-1zM59 66h1v1h-1zM86 73h1v1h-1zM16 81h1v1h-1zM83 81h1v1h-1zM25 86h1v1h-1zM35 86h1v1h-1zM64 86h1v1h-1zM74 86h1v1h-1z" /><path fill="#ffd21e" d="M44 13h12v1h-12zM39 14h21v1h-21zM37 15h26v1h-26zM34 16h31v1h-31zM32 17h35v1h-35zM31 18h38v1h-38zM29 19h41v1h-41zM28 20h44v1h-44zM27 21h46v1h-46zM25 22h49v1h-49zM24 23h51v1h-51zM24 24h52v1h-52zM23 25h54v1h-54zM22 26h56v1h-56zM21 27h57v1h-57zM20 28h59v1h-59zM20 29h60v1h-60zM19 30h61v1h-61zM18 31h15v1h-15zM39 31h20v1h-20zM65 31h16v1h-16zM18 32h14v1h-14zM41 32h17v1h-17zM67 32h15v1h-15zM17 33h14v1h-14zM41 33h16v1h-16zM67 33h15v1h-15zM17 34h14v1h-14zM42 34h15v1h-15zM68 34h15v1h-15zM16 35h15v1h-15zM42 35h15v1h-15zM68 35h15v1h-15zM16 36h8v1h-8zM28 36h3v1h-3zM42 36h15v1h-15zM68 36h4v1h-4zM76 36h7v1h-7zM16 37h7v1h-7zM29 37h2v1h-2zM42 37h15v1h-15zM68 37h3v1h-3zM77 37h7v1h-7zM15 38h7v1h-7zM29 38h2v1h-2zM42 38h15v1h-15zM68 38h3v1h-3zM78 38h6v1h-6zM15 39h7v1h-7zM30 39h1v1h-1zM37 39h2v1h-2zM41 39h17v1h-17zM59 39h3v1h-3zM67 39h3v1h-3zM78 39h6v1h-6zM15 40h7v1h-7zM30 40h2v1h-2zM36 40h27v1h-27zM66 40h4v1h-4zM78 40h7v1h-7zM15 41h7v1h-7zM29 41h42v1h-42zM78 41h7v1h-7zM15 42h8v1h-8zM29 42h42v1h-42zM77 42h8v1h-8zM14 43h11v1h-11zM27 43h46v1h-46zM75 43h10v1h-10zM14 44h71v1h-71zM14 45h71v1h-71zM14 46h71v1h-71zM14 47h22v1h-22zM38 47h23v1h-23zM63 47h22v1h-22zM14 48h21v1h-21zM41 48h17v1h-17zM63 48h22v1h-22zM14 49h21v1h-21zM43 49h13v1h-13zM64 49h21v1h-21zM14 50h22v1h-22zM45 50h9v1h-9zM63 50h22v1h-22zM14 51h22v1h-22zM63 51h22v1h-22zM14 52h22v1h-22zM63 52h22v1h-22zM15 53h21v1h-21zM63 53h22v1h-22zM15 54h1v1h-1zM22 54h14v1h-14zM63 54h15v1h-15zM84 54h1v1h-1zM24 55h13v1h-13zM62 55h14v1h-14zM25 56h2v1h-2zM34 56h3v1h-3zM62 56h4v1h-4zM73 56h2v1h-2zM35 57h3v1h-3zM61 57h4v1h-4zM36 58h3v1h-3zM60 58h4v1h-4zM18 59h2v1h-2zM37 59h2v1h-2zM60 59h3v1h-3zM80 59h2v1h-2zM18 60h3v1h-3zM37 60h3v1h-3zM59 60h4v1h-4zM79 60h3v1h-3zM18 61h4v1h-4zM30 61h2v1h-2zM38 61h4v1h-4zM57 61h5v1h-5zM68 61h2v1h-2zM78 61h4v1h-4zM19 62h4v1h-4zM29 62h3v1h-3zM38 62h6v1h-6zM55 62h7v1h-7zM68 62h3v1h-3zM77 62h4v1h-4zM19 63h5v1h-5zM29 63h4v1h-4zM39 63h22v1h-22zM67 63h4v1h-4zM76 63h5v1h-5zM20 64h4v1h-4zM29 64h4v1h-4zM39 64h22v1h-22zM67 64h4v1h-4zM76 64h4v1h-4zM10 65h4v1h-4zM21 65h4v1h-4zM29 65h5v1h-5zM40 65h20v1h-20zM66 65h5v1h-5zM75 65h4v1h-4zM86 65h4v1h-4zM10 66h5v1h-5zM22 66h4v1h-4zM30 66h4v1h-4zM41 66h18v1h-18zM66 66h4v1h-4zM74 66h4v1h-4zM85 66h5v1h-5zM11 67h6v1h-6zM23 67h3v1h-3zM31 67h4v1h-4zM41 67h18v1h-18zM65 67h4v1h-4zM74 67h3v1h-3zM83 67h6v1h-6zM13 68h5v1h-5zM24 68h3v1h-3zM32 68h3v1h-3zM42 68h16v1h-16zM65 68h3v1h-3zM73 68h3v1h-3zM82 68h5v1h-5zM14 69h6v1h-6zM25 69h2v1h-2zM33 69h3v1h-3zM43 69h14v1h-14zM64 69h3v1h-3zM73 69h2v1h-2zM80 69h6v1h-6zM16 70h5v1h-5zM26 70h2v1h-2zM33 70h4v1h-4zM44 70h12v1h-12zM63 70h4v1h-4zM72 70h2v1h-2zM79 70h5v1h-5zM18 71h4v1h-4zM27 71h2v1h-2zM33 71h5v1h-5zM45 71h10v1h-10zM62 71h5v1h-5zM71 71h2v1h-2zM78 71h4v1h-4zM9 72h2v1h-2zM19 72h4v1h-4zM27 72h11v1h-11zM45 72h10v1h-10zM62 72h11v1h-11zM77 72h4v1h-4zM89 72h2v1h-2zM9 73h5v1h-5zM21 73h4v1h-4zM26 73h13v1h-13zM46 73h8v1h-8zM61 73h13v1h-13zM75 73h4v1h-4zM87 73h4v1h-4zM10 74h5v1h-5zM22 74h18v1h-18zM46 74h8v1h-8zM60 74h18v1h-18zM85 74h5v1h-5zM11 75h6v1h-6zM23 75h18v1h-18zM47 75h6v1h-6zM59 75h18v1h-18zM83 75h6v1h-6zM13 76h6v1h-6zM23 76h19v1h-19zM47 76h6v1h-6zM58 76h19v1h-19zM81 76h6v1h-6zM16 77h5v1h-5zM23 77h19v1h-19zM47 77h6v1h-6zM58 77h19v1h-19zM79 77h5v1h-5zM18 78h24v1h-24zM47 78h6v1h-6zM58 78h24v1h-24zM9 79h4v1h-4zM20 79h22v1h-22zM47 79h6v1h-6zM58 79h22v1h-22zM87 79h4v1h-4zM10 80h5v1h-5zM20 80h22v1h-22zM47 80h6v1h-6zM58 80h22v1h-22zM85 80h5v1h-5zM11 81h5v1h-5zM20 81h21v1h-21zM47 81h6v1h-6zM59 81h21v1h-21zM84 81h5v1h-5zM13 82h28v1h-28zM47 82h6v1h-6zM59 82h28v1h-28zM15 83h25v1h-25zM60 83h25v1h-25zM18 84h21v1h-21zM61 84h21v1h-21zM21 85h17v1h-17zM62 85h17v1h-17zM26 86h9v1h-9zM65 86h9v1h-9z" /><path fill="#ffce1d" d="M56 13h1v1h-1zM65 16h1v1h-1zM21 26h1v1h-1zM83 36h1v1h-1zM16 54h1v1h-1zM83 54h1v1h-1zM24 56h1v1h-1zM75 56h1v1h-1zM21 60h1v1h-1zM78 60h1v1h-1zM62 61h1v1h-1zM38 63h1v1h-1zM61 63h1v1h-1zM11 64h1v1h-1zM24 64h1v1h-1zM75 64h1v1h-1zM88 64h1v1h-1zM12 68h1v1h-1zM87 68h1v1h-1zM11 72h1v1h-1zM88 72h1v1h-1zM20 73h1v1h-1zM79 73h1v1h-1zM40 74h1v1h-1zM59 74h1v1h-1zM9 80h1v1h-1zM90 80h1v1h-1zM40 83h1v1h-1zM59 83h1v1h-1zM17 84h1v1h-1zM82 84h1v1h-1zM20 85h1v1h-1zM79 85h1v1h-1z" /><path fill="#ffc319" d="M57 13h1v1h-1zM77 25h1v1h-1zM16 34h1v1h-1zM23 42h1v1h-1zM76 42h1v1h-1zM23 68h1v1h-1zM41 68h1v1h-1zM58 68h1v1h-1zM76 68h1v1h-1zM45 73h1v1h-1z" /><path fill="#ff9e0b" d="M60 13h1v1h-1zM28 18h1v1h-1zM78 25h1v1h-1zM19 27h1v1h-1zM24 37h1v1h-1zM75 37h1v1h-1zM13 42h1v1h-1zM13 53h1v1h-1zM14 57h1v1h-1zM17 58h1v1h-1zM20 58h1v1h-1zM82 58h1v1h-1zM17 66h1v1h-1zM20 66h1v1h-1zM79 66h1v1h-1zM82 66h1v1h-1zM21 67h1v1h-1zM78 67h1v1h-1zM40 68h1v1h-1zM59 68h1v1h-1zM80 75h1v1h-1zM10 82h1v1h-1z" /><path fill="#ffc51a" d="M38 14h1v1h-1zM33 16h1v1h-1zM20 27h1v1h-1zM81 31h1v1h-1zM22 38h1v1h-1zM85 51h1v1h-1zM79 54h1v1h-1zM68 68h1v1h-1zM24 69h1v1h-1zM32 69h1v1h-1zM36 69h1v1h-1zM67 69h1v1h-1zM75 69h1v1h-1z" /><path fill="#ffcf1d" d="M60 14h1v1h-1zM70 19h1v1h-1zM27 36h1v1h-1zM72 36h1v1h-1zM28 42h1v1h-1zM71 42h1v1h-1zM26 43h1v1h-1zM73 43h1v1h-1zM25 57h1v1h-1zM74 57h1v1h-1zM32 62h1v1h-1zM67 62h1v1h-1zM26 71h1v1h-1zM44 71h1v1h-1zM55 71h1v1h-1zM73 71h1v1h-1zM15 77h1v1h-1zM84 77h1v1h-1zM19 79h1v1h-1zM80 79h1v1h-1z" /><path fill="#ffbe17" d="M61 14h1v1h-1zM31 17h1v1h-1zM72 20h1v1h-1zM14 40h1v1h-1zM85 52h1v1h-1zM82 60h1v1h-1zM78 70h1v1h-1zM14 73h1v1h-1zM85 73h1v1h-1zM42 79h1v1h-1zM48 83h1v1h-1zM80 85h1v1h-1zM23 86h1v1h-1zM76 86h1v1h-1z" /><path fill="#ffab10" d="M62 14h1v1h-1zM32 16h1v1h-1zM21 25h1v1h-1zM79 27h1v1h-1zM82 32h1v1h-1zM13 51h1v1h-1zM13 64h1v1h-1zM86 64h1v1h-1zM9 66h1v1h-1zM19 68h1v1h-1zM60 72h1v1h-1zM20 76h1v1h-1zM79 76h1v1h-1zM46 77h1v1h-1zM19 80h1v1h-1zM80 80h1v1h-1zM40 84h1v1h-1zM59 84h1v1h-1z" /><path fill="#ffc218" d="M35 15h1v1h-1zM69 60h1v1h-1zM12 64h1v1h-1zM87 64h1v1h-1zM13 69h1v1h-1zM86 69h1v1h-1zM28 70h1v1h-1zM71 70h1v1h-1zM54 73h1v1h-1zM41 75h1v1h-1zM58 75h1v1h-1zM13 79h1v1h-1zM86 79h1v1h-1zM82 81h1v1h-1z" /><path fill="#ffcc1b" d="M63 15h1v1h-1zM26 57h1v1h-1z" /><path fill="#ffb513" d="M64 15h1v1h-1zM24 22h1v1h-1zM67 56h1v1h-1zM53 76h1v1h-1zM77 76h1v1h-1zM91 79h1v1h-1zM37 86h1v1h-1z" /><path fill="#ffa00b" d="M65 15h1v1h-1zM9 64h1v1h-1zM90 64h1v1h-1zM72 67h1v1h-1z" /><path fill="#ffb815" d="M66 16h1v1h-1zM67 61h1v1h-1zM72 68h1v1h-1zM62 70h1v1h-1z" /><path fill="#ffa00c" d="M67 16h1v1h-1zM74 21h1v1h-1zM77 24h1v1h-1zM80 28h1v1h-1zM33 62h1v1h-1zM66 62h1v1h-1zM29 67h1v1h-1zM70 67h1v1h-1zM30 68h1v1h-1zM69 68h1v1h-1zM41 69h1v1h-1zM58 69h1v1h-1zM24 70h1v1h-1zM75 70h1v1h-1zM23 71h1v1h-1zM30 71h2v1h-2zM68 71h1v1h-1zM76 71h1v1h-1zM17 74h1v1h-1zM82 74h1v1h-1zM35 87h1v1h-1zM64 87h1v1h-1z" /><path fill="#ffcd1c" d="M67 17h1v1h-1zM79 28h1v1h-1zM29 39h1v1h-1zM70 39h1v1h-1zM85 47h1v1h-1zM18 68h1v1h-1zM81 68h1v1h-1zM61 85h1v1h-1z" /><path fill="#ffd01d" d="M30 18h1v1h-1zM26 21h1v1h-1zM19 29h1v1h-1zM14 42h1v1h-1zM21 54h1v1h-1zM78 54h1v1h-1zM18 62h1v1h-1zM15 66h1v1h-1zM27 69h1v1h-1zM72 69h1v1h-1zM17 71h1v1h-1zM82 71h1v1h-1zM9 74h1v1h-1zM15 74h1v1h-1zM84 74h1v1h-1zM90 74h1v1h-1z" /><path fill="#ffc61a" d="M69 18h1v1h-1zM17 67h1v1h-1zM82 67h1v1h-1zM53 75h1v1h-1z" /><path fill="#ffa40d" d="M70 18h1v1h-1zM18 29h1v1h-1zM22 60h1v1h-1zM77 60h1v1h-1zM17 72h1v1h-1zM82 72h1v1h-1zM45 83h1v1h-1z" /><path fill="#ffa10d" d="M27 19h1v1h-1zM76 23h1v1h-1zM71 65h1v1h-1z" /><path fill="#ffc419" d="M28 19h1v1h-1zM73 21h1v1h-1zM18 30h1v1h-1zM82 33h1v1h-1zM77 38h1v1h-1zM14 65h1v1h-1zM31 68h1v1h-1zM22 71h1v1h-1zM77 71h1v1h-1zM18 72h1v1h-1z" /><path fill="#ffaa10" d="M26 20h1v1h-1zM80 68h1v1h-1z" /><path fill="#ffce1c" d="M27 20h1v1h-1zM85 48h1v1h-1zM37 61h1v1h-1zM12 82h1v1h-1zM87 82h1v1h-1z" /><path fill="#ff9f0c" d="M73 20h1v1h-1zM84 36h1v1h-1zM23 41h1v1h-1zM76 41h1v1h-1zM16 55h1v1h-1zM83 55h1v1h-1zM23 61h1v1h-1zM28 61h1v1h-1zM36 61h1v1h-1zM63 61h1v1h-1zM71 61h1v1h-1zM76 61h1v1h-1zM38 65h1v1h-1zM61 65h1v1h-1zM35 66h1v1h-1zM64 66h1v1h-1zM27 67h1v1h-1zM23 69h1v1h-1zM76 69h1v1h-1zM11 71h1v1h-1zM88 71h1v1h-1zM21 75h1v1h-1zM78 75h1v1h-1zM15 78h1v1h-1zM84 78h1v1h-1zM38 86h1v1h-1zM61 86h1v1h-1zM25 87h1v1h-1zM74 87h1v1h-1z" /><path fill="#ffae11" d="M25 21h1v1h-1zM13 45h1v1h-1zM24 63h1v1h-1zM75 63h1v1h-1zM55 72h1v1h-1zM46 80h1v1h-1zM18 85h1v1h-1zM81 85h1v1h-1z" /><path fill="#ffc81a" d="M74 22h1v1h-1zM85 50h1v1h-1zM21 74h1v1h-1zM78 74h1v1h-1zM78 77h1v1h-1zM10 81h1v1h-1zM89 81h1v1h-1z" /><path fill="#ffa30d" d="M75 22h1v1h-1zM20 26h1v1h-1zM27 37h1v1h-1zM72 37h1v1h-1zM24 42h1v1h-1zM75 42h1v1h-1zM17 62h1v1h-1zM82 62h1v1h-1zM25 64h1v1h-1zM74 64h1v1h-1zM42 70h1v1h-1zM57 70h1v1h-1zM41 74h1v1h-1zM58 74h1v1h-1zM79 74h1v1h-1z" /><path fill="#ffcb1c" d="M75 23h1v1h-1zM77 41h1v1h-1zM85 46h1v1h-1zM33 56h1v1h-1zM66 56h1v1h-1zM34 66h1v1h-1zM23 72h1v1h-1zM76 72h1v1h-1zM46 82h1v1h-1z" /><path fill="#ffc71a" d="M76 24h1v1h-1zM17 32h1v1h-1zM85 45h1v1h-1zM30 67h1v1h-1zM69 67h1v1h-1zM25 70h1v1h-1zM74 70h1v1h-1zM10 75h1v1h-1zM22 75h1v1h-1zM77 75h1v1h-1zM89 75h1v1h-1zM12 76h1v1h-1zM19 76h1v1h-1zM80 76h1v1h-1zM87 76h1v1h-1zM21 77h1v1h-1zM9 78h1v1h-1zM90 78h1v1h-1z" /><path fill="#ffbc17" d="M80 29h1v1h-1zM87 72h1v1h-1z" /><path fill="#edc421" d="M33 31h1v1h-1z" /><path fill="#9b8532" d="M34 31h1v1h-1z" /><path fill="#6e623b" d="M35 31h1v1h-1z" /><path fill="#635b3d" d="M36 31h1v1h-1zM62 31h1v1h-1z" /><path fill="#817237" d="M37 31h1v1h-1z" /><path fill="#cdab28" d="M38 31h1v1h-1zM66 39h1v1h-1z" /><path fill="#f0c721" d="M59 31h1v1h-1z" /><path fill="#9e8731" d="M60 31h1v1h-1z" /><path fill="#6f643a" d="M61 31h1v1h-1z" /><path fill="#7f6f37" d="M63 31h1v1h-1z" /><path fill="#c8a829" d="M64 31h1v1h-1z" /><path fill="#caa929" d="M32 32h1v1h-1z" /><path fill="#444343" d="M33 32h1v1h-1zM58 33h1v1h-1zM62 38h1v1h-1z" /><path fill="#3a3b45" d="M34 32h5v1h-5zM60 32h5v1h-5zM33 33h7v1h-7zM59 33h7v1h-7zM32 34h8v1h-8zM58 34h8v1h-8zM32 35h9v1h-9zM58 35h9v1h-9zM32 36h9v1h-9zM58 36h9v1h-9zM32 37h9v1h-9zM58 37h9v1h-9zM32 38h4v1h-4zM63 38h3v1h-3zM33 39h2v1h-2zM64 39h1v1h-1zM37 48h1v1h-1zM61 48h1v1h-1zM36 49h4v1h-4zM59 49h3v1h-3zM37 50h5v1h-5zM57 50h5v1h-5zM37 51h7v1h-7zM54 51h8v1h-8zM37 52h25v1h-25zM37 53h25v1h-25zM38 54h23v1h-23zM38 55h23v1h-23zM39 56h6v1h-6zM49 56h2v1h-2zM55 56h5v1h-5zM39 57h4v1h-4zM49 57h1v1h-1zM56 57h4v1h-4zM40 58h2v1h-2zM57 58h2v1h-2zM41 59h1v1h-1z" /><path fill="#867536" d="M39 32h1v1h-1z" /><path fill="#fcd01f" d="M40 32h1v1h-1zM31 39h1v1h-1z" /><path fill="#d0ae28" d="M58 32h1v1h-1zM65 40h1v1h-1z" /><path fill="#474542" d="M59 32h1v1h-1z" /><path fill="#7e6f37" d="M65 32h1v1h-1z" /><path fill="#face1f" d="M66 32h1v1h-1zM40 39h1v1h-1zM58 39h1v1h-1z" /><path fill="#ffac10" d="M16 33h1v1h-1zM13 44h1v1h-1zM39 72h1v1h-1zM53 77h1v1h-1zM34 87h1v1h-1zM65 87h1v1h-1z" /><path fill="#e4bd23" d="M31 33h1v1h-1z" /><path fill="#414044" d="M32 33h1v1h-1z" /><path fill="#998432" d="M40 33h1v1h-1z" /><path fill="#eac222" d="M57 33h1v1h-1zM67 34h1v1h-1z" /><path fill="#907c34" d="M66 33h1v1h-1z" /><path fill="#837336" d="M31 34h1v1h-1z" /><path fill="#3f3f44" d="M40 34h1v1h-1z" /><path fill="#f1c721" d="M41 34h1v1h-1z" /><path fill="#8b7935" d="M57 34h1v1h-1z" /><path fill="#3d3d44" d="M66 34h1v1h-1zM65 39h1v1h-1z" /><path fill="#ffa80f" d="M83 34h1v1h-1zM14 56h1v1h-1zM72 57h1v1h-1zM40 73h1v1h-1zM59 73h1v1h-1zM57 76h1v1h-1zM13 77h1v1h-1zM86 77h1v1h-1zM46 79h1v1h-1zM53 79h1v1h-1zM15 84h1v1h-1zM84 84h1v1h-1z" /><path fill="#504c40" d="M31 35h1v1h-1zM66 38h1v1h-1z" /><path fill="#c1a32b" d="M41 35h1v1h-1z" /><path fill="#57503f" d="M57 35h1v1h-1z" /><path fill="#b89b2c" d="M67 35h1v1h-1z" /><path fill="#ffbb16" d="M83 35h1v1h-1zM84 38h1v1h-1zM15 55h1v1h-1zM84 55h1v1h-1zM34 57h1v1h-1zM65 57h1v1h-1zM35 58h1v1h-1zM64 58h1v1h-1zM19 64h1v1h-1zM80 64h1v1h-1zM40 67h1v1h-1zM59 67h1v1h-1zM29 71h1v1h-1zM70 71h1v1h-1zM11 78h1v1h-1zM88 78h1v1h-1zM47 83h1v1h-1z" /><path fill="#ffc81b" d="M24 36h1v1h-1zM28 37h1v1h-1zM71 37h1v1h-1zM36 86h1v1h-1zM63 86h1v1h-1z" /><path fill="#ffbd17" d="M25 36h1v1h-1zM74 36h1v1h-1zM70 66h1v1h-1z" /><path fill="#ffc018" d="M26 36h1v1h-1zM73 36h1v1h-1zM14 55h1v1h-1zM25 65h1v1h-1zM32 71h1v1h-1zM67 71h1v1h-1zM26 72h1v1h-1zM15 80h1v1h-1zM84 80h1v1h-1zM49 83h2v1h-2z" /><path fill="#464443" d="M31 36h1v1h-1z" /><path fill="#b99c2c" d="M41 36h1v1h-1z" /><path fill="#4e4a41" d="M57 36h1v1h-1z" /><path fill="#b1962d" d="M67 36h1v1h-1z" /><path fill="#ffc91b" d="M75 36h1v1h-1zM15 37h1v1h-1zM84 39h1v1h-1zM14 41h1v1h-1zM20 59h1v1h-1zM36 59h1v1h-1zM63 59h1v1h-1zM33 64h1v1h-1zM42 69h1v1h-1zM57 69h1v1h-1zM10 78h1v1h-1zM17 78h1v1h-1zM82 78h1v1h-1zM89 78h1v1h-1zM24 86h1v1h-1zM75 86h1v1h-1z" /><path fill="#ffb715" d="M23 37h1v1h-1zM76 37h1v1h-1zM32 61h1v1h-1zM37 62h1v1h-1zM16 66h1v1h-1zM83 66h1v1h-1zM10 67h1v1h-1zM89 67h1v1h-1zM53 83h1v1h-1z" /><path fill="#61583d" d="M31 37h1v1h-1z" /><path fill="#d3b026" d="M41 37h1v1h-1z" /><path fill="#685e3c" d="M57 37h1v1h-1zM32 39h1v1h-1z" /><path fill="#caaa28" d="M67 37h1v1h-1z" /><path fill="#ffa70f" d="M28 38h1v1h-1zM71 38h1v1h-1zM27 57h1v1h-1zM29 60h1v1h-1zM70 60h1v1h-1zM8 74h1v1h-1zM91 74h1v1h-1zM9 75h1v1h-1zM90 75h1v1h-1zM42 76h1v1h-1zM12 78h1v1h-1zM87 78h1v1h-1zM14 79h1v1h-1zM85 79h1v1h-1zM21 86h1v1h-1zM78 86h1v1h-1z" /><path fill="#a9912f" d="M31 38h1v1h-1z" /><path fill="#796b39" d="M36 38h1v1h-1z" /><path fill="#ba9e2c" d="M37 38h1v1h-1z" /><path fill="#897735" d="M38 38h1v1h-1z" /><path fill="#4a4741" d="M39 38h1v1h-1z" /><path fill="#58523f" d="M40 38h1v1h-1z" /><path fill="#fed11e" d="M41 38h1v1h-1zM39 39h1v1h-1zM35 48h1v1h-1z" /><path fill="#b3972d" d="M57 38h1v1h-1z" /><path fill="#3c3c44" d="M58 38h1v1h-1z" /><path fill="#695f3b" d="M59 38h1v1h-1z" /><path fill="#ab912e" d="M60 38h2v1h-2z" /><path fill="#fdd11f" d="M67 38h1v1h-1zM36 39h1v1h-1z" /><path fill="#6c623b" d="M35 39h1v1h-1z" /><path fill="#c4a52a" d="M62 39h1v1h-1z" /><path fill="#3b3c45" d="M63 39h1v1h-1z" /><path fill="#ffcf1e" d="M29 40h1v1h-1zM70 40h1v1h-1zM39 73h1v1h-1zM60 73h1v1h-1z" /><path fill="#f6cb20" d="M32 40h1v1h-1z" /><path fill="#877636" d="M33 40h1v1h-1z" /><path fill="#665d3d" d="M34 40h1v1h-1z" /><path fill="#efc622" d="M35 40h1v1h-1z" /><path fill="#a78e30" d="M63 40h1v1h-1z" /><path fill="#5d563e" d="M64 40h1v1h-1z" /><path fill="#ffca1c" d="M22 41h1v1h-1zM85 49h1v1h-1zM60 65h1v1h-1zM53 82h1v1h-1z" /><path fill="#ffaf11" d="M28 41h1v1h-1zM71 41h1v1h-1zM27 42h1v1h-1zM72 42h1v1h-1zM13 50h1v1h-1zM70 56h1v1h-1zM28 64h1v1h-1zM71 64h1v1h-1zM32 70h1v1h-1zM67 70h1v1h-1zM38 71h1v1h-1zM61 71h1v1h-1zM44 72h1v1h-1zM11 76h1v1h-1zM88 76h1v1h-1zM53 80h1v1h-1z" /><path fill="#ffa40e" d="M13 43h1v1h-1zM28 69h1v1h-1zM71 69h1v1h-1zM15 73h1v1h-1zM84 73h1v1h-1zM20 74h1v1h-1zM91 80h1v1h-1z" /><path fill="#ffcb1b" d="M25 43h1v1h-1zM74 43h1v1h-1zM73 57h1v1h-1zM65 66h1v1h-1zM26 67h1v1h-1zM73 67h1v1h-1zM15 70h1v1h-1zM43 70h1v1h-1zM56 70h1v1h-1zM84 70h1v1h-1z" /><path fill="#ffbd16" d="M85 43h1v1h-1zM76 62h1v1h-1zM20 65h1v1h-1zM8 73h1v1h-1zM91 73h1v1h-1zM14 77h1v1h-1zM85 77h1v1h-1zM41 82h1v1h-1zM51 83h1v1h-1z" /><path fill="#ffc519" d="M85 44h1v1h-1zM85 65h1v1h-1zM81 72h1v1h-1z" /><path fill="#ffb112" d="M13 46h1v1h-1zM63 60h1v1h-1zM34 65h1v1h-1zM19 73h1v1h-1zM80 73h1v1h-1zM18 75h1v1h-1zM81 75h1v1h-1z" /><path fill="#eeba24" d="M36 47h1v1h-1z" /><path fill="#f1bc24" d="M37 47h1v1h-1z" /><path fill="#f0ba22" d="M61 47h1v1h-1z" /><path fill="#f1bd23" d="M62 47h1v1h-1z" /><path fill="#4d3c44" d="M36 48h1v1h-1z" /><path fill="#6a4241" d="M38 48h1v1h-1z" /><path fill="#c07e31" d="M39 48h1v1h-1z" /><path fill="#fdce1f" d="M40 48h1v1h-1z" /><path fill="#fdd020" d="M58 48h1v1h-1z" /><path fill="#bc7a33" d="M59 48h1v1h-1z" /><path fill="#664142" d="M60 48h1v1h-1z" /><path fill="#563d43" d="M62 48h1v1h-1z" /><path fill="#f8c820" d="M35 49h1v1h-1z" /><path fill="#5a3e43" d="M40 49h1v1h-1zM36 51h1v1h-1z" /><path fill="#b77634" d="M41 49h1v1h-1z" /><path fill="#fbcb1e" d="M42 49h1v1h-1z" /><path fill="#fac920" d="M56 49h1v1h-1z" /><path fill="#b47034" d="M57 49h1v1h-1z" /><path fill="#573c43" d="M58 49h1v1h-1z" /><path fill="#3c3b45" d="M62 49h1v1h-1z" /><path fill="#fed01e" d="M63 49h1v1h-1zM58 60h1v1h-1z" /><path fill="#453b44" d="M36 50h1v1h-1z" /><path fill="#4f3c44" d="M42 50h1v1h-1zM62 50h1v1h-1z" /><path fill="#9e5e39" d="M43 50h1v1h-1z" /><path fill="#e6ad27" d="M44 50h1v1h-1z" /><path fill="#e2a928" d="M54 50h1v1h-1z" /><path fill="#9b5b3a" d="M55 50h1v1h-1z" /><path fill="#4d3b44" d="M56 50h1v1h-1z" /><path fill="#3b3b45" d="M44 51h1v1h-1z" /><path fill="#613e42" d="M45 51h1v1h-1z" /><path fill="#91563c" d="M46 51h1v1h-1z" /><path fill="#b87633" d="M47 51h1v1h-1z" /><path fill="#cc8e2e" d="M48 51h1v1h-1z" /><path fill="#d89a2b" d="M49 51h1v1h-1z" /><path fill="#cb872f" d="M50 51h1v1h-1z" /><path fill="#b77334" d="M51 51h1v1h-1z" /><path fill="#8f553c" d="M52 51h1v1h-1z" /><path fill="#5f3e43" d="M53 51h1v1h-1z" /><path fill="#644042" d="M62 51h1v1h-1z" /><path fill="#ffa50e" d="M13 52h1v1h-1zM26 58h1v1h-1zM73 58h1v1h-1zM21 59h1v1h-1zM83 80h1v1h-1z" /><path fill="#88513d" d="M36 52h1v1h-1z" /><path fill="#8b543c" d="M62 52h1v1h-1z" /><path fill="#ffd11d" d="M14 53h1v1h-1zM23 55h1v1h-1zM76 55h1v1h-1zM27 56h1v1h-1zM72 56h1v1h-1zM81 62h1v1h-1zM84 66h1v1h-1zM35 68h1v1h-1zM64 68h1v1h-1zM38 72h1v1h-1zM61 72h1v1h-1zM41 81h1v1h-1zM58 81h1v1h-1zM39 84h1v1h-1zM60 84h1v1h-1z" /><path fill="#c47e32" d="M36 53h1v1h-1z" /><path fill="#c38230" d="M62 53h1v1h-1z" /><path fill="#ffbf17" d="M17 54h1v1h-1zM82 54h1v1h-1zM28 56h1v1h-1zM71 56h1v1h-1zM17 60h1v1h-1zM21 66h1v1h-1zM78 66h1v1h-1zM21 70h1v1h-1zM57 79h1v1h-1zM19 85h1v1h-1z" /><path fill="#ffc318" d="M20 54h1v1h-1z" /><path fill="#f7c721" d="M36 54h1v1h-1z" /><path fill="#433b45" d="M37 54h1v1h-1z" /><path fill="#493c44" d="M61 54h1v1h-1z" /><path fill="#facb1f" d="M62 54h1v1h-1z" /><path fill="#ffba15" d="M80 54h1v1h-1zM77 55h1v1h-1zM83 74h1v1h-1zM19 81h1v1h-1zM53 81h1v1h-1zM80 81h1v1h-1z" /><path fill="#91583b" d="M37 55h1v1h-1z" /><path fill="#9c5f3a" d="M61 55h1v1h-1z" /><path fill="#ffa30e" d="M85 55h1v1h-1zM25 71h1v1h-1zM74 71h1v1h-1zM8 78h1v1h-1zM91 78h1v1h-1zM8 80h1v1h-1z" /><path fill="#ffaa0f" d="M23 56h1v1h-1zM76 56h1v1h-1zM25 58h1v1h-1zM74 58h1v1h-1zM9 71h2v1h-2zM39 85h1v1h-1zM60 85h1v1h-1z" /><path fill="#ffae12" d="M29 56h1v1h-1z" /><path fill="#ffa60e" d="M30 56h1v1h-1zM69 56h1v1h-1zM24 57h1v1h-1zM75 57h1v1h-1zM78 59h1v1h-1zM15 65h1v1h-1zM84 65h1v1h-1zM36 68h1v1h-1zM63 68h1v1h-1zM43 71h1v1h-1zM56 71h1v1h-1zM13 72h1v1h-1zM86 72h1v1h-1zM45 74h1v1h-1zM54 74h1v1h-1zM53 78h1v1h-1zM9 81h1v1h-1zM90 81h1v1h-1zM26 87h1v1h-1zM73 87h1v1h-1z" /><path fill="#ffa90f" d="M31 56h1v1h-1zM68 56h1v1h-1zM39 66h1v1h-1zM60 66h1v1h-1zM90 66h1v1h-1zM89 71h2v1h-2zM24 72h1v1h-1zM75 72h1v1h-1z" /><path fill="#ecba23" d="M37 56h1v1h-1z" /><path fill="#463c44" d="M38 56h1v1h-1z" /><path fill="#713943" d="M45 56h1v1h-1z" /><path fill="#c73540" d="M46 56h1v1h-1z" /><path fill="#d5333f" d="M47 56h1v1h-1z" /><path fill="#423a45" d="M48 56h1v1h-1z" /><path fill="#6e3843" d="M51 56h1v1h-1z" /><path fill="#df333e" d="M52 56h1v1h-1z" /><path fill="#9e3641" d="M53 56h1v1h-1z" /><path fill="#493b45" d="M54 56h1v1h-1zM50 57h1v1h-1z" /><path fill="#4a3b44" d="M60 56h1v1h-1z" /><path fill="#f2c023" d="M61 56h1v1h-1z" /><path fill="#b07335" d="M38 57h1v1h-1z" /><path fill="#443b44" d="M43 57h1v1h-1z" /><path fill="#b93540" d="M44 57h1v1h-1z" /><path fill="#ff323d" d="M45 57h3v1h-3zM52 57h2v1h-2zM44 58h4v1h-4zM51 58h4v1h-4zM43 59h13v1h-13zM43 60h13v1h-13zM45 61h9v1h-9z" /><path fill="#a73641" d="M48 57h1v1h-1z" /><path fill="#ec333e" d="M51 57h1v1h-1z" /><path fill="#ed323d" d="M54 57h1v1h-1z" /><path fill="#743943" d="M55 57h1v1h-1z" /><path fill="#ba7b32" d="M60 57h1v1h-1z" /><path fill="#83523d" d="M39 58h1v1h-1z" /><path fill="#433a45" d="M42 58h1v1h-1z" /><path fill="#d1343f" d="M43 58h1v1h-1z" /><path fill="#fd323d" d="M48 58h1v1h-1z" /><path fill="#923741" d="M49 58h1v1h-1z" /><path fill="#ce353f" d="M50 58h1v1h-1z" /><path fill="#fc323d" d="M55 58h1v1h-1z" /><path fill="#7d3842" d="M56 58h1v1h-1z" /><path fill="#8d573b" d="M59 58h1v1h-1z" /><path fill="#fbcd1e" d="M39 59h1v1h-1z" /><path fill="#7c4b3f" d="M40 59h1v1h-1z" /><path fill="#b9353f" d="M42 59h1v1h-1z" /><path fill="#f9323d" d="M56 59h1v1h-1z" /><path fill="#5a3944" d="M57 59h1v1h-1z" /><path fill="#834f3d" d="M58 59h1v1h-1z" /><path fill="#fccf1f" d="M59 59h1v1h-1z" /><path fill="#ffc118" d="M30 60h1v1h-1zM74 65h1v1h-1zM73 72h1v1h-1zM42 78h1v1h-1zM57 78h1v1h-1zM17 81h1v1h-1z" /><path fill="#ffb814" d="M31 60h1v1h-1zM68 60h1v1h-1zM17 61h1v1h-1zM35 67h1v1h-1zM64 67h1v1h-1zM16 71h1v1h-1zM83 71h1v1h-1zM42 77h1v1h-1z" /><path fill="#fdcf1f" d="M40 60h1v1h-1z" /><path fill="#b66736" d="M41 60h1v1h-1z" /><path fill="#ff343c" d="M42 60h1v1h-1z" /><path fill="#ff363d" d="M56 60h1v1h-1z" /><path fill="#eb7f2f" d="M57 60h1v1h-1z" /><path fill="#ffcc1c" d="M29 61h1v1h-1zM70 61h1v1h-1zM25 73h1v1h-1zM74 73h1v1h-1zM17 75h1v1h-1zM82 75h1v1h-1zM22 77h1v1h-1zM77 77h1v1h-1zM38 85h1v1h-1z" /><path fill="#ffb524" d="M42 61h1v1h-1z" /><path fill="#ff6333" d="M43 61h1v1h-1z" /><path fill="#ff343d" d="M44 61h1v1h-1z" /><path fill="#ff333c" d="M54 61h1v1h-1z" /><path fill="#ff6633" d="M55 61h1v1h-1z" /><path fill="#ffb923" d="M56 61h1v1h-1z" /><path fill="#ffac11" d="M28 62h1v1h-1zM71 62h1v1h-1z" /><path fill="#ffbe21" d="M44 62h1v1h-1z" /><path fill="#ff8d2b" d="M45 62h1v1h-1z" /><path fill="#ff6733" d="M46 62h1v1h-1z" /><path fill="#ff4d38" d="M47 62h1v1h-1z" /><path fill="#ff3f3a" d="M48 62h1v1h-1zM50 62h1v1h-1z" /><path fill="#ff3b3c" d="M49 62h1v1h-1z" /><path fill="#ff4d37" d="M51 62h1v1h-1z" /><path fill="#ff6832" d="M52 62h1v1h-1z" /><path fill="#ff8f2b" d="M53 62h1v1h-1z" /><path fill="#ffc022" d="M54 62h1v1h-1z" /><path fill="#ffb113" d="M18 63h1v1h-1zM66 63h1v1h-1z" /><path fill="#ffb312" d="M28 63h1v1h-1z" /><path fill="#ffb212" d="M71 63h1v1h-1z" /><path fill="#ffc619" d="M10 64h1v1h-1zM89 64h1v1h-1zM63 69h1v1h-1zM46 75h1v1h-1z" /><path fill="#ffb313" d="M9 65h1v1h-1zM86 83h1v1h-1zM22 86h1v1h-1zM77 86h1v1h-1zM28 87h1v1h-1zM33 87h1v1h-1zM66 87h1v1h-1zM71 87h1v1h-1z" /><path fill="#ffbc16" d="M29 66h1v1h-1zM12 72h1v1h-1zM16 84h1v1h-1zM83 84h1v1h-1z" /><path fill="#ffc117" d="M22 67h1v1h-1zM77 67h1v1h-1z" /><path fill="#ffa70e" d="M46 78h1v1h-1z" /><path fill="#ffba16" d="M46 81h1v1h-1z" /></svg>