<svg xmlns="http://www.w3.org/2000/svg" viewBox="0 0 100 100" width="1em" height="1em"><path fill="#584be9" d="M12 0h1v1h-1zM15 0h1v1h-1zM86 0h1v1h-1zM9 2h1v1h-1zM7 3h1v1h-1zM19 3h1v1h-1zM80 3h1v1h-1zM5 5h1v1h-1zM3 7h1v1h-1zM96 7h1v1h-1zM2 8h1v1h-1zM1 10h1v1h-1zM99 15h1v1h-1zM0 16h1v1h-1zM26 20h1v1h-1zM71 24h1v1h-1zM21 32h1v1h-1zM11 33h1v1h-1zM24 33h1v1h-1zM13 34h1v1h-1zM69 34h1v1h-1zM81 36h1v1h-1zM8 37h1v1h-1zM21 37h1v1h-1zM90 41h1v1h-1zM63 59h1v1h-1zM68 60h1v1h-1zM26 61h1v1h-1zM77 62h2v1h-2zM81 63h1v1h-1zM84 64h1v1h-1zM30 65h1v1h-1zM68 65h1v1h-1zM10 66h1v1h-1zM75 66h1v1h-1zM89 66h1v1h-1zM78 67h1v1h-1zM92 68h1v1h-1zM70 72h1v1h-1zM8 73h1v1h-1zM95 76h1v1h-1zM73 79h1v1h-1zM1 80h1v1h-1zM99 83h1v1h-1zM78 92h1v1h-1zM6 95h1v1h-1zM11 98h1v1h-1zM15 99h2v1h-2zM84 99h1v1h-1z" /><path fill="#594ce9" d="M13 0h2v1h-2zM83 0h2v1h-2zM12 1h5v1h-5zM83 1h5v1h-5zM10 2h9v1h-9zM81 2h9v1h-9zM9 3h10v1h-10zM81 3h10v1h-10zM7 4h13v1h-13zM80 4h13v1h-13zM6 5h14v1h-14zM80 5h15v1h-15zM4 6h16v1h-16zM80 6h15v1h-15zM4 7h18v1h-18zM78 7h18v1h-18zM3 8h18v1h-18zM79 8h18v1h-18zM2 9h20v1h-20zM78 9h20v1h-20zM2 10h20v1h-20zM78 10h20v1h-20zM1 11h22v1h-22zM77 11h22v1h-22zM1 12h23v1h-23zM76 12h23v1h-23zM1 13h23v1h-23zM77 13h22v1h-22zM1 14h23v1h-23zM76 14h23v1h-23zM1 15h23v1h-23zM76 15h23v1h-23zM1 16h24v1h-24zM75 16h24v1h-24zM0 17h25v1h-25zM75 17h25v1h-25zM1 18h24v1h-24zM75 18h24v1h-24zM2 19h24v1h-24zM73 19h25v1h-25zM2 20h24v1h-24zM73 20h24v1h-24zM3 21h24v1h-24zM73 21h24v1h-24zM4 22h23v1h-23zM73 22h23v1h-23zM5 23h23v1h-23zM72 23h23v1h-23zM6 24h23v1h-23zM72 24h22v1h-22zM8 25h20v1h-20zM72 25h20v1h-20zM9 26h20v1h-20zM71 26h21v1h-21zM11 27h18v1h-18zM71 27h18v1h-18zM12 28h17v1h-17zM71 28h17v1h-17zM15 29h15v1h-15zM70 29h15v1h-15zM17 30h13v1h-13zM70 30h14v1h-14zM20 31h10v1h-10zM70 31h10v1h-10zM81 31h1v1h-1zM7 32h1v1h-1zM23 32h8v1h-8zM69 32h8v1h-8zM92 32h1v1h-1zM8 33h2v1h-2zM26 33h5v1h-5zM69 33h5v1h-5zM89 33h3v1h-3zM8 34h5v1h-5zM30 34h1v1h-1zM86 34h1v1h-1zM88 34h4v1h-4zM8 35h7v1h-7zM85 35h7v1h-7zM9 36h8v1h-8zM83 36h8v1h-8zM9 37h12v1h-12zM80 37h11v1h-11zM9 38h15v1h-15zM26 38h1v1h-1zM73 38h1v1h-1zM76 38h15v1h-15zM10 39h19v1h-19zM71 39h19v1h-19zM10 40h25v1h-25zM65 40h25v1h-25zM10 41h80v1h-80zM10 42h80v1h-80zM10 43h80v1h-80zM11 44h78v1h-78zM11 45h78v1h-78zM11 46h78v1h-78zM11 47h78v1h-78zM11 48h78v1h-78zM11 49h78v1h-78zM11 50h78v1h-78zM11 51h78v1h-78zM11 52h78v1h-78zM11 53h78v1h-78zM10 54h79v1h-79zM11 55h78v1h-78zM10 56h80v1h-80zM10 57h80v1h-80zM10 58h80v1h-80zM10 59h25v1h-25zM36 59h1v1h-1zM65 59h25v1h-25zM10 60h19v1h-19zM71 60h19v1h-19zM9 61h15v1h-15zM74 61h1v1h-1zM76 61h15v1h-15zM8 62h12v1h-12zM80 62h12v1h-12zM9 63h9v1h-9zM82 63h9v1h-9zM8 64h8v1h-8zM85 64h7v1h-7zM8 65h4v1h-4zM88 65h4v1h-4zM8 66h2v1h-2zM26 66h5v1h-5zM69 66h5v1h-5zM90 66h2v1h-2zM7 67h1v1h-1zM23 67h8v1h-8zM69 67h8v1h-8zM92 67h1v1h-1zM20 68h10v1h-10zM70 68h10v1h-10zM17 69h13v1h-13zM70 69h13v1h-13zM15 70h15v1h-15zM70 70h16v1h-16zM12 71h17v1h-17zM71 71h18v1h-18zM11 72h18v1h-18zM71 72h18v1h-18zM9 73h20v1h-20zM71 73h20v1h-20zM8 74h20v1h-20zM72 74h21v1h-21zM6 75h22v1h-22zM72 75h22v1h-22zM5 76h23v1h-23zM72 76h23v1h-23zM4 77h23v1h-23zM72 77h24v1h-24zM3 78h24v1h-24zM73 78h25v1h-25zM3 79h23v1h-23zM74 79h24v1h-24zM2 80h24v1h-24zM74 80h24v1h-24zM1 81h24v1h-24zM75 81h24v1h-24zM1 82h24v1h-24zM75 82h25v1h-25zM1 83h24v1h-24zM75 83h24v1h-24zM0 84h24v1h-24zM76 84h23v1h-23zM1 85h23v1h-23zM76 85h23v1h-23zM0 86h23v1h-23zM77 86h22v1h-22zM1 87h22v1h-22zM77 87h22v1h-22zM1 88h22v1h-22zM77 88h22v1h-22zM2 89h20v1h-20zM78 89h20v1h-20zM2 90h20v1h-20zM78 90h20v1h-20zM3 91h18v1h-18zM79 91h18v1h-18zM4 92h17v1h-17zM79 92h18v1h-18zM5 93h16v1h-16zM80 93h15v1h-15zM6 94h14v1h-14zM80 94h15v1h-15zM7 95h13v1h-13zM80 95h13v1h-13zM9 96h10v1h-10zM81 96h10v1h-10zM10 97h9v1h-9zM81 97h9v1h-9zM12 98h5v1h-5zM83 98h5v1h-5z" /><path fill="#584be8" d="M16 0h1v1h-1zM11 1h1v1h-1zM95 6h1v1h-1zM21 8h1v1h-1zM78 8h1v1h-1zM97 8h1v1h-1zM0 12h1v1h-1zM99 13h1v1h-1zM25 18h1v1h-1zM74 18h1v1h-1zM97 21h1v1h-1zM96 22h1v1h-1zM5 24h1v1h-1zM71 25h1v1h-1zM89 27h1v1h-1zM11 28h1v1h-1zM84 30h1v1h-1zM80 31h1v1h-1zM9 32h1v1h-1zM78 32h1v1h-1zM10 33h1v1h-1zM31 33h1v1h-1zM7 34h1v1h-1zM92 34h1v1h-1zM18 36h1v1h-1zM25 38h1v1h-1zM74 38h1v1h-1zM31 39h1v1h-1zM69 39h1v1h-1zM37 40h1v1h-1zM62 40h1v1h-1zM90 40h1v1h-1zM89 46h1v1h-1zM10 48h1v1h-1zM89 49h1v1h-1zM89 50h1v1h-1zM10 51h1v1h-1zM10 52h1v1h-1zM89 53h1v1h-1zM89 55h1v1h-1zM24 61h1v1h-1zM21 62h1v1h-1zM31 65h1v1h-1zM77 67h1v1h-1zM18 68h2v1h-2zM11 71h1v1h-1zM29 71h1v1h-1zM91 73h1v1h-1zM7 74h1v1h-1zM71 74h1v1h-1zM94 75h1v1h-1zM98 80h1v1h-1zM74 81h1v1h-1zM21 91h1v1h-1zM97 91h1v1h-1zM21 92h1v1h-1zM79 93h1v1h-1zM95 93h1v1h-1zM8 96h1v1h-1zM92 96h1v1h-1zM90 97h1v1h-1zM83 99h1v1h-1z" /><path fill="#594be9" d="M85 0h1v1h-1zM20 5h1v1h-1zM0 14h1v1h-1zM24 15h1v1h-1zM75 15h1v1h-1zM4 23h1v1h-1zM94 24h1v1h-1zM16 30h1v1h-1zM69 30h1v1h-1zM30 31h1v1h-1zM8 32h1v1h-1zM91 32h1v1h-1zM7 33h1v1h-1zM82 36h1v1h-1zM91 37h1v1h-1zM75 38h1v1h-1zM90 39h1v1h-1zM36 40h1v1h-1zM63 40h1v1h-1zM10 44h1v1h-1zM10 55h1v1h-1zM9 59h1v1h-1zM30 60h2v1h-2zM70 60h1v1h-1zM25 61h1v1h-1zM12 65h1v1h-1zM70 65h1v1h-1zM7 66h1v1h-1zM24 66h1v1h-1zM74 66h1v1h-1zM9 67h1v1h-1zM16 69h1v1h-1zM84 69h1v1h-1zM25 82h1v1h-1zM99 85h1v1h-1zM0 87h1v1h-1zM22 89h1v1h-1zM98 89h1v1h-1zM86 99h1v1h-1z" /><path fill="#594ce8" d="M17 1h1v1h-1zM82 1h1v1h-1zM90 2h1v1h-1zM8 3h1v1h-1zM91 3h1v1h-1zM20 6h1v1h-1zM79 6h1v1h-1zM98 10h1v1h-1zM0 13h1v1h-1zM0 15h1v1h-1zM97 20h1v1h-1zM7 25h1v1h-1zM92 25h1v1h-1zM29 27h1v1h-1zM70 27h1v1h-1zM29 28h1v1h-1zM14 29h1v1h-1zM85 29h2v1h-2zM18 31h2v1h-2zM77 32h1v1h-1zM90 32h1v1h-1zM74 33h1v1h-1zM28 34h1v1h-1zM68 34h1v1h-1zM8 36h1v1h-1zM79 37h1v1h-1zM89 45h1v1h-1zM10 46h1v1h-1zM10 47h1v1h-1zM10 49h1v1h-1zM10 50h1v1h-1zM38 59h1v1h-1zM61 59h1v1h-1zM90 59h1v1h-1zM29 60h1v1h-1zM20 62h1v1h-1zM79 62h1v1h-1zM8 63h1v1h-1zM71 65h1v1h-1zM25 66h1v1h-1zM31 66h1v1h-1zM92 66h1v1h-1zM21 67h2v1h-2zM6 68h1v1h-1zM80 68h2v1h-2zM93 68h1v1h-1zM15 69h1v1h-1zM14 70h1v1h-1zM10 72h1v1h-1zM89 72h1v1h-1zM27 77h1v1h-1zM2 79h1v1h-1zM26 79h1v1h-1zM26 80h1v1h-1zM73 80h1v1h-1zM25 81h1v1h-1zM74 82h1v1h-1zM99 84h1v1h-1zM99 86h1v1h-1zM99 87h1v1h-1zM1 89h1v1h-1zM3 92h1v1h-1zM4 93h1v1h-1zM5 94h1v1h-1zM91 96h1v1h-1zM9 97h1v1h-1zM17 98h1v1h-1zM82 98h1v1h-1z" /><path fill="#584ce8" d="M88 1h1v1h-1zM92 3h1v1h-1zM93 4h1v1h-1zM99 12h1v1h-1zM99 16h1v1h-1zM74 17h1v1h-1zM1 19h1v1h-1zM98 19h1v1h-1zM95 23h1v1h-1zM6 25h1v1h-1zM28 25h1v1h-1zM93 25h1v1h-1zM8 26h1v1h-1zM88 28h1v1h-1zM13 29h1v1h-1zM15 30h1v1h-1zM6 31h2v1h-2zM75 33h1v1h-1zM92 33h1v1h-1zM31 34h1v1h-1zM91 36h1v1h-1zM22 37h1v1h-1zM29 39h2v1h-2zM70 39h1v1h-1zM9 40h1v1h-1zM38 40h2v1h-2zM60 40h2v1h-2zM89 48h1v1h-1zM89 51h1v1h-1zM10 53h1v1h-1zM39 59h1v1h-1zM60 59h1v1h-1zM90 60h1v1h-1zM91 63h1v1h-1zM7 65h1v1h-1zM13 65h1v1h-1zM29 65h1v1h-1zM69 65h1v1h-1zM86 65h1v1h-1zM92 65h1v1h-1zM91 67h1v1h-1zM30 68h1v1h-1zM30 69h1v1h-1zM69 69h1v1h-1zM83 69h1v1h-1zM70 71h1v1h-1zM28 75h1v1h-1zM4 76h1v1h-1zM2 78h1v1h-1zM0 83h1v1h-1zM75 84h1v1h-1zM0 85h1v1h-1zM23 86h1v1h-1zM76 87h1v1h-1zM77 89h1v1h-1zM78 91h1v1h-1zM20 94h1v1h-1zM79 94h1v1h-1zM93 95h1v1h-1zM88 98h1v1h-1z" /><path fill="#594be8" d="M6 4h1v1h-1zM22 10h1v1h-1zM77 10h1v1h-1zM99 14h1v1h-1zM25 17h1v1h-1zM26 19h1v1h-1zM27 22h1v1h-1zM72 22h1v1h-1zM9 27h2v1h-2zM90 27h1v1h-1zM70 28h1v1h-1zM30 30h1v1h-1zM93 31h1v1h-1zM22 32h1v1h-1zM68 33h1v1h-1zM29 34h1v1h-1zM70 34h1v1h-1zM15 35h1v1h-1zM84 35h1v1h-1zM17 36h1v1h-1zM9 39h1v1h-1zM68 39h1v1h-1zM35 40h1v1h-1zM64 40h1v1h-1zM89 44h1v1h-1zM89 47h1v1h-1zM89 52h1v1h-1zM37 59h1v1h-1zM62 59h1v1h-1zM75 61h1v1h-1zM8 67h1v1h-1zM7 68h1v1h-1zM69 68h1v1h-1zM13 70h1v1h-1zM9 72h1v1h-1zM90 72h1v1h-1zM96 77h1v1h-1zM0 82h1v1h-1zM24 84h1v1h-1zM23 87h1v1h-1zM7 96h1v1h-1zM19 96h1v1h-1z" /><path fill="#584ce9" d="M79 5h1v1h-1zM76 13h1v1h-1zM2 21h1v1h-1zM3 22h1v1h-1zM69 31h1v1h-1zM92 31h1v1h-1zM25 33h1v1h-1zM88 33h1v1h-1zM71 34h1v1h-1zM87 34h1v1h-1zM78 37h1v1h-1zM24 38h1v1h-1zM10 45h1v1h-1zM89 54h1v1h-1zM90 58h1v1h-1zM35 59h1v1h-1zM64 59h1v1h-1zM9 60h1v1h-1zM69 60h1v1h-1zM73 61h1v1h-1zM18 63h1v1h-1zM28 65h1v1h-1zM87 65h1v1h-1zM68 66h1v1h-1zM86 70h1v1h-1zM29 72h1v1h-1zM28 74h1v1h-1zM93 74h1v1h-1zM5 75h1v1h-1zM71 75h1v1h-1zM3 77h1v1h-1zM76 86h1v1h-1zM2 91h1v1h-1zM80 96h1v1h-1zM13 99h2v1h-2zM85 99h1v1h-1z" /></svg>