<svg xmlns="http://www.w3.org/2000/svg" viewBox="0 0 100 100" width="1em" height="1em"><path fill="#000000" d="M36 15h1v1h-1zM35 16h1v1h-1zM34 17h2v1h-2zM33 18h3v1h-3zM32 19h3v1h-3zM30 20h5v1h-5zM29 21h5v1h-5zM28 22h6v1h-6zM27 23h7v1h-7zM26 24h7v1h-7zM25 25h8v1h-8zM24 26h8v1h-8zM22 27h10v1h-10zM21 28h10v1h-10zM20 29h11v1h-11zM19 30h12v1h-12zM18 31h12v1h-12zM17 32h13v1h-13zM15 33h14v1h-14zM14 34h15v1h-15zM13 35h16v1h-16zM12 36h16v1h-16zM11 37h17v1h-17zM10 38h17v1h-17zM9 39h18v1h-18zM7 40h19v1h-19zM6 41h20v1h-20zM5 42h21v1h-21zM4 43h21v1h-21zM3 44h22v1h-22zM2 45h24v1h-24zM1 46h27v1h-27zM1 47h29v1h-29zM2 48h30v1h-30zM4 49h30v1h-30zM6 50h30v1h-30zM7 51h31v1h-31zM9 52h31v1h-31zM10 53h32v1h-32zM12 54h29v1h-29zM13 55h27v1h-27zM15 56h24v1h-24zM16 57h22v1h-22zM16 58h21v1h-21zM16 59h19v1h-19zM15 60h19v1h-19zM15 61h18v1h-18zM14 62h18v1h-18zM14 63h17v1h-17zM14 64h16v1h-16zM13 65h16v1h-16zM13 66h14v1h-14zM12 67h14v1h-14zM12 68h13v1h-13zM12 69h12v1h-12zM11 70h12v1h-12zM11 71h11v1h-11zM10 72h10v1h-10zM10 73h9v1h-9zM10 74h8v1h-8zM55 74h42v1h-42zM9 75h8v1h-8zM55 75h43v1h-43zM9 76h7v1h-7zM55 76h43v1h-43zM8 77h7v1h-7zM55 77h43v1h-43zM8 78h6v1h-6zM55 78h43v1h-43zM8 79h4v1h-4zM55 79h43v1h-43zM7 80h4v1h-4zM55 80h43v1h-43zM7 81h3v1h-3zM55 81h43v1h-43zM6 82h3v1h-3zM6 83h2v1h-2zM5 84h2v1h-2z" /></svg>