<svg xmlns="http://www.w3.org/2000/svg" viewBox="0 0 100 100" width="1em" height="1em"><path fill="#93286d" d="M17 2h1v1h-1z" /><path fill="#a22c77" d="M18 2h1v1h-1z" /><path fill="#b13081" d="M19 2h1v1h-1z" /><path fill="#c2368e" d="M20 2h1v1h-1z" /><path fill="#ce3896" d="M21 2h1v1h-1z" /><path fill="#da3ca0" d="M22 2h1v1h-1zM76 2h1v1h-1z" /><path fill="#e23ea6" d="M23 2h1v1h-1z" /><path fill="#e63fa8" d="M24 2h1v1h-1z" /><path fill="#e73fa9" d="M25 2h2v1h-2zM73 2h2v1h-2z" /><path fill="#f543b4" d="M27 2h1v1h-1z" /><path fill="#f744b5" d="M28 2h15v1h-15zM44 2h28v1h-28z" /><path fill="#f343b2" d="M43 2h1v1h-1z" /><path fill="#f443b3" d="M72 2h1v1h-1z" /><path fill="#e33ea6" d="M75 2h1v1h-1z" /><path fill="#cf3997" d="M77 2h1v1h-1z" /><path fill="#bf358c" d="M78 2h1v1h-1z" /><path fill="#ae2f80" d="M79 2h1v1h-1z" /><path fill="#a02c75" d="M80 2h1v1h-1z" /><path fill="#ad307e" d="M14 3h1v1h-1z" /><path fill="#d63b9b" d="M15 3h1v1h-1z" /><path fill="#f745b4" d="M16 3h27v1h-27zM44 3h36v1h-36zM81 3h1v1h-1z" /><path fill="#f344b1" d="M43 3h1v1h-1zM80 3h1v1h-1z" /><path fill="#f444b2" d="M82 3h1v1h-1z" /><path fill="#cd3995" d="M83 3h1v1h-1z" /><path fill="#a42d78" d="M84 3h1v1h-1z" /><path fill="#93296b" d="M11 4h1v1h-1z" /><path fill="#c93891" d="M12 4h1v1h-1z" /><path fill="#f746b3" d="M13 4h30v1h-30zM44 4h36v1h-36zM81 4h4v1h-4z" /><path fill="#f345b0" d="M43 4h1v1h-1zM85 4h1v1h-1z" /><path fill="#f445b1" d="M80 4h1v1h-1z" /><path fill="#ba3487" d="M86 4h1v1h-1z" /><path fill="#ca3991" d="M10 5h1v1h-1z" /><path fill="#f747b2" d="M11 5h32v1h-32zM44 5h36v1h-36zM81 5h5v1h-5z" /><path fill="#f346af" d="M43 5h1v1h-1z" /><path fill="#f546b1" d="M80 5h1v1h-1zM86 5h1v1h-1z" /><path fill="#f647b1" d="M87 5h1v1h-1z" /><path fill="#b43481" d="M88 5h1v1h-1z" /><path fill="#9e2e70" d="M8 6h1v1h-1z" /><path fill="#f147ad" d="M9 6h1v1h-1z" /><path fill="#f749b1" d="M10 6h2v1h-2zM13 6h30v1h-30zM44 6h42v1h-42zM87 6h2v1h-2z" /><path fill="#f649b0" d="M12 6h1v1h-1zM86 6h1v1h-1z" /><path fill="#f348ae" d="M43 6h1v1h-1z" /><path fill="#e443a3" d="M89 6h1v1h-1z" /><path fill="#bb3784" d="M7 7h1v1h-1z" /><path fill="#f74ab0" d="M8 7h5v1h-5zM14 7h5v1h-5zM80 7h5v1h-5zM86 7h4v1h-4z" /><path fill="#f64aaf" d="M13 7h1v1h-1z" /><path fill="#ef48aa" d="M19 7h1v1h-1z" /><path fill="#cf3e94" d="M20 7h1v1h-1z" /><path fill="#b63782" d="M21 7h1v1h-1z" /><path fill="#a63276" d="M22 7h1v1h-1z" /><path fill="#9d2f70" d="M23 7h1v1h-1z" /><path fill="#942c6a" d="M24 7h4v1h-4zM70 7h5v1h-5z" /><path fill="#932c69" d="M28 7h1v1h-1z" /><path fill="#84275e" d="M29 7h14v1h-14zM44 7h25v1h-25z" /><path fill="#82275c" d="M43 7h1v1h-1z" /><path fill="#872860" d="M69 7h1v1h-1z" /><path fill="#a13073" d="M75 7h1v1h-1z" /><path fill="#aa3379" d="M76 7h1v1h-1z" /><path fill="#ba3885" d="M77 7h1v1h-1z" /><path fill="#d74099" d="M78 7h1v1h-1z" /><path fill="#f349ad" d="M79 7h1v1h-1z" /><path fill="#f449ae" d="M85 7h1v1h-1z" /><path fill="#f549af" d="M90 7h1v1h-1z" /><path fill="#9d3070" d="M91 7h1v1h-1z" /><path fill="#c23b8a" d="M6 8h1v1h-1z" /><path fill="#f74baf" d="M7 8h6v1h-6zM14 8h1v1h-1zM84 8h1v1h-1zM86 8h6v1h-6z" /><path fill="#f54aae" d="M13 8h1v1h-1z" /><path fill="#e847a5" d="M15 8h1v1h-1z" /><path fill="#972e6b" d="M16 8h1v1h-1z" /><path fill="#5a1b40" d="M17 8h1v1h-1z" /><path fill="#200a17" d="M18 8h1v1h-1z" /><path fill="#000000" d="M19 8h60v1h-60zM16 9h67v1h-67zM14 10h71v1h-71zM12 11h75v1h-75zM11 12h77v1h-77zM10 13h79v1h-79zM9 14h81v1h-81zM9 15h81v1h-81zM8 16h83v1h-83zM8 17h83v1h-83zM7 18h85v1h-85zM7 19h22v1h-22zM32 19h60v1h-60zM7 20h21v1h-21zM32 20h60v1h-60zM6 21h21v1h-21zM31 21h61v1h-61zM6 22h20v1h-20zM31 22h61v1h-61zM6 23h19v1h-19zM31 23h62v1h-62zM6 24h18v1h-18zM30 24h63v1h-63zM6 25h17v1h-17zM30 25h63v1h-63zM6 26h16v1h-16zM29 26h64v1h-64zM6 27h15v1h-15zM29 27h64v1h-64zM6 28h14v1h-14zM29 28h64v1h-64zM6 29h12v1h-12zM28 29h65v1h-65zM6 30h12v1h-12zM29 30h64v1h-64zM6 31h12v1h-12zM31 31h62v1h-62zM6 32h13v1h-13zM33 32h60v1h-60zM6 33h14v1h-14zM34 33h59v1h-59zM6 34h16v1h-16zM34 34h59v1h-59zM6 35h17v1h-17zM33 35h60v1h-60zM6 36h17v1h-17zM32 36h61v1h-61zM6 37h17v1h-17zM31 37h62v1h-62zM6 38h16v1h-16zM29 38h64v1h-64zM6 39h16v1h-16zM28 39h65v1h-65zM6 40h15v1h-15zM27 40h66v1h-66zM6 41h15v1h-15zM26 41h67v1h-67zM6 42h15v1h-15zM25 42h13v1h-13zM56 42h37v1h-37zM6 43h14v1h-14zM24 43h14v1h-14zM56 43h37v1h-37zM6 44h14v1h-14zM23 44h15v1h-15zM56 44h37v1h-37zM6 45h14v1h-14zM22 45h17v1h-17zM55 45h38v1h-38zM6 46h87v1h-87zM6 47h87v1h-87zM6 48h87v1h-87zM6 49h87v1h-87zM6 50h87v1h-87zM6 51h87v1h-87zM6 52h87v1h-87zM6 53h87v1h-87zM6 54h87v1h-87zM6 55h87v1h-87zM6 56h87v1h-87zM6 57h87v1h-87zM6 58h87v1h-87zM6 59h87v1h-87zM6 60h87v1h-87zM6 61h87v1h-87zM6 62h87v1h-87zM6 63h87v1h-87zM6 64h87v1h-87zM6 65h87v1h-87zM6 66h87v1h-87zM6 67h87v1h-87zM6 68h87v1h-87zM6 69h87v1h-87zM6 70h87v1h-87zM6 71h87v1h-87zM6 72h87v1h-87zM6 73h87v1h-87zM6 74h87v1h-87zM6 75h87v1h-87zM6 76h86v1h-86zM6 77h86v1h-86zM7 78h85v1h-85zM7 79h85v1h-85zM7 80h85v1h-85zM8 81h83v1h-83zM8 82h83v1h-83zM8 83h82v1h-82zM9 84h81v1h-81zM10 85h79v1h-79zM11 86h77v1h-77zM12 87h75v1h-75zM13 88h72v1h-72zM15 89h68v1h-68zM18 90h62v1h-62z" /><path fill="#040103" d="M79 8h1v1h-1z" /><path fill="#2b0d1e" d="M80 8h1v1h-1z" /><path fill="#681f49" d="M81 8h1v1h-1z" /><path fill="#a93377" d="M82 8h1v1h-1z" /><path fill="#f24aac" d="M83 8h1v1h-1z" /><path fill="#f44aad" d="M85 8h1v1h-1z" /><path fill="#a33174" d="M92 8h1v1h-1z" /><path fill="#b93881" d="M5 9h1v1h-1z" /><path fill="#f74cad" d="M6 9h1v1h-1zM8 9h5v1h-5zM86 9h5v1h-5zM92 9h1v1h-1z" /><path fill="#f64cac" d="M7 9h1v1h-1zM91 9h1v1h-1z" /><path fill="#d94398" d="M13 9h1v1h-1z" /><path fill="#631e45" d="M14 9h1v1h-1z" /><path fill="#0b0307" d="M15 9h1v1h-1z" /><path fill="#170710" d="M83 9h1v1h-1z" /><path fill="#782554" d="M84 9h1v1h-1z" /><path fill="#e948a4" d="M85 9h1v1h-1z" /><path fill="#9b2f6c" d="M93 9h1v1h-1z" /><path fill="#a53372" d="M4 10h1v1h-1z" /><path fill="#f74eac" d="M5 10h3v1h-3zM9 10h2v1h-2zM87 10h6v1h-6z" /><path fill="#f54dab" d="M8 10h1v1h-1z" /><path fill="#f34da9" d="M11 10h1v1h-1z" /><path fill="#802859" d="M12 10h1v1h-1z" /><path fill="#0a0307" d="M13 10h1v1h-1z" /><path fill="#190812" d="M85 10h1v1h-1z" /><path fill="#a43472" d="M86 10h1v1h-1z" /><path fill="#f24ca9" d="M93 10h1v1h-1z" /><path fill="#f44ea9" d="M4 11h1v1h-1zM9 11h1v1h-1zM88 11h1v1h-1z" /><path fill="#f74fab" d="M5 11h4v1h-4zM90 11h4v1h-4z" /><path fill="#e84aa0" d="M10 11h1v1h-1z" /><path fill="#44162f" d="M11 11h1v1h-1z" /><path fill="#70244e" d="M87 11h1v1h-1z" /><path fill="#f64faa" d="M89 11h1v1h-1z" /><path fill="#dd4799" d="M94 11h1v1h-1z" /><path fill="#d34490" d="M3 12h1v1h-1z" /><path fill="#f850aa" d="M4 12h5v1h-5zM90 12h5v1h-5z" /><path fill="#e94ba0" d="M9 12h1v1h-1z" /><path fill="#2c0e1e" d="M10 12h1v1h-1z" /><path fill="#591d3d" d="M88 12h1v1h-1z" /><path fill="#f750a9" d="M89 12h1v1h-1z" /><path fill="#ae3877" d="M95 12h1v1h-1z" /><path fill="#993169" d="M2 13h1v1h-1z" /><path fill="#f851a9" d="M3 13h5v1h-5zM90 13h5v1h-5z" /><path fill="#f34fa6" d="M8 13h1v1h-1z" /><path fill="#42162d" d="M9 13h1v1h-1z" /><path fill="#782752" d="M89 13h1v1h-1z" /><path fill="#f14ea5" d="M95 13h1v1h-1z" /><path fill="#da4993" d="M2 14h1v1h-1z" /><path fill="#f853a8" d="M3 14h5v1h-5zM91 14h5v1h-5z" /><path fill="#7c2954" d="M8 14h1v1h-1z" /><path fill="#b03b77" d="M90 14h1v1h-1z" /><path fill="#b23b78" d="M96 14h1v1h-1z" /><path fill="#f854a7" d="M2 15h5v1h-5zM93 15h3v1h-3z" /><path fill="#d3478e" d="M7 15h1v1h-1z" /><path fill="#070205" d="M8 15h1v1h-1zM7 17h1v1h-1z" /><path fill="#220c17" d="M90 15h1v1h-1z" /><path fill="#ef51a1" d="M91 15h1v1h-1z" /><path fill="#f754a6" d="M92 15h1v1h-1z" /><path fill="#f051a2" d="M96 15h1v1h-1z" /><path fill="#b63e78" d="M1 16h1v1h-1z" /><path fill="#f855a5" d="M2 16h5v1h-5zM92 16h5v1h-5z" /><path fill="#591e3b" d="M7 16h1v1h-1z" /><path fill="#913260" d="M91 16h1v1h-1z" /><path fill="#973464" d="M97 16h1v1h-1z" /><path fill="#e75099" d="M1 17h1v1h-1z" /><path fill="#f856a4" d="M2 17h4v1h-4zM93 17h4v1h-4z" /><path fill="#e44f96" d="M6 17h1v1h-1z" /><path fill="#280e1a" d="M91 17h1v1h-1z" /><path fill="#f756a3" d="M92 17h1v1h-1z" /><path fill="#bc417d" d="M97 17h1v1h-1z" /><path fill="#f858a3" d="M1 18h5v1h-5zM93 18h4v1h-4z" /><path fill="#8f335e" d="M6 18h1v1h-1z" /><path fill="#c94784" d="M92 18h1v1h-1z" /><path fill="#e65197" d="M97 18h1v1h-1z" /><path fill="#983763" d="M0 19h1v1h-1z" /><path fill="#f859a2" d="M1 19h5v1h-5zM93 19h5v1h-5z" /><path fill="#511d35" d="M6 19h1v1h-1z" /><path fill="#010101" d="M29 19h1v1h-1zM55 42h1v1h-1z" /><path fill="#7c7c7c" d="M30 19h1v1h-1z" /><path fill="#2e2e2e" d="M31 19h1v1h-1z" /><path fill="#8b325b" d="M92 19h1v1h-1z" /><path fill="#a63c6c" d="M0 20h1v1h-1z" /><path fill="#f85aa1" d="M1 20h5v1h-5zM93 20h5v1h-5z" /><path fill="#16080f" d="M6 20h1v1h-1z" /><path fill="#040404" d="M28 20h1v1h-1z" /><path fill="#9c9c9c" d="M29 20h1v1h-1zM22 39h1v1h-1z" /><path fill="#fbfbfb" d="M30 20h1v1h-1zM28 25h1v1h-1zM22 27h1v1h-1z" /><path fill="#1b1b1b" d="M31 20h1v1h-1z" /><path fill="#511d34" d="M92 20h1v1h-1z" /><path fill="#b54375" d="M0 21h1v1h-1z" /><path fill="#f85ba0" d="M1 21h4v1h-4zM93 21h5v1h-5z" /><path fill="#eb5698" d="M5 21h1v1h-1z" /><path fill="#0b0b0b" d="M27 21h1v1h-1z" /><path fill="#b5b5b5" d="M28 21h1v1h-1z" /><path fill="#ffffff" d="M29 21h1v1h-1zM28 22h2v1h-2zM27 23h2v1h-2zM26 24h3v1h-3zM25 25h3v1h-3zM24 26h4v1h-4zM23 27h5v1h-5zM21 28h6v1h-6zM20 29h7v1h-7zM19 30h8v1h-8zM20 31h9v1h-9zM21 32h10v1h-10zM23 33h9v1h-9zM24 34h8v1h-8zM24 35h7v1h-7zM24 36h6v1h-6zM24 37h5v1h-5zM23 38h5v1h-5zM23 39h3v1h-3zM23 40h2v1h-2zM22 41h2v1h-2zM22 42h1v1h-1zM21 43h1v1h-1zM39 43h16v1h-16zM39 44h15v1h-15z" /><path fill="#afafaf" d="M30 21h1v1h-1z" /><path fill="#2f111e" d="M92 21h1v1h-1z" /><path fill="#9a3863" d="M98 21h1v1h-1z" /><path fill="#c94a81" d="M0 22h1v1h-1z" /><path fill="#f85c9f" d="M1 22h4v1h-4zM93 22h5v1h-5z" /><path fill="#cc4c83" d="M5 22h1v1h-1z" /><path fill="#121212" d="M26 22h1v1h-1z" /><path fill="#c5c5c5" d="M27 22h1v1h-1z" /><path fill="#484848" d="M30 22h1v1h-1z" /><path fill="#0f0509" d="M92 22h1v1h-1z" /><path fill="#a63e6a" d="M98 22h1v1h-1z" /><path fill="#d45186" d="M0 23h1v1h-1z" /><path fill="#f85e9d" d="M1 23h4v1h-4zM94 23h4v1h-4z" /><path fill="#b54573" d="M5 23h1v1h-1z" /><path fill="#1f1f1f" d="M25 23h1v1h-1z" /><path fill="#d8d8d8" d="M26 23h1v1h-1z" /><path fill="#e1e1e1" d="M29 23h1v1h-1z" /><path fill="#030303" d="M30 23h1v1h-1zM18 29h1v1h-1z" /><path fill="#ee5a97" d="M93 23h1v1h-1z" /><path fill="#af426f" d="M98 23h1v1h-1z" /><path fill="#de558b" d="M0 24h1v1h-1z" /><path fill="#f85f9c" d="M1 24h4v1h-4zM94 24h4v1h-4z" /><path fill="#a74069" d="M5 24h1v1h-1z" /><path fill="#2b2b2b" d="M24 24h1v1h-1zM24 42h1v1h-1z" /><path fill="#e3e3e3" d="M25 24h1v1h-1zM23 42h1v1h-1z" /><path fill="#7b7b7b" d="M29 24h1v1h-1z" /><path fill="#e3578f" d="M93 24h1v1h-1z" /><path fill="#b64672" d="M98 24h1v1h-1z" /><path fill="#e85a91" d="M0 25h1v1h-1z" /><path fill="#f8609b" d="M1 25h4v1h-4zM95 25h1v1h-1zM97 25h1v1h-1z" /><path fill="#9c3c61" d="M5 25h1v1h-1z" /><path fill="#3f3f3f" d="M23 25h1v1h-1z" /><path fill="#efefef" d="M24 25h1v1h-1z" /><path fill="#1a1a1a" d="M29 25h1v1h-1z" /><path fill="#d35284" d="M93 25h1v1h-1z" /><path fill="#f35e98" d="M94 25h1v1h-1z" /><path fill="#f45e99" d="M96 25h1v1h-1z" /><path fill="#bb4876" d="M98 25h1v1h-1z" /><path fill="#ef5e95" d="M0 26h1v1h-1z" /><path fill="#f8619a" d="M1 26h4v1h-4zM94 26h4v1h-4z" /><path fill="#92395b" d="M5 26h1v1h-1z" /><path fill="#4f4f4f" d="M22 26h1v1h-1z" /><path fill="#f6f6f6" d="M23 26h1v1h-1z" /><path fill="#adadad" d="M28 26h1v1h-1z" /><path fill="#ce5180" d="M93 26h1v1h-1z" /><path fill="#c24b78" d="M98 26h1v1h-1z" /><path fill="#f36196" d="M0 27h1v1h-1z" /><path fill="#f86399" d="M1 27h4v1h-4zM94 27h4v1h-4z" /><path fill="#8e3958" d="M5 27h1v1h-1z" /><path fill="#616161" d="M21 27h1v1h-1z" /><path fill="#464646" d="M28 27h1v1h-1z" /><path fill="#ca517d" d="M93 27h1v1h-1z" /><path fill="#c44e79" d="M98 27h1v1h-1z" /><path fill="#f76497" d="M0 28h1v1h-1z" /><path fill="#f86498" d="M1 28h4v1h-4zM94 28h4v1h-4z" /><path fill="#8b3855" d="M5 28h1v1h-1z" /><path fill="#777777" d="M20 28h1v1h-1z" /><path fill="#dedede" d="M27 28h1v1h-1z" /><path fill="#020202" d="M28 28h1v1h-1zM20 33h1v1h-1zM30 37h1v1h-1z" /><path fill="#c55079" d="M93 28h1v1h-1z" /><path fill="#c7507a" d="M98 28h1v1h-1z" /><path fill="#f86597" d="M0 29h5v1h-5zM94 29h4v1h-4z" /><path fill="#893853" d="M5 29h1v1h-1z" /><path fill="#999999" d="M19 29h1v1h-1z" /><path fill="#7f7f7f" d="M27 29h1v1h-1z" /><path fill="#c45078" d="M93 29h1v1h-1z" /><path fill="#c8517a" d="M98 29h1v1h-1z" /><path fill="#f86695" d="M0 30h5v1h-5zM94 30h4v1h-4z" /><path fill="#893852" d="M5 30h1v1h-1z" /><path fill="#a6a6a6" d="M18 30h1v1h-1z" /><path fill="#d7d7d7" d="M27 30h1v1h-1z" /><path fill="#494949" d="M28 30h1v1h-1z" /><path fill="#c45176" d="M93 30h1v1h-1z" /><path fill="#c85278" d="M98 30h1v1h-1z" /><path fill="#f86894" d="M0 31h5v1h-5zM94 31h4v1h-4z" /><path fill="#893a52" d="M5 31h1v1h-1z" /><path fill="#656565" d="M18 31h1v1h-1zM21 41h1v1h-1z" /><path fill="#f4f4f4" d="M19 31h1v1h-1z" /><path fill="#c0c0c0" d="M29 31h1v1h-1z" /><path fill="#393939" d="M30 31h1v1h-1z" /><path fill="#c45275" d="M93 31h1v1h-1z" /><path fill="#c85378" d="M98 31h1v1h-1z" /><path fill="#f96993" d="M0 32h5v1h-5zM94 32h4v1h-4z" /><path fill="#8a3a51" d="M5 32h1v1h-1z" /><path fill="#212121" d="M19 32h1v1h-1z" /><path fill="#bfbfbf" d="M20 32h1v1h-1z" /><path fill="#bbbbbb" d="M31 32h1v1h-1z" /><path fill="#2f2f2f" d="M32 32h1v1h-1z" /><path fill="#c55374" d="M93 32h1v1h-1z" /><path fill="#c85577" d="M98 32h1v1h-1z" /><path fill="#f96a92" d="M0 33h5v1h-5zM94 33h4v1h-4z" /><path fill="#8a3b51" d="M5 33h1v1h-1z" /><path fill="#737373" d="M21 33h1v1h-1z" /><path fill="#f7f7f7" d="M22 33h1v1h-1z" /><path fill="#fcfcfc" d="M32 33h1v1h-1zM26 39h1v1h-1z" /><path fill="#636363" d="M33 33h1v1h-1z" /><path fill="#c55474" d="M93 33h1v1h-1z" /><path fill="#c85675" d="M98 33h1v1h-1z" /><path fill="#f96b91" d="M0 34h5v1h-5zM94 34h4v1h-4z" /><path fill="#8a3b50" d="M5 34h1v1h-1z" /><path fill="#292929" d="M22 34h1v1h-1z" /><path fill="#cacaca" d="M23 34h1v1h-1z" /><path fill="#cdcdcd" d="M32 34h1v1h-1z" /><path fill="#171717" d="M33 34h1v1h-1z" /><path fill="#c55573" d="M93 34h1v1h-1z" /><path fill="#c85674" d="M98 34h1v1h-1z" /><path fill="#f96d90" d="M0 35h5v1h-5zM94 35h4v1h-4z" /><path fill="#8a3c50" d="M5 35h1v1h-1z" /><path fill="#1e1e1e" d="M23 35h1v1h-1zM23 43h1v1h-1zM20 45h1v1h-1z" /><path fill="#bcbcbc" d="M31 35h1v1h-1z" /><path fill="#0e0e0e" d="M32 35h1v1h-1z" /><path fill="#c55672" d="M93 35h1v1h-1z" /><path fill="#c85874" d="M98 35h1v1h-1z" /><path fill="#f96e8f" d="M0 36h5v1h-5zM94 36h4v1h-4z" /><path fill="#8a3d4f" d="M5 36h1v1h-1z" /><path fill="#6f6f6f" d="M23 36h1v1h-1z" /><path fill="#aeaeae" d="M30 36h1v1h-1z" /><path fill="#080808" d="M31 36h1v1h-1zM55 44h1v1h-1z" /><path fill="#c55771" d="M93 36h1v1h-1z" /><path fill="#c85973" d="M98 36h1v1h-1z" /><path fill="#f96f8d" d="M0 37h5v1h-5zM94 37h4v1h-4z" /><path fill="#8a3d4e" d="M5 37h1v1h-1z" /><path fill="#d0d0d0" d="M23 37h1v1h-1z" /><path fill="#949494" d="M29 37h1v1h-1z" /><path fill="#c55870" d="M93 37h1v1h-1z" /><path fill="#c85971" d="M98 37h1v1h-1z" /><path fill="#f9708c" d="M0 38h5v1h-5zM94 38h4v1h-4z" /><path fill="#8a3e4d" d="M5 38h1v1h-1z" /><path fill="#383838" d="M22 38h1v1h-1z" /><path fill="#888888" d="M28 38h1v1h-1z" /><path fill="#c5596f" d="M93 38h1v1h-1z" /><path fill="#c85a71" d="M98 38h1v1h-1z" /><path fill="#f9728b" d="M0 39h5v1h-5zM94 39h4v1h-4z" /><path fill="#8a3f4d" d="M5 39h1v1h-1z" /><path fill="#666666" d="M27 39h1v1h-1zM40 45h14v1h-14z" /><path fill="#c55a6e" d="M93 39h1v1h-1z" /><path fill="#c85c70" d="M98 39h1v1h-1z" /><path fill="#f9738a" d="M0 40h5v1h-5zM94 40h4v1h-4z" /><path fill="#8a404c" d="M5 40h1v1h-1zM5 41h1v1h-1z" /><path fill="#0c0c0c" d="M21 40h1v1h-1zM55 43h1v1h-1z" /><path fill="#f2f2f2" d="M22 40h1v1h-1z" /><path fill="#f8f8f8" d="M25 40h1v1h-1z" /><path fill="#545454" d="M26 40h1v1h-1z" /><path fill="#c55b6d" d="M93 40h1v1h-1z" /><path fill="#c85c6f" d="M98 40h1v1h-1z" /><path fill="#f97489" d="M0 41h5v1h-5zM94 41h4v1h-4z" /><path fill="#eeeeee" d="M24 41h1v1h-1z" /><path fill="#3d3d3d" d="M25 41h1v1h-1z" /><path fill="#c55c6d" d="M93 41h1v1h-1z" /><path fill="#c85d6e" d="M98 41h1v1h-1z" /><path fill="#f97588" d="M0 42h5v1h-5zM94 42h4v1h-4z" /><path fill="#8a414b" d="M5 42h1v1h-1z" /><path fill="#c9c9c9" d="M21 42h1v1h-1z" /><path fill="#060606" d="M38 42h1v1h-1z" /><path fill="#b3b3b3" d="M39 42h1v1h-1z" /><path fill="#cccccc" d="M40 42h14v1h-14z" /><path fill="#a4a4a4" d="M54 42h1v1h-1z" /><path fill="#c55d6c" d="M93 42h1v1h-1z" /><path fill="#c85e6d" d="M98 42h1v1h-1z" /><path fill="#f97787" d="M0 43h5v1h-5zM94 43h4v1h-4z" /><path fill="#8a424b" d="M5 43h1v1h-1z" /><path fill="#2d2d2d" d="M20 43h1v1h-1z" /><path fill="#d6d6d6" d="M22 43h1v1h-1z" /><path fill="#252525" d="M38 43h1v1h-1z" /><path fill="#c55e6b" d="M93 43h1v1h-1z" /><path fill="#c8606d" d="M98 43h1v1h-1z" /><path fill="#f97885" d="M0 44h5v1h-5zM94 44h4v1h-4z" /><path fill="#8a424a" d="M5 44h1v1h-1z" /><path fill="#8b8b8b" d="M20 44h1v1h-1z" /><path fill="#c7c7c7" d="M21 44h1v1h-1z" /><path fill="#131313" d="M22 44h1v1h-1z" /><path fill="#1c1c1c" d="M38 44h1v1h-1z" /><path fill="#fafafa" d="M54 44h1v1h-1z" /><path fill="#c55f69" d="M93 44h1v1h-1z" /><path fill="#c8606b" d="M98 44h1v1h-1z" /><path fill="#f97984" d="M0 45h5v1h-5zM94 45h4v1h-4z" /><path fill="#8a4349" d="M5 45h1v1h-1z" /><path fill="#090909" d="M21 45h1v1h-1z" /><path fill="#4a4a4a" d="M39 45h1v1h-1z" /><path fill="#414141" d="M54 45h1v1h-1z" /><path fill="#c56069" d="M93 45h1v1h-1z" /><path fill="#c8616a" d="M98 45h1v1h-1z" /><path fill="#f97a83" d="M0 46h5v1h-5zM94 46h4v1h-4z" /><path fill="#8a4348" d="M5 46h1v1h-1z" /><path fill="#c56168" d="M93 46h1v1h-1z" /><path fill="#c8626a" d="M98 46h1v1h-1z" /><path fill="#f97c82" d="M0 47h5v1h-5zM94 47h4v1h-4z" /><path fill="#8a4548" d="M5 47h1v1h-1z" /><path fill="#c56267" d="M93 47h1v1h-1z" /><path fill="#c86369" d="M98 47h1v1h-1z" /><path fill="#f97d81" d="M0 48h5v1h-5zM94 48h4v1h-4z" /><path fill="#8a4547" d="M5 48h1v1h-1z" /><path fill="#c56366" d="M93 48h1v1h-1z" /><path fill="#c86468" d="M98 48h1v1h-1z" /><path fill="#f97e80" d="M0 49h5v1h-5zM94 49h4v1h-4z" /><path fill="#8a4647" d="M5 49h1v1h-1z" /><path fill="#c56465" d="M93 49h1v1h-1z" /><path fill="#c86667" d="M98 49h1v1h-1z" /><path fill="#f97f7f" d="M0 50h5v1h-5zM94 50h4v1h-4z" /><path fill="#8a4646" d="M5 50h1v1h-1z" /><path fill="#c56565" d="M93 50h1v1h-1z" /><path fill="#c86767" d="M98 50h1v1h-1z" /><path fill="#f9817d" d="M0 51h5v1h-5zM94 51h4v1h-4z" /><path fill="#8a4745" d="M5 51h1v1h-1z" /><path fill="#c56663" d="M93 51h1v1h-1z" /><path fill="#c86864" d="M98 51h1v1h-1z" /><path fill="#fa827c" d="M0 52h5v1h-5zM94 52h4v1h-4z" /><path fill="#8a4845" d="M5 52h1v1h-1z" /><path fill="#c66762" d="M93 52h1v1h-1z" /><path fill="#c96963" d="M98 52h1v1h-1z" /><path fill="#fa837b" d="M0 53h5v1h-5zM94 53h4v1h-4z" /><path fill="#8a4844" d="M5 53h1v1h-1z" /><path fill="#c66861" d="M93 53h1v1h-1z" /><path fill="#c96a63" d="M98 53h1v1h-1z" /><path fill="#fa847a" d="M0 54h5v1h-5zM94 54h4v1h-4z" /><path fill="#8a4943" d="M5 54h1v1h-1z" /><path fill="#c66961" d="M93 54h1v1h-1z" /><path fill="#c96a62" d="M98 54h1v1h-1z" /><path fill="#fa8679" d="M0 55h5v1h-5zM94 55h4v1h-4z" /><path fill="#8a4a43" d="M5 55h1v1h-1z" /><path fill="#c66a60" d="M93 55h1v1h-1z" /><path fill="#c96c61" d="M98 55h1v1h-1z" /><path fill="#fa8778" d="M0 56h5v1h-5zM94 56h4v1h-4z" /><path fill="#8a4b42" d="M5 56h1v1h-1zM5 57h1v1h-1z" /><path fill="#c66b5f" d="M93 56h1v1h-1z" /><path fill="#c96d60" d="M98 56h1v1h-1zM98 57h1v1h-1z" /><path fill="#fa8877" d="M0 57h5v1h-5zM94 57h4v1h-4z" /><path fill="#c66c5e" d="M93 57h1v1h-1z" /><path fill="#fa8975" d="M0 58h5v1h-5zM94 58h4v1h-4z" /><path fill="#8a4c41" d="M5 58h1v1h-1z" /><path fill="#c66d5d" d="M93 58h1v1h-1z" /><path fill="#c96e5e" d="M98 58h1v1h-1z" /><path fill="#fa8b74" d="M0 59h5v1h-5zM94 59h4v1h-4z" /><path fill="#8a4d40" d="M5 59h1v1h-1zM5 60h1v1h-1z" /><path fill="#c66e5c" d="M93 59h1v1h-1z" /><path fill="#c9705d" d="M98 59h1v1h-1z" /><path fill="#fa8c73" d="M0 60h5v1h-5zM94 60h4v1h-4z" /><path fill="#c66f5b" d="M93 60h1v1h-1z" /><path fill="#c9715c" d="M98 60h1v1h-1zM98 61h1v1h-1z" /><path fill="#fa8d72" d="M0 61h5v1h-5zM94 61h4v1h-4z" /><path fill="#8a4e3f" d="M5 61h1v1h-1z" /><path fill="#c6705a" d="M93 61h1v1h-1zM93 62h1v1h-1z" /><path fill="#fa8e71" d="M0 62h5v1h-5zM94 62h4v1h-4z" /><path fill="#8a4f3e" d="M5 62h1v1h-1zM5 63h1v1h-1z" /><path fill="#c9725b" d="M98 62h1v1h-1z" /><path fill="#fa8f70" d="M0 63h5v1h-5zM94 63h4v1h-4z" /><path fill="#c67159" d="M93 63h1v1h-1z" /><path fill="#c9735a" d="M98 63h1v1h-1z" /><path fill="#fa916e" d="M0 64h5v1h-5zM94 64h4v1h-4z" /><path fill="#8a503d" d="M5 64h1v1h-1z" /><path fill="#c67357" d="M93 64h1v1h-1z" /><path fill="#c97459" d="M98 64h1v1h-1z" /><path fill="#fa926d" d="M0 65h5v1h-5zM94 65h4v1h-4z" /><path fill="#8a513c" d="M5 65h1v1h-1zM5 66h1v1h-1z" /><path fill="#c67456" d="M93 65h1v1h-1zM93 66h1v1h-1z" /><path fill="#c97558" d="M98 65h1v1h-1z" /><path fill="#fa936c" d="M0 66h5v1h-5zM94 66h4v1h-4z" /><path fill="#c97757" d="M98 66h1v1h-1z" /><path fill="#f9936b" d="M0 67h1v1h-1z" /><path fill="#fa946b" d="M1 67h4v1h-4zM94 67h4v1h-4z" /><path fill="#8a523b" d="M5 67h1v1h-1z" /><path fill="#c67555" d="M93 67h1v1h-1z" /><path fill="#c97856" d="M98 67h1v1h-1z" /><path fill="#f79469" d="M0 68h1v1h-1z" /><path fill="#fa966a" d="M1 68h4v1h-4zM94 68h4v1h-4z" /><path fill="#8c543b" d="M5 68h1v1h-1z" /><path fill="#c67754" d="M93 68h1v1h-1z" /><path fill="#c97956" d="M98 68h1v1h-1z" /><path fill="#f59467" d="M0 69h1v1h-1z" /><path fill="#fa9769" d="M1 69h4v1h-4zM94 69h4v1h-4z" /><path fill="#8d553b" d="M5 69h1v1h-1z" /><path fill="#c67853" d="M93 69h1v1h-1z" /><path fill="#c97a55" d="M98 69h1v1h-1z" /><path fill="#f29365" d="M0 70h1v1h-1z" /><path fill="#fa9868" d="M1 70h4v1h-4zM94 70h4v1h-4z" /><path fill="#8f573c" d="M5 70h1v1h-1z" /><path fill="#c77953" d="M93 70h1v1h-1z" /><path fill="#c97b53" d="M98 70h1v1h-1z" /><path fill="#f09362" d="M0 71h1v1h-1z" /><path fill="#fa9966" d="M1 71h4v1h-4zM94 71h4v1h-4z" /><path fill="#91593b" d="M5 71h1v1h-1z" /><path fill="#cb7c53" d="M93 71h1v1h-1z" /><path fill="#c67951" d="M98 71h1v1h-1z" /><path fill="#ee9360" d="M0 72h1v1h-1z" /><path fill="#fb9b65" d="M1 72h4v1h-4zM94 72h4v1h-4z" /><path fill="#955c3c" d="M5 72h1v1h-1z" /><path fill="#d08054" d="M93 72h1v1h-1z" /><path fill="#c4794e" d="M98 72h1v1h-1z" /><path fill="#e9915d" d="M0 73h1v1h-1z" /><path fill="#f99b63" d="M1 73h1v1h-1z" /><path fill="#fb9c64" d="M2 73h1v1h-1zM4 73h1v1h-1zM94 73h4v1h-4z" /><path fill="#f59862" d="M3 73h1v1h-1z" /><path fill="#9b603e" d="M5 73h1v1h-1z" /><path fill="#d68555" d="M93 73h1v1h-1z" /><path fill="#c1784d" d="M98 73h1v1h-1z" /><path fill="#e08d58" d="M0 74h1v1h-1z" /><path fill="#fb9d63" d="M1 74h4v1h-4zM94 74h4v1h-4z" /><path fill="#a66842" d="M5 74h1v1h-1z" /><path fill="#e28e59" d="M93 74h1v1h-1z" /><path fill="#b97449" d="M98 74h1v1h-1z" /><path fill="#d68653" d="M0 75h1v1h-1z" /><path fill="#fb9e62" d="M1 75h4v1h-4zM94 75h4v1h-4z" /><path fill="#b47146" d="M5 75h1v1h-1z" /><path fill="#ef975d" d="M93 75h1v1h-1z" /><path fill="#b37146" d="M98 75h1v1h-1z" /><path fill="#cc824f" d="M0 76h1v1h-1z" /><path fill="#fba061" d="M1 76h4v1h-4zM94 76h4v1h-4z" /><path fill="#c87f4d" d="M5 76h1v1h-1z" /><path fill="#090603" d="M92 76h1v1h-1z" /><path fill="#fa9f61" d="M93 76h1v1h-1z" /><path fill="#ac6e41" d="M98 76h1v1h-1z" /><path fill="#b97747" d="M0 77h1v1h-1z" /><path fill="#fba160" d="M1 77h4v1h-4zM93 77h5v1h-5z" /><path fill="#e79458" d="M5 77h1v1h-1z" /><path fill="#27190f" d="M92 77h1v1h-1z" /><path fill="#9f663d" d="M98 77h1v1h-1z" /><path fill="#aa6d3f" d="M0 78h1v1h-1z" /><path fill="#fba25e" d="M1 78h5v1h-5zM94 78h4v1h-4z" /><path fill="#0d0805" d="M6 78h1v1h-1z" /><path fill="#472e1b" d="M92 78h1v1h-1z" /><path fill="#f79f5d" d="M93 78h1v1h-1z" /><path fill="#935f36" d="M98 78h1v1h-1z" /><path fill="#9b6539" d="M0 79h1v1h-1z" /><path fill="#fba35d" d="M1 79h5v1h-5zM93 79h1v1h-1z" /><path fill="#432b19" d="M6 79h1v1h-1z" /><path fill="#7e522f" d="M92 79h1v1h-1z" /><path fill="#f7a05c" d="M94 79h1v1h-1z" /><path fill="#f9a25c" d="M95 79h1v1h-1z" /><path fill="#f8a15c" d="M96 79h2v1h-2z" /><path fill="#fba55c" d="M1 80h5v1h-5zM93 80h4v1h-4z" /><path fill="#825530" d="M6 80h1v1h-1z" /><path fill="#bd7c45" d="M92 80h1v1h-1z" /><path fill="#f09e58" d="M97 80h1v1h-1z" /><path fill="#ef9e57" d="M1 81h1v1h-1z" /><path fill="#fba65b" d="M2 81h4v1h-4zM93 81h4v1h-4z" /><path fill="#d38b4c" d="M6 81h1v1h-1z" /><path fill="#010100" d="M7 81h1v1h-1zM83 89h1v1h-1z" /><path fill="#191009" d="M91 81h1v1h-1z" /><path fill="#f6a359" d="M92 81h1v1h-1z" /><path fill="#c88448" d="M97 81h1v1h-1z" /><path fill="#be7f44" d="M1 82h1v1h-1z" /><path fill="#fba75a" d="M2 82h5v1h-5zM92 82h5v1h-5z" /><path fill="#412b17" d="M7 82h1v1h-1z" /><path fill="#7c532c" d="M91 82h1v1h-1z" /><path fill="#a36d3a" d="M97 82h1v1h-1z" /><path fill="#966435" d="M1 83h1v1h-1z" /><path fill="#fba859" d="M2 83h5v1h-5zM92 83h4v1h-4z" /><path fill="#b67a41" d="M7 83h1v1h-1z" /><path fill="#0f0a05" d="M90 83h1v1h-1z" /><path fill="#e39851" d="M91 83h1v1h-1z" /><path fill="#faa759" d="M96 83h1v1h-1z" /><path fill="#e69c50" d="M2 84h1v1h-1z" /><path fill="#fbaa58" d="M3 84h5v1h-5zM91 84h5v1h-5z" /><path fill="#55391e" d="M8 84h1v1h-1z" /><path fill="#926333" d="M90 84h1v1h-1z" /><path fill="#c78745" d="M96 84h1v1h-1z" /><path fill="#a37038" d="M2 85h1v1h-1z" /><path fill="#fbab56" d="M3 85h5v1h-5zM91 85h5v1h-5z" /><path fill="#e59c4f" d="M8 85h1v1h-1z" /><path fill="#1f150b" d="M9 85h1v1h-1z" /><path fill="#493219" d="M89 85h1v1h-1z" /><path fill="#f9aa55" d="M90 85h1v1h-1z" /><path fill="#e39c4d" d="M3 86h1v1h-1z" /><path fill="#fbac55" d="M4 86h5v1h-5zM90 86h5v1h-5z" /><path fill="#d39047" d="M9 86h1v1h-1z" /><path fill="#110b06" d="M10 86h1v1h-1z" /><path fill="#2a1d0e" d="M88 86h1v1h-1z" /><path fill="#eca250" d="M89 86h1v1h-1z" /><path fill="#c78843" d="M95 86h1v1h-1z" /><path fill="#936530" d="M3 87h1v1h-1z" /><path fill="#fbad54" d="M4 87h6v1h-6zM89 87h5v1h-5z" /><path fill="#cd8d45" d="M10 87h1v1h-1z" /><path fill="#1d140a" d="M11 87h1v1h-1z" /><path fill="#3e2b15" d="M87 87h1v1h-1z" /><path fill="#e8a04e" d="M88 87h1v1h-1z" /><path fill="#f4a852" d="M94 87h1v1h-1z" /><path fill="#b9813d" d="M4 88h1v1h-1z" /><path fill="#fbaf53" d="M5 88h6v1h-6zM88 88h6v1h-6z" /><path fill="#e39f4b" d="M11 88h1v1h-1z" /><path fill="#463117" d="M12 88h1v1h-1z" /><path fill="#030201" d="M85 88h1v1h-1z" /><path fill="#6e4d24" d="M86 88h1v1h-1z" /><path fill="#f5ab51" d="M87 88h1v1h-1z" /><path fill="#a17035" d="M94 88h1v1h-1z" /><path fill="#cf9143" d="M5 89h1v1h-1z" /><path fill="#fbb052" d="M6 89h7v1h-7zM86 89h7v1h-7z" /><path fill="#aa7738" d="M13 89h1v1h-1z" /><path fill="#271c0d" d="M14 89h1v1h-1z" /><path fill="#432f16" d="M84 89h1v1h-1z" /><path fill="#cc8f43" d="M85 89h1v1h-1z" /><path fill="#bb843c" d="M93 89h1v1h-1z" /><path fill="#dc9b47" d="M6 90h1v1h-1z" /><path fill="#fbb151" d="M7 90h7v1h-7zM86 90h6v1h-6z" /><path fill="#fab051" d="M14 90h1v1h-1z" /><path fill="#bc853d" d="M15 90h1v1h-1z" /><path fill="#5f431f" d="M16 90h1v1h-1z" /><path fill="#1f160a" d="M17 90h1v1h-1z" /><path fill="#020101" d="M80 90h1v1h-1z" /><path fill="#2f210f" d="M81 90h1v1h-1z" /><path fill="#725125" d="M82 90h1v1h-1z" /><path fill="#d59645" d="M83 90h1v1h-1z" /><path fill="#f9b050" d="M84 90h1v1h-1z" /><path fill="#f7ae50" d="M85 90h1v1h-1z" /><path fill="#c58b3f" d="M92 90h1v1h-1z" /><path fill="#d59744" d="M7 91h1v1h-1z" /><path fill="#fbb250" d="M8 91h10v1h-10zM81 91h4v1h-4zM86 91h5v1h-5z" /><path fill="#df9e47" d="M18 91h1v1h-1z" /><path fill="#b9833b" d="M19 91h1v1h-1z" /><path fill="#9a6d31" d="M20 91h1v1h-1z" /><path fill="#7c5828" d="M21 91h1v1h-1z" /><path fill="#725124" d="M22 91h1v1h-1z" /><path fill="#644720" d="M23 91h1v1h-1z" /><path fill="#5a401d" d="M24 91h1v1h-1z" /><path fill="#543b1b" d="M25 91h18v1h-18zM44 91h30v1h-30z" /><path fill="#533b1a" d="M43 91h1v1h-1z" /><path fill="#5c411d" d="M74 91h1v1h-1z" /><path fill="#654820" d="M75 91h1v1h-1z" /><path fill="#755325" d="M76 91h1v1h-1z" /><path fill="#815b29" d="M77 91h1v1h-1z" /><path fill="#a07233" d="M78 91h1v1h-1z" /><path fill="#c0883d" d="M79 91h1v1h-1z" /><path fill="#eba74b" d="M80 91h1v1h-1z" /><path fill="#f6af4e" d="M85 91h1v1h-1z" /><path fill="#c1893d" d="M91 91h1v1h-1z" /><path fill="#bc863a" d="M8 92h1v1h-1z" /><path fill="#fcb44e" d="M9 92h34v1h-34zM44 92h41v1h-41zM87 92h2v1h-2z" /><path fill="#f8b14d" d="M43 92h1v1h-1z" /><path fill="#fbb34e" d="M85 92h1v1h-1zM89 92h1v1h-1z" /><path fill="#f9b24d" d="M86 92h1v1h-1z" /><path fill="#af7d35" d="M90 92h1v1h-1z" /><path fill="#9e7230" d="M9 93h1v1h-1z" /><path fill="#ecaa48" d="M10 93h1v1h-1z" /><path fill="#fcb54d" d="M11 93h32v1h-32zM44 93h42v1h-42zM87 93h1v1h-1z" /><path fill="#f8b24c" d="M43 93h1v1h-1zM86 93h1v1h-1z" /><path fill="#db9e43" d="M88 93h1v1h-1z" /><path fill="#b18035" d="M11 94h1v1h-1z" /><path fill="#f2af49" d="M12 94h1v1h-1z" /><path fill="#fcb64c" d="M13 94h30v1h-30zM44 94h42v1h-42z" /><path fill="#f8b34b" d="M43 94h1v1h-1z" /><path fill="#e4a445" d="M86 94h1v1h-1z" /><path fill="#a17530" d="M87 94h1v1h-1zM13 95h1v1h-1z" /><path fill="#d79b40" d="M14 95h1v1h-1z" /><path fill="#fcb74b" d="M15 95h28v1h-28zM44 95h39v1h-39z" /><path fill="#f8b44a" d="M43 95h1v1h-1z" /><path fill="#f9b54a" d="M83 95h1v1h-1z" /><path fill="#c8913b" d="M84 95h1v1h-1z" /><path fill="#976d2d" d="M85 95h1v1h-1z" /><path fill="#996f2c" d="M16 96h1v1h-1z" /><path fill="#b28334" d="M17 96h1v1h-1z" /><path fill="#c9943a" d="M18 96h1v1h-1z" /><path fill="#dea341" d="M19 96h1v1h-1z" /><path fill="#f7b549" d="M20 96h1v1h-1z" /><path fill="#fcb94a" d="M21 96h22v1h-22zM44 96h34v1h-34z" /><path fill="#f8b649" d="M43 96h1v1h-1z" /><path fill="#f3b247" d="M78 96h1v1h-1z" /><path fill="#d89f3f" d="M79 96h1v1h-1z" /><path fill="#c49039" d="M80 96h1v1h-1z" /><path fill="#ac7f32" d="M81 96h1v1h-1z" /></svg>