<svg xmlns="http://www.w3.org/2000/svg" viewBox="0 0 100 100" width="1em" height="1em"><path fill="#2da6df" d="M59 0h1v1h-1zM59 1h1v1h-1zM59 2h1v1h-1zM59 3h1v1h-1zM59 4h1v1h-1zM59 5h1v1h-1zM59 6h1v1h-1zM59 7h1v1h-1zM59 8h1v1h-1zM59 9h1v1h-1zM59 10h1v1h-1zM59 11h1v1h-1zM59 12h1v1h-1zM59 13h1v1h-1zM59 14h1v1h-1zM59 15h1v1h-1zM59 16h1v1h-1zM60 17h16v1h-16z" /><path fill="#2ea7e0" d="M60 0h16v1h-16zM60 1h16v1h-16zM60 2h16v1h-16zM60 3h16v1h-16zM60 4h16v1h-16zM60 5h16v1h-16zM60 6h16v1h-16zM60 7h16v1h-16zM60 8h16v1h-16zM60 9h16v1h-16zM60 10h16v1h-16zM60 11h16v1h-16zM60 12h16v1h-16zM60 13h16v1h-16zM60 14h16v1h-16zM60 15h16v1h-16zM60 16h16v1h-16z" /><path fill="#2da7e0" d="M76 0h1v1h-1zM76 1h1v1h-1zM76 2h1v1h-1zM76 3h1v1h-1zM76 4h1v1h-1zM76 5h1v1h-1zM76 6h1v1h-1zM76 7h1v1h-1zM76 8h1v1h-1zM76 9h1v1h-1zM76 10h1v1h-1zM76 11h1v1h-1zM76 12h1v1h-1zM76 13h1v1h-1zM76 14h1v1h-1zM76 15h1v1h-1zM76 16h1v1h-1z" /><path fill="#30a0dd" d="M59 17h1v1h-1z" /><path fill="#7f1084" d="M21 18h38v1h-38zM21 19h38v1h-38zM21 20h38v1h-38zM21 21h38v1h-38zM21 22h38v1h-38zM21 23h38v1h-38zM21 24h38v1h-38zM21 25h38v1h-38zM21 26h38v1h-38zM21 27h38v1h-38zM21 28h38v1h-38zM21 29h38v1h-38zM21 30h38v1h-38zM21 31h38v1h-38zM21 32h38v1h-38zM21 33h38v1h-38zM21 34h17v1h-17zM39 34h20v1h-20zM39 35h20v1h-20zM39 36h20v1h-20zM39 37h20v1h-20zM39 38h20v1h-20zM39 39h20v1h-20zM39 40h20v1h-20zM39 41h20v1h-20zM39 42h20v1h-20zM39 43h20v1h-20zM39 44h20v1h-20zM39 45h20v1h-20zM39 46h20v1h-20zM39 47h20v1h-20zM39 48h20v1h-20zM39 49h20v1h-20zM39 50h20v1h-20zM39 51h20v1h-20zM39 52h20v1h-20zM39 53h20v1h-20zM39 54h20v1h-20zM39 55h20v1h-20zM39 56h20v1h-20zM39 57h20v1h-20zM39 58h20v1h-20zM39 59h20v1h-20zM39 60h20v1h-20zM39 61h20v1h-20zM39 62h20v1h-20zM39 63h20v1h-20zM39 64h20v1h-20zM39 65h20v1h-20zM39 66h20v1h-20zM39 67h20v1h-20zM39 68h20v1h-20zM39 69h20v1h-20zM39 70h20v1h-20zM39 71h20v1h-20zM39 72h20v1h-20zM39 73h20v1h-20zM39 74h20v1h-20zM39 75h20v1h-20zM39 76h20v1h-20zM39 77h20v1h-20zM39 78h20v1h-20zM39 79h20v1h-20zM39 80h20v1h-20zM39 81h20v1h-20zM39 82h20v1h-20zM21 83h55v1h-55zM21 84h55v1h-55zM21 85h55v1h-55zM21 86h55v1h-55zM21 87h55v1h-55zM21 88h55v1h-55zM21 89h55v1h-55zM21 90h55v1h-55zM21 91h55v1h-55zM21 92h55v1h-55zM21 93h55v1h-55zM21 94h55v1h-55zM21 95h55v1h-55zM21 96h55v1h-55zM21 97h55v1h-55zM21 98h55v1h-55zM21 99h55v1h-55z" /><path fill="#7f1083" d="M38 34h1v1h-1z" /><path fill="#7e1083" d="M38 35h1v1h-1zM38 36h1v1h-1zM38 37h1v1h-1zM38 38h1v1h-1zM38 39h1v1h-1zM38 40h1v1h-1zM38 41h1v1h-1zM38 42h1v1h-1zM38 43h1v1h-1zM38 44h1v1h-1zM38 45h1v1h-1zM38 46h1v1h-1zM38 47h1v1h-1zM38 48h1v1h-1zM38 49h1v1h-1zM38 50h1v1h-1zM38 51h1v1h-1zM38 52h1v1h-1zM38 53h1v1h-1zM38 54h1v1h-1zM38 55h1v1h-1zM38 56h1v1h-1zM38 57h1v1h-1zM38 58h1v1h-1zM38 59h1v1h-1zM38 60h1v1h-1zM38 61h1v1h-1zM38 62h1v1h-1zM38 63h1v1h-1zM38 64h1v1h-1zM38 65h1v1h-1zM38 66h1v1h-1zM38 67h1v1h-1zM38 68h1v1h-1zM38 69h1v1h-1zM38 70h1v1h-1zM38 71h1v1h-1zM38 72h1v1h-1zM38 73h1v1h-1zM38 74h1v1h-1zM38 75h1v1h-1zM38 76h1v1h-1zM38 77h1v1h-1zM38 78h1v1h-1zM38 79h1v1h-1zM38 80h1v1h-1zM38 81h1v1h-1zM38 82h1v1h-1z" /><path fill="#7e0f84" d="M76 83h1v1h-1zM76 84h1v1h-1zM76 85h1v1h-1zM76 86h1v1h-1zM76 87h1v1h-1zM76 88h1v1h-1zM76 89h1v1h-1zM76 90h1v1h-1zM76 91h1v1h-1zM76 92h1v1h-1zM76 93h1v1h-1zM76 94h1v1h-1zM76 95h1v1h-1zM76 96h1v1h-1zM76 97h1v1h-1zM76 98h1v1h-1zM76 99h1v1h-1z" /></svg>