<svg xmlns="http://www.w3.org/2000/svg" viewBox="0 0 100 100" width="1em" height="1em"><path fill="#3f00bf" d="M43 0h1v1h-1zM47 0h1v1h-1zM49 0h2v1h-2zM52 0h1v1h-1zM56 0h1v1h-1zM38 1h1v1h-1zM64 2h2v1h-2zM67 3h1v1h-1zM29 4h2v1h-2zM69 4h2v1h-2zM27 5h1v1h-1zM71 5h1v1h-1zM25 6h1v1h-1zM74 6h1v1h-1zM75 7h1v1h-1zM77 8h1v1h-1zM78 9h1v1h-1zM19 10h1v1h-1zM81 11h1v1h-1zM17 12h1v1h-1zM82 12h1v1h-1zM16 13h1v1h-1zM83 13h1v1h-1zM15 14h1v1h-1zM84 14h1v1h-1zM14 15h1v1h-1zM85 15h1v1h-1zM87 17h1v1h-1zM88 18h1v1h-1zM89 19h1v1h-1zM90 21h1v1h-1zM92 24h1v1h-1zM6 26h1v1h-1zM5 27h1v1h-1zM94 28h1v1h-1zM4 29h1v1h-1zM95 29h1v1h-1zM96 32h1v1h-1zM98 38h1v1h-1zM1 39h1v1h-1zM0 43h1v1h-1zM99 44h1v1h-1zM99 45h1v1h-1zM99 46h1v1h-1zM0 47h1v1h-1zM0 48h1v1h-1zM0 49h1v1h-1zM99 49h1v1h-1zM0 50h1v1h-1zM99 50h1v1h-1zM0 51h1v1h-1zM0 52h1v1h-1zM99 53h1v1h-1zM99 54h1v1h-1zM99 55h1v1h-1zM0 56h1v1h-1zM99 56h1v1h-1zM1 60h1v1h-1zM2 64h1v1h-1zM97 64h1v1h-1zM97 65h1v1h-1zM95 69h1v1h-1zM5 71h1v1h-1zM94 71h1v1h-1zM7 75h1v1h-1zM8 77h1v1h-1zM91 77h1v1h-1zM90 78h1v1h-1zM11 81h1v1h-1zM88 81h1v1h-1zM12 82h1v1h-1zM87 82h1v1h-1zM14 84h1v1h-1zM85 84h1v1h-1zM15 85h1v1h-1zM84 85h1v1h-1zM16 86h1v1h-1zM18 88h1v1h-1zM81 88h1v1h-1zM21 90h1v1h-1zM78 90h1v1h-1zM77 91h1v1h-1zM24 92h1v1h-1zM74 93h1v1h-1zM28 94h1v1h-1zM71 94h2v1h-2zM29 95h2v1h-2zM69 95h2v1h-2zM32 96h1v1h-1zM64 97h2v1h-2zM38 98h2v1h-2zM44 99h12v1h-12z" /><path fill="#4000be" d="M44 0h3v1h-3zM48 0h1v1h-1zM51 0h1v1h-1zM53 0h3v1h-3zM39 1h1v1h-1zM60 1h2v1h-2zM34 2h2v1h-2zM32 3h1v1h-1zM28 5h1v1h-1zM72 5h1v1h-1zM26 6h1v1h-1zM73 6h1v1h-1zM24 7h1v1h-1zM22 8h1v1h-1zM21 9h1v1h-1zM20 10h1v1h-1zM79 10h2v1h-2zM18 11h1v1h-1zM13 16h1v1h-1zM86 16h1v1h-1zM12 17h1v1h-1zM11 18h1v1h-1zM10 19h1v1h-1zM10 20h1v1h-1zM89 20h1v1h-1zM9 21h1v1h-1zM8 22h1v1h-1zM91 22h1v1h-1zM7 24h1v1h-1zM6 25h1v1h-1zM93 25h1v1h-1zM93 26h1v1h-1zM94 27h1v1h-1zM5 28h1v1h-1zM4 30h1v1h-1zM95 30h1v1h-1zM3 32h1v1h-1zM2 34h1v1h-1zM97 34h1v1h-1zM2 35h1v1h-1zM97 35h1v1h-1zM97 36h1v1h-1zM1 38h1v1h-1zM98 39h1v1h-1zM99 43h1v1h-1zM0 44h1v1h-1zM0 45h1v1h-1zM0 46h1v1h-1zM99 47h1v1h-1zM99 48h1v1h-1zM99 51h1v1h-1zM99 52h1v1h-1zM0 53h1v1h-1zM0 54h1v1h-1zM0 55h1v1h-1zM98 60h1v1h-1zM1 61h1v1h-1zM98 61h1v1h-1zM97 63h1v1h-1zM2 65h1v1h-1zM3 67h1v1h-1zM96 67h1v1h-1zM4 69h1v1h-1zM4 70h1v1h-1zM95 70h1v1h-1zM5 72h1v1h-1zM94 72h1v1h-1zM6 73h1v1h-1zM93 73h1v1h-1zM6 74h1v1h-1zM93 74h1v1h-1zM92 75h1v1h-1zM9 78h1v1h-1zM10 79h1v1h-1zM89 79h1v1h-1zM10 80h1v1h-1zM89 80h1v1h-1zM13 83h1v1h-1zM86 83h1v1h-1zM83 86h1v1h-1zM17 87h1v1h-1zM82 87h1v1h-1zM19 89h2v1h-2zM79 89h2v1h-2zM22 91h1v1h-1zM75 92h1v1h-1zM25 93h2v1h-2zM73 93h1v1h-1zM27 94h1v1h-1zM67 96h1v1h-1zM34 97h2v1h-2zM60 98h2v1h-2zM43 99h1v1h-1zM56 99h1v1h-1z" /><path fill="#4000bf" d="M40 1h20v1h-20zM36 2h28v1h-28zM33 3h34v1h-34zM31 4h38v1h-38zM29 5h12v1h-12zM59 5h12v1h-12zM27 6h10v1h-10zM63 6h10v1h-10zM25 7h9v1h-9zM66 7h9v1h-9zM23 8h8v1h-8zM69 8h8v1h-8zM22 9h7v1h-7zM71 9h7v1h-7zM21 10h6v1h-6zM73 10h6v1h-6zM19 11h7v1h-7zM74 11h7v1h-7zM18 12h6v1h-6zM76 12h6v1h-6zM17 13h6v1h-6zM77 13h6v1h-6zM16 14h5v1h-5zM79 14h5v1h-5zM15 15h5v1h-5zM80 15h5v1h-5zM14 16h5v1h-5zM81 16h5v1h-5zM13 17h5v1h-5zM82 17h5v1h-5zM12 18h5v1h-5zM83 18h5v1h-5zM11 19h5v1h-5zM84 19h5v1h-5zM11 20h4v1h-4zM85 20h4v1h-4zM10 21h4v1h-4zM86 21h4v1h-4zM9 22h5v1h-5zM86 22h5v1h-5zM8 23h5v1h-5zM87 23h5v1h-5zM8 24h4v1h-4zM88 24h4v1h-4zM7 25h5v1h-5zM88 25h5v1h-5zM7 26h4v1h-4zM89 26h4v1h-4zM6 27h4v1h-4zM90 27h4v1h-4zM6 28h4v1h-4zM90 28h4v1h-4zM5 29h4v1h-4zM91 29h4v1h-4zM5 30h4v1h-4zM91 30h4v1h-4zM4 31h4v1h-4zM92 31h4v1h-4zM4 32h4v1h-4zM92 32h4v1h-4zM3 33h5v1h-5zM92 33h5v1h-5zM3 34h4v1h-4zM93 34h4v1h-4zM3 35h4v1h-4zM93 35h4v1h-4zM2 36h5v1h-5zM93 36h4v1h-4zM2 37h4v1h-4zM94 37h4v1h-4zM2 38h4v1h-4zM94 38h4v1h-4zM2 39h4v1h-4zM94 39h4v1h-4zM1 40h5v1h-5zM94 40h5v1h-5zM1 41h4v1h-4zM95 41h4v1h-4zM1 42h4v1h-4zM95 42h4v1h-4zM1 43h4v1h-4zM95 43h4v1h-4zM1 44h4v1h-4zM95 44h4v1h-4zM1 45h4v1h-4zM95 45h4v1h-4zM1 46h4v1h-4zM95 46h4v1h-4zM1 47h4v1h-4zM95 47h4v1h-4zM1 48h4v1h-4zM95 48h4v1h-4zM1 49h4v1h-4zM95 49h4v1h-4zM1 50h4v1h-4zM95 50h4v1h-4zM1 51h4v1h-4zM95 51h4v1h-4zM1 52h4v1h-4zM95 52h4v1h-4zM1 53h4v1h-4zM95 53h4v1h-4zM1 54h4v1h-4zM95 54h4v1h-4zM1 55h4v1h-4zM95 55h4v1h-4zM1 56h4v1h-4zM95 56h4v1h-4zM1 57h4v1h-4zM95 57h4v1h-4zM1 58h4v1h-4zM95 58h4v1h-4zM1 59h5v1h-5zM94 59h5v1h-5zM2 60h4v1h-4zM94 60h4v1h-4zM2 61h4v1h-4zM94 61h4v1h-4zM2 62h4v1h-4zM94 62h4v1h-4zM2 63h5v1h-5zM93 63h4v1h-4zM3 64h4v1h-4zM93 64h4v1h-4zM3 65h4v1h-4zM93 65h4v1h-4zM3 66h5v1h-5zM92 66h5v1h-5zM4 67h4v1h-4zM92 67h4v1h-4zM4 68h4v1h-4zM92 68h4v1h-4zM5 69h4v1h-4zM91 69h4v1h-4zM5 70h4v1h-4zM91 70h4v1h-4zM6 71h4v1h-4zM90 71h4v1h-4zM6 72h4v1h-4zM90 72h4v1h-4zM7 73h4v1h-4zM89 73h4v1h-4zM7 74h5v1h-5zM88 74h5v1h-5zM8 75h4v1h-4zM88 75h4v1h-4zM8 76h5v1h-5zM87 76h5v1h-5zM9 77h5v1h-5zM86 77h5v1h-5zM10 78h4v1h-4zM86 78h4v1h-4zM11 79h4v1h-4zM85 79h4v1h-4zM11 80h5v1h-5zM84 80h5v1h-5zM12 81h5v1h-5zM83 81h5v1h-5zM13 82h5v1h-5zM82 82h5v1h-5zM14 83h5v1h-5zM81 83h5v1h-5zM15 84h5v1h-5zM80 84h5v1h-5zM16 85h5v1h-5zM79 85h5v1h-5zM17 86h6v1h-6zM77 86h6v1h-6zM18 87h6v1h-6zM76 87h6v1h-6zM19 88h7v1h-7zM74 88h7v1h-7zM21 89h6v1h-6zM73 89h6v1h-6zM22 90h7v1h-7zM71 90h7v1h-7zM23 91h8v1h-8zM69 91h8v1h-8zM25 92h9v1h-9zM66 92h9v1h-9zM27 93h10v1h-10zM63 93h10v1h-10zM29 94h12v1h-12zM59 94h12v1h-12zM31 95h38v1h-38zM33 96h34v1h-34zM36 97h28v1h-28zM40 98h20v1h-20z" /><path fill="#5016c5" d="M41 5h1v1h-1zM58 5h1v1h-1zM5 58h1v1h-1z" /><path fill="#6e3ecf" d="M42 5h1v1h-1zM57 5h1v1h-1zM5 42h1v1h-1z" /><path fill="#8c65d8" d="M43 5h1v1h-1zM5 43h1v1h-1z" /><path fill="#a88be2" d="M44 5h1v1h-1zM53 14h1v1h-1zM5 44h1v1h-1zM5 55h1v1h-1z" /><path fill="#c2adea" d="M45 5h1v1h-1zM54 5h1v1h-1zM5 45h1v1h-1zM5 54h1v1h-1z" /><path fill="#ccbbee" d="M46 5h1v1h-1zM53 5h1v1h-1zM46 94h1v1h-1zM53 94h1v1h-1z" /><path fill="#d8cbf2" d="M47 5h1v1h-1zM52 5h1v1h-1z" /><path fill="#e0d6f5" d="M48 5h1v1h-1zM51 5h1v1h-1zM80 17h1v1h-1zM17 19h1v1h-1zM7 36h1v1h-1z" /><path fill="#e9e2f8" d="M49 5h2v1h-2zM75 13h1v1h-1zM13 24h1v1h-1zM93 40h1v1h-1zM94 49h1v1h-1zM94 50h1v1h-1zM6 59h1v1h-1zM75 86h1v1h-1zM40 93h1v1h-1zM49 94h2v1h-2z" /><path fill="#a78ae2" d="M55 5h1v1h-1z" /><path fill="#8b64d8" d="M56 5h1v1h-1zM5 56h1v1h-1z" /><path fill="#5319c5" d="M37 6h1v1h-1zM18 82h1v1h-1z" /><path fill="#8055d4" d="M38 6h1v1h-1z" /><path fill="#b399e5" d="M39 6h1v1h-1z" /><path fill="#e8e0f7" d="M40 6h1v1h-1zM68 9h1v1h-1zM81 18h1v1h-1zM18 81h1v1h-1zM81 81h1v1h-1zM68 90h1v1h-1z" /><path fill="#ffffff" d="M41 6h18v1h-18zM37 7h26v1h-26zM35 8h30v1h-30zM32 9h36v1h-36zM30 10h40v1h-40zM28 11h44v1h-44zM27 12h46v1h-46zM25 13h50v1h-50zM24 14h20v1h-20zM57 14h19v1h-19zM22 15h18v1h-18zM61 15h17v1h-17zM21 16h16v1h-16zM64 16h15v1h-15zM20 17h17v1h-17zM66 17h14v1h-14zM19 18h19v1h-19zM68 18h13v1h-13zM18 19h21v1h-21zM70 19h12v1h-12zM17 20h22v1h-22zM72 20h11v1h-11zM16 21h24v1h-24zM73 21h11v1h-11zM15 22h26v1h-26zM74 22h11v1h-11zM15 23h26v1h-26zM75 23h10v1h-10zM14 24h27v1h-27zM76 24h10v1h-10zM13 25h29v1h-29zM77 25h10v1h-10zM13 26h29v1h-29zM78 26h9v1h-9zM12 27h30v1h-30zM79 27h9v1h-9zM11 28h31v1h-31zM80 28h9v1h-9zM11 29h31v1h-31zM80 29h9v1h-9zM10 30h32v1h-32zM81 30h9v1h-9zM10 31h32v1h-32zM82 31h8v1h-8zM9 32h32v1h-32zM82 32h9v1h-9zM9 33h32v1h-32zM83 33h8v1h-8zM9 34h31v1h-31zM83 34h8v1h-8zM8 35h32v1h-32zM84 35h8v1h-8zM8 36h9v1h-9zM19 36h20v1h-20zM84 36h8v1h-8zM7 37h10v1h-10zM19 37h19v1h-19zM84 37h9v1h-9zM7 38h9v1h-9zM21 38h16v1h-16zM85 38h8v1h-8zM7 39h9v1h-9zM22 39h14v1h-14zM85 39h8v1h-8zM7 40h9v1h-9zM24 40h10v1h-10zM85 40h8v1h-8zM6 41h9v1h-9zM27 41h3v1h-3zM86 41h8v1h-8zM6 42h9v1h-9zM86 42h8v1h-8zM6 43h9v1h-9zM86 43h8v1h-8zM6 44h9v1h-9zM86 44h8v1h-8zM6 45h9v1h-9zM86 45h8v1h-8zM6 46h9v1h-9zM86 46h8v1h-8zM6 47h9v1h-9zM87 47h7v1h-7zM6 48h9v1h-9zM87 48h7v1h-7zM6 49h8v1h-8zM87 49h7v1h-7zM6 50h8v1h-8zM87 50h7v1h-7zM6 51h9v1h-9zM87 51h7v1h-7zM6 52h9v1h-9zM87 52h7v1h-7zM6 53h9v1h-9zM86 53h8v1h-8zM6 54h9v1h-9zM86 54h8v1h-8zM6 55h9v1h-9zM86 55h8v1h-8zM6 56h9v1h-9zM86 56h8v1h-8zM6 57h9v1h-9zM86 57h8v1h-8zM6 58h9v1h-9zM86 58h8v1h-8zM7 59h9v1h-9zM85 59h8v1h-8zM7 60h9v1h-9zM85 60h8v1h-8zM7 61h9v1h-9zM85 61h8v1h-8zM7 62h10v1h-10zM85 62h8v1h-8zM8 63h9v1h-9zM84 63h8v1h-8zM8 64h9v1h-9zM84 64h8v1h-8zM9 65h9v1h-9zM83 65h8v1h-8zM9 66h9v1h-9zM83 66h8v1h-8zM9 67h10v1h-10zM82 67h9v1h-9zM10 68h9v1h-9zM82 68h8v1h-8zM10 69h10v1h-10zM81 69h9v1h-9zM11 70h10v1h-10zM80 70h9v1h-9zM11 71h10v1h-10zM80 71h9v1h-9zM12 72h10v1h-10zM79 72h9v1h-9zM13 73h10v1h-10zM78 73h9v1h-9zM13 74h11v1h-11zM77 74h10v1h-10zM14 75h11v1h-11zM76 75h10v1h-10zM15 76h11v1h-11zM75 76h10v1h-10zM15 77h12v1h-12zM74 77h11v1h-11zM16 78h12v1h-12zM73 78h11v1h-11zM17 79h13v1h-13zM72 79h11v1h-11zM18 80h13v1h-13zM70 80h12v1h-12zM19 81h14v1h-14zM68 81h13v1h-13zM20 82h15v1h-15zM66 82h14v1h-14zM21 83h16v1h-16zM64 83h15v1h-15zM22 84h18v1h-18zM61 84h17v1h-17zM24 85h20v1h-20zM57 85h19v1h-19zM25 86h50v1h-50zM27 87h46v1h-46zM28 88h44v1h-44zM30 89h40v1h-40zM32 90h36v1h-36zM35 91h30v1h-30zM37 92h26v1h-26zM41 93h18v1h-18z" /><path fill="#ede7f9" d="M59 6h1v1h-1zM29 10h1v1h-1zM89 29h1v1h-1z" /><path fill="#bfaaea" d="M60 6h1v1h-1zM45 94h1v1h-1zM54 94h1v1h-1z" /><path fill="#8c66d9" d="M61 6h1v1h-1zM50 14h1v1h-1z" /><path fill="#5820c7" d="M62 6h1v1h-1z" /><path fill="#571fc7" d="M34 7h1v1h-1zM7 34h1v1h-1z" /><path fill="#9c7bde" d="M35 7h1v1h-1zM7 35h1v1h-1z" /><path fill="#e1d7f5" d="M36 7h1v1h-1zM5 48h1v1h-1zM5 51h1v1h-1z" /><path fill="#e0d5f4" d="M63 7h1v1h-1zM82 19h1v1h-1zM92 36h1v1h-1zM94 48h1v1h-1zM94 51h1v1h-1zM7 63h1v1h-1zM80 82h1v1h-1zM36 92h1v1h-1zM48 94h1v1h-1zM51 94h1v1h-1z" /><path fill="#9b7ade" d="M64 7h1v1h-1z" /><path fill="#561ec7" d="M65 7h1v1h-1zM6 37h1v1h-1zM93 37h1v1h-1zM7 65h1v1h-1zM34 92h1v1h-1z" /><path fill="#4405c0" d="M31 8h1v1h-1zM68 8h1v1h-1zM89 27h1v1h-1zM8 31h1v1h-1zM8 68h1v1h-1zM91 68h1v1h-1zM31 91h1v1h-1z" /><path fill="#865dd6" d="M32 8h1v1h-1zM30 9h1v1h-1zM91 32h1v1h-1zM93 61h1v1h-1zM30 90h1v1h-1z" /><path fill="#cfbfef" d="M33 8h1v1h-1zM8 33h1v1h-1z" /><path fill="#fdfdfe" d="M34 8h1v1h-1zM65 8h1v1h-1zM8 34h1v1h-1zM91 34h1v1h-1zM8 65h1v1h-1zM91 65h1v1h-1zM87 73h1v1h-1zM73 87h1v1h-1zM34 91h1v1h-1zM65 91h1v1h-1z" /><path fill="#cebeef" d="M66 8h1v1h-1zM8 66h1v1h-1zM33 91h1v1h-1z" /><path fill="#855cd6" d="M67 8h1v1h-1zM8 67h1v1h-1zM32 91h1v1h-1z" /><path fill="#4406c1" d="M29 9h1v1h-1zM91 31h1v1h-1zM29 90h1v1h-1z" /><path fill="#e4dbf6" d="M31 9h1v1h-1z" /><path fill="#926edb" d="M69 9h1v1h-1zM69 90h1v1h-1z" /><path fill="#4709c1" d="M70 9h1v1h-1zM90 29h1v1h-1zM15 79h1v1h-1zM79 84h1v1h-1zM70 90h1v1h-1z" /><path fill="#4304c0" d="M27 10h1v1h-1zM72 10h1v1h-1zM10 27h1v1h-1zM89 72h1v1h-1zM27 89h1v1h-1zM68 91h1v1h-1z" /><path fill="#936fdb" d="M28 10h1v1h-1zM10 28h1v1h-1z" /><path fill="#ece5f8" d="M70 10h1v1h-1zM10 29h1v1h-1zM10 70h1v1h-1z" /><path fill="#916cda" d="M71 10h1v1h-1zM10 71h1v1h-1z" /><path fill="#6d3cce" d="M26 11h1v1h-1zM11 26h1v1h-1zM94 42h1v1h-1zM42 94h1v1h-1zM57 94h1v1h-1z" /><path fill="#ddd2f4" d="M27 11h1v1h-1zM19 17h1v1h-1zM88 27h1v1h-1zM88 72h1v1h-1z" /><path fill="#dbcff3" d="M72 11h1v1h-1zM11 72h1v1h-1z" /><path fill="#6b3ace" d="M73 11h1v1h-1zM88 26h1v1h-1zM11 73h1v1h-1zM86 76h1v1h-1zM76 86h1v1h-1zM26 88h1v1h-1z" /><path fill="#4e13c4" d="M24 12h1v1h-1zM16 19h1v1h-1zM12 24h1v1h-1z" /><path fill="#b79fe7" d="M25 12h1v1h-1zM12 25h1v1h-1zM93 60h1v1h-1z" /><path fill="#fefeff" d="M26 12h1v1h-1zM73 12h1v1h-1zM41 24h1v1h-1zM12 26h1v1h-1zM87 26h1v1h-1zM20 38h1v1h-1zM84 62h1v1h-1zM12 73h1v1h-1zM26 87h1v1h-1z" /><path fill="#b69de6" d="M74 12h1v1h-1zM12 74h1v1h-1zM25 87h1v1h-1z" /><path fill="#4d12c4" d="M75 12h1v1h-1zM83 19h1v1h-1zM87 24h1v1h-1zM12 75h1v1h-1zM83 80h1v1h-1zM24 87h1v1h-1z" /><path fill="#6836cd" d="M23 13h1v1h-1zM13 76h1v1h-1z" /><path fill="#e6def7" d="M24 13h1v1h-1zM9 68h1v1h-1zM24 86h1v1h-1z" /><path fill="#6c3bce" d="M76 13h1v1h-1zM86 23h1v1h-1zM94 57h1v1h-1z" /><path fill="#4101bf" d="M21 14h1v1h-1zM78 14h1v1h-1zM85 21h1v1h-1zM14 78h1v1h-1zM85 78h1v1h-1zM21 85h1v1h-1zM78 85h1v1h-1z" /><path fill="#9a78dd" d="M22 14h1v1h-1zM14 22h1v1h-1zM92 64h1v1h-1zM64 92h1v1h-1z" /><path fill="#fcfbfe" d="M23 14h1v1h-1zM85 23h1v1h-1zM15 41h1v1h-1z" /><path fill="#f6f3fc" d="M44 14h1v1h-1z" /><path fill="#dacdf2" d="M45 14h1v1h-1z" /><path fill="#bda7e9" d="M46 14h1v1h-1z" /><path fill="#a98ce2" d="M47 14h1v1h-1z" /><path fill="#a182e0" d="M48 14h1v1h-1z" /><path fill="#9977dd" d="M49 14h1v1h-1z" /><path fill="#9875dc" d="M51 14h1v1h-1zM77 14h1v1h-1zM85 22h1v1h-1zM14 77h1v1h-1zM22 85h1v1h-1z" /><path fill="#a080df" d="M52 14h1v1h-1z" /><path fill="#b9a2e8" d="M54 14h1v1h-1zM6 39h1v1h-1z" /><path fill="#d6c8f1" d="M55 14h1v1h-1zM94 47h1v1h-1zM94 52h1v1h-1zM83 79h1v1h-1zM79 83h1v1h-1z" /><path fill="#f3effb" d="M56 14h1v1h-1z" /><path fill="#fbfafe" d="M76 14h1v1h-1zM14 23h1v1h-1zM85 76h1v1h-1zM23 85h1v1h-1zM76 85h1v1h-1z" /><path fill="#480bc2" d="M20 15h1v1h-1zM84 20h1v1h-1zM84 79h1v1h-1z" /><path fill="#c6b3ec" d="M21 15h1v1h-1zM15 21h1v1h-1z" /><path fill="#e5dcf6" d="M40 15h1v1h-1zM69 19h1v1h-1z" /><path fill="#b59ce7" d="M41 15h1v1h-1z" /><path fill="#865cd7" d="M42 15h1v1h-1z" /><path fill="#581fc8" d="M43 15h1v1h-1z" /><path fill="#4100c0" d="M44 15h13v1h-13z" /><path fill="#5318c6" d="M57 15h1v1h-1z" /><path fill="#7e52d4" d="M58 15h1v1h-1z" /><path fill="#af93e4" d="M59 15h1v1h-1z" /><path fill="#e0d5f5" d="M60 15h1v1h-1z" /><path fill="#c4b0eb" d="M78 15h1v1h-1zM84 21h1v1h-1zM15 78h1v1h-1zM21 84h1v1h-1z" /><path fill="#470ac2" d="M79 15h1v1h-1zM15 20h1v1h-1zM20 84h1v1h-1z" /><path fill="#4d11c3" d="M19 16h1v1h-1zM87 75h1v1h-1zM19 83h1v1h-1zM75 87h1v1h-1z" /><path fill="#d3c4f0" d="M20 16h1v1h-1zM16 20h1v1h-1z" /><path fill="#ece5f9" d="M37 16h1v1h-1z" /><path fill="#ad90e4" d="M38 16h1v1h-1z" /><path fill="#6e3bcf" d="M39 16h1v1h-1z" /><path fill="#4200c0" d="M40 16h21v1h-21zM39 17h24v1h-24z" /><path fill="#571dc7" d="M61 16h1v1h-1z" /><path fill="#9a77dd" d="M62 16h1v1h-1z" /><path fill="#e4daf6" d="M63 16h1v1h-1z" /><path fill="#d7c9f1" d="M79 16h1v1h-1zM83 20h1v1h-1zM47 94h1v1h-1zM52 94h1v1h-1z" /><path fill="#4f14c4" d="M80 16h1v1h-1zM94 58h1v1h-1zM80 83h1v1h-1z" /><path fill="#531ac6" d="M18 17h1v1h-1z" /><path fill="#a282e0" d="M37 17h1v1h-1z" /><path fill="#4301c0" d="M38 17h1v1h-1zM63 17h1v1h-1z" /><path fill="#7140d0" d="M64 17h1v1h-1z" /><path fill="#cab8ed" d="M65 17h1v1h-1z" /><path fill="#561dc6" d="M81 17h1v1h-1zM17 18h1v1h-1zM92 34h1v1h-1zM6 62h1v1h-1zM92 65h1v1h-1zM81 82h1v1h-1zM65 92h1v1h-1zM37 93h1v1h-1z" /><path fill="#e9e1f7" d="M18 18h1v1h-1zM86 24h1v1h-1zM90 31h1v1h-1zM93 59h1v1h-1zM90 68h1v1h-1zM13 75h1v1h-1zM59 93h1v1h-1z" /><path fill="#b59ae6" d="M38 18h1v1h-1z" /><path fill="#4401c1" d="M39 18h1v1h-1z" /><path fill="#4300c1" d="M40 18h26v1h-26z" /><path fill="#6934ce" d="M66 18h1v1h-1z" /><path fill="#c7b3ed" d="M67 18h1v1h-1z" /><path fill="#551cc6" d="M82 18h1v1h-1zM93 62h1v1h-1zM17 81h1v1h-1zM82 81h1v1h-1zM62 93h1v1h-1z" /><path fill="#a483e1" d="M39 19h1v1h-1z" /><path fill="#4400c1" d="M40 19h28v1h-28z" /><path fill="#7a4ad3" d="M68 19h1v1h-1z" /><path fill="#fefdff" d="M39 20h1v1h-1zM71 20h1v1h-1zM18 36h1v1h-1zM14 49h1v1h-1zM14 50h1v1h-1zM19 68h1v1h-1zM21 71h1v1h-1zM71 79h1v1h-1z" /><path fill="#7644d2" d="M40 20h1v1h-1z" /><path fill="#4400c2" d="M41 20h28v1h-28z" /><path fill="#4a08c4" d="M69 20h1v1h-1z" /><path fill="#a686e2" d="M70 20h1v1h-1z" /><path fill="#4102bf" d="M14 21h1v1h-1z" /><path fill="#e3d9f6" d="M40 21h1v1h-1z" /><path fill="#4906c3" d="M41 21h1v1h-1z" /><path fill="#4500c2" d="M42 21h29v1h-29z" /><path fill="#7744d2" d="M71 21h1v1h-1z" /><path fill="#eee8f9" d="M72 21h1v1h-1z" /><path fill="#8c61da" d="M41 22h1v1h-1z" /><path fill="#4600c3" d="M42 22h30v1h-30z" /><path fill="#5718c9" d="M72 22h1v1h-1z" /><path fill="#d4c4f1" d="M73 22h1v1h-1z" /><path fill="#6937cd" d="M13 23h1v1h-1z" /><path fill="#d9cbf3" d="M41 23h1v1h-1z" /><path fill="#4700c3" d="M42 23h31v1h-31z" /><path fill="#4d09c5" d="M73 23h1v1h-1z" /><path fill="#c7b1ed" d="M74 23h1v1h-1z" /><path fill="#5d1fcb" d="M42 24h1v1h-1z" /><path fill="#4700c4" d="M43 24h31v1h-31z" /><path fill="#4a04c5" d="M74 24h1v1h-1z" /><path fill="#b99ee9" d="M75 24h1v1h-1z" /><path fill="#895bd9" d="M42 25h1v1h-1z" /><path fill="#4800c4" d="M43 25h32v1h-32z" /><path fill="#4901c4" d="M75 25h1v1h-1z" /><path fill="#bba0e9" d="M76 25h1v1h-1z" /><path fill="#b59ce6" d="M87 25h1v1h-1z" /><path fill="#a987e4" d="M42 26h1v1h-1z" /><path fill="#4900c5" d="M43 26h33v1h-33z" /><path fill="#4d06c6" d="M76 26h1v1h-1z" /><path fill="#cdb9ef" d="M77 26h1v1h-1z" /><path fill="#dcd0f3" d="M11 27h1v1h-1zM17 80h1v1h-1zM27 88h1v1h-1z" /><path fill="#b89be8" d="M42 27h1v1h-1z" /><path fill="#4a00c5" d="M43 27h34v1h-34z" /><path fill="#530cc8" d="M77 27h1v1h-1z" /><path fill="#e0d3f5" d="M78 27h1v1h-1z" /><path fill="#bca0ea" d="M42 28h1v1h-1z" /><path fill="#4a00c6" d="M43 28h35v1h-35z" /><path fill="#6729cf" d="M78 28h1v1h-1z" /><path fill="#f7f4fd" d="M79 28h1v1h-1zM81 31h1v1h-1z" /><path fill="#926dda" d="M89 28h1v1h-1zM28 89h1v1h-1z" /><path fill="#4608c1" d="M9 29h1v1h-1zM90 70h1v1h-1z" /><path fill="#a985e4" d="M42 29h1v1h-1z" /><path fill="#4b00c6" d="M43 29h36v1h-36z" /><path fill="#8a59da" d="M79 29h1v1h-1z" /><path fill="#906bda" d="M9 30h1v1h-1z" /><path fill="#996ddf" d="M42 30h1v1h-1z" /><path fill="#4c00c7" d="M43 30h37v1h-37zM43 31h37v1h-37z" /><path fill="#c6aeed" d="M80 30h1v1h-1z" /><path fill="#8f69d9" d="M90 30h1v1h-1zM9 69h1v1h-1z" /><path fill="#e7dff7" d="M9 31h1v1h-1zM86 75h1v1h-1z" /><path fill="#753ad4" d="M42 31h1v1h-1z" /><path fill="#611ece" d="M80 31h1v1h-1z" /><path fill="#865ed7" d="M8 32h1v1h-1zM93 38h1v1h-1zM38 93h1v1h-1zM61 93h1v1h-1z" /><path fill="#efe8fa" d="M41 32h1v1h-1z" /><path fill="#4e02c8" d="M42 32h1v1h-1z" /><path fill="#4d00c8" d="M43 32h38v1h-38z" /><path fill="#a178e2" d="M81 32h1v1h-1z" /><path fill="#b696e8" d="M41 33h1v1h-1z" /><path fill="#4e00c8" d="M42 33h39v1h-39z" /><path fill="#5307ca" d="M81 33h1v1h-1z" /><path fill="#ece3f9" d="M82 33h1v1h-1z" /><path fill="#cebdee" d="M91 33h1v1h-1zM5 46h1v1h-1zM5 53h1v1h-1zM66 91h1v1h-1z" /><path fill="#f9f7fd" d="M40 34h1v1h-1z" /><path fill="#641fd0" d="M41 34h1v1h-1z" /><path fill="#4f00c9" d="M42 34h40v1h-40zM41 35h41v1h-41z" /><path fill="#9c70e1" d="M82 34h1v1h-1z" /><path fill="#ae8ae6" d="M40 35h1v1h-1z" /><path fill="#560acb" d="M82 35h1v1h-1z" /><path fill="#f0e9fa" d="M83 35h1v1h-1zM38 37h1v1h-1z" /><path fill="#9b79dd" d="M92 35h1v1h-1zM7 64h1v1h-1zM35 92h1v1h-1z" /><path fill="#dfd1f5" d="M17 36h1v1h-1z" /><path fill="#dfd0f5" d="M39 36h1v1h-1z" /><path fill="#580bcc" d="M40 36h1v1h-1z" /><path fill="#5000ca" d="M41 36h42v1h-42z" /><path fill="#a982e5" d="M83 36h1v1h-1z" /><path fill="#7f44d8" d="M17 37h1v1h-1z" /><path fill="#a175e2" d="M18 37h1v1h-1z" /><path fill="#661fd0" d="M39 37h1v1h-1z" /><path fill="#5100ca" d="M40 37h43v1h-43z" /><path fill="#6a25d2" d="M83 37h1v1h-1z" /><path fill="#8961d7" d="M6 38h1v1h-1z" /><path fill="#ede5fa" d="M16 38h1v1h-1z" /><path fill="#5403cc" d="M17 38h1v1h-1z" /><path fill="#5200cb" d="M18 38h1v1h-1zM39 38h45v1h-45zM17 39h3v1h-3zM38 39h46v1h-46z" /><path fill="#a276e3" d="M19 38h1v1h-1z" /><path fill="#e7dcf8" d="M37 38h1v1h-1z" /><path fill="#6f2bd4" d="M38 38h1v1h-1z" /><path fill="#d9c7f4" d="M84 38h1v1h-1z" /><path fill="#b28ee8" d="M16 39h1v1h-1z" /><path fill="#864cda" d="M20 39h1v1h-1z" /><path fill="#f1eafb" d="M21 39h1v1h-1z" /><path fill="#cdb6f0" d="M36 39h1v1h-1z" /><path fill="#5e12cf" d="M37 39h1v1h-1z" /><path fill="#9d6ee1" d="M84 39h1v1h-1z" /><path fill="#b8a0e7" d="M93 39h1v1h-1zM60 93h1v1h-1z" /><path fill="#eae3f8" d="M6 40h1v1h-1zM5 49h1v1h-1zM5 50h1v1h-1z" /><path fill="#8448da" d="M16 40h1v1h-1z" /><path fill="#5300cb" d="M17 40h4v1h-4zM36 40h48v1h-48z" /><path fill="#5e11ce" d="M21 40h1v1h-1z" /><path fill="#b28de8" d="M22 40h1v1h-1z" /><path fill="#f6f2fc" d="M23 40h1v1h-1z" /><path fill="#e0d1f6" d="M34 40h1v1h-1z" /><path fill="#8449da" d="M35 40h1v1h-1z" /><path fill="#6f2ad4" d="M84 40h1v1h-1z" /><path fill="#5117c5" d="M5 41h1v1h-1z" /><path fill="#5d0dcf" d="M16 41h1v1h-1z" /><path fill="#5400cc" d="M17 41h6v1h-6zM35 41h49v1h-49z" /><path fill="#5e0fcf" d="M23 41h1v1h-1z" /><path fill="#9460df" d="M24 41h1v1h-1z" /><path fill="#c7abee" d="M25 41h1v1h-1z" /><path fill="#e9def8" d="M26 41h1v1h-1z" /><path fill="#f0e9fb" d="M30 41h1v1h-1z" /><path fill="#dccbf5" d="M31 41h1v1h-1z" /><path fill="#ae86e7" d="M32 41h1v1h-1z" /><path fill="#7836d7" d="M33 41h1v1h-1z" /><path fill="#5501cc" d="M34 41h1v1h-1zM84 41h1v1h-1z" /><path fill="#efe7fa" d="M85 41h1v1h-1z" /><path fill="#5015c4" d="M94 41h1v1h-1zM41 94h1v1h-1zM58 94h1v1h-1z" /><path fill="#dac8f4" d="M15 42h1v1h-1z" /><path fill="#5500cc" d="M16 42h11v1h-11zM30 42h55v1h-55z" /><path fill="#5602cc" d="M27 42h1v1h-1z" /><path fill="#6011cf" d="M28 42h1v1h-1z" /><path fill="#5906cd" d="M29 42h1v1h-1z" /><path fill="#c4a6ed" d="M85 42h1v1h-1z" /><path fill="#b895ea" d="M15 43h1v1h-1z" /><path fill="#5500cd" d="M16 43h69v1h-69z" /><path fill="#a477e4" d="M85 43h1v1h-1z" /><path fill="#8962d8" d="M94 43h1v1h-1zM94 56h1v1h-1z" /><path fill="#a06fe3" d="M15 44h1v1h-1z" /><path fill="#5600cd" d="M16 44h69v1h-69z" /><path fill="#8b50dd" d="M85 44h1v1h-1z" /><path fill="#a789e1" d="M94 44h1v1h-1zM94 55h1v1h-1zM44 94h1v1h-1zM55 94h1v1h-1z" /><path fill="#8648dc" d="M15 45h1v1h-1z" /><path fill="#5700ce" d="M16 45h69v1h-69zM16 46h69v1h-69z" /><path fill="#7128d6" d="M85 45h1v1h-1z" /><path fill="#c1acea" d="M94 45h1v1h-1z" /><path fill="#7127d5" d="M15 46h1v1h-1z" /><path fill="#5c07cf" d="M85 46h1v1h-1z" /><path fill="#cbbaee" d="M94 46h1v1h-1zM94 53h1v1h-1z" /><path fill="#d7caf2" d="M5 47h1v1h-1zM5 52h1v1h-1z" /><path fill="#6717d3" d="M15 47h1v1h-1z" /><path fill="#5800cf" d="M16 47h70v1h-70z" /><path fill="#faf8fe" d="M86 47h1v1h-1z" /><path fill="#600bd1" d="M15 48h1v1h-1z" /><path fill="#5900cf" d="M16 48h70v1h-70z" /><path fill="#f2ebfb" d="M86 48h1v1h-1zM86 51h1v1h-1z" /><path fill="#5b01d0" d="M15 49h1v1h-1zM15 50h1v1h-1z" /><path fill="#5a00d0" d="M16 49h70v1h-70zM16 50h70v1h-70z" /><path fill="#e9ddf9" d="M86 49h1v1h-1zM86 50h1v1h-1z" /><path fill="#620bd3" d="M15 51h1v1h-1z" /><path fill="#5b00d1" d="M16 51h70v1h-70z" /><path fill="#6b18d5" d="M15 52h1v1h-1z" /><path fill="#5c00d1" d="M16 52h70v1h-70z" /><path fill="#fbf8fe" d="M86 52h1v1h-1zM17 64h1v1h-1z" /><path fill="#7627d9" d="M15 53h1v1h-1z" /><path fill="#5d00d2" d="M16 53h69v1h-69zM16 54h69v1h-69z" /><path fill="#6107d3" d="M85 53h1v1h-1z" /><path fill="#8b48df" d="M15 54h1v1h-1z" /><path fill="#7729d9" d="M85 54h1v1h-1z" /><path fill="#c0abea" d="M94 54h1v1h-1z" /><path fill="#a46fe6" d="M15 55h1v1h-1z" /><path fill="#5e00d3" d="M16 55h69v1h-69z" /><path fill="#9150e1" d="M85 55h1v1h-1z" /><path fill="#bd96ed" d="M15 56h1v1h-1z" /><path fill="#5f00d3" d="M16 56h69v1h-69z" /><path fill="#aa77e8" d="M85 56h1v1h-1z" /><path fill="#6e3dce" d="M5 57h1v1h-1z" /><path fill="#dbc6f5" d="M15 57h1v1h-1z" /><path fill="#5f00d4" d="M16 57h69v1h-69z" /><path fill="#c7a6f0" d="M85 57h1v1h-1z" /><path fill="#fdfbfe" d="M15 58h1v1h-1z" /><path fill="#680dd6" d="M16 58h1v1h-1z" /><path fill="#6000d4" d="M17 58h67v1h-67z" /><path fill="#6101d4" d="M84 58h1v1h-1z" /><path fill="#f0e7fb" d="M85 58h1v1h-1z" /><path fill="#8e49e1" d="M16 59h1v1h-1z" /><path fill="#6100d5" d="M17 59h67v1h-67z" /><path fill="#7c2bdc" d="M84 59h1v1h-1z" /><path fill="#b9a1e7" d="M6 60h1v1h-1zM39 93h1v1h-1z" /><path fill="#b98dec" d="M16 60h1v1h-1z" /><path fill="#6200d5" d="M17 60h67v1h-67zM18 61h66v1h-66z" /><path fill="#a66fe7" d="M84 60h1v1h-1z" /><path fill="#8860d7" d="M6 61h1v1h-1z" /><path fill="#eee4fb" d="M16 61h1v1h-1z" /><path fill="#6403d5" d="M17 61h1v1h-1z" /><path fill="#ddc8f6" d="M84 61h1v1h-1z" /><path fill="#8d44e1" d="M17 62h1v1h-1z" /><path fill="#6300d6" d="M18 62h65v1h-65z" /><path fill="#7a25dc" d="M83 62h1v1h-1z" /><path fill="#c7a3f0" d="M17 63h1v1h-1z" /><path fill="#6400d6" d="M18 63h65v1h-65z" /><path fill="#b483eb" d="M83 63h1v1h-1z" /><path fill="#ded3f4" d="M92 63h1v1h-1zM63 92h1v1h-1z" /><path fill="#751bdb" d="M18 64h1v1h-1z" /><path fill="#6500d7" d="M19 64h63v1h-63zM19 65h63v1h-63z" /><path fill="#6b0ad9" d="M82 64h1v1h-1z" /><path fill="#f2e9fc" d="M83 64h1v1h-1z" /><path fill="#bb8eed" d="M18 65h1v1h-1z" /><path fill="#a971e9" d="M82 65h1v1h-1z" /><path fill="#f8f4fd" d="M18 66h1v1h-1zM81 68h1v1h-1z" /><path fill="#7315db" d="M19 66h1v1h-1z" /><path fill="#6600d8" d="M20 66h61v1h-61z" /><path fill="#6a07d9" d="M81 66h1v1h-1z" /><path fill="#efe4fb" d="M82 66h1v1h-1z" /><path fill="#cdbcee" d="M91 66h1v1h-1z" /><path fill="#c096ef" d="M19 67h1v1h-1z" /><path fill="#6700d8" d="M20 67h61v1h-61z" /><path fill="#af79eb" d="M81 67h1v1h-1z" /><path fill="#845bd6" d="M91 67h1v1h-1zM67 91h1v1h-1z" /><path fill="#8937e1" d="M20 68h1v1h-1z" /><path fill="#6800d9" d="M21 68h59v1h-59zM22 69h58v1h-58z" /><path fill="#791ddd" d="M80 68h1v1h-1z" /><path fill="#e0caf7" d="M20 69h1v1h-1z" /><path fill="#6a03d9" d="M21 69h1v1h-1z" /><path fill="#d0aff3" d="M80 69h1v1h-1z" /><path fill="#8d67d9" d="M90 69h1v1h-1z" /><path fill="#4507c1" d="M9 70h1v1h-1z" /><path fill="#b37eec" d="M21 70h1v1h-1z" /><path fill="#6900da" d="M22 70h57v1h-57z" /><path fill="#a261e8" d="M79 70h1v1h-1z" /><path fill="#ece6f9" d="M89 70h1v1h-1zM29 89h1v1h-1z" /><path fill="#9244e4" d="M22 71h1v1h-1z" /><path fill="#6a00da" d="M23 71h55v1h-55z" /><path fill="#832ae0" d="M78 71h1v1h-1z" /><path fill="#f9f5fe" d="M79 71h1v1h-1z" /><path fill="#8f6ada" d="M89 71h1v1h-1zM71 89h1v1h-1z" /><path fill="#4203c0" d="M10 72h1v1h-1zM72 89h1v1h-1z" /><path fill="#f0e6fb" d="M22 72h1v1h-1z" /><path fill="#7919df" d="M23 72h1v1h-1z" /><path fill="#6a00db" d="M24 72h53v1h-53z" /><path fill="#720ddd" d="M77 72h1v1h-1z" /><path fill="#e6d4f9" d="M78 72h1v1h-1z" /><path fill="#e5d3f9" d="M23 73h1v1h-1z" /><path fill="#7511dd" d="M24 73h1v1h-1z" /><path fill="#6b00db" d="M25 73h51v1h-51z" /><path fill="#6e05dc" d="M76 73h1v1h-1z" /><path fill="#d6b8f5" d="M77 73h1v1h-1z" /><path fill="#6a38cd" d="M88 73h1v1h-1zM73 88h1v1h-1z" /><path fill="#dec6f7" d="M24 74h1v1h-1z" /><path fill="#720add" d="M25 74h1v1h-1z" /><path fill="#6c00dc" d="M26 74h49v1h-49z" /><path fill="#6d01dc" d="M75 74h1v1h-1z" /><path fill="#c9a2f2" d="M76 74h1v1h-1z" /><path fill="#b39ae6" d="M87 74h1v1h-1z" /><path fill="#d6b7f5" d="M25 75h1v1h-1z" /><path fill="#730bde" d="M26 75h1v1h-1z" /><path fill="#6d00dc" d="M27 75h47v1h-47z" /><path fill="#6f04dd" d="M74 75h1v1h-1z" /><path fill="#c79ef2" d="M75 75h1v1h-1z" /><path fill="#fbf9fd" d="M14 76h1v1h-1z" /><path fill="#e1caf8" d="M26 76h1v1h-1z" /><path fill="#7915e0" d="M27 76h1v1h-1z" /><path fill="#6d00dd" d="M28 76h45v1h-45z" /><path fill="#7107de" d="M73 76h1v1h-1z" /><path fill="#cfacf4" d="M74 76h1v1h-1z" /><path fill="#e8d7fa" d="M27 77h1v1h-1z" /><path fill="#8427e2" d="M28 77h1v1h-1z" /><path fill="#6e00dd" d="M29 77h43v1h-43z" /><path fill="#7d1ae0" d="M72 77h1v1h-1z" /><path fill="#dfc6f7" d="M73 77h1v1h-1z" /><path fill="#9572dc" d="M85 77h1v1h-1zM77 85h1v1h-1z" /><path fill="#f8f3fd" d="M28 78h1v1h-1z" /><path fill="#a25bea" d="M29 78h1v1h-1z" /><path fill="#6f00de" d="M30 78h41v1h-41z" /><path fill="#9442e7" d="M71 78h1v1h-1z" /><path fill="#f1e7fc" d="M72 78h1v1h-1z" /><path fill="#c2aeeb" d="M84 78h1v1h-1zM78 84h1v1h-1z" /><path fill="#d2c3f0" d="M16 79h1v1h-1zM20 83h1v1h-1z" /><path fill="#c99ef2" d="M30 79h1v1h-1z" /><path fill="#7a11e0" d="M31 79h1v1h-1z" /><path fill="#7000de" d="M32 79h37v1h-37z" /><path fill="#7509df" d="M69 79h1v1h-1z" /><path fill="#bd89f0" d="M70 79h1v1h-1z" /><path fill="#4b0fc3" d="M16 80h1v1h-1z" /><path fill="#f5edfd" d="M31 80h1v1h-1z" /><path fill="#ae6eed" d="M32 80h1v1h-1z" /><path fill="#7102df" d="M33 80h1v1h-1z" /><path fill="#7000df" d="M34 80h34v1h-34z" /><path fill="#9b4ce9" d="M68 80h1v1h-1z" /><path fill="#ecdefb" d="M69 80h1v1h-1z" /><path fill="#dfd4f4" d="M82 80h1v1h-1z" /><path fill="#dfc5f8" d="M33 81h1v1h-1z" /><path fill="#9846e8" d="M34 81h1v1h-1z" /><path fill="#7100df" d="M35 81h31v1h-31z" /><path fill="#9037e6" d="M66 81h1v1h-1z" /><path fill="#d6b5f6" d="M67 81h1v1h-1z" /><path fill="#ddd1f3" d="M19 82h1v1h-1z" /><path fill="#e1c9f8" d="M35 82h1v1h-1z" /><path fill="#9e50ea" d="M36 82h1v1h-1z" /><path fill="#7403e0" d="M37 82h1v1h-1z" /><path fill="#7200e0" d="M38 82h25v1h-25zM40 83h21v1h-21z" /><path fill="#7301e0" d="M63 82h1v1h-1z" /><path fill="#9641e8" d="M64 82h1v1h-1z" /><path fill="#d9baf7" d="M65 82h1v1h-1z" /><path fill="#f4ecfd" d="M37 83h1v1h-1z" /><path fill="#c799f3" d="M38 83h1v1h-1z" /><path fill="#933be7" d="M39 83h1v1h-1z" /><path fill="#831ee4" d="M61 83h1v1h-1z" /><path fill="#b477ee" d="M62 83h1v1h-1z" /><path fill="#ebdbfb" d="M63 83h1v1h-1z" /><path fill="#eddffb" d="M40 84h1v1h-1z" /><path fill="#ca9ef3" d="M41 84h1v1h-1z" /><path fill="#a65ceb" d="M42 84h1v1h-1z" /><path fill="#8520e4" d="M43 84h1v1h-1z" /><path fill="#7401e0" d="M44 84h1v1h-1z" /><path fill="#7300e0" d="M45 84h12v1h-12z" /><path fill="#811ae3" d="M57 84h1v1h-1z" /><path fill="#a154ea" d="M58 84h1v1h-1z" /><path fill="#c596f2" d="M59 84h1v1h-1z" /><path fill="#e9d7fa" d="M60 84h1v1h-1z" /><path fill="#faf5fe" d="M44 85h1v1h-1z" /><path fill="#e4cef9" d="M45 85h1v1h-1z" /><path fill="#d0a8f5" d="M46 85h1v1h-1z" /><path fill="#c290f2" d="M47 85h1v1h-1z" /><path fill="#bc84f1" d="M48 85h1v1h-1z" /><path fill="#b577ef" d="M49 85h1v1h-1z" /><path fill="#ac67ed" d="M50 85h1v1h-1z" /><path fill="#b475ef" d="M51 85h1v1h-1z" /><path fill="#ba81f0" d="M52 85h1v1h-1z" /><path fill="#c18df2" d="M53 85h1v1h-1z" /><path fill="#cda4f4" d="M54 85h1v1h-1z" /><path fill="#e2caf9" d="M55 85h1v1h-1z" /><path fill="#f7f0fd" d="M56 85h1v1h-1z" /><path fill="#6835cc" d="M23 86h1v1h-1z" /><path fill="#b49be6" d="M74 87h1v1h-1z" /><path fill="#dacef3" d="M72 88h1v1h-1z" /><path fill="#ebe4f8" d="M70 89h1v1h-1z" /><path fill="#e3daf6" d="M31 90h1v1h-1z" /><path fill="#8a63d8" d="M43 94h1v1h-1zM56 94h1v1h-1z" /></svg>