<svg xmlns="http://www.w3.org/2000/svg" viewBox="0 0 100 100"><path fill="#848499" fill-rule="evenodd" d="M53 4h1v1h-1zm2 0h1v1h-1zm6 2h1v1h-1zm4 1h1v1h-1zm0 1v1h-1v-1zm-18 0h1v1h-1zm21 2h1v1h-1zm-25 4h1v1h-1zm2 0h2v1h-2zm8 0h1v1h-1zm4 0h1v1h-1zm2 0h1v1h-1zm6 0h1v1h-1zm-17 1h1v1h-1zm18 1h1v1h-1zm-53 2h1v2h-1zm54 0h1v1h-1zm-5 2h1v2h-1zm3 0h1v1h-1zm-21 1h1v1h-1zm-26 1h1v1h-1zm55 1h1v1h-1zm-58 1h1v1h-1zm4 0h1v1h-1zm15 0h1v1h-1zm-22 2h1v1h-1zm2 0h1v1h-1zm12 1h1v2h-1zm2 0h1v1h-1zm54 2h1v1h-1zm-68 1h1v1h-1zm12 0h1v1h-1zm1 1h1v2h-2v-1h1zm-15 0h1v1h-1zm4 0h1v1h-1zm68 0h1v1h-1zm-70 1h1v1h-1zm4 1h1v1h-1zm67 0h1v2h-1zm-63 1h1v2h-1zm23 0h1v1h-1zm-26 1h1v1h-1zm1 1h1v2h-1zm19-1h1v1h-1zm34 0h1v1h-1zm-50 2h1v1h-1zm53 0h1v1h-1zm-58 1h1v1h-1zm17 0h1v1h-1zm22 0h2v1h-2zm29 0h1v1h-1zm-8 1h1v1h-1zm-75 1h1v1h-1zm10 0h1v1h-1zm8 1h1v1h-1zm-16 1h2v1h-2zm7 0h1v1h-1zm0 1v1h-1v-1zm74-1h1v1h-1zm-83 1h1v1h-1zm19 0h1v1h-1zm9 0h1v1h-1zm0 1v1h-1v-1zm-26 0h1v1h-1zm12 2h1v1h-1zm-12 1h1v1h-1zm35 1h1v1h-1zm33 0h1v2h-1zm-70 1h1v1h-1zm2 0h1v1h-1zm4 0h1v1h-1zm2 0h1v1h-1zm4 0h1v1h-1zm14 0h1v1h-1zm41 0h1v1h-1zm17 0h1v1h-1zm1 1h1v1h-1zm-63 0h1v1h-1zm0 1v1h-1v-1zm14-1h1v1h-1zm1 1h1v1h-1zm44-1h1v1h-1zm7 1h1v2h-1zm-63 1h1v1h-1zm61 0h1v1h-1zm-66 1h1v1h-1zm46 0h1v1h-1zm14 1h1v2h-1zm-16 1h1v1h-1zm23 0h1v1h-1zm-66 2h1v1h-1zm5 0h1v1h-1zm2 0h1v1h-1zm50 0h1v1h-1zm8 0h1v2h-1zm-2 1h1v1h-1zm-37 1h1v1h-1zm11 0h1v1h-1zm-32 1h1v3h-1zm58 0h1v2h-1zm-63 2h1v1h-1zm56 0h1v1h-1zm-58 1h1v1h-1zm67 0h1v1h-1zm-4 2h1v1h-1zm-60 1h3v1h-3zm7 0h1v1h-1zm48 0h1v1h-1zm-49 2h1v1h-1zm2 0h1v1h-1zm48 0h1v2h-1zm-49 2h1v1h-1zm46 0h1v1h-1zm-43 1h1v1h-1zm-2 1h1v1h-1zm42 1h1v1h-1zm-37 1h1v1h-1zm0 1v1h-1v-1zm34 0h2v1h-2zm2 1h1v1h-1zm2-1h1v1h-1zm-35 1h1v1h-1zm27 1h2v1h-2zm-2 1h1v1h-1zm5 0h1v1h-1zm-40 1h1v1h-1zm2 0h1v1h-1zm2 0h3v1h-3zm16 0h1v1h-1zm4 0h1v1h-1zm2 0h1v1h-1zm11 0h1v1h-1zm5 0h4v1h-4zm-48 1h1v1h-1zm10 1h1v1h-1zm18 0h1v1h-1zm2 0h2v1h-2zm-29 1h1v1h-1zm0 1v1h-1v-1zm2-1h1v1h-1zm15 0h1v1h-1zm25 0h1v1h-1zm13 0h1v1h-1zm-27 1h1v1h-1zm-5 1h1v1h-1zm4 1h1v1h-1zm3 1h1v1h-1zm-23 1h1v1h-1zm-7 1h1v1h-1zm14 0h1v1h-1zm3 0h1v1h-1zm24 0h1v1h-1zm-3 1h2v1h-2zm-32 1h1v1h-1zm2 0h2v1h-2zm3 0h3v1h-3zm36 0h2v1h-2zm3 0h2v1h-2zm3 0h1v1h-1zm-54 1h2v1h-2zm19 0h1v1h-1zm15 0h1v1h-1zm-37 1h1v1h-1zm26 0h1v1h-1zm8 3h1v1h-1z"/><path fill="#858598" fill-rule="evenodd" d="M54 4h1v1h-1zm4 0h2v1h-2zm3 1h2v1h-2zm0 1v1h-1v-1zm-10 0h1v1h-1zm12 1h1v1h-1zm3 1h1v1h-1zm-22 2h1v1h-1zm1 1h1v1h-1zm21-1h1v1h-1zm1 2h1v1h-1zm-15 2h1v1h-1zm-9 2h1v1h-1zm24 1h1v1h-1zm-53 1h1v1h-1zm30 2h1v1h-1zm0 1v1h-1v-1zm3-1h1v1h-1zm21 0h1v1h-1zm0 1v1h-1v-1zm-51 0h1v1h-1zm23 1h1v1h-1zm-27 1h1v1h-1zm24 0h1v1h-1zm-13 1h1v1h-1zm-12 1h1v1h-1zm17 1h1v1h-1zm51 1h1v1h-1zm-72 2h1v1h-1zm3 0h1v1h-1zm21 0h1v1h-1zm0 1v1h-1v-1zm-17 0h1v1h-1zm8 0h1v1h-1zm-3 2h1v1h-1zm-3 1h1v1h-1zm49 1h1v1h-1zm2 0h1v1h-1zm6 2h1v1h-1zm-20 1h1v1h-1zm6 0h1v1h-1zm-50 4h1v1h-1zm70 1h1v1h-1zm-60 1h1v1h-1zm4 0h1v1h-1zm57 1h1v1h-1zm-63 1h1v1h-1zm12 0h1v1h-1zm-27 1h1v1h-1zm82 0h1v1h-1zm-67 1h1v1h-1zm-16 1h1v1h-1zm2 0h1v1h-1zm4 1h1v1h-1zm30 0h1v1h-1zm46 0h1v1h-1zm-83 1h1v1h-1zm25 0h1v1h-1zm43 0h1v1h-1zm-63 1h1v1h-1zm3 0h1v1h-1zm12 0h1v1h-1zm50 0h1v1h-1zm13 0h1v1h-1zm-41 3h1v1h-1zm38 0h1v2h-1zm-60 1h1v1h-1zm42 1h1v1h-1zm-14 1h1v1h-1zm17 0h1v1h-1zm0 1v1h-1v-1zm-37 0h1v1h-1zm54 0h1v1h-1zm4 1h1v1h-1zm2 0h1v1h-1zm-58 2h1v2h-1zm0 8h1v1h-1zm3 4h1v1h-1zm3 0h1v1h-1zm41 0h1v1h-1zm-38 2h1v1h-1zm-2 1h1v1h-1zm4 0h1v1h-1zm-1 2h1v1h-1zm5 0h1v1h-1zm-17 1h1v1h-1zm14 0h1v1h-1zm7 0h1v1h-1zm10 0h1v1h-1zm20 0h1v1h-1zm-14 1h1v1h-1zm21 0h1v1h-1zm-36 1h1v1h-1zm25 0h1v1h-1zm-32 1h1v1h-1zm23 0h1v1h-1zm-10 1h1v1h-1zm30 0h1v1h-1zm-37 1h1v1h-1zm-25 4h1v1h-1zm5 0h1v1h-1zm11 0h1v1h-1zm38 0h1v1h-1zm7 0h1v1h-1zm-50 2h1v1h-1zm14 0h1v1h-1zm11 0h1v1h-1zm11 0h1v1h-1zm3 0h1v1h-1zm10 1h2v1h-2zm-34 2h1v1h-1zm4 2h1v1h-1z"/><path fill="#848498" fill-rule="evenodd" d="M56 4h2v1h-2zm-6 1h1v1h-1zm-2 1h1v1h-1zm1 1h1v1h-1zm-1 0v1h-1v-1zm4-1h3v1h-3zm4 0h2v1h-2zm8 0h1v1h-1zm-16 2h1v1h-1zm14-1h1v1h-1zm1 1h1v1h-1zm-15 1v1h-1v-1zm16 0h1v1h-1zm-19 0h1v1h-1zm22 0h1v1h-1zm-21 2h1v1h-1zm0 1v1h1v1h-2v-2zm-3 0h1v2h-1zm6 1h2v1h-2zm11 0h1v1h-1zm7 0h1v2h-1zm-13 1h2v1h-2zm4 0h1v1h-1zm-15 1h1v1h-1zm2 4h1v1h-1zm1 1h1v1h-1zm15 0h1v1h-1zm-46 2h2v1h1v1h-3zm23 1h1v1h-1zm-25 1h1v1h-1zm9 0h2v1h-1v1h-3v-1h2zm11 0h1v1h-1zm44 1h1v1h-1zm-52 1h2v1h-2zm2 1h1v1h-1zm3-1h1v1h-1zm-19 1h1v1h-1zm-2 1h1v1h-1zm20 0h1v2h-1zm-5 1h2v3h-2v-1h1v-1h-1zm5 1v1h-1v-1zm-16 0h1v1h-1zm70 0h1v1h-1zm-61 1h1v1h-1zm-3 1h1v1h-1zm7 1h1v1h-1zm-6 1h1v1h-1zm1 1h1v1h-1zm26-1h1v1h-1zm18 0h1v1h-1zm2 0h1v1h-1zm-42 1h1v1h-1zm24 0h2v1h-2zm14 0h1v1h-1zm-45 1h1v1h-1zm1 1h1v2h-1zm18-1h1v1h-1zm0 1v1h-1v-1zm38-1h1v1h-1zm11 0h1v2h-1zm-27 1h1v1h-1zm-40 2v1h-1v-1zm15-1h1v1h-1zm0 1v1h-1v-1zm-16 1v1h-1v-1zm4-1h2v1h-2zm2 1h1v2h-1zm62-1h1v1h-1zm-81 1h1v1h-1zm-2 1h1v1h-1zm12 0h1v1h-1zm71 0h1v1h-1zm-79 1h1v1h-1zm6 0h1v1h-1zm7 0h1v1h-1zm11 0h1v1h-1zm-26 1h1v1h-1zm14 1h1v1h-1zm1 1h1v1h-1zm-15 0h1v1h-1zm77 1h1v1h-1zm-79 1h1v1h-1zm12 0h1v1h-1zm10 0h1v2h-1zm-13 1h1v1h-1zm5 0h1v1h-1zm54 0h2v1h-2zm18 0h1v1h-1zm1 1h1v1h-1zm-84 0h2v1h-2zm36 1h1v1h-1zm1 1h1v1h-1zm-40 0h2v1h-2zm5 0h1v1h-1zm22 0h1v1h-1zm38 0h1v1h-1zm-45 1h1v1h-1zm43 0h1v1h-1zm4 0h1v1h-1zm-40 1h1v1h-1zm12 0h1v1h-1zm-19 1h1v2h-1zm45 0h1v1h-1zm-21 1h1v1h-1zm41 0h1v1h-1zm-67 1h1v1h-1zm8 0h1v1h-1zm37 0h1v1h-1zm-4 1h1v1h-1zm0 1v1h-1v-1zm25-1h1v1h-1zm-63 1h1v1h-1zm22 0h1v1h-1zm1 2h1v1h-1zm-23 1h1v1h-1zm39 0h1v1h-1zm-41 1h1v1h-1zm26 0h1v1h-1zm39 0h1v1h-1zm-58 1h1v1h-1zm51 1h1v1h-1zm3 0h1v1h-1zm0 1v1h-1v-1zm5-1h1v1h-1zm-56 3h1v1h-1zm47 1h1v1h-1zm-46 1h1v1h-1zm47 1h1v2h-1zm-47 1h1v1h-1zm2 3h1v1h-1zm39 0h1v1h-1zm-3 2h1v1h-1zm4 0h1v1h-1zm-36 1h1v1h-1zm4 0h1v1h-1zm30 0h1v1h-1zm-26 1h1v1h-1zm-17 1h1v1h-1zm4 0h1v1h-1zm5 0h3v1h-3zm13 0h1v1h-1zm7 0h1v1h-1zm10 0h1v1h-1zm2 0h2v1h-2zm10 0h2v1h-2zm-57 1h1v1h-1zm22 0h1v1h-1zm40 0h1v1h-1zm-50 1h2v1h-2zm13 0h1v1h-1zm9 0h1v2h-1zm4 0h1v1h-1zm13 0h1v1h-1zm-46 1h1v1h-1zm12 0h1v1h-1zm4 0h1v1h-1zm1 1h1v1h-1zm20-1h1v1h-1zm4 0h1v1h-1zm13 0h4v1h-4zm-59 1h1v6h-1zm39 0h2v1h-2zm-3 1h2v1h-2zm-8 1h1v1h-1zm2 0h1v1h-1zm-27 3h1v1h-1zm4 0h2v1h-2zm8 0h1v1h-1zm30 0h1v1h-1zm2 0h1v1h-1zm2 0h1v1h-1zm7 0h3v1h-3zm4 0h1v1h-1zm-39 1h2v1h-2zm41 0h2v1h-2zm-26 1h1v1h-1zm18 0h1v1h-1zm-25 1h1v1h-1zm5 0h1v1h-1zm9 0h1v1h-1zm17 0h1v1h-1zm-35 1h1v1h-1zm7 0h1v1h-1zm6 0h1v1h-1zm27 0h1v1h-1zm-30 1h1v1h-1z"/><path fill="#858599" fill-rule="evenodd" d="M51 5h10v1h-1v1h-1v-1h-8zm0 1v1h-2v-1zm-2 1v1h-1v-1zm13-1h2v1h-2zm2 1h1v1h-1zm1 1h1v1h-1zm-20 0h2v2h-1v-1h-1zm21 1h1v1h-1zm-20 1v1h-1v-1zm21 0h1v1h1v9h-1v1h-1v1h4v1h2v1h3v1h1v1h2v1h1v1h2v2h1v1h1v1h1v3h1v5h1v1h-1v2h1v2h-1v1h-1v1h4v2h1v1h1v3h1v1h-1v1h-1v2h-1v3h1v3h-1v1h-1v1h-4v-1h-2v4h-1v2h-1v3h-2v2h-2v1h-2v-1h1v-1h1v-1h1v-1h1v-1h1v-2h1v-2h1v-1h-1v-1h1v-1h-1v-1h1v-5h1v-1h-1v-1h1v-7h1v-3h-1v-2h-1v-2h-1v-1h-1v-2h-2v-2h-1v-1h-2v-1h-1v1h-1v-1h-3v-1h-4v1h-2v1h-1v1h-3v1h-2v1h-1v-1h-1v-1h-3v-1h-1v-1h-3v-1h-1v1h-1v-1h-1v1h-4v1h-1v-1h-1v2h-1v-1h-1v1h-1v1h-2v1h-1v3h-2v2h-1v5h-1v1h1v2h1v1h-1v1h1v4h1v1h-1v1h1v1h-1v2h1v5h-1v-2h-2v1h-1v-1h-5v-7h-1v-4h-1v-3h1v-2h1v-1h3v-2h-1v-1h-1v-2h1v-1h-3v2h-2v-1h1v-2h1v-1h-1v-1h1v1h1v-1h1v-3h1v-1h1v-2h1v-1h1v-2h1v-1h1v-2h-1v-1h-2v-1h-4v-1h12v-1h4v-1h2v-1h4v-2h-1v-1h-1v-2h1v-6h1v4h2v-1h4v-1h3v-1h1v1h5v1h-3v1h-1v-1h-4v1h-4v1h-3v4h1v1h2v-1h1v1h1v-1h11v1h1v1h1v-1h3v-1h1v-1h1v-2h-1v-1h-5v-1h-2v-1h5v1h3v-3h-1zm-53 9h1v1h2v2h-2v4h-1v2h-2v-1h1v-2h1zm3 3h1v1h-1zm1 1h3v1h1v1h-2v-1h-2zm12 3h-1v1h2v-1zm-18 2v1h-1v1h2v1h-3v-1h-1v-1h1v-1zm17 0v1h-1v1h-2v-1h1v-1zm4 1h-1v1h-1v1h1v-1h1zm-20 2h3v1h3v1h-4v-1h-2zm11-1h1v1h-1zm0 1v2h-1v1h-1v1h-1v-1h-2v-1h2v-1h2v-1zm-3 4v1h-1v-1zm-1 1v1h-1v-1zm-1 1v1h-1v2h-1v1h-2v1h-3v1h-2v1h-1v-1h-1v-1h-3v6h-1v-2h-1v-2h1v-1h-1v-1h1v-2h-1v-1h2v2h5v1h1v-1h3v-1h1v-1h1v-1h1v-1zm6 3h-1v2h1zm-17 3v1h-1v-1zm12 2v2h-2v-1h1v-1zm-2 2v1h-1v1h-2v1h-2v1h-7v1h-1v-1h-3v-2h1v-1h1v1h-1v1h7v-1h1v1h1v-1h1v-1h3v-1zm20 1h2v1h2v2h1v1h3v1h1v3h2v2h1v2h1v3h-2v-1h-1v-2h-1v-2h-2v-2h-1v-2h-1v-1h-2v-2h-1v-1h-1v-1h-1zm47 1h-1v5h-1v2h1v1h-1v4h1v2h4v-7h1v-3h1v-1h-1v-2h-1v-1zm-59 1h-1v1h-1v1h-1v4h1v3h1v2h-1v2h1v1h5v-8h-1v-4h-1v-1h-1v-1zm45-1h2v2h-2v1h-1v1h-1v1h-1v1h-1v1h-1v2h-1v2h-1v1h-1v2h-2v-1h-1v-1h1v-1h1v-2h1v-1h1v-3h1v-1h2v-1h2v-1h1v-1h1zm-39 19h1v2h-1zm1 2h2v2h2v2h1v1h-2v-1h-1v-1h-1v-2h-1zm5 5h2v1h1v1h2v1h1v-1h1v1h1v1h4v1h3v-1h2v1h1v-1h1v1h1v-1h1v1h2v-1h4v-1h1v1h1v-1h3v-1h2v-1h2v1h-1v1h-2v1h-3v1h9v-1h3v1h6v1h4v11h-3v-1h-7v-1h-8v1h-5v1h-3v1h-1v-1h-1v1h-1v1h-1v-1h-1v2h-6v-1h-1v-1h-2v-1h-5v-1h-5v-1h-6v1h-1v-1h-1v1h-4v1h-1v-1h-2v1h-3v-11h4v-1h6v-1h1v1h5v-1h1v1h5v-1h-2v-1h-2v-1h-1v-1h-1zm9 5h-1v1h1zm20 0h-1v1h1zm-31 1h-1v1h-9v1h-2v6h9v-1h6v1h6v1h4v-1h1v2h2v1h4v1h1v-1h3v-1h2v-1h4v-1h4v-1h1v1h1v-1h1v1h1v-1h5v1h7v1h2v-7h-1v-1h-10v-1h-2v1h-3v1h-1v-1h-5v1h1v1h-2v-1h-2v1h-3v1h-2v1h-3v-1h-4v-1h-2v-1h-3v-1h-8v-1zm14 0h-1v1h4v1h1v1h1v-1h1v1h2v-1h1v-1h1v-1h-2v1h-1v-1h-2v1h-1v-1zm13 0h-1v1h1zm-17 2v1h-1v-1z"/><path fill="#828297" fill-rule="evenodd" d="M55 6h1v1h-1zm-6 2h1v1h-1zm-3 2h1v1h-1zm-21 18h1v1h-1zm2 2h1v1h-1zm-8 1h1v1h-1zm2 5h1v1h-1zm-5 5h1v1h-1zm14 41h1v1h-1zm49 0h2v1h-2zm-1 5h1v1h-1zm-33 1h1v1h-1zm23 0h1v1h-1zm17 0h1v1h-1z"/><path fill="#838398" fill-rule="evenodd" d="M58 6h1v1h-1zm-10 7h1v1h-1zm13 0h1v1h-1zm-43 11h1v1h-1zm-6 4h1v1h-1zm12 8h1v1h-1zm-19 10h1v1h-1zm9 1h1v1h-1zm25 35h1v1h-1zm43 0h1v1h-1zm-24 3h1v1h-1zm-30 3h1v1h-1zm14 0h1v1h-1zm2 0h1v1h-1zm3 1h1v1h-1z"/><path fill="#838399" fill-rule="evenodd" d="M50 7h1v1h-1zm11 0h1v1h-1zm-38 31h1v1h-1zm-10 12h1v1h-1zm69 14h1v1h-1zm-40 15h1v1h-1zm28 0h1v1h-1zm-39 3h1v1h-1zm17 7h1v1h-1z"/><path fill="#858596" fill-rule="evenodd" d="M51 7h1v1h-1zm-19 75h1v1h-1z"/><path fill="#838397" fill-rule="evenodd" d="M65 9h1v1h-1zm-8 3h1v1h-1zm-44 16h1v1h-1zm11 4h1v1h-1zm-5 11h1v1h-1zm0 1v1h-1v-1zm19 38h1v1h-1zm2 0h1v1h-1zm32 0h1v1h-1zm-13 3h1v1h-1zm7 3h1v1h-1zm-14 2h1v1h-1z"/><path fill="#828296" fill-rule="evenodd" d="M65 10h1v1h-1zm-46 15h1v1h-1zm-4 1h1v1h-1zm0 1v1h-1v-1zm23 60h1v1h-1zm35 0h1v1h-1z"/><path fill="#848497" fill-rule="evenodd" d="M66 11h1v1h-1zm-4 2h2v1h-2zm4 1h1v1h-1zm-51 11h1v1h-1zm8 1h2v1h-2zm-11 3h1v1h-1zm16 0h1v1h-1zm-11 2h1v1h-1zm6 2h1v1h-1zm2 1h1v1h-1zm-3 6h1v1h-1zm-8 2h1v1h-1zm-4 1h1v1h-1zm72 4h1v1h-1zm-71 1h1v1h-1zm-7 1h1v1h-1zm3 2h1v1h-1zm20 0h1v1h-1zm15 31h1v1h-1zm27 0h1v1h-1zm-22 1h2v1h-2zm15 1h1v1h-1zm25 0h1v5h-1zm-30 2h1v1h-1zm-28 2h1v1h-1zm54 0h1v1h-1zm-21 1h2v1h-2zm-11 1h1v1h-1zm1 1h1v1h-1z"/><path fill="#828298" fill-rule="evenodd" d="M52 12h1v1h-1zm3 0h2v1h-2zm9 1h1v1h-1zm-5 77h1v1h-1z"/><path fill="#828299" fill-rule="evenodd" d="M53 12h1v1h-1zm1 79h1v1h-1z"/><path fill="#858597" fill-rule="evenodd" d="M58 12h1v1h-1zm25 47h1v1h-1zm-56 23h1v1h-1zm46 0h1v1h-1zm-18 4h1v1h-1zm-21 1h4v1h-4zm40 0h4v1h-4z"/><path fill="#848496" fill-rule="evenodd" d="M59 12h1v1h-1zm-12 1h1v1h-1zm-25 13h1v1h-1zm-4 5h1v1h-1zm-2 15h1v1h-1zm41 45h1v1h-1z"/><path fill="#868699" fill-rule="evenodd" d="M49 20h1v1h-1zm-18 39h1v1h-1zm-1 7h1v1h-1zm29 15h1v1h-1z"/><path fill="#85859a" fill-rule="evenodd" d="M63 20h1v1h-1zm-35 33h1v1h-1zm22 28h1v1h-1zm2 0h1v1h-1zm4 2h1v1h-1z"/><path fill="#86869a" fill-rule="evenodd" d="M64 20h1v1h-1z"/><path fill="#838396" fill-rule="evenodd" d="M8 43h1v1h-1zm78 40h1v1h-1zm-32 3h1v1h-1z"/><path fill="#83839a" fill-rule="evenodd" d="M17 45h1v1h-1z"/><path fill="#85859b" fill-rule="evenodd" d="M82 48h1v1h-1z"/><path fill="#878799" fill-rule="evenodd" d="M10 51h1v1h-1z"/><path fill="#868698" fill-rule="evenodd" d="M29 59h1v1h-1z"/></svg>