<svg xmlns="http://www.w3.org/2000/svg" viewBox="0 0 100 100" width="1em" height="1em"><path fill="#db395e" d="M6 0h1v1h-1zM93 0h1v1h-1zM95 1h1v1h-1zM99 8h1v1h-1zM0 93h1v1h-1zM1 95h1v1h-1z" /><path fill="#dc395f" d="M7 0h1v1h-1zM9 0h82v1h-82zM5 1h90v1h-90zM3 2h93v1h-93zM3 3h95v1h-95zM2 4h96v1h-96zM1 5h98v1h-98zM1 6h98v1h-98zM0 7h99v1h-99zM1 8h98v1h-98zM0 9h100v1h-100zM0 10h100v1h-100zM0 11h100v1h-100zM0 12h100v1h-100zM0 13h100v1h-100zM0 14h100v1h-100zM0 15h100v1h-100zM0 16h100v1h-100zM0 17h100v1h-100zM0 18h100v1h-100zM0 19h30v1h-30zM36 19h64v1h-64zM0 20h29v1h-29zM38 20h62v1h-62zM0 21h28v1h-28zM39 21h61v1h-61zM0 22h27v1h-27zM39 22h61v1h-61zM0 23h27v1h-27zM40 23h60v1h-60zM0 24h27v1h-27zM40 24h60v1h-60zM0 25h27v1h-27zM40 25h60v1h-60zM0 26h27v1h-27zM40 26h60v1h-60zM0 27h27v1h-27zM40 27h60v1h-60zM0 28h27v1h-27zM39 28h61v1h-61zM0 29h28v1h-28zM39 29h61v1h-61zM0 30h29v1h-29zM38 30h62v1h-62zM0 31h31v1h-31zM36 31h64v1h-64zM0 32h100v1h-100zM0 33h100v1h-100zM0 34h100v1h-100zM0 35h100v1h-100zM0 36h65v1h-65zM73 36h27v1h-27zM0 37h20v1h-20zM38 37h4v1h-4zM58 37h5v1h-5zM75 37h25v1h-25zM0 38h19v1h-19zM38 38h3v1h-3zM58 38h3v1h-3zM77 38h23v1h-23zM0 39h19v1h-19zM37 39h4v1h-4zM58 39h2v1h-2zM77 39h23v1h-23zM0 40h19v1h-19zM37 40h4v1h-4zM57 40h2v1h-2zM78 40h22v1h-22zM0 41h19v1h-19zM37 41h3v1h-3zM57 41h1v1h-1zM79 41h21v1h-21zM0 42h18v1h-18zM37 42h3v1h-3zM79 42h21v1h-21zM0 43h18v1h-18zM36 43h4v1h-4zM79 43h21v1h-21zM0 44h18v1h-18zM36 44h4v1h-4zM80 44h20v1h-20zM0 45h25v1h-25zM36 45h11v1h-11zM61 45h5v1h-5zM80 45h20v1h-20zM0 46h24v1h-24zM36 46h10v1h-10zM60 46h7v1h-7zM80 46h20v1h-20zM0 47h24v1h-24zM35 47h11v1h-11zM59 47h9v1h-9zM80 47h20v1h-20zM0 48h24v1h-24zM35 48h11v1h-11zM58 48h10v1h-10zM80 48h20v1h-20zM0 49h24v1h-24zM35 49h11v1h-11zM57 49h12v1h-12zM80 49h20v1h-20zM0 50h23v1h-23zM35 50h10v1h-10zM57 50h12v1h-12zM80 50h20v1h-20zM0 51h23v1h-23zM34 51h11v1h-11zM57 51h12v1h-12zM80 51h20v1h-20zM0 52h23v1h-23zM34 52h11v1h-11zM56 52h12v1h-12zM79 52h21v1h-21zM0 53h23v1h-23zM34 53h11v1h-11zM56 53h12v1h-12zM79 53h21v1h-21zM0 54h22v1h-22zM34 54h10v1h-10zM56 54h12v1h-12zM79 54h21v1h-21zM0 55h22v1h-22zM33 55h11v1h-11zM55 55h12v1h-12zM79 55h21v1h-21zM0 56h22v1h-22zM33 56h11v1h-11zM55 56h12v1h-12zM78 56h22v1h-22zM0 57h22v1h-22zM33 57h11v1h-11zM55 57h12v1h-12zM78 57h22v1h-22zM0 58h21v1h-21zM33 58h10v1h-10zM55 58h12v1h-12zM78 58h22v1h-22zM0 59h21v1h-21zM32 59h11v1h-11zM54 59h12v1h-12zM78 59h22v1h-22zM0 60h21v1h-21zM32 60h11v1h-11zM54 60h12v1h-12zM77 60h23v1h-23zM0 61h21v1h-21zM32 61h11v1h-11zM54 61h12v1h-12zM77 61h23v1h-23zM0 62h20v1h-20zM32 62h10v1h-10zM54 62h12v1h-12zM77 62h23v1h-23zM0 63h20v1h-20zM31 63h11v1h-11zM53 63h12v1h-12zM77 63h5v1h-5zM83 63h17v1h-17zM0 64h20v1h-20zM31 64h10v1h-10zM53 64h12v1h-12zM76 64h5v1h-5zM85 64h15v1h-15zM0 65h20v1h-20zM31 65h9v1h-9zM53 65h12v1h-12zM76 65h5v1h-5zM87 65h13v1h-13zM0 66h20v1h-20zM31 66h9v1h-9zM53 66h12v1h-12zM76 66h4v1h-4zM86 66h14v1h-14zM0 67h20v1h-20zM31 67h7v1h-7zM52 67h13v1h-13zM76 67h4v1h-4zM86 67h14v1h-14zM0 68h20v1h-20zM31 68h6v1h-6zM52 68h13v1h-13zM76 68h3v1h-3zM86 68h14v1h-14zM0 69h20v1h-20zM32 69h3v1h-3zM52 69h13v1h-13zM76 69h2v1h-2zM85 69h15v1h-15zM0 70h20v1h-20zM52 70h13v1h-13zM85 70h15v1h-15zM0 71h20v1h-20zM51 71h14v1h-14zM84 71h16v1h-16zM0 72h20v1h-20zM51 72h14v1h-14zM84 72h16v1h-16zM0 73h21v1h-21zM39 73h1v1h-1zM51 73h15v1h-15zM83 73h17v1h-17zM0 74h22v1h-22zM38 74h1v1h-1zM51 74h16v1h-16zM82 74h18v1h-18zM0 75h22v1h-22zM36 75h3v1h-3zM50 75h18v1h-18zM81 75h19v1h-19zM0 76h24v1h-24zM34 76h5v1h-5zM50 76h19v1h-19zM79 76h21v1h-21zM0 77h29v1h-29zM30 77h70v1h-70zM0 78h100v1h-100zM0 79h100v1h-100zM0 80h100v1h-100zM0 81h100v1h-100zM0 82h100v1h-100zM0 83h100v1h-100zM0 84h100v1h-100zM0 85h100v1h-100zM0 86h100v1h-100zM0 87h100v1h-100zM0 88h100v1h-100zM0 89h100v1h-100zM0 90h100v1h-100zM0 91h99v1h-99zM0 92h99v1h-99zM1 93h98v1h-98zM1 94h98v1h-98zM2 95h96v1h-96zM3 96h95v1h-95zM4 97h92v1h-92zM5 98h90v1h-90zM8 99h84v1h-84z" /><path fill="#dc385e" d="M8 0h1v1h-1zM91 0h1v1h-1zM96 2h1v1h-1zM0 8h1v1h-1zM99 93h1v1h-1zM3 97h1v1h-1z" /><path fill="#dc395e" d="M92 0h1v1h-1zM99 7h1v1h-1zM98 95h1v1h-1z" /><path fill="#db395f" d="M4 1h1v1h-1zM1 4h1v1h-1zM0 6h1v1h-1z" /><path fill="#db385f" d="M2 3h1v1h-1zM2 96h1v1h-1zM96 97h1v1h-1z" /><path fill="#dc385f" d="M98 4h1v1h-1zM99 6h1v1h-1zM99 92h1v1h-1zM4 98h1v1h-1zM95 98h1v1h-1zM6 99h2v1h-2zM92 99h2v1h-2z" /><path fill="#dc3b60" d="M30 19h1v1h-1zM27 28h1v1h-1zM76 38h1v1h-1zM67 55h1v1h-1zM76 63h1v1h-1z" /><path fill="#e56b87" d="M31 19h1v1h-1zM74 37h1v1h-1zM56 43h1v1h-1z" /><path fill="#ed99ad" d="M32 19h1v1h-1zM22 56h1v1h-1zM67 57h1v1h-1zM76 61h1v1h-1z" /><path fill="#efa5b6" d="M33 19h1v1h-1zM31 60h1v1h-1z" /><path fill="#ec94a8" d="M34 19h1v1h-1z" /><path fill="#e35f7e" d="M35 19h1v1h-1zM75 68h1v1h-1z" /><path fill="#e3607e" d="M29 20h1v1h-1zM20 63h1v1h-1z" /><path fill="#f9dce3" d="M30 20h1v1h-1zM68 46h1v1h-1zM34 47h1v1h-1zM65 67h1v1h-1z" /><path fill="#ffffff" d="M31 20h5v1h-5zM30 21h7v1h-7zM29 22h9v1h-9zM28 23h11v1h-11zM28 24h11v1h-11zM28 25h11v1h-11zM28 26h11v1h-11zM28 27h10v1h-10zM29 28h9v1h-9zM30 29h7v1h-7zM31 30h4v1h-4zM21 37h16v1h-16zM43 37h14v1h-14zM66 37h7v1h-7zM21 38h16v1h-16zM43 38h14v1h-14zM64 38h10v1h-10zM20 39h16v1h-16zM42 39h15v1h-15zM62 39h14v1h-14zM20 40h16v1h-16zM42 40h14v1h-14zM61 40h16v1h-16zM20 41h16v1h-16zM42 41h14v1h-14zM60 41h17v1h-17zM20 42h15v1h-15zM41 42h15v1h-15zM59 42h19v1h-19zM19 43h16v1h-16zM41 43h15v1h-15zM58 43h20v1h-20zM19 44h16v1h-16zM41 44h14v1h-14zM57 44h4v1h-4zM67 44h11v1h-11zM26 45h9v1h-9zM48 45h7v1h-7zM57 45h2v1h-2zM68 45h11v1h-11zM26 46h8v1h-8zM48 46h10v1h-10zM69 46h10v1h-10zM25 47h9v1h-9zM47 47h10v1h-10zM69 47h10v1h-10zM25 48h9v1h-9zM47 48h9v1h-9zM70 48h9v1h-9zM25 49h9v1h-9zM47 49h9v1h-9zM70 49h9v1h-9zM25 50h8v1h-8zM47 50h9v1h-9zM70 50h9v1h-9zM24 51h9v1h-9zM46 51h9v1h-9zM70 51h9v1h-9zM24 52h9v1h-9zM46 52h9v1h-9zM69 52h9v1h-9zM24 53h9v1h-9zM46 53h9v1h-9zM69 53h9v1h-9zM24 54h8v1h-8zM46 54h8v1h-8zM69 54h9v1h-9zM23 55h9v1h-9zM45 55h9v1h-9zM69 55h9v1h-9zM23 56h9v1h-9zM45 56h9v1h-9zM68 56h9v1h-9zM23 57h9v1h-9zM45 57h9v1h-9zM68 57h9v1h-9zM23 58h8v1h-8zM45 58h8v1h-8zM68 58h9v1h-9zM22 59h9v1h-9zM44 59h9v1h-9zM68 59h8v1h-8zM22 60h9v1h-9zM44 60h9v1h-9zM67 60h9v1h-9zM22 61h9v1h-9zM44 61h9v1h-9zM67 61h9v1h-9zM22 62h8v1h-8zM44 62h8v1h-8zM67 62h9v1h-9zM21 63h9v1h-9zM43 63h9v1h-9zM66 63h9v1h-9zM21 64h9v1h-9zM43 64h9v1h-9zM66 64h9v1h-9zM21 65h9v1h-9zM42 65h10v1h-10zM66 65h9v1h-9zM82 65h3v1h-3zM21 66h9v1h-9zM41 66h10v1h-10zM66 66h9v1h-9zM82 66h3v1h-3zM21 67h9v1h-9zM40 67h11v1h-11zM66 67h9v1h-9zM81 67h4v1h-4zM21 68h9v1h-9zM39 68h12v1h-12zM66 68h9v1h-9zM81 68h3v1h-3zM21 69h9v1h-9zM38 69h2v1h-2zM42 69h9v1h-9zM66 69h9v1h-9zM80 69h4v1h-4zM21 70h10v1h-10zM36 70h4v1h-4zM42 70h8v1h-8zM66 70h10v1h-10zM79 70h4v1h-4zM21 71h18v1h-18zM41 71h9v1h-9zM66 71h17v1h-17zM22 72h16v1h-16zM41 72h9v1h-9zM67 72h15v1h-15zM22 73h15v1h-15zM41 73h9v1h-9zM67 73h14v1h-14zM23 74h13v1h-13zM41 74h8v1h-8zM68 74h12v1h-12zM25 75h9v1h-9zM40 75h9v1h-9zM70 75h8v1h-8zM29 76h1v1h-1z" /><path fill="#f6cad4" d="M36 20h1v1h-1zM20 37h1v1h-1zM58 46h1v1h-1z" /><path fill="#e04f71" d="M37 20h1v1h-1zM78 69h1v1h-1z" /><path fill="#e46482" d="M28 21h1v1h-1zM21 59h1v1h-1zM84 64h1v1h-1zM75 66h1v1h-1z" /><path fill="#fef7f9" d="M29 21h1v1h-1zM40 69h1v1h-1zM24 75h1v1h-1z" /><path fill="#fbeaee" d="M37 21h1v1h-1zM77 41h1v1h-1zM41 69h1v1h-1z" /><path fill="#e05071" d="M38 21h1v1h-1z" /><path fill="#dd3e63" d="M27 22h1v1h-1zM78 41h1v1h-1zM22 54h1v1h-1zM80 66h1v1h-1zM37 74h1v1h-1z" /><path fill="#fae4e9" d="M28 22h1v1h-1z" /><path fill="#f6ccd6" d="M38 22h1v1h-1zM78 43h1v1h-1zM20 67h1v1h-1z" /><path fill="#e87d96" d="M27 23h1v1h-1zM34 31h1v1h-1zM37 37h1v1h-1zM57 38h1v1h-1z" /><path fill="#e25b7b" d="M39 23h1v1h-1z" /><path fill="#f1adbd" d="M27 24h1v1h-1zM36 40h1v1h-1z" /><path fill="#eb8da3" d="M39 24h1v1h-1z" /><path fill="#f3bcc9" d="M27 25h1v1h-1z" /><path fill="#ee9caf" d="M39 25h1v1h-1zM40 72h1v1h-1z" /><path fill="#f0aaba" d="M27 26h1v1h-1z" /><path fill="#ea89a0" d="M39 26h1v1h-1z" /><path fill="#e6748f" d="M27 27h1v1h-1z" /><path fill="#fffefe" d="M38 27h1v1h-1zM42 38h1v1h-1zM74 38h1v1h-1zM19 42h1v1h-1zM35 42h1v1h-1zM34 46h1v1h-1zM56 48h1v1h-1zM33 50h1v1h-1z" /><path fill="#e15374" d="M39 27h1v1h-1zM31 31h1v1h-1zM57 39h1v1h-1zM30 67h1v1h-1zM78 76h1v1h-1z" /><path fill="#f8dae1" d="M28 28h1v1h-1zM51 67h1v1h-1zM50 71h1v1h-1z" /><path fill="#f3bac7" d="M38 28h1v1h-1z" /><path fill="#e15777" d="M28 29h1v1h-1z" /><path fill="#fceef1" d="M29 29h1v1h-1zM68 55h1v1h-1z" /><path fill="#f9dde3" d="M37 29h1v1h-1zM85 65h1v1h-1z" /><path fill="#de466a" d="M38 29h1v1h-1zM65 36h1v1h-1zM33 54h1v1h-1zM42 62h1v1h-1zM53 62h1v1h-1zM52 66h1v1h-1z" /><path fill="#e05072" d="M29 30h1v1h-1zM79 68h1v1h-1zM35 69h1v1h-1z" /><path fill="#f5c5d0" d="M30 30h1v1h-1z" /><path fill="#fefcfc" d="M35 30h1v1h-1zM25 46h1v1h-1zM47 46h1v1h-1zM46 50h1v1h-1zM45 54h1v1h-1zM44 58h1v1h-1zM76 59h1v1h-1zM30 62h1v1h-1zM43 62h1v1h-1zM74 76h1v1h-1z" /><path fill="#f1b1c0" d="M36 30h1v1h-1zM66 61h1v1h-1zM83 64h1v1h-1zM65 65h1v1h-1zM79 75h1v1h-1z" /><path fill="#de4468" d="M37 30h1v1h-1zM46 46h1v1h-1zM58 47h1v1h-1zM44 54h1v1h-1zM66 59h1v1h-1zM31 62h1v1h-1zM38 73h1v1h-1zM69 76h1v1h-1z" /><path fill="#e9829a" d="M32 31h1v1h-1zM79 47h1v1h-1z" /><path fill="#ec91a6" d="M33 31h1v1h-1z" /><path fill="#df4a6d" d="M35 31h1v1h-1zM37 68h1v1h-1zM24 76h1v1h-1z" /><path fill="#e98099" d="M66 36h1v1h-1zM41 39h1v1h-1zM18 43h1v1h-1z" /><path fill="#f0adbc" d="M67 36h1v1h-1z" /><path fill="#f4c2ce" d="M68 36h1v1h-1zM20 69h1v1h-1z" /><path fill="#f5c6d1" d="M69 36h1v1h-1zM21 61h1v1h-1z" /><path fill="#f2b5c3" d="M70 36h1v1h-1z" /><path fill="#ec95aa" d="M71 36h1v1h-1zM62 38h1v1h-1zM21 60h1v1h-1z" /><path fill="#e25c7b" d="M72 36h1v1h-1zM40 42h1v1h-1z" /><path fill="#f9dbe2" d="M42 37h1v1h-1zM19 41h1v1h-1zM33 51h1v1h-1zM79 69h1v1h-1zM49 75h1v1h-1z" /><path fill="#f0a9b9" d="M57 37h1v1h-1zM50 72h1v1h-1z" /><path fill="#e15475" d="M63 37h1v1h-1zM68 52h1v1h-1z" /><path fill="#f2b4c2" d="M64 37h1v1h-1z" /><path fill="#fefbfc" d="M65 37h1v1h-1zM66 44h1v1h-1zM67 59h1v1h-1zM83 70h1v1h-1zM78 75h1v1h-1zM28 76h1v1h-1z" /><path fill="#f7d4dc" d="M73 37h1v1h-1zM85 66h1v1h-1zM38 72h1v1h-1z" /><path fill="#dd3f64" d="M19 38h1v1h-1zM79 44h1v1h-1zM68 48h1v1h-1zM20 72h1v1h-1zM83 72h1v1h-1zM39 74h1v1h-1z" /><path fill="#fef8f9" d="M20 38h1v1h-1zM23 54h1v1h-1z" /><path fill="#e04d6f" d="M37 38h1v1h-1z" /><path fill="#df4b6d" d="M41 38h1v1h-1zM36 42h1v1h-1z" /><path fill="#dd3c62" d="M61 38h1v1h-1zM21 58h1v1h-1zM82 63h1v1h-1zM31 69h1v1h-1z" /><path fill="#fefafb" d="M63 38h1v1h-1zM69 48h1v1h-1zM24 50h1v1h-1z" /><path fill="#efa3b4" d="M75 38h1v1h-1zM42 63h1v1h-1z" /><path fill="#e66f8b" d="M19 39h1v1h-1z" /><path fill="#fae0e6" d="M36 39h1v1h-1zM57 47h1v1h-1z" /><path fill="#df496c" d="M60 39h1v1h-1zM35 46h1v1h-1zM34 50h1v1h-1z" /><path fill="#f7d1da" d="M61 39h1v1h-1zM24 49h1v1h-1z" /><path fill="#f0a8b9" d="M76 39h1v1h-1zM33 52h1v1h-1zM20 65h1v1h-1zM51 68h1v1h-1z" /><path fill="#efa6b7" d="M19 40h1v1h-1zM64 44h1v1h-1zM32 56h1v1h-1zM54 56h1v1h-1zM53 60h1v1h-1zM40 66h1v1h-1z" /><path fill="#f2b6c4" d="M41 40h1v1h-1zM18 44h1v1h-1z" /><path fill="#fcedf1" d="M56 40h1v1h-1zM56 45h1v1h-1z" /><path fill="#e15676" d="M59 40h1v1h-1z" /><path fill="#fae5ea" d="M60 40h1v1h-1zM69 49h1v1h-1zM69 50h1v1h-1zM31 70h1v1h-1zM72 76h1v1h-1z" /><path fill="#e87b94" d="M77 40h1v1h-1z" /><path fill="#e87c95" d="M36 41h1v1h-1z" /><path fill="#dc3a60" d="M40 41h1v1h-1zM56 51h1v1h-1zM38 67h1v1h-1zM22 75h1v1h-1z" /><path fill="#fcecef" d="M41 41h1v1h-1zM75 76h1v1h-1z" /><path fill="#f4c1cd" d="M56 41h1v1h-1zM56 49h1v1h-1z" /><path fill="#e04e70" d="M58 41h1v1h-1z" /><path fill="#fbe7ec" d="M59 41h1v1h-1zM55 45h1v1h-1z" /><path fill="#df4c6e" d="M18 42h1v1h-1zM81 64h1v1h-1zM85 68h1v1h-1z" /><path fill="#ed97ab" d="M56 42h1v1h-1z" /><path fill="#de4367" d="M57 42h1v1h-1zM24 46h1v1h-1zM59 46h1v1h-1zM45 50h1v1h-1zM43 58h1v1h-1z" /><path fill="#f9dee5" d="M58 42h1v1h-1z" /><path fill="#ea879e" d="M78 42h1v1h-1zM65 64h1v1h-1z" /><path fill="#f9dee4" d="M35 43h1v1h-1zM59 45h1v1h-1zM34 70h1v1h-1zM82 72h1v1h-1z" /><path fill="#ec92a7" d="M40 43h1v1h-1z" /><path fill="#f2b8c5" d="M57 43h1v1h-1z" /><path fill="#f0acbc" d="M35 44h1v1h-1zM55 52h1v1h-1zM36 74h1v1h-1z" /><path fill="#f5c7d2" d="M40 44h1v1h-1z" /><path fill="#fffdfd" d="M55 44h1v1h-1zM54 54h1v1h-1zM31 58h1v1h-1zM53 58h1v1h-1z" /><path fill="#ea8ba1" d="M56 44h1v1h-1zM75 65h1v1h-1z" /><path fill="#fae3e8" d="M61 44h1v1h-1z" /><path fill="#f1b2c1" d="M62 44h1v1h-1z" /><path fill="#ee9fb1" d="M63 44h1v1h-1z" /><path fill="#f5c9d3" d="M65 44h1v1h-1z" /><path fill="#fef9fa" d="M78 44h1v1h-1zM42 64h1v1h-1zM84 68h1v1h-1zM41 70h1v1h-1zM40 74h1v1h-1z" /><path fill="#f8d6de" d="M25 45h1v1h-1zM30 63h1v1h-1z" /><path fill="#e87a94" d="M35 45h1v1h-1z" /><path fill="#f8d5dd" d="M47 45h1v1h-1zM46 49h1v1h-1zM45 53h1v1h-1zM44 57h1v1h-1zM43 61h1v1h-1zM65 69h1v1h-1zM76 70h1v1h-1zM34 75h1v1h-1zM31 76h1v1h-1z" /><path fill="#e56d89" d="M60 45h1v1h-1z" /><path fill="#e05172" d="M66 45h1v1h-1zM82 73h1v1h-1z" /><path fill="#f6ced7" d="M67 45h1v1h-1z" /><path fill="#e36280" d="M79 45h1v1h-1zM30 66h1v1h-1z" /><path fill="#dd4065" d="M67 46h1v1h-1zM86 65h1v1h-1z" /><path fill="#e6728d" d="M79 46h1v1h-1zM46 47h1v1h-1zM45 51h1v1h-1zM44 55h1v1h-1zM43 59h1v1h-1z" /><path fill="#e6718c" d="M24 47h1v1h-1z" /><path fill="#e77690" d="M68 47h1v1h-1zM53 61h1v1h-1z" /><path fill="#eea1b3" d="M24 48h1v1h-1z" /><path fill="#f0aabb" d="M34 48h1v1h-1zM30 64h1v1h-1z" /><path fill="#efa4b6" d="M46 48h1v1h-1z" /><path fill="#e46683" d="M57 48h1v1h-1z" /><path fill="#e9839b" d="M79 48h1v1h-1z" /><path fill="#e77992" d="M34 49h1v1h-1zM77 58h1v1h-1z" /><path fill="#e7758f" d="M79 49h1v1h-1zM55 53h1v1h-1zM32 57h1v1h-1zM54 57h1v1h-1z" /><path fill="#dd4165" d="M23 50h1v1h-1z" /><path fill="#e56b88" d="M56 50h1v1h-1zM40 71h1v1h-1zM49 76h1v1h-1z" /><path fill="#e46583" d="M79 50h1v1h-1z" /><path fill="#e56c88" d="M23 51h1v1h-1z" /><path fill="#fbe6eb" d="M55 51h1v1h-1zM78 52h1v1h-1z" /><path fill="#fdf3f6" d="M69 51h1v1h-1zM21 62h1v1h-1zM37 69h1v1h-1zM30 76h1v1h-1z" /><path fill="#df4c6f" d="M79 51h1v1h-1z" /><path fill="#ee9db0" d="M23 52h1v1h-1z" /><path fill="#efa3b5" d="M45 52h1v1h-1zM44 56h1v1h-1zM43 60h1v1h-1z" /><path fill="#f6cdd7" d="M23 53h1v1h-1zM40 73h1v1h-1z" /><path fill="#e77791" d="M33 53h1v1h-1zM51 69h1v1h-1zM50 73h1v1h-1z" /><path fill="#e98199" d="M68 53h1v1h-1zM30 65h1v1h-1z" /><path fill="#f3bbc8" d="M78 53h1v1h-1zM75 64h1v1h-1zM32 70h1v1h-1z" /><path fill="#fffdfe" d="M32 54h1v1h-1zM52 62h1v1h-1zM51 66h1v1h-1zM35 70h1v1h-1zM50 70h1v1h-1zM49 74h1v1h-1z" /><path fill="#de4569" d="M55 54h1v1h-1zM32 58h1v1h-1zM54 58h1v1h-1zM77 59h1v1h-1z" /><path fill="#f3b8c6" d="M68 54h1v1h-1zM65 70h1v1h-1z" /><path fill="#eb8ea3" d="M78 54h1v1h-1zM68 75h1v1h-1z" /><path fill="#e46885" d="M22 55h1v1h-1z" /><path fill="#f8d8e0" d="M32 55h1v1h-1zM53 59h1v1h-1z" /><path fill="#f8d7df" d="M54 55h1v1h-1z" /><path fill="#e15878" d="M78 55h1v1h-1z" /><path fill="#e36180" d="M67 56h1v1h-1z" /><path fill="#fbe8ed" d="M77 56h1v1h-1z" /><path fill="#f6c9d4" d="M22 57h1v1h-1zM26 76h1v1h-1z" /><path fill="#f1b0bf" d="M77 57h1v1h-1zM84 69h1v1h-1zM67 74h1v1h-1z" /><path fill="#fdf5f7" d="M22 58h1v1h-1zM73 76h1v1h-1z" /><path fill="#f7d0d9" d="M67 58h1v1h-1zM76 60h1v1h-1zM20 68h1v1h-1zM37 73h1v1h-1zM76 76h1v1h-1z" /><path fill="#f8d7de" d="M31 59h1v1h-1z" /><path fill="#e77993" d="M66 60h1v1h-1z" /><path fill="#e6738e" d="M31 61h1v1h-1z" /><path fill="#dc3b61" d="M20 62h1v1h-1zM40 65h1v1h-1zM29 77h1v1h-1z" /><path fill="#fbe8ec" d="M66 62h1v1h-1z" /><path fill="#e36381" d="M76 62h1v1h-1zM33 76h1v1h-1z" /><path fill="#f8d9e0" d="M52 63h1v1h-1z" /><path fill="#e25979" d="M65 63h1v1h-1z" /><path fill="#fceff2" d="M75 63h1v1h-1zM82 64h1v1h-1z" /><path fill="#ea869d" d="M20 64h1v1h-1z" /><path fill="#e05273" d="M41 64h1v1h-1zM75 67h1v1h-1z" /><path fill="#efa7b8" d="M52 64h1v1h-1zM20 70h1v1h-1zM32 76h1v1h-1z" /><path fill="#f5c8d2" d="M41 65h1v1h-1zM77 70h1v1h-1z" /><path fill="#e77691" d="M52 65h1v1h-1z" /><path fill="#ed9caf" d="M81 65h1v1h-1zM39 67h1v1h-1z" /><path fill="#f4c0cc" d="M20 66h1v1h-1z" /><path fill="#f6cfd8" d="M65 66h1v1h-1z" /><path fill="#fcecf0" d="M81 66h1v1h-1zM21 72h1v1h-1zM27 76h1v1h-1z" /><path fill="#eb8ba2" d="M80 67h1v1h-1zM21 73h1v1h-1zM70 76h1v1h-1z" /><path fill="#eb90a5" d="M85 67h1v1h-1z" /><path fill="#e35e7d" d="M30 68h1v1h-1z" /><path fill="#f3beca" d="M38 68h1v1h-1z" /><path fill="#fae2e8" d="M65 68h1v1h-1zM80 74h1v1h-1z" /><path fill="#fdf1f4" d="M80 68h1v1h-1zM66 72h1v1h-1z" /><path fill="#f2b7c5" d="M30 69h1v1h-1zM22 74h1v1h-1z" /><path fill="#ed9bae" d="M36 69h1v1h-1z" /><path fill="#f0abbb" d="M75 69h1v1h-1z" /><path fill="#f4bfcb" d="M33 70h1v1h-1z" /><path fill="#ec95a9" d="M40 70h1v1h-1z" /><path fill="#de476a" d="M51 70h1v1h-1zM50 74h1v1h-1z" /><path fill="#fdf6f8" d="M78 70h1v1h-1z" /><path fill="#e15576" d="M84 70h1v1h-1z" /><path fill="#e77892" d="M20 71h1v1h-1z" /><path fill="#f3bdca" d="M39 71h1v1h-1z" /><path fill="#e9859c" d="M65 71h1v1h-1z" /><path fill="#ee9fb2" d="M83 71h1v1h-1z" /><path fill="#de4266" d="M39 72h1v1h-1z" /><path fill="#de4267" d="M65 72h1v1h-1z" /><path fill="#eb8ca2" d="M66 73h1v1h-1z" /><path fill="#fbebef" d="M81 73h1v1h-1z" /><path fill="#e25a7a" d="M81 74h1v1h-1zM39 76h1v1h-1z" /><path fill="#ed99ac" d="M23 75h1v1h-1z" /><path fill="#e56986" d="M35 75h1v1h-1z" /><path fill="#e56a87" d="M39 75h1v1h-1z" /><path fill="#fdf2f4" d="M69 75h1v1h-1z" /><path fill="#de4568" d="M80 75h1v1h-1z" /><path fill="#ec96aa" d="M25 76h1v1h-1z" /><path fill="#ea889f" d="M40 76h9v1h-9z" /><path fill="#f4bfcc" d="M71 76h1v1h-1z" /><path fill="#ed9aad" d="M77 76h1v1h-1z" /><path fill="#db385e" d="M99 91h1v1h-1z" /></svg>