<svg xmlns="http://www.w3.org/2000/svg" viewBox="0 0 100 100" width="1em" height="1em"><path fill="#387fff" d="M43 0h1v1h-1zM53 0h1v1h-1zM35 2h1v1h-1zM30 4h1v1h-1zM69 4h2v1h-2zM26 6h1v1h-1zM24 7h1v1h-1zM71 7h1v1h-1zM70 8h1v1h-1zM42 9h1v1h-1zM58 9h1v1h-1zM20 10h1v1h-1zM39 10h1v1h-1zM77 10h1v1h-1zM33 12h1v1h-1zM73 15h1v1h-1zM25 16h2v1h-2zM92 16h1v1h-1zM22 19h1v1h-1zM10 20h1v1h-1zM92 20h1v1h-1zM19 22h1v1h-1zM73 22h1v1h-1zM7 24h1v1h-1zM16 25h1v1h-1zM6 26h1v1h-1zM16 26h1v1h-1zM76 26h1v1h-1zM89 26h1v1h-1zM43 28h1v1h-1zM86 28h1v1h-1zM41 29h1v1h-1zM58 29h1v1h-1zM4 30h1v1h-1zM62 31h1v1h-1zM2 35h1v1h-1zM11 35h1v1h-1zM88 35h1v1h-1zM97 36h1v1h-1zM1 39h1v1h-1zM70 40h1v1h-1zM98 40h1v1h-1zM29 41h1v1h-1zM70 41h1v1h-1zM90 41h1v1h-1zM9 42h1v1h-1zM0 43h1v1h-1zM28 43h1v1h-1zM71 44h1v1h-1zM99 44h1v1h-1zM99 46h1v1h-1zM72 47h1v1h-1zM99 47h1v1h-1zM72 49h1v1h-1zM72 50h1v1h-1zM72 52h1v1h-1zM99 52h1v1h-1zM28 55h1v1h-1zM71 55h1v1h-1zM99 55h1v1h-1zM90 56h1v1h-1zM9 57h1v1h-1zM29 58h1v1h-1zM70 58h1v1h-1zM90 58h1v1h-1zM1 60h1v1h-1zM69 60h1v1h-1zM89 61h1v1h-1zM31 62h1v1h-1zM2 63h1v1h-1zM97 63h1v1h-1zM67 64h1v1h-1zM66 65h1v1h-1zM3 66h1v1h-1zM65 66h1v1h-1zM96 66h1v1h-1zM63 67h2v1h-2zM4 69h1v1h-1zM60 69h1v1h-1zM14 70h1v1h-1zM41 70h1v1h-1zM58 70h1v1h-1zM85 70h1v1h-1zM55 71h1v1h-1zM48 72h5v1h-5zM83 73h1v1h-1zM6 74h1v1h-1zM90 78h1v1h-1zM78 79h1v1h-1zM22 80h1v1h-1zM23 81h1v1h-1zM75 82h1v1h-1zM87 82h1v1h-1zM13 83h1v1h-1zM73 83h1v1h-1zM72 84h1v1h-1zM85 84h1v1h-1zM15 85h1v1h-1zM70 85h1v1h-1zM31 86h1v1h-1zM67 87h1v1h-1zM35 88h1v1h-1zM19 89h1v1h-1zM39 89h1v1h-1zM41 90h2v1h-2zM44 90h1v1h-1zM55 90h1v1h-1zM58 90h1v1h-1zM78 90h1v1h-1zM30 95h1v1h-1zM33 96h1v1h-1zM66 96h1v1h-1zM63 97h1v1h-1zM61 98h1v1h-1zM44 99h1v1h-1zM46 99h1v1h-1zM53 99h1v1h-1zM55 99h1v1h-1z" /><path fill="#377fff" d="M44 0h1v1h-1zM46 0h1v1h-1zM48 0h1v1h-1zM52 0h1v1h-1zM54 0h1v1h-1zM32 3h1v1h-1zM29 4h1v1h-1zM28 5h1v1h-1zM44 9h1v1h-1zM56 9h1v1h-1zM79 9h1v1h-1zM88 10h1v1h-1zM18 11h1v1h-1zM75 11h1v1h-1zM89 11h1v1h-1zM17 12h1v1h-1zM16 13h1v1h-1zM29 14h1v1h-1zM91 14h1v1h-1zM13 16h1v1h-1zM11 18h1v1h-1zM23 18h1v1h-1zM72 18h1v1h-1zM73 23h1v1h-1zM17 24h1v1h-1zM74 24h1v1h-1zM75 25h1v1h-1zM15 27h1v1h-1zM48 27h1v1h-1zM51 27h1v1h-1zM77 27h1v1h-1zM87 27h1v1h-1zM5 28h1v1h-1zM85 28h1v1h-1zM4 29h1v1h-1zM14 29h1v1h-1zM59 29h1v1h-1zM92 31h1v1h-1zM12 32h1v1h-1zM90 32h1v1h-1zM97 35h1v1h-1zM10 38h1v1h-1zM9 44h1v1h-1zM0 45h1v1h-1zM27 47h1v1h-1zM99 49h1v1h-1zM99 50h1v1h-1zM27 52h1v1h-1zM0 54h1v1h-1zM99 54h1v1h-1zM0 55h1v1h-1zM9 55h1v1h-1zM71 56h1v1h-1zM90 57h1v1h-1zM29 59h1v1h-1zM89 60h1v1h-1zM98 60h1v1h-1zM1 61h1v1h-1zM10 61h1v1h-1zM68 62h1v1h-1zM97 64h1v1h-1zM35 67h1v1h-1zM62 68h1v1h-1zM86 68h1v1h-1zM86 69h1v1h-1zM40 70h1v1h-1zM56 71h1v1h-1zM94 71h1v1h-1zM93 73h1v1h-1zM81 76h1v1h-1zM19 77h1v1h-1zM80 77h1v1h-1zM9 78h1v1h-1zM20 78h1v1h-1zM79 78h1v1h-1zM10 79h1v1h-1zM10 80h1v1h-1zM77 80h1v1h-1zM86 83h1v1h-1zM30 86h1v1h-1zM69 86h1v1h-1zM83 86h1v1h-1zM33 87h1v1h-1zM18 88h1v1h-1zM64 88h1v1h-1zM37 89h1v1h-1zM62 89h1v1h-1zM43 90h1v1h-1zM73 93h1v1h-1zM71 94h1v1h-1zM32 96h1v1h-1zM64 97h1v1h-1zM43 99h1v1h-1zM45 99h1v1h-1zM54 99h1v1h-1zM56 99h1v1h-1z" /><path fill="#3880ff" d="M45 0h1v1h-1zM47 0h1v1h-1zM49 0h3v1h-3zM55 0h1v1h-1zM39 1h21v1h-21zM61 1h1v1h-1zM34 2h1v1h-1zM36 2h30v1h-30zM33 3h35v1h-35zM31 4h38v1h-38zM29 5h44v1h-44zM25 6h1v1h-1zM27 6h46v1h-46zM25 7h46v1h-46zM23 8h47v1h-47zM82 8h1v1h-1zM21 9h21v1h-21zM43 9h1v1h-1zM55 9h1v1h-1zM57 9h1v1h-1zM59 9h10v1h-10zM80 9h6v1h-6zM21 10h16v1h-16zM60 10h1v1h-1zM62 10h8v1h-8zM78 10h10v1h-10zM19 11h16v1h-16zM65 11h4v1h-4zM76 11h13v1h-13zM18 12h15v1h-15zM67 12h1v1h-1zM75 12h16v1h-16zM17 13h14v1h-14zM74 13h17v1h-17zM16 14h13v1h-13zM73 14h18v1h-18zM15 15h12v1h-12zM74 15h19v1h-19zM14 16h11v1h-11zM73 16h19v1h-19zM13 17h12v1h-12zM73 17h19v1h-19zM12 18h11v1h-11zM73 18h20v1h-20zM11 19h11v1h-11zM72 19h21v1h-21zM11 20h11v1h-11zM73 20h19v1h-19zM9 21h12v1h-12zM73 21h20v1h-20zM9 22h10v1h-10zM74 22h18v1h-18zM8 23h10v1h-10zM74 23h18v1h-18zM8 24h9v1h-9zM75 24h16v1h-16zM6 25h10v1h-10zM76 25h15v1h-15zM7 26h9v1h-9zM77 26h12v1h-12zM6 27h9v1h-9zM47 27h1v1h-1zM49 27h2v1h-2zM52 27h1v1h-1zM78 27h9v1h-9zM6 28h9v1h-9zM44 28h13v1h-13zM80 28h5v1h-5zM5 29h9v1h-9zM42 29h16v1h-16zM5 30h9v1h-9zM39 30h23v1h-23zM93 30h2v1h-2zM4 31h9v1h-9zM37 31h25v1h-25zM93 31h3v1h-3zM3 32h9v1h-9zM35 32h29v1h-29zM91 32h6v1h-6zM3 33h10v1h-10zM34 33h31v1h-31zM88 33h9v1h-9zM2 34h10v1h-10zM33 34h33v1h-33zM88 34h10v1h-10zM3 35h8v1h-8zM32 35h35v1h-35zM89 35h8v1h-8zM2 36h9v1h-9zM32 36h36v1h-36zM89 36h8v1h-8zM2 37h8v1h-8zM31 37h37v1h-37zM89 37h9v1h-9zM2 38h8v1h-8zM31 38h38v1h-38zM89 38h9v1h-9zM2 39h8v1h-8zM30 39h40v1h-40zM89 39h9v1h-9zM1 40h9v1h-9zM30 40h40v1h-40zM90 40h8v1h-8zM1 41h9v1h-9zM30 41h40v1h-40zM91 41h8v1h-8zM1 42h8v1h-8zM29 42h42v1h-42zM91 42h8v1h-8zM1 43h9v1h-9zM29 43h42v1h-42zM90 43h9v1h-9zM1 44h8v1h-8zM28 44h43v1h-43zM90 44h9v1h-9zM1 45h8v1h-8zM28 45h44v1h-44zM91 45h9v1h-9zM1 46h8v1h-8zM28 46h44v1h-44zM91 46h8v1h-8zM0 47h9v1h-9zM28 47h44v1h-44zM91 47h8v1h-8zM1 48h8v1h-8zM28 48h45v1h-45zM91 48h9v1h-9zM0 49h9v1h-9zM27 49h45v1h-45zM91 49h8v1h-8zM0 50h9v1h-9zM27 50h45v1h-45zM91 50h8v1h-8zM1 51h8v1h-8zM28 51h45v1h-45zM91 51h9v1h-9zM0 52h9v1h-9zM28 52h44v1h-44zM91 52h8v1h-8zM1 53h8v1h-8zM28 53h44v1h-44zM91 53h9v1h-9zM1 54h8v1h-8zM28 54h44v1h-44zM91 54h8v1h-8zM1 55h8v1h-8zM29 55h42v1h-42zM91 55h8v1h-8zM0 56h10v1h-10zM28 56h43v1h-43zM91 56h8v1h-8zM1 57h8v1h-8zM29 57h42v1h-42zM91 57h8v1h-8zM1 58h9v1h-9zM30 58h40v1h-40zM91 58h8v1h-8zM1 59h9v1h-9zM30 59h40v1h-40zM90 59h9v1h-9zM2 60h8v1h-8zM30 60h39v1h-39zM90 60h8v1h-8zM2 61h8v1h-8zM30 61h40v1h-40zM90 61h9v1h-9zM2 62h8v1h-8zM32 62h36v1h-36zM89 62h9v1h-9zM3 63h8v1h-8zM32 63h36v1h-36zM89 63h8v1h-8zM2 64h9v1h-9zM33 64h34v1h-34zM89 64h8v1h-8zM3 65h9v1h-9zM34 65h32v1h-32zM88 65h9v1h-9zM4 66h8v1h-8zM35 66h30v1h-30zM88 66h8v1h-8zM4 67h9v1h-9zM36 67h27v1h-27zM88 67h9v1h-9zM4 68h10v1h-10zM38 68h24v1h-24zM87 68h9v1h-9zM5 69h9v1h-9zM39 69h21v1h-21zM61 69h1v1h-1zM87 69h8v1h-8zM4 70h10v1h-10zM42 70h16v1h-16zM86 70h9v1h-9zM6 71h9v1h-9zM44 71h11v1h-11zM85 71h9v1h-9zM5 72h11v1h-11zM47 72h1v1h-1zM84 72h11v1h-11zM6 73h10v1h-10zM84 73h9v1h-9zM7 74h10v1h-10zM83 74h11v1h-11zM7 75h10v1h-10zM82 75h10v1h-10zM8 76h11v1h-11zM82 76h10v1h-10zM8 77h11v1h-11zM81 77h11v1h-11zM10 78h10v1h-10zM80 78h10v1h-10zM11 79h10v1h-10zM79 79h11v1h-11zM11 80h11v1h-11zM78 80h11v1h-11zM12 81h11v1h-11zM76 81h13v1h-13zM12 82h13v1h-13zM76 82h11v1h-11zM14 83h12v1h-12zM74 83h12v1h-12zM15 84h12v1h-12zM73 84h12v1h-12zM16 85h13v1h-13zM71 85h14v1h-14zM17 86h13v1h-13zM68 86h1v1h-1zM70 86h13v1h-13zM17 87h16v1h-16zM66 87h1v1h-1zM68 87h14v1h-14zM19 88h16v1h-16zM65 88h17v1h-17zM20 89h17v1h-17zM61 89h1v1h-1zM63 89h17v1h-17zM22 90h19v1h-19zM59 90h19v1h-19zM23 91h55v1h-55zM24 92h52v1h-52zM26 93h47v1h-47zM74 93h1v1h-1zM27 94h44v1h-44zM72 94h1v1h-1zM31 95h38v1h-38zM70 95h1v1h-1zM34 96h32v1h-32zM67 96h1v1h-1zM36 97h27v1h-27zM38 98h23v1h-23zM47 99h1v1h-1zM49 99h2v1h-2zM52 99h1v1h-1z" /><path fill="#3780ff" d="M56 0h1v1h-1zM38 1h1v1h-1zM60 1h1v1h-1zM27 5h1v1h-1zM22 8h1v1h-1zM69 9h1v1h-1zM78 9h1v1h-1zM86 9h1v1h-1zM19 10h1v1h-1zM37 10h2v1h-2zM61 10h1v1h-1zM35 11h1v1h-1zM64 11h1v1h-1zM66 12h1v1h-1zM31 13h1v1h-1zM91 13h1v1h-1zM15 14h1v1h-1zM14 15h1v1h-1zM27 15h1v1h-1zM12 17h1v1h-1zM72 17h1v1h-1zM92 17h1v1h-1zM10 19h1v1h-1zM72 20h1v1h-1zM8 22h1v1h-1zM18 23h1v1h-1zM5 27h1v1h-1zM42 28h1v1h-1zM79 28h1v1h-1zM40 29h1v1h-1zM94 29h2v1h-2zM38 30h1v1h-1zM95 30h1v1h-1zM13 31h1v1h-1zM64 32h1v1h-1zM65 33h1v1h-1zM66 34h1v1h-1zM67 35h1v1h-1zM10 37h1v1h-1zM68 37h1v1h-1zM1 38h1v1h-1zM30 38h1v1h-1zM69 38h1v1h-1zM98 38h1v1h-1zM10 39h1v1h-1zM98 39h1v1h-1zM29 40h1v1h-1zM28 42h1v1h-1zM90 42h1v1h-1zM71 43h1v1h-1zM99 43h1v1h-1zM0 44h1v1h-1zM0 46h1v1h-1zM0 48h1v1h-1zM27 48h1v1h-1zM0 51h1v1h-1zM27 51h1v1h-1zM0 53h1v1h-1zM90 55h1v1h-1zM99 56h1v1h-1zM70 59h1v1h-1zM10 60h1v1h-1zM10 62h1v1h-1zM11 64h1v1h-1zM32 64h1v1h-1zM88 64h1v1h-1zM2 65h1v1h-1zM33 65h1v1h-1zM12 66h1v1h-1zM34 66h1v1h-1zM87 66h1v1h-1zM3 67h1v1h-1zM87 67h1v1h-1zM37 68h1v1h-1zM38 69h1v1h-1zM95 69h1v1h-1zM59 70h1v1h-1zM95 70h1v1h-1zM5 71h1v1h-1zM43 71h1v1h-1zM16 73h1v1h-1zM17 75h1v1h-1zM92 75h1v1h-1zM21 79h1v1h-1zM11 81h1v1h-1zM26 83h1v1h-1zM14 84h1v1h-1zM27 84h1v1h-1zM29 85h1v1h-1zM16 86h1v1h-1zM82 87h1v1h-1zM38 89h1v1h-1zM60 89h1v1h-1zM80 89h1v1h-1zM21 90h1v1h-1zM56 90h2v1h-2zM22 91h1v1h-1zM25 93h1v1h-1zM69 95h1v1h-1zM35 97h1v1h-1zM48 99h1v1h-1zM51 99h1v1h-1z" /></svg>