<svg xmlns="http://www.w3.org/2000/svg" viewBox="0 0 100 100" width="1em" height="1em"><path fill="#f0037e" d="M43 0h1v1h-1zM47 0h1v1h-1zM38 1h2v1h-2zM34 2h1v1h-1zM32 3h1v1h-1zM27 5h1v1h-1zM18 11h1v1h-1zM12 17h1v1h-1zM11 18h1v1h-1zM3 32h1v1h-1zM2 34h1v1h-1zM0 43h1v1h-1zM0 46h1v1h-1zM0 53h1v1h-1zM99 53h1v1h-1zM0 56h1v1h-1zM3 67h1v1h-1zM94 72h1v1h-1zM93 74h1v1h-1zM8 77h1v1h-1zM11 81h1v1h-1zM12 82h1v1h-1zM82 87h1v1h-1zM80 89h1v1h-1zM70 95h1v1h-1zM38 98h1v1h-1zM47 99h1v1h-1zM52 99h1v1h-1z" /><path fill="#f0047e" d="M44 0h1v1h-1zM21 9h1v1h-1zM15 14h1v1h-1zM14 15h1v1h-1zM8 22h1v1h-1zM5 27h1v1h-1zM1 39h1v1h-1zM0 44h1v1h-1zM0 55h1v1h-1zM99 55h1v1h-1zM1 60h1v1h-1zM91 77h1v1h-1zM90 78h1v1h-1zM15 85h1v1h-1zM78 90h1v1h-1zM22 91h1v1h-1zM77 91h1v1h-1zM24 92h1v1h-1zM30 95h1v1h-1zM44 99h1v1h-1zM55 99h1v1h-1z" /><path fill="#ef037e" d="M45 0h1v1h-1zM35 2h1v1h-1zM29 4h1v1h-1zM25 6h1v1h-1zM19 10h1v1h-1zM10 19h1v1h-1zM4 29h1v1h-1zM2 35h1v1h-1zM0 45h1v1h-1zM0 54h1v1h-1zM97 64h1v1h-1zM96 67h1v1h-1zM10 80h1v1h-1zM17 87h1v1h-1zM19 89h1v1h-1zM27 94h1v1h-1zM29 95h1v1h-1zM67 96h1v1h-1zM34 97h2v1h-2zM64 97h1v1h-1zM43 99h1v1h-1zM45 99h1v1h-1z" /><path fill="#f0037f" d="M46 0h1v1h-1zM22 8h1v1h-1zM99 52h1v1h-1zM98 60h1v1h-1zM98 61h1v1h-1zM2 65h1v1h-1zM89 80h1v1h-1zM87 82h1v1h-1zM18 88h1v1h-1zM74 93h1v1h-1zM39 98h1v1h-1zM46 99h1v1h-1zM53 99h1v1h-1z" /><path fill="#f0047f" d="M48 0h1v1h-1zM50 0h50v1h-50zM40 1h60v1h-60zM36 2h64v1h-64zM33 3h67v1h-67zM30 4h70v1h-70zM29 5h71v1h-71zM27 6h73v1h-73zM25 7h75v1h-75zM23 8h77v1h-77zM22 9h78v1h-78zM20 10h80v1h-80zM19 11h81v1h-81zM18 12h82v1h-82zM17 13h83v1h-83zM16 14h84v1h-84zM15 15h85v1h-85zM14 16h86v1h-86zM13 17h36v1h-36zM83 17h17v1h-17zM12 18h37v1h-37zM83 18h17v1h-17zM11 19h38v1h-38zM83 19h17v1h-17zM10 20h39v1h-39zM83 20h17v1h-17zM9 21h40v1h-40zM83 21h17v1h-17zM9 22h40v1h-40zM83 22h17v1h-17zM8 23h41v1h-41zM83 23h17v1h-17zM8 24h41v1h-41zM83 24h17v1h-17zM7 25h42v1h-42zM83 25h17v1h-17zM7 26h42v1h-42zM83 26h17v1h-17zM6 27h43v1h-43zM83 27h17v1h-17zM6 28h43v1h-43zM83 28h17v1h-17zM5 29h44v1h-44zM83 29h17v1h-17zM5 30h44v1h-44zM83 30h17v1h-17zM4 31h45v1h-45zM83 31h17v1h-17zM4 32h45v1h-45zM83 32h17v1h-17zM3 33h46v1h-46zM83 33h17v1h-17zM3 34h46v1h-46zM83 34h17v1h-17zM3 35h46v1h-46zM83 35h17v1h-17zM2 36h47v1h-47zM83 36h17v1h-17zM2 37h47v1h-47zM83 37h17v1h-17zM1 38h48v1h-48zM83 38h17v1h-17zM2 39h47v1h-47zM83 39h17v1h-17zM1 40h48v1h-48zM83 40h17v1h-17zM1 41h48v1h-48zM83 41h17v1h-17zM1 42h48v1h-48zM83 42h17v1h-17zM1 43h48v1h-48zM83 43h17v1h-17zM1 44h48v1h-48zM83 44h17v1h-17zM1 45h48v1h-48zM83 45h17v1h-17zM1 46h48v1h-48zM83 46h17v1h-17zM0 47h49v1h-49zM83 47h17v1h-17zM1 48h48v1h-48zM83 48h17v1h-17zM1 49h48v1h-48zM83 49h17v1h-17zM1 50h48v1h-48zM83 50h16v1h-16zM1 51h98v1h-98zM0 52h10v1h-10zM48 52h1v1h-1zM83 52h16v1h-16zM1 53h9v1h-9zM48 53h1v1h-1zM83 53h16v1h-16zM1 54h9v1h-9zM48 54h1v1h-1zM83 54h16v1h-16zM1 55h10v1h-10zM48 55h1v1h-1zM83 55h16v1h-16zM1 56h10v1h-10zM48 56h1v1h-1zM83 56h16v1h-16zM1 57h10v1h-10zM48 57h1v1h-1zM83 57h16v1h-16zM1 58h10v1h-10zM48 58h1v1h-1zM83 58h16v1h-16zM1 59h10v1h-10zM48 59h1v1h-1zM82 59h17v1h-17zM2 60h9v1h-9zM48 60h1v1h-1zM82 60h16v1h-16zM1 61h11v1h-11zM48 61h1v1h-1zM82 61h16v1h-16zM2 62h10v1h-10zM48 62h1v1h-1zM82 62h16v1h-16zM2 63h10v1h-10zM48 63h1v1h-1zM81 63h17v1h-17zM3 64h10v1h-10zM48 64h1v1h-1zM81 64h16v1h-16zM3 65h10v1h-10zM48 65h1v1h-1zM81 65h16v1h-16zM3 66h11v1h-11zM48 66h1v1h-1zM80 66h17v1h-17zM4 67h10v1h-10zM48 67h1v1h-1zM80 67h16v1h-16zM4 68h11v1h-11zM48 68h1v1h-1zM79 68h17v1h-17zM5 69h10v1h-10zM48 69h1v1h-1zM79 69h17v1h-17zM5 70h11v1h-11zM48 70h1v1h-1zM78 70h17v1h-17zM6 71h10v1h-10zM48 71h1v1h-1zM78 71h16v1h-16zM5 72h12v1h-12zM48 72h1v1h-1zM77 72h17v1h-17zM7 73h11v1h-11zM48 73h1v1h-1zM77 73h16v1h-16zM7 74h11v1h-11zM48 74h1v1h-1zM76 74h17v1h-17zM8 75h11v1h-11zM48 75h1v1h-1zM75 75h17v1h-17zM8 76h12v1h-12zM48 76h1v1h-1zM74 76h18v1h-18zM9 77h12v1h-12zM48 77h1v1h-1zM74 77h17v1h-17zM9 78h13v1h-13zM48 78h1v1h-1zM73 78h17v1h-17zM10 79h13v1h-13zM48 79h1v1h-1zM72 79h17v1h-17zM11 80h13v1h-13zM48 80h1v1h-1zM71 80h18v1h-18zM12 81h13v1h-13zM48 81h1v1h-1zM70 81h18v1h-18zM13 82h14v1h-14zM48 82h1v1h-1zM68 82h19v1h-19zM14 83h14v1h-14zM48 83h1v1h-1zM67 83h19v1h-19zM14 84h16v1h-16zM48 84h1v1h-1zM66 84h20v1h-20zM16 85h16v1h-16zM48 85h1v1h-1zM64 85h21v1h-21zM17 86h17v1h-17zM48 86h1v1h-1zM62 86h21v1h-21zM18 87h18v1h-18zM48 87h1v1h-1zM60 87h22v1h-22zM19 88h21v1h-21zM48 88h1v1h-1zM57 88h24v1h-24zM21 89h25v1h-25zM48 89h1v1h-1zM51 89h29v1h-29zM21 90h57v1h-57zM23 91h54v1h-54zM25 92h50v1h-50zM27 93h46v1h-46zM29 94h42v1h-42zM31 95h38v1h-38zM33 96h34v1h-34zM36 97h28v1h-28zM40 98h20v1h-20zM61 98h1v1h-1z" /><path fill="#ef047e" d="M49 0h1v1h-1zM24 7h1v1h-1zM13 16h1v1h-1zM7 24h1v1h-1zM6 26h1v1h-1zM4 30h1v1h-1zM0 48h1v1h-1zM0 49h1v1h-1zM0 50h1v1h-1zM0 51h1v1h-1zM99 51h1v1h-1zM4 69h1v1h-1zM5 71h1v1h-1zM93 73h1v1h-1zM92 75h1v1h-1zM89 79h1v1h-1zM86 83h1v1h-1zM16 86h1v1h-1zM20 89h1v1h-1zM75 92h1v1h-1zM73 93h1v1h-1zM28 94h1v1h-1zM48 99h4v1h-4z" /><path fill="#ef047f" d="M28 5h1v1h-1zM26 6h1v1h-1zM16 13h1v1h-1zM5 28h1v1h-1zM99 50h1v1h-1zM94 71h1v1h-1zM6 73h1v1h-1zM7 75h1v1h-1zM13 83h1v1h-1zM83 86h1v1h-1zM26 93h1v1h-1zM71 94h2v1h-2zM69 95h1v1h-1zM60 98h1v1h-1z" /><path fill="#ef037f" d="M17 12h1v1h-1zM6 25h1v1h-1zM99 54h1v1h-1zM99 56h1v1h-1zM2 64h1v1h-1zM97 65h1v1h-1zM4 70h1v1h-1zM95 70h1v1h-1zM6 74h1v1h-1zM88 81h1v1h-1zM81 88h1v1h-1zM25 93h1v1h-1zM32 96h1v1h-1zM65 97h1v1h-1zM54 99h1v1h-1zM56 99h1v1h-1z" /><path fill="#f886c1" d="M49 17h1v1h-1z" /><path fill="#fddeee" d="M50 17h32v1h-32zM59 86h1v1h-1z" /><path fill="#fbbede" d="M82 17h1v1h-1zM15 68h1v1h-1zM65 83h1v1h-1z" /><path fill="#f99acb" d="M49 18h1v1h-1zM49 19h1v1h-1zM49 20h1v1h-1zM49 21h1v1h-1zM49 22h1v1h-1zM49 23h1v1h-1zM49 24h1v1h-1zM49 25h1v1h-1zM49 26h1v1h-1zM49 27h1v1h-1zM49 28h1v1h-1zM49 29h1v1h-1zM49 30h1v1h-1zM49 31h1v1h-1zM49 32h1v1h-1zM49 33h1v1h-1zM49 34h1v1h-1zM49 35h1v1h-1zM49 36h1v1h-1zM49 37h1v1h-1zM49 38h1v1h-1zM49 39h1v1h-1zM49 40h1v1h-1zM49 41h1v1h-1zM49 42h1v1h-1zM49 43h1v1h-1zM49 44h1v1h-1zM49 45h1v1h-1zM49 46h1v1h-1zM49 47h1v1h-1zM49 48h1v1h-1zM49 49h1v1h-1zM49 53h1v1h-1zM49 54h1v1h-1zM49 55h1v1h-1zM49 56h1v1h-1zM49 57h1v1h-1zM49 58h1v1h-1zM49 59h1v1h-1zM49 60h1v1h-1zM49 61h1v1h-1zM49 62h1v1h-1zM49 63h1v1h-1zM49 64h1v1h-1zM49 65h1v1h-1zM49 66h1v1h-1zM49 67h1v1h-1zM49 68h1v1h-1zM49 69h1v1h-1zM49 70h1v1h-1zM49 71h1v1h-1zM49 72h1v1h-1zM49 73h1v1h-1zM49 74h1v1h-1zM49 75h1v1h-1zM49 76h1v1h-1zM49 77h1v1h-1zM49 78h1v1h-1zM49 79h1v1h-1zM49 80h1v1h-1zM49 81h1v1h-1zM49 82h1v1h-1zM49 83h1v1h-1zM49 84h1v1h-1zM49 85h1v1h-1zM49 86h1v1h-1zM49 87h1v1h-1zM49 88h1v1h-1z" /><path fill="#ffffff" d="M50 18h32v1h-32zM50 19h32v1h-32zM50 20h32v1h-32zM50 21h32v1h-32zM50 22h32v1h-32zM50 23h32v1h-32zM50 24h32v1h-32zM50 25h32v1h-32zM50 26h32v1h-32zM50 27h32v1h-32zM50 28h32v1h-32zM50 29h32v1h-32zM50 30h32v1h-32zM50 31h32v1h-32zM50 32h32v1h-32zM50 33h32v1h-32zM50 34h32v1h-32zM50 35h32v1h-32zM50 36h32v1h-32zM50 37h32v1h-32zM50 38h32v1h-32zM50 39h32v1h-32zM50 40h32v1h-32zM50 41h32v1h-32zM50 42h32v1h-32zM50 43h32v1h-32zM50 44h32v1h-32zM50 45h32v1h-32zM50 46h32v1h-32zM50 47h32v1h-32zM50 48h32v1h-32zM50 49h32v1h-32zM11 53h36v1h-36zM50 53h32v1h-32zM12 54h35v1h-35zM50 54h32v1h-32zM12 55h35v1h-35zM50 55h32v1h-32zM12 56h35v1h-35zM50 56h32v1h-32zM12 57h35v1h-35zM50 57h32v1h-32zM12 58h35v1h-35zM50 58h32v1h-32zM12 59h35v1h-35zM50 59h31v1h-31zM13 60h34v1h-34zM50 60h31v1h-31zM13 61h34v1h-34zM50 61h31v1h-31zM13 62h34v1h-34zM50 62h30v1h-30zM14 63h33v1h-33zM50 63h30v1h-30zM14 64h33v1h-33zM50 64h30v1h-30zM15 65h32v1h-32zM50 65h29v1h-29zM15 66h32v1h-32zM50 66h29v1h-29zM15 67h32v1h-32zM50 67h29v1h-29zM16 68h31v1h-31zM50 68h28v1h-28zM16 69h31v1h-31zM50 69h28v1h-28zM17 70h30v1h-30zM50 70h27v1h-27zM18 71h29v1h-29zM50 71h26v1h-26zM18 72h29v1h-29zM50 72h26v1h-26zM19 73h28v1h-28zM50 73h25v1h-25zM20 74h27v1h-27zM50 74h24v1h-24zM21 75h26v1h-26zM50 75h24v1h-24zM22 76h25v1h-25zM50 76h23v1h-23zM23 77h24v1h-24zM50 77h22v1h-22zM24 78h23v1h-23zM50 78h21v1h-21zM25 79h22v1h-22zM50 79h20v1h-20zM26 80h21v1h-21zM50 80h19v1h-19zM27 81h20v1h-20zM50 81h18v1h-18zM29 82h18v1h-18zM50 82h16v1h-16zM31 83h16v1h-16zM50 83h15v1h-15zM32 84h15v1h-15zM50 84h13v1h-13zM34 85h13v1h-13zM50 85h11v1h-11zM37 86h10v1h-10zM50 86h9v1h-9zM40 87h7v1h-7zM50 87h6v1h-6zM46 88h1v1h-1zM50 88h1v1h-1z" /><path fill="#fddbec" d="M82 18h1v1h-1zM82 19h1v1h-1zM82 20h1v1h-1zM82 21h1v1h-1zM82 22h1v1h-1zM82 23h1v1h-1zM82 24h1v1h-1zM82 25h1v1h-1zM82 26h1v1h-1zM82 27h1v1h-1zM82 28h1v1h-1zM82 29h1v1h-1zM82 30h1v1h-1zM82 31h1v1h-1zM82 32h1v1h-1zM82 33h1v1h-1zM82 34h1v1h-1zM82 35h1v1h-1zM82 36h1v1h-1zM82 37h1v1h-1zM82 38h1v1h-1zM82 39h1v1h-1zM82 40h1v1h-1zM82 41h1v1h-1zM82 42h1v1h-1zM82 43h1v1h-1zM82 44h1v1h-1zM82 45h1v1h-1zM82 46h1v1h-1zM82 47h1v1h-1zM82 48h1v1h-1zM82 49h1v1h-1z" /><path fill="#f55ead" d="M49 50h1v1h-1zM41 88h1v1h-1z" /><path fill="#f99bcc" d="M50 50h32v1h-32z" /><path fill="#f885c1" d="M82 50h1v1h-1z" /><path fill="#f10f85" d="M10 52h1v1h-1zM63 85h1v1h-1z" /><path fill="#f447a1" d="M11 52h36v1h-36zM50 52h32v1h-32zM78 69h1v1h-1z" /><path fill="#f11789" d="M47 52h1v1h-1z" /><path fill="#f22c94" d="M49 52h1v1h-1zM13 65h1v1h-1zM55 88h1v1h-1z" /><path fill="#f3399a" d="M82 52h1v1h-1z" /><path fill="#f21f8d" d="M10 53h1v1h-1z" /><path fill="#f44ba3" d="M47 53h1v1h-1zM47 54h1v1h-1zM47 55h1v1h-1zM47 56h1v1h-1zM47 57h1v1h-1zM47 58h1v1h-1zM47 59h1v1h-1zM47 60h1v1h-1zM47 61h1v1h-1zM47 62h1v1h-1zM47 63h1v1h-1zM47 64h1v1h-1zM47 65h1v1h-1zM47 66h1v1h-1zM47 67h1v1h-1zM47 68h1v1h-1zM47 69h1v1h-1zM47 70h1v1h-1zM47 71h1v1h-1zM47 72h1v1h-1zM47 73h1v1h-1zM47 74h1v1h-1zM47 75h1v1h-1zM47 76h1v1h-1zM47 77h1v1h-1zM47 78h1v1h-1zM47 79h1v1h-1zM47 80h1v1h-1zM47 81h1v1h-1zM47 82h1v1h-1zM47 83h1v1h-1zM47 84h1v1h-1zM47 85h1v1h-1zM47 86h1v1h-1zM47 87h1v1h-1zM47 88h1v1h-1z" /><path fill="#fbbddd" d="M82 53h1v1h-1z" /><path fill="#f00781" d="M10 54h1v1h-1zM69 81h1v1h-1z" /><path fill="#fffafc" d="M11 54h1v1h-1zM79 65h1v1h-1zM76 71h1v1h-1z" /><path fill="#faa3d0" d="M82 54h1v1h-1zM81 60h1v1h-1z" /><path fill="#fddfef" d="M11 55h1v1h-1z" /><path fill="#f88bc4" d="M82 55h1v1h-1z" /><path fill="#fbc2e0" d="M11 56h1v1h-1z" /><path fill="#f66eb5" d="M82 56h1v1h-1z" /><path fill="#f996c9" d="M11 57h1v1h-1z" /><path fill="#f4419e" d="M82 57h1v1h-1z" /><path fill="#f560ae" d="M11 58h1v1h-1zM81 61h1v1h-1zM64 84h1v1h-1z" /><path fill="#f11588" d="M82 58h1v1h-1z" /><path fill="#f22992" d="M11 59h1v1h-1z" /><path fill="#fde1f0" d="M81 59h1v1h-1z" /><path fill="#f0057f" d="M11 60h1v1h-1zM65 84h1v1h-1zM59 87h1v1h-1zM56 88h1v1h-1z" /><path fill="#fee8f3" d="M12 60h1v1h-1zM17 71h1v1h-1z" /><path fill="#f99ccc" d="M12 61h1v1h-1z" /><path fill="#f44ea5" d="M12 62h1v1h-1zM37 87h1v1h-1z" /><path fill="#fffefe" d="M80 62h1v1h-1zM14 65h1v1h-1zM30 83h1v1h-1z" /><path fill="#f11d8c" d="M81 62h1v1h-1z" /><path fill="#f00c83" d="M12 63h1v1h-1zM76 73h1v1h-1zM36 87h1v1h-1z" /><path fill="#fef1f8" d="M13 63h1v1h-1z" /><path fill="#fcc9e3" d="M80 63h1v1h-1z" /><path fill="#f997ca" d="M13 64h1v1h-1z" /><path fill="#f66db5" d="M80 64h1v1h-1zM74 75h1v1h-1z" /><path fill="#f11889" d="M80 65h1v1h-1z" /><path fill="#fbc1df" d="M14 66h1v1h-1z" /><path fill="#faadd5" d="M79 66h1v1h-1z" /><path fill="#f449a2" d="M14 67h1v1h-1z" /><path fill="#f33c9c" d="M79 67h1v1h-1zM15 69h1v1h-1zM30 84h1v1h-1z" /><path fill="#fbbfde" d="M78 68h1v1h-1zM72 77h1v1h-1zM31 84h1v1h-1zM43 88h1v1h-1z" /><path fill="#f9a2d0" d="M16 70h1v1h-1zM53 88h1v1h-1z" /><path fill="#fbb4d9" d="M77 70h1v1h-1z" /><path fill="#f11688" d="M16 71h1v1h-1zM28 83h1v1h-1z" /><path fill="#f22a93" d="M77 71h1v1h-1z" /><path fill="#f559aa" d="M17 72h1v1h-1zM27 82h1v1h-1z" /><path fill="#f88cc4" d="M76 72h1v1h-1z" /><path fill="#f99dcd" d="M18 73h1v1h-1z" /><path fill="#fdd6ea" d="M75 73h1v1h-1z" /><path fill="#f00b83" d="M18 74h1v1h-1zM25 81h1v1h-1z" /><path fill="#fccce5" d="M19 74h1v1h-1z" /><path fill="#fff9fc" d="M74 74h1v1h-1zM45 88h1v1h-1z" /><path fill="#f33297" d="M75 74h1v1h-1z" /><path fill="#f2238f" d="M19 75h1v1h-1zM24 80h1v1h-1z" /><path fill="#fee9f4" d="M20 75h1v1h-1zM28 82h1v1h-1z" /><path fill="#f33096" d="M20 76h1v1h-1z" /><path fill="#feeef6" d="M21 76h1v1h-1zM61 85h1v1h-1z" /><path fill="#f9a0ce" d="M73 76h1v1h-1z" /><path fill="#f43f9d" d="M21 77h1v1h-1z" /><path fill="#fef5fa" d="M22 77h1v1h-1z" /><path fill="#f00982" d="M73 77h1v1h-1z" /><path fill="#f4439f" d="M22 78h1v1h-1z" /><path fill="#fef0f7" d="M23 78h1v1h-1z" /><path fill="#fbc4e1" d="M71 78h1v1h-1z" /><path fill="#f11085" d="M72 78h1v1h-1zM70 80h1v1h-1zM61 86h1v1h-1z" /><path fill="#f32f95" d="M23 79h1v1h-1z" /><path fill="#fde3f1" d="M24 79h1v1h-1z" /><path fill="#fcc7e2" d="M70 79h1v1h-1z" /><path fill="#f11186" d="M71 79h1v1h-1z" /><path fill="#fccfe6" d="M25 80h1v1h-1z" /><path fill="#fab2d8" d="M69 80h1v1h-1z" /><path fill="#f993c8" d="M26 81h1v1h-1zM68 81h1v1h-1z" /><path fill="#feeff7" d="M66 82h1v1h-1z" /><path fill="#f55bab" d="M67 82h1v1h-1z" /><path fill="#f99ecd" d="M29 83h1v1h-1z" /><path fill="#f2218e" d="M66 83h1v1h-1z" /><path fill="#fde4f1" d="M63 84h1v1h-1z" /><path fill="#f4429f" d="M32 85h1v1h-1z" /><path fill="#fbc0df" d="M33 85h1v1h-1z" /><path fill="#f883c0" d="M62 85h1v1h-1z" /><path fill="#f32e95" d="M34 86h1v1h-1z" /><path fill="#f892c7" d="M35 86h1v1h-1z" /><path fill="#feedf6" d="M36 86h1v1h-1z" /><path fill="#f670b6" d="M60 86h1v1h-1z" /><path fill="#f999cb" d="M38 87h1v1h-1z" /><path fill="#fde2f0" d="M39 87h1v1h-1z" /><path fill="#fee6f2" d="M56 87h1v1h-1z" /><path fill="#f994c8" d="M57 87h1v1h-1z" /><path fill="#f33d9c" d="M58 87h1v1h-1z" /><path fill="#f22b93" d="M40 88h1v1h-1z" /><path fill="#f88fc6" d="M42 88h1v1h-1z" /><path fill="#fde0ef" d="M44 88h1v1h-1z" /><path fill="#feebf5" d="M51 88h1v1h-1z" /><path fill="#fccbe4" d="M52 88h1v1h-1z" /><path fill="#f667b2" d="M54 88h1v1h-1z" /><path fill="#f11b8b" d="M46 89h1v1h-1z" /><path fill="#f10e84" d="M47 89h1v1h-1z" /><path fill="#f1198a" d="M49 89h1v1h-1z" /><path fill="#f11286" d="M50 89h1v1h-1z" /></svg>