<svg xmlns="http://www.w3.org/2000/svg" viewBox="0 0 100 100" width="1em" height="1em"><path fill="#e66e00" d="M60 1h1v1h-1zM60 4h1v1h-1zM60 7h1v1h-1zM62 7h1v1h-1zM60 8h1v1h-1zM57 13h1v1h-1zM57 14h1v1h-1zM60 14h1v1h-1zM56 15h1v1h-1zM58 17h1v1h-1zM53 18h1v1h-1zM57 18h1v1h-1zM48 22h1v1h-1zM52 23h1v1h-1zM64 23h1v1h-1zM65 24h1v1h-1zM63 25h1v1h-1zM38 31h1v1h-1zM38 32h1v1h-1zM43 32h1v1h-1zM42 34h1v1h-1zM55 34h1v1h-1zM42 35h1v1h-1zM50 35h1v1h-1zM55 36h1v1h-1zM55 37h1v1h-1zM41 38h1v1h-1zM50 38h1v1h-1zM37 39h1v1h-1zM50 40h1v1h-1zM51 42h1v1h-1zM43 44h1v1h-1zM52 44h1v1h-1zM42 46h1v1h-1zM53 46h1v1h-1zM43 48h1v1h-1zM45 48h1v1h-1zM44 49h1v1h-1zM45 50h1v1h-1zM56 50h1v1h-1zM60 50h1v1h-1zM56 51h1v1h-1zM56 53h1v1h-1zM56 54h1v1h-1z" /><path fill="#e76e00" d="M60 2h1v1h-1zM58 12h1v1h-1zM61 12h1v1h-1zM55 16h1v1h-1zM54 17h1v1h-1zM52 19h1v1h-1zM70 21h1v1h-1zM66 22h1v1h-1zM66 23h1v1h-1zM45 24h1v1h-1zM50 25h1v1h-1zM60 25h1v1h-1zM43 26h1v1h-1zM58 26h1v1h-1zM42 27h1v1h-1zM57 27h1v1h-1zM61 27h1v1h-1zM41 28h1v1h-1zM54 29h1v1h-1zM51 33h1v1h-1zM50 36h1v1h-1zM37 38h1v1h-1zM56 39h1v1h-1zM57 41h1v1h-1zM58 42h1v1h-1zM41 45h1v1h-1zM60 46h1v1h-1zM55 48h1v1h-1zM46 51h1v1h-1zM56 52h1v1h-1zM56 55h1v1h-1z" /><path fill="#e76f00" d="M60 3h2v1h-2zM61 4h1v1h-1zM61 5h1v1h-1zM61 6h1v1h-1zM61 7h1v1h-1zM61 8h1v1h-1zM60 9h2v1h-2zM59 10h3v1h-3zM59 11h2v1h-2zM59 12h2v1h-2zM58 13h2v1h-2zM58 14h2v1h-2zM57 15h3v1h-3zM56 16h3v1h-3zM55 17h3v1h-3zM54 18h3v1h-3zM53 19h3v1h-3zM51 20h4v1h-4zM50 21h4v1h-4zM69 21h1v1h-1zM49 22h4v1h-4zM67 22h1v1h-1zM48 23h4v1h-4zM47 24h4v1h-4zM62 24h3v1h-3zM45 25h5v1h-5zM61 25h2v1h-2zM44 26h6v1h-6zM59 26h4v1h-4zM43 27h6v1h-6zM58 27h3v1h-3zM42 28h6v1h-6zM57 28h2v1h-2zM41 29h5v1h-5zM55 29h3v1h-3zM39 30h6v1h-6zM53 30h4v1h-4zM39 31h5v1h-5zM53 31h4v1h-4zM39 32h4v1h-4zM52 32h4v1h-4zM37 33h6v1h-6zM52 33h4v1h-4zM38 34h4v1h-4zM51 34h4v1h-4zM37 35h5v1h-5zM51 35h4v1h-4zM37 36h5v1h-5zM51 36h4v1h-4zM37 37h5v1h-5zM51 37h4v1h-4zM38 38h3v1h-3zM51 38h5v1h-5zM38 39h4v1h-4zM51 39h5v1h-5zM38 40h4v1h-4zM51 40h6v1h-6zM38 41h4v1h-4zM51 41h6v1h-6zM39 42h4v1h-4zM52 42h6v1h-6zM39 43h4v1h-4zM52 43h7v1h-7zM41 44h2v1h-2zM53 44h7v1h-7zM42 45h2v1h-2zM54 45h6v1h-6zM43 46h1v1h-1zM54 46h6v1h-6zM43 47h2v1h-2zM54 47h7v1h-7zM44 48h1v1h-1zM56 48h5v1h-5zM45 49h1v1h-1zM56 49h5v1h-5zM46 50h1v1h-1zM57 50h3v1h-3zM47 51h1v1h-1zM57 51h4v1h-4zM48 52h1v1h-1zM57 52h3v1h-3zM57 53h1v1h-1zM55 56h1v1h-1z" /><path fill="#e66f00" d="M60 5h1v1h-1zM60 6h1v1h-1zM61 11h1v1h-1zM60 13h1v1h-1zM56 19h1v1h-1zM50 20h1v1h-1zM55 20h1v1h-1zM49 21h1v1h-1zM54 21h1v1h-1zM53 22h1v1h-1zM68 22h1v1h-1zM47 23h1v1h-1zM65 23h1v1h-1zM46 24h1v1h-1zM51 24h1v1h-1zM44 25h1v1h-1zM55 28h2v1h-2zM59 28h1v1h-1zM40 29h1v1h-1zM46 29h1v1h-1zM58 29h1v1h-1zM45 30h1v1h-1zM57 30h1v1h-1zM44 31h1v1h-1zM57 31h1v1h-1zM56 32h1v1h-1zM37 34h1v1h-1zM55 35h1v1h-1zM50 37h1v1h-1zM50 39h1v1h-1zM40 44h1v1h-1zM53 45h1v1h-1zM60 45h1v1h-1zM44 46h1v1h-1zM46 49h1v1h-1zM58 53h1v1h-1zM57 54h1v1h-1z" /><path fill="#5381a0" d="M76 54h1v1h-1zM27 57h1v1h-1zM37 61h2v1h-2zM43 61h2v1h-2zM62 61h1v1h-1zM57 62h1v1h-1zM59 62h1v1h-1zM37 63h2v1h-2zM44 63h2v1h-2zM81 65h1v1h-1zM32 67h1v1h-1zM39 70h1v1h-1zM52 70h1v1h-1zM48 85h1v1h-1zM21 86h1v1h-1zM81 88h1v1h-1zM80 89h1v1h-1zM77 90h1v1h-1zM27 91h1v1h-1zM67 91h1v1h-1zM36 92h1v1h-1zM56 92h1v1h-1zM84 93h1v1h-1zM30 94h1v1h-1zM29 97h1v1h-1zM39 98h1v1h-1zM46 98h1v1h-1zM67 98h1v1h-1zM38 99h1v1h-1zM41 99h1v1h-1zM45 99h1v1h-1zM59 99h1v1h-1zM62 99h1v1h-1z" /><path fill="#5382a1" d="M77 54h1v1h-1zM79 54h1v1h-1zM74 55h1v1h-1zM80 55h2v1h-2zM31 56h1v1h-1zM81 56h3v1h-3zM28 57h1v1h-1zM82 57h4v1h-4zM25 58h3v1h-3zM83 58h2v1h-2zM23 59h5v1h-5zM68 59h1v1h-1zM83 59h3v1h-3zM21 60h7v1h-7zM59 60h1v1h-1zM63 60h5v1h-5zM83 60h3v1h-3zM23 61h10v1h-10zM36 61h1v1h-1zM45 61h1v1h-1zM48 61h1v1h-1zM51 61h11v1h-11zM83 61h3v1h-3zM28 62h29v1h-29zM83 62h4v1h-4zM83 63h3v1h-3zM82 64h3v1h-3zM82 65h2v1h-2zM81 66h3v1h-3zM80 67h3v1h-3zM31 68h2v1h-2zM79 68h2v1h-2zM30 69h3v1h-3zM78 69h2v1h-2zM30 70h6v1h-6zM54 70h1v1h-1zM57 70h8v1h-8zM77 70h1v1h-1zM31 71h34v1h-34zM75 71h1v1h-1zM33 72h28v1h-28zM74 72h1v1h-1zM37 73h17v1h-17zM35 78h1v1h-1zM33 79h3v1h-3zM33 80h4v1h-4zM40 80h1v1h-1zM57 80h4v1h-4zM32 81h31v1h-31zM34 82h29v1h-29zM37 83h24v1h-24zM39 84h16v1h-16zM56 84h1v1h-1zM23 85h1v1h-1zM25 85h1v1h-1zM47 85h1v1h-1zM20 86h1v1h-1zM17 87h2v1h-2zM81 87h1v1h-1zM15 88h4v1h-4zM14 89h5v1h-5zM77 89h1v1h-1zM14 90h7v1h-7zM74 90h1v1h-1zM76 90h1v1h-1zM15 91h11v1h-11zM70 91h4v1h-4zM18 92h14v1h-14zM37 92h1v1h-1zM51 92h2v1h-2zM58 92h1v1h-1zM60 92h11v1h-11zM25 93h39v1h-39zM65 93h1v1h-1zM35 94h1v1h-1zM37 94h16v1h-16zM80 94h3v1h-3zM78 95h3v1h-3zM74 96h4v1h-4zM68 97h6v1h-6zM34 98h1v1h-1zM42 98h4v1h-4zM49 98h1v1h-1zM58 98h9v1h-9zM40 99h1v1h-1zM42 99h1v1h-1zM56 99h1v1h-1zM61 99h1v1h-1z" /><path fill="#5382a0" d="M78 54h1v1h-1zM80 56h1v1h-1zM29 57h1v1h-1zM82 59h1v1h-1zM86 60h1v1h-1zM47 61h1v1h-1zM49 61h1v1h-1zM63 61h1v1h-1zM82 63h1v1h-1zM29 69h1v1h-1zM74 71h1v1h-1zM61 72h2v1h-2zM56 73h1v1h-1zM39 80h1v1h-1zM53 80h1v1h-1zM64 82h1v1h-1zM21 85h1v1h-1zM13 89h1v1h-1zM21 90h1v1h-1zM84 92h1v1h-1zM21 93h1v1h-1zM31 94h2v1h-2zM54 94h2v1h-2zM57 94h3v1h-3zM37 98h1v1h-1zM50 98h1v1h-1zM53 98h1v1h-1zM39 99h1v1h-1z" /><path fill="#5282a0" d="M80 54h1v1h-1zM33 55h1v1h-1zM30 57h1v1h-1zM28 58h1v1h-1zM82 58h1v1h-1zM40 61h3v1h-3zM64 61h1v1h-1zM27 62h1v1h-1zM82 62h1v1h-1zM33 63h1v1h-1zM35 63h2v1h-2zM46 63h1v1h-1zM48 63h1v1h-1zM80 66h1v1h-1zM79 67h1v1h-1zM60 69h1v1h-1zM77 69h1v1h-1zM80 69h1v1h-1zM53 70h1v1h-1zM55 73h1v1h-1zM33 82h1v1h-1zM78 89h1v1h-1zM16 92h1v1h-1zM32 92h1v1h-1zM34 92h1v1h-1zM54 92h1v1h-1zM71 92h1v1h-1zM23 93h2v1h-2zM36 94h1v1h-1zM56 94h1v1h-1zM64 97h1v1h-1zM66 97h2v1h-2zM74 97h1v1h-1zM31 98h1v1h-1zM35 98h1v1h-1zM38 98h1v1h-1zM41 98h1v1h-1zM51 98h2v1h-2zM56 98h2v1h-2zM44 99h1v1h-1zM55 99h1v1h-1z" /><path fill="#5282a1" d="M34 55h1v1h-1zM84 56h1v1h-1zM23 58h1v1h-1zM22 59h1v1h-1zM29 60h1v1h-1zM58 60h1v1h-1zM62 60h1v1h-1zM33 61h1v1h-1zM35 61h1v1h-1zM46 61h1v1h-1zM86 61h1v1h-1zM25 62h1v1h-1zM40 63h3v1h-3zM29 70h1v1h-1zM38 70h1v1h-1zM55 70h1v1h-1zM78 70h1v1h-1zM32 80h1v1h-1zM37 80h1v1h-1zM61 80h1v1h-1zM63 82h1v1h-1zM46 85h1v1h-1zM19 86h1v1h-1zM22 86h1v1h-1zM16 87h1v1h-1zM22 90h1v1h-1zM78 90h1v1h-1zM26 91h1v1h-1zM68 91h1v1h-1zM75 91h1v1h-1zM17 92h1v1h-1zM35 92h1v1h-1zM53 92h1v1h-1zM55 92h1v1h-1zM22 93h1v1h-1zM79 94h1v1h-1zM81 95h1v1h-1zM71 96h2v1h-2zM55 98h1v1h-1zM68 98h1v1h-1zM43 99h1v1h-1z" /><path fill="#5281a0" d="M35 55h1v1h-1zM79 55h1v1h-1zM82 55h1v1h-1zM30 56h1v1h-1zM26 57h1v1h-1zM39 61h1v1h-1zM50 61h1v1h-1zM26 62h1v1h-1zM32 63h1v1h-1zM34 63h1v1h-1zM43 63h1v1h-1zM50 63h1v1h-1zM84 65h1v1h-1zM63 69h1v1h-1zM76 71h1v1h-1zM35 73h1v1h-1zM41 80h1v1h-1zM55 80h2v1h-2zM63 81h1v1h-1zM36 83h1v1h-1zM55 84h1v1h-1zM24 85h1v1h-1zM19 87h1v1h-1zM14 88h1v1h-1zM19 89h1v1h-1zM75 90h1v1h-1zM14 91h1v1h-1zM38 92h1v1h-1zM49 92h1v1h-1zM57 92h1v1h-1zM33 94h2v1h-2zM83 94h1v1h-1zM76 95h2v1h-2zM73 96h1v1h-1zM79 96h1v1h-1zM28 97h1v1h-1zM65 97h1v1h-1zM75 97h1v1h-1zM32 98h1v1h-1zM36 98h1v1h-1zM69 98h1v1h-1zM46 99h9v1h-9zM57 99h1v1h-1z" /><path fill="#5381a1" d="M78 55h1v1h-1zM85 58h1v1h-1zM67 59h1v1h-1zM69 59h1v1h-1zM28 60h1v1h-1zM60 60h1v1h-1zM22 61h1v1h-1zM58 62h1v1h-1zM81 68h1v1h-1zM37 70h1v1h-1zM56 70h1v1h-1zM30 71h1v1h-1zM65 71h1v1h-1zM32 72h1v1h-1zM73 72h1v1h-1zM34 78h1v1h-1zM32 79h1v1h-1zM38 80h1v1h-1zM38 84h1v1h-1zM22 85h1v1h-1zM50 85h1v1h-1zM79 89h1v1h-1zM69 91h1v1h-1zM59 92h1v1h-1zM33 98h1v1h-1zM40 98h1v1h-1zM48 98h1v1h-1zM54 98h1v1h-1zM58 99h1v1h-1z" /><path fill="#5281a1" d="M29 56h1v1h-1zM32 56h1v1h-1zM81 57h1v1h-1zM24 58h1v1h-1zM66 59h1v1h-1zM61 60h1v1h-1zM34 61h1v1h-1zM39 63h1v1h-1zM47 63h1v1h-1zM49 63h1v1h-1zM85 64h1v1h-1zM83 67h1v1h-1zM30 68h1v1h-1zM78 68h1v1h-1zM33 69h1v1h-1zM61 69h2v1h-2zM36 70h1v1h-1zM76 70h1v1h-1zM66 71h1v1h-1zM36 73h1v1h-1zM54 73h1v1h-1zM57 73h1v1h-1zM54 80h1v1h-1zM35 83h1v1h-1zM61 83h1v1h-1zM57 84h1v1h-1zM49 85h1v1h-1zM18 86h1v1h-1zM81 86h1v1h-1zM80 88h1v1h-1zM13 90h1v1h-1zM73 90h1v1h-1zM66 91h1v1h-1zM74 91h1v1h-1zM33 92h1v1h-1zM39 92h5v1h-5zM50 92h1v1h-1zM85 92h1v1h-1zM64 93h1v1h-1zM66 93h1v1h-1zM82 93h2v1h-2zM53 94h1v1h-1zM78 96h1v1h-1zM47 98h1v1h-1zM70 98h1v1h-1zM60 99h1v1h-1z" /></svg>