<svg xmlns="http://www.w3.org/2000/svg" viewBox="0 0 100 100" width="1em" height="1em"><path fill="#ffffff" d="M35 0h60v1h-60zM35 1h60v1h-60zM36 2h59v1h-59zM36 3h58v1h-58zM36 4h5v1h-5zM90 4h4v1h-4zM37 5h4v1h-4zM90 5h4v1h-4zM37 6h4v1h-4zM89 6h4v1h-4zM37 7h5v1h-5zM89 7h4v1h-4zM38 8h4v1h-4zM88 8h5v1h-5zM38 9h4v1h-4zM88 9h4v1h-4zM38 10h5v1h-5zM88 10h4v1h-4zM39 11h4v1h-4zM87 11h5v1h-5zM39 12h4v1h-4zM87 12h4v1h-4zM39 13h5v1h-5zM87 13h4v1h-4zM40 14h4v1h-4zM86 14h5v1h-5zM40 15h4v1h-4zM86 15h4v1h-4zM40 16h5v1h-5zM86 16h4v1h-4zM41 17h4v1h-4zM85 17h5v1h-5zM41 18h4v1h-4zM65 18h1v1h-1zM85 18h4v1h-4zM41 19h5v1h-5zM64 19h2v1h-2zM85 19h4v1h-4zM42 20h4v1h-4zM64 20h3v1h-3zM84 20h5v1h-5zM42 21h4v1h-4zM63 21h4v1h-4zM84 21h4v1h-4zM43 22h4v1h-4zM63 22h5v1h-5zM84 22h4v1h-4zM43 23h4v1h-4zM62 23h6v1h-6zM83 23h5v1h-5zM43 24h4v1h-4zM62 24h7v1h-7zM83 24h4v1h-4zM44 25h4v1h-4zM61 25h4v1h-4zM66 25h3v1h-3zM83 25h4v1h-4zM44 26h4v1h-4zM61 26h3v1h-3zM66 26h4v1h-4zM82 26h5v1h-5zM44 27h4v1h-4zM60 27h4v1h-4zM67 27h3v1h-3zM82 27h4v1h-4zM45 28h4v1h-4zM60 28h3v1h-3zM67 28h4v1h-4zM82 28h4v1h-4zM45 29h4v1h-4zM59 29h4v1h-4zM68 29h3v1h-3zM81 29h5v1h-5zM45 30h4v1h-4zM59 30h3v1h-3zM68 30h4v1h-4zM81 30h4v1h-4zM46 31h4v1h-4zM58 31h4v1h-4zM69 31h3v1h-3zM81 31h4v1h-4zM46 32h4v1h-4zM58 32h3v1h-3zM69 32h4v1h-4zM80 32h5v1h-5zM46 33h4v1h-4zM57 33h4v1h-4zM70 33h3v1h-3zM80 33h4v1h-4zM47 34h4v1h-4zM57 34h3v1h-3zM70 34h4v1h-4zM80 34h4v1h-4zM47 35h4v1h-4zM56 35h4v1h-4zM71 35h3v1h-3zM79 35h5v1h-5zM47 36h4v1h-4zM56 36h3v1h-3zM71 36h4v1h-4zM79 36h4v1h-4zM48 37h4v1h-4zM55 37h4v1h-4zM72 37h3v1h-3zM79 37h4v1h-4zM16 38h8v1h-8zM46 38h7v1h-7zM55 38h3v1h-3zM72 38h4v1h-4zM78 38h7v1h-7zM14 39h12v1h-12zM44 39h14v1h-14zM73 39h14v1h-14zM12 40h15v1h-15zM43 40h14v1h-14zM73 40h15v1h-15zM11 41h17v1h-17zM42 41h16v1h-16zM73 41h16v1h-16zM10 42h6v1h-6zM23 42h6v1h-6zM41 42h6v1h-6zM54 42h5v1h-5zM72 42h5v1h-5zM84 42h6v1h-6zM10 43h5v1h-5zM25 43h5v1h-5zM40 43h5v1h-5zM55 43h5v1h-5zM71 43h4v1h-4zM86 43h5v1h-5zM9 44h5v1h-5zM26 44h4v1h-4zM40 44h4v1h-4zM56 44h4v1h-4zM71 44h4v1h-4zM87 44h4v1h-4zM9 45h4v1h-4zM26 45h5v1h-5zM39 45h5v1h-5zM57 45h4v1h-4zM70 45h4v1h-4zM87 45h4v1h-4zM9 46h4v1h-4zM27 46h4v1h-4zM39 46h4v1h-4zM57 46h4v1h-4zM70 46h3v1h-3zM88 46h4v1h-4zM8 47h4v1h-4zM27 47h4v1h-4zM39 47h4v1h-4zM58 47h15v1h-15zM88 47h4v1h-4zM8 48h4v1h-4zM27 48h4v1h-4zM39 48h4v1h-4zM58 48h15v1h-15zM88 48h4v1h-4zM8 49h4v1h-4zM27 49h4v1h-4zM39 49h4v1h-4zM58 49h15v1h-15zM88 49h4v1h-4zM8 50h4v1h-4zM27 50h4v1h-4zM39 50h4v1h-4zM58 50h3v1h-3zM70 50h3v1h-3zM88 50h4v1h-4zM8 51h5v1h-5zM27 51h4v1h-4zM39 51h4v1h-4zM58 51h3v1h-3zM70 51h3v1h-3zM88 51h4v1h-4zM9 52h4v1h-4zM27 52h4v1h-4zM39 52h4v1h-4zM57 52h4v1h-4zM70 52h4v1h-4zM87 52h5v1h-5zM9 53h4v1h-4zM26 53h5v1h-5zM40 53h4v1h-4zM57 53h3v1h-3zM71 53h3v1h-3zM87 53h4v1h-4zM10 54h4v1h-4zM25 54h5v1h-5zM40 54h5v1h-5zM56 54h4v1h-4zM71 54h4v1h-4zM86 54h5v1h-5zM10 55h5v1h-5zM24 55h6v1h-6zM41 55h5v1h-5zM55 55h4v1h-4zM72 55h4v1h-4zM85 55h6v1h-6zM11 56h6v1h-6zM22 56h7v1h-7zM41 56h7v1h-7zM52 56h6v1h-6zM72 56h6v1h-6zM83 56h8v1h-8zM12 57h16v1h-16zM42 57h15v1h-15zM73 57h19v1h-19zM11 58h16v1h-16zM43 58h13v1h-13zM75 58h11v1h-11zM88 58h4v1h-4zM11 59h14v1h-14zM44 59h10v1h-10zM77 59h7v1h-7zM88 59h4v1h-4zM10 60h5v1h-5zM19 60h5v1h-5zM43 60h5v1h-5zM89 60h4v1h-4zM10 61h4v1h-4zM19 61h4v1h-4zM42 61h5v1h-5zM89 61h4v1h-4zM9 62h5v1h-5zM19 62h4v1h-4zM42 62h4v1h-4zM89 62h4v1h-4zM9 63h4v1h-4zM19 63h4v1h-4zM41 63h5v1h-5zM89 63h4v1h-4zM8 64h5v1h-5zM18 64h5v1h-5zM40 64h5v1h-5zM89 64h4v1h-4zM8 65h4v1h-4zM19 65h4v1h-4zM39 65h5v1h-5zM89 65h4v1h-4zM8 66h4v1h-4zM19 66h4v1h-4zM38 66h5v1h-5zM89 66h4v1h-4zM7 67h4v1h-4zM19 67h4v1h-4zM36 67h6v1h-6zM89 67h4v1h-4zM7 68h4v1h-4zM19 68h4v1h-4zM35 68h6v1h-6zM89 68h4v1h-4zM7 69h4v1h-4zM20 69h4v1h-4zM34 69h6v1h-6zM89 69h4v1h-4zM6 70h4v1h-4zM20 70h5v1h-5zM32 70h7v1h-7zM88 70h4v1h-4zM6 71h4v1h-4zM21 71h5v1h-5zM30 71h8v1h-8zM88 71h4v1h-4zM6 72h4v1h-4zM21 72h6v1h-6zM28 72h8v1h-8zM87 72h5v1h-5zM6 73h4v1h-4zM22 73h13v1h-13zM86 73h5v1h-5zM5 74h4v1h-4zM23 74h10v1h-10zM86 74h4v1h-4zM5 75h4v1h-4zM24 75h7v1h-7zM85 75h5v1h-5zM5 76h4v1h-4zM26 76h3v1h-3zM83 76h6v1h-6zM5 77h4v1h-4zM82 77h6v1h-6zM5 78h4v1h-4zM80 78h7v1h-7zM5 79h4v1h-4zM76 79h10v1h-10zM5 80h4v1h-4zM70 80h14v1h-14zM5 81h4v1h-4zM65 81h18v1h-18zM5 82h4v1h-4zM61 82h19v1h-19zM5 83h4v1h-4zM58 83h18v1h-18zM6 84h4v1h-4zM56 84h15v1h-15zM6 85h4v1h-4zM53 85h12v1h-12zM6 86h4v1h-4zM51 86h10v1h-10zM6 87h5v1h-5zM49 87h10v1h-10zM7 88h4v1h-4zM47 88h9v1h-9zM7 89h5v1h-5zM45 89h9v1h-9zM8 90h5v1h-5zM43 90h9v1h-9zM8 91h5v1h-5zM41 91h9v1h-9zM9 92h6v1h-6zM39 92h9v1h-9zM10 93h6v1h-6zM36 93h10v1h-10zM11 94h7v1h-7zM33 94h11v1h-11zM12 95h9v1h-9zM30 95h11v1h-11zM14 96h25v1h-25zM15 97h22v1h-22zM17 98h17v1h-17zM21 99h9v1h-9z" /><path fill="#ddc1c9" d="M41 4h1v1h-1z" /><path fill="#cfa7b2" d="M42 4h47v1h-47zM68 32h1v1h-1zM56 83h1v1h-1zM10 85h1v1h-1z" /><path fill="#f9f4f5" d="M89 4h1v1h-1zM78 37h1v1h-1zM24 43h1v1h-1zM26 52h1v1h-1zM76 55h1v1h-1zM36 72h1v1h-1zM69 80h1v1h-1z" /><path fill="#d0a8b4" d="M41 5h1v1h-1z" /><path fill="#99425b" d="M42 5h46v1h-46zM43 6h45v1h-45zM43 7h45v1h-45zM43 8h44v1h-44zM44 9h43v1h-43zM44 10h43v1h-43zM44 11h42v1h-42zM45 12h41v1h-41zM45 13h41v1h-41zM45 14h40v1h-40zM46 15h19v1h-19zM66 15h19v1h-19zM46 16h18v1h-18zM66 16h19v1h-19zM46 17h18v1h-18zM67 17h17v1h-17zM47 18h16v1h-16zM67 18h17v1h-17zM47 19h16v1h-16zM68 19h16v1h-16zM47 20h15v1h-15zM68 20h15v1h-15zM48 21h14v1h-14zM69 21h14v1h-14zM48 22h13v1h-13zM69 22h13v1h-13zM48 23h13v1h-13zM70 23h12v1h-12zM49 24h11v1h-11zM70 24h12v1h-12zM49 25h11v1h-11zM71 25h10v1h-10zM49 26h10v1h-10zM71 26h10v1h-10zM50 27h9v1h-9zM72 27h9v1h-9zM50 28h8v1h-8zM65 28h1v1h-1zM72 28h8v1h-8zM50 29h8v1h-8zM64 29h2v1h-2zM73 29h7v1h-7zM51 30h6v1h-6zM64 30h3v1h-3zM73 30h7v1h-7zM51 31h6v1h-6zM63 31h4v1h-4zM74 31h5v1h-5zM51 32h5v1h-5zM63 32h5v1h-5zM74 32h5v1h-5zM52 33h4v1h-4zM62 33h6v1h-6zM75 33h4v1h-4zM52 34h3v1h-3zM62 34h7v1h-7zM75 34h3v1h-3zM52 35h3v1h-3zM61 35h8v1h-8zM76 35h2v1h-2zM53 36h1v1h-1zM61 36h9v1h-9zM76 36h2v1h-2zM53 37h1v1h-1zM60 37h10v1h-10zM60 38h11v1h-11zM59 39h12v1h-12zM59 40h13v1h-13zM60 41h11v1h-11zM60 42h10v1h-10zM17 43h5v1h-5zM47 43h6v1h-6zM61 43h9v1h-9zM78 43h5v1h-5zM16 44h8v1h-8zM46 44h8v1h-8zM61 44h8v1h-8zM76 44h9v1h-9zM15 45h10v1h-10zM45 45h10v1h-10zM62 45h7v1h-7zM75 45h11v1h-11zM14 46h12v1h-12zM44 46h12v1h-12zM75 46h11v1h-11zM14 47h12v1h-12zM44 47h12v1h-12zM74 47h13v1h-13zM13 48h13v1h-13zM44 48h13v1h-13zM74 48h13v1h-13zM13 49h13v1h-13zM44 49h13v1h-13zM74 49h13v1h-13zM13 50h13v1h-13zM44 50h13v1h-13zM74 50h13v1h-13zM14 51h12v1h-12zM44 51h12v1h-12zM62 51h7v1h-7zM75 51h12v1h-12zM14 52h11v1h-11zM45 52h11v1h-11zM62 52h7v1h-7zM75 52h11v1h-11zM15 53h10v1h-10zM46 53h9v1h-9zM62 53h7v1h-7zM76 53h9v1h-9zM16 54h7v1h-7zM47 54h7v1h-7zM61 54h9v1h-9zM77 54h7v1h-7zM18 55h4v1h-4zM49 55h3v1h-3zM61 55h9v1h-9zM79 55h3v1h-3zM60 56h11v1h-11zM59 57h13v1h-13zM58 58h15v1h-15zM57 59h17v1h-17zM55 60h21v1h-21zM85 60h2v1h-2zM16 61h2v1h-2zM49 61h39v1h-39zM15 62h3v1h-3zM48 62h40v1h-40zM15 63h3v1h-3zM47 63h41v1h-41zM14 64h3v1h-3zM47 64h41v1h-41zM14 65h3v1h-3zM46 65h42v1h-42zM13 66h5v1h-5zM45 66h43v1h-43zM13 67h5v1h-5zM44 67h44v1h-44zM12 68h6v1h-6zM43 68h45v1h-45zM12 69h6v1h-6zM42 69h45v1h-45zM12 70h7v1h-7zM41 70h46v1h-46zM11 71h8v1h-8zM40 71h46v1h-46zM11 72h9v1h-9zM38 72h48v1h-48zM11 73h9v1h-9zM37 73h48v1h-48zM11 74h10v1h-10zM36 74h48v1h-48zM10 75h12v1h-12zM34 75h49v1h-49zM10 76h13v1h-13zM32 76h49v1h-49zM10 77h15v1h-15zM30 77h49v1h-49zM10 78h65v1h-65zM10 79h60v1h-60zM10 80h54v1h-54zM10 81h50v1h-50zM10 82h47v1h-47zM11 83h44v1h-44zM11 84h41v1h-41zM11 85h39v1h-39zM12 86h36v1h-36zM12 87h34v1h-34zM13 88h31v1h-31zM13 89h29v1h-29zM14 90h26v1h-26zM15 91h23v1h-23zM17 92h18v1h-18zM19 93h14v1h-14zM22 94h7v1h-7z" /><path fill="#a5586e" d="M88 5h1v1h-1zM71 27h1v1h-1zM54 36h1v1h-1zM71 41h1v1h-1zM76 54h1v1h-1zM74 59h1v1h-1z" /><path fill="#fffefe" d="M89 5h1v1h-1zM65 17h1v1h-1zM64 18h1v1h-1zM66 19h1v1h-1zM63 20h1v1h-1zM62 22h1v1h-1zM57 40h1v1h-1zM75 43h1v1h-1zM57 51h1v1h-1zM70 53h1v1h-1zM88 60h1v1h-1zM46 62h1v1h-1zM18 65h1v1h-1zM19 69h1v1h-1zM88 69h1v1h-1zM64 81h1v1h-1zM55 84h1v1h-1zM13 91h1v1h-1z" /><path fill="#f3eaec" d="M41 6h1v1h-1zM64 26h1v1h-1zM72 41h1v1h-1zM35 93h1v1h-1z" /><path fill="#99435c" d="M42 6h1v1h-1zM82 22h1v1h-1zM22 43h1v1h-1zM54 44h1v1h-1zM45 53h1v1h-1zM15 61h1v1h-1zM17 64h1v1h-1zM29 77h1v1h-1zM52 84h1v1h-1z" /><path fill="#c899a7" d="M88 6h1v1h-1zM77 55h1v1h-1zM77 78h1v1h-1z" /><path fill="#af6c7f" d="M42 7h1v1h-1z" /><path fill="#ebdadf" d="M88 7h1v1h-1zM57 48h1v1h-1z" /><path fill="#d2abb6" d="M42 8h1v1h-1zM76 43h1v1h-1zM56 52h1v1h-1z" /><path fill="#a75b71" d="M87 8h1v1h-1zM55 34h1v1h-1zM87 60h1v1h-1zM18 69h1v1h-1z" /><path fill="#f5ecee" d="M42 9h1v1h-1zM84 55h1v1h-1z" /><path fill="#9a435c" d="M43 9h1v1h-1zM81 25h1v1h-1zM80 28h1v1h-1zM23 54h1v1h-1zM10 74h1v1h-1zM35 74h1v1h-1zM75 78h1v1h-1zM21 94h1v1h-1z" /><path fill="#ca9ca9" d="M87 9h1v1h-1zM88 66h1v1h-1zM18 68h1v1h-1z" /><path fill="#b16e82" d="M43 10h1v1h-1zM86 52h1v1h-1z" /><path fill="#eddde1" d="M87 10h1v1h-1z" /><path fill="#d3aeb9" d="M43 11h1v1h-1zM9 78h1v1h-1z" /><path fill="#a95f74" d="M86 11h1v1h-1zM68 21h1v1h-1zM69 53h1v1h-1z" /><path fill="#f5edf0" d="M43 12h1v1h-1zM61 32h1v1h-1zM74 53h1v1h-1z" /><path fill="#9a445d" d="M44 12h1v1h-1zM83 43h1v1h-1zM14 63h1v1h-1zM35 92h1v1h-1z" /><path fill="#cca0ad" d="M86 12h1v1h-1zM82 42h1v1h-1zM55 59h1v1h-1z" /><path fill="#b37184" d="M44 13h1v1h-1zM43 49h1v1h-1zM22 55h1v1h-1zM71 79h1v1h-1z" /><path fill="#eee0e4" d="M86 13h1v1h-1zM75 54h1v1h-1zM79 56h1v1h-1zM22 74h1v1h-1z" /><path fill="#d5b2bc" d="M44 14h1v1h-1zM75 59h1v1h-1z" /><path fill="#ab6377" d="M85 14h1v1h-1zM67 19h1v1h-1zM13 51h1v1h-1zM10 73h1v1h-1zM76 78h1v1h-1z" /><path fill="#f6eff1" d="M44 15h1v1h-1zM80 31h1v1h-1zM77 42h1v1h-1zM45 43h1v1h-1zM69 46h1v1h-1zM21 56h1v1h-1zM46 88h1v1h-1zM18 94h1v1h-1z" /><path fill="#9b455e" d="M45 15h1v1h-1zM79 31h1v1h-1zM74 51h1v1h-1zM46 64h1v1h-1zM17 65h1v1h-1z" /><path fill="#a25269" d="M65 15h1v1h-1zM73 31h1v1h-1zM17 55h1v1h-1zM12 67h1v1h-1zM40 70h1v1h-1z" /><path fill="#cda2af" d="M85 15h1v1h-1zM74 34h1v1h-1zM69 52h1v1h-1zM41 90h1v1h-1z" /><path fill="#b47487" d="M45 16h1v1h-1zM65 80h1v1h-1zM61 81h1v1h-1zM30 94h1v1h-1z" /><path fill="#af6b7e" d="M64 16h1v1h-1zM14 53h1v1h-1z" /><path fill="#dfc4cc" d="M65 16h1v1h-1zM62 21h1v1h-1zM50 32h1v1h-1zM17 42h1v1h-1z" /><path fill="#efe1e5" d="M85 16h1v1h-1zM49 56h1v1h-1zM28 95h1v1h-1z" /><path fill="#d7b5bf" d="M45 17h1v1h-1zM69 24h1v1h-1zM78 60h1v1h-1z" /><path fill="#e2c9d0" d="M64 17h1v1h-1zM44 53h1v1h-1z" /><path fill="#ad677b" d="M66 17h1v1h-1zM42 68h1v1h-1z" /><path fill="#ad667b" d="M84 17h1v1h-1zM62 20h1v1h-1zM43 67h1v1h-1zM19 71h1v1h-1z" /><path fill="#f8f2f4" d="M45 18h1v1h-1zM25 44h1v1h-1zM54 59h1v1h-1zM42 90h1v1h-1z" /><path fill="#9b465f" d="M46 18h1v1h-1zM15 44h1v1h-1zM56 47h1v1h-1zM13 65h1v1h-1zM11 70h1v1h-1zM23 76h1v1h-1zM60 81h1v1h-1zM10 83h1v1h-1zM11 86h1v1h-1z" /><path fill="#ad687c" d="M63 18h1v1h-1z" /><path fill="#ddc0c8" d="M66 18h1v1h-1zM60 25h1v1h-1zM27 77h1v1h-1z" /><path fill="#cfa6b2" d="M84 18h1v1h-1zM73 32h1v1h-1zM87 50h1v1h-1z" /><path fill="#b6788a" d="M46 19h1v1h-1zM81 42h1v1h-1zM85 44h1v1h-1zM84 74h1v1h-1zM36 92h1v1h-1z" /><path fill="#e1c7ce" d="M63 19h1v1h-1zM73 50h1v1h-1zM27 95h1v1h-1z" /><path fill="#f1e4e8" d="M84 19h1v1h-1zM83 42h1v1h-1zM44 65h1v1h-1z" /><path fill="#d9b8c1" d="M46 20h1v1h-1zM56 33h1v1h-1zM52 42h1v1h-1zM59 42h1v1h-1zM17 60h1v1h-1zM82 60h1v1h-1zM18 61h1v1h-1z" /><path fill="#dbbcc5" d="M67 20h1v1h-1zM58 29h1v1h-1zM82 76h1v1h-1z" /><path fill="#ae697d" d="M83 20h1v1h-1zM20 94h1v1h-1z" /><path fill="#f9f3f5" d="M46 21h1v1h-1zM67 29h1v1h-1zM31 75h1v1h-1z" /><path fill="#9c475f" d="M47 21h1v1h-1zM77 37h1v1h-1zM46 54h1v1h-1zM20 73h1v1h-1zM46 87h1v1h-1z" /><path fill="#fefdfd" d="M67 21h1v1h-1zM68 23h1v1h-1zM84 59h1v1h-1zM79 78h1v1h-1zM38 92h1v1h-1zM29 95h1v1h-1z" /><path fill="#d1aab5" d="M83 21h1v1h-1zM72 30h1v1h-1zM78 42h1v1h-1zM26 51h1v1h-1z" /><path fill="#b87b8d" d="M47 22h1v1h-1zM19 42h1v1h-1zM46 43h1v1h-1z" /><path fill="#ac667a" d="M61 22h1v1h-1z" /><path fill="#d9b9c2" d="M68 22h1v1h-1zM86 72h1v1h-1zM9 77h1v1h-1z" /><path fill="#f3e8eb" d="M83 22h1v1h-1zM61 46h1v1h-1zM56 58h1v1h-1z" /><path fill="#dabbc4" d="M47 23h1v1h-1zM67 80h1v1h-1z" /><path fill="#dec2ca" d="M61 23h1v1h-1zM54 43h1v1h-1zM26 77h1v1h-1z" /><path fill="#a85d73" d="M69 23h1v1h-1z" /><path fill="#b06c80" d="M82 23h1v1h-1zM80 42h1v1h-1zM55 53h1v1h-1zM54 54h1v1h-1z" /><path fill="#faf5f7" d="M47 24h1v1h-1zM68 31h1v1h-1zM53 42h1v1h-1zM87 58h1v1h-1zM21 95h1v1h-1z" /><path fill="#9d4961" d="M48 24h1v1h-1zM63 30h1v1h-1zM62 32h1v1h-1zM61 53h1v1h-1zM54 60h1v1h-1zM39 71h1v1h-1zM48 86h1v1h-1zM12 88h1v1h-1zM18 93h1v1h-1zM29 94h1v1h-1z" /><path fill="#aa6277" d="M60 24h1v1h-1zM24 44h1v1h-1zM41 69h1v1h-1z" /><path fill="#fefefe" d="M61 24h1v1h-1zM65 25h1v1h-1zM60 26h1v1h-1zM59 28h1v1h-1zM73 46h1v1h-1zM17 56h1v1h-1zM78 56h1v1h-1zM20 71h1v1h-1z" /><path fill="#d3adb8" d="M82 24h1v1h-1zM71 28h1v1h-1zM70 36h1v1h-1zM52 60h1v1h-1zM62 81h1v1h-1zM25 95h1v1h-1z" /><path fill="#b97e8f" d="M48 25h1v1h-1z" /><path fill="#fdfbfc" d="M69 25h1v1h-1zM51 36h1v1h-1zM16 42h1v1h-1zM12 47h1v1h-1zM56 53h1v1h-1zM54 55h1v1h-1zM82 56h1v1h-1zM57 57h1v1h-1zM86 58h1v1h-1zM18 63h1v1h-1z" /><path fill="#a5596f" d="M70 25h1v1h-1zM71 39h1v1h-1zM56 51h1v1h-1zM36 73h1v1h-1z" /><path fill="#f4ebee" d="M82 25h1v1h-1zM47 61h1v1h-1zM10 86h1v1h-1zM48 87h1v1h-1z" /><path fill="#dcbec6" d="M48 26h1v1h-1zM74 45h1v1h-1zM15 92h1v1h-1z" /><path fill="#aa6176" d="M59 26h1v1h-1z" /><path fill="#cca1ad" d="M65 26h1v1h-1zM21 42h1v1h-1zM86 45h1v1h-1zM34 93h1v1h-1z" /><path fill="#d5b1bb" d="M70 26h1v1h-1zM71 38h1v1h-1zM13 52h1v1h-1zM20 72h1v1h-1zM39 91h1v1h-1z" /><path fill="#b27083" d="M81 26h1v1h-1z" /><path fill="#fbf8f9" d="M48 27h1v1h-1zM72 31h1v1h-1zM70 35h1v1h-1zM43 52h1v1h-1zM71 55h1v1h-1zM81 77h1v1h-1zM40 91h1v1h-1z" /><path fill="#9d4a62" d="M49 27h1v1h-1zM59 41h1v1h-1zM82 55h1v1h-1z" /><path fill="#dcbfc7" d="M59 27h1v1h-1zM11 68h1v1h-1z" /><path fill="#c3909f" d="M64 27h1v1h-1z" /><path fill="#9e4b63" d="M65 27h1v1h-1zM61 34h1v1h-1zM60 36h1v1h-1zM14 45h1v1h-1zM86 46h1v1h-1zM85 53h1v1h-1zM60 55h1v1h-1zM44 88h1v1h-1z" /><path fill="#f7f0f2" d="M66 27h1v1h-1zM60 34h1v1h-1zM44 44h1v1h-1zM61 50h1v1h-1zM60 53h1v1h-1zM14 54h1v1h-1zM44 89h1v1h-1z" /><path fill="#fdfbfb" d="M70 27h1v1h-1zM55 36h1v1h-1zM54 38h1v1h-1zM72 39h1v1h-1zM85 43h1v1h-1zM15 55h1v1h-1zM76 59h1v1h-1z" /><path fill="#d4b0ba" d="M81 27h1v1h-1z" /><path fill="#bb8192" d="M49 28h1v1h-1z" /><path fill="#a96075" d="M58 28h1v1h-1zM45 44h1v1h-1zM86 59h1v1h-1z" /><path fill="#f5ecef" d="M63 28h1v1h-1zM81 28h1v1h-1zM62 30h1v1h-1zM77 38h1v1h-1zM12 65h1v1h-1z" /><path fill="#9c4860" d="M64 28h1v1h-1zM77 43h1v1h-1zM33 75h1v1h-1z" /><path fill="#cb9fac" d="M66 28h1v1h-1zM75 36h1v1h-1zM12 66h1v1h-1z" /><path fill="#dec1ca" d="M49 29h1v1h-1z" /><path fill="#c492a0" d="M63 29h1v1h-1zM26 47h1v1h-1z" /><path fill="#9f4d65" d="M66 29h1v1h-1zM51 33h1v1h-1zM13 47h1v1h-1zM56 59h1v1h-1z" /><path fill="#fcf9fa" d="M71 29h1v1h-1zM49 30h1v1h-1zM69 50h1v1h-1zM58 56h1v1h-1zM11 67h1v1h-1zM25 76h1v1h-1zM9 83h1v1h-1z" /><path fill="#a3556c" d="M72 29h1v1h-1zM75 53h1v1h-1z" /><path fill="#b37385" d="M80 29h1v1h-1z" /><path fill="#9f4c64" d="M50 30h1v1h-1zM76 37h1v1h-1zM25 52h1v1h-1zM31 76h1v1h-1zM42 89h1v1h-1z" /><path fill="#a75d72" d="M57 30h1v1h-1zM25 77h1v1h-1zM55 83h1v1h-1z" /><path fill="#fdfcfc" d="M58 30h1v1h-1zM57 32h1v1h-1zM56 34h1v1h-1zM86 44h1v1h-1zM13 53h1v1h-1z" /><path fill="#cda3af" d="M67 30h1v1h-1z" /><path fill="#d6b3bd" d="M80 30h1v1h-1zM54 37h1v1h-1zM88 67h1v1h-1z" /><path fill="#bd8494" d="M50 31h1v1h-1zM23 43h1v1h-1zM73 58h1v1h-1zM77 60h1v1h-1zM14 62h1v1h-1z" /><path fill="#dabac3" d="M57 31h1v1h-1zM45 54h1v1h-1zM23 95h1v1h-1z" /><path fill="#c594a2" d="M62 31h1v1h-1zM75 44h1v1h-1zM49 86h1v1h-1z" /><path fill="#a04f67" d="M67 31h1v1h-1zM52 36h1v1h-1zM84 54h1v1h-1z" /><path fill="#a75c72" d="M56 32h1v1h-1zM44 66h1v1h-1zM87 69h1v1h-1zM38 91h1v1h-1zM33 93h1v1h-1z" /><path fill="#b57688" d="M79 32h1v1h-1zM60 43h1v1h-1z" /><path fill="#fcfafa" d="M50 33h1v1h-1zM71 37h1v1h-1zM48 56h1v1h-1zM85 74h1v1h-1zM84 75h1v1h-1z" /><path fill="#c796a4" d="M61 33h1v1h-1zM48 42h1v1h-1z" /><path fill="#a15168" d="M68 33h1v1h-1zM74 33h1v1h-1zM86 71h1v1h-1z" /><path fill="#faf6f7" d="M69 33h1v1h-1zM9 74h1v1h-1z" /><path fill="#fbf7f8" d="M73 33h1v1h-1z" /><path fill="#d8b6c0" d="M79 33h1v1h-1z" /><path fill="#bf8897" d="M51 34h1v1h-1zM37 72h1v1h-1zM85 73h1v1h-1zM34 74h1v1h-1zM51 85h1v1h-1z" /><path fill="#d1abb6" d="M69 34h1v1h-1zM61 51h1v1h-1zM31 94h1v1h-1zM24 95h1v1h-1z" /><path fill="#9b465e" d="M78 34h1v1h-1zM70 42h1v1h-1zM55 45h1v1h-1zM48 55h1v1h-1zM57 82h1v1h-1zM50 85h1v1h-1z" /><path fill="#f8f2f3" d="M79 34h1v1h-1zM75 37h1v1h-1zM70 44h1v1h-1zM87 46h1v1h-1zM12 50h1v1h-1zM42 67h1v1h-1zM41 68h1v1h-1zM10 70h1v1h-1zM16 93h1v1h-1z" /><path fill="#e1c7cf" d="M51 35h1v1h-1z" /><path fill="#d7b6bf" d="M55 35h1v1h-1zM55 44h1v1h-1zM9 80h1v1h-1zM26 95h1v1h-1z" /><path fill="#c798a6" d="M60 35h1v1h-1z" /><path fill="#a3546a" d="M69 35h1v1h-1z" /><path fill="#f9f5f6" d="M74 35h1v1h-1zM57 47h1v1h-1zM74 58h1v1h-1zM87 71h1v1h-1zM75 79h1v1h-1zM60 82h1v1h-1z" /><path fill="#a04f66" d="M75 35h1v1h-1zM48 61h1v1h-1zM22 75h1v1h-1z" /><path fill="#b77a8b" d="M78 35h1v1h-1z" /><path fill="#f7f1f3" d="M59 36h1v1h-1zM58 38h1v1h-1zM55 54h1v1h-1z" /><path fill="#d9b9c3" d="M78 36h1v1h-1zM43 51h1v1h-1z" /><path fill="#c38f9e" d="M52 37h1v1h-1zM71 56h1v1h-1zM10 72h1v1h-1zM13 90h1v1h-1z" /><path fill="#c99ba8" d="M59 37h1v1h-1zM66 80h1v1h-1z" /><path fill="#a4566c" d="M70 37h1v1h-1z" /><path fill="#f0e4e7" d="M53 38h1v1h-1zM12 48h1v1h-1zM13 63h1v1h-1z" /><path fill="#9e4c63" d="M59 38h1v1h-1zM69 44h1v1h-1z" /><path fill="#e7d3d9" d="M76 38h1v1h-1zM26 46h1v1h-1z" /><path fill="#ca9daa" d="M58 39h1v1h-1zM72 57h1v1h-1zM43 89h1v1h-1z" /><path fill="#a5576e" d="M58 40h1v1h-1z" /><path fill="#d8b7c1" d="M72 40h1v1h-1zM88 62h1v1h-1z" /><path fill="#e8d5da" d="M58 41h1v1h-1zM73 47h1v1h-1z" /><path fill="#c3919f" d="M18 42h1v1h-1z" /><path fill="#bc8293" d="M20 42h1v1h-1z" /><path fill="#eddee3" d="M22 42h1v1h-1zM56 45h1v1h-1zM86 53h1v1h-1zM48 60h1v1h-1z" /><path fill="#e9d6dc" d="M47 42h1v1h-1zM43 46h1v1h-1zM50 60h1v1h-1z" /><path fill="#b47486" d="M49 42h1v1h-1z" /><path fill="#b16e81" d="M50 42h1v1h-1z" /><path fill="#bd8595" d="M51 42h1v1h-1z" /><path fill="#ead8de" d="M71 42h1v1h-1zM87 51h1v1h-1zM80 60h1v1h-1z" /><path fill="#bb8292" d="M79 42h1v1h-1z" /><path fill="#e7d2d8" d="M15 43h1v1h-1zM49 60h1v1h-1z" /><path fill="#a85e73" d="M16 43h1v1h-1zM70 55h1v1h-1z" /><path fill="#a2536a" d="M53 43h1v1h-1zM44 52h1v1h-1zM70 79h1v1h-1z" /><path fill="#c99aa8" d="M70 43h1v1h-1zM87 48h1v1h-1zM32 75h1v1h-1z" /><path fill="#c695a3" d="M84 43h1v1h-1z" /><path fill="#e0c5cd" d="M14 44h1v1h-1zM19 56h1v1h-1zM9 76h1v1h-1z" /><path fill="#e9d7dc" d="M60 44h1v1h-1z" /><path fill="#f2e7ea" d="M13 45h1v1h-1zM57 50h1v1h-1zM59 55h1v1h-1zM40 69h1v1h-1z" /><path fill="#b97d8e" d="M25 45h1v1h-1zM44 45h1v1h-1zM58 57h1v1h-1z" /><path fill="#ab6378" d="M61 45h1v1h-1z" /><path fill="#be8797" d="M69 45h1v1h-1zM74 52h1v1h-1zM47 55h1v1h-1z" /><path fill="#c08b9a" d="M13 46h1v1h-1z" /><path fill="#b87c8d" d="M56 46h1v1h-1zM11 69h1v1h-1z" /><path fill="#ebd9de" d="M62 46h7v1h-7z" /><path fill="#a65a70" d="M74 46h1v1h-1zM52 55h1v1h-1zM79 77h1v1h-1z" /><path fill="#c797a5" d="M43 47h1v1h-1z" /><path fill="#dbbcc4" d="M87 47h1v1h-1zM10 71h1v1h-1z" /><path fill="#b16f82" d="M26 48h1v1h-1zM59 56h1v1h-1z" /><path fill="#b57587" d="M43 48h1v1h-1zM28 77h1v1h-1z" /><path fill="#d7b4be" d="M73 48h1v1h-1zM25 53h1v1h-1z" /><path fill="#ecdbe0" d="M12 49h1v1h-1zM18 56h1v1h-1z" /><path fill="#ab6479" d="M26 49h1v1h-1z" /><path fill="#e6d1d7" d="M57 49h1v1h-1zM23 75h1v1h-1zM78 78h1v1h-1zM74 79h1v1h-1z" /><path fill="#d4afba" d="M73 49h1v1h-1zM80 77h1v1h-1zM12 89h1v1h-1z" /><path fill="#c491a0" d="M87 49h1v1h-1z" /><path fill="#b67789" d="M26 50h1v1h-1zM47 62h1v1h-1zM53 84h1v1h-1z" /><path fill="#bf8898" d="M43 50h1v1h-1zM16 60h1v1h-1z" /><path fill="#e4cdd3" d="M62 50h7v1h-7zM54 84h1v1h-1z" /><path fill="#e5ced5" d="M69 51h1v1h-1z" /><path fill="#f7eff1" d="M73 51h1v1h-1zM43 66h1v1h-1z" /><path fill="#ba7f90" d="M61 52h1v1h-1z" /><path fill="#ae697c" d="M15 54h1v1h-1z" /><path fill="#cea4b0" d="M24 54h1v1h-1z" /><path fill="#cea5b1" d="M60 54h1v1h-1zM16 55h1v1h-1z" /><path fill="#e1c8cf" d="M70 54h1v1h-1zM79 60h1v1h-1z" /><path fill="#e5d0d6" d="M85 54h1v1h-1zM23 55h1v1h-1zM45 64h1v1h-1z" /><path fill="#eedfe3" d="M46 55h1v1h-1zM18 62h1v1h-1zM9 82h1v1h-1z" /><path fill="#d2acb7" d="M53 55h1v1h-1zM73 79h1v1h-1z" /><path fill="#a15067" d="M78 55h1v1h-1zM76 60h1v1h-1z" /><path fill="#c28e9d" d="M83 55h1v1h-1zM83 60h1v1h-1zM88 64h1v1h-1zM72 79h1v1h-1zM47 87h1v1h-1z" /><path fill="#e3cbd2" d="M20 56h1v1h-1z" /><path fill="#e4cdd4" d="M50 56h1v1h-1z" /><path fill="#f1e6e9" d="M51 56h1v1h-1z" /><path fill="#e5cfd5" d="M80 56h1v1h-1zM81 60h1v1h-1z" /><path fill="#ecdce1" d="M81 56h1v1h-1zM9 75h1v1h-1z" /><path fill="#b06d80" d="M57 58h1v1h-1z" /><path fill="#dfc3cb" d="M85 59h1v1h-1zM37 92h1v1h-1z" /><path fill="#cfa5b1" d="M87 59h1v1h-1zM87 70h1v1h-1z" /><path fill="#bf8999" d="M15 60h1v1h-1z" /><path fill="#f3e9ec" d="M18 60h1v1h-1zM33 74h1v1h-1z" /><path fill="#e0c6cd" d="M51 60h1v1h-1zM9 81h1v1h-1z" /><path fill="#b77a8c" d="M53 60h1v1h-1z" /><path fill="#a4576d" d="M84 60h1v1h-1z" /><path fill="#eddee2" d="M14 61h1v1h-1zM88 68h1v1h-1zM52 85h1v1h-1z" /><path fill="#efe2e6" d="M88 61h1v1h-1zM29 76h1v1h-1zM32 94h1v1h-1z" /><path fill="#d0a8b3" d="M46 63h1v1h-1zM19 94h1v1h-1z" /><path fill="#c99ca9" d="M88 63h1v1h-1z" /><path fill="#c18b9b" d="M13 64h1v1h-1zM11 87h1v1h-1z" /><path fill="#a15269" d="M45 65h1v1h-1zM81 76h1v1h-1zM40 90h1v1h-1zM16 92h1v1h-1z" /><path fill="#c18c9b" d="M88 65h1v1h-1z" /><path fill="#f4eaed" d="M18 66h1v1h-1zM50 86h1v1h-1z" /><path fill="#e3ccd3" d="M18 67h1v1h-1zM19 70h1v1h-1z" /><path fill="#e9d5db" d="M39 70h1v1h-1zM21 73h1v1h-1z" /><path fill="#dbbdc6" d="M38 71h1v1h-1z" /><path fill="#e6d0d6" d="M35 73h1v1h-1zM22 95h1v1h-1z" /><path fill="#a3556b" d="M21 74h1v1h-1z" /><path fill="#c08a99" d="M83 75h1v1h-1z" /><path fill="#cb9eab" d="M24 76h1v1h-1z" /><path fill="#c593a1" d="M30 76h1v1h-1zM17 93h1v1h-1z" /><path fill="#d5b0bb" d="M9 79h1v1h-1z" /><path fill="#9f4e65" d="M64 80h1v1h-1z" /><path fill="#ead8dd" d="M68 80h1v1h-1z" /><path fill="#f0e3e7" d="M63 81h1v1h-1z" /><path fill="#ba8090" d="M58 82h1v1h-1z" /><path fill="#ddbfc8" d="M59 82h1v1h-1z" /><path fill="#f6eef0" d="M57 83h1v1h-1z" /><path fill="#b37285" d="M10 84h1v1h-1z" /><path fill="#f1e5e8" d="M11 88h1v1h-1z" /><path fill="#c899a6" d="M45 88h1v1h-1z" /><path fill="#c696a4" d="M14 91h1v1h-1z" /></svg>