<svg xmlns="http://www.w3.org/2000/svg" viewBox="0 0 100 100"><path fill="#fc9e20" fill-rule="evenodd" d="M14 0h1v1h-1z"/><path fill="#fc9d21" fill-rule="evenodd" d="M15 0h1v1h-1z"/><path fill="#fc9d20" fill-rule="evenodd" d="M16 0h1v1h-1z"/><path fill="#fca21e" fill-rule="evenodd" d="M13 1h1v1h-1z"/><path fill="#fda31f" fill-rule="evenodd" d="M14 1h1v1h-1z"/><path fill="#fda21f" fill-rule="evenodd" d="M15 1h1v1h-1zm-3 3h1v1h-1z"/><path fill="#fda220" fill-rule="evenodd" d="M16 1h1v1h-1z"/><path fill="#fca020" fill-rule="evenodd" d="M17 1h1v1h-1z"/><path fill="#fd9f20" fill-rule="evenodd" d="M12 2h1v1h-1z"/><path fill="#fda41f" fill-rule="evenodd" d="M13 2h1v1h-1z"/><path fill="#fca71d" fill-rule="evenodd" d="M14 2h1v1h-1zm-1 2h1v1h-1z"/><path fill="#fda61e" fill-rule="evenodd" d="M15 2h2v1h-2zm-2 1h1v1h-1z"/><path fill="#fda51e" fill-rule="evenodd" d="M17 2h1v1h-1z"/><path fill="#fca41e" fill-rule="evenodd" d="M18 2h1v1h-1z"/><path fill="#fda11f" fill-rule="evenodd" d="M12 3h1v1h-1z"/><path fill="#fca91c" fill-rule="evenodd" d="M14 3h1v1h-1zm3 0h1v1h-1z"/><path fill="#fcaa1c" fill-rule="evenodd" d="M15 3h2v1h-2z"/><path fill="#fca91d" fill-rule="evenodd" d="M18 3h1v1h-1z"/><path fill="#fba71d" fill-rule="evenodd" d="M19 3h1v1h-1z"/><path fill="#fcab1c" fill-rule="evenodd" d="M14 4h1v1h-1z"/><path fill="#fcae1a" fill-rule="evenodd" d="M15 4h2v1h-2zm-1 2h1v1h-1z"/><path fill="#fcad1b" fill-rule="evenodd" d="M17 4h2v1h-2z"/><path fill="#fcac1b" fill-rule="evenodd" d="M19 4h1v1h-1zm-5 1h1v1h-1z"/><path fill="#fcab1b" fill-rule="evenodd" d="M20 4h1v1h-1z"/><path fill="#fba91d" fill-rule="evenodd" d="M13 5h1v1h-1z"/><path fill="#fcb019" fill-rule="evenodd" d="M15 5h1v1h-1zm4 0h1v1h-1z"/><path fill="#fcb219" fill-rule="evenodd" d="M16 5h1v1h-1zm0 1v1h-1v-1z"/><path fill="#fcb119" fill-rule="evenodd" d="M17 5h2v1h-2z"/><path fill="#fcaf1a" fill-rule="evenodd" d="M20 5h1v1h-1zm-6 2h1v1h-1z"/><path fill="#fbaf1a" fill-rule="evenodd" d="M21 5h1v1h-1z"/><path fill="#fcaa1b" fill-rule="evenodd" d="M13 6h1v1h-1z"/><path fill="#fcb517" fill-rule="evenodd" d="M16 6h2v1h-2zm-1 2h1v1h-1z"/><path fill="#fcb418" fill-rule="evenodd" d="M18 6h2v1h-2z"/><path fill="#fcb318" fill-rule="evenodd" d="M20 6h2v1h-2zm-5 1h1v1h-1z"/><path fill="#fcb717" fill-rule="evenodd" d="M16 7h1v1h-1z"/><path fill="#fcb916" fill-rule="evenodd" d="M17 7h1v1h-1z"/><path fill="#fcb816" fill-rule="evenodd" d="M18 7h2v1h-2zm-2 1h1v1h-1z"/><path fill="#fcb716" fill-rule="evenodd" d="M20 7h2v1h-2z"/><path fill="#fbb516" fill-rule="evenodd" d="M22 7h1v1h-1z"/><path fill="#fbb118" fill-rule="evenodd" d="M14 8h1v1h-1z"/><path fill="#fbbc14" fill-rule="evenodd" d="M17 8h3v1h-3z"/><path fill="#fcbb15" fill-rule="evenodd" d="M20 8h2v1h-2zm-4 2h1v1h-1z"/><path fill="#fcba15" fill-rule="evenodd" d="M22 8h1v1h-1zm-6 1h1v1h-1z"/><path fill="#fbb915" fill-rule="evenodd" d="M23 8h1v1h-1z"/><path fill="#fcb617" fill-rule="evenodd" d="M15 9h1v1h-1z"/><path fill="#fbbe14" fill-rule="evenodd" d="M17 9h1v1h-1z"/><path fill="#fbc012" fill-rule="evenodd" d="M18 9h1v1h-1zm7 1h1v1h-1z"/><path fill="#fbc013" fill-rule="evenodd" d="M19 9h1v1h-1z"/><path fill="#fbbf13" fill-rule="evenodd" d="M20 9h2v1h-2zm-3 1h1v1h-1z"/><path fill="#fbbe13" fill-rule="evenodd" d="M22 9h2v1h-2z"/><path fill="#fabd13" fill-rule="evenodd" d="M24 9h1v1h-1z"/><path fill="#fbb715" fill-rule="evenodd" d="M15 10h1v1h-1z"/><path fill="#fbc311" fill-rule="evenodd" d="M18 10h1v1h-1zm2 0h2v1h-2z"/><path fill="#fbc411" fill-rule="evenodd" d="M19 10h1v1h-1zm0 1v1h-1v-1zm-2 2h1v1h-1z"/><path fill="#fbc212" fill-rule="evenodd" d="M22 10h2v1h-2zm-5 2h1v1h-1z"/><path fill="#fbc112" fill-rule="evenodd" d="M24 10h1v1h-1zm-7 1h1v1h-1z"/><path fill="#fbb815" fill-rule="evenodd" d="M15 11h1v1h-1z"/><path fill="#fbbd14" fill-rule="evenodd" d="M16 11h1v1h-1z"/><path fill="#fbc817" fill-rule="evenodd" d="M19 11h1v1h-1z"/><path fill="#fbc715" fill-rule="evenodd" d="M20 11h1v1h-1zm-2 2h1v1h-1z"/><path fill="#fbc713" fill-rule="evenodd" d="M21 11h1v1h-1z"/><path fill="#fbc611" fill-rule="evenodd" d="M22 11h1v1h-1z"/><path fill="#fbc610" fill-rule="evenodd" d="M23 11h1v1h-1zm-5 1h1v1h-1z"/><path fill="#fbc510" fill-rule="evenodd" d="M24 11h1v1h-1zm-7 3h1v1h-1z"/><path fill="#fbc511" fill-rule="evenodd" d="M25 11h1v1h-1z"/><path fill="#fabe13" fill-rule="evenodd" d="M16 12h1v1h-1z"/><path fill="#fac91d" fill-rule="evenodd" d="M19 12h1v1h-1z"/><path fill="#facb24" fill-rule="evenodd" d="M20 12h1v1h-1z"/><path fill="#faca22" fill-rule="evenodd" d="M21 12h1v1h-1z"/><path fill="#faca20" fill-rule="evenodd" d="M22 12h1v1h-1z"/><path fill="#fac91e" fill-rule="evenodd" d="M23 12h1v1h-1z"/><path fill="#fac91c" fill-rule="evenodd" d="M24 12h1v1h-1z"/><path fill="#fbc81a" fill-rule="evenodd" d="M25 12h1v1h-1z"/><path fill="#fac718" fill-rule="evenodd" d="M26 12h1v1h-1z"/><path fill="#fac012" fill-rule="evenodd" d="M16 13h1v1h-1z"/><path fill="#facb23" fill-rule="evenodd" d="M19 13h1v1h-1z"/><path fill="#f9ce31" fill-rule="evenodd" d="M20 13h2v1h-2z"/><path fill="#facd2f" fill-rule="evenodd" d="M22 13h1v1h-1zm-3 2h1v1h-1z"/><path fill="#facd2d" fill-rule="evenodd" d="M23 13h1v1h-1z"/><path fill="#facc2b" fill-rule="evenodd" d="M24 13h1v1h-1z"/><path fill="#facc29" fill-rule="evenodd" d="M25 13h1v1h-1zm-6 1h1v1h-1z"/><path fill="#facc27" fill-rule="evenodd" d="M26 13h1v1h-1z"/><path fill="#f9cb24" fill-rule="evenodd" d="M27 13h1v1h-1z"/><path fill="#fac91b" fill-rule="evenodd" d="M18 14h1v1h-1z"/><path fill="#f9cf37" fill-rule="evenodd" d="M20 14h1v1h-1z"/><path fill="#f9d140" fill-rule="evenodd" d="M21 14h1v1h-1zm-2 4h1v1h-1z"/><path fill="#f9d13e" fill-rule="evenodd" d="M22 14h1v1h-1z"/><path fill="#f9d03c" fill-rule="evenodd" d="M23 14h1v1h-1z"/><path fill="#f9d03a" fill-rule="evenodd" d="M24 14h1v1h-1zm-5 3h1v1h-1z"/><path fill="#f9d038" fill-rule="evenodd" d="M25 14h1v1h-1z"/><path fill="#f9cf36" fill-rule="evenodd" d="M26 14h1v1h-1z"/><path fill="#f9cf34" fill-rule="evenodd" d="M27 14h1v1h-1zm-8 2h1v1h-1z"/><path fill="#f8ce31" fill-rule="evenodd" d="M28 14h1v1h-1zm-10 4h1v1h-1z"/><path fill="#fac613" fill-rule="evenodd" d="M17 15h1v1h-1z"/><path fill="#faca21" fill-rule="evenodd" d="M18 15h1v1h-1z"/><path fill="#f9d13c" fill-rule="evenodd" d="M20 15h1v1h-1z"/><path fill="#f8d44a" fill-rule="evenodd" d="M21 15h1v1h-1z"/><path fill="#f8d44d" fill-rule="evenodd" d="M22 15h1v1h-1z"/><path fill="#f8d44b" fill-rule="evenodd" d="M23 15h1v1h-1zm-4 5h1v1h-1z"/><path fill="#f8d449" fill-rule="evenodd" d="M24 15h1v1h-1z"/><path fill="#f8d347" fill-rule="evenodd" d="M25 15h1v1h-1z"/><path fill="#f9d345" fill-rule="evenodd" d="M26 15h1v1h-1zm-7 4h1v1h-1z"/><path fill="#f9d243" fill-rule="evenodd" d="M27 15h1v1h-1z"/><path fill="#f9d241" fill-rule="evenodd" d="M28 15h1v1h-1z"/><path fill="#f8d13f" fill-rule="evenodd" d="M29 15h1v1h-1z"/><path fill="#fbc818" fill-rule="evenodd" d="M17 16h1v1h-1z"/><path fill="#facb26" fill-rule="evenodd" d="M18 16h1v1h-1z"/><path fill="#f9d242" fill-rule="evenodd" d="M20 16h1v1h-1z"/><path fill="#f8d550" fill-rule="evenodd" d="M21 16h1v1h-1zm7 0h1v1h-1z"/><path fill="#f7d85c" fill-rule="evenodd" d="M22 16h1v1h-1zm-1 2h1v1h-1z"/><path fill="#f8d85a" fill-rule="evenodd" d="M23 16h1v1h-1z"/><path fill="#f8d758" fill-rule="evenodd" d="M24 16h1v1h-1z"/><path fill="#f8d756" fill-rule="evenodd" d="M25 16h1v1h-1zm-4 1h1v1h-1z"/><path fill="#f8d654" fill-rule="evenodd" d="M26 16h1v1h-1z"/><path fill="#f8d652" fill-rule="evenodd" d="M27 16h1v1h-1z"/><path fill="#f8d54e" fill-rule="evenodd" d="M29 16h1v1h-1zm-9 2h1v1h-1z"/><path fill="#f7d44b" fill-rule="evenodd" d="M30 16h1v1h-1z"/><path fill="#facd2c" fill-rule="evenodd" d="M18 17h1v1h-1z"/><path fill="#f8d348" fill-rule="evenodd" d="M20 17h1v1h-1z"/><path fill="#f7da64" fill-rule="evenodd" d="M22 17h1v1h-1zm-2 5h1v1h-1z"/><path fill="#f7db69" fill-rule="evenodd" d="M23 17h1v1h-1z"/><path fill="#f7db67" fill-rule="evenodd" d="M24 17h1v1h-1zm-3 3h1v1h-1z"/><path fill="#f7da65" fill-rule="evenodd" d="M25 17h1v1h-1z"/><path fill="#f7da63" fill-rule="evenodd" d="M26 17h1v1h-1z"/><path fill="#f7d961" fill-rule="evenodd" d="M27 17h1v1h-1zm-6 2h1v1h-1z"/><path fill="#f7d95f" fill-rule="evenodd" d="M28 17h1v1h-1zm-8 4h1v1h-1z"/><path fill="#f7d85d" fill-rule="evenodd" d="M29 17h1v1h-1z"/><path fill="#f7d85b" fill-rule="evenodd" d="M30 17h1v1h-1z"/><path fill="#f7d659" fill-rule="evenodd" d="M31 17h1v1h-1z"/><path fill="#f7db6a" fill-rule="evenodd" d="M22 18h1v1h-1zm8 0h1v1h-1zm-10 5h1v1h-1z"/><path fill="#f6df77" fill-rule="evenodd" d="M23 18h1v1h-1z"/><path fill="#f6de76" fill-rule="evenodd" d="M24 18h1v1h-1z"/><path fill="#f6de74" fill-rule="evenodd" d="M25 18h1v1h-1z"/><path fill="#f6dd72" fill-rule="evenodd" d="M26 18h1v1h-1zm-5 4h1v1h-1z"/><path fill="#f7dd70" fill-rule="evenodd" d="M27 18h1v1h-1zm-7 6h1v1h-1z"/><path fill="#f7dc6e" fill-rule="evenodd" d="M28 18h1v1h-1z"/><path fill="#f7dc6c" fill-rule="evenodd" d="M29 18h1v1h-1z"/><path fill="#f7db68" fill-rule="evenodd" d="M31 18h1v1h-1z"/><path fill="#f7da66" fill-rule="evenodd" d="M32 18h1v1h-1z"/><path fill="#f6d964" fill-rule="evenodd" d="M33 18h1v1h-1z"/><path fill="#f8ce36" fill-rule="evenodd" d="M18 19h1v1h-1z"/><path fill="#f8d653" fill-rule="evenodd" d="M20 19h1v1h-1z"/><path fill="#f7dd6f" fill-rule="evenodd" d="M22 19h1v1h-1z"/><path fill="#f6e07d" fill-rule="evenodd" d="M23 19h1v1h-1zm5 0h1v1h-1z"/><path fill="#f6e285" fill-rule="evenodd" d="M24 19h1v1h-1z"/><path fill="#f6e183" fill-rule="evenodd" d="M25 19h1v1h-1zm-2 1h1v1h-1z"/><path fill="#f6e181" fill-rule="evenodd" d="M26 19h1v1h-1z"/><path fill="#f6e07f" fill-rule="evenodd" d="M27 19h1v1h-1z"/><path fill="#f6df7b" fill-rule="evenodd" d="M29 19h1v1h-1zm-7 2h1v1h-1z"/><path fill="#f6df79" fill-rule="evenodd" d="M30 19h1v1h-1z"/><path fill="#f6de77" fill-rule="evenodd" d="M31 19h1v1h-1z"/><path fill="#f6de75" fill-rule="evenodd" d="M32 19h1v1h-1zm-10 1h1v1h-1z"/><path fill="#f6de73" fill-rule="evenodd" d="M33 19h1v1h-1z"/><path fill="#f6dd70" fill-rule="evenodd" d="M34 19h1v1h-1z"/><path fill="#f8d759" fill-rule="evenodd" d="M20 20h1v1h-1z"/><path fill="#f5e591" fill-rule="evenodd" d="M24 20h1v1h-1zm9 1h1v1h-1zm-11 4h1v1h-1z"/><path fill="#f5e592" fill-rule="evenodd" d="M25 20h1v1h-1z"/><path fill="#f5e490" fill-rule="evenodd" d="M26 20h1v1h-1z"/><path fill="#f5e48e" fill-rule="evenodd" d="M27 20h1v1h-1zm-4 2h1v1h-1z"/><path fill="#f5e38c" fill-rule="evenodd" d="M28 20h1v1h-1zm-6 4h1v1h-1z"/><path fill="#f5e38a" fill-rule="evenodd" d="M29 20h1v1h-1z"/><path fill="#f5e288" fill-rule="evenodd" d="M30 20h1v1h-1z"/><path fill="#f5e286" fill-rule="evenodd" d="M31 20h1v1h-1zm-9 3h1v1h-1z"/><path fill="#f6e284" fill-rule="evenodd" d="M32 20h1v1h-1z"/><path fill="#f6e182" fill-rule="evenodd" d="M33 20h1v1h-1z"/><path fill="#f6e180" fill-rule="evenodd" d="M34 20h1v1h-1zm-12 2h1v1h-1z"/><path fill="#f5e07e" fill-rule="evenodd" d="M35 20h1v1h-1z"/><path fill="#f7d551" fill-rule="evenodd" d="M19 21h1v1h-1z"/><path fill="#f7dc6d" fill-rule="evenodd" d="M21 21h1v1h-1z"/><path fill="#f5e389" fill-rule="evenodd" d="M23 21h1v1h-1zm-2 5h1v1h-1z"/><path fill="#f5e697" fill-rule="evenodd" d="M24 21h1v1h-1zm6 0h1v1h-1zm-8 5h1v1h-1z"/><path fill="#f4e8a1" fill-rule="evenodd" d="M25 21h1v1h-1z"/><path fill="#f4e89f" fill-rule="evenodd" d="M26 21h1v1h-1zm-3 4h1v1h-1z"/><path fill="#f4e79d" fill-rule="evenodd" d="M27 21h1v1h-1zm-5 6h1v1h-1z"/><path fill="#f5e79b" fill-rule="evenodd" d="M28 21h1v1h-1z"/><path fill="#f5e799" fill-rule="evenodd" d="M29 21h1v1h-1z"/><path fill="#f5e695" fill-rule="evenodd" d="M31 21h1v1h-1z"/><path fill="#f5e593" fill-rule="evenodd" d="M32 21h1v1h-1z"/><path fill="#f5e48f" fill-rule="evenodd" d="M34 21h1v1h-1zm-13 6h1v1h-1z"/><path fill="#f5e48d" fill-rule="evenodd" d="M35 21h1v1h-1z"/><path fill="#f4e38a" fill-rule="evenodd" d="M36 21h1v1h-1z"/><path fill="#f8d656" fill-rule="evenodd" d="M19 22h1v1h-1z"/><path fill="#f4e79c" fill-rule="evenodd" d="M24 22h1v1h-1zm11 0h1v1h-1z"/><path fill="#f4ebaa" fill-rule="evenodd" d="M25 22h1v1h-1zm3 0h1v1h-1z"/><path fill="#f4ebae" fill-rule="evenodd" d="M26 22h1v1h-1zm-4 8h1v1h-1z"/><path fill="#f4ebac" fill-rule="evenodd" d="M27 22h1v1h-1z"/><path fill="#f4eaa8" fill-rule="evenodd" d="M29 22h1v1h-1zm-5 2h1v1h-1zm-2 5h1v1h-1z"/><path fill="#f4eaa6" fill-rule="evenodd" d="M30 22h1v1h-1z"/><path fill="#f4e9a4" fill-rule="evenodd" d="M31 22h1v1h-1z"/><path fill="#f4e9a2" fill-rule="evenodd" d="M32 22h1v1h-1zm-8 1h1v1h-1zm15 0h1v1h-1z"/><path fill="#f4e8a0" fill-rule="evenodd" d="M33 22h1v1h-1zm-12 8h1v1h-1z"/><path fill="#f4e89e" fill-rule="evenodd" d="M34 22h1v1h-1z"/><path fill="#f5e79a" fill-rule="evenodd" d="M36 22h1v1h-1zm-13 2h1v1h-1zm-2 5h1v1h-1z"/><path fill="#f5e698" fill-rule="evenodd" d="M37 22h1v1h-1z"/><path fill="#f4e696" fill-rule="evenodd" d="M38 22h1v1h-1z"/><path fill="#f7d75b" fill-rule="evenodd" d="M19 23h1v1h-1z"/><path fill="#f6df78" fill-rule="evenodd" d="M21 23h1v1h-1z"/><path fill="#f5e594" fill-rule="evenodd" d="M23 23h1v1h-1z"/><path fill="#f4ecb0" fill-rule="evenodd" d="M25 23h1v1h-1zm15 1h1v1h-1z"/><path fill="#f3efbd" fill-rule="evenodd" d="M26 23h1v1h-1zm15 2h1v1h-1z"/><path fill="#f3efbb" fill-rule="evenodd" d="M27 23h1v1h-1zm-2 2h1v1h-1z"/><path fill="#f3eeb9" fill-rule="evenodd" d="M28 23h1v1h-1zm-4 4h1v1h-1zm-2 5h1v1h-1z"/><path fill="#f3eeb7" fill-rule="evenodd" d="M29 23h1v1h-1z"/><path fill="#f3edb5" fill-rule="evenodd" d="M30 23h1v1h-1z"/><path fill="#f3edb3" fill-rule="evenodd" d="M31 23h1v1h-1zm-7 3h1v1h-1z"/><path fill="#f3ecb1" fill-rule="evenodd" d="M32 23h1v1h-1z"/><path fill="#f4ecaf" fill-rule="evenodd" d="M33 23h1v1h-1z"/><path fill="#f4ebad" fill-rule="evenodd" d="M34 23h1v1h-1zm-10 2h1v1h-1z"/><path fill="#f4ebab" fill-rule="evenodd" d="M35 23h1v1h-1zm-12 4h1v1h-1z"/><path fill="#f4eaa9" fill-rule="evenodd" d="M36 23h1v1h-1z"/><path fill="#f4eaa7" fill-rule="evenodd" d="M37 23h1v1h-1z"/><path fill="#f4e9a5" fill-rule="evenodd" d="M38 23h1v1h-1zm-15 3h1v1h-1z"/><path fill="#f6e07e" fill-rule="evenodd" d="M21 24h1v1h-1z"/><path fill="#f3edb6" fill-rule="evenodd" d="M25 24h1v1h-1zm12 0h1v1h-1zm-14 5h1v1h-1z"/><path fill="#f3f1c4" fill-rule="evenodd" d="M26 24h1v1h-1zm4 0h1v1h-1zm-6 5h1v1h-1z"/><path fill="#f2f2ca" fill-rule="evenodd" d="M27 24h1v1h-1zm15 2h1v1h-1zm-18 4h1v1h-1zm-22 54h1v1h-1z"/><path fill="#f2f2c8" fill-rule="evenodd" d="M28 24h1v1h-1zm15 2h1v1h-1z"/><path fill="#f3f1c6" fill-rule="evenodd" d="M29 24h1v1h-1z"/><path fill="#f3f0c2" fill-rule="evenodd" d="M31 24h1v1h-1zm-8 7h1v1h-1zm-2 5h1v1h-1z"/><path fill="#f3f0c0" fill-rule="evenodd" d="M32 24h1v1h-1zm61 8h1v1h-1z"/><path fill="#f3efbe" fill-rule="evenodd" d="M33 24h1v1h-1z"/><path fill="#f3efbc" fill-rule="evenodd" d="M34 24h1v1h-1zm-11 6h1v1h-1z"/><path fill="#f3eeba" fill-rule="evenodd" d="M35 24h1v1h-1z"/><path fill="#f3eeb8" fill-rule="evenodd" d="M36 24h1v1h-1z"/><path fill="#f3edb4" fill-rule="evenodd" d="M38 24h1v1h-1zm-16 7h1v1h-1z"/><path fill="#f3ecb2" fill-rule="evenodd" d="M39 24h1v1h-1z"/><path fill="#f3ebae" fill-rule="evenodd" d="M41 24h1v1h-1z"/><path fill="#f5dd76" fill-rule="evenodd" d="M20 25h1v1h-1z"/><path fill="#f6e184" fill-rule="evenodd" d="M21 25h1v1h-1z"/><path fill="#f2f2c9" fill-rule="evenodd" d="M26 25h1v1h-1zm9 0h1v1h-1z"/><path fill="#f2f5d7" fill-rule="evenodd" d="M27 25h2v1h-2zm16 2h1v1h-1z"/><path fill="#f2f5d5" fill-rule="evenodd" d="M29 25h1v1h-1zm-3 2h1v1h-1zm18 0h1v1h-1zm-20 5h1v1h-1zm66 1h1v1h-1z"/><path fill="#f2f4d3" fill-rule="evenodd" d="M30 25h1v1h-1zm61 8h1v1h-1zm-68 1h1v1h-1z"/><path fill="#f2f4d1" fill-rule="evenodd" d="M31 25h1v1h-1zm61 8h1v1h-1z"/><path fill="#f2f3cf" fill-rule="evenodd" d="M32 25h1v1h-1zm-6 1h1v1h-1zm67 7h1v1h-1z"/><path fill="#f2f3cd" fill-rule="evenodd" d="M33 25h1v1h-1zm-10 8h1v1h-1zm71 0h1v1h-1z"/><path fill="#f2f2cb" fill-rule="evenodd" d="M34 25h1v1h-1zm61 8h1v1h-1zm-73 2h1v1h-1z"/><path fill="#f2f1c7" fill-rule="evenodd" d="M36 25h1v1h-1zm-11 2h1v1h-1z"/><path fill="#f3f1c5" fill-rule="evenodd" d="M37 25h1v1h-1zm-15 9h1v1h-1z"/><path fill="#f3f0c3" fill-rule="evenodd" d="M38 25h1v1h-1zm53 7h1v1h-1z"/><path fill="#f3f0c1" fill-rule="evenodd" d="M39 25h1v1h-1zm-14 1h1v1h-1z"/><path fill="#f3f0bf" fill-rule="evenodd" d="M40 25h1v1h-1zm-18 8h1v1h-1z"/><path fill="#f3eebb" fill-rule="evenodd" d="M42 25h1v1h-1z"/><path fill="#f5df7a" fill-rule="evenodd" d="M20 26h1v1h-1z"/><path fill="#f1f7dd" fill-rule="evenodd" d="M27 26h1v1h-1zm13 1h1v1h-1z"/><path fill="#f1f9e6" fill-rule="evenodd" d="M28 26h1v1h-1zm15 2h1v1h-1zm7 1h1v1h-1zm-24 1h1v1h-1zm-2 5h1v1h-1z"/><path fill="#f1f8e4" fill-rule="evenodd" d="M29 26h1v1h-1zm15 2h1v1h-1zm-21 9h1v1h-1z"/><path fill="#f1f8e2" fill-rule="evenodd" d="M30 26h1v1h-1zm15 2h1v1h-1zm-41 55h1v1h-1z"/><path fill="#f1f7e0" fill-rule="evenodd" d="M31 26h1v1h-1zm15 2h1v1h-1zm-20 1h1v1h-1zm66 5h1v1h-1z"/><path fill="#f1f7de" fill-rule="evenodd" d="M32 26h1v1h-1zm15 2h1v1h-1zm-22 3h1v1h-1zm68 3h1v1h-1zm-70 2h1v1h-1z"/><path fill="#f1f6dc" fill-rule="evenodd" d="M33 26h1v1h-1z"/><path fill="#f2f6da" fill-rule="evenodd" d="M34 26h1v1h-1zm-8 2h1v1h-1zm69 6h1v1h-1z"/><path fill="#f2f5d8" fill-rule="evenodd" d="M35 26h1v1h-1zm-10 4h1v1h-1zm63 3h1v1h-1zm8 1h1v1h-1z"/><path fill="#f2f5d6" fill-rule="evenodd" d="M36 26h1v1h-1zm-14 11h1v1h-1z"/><path fill="#f2f5d4" fill-rule="evenodd" d="M37 26h1v1h-1z"/><path fill="#f2f4d2" fill-rule="evenodd" d="M38 26h1v1h-1zm-13 3h1v1h-1z"/><path fill="#f2f4d0" fill-rule="evenodd" d="M39 26h1v1h-1zm-17 10h1v1h-1zm-20 49h1v1h-1z"/><path fill="#f2f3ce" fill-rule="evenodd" d="M40 26h1v1h-1z"/><path fill="#f2f3cc" fill-rule="evenodd" d="M41 26h1v1h-1zm-16 2h1v1h-1z"/><path fill="#f2f1c6" fill-rule="evenodd" d="M44 26h1v1h-1z"/><path fill="#f5e080" fill-rule="evenodd" d="M20 27h1v1h-1z"/><path fill="#f1f8e3" fill-rule="evenodd" d="M27 27h1v1h-1zm10 0h1v1h-1zm-12 5h1v1h-1zm65 2h1v1h-1z"/><path fill="#f1fbf1" fill-rule="evenodd" d="M28 27h1v1h-1zm2 0h1v1h-1zm15 2h1v1h-1zm-19 3h1v1h-1z"/><path fill="#f0fcf3" fill-rule="evenodd" d="M29 27h1v1h-1zm15 2h1v1h-1zm38 5h1v1h-1zm-60 8h1v1h-1zm-18 44h1v1h-1z"/><path fill="#f1fbef" fill-rule="evenodd" d="M31 27h1v1h-1zm15 2h1v1h-1zm-21 5h1v1h-1zm-2 5h1v1h-1zm-2 5h1v1h-1z"/><path fill="#f1faed" fill-rule="evenodd" d="M32 27h1v1h-1zm15 2h1v1h-1zm-25 12h1v1h-1zm-18 44h1v1h-1z"/><path fill="#f1faeb" fill-rule="evenodd" d="M33 27h1v1h-1zm15 2h1v1h-1zm38 5h1v1h-1zm8 1h1v1h-1z"/><path fill="#f1f9e9" fill-rule="evenodd" d="M34 27h1v1h-1zm-9 6h1v1h-1zm70 2h1v1h-1z"/><path fill="#f1f9e7" fill-rule="evenodd" d="M35 27h1v1h-1zm53 7h1v1h-1zm8 1h1v1h-1zm-74 5h1v1h-1zm-18 44h1v1h-1z"/><path fill="#f1f9e5" fill-rule="evenodd" d="M36 27h1v1h-1zm53 7h1v1h-1z"/><path fill="#f1f8e1" fill-rule="evenodd" d="M38 27h1v1h-1zm-14 7h1v1h-1zm67 0h1v1h-1zm-69 5h1v1h-1z"/><path fill="#f1f7df" fill-rule="evenodd" d="M39 27h1v1h-1zm-36 58h1v1h-1z"/><path fill="#f2f6db" fill-rule="evenodd" d="M41 27h1v1h-1zm-17 6h1v1h-1z"/><path fill="#f2f6d9" fill-rule="evenodd" d="M42 27h1v1h-1zm-19 8h1v1h-1zm-20 49h1v1h-1z"/><path fill="#f1f3d2" fill-rule="evenodd" d="M45 27h1v1h-1z"/><path fill="#f1f3d0" fill-rule="evenodd" d="M46 27h1v1h-1z"/><path fill="#f5e595" fill-rule="evenodd" d="M21 28h1v1h-1z"/><path fill="#f4e9a3" fill-rule="evenodd" d="M22 28h1v1h-1z"/><path fill="#f4ecb1" fill-rule="evenodd" d="M23 28h1v1h-1z"/><path fill="#f3efbf" fill-rule="evenodd" d="M24 28h1v1h-1z"/><path fill="#f1f9e8" fill-rule="evenodd" d="M27 28h1v1h-1zm15 0h1v1h-1z"/><path fill="#f0fdf6" fill-rule="evenodd" d="M28 28h1v1h-1zm7 0h1v1h-1zm15 2h1v1h-1zm38 5h1v1h-1zm-85 54h1v1h-1z"/><path fill="#ecfefc" fill-rule="evenodd" d="M29 28h1v1h-1zm-1 2h1v1h-1zm16 0h1v1h-1zm8 1h1v1h-1zm30 4h1v1h-1zm8 1h1v1h-1z"/><path fill="#edfefc" fill-rule="evenodd" d="M30 28h1v1h-1zm7 1h1v1h-1zm8 1h1v1h-1zm38 5h1v1h-1zm-58 2h1v1h-1zm-2 5h1v1h-1zm-16 39h1v1h-1zm-2 5h1v1h-1z"/><path fill="#effefc" fill-rule="evenodd" d="M31 28h1v1h-1zm8 1h1v1h-1zm7 1h1v1h-1zm46 6h1v1h-1zm-68 3h1v1h-1zm-2 5h1v1h-1zm-16 39h1v1h-1z"/><path fill="#f0fefc" fill-rule="evenodd" d="M32 28h1v1h-1zm-4 1h1v1h-1zm19 1h1v1h-1zm-21 4h1v1h-1zm59 1h1v1h-1z"/><path fill="#f0fdfa" fill-rule="evenodd" d="M33 28h1v1h-1z"/><path fill="#f0fdf8" fill-rule="evenodd" d="M34 28h1v1h-1zm15 2h1v1h-1zm38 5h1v1h-1zm8 1h1v1h-1zm-71 2h1v1h-1zm-2 5h1v1h-1zm-16 39h1v1h-1zm-2 5h1v1h-1z"/><path fill="#f0fcf4" fill-rule="evenodd" d="M36 28h1v1h-1zm-9 2h1v1h-1zm24 0h1v1h-1zm-26 5h1v1h-1zm64 0h1v1h-1zm8 1h1v1h-1z"/><path fill="#f0fcf2" fill-rule="evenodd" d="M37 28h1v1h-1zm53 7h1v1h-1zm-66 2h1v1h-1zm-18 44h1v1h-1z"/><path fill="#f1fbf0" fill-rule="evenodd" d="M38 28h1v1h-1zm53 7h1v1h-1zm-86 48h1v1h-1zm-2 5h1v1h-1z"/><path fill="#f1fbee" fill-rule="evenodd" d="M39 28h1v1h-1zm-12 1h1v1h-1zm65 6h1v1h-1z"/><path fill="#f1faec" fill-rule="evenodd" d="M40 28h1v1h-1zm-14 3h1v1h-1zm67 4h1v1h-1zm-69 1h1v1h-1z"/><path fill="#f1faea" fill-rule="evenodd" d="M41 28h1v1h-1zm-18 10h1v1h-1zm-18 44h1v1h-1zm-2 5h1v1h-1z"/><path fill="#f1f5db" fill-rule="evenodd" d="M48 28h1v1h-1z"/><path fill="#e6fefc" fill-rule="evenodd" d="M29 29h1v1h-1zm3 0h1v1h-1zm8 1h1v1h-1zm15 2h1v1h-1zm-28 2h1v1h-1zm51 1h1v1h-1zm15 2h1v1h-1zm-71 9h1v1h-1zm-18 44h1v1h-1z"/><path fill="#e3fdfc" fill-rule="evenodd" d="M30 29h1v1h-1zm8 1h1v1h-1zm15 2h1v1h-1zm23 3h1v1h-1zm-50 2h1v1h-1zm65 0h1v1h-1zm-67 5h1v1h-1zm-16 39h1v1h-1zm-2 5h1v1h-1z"/><path fill="#e4fdfc" fill-rule="evenodd" d="M31 29h1v1h-1zm15 2h1v1h-1zm-18 1h1v1h-1zm26 0h1v1h-1zm30 4h1v1h-1zm8 1h1v1h-1zm-71 12h1v1h-1z"/><path fill="#e7fefc" fill-rule="evenodd" d="M33 29h1v1h-1zm15 2h1v1h-1zm8 1h1v1h-1zm23 3h1v1h-1zm-53 1h1v1h-1zm60 0h1v1h-1zm8 1h1v1h-1zm-70 4h1v1h-1zm-16 39h1v1h-1zm-2 5h1v1h-1z"/><path fill="#e8fefc" fill-rule="evenodd" d="M34 29h1v1h-1zm7 1h1v1h-1zm-13 1h1v1h-1zm21 0h1v1h-1zm38 5h1v1h-1z"/><path fill="#eafefc" fill-rule="evenodd" d="M35 29h1v1h-1zm8 1h1v1h-1zm-16 3h1v1h-1zm54 2h1v1h-1zm15 2h1v1h-1zm-92 52h1v1h-1z"/><path fill="#ebfefc" fill-rule="evenodd" d="M36 29h1v1h-1zm15 2h1v1h-1zm-25 4h1v1h-1zm63 1h1v1h-1zm8 1h1v1h-1zm-73 3h1v1h-1zm-2 5h1v1h-1zm-14 34h1v1h-1zm-2 5h1v1h-1z"/><path fill="#eefefc" fill-rule="evenodd" d="M38 29h1v1h-1zm15 2h1v1h-1zm-26 1h1v1h-1zm57 3h1v1h-1zm7 1h1v1h-1zm-87 52h1v1h-1z"/><path fill="#f0fefb" fill-rule="evenodd" d="M40 29h1v1h-1zm53 7h1v1h-1zm-70 5h1v1h-1zm-18 44h1v1h-1z"/><path fill="#f0fdf9" fill-rule="evenodd" d="M41 29h1v1h-1zm-14 2h1v1h-1zm67 5h1v1h-1z"/><path fill="#f0fdf7" fill-rule="evenodd" d="M42 29h1v1h-1zm-16 4h1v1h-1z"/><path fill="#f0fcf5" fill-rule="evenodd" d="M43 29h1v1h-1zm-20 11h1v1h-1zm-18 44h1v1h-1z"/><path fill="#f0f9e8" fill-rule="evenodd" d="M49 29h1v1h-1z"/><path fill="#e2fdfc" fill-rule="evenodd" d="M29 30h1v1h-1zm8 0h1v1h-1zm8 1h1v1h-1zm7 1h1v1h-1zm8 1h1v1h-1zm8 1h1v1h-1zm-41 1h1v1h-1zm48 0h1v1h-1zm8 1h1v1h-1zm7 1h1v1h-1zm-68 10h1v1h-1z"/><path fill="#d8fdfc" fill-rule="evenodd" d="M30 30h1v1h-1zm15 2h1v1h-1zm8 1h1v1h-1zm7 1h1v1h-1zm-32 1h1v1h-1zm40 0h1v1h-1zm15 2h1v1h-1zm8 1h1v1h-1zm-68 9h1v1h-1zm-2 5h1v1h-1zm-7 17h1v1h-1zm-2 5h1v1h-1z"/><path fill="#dafdfc" fill-rule="evenodd" d="M31 30h1v1h-1zm8 1h1v1h-1zm-10 1h1v1h-1zm25 1h1v1h-1zm8 1h1v1h-1zm15 2h1v1h-1zm15 2h1v1h-1zm-70 11h1v1h-1zm-11 27h1v1h-1z"/><path fill="#dbfdfc" fill-rule="evenodd" d="M32 30h1v1h-1zm8 1h1v1h-1zm7 1h1v1h-1zm8 1h1v1h-1zm15 2h1v1h-1zm8 1h1v1h-1zm7 1h1v1h-1zm8 1h1v1h-1zm-67 1h1v1h-1zm-2 5h1v1h-1zm-16 39h1v1h-1zm-2 5h1v1h-1z"/><path fill="#dcfdfc" fill-rule="evenodd" d="M33 30h1v1h-1zm15 2h1v1h-1zm-20 2h1v1h-1zm35 0h1v1h-1zm8 1h1v1h-1zm15 2h1v1h-1zm-65 14h1v1h-1zm-11 27h1v1h-1zm-5 12h1v1h-1z"/><path fill="#defdfc" fill-rule="evenodd" d="M34 30h1v1h-1zm-5 1h1v1h-1zm13 0h1v1h-1zm15 2h1v1h-1zm15 2h1v1h-1zm8 1h1v1h-1zm15 2h1v1h-1zm-73 10h1v1h-1zm-11 27h1v1h-1z"/><path fill="#dffdfc" fill-rule="evenodd" d="M35 30h1v1h-1zm15 2h1v1h-1zm8 1h1v1h-1zm7 1h1v1h-1zm8 1h1v1h-1zm15 2h1v1h-1zm-62 1h1v1h-1zm70 0h1v1h-1zm-72 5h1v1h-1zm-16 39h1v1h-1zm-2 5h1v1h-1z"/><path fill="#e1fdfc" fill-rule="evenodd" d="M36 30h1v1h-1zm8 1h1v1h-1zm15 2h1v1h-1zm23 3h1v1h-1zm15 2h1v1h-1zm-72 2h1v1h-1zm-2 5h1v1h-1zm-14 34h1v1h-1zm-2 5h1v1h-1z"/><path fill="#e5fdfc" fill-rule="evenodd" d="M39 30h1v1h-1zm8 1h1v1h-1zm15 2h1v1h-1zm15 2h1v1h-1zm8 1h1v1h-1zm-60 3h1v1h-1zm-2 5h1v1h-1zm-16 39h1v1h-1zm-2 5h1v1h-1z"/><path fill="#e9fefc" fill-rule="evenodd" d="M42 30h1v1h-1zm8 1h1v1h-1zm30 4h1v1h-1zm8 1h1v1h-1zm7 1h1v1h-1zm-70 1h1v1h-1zm-2 5h1v1h-1zm-16 39h1v1h-1zm-2 5h1v1h-1z"/><path fill="#f0fefa" fill-rule="evenodd" d="M48 30h1v1h-1zm38 5h1v1h-1zm-61 1h1v1h-1zm-18 44h1v1h-1z"/><path fill="#f0fbf1" fill-rule="evenodd" d="M52 30h1v1h-1z"/><path fill="#f3e9a5" fill-rule="evenodd" d="M21 31h1v1h-1z"/><path fill="#f2f3d0" fill-rule="evenodd" d="M24 31h1v1h-1z"/><path fill="#d4fdfc" fill-rule="evenodd" d="M30 31h1v1h-1zm5 0h1v1h-1zm7 1h1v1h-1zm8 1h1v1h-1zm15 2h1v1h-1zm-37 1h1v1h-1zm45 0h1v1h-1zm7 1h1v1h-1zm8 1h1v1h-1zm-65 10h1v1h-1zm-2 5h1v1h-1zm-7 17h1v1h-1zm-2 5h1v1h-1z"/><path fill="#cffcfc" fill-rule="evenodd" d="M31 31h1v1h-1zm8 1h1v1h-1zm7 1h1v1h-1zm8 1h1v1h-1zm15 2h1v1h-1zm-41 1h1v1h-1zm49 0h1v1h-1zm7 1h1v1h-1zm8 1h1v1h-1zm-66 3h1v1h-1zm-2 5h1v1h-1zm-5 12h1v1h-1zm-2 5h1v1h-1zm-2 5h1v1h-1zm-5 12h1v1h-1zm-2 5h1v1h-1z"/><path fill="#d0fdfc" fill-rule="evenodd" d="M32 31h1v1h-1zm38 5h1v1h-1zm23 3h1v1h-1zm-70 10h1v1h-1zm-9 22h1v1h-1z"/><path fill="#d2fdfc" fill-rule="evenodd" d="M33 31h1v1h-1zm8 1h1v1h-1zm-12 2h1v1h-1zm27 0h1v1h-1zm8 1h1v1h-1zm7 1h1v1h-1zm8 1h1v1h-1zm15 2h1v1h-1zm-72 12h1v1h-1zm-2 5h1v1h-1zm-7 17h1v1h-1zm-2 5h1v1h-1z"/><path fill="#d3fdfc" fill-rule="evenodd" d="M34 31h1v1h-1zm15 2h1v1h-1zm8 1h1v1h-1zm15 2h1v1h-1zm15 2h1v1h-1zm8 1h1v1h-1zm-69 2h1v1h-1zm-2 5h1v1h-1zm-14 34h1v1h-1zm-2 5h1v1h-1zm-2 5h1v1h-1z"/><path fill="#d6fdfc" fill-rule="evenodd" d="M36 31h1v1h-1zm8 1h1v1h-1zm-15 1h1v1h-1zm22 0h1v1h-1zm8 1h1v1h-1zm15 2h1v1h-1zm8 1h1v1h-1zm7 1h1v1h-1zm-67 12h1v1h-1zm-2 5h1v1h-1zm-7 17h1v1h-1zm-2 5h1v1h-1z"/><path fill="#d7fdfc" fill-rule="evenodd" d="M37 31h1v1h-1zm15 2h1v1h-1zm15 2h1v1h-1zm8 1h1v1h-1zm15 2h1v1h-1zm-64 2h1v1h-1zm-2 5h1v1h-1zm-14 34h1v1h-1zm-2 5h1v1h-1zm-2 5h1v1h-1z"/><path fill="#d9fdfc" fill-rule="evenodd" d="M38 31h1v1h-1zm8 1h1v1h-1zm15 2h1v1h-1zm8 1h1v1h-1zm7 1h1v1h-1zm-49 1h1v1h-1zm57 0h1v1h-1zm-59 5h1v1h-1zm-16 39h1v1h-1zm-2 5h1v1h-1z"/><path fill="#ddfdfc" fill-rule="evenodd" d="M41 31h1v1h-1zm8 1h1v1h-1zm7 1h1v1h-1zm8 1h1v1h-1zm-37 2h1v1h-1zm52 0h1v1h-1zm8 1h1v1h-1zm7 1h1v1h-1zm-69 3h1v1h-1zm-2 5h1v1h-1zm-14 34h1v1h-1zm-2 5h1v1h-1z"/><path fill="#e0fdfc" fill-rule="evenodd" d="M43 31h1v1h-1zm8 1h1v1h-1zm-23 1h1v1h-1zm46 2h1v1h-1zm7 1h1v1h-1zm8 1h1v1h-1zm-68 13h1v1h-1zm-11 27h1v1h-1zm-5 12h1v1h-1z"/><path fill="#eefdfb" fill-rule="evenodd" d="M54 31h1v1h-1z"/><path fill="#f0fdfb" fill-rule="evenodd" d="M55 31h1v1h-1zm-52 59h1v1h-1z"/><path fill="#f3ebac" fill-rule="evenodd" d="M21 32h1v1h-1z"/><path fill="#f2f2c7" fill-rule="evenodd" d="M23 32h1v1h-1z"/><path fill="#d0fcfc" fill-rule="evenodd" d="M30 32h1v1h-1zm17 1h1v1h-1zm15 2h1v1h-1zm23 3h1v1h-1zm-64 16h1v1h-1zm-9 22h1v1h-1z"/><path fill="#c6fcfc" fill-rule="evenodd" d="M31 32h2v1h-2zm9 1h1v1h-1zm15 2h1v1h-1zm8 1h1v1h-1zm-34 1h1v1h-1zm41 0h1v1h-1zm8 1h1v1h-1zm15 2h1v1h-1zm-69 9h1v1h-1zm-2 5h1v1h-1zm-7 17h1v1h-1zm-2 5h1v1h-1z"/><path fill="#c7fcfc" fill-rule="evenodd" d="M33 32h1v1h-1zm15 2h1v1h-1zm8 1h1v1h-1zm15 2h1v1h-1zm-43 2h1v1h-1zm58 0h1v1h-1zm8 1h1v1h-1zm-68 4h1v1h-1zm-7 17h1v1h-1zm-2 5h1v1h-1zm-7 17h1v1h-1zm-2 5h1v1h-1z"/><path fill="#c8fcfc" fill-rule="evenodd" d="M34 32h1v1h-1zm7 1h1v1h-1zm-11 1h1v1h-1zm19 0h1v1h-1zm15 2h1v1h-1zm8 1h1v1h-1zm7 1h1v1h-1zm8 1h1v1h-1zm-64 12h1v1h-1zm-2 5h1v1h-1zm-7 17h1v1h-1zm-2 5h1v1h-1z"/><path fill="#cafcfc" fill-rule="evenodd" d="M35 32h1v1h-1zm8 1h1v1h-1zm7 1h1v1h-1zm8 1h1v1h-1zm-29 1h1v1h-1zm44 1h1v1h-1zm8 1h1v1h-1zm-57 10h1v1h-1zm-2 5h1v1h-1zm-2 5h1v1h-1zm-5 12h1v1h-1zm-2 5h1v1h-1zm-2 5h1v1h-1z"/><path fill="#cbfcfc" fill-rule="evenodd" d="M36 32h1v1h-1zm15 2h1v1h-1zm8 1h1v1h-1zm7 1h1v1h-1zm8 1h1v1h-1zm-46 1h1v1h-1zm61 1h1v1h-1zm-63 4h1v1h-1zm-7 17h1v1h-1zm-2 5h1v1h-1zm-7 17h1v1h-1zm-2 5h1v1h-1z"/><path fill="#cdfcfc" fill-rule="evenodd" d="M37 32h1v1h-1zm8 1h1v1h-1zm15 2h1v1h-1zm8 1h1v1h-1zm7 1h1v1h-1zm8 1h1v1h-1zm-56 2h1v1h-1zm-2 5h1v1h-1zm-7 17h1v1h-1zm-2 5h1v1h-1zm-7 17h1v1h-1zm-2 5h1v1h-1z"/><path fill="#cefcfc" fill-rule="evenodd" d="M38 32h1v1h-1zm15 2h1v1h-1zm-24 1h1v1h-1zm32 0h1v1h-1zm15 2h1v1h-1zm15 2h1v1h-1zm-69 13h1v1h-1zm-2 5h1v1h-1zm-7 17h1v1h-1zm-2 5h1v1h-1z"/><path fill="#d1fdfc" fill-rule="evenodd" d="M40 32h1v1h-1zm8 1h1v1h-1zm7 1h1v1h-1zm8 1h1v1h-1zm15 2h1v1h-1zm8 1h1v1h-1zm-59 1h1v1h-1zm-2 5h1v1h-1zm-16 39h1v1h-1zm-2 5h1v1h-1z"/><path fill="#d5fdfc" fill-rule="evenodd" d="M43 32h1v1h-1zm15 2h1v1h-1zm8 1h1v1h-1zm15 2h1v1h-1zm-54 1h1v1h-1zm69 1h1v1h-1zm-71 4h1v1h-1zm-7 17h1v1h-1zm-2 5h1v1h-1zm-7 17h1v1h-1zm-2 5h1v1h-1z"/><path fill="#e8fdfb" fill-rule="evenodd" d="M57 32h1v1h-1zm-36 16h1v1h-1z"/><path fill="#eafdfc" fill-rule="evenodd" d="M58 32h1v1h-1z"/><path fill="#f2efc1" fill-rule="evenodd" d="M92 32h1v1h-1z"/><path fill="#f3eebd" fill-rule="evenodd" d="M94 32h1v1h-1z"/><path fill="#f2ecb1" fill-rule="evenodd" d="M21 33h1v1h-1z"/><path fill="#ccfcfc" fill-rule="evenodd" d="M30 33h1v1h-1zm14 0h1v1h-1zm8 1h1v1h-1zm15 2h1v1h-1zm15 2h1v1h-1zm8 1h1v1h-1zm-67 11h1v1h-1zm-2 5h1v1h-1zm-7 17h1v1h-1zm-2 5h1v1h-1z"/><path fill="#c2fcfc" fill-rule="evenodd" d="M31 33h1v1h-1zm6 0h1v1h-1zm15 2h1v1h-1zm8 1h1v1h-1zm15 2h1v1h-1zm15 2h1v1h-1zm-66 10h1v1h-1zm-2 5h1v1h-1zm-7 17h1v1h-1zm-2 5h1v1h-1z"/><path fill="#bbfcfd" fill-rule="evenodd" d="M32 33h1v1h-1zm15 2h1v1h-1zm8 1h1v1h-1zm15 2h1v1h-1zm23 3h1v1h-1zm-65 1h1v1h-1zm-2 5h1v1h-1zm-7 17h1v1h-1zm-9 22h1v1h-1z"/><path fill="#bcfcfd" fill-rule="evenodd" d="M33 33h1v1h-1zm7 1h1v1h-1zm8 1h1v1h-1zm-18 2h1v1h-1zm33 0h1v1h-1zm8 1h1v1h-1zm7 1h1v1h-1zm8 1h1v1h-1zm-61 9h1v1h-1zm-2 5h1v1h-1zm-2 5h1v1h-1zm-5 12h1v1h-1zm-2 5h1v1h-1zm-2 5h1v1h-1z"/><path fill="#befcfd" fill-rule="evenodd" d="M34 33h1v1h-1zm-3 1h1v1h-1zm11 0h1v1h-1zm7 1h1v1h-1zm8 1h1v1h-1zm15 2h1v1h-1zm8 1h1v1h-1zm-56 12h1v1h-1zm-2 5h1v1h-1zm-7 17h1v1h-1zm-2 5h1v1h-1z"/><path fill="#bffcfd" fill-rule="evenodd" d="M35 33h1v1h-1zm15 2h1v1h-1zm8 1h1v1h-1zm7 1h1v1h-1zm8 1h1v1h-1zm15 2h1v1h-1zm-60 1h1v1h-1zm-2 5h1v1h-1zm-7 17h1v1h-1zm-2 5h1v1h-1zm-7 17h1v1h-1zm-2 5h1v1h-1z"/><path fill="#c1fcfc" fill-rule="evenodd" d="M36 33h1v1h-1zm8 1h1v1h-1zm15 2h1v1h-1zm8 1h1v1h-1zm-38 1h1v1h-1zm45 0h1v1h-1zm8 1h1v1h-1zm-55 4h1v1h-1zm-2 5h1v1h-1zm-5 12h1v1h-1zm-2 5h1v1h-1zm-2 5h1v1h-1zm-5 12h1v1h-1zm-2 5h1v1h-1z"/><path fill="#c3fcfc" fill-rule="evenodd" d="M38 33h1v1h-1zm7 1h1v1h-1zm8 1h1v1h-1zm15 2h1v1h-1zm8 1h1v1h-1zm7 1h1v1h-1zm-55 1h1v1h-1zm63 0h1v1h-1zm-65 5h1v1h-1zm-7 17h1v1h-1zm-2 5h1v1h-1zm-7 17h1v1h-1zm-2 5h1v1h-1z"/><path fill="#c5fcfc" fill-rule="evenodd" d="M39 33h1v1h-1zm8 1h1v1h-1zm7 1h1v1h-1zm8 1h1v1h-1zm15 2h1v1h-1zm8 1h1v1h-1zm-58 3h1v1h-1zm-2 5h1v1h-1zm-5 12h1v1h-1zm-2 5h1v1h-1zm-2 5h1v1h-1zm-5 12h1v1h-1zm-2 5h1v1h-1zm-2 5h1v1h-1z"/><path fill="#c9fcfc" fill-rule="evenodd" d="M42 33h1v1h-1zm15 2h1v1h-1zm8 1h1v1h-1zm15 2h1v1h-1zm8 1h1v1h-1zm7 1h1v1h-1zm-68 1h1v1h-1zm-2 5h1v1h-1zm-7 17h1v1h-1zm-2 5h1v1h-1zm-7 17h1v1h-1zm-2 5h1v1h-1z"/><path fill="#e4fcfb" fill-rule="evenodd" d="M61 33h1v1h-1z"/><path fill="#e5fdfb" fill-rule="evenodd" d="M63 33h1v1h-1zm7 1h1v1h-1z"/><path fill="#f1f5d9" fill-rule="evenodd" d="M87 33h1v1h-1z"/><path fill="#f1f4d5" fill-rule="evenodd" d="M89 33h1v1h-1z"/><path fill="#f1f1c8" fill-rule="evenodd" d="M96 33h1v1h-1zm-75 4h1v1h-1z"/><path fill="#f2eeb6" fill-rule="evenodd" d="M21 34h1v1h-1z"/><path fill="#b4fbfd" fill-rule="evenodd" d="M32 34h1v1h-1zm10 1h1v1h-1zm8 1h1v1h-1zm15 2h1v1h-1zm15 2h1v1h-1zm8 1h1v1h-1zm-63 10h1v1h-1zm-2 5h1v1h-1zm-7 17h1v1h-1zm-2 5h1v1h-1z"/><path fill="#b2fbfd" fill-rule="evenodd" d="M33 34h1v1h-1zm8 1h1v1h-1zm-10 2h1v1h-1zm25 0h1v1h-1zm15 2h1v1h-1zm8 1h1v1h-1zm15 2h1v1h-1zm-70 12h1v1h-1zm-2 5h1v1h-1zm-7 17h1v1h-1zm-2 5h1v1h-1z"/><path fill="#b3fbfd" fill-rule="evenodd" d="M34 34h1v1h-1zm15 2h1v1h-1zm8 1h1v1h-1zm7 1h1v1h-1zm-34 1h1v1h-1zm42 0h1v1h-1zm15 2h1v1h-1zm-59 3h1v1h-1zm-2 5h1v1h-1zm-5 12h1v1h-1zm-2 5h1v1h-1zm-2 5h1v1h-1zm-5 12h1v1h-1zm-2 5h1v1h-1z"/><path fill="#b5fbfd" fill-rule="evenodd" d="M35 34h1v1h-1zm8 1h1v1h-1zm15 2h1v1h-1zm8 1h1v1h-1zm7 1h1v1h-1zm8 1h1v1h-1zm-52 1h1v1h-1zm-2 5h1v1h-1zm-7 17h1v1h-1zm-2 5h1v1h-1zm-7 17h1v1h-1zm-2 5h1v1h-1z"/><path fill="#b6fbfd" fill-rule="evenodd" d="M36 34h1v1h-1zm-5 2h1v1h-1zm20 0h1v1h-1zm8 1h1v1h-1zm15 2h1v1h-1zm8 1h1v1h-1zm7 1h1v1h-1zm-65 12h1v1h-1zm-2 5h1v1h-1zm-7 17h1v1h-1zm-2 5h1v1h-1z"/><path fill="#b7fbfd" fill-rule="evenodd" d="M37 34h1v1h-1zm7 1h1v1h-1zm8 1h1v1h-1zm15 2h1v1h-1zm8 1h1v1h-1zm15 2h1v1h-1zm-62 2h1v1h-1zm-2 5h1v1h-1zm-5 12h1v1h-1zm-2 5h1v1h-1zm-2 5h1v1h-1zm-5 12h1v1h-1zm-2 5h1v1h-1z"/><path fill="#b9fbfd" fill-rule="evenodd" d="M38 34h1v1h-1zm8 1h1v1h-1zm15 2h1v1h-1zm15 2h1v1h-1zm-47 1h1v1h-1zm55 0h1v1h-1zm-57 5h1v1h-1zm-7 17h1v1h-1zm-2 5h1v1h-1zm-7 17h1v1h-1zm-2 5h1v1h-1z"/><path fill="#bafbfd" fill-rule="evenodd" d="M39 34h1v1h-1zm-8 1h1v1h-1zm23 1h1v1h-1zm8 1h1v1h-1zm7 1h1v1h-1zm8 1h1v1h-1zm15 2h1v1h-1zm-68 11h1v1h-1zm-2 5h1v1h-1zm-7 17h1v1h-1zm-2 5h1v1h-1z"/><path fill="#bdfcfd" fill-rule="evenodd" d="M41 34h1v1h-1zm15 2h1v1h-1zm8 1h1v1h-1zm-35 2h1v1h-1zm50 0h1v1h-1zm8 1h1v1h-1zm7 1h1v1h-1zm-67 3h1v1h-1zm-7 17h1v1h-1zm-2 5h1v1h-1zm-7 17h1v1h-1zm-2 5h1v1h-1z"/><path fill="#c0fcfd" fill-rule="evenodd" d="M43 34h1v1h-1zm-13 2h1v1h-1zm36 1h1v1h-1zm15 2h1v1h-1zm-60 19h1v1h-1zm-9 22h1v1h-1z"/><path fill="#c4fcfc" fill-rule="evenodd" d="M46 34h1v1h-1zm-16 1h1v1h-1zm31 1h1v1h-1zm8 1h1v1h-1zm15 2h1v1h-1zm8 1h1v1h-1zm-69 12h1v1h-1zm-2 5h1v1h-1zm-7 17h1v1h-1zm-2 5h1v1h-1z"/><path fill="#e0fcfb" fill-rule="evenodd" d="M66 34h1v1h-1z"/><path fill="#e0fcfc" fill-rule="evenodd" d="M67 34h1v1h-1z"/><path fill="#e3fdfb" fill-rule="evenodd" d="M69 34h1v1h-1z"/><path fill="#f0fbf4" fill-rule="evenodd" d="M81 34h1v1h-1z"/><path fill="#f0fbf0" fill-rule="evenodd" d="M83 34h1v1h-1z"/><path fill="#f0faee" fill-rule="evenodd" d="M84 34h1v1h-1z"/><path fill="#f1fbed" fill-rule="evenodd" d="M85 34h1v1h-1z"/><path fill="#f1fae9" fill-rule="evenodd" d="M87 34h1v1h-1z"/><path fill="#f2f6dc" fill-rule="evenodd" d="M94 34h1v1h-1zm-72 4h1v1h-1z"/><path fill="#f2f4d5" fill-rule="evenodd" d="M97 34h1v1h-1z"/><path fill="#f2efbd" fill-rule="evenodd" d="M21 35h1v1h-1z"/><path fill="#b0fbfd" fill-rule="evenodd" d="M32 35h1v1h-1zm7 0h1v1h-1zm8 1h1v1h-1zm15 2h1v1h-1zm8 1h1v1h-1zm15 2h1v1h-1zm-60 11h1v1h-1zm-2 5h1v1h-1zm-7 17h1v1h-1zm-2 5h1v1h-1z"/><path fill="#a7fbfd" fill-rule="evenodd" d="M33 35h1v1h-1zm15 2h1v1h-1zm8 1h1v1h-1zm7 1h1v1h-1zm8 1h1v1h-1zm-41 2h1v1h-1zm56 0h1v1h-1zm-58 5h1v1h-1zm-7 17h1v1h-1zm-2 5h1v1h-1zm-7 17h1v1h-1z"/><path fill="#a9fbfd" fill-rule="evenodd" d="M34 35h1v1h-1zm8 1h1v1h-1zm15 2h1v1h-1zm8 1h1v1h-1zm15 2h1v1h-1zm-51 3h1v1h-1zm-2 5h1v1h-1zm-7 17h1v1h-1zm-2 5h1v1h-1zm-5 12h1v1h-1zm-2 5h1v1h-1z"/><path fill="#aafbfd" fill-rule="evenodd" d="M35 35h1v1h-1zm8 1h1v1h-1zm7 1h1v1h-1zm8 1h1v1h-1zm-27 1h1v1h-1zm42 1h1v1h-1zm8 1h1v1h-1zm7 1h1v1h-1zm-62 9h1v1h-1zm-2 5h1v1h-1zm-2 5h1v1h-1zm-5 12h1v1h-1zm-2 5h1v1h-1z"/><path fill="#abfbfd" fill-rule="evenodd" d="M36 35h1v1h-1zm15 2h1v1h-1zm15 2h1v1h-1zm8 1h1v1h-1zm-44 1h1v1h-1zm59 1h1v1h-1zm-61 4h1v1h-1zm-7 17h1v1h-1zm-2 5h1v1h-1zm-7 17h1v1h-1z"/><path fill="#adfbfd" fill-rule="evenodd" d="M37 35h1v1h-1zm8 1h1v1h-1zm15 2h1v1h-1zm15 2h1v1h-1zm8 1h1v1h-1zm-54 2h1v1h-1zm-2 5h1v1h-1zm-7 17h1v1h-1zm-2 5h1v1h-1zm-7 17h1v1h-1z"/><path fill="#aefbfd" fill-rule="evenodd" d="M38 35h1v1h-1zm15 2h1v1h-1zm-22 1h1v1h-1zm30 0h1v1h-1zm7 1h1v1h-1zm8 1h1v1h-1zm15 2h1v1h-1zm-65 8h1v1h-1zm-2 5h1v1h-1zm-2 5h1v1h-1zm-5 12h1v1h-1zm-2 5h1v1h-1zm-2 5h1v1h-1z"/><path fill="#b1fbfd" fill-rule="evenodd" d="M40 35h1v1h-1zm8 1h1v1h-1zm7 1h1v1h-1zm8 1h1v1h-1zm15 2h1v1h-1zm8 1h1v1h-1zm-57 1h1v1h-1zm64 0h1v1h-1zm-66 5h1v1h-1zm-7 17h1v1h-1zm-2 5h1v1h-1zm-7 17h1v1h-1z"/><path fill="#b8fbfd" fill-rule="evenodd" d="M45 35h1v1h-1zm8 1h1v1h-1zm7 1h1v1h-1zm-30 1h1v1h-1zm38 0h1v1h-1zm15 2h1v1h-1zm8 1h1v1h-1zm-66 9h1v1h-1zm-2 5h1v1h-1zm-7 17h1v1h-1zm-2 5h1v1h-1z"/><path fill="#c0fcfc" fill-rule="evenodd" d="M51 35h1v1h-1zm38 5h1v1h-1zm-66 13h1v1h-1zm-9 22h1v1h-1z"/><path fill="#f0f7e4" fill-rule="evenodd" d="M97 35h1v1h-1z"/><path fill="#acfbfd" fill-rule="evenodd" d="M32 36h1v1h-1zm12 0h1v1h-1zm8 1h1v1h-1zm7 1h1v1h-1zm8 1h1v1h-1zm15 2h1v1h-1zm8 1h1v1h-1zm-65 11h1v1h-1zm-2 5h1v1h-1zm-7 17h1v1h-1zm-2 5h1v1h-1z"/><path fill="#a2fafd" fill-rule="evenodd" d="M33 36h1v1h-1zm4 0h1v1h-1zm15 2h1v1h-1zm8 1h1v1h-1zm15 2h1v1h-1zm15 2h1v1h-1zm-64 10h1v1h-1zm-2 5h1v1h-1zm-7 17h1v1h-1zm-2 5h1v1h-1z"/><path fill="#9efafd" fill-rule="evenodd" d="M34 36h1v1h-1zm0 1v1h-1v-1zm8 0h1v1h-1zm7 1h1v1h-1zm8 1h1v1h-1zm15 2h1v1h-1zm8 1h1v1h-1zm7 1h1v1h-1zm-61 11h1v1h-1zm-2 5h1v1h-1zm-7 17h1v1h-1zm-2 5h1v1h-1z"/><path fill="#9ffafd" fill-rule="evenodd" d="M35 36h1v1h-1zm15 2h1v1h-1zm15 2h1v1h-1zm8 1h1v1h-1zm15 2h1v1h-1zm-58 1h1v1h-1zm-2 5h1v1h-1zm-7 17h1v1h-1zm-2 5h1v1h-1zm-7 17h1v1h-1z"/><path fill="#a1fafd" fill-rule="evenodd" d="M36 36h1v1h-1zm8 1h1v1h-1zm15 2h1v1h-1zm8 1h1v1h-1zm-36 1h1v1h-1zm43 0h1v1h-1zm8 1h1v1h-1zm-53 4h1v1h-1zm-7 17h1v1h-1zm-2 5h1v1h-1zm-7 17h1v1h-1z"/><path fill="#a3fafd" fill-rule="evenodd" d="M38 36h1v1h-1zm7 1h1v1h-1zm8 1h1v1h-1zm15 2h1v1h-1zm8 1h1v1h-1zm7 1h1v1h-1zm-53 1h1v1h-1zm61 0h1v1h-1zm-63 5h1v1h-1zm-7 17h1v1h-1zm-2 5h1v1h-1zm-7 17h1v1h-1z"/><path fill="#a5fafd" fill-rule="evenodd" d="M39 36h1v1h-1zm15 2h1v1h-1zm8 1h1v1h-1zm15 2h1v1h-1zm-48 4h1v1h-1zm-2 5h1v1h-1zm-7 17h1v1h-1zm-2 5h1v1h-1zm-7 17h1v1h-1z"/><path fill="#a6fbfd" fill-rule="evenodd" d="M40 36h1v1h-1zm15 2h1v1h-1zm15 2h1v1h-1zm8 1h1v1h-1zm-52 11h1v1h-1zm-2 5h1v1h-1zm-7 17h1v1h-1zm-2 5h1v1h-1z"/><path fill="#a8fbfd" fill-rule="evenodd" d="M41 36h1v1h-1zm-9 1h1v1h-1zm17 0h1v1h-1zm15 2h1v1h-1zm8 1h1v1h-1zm7 1h1v1h-1zm8 1h1v1h-1zm-62 12h1v1h-1zm-2 5h1v1h-1zm-7 17h1v1h-1zm-2 5h1v1h-1z"/><path fill="#affbfd" fill-rule="evenodd" d="M46 36h1v1h-1zm8 1h1v1h-1zm15 2h1v1h-1zm-39 1h1v1h-1zm47 0h1v1h-1zm7 1h1v1h-1zm8 1h1v1h-1zm-64 3h1v1h-1zm-7 17h1v1h-1zm-2 5h1v1h-1zm-7 17h1v1h-1zm-2 5h1v1h-1z"/><path fill="#f0fcf6" fill-rule="evenodd" d="M96 36h1v1h-1z"/><path fill="#94fafd" fill-rule="evenodd" d="M34 37h1v1h-1zm8 1h1v1h-1zm8 1h1v1h-1zm7 1h1v1h-1zm8 1h1v1h-1zm15 2h1v1h-1zm8 1h1v1h-1zm-61 10h1v1h-1zm-2 5h1v1h-1zm-7 17h1v1h-1zm-2 5h1v1h-1z"/><path fill="#95fafd" fill-rule="evenodd" d="M35 37h1v1h-1zm8 1h1v1h-1zm15 2h1v1h-1zm8 1h1v1h-1zm7 1h1v1h-1zm8 1h1v1h-1zm-50 1h1v1h-1zm-2 5h1v1h-1zm-7 17h1v1h-1zm-2 5h1v1h-1zm-7 17h1v1h-1z"/><path fill="#96fafd" fill-rule="evenodd" d="M36 37h1v1h-1zm-3 2h1v1h-1zm18 0h1v1h-1zm8 1h1v1h-1zm15 2h1v1h-1zm15 2h1v1h-1zm-63 12h1v1h-1zm-2 5h1v1h-1zm-7 17h1v1h-1zm-2 5h1v1h-1z"/><path fill="#97fafd" fill-rule="evenodd" d="M37 37h1v1h-1zm7 1h1v1h-1zm8 1h1v1h-1zm-20 2h1v1h-1zm35 0h1v1h-1zm8 1h1v1h-1zm7 1h1v1h-1zm8 1h1v1h-1zm-60 2h1v1h-1zm-2 5h1v1h-1zm-5 12h1v1h-1zm-2 5h1v1h-1zm-2 5h1v1h-1zm-5 12h1v1h-1z"/><path fill="#99fafd" fill-rule="evenodd" d="M38 37h1v1h-1zm8 1h1v1h-1zm7 1h1v1h-1zm8 1h1v1h-1zm15 2h1v1h-1zm-45 1h1v1h-1zm53 0h1v1h-1zm-55 5h1v1h-1zm-7 17h1v1h-1zm-2 5h1v1h-1zm-7 17h1v1h-1z"/><path fill="#9afafd" fill-rule="evenodd" d="M39 37h1v1h-1zm-6 1h1v1h-1zm21 1h1v1h-1zm8 1h1v1h-1zm7 1h1v1h-1zm8 1h1v1h-1zm-51 13h1v1h-1zm-2 5h1v1h-1zm-7 17h1v1h-1zm-2 5h1v1h-1z"/><path fill="#9cfafd" fill-rule="evenodd" d="M40 37h1v1h-1zm8 1h1v1h-1zm-16 2h1v1h-1zm31 0h1v1h-1zm8 1h1v1h-1zm7 1h1v1h-1zm8 1h1v1h-1zm-59 9h1v1h-1zm-2 5h1v1h-1zm-7 17h1v1h-1zm-2 5h1v1h-1z"/><path fill="#9dfafd" fill-rule="evenodd" d="M41 37h1v1h-1zm15 2h1v1h-1zm8 1h1v1h-1zm-33 2h1v1h-1zm48 0h1v1h-1zm-50 5h1v1h-1zm-7 17h1v1h-1zm-2 5h1v1h-1zm-7 17h1v1h-1z"/><path fill="#a0fafd" fill-rule="evenodd" d="M43 37h1v1h-1zm8 1h1v1h-1zm-19 1h1v1h-1zm26 0h1v1h-1zm8 1h1v1h-1zm15 2h1v1h-1zm8 1h1v1h-1zm-62 8h1v1h-1zm-2 5h1v1h-1zm-2 5h1v1h-1zm-5 12h1v1h-1zm-2 5h1v1h-1zm-2 5h1v1h-1z"/><path fill="#a4fafd" fill-rule="evenodd" d="M46 37h1v1h-1zm-14 1h1v1h-1zm29 1h1v1h-1zm8 1h1v1h-1zm15 2h1v1h-1zm-59 13h1v1h-1zm-2 5h1v1h-1zm-7 17h1v1h-1zm-2 5h1v1h-1z"/><path fill="#a5fbfd" fill-rule="evenodd" d="M47 37h1v1h-1zm-16 3h1v1h-1zm54 2h1v1h-1zm-63 20h1v1h-1zm-9 22h1v1h-1z"/><path fill="#ecfdfb" fill-rule="evenodd" d="M98 37h1v1h-1zm-77 10h1v1h-1z"/><path fill="#90f9fd" fill-rule="evenodd" d="M34 38h1v1h-1zm5 0h1v1h-1zm23 3h1v1h-1zm15 2h1v1h-1zm-52 17h1v1h-1zm-9 22h1v1h-1z"/><path fill="#8af9fd" fill-rule="evenodd" d="M35 38h1v1h-1zm15 2h1v1h-1zm8 1h1v1h-1zm15 2h1v1h-1zm15 2h1v1h-1zm-60 9h1v1h-1zm-2 5h1v1h-1zm-7 17h1v1h-1zm-2 5h1v1h-1z"/><path fill="#8bf9fd" fill-rule="evenodd" d="M36 38h1v1h-1zm7 1h1v1h-1zm8 1h1v1h-1zm15 2h1v1h-1zm8 1h1v1h-1zm-42 1h1v1h-1zm49 0h1v1h-1zm8 1h1v1h-1zm-59 4h1v1h-1zm-7 17h1v1h-1zm-2 5h1v1h-1zm-7 17h1v1h-1z"/><path fill="#8df9fd" fill-rule="evenodd" d="M37 38h1v1h-1zm8 1h1v1h-1zm7 1h1v1h-1zm8 1h1v1h-1zm15 2h1v1h-1zm8 1h1v1h-1zm-52 2h1v1h-1zm-2 5h1v1h-1zm-7 17h1v1h-1zm-2 5h1v1h-1zm-5 12h1v1h-1z"/><path fill="#8ef9fd" fill-rule="evenodd" d="M38 38h1v1h-1zm15 2h1v1h-1zm-20 1h1v1h-1zm28 0h1v1h-1zm7 1h1v1h-1zm8 1h1v1h-1zm-48 10h1v1h-1zm-2 5h1v1h-1zm-2 5h1v1h-1zm-5 12h1v1h-1zm-2 5h1v1h-1z"/><path fill="#91fafd" fill-rule="evenodd" d="M40 38h1v1h-1zm15 2h1v1h-1zm8 1h1v1h-1zm15 2h1v1h-1zm-47 2h1v1h-1zm-2 5h1v1h-1zm-7 17h1v1h-1zm-2 5h1v1h-1z"/><path fill="#92fafd" fill-rule="evenodd" d="M41 38h1v1h-1zm7 1h1v1h-1zm-15 1h1v1h-1zm23 0h1v1h-1zm15 2h1v1h-1zm8 1h1v1h-1zm7 1h1v1h-1zm-60 13h1v1h-1zm-2 5h1v1h-1zm-5 12h1v1h-1zm-2 5h1v1h-1zm-2 5h1v1h-1z"/><path fill="#98fafd" fill-rule="evenodd" d="M45 38h1v1h-1zm15 2h1v1h-1zm8 1h1v1h-1zm15 2h1v1h-1zm-56 10h1v1h-1zm-2 5h1v1h-1zm-7 17h1v1h-1zm-2 5h1v1h-1z"/><path fill="#9bfafd" fill-rule="evenodd" d="M47 38h1v1h-1zm8 1h1v1h-1zm15 2h1v1h-1zm15 2h1v1h-1zm-55 2h1v1h-1zm-2 5h1v1h-1zm-5 12h1v1h-1zm-2 5h1v1h-1zm-2 5h1v1h-1zm-5 12h1v1h-1zm-2 5h1v1h-1z"/><path fill="#8cf9fd" fill-rule="evenodd" d="M34 39h1v1h-1zm10 0h1v1h-1zm15 2h1v1h-1zm8 1h1v1h-1zm15 2h1v1h-1zm-55 12h1v1h-1zm-2 5h1v1h-1zm-7 17h1v1h-1zm-2 5h1v1h-1z"/><path fill="#82f9fd" fill-rule="evenodd" d="M35 39h1v1h-1zm2 0h1v1h-1zm15 2h1v1h-1zm8 1h1v1h-1zm7 1h1v1h-1zm8 1h1v1h-1zm-47 12h1v1h-1zm-2 5h1v1h-1zm-7 17h1v1h-1zm-2 5h1v1h-1z"/><path fill="#81f9fd" fill-rule="evenodd" d="M36 39h1v1h-1zm8 1h1v1h-1zm15 2h1v1h-1zm-26 2h1v1h-1zm41 0h1v1h-1zm8 1h1v1h-1zm-51 4h1v1h-1zm-7 17h1v1h-1zm-2 5h1v1h-1zm-7 17h1v1h-1z"/><path fill="#84f9fd" fill-rule="evenodd" d="M38 39h1v1h-1zm8 1h1v1h-1zm-12 1h1v1h-1zm27 1h1v1h-1zm8 1h1v1h-1zm7 1h1v1h-1zm8 1h1v1h-1zm-57 13h1v1h-1zm-2 5h1v1h-1zm-5 12h1v1h-1zm-2 5h1v1h-1zm-2 5h1v1h-1z"/><path fill="#85f9fd" fill-rule="evenodd" d="M39 39h1v1h-1zm15 2h1v1h-1zm8 1h1v1h-1zm-29 1h1v1h-1zm44 1h1v1h-1zm8 1h1v1h-1zm-54 3h1v1h-1zm-2 5h1v1h-1zm-5 12h1v1h-1zm-2 5h1v1h-1zm-7 17h1v1h-1z"/><path fill="#86f9fd" fill-rule="evenodd" d="M40 39h1v1h-1zm7 1h1v1h-1zm8 1h1v1h-1zm15 2h1v1h-1zm8 1h1v1h-1zm-50 11h1v1h-1zm-2 5h1v1h-1zm-7 17h1v1h-1zm-2 5h1v1h-1z"/><path fill="#88f9fd" fill-rule="evenodd" d="M41 39h1v1h-1zm-7 1h1v1h-1zm15 0h1v1h-1zm15 2h1v1h-1zm15 2h1v1h-1zm8 1h1v1h-1zm-60 12h1v1h-1zm-2 5h1v1h-1zm-7 17h1v1h-1zm-2 5h1v1h-1z"/><path fill="#89f9fd" fill-rule="evenodd" d="M42 39h1v1h-1zm15 2h1v1h-1zm-24 1h1v1h-1zm32 0h1v1h-1zm7 1h1v1h-1zm8 1h1v1h-1zm-49 3h1v1h-1zm-2 5h1v1h-1zm-5 12h1v1h-1zm-2 5h1v1h-1zm-2 5h1v1h-1zm-5 12h1v1h-1z"/><path fill="#8ff9fd" fill-rule="evenodd" d="M46 39h1v1h-1zm8 1h1v1h-1zm15 2h1v1h-1zm-37 1h1v1h-1zm52 1h1v1h-1zm-54 4h1v1h-1zm-7 17h1v1h-1zm-2 5h1v1h-1zm-7 17h1v1h-1z"/><path fill="#90fafd" fill-rule="evenodd" d="M47 39h1v1h-1zm23 3h1v1h-1zm15 2h1v1h-1zm-58 11h1v1h-1zm-9 22h1v1h-1z"/><path fill="#93fafd" fill-rule="evenodd" d="M49 39h1v1h-1zm15 2h1v1h-1zm-32 1h1v1h-1zm40 0h1v1h-1zm15 2h1v1h-1zm-57 3h1v1h-1zm-2 5h1v1h-1zm-5 12h1v1h-1zm-2 5h1v1h-1zm-7 17h1v1h-1z"/><path fill="#d6fdfb" fill-rule="evenodd" d="M97 39h1v1h-1z"/><path fill="#7ef9fd" fill-rule="evenodd" d="M35 40h1v1h-1zm14 1h1v1h-1zm8 1h1v1h-1zm15 2h1v1h-1zm8 1h1v1h-1zm7 1h1v1h-1zm-59 11h1v1h-1zm-2 5h1v1h-1zm-7 17h1v1h-1zm-2 5h1v1h-1z"/><path fill="#76f8fd" fill-rule="evenodd" d="M36 40h1v1h-1zm-1 2h1v1h-1zm16 0h1v1h-1zm8 1h1v1h-1zm7 1h1v1h-1zm8 1h1v1h-1zm-46 14h1v1h-1zm-2 5h1v1h-1zm-5 12h1v1h-1zm-2 5h1v1h-1zm-2 5h1v1h-1z"/><path fill="#78f8fd" fill-rule="evenodd" d="M37 40h1v1h-1zm8 1h1v1h-1zm15 2h1v1h-1zm8 1h1v1h-1zm15 2h1v1h-1zm-54 10h1v1h-1zm-2 5h1v1h-1zm-7 17h1v1h-1zm-2 5h1v1h-1z"/><path fill="#79f8fd" fill-rule="evenodd" d="M38 40h1v1h-1zm8 1h1v1h-1zm7 1h1v1h-1zm8 1h1v1h-1zm15 2h1v1h-1zm-43 1h1v1h-1zm51 0h1v1h-1zm-53 5h1v1h-1zm-7 17h1v1h-1zm-2 5h1v1h-1z"/><path fill="#7af8fd" fill-rule="evenodd" d="M39 40h1v1h-1zm-4 1h1v1h-1zm19 1h1v1h-1zm15 2h1v1h-1zm8 1h1v1h-1zm-49 13h1v1h-1zm-2 5h1v1h-1zm-7 17h1v1h-1zm-2 5h1v1h-1z"/><path fill="#7cf9fd" fill-rule="evenodd" d="M40 40h1v1h-1zm8 1h1v1h-1zm15 2h1v1h-1zm15 2h1v1h-1zm8 1h1v1h-1zm-57 9h1v1h-1zm-2 5h1v1h-1zm-7 17h1v1h-1zm-2 5h1v1h-1z"/><path fill="#7df9fd" fill-rule="evenodd" d="M41 40h1v1h-1zm15 2h1v1h-1zm8 1h1v1h-1zm7 1h1v1h-1zm-38 1h1v1h-1zm46 0h1v1h-1zm-48 5h1v1h-1zm-7 17h1v1h-1zm-2 5h1v1h-1z"/><path fill="#7ff9fd" fill-rule="evenodd" d="M42 40h1v1h-1zm8 1h1v1h-1zm15 2h1v1h-1zm8 1h1v1h-1zm15 2h1v1h-1zm-56 1h1v1h-1zm-2 5h1v1h-1zm-7 17h1v1h-1zm-2 5h1v1h-1zm-5 12h1v1h-1z"/><path fill="#80f9fd" fill-rule="evenodd" d="M43 40h1v1h-1zm8 1h1v1h-1zm-17 1h1v1h-1zm24 0h1v1h-1zm8 1h1v1h-1zm15 2h1v1h-1zm-52 9h1v1h-1zm-2 5h1v1h-1zm-2 5h1v1h-1zm-5 12h1v1h-1zm-2 5h1v1h-1z"/><path fill="#83f9fd" fill-rule="evenodd" d="M45 40h1v1h-1zm8 1h1v1h-1zm15 2h1v1h-1zm15 2h1v1h-1zm-51 1h1v1h-1zm-2 5h1v1h-1zm-7 17h1v1h-1zm-2 5h1v1h-1z"/><path fill="#87f9fd" fill-rule="evenodd" d="M48 40h1v1h-1zm8 1h1v1h-1zm7 1h1v1h-1zm8 1h1v1h-1zm-39 2h1v1h-1zm54 0h1v1h-1zm-56 5h1v1h-1zm-7 17h1v1h-1zm-2 5h1v1h-1z"/><path fill="#bbfbfd" fill-rule="evenodd" d="M85 40h1v1h-1zm-68 29h1v1h-1z"/><path fill="#c9fbfb" fill-rule="evenodd" d="M96 40h1v1h-1z"/><path fill="#70f8fd" fill-rule="evenodd" d="M36 41h1v1h-1zm3 0h1v1h-1zm8 1h1v1h-1zm15 2h1v1h-1zm8 1h1v1h-1zm7 1h1v1h-1zm8 1h1v1h-1zm-56 11h1v1h-1zm-2 5h1v1h-1zm-7 17h1v1h-1zm-2 5h1v1h-1z"/><path fill="#6df8fd" fill-rule="evenodd" d="M37 41h1v1h-1zm8 1h1v1h-1zm7 1h1v1h-1zm8 1h1v1h-1zm15 2h1v1h-1zm8 1h1v1h-1zm-50 2h1v1h-1zm-2 5h1v1h-1zm-5 12h1v1h-1zm-2 5h1v1h-1zm-2 5h1v1h-1z"/><path fill="#6ef8fd" fill-rule="evenodd" d="M38 41h1v1h-1zm15 2h1v1h-1zm-18 1h1v1h-1zm33 1h1v1h-1zm8 1h1v1h-1zm-46 10h1v1h-1zm-2 5h1v1h-1zm-7 17h1v1h-1zm-2 5h1v1h-1z"/><path fill="#71f8fd" fill-rule="evenodd" d="M40 41h1v1h-1zm15 2h1v1h-1zm8 1h1v1h-1zm15 2h1v1h-1zm-45 2h1v1h-1zm-2 5h1v1h-1zm-7 17h1v1h-1zm-2 5h1v1h-1zm-5 12h1v1h-1z"/><path fill="#72f8fd" fill-rule="evenodd" d="M41 41h1v1h-1zm7 1h1v1h-1zm-13 1h1v1h-1zm21 0h1v1h-1zm15 2h1v1h-1zm8 1h1v1h-1zm7 1h1v1h-1zm-56 8h1v1h-1zm-2 5h1v1h-1zm-2 5h1v1h-1zm-5 12h1v1h-1zm-2 5h1v1h-1z"/><path fill="#74f8fd" fill-rule="evenodd" d="M42 41h1v1h-1zm8 1h1v1h-1zm7 1h1v1h-1zm8 1h1v1h-1zm15 2h1v1h-1zm-51 11h1v1h-1zm-2 5h1v1h-1zm-7 17h1v1h-1zm-2 5h1v1h-1z"/><path fill="#75f8fd" fill-rule="evenodd" d="M43 41h1v1h-1zm15 2h1v1h-1zm15 2h1v1h-1zm8 1h1v1h-1zm-48 1h1v1h-1zm-2 5h1v1h-1zm-7 17h1v1h-1zm-2 5h1v1h-1z"/><path fill="#77f8fd" fill-rule="evenodd" d="M44 41h1v1h-1zm8 1h1v1h-1zm-18 2h1v1h-1zm33 0h1v1h-1zm8 1h1v1h-1zm7 1h1v1h-1zm-50 3h1v1h-1zm-2 5h1v1h-1zm-5 12h1v1h-1zm-2 5h1v1h-1z"/><path fill="#7bf9fd" fill-rule="evenodd" d="M47 41h1v1h-1zm8 1h1v1h-1zm-21 1h1v1h-1zm36 1h1v1h-1zm15 2h1v1h-1zm-53 2h1v1h-1zm-7 17h1v1h-1zm-2 5h1v1h-1zm-7 17h1v1h-1z"/><path fill="#befbfd" fill-rule="evenodd" d="M95 41h1v1h-1z"/><path fill="#6cf8fd" fill-rule="evenodd" d="M36 42h1v1h-1zm8 0h1v1h-1zm15 2h1v1h-1zm8 1h1v1h-1zm15 2h1v1h-1zm-53 12h1v1h-1zm-2 5h1v1h-1zm-7 17h1v1h-1zm-2 5h1v1h-1z"/><path fill="#62f7fd" fill-rule="evenodd" d="M37 42h1v1h-1zm15 2h1v1h-1zm15 2h1v1h-1zm8 1h1v1h-1zm-45 12h1v1h-1zm-2 5h1v1h-1zm-7 17h1v1h-1zm-2 5h1v1h-1z"/><path fill="#64f7fd" fill-rule="evenodd" d="M38 42h1v1h-1zm8 1h1v1h-1zm-10 1h1v1h-1zm25 1h1v1h-1zm8 1h1v1h-1zm7 1h1v1h-1zm8 1h1v1h-1zm-53 8h1v1h-1zm-2 5h1v1h-1zm-2 5h1v1h-1zm-5 12h1v1h-1zm-2 5h1v1h-1z"/><path fill="#65f7fd" fill-rule="evenodd" d="M39 42h1v1h-1zm15 2h1v1h-1zm8 1h1v1h-1zm15 2h1v1h-1zm-44 4h1v1h-1zm-9 22h1v1h-1z"/><path fill="#66f8fd" fill-rule="evenodd" d="M40 42h1v1h-1zm7 1h1v1h-1zm8 1h1v1h-1zm15 2h1v1h-1zm8 1h1v1h-1zm7 1h1v1h-1zm-55 10h1v1h-1zm-2 5h1v1h-1zm-7 17h1v1h-1zm-2 5h1v1h-1z"/><path fill="#68f8fd" fill-rule="evenodd" d="M41 42h1v1h-1zm-5 1h1v1h-1zm13 0h1v1h-1zm7 1h1v1h-1zm8 1h1v1h-1zm15 2h1v1h-1zm-50 13h1v1h-1zm-2 5h1v1h-1zm-5 12h1v1h-1zm-2 5h1v1h-1zm-2 5h1v1h-1z"/><path fill="#69f8fd" fill-rule="evenodd" d="M42 42h1v1h-1zm15 2h1v1h-1zm-22 1h1v1h-1zm30 0h1v1h-1zm7 1h1v1h-1zm8 1h1v1h-1zm-47 3h1v1h-1zm-2 5h1v1h-1zm-5 12h1v1h-1zm-2 5h1v1h-1z"/><path fill="#6bf8fd" fill-rule="evenodd" d="M43 42h1v1h-1zm8 1h1v1h-1zm15 2h1v1h-1zm8 1h1v1h-1zm-40 1h1v1h-1zm47 0h1v1h-1zm-49 5h1v1h-1zm-7 17h1v1h-1zm-2 5h1v1h-1z"/><path fill="#6ff8fd" fill-rule="evenodd" d="M46 42h1v1h-1zm8 1h1v1h-1zm7 1h1v1h-1zm8 1h1v1h-1zm-35 1h1v1h-1zm50 1h1v1h-1zm-52 4h1v1h-1zm-7 17h1v1h-1zm-2 5h1v1h-1z"/><path fill="#73f8fd" fill-rule="evenodd" d="M49 42h1v1h-1zm15 2h1v1h-1zm-30 1h1v1h-1zm38 0h1v1h-1zm15 2h1v1h-1zm-55 3h1v1h-1zm-7 17h1v1h-1zm-2 5h1v1h-1z"/><path fill="#f1f9ea" fill-rule="evenodd" d="M21 43h1v1h-1z"/><path fill="#5ef7fe" fill-rule="evenodd" d="M37 43h1v1h-1zm12 1h1v1h-1zm8 1h1v1h-1zm15 2h1v1h-1zm-42 13h1v1h-1zm-2 5h1v1h-1zm-7 17h1v1h-1z"/><path fill="#59f7fe" fill-rule="evenodd" d="M38 43h1v1h-1zm15 2h1v1h-1zm8 1h1v1h-1zm15 2h1v1h-1zm-41 1h1v1h-1zm-2 5h1v1h-1zm-7 17h1v1h-1zm-2 5h1v1h-1z"/><path fill="#5af7fe" fill-rule="evenodd" d="M39 43h1v1h-1zm-2 1h1v1h-1zm9 0h1v1h-1zm8 1h1v1h-1zm15 2h1v1h-1zm8 1h1v1h-1zm7 1h1v1h-1zm-54 12h1v1h-1zm-2 5h1v1h-1zm-5 12h1v1h-1zm-2 5h1v1h-1z"/><path fill="#5cf7fe" fill-rule="evenodd" d="M40 43h1v1h-1zm8 1h1v1h-1zm7 1h1v1h-1zm8 1h1v1h-1zm15 2h1v1h-1zm-47 10h1v1h-1zm-2 5h1v1h-1zm-7 17h1v1h-1zm-2 5h1v1h-1z"/><path fill="#5df7fe" fill-rule="evenodd" d="M41 43h1v1h-1zm15 2h1v1h-1zm8 1h1v1h-1zm7 1h1v1h-1zm-36 1h1v1h-1zm44 0h1v1h-1zm-46 5h1v1h-1zm-7 17h1v1h-1zm-2 5h1v1h-1z"/><path fill="#5ff7fe" fill-rule="evenodd" d="M42 43h1v1h-1zm8 1h1v1h-1zm15 2h1v1h-1zm8 1h1v1h-1zm7 1h1v1h-1zm-46 2h1v1h-1zm-2 5h1v1h-1zm-5 12h1v1h-1zm-2 5h1v1h-1zm-2 5h1v1h-1z"/><path fill="#60f7fd" fill-rule="evenodd" d="M43 43h1v1h-1zm23 3h1v1h-1zm-35 11h1v1h-1zm-9 22h1v1h-1z"/><path fill="#61f7fd" fill-rule="evenodd" d="M44 43h1v1h-1zm7 1h1v1h-1zm8 1h1v1h-1zm-24 2h1v1h-1zm39 0h1v1h-1zm8 1h1v1h-1zm-49 4h1v1h-1zm-7 17h1v1h-1zm-2 5h1v1h-1z"/><path fill="#63f7fd" fill-rule="evenodd" d="M45 43h1v1h-1zm8 1h1v1h-1zm7 1h1v1h-1zm8 1h1v1h-1zm15 2h1v1h-1zm-49 1h1v1h-1zm-2 5h1v1h-1zm-7 17h1v1h-1zm-2 5h1v1h-1z"/><path fill="#67f8fd" fill-rule="evenodd" d="M48 43h1v1h-1zm15 2h1v1h-1zm8 1h1v1h-1zm-37 2h1v1h-1zm52 0h1v1h-1zm-54 5h1v1h-1zm-7 17h1v1h-1zm-2 5h1v1h-1z"/><path fill="#6af8fd" fill-rule="evenodd" d="M50 43h1v1h-1zm8 1h1v1h-1zm15 2h1v1h-1zm-43 11h1v1h-1zm-2 5h1v1h-1zm-7 17h1v1h-1zm-2 5h1v1h-1z"/><path fill="#7bf8fd" fill-rule="evenodd" d="M62 43h1v1h-1zm-32 10h1v1h-1zm-9 22h1v1h-1z"/><path fill="#a4f9fc" fill-rule="evenodd" d="M92 43h1v1h-1z"/><path fill="#50f6fe" fill-rule="evenodd" d="M38 44h2v1h-2zm39 5h1v1h-1zm-48 17h1v1h-1z"/><path fill="#51f7fe" fill-rule="evenodd" d="M40 44h1v1h-1zm15 2h1v1h-1zm8 1h1v1h-1zm7 1h1v1h-1zm8 1h1v1h-1zm-43 2h1v1h-1zm-2 5h1v1h-1zm-5 12h1v1h-1zm-2 5h1v1h-1zm-2 5h1v1h-1z"/><path fill="#53f7fe" fill-rule="evenodd" d="M41 44h1v1h-1zm8 1h1v1h-1zm15 2h1v1h-1zm-28 1h1v1h-1zm36 0h1v1h-1zm7 1h1v1h-1zm-45 4h1v1h-1zm-7 17h1v1h-1zm-2 5h1v1h-1z"/><path fill="#54f7fe" fill-rule="evenodd" d="M42 44h1v1h-1zm15 2h1v1h-1zm8 1h1v1h-1zm15 2h1v1h-1zm-49 11h1v1h-1zm-2 5h1v1h-1zm-7 17h1v1h-1z"/><path fill="#55f7fe" fill-rule="evenodd" d="M43 44h1v1h-1zm7 1h1v1h-1zm8 1h1v1h-1zm15 2h1v1h-1zm8 1h1v1h-1zm-46 1h1v1h-1zm-2 5h1v1h-1zm-7 17h1v1h-1zm-2 5h1v1h-1z"/><path fill="#57f7fe" fill-rule="evenodd" d="M44 44h1v1h-1zm8 1h1v1h-1zm-16 2h1v1h-1zm31 0h1v1h-1zm15 2h1v1h-1zm-48 3h1v1h-1zm-7 17h1v1h-1zm-2 5h1v1h-1z"/><path fill="#58f7fe" fill-rule="evenodd" d="M45 44h1v1h-1zm15 2h1v1h-1zm8 1h1v1h-1zm7 1h1v1h-1zm8 1h1v1h-1zm-52 10h1v1h-1zm-2 5h1v1h-1zm-7 17h1v1h-1zm-2 5h1v1h-1z"/><path fill="#5bf7fe" fill-rule="evenodd" d="M47 44h1v1h-1zm-11 2h1v1h-1zm26 0h1v1h-1zm8 1h1v1h-1zm-36 4h1v1h-1zm-2 5h1v1h-1zm-5 12h1v1h-1zm-2 5h1v1h-1z"/><path fill="#98f9fc" fill-rule="evenodd" d="M91 44h1v1h-1z"/><path fill="#f0fdf5" fill-rule="evenodd" d="M21 45h1v1h-1z"/><path fill="#60f7fe" fill-rule="evenodd" d="M36 45h1v1h-1zm22 0h1v1h-1zm23 3h1v1h-1zm-52 14h1v1h-1zm-9 22h1v1h-1z"/><path fill="#56f7fe" fill-rule="evenodd" d="M37 45h1v1h-1zm14 0h1v1h-1zm8 1h1v1h-1zm7 1h1v1h-1zm8 1h1v1h-1zm-42 9h1v1h-1zm-2 5h1v1h-1zm-2 5h1v1h-1zm-5 12h1v1h-1zm-2 5h1v1h-1z"/><path fill="#4cf6fe" fill-rule="evenodd" d="M38 45h1v1h-1zm6 0h1v1h-1zm15 2h1v1h-1zm8 1h1v1h-1zm7 1h1v1h-1zm8 1h1v1h-1zm-51 12h1v1h-1zm-2 5h1v1h-1zm-5 12h1v1h-1zm-2 5h1v1h-1z"/><path fill="#45f6fe" fill-rule="evenodd" d="M39 45h1v1h-1zm15 2h1v1h-1zm8 1h1v1h-1zm-25 1h1v1h-1zm32 0h1v1h-1zm8 1h1v1h-1zm-42 4h1v1h-1zm-7 17h1v1h-1zm-2 5h1v1h-1z"/><path fill="#47f6fe" fill-rule="evenodd" d="M40 45h1v1h-1zm8 1h1v1h-1zm15 2h1v1h-1zm8 1h1v1h-1zm-35 2h1v1h-1zm-2 5h1v1h-1zm-7 17h1v1h-1zm-2 5h1v1h-1z"/><path fill="#48f6fe" fill-rule="evenodd" d="M41 45h1v1h-1zm-3 1h1v1h-1zm11 0h1v1h-1zm7 1h1v1h-1zm8 1h1v1h-1zm15 2h1v1h-1zm-46 8h1v1h-1zm-2 5h1v1h-1zm-2 5h1v1h-1zm-5 12h1v1h-1zm-2 5h1v1h-1z"/><path fill="#49f6fe" fill-rule="evenodd" d="M42 45h1v1h-1zm15 2h1v1h-1zm-20 1h1v1h-1zm35 1h1v1h-1zm8 1h1v1h-1zm-45 3h1v1h-1zm-7 17h1v1h-1zm-2 5h1v1h-1z"/><path fill="#4bf6fe" fill-rule="evenodd" d="M43 45h1v1h-1zm8 1h1v1h-1zm15 2h1v1h-1zm-30 2h1v1h-1zm45 0h1v1h-1zm-47 5h1v1h-1zm-7 17h1v1h-1zm-2 5h1v1h-1z"/><path fill="#4ef6fe" fill-rule="evenodd" d="M45 45h1v1h-1zm8 1h1v1h-1zm15 2h1v1h-1zm8 1h1v1h-1zm-44 10h1v1h-1zm-2 5h1v1h-1zm-7 17h1v1h-1z"/><path fill="#4ff6fe" fill-rule="evenodd" d="M46 45h1v1h-1zm8 1h1v1h-1zm7 1h1v1h-1zm8 1h1v1h-1zm-33 1h1v1h-1zm-2 5h1v1h-1zm-7 17h1v1h-1zm-2 5h1v1h-1z"/><path fill="#50f7fe" fill-rule="evenodd" d="M47 45h1v1h-1zm15 2h1v1h-1zm-31 14h1v1h-1zm-9 22h1v1h-1z"/><path fill="#52f7fe" fill-rule="evenodd" d="M48 45h1v1h-1zm-11 1h1v1h-1zm19 0h1v1h-1zm15 2h1v1h-1zm-39 10h1v1h-1zm-2 5h1v1h-1zm-7 17h1v1h-1zm-2 5h1v1h-1z"/><path fill="#8bf8fc" fill-rule="evenodd" d="M90 45h1v1h-1z"/><path fill="#effdfa" fill-rule="evenodd" d="M21 46h1v1h-1z"/><path fill="#65f8fd" fill-rule="evenodd" d="M35 46h1v1h-1zm-9 22h1v1h-1z"/><path fill="#3ef6fe" fill-rule="evenodd" d="M39 46h1v1h-1zm10 1h1v1h-1zm8 1h1v1h-1zm7 1h1v1h-1zm8 1h1v1h-1zm-40 13h1v1h-1zm-2 5h1v1h-1zm-5 12h1v1h-1zm-2 5h1v1h-1z"/><path fill="#3cf6fe" fill-rule="evenodd" d="M40 46h1v1h-1zm8 1h1v1h-1zm7 1h1v1h-1zm8 1h1v1h-1zm15 2h1v1h-1zm-45 10h1v1h-1zm-2 5h1v1h-1zm-7 17h1v1h-1z"/><path fill="#3df6fe" fill-rule="evenodd" d="M41 46h1v1h-1zm15 2h1v1h-1zm15 2h1v1h-1zm-34 1h1v1h-1zm42 0h1v1h-1zm-44 5h1v1h-1zm-7 17h1v1h-1zm-2 5h1v1h-1z"/><path fill="#3ff6fe" fill-rule="evenodd" d="M42 46h1v1h-1zm8 1h1v1h-1zm-12 1h1v1h-1zm27 1h1v1h-1zm8 1h1v1h-1zm7 1h1v1h-1zm-44 2h1v1h-1zm-2 5h1v1h-1zm-5 12h1v1h-1zm-2 5h1v1h-1z"/><path fill="#40f6fe" fill-rule="evenodd" d="M43 46h1v1h-1zm15 2h1v1h-1zm8 1h1v1h-1zm15 2h1v1h-1zm-48 9h1v1h-1zm-2 5h1v1h-1zm-7 17h1v1h-1z"/><path fill="#42f6fe" fill-rule="evenodd" d="M44 46h1v1h-1zm8 1h1v1h-1zm15 2h1v1h-1zm8 1h1v1h-1zm-43 12h1v1h-1zm-2 5h1v1h-1zm-7 17h1v1h-1z"/><path fill="#43f6fe" fill-rule="evenodd" d="M45 46h1v1h-1zm8 1h1v1h-1zm7 1h1v1h-1zm8 1h1v1h-1zm-32 3h1v1h-1zm-2 5h1v1h-1zm-5 12h1v1h-1zm-2 5h1v1h-1zm-2 5h1v1h-1z"/><path fill="#44f6fe" fill-rule="evenodd" d="M46 46h1v1h-1zm-8 1h1v1h-1zm23 1h1v1h-1zm15 2h1v1h-1zm-43 9h1v1h-1zm-2 5h1v1h-1zm-7 17h1v1h-1z"/><path fill="#46f6fe" fill-rule="evenodd" d="M47 46h1v1h-1zm8 1h1v1h-1zm15 2h1v1h-1zm8 1h1v1h-1zm-46 11h1v1h-1zm-2 5h1v1h-1zm-7 17h1v1h-1z"/><path fill="#4af6fe" fill-rule="evenodd" d="M50 46h1v1h-1zm8 1h1v1h-1zm7 1h1v1h-1zm8 1h1v1h-1zm-41 11h1v1h-1zm-2 5h1v1h-1zm-7 17h1v1h-1z"/><path fill="#4df6fe" fill-rule="evenodd" d="M52 46h1v1h-1zm-15 1h1v1h-1zm23 0h1v1h-1zm15 2h1v1h-1zm8 1h1v1h-1zm-48 2h1v1h-1zm-2 5h1v1h-1zm-5 12h1v1h-1zm-2 5h1v1h-1z"/><path fill="#80f9fc" fill-rule="evenodd" d="M89 46h1v1h-1z"/><path fill="#3af5fe" fill-rule="evenodd" d="M39 47h1v1h-1zm7 0h1v1h-1zm8 1h1v1h-1zm15 2h1v1h-1zm8 1h1v1h-1zm-43 8h1v1h-1zm-2 5h1v1h-1zm-2 5h1v1h-1zm-5 12h1v1h-1z"/><path fill="#31f5fe" fill-rule="evenodd" d="M40 47h1v1h-1zm-1 2h1v1h-1zm16 0h1v1h-1zm15 2h1v1h-1zm8 1h1v1h-1zm-41 2h1v1h-1zm-2 5h1v1h-1zm-5 12h1v1h-1zm-2 5h1v1h-1z"/><path fill="#33f5fe" fill-rule="evenodd" d="M41 47h1v1h-1zm8 1h1v1h-1zm15 2h1v1h-1zm-26 1h1v1h-1zm34 0h1v1h-1zm7 1h1v1h-1zm-43 4h1v1h-1zm-7 17h1v1h-1zm-2 5h1v1h-1z"/><path fill="#34f5fe" fill-rule="evenodd" d="M42 47h1v1h-1zm15 2h1v1h-1zm8 1h1v1h-1zm15 2h1v1h-1zm-47 11h1v1h-1zm-2 5h1v1h-1z"/><path fill="#35f5fe" fill-rule="evenodd" d="M43 47h1v1h-1zm7 1h1v1h-1zm8 1h1v1h-1zm15 2h1v1h-1zm8 1h1v1h-1zm-44 1h1v1h-1zm-2 5h1v1h-1zm-5 12h1v1h-1zm-2 5h1v1h-1zm-2 5h1v1h-1z"/><path fill="#37f5fe" fill-rule="evenodd" d="M44 47h1v1h-1zm8 1h1v1h-1zm7 1h1v1h-1zm-21 1h1v1h-1zm29 0h1v1h-1zm-31 5h1v1h-1zm-7 17h1v1h-1zm-2 5h1v1h-1z"/><path fill="#38f5fe" fill-rule="evenodd" d="M45 47h1v1h-1zm15 2h1v1h-1zm15 2h1v1h-1zm-42 11h1v1h-1zm-2 5h1v1h-1zm-7 17h1v1h-1z"/><path fill="#3bf6fe" fill-rule="evenodd" d="M47 47h1v1h-1zm-9 2h1v1h-1zm24 0h1v1h-1zm8 1h1v1h-1zm-34 4h1v1h-1zm-7 17h1v1h-1zm-2 5h1v1h-1z"/><path fill="#41f6fe" fill-rule="evenodd" d="M51 47h1v1h-1zm8 1h1v1h-1zm-22 2h1v1h-1zm37 0h1v1h-1zm8 1h1v1h-1zm-47 4h1v1h-1zm-7 17h1v1h-1zm-2 5h1v1h-1z"/><path fill="#74f8fc" fill-rule="evenodd" d="M88 47h1v1h-1z"/><path fill="#36f5fe" fill-rule="evenodd" d="M39 48h1v1h-1zm12 0h1v1h-1zm15 2h1v1h-1zm8 1h1v1h-1zm-40 9h1v1h-1zm-2 5h1v1h-1zm-7 17h1v1h-1z"/><path fill="#30f4fe" fill-rule="evenodd" d="M40 48h4v1h-4zm9 1h3v1h-3zm7 1h4v1h-4zm-17 1h1v1h-1zm25 0h3v1h-3zm8 1h3v1h-3zm-34 1h1v1h-1zm41 0h1v1h-1zm-42 3h1v1h-1zm-1 2h1v1h-1zm-1 3h1v1h-1zm-1 2h1v1h-1zm-1 2h1v2h-1zm-1 3h1v1h-1zm-1 2h1v1h-1zm-1 3h1v1h-1zm-1 2h1v1h-1zm-1 3h1v1h-1zm-1 2h1v1h-1zm-1 3h1v1h-1z"/><path fill="#30f5fe" fill-rule="evenodd" d="M44 48h4v1h-4zm8 1h3v1h-3zm-13 1h1v1h-1zm21 0h3v1h-3zm7 1h3v1h-3zm-29 1h1v1h-1zm37 0h3v1h-3zm-38 3h1v1h-1zm-1 2h1v1h-1zm-1 3h1v1h-1zm-1 2h1v1h-1zm-1 2h1v1h-1zm-1 3h1v1h-1zm-1 2h1v1h-1zm-1 3h1v1h-1zm-1 2h1v1h-1zm-1 3h1v1h-1zm-1 2h1v1h-1zm-1 2h1v2h-1zm-1 3h1v1h-1z"/><path fill="#32f5fe" fill-rule="evenodd" d="M48 48h1v1h-1zm8 1h1v1h-1zm7 1h1v1h-1zm8 1h1v1h-1zm-37 10h1v1h-1zm-2 5h1v1h-1zm-7 17h1v1h-1z"/><path fill="#39f5fe" fill-rule="evenodd" d="M53 48h1v1h-1zm8 1h1v1h-1zm7 1h1v1h-1zm8 1h1v1h-1zm-39 1h1v1h-1zm-2 5h1v1h-1zm-7 17h1v1h-1zm-2 5h1v1h-1z"/><path fill="#67f7fd" fill-rule="evenodd" d="M87 48h1v1h-1z"/><path fill="#2ff4fe" fill-rule="evenodd" d="M40 49h1v1h-1zm7 0h2v1h-2zm7 1h2v1h-2zm8 1h2v1h-2zm-23 1h1v1h-1zm30 0h3v1h-3zm8 1h2v1h-2zm-39 1h1v1h-1zm-1 3h1v1h-1zm-1 2h1v1h-1zm-2 5h1v1h-1zm-2 5h1v1h-1zm-1 2h1v1h-1zm-1 3h1v1h-1zm-1 2h1v1h-1zm-1 3h1v1h-1zm-1 2h1v1h-1z"/><path fill="#2ff3fe" fill-rule="evenodd" d="M41 49h6v1h-6zm0 1v2h-1v-2zm8 0h5v1h-5zm7 1h6v1h-6zm8 1h5v1h-5zm-25 1h1v2h-1zm33 0h5v1h-5zm-33 2v2h-1v-2zm-2 3h1v1h-1zm-1 2h1v2h-1zm0 2v2h-1v-2zm-2 3h1v2h-1zm0 2v2h-1v-2zm-2 3h1v2h-1zm0 2v2h-1v-2zm-2 3h1v2h-1zm0 2v2h-1v-2zm-2 3h1v1h-1zm-1 2h1v2h-1z"/><path fill="#5bf6fd" fill-rule="evenodd" d="M85 49h1v1h-1z"/><path fill="#2ff2fe" fill-rule="evenodd" d="M41 50h1v1h-1zm3 0h5v1h-5zm8 1h4v1h-4zm-12 1h1v2h-1zm20 0h4v1h-4zm7 1h5v1h-5zm8 1h4v1h-4zm-36 1h1v1h-1zm-1 2h1v2h-1zm0 2v2h-1v-2zm-2 3h1v1h-1zm-1 2h1v2h-1zm-1 3h1v1h-1zm-1 2h1v2h-1zm-1 3h1v1h-1zm-1 2h1v2h-1zm-1 3h1v1h-1zm-1 2h1v1h-1zm-1 2h1v2h-1z"/><path fill="#2ef1fe" fill-rule="evenodd" d="M42 50h1v1h-1zm8 1h1v1h-1zm8 1h1v1h-1zm7 1h1v1h-1zm8 1h1v1h-1zm-34 2h1v1h-1zm-2 5h1v1h-1zm-2 5h1v1h-1zm-5 12h1v1h-1zm-2 5h1v1h-1z"/><path fill="#2ef2fe" fill-rule="evenodd" d="M43 50h1v1h-1zm-2 1h1v1h-1zm10 0h1v1h-1zm8 1h1v1h-1zm7 1h1v1h-1zm8 1h1v1h-1zm-38 9h1v1h-1zm-2 5h1v1h-1zm-2 5h1v1h-1zm-3 7h1v1h-1z"/><path fill="#4ff5fd" fill-rule="evenodd" d="M84 50h1v1h-1z"/><path fill="#2ef0fd" fill-rule="evenodd" d="M42 51h3v1h-2v1h-1zm0 2v2h-1v-2zm6-1h5v1h-5zm7 1h6v1h-6zm8 1h5v1h-5zm7 1h6v1h-6zm-30 1h1v2h-1zm0 2v2h-1v-2zm-2 3h1v2h-1zm0 2v2h-1v-2zm-2 3h1v2h-1zm0 2v2h-1v-2zm-2 3h1v1h-1zm-1 2h1v2h-1zm0 2v2h-1v-2zm-2 3h1v2h-1zm0 2v2h-1v-2z"/><path fill="#2ef1fd" fill-rule="evenodd" d="M45 51h5v1h-5zm-4 1h1v1h-1zm12 0h5v1h-5zm8 1h4v1h-4zm-21 1h1v2h-1zm28 0h5v1h-5zm8 1h2v1h-2zm-37 2h1v1h-1zm-1 2h1v2h-1zm-1 3h1v1h-1zm-1 2h1v2h-1zm-1 3h1v1h-1zm-1 2h1v2h-1zm0 2v2h-1v-2zm-2 3h1v1h-1zm-1 2h1v2h-1zm-1 3h1v1h-1zm-1 2h1v2h-1z"/><path fill="#43f6fd" fill-rule="evenodd" d="M83 51h1v1h-1z"/><path fill="#e1fdfb" fill-rule="evenodd" d="M20 52h1v1h-1zm-16 39h1v1h-1z"/><path fill="#2deffd" fill-rule="evenodd" d="M43 52h5v1h-5zm0 1v2h-1v-2zm7 0h5v1h-5zm-8 2v2h-1v-2zm15-1h6v1h-6zm8 1h5v1h-5zm8 1h3v1h-3zm4 0h1v1h-1zm-37 2h1v2h-1zm0 2v2h-1v-2zm-2 3h1v2h-1zm0 2v2h-1v-2zm-2 3h1v1h-1zm-1 2h1v2h-1zm0 2v2h-1v-2zm-2 3h1v2h-1zm0 2v2h-1v-2zm-2 3h1v2h-1zm0 2v1h-1v-1z"/><path fill="#37f5fd" fill-rule="evenodd" d="M82 52h1v1h-1z"/><path fill="#defcfc" fill-rule="evenodd" d="M20 53h1v1h-1z"/><path fill="#2deefd" fill-rule="evenodd" d="M43 53h7v1h-7zm9 1h5v1h-5zm-10 1h1v2h-1zm17 0h6v1h-6zm-17 2v2h-1v-2zm25-1h6v1h-6zm-27 4h1v2h-1zm0 2v2h-1v-2zm-2 3h1v1h-1zm-1 2h1v2h-1zm0 2v2h-1v-2zm-2 3h1v2h-1zm0 2v2h-1v-2zm-2 3h1v2h-1zm0 2v2h-1v-2z"/><path fill="#30f3fd" fill-rule="evenodd" d="M80 53h2v1h-2z"/><path fill="#d9fcfb" fill-rule="evenodd" d="M20 54h1v1h-1z"/><path fill="#2dedfd" fill-rule="evenodd" d="M43 54h1v1h-1zm8 0h1v1h-1zm7 1h1v1h-1zm8 1h1v1h-1zm8 1h1v1h-1zm-36 9h1v1h-1zm-2 5h1v1h-1zm-2 5h1v1h-1z"/><path fill="#2cecfd" fill-rule="evenodd" d="M44 54h2v1h-2zm5 1h5v1h-5zm-6 1h1v2h-1zm13 0h6v1h-6zm8 1h5v1h-5zm7 1h3v1h-3zm-29 1h1v1h-1zm-1 2h1v2h-1zm0 2v2h-1v-2zm-2 3h1v2h-1zm0 2v2h-1v-2zm-2 3h1v2h-1zm0 2v2h-1v-2zm-2 3h1v1h-1zm-1 2h1v2h-1zm0 2v2h-1v-2z"/><path fill="#2cedfd" fill-rule="evenodd" d="M46 54h5v1h-5zm-3 1h1v1h-1zm11 0h4v1h-4zm8 1h4v1h-4zm-20 1h1v2h-1zm27 0h5v1h-5zm-27 2v2h-1v-2zm-2 3h1v1h-1zm-1 2h1v2h-1zm-1 3h1v1h-1zm-1 2h1v2h-1zm-1 3h1v1h-1zm-1 2h1v2h-1zm-1 3h1v1h-1zm-1 2h1v1h-1zm-1 2h1v1h-1z"/><path fill="#2ff2fd" fill-rule="evenodd" d="M79 54h1v1h-1zm-53 30h2v1h-2z"/><path fill="#2cebfd" fill-rule="evenodd" d="M44 55h1v1h-1zm2 0h3v1h-3zm8 1h2v1h-2zm8 1h2v1h-2zm-19 1h1v1h-1zm26 0h2v1h-2zm-27 2h1v1h-1zm-1 3h1v1h-1zm-1 2h1v1h-1zm-2 5h1v1h-1zm-2 5h1v1h-1zm-1 2h1v1h-1zm-1 3h1v1h-1z"/><path fill="#2bebfd" fill-rule="evenodd" d="M45 55h1v1h-1zm0 1v1h-1v-1zm6 0h3v1h-3zm7 1h4v1h-4zm8 1h3v1h-3zm-23 1h1v1h-1zm-1 2h1v1h-1zm-1 3h1v1h-1zm-1 2h1v1h-1zm-1 2h1v2h-1zm-1 3h1v1h-1zm-1 2h1v1h-1zm-1 3h1v1h-1zm-1 2h1v1h-1z"/><path fill="#2ef0fc" fill-rule="evenodd" d="M78 55h1v1h-1z"/><path fill="#dbfdfb" fill-rule="evenodd" d="M19 56h1v1h-1z"/><path fill="#2beafc" fill-rule="evenodd" d="M45 56h3v1h-3zm8 1h3v1h-3zm-9 1h1v1h-1zm16 0h3v1h-3zm8 1h3v1h-3zm-25 2h1v1h-1zm-1 2h1v1h-1zm-1 3h1v1h-1zm-1 2h1v1h-1zm-2 5h1v1h-1zm-1 2h1v1h-1zm-1 3h1v1h-1zm-1 2h1v1h-1z"/><path fill="#2beafd" fill-rule="evenodd" d="M48 56h3v1h-3zm-4 1h1v1h-1zm12 0h2v1h-2zm7 1h3v1h-3zm8 1h1v1h-1zm-28 1h1v1h-1zm-1 2h1v1h-1zm-1 3h1v1h-1zm-1 2h1v1h-1zm-1 3h1v1h-1zm-1 2h1v1h-1zm-1 2h1v1h-1zm-1 3h1v1h-1zm-1 2h1v1h-1z"/><path fill="#2deefc" fill-rule="evenodd" d="M76 56h1v1h-1zm0 1v1h-1v-1z"/><path fill="#d7fcfc" fill-rule="evenodd" d="M19 57h1v1h-1z"/><path fill="#2be9fc" fill-rule="evenodd" d="M45 57h1v1h-1zm5 0h3v1h-3zm7 1h3v1h-3zm-13 1h1v1h-1zm21 0h3v1h-3zm7 0h1v1h-1zm-29 3h1v1h-1zm-1 2h1v1h-1zm-1 3h1v1h-1zm-1 2h1v1h-1zm-1 2h1v2h-1zm-1 3h1v1h-1zm-1 2h1v1h-1zm-1 3h1v1h-1z"/><path fill="#2ae8fc" fill-rule="evenodd" d="M46 57h1v1h-1zm4 1h5v1h-5zm-5 1h1v2h-1zm12 0h6v1h-6zm-12 2v2h-1v-2zm20-1h5v1h-5zm-22 4h1v1h-1zm-1 2h1v2h-1zm0 2v2h-1v-2zm-2 3h1v2h-1zm0 2v2h-1v-2zm-2 3h1v2h-1zm0 2v2h-1v-2z"/><path fill="#2ae9fc" fill-rule="evenodd" d="M47 57h3v1h-3zm-2 1h1v1h-1zm10 0h2v1h-2zm8 1h2v1h-2zm-19 1h1v1h-1zm26 0h2v1h-2zm-27 3h1v1h-1zm-1 2h1v1h-1zm-2 5h1v1h-1zm-2 5h1v1h-1zm-1 2h1v1h-1z"/><path fill="#d3fcfb" fill-rule="evenodd" d="M19 58h1v1h-1zm-4 10h1v1h-1z"/><path fill="#2ae7fc" fill-rule="evenodd" d="M46 58h4v1h-3v1h-1zm7 1h4v1h-4zm7 1h5v1h-5zm-15 1h1v1h-1zm23 0h1v1h-1zm-24 2h1v2h-1zm0 2v2h-1v-2zm-2 3h1v1h-1zm-1 2h1v2h-1zm-1 3h1v1h-1zm-1 2h1v2h-1zm-1 3h1v1h-1z"/><path fill="#2bebfc" fill-rule="evenodd" d="M74 58h1v1h-1z"/><path fill="#29e6fc" fill-rule="evenodd" d="M47 59h5v1h-5zm0 1v2h-1v-2zm7 0h5v1h-5zm-8 2v2h-1v-2zm15-1h6v1h-6zm-17 4h1v2h-1zm0 2v2h-1v-2zm-2 3h1v2h-1zm0 2v2h-1v-2zm-2 3h1v2h-1zm0 2v2h-1v-2z"/><path fill="#29e7fc" fill-rule="evenodd" d="M52 59h1v1h-1zm7 1h1v1h-1zm8 1h1v1h-1zm-25 8h1v1h-1zm-2 5h1v1h-1z"/><path fill="#24b2ef" fill-rule="evenodd" d="M81 59h1v1h-1z"/><path fill="#29e5fc" fill-rule="evenodd" d="M47 60h7v1h-7zm9 1h5v1h-5zm-10 1h1v2h-1zm18 0h4v1h-4zm-18 2v2h-1v-2zm-2 3h1v2h-1zm0 2v2h-1v-2zm-2 3h1v2h-1zm0 2v2h-1v-2zm-2 3h1v1h-1z"/><path fill="#22aff0" fill-rule="evenodd" d="M80 60h1v2h-1z"/><path fill="#d1fcfb" fill-rule="evenodd" d="M18 61h1v1h-1z"/><path fill="#28e4fc" fill-rule="evenodd" d="M47 61h1v2h-1zm4 0h5v1h-5zm7 1h6v1h-6zm-12 2h1v2h-1zm0 2v2h-1v-2zm-2 3h1v2h-1zm0 2v2h-1v-2zm-2 3h1v1h-1zm-1 2h1v2h-1z"/><path fill="#28e3fc" fill-rule="evenodd" d="M48 61h3v1h-3zm6 1h4v1h-4zm-7 1h1v2h-1zm14 0h5v1h-5zm-15 3h1v1h-1zm-1 2h1v2h-1zm-1 3h1v1h-1zm-1 2h1v2h-1zm0 2v2h-1v-2z"/><path fill="#2ae6fb" fill-rule="evenodd" d="M69 61h2v1h-2z"/><path fill="#23aef0" fill-rule="evenodd" d="M79 61h1v1h-1z"/><path fill="#28e3fb" fill-rule="evenodd" d="M48 62h1v1h-1zm5 0h1v1h-1zm7 1h1v1h-1zm6 0h1v1h-1zm-20 4h1v1h-1zm-6 11h1v1h-1z"/><path fill="#27e2fb" fill-rule="evenodd" d="M49 62h3v1h-3zm0 1v2h-1v-2zm6 0h4v1h-4zm-7 2v2h-1v-2zm14-1h3v1h-3zm-16 4h1v1h-1zm-1 2h1v2h-1zm-1 3h1v1h-1zm-1 2h1v2h-1zm-2 3h1v1h-1z"/><path fill="#28e2fb" fill-rule="evenodd" d="M52 62h1v1h-1zm7 1h1v1h-1zm-15 9h1v1h-1z"/><path fill="#29e4fb" fill-rule="evenodd" d="M68 62h1v1h-1z"/><path fill="#23adf1" fill-rule="evenodd" d="M78 62h1v1h-1z"/><path fill="#22aef0" fill-rule="evenodd" d="M79 62h1v1h-1z"/><path fill="#d2fcfc" fill-rule="evenodd" d="M17 63h1v1h-1z"/><path fill="#27e1fb" fill-rule="evenodd" d="M49 63h6v1h-6zm8 1h5v1h-5zm-9 1h1v1h-1zm-1 2h1v2h-1zm0 2v2h-1v-2zm-2 3h1v2h-1zm0 2v2h-1v-2z"/><path fill="#27e3fb" fill-rule="evenodd" d="M67 63h1v1h-1z"/><path fill="#23acf1" fill-rule="evenodd" d="M77 63h1v4h-1z"/><path fill="#23aef1" fill-rule="evenodd" d="M78 63h1v1h-1z"/><path fill="#27e0fb" fill-rule="evenodd" d="M49 64h1v1h-1zm6 0h2v1h-2zm7 1h1v1h-1zm2 0h1v1h-1zm-16 1h1v1h-1zm-1 3h1v1h-1zm-1 2h1v1h-1z"/><path fill="#26dffb" fill-rule="evenodd" d="M50 64h2v1h-2zm5 1h4v1h-4zm-6 1h1v1h-1zm-1 2h1v2h-1zm-1 3h1v1h-1zm-1 2h1v2h-1zm-1 3h1v1h-1z"/><path fill="#26e0fb" fill-rule="evenodd" d="M52 64h3v1h-3zm-3 1h1v1h-1zm10 0h3v1h-3zm-11 2h1v1h-1zm-1 3h1v1h-1zm-1 2h1v1h-1zm-1 2h1v2h-1z"/><path fill="#26e2fa" fill-rule="evenodd" d="M65 64h1v1h-1z"/><path fill="#23abf0" fill-rule="evenodd" d="M76 64h1v1h-1z"/><path fill="#22adf0" fill-rule="evenodd" d="M78 64h1v1h-1z"/><path fill="#26defb" fill-rule="evenodd" d="M50 65h1v1h-1zm3 0h2v1h-2zm7 1h2v1h-2zm-11 1h1v1h-1zm-1 3h1v1h-1zm-1 2h1v1h-1z"/><path fill="#26ddfb" fill-rule="evenodd" d="M51 65h2v1h-2zm8 1h1v1h-1zm-10 2h1v1h-1z"/><path fill="#27dffa" fill-rule="evenodd" d="M63 65h1v1h-1z"/><path fill="#23a9f1" fill-rule="evenodd" d="M75 65h1v1h-1z"/><path fill="#23abf1" fill-rule="evenodd" d="M76 65h1v3h-1z"/><path fill="#d0fcfb" fill-rule="evenodd" d="M16 66h1v1h-1z"/><path fill="#26ddfa" fill-rule="evenodd" d="M50 66h1v1h-1zm8 0h1v1h-1zm-11 7h1v1h-1zm-1 2h1v1h-1z"/><path fill="#26dafa" fill-rule="evenodd" d="M51 66h2v1h-2zm7 1h2v1h-2zm-8 1h1v1h-1zm-1 3h1v1h-1zm-1 2h1v1h-1z"/><path fill="#26dbfa" fill-rule="evenodd" d="M53 66h2v1h-2zm-3 1h1v1h-1zm-1 3h1v1h-1zm-1 2h1v1h-1z"/><path fill="#26dcfa" fill-rule="evenodd" d="M55 66h3v1h-3zm-6 3h1v1h-1zm-1 2h1v1h-1zm-1 3h1v1h-1z"/><path fill="#25defb" fill-rule="evenodd" d="M62 66h1v1h-1z"/><path fill="#22a7f2" fill-rule="evenodd" d="M73 66h1v11h-1z"/><path fill="#23a8f2" fill-rule="evenodd" d="M74 66h1v7h-1z"/><path fill="#23aaf2" fill-rule="evenodd" d="M75 66h1v4h-1z"/><path fill="#d7fdfb" fill-rule="evenodd" d="M15 67h1v1h-1z"/><path fill="#26d9f9" fill-rule="evenodd" d="M51 67h1v1h-1zm4 0h1v1h-1z"/><path fill="#26d7f9" fill-rule="evenodd" d="M52 67h1v1h-1zm0 1v1h-1v-1zm6 0h2v1h-2zm-8 3h1v1h-1zm-1 2h1v1h-1z"/><path fill="#26d8f9" fill-rule="evenodd" d="M53 67h2v1h-2zm-3 3h1v1h-1zm-1 2h1v1h-1z"/><path fill="#26d9fa" fill-rule="evenodd" d="M56 67h2v1h-2zm-6 2h1v1h-1z"/><path fill="#26daf9" fill-rule="evenodd" d="M60 67h1v1h-1z"/><path fill="#22a6f1" fill-rule="evenodd" d="M72 67h1v1h-1zm0 16h1v1h-1z"/><path fill="#26d5f8" fill-rule="evenodd" d="M52 68h1v1h-1z"/><path fill="#26d5f9" fill-rule="evenodd" d="M53 68h2v1h-2zm-2 2h1v1h-1z"/><path fill="#26d6f9" fill-rule="evenodd" d="M55 68h3v1h-3zm-4 1h1v1h-1zm-1 3h1v1h-1z"/><path fill="#22a4f2" fill-rule="evenodd" d="M71 68h1v1h-1z"/><path fill="#22a6f2" fill-rule="evenodd" d="M72 68h1v10h1v1h-1v4h-1zm0 17h1v1h-1zm0 2h1v2h-1zm0 5h1v6h-1z"/><path fill="#22abf0" fill-rule="evenodd" d="M76 68h1v1h-1z"/><path fill="#26d3f8" fill-rule="evenodd" d="M52 69h1v1h-1zm3 0h2v1h-2zm-4 3h1v1h-1z"/><path fill="#26d2f8" fill-rule="evenodd" d="M53 69h2v1h-2zm0 1v1h-1v-1zm4-1h1v1h-1z"/><path fill="#22a2f2" fill-rule="evenodd" d="M69 69h1v1h-1z"/><path fill="#22a3f3" fill-rule="evenodd" d="M70 69h1v31h-1z"/><path fill="#22a4f3" fill-rule="evenodd" d="M71 69h1v30h-1z"/><path fill="#26d0f7" fill-rule="evenodd" d="M53 70h1v1h-1z"/><path fill="#26cff7" fill-rule="evenodd" d="M54 70h1v1h-1z"/><path fill="#26d0f6" fill-rule="evenodd" d="M55 70h1v1h-1zm-3 2h1v1h-1z"/><path fill="#229ff3" fill-rule="evenodd" d="M68 70h1v1h-1zm0 29h1v1h-1z"/><path fill="#22a2f3" fill-rule="evenodd" d="M69 70h1v29h-1z"/><path fill="#22aaf2" fill-rule="evenodd" d="M75 70h1v1h-1z"/><path fill="#dafcfc" fill-rule="evenodd" d="M13 71h1v1h-1z"/><path fill="#26d4f8" fill-rule="evenodd" d="M51 71h1v1h-1z"/><path fill="#26d1f8" fill-rule="evenodd" d="M52 71h1v1h-1z"/><path fill="#26cdf6" fill-rule="evenodd" d="M53 71h1v1h-1z"/><path fill="#26ccf5" fill-rule="evenodd" d="M54 71h1v1h-1z"/><path fill="#209df4" fill-rule="evenodd" d="M66 71h1v1h-1z"/><path fill="#219ef3" fill-rule="evenodd" d="M67 71h1v1h-1z"/><path fill="#22a0f4" fill-rule="evenodd" d="M68 71h1v28h-1z"/><path fill="#22aaf1" fill-rule="evenodd" d="M75 71h1v1h-1z"/><path fill="#209cf4" fill-rule="evenodd" d="M65 72h1v1h-1zm0 25h1v1h-1z"/><path fill="#219ef4" fill-rule="evenodd" d="M66 72h1v26h-1z"/><path fill="#219ff4" fill-rule="evenodd" d="M67 72h1v27h-1z"/><path fill="#dbfcfb" fill-rule="evenodd" d="M12 73h1v1h-1z"/><path fill="#25d5f7" fill-rule="evenodd" d="M50 73h1v1h-1z"/><path fill="#2199f5" fill-rule="evenodd" d="M63 73h1v1h-1z"/><path fill="#219af4" fill-rule="evenodd" d="M64 73h1v1h-1z"/><path fill="#219cf5" fill-rule="evenodd" d="M65 73h1v24h-1z"/><path fill="#22a8f2" fill-rule="evenodd" d="M74 73h1v1h-1z"/><path fill="#e2fcfc" fill-rule="evenodd" d="M11 74h1v1h-1z"/><path fill="#26d8fa" fill-rule="evenodd" d="M48 74h1v1h-1z"/><path fill="#2097f6" fill-rule="evenodd" d="M62 74h1v1h-1z"/><path fill="#219af5" fill-rule="evenodd" d="M63 74h1v22h-1z"/><path fill="#219bf5" fill-rule="evenodd" d="M64 74h1v22h-1z"/><path fill="#23a8f1" fill-rule="evenodd" d="M74 74h1v1h-1z"/><path fill="#2095f5" fill-rule="evenodd" d="M60 75h1v1h-1z"/><path fill="#2197f6" fill-rule="evenodd" d="M61 75h1v19h-1zm1 20h1v1h-1z"/><path fill="#2198f6" fill-rule="evenodd" d="M62 75h1v20h-1z"/><path fill="#e3fcfb" fill-rule="evenodd" d="M10 76h1v1h-1z"/><path fill="#26e0fa" fill-rule="evenodd" d="M44 76h1v1h-1z"/><path fill="#1f93f7" fill-rule="evenodd" d="M58 76h1v1h-1z"/><path fill="#1f93f5" fill-rule="evenodd" d="M59 76h1v1h-1z"/><path fill="#2096f6" fill-rule="evenodd" d="M60 76h1v18h-1z"/><path fill="#e9fdfb" fill-rule="evenodd" d="M9 77h1v1h-1z"/><path fill="#27e1fa" fill-rule="evenodd" d="M42 77h1v1h-1z"/><path fill="#26e1fb" fill-rule="evenodd" d="M43 77h1v1h-1z"/><path fill="#1f91f7" fill-rule="evenodd" d="M57 77h1v1h-1z"/><path fill="#2093f7" fill-rule="evenodd" d="M58 77h1v16h-1z"/><path fill="#2094f6" fill-rule="evenodd" d="M59 77h1v16h-1z"/><path fill="#21a6f1" fill-rule="evenodd" d="M73 77h1v1h-1zm0 2h1v1h-1zm-1 10h1v2h-1zm1 7h1v1h-1z"/><path fill="#effdfc" fill-rule="evenodd" d="M8 78h1v1h-1z"/><path fill="#e5fefc" fill-rule="evenodd" d="M9 78h1v1h-1z"/><path fill="#208ef8" fill-rule="evenodd" d="M55 78h1v1h-1zm0 13h1v1h-1z"/><path fill="#2090f7" fill-rule="evenodd" d="M56 78h1v14h-1z"/><path fill="#2092f7" fill-rule="evenodd" d="M57 78h1v14h-1z"/><path fill="#effbf5" fill-rule="evenodd" d="M7 79h1v1h-1z"/><path fill="#28e6fb" fill-rule="evenodd" d="M38 79h1v1h-1z"/><path fill="#1e8bf7" fill-rule="evenodd" d="M53 79h1v1h-1z"/><path fill="#1f8ef8" fill-rule="evenodd" d="M54 79h1v12h-1z"/><path fill="#208ff8" fill-rule="evenodd" d="M55 79h1v12h-1z"/><path fill="#f1f9ec" fill-rule="evenodd" d="M6 80h1v1h-1z"/><path fill="#2ae9fb" fill-rule="evenodd" d="M36 80h1v1h-1z"/><path fill="#1e89f8" fill-rule="evenodd" d="M51 80h1v1h-1z"/><path fill="#1f8bf9" fill-rule="evenodd" d="M52 80h1v10h-1z"/><path fill="#1f8cf8" fill-rule="evenodd" d="M53 80h1v10h-1z"/><path fill="#f0f8e3" fill-rule="evenodd" d="M5 81h1v1h-1z"/><path fill="#2aeafc" fill-rule="evenodd" d="M34 81h1v1h-1z"/><path fill="#1e86fa" fill-rule="evenodd" d="M49 81h1v1h-1z"/><path fill="#1f88f9" fill-rule="evenodd" d="M50 81h1v8h-1z"/><path fill="#1f8af9" fill-rule="evenodd" d="M51 81h1v9h-1z"/><path fill="#f0f6db" fill-rule="evenodd" d="M4 82h1v1h-1z"/><path fill="#2dedfc" fill-rule="evenodd" d="M31 82h1v1h-1z"/><path fill="#2bedfd" fill-rule="evenodd" d="M32 82h1v1h-1z"/><path fill="#1e84fa" fill-rule="evenodd" d="M47 82h1v6h-1z"/><path fill="#1f86fa" fill-rule="evenodd" d="M48 82h1v7h-1z"/><path fill="#1f87fa" fill-rule="evenodd" d="M49 82h1v8h-1z"/><path fill="#f1f3d3" fill-rule="evenodd" d="M3 83h1v1h-1z"/><path fill="#2df0fc" fill-rule="evenodd" d="M29 83h1v1h-1z"/><path fill="#1d80fb" fill-rule="evenodd" d="M44 83h1v1h-1z"/><path fill="#1d82fa" fill-rule="evenodd" d="M45 83h1v1h-1z"/><path fill="#1e83fa" fill-rule="evenodd" d="M46 83h1v5h-1z"/><path fill="#1e7dfc" fill-rule="evenodd" d="M42 84h1v4h-1z"/><path fill="#1e7ffb" fill-rule="evenodd" d="M43 84h1v4h-1z"/><path fill="#1e80fb" fill-rule="evenodd" d="M44 84h1v4h-1z"/><path fill="#1e82fb" fill-rule="evenodd" d="M45 84h1v4h-1z"/><path fill="#21a6f2" fill-rule="evenodd" d="M72 84h1v1h-1z"/><path fill="#34f5fd" fill-rule="evenodd" d="M24 85h1v1h-1z"/><path fill="#30f4fd" fill-rule="evenodd" d="M25 85h1v1h-1z"/><path fill="#1c78fd" fill-rule="evenodd" d="M39 85h1v1h-1z"/><path fill="#1c7afb" fill-rule="evenodd" d="M40 85h1v1h-1z"/><path fill="#1e7cfc" fill-rule="evenodd" d="M41 85h1v2h-1z"/><path fill="#f2f4d7" fill-rule="evenodd" d="M2 86h1v1h-1z"/><path fill="#f1f8e5" fill-rule="evenodd" d="M3 86h1v1h-1z"/><path fill="#4df5fd" fill-rule="evenodd" d="M21 86h1v1h-1z"/><path fill="#44f6fd" fill-rule="evenodd" d="M22 86h1v1h-1z"/><path fill="#1d76fc" fill-rule="evenodd" d="M37 86h1v1h-1z"/><path fill="#1d78fd" fill-rule="evenodd" d="M38 86h1v1h-1z"/><path fill="#1d79fd" fill-rule="evenodd" d="M39 86h1v1h-1z"/><path fill="#1d7bfc" fill-rule="evenodd" d="M40 86h1v1h-1z"/><path fill="#21a5f1" fill-rule="evenodd" d="M72 86h1v1h-1z"/><path fill="#f0f7dc" fill-rule="evenodd" d="M2 87h1v1h-1z"/><path fill="#5ef7fd" fill-rule="evenodd" d="M19 87h1v1h-1z"/><path fill="#1b72fd" fill-rule="evenodd" d="M34 87h1v1h-1z"/><path fill="#1d73fd" fill-rule="evenodd" d="M35 87h1v1h-1z"/><path fill="#1c75fd" fill-rule="evenodd" d="M36 87h1v1h-1z"/><path fill="#1c76fd" fill-rule="evenodd" d="M37 87h1v1h-1z"/><path fill="#1c78fc" fill-rule="evenodd" d="M38 87h1v1h-1z"/><path fill="#1d78fc" fill-rule="evenodd" d="M39 87h1v1h-1z"/><path fill="#1c7bfb" fill-rule="evenodd" d="M40 87h1v1h-1z"/><path fill="#1e7cfb" fill-rule="evenodd" d="M41 87h1v1h-1z"/><path fill="#f1f7e2" fill-rule="evenodd" d="M2 88h1v1h-1z"/><path fill="#77f8fc" fill-rule="evenodd" d="M16 88h1v1h-1z"/><path fill="#6cf7fd" fill-rule="evenodd" d="M17 88h1v1h-1z"/><path fill="#1e81fb" fill-rule="evenodd" d="M45 88h1v1h-1z"/><path fill="#1d82f9" fill-rule="evenodd" d="M46 88h1v1h-1z"/><path fill="#1d84f9" fill-rule="evenodd" d="M47 88h1v1h-1z"/><path fill="#91f9fc" fill-rule="evenodd" d="M13 89h1v1h-1z"/><path fill="#87f8fd" fill-rule="evenodd" d="M14 89h1v1h-1z"/><path fill="#1f87f9" fill-rule="evenodd" d="M50 89h1v1h-1z"/><path fill="#abfbfc" fill-rule="evenodd" d="M10 90h1v1h-1z"/><path fill="#a0f9fd" fill-rule="evenodd" d="M11 90h1v1h-1z"/><path fill="#1f8bf8" fill-rule="evenodd" d="M52 90h1v1h-1z"/><path fill="#1e8cf7" fill-rule="evenodd" d="M53 90h1v1h-1z"/><path fill="#d7fcfb" fill-rule="evenodd" d="M5 91h1v1h-1z"/><path fill="#cdfbfb" fill-rule="evenodd" d="M6 91h1v1h-1z"/><path fill="#22a5f1" fill-rule="evenodd" d="M72 91h1v1h-1z"/><path fill="#2092f6" fill-rule="evenodd" d="M57 92h1v1h-1z"/><path fill="#2093f6" fill-rule="evenodd" d="M59 93h1v1h-1z"/><path fill="#2095f6" fill-rule="evenodd" d="M60 94h1v1h-1z"/><path fill="#2197f5" fill-rule="evenodd" d="M61 94h1v1h-1z"/><path fill="#21a7f1" fill-rule="evenodd" d="M73 95h1v1h-1z"/><path fill="#209bf4" fill-rule="evenodd" d="M64 96h1v1h-1z"/><path fill="#209ef4" fill-rule="evenodd" d="M66 98h1v1h-1z"/><path fill="#22a5f2" fill-rule="evenodd" d="M72 98h1v1h-1z"/><path fill="#22a1f3" fill-rule="evenodd" d="M69 99h1v1h-1z"/><path fill="#21a3f3" fill-rule="evenodd" d="M71 99h1v1h-1z"/></svg>