<svg xmlns="http://www.w3.org/2000/svg" viewBox="0 0 100 100" width="1em" height="1em"><path fill="#2684ff" d="M48 0h48v1h-48zM48 1h51v1h-51zM48 2h52v1h-52zM48 3h51v1h-51zM49 4h51v1h-51zM48 5h52v1h-52zM49 6h51v1h-51zM49 7h51v1h-51zM50 8h50v1h-50zM51 9h49v1h-49zM51 10h49v1h-49zM52 11h48v1h-48zM52 12h48v1h-48zM53 13h47v1h-47zM54 14h46v1h-46zM55 15h45v1h-45zM56 16h44v1h-44zM58 17h42v1h-42zM59 18h41v1h-41zM61 19h39v1h-39zM64 20h36v1h-36zM69 21h9v1h-9zM79 21h21v1h-21zM79 22h21v1h-21zM79 23h21v1h-21zM24 24h9v1h-9zM79 24h21v1h-21zM24 25h10v1h-10zM79 25h21v1h-21zM25 26h10v1h-10zM79 26h21v1h-21zM25 27h12v1h-12zM79 27h21v1h-21zM24 28h14v1h-14zM79 28h21v1h-21zM25 29h14v1h-14zM79 29h21v1h-21zM25 30h15v1h-15zM78 30h22v1h-22zM26 31h15v1h-15zM79 31h21v1h-21zM26 32h16v1h-16zM79 32h21v1h-21zM27 33h16v1h-16zM79 33h21v1h-21zM27 34h17v1h-17zM79 34h21v1h-21zM27 35h18v1h-18zM79 35h21v1h-21zM29 36h17v1h-17zM80 36h20v1h-20zM29 37h18v1h-18zM80 37h20v1h-20zM30 38h18v1h-18zM81 38h19v1h-19zM31 39h18v1h-18zM81 39h19v1h-19zM31 40h1v1h-1zM33 40h17v1h-17zM82 40h18v1h-18zM34 41h17v1h-17zM82 41h18v1h-18zM36 42h16v1h-16zM82 42h18v1h-18zM36 43h17v1h-17zM84 43h16v1h-16zM39 44h15v1h-15zM84 44h16v1h-16zM46 45h8v1h-8zM85 45h15v1h-15zM55 46h1v1h-1zM86 46h14v1h-14zM55 47h2v1h-2zM88 47h12v1h-12zM1 48h6v1h-6zM55 48h3v1h-3zM89 48h11v1h-11zM1 49h7v1h-7zM55 49h4v1h-4zM91 49h9v1h-9zM1 50h8v1h-8zM55 50h6v1h-6zM93 50h7v1h-7zM1 51h9v1h-9zM55 51h7v1h-7zM99 51h1v1h-1zM1 52h10v1h-10zM55 52h8v1h-8zM1 53h11v1h-11zM55 53h9v1h-9zM2 54h11v1h-11zM55 54h10v1h-10zM2 55h12v1h-12zM55 55h11v1h-11zM2 56h13v1h-13zM55 56h12v1h-12zM3 57h13v1h-13zM55 57h13v1h-13zM3 58h14v1h-14zM55 58h14v1h-14zM4 59h14v1h-14zM56 59h14v1h-14zM5 60h14v1h-14zM55 60h16v1h-16zM6 61h14v1h-14zM56 61h16v1h-16zM6 62h15v1h-15zM57 62h16v1h-16zM8 63h14v1h-14zM57 63h17v1h-17zM9 64h14v1h-14zM58 64h17v1h-17zM9 65h15v1h-15zM58 65h18v1h-18zM12 66h13v1h-13zM59 66h17v1h-17zM12 67h1v1h-1zM14 67h12v1h-12zM60 67h16v1h-16zM15 68h1v1h-1zM17 68h10v1h-10zM61 68h15v1h-15zM20 69h1v1h-1zM22 69h6v1h-6zM62 69h14v1h-14zM62 70h14v1h-14zM63 71h13v1h-13zM65 72h11v1h-11zM31 73h1v1h-1zM67 73h9v1h-9zM31 74h2v1h-2zM69 74h7v1h-7zM31 75h3v1h-3zM31 76h4v1h-4zM31 77h5v1h-5zM31 78h6v1h-6zM31 79h6v1h-6zM31 80h7v1h-7zM31 81h8v1h-8zM32 82h8v1h-8zM31 83h10v1h-10zM32 84h10v1h-10zM33 85h10v1h-10zM33 86h11v1h-11zM33 87h12v1h-12zM34 88h12v1h-12zM34 89h13v1h-13zM35 90h13v1h-13zM35 91h14v1h-14zM37 92h13v1h-13zM38 93h13v1h-13zM39 94h13v1h-13zM40 95h12v1h-12zM42 96h10v1h-10zM44 97h8v1h-8zM46 98h6v1h-6z" /><path fill="#2584ff" d="M96 0h1v1h-1zM49 8h1v1h-1zM50 9h1v1h-1zM50 10h1v1h-1zM57 17h1v1h-1zM63 20h1v1h-1zM67 21h1v1h-1zM24 26h1v1h-1zM25 31h1v1h-1zM78 31h1v1h-1zM29 38h1v1h-1zM30 39h1v1h-1zM80 39h1v1h-1zM33 41h1v1h-1zM81 41h1v1h-1zM34 42h1v1h-1zM44 45h2v1h-2zM95 51h1v1h-1zM54 55h1v1h-1zM2 57h1v1h-1zM3 59h1v1h-1zM55 59h1v1h-1zM56 62h1v1h-1zM8 64h1v1h-1zM11 66h1v1h-1zM60 68h1v1h-1zM61 69h1v1h-1zM33 88h1v1h-1zM34 90h1v1h-1zM36 92h1v1h-1zM41 96h1v1h-1zM43 97h1v1h-1zM51 99h1v1h-1z" /><path fill="#2683ff" d="M97 0h1v1h-1zM99 3h1v1h-1zM54 15h1v1h-1zM55 16h1v1h-1zM60 19h1v1h-1zM66 21h1v1h-1zM78 32h1v1h-1zM28 36h1v1h-1zM79 36h1v1h-1zM80 38h1v1h-1zM32 40h1v1h-1zM81 40h1v1h-1zM35 42h1v1h-1zM43 45h1v1h-1zM54 45h1v1h-1zM0 48h1v1h-1zM88 48h1v1h-1zM90 49h1v1h-1zM97 51h2v1h-2zM0 52h1v1h-1zM54 54h1v1h-1zM4 60h1v1h-1zM5 61h1v1h-1zM7 63h1v1h-1zM57 64h1v1h-1zM58 66h1v1h-1zM16 68h1v1h-1zM19 69h1v1h-1zM21 69h1v1h-1zM64 72h1v1h-1zM66 73h1v1h-1zM68 74h1v1h-1zM72 75h2v1h-2zM75 75h1v1h-1zM31 82h1v1h-1zM32 85h1v1h-1zM38 94h1v1h-1zM45 98h1v1h-1zM48 99h2v1h-2z" /><path fill="#2583ff" d="M48 4h1v1h-1zM51 11h1v1h-1zM52 13h1v1h-1zM53 14h1v1h-1zM58 18h1v1h-1zM62 20h1v1h-1zM68 21h1v1h-1zM78 21h1v1h-1zM78 22h1v1h-1zM78 23h1v1h-1zM78 24h1v1h-1zM78 25h1v1h-1zM78 26h1v1h-1zM24 27h1v1h-1zM78 27h1v1h-1zM78 28h1v1h-1zM78 29h1v1h-1zM26 33h1v1h-1zM83 43h1v1h-1zM38 44h1v1h-1zM54 46h1v1h-1zM54 47h1v1h-1zM87 47h1v1h-1zM54 48h1v1h-1zM0 49h1v1h-1zM54 49h1v1h-1zM0 50h1v1h-1zM54 50h1v1h-1zM92 50h1v1h-1zM0 51h1v1h-1zM54 51h1v1h-1zM96 51h1v1h-1zM54 52h1v1h-1zM54 53h1v1h-1zM1 54h1v1h-1zM1 55h1v1h-1zM13 67h1v1h-1zM59 67h1v1h-1zM74 75h1v1h-1zM32 86h1v1h-1zM37 93h1v1h-1zM39 95h1v1h-1zM42 97h1v1h-1zM50 99h1v1h-1z" /><path fill="#2683fe" d="M33 24h1v1h-1zM34 25h1v1h-1zM35 26h1v1h-1zM57 47h1v1h-1zM58 48h1v1h-1zM59 49h1v1h-1zM37 79h1v1h-1zM38 80h1v1h-1zM39 81h1v1h-1zM40 82h1v1h-1zM41 83h1v1h-1zM42 84h1v1h-1zM43 85h1v1h-1zM44 86h1v1h-1z" /><path fill="#2482fd" d="M34 24h1v1h-1zM35 25h1v1h-1zM52 41h1v1h-1zM53 42h1v1h-1zM54 43h1v1h-1zM55 44h1v1h-1zM56 45h1v1h-1zM57 46h1v1h-1zM58 47h1v1h-1zM59 48h1v1h-1zM46 87h1v1h-1zM47 88h1v1h-1zM48 89h1v1h-1zM49 90h1v1h-1zM50 91h1v1h-1zM51 92h1v1h-1z" /><path fill="#2380fb" d="M35 24h1v1h-1zM45 33h1v1h-1zM46 34h1v1h-1zM47 35h1v1h-1zM48 36h1v1h-1zM49 37h1v1h-1zM50 38h1v1h-1zM51 39h1v1h-1zM52 40h1v1h-1zM53 41h1v1h-1zM54 42h1v1h-1zM55 43h1v1h-1zM56 44h1v1h-1zM57 45h1v1h-1zM58 46h1v1h-1zM59 47h1v1h-1zM9 48h1v1h-1zM10 49h1v1h-1zM11 50h1v1h-1zM12 51h1v1h-1zM13 52h1v1h-1zM14 53h1v1h-1zM15 54h1v1h-1zM16 55h1v1h-1zM17 56h1v1h-1zM69 56h1v1h-1zM18 57h1v1h-1zM70 57h1v1h-1zM19 58h1v1h-1zM71 58h1v1h-1zM20 59h1v1h-1zM72 59h1v1h-1zM21 60h1v1h-1zM73 60h1v1h-1zM22 61h1v1h-1zM74 61h1v1h-1zM23 62h1v1h-1zM75 62h1v1h-1zM24 63h1v1h-1zM25 64h1v1h-1zM26 65h1v1h-1zM27 66h1v1h-1zM28 67h1v1h-1zM29 68h1v1h-1zM31 70h1v1h-1zM32 71h1v1h-1zM33 72h1v1h-1zM34 73h1v1h-1zM35 74h1v1h-1zM36 75h1v1h-1zM37 76h1v1h-1zM38 77h1v1h-1z" /><path fill="#227ffa" d="M36 24h1v1h-1zM37 25h1v1h-1zM38 26h1v1h-1zM39 27h1v1h-1zM40 28h1v1h-1zM41 29h1v1h-1zM53 40h1v1h-1zM54 41h1v1h-1zM55 42h1v1h-1zM56 43h1v1h-1zM57 44h1v1h-1zM58 45h1v1h-1zM59 46h1v1h-1zM60 47h1v1h-1zM10 48h1v1h-1zM61 48h1v1h-1zM11 49h1v1h-1zM62 49h1v1h-1zM12 50h1v1h-1zM63 50h1v1h-1zM13 51h1v1h-1zM64 51h1v1h-1zM14 52h1v1h-1zM65 52h1v1h-1zM15 53h1v1h-1zM16 54h1v1h-1zM17 55h1v1h-1zM18 56h1v1h-1zM19 57h1v1h-1zM20 58h1v1h-1zM21 59h1v1h-1zM22 60h1v1h-1zM23 61h1v1h-1zM48 87h1v1h-1zM49 88h1v1h-1zM50 89h1v1h-1zM51 90h1v1h-1z" /><path fill="#217ef9" d="M37 24h1v1h-1zM38 25h1v1h-1zM39 26h1v1h-1zM40 27h1v1h-1zM41 28h1v1h-1zM42 29h1v1h-1zM43 30h1v1h-1zM44 31h1v1h-1zM61 47h1v1h-1zM62 48h1v1h-1zM63 49h1v1h-1zM64 50h1v1h-1zM65 51h1v1h-1zM66 52h1v1h-1zM67 53h1v1h-1zM68 54h1v1h-1zM49 87h1v1h-1zM50 88h1v1h-1zM51 89h1v1h-1z" /><path fill="#207cf7" d="M38 24h1v1h-1zM39 25h1v1h-1zM40 26h1v1h-1zM41 27h1v1h-1zM42 28h1v1h-1zM54 39h1v1h-1zM55 40h1v1h-1zM56 41h1v1h-1zM57 42h1v1h-1zM58 43h1v1h-1zM59 44h1v1h-1zM60 45h1v1h-1zM61 46h1v1h-1zM62 47h1v1h-1zM12 48h1v1h-1zM63 48h1v1h-1zM13 49h1v1h-1zM64 49h1v1h-1zM14 50h1v1h-1zM65 50h1v1h-1zM15 51h1v1h-1zM66 51h1v1h-1zM16 52h1v1h-1zM17 53h1v1h-1zM18 54h1v1h-1zM19 55h1v1h-1zM20 56h1v1h-1zM21 57h1v1h-1zM22 58h1v1h-1zM23 59h1v1h-1zM24 60h1v1h-1zM25 61h1v1h-1zM26 62h1v1h-1zM27 63h1v1h-1zM28 64h1v1h-1zM29 65h1v1h-1zM30 66h1v1h-1zM31 67h1v1h-1zM32 68h1v1h-1zM33 69h1v1h-1zM34 70h1v1h-1zM35 71h1v1h-1zM36 72h1v1h-1zM37 73h1v1h-1zM38 74h1v1h-1zM39 75h1v1h-1z" /><path fill="#1f7bf6" d="M39 24h1v1h-1zM40 25h1v1h-1zM41 26h1v1h-1zM42 27h1v1h-1zM43 28h1v1h-1zM44 29h1v1h-1zM45 30h1v1h-1zM46 31h1v1h-1zM47 32h1v1h-1zM48 33h1v1h-1zM49 34h1v1h-1zM50 35h1v1h-1zM62 46h1v1h-1zM63 47h1v1h-1zM13 48h1v1h-1zM64 48h1v1h-1zM14 49h1v1h-1zM65 49h1v1h-1zM15 50h1v1h-1zM66 50h1v1h-1zM16 51h1v1h-1zM67 51h1v1h-1zM17 52h1v1h-1zM68 52h1v1h-1zM18 53h1v1h-1zM69 53h1v1h-1zM19 54h1v1h-1zM70 54h1v1h-1zM20 55h1v1h-1zM71 55h1v1h-1zM21 56h1v1h-1zM72 56h1v1h-1zM22 57h1v1h-1zM73 57h1v1h-1zM23 58h1v1h-1zM74 58h1v1h-1zM24 59h1v1h-1zM25 60h1v1h-1zM51 87h1v1h-1z" /><path fill="#1e79f4" d="M40 24h1v1h-1zM41 25h1v1h-1zM42 26h1v1h-1zM56 39h1v1h-1zM57 40h1v1h-1zM58 41h1v1h-1zM59 42h1v1h-1zM60 43h1v1h-1zM61 44h1v1h-1zM62 45h1v1h-1zM63 46h1v1h-1zM64 47h1v1h-1zM65 48h1v1h-1zM66 49h1v1h-1zM21 55h1v1h-1zM22 56h1v1h-1zM23 57h1v1h-1zM24 58h1v1h-1zM25 59h1v1h-1zM26 60h1v1h-1zM27 61h1v1h-1zM28 62h1v1h-1zM29 63h1v1h-1zM30 64h1v1h-1zM31 65h1v1h-1zM32 66h1v1h-1zM33 67h1v1h-1zM34 68h1v1h-1zM35 69h1v1h-1zM36 70h1v1h-1zM37 71h1v1h-1zM38 72h1v1h-1zM39 73h1v1h-1zM40 74h1v1h-1zM41 75h1v1h-1zM42 76h1v1h-1zM43 77h1v1h-1zM44 78h1v1h-1zM45 79h1v1h-1zM46 80h1v1h-1zM47 81h1v1h-1zM48 82h1v1h-1zM49 83h1v1h-1zM50 84h1v1h-1zM51 85h1v1h-1z" /><path fill="#1d78f3" d="M41 24h1v1h-1zM42 25h1v1h-1zM43 26h1v1h-1zM44 27h1v1h-1zM45 28h1v1h-1zM46 29h1v1h-1zM47 30h1v1h-1zM48 31h1v1h-1zM49 32h1v1h-1zM50 33h1v1h-1zM63 45h1v1h-1zM64 46h1v1h-1zM65 47h1v1h-1zM15 48h1v1h-1zM66 48h1v1h-1zM16 49h1v1h-1zM67 49h1v1h-1zM17 50h1v1h-1zM68 50h1v1h-1zM18 51h1v1h-1zM69 51h1v1h-1zM19 52h1v1h-1zM70 52h1v1h-1zM20 53h1v1h-1zM71 53h1v1h-1zM21 54h1v1h-1zM72 54h1v1h-1zM22 55h1v1h-1zM73 55h1v1h-1zM23 56h1v1h-1zM74 56h1v1h-1zM24 57h1v1h-1zM25 58h1v1h-1zM26 59h1v1h-1zM27 60h1v1h-1zM28 61h1v1h-1zM29 62h1v1h-1zM30 63h1v1h-1zM31 64h1v1h-1zM32 65h1v1h-1zM33 66h1v1h-1zM34 67h1v1h-1zM35 68h1v1h-1zM36 69h1v1h-1zM37 70h1v1h-1zM38 71h1v1h-1zM39 72h1v1h-1zM40 73h1v1h-1zM41 74h1v1h-1z" /><path fill="#1c76f1" d="M42 24h1v1h-1zM62 43h1v1h-1zM63 44h1v1h-1zM64 45h1v1h-1zM65 46h1v1h-1zM66 47h1v1h-1zM40 72h1v1h-1zM41 73h1v1h-1zM42 74h1v1h-1zM43 75h1v1h-1zM44 76h1v1h-1zM45 77h1v1h-1zM46 78h1v1h-1zM47 79h1v1h-1zM48 80h1v1h-1zM49 81h1v1h-1zM50 82h1v1h-1zM51 83h1v1h-1z" /><path fill="#1b75f0" d="M43 24h1v1h-1zM44 25h1v1h-1zM45 26h1v1h-1zM46 27h1v1h-1zM47 28h1v1h-1zM48 29h1v1h-1zM49 30h1v1h-1zM50 31h1v1h-1zM65 45h1v1h-1zM66 46h1v1h-1zM67 47h1v1h-1zM68 48h1v1h-1zM69 49h1v1h-1zM70 50h1v1h-1zM71 51h1v1h-1zM72 52h1v1h-1zM73 53h1v1h-1zM74 54h1v1h-1zM26 57h1v1h-1zM27 58h1v1h-1zM28 59h1v1h-1zM29 60h1v1h-1zM30 61h1v1h-1zM31 62h1v1h-1zM32 63h1v1h-1zM33 64h1v1h-1zM34 65h1v1h-1zM35 66h1v1h-1zM36 67h1v1h-1zM37 68h1v1h-1zM38 69h1v1h-1zM39 70h1v1h-1zM40 71h1v1h-1zM41 72h1v1h-1zM42 73h1v1h-1zM43 74h1v1h-1zM44 75h1v1h-1zM45 76h1v1h-1zM46 77h1v1h-1zM47 78h1v1h-1zM48 79h1v1h-1zM49 80h1v1h-1zM50 81h1v1h-1zM51 82h1v1h-1z" /><path fill="#1a74ee" d="M44 24h1v1h-1zM45 25h1v1h-1zM46 26h1v1h-1zM47 27h1v1h-1zM68 47h1v1h-1zM69 48h1v1h-1zM70 49h1v1h-1zM71 50h1v1h-1zM44 74h1v1h-1zM45 75h1v1h-1zM46 76h1v1h-1zM47 77h1v1h-1zM48 78h1v1h-1zM49 79h1v1h-1zM50 80h1v1h-1zM51 81h1v1h-1z" /><path fill="#1872ed" d="M45 24h1v1h-1zM46 25h1v1h-1zM65 43h1v1h-1zM66 44h1v1h-1zM67 45h1v1h-1zM68 46h1v1h-1zM69 47h1v1h-1zM70 48h1v1h-1z" /><path fill="#1771eb" d="M46 24h1v1h-1zM47 25h1v1h-1zM48 26h1v1h-1zM67 44h1v1h-1zM68 45h1v1h-1zM69 46h1v1h-1zM70 47h1v1h-1zM71 48h1v1h-1zM72 49h1v1h-1z" /><path fill="#166fea" d="M47 24h1v1h-1zM48 25h1v1h-1zM49 26h1v1h-1zM50 27h1v1h-1zM66 42h1v1h-1zM67 43h1v1h-1zM68 44h1v1h-1zM69 45h1v1h-1zM70 46h1v1h-1zM71 47h1v1h-1zM22 48h1v1h-1zM72 48h1v1h-1zM23 49h1v1h-1zM73 49h1v1h-1zM24 50h1v1h-1zM74 50h1v1h-1zM25 51h1v1h-1zM26 52h1v1h-1zM27 53h1v1h-1zM28 54h1v1h-1zM29 55h1v1h-1zM30 56h1v1h-1z" /><path fill="#156ee8" d="M48 24h1v1h-1zM49 25h1v1h-1zM67 42h1v1h-1zM68 43h1v1h-1zM69 44h1v1h-1zM70 45h1v1h-1zM71 46h1v1h-1zM72 47h1v1h-1zM23 48h1v1h-1zM73 48h1v1h-1zM24 49h1v1h-1zM25 50h1v1h-1zM26 51h1v1h-1zM27 52h1v1h-1zM28 53h1v1h-1zM29 54h1v1h-1zM30 55h1v1h-1zM31 56h1v1h-1zM32 57h1v1h-1zM33 58h1v1h-1zM34 59h1v1h-1zM35 60h1v1h-1zM36 61h1v1h-1z" /><path fill="#146ce7" d="M49 24h1v1h-1zM50 25h1v1h-1zM66 40h1v1h-1zM67 41h1v1h-1zM68 42h1v1h-1zM69 43h1v1h-1zM70 44h1v1h-1zM71 45h1v1h-1zM72 46h1v1h-1zM73 47h1v1h-1zM24 48h1v1h-1zM74 48h1v1h-1zM25 49h1v1h-1zM26 50h1v1h-1zM27 51h1v1h-1zM28 52h1v1h-1zM29 53h1v1h-1zM30 54h1v1h-1zM31 55h1v1h-1zM32 56h1v1h-1zM33 57h1v1h-1zM34 58h1v1h-1zM35 59h1v1h-1zM36 60h1v1h-1zM37 61h1v1h-1zM38 62h1v1h-1zM39 63h1v1h-1zM40 64h1v1h-1zM41 65h1v1h-1zM42 66h1v1h-1zM43 67h1v1h-1zM44 68h1v1h-1zM45 69h1v1h-1zM46 70h1v1h-1zM47 71h1v1h-1z" /><path fill="#136be5" d="M50 24h1v1h-1zM67 40h1v1h-1zM68 41h1v1h-1zM69 42h1v1h-1zM70 43h1v1h-1zM71 44h1v1h-1zM72 45h1v1h-1zM73 46h1v1h-1zM74 47h1v1h-1zM33 56h1v1h-1zM34 57h1v1h-1zM35 58h1v1h-1zM36 59h1v1h-1zM37 60h1v1h-1zM38 61h1v1h-1zM39 62h1v1h-1zM40 63h1v1h-1zM41 64h1v1h-1zM42 65h1v1h-1zM43 66h1v1h-1zM44 67h1v1h-1zM45 68h1v1h-1zM46 69h1v1h-1zM47 70h1v1h-1zM48 71h1v1h-1zM49 72h1v1h-1zM50 73h1v1h-1zM51 74h1v1h-1z" /><path fill="#126ae4" d="M51 24h1v1h-1zM52 25h1v1h-1zM53 26h1v1h-1zM54 27h1v1h-1zM55 28h1v1h-1zM56 29h1v1h-1zM57 30h1v1h-1zM58 31h1v1h-1zM75 47h1v1h-1zM26 48h1v1h-1zM27 49h1v1h-1zM28 50h1v1h-1zM29 51h1v1h-1zM30 52h1v1h-1zM31 53h1v1h-1zM32 54h1v1h-1zM33 55h1v1h-1zM34 56h1v1h-1zM35 57h1v1h-1zM36 58h1v1h-1zM37 59h1v1h-1zM38 60h1v1h-1zM39 61h1v1h-1zM40 62h1v1h-1zM41 63h1v1h-1zM42 64h1v1h-1z" /><path fill="#1168e3" d="M52 24h1v1h-1zM53 25h1v1h-1zM54 26h1v1h-1zM55 27h1v1h-1zM56 28h1v1h-1zM57 29h1v1h-1zM58 30h1v1h-1zM75 46h1v1h-1zM29 50h1v1h-1zM30 51h1v1h-1zM31 52h1v1h-1zM32 53h1v1h-1zM33 54h1v1h-1zM34 55h1v1h-1zM35 56h1v1h-1zM36 57h1v1h-1zM37 58h1v1h-1zM38 59h1v1h-1zM39 60h1v1h-1zM40 61h1v1h-1zM41 62h1v1h-1zM42 63h1v1h-1zM43 64h1v1h-1zM44 65h1v1h-1zM45 66h1v1h-1zM46 67h1v1h-1zM47 68h1v1h-1zM48 69h1v1h-1zM49 70h1v1h-1z" /><path fill="#1067e1" d="M53 24h1v1h-1zM54 25h1v1h-1zM55 26h1v1h-1zM56 27h1v1h-1zM57 28h1v1h-1zM58 29h1v1h-1zM59 30h1v1h-1zM74 44h1v1h-1zM75 45h1v1h-1zM35 55h1v1h-1zM36 56h1v1h-1zM37 57h1v1h-1zM38 58h1v1h-1zM39 59h1v1h-1zM40 60h1v1h-1zM41 61h1v1h-1zM42 62h1v1h-1zM43 63h1v1h-1zM44 64h1v1h-1zM45 65h1v1h-1zM46 66h1v1h-1zM47 67h1v1h-1zM48 68h1v1h-1zM49 69h1v1h-1zM50 70h1v1h-1zM51 71h1v1h-1z" /><path fill="#0f65e0" d="M54 24h1v1h-1zM55 25h1v1h-1zM56 26h1v1h-1zM57 27h1v1h-1zM48 67h1v1h-1zM49 68h1v1h-1zM50 69h1v1h-1zM51 70h1v1h-1z" /><path fill="#0e64de" d="M55 24h1v1h-1zM56 25h1v1h-1zM57 26h1v1h-1zM58 27h1v1h-1zM59 28h1v1h-1zM60 29h1v1h-1zM51 69h1v1h-1z" /><path fill="#0c62dd" d="M56 24h1v1h-1z" /><path fill="#0b61db" d="M57 24h1v1h-1zM58 25h1v1h-1zM59 26h1v1h-1zM74 40h1v1h-1zM75 41h1v1h-1zM33 48h1v1h-1zM34 49h1v1h-1zM35 50h1v1h-1zM36 51h1v1h-1zM37 52h1v1h-1zM38 53h1v1h-1zM39 54h1v1h-1z" /><path fill="#0a60da" d="M58 24h1v1h-1zM59 25h1v1h-1zM60 26h1v1h-1zM61 27h1v1h-1zM62 28h1v1h-1z" /><path fill="#095ed8" d="M59 24h1v1h-1zM60 25h1v1h-1zM61 26h1v1h-1zM74 38h1v1h-1zM75 39h1v1h-1zM35 48h1v1h-1zM36 49h1v1h-1zM37 50h1v1h-1zM38 51h1v1h-1zM39 52h1v1h-1zM40 53h1v1h-1zM41 54h1v1h-1zM42 55h1v1h-1zM43 56h1v1h-1zM44 57h1v1h-1zM45 58h1v1h-1zM46 59h1v1h-1zM47 60h1v1h-1zM48 61h1v1h-1zM49 62h1v1h-1zM50 63h1v1h-1zM51 64h1v1h-1z" /><path fill="#085dd7" d="M60 24h1v1h-1zM61 25h1v1h-1zM62 26h1v1h-1zM63 27h1v1h-1zM64 28h1v1h-1zM65 29h1v1h-1zM66 30h1v1h-1zM67 31h1v1h-1zM68 32h1v1h-1zM36 48h1v1h-1zM37 49h1v1h-1zM38 50h1v1h-1zM39 51h1v1h-1zM40 52h1v1h-1zM41 53h1v1h-1zM42 54h1v1h-1zM43 55h1v1h-1zM44 56h1v1h-1z" /><path fill="#075bd5" d="M61 24h1v1h-1zM62 25h1v1h-1zM75 37h1v1h-1zM40 51h1v1h-1zM41 52h1v1h-1zM42 53h1v1h-1zM43 54h1v1h-1zM44 55h1v1h-1zM45 56h1v1h-1zM46 57h1v1h-1zM47 58h1v1h-1zM48 59h1v1h-1zM49 60h1v1h-1zM50 61h1v1h-1zM51 62h1v1h-1z" /><path fill="#065ad4" d="M62 24h1v1h-1zM63 25h1v1h-1zM64 26h1v1h-1zM65 27h1v1h-1zM66 28h1v1h-1zM67 29h1v1h-1zM68 30h1v1h-1zM69 31h1v1h-1zM70 32h1v1h-1zM38 48h1v1h-1zM39 49h1v1h-1zM40 50h1v1h-1zM41 51h1v1h-1zM42 52h1v1h-1zM43 53h1v1h-1zM44 54h1v1h-1zM45 55h1v1h-1zM46 56h1v1h-1zM47 57h1v1h-1zM48 58h1v1h-1zM49 59h1v1h-1zM50 60h1v1h-1zM51 61h1v1h-1z" /><path fill="#0558d2" d="M63 24h1v1h-1z" /><path fill="#0457d1" d="M64 24h1v1h-1zM65 25h1v1h-1zM66 26h1v1h-1zM67 27h1v1h-1zM68 28h1v1h-1zM69 29h1v1h-1zM70 30h1v1h-1zM71 31h1v1h-1zM42 50h1v1h-1zM43 51h1v1h-1zM44 52h1v1h-1zM45 53h1v1h-1zM46 54h1v1h-1zM47 55h1v1h-1zM48 56h1v1h-1zM49 57h1v1h-1zM50 58h1v1h-1zM51 59h1v1h-1z" /><path fill="#0355d0" d="M65 24h1v1h-1z" /><path fill="#0254ce" d="M66 24h1v1h-1zM67 25h1v1h-1zM68 26h1v1h-1zM69 27h1v1h-1zM70 28h1v1h-1zM71 29h1v1h-1zM72 30h1v1h-1z" /><path fill="#0053cd" d="M67 24h1v1h-1z" /><path fill="#0052cc" d="M68 24h4v1h-4zM69 25h5v1h-5zM70 26h6v1h-6zM71 27h5v1h-5zM72 28h4v1h-4zM73 29h3v1h-3zM74 30h2v1h-2zM75 31h1v1h-1zM44 48h5v1h-5zM45 49h5v1h-5zM46 50h6v1h-6zM47 51h5v1h-5zM48 52h4v1h-4zM49 53h3v1h-3zM50 54h2v1h-2zM51 55h1v1h-1z" /><path fill="#0051cb" d="M72 24h2v1h-2zM74 25h1v1h-1zM50 49h1v1h-1z" /><path fill="#2381fb" d="M36 25h1v1h-1zM60 48h1v1h-1z" /><path fill="#1c77f1" d="M43 25h1v1h-1zM44 26h1v1h-1zM45 27h1v1h-1zM46 28h1v1h-1zM67 48h1v1h-1zM68 49h1v1h-1zM69 50h1v1h-1zM70 51h1v1h-1zM27 59h1v1h-1zM28 60h1v1h-1zM29 61h1v1h-1zM30 62h1v1h-1zM31 63h1v1h-1zM32 64h1v1h-1zM33 65h1v1h-1zM34 66h1v1h-1zM35 67h1v1h-1zM36 68h1v1h-1zM37 69h1v1h-1zM38 70h1v1h-1zM39 71h1v1h-1z" /><path fill="#136be6" d="M51 25h1v1h-1zM52 26h1v1h-1zM53 27h1v1h-1zM54 28h1v1h-1zM55 29h1v1h-1zM56 30h1v1h-1zM57 31h1v1h-1zM58 32h1v1h-1zM25 48h1v1h-1zM75 48h1v1h-1zM26 49h1v1h-1zM27 50h1v1h-1zM28 51h1v1h-1zM29 52h1v1h-1zM30 53h1v1h-1zM31 54h1v1h-1zM32 55h1v1h-1z" /><path fill="#0d62dd" d="M57 25h1v1h-1z" /><path fill="#0558d3" d="M64 25h1v1h-1zM65 26h1v1h-1zM51 60h1v1h-1z" /><path fill="#0356d0" d="M66 25h1v1h-1zM67 26h1v1h-1zM68 27h1v1h-1zM69 28h1v1h-1zM70 29h1v1h-1zM71 30h1v1h-1zM72 31h1v1h-1zM73 32h1v1h-1zM74 33h1v1h-1zM75 34h1v1h-1zM41 48h1v1h-1zM42 49h1v1h-1zM43 50h1v1h-1zM44 51h1v1h-1zM45 52h1v1h-1zM46 53h1v1h-1zM47 54h1v1h-1zM48 55h1v1h-1zM49 56h1v1h-1zM50 57h1v1h-1zM51 58h1v1h-1z" /><path fill="#0153cd" d="M68 25h1v1h-1zM69 26h1v1h-1zM70 27h1v1h-1zM71 28h1v1h-1zM72 29h1v1h-1zM73 30h1v1h-1zM74 31h1v1h-1zM75 32h1v1h-1zM44 49h1v1h-1zM45 50h1v1h-1zM46 51h1v1h-1zM47 52h1v1h-1zM48 53h1v1h-1zM49 54h1v1h-1zM50 55h1v1h-1zM51 56h1v1h-1z" /><path fill="#2582fd" d="M36 26h1v1h-1zM37 27h1v1h-1zM38 28h1v1h-1zM39 29h1v1h-1zM40 30h1v1h-1zM41 31h1v1h-1zM42 32h1v1h-1zM43 33h1v1h-1zM60 49h1v1h-1zM61 50h1v1h-1zM62 51h1v1h-1zM63 52h1v1h-1zM64 53h1v1h-1zM65 54h1v1h-1zM66 55h1v1h-1zM67 56h1v1h-1zM23 64h1v1h-1zM24 65h1v1h-1zM25 66h1v1h-1zM26 67h1v1h-1zM27 68h1v1h-1zM31 72h1v1h-1zM32 73h1v1h-1zM33 74h1v1h-1zM34 75h1v1h-1zM35 76h1v1h-1zM36 77h1v1h-1zM37 78h1v1h-1zM38 79h1v1h-1zM39 80h1v1h-1zM40 81h1v1h-1zM41 82h1v1h-1zM42 83h1v1h-1zM43 84h1v1h-1zM44 85h1v1h-1zM45 86h1v1h-1z" /><path fill="#2381fc" d="M37 26h1v1h-1zM38 27h1v1h-1zM61 49h1v1h-1zM62 50h1v1h-1zM29 69h1v1h-1zM47 87h1v1h-1zM48 88h1v1h-1zM49 89h1v1h-1zM50 90h1v1h-1zM51 91h1v1h-1z" /><path fill="#1972ed" d="M47 26h1v1h-1zM48 27h1v1h-1zM49 28h1v1h-1zM50 29h1v1h-1zM71 49h1v1h-1zM72 50h1v1h-1zM73 51h1v1h-1zM74 52h1v1h-1zM45 74h1v1h-1zM46 75h1v1h-1zM47 76h1v1h-1zM48 77h1v1h-1zM49 78h1v1h-1zM50 79h1v1h-1zM51 80h1v1h-1z" /><path fill="#156ee9" d="M50 26h1v1h-1zM51 27h1v1h-1zM52 28h1v1h-1zM53 29h1v1h-1zM54 30h1v1h-1zM74 49h1v1h-1zM75 50h1v1h-1z" /><path fill="#146de7" d="M51 26h1v1h-1zM52 27h1v1h-1zM53 28h1v1h-1zM54 29h1v1h-1zM55 30h1v1h-1zM56 31h1v1h-1zM57 32h1v1h-1zM75 49h1v1h-1z" /><path fill="#0d63dd" d="M58 26h1v1h-1zM59 27h1v1h-1zM60 28h1v1h-1zM61 29h1v1h-1zM62 30h1v1h-1zM63 31h1v1h-1zM64 32h1v1h-1zM65 33h1v1h-1zM66 34h1v1h-1zM67 35h1v1h-1zM68 36h1v1h-1zM37 54h1v1h-1zM38 55h1v1h-1zM39 56h1v1h-1zM40 57h1v1h-1zM41 58h1v1h-1zM42 59h1v1h-1zM43 60h1v1h-1zM44 61h1v1h-1zM45 62h1v1h-1zM46 63h1v1h-1zM47 64h1v1h-1zM48 65h1v1h-1zM49 66h1v1h-1zM50 67h1v1h-1zM51 68h1v1h-1z" /><path fill="#075bd6" d="M63 26h1v1h-1zM64 27h1v1h-1zM65 28h1v1h-1zM37 48h1v1h-1zM38 49h1v1h-1zM39 50h1v1h-1z" /><path fill="#1e7af4" d="M43 27h1v1h-1zM44 28h1v1h-1zM45 29h1v1h-1zM46 30h1v1h-1zM14 48h1v1h-1zM15 49h1v1h-1zM16 50h1v1h-1zM67 50h1v1h-1zM17 51h1v1h-1zM68 51h1v1h-1zM18 52h1v1h-1zM69 52h1v1h-1zM19 53h1v1h-1zM70 53h1v1h-1zM20 54h1v1h-1z" /><path fill="#1771ec" d="M49 27h1v1h-1zM73 50h1v1h-1z" /><path fill="#0c61db" d="M60 27h1v1h-1z" /><path fill="#095ed9" d="M62 27h1v1h-1zM63 28h1v1h-1zM64 29h1v1h-1zM65 30h1v1h-1z" /><path fill="#0559d3" d="M66 27h1v1h-1zM67 28h1v1h-1zM68 29h1v1h-1zM69 30h1v1h-1zM70 31h1v1h-1zM71 32h1v1h-1zM72 33h1v1h-1zM73 34h1v1h-1zM74 35h1v1h-1zM75 36h1v1h-1zM39 48h1v1h-1zM40 49h1v1h-1zM41 50h1v1h-1zM42 51h1v1h-1zM43 52h1v1h-1zM44 53h1v1h-1zM45 54h1v1h-1zM46 55h1v1h-1zM47 56h1v1h-1zM48 57h1v1h-1zM49 58h1v1h-1zM50 59h1v1h-1z" /><path fill="#2481fc" d="M39 28h1v1h-1zM40 29h1v1h-1zM41 30h1v1h-1zM42 31h1v1h-1zM43 32h1v1h-1zM44 33h1v1h-1zM45 34h1v1h-1zM46 35h1v1h-1zM47 36h1v1h-1zM48 37h1v1h-1zM49 38h1v1h-1zM50 39h1v1h-1zM51 40h1v1h-1zM10 50h1v1h-1zM11 51h1v1h-1zM63 51h1v1h-1zM12 52h1v1h-1zM64 52h1v1h-1zM13 53h1v1h-1zM65 53h1v1h-1zM14 54h1v1h-1zM66 54h1v1h-1zM15 55h1v1h-1zM67 55h1v1h-1zM16 56h1v1h-1zM68 56h1v1h-1zM17 57h1v1h-1zM69 57h1v1h-1zM18 58h1v1h-1zM70 58h1v1h-1zM19 59h1v1h-1zM71 59h1v1h-1zM20 60h1v1h-1zM72 60h1v1h-1zM21 61h1v1h-1zM73 61h1v1h-1zM22 62h1v1h-1zM74 62h1v1h-1zM23 63h1v1h-1zM75 63h1v1h-1zM24 64h1v1h-1zM25 65h1v1h-1zM26 66h1v1h-1zM27 67h1v1h-1zM28 68h1v1h-1zM31 71h1v1h-1zM32 72h1v1h-1zM33 73h1v1h-1zM34 74h1v1h-1zM35 75h1v1h-1zM36 76h1v1h-1zM37 77h1v1h-1zM38 78h1v1h-1zM39 79h1v1h-1zM40 80h1v1h-1zM41 81h1v1h-1zM42 82h1v1h-1zM43 83h1v1h-1zM44 84h1v1h-1zM45 85h1v1h-1zM46 86h1v1h-1z" /><path fill="#1a74ef" d="M48 28h1v1h-1zM49 29h1v1h-1zM50 30h1v1h-1zM51 31h1v1h-1zM52 32h1v1h-1zM53 33h1v1h-1zM54 34h1v1h-1zM55 35h1v1h-1zM56 36h1v1h-1zM57 37h1v1h-1zM58 38h1v1h-1zM18 48h1v1h-1zM19 49h1v1h-1zM20 50h1v1h-1zM21 51h1v1h-1zM72 51h1v1h-1zM22 52h1v1h-1zM73 52h1v1h-1zM23 53h1v1h-1zM74 53h1v1h-1zM24 54h1v1h-1zM75 54h1v1h-1zM25 55h1v1h-1zM26 56h1v1h-1zM27 57h1v1h-1zM28 58h1v1h-1zM29 59h1v1h-1zM30 60h1v1h-1zM31 61h1v1h-1zM32 62h1v1h-1zM33 63h1v1h-1zM34 64h1v1h-1zM35 65h1v1h-1zM36 66h1v1h-1zM37 67h1v1h-1zM38 68h1v1h-1zM39 69h1v1h-1zM40 70h1v1h-1zM41 71h1v1h-1zM42 72h1v1h-1zM43 73h1v1h-1z" /><path fill="#1871ec" d="M50 28h1v1h-1zM51 29h1v1h-1zM52 30h1v1h-1zM53 31h1v1h-1zM54 32h1v1h-1zM55 33h1v1h-1zM56 34h1v1h-1zM57 35h1v1h-1zM58 36h1v1h-1zM74 51h1v1h-1zM75 52h1v1h-1zM32 60h1v1h-1zM33 61h1v1h-1zM34 62h1v1h-1zM35 63h1v1h-1zM36 64h1v1h-1zM37 65h1v1h-1zM38 66h1v1h-1zM39 67h1v1h-1zM40 68h1v1h-1zM41 69h1v1h-1zM42 70h1v1h-1zM43 71h1v1h-1zM44 72h1v1h-1zM45 73h1v1h-1zM46 74h1v1h-1zM47 75h1v1h-1zM48 76h1v1h-1zM49 77h1v1h-1zM50 78h1v1h-1zM51 79h1v1h-1z" /><path fill="#1670ea" d="M51 28h1v1h-1zM52 29h1v1h-1zM75 51h1v1h-1z" /><path fill="#0f66e0" d="M58 28h1v1h-1zM59 29h1v1h-1zM60 30h1v1h-1zM61 31h1v1h-1zM62 32h1v1h-1zM63 33h1v1h-1zM64 34h1v1h-1zM65 35h1v1h-1zM66 36h1v1h-1zM67 37h1v1h-1zM29 48h1v1h-1zM30 49h1v1h-1zM31 50h1v1h-1zM32 51h1v1h-1zM33 52h1v1h-1zM34 53h1v1h-1zM35 54h1v1h-1zM36 55h1v1h-1zM37 56h1v1h-1zM38 57h1v1h-1zM39 58h1v1h-1zM40 59h1v1h-1zM41 60h1v1h-1zM42 61h1v1h-1zM43 62h1v1h-1zM44 63h1v1h-1zM45 64h1v1h-1zM46 65h1v1h-1zM47 66h1v1h-1z" /><path fill="#0c61dc" d="M61 28h1v1h-1zM62 29h1v1h-1zM63 30h1v1h-1zM64 31h1v1h-1zM65 32h1v1h-1z" /><path fill="#207df7" d="M43 29h1v1h-1zM44 30h1v1h-1zM45 31h1v1h-1zM67 52h1v1h-1zM68 53h1v1h-1zM69 54h1v1h-1z" /><path fill="#1c77f2" d="M47 29h1v1h-1zM48 30h1v1h-1zM49 31h1v1h-1zM50 32h1v1h-1zM51 33h1v1h-1zM52 34h1v1h-1zM53 35h1v1h-1zM54 36h1v1h-1zM55 37h1v1h-1zM56 38h1v1h-1zM57 39h1v1h-1zM58 40h1v1h-1zM16 48h1v1h-1zM17 49h1v1h-1zM18 50h1v1h-1zM19 51h1v1h-1zM20 52h1v1h-1zM71 52h1v1h-1zM21 53h1v1h-1zM72 53h1v1h-1zM22 54h1v1h-1zM73 54h1v1h-1zM23 55h1v1h-1zM74 55h1v1h-1zM24 56h1v1h-1zM75 56h1v1h-1zM25 57h1v1h-1zM26 58h1v1h-1z" /><path fill="#0b60da" d="M63 29h1v1h-1zM64 30h1v1h-1zM65 31h1v1h-1zM66 32h1v1h-1zM67 33h1v1h-1zM68 34h1v1h-1zM69 35h1v1h-1z" /><path fill="#075cd6" d="M66 29h1v1h-1zM67 30h1v1h-1zM68 31h1v1h-1zM69 32h1v1h-1zM70 33h1v1h-1zM71 34h1v1h-1z" /><path fill="#237ffa" d="M42 30h1v1h-1zM43 31h1v1h-1zM66 53h1v1h-1zM67 54h1v1h-1zM43 82h1v1h-1zM44 83h1v1h-1zM45 84h1v1h-1zM46 85h1v1h-1zM47 86h1v1h-1z" /><path fill="#1973ed" d="M51 30h1v1h-1zM52 31h1v1h-1zM53 32h1v1h-1zM54 33h1v1h-1zM55 34h1v1h-1zM75 53h1v1h-1zM29 58h1v1h-1zM30 59h1v1h-1zM31 60h1v1h-1zM32 61h1v1h-1zM33 62h1v1h-1zM34 63h1v1h-1zM35 64h1v1h-1zM36 65h1v1h-1zM37 66h1v1h-1zM38 67h1v1h-1zM39 68h1v1h-1zM40 69h1v1h-1zM41 70h1v1h-1zM42 71h1v1h-1zM43 72h1v1h-1zM44 73h1v1h-1z" /><path fill="#1770ea" d="M53 30h1v1h-1zM54 31h1v1h-1zM55 32h1v1h-1zM56 33h1v1h-1zM46 73h1v1h-1zM47 74h1v1h-1zM48 75h1v1h-1zM49 76h1v1h-1zM50 77h1v1h-1zM51 78h1v1h-1z" /><path fill="#0e64df" d="M61 30h1v1h-1zM62 31h1v1h-1zM63 32h1v1h-1zM64 33h1v1h-1zM65 34h1v1h-1zM34 52h1v1h-1zM35 53h1v1h-1zM36 54h1v1h-1zM37 55h1v1h-1zM38 56h1v1h-1zM39 57h1v1h-1zM40 58h1v1h-1zM41 59h1v1h-1zM42 60h1v1h-1zM43 61h1v1h-1zM44 62h1v1h-1zM45 63h1v1h-1zM46 64h1v1h-1zM47 65h1v1h-1zM48 66h1v1h-1zM49 67h1v1h-1zM50 68h1v1h-1z" /><path fill="#1e7af5" d="M47 31h1v1h-1zM48 32h1v1h-1zM49 33h1v1h-1zM50 34h1v1h-1zM51 35h1v1h-1zM52 36h1v1h-1zM71 54h1v1h-1zM72 55h1v1h-1zM73 56h1v1h-1zM74 57h1v1h-1zM75 58h1v1h-1z" /><path fill="#166ee9" d="M55 31h1v1h-1zM56 32h1v1h-1zM57 33h1v1h-1zM58 34h1v1h-1zM51 77h1v1h-1z" /><path fill="#1169e3" d="M59 31h1v1h-1zM60 32h1v1h-1zM61 33h1v1h-1zM62 34h1v1h-1zM63 35h1v1h-1zM64 36h1v1h-1zM65 37h1v1h-1zM66 38h1v1h-1zM27 48h1v1h-1zM28 49h1v1h-1z" /><path fill="#1067e2" d="M60 31h1v1h-1zM61 32h1v1h-1zM62 33h1v1h-1zM63 34h1v1h-1zM64 35h1v1h-1zM65 36h1v1h-1zM66 37h1v1h-1zM28 48h1v1h-1zM29 49h1v1h-1zM30 50h1v1h-1zM31 51h1v1h-1zM32 52h1v1h-1zM33 53h1v1h-1zM34 54h1v1h-1z" /><path fill="#0a5fd9" d="M66 31h1v1h-1zM67 32h1v1h-1zM68 33h1v1h-1zM69 34h1v1h-1zM70 35h1v1h-1zM71 36h1v1h-1zM72 37h1v1h-1zM73 38h1v1h-1zM74 39h1v1h-1zM75 40h1v1h-1zM38 52h1v1h-1zM39 53h1v1h-1zM40 54h1v1h-1zM41 55h1v1h-1zM42 56h1v1h-1zM43 57h1v1h-1zM44 58h1v1h-1zM45 59h1v1h-1zM46 60h1v1h-1zM47 61h1v1h-1zM48 62h1v1h-1zM49 63h1v1h-1zM50 64h1v1h-1zM51 65h1v1h-1z" /><path fill="#0254cf" d="M73 31h1v1h-1z" /><path fill="#2380fa" d="M44 32h1v1h-1zM68 55h1v1h-1zM39 78h1v1h-1zM40 79h1v1h-1zM41 80h1v1h-1zM42 81h1v1h-1z" /><path fill="#227ef9" d="M45 32h1v1h-1zM46 33h1v1h-1zM47 34h1v1h-1zM48 35h1v1h-1zM49 36h1v1h-1zM50 37h1v1h-1zM69 55h1v1h-1zM70 56h1v1h-1zM71 57h1v1h-1zM72 58h1v1h-1zM73 59h1v1h-1zM74 60h1v1h-1zM29 67h1v1h-1zM30 68h1v1h-1zM31 69h1v1h-1zM32 70h1v1h-1zM33 71h1v1h-1zM34 72h1v1h-1zM35 73h1v1h-1zM36 74h1v1h-1zM37 75h1v1h-1zM38 76h1v1h-1zM39 77h1v1h-1zM40 78h1v1h-1zM41 79h1v1h-1zM42 80h1v1h-1zM43 81h1v1h-1zM44 82h1v1h-1zM45 83h1v1h-1zM46 84h1v1h-1zM47 85h1v1h-1zM48 86h1v1h-1z" /><path fill="#207df8" d="M46 32h1v1h-1zM47 33h1v1h-1zM70 55h1v1h-1zM71 56h1v1h-1zM50 87h1v1h-1zM51 88h1v1h-1z" /><path fill="#1b76f0" d="M51 32h1v1h-1zM52 33h1v1h-1zM53 34h1v1h-1zM54 35h1v1h-1zM55 36h1v1h-1zM17 48h1v1h-1zM18 49h1v1h-1zM19 50h1v1h-1zM20 51h1v1h-1zM21 52h1v1h-1zM22 53h1v1h-1zM23 54h1v1h-1zM24 55h1v1h-1zM75 55h1v1h-1zM25 56h1v1h-1z" /><path fill="#126ae5" d="M59 32h1v1h-1zM60 33h1v1h-1zM61 34h1v1h-1zM62 35h1v1h-1zM63 36h1v1h-1z" /><path fill="#0457d2" d="M72 32h1v1h-1zM73 33h1v1h-1zM40 48h1v1h-1zM41 49h1v1h-1z" /><path fill="#0255cf" d="M74 32h1v1h-1zM75 33h1v1h-1zM42 48h1v1h-1zM43 49h1v1h-1zM44 50h1v1h-1zM45 51h1v1h-1zM46 52h1v1h-1zM47 53h1v1h-1zM48 54h1v1h-1zM49 55h1v1h-1zM50 56h1v1h-1zM51 57h1v1h-1z" /><path fill="#156de8" d="M58 33h1v1h-1zM59 34h1v1h-1zM60 35h1v1h-1zM61 36h1v1h-1zM62 37h1v1h-1zM63 38h1v1h-1zM64 39h1v1h-1zM65 40h1v1h-1zM66 41h1v1h-1zM37 62h1v1h-1zM38 63h1v1h-1zM39 64h1v1h-1zM40 65h1v1h-1zM41 66h1v1h-1zM42 67h1v1h-1zM43 68h1v1h-1zM44 69h1v1h-1zM45 70h1v1h-1zM46 71h1v1h-1zM47 72h1v1h-1zM48 73h1v1h-1zM49 74h1v1h-1zM50 75h1v1h-1zM51 76h1v1h-1z" /><path fill="#136ce6" d="M59 33h1v1h-1zM60 34h1v1h-1z" /><path fill="#0c62dc" d="M66 33h1v1h-1zM67 34h1v1h-1zM68 35h1v1h-1zM69 36h1v1h-1zM70 37h1v1h-1zM71 38h1v1h-1zM72 39h1v1h-1zM73 40h1v1h-1zM74 41h1v1h-1zM75 42h1v1h-1zM32 48h1v1h-1zM33 49h1v1h-1zM34 50h1v1h-1zM35 51h1v1h-1zM36 52h1v1h-1zM37 53h1v1h-1zM38 54h1v1h-1zM39 55h1v1h-1zM40 56h1v1h-1zM41 57h1v1h-1zM42 58h1v1h-1zM43 59h1v1h-1zM44 60h1v1h-1zM45 61h1v1h-1zM46 62h1v1h-1zM47 63h1v1h-1zM48 64h1v1h-1zM49 65h1v1h-1zM50 66h1v1h-1zM51 67h1v1h-1z" /><path fill="#095dd7" d="M69 33h1v1h-1z" /><path fill="#065ad5" d="M71 33h1v1h-1zM72 34h1v1h-1zM73 35h1v1h-1z" /><path fill="#2583fe" d="M44 34h1v1h-1zM45 35h1v1h-1zM46 36h1v1h-1zM47 37h1v1h-1zM48 38h1v1h-1zM49 39h1v1h-1zM50 40h1v1h-1zM51 41h1v1h-1zM52 42h1v1h-1zM53 43h1v1h-1zM54 44h1v1h-1zM55 45h1v1h-1zM56 46h1v1h-1zM7 48h1v1h-1zM8 49h1v1h-1zM9 50h1v1h-1zM10 51h1v1h-1zM11 52h1v1h-1zM12 53h1v1h-1zM13 54h1v1h-1zM14 55h1v1h-1zM15 56h1v1h-1zM16 57h1v1h-1zM68 57h1v1h-1zM17 58h1v1h-1zM69 58h1v1h-1zM18 59h1v1h-1zM70 59h1v1h-1zM19 60h1v1h-1zM71 60h1v1h-1zM20 61h1v1h-1zM72 61h1v1h-1zM21 62h1v1h-1zM73 62h1v1h-1zM74 63h1v1h-1zM75 64h1v1h-1zM45 87h1v1h-1zM46 88h1v1h-1zM47 89h1v1h-1zM48 90h1v1h-1zM49 91h1v1h-1zM50 92h1v1h-1zM51 93h1v1h-1z" /><path fill="#217df8" d="M48 34h1v1h-1zM49 35h1v1h-1zM50 36h1v1h-1zM51 37h1v1h-1zM52 38h1v1h-1zM53 39h1v1h-1zM54 40h1v1h-1zM55 41h1v1h-1zM56 42h1v1h-1zM57 43h1v1h-1zM58 44h1v1h-1zM15 52h1v1h-1zM16 53h1v1h-1zM17 54h1v1h-1zM18 55h1v1h-1zM19 56h1v1h-1zM20 57h1v1h-1zM72 57h1v1h-1zM21 58h1v1h-1zM73 58h1v1h-1zM22 59h1v1h-1zM74 59h1v1h-1zM23 60h1v1h-1zM75 60h1v1h-1zM24 61h1v1h-1zM25 62h1v1h-1zM26 63h1v1h-1zM27 64h1v1h-1zM28 65h1v1h-1zM29 66h1v1h-1zM30 67h1v1h-1zM31 68h1v1h-1zM32 69h1v1h-1zM33 70h1v1h-1zM34 71h1v1h-1zM35 72h1v1h-1zM36 73h1v1h-1zM37 74h1v1h-1zM38 75h1v1h-1zM39 76h1v1h-1zM40 77h1v1h-1zM41 78h1v1h-1zM42 79h1v1h-1zM43 80h1v1h-1zM44 81h1v1h-1zM45 82h1v1h-1zM46 83h1v1h-1zM47 84h1v1h-1zM48 85h1v1h-1zM49 86h1v1h-1z" /><path fill="#1d79f3" d="M51 34h1v1h-1zM52 35h1v1h-1zM53 36h1v1h-1zM54 37h1v1h-1zM75 57h1v1h-1z" /><path fill="#1770eb" d="M57 34h1v1h-1zM58 35h1v1h-1zM59 36h1v1h-1zM60 37h1v1h-1zM61 38h1v1h-1zM62 39h1v1h-1zM63 40h1v1h-1zM64 41h1v1h-1zM65 42h1v1h-1zM66 43h1v1h-1zM21 48h1v1h-1zM22 49h1v1h-1zM23 50h1v1h-1zM24 51h1v1h-1zM25 52h1v1h-1zM26 53h1v1h-1zM27 54h1v1h-1zM28 55h1v1h-1zM29 56h1v1h-1zM30 57h1v1h-1zM31 58h1v1h-1zM32 59h1v1h-1zM33 60h1v1h-1zM34 61h1v1h-1zM35 62h1v1h-1zM36 63h1v1h-1zM37 64h1v1h-1zM38 65h1v1h-1zM39 66h1v1h-1zM40 67h1v1h-1zM41 68h1v1h-1zM42 69h1v1h-1zM43 70h1v1h-1zM44 71h1v1h-1zM45 72h1v1h-1z" /><path fill="#095dd8" d="M70 34h1v1h-1zM71 35h1v1h-1zM72 36h1v1h-1zM73 37h1v1h-1z" /><path fill="#0458d2" d="M74 34h1v1h-1zM75 35h1v1h-1z" /><path fill="#1973ee" d="M56 35h1v1h-1zM57 36h1v1h-1zM58 37h1v1h-1zM59 38h1v1h-1zM60 39h1v1h-1zM61 40h1v1h-1zM62 41h1v1h-1zM63 42h1v1h-1zM64 43h1v1h-1zM65 44h1v1h-1zM66 45h1v1h-1zM19 48h1v1h-1zM20 49h1v1h-1zM21 50h1v1h-1zM22 51h1v1h-1zM23 52h1v1h-1zM24 53h1v1h-1zM25 54h1v1h-1zM26 55h1v1h-1zM27 56h1v1h-1zM28 57h1v1h-1z" /><path fill="#166fe9" d="M59 35h1v1h-1zM60 36h1v1h-1zM61 37h1v1h-1zM62 38h1v1h-1zM63 39h1v1h-1zM64 40h1v1h-1zM65 41h1v1h-1zM31 57h1v1h-1zM32 58h1v1h-1zM33 59h1v1h-1zM34 60h1v1h-1zM35 61h1v1h-1zM36 62h1v1h-1zM37 63h1v1h-1zM38 64h1v1h-1zM39 65h1v1h-1zM40 66h1v1h-1zM41 67h1v1h-1zM42 68h1v1h-1zM43 69h1v1h-1zM44 70h1v1h-1zM45 71h1v1h-1zM46 72h1v1h-1zM47 73h1v1h-1zM48 74h1v1h-1zM49 75h1v1h-1zM50 76h1v1h-1z" /><path fill="#146ce6" d="M61 35h1v1h-1zM62 36h1v1h-1zM63 37h1v1h-1zM64 38h1v1h-1zM65 39h1v1h-1zM48 72h1v1h-1zM49 73h1v1h-1zM50 74h1v1h-1zM51 75h1v1h-1z" /><path fill="#0e65df" d="M66 35h1v1h-1zM67 36h1v1h-1zM68 37h1v1h-1zM69 38h1v1h-1zM70 39h1v1h-1zM71 40h1v1h-1zM72 41h1v1h-1zM73 42h1v1h-1zM74 43h1v1h-1zM75 44h1v1h-1zM30 48h1v1h-1zM31 49h1v1h-1zM32 50h1v1h-1zM33 51h1v1h-1z" /><path fill="#085cd6" d="M72 35h1v1h-1zM73 36h1v1h-1zM74 37h1v1h-1zM75 38h1v1h-1z" /><path fill="#207cf6" d="M51 36h1v1h-1zM52 37h1v1h-1zM53 38h1v1h-1zM75 59h1v1h-1zM40 76h1v1h-1zM41 77h1v1h-1zM42 78h1v1h-1zM43 79h1v1h-1zM44 80h1v1h-1zM45 81h1v1h-1zM46 82h1v1h-1zM47 83h1v1h-1z" /><path fill="#0b60db" d="M70 36h1v1h-1zM71 37h1v1h-1zM72 38h1v1h-1zM73 39h1v1h-1zM40 55h1v1h-1zM41 56h1v1h-1zM42 57h1v1h-1zM43 58h1v1h-1zM44 59h1v1h-1zM45 60h1v1h-1zM46 61h1v1h-1zM47 62h1v1h-1zM48 63h1v1h-1zM49 64h1v1h-1zM50 65h1v1h-1zM51 66h1v1h-1z" /><path fill="#065bd5" d="M74 36h1v1h-1z" /><path fill="#1f7af5" d="M53 37h1v1h-1zM54 38h1v1h-1zM55 39h1v1h-1zM56 40h1v1h-1zM57 41h1v1h-1zM58 42h1v1h-1zM34 69h1v1h-1zM35 70h1v1h-1zM36 71h1v1h-1zM37 72h1v1h-1zM38 73h1v1h-1zM39 74h1v1h-1zM40 75h1v1h-1zM41 76h1v1h-1zM42 77h1v1h-1zM43 78h1v1h-1zM44 79h1v1h-1zM45 80h1v1h-1zM46 81h1v1h-1zM47 82h1v1h-1zM48 83h1v1h-1zM49 84h1v1h-1zM50 85h1v1h-1zM51 86h1v1h-1z" /><path fill="#1b76f1" d="M56 37h1v1h-1zM57 38h1v1h-1zM58 39h1v1h-1zM59 40h1v1h-1zM60 41h1v1h-1zM61 42h1v1h-1z" /><path fill="#1872ec" d="M59 37h1v1h-1zM60 38h1v1h-1zM61 39h1v1h-1zM62 40h1v1h-1zM63 41h1v1h-1zM64 42h1v1h-1zM20 48h1v1h-1zM21 49h1v1h-1zM22 50h1v1h-1zM23 51h1v1h-1zM24 52h1v1h-1zM25 53h1v1h-1zM26 54h1v1h-1zM27 55h1v1h-1zM28 56h1v1h-1zM29 57h1v1h-1zM30 58h1v1h-1zM31 59h1v1h-1z" /><path fill="#136ae5" d="M64 37h1v1h-1zM65 38h1v1h-1zM66 39h1v1h-1z" /><path fill="#0d63de" d="M69 37h1v1h-1zM70 38h1v1h-1zM71 39h1v1h-1zM72 40h1v1h-1zM73 41h1v1h-1zM31 48h1v1h-1zM32 49h1v1h-1zM33 50h1v1h-1zM34 51h1v1h-1zM35 52h1v1h-1zM36 53h1v1h-1z" /><path fill="#227ff9" d="M51 38h1v1h-1zM52 39h1v1h-1zM75 61h1v1h-1zM24 62h1v1h-1zM25 63h1v1h-1zM26 64h1v1h-1zM27 65h1v1h-1zM28 66h1v1h-1z" /><path fill="#1d79f4" d="M55 38h1v1h-1z" /><path fill="#1068e2" d="M67 38h1v1h-1zM68 39h1v1h-1zM69 40h1v1h-1z" /><path fill="#0f66e1" d="M68 38h1v1h-1zM69 39h1v1h-1zM70 40h1v1h-1zM71 41h1v1h-1zM72 42h1v1h-1z" /><path fill="#1a75ef" d="M59 39h1v1h-1zM60 40h1v1h-1zM61 41h1v1h-1zM62 42h1v1h-1zM63 43h1v1h-1z" /><path fill="#1269e4" d="M67 39h1v1h-1zM68 40h1v1h-1zM69 41h1v1h-1zM70 42h1v1h-1zM71 43h1v1h-1zM72 44h1v1h-1zM73 45h1v1h-1zM74 46h1v1h-1zM43 65h1v1h-1zM44 66h1v1h-1zM45 67h1v1h-1zM46 68h1v1h-1zM47 69h1v1h-1zM48 70h1v1h-1zM49 71h1v1h-1zM50 72h1v1h-1zM51 73h1v1h-1z" /><path fill="#1d78f2" d="M59 41h1v1h-1zM60 42h1v1h-1zM61 43h1v1h-1zM62 44h1v1h-1zM42 75h1v1h-1zM43 76h1v1h-1zM44 77h1v1h-1zM45 78h1v1h-1zM46 79h1v1h-1zM47 80h1v1h-1zM48 81h1v1h-1zM49 82h1v1h-1zM50 83h1v1h-1zM51 84h1v1h-1z" /><path fill="#1168e2" d="M70 41h1v1h-1zM71 42h1v1h-1zM72 43h1v1h-1zM73 44h1v1h-1zM74 45h1v1h-1zM50 71h1v1h-1zM51 72h1v1h-1z" /><path fill="#0d64de" d="M74 42h1v1h-1zM75 43h1v1h-1z" /><path fill="#1f7bf5" d="M59 43h1v1h-1zM60 44h1v1h-1zM61 45h1v1h-1zM26 61h1v1h-1zM27 62h1v1h-1zM28 63h1v1h-1zM29 64h1v1h-1zM30 65h1v1h-1zM31 66h1v1h-1zM32 67h1v1h-1zM33 68h1v1h-1z" /><path fill="#1066e1" d="M73 43h1v1h-1z" /><path fill="#1a75f0" d="M64 44h1v1h-1z" /><path fill="#217ef8" d="M59 45h1v1h-1zM60 46h1v1h-1zM11 48h1v1h-1zM12 49h1v1h-1zM13 50h1v1h-1zM14 51h1v1h-1z" /><path fill="#1974ee" d="M67 46h1v1h-1z" /><path fill="#2482fc" d="M8 48h1v1h-1zM9 49h1v1h-1z" /><path fill="#0a5fda" d="M34 48h1v1h-1zM35 49h1v1h-1zM36 50h1v1h-1zM37 51h1v1h-1z" /><path fill="#0153ce" d="M43 48h1v1h-1z" /><path fill="#0051cc" d="M49 48h1v1h-1z" /><path fill="#085cd7" d="M45 57h1v1h-1zM46 58h1v1h-1zM47 59h1v1h-1zM48 60h1v1h-1zM49 61h1v1h-1zM50 62h1v1h-1zM51 63h1v1h-1z" /><path fill="#2583fd" d="M22 63h1v1h-1z" /><path fill="#2481fd" d="M28 69h1v1h-1z" /><path fill="#227ffb" d="M30 69h1v1h-1z" /><path fill="#207bf6" d="M48 84h1v1h-1zM49 85h1v1h-1zM50 86h1v1h-1z" /></svg>