<svg xmlns="http://www.w3.org/2000/svg" viewBox="0 0 100 100" width="1em" height="1em"><path fill="#7e8c84" d="M14 0h1v1h-1z" /><path fill="#647872" d="M15 0h1v1h-1z" /><path fill="#5b706c" d="M16 0h1v1h-1z" /><path fill="#506965" d="M17 0h1v1h-1zM34 20h1v1h-1zM99 23h1v1h-1z" /><path fill="#4a6361" d="M18 0h3v1h-3zM80 0h1v1h-1zM18 4h2v1h-2zM99 26h1v1h-1zM34 32h1v1h-1zM95 77h1v1h-1zM87 98h1v1h-1z" /><path fill="#46625f" d="M21 0h1v1h-1zM34 37h1v1h-1zM67 68h1v1h-1zM95 78h1v1h-1z" /><path fill="#3d5a58" d="M22 0h21v1h-21zM55 0h24v1h-24zM17 4h1v1h-1zM35 15h7v1h-7zM57 15h8v1h-8zM18 99h64v1h-64z" /><path fill="#3b5857" d="M43 0h1v1h-1z" /><path fill="#2f4f4f" d="M44 0h10v1h-10zM13 1h74v1h-74zM11 2h78v1h-78zM9 3h82v1h-82zM8 4h9v1h-9zM84 4h8v1h-8zM7 5h5v1h-5zM87 5h6v1h-6zM6 6h5v1h-5zM89 6h5v1h-5zM5 7h4v1h-4zM91 7h4v1h-4zM4 8h4v1h-4zM92 8h4v1h-4zM3 9h4v1h-4zM93 9h4v1h-4zM3 10h4v1h-4zM93 10h4v1h-4zM2 11h4v1h-4zM94 11h4v1h-4zM2 12h3v1h-3zM95 12h3v1h-3zM1 13h4v1h-4zM95 13h4v1h-4zM1 14h4v1h-4zM95 14h4v1h-4zM1 15h4v1h-4zM95 15h4v1h-4zM1 16h3v1h-3zM35 16h7v1h-7zM56 16h10v1h-10zM96 16h3v1h-3zM1 17h3v1h-3zM35 17h7v1h-7zM55 17h12v1h-12zM96 17h3v1h-3zM1 18h3v1h-3zM35 18h7v1h-7zM54 18h14v1h-14zM96 18h3v1h-3zM1 19h3v1h-3zM35 19h7v1h-7zM53 19h6v1h-6zM65 19h4v1h-4zM96 19h3v1h-3zM1 20h3v1h-3zM35 20h7v1h-7zM52 20h7v1h-7zM67 20h3v1h-3zM96 20h3v1h-3zM1 21h3v1h-3zM35 21h7v1h-7zM51 21h8v1h-8zM69 21h2v1h-2zM96 21h3v1h-3zM1 22h3v1h-3zM35 22h7v1h-7zM51 22h8v1h-8zM96 22h3v1h-3zM1 23h3v1h-3zM35 23h7v1h-7zM51 23h8v1h-8zM96 23h3v1h-3zM1 24h3v1h-3zM35 24h7v1h-7zM51 24h8v1h-8zM96 24h3v1h-3zM1 25h3v1h-3zM35 25h7v1h-7zM51 25h8v1h-8zM96 25h3v1h-3zM1 26h3v1h-3zM35 26h7v1h-7zM51 26h8v1h-8zM96 26h3v1h-3zM1 27h3v1h-3zM35 27h7v1h-7zM51 27h9v1h-9zM96 27h3v1h-3zM1 28h3v1h-3zM35 28h7v1h-7zM51 28h10v1h-10zM96 28h3v1h-3zM1 29h3v1h-3zM35 29h7v1h-7zM52 29h10v1h-10zM96 29h3v1h-3zM1 30h3v1h-3zM35 30h7v1h-7zM53 30h10v1h-10zM96 30h3v1h-3zM1 31h3v1h-3zM35 31h7v1h-7zM54 31h10v1h-10zM96 31h3v1h-3zM1 32h3v1h-3zM35 32h7v1h-7zM55 32h10v1h-10zM96 32h3v1h-3zM1 33h3v1h-3zM35 33h7v1h-7zM56 33h10v1h-10zM96 33h3v1h-3zM1 34h3v1h-3zM35 34h7v1h-7zM57 34h10v1h-10zM96 34h3v1h-3zM1 35h3v1h-3zM35 35h7v1h-7zM58 35h10v1h-10zM96 35h3v1h-3zM1 36h3v1h-3zM18 36h7v1h-7zM35 36h7v1h-7zM59 36h10v1h-10zM96 36h3v1h-3zM1 37h3v1h-3zM18 37h7v1h-7zM35 37h7v1h-7zM60 37h10v1h-10zM96 37h3v1h-3zM1 38h3v1h-3zM18 38h7v1h-7zM35 38h7v1h-7zM61 38h10v1h-10zM96 38h3v1h-3zM1 39h3v1h-3zM18 39h7v1h-7zM35 39h7v1h-7zM62 39h9v1h-9zM96 39h3v1h-3zM1 40h3v1h-3zM18 40h7v1h-7zM35 40h7v1h-7zM63 40h8v1h-8zM96 40h3v1h-3zM1 41h3v1h-3zM18 41h7v1h-7zM35 41h7v1h-7zM64 41h7v1h-7zM96 41h3v1h-3zM1 42h3v1h-3zM18 42h7v1h-7zM35 42h7v1h-7zM64 42h7v1h-7zM96 42h3v1h-3zM1 43h3v1h-3zM18 43h7v1h-7zM35 43h7v1h-7zM64 43h7v1h-7zM96 43h3v1h-3zM1 44h3v1h-3zM18 44h7v1h-7zM35 44h7v1h-7zM64 44h7v1h-7zM96 44h3v1h-3zM1 45h3v1h-3zM18 45h7v1h-7zM35 45h7v1h-7zM51 45h1v1h-1zM64 45h7v1h-7zM96 45h3v1h-3zM1 46h3v1h-3zM18 46h7v1h-7zM35 46h7v1h-7zM52 46h2v1h-2zM64 46h7v1h-7zM96 46h3v1h-3zM1 47h3v1h-3zM19 47h6v1h-6zM35 47h6v1h-6zM53 47h3v1h-3zM64 47h6v1h-6zM96 47h3v1h-3zM1 48h3v1h-3zM20 48h5v1h-5zM35 48h5v1h-5zM54 48h4v1h-4zM64 48h5v1h-5zM96 48h3v1h-3zM1 49h3v1h-3zM21 49h18v1h-18zM55 49h13v1h-13zM96 49h3v1h-3zM1 50h3v1h-3zM22 50h16v1h-16zM56 50h11v1h-11zM96 50h3v1h-3zM1 51h3v1h-3zM23 51h14v1h-14zM57 51h9v1h-9zM96 51h3v1h-3zM1 52h3v1h-3zM96 52h3v1h-3zM1 53h3v1h-3zM96 53h3v1h-3zM1 54h3v1h-3zM96 54h3v1h-3zM1 55h3v1h-3zM96 55h3v1h-3zM1 56h3v1h-3zM96 56h3v1h-3zM1 57h3v1h-3zM96 57h3v1h-3zM1 58h3v1h-3zM96 58h3v1h-3zM1 59h3v1h-3zM96 59h3v1h-3zM1 60h3v1h-3zM17 60h5v1h-5zM39 60h5v1h-5zM76 60h6v1h-6zM96 60h3v1h-3zM1 61h3v1h-3zM17 61h5v1h-5zM39 61h5v1h-5zM76 61h6v1h-6zM96 61h3v1h-3zM1 62h3v1h-3zM17 62h5v1h-5zM76 62h6v1h-6zM96 62h3v1h-3zM1 63h3v1h-3zM17 63h5v1h-5zM76 63h6v1h-6zM96 63h3v1h-3zM1 64h3v1h-3zM17 64h5v1h-5zM76 64h6v1h-6zM96 64h3v1h-3zM1 65h3v1h-3zM17 65h5v1h-5zM76 65h6v1h-6zM96 65h3v1h-3zM1 66h3v1h-3zM17 66h5v1h-5zM39 66h5v1h-5zM51 66h14v1h-14zM73 66h12v1h-12zM96 66h3v1h-3zM1 67h3v1h-3zM17 67h5v1h-5zM39 67h5v1h-5zM51 67h15v1h-15zM73 67h12v1h-12zM96 67h3v1h-3zM1 68h3v1h-3zM17 68h5v1h-5zM39 68h5v1h-5zM51 68h6v1h-6zM64 68h3v1h-3zM76 68h6v1h-6zM96 68h3v1h-3zM1 69h3v1h-3zM17 69h5v1h-5zM39 69h5v1h-5zM51 69h6v1h-6zM64 69h4v1h-4zM76 69h6v1h-6zM96 69h3v1h-3zM1 70h3v1h-3zM17 70h5v1h-5zM39 70h5v1h-5zM51 70h6v1h-6zM64 70h5v1h-5zM76 70h6v1h-6zM96 70h3v1h-3zM1 71h3v1h-3zM17 71h5v1h-5zM39 71h5v1h-5zM51 71h6v1h-6zM64 71h5v1h-5zM76 71h6v1h-6zM96 71h3v1h-3zM1 72h3v1h-3zM17 72h5v1h-5zM39 72h5v1h-5zM51 72h6v1h-6zM64 72h5v1h-5zM76 72h6v1h-6zM96 72h3v1h-3zM1 73h3v1h-3zM17 73h5v1h-5zM39 73h5v1h-5zM51 73h6v1h-6zM64 73h5v1h-5zM76 73h6v1h-6zM96 73h3v1h-3zM1 74h3v1h-3zM17 74h5v1h-5zM39 74h5v1h-5zM51 74h6v1h-6zM64 74h5v1h-5zM76 74h6v1h-6zM96 74h3v1h-3zM1 75h3v1h-3zM17 75h5v1h-5zM39 75h5v1h-5zM51 75h6v1h-6zM64 75h5v1h-5zM76 75h6v1h-6zM96 75h3v1h-3zM1 76h3v1h-3zM17 76h5v1h-5zM39 76h5v1h-5zM51 76h6v1h-6zM64 76h5v1h-5zM76 76h6v1h-6zM96 76h3v1h-3zM1 77h3v1h-3zM17 77h5v1h-5zM39 77h5v1h-5zM51 77h6v1h-6zM64 77h5v1h-5zM76 77h6v1h-6zM96 77h3v1h-3zM1 78h3v1h-3zM17 78h5v1h-5zM39 78h5v1h-5zM51 78h6v1h-6zM64 78h5v1h-5zM76 78h6v1h-6zM96 78h3v1h-3zM1 79h3v1h-3zM17 79h5v1h-5zM39 79h5v1h-5zM51 79h6v1h-6zM64 79h5v1h-5zM76 79h6v1h-6zM96 79h3v1h-3zM1 80h3v1h-3zM17 80h5v1h-5zM39 80h5v1h-5zM51 80h6v1h-6zM64 80h5v1h-5zM76 80h6v1h-6zM96 80h3v1h-3zM1 81h3v1h-3zM17 81h5v1h-5zM39 81h5v1h-5zM51 81h6v1h-6zM64 81h5v1h-5zM76 81h6v1h-6zM96 81h3v1h-3zM1 82h3v1h-3zM17 82h5v1h-5zM39 82h5v1h-5zM51 82h6v1h-6zM64 82h5v1h-5zM76 82h6v1h-6zM96 82h3v1h-3zM1 83h4v1h-4zM17 83h5v1h-5zM39 83h5v1h-5zM51 83h6v1h-6zM64 83h5v1h-5zM77 83h5v1h-5zM95 83h4v1h-4zM1 84h4v1h-4zM17 84h5v1h-5zM39 84h5v1h-5zM51 84h6v1h-6zM64 84h5v1h-5zM78 84h4v1h-4zM95 84h4v1h-4zM1 85h4v1h-4zM17 85h15v1h-15zM39 85h5v1h-5zM51 85h6v1h-6zM64 85h5v1h-5zM79 85h6v1h-6zM95 85h4v1h-4zM1 86h4v1h-4zM17 86h15v1h-15zM39 86h5v1h-5zM51 86h6v1h-6zM64 86h5v1h-5zM80 86h5v1h-5zM95 86h4v1h-4zM2 87h3v1h-3zM95 87h3v1h-3zM2 88h4v1h-4zM94 88h4v1h-4zM3 89h4v1h-4zM93 89h4v1h-4zM3 90h4v1h-4zM93 90h4v1h-4zM4 91h4v1h-4zM92 91h4v1h-4zM5 92h4v1h-4zM91 92h4v1h-4zM6 93h5v1h-5zM89 93h5v1h-5zM7 94h5v1h-5zM88 94h5v1h-5zM8 95h8v1h-8zM84 95h8v1h-8zM9 96h82v1h-82zM11 97h78v1h-78zM13 98h74v1h-74z" /><path fill="#305050" d="M54 0h1v1h-1zM6 5h1v1h-1zM12 5h1v1h-1zM93 5h1v1h-1zM5 12h1v1h-1zM94 12h1v1h-1zM5 87h1v1h-1zM94 87h1v1h-1zM5 93h1v1h-1zM6 94h1v1h-1zM12 94h1v1h-1zM87 94h1v1h-1z" /><path fill="#435e5c" d="M79 0h1v1h-1zM65 15h1v1h-1zM4 17h1v1h-1zM0 19h1v1h-1zM0 20h1v1h-1zM0 21h1v1h-1zM0 22h1v1h-1zM0 23h1v1h-1zM0 24h1v1h-1zM0 25h1v1h-1zM0 26h1v1h-1zM0 27h1v1h-1zM0 28h1v1h-1zM0 29h1v1h-1zM0 30h1v1h-1zM0 31h1v1h-1zM0 32h1v1h-1zM0 33h1v1h-1zM0 34h1v1h-1zM0 35h1v1h-1zM0 36h1v1h-1zM0 37h1v1h-1zM0 38h1v1h-1zM0 39h1v1h-1zM0 40h1v1h-1zM0 41h1v1h-1zM0 42h1v1h-1zM34 42h1v1h-1zM0 43h1v1h-1zM34 43h1v1h-1zM0 44h1v1h-1zM34 44h1v1h-1zM0 45h1v1h-1zM52 45h1v1h-1zM0 46h1v1h-1zM0 47h1v1h-1zM0 48h1v1h-1zM0 49h1v1h-1zM99 49h1v1h-1zM0 50h1v1h-1zM99 50h1v1h-1zM0 51h1v1h-1zM99 51h1v1h-1zM0 52h1v1h-1zM99 52h1v1h-1zM0 53h1v1h-1zM99 53h1v1h-1zM0 54h1v1h-1zM99 54h1v1h-1zM0 55h1v1h-1zM99 55h1v1h-1zM0 56h1v1h-1zM99 56h1v1h-1zM0 57h1v1h-1zM99 57h1v1h-1zM0 58h1v1h-1zM99 58h1v1h-1zM0 59h1v1h-1zM99 59h1v1h-1zM0 60h1v1h-1zM99 60h1v1h-1zM0 61h1v1h-1zM99 61h1v1h-1zM0 62h1v1h-1zM99 62h1v1h-1zM0 63h1v1h-1zM99 63h1v1h-1zM0 64h1v1h-1zM99 64h1v1h-1zM0 65h1v1h-1zM99 65h1v1h-1zM0 66h1v1h-1zM99 66h1v1h-1zM0 67h1v1h-1zM99 67h1v1h-1zM0 68h1v1h-1zM99 68h1v1h-1zM0 69h1v1h-1zM99 69h1v1h-1zM0 70h1v1h-1zM99 70h1v1h-1zM0 71h1v1h-1zM99 71h1v1h-1zM0 72h1v1h-1zM99 72h1v1h-1zM0 73h1v1h-1zM99 73h1v1h-1zM0 74h1v1h-1zM99 74h1v1h-1zM0 75h1v1h-1zM99 75h1v1h-1zM0 76h1v1h-1zM99 76h1v1h-1zM0 77h1v1h-1zM99 77h1v1h-1zM0 78h1v1h-1zM99 78h1v1h-1zM0 79h1v1h-1zM99 79h1v1h-1zM0 80h1v1h-1zM99 80h1v1h-1z" /><path fill="#526966" d="M81 0h1v1h-1z" /><path fill="#586e6a" d="M82 0h1v1h-1zM21 4h4v1h-4zM79 4h3v1h-3zM99 20h1v1h-1zM19 95h4v1h-4zM77 95h4v1h-4z" /><path fill="#5e746f" d="M83 0h1v1h-1z" /><path fill="#657873" d="M84 0h1v1h-1z" /><path fill="#76857e" d="M85 0h1v1h-1z" /><path fill="#7c8a82" d="M11 1h1v1h-1z" /><path fill="#45615e" d="M12 1h1v1h-1z" /><path fill="#425e5d" d="M87 1h1v1h-1z" /><path fill="#72837c" d="M88 1h1v1h-1z" /><path fill="#798781" d="M9 2h1v1h-1z" /><path fill="#365453" d="M10 2h1v1h-1zM95 92h1v1h-1zM92 95h1v1h-1z" /><path fill="#395756" d="M89 2h1v1h-1z" /><path fill="#77867e" d="M90 2h1v1h-1z" /><path fill="#4b6461" d="M8 3h1v1h-1zM96 8h1v1h-1z" /><path fill="#4d6763" d="M91 3h1v1h-1z" /><path fill="#8e978f" d="M6 4h1v1h-1z" /><path fill="#375554" d="M7 4h1v1h-1zM92 4h1v1h-1zM95 7h1v1h-1zM59 26h1v1h-1zM60 27h1v1h-1zM61 28h1v1h-1zM63 30h1v1h-1zM64 31h1v1h-1zM65 32h1v1h-1zM66 33h1v1h-1zM67 34h1v1h-1zM68 35h1v1h-1zM69 36h1v1h-1zM70 37h1v1h-1z" /><path fill="#4f6865" d="M20 4h1v1h-1zM4 18h1v1h-1zM34 21h1v1h-1zM34 22h1v1h-1zM34 23h1v1h-1zM34 24h1v1h-1zM99 24h1v1h-1zM95 75h1v1h-1zM4 76h1v1h-1z" /><path fill="#5c726d" d="M25 4h1v1h-1zM86 5h1v1h-1zM4 22h1v1h-1zM95 23h1v1h-1zM25 36h1v1h-1zM25 37h1v1h-1zM25 38h1v1h-1zM25 39h1v1h-1zM25 40h1v1h-1zM25 41h1v1h-1zM25 42h1v1h-1zM25 43h1v1h-1zM25 44h1v1h-1zM25 45h1v1h-1zM25 46h1v1h-1zM25 47h1v1h-1zM95 68h1v1h-1zM95 69h1v1h-1zM95 70h1v1h-1zM95 71h1v1h-1z" /><path fill="#657973" d="M26 4h52v1h-52zM66 20h1v1h-1zM4 26h1v1h-1zM95 27h1v1h-1zM95 52h1v1h-1zM4 54h1v1h-1zM58 68h5v1h-5zM73 68h2v1h-2zM83 68h2v1h-2zM24 95h9v1h-9zM67 95h9v1h-9z" /><path fill="#617570" d="M78 4h1v1h-1zM64 19h1v1h-1zM4 24h1v1h-1zM95 25h1v1h-1zM95 59h1v1h-1zM95 60h1v1h-1zM95 61h1v1h-1zM4 62h1v1h-1zM4 63h1v1h-1zM4 64h1v1h-1zM4 65h1v1h-1zM78 85h1v1h-1zM79 86h1v1h-1zM88 93h1v1h-1zM76 95h1v1h-1z" /><path fill="#4e6764" d="M82 4h1v1h-1zM0 15h1v1h-1zM34 25h1v1h-1z" /><path fill="#3a5857" d="M83 4h1v1h-1zM16 99h1v1h-1zM83 99h1v1h-1z" /><path fill="#8a968c" d="M93 4h1v1h-1z" /><path fill="#838e87" d="M5 5h1v1h-1z" /><path fill="#6c7e78" d="M13 5h1v1h-1zM52 19h1v1h-1zM4 30h1v1h-1zM4 31h1v1h-1z" /><path fill="#b8b9ab" d="M14 5h1v1h-1zM94 85h1v1h-1z" /><path fill="#e1d8c6" d="M15 5h1v1h-1zM94 15h1v1h-1zM65 65h1v1h-1z" /><path fill="#f9ead6" d="M16 5h1v1h-1zM11 7h1v1h-1zM88 7h1v1h-1zM7 11h1v1h-1zM92 11h1v1h-1zM94 16h1v1h-1zM11 92h1v1h-1zM88 92h1v1h-1z" /><path fill="#faebd7" d="M17 5h67v1h-67zM13 6h74v1h-74zM12 7h76v1h-76zM10 8h80v1h-80zM9 9h82v1h-82zM8 10h84v1h-84zM8 11h84v1h-84zM7 12h86v1h-86zM6 13h88v1h-88zM6 14h88v1h-88zM6 15h28v1h-28zM43 15h12v1h-12zM67 15h27v1h-27zM5 16h29v1h-29zM43 16h11v1h-11zM68 16h26v1h-26zM5 17h29v1h-29zM43 17h10v1h-10zM69 17h26v1h-26zM5 18h29v1h-29zM43 18h9v1h-9zM70 18h25v1h-25zM5 19h29v1h-29zM43 19h8v1h-8zM71 19h24v1h-24zM5 20h29v1h-29zM43 20h7v1h-7zM60 20h5v1h-5zM72 20h23v1h-23zM5 21h29v1h-29zM43 21h7v1h-7zM60 21h7v1h-7zM72 21h23v1h-23zM5 22h29v1h-29zM43 22h7v1h-7zM60 22h9v1h-9zM72 22h23v1h-23zM5 23h29v1h-29zM43 23h7v1h-7zM60 23h11v1h-11zM72 23h23v1h-23zM5 24h29v1h-29zM43 24h7v1h-7zM60 24h35v1h-35zM5 25h29v1h-29zM43 25h7v1h-7zM60 25h35v1h-35zM5 26h29v1h-29zM43 26h7v1h-7zM61 26h34v1h-34zM5 27h29v1h-29zM43 27h7v1h-7zM62 27h33v1h-33zM5 28h29v1h-29zM43 28h7v1h-7zM63 28h32v1h-32zM5 29h29v1h-29zM43 29h7v1h-7zM64 29h31v1h-31zM5 30h29v1h-29zM43 30h8v1h-8zM65 30h30v1h-30zM5 31h29v1h-29zM43 31h9v1h-9zM66 31h29v1h-29zM5 32h29v1h-29zM43 32h10v1h-10zM67 32h28v1h-28zM5 33h29v1h-29zM43 33h11v1h-11zM68 33h27v1h-27zM5 34h29v1h-29zM43 34h12v1h-12zM69 34h26v1h-26zM5 35h12v1h-12zM26 35h8v1h-8zM43 35h13v1h-13zM70 35h25v1h-25zM5 36h12v1h-12zM26 36h8v1h-8zM43 36h14v1h-14zM71 36h24v1h-24zM5 37h12v1h-12zM26 37h8v1h-8zM43 37h15v1h-15zM72 37h23v1h-23zM5 38h12v1h-12zM26 38h8v1h-8zM43 38h16v1h-16zM72 38h23v1h-23zM5 39h12v1h-12zM26 39h8v1h-8zM43 39h17v1h-17zM72 39h23v1h-23zM5 40h12v1h-12zM26 40h8v1h-8zM43 40h18v1h-18zM72 40h23v1h-23zM5 41h12v1h-12zM26 41h8v1h-8zM43 41h19v1h-19zM72 41h23v1h-23zM5 42h12v1h-12zM26 42h8v1h-8zM43 42h20v1h-20zM72 42h23v1h-23zM5 43h12v1h-12zM26 43h8v1h-8zM43 43h20v1h-20zM72 43h23v1h-23zM5 44h12v1h-12zM26 44h8v1h-8zM43 44h7v1h-7zM53 44h10v1h-10zM72 44h23v1h-23zM5 45h12v1h-12zM26 45h8v1h-8zM43 45h7v1h-7zM55 45h8v1h-8zM72 45h23v1h-23zM5 46h12v1h-12zM26 46h8v1h-8zM43 46h7v1h-7zM57 46h6v1h-6zM72 46h23v1h-23zM5 47h12v1h-12zM26 47h8v1h-8zM43 47h8v1h-8zM59 47h4v1h-4zM72 47h23v1h-23zM5 48h13v1h-13zM42 48h10v1h-10zM71 48h24v1h-24zM5 49h14v1h-14zM41 49h12v1h-12zM70 49h25v1h-25zM5 50h15v1h-15zM40 50h14v1h-14zM69 50h26v1h-26zM5 51h16v1h-16zM39 51h16v1h-16zM68 51h27v1h-27zM5 52h17v1h-17zM38 52h18v1h-18zM67 52h28v1h-28zM5 53h90v1h-90zM5 54h90v1h-90zM5 55h90v1h-90zM5 56h90v1h-90zM5 57h90v1h-90zM5 58h90v1h-90zM5 59h11v1h-11zM23 59h15v1h-15zM45 59h30v1h-30zM83 59h12v1h-12zM5 60h11v1h-11zM23 60h15v1h-15zM45 60h30v1h-30zM83 60h12v1h-12zM5 61h11v1h-11zM23 61h15v1h-15zM45 61h30v1h-30zM83 61h12v1h-12zM5 62h11v1h-11zM23 62h15v1h-15zM45 62h30v1h-30zM83 62h12v1h-12zM5 63h11v1h-11zM23 63h52v1h-52zM83 63h12v1h-12zM5 64h11v1h-11zM23 64h52v1h-52zM83 64h12v1h-12zM5 65h11v1h-11zM23 65h15v1h-15zM45 65h5v1h-5zM66 65h6v1h-6zM86 65h9v1h-9zM5 66h11v1h-11zM23 66h15v1h-15zM45 66h5v1h-5zM67 66h5v1h-5zM86 66h9v1h-9zM5 67h11v1h-11zM23 67h15v1h-15zM45 67h5v1h-5zM68 67h4v1h-4zM86 67h9v1h-9zM5 68h11v1h-11zM23 68h15v1h-15zM45 68h5v1h-5zM69 68h3v1h-3zM86 68h9v1h-9zM5 69h11v1h-11zM23 69h15v1h-15zM45 69h5v1h-5zM58 69h5v1h-5zM70 69h5v1h-5zM83 69h12v1h-12zM5 70h11v1h-11zM23 70h15v1h-15zM45 70h5v1h-5zM58 70h5v1h-5zM70 70h5v1h-5zM83 70h12v1h-12zM5 71h11v1h-11zM23 71h15v1h-15zM45 71h5v1h-5zM58 71h5v1h-5zM70 71h5v1h-5zM83 71h12v1h-12zM5 72h11v1h-11zM23 72h15v1h-15zM45 72h5v1h-5zM58 72h5v1h-5zM70 72h5v1h-5zM83 72h12v1h-12zM5 73h11v1h-11zM23 73h15v1h-15zM45 73h5v1h-5zM58 73h5v1h-5zM70 73h5v1h-5zM83 73h12v1h-12zM5 74h11v1h-11zM23 74h15v1h-15zM45 74h5v1h-5zM58 74h5v1h-5zM70 74h5v1h-5zM83 74h12v1h-12zM5 75h11v1h-11zM23 75h15v1h-15zM45 75h5v1h-5zM58 75h5v1h-5zM70 75h5v1h-5zM83 75h12v1h-12zM5 76h11v1h-11zM23 76h15v1h-15zM45 76h5v1h-5zM58 76h5v1h-5zM70 76h5v1h-5zM83 76h12v1h-12zM5 77h11v1h-11zM23 77h15v1h-15zM45 77h5v1h-5zM58 77h5v1h-5zM70 77h5v1h-5zM83 77h12v1h-12zM5 78h11v1h-11zM23 78h15v1h-15zM45 78h5v1h-5zM58 78h5v1h-5zM70 78h5v1h-5zM83 78h12v1h-12zM5 79h11v1h-11zM23 79h15v1h-15zM45 79h5v1h-5zM58 79h5v1h-5zM70 79h5v1h-5zM83 79h12v1h-12zM5 80h11v1h-11zM23 80h15v1h-15zM45 80h5v1h-5zM58 80h5v1h-5zM70 80h5v1h-5zM83 80h12v1h-12zM5 81h11v1h-11zM23 81h15v1h-15zM45 81h5v1h-5zM58 81h5v1h-5zM70 81h5v1h-5zM83 81h12v1h-12zM5 82h11v1h-11zM23 82h15v1h-15zM45 82h5v1h-5zM58 82h5v1h-5zM70 82h5v1h-5zM83 82h12v1h-12zM6 83h10v1h-10zM23 83h15v1h-15zM45 83h5v1h-5zM58 83h5v1h-5zM70 83h5v1h-5zM83 83h11v1h-11zM6 84h10v1h-10zM33 84h5v1h-5zM45 84h5v1h-5zM58 84h5v1h-5zM70 84h6v1h-6zM86 84h8v1h-8zM6 85h10v1h-10zM33 85h5v1h-5zM45 85h5v1h-5zM58 85h5v1h-5zM70 85h7v1h-7zM86 85h8v1h-8zM6 86h10v1h-10zM33 86h5v1h-5zM45 86h5v1h-5zM58 86h5v1h-5zM70 86h8v1h-8zM86 86h8v1h-8zM7 87h9v1h-9zM33 87h5v1h-5zM45 87h5v1h-5zM58 87h5v1h-5zM70 87h9v1h-9zM86 87h7v1h-7zM8 88h84v1h-84zM8 89h84v1h-84zM9 90h82v1h-82zM10 91h80v1h-80zM12 92h76v1h-76zM13 93h74v1h-74zM16 94h68v1h-68z" /><path fill="#e4dac8" d="M84 5h1v1h-1z" /><path fill="#a8aca0" d="M85 5h1v1h-1z" /><path fill="#859288" d="M94 5h1v1h-1z" /><path fill="#89948c" d="M4 6h1v1h-1z" /><path fill="#315050" d="M5 6h1v1h-1zM94 6h1v1h-1zM90 92h1v1h-1zM94 93h1v1h-1zM93 94h1v1h-1z" /><path fill="#5f736f" d="M11 6h1v1h-1zM88 6h1v1h-1zM93 11h1v1h-1zM34 15h1v1h-1zM95 64h1v1h-1zM4 68h1v1h-1z" /><path fill="#d1cbbb" d="M12 6h1v1h-1zM6 12h1v1h-1zM93 12h1v1h-1zM93 87h1v1h-1zM12 93h1v1h-1z" /><path fill="#cfcaba" d="M87 6h1v1h-1zM50 45h1v1h-1z" /><path fill="#88938b" d="M95 6h1v1h-1z" /><path fill="#345252" d="M4 7h1v1h-1z" /><path fill="#315151" d="M9 7h1v1h-1zM90 7h1v1h-1zM92 9h1v1h-1zM7 90h1v1h-1zM92 90h1v1h-1zM9 92h1v1h-1z" /><path fill="#a6ab9f" d="M10 7h1v1h-1zM22 59h1v1h-1z" /><path fill="#a6aa9f" d="M89 7h1v1h-1zM92 10h1v1h-1zM51 44h1v1h-1z" /><path fill="#4e6763" d="M3 8h1v1h-1z" /><path fill="#365454" d="M8 8h1v1h-1zM91 8h1v1h-1zM4 16h1v1h-1zM4 82h1v1h-1zM8 91h1v1h-1zM16 95h1v1h-1zM83 95h1v1h-1z" /><path fill="#bcbaac" d="M9 8h1v1h-1zM90 8h1v1h-1zM91 9h1v1h-1zM59 25h1v1h-1zM85 94h1v1h-1z" /><path fill="#77877f" d="M2 9h1v1h-1z" /><path fill="#325251" d="M7 9h1v1h-1zM95 16h1v1h-1z" /><path fill="#bcbbad" d="M8 9h1v1h-1zM14 94h1v1h-1z" /><path fill="#76867e" d="M97 9h1v1h-1z" /><path fill="#3a5756" d="M2 10h1v1h-1zM69 19h1v1h-1zM56 47h1v1h-1z" /><path fill="#a7ab9f" d="M7 10h1v1h-1z" /><path fill="#385655" d="M97 10h1v1h-1zM66 16h1v1h-1zM67 17h1v1h-1zM68 18h1v1h-1zM70 20h1v1h-1z" /><path fill="#788680" d="M1 11h1v1h-1z" /><path fill="#60746f" d="M6 11h1v1h-1zM95 62h1v1h-1zM95 63h1v1h-1zM4 66h1v1h-1zM4 67h1v1h-1z" /><path fill="#75857e" d="M98 11h1v1h-1zM18 47h1v1h-1zM32 48h1v1h-1zM20 49h1v1h-1zM21 50h1v1h-1zM22 51h1v1h-1z" /><path fill="#486361" d="M1 12h1v1h-1z" /><path fill="#405c5a" d="M98 12h1v1h-1zM0 16h1v1h-1zM0 83h1v1h-1zM99 83h1v1h-1z" /><path fill="#6d7f79" d="M5 13h1v1h-1z" /><path fill="#6a7c76" d="M94 13h1v1h-1zM4 28h1v1h-1zM95 30h1v1h-1zM95 31h1v1h-1zM95 32h1v1h-1zM4 38h1v1h-1zM4 39h1v1h-1zM4 40h1v1h-1z" /><path fill="#6e807a" d="M0 14h1v1h-1z" /><path fill="#bab9ac" d="M5 14h1v1h-1zM5 85h1v1h-1zM8 90h1v1h-1z" /><path fill="#b7b7a9" d="M94 14h1v1h-1zM44 59h1v1h-1z" /><path fill="#74847d" d="M99 14h1v1h-1zM22 60h1v1h-1zM22 61h1v1h-1zM22 62h1v1h-1zM22 63h1v1h-1zM22 64h1v1h-1zM22 65h1v1h-1zM22 66h1v1h-1zM22 67h1v1h-1zM22 68h1v1h-1zM22 69h1v1h-1zM22 70h1v1h-1zM22 71h1v1h-1zM22 72h1v1h-1zM22 73h1v1h-1zM22 74h1v1h-1zM22 75h1v1h-1zM22 76h1v1h-1zM22 77h1v1h-1zM22 78h1v1h-1zM22 79h1v1h-1zM22 80h1v1h-1zM22 81h1v1h-1zM22 82h1v1h-1zM22 83h1v1h-1z" /><path fill="#e5dac8" d="M5 15h1v1h-1z" /><path fill="#b2b3a6" d="M42 15h1v1h-1zM42 46h1v1h-1z" /><path fill="#f5e7d4" d="M55 15h1v1h-1zM54 16h1v1h-1zM53 17h1v1h-1zM52 18h1v1h-1zM51 19h1v1h-1zM50 20h1v1h-1z" /><path fill="#6f817a" d="M56 15h1v1h-1zM5 86h1v1h-1zM13 94h1v1h-1zM86 94h1v1h-1z" /><path fill="#cbc7b7" d="M66 15h1v1h-1zM70 19h1v1h-1z" /><path fill="#6b7c76" d="M99 15h1v1h-1z" /><path fill="#526a66" d="M34 16h1v1h-1zM34 17h1v1h-1zM95 19h1v1h-1zM4 75h1v1h-1z" /><path fill="#acafa2" d="M42 16h1v1h-1zM42 17h1v1h-1zM42 18h1v1h-1zM42 19h1v1h-1zM42 20h1v1h-1zM42 21h1v1h-1zM42 22h1v1h-1zM42 23h1v1h-1zM42 24h1v1h-1zM42 25h1v1h-1zM42 26h1v1h-1zM42 27h1v1h-1zM42 28h1v1h-1zM42 29h1v1h-1zM42 30h1v1h-1zM42 31h1v1h-1zM42 32h1v1h-1zM42 33h1v1h-1zM42 34h1v1h-1zM42 35h1v1h-1zM42 36h1v1h-1zM42 37h1v1h-1zM42 38h1v1h-1zM42 39h1v1h-1zM42 40h1v1h-1zM42 41h1v1h-1zM42 42h1v1h-1zM42 43h1v1h-1zM42 44h1v1h-1zM42 45h1v1h-1zM63 87h1v1h-1z" /><path fill="#6d807a" d="M55 16h1v1h-1zM54 17h1v1h-1zM53 18h1v1h-1zM51 20h1v1h-1z" /><path fill="#c7c4b5" d="M67 16h1v1h-1zM68 17h1v1h-1zM69 18h1v1h-1zM71 20h1v1h-1zM72 68h1v1h-1z" /><path fill="#677974" d="M99 16h1v1h-1z" /><path fill="#415d5b" d="M0 17h1v1h-1zM0 82h1v1h-1z" /><path fill="#3f5b5a" d="M95 17h1v1h-1z" /><path fill="#5f746f" d="M99 17h1v1h-1z" /><path fill="#425e5c" d="M0 18h1v1h-1zM0 81h1v1h-1zM99 81h1v1h-1z" /><path fill="#516a66" d="M34 18h1v1h-1zM34 19h1v1h-1z" /><path fill="#4c6663" d="M95 18h1v1h-1zM99 25h1v1h-1zM34 28h1v1h-1zM34 29h1v1h-1zM95 76h1v1h-1zM4 77h1v1h-1zM81 95h1v1h-1z" /><path fill="#5b716d" d="M99 18h1v1h-1z" /><path fill="#546b68" d="M4 19h1v1h-1zM95 20h1v1h-1z" /><path fill="#bfbeb0" d="M59 19h1v1h-1zM9 91h1v1h-1z" /><path fill="#dfd7c5" d="M60 19h3v1h-3z" /><path fill="#c4c1b3" d="M63 19h1v1h-1zM44 62h1v1h-1zM44 87h1v1h-1z" /><path fill="#5a706c" d="M99 19h1v1h-1z" /><path fill="#576e6a" d="M4 20h1v1h-1zM95 21h1v1h-1z" /><path fill="#d5cfbe" d="M59 20h1v1h-1zM59 21h1v1h-1zM59 22h1v1h-1zM59 23h1v1h-1zM59 24h1v1h-1z" /><path fill="#cac7b7" d="M65 20h1v1h-1z" /><path fill="#59706c" d="M4 21h1v1h-1zM95 22h1v1h-1zM75 68h1v1h-1zM6 88h1v1h-1z" /><path fill="#cdc8b9" d="M50 21h1v1h-1zM50 22h1v1h-1zM50 23h1v1h-1zM50 24h1v1h-1zM50 25h1v1h-1zM50 26h1v1h-1zM50 27h1v1h-1zM50 28h1v1h-1zM75 60h1v1h-1zM75 61h1v1h-1zM75 62h1v1h-1zM75 63h1v1h-1zM75 64h1v1h-1zM50 66h1v1h-1zM50 67h1v1h-1zM50 68h1v1h-1zM50 69h1v1h-1zM75 69h1v1h-1zM50 70h1v1h-1zM75 70h1v1h-1zM50 71h1v1h-1zM75 71h1v1h-1zM50 72h1v1h-1zM75 72h1v1h-1zM50 73h1v1h-1zM75 73h1v1h-1zM50 74h1v1h-1zM75 74h1v1h-1zM50 75h1v1h-1zM75 75h1v1h-1zM50 76h1v1h-1zM75 76h1v1h-1zM50 77h1v1h-1zM75 77h1v1h-1zM50 78h1v1h-1zM75 78h1v1h-1zM50 79h1v1h-1zM75 79h1v1h-1zM50 80h1v1h-1zM75 80h1v1h-1zM50 81h1v1h-1zM75 81h1v1h-1zM50 82h1v1h-1zM75 82h1v1h-1zM50 83h1v1h-1zM50 84h1v1h-1zM50 85h1v1h-1zM50 86h1v1h-1z" /><path fill="#c8c5b6" d="M67 21h1v1h-1z" /><path fill="#657872" d="M68 21h1v1h-1zM95 53h1v1h-1zM95 54h1v1h-1zM4 55h1v1h-1zM4 56h1v1h-1z" /><path fill="#70827b" d="M71 21h1v1h-1zM71 38h1v1h-1zM71 39h1v1h-1zM71 40h1v1h-1zM71 41h1v1h-1zM71 42h1v1h-1zM71 43h1v1h-1zM71 44h1v1h-1zM71 45h1v1h-1zM19 48h1v1h-1z" /><path fill="#556c68" d="M99 21h1v1h-1zM4 74h1v1h-1z" /><path fill="#ccc8b8" d="M69 22h1v1h-1z" /><path fill="#6a7b76" d="M70 22h1v1h-1zM95 33h1v1h-1zM95 34h1v1h-1zM95 35h1v1h-1zM95 36h1v1h-1zM4 41h1v1h-1zM4 42h1v1h-1zM4 43h1v1h-1z" /><path fill="#778780" d="M71 22h1v1h-1z" /><path fill="#536a67" d="M99 22h1v1h-1zM95 74h1v1h-1z" /><path fill="#5e736f" d="M4 23h1v1h-1zM95 24h1v1h-1zM95 65h1v1h-1zM95 66h1v1h-1zM4 69h1v1h-1zM4 70h1v1h-1z" /><path fill="#ede1cf" d="M71 23h1v1h-1zM56 46h1v1h-1zM85 65h1v1h-1z" /><path fill="#637772" d="M4 25h1v1h-1zM95 26h1v1h-1zM95 56h1v1h-1zM95 57h1v1h-1zM4 59h1v1h-1zM4 60h1v1h-1z" /><path fill="#4d6663" d="M34 26h1v1h-1zM34 27h1v1h-1zM18 95h1v1h-1z" /><path fill="#c6c3b4" d="M60 26h1v1h-1zM61 27h1v1h-1zM62 28h1v1h-1zM64 30h1v1h-1zM65 31h1v1h-1zM66 32h1v1h-1zM67 33h1v1h-1zM68 34h1v1h-1zM69 35h1v1h-1zM70 36h1v1h-1zM71 37h1v1h-1z" /><path fill="#687a75" d="M4 27h1v1h-1zM63 42h1v1h-1zM95 42h1v1h-1zM95 43h1v1h-1zM95 44h1v1h-1zM95 45h1v1h-1zM4 47h1v1h-1zM4 48h1v1h-1zM4 49h1v1h-1zM38 60h1v1h-1zM38 61h1v1h-1zM38 66h1v1h-1zM38 67h1v1h-1zM38 68h1v1h-1zM38 69h1v1h-1zM38 70h1v1h-1zM38 71h1v1h-1zM38 72h1v1h-1zM38 73h1v1h-1zM38 74h1v1h-1zM38 75h1v1h-1zM38 76h1v1h-1zM38 77h1v1h-1zM38 78h1v1h-1zM38 79h1v1h-1zM38 80h1v1h-1zM38 81h1v1h-1zM38 82h1v1h-1zM38 83h1v1h-1zM38 84h1v1h-1zM38 85h1v1h-1zM38 86h1v1h-1z" /><path fill="#47625f" d="M99 27h1v1h-1zM34 36h1v1h-1z" /><path fill="#697b76" d="M95 28h1v1h-1zM95 37h1v1h-1zM95 38h1v1h-1zM95 39h1v1h-1zM95 40h1v1h-1zM95 41h1v1h-1zM63 43h1v1h-1zM4 44h1v1h-1zM63 44h1v1h-1zM4 45h1v1h-1zM63 45h1v1h-1zM4 46h1v1h-1zM63 46h1v1h-1zM63 47h1v1h-1zM63 69h1v1h-1zM63 70h1v1h-1zM63 71h1v1h-1zM63 72h1v1h-1zM63 73h1v1h-1zM63 74h1v1h-1zM63 75h1v1h-1zM63 76h1v1h-1zM63 77h1v1h-1zM63 78h1v1h-1zM63 79h1v1h-1zM63 80h1v1h-1zM63 81h1v1h-1zM63 82h1v1h-1zM63 83h1v1h-1zM63 84h1v1h-1zM63 85h1v1h-1zM63 86h1v1h-1zM33 95h1v1h-1zM66 95h1v1h-1z" /><path fill="#45605e" d="M99 28h1v1h-1zM99 29h1v1h-1zM99 30h1v1h-1zM99 31h1v1h-1zM99 32h1v1h-1zM99 33h1v1h-1zM99 34h1v1h-1zM34 39h1v1h-1zM1 87h1v1h-1z" /><path fill="#6c7d77" d="M4 29h1v1h-1zM4 32h1v1h-1zM4 33h1v1h-1zM4 34h1v1h-1z" /><path fill="#dbd3c2" d="M50 29h1v1h-1zM50 46h1v1h-1z" /><path fill="#335251" d="M51 29h1v1h-1zM52 30h1v1h-1zM53 31h1v1h-1zM54 32h1v1h-1zM55 33h1v1h-1zM56 34h1v1h-1zM57 35h1v1h-1zM58 36h1v1h-1zM59 37h1v1h-1zM60 38h1v1h-1zM61 39h1v1h-1zM62 40h1v1h-1zM63 41h1v1h-1zM51 46h1v1h-1zM53 48h1v1h-1z" /><path fill="#395655" d="M62 29h1v1h-1z" /><path fill="#c9c6b7" d="M63 29h1v1h-1z" /><path fill="#6b7d77" d="M95 29h1v1h-1zM4 35h1v1h-1zM4 36h1v1h-1zM4 37h1v1h-1z" /><path fill="#4b6562" d="M34 30h1v1h-1zM34 31h1v1h-1z" /><path fill="#b9b8ab" d="M51 30h1v1h-1zM52 31h1v1h-1zM53 32h1v1h-1zM54 33h1v1h-1zM55 34h1v1h-1zM56 35h1v1h-1zM57 36h1v1h-1zM58 37h1v1h-1zM59 38h1v1h-1zM60 39h1v1h-1zM61 40h1v1h-1zM62 41h1v1h-1zM52 48h1v1h-1zM91 90h1v1h-1z" /><path fill="#496361" d="M34 33h1v1h-1zM34 34h1v1h-1zM63 48h1v1h-1zM4 78h1v1h-1z" /><path fill="#f2e5d2" d="M17 35h1v1h-1z" /><path fill="#ece0ce" d="M18 35h7v1h-7zM58 47h1v1h-1z" /><path fill="#efe3d0" d="M25 35h1v1h-1zM54 45h1v1h-1zM76 84h1v1h-1zM79 87h1v1h-1z" /><path fill="#486260" d="M34 35h1v1h-1zM22 84h1v1h-1z" /><path fill="#44605e" d="M99 35h1v1h-1zM99 36h1v1h-1zM99 37h1v1h-1zM99 38h1v1h-1zM99 39h1v1h-1zM34 40h1v1h-1zM99 40h1v1h-1zM99 41h1v1h-1zM17 95h1v1h-1zM82 95h1v1h-1z" /><path fill="#7d8b84" d="M17 36h1v1h-1zM17 37h1v1h-1zM17 38h1v1h-1zM17 39h1v1h-1zM17 40h1v1h-1zM17 41h1v1h-1zM17 42h1v1h-1zM17 43h1v1h-1zM17 44h1v1h-1zM17 45h1v1h-1z" /><path fill="#46615e" d="M34 38h1v1h-1zM65 66h1v1h-1zM66 67h1v1h-1zM68 69h1v1h-1zM4 79h1v1h-1z" /><path fill="#435f5d" d="M34 41h1v1h-1zM99 42h1v1h-1zM99 43h1v1h-1zM99 44h1v1h-1zM99 45h1v1h-1zM99 46h1v1h-1zM99 47h1v1h-1zM25 48h1v1h-1zM99 48h1v1h-1zM95 79h1v1h-1zM4 80h1v1h-1z" /><path fill="#e7ddcb" d="M50 44h1v1h-1z" /><path fill="#f3e6d2" d="M52 44h1v1h-1zM71 47h1v1h-1zM70 48h1v1h-1zM69 49h1v1h-1zM68 50h1v1h-1zM67 51h1v1h-1zM66 52h1v1h-1zM82 60h1v1h-1zM82 61h1v1h-1zM82 62h1v1h-1zM82 63h1v1h-1zM82 64h1v1h-1zM57 69h1v1h-1zM82 69h1v1h-1zM57 70h1v1h-1zM82 70h1v1h-1zM57 71h1v1h-1zM82 71h1v1h-1zM57 72h1v1h-1zM82 72h1v1h-1zM57 73h1v1h-1zM82 73h1v1h-1zM57 74h1v1h-1zM82 74h1v1h-1zM57 75h1v1h-1zM82 75h1v1h-1zM57 76h1v1h-1zM82 76h1v1h-1zM57 77h1v1h-1zM82 77h1v1h-1zM57 78h1v1h-1zM82 78h1v1h-1zM57 79h1v1h-1zM82 79h1v1h-1zM57 80h1v1h-1zM82 80h1v1h-1zM57 81h1v1h-1zM82 81h1v1h-1zM57 82h1v1h-1zM82 82h1v1h-1zM5 83h1v1h-1zM57 83h1v1h-1zM82 83h1v1h-1zM57 84h1v1h-1zM32 85h1v1h-1zM57 85h1v1h-1zM32 86h1v1h-1zM57 86h1v1h-1z" /><path fill="#425d5b" d="M34 45h1v1h-1zM34 46h1v1h-1zM95 80h1v1h-1z" /><path fill="#9da398" d="M53 45h1v1h-1zM92 89h1v1h-1z" /><path fill="#8f998f" d="M17 46h1v1h-1zM75 65h1v1h-1zM69 70h1v1h-1zM69 71h1v1h-1zM69 72h1v1h-1zM69 73h1v1h-1zM69 74h1v1h-1zM69 75h1v1h-1zM69 76h1v1h-1zM69 77h1v1h-1zM69 78h1v1h-1zM69 79h1v1h-1zM69 80h1v1h-1zM69 81h1v1h-1zM69 82h1v1h-1zM69 83h1v1h-1zM69 84h1v1h-1zM69 85h1v1h-1zM69 86h1v1h-1z" /><path fill="#3e5a58" d="M54 46h1v1h-1z" /><path fill="#949d93" d="M55 46h1v1h-1zM65 52h1v1h-1z" /><path fill="#828f87" d="M71 46h1v1h-1z" /><path fill="#677a74" d="M95 46h1v1h-1zM95 47h1v1h-1zM95 48h1v1h-1zM95 49h1v1h-1zM4 50h1v1h-1zM95 50h1v1h-1zM4 51h1v1h-1z" /><path fill="#f8e9d5" d="M17 47h1v1h-1zM41 48h1v1h-1zM19 49h1v1h-1zM20 50h1v1h-1zM21 51h1v1h-1zM37 52h1v1h-1zM7 88h1v1h-1zM92 88h1v1h-1z" /><path fill="#405b5a" d="M34 47h1v1h-1zM4 81h1v1h-1z" /><path fill="#73837d" d="M41 47h1v1h-1zM39 49h1v1h-1zM38 50h1v1h-1zM37 51h1v1h-1z" /><path fill="#f7e8d5" d="M42 47h1v1h-1zM40 49h1v1h-1zM39 50h1v1h-1zM38 51h1v1h-1zM32 87h1v1h-1zM57 87h1v1h-1z" /><path fill="#bebdaf" d="M51 47h1v1h-1zM53 49h1v1h-1zM54 50h1v1h-1zM55 51h1v1h-1zM90 91h1v1h-1z" /><path fill="#355353" d="M52 47h1v1h-1zM34 48h1v1h-1zM54 49h1v1h-1zM55 50h1v1h-1zM56 51h1v1h-1zM95 82h1v1h-1zM91 91h1v1h-1zM4 92h1v1h-1zM7 95h1v1h-1z" /><path fill="#8e988e" d="M57 47h1v1h-1zM60 48h3v1h-3zM24 52h12v1h-12zM57 52h8v1h-8zM44 60h1v1h-1zM44 61h1v1h-1zM44 66h1v1h-1zM44 67h1v1h-1zM44 68h1v1h-1zM44 69h1v1h-1zM44 70h1v1h-1zM44 71h1v1h-1zM44 72h1v1h-1zM44 73h1v1h-1zM44 74h1v1h-1zM44 75h1v1h-1zM44 76h1v1h-1zM44 77h1v1h-1zM44 78h1v1h-1zM44 79h1v1h-1zM44 80h1v1h-1zM44 81h1v1h-1zM44 82h1v1h-1zM44 83h1v1h-1zM44 84h1v1h-1zM44 85h1v1h-1zM44 86h1v1h-1zM51 87h6v1h-6zM64 87h5v1h-5zM81 87h4v1h-4z" /><path fill="#667a74" d="M70 47h1v1h-1zM69 48h1v1h-1zM68 49h1v1h-1zM67 50h1v1h-1zM66 51h1v1h-1zM95 51h1v1h-1zM4 52h1v1h-1zM4 53h1v1h-1z" /><path fill="#f6e8d5" d="M18 48h1v1h-1zM22 52h1v1h-1zM82 59h1v1h-1zM32 84h1v1h-1z" /><path fill="#839087" d="M26 48h1v1h-1z" /><path fill="#808d85" d="M27 48h5v1h-5zM76 59h6v1h-6zM83 84h2v1h-2z" /><path fill="#72837d" d="M33 48h1v1h-1zM34 95h32v1h-32z" /><path fill="#76867f" d="M40 48h1v1h-1z" /><path fill="#3c5957" d="M58 48h1v1h-1zM17 99h1v1h-1zM82 99h1v1h-1z" /><path fill="#849188" d="M59 48h1v1h-1z" /><path fill="#98a196" d="M23 52h1v1h-1z" /><path fill="#9ca399" d="M36 52h1v1h-1z" /><path fill="#bfbfb0" d="M56 52h1v1h-1z" /><path fill="#647873" d="M95 55h1v1h-1zM4 57h1v1h-1zM4 58h1v1h-1zM57 68h1v1h-1zM82 68h1v1h-1z" /><path fill="#627671" d="M95 58h1v1h-1zM4 61h1v1h-1zM11 93h1v1h-1zM23 95h1v1h-1z" /><path fill="#afb0a4" d="M16 59h1v1h-1z" /><path fill="#7a8a82" d="M17 59h5v1h-5zM39 59h5v1h-5zM23 84h9v1h-9z" /><path fill="#9ea59a" d="M38 59h1v1h-1zM7 89h1v1h-1z" /><path fill="#e0d7c5" d="M75 59h1v1h-1zM68 68h1v1h-1zM5 84h1v1h-1z" /><path fill="#818e86" d="M16 60h1v1h-1zM16 61h1v1h-1zM16 62h1v1h-1zM16 63h1v1h-1zM16 64h1v1h-1zM16 65h1v1h-1zM16 66h1v1h-1zM16 67h1v1h-1zM16 68h1v1h-1zM16 69h1v1h-1zM16 70h1v1h-1zM16 71h1v1h-1zM16 72h1v1h-1zM16 73h1v1h-1zM16 74h1v1h-1zM16 75h1v1h-1zM16 76h1v1h-1zM16 77h1v1h-1zM16 78h1v1h-1zM16 79h1v1h-1zM16 80h1v1h-1zM16 81h1v1h-1zM16 82h1v1h-1zM16 83h1v1h-1zM16 84h1v1h-1zM16 85h1v1h-1zM16 86h1v1h-1z" /><path fill="#b1b2a5" d="M38 62h1v1h-1zM38 87h1v1h-1z" /><path fill="#959d93" d="M39 62h5v1h-5zM17 87h15v1h-15zM39 87h5v1h-5z" /><path fill="#c3c0b2" d="M38 65h1v1h-1z" /><path fill="#aeb1a4" d="M39 65h5v1h-5z" /><path fill="#d1ccbc" d="M44 65h1v1h-1zM6 87h1v1h-1z" /><path fill="#e8decb" d="M50 65h1v1h-1z" /><path fill="#a9ada1" d="M51 65h14v1h-14zM73 65h2v1h-2zM83 65h2v1h-2z" /><path fill="#ded6c4" d="M72 65h1v1h-1zM66 66h1v1h-1zM67 67h1v1h-1zM69 69h1v1h-1zM94 84h1v1h-1z" /><path fill="#a5a99e" d="M82 65h1v1h-1z" /><path fill="#b4b5a8" d="M72 66h1v1h-1zM72 67h1v1h-1z" /><path fill="#dad2c1" d="M85 66h1v1h-1zM85 67h1v1h-1zM85 85h1v1h-1zM85 86h1v1h-1z" /><path fill="#5d726e" d="M95 67h1v1h-1zM4 71h1v1h-1zM76 83h1v1h-1zM77 84h1v1h-1z" /><path fill="#3e5b59" d="M63 68h1v1h-1zM95 81h1v1h-1z" /><path fill="#e3d9c8" d="M85 68h1v1h-1z" /><path fill="#5b716c" d="M4 72h1v1h-1z" /><path fill="#586f6b" d="M95 72h1v1h-1zM4 73h1v1h-1zM93 88h1v1h-1z" /><path fill="#566d69" d="M95 73h1v1h-1z" /><path fill="#415c5b" d="M99 82h1v1h-1z" /><path fill="#f0e4d1" d="M75 83h1v1h-1z" /><path fill="#f1e4d1" d="M94 83h1v1h-1zM77 85h1v1h-1zM78 86h1v1h-1z" /><path fill="#4d6764" d="M0 84h1v1h-1z" /><path fill="#7e8b83" d="M82 84h1v1h-1z" /><path fill="#e6dcca" d="M85 84h1v1h-1z" /><path fill="#4f6663" d="M99 84h1v1h-1zM84 99h1v1h-1z" /><path fill="#6d8079" d="M0 85h1v1h-1z" /><path fill="#6e7f7a" d="M99 85h1v1h-1zM85 99h1v1h-1z" /><path fill="#6e8079" d="M94 86h1v1h-1zM14 99h1v1h-1z" /><path fill="#bdbdaf" d="M16 87h1v1h-1z" /><path fill="#e3d8c7" d="M50 87h1v1h-1z" /><path fill="#c0bfb0" d="M69 87h1v1h-1z" /><path fill="#939b91" d="M80 87h1v1h-1z" /><path fill="#e9dfcc" d="M85 87h1v1h-1zM15 94h1v1h-1zM84 94h1v1h-1z" /><path fill="#4a6461" d="M98 87h1v1h-1z" /><path fill="#778680" d="M1 88h1v1h-1z" /><path fill="#798881" d="M98 88h1v1h-1z" /><path fill="#395856" d="M2 89h1v1h-1z" /><path fill="#3c5958" d="M97 89h1v1h-1zM10 97h1v1h-1z" /><path fill="#76857f" d="M2 90h1v1h-1z" /><path fill="#788880" d="M97 90h1v1h-1z" /><path fill="#4d6662" d="M3 91h1v1h-1z" /><path fill="#506865" d="M96 91h1v1h-1z" /><path fill="#99a096" d="M10 92h1v1h-1z" /><path fill="#98a095" d="M89 92h1v1h-1z" /><path fill="#89948a" d="M4 93h1v1h-1z" /><path fill="#d0caba" d="M87 93h1v1h-1z" /><path fill="#8c978d" d="M95 93h1v1h-1zM93 95h1v1h-1z" /><path fill="#7d8b82" d="M5 94h1v1h-1z" /><path fill="#828d86" d="M94 94h1v1h-1z" /><path fill="#88958b" d="M6 95h1v1h-1z" /><path fill="#4f6864" d="M8 96h1v1h-1z" /><path fill="#506966" d="M91 96h1v1h-1z" /><path fill="#7a8880" d="M9 97h1v1h-1z" /><path fill="#3d5958" d="M89 97h1v1h-1z" /><path fill="#788780" d="M90 97h1v1h-1z" /><path fill="#7a8882" d="M11 98h1v1h-1z" /><path fill="#4b6361" d="M12 98h1v1h-1z" /><path fill="#7b8a83" d="M88 98h1v1h-1z" /><path fill="#4f6764" d="M15 99h1v1h-1z" /></svg>