<svg xmlns="http://www.w3.org/2000/svg" viewBox="0 0 100 100" width="1em" height="1em"><path fill="#212121" d="M44 0h1v1h-1zM43 1h1v1h-1zM42 2h1v1h-1zM38 7h1v1h-1zM37 8h1v1h-1zM36 9h1v1h-1zM35 10h1v1h-1zM31 15h1v1h-1zM30 16h1v1h-1zM29 17h1v1h-1zM28 18h1v1h-1zM24 23h1v1h-1zM23 24h1v1h-1zM22 25h1v1h-1zM21 26h1v1h-1zM20 27h1v1h-1zM16 32h1v1h-1zM15 33h1v1h-1zM14 34h1v1h-1zM13 35h1v1h-1zM9 40h1v1h-1zM8 41h1v1h-1zM7 42h1v1h-1zM6 43h1v1h-1zM98 43h1v1h-1zM97 44h1v1h-1zM96 46h1v1h-1zM95 47h1v1h-1zM2 48h1v1h-1zM1 49h1v1h-1zM94 49h1v1h-1zM0 50h1v1h-1zM93 50h1v1h-1zM91 53h1v1h-1zM89 56h1v1h-1zM87 59h1v1h-1zM85 62h1v1h-1zM83 65h1v1h-1zM82 66h1v1h-1zM81 68h1v1h-1zM80 69h1v1h-1zM79 71h1v1h-1zM78 72h1v1h-1zM76 75h1v1h-1zM74 78h1v1h-1zM72 81h1v1h-1zM70 84h1v1h-1zM69 85h1v1h-1zM68 87h1v1h-1zM67 88h1v1h-1zM66 90h1v1h-1zM65 91h1v1h-1zM63 94h1v1h-1zM61 97h1v1h-1zM60 98h1v1h-1z" /><path fill="#222222" d="M45 0h1v1h-1zM42 3h1v1h-1zM41 4h1v1h-1zM40 5h1v1h-1zM39 6h1v1h-1zM35 11h1v1h-1zM34 12h1v1h-1zM33 13h1v1h-1zM32 14h1v1h-1zM28 19h1v1h-1zM27 20h1v1h-1zM26 21h1v1h-1zM25 22h1v1h-1zM21 27h1v1h-1zM20 28h1v1h-1zM19 29h1v1h-1zM18 30h1v1h-1zM17 31h1v1h-1zM14 35h1v1h-1zM13 36h1v1h-1zM12 37h1v1h-1zM11 38h1v1h-1zM10 39h1v1h-1zM98 42h1v1h-1zM6 44h1v1h-1zM5 45h1v1h-1zM96 45h1v1h-1zM4 46h1v1h-1zM3 47h1v1h-1zM94 48h1v1h-1zM92 51h1v1h-1zM90 54h1v1h-1zM88 57h1v1h-1zM87 58h1v1h-1zM86 60h1v1h-1zM85 61h1v1h-1zM84 63h1v1h-1zM83 64h1v1h-1zM81 67h1v1h-1zM79 70h1v1h-1zM77 73h1v1h-1zM75 76h1v1h-1zM74 77h1v1h-1zM73 79h1v1h-1zM72 80h1v1h-1zM71 82h1v1h-1zM70 83h1v1h-1zM68 86h1v1h-1zM66 89h1v1h-1zM64 92h1v1h-1zM62 95h1v1h-1z" /><path fill="#242424" d="M46 0h1v1h-1zM44 2h1v1h-1zM43 3h1v1h-1zM42 4h1v1h-1zM41 5h1v1h-1zM40 6h1v1h-1zM36 11h1v1h-1zM35 12h1v1h-1zM34 13h1v1h-1zM33 14h1v1h-1zM29 19h1v1h-1zM28 20h1v1h-1zM27 21h1v1h-1zM26 22h1v1h-1zM22 27h1v1h-1zM21 28h1v1h-1zM20 29h1v1h-1zM19 30h1v1h-1zM15 35h1v1h-1zM14 36h1v1h-1zM13 37h1v1h-1zM12 38h1v1h-1zM98 41h1v1h-1zM97 42h1v1h-1zM8 43h1v1h-1zM7 44h1v1h-1zM96 44h1v1h-1zM6 45h1v1h-1zM95 45h1v1h-1zM5 46h1v1h-1zM4 47h1v1h-1zM94 47h1v1h-1zM93 48h1v1h-1zM91 51h1v1h-1zM0 52h1v1h-1zM89 54h1v1h-1zM87 57h1v1h-1zM85 60h1v1h-1zM84 61h1v1h-1zM83 63h1v1h-1zM82 64h1v1h-1zM81 66h1v1h-1zM80 67h1v1h-1zM78 70h1v1h-1zM76 73h1v1h-1zM74 76h1v1h-1zM72 79h1v1h-1zM70 82h1v1h-1zM69 83h1v1h-1zM68 85h1v1h-1zM67 86h1v1h-1zM66 88h1v1h-1zM65 89h1v1h-1zM63 92h1v1h-1zM61 95h1v1h-1zM59 98h1v1h-1z" /><path fill="#272727" d="M47 0h1v1h-1zM46 1h1v1h-1zM42 6h1v1h-1zM41 7h1v1h-1zM40 8h1v1h-1zM39 9h1v1h-1zM35 14h1v1h-1zM34 15h1v1h-1zM33 16h1v1h-1zM32 17h1v1h-1zM28 22h1v1h-1zM27 23h1v1h-1zM26 24h1v1h-1zM25 25h1v1h-1zM24 26h1v1h-1zM20 31h1v1h-1zM19 32h1v1h-1zM18 33h1v1h-1zM17 34h1v1h-1zM13 39h1v1h-1zM12 40h1v1h-1zM97 40h1v1h-1zM11 41h1v1h-1zM10 42h1v1h-1zM96 42h1v1h-1zM95 43h1v1h-1zM93 46h1v1h-1zM6 47h1v1h-1zM5 48h1v1h-1zM4 49h1v1h-1zM91 49h1v1h-1zM3 50h1v1h-1zM89 52h1v1h-1zM0 54h1v1h-1zM87 55h1v1h-1zM86 56h1v1h-1zM85 58h1v1h-1zM84 59h1v1h-1zM83 61h1v1h-1zM82 62h1v1h-1zM80 65h1v1h-1zM78 68h1v1h-1zM76 71h1v1h-1zM74 74h1v1h-1zM72 77h1v1h-1zM71 78h1v1h-1zM70 80h1v1h-1zM69 81h1v1h-1zM68 83h1v1h-1zM67 84h1v1h-1zM65 87h1v1h-1zM63 90h1v1h-1zM61 93h1v1h-1zM59 96h1v1h-1zM58 97h1v1h-1z" /><path fill="#292929" d="M48 0h1v1h-1zM47 1h1v1h-1zM43 6h1v1h-1zM42 7h1v1h-1zM41 8h1v1h-1zM40 9h1v1h-1zM36 14h1v1h-1zM35 15h1v1h-1zM34 16h1v1h-1zM33 17h1v1h-1zM29 22h1v1h-1zM28 23h1v1h-1zM27 24h1v1h-1zM26 25h1v1h-1zM22 30h1v1h-1zM21 31h1v1h-1zM20 32h1v1h-1zM19 33h1v1h-1zM18 34h1v1h-1zM15 38h1v1h-1zM14 39h1v1h-1zM97 39h1v1h-1zM13 40h1v1h-1zM96 40h1v1h-1zM12 41h1v1h-1zM11 42h1v1h-1zM95 42h1v1h-1zM94 43h1v1h-1zM93 45h1v1h-1zM92 46h1v1h-1zM7 47h1v1h-1zM6 48h1v1h-1zM5 49h1v1h-1zM90 49h1v1h-1zM4 50h1v1h-1zM88 52h1v1h-1zM0 55h1v1h-1zM86 55h1v1h-1zM84 58h1v1h-1zM82 61h1v1h-1zM81 62h1v1h-1zM80 64h1v1h-1zM79 65h1v1h-1zM78 67h1v1h-1zM77 68h1v1h-1zM75 71h1v1h-1zM73 74h1v1h-1zM71 77h1v1h-1zM69 80h1v1h-1zM68 81h1v1h-1zM67 83h1v1h-1zM66 84h1v1h-1zM65 86h1v1h-1zM64 87h1v1h-1zM62 90h1v1h-1zM60 93h1v1h-1zM58 96h1v1h-1z" /><path fill="#2b2b2b" d="M49 0h1v1h-1zM45 5h1v1h-1zM44 6h1v1h-1zM43 7h1v1h-1zM42 8h1v1h-1zM41 9h1v1h-1zM37 14h1v1h-1zM36 15h1v1h-1zM35 16h1v1h-1zM34 17h1v1h-1zM30 22h1v1h-1zM29 23h1v1h-1zM28 24h1v1h-1zM27 25h1v1h-1zM23 30h1v1h-1zM22 31h1v1h-1zM21 32h1v1h-1zM20 33h1v1h-1zM16 38h1v1h-1zM15 39h1v1h-1zM96 39h1v1h-1zM14 40h1v1h-1zM13 41h1v1h-1zM94 42h1v1h-1zM92 45h1v1h-1zM9 46h1v1h-1zM91 46h1v1h-1zM8 47h1v1h-1zM7 48h1v1h-1zM90 48h1v1h-1zM6 49h1v1h-1zM89 49h1v1h-1zM5 50h1v1h-1zM88 51h1v1h-1zM87 52h1v1h-1zM1 55h1v1h-1zM85 55h1v1h-1zM83 58h1v1h-1zM81 61h1v1h-1zM79 64h1v1h-1zM78 65h1v1h-1zM77 67h1v1h-1zM76 68h1v1h-1zM75 70h1v1h-1zM74 71h1v1h-1zM72 74h1v1h-1zM70 77h1v1h-1zM68 80h1v1h-1zM66 83h1v1h-1zM64 86h1v1h-1zM63 87h1v1h-1zM62 89h1v1h-1zM61 90h1v1h-1zM60 92h1v1h-1zM59 93h1v1h-1zM57 96h1v1h-1z" /><path fill="#313131" d="M50 0h1v1h-1zM49 4h1v1h-1zM48 5h1v1h-1zM47 6h1v1h-1zM46 7h1v1h-1zM45 8h1v1h-1zM41 13h1v1h-1zM40 14h1v1h-1zM39 15h1v1h-1zM38 16h1v1h-1zM34 21h1v1h-1zM33 22h1v1h-1zM32 23h1v1h-1zM31 24h1v1h-1zM27 29h1v1h-1zM26 30h1v1h-1zM25 31h1v1h-1zM24 32h1v1h-1zM96 35h1v1h-1zM20 37h1v1h-1zM19 38h1v1h-1zM94 38h1v1h-1zM18 39h1v1h-1zM93 39h1v1h-1zM17 40h1v1h-1zM16 41h1v1h-1zM92 41h1v1h-1zM91 42h1v1h-1zM90 44h1v1h-1zM13 45h1v1h-1zM89 45h1v1h-1zM12 46h1v1h-1zM11 47h1v1h-1zM10 48h1v1h-1zM87 48h1v1h-1zM9 49h1v1h-1zM85 51h1v1h-1zM5 54h1v1h-1zM83 54h1v1h-1zM4 55h1v1h-1zM3 56h1v1h-1zM2 57h1v1h-1zM81 57h1v1h-1zM80 58h1v1h-1zM79 60h1v1h-1zM72 70h1v1h-1zM70 73h1v1h-1zM68 76h1v1h-1zM66 79h1v1h-1zM65 80h1v1h-1zM64 82h1v1h-1zM63 83h1v1h-1zM62 85h1v1h-1zM61 86h1v1h-1zM59 89h1v1h-1zM57 92h1v1h-1zM55 95h1v1h-1zM53 98h1v1h-1z" /><path fill="#424242" d="M51 0h1v1h-1zM56 6h1v1h-1zM55 7h1v1h-1zM54 8h1v1h-1zM53 9h1v1h-1zM49 14h1v1h-1zM48 15h1v1h-1zM47 16h1v1h-1zM46 17h1v1h-1zM42 22h1v1h-1zM41 23h1v1h-1zM93 28h1v1h-1zM92 29h1v1h-1zM90 32h1v1h-1zM88 35h1v1h-1zM22 36h1v1h-1zM86 38h1v1h-1zM84 41h1v1h-1zM13 55h1v1h-1zM12 56h1v1h-1zM11 57h1v1h-1zM10 58h1v1h-1zM6 63h1v1h-1zM5 64h1v1h-1zM4 65h1v1h-1zM3 66h1v1h-1zM3 67h1v1h-1zM60 76h1v1h-1zM58 79h1v1h-1zM56 82h1v1h-1zM54 85h1v1h-1zM53 86h1v1h-1zM52 88h1v1h-1zM51 89h1v1h-1zM50 91h1v1h-1zM49 92h1v1h-1zM47 95h1v1h-1zM45 98h1v1h-1z" /><path fill="#3e3e3e" d="M52 0h1v1h-1zM57 2h1v1h-1zM54 6h1v1h-1zM53 7h1v1h-1zM52 8h1v1h-1zM51 9h1v1h-1zM50 10h1v1h-1zM46 15h1v1h-1zM45 16h1v1h-1zM44 17h1v1h-1zM43 18h1v1h-1zM39 23h1v1h-1zM38 24h1v1h-1zM94 29h1v1h-1zM27 30h1v1h-1zM92 32h1v1h-1zM90 35h1v1h-1zM89 36h1v1h-1zM88 38h1v1h-1zM87 39h1v1h-1zM86 41h1v1h-1zM85 42h1v1h-1zM83 45h1v1h-1zM17 48h1v1h-1zM16 49h1v1h-1zM15 50h1v1h-1zM14 51h1v1h-1zM10 56h1v1h-1zM9 57h1v1h-1zM8 58h1v1h-1zM7 59h1v1h-1zM3 64h1v1h-1zM2 65h1v1h-1zM62 76h1v1h-1zM61 77h1v1h-1zM60 79h1v1h-1zM59 80h1v1h-1zM58 82h1v1h-1zM57 83h1v1h-1zM55 86h1v1h-1zM53 89h1v1h-1zM51 92h1v1h-1zM49 95h1v1h-1zM48 96h1v1h-1zM47 98h1v1h-1z" /><path fill="#373737" d="M53 0h1v1h-1zM53 3h1v1h-1zM52 4h1v1h-1zM51 5h1v1h-1zM50 6h1v1h-1zM49 7h1v1h-1zM45 12h1v1h-1zM44 13h1v1h-1zM43 14h1v1h-1zM42 15h1v1h-1zM38 20h1v1h-1zM37 21h1v1h-1zM36 22h1v1h-1zM35 23h1v1h-1zM95 32h1v1h-1zM94 34h1v1h-1zM93 35h1v1h-1zM91 38h1v1h-1zM89 41h1v1h-1zM87 44h1v1h-1zM16 45h1v1h-1zM15 46h1v1h-1zM14 47h1v1h-1zM85 47h1v1h-1zM13 48h1v1h-1zM83 50h1v1h-1zM9 53h1v1h-1zM8 54h1v1h-1zM7 55h1v1h-1zM6 56h1v1h-1zM2 61h1v1h-1zM67 73h1v1h-1zM66 75h1v1h-1zM65 76h1v1h-1zM64 78h1v1h-1zM63 79h1v1h-1zM61 82h1v1h-1zM59 85h1v1h-1zM57 88h1v1h-1zM55 91h1v1h-1zM54 92h1v1h-1zM53 94h1v1h-1zM52 95h1v1h-1zM51 97h1v1h-1zM50 98h1v1h-1z" /><path fill="#4f4f4f" d="M54 0h1v1h-1zM63 4h1v1h-1zM61 8h1v1h-1zM60 9h1v1h-1zM59 10h1v1h-1zM58 11h1v1h-1zM54 16h1v1h-1zM53 17h1v1h-1zM52 18h1v1h-1zM51 19h1v1h-1zM91 22h1v1h-1zM90 23h1v1h-1zM47 24h1v1h-1zM89 25h1v1h-1zM88 26h1v1h-1zM86 29h1v1h-1zM84 32h1v1h-1zM16 59h1v1h-1zM15 60h1v1h-1zM11 65h1v1h-1zM10 66h1v1h-1zM9 67h1v1h-1zM8 68h1v1h-1zM7 69h1v1h-1zM5 72h1v1h-1zM54 76h1v1h-1zM52 79h1v1h-1zM50 82h1v1h-1zM49 83h1v1h-1zM48 85h1v1h-1zM47 86h1v1h-1zM46 88h1v1h-1zM45 89h1v1h-1zM43 92h1v1h-1zM41 95h1v1h-1z" /><path fill="#191919" d="M39 1h1v1h-1zM38 2h1v1h-1zM37 3h1v1h-1zM33 8h1v1h-1zM32 9h1v1h-1zM31 10h1v1h-1zM30 11h1v1h-1zM26 16h1v1h-1zM25 17h1v1h-1zM24 18h1v1h-1zM23 19h1v1h-1zM22 20h1v1h-1zM18 25h1v1h-1zM17 26h1v1h-1zM16 27h1v1h-1zM15 28h1v1h-1zM11 33h1v1h-1zM10 34h1v1h-1zM9 35h1v1h-1zM8 36h1v1h-1zM4 41h1v1h-1zM3 42h1v1h-1zM2 43h1v1h-1zM1 44h1v1h-1zM0 46h1v1h-1zM98 48h1v1h-1zM97 50h1v1h-1zM96 51h1v1h-1zM95 53h1v1h-1zM94 54h1v1h-1zM92 57h1v1h-1zM90 60h1v1h-1zM88 63h1v1h-1zM86 66h1v1h-1zM85 67h1v1h-1zM84 69h1v1h-1zM83 70h1v1h-1zM82 72h1v1h-1zM81 73h1v1h-1zM79 76h1v1h-1zM77 79h1v1h-1zM75 82h1v1h-1zM73 85h1v1h-1zM71 88h1v1h-1zM70 89h1v1h-1zM69 91h1v1h-1zM68 92h1v1h-1zM67 94h1v1h-1zM66 95h1v1h-1z" /><path fill="#1a1a1a" d="M40 1h1v1h-1zM37 4h1v1h-1zM36 5h1v1h-1zM35 6h1v1h-1zM34 7h1v1h-1zM30 12h1v1h-1zM29 13h1v1h-1zM28 14h1v1h-1zM27 15h1v1h-1zM23 20h1v1h-1zM22 21h1v1h-1zM21 22h1v1h-1zM20 23h1v1h-1zM19 24h1v1h-1zM16 28h1v1h-1zM15 29h1v1h-1zM14 30h1v1h-1zM13 31h1v1h-1zM12 32h1v1h-1zM8 37h1v1h-1zM7 38h1v1h-1zM6 39h1v1h-1zM5 40h1v1h-1zM1 45h1v1h-1zM99 46h1v1h-1zM97 49h1v1h-1zM95 52h1v1h-1zM93 55h1v1h-1zM91 58h1v1h-1zM90 59h1v1h-1zM89 61h1v1h-1zM88 62h1v1h-1zM87 64h1v1h-1zM86 65h1v1h-1zM84 68h1v1h-1zM82 71h1v1h-1zM80 74h1v1h-1zM78 77h1v1h-1zM76 80h1v1h-1zM75 81h1v1h-1zM74 83h1v1h-1zM73 84h1v1h-1zM72 86h1v1h-1zM71 87h1v1h-1zM69 90h1v1h-1zM67 93h1v1h-1zM65 96h1v1h-1zM64 97h1v1h-1z" /><path fill="#1d1d1d" d="M41 1h1v1h-1zM40 2h1v1h-1zM39 3h1v1h-1zM36 7h1v1h-1zM35 8h1v1h-1zM34 9h1v1h-1zM33 10h1v1h-1zM32 11h1v1h-1zM28 16h1v1h-1zM27 17h1v1h-1zM26 18h1v1h-1zM25 19h1v1h-1zM21 24h1v1h-1zM20 25h1v1h-1zM19 26h1v1h-1zM18 27h1v1h-1zM14 32h1v1h-1zM13 33h1v1h-1zM12 34h1v1h-1zM11 35h1v1h-1zM7 40h1v1h-1zM6 41h1v1h-1zM5 42h1v1h-1zM4 43h1v1h-1zM3 44h1v1h-1zM99 44h1v1h-1zM97 47h1v1h-1zM95 50h1v1h-1zM93 53h1v1h-1zM91 56h1v1h-1zM90 57h1v1h-1zM89 59h1v1h-1zM88 60h1v1h-1zM87 62h1v1h-1zM86 63h1v1h-1zM84 66h1v1h-1zM82 69h1v1h-1zM80 72h1v1h-1zM78 75h1v1h-1zM77 76h1v1h-1zM76 78h1v1h-1zM75 79h1v1h-1zM74 81h1v1h-1zM73 82h1v1h-1zM71 85h1v1h-1zM69 88h1v1h-1zM67 91h1v1h-1zM65 94h1v1h-1zM63 97h1v1h-1z" /><path fill="#1f1f1f" d="M42 1h1v1h-1zM41 2h1v1h-1zM37 7h1v1h-1zM36 8h1v1h-1zM35 9h1v1h-1zM34 10h1v1h-1zM30 15h1v1h-1zM29 16h1v1h-1zM28 17h1v1h-1zM27 18h1v1h-1zM26 19h1v1h-1zM22 24h1v1h-1zM21 25h1v1h-1zM20 26h1v1h-1zM19 27h1v1h-1zM15 32h1v1h-1zM14 33h1v1h-1zM13 34h1v1h-1zM12 35h1v1h-1zM8 40h1v1h-1zM7 41h1v1h-1zM6 42h1v1h-1zM5 43h1v1h-1zM98 44h1v1h-1zM97 46h1v1h-1zM96 47h1v1h-1zM1 48h1v1h-1zM94 50h1v1h-1zM92 53h1v1h-1zM90 56h1v1h-1zM88 59h1v1h-1zM87 60h1v1h-1zM86 62h1v1h-1zM85 63h1v1h-1zM84 65h1v1h-1zM83 66h1v1h-1zM81 69h1v1h-1zM79 72h1v1h-1zM77 75h1v1h-1zM75 78h1v1h-1zM73 81h1v1h-1zM72 82h1v1h-1zM71 84h1v1h-1zM70 85h1v1h-1zM69 87h1v1h-1zM68 88h1v1h-1zM66 91h1v1h-1zM64 94h1v1h-1zM62 97h1v1h-1zM61 98h1v1h-1z" /><path fill="#232323" d="M44 1h1v1h-1zM43 2h1v1h-1zM39 7h1v1h-1zM38 8h1v1h-1zM37 9h1v1h-1zM36 10h1v1h-1zM32 15h1v1h-1zM31 16h1v1h-1zM30 17h1v1h-1zM29 18h1v1h-1zM25 23h1v1h-1zM24 24h1v1h-1zM23 25h1v1h-1zM22 26h1v1h-1zM18 31h1v1h-1zM17 32h1v1h-1zM16 33h1v1h-1zM15 34h1v1h-1zM11 39h1v1h-1zM10 40h1v1h-1zM9 41h1v1h-1zM8 42h1v1h-1zM7 43h1v1h-1zM97 43h1v1h-1zM95 46h1v1h-1zM3 48h1v1h-1zM2 49h1v1h-1zM93 49h1v1h-1zM1 50h1v1h-1zM92 50h1v1h-1zM0 51h1v1h-1zM91 52h1v1h-1zM90 53h1v1h-1zM89 55h1v1h-1zM88 56h1v1h-1zM86 59h1v1h-1zM84 62h1v1h-1zM82 65h1v1h-1zM80 68h1v1h-1zM79 69h1v1h-1zM78 71h1v1h-1zM77 72h1v1h-1zM76 74h1v1h-1zM75 75h1v1h-1zM73 78h1v1h-1zM71 81h1v1h-1zM69 84h1v1h-1zM67 87h1v1h-1zM65 90h1v1h-1zM64 91h1v1h-1zM63 93h1v1h-1zM62 94h1v1h-1zM61 96h1v1h-1zM60 97h1v1h-1z" /><path fill="#252525" d="M45 1h1v1h-1zM41 6h1v1h-1zM40 7h1v1h-1zM39 8h1v1h-1zM38 9h1v1h-1zM37 10h1v1h-1zM34 14h1v1h-1zM33 15h1v1h-1zM32 16h1v1h-1zM31 17h1v1h-1zM30 18h1v1h-1zM26 23h1v1h-1zM25 24h1v1h-1zM24 25h1v1h-1zM23 26h1v1h-1zM19 31h1v1h-1zM18 32h1v1h-1zM17 33h1v1h-1zM16 34h1v1h-1zM12 39h1v1h-1zM11 40h1v1h-1zM98 40h1v1h-1zM10 41h1v1h-1zM9 42h1v1h-1zM96 43h1v1h-1zM94 46h1v1h-1zM5 47h1v1h-1zM4 48h1v1h-1zM3 49h1v1h-1zM92 49h1v1h-1zM2 50h1v1h-1zM1 51h1v1h-1zM90 52h1v1h-1zM89 53h1v1h-1zM88 55h1v1h-1zM87 56h1v1h-1zM86 58h1v1h-1zM85 59h1v1h-1zM83 62h1v1h-1zM81 65h1v1h-1zM79 68h1v1h-1zM77 71h1v1h-1zM75 74h1v1h-1zM74 75h1v1h-1zM73 77h1v1h-1zM72 78h1v1h-1zM71 80h1v1h-1zM70 81h1v1h-1zM68 84h1v1h-1zM66 87h1v1h-1zM64 90h1v1h-1zM62 93h1v1h-1zM61 94h1v1h-1zM60 96h1v1h-1zM59 97h1v1h-1z" /><path fill="#2a2a2a" d="M48 1h1v1h-1zM47 2h1v1h-1zM46 3h1v1h-1zM45 4h1v1h-1zM44 5h1v1h-1zM40 10h1v1h-1zM39 11h1v1h-1zM38 12h1v1h-1zM37 13h1v1h-1zM33 18h1v1h-1zM32 19h1v1h-1zM31 20h1v1h-1zM30 21h1v1h-1zM26 26h1v1h-1zM25 27h1v1h-1zM24 28h1v1h-1zM23 29h1v1h-1zM19 34h1v1h-1zM18 35h1v1h-1zM17 36h1v1h-1zM16 37h1v1h-1zM97 38h1v1h-1zM95 41h1v1h-1zM12 42h1v1h-1zM11 43h1v1h-1zM10 44h1v1h-1zM93 44h1v1h-1zM9 45h1v1h-1zM8 46h1v1h-1zM91 47h1v1h-1zM89 50h1v1h-1zM4 51h1v1h-1zM3 52h1v1h-1zM2 53h1v1h-1zM87 53h1v1h-1zM1 54h1v1h-1zM86 54h1v1h-1zM0 56h1v1h-1zM85 56h1v1h-1zM84 57h1v1h-1zM83 59h1v1h-1zM82 60h1v1h-1zM80 63h1v1h-1zM78 66h1v1h-1zM76 69h1v1h-1zM74 72h1v1h-1zM73 73h1v1h-1zM72 75h1v1h-1zM71 76h1v1h-1zM70 78h1v1h-1zM69 79h1v1h-1zM67 82h1v1h-1zM65 85h1v1h-1zM63 88h1v1h-1zM61 91h1v1h-1zM59 94h1v1h-1zM58 95h1v1h-1zM57 97h1v1h-1zM56 98h1v1h-1zM55 99h1v1h-1z" /><path fill="#2c2c2c" d="M49 1h1v1h-1zM48 2h1v1h-1zM47 3h1v1h-1zM46 4h1v1h-1zM42 9h1v1h-1zM41 10h1v1h-1zM40 11h1v1h-1zM39 12h1v1h-1zM38 13h1v1h-1zM35 17h1v1h-1zM34 18h1v1h-1zM33 19h1v1h-1zM32 20h1v1h-1zM31 21h1v1h-1zM27 26h1v1h-1zM26 27h1v1h-1zM25 28h1v1h-1zM24 29h1v1h-1zM20 34h1v1h-1zM19 35h1v1h-1zM18 36h1v1h-1zM17 37h1v1h-1zM97 37h1v1h-1zM96 38h1v1h-1zM95 40h1v1h-1zM94 41h1v1h-1zM13 42h1v1h-1zM12 43h1v1h-1zM93 43h1v1h-1zM11 44h1v1h-1zM92 44h1v1h-1zM10 45h1v1h-1zM90 47h1v1h-1zM6 50h1v1h-1zM88 50h1v1h-1zM5 51h1v1h-1zM4 52h1v1h-1zM3 53h1v1h-1zM86 53h1v1h-1zM2 54h1v1h-1zM84 56h1v1h-1zM83 57h1v1h-1zM82 59h1v1h-1zM81 60h1v1h-1zM80 62h1v1h-1zM79 63h1v1h-1zM77 66h1v1h-1zM75 69h1v1h-1zM73 72h1v1h-1zM71 75h1v1h-1zM69 78h1v1h-1zM68 79h1v1h-1zM67 81h1v1h-1zM66 82h1v1h-1zM65 84h1v1h-1zM64 85h1v1h-1zM62 88h1v1h-1zM60 91h1v1h-1zM58 94h1v1h-1zM56 97h1v1h-1zM55 98h1v1h-1z" /><path fill="#2e2e2e" d="M50 1h1v1h-1zM49 2h1v1h-1zM48 3h1v1h-1zM47 4h1v1h-1zM43 9h1v1h-1zM42 10h1v1h-1zM41 11h1v1h-1zM40 12h1v1h-1zM36 17h1v1h-1zM35 18h1v1h-1zM34 19h1v1h-1zM33 20h1v1h-1zM29 25h1v1h-1zM28 26h1v1h-1zM27 27h1v1h-1zM26 28h1v1h-1zM25 29h1v1h-1zM21 34h1v1h-1zM20 35h1v1h-1zM97 35h1v1h-1zM19 36h1v1h-1zM18 37h1v1h-1zM96 37h1v1h-1zM94 40h1v1h-1zM93 41h1v1h-1zM14 42h1v1h-1zM13 43h1v1h-1zM92 43h1v1h-1zM12 44h1v1h-1zM91 44h1v1h-1zM11 45h1v1h-1zM90 46h1v1h-1zM89 47h1v1h-1zM7 50h1v1h-1zM87 50h1v1h-1zM6 51h1v1h-1zM5 52h1v1h-1zM4 53h1v1h-1zM85 53h1v1h-1zM83 56h1v1h-1zM81 59h1v1h-1zM79 62h1v1h-1zM78 63h1v1h-1zM77 65h1v1h-1zM76 66h1v1h-1zM75 68h1v1h-1zM74 69h1v1h-1zM72 72h1v1h-1zM70 75h1v1h-1zM68 78h1v1h-1zM66 81h1v1h-1zM65 82h1v1h-1zM64 84h1v1h-1zM63 85h1v1h-1zM62 87h1v1h-1zM61 88h1v1h-1zM59 91h1v1h-1zM57 94h1v1h-1zM55 97h1v1h-1z" /><path fill="#303030" d="M51 1h1v1h-1zM50 2h1v1h-1zM49 3h1v1h-1zM48 4h1v1h-1zM44 9h1v1h-1zM43 10h1v1h-1zM42 11h1v1h-1zM41 12h1v1h-1zM37 17h1v1h-1zM36 18h1v1h-1zM35 19h1v1h-1zM34 20h1v1h-1zM30 25h1v1h-1zM29 26h1v1h-1zM28 27h1v1h-1zM27 28h1v1h-1zM23 33h1v1h-1zM22 34h1v1h-1zM21 35h1v1h-1zM20 36h1v1h-1zM19 37h1v1h-1zM95 37h1v1h-1zM93 40h1v1h-1zM15 42h1v1h-1zM14 43h1v1h-1zM91 43h1v1h-1zM13 44h1v1h-1zM12 45h1v1h-1zM89 46h1v1h-1zM88 47h1v1h-1zM87 49h1v1h-1zM8 50h1v1h-1zM86 50h1v1h-1zM7 51h1v1h-1zM6 52h1v1h-1zM85 52h1v1h-1zM5 53h1v1h-1zM84 53h1v1h-1zM82 56h1v1h-1zM1 58h1v1h-1zM80 59h1v1h-1zM78 62h1v1h-1zM76 65h1v1h-1zM74 68h1v1h-1zM73 69h1v1h-1zM72 71h1v1h-1zM71 72h1v1h-1zM69 75h1v1h-1zM67 78h1v1h-1zM65 81h1v1h-1zM63 84h1v1h-1zM61 87h1v1h-1zM60 88h1v1h-1zM59 90h1v1h-1zM58 91h1v1h-1zM57 93h1v1h-1zM56 94h1v1h-1zM54 97h1v1h-1zM52 99h1v1h-1z" /><path fill="#323232" d="M52 1h1v1h-1zM51 2h1v1h-1zM50 3h1v1h-1zM46 8h1v1h-1zM45 9h1v1h-1zM44 10h1v1h-1zM43 11h1v1h-1zM42 12h1v1h-1zM38 17h1v1h-1zM37 18h1v1h-1zM36 19h1v1h-1zM35 20h1v1h-1zM31 25h1v1h-1zM30 26h1v1h-1zM29 27h1v1h-1zM28 28h1v1h-1zM23 34h1v1h-1zM96 34h1v1h-1zM22 35h1v1h-1zM21 36h1v1h-1zM95 36h1v1h-1zM94 37h1v1h-1zM92 40h1v1h-1zM17 41h1v1h-1zM16 42h1v1h-1zM15 43h1v1h-1zM90 43h1v1h-1zM14 44h1v1h-1zM88 46h1v1h-1zM10 49h1v1h-1zM86 49h1v1h-1zM9 50h1v1h-1zM85 50h1v1h-1zM8 51h1v1h-1zM7 52h1v1h-1zM84 52h1v1h-1zM6 53h1v1h-1zM83 53h1v1h-1zM82 55h1v1h-1zM81 56h1v1h-1zM2 58h1v1h-1zM1 59h1v1h-1zM75 66h1v1h-1zM71 71h1v1h-1zM70 72h1v1h-1zM69 74h1v1h-1zM68 75h1v1h-1zM67 77h1v1h-1zM66 78h1v1h-1zM64 81h1v1h-1zM62 84h1v1h-1zM60 87h1v1h-1zM58 90h1v1h-1zM57 91h1v1h-1zM56 93h1v1h-1zM55 94h1v1h-1zM54 96h1v1h-1zM53 97h1v1h-1z" /><path fill="#343434" d="M53 1h1v1h-1zM52 2h1v1h-1zM51 3h1v1h-1zM47 8h1v1h-1zM46 9h1v1h-1zM45 10h1v1h-1zM44 11h1v1h-1zM40 16h1v1h-1zM39 17h1v1h-1zM38 18h1v1h-1zM37 19h1v1h-1zM36 20h1v1h-1zM33 24h1v1h-1zM32 25h1v1h-1zM31 26h1v1h-1zM30 27h1v1h-1zM29 28h1v1h-1zM28 29h1v1h-1zM96 33h1v1h-1zM95 34h1v1h-1zM94 36h1v1h-1zM93 37h1v1h-1zM92 39h1v1h-1zM91 40h1v1h-1zM18 41h1v1h-1zM17 42h1v1h-1zM16 43h1v1h-1zM89 43h1v1h-1zM15 44h1v1h-1zM87 46h1v1h-1zM11 49h1v1h-1zM85 49h1v1h-1zM10 50h1v1h-1zM9 51h1v1h-1zM8 52h1v1h-1zM83 52h1v1h-1zM4 57h1v1h-1zM3 58h1v1h-1zM2 59h1v1h-1zM1 60h1v1h-1zM1 61h1v1h-1zM70 71h1v1h-1zM68 74h1v1h-1zM67 75h1v1h-1zM66 77h1v1h-1zM65 78h1v1h-1zM64 80h1v1h-1zM63 81h1v1h-1zM61 84h1v1h-1zM59 87h1v1h-1zM57 90h1v1h-1zM55 93h1v1h-1zM53 96h1v1h-1zM52 97h1v1h-1zM51 99h1v1h-1z" /><path fill="#363636" d="M54 1h1v1h-1zM53 2h1v1h-1zM52 3h1v1h-1zM48 8h1v1h-1zM47 9h1v1h-1zM46 10h1v1h-1zM45 11h1v1h-1zM41 16h1v1h-1zM40 17h1v1h-1zM39 18h1v1h-1zM38 19h1v1h-1zM34 24h1v1h-1zM33 25h1v1h-1zM32 26h1v1h-1zM24 33h1v1h-1zM95 33h1v1h-1zM93 36h1v1h-1zM92 37h1v1h-1zM91 39h1v1h-1zM90 40h1v1h-1zM19 41h1v1h-1zM18 42h1v1h-1zM89 42h1v1h-1zM17 43h1v1h-1zM88 43h1v1h-1zM16 44h1v1h-1zM87 45h1v1h-1zM86 46h1v1h-1zM12 49h1v1h-1zM84 49h1v1h-1zM11 50h1v1h-1zM10 51h1v1h-1zM9 52h1v1h-1zM82 52h1v1h-1zM5 57h1v1h-1zM4 58h1v1h-1zM3 59h1v1h-1zM2 60h1v1h-1zM74 67h1v1h-1zM67 74h1v1h-1zM65 77h1v1h-1zM63 80h1v1h-1zM62 81h1v1h-1zM61 83h1v1h-1zM60 84h1v1h-1zM59 86h1v1h-1zM58 87h1v1h-1zM56 90h1v1h-1zM54 93h1v1h-1zM52 96h1v1h-1z" /><path fill="#383838" d="M55 1h1v1h-1zM54 2h1v1h-1zM50 7h1v1h-1zM49 8h1v1h-1zM48 9h1v1h-1zM47 10h1v1h-1zM46 11h1v1h-1zM42 16h1v1h-1zM41 17h1v1h-1zM40 18h1v1h-1zM39 19h1v1h-1zM35 24h1v1h-1zM34 25h1v1h-1zM94 33h1v1h-1zM92 36h1v1h-1zM90 39h1v1h-1zM88 42h1v1h-1zM18 43h1v1h-1zM87 43h1v1h-1zM17 44h1v1h-1zM86 45h1v1h-1zM85 46h1v1h-1zM14 48h1v1h-1zM84 48h1v1h-1zM13 49h1v1h-1zM83 49h1v1h-1zM12 50h1v1h-1zM11 51h1v1h-1zM10 52h1v1h-1zM81 55h1v1h-1zM6 57h1v1h-1zM5 58h1v1h-1zM4 59h1v1h-1zM3 60h1v1h-1zM72 69h1v1h-1zM66 74h1v1h-1zM64 77h1v1h-1zM62 80h1v1h-1zM60 83h1v1h-1zM59 84h1v1h-1zM58 86h1v1h-1zM57 87h1v1h-1zM56 89h1v1h-1zM55 90h1v1h-1zM53 93h1v1h-1zM51 96h1v1h-1zM49 99h1v1h-1z" /><path fill="#3b3b3b" d="M56 1h1v1h-1zM55 3h1v1h-1zM54 4h1v1h-1zM53 5h1v1h-1zM52 6h1v1h-1zM48 11h1v1h-1zM47 12h1v1h-1zM46 13h1v1h-1zM45 14h1v1h-1zM41 19h1v1h-1zM40 20h1v1h-1zM39 21h1v1h-1zM38 22h1v1h-1zM37 23h1v1h-1zM35 25h1v1h-1zM95 29h1v1h-1zM94 31h1v1h-1zM92 34h1v1h-1zM90 37h1v1h-1zM89 38h1v1h-1zM88 40h1v1h-1zM87 41h1v1h-1zM86 43h1v1h-1zM85 44h1v1h-1zM17 46h1v1h-1zM16 47h1v1h-1zM83 47h1v1h-1zM12 52h1v1h-1zM11 53h1v1h-1zM10 54h1v1h-1zM9 55h1v1h-1zM5 60h1v1h-1zM4 61h1v1h-1zM3 62h1v1h-1zM2 63h1v1h-1zM2 64h1v1h-1zM64 75h1v1h-1zM62 78h1v1h-1zM61 79h1v1h-1zM60 81h1v1h-1zM59 82h1v1h-1zM58 84h1v1h-1zM57 85h1v1h-1zM55 88h1v1h-1zM53 91h1v1h-1zM51 94h1v1h-1zM49 97h1v1h-1z" /><path fill="#575757" d="M57 1h1v1h-1zM66 7h1v1h-1zM65 8h1v1h-1zM64 9h1v1h-1zM63 10h1v1h-1zM59 15h1v1h-1zM58 16h1v1h-1zM57 17h1v1h-1zM56 18h1v1h-1zM88 21h1v1h-1zM87 22h1v1h-1zM52 23h1v1h-1zM51 24h1v1h-1zM50 25h1v1h-1zM85 25h1v1h-1zM83 28h1v1h-1zM16 64h1v1h-1zM15 65h1v1h-1zM14 66h1v1h-1zM13 67h1v1h-1zM9 72h1v1h-1zM8 73h1v1h-1zM7 74h1v1h-1zM49 78h1v1h-1zM48 79h1v1h-1zM47 81h1v1h-1zM46 82h1v1h-1zM45 84h1v1h-1zM44 85h1v1h-1zM42 88h1v1h-1zM40 91h1v1h-1zM38 94h1v1h-1z" /><path fill="#8c8c8c" d="M58 1h1v1h-1zM73 6h1v1h-1zM72 8h1v1h-1zM79 24h1v1h-1zM76 27h1v1h-1zM75 28h1v1h-1zM74 29h1v1h-1zM73 30h1v1h-1zM69 35h1v1h-1zM68 36h1v1h-1zM67 37h1v1h-1zM82 37h1v1h-1zM66 38h1v1h-1zM65 39h1v1h-1zM17 59h1v1h-1zM36 61h1v1h-1zM35 62h1v1h-1zM34 64h1v1h-1zM33 65h1v1h-1zM31 68h1v1h-1zM29 71h1v1h-1zM27 74h1v1h-1zM54 75h1v1h-1zM58 75h1v1h-1zM25 77h1v1h-1zM23 80h1v1h-1zM24 86h1v1h-1zM23 87h1v1h-1zM22 88h1v1h-1z" /><path fill="#a8a8a8" d="M59 1h1v1h-1zM80 39h1v1h-1zM79 40h1v1h-1zM36 41h1v1h-1zM78 41h1v1h-1zM77 42h1v1h-1zM82 42h1v1h-1zM76 43h1v1h-1zM33 46h1v1h-1zM72 48h1v1h-1zM31 49h1v1h-1zM71 49h1v1h-1zM70 50h1v1h-1zM69 51h1v1h-1zM29 52h1v1h-1zM27 55h1v1h-1zM65 56h1v1h-1zM64 57h1v1h-1zM25 58h1v1h-1zM24 59h1v1h-1zM23 61h1v1h-1zM22 62h1v1h-1zM21 64h1v1h-1zM20 65h1v1h-1zM31 95h1v1h-1z" /><path fill="#aaaaaa" d="M60 1h1v1h-1zM62 2h1v1h-1zM46 25h1v1h-1zM46 26h1v1h-1zM45 27h1v1h-1zM44 28h1v1h-1zM81 39h1v1h-1zM36 40h1v1h-1zM80 40h1v1h-1zM79 41h1v1h-1zM35 42h1v1h-1zM78 42h1v1h-1zM34 43h1v1h-1zM33 45h1v1h-1zM32 46h1v1h-1zM74 47h1v1h-1zM31 48h1v1h-1zM73 48h1v1h-1zM30 49h1v1h-1zM72 49h1v1h-1zM71 50h1v1h-1zM28 52h1v1h-1zM26 55h1v1h-1zM67 55h1v1h-1zM66 56h1v1h-1zM65 57h1v1h-1zM24 58h1v1h-1zM64 58h1v1h-1zM22 61h1v1h-1zM21 62h1v1h-1zM20 64h1v1h-1zM19 65h1v1h-1z" /><path fill="#121212" d="M35 2h1v1h-1zM32 5h1v1h-1zM31 6h1v1h-1zM30 7h1v1h-1zM29 8h1v1h-1zM25 13h1v1h-1zM24 14h1v1h-1zM23 15h1v1h-1zM22 16h1v1h-1zM21 17h1v1h-1zM17 22h1v1h-1zM16 23h1v1h-1zM15 24h1v1h-1zM14 25h1v1h-1zM10 30h1v1h-1zM9 31h1v1h-1zM8 32h1v1h-1zM7 33h1v1h-1zM3 38h1v1h-1zM2 39h1v1h-1zM1 40h1v1h-1zM99 51h1v1h-1zM98 53h1v1h-1zM96 56h1v1h-1zM94 59h1v1h-1zM92 62h1v1h-1zM91 63h1v1h-1zM90 65h1v1h-1zM89 66h1v1h-1zM88 68h1v1h-1zM87 69h1v1h-1zM85 72h1v1h-1zM83 75h1v1h-1zM81 78h1v1h-1zM79 81h1v1h-1zM77 84h1v1h-1zM76 85h1v1h-1zM75 87h1v1h-1zM74 88h1v1h-1zM73 90h1v1h-1zM72 91h1v1h-1zM70 94h1v1h-1zM69 95h1v1h-1z" /><path fill="#141414" d="M36 2h1v1h-1zM33 5h1v1h-1zM32 6h1v1h-1zM31 7h1v1h-1zM30 8h1v1h-1zM26 13h1v1h-1zM25 14h1v1h-1zM24 15h1v1h-1zM23 16h1v1h-1zM19 21h1v1h-1zM18 22h1v1h-1zM17 23h1v1h-1zM16 24h1v1h-1zM12 29h1v1h-1zM11 30h1v1h-1zM10 31h1v1h-1zM9 32h1v1h-1zM8 33h1v1h-1zM4 38h1v1h-1zM3 39h1v1h-1zM2 40h1v1h-1zM1 41h1v1h-1zM98 52h1v1h-1zM97 53h1v1h-1zM95 56h1v1h-1zM93 59h1v1h-1zM91 62h1v1h-1zM89 65h1v1h-1zM87 68h1v1h-1zM86 69h1v1h-1zM85 71h1v1h-1zM84 72h1v1h-1zM83 74h1v1h-1zM82 75h1v1h-1zM80 78h1v1h-1zM78 81h1v1h-1zM76 84h1v1h-1zM74 87h1v1h-1zM73 88h1v1h-1zM72 90h1v1h-1zM71 91h1v1h-1zM70 93h1v1h-1zM69 94h1v1h-1z" /><path fill="#171717" d="M37 2h1v1h-1zM36 3h1v1h-1zM32 8h1v1h-1zM31 9h1v1h-1zM30 10h1v1h-1zM29 11h1v1h-1zM28 12h1v1h-1zM24 17h1v1h-1zM23 18h1v1h-1zM22 19h1v1h-1zM21 20h1v1h-1zM17 25h1v1h-1zM16 26h1v1h-1zM15 27h1v1h-1zM14 28h1v1h-1zM10 33h1v1h-1zM9 34h1v1h-1zM8 35h1v1h-1zM7 36h1v1h-1zM3 41h1v1h-1zM2 42h1v1h-1zM1 43h1v1h-1zM0 44h1v1h-1zM0 45h1v1h-1zM97 51h1v1h-1zM95 54h1v1h-1zM93 57h1v1h-1zM91 60h1v1h-1zM89 63h1v1h-1zM88 64h1v1h-1zM87 66h1v1h-1zM86 67h1v1h-1zM85 69h1v1h-1zM84 70h1v1h-1zM82 73h1v1h-1zM80 76h1v1h-1zM78 79h1v1h-1zM76 82h1v1h-1zM75 83h1v1h-1zM74 85h1v1h-1zM73 86h1v1h-1zM72 88h1v1h-1zM71 89h1v1h-1zM69 92h1v1h-1zM67 95h1v1h-1zM66 96h1v1h-1z" /><path fill="#1b1b1b" d="M39 2h1v1h-1zM38 3h1v1h-1zM34 8h1v1h-1zM33 9h1v1h-1zM32 10h1v1h-1zM31 11h1v1h-1zM27 16h1v1h-1zM26 17h1v1h-1zM25 18h1v1h-1zM24 19h1v1h-1zM20 24h1v1h-1zM19 25h1v1h-1zM18 26h1v1h-1zM17 27h1v1h-1zM13 32h1v1h-1zM12 33h1v1h-1zM11 34h1v1h-1zM10 35h1v1h-1zM9 36h1v1h-1zM5 41h1v1h-1zM4 42h1v1h-1zM3 43h1v1h-1zM2 44h1v1h-1zM99 45h1v1h-1zM0 47h1v1h-1zM98 47h1v1h-1zM96 50h1v1h-1zM95 51h1v1h-1zM94 53h1v1h-1zM93 54h1v1h-1zM92 56h1v1h-1zM91 57h1v1h-1zM89 60h1v1h-1zM87 63h1v1h-1zM85 66h1v1h-1zM83 69h1v1h-1zM81 72h1v1h-1zM80 73h1v1h-1zM79 75h1v1h-1zM78 76h1v1h-1zM77 78h1v1h-1zM76 79h1v1h-1zM74 82h1v1h-1zM72 85h1v1h-1zM70 88h1v1h-1zM68 91h1v1h-1zM67 92h1v1h-1zM66 94h1v1h-1zM65 95h1v1h-1z" /><path fill="#262626" d="M45 2h1v1h-1zM44 3h1v1h-1zM43 4h1v1h-1zM42 5h1v1h-1zM38 10h1v1h-1zM37 11h1v1h-1zM36 12h1v1h-1zM35 13h1v1h-1zM31 18h1v1h-1zM30 19h1v1h-1zM29 20h1v1h-1zM28 21h1v1h-1zM27 22h1v1h-1zM23 27h1v1h-1zM22 28h1v1h-1zM21 29h1v1h-1zM20 30h1v1h-1zM16 35h1v1h-1zM15 36h1v1h-1zM14 37h1v1h-1zM13 38h1v1h-1zM98 39h1v1h-1zM97 41h1v1h-1zM9 43h1v1h-1zM8 44h1v1h-1zM95 44h1v1h-1zM7 45h1v1h-1zM94 45h1v1h-1zM6 46h1v1h-1zM93 47h1v1h-1zM92 48h1v1h-1zM91 50h1v1h-1zM2 51h1v1h-1zM90 51h1v1h-1zM1 52h1v1h-1zM0 53h1v1h-1zM88 54h1v1h-1zM86 57h1v1h-1zM84 60h1v1h-1zM82 63h1v1h-1zM81 64h1v1h-1zM80 66h1v1h-1zM79 67h1v1h-1zM78 69h1v1h-1zM77 70h1v1h-1zM76 72h1v1h-1zM75 73h1v1h-1zM73 76h1v1h-1zM71 79h1v1h-1zM69 82h1v1h-1zM67 85h1v1h-1zM66 86h1v1h-1zM65 88h1v1h-1zM64 89h1v1h-1zM63 91h1v1h-1zM62 92h1v1h-1zM60 95h1v1h-1zM58 98h1v1h-1z" /><path fill="#282828" d="M46 2h1v1h-1zM45 3h1v1h-1zM44 4h1v1h-1zM43 5h1v1h-1zM39 10h1v1h-1zM38 11h1v1h-1zM37 12h1v1h-1zM36 13h1v1h-1zM32 18h1v1h-1zM31 19h1v1h-1zM30 20h1v1h-1zM29 21h1v1h-1zM25 26h1v1h-1zM24 27h1v1h-1zM23 28h1v1h-1zM22 29h1v1h-1zM21 30h1v1h-1zM17 35h1v1h-1zM16 36h1v1h-1zM15 37h1v1h-1zM14 38h1v1h-1zM98 38h1v1h-1zM96 41h1v1h-1zM10 43h1v1h-1zM9 44h1v1h-1zM94 44h1v1h-1zM8 45h1v1h-1zM7 46h1v1h-1zM92 47h1v1h-1zM91 48h1v1h-1zM90 50h1v1h-1zM3 51h1v1h-1zM89 51h1v1h-1zM2 52h1v1h-1zM1 53h1v1h-1zM88 53h1v1h-1zM87 54h1v1h-1zM85 57h1v1h-1zM83 60h1v1h-1zM81 63h1v1h-1zM79 66h1v1h-1zM77 69h1v1h-1zM76 70h1v1h-1zM75 72h1v1h-1zM74 73h1v1h-1zM73 75h1v1h-1zM72 76h1v1h-1zM70 79h1v1h-1zM68 82h1v1h-1zM66 85h1v1h-1zM64 88h1v1h-1zM63 89h1v1h-1zM62 91h1v1h-1zM61 92h1v1h-1zM60 94h1v1h-1zM59 95h1v1h-1zM57 98h1v1h-1z" /><path fill="#3a3a3a" d="M55 2h1v1h-1zM51 7h1v1h-1zM50 8h1v1h-1zM49 9h1v1h-1zM48 10h1v1h-1zM44 15h1v1h-1zM43 16h1v1h-1zM42 17h1v1h-1zM41 18h1v1h-1zM40 19h1v1h-1zM36 24h1v1h-1zM31 27h1v1h-1zM95 30h1v1h-1zM94 32h1v1h-1zM93 33h1v1h-1zM91 36h1v1h-1zM89 39h1v1h-1zM87 42h1v1h-1zM85 45h1v1h-1zM84 46h1v1h-1zM15 48h1v1h-1zM83 48h1v1h-1zM14 49h1v1h-1zM13 50h1v1h-1zM12 51h1v1h-1zM8 56h1v1h-1zM7 57h1v1h-1zM6 58h1v1h-1zM5 59h1v1h-1zM4 60h1v1h-1zM65 74h1v1h-1zM63 77h1v1h-1zM61 80h1v1h-1zM59 83h1v1h-1zM57 86h1v1h-1zM56 87h1v1h-1zM55 89h1v1h-1zM54 90h1v1h-1zM53 92h1v1h-1zM52 93h1v1h-1zM50 96h1v1h-1z" /><path fill="#3c3c3c" d="M56 2h1v1h-1zM52 7h1v1h-1zM51 8h1v1h-1zM50 9h1v1h-1zM49 10h1v1h-1zM45 15h1v1h-1zM44 16h1v1h-1zM43 17h1v1h-1zM42 18h1v1h-1zM38 23h1v1h-1zM37 24h1v1h-1zM94 30h1v1h-1zM93 32h1v1h-1zM92 33h1v1h-1zM91 35h1v1h-1zM90 36h1v1h-1zM88 39h1v1h-1zM86 42h1v1h-1zM84 45h1v1h-1zM16 48h1v1h-1zM15 49h1v1h-1zM14 50h1v1h-1zM13 51h1v1h-1zM9 56h1v1h-1zM8 57h1v1h-1zM7 58h1v1h-1zM6 59h1v1h-1zM77 63h1v1h-1zM63 76h1v1h-1zM62 77h1v1h-1zM60 80h1v1h-1zM58 83h1v1h-1zM56 86h1v1h-1zM54 89h1v1h-1zM52 92h1v1h-1zM51 93h1v1h-1zM50 95h1v1h-1zM49 96h1v1h-1zM48 98h1v1h-1z" /><path fill="#3f3f3f" d="M58 2h1v1h-1zM57 3h1v1h-1zM56 4h1v1h-1zM55 5h1v1h-1zM51 10h1v1h-1zM50 11h1v1h-1zM49 12h1v1h-1zM48 13h1v1h-1zM47 14h1v1h-1zM43 19h1v1h-1zM42 20h1v1h-1zM41 21h1v1h-1zM40 22h1v1h-1zM33 26h1v1h-1zM94 28h1v1h-1zM93 30h1v1h-1zM92 31h1v1h-1zM91 33h1v1h-1zM90 34h1v1h-1zM88 37h1v1h-1zM86 40h1v1h-1zM84 43h1v1h-1zM14 52h1v1h-1zM13 53h1v1h-1zM12 54h1v1h-1zM11 55h1v1h-1zM7 60h1v1h-1zM6 61h1v1h-1zM5 62h1v1h-1zM4 63h1v1h-1zM62 75h1v1h-1zM60 78h1v1h-1zM58 81h1v1h-1zM56 84h1v1h-1zM54 87h1v1h-1zM53 88h1v1h-1zM52 90h1v1h-1zM51 91h1v1h-1zM50 93h1v1h-1zM49 94h1v1h-1zM47 97h1v1h-1z" /><path fill="#454545" d="M59 2h1v1h-1zM60 3h1v1h-1zM59 4h1v1h-1zM58 5h1v1h-1zM54 10h1v1h-1zM53 11h1v1h-1zM52 12h1v1h-1zM51 13h1v1h-1zM47 18h1v1h-1zM46 19h1v1h-1zM45 20h1v1h-1zM44 21h1v1h-1zM93 26h1v1h-1zM92 27h1v1h-1zM90 30h1v1h-1zM88 33h1v1h-1zM86 36h1v1h-1zM84 39h1v1h-1zM83 40h1v1h-1zM19 42h1v1h-1zM16 53h1v1h-1zM15 54h1v1h-1zM11 59h1v1h-1zM10 60h1v1h-1zM9 61h1v1h-1zM8 62h1v1h-1zM4 67h1v1h-1zM58 77h1v1h-1zM56 80h1v1h-1zM55 81h1v1h-1zM54 83h1v1h-1zM53 84h1v1h-1zM52 86h1v1h-1zM51 87h1v1h-1zM49 90h1v1h-1zM47 93h1v1h-1zM45 96h1v1h-1z" /><path fill="#6d6d6d" d="M60 2h1v1h-1zM70 9h1v1h-1zM72 13h1v1h-1zM71 14h1v1h-1zM70 15h1v1h-1zM81 16h1v1h-1zM79 19h1v1h-1zM66 20h1v1h-1zM65 21h1v1h-1zM64 22h1v1h-1zM63 23h1v1h-1zM59 28h1v1h-1zM58 29h1v1h-1zM57 30h1v1h-1zM42 73h1v1h-1zM40 76h1v1h-1zM16 77h1v1h-1zM15 78h1v1h-1zM14 79h1v1h-1zM38 79h1v1h-1zM13 80h1v1h-1zM36 82h1v1h-1zM34 85h1v1h-1zM33 86h1v1h-1zM32 88h1v1h-1zM31 89h1v1h-1z" /><path fill="#a1a1a1" d="M61 2h1v1h-1zM79 36h1v1h-1zM78 37h1v1h-1zM77 38h1v1h-1zM76 39h1v1h-1zM75 40h1v1h-1zM82 40h1v1h-1zM72 44h1v1h-1zM71 45h1v1h-1zM82 45h1v1h-1zM70 46h1v1h-1zM69 47h1v1h-1zM68 48h1v1h-1zM33 51h1v1h-1zM31 54h1v1h-1zM30 55h1v1h-1zM29 57h1v1h-1zM28 58h1v1h-1zM27 60h1v1h-1zM26 61h1v1h-1zM24 64h1v1h-1zM22 67h1v1h-1zM20 70h1v1h-1zM30 92h1v1h-1z" /><path fill="#a7a7a7" d="M63 2h1v1h-1zM47 26h1v1h-1zM46 27h1v1h-1zM81 37h1v1h-1zM80 38h1v1h-1zM79 39h1v1h-1zM35 43h1v1h-1zM35 44h1v1h-1zM75 44h1v1h-1zM34 45h1v1h-1zM74 45h1v1h-1zM73 46h1v1h-1zM33 47h1v1h-1zM72 47h1v1h-1zM32 48h1v1h-1zM31 50h1v1h-1zM30 51h1v1h-1zM68 52h1v1h-1zM81 52h1v1h-1zM29 53h1v1h-1zM67 53h1v1h-1zM28 54h1v1h-1zM66 54h1v1h-1zM65 55h1v1h-1zM26 57h1v1h-1zM63 58h1v1h-1zM79 58h1v1h-1zM24 60h1v1h-1zM78 60h1v1h-1zM22 63h1v1h-1zM20 66h1v1h-1zM19 67h1v1h-1zM73 67h1v1h-1zM51 74h1v1h-1zM31 94h1v1h-1z" /><path fill="#a5a5a5" d="M64 2h1v1h-1zM64 3h1v1h-1zM28 30h1v1h-1zM81 36h1v1h-1zM80 37h1v1h-1zM79 38h1v1h-1zM78 39h1v1h-1zM82 41h1v1h-1zM74 44h1v1h-1zM73 45h1v1h-1zM72 46h1v1h-1zM34 47h1v1h-1zM71 47h1v1h-1zM33 48h1v1h-1zM31 51h1v1h-1zM67 52h1v1h-1zM66 53h1v1h-1zM29 54h1v1h-1zM65 54h1v1h-1zM27 57h1v1h-1zM25 60h1v1h-1zM23 63h1v1h-1zM22 64h1v1h-1zM21 66h1v1h-1zM20 67h1v1h-1zM19 69h1v1h-1zM31 93h1v1h-1zM30 94h1v1h-1z" /><path fill="#0e0e0e" d="M32 3h1v1h-1zM29 6h1v1h-1zM28 7h1v1h-1zM27 8h1v1h-1zM26 9h1v1h-1zM22 14h1v1h-1zM21 15h1v1h-1zM20 16h1v1h-1zM19 17h1v1h-1zM15 22h1v1h-1zM14 23h1v1h-1zM13 24h1v1h-1zM12 25h1v1h-1zM8 30h1v1h-1zM7 31h1v1h-1zM6 32h1v1h-1zM5 33h1v1h-1zM4 34h1v1h-1zM1 38h1v1h-1zM99 54h1v1h-1zM98 56h1v1h-1zM97 57h1v1h-1zM96 59h1v1h-1zM95 60h1v1h-1zM93 63h1v1h-1zM91 66h1v1h-1zM89 69h1v1h-1zM87 72h1v1h-1zM85 75h1v1h-1zM84 76h1v1h-1zM83 78h1v1h-1zM82 79h1v1h-1zM81 81h1v1h-1zM80 82h1v1h-1zM78 85h1v1h-1zM76 88h1v1h-1zM74 91h1v1h-1z" /><path fill="#101010" d="M33 3h1v1h-1zM31 5h1v1h-1zM30 6h1v1h-1zM29 7h1v1h-1zM28 8h1v1h-1zM27 9h1v1h-1zM23 14h1v1h-1zM22 15h1v1h-1zM21 16h1v1h-1zM20 17h1v1h-1zM16 22h1v1h-1zM15 23h1v1h-1zM14 24h1v1h-1zM13 25h1v1h-1zM9 30h1v1h-1zM8 31h1v1h-1zM7 32h1v1h-1zM6 33h1v1h-1zM2 38h1v1h-1zM1 39h1v1h-1zM99 53h1v1h-1zM97 56h1v1h-1zM95 59h1v1h-1zM94 60h1v1h-1zM93 62h1v1h-1zM92 63h1v1h-1zM91 65h1v1h-1zM90 66h1v1h-1zM88 69h1v1h-1zM86 72h1v1h-1zM84 75h1v1h-1zM82 78h1v1h-1zM81 79h1v1h-1zM80 81h1v1h-1zM79 82h1v1h-1zM78 84h1v1h-1zM77 85h1v1h-1zM75 88h1v1h-1zM73 91h1v1h-1z" /><path fill="#131313" d="M34 3h1v1h-1zM33 4h1v1h-1zM29 9h1v1h-1zM28 10h1v1h-1zM27 11h1v1h-1zM26 12h1v1h-1zM22 17h1v1h-1zM21 18h1v1h-1zM20 19h1v1h-1zM19 20h1v1h-1zM18 21h1v1h-1zM15 25h1v1h-1zM14 26h1v1h-1zM13 27h1v1h-1zM12 28h1v1h-1zM11 29h1v1h-1zM7 34h1v1h-1zM6 35h1v1h-1zM5 36h1v1h-1zM4 37h1v1h-1zM99 50h1v1h-1zM97 54h1v1h-1zM96 55h1v1h-1zM95 57h1v1h-1zM94 58h1v1h-1zM93 60h1v1h-1zM92 61h1v1h-1zM90 64h1v1h-1zM88 67h1v1h-1zM86 70h1v1h-1zM84 73h1v1h-1zM82 76h1v1h-1zM81 77h1v1h-1zM80 79h1v1h-1zM79 80h1v1h-1zM78 82h1v1h-1zM77 83h1v1h-1zM75 86h1v1h-1zM73 89h1v1h-1zM71 92h1v1h-1z" /><path fill="#151515" d="M35 3h1v1h-1zM34 4h1v1h-1zM30 9h1v1h-1zM29 10h1v1h-1zM28 11h1v1h-1zM27 12h1v1h-1zM23 17h1v1h-1zM22 18h1v1h-1zM21 19h1v1h-1zM20 20h1v1h-1zM16 25h1v1h-1zM15 26h1v1h-1zM14 27h1v1h-1zM13 28h1v1h-1zM9 33h1v1h-1zM8 34h1v1h-1zM7 35h1v1h-1zM6 36h1v1h-1zM5 37h1v1h-1zM1 42h1v1h-1zM0 43h1v1h-1zM98 51h1v1h-1zM96 54h1v1h-1zM94 57h1v1h-1zM92 60h1v1h-1zM91 61h1v1h-1zM90 63h1v1h-1zM89 64h1v1h-1zM88 66h1v1h-1zM87 67h1v1h-1zM85 70h1v1h-1zM83 73h1v1h-1zM81 76h1v1h-1zM79 79h1v1h-1zM78 80h1v1h-1zM77 82h1v1h-1zM76 83h1v1h-1zM75 85h1v1h-1zM74 86h1v1h-1zM72 89h1v1h-1zM70 92h1v1h-1zM68 95h1v1h-1z" /><path fill="#1e1e1e" d="M40 3h1v1h-1zM39 4h1v1h-1zM38 5h1v1h-1zM37 6h1v1h-1zM33 11h1v1h-1zM32 12h1v1h-1zM31 13h1v1h-1zM30 14h1v1h-1zM29 15h1v1h-1zM25 20h1v1h-1zM24 21h1v1h-1zM23 22h1v1h-1zM22 23h1v1h-1zM18 28h1v1h-1zM17 29h1v1h-1zM16 30h1v1h-1zM15 31h1v1h-1zM11 36h1v1h-1zM10 37h1v1h-1zM9 38h1v1h-1zM8 39h1v1h-1zM99 43h1v1h-1zM4 44h1v1h-1zM3 45h1v1h-1zM98 45h1v1h-1zM2 46h1v1h-1zM1 47h1v1h-1zM0 48h1v1h-1zM96 48h1v1h-1zM0 49h1v1h-1zM95 49h1v1h-1zM94 51h1v1h-1zM93 52h1v1h-1zM92 54h1v1h-1zM91 55h1v1h-1zM89 58h1v1h-1zM87 61h1v1h-1zM85 64h1v1h-1zM83 67h1v1h-1zM82 68h1v1h-1zM81 70h1v1h-1zM80 71h1v1h-1zM79 73h1v1h-1zM78 74h1v1h-1zM76 77h1v1h-1zM74 80h1v1h-1zM72 83h1v1h-1zM70 86h1v1h-1zM68 89h1v1h-1zM67 90h1v1h-1zM66 92h1v1h-1zM65 93h1v1h-1zM64 95h1v1h-1zM63 96h1v1h-1z" /><path fill="#202020" d="M41 3h1v1h-1zM40 4h1v1h-1zM39 5h1v1h-1zM38 6h1v1h-1zM34 11h1v1h-1zM33 12h1v1h-1zM32 13h1v1h-1zM31 14h1v1h-1zM27 19h1v1h-1zM26 20h1v1h-1zM25 21h1v1h-1zM24 22h1v1h-1zM23 23h1v1h-1zM19 28h1v1h-1zM18 29h1v1h-1zM17 30h1v1h-1zM16 31h1v1h-1zM12 36h1v1h-1zM11 37h1v1h-1zM10 38h1v1h-1zM9 39h1v1h-1zM5 44h1v1h-1zM4 45h1v1h-1zM97 45h1v1h-1zM3 46h1v1h-1zM2 47h1v1h-1zM95 48h1v1h-1zM93 51h1v1h-1zM92 52h1v1h-1zM91 54h1v1h-1zM90 55h1v1h-1zM89 57h1v1h-1zM88 58h1v1h-1zM86 61h1v1h-1zM84 64h1v1h-1zM82 67h1v1h-1zM80 70h1v1h-1zM78 73h1v1h-1zM77 74h1v1h-1zM76 76h1v1h-1zM75 77h1v1h-1zM74 79h1v1h-1zM73 80h1v1h-1zM71 83h1v1h-1zM69 86h1v1h-1zM67 89h1v1h-1zM65 92h1v1h-1zM64 93h1v1h-1zM63 95h1v1h-1zM62 96h1v1h-1z" /><path fill="#393939" d="M54 3h1v1h-1zM53 4h1v1h-1zM52 5h1v1h-1zM51 6h1v1h-1zM47 11h1v1h-1zM46 12h1v1h-1zM45 13h1v1h-1zM44 14h1v1h-1zM43 15h1v1h-1zM39 20h1v1h-1zM38 21h1v1h-1zM37 22h1v1h-1zM36 23h1v1h-1zM95 31h1v1h-1zM93 34h1v1h-1zM92 35h1v1h-1zM91 37h1v1h-1zM90 38h1v1h-1zM89 40h1v1h-1zM88 41h1v1h-1zM18 44h1v1h-1zM86 44h1v1h-1zM17 45h1v1h-1zM16 46h1v1h-1zM15 47h1v1h-1zM84 47h1v1h-1zM11 52h1v1h-1zM10 53h1v1h-1zM9 54h1v1h-1zM8 55h1v1h-1zM7 56h1v1h-1zM3 61h1v1h-1zM2 62h1v1h-1zM73 68h1v1h-1zM65 75h1v1h-1zM64 76h1v1h-1zM63 78h1v1h-1zM62 79h1v1h-1zM61 81h1v1h-1zM60 82h1v1h-1zM58 85h1v1h-1zM56 88h1v1h-1zM54 91h1v1h-1zM52 94h1v1h-1zM51 95h1v1h-1zM50 97h1v1h-1zM49 98h1v1h-1z" /><path fill="#3d3d3d" d="M56 3h1v1h-1zM55 4h1v1h-1zM54 5h1v1h-1zM53 6h1v1h-1zM49 11h1v1h-1zM48 12h1v1h-1zM47 13h1v1h-1zM46 14h1v1h-1zM42 19h1v1h-1zM41 20h1v1h-1zM40 21h1v1h-1zM39 22h1v1h-1zM93 31h1v1h-1zM91 34h1v1h-1zM89 37h1v1h-1zM87 40h1v1h-1zM85 43h1v1h-1zM84 44h1v1h-1zM83 46h1v1h-1zM17 47h1v1h-1zM13 52h1v1h-1zM12 53h1v1h-1zM11 54h1v1h-1zM10 55h1v1h-1zM6 60h1v1h-1zM5 61h1v1h-1zM4 62h1v1h-1zM3 63h1v1h-1zM68 72h1v1h-1zM63 75h1v1h-1zM61 78h1v1h-1zM59 81h1v1h-1zM57 84h1v1h-1zM56 85h1v1h-1zM55 87h1v1h-1zM54 88h1v1h-1zM53 90h1v1h-1zM52 91h1v1h-1zM50 94h1v1h-1zM48 97h1v1h-1z" /><path fill="#414141" d="M58 3h1v1h-1zM57 4h1v1h-1zM56 5h1v1h-1zM52 10h1v1h-1zM51 11h1v1h-1zM50 12h1v1h-1zM49 13h1v1h-1zM45 18h1v1h-1zM44 19h1v1h-1zM43 20h1v1h-1zM42 21h1v1h-1zM41 22h1v1h-1zM92 30h1v1h-1zM91 31h1v1h-1zM25 32h1v1h-1zM90 33h1v1h-1zM89 34h1v1h-1zM88 36h1v1h-1zM87 37h1v1h-1zM85 40h1v1h-1zM83 43h1v1h-1zM17 49h1v1h-1zM16 51h1v1h-1zM82 51h1v1h-1zM15 52h1v1h-1zM14 53h1v1h-1zM13 54h1v1h-1zM9 59h1v1h-1zM8 60h1v1h-1zM7 61h1v1h-1zM6 62h1v1h-1zM5 63h1v1h-1zM60 77h1v1h-1zM59 78h1v1h-1zM57 81h1v1h-1zM55 84h1v1h-1zM53 87h1v1h-1zM51 90h1v1h-1zM49 93h1v1h-1zM48 94h1v1h-1zM47 96h1v1h-1zM46 97h1v1h-1z" /><path fill="#434343" d="M59 3h1v1h-1zM58 4h1v1h-1zM57 5h1v1h-1zM53 10h1v1h-1zM52 11h1v1h-1zM51 12h1v1h-1zM50 13h1v1h-1zM46 18h1v1h-1zM45 19h1v1h-1zM44 20h1v1h-1zM43 21h1v1h-1zM93 27h1v1h-1zM91 30h1v1h-1zM89 33h1v1h-1zM87 36h1v1h-1zM86 37h1v1h-1zM85 39h1v1h-1zM84 40h1v1h-1zM83 42h1v1h-1zM16 52h1v1h-1zM15 53h1v1h-1zM14 54h1v1h-1zM10 59h1v1h-1zM9 60h1v1h-1zM8 61h1v1h-1zM7 62h1v1h-1zM64 74h1v1h-1zM59 77h1v1h-1zM58 78h1v1h-1zM57 80h1v1h-1zM56 81h1v1h-1zM55 83h1v1h-1zM54 84h1v1h-1zM52 87h1v1h-1zM50 90h1v1h-1zM48 93h1v1h-1zM46 96h1v1h-1zM45 97h1v1h-1z" /><path fill="#484848" d="M61 3h1v1h-1zM60 5h1v1h-1zM59 6h1v1h-1zM58 7h1v1h-1zM57 8h1v1h-1zM53 13h1v1h-1zM52 14h1v1h-1zM51 15h1v1h-1zM50 16h1v1h-1zM46 21h1v1h-1zM45 22h1v1h-1zM44 23h1v1h-1zM40 24h1v1h-1zM92 25h1v1h-1zM90 28h1v1h-1zM88 31h1v1h-1zM86 34h1v1h-1zM85 35h1v1h-1zM84 37h1v1h-1zM83 38h1v1h-1zM16 55h1v1h-1zM15 56h1v1h-1zM14 57h1v1h-1zM10 62h1v1h-1zM9 63h1v1h-1zM8 64h1v1h-1zM7 65h1v1h-1zM6 66h1v1h-1zM57 76h1v1h-1zM56 78h1v1h-1zM55 79h1v1h-1zM54 81h1v1h-1zM53 82h1v1h-1zM52 84h1v1h-1zM51 85h1v1h-1zM49 88h1v1h-1zM47 91h1v1h-1zM45 94h1v1h-1zM43 97h1v1h-1z" /><path fill="#6c6c6c" d="M62 3h1v1h-1zM83 13h1v1h-1zM83 14h1v1h-1zM82 15h1v1h-1zM69 16h1v1h-1zM68 17h1v1h-1zM81 17h1v1h-1zM67 18h1v1h-1zM80 18h1v1h-1zM66 19h1v1h-1zM62 24h1v1h-1zM61 25h1v1h-1zM60 26h1v1h-1zM59 27h1v1h-1zM18 46h1v1h-1zM18 71h1v1h-1zM43 72h1v1h-1zM18 74h1v1h-1zM42 74h1v1h-1zM17 75h1v1h-1zM41 75h1v1h-1zM16 76h1v1h-1zM15 77h1v1h-1zM40 77h1v1h-1zM39 78h1v1h-1zM12 81h1v1h-1zM37 81h1v1h-1zM35 84h1v1h-1zM33 87h1v1h-1zM31 90h1v1h-1z" /><path fill="#9b9b9b" d="M63 3h1v1h-1zM68 4h1v1h-1zM67 5h1v1h-1zM80 31h1v1h-1zM79 32h1v1h-1zM75 37h1v1h-1zM74 38h1v1h-1zM73 39h1v1h-1zM82 39h1v1h-1zM72 40h1v1h-1zM68 45h1v1h-1zM67 46h1v1h-1zM66 47h1v1h-1zM65 48h1v1h-1zM33 55h1v1h-1zM31 58h1v1h-1zM29 61h1v1h-1zM28 62h1v1h-1zM27 64h1v1h-1zM26 65h1v1h-1zM25 67h1v1h-1zM24 68h1v1h-1zM71 69h1v1h-1zM22 71h1v1h-1zM20 74h1v1h-1zM26 93h1v1h-1z" /><path fill="#a3a3a3" d="M65 3h1v1h-1zM47 25h1v1h-1zM80 36h1v1h-1zM79 37h1v1h-1zM78 38h1v1h-1zM77 39h1v1h-1zM73 44h1v1h-1zM72 45h1v1h-1zM71 46h1v1h-1zM70 47h1v1h-1zM34 48h1v1h-1zM32 51h1v1h-1zM66 52h1v1h-1zM65 53h1v1h-1zM30 54h1v1h-1zM28 57h1v1h-1zM27 58h1v1h-1zM26 60h1v1h-1zM25 61h1v1h-1zM24 63h1v1h-1zM23 64h1v1h-1zM21 67h1v1h-1zM19 70h1v1h-1zM30 93h1v1h-1zM29 94h1v1h-1z" /><path fill="#9f9f9f" d="M66 3h1v1h-1zM65 4h2v1h-2zM81 32h1v1h-1zM77 37h1v1h-1zM76 38h1v1h-1zM75 39h1v1h-1zM74 40h1v1h-1zM20 41h1v1h-1zM70 45h1v1h-1zM69 46h1v1h-1zM68 47h1v1h-1zM67 48h1v1h-1zM34 51h1v1h-1zM33 52h1v1h-1zM64 52h1v1h-1zM32 54h1v1h-1zM31 55h1v1h-1zM29 58h1v1h-1zM27 61h1v1h-1zM25 64h1v1h-1zM23 67h1v1h-1zM21 70h1v1h-1zM20 71h1v1h-1zM62 74h1v1h-1z" /><path fill="#9d9d9d" d="M67 3h1v1h-1zM67 4h1v1h-1zM80 32h1v1h-1zM76 37h1v1h-1zM75 38h1v1h-1zM74 39h1v1h-1zM73 40h1v1h-1zM69 45h1v1h-1zM68 46h1v1h-1zM67 47h1v1h-1zM66 48h1v1h-1zM34 52h1v1h-1zM32 55h1v1h-1zM30 58h1v1h-1zM28 61h1v1h-1zM26 64h1v1h-1zM25 65h1v1h-1zM24 67h1v1h-1zM23 68h1v1h-1zM22 70h1v1h-1zM21 71h1v1h-1z" /><path fill="#0d0d0d" d="M30 4h1v1h-1zM29 5h1v1h-1zM25 10h1v1h-1zM24 11h1v1h-1zM23 12h1v1h-1zM22 13h1v1h-1zM18 18h1v1h-1zM17 19h1v1h-1zM16 20h1v1h-1zM15 21h1v1h-1zM11 26h1v1h-1zM10 27h1v1h-1zM9 28h1v1h-1zM8 29h1v1h-1zM7 30h1v1h-1zM3 35h1v1h-1zM2 36h1v1h-1zM99 55h1v1h-1zM97 58h1v1h-1zM95 61h1v1h-1zM94 62h1v1h-1zM93 64h1v1h-1zM92 65h1v1h-1zM91 67h1v1h-1zM90 68h1v1h-1zM88 71h1v1h-1zM86 74h1v1h-1zM84 77h1v1h-1zM82 80h1v1h-1zM80 83h1v1h-1zM79 84h1v1h-1zM78 86h1v1h-1zM77 87h1v1h-1zM76 89h1v1h-1zM75 90h1v1h-1z" /><path fill="#0f0f0f" d="M31 4h1v1h-1zM30 5h1v1h-1zM26 10h1v1h-1zM25 11h1v1h-1zM24 12h1v1h-1zM23 13h1v1h-1zM19 18h1v1h-1zM18 19h1v1h-1zM17 20h1v1h-1zM16 21h1v1h-1zM12 26h1v1h-1zM11 27h1v1h-1zM10 28h1v1h-1zM9 29h1v1h-1zM5 34h1v1h-1zM4 35h1v1h-1zM3 36h1v1h-1zM2 37h1v1h-1zM98 55h1v1h-1zM96 58h1v1h-1zM94 61h1v1h-1zM92 64h1v1h-1zM90 67h1v1h-1zM89 68h1v1h-1zM88 70h1v1h-1zM87 71h1v1h-1zM86 73h1v1h-1zM85 74h1v1h-1zM83 77h1v1h-1zM81 80h1v1h-1zM79 83h1v1h-1zM77 86h1v1h-1zM76 87h1v1h-1zM75 89h1v1h-1zM74 90h1v1h-1zM73 92h1v1h-1zM72 93h1v1h-1zM71 94h1v1h-1z" /><path fill="#111111" d="M32 4h1v1h-1zM28 9h1v1h-1zM27 10h1v1h-1zM26 11h1v1h-1zM25 12h1v1h-1zM24 13h1v1h-1zM20 18h1v1h-1zM19 19h1v1h-1zM18 20h1v1h-1zM17 21h1v1h-1zM13 26h1v1h-1zM12 27h1v1h-1zM11 28h1v1h-1zM10 29h1v1h-1zM6 34h1v1h-1zM5 35h1v1h-1zM4 36h1v1h-1zM3 37h1v1h-1zM99 52h1v1h-1zM98 54h1v1h-1zM97 55h1v1h-1zM96 57h1v1h-1zM95 58h1v1h-1zM93 61h1v1h-1zM91 64h1v1h-1zM89 67h1v1h-1zM87 70h1v1h-1zM86 71h1v1h-1zM85 73h1v1h-1zM84 74h1v1h-1zM83 76h1v1h-1zM82 77h1v1h-1zM80 80h1v1h-1zM78 83h1v1h-1zM76 86h1v1h-1zM74 89h1v1h-1zM72 92h1v1h-1zM71 93h1v1h-1z" /><path fill="#161616" d="M35 4h1v1h-1zM34 5h1v1h-1zM33 6h1v1h-1zM32 7h1v1h-1zM31 8h1v1h-1zM27 13h1v1h-1zM26 14h1v1h-1zM25 15h1v1h-1zM24 16h1v1h-1zM20 21h1v1h-1zM19 22h1v1h-1zM18 23h1v1h-1zM17 24h1v1h-1zM13 29h1v1h-1zM12 30h1v1h-1zM11 31h1v1h-1zM10 32h1v1h-1zM6 37h1v1h-1zM5 38h1v1h-1zM4 39h1v1h-1zM3 40h1v1h-1zM2 41h1v1h-1zM99 48h1v1h-1zM99 49h1v1h-1zM98 50h1v1h-1zM97 52h1v1h-1zM96 53h1v1h-1zM95 55h1v1h-1zM94 56h1v1h-1zM93 58h1v1h-1zM92 59h1v1h-1zM90 62h1v1h-1zM88 65h1v1h-1zM86 68h1v1h-1zM84 71h1v1h-1zM83 72h1v1h-1zM82 74h1v1h-1zM81 75h1v1h-1zM80 77h1v1h-1zM79 78h1v1h-1zM77 81h1v1h-1zM75 84h1v1h-1zM73 87h1v1h-1zM71 90h1v1h-1zM70 91h1v1h-1zM69 93h1v1h-1zM68 94h1v1h-1zM67 96h1v1h-1z" /><path fill="#181818" d="M36 4h1v1h-1zM35 5h1v1h-1zM34 6h1v1h-1zM33 7h1v1h-1zM29 12h1v1h-1zM28 13h1v1h-1zM27 14h1v1h-1zM26 15h1v1h-1zM25 16h1v1h-1zM21 21h1v1h-1zM20 22h1v1h-1zM19 23h1v1h-1zM18 24h1v1h-1zM14 29h1v1h-1zM13 30h1v1h-1zM12 31h1v1h-1zM11 32h1v1h-1zM7 37h1v1h-1zM6 38h1v1h-1zM5 39h1v1h-1zM4 40h1v1h-1zM99 47h1v1h-1zM98 49h1v1h-1zM96 52h1v1h-1zM94 55h1v1h-1zM93 56h1v1h-1zM92 58h1v1h-1zM91 59h1v1h-1zM90 61h1v1h-1zM89 62h1v1h-1zM87 65h1v1h-1zM85 68h1v1h-1zM83 71h1v1h-1zM81 74h1v1h-1zM80 75h1v1h-1zM79 77h1v1h-1zM78 78h1v1h-1zM77 80h1v1h-1zM76 81h1v1h-1zM74 84h1v1h-1zM72 87h1v1h-1zM70 90h1v1h-1zM68 93h1v1h-1z" /><path fill="#1c1c1c" d="M38 4h1v1h-1zM37 5h1v1h-1zM36 6h1v1h-1zM35 7h1v1h-1zM31 12h1v1h-1zM30 13h1v1h-1zM29 14h1v1h-1zM28 15h1v1h-1zM24 20h1v1h-1zM23 21h1v1h-1zM22 22h1v1h-1zM21 23h1v1h-1zM17 28h1v1h-1zM16 29h1v1h-1zM15 30h1v1h-1zM14 31h1v1h-1zM10 36h1v1h-1zM9 37h1v1h-1zM8 38h1v1h-1zM7 39h1v1h-1zM6 40h1v1h-1zM2 45h1v1h-1zM1 46h1v1h-1zM98 46h1v1h-1zM97 48h1v1h-1zM96 49h1v1h-1zM94 52h1v1h-1zM92 55h1v1h-1zM90 58h1v1h-1zM88 61h1v1h-1zM86 64h1v1h-1zM85 65h1v1h-1zM84 67h1v1h-1zM83 68h1v1h-1zM82 70h1v1h-1zM81 71h1v1h-1zM79 74h1v1h-1zM77 77h1v1h-1zM75 80h1v1h-1zM73 83h1v1h-1zM72 84h1v1h-1zM71 86h1v1h-1zM70 87h1v1h-1zM69 89h1v1h-1zM68 90h1v1h-1zM66 93h1v1h-1zM64 96h1v1h-1z" /><path fill="#333333" d="M50 4h1v1h-1zM49 5h1v1h-1zM48 6h1v1h-1zM47 7h1v1h-1zM43 12h1v1h-1zM42 13h1v1h-1zM41 14h1v1h-1zM40 15h1v1h-1zM39 16h1v1h-1zM35 21h1v1h-1zM34 22h1v1h-1zM33 23h1v1h-1zM32 24h1v1h-1zM95 35h1v1h-1zM21 37h1v1h-1zM20 38h1v1h-1zM93 38h1v1h-1zM19 39h1v1h-1zM18 40h1v1h-1zM91 41h1v1h-1zM90 42h1v1h-1zM89 44h1v1h-1zM14 45h1v1h-1zM88 45h1v1h-1zM13 46h1v1h-1zM12 47h1v1h-1zM87 47h1v1h-1zM11 48h1v1h-1zM86 48h1v1h-1zM84 51h1v1h-1zM7 53h1v1h-1zM6 54h1v1h-1zM82 54h1v1h-1zM5 55h1v1h-1zM4 56h1v1h-1zM3 57h1v1h-1zM69 73h1v1h-1zM67 76h1v1h-1zM65 79h1v1h-1zM63 82h1v1h-1zM62 83h1v1h-1zM61 85h1v1h-1zM60 86h1v1h-1zM59 88h1v1h-1zM58 89h1v1h-1zM56 92h1v1h-1zM54 95h1v1h-1zM52 98h1v1h-1z" /><path fill="#353535" d="M51 4h1v1h-1zM50 5h1v1h-1zM49 6h1v1h-1zM48 7h1v1h-1zM44 12h1v1h-1zM43 13h1v1h-1zM42 14h1v1h-1zM41 15h1v1h-1zM37 20h1v1h-1zM36 21h1v1h-1zM35 22h1v1h-1zM34 23h1v1h-1zM96 32h1v1h-1zM94 35h1v1h-1zM92 38h1v1h-1zM20 39h1v1h-1zM19 40h1v1h-1zM90 41h1v1h-1zM88 44h1v1h-1zM15 45h1v1h-1zM14 46h1v1h-1zM13 47h1v1h-1zM86 47h1v1h-1zM12 48h1v1h-1zM85 48h1v1h-1zM84 50h1v1h-1zM83 51h1v1h-1zM8 53h1v1h-1zM82 53h1v1h-1zM7 54h1v1h-1zM6 55h1v1h-1zM5 56h1v1h-1zM71 70h1v1h-1zM69 72h1v1h-1zM68 73h1v1h-1zM66 76h1v1h-1zM64 79h1v1h-1zM62 82h1v1h-1zM60 85h1v1h-1zM58 88h1v1h-1zM57 89h1v1h-1zM56 91h1v1h-1zM55 92h1v1h-1zM54 94h1v1h-1zM53 95h1v1h-1zM51 98h1v1h-1zM50 99h1v1h-1z" /><path fill="#474747" d="M60 4h1v1h-1zM56 9h1v1h-1zM55 10h1v1h-1zM54 11h1v1h-1zM53 12h1v1h-1zM49 17h1v1h-1zM48 18h1v1h-1zM47 19h1v1h-1zM46 20h1v1h-1zM45 21h1v1h-1zM92 26h1v1h-1zM91 27h1v1h-1zM90 29h1v1h-1zM89 30h1v1h-1zM87 33h1v1h-1zM85 36h1v1h-1zM83 39h1v1h-1zM18 45h1v1h-1zM16 54h1v1h-1zM13 58h1v1h-1zM12 59h1v1h-1zM11 60h1v1h-1zM10 61h1v1h-1zM9 62h1v1h-1zM5 67h1v1h-1zM4 68h1v1h-1zM61 75h1v1h-1zM57 77h1v1h-1zM55 80h1v1h-1zM53 83h1v1h-1zM51 86h1v1h-1zM50 87h1v1h-1zM49 89h1v1h-1zM48 90h1v1h-1zM47 92h1v1h-1zM46 93h1v1h-1zM44 96h1v1h-1z" /><path fill="#494949" d="M61 4h1v1h-1zM57 9h1v1h-1zM56 10h1v1h-1zM55 11h1v1h-1zM54 12h1v1h-1zM50 17h1v1h-1zM49 18h1v1h-1zM48 19h1v1h-1zM47 20h1v1h-1zM91 26h1v1h-1zM90 27h1v1h-1zM89 29h1v1h-1zM88 30h1v1h-1zM87 32h1v1h-1zM86 33h1v1h-1zM84 36h1v1h-1zM14 58h1v1h-1zM13 59h1v1h-1zM12 60h1v1h-1zM11 61h1v1h-1zM7 66h1v1h-1zM6 67h1v1h-1zM5 68h1v1h-1zM4 69h1v1h-1zM4 70h1v1h-1zM56 77h1v1h-1zM54 80h1v1h-1zM52 83h1v1h-1zM50 86h1v1h-1zM48 89h1v1h-1zM47 90h1v1h-1zM46 92h1v1h-1zM45 93h1v1h-1zM44 95h1v1h-1zM43 96h1v1h-1z" /><path fill="#4b4b4b" d="M62 4h1v1h-1zM58 9h1v1h-1zM57 10h1v1h-1zM56 11h1v1h-1zM55 12h1v1h-1zM51 17h1v1h-1zM50 18h1v1h-1zM49 19h1v1h-1zM48 20h1v1h-1zM90 26h1v1h-1zM88 29h1v1h-1zM86 32h1v1h-1zM85 33h1v1h-1zM84 35h1v1h-1zM83 36h1v1h-1zM15 58h1v1h-1zM14 59h1v1h-1zM13 60h1v1h-1zM12 61h1v1h-1zM8 66h1v1h-1zM7 67h1v1h-1zM6 68h1v1h-1zM5 69h1v1h-1zM56 76h1v1h-1zM55 77h1v1h-1zM54 79h1v1h-1zM53 80h1v1h-1zM51 83h1v1h-1zM49 86h1v1h-1zM47 89h1v1h-1zM45 92h1v1h-1zM44 93h1v1h-1zM43 95h1v1h-1zM42 96h1v1h-1z" /><path fill="#797979" d="M64 4h1v1h-1zM79 11h1v1h-1zM78 12h1v1h-1zM77 14h1v1h-1zM76 15h1v1h-1zM74 18h1v1h-1zM73 19h1v1h-1zM72 20h1v1h-1zM71 21h1v1h-1zM37 25h1v1h-1zM67 26h1v1h-1zM66 27h1v1h-1zM65 28h1v1h-1zM64 29h1v1h-1zM19 43h1v1h-1zM17 52h1v1h-1zM40 68h1v1h-1zM39 69h1v1h-1zM18 70h1v1h-1zM38 71h1v1h-1zM37 72h1v1h-1zM36 74h1v1h-1zM35 75h1v1h-1zM33 78h1v1h-1zM20 79h1v1h-1zM31 81h1v1h-1zM16 84h1v1h-1zM29 84h1v1h-1zM15 85h1v1h-1zM27 87h1v1h-1z" /><path fill="#989898" d="M69 4h1v1h-1zM68 6h1v1h-1zM80 29h1v1h-1zM76 34h1v1h-1zM75 35h1v1h-1zM74 36h1v1h-1zM73 37h1v1h-1zM69 42h1v1h-1zM68 43h1v1h-1zM67 44h1v1h-1zM66 45h1v1h-1zM64 48h1v1h-1zM35 54h1v1h-1zM33 57h1v1h-1zM31 60h1v1h-1zM29 63h1v1h-1zM28 64h1v1h-1zM27 66h1v1h-1zM26 67h1v1h-1zM25 69h1v1h-1zM24 70h1v1h-1zM22 73h1v1h-1zM20 75h1v1h-1zM26 91h1v1h-1zM25 92h1v1h-1z" /><path fill="#0a0a0a" d="M28 5h1v1h-1zM27 6h1v1h-1zM26 7h1v1h-1zM25 8h1v1h-1zM24 9h1v1h-1zM23 10h1v1h-1zM19 15h1v1h-1zM18 16h1v1h-1zM17 17h1v1h-1zM16 18h1v1h-1zM12 23h1v1h-1zM11 24h1v1h-1zM10 25h1v1h-1zM9 26h1v1h-1zM5 31h1v1h-1zM4 32h1v1h-1zM3 33h1v1h-1zM97 60h1v1h-1zM95 63h1v1h-1zM93 66h1v1h-1zM92 67h1v1h-1zM91 69h1v1h-1zM90 70h1v1h-1zM89 72h1v1h-1zM88 73h1v1h-1zM86 76h1v1h-1zM84 79h1v1h-1zM82 82h1v1h-1zM80 85h1v1h-1zM79 86h1v1h-1zM78 88h1v1h-1zM77 89h1v1h-1zM76 91h1v1h-1z" /><path fill="#2d2d2d" d="M46 5h1v1h-1zM45 6h1v1h-1zM44 7h1v1h-1zM43 8h1v1h-1zM39 13h1v1h-1zM38 14h1v1h-1zM37 15h1v1h-1zM36 16h1v1h-1zM32 21h1v1h-1zM31 22h1v1h-1zM30 23h1v1h-1zM29 24h1v1h-1zM28 25h1v1h-1zM24 30h1v1h-1zM23 31h1v1h-1zM22 32h1v1h-1zM21 33h1v1h-1zM97 36h1v1h-1zM17 38h1v1h-1zM16 39h1v1h-1zM95 39h1v1h-1zM15 40h1v1h-1zM14 41h1v1h-1zM93 42h1v1h-1zM91 45h1v1h-1zM10 46h1v1h-1zM9 47h1v1h-1zM8 48h1v1h-1zM89 48h1v1h-1zM7 49h1v1h-1zM88 49h1v1h-1zM87 51h1v1h-1zM86 52h1v1h-1zM3 54h1v1h-1zM85 54h1v1h-1zM2 55h1v1h-1zM84 55h1v1h-1zM1 56h1v1h-1zM82 58h1v1h-1zM80 61h1v1h-1zM78 64h1v1h-1zM76 67h1v1h-1zM74 70h1v1h-1zM73 71h1v1h-1zM72 73h1v1h-1zM71 74h1v1h-1zM70 76h1v1h-1zM69 77h1v1h-1zM67 80h1v1h-1zM65 83h1v1h-1zM63 86h1v1h-1zM61 89h1v1h-1zM60 90h1v1h-1zM59 92h1v1h-1zM58 93h1v1h-1zM57 95h1v1h-1zM56 96h1v1h-1zM54 99h1v1h-1z" /><path fill="#2f2f2f" d="M47 5h1v1h-1zM46 6h1v1h-1zM45 7h1v1h-1zM44 8h1v1h-1zM40 13h1v1h-1zM39 14h1v1h-1zM38 15h1v1h-1zM37 16h1v1h-1zM33 21h1v1h-1zM32 22h1v1h-1zM31 23h1v1h-1zM30 24h1v1h-1zM26 29h1v1h-1zM25 30h1v1h-1zM24 31h1v1h-1zM23 32h1v1h-1zM22 33h1v1h-1zM97 34h1v1h-1zM96 36h1v1h-1zM18 38h1v1h-1zM95 38h1v1h-1zM17 39h1v1h-1zM94 39h1v1h-1zM16 40h1v1h-1zM15 41h1v1h-1zM92 42h1v1h-1zM90 45h1v1h-1zM11 46h1v1h-1zM10 47h1v1h-1zM9 48h1v1h-1zM88 48h1v1h-1zM8 49h1v1h-1zM86 51h1v1h-1zM4 54h1v1h-1zM84 54h1v1h-1zM3 55h1v1h-1zM83 55h1v1h-1zM2 56h1v1h-1zM1 57h1v1h-1zM82 57h1v1h-1zM81 58h1v1h-1zM80 60h1v1h-1zM79 61h1v1h-1zM77 64h1v1h-1zM75 67h1v1h-1zM73 70h1v1h-1zM71 73h1v1h-1zM70 74h1v1h-1zM69 76h1v1h-1zM68 77h1v1h-1zM67 79h1v1h-1zM66 80h1v1h-1zM64 83h1v1h-1zM62 86h1v1h-1zM60 89h1v1h-1zM58 92h1v1h-1zM56 95h1v1h-1zM55 96h1v1h-1zM54 98h1v1h-1zM53 99h1v1h-1z" /><path fill="#464646" d="M59 5h1v1h-1zM58 6h1v1h-1zM57 7h1v1h-1zM56 8h1v1h-1zM55 9h1v1h-1zM52 13h1v1h-1zM51 14h1v1h-1zM50 15h1v1h-1zM49 16h1v1h-1zM48 17h1v1h-1zM44 22h1v1h-1zM43 23h1v1h-1zM93 25h1v1h-1zM91 28h1v1h-1zM89 31h1v1h-1zM88 32h1v1h-1zM87 34h1v1h-1zM86 35h1v1h-1zM85 37h1v1h-1zM84 38h1v1h-1zM15 55h1v1h-1zM14 56h1v1h-1zM13 57h1v1h-1zM12 58h1v1h-1zM8 63h1v1h-1zM7 64h1v1h-1zM6 65h1v1h-1zM5 66h1v1h-1zM58 76h1v1h-1zM57 78h1v1h-1zM56 79h1v1h-1zM54 82h1v1h-1zM52 85h1v1h-1zM50 88h1v1h-1zM48 91h1v1h-1zM46 94h1v1h-1zM45 95h1v1h-1zM44 97h1v1h-1z" /><path fill="#4a4a4a" d="M61 5h1v1h-1zM60 6h1v1h-1zM59 7h1v1h-1zM58 8h1v1h-1zM54 13h1v1h-1zM53 14h1v1h-1zM52 15h1v1h-1zM51 16h1v1h-1zM47 21h1v1h-1zM46 22h1v1h-1zM45 23h1v1h-1zM92 24h1v1h-1zM91 25h1v1h-1zM89 28h1v1h-1zM87 31h1v1h-1zM85 34h1v1h-1zM83 37h1v1h-1zM16 56h1v1h-1zM15 57h1v1h-1zM11 62h1v1h-1zM10 63h1v1h-1zM9 64h1v1h-1zM8 65h1v1h-1zM66 73h1v1h-1zM55 78h1v1h-1zM53 81h1v1h-1zM52 82h1v1h-1zM51 84h1v1h-1zM50 85h1v1h-1zM49 87h1v1h-1zM48 88h1v1h-1zM46 91h1v1h-1zM44 94h1v1h-1zM42 97h1v1h-1z" /><path fill="#4c4c4c" d="M62 5h1v1h-1zM61 6h1v1h-1zM60 7h1v1h-1zM59 8h1v1h-1zM55 13h1v1h-1zM54 14h1v1h-1zM53 15h1v1h-1zM52 16h1v1h-1zM48 21h1v1h-1zM47 22h1v1h-1zM46 23h1v1h-1zM91 24h1v1h-1zM90 25h1v1h-1zM89 27h1v1h-1zM88 28h1v1h-1zM87 30h1v1h-1zM86 31h1v1h-1zM84 34h1v1h-1zM16 57h1v1h-1zM12 62h1v1h-1zM11 63h1v1h-1zM10 64h1v1h-1zM9 65h1v1h-1zM5 70h1v1h-1zM54 78h1v1h-1zM52 81h1v1h-1zM50 84h1v1h-1zM49 85h1v1h-1zM48 87h1v1h-1zM47 88h1v1h-1zM46 90h1v1h-1zM45 91h1v1h-1zM43 94h1v1h-1zM41 97h1v1h-1zM47 99h1v1h-1z" /><path fill="#4e4e4e" d="M63 5h1v1h-1zM62 6h1v1h-1zM61 7h1v1h-1zM57 12h1v1h-1zM56 13h1v1h-1zM55 14h1v1h-1zM54 15h1v1h-1zM50 20h1v1h-1zM49 21h1v1h-1zM48 22h1v1h-1zM47 23h1v1h-1zM46 24h1v1h-1zM90 24h1v1h-1zM88 27h1v1h-1zM87 28h1v1h-1zM86 30h1v1h-1zM85 31h1v1h-1zM84 33h1v1h-1zM83 34h1v1h-1zM80 57h1v1h-1zM14 61h1v1h-1zM13 62h1v1h-1zM12 63h1v1h-1zM11 64h1v1h-1zM10 65h1v1h-1zM6 70h1v1h-1zM5 71h1v1h-1zM53 78h1v1h-1zM51 81h1v1h-1zM49 84h1v1h-1zM47 87h1v1h-1zM45 90h1v1h-1zM44 91h1v1h-1zM43 93h1v1h-1zM42 94h1v1h-1zM41 96h1v1h-1z" /><path fill="#505050" d="M64 5h1v1h-1zM63 6h1v1h-1zM62 7h1v1h-1zM58 12h1v1h-1zM57 13h1v1h-1zM56 14h1v1h-1zM55 15h1v1h-1zM51 20h1v1h-1zM50 21h1v1h-1zM49 22h1v1h-1zM48 23h1v1h-1zM89 24h1v1h-1zM87 27h1v1h-1zM85 30h1v1h-1zM83 33h1v1h-1zM15 61h1v1h-1zM14 62h1v1h-1zM13 63h1v1h-1zM12 64h1v1h-1zM8 69h1v1h-1zM7 70h1v1h-1zM6 71h1v1h-1zM53 77h1v1h-1zM52 78h1v1h-1zM51 80h1v1h-1zM50 81h1v1h-1zM48 84h1v1h-1zM46 87h1v1h-1zM44 90h1v1h-1zM42 93h1v1h-1zM41 94h1v1h-1zM40 96h1v1h-1z" /><path fill="#606060" d="M65 5h1v1h-1zM69 9h1v1h-1zM68 10h1v1h-1zM67 11h1v1h-1zM66 12h1v1h-1zM65 13h1v1h-1zM61 18h1v1h-1zM60 19h1v1h-1zM85 19h1v1h-1zM59 20h1v1h-1zM58 21h1v1h-1zM83 22h1v1h-1zM81 25h1v1h-1zM54 26h1v1h-1zM53 27h1v1h-1zM17 68h1v1h-1zM16 69h1v1h-1zM15 70h1v1h-1zM11 75h1v1h-1zM10 76h1v1h-1zM46 76h1v1h-1zM9 77h1v1h-1zM44 79h1v1h-1zM42 82h1v1h-1zM40 85h1v1h-1zM38 88h1v1h-1zM37 89h1v1h-1zM36 91h1v1h-1zM35 92h1v1h-1z" /><path fill="#8f8f8f" d="M66 5h1v1h-1zM72 6h1v1h-1zM79 25h1v1h-1zM78 26h1v1h-1zM74 31h1v1h-1zM73 32h1v1h-1zM72 33h1v1h-1zM71 34h1v1h-1zM67 39h1v1h-1zM66 40h1v1h-1zM65 41h1v1h-1zM64 42h1v1h-1zM17 58h1v1h-1zM36 59h1v1h-1zM35 60h1v1h-1zM34 62h1v1h-1zM33 63h1v1h-1zM31 66h1v1h-1zM29 69h1v1h-1zM27 72h1v1h-1zM25 75h1v1h-1zM24 76h1v1h-1zM23 78h1v1h-1zM22 79h1v1h-1zM24 88h1v1h-1zM23 89h1v1h-1zM22 90h1v1h-1z" /><path fill="#999999" d="M68 5h1v1h-1zM80 30h1v1h-1zM79 31h1v1h-1zM78 32h1v1h-1zM77 33h1v1h-1zM73 38h1v1h-1zM72 39h1v1h-1zM71 40h1v1h-1zM70 41h1v1h-1zM66 46h1v1h-1zM65 47h1v1h-1zM34 55h1v1h-1zM33 56h1v1h-1zM32 58h1v1h-1zM31 59h1v1h-1zM30 61h1v1h-1zM29 62h1v1h-1zM27 65h1v1h-1zM25 68h1v1h-1zM23 71h1v1h-1zM21 74h1v1h-1zM27 90h2v1h-2z" /><path fill="#979797" d="M69 5h1v1h-1zM79 30h1v1h-1zM78 31h1v1h-1zM77 32h1v1h-1zM76 33h1v1h-1zM72 38h1v1h-1zM71 39h1v1h-1zM70 40h1v1h-1zM69 41h1v1h-1zM65 46h1v1h-1zM34 56h1v1h-1zM33 58h1v1h-1zM32 59h1v1h-1zM30 62h1v1h-1zM28 65h1v1h-1zM26 68h1v1h-1zM24 71h1v1h-1zM19 72h1v1h-1zM23 72h1v1h-1zM22 74h1v1h-1zM21 75h1v1h-1zM26 90h1v1h-1z" /><path fill="#959595" d="M70 5h1v1h-1zM69 6h1v1h-1zM78 30h1v1h-1zM77 31h1v1h-1zM81 31h1v1h-1zM76 32h1v1h-1zM75 33h1v1h-1zM71 38h1v1h-1zM82 38h1v1h-1zM70 39h1v1h-1zM69 40h1v1h-1zM68 41h1v1h-1zM82 47h1v1h-1zM33 59h1v1h-1zM31 62h1v1h-1zM29 65h1v1h-1zM27 68h1v1h-1zM26 69h1v1h-1zM25 71h1v1h-1zM24 72h1v1h-1zM23 74h1v1h-1zM22 75h1v1h-1zM26 89h1v1h-1zM25 90h1v1h-1zM24 91h1v1h-1zM24 92h1v1h-1z" /><path fill="#929292" d="M71 5h1v1h-1zM70 7h1v1h-1zM79 27h1v1h-1zM78 28h1v1h-1zM77 29h1v1h-1zM76 30h1v1h-1zM73 34h1v1h-1zM72 35h1v1h-1zM71 36h1v1h-1zM70 37h1v1h-1zM69 38h1v1h-1zM65 43h1v1h-1zM64 44h1v1h-1zM17 57h1v1h-1zM35 58h1v1h-1zM33 61h1v1h-1zM31 64h1v1h-1zM29 67h1v1h-1zM18 68h1v1h-1zM27 70h1v1h-1zM25 73h1v1h-1zM24 74h1v1h-1zM23 76h1v1h-1zM22 77h1v1h-1zM26 88h1v1h-1z" /><path fill="#090909" d="M26 6h1v1h-1zM22 11h1v1h-1zM21 12h1v1h-1zM20 13h1v1h-1zM19 14h1v1h-1zM15 19h1v1h-1zM14 20h1v1h-1zM13 21h1v1h-1zM12 22h1v1h-1zM8 27h1v1h-1zM7 28h1v1h-1zM6 29h1v1h-1zM5 30h1v1h-1zM98 59h1v1h-1zM96 62h1v1h-1zM94 65h1v1h-1zM92 68h1v1h-1zM90 71h1v1h-1zM88 74h1v1h-1zM87 75h1v1h-1zM86 77h1v1h-1zM85 78h1v1h-1zM84 80h1v1h-1zM83 81h1v1h-1zM81 84h1v1h-1zM79 87h1v1h-1zM77 90h1v1h-1zM75 92h1v1h-1z" /><path fill="#0c0c0c" d="M28 6h1v1h-1zM27 7h1v1h-1zM26 8h1v1h-1zM25 9h1v1h-1zM21 14h1v1h-1zM20 15h1v1h-1zM19 16h1v1h-1zM18 17h1v1h-1zM17 18h1v1h-1zM14 22h1v1h-1zM13 23h1v1h-1zM12 24h1v1h-1zM11 25h1v1h-1zM10 26h1v1h-1zM6 31h1v1h-1zM5 32h1v1h-1zM4 33h1v1h-1zM3 34h1v1h-1zM98 57h1v1h-1zM96 60h1v1h-1zM94 63h1v1h-1zM92 66h1v1h-1zM90 69h1v1h-1zM89 70h1v1h-1zM88 72h1v1h-1zM87 73h1v1h-1zM86 75h1v1h-1zM85 76h1v1h-1zM83 79h1v1h-1zM81 82h1v1h-1zM79 85h1v1h-1zM77 88h1v1h-1zM75 91h1v1h-1zM74 92h1v1h-1zM73 93h1v1h-1z" /><path fill="#404040" d="M55 6h1v1h-1zM54 7h1v1h-1zM53 8h1v1h-1zM52 9h1v1h-1zM48 14h1v1h-1zM47 15h1v1h-1zM46 16h1v1h-1zM45 17h1v1h-1zM44 18h1v1h-1zM40 23h1v1h-1zM39 24h1v1h-1zM94 27h1v1h-1zM93 29h1v1h-1zM26 31h1v1h-1zM91 32h1v1h-1zM89 35h1v1h-1zM87 38h1v1h-1zM86 39h1v1h-1zM85 41h1v1h-1zM84 42h1v1h-1zM83 44h1v1h-1zM16 50h1v1h-1zM15 51h1v1h-1zM12 55h1v1h-1zM11 56h1v1h-1zM10 57h1v1h-1zM9 58h1v1h-1zM8 59h1v1h-1zM4 64h1v1h-1zM3 65h1v1h-1zM61 76h1v1h-1zM59 79h1v1h-1zM58 80h1v1h-1zM57 82h1v1h-1zM56 83h1v1h-1zM55 85h1v1h-1zM54 86h1v1h-1zM52 89h1v1h-1zM50 92h1v1h-1zM48 95h1v1h-1zM46 98h1v1h-1zM48 99h1v1h-1z" /><path fill="#444444" d="M57 6h1v1h-1zM56 7h1v1h-1zM55 8h1v1h-1zM54 9h1v1h-1zM50 14h1v1h-1zM49 15h1v1h-1zM48 16h1v1h-1zM47 17h1v1h-1zM43 22h1v1h-1zM42 23h1v1h-1zM92 28h1v1h-1zM91 29h1v1h-1zM90 31h1v1h-1zM89 32h1v1h-1zM88 34h1v1h-1zM87 35h1v1h-1zM85 38h1v1h-1zM83 41h1v1h-1zM14 55h1v1h-1zM13 56h1v1h-1zM12 57h1v1h-1zM11 58h1v1h-1zM7 63h1v1h-1zM6 64h1v1h-1zM5 65h1v1h-1zM4 66h1v1h-1zM3 68h1v1h-1zM59 76h1v1h-1zM57 79h1v1h-1zM55 82h1v1h-1zM53 85h1v1h-1zM51 88h1v1h-1zM50 89h1v1h-1zM49 91h1v1h-1zM48 92h1v1h-1zM47 94h1v1h-1zM46 95h1v1h-1zM44 98h1v1h-1z" /><path fill="#525252" d="M64 6h1v1h-1zM63 7h1v1h-1zM59 12h1v1h-1zM58 13h1v1h-1zM57 14h1v1h-1zM56 15h1v1h-1zM52 20h1v1h-1zM51 21h1v1h-1zM90 21h1v1h-1zM50 22h1v1h-1zM49 23h1v1h-1zM89 23h1v1h-1zM88 24h1v1h-1zM86 27h1v1h-1zM84 30h1v1h-1zM17 50h1v1h-1zM16 61h1v1h-1zM15 62h1v1h-1zM14 63h1v1h-1zM13 64h1v1h-1zM9 69h1v1h-1zM8 70h1v1h-1zM7 71h1v1h-1zM6 72h1v1h-1zM6 73h1v1h-1zM52 77h1v1h-1zM51 78h1v1h-1zM50 80h1v1h-1zM49 81h1v1h-1zM48 83h1v1h-1zM47 84h1v1h-1zM45 87h1v1h-1zM43 90h1v1h-1zM41 93h1v1h-1zM39 96h1v1h-1z" /><path fill="#545454" d="M65 6h1v1h-1zM61 11h1v1h-1zM60 12h1v1h-1zM59 13h1v1h-1zM58 14h1v1h-1zM57 15h1v1h-1zM53 20h1v1h-1zM52 21h1v1h-1zM89 21h1v1h-1zM51 22h1v1h-1zM50 23h1v1h-1zM88 23h1v1h-1zM45 24h1v1h-1zM87 24h1v1h-1zM86 26h1v1h-1zM85 27h1v1h-1zM83 30h1v1h-1zM16 62h1v1h-1zM15 63h1v1h-1zM14 64h1v1h-1zM10 69h1v1h-1zM9 70h1v1h-1zM8 71h1v1h-1zM7 72h1v1h-1zM51 77h1v1h-1zM49 80h1v1h-1zM47 83h1v1h-1zM46 84h1v1h-1zM45 86h1v1h-1zM44 87h1v1h-1zM43 89h1v1h-1zM42 90h1v1h-1zM40 93h1v1h-1z" /><path fill="#585858" d="M66 6h1v1h-1zM63 11h1v1h-1zM62 12h1v1h-1zM61 13h1v1h-1zM60 14h1v1h-1zM56 19h1v1h-1zM55 20h1v1h-1zM88 20h1v1h-1zM54 21h1v1h-1zM53 22h1v1h-1zM86 23h1v1h-1zM84 26h1v1h-1zM82 29h1v1h-1zM82 32h1v1h-1zM13 68h1v1h-1zM12 69h1v1h-1zM11 70h1v1h-1zM10 71h1v1h-1zM69 71h1v1h-1zM50 76h1v1h-1zM49 77h1v1h-1zM47 80h1v1h-1zM45 83h1v1h-1zM43 86h1v1h-1zM41 89h1v1h-1zM40 90h1v1h-1zM39 92h1v1h-1zM38 93h1v1h-1zM37 95h1v1h-1z" /><path fill="#7e7e7e" d="M67 6h1v1h-1zM78 9h1v1h-1zM77 10h1v1h-1zM76 12h1v1h-1zM75 13h1v1h-1zM74 21h1v1h-1zM73 22h1v1h-1zM72 23h1v1h-1zM79 23h1v1h-1zM71 24h1v1h-1zM67 29h1v1h-1zM66 30h1v1h-1zM65 31h1v1h-1zM64 32h1v1h-1zM63 33h1v1h-1zM37 69h1v1h-1zM36 70h1v1h-1zM35 72h1v1h-1zM34 73h1v1h-1zM33 75h1v1h-1zM53 75h1v1h-1zM32 76h1v1h-1zM30 79h1v1h-1zM21 81h1v1h-1zM20 82h1v1h-1zM28 82h1v1h-1zM26 85h1v1h-1zM28 89h1v1h-1zM30 91h1v1h-1z" /><path fill="#939393" d="M70 6h1v1h-1zM69 7h1v1h-1zM77 30h1v1h-1zM76 31h1v1h-1zM75 32h1v1h-1zM74 33h1v1h-1zM70 38h1v1h-1zM69 39h1v1h-1zM68 40h1v1h-1zM67 41h1v1h-1zM66 42h1v1h-1zM64 45h1v1h-1zM34 59h1v1h-1zM32 62h1v1h-1zM30 65h1v1h-1zM29 66h1v1h-1zM28 68h1v1h-1zM27 69h1v1h-1zM26 71h1v1h-1zM25 72h1v1h-1zM23 75h1v1h-1zM55 75h2v1h-2zM25 89h1v1h-1zM24 90h1v1h-1zM23 91h1v1h-1z" /><path fill="#919191" d="M71 6h1v1h-1zM79 26h1v1h-1zM80 27h1v1h-1zM75 31h1v1h-1zM74 32h1v1h-1zM73 33h1v1h-1zM24 34h1v1h-1zM72 34h1v1h-1zM68 39h1v1h-1zM67 40h1v1h-1zM66 41h1v1h-1zM65 42h1v1h-1zM17 56h1v1h-1zM35 59h1v1h-1zM34 60h1v1h-1zM33 62h1v1h-1zM32 63h1v1h-1zM31 65h1v1h-1zM30 66h1v1h-1zM28 69h1v1h-1zM26 72h1v1h-1zM24 75h1v1h-1zM22 78h1v1h-1zM25 88h1v1h-1zM24 89h1v1h-1zM23 90h1v1h-1zM32 93h1v1h-1z" /><path fill="#060606" d="M24 7h1v1h-1zM23 8h1v1h-1zM22 9h1v1h-1zM21 10h1v1h-1zM17 15h1v1h-1zM16 16h1v1h-1zM15 17h1v1h-1zM14 18h1v1h-1zM10 23h1v1h-1zM9 24h1v1h-1zM8 25h1v1h-1zM7 26h1v1h-1zM6 27h1v1h-1zM98 61h1v1h-1zM97 63h1v1h-1zM96 64h1v1h-1zM94 67h1v1h-1zM92 70h1v1h-1zM90 73h1v1h-1zM88 76h1v1h-1zM87 77h1v1h-1zM86 79h1v1h-1zM85 80h1v1h-1zM84 82h1v1h-1zM83 83h1v1h-1zM82 85h1v1h-1zM81 86h1v1h-1zM79 89h1v1h-1zM78 90h1v1h-1z" /><path fill="#080808" d="M25 7h1v1h-1zM24 8h1v1h-1zM23 9h1v1h-1zM22 10h1v1h-1zM18 15h1v1h-1zM17 16h1v1h-1zM16 17h1v1h-1zM15 18h1v1h-1zM11 23h1v1h-1zM10 24h1v1h-1zM9 25h1v1h-1zM8 26h1v1h-1zM4 31h1v1h-1zM3 32h1v1h-1zM98 60h1v1h-1zM97 61h1v1h-1zM96 63h1v1h-1zM95 64h1v1h-1zM94 66h1v1h-1zM93 67h1v1h-1zM91 70h1v1h-1zM89 73h1v1h-1zM87 76h1v1h-1zM85 79h1v1h-1zM83 82h1v1h-1zM82 83h1v1h-1zM81 85h1v1h-1zM80 86h1v1h-1zM79 88h1v1h-1zM78 89h1v1h-1z" /><path fill="#535353" d="M64 7h1v1h-1zM63 8h1v1h-1zM62 9h1v1h-1zM61 10h1v1h-1zM60 11h1v1h-1zM56 16h1v1h-1zM55 17h1v1h-1zM54 18h1v1h-1zM53 19h1v1h-1zM89 22h1v1h-1zM49 24h1v1h-1zM87 25h1v1h-1zM85 28h1v1h-1zM84 29h1v1h-1zM83 31h1v1h-1zM13 65h1v1h-1zM12 66h1v1h-1zM11 67h1v1h-1zM10 68h1v1h-1zM52 76h1v1h-1zM50 79h1v1h-1zM48 82h1v1h-1zM46 85h1v1h-1zM44 88h1v1h-1zM42 91h1v1h-1zM41 92h1v1h-1zM40 94h1v1h-1zM39 95h1v1h-1z" /><path fill="#555555" d="M65 7h1v1h-1zM64 8h1v1h-1zM63 9h1v1h-1zM62 10h1v1h-1zM58 15h1v1h-1zM57 16h1v1h-1zM56 17h1v1h-1zM55 18h1v1h-1zM54 19h1v1h-1zM88 22h1v1h-1zM51 23h1v1h-1zM50 24h1v1h-1zM36 25h1v1h-1zM86 25h1v1h-1zM84 28h1v1h-1zM82 31h1v1h-1zM78 61h1v1h-1zM14 65h1v1h-1zM13 66h1v1h-1zM12 67h1v1h-1zM11 68h1v1h-1zM7 73h1v1h-1zM6 74h1v1h-1zM51 76h1v1h-1zM50 78h1v1h-1zM49 79h1v1h-1zM48 81h1v1h-1zM47 82h1v1h-1zM45 85h1v1h-1zM43 88h1v1h-1zM41 91h1v1h-1zM39 94h1v1h-1zM38 95h1v1h-1z" /><path fill="#595959" d="M67 7h1v1h-1zM66 8h1v1h-1zM65 9h1v1h-1zM64 10h1v1h-1zM60 15h1v1h-1zM59 16h1v1h-1zM58 17h1v1h-1zM57 18h1v1h-1zM87 21h1v1h-1zM86 22h1v1h-1zM53 23h1v1h-1zM41 24h1v1h-1zM52 24h1v1h-1zM85 24h1v1h-1zM51 25h1v1h-1zM84 25h1v1h-1zM83 27h1v1h-1zM82 28h1v1h-1zM20 40h1v1h-1zM82 50h1v1h-1zM16 65h1v1h-1zM15 66h1v1h-1zM14 67h1v1h-1zM10 72h1v1h-1zM9 73h1v1h-1zM8 74h1v1h-1zM7 75h1v1h-1zM50 75h2v1h-2zM48 78h1v1h-1zM46 81h1v1h-1zM45 82h1v1h-1zM44 84h1v1h-1zM43 85h1v1h-1zM42 87h1v1h-1zM41 88h1v1h-1zM39 91h1v1h-1zM37 94h1v1h-1z" /><path fill="#717171" d="M68 7h1v1h-1zM82 12h1v1h-1zM81 13h1v1h-1zM73 14h1v1h-1zM80 15h1v1h-1zM79 16h1v1h-1zM78 18h1v1h-1zM69 19h1v1h-1zM68 20h1v1h-1zM67 21h1v1h-1zM66 22h1v1h-1zM79 22h1v1h-1zM62 27h1v1h-1zM61 28h1v1h-1zM60 29h1v1h-1zM59 30h1v1h-1zM58 31h1v1h-1zM41 72h1v1h-1zM40 73h1v1h-1zM19 75h1v1h-1zM39 75h1v1h-1zM38 76h1v1h-1zM18 77h1v1h-1zM17 78h1v1h-1zM37 78h1v1h-1zM16 79h1v1h-1zM36 79h1v1h-1zM15 80h1v1h-1zM34 82h1v1h-1zM13 83h1v1h-1zM32 85h1v1h-1zM30 88h1v1h-1z" /><path fill="#909090" d="M71 7h1v1h-1zM78 27h1v1h-1zM77 28h1v1h-1zM76 29h1v1h-1zM75 30h1v1h-1zM71 35h1v1h-1zM70 36h1v1h-1zM69 37h1v1h-1zM68 38h1v1h-1zM64 43h1v1h-1zM34 61h1v1h-1zM32 64h1v1h-1zM30 67h1v1h-1zM29 68h1v1h-1zM28 70h1v1h-1zM27 71h1v1h-1zM26 73h1v1h-1zM25 74h1v1h-1zM23 77h1v1h-1zM25 87h1v1h-1z" /><path fill="#8e8e8e" d="M72 7h1v1h-1zM70 8h2v1h-2zM77 27h1v1h-1zM76 28h1v1h-1zM75 29h1v1h-1zM74 30h1v1h-1zM70 35h1v1h-1zM69 36h1v1h-1zM68 37h1v1h-1zM67 38h1v1h-1zM18 47h1v1h-1zM35 61h1v1h-1zM33 64h1v1h-1zM32 65h1v1h-1zM31 67h1v1h-1zM30 68h1v1h-1zM29 70h1v1h-1zM28 71h1v1h-1zM26 74h1v1h-1zM24 77h1v1h-1zM21 78h1v1h-1zM24 87h1v1h-1zM23 88h1v1h-1zM37 96h1v1h-1z" /><path fill="#8b8b8b" d="M73 7h1v1h-1zM72 9h1v1h-1zM78 24h1v1h-1zM77 25h1v1h-1zM76 26h1v1h-1zM75 27h1v1h-1zM72 31h1v1h-1zM71 32h1v1h-1zM70 33h1v1h-1zM69 34h1v1h-1zM68 35h1v1h-1zM64 40h1v1h-1zM17 55h1v1h-1zM35 63h1v1h-1zM33 66h1v1h-1zM32 67h1v1h-1zM31 69h1v1h-1zM30 70h1v1h-1zM29 72h1v1h-1zM28 73h1v1h-1zM26 76h1v1h-1zM24 79h1v1h-1zM21 89h1v1h-1z" /><path fill="#898989" d="M74 7h1v1h-1zM77 24h1v1h-1zM76 25h1v1h-1zM75 26h1v1h-1zM74 27h1v1h-1zM70 32h1v1h-1zM69 33h1v1h-1zM68 34h1v1h-1zM67 35h1v1h-1zM36 63h1v1h-1zM35 64h1v1h-1zM34 66h1v1h-1zM33 67h1v1h-1zM32 69h1v1h-1zM31 70h1v1h-1zM19 73h1v1h-1zM29 73h1v1h-1zM20 76h1v1h-1zM27 76h1v1h-1zM25 79h1v1h-1zM24 85h1v1h-1z" /><path fill="#878787" d="M75 7h1v1h-1zM73 10h1v1h-1zM76 24h1v1h-1zM75 25h1v1h-1zM74 26h1v1h-1zM73 27h1v1h-1zM81 30h1v1h-1zM69 32h1v1h-1zM68 33h1v1h-1zM67 34h1v1h-1zM66 35h1v1h-1zM37 63h1v1h-1zM36 64h1v1h-1zM34 67h1v1h-1zM32 70h1v1h-1zM30 73h1v1h-1zM28 76h1v1h-1zM26 79h1v1h-1zM25 80h1v1h-1zM24 82h1v1h-1zM23 84h1v1h-1zM22 85h1v1h-1zM31 92h1v1h-1zM42 98h1v1h-1z" /><path fill="#4d4d4d" d="M60 8h1v1h-1zM59 9h1v1h-1zM58 10h1v1h-1zM57 11h1v1h-1zM56 12h1v1h-1zM53 16h1v1h-1zM52 17h1v1h-1zM51 18h1v1h-1zM50 19h1v1h-1zM49 20h1v1h-1zM91 23h1v1h-1zM89 26h1v1h-1zM87 29h1v1h-1zM85 32h1v1h-1zM83 35h1v1h-1zM16 58h1v1h-1zM15 59h1v1h-1zM14 60h1v1h-1zM13 61h1v1h-1zM9 66h1v1h-1zM8 67h1v1h-1zM7 68h1v1h-1zM6 69h1v1h-1zM55 76h1v1h-1zM54 77h1v1h-1zM53 79h1v1h-1zM52 80h1v1h-1zM51 82h1v1h-1zM50 83h1v1h-1zM48 86h1v1h-1zM46 89h1v1h-1zM44 92h1v1h-1zM42 95h1v1h-1z" /><path fill="#515151" d="M62 8h1v1h-1zM61 9h1v1h-1zM60 10h1v1h-1zM59 11h1v1h-1zM55 16h1v1h-1zM54 17h1v1h-1zM53 18h1v1h-1zM52 19h1v1h-1zM90 22h1v1h-1zM48 24h1v1h-1zM88 25h1v1h-1zM87 26h1v1h-1zM86 28h1v1h-1zM85 29h1v1h-1zM84 31h1v1h-1zM83 32h1v1h-1zM16 60h1v1h-1zM12 65h1v1h-1zM11 66h1v1h-1zM10 67h1v1h-1zM9 68h1v1h-1zM53 76h1v1h-1zM51 79h1v1h-1zM49 82h1v1h-1zM47 85h1v1h-1zM46 86h1v1h-1zM45 88h1v1h-1zM44 89h1v1h-1zM43 91h1v1h-1zM42 92h1v1h-1zM40 95h1v1h-1z" /><path fill="#5b5b5b" d="M67 8h1v1h-1zM66 9h1v1h-1zM62 14h1v1h-1zM61 15h1v1h-1zM60 16h1v1h-1zM59 17h1v1h-1zM58 18h1v1h-1zM88 18h1v1h-1zM86 21h1v1h-1zM54 23h1v1h-1zM53 24h1v1h-1zM84 24h1v1h-1zM52 25h1v1h-1zM83 25h1v1h-1zM51 26h1v1h-1zM82 27h1v1h-1zM21 38h1v1h-1zM16 66h1v1h-1zM15 67h1v1h-1zM11 72h1v1h-1zM10 73h1v1h-1zM9 74h1v1h-1zM8 75h1v1h-1zM49 75h1v1h-1zM47 78h1v1h-1zM45 81h1v1h-1zM43 84h1v1h-1zM41 87h1v1h-1zM40 88h1v1h-1zM39 90h1v1h-1zM38 91h1v1h-1zM37 93h1v1h-1zM36 94h1v1h-1z" /><path fill="#5d5d5d" d="M68 8h1v1h-1zM67 9h1v1h-1zM63 14h1v1h-1zM62 15h1v1h-1zM61 16h1v1h-1zM60 17h1v1h-1zM87 18h1v1h-1zM85 21h1v1h-1zM56 22h1v1h-1zM55 23h1v1h-1zM54 24h1v1h-1zM83 24h1v1h-1zM53 25h1v1h-1zM16 67h1v1h-1zM13 71h1v1h-1zM12 72h1v1h-1zM11 73h1v1h-1zM10 74h1v1h-1zM49 74h1v1h-1zM9 75h1v1h-1zM48 75h1v1h-1zM47 77h1v1h-1zM46 78h1v1h-1zM44 81h1v1h-1zM42 84h1v1h-1zM40 87h1v1h-1zM38 90h1v1h-1zM37 91h1v1h-1zM36 93h1v1h-1zM35 94h1v1h-1zM43 98h1v1h-1z" /><path fill="#6e6e6e" d="M69 8h1v1h-1zM71 10h1v1h-1zM82 14h1v1h-1zM71 15h1v1h-1zM81 15h1v1h-1zM70 16h1v1h-1zM69 17h1v1h-1zM80 17h1v1h-1zM68 18h1v1h-1zM79 18h1v1h-1zM67 19h1v1h-1zM63 24h1v1h-1zM62 25h1v1h-1zM61 26h1v1h-1zM60 27h1v1h-1zM23 35h1v1h-1zM82 49h1v1h-1zM43 70h1v1h-1zM43 71h1v1h-1zM41 74h1v1h-1zM18 75h1v1h-1zM52 75h1v1h-1zM17 76h1v1h-1zM39 77h1v1h-1zM38 78h1v1h-1zM37 80h1v1h-1zM13 81h1v1h-1zM36 81h1v1h-1zM12 82h1v1h-1zM35 83h1v1h-1zM34 84h1v1h-1zM32 87h1v1h-1zM30 90h1v1h-1zM46 99h1v1h-1z" /><path fill="#8a8a8a" d="M73 8h1v1h-1zM71 9h1v1h-1zM78 23h1v1h-1zM48 25h1v1h-1zM74 28h1v1h-1zM73 29h1v1h-1zM72 30h1v1h-1zM71 31h1v1h-1zM67 36h1v1h-1zM66 37h1v1h-1zM65 38h1v1h-1zM64 39h1v1h-1zM63 41h1v1h-1zM17 60h1v1h-1zM36 62h1v1h-1zM34 65h1v1h-1zM32 68h1v1h-1zM30 71h1v1h-1zM28 74h1v1h-1zM27 75h1v1h-1zM26 77h1v1h-1zM25 78h1v1h-1zM24 80h1v1h-1zM23 81h1v1h-1zM23 86h1v1h-1zM25 86h1v1h-1zM22 87h1v1h-1zM21 88h1v1h-1z" /><path fill="#888888" d="M74 8h1v1h-1zM73 9h1v1h-1zM72 10h1v1h-1zM78 22h1v1h-1zM77 23h1v1h-1zM73 28h1v1h-1zM72 29h1v1h-1zM71 30h1v1h-1zM70 31h1v1h-1zM66 36h1v1h-1zM65 37h1v1h-1zM64 38h1v1h-1zM63 39h1v1h-1zM63 40h1v1h-1zM80 56h1v1h-1zM37 62h1v1h-1zM35 65h1v1h-1zM33 68h1v1h-1zM31 71h1v1h-1zM30 72h1v1h-1zM65 73h1v1h-1zM29 74h1v1h-1zM50 74h1v1h-1zM28 75h1v1h-1zM27 77h1v1h-1zM26 78h1v1h-1zM24 81h1v1h-1zM23 82h1v1h-1zM23 85h1v1h-1zM22 86h1v1h-1zM21 87h1v1h-1zM20 88h1v1h-1zM20 89h1v1h-1z" /><path fill="#868686" d="M75 8h1v1h-1zM74 9h1v1h-1zM77 22h1v1h-1zM76 23h1v1h-1zM72 28h1v1h-1zM71 29h1v1h-1zM70 30h1v1h-1zM69 31h1v1h-1zM65 36h1v1h-1zM64 37h1v1h-1zM63 38h1v1h-1zM17 54h1v1h-1zM36 65h1v1h-1zM35 66h1v1h-1zM34 68h1v1h-1zM33 69h1v1h-1zM32 71h1v1h-1zM31 72h1v1h-1zM30 74h1v1h-1zM29 75h1v1h-1zM27 78h1v1h-1zM25 81h1v1h-1zM23 83h1v1h-1zM21 86h1v1h-1zM20 87h1v1h-1zM26 87h1v1h-1zM19 88h1v1h-1z" /><path fill="#838383" d="M76 8h1v1h-1zM75 10h1v1h-1zM74 11h1v1h-1zM77 20h1v1h-1zM78 21h1v1h-1zM74 24h1v1h-1zM73 25h1v1h-1zM72 26h1v1h-1zM71 27h1v1h-1zM70 28h1v1h-1zM66 33h1v1h-1zM65 34h1v1h-1zM64 35h1v1h-1zM63 36h1v1h-1zM75 65h1v1h-1zM36 67h1v1h-1zM34 70h1v1h-1zM33 71h1v1h-1zM32 73h1v1h-1zM31 74h1v1h-1zM30 76h1v1h-1zM29 77h1v1h-1zM27 80h1v1h-1zM22 83h1v1h-1zM25 83h1v1h-1zM21 84h1v1h-1zM20 85h1v1h-1z" /><path fill="#040404" d="M21 9h1v1h-1zM20 10h1v1h-1zM19 11h1v1h-1zM16 15h1v1h-1zM15 16h1v1h-1zM14 17h1v1h-1zM13 18h1v1h-1zM12 19h1v1h-1zM8 24h1v1h-1zM7 25h1v1h-1zM6 26h1v1h-1zM95 67h1v1h-1zM93 70h1v1h-1zM91 73h1v1h-1zM90 74h1v1h-1zM89 76h1v1h-1zM88 77h1v1h-1zM87 79h1v1h-1zM86 80h1v1h-1zM84 83h1v1h-1zM82 86h1v1h-1z" /><path fill="#5f5f5f" d="M68 9h1v1h-1zM64 14h1v1h-1zM63 15h1v1h-1zM62 16h1v1h-1zM61 17h1v1h-1zM86 18h1v1h-1zM85 20h1v1h-1zM84 21h1v1h-1zM57 22h1v1h-1zM56 23h1v1h-1zM44 24h1v1h-1zM55 24h1v1h-1zM82 24h1v1h-1zM54 25h1v1h-1zM30 28h1v1h-1zM76 64h1v1h-1zM17 66h1v1h-1zM14 71h1v1h-1zM13 72h1v1h-1zM12 73h1v1h-1zM11 74h1v1h-1zM48 74h1v1h-1zM47 75h1v1h-1zM46 77h1v1h-1zM45 78h1v1h-1zM44 80h1v1h-1zM43 81h1v1h-1zM41 84h1v1h-1zM39 87h1v1h-1zM37 90h1v1h-1zM35 93h1v1h-1z" /><path fill="#848484" d="M75 9h1v1h-1zM77 21h1v1h-1zM76 22h1v1h-1zM75 23h1v1h-1zM71 28h1v1h-1zM70 29h1v1h-1zM69 30h1v1h-1zM68 31h1v1h-1zM67 32h1v1h-1zM82 36h1v1h-1zM63 37h1v1h-1zM62 38h1v1h-1zM82 48h1v1h-1zM17 61h1v1h-1zM37 65h1v1h-1zM36 66h1v1h-1zM35 68h1v1h-1zM34 69h1v1h-1zM32 72h1v1h-1zM30 75h1v1h-1zM28 78h1v1h-1zM21 79h1v1h-1zM26 81h1v1h-1zM20 86h1v1h-1zM19 87h1v1h-1z" /><path fill="#828282" d="M76 9h1v1h-1zM74 12h1v1h-1zM76 21h1v1h-1zM75 22h1v1h-1zM74 23h1v1h-1zM73 24h1v1h-1zM80 26h1v1h-1zM69 29h1v1h-1zM68 30h1v1h-1zM67 31h1v1h-1zM66 32h1v1h-1zM62 37h1v1h-1zM38 64h1v1h-1zM38 65h1v1h-1zM37 66h1v1h-1zM35 69h1v1h-1zM33 72h1v1h-1zM31 75h1v1h-1zM29 78h1v1h-1zM28 79h1v1h-1zM27 81h1v1h-1zM26 82h1v1h-1zM25 84h1v1h-1zM19 86h1v1h-1zM18 87h1v1h-1z" /><path fill="#808080" d="M77 9h1v1h-1zM75 12h1v1h-1zM77 19h1v1h-1zM75 21h1v1h-1zM74 22h1v1h-1zM73 23h1v1h-1zM72 24h1v1h-1zM68 29h1v1h-1zM67 30h1v1h-1zM66 31h1v1h-1zM65 32h1v1h-1zM38 66h1v1h-1zM36 69h1v1h-1zM34 72h1v1h-1zM32 75h1v1h-1zM31 76h1v1h-1zM30 78h1v1h-1zM29 79h1v1h-1zM28 81h1v1h-1zM21 82h1v1h-1zM27 82h1v1h-1z" /><path fill="#0b0b0b" d="M24 10h1v1h-1zM23 11h1v1h-1zM22 12h1v1h-1zM21 13h1v1h-1zM20 14h1v1h-1zM16 19h1v1h-1zM15 20h1v1h-1zM14 21h1v1h-1zM13 22h1v1h-1zM9 27h1v1h-1zM8 28h1v1h-1zM7 29h1v1h-1zM6 30h1v1h-1zM2 35h1v1h-1zM99 56h1v1h-1zM98 58h1v1h-1zM97 59h1v1h-1zM96 61h1v1h-1zM95 62h1v1h-1zM94 64h1v1h-1zM93 65h1v1h-1zM91 68h1v1h-1zM89 71h1v1h-1zM87 74h1v1h-1zM85 77h1v1h-1zM84 78h1v1h-1zM83 80h1v1h-1zM82 81h1v1h-1zM81 83h1v1h-1zM80 84h1v1h-1zM78 87h1v1h-1zM76 90h1v1h-1z" /><path fill="#5a5a5a" d="M65 10h1v1h-1zM64 11h1v1h-1zM63 12h1v1h-1zM62 13h1v1h-1zM61 14h1v1h-1zM57 19h1v1h-1zM88 19h1v1h-1zM56 20h1v1h-1zM87 20h1v1h-1zM55 21h1v1h-1zM54 22h1v1h-1zM85 23h1v1h-1zM83 26h1v1h-1zM81 54h1v1h-1zM14 68h1v1h-1zM13 69h1v1h-1zM12 70h1v1h-1zM11 71h1v1h-1zM49 76h1v1h-1zM48 77h1v1h-1zM47 79h1v1h-1zM46 80h1v1h-1zM44 83h1v1h-1zM42 86h1v1h-1zM40 89h1v1h-1zM38 92h1v1h-1z" /><path fill="#5c5c5c" d="M66 10h1v1h-1zM65 11h1v1h-1zM64 12h1v1h-1zM63 13h1v1h-1zM59 18h1v1h-1zM58 19h1v1h-1zM87 19h1v1h-1zM57 20h1v1h-1zM86 20h1v1h-1zM56 21h1v1h-1zM55 22h1v1h-1zM85 22h1v1h-1zM84 23h1v1h-1zM42 24h1v1h-1zM52 26h1v1h-1zM82 26h1v1h-1zM15 68h1v1h-1zM14 69h1v1h-1zM13 70h1v1h-1zM12 71h1v1h-1zM8 76h1v1h-1zM48 76h1v1h-1zM46 79h1v1h-1zM45 80h1v1h-1zM44 82h1v1h-1zM43 83h1v1h-1zM42 85h1v1h-1zM41 86h1v1h-1zM39 89h1v1h-1zM37 92h1v1h-1z" /><path fill="#5e5e5e" d="M67 10h1v1h-1zM66 11h1v1h-1zM65 12h1v1h-1zM64 13h1v1h-1zM87 17h1v1h-1zM60 18h1v1h-1zM59 19h1v1h-1zM86 19h1v1h-1zM58 20h1v1h-1zM57 21h1v1h-1zM84 22h1v1h-1zM83 23h1v1h-1zM43 24h1v1h-1zM82 25h1v1h-1zM53 26h1v1h-1zM81 26h1v1h-1zM81 27h1v1h-1zM17 67h1v1h-1zM16 68h1v1h-1zM15 69h1v1h-1zM14 70h1v1h-1zM10 75h1v1h-1zM9 76h1v1h-1zM47 76h1v1h-1zM8 77h1v1h-1zM45 79h1v1h-1zM43 82h1v1h-1zM42 83h1v1h-1zM41 85h1v1h-1zM40 86h1v1h-1zM39 88h1v1h-1zM38 89h1v1h-1zM36 92h1v1h-1zM38 96h1v1h-1z" /><path fill="#626262" d="M69 10h1v1h-1zM68 11h1v1h-1zM67 12h1v1h-1zM63 17h1v1h-1zM62 18h1v1h-1zM61 19h1v1h-1zM84 19h1v1h-1zM60 20h1v1h-1zM59 21h1v1h-1zM82 22h1v1h-1zM55 26h1v1h-1zM54 27h1v1h-1zM17 69h1v1h-1zM16 70h1v1h-1zM12 75h1v1h-1zM46 75h1v1h-1zM11 76h1v1h-1zM45 76h1v1h-1zM10 77h1v1h-1zM9 78h1v1h-1zM44 78h1v1h-1zM43 79h1v1h-1zM41 82h1v1h-1zM39 85h1v1h-1zM37 88h1v1h-1zM35 91h1v1h-1zM34 92h1v1h-1z" /><path fill="#646464" d="M70 10h1v1h-1zM69 11h1v1h-1zM68 12h1v1h-1zM85 16h1v1h-1zM64 17h1v1h-1zM63 18h1v1h-1zM84 18h1v1h-1zM62 19h1v1h-1zM83 19h1v1h-1zM61 20h1v1h-1zM82 21h1v1h-1zM81 22h1v1h-1zM57 25h1v1h-1zM56 26h1v1h-1zM55 27h1v1h-1zM54 28h1v1h-1zM17 70h1v1h-1zM13 75h1v1h-1zM45 75h1v1h-1zM12 76h1v1h-1zM44 76h1v1h-1zM11 77h1v1h-1zM10 78h1v1h-1zM43 78h1v1h-1zM42 79h1v1h-1zM41 81h1v1h-1zM40 82h1v1h-1zM38 85h1v1h-1zM36 88h1v1h-1zM34 91h1v1h-1z" /><path fill="#858585" d="M74 10h1v1h-1zM73 11h1v1h-1zM75 24h1v1h-1zM74 25h1v1h-1zM73 26h1v1h-1zM72 27h1v1h-1zM68 32h1v1h-1zM67 33h1v1h-1zM66 34h1v1h-1zM65 35h1v1h-1zM64 36h1v1h-1zM37 64h1v1h-1zM35 67h1v1h-1zM18 69h1v1h-1zM33 70h1v1h-1zM67 72h1v1h-1zM31 73h1v1h-1zM29 76h1v1h-1zM28 77h1v1h-1zM27 79h1v1h-1zM26 80h1v1h-1zM22 81h1v1h-1zM25 82h1v1h-1zM24 83h1v1h-1zM22 84h1v1h-1zM24 84h1v1h-1zM21 85h1v1h-1z" /><path fill="#818181" d="M76 10h1v1h-1zM75 11h1v1h-1zM76 20h1v1h-1zM72 25h1v1h-1zM71 26h1v1h-1zM70 27h1v1h-1zM69 28h1v1h-1zM65 33h1v1h-1zM64 34h1v1h-1zM63 35h1v1h-1zM62 36h1v1h-1zM17 53h1v1h-1zM81 53h1v1h-1zM37 67h1v1h-1zM36 68h1v1h-1zM35 70h1v1h-1zM34 71h1v1h-1zM33 73h1v1h-1zM32 74h1v1h-1zM30 77h1v1h-1zM28 80h1v1h-1zM22 82h1v1h-1zM21 83h1v1h-1zM26 83h1v1h-1zM20 84h1v1h-1zM19 85h1v1h-1zM25 85h1v1h-1zM18 86h1v1h-1zM27 88h1v1h-1z" /><path fill="#7c7c7c" d="M78 10h1v1h-1zM74 13h1v1h-1zM76 13h1v1h-1zM75 14h1v1h-1zM72 22h1v1h-1zM71 23h1v1h-1zM70 24h1v1h-1zM69 25h1v1h-1zM65 30h1v1h-1zM64 31h1v1h-1zM63 32h1v1h-1zM62 33h1v1h-1zM39 67h1v1h-1zM38 69h1v1h-1zM37 70h1v1h-1zM70 70h1v1h-1zM36 72h1v1h-1zM35 73h1v1h-1zM33 76h1v1h-1zM31 79h1v1h-1zM20 81h1v1h-1zM19 82h1v1h-1zM29 82h1v1h-1zM27 85h1v1h-1zM16 86h1v1h-1z" /><path fill="#7a7a7a" d="M79 10h1v1h-1zM77 13h1v1h-1zM75 17h1v1h-1zM71 22h1v1h-1zM70 23h1v1h-1zM69 24h1v1h-1zM68 25h1v1h-1zM32 27h1v1h-1zM64 30h1v1h-1zM63 31h1v1h-1zM62 32h1v1h-1zM61 33h1v1h-1zM82 35h1v1h-1zM40 67h1v1h-1zM38 70h1v1h-1zM36 73h1v1h-1zM34 76h1v1h-1zM32 79h1v1h-1zM20 80h1v1h-1zM19 81h1v1h-1zM18 82h1v1h-1zM30 82h1v1h-1zM17 83h1v1h-1zM29 83h1v1h-1zM28 85h1v1h-1zM27 86h1v1h-1z" /><path fill="#010101" d="M18 11h1v1h-1zM17 12h1v1h-1zM16 13h1v1h-1zM15 14h1v1h-1zM14 15h1v1h-1zM10 20h1v1h-1zM9 21h1v1h-1zM8 22h1v1h-1zM96 67h1v1h-1zM95 69h1v1h-1zM93 72h1v1h-1zM91 75h1v1h-1zM89 78h1v1h-1zM88 79h1v1h-1zM87 81h1v1h-1zM86 82h1v1h-1zM85 84h1v1h-1zM84 85h1v1h-1z" /><path fill="#050505" d="M20 11h1v1h-1zM19 12h1v1h-1zM18 13h1v1h-1zM17 14h1v1h-1zM13 19h1v1h-1zM12 20h1v1h-1zM11 21h1v1h-1zM10 22h1v1h-1zM9 23h1v1h-1zM5 28h1v1h-1zM4 29h1v1h-1zM96 65h1v1h-1zM95 66h1v1h-1zM94 68h1v1h-1zM93 69h1v1h-1zM92 71h1v1h-1zM91 72h1v1h-1zM89 75h1v1h-1zM87 78h1v1h-1zM85 81h1v1h-1zM83 84h1v1h-1zM81 87h1v1h-1zM80 88h1v1h-1z" /><path fill="#070707" d="M21 11h1v1h-1zM20 12h1v1h-1zM19 13h1v1h-1zM18 14h1v1h-1zM14 19h1v1h-1zM13 20h1v1h-1zM12 21h1v1h-1zM11 22h1v1h-1zM7 27h1v1h-1zM6 28h1v1h-1zM5 29h1v1h-1zM4 30h1v1h-1zM97 62h1v1h-1zM95 65h1v1h-1zM93 68h1v1h-1zM92 69h1v1h-1zM91 71h1v1h-1zM90 72h1v1h-1zM89 74h1v1h-1zM88 75h1v1h-1zM86 78h1v1h-1zM84 81h1v1h-1zM82 84h1v1h-1zM80 87h1v1h-1zM77 91h1v1h-1z" /><path fill="#565656" d="M62 11h1v1h-1zM61 12h1v1h-1zM60 13h1v1h-1zM59 14h1v1h-1zM55 19h1v1h-1zM89 19h1v1h-1zM54 20h1v1h-1zM89 20h1v1h-1zM53 21h1v1h-1zM52 22h1v1h-1zM87 23h1v1h-1zM86 24h1v1h-1zM85 26h1v1h-1zM84 27h1v1h-1zM83 29h1v1h-1zM82 30h1v1h-1zM16 63h1v1h-1zM15 64h1v1h-1zM12 68h1v1h-1zM11 69h1v1h-1zM10 70h1v1h-1zM9 71h1v1h-1zM8 72h1v1h-1zM50 77h1v1h-1zM48 80h1v1h-1zM46 83h1v1h-1zM44 86h1v1h-1zM43 87h1v1h-1zM42 89h1v1h-1zM41 90h1v1h-1zM40 92h1v1h-1zM39 93h1v1h-1z" /><path fill="#666666" d="M70 11h1v1h-1zM69 12h1v1h-1zM85 15h1v1h-1zM65 17h1v1h-1zM64 18h1v1h-1zM83 18h1v1h-1zM63 19h1v1h-1zM82 19h1v1h-1zM62 20h1v1h-1zM81 21h1v1h-1zM80 22h1v1h-1zM58 25h1v1h-1zM57 26h1v1h-1zM56 27h1v1h-1zM55 28h1v1h-1zM17 65h1v1h-1zM15 74h1v1h-1zM14 75h1v1h-1zM44 75h1v1h-1zM13 76h1v1h-1zM12 77h1v1h-1zM42 78h1v1h-1zM10 80h1v1h-1zM40 81h1v1h-1zM39 82h1v1h-1zM38 84h1v1h-1zM37 85h1v1h-1zM36 87h1v1h-1zM35 88h1v1h-1zM33 91h1v1h-1zM36 95h1v1h-1z" /><path fill="#686868" d="M71 11h1v1h-1zM84 15h1v1h-1zM67 16h1v1h-1zM66 17h1v1h-1zM65 18h1v1h-1zM82 18h1v1h-1zM64 19h1v1h-1zM63 20h1v1h-1zM80 21h1v1h-1zM59 25h1v1h-1zM58 26h1v1h-1zM57 27h1v1h-1zM56 28h1v1h-1zM16 74h1v1h-1zM15 75h1v1h-1zM43 75h1v1h-1zM60 75h1v1h-1zM14 76h1v1h-1zM13 77h1v1h-1zM41 78h1v1h-1zM39 81h1v1h-1zM37 84h1v1h-1zM36 85h1v1h-1zM35 87h1v1h-1zM34 88h1v1h-1zM33 90h1v1h-1zM32 91h1v1h-1zM32 92h1v1h-1z" /><path fill="#747474" d="M72 11h1v1h-1zM80 13h1v1h-1zM74 14h1v1h-1zM79 14h1v1h-1zM74 15h1v1h-1zM73 16h1v1h-1zM72 17h1v1h-1zM77 17h1v1h-1zM71 18h1v1h-1zM67 23h1v1h-1zM66 24h1v1h-1zM65 25h1v1h-1zM34 26h1v1h-1zM64 26h1v1h-1zM60 31h1v1h-1zM59 32h1v1h-1zM41 70h1v1h-1zM40 71h1v1h-1zM39 73h1v1h-1zM38 74h1v1h-1zM37 76h1v1h-1zM36 77h1v1h-1zM17 80h1v1h-1zM34 80h1v1h-1zM16 81h1v1h-1zM15 82h1v1h-1zM14 83h1v1h-1zM32 83h1v1h-1zM14 84h1v1h-1zM30 86h1v1h-1z" /><path fill="#7f7f7f" d="M76 11h1v1h-1zM76 19h1v1h-1zM75 20h1v1h-1zM71 25h1v1h-1zM70 26h1v1h-1zM69 27h1v1h-1zM68 28h1v1h-1zM29 29h1v1h-1zM64 33h1v1h-1zM63 34h1v1h-1zM62 35h1v1h-1zM61 36h1v1h-1zM39 65h1v1h-1zM38 67h1v1h-1zM37 68h1v1h-1zM35 71h1v1h-1zM33 74h1v1h-1zM31 77h1v1h-1zM29 80h1v1h-1zM20 83h1v1h-1zM27 83h1v1h-1zM19 84h1v1h-1zM26 84h1v1h-1zM18 85h1v1h-1zM17 86h1v1h-1zM17 87h1v1h-1z" /><path fill="#7d7d7d" d="M77 11h1v1h-1zM76 18h1v1h-1zM75 19h1v1h-1zM74 20h1v1h-1zM73 21h1v1h-1zM70 25h1v1h-1zM69 26h1v1h-1zM68 27h1v1h-1zM67 28h1v1h-1zM66 29h1v1h-1zM62 34h1v1h-1zM61 35h1v1h-1zM17 62h1v1h-1zM39 66h1v1h-1zM38 68h1v1h-1zM36 71h1v1h-1zM34 74h1v1h-1zM20 77h1v1h-1zM32 77h1v1h-1zM31 78h1v1h-1zM21 80h1v1h-1zM30 80h1v1h-1zM29 81h1v1h-1zM19 83h1v1h-1zM28 83h1v1h-1zM18 84h1v1h-1zM27 84h1v1h-1zM17 85h1v1h-1zM26 86h1v1h-1z" /><path fill="#7b7b7b" d="M78 11h1v1h-1zM77 12h1v1h-1zM76 14h1v1h-1zM76 17h1v1h-1zM75 18h1v1h-1zM74 19h1v1h-1zM73 20h1v1h-1zM72 21h1v1h-1zM68 26h1v1h-1zM67 27h1v1h-1zM66 28h1v1h-1zM65 29h1v1h-1zM61 34h1v1h-1zM39 68h1v1h-1zM37 71h1v1h-1zM19 74h1v1h-1zM35 74h1v1h-1zM34 75h1v1h-1zM59 75h1v1h-1zM33 77h1v1h-1zM32 78h1v1h-1zM31 80h1v1h-1zM30 81h1v1h-1zM18 83h1v1h-1zM17 84h1v1h-1zM28 84h1v1h-1zM16 85h1v1h-1zM29 90h1v1h-1z" /><path fill="#767676" d="M80 11h1v1h-1zM79 13h1v1h-1zM78 14h1v1h-1zM74 16h1v1h-1zM77 16h1v1h-1zM73 17h1v1h-1zM69 22h1v1h-1zM68 23h1v1h-1zM67 24h1v1h-1zM66 25h1v1h-1zM65 26h1v1h-1zM61 31h1v1h-1zM60 32h1v1h-1zM59 33h1v1h-1zM41 68h1v1h-1zM40 70h1v1h-1zM38 73h1v1h-1zM37 74h1v1h-1zM36 76h1v1h-1zM35 77h1v1h-1zM34 79h1v1h-1zM18 80h1v1h-1zM33 80h1v1h-1zM17 81h1v1h-1zM16 82h1v1h-1zM15 83h1v1h-1zM31 83h1v1h-1zM29 86h1v1h-1z" /><path fill="#030303" d="M18 12h1v1h-1zM17 13h1v1h-1zM16 14h1v1h-1zM15 15h1v1h-1zM11 20h1v1h-1zM10 21h1v1h-1zM9 22h1v1h-1zM8 23h1v1h-1zM5 27h1v1h-1zM97 64h1v1h-1zM96 66h1v1h-1zM95 68h1v1h-1zM94 69h1v1h-1zM92 72h1v1h-1zM90 75h1v1h-1zM88 78h1v1h-1zM86 81h1v1h-1zM85 82h1v1h-1zM84 84h1v1h-1zM83 85h1v1h-1zM81 88h1v1h-1z" /><path fill="#676767" d="M70 12h1v1h-1zM69 13h1v1h-1zM68 14h1v1h-1zM67 15h1v1h-1zM66 16h1v1h-1zM84 16h1v1h-1zM83 17h1v1h-1zM81 20h1v1h-1zM62 21h1v1h-1zM61 22h1v1h-1zM60 23h1v1h-1zM59 24h1v1h-1zM49 25h1v1h-1zM17 51h1v1h-1zM17 72h1v1h-1zM45 72h1v1h-1zM16 73h1v1h-1zM45 73h1v1h-1zM44 74h1v1h-1zM43 76h1v1h-1zM42 77h1v1h-1zM12 78h1v1h-1zM11 79h1v1h-1zM41 79h1v1h-1zM40 80h1v1h-1zM38 83h1v1h-1zM36 86h1v1h-1zM34 89h1v1h-1zM40 97h1v1h-1z" /><path fill="#696969" d="M71 12h1v1h-1zM70 13h1v1h-1zM69 14h1v1h-1zM84 14h1v1h-1zM68 15h1v1h-1zM83 16h1v1h-1zM82 17h1v1h-1zM81 19h1v1h-1zM64 20h1v1h-1zM80 20h1v1h-1zM63 21h1v1h-1zM62 22h1v1h-1zM61 23h1v1h-1zM60 24h1v1h-1zM56 29h1v1h-1zM18 72h1v1h-1zM17 73h1v1h-1zM44 73h1v1h-1zM42 76h1v1h-1zM41 77h1v1h-1zM13 78h1v1h-1zM12 79h1v1h-1zM40 79h1v1h-1zM11 80h1v1h-1zM39 80h1v1h-1zM38 82h1v1h-1zM37 83h1v1h-1zM35 86h1v1h-1zM33 89h1v1h-1zM33 93h1v1h-1z" /><path fill="#6b6b6b" d="M72 12h1v1h-1zM71 13h1v1h-1zM70 14h1v1h-1zM69 15h1v1h-1zM82 16h1v1h-1zM80 19h1v1h-1zM65 20h1v1h-1zM79 20h1v1h-1zM64 21h1v1h-1zM63 22h1v1h-1zM62 23h1v1h-1zM58 28h1v1h-1zM57 29h1v1h-1zM44 71h1v1h-1zM18 73h1v1h-1zM43 73h1v1h-1zM41 76h1v1h-1zM14 78h1v1h-1zM13 79h1v1h-1zM39 79h1v1h-1zM12 80h1v1h-1zM38 80h1v1h-1zM37 82h1v1h-1zM36 83h1v1h-1zM35 85h1v1h-1zM34 86h1v1h-1zM32 89h1v1h-1z" /><path fill="#787878" d="M73 12h1v1h-1zM78 13h1v1h-1zM75 15h1v1h-1zM75 16h2v1h-2zM74 17h1v1h-1zM77 18h1v1h-1zM70 22h1v1h-1zM69 23h1v1h-1zM68 24h1v1h-1zM67 25h1v1h-1zM81 29h1v1h-1zM63 30h1v1h-1zM62 31h1v1h-1zM61 32h1v1h-1zM60 33h1v1h-1zM60 34h1v1h-1zM39 70h1v1h-1zM37 73h1v1h-1zM35 76h1v1h-1zM34 77h1v1h-1zM20 78h1v1h-1zM33 79h1v1h-1zM19 80h1v1h-1zM32 80h1v1h-1zM18 81h1v1h-1zM17 82h1v1h-1zM31 82h1v1h-1zM16 83h1v1h-1zM30 83h1v1h-1zM29 85h1v1h-1zM28 86h1v1h-1zM34 94h1v1h-1z" /><path fill="#777777" d="M79 12h1v1h-1zM77 15h1v1h-1zM73 18h1v1h-1zM72 19h1v1h-1zM71 20h1v1h-1zM78 20h1v1h-1zM70 21h1v1h-1zM66 26h1v1h-1zM65 27h1v1h-1zM64 28h1v1h-1zM63 29h1v1h-1zM62 30h1v1h-1zM17 63h1v1h-1zM40 69h1v1h-1zM39 71h1v1h-1zM38 72h1v1h-1zM36 75h1v1h-1zM34 78h1v1h-1zM19 79h1v1h-1zM32 81h1v1h-1zM15 84h1v1h-1zM30 84h1v1h-1zM28 87h1v1h-1z" /><path fill="#757575" d="M80 12h1v1h-1zM78 15h1v1h-1zM72 18h1v1h-1zM71 19h1v1h-1zM70 20h1v1h-1zM69 21h1v1h-1zM68 22h1v1h-1zM80 25h1v1h-1zM64 27h1v1h-1zM63 28h1v1h-1zM62 29h1v1h-1zM61 30h1v1h-1zM41 69h1v1h-1zM39 72h1v1h-1zM63 74h1v1h-1zM37 75h1v1h-1zM19 78h1v1h-1zM35 78h1v1h-1zM18 79h1v1h-1zM33 81h1v1h-1zM32 82h1v1h-1zM31 84h1v1h-1zM30 85h1v1h-1zM29 87h1v1h-1zM28 88h1v1h-1z" /><path fill="#737373" d="M81 12h1v1h-1zM79 15h1v1h-1zM78 16h1v1h-1zM70 19h1v1h-1zM69 20h1v1h-1zM68 21h1v1h-1zM67 22h1v1h-1zM63 27h1v1h-1zM62 28h1v1h-1zM61 29h1v1h-1zM60 30h1v1h-1zM40 72h1v1h-1zM38 75h1v1h-1zM19 77h1v1h-1zM18 78h1v1h-1zM36 78h1v1h-1zM17 79h1v1h-1zM35 79h1v1h-1zM16 80h1v1h-1zM34 81h1v1h-1zM33 82h1v1h-1zM32 84h1v1h-1zM31 85h1v1h-1zM29 88h1v1h-1z" /><path fill="#616161" d="M66 13h1v1h-1zM65 14h1v1h-1zM64 15h1v1h-1zM63 16h1v1h-1zM86 16h1v1h-1zM62 17h1v1h-1zM86 17h1v1h-1zM85 18h1v1h-1zM84 20h1v1h-1zM83 21h1v1h-1zM58 22h1v1h-1zM57 23h1v1h-1zM82 23h1v1h-1zM56 24h1v1h-1zM81 24h1v1h-1zM55 25h1v1h-1zM79 59h1v1h-1zM15 71h1v1h-1zM14 72h1v1h-1zM13 73h1v1h-1zM47 73h1v1h-1zM12 74h1v1h-1zM47 74h1v1h-1zM45 77h1v1h-1zM43 80h1v1h-1zM42 81h1v1h-1zM41 83h1v1h-1zM40 84h1v1h-1zM39 86h1v1h-1zM38 87h1v1h-1zM36 90h1v1h-1zM34 93h1v1h-1z" /><path fill="#636363" d="M67 13h1v1h-1zM66 14h1v1h-1zM65 15h1v1h-1zM64 16h1v1h-1zM85 17h1v1h-1zM83 20h1v1h-1zM60 21h1v1h-1zM59 22h1v1h-1zM58 23h1v1h-1zM81 23h1v1h-1zM57 24h1v1h-1zM56 25h1v1h-1zM16 71h1v1h-1zM15 72h1v1h-1zM14 73h1v1h-1zM13 74h1v1h-1zM46 74h1v1h-1zM44 77h1v1h-1zM42 80h1v1h-1zM40 83h1v1h-1zM39 84h1v1h-1zM38 86h1v1h-1zM37 87h1v1h-1zM36 89h1v1h-1zM35 90h1v1h-1z" /><path fill="#656565" d="M68 13h1v1h-1zM67 14h1v1h-1zM66 15h1v1h-1zM65 16h1v1h-1zM84 17h1v1h-1zM82 20h1v1h-1zM61 21h1v1h-1zM60 22h1v1h-1zM59 23h1v1h-1zM80 23h1v1h-1zM58 24h1v1h-1zM80 24h1v1h-1zM82 33h1v1h-1zM17 71h1v1h-1zM16 72h1v1h-1zM46 72h1v1h-1zM15 73h1v1h-1zM46 73h1v1h-1zM14 74h1v1h-1zM45 74h1v1h-1zM43 77h1v1h-1zM11 78h1v1h-1zM10 79h1v1h-1zM41 80h1v1h-1zM39 83h1v1h-1zM37 86h1v1h-1zM35 89h1v1h-1zM34 90h1v1h-1zM33 92h1v1h-1z" /><path fill="#707070" d="M73 13h1v1h-1zM81 14h1v1h-1zM72 15h1v1h-1zM71 16h1v1h-1zM70 17h1v1h-1zM79 17h1v1h-1zM69 18h1v1h-1zM78 19h1v1h-1zM65 23h1v1h-1zM64 24h1v1h-1zM63 25h1v1h-1zM62 26h1v1h-1zM61 27h1v1h-1zM42 71h1v1h-1zM40 74h1v1h-1zM18 76h1v1h-1zM38 77h1v1h-1zM36 80h1v1h-1zM14 81h1v1h-1zM35 81h1v1h-1zM13 82h1v1h-1zM34 83h1v1h-1zM33 84h1v1h-1zM32 86h1v1h-1zM31 87h1v1h-1z" /><path fill="#6f6f6f" d="M82 13h1v1h-1zM72 14h1v1h-1zM80 16h1v1h-1zM68 19h1v1h-1zM67 20h1v1h-1zM66 21h1v1h-1zM65 22h1v1h-1zM64 23h1v1h-1zM60 28h1v1h-1zM59 29h1v1h-1zM58 30h1v1h-1zM82 34h1v1h-1zM17 64h1v1h-1zM42 72h1v1h-1zM41 73h1v1h-1zM40 75h1v1h-1zM39 76h1v1h-1zM17 77h1v1h-1zM16 78h1v1h-1zM15 79h1v1h-1zM37 79h1v1h-1zM14 80h1v1h-1zM35 82h1v1h-1zM33 85h1v1h-1zM31 88h1v1h-1zM30 89h1v1h-1z" /><path fill="#727272" d="M80 14h1v1h-1zM73 15h1v1h-1zM72 16h1v1h-1zM71 17h1v1h-1zM78 17h1v1h-1zM70 18h1v1h-1zM66 23h1v1h-1zM65 24h1v1h-1zM64 25h1v1h-1zM63 26h1v1h-1zM59 31h1v1h-1zM42 69h1v1h-1zM42 70h1v1h-1zM41 71h1v1h-1zM39 74h1v1h-1zM19 76h1v1h-1zM37 77h1v1h-1zM35 80h1v1h-1zM15 81h1v1h-1zM14 82h1v1h-1zM33 83h1v1h-1zM31 86h1v1h-1zM30 87h1v1h-1zM29 89h1v1h-1z" /><path fill="#6a6a6a" d="M83 15h1v1h-1zM68 16h1v1h-1zM67 17h1v1h-1zM66 18h1v1h-1zM81 18h1v1h-1zM65 19h1v1h-1zM79 21h1v1h-1zM61 24h1v1h-1zM60 25h1v1h-1zM59 26h1v1h-1zM58 27h1v1h-1zM57 28h1v1h-1zM81 28h1v1h-1zM44 72h1v1h-1zM17 74h1v1h-1zM43 74h1v1h-1zM16 75h1v1h-1zM42 75h1v1h-1zM15 76h1v1h-1zM14 77h1v1h-1zM40 78h1v1h-1zM11 81h1v1h-1zM38 81h1v1h-1zM36 84h1v1h-1zM34 87h1v1h-1zM33 88h1v1h-1zM32 90h1v1h-1zM31 91h1v1h-1z" /><path fill="#000000" d="M13 16h1v1h-1zM12 17h1v1h-1zM11 18h1v1h-1zM95 70h1v1h-1zM94 71h1v1h-1zM94 72h1v1h-1zM93 73h1v1h-1zM92 74h1v1h-1zM92 75h1v1h-1zM91 76h1v1h-1zM90 77h2v1h-2zM90 78h1v1h-1zM89 79h1v1h-1zM88 80h1v1h-1zM88 81h1v1h-1zM87 82h1v1h-1zM86 83h1v1h-1z" /><path fill="#020202" d="M14 16h1v1h-1zM13 17h1v1h-1zM12 18h1v1h-1zM11 19h1v1h-1zM7 24h1v1h-1zM94 70h1v1h-1zM93 71h1v1h-1zM92 73h1v1h-1zM91 74h1v1h-1zM90 76h1v1h-1zM89 77h1v1h-1zM87 80h1v1h-1zM85 83h1v1h-1zM83 86h1v1h-1zM82 87h1v1h-1z" /><path fill="#9a9a9a" d="M38 25h1v1h-1zM78 33h1v1h-1zM77 34h1v1h-1zM76 35h1v1h-1zM75 36h1v1h-1zM22 37h1v1h-1zM74 37h1v1h-1zM71 41h1v1h-1zM70 42h1v1h-1zM69 43h1v1h-1zM68 44h1v1h-1zM67 45h1v1h-1zM34 54h1v1h-1zM32 57h1v1h-1zM30 60h1v1h-1zM28 63h1v1h-1zM26 66h1v1h-1zM74 66h1v1h-1zM24 69h1v1h-1zM23 70h1v1h-1zM22 72h1v1h-1zM21 73h1v1h-1zM27 91h1v1h-1zM26 92h1v1h-1z" /><path fill="#b1b1b1" d="M39 25h1v1h-1zM42 27h1v1h-1zM41 28h1v1h-1zM40 30h1v1h-1zM39 31h1v1h-1zM38 33h1v1h-1zM37 34h1v1h-1zM35 37h1v1h-1zM33 40h1v1h-1zM31 43h1v1h-1zM81 43h1v1h-1zM80 44h1v1h-1zM79 45h1v1h-1zM29 46h1v1h-1zM28 47h1v1h-1zM27 49h1v1h-1zM26 50h1v1h-1zM75 50h1v1h-1zM74 51h1v1h-1zM25 52h1v1h-1zM73 52h1v1h-1zM24 53h1v1h-1zM72 53h1v1h-1zM22 56h1v1h-1zM68 58h1v1h-1zM20 59h1v1h-1zM67 59h1v1h-1zM66 60h1v1h-1zM65 61h1v1h-1zM18 62h1v1h-1zM64 62h1v1h-1zM60 67h1v1h-1zM59 68h1v1h-1zM58 69h1v1h-1zM57 70h1v1h-1z" /><path fill="#b8b8b8" d="M40 25h1v1h-1zM38 28h1v1h-1zM36 31h1v1h-1zM35 32h1v1h-1zM34 34h1v1h-1zM33 35h1v1h-1zM32 37h1v1h-1zM31 38h1v1h-1zM29 41h1v1h-1zM27 44h1v1h-1zM25 47h1v1h-1zM81 47h1v1h-1zM80 48h1v1h-1zM23 50h1v1h-1zM22 51h1v1h-1zM21 53h1v1h-1zM76 53h1v1h-1zM20 54h1v1h-1zM75 54h1v1h-1zM74 55h1v1h-1zM19 56h1v1h-1zM73 56h1v1h-1zM18 57h1v1h-1zM72 57h1v1h-1zM69 61h1v1h-1zM68 62h1v1h-1zM67 63h1v1h-1zM66 64h1v1h-1zM65 65h1v1h-1zM61 70h1v1h-1zM60 71h1v1h-1zM59 72h1v1h-1zM58 73h1v1h-1zM37 97h2v1h-2z" /><path fill="#b6b6b6" d="M41 25h1v1h-1zM40 26h1v1h-1zM39 28h1v1h-1zM38 29h1v1h-1zM37 31h1v1h-1zM36 32h1v1h-1zM35 34h1v1h-1zM34 35h1v1h-1zM32 38h1v1h-1zM30 41h1v1h-1zM28 44h1v1h-1zM81 46h1v1h-1zM26 47h1v1h-1zM80 47h1v1h-1zM25 48h1v1h-1zM79 48h1v1h-1zM78 49h1v1h-1zM24 50h1v1h-1zM23 51h1v1h-1zM22 53h1v1h-1zM21 54h1v1h-1zM74 54h1v1h-1zM73 55h1v1h-1zM72 56h1v1h-1zM19 57h1v1h-1zM71 57h1v1h-1zM67 62h1v1h-1zM66 63h1v1h-1zM65 64h1v1h-1zM64 65h1v1h-1zM60 70h1v1h-1zM59 71h1v1h-1zM58 72h1v1h-1zM57 73h1v1h-1zM36 97h1v1h-1z" /><path fill="#b4b4b4" d="M42 25h1v1h-1zM41 26h1v1h-1zM40 28h1v1h-1zM39 29h1v1h-1zM37 32h1v1h-1zM35 35h1v1h-1zM33 38h1v1h-1zM31 41h1v1h-1zM29 44h1v1h-1zM28 45h1v1h-1zM80 46h1v1h-1zM27 47h1v1h-1zM79 47h1v1h-1zM26 48h1v1h-1zM78 48h1v1h-1zM77 49h1v1h-1zM25 50h1v1h-1zM24 51h1v1h-1zM22 54h1v1h-1zM73 54h1v1h-1zM72 55h1v1h-1zM71 56h1v1h-1zM20 57h1v1h-1zM70 57h1v1h-1zM18 60h1v1h-1zM66 62h1v1h-1zM65 63h1v1h-1zM64 64h1v1h-1zM63 65h1v1h-1zM59 70h1v1h-1zM58 71h1v1h-1zM57 72h1v1h-1zM56 73h1v1h-1zM55 74h1v1h-1zM35 97h1v1h-1z" /><path fill="#b2b2b2" d="M43 25h1v1h-1zM42 26h1v1h-1zM40 29h1v1h-1zM38 32h1v1h-1zM36 35h1v1h-1zM34 38h1v1h-1zM33 39h1v1h-1zM32 41h1v1h-1zM31 42h1v1h-1zM30 44h1v1h-1zM29 45h1v1h-1zM79 46h1v1h-1zM78 47h1v1h-1zM27 48h1v1h-1zM77 48h1v1h-1zM76 49h1v1h-1zM25 51h1v1h-1zM23 54h1v1h-1zM72 54h1v1h-1zM71 55h1v1h-1zM70 56h1v1h-1zM21 57h1v1h-1zM69 57h1v1h-1zM19 60h1v1h-1zM18 61h1v1h-1zM65 62h1v1h-1zM64 63h1v1h-1zM63 64h1v1h-1zM62 65h1v1h-1zM61 66h1v1h-1zM57 71h1v1h-1zM56 72h1v1h-1zM55 73h1v1h-1zM54 74h1v1h-1zM35 96h2v1h-2z" /><path fill="#afafaf" d="M44 25h1v1h-1zM43 27h1v1h-1zM42 28h1v1h-1zM27 31h1v1h-1zM40 31h1v1h-1zM38 34h1v1h-1zM36 37h1v1h-1zM34 40h1v1h-1zM81 42h1v1h-1zM32 43h1v1h-1zM80 43h1v1h-1zM31 44h1v1h-1zM79 44h1v1h-1zM78 45h1v1h-1zM30 46h1v1h-1zM77 46h1v1h-1zM29 47h1v1h-1zM28 49h1v1h-1zM27 50h1v1h-1zM73 51h1v1h-1zM72 52h1v1h-1zM25 53h1v1h-1zM71 53h1v1h-1zM70 54h1v1h-1zM23 56h1v1h-1zM21 59h1v1h-1zM66 59h1v1h-1zM65 60h1v1h-1zM64 61h1v1h-1zM19 62h1v1h-1zM63 62h1v1h-1zM18 63h1v1h-1zM59 67h1v1h-1zM58 68h1v1h-1zM56 70h1v1h-1zM34 95h1v1h-1z" /><path fill="#adadad" d="M45 25h1v1h-1zM43 28h1v1h-1zM41 31h1v1h-1zM40 32h1v1h-1zM38 35h1v1h-1zM36 38h1v1h-1zM35 40h1v1h-1zM34 41h1v1h-1zM33 43h1v1h-1zM79 43h1v1h-1zM19 44h1v1h-1zM32 44h1v1h-1zM78 44h1v1h-1zM77 45h1v1h-1zM76 46h1v1h-1zM30 47h1v1h-1zM28 50h1v1h-1zM72 51h1v1h-1zM71 52h1v1h-1zM26 53h1v1h-1zM70 53h1v1h-1zM69 54h1v1h-1zM24 56h1v1h-1zM22 59h1v1h-1zM65 59h1v1h-1zM21 60h1v1h-1zM64 60h1v1h-1zM63 61h1v1h-1zM20 62h1v1h-1zM62 62h1v1h-1zM19 63h1v1h-1zM18 65h1v1h-1zM33 95h1v1h-1zM33 96h1v1h-1z" /><path fill="#8d8d8d" d="M78 25h1v1h-1zM77 26h1v1h-1zM73 31h1v1h-1zM72 32h1v1h-1zM71 33h1v1h-1zM70 34h1v1h-1zM66 39h1v1h-1zM65 40h1v1h-1zM64 41h1v1h-1zM36 60h1v1h-1zM34 63h1v1h-1zM32 66h1v1h-1zM30 69h1v1h-1zM28 72h1v1h-1zM27 73h1v1h-1zM26 75h1v1h-1zM25 76h1v1h-1zM24 78h1v1h-1zM23 79h1v1h-1zM22 80h1v1h-1zM22 89h1v1h-1zM21 90h1v1h-1z" /><path fill="#acacac" d="M35 26h1v1h-1zM45 26h1v1h-1zM44 27h1v1h-1zM42 30h1v1h-1zM39 34h1v1h-1zM38 36h1v1h-1zM37 37h1v1h-1zM36 39h1v1h-1zM81 40h1v1h-1zM80 41h1v1h-1zM34 42h1v1h-1zM79 42h1v1h-1zM32 45h1v1h-1zM31 46h1v1h-1zM75 47h1v1h-1zM30 48h1v1h-1zM74 48h1v1h-1zM29 49h1v1h-1zM73 49h1v1h-1zM72 50h1v1h-1zM28 51h1v1h-1zM27 52h1v1h-1zM25 55h1v1h-1zM68 55h1v1h-1zM67 56h1v1h-1zM66 57h1v1h-1zM23 58h1v1h-1zM65 58h1v1h-1zM21 61h1v1h-1zM61 63h1v1h-1zM19 64h1v1h-1zM52 73h1v1h-1z" /><path fill="#bfbfbf" d="M36 26h1v1h-1zM34 29h1v1h-1zM32 32h1v1h-1zM30 35h1v1h-1zM29 36h1v1h-1zM28 38h1v1h-1zM27 39h1v1h-1zM26 41h1v1h-1zM25 42h1v1h-1zM23 45h1v1h-1zM21 48h1v1h-1zM19 51h1v1h-1zM77 56h1v1h-1zM76 57h1v1h-1zM75 58h1v1h-1zM74 59h1v1h-1zM73 60h1v1h-1zM70 64h1v1h-1zM69 65h1v1h-1zM68 66h1v1h-1zM67 67h1v1h-1zM66 68h1v1h-1zM66 72h1v1h-1zM62 73h1v1h-1z" /><path fill="#bdbdbd" d="M37 26h1v1h-1zM35 29h1v1h-1zM33 32h1v1h-1zM32 33h1v1h-1zM31 35h1v1h-1zM30 36h1v1h-1zM29 38h1v1h-1zM28 39h1v1h-1zM26 42h1v1h-1zM24 45h1v1h-1zM22 48h1v1h-1zM81 50h1v1h-1zM20 51h1v1h-1zM80 51h1v1h-1zM19 52h1v1h-1zM79 52h1v1h-1zM18 54h1v1h-1zM75 57h1v1h-1zM74 58h1v1h-1zM73 59h1v1h-1zM72 60h1v1h-1zM68 65h1v1h-1zM67 66h1v1h-1zM66 67h1v1h-1zM65 68h1v1h-1zM61 73h1v1h-1zM60 74h1v1h-1z" /><path fill="#bbbbbb" d="M38 26h1v1h-1zM37 27h1v1h-1zM36 29h1v1h-1zM35 30h1v1h-1zM34 32h1v1h-1zM33 33h1v1h-1zM31 36h1v1h-1zM29 39h1v1h-1zM27 42h1v1h-1zM25 45h1v1h-1zM23 48h1v1h-1zM22 49h1v1h-1zM81 49h1v1h-1zM80 50h1v1h-1zM21 51h1v1h-1zM79 51h1v1h-1zM20 52h1v1h-1zM78 52h1v1h-1zM19 54h1v1h-1zM18 55h1v1h-1zM80 55h1v1h-1zM74 57h1v1h-1zM73 58h1v1h-1zM72 59h1v1h-1zM71 60h1v1h-1zM67 65h1v1h-1zM66 66h1v1h-1zM65 67h1v1h-1zM64 68h1v1h-1zM60 73h1v1h-1zM59 74h1v1h-1z" /><path fill="#b9b9b9" d="M39 26h1v1h-1zM38 27h1v1h-1zM37 29h1v1h-1zM36 30h1v1h-1zM34 33h1v1h-1zM32 36h1v1h-1zM30 39h1v1h-1zM28 42h1v1h-1zM27 43h1v1h-1zM26 45h1v1h-1zM25 46h1v1h-1zM24 48h1v1h-1zM23 49h1v1h-1zM80 49h1v1h-1zM79 50h1v1h-1zM78 51h1v1h-1zM21 52h1v1h-1zM77 52h1v1h-1zM19 55h1v1h-1zM73 57h1v1h-1zM72 58h1v1h-1zM71 59h1v1h-1zM70 60h1v1h-1zM66 65h1v1h-1zM65 66h1v1h-1zM64 67h1v1h-1zM63 68h1v1h-1zM62 69h1v1h-1zM58 74h1v1h-1zM44 99h1v1h-1z" /><path fill="#b0b0b0" d="M43 26h1v1h-1zM41 29h1v1h-1zM39 32h1v1h-1zM37 35h1v1h-1zM36 36h1v1h-1zM35 38h1v1h-1zM34 39h1v1h-1zM33 41h1v1h-1zM32 42h1v1h-1zM30 45h1v1h-1zM78 46h1v1h-1zM77 47h1v1h-1zM28 48h1v1h-1zM76 48h1v1h-1zM75 49h1v1h-1zM74 50h1v1h-1zM26 51h1v1h-1zM24 54h1v1h-1zM71 54h1v1h-1zM23 55h1v1h-1zM70 55h1v1h-1zM69 56h1v1h-1zM22 57h1v1h-1zM68 57h1v1h-1zM21 58h1v1h-1zM67 58h1v1h-1zM20 60h1v1h-1zM19 61h1v1h-1zM63 63h1v1h-1zM62 64h1v1h-1zM61 65h1v1h-1zM60 66h1v1h-1zM56 71h1v1h-1zM55 72h1v1h-1zM54 73h1v1h-1zM53 74h1v1h-1zM34 96h1v1h-1z" /><path fill="#aeaeae" d="M44 26h1v1h-1zM42 29h1v1h-1zM41 30h1v1h-1zM39 33h1v1h-1zM37 36h1v1h-1zM35 39h1v1h-1zM81 41h1v1h-1zM33 42h1v1h-1zM80 42h1v1h-1zM31 45h1v1h-1zM76 47h1v1h-1zM18 48h1v1h-1zM29 48h1v1h-1zM75 48h1v1h-1zM74 49h1v1h-1zM73 50h1v1h-1zM27 51h1v1h-1zM26 52h1v1h-1zM25 54h1v1h-1zM24 55h1v1h-1zM69 55h1v1h-1zM68 56h1v1h-1zM23 57h1v1h-1zM67 57h1v1h-1zM22 58h1v1h-1zM66 58h1v1h-1zM20 61h1v1h-1zM62 63h1v1h-1zM18 64h1v1h-1zM61 64h1v1h-1zM60 65h1v1h-1zM57 69h1v1h-1zM55 71h1v1h-1zM54 72h1v1h-1zM53 73h1v1h-1zM52 74h1v1h-1zM41 98h1v1h-1z" /><path fill="#a4a4a4" d="M48 26h1v1h-1zM81 35h1v1h-1zM77 40h1v1h-1zM76 41h1v1h-1zM75 42h1v1h-1zM74 43h1v1h-1zM35 45h1v1h-1zM70 48h1v1h-1zM33 49h1v1h-1zM69 49h1v1h-1zM32 50h1v1h-1zM68 50h1v1h-1zM67 51h1v1h-1zM31 52h1v1h-1zM30 53h1v1h-1zM29 55h1v1h-1zM64 55h1v1h-1zM28 56h1v1h-1zM26 59h1v1h-1zM24 62h1v1h-1zM22 65h1v1h-1zM20 68h1v1h-1zM72 68h1v1h-1zM33 94h1v1h-1z" /><path fill="#bcbcbc" d="M33 27h1v1h-1zM36 28h1v1h-1zM34 31h1v1h-1zM32 34h1v1h-1zM30 37h1v1h-1zM28 40h1v1h-1zM27 41h1v1h-1zM26 43h1v1h-1zM25 44h1v1h-1zM24 46h1v1h-1zM23 47h1v1h-1zM21 50h1v1h-1zM19 53h1v1h-1zM78 53h1v1h-1zM77 54h1v1h-1zM76 55h1v1h-1zM75 56h1v1h-1zM71 61h1v1h-1zM70 62h1v1h-1zM69 63h1v1h-1zM68 64h1v1h-1zM64 69h1v1h-1zM63 70h1v1h-1zM62 71h1v1h-1zM61 72h1v1h-1zM64 73h1v1h-1zM61 74h1v1h-1zM39 98h1v1h-1z" /><path fill="#c2c2c2" d="M34 27h1v1h-1zM32 30h1v1h-1zM30 33h1v1h-1zM29 34h1v1h-1zM23 36h1v1h-1zM28 36h1v1h-1zM27 37h1v1h-1zM26 39h1v1h-1zM25 40h1v1h-1zM23 43h1v1h-1zM21 46h1v1h-1zM19 49h1v1h-1zM80 54h1v1h-1zM79 55h1v1h-1zM75 60h1v1h-1zM74 61h1v1h-1zM73 62h1v1h-1zM72 63h1v1h-1zM68 68h1v1h-1zM67 69h1v1h-1zM66 70h1v1h-1zM65 71h1v1h-1z" /><path fill="#c0c0c0" d="M35 27h1v1h-1zM34 28h1v1h-1zM33 30h1v1h-1zM32 31h1v1h-1zM31 33h1v1h-1zM30 34h1v1h-1zM28 37h1v1h-1zM26 40h1v1h-1zM24 43h1v1h-1zM22 46h1v1h-1zM18 49h1v1h-1zM20 49h1v1h-1zM19 50h1v1h-1zM18 52h1v1h-1zM80 53h1v1h-1zM79 54h1v1h-1zM78 55h1v1h-1zM74 60h1v1h-1zM73 61h1v1h-1zM72 62h1v1h-1zM71 63h1v1h-1zM67 68h1v1h-1zM66 69h1v1h-1zM65 70h1v1h-1zM64 71h1v1h-1zM63 72h1v1h-1z" /><path fill="#bebebe" d="M36 27h1v1h-1zM35 28h1v1h-1zM34 30h1v1h-1zM33 31h1v1h-1zM31 34h1v1h-1zM29 37h1v1h-1zM27 40h1v1h-1zM25 43h1v1h-1zM24 44h1v1h-1zM23 46h1v1h-1zM22 47h1v1h-1zM21 49h1v1h-1zM20 50h1v1h-1zM81 51h1v1h-1zM80 52h1v1h-1zM18 53h1v1h-1zM79 53h1v1h-1zM78 54h1v1h-1zM77 55h1v1h-1zM76 56h1v1h-1zM72 61h1v1h-1zM71 62h1v1h-1zM70 63h1v1h-1zM69 64h1v1h-1zM65 69h1v1h-1zM64 70h1v1h-1zM63 71h1v1h-1zM62 72h1v1h-1zM40 98h1v1h-1z" /><path fill="#b7b7b7" d="M39 27h1v1h-1zM37 30h1v1h-1zM35 33h1v1h-1zM33 36h1v1h-1zM31 39h1v1h-1zM30 40h1v1h-1zM29 42h1v1h-1zM28 43h1v1h-1zM27 45h1v1h-1zM26 46h1v1h-1zM24 49h1v1h-1zM79 49h1v1h-1zM78 50h1v1h-1zM77 51h1v1h-1zM22 52h1v1h-1zM76 52h1v1h-1zM75 53h1v1h-1zM20 55h1v1h-1zM18 58h1v1h-1zM71 58h1v1h-1zM70 59h1v1h-1zM69 60h1v1h-1zM68 61h1v1h-1zM64 66h1v1h-1zM63 67h1v1h-1zM62 68h1v1h-1zM61 69h1v1h-1zM57 74h1v1h-1z" /><path fill="#b5b5b5" d="M40 27h1v1h-1zM38 30h1v1h-1zM36 33h1v1h-1zM34 36h1v1h-1zM33 37h1v1h-1zM32 39h1v1h-1zM31 40h1v1h-1zM30 42h1v1h-1zM29 43h1v1h-1zM81 45h1v1h-1zM27 46h1v1h-1zM25 49h1v1h-1zM77 50h1v1h-1zM76 51h1v1h-1zM23 52h1v1h-1zM75 52h1v1h-1zM74 53h1v1h-1zM21 55h1v1h-1zM20 56h1v1h-1zM19 58h1v1h-1zM70 58h1v1h-1zM18 59h1v1h-1zM69 59h1v1h-1zM68 60h1v1h-1zM67 61h1v1h-1zM63 66h1v1h-1zM62 67h1v1h-1zM61 68h1v1h-1zM60 69h1v1h-1zM68 71h1v1h-1zM56 74h1v1h-1z" /><path fill="#b3b3b3" d="M41 27h1v1h-1zM31 28h1v1h-1zM39 30h1v1h-1zM38 31h1v1h-1zM26 32h1v1h-1zM37 33h1v1h-1zM36 34h1v1h-1zM35 36h1v1h-1zM34 37h1v1h-1zM32 40h1v1h-1zM30 43h1v1h-1zM81 44h1v1h-1zM80 45h1v1h-1zM28 46h1v1h-1zM26 49h1v1h-1zM76 50h1v1h-1zM75 51h1v1h-1zM24 52h1v1h-1zM74 52h1v1h-1zM23 53h1v1h-1zM73 53h1v1h-1zM22 55h1v1h-1zM21 56h1v1h-1zM20 58h1v1h-1zM69 58h1v1h-1zM19 59h1v1h-1zM68 59h1v1h-1zM67 60h1v1h-1zM66 61h1v1h-1zM62 66h1v1h-1zM61 67h1v1h-1zM60 68h1v1h-1zM59 69h1v1h-1zM58 70h1v1h-1z" /><path fill="#c5c5c5" d="M32 28h1v1h-1zM31 29h1v1h-1zM30 31h1v1h-1zM29 32h1v1h-1zM28 34h1v1h-1zM27 35h1v1h-1zM25 38h1v1h-1zM23 41h1v1h-1zM21 44h1v1h-1zM19 47h1v1h-1zM79 57h1v1h-1zM78 58h1v1h-1zM77 59h1v1h-1zM73 64h1v1h-1zM72 65h1v1h-1zM71 66h1v1h-1zM70 67h1v1h-1z" /><path fill="#c3c3c3" d="M33 28h1v1h-1zM32 29h1v1h-1zM31 31h1v1h-1zM30 32h1v1h-1zM28 35h1v1h-1zM26 38h1v1h-1zM24 41h1v1h-1zM22 44h1v1h-1zM21 45h1v1h-1zM20 47h1v1h-1zM19 48h1v1h-1zM18 50h1v1h-1zM79 56h1v1h-1zM78 57h1v1h-1zM77 58h1v1h-1zM76 59h1v1h-1zM72 64h1v1h-1zM71 65h1v1h-1zM70 66h1v1h-1zM69 67h1v1h-1zM65 72h1v1h-1z" /><path fill="#bababa" d="M37 28h1v1h-1zM35 31h1v1h-1zM33 34h1v1h-1zM32 35h1v1h-1zM31 37h1v1h-1zM30 38h1v1h-1zM29 40h1v1h-1zM28 41h1v1h-1zM26 44h1v1h-1zM24 47h1v1h-1zM81 48h1v1h-1zM22 50h1v1h-1zM20 53h1v1h-1zM77 53h1v1h-1zM76 54h1v1h-1zM75 55h1v1h-1zM18 56h1v1h-1zM74 56h1v1h-1zM70 61h1v1h-1zM69 62h1v1h-1zM68 63h1v1h-1zM76 63h1v1h-1zM67 64h1v1h-1zM63 69h1v1h-1zM62 70h1v1h-1zM61 71h1v1h-1zM60 72h1v1h-1zM59 73h1v1h-1z" /><path fill="#a9a9a9" d="M45 28h1v1h-1zM25 33h1v1h-1zM81 38h1v1h-1zM77 43h1v1h-1zM34 44h1v1h-1zM76 44h1v1h-1zM75 45h1v1h-1zM74 46h1v1h-1zM32 47h1v1h-1zM73 47h1v1h-1zM30 50h1v1h-1zM29 51h1v1h-1zM70 51h1v1h-1zM69 52h1v1h-1zM28 53h1v1h-1zM68 53h1v1h-1zM27 54h1v1h-1zM67 54h1v1h-1zM66 55h1v1h-1zM26 56h1v1h-1zM25 57h1v1h-1zM63 59h1v1h-1zM23 60h1v1h-1zM21 63h1v1h-1zM18 66h2v1h-2zM32 94h1v1h-1z" /><path fill="#949494" d="M79 28h1v1h-1zM78 29h1v1h-1zM74 34h1v1h-1zM73 35h1v1h-1zM72 36h1v1h-1zM71 37h1v1h-1zM67 42h1v1h-1zM66 43h1v1h-1zM65 44h1v1h-1zM64 46h1v1h-1zM35 56h1v1h-1zM35 57h1v1h-1zM34 58h1v1h-1zM33 60h1v1h-1zM32 61h1v1h-1zM77 62h1v1h-1zM31 63h1v1h-1zM30 64h1v1h-1zM28 67h1v1h-1zM26 70h1v1h-1zM24 73h1v1h-1zM57 75h1v1h-1zM22 76h1v1h-1zM21 77h1v1h-1zM35 95h1v1h-1zM45 99h1v1h-1z" /><path fill="#969696" d="M80 28h1v1h-1zM79 29h1v1h-1zM75 34h1v1h-1zM74 35h1v1h-1zM73 36h1v1h-1zM72 37h1v1h-1zM68 42h1v1h-1zM67 43h1v1h-1zM66 44h1v1h-1zM65 45h1v1h-1zM64 47h1v1h-1zM35 55h1v1h-1zM34 57h1v1h-1zM32 60h1v1h-1zM31 61h1v1h-1zM30 63h1v1h-1zM29 64h1v1h-1zM28 66h1v1h-1zM27 67h1v1h-1zM25 70h1v1h-1zM23 73h1v1h-1zM21 76h1v1h-1zM27 89h1v1h-1zM25 91h1v1h-1zM39 97h1v1h-1z" /><path fill="#c6c6c6" d="M30 29h1v1h-1zM30 30h1v1h-1zM28 33h1v1h-1zM26 36h1v1h-1zM24 39h1v1h-1zM22 42h1v1h-1zM21 43h1v1h-1zM20 45h1v1h-1zM19 46h1v1h-1zM78 59h1v1h-1zM77 60h1v1h-1zM76 61h1v1h-1zM75 62h1v1h-1zM74 63h1v1h-1zM71 67h1v1h-1zM70 68h1v1h-1zM69 69h1v1h-1zM68 70h2v1h-2zM67 71h1v1h-1z" /><path fill="#c1c1c1" d="M33 29h1v1h-1zM31 32h1v1h-1zM29 35h1v1h-1zM27 38h1v1h-1zM25 41h1v1h-1zM24 42h1v1h-1zM23 44h1v1h-1zM22 45h1v1h-1zM21 47h1v1h-1zM20 48h1v1h-1zM18 51h1v1h-1zM78 56h1v1h-1zM77 57h1v1h-1zM76 58h1v1h-1zM75 59h1v1h-1zM71 64h1v1h-1zM70 65h1v1h-1zM69 66h1v1h-1zM68 67h1v1h-1zM64 72h1v1h-1zM63 73h1v1h-1z" /><path fill="#ababab" d="M43 29h1v1h-1zM40 33h1v1h-1zM37 38h1v1h-1zM35 41h1v1h-1zM78 43h1v1h-1zM82 43h1v1h-1zM33 44h1v1h-1zM77 44h1v1h-1zM76 45h1v1h-1zM75 46h1v1h-1zM31 47h1v1h-1zM29 50h1v1h-1zM71 51h1v1h-1zM70 52h1v1h-1zM27 53h1v1h-1zM69 53h1v1h-1zM26 54h1v1h-1zM68 54h1v1h-1zM25 56h1v1h-1zM24 57h1v1h-1zM23 59h1v1h-1zM64 59h1v1h-1zM22 60h1v1h-1zM63 60h1v1h-1zM62 61h1v1h-1zM20 63h1v1h-1zM53 72h1v1h-1zM32 95h1v1h-1zM32 96h1v1h-1z" /><path fill="#c8c8c8" d="M29 30h1v1h-1zM27 33h1v1h-1zM25 36h1v1h-1zM23 39h1v1h-1zM21 42h1v1h-1zM77 61h1v1h-1zM76 62h1v1h-1zM72 67h1v1h-1zM71 68h1v1h-1zM70 69h1v1h-1z" /><path fill="#c4c4c4" d="M31 30h1v1h-1zM29 33h1v1h-1zM27 36h1v1h-1zM26 37h1v1h-1zM25 39h1v1h-1zM24 40h1v1h-1zM23 42h1v1h-1zM22 43h1v1h-1zM20 46h1v1h-1zM76 60h1v1h-1zM75 61h1v1h-1zM74 62h1v1h-1zM73 63h1v1h-1zM69 68h1v1h-1zM68 69h1v1h-1zM67 70h1v1h-1zM66 71h1v1h-1z" /><path fill="#c9c9c9" d="M28 31h1v1h-1zM26 34h1v1h-1zM24 37h1v1h-1zM23 38h1v1h-1zM22 40h1v1h-1zM21 41h1v1h-1zM20 43h1v1h-1zM75 64h1v1h-1zM74 65h1v1h-1zM73 66h1v1h-1z" /><path fill="#c7c7c7" d="M29 31h1v1h-1zM28 32h1v1h-1zM27 34h1v1h-1zM26 35h1v1h-1zM25 37h1v1h-1zM24 38h1v1h-1zM23 40h1v1h-1zM22 41h1v1h-1zM20 42h1v1h-1zM20 44h1v1h-1zM19 45h1v1h-1zM75 63h1v1h-1zM74 64h1v1h-1zM73 65h1v1h-1zM72 66h1v1h-1z" /><path fill="#cacaca" d="M27 32h1v1h-1zM26 33h1v1h-1zM25 35h1v1h-1zM24 36h1v1h-1zM22 39h1v1h-1z" /><path fill="#9c9c9c" d="M79 33h1v1h-1zM78 34h1v1h-1zM77 35h1v1h-1zM76 36h1v1h-1zM72 41h1v1h-1zM71 42h1v1h-1zM70 43h1v1h-1zM69 44h1v1h-1zM82 46h1v1h-1zM65 49h1v1h-1zM34 53h1v1h-1zM33 54h1v1h-1zM32 56h1v1h-1zM31 57h1v1h-1zM30 59h1v1h-1zM29 60h1v1h-1zM27 63h1v1h-1zM25 66h1v1h-1zM23 69h1v1h-1zM21 72h1v1h-1zM20 73h1v1h-1zM28 91h2v1h-2zM27 92h1v1h-1z" /><path fill="#9e9e9e" d="M80 33h1v1h-1zM79 34h1v1h-1zM78 35h1v1h-1zM77 36h1v1h-1zM73 41h1v1h-1zM72 42h1v1h-1zM71 43h1v1h-1zM70 44h1v1h-1zM66 49h1v1h-1zM65 50h1v1h-1zM64 51h1v1h-1zM33 53h1v1h-1zM31 56h1v1h-1zM30 57h1v1h-1zM29 59h1v1h-1zM28 60h1v1h-1zM27 62h1v1h-1zM26 63h1v1h-1zM24 66h1v1h-1zM22 69h1v1h-1zM20 72h1v1h-1zM28 92h1v1h-1zM27 93h1v1h-1z" /><path fill="#a0a0a0" d="M81 33h1v1h-1zM80 34h1v1h-1zM79 35h1v1h-1zM78 36h1v1h-1zM74 41h1v1h-1zM73 42h1v1h-1zM72 43h1v1h-1zM71 44h1v1h-1zM67 49h1v1h-1zM34 50h1v1h-1zM66 50h1v1h-1zM65 51h1v1h-1zM32 53h1v1h-1zM64 53h1v1h-1zM30 56h1v1h-1zM28 59h1v1h-1zM26 62h1v1h-1zM25 63h1v1h-1zM24 65h1v1h-1zM23 66h1v1h-1zM18 67h1v1h-1zM22 68h1v1h-1zM21 69h1v1h-1zM29 92h1v1h-1zM28 93h1v1h-1zM28 94h1v1h-1z" /><path fill="#cbcbcb" d="M25 34h1v1h-1zM23 37h1v1h-1zM21 40h1v1h-1z" /><path fill="#a2a2a2" d="M81 34h1v1h-1zM80 35h1v1h-1zM76 40h1v1h-1zM75 41h1v1h-1zM74 42h1v1h-1zM73 43h1v1h-1zM69 48h1v1h-1zM34 49h1v1h-1zM68 49h1v1h-1zM33 50h1v1h-1zM67 50h1v1h-1zM66 51h1v1h-1zM32 52h1v1h-1zM65 52h1v1h-1zM31 53h1v1h-1zM64 54h1v1h-1zM29 56h1v1h-1zM27 59h1v1h-1zM25 62h1v1h-1zM23 65h1v1h-1zM22 66h1v1h-1zM21 68h1v1h-1zM20 69h1v1h-1zM19 71h1v1h-1zM29 93h1v1h-1z" /><path fill="#cccccc" d="M24 35h1v1h-1zM22 38h1v1h-1z" /><path fill="#a6a6a6" d="M21 39h1v1h-1zM78 40h1v1h-1zM77 41h1v1h-1zM76 42h1v1h-1zM75 43h1v1h-1zM82 44h1v1h-1zM34 46h1v1h-1zM71 48h1v1h-1zM32 49h1v1h-1zM70 49h1v1h-1zM69 50h1v1h-1zM68 51h1v1h-1zM30 52h1v1h-1zM28 55h1v1h-1zM27 56h1v1h-1zM64 56h1v1h-1zM26 58h1v1h-1zM25 59h1v1h-1zM24 61h1v1h-1zM23 62h1v1h-1zM21 65h1v1h-1zM19 68h1v1h-1zM30 95h1v1h-1z" /></svg>