<svg xmlns="http://www.w3.org/2000/svg" viewBox="0 0 100 100"><path fill="#212121" fill-rule="evenodd" d="M44 0h1v1h-1zm0 1v1h-1v-1zm-1 1v1h-1v-1zm-5 5h1v1h-1zm0 1v1h-1v-1zm-1 1v1h-1v-1zm-1 1v1h-1v-1zm-5 5h1v1h-1zm0 1v1h-1v-1zm-1 1v1h-1v-1zm-1 1v1h-1v-1zm-5 5h1v1h-1zm0 1v1h-1v-1zm-1 1v1h-1v-1zm-1 1v1h-1v-1zm-1 1v1h-1v-1zm-5 5h1v1h-1zm0 1v1h-1v-1zm-1 1v1h-1v-1zm-1 1v1h-1v-1zm-5 5h1v1h-1zm0 1v1h-1v-1zm-1 1v1h-1v-1zm-1 1v1h-1v-1zm91 0h1v1h-1zm0 1v1h-1v-1zm-2 2h1v1h-1zm0 1v1h-1v-1zm-94 1h1v1h-1zm0 1v1h-1v-1zm-1 1v1h-1v-1zm93-1h1v1h-1zm0 1v1h-1v-1zm-3 3h1v1h-1zm-2 3h1v1h-1zm-2 3h1v1h-1zm-2 3h1v1h-1zm-2 3h1v1h-1zm0 1v1h-1v-1zm-2 2h1v1h-1zm0 1v1h-1v-1zm-2 2h1v1h-1zm0 1v1h-1v-1zm-3 3h1v1h-1zm-2 3h1v1h-1zm-2 3h1v1h-1zm-2 3h1v1h-1zm0 1v1h-1v-1zm-2 2h1v1h-1zm0 1v1h-1v-1zm-2 2h1v1h-1zm0 1v1h-1v-1zm-3 3h1v1h-1zm-2 3h1v1h-1zm0 1v1h-1v-1z"/><path fill="#222" fill-rule="evenodd" d="M45 0h1v1h-1zm-3 3h1v1h-1zm0 1v1h-1v-1zm-1 1v1h-1v-1zm-1 1v1h-1v-1zm-5 5h1v1h-1zm0 1v1h-1v-1zm-1 1v1h-1v-1zm-1 1v1h-1v-1zm-5 5h1v1h-1zm0 1v1h-1v-1zm-1 1v1h-1v-1zm-1 1v1h-1v-1zm-5 5h1v1h-1zm0 1v1h-1v-1zm-1 1v1h-1v-1zm-1 1v1h-1v-1zm-1 1v1h-1v-1zm-4 4h1v1h-1zm0 1v1h-1v-1zm-1 1v1h-1v-1zm-1 1v1h-1v-1zm-1 1v1h-1v-1zm87 3h1v1h-1zm-92 2h1v1h-1zm0 1v1h-1v-1zm-1 1v1h-1v-1zm91-1h1v1h-1zm-92 2v1h-1v-1zm90 1h1v1h-1zm-2 3h1v1h-1zm-2 3h1v1h-1zm-2 3h1v1h-1zm0 1v1h-1v-1zm-2 2h1v1h-1zm0 1v1h-1v-1zm-2 2h1v1h-1zm0 1v1h-1v-1zm-3 3h1v1h-1zm-2 3h1v1h-1zm-2 3h1v1h-1zm-2 3h1v1h-1zm0 1v1h-1v-1zm-2 2h1v1h-1zm0 1v1h-1v-1zm-2 2h1v1h-1zm0 1v1h-1v-1zm-3 3h1v1h-1zm-2 3h1v1h-1zm-2 3h1v1h-1zm-2 3h1v1h-1z"/><path fill="#242424" fill-rule="evenodd" d="M46 0h1v1h-1zm-2 2h1v1h-1zm0 1v1h-1v-1zm-1 1v1h-1v-1zm-1 1v1h-1v-1zm-1 1v1h-1v-1zm-5 5h1v1h-1zm0 1v1h-1v-1zm-1 1v1h-1v-1zm-1 1v1h-1v-1zm-5 5h1v1h-1zm0 1v1h-1v-1zm-1 1v1h-1v-1zm-1 1v1h-1v-1zm-5 5h1v1h-1zm0 1v1h-1v-1zm-1 1v1h-1v-1zm-1 1v1h-1v-1zm-5 5h1v1h-1zm0 1v1h-1v-1zm-1 1v1h-1v-1zm-1 1v1h-1v-1zm85 3h1v1h-1zm0 1v1h-1v-1zm-90 1h1v1h-1zm0 1v1h-1v-1zm-1 1v1h-1v-1zm89-1h1v1h-1zm0 1v1h-1v-1zm-90 1v1h-1v-1zm-1 1v1h-1v-1zm89 0h1v1h-1zm0 1v1h-1v-1zm-3 3h1v1h-1zm-91 1h1v1h-1zm89 2h1v1h-1zm-2 3h1v1h-1zm-2 3h1v1h-1zm0 1v1h-1v-1zm-2 2h1v1h-1zm0 1v1h-1v-1zm-2 2h1v1h-1zm0 1v1h-1v-1zm-3 3h1v1h-1zm-2 3h1v1h-1zm-2 3h1v1h-1zm-2 3h1v1h-1zm-2 3h1v1h-1zm0 1v1h-1v-1zm-2 2h1v1h-1zm0 1v1h-1v-1zm-2 2h1v1h-1zm0 1v1h-1v-1zm-3 3h1v1h-1zm-2 3h1v1h-1zm-2 3h1v1h-1z"/><path fill="#272727" fill-rule="evenodd" d="M47 0h1v1h-1zm0 1v1h-1v-1zm-5 5h1v1h-1zm0 1v1h-1v-1zm-1 1v1h-1v-1zm-1 1v1h-1v-1zm-5 5h1v1h-1zm0 1v1h-1v-1zm-1 1v1h-1v-1zm-1 1v1h-1v-1zm-5 5h1v1h-1zm0 1v1h-1v-1zm-1 1v1h-1v-1zm-1 1v1h-1v-1zm-1 1v1h-1v-1zm-5 5h1v1h-1zm0 1v1h-1v-1zm-1 1v1h-1v-1zm-1 1v1h-1v-1zm-5 5h1v1h-1zm0 1v1h-1v-1zm-1 1v1h-1v-1zm85-1h1v1h-1zm-86 2v1h-1v-1zm85 0h1v1h-1zm0 1v1h-1v-1zm-3 3h1v1h-1zm-87 1h1v1h-1zm0 1v1h-1v-1zm-1 1v1h-1v-1zm-1 1v1h-1v-1zm87-1h1v1h-1zm-2 3h1v1h-1zm-89 2h1v1h-1zm87 1h1v1h-1zm0 1v1h-1v-1zm-2 2h1v1h-1zm0 1v1h-1v-1zm-2 2h1v1h-1zm0 1v1h-1v-1zm-3 3h1v1h-1zm-2 3h1v1h-1zm-2 3h1v1h-1zm-2 3h1v1h-1zm-2 3h1v1h-1zm0 1v1h-1v-1zm-2 2h1v1h-1zm0 1v1h-1v-1zm-2 2h1v1h-1zm0 1v1h-1v-1zm-3 3h1v1h-1zm-2 3h1v1h-1zm-2 3h1v1h-1zm-2 3h1v1h-1zm0 1v1h-1v-1z"/><path fill="#292929" fill-rule="evenodd" d="M48 0h1v1h-1zm0 1v1h-1v-1zm-5 5h1v1h-1zm0 1v1h-1v-1zm-1 1v1h-1v-1zm-1 1v1h-1v-1zm-5 5h1v1h-1zm0 1v1h-1v-1zm-1 1v1h-1v-1zm-1 1v1h-1v-1zm-5 5h1v1h-1zm0 1v1h-1v-1zm-1 1v1h-1v-1zm-1 1v1h-1v-1zm-5 5h1v1h-1zm0 1v1h-1v-1zm-1 1v1h-1v-1zm-1 1v1h-1v-1zm-1 1v1h-1v-1zm-4 4h1v1h-1zm0 1v1h-1v-1zm-1 1v1h-1v-1zm83-1h1v1h-1zm0 1v1h-1v-1zm-84 1v1h-1v-1zm-1 1v1h-1v-1zm83 0h1v1h-1zm0 1v1h-1v-1zm-2 2h1v1h-1zm0 1v1h-1v-1zm-86 1h1v1h-1zm0 1v1h-1v-1zm-1 1v1h-1v-1zm-1 1v1h-1v-1zm85-1h1v1h-1zm-2 3h1v1h-1zm-88 3h1v1h-1zm86 0h1v1h-1zm-2 3h1v1h-1zm-2 3h1v1h-1zm0 1v1h-1v-1zm-2 2h1v1h-1zm0 1v1h-1v-1zm-2 2h1v1h-1zm0 1v1h-1v-1zm-3 3h1v1h-1zm-2 3h1v1h-1zm-2 3h1v1h-1zm-2 3h1v1h-1zm0 1v1h-1v-1zm-2 2h1v1h-1zm0 1v1h-1v-1zm-2 2h1v1h-1zm0 1v1h-1v-1zm-3 3h1v1h-1zm-2 3h1v1h-1zm-2 3h1v1h-1z"/><path fill="#2b2b2b" fill-rule="evenodd" d="M49 0h1v1h-1zm-4 5h1v1h-1zm0 1v1h-1v-1zm-1 1v1h-1v-1zm-1 1v1h-1v-1zm-1 1v1h-1v-1zm-5 5h1v1h-1zm0 1v1h-1v-1zm-1 1v1h-1v-1zm-1 1v1h-1v-1zm-5 5h1v1h-1zm0 1v1h-1v-1zm-1 1v1h-1v-1zm-1 1v1h-1v-1zm-5 5h1v1h-1zm0 1v1h-1v-1zm-1 1v1h-1v-1zm-1 1v1h-1v-1zm-5 5h1v1h-1zm0 1v1h-1v-1zm-1 1v1h-1v-1zm81-1h1v1h-1zm-82 2v1h-1v-1zm80 1h1v1h-1zm-2 3h1v1h-1zm0 1v1h-1v-1zm-83 0h1v1h-1zm0 1v1h-1v-1zm-1 1v1h-1v-1zm-1 1v1h-1v-1zm83-1h1v1h-1zm0 1v1h-1v-1zm-84 1v1h-1v-1zm82 1h1v1h-1zm0 1v1h-1v-1zm-87 3h1v1h-1zm84 0h1v1h-1zm-2 3h1v1h-1zm-2 3h1v1h-1zm-2 3h1v1h-1zm0 1v1h-1v-1zm-2 2h1v1h-1zm0 1v1h-1v-1zm-2 2h1v1h-1zm0 1v1h-1v-1zm-3 3h1v1h-1zm-2 3h1v1h-1zm-2 3h1v1h-1zm-2 3h1v1h-1zm-2 3h1v1h-1zm0 1v1h-1v-1zm-2 2h1v1h-1zm0 1v1h-1v-1zm-2 2h1v1h-1zm0 1v1h-1v-1zm-3 3h1v1h-1z"/><path fill="#313131" fill-rule="evenodd" d="M50 0h1v1h-1zm-1 4h1v1h-1zm0 1v1h-1v-1zm-1 1v1h-1v-1zm-1 1v1h-1v-1zm-1 1v1h-1v-1zm-5 5h1v1h-1zm0 1v1h-1v-1zm-1 1v1h-1v-1zm-1 1v1h-1v-1zm-5 5h1v1h-1zm0 1v1h-1v-1zm-1 1v1h-1v-1zm-1 1v1h-1v-1zm-5 5h1v1h-1zm0 1v1h-1v-1zm-1 1v1h-1v-1zm-1 1v1h-1v-1zm71 3h1v1h-1zm-76 2h1v1h-1zm0 1v1h-1v-1zm-1 1v1h-1v-1zm75-1h1v1h-1zm0 1v1h-1v-1zm-76 1v1h-1v-1zm-1 1v1h-1v-1zm75 0h1v1h-1zm0 1v1h-1v-1zm-2 2h1v1h-1zm0 1v1h-1v-1zm-77 0h1v1h-1zm0 1v1h-1v-1zm-1 1v1h-1v-1zm-1 1v1h-1v-1zm-1 1v1h-1v-1zm77-1h1v1h-1zm-2 3h1v1h-1zm-80 3h1v1h-1zm0 1v1h-1v-1zm78-1h1v1h-1zm-79 2v1h-1v-1zm-1 1v1h-1v-1zm78 0h1v1h-1zm0 1v1h-1v-1zm-2 2h1v1h-1zm-7 10h1v1h-1zm-2 3h1v1h-1zm-2 3h1v1h-1zm-2 3h1v1h-1zm0 1v1h-1v-1zm-2 2h1v1h-1zm0 1v1h-1v-1zm-2 2h1v1h-1zm0 1v1h-1v-1zm-3 3h1v1h-1zm-2 3h1v1h-1zm-2 3h1v1h-1zm-2 3h1v1h-1z"/><path fill="#424242" fill-rule="evenodd" d="M51 0h1v1h-1zm5 6h1v1h-1zm0 1v1h-1v-1zm-1 1v1h-1v-1zm-1 1v1h-1v-1zm-5 5h1v1h-1zm0 1v1h-1v-1zm-1 1v1h-1v-1zm-1 1v1h-1v-1zm-5 5h1v1h-1zm0 1v1h-1v-1zm51 5h1v1h-1zm0 1v1h-1v-1zm-3 3h1v1h-1zm-2 3h1v1h-1zm-66 1h1v1h-1zm64 2h1v1h-1zm-2 3h1v1h-1zm-71 14h1v1h-1zm0 1v1h-1v-1zm-1 1v1h-1v-1zm-1 1v1h-1v-1zm-5 5h1v1h-1zm0 1v1h-1v-1zm-1 1v1h-1v-1zm-1 1v2h-1v-2zm56 10h1v1h-1zm-2 3h1v1h-1zm-2 3h1v1h-1zm-2 3h1v1h-1zm0 1v1h-1v-1zm-2 2h1v1h-1zm0 1v1h-1v-1zm-2 2h1v1h-1zm0 1v1h-1v-1zm-3 3h1v1h-1zm-2 3h1v1h-1z"/><path fill="#3e3e3e" fill-rule="evenodd" d="M52 0h1v1h-1zm5 2h1v1h-1zm-3 4h1v1h-1zm0 1v1h-1v-1zm-1 1v1h-1v-1zm-1 1v1h-1v-1zm-1 1v1h-1v-1zm-5 5h1v1h-1zm0 1v1h-1v-1zm-1 1v1h-1v-1zm-1 1v1h-1v-1zm-5 5h1v1h-1zm0 1v1h-1v-1zm55 5h1v1h-1zm-67 1h1v1h-1zm65 2h1v1h-1zm-2 3h1v1h-1zm0 1v1h-1v-1zm-2 2h1v1h-1zm0 1v1h-1v-1zm-2 2h1v1h-1zm0 1v1h-1v-1zm-3 3h1v1h-1zm-66 3h1v1h-1zm0 1v1h-1v-1zm-1 1v1h-1v-1zm-1 1v1h-1v-1zm-5 5h1v1h-1zm0 1v1h-1v-1zm-1 1v1h-1v-1zm-1 1v1h-1v-1zm-5 5h1v1h-1zm0 1v1h-1v-1zm59 11h1v1h-1zm0 1v1h-1v-1zm-2 2h1v1h-1zm0 1v1h-1v-1zm-2 2h1v1h-1zm0 1v1h-1v-1zm-3 3h1v1h-1zm-2 3h1v1h-1zm-2 3h1v1h-1zm-2 3h1v1h-1zm0 1v1h-1v-1zm-2 2h1v1h-1z"/><path fill="#373737" fill-rule="evenodd" d="M53 0h1v1h-1zm0 3h1v1h-1zm0 1v1h-1v-1zm-1 1v1h-1v-1zm-1 1v1h-1v-1zm-1 1v1h-1v-1zm-5 5h1v1h-1zm0 1v1h-1v-1zm-1 1v1h-1v-1zm-1 1v1h-1v-1zm-5 5h1v1h-1zm0 1v1h-1v-1zm-1 1v1h-1v-1zm-1 1v1h-1v-1zm59 9h1v1h-1zm-1 2h1v1h-1zm0 1v1h-1v-1zm-3 3h1v1h-1zm-2 3h1v1h-1zm-2 3h1v1h-1zm-71 1h1v1h-1zm0 1v1h-1v-1zm-1 1v1h-1v-1zm-1 1v1h-1v-1zm71-1h1v1h-1zm-2 3h1v1h-1zm-74 3h1v1h-1zm0 1v1h-1v-1zm-1 1v1h-1v-1zm-1 1v1h-1v-1zm-5 5h1v1h-1zm65 12h1v1h-1zm-1 2h1v1h-1zm0 1v1h-1v-1zm-2 2h1v1h-1zm0 1v1h-1v-1zm-3 3h1v1h-1zm-2 3h1v1h-1zm-2 3h1v1h-1zm-2 3h1v1h-1zm0 1v1h-1v-1zm-2 2h1v1h-1zm0 1v1h-1v-1zm-2 2h1v1h-1zm0 1v1h-1v-1z"/><path fill="#4f4f4f" fill-rule="evenodd" d="M54 0h1v1h-1zm9 4h1v1h-1zm-2 4h1v1h-1zm0 1v1h-1v-1zm-1 1v1h-1v-1zm-1 1v1h-1v-1zm-5 5h1v1h-1zm0 1v1h-1v-1zm-1 1v1h-1v-1zm-1 1v1h-1v-1zm39 3h1v1h-1zm0 1v1h-1v-1zm-44 1h1v1h-1zm42 1h1v1h-1zm0 1v1h-1v-1zm-3 3h1v1h-1zm-2 3h1v1h-1zm-68 27h1v1h-1zm0 1v1h-1v-1zm-5 5h1v1h-1zm0 1v1h-1v-1zm-1 1v1h-1v-1zm-1 1v1h-1v-1zm-1 1v1h-1v-1zm-3 3h1v1h-1zm49 4h1v1h-1zm-2 3h1v1h-1zm-2 3h1v1h-1zm0 1v1h-1v-1zm-2 2h1v1h-1zm0 1v1h-1v-1zm-2 2h1v1h-1zm0 1v1h-1v-1zm-3 3h1v1h-1zm-2 3h1v1h-1z"/><path fill="#191919" fill-rule="evenodd" d="M39 1h1v1h-1zm0 1v1h-1v-1zm-1 1v1h-1v-1zm-5 5h1v1h-1zm0 1v1h-1v-1zm-1 1v1h-1v-1zm-1 1v1h-1v-1zm-5 5h1v1h-1zm0 1v1h-1v-1zm-1 1v1h-1v-1zm-1 1v1h-1v-1zm-1 1v1h-1v-1zm-5 5h1v1h-1zm0 1v1h-1v-1zm-1 1v1h-1v-1zm-1 1v1h-1v-1zm-5 5h1v1h-1zm0 1v1h-1v-1zm-1 1v1h-1v-1zm-1 1v1h-1v-1zm-5 5h1v1h-1zm0 1v1h-1v-1zm-1 1v1h-1v-1zm-1 1v1h-1v-1zm-2 2h1v1h-1zm98 2h1v1h-1zm-1 2h1v1h-1zm0 1v1h-1v-1zm-2 2h1v1h-1zm0 1v1h-1v-1zm-3 3h1v1h-1zm-2 3h1v1h-1zm-2 3h1v1h-1zm-2 3h1v1h-1zm0 1v1h-1v-1zm-2 2h1v1h-1zm0 1v1h-1v-1zm-2 2h1v1h-1zm0 1v1h-1v-1zm-3 3h1v1h-1zm-2 3h1v1h-1zm-2 3h1v1h-1zm-2 3h1v1h-1zm-2 3h1v1h-1zm0 1v1h-1v-1zm-2 2h1v1h-1zm0 1v1h-1v-1zm-2 2h1v1h-1zm0 1v1h-1v-1z"/><path fill="#1a1a1a" fill-rule="evenodd" d="M40 1h1v1h-1zm-3 3h1v1h-1zm0 1v1h-1v-1zm-1 1v1h-1v-1zm-1 1v1h-1v-1zm-5 5h1v1h-1zm0 1v1h-1v-1zm-1 1v1h-1v-1zm-1 1v1h-1v-1zm-5 5h1v1h-1zm0 1v1h-1v-1zm-1 1v1h-1v-1zm-1 1v1h-1v-1zm-1 1v1h-1v-1zm-4 4h1v1h-1zm0 1v1h-1v-1zm-1 1v1h-1v-1zm-1 1v1h-1v-1zm-1 1v1h-1v-1zm-5 5h1v1h-1zm0 1v1h-1v-1zm-1 1v1h-1v-1zm-1 1v1h-1v-1zm-5 5h1v1h-1zm98 1h1v1h-1zm-2 3h1v1h-1zm-2 3h1v1h-1zm-2 3h1v1h-1zm-2 3h1v1h-1zm0 1v1h-1v-1zm-2 2h1v1h-1zm0 1v1h-1v-1zm-2 2h1v1h-1zm0 1v1h-1v-1zm-3 3h1v1h-1zm-2 3h1v1h-1zm-2 3h1v1h-1zm-2 3h1v1h-1zm-2 3h1v1h-1zm0 1v1h-1v-1zm-2 2h1v1h-1zm0 1v1h-1v-1zm-2 2h1v1h-1zm0 1v1h-1v-1zm-3 3h1v1h-1zm-2 3h1v1h-1zm-2 3h1v1h-1zm0 1v1h-1v-1z"/><path fill="#1d1d1d" fill-rule="evenodd" d="M41 1h1v1h-1zm0 1v1h-1v-1zm-1 1v1h-1v-1zm-4 4h1v1h-1zm0 1v1h-1v-1zm-1 1v1h-1v-1zm-1 1v1h-1v-1zm-1 1v1h-1v-1zm-5 5h1v1h-1zm0 1v1h-1v-1zm-1 1v1h-1v-1zm-1 1v1h-1v-1zm-5 5h1v1h-1zm0 1v1h-1v-1zm-1 1v1h-1v-1zm-1 1v1h-1v-1zm-5 5h1v1h-1zm0 1v1h-1v-1zm-1 1v1h-1v-1zm-1 1v1h-1v-1zm-5 5h1v1h-1zm0 1v1h-1v-1zm-1 1v1h-1v-1zm-1 1v1h-1v-1zm-1 1v1h-1v-1zm95 0h1v1h-1zm-2 3h1v1h-1zm-2 3h1v1h-1zm-2 3h1v1h-1zm-2 3h1v1h-1zm0 1v1h-1v-1zm-2 2h1v1h-1zm0 1v1h-1v-1zm-2 2h1v1h-1zm0 1v1h-1v-1zm-3 3h1v1h-1zm-2 3h1v1h-1zm-2 3h1v1h-1zm-2 3h1v1h-1zm0 1v1h-1v-1zm-2 2h1v1h-1zm0 1v1h-1v-1zm-2 2h1v1h-1zm0 1v1h-1v-1zm-3 3h1v1h-1zm-2 3h1v1h-1zm-2 3h1v1h-1zm-2 3h1v1h-1zm-2 3h1v1h-1z"/><path fill="#1f1f1f" fill-rule="evenodd" d="M42 1h1v1h-1zm0 1v1h-1v-1zm-5 5h1v1h-1zm0 1v1h-1v-1zm-1 1v1h-1v-1zm-1 1v1h-1v-1zm-5 5h1v1h-1zm0 1v1h-1v-1zm-1 1v1h-1v-1zm-1 1v1h-1v-1zm-1 1v1h-1v-1zm-5 5h1v1h-1zm0 1v1h-1v-1zm-1 1v1h-1v-1zm-1 1v1h-1v-1zm-5 5h1v1h-1zm0 1v1h-1v-1zm-1 1v1h-1v-1zm-1 1v1h-1v-1zm-5 5h1v1h-1zm0 1v1h-1v-1zm-1 1v1h-1v-1zm-1 1v1h-1v-1zm92 1h1v1h-1zm-1 2h1v1h-1zm0 1v1h-1v-1zm-96 1h1v1h-1zm93 2h1v1h-1zm-2 3h1v1h-1zm-2 3h1v1h-1zm-2 3h1v1h-1zm0 1v1h-1v-1zm-2 2h1v1h-1zm0 1v1h-1v-1zm-2 2h1v1h-1zm0 1v1h-1v-1zm-3 3h1v1h-1zm-2 3h1v1h-1zm-2 3h1v1h-1zm-2 3h1v1h-1zm-2 3h1v1h-1zm0 1v1h-1v-1zm-2 2h1v1h-1zm0 1v1h-1v-1zm-2 2h1v1h-1zm0 1v1h-1v-1zm-3 3h1v1h-1zm-2 3h1v1h-1zm-2 3h1v1h-1zm0 1v1h-1v-1z"/><path fill="#232323" fill-rule="evenodd" d="M44 1h1v1h-1zm0 1v1h-1v-1zm-5 5h1v1h-1zm0 1v1h-1v-1zm-1 1v1h-1v-1zm-1 1v1h-1v-1zm-5 5h1v1h-1zm0 1v1h-1v-1zm-1 1v1h-1v-1zm-1 1v1h-1v-1zm-5 5h1v1h-1zm0 1v1h-1v-1zm-1 1v1h-1v-1zm-1 1v1h-1v-1zm-5 5h1v1h-1zm0 1v1h-1v-1zm-1 1v1h-1v-1zm-1 1v1h-1v-1zm-5 5h1v1h-1zm0 1v1h-1v-1zm-1 1v1h-1v-1zm-1 1v1h-1v-1zm-1 1v1h-1v-1zm89 0h1v1h-1zm-2 3h1v1h-1zm-92 2h1v1h-1zm0 1v1h-1v-1zm-1 1v1h-1v-1zm91-1h1v1h-1zm0 1v1h-1v-1zm-92 1v1h-1v-1zm90 1h1v1h-1zm0 1v1h-1v-1zm-2 2h1v1h-1zm0 1v1h-1v-1zm-3 3h1v1h-1zm-2 3h1v1h-1zm-2 3h1v1h-1zm-2 3h1v1h-1zm0 1v1h-1v-1zm-2 2h1v1h-1zm0 1v1h-1v-1zm-2 2h1v1h-1zm0 1v1h-1v-1zm-3 3h1v1h-1zm-2 3h1v1h-1zm-2 3h1v1h-1zm-2 3h1v1h-1zm-2 3h1v1h-1zm0 1v1h-1v-1zm-2 2h1v1h-1zm0 1v1h-1v-1zm-2 2h1v1h-1zm0 1v1h-1v-1z"/><path fill="#252525" fill-rule="evenodd" d="M45 1h1v1h-1zm-4 5h1v1h-1zm0 1v1h-1v-1zm-1 1v1h-1v-1zm-1 1v1h-1v-1zm-1 1v1h-1v-1zm-4 4h1v1h-1zm0 1v1h-1v-1zm-1 1v1h-1v-1zm-1 1v1h-1v-1zm-1 1v1h-1v-1zm-5 5h1v1h-1zm0 1v1h-1v-1zm-1 1v1h-1v-1zm-1 1v1h-1v-1zm-5 5h1v1h-1zm0 1v1h-1v-1zm-1 1v1h-1v-1zm-1 1v1h-1v-1zm-5 5h1v1h-1zm0 1v1h-1v-1zm-1 1v1h-1v-1zm87-1h1v1h-1zm-88 2v1h-1v-1zm86 1h1v1h-1zm-2 3h1v1h-1zm-89 1h1v1h-1zm0 1v1h-1v-1zm-1 1v1h-1v-1zm-1 1v1h-1v-1zm89-1h1v1h-1zm-90 2v1h-1v-1zm88 1h1v1h-1zm0 1v1h-1v-1zm-2 2h1v1h-1zm0 1v1h-1v-1zm-2 2h1v1h-1zm0 1v1h-1v-1zm-3 3h1v1h-1zm-2 3h1v1h-1zm-2 3h1v1h-1zm-2 3h1v1h-1zm-2 3h1v1h-1zm0 1v1h-1v-1zm-2 2h1v1h-1zm0 1v1h-1v-1zm-2 2h1v1h-1zm0 1v1h-1v-1zm-3 3h1v1h-1zm-2 3h1v1h-1zm-2 3h1v1h-1zm-2 3h1v1h-1zm0 1v1h-1v-1zm-2 2h1v1h-1zm0 1v1h-1v-1z"/><path fill="#2a2a2a" fill-rule="evenodd" d="M48 1h1v1h-1zm0 1v1h-1v-1zm-1 1v1h-1v-1zm-1 1v1h-1v-1zm-1 1v1h-1v-1zm-5 5h1v1h-1zm0 1v1h-1v-1zm-1 1v1h-1v-1zm-1 1v1h-1v-1zm-5 5h1v1h-1zm0 1v1h-1v-1zm-1 1v1h-1v-1zm-1 1v1h-1v-1zm-5 5h1v1h-1zm0 1v1h-1v-1zm-1 1v1h-1v-1zm-1 1v1h-1v-1zm-5 5h1v1h-1zm0 1v1h-1v-1zm-1 1v1h-1v-1zm-1 1v1h-1v-1zm80 1h1v1h-1zm-2 3h1v1h-1zm-83 1h1v1h-1zm0 1v1h-1v-1zm-1 1v1h-1v-1zm-1 1v1h-1v-1zm83-1h1v1h-1zm-84 2v1h-1v-1zm82 1h1v1h-1zm-2 3h1v1h-1zm-85 1h1v1h-1zm0 1v1h-1v-1zm-1 1v1h-1v-1zm-1 1v1h-1v-1zm85-1h1v1h-1zm0 1v1h-1v-1zm-87 2h1v1h-1zm85 0h1v1h-1zm0 1v1h-1v-1zm-2 2h1v1h-1zm0 1v1h-1v-1zm-3 3h1v1h-1zm-2 3h1v1h-1zm-2 3h1v1h-1zm-2 3h1v1h-1zm0 1v1h-1v-1zm-2 2h1v1h-1zm0 1v1h-1v-1zm-2 2h1v1h-1zm0 1v1h-1v-1zm-3 3h1v1h-1zm-2 3h1v1h-1zm-2 3h1v1h-1zm-2 3h1v1h-1zm-2 3h1v1h-1zm0 1v1h-1v-1zm-2 2h1v1h-1zm0 1v1h-1v-1zm-1 1v1h-1v-1z"/><path fill="#2c2c2c" fill-rule="evenodd" d="M49 1h1v1h-1zm0 1v1h-1v-1zm-1 1v1h-1v-1zm-1 1v1h-1v-1zm-5 5h1v1h-1zm0 1v1h-1v-1zm-1 1v1h-1v-1zm-1 1v1h-1v-1zm-1 1v1h-1v-1zm-4 4h1v1h-1zm0 1v1h-1v-1zm-1 1v1h-1v-1zm-1 1v1h-1v-1zm-1 1v1h-1v-1zm-5 5h1v1h-1zm0 1v1h-1v-1zm-1 1v1h-1v-1zm-1 1v1h-1v-1zm-5 5h1v1h-1zm0 1v1h-1v-1zm-1 1v1h-1v-1zm-1 1v1h-1v-1zm79 0h1v1h-1zm0 1v1h-1v-1zm-2 2h1v1h-1zm0 1v1h-1v-1zm-82 1h1v1h-1zm0 1v1h-1v-1zm-1 1v1h-1v-1zm81-1h1v1h-1zm0 1v1h-1v-1zm-82 1v1h-1v-1zm79 2h1v1h-1zm-84 3h1v1h-1zm0 1v1h-1v-1zm82-1h1v1h-1zm-83 2v1h-1v-1zm-1 1v1h-1v-1zm-1 1v1h-1v-1zm83-1h1v1h-1zm-2 3h1v1h-1zm0 1v1h-1v-1zm-2 2h1v1h-1zm0 1v1h-1v-1zm-2 2h1v1h-1zm0 1v1h-1v-1zm-3 3h1v1h-1zm-2 3h1v1h-1zm-2 3h1v1h-1zm-2 3h1v1h-1zm-2 3h1v1h-1zm0 1v1h-1v-1zm-2 2h1v1h-1zm0 1v1h-1v-1zm-2 2h1v1h-1zm0 1v1h-1v-1zm-3 3h1v1h-1zm-2 3h1v1h-1zm-2 3h1v1h-1zm-2 3h1v1h-1zm0 1v1h-1v-1z"/><path fill="#2e2e2e" fill-rule="evenodd" d="M50 1h1v1h-1zm0 1v1h-1v-1zm-1 1v1h-1v-1zm-1 1v1h-1v-1zm-5 5h1v1h-1zm0 1v1h-1v-1zm-1 1v1h-1v-1zm-1 1v1h-1v-1zm-5 5h1v1h-1zm0 1v1h-1v-1zm-1 1v1h-1v-1zm-1 1v1h-1v-1zm-5 5h1v1h-1zm0 1v1h-1v-1zm-1 1v1h-1v-1zm-1 1v1h-1v-1zm-1 1v1h-1v-1zm-5 5h1v1h-1zm0 1v1h-1v-1zm-1 1v1h-1v-1zm77-1h1v1h-1zm-78 2v1h-1v-1zm77 0h1v1h-1zm-2 3h1v1h-1zm0 1v1h-1v-1zm-80 1h1v1h-1zm0 1v1h-1v-1zm-1 1v1h-1v-1zm79-1h1v1h-1zm0 1v1h-1v-1zm-80 1v1h-1v-1zm78 1h1v1h-1zm0 1v1h-1v-1zm-83 3h1v1h-1zm0 1v1h-1v-1zm80-1h1v1h-1zm-81 2v1h-1v-1zm-1 1v1h-1v-1zm80 0h1v1h-1zm-2 3h1v1h-1zm-2 3h1v1h-1zm-2 3h1v1h-1zm0 1v1h-1v-1zm-2 2h1v1h-1zm0 1v1h-1v-1zm-2 2h1v1h-1zm0 1v1h-1v-1zm-3 3h1v1h-1zm-2 3h1v1h-1zm-2 3h1v1h-1zm-2 3h1v1h-1zm0 1v1h-1v-1zm-2 2h1v1h-1zm0 1v1h-1v-1zm-2 2h1v1h-1zm0 1v1h-1v-1zm-3 3h1v1h-1zm-2 3h1v1h-1zm-2 3h1v1h-1z"/><path fill="#303030" fill-rule="evenodd" d="M51 1h1v1h-1zm0 1v1h-1v-1zm-1 1v1h-1v-1zm-1 1v1h-1v-1zm-5 5h1v1h-1zm0 1v1h-1v-1zm-1 1v1h-1v-1zm-1 1v1h-1v-1zm-5 5h1v1h-1zm0 1v1h-1v-1zm-1 1v1h-1v-1zm-1 1v1h-1v-1zm-5 5h1v1h-1zm0 1v1h-1v-1zm-1 1v1h-1v-1zm-1 1v1h-1v-1zm-5 5h1v1h-1zm0 1v1h-1v-1zm-1 1v1h-1v-1zm-1 1v1h-1v-1zm-1 1v1h-1v-1zm75 0h1v1h-1zm-2 3h1v1h-1zm-78 2h1v1h-1zm0 1v1h-1v-1zm-1 1v1h-1v-1zm77-1h1v1h-1zm-78 2v1h-1v-1zm76 1h1v1h-1zm0 1v1h-1v-1zm-2 2h1v1h-1zm0 1v1h-1v-1zm-79 0h1v1h-1zm0 1v1h-1v-1zm-1 1v1h-1v-1zm-1 1v1h-1v-1zm79-1h1v1h-1zm0 1v1h-1v-1zm-3 3h1v1h-1zm-81 2h1v1h-1zm79 1h1v1h-1zm-2 3h1v1h-1zm-2 3h1v1h-1zm-2 3h1v1h-1zm0 1v1h-1v-1zm-2 2h1v1h-1zm0 1v1h-1v-1zm-3 3h1v1h-1zm-2 3h1v1h-1zm-2 3h1v1h-1zm-2 3h1v1h-1zm-2 3h1v1h-1zm0 1v1h-1v-1zm-2 2h1v1h-1zm0 1v1h-1v-1zm-2 2h1v1h-1zm0 1v1h-1v-1zm-3 3h1v1h-1zm-2 2h1v1h-1z"/><path fill="#323232" fill-rule="evenodd" d="M52 1h1v1h-1zm0 1v1h-1v-1zm-1 1v1h-1v-1zm-5 5h1v1h-1zm0 1v1h-1v-1zm-1 1v1h-1v-1zm-1 1v1h-1v-1zm-1 1v1h-1v-1zm-5 5h1v1h-1zm0 1v1h-1v-1zm-1 1v1h-1v-1zm-1 1v1h-1v-1zm-5 5h1v1h-1zm0 1v1h-1v-1zm-1 1v1h-1v-1zm-1 1v1h-1v-1zm-6 6h1v1h-1zm0 1v1h-1v-1zm73-1h1v1h-1zm-74 2v1h-1v-1zm73 0h1v1h-1zm0 1v1h-1v-1zm-3 3h1v1h-1zm-75 1h1v1h-1zm0 1v1h-1v-1zm-1 1v1h-1v-1zm-1 1v1h-1v-1zm75-1h1v1h-1zm-2 3h1v1h-1zm-78 3h1v1h-1zm0 1v1h-1v-1zm76-1h1v1h-1zm0 1v1h-1v-1zm-77 1v1h-1v-1zm-1 1v1h-1v-1zm-1 1v1h-1v-1zm77-1h1v1h-1zm0 1v1h-1v-1zm-2 2h1v1h-1zm0 1v1h-1v-1zm-80 2h1v1h-1zm0 1v1h-1v-1zm73 7h1v1h-1zm-4 5h1v1h-1zm0 1v1h-1v-1zm-2 2h1v1h-1zm0 1v1h-1v-1zm-2 2h1v1h-1zm0 1v1h-1v-1zm-3 3h1v1h-1zm-2 3h1v1h-1zm-2 3h1v1h-1zm-2 3h1v1h-1zm0 1v1h-1v-1zm-2 2h1v1h-1zm0 1v1h-1v-1zm-2 2h1v1h-1zm0 1v1h-1v-1z"/><path fill="#343434" fill-rule="evenodd" d="M53 1h1v1h-1zm0 1v1h-1v-1zm-1 1v1h-1v-1zm-5 5h1v1h-1zm0 1v1h-1v-1zm-1 1v1h-1v-1zm-1 1v1h-1v-1zm-5 5h1v1h-1zm0 1v1h-1v-1zm-1 1v1h-1v-1zm-1 1v1h-1v-1zm-1 1v1h-1v-1zm-4 4h1v1h-1zm0 1v1h-1v-1zm-1 1v1h-1v-1zm-1 1v1h-1v-1zm-1 1v1h-1v-1zm-1 1v1h-1v-1zm67 4h1v1h-1zm0 1v1h-1v-1zm-2 2h1v1h-1zm0 1v1h-1v-1zm-2 2h1v1h-1zm0 1v1h-1v-1zm-74 1h1v1h-1zm0 1v1h-1v-1zm-1 1v1h-1v-1zm-1 1v1h-1v-1zm73-1h1v1h-1zm-2 3h1v1h-1zm-76 3h1v1h-1zm0 1v1h-1v-1zm74-1h1v1h-1zm-75 2v1h-1v-1zm-1 1v1h-1v-1zm74 0h1v1h-1zm-79 5h1v1h-1zm0 1v1h-1v-1zm-1 1v1h-1v-1zm-1 1v2h-1v-2zm68 11h1v1h-1zm-2 3h1v1h-1zm0 1v1h-1v-1zm-2 2h1v1h-1zm0 1v1h-1v-1zm-2 2h1v1h-1zm0 1v1h-1v-1zm-3 3h1v1h-1zm-2 3h1v1h-1zm-2 3h1v1h-1zm-2 3h1v1h-1zm-2 3h1v1h-1zm0 1v1h-1v-1zm-2 2h1v1h-1z"/><path fill="#363636" fill-rule="evenodd" d="M54 1h1v1h-1zm0 1v1h-1v-1zm-1 1v1h-1v-1zm-5 5h1v1h-1zm0 1v1h-1v-1zm-1 1v1h-1v-1zm-1 1v1h-1v-1zm-5 5h1v1h-1zm0 1v1h-1v-1zm-1 1v1h-1v-1zm-1 1v1h-1v-1zm-5 5h1v1h-1zm0 1v1h-1v-1zm-1 1v1h-1v-1zm-9 7h1v1h-1zm71 0h1v1h-1zm-2 3h1v1h-1zm0 1v1h-1v-1zm-2 2h1v1h-1zm0 1v1h-1v-1zm-72 1h1v1h-1zm0 1v1h-1v-1zm-1 1v1h-1v-1zm71-1h1v1h-1zm0 1v1h-1v-1zm-72 1v1h-1v-1zm70 1h1v1h-1zm0 1v1h-1v-1zm-75 3h1v1h-1zm0 1v1h-1v-1zm72-1h1v1h-1zm-73 2v1h-1v-1zm-1 1v1h-1v-1zm72 0h1v1h-1zm-77 5h1v1h-1zm0 1v1h-1v-1zm-1 1v1h-1v-1zm-1 1v1h-1v-1zm71 7h1v1h-1zm-7 7h1v1h-1zm-2 3h1v1h-1zm-2 3h1v1h-1zm0 1v1h-1v-1zm-2 2h1v1h-1zm0 1v1h-1v-1zm-2 2h1v1h-1zm0 1v1h-1v-1zm-3 3h1v1h-1zm-2 3h1v1h-1zm-2 3h1v1h-1z"/><path fill="#383838" fill-rule="evenodd" d="M55 1h1v1h-1zm0 1v1h-1v-1zm-5 5h1v1h-1zm0 1v1h-1v-1zm-1 1v1h-1v-1zm-1 1v1h-1v-1zm-1 1v1h-1v-1zm-5 5h1v1h-1zm0 1v1h-1v-1zm-1 1v1h-1v-1zm-1 1v1h-1v-1zm-5 5h1v1h-1zm0 1v1h-1v-1zm59 8h1v1h-1zm-2 3h1v1h-1zm-2 3h1v1h-1zm-2 3h1v1h-1zm0 1v1h-1v-1zm-70 0h1v1h-1zm0 1v1h-1v-1zm68 1h1v1h-1zm0 1v1h-1v-1zm-72 2h1v1h-1zm0 1v1h-1v-1zm70-1h1v1h-1zm0 1v1h-1v-1zm-71 1v1h-1v-1zm-1 1v1h-1v-1zm-1 1v1h-1v-1zm70 3h1v1h-1zm-75 2h1v1h-1zm0 1v1h-1v-1zm-1 1v1h-1v-1zm-1 1v1h-1v-1zm68 9h1v1h-1zm-6 5h1v1h-1zm-2 3h1v1h-1zm-2 3h1v1h-1zm-2 3h1v1h-1zm0 1v1h-1v-1zm-2 2h1v1h-1zm0 1v1h-1v-1zm-2 2h1v1h-1zm0 1v1h-1v-1zm-3 3h1v1h-1zm-2 3h1v1h-1zm-2 3h1v1h-1z"/><path fill="#3b3b3b" fill-rule="evenodd" d="M56 1h1v1h-1zm-1 2h1v1h-1zm0 1v1h-1v-1zm-1 1v1h-1v-1zm-1 1v1h-1v-1zm-5 5h1v1h-1zm0 1v1h-1v-1zm-1 1v1h-1v-1zm-1 1v1h-1v-1zm-5 5h1v1h-1zm0 1v1h-1v-1zm-1 1v1h-1v-1zm-1 1v1h-1v-1zm-1 1v1h-1v-1zm-3 2h1v1h-1zm60 4h1v1h-1zm-1 2h1v1h-1zm-2 3h1v1h-1zm-2 3h1v1h-1zm0 1v1h-1v-1zm-2 2h1v1h-1zm0 1v1h-1v-1zm-2 2h1v1h-1zm0 1v1h-1v-1zm-69 2h1v1h-1zm0 1v1h-1v-1zm66 0h1v1h-1zm-71 5h1v1h-1zm0 1v1h-1v-1zm-1 1v1h-1v-1zm-1 1v1h-1v-1zm-5 5h1v1h-1zm0 1v1h-1v-1zm-1 1v1h-1v-1zm-1 1v2h-1v-2zm61 12h1v1h-1zm-2 3h1v1h-1zm0 1v1h-1v-1zm-2 2h1v1h-1zm0 1v1h-1v-1zm-2 2h1v1h-1zm0 1v1h-1v-1zm-3 3h1v1h-1zm-2 3h1v1h-1zm-2 3h1v1h-1zm-2 3h1v1h-1z"/><path fill="#575757" fill-rule="evenodd" d="M57 1h1v1h-1zm9 6h1v1h-1zm0 1v1h-1v-1zm-1 1v1h-1v-1zm-1 1v1h-1v-1zm-5 5h1v1h-1zm0 1v1h-1v-1zm-1 1v1h-1v-1zm-1 1v1h-1v-1zm31 3h1v1h-1zm0 1v1h-1v-1zm-36 1h1v1h-1zm0 1v1h-1v-1zm-1 1v1h-1v-1zm34 0h1v1h-1zm-2 3h1v1h-1zm-67 36h1v1h-1zm0 1v1h-1v-1zm-1 1v1h-1v-1zm-1 1v1h-1v-1zm-5 5h1v1h-1zm0 1v1h-1v-1zm-1 1v1h-1v-1zm41 4h1v1h-1zm0 1v1h-1v-1zm-2 2h1v1h-1zm0 1v1h-1v-1zm-2 2h1v1h-1zm0 1v1h-1v-1zm-3 3h1v1h-1zm-2 3h1v1h-1zm-2 3h1v1h-1z"/><path fill="#8c8c8c" fill-rule="evenodd" d="M58 1h1v1h-1zm15 5h1v1h-1zm-1 2h1v1h-1zm7 16h1v1h-1zm-3 3h1v1h-1zm0 1v1h-1v-1zm-1 1v1h-1v-1zm-1 1v1h-1v-1zm-5 5h1v1h-1zm0 1v1h-1v-1zm-1 1v1h-1v-1zm-1 1v1h-1v-1zm15-1h1v1h-1zm-16 2v1h-1v-1zm-49 20h1v1h-1zm19 2h1v1h-1zm0 1v1h-1v-1zm-2 2h1v1h-1zm0 1v1h-1v-1zm-3 3h1v1h-1zm-2 3h1v1h-1zm-2 3h1v1h-1zm27 1h1v1h-1zm4 0h1v1h-1zm-33 2h1v1h-1zm-2 3h1v1h-1zm1 6h1v1h-1zm0 1v1h-1v-1zm-1 1v1h-1v-1z"/><path fill="#a8a8a8" fill-rule="evenodd" d="M59 1h1v1h-1zm21 38h1v1h-1zm0 1v1h-1v-1zm-1 1v1h-1v-1zm-43 0h1v1h-1zm42 1v1h-1v-1zm-1 1v1h-1v-1zm5-1h1v1h-1zm-49 4h1v1h-1zm39 2h1v1h-1zm0 1v1h-1v-1zm-41 0h1v1h-1zm40 1v1h-1v-1zm-1 1v1h-1v-1zm-41 1h1v1h-1zm-2 3h1v1h-1zm38 1h1v1h-1zm0 1v1h-1v-1zm-40 1h1v1h-1zm0 1v1h-1v-1zm-2 2h1v1h-1zm0 1v1h-1v-1zm-2 2h1v1h-1zm0 1v1h-1v-1zm10 30h1v1h-1z"/><path fill="#aaa" fill-rule="evenodd" d="M60 1h1v1h-1zm2 1h1v1h-1zm-16 23h1v2h-1zm0 2v1h-1v-1zm-1 1v1h-1v-1zm36 11h1v1h-1zm0 1v1h-1v-1zm-45 0h1v1h-1zm44 1v1h-1v-1zm-1 1v1h-1v-1zm-44 0h1v1h-1zm0 1v1h-1v-1zm-2 2h1v1h-1zm0 1v1h-1v-1zm41 1h1v1h-1zm0 1v1h-1v-1zm-43 0h1v1h-1zm0 1v1h-1v-1zm42 0v1h-1v-1zm-1 1v1h-1v-1zm-44 2h1v1h-1zm-2 3h1v1h-1zm41 0h1v1h-1zm0 1v1h-1v-1zm-1 1v1h-1v-1zm-1 1v1h-1v-1zm-41 0h1v1h-1zm-2 3h1v1h-1zm0 1v1h-1v-1zm-2 2h1v1h-1zm0 1v1h-1v-1z"/><path fill="#121212" fill-rule="evenodd" d="M35 2h1v1h-1zm-3 3h1v1h-1zm0 1v1h-1v-1zm-1 1v1h-1v-1zm-1 1v1h-1v-1zm-5 5h1v1h-1zm0 1v1h-1v-1zm-1 1v1h-1v-1zm-1 1v1h-1v-1zm-1 1v1h-1v-1zm-5 5h1v1h-1zm0 1v1h-1v-1zm-1 1v1h-1v-1zm-1 1v1h-1v-1zm-5 5h1v1h-1zm0 1v1h-1v-1zm-1 1v1h-1v-1zm-1 1v1h-1v-1zm-5 5h1v1h-1zm0 1v1h-1v-1zm-1 1v1h-1v-1zm97 11h1v1h-1zm-1 2h1v1h-1zm-2 3h1v1h-1zm-2 3h1v1h-1zm-2 3h1v1h-1zm0 1v1h-1v-1zm-2 2h1v1h-1zm0 1v1h-1v-1zm-2 2h1v1h-1zm0 1v1h-1v-1zm-3 3h1v1h-1zm-2 3h1v1h-1zm-2 3h1v1h-1zm-2 3h1v1h-1zm-2 3h1v1h-1zm0 1v1h-1v-1zm-2 2h1v1h-1zm0 1v1h-1v-1zm-2 2h1v1h-1zm0 1v1h-1v-1zm-3 3h1v1h-1zm0 1v1h-1v-1z"/><path fill="#141414" fill-rule="evenodd" d="M36 2h1v1h-1zm-3 3h1v1h-1zm0 1v1h-1v-1zm-1 1v1h-1v-1zm-1 1v1h-1v-1zm-5 5h1v1h-1zm0 1v1h-1v-1zm-1 1v1h-1v-1zm-1 1v1h-1v-1zm-5 5h1v1h-1zm0 1v1h-1v-1zm-1 1v1h-1v-1zm-1 1v1h-1v-1zm-5 5h1v1h-1zm0 1v1h-1v-1zm-1 1v1h-1v-1zm-1 1v1h-1v-1zm-1 1v1h-1v-1zm-5 5h1v1h-1zm0 1v1h-1v-1zm-1 1v1h-1v-1zm-1 1v1h-1v-1zm96 11h1v1h-1zm0 1v1h-1v-1zm-3 3h1v1h-1zm-2 3h1v1h-1zm-2 3h1v1h-1zm-2 3h1v1h-1zm-2 3h1v1h-1zm0 1v1h-1v-1zm-2 2h1v1h-1zm0 1v1h-1v-1zm-2 2h1v1h-1zm0 1v1h-1v-1zm-3 3h1v1h-1zm-2 3h1v1h-1zm-2 3h1v1h-1zm-2 3h1v1h-1zm0 1v1h-1v-1zm-2 2h1v1h-1zm0 1v1h-1v-1zm-2 2h1v1h-1zm0 1v1h-1v-1z"/><path fill="#171717" fill-rule="evenodd" d="M37 2h1v1h-1zm0 1v1h-1v-1zm-5 5h1v1h-1zm0 1v1h-1v-1zm-1 1v1h-1v-1zm-1 1v1h-1v-1zm-1 1v1h-1v-1zm-5 5h1v1h-1zm0 1v1h-1v-1zm-1 1v1h-1v-1zm-1 1v1h-1v-1zm-5 5h1v1h-1zm0 1v1h-1v-1zm-1 1v1h-1v-1zm-1 1v1h-1v-1zm-5 5h1v1h-1zm0 1v1h-1v-1zm-1 1v1h-1v-1zm-1 1v1h-1v-1zm-5 5h1v1h-1zm0 1v1h-1v-1zm-1 1v1h-1v-1zm-1 1v2h-1v-2zm96 7h1v1h-1zm-2 3h1v1h-1zm-2 3h1v1h-1zm-2 3h1v1h-1zm-2 3h1v1h-1zm0 1v1h-1v-1zm-2 2h1v1h-1zm0 1v1h-1v-1zm-2 2h1v1h-1zm0 1v1h-1v-1zm-3 3h1v1h-1zm-2 3h1v1h-1zm-2 3h1v1h-1zm-2 3h1v1h-1zm0 1v1h-1v-1zm-2 2h1v1h-1zm0 1v1h-1v-1zm-2 2h1v1h-1zm0 1v1h-1v-1zm-3 3h1v1h-1zm-2 3h1v1h-1zm0 1v1h-1v-1z"/><path fill="#1b1b1b" fill-rule="evenodd" d="M39 2h1v1h-1zm0 1v1h-1v-1zm-5 5h1v1h-1zm0 1v1h-1v-1zm-1 1v1h-1v-1zm-1 1v1h-1v-1zm-5 5h1v1h-1zm0 1v1h-1v-1zm-1 1v1h-1v-1zm-1 1v1h-1v-1zm-5 5h1v1h-1zm0 1v1h-1v-1zm-1 1v1h-1v-1zm-1 1v1h-1v-1zm-5 5h1v1h-1zm0 1v1h-1v-1zm-1 1v1h-1v-1zm-1 1v1h-1v-1zm-1 1v1h-1v-1zm-5 5h1v1h-1zm0 1v1h-1v-1zm-1 1v1h-1v-1zm-1 1v1h-1v-1zm96 1h1v1h-1zm-99 2h1v1h-1zm98 0h1v1h-1zm-2 3h1v1h-1zm0 1v1h-1v-1zm-2 2h1v1h-1zm0 1v1h-1v-1zm-2 2h1v1h-1zm0 1v1h-1v-1zm-3 3h1v1h-1zm-2 3h1v1h-1zm-2 3h1v1h-1zm-2 3h1v1h-1zm-2 3h1v1h-1zm0 1v1h-1v-1zm-2 2h1v1h-1zm0 1v1h-1v-1zm-2 2h1v1h-1zm0 1v1h-1v-1zm-3 3h1v1h-1zm-2 3h1v1h-1zm-2 3h1v1h-1zm-2 3h1v1h-1zm0 1v1h-1v-1zm-2 2h1v1h-1zm0 1v1h-1v-1z"/><path fill="#262626" fill-rule="evenodd" d="M45 2h1v1h-1zm0 1v1h-1v-1zm-1 1v1h-1v-1zm-1 1v1h-1v-1zm-5 5h1v1h-1zm0 1v1h-1v-1zm-1 1v1h-1v-1zm-1 1v1h-1v-1zm-5 5h1v1h-1zm0 1v1h-1v-1zm-1 1v1h-1v-1zm-1 1v1h-1v-1zm-1 1v1h-1v-1zm-5 5h1v1h-1zm0 1v1h-1v-1zm-1 1v1h-1v-1zm-1 1v1h-1v-1zm-5 5h1v1h-1zm0 1v1h-1v-1zm-1 1v1h-1v-1zm-1 1v1h-1v-1zm84 1h1v1h-1zm-1 2h1v1h-1zm-88 2h1v1h-1zm0 1v1h-1v-1zm-1 1v1h-1v-1zm87-1h1v1h-1zm0 1v1h-1v-1zm-88 1v1h-1v-1zm86 1h1v1h-1zm0 1v1h-1v-1zm-2 2h1v1h-1zm0 1v1h-1v-1zm-89 0h1v1h-1zm0 1v1h-1v-1zm-1 1v1h-1v-1zm87 1h1v1h-1zm-2 3h1v1h-1zm-2 3h1v1h-1zm-2 3h1v1h-1zm0 1v1h-1v-1zm-2 2h1v1h-1zm0 1v1h-1v-1zm-2 2h1v1h-1zm0 1v1h-1v-1zm-2 2h1v1h-1zm0 1v1h-1v-1zm-3 3h1v1h-1zm-2 3h1v1h-1zm-2 3h1v1h-1zm-2 3h1v1h-1zm0 1v1h-1v-1zm-2 2h1v1h-1zm0 1v1h-1v-1zm-2 2h1v1h-1zm0 1v1h-1v-1zm-3 3h1v1h-1zm-2 3h1v1h-1z"/><path fill="#282828" fill-rule="evenodd" d="M46 2h1v1h-1zm0 1v1h-1v-1zm-1 1v1h-1v-1zm-1 1v1h-1v-1zm-5 5h1v1h-1zm0 1v1h-1v-1zm-1 1v1h-1v-1zm-1 1v1h-1v-1zm-5 5h1v1h-1zm0 1v1h-1v-1zm-1 1v1h-1v-1zm-1 1v1h-1v-1zm-5 5h1v1h-1zm0 1v1h-1v-1zm-1 1v1h-1v-1zm-1 1v1h-1v-1zm-1 1v1h-1v-1zm-5 5h1v1h-1zm0 1v1h-1v-1zm-1 1v1h-1v-1zm-1 1v1h-1v-1zm83 0h1v1h-1zm-2 3h1v1h-1zm-86 2h1v1h-1zm0 1v1h-1v-1zm-1 1v1h-1v-1zm85-1h1v1h-1zm-86 2v1h-1v-1zm84 1h1v1h-1zm0 1v1h-1v-1zm-2 2h1v1h-1zm0 1v1h-1v-1zm-87 0h1v1h-1zm0 1v1h-1v-1zm-1 1v1h-1v-1zm86 0h1v1h-1zm0 1v1h-1v-1zm-3 3h1v1h-1zm-2 3h1v1h-1zm-2 3h1v1h-1zm-2 3h1v1h-1zm-2 3h1v1h-1zm0 1v1h-1v-1zm-2 2h1v1h-1zm0 1v1h-1v-1zm-2 2h1v1h-1zm0 1v1h-1v-1zm-3 3h1v1h-1zm-2 3h1v1h-1zm-2 3h1v1h-1zm-2 3h1v1h-1zm0 1v1h-1v-1zm-2 2h1v1h-1zm0 1v1h-1v-1zm-2 2h1v1h-1zm0 1v1h-1v-1zm-3 3h1v1h-1z"/><path fill="#3a3a3a" fill-rule="evenodd" d="M55 2h1v1h-1zm-4 5h1v1h-1zm0 1v1h-1v-1zm-1 1v1h-1v-1zm-1 1v1h-1v-1zm-5 5h1v1h-1zm0 1v1h-1v-1zm-1 1v1h-1v-1zm-1 1v1h-1v-1zm-1 1v1h-1v-1zm-5 5h1v1h-1zm-5 3h1v1h-1zm64 3h1v1h-1zm-1 2h1v1h-1zm0 1v1h-1v-1zm-3 3h1v1h-1zm-2 3h1v1h-1zm-2 3h1v1h-1zm-2 3h1v1h-1zm0 1v1h-1v-1zm-70 2h1v1h-1zm0 1v1h-1v-1zm68-1h1v1h-1zm-69 2v1h-1v-1zm-1 1v1h-1v-1zm-5 5h1v1h-1zm0 1v1h-1v-1zm-1 1v1h-1v-1zm-1 1v1h-1v-1zm-1 1v1h-1v-1zm60 14h1v1h-1zm-2 3h1v1h-1zm-2 3h1v1h-1zm-2 3h1v1h-1zm-2 3h1v1h-1zm0 1v1h-1v-1zm-2 2h1v1h-1zm0 1v1h-1v-1zm-2 2h1v1h-1zm0 1v1h-1v-1zm-3 3h1v1h-1z"/><path fill="#3c3c3c" fill-rule="evenodd" d="M56 2h1v1h-1zm-4 5h1v1h-1zm0 1v1h-1v-1zm-1 1v1h-1v-1zm-1 1v1h-1v-1zm-5 5h1v1h-1zm0 1v1h-1v-1zm-1 1v1h-1v-1zm-1 1v1h-1v-1zm-5 5h1v1h-1zm0 1v1h-1v-1zm56 6h1v1h-1zm-1 2h1v1h-1zm0 1v1h-1v-1zm-2 2h1v1h-1zm0 1v1h-1v-1zm-3 3h1v1h-1zm-2 3h1v1h-1zm-2 3h1v1h-1zm-68 3h1v1h-1zm0 1v1h-1v-1zm-1 1v1h-1v-1zm-1 1v1h-1v-1zm-5 5h1v1h-1zm0 1v1h-1v-1zm-1 1v1h-1v-1zm-1 1v1h-1v-1zm70 4h1v1h-1zm-14 13h1v1h-1zm0 1v1h-1v-1zm-3 3h1v1h-1zm-2 3h1v1h-1zm-2 3h1v1h-1zm-2 3h1v1h-1zm-2 3h1v1h-1zm0 1v1h-1v-1zm-2 2h1v1h-1zm0 1v1h-1v-1zm-2 2h1v1h-1z"/><path fill="#3f3f3f" fill-rule="evenodd" d="M58 2h1v1h-1zm0 1v1h-1v-1zm-1 1v1h-1v-1zm-1 1v1h-1v-1zm-5 5h1v1h-1zm0 1v1h-1v-1zm-1 1v1h-1v-1zm-1 1v1h-1v-1zm-1 1v1h-1v-1zm-5 5h1v1h-1zm0 1v1h-1v-1zm-1 1v1h-1v-1zm-1 1v1h-1v-1zm-8 4h1v1h-1zm61 2h1v1h-1zm-1 2h1v1h-1zm0 1v1h-1v-1zm-2 2h1v1h-1zm0 1v1h-1v-1zm-3 3h1v1h-1zm-2 3h1v1h-1zm-2 3h1v1h-1zm-70 9h1v1h-1zm0 1v1h-1v-1zm-1 1v1h-1v-1zm-1 1v1h-1v-1zm-5 5h1v1h-1zm0 1v1h-1v-1zm-1 1v1h-1v-1zm-1 1v1h-1v-1zm57 12h1v1h-1zm-2 3h1v1h-1zm-2 3h1v1h-1zm-2 3h1v1h-1zm-2 3h1v1h-1zm0 1v1h-1v-1zm-2 2h1v1h-1zm0 1v1h-1v-1zm-2 2h1v1h-1zm0 1v1h-1v-1zm-3 3h1v1h-1z"/><path fill="#454545" fill-rule="evenodd" d="M59 2h1v1h-1zm1 1h1v1h-1zm0 1v1h-1v-1zm-1 1v1h-1v-1zm-5 5h1v1h-1zm0 1v1h-1v-1zm-1 1v1h-1v-1zm-1 1v1h-1v-1zm-5 5h1v1h-1zm0 1v1h-1v-1zm-1 1v1h-1v-1zm-1 1v1h-1v-1zm48 5h1v1h-1zm0 1v1h-1v-1zm-3 3h1v1h-1zm-2 3h1v1h-1zm-2 3h1v1h-1zm-2 3h1v1h-1zm0 1v1h-1v-1zm-65 2h1v1h-1zm-3 11h1v1h-1zm0 1v1h-1v-1zm-5 5h1v1h-1zm0 1v1h-1v-1zm-1 1v1h-1v-1zm-1 1v1h-1v-1zm-5 5h1v1h-1zm54 10h1v1h-1zm-2 3h1v1h-1zm0 1v1h-1v-1zm-2 2h1v1h-1zm0 1v1h-1v-1zm-2 2h1v1h-1zm0 1v1h-1v-1zm-3 3h1v1h-1zm-2 3h1v1h-1zm-2 3h1v1h-1z"/><path fill="#6d6d6d" fill-rule="evenodd" d="M60 2h1v1h-1zm10 7h1v1h-1zm2 4h1v1h-1zm0 1v1h-1v-1zm-1 1v1h-1v-1zm10 1h1v1h-1zm-2 3h1v1h-1zm-13 1h1v1h-1zm0 1v1h-1v-1zm-1 1v1h-1v-1zm-1 1v1h-1v-1zm-5 5h1v1h-1zm0 1v1h-1v-1zm-1 1v1h-1v-1zm-16 43h1v1h-1zm-2 3h1v1h-1zm-24 1h1v1h-1zm0 1v1h-1v-1zm-1 1v1h-1v-1zm-1 1v1h-1v-1zm24-1h1v1h-1zm-2 3h1v1h-1zm-2 3h1v1h-1zm0 1v1h-1v-1zm-2 2h1v1h-1zm0 1v1h-1v-1z"/><path fill="#a1a1a1" fill-rule="evenodd" d="M61 2h1v1h-1zm18 34h1v1h-1zm0 1v1h-1v-1zm-1 1v1h-1v-1zm-1 1v1h-1v-1zm-1 1v1h-1v-1zm6 0h1v1h-1zm-10 4h1v1h-1zm0 1v1h-1v-1zm-1 1v1h-1v-1zm11-1h1v1h-1zm-12 2v1h-1v-1zm-1 1v1h-1v-1zm-36 3h1v1h-1zm-2 3h1v1h-1zm0 1v1h-1v-1zm-2 2h1v1h-1zm0 1v1h-1v-1zm-2 2h1v1h-1zm0 1v1h-1v-1zm-3 3h1v1h-1zm-2 3h1v1h-1zm-2 3h1v1h-1zm10 22h1v1h-1z"/><path fill="#a7a7a7" fill-rule="evenodd" d="M63 2h1v1h-1zm-16 24h1v1h-1zm0 1v1h-1v-1zm34 10h1v1h-1zm0 1v1h-1v-1zm-1 1v1h-1v-1zm-45 4h1v2h-1zm0 2v1h-1v-1zm40-1h1v1h-1zm0 1v1h-1v-1zm-1 1v1h-1v-1zm-1 1v1h-1v-1zm-40 0h1v1h-1zm0 1v1h-1v-1zm-2 2h1v1h-1zm0 1v1h-1v-1zm37 1h1v1h-1zm0 1v1h-1v-1zm13-1h1v1h-1zm-52 1h1v1h-1zm0 1v1h-1v-1zm38 0v1h-1v-1zm-1 1v1h-1v-1zm-40 2h1v1h-1zm37 1h1v1h-1zm16 0h1v1h-1zm-55 2h1v1h-1zm54 0h1v1h-1zm-56 3h1v1h-1zm-2 3h1v1h-1zm0 1v1h-1v-1zm53 0h1v1h-1zm-22 7h1v1h-1zm-20 20h1v1h-1z"/><path fill="#a5a5a5" fill-rule="evenodd" d="M64 2h1v2h-1zm-36 28h1v1h-1zm53 6h1v1h-1zm0 1v1h-1v-1zm-1 1v1h-1v-1zm-1 1v1h-1v-1zm3 2h1v1h-1zm-8 3h1v1h-1zm0 1v1h-1v-1zm-1 1v1h-1v-1zm-1 1v1h-1v-1zm-38 0h1v1h-1zm0 1v1h-1v-1zm-3 3h1v1h-1zm36 1h1v1h-1zm0 1v1h-1v-1zm-1 1v1h-1v-1zm-37 0h1v1h-1zm-2 3h1v1h-1zm-2 3h1v1h-1zm-2 3h1v1h-1zm0 1v1h-1v-1zm-2 2h1v1h-1zm0 1v1h-1v-1zm-2 2h1v1h-1zm12 24h1v1h-1zm0 1v1h-1v-1z"/><path fill="#0e0e0e" fill-rule="evenodd" d="M32 3h1v1h-1zm-3 3h1v1h-1zm0 1v1h-1v-1zm-1 1v1h-1v-1zm-1 1v1h-1v-1zm-5 5h1v1h-1zm0 1v1h-1v-1zm-1 1v1h-1v-1zm-1 1v1h-1v-1zm-5 5h1v1h-1zm0 1v1h-1v-1zm-1 1v1h-1v-1zm-1 1v1h-1v-1zm-5 5h1v1h-1zm0 1v1h-1v-1zm-1 1v1h-1v-1zm-1 1v1h-1v-1zm-1 1v1h-1v-1zm-4 4h1v1h-1zm98 16h1v1h-1zm-1 2h1v1h-1zm0 1v1h-1v-1zm-2 2h1v1h-1zm0 1v1h-1v-1zm-3 3h1v1h-1zm-2 3h1v1h-1zm-2 3h1v1h-1zm-2 3h1v1h-1zm-2 3h1v1h-1zm0 1v1h-1v-1zm-2 2h1v1h-1zm0 1v1h-1v-1zm-2 2h1v1h-1zm0 1v1h-1v-1zm-3 3h1v1h-1zm-2 3h1v1h-1zm-2 3h1v1h-1z"/><path fill="#101010" fill-rule="evenodd" d="M33 3h1v1h-1zm-2 2h1v1h-1zm0 1v1h-1v-1zm-1 1v1h-1v-1zm-1 1v1h-1v-1zm-1 1v1h-1v-1zm-5 5h1v1h-1zm0 1v1h-1v-1zm-1 1v1h-1v-1zm-1 1v1h-1v-1zm-5 5h1v1h-1zm0 1v1h-1v-1zm-1 1v1h-1v-1zm-1 1v1h-1v-1zm-5 5h1v1h-1zm0 1v1h-1v-1zm-1 1v1h-1v-1zm-1 1v1h-1v-1zm-5 5h1v1h-1zm0 1v1h-1v-1zm97 14h1v1h-1zm-2 3h1v1h-1zm-2 3h1v1h-1zm0 1v1h-1v-1zm-2 2h1v1h-1zm0 1v1h-1v-1zm-2 2h1v1h-1zm0 1v1h-1v-1zm-3 3h1v1h-1zm-2 3h1v1h-1zm-2 3h1v1h-1zm-2 3h1v1h-1zm0 1v1h-1v-1zm-2 2h1v1h-1zm0 1v1h-1v-1zm-2 2h1v1h-1zm0 1v1h-1v-1zm-3 3h1v1h-1zm-2 3h1v1h-1z"/><path fill="#131313" fill-rule="evenodd" d="M34 3h1v1h-1zm0 1v1h-1v-1zm-5 5h1v1h-1zm0 1v1h-1v-1zm-1 1v1h-1v-1zm-1 1v1h-1v-1zm-5 5h1v1h-1zm0 1v1h-1v-1zm-1 1v1h-1v-1zm-1 1v1h-1v-1zm-1 1v1h-1v-1zm-4 4h1v1h-1zm0 1v1h-1v-1zm-1 1v1h-1v-1zm-1 1v1h-1v-1zm-1 1v1h-1v-1zm-5 5h1v1h-1zm0 1v1h-1v-1zm-1 1v1h-1v-1zm-1 1v1h-1v-1zm94 13h1v1h-1zm-2 4h1v1h-1zm0 1v1h-1v-1zm-2 2h1v1h-1zm0 1v1h-1v-1zm-2 2h1v1h-1zm0 1v1h-1v-1zm-3 3h1v1h-1zm-2 3h1v1h-1zm-2 3h1v1h-1zm-2 3h1v1h-1zm-2 3h1v1h-1zm0 1v1h-1v-1zm-2 2h1v1h-1zm0 1v1h-1v-1zm-2 2h1v1h-1zm0 1v1h-1v-1zm-3 3h1v1h-1zm-2 3h1v1h-1zm-2 3h1v1h-1z"/><path fill="#151515" fill-rule="evenodd" d="M35 3h1v1h-1zm0 1v1h-1v-1zm-5 5h1v1h-1zm0 1v1h-1v-1zm-1 1v1h-1v-1zm-1 1v1h-1v-1zm-5 5h1v1h-1zm0 1v1h-1v-1zm-1 1v1h-1v-1zm-1 1v1h-1v-1zm-5 5h1v1h-1zm0 1v1h-1v-1zm-1 1v1h-1v-1zm-1 1v1h-1v-1zm-5 5h1v1h-1zm0 1v1h-1v-1zm-1 1v1h-1v-1zm-1 1v1h-1v-1zm-1 1v1h-1v-1zm-5 5h1v1h-1zm0 1v1h-1v-1zm97 8h1v1h-1zm-2 3h1v1h-1zm-2 3h1v1h-1zm-2 3h1v1h-1zm0 1v1h-1v-1zm-2 2h1v1h-1zm0 1v1h-1v-1zm-2 2h1v1h-1zm0 1v1h-1v-1zm-3 3h1v1h-1zm-2 3h1v1h-1zm-2 3h1v1h-1zm-2 3h1v1h-1zm0 1v1h-1v-1zm-2 2h1v1h-1zm0 1v1h-1v-1zm-2 2h1v1h-1zm0 1v1h-1v-1zm-3 3h1v1h-1zm-2 3h1v1h-1zm-2 3h1v1h-1z"/><path fill="#1e1e1e" fill-rule="evenodd" d="M40 3h1v1h-1zm0 1v1h-1v-1zm-1 1v1h-1v-1zm-1 1v1h-1v-1zm-5 5h1v1h-1zm0 1v1h-1v-1zm-1 1v1h-1v-1zm-1 1v1h-1v-1zm-1 1v1h-1v-1zm-5 5h1v1h-1zm0 1v1h-1v-1zm-1 1v1h-1v-1zm-1 1v1h-1v-1zm-5 5h1v1h-1zm0 1v1h-1v-1zm-1 1v1h-1v-1zm-1 1v1h-1v-1zm-5 5h1v1h-1zm0 1v1h-1v-1zm-1 1v1h-1v-1zm-1 1v1h-1v-1zm90 4h1v1h-1zm-95 1h1v1h-1zm0 1v1h-1v-1zm-1 1v1h-1v-1zm95-1h1v1h-1zm-96 2v1h-1v-1zm-1 1v2h-1v-2zm95 0h1v1h-1zm0 1v1h-1v-1zm-2 2h1v1h-1zm0 1v1h-1v-1zm-2 2h1v1h-1zm0 1v1h-1v-1zm-3 3h1v1h-1zm-2 3h1v1h-1zm-2 3h1v1h-1zm-2 3h1v1h-1zm0 1v1h-1v-1zm-2 2h1v1h-1zm0 1v1h-1v-1zm-2 2h1v1h-1zm0 1v1h-1v-1zm-3 3h1v1h-1zm-2 3h1v1h-1zm-2 3h1v1h-1zm-2 3h1v1h-1zm-2 3h1v1h-1zm0 1v1h-1v-1zm-2 2h1v1h-1zm0 1v1h-1v-1zm-2 2h1v1h-1zm0 1v1h-1v-1z"/><path fill="#202020" fill-rule="evenodd" d="M41 3h1v1h-1zm0 1v1h-1v-1zm-1 1v1h-1v-1zm-1 1v1h-1v-1zm-5 5h1v1h-1zm0 1v1h-1v-1zm-1 1v1h-1v-1zm-1 1v1h-1v-1zm-5 5h1v1h-1zm0 1v1h-1v-1zm-1 1v1h-1v-1zm-1 1v1h-1v-1zm-1 1v1h-1v-1zm-5 5h1v1h-1zm0 1v1h-1v-1zm-1 1v1h-1v-1zm-1 1v1h-1v-1zm-5 5h1v1h-1zm0 1v1h-1v-1zm-1 1v1h-1v-1zm-1 1v1h-1v-1zm-5 5h1v1h-1zm0 1v1h-1v-1zm-1 1v1h-1v-1zm93-1h1v1h-1zm-94 2v1h-1v-1zm92 1h1v1h-1zm-2 3h1v1h-1zm0 1v1h-1v-1zm-2 2h1v1h-1zm0 1v1h-1v-1zm-2 2h1v1h-1zm0 1v1h-1v-1zm-3 3h1v1h-1zm-2 3h1v1h-1zm-2 3h1v1h-1zm-2 3h1v1h-1zm-2 3h1v1h-1zm0 1v1h-1v-1zm-2 2h1v1h-1zm0 1v1h-1v-1zm-2 2h1v1h-1zm0 1v1h-1v-1zm-3 3h1v1h-1zm-2 3h1v1h-1zm-2 3h1v1h-1zm-2 3h1v1h-1zm0 1v1h-1v-1zm-2 2h1v1h-1zm0 1v1h-1v-1z"/><path fill="#393939" fill-rule="evenodd" d="M54 3h1v1h-1zm0 1v1h-1v-1zm-1 1v1h-1v-1zm-1 1v1h-1v-1zm-5 5h1v1h-1zm0 1v1h-1v-1zm-1 1v1h-1v-1zm-1 1v1h-1v-1zm-1 1v1h-1v-1zm-5 5h1v1h-1zm0 1v1h-1v-1zm-1 1v1h-1v-1zm-1 1v1h-1v-1zm58 8h1v1h-1zm-2 3h1v1h-1zm0 1v1h-1v-1zm-2 2h1v1h-1zm0 1v1h-1v-1zm-2 2h1v1h-1zm0 1v1h-1v-1zm-71 3h1v1h-1zm0 1v1h-1v-1zm68-1h1v1h-1zm-69 2v1h-1v-1zm-1 1v1h-1v-1zm68 0h1v1h-1zm-73 5h1v1h-1zm0 1v1h-1v-1zm-1 1v1h-1v-1zm-1 1v1h-1v-1zm-1 1v1h-1v-1zm-5 5h1v1h-1zm0 1v1h-1v-1zm70 6h1v1h-1zm-8 7h1v1h-1zm0 1v1h-1v-1zm-2 2h1v1h-1zm0 1v1h-1v-1zm-2 2h1v1h-1zm0 1v1h-1v-1zm-3 3h1v1h-1zm-2 3h1v1h-1zm-2 3h1v1h-1zm-2 3h1v1h-1zm0 1v1h-1v-1zm-2 2h1v1h-1zm0 1v1h-1v-1z"/><path fill="#3d3d3d" fill-rule="evenodd" d="M56 3h1v1h-1zm0 1v1h-1v-1zm-1 1v1h-1v-1zm-1 1v1h-1v-1zm-5 5h1v1h-1zm0 1v1h-1v-1zm-1 1v1h-1v-1zm-1 1v1h-1v-1zm-5 5h1v1h-1zm0 1v1h-1v-1zm-1 1v1h-1v-1zm-1 1v1h-1v-1zm53 9h1v1h-1zm-2 3h1v1h-1zm-2 3h1v1h-1zm-2 3h1v1h-1zm-2 3h1v1h-1zm0 1v1h-1v-1zm-2 2h1v1h-1zm-66 1h1v1h-1zm-4 5h1v1h-1zm0 1v1h-1v-1zm-1 1v1h-1v-1zm-1 1v1h-1v-1zm-5 5h1v1h-1zm0 1v1h-1v-1zm-1 1v1h-1v-1zm-1 1v1h-1v-1zm64 9h1v1h-1zm-5 3h1v1h-1zm-2 3h1v1h-1zm-2 3h1v1h-1zm-2 3h1v1h-1zm0 1v1h-1v-1zm-2 2h1v1h-1zm0 1v1h-1v-1zm-2 2h1v1h-1zm0 1v1h-1v-1zm-3 3h1v1h-1zm-2 3h1v1h-1z"/><path fill="#414141" fill-rule="evenodd" d="M58 3h1v1h-1zm0 1v1h-1v-1zm-1 1v1h-1v-1zm-5 5h1v1h-1zm0 1v1h-1v-1zm-1 1v1h-1v-1zm-1 1v1h-1v-1zm-5 5h1v1h-1zm0 1v1h-1v-1zm-1 1v1h-1v-1zm-1 1v1h-1v-1zm-1 1v1h-1v-1zm50 8h1v1h-1zm0 1v1h-1v-1zm-67 1h1v1h-1zm65 1h1v1h-1zm0 1v1h-1v-1zm-2 2h1v1h-1zm0 1v1h-1v-1zm-3 3h1v1h-1zm-2 3h1v1h-1zm-66 6h1v1h-1zm-1 2h1v1h-1zm0 1v1h-1v-1zm66-1h1v1h-1zm-67 2v1h-1v-1zm-1 1v1h-1v-1zm-5 5h1v1h-1zm0 1v1h-1v-1zm-1 1v1h-1v-1zm-1 1v1h-1v-1zm-1 1v1h-1v-1zm54 14h1v1h-1zm0 1v1h-1v-1zm-3 3h1v1h-1zm-2 3h1v1h-1zm-2 3h1v1h-1zm-2 3h1v1h-1zm-2 3h1v1h-1zm0 1v1h-1v-1zm-2 2h1v1h-1zm0 1v1h-1v-1z"/><path fill="#434343" fill-rule="evenodd" d="M59 3h1v1h-1zm0 1v1h-1v-1zm-1 1v1h-1v-1zm-5 5h1v1h-1zm0 1v1h-1v-1zm-1 1v1h-1v-1zm-1 1v1h-1v-1zm-5 5h1v1h-1zm0 1v1h-1v-1zm-1 1v1h-1v-1zm-1 1v1h-1v-1zm49 6h1v1h-1zm-2 3h1v1h-1zm-2 3h1v1h-1zm-2 3h1v1h-1zm0 1v1h-1v-1zm-2 2h1v1h-1zm0 1v1h-1v-1zm-2 2h1v1h-1zm-67 10h1v1h-1zm0 1v1h-1v-1zm-1 1v1h-1v-1zm-5 5h1v1h-1zm0 1v1h-1v-1zm-1 1v1h-1v-1zm-1 1v1h-1v-1zm56 12h1v1h-1zm-5 3h1v1h-1zm0 1v1h-1v-1zm-2 2h1v1h-1zm0 1v1h-1v-1zm-2 2h1v1h-1zm0 1v1h-1v-1zm-3 3h1v1h-1zm-2 3h1v1h-1zm-2 3h1v1h-1zm-2 3h1v1h-1zm0 1v1h-1v-1z"/><path fill="#484848" fill-rule="evenodd" d="M61 3h1v1h-1zm-1 2h1v1h-1zm0 1v1h-1v-1zm-1 1v1h-1v-1zm-1 1v1h-1v-1zm-5 5h1v1h-1zm0 1v1h-1v-1zm-1 1v1h-1v-1zm-1 1v1h-1v-1zm-5 5h1v1h-1zm0 1v1h-1v-1zm-1 1v1h-1v-1zm-5 1h1v1h-1zm52 1h1v1h-1zm-2 3h1v1h-1zm-2 3h1v1h-1zm-2 3h1v1h-1zm0 1v1h-1v-1zm-2 2h1v1h-1zm0 1v1h-1v-1zm-68 17h1v1h-1zm0 1v1h-1v-1zm-1 1v1h-1v-1zm-5 5h1v1h-1zm0 1v1h-1v-1zm-1 1v1h-1v-1zm-1 1v1h-1v-1zm-1 1v1h-1v-1zm50 10h1v1h-1zm-1 2h1v1h-1zm0 1v1h-1v-1zm-2 2h1v1h-1zm0 1v1h-1v-1zm-2 2h1v1h-1zm0 1v1h-1v-1zm-3 3h1v1h-1zm-2 3h1v1h-1zm-2 3h1v1h-1zm-2 3h1v1h-1z"/><path fill="#6c6c6c" fill-rule="evenodd" d="M62 3h1v1h-1zm21 10h1v2h-1zm0 2v1h-1v-1zm-14 1h1v1h-1zm0 1v1h-1v-1zm-1 1v1h-1v-1zm13-1h1v1h-1zm0 1v1h-1v-1zm-14 1v1h-1v-1zm-5 5h1v1h-1zm0 1v1h-1v-1zm-1 1v1h-1v-1zm-1 1v1h-1v-1zm-42 19h1v1h-1zm0 25h1v1h-1zm25 1h1v1h-1zm-25 2h1v1h-1zm0 1v1h-1v-1zm24-1h1v1h-1zm0 1v1h-1v-1zm-25 1v1h-1v-1zm-1 1v1h-1v-1zm24 0h1v1h-1zm0 1v1h-1v-1zm-28 3h1v1h-1zm25 0h1v1h-1zm-2 3h1v1h-1zm-2 3h1v1h-1zm-2 3h1v1h-1z"/><path fill="#9b9b9b" fill-rule="evenodd" d="M63 3h1v1h-1zm5 1h1v1h-1zm0 1v1h-1v-1zm12 26h1v1h-1zm0 1v1h-1v-1zm-5 5h1v1h-1zm0 1v1h-1v-1zm-1 1v1h-1v-1zm-1 1v1h-1v-1zm9-1h1v1h-1zm-14 6h1v1h-1zm0 1v1h-1v-1zm-1 1v1h-1v-1zm-1 1v1h-1v-1zm-33 7h1v1h-1zm-2 3h1v1h-1zm-2 3h1v1h-1zm0 1v1h-1v-1zm-2 2h1v1h-1zm0 1v1h-1v-1zm-2 2h1v1h-1zm0 1v1h-1v-1zm46 1h1v1h-1zm-49 2h1v1h-1zm-2 3h1v1h-1zm6 19h1v1h-1z"/><path fill="#a3a3a3" fill-rule="evenodd" d="M65 3h1v1h-1zm-18 22h1v1h-1zm33 11h1v1h-1zm0 1v1h-1v-1zm-1 1v1h-1v-1zm-1 1v1h-1v-1zm-5 5h1v1h-1zm0 1v1h-1v-1zm-1 1v1h-1v-1zm-1 1v1h-1v-1zm-37 1h1v1h-1zm-2 3h1v1h-1zm34 1h1v1h-1zm0 1v1h-1v-1zm-36 1h1v1h-1zm-2 3h1v1h-1zm0 1v1h-1v-1zm-2 2h1v1h-1zm0 1v1h-1v-1zm-2 2h1v1h-1zm0 1v1h-1v-1zm-3 3h1v1h-1zm-2 3h1v1h-1zm11 23h1v1h-1zm0 1v1h-1v-1z"/><path fill="#9f9f9f" fill-rule="evenodd" d="M66 3h1v2h-2v-1h1zm15 29h1v1h-1zm-4 5h1v1h-1zm0 1v1h-1v-1zm-1 1v1h-1v-1zm-1 1v1h-1v-1zm-55 1h1v1h-1zm50 4h1v1h-1zm0 1v1h-1v-1zm-1 1v1h-1v-1zm-1 1v1h-1v-1zm-34 3h1v1h-1zm0 1v1h-1v-1zm30 0h1v1h-1zm-32 2h1v1h-1zm0 1v1h-1v-1zm-3 3h1v1h-1zm-2 3h1v1h-1zm-2 3h1v1h-1zm-2 3h1v1h-1zm-2 3h1v1h-1zm0 1v1h-1v-1zm41 3h1v1h-1z"/><path fill="#9d9d9d" fill-rule="evenodd" d="M67 3h1v2h-1zm13 29h1v1h-1zm-4 5h1v1h-1zm0 1v1h-1v-1zm-1 1v1h-1v-1zm-1 1v1h-1v-1zm-5 5h1v1h-1zm0 1v1h-1v-1zm-1 1v1h-1v-1zm-1 1v1h-1v-1zm-33 4h1v1h-1zm-2 3h1v1h-1zm-2 3h1v1h-1zm-2 3h1v1h-1zm-2 3h1v1h-1zm0 1v1h-1v-1zm-2 2h1v1h-1zm0 1v1h-1v-1zm-2 2h1v1h-1zm0 1v1h-1v-1z"/><path fill="#0d0d0d" fill-rule="evenodd" d="M30 4h1v1h-1zm0 1v1h-1v-1zm-5 5h1v1h-1zm0 1v1h-1v-1zm-1 1v1h-1v-1zm-1 1v1h-1v-1zm-5 5h1v1h-1zm0 1v1h-1v-1zm-1 1v1h-1v-1zm-1 1v1h-1v-1zm-5 5h1v1h-1zm0 1v1h-1v-1zm-1 1v1h-1v-1zm-1 1v1h-1v-1zm-1 1v1h-1v-1zm-5 5h1v1h-1zm0 1v1h-1v-1zm96 19h1v1h-1zm-2 3h1v1h-1zm-2 3h1v1h-1zm0 1v1h-1v-1zm-2 2h1v1h-1zm0 1v1h-1v-1zm-2 2h1v1h-1zm0 1v1h-1v-1zm-3 3h1v1h-1zm-2 3h1v1h-1zm-2 3h1v1h-1zm-2 3h1v1h-1zm-2 3h1v1h-1zm0 1v1h-1v-1zm-2 2h1v1h-1zm0 1v1h-1v-1zm-2 2h1v1h-1zm0 1v1h-1v-1z"/><path fill="#0f0f0f" fill-rule="evenodd" d="M31 4h1v1h-1zm0 1v1h-1v-1zm-5 5h1v1h-1zm0 1v1h-1v-1zm-1 1v1h-1v-1zm-1 1v1h-1v-1zm-5 5h1v1h-1zm0 1v1h-1v-1zm-1 1v1h-1v-1zm-1 1v1h-1v-1zm-5 5h1v1h-1zm0 1v1h-1v-1zm-1 1v1h-1v-1zm-1 1v1h-1v-1zm-5 5h1v1h-1zm0 1v1h-1v-1zm-1 1v1h-1v-1zm-1 1v1h-1v-1zm95 18h1v1h-1zm-2 3h1v1h-1zm-2 3h1v1h-1zm-2 3h1v1h-1zm-2 3h1v1h-1zm0 1v1h-1v-1zm-2 2h1v1h-1zm0 1v1h-1v-1zm-2 2h1v1h-1zm0 1v1h-1v-1zm-3 3h1v1h-1zm-2 3h1v1h-1zm-2 3h1v1h-1zm-2 3h1v1h-1zm0 1v1h-1v-1zm-2 2h1v1h-1zm0 1v1h-1v-1zm-2 2h1v1h-1zm0 1v1h-1v-1zm-1 1v1h-1v-1z"/><path fill="#111" fill-rule="evenodd" d="M32 4h1v1h-1zm-4 5h1v1h-1zm0 1v1h-1v-1zm-1 1v1h-1v-1zm-1 1v1h-1v-1zm-1 1v1h-1v-1zm-5 5h1v1h-1zm0 1v1h-1v-1zm-1 1v1h-1v-1zm-1 1v1h-1v-1zm-5 5h1v1h-1zm0 1v1h-1v-1zm-1 1v1h-1v-1zm-1 1v1h-1v-1zm-5 5h1v1h-1zm0 1v1h-1v-1zm-1 1v1h-1v-1zm-1 1v1h-1v-1zm95 15h1v1h-1zm-1 2h1v1h-1zm0 1v1h-1v-1zm-2 2h1v1h-1zm0 1v1h-1v-1zm-3 3h1v1h-1zm-2 3h1v1h-1zm-2 3h1v1h-1zm-2 3h1v1h-1zm0 1v1h-1v-1zm-2 2h1v1h-1zm0 1v1h-1v-1zm-2 2h1v1h-1zm0 1v1h-1v-1zm-3 3h1v1h-1zm-2 3h1v1h-1zm-2 3h1v1h-1zm-2 3h1v1h-1zm-2 3h1v1h-1zm0 1v1h-1v-1z"/><path fill="#161616" fill-rule="evenodd" d="M35 4h1v1h-1zm0 1v1h-1v-1zm-1 1v1h-1v-1zm-1 1v1h-1v-1zm-1 1v1h-1v-1zm-5 5h1v1h-1zm0 1v1h-1v-1zm-1 1v1h-1v-1zm-1 1v1h-1v-1zm-5 5h1v1h-1zm0 1v1h-1v-1zm-1 1v1h-1v-1zm-1 1v1h-1v-1zm-5 5h1v1h-1zm0 1v1h-1v-1zm-1 1v1h-1v-1zm-1 1v1h-1v-1zm-5 5h1v1h-1zm0 1v1h-1v-1zm-1 1v1h-1v-1zm-1 1v1h-1v-1zm-1 1v1h-1v-1zm96 7h1v2h-1zm0 2v1h-1v-1zm-2 2h1v1h-1zm0 1v1h-1v-1zm-2 2h1v1h-1zm0 1v1h-1v-1zm-2 2h1v1h-1zm0 1v1h-1v-1zm-3 3h1v1h-1zm-2 3h1v1h-1zm-2 3h1v1h-1zm-2 3h1v1h-1zm0 1v1h-1v-1zm-2 2h1v1h-1zm0 1v1h-1v-1zm-2 2h1v1h-1zm0 1v1h-1v-1zm-3 3h1v1h-1zm-2 3h1v1h-1zm-2 3h1v1h-1zm-2 3h1v1h-1zm0 1v1h-1v-1zm-2 2h1v1h-1zm0 1v1h-1v-1zm-2 2h1v1h-1z"/><path fill="#181818" fill-rule="evenodd" d="M36 4h1v1h-1zm0 1v1h-1v-1zm-1 1v1h-1v-1zm-1 1v1h-1v-1zm-5 5h1v1h-1zm0 1v1h-1v-1zm-1 1v1h-1v-1zm-1 1v1h-1v-1zm-1 1v1h-1v-1zm-5 5h1v1h-1zm0 1v1h-1v-1zm-1 1v1h-1v-1zm-1 1v1h-1v-1zm-5 5h1v1h-1zm0 1v1h-1v-1zm-1 1v1h-1v-1zm-1 1v1h-1v-1zm-5 5h1v1h-1zm0 1v1h-1v-1zm-1 1v1h-1v-1zm-1 1v1h-1v-1zm94 7h1v1h-1zm-1 2h1v1h-1zm-2 3h1v1h-1zm-2 3h1v1h-1zm0 1v1h-1v-1zm-2 2h1v1h-1zm0 1v1h-1v-1zm-2 2h1v1h-1zm0 1v1h-1v-1zm-3 3h1v1h-1zm-2 3h1v1h-1zm-2 3h1v1h-1zm-2 3h1v1h-1zm0 1v1h-1v-1zm-2 2h1v1h-1zm0 1v1h-1v-1zm-2 2h1v1h-1zm0 1v1h-1v-1zm-3 3h1v1h-1zm-2 3h1v1h-1zm-2 3h1v1h-1zm-2 3h1v1h-1z"/><path fill="#1c1c1c" fill-rule="evenodd" d="M38 4h1v1h-1zm0 1v1h-1v-1zm-1 1v1h-1v-1zm-1 1v1h-1v-1zm-5 5h1v1h-1zm0 1v1h-1v-1zm-1 1v1h-1v-1zm-1 1v1h-1v-1zm-5 5h1v1h-1zm0 1v1h-1v-1zm-1 1v1h-1v-1zm-1 1v1h-1v-1zm-5 5h1v1h-1zm0 1v1h-1v-1zm-1 1v1h-1v-1zm-1 1v1h-1v-1zm-5 5h1v1h-1zm0 1v1h-1v-1zm-1 1v1h-1v-1zm-1 1v1h-1v-1zm-1 1v1h-1v-1zm-5 5h1v1h-1zm0 1v1h-1v-1zm96 0h1v1h-1zm-1 2h1v1h-1zm0 1v1h-1v-1zm-3 3h1v1h-1zm-2 3h1v1h-1zm-2 3h1v1h-1zm-2 3h1v1h-1zm-2 3h1v1h-1zm0 1v1h-1v-1zm-2 2h1v1h-1zm0 1v1h-1v-1zm-2 2h1v1h-1zm0 1v1h-1v-1zm-3 3h1v1h-1zm-2 3h1v1h-1zm-2 3h1v1h-1zm-2 3h1v1h-1zm0 1v1h-1v-1zm-2 2h1v1h-1zm0 1v1h-1v-1zm-2 2h1v1h-1zm0 1v1h-1v-1zm-3 3h1v1h-1zm-2 3h1v1h-1z"/><path fill="#333" fill-rule="evenodd" d="M50 4h1v1h-1zm0 1v1h-1v-1zm-1 1v1h-1v-1zm-1 1v1h-1v-1zm-5 5h1v1h-1zm0 1v1h-1v-1zm-1 1v1h-1v-1zm-1 1v1h-1v-1zm-1 1v1h-1v-1zm-5 5h1v1h-1zm0 1v1h-1v-1zm-1 1v1h-1v-1zm-1 1v1h-1v-1zm62 11h1v1h-1zm-74 2h1v1h-1zm0 1v1h-1v-1zm-1 1v1h-1v-1zm73-1h1v1h-1zm-74 2v1h-1v-1zm72 1h1v1h-1zm0 1v1h-1v-1zm-2 2h1v1h-1zm0 1v1h-1v-1zm-75 0h1v1h-1zm0 1v1h-1v-1zm-1 1v1h-1v-1zm-1 1v1h-1v-1zm75-1h1v1h-1zm0 1v1h-1v-1zm-3 3h1v1h-1zm-77 2h1v1h-1zm0 1v1h-1v-1zm-1 1v1h-1v-1zm76-1h1v1h-1zm-77 2v1h-1v-1zm-1 1v1h-1v-1zm65 16h1v1h-1zm-2 3h1v1h-1zm-2 3h1v1h-1zm-2 3h1v1h-1zm0 1v1h-1v-1zm-2 2h1v1h-1zm0 1v1h-1v-1zm-2 2h1v1h-1zm0 1v1h-1v-1zm-3 3h1v1h-1zm-2 3h1v1h-1zm-2 3h1v1h-1z"/><path fill="#353535" fill-rule="evenodd" d="M51 4h1v1h-1zm0 1v1h-1v-1zm-1 1v1h-1v-1zm-1 1v1h-1v-1zm-5 5h1v1h-1zm0 1v1h-1v-1zm-1 1v1h-1v-1zm-1 1v1h-1v-1zm-5 5h1v1h-1zm0 1v1h-1v-1zm-1 1v1h-1v-1zm-1 1v1h-1v-1zm61 9h1v1h-1zm-2 3h1v1h-1zm-2 3h1v1h-1zm-72 1h1v1h-1zm0 1v1h-1v-1zm70 1h1v1h-1zm-2 3h1v1h-1zm-73 1h1v1h-1zm0 1v1h-1v-1zm-1 1v1h-1v-1zm-1 1v1h-1v-1zm73-1h1v1h-1zm0 1v1h-1v-1zm-2 2h1v1h-1zm0 1v1h-1v-1zm-76 2h1v1h-1zm0 1v1h-1v-1zm74-1h1v1h-1zm-75 2v1h-1v-1zm-1 1v1h-1v-1zm65 14h1v1h-1zm-2 2h1v1h-1zm0 1v1h-1v-1zm-3 3h1v1h-1zm-2 3h1v1h-1zm-2 3h1v1h-1zm-2 3h1v1h-1zm-2 3h1v1h-1zm0 1v1h-1v-1zm-2 2h1v1h-1zm0 1v1h-1v-1zm-2 2h1v1h-1zm0 1v1h-1v-1zm-3 3h1v1h-1zm0 1v1h-1v-1z"/><path fill="#474747" fill-rule="evenodd" d="M60 4h1v1h-1zm-4 5h1v1h-1zm0 1v1h-1v-1zm-1 1v1h-1v-1zm-1 1v1h-1v-1zm-5 5h1v1h-1zm0 1v1h-1v-1zm-1 1v1h-1v-1zm-1 1v1h-1v-1zm-1 1v1h-1v-1zm46 5h1v1h-1zm0 1v1h-1v-1zm-2 2h1v1h-1zm0 1v1h-1v-1zm-3 3h1v1h-1zm-2 3h1v1h-1zm-2 3h1v1h-1zm-65 6h1v1h-1zm-2 9h1v1h-1zm-3 4h1v1h-1zm0 1v1h-1v-1zm-1 1v1h-1v-1zm-1 1v1h-1v-1zm-1 1v1h-1v-1zm-5 5h1v1h-1zm0 1v1h-1v-1zm56 7h1v1h-1zm-4 2h1v1h-1zm-2 3h1v1h-1zm-2 3h1v1h-1zm-2 3h1v1h-1zm0 1v1h-1v-1zm-2 2h1v1h-1zm0 1v1h-1v-1zm-2 2h1v1h-1zm0 1v1h-1v-1zm-3 3h1v1h-1z"/><path fill="#494949" fill-rule="evenodd" d="M61 4h1v1h-1zm-4 5h1v1h-1zm0 1v1h-1v-1zm-1 1v1h-1v-1zm-1 1v1h-1v-1zm-5 5h1v1h-1zm0 1v1h-1v-1zm-1 1v1h-1v-1zm-1 1v1h-1v-1zm43 6h1v1h-1zm0 1v1h-1v-1zm-2 2h1v1h-1zm0 1v1h-1v-1zm-2 2h1v1h-1zm0 1v1h-1v-1zm-3 3h1v1h-1zm-70 22h1v1h-1zm0 1v1h-1v-1zm-1 1v1h-1v-1zm-1 1v1h-1v-1zm-5 5h1v1h-1zm0 1v1h-1v-1zm-1 1v1h-1v-1zm-1 1v2h-1v-2zm51 8h1v1h-1zm-2 3h1v1h-1zm-2 3h1v1h-1zm-2 3h1v1h-1zm-2 3h1v1h-1zm0 1v1h-1v-1zm-2 2h1v1h-1zm0 1v1h-1v-1zm-2 2h1v1h-1zm0 1v1h-1v-1z"/><path fill="#4b4b4b" fill-rule="evenodd" d="M62 4h1v1h-1zm-4 5h1v1h-1zm0 1v1h-1v-1zm-1 1v1h-1v-1zm-1 1v1h-1v-1zm-5 5h1v1h-1zm0 1v1h-1v-1zm-1 1v1h-1v-1zm-1 1v1h-1v-1zm41 6h1v1h-1zm-2 3h1v1h-1zm-2 3h1v1h-1zm0 1v1h-1v-1zm-2 2h1v1h-1zm0 1v1h-1v-1zm-69 22h1v1h-1zm0 1v1h-1v-1zm-1 1v1h-1v-1zm-1 1v1h-1v-1zm-5 5h1v1h-1zm0 1v1h-1v-1zm-1 1v1h-1v-1zm-1 1v1h-1v-1zm50 7h1v1h-1zm0 1v1h-1v-1zm-2 2h1v1h-1zm0 1v1h-1v-1zm-3 3h1v1h-1zm-2 3h1v1h-1zm-2 3h1v1h-1zm-2 3h1v1h-1zm0 1v1h-1v-1zm-2 2h1v1h-1zm0 1v1h-1v-1z"/><path fill="#797979" fill-rule="evenodd" d="M64 4h1v1h-1zm15 7h1v1h-1zm0 1v1h-1v-1zm-2 2h1v1h-1zm0 1v1h-1v-1zm-3 3h1v1h-1zm0 1v1h-1v-1zm-1 1v1h-1v-1zm-1 1v1h-1v-1zm-35 4h1v1h-1zm30 1h1v1h-1zm0 1v1h-1v-1zm-1 1v1h-1v-1zm-1 1v1h-1v-1zm-46 14h1v1h-1zm-2 9h1v1h-1zm23 16h1v1h-1zm0 1v1h-1v-1zm-22 1h1v1h-1zm20 1h1v1h-1zm0 1v1h-1v-1zm-2 2h1v1h-1zm0 1v1h-1v-1zm-3 3h1v1h-1zm-13 1h1v1h-1zm11 2h1v1h-1zm-15 3h1v1h-1zm0 1v1h-1v-1zm13-1h1v1h-1zm-2 3h1v1h-1z"/><path fill="#989898" fill-rule="evenodd" d="M69 4h1v1h-1zm-1 2h1v1h-1zm12 23h1v1h-1zm-4 5h1v1h-1zm0 1v1h-1v-1zm-1 1v1h-1v-1zm-1 1v1h-1v-1zm-5 5h1v1h-1zm0 1v1h-1v-1zm-1 1v1h-1v-1zm-1 1v1h-1v-1zm-3 3h1v1h-1zm-29 6h1v1h-1zm-2 3h1v1h-1zm-2 3h1v1h-1zm-2 3h1v1h-1zm0 1v1h-1v-1zm-2 2h1v1h-1zm0 1v1h-1v-1zm-2 2h1v1h-1zm0 1v1h-1v-1zm-3 3h1v1h-1zm-2 2h1v1h-1zm6 16h1v1h-1zm0 1v1h-1v-1z"/><path fill="#0a0a0a" fill-rule="evenodd" d="M28 5h1v1h-1zm0 1v1h-1v-1zm-1 1v1h-1v-1zm-1 1v1h-1v-1zm-1 1v1h-1v-1zm-1 1v1h-1v-1zm-5 5h1v1h-1zm0 1v1h-1v-1zm-1 1v1h-1v-1zm-1 1v1h-1v-1zm-5 5h1v1h-1zm0 1v1h-1v-1zm-1 1v1h-1v-1zm-1 1v1h-1v-1zm-5 5h1v1h-1zm0 1v1h-1v-1zm-1 1v1h-1v-1zm93 27h1v1h-1zm-2 3h1v1h-1zm-2 3h1v1h-1zm0 1v1h-1v-1zm-2 2h1v1h-1zm0 1v1h-1v-1zm-2 2h1v1h-1zm0 1v1h-1v-1zm-3 3h1v1h-1zm-2 3h1v1h-1zm-2 3h1v1h-1zm-2 3h1v1h-1zm0 1v1h-1v-1zm-2 2h1v1h-1zm0 1v1h-1v-1zm-2 2h1v1h-1z"/><path fill="#2d2d2d" fill-rule="evenodd" d="M46 5h1v1h-1zm0 1v1h-1v-1zm-1 1v1h-1v-1zm-1 1v1h-1v-1zm-5 5h1v1h-1zm0 1v1h-1v-1zm-1 1v1h-1v-1zm-1 1v1h-1v-1zm-5 5h1v1h-1zm0 1v1h-1v-1zm-1 1v1h-1v-1zm-1 1v1h-1v-1zm-1 1v1h-1v-1zm-5 5h1v1h-1zm0 1v1h-1v-1zm-1 1v1h-1v-1zm-1 1v1h-1v-1zm75 3h1v1h-1zm-80 2h1v1h-1zm0 1v1h-1v-1zm-1 1v1h-1v-1zm79-1h1v1h-1zm-80 2v1h-1v-1zm78 1h1v1h-1zm-2 3h1v1h-1zm-81 1h1v1h-1zm0 1v1h-1v-1zm-1 1v1h-1v-1zm-1 1v1h-1v-1zm81-1h1v1h-1zm0 1v1h-1v-1zm-2 2h1v1h-1zm0 1v1h-1v-1zm-84 2h1v1h-1zm0 1v1h-1v-1zm82-1h1v1h-1zm0 1v1h-1v-1zm-83 1v1h-1v-1zm80 2h1v1h-1zm-2 3h1v1h-1zm-2 3h1v1h-1zm-2 3h1v1h-1zm-2 3h1v1h-1zm0 1v1h-1v-1zm-2 2h1v1h-1zm0 1v1h-1v-1zm-2 2h1v1h-1zm0 1v1h-1v-1zm-3 3h1v1h-1zm-2 3h1v1h-1zm-2 3h1v1h-1zm-2 3h1v1h-1zm0 1v1h-1v-1zm-2 2h1v1h-1zm0 1v1h-1v-1zm-2 2h1v1h-1zm0 1v1h-1v-1zm-3 3h1v1h-1z"/><path fill="#2f2f2f" fill-rule="evenodd" d="M47 5h1v1h-1zm0 1v1h-1v-1zm-1 1v1h-1v-1zm-1 1v1h-1v-1zm-5 5h1v1h-1zm0 1v1h-1v-1zm-1 1v1h-1v-1zm-1 1v1h-1v-1zm-5 5h1v1h-1zm0 1v1h-1v-1zm-1 1v1h-1v-1zm-1 1v1h-1v-1zm-5 5h1v1h-1zm0 1v1h-1v-1zm-1 1v1h-1v-1zm-1 1v1h-1v-1zm-1 1v1h-1v-1zm74 1h1v1h-1zm-1 2h1v1h-1zm-78 2h1v1h-1zm0 1v1h-1v-1zm77-1h1v1h-1zm0 1v1h-1v-1zm-78 1v1h-1v-1zm-1 1v1h-1v-1zm76 1h1v1h-1zm-2 3h1v1h-1zm-79 1h1v1h-1zm0 1v1h-1v-1zm-1 1v1h-1v-1zm-1 1v1h-1v-1zm79-1h1v1h-1zm-2 3h1v1h-1zm-82 3h1v1h-1zm0 1v1h-1v-1zm80-1h1v1h-1zm0 1v1h-1v-1zm-81 1v1h-1v-1zm-1 1v1h-1v-1zm80 0h1v1h-1zm0 1v1h-1v-1zm-2 2h1v1h-1zm0 1v1h-1v-1zm-3 3h1v1h-1zm-2 3h1v1h-1zm-2 3h1v1h-1zm-2 3h1v1h-1zm0 1v1h-1v-1zm-2 2h1v1h-1zm0 1v1h-1v-1zm-2 2h1v1h-1zm0 1v1h-1v-1zm-3 3h1v1h-1zm-2 3h1v1h-1zm-2 3h1v1h-1zm-2 3h1v1h-1zm-2 3h1v1h-1zm0 1v1h-1v-1zm-2 2h1v1h-1zm0 1v1h-1v-1z"/><path fill="#464646" fill-rule="evenodd" d="M59 5h1v1h-1zm0 1v1h-1v-1zm-1 1v1h-1v-1zm-1 1v1h-1v-1zm-1 1v1h-1v-1zm-4 4h1v1h-1zm0 1v1h-1v-1zm-1 1v1h-1v-1zm-1 1v1h-1v-1zm-1 1v1h-1v-1zm-5 5h1v1h-1zm0 1v1h-1v-1zm49 2h1v1h-1zm-2 3h1v1h-1zm-2 3h1v1h-1zm0 1v1h-1v-1zm-2 2h1v1h-1zm0 1v1h-1v-1zm-2 2h1v1h-1zm0 1v1h-1v-1zm-70 17h1v1h-1zm0 1v1h-1v-1zm-1 1v1h-1v-1zm-1 1v1h-1v-1zm-5 5h1v1h-1zm0 1v1h-1v-1zm-1 1v1h-1v-1zm-1 1v1h-1v-1zm52 10h1v1h-1zm-1 2h1v1h-1zm0 1v1h-1v-1zm-3 3h1v1h-1zm-2 3h1v1h-1zm-2 3h1v1h-1zm-2 3h1v1h-1zm-2 3h1v1h-1zm0 1v1h-1v-1zm-2 2h1v1h-1z"/><path fill="#4a4a4a" fill-rule="evenodd" d="M61 5h1v1h-1zm0 1v1h-1v-1zm-1 1v1h-1v-1zm-1 1v1h-1v-1zm-5 5h1v1h-1zm0 1v1h-1v-1zm-1 1v1h-1v-1zm-1 1v1h-1v-1zm-5 5h1v1h-1zm0 1v1h-1v-1zm-1 1v1h-1v-1zm46 1h1v1h-1zm0 1v1h-1v-1zm-3 3h1v1h-1zm-2 3h1v1h-1zm-2 3h1v1h-1zm-2 3h1v1h-1zm-67 19h1v1h-1zm0 1v1h-1v-1zm-5 5h1v1h-1zm0 1v1h-1v-1zm-1 1v1h-1v-1zm-1 1v1h-1v-1zm57 8h1v1h-1zm-11 5h1v1h-1zm-2 3h1v1h-1zm0 1v1h-1v-1zm-2 2h1v1h-1zm0 1v1h-1v-1zm-2 2h1v1h-1zm0 1v1h-1v-1zm-3 3h1v1h-1zm-2 3h1v1h-1zm-2 3h1v1h-1z"/><path fill="#4c4c4c" fill-rule="evenodd" d="M62 5h1v1h-1zm0 1v1h-1v-1zm-1 1v1h-1v-1zm-1 1v1h-1v-1zm-5 5h1v1h-1zm0 1v1h-1v-1zm-1 1v1h-1v-1zm-1 1v1h-1v-1zm-5 5h1v1h-1zm0 1v1h-1v-1zm-1 1v1h-1v-1zm44 1h1v1h-1zm0 1v1h-1v-1zm-2 2h1v1h-1zm0 1v1h-1v-1zm-2 2h1v1h-1zm0 1v1h-1v-1zm-3 3h1v1h-1zm-68 23h1v1h-1zm-4 5h1v1h-1zm0 1v1h-1v-1zm-1 1v1h-1v-1zm-1 1v1h-1v-1zm-5 5h1v1h-1zm49 8h1v1h-1zm-2 3h1v1h-1zm-2 3h1v1h-1zm0 1v1h-1v-1zm-2 2h1v1h-1zm0 1v1h-1v-1zm-2 2h1v1h-1zm0 1v1h-1v-1zm-3 3h1v1h-1zm-2 3h1v1h-1zm6 2h1v1h-1z"/><path fill="#4e4e4e" fill-rule="evenodd" d="M63 5h1v1h-1zm0 1v1h-1v-1zm-1 1v1h-1v-1zm-5 5h1v1h-1zm0 1v1h-1v-1zm-1 1v1h-1v-1zm-1 1v1h-1v-1zm-5 5h1v1h-1zm0 1v1h-1v-1zm-1 1v1h-1v-1zm-1 1v1h-1v-1zm-1 1v1h-1v-1zm43 0h1v1h-1zm-2 3h1v1h-1zm0 1v1h-1v-1zm-2 2h1v1h-1zm0 1v1h-1v-1zm-2 2h1v1h-1zm0 1v1h-1v-1zm-4 23h1v1h-1zm-66 4h1v1h-1zm0 1v1h-1v-1zm-1 1v1h-1v-1zm-1 1v1h-1v-1zm-1 1v1h-1v-1zm-5 5h1v1h-1zm0 1v1h-1v-1zm47 7h1v1h-1zm-2 3h1v1h-1zm-2 3h1v1h-1zm-2 3h1v1h-1zm-2 3h1v1h-1zm0 1v1h-1v-1zm-2 2h1v1h-1zm0 1v1h-1v-1zm-2 2h1v1h-1z"/><path fill="#505050" fill-rule="evenodd" d="M64 5h1v1h-1zm0 1v1h-1v-1zm-1 1v1h-1v-1zm-5 5h1v1h-1zm0 1v1h-1v-1zm-1 1v1h-1v-1zm-1 1v1h-1v-1zm-5 5h1v1h-1zm0 1v1h-1v-1zm-1 1v1h-1v-1zm-1 1v1h-1v-1zm40 1h1v1h-1zm-2 3h1v1h-1zm-2 3h1v1h-1zm-2 3h1v1h-1zm-68 28h1v1h-1zm0 1v1h-1v-1zm-1 1v1h-1v-1zm-1 1v1h-1v-1zm-5 5h1v1h-1zm0 1v1h-1v-1zm-1 1v1h-1v-1zm46 6h1v1h-1zm0 1v1h-1v-1zm-2 2h1v1h-1zm0 1v1h-1v-1zm-3 3h1v1h-1zm-2 3h1v1h-1zm-2 3h1v1h-1zm-2 3h1v1h-1zm0 1v1h-1v-1zm-2 2h1v1h-1z"/><path fill="#606060" fill-rule="evenodd" d="M65 5h1v1h-1zm4 4h1v1h-1zm0 1v1h-1v-1zm-1 1v1h-1v-1zm-1 1v1h-1v-1zm-1 1v1h-1v-1zm-5 5h1v1h-1zm0 1v1h-1v-1zm-1 1v1h-1v-1zm25-1h1v1h-1zm-26 2v1h-1v-1zm24 1h1v1h-1zm-2 3h1v1h-1zm-27 1h1v1h-1zm0 1v1h-1v-1zm-37 41h1v1h-1zm0 1v1h-1v-1zm-1 1v1h-1v-1zm-5 5h1v1h-1zm0 1v1h-1v-1zm-1 1v1h-1v-1zm36-1h1v1h-1zm-2 3h1v1h-1zm-2 3h1v1h-1zm-2 3h1v1h-1zm-2 3h1v1h-1zm0 1v1h-1v-1zm-2 2h1v1h-1zm0 1v1h-1v-1z"/><path fill="#8f8f8f" fill-rule="evenodd" d="M66 5h1v1h-1zm6 1h1v1h-1zm7 19h1v1h-1zm0 1v1h-1v-1zm-5 5h1v1h-1zm0 1v1h-1v-1zm-1 1v1h-1v-1zm-1 1v1h-1v-1zm-5 5h1v1h-1zm0 1v1h-1v-1zm-1 1v1h-1v-1zm-1 1v1h-1v-1zm-48 16h1v1h-1zm19 1h1v1h-1zm0 1v1h-1v-1zm-2 2h1v1h-1zm0 1v1h-1v-1zm-3 3h1v1h-1zm-2 3h1v1h-1zm-2 3h1v1h-1zm-2 3h1v1h-1zm0 1v1h-1v-1zm-2 2h1v1h-1zm0 1v1h-1v-1zm1 9h1v1h-1zm0 1v1h-1v-1zm-1 1v1h-1v-1z"/><path fill="#999" fill-rule="evenodd" d="M68 5h1v1h-1zm12 25h1v1h-1zm0 1v1h-1v-1zm-1 1v1h-1v-1zm-1 1v1h-1v-1zm-5 5h1v1h-1zm0 1v1h-1v-1zm-1 1v1h-1v-1zm-1 1v1h-1v-1zm-5 5h1v1h-1zm0 1v1h-1v-1zm-32 8h1v1h-1zm0 1v1h-1v-1zm-2 2h1v1h-1zm0 1v1h-1v-1zm-2 2h1v1h-1zm0 1v1h-1v-1zm-3 3h1v1h-1zm-2 3h1v1h-1zm-2 3h1v1h-1zm-2 3h1v1h-1zm6 16h2v1h-2z"/><path fill="#979797" fill-rule="evenodd" d="M69 5h1v1h-1zm10 25h1v1h-1zm0 1v1h-1v-1zm-1 1v1h-1v-1zm-1 1v1h-1v-1zm-5 5h1v1h-1zm0 1v1h-1v-1zm-1 1v1h-1v-1zm-1 1v1h-1v-1zm-5 5h1v1h-1zm-31 10h1v1h-1zm-1 2h1v1h-1zm0 1v1h-1v-1zm-3 3h1v1h-1zm-2 3h1v1h-1zm-2 3h1v1h-1zm-2 3h1v1h-1zm0 1v1h-1v-1zm-5 0h1v1h-1zm3 2h1v1h-1zm0 1v1h-1v-1zm4 15h1v1h-1z"/><path fill="#959595" fill-rule="evenodd" d="M70 5h1v1h-1zm0 1v1h-1v-1zm8 24h1v1h-1zm0 1v1h-1v-1zm-1 1v1h-1v-1zm4-1h1v1h-1zm-5 2v1h-1v-1zm-5 5h1v1h-1zm0 1v1h-1v-1zm11-1h1v1h-1zm-12 2v1h-1v-1zm-1 1v1h-1v-1zm13 6h1v1h-1zm-49 12h1v1h-1zm-2 3h1v1h-1zm-2 3h1v1h-1zm-2 3h1v1h-1zm0 1v1h-1v-1zm-2 2h1v1h-1zm0 1v1h-1v-1zm-2 2h1v1h-1zm0 1v1h-1v-1zm3 14h1v1h-1zm0 1v1h-1v-1zm-1 1v2h-1v-2z"/><path fill="#929292" fill-rule="evenodd" d="M71 5h1v1h-1zm-1 2h1v1h-1zm9 20h1v1h-1zm0 1v1h-1v-1zm-1 1v1h-1v-1zm-1 1v1h-1v-1zm-4 4h1v1h-1zm0 1v1h-1v-1zm-1 1v1h-1v-1zm-1 1v1h-1v-1zm-1 1v1h-1v-1zm-5 5h1v1h-1zm0 1v1h-1v-1zm-48 13h1v1h-1zm18 1h1v1h-1zm-2 3h1v1h-1zm-2 3h1v1h-1zm-2 3h1v1h-1zm-11 1h1v1h-1zm9 2h1v1h-1zm-2 3h1v1h-1zm0 1v1h-1v-1zm-2 2h1v1h-1zm0 1v1h-1v-1zm3 11h1v1h-1z"/><path fill="#090909" fill-rule="evenodd" d="M26 6h1v1h-1zm-4 5h1v1h-1zm0 1v1h-1v-1zm-1 1v1h-1v-1zm-1 1v1h-1v-1zm-5 5h1v1h-1zm0 1v1h-1v-1zm-1 1v1h-1v-1zm-1 1v1h-1v-1zm-5 5h1v1h-1zm0 1v1h-1v-1zm-1 1v1h-1v-1zm-1 1v1h-1v-1zm92 29h1v1h-1zm-2 3h1v1h-1zm-2 3h1v1h-1zm-2 3h1v1h-1zm-2 3h1v1h-1zm-2 3h1v1h-1zm0 1v1h-1v-1zm-2 2h1v1h-1zm0 1v1h-1v-1zm-2 2h1v1h-1zm0 1v1h-1v-1zm-3 3h1v1h-1zm-2 3h1v1h-1zm-2 3h1v1h-1zm-2 2h1v1h-1z"/><path fill="#0c0c0c" fill-rule="evenodd" d="M28 6h1v1h-1zm0 1v1h-1v-1zm-1 1v1h-1v-1zm-1 1v1h-1v-1zm-5 5h1v1h-1zm0 1v1h-1v-1zm-1 1v1h-1v-1zm-1 1v1h-1v-1zm-1 1v1h-1v-1zm-4 4h1v1h-1zm0 1v1h-1v-1zm-1 1v1h-1v-1zm-1 1v1h-1v-1zm-1 1v1h-1v-1zm-5 5h1v1h-1zm0 1v1h-1v-1zm-1 1v1h-1v-1zm-1 1v1h-1v-1zm94 23h1v1h-1zm-2 3h1v1h-1zm-2 3h1v1h-1zm-2 3h1v1h-1zm-2 3h1v1h-1zm0 1v1h-1v-1zm-2 2h1v1h-1zm0 1v1h-1v-1zm-2 2h1v1h-1zm0 1v1h-1v-1zm-3 3h1v1h-1zm-2 3h1v1h-1zm-2 3h1v1h-1zm-2 3h1v1h-1zm-2 3h1v1h-1zm0 1v1h-1v-1zm-1 1v1h-1v-1z"/><path fill="#404040" fill-rule="evenodd" d="M55 6h1v1h-1zm0 1v1h-1v-1zm-1 1v1h-1v-1zm-1 1v1h-1v-1zm-5 5h1v1h-1zm0 1v1h-1v-1zm-1 1v1h-1v-1zm-1 1v1h-1v-1zm-1 1v1h-1v-1zm-5 5h1v1h-1zm0 1v1h-1v-1zm54 3h1v1h-1zm-1 2h1v1h-1zm-67 2h1v1h-1zm65 1h1v1h-1zm-2 3h1v1h-1zm-2 3h1v1h-1zm0 1v1h-1v-1zm-2 2h1v1h-1zm0 1v1h-1v-1zm-2 2h1v1h-1zm-67 6h1v1h-1zm0 1v1h-1v-1zm-4 4h1v1h-1zm0 1v1h-1v-1zm-1 1v1h-1v-1zm-1 1v1h-1v-1zm-1 1v1h-1v-1zm-5 5h1v1h-1zm0 1v1h-1v-1zm57 11h1v1h-1zm-2 3h1v1h-1zm0 1v1h-1v-1zm-2 2h1v1h-1zm0 1v1h-1v-1zm-2 2h1v1h-1zm0 1v1h-1v-1zm-3 3h1v1h-1zm-2 3h1v1h-1zm-2 3h1v1h-1zm-2 3h1v1h-1zm2 1h1v1h-1z"/><path fill="#444" fill-rule="evenodd" d="M57 6h1v1h-1zm0 1v1h-1v-1zm-1 1v1h-1v-1zm-1 1v1h-1v-1zm-5 5h1v1h-1zm0 1v1h-1v-1zm-1 1v1h-1v-1zm-1 1v1h-1v-1zm-5 5h1v1h-1zm0 1v1h-1v-1zm49 5h1v1h-1zm0 1v1h-1v-1zm-2 2h1v1h-1zm0 1v1h-1v-1zm-2 2h1v1h-1zm0 1v1h-1v-1zm-3 3h1v1h-1zm-2 3h1v1h-1zm-69 14h1v1h-1zm0 1v1h-1v-1zm-1 1v1h-1v-1zm-1 1v1h-1v-1zm-5 5h1v1h-1zm0 1v1h-1v-1zm-1 1v1h-1v-1zm-1 1v1h-1v-1zm-2 2h1v1h-1zm56 8h1v1h-1zm-2 3h1v1h-1zm-2 3h1v1h-1zm-2 3h1v1h-1zm-2 3h1v1h-1zm0 1v1h-1v-1zm-2 2h1v1h-1zm0 1v1h-1v-1zm-2 2h1v1h-1zm0 1v1h-1v-1zm-3 3h1v1h-1z"/><path fill="#525252" fill-rule="evenodd" d="M64 6h1v1h-1zm0 1v1h-1v-1zm-5 5h1v1h-1zm0 1v1h-1v-1zm-1 1v1h-1v-1zm-1 1v1h-1v-1zm-5 5h1v1h-1zm0 1v1h-1v-1zm-1 1v1h-1v-1zm39-1h1v1h-1zm-40 2v1h-1v-1zm39 0h1v1h-1zm0 1v1h-1v-1zm-3 3h1v1h-1zm-2 3h1v1h-1zm-67 20h1v1h-1zm-1 11h1v1h-1zm0 1v1h-1v-1zm-1 1v1h-1v-1zm-1 1v1h-1v-1zm-5 5h1v1h-1zm0 1v1h-1v-1zm-1 1v1h-1v-1zm-1 1v2h-1v-2zm45 5h1v1h-1zm0 1v1h-1v-1zm-2 2h1v1h-1zm0 1v1h-1v-1zm-2 2h1v1h-1zm0 1v1h-1v-1zm-3 3h1v1h-1zm-2 3h1v1h-1zm-2 3h1v1h-1zm-2 3h1v1h-1z"/><path fill="#545454" fill-rule="evenodd" d="M65 6h1v1h-1zm-4 5h1v1h-1zm0 1v1h-1v-1zm-1 1v1h-1v-1zm-1 1v1h-1v-1zm-1 1v1h-1v-1zm-5 5h1v1h-1zm0 1v1h-1v-1zm-1 1v1h-1v-1zm37-1h1v1h-1zm-38 2v1h-1v-1zm37 0h1v1h-1zm0 1v1h-1v-1zm-43 0h1v1h-1zm41 2h1v1h-1zm0 1v1h-1v-1zm-3 3h1v1h-1zm-67 32h1v1h-1zm0 1v1h-1v-1zm-1 1v1h-1v-1zm-5 5h1v1h-1zm0 1v1h-1v-1zm-1 1v1h-1v-1zm-1 1v1h-1v-1zm43 5h1v1h-1zm-2 3h1v1h-1zm-2 3h1v1h-1zm0 1v1h-1v-1zm-2 2h1v1h-1zm0 1v1h-1v-1zm-2 2h1v1h-1zm0 1v1h-1v-1zm-3 3h1v1h-1z"/><path fill="#585858" fill-rule="evenodd" d="M66 6h1v1h-1zm-3 5h1v1h-1zm0 1v1h-1v-1zm-1 1v1h-1v-1zm-1 1v1h-1v-1zm-5 5h1v1h-1zm0 1v1h-1v-1zm-1 1v1h-1v-1zm33-1h1v1h-1zm-34 2v1h-1v-1zm32 1h1v1h-1zm-2 3h1v1h-1zm-2 3h1v1h-1zm0 3h1v1h-1zm-69 36h1v1h-1zm0 1v1h-1v-1zm-1 1v1h-1v-1zm-1 1v1h-1v-1zm58 0h1v1h-1zm-19 5h1v1h-1zm0 1v1h-1v-1zm-3 3h1v1h-1zm-2 3h1v1h-1zm-2 3h1v1h-1zm-2 3h1v1h-1zm0 1v1h-1v-1zm-2 2h1v1h-1zm0 1v1h-1v-1zm-2 2h1v1h-1z"/><path fill="#7e7e7e" fill-rule="evenodd" d="M67 6h1v1h-1zm11 3h1v1h-1zm0 1v1h-1v-1zm-2 2h1v1h-1zm0 1v1h-1v-1zm-2 8h1v1h-1zm0 1v1h-1v-1zm-1 1v1h-1v-1zm-1 1v1h-1v-1zm7-1h1v1h-1zm-12 6h1v1h-1zm0 1v1h-1v-1zm-1 1v1h-1v-1zm-1 1v1h-1v-1zm-1 1v1h-1v-1zm-27 36h1v1h-1zm0 1v1h-1v-1zm-2 2h1v1h-1zm0 1v1h-1v-1zm-2 2h1v1h-1zm0 1v1h-1v-1zm20-1h1v1h-1zm-23 4h1v1h-1zm-9 2h1v1h-1zm0 1v1h-1v-1zm7 0h1v1h-1zm-2 3h1v1h-1zm2 4h1v1h-1zm2 2h1v1h-1z"/><path fill="#939393" fill-rule="evenodd" d="M70 6h1v1h-1zm0 1v1h-1v-1zm7 23h1v1h-1zm0 1v1h-1v-1zm-1 1v1h-1v-1zm-1 1v1h-1v-1zm-5 5h1v1h-1zm0 1v1h-1v-1zm-1 1v1h-1v-1zm-1 1v1h-1v-1zm-1 1v1h-1v-1zm-3 3h1v1h-1zm-30 14h1v1h-1zm-2 3h1v1h-1zm-2 3h1v1h-1zm0 1v1h-1v-1zm-2 2h1v1h-1zm0 1v1h-1v-1zm-2 2h1v1h-1zm0 1v1h-1v-1zm-3 3h1v1h-1zm32 0h2v1h-2zm-30 14h1v1h-1zm0 1v1h-1v-1zm-1 1v1h-1v-1z"/><path fill="#919191" fill-rule="evenodd" d="M71 6h1v1h-1zm8 20h1v1h-1zm1 1h1v1h-1zm-5 4h1v1h-1zm0 1v1h-1v-1zm-1 1v1h-1v-1zm-1 1v1h-1v-1zm-49 0h1v1h-1zm44 5h1v1h-1zm0 1v1h-1v-1zm-1 1v1h-1v-1zm-1 1v1h-1v-1zm-49 14h1v1h-1zm18 3h1v1h-1zm0 1v1h-1v-1zm-2 2h1v1h-1zm0 1v1h-1v-1zm-2 2h1v1h-1zm0 1v1h-1v-1zm-3 3h1v1h-1zm-2 3h1v1h-1zm-2 3h1v1h-1zm-2 3h1v1h-1zm3 10h1v1h-1zm0 1v1h-1v-1zm-1 1v1h-1v-1zm8 3h1v1h-1z"/><path fill="#060606" fill-rule="evenodd" d="M24 7h1v1h-1zm0 1v1h-1v-1zm-1 1v1h-1v-1zm-1 1v1h-1v-1zm-5 5h1v1h-1zm0 1v1h-1v-1zm-1 1v1h-1v-1zm-1 1v1h-1v-1zm-5 5h1v1h-1zm0 1v1h-1v-1zm-1 1v1h-1v-1zm-1 1v1h-1v-1zm-1 1v1h-1v-1zm91 34h1v1h-1zm-1 2h1v1h-1zm0 1v1h-1v-1zm-3 3h1v1h-1zm-2 3h1v1h-1zm-2 3h1v1h-1zm-2 3h1v1h-1zm0 1v1h-1v-1zm-2 2h1v1h-1zm0 1v1h-1v-1zm-2 2h1v1h-1zm0 1v1h-1v-1zm-2 2h1v1h-1zm0 1v1h-1v-1zm-3 3h1v1h-1zm0 1v1h-1v-1z"/><path fill="#080808" fill-rule="evenodd" d="M25 7h1v1h-1zm0 1v1h-1v-1zm-1 1v1h-1v-1zm-1 1v1h-1v-1zm-5 5h1v1h-1zm0 1v1h-1v-1zm-1 1v1h-1v-1zm-1 1v1h-1v-1zm-5 5h1v1h-1zm0 1v1h-1v-1zm-1 1v1h-1v-1zm-1 1v1h-1v-1zm-5 5h1v1h-1zm0 1v1h-1v-1zm94 28h1v1h-1zm0 1v1h-1v-1zm-2 2h1v1h-1zm0 1v1h-1v-1zm-2 2h1v1h-1zm0 1v1h-1v-1zm-3 3h1v1h-1zm-2 3h1v1h-1zm-2 3h1v1h-1zm-2 3h1v1h-1zm-2 3h1v1h-1zm0 1v1h-1v-1zm-2 2h1v1h-1zm0 1v1h-1v-1zm-2 2h1v1h-1zm0 1v1h-1v-1z"/><path fill="#535353" fill-rule="evenodd" d="M64 7h1v1h-1zm0 1v1h-1v-1zm-1 1v1h-1v-1zm-1 1v1h-1v-1zm-1 1v1h-1v-1zm-5 5h1v1h-1zm0 1v1h-1v-1zm-1 1v1h-1v-1zm-1 1v1h-1v-1zm35 3h1v1h-1zm-40 2h1v1h-1zm38 1h1v1h-1zm-2 3h1v1h-1zm0 1v1h-1v-1zm-2 2h1v1h-1zm-70 34h1v1h-1zm0 1v1h-1v-1zm-1 1v1h-1v-1zm-1 1v1h-1v-1zm41 8h1v1h-1zm-2 3h1v1h-1zm-2 3h1v1h-1zm-2 3h1v1h-1zm-2 3h1v1h-1zm-2 3h1v1h-1zm0 1v1h-1v-1zm-2 2h1v1h-1zm0 1v1h-1v-1z"/><path fill="#555" fill-rule="evenodd" d="M65 7h1v1h-1zm0 1v1h-1v-1zm-1 1v1h-1v-1zm-1 1v1h-1v-1zm-5 5h1v1h-1zm0 1v1h-1v-1zm-1 1v1h-1v-1zm-1 1v1h-1v-1zm-1 1v1h-1v-1zm33 3h1v1h-1zm-37 1h1v1h-1zm0 1v1h-1v-1zm-15 1h1v1h-1zm50 0h1v1h-1zm-2 3h1v1h-1zm-2 3h1v1h-1zm-4 30h1v1h-1zm-64 4h1v1h-1zm0 1v1h-1v-1zm-1 1v1h-1v-1zm-1 1v1h-1v-1zm-5 5h1v1h-1zm0 1v1h-1v-1zm44 2h1v1h-1zm-1 2h1v1h-1zm0 1v1h-1v-1zm-2 2h1v1h-1zm0 1v1h-1v-1zm-3 3h1v1h-1zm-2 3h1v1h-1zm-2 3h1v1h-1zm-2 3h1v1h-1zm0 1v1h-1v-1z"/><path fill="#595959" fill-rule="evenodd" d="M67 7h1v1h-1zm0 1v1h-1v-1zm-1 1v1h-1v-1zm-1 1v1h-1v-1zm-5 5h1v1h-1zm0 1v1h-1v-1zm-1 1v1h-1v-1zm-1 1v1h-1v-1zm29 3h1v1h-1zm0 1v1h-1v-1zm-34 1h1v1h-1zm0 1v1h-1v-1zm-12 0h1v1h-1zm11 1v1h-1v-1zm33-1h1v1h-1zm0 1v1h-1v-1zm-2 2h1v1h-1zm0 1v1h-1v-1zm-63 12h1v1h-1zm62 10h1v1h-1zm-66 15h1v1h-1zm0 1v1h-1v-1zm-1 1v1h-1v-1zm-5 5h1v1h-1zm0 1v1h-1v-1zm-1 1v1h-1v-1zm-1 1v1h-1v-1zm42 0h2v1h-2zm-2 3h1v1h-1zm-2 3h1v1h-1zm0 1v1h-1v-1zm-2 2h1v1h-1zm0 1v1h-1v-1zm-2 2h1v1h-1zm0 1v1h-1v-1zm-3 3h1v1h-1zm-2 3h1v1h-1z"/><path fill="#717171" fill-rule="evenodd" d="M68 7h1v1h-1zm14 5h1v1h-1zm0 1v1h-1v-1zm-9 1h1v1h-1zm7 1h1v1h-1zm0 1v1h-1v-1zm-2 2h1v1h-1zm-9 1h1v1h-1zm0 1v1h-1v-1zm-1 1v1h-1v-1zm-1 1v1h-1v-1zm12 0h1v1h-1zm-17 5h1v1h-1zm0 1v1h-1v-1zm-1 1v1h-1v-1zm-1 1v1h-1v-1zm-1 1v1h-1v-1zm-18 41h1v1h-1zm0 1v1h-1v-1zm-22 2h1v1h-1zm20 0h1v1h-1zm0 1v1h-1v-1zm-21 1h1v1h-1zm0 1v1h-1v-1zm-1 1v1h-1v-1zm20-1h1v1h-1zm0 1v1h-1v-1zm-21 1v1h-1v-1zm18 2h1v1h-1zm-21 1h1v1h-1zm19 2h1v1h-1zm-2 3h1v1h-1z"/><path fill="#909090" fill-rule="evenodd" d="M71 7h1v1h-1zm7 20h1v1h-1zm0 1v1h-1v-1zm-1 1v1h-1v-1zm-1 1v1h-1v-1zm-5 5h1v1h-1zm0 1v1h-1v-1zm-1 1v1h-1v-1zm-1 1v1h-1v-1zm-5 5h1v1h-1zm-30 18h1v1h-1zm-2 3h1v1h-1zm-2 3h1v1h-1zm0 1v1h-1v-1zm-2 2h1v1h-1zm0 1v1h-1v-1zm-2 2h1v1h-1zm0 1v1h-1v-1zm-3 3h1v1h-1zm2 10h1v1h-1z"/><path fill="#8e8e8e" fill-rule="evenodd" d="M72 7h1v1h-1zm0 1v1h-2v-1zm5 19h1v1h-1zm0 1v1h-1v-1zm-1 1v1h-1v-1zm-1 1v1h-1v-1zm-5 5h1v1h-1zm0 1v1h-1v-1zm-1 1v1h-1v-1zm-1 1v1h-1v-1zm-50 9h1v1h-1zm17 14h1v1h-1zm-2 3h1v1h-1zm0 1v1h-1v-1zm-2 2h1v1h-1zm0 1v1h-1v-1zm-2 2h1v1h-1zm0 1v1h-1v-1zm-3 3h1v1h-1zm-2 3h1v1h-1zm-3 1h1v1h-1zm3 9h1v1h-1zm0 1v1h-1v-1zm13 8h1v1h-1z"/><path fill="#8b8b8b" fill-rule="evenodd" d="M73 7h1v1h-1zm-1 2h1v1h-1zm6 15h1v1h-1zm0 1v1h-1v-1zm-1 1v1h-1v-1zm-1 1v1h-1v-1zm-4 4h1v1h-1zm0 1v1h-1v-1zm-1 1v1h-1v-1zm-1 1v1h-1v-1zm-1 1v1h-1v-1zm-5 5h1v1h-1zm-47 15h1v1h-1zm18 8h1v1h-1zm-2 3h1v1h-1zm0 1v1h-1v-1zm-2 2h1v1h-1zm0 1v1h-1v-1zm-2 2h1v1h-1zm0 1v1h-1v-1zm-3 3h1v1h-1zm-2 3h1v1h-1zm-3 10h1v1h-1z"/><path fill="#898989" fill-rule="evenodd" d="M74 7h1v1h-1zm3 17h1v1h-1zm0 1v1h-1v-1zm-1 1v1h-1v-1zm-1 1v1h-1v-1zm-5 5h1v1h-1zm0 1v1h-1v-1zm-1 1v1h-1v-1zm-1 1v1h-1v-1zm-32 28h1v1h-1zm0 1v1h-1v-1zm-2 2h1v1h-1zm0 1v1h-1v-1zm-2 2h1v1h-1zm0 1v1h-1v-1zm-13 3h1v1h-1zm10 0h1v1h-1zm-9 3h1v1h-1zm7 0h1v1h-1zm-2 3h1v1h-1zm-1 6h1v1h-1z"/><path fill="#878787" fill-rule="evenodd" d="M75 7h1v1h-1zm-2 3h1v1h-1zm3 14h1v1h-1zm0 1v1h-1v-1zm-1 1v1h-1v-1zm-1 1v1h-1v-1zm7 3h1v1h-1zm-12 2h1v1h-1zm0 1v1h-1v-1zm-1 1v1h-1v-1zm-1 1v1h-1v-1zm-30 28h1v1h-1zm0 1v1h-1v-1zm-3 3h1v1h-1zm-2 3h1v1h-1zm-2 3h1v1h-1zm-2 3h1v1h-1zm-2 3h1v1h-1zm0 1v1h-1v-1zm-2 2h1v1h-1zm-1 2h1v1h-1zm0 1v1h-1v-1zm8 7h1v1h-1zm11 6h1v1h-1z"/><path fill="#4d4d4d" fill-rule="evenodd" d="M60 8h1v1h-1zm0 1v1h-1v-1zm-1 1v1h-1v-1zm-1 1v1h-1v-1zm-1 1v1h-1v-1zm-4 4h1v1h-1zm0 1v1h-1v-1zm-1 1v1h-1v-1zm-1 1v1h-1v-1zm-1 1v1h-1v-1zm41 3h1v1h-1zm-2 3h1v1h-1zm-2 3h1v1h-1zm-2 3h1v1h-1zm-2 3h1v1h-1zm-67 23h1v1h-1zm0 1v1h-1v-1zm-1 1v1h-1v-1zm-1 1v1h-1v-1zm-5 5h1v1h-1zm0 1v1h-1v-1zm-1 1v1h-1v-1zm-1 1v1h-1v-1zm48 7h1v1h-1zm0 1v1h-1v-1zm-2 2h1v1h-1zm0 1v1h-1v-1zm-2 2h1v1h-1zm0 1v1h-1v-1zm-3 3h1v1h-1zm-2 3h1v1h-1zm-2 3h1v1h-1zm-2 3h1v1h-1z"/><path fill="#515151" fill-rule="evenodd" d="M62 8h1v1h-1zm0 1v1h-1v-1zm-1 1v1h-1v-1zm-1 1v1h-1v-1zm-5 5h1v1h-1zm0 1v1h-1v-1zm-1 1v1h-1v-1zm-1 1v1h-1v-1zm37 3h1v1h-1zm-42 2h1v1h-1zm40 1h1v1h-1zm0 1v1h-1v-1zm-2 2h1v1h-1zm0 1v1h-1v-1zm-2 2h1v1h-1zm0 1v1h-1v-1zm-68 28h1v1h-1zm-4 5h1v1h-1zm0 1v1h-1v-1zm-1 1v1h-1v-1zm-1 1v1h-1v-1zm43 8h1v1h-1zm-2 3h1v1h-1zm-2 3h1v1h-1zm-2 3h1v1h-1zm0 1v1h-1v-1zm-2 2h1v1h-1zm0 1v1h-1v-1zm-2 2h1v1h-1zm0 1v1h-1v-1zm-3 3h1v1h-1z"/><path fill="#5b5b5b" fill-rule="evenodd" d="M67 8h1v1h-1zm0 1v1h-1v-1zm-5 5h1v1h-1zm0 1v1h-1v-1zm-1 1v1h-1v-1zm-1 1v1h-1v-1zm-1 1v1h-1v-1zm29 0h1v1h-1zm-2 3h1v1h-1zm-32 2h1v1h-1zm0 1v1h-1v-1zm-1 1v1h-1v-1zm31-1h1v1h-1zm0 1v1h-1v-1zm-32 1v1h-1v-1zm30 1h1v1h-1zm-61 11h1v1h-1zm-5 28h1v1h-1zm0 1v1h-1v-1zm-5 5h1v1h-1zm0 1v1h-1v-1zm-1 1v1h-1v-1zm-1 1v1h-1v-1zm40 0h1v1h-1zm-2 3h1v1h-1zm-2 3h1v1h-1zm-2 3h1v1h-1zm-2 3h1v1h-1zm0 1v1h-1v-1zm-2 2h1v1h-1zm0 1v1h-1v-1zm-2 2h1v1h-1zm0 1v1h-1v-1z"/><path fill="#5d5d5d" fill-rule="evenodd" d="M68 8h1v1h-1zm0 1v1h-1v-1zm-5 5h1v1h-1zm0 1v1h-1v-1zm-1 1v1h-1v-1zm-1 1v1h-1v-1zm26 1h1v1h-1zm-2 3h1v1h-1zm-29 1h1v1h-1zm0 1v1h-1v-1zm-1 1v1h-1v-1zm-1 1v1h-1v-1zm29-1h1v1h-1zm-67 43h1v1h-1zm-3 4h1v1h-1zm0 1v1h-1v-1zm-1 1v1h-1v-1zm-1 1v1h-1v-1zm-1 1v1h-1v-1zm39-1h1v1h-1zm0 1v1h-1v-1zm-2 2h1v1h-1zm0 1v1h-1v-1zm-3 3h1v1h-1zm-2 3h1v1h-1zm-2 3h1v1h-1zm-2 3h1v1h-1zm0 1v1h-1v-1zm-2 2h1v1h-1zm0 1v1h-1v-1zm7 4h1v1h-1z"/><path fill="#6e6e6e" fill-rule="evenodd" d="M69 8h1v1h-1zm2 2h1v1h-1zm11 4h1v1h-1zm0 1v1h-1v-1zm-11 0h1v1h-1zm0 1v1h-1v-1zm-1 1v1h-1v-1zm-1 1v1h-1v-1zm11-1h1v1h-1zm0 1v1h-1v-1zm-12 1v1h-1v-1zm-5 5h1v1h-1zm0 1v1h-1v-1zm-1 1v1h-1v-1zm-1 1v1h-1v-1zm-38 8h1v1h-1zm59 14h1v1h-1zm-39 21h1v2h-1zm-2 4h1v1h-1zm-23 1h1v1h-1zm0 1v1h-1v-1zm34-1h1v1h-1zm-13 2h1v1h-1zm0 1v1h-1v-1zm-2 2h1v1h-1zm0 1v1h-1v-1zm-24 0h1v1h-1zm0 1v1h-1v-1zm22 1h1v1h-1zm0 1v1h-1v-1zm-3 3h1v1h-1zm-2 3h1v1h-1zm16 9h1v1h-1z"/><path fill="#8a8a8a" fill-rule="evenodd" d="M73 8h1v1h-1zm-2 1h1v1h-1zm7 14h1v1h-1zm-30 2h1v1h-1zm26 3h1v1h-1zm0 1v1h-1v-1zm-1 1v1h-1v-1zm-1 1v1h-1v-1zm-5 5h1v1h-1zm0 1v1h-1v-1zm-1 1v1h-1v-1zm-1 1v1h-1v-1zm-2 2h1v1h-1zm-46 19h1v1h-1zm19 2h1v1h-1zm-2 3h1v1h-1zm-2 3h1v1h-1zm-2 3h1v1h-1zm-2 3h1v1h-1zm0 1v1h-1v-1zm-2 2h1v1h-1zm0 1v1h-1v-1zm-2 2h1v1h-1zm0 1v1h-1v-1zm-1 5h1v1h-1zm0 1v1h-1v-1zm2-1h1v1h-1zm-3 2v1h-1v-1z"/><path fill="#888" fill-rule="evenodd" d="M74 8h1v1h-1zm0 1v1h-1v-1zm-1 1v1h-1v-1zm5 12h1v1h-1zm0 1v1h-1v-1zm-5 5h1v1h-1zm0 1v1h-1v-1zm-1 1v1h-1v-1zm-1 1v1h-1v-1zm-5 5h1v1h-1zm0 1v1h-1v-1zm-1 1v1h-1v-1zm-1 1v2h-1v-2zm16 17h1v1h-1zm-43 6h1v1h-1zm-2 3h1v1h-1zm-2 3h1v1h-1zm-2 3h1v1h-1zm0 1v1h-1v-1zm34 1h1v1h-1zm-36 1h1v1h-1zm0 1v1h-1v-1zm21-1h1v1h-1zm-23 3h1v1h-1zm0 1v1h-1v-1zm-3 3h1v1h-1zm0 1v1h-1v-1zm-1 3h1v1h-1zm0 1v1h-1v-1zm-1 1v1h-1v-1zm-1 1v2h-1v-2z"/><path fill="#868686" fill-rule="evenodd" d="M75 8h1v1h-1zm0 1v1h-1v-1zm2 13h1v1h-1zm0 1v1h-1v-1zm-5 5h1v1h-1zm0 1v1h-1v-1zm-1 1v1h-1v-1zm-1 1v1h-1v-1zm-5 5h1v1h-1zm0 1v1h-1v-1zm-1 1v1h-1v-1zm-47 16h1v1h-1zm19 11h1v1h-1zm0 1v1h-1v-1zm-2 2h1v1h-1zm0 1v1h-1v-1zm-2 2h1v1h-1zm0 1v1h-1v-1zm-2 2h1v1h-1zm0 1v1h-1v-1zm-3 3h1v1h-1zm-2 3h1v1h-1zm-2 2h1v1h-1zm-2 3h1v1h-1zm0 1v1h-1v-1zm-1 1v1h-1v-1zm6-1h1v1h-1z"/><path fill="#838383" fill-rule="evenodd" d="M76 8h1v1h-1zm-1 2h1v1h-1zm0 1v1h-1v-1zm2 9h1v1h-1zm1 1h1v1h-1zm-4 3h1v1h-1zm0 1v1h-1v-1zm-1 1v1h-1v-1zm-1 1v1h-1v-1zm-1 1v1h-1v-1zm-5 5h1v1h-1zm0 1v1h-1v-1zm-1 1v1h-1v-1zm-1 1v1h-1v-1zm11 29h1v1h-1zm-39 2h1v1h-1zm-2 3h1v1h-1zm0 1v1h-1v-1zm-2 2h1v1h-1zm0 1v1h-1v-1zm-2 2h1v1h-1zm0 1v1h-1v-1zm-3 3h1v1h-1zm-5 3h1v1h-1zm0 1v1h-1v-1zm3-1h1v1h-1zm-4 2v1h-1v-1z"/><path fill="#040404" fill-rule="evenodd" d="M21 9h1v1h-1zm0 1v1h-1v-1zm-1 1v1h-1v-1zm-4 4h1v1h-1zm0 1v1h-1v-1zm-1 1v1h-1v-1zm-1 1v1h-1v-1zm-1 1v1h-1v-1zm-5 5h1v1h-1zm0 1v1h-1v-1zm-1 1v1h-1v-1zm88 41h1v1h-1zm-2 3h1v1h-1zm-2 3h1v1h-1zm0 1v1h-1v-1zm-2 2h1v1h-1zm0 1v1h-1v-1zm-2 2h1v1h-1zm0 1v1h-1v-1zm-3 3h1v1h-1zm-2 3h1v1h-1z"/><path fill="#5f5f5f" fill-rule="evenodd" d="M68 9h1v1h-1zm-4 5h1v1h-1zm0 1v1h-1v-1zm-1 1v1h-1v-1zm-1 1v1h-1v-1zm24 1h1v1h-1zm-1 2h1v1h-1zm0 1v1h-1v-1zm-28 1h1v1h-1zm0 1v1h-1v-1zm-1 1v1h-1v-1zm-12 0h1v1h-1zm11 1v1h-1v-1zm27-1h1v1h-1zm-52 4h1v1h-1zm46 36h1v1h-1zm-59 2h1v1h-1zm-3 5h1v1h-1zm0 1v1h-1v-1zm-1 1v1h-1v-1zm-1 1v1h-1v-1zm36 0h1v1h-1zm0 1v1h-1v-1zm-2 2h1v1h-1zm0 1v1h-1v-1zm-2 2h1v1h-1zm0 1v1h-1v-1zm-3 3h1v1h-1zm-2 3h1v1h-1zm-2 3h1v1h-1zm-2 3h1v1h-1z"/><path fill="#848484" fill-rule="evenodd" d="M75 9h1v1h-1zm2 12h1v1h-1zm0 1v1h-1v-1zm-1 1v1h-1v-1zm-5 5h1v1h-1zm0 1v1h-1v-1zm-1 1v1h-1v-1zm-1 1v1h-1v-1zm-1 1v1h-1v-1zm14 4h1v1h-1zm-19 1h1v1h-1zm0 1v1h-1v-1zm19 10h1v1h-1zm-65 13h1v1h-1zm20 4h1v1h-1zm0 1v1h-1v-1zm-2 2h1v1h-1zm0 1v1h-1v-1zm-3 3h1v1h-1zm-2 3h1v1h-1zm-2 3h1v1h-1zm-7 1h1v1h-1zm5 2h1v1h-1zm-6 5h1v1h-1zm0 1v1h-1v-1z"/><path fill="#828282" fill-rule="evenodd" d="M76 9h1v1h-1zm-2 3h1v1h-1zm2 9h1v1h-1zm0 1v1h-1v-1zm-1 1v1h-1v-1zm-1 1v1h-1v-1zm6 2h1v1h-1zm-11 3h1v1h-1zm0 1v1h-1v-1zm-1 1v1h-1v-1zm-1 1v1h-1v-1zm-5 5h1v1h-1zm-24 27h1v2h-1zm0 2v1h-1v-1zm-3 3h1v1h-1zm-2 3h1v1h-1zm-2 3h1v1h-1zm-2 3h1v1h-1zm0 1v1h-1v-1zm-2 2h1v1h-1zm0 1v1h-1v-1zm-2 2h1v1h-1zm-6 2h1v1h-1zm0 1v1h-1v-1z"/><path fill="gray" fill-rule="evenodd" d="M77 9h1v1h-1zm-2 3h1v1h-1zm2 7h1v1h-1zm-2 2h1v1h-1zm0 1v1h-1v-1zm-1 1v1h-1v-1zm-1 1v1h-1v-1zm-5 5h1v1h-1zm0 1v1h-1v-1zm-1 1v1h-1v-1zm-1 1v1h-1v-1zm-28 34h1v1h-1zm-2 3h1v1h-1zm-2 3h1v1h-1zm-2 3h1v1h-1zm0 1v1h-1v-1zm-2 2h1v1h-1zm0 1v1h-1v-1zm-2 2h1v1h-1zm0 1v1h-1v-1zm-7 0h1v1h-1z"/><path fill="#0b0b0b" fill-rule="evenodd" d="M24 10h1v1h-1zm0 1v1h-1v-1zm-1 1v1h-1v-1zm-1 1v1h-1v-1zm-1 1v1h-1v-1zm-5 5h1v1h-1zm0 1v1h-1v-1zm-1 1v1h-1v-1zm-1 1v1h-1v-1zm-5 5h1v1h-1zm0 1v1h-1v-1zm-1 1v1h-1v-1zm-1 1v1h-1v-1zm-5 5h1v1h-1zm97 21h1v1h-1zm-1 2h1v1h-1zm0 1v1h-1v-1zm-2 2h1v1h-1zm0 1v1h-1v-1zm-2 2h1v1h-1zm0 1v1h-1v-1zm-3 3h1v1h-1zm-2 3h1v1h-1zm-2 3h1v1h-1zm-2 3h1v1h-1zm0 1v1h-1v-1zm-2 2h1v1h-1zm0 1v1h-1v-1zm-2 2h1v1h-1zm0 1v1h-1v-1zm-3 3h1v1h-1zm-2 3h1v1h-1z"/><path fill="#5a5a5a" fill-rule="evenodd" d="M65 10h1v1h-1zm0 1v1h-1v-1zm-1 1v1h-1v-1zm-1 1v1h-1v-1zm-1 1v1h-1v-1zm-5 5h1v1h-1zm0 1v1h-1v-1zm31-1h1v1h-1zm0 1v1h-1v-1zm-32 1v1h-1v-1zm-1 1v1h-1v-1zm30 1h1v1h-1zm-2 3h1v1h-1zm-2 28h1v1h-1zm-67 14h1v1h-1zm0 1v1h-1v-1zm-1 1v1h-1v-1zm-1 1v1h-1v-1zm37 5h1v1h-1zm0 1v1h-1v-1zm-2 2h1v1h-1zm0 1v1h-1v-1zm-3 3h1v1h-1zm-2 3h1v1h-1zm-2 3h1v1h-1zm-2 3h1v1h-1z"/><path fill="#5c5c5c" fill-rule="evenodd" d="M66 10h1v1h-1zm0 1v1h-1v-1zm-1 1v1h-1v-1zm-1 1v1h-1v-1zm-5 5h1v1h-1zm0 1v1h-1v-1zm-1 1v1h-1v-1zm29-1h1v1h-1zm0 1v1h-1v-1zm-30 1v1h-1v-1zm-1 1v1h-1v-1zm29 0h1v1h-1zm0 1v1h-1v-1zm-43 1h1v1h-1zm10 2h1v1h-1zm30 0h1v1h-1zm-67 42h1v1h-1zm0 1v1h-1v-1zm-1 1v1h-1v-1zm-1 1v1h-1v-1zm-5 5h1v1h-1zm40 0h1v1h-1zm-2 3h1v1h-1zm0 1v1h-1v-1zm-2 2h1v1h-1zm0 1v1h-1v-1zm-2 2h1v1h-1zm0 1v1h-1v-1zm-3 3h1v1h-1zm-2 3h1v1h-1z"/><path fill="#5e5e5e" fill-rule="evenodd" d="M67 10h1v1h-1zm0 1v1h-1v-1zm-1 1v1h-1v-1zm-1 1v1h-1v-1zm22 4h1v1h-1zm-27 1h1v1h-1zm0 1v1h-1v-1zm-1 1v1h-1v-1zm27-1h1v1h-1zm-28 2v1h-1v-1zm26 1h1v1h-1zm0 1v1h-1v-1zm-41 1h1v1h-1zm39 1h1v1h-1zm0 1v2h-1v-2zm-29 0h1v1h-1zm-36 41h1v1h-1zm0 1v1h-1v-1zm-1 1v1h-1v-1zm-1 1v1h-1v-1zm-5 5h1v1h-1zm0 1v1h-1v-1zm-1 1v1h-1v-1zm38-1h1v1h-1zm-2 3h1v1h-1zm-2 3h1v1h-1zm0 1v1h-1v-1zm-2 2h1v1h-1zm0 1v1h-1v-1zm-2 2h1v1h-1zm0 1v1h-1v-1zm-3 3h1v1h-1zm2 4h1v1h-1z"/><path fill="#626262" fill-rule="evenodd" d="M69 10h1v1h-1zm0 1v1h-1v-1zm-1 1v1h-1v-1zm-5 5h1v1h-1zm0 1v1h-1v-1zm-1 1v1h-1v-1zm-1 1v1h-1v-1zm23-1h1v1h-1zm-24 2v1h-1v-1zm22 1h1v1h-1zm-27 4h1v1h-1zm0 1v1h-1v-1zm-38 42h1v1h-1zm0 1v1h-1v-1zm-5 5h1v1h-1zm0 1v1h-1v-1zm34-1h1v1h-1zm0 1v1h-1v-1zm-35 1v1h-1v-1zm-1 1v1h-1v-1zm34 0h1v1h-1zm0 1v1h-1v-1zm-3 3h1v1h-1zm-2 3h1v1h-1zm-2 3h1v1h-1zm-2 3h1v1h-1zm0 1v1h-1v-1z"/><path fill="#646464" fill-rule="evenodd" d="M70 10h1v1h-1zm0 1v1h-1v-1zm-1 1v1h-1v-1zm16 4h1v1h-1zm-21 1h1v1h-1zm0 1v1h-1v-1zm-1 1v1h-1v-1zm21-1h1v1h-1zm0 1v1h-1v-1zm-22 1v1h-1v-1zm20 1h1v1h-1zm0 1v1h-1v-1zm-25 3h1v1h-1zm0 1v1h-1v-1zm-1 1v1h-1v-1zm-1 1v1h-1v-1zm-38 42h1v1h-1zm-4 5h1v1h-1zm0 1v1h-1v-1zm32-1h1v1h-1zm0 1v1h-1v-1zm-33 1v1h-1v-1zm-1 1v1h-1v-1zm32 0h1v1h-1zm0 1v1h-1v-1zm-2 2h1v1h-1zm0 1v1h-1v-1zm-3 3h1v1h-1zm-2 3h1v1h-1zm-2 3h1v1h-1z"/><path fill="#858585" fill-rule="evenodd" d="M74 10h1v1h-1zm0 1v1h-1v-1zm1 13h1v1h-1zm0 1v1h-1v-1zm-1 1v1h-1v-1zm-1 1v1h-1v-1zm-5 5h1v1h-1zm0 1v1h-1v-1zm-1 1v1h-1v-1zm-1 1v1h-1v-1zm-1 1v1h-1v-1zm-28 28h1v1h-1zm-2 3h1v1h-1zm-17 2h1v1h-1zm15 1h1v1h-1zm34 2h1v1h-1zm-36 1h1v1h-1zm-2 3h1v1h-1zm0 1v1h-1v-1zm-2 2h1v1h-1zm0 1v1h-1v-1zm-5 1h1v1h-1zm3 1h1v1h-1zm0 1v2h-1v-2zm-3 1h1v1h-1zm0 1v1h-1v-1z"/><path fill="#818181" fill-rule="evenodd" d="M76 10h1v1h-1zm0 1v1h-1v-1zm0 9h1v1h-1zm-4 5h1v1h-1zm0 1v1h-1v-1zm-1 1v1h-1v-1zm-1 1v1h-1v-1zm-5 5h1v1h-1zm0 1v1h-1v-1zm-1 1v1h-1v-1zm-1 1v1h-1v-1zm-46 17h1v1h-1zm64 0h1v1h-1zm-44 14h1v1h-1zm0 1v1h-1v-1zm-2 2h1v1h-1zm0 1v1h-1v-1zm-2 2h1v1h-1zm0 1v1h-1v-1zm-3 3h1v1h-1zm-2 3h1v1h-1zm-6 2h1v1h-1zm0 1v1h-1v-1zm-1 1v1h-1v-1zm5-1h1v1h-1zm-6 2v1h-1v-1zm-1 1v1h-1v-1zm6-1h1v1h-1zm2 3h1v1h-1z"/><path fill="#7c7c7c" fill-rule="evenodd" d="M78 10h1v1h-1zm-4 3h1v1h-1zm1 1h1v-1h1v1h-1v1h-1zm-3 8h1v1h-1zm0 1v1h-1v-1zm-1 1v1h-1v-1zm-1 1v1h-1v-1zm-5 5h1v1h-1zm0 1v1h-1v-1zm-1 1v1h-1v-1zm-1 1v1h-1v-1zm-24 34h1v1h-1zm-1 2h1v1h-1zm0 1v1h-1v-1zm32 0h1v1h-1zm-34 2h1v1h-1zm0 1v1h-1v-1zm-3 3h1v1h-1zm-2 3h1v1h-1zm-11 2h1v1h-1zm0 1v1h-1v-1zm9 0h1v1h-1zm-2 3h1v1h-1zm-11 1h1v1h-1z"/><path fill="#7a7a7a" fill-rule="evenodd" d="M79 10h1v1h-1zm-2 3h1v1h-1zm-2 4h1v1h-1zm-4 5h1v1h-1zm0 1v1h-1v-1zm-1 1v1h-1v-1zm-1 1v1h-1v-1zm-37 2h1v1h-1zm32 3h1v1h-1zm0 1v1h-1v-1zm-1 1v1h-1v-1zm-1 1v1h-1v-1zm20 2h1v1h-1zm-42 32h1v1h-1zm-2 3h1v1h-1zm-2 3h1v1h-1zm-2 3h1v1h-1zm-2 3h1v1h-1zm-12 1h1v1h-1zm0 1v1h-1v-1zm-1 1v1h-1v-1zm-1 1v1h-1v-1zm12-1h1v1h-1zm0 1v1h-1v-1zm-2 2h1v1h-1zm0 1v1h-1v-1z"/><path fill="#010101" fill-rule="evenodd" d="M18 11h1v1h-1zm0 1v1h-1v-1zm-1 1v1h-1v-1zm-1 1v1h-1v-1zm-1 1v1h-1v-1zm-5 5h1v1h-1zm0 1v1h-1v-1zm-1 1v1h-1v-1zm87 45h1v1h-1zm-1 2h1v1h-1zm-2 3h1v1h-1zm-2 3h1v1h-1zm-2 3h1v1h-1zm0 1v1h-1v-1zm-2 2h1v1h-1zm0 1v1h-1v-1zm-2 2h1v1h-1zm0 1v1h-1v-1z"/><path fill="#050505" fill-rule="evenodd" d="M20 11h1v1h-1zm0 1v1h-1v-1zm-1 1v1h-1v-1zm-1 1v1h-1v-1zm-5 5h1v1h-1zm0 1v1h-1v-1zm-1 1v1h-1v-1zm-1 1v1h-1v-1zm-1 1v1h-1v-1zm-5 5h1v1h-1zm0 1v1h-1v-1zm91 36h1v1h-1zm0 1v1h-1v-1zm-2 2h1v1h-1zm0 1v1h-1v-1zm-2 2h1v1h-1zm0 1v1h-1v-1zm-3 3h1v1h-1zm-2 3h1v1h-1zm-2 3h1v1h-1zm-2 3h1v1h-1zm-2 3h1v1h-1zm0 1v1h-1v-1z"/><path fill="#070707" fill-rule="evenodd" d="M21 11h1v1h-1zm0 1v1h-1v-1zm-1 1v1h-1v-1zm-1 1v1h-1v-1zm-5 5h1v1h-1zm0 1v1h-1v-1zm-1 1v1h-1v-1zm-1 1v1h-1v-1zm-5 5h1v1h-1zm0 1v1h-1v-1zm-1 1v1h-1v-1zm-1 1v1h-1v-1zm92 32h1v1h-1zm-2 3h1v1h-1zm-2 3h1v1h-1zm0 1v1h-1v-1zm-2 2h1v1h-1zm0 1v1h-1v-1zm-2 2h1v1h-1zm0 1v1h-1v-1zm-3 3h1v1h-1zm-2 3h1v1h-1zm-2 3h1v1h-1zm-2 3h1v1h-1zm-3 4h1v1h-1z"/><path fill="#565656" fill-rule="evenodd" d="M62 11h1v1h-1zm0 1v1h-1v-1zm-1 1v1h-1v-1zm-1 1v1h-1v-1zm-5 5h1v1h-1zm0 1v1h-1v-1zm34-1h1v2h-1zm-35 2v1h-1v-1zm-1 1v1h-1v-1zm34 1h1v1h-1zm0 1v1h-1v-1zm-2 2h1v1h-1zm0 1v1h-1v-1zm-2 2h1v1h-1zm0 1v1h-1v-1zm-67 33h1v1h-1zm0 1v1h-1v-1zm-4 4h1v1h-1zm0 1v1h-1v-1zm-1 1v1h-1v-1zm-1 1v1h-1v-1zm-1 1v1h-1v-1zm41 5h1v1h-1zm-2 3h1v1h-1zm-2 3h1v1h-1zm-2 3h1v1h-1zm0 1v1h-1v-1zm-2 2h1v1h-1zm0 1v1h-1v-1zm-2 2h1v1h-1zm0 1v1h-1v-1z"/><path fill="#666" fill-rule="evenodd" d="M70 11h1v1h-1zm0 1v1h-1v-1zm15 3h1v1h-1zm-20 2h1v1h-1zm0 1v1h-1v-1zm-1 1v1h-1v-1zm19-1h1v1h-1zm0 1v1h-1v-1zm-20 1v1h-1v-1zm18 1h1v1h-1zm0 1v1h-1v-1zm-23 3h1v1h-1zm0 1v1h-1v-1zm-1 1v1h-1v-1zm-1 1v1h-1v-1zm-39 37h1v1h-1zm-2 9h1v1h-1zm0 1v1h-1v-1zm-1 1v1h-1v-1zm30-1h1v1h-1zm-31 2v1h-1v-1zm29 1h1v1h-1zm-32 2h1v1h-1zm30 1h1v1h-1zm0 1v1h-1v-1zm-2 2h1v1h-1zm0 1v1h-1v-1zm-2 2h1v1h-1zm0 1v1h-1v-1zm-3 3h1v1h-1zm3 4h1v1h-1z"/><path fill="#686868" fill-rule="evenodd" d="M71 11h1v1h-1zm13 4h1v1h-1zm-17 1h1v1h-1zm0 1v1h-1v-1zm-1 1v1h-1v-1zm-1 1v1h-1v-1zm17-1h1v1h-1zm-18 2v1h-1v-1zm16 1h1v1h-1zm-21 4h1v1h-1zm0 1v1h-1v-1zm-1 1v1h-1v-1zm-1 1v1h-1v-1zm-41 46h1v1h-1zm0 1v1h-1v-1zm-1 1v1h-1v-1zm28-1h1v1h-1zm17 0h1v1h-1zm-46 2v1h-1v-1zm27 1h1v1h-1zm-2 3h1v1h-1zm-2 3h1v1h-1zm0 1v1h-1v-1zm-2 2h1v1h-1zm0 1v1h-1v-1zm-2 2h1v1h-1zm0 1v2h-1v-2z"/><path fill="#747474" fill-rule="evenodd" d="M72 11h1v1h-1zm8 2h1v1h-1zm0 1v1h-1v-1zm-6 0h1v2h-1zm0 2v1h-1v-1zm-1 1v1h-1v-1zm-1 1v1h-1v-1zm5-1h1v1h-1zm-10 6h1v1h-1zm0 1v1h-1v-1zm-1 1v1h-1v-1zm-1 1v1h-1v-1zm-31 0h1v1h-1zm26 5h1v1h-1zm0 1v1h-1v-1zm-19 38h1v1h-1zm0 1v1h-1v-1zm-2 2h1v1h-1zm0 1v1h-1v-1zm-2 2h1v1h-1zm0 1v1h-1v-1zm-20 3h1v1h-1zm0 1v1h-1v-1zm17-1h1v1h-1zm-18 2v1h-1v-1zm-1 1v2h-1v-2zm17 0h1v1h-1zm-2 3h1v1h-1z"/><path fill="#7f7f7f" fill-rule="evenodd" d="M76 11h1v1h-1zm0 8h1v1h-1zm0 1v1h-1v-1zm-5 5h1v1h-1zm0 1v1h-1v-1zm-1 1v1h-1v-1zm-1 1v1h-1v-1zm-40 1h1v1h-1zm35 4h1v1h-1zm0 1v1h-1v-1zm-1 1v1h-1v-1zm-1 1v1h-1v-1zm-23 29h1v1h-1zm-1 2h1v1h-1zm0 1v1h-1v-1zm-3 3h1v1h-1zm-2 3h1v1h-1zm-2 3h1v1h-1zm-2 3h1v1h-1zm-9 3h1v1h-1zm0 1v1h-1v-1zm7-1h1v1h-1zm0 1v1h-1v-1zm-8 1v1h-1v-1zm-1 1v2h-1v-2z"/><path fill="#7d7d7d" fill-rule="evenodd" d="M77 11h1v1h-1zm-1 7h1v1h-1zm0 1v1h-1v-1zm-1 1v1h-1v-1zm-1 1v1h-1v-1zm-4 4h1v1h-1zm0 1v1h-1v-1zm-1 1v1h-1v-1zm-1 1v1h-1v-1zm-1 1v1h-1v-1zm-5 5h1v1h-1zm0 1v1h-1v-1zm-45 27h1v1h-1zm22 4h1v1h-1zm-1 2h1v1h-1zm-2 3h1v1h-1zm-2 3h1v1h-1zm-14 3h1v1h-1zm12 0h1v1h-1zm0 1v1h-1v-1zm-11 2h1v1h-1zm9 0h1v1h-1zm0 1v1h-1v-1zm-11 2h1v1h-1zm0 1v1h-1v-1zm9-1h1v1h-1zm0 1v1h-1v-1zm-10 1v1h-1v-1zm8 1h1v1h-1z"/><path fill="#7b7b7b" fill-rule="evenodd" d="M78 11h1v1h-1zm0 1v1h-1v-1zm-2 2h1v1h-1zm0 3h1v1h-1zm0 1v1h-1v-1zm-1 1v1h-1v-1zm-1 1v1h-1v-1zm-1 1v1h-1v-1zm-5 5h1v1h-1zm0 1v1h-1v-1zm-1 1v1h-1v-1zm-1 1v1h-1v-1zm-5 5h1v1h-1zm-22 34h1v1h-1zm-2 3h1v1h-1zm-18 3h1v1h-1zm16 0h1v1h-1zm0 1v1h-1v-1zm24 0h1v1h-1zm-26 2h1v1h-1zm0 1v1h-1v-1zm-2 2h1v1h-1zm0 1v1h-1v-1zm-13 2h1v1h-1zm0 1v1h-1v-1zm-1 1v1h-1v-1zm11-1h1v1h-1zm1 6h1v1h-1z"/><path fill="#767676" fill-rule="evenodd" d="M80 11h1v1h-1zm-1 2h1v1h-1zm0 1v1h-1v-1zm-5 2h1v1h-1zm0 1v1h-1v-1zm3-1h1v1h-1zm-8 6h1v1h-1zm0 1v1h-1v-1zm-1 1v1h-1v-1zm-1 1v1h-1v-1zm-1 1v1h-1v-1zm-5 5h1v1h-1zm0 1v1h-1v-1zm-1 1v1h-1v-1zm-19 35h1v1h-1zm-1 2h1v1h-1zm-2 3h1v1h-1zm0 1v1h-1v-1zm-2 2h1v1h-1zm0 1v1h-1v-1zm-2 2h1v1h-1zm0 1v1h-1v-1zm-16 0h1v1h-1zm0 1v1h-1v-1zm-1 1v1h-1v-1zm-1 1v1h-1v-1zm15 0h1v1h-1zm-2 3h1v1h-1z"/><path fill="#030303" fill-rule="evenodd" d="M18 12h1v1h-1zm0 1v1h-1v-1zm-1 1v1h-1v-1zm-1 1v1h-1v-1zm-5 5h1v1h-1zm0 1v1h-1v-1zm-1 1v1h-1v-1zm-1 1v1h-1v-1zm-4 4h1v1h-1zm92 37h1v1h-1zm-1 2h1v1h-1zm-1 2h1v1h-1zm0 1v1h-1v-1zm-3 3h1v1h-1zm-2 3h1v1h-1zm-2 3h1v1h-1zm-2 3h1v1h-1zm0 1v1h-1v-1zm-2 2h1v1h-1zm0 1v1h-1v-1zm-3 3h1v1h-1z"/><path fill="#676767" fill-rule="evenodd" d="M70 12h1v1h-1zm0 1v1h-1v-1zm-1 1v1h-1v-1zm-1 1v1h-1v-1zm-1 1v1h-1v-1zm17 0h1v1h-1zm0 1v1h-1v-1zm-3 3h1v1h-1zm-19 1h1v1h-1zm0 1v1h-1v-1zm-1 1v1h-1v-1zm-1 1v1h-1v-1zm-11 1h1v1h-1zm-32 26h1v1h-1zm0 21h1v1h-1zm0 1v1h-1v-1zm28-1h1v2h-1zm0 2v1h-1v-1zm-2 2h1v1h-1zm0 1v1h-1v-1zm-31 1h1v1h-1zm0 1v1h-1v-1zm29 0h1v1h-1zm0 1v1h-1v-1zm-3 3h1v1h-1zm-2 3h1v1h-1zm-2 3h1v1h-1zm6 8h1v1h-1z"/><path fill="#696969" fill-rule="evenodd" d="M71 12h1v1h-1zm0 1v1h-1v-1zm-1 1v1h-1v-1zm-1 1v1h-1v-1zm15-1h1v1h-1zm-1 2h1v1h-1zm0 1v1h-1v-1zm-2 2h1v1h-1zm0 1v1h-1v-1zm-17 0h1v1h-1zm0 1v1h-1v-1zm-1 1v1h-1v-1zm-1 1v1h-1v-1zm-1 1v1h-1v-1zm-5 5h1v1h-1zm-38 43h1v1h-1zm0 1v1h-1v-1zm26 0h1v1h-1zm-2 3h1v1h-1zm0 1v1h-1v-1zm-29 1h1v1h-1zm0 1v1h-1v-1zm-1 1v1h-1v-1zm28-1h1v1h-1zm0 1v1h-1v-1zm-2 2h1v1h-1zm0 1v1h-1v-1zm-3 3h1v1h-1zm-2 3h1v1h-1zm0 4h1v1h-1z"/><path fill="#6b6b6b" fill-rule="evenodd" d="M72 12h1v1h-1zm0 1v1h-1v-1zm-1 1v1h-1v-1zm-1 1v1h-1v-1zm12 1h1v1h-1zm-2 3h1v1h-1zm0 1v1h-1v-1zm-15 0h1v1h-1zm0 1v1h-1v-1zm-1 1v1h-1v-1zm-1 1v1h-1v-1zm-5 5h1v1h-1zm0 1v1h-1v-1zm-14 42h1v1h-1zm-26 2h1v1h-1zm25 0h1v1h-1zm-2 3h1v1h-1zm-27 2h1v1h-1zm0 1v1h-1v-1zm-1 1v1h-1v-1zm26-1h1v1h-1zm0 1v1h-1v-1zm-2 2h1v1h-1zm0 1v1h-1v-1zm-2 2h1v1h-1zm0 1v1h-1v-1zm-3 3h1v1h-1z"/><path fill="#787878" fill-rule="evenodd" d="M73 12h1v1h-1zm5 1h1v1h-1zm-3 2h1v1h1v1h-2zm0 2v1h-1v-1zm2 1h1v1h-1zm-7 4h1v1h-1zm0 1v1h-1v-1zm-1 1v1h-1v-1zm-1 1v1h-1v-1zm13 4h1v1h-1zm-18 1h1v1h-1zm0 1v1h-1v-1zm-1 1v1h-1v-1zm-1 1v2h-1v-2zm-22 37h1v1h-1zm-2 3h1v1h-1zm-2 3h1v1h-1zm0 1v1h-1v-1zm-15 1h1v1h-1zm13 1h1v1h-1zm0 1v1h-1v-1zm-14 0h1v1h-1zm0 1v1h-1v-1zm-1 1v1h-1v-1zm-1 1v1h-1v-1zm14-1h1v1h-1zm0 1v1h-1v-1zm-2 2h1v1h-1zm0 1v1h-1v-1zm5 8h1v1h-1z"/><path fill="#777" fill-rule="evenodd" d="M79 12h1v1h-1zm-2 3h1v1h-1zm-4 3h1v1h-1zm0 1v1h-1v-1zm-1 1v1h-1v-1zm-1 1v1h-1v-1zm7-1h1v1h-1zm-12 6h1v1h-1zm0 1v1h-1v-1zm-1 1v1h-1v-1zm-1 1v1h-1v-1zm-1 1v1h-1v-1zm-46 33h1v1h-1zm23 6h1v1h-1zm-1 2h1v1h-1zm0 1v1h-1v-1zm-3 3h1v1h-1zm-2 3h1v1h-1zm-15 1h1v1h-1zm13 2h1v1h-1zm-17 3h1v1h-1zm15 0h1v1h-1zm-2 3h1v1h-1z"/><path fill="#757575" fill-rule="evenodd" d="M80 12h1v1h-1zm-2 3h1v1h-1zm-6 3h1v1h-1zm0 1v1h-1v-1zm-1 1v1h-1v-1zm-1 1v1h-1v-1zm-1 1v1h-1v-1zm11 3h1v1h-1zm-16 2h1v1h-1zm0 1v1h-1v-1zm-1 1v1h-1v-1zm-1 1v1h-1v-1zm-21 39h1v1h-1zm-2 3h1v1h-1zm24 2h1v1h-1zm-26 1h1v1h-1zm-18 3h1v1h-1zm0 1v1h-1v-1zm16-1h1v1h-1zm-2 3h1v1h-1zm0 1v1h-1v-1zm-2 2h1v1h-1zm0 1v1h-1v-1zm-2 2h1v1h-1zm0 1v1h-1v-1z"/><path fill="#737373" fill-rule="evenodd" d="M81 12h1v1h-1zm-2 3h1v1h-1zm0 1v1h-1v-1zm-9 3h1v1h-1zm0 1v1h-1v-1zm-1 1v1h-1v-1zm-1 1v1h-1v-1zm-5 5h1v1h-1zm0 1v1h-1v-1zm-1 1v1h-1v-1zm-1 1v1h-1v-1zm-21 42h1v1h-1zm-2 3h1v1h-1zm-19 2h1v1h-1zm0 1v1h-1v-1zm-1 1v1h-1v-1zm18-1h1v1h-1zm0 1v1h-1v-1zm-19 1v1h-1v-1zm17 1h1v1h-1zm0 1v1h-1v-1zm-2 2h1v1h-1zm0 1v1h-1v-1zm-3 3h1v1h-1z"/><path fill="#616161" fill-rule="evenodd" d="M66 13h1v1h-1zm0 1v1h-1v-1zm-1 1v1h-1v-1zm-1 1v1h-1v-1zm-1 1v1h-1v-1zm23-1h1v2h-1zm0 2v1h-1v-1zm-2 2h1v1h-1zm0 1v1h-1v-1zm-26 1h1v1h-1zm0 1v1h-1v-1zm-1 1v1h-1v-1zm25-1h1v1h-1zm0 1v1h-1v-1zm-26 1v1h-1v-1zm23 34h1v1h-1zm-64 12h1v1h-1zm0 1v1h-1v-1zm-1 1v1h-1v-1zm-1 1v1h-1v-1zm34-1h1v2h-1zm-2 4h1v1h-1zm-2 3h1v1h-1zm0 1v1h-1v-1zm-2 2h1v1h-1zm0 1v1h-1v-1zm-2 2h1v1h-1zm0 1v1h-1v-1zm-3 3h1v1h-1zm-2 3h1v1h-1z"/><path fill="#636363" fill-rule="evenodd" d="M67 13h1v1h-1zm0 1v1h-1v-1zm-1 1v1h-1v-1zm-1 1v1h-1v-1zm20 1h1v1h-1zm-2 3h1v1h-1zm-23 1h1v1h-1zm0 1v1h-1v-1zm-1 1v1h-1v-1zm-1 1v1h-1v-1zm23-1h1v1h-1zm-24 2v1h-1v-1zm-41 46h1v1h-1zm0 1v1h-1v-1zm-1 1v1h-1v-1zm-1 1v1h-1v-1zm32 0h1v1h-1zm-2 3h1v1h-1zm-2 3h1v1h-1zm-2 3h1v1h-1zm0 1v1h-1v-1zm-2 2h1v1h-1zm0 1v1h-1v-1zm-2 2h1v1h-1zm0 1v1h-1v-1z"/><path fill="#656565" fill-rule="evenodd" d="M68 13h1v1h-1zm0 1v1h-1v-1zm-1 1v1h-1v-1zm-1 1v1h-1v-1zm18 1h1v1h-1zm-2 3h1v1h-1zm-21 1h1v1h-1zm0 1v1h-1v-1zm-1 1v1h-1v-1zm-1 1v1h-1v-1zm21-1h1v2h-1zm2 10h1v1h-1zm-65 38h1v1h-1zm0 1v1h-1v-1zm-1 1v1h-1v-1zm30-1h1v2h-1zm-31 2v1h-1v-1zm31 0v1h-1v-1zm-3 3h1v1h-1zm-32 1h1v1h-1zm0 1v1h-1v-1zm30 1h1v1h-1zm-2 3h1v1h-1zm-2 3h1v1h-1zm-2 3h1v1h-1zm0 1v1h-1v-1zm-2 2h1v1h-1z"/><path fill="#707070" fill-rule="evenodd" d="M73 13h1v1h-1zm8 1h1v1h-1zm-9 1h1v1h-1zm0 1v1h-1v-1zm-1 1v1h-1v-1zm-1 1v1h-1v-1zm9-1h1v1h-1zm-1 2h1v1h-1zm-13 4h1v1h-1zm0 1v1h-1v-1zm-1 1v1h-1v-1zm-1 1v1h-1v-1zm-1 1v1h-1v-1zm-20 44h1v1h-1zm-2 3h1v1h-1zm-22 2h1v1h-1zm20 1h1v1h-1zm-2 3h1v1h-1zm0 1v1h-1v-1zm-22 0h1v1h-1zm0 1v1h-1v-1zm20 1h1v1h-1zm0 1v1h-1v-1zm-2 2h1v1h-1zm0 1v1h-1v-1z"/><path fill="#6f6f6f" fill-rule="evenodd" d="M82 13h1v1h-1zm-10 1h1v1h-1zm8 2h1v1h-1zm-12 3h1v1h-1zm0 1v1h-1v-1zm-1 1v1h-1v-1zm-1 1v1h-1v-1zm-1 1v1h-1v-1zm-5 5h1v1h-1zm0 1v1h-1v-1zm-1 1v1h-1v-1zm23 4h1v1h-1zm-65 30h1v1h-1zm25 8h1v1h-1zm0 1v1h-1v-1zm-2 2h1v1h-1zm0 1v1h-1v-1zm-23 1h1v1h-1zm0 1v1h-1v-1zm-1 1v1h-1v-1zm-1 1v1h-1v-1zm22-1h1v1h-1zm-2 3h1v1h-1zm-2 3h1v1h-1zm-2 3h1v1h-1zm0 1v1h-1v-1z"/><path fill="#727272" fill-rule="evenodd" d="M80 14h1v1h-1zm-7 1h1v1h-1zm0 1v1h-1v-1zm-1 1v1h-1v-1zm-1 1v1h-1v-1zm7-1h1v1h-1zm-12 6h1v1h-1zm0 1v1h-1v-1zm-1 1v1h-1v-1zm-1 1v1h-1v-1zm-5 5h1v1h-1zm-17 38h1v2h-1zm0 2v1h-1v-1zm-3 3h1v1h-1zm-20 2h1v1h-1zm18 1h1v1h-1zm-2 3h1v1h-1zm-20 1h1v1h-1zm0 1v1h-1v-1zm18 1h1v1h-1zm-2 3h1v1h-1zm0 1v1h-1v-1zm-2 2h1v1h-1z"/><path fill="#6a6a6a" fill-rule="evenodd" d="M83 15h1v1h-1zm-15 1h1v1h-1zm0 1v1h-1v-1zm-1 1v1h-1v-1zm-1 1v1h-1v-1zm15-1h1v1h-1zm-2 3h1v1h-1zm-18 3h1v1h-1zm0 1v1h-1v-1zm-1 1v1h-1v-1zm-1 1v1h-1v-1zm-1 1v1h-1v-1zm23 0h1v1h-1zm-37 44h1v1h-1zm-27 2h1v1h-1zm0 1v1h-1v-1zm26-1h1v1h-1zm0 1v1h-1v-1zm-27 1v1h-1v-1zm-1 1v1h-1v-1zm25 1h1v1h-1zm-29 3h1v1h-1zm27 0h1v1h-1zm-2 3h1v1h-1zm-2 3h1v1h-1zm0 1v1h-1v-1zm-2 2h1v1h-1zm0 1v1h-1v-1z"/><path fill-rule="evenodd" d="M13 16h1v1h-1zm0 1v1h-1v-1zm-1 1v1h-1v-1zm83 52h1v1h-1zm0 1v2h-1v-2zm-1 2v1h-1v-1zm-1 1v2h-1v-2zm-1 2v2h-1v1h-1v-2h1v-1zm-2 3v1h-1v-1zm-1 1v2h-1v-2zm-1 2v1h-1v-1zm-1 1v1h-1v-1z"/><path fill="#020202" fill-rule="evenodd" d="M14 16h1v1h-1zm0 1v1h-1v-1zm-1 1v1h-1v-1zm-1 1v1h-1v-1zm-5 5h1v1h-1zm87 46h1v1h-1zm0 1v1h-1v-1zm-2 2h1v1h-1zm0 1v1h-1v-1zm-2 2h1v1h-1zm0 1v1h-1v-1zm-3 3h1v1h-1zm-2 3h1v1h-1zm-2 3h1v1h-1zm0 1v1h-1v-1z"/><path fill="#9a9a9a" fill-rule="evenodd" d="M38 25h1v1h-1zm40 8h1v1h-1zm0 1v1h-1v-1zm-1 1v1h-1v-1zm-1 1v1h-1v-1zm-1 1v1h-1v-1zm-53 0h1v1h-1zm49 4h1v1h-1zm0 1v1h-1v-1zm-1 1v1h-1v-1zm-1 1v1h-1v-1zm-1 1v1h-1v-1zm-34 9h1v1h-1zm-2 3h1v1h-1zm-2 3h1v1h-1zm-2 3h1v1h-1zm-2 3h1v1h-1zm48 0h1v1h-1zm-50 3h1v1h-1zm0 1v1h-1v-1zm-2 2h1v1h-1zm0 1v1h-1v-1zm5 18h1v1h-1zm0 1v1h-1v-1z"/><path fill="#b1b1b1" fill-rule="evenodd" d="M39 25h1v1h-1zm3 2h1v1h-1zm0 1v1h-1v-1zm-2 2h1v1h-1zm0 1v1h-1v-1zm-2 2h1v1h-1zm0 1v1h-1v-1zm-3 3h1v1h-1zm-2 3h1v1h-1zm-2 3h1v1h-1zm50 0h1v1h-1zm0 1v1h-1v-1zm-1 1v1h-1v-1zm-51 1h1v1h-1zm0 1v1h-1v-1zm-2 2h1v1h-1zm0 1v1h-1v-1zm48 0h1v1h-1zm0 1v1h-1v-1zm-1 1v1h-1v-1zm-49 0h1v1h-1zm0 1v1h-1v-1zm48 0v1h-1v-1zm-51 3h1v1h-1zm46 2h1v1h-1zm0 1v1h-1v-1zm-48 0h1v1h-1zm47 1v1h-1v-1zm-1 1v1h-1v-1zm-1 1v1h-1v-1zm-47 0h1v1h-1zm42 5h1v1h-1zm0 1v1h-1v-1zm-1 1v1h-1v-1zm-1 1v1h-1v-1z"/><path fill="#b8b8b8" fill-rule="evenodd" d="M40 25h1v1h-1zm-2 3h1v1h-1zm-2 3h1v1h-1zm0 1v1h-1v-1zm-2 2h1v1h-1zm0 1v1h-1v-1zm-2 2h1v1h-1zm0 1v1h-1v-1zm-3 3h1v1h-1zm-2 3h1v1h-1zm-2 3h1v1h-1zm56 0h1v1h-1zm0 1v1h-1v-1zm-58 2h1v1h-1zm0 1v1h-1v-1zm-2 2h1v1h-1zm0 1v1h-1v-1zm55-1h1v1h-1zm0 1v1h-1v-1zm-1 1v1h-1v-1zm-1 1v1h-1v-1zm-55 0h1v1h-1zm0 1v1h-1v-1zm54 0v1h-1v-1zm-4 4h1v1h-1zm0 1v1h-1v-1zm-1 1v1h-1v-1zm-1 1v1h-1v-1zm-1 1v1h-1v-1zm-5 5h1v1h-1zm0 1v1h-1v-1zm-1 1v1h-1v-1zm-1 1v1h-1v-1zm-22 24h2v1h-2z"/><path fill="#b6b6b6" fill-rule="evenodd" d="M41 25h1v1h-1zm0 1v1h-1v-1zm-2 2h1v1h-1zm0 1v1h-1v-1zm-2 2h1v1h-1zm0 1v1h-1v-1zm-2 2h1v1h-1zm0 1v1h-1v-1zm-3 3h1v1h-1zm-2 3h1v1h-1zm-2 3h1v1h-1zm53 2h1v1h-1zm0 1v1h-1v-1zm-55 0h1v1h-1zm0 1v1h-1v-1zm54 0v1h-1v-1zm-1 1v1h-1v-1zm-55 1h1v1h-1zm0 1v1h-1v-1zm-2 2h1v1h-1zm0 1v1h-1v-1zm52 0h1v1h-1zm0 1v1h-1v-1zm-1 1v1h-1v-1zm-1 1v1h-1v-1zm-53 0h1v1h-1zm48 5h1v1h-1zm0 1v1h-1v-1zm-1 1v1h-1v-1zm-1 1v1h-1v-1zm-5 5h1v1h-1zm0 1v1h-1v-1zm-1 1v1h-1v-1zm-1 1v1h-1v-1zm-22 24h1v1h-1z"/><path fill="#b4b4b4" fill-rule="evenodd" d="M42 25h1v1h-1zm0 1v1h-1v-1zm-2 2h1v1h-1zm0 1v1h-1v-1zm-3 3h1v1h-1zm-2 3h1v1h-1zm-2 3h1v1h-1zm-2 3h1v1h-1zm-2 3h1v1h-1zm0 1v1h-1v-1zm51 1h1v1h-1zm0 1v1h-1v-1zm-53 0h1v1h-1zm0 1v1h-1v-1zm52 0v1h-1v-1zm-1 1v1h-1v-1zm-53 1h1v1h-1zm0 1v1h-1v-1zm-3 3h1v1h-1zm51 0h1v1h-1zm0 1v1h-1v-1zm-1 1v1h-1v-1zm-1 1v1h-1v-1zm-51 0h1v1h-1zm-2 3h1v1h-1zm48 2h1v1h-1zm0 1v1h-1v-1zm-1 1v1h-1v-1zm-1 1v1h-1v-1zm-5 5h1v1h-1zm0 1v1h-1v-1zm-1 1v1h-1v-1zm-1 1v1h-1v-1zm-1 1v1h-1v-1zm-21 23h1v1h-1z"/><path fill="#b2b2b2" fill-rule="evenodd" d="M43 25h1v1h-1zm0 1v1h-1v-1zm-3 3h1v1h-1zm-2 3h1v1h-1zm-2 3h1v1h-1zm-2 3h1v1h-1zm0 1v1h-1v-1zm-2 2h1v1h-1zm0 1v1h-1v-1zm-2 2h1v1h-1zm0 1v1h-1v-1zm49 1h1v1h-1zm0 1v1h-1v-1zm-1 1v1h-1v-1zm-51 0h1v1h-1zm50 1v1h-1v-1zm-52 2h1v1h-1zm-2 3h1v1h-1zm49 0h1v1h-1zm0 1v1h-1v-1zm-1 1v1h-1v-1zm-1 1v1h-1v-1zm-49 0h1v1h-1zm-2 3h1v1h-1zm0 1v1h-1v-1zm46 1h1v1h-1zm0 1v1h-1v-1zm-1 1v1h-1v-1zm-1 1v1h-1v-1zm-1 1v1h-1v-1zm-5 5h1v1h-1zm0 1v1h-1v-1zm-1 1v1h-1v-1zm-1 1v1h-1v-1zm-20 22h2v1h-2z"/><path fill="#afafaf" fill-rule="evenodd" d="M44 25h1v1h-1zm-1 2h1v1h-1zm0 1v1h-1v-1zm-16 3h1v1h-1zm13 0h1v1h-1zm-2 3h1v1h-1zm-2 3h1v1h-1zm-2 3h1v1h-1zm47 2h1v1h-1zm0 1v1h-1v-1zm-49 0h1v1h-1zm0 1v1h-1v-1zm48 0v1h-1v-1zm-1 1v1h-1v-1zm-1 1v1h-1v-1zm-48 0h1v1h-1zm0 1v1h-1v-1zm-2 2h1v1h-1zm0 1v1h-1v-1zm45 1h1v1h-1zm0 1v1h-1v-1zm-1 1v1h-1v-1zm-47 0h1v1h-1zm46 1v1h-1v-1zm-48 2h1v1h-1zm-2 3h1v1h-1zm45 0h1v1h-1zm0 1v1h-1v-1zm-1 1v1h-1v-1zm-1 1v1h-1v-1zm-45 0h1v1h-1zm0 1v1h-1v-1zm40 4h1v1h-1zm0 1v1h-1v-1zm-3 2h1v1h-1zm-22 25h1v1h-1z"/><path fill="#adadad" fill-rule="evenodd" d="M45 25h1v1h-1zm-2 3h1v1h-1zm-2 3h1v1h-1zm0 1v1h-1v-1zm-3 3h1v1h-1zm-2 3h1v1h-1zm-1 2h1v1h-1zm0 1v1h-1v-1zm-2 2h1v1h-1zm0 1v1h-1v-1zm46-1h1v1h-1zm0 1v1h-1v-1zm-60 0h1v1h-1zm59 1v1h-1v-1zm-1 1v1h-1v-1zm-47 1h1v1h-1zm-2 3h1v1h-1zm44 1h1v1h-1zm0 1v1h-1v-1zm-1 1v1h-1v-1zm-45 0h1v1h-1zm44 1v1h-1v-1zm-46 2h1v1h-1zm-2 3h1v1h-1zm0 1v1h-1v-1zm43-1h1v1h-1zm0 1v1h-1v-1zm-1 1v1h-1v-1zm-1 1v1h-1v-1zm-43 0h1v1h-1zm0 1v1h-1v-1zm-2 2h1v1h-1zm15 30h1v2h-1z"/><path fill="#8d8d8d" fill-rule="evenodd" d="M78 25h1v1h-1zm0 1v1h-1v-1zm-5 5h1v1h-1zm0 1v1h-1v-1zm-1 1v1h-1v-1zm-1 1v1h-1v-1zm-5 5h1v1h-1zm0 1v1h-1v-1zm-1 1v1h-1v-1zm-29 19h1v1h-1zm-2 3h1v1h-1zm-2 3h1v1h-1zm-2 3h1v1h-1zm-2 3h1v1h-1zm0 1v1h-1v-1zm-2 2h1v1h-1zm0 1v1h-1v-1zm-2 2h1v1h-1zm0 1v1h-1v-1zm-1 1v1h-1v-1zm-1 9h1v1h-1zm0 1v1h-1v-1z"/><path fill="#acacac" fill-rule="evenodd" d="M35 26h1v1h-1zm10 0h1v1h-1zm0 1v1h-1v-1zm-3 3h1v1h-1zm-3 4h1v1h-1zm-1 2h1v1h-1zm0 1v1h-1v-1zm-2 2h1v1h-1zm45 1h1v1h-1zm0 1v1h-1v-1zm-1 1v1h-1v-1zm-46 0h1v1h-1zm-2 3h1v1h-1zm0 1v1h-1v-1zm43 1h1v1h-1zm0 1v1h-1v-1zm-45 0h1v1h-1zm0 1v1h-1v-1zm44 0v1h-1v-1zm-1 1v1h-1v-1zm-45 1h1v1h-1zm0 1v1h-1v-1zm-3 3h1v1h-1zm43 0h1v1h-1zm0 1v1h-1v-1zm-1 1v1h-1v-1zm-1 1v1h-1v-1zm-43 0h1v1h-1zm-2 3h1v1h-1zm40 2h1v1h-1zm-42 1h1v1h-1zm33 9h1v1h-1z"/><path fill="#bfbfbf" fill-rule="evenodd" d="M36 26h1v1h-1zm-2 3h1v1h-1zm-2 3h1v1h-1zm-2 3h1v1h-1zm0 1v1h-1v-1zm-2 2h1v1h-1zm0 1v1h-1v-1zm-2 2h1v1h-1zm0 1v1h-1v-1zm-3 3h1v1h-1zm-2 3h1v1h-1zm-2 3h1v1h-1zm58 5h1v1h-1zm0 1v1h-1v-1zm-1 1v1h-1v-1zm-1 1v1h-1v-1zm-1 1v1h-1v-1zm-4 4h1v1h-1zm0 1v1h-1v-1zm-1 1v1h-1v-1zm-1 1v1h-1v-1zm-1 1v1h-1v-1zm-1 4h1v1h-1zm-4 1h1v1h-1z"/><path fill="#bdbdbd" fill-rule="evenodd" d="M37 26h1v1h-1zm-2 3h1v1h-1zm-2 3h1v1h-1zm0 1v1h-1v-1zm-2 2h1v1h-1zm0 1v1h-1v-1zm-2 2h1v1h-1zm0 1v1h-1v-1zm-3 3h1v1h-1zm-2 3h1v1h-1zm-2 3h1v1h-1zm59 2h1v1h-1zm0 1v1h-1v-1zm-61 0h1v1h-1zm0 1v1h-1v-1zm60 0v1h-1v-1zm-62 2h1v1h-1zm57 3h1v1h-1zm0 1v1h-1v-1zm-1 1v1h-1v-1zm-1 1v1h-1v-1zm-5 5h1v1h-1zm0 1v1h-1v-1zm-1 1v1h-1v-1zm-1 1v1h-1v-1zm-5 5h1v1h-1zm0 1v1h-1v-1z"/><path fill="#bbb" fill-rule="evenodd" d="M38 26h1v1h-1zm0 1v1h-1v-1zm-2 2h1v1h-1zm0 1v1h-1v-1zm-2 2h1v1h-1zm0 1v1h-1v-1zm-3 3h1v1h-1zm-2 3h1v1h-1zm-2 3h1v1h-1zm-2 3h1v1h-1zm-2 3h1v1h-1zm0 1v1h-1v-1zm58 0h1v1h-1zm0 1v1h-1v-1zm-1 1v1h-1v-1zm-59 0h1v1h-1zm0 1v1h-1v-1zm58 0v1h-1v-1zm-60 2h1v1h-1zm0 1v1h-1v-1zm61 0h1v1h-1zm-6 2h1v1h-1zm0 1v1h-1v-1zm-1 1v1h-1v-1zm-1 1v1h-1v-1zm-5 5h1v1h-1zm0 1v1h-1v-1zm-1 1v1h-1v-1zm-1 1v1h-1v-1zm-5 5h1v1h-1zm0 1v1h-1v-1z"/><path fill="#b9b9b9" fill-rule="evenodd" d="M39 26h1v1h-1zm0 1v1h-1v-1zm-2 2h1v1h-1zm0 1v1h-1v-1zm-3 3h1v1h-1zm-2 3h1v1h-1zm-2 3h1v1h-1zm-2 3h1v1h-1zm0 1v1h-1v-1zm-2 2h1v1h-1zm0 1v1h-1v-1zm-2 2h1v1h-1zm0 1v1h-1v-1zm56 0h1v1h-1zm0 1v1h-1v-1zm-1 1v1h-1v-1zm-1 1v1h-1v-1zm-57 0h1v1h-1zm-2 3h1v1h-1zm54 2h1v1h-1zm0 1v1h-1v-1zm-1 1v1h-1v-1zm-1 1v1h-1v-1zm-5 5h1v1h-1zm0 1v1h-1v-1zm-1 1v1h-1v-1zm-1 1v1h-1v-1zm-1 1v1h-1v-1zm-5 5h1v1h-1zm-14 25h1v1h-1z"/><path fill="#b0b0b0" fill-rule="evenodd" d="M43 26h1v1h-1zm-2 3h1v1h-1zm-2 3h1v1h-1zm-2 3h1v1h-1zm0 1v1h-1v-1zm-2 2h1v1h-1zm0 1v1h-1v-1zm-2 2h1v1h-1zm0 1v1h-1v-1zm-3 3h1v1h-1zm48 1h1v1h-1zm0 1v1h-1v-1zm-1 1v1h-1v-1zm-49 0h1v1h-1zm48 1v1h-1v-1zm-1 1v1h-1v-1zm-49 1h1v1h-1zm-2 3h1v1h-1zm0 1v1h-1v-1zm47-1h1v1h-1zm0 1v1h-1v-1zm-1 1v1h-1v-1zm-1 1v1h-1v-1zm-47 0h1v1h-1zm0 1v1h-1v-1zm46 0v1h-1v-1zm-48 2h1v1h-1zm0 1v1h-1v-1zm43 2h1v1h-1zm0 1v1h-1v-1zm-1 1v1h-1v-1zm-1 1v1h-1v-1zm-5 5h1v1h-1zm0 1v1h-1v-1zm-1 1v1h-1v-1zm-1 1v1h-1v-1zm-20 22h1v1h-1z"/><path fill="#aeaeae" fill-rule="evenodd" d="M44 26h1v1h-1zm-2 3h1v1h-1zm0 1v1h-1v-1zm-3 3h1v1h-1zm-2 3h1v1h-1zm-2 3h1v1h-1zm46 2h1v1h-1zm0 1v1h-1v-1zm-48 0h1v1h-1zm-2 3h1v1h-1zm45 2h1v1h-1zm0 1v1h-1v-1zm-58 0h1v1h-1zm11 0h1v1h-1zm46 1v1h-1v-1zm-1 1v1h-1v-1zm-47 1h1v1h-1zm0 1v1h-1v-1zm-2 2h1v1h-1zm0 1v1h-1v-1zm44 0h1v1h-1zm0 1v1h-1v-1zm-1 1v1h-1v-1zm-45 0h1v1h-1zm0 1v1h-1v-1zm44 0v1h-1v-1zm-47 3h1v1h-1zm42 2h1v1h-1zm0 1v1h-1v-1zm-44 0h1v1h-1zm43 1v1h-1v-1zm-4 4h1v1h-1zm-2 2h1v1h-1zm0 1v1h-1v-1zm-1 1v1h-1v-1zm-1 1v1h-1v-1zm-12 24h1v1h-1z"/><path fill="#a4a4a4" fill-rule="evenodd" d="M48 26h1v1h-1zm33 9h1v1h-1zm-4 5h1v1h-1zm0 1v1h-1v-1zm-1 1v1h-1v-1zm-1 1v1h-1v-1zm-40 2h1v1h-1zm35 3h1v1h-1zm0 1v1h-1v-1zm-37 0h1v1h-1zm0 1v1h-1v-1zm36 0v1h-1v-1zm-1 1v1h-1v-1zm-37 1h1v1h-1zm0 1v1h-1v-1zm-2 2h1v1h-1zm0 1v1h-1v-1zm35-1h1v1h-1zm-38 4h1v1h-1zm-2 3h1v1h-1zm-2 3h1v1h-1zm-2 3h1v1h-1zm52 0h1v1h-1zm-39 26h1v1h-1z"/><path fill="#bcbcbc" fill-rule="evenodd" d="M33 27h1v1h-1zm3 1h1v1h-1zm-2 3h1v1h-1zm-2 3h1v1h-1zm-2 3h1v1h-1zm-2 3h1v1h-1zm0 1v1h-1v-1zm-2 2h1v1h-1zm0 1v1h-1v-1zm-2 2h1v1h-1zm0 1v1h-1v-1zm-3 3h1v1h-1zm-2 3h1v1h-1zm59 0h1v1h-1zm0 1v1h-1v-1zm-1 1v1h-1v-1zm-1 1v1h-1v-1zm-5 5h1v1h-1zm0 1v1h-1v-1zm-1 1v1h-1v-1zm-1 1v1h-1v-1zm-5 5h1v1h-1zm0 1v1h-1v-1zm-1 1v1h-1v-1zm-1 1v1h-1v-1zm2 1h1v1h-1zm-3 1h1v1h-1zm-22 24h1v1h-1z"/><path fill="#c2c2c2" fill-rule="evenodd" d="M34 27h1v1h-1zm-2 3h1v1h-1zm-2 3h1v1h-1zm0 1v1h-1v-1zm-7 2h1v1h-1zm5 0h1v1h-1zm0 1v1h-1v-1zm-2 2h1v1h-1zm0 1v1h-1v-1zm-3 3h1v1h-1zm-2 3h1v1h-1zm-2 3h1v1h-1zm61 5h1v1h-1zm0 1v1h-1v-1zm-5 5h1v1h-1zm0 1v1h-1v-1zm-1 1v1h-1v-1zm-1 1v1h-1v-1zm-5 5h1v1h-1zm0 1v1h-1v-1zm-1 1v1h-1v-1zm-1 1v1h-1v-1z"/><path fill="silver" fill-rule="evenodd" d="M35 27h1v1h-1zm0 1v1h-1v-1zm-2 2h1v1h-1zm0 1v1h-1v-1zm-2 2h1v1h-1zm0 1v1h-1v-1zm-3 3h1v1h-1zm-2 3h1v1h-1zm-2 3h1v1h-1zm-2 3h1v1h-1zm-4 3h1v1h-1zm1 1h1v-1h1v1h-1v1h-1zm-1 2h1v1h-1zm62 1h1v1h-1zm0 1v1h-1v-1zm-1 1v1h-1v-1zm-5 5h1v1h-1zm0 1v1h-1v-1zm-1 1v1h-1v-1zm-1 1v1h-1v-1zm-5 5h1v1h-1zm0 1v1h-1v-1zm-1 1v1h-1v-1zm-1 1v1h-1v-1zm-1 1v1h-1v-1z"/><path fill="#bebebe" fill-rule="evenodd" d="M36 27h1v1h-1zm0 1v1h-1v-1zm-2 2h1v1h-1zm0 1v1h-1v-1zm-3 3h1v1h-1zm-2 3h1v1h-1zm-2 3h1v1h-1zm-2 3h1v1h-1zm0 1v1h-1v-1zm-2 2h1v1h-1zm0 1v1h-1v-1zm-2 2h1v1h-1zm0 1v1h-1v-1zm60 1h1v1h-1zm0 1v1h-1v-1zm-1 1v1h-1v-1zm-62 0h1v1h-1zm61 1v1h-1v-1zm-1 1v1h-1v-1zm-1 1v1h-1v-1zm-5 5h1v1h-1zm0 1v1h-1v-1zm-1 1v1h-1v-1zm-1 1v1h-1v-1zm-5 5h1v1h-1zm0 1v1h-1v-1zm-1 1v1h-1v-1zm-1 1v1h-1v-1zm-23 26h1v1h-1z"/><path fill="#b7b7b7" fill-rule="evenodd" d="M39 27h1v1h-1zm-2 3h1v1h-1zm-2 3h1v1h-1zm-2 3h1v1h-1zm-2 3h1v1h-1zm0 1v1h-1v-1zm-2 2h1v1h-1zm0 1v1h-1v-1zm-2 2h1v1h-1zm0 1v1h-1v-1zm-3 3h1v1h-1zm55 0h1v1h-1zm0 1v1h-1v-1zm-1 1v1h-1v-1zm-1 1v1h-1v-1zm-55 0h1v1h-1zm54 1v1h-1v-1zm-56 2h1v1h-1zm-2 3h1v1h-1zm53 0h1v1h-1zm0 1v1h-1v-1zm-1 1v1h-1v-1zm-1 1v1h-1v-1zm-5 5h1v1h-1zm0 1v1h-1v-1zm-1 1v1h-1v-1zm-1 1v1h-1v-1zm-5 5h1v1h-1z"/><path fill="#b5b5b5" fill-rule="evenodd" d="M40 27h1v1h-1zm-2 3h1v1h-1zm-2 3h1v1h-1zm-2 3h1v1h-1zm0 1v1h-1v-1zm-2 2h1v1h-1zm0 1v1h-1v-1zm-2 2h1v1h-1zm0 1v1h-1v-1zm51 2h1v1h-1zm-54 1h1v1h-1zm-2 3h1v1h-1zm52 1h1v1h-1zm0 1v1h-1v-1zm-1 1v1h-1v-1zm-53 0h1v1h-1zm52 1v1h-1v-1zm-54 2h1v1h-1zm0 1v1h-1v-1zm-2 2h1v1h-1zm0 1v1h-1v-1zm51-1h1v1h-1zm0 1v1h-1v-1zm-1 1v1h-1v-1zm-1 1v1h-1v-1zm-5 5h1v1h-1zm0 1v1h-1v-1zm-1 1v1h-1v-1zm-1 1v1h-1v-1zm7 2h1v1h-1zm-12 3h1v1h-1z"/><path fill="#b3b3b3" fill-rule="evenodd" d="M41 27h1v1h-1zm-10 1h1v1h-1zm8 2h1v1h-1zm0 1v1h-1v-1zm-13 1h1v1h-1zm11 1h1v1h-1zm0 1v1h-1v-1zm-2 2h1v1h-1zm0 1v1h-1v-1zm-3 3h1v1h-1zm-2 3h1v1h-1zm51 1h1v1h-1zm0 1v1h-1v-1zm-53 1h1v1h-1zm-2 3h1v1h-1zm50 1h1v1h-1zm0 1v1h-1v-1zm-1 1v1h-1v-1zm-51 0h1v1h-1zm0 1v1h-1v-1zm50 0v1h-1v-1zm-52 2h1v1h-1zm0 1v1h-1v-1zm-2 2h1v1h-1zm0 1v1h-1v-1zm49-1h1v1h-1zm0 1v1h-1v-1zm-1 1v1h-1v-1zm-1 1v1h-1v-1zm-5 5h1v1h-1zm0 1v1h-1v-1zm-1 1v1h-1v-1zm-1 1v1h-1v-1zm-1 1v1h-1v-1z"/><path fill="#c5c5c5" fill-rule="evenodd" d="M32 28h1v1h-1zm0 1v1h-1v-1zm-2 2h1v1h-1zm0 1v1h-1v-1zm-2 2h1v1h-1zm0 1v1h-1v-1zm-3 3h1v1h-1zm-2 3h1v1h-1zm-2 3h1v1h-1zm-2 3h1v1h-1zm60 10h1v1h-1zm0 1v1h-1v-1zm-1 1v1h-1v-1zm-5 5h1v1h-1zm0 1v1h-1v-1zm-1 1v1h-1v-1zm-1 1v1h-1v-1z"/><path fill="#c3c3c3" fill-rule="evenodd" d="M33 28h1v1h-1zm0 1v1h-1v-1zm-2 2h1v1h-1zm0 1v1h-1v-1zm-3 3h1v1h-1zm-2 3h1v1h-1zm-2 3h1v1h-1zm-2 3h1v1h-1zm0 1v1h-1v-1zm-2 2h1v1h-1zm0 1v1h-1v-1zm-2 2h1v1h-1zm61 6h1v1h-1zm0 1v1h-1v-1zm-1 1v1h-1v-1zm-1 1v1h-1v-1zm-5 5h1v1h-1zm0 1v1h-1v-1zm-1 1v1h-1v-1zm-1 1v1h-1v-1zm-5 5h1v1h-1z"/><path fill="#bababa" fill-rule="evenodd" d="M37 28h1v1h-1zm-2 3h1v1h-1zm-2 3h1v1h-1zm0 1v1h-1v-1zm-2 2h1v1h-1zm0 1v1h-1v-1zm-2 2h1v1h-1zm0 1v1h-1v-1zm-3 3h1v1h-1zm-2 3h1v1h-1zm57 1h1v1h-1zm-59 2h1v1h-1zm-2 3h1v1h-1zm57 0h1v1h-1zm0 1v1h-1v-1zm-1 1v1h-1v-1zm-1 1v1h-1v-1zm-57 0h1v1h-1zm52 5h1v1h-1zm0 1v1h-1v-1zm-1 1v1h-1v-1zm-1 1v1h-1v-1zm8-1h1v1h-1zm-13 6h1v1h-1zm0 1v1h-1v-1zm-1 1v1h-1v-1zm-1 1v1h-1v-1zm-1 1v1h-1v-1z"/><path fill="#a9a9a9" fill-rule="evenodd" d="M45 28h1v1h-1zm-20 5h1v1h-1zm56 5h1v1h-1zm-4 5h1v1h-1zm0 1v1h-1v-1zm-43 0h1v1h-1zm42 1v1h-1v-1zm-1 1v1h-1v-1zm-1 1v1h-1v-1zm-42 0h1v1h-1zm-2 3h1v1h-1zm0 1v1h-1v-1zm40 0h1v1h-1zm0 1v1h-1v-1zm-1 1v1h-1v-1zm-41 0h1v1h-1zm0 1v1h-1v-1zm40 0v1h-1v-1zm-1 1v1h-1v-1zm-41 1h1v1h-1zm0 1v1h-1v-1zm37 2h1v1h-1zm-40 1h1v1h-1zm-2 3h1v1h-1zm-3 3h2v1h-2zm14 28h1v1h-1z"/><path fill="#949494" fill-rule="evenodd" d="M79 28h1v1h-1zm0 1v1h-1v-1zm-5 5h1v1h-1zm0 1v1h-1v-1zm-1 1v1h-1v-1zm-1 1v1h-1v-1zm-5 5h1v1h-1zm0 1v1h-1v-1zm-1 1v1h-1v-1zm-2 2h1v1h-1zm-29 10h1v2h-1zm0 2v1h-1v-1zm-2 2h1v1h-1zm0 1v1h-1v-1zm44 1h1v1h-1zm-46 1h1v1h-1zm0 1v1h-1v-1zm-3 3h1v1h-1zm-2 3h1v1h-1zm-2 3h1v1h-1zm33 2h1v1h-1zm-35 1h1v1h-1zm0 1v1h-1v-1zm13 18h1v1h-1zm10 4h1v1h-1z"/><path fill="#969696" fill-rule="evenodd" d="M80 28h1v1h-1zm0 1v1h-1v-1zm-5 5h1v1h-1zm0 1v1h-1v-1zm-1 1v1h-1v-1zm-1 1v1h-1v-1zm-5 5h1v1h-1zm0 1v1h-1v-1zm-1 1v1h-1v-1zm-1 1v1h-1v-1zm-2 2h1v1h-1zm-29 8h1v1h-1zm-1 2h1v1h-1zm-2 3h1v1h-1zm0 1v1h-1v-1zm-2 2h1v1h-1zm0 1v1h-1v-1zm-2 2h1v1h-1zm0 1v1h-1v-1zm-3 3h1v1h-1zm-2 3h1v1h-1zm-2 3h1v1h-1zm6 13h1v1h-1zm-2 2h1v1h-1zm14 6h1v1h-1z"/><path fill="#c6c6c6" fill-rule="evenodd" d="M30 29h1v2h-1zm-2 4h1v1h-1zm-2 3h1v1h-1zm-2 3h1v1h-1zm-2 3h1v1h-1zm0 1v1h-1v-1zm-2 2h1v1h-1zm0 1v1h-1v-1zm58 13h1v1h-1zm0 1v1h-1v-1zm-1 1v1h-1v-1zm-1 1v1h-1v-1zm-1 1v1h-1v-1zm-4 4h1v1h-1zm0 1v1h-1v-1zm-1 1v2h-2v-1h1v-1zm-2 2v1h-1v-1z"/><path fill="#c1c1c1" fill-rule="evenodd" d="M33 29h1v1h-1zm-2 3h1v1h-1zm-2 3h1v1h-1zm-2 3h1v1h-1zm-2 3h1v1h-1zm0 1v1h-1v-1zm-2 2h1v1h-1zm0 1v1h-1v-1zm-2 2h1v1h-1zm0 1v1h-1v-1zm-3 3h1v1h-1zm60 5h1v1h-1zm0 1v1h-1v-1zm-1 1v1h-1v-1zm-1 1v1h-1v-1zm-5 5h1v1h-1zm0 1v1h-1v-1zm-1 1v1h-1v-1zm-1 1v1h-1v-1zm-5 5h1v1h-1zm0 1v1h-1v-1z"/><path fill="#ababab" fill-rule="evenodd" d="M43 29h1v1h-1zm-3 4h1v1h-1zm-3 5h1v1h-1zm-2 3h1v1h-1zm43 2h1v1h-1zm0 1v1h-1v-1zm4-1h1v1h-1zm-49 1h1v1h-1zm44 1v1h-1v-1zm-1 1v1h-1v-1zm-45 1h1v1h-1zm-2 3h1v1h-1zm42 1h1v1h-1zm0 1v1h-1v-1zm-1 1v1h-1v-1zm-43 0h1v1h-1zm0 1v1h-1v-1zm42 0v1h-1v-1zm-44 2h1v1h-1zm0 1v1h-1v-1zm-2 2h1v1h-1zm0 1v1h-1v-1zm41-1h1v1h-1zm0 1v1h-1v-1zm-1 1v1h-1v-1zm-43 2h1v1h-1zm33 9h1v1h-1zm-21 23h1v2h-1z"/><path fill="#c8c8c8" fill-rule="evenodd" d="M29 30h1v1h-1zm-2 3h1v1h-1zm-2 3h1v1h-1zm-2 3h1v1h-1zm-2 3h1v1h-1zm56 19h1v1h-1zm0 1v1h-1v-1zm-5 5h1v1h-1zm0 1v1h-1v-1zm-1 1v1h-1v-1z"/><path fill="#c4c4c4" fill-rule="evenodd" d="M31 30h1v1h-1zm-2 3h1v1h-1zm-2 3h1v1h-1zm0 1v1h-1v-1zm-2 2h1v1h-1zm0 1v1h-1v-1zm-2 2h1v1h-1zm0 1v1h-1v-1zm-3 3h1v1h-1zm56 14h1v1h-1zm0 1v1h-1v-1zm-1 1v1h-1v-1zm-1 1v1h-1v-1zm-5 5h1v1h-1zm0 1v1h-1v-1zm-1 1v1h-1v-1zm-1 1v1h-1v-1z"/><path fill="#c9c9c9" fill-rule="evenodd" d="M28 31h1v1h-1zm-2 3h1v1h-1zm-2 3h1v1h-1zm0 1v1h-1v-1zm-2 2h1v1h-1zm0 1v1h-1v-1zm-2 2h1v1h-1zm55 21h1v1h-1zm0 1v1h-1v-1zm-1 1v1h-1v-1z"/><path fill="#c7c7c7" fill-rule="evenodd" d="M29 31h1v1h-1zm0 1v1h-1v-1zm-2 2h1v1h-1zm0 1v1h-1v-1zm-2 2h1v1h-1zm0 1v1h-1v-1zm-2 2h1v1h-1zm0 1v1h-1v-1zm-3 1h1v1h-1zm0 2h1v1h-1zm0 1v1h-1v-1zm55 18h1v1h-1zm0 1v1h-1v-1zm-1 1v1h-1v-1zm-1 1v1h-1v-1z"/><path fill="#cacaca" fill-rule="evenodd" d="M27 32h1v1h-1zm0 1v1h-1v-1zm-2 2h1v1h-1zm0 1v1h-1v-1zm-3 3h1v1h-1z"/><path fill="#9c9c9c" fill-rule="evenodd" d="M79 33h1v1h-1zm0 1v1h-1v-1zm-1 1v1h-1v-1zm-1 1v1h-1v-1zm-5 5h1v1h-1zm0 1v1h-1v-1zm-1 1v1h-1v-1zm-1 1v1h-1v-1zm12 2h1v1h-1zm-17 3h1v1h-1zm-31 4h1v1h-1zm0 1v1h-1v-1zm-2 2h1v1h-1zm0 1v1h-1v-1zm-2 2h1v1h-1zm0 1v1h-1v-1zm-3 3h1v1h-1zm-2 3h1v1h-1zm-2 3h1v1h-1zm-2 3h1v1h-1zm0 1v1h-1v-1zm7 18h2v1h-2zm0 1v1h-1v-1z"/><path fill="#9e9e9e" fill-rule="evenodd" d="M80 33h1v1h-1zm0 1v1h-1v-1zm-1 1v1h-1v-1zm-1 1v1h-1v-1zm-5 5h1v1h-1zm0 1v1h-1v-1zm-1 1v1h-1v-1zm-1 1v1h-1v-1zm-5 5h1v1h-1zm0 1v1h-1v-1zm-1 1v1h-1v-1zm-32 2h1v1h-1zm-2 3h1v1h-1zm0 1v1h-1v-1zm-2 2h1v1h-1zm0 1v1h-1v-1zm-2 2h1v1h-1zm0 1v1h-1v-1zm-3 3h1v1h-1zm-2 3h1v1h-1zm-2 3h1v1h-1zm8 20h1v1h-1zm0 1v1h-1v-1z"/><path fill="#a0a0a0" fill-rule="evenodd" d="M81 33h1v1h-1zm0 1v1h-1v-1zm-1 1v1h-1v-1zm-1 1v1h-1v-1zm-5 5h1v1h-1zm0 1v1h-1v-1zm-1 1v1h-1v-1zm-1 1v1h-1v-1zm-5 5h1v1h-1zm0 1v1h-1v-1zm-33 0h1v1h-1zm32 1v1h-1v-1zm-34 2h1v1h-1zm32 0h1v1h-1zm-34 3h1v1h-1zm-2 3h1v1h-1zm-2 3h1v1h-1zm0 1v1h-1v-1zm-2 2h1v1h-1zm0 1v1h-1v-1zm-6 1h1v1h-1zm4 1h1v1h-1zm0 1v1h-1v-1zm7 23h1v1h-1zm0 1v2h-1v-2z"/><path fill="#cbcbcb" fill-rule="evenodd" d="M25 34h1v1h-1zm-2 3h1v1h-1zm-2 3h1v1h-1z"/><path fill="#a2a2a2" fill-rule="evenodd" d="M81 34h1v1h-1zm0 1v1h-1v-1zm-5 5h1v1h-1zm0 1v1h-1v-1zm-1 1v1h-1v-1zm-1 1v1h-1v-1zm-5 5h1v1h-1zm0 1v1h-1v-1zm-35 0h1v1h-1zm0 1v1h-1v-1zm34 0v1h-1v-1zm-1 1v1h-1v-1zm-1 1v1h-1v-1zm-34 0h1v1h-1zm0 1v1h-1v-1zm32 1h1v1h-1zm-35 2h1v1h-1zm-2 3h1v1h-1zm-2 3h1v1h-1zm-2 3h1v1h-1zm0 1v1h-1v-1zm-2 2h1v1h-1zm0 1v1h-1v-1zm-2 2h1v1h-1zm10 22h1v1h-1z"/><path fill="#ccc" fill-rule="evenodd" d="M24 35h1v1h-1zm-2 3h1v1h-1z"/><path fill="#a6a6a6" fill-rule="evenodd" d="M21 39h1v1h-1zm57 1h1v1h-1zm0 1v1h-1v-1zm-1 1v1h-1v-1zm-1 1v1h-1v-1zm6 1h1v1h-1zm-48 2h1v1h-1zm37 2h1v1h-1zm0 1v1h-1v-1zm-39 0h1v1h-1zm38 1v1h-1v-1zm-1 1v1h-1v-1zm-39 1h1v1h-1zm-2 3h1v1h-1zm0 1v1h-1v-1zm36 0h1v1h-1zm-38 2h1v1h-1zm0 1v1h-1v-1zm-2 2h1v1h-1zm0 1v1h-1v-1zm-3 3h1v1h-1zm-2 3h1v1h-1zm11 27h1v1h-1z"/></svg>