<svg xmlns="http://www.w3.org/2000/svg" viewBox="0 0 100 100" width="1em" height="1em"><path fill="#f04e98" d="M11 0h77v1h-77zM11 1h76v1h-76zM11 2h75v1h-75zM11 3h74v1h-74zM11 4h73v1h-73zM11 5h72v1h-72zM11 6h72v1h-72zM11 7h71v1h-71zM11 8h70v1h-70zM11 9h69v1h-69zM11 10h68v1h-68zM11 11h67v1h-67zM11 12h66v1h-66zM11 13h66v1h-66zM11 14h65v1h-65zM11 15h64v1h-64zM11 16h63v1h-63zM11 17h62v1h-62zM11 18h61v1h-61zM11 19h60v1h-60zM11 20h59v1h-59zM11 21h59v1h-59zM11 22h58v1h-58zM11 23h57v1h-57zM11 24h56v1h-56zM11 25h56v1h-56zM11 26h55v1h-55zM11 27h53v1h-53zM11 28h52v1h-52zM11 29h52v1h-52zM11 30h51v1h-51zM11 31h50v1h-50zM11 32h49v1h-49zM11 33h48v1h-48zM11 34h47v1h-47zM11 35h46v1h-46zM11 36h46v1h-46zM20 37h36v1h-36zM27 38h28v1h-28zM31 39h23v1h-23zM34 40h19v1h-19zM37 41h15v1h-15zM40 42h11v1h-11zM42 43h8v1h-8zM45 44h5v1h-5zM47 45h3v1h-3z" /><path fill="#ef4e98" d="M88 0h1v1h-1z" /><path fill="#ef4d97" d="M87 1h1v1h-1zM85 3h1v1h-1zM84 4h1v1h-1zM77 12h1v1h-1zM76 14h1v1h-1zM73 17h1v1h-1zM64 27h1v1h-1zM54 39h1v1h-1zM52 41h1v1h-1zM51 42h1v1h-1z" /><path fill="#f04e97" d="M86 2h1v1h-1zM80 9h1v1h-1zM75 15h1v1h-1zM74 16h1v1h-1zM67 24h1v1h-1zM55 38h1v1h-1zM53 40h1v1h-1z" /><path fill="#ef4e97" d="M83 5h1v1h-1zM71 19h1v1h-1zM70 20h1v1h-1zM68 23h1v1h-1zM63 28h1v1h-1zM59 33h1v1h-1zM50 43h1v1h-1z" /><path fill="#f04d98" d="M82 7h1v1h-1zM69 22h1v1h-1zM58 34h1v1h-1zM56 37h1v1h-1z" /><path fill="#f04d97" d="M81 8h1v1h-1zM79 10h1v1h-1zM78 11h1v1h-1zM61 31h1v1h-1z" /><path fill="#ef4d98" d="M72 18h1v1h-1zM62 30h1v1h-1zM60 32h1v1h-1zM57 35h1v1h-1z" /><path fill="#7a3f60" d="M11 37h2v1h-2zM32 40h1v1h-1z" /><path fill="#8a4069" d="M13 37h1v1h-1z" /><path fill="#8c416a" d="M14 37h1v1h-1z" /><path fill="#98426f" d="M15 37h1v1h-1z" /><path fill="#a74576" d="M16 37h1v1h-1zM24 38h1v1h-1z" /><path fill="#c34884" d="M17 37h1v1h-1z" /><path fill="#da4b8d" d="M18 37h1v1h-1z" /><path fill="#ec4e97" d="M19 37h1v1h-1z" /><path fill="#343741" d="M11 38h9v1h-9zM11 39h15v1h-15zM11 40h19v1h-19zM11 41h23v1h-23zM11 42h26v1h-26zM11 43h28v1h-28zM11 44h31v1h-31zM11 45h33v1h-33zM11 46h35v1h-35zM11 47h36v1h-36zM11 48h35v1h-35zM11 49h34v1h-34zM11 50h33v1h-33zM11 51h33v1h-33zM11 52h32v1h-32zM11 53h31v1h-31zM11 54h30v1h-30zM11 55h29v1h-29zM11 56h28v1h-28zM11 57h27v1h-27zM11 58h27v1h-27zM11 59h26v1h-26zM11 60h25v1h-25zM11 61h24v1h-24zM11 62h23v1h-23zM11 63h22v1h-22zM11 64h21v1h-21zM11 65h21v1h-21zM11 66h20v1h-20zM11 67h19v1h-19zM11 68h18v1h-18zM11 69h17v1h-17zM11 70h16v1h-16zM11 71h15v1h-15zM11 72h14v1h-14zM11 73h13v1h-13zM11 74h13v1h-13zM11 75h12v1h-12zM11 76h11v1h-11zM11 77h10v1h-10zM11 78h9v1h-9zM11 79h8v1h-8zM11 80h7v1h-7zM11 81h7v1h-7zM11 82h6v1h-6zM11 83h5v1h-5zM11 84h4v1h-4zM11 85h3v1h-3zM11 86h2v1h-2zM11 87h1v1h-1z" /><path fill="#353741" d="M20 38h1v1h-1z" /><path fill="#3e3845" d="M21 38h1v1h-1z" /><path fill="#573c51" d="M22 38h1v1h-1z" /><path fill="#7c3f62" d="M23 38h1v1h-1z" /><path fill="#d24a8a" d="M25 38h1v1h-1z" /><path fill="#ee4e96" d="M26 38h1v1h-1z" /><path fill="#343640" d="M26 39h1v1h-1zM46 48h1v1h-1zM40 55h1v1h-1zM35 61h1v1h-1zM34 62h1v1h-1zM13 86h1v1h-1z" /><path fill="#443949" d="M27 39h1v1h-1z" /><path fill="#723e5e" d="M28 39h1v1h-1zM38 42h1v1h-1z" /><path fill="#a74577" d="M29 39h1v1h-1z" /><path fill="#e44c93" d="M30 39h1v1h-1z" /><path fill="#333641" d="M30 40h1v1h-1zM45 49h1v1h-1zM38 57h1v1h-1zM29 68h1v1h-1zM25 72h1v1h-1zM12 87h1v1h-1z" /><path fill="#403746" d="M31 40h1v1h-1z" /><path fill="#cc4987" d="M33 40h1v1h-1z" /><path fill="#383842" d="M34 41h1v1h-1z" /><path fill="#6a3d5a" d="M35 41h1v1h-1z" /><path fill="#ca4985" d="M36 41h1v1h-1z" /><path fill="#393743" d="M37 42h1v1h-1z" /><path fill="#d54c8c" d="M39 42h1v1h-1z" /><path fill="#343740" d="M39 43h1v1h-1zM42 53h1v1h-1zM24 73h1v1h-1zM18 80h1v1h-1zM15 84h1v1h-1z" /><path fill="#473a4b" d="M40 43h1v1h-1z" /><path fill="#b14679" d="M41 43h1v1h-1z" /><path fill="#3d3845" d="M42 44h1v1h-1z" /><path fill="#95426e" d="M43 44h1v1h-1z" /><path fill="#ea4c96" d="M44 44h1v1h-1z" /><path fill="#363742" d="M44 45h1v1h-1z" /><path fill="#844065" d="M45 45h1v1h-1z" /><path fill="#ea4e96" d="M46 45h1v1h-1z" /><path fill="#373641" d="M46 46h1v1h-1z" /><path fill="#8e426a" d="M47 46h1v1h-1z" /><path fill="#eb4d95" d="M48 46h1v1h-1z" /><path fill="#333740" d="M47 47h1v1h-1zM43 52h1v1h-1zM39 56h1v1h-1zM32 64h1v1h-1zM28 69h1v1h-1zM16 83h1v1h-1zM14 85h1v1h-1z" /><path fill="#333640" d="M44 50h1v1h-1zM36 60h1v1h-1zM33 63h1v1h-1zM19 79h1v1h-1zM11 88h1v1h-1z" /><path fill="#00beb3" d="M56 52h1v1h-1zM57 53h1v1h-1zM63 58h1v1h-1zM49 60h1v1h-1zM47 62h1v1h-1zM45 65h1v1h-1zM72 68h1v1h-1zM41 69h1v1h-1zM75 72h1v1h-1zM76 73h1v1h-1zM37 74h1v1h-1zM34 77h1v1h-1zM33 78h1v1h-1zM30 82h1v1h-1zM28 84h1v1h-1zM83 87h1v1h-1zM24 89h1v1h-1zM84 89h1v1h-1zM84 90h1v1h-1zM20 93h1v1h-1zM85 93h1v1h-1zM17 97h1v1h-1zM86 97h1v1h-1z" /><path fill="#00bfb3" d="M55 53h2v1h-2zM55 54h4v1h-4zM54 55h6v1h-6zM53 56h8v1h-8zM52 57h10v1h-10zM52 58h11v1h-11zM51 59h14v1h-14zM50 60h16v1h-16zM49 61h18v1h-18zM48 62h20v1h-20zM46 63h22v1h-22zM46 64h23v1h-23zM46 65h25v1h-25zM45 66h26v1h-26zM44 67h28v1h-28zM43 68h29v1h-29zM42 69h32v1h-32zM40 70h35v1h-35zM39 71h36v1h-36zM39 72h36v1h-36zM39 73h37v1h-37zM38 74h39v1h-39zM37 75h41v1h-41zM35 76h44v1h-44zM35 77h44v1h-44zM34 78h46v1h-46zM33 79h47v1h-47zM33 80h48v1h-48zM32 81h49v1h-49zM31 82h51v1h-51zM30 83h52v1h-52zM29 84h53v1h-53zM28 85h54v1h-54zM27 86h56v1h-56zM26 87h57v1h-57zM25 88h59v1h-59zM25 89h59v1h-59zM23 90h61v1h-61zM22 91h63v1h-63zM22 92h63v1h-63zM21 93h64v1h-64zM20 94h66v1h-66zM19 95h67v1h-67zM19 96h68v1h-68zM18 97h68v1h-68zM16 98h71v1h-71zM16 99h71v1h-71z" /><path fill="#343641" d="M41 54h1v1h-1zM27 70h1v1h-1zM26 71h1v1h-1zM23 75h1v1h-1z" /><path fill="#00beb2" d="M54 54h1v1h-1zM59 54h1v1h-1zM53 55h1v1h-1zM52 56h1v1h-1zM61 56h1v1h-1zM51 58h1v1h-1zM69 64h1v1h-1zM44 66h1v1h-1zM43 67h1v1h-1zM42 68h1v1h-1zM38 73h1v1h-1zM36 75h1v1h-1zM32 80h1v1h-1zM82 85h1v1h-1zM26 86h1v1h-1zM18 96h1v1h-1zM15 99h1v1h-1z" /><path fill="#00bfb2" d="M60 55h1v1h-1zM62 57h1v1h-1zM50 59h1v1h-1zM48 61h1v1h-1zM68 63h1v1h-1zM71 66h1v1h-1zM31 81h1v1h-1zM29 83h1v1h-1zM82 84h1v1h-1zM27 85h1v1h-1zM21 92h1v1h-1zM85 92h1v1h-1zM19 94h1v1h-1z" /><path fill="#333741" d="M22 76h1v1h-1zM21 77h1v1h-1zM20 78h1v1h-1z" /></svg>