<svg xmlns="http://www.w3.org/2000/svg" viewBox="0 0 100 100" width="1em" height="1em"><path fill="#017aff" d="M88 4h1v1h-1zM92 4h1v1h-1zM95 5h1v1h-1zM84 6h1v1h-1zM99 11h1v1h-1zM99 15h1v1h-1zM83 19h1v1h-1zM88 23h2v1h-2z" /><path fill="#0179ff" d="M89 4h1v1h-1zM98 8h1v1h-1zM99 16h1v1h-1zM82 17h1v1h-1zM97 20h1v1h-1zM96 21h1v1h-1zM83 22h1v1h-1zM90 23h1v1h-1z" /><path fill="#027aff" d="M90 4h1v1h-1zM86 5h9v1h-9zM85 6h11v1h-11zM84 7h13v1h-13zM83 8h15v1h-15zM83 9h16v1h-16zM83 10h16v1h-16zM83 11h16v1h-16zM82 12h18v1h-18zM82 13h18v1h-18zM82 14h18v1h-18zM82 15h17v1h-17zM82 16h17v1h-17zM83 17h16v1h-16zM84 18h14v1h-14zM84 19h14v1h-14zM84 20h13v1h-13zM84 21h12v1h-12zM84 22h11v1h-11zM83 23h4v1h-4z" /><path fill="#0279ff" d="M91 4h1v1h-1zM96 6h1v1h-1zM97 7h1v1h-1zM82 10h1v1h-1zM82 11h1v1h-1zM83 18h1v1h-1zM98 18h1v1h-1zM87 23h1v1h-1z" /><path fill="#000000" d="M6 8h16v1h-16zM56 8h18v1h-18zM6 9h16v1h-16zM56 9h18v1h-18zM6 10h16v1h-16zM56 10h18v1h-18zM6 11h16v1h-16zM55 11h18v1h-18zM6 12h16v1h-16zM55 12h18v1h-18zM6 13h16v1h-16zM54 13h18v1h-18zM6 14h16v1h-16zM54 14h18v1h-18zM6 15h16v1h-16zM53 15h18v1h-18zM6 16h16v1h-16zM53 16h18v1h-18zM6 17h16v1h-16zM53 17h17v1h-17zM6 18h16v1h-16zM52 18h18v1h-18zM6 19h16v1h-16zM52 19h18v1h-18zM6 20h16v1h-16zM51 20h18v1h-18zM6 21h16v1h-16zM51 21h18v1h-18zM6 22h16v1h-16zM50 22h18v1h-18zM6 23h16v1h-16zM50 23h18v1h-18zM6 24h16v1h-16zM49 24h18v1h-18zM6 25h16v1h-16zM49 25h18v1h-18zM6 26h16v1h-16zM49 26h17v1h-17zM6 27h16v1h-16zM48 27h18v1h-18zM6 28h16v1h-16zM48 28h18v1h-18zM6 29h16v1h-16zM47 29h18v1h-18zM6 30h16v1h-16zM47 30h18v1h-18zM6 31h16v1h-16zM46 31h18v1h-18zM6 32h16v1h-16zM46 32h18v1h-18zM6 33h16v1h-16zM45 33h18v1h-18zM6 34h16v1h-16zM45 34h17v1h-17zM6 35h16v1h-16zM45 35h17v1h-17zM6 36h16v1h-16zM44 36h17v1h-17zM6 37h16v1h-16zM44 37h15v1h-15zM6 38h16v1h-16zM43 38h15v1h-15zM6 39h16v1h-16zM43 39h13v1h-13zM6 40h59v1h-59zM6 41h62v1h-62zM6 42h64v1h-64zM6 43h66v1h-66zM6 44h67v1h-67zM6 45h68v1h-68zM6 46h69v1h-69zM6 47h70v1h-70zM6 48h70v1h-70zM6 49h71v1h-71zM6 50h55v1h-55zM62 50h15v1h-15zM6 51h55v1h-55zM62 51h16v1h-16zM6 52h54v1h-54zM62 52h16v1h-16zM6 53h53v1h-53zM62 53h16v1h-16zM6 54h51v1h-51zM62 54h16v1h-16zM6 55h49v1h-49zM62 55h16v1h-16zM6 56h17v1h-17zM62 56h16v1h-16zM6 57h16v1h-16zM62 57h16v1h-16zM6 58h16v1h-16zM62 58h16v1h-16zM6 59h16v1h-16zM62 59h16v1h-16zM6 60h16v1h-16zM62 60h16v1h-16zM6 61h16v1h-16zM62 61h16v1h-16zM6 62h16v1h-16zM62 62h16v1h-16zM6 63h16v1h-16zM62 63h16v1h-16zM6 64h16v1h-16zM62 64h16v1h-16zM6 65h16v1h-16zM62 65h16v1h-16zM6 66h16v1h-16zM62 66h16v1h-16zM6 67h16v1h-16zM62 67h16v1h-16zM6 68h16v1h-16zM62 68h16v1h-16zM6 69h16v1h-16zM62 69h16v1h-16zM6 70h16v1h-16zM62 70h16v1h-16zM6 71h16v1h-16zM62 71h16v1h-16zM6 72h16v1h-16zM62 72h16v1h-16zM6 73h16v1h-16zM62 73h16v1h-16zM6 74h16v1h-16zM62 74h16v1h-16zM6 75h16v1h-16zM62 75h16v1h-16zM6 76h16v1h-16zM62 76h16v1h-16zM6 77h16v1h-16zM62 77h16v1h-16zM6 78h16v1h-16zM62 78h16v1h-16zM6 79h16v1h-16zM62 79h16v1h-16zM6 80h16v1h-16zM62 80h16v1h-16zM6 81h16v1h-16zM62 81h16v1h-16zM6 82h16v1h-16zM62 82h16v1h-16zM6 83h16v1h-16zM62 83h16v1h-16zM6 84h16v1h-16zM62 84h16v1h-16zM6 85h16v1h-16zM62 85h16v1h-16zM6 86h16v1h-16zM62 86h16v1h-16zM6 87h16v1h-16zM62 87h16v1h-16zM6 88h16v1h-16zM62 88h16v1h-16zM6 89h16v1h-16zM62 89h16v1h-16zM6 90h16v1h-16zM62 90h16v1h-16zM7 91h15v1h-15zM62 91h16v1h-16z" /></svg>