<svg xmlns="http://www.w3.org/2000/svg" viewBox="0 0 100 100" width="1em" height="1em"><path fill="#05acf1" d="M44 2h1v1h-1zM50 5h1v1h-1zM52 6h1v1h-1zM55 8h1v1h-1zM43 90h1v1h-1zM46 92h1v1h-1zM49 94h1v1h-1zM51 95h1v1h-1zM53 96h1v1h-1z" /><path fill="#05abf0" d="M45 2h1v1h-1z" /><path fill="#04aaf0" d="M46 2h1v1h-1zM48 3h1v1h-1zM53 6h1v1h-1zM56 8h1v1h-1zM48 94h1v1h-1z" /><path fill="#03a7f0" d="M47 2h1v1h-1z" /><path fill="#03a6ef" d="M48 2h1v1h-1zM48 97h1v1h-1zM51 97h1v1h-1z" /><path fill="#04a5f0" d="M49 2h1v1h-1zM63 4h1v1h-1zM37 95h1v1h-1z" /><path fill="#04a6ef" d="M50 2h1v1h-1zM31 93h1v1h-1zM36 95h1v1h-1zM42 96h1v1h-1z" /><path fill="#03a5ef" d="M51 2h1v1h-1zM67 5h1v1h-1zM69 6h1v1h-1z" /><path fill="#03a6f0" d="M52 2h1v1h-1zM60 3h1v1h-1zM30 93h1v1h-1zM41 96h1v1h-1zM47 97h1v1h-1z" /><path fill="#04a6f0" d="M53 2h2v1h-2zM50 3h9v1h-9zM52 4h11v1h-11zM64 4h1v1h-1zM54 5h13v1h-13zM55 6h14v1h-14zM57 7h5v1h-5zM58 8h2v1h-2zM40 91h2v1h-2zM37 92h6v1h-6zM32 93h13v1h-13zM33 94h1v1h-1zM35 94h12v1h-12zM38 95h10v1h-10zM43 96h7v1h-7z" /><path fill="#03a5f0" d="M55 2h1v1h-1zM50 97h1v1h-1z" /><path fill="#05b8f1" d="M39 3h1v1h-1z" /><path fill="#05b6f2" d="M40 3h1v1h-1zM46 6h1v1h-1zM48 7h1v1h-1zM53 10h1v1h-1zM45 88h1v1h-1zM48 90h1v1h-1zM55 94h1v1h-1zM57 95h1v1h-1z" /><path fill="#05b5f2" d="M41 3h1v1h-1zM43 4h1v1h-1zM45 5h1v1h-1zM50 8h1v1h-1zM52 9h1v1h-1zM46 89h1v1h-1zM49 91h1v1h-1zM51 92h1v1h-1zM53 93h1v1h-1z" /><path fill="#05b3f2" d="M42 3h1v1h-1zM44 4h1v1h-1zM46 5h1v1h-1zM48 6h1v1h-1zM53 9h1v1h-1zM45 89h1v1h-1zM48 91h1v1h-1zM50 92h1v1h-1z" /><path fill="#05b2f1" d="M43 3h1v1h-1zM45 4h1v1h-1zM50 7h1v1h-1zM52 8h1v1h-1zM55 10h1v1h-1zM46 90h1v1h-1zM49 92h1v1h-1zM51 93h1v1h-1zM53 94h1v1h-1zM55 95h1v1h-1z" /><path fill="#05b0f1" d="M44 3h1v1h-1zM46 4h1v1h-1zM48 5h1v1h-1zM53 8h1v1h-1zM45 90h1v1h-1zM48 92h1v1h-1zM50 93h1v1h-1z" /><path fill="#05aff1" d="M45 3h1v1h-1zM50 6h1v1h-1zM52 7h1v1h-1zM55 9h1v1h-1zM46 91h1v1h-1zM49 93h1v1h-1zM51 94h1v1h-1zM53 95h1v1h-1zM55 96h1v1h-1z" /><path fill="#05adf1" d="M46 3h1v1h-1zM48 4h1v1h-1zM53 7h1v1h-1zM56 9h1v1h-1zM45 91h1v1h-1zM48 93h1v1h-1zM50 94h1v1h-1z" /><path fill="#04abf1" d="M47 3h1v1h-1zM49 4h1v1h-1zM51 5h1v1h-1zM54 7h1v1h-1zM57 9h1v1h-1zM44 91h1v1h-1zM47 93h1v1h-1zM52 96h1v1h-1z" /><path fill="#04a8f0" d="M49 3h1v1h-1zM51 4h1v1h-1zM54 6h1v1h-1zM57 8h1v1h-1zM42 91h1v1h-1zM44 92h1v1h-1zM47 94h1v1h-1z" /><path fill="#04a5ef" d="M59 3h1v1h-1zM34 94h1v1h-1zM40 96h1v1h-1zM49 97h1v1h-1z" /><path fill="#05bff2" d="M35 4h1v1h-1z" /><path fill="#06bef2" d="M36 4h1v1h-1z" /><path fill="#06bef3" d="M37 4h1v1h-1zM39 5h1v1h-1zM41 6h1v1h-1zM43 7h1v1h-1zM45 8h1v1h-1zM47 9h1v1h-1zM50 11h1v1h-1zM51 89h1v1h-1z" /><path fill="#06bcf3" d="M38 4h1v1h-1zM40 5h1v1h-1zM44 7h1v1h-1zM46 8h1v1h-1zM48 9h1v1h-1zM51 11h1v1h-1zM48 88h1v1h-1zM50 89h1v1h-1zM55 92h1v1h-1zM57 93h1v1h-1zM59 94h1v1h-1z" /><path fill="#06bbf2" d="M39 4h1v1h-1zM41 5h1v1h-1zM43 6h1v1h-1zM45 7h1v1h-1zM47 8h1v1h-1zM52 11h1v1h-1zM49 89h1v1h-1zM51 90h1v1h-1z" /><path fill="#06b9f2" d="M40 4h1v1h-1zM42 5h1v1h-1zM44 6h1v1h-1zM46 7h1v1h-1zM48 8h1v1h-1zM51 10h1v1h-1zM53 11h1v1h-1zM48 89h1v1h-1zM50 90h1v1h-1zM55 93h1v1h-1zM57 94h1v1h-1zM59 95h1v1h-1z" /><path fill="#06b8f2" d="M41 4h1v1h-1zM43 5h1v1h-1zM45 6h1v1h-1zM47 7h1v1h-1zM50 9h1v1h-1zM52 10h1v1h-1zM46 88h1v1h-1zM49 90h1v1h-1zM51 91h1v1h-1zM53 92h1v1h-1z" /><path fill="#06b6f2" d="M42 4h1v1h-1zM44 5h1v1h-1zM51 9h1v1h-1zM50 91h1v1h-1z" /><path fill="#05aef1" d="M47 4h1v1h-1zM49 5h1v1h-1zM51 6h1v1h-1zM54 8h1v1h-1zM44 90h1v1h-1zM47 92h1v1h-1zM52 95h1v1h-1zM54 96h1v1h-1z" /><path fill="#04a9f0" d="M50 4h1v1h-1zM52 5h1v1h-1zM55 7h1v1h-1zM43 91h1v1h-1zM46 93h1v1h-1zM49 95h1v1h-1zM51 96h1v1h-1z" /><path fill="#07c6f4" d="M32 5h1v1h-1zM38 7h1v1h-1zM40 8h1v1h-1zM42 9h1v1h-1zM44 10h1v1h-1zM49 13h1v1h-1zM52 87h1v1h-1zM54 88h1v1h-1zM62 92h1v1h-1zM64 93h1v1h-1z" /><path fill="#07c5f3" d="M33 5h1v1h-1z" /><path fill="#07c5f4" d="M34 5h1v1h-1zM36 6h1v1h-1zM46 11h1v1h-1zM48 12h1v1h-1zM50 86h1v1h-1zM53 88h1v1h-1zM55 89h1v1h-1zM57 90h1v1h-1zM59 91h1v1h-1zM61 92h1v1h-1z" /><path fill="#07c3f3" d="M35 5h1v1h-1zM38 6h1v1h-1zM40 7h1v1h-1zM42 8h1v1h-1zM44 9h1v1h-1zM49 12h1v1h-1zM49 86h1v1h-1zM52 88h1v1h-1zM54 89h1v1h-1zM56 90h1v1h-1zM60 92h1v1h-1zM62 93h1v1h-1zM64 94h2v1h-2z" /><path fill="#07c2f3" d="M36 5h1v1h-1zM46 10h1v1h-1zM48 11h1v1h-1zM49 85h1v1h-1zM50 87h1v1h-1zM53 89h1v1h-1zM55 90h1v1h-1zM57 91h1v1h-1zM59 92h1v1h-1zM61 93h1v1h-1z" /><path fill="#06c1f3" d="M37 5h1v1h-1zM39 6h1v1h-1zM45 9h1v1h-1zM47 10h1v1h-1zM51 88h1v1h-1z" /><path fill="#06bff3" d="M38 5h1v1h-1zM46 9h1v1h-1zM48 10h1v1h-1zM51 12h1v1h-1zM48 87h1v1h-1zM50 88h1v1h-1zM53 90h1v1h-1zM55 91h1v1h-1zM57 92h1v1h-1zM59 93h1v1h-1zM61 94h1v1h-1z" /><path fill="#05b1f1" d="M47 5h1v1h-1zM49 6h1v1h-1zM51 7h1v1h-1zM54 9h1v1h-1zM44 89h1v1h-1zM47 91h1v1h-1zM52 94h1v1h-1zM54 95h1v1h-1zM56 96h1v1h-1z" /><path fill="#04a7f0" d="M53 5h1v1h-1zM56 7h1v1h-1zM43 92h1v1h-1zM45 93h1v1h-1zM48 95h1v1h-1zM50 96h1v1h-1z" /><path fill="#07ccf4" d="M30 6h2v1h-2zM36 8h1v1h-1zM38 9h1v1h-1zM44 12h1v1h-1zM52 85h1v1h-1zM66 92h1v1h-1z" /><path fill="#07caf4" d="M32 6h1v1h-1zM35 7h1v1h-1zM37 8h1v1h-1zM39 9h1v1h-1zM43 11h1v1h-1zM45 12h1v1h-1zM47 13h1v1h-1zM51 85h1v1h-1zM56 88h1v1h-1zM58 89h1v1h-1zM60 90h1v1h-1zM65 92h1v1h-1zM67 93h1v1h-1z" /><path fill="#07c9f4" d="M33 6h1v1h-1zM38 8h1v1h-1zM40 9h1v1h-1zM42 10h1v1h-1zM44 11h1v1h-1zM49 14h1v1h-1zM52 86h1v1h-1zM54 87h1v1h-1zM62 91h1v1h-1zM64 92h1v1h-1z" /><path fill="#07c8f4" d="M34 6h1v1h-1zM36 7h1v1h-1zM46 12h1v1h-1zM48 13h1v1h-1zM50 85h1v1h-1zM53 87h1v1h-1zM55 88h1v1h-1zM57 89h1v1h-1zM59 90h1v1h-1zM61 91h1v1h-1zM63 92h1v1h-1zM66 93h1v1h-1z" /><path fill="#07c7f4" d="M35 6h1v1h-1zM37 7h1v1h-1zM39 8h1v1h-1zM41 9h1v1h-1zM43 10h1v1h-1zM45 11h1v1h-1zM47 12h1v1h-1zM51 86h1v1h-1zM56 89h1v1h-1zM58 90h1v1h-1zM60 91h1v1h-1zM65 93h1v1h-1z" /><path fill="#07c4f4" d="M37 6h1v1h-1zM39 7h1v1h-1zM41 8h1v1h-1zM43 9h1v1h-1zM45 10h1v1h-1zM47 11h1v1h-1zM50 13h1v1h-1zM51 87h1v1h-1zM63 93h1v1h-1z" /><path fill="#06c0f3" d="M40 6h1v1h-1zM42 7h1v1h-1zM44 8h1v1h-1zM49 11h1v1h-1zM49 87h1v1h-1zM52 89h1v1h-1zM54 90h1v1h-1zM56 91h1v1h-1zM58 92h1v1h-1zM60 93h1v1h-1zM62 94h1v1h-1z" /><path fill="#06bdf3" d="M42 6h1v1h-1zM49 10h1v1h-1zM52 12h1v1h-1zM47 87h1v1h-1zM49 88h1v1h-1zM52 90h1v1h-1zM54 91h1v1h-1zM56 92h1v1h-1zM58 93h1v1h-1zM60 94h1v1h-1zM62 95h1v1h-1z" /><path fill="#05b4f2" d="M47 6h1v1h-1zM49 7h1v1h-1zM51 8h1v1h-1zM54 10h1v1h-1zM47 90h1v1h-1zM52 93h1v1h-1zM54 94h1v1h-1zM56 95h1v1h-1zM59 96h1v1h-1z" /><path fill="#07d2f5" d="M27 7h1v1h-1z" /><path fill="#07d1f5" d="M28 7h1v1h-1z" /><path fill="#08d1f5" d="M29 7h1v1h-1zM32 8h1v1h-1zM34 9h1v1h-1zM37 10h1v1h-1zM39 11h1v1h-1zM41 12h1v1h-1zM46 15h1v1h-1zM53 84h1v1h-1zM55 85h1v1h-1zM57 86h1v1h-1zM59 87h1v1h-1zM61 88h1v1h-1zM63 89h1v1h-1zM65 90h1v1h-1zM68 91h1v1h-1zM71 92h1v1h-1z" /><path fill="#08d0f5" d="M30 7h1v1h-1zM33 8h1v1h-1zM35 9h1v1h-1zM43 13h1v1h-1zM45 14h1v1h-1zM47 15h1v1h-1zM56 86h1v1h-1zM58 87h1v1h-1zM60 88h1v1h-1zM62 89h1v1h-1zM67 91h1v1h-1z" /><path fill="#08cff5" d="M31 7h1v1h-1zM36 9h1v1h-1zM38 10h1v1h-1zM40 11h1v1h-1zM42 12h1v1h-1zM44 13h1v1h-1zM52 84h1v1h-1zM54 85h1v1h-1zM64 90h1v1h-1zM66 91h1v1h-1zM69 92h1v1h-1z" /><path fill="#08cef5" d="M32 7h1v1h-1zM34 8h1v1h-1zM39 10h1v1h-1zM41 11h1v1h-1zM46 14h1v1h-1zM48 15h1v1h-1zM53 85h1v1h-1zM55 86h1v1h-1zM57 87h1v1h-1zM59 88h1v1h-1zM61 89h1v1h-1zM63 90h1v1h-1zM68 92h1v1h-1z" /><path fill="#08ccf5" d="M33 7h1v1h-1zM40 10h1v1h-1zM42 11h1v1h-1zM54 86h1v1h-1zM64 91h1v1h-1z" /><path fill="#07cbf4" d="M34 7h1v1h-1zM41 10h1v1h-1zM46 13h1v1h-1zM48 14h1v1h-1zM53 86h1v1h-1zM55 87h1v1h-1zM57 88h1v1h-1zM59 89h1v1h-1zM61 90h1v1h-1zM63 91h1v1h-1z" /><path fill="#07c1f3" d="M41 7h1v1h-1zM43 8h1v1h-1zM50 12h1v1h-1zM48 86h1v1h-1zM63 94h1v1h-1z" /><path fill="#04a1f1" d="M62 7h1v1h-1zM39 91h1v1h-1z" /><path fill="#0281f4" d="M63 7h1v1h-1z" /><path fill="#0157fb" d="M64 7h1v1h-1z" /><path fill="#0047fd" d="M65 7h1v1h-1z" /><path fill="#0042ff" d="M66 7h1v1h-1zM38 90h1v1h-1z" /><path fill="#0042fd" d="M67 7h1v1h-1z" /><path fill="#0044fd" d="M68 7h1v1h-1zM43 88h1v1h-1z" /><path fill="#0045fd" d="M69 7h1v1h-1zM56 11h1v1h-1z" /><path fill="#014dfc" d="M70 7h1v1h-1zM47 85h1v1h-1z" /><path fill="#0159fb" d="M71 7h1v1h-1z" /><path fill="#09d7f5" d="M26 8h1v1h-1z" /><path fill="#08d6f6" d="M27 8h1v1h-1zM30 9h1v1h-1zM33 10h1v1h-1zM35 11h1v1h-1zM45 16h1v1h-1zM56 84h1v1h-1zM58 85h1v1h-1zM60 86h1v1h-1zM62 87h1v1h-1zM64 88h1v1h-1zM67 89h1v1h-1zM69 90h1v1h-1zM72 91h1v1h-1z" /><path fill="#08d5f6" d="M28 8h1v1h-1zM31 9h1v1h-1zM34 10h1v1h-1zM36 11h1v1h-1zM38 12h1v1h-1zM40 13h1v1h-1zM42 14h1v1h-1zM44 15h1v1h-1zM54 83h1v1h-1zM59 86h1v1h-1zM61 87h1v1h-1zM66 89h1v1h-1zM71 91h1v1h-1z" /><path fill="#08d4f5" d="M29 8h1v1h-1zM32 9h1v1h-1zM37 11h1v1h-1zM39 12h1v1h-1zM41 13h1v1h-1zM43 14h1v1h-1zM46 16h1v1h-1zM53 83h1v1h-1zM55 84h1v1h-1zM57 85h1v1h-1zM63 88h1v1h-1zM65 89h1v1h-1zM70 91h1v1h-1z" /><path fill="#08d3f5" d="M30 8h1v1h-1zM33 9h1v1h-1zM35 10h1v1h-1zM45 15h1v1h-1zM56 85h1v1h-1zM58 86h1v1h-1zM60 87h1v1h-1zM62 88h1v1h-1zM64 89h1v1h-1zM67 90h1v1h-1z" /><path fill="#08d2f5" d="M31 8h1v1h-1zM36 10h1v1h-1zM38 11h1v1h-1zM40 12h1v1h-1zM42 13h1v1h-1zM44 14h1v1h-1zM47 16h1v1h-1zM52 83h1v1h-1zM54 84h1v1h-1zM66 90h1v1h-1zM69 91h1v1h-1z" /><path fill="#08cdf5" d="M35 8h1v1h-1zM37 9h1v1h-1zM43 12h1v1h-1zM45 13h1v1h-1zM47 14h1v1h-1zM51 84h1v1h-1zM56 87h1v1h-1zM58 88h1v1h-1zM60 89h1v1h-1zM62 90h1v1h-1zM65 91h1v1h-1zM67 92h1v1h-1z" /><path fill="#06b7f2" d="M49 8h1v1h-1zM47 89h1v1h-1zM52 92h1v1h-1zM54 93h1v1h-1zM56 94h1v1h-1zM58 95h1v1h-1z" /><path fill="#0289f4" d="M60 8h1v1h-1z" /><path fill="#004dfc" d="M61 8h1v1h-1z" /><path fill="#003fff" d="M62 8h1v1h-1zM36 91h1v1h-1z" /><path fill="#0041ff" d="M63 8h1v1h-1zM60 9h1v1h-1zM35 91h1v1h-1z" /><path fill="#0043fe" d="M64 8h1v1h-1zM61 9h1v1h-1zM58 10h1v1h-1zM37 90h1v1h-1zM34 91h1v1h-1z" /><path fill="#0044fe" d="M65 8h1v1h-1zM40 89h1v1h-1z" /><path fill="#0046fe" d="M66 8h1v1h-1zM63 9h1v1h-1zM42 88h1v1h-1zM32 91h1v1h-1z" /><path fill="#0147fe" d="M67 8h1v1h-1zM57 11h1v1h-1zM41 88h1v1h-1zM38 89h1v1h-1z" /><path fill="#0149fe" d="M68 8h1v1h-1zM65 9h1v1h-1zM58 11h1v1h-1zM55 12h1v1h-1zM43 87h1v1h-1zM40 88h1v1h-1zM37 89h1v1h-1zM30 91h1v1h-1z" /><path fill="#014bfd" d="M69 8h1v1h-1zM66 9h1v1h-1zM56 12h1v1h-1zM45 86h2v1h-2zM42 87h1v1h-1zM39 88h1v1h-1zM32 90h1v1h-1zM29 91h1v1h-1z" /><path fill="#014cfd" d="M70 8h1v1h-1zM63 10h1v1h-1zM60 11h1v1h-1zM57 12h1v1h-1zM38 88h1v1h-1zM35 89h1v1h-1z" /><path fill="#014efd" d="M71 8h1v1h-1zM68 9h1v1h-1zM61 11h1v1h-1zM58 12h1v1h-1zM55 13h1v1h-1zM40 87h1v1h-1zM37 88h1v1h-1z" /><path fill="#0150fd" d="M72 8h1v1h-1zM69 9h1v1h-1zM66 10h1v1h-1zM59 12h1v1h-1zM56 13h1v1h-1zM53 14h1v1h-1zM42 86h1v1h-1zM39 87h1v1h-1zM29 90h1v1h-1z" /><path fill="#0151fd" d="M73 8h1v1h-1zM63 11h1v1h-1zM60 12h1v1h-1zM48 84h1v1h-1zM45 85h1v1h-1zM38 87h1v1h-1zM35 88h1v1h-1zM32 89h1v1h-1z" /><path fill="#09ddf5" d="M24 9h1v1h-1z" /><path fill="#09dcf6" d="M25 9h1v1h-1zM28 10h1v1h-1zM31 11h1v1h-1zM33 12h1v1h-1zM38 14h1v1h-1zM40 15h1v1h-1zM45 18h1v1h-1zM56 82h1v1h-1zM58 83h1v1h-1zM60 84h1v1h-1zM62 85h1v1h-1zM64 86h1v1h-1zM66 87h1v1h-1zM69 88h1v1h-1zM72 89h1v1h-1z" /><path fill="#09dbf6" d="M26 9h1v1h-1zM29 10h1v1h-1zM34 12h1v1h-1zM36 13h1v1h-1zM42 16h1v1h-1zM44 17h1v1h-1zM54 81h1v1h-1zM57 83h1v1h-1zM59 84h1v1h-1zM61 85h1v1h-1zM63 86h1v1h-1zM68 88h1v1h-1zM71 89h1v1h-1z" /><path fill="#09daf6" d="M27 9h1v1h-1zM30 10h1v1h-1zM32 11h1v1h-1zM35 12h1v1h-1zM37 13h1v1h-1zM39 14h1v1h-1zM41 15h1v1h-1zM43 16h1v1h-1zM55 82h1v1h-1zM65 87h1v1h-1zM67 88h1v1h-1zM70 89h1v1h-1zM73 90h1v1h-1z" /><path fill="#09d9f6" d="M28 9h1v1h-1zM33 11h1v1h-1zM45 17h1v1h-1zM56 83h1v1h-1zM58 84h1v1h-1zM60 85h1v1h-1zM62 86h1v1h-1zM64 87h1v1h-1zM69 89h1v1h-1zM72 90h1v1h-1z" /><path fill="#09d8f6" d="M29 9h1v1h-1zM31 10h1v1h-1zM34 11h1v1h-1zM36 12h1v1h-1zM38 13h1v1h-1zM40 14h1v1h-1zM42 15h1v1h-1zM44 16h1v1h-1zM54 82h1v1h-1zM59 85h1v1h-1zM61 86h1v1h-1zM66 88h1v1h-1zM68 89h1v1h-1zM71 90h1v1h-1z" /><path fill="#06baf2" d="M49 9h1v1h-1zM47 88h1v1h-1zM52 91h1v1h-1zM54 92h1v1h-1zM56 93h1v1h-1zM58 94h1v1h-1zM60 95h1v1h-1z" /><path fill="#027df6" d="M58 9h1v1h-1zM35 92h1v1h-1z" /><path fill="#0044ff" d="M59 9h1v1h-1z" /><path fill="#0045fe" d="M62 9h1v1h-1zM59 10h1v1h-1zM39 89h1v1h-1zM36 90h1v1h-1zM33 91h1v1h-1z" /><path fill="#0148fe" d="M64 9h1v1h-1zM61 10h1v1h-1zM44 87h1v1h-1zM34 90h1v1h-1zM31 91h1v1h-1z" /><path fill="#014dfd" d="M67 9h1v1h-1zM64 10h1v1h-1zM54 13h1v1h-1zM44 86h1v1h-1zM41 87h1v1h-1zM34 89h1v1h-1zM31 90h1v1h-1zM28 91h1v1h-1z" /><path fill="#0152fd" d="M70 9h1v1h-1zM67 10h1v1h-1zM57 13h1v1h-1zM54 14h1v1h-1zM41 86h1v1h-1zM28 90h1v1h-1z" /><path fill="#0153fc" d="M71 9h1v1h-1zM61 12h1v1h-1zM58 13h1v1h-1zM47 84h1v1h-1zM40 86h1v1h-1zM37 87h1v1h-1zM45 87h1v1h-1zM34 88h1v1h-1z" /><path fill="#0155fc" d="M72 9h1v1h-1zM69 10h1v1h-1zM59 13h1v1h-1zM56 14h1v1h-1zM49 83h1v1h-1zM42 85h1v1h-1zM39 86h1v1h-1zM36 87h1v1h-1zM26 90h1v1h-1z" /><path fill="#0156fc" d="M73 9h1v1h-1zM66 11h1v1h-1zM63 12h1v1h-1zM60 13h1v1h-1zM53 15h1v1h-1zM50 16h1v1h-1zM48 83h1v1h-1zM45 84h1v1h-1zM35 87h1v1h-1zM32 88h1v1h-1zM29 89h1v1h-1z" /><path fill="#0158fb" d="M74 9h1v1h-1zM48 17h1v1h-1zM51 82h1v1h-1z" /><path fill="#08e1f6" d="M22 10h1v1h-1z" /><path fill="#09e1f7" d="M23 10h1v1h-1zM26 11h1v1h-1zM29 12h1v1h-1zM32 13h1v1h-1zM34 14h1v1h-1zM42 18h1v1h-1zM44 19h1v1h-1zM57 81h1v1h-1zM59 82h1v1h-1zM61 83h1v1h-1zM63 84h1v1h-1zM65 85h1v1h-1zM68 86h1v1h-1zM74 88h1v1h-1z" /><path fill="#09e0f7" d="M24 10h1v1h-1zM27 11h1v1h-1zM30 12h1v1h-1zM33 13h1v1h-1zM35 14h1v1h-1zM37 15h1v1h-1zM39 16h1v1h-1zM41 17h1v1h-1zM43 18h1v1h-1zM55 80h1v1h-1zM67 86h1v1h-1zM70 87h1v1h-1zM73 88h1v1h-1z" /><path fill="#09dff7" d="M25 10h1v1h-1zM28 11h1v1h-1zM31 12h1v1h-1zM36 14h1v1h-1zM38 15h1v1h-1zM40 16h1v1h-1zM56 81h1v1h-1zM58 82h1v1h-1zM60 83h1v1h-1zM62 84h1v1h-1zM64 85h1v1h-1zM66 86h1v1h-1zM69 87h1v1h-1zM72 88h1v1h-1zM75 89h1v1h-1z" /><path fill="#09def7" d="M26 10h1v1h-1zM29 11h1v1h-1zM32 12h1v1h-1zM34 13h1v1h-1zM42 17h1v1h-1zM44 18h1v1h-1zM57 82h1v1h-1zM59 83h1v1h-1zM61 84h1v1h-1zM63 85h1v1h-1zM68 87h1v1h-1zM71 88h1v1h-1zM74 89h1v1h-1z" /><path fill="#09ddf7" d="M27 10h1v1h-1zM37 14h1v1h-1zM39 15h1v1h-1zM41 16h1v1h-1zM55 81h1v1h-1zM65 86h1v1h-1zM70 88h1v1h-1zM73 89h1v1h-1z" /><path fill="#09d7f6" d="M32 10h1v1h-1zM39 13h1v1h-1zM46 17h1v1h-1zM55 83h1v1h-1zM57 84h1v1h-1zM63 87h1v1h-1zM65 88h1v1h-1z" /><path fill="#06bbf3" d="M50 10h1v1h-1zM53 91h1v1h-1zM61 95h1v1h-1z" /><path fill="#0390f5" d="M56 10h1v1h-1z" /><path fill="#0048fd" d="M57 10h1v1h-1z" /><path fill="#0047fe" d="M60 10h1v1h-1zM35 90h1v1h-1z" /><path fill="#014afe" d="M62 10h1v1h-1zM33 90h1v1h-1z" /><path fill="#014ffd" d="M65 10h1v1h-1zM62 11h1v1h-1zM52 14h1v1h-1zM46 85h1v1h-1zM43 86h1v1h-1zM36 88h1v1h-1zM33 89h1v1h-1zM30 90h1v1h-1z" /><path fill="#0154fc" d="M68 10h1v1h-1zM65 11h1v1h-1zM62 12h1v1h-1zM51 14h1v1h-1zM55 14h1v1h-1zM52 15h1v1h-1zM46 84h1v1h-1zM43 85h1v1h-1zM33 88h1v1h-1zM30 89h1v1h-1zM27 90h1v1h-1z" /><path fill="#0157fc" d="M70 10h1v1h-1zM67 11h1v1h-1zM57 14h1v1h-1zM54 15h1v1h-1zM41 85h1v1h-1zM38 86h1v1h-1zM28 89h1v1h-1z" /><path fill="#0258fc" d="M71 10h1v1h-1zM58 14h1v1h-1zM37 86h1v1h-1z" /><path fill="#025afc" d="M72 10h1v1h-1zM62 13h1v1h-1zM59 14h1v1h-1zM49 17h1v1h-1zM49 82h1v1h-1zM46 83h1v1h-1zM36 86h1v1h-1zM33 87h1v1h-1z" /><path fill="#025cfb" d="M73 10h1v1h-1zM70 11h1v1h-1zM67 12h1v1h-1zM60 14h1v1h-1zM57 15h1v1h-1zM54 16h1v1h-1zM47 18h1v1h-1zM51 81h1v1h-1zM48 82h1v1h-1zM41 84h1v1h-1zM38 85h1v1h-1zM35 86h1v1h-1zM28 88h1v1h-1zM25 89h1v1h-1z" /><path fill="#025dfb" d="M74 10h1v1h-1zM64 13h1v1h-1zM61 14h1v1h-1zM51 17h1v1h-1zM48 18h1v1h-1zM47 82h1v1h-1zM44 83h1v1h-1zM34 86h1v1h-1zM31 87h1v1h-1z" /><path fill="#025ffb" d="M75 10h1v1h-1zM72 11h1v1h-1zM62 14h1v1h-1zM59 15h1v1h-1zM49 18h1v1h-1zM46 19h1v1h-1zM49 81h1v1h-1zM46 82h1v1h-1zM36 85h1v1h-1zM33 86h1v1h-1z" /><path fill="#09e6f8" d="M21 11h1v1h-1z" /><path fill="#0ae5f7" d="M22 11h1v1h-1zM31 14h1v1h-1zM34 15h1v1h-1zM36 16h1v1h-1zM38 17h1v1h-1zM40 18h1v1h-1zM56 79h1v1h-1zM58 80h1v1h-1zM66 84h1v1h-1zM71 86h1v1h-1zM74 87h1v1h-1z" /><path fill="#0ae4f7" d="M23 11h1v1h-1zM26 12h1v1h-1zM29 13h1v1h-1zM32 14h1v1h-1zM42 19h1v1h-1zM57 80h1v1h-1zM59 81h1v1h-1zM61 82h1v1h-1zM63 83h1v1h-1zM65 84h1v1h-1zM68 85h1v1h-1zM70 86h1v1h-1zM73 87h1v1h-1zM77 88h1v1h-1z" /><path fill="#0ae3f7" d="M24 11h1v1h-1zM27 12h1v1h-1zM30 13h1v1h-1zM33 14h1v1h-1zM35 15h1v1h-1zM37 16h1v1h-1zM39 17h1v1h-1zM41 18h1v1h-1zM43 19h1v1h-1zM60 82h1v1h-1zM62 83h1v1h-1zM67 85h1v1h-1zM72 87h1v1h-1zM76 88h1v1h-1z" /><path fill="#0ae2f7" d="M25 11h1v1h-1zM28 12h1v1h-1zM31 13h1v1h-1zM38 16h1v1h-1zM56 80h1v1h-1zM58 81h1v1h-1zM64 84h1v1h-1zM66 85h1v1h-1zM69 86h1v1h-1zM75 88h1v1h-1z" /><path fill="#09ddf6" d="M30 11h1v1h-1zM35 13h1v1h-1zM43 17h1v1h-1zM67 87h1v1h-1z" /><path fill="#06aff3" d="M54 11h1v1h-1z" /><path fill="#015cfb" d="M55 11h1v1h-1z" /><path fill="#014afd" d="M59 11h1v1h-1zM36 89h1v1h-1z" /><path fill="#0152fc" d="M64 11h1v1h-1zM50 15h2v1h-2zM44 85h1v1h-1zM31 89h1v1h-1zM33 92h1v1h-1z" /><path fill="#0259fc" d="M68 11h1v1h-1zM65 12h1v1h-1zM55 15h1v1h-1zM52 16h1v1h-1zM43 84h1v1h-1zM49 84h1v1h-1zM40 85h1v1h-1zM30 88h1v1h-1zM27 89h1v1h-1z" /><path fill="#025afb" d="M69 11h1v1h-1zM56 15h1v1h-1zM39 85h1v1h-1zM26 89h1v1h-1z" /><path fill="#025efb" d="M71 11h1v1h-1zM68 12h1v1h-1zM65 13h1v1h-1zM58 15h1v1h-1zM55 16h1v1h-1zM52 17h1v1h-1zM50 81h1v1h-1zM43 83h1v1h-1zM40 84h1v1h-1zM37 85h1v1h-1zM30 87h1v1h-1zM27 88h1v1h-1z" /><path fill="#0261fb" d="M73 11h1v1h-1zM70 12h1v1h-1zM60 15h1v1h-1zM57 16h1v1h-1zM47 19h1v1h-1zM51 80h1v1h-1zM48 81h1v1h-1zM38 84h1v1h-1zM35 85h1v1h-1zM25 88h1v1h-1z" /><path fill="#0263fa" d="M74 11h1v1h-1zM71 12h1v1h-1zM68 13h1v1h-1zM61 15h1v1h-1zM58 16h1v1h-1zM55 17h1v1h-1zM45 20h1v1h-1zM53 79h1v1h-1zM50 80h1v1h-1zM40 83h1v1h-1zM37 84h1v1h-1zM27 87h1v1h-1zM24 88h1v1h-1z" /><path fill="#0264fa" d="M75 11h1v1h-1zM65 14h1v1h-1zM62 15h1v1h-1zM52 18h1v1h-1zM49 19h1v1h-1zM46 20h1v1h-1zM49 80h1v1h-1zM46 81h1v1h-1zM43 82h1v1h-1zM36 84h1v1h-1zM33 85h1v1h-1zM30 86h1v1h-1z" /><path fill="#0265f9" d="M76 11h1v1h-1z" /><path fill="#0ae9f8" d="M19 12h1v1h-1zM21 12h1v1h-1zM25 13h1v1h-1zM28 14h1v1h-1zM33 16h1v1h-1zM35 17h1v1h-1zM39 19h1v1h-1zM41 20h1v1h-1zM60 80h1v1h-1zM62 81h1v1h-1zM64 82h1v1h-1zM69 84h1v1h-1zM72 85h1v1h-1zM75 86h1v1h-1z" /><path fill="#0aeaf8" d="M20 12h1v1h-1zM24 13h1v1h-1zM27 14h1v1h-1zM30 15h1v1h-1zM32 16h1v1h-1zM37 18h1v1h-1zM42 21h1v1h-1zM57 78h1v1h-1zM59 79h1v1h-1zM61 80h1v1h-1zM63 81h1v1h-1zM65 82h1v1h-1zM67 83h1v1h-1zM70 84h1v1h-1zM73 85h1v1h-1zM76 86h1v1h-1z" /><path fill="#0ae8f8" d="M22 12h1v1h-1zM26 13h1v1h-1zM29 14h1v1h-1zM31 15h1v1h-1zM34 16h1v1h-1zM36 17h1v1h-1zM38 18h1v1h-1zM40 19h1v1h-1zM58 79h1v1h-1zM66 83h1v1h-1zM68 84h1v1h-1zM71 85h1v1h-1zM74 86h1v1h-1zM78 87h1v1h-1z" /><path fill="#0ae7f8" d="M23 12h1v1h-1zM27 13h1v1h-1zM30 14h1v1h-1zM32 15h1v1h-1zM42 20h1v1h-1zM57 79h1v1h-1zM59 80h1v1h-1zM61 81h1v1h-1zM63 82h1v1h-1zM65 83h1v1h-1zM70 85h1v1h-1zM73 86h1v1h-1zM77 87h1v1h-1z" /><path fill="#0ae6f8" d="M24 12h1v1h-1zM28 13h1v1h-1zM33 15h1v1h-1zM35 16h1v1h-1zM37 17h1v1h-1zM39 18h1v1h-1zM41 19h1v1h-1zM43 20h1v1h-1zM60 81h1v1h-1zM62 82h1v1h-1zM67 84h1v1h-1zM69 85h1v1h-1zM72 86h1v1h-1zM75 87h2v1h-2z" /><path fill="#0ae5f8" d="M25 12h1v1h-1zM64 83h1v1h-1z" /><path fill="#08d7f6" d="M37 12h1v1h-1zM41 14h1v1h-1zM43 15h1v1h-1zM53 82h1v1h-1zM70 90h1v1h-1z" /><path fill="#0390f7" d="M53 12h1v1h-1z" /><path fill="#0147fd" d="M54 12h1v1h-1z" /><path fill="#0158fc" d="M64 12h1v1h-1zM61 13h1v1h-1zM51 16h1v1h-1zM50 82h1v1h-1zM47 83h1v1h-1zM44 84h1v1h-1zM34 87h1v1h-1zM31 88h1v1h-1z" /><path fill="#025bfb" d="M66 12h1v1h-1zM63 13h1v1h-1zM53 16h1v1h-1zM50 17h1v1h-1zM45 83h1v1h-1zM42 84h1v1h-1zM32 87h1v1h-1zM29 88h1v1h-1z" /><path fill="#0260fb" d="M69 12h1v1h-1zM66 13h1v1h-1zM63 14h1v1h-1zM56 16h1v1h-1zM53 17h1v1h-1zM50 18h1v1h-1zM52 80h1v1h-1zM45 82h1v1h-1zM42 83h1v1h-1zM39 84h1v1h-1zM32 86h1v1h-1zM29 87h1v1h-1zM26 88h1v1h-1z" /><path fill="#0265fa" d="M72 12h1v1h-1zM69 13h1v1h-1zM66 14h1v1h-1zM59 16h1v1h-1zM56 17h1v1h-1zM53 18h1v1h-1zM52 79h1v1h-1zM42 82h1v1h-1zM39 83h1v1h-1zM29 86h1v1h-1zM26 87h1v1h-1z" /><path fill="#0266fa" d="M73 12h1v1h-1zM63 15h1v1h-1zM60 16h1v1h-1zM50 19h1v1h-1zM47 20h1v1h-1zM51 79h1v1h-1zM48 80h1v1h-1zM45 81h1v1h-1zM38 83h1v1h-1zM35 84h1v1h-1zM32 85h1v1h-1zM25 87h1v1h-1z" /><path fill="#0268fa" d="M74 12h1v1h-1zM71 13h1v1h-1zM61 16h1v1h-1zM58 17h1v1h-1zM48 20h1v1h-1zM45 21h1v1h-1zM53 78h1v1h-1zM50 79h1v1h-1zM47 80h1v1h-1zM40 82h1v1h-1zM37 83h1v1h-1zM34 84h1v1h-1zM27 86h1v1h-1zM24 87h1v1h-1z" /><path fill="#0269fa" d="M75 12h1v1h-1zM68 14h1v1h-1zM65 15h1v1h-1zM62 16h1v1h-1zM55 18h1v1h-1zM52 19h1v1h-1zM49 20h1v1h-1zM46 80h1v1h-1zM43 81h1v1h-1zM33 84h1v1h-1zM30 85h1v1h-1z" /><path fill="#036bf9" d="M76 12h1v1h-1zM73 13h1v1h-1zM66 15h1v1h-1zM63 16h1v1h-1zM60 17h1v1h-1zM53 19h1v1h-1zM50 20h1v1h-1zM47 21h1v1h-1zM48 79h1v1h-1zM45 80h1v1h-1zM35 83h1v1h-1zM32 84h1v1h-1zM29 85h1v1h-1z" /><path fill="#036df9" d="M77 12h1v1h-1zM74 13h1v1h-1zM71 14h1v1h-1zM64 16h1v1h-1zM61 17h1v1h-1zM58 18h1v1h-1zM51 20h1v1h-1zM48 21h1v1h-1zM45 22h1v1h-1zM50 78h1v1h-1zM47 79h1v1h-1zM37 82h1v1h-1zM34 83h1v1h-1zM31 84h1v1h-1zM24 86h1v1h-1z" /><path fill="#0aeef9" d="M18 13h1v1h-1z" /><path fill="#0beef8" d="M19 13h1v1h-1zM32 17h1v1h-1z" /><path fill="#0bedf8" d="M20 13h1v1h-1zM24 14h1v1h-1zM27 15h1v1h-1zM30 16h1v1h-1zM37 19h1v1h-1zM59 78h1v1h-1zM61 79h1v1h-1zM63 80h1v1h-1zM65 81h1v1h-1zM67 82h1v1h-1zM70 83h1v1h-1zM73 84h1v1h-1zM76 85h1v1h-1zM80 86h2v1h-2z" /><path fill="#0aecf8" d="M21 13h1v1h-1zM25 14h1v1h-1zM28 15h1v1h-1zM31 16h1v1h-1zM33 17h1v1h-1zM39 20h1v1h-1zM41 21h1v1h-1zM60 79h1v1h-1zM62 80h1v1h-1zM64 81h1v1h-1zM69 83h1v1h-1zM72 84h1v1h-1zM75 85h1v1h-1zM79 86h1v1h-1z" /><path fill="#0aebf8" d="M22 13h2v1h-2zM26 14h1v1h-1zM29 15h1v1h-1zM34 17h1v1h-1zM36 18h1v1h-1zM38 19h1v1h-1zM40 20h1v1h-1zM58 78h1v1h-1zM66 82h1v1h-1zM68 83h1v1h-1zM71 84h1v1h-1zM74 85h1v1h-1zM77 86h2v1h-2z" /><path fill="#07bef2" d="M51 13h1v1h-1z" /><path fill="#0268f9" d="M52 13h1v1h-1z" /><path fill="#014bfc" d="M53 13h1v1h-1z" /><path fill="#0262fb" d="M67 13h1v1h-1zM64 14h1v1h-1zM54 17h1v1h-1zM51 18h1v1h-1zM44 82h1v1h-1zM41 83h1v1h-1zM31 86h1v1h-1zM28 87h1v1h-1z" /><path fill="#0267fa" d="M70 13h1v1h-1zM67 14h1v1h-1zM64 15h1v1h-1zM57 17h1v1h-1zM54 18h1v1h-1zM51 19h1v1h-1zM44 21h1v1h-1zM54 78h1v1h-1zM44 81h1v1h-1zM41 82h1v1h-1zM31 85h1v1h-1zM28 86h1v1h-1z" /><path fill="#026afa" d="M72 13h1v1h-1zM59 17h1v1h-1zM46 21h1v1h-1zM49 79h1v1h-1zM36 83h1v1h-1zM23 87h1v1h-1z" /><path fill="#036ff9" d="M75 13h1v1h-1zM72 14h1v1h-1zM69 15h1v1h-1zM62 17h1v1h-1zM59 18h1v1h-1zM56 19h1v1h-1zM46 22h1v1h-1zM43 23h1v1h-1zM52 77h1v1h-1zM46 79h1v1h-1zM39 81h1v1h-1zM36 82h1v1h-1zM33 83h1v1h-1zM26 85h1v1h-1zM23 86h1v1h-1z" /><path fill="#0370f9" d="M76 13h1v1h-1zM66 16h1v1h-1zM63 17h1v1h-1zM47 22h1v1h-1zM55 76h1v1h-1zM45 79h1v1h-1zM42 80h1v1h-1zM32 83h1v1h-1zM29 84h1v1h-1z" /><path fill="#0372f9" d="M77 13h1v1h-1zM74 14h1v1h-1zM64 17h1v1h-1zM61 18h1v1h-1zM48 22h1v1h-1zM57 75h1v1h-1zM34 82h1v1h-1zM31 83h1v1h-1z" /><path fill="#0af1f9" d="M17 14h1v1h-1z" /><path fill="#0bf1f9" d="M18 14h2v1h-2zM23 15h1v1h-1zM26 16h1v1h-1zM29 17h1v1h-1zM32 18h1v1h-1zM34 19h1v1h-1zM36 20h1v1h-1zM38 21h1v1h-1zM40 22h1v1h-1zM63 79h1v1h-1zM68 81h1v1h-1zM70 82h1v1h-1zM73 83h1v1h-1zM77 84h1v1h-1zM81 85h1v1h-1z" /><path fill="#0bf0f9" d="M20 14h1v1h-1zM24 15h1v1h-1zM27 16h1v1h-1zM30 17h1v1h-1zM35 19h1v1h-1zM37 20h1v1h-1zM39 21h1v1h-1zM59 77h1v1h-1zM61 78h1v1h-1zM65 80h1v1h-1zM67 81h1v1h-1zM72 83h1v1h-1zM76 84h1v1h-1zM80 85h1v1h-1z" /><path fill="#0beff9" d="M21 14h2v1h-2zM25 15h1v1h-1zM28 16h1v1h-1zM31 17h1v1h-1zM33 18h1v1h-1zM41 22h1v1h-1zM60 78h1v1h-1zM62 79h1v1h-1zM64 80h1v1h-1zM66 81h1v1h-1zM69 82h1v1h-1zM75 84h1v1h-1zM78 85h2v1h-2z" /><path fill="#0beef9" d="M23 14h1v1h-1zM26 15h1v1h-1zM29 16h1v1h-1zM34 18h1v1h-1zM36 19h1v1h-1zM38 20h1v1h-1zM40 21h1v1h-1zM58 77h1v1h-1zM68 82h1v1h-1zM71 83h1v1h-1zM74 84h1v1h-1zM77 85h1v1h-1z" /><path fill="#05b8f5" d="M50 14h1v1h-1z" /><path fill="#036afa" d="M69 14h1v1h-1zM56 18h1v1h-1zM52 78h1v1h-1zM39 82h1v1h-1zM26 86h1v1h-1z" /><path fill="#036cf9" d="M70 14h1v1h-1zM67 15h1v1h-1zM57 18h1v1h-1zM54 19h1v1h-1zM44 22h1v1h-1zM54 77h1v1h-1zM51 78h1v1h-1zM44 80h1v1h-1zM41 81h1v1h-1zM38 82h1v1h-1zM28 85h1v1h-1zM25 86h1v1h-1z" /><path fill="#0371f9" d="M73 14h1v1h-1zM70 15h1v1h-1zM67 16h1v1h-1zM60 18h1v1h-1zM57 19h1v1h-1zM44 23h1v1h-1zM54 76h1v1h-1zM41 80h1v1h-1zM38 81h1v1h-1zM35 82h1v1h-1zM28 84h1v1h-1zM25 85h1v1h-1zM22 86h1v1h-1z" /><path fill="#0374f8" d="M75 14h1v1h-1zM72 15h1v1h-1zM62 18h1v1h-1zM59 19h1v1h-1zM36 81h1v1h-1zM33 82h1v1h-1zM23 85h1v1h-1z" /><path fill="#0376f8" d="M76 14h1v1h-1zM73 15h1v1h-1zM70 16h1v1h-1zM60 19h1v1h-1zM38 80h1v1h-1zM35 81h1v1h-1zM25 84h1v1h-1zM22 85h1v1h-1z" /><path fill="#0377f8" d="M77 14h1v1h-1zM67 17h1v1h-1zM64 18h1v1h-1zM61 19h1v1h-1zM41 25h1v1h-1zM34 81h1v1h-1zM31 82h1v1h-1zM28 83h1v1h-1z" /><path fill="#0378f8" d="M78 14h1v1h-1zM74 15h1v1h-1zM71 16h1v1h-1zM68 17h1v1h-1zM40 25h1v1h-1zM37 80h1v1h-1zM27 83h1v1h-1zM24 84h1v1h-1z" /><path fill="#0bf1f0" d="M16 15h1v1h-1z" /><path fill="#0bf2f1" d="M17 15h1v1h-1zM31 19h1v1h-1zM39 23h1v1h-1z" /><path fill="#0bf2f3" d="M18 15h1v1h-1zM26 17h1v1h-1zM29 18h1v1h-1zM36 21h1v1h-1zM68 80h1v1h-1zM82 84h1v1h-1z" /><path fill="#0bf2f4" d="M19 15h1v1h-1zM23 16h1v1h-1zM34 20h1v1h-1zM38 22h1v1h-1zM77 83h1v1h-1z" /><path fill="#0bf2f6" d="M20 15h1v1h-1zM24 16h1v1h-1zM30 18h1v1h-1zM59 76h1v1h-1zM61 77h1v1h-1zM65 79h1v1h-1zM67 80h1v1h-1zM76 83h1v1h-1zM80 84h1v1h-1z" /><path fill="#0bf2f7" d="M21 15h1v1h-1zM35 20h1v1h-1zM37 21h1v1h-1zM72 82h1v1h-1z" /><path fill="#0bf2f9" d="M22 15h1v1h-1zM31 18h1v1h-1zM60 77h1v1h-1zM62 78h1v1h-1zM64 79h1v1h-1zM66 80h1v1h-1zM71 82h1v1h-1zM74 83h1v1h-1zM78 84h1v1h-1z" /><path fill="#09e2f7" d="M36 15h1v1h-1zM40 17h1v1h-1zM71 87h1v1h-1z" /><path fill="#06adf6" d="M49 15h1v1h-1z" /><path fill="#036ef9" d="M68 15h1v1h-1zM65 16h1v1h-1zM55 19h1v1h-1zM52 20h1v1h-1zM56 76h2v1h-2zM53 77h1v1h-1zM43 80h1v1h-1zM40 81h1v1h-1zM30 84h1v1h-1zM27 85h1v1h-1z" /><path fill="#0373f8" d="M71 15h1v1h-1zM68 16h1v1h-1zM65 17h1v1h-1zM58 19h1v1h-1zM42 24h1v1h-1zM56 75h1v1h-1zM40 80h1v1h-1zM37 81h1v1h-1zM30 83h1v1h-1zM27 84h1v1h-1zM24 85h1v1h-1z" /><path fill="#0379f8" d="M75 15h1v1h-1zM65 18h1v1h-1zM62 19h1v1h-1zM59 73h1v1h-1zM36 80h1v1h-1zM33 81h1v1h-1zM30 82h1v1h-1zM23 84h1v1h-1z" /><path fill="#037bf7" d="M76 15h1v1h-1zM73 16h1v1h-1zM63 19h1v1h-1zM60 20h1v1h-1zM35 80h1v1h-1zM32 81h1v1h-1zM22 84h1v1h-1z" /><path fill="#047cf7" d="M77 15h1v1h-1zM70 17h1v1h-1zM67 18h1v1h-1zM64 19h1v1h-1zM41 26h1v1h-1zM31 81h1v1h-1zM28 82h1v1h-1z" /><path fill="#047ef7" d="M78 15h1v1h-1zM75 16h1v1h-1zM68 18h1v1h-1zM65 19h1v1h-1zM62 20h1v1h-1zM59 72h1v1h-1zM33 80h1v1h-1zM30 81h1v1h-1z" /><path fill="#0bf1e7" d="M15 16h1v1h-1z" /><path fill="#0bf2e9" d="M16 16h1v1h-1zM25 18h1v1h-1zM28 19h1v1h-1zM33 21h1v1h-1zM35 22h1v1h-1zM37 23h1v1h-1zM39 24h1v1h-1zM69 79h1v1h-1z" /><path fill="#0bf2ea" d="M17 16h1v1h-1zM22 17h1v1h-1zM31 20h1v1h-1zM64 77h1v1h-1zM78 82h1v1h-1z" /><path fill="#0bf2eb" d="M18 16h1v1h-1zM26 18h1v1h-1zM60 75h1v1h-1zM62 76h1v1h-1zM66 78h1v1h-1zM71 80h1v1h-1zM74 81h1v1h-1zM83 83h1v1h-1z" /><path fill="#0bf2ed" d="M19 16h1v1h-1zM32 20h1v1h-1zM38 23h1v1h-1zM70 80h1v1h-1zM73 81h1v1h-1zM81 83h1v1h-1z" /><path fill="#0bf2ee" d="M20 16h1v1h-1zM24 17h1v1h-1zM27 18h1v1h-1zM30 19h1v1h-1zM61 76h1v1h-1zM63 77h1v1h-1zM65 78h1v1h-1zM76 82h1v1h-1zM80 83h1v1h-1z" /><path fill="#0bf2f0" d="M21 16h1v1h-1zM25 17h1v1h-1zM28 18h1v1h-1zM33 20h1v1h-1zM35 21h1v1h-1zM37 22h1v1h-1zM69 80h1v1h-1zM72 81h1v1h-1zM75 82h1v1h-1zM79 83h1v1h-1z" /><path fill="#0bf2f2" d="M22 16h1v1h-1zM60 76h1v1h-1zM62 77h1v1h-1zM64 78h1v1h-1zM66 79h1v1h-1zM71 81h1v1h-1zM74 82h1v1h-1zM78 83h1v1h-1z" /><path fill="#0bf2f8" d="M25 16h1v1h-1zM28 17h1v1h-1zM33 19h1v1h-1zM39 22h1v1h-1zM69 81h1v1h-1zM75 83h1v1h-1zM79 84h1v1h-1z" /><path fill="#039df7" d="M48 16h1v1h-1z" /><path fill="#0154fb" d="M49 16h1v1h-1z" /><path fill="#0375f8" d="M69 16h1v1h-1zM66 17h1v1h-1zM63 18h1v1h-1zM57 20h1v1h-1zM58 74h1v1h-1zM42 79h1v1h-1zM39 80h1v1h-1zM32 82h1v1h-1zM29 83h1v1h-1zM26 84h1v1h-1z" /><path fill="#037af8" d="M72 16h1v1h-1zM69 17h1v1h-1zM40 26h1v1h-1zM39 79h1v1h-1zM29 82h1v1h-1zM26 83h1v1h-1z" /><path fill="#047df7" d="M74 16h1v1h-1zM71 17h1v1h-1zM61 20h1v1h-1zM37 79h1v1h-1zM34 80h1v1h-1zM27 82h1v1h-1zM24 83h1v1h-1zM21 84h1v1h-1z" /><path fill="#0480f7" d="M76 16h1v1h-1zM73 17h1v1h-1zM66 19h1v1h-1zM63 20h1v1h-1zM61 71h1v1h-1zM35 79h1v1h-1zM32 80h1v1h-1zM22 83h1v1h-1z" /><path fill="#0482f7" d="M77 16h1v1h-1zM74 17h1v1h-1zM64 20h1v1h-1zM38 28h1v1h-1zM34 79h1v1h-1zM31 80h1v1h-1zM24 82h1v1h-1zM21 83h1v1h-1z" /><path fill="#0483f6" d="M78 16h1v1h-1zM68 19h1v1h-1zM65 20h1v1h-1zM30 80h1v1h-1zM27 81h1v1h-1z" /><path fill="#0385f6" d="M79 16h1v1h-1zM59 74h1v1h-1z" /><path fill="#0bf2df" d="M14 17h1v1h-1zM20 18h1v1h-1zM24 19h1v1h-1zM27 20h1v1h-1zM30 21h1v1h-1zM76 80h1v1h-1zM80 81h1v1h-1z" /><path fill="#0bf2e0" d="M15 17h1v1h-1zM61 74h1v1h-1zM63 75h1v1h-1zM65 76h1v1h-1zM67 77h1v1h-1zM72 79h1v1h-1z" /><path fill="#0bf2e1" d="M16 17h1v1h-1zM21 18h1v1h-1zM25 19h1v1h-1zM28 20h1v1h-1zM35 23h1v1h-1zM69 78h1v1h-1zM75 80h1v1h-1zM79 81h1v1h-1z" /><path fill="#0bf2e2" d="M17 17h1v1h-1zM22 18h1v1h-1zM33 22h1v1h-1zM37 24h1v1h-1zM84 82h1v1h-1z" /><path fill="#0bf2e4" d="M18 17h1v1h-1zM23 18h1v1h-1zM26 19h1v1h-1zM29 20h1v1h-1zM68 78h1v1h-1zM77 81h1v1h-1zM82 82h1v1h-1z" /><path fill="#0bf2e5" d="M19 17h1v1h-1zM34 22h1v1h-1zM36 23h1v1h-1zM38 24h1v1h-1zM81 82h1v1h-1z" /><path fill="#0bf2e7" d="M20 17h1v1h-1zM24 18h1v1h-1zM30 20h1v1h-1zM61 75h1v1h-1zM63 76h1v1h-1zM65 77h1v1h-1zM80 82h1v1h-1z" /><path fill="#0bf2e8" d="M21 17h1v1h-1zM67 78h1v1h-1zM72 80h1v1h-1zM75 81h1v1h-1zM79 82h1v1h-1z" /><path fill="#0bf2ec" d="M23 17h1v1h-1zM29 19h1v1h-1zM34 21h1v1h-1zM36 22h1v1h-1zM68 79h1v1h-1zM77 82h1v1h-1zM82 83h1v1h-1z" /><path fill="#0bf2f5" d="M27 17h1v1h-1zM32 19h1v1h-1zM40 23h1v1h-1zM63 78h1v1h-1zM70 81h1v1h-1zM73 82h1v1h-1zM81 84h1v1h-1z" /><path fill="#038cf9" d="M47 17h1v1h-1z" /><path fill="#047ff7" d="M72 17h1v1h-1zM69 18h1v1h-1zM36 79h1v1h-1zM29 81h1v1h-1zM26 82h1v1h-1zM23 83h1v1h-1z" /><path fill="#0484f6" d="M75 17h1v1h-1zM72 18h1v1h-1zM69 19h1v1h-1zM33 79h1v1h-1zM26 81h1v1h-1zM23 82h1v1h-1z" /><path fill="#0485f6" d="M76 17h1v1h-1zM66 20h1v1h-1zM32 79h1v1h-1zM29 80h1v1h-1z" /><path fill="#0487f6" d="M77 17h1v1h-1zM74 18h1v1h-1zM64 21h1v1h-1zM34 78h1v1h-1zM31 79h1v1h-1zM21 82h1v1h-1z" /><path fill="#0488f6" d="M78 17h1v1h-1zM71 19h1v1h-1zM68 20h1v1h-1zM65 21h1v1h-1zM30 79h1v1h-1zM27 80h1v1h-1zM24 81h1v1h-1z" /><path fill="#038af5" d="M79 17h1v1h-1z" /><path fill="#0bf1d6" d="M13 18h1v1h-1z" /><path fill="#0bf2d8" d="M14 18h2v1h-2zM30 22h1v1h-1zM63 74h1v1h-1zM65 75h1v1h-1zM80 80h1v1h-1z" /><path fill="#0bf2d9" d="M16 18h1v1h-1zM21 19h1v1h-1zM61 73h1v1h-1zM67 76h1v1h-1zM72 78h1v1h-1zM75 79h1v1h-1zM79 80h1v1h-1z" /><path fill="#0bf2db" d="M17 18h1v1h-1zM22 19h1v1h-1zM31 22h1v1h-1zM78 80h1v1h-1zM83 81h1v1h-1z" /><path fill="#0bf2dc" d="M18 18h1v1h-1zM26 20h1v1h-1zM62 74h1v1h-1zM64 75h1v1h-1zM66 76h1v1h-1zM71 78h1v1h-1zM74 79h1v1h-1z" /><path fill="#0bf2dd" d="M19 18h1v1h-1zM23 19h1v1h-1zM29 21h1v1h-1zM68 77h1v1h-1zM77 80h1v1h-1zM82 81h1v1h-1z" /><path fill="#0aedf8" d="M35 18h1v1h-1z" /><path fill="#058bf9" d="M46 18h1v1h-1z" /><path fill="#037af7" d="M66 18h1v1h-1z" /><path fill="#0481f7" d="M70 18h1v1h-1zM67 19h1v1h-1zM28 81h1v1h-1zM25 82h1v1h-1z" /><path fill="#0482f6" d="M71 18h1v1h-1zM37 78h1v1h-1z" /><path fill="#0486f6" d="M73 18h1v1h-1zM70 19h1v1h-1zM67 20h1v1h-1zM35 78h1v1h-1zM28 80h1v1h-1zM25 81h1v1h-1zM22 82h1v1h-1z" /><path fill="#0489f6" d="M75 18h1v1h-1zM72 19h1v1h-1zM33 78h1v1h-1zM23 81h1v1h-1z" /><path fill="#048af5" d="M76 18h1v1h-1z" /><path fill="#048cf5" d="M77 18h1v1h-1zM67 21h1v1h-1zM31 78h1v1h-1zM28 79h1v1h-1zM21 81h1v1h-1z" /><path fill="#058ef5" d="M78 18h1v1h-1zM75 19h1v1h-1zM65 22h1v1h-1zM33 77h1v1h-1zM30 78h1v1h-1zM23 80h1v1h-1z" /><path fill="#058ff5" d="M79 18h1v1h-1zM72 20h1v1h-1zM69 21h1v1h-1zM66 22h1v1h-1zM29 78h1v1h-1zM26 79h1v1h-1z" /><path fill="#0cf1cf" d="M12 19h1v1h-1z" /><path fill="#0cf2cf" d="M13 19h1v1h-1zM34 25h1v1h-1zM36 26h1v1h-1zM70 76h1v1h-1zM73 77h1v1h-1zM81 79h1v1h-1z" /><path fill="#0cf2d0" d="M14 19h1v1h-1zM20 20h1v1h-1zM24 21h1v1h-1zM27 22h1v1h-1zM32 24h1v1h-1zM76 78h1v1h-1zM80 79h1v1h-1z" /><path fill="#0cf2d1" d="M15 19h1v1h-1zM21 20h1v1h-1zM30 23h1v1h-1zM63 73h1v1h-1zM65 74h1v1h-1zM67 75h1v1h-1zM72 77h1v1h-1zM86 80h1v1h-1z" /><path fill="#0cf2d2" d="M16 19h1v1h-1zM25 21h1v1h-1zM28 22h1v1h-1zM75 78h1v1h-1zM79 79h1v1h-1zM85 80h1v1h-1z" /><path fill="#0bf2d3" d="M17 19h1v1h-1zM22 20h1v1h-1zM33 24h1v1h-1zM35 25h1v1h-1zM37 26h1v1h-1zM78 79h1v1h-1zM84 80h1v1h-1z" /><path fill="#0bf2d4" d="M18 19h1v1h-1zM26 21h1v1h-1zM31 23h1v1h-1zM71 77h1v1h-1zM74 78h1v1h-1zM83 80h1v1h-1z" /><path fill="#0bf2d6" d="M19 19h1v1h-1zM34 24h1v1h-1zM68 76h1v1h-1zM73 78h1v1h-1zM81 80h1v1h-1z" /><path fill="#0bf2d7" d="M20 19h1v1h-1zM24 20h1v1h-1zM27 21h1v1h-1zM32 23h1v1h-1zM36 25h1v1h-1zM70 77h1v1h-1zM76 79h1v1h-1z" /><path fill="#0bf2e6" d="M27 19h1v1h-1zM32 21h1v1h-1zM70 79h1v1h-1zM73 80h1v1h-1zM76 81h1v1h-1z" /><path fill="#058ef8" d="M45 19h1v1h-1z" /><path fill="#0262fa" d="M48 19h1v1h-1zM47 81h1v1h-1zM34 85h1v1h-1z" /><path fill="#048bf5" d="M73 19h1v1h-1zM70 20h1v1h-1zM34 77h1v1h-1zM25 80h1v1h-1zM22 81h1v1h-1z" /><path fill="#048df5" d="M74 19h1v1h-1zM71 20h1v1h-1zM24 80h1v1h-1z" /><path fill="#0590f5" d="M76 19h1v1h-1zM73 20h1v1h-1zM32 77h1v1h-1zM25 79h1v1h-1zM22 80h1v1h-1z" /><path fill="#0591f5" d="M77 19h1v1h-1zM70 21h1v1h-1zM67 22h1v1h-1zM31 77h1v1h-1zM28 78h1v1h-1z" /><path fill="#0593f4" d="M78 19h1v1h-1zM75 20h1v1h-1zM68 22h1v1h-1zM30 77h1v1h-1zM20 80h1v1h-1z" /><path fill="#0595f4" d="M79 19h1v1h-1zM76 20h1v1h-1zM73 21h1v1h-1zM32 76h1v1h-1zM22 79h1v1h-1z" /><path fill="#0cf1c7" d="M11 20h1v1h-1z" /><path fill="#0cf2c8" d="M12 20h2v1h-2zM20 21h1v1h-1zM24 22h1v1h-1zM27 23h1v1h-1zM32 25h1v1h-1zM34 26h1v1h-1zM36 27h1v1h-1zM70 75h1v1h-1zM76 77h1v1h-1zM80 78h1v1h-1z" /><path fill="#0cf2c9" d="M14 20h2v1h-2zM30 24h1v1h-1zM87 79h1v1h-1z" /><path fill="#0cf2ca" d="M16 20h1v1h-1zM21 21h1v1h-1zM25 22h1v1h-1zM63 72h1v1h-1zM65 73h1v1h-1zM67 74h1v1h-1zM72 76h1v1h-1zM75 77h1v1h-1zM79 78h1v1h-1zM86 79h1v1h-1z" /><path fill="#0cf2cb" d="M17 20h1v1h-1zM28 23h1v1h-1zM69 75h1v1h-1zM84 79h2v1h-2z" /><path fill="#0cf2cd" d="M18 20h1v1h-1zM26 22h1v1h-1zM64 73h1v1h-1zM66 74h1v1h-1zM71 76h1v1h-1zM82 79h1v1h-1z" /><path fill="#0cf2ce" d="M19 20h1v1h-1zM23 21h1v1h-1zM29 23h1v1h-1zM62 72h1v1h-1zM68 75h1v1h-1zM77 78h1v1h-1z" /><path fill="#0bf2d5" d="M23 20h1v1h-1zM29 22h1v1h-1zM62 73h1v1h-1zM64 74h1v1h-1zM66 75h1v1h-1zM77 79h1v1h-1zM82 80h1v1h-1z" /><path fill="#0bf2da" d="M25 20h1v1h-1zM28 21h1v1h-1zM33 23h1v1h-1zM35 24h1v1h-1zM37 25h1v1h-1zM69 77h1v1h-1zM84 81h2v1h-2z" /><path fill="#058ef9" d="M44 20h1v1h-1z" /><path fill="#036ff8" d="M53 20h1v1h-1zM49 21h1v1h-1z" /><path fill="#0271f8" d="M54 20h1v1h-1z" /><path fill="#0273f8" d="M55 20h1v1h-1z" /><path fill="#0375f7" d="M56 20h1v1h-1z" /><path fill="#0378f7" d="M58 20h1v1h-1zM40 79h1v1h-1z" /><path fill="#027af8" d="M59 20h1v1h-1z" /><path fill="#048af6" d="M69 20h1v1h-1zM66 21h1v1h-1zM32 78h1v1h-1zM29 79h1v1h-1zM26 80h1v1h-1z" /><path fill="#0592f5" d="M74 20h1v1h-1zM71 21h1v1h-1zM24 79h1v1h-1zM21 80h1v1h-1z" /><path fill="#0597f4" d="M77 20h1v1h-1zM74 21h1v1h-1zM71 22h1v1h-1zM24 78h1v1h-1zM21 79h1v1h-1z" /><path fill="#0598f4" d="M78 20h1v1h-1zM68 23h1v1h-1zM30 76h1v1h-1zM27 77h1v1h-1z" /><path fill="#059af4" d="M79 20h1v1h-1zM76 21h1v1h-1zM29 76h1v1h-1z" /><path fill="#0bf2c0" d="M10 21h1v1h-1z" /><path fill="#0cf2c0" d="M11 21h2v1h-2zM20 22h1v1h-1zM27 24h1v1h-1zM73 75h1v1h-1zM76 76h1v1h-1z" /><path fill="#0cf2c1" d="M13 21h2v1h-2zM24 23h1v1h-1zM32 26h1v1h-1zM34 27h1v1h-1zM36 28h1v1h-1zM70 74h1v1h-1zM80 77h1v1h-1z" /><path fill="#0cf2c2" d="M15 21h1v1h-1zM21 22h1v1h-1zM30 25h1v1h-1zM65 72h1v1h-1zM72 75h1v1h-1zM79 77h1v1h-1zM86 78h3v1h-3z" /><path fill="#0cf2c3" d="M16 21h1v1h-1zM25 23h1v1h-1zM28 24h1v1h-1zM63 71h1v1h-1zM67 73h1v1h-1zM75 76h1v1h-1zM85 78h1v1h-1z" /><path fill="#0cf2c4" d="M17 21h1v1h-1zM22 22h1v1h-1zM33 26h1v1h-1zM35 27h1v1h-1zM69 74h1v1h-1zM78 77h1v1h-1zM84 78h1v1h-1z" /><path fill="#0cf2c5" d="M18 21h1v1h-1zM26 23h1v1h-1zM31 25h1v1h-1zM71 75h1v1h-1zM74 76h1v1h-1zM83 78h1v1h-1z" /><path fill="#0cf2c7" d="M19 21h1v1h-1zM68 74h1v1h-1zM73 76h1v1h-1zM81 78h1v1h-1z" /><path fill="#0cf2cc" d="M22 21h1v1h-1zM31 24h1v1h-1zM33 25h1v1h-1zM35 26h1v1h-1zM37 27h1v1h-1zM74 77h1v1h-1zM78 78h1v1h-1zM83 79h1v1h-1z" /><path fill="#0bf2e3" d="M31 21h1v1h-1zM62 75h1v1h-1zM64 76h1v1h-1zM66 77h1v1h-1zM71 79h1v1h-1zM74 80h1v1h-1zM78 81h1v1h-1zM83 82h1v1h-1z" /><path fill="#06a2f9" d="M43 21h1v1h-1z" /><path fill="#026ff8" d="M50 21h1v1h-1z" /><path fill="#0384f5" d="M63 21h1v1h-1zM20 83h1v1h-1z" /><path fill="#058df5" d="M68 21h1v1h-1zM27 79h1v1h-1z" /><path fill="#0594f4" d="M72 21h1v1h-1zM69 22h1v1h-1zM29 77h1v1h-1zM26 78h1v1h-1zM23 79h1v1h-1z" /><path fill="#0599f4" d="M75 21h1v1h-1zM72 22h1v1h-1zM69 23h1v1h-1zM26 77h1v1h-1zM23 78h1v1h-1zM20 79h1v1h-1z" /><path fill="#059cf3" d="M77 21h1v1h-1zM74 22h1v1h-1zM21 78h1v1h-1z" /><path fill="#059df3" d="M78 21h1v1h-1zM71 23h1v1h-1zM30 75h1v1h-1zM27 76h1v1h-1zM24 77h1v1h-1z" /><path fill="#069ff3" d="M79 21h1v1h-1zM76 22h1v1h-1zM69 24h1v1h-1zM29 75h1v1h-1zM26 76h1v1h-1z" /><path fill="#0cf2b9" d="M9 22h1v1h-1zM11 22h3v1h-3zM20 23h1v1h-1zM24 24h1v1h-1zM27 25h1v1h-1zM34 28h1v1h-1zM70 73h1v1h-1zM76 75h1v1h-1zM80 76h1v1h-1z" /><path fill="#0cf2b8" d="M10 22h1v1h-1zM64 70h1v1h-1zM66 71h1v1h-1zM68 72h1v1h-1zM73 74h1v1h-1zM81 76h1v1h-1z" /><path fill="#0cf2ba" d="M14 22h2v1h-2zM30 26h1v1h-1zM32 27h1v1h-1zM88 77h3v1h-3z" /><path fill="#0cf2bb" d="M16 22h1v1h-1zM21 23h1v1h-1zM25 24h1v1h-1zM65 71h1v1h-1zM67 72h1v1h-1zM72 74h1v1h-1zM75 75h1v1h-1zM79 76h1v1h-1zM86 77h2v1h-2z" /><path fill="#0cf2bc" d="M17 22h1v1h-1zM22 23h1v1h-1zM28 25h1v1h-1zM69 73h1v1h-1zM78 76h1v1h-1zM84 77h2v1h-2z" /><path fill="#0cf2be" d="M18 22h1v1h-1zM23 23h1v1h-1zM26 24h1v1h-1zM71 74h1v1h-1zM77 76h1v1h-1zM82 77h1v1h-1z" /><path fill="#0cf2bf" d="M19 22h1v1h-1zM29 25h1v1h-1zM64 71h1v1h-1zM66 72h1v1h-1zM68 73h1v1h-1zM81 77h1v1h-1z" /><path fill="#0cf2c6" d="M23 22h1v1h-1zM29 24h1v1h-1zM64 72h1v1h-1zM66 73h1v1h-1zM77 77h1v1h-1zM82 78h1v1h-1z" /><path fill="#0bf2de" d="M32 22h1v1h-1zM34 23h1v1h-1zM36 24h1v1h-1zM38 25h1v1h-1zM70 78h1v1h-1zM73 79h1v1h-1zM81 81h1v1h-1z" /><path fill="#07b2f7" d="M42 22h1v1h-1z" /><path fill="#0369f9" d="M43 22h1v1h-1z" /><path fill="#0596f4" d="M70 22h1v1h-1zM67 23h1v1h-1zM31 76h1v1h-1zM28 77h1v1h-1zM25 78h1v1h-1z" /><path fill="#059bf3" d="M73 22h1v1h-1zM70 23h1v1h-1zM28 76h1v1h-1zM25 77h1v1h-1zM22 78h1v1h-1z" /><path fill="#059ef3" d="M75 22h1v1h-1zM72 23h1v1h-1zM23 77h1v1h-1zM20 78h1v1h-1z" /><path fill="#06a1f3" d="M77 22h1v1h-1zM74 23h1v1h-1zM28 75h1v1h-1zM21 77h1v1h-1z" /><path fill="#06a3f2" d="M78 22h1v1h-1zM75 23h1v1h-1zM30 74h1v1h-1zM23 76h1v1h-1zM20 77h1v1h-1z" /><path fill="#06a4f2" d="M79 22h1v1h-1zM72 24h1v1h-1zM29 74h1v1h-1zM26 75h1v1h-1z" /><path fill="#05a5f2" d="M80 22h1v1h-1z" /><path fill="#0cf2b1" d="M8 23h5v1h-5zM20 24h1v1h-1zM24 25h1v1h-1zM27 26h1v1h-1zM64 69h1v1h-1zM68 71h1v1h-1zM73 73h1v1h-1zM76 74h1v1h-1z" /><path fill="#0cf2b2" d="M13 23h2v1h-2zM32 28h1v1h-1zM34 29h1v1h-1zM70 72h1v1h-1zM80 75h1v1h-1z" /><path fill="#0cf2b3" d="M15 23h1v1h-1zM21 24h1v1h-1zM30 27h1v1h-1zM72 73h1v1h-1zM75 74h1v1h-1zM79 75h1v1h-1zM87 76h4v1h-4z" /><path fill="#0cf2b4" d="M16 23h1v1h-1zM25 25h1v1h-1zM28 26h1v1h-1zM65 70h1v1h-1zM67 71h1v1h-1zM85 76h2v1h-2z" /><path fill="#0cf2b5" d="M17 23h1v1h-1zM22 24h1v1h-1zM69 72h1v1h-1zM78 75h1v1h-1zM84 76h1v1h-1z" /><path fill="#0cf2b6" d="M18 23h1v1h-1zM26 25h1v1h-1zM31 27h1v1h-1zM33 28h1v1h-1zM35 29h1v1h-1zM71 73h1v1h-1zM74 74h1v1h-1zM83 76h1v1h-1z" /><path fill="#0cf2b7" d="M19 23h1v1h-1zM23 24h1v1h-1zM29 26h1v1h-1zM77 75h1v1h-1zM82 76h1v1h-1z" /><path fill="#08c4f8" d="M41 23h1v1h-1z" /><path fill="#036df8" d="M42 23h1v1h-1z" /><path fill="#0372f8" d="M45 23h1v1h-1zM43 79h2v1h-2z" /><path fill="#06a0f3" d="M73 23h1v1h-1zM70 24h1v1h-1zM25 76h1v1h-1zM22 77h1v1h-1z" /><path fill="#06a5f2" d="M76 23h1v1h-1zM73 24h1v1h-1zM25 75h1v1h-1zM22 76h1v1h-1z" /><path fill="#06a6f2" d="M77 23h1v1h-1zM70 25h1v1h-1zM28 74h1v1h-1z" /><path fill="#06a8f2" d="M78 23h1v1h-1zM75 24h1v1h-1zM20 76h1v1h-1z" /><path fill="#06aaf2" d="M79 23h1v1h-1zM76 24h1v1h-1zM73 25h1v1h-1zM22 75h1v1h-1z" /><path fill="#05abf1" d="M80 23h1v1h-1z" /><path fill="#0cf3ab" d="M8 24h1v1h-1zM14 24h2v1h-2zM21 25h1v1h-1zM30 28h1v1h-1zM32 29h1v1h-1zM34 30h1v1h-1z" /><path fill="#0cf3aa" d="M9 24h5v1h-5zM20 25h1v1h-1zM24 26h1v1h-1zM27 27h1v1h-1zM70 71h1v1h-1zM76 73h1v1h-1zM80 74h1v1h-1z" /><path fill="#0cf2ac" d="M16 24h1v1h-1zM25 26h1v1h-1zM72 72h1v1h-1zM75 73h1v1h-1zM79 74h1v1h-1zM86 75h5v1h-5z" /><path fill="#0cf2ad" d="M17 24h1v1h-1zM22 25h1v1h-1zM28 27h1v1h-1zM65 69h1v1h-1zM67 70h1v1h-1zM69 71h1v1h-1zM78 74h1v1h-1zM84 75h2v1h-2z" /><path fill="#0cf2ae" d="M18 24h1v1h-1zM74 73h1v1h-1zM83 75h1v1h-1z" /><path fill="#0cf2b0" d="M19 24h1v1h-1zM29 27h1v1h-1zM66 70h1v1h-1zM81 75h1v1h-1z" /><path fill="#09dbf0" d="M40 24h1v1h-1z" /><path fill="#0371f8" d="M41 24h1v1h-1z" /><path fill="#0374f7" d="M43 24h1v1h-1z" /><path fill="#0376f7" d="M44 24h1v1h-1zM57 74h1v1h-1zM41 79h1v1h-1z" /><path fill="#049df3" d="M68 24h1v1h-1z" /><path fill="#06a2f3" d="M71 24h1v1h-1zM27 75h1v1h-1zM24 76h1v1h-1z" /><path fill="#06a7f2" d="M74 24h1v1h-1zM71 25h1v1h-1zM27 74h1v1h-1zM24 75h1v1h-1zM21 76h1v1h-1z" /><path fill="#06acf1" d="M77 24h1v1h-1zM74 25h1v1h-1zM71 26h1v1h-1zM24 74h1v1h-1zM21 75h1v1h-1z" /><path fill="#06adf1" d="M78 24h1v1h-1zM27 73h1v1h-1z" /><path fill="#06aff1" d="M79 24h1v1h-1zM76 25h1v1h-1z" /><path fill="#06b0f1" d="M80 24h1v1h-1zM73 26h1v1h-1zM25 73h1v1h-1zM22 74h1v1h-1z" /><path fill="#0bf3a4" d="M7 25h1v1h-1z" /><path fill="#0cf3a3" d="M8 25h3v1h-3zM12 25h3v1h-3zM70 70h1v1h-1z" /><path fill="#0cf3a2" d="M11 25h1v1h-1zM20 26h1v1h-1zM24 27h1v1h-1zM27 28h1v1h-1zM66 68h1v1h-1zM68 69h1v1h-1zM73 71h1v1h-1zM76 72h1v1h-1zM80 73h1v1h-1z" /><path fill="#0cf3a4" d="M15 25h1v1h-1zM21 26h1v1h-1zM30 29h1v1h-1zM32 30h1v1h-1zM34 31h1v1h-1zM72 71h1v1h-1zM75 72h1v1h-1zM79 73h1v1h-1zM87 74h3v1h-3z" /><path fill="#0cf3a5" d="M16 25h1v1h-1zM25 27h1v1h-1zM28 28h1v1h-1zM67 69h1v1h-1zM85 74h2v1h-2zM90 74h2v1h-2z" /><path fill="#0cf3a6" d="M17 25h1v1h-1zM22 26h1v1h-1zM65 68h1v1h-1zM69 70h1v1h-1zM78 73h1v1h-1zM84 74h1v1h-1z" /><path fill="#0cf3a7" d="M18 25h1v1h-1zM26 27h1v1h-1zM31 29h1v1h-1zM33 30h1v1h-1zM71 71h1v1h-1zM74 72h1v1h-1zM83 74h1v1h-1z" /><path fill="#0cf3a8" d="M19 25h1v1h-1zM23 26h1v1h-1zM29 28h1v1h-1zM77 73h1v1h-1zM82 74h1v1h-1z" /><path fill="#0cf2af" d="M23 25h1v1h-1zM26 26h1v1h-1zM31 28h1v1h-1zM33 29h1v1h-1zM71 72h1v1h-1zM77 74h1v1h-1zM82 75h1v1h-1z" /><path fill="#09e9e4" d="M39 25h1v1h-1z" /><path fill="#0278f7" d="M42 25h1v1h-1z" /><path fill="#06a4f1" d="M69 25h1v1h-1z" /><path fill="#06a9f2" d="M72 25h1v1h-1zM26 74h1v1h-1zM23 75h1v1h-1z" /><path fill="#06aef1" d="M75 25h1v1h-1zM72 26h1v1h-1zM26 73h1v1h-1zM23 74h1v1h-1zM20 75h1v1h-1z" /><path fill="#07b1f1" d="M77 25h1v1h-1zM74 26h1v1h-1zM21 74h1v1h-1z" /><path fill="#07b2f1" d="M78 25h1v1h-1zM27 72h1v1h-1zM24 73h1v1h-1z" /><path fill="#07b4f0" d="M79 25h1v1h-1zM76 26h1v1h-1zM26 72h1v1h-1z" /><path fill="#06b5ef" d="M80 25h1v1h-1z" /><path fill="#0bf39d" d="M6 26h1v1h-1z" /><path fill="#0cf39d" d="M7 26h1v1h-1zM16 26h1v1h-1zM25 28h1v1h-1zM30 30h1v1h-1zM72 70h1v1h-1zM75 71h1v1h-1zM86 73h4v1h-4z" /><path fill="#0cf39c" d="M8 26h2v1h-2zM14 26h2v1h-2zM21 27h1v1h-1zM32 31h1v1h-1zM79 72h1v1h-1z" /><path fill="#0cf39b" d="M10 26h4v1h-4zM24 28h1v1h-1zM27 29h1v1h-1zM66 67h1v1h-1zM68 68h1v1h-1zM70 69h1v1h-1zM80 72h1v1h-1z" /><path fill="#0cf39e" d="M17 26h1v1h-1zM22 27h1v1h-1zM28 29h1v1h-1zM67 68h1v1h-1zM78 72h1v1h-1zM84 73h2v1h-2zM90 73h2v1h-2z" /><path fill="#0cf39f" d="M18 26h1v1h-1zM69 69h1v1h-1zM74 71h1v1h-1zM83 73h1v1h-1zM92 73h1v1h-1z" /><path fill="#0cf3a1" d="M19 26h1v1h-1zM29 29h1v1h-1zM81 73h1v1h-1z" /><path fill="#0cf2bd" d="M31 26h1v1h-1zM33 27h1v1h-1zM35 28h1v1h-1zM74 75h1v1h-1zM83 77h1v1h-1z" /><path fill="#0befd7" d="M38 26h1v1h-1z" /><path fill="#0385f4" d="M39 26h1v1h-1z" /><path fill="#05aaf0" d="M70 26h1v1h-1z" /><path fill="#07b3f0" d="M75 26h1v1h-1zM72 27h1v1h-1zM23 73h1v1h-1zM20 74h1v1h-1z" /><path fill="#07b6f0" d="M77 26h1v1h-1zM74 27h1v1h-1zM21 73h1v1h-1z" /><path fill="#07b8f0" d="M78 26h1v1h-1zM75 27h1v1h-1zM72 28h1v1h-1zM23 72h1v1h-1zM20 73h1v1h-1z" /><path fill="#07b9f0" d="M79 26h1v1h-1zM26 71h1v1h-1z" /><path fill="#07bbef" d="M80 26h1v1h-1zM77 27h1v1h-1z" /><path fill="#0cf397" d="M6 27h1v1h-1zM67 67h1v1h-1zM69 68h1v1h-1zM74 70h1v1h-1zM83 72h2v1h-2zM91 72h1v1h-1z" /><path fill="#0cf396" d="M7 27h1v1h-1zM16 27h2v1h-2zM22 28h1v1h-1zM25 29h1v1h-1zM28 30h1v1h-1zM78 71h1v1h-1zM85 72h6v1h-6z" /><path fill="#0cf395" d="M8 27h2v1h-2zM15 27h1v1h-1zM21 28h1v1h-1zM30 31h1v1h-1zM32 32h1v1h-1zM72 69h1v1h-1zM75 70h1v1h-1zM79 71h1v1h-1z" /><path fill="#0cf394" d="M10 27h5v1h-5zM66 66h1v1h-1zM70 68h1v1h-1z" /><path fill="#0cf398" d="M18 27h1v1h-1zM23 28h1v1h-1zM26 29h1v1h-1zM71 69h1v1h-1zM77 71h1v1h-1zM82 72h1v1h-1zM92 72h1v1h-1z" /><path fill="#0cf399" d="M19 27h1v1h-1zM29 30h1v1h-1zM31 31h1v1h-1zM33 32h1v1h-1z" /><path fill="#0cf39a" d="M20 27h1v1h-1zM73 70h1v1h-1zM76 71h1v1h-1zM81 72h1v1h-1z" /><path fill="#0cf3a0" d="M23 27h1v1h-1zM26 28h1v1h-1zM31 30h1v1h-1zM33 31h1v1h-1zM71 70h1v1h-1zM77 72h1v1h-1zM82 73h1v1h-1z" /><path fill="#069fec" d="M38 27h1v1h-1z" /><path fill="#047df6" d="M39 27h1v1h-1zM60 72h1v1h-1z" /><path fill="#07b1f0" d="M71 27h1v1h-1z" /><path fill="#07b5f0" d="M73 27h1v1h-1zM25 72h1v1h-1zM22 73h1v1h-1z" /><path fill="#07baf0" d="M76 27h1v1h-1zM73 28h1v1h-1zM25 71h1v1h-1zM22 72h1v1h-1zM19 73h1v1h-1z" /><path fill="#07bdef" d="M78 27h1v1h-1zM75 28h1v1h-1zM20 72h1v1h-1z" /><path fill="#07bfef" d="M79 27h1v1h-1zM76 28h1v1h-1zM73 29h1v1h-1zM22 71h1v1h-1z" /><path fill="#0cf291" d="M5 28h1v1h-1z" /><path fill="#0cf390" d="M6 28h1v1h-1zM18 28h1v1h-1zM67 66h1v1h-1zM69 67h1v1h-1zM74 69h1v1h-1zM83 71h1v1h-1zM91 71h1v1h-1z" /><path fill="#0cf38f" d="M7 28h1v1h-1zM17 28h1v1h-1zM22 29h1v1h-1zM28 31h1v1h-1zM78 70h1v1h-1zM84 71h2v1h-2zM89 71h2v1h-2z" /><path fill="#0cf38e" d="M8 28h2v1h-2zM16 28h1v1h-1zM25 30h1v1h-1zM30 32h1v1h-1zM32 33h1v1h-1zM72 68h1v1h-1zM86 71h3v1h-3z" /><path fill="#0cf38d" d="M10 28h6v1h-6zM21 29h1v1h-1zM70 67h1v1h-1zM75 69h1v1h-1zM79 70h1v1h-1zM94 70h1v1h-1z" /><path fill="#0cf391" d="M19 28h1v1h-1zM23 29h1v1h-1zM26 30h1v1h-1zM71 68h1v1h-1zM77 70h1v1h-1zM82 71h1v1h-1zM92 71h1v1h-1z" /><path fill="#0cf393" d="M20 28h1v1h-1zM24 29h1v1h-1zM27 30h1v1h-1zM68 67h1v1h-1zM76 70h1v1h-1zM80 71h1v1h-1z" /><path fill="#08cbd6" d="M37 28h1v1h-1z" /><path fill="#06b7f0" d="M71 28h1v1h-1z" /><path fill="#07bcef" d="M74 28h1v1h-1zM24 71h1v1h-1zM21 72h1v1h-1z" /><path fill="#07c1ef" d="M77 28h1v1h-1zM74 29h1v1h-1zM24 70h1v1h-1zM21 71h1v1h-1z" /><path fill="#08c2ef" d="M78 28h1v1h-1z" /><path fill="#08c4ee" d="M79 28h1v1h-1zM76 29h1v1h-1z" /><path fill="#0cf28c" d="M4 29h1v1h-1z" /><path fill="#0cf38b" d="M5 29h1v1h-1zM20 29h1v1h-1zM29 32h1v1h-1zM73 68h1v1h-1zM76 69h1v1h-1zM93 70h1v1h-1z" /><path fill="#0cf38a" d="M6 29h1v1h-1zM19 29h1v1h-1zM31 33h1v1h-1zM81 70h1v1h-1zM92 70h1v1h-1z" /><path fill="#0cf388" d="M7 29h1v1h-1zM18 29h1v1h-1zM74 68h1v1h-1zM83 70h2v1h-2zM89 70h2v1h-2z" /><path fill="#0cf387" d="M8 29h1v1h-1zM16 29h2v1h-2zM22 30h1v1h-1zM28 32h1v1h-1zM30 33h1v1h-1zM32 34h1v1h-1zM78 69h1v1h-1zM85 70h4v1h-4z" /><path fill="#0cf386" d="M9 29h2v1h-2zM15 29h1v1h-1zM25 31h1v1h-1zM72 67h1v1h-1zM75 68h1v1h-1zM79 69h1v1h-1zM94 69h1v1h-1z" /><path fill="#0cf385" d="M11 29h4v1h-4zM21 30h1v1h-1zM68 65h1v1h-1zM70 66h1v1h-1z" /><path fill="#0ae5c0" d="M36 29h1v1h-1z" /><path fill="#0387f4" d="M37 29h1v1h-1z" /><path fill="#07beef" d="M72 29h1v1h-1zM26 70h1v1h-1zM23 71h1v1h-1z" /><path fill="#08c3ef" d="M75 29h1v1h-1zM20 71h1v1h-1z" /><path fill="#08c6ee" d="M77 29h1v1h-1zM74 30h1v1h-1zM21 70h1v1h-1z" /><path fill="#08c7ee" d="M78 29h1v1h-1zM24 69h1v1h-1z" /><path fill="#08c9ee" d="M79 29h1v1h-1zM76 30h1v1h-1zM26 68h1v1h-1z" /><path fill="#0cf285" d="M4 30h1v1h-1z" /><path fill="#0df385" d="M5 30h1v1h-1zM93 69h1v1h-1z" /><path fill="#0df383" d="M6 30h1v1h-1zM29 33h1v1h-1zM31 34h1v1h-1zM73 67h1v1h-1zM81 69h1v1h-1zM92 69h1v1h-1z" /><path fill="#0df382" d="M7 30h1v1h-1zM19 30h1v1h-1zM3 31h1v1h-1zM23 31h1v1h-1zM26 32h1v1h-1zM71 66h1v1h-1zM95 68h1v1h-1zM82 69h1v1h-1zM91 69h1v1h-1z" /><path fill="#0df380" d="M8 30h1v1h-1zM17 30h1v1h-1zM4 31h1v1h-1zM22 31h1v1h-1zM28 33h1v1h-1zM78 68h1v1h-1zM94 68h1v1h-1zM84 69h5v1h-5z" /><path fill="#0df37f" d="M9 30h2v1h-2zM16 30h1v1h-1zM25 32h1v1h-1zM30 34h1v1h-1zM72 66h1v1h-1z" /><path fill="#0df37e" d="M11 30h5v1h-5zM5 31h1v1h-1zM21 31h1v1h-1zM68 64h1v1h-1zM70 65h1v1h-1zM75 67h1v1h-1zM79 68h1v1h-1zM93 68h1v1h-1z" /><path fill="#0df381" d="M18 30h1v1h-1zM69 65h1v1h-1zM74 67h1v1h-1zM77 68h1v1h-1zM83 69h1v1h-1zM89 69h2v1h-2z" /><path fill="#0df384" d="M20 30h1v1h-1zM24 31h1v1h-1zM27 32h1v1h-1zM76 68h1v1h-1zM80 69h1v1h-1z" /><path fill="#0cf389" d="M23 30h1v1h-1zM26 31h1v1h-1zM67 65h1v1h-1zM69 66h1v1h-1zM71 67h1v1h-1zM77 69h1v1h-1zM82 70h1v1h-1zM91 70h1v1h-1z" /><path fill="#0cf38c" d="M24 30h1v1h-1zM27 31h1v1h-1zM68 66h1v1h-1zM80 70h1v1h-1z" /><path fill="#0cf0b0" d="M35 30h1v1h-1z" /><path fill="#0594f0" d="M36 30h1v1h-1z" /><path fill="#07c2ee" d="M72 30h1v1h-1z" /><path fill="#08c5ee" d="M73 30h1v1h-1zM25 69h1v1h-1zM22 70h1v1h-1z" /><path fill="#08c8ee" d="M75 30h1v1h-1zM23 69h1v1h-1zM20 70h1v1h-1z" /><path fill="#08cbed" d="M77 30h1v1h-1zM74 31h1v1h-1zM21 69h1v1h-1z" /><path fill="#08cded" d="M78 30h1v1h-1zM75 31h1v1h-1zM23 68h1v1h-1zM20 69h1v1h-1z" /><path fill="#08ceed" d="M79 30h1v1h-1zM73 32h1v1h-1z" /><path fill="#0df37c" d="M6 31h1v1h-1zM20 31h1v1h-1zM24 32h1v1h-1zM29 34h1v1h-1zM31 35h1v1h-1zM73 66h1v1h-1zM76 67h1v1h-1zM80 68h1v1h-1z" /><path fill="#0df37b" d="M7 31h1v1h-1zM19 31h1v1h-1zM95 67h1v1h-1zM81 68h1v1h-1zM91 68h1v1h-1z" /><path fill="#0df37a" d="M8 31h1v1h-1zM4 32h1v1h-1zM23 32h1v1h-1zM26 33h1v1h-1zM69 64h1v1h-1zM71 65h1v1h-1zM97 66h1v1h-1zM77 67h1v1h-1zM82 68h1v1h-1zM90 68h1v1h-1z" /><path fill="#0df378" d="M9 31h2v1h-2zM16 31h2v1h-2zM5 32h1v1h-1zM22 32h1v1h-1zM30 35h1v1h-1zM78 67h1v1h-1zM86 68h1v1h-1z" /><path fill="#0df377" d="M11 31h5v1h-5zM25 33h1v1h-1zM72 65h1v1h-1zM75 66h1v1h-1zM96 66h1v1h-1zM93 67h1v1h-1z" /><path fill="#0df379" d="M18 31h1v1h-1zM28 34h1v1h-1zM74 66h1v1h-1zM94 67h1v1h-1zM83 68h3v1h-3zM87 68h3v1h-3z" /><path fill="#0cf392" d="M29 31h1v1h-1zM31 32h1v1h-1zM73 69h1v1h-1zM81 71h1v1h-1zM93 71h1v1h-1z" /><path fill="#06b8d3" d="M35 31h1v1h-1z" /><path fill="#08caed" d="M73 31h1v1h-1z" /><path fill="#08cfed" d="M76 31h1v1h-1zM25 67h1v1h-1zM22 68h1v1h-1z" /><path fill="#08d0ed" d="M77 31h1v1h-1z" /><path fill="#08d2ed" d="M78 31h1v1h-1zM75 32h1v1h-1zM20 68h1v1h-1z" /><path fill="#09d3eb" d="M79 31h1v1h-1z" /><path fill="#0df27b" d="M3 32h1v1h-1z" /><path fill="#0df376" d="M6 32h1v1h-1zM21 32h1v1h-1zM3 33h1v1h-1zM68 63h1v1h-1zM70 64h1v1h-1zM79 67h1v1h-1zM92 67h1v1h-1z" /><path fill="#0df374" d="M7 32h1v1h-1zM20 32h1v1h-1zM4 33h1v1h-1zM73 65h1v1h-1zM76 66h1v1h-1zM81 67h1v1h-1zM91 67h1v1h-1z" /><path fill="#0df373" d="M8 32h1v1h-1zM19 32h1v1h-1zM26 34h1v1h-1zM69 63h1v1h-1zM71 64h1v1h-1zM94 66h1v1h-1zM82 67h1v1h-1zM90 67h1v1h-1z" /><path fill="#0df372" d="M9 32h1v1h-1zM18 32h1v1h-1zM23 33h1v1h-1zM74 65h1v1h-1zM77 66h1v1h-1zM83 67h1v1h-1zM88 67h2v1h-2z" /><path fill="#0df371" d="M10 32h1v1h-1zM17 32h1v1h-1zM5 33h1v1h-1zM28 35h1v1h-1zM30 36h1v1h-1zM96 65h1v1h-1zM93 66h1v1h-1zM84 67h4v1h-4z" /><path fill="#0df370" d="M11 32h1v1h-1zM15 32h2v1h-2zM22 33h1v1h-1zM3 34h1v1h-1zM25 34h1v1h-1zM72 64h1v1h-1zM78 66h1v1h-1z" /><path fill="#0df36f" d="M12 32h3v1h-3zM6 33h1v1h-1zM70 63h1v1h-1zM97 64h1v1h-1zM75 65h1v1h-1zM95 65h1v1h-1zM79 66h1v1h-1zM92 66h1v1h-1z" /><path fill="#0ae2ac" d="M34 32h1v1h-1z" /><path fill="#08d1ed" d="M74 32h1v1h-1zM24 67h1v1h-1zM21 68h1v1h-1z" /><path fill="#09d4ec" d="M76 32h1v1h-1zM22 67h1v1h-1z" /><path fill="#09d6ec" d="M77 32h1v1h-1zM74 33h1v1h-1zM24 66h1v1h-1zM21 67h1v1h-1z" /><path fill="#09d7ec" d="M78 32h1v1h-1z" /><path fill="#09d9eb" d="M79 32h1v1h-1z" /><path fill="#0cf278" d="M2 33h1v1h-1z" /><path fill="#0df36e" d="M7 33h1v1h-1zM21 33h1v1h-1zM27 35h1v1h-1zM91 66h1v1h-1z" /><path fill="#0df36c" d="M8 33h1v1h-1zM69 62h1v1h-1zM71 63h1v1h-1zM98 63h1v1h-1zM96 64h1v1h-1zM81 66h1v1h-1zM90 66h1v1h-1z" /><path fill="#0df36b" d="M9 33h1v1h-1zM19 33h1v1h-1zM5 34h1v1h-1zM23 34h1v1h-1zM26 35h1v1h-1zM77 65h1v1h-1zM93 65h1v1h-1zM82 66h1v1h-1zM88 66h2v1h-2z" /><path fill="#0df36a" d="M10 33h1v1h-1zM18 33h1v1h-1zM3 35h1v1h-1zM28 36h1v1h-1zM30 37h1v1h-1zM74 64h1v1h-1zM83 66h5v1h-5z" /><path fill="#0df369" d="M11 33h1v1h-1zM16 33h2v1h-2zM6 34h1v1h-1zM22 34h1v1h-1zM97 63h1v1h-1zM95 64h1v1h-1zM78 65h1v1h-1zM92 65h1v1h-1z" /><path fill="#0df368" d="M12 33h4v1h-4zM25 35h1v1h-1zM2 36h1v1h-1zM70 62h1v1h-1zM72 63h1v1h-1zM75 64h1v1h-1z" /><path fill="#0df36d" d="M20 33h1v1h-1zM4 34h1v1h-1zM24 34h1v1h-1zM2 35h1v1h-1zM29 36h1v1h-1zM73 64h1v1h-1zM76 65h1v1h-1zM94 65h1v1h-1zM80 66h1v1h-1z" /><path fill="#0df375" d="M24 33h1v1h-1zM27 34h1v1h-1zM29 35h1v1h-1zM31 36h1v1h-1zM95 66h1v1h-1zM80 67h1v1h-1z" /><path fill="#0df37d" d="M27 33h1v1h-1zM92 68h1v1h-1z" /><path fill="#0cf094" d="M33 33h1v1h-1z" /><path fill="#09d8ec" d="M75 33h1v1h-1zM23 66h1v1h-1z" /><path fill="#09d9ec" d="M76 33h1v1h-1z" /><path fill="#09dbec" d="M77 33h1v1h-1z" /><path fill="#09dceb" d="M78 33h1v1h-1zM24 65h1v1h-1z" /><path fill="#08ddea" d="M79 33h1v1h-1z" /><path fill="#0df272" d="M2 34h1v1h-1z" /><path fill="#0df367" d="M7 34h1v1h-1zM21 34h1v1h-1zM4 35h1v1h-1zM27 36h1v1h-1zM98 62h1v1h-1zM79 65h1v1h-1zM91 65h1v1h-1z" /><path fill="#0df365" d="M8 34h1v1h-1zM20 34h1v1h-1zM5 35h1v1h-1zM3 36h1v1h-1zM73 63h1v1h-1zM76 64h1v1h-1zM81 65h1v1h-1z" /><path fill="#0df364" d="M9 34h1v1h-1zM19 34h1v1h-1zM26 36h1v1h-1zM71 62h1v1h-1zM97 62h1v1h-1zM93 64h1v1h-1zM82 65h1v1h-1zM88 65h2v1h-2z" /><path fill="#0df363" d="M10 34h1v1h-1zM18 34h1v1h-1zM6 35h1v1h-1zM23 35h1v1h-1zM28 37h1v1h-1zM74 63h1v1h-1zM95 63h1v1h-1zM77 64h1v1h-1zM83 65h2v1h-2zM86 65h2v1h-2z" /><path fill="#0df362" d="M11 34h1v1h-1zM17 34h1v1h-1zM4 36h1v1h-1zM2 37h1v1h-1zM98 61h1v1h-1zM92 64h1v1h-1zM85 65h1v1h-1z" /><path fill="#0df361" d="M12 34h5v1h-5zM7 35h1v1h-1zM22 35h1v1h-1zM25 36h1v1h-1zM1 38h1v1h-1zM70 61h1v1h-1zM72 62h1v1h-1zM78 64h1v1h-1z" /><path fill="#09d3b0" d="M33 34h1v1h-1z" /><path fill="#09dbeb" d="M74 34h1v1h-1zM21 66h1v1h-1z" /><path fill="#09ddeb" d="M75 34h1v1h-1zM23 65h1v1h-1z" /><path fill="#09deeb" d="M76 34h1v1h-1z" /><path fill="#09e0eb" d="M77 34h1v1h-1zM21 65h1v1h-1z" /><path fill="#09e2eb" d="M78 34h1v1h-1zM75 35h1v1h-1zM23 64h1v1h-1z" /><path fill="#0df35f" d="M8 35h1v1h-1zM21 35h1v1h-1zM5 36h1v1h-1zM3 37h1v1h-1zM27 37h1v1h-1zM29 38h1v1h-1zM97 61h1v1h-1zM90 64h1v1h-1z" /><path fill="#0ff35e" d="M9 35h1v1h-1zM71 61h1v1h-1zM81 64h1v1h-1z" /><path fill="#12f35e" d="M10 35h1v1h-1zM23 36h1v1h-1zM77 63h1v1h-1zM92 63h1v1h-1zM83 64h1v1h-1zM87 64h1v1h-1z" /><path fill="#14f35e" d="M11 35h1v1h-1zM94 62h1v1h-1z" /><path fill="#15f35e" d="M12 35h1v1h-1zM17 35h1v1h-1zM7 36h1v1h-1z" /><path fill="#17f35e" d="M13 35h3v1h-3zM5 37h1v1h-1zM25 37h1v1h-1zM70 60h1v1h-1z" /><path fill="#16f35e" d="M16 35h1v1h-1zM22 36h1v1h-1zM3 38h1v1h-1zM99 58h1v1h-1zM97 60h1v1h-1zM72 61h1v1h-1zM78 63h1v1h-1zM91 63h1v1h-1z" /><path fill="#13f35e" d="M18 35h1v1h-1zM28 38h1v1h-1zM96 61h1v1h-1zM74 62h1v1h-1zM84 64h3v1h-3z" /><path fill="#11f35e" d="M19 35h1v1h-1zM4 37h1v1h-1zM26 37h1v1h-1zM1 39h1v1h-1zM82 64h1v1h-1z" /><path fill="#0ef35e" d="M20 35h1v1h-1zM2 38h1v1h-1zM98 60h1v1h-1zM95 62h1v1h-1zM76 63h1v1h-1zM89 64h1v1h-1z" /><path fill="#0df366" d="M24 35h1v1h-1zM1 37h1v1h-1zM29 37h1v1h-1zM96 63h1v1h-1zM94 64h1v1h-1zM80 65h1v1h-1zM90 65h1v1h-1z" /><path fill="#0bed85" d="M32 35h1v1h-1z" /><path fill="#08dfea" d="M74 35h1v1h-1z" /><path fill="#09e4ea" d="M76 35h1v1h-1zM22 64h1v1h-1z" /><path fill="#0ae5ea" d="M77 35h1v1h-1z" /><path fill="#0ae7ea" d="M78 35h1v1h-1zM75 36h1v1h-1z" /><path fill="#0cf36b" d="M1 36h1v1h-1z" /><path fill="#10f35e" d="M6 36h1v1h-1zM88 64h1v1h-1z" /><path fill="#19f35e" d="M8 36h1v1h-1zM2 39h1v1h-1zM75 62h1v1h-1zM90 63h1v1h-1z" /><path fill="#1df35e" d="M9 36h1v1h-1zM6 37h1v1h-1zM24 37h1v1h-1zM4 38h1v1h-1zM73 61h1v1h-1zM80 63h1v1h-1z" /><path fill="#20f35e" d="M10 36h1v1h-1zM97 59h1v1h-1zM94 61h1v1h-1z" /><path fill="#23f45e" d="M11 36h1v1h-1zM18 36h1v1h-1zM5 38h1v1h-1zM2 40h1v1h-1zM1 41h1v1h-1zM74 61h1v1h-1zM77 62h1v1h-1zM91 62h1v1h-1zM84 63h2v1h-2z" /><path fill="#24f45e" d="M12 36h1v1h-1z" /><path fill="#26f45d" d="M13 36h2v1h-2zM16 36h1v1h-1zM72 60h1v1h-1zM93 61h1v1h-1z" /><path fill="#27f45d" d="M15 36h1v1h-1zM8 37h1v1h-1zM22 37h1v1h-1zM25 38h1v1h-1zM78 62h1v1h-1zM90 62h1v1h-1z" /><path fill="#25f45e" d="M17 36h1v1h-1z" /><path fill="#21f35e" d="M19 36h1v1h-1zM26 38h1v1h-1zM3 39h1v1h-1zM98 58h1v1h-1zM82 63h1v1h-1zM87 63h1v1h-1z" /><path fill="#1ef35e" d="M20 36h1v1h-1zM96 60h1v1h-1zM76 62h1v1h-1z" /><path fill="#1af35e" d="M21 36h1v1h-1zM27 38h1v1h-1zM1 40h1v1h-1zM95 61h1v1h-1zM93 62h1v1h-1zM79 63h1v1h-1z" /><path fill="#0df35e" d="M24 36h1v1h-1zM73 62h1v1h-1zM93 63h1v1h-1zM80 64h1v1h-1z" /><path fill="#09e5e9" d="M74 36h1v1h-1z" /><path fill="#0ae9ea" d="M76 36h1v1h-1zM22 63h1v1h-1z" /><path fill="#0aebea" d="M77 36h1v1h-1zM21 63h1v1h-1z" /><path fill="#0aebe8" d="M78 36h1v1h-1zM74 37h1v1h-1z" /><path fill="#22f45e" d="M7 37h1v1h-1zM23 37h1v1h-1zM28 39h1v1h-1zM83 63h1v1h-1zM86 63h1v1h-1z" /><path fill="#2bf45d" d="M9 37h1v1h-1zM21 37h1v1h-1zM3 40h1v1h-1zM1 42h1v1h-1zM89 62h1v1h-1z" /><path fill="#2ef45d" d="M10 37h1v1h-1zM20 37h1v1h-1zM71 59h1v1h-1zM76 61h1v1h-1z" /><path fill="#31f45d" d="M11 37h1v1h-1zM19 37h1v1h-1zM26 39h1v1h-1zM98 56h1v1h-1zM91 61h1v1h-1zM82 62h1v1h-1zM86 62h1v1h-1z" /><path fill="#33f45d" d="M12 37h1v1h-1zM18 37h1v1h-1zM4 40h1v1h-1zM1 43h1v1h-1zM97 57h1v1h-1zM74 60h1v1h-1zM93 60h1v1h-1zM77 61h1v1h-1z" /><path fill="#35f45d" d="M13 37h1v1h-1zM17 37h1v1h-1zM3 41h1v1h-1zM2 42h1v1h-1zM72 59h1v1h-1zM90 61h1v1h-1z" /><path fill="#36f45d" d="M14 37h3v1h-3zM6 39h1v1h-1z" /><path fill="#0cef74" d="M31 37h1v1h-1z" /><path fill="#0aede9" d="M75 37h1v1h-1zM23 62h1v1h-1z" /><path fill="#0aeee9" d="M76 37h1v1h-1zM22 62h1v1h-1z" /><path fill="#0af0e9" d="M77 37h1v1h-1z" /><path fill="#09f1e8" d="M78 37h1v1h-1z" /><path fill="#0cf265" d="M0 38h1v1h-1z" /><path fill="#29f45d" d="M6 38h1v1h-1zM98 57h1v1h-1zM75 61h1v1h-1z" /><path fill="#2ff45d" d="M7 38h1v1h-1zM5 39h1v1h-1zM81 62h1v1h-1z" /><path fill="#34f45d" d="M8 38h1v1h-1z" /><path fill="#38f45d" d="M9 38h1v1h-1zM94 59h1v1h-1zM92 60h1v1h-1z" /><path fill="#3cf45d" d="M10 38h1v1h-1zM7 39h1v1h-1zM96 57h1v1h-1zM73 59h1v1h-1zM88 61h1v1h-1z" /><path fill="#3ff45d" d="M11 38h1v1h-1zM81 61h1v1h-1z" /><path fill="#42f45d" d="M12 38h1v1h-1zM23 39h1v1h-1zM90 60h1v1h-1zM83 61h2v1h-2z" /><path fill="#44f45d" d="M13 38h1v1h-1z" /><path fill="#45f45d" d="M14 38h1v1h-1zM17 38h1v1h-1zM5 41h1v1h-1zM2 44h1v1h-1zM96 56h1v1h-1zM95 57h1v1h-1zM72 58h1v1h-1zM92 59h1v1h-1z" /><path fill="#46f45d" d="M15 38h2v1h-2zM9 39h1v1h-1z" /><path fill="#43f45d" d="M18 38h1v1h-1zM97 55h1v1h-1zM94 58h1v1h-1zM74 59h1v1h-1zM77 60h1v1h-1z" /><path fill="#41f45d" d="M19 38h1v1h-1zM8 39h1v1h-1zM6 40h1v1h-1zM28 41h1v1h-1zM82 61h1v1h-1zM85 61h1v1h-1z" /><path fill="#3ef45d" d="M20 38h1v1h-1zM3 42h1v1h-1zM93 59h1v1h-1zM76 60h1v1h-1zM91 60h1v1h-1zM87 61h1v1h-1z" /><path fill="#3bf45d" d="M21 38h1v1h-1zM97 56h1v1h-1zM95 58h1v1h-1z" /><path fill="#37f45d" d="M22 38h1v1h-1zM25 39h1v1h-1zM78 61h1v1h-1z" /><path fill="#32f45d" d="M23 38h1v1h-1zM28 40h1v1h-1zM96 58h1v1h-1zM83 62h3v1h-3z" /><path fill="#2df45d" d="M24 38h1v1h-1zM73 60h1v1h-1zM80 62h1v1h-1zM88 62h1v1h-1z" /><path fill="#0cf363" d="M30 38h1v1h-1z" /><path fill="#0af2e9" d="M75 38h1v1h-1zM23 61h1v1h-1z" /><path fill="#0af3e8" d="M76 38h1v1h-1z" /><path fill="#0af5e8" d="M77 38h1v1h-1z" /><path fill="#0af7e7" d="M78 38h1v1h-1z" /><path fill="#0df260" d="M0 39h1v1h-1z" /><path fill="#28f45d" d="M4 39h1v1h-1zM96 59h1v1h-1z" /><path fill="#4af55d" d="M10 39h1v1h-1zM93 58h1v1h-1zM91 59h1v1h-1zM79 60h1v1h-1zM88 60h1v1h-1z" /><path fill="#4ef55d" d="M11 39h1v1h-1zM20 39h1v1h-1zM8 40h1v1h-1zM95 56h1v1h-1zM76 59h1v1h-1z" /><path fill="#51f55d" d="M12 39h1v1h-1zM19 39h1v1h-1zM92 58h1v1h-1zM82 60h3v1h-3z" /><path fill="#53f55d" d="M13 39h1v1h-1zM18 39h1v1h-1zM9 40h1v1h-1zM74 58h1v1h-1zM77 59h1v1h-1z" /><path fill="#54f55d" d="M14 39h1v1h-1zM7 41h1v1h-1zM96 54h1v1h-1zM72 57h1v1h-1zM89 59h1v1h-1z" /><path fill="#55f55d" d="M15 39h3v1h-3zM93 57h1v1h-1z" /><path fill="#4bf55d" d="M21 39h1v1h-1z" /><path fill="#47f45d" d="M22 39h1v1h-1zM25 40h1v1h-1zM4 42h1v1h-1zM3 43h1v1h-1zM78 60h1v1h-1zM89 60h1v1h-1z" /><path fill="#3df45d" d="M24 39h1v1h-1zM4 41h1v1h-1zM2 43h1v1h-1zM71 58h1v1h-1zM80 61h1v1h-1z" /><path fill="#2af45d" d="M27 39h1v1h-1zM97 58h1v1h-1zM79 62h1v1h-1z" /><path fill="#1bf35e" d="M29 39h1v1h-1z" /><path fill="#13f362" d="M30 39h1v1h-1z" /><path fill="#0bf7e8" d="M75 39h1v1h-1zM23 60h1v1h-1z" /><path fill="#0bf9e8" d="M76 39h1v1h-1zM22 60h1v1h-1z" /><path fill="#0bfae8" d="M77 39h1v1h-1z" /><path fill="#11f25e" d="M0 40h1v1h-1z" /><path fill="#3af45d" d="M5 40h1v1h-1zM79 61h1v1h-1z" /><path fill="#48f45d" d="M7 40h1v1h-1z" /><path fill="#58f55c" d="M10 40h1v1h-1zM27 42h1v1h-1zM88 59h1v1h-1z" /><path fill="#5cf55c" d="M11 40h1v1h-1zM73 57h1v1h-1zM92 57h1v1h-1z" /><path fill="#5ff55c" d="M12 40h1v1h-1zM20 40h1v1h-1zM7 42h1v1h-1zM95 54h1v1h-1zM93 56h1v1h-1zM81 59h1v1h-1z" /><path fill="#62f55c" d="M13 40h1v1h-1zM23 41h1v1h-1zM6 43h1v1h-1zM5 44h1v1h-1zM89 58h1v1h-1z" /><path fill="#63f55c" d="M14 40h1v1h-1zM18 40h1v1h-1zM74 57h1v1h-1zM91 57h1v1h-1zM77 58h1v1h-1z" /><path fill="#64f55c" d="M15 40h1v1h-1zM17 40h1v1h-1zM72 56h1v1h-1z" /><path fill="#65f55c" d="M16 40h1v1h-1zM10 41h1v1h-1z" /><path fill="#61f55c" d="M19 40h1v1h-1zM4 45h1v1h-1zM83 59h2v1h-2z" /><path fill="#5bf55c" d="M21 40h1v1h-1zM87 59h1v1h-1z" /><path fill="#57f55c" d="M22 40h1v1h-1zM25 41h1v1h-1zM6 42h1v1h-1zM95 55h1v1h-1zM94 56h1v1h-1zM91 58h1v1h-1zM78 59h1v1h-1z" /><path fill="#52f55d" d="M23 40h1v1h-1z" /><path fill="#4df55d" d="M24 40h1v1h-1zM6 41h1v1h-1zM96 55h1v1h-1zM94 57h1v1h-1zM80 60h1v1h-1zM87 60h1v1h-1z" /><path fill="#40f45d" d="M26 40h1v1h-1zM86 61h1v1h-1z" /><path fill="#39f45d" d="M27 40h1v1h-1zM75 60h1v1h-1zM89 61h1v1h-1z" /><path fill="#28f560" d="M29 40h1v1h-1z" /><path fill="#0bfce7" d="M75 40h1v1h-1z" /><path fill="#0bfee7" d="M76 40h1v1h-1z" /><path fill="#0bffe7" d="M77 40h1v1h-1zM75 41h3v1h-3zM75 42h2v1h-2zM75 43h1v1h-1zM75 44h1v1h-1zM74 45h2v1h-2zM74 46h1v1h-1zM74 48h1v1h-1zM24 54h1v1h-1zM24 55h1v1h-1zM23 56h2v1h-2zM23 57h2v1h-2zM23 58h2v1h-2z" /><path fill="#1af25d" d="M0 41h1v1h-1z" /><path fill="#2cf45d" d="M2 41h1v1h-1zM94 60h1v1h-1zM92 61h1v1h-1z" /><path fill="#5af55c" d="M8 41h1v1h-1zM79 59h1v1h-1z" /><path fill="#60f55c" d="M9 41h1v1h-1zM26 42h1v1h-1zM94 55h1v1h-1zM82 59h1v1h-1zM85 59h1v1h-1z" /><path fill="#69f55c" d="M11 41h1v1h-1zM94 54h1v1h-1zM93 55h1v1h-1zM75 57h1v1h-1zM90 57h1v1h-1z" /><path fill="#6df55c" d="M12 41h1v1h-1zM24 42h1v1h-1zM80 58h1v1h-1z" /><path fill="#70f55c" d="M13 41h1v1h-1zM94 53h1v1h-1zM82 58h3v1h-3z" /><path fill="#72f65c" d="M14 41h1v1h-1zM23 42h1v1h-1zM5 46h1v1h-1zM93 54h1v1h-1zM74 56h1v1h-1z" /><path fill="#74f65c" d="M15 41h3v1h-3zM7 44h1v1h-1zM6 45h1v1h-1z" /><path fill="#73f65c" d="M18 41h1v1h-1zM77 57h1v1h-1zM88 57h1v1h-1z" /><path fill="#71f55c" d="M19 41h1v1h-1zM8 43h1v1h-1zM92 55h1v1h-1z" /><path fill="#6ff55c" d="M20 41h1v1h-1zM26 43h1v1h-1zM89 57h1v1h-1zM81 58h1v1h-1zM85 58h1v1h-1z" /><path fill="#6bf55c" d="M21 41h1v1h-1zM6 44h1v1h-1zM5 45h1v1h-1zM73 56h1v1h-1zM79 58h1v1h-1z" /><path fill="#67f55c" d="M22 41h1v1h-1zM25 42h1v1h-1zM92 56h1v1h-1zM78 58h1v1h-1z" /><path fill="#5df55c" d="M24 41h1v1h-1zM90 58h1v1h-1zM80 59h1v1h-1z" /><path fill="#50f55d" d="M26 41h1v1h-1zM5 42h1v1h-1zM4 43h1v1h-1zM90 59h1v1h-1zM85 60h1v1h-1z" /><path fill="#49f45d" d="M27 41h1v1h-1zM75 59h1v1h-1z" /><path fill="#21f45e" d="M0 42h1v1h-1z" /><path fill="#66f55c" d="M8 42h1v1h-1zM88 58h1v1h-1z" /><path fill="#6cf55c" d="M9 42h1v1h-1zM86 58h1v1h-1z" /><path fill="#72f55c" d="M10 42h1v1h-1z" /><path fill="#77f65c" d="M11 42h1v1h-1zM22 42h1v1h-1zM94 52h1v1h-1zM78 57h1v1h-1zM87 57h1v1h-1z" /><path fill="#7bf65c" d="M12 42h1v1h-1zM21 42h1v1h-1zM92 54h1v1h-1zM73 55h1v1h-1zM89 56h1v1h-1zM79 57h1v1h-1zM86 57h1v1h-1z" /><path fill="#7ef65c" d="M13 42h1v1h-1zM10 43h1v1h-1zM76 56h1v1h-1z" /><path fill="#81f65c" d="M14 42h1v1h-1zM19 42h1v1h-1zM90 55h1v1h-1zM88 56h1v1h-1z" /><path fill="#83f65c" d="M15 42h1v1h-1zM18 42h1v1h-1zM9 44h1v1h-1zM77 56h1v1h-1z" /><path fill="#84f65c" d="M16 42h2v1h-2zM11 43h1v1h-1zM92 53h1v1h-1zM91 54h1v1h-1z" /><path fill="#7ff65c" d="M20 42h1v1h-1zM26 44h1v1h-1zM81 57h1v1h-1zM84 57h1v1h-1z" /><path fill="#47f66c" d="M28 42h1v1h-1z" /><path fill="#64fdb1" d="M77 42h1v1h-1z" /><path fill="#59f55c" d="M5 43h1v1h-1zM4 44h1v1h-1zM75 58h1v1h-1z" /><path fill="#6af55c" d="M7 43h1v1h-1zM87 58h1v1h-1z" /><path fill="#78f65c" d="M9 43h1v1h-1z" /><path fill="#89f65b" d="M12 43h1v1h-1zM75 55h1v1h-1zM86 56h1v1h-1z" /><path fill="#8cf65b" d="M13 43h1v1h-1zM21 43h1v1h-1zM92 52h1v1h-1zM90 54h1v1h-1zM85 56h1v1h-1z" /><path fill="#90f65b" d="M14 43h1v1h-1zM11 44h1v1h-1z" /><path fill="#92f65b" d="M15 43h1v1h-1zM23 44h1v1h-1zM74 54h1v1h-1zM87 55h1v1h-1z" /><path fill="#93f65b" d="M16 43h3v1h-3zM89 54h1v1h-1zM77 55h1v1h-1z" /><path fill="#91f65b" d="M19 43h1v1h-1z" /><path fill="#8ff65b" d="M20 43h1v1h-1zM8 46h1v1h-1zM81 56h3v1h-3z" /><path fill="#87f65b" d="M22 43h1v1h-1zM89 55h1v1h-1zM78 56h1v1h-1z" /><path fill="#82f65c" d="M23 43h1v1h-1zM93 52h1v1h-1zM74 55h1v1h-1z" /><path fill="#7df65c" d="M24 43h1v1h-1zM7 45h1v1h-1zM80 57h1v1h-1zM85 57h1v1h-1z" /><path fill="#76f65c" d="M25 43h1v1h-1z" /><path fill="#68f55c" d="M27 43h1v1h-1z" /><path fill="#0bffe6" d="M76 43h1v1h-1zM75 46h1v1h-1zM74 47h1v1h-1zM25 51h1v1h-1zM24 53h1v1h-1zM22 58h1v1h-1z" /><path fill="#ebf964" d="M77 43h1v1h-1z" /><path fill="#fff858" d="M78 43h1v1h-1zM84 46h1v1h-1zM18 54h1v1h-1zM19 55h2v1h-2z" /><path fill="#39f35d" d="M1 44h1v1h-1z" /><path fill="#4ff55d" d="M3 44h1v1h-1zM81 60h1v1h-1zM86 60h1v1h-1z" /><path fill="#7cf65c" d="M8 44h1v1h-1zM6 46h1v1h-1z" /><path fill="#8af65b" d="M10 44h1v1h-1zM73 54h1v1h-1z" /><path fill="#96f65b" d="M12 44h1v1h-1zM10 45h1v1h-1zM25 45h1v1h-1zM91 52h1v1h-1zM90 53h1v1h-1z" /><path fill="#9af75b" d="M13 44h1v1h-1zM85 55h1v1h-1z" /><path fill="#9ef75b" d="M14 44h1v1h-1zM91 51h1v1h-1zM89 53h1v1h-1zM76 54h1v1h-1zM83 55h1v1h-1z" /><path fill="#a1f75b" d="M15 44h1v1h-1zM19 44h1v1h-1zM74 53h1v1h-1z" /><path fill="#a2f75b" d="M16 44h1v1h-1zM12 45h1v1h-1zM23 45h1v1h-1zM9 47h1v1h-1z" /><path fill="#a3f75b" d="M17 44h2v1h-2z" /><path fill="#9ff75b" d="M20 44h1v1h-1zM90 52h1v1h-1zM87 54h1v1h-1zM81 55h2v1h-2z" /><path fill="#9cf75b" d="M21 44h1v1h-1zM11 45h1v1h-1zM24 45h1v1h-1z" /><path fill="#97f65b" d="M22 44h1v1h-1zM86 55h1v1h-1z" /><path fill="#8df65b" d="M24 44h1v1h-1zM91 53h1v1h-1zM88 55h1v1h-1zM80 56h1v1h-1z" /><path fill="#86f65b" d="M25 44h1v1h-1zM8 45h1v1h-1zM7 46h1v1h-1z" /><path fill="#64f673" d="M27 44h1v1h-1z" /><path fill="#27fdd5" d="M76 44h1v1h-1z" /><path fill="#fff959" d="M77 44h3v1h-3zM77 45h6v1h-6zM77 46h6v1h-6zM76 47h9v1h-9zM77 48h7v1h-7zM18 50h3v1h-3zM16 51h8v1h-8zM15 52h9v1h-9zM17 53h6v1h-6zM19 54h4v1h-4zM21 55h2v1h-2z" /><path fill="#fff958" d="M80 44h1v1h-1zM16 53h1v1h-1z" /><path fill="#4bf45d" d="M2 45h1v1h-1z" /><path fill="#56f55c" d="M3 45h1v1h-1z" /><path fill="#8ef65b" d="M9 45h1v1h-1zM26 45h1v1h-1zM7 47h1v1h-1zM76 55h1v1h-1zM84 56h1v1h-1z" /><path fill="#a8f75b" d="M13 45h1v1h-1zM22 45h1v1h-1zM11 46h1v1h-1zM90 51h1v1h-1zM89 52h1v1h-1zM75 53h1v1h-1zM78 54h1v1h-1zM85 54h1v1h-1z" /><path fill="#acf75b" d="M14 45h1v1h-1zM21 45h1v1h-1zM24 46h1v1h-1zM87 53h1v1h-1z" /><path fill="#aff75b" d="M15 45h1v1h-1zM20 45h1v1h-1zM12 46h1v1h-1z" /><path fill="#b1f75b" d="M16 45h1v1h-1zM19 45h1v1h-1zM89 51h1v1h-1zM74 52h1v1h-1zM86 53h1v1h-1z" /><path fill="#b2f75b" d="M17 45h2v1h-2zM23 46h1v1h-1z" /><path fill="#37fbb4" d="M27 45h1v1h-1z" /><path fill="#96fb95" d="M76 45h1v1h-1z" /><path fill="#67f55b" d="M4 46h1v1h-1z" /><path fill="#98f65b" d="M9 46h1v1h-1zM8 47h1v1h-1zM75 54h1v1h-1zM78 55h1v1h-1z" /><path fill="#a0f75b" d="M10 46h1v1h-1zM8 48h1v1h-1z" /><path fill="#b5f75b" d="M13 46h1v1h-1zM25 47h1v1h-1z" /><path fill="#b9f75a" d="M14 46h1v1h-1z" /><path fill="#bdf75a" d="M15 46h1v1h-1zM11 48h1v1h-1zM80 53h1v1h-1z" /><path fill="#c0f75a" d="M16 46h1v1h-1z" /><path fill="#c2f75a" d="M17 46h2v1h-2zM23 47h1v1h-1zM87 51h1v1h-1z" /><path fill="#c1f75a" d="M19 46h1v1h-1zM13 47h1v1h-1z" /><path fill="#bff75a" d="M20 46h1v1h-1z" /><path fill="#bcf75a" d="M21 46h1v1h-1zM24 47h1v1h-1zM83 53h1v1h-1z" /><path fill="#b8f75a" d="M22 46h1v1h-1zM75 52h1v1h-1zM78 53h1v1h-1z" /><path fill="#a5f75b" d="M25 46h1v1h-1zM88 53h1v1h-1z" /><path fill="#87f86f" d="M26 46h1v1h-1z" /><path fill="#f6f85c" d="M76 46h1v1h-1z" /><path fill="#fff859" d="M83 46h1v1h-1zM21 56h1v1h-1z" /><path fill="#79f65c" d="M5 47h1v1h-1zM91 55h1v1h-1zM75 56h1v1h-1z" /><path fill="#83f55b" d="M6 47h1v1h-1z" /><path fill="#aaf75b" d="M10 47h1v1h-1zM9 48h1v1h-1z" /><path fill="#b3f75b" d="M11 47h1v1h-1zM10 48h1v1h-1z" /><path fill="#baf75a" d="M12 47h1v1h-1zM89 50h1v1h-1zM88 51h1v1h-1zM84 53h1v1h-1z" /><path fill="#c7f85a" d="M14 47h1v1h-1z" /><path fill="#cbf85a" d="M15 47h1v1h-1zM88 49h1v1h-1zM79 52h1v1h-1zM83 52h1v1h-1z" /><path fill="#cff85a" d="M16 47h1v1h-1zM20 47h1v1h-1zM12 49h1v1h-1z" /><path fill="#d1f85a" d="M17 47h1v1h-1zM19 47h1v1h-1z" /><path fill="#d2f85a" d="M18 47h1v1h-1zM23 48h1v1h-1z" /><path fill="#ccf85a" d="M21 47h1v1h-1zM13 48h1v1h-1zM24 48h1v1h-1zM87 50h1v1h-1z" /><path fill="#c8f85a" d="M22 47h1v1h-1zM75 51h1v1h-1zM78 52h1v1h-1zM84 52h1v1h-1z" /><path fill="#2ffdc7" d="M26 47h1v1h-1z" /><path fill="#41fdc6" d="M75 47h1v1h-1z" /><path fill="#f8f859" d="M85 47h1v1h-1z" /><path fill="#95f65b" d="M7 48h1v1h-1z" /><path fill="#c5f85a" d="M12 48h1v1h-1zM11 49h1v1h-1z" /><path fill="#d3f85a" d="M14 48h1v1h-1z" /><path fill="#d9f85a" d="M15 48h1v1h-1zM83 51h1v1h-1z" /><path fill="#ddf85a" d="M16 48h1v1h-1zM80 51h2v1h-2z" /><path fill="#e0f85a" d="M17 48h1v1h-1z" /><path fill="#e1f85a" d="M18 48h2v1h-2zM13 50h1v1h-1z" /><path fill="#dff85a" d="M20 48h1v1h-1zM14 49h1v1h-1z" /><path fill="#dcf85a" d="M21 48h1v1h-1zM85 50h1v1h-1zM82 51h1v1h-1z" /><path fill="#d8f85a" d="M22 48h1v1h-1zM78 51h1v1h-1z" /><path fill="#b7f863" d="M25 48h1v1h-1z" /><path fill="#0dffe5" d="M26 48h1v1h-1z" /><path fill="#c0fa79" d="M75 48h1v1h-1z" /><path fill="#fef959" d="M76 48h1v1h-1z" /><path fill="#f9f959" d="M84 48h1v1h-1zM78 49h1v1h-1zM82 49h1v1h-1z" /><path fill="#f0f959" d="M85 48h1v1h-1zM18 49h1v1h-1z" /><path fill="#e7f859" d="M86 48h1v1h-1zM83 50h1v1h-1z" /><path fill="#dcf759" d="M87 48h1v1h-1z" /><path fill="#b0f65b" d="M9 49h1v1h-1z" /><path fill="#bbf75a" d="M10 49h1v1h-1zM79 53h1v1h-1z" /><path fill="#d7f85a" d="M13 49h1v1h-1zM12 50h1v1h-1zM75 50h1v1h-1z" /><path fill="#e5f85a" d="M15 49h1v1h-1z" /><path fill="#eaf859" d="M16 49h1v1h-1zM82 50h1v1h-1z" /><path fill="#eef959" d="M17 49h1v1h-1zM76 49h1v1h-1zM84 49h1v1h-1z" /><path fill="#f1f959" d="M19 49h1v1h-1zM15 50h1v1h-1z" /><path fill="#eff959" d="M20 49h1v1h-1z" /><path fill="#ecf959" d="M21 49h1v1h-1zM81 50h1v1h-1z" /><path fill="#e8f859" d="M22 49h1v1h-1zM78 50h1v1h-1z" /><path fill="#e2f85a" d="M23 49h1v1h-1zM84 50h1v1h-1z" /><path fill="#dbf85a" d="M24 49h1v1h-1zM79 51h1v1h-1z" /><path fill="#57fbb1" d="M25 49h1v1h-1z" /><path fill="#19fddd" d="M74 49h1v1h-1z" /><path fill="#e7f85a" d="M75 49h1v1h-1zM85 49h1v1h-1z" /><path fill="#f4f959" d="M77 49h1v1h-1zM83 49h1v1h-1z" /><path fill="#fbf959" d="M79 49h1v1h-1zM81 49h1v1h-1z" /><path fill="#fcf959" d="M80 49h1v1h-1zM17 50h1v1h-1zM15 51h1v1h-1z" /><path fill="#def85a" d="M86 49h1v1h-1zM76 50h1v1h-1z" /><path fill="#d5f85a" d="M87 49h1v1h-1zM86 50h1v1h-1zM84 51h1v1h-1z" /><path fill="#c1f65a" d="M89 49h1v1h-1z" /><path fill="#ccf759" d="M11 50h1v1h-1z" /><path fill="#e9f859" d="M14 50h1v1h-1z" /><path fill="#f7f959" d="M16 50h1v1h-1z" /><path fill="#fdf959" d="M21 50h1v1h-1z" /><path fill="#f8f959" d="M22 50h1v1h-1z" /><path fill="#f2f959" d="M23 50h1v1h-1z" /><path fill="#e6f75b" d="M24 50h1v1h-1z" /><path fill="#0fffe5" d="M25 50h1v1h-1z" /><path fill="#0affe6" d="M73 50h1v1h-1z" /><path fill="#7bfb97" d="M74 50h1v1h-1z" /><path fill="#e4f85a" d="M77 50h1v1h-1z" /><path fill="#ebf959" d="M79 50h1v1h-1z" /><path fill="#edf959" d="M80 50h1v1h-1z" /><path fill="#c3f85a" d="M88 50h1v1h-1zM85 52h1v1h-1z" /><path fill="#aff65a" d="M90 50h1v1h-1z" /><path fill="#a3f65b" d="M91 50h1v1h-1z" /><path fill="#ddf759" d="M12 51h1v1h-1z" /><path fill="#e8f759" d="M13 51h1v1h-1z" /><path fill="#f3f959" d="M14 51h1v1h-1z" /><path fill="#9afb90" d="M24 51h1v1h-1z" /><path fill="#10ffe2" d="M73 51h1v1h-1z" /><path fill="#bbf65c" d="M74 51h1v1h-1z" /><path fill="#cef85a" d="M76 51h1v1h-1zM81 52h1v1h-1z" /><path fill="#d4f85a" d="M77 51h1v1h-1z" /><path fill="#d0f85a" d="M85 51h1v1h-1z" /><path fill="#caf85a" d="M86 51h1v1h-1z" /><path fill="#92f65a" d="M92 51h1v1h-1z" /><path fill="#f9f858" d="M14 52h1v1h-1z" /><path fill="#26fdd6" d="M24 52h1v1h-1z" /><path fill="#0affe7" d="M25 52h1v1h-1zM25 53h1v1h-1zM25 54h1v1h-1z" /><path fill="#46fcb2" d="M73 52h1v1h-1z" /><path fill="#bef75a" d="M76 52h1v1h-1zM86 52h1v1h-1zM81 53h2v1h-2z" /><path fill="#c4f85a" d="M77 52h1v1h-1z" /><path fill="#cdf85a" d="M80 52h1v1h-1zM82 52h1v1h-1z" /><path fill="#b7f75a" d="M87 52h1v1h-1z" /><path fill="#b0f75b" d="M88 52h1v1h-1z" /><path fill="#e7f867" d="M23 53h1v1h-1z" /><path fill="#90f563" d="M73 53h1v1h-1z" /><path fill="#aef75b" d="M76 53h1v1h-1zM81 54h2v1h-2z" /><path fill="#b4f75b" d="M77 53h1v1h-1z" /><path fill="#b6f75b" d="M85 53h1v1h-1z" /><path fill="#7af65c" d="M93 53h1v1h-1z" /><path fill="#66f45c" d="M95 53h1v1h-1z" /><path fill="#5bf55b" d="M96 53h1v1h-1z" /><path fill="#70fdab" d="M23 54h1v1h-1z" /><path fill="#45faa5" d="M72 54h1v1h-1z" /><path fill="#a4f75b" d="M77 54h1v1h-1zM86 54h1v1h-1z" /><path fill="#abf75b" d="M79 54h1v1h-1zM84 54h1v1h-1z" /><path fill="#adf75b" d="M80 54h1v1h-1zM83 54h1v1h-1z" /><path fill="#99f65b" d="M88 54h1v1h-1z" /><path fill="#49f55c" d="M97 54h1v1h-1z" /><path fill="#16ffe0" d="M23 55h1v1h-1z" /><path fill="#6bf765" d="M72 55h1v1h-1z" /><path fill="#9bf75b" d="M79 55h1v1h-1z" /><path fill="#9df75b" d="M80 55h1v1h-1zM84 55h1v1h-1z" /><path fill="#37f45c" d="M98 55h1v1h-1z" /><path fill="#d7fa71" d="M22 56h1v1h-1z" /><path fill="#3ff88c" d="M71 56h1v1h-1z" /><path fill="#8bf65b" d="M79 56h1v1h-1z" /><path fill="#85f65c" d="M87 56h1v1h-1z" /><path fill="#75f65c" d="M90 56h1v1h-1z" /><path fill="#6ef55c" d="M91 56h1v1h-1zM76 57h1v1h-1z" /><path fill="#30fdd0" d="M22 57h1v1h-1z" /><path fill="#49f565" d="M71 57h1v1h-1z" /><path fill="#80f65c" d="M82 57h2v1h-2z" /><path fill="#1ff25d" d="M99 57h1v1h-1z" /><path fill="#33f66a" d="M70 58h1v1h-1z" /><path fill="#4cf55d" d="M73 58h1v1h-1z" /><path fill="#5ef55c" d="M76 58h1v1h-1zM86 59h1v1h-1z" /><path fill="#0bfde6" d="M22 59h1v1h-1z" /><path fill="#0bfde7" d="M23 59h1v1h-1z" /><path fill="#0bfbe7" d="M24 59h1v1h-1z" /><path fill="#26f35e" d="M70 59h1v1h-1z" /><path fill="#30f45d" d="M95 59h1v1h-1zM87 62h1v1h-1z" /><path fill="#18f35e" d="M98 59h1v1h-1z" /><path fill="#0ef25e" d="M99 59h1v1h-1z" /><path fill="#0af6e8" d="M24 60h1v1h-1z" /><path fill="#0ff261" d="M69 60h1v1h-1z" /><path fill="#1ff35e" d="M71 60h1v1h-1zM92 62h1v1h-1zM81 63h1v1h-1zM88 63h1v1h-1z" /><path fill="#25f45d" d="M95 60h1v1h-1z" /><path fill="#0cf360" d="M99 60h1v1h-1z" /><path fill="#09f5e7" d="M21 61h1v1h-1z" /><path fill="#0af4e8" d="M22 61h1v1h-1z" /><path fill="#0af1e9" d="M24 61h1v1h-1zM84 83h1v1h-1z" /><path fill="#0df264" d="M69 61h1v1h-1z" /><path fill="#0cf266" d="M99 61h1v1h-1z" /><path fill="#0af0e8" d="M21 62h1v1h-1z" /><path fill="#0aebe9" d="M24 62h1v1h-1z" /><path fill="#0aeaea" d="M25 62h1v1h-1z" /><path fill="#0df073" d="M68 62h1v1h-1z" /><path fill="#0df360" d="M96 62h1v1h-1zM75 63h1v1h-1zM94 63h1v1h-1zM79 64h1v1h-1zM91 64h1v1h-1z" /><path fill="#0ae8ea" d="M23 63h1v1h-1z" /><path fill="#0ae6ea" d="M24 63h1v1h-1zM21 64h1v1h-1z" /><path fill="#09e3ea" d="M25 63h1v1h-1z" /><path fill="#1cf35e" d="M89 63h1v1h-1z" /><path fill="#09e1eb" d="M24 64h1v1h-1z" /><path fill="#08deea" d="M25 64h1v1h-1z" /><path fill="#0cf185" d="M67 64h1v1h-1z" /><path fill="#08e2eb" d="M20 65h1v1h-1z" /><path fill="#09dfeb" d="M22 65h1v1h-1z" /><path fill="#09daec" d="M25 65h1v1h-1zM22 66h1v1h-1z" /><path fill="#0adca5" d="M66 65h1v1h-1z" /><path fill="#0cf373" d="M97 65h1v1h-1z" /><path fill="#09ddea" d="M20 66h1v1h-1z" /><path fill="#09d5ec" d="M25 66h1v1h-1z" /><path fill="#08bdcb" d="M65 66h1v1h-1z" /><path fill="#08d6eb" d="M20 67h1v1h-1z" /><path fill="#08d3ed" d="M23 67h1v1h-1z" /><path fill="#07ceed" d="M26 67h1v1h-1z" /><path fill="#059ae9" d="M64 67h1v1h-1z" /><path fill="#0aeca3" d="M65 67h1v1h-1z" /><path fill="#0cf37d" d="M96 67h1v1h-1z" /><path fill="#08cced" d="M24 68h1v1h-1z" /><path fill="#08caee" d="M25 68h1v1h-1zM22 69h1v1h-1z" /><path fill="#0acec3" d="M64 68h1v1h-1z" /><path fill="#08c3ee" d="M26 69h1v1h-1zM23 70h1v1h-1z" /><path fill="#07c2ef" d="M27 69h1v1h-1z" /><path fill="#05a2e4" d="M63 69h1v1h-1z" /><path fill="#0cf3a9" d="M66 69h1v1h-1zM68 70h1v1h-1zM73 72h1v1h-1zM81 74h1v1h-1z" /><path fill="#0cf287" d="M95 69h1v1h-1z" /><path fill="#07c0ef" d="M25 70h1v1h-1z" /><path fill="#07bbee" d="M27 70h1v1h-1z" /><path fill="#048af2" d="M62 70h1v1h-1z" /><path fill="#0ceebe" d="M63 70h1v1h-1z" /><path fill="#07b7f0" d="M27 71h1v1h-1zM24 72h1v1h-1z" /><path fill="#06b5f0" d="M28 71h1v1h-1z" /><path fill="#0382f7" d="M60 71h1v1h-1z" /><path fill="#0be1ce" d="M62 71h1v1h-1z" /><path fill="#0cf293" d="M94 71h1v1h-1z" /><path fill="#07b0f1" d="M28 72h1v1h-1z" /><path fill="#07c3e0" d="M61 72h1v1h-1z" /><path fill="#0cf299" d="M93 72h1v1h-1z" /><path fill="#06abf1" d="M28 73h1v1h-1zM25 74h1v1h-1z" /><path fill="#06a8f1" d="M29 73h1v1h-1z" /><path fill="#027af6" d="M58 73h1v1h-1z" /><path fill="#059eee" d="M60 73h1v1h-1z" /><path fill="#0bf39f" d="M93 73h1v1h-1z" /><path fill="#06b3f0" d="M19 74h1v1h-1z" /><path fill="#0bf0e3" d="M60 74h1v1h-1z" /><path fill="#0bf3a6" d="M92 74h1v1h-1z" /><path fill="#06aef0" d="M19 75h1v1h-1z" /><path fill="#059bf2" d="M31 75h1v1h-1z" /><path fill="#0275f7" d="M55 75h1v1h-1z" /><path fill="#0274f7" d="M58 75h1v1h-1z" /><path fill="#0bedf0" d="M59 75h1v1h-1z" /><path fill="#0cf1ac" d="M91 75h1v1h-1z" /><path fill="#05aaf1" d="M19 76h1v1h-1z" /><path fill="#0492f3" d="M33 76h1v1h-1z" /><path fill="#0272f7" d="M53 76h1v1h-1z" /><path fill="#0ae0f9" d="M58 76h1v1h-1z" /><path fill="#0bf2d2" d="M69 76h1v1h-1z" /><path fill="#05a4f2" d="M19 77h1v1h-1z" /><path fill="#0270f8" d="M51 77h1v1h-1z" /><path fill="#036af9" d="M55 77h1v1h-1zM42 81h1v1h-1z" /><path fill="#0269f9" d="M56 77h1v1h-1z" /><path fill="#09d4f8" d="M57 77h1v1h-1z" /><path fill="#0592f4" d="M27 78h1v1h-1z" /><path fill="#0484f5" d="M36 78h1v1h-1z" /><path fill="#0270f9" d="M48 78h1v1h-1z" /><path fill="#036ef8" d="M49 78h1v1h-1z" /><path fill="#0264f9" d="M55 78h1v1h-1z" /><path fill="#07c5f8" d="M56 78h1v1h-1z" /><path fill="#0cf1c1" d="M89 78h1v1h-1z" /><path fill="#047bf7" d="M38 79h1v1h-1zM25 83h1v1h-1z" /><path fill="#0261fa" d="M54 79h1v1h-1z" /><path fill="#07b9f8" d="M55 79h1v1h-1z" /><path fill="#0bf2ef" d="M67 79h1v1h-1z" /><path fill="#0cf1c9" d="M88 79h1v1h-1z" /><path fill="#025dfa" d="M53 80h1v1h-1z" /><path fill="#07b4f8" d="M54 80h1v1h-1z" /><path fill="#0bf1d1" d="M87 80h1v1h-1z" /><path fill="#058df4" d="M20 81h1v1h-1z" /><path fill="#0259fa" d="M52 81h1v1h-1z" /><path fill="#06b4f7" d="M53 81h1v1h-1z" /><path fill="#0af2d8" d="M86 81h1v1h-1z" /><path fill="#0388f6" d="M20 82h1v1h-1z" /><path fill="#05b5f6" d="M52 82h1v1h-1z" /><path fill="#0af2e1" d="M85 82h1v1h-1z" /><path fill="#0156fa" d="M50 83h1v1h-1z" /><path fill="#06bdf5" d="M51 83h1v1h-1z" /><path fill="#07c1f5" d="M50 84h1v1h-1z" /><path fill="#0af2f2" d="M83 84h1v1h-1z" /><path fill="#0276f7" d="M21 85h1v1h-1z" /><path fill="#0269fb" d="M48 85h1v1h-1z" /><path fill="#0bf0f8" d="M82 85h1v1h-1z" /><path fill="#0392f7" d="M47 86h1v1h-1z" /><path fill="#026bf9" d="M22 87h1v1h-1z" /><path fill="#04acf3" d="M46 87h1v1h-1z" /><path fill="#09e8f7" d="M79 87h1v1h-1z" /><path fill="#0263f9" d="M23 88h1v1h-1z" /><path fill="#0281f7" d="M44 88h1v1h-1z" /><path fill="#09e5f6" d="M78 88h1v1h-1z" /><path fill="#025efa" d="M24 89h1v1h-1z" /><path fill="#0041fd" d="M41 89h1v1h-1z" /><path fill="#0164fa" d="M42 89h1v1h-1z" /><path fill="#05a8f1" d="M43 89h1v1h-1z" /><path fill="#08e0f7" d="M76 89h1v1h-1z" /><path fill="#0156fb" d="M25 90h1v1h-1z" /><path fill="#0040ff" d="M39 90h1v1h-1z" /><path fill="#015bfb" d="M40 90h1v1h-1z" /><path fill="#049df1" d="M41 90h1v1h-1z" /><path fill="#04aaf1" d="M42 90h1v1h-1zM45 92h1v1h-1zM50 95h1v1h-1z" /><path fill="#08d4f6" d="M68 90h1v1h-1z" /><path fill="#09daf5" d="M74 90h1v1h-1z" /><path fill="#08dcf6" d="M75 90h1v1h-1z" /><path fill="#014efc" d="M27 91h1v1h-1z" /><path fill="#0046fd" d="M37 91h1v1h-1z" /><path fill="#0171f7" d="M38 91h1v1h-1z" /><path fill="#07c4f3" d="M58 91h1v1h-1z" /><path fill="#07d7f5" d="M73 91h1v1h-1z" /><path fill="#0165f9" d="M29 92h1v1h-1z" /><path fill="#0054fc" d="M30 92h1v1h-1z" /><path fill="#004efc" d="M31 92h1v1h-1z" /><path fill="#0049fd" d="M32 92h1v1h-1z" /><path fill="#0164f9" d="M34 92h1v1h-1z" /><path fill="#04a0f0" d="M36 92h1v1h-1z" /><path fill="#08cff4" d="M70 92h1v1h-1z" /><path fill="#07caf3" d="M68 93h1v1h-1z" /><path fill="#06cbf3" d="M69 93h1v1h-1z" /><path fill="#06c4f4" d="M66 94h1v1h-1z" /><path fill="#05bdf2" d="M63 95h1v1h-1z" /><path fill="#05b1f0" d="M57 96h1v1h-1z" /><path fill="#04b3f2" d="M58 96h1v1h-1z" /><path fill="#03a8f0" d="M52 97h1v1h-1z" /></svg>