<svg xmlns="http://www.w3.org/2000/svg" viewBox="0 0 100 100"><path fill="#983ef9" fill-rule="evenodd" d="M0 0h1v9h-1zm1 16h1v3h-1zm1 6h1v2h-1zm1 5h1v1h-1zm1 3h1v2h-1zm1 4h1v1h-1zm1 3h1v1h-1zm1 2h1v1h-1zm1 3h1v1h-1zm1 2h1v1h-1zm1 2h1v1h-1zm1 2h1v1h-1zm1 2h1v1h-1zm1 2h1v1h-1zm1 1h1v1h-1zm1 2h1v1h-1zm2 3h1v1h-1zm2 3h1v1h-1zm1 1h1v1h-1zm2 3h1v1h-1zm1 1h1v1h-1zm1 1h1v1h-1zm1 1h1v1h-1zm1 1h1v1h-1zm1 1h1v1h-1zm3 3h1v1h-1zm1 1h1v1h-1zm1 1h1v1h-1zm1 1h1v1h-1zm1 1h1v1h-1zm4 3h1v1h-1zm1 1h1v1h-1zm3 2h1v1h-1zm3 2h1v1h-1zm2 1h1v1h-1zm1 1h1v1h-1zm2 1h1v1h-1zm2 1h1v1h-1zm2 1h1v1h-1zm2 1h1v1h-1zm2 1h2v1h-2zm3 1h1v1h-1zm2 1h2v1h-2zm3 1h2v1h-2zm3 1h2v1h-2zm4 1h2v1h-2zm5 1h2v1h-2zm5 1h4v1h-4z"/><path fill="#993df9" fill-rule="evenodd" d="M1 0h1v10h-1zm1 18h1v1h-1zm1 5h1v1h-1zm1 5h1v1h-1zm1 3h1v1h-1zm1 3h1v1h-1zm1 3h1v1h-1zm2 5h1v1h-1zm1 2h1v1h-1zm1 2h1v1h-1zm1 2h1v1h-1zm1 2h1v1h-1zm1 2h1v1h-1zm2 3h1v1h-1zm2 3h1v1h-1zm3 4h1v1h-1zm4 5h1v1h-1zm1 1h1v1h-1zm1 1h1v1h-1zm1 1h1v1h-1zm1 1h1v1h-1zm1 1h1v1h-1zm1 1h1v1h-1zm1 1h1v1h-1zm1 1h1v1h-1zm5 4h1v1h-1zm4 3h1v1h-1zm3 2h1v1h-1zm5 3h1v1h-1zm2 1h1v1h-1zm2 1h1v1h-1zm2 1h1v1h-1zm2 1h1v1h-1zm5 2h1v1h-1zm3 1h1v1h-1zm3 1h1v1h-1zm4 1h1v1h-1zm4 1h2v1h-2zm6 1h2v1h-2zm16 1h1v1h-1z"/><path fill="#9b3cf9" fill-rule="evenodd" d="M2 0h1v11h-1zm1 14h1v5h-1zm1 7h1v4h-1zm1 5h1v3h-1zm1 4h1v2h-1zm1 3h1v2h-1zm1 3h1v2h-1zm1 3h1v1h-1zm1 2h1v2h-1zm1 2h1v2h-1zm1 2h1v2h-1zm1 2h1v2h-1zm1 2h1v2h-1zm1 2h1v1h-1zm1 2h1v1h-1zm1 1h1v2h-1zm1 2h1v1h-1zm1 1h1v1h-1zm1 2h1v1h-1zm1 1h1v1h-1zm1 1h1v2h-1zm1 2h1v1h-1zm1 1h1v1h-1zm1 1h1v1h-1zm1 1h1v1h-1zm1 1h1v1h-1zm1 1h1v1h-1zm1 1h1v1h-1zm2 2h1v1h-1zm1 1h1v1h-1zm1 1h1v1h-1zm1 1h1v1h-1zm1 1h1v1h-1zm1 1h1v1h-1zm1 1h1v1h-1zm2 1h1v1h-1zm1 1h1v1h-1zm1 1h1v1h-1zm2 1h1v1h-1zm1 1h1v1h-1zm2 1h1v1h-1zm1 1h1v1h-1zm2 1h1v1h-1zm2 1h1v1h-1zm1 1h2v1h-2zm2 1h2v1h-2zm2 1h2v1h-2zm3 1h1v1h-1zm2 1h2v1h-2zm3 1h1v1h-1zm2 1h2v1h-2zm3 1h3v1h-3zm4 1h3v1h-3zm4 1h4v1h-4zm6 1h5v1h-5zm12 1h3v1h-3z"/><path fill="#9c3bf8" fill-rule="evenodd" d="M3 0h1v12h-1zm1 16h1v4h-1zm1 6h1v3h-1zm1 5h1v2h-1zm1 3h1v2h-1zm1 3h1v2h-1zm1 3h1v2h-1zm1 3h1v1h-1zm1 2h1v2h-1zm1 3h1v1h-1zm1 2h1v1h-1zm1 2h1v1h-1zm1 1h1v2h-1zm1 2h1v1h-1zm1 2h1v1h-1zm1 1h1v1h-1zm1 2h1v1h-1zm1 1h1v1h-1zm1 2h1v1h-1zm1 1h1v1h-1zm1 1h1v1h-1zm1 2h1v1h-1zm1 1h1v1h-1zm1 1h1v1h-1zm1 1h1v1h-1zm1 1h1v1h-1zm1 1h1v1h-1zm1 1h1v1h-1zm1 1h1v1h-1zm1 1h1v1h-1zm1 1h1v1h-1zm1 1h1v1h-1zm1 1h1v1h-1zm1 1h1v1h-1zm1 1h1v1h-1zm2 1h1v1h-1zm1 1h1v1h-1zm1 1h1v1h-1zm2 1h1v1h-1zm1 1h1v1h-1zm2 1h1v1h-1zm1 1h1v1h-1zm2 1h1v1h-1zm2 1h1v1h-1zm1 1h2v1h-2zm2 1h2v1h-2zm2 1h2v1h-2zm3 1h1v1h-1zm2 1h1v1h-1zm2 1h2v1h-2zm3 1h2v1h-2zm3 1h2v1h-2zm4 1h2v1h-2zm4 1h3v1h-3zm5 1h5v1h-5zm10 1h5v1h-5z"/><path fill="#9d3af8" fill-rule="evenodd" d="M4 0h1v2h-1zm0 7h1v6h-1zm1 11h1v2h-1zm1 5h1v2h-1zm1 5h1v1h-1zm1 3h1v1h-1zm1 3h1v1h-1zm1 3h1v1h-1zm1 2h1v1h-1zm1 3h1v1h-1zm1 2h1v1h-1zm1 2h1v1h-1zm1 2h1v1h-1zm2 3h1v1h-1zm1 2h1v1h-1zm2 3h1v1h-1zm1 1h1v1h-1zm2 3h1v1h-1zm1 1h1v1h-1zm3 4h1v1h-1zm1 1h1v1h-1zm1 1h1v1h-1zm1 1h1v1h-1zm1 1h1v1h-1zm1 1h1v1h-1zm1 1h1v1h-1zm1 1h1v1h-1zm1 1h1v1h-1zm4 3h1v1h-1zm1 1h1v1h-1zm3 2h1v1h-1zm1 1h1v1h-1zm2 1h1v1h-1zm1 1h1v1h-1zm2 1h1v1h-1zm2 1h1v1h-1zm3 2h1v1h-1zm2 1h1v1h-1zm3 1h1v1h-1zm2 1h1v1h-1zm2 1h1v1h-1zm3 1h1v1h-1zm3 1h1v1h-1zm4 1h1v1h-1zm4 1h1v1h-1zm5 1h2v1h-2zm9 1h5v1h-5z"/><path fill="#9f39f8" fill-rule="evenodd" d="M5 0h1v11h-1zm1 14h1v5h-1zm1 7h1v3h-1zm1 5h1v2h-1zm1 3h1v3h-1zm1 4h1v2h-1zm1 2h1v2h-1zm1 3h1v2h-1zm1 2h1v2h-1zm1 3h1v1h-1zm1 2h1v1h-1zm1 2h1v1h-1zm1 1h1v2h-1zm1 2h1v2h-1zm1 2h1v1h-1zm1 1h1v2h-1zm1 2h1v1h-1zm1 1h1v2h-1zm1 2h1v1h-1zm1 1h1v1h-1zm1 1h1v2h-1zm1 2h1v1h-1zm1 1h1v1h-1zm1 1h1v1h-1zm1 1h1v1h-1zm1 1h1v1h-1zm1 1h1v1h-1zm1 1h1v1h-1zm1 1h1v1h-1zm1 1h1v1h-1zm1 1h1v1h-1zm1 1h1v1h-1zm1 1h1v1h-1zm1 1h1v1h-1zm1 1h2v1h-2zm2 1h1v1h-1zm1 1h1v1h-1zm1 1h2v1h-2zm2 1h1v1h-1zm1 1h2v1h-2zm2 1h1v1h-1zm2 1h1v1h-1zm1 1h2v1h-2zm2 1h2v1h-2zm2 1h2v1h-2zm2 1h2v1h-2zm2 1h2v1h-2zm2 1h2v1h-2zm3 1h2v1h-2zm3 1h2v1h-2zm3 1h2v1h-2zm3 1h3v1h-3zm4 1h4v1h-4zm6 1h6v1h-6zm10 1h2v1h-2z"/><path fill="#a038f7" fill-rule="evenodd" d="M6 0h1v12h-1zm1 16h1v4h-1zm1 6h1v3h-1zm1 5h1v2h-1zm1 3h1v2h-1zm1 3h1v2h-1zm1 3h1v1h-1zm1 3h1v1h-1zm1 2h1v1h-1zm1 2h1v1h-1zm1 2h1v1h-1zm1 2h1v1h-1zm1 2h1v1h-1zm1 1h1v1h-1zm1 2h1v1h-1zm1 2h1v1h-1zm1 1h1v1h-1zm2 3h1v1h-1zm1 1h1v1h-1zm1 1h1v1h-1zm1 2h1v1h-1zm1 1h1v1h-1zm1 1h1v1h-1zm1 1h1v1h-1zm1 1h1v1h-1zm1 1h1v1h-1zm1 1h1v1h-1zm1 1h1v1h-1zm1 1h1v1h-1zm1 1h1v1h-1zm1 1h1v1h-1zm3 2h1v1h-1zm1 1h1v1h-1zm1 1h1v1h-1zm2 1h1v1h-1zm1 1h1v1h-1zm2 1h1v1h-1zm1 1h1v1h-1zm2 1h1v1h-1zm1 1h1v1h-1zm2 1h1v1h-1zm2 1h1v1h-1zm2 1h1v1h-1zm2 1h1v1h-1zm2 1h2v1h-2zm3 1h1v1h-1zm3 1h1v1h-1zm3 1h1v1h-1zm3 1h2v1h-2zm4 1h3v1h-3zm5 1h4v1h-4zm9 1h3v1h-3z"/><path fill="#a237f7" fill-rule="evenodd" d="M7 0h1v8h-1zm1 15h1v3h-1zm1 6h1v2h-1zm1 5h1v1h-1zm1 3h1v2h-1zm1 3h1v2h-1zm1 3h1v2h-1zm1 3h1v1h-1zm1 2h1v1h-1zm1 2h1v1h-1zm1 2h1v1h-1zm1 2h1v1h-1zm1 2h1v1h-1zm1 2h1v1h-1zm1 1h1v1h-1zm1 2h1v1h-1zm1 1h1v1h-1zm1 2h1v1h-1zm1 1h1v1h-1zm2 3h1v1h-1zm1 1h1v1h-1zm1 1h1v1h-1zm1 1h1v1h-1zm1 1h1v1h-1zm5 5h1v1h-1zm1 1h1v1h-1zm1 1h1v1h-1zm1 1h1v1h-1zm3 2h1v1h-1zm1 1h1v1h-1zm1 1h1v1h-1zm2 1h1v1h-1zm1 1h1v1h-1zm2 1h1v1h-1zm1 1h1v1h-1zm2 1h1v1h-1zm2 1h1v1h-1zm2 1h1v1h-1zm2 1h1v1h-1zm2 1h1v1h-1zm2 1h1v1h-1zm3 1h1v1h-1zm3 1h1v1h-1zm3 1h1v1h-1zm3 1h2v1h-2zm4 1h3v1h-3zm6 1h4v1h-4z"/><path fill="#a336f7" fill-rule="evenodd" d="M8 0h1v12h-1zm1 15h1v5h-1zm1 6h1v3h-1zm1 5h1v2h-1zm1 3h1v3h-1zm1 3h1v2h-1zm1 3h1v2h-1zm1 3h1v1h-1zm1 2h1v2h-1zm1 2h1v2h-1zm1 2h1v2h-1zm1 2h1v2h-1zm1 2h1v1h-1zm1 2h1v1h-1zm1 1h1v1h-1zm1 2h1v1h-1zm1 1h1v1h-1zm1 2h1v1h-1zm1 1h1v1h-1zm1 1h1v1h-1zm1 2h1v1h-1zm1 1h1v1h-1zm1 1h1v1h-1zm1 1h1v1h-1zm1 1h1v1h-1zm1 1h1v1h-1zm1 1h1v1h-1zm1 1h1v1h-1zm1 1h1v1h-1zm1 1h1v1h-1zm1 1h1v1h-1zm1 1h1v1h-1zm1 1h1v1h-1zm2 1h1v1h-1zm1 1h1v1h-1zm1 1h1v1h-1zm2 1h1v1h-1zm1 1h1v1h-1zm2 1h1v1h-1zm1 1h2v1h-2zm2 1h1v1h-1zm2 1h1v1h-1zm2 1h1v1h-1zm1 1h2v1h-2zm3 1h1v1h-1zm2 1h2v1h-2zm2 1h2v1h-2zm3 1h2v1h-2zm3 1h2v1h-2zm3 1h3v1h-3zm4 1h4v1h-4zm5 1h5v1h-5zm9 1h1v1h-1z"/><path fill="#a435f6" fill-rule="evenodd" d="M9 0h1v10h-1zm1 17h1v1h-1zm1 5h1v1h-1zm1 4h1v1h-1zm1 4h1v1h-1zm1 3h1v1h-1zm2 5h1v1h-1zm1 2h1v1h-1zm1 2h1v1h-1zm1 2h1v1h-1zm1 2h1v1h-1zm1 2h1v1h-1zm2 3h1v1h-1zm2 3h1v1h-1zm3 4h1v1h-1zm13 13h1v1h-1zm1 1h1v1h-1zm4 3h1v1h-1zm3 2h1v1h-1zm5 3h1v1h-1zm2 1h1v1h-1zm2 1h1v1h-1zm2 1h1v1h-1zm5 2h1v1h-1zm3 1h1v1h-1zm3 1h1v1h-1zm3 1h1v1h-1zm4 1h2v1h-2zm6 1h2v1h-2z"/><path fill="#a634f6" fill-rule="evenodd" d="M10 0h1v9h-1zm1 16h1v2h-1zm1 6h1v1h-1zm1 4h1v1h-1zm1 4h1v1h-1zm1 3h1v1h-1zm1 2h1v1h-1zm1 3h1v1h-1zm1 2h1v1h-1zm1 2h1v1h-1zm1 2h1v1h-1zm1 2h1v1h-1zm2 3h1v1h-1zm2 3h1v1h-1zm2 3h1v1h-1zm3 4h1v1h-1zm1 1h1v1h-1zm1 1h1v1h-1zm1 1h1v1h-1zm5 5h1v1h-1zm1 1h1v1h-1zm1 1h1v1h-1zm1 1h1v1h-1zm3 2h1v1h-1zm1 1h1v1h-1zm3 2h1v1h-1zm3 2h1v1h-1zm5 3h1v1h-1zm2 1h1v1h-1zm2 1h1v1h-1zm3 1h1v1h-1zm2 1h1v1h-1zm3 1h1v1h-1zm3 1h1v1h-1zm3 1h2v1h-2zm4 1h2v1h-2zm6 1h2v1h-2z"/><path fill="#a733f6" fill-rule="evenodd" d="M11 0h1v13h-1zm1 16h1v4h-1zm1 6h1v2h-1zm1 4h1v2h-1zm1 4h1v1h-1zm1 3h1v1h-1zm1 2h1v2h-1zm1 3h1v1h-1zm1 2h1v1h-1zm1 2h1v1h-1zm1 2h1v1h-1zm1 2h1v1h-1zm1 2h1v1h-1zm1 1h1v1h-1zm1 2h1v1h-1zm1 1h1v1h-1zm1 2h1v1h-1zm1 1h1v1h-1zm1 1h1v1h-1zm2 3h1v1h-1zm1 1h1v1h-1zm1 1h1v1h-1zm1 1h1v1h-1zm1 1h1v1h-1zm1 1h1v1h-1zm1 1h1v1h-1zm1 1h1v1h-1zm1 1h1v1h-1zm1 1h1v1h-1zm1 1h1v1h-1zm3 2h1v1h-1zm1 1h1v1h-1zm3 2h1v1h-1zm1 1h1v1h-1zm2 1h1v1h-1zm2 1h1v1h-1zm1 1h1v1h-1zm2 1h1v1h-1zm2 1h1v1h-1zm2 1h1v1h-1zm2 1h2v1h-2zm3 1h1v1h-1zm2 1h2v1h-2zm3 1h2v1h-2zm3 1h2v1h-2zm4 1h3v1h-3zm5 1h4v1h-4z"/><path fill="#a832f6" fill-rule="evenodd" d="M12 0h1v15h-1zm1 17h1v4h-1zm1 5h1v3h-1zm1 4h1v3h-1zm1 4h1v2h-1zm1 3h1v2h-1zm1 2h1v2h-1zm1 3h1v1h-1zm1 2h1v2h-1zm1 2h1v2h-1zm1 2h1v1h-1zm1 2h1v1h-1zm1 1h1v2h-1zm1 2h1v1h-1zm1 2h1v1h-1zm1 1h1v1h-1zm1 1h1v2h-1zm1 2h1v1h-1zm1 1h1v1h-1zm1 1h1v1h-1zm1 2h1v1h-1zm1 1h1v1h-1zm1 1h1v1h-1zm1 1h1v1h-1zm1 1h1v1h-1zm1 1h1v1h-1zm1 1h1v1h-1zm1 1h1v1h-1zm1 1h1v1h-1zm1 1h2v1h-2zm2 1h1v1h-1zm1 1h1v1h-1zm1 1h1v1h-1zm1 1h2v1h-2zm2 1h1v1h-1zm1 1h2v1h-2zm2 1h1v1h-1zm1 1h2v1h-2zm2 1h2v1h-2zm2 1h1v1h-1zm2 1h1v1h-1zm2 1h1v1h-1zm2 1h2v1h-2zm2 1h2v1h-2zm3 1h2v1h-2zm2 1h3v1h-3zm4 1h2v1h-2zm3 1h4v1h-4zm5 1h4v1h-4z"/><path fill="#aa31f5" fill-rule="evenodd" d="M13 0h1v2h-1zm0 6h1v4h-1zm1 11h1v1h-1zm1 5h1v1h-1zm1 4h1v1h-1zm3 9h1v1h-1zm6 12h1v1h-1zm2 3h1v1h-1zm2 3h1v1h-1zm4 5h1v1h-1zm1 1h1v1h-1zm6 6h1v1h-1zm1 1h1v1h-1zm1 1h1v1h-1zm4 3h1v1h-1zm4 3h1v1h-1zm5 3h1v1h-1zm8 4h1v1h-1zm5 2h1v1h-1zm3 1h1v1h-1zm3 1h1v1h-1zm4 1h1v1h-1zm6 1h1v1h-1z"/><path fill="#ab2ff5" fill-rule="evenodd" d="M14 0h1v8h-1zm1 15h1v2h-1zm1 6h1v2h-1zm1 4h1v1h-1zm1 4h1v1h-1zm1 3h1v1h-1zm1 2h1v1h-1zm1 3h1v1h-1zm1 2h1v1h-1zm1 2h1v1h-1zm1 2h1v1h-1zm2 3h1v1h-1zm1 2h1v1h-1zm2 3h1v1h-1zm1 1h1v1h-1zm2 3h1v1h-1zm1 1h1v1h-1zm1 1h1v1h-1zm9 9h1v1h-1zm1 1h1v1h-1zm1 1h1v1h-1zm3 2h1v1h-1zm1 1h1v1h-1zm2 1h1v1h-1zm1 1h1v1h-1zm2 1h1v1h-1zm5 3h1v1h-1zm5 2h1v1h-1zm2 1h1v1h-1zm3 1h1v1h-1zm3 1h1v1h-1zm3 1h1v1h-1zm4 1h2v1h-2z"/><path fill="#ac2ef5" fill-rule="evenodd" d="M15 0h1v2h-1zm0 7h1v2h-1zm1 10h1v1h-1zm1 5h1v1h-1zm1 4h1v1h-1zm1 3h1v1h-1zm1 3h1v1h-1zm3 7h1v1h-1zm1 2h1v1h-1zm10 15h1v1h-1zm9 9h1v1h-1zm1 1h1v1h-1zm4 3h1v1h-1zm31 14h1v1h-1z"/><path fill="#ae2df4" fill-rule="evenodd" d="M16 0h1v10h-1zm1 14h1v4h-1zm1 6h1v3h-1zm1 4h1v3h-1zm1 4h1v2h-1zm1 3h1v2h-1zm1 2h1v2h-1zm1 3h1v1h-1zm1 2h1v2h-1zm1 2h1v1h-1zm1 2h1v1h-1zm1 2h1v1h-1zm1 1h1v2h-1zm1 2h1v1h-1zm1 2h1v1h-1zm1 1h1v1h-1zm1 1h1v2h-1zm1 2h1v1h-1zm1 1h1v1h-1zm1 1h1v1h-1zm1 1h1v1h-1zm1 2h1v1h-1zm1 1h1v1h-1zm1 1h1v1h-1zm1 1h1v1h-1zm1 1h1v1h-1zm1 1h1v1h-1zm2 1h1v1h-1zm1 1h1v1h-1zm1 1h1v1h-1zm1 1h1v1h-1zm2 1h1v1h-1zm1 1h1v1h-1zm1 1h2v1h-2zm2 1h1v1h-1zm1 1h2v1h-2zm2 1h1v1h-1zm2 1h1v1h-1zm2 1h1v1h-1zm2 1h1v1h-1zm2 1h1v1h-1zm2 1h2v1h-2zm3 1h2v1h-2zm3 1h2v1h-2zm3 1h2v1h-2zm4 1h2v1h-2z"/><path fill="#af2cf4" fill-rule="evenodd" d="M17 0h1v11h-1zm1 16h1v2h-1zm1 5h1v2h-1zm1 4h1v2h-1zm1 3h1v2h-1zm1 3h1v2h-1zm1 3h1v1h-1zm1 2h1v1h-1zm1 2h1v1h-1zm1 2h1v1h-1zm1 2h1v1h-1zm1 2h1v1h-1zm1 2h1v1h-1zm1 1h1v1h-1zm1 2h1v1h-1zm1 1h1v1h-1zm2 3h1v1h-1zm1 1h1v1h-1zm1 1h1v1h-1zm1 1h1v1h-1zm7 7h1v1h-1zm1 1h1v1h-1zm1 1h1v1h-1zm1 1h1v1h-1zm2 1h1v1h-1zm1 1h1v1h-1zm3 2h1v1h-1zm3 2h1v1h-1zm2 1h1v1h-1zm2 1h1v1h-1zm2 1h1v1h-1zm2 1h1v1h-1zm2 1h1v1h-1zm3 1h1v1h-1zm3 1h1v1h-1zm3 1h1v1h-1zm4 1h1v1h-1z"/><path fill="#b12bf4" fill-rule="evenodd" d="M18 0h1v8h-1zm1 13h1v4h-1zm1 7h1v2h-1zm1 4h1v2h-1zm1 3h1v2h-1zm1 3h1v2h-1zm1 3h1v1h-1zm1 2h1v2h-1zm1 3h1v1h-1zm1 2h1v1h-1zm1 1h1v2h-1zm1 2h1v1h-1zm1 2h1v1h-1zm1 1h1v1h-1zm1 2h1v1h-1zm1 1h1v1h-1zm1 2h1v1h-1zm1 1h1v1h-1zm1 1h1v1h-1zm3 4h1v1h-1zm1 1h1v1h-1zm1 1h1v1h-1zm1 1h1v1h-1zm1 1h1v1h-1zm3 2h1v1h-1zm1 1h1v1h-1zm1 1h1v1h-1zm1 1h1v1h-1zm2 1h1v1h-1zm1 1h1v1h-1zm2 1h1v1h-1zm1 1h1v1h-1zm2 1h1v1h-1zm2 1h1v1h-1zm1 1h2v1h-2zm2 1h2v1h-2zm3 1h1v1h-1zm2 1h1v1h-1zm2 1h2v1h-2zm3 1h2v1h-2zm4 1h2v1h-2z"/><path fill="#b22af3" fill-rule="evenodd" d="M19 0h1v12h-1zm1 14h1v5h-1zm1 6h1v3h-1zm1 4h1v3h-1zm1 3h1v3h-1zm1 3h1v2h-1zm1 3h1v2h-1zm1 2h1v2h-1zm1 2h1v2h-1zm1 2h1v2h-1zm1 2h1v2h-1zm1 2h1v2h-1zm1 2h1v1h-1zm1 1h1v2h-1zm1 2h1v1h-1zm1 1h1v1h-1zm1 2h1v1h-1zm1 1h1v1h-1zm1 1h1v1h-1zm1 1h1v1h-1zm1 1h1v1h-1zm1 1h1v2h-1zm1 2h1v1h-1zm1 1h1v1h-1zm1 1h2v1h-2zm2 1h1v1h-1zm1 1h1v1h-1zm1 1h1v1h-1zm1 1h1v1h-1zm1 1h2v1h-2zm2 1h1v1h-1zm1 1h1v1h-1zm1 1h2v1h-2zm2 1h1v1h-1zm2 1h1v1h-1zm1 1h2v1h-2zm2 1h2v1h-2zm2 1h2v1h-2zm2 1h2v1h-2zm2 1h2v1h-2zm3 1h2v1h-2zm3 1h2v1h-2zm3 1h2v1h-2z"/><path fill="#b329f3" fill-rule="evenodd" d="M20 0h1v13h-1zm1 16h1v3h-1zm1 5h1v2h-1zm1 4h1v2h-1zm1 3h1v2h-1zm1 3h1v2h-1zm1 2h1v2h-1zm1 3h1v1h-1zm1 2h1v1h-1zm1 2h1v1h-1zm1 2h1v1h-1zm1 1h1v1h-1zm1 2h1v1h-1zm1 1h1v2h-1zm1 2h1v1h-1zm1 1h1v1h-1zm1 2h1v1h-1zm1 1h1v1h-1zm1 1h1v1h-1zm1 1h1v1h-1zm1 1h1v1h-1zm1 1h1v1h-1zm3 3h1v1h-1zm1 1h1v1h-1zm1 1h1v1h-1zm1 1h1v1h-1zm1 1h1v1h-1zm1 1h1v1h-1zm2 1h1v1h-1zm1 1h1v1h-1zm2 1h1v1h-1zm1 1h1v1h-1zm2 1h1v1h-1zm1 1h2v1h-2zm2 1h1v1h-1zm2 1h1v1h-1zm2 1h1v1h-1zm2 1h2v1h-2zm3 1h1v1h-1zm2 1h2v1h-2zm4 1h1v1h-1z"/><path fill="#b528f3" fill-rule="evenodd" d="M21 0h1v9h-1zm1 14h1v3h-1zm1 6h1v2h-1zm1 4h1v2h-1zm1 3h1v2h-1zm1 3h1v2h-1zm1 3h1v1h-1zm1 2h1v1h-1zm1 2h1v1h-1zm1 2h1v1h-1zm1 2h1v1h-1zm1 2h1v1h-1zm1 1h1v1h-1zm1 2h1v1h-1zm1 1h1v1h-1zm2 3h1v1h-1zm1 1h1v1h-1zm1 1h1v1h-1zm1 1h1v1h-1zm7 7h1v1h-1zm1 1h1v1h-1zm1 1h1v1h-1zm1 1h1v1h-1zm2 1h1v1h-1zm1 1h1v1h-1zm1 1h1v1h-1zm2 1h1v1h-1zm2 1h1v1h-1zm1 1h1v1h-1zm2 1h1v1h-1zm2 1h1v1h-1zm2 1h1v1h-1zm2 1h2v1h-2zm3 1h1v1h-1zm3 1h1v1h-1z"/><path fill="#b627f2" fill-rule="evenodd" d="M22 0h1v11h-1zm1 14h1v4h-1zm1 6h1v3h-1zm1 4h1v2h-1zm1 3h1v2h-1zm1 3h1v2h-1zm1 3h1v1h-1zm1 2h1v1h-1zm1 2h1v1h-1zm1 2h1v1h-1zm1 2h1v1h-1zm1 1h1v2h-1zm1 2h1v1h-1zm1 2h1v1h-1zm1 1h1v1h-1zm1 1h1v1h-1zm1 2h1v1h-1zm1 1h1v1h-1zm1 1h1v1h-1zm1 1h1v1h-1zm1 1h1v1h-1zm1 1h1v1h-1zm1 1h1v1h-1zm1 1h1v1h-1zm1 1h1v1h-1zm1 1h1v1h-1zm1 1h1v1h-1zm1 1h1v1h-1zm1 1h1v1h-1zm2 1h1v1h-1zm1 1h1v1h-1zm1 1h2v1h-2zm2 1h1v1h-1zm1 1h2v1h-2zm2 1h1v1h-1zm2 1h1v1h-1zm2 1h1v1h-1zm2 1h1v1h-1zm2 1h2v1h-2zm2 1h2v1h-2zm3 1h1v1h-1z"/><path fill="#b726f2" fill-rule="evenodd" d="M23 0h1v14h-1zm1 16h1v4h-1zm1 5h1v3h-1zm1 4h1v2h-1zm1 3h1v2h-1zm1 3h1v1h-1zm1 2h1v2h-1zm1 2h1v2h-1zm1 2h1v2h-1zm1 2h1v2h-1zm1 2h1v1h-1zm1 2h1v1h-1zm1 1h1v1h-1zm1 2h1v1h-1zm1 1h1v1h-1zm1 1h1v2h-1zm1 2h1v1h-1zm1 1h1v1h-1zm1 1h1v1h-1zm1 1h1v1h-1zm1 1h1v1h-1zm1 1h1v1h-1zm1 1h1v1h-1zm1 1h1v1h-1zm1 1h1v1h-1zm1 1h1v1h-1zm1 1h1v1h-1zm1 1h1v1h-1zm1 1h2v1h-2zm2 1h1v1h-1zm1 1h1v1h-1zm2 1h1v1h-1zm1 1h1v1h-1zm2 1h1v1h-1zm2 1h1v1h-1zm1 1h2v1h-2zm2 1h2v1h-2zm2 1h2v1h-2zm3 1h2v1h-2zm2 1h1v1h-1z"/><path fill="#b925f2" fill-rule="evenodd" d="M24 0h1v10h-1zm1 15h1v2h-1zm1 5h1v2h-1zm1 4h1v2h-1zm1 3h1v2h-1zm1 3h1v1h-1zm1 2h1v2h-1zm1 3h1v1h-1zm1 2h1v1h-1zm1 2h1v1h-1zm1 1h1v1h-1zm1 2h1v1h-1zm2 3h1v1h-1zm1 1h1v1h-1zm1 2h1v1h-1zm1 1h1v1h-1zm1 1h1v1h-1zm1 1h1v1h-1zm7 7h1v1h-1zm1 1h1v1h-1zm1 1h1v1h-1zm3 2h1v1h-1zm1 1h1v1h-1zm2 1h1v1h-1zm1 1h1v1h-1zm2 1h1v1h-1zm2 1h1v1h-1zm2 1h1v1h-1zm2 1h1v1h-1zm2 1h1v1h-1z"/><path fill="#ba24f1" fill-rule="evenodd" d="M25 0h1v9h-1zm1 15h1v2h-1zm1 5h1v2h-1zm1 4h1v1h-1zm1 3h1v1h-1zm1 3h1v1h-1zm1 2h1v1h-1zm3 6h1v1h-1zm1 2h1v1h-1zm2 3h1v1h-1zm2 3h1v1h-1zm3 4h1v1h-1zm1 1h1v1h-1zm1 1h1v1h-1zm1 1h1v1h-1zm1 1h1v1h-1zm1 1h1v1h-1zm1 1h1v1h-1zm1 1h1v1h-1zm5 4h1v1h-1zm3 2h1v1h-1zm3 2h1v1h-1zm2 1h1v1h-1zm2 1h1v1h-1zm2 1h1v1h-1z"/><path fill="#bb23f1" fill-rule="evenodd" d="M26 0h1v2h-1zm0 7h1v8h-1zm1 9h1v4h-1zm1 5h1v3h-1zm1 4h1v2h-1zm1 3h1v2h-1zm1 2h1v2h-1zm1 3h1v1h-1zm1 2h1v1h-1zm1 2h1v1h-1zm1 2h1v1h-1zm1 1h1v2h-1zm1 2h1v1h-1zm1 1h1v2h-1zm1 2h1v1h-1zm1 1h1v1h-1zm1 2h1v1h-1zm1 1h1v1h-1zm1 1h1v1h-1zm1 1h1v1h-1zm1 1h1v1h-1zm1 1h1v1h-1zm1 1h1v1h-1zm1 1h1v1h-1zm1 1h1v1h-1zm1 1h1v1h-1zm1 1h1v1h-1zm1 1h2v1h-2zm2 1h1v1h-1zm1 1h1v1h-1zm1 1h2v1h-2zm2 1h1v1h-1zm1 1h2v1h-2zm2 1h2v1h-2zm2 1h1v1h-1zm2 1h1v1h-1z"/><path fill="#bd22f1" fill-rule="evenodd" d="M27 0h1v11h-1zm1 16h1v2h-1zm1 5h1v1h-1zm1 3h1v1h-1zm1 3h1v1h-1zm1 3h1v1h-1zm1 2h1v1h-1zm1 2h1v1h-1zm1 2h1v1h-1zm1 2h1v1h-1zm1 2h1v1h-1zm2 3h1v1h-1zm1 1h1v1h-1zm2 3h1v1h-1zm1 1h1v1h-1zm8 8h1v1h-1zm1 1h1v1h-1zm1 1h1v1h-1zm3 2h1v1h-1zm3 2h1v1h-1zm3 2h1v1h-1z"/><path fill="#be21f1" fill-rule="evenodd" d="M28 0h1v1h-1zm0 7h1v6h-1zm1 9h1v3h-1zm1 5h1v2h-1zm1 3h1v2h-1zm1 3h1v2h-1zm1 3h1v1h-1zm1 2h1v1h-1zm1 2h1v1h-1zm1 2h1v1h-1zm1 2h1v1h-1zm1 2h1v1h-1zm1 1h1v1h-1zm1 2h1v1h-1zm1 1h1v1h-1zm2 3h1v1h-1zm1 1h1v1h-1zm1 1h1v1h-1zm1 1h1v1h-1zm1 1h1v1h-1zm1 1h1v1h-1zm1 1h1v1h-1zm1 1h1v1h-1zm1 1h1v1h-1zm1 1h1v1h-1zm1 1h1v1h-1zm3 2h1v1h-1zm1 1h1v1h-1zm2 1h1v1h-1zm1 1h1v1h-1z"/><path fill="#c01ff0" fill-rule="evenodd" d="M29 0h1v8h-1zm1 11h1v5h-1zm1 7h1v3h-1zm1 4h1v2h-1zm1 3h1v2h-1zm1 3h1v2h-1zm1 2h1v2h-1zm1 3h1v1h-1zm1 2h1v1h-1zm1 1h1v2h-1zm1 2h1v2h-1zm1 2h1v1h-1zm1 1h1v2h-1zm1 2h1v1h-1zm1 1h1v1h-1zm1 1h1v2h-1zm1 2h1v1h-1zm1 1h1v1h-1zm1 1h1v1h-1zm1 1h1v1h-1zm1 1h1v1h-1zm1 1h1v1h-1zm1 1h1v1h-1zm1 1h2v1h1v2h-1v-1h-1v-1h-1z"/><path fill="#c11ef0" fill-rule="evenodd" d="M30 0h1v9h-1zm1 13h1v4h-1zm1 6h1v2h-1zm1 4h1v1h-1zm1 3h1v1h-1zm1 2h1v2h-1zm1 3h1v1h-1zm1 2h1v1h-1zm1 2h1v1h-1zm1 2h1v1h-1zm1 1h1v1h-1zm1 2h1v1h-1zm1 1h1v1h-1zm1 2h1v1h-1zm1 1h1v1h-1zm1 1h1v1h-1zm1 2h1v1h-1zm1 1h1v1h-1zm1 1h1v1h-1z"/><path fill="#c21df0" fill-rule="evenodd" d="M31 0h1v10h-1zm1 15h1v2h-1zm1 5h1v1h-1zm1 3h1v1h-1zm1 3h1v1h-1zm1 3h1v1h-1zm1 2h1v1h-1zm1 2h1v1h-1zm1 2h1v1h-1zm1 2h1v1h-1zm2 3h1v1h-1zm2 3h1v1h-1zm1 1h1v1h-1z"/><path fill="#c41cef" fill-rule="evenodd" d="M32 0h1v9h-1zm1 12h1v4h-1zm1 6h1v3h-1zm1 4h1v2h-1zm1 3h1v2h-1zm1 2h1v2h-1zm1 3h1v2h-1zm1 2h1v2h-1zm1 2h1v1h-1zm1 2h1v1h-1zm1 1h1v2h-1zm1 2h1v1h-1zm1 2h1v1h-1zm1 1h1v1h-1zm1 1h1v1h-1zm1 1h1v2h-1zm1 2h1v1h-1zm1 1h1v1h-1z"/><path fill="#c51bef" fill-rule="evenodd" d="M33 0h1v11h-1zm1 14h1v3h-1zm1 5h1v2h-1zm1 3h1v3h-1zm1 3h1v2h-1zm1 3h1v2h-1zm1 2h1v2h-1zm1 2h1v2h-1zm1 2h1v2h-1zm1 2h1v1h-1zm1 2h1v1h-1zm1 1h1v1h-1zm1 2h1v1h-1zm1 1h1v1h-1zm1 1h1v1h-1zm1 2h1v1h-1zm1 1h1v1h-1zm1 1h1v1h-1z"/><path fill="#c61aef" fill-rule="evenodd" d="M34 0h1v12h-1zm1 15h1v2h-1zm1 5h1v1h-1zm1 3h1v2h-1zm1 3h1v1h-1zm1 2h1v2h-1zm1 3h1v1h-1zm1 2h1v1h-1zm1 2h1v1h-1zm1 1h1v1h-1zm1 2h1v1h-1zm1 1h1v1h-1zm1 2h1v1h-1zm1 1h1v1h-1zm1 1h1v1h-1z"/><path fill="#c819ee" fill-rule="evenodd" d="M35 0h1v10h-1zm1 12h1v4h-1zm1 6h1v3h-1zm1 4h1v2h-1zm1 3h1v2h-1zm1 2h1v2h-1zm1 3h1v1h-1zm1 2h1v1h-1zm1 1h1v2h-1zm1 2h1v2h-1zm1 2h1v1h-1zm1 1h1v2h-1zm1 2h1v1h-1zm1 1h1v1h-1zm1 1h1v1h-1zm1 2h1v1h-1zm1 1h1v1h-1z"/><path fill="#c918ee" fill-rule="evenodd" d="M36 0h1v12h-1zm1 14h1v4h-1zm1 5h1v2h-1zm1 3h1v2h-1zm1 3h1v2h-1zm1 3h1v1h-1zm1 2h1v1h-1zm1 2h1v1h-1zm1 2h1v1h-1zm1 1h1v2h-1zm1 2h1v1h-1zm1 1h1v2h-1zm1 2h1v1h-1zm1 1h1v1h-1zm1 1h1v1h-1zm1 2h1v1h-1z"/><path fill="#ca17ee" fill-rule="evenodd" d="M37 0h1v2h-1zm0 6h1v7h-1zm1 9h1v3h-1zm1 5h1v2h-1zm1 3h1v2h-1zm1 3h1v1h-1zm1 2h1v1h-1zm1 2h1v1h-1zm1 2h1v1h-1zm1 2h1v1h-1zm1 2h1v1h-1zm1 1h1v1h-1zm1 2h1v1h-1zm1 1h1v1h-1zm1 1h1v1h-1zm1 1h1v1h-1z"/><path fill="#cc16ed" fill-rule="evenodd" d="M38 0h1v10h-1zm1 13h1v3h-1zm1 5h1v2h-1zm1 4h1v2h-1zm1 3h1v1h-1zm1 2h1v1h-1zm1 2h1v2h-1zm1 2h1v1h-1zm1 2h1v1h-1zm1 2h1v1h-1zm1 1h1v1h-1zm1 2h1v1h-1zm1 1h1v1h-1zm1 1h1v1h-1zm2 3h1v1h-1z"/><path fill="#cd15ed" fill-rule="evenodd" d="M39 0h1v12h-1zm1 14h1v4h-1zm1 4h1v3h-1zm1 4h1v2h-1zm1 3h1v2h-1zm1 2h1v2h-1zm1 2h1v2h-1zm1 2h1v2h-1zm1 2h1v1h-1zm1 2h1v1h-1zm1 1h1v1h-1zm1 2h1v1h-1zm1 1h1v1h-1zm1 1h1v1h-1zm1 1h1v1h-1zm1 1h1v2h-1z"/><path fill="#cf14ed" fill-rule="evenodd" d="M40 0h1v8h-1zm1 14h1v1h-1zm2 8h1v1h-1zm2 5h1v1h-1zm1 2h1v1h-1zm3 5h1v1h-1zm2 3h1v1h-1z"/><path fill="#d013ec" fill-rule="evenodd" d="M41 0h1v8h-1zm1 14h1v1h-1zm2 8h1v1h-1zm6 12h1v1h-1zm3 4h1v1h-1z"/><path fill="#d112ec" fill-rule="evenodd" d="M42 0h1v3h-1zm0 5h1v8h-1zm1 10h1v2h-1zm1 4h1v2h-1zm1 3h1v2h-1zm1 3h1v1h-1zm1 2h1v1h-1zm1 2h1v1h-1zm1 2h1v1h-1zm1 1h1v2h-1zm1 2h1v1h-1zm1 1h1v2h-1zm1 2h1v1h-1zm1 1h1v1h-1zm1 1h1v1h-1zm1 1h1v1h-1z"/><path fill="#d211eb" fill-rule="evenodd" d="M43 0h1v1h-1zm0 7h1v3h-1zm1 8h1v1h-1zm1 4h1v1h-1zm1 3h1v1h-1zm5 10h1v1h-1zm2 3h1v1h-1zm3 4h1v1h-1z"/><path fill="#d312e8" fill-rule="evenodd" d="M44 0h1v1h-1zm0 7h1v3h-1zm1 8h1v1h-1zm3 9h1v1h-1zm3 6h1v1h-1zm4 6h1v1h-1z"/><path fill="#d313e5" fill-rule="evenodd" d="M45 0h1v1h-1zm0 8h1v1h-1zm5 18h1v1h-1zm1 2h1v1h-1zm7 10h1v1h-1z"/><path fill="#d415e2" fill-rule="evenodd" d="M46 0h1v8h-1zm1 13h1v2h-1zm1 4h1v2h-1zm1 4h1v1h-1zm1 2h1v1h-1zm1 2h1v1h-1zm1 2h1v1h-1zm1 2h1v1h-1zm1 2h1v1h-1zm1 1h1v1h-1zm2 3h1v1h-1zm1 1h1v1h-1zm1 1h1v1h-1z"/><path fill="#d416e0" fill-rule="evenodd" d="M47 0h1v1h-1zm0 7h1v1h-1zm1 7h1v1h-1zm1 4h1v1h-1zm1 3h1v1h-1zm9 15h1v1h-1z"/><path fill="#d517dd" fill-rule="evenodd" d="M48 0h1v9h-1zm1 14h1v1h-1zm1 4h1v1h-1zm2 5h1v1h-1zm1 2h1v1h-1zm1 2h1v1h-1zm1 2h1v1h-1zm2 3h1v1h-1zm1 1h1v1h-1z"/><path fill="#d518da" fill-rule="evenodd" d="M49 0h1v1h-1zm0 7h1v2h-1zm1 7h1v1h-1zm1 4h1v1h-1zm2 5h1v1h-1zm1 2h1v1h-1zm1 2h1v1h-1zm4 6h1v1h-1z"/><path fill="#d619d7" fill-rule="evenodd" d="M50 0h1v8h-1zm1 13h1v2h-1zm1 4h1v1h-1zm1 3h1v1h-1zm4 8h1v1h-1zm2 3h1v1h-1z"/><path fill="#d71ad5" fill-rule="evenodd" d="M51 0h1v1h-1zm0 8h1v1h-1zm1 6h1v1h-1zm6 14h1v1h-1zm2 3h1v1h-1z"/><path fill="#d71bd2" fill-rule="evenodd" d="M52 0h1v2h-1zm0 6h1v3h-1zm1 8h1v1h-1zm1 3h1v1h-1zm1 3h1v1h-1zm3 6h1v1h-1zm1 2h1v1h-1zm3 4h1v1h-1zm1 1h1v1h-1z"/><path fill="#d81ccf" fill-rule="evenodd" d="M53 0h1v10h-1zm1 13h1v2h-1zm1 4h1v1h-1zm1 3h1v1h-1zm1 2h1v1h-1zm1 2h1v1h-1zm1 2h1v1h-1zm2 3h1v1h-1zm1 1h1v1h-1z"/><path fill="#d81dcc" fill-rule="evenodd" d="M54 0h1v9h-1zm1 13h1v1h-1zm1 4h1v1h-1zm1 2h1v1h-1zm1 3h1v1h-1zm1 2h1v1h-1zm2 3h1v1h-1zm2 3h1v1h-1zm1 1h1v1h-1z"/><path fill="#d91ec9" fill-rule="evenodd" d="M55 0h1v8h-1zm1 12h1v2h-1zm1 4h1v1h-1zm1 3h1v1h-1zm1 2h1v1h-1zm1 2h1v1h-1zm1 2h1v1h-1zm2 3h1v1h-1z"/><path fill="#d91fc7" fill-rule="evenodd" d="M56 0h1v1h-1zm0 7h1v3h-1zm1 7h1v1h-1zm1 3h1v1h-1zm2 5h1v1h-1zm2 3h1v1h-1zm1 2h1v1h-1zm1 1h1v1h-1z"/><path fill="#da20c4" fill-rule="evenodd" d="M57 0h1v2h-1zm0 6h1v4h-1zm1 7h1v2h-1zm1 4h1v1h-1zm1 2h1v1h-1zm1 2h1v1h-1zm1 2h1v1h-1zm1 2h1v1h-1zm3 4h1v1h-1z"/><path fill="#da21c1" fill-rule="evenodd" d="M58 0h1v9h-1zm1 13h1v1h-1zm1 3h1v1h-1zm1 3h1v1h-1zm1 2h1v1h-1zm1 2h1v1h-1zm2 3h1v1h-1zm1 1h1v1h-1z"/><path fill="#db22be" fill-rule="evenodd" d="M59 0h1v8h-1zm1 12h1v2h-1zm1 4h1v1h-1zm1 2h1v1h-1zm2 4h1v1h-1zm1 2h1v1h-1zm2 3h1v1h-1zm1 1h1v1h-1z"/><path fill="#db23bc" fill-rule="evenodd" d="M60 0h1v1h-1zm0 8h1v2h-1zm1 5h1v2h-1zm1 3h1v1h-1zm1 3h1v1h-1zm1 2h1v1h-1zm2 3h1v1h-1zm2 3h1v1h-1zm1 1h1v1h-1z"/><path fill="#dc24b9" fill-rule="evenodd" d="M61 0h1v1h-1zm0 7h1v3h-1zm1 6h1v1h-1zm1 3h1v1h-1zm3 6h1v1h-1zm1 2h1v1h-1zm1 1h1v1h-1z"/><path fill="#dd25b6" fill-rule="evenodd" d="M62 0h1v3h-1zm0 5h1v3h-1zm1 7h1v1h-1zm2 6h1v1h-1zm1 2h1v1h-1zm2 3h1v1h-1z"/><path fill="#dd26b3" fill-rule="evenodd" d="M63 0h1v9h-1zm1 12h1v1h-1zm1 3h1v1h-1zm1 3h1v1h-1zm1 2h1v1h-1zm2 3h1v1h-1zm1 1h1v1h-1z"/><path fill="#de27b0" fill-rule="evenodd" d="M64 0h1v8h-1zm1 12h1v1h-1zm1 3h1v1h-1zm1 2h1v1h-1zm1 2h1v1h-1zm1 2h1v1h-1zm2 3h1v1h-1zm1 1h1v1h-1z"/><path fill="#de28ae" fill-rule="evenodd" d="M65 0h1v1h-1zm0 7h1v3h-1zm1 6h1v1h-1zm2 5h1v1h-1zm2 3h1v1h-1zm2 3h1v1h-1z"/><path fill="#df29ab" fill-rule="evenodd" d="M66 0h1v2h-1zm0 6h1v3h-1zm1 6h1v1h-1zm1 3h1v1h-1zm1 2h1v1h-1zm1 2h1v1h-1zm1 2h1v1h-1zm1 1h1v1h-1z"/><path fill="#df2aa8" fill-rule="evenodd" d="M67 0h1v4h-1zm0 5h1v4h-1zm1 7h1v1h-1zm1 3h1v1h-1zm1 2h1v1h-1zm1 2h1v1h-1zm1 1h1v1h-1zm2 3h1v1h-1z"/><path fill="#e02ba5" fill-rule="evenodd" d="M68 0h1v8h-1zm1 11h1v2h-1zm1 3h1v1h-1zm2 4h1v1h-1zm1 2h1v1h-1zm1 1h1v1h-1z"/><path fill="#e02ca3" fill-rule="evenodd" d="M69 0h1v1h-1zm0 8h1v2h-1zm1 4h1v1h-1zm1 3h1v1h-1zm1 2h1v1h-1zm2 3h1v1h-1zm1 1h1v1h-1z"/><path fill="#e12da0" fill-rule="evenodd" d="M70 0h1v1h-1zm0 7h1v2h-1zm1 5h1v1h-1zm1 2h1v1h-1zm2 4h1v1h-1zm2 3h1v1h-1z"/><path fill="#e12e9d" fill-rule="evenodd" d="M71 0h1v2h-1zm0 6h1v3h-1zm1 5h1v2h-1zm1 3h1v1h-1zm1 2h1v1h-1zm2 3h1v1h-1zm1 2h1v1h-1z"/><path fill="#e22f9a" fill-rule="evenodd" d="M72 0h1v8h-1zm1 11h1v1h-1zm1 3h1v1h-1zm2 3h1v1h-1z"/><path fill="#e23098" fill-rule="evenodd" d="M73 0h1v1h-1zm0 8h1v2h-1zm1 4h1v1h-1zm1 2h1v1h-1zm1 2h1v1h-1z"/><path fill="#e33195" fill-rule="evenodd" d="M74 0h1v1h-1zm0 7h1v2h-1zm1 4h1v1h-1zm1 3h1v1h-1zm2 3h1v1h-1zm1 1h1v1h-1z"/><path fill="#e43292" fill-rule="evenodd" d="M75 0h1v2h-1zm0 6h1v2h-1zm1 5h1v1h-1zm1 2h1v1h-1zm1 2h1v1h-1z"/><path fill="#e4338f" fill-rule="evenodd" d="M76 0h1v3h-1zm0 6h1v2h-1zm1 5h1v1h-1zm1 2h1v1h-1zm2 3h1v1h-1z"/><path fill="#e5348d" fill-rule="evenodd" d="M77 0h1v1h-1zm1 11h1v1h-1zm1 2h1v1h-1zm2 3h1v1h-1z"/><path fill="#e5358a" fill-rule="evenodd" d="M78 0h1v1h-1zm0 7h1v2h-1zm1 4h1v1h-1zm1 2h1v1h-1z"/><path fill="#e63687" fill-rule="evenodd" d="M79 0h1v2h-1zm0 7h1v1h-1zm1 3h1v1h-1zm2 4h1v1h-1z"/><path fill="#e63784" fill-rule="evenodd" d="M80 0h1v2h-1zm0 6h1v2h-1zm1 4h1v1h-1zm1 2h1v1h-1z"/><path fill="#e73882" fill-rule="evenodd" d="M81 0h1v1h-1zm0 8h1v1h-1zm2 4h1v1h-1z"/><path fill="#e7397f" fill-rule="evenodd" d="M82 0h1v1h-1zm0 7h1v2h-1zm1 3h1v1h-1zm1 2h1v1h-1z"/><path fill="#e83a7c" fill-rule="evenodd" d="M83 0h1v1h-1zm0 7h1v1h-1zm1 3h1v1h-1z"/><path fill="#e83b79" fill-rule="evenodd" d="M84 0h1v1h-1zm0 7h1v1h-1zm2 4h1v1h-1z"/><path fill="#e93c77" fill-rule="evenodd" d="M85 0h1v1h-1zm0 7h1v1h-1zm2 4h1v1h-1z"/><path fill="#e93d74" fill-rule="evenodd" d="M86 0h1v1h-1zm0 7h1v1h-1zm1 2h1v1h-1z"/><path fill="#ea3e72" fill-rule="evenodd" d="M87 0h1v1h-1zm-1 4h1v1h-1zm1 4h1v1h-1z"/><path fill="#ea3f6f" fill-rule="evenodd" d="M88 0h1v1h-1zm0 7h1v1h-1z"/><path fill="#eb406c" fill-rule="evenodd" d="M89 0h1v1h-1zm0 7h1v1h-1z"/><path fill="#eb416a" fill-rule="evenodd" d="M90 0h1v1h-1zm-1 3h1v3h-1zm1 4h1v1h-1z"/><path fill="#ec4268" fill-rule="evenodd" d="M91 0h1v1h-1zm-1 2h1v1h-1zm0 3h1v1h-1z"/><path fill="#ec4365" fill-rule="evenodd" d="M92 0h1v1h-1zm-1 2h1v4h-1z"/><path fill="#ed4363" fill-rule="evenodd" d="M93 0h1v1h-1z"/><path fill="#ed4462" fill-rule="evenodd" d="M94 0h1v1h-1zm0 1v1h-1v-1zm-2 2h1v3h-1z"/><path fill="#ed4461" fill-rule="evenodd" d="M95 0h1v1h-1zm3 0h1v1h-1z"/><path fill="#ed4560" fill-rule="evenodd" d="M96 0h2v1h-2zm-2 1h1v1h-1zm0 1v1h-1v-1z"/><path fill="#be20f1" fill-rule="evenodd" d="M28 1h1v6h-1zm1 14h1v1h-1zm1 5h1v1h-1zm12 25h1v1h-1zm13 13h1v1h-1z"/><path fill="#d212eb" fill-rule="evenodd" d="M43 1h1v2h-1zm0 4h1v2h-1zm1 9h1v1h-1zm3 10h1v1h-1zm3 6h1v1h-1z"/><path fill="#d313e8" fill-rule="evenodd" d="M44 1h1v6h-1zm1 13h1v1h-1zm1 4h1v1h-1zm1 3h1v1h-1zm2 5h1v1h-1zm1 2h1v1h-1zm3 5h1v1h-1zm3 4h1v1h-1zm1 1h1v1h-1z"/><path fill="#d314e5" fill-rule="evenodd" d="M45 1h1v7h-1zm1 12h1v2h-1zm1 5h1v1h-1zm1 3h1v1h-1zm5 10h1v1h-1zm2 3h1v1h-1z"/><path fill="#d416df" fill-rule="evenodd" d="M47 1h1v6h-1zm4 22h1v1h-1zm3 6h1v1h-1zm2 3h1v1h-1zm4 5h1v1h-1z"/><path fill="#d618da" fill-rule="evenodd" d="M49 1h1v6h-1zm1 12h1v1h-1zm1 4h1v1h-1zm1 3h1v1h-1zm5 10h1v1h-1zm3 4h1v1h-1zm1 1h1v1h-1z"/><path fill="#d71ad4" fill-rule="evenodd" d="M51 1h1v7h-1zm1 11h1v2h-1zm1 5h1v1h-1zm1 3h1v1h-1zm1 2h1v1h-1zm1 2h1v1h-1zm1 2h1v1h-1zm2 3h1v1h-1zm2 3h1v1h-1zm1 1h1v1h-1z"/><path fill="#d91fc6" fill-rule="evenodd" d="M56 1h1v6h-1zm1 11h1v2h-1zm1 4h1v1h-1zm1 3h1v1h-1zm1 2h1v1h-1zm1 2h1v1h-1zm2 3h1v1h-1zm2 3h1v1h-1zm1 1h1v1h-1z"/><path fill="#db23bb" fill-rule="evenodd" d="M60 1h1v1h-1zm0 5h1v2h-1z"/><path fill="#dc24b8" fill-rule="evenodd" d="M61 1h1v6h-1zm1 10h1v2h-1zm1 4h1v1h-1zm1 3h1v1h-1zm1 2h1v1h-1zm2 3h1v1h-1zm2 3h1v1h-1zm1 1h1v1h-1z"/><path fill="#de28ad" fill-rule="evenodd" d="M65 1h1v6h-1zm1 10h1v2h-1zm1 3h1v2h-1zm1 3h1v1h-1zm1 2h1v1h-1zm2 3h1v1h-1zm1 1h1v1h-1z"/><path fill="#e02ca2" fill-rule="evenodd" d="M69 1h1v7h-1zm1 10h1v1h-1zm1 3h1v1h-1zm1 2h1v1h-1zm1 2h1v1h-1z"/><path fill="#e12d9f" fill-rule="evenodd" d="M70 1h1v6h-1zm1 10h1v1h-1zm2 5h1v1h-1zm2 3h1v1h-1z"/><path fill="#e33097" fill-rule="evenodd" d="M73 1h1v6h-1zm2 12h1v1h-1zm1 2h1v1h-1zm2 3h1v1h-1z"/><path fill="#e33194" fill-rule="evenodd" d="M74 1h1v6h-1zm2 12h1v1h-1zm1 2h1v1h-1z"/><path fill="#e5348c" fill-rule="evenodd" d="M77 1h1v1h-1zm0 5h1v2h-1zm1 4h1v1h-1z"/><path fill="#e53589" fill-rule="evenodd" d="M78 1h1v1h-1zm0 5h1v1h-1zm1 4h1v1h-1zm2 4h1v1h-1z"/><path fill="#e73881" fill-rule="evenodd" d="M81 1h1v1h-1zm0 6h1v1h-1zm1 3h1v1h-1z"/><path fill="#e7397e" fill-rule="evenodd" d="M82 1h1v1h-1z"/><path fill="#e83b7c" fill-rule="evenodd" d="M83 1h1v1h-1z"/><path fill="#e83c79" fill-rule="evenodd" d="M84 1h1v1h-1zm0 5h1v1h-1zm1 3h1v1h-1z"/><path fill="#e93d76" fill-rule="evenodd" d="M85 1h1v2h-1zm0 5h1v1h-1z"/><path fill="#e93e73" fill-rule="evenodd" d="M86 1h1v1h-1z"/><path fill="#ea3f71" fill-rule="evenodd" d="M87 1h1v1h-1zm0 5h1v1h-1z"/><path fill="#eb406e" fill-rule="evenodd" d="M88 1h1v1h-1zm0 5h1v1h-1zm1 2h1v1h-1z"/><path fill="#eb406b" fill-rule="evenodd" d="M89 1h1v1h-1z"/><path fill="#ec4169" fill-rule="evenodd" d="M90 1h1v1h-1z"/><path fill="#ec4266" fill-rule="evenodd" d="M91 1h1v1h-1zm0 5h1v1h-1z"/><path fill="#ed4364" fill-rule="evenodd" d="M92 1h1v1h-1z"/><path fill="#ee455e" fill-rule="evenodd" d="M95 1h1v1h-1z"/><path fill="#ee465d" fill-rule="evenodd" d="M96 1h1v1h-1z"/><path fill="#ed465e" fill-rule="evenodd" d="M97 1h1v1h-1z"/><path fill="#9e3af8" fill-rule="evenodd" d="M4 2h1v5h-1zm1 11h1v5h-1zm1 7h1v3h-1zm1 5h1v3h-1zm1 4h1v2h-1zm1 3h1v2h-1zm1 3h1v2h-1zm1 3h1v1h-1zm1 2h1v2h-1zm1 3h1v1h-1zm1 2h1v1h-1zm1 2h1v1h-1zm1 1h1v2h-1zm1 2h1v1h-1zm1 2h1v1h-1zm1 2h1v1h-1zm1 1h1v1h-1zm1 1h1v1h-1zm1 2h1v1h-1zm1 1h1v1h-1zm2 3h1v1h-1zm1 1h1v1h-1zm1 1h1v1h-1zm1 1h1v1h-1zm1 1h1v1h-1zm1 1h1v1h-1zm3 3h1v1h-1zm1 1h1v1h-1zm1 1h1v1h-1zm1 1h1v1h-1zm1 1h1v1h-1zm1 1h1v1h-1zm2 1h1v1h-1zm1 1h1v1h-1zm1 1h1v1h-1zm2 1h1v1h-1zm1 1h1v1h-1zm2 1h1v1h-1zm1 1h1v1h-1zm2 1h1v1h-1zm2 1h1v1h-1zm1 1h2v1h-2zm2 1h2v1h-2zm2 1h2v1h-2zm3 1h1v1h-1zm2 1h1v1h-1zm2 1h2v1h-2zm3 1h2v1h-2zm3 1h3v1h-3zm4 1h3v1h-3zm4 1h4v1h-4zm6 1h6v1h-6z"/><path fill="#aa30f5" fill-rule="evenodd" d="M13 2h1v4h-1zm1 11h1v4h-1zm1 7h1v2h-1zm1 4h1v2h-1zm1 4h1v2h-1zm1 3h1v2h-1zm1 3h1v1h-1zm1 2h1v2h-1zm1 3h1v1h-1zm1 2h1v1h-1zm1 2h1v1h-1zm1 1h1v2h-1zm1 2h1v1h-1zm1 2h1v1h-1zm1 1h1v1h-1zm1 2h1v1h-1zm1 1h1v1h-1zm1 2h1v1h-1zm1 1h1v1h-1zm1 1h1v1h-1zm1 1h1v1h-1zm2 3h1v1h-1zm1 1h1v1h-1zm1 1h1v1h-1zm1 1h1v1h-1zm1 1h1v1h-1zm4 3h1v1h-1zm1 1h1v1h-1zm1 1h1v1h-1zm3 2h1v1h-1zm1 1h1v1h-1zm2 1h1v1h-1zm1 1h1v1h-1zm2 1h1v1h-1zm2 1h1v1h-1zm1 1h2v1h-2zm2 1h2v1h-2zm2 1h2v1h-2zm3 1h1v1h-1zm2 1h2v1h-2zm3 1h1v1h-1zm3 1h2v1h-2zm3 1h2v1h-2zm4 1h3v1h-3z"/><path fill="#ad2ef5" fill-rule="evenodd" d="M15 2h1v5h-1zm1 13h1v2h-1zm1 6h1v1h-1zm1 4h1v1h-1zm2 6h1v1h-1zm1 3h1v1h-1zm5 10h1v1h-1zm1 2h1v1h-1zm2 3h1v1h-1zm2 3h1v1h-1zm1 1h1v1h-1zm3 4h1v1h-1zm1 1h1v1h-1zm1 1h1v1h-1zm1 1h1v1h-1zm1 1h1v1h-1zm1 1h1v1h-1zm1 1h1v1h-1zm1 1h1v1h-1zm5 4h1v1h-1zm4 3h1v1h-1zm3 2h1v1h-1zm2 1h1v1h-1zm2 1h1v1h-1zm4 2h1v1h-1zm2 1h1v1h-1zm2 1h1v1h-1zm3 1h1v1h-1zm3 1h1v1h-1zm3 1h2v1h-2zm5 1h1v1h-1z"/><path fill="#bc23f1" fill-rule="evenodd" d="M26 2h1v5h-1zm1 13h1v1h-1zm1 5h1v1h-1zm1 4h1v1h-1zm1 3h1v1h-1zm2 5h1v1h-1zm1 2h1v1h-1zm1 2h1v1h-1zm1 2h1v1h-1zm6 9h1v1h-1zm23 19h1v1h-1z"/><path fill="#cb17ee" fill-rule="evenodd" d="M37 2h1v4h-1zm1 11h1v2h-1zm1 5h1v2h-1zm1 4h1v1h-1zm1 3h1v1h-1zm1 2h1v1h-1zm1 2h1v1h-1zm1 2h1v1h-1zm1 2h1v1h-1zm1 2h1v1h-1zm1 1h1v1h-1zm1 2h1v1h-1zm1 1h1v1h-1zm3 4h1v1h-1z"/><path fill="#d71bd1" fill-rule="evenodd" d="M52 2h1v4h-1zm1 10h1v2h-1zm1 4h1v1h-1zm1 3h1v1h-1zm1 3h1v1h-1zm1 2h1v1h-1zm2 3h1v1h-1zm1 2h1v1h-1zm1 1h1v1h-1z"/><path fill="#da20c3" fill-rule="evenodd" d="M57 2h1v4h-1zm1 9h1v2h-1zm1 4h1v2h-1zm1 3h1v1h-1zm3 6h1v1h-1zm1 2h1v1h-1zm1 1h1v1h-1z"/><path fill="#dc23bb" fill-rule="evenodd" d="M60 2h1v4h-1zm1 10h1v1h-1zm1 3h1v1h-1zm1 3h1v1h-1zm1 2h1v1h-1zm1 2h1v1h-1zm2 3h1v1h-1zm1 1h1v1h-1z"/><path fill="#df29aa" fill-rule="evenodd" d="M66 2h1v4h-1zm1 9h1v1h-1zm1 3h1v1h-1zm3 6h1v1h-1zm2 3h1v1h-1z"/><path fill="#e12e9c" fill-rule="evenodd" d="M71 2h1v1h-1zm0 3h1v1h-1zm6 15h1v1h-1z"/><path fill="#e43291" fill-rule="evenodd" d="M75 2h1v1h-1zm0 3h1v1h-1z"/><path fill="#e5358c" fill-rule="evenodd" d="M77 2h1v4h-1zm3 12h1v1h-1z"/><path fill="#e53689" fill-rule="evenodd" d="M78 2h1v4h-1zm2 10h1v1h-1zm2 3h1v1h-1z"/><path fill="#e63786" fill-rule="evenodd" d="M79 2h1v4h-1zm1 7h1v1h-1zm2 4h1v1h-1z"/><path fill="#e63883" fill-rule="evenodd" d="M80 2h1v4h-1zm1 7h1v1h-1zm1 2h1v1h-1zm1 2h1v1h-1z"/><path fill="#e73981" fill-rule="evenodd" d="M81 2h1v1h-1zm0 3h1v2h-1zm3 8h1v1h-1z"/><path fill="#e73a7e" fill-rule="evenodd" d="M82 2h1v5h-1zm1 7h1v1h-1zm1 2h1v1h-1z"/><path fill="#e83b7b" fill-rule="evenodd" d="M83 2h1v5h-1zm1 7h1v1h-1zm1 2h1v1h-1z"/><path fill="#e93c78" fill-rule="evenodd" d="M84 2h1v4h-1zm1 6h1v1h-1zm1 2h1v1h-1z"/><path fill="#ea3e73" fill-rule="evenodd" d="M86 2h1v2h-1zm0 3h1v2h-1z"/><path fill="#ea3f70" fill-rule="evenodd" d="M87 2h1v4h-1zm1 6h1v1h-1z"/><path fill="#eb406d" fill-rule="evenodd" d="M88 2h1v4h-1z"/><path fill="#eb416b" fill-rule="evenodd" d="M89 2h1v1h-1zm0 4h1v1h-1z"/><path fill="#ed4463" fill-rule="evenodd" d="M92 2h1v1h-1z"/><path fill="#ee465e" fill-rule="evenodd" d="M94 2h1v1h-1z"/><path fill="#ee465c" fill-rule="evenodd" d="M95 2h1v1h-1zm0 1v1h-1v-1z"/><path fill="#ed475b" fill-rule="evenodd" d="M96 2h1v1h-1z"/><path fill="#d111ec" fill-rule="evenodd" d="M42 3h1v2h-1zm1 11h1v1h-1zm1 4h1v1h-1zm2 6h1v1h-1z"/><path fill="#d212ea" fill-rule="evenodd" d="M43 3h1v2h-1zm1 9h1v2h-1zm1 5h1v2h-1zm1 4h1v1h-1zm1 2h1v1h-1zm1 3h1v1h-1zm1 2h1v1h-1zm2 3h1v1h-1zm1 2h1v1h-1zm2 3h1v1h-1zm1 1h1v1h-1zm1 1h1v1h-1z"/><path fill="#dd25b5" fill-rule="evenodd" d="M62 3h1v2h-1zm1 8h1v1h-1zm1 4h1v1h-1zm1 2h1v1h-1zm1 2h1v1h-1zm1 2h1v1h-1zm2 3h1v1h-1zm2 3h1v1h-1z"/><path fill="#e22e9c" fill-rule="evenodd" d="M71 3h1v2h-1z"/><path fill="#e43391" fill-rule="evenodd" d="M75 3h1v2h-1zm1 7h1v1h-1zm3 6h1v1h-1zm1 1h1v1h-1z"/><path fill="#e4348e" fill-rule="evenodd" d="M76 3h1v2h-1zm1 6h1v2h-1zm1 3h1v1h-1zm1 2h1v1h-1z"/><path fill="#e73980" fill-rule="evenodd" d="M81 3h1v2h-1zm1 6h1v1h-1zm1 2h1v1h-1z"/><path fill="#e93d75" fill-rule="evenodd" d="M85 3h1v3h-1zm1 5h1v1h-1zm1 2h1v1h-1z"/><path fill="#ec4267" fill-rule="evenodd" d="M90 3h1v2h-1z"/><path fill="#ed455f" fill-rule="evenodd" d="M93 3h1v2h-1z"/><path fill="#ed465a" fill-rule="evenodd" d="M95 3h1v1h-1z"/><path fill="#df2aa7" fill-rule="evenodd" d="M67 4h1v1h-1zm1 7h1v1h-1zm1 3h1v1h-1zm2 4h1v1h-1zm2 3h1v1h-1z"/><path fill="#ed455c" fill-rule="evenodd" d="M94 4h1v1h-1z"/><path fill="#e4348f" fill-rule="evenodd" d="M76 5h1v1h-1z"/><path fill="#ec4460" fill-rule="evenodd" d="M93 5h1v1h-1z"/><path fill="#e63686" fill-rule="evenodd" d="M79 6h1v1h-1zm2 6h1v1h-1zm2 3h1v1h-1z"/><path fill="#ec4269" fill-rule="evenodd" d="M90 6h1v1h-1z"/><path fill="#ec4264" fill-rule="evenodd" d="M92 6h1v1h-1z"/><path fill="#e23097" fill-rule="evenodd" d="M73 7h1v1h-1zm1 4h1v1h-1zm3 6h1v1h-1z"/><path fill="#ea3e71" fill-rule="evenodd" d="M87 7h1v1h-1zm1 2h1v1h-1z"/><path fill="#ec4167" fill-rule="evenodd" d="M91 7h1v1h-1z"/><path fill="#a137f7" fill-rule="evenodd" d="M7 8h1v6h-1zm1 10h1v3h-1zm1 5h1v2h-1zm1 4h1v2h-1zm1 4h1v1h-1zm1 3h1v1h-1zm1 3h1v1h-1zm1 2h1v1h-1zm1 2h1v1h-1zm1 2h1v1h-1zm1 2h1v1h-1zm1 2h1v1h-1zm1 2h1v1h-1zm1 2h1v1h-1zm1 1h1v1h-1zm1 2h1v1h-1zm1 1h1v1h-1zm2 3h1v1h-1zm1 1h1v1h-1zm3 4h1v1h-1zm1 1h1v1h-1zm1 1h1v1h-1zm1 1h1v1h-1zm1 1h1v1h-1zm1 1h1v1h-1zm1 1h1v1h-1zm1 1h1v1h-1zm1 1h1v1h-1zm3 2h1v1h-1zm1 1h1v1h-1zm1 1h1v1h-1zm3 2h1v1h-1zm1 1h1v1h-1zm2 1h1v1h-1zm3 2h1v1h-1zm2 1h1v1h-1zm2 1h1v1h-1zm2 1h1v1h-1zm2 1h1v1h-1zm2 1h1v1h-1zm2 1h2v1h-2zm3 1h2v1h-2zm3 1h2v1h-2zm3 1h2v1h-2zm4 1h2v1h-2zm5 1h3v1h-3zm8 1h4v1h-4z"/><path fill="#ab30f5" fill-rule="evenodd" d="M14 8h1v5h-1zm1 9h1v3h-1zm1 6h1v1h-1zm1 3h1v2h-1zm1 4h1v1h-1zm1 3h1v1h-1zm1 2h1v1h-1zm1 3h1v1h-1zm1 2h1v1h-1zm1 2h1v1h-1zm2 3h1v1h-1zm1 2h1v1h-1zm2 3h1v1h-1zm2 3h1v1h-1zm1 1h1v1h-1zm3 4h1v1h-1zm1 1h1v1h-1zm1 1h1v1h-1zm1 1h1v1h-1zm1 1h1v1h-1zm1 1h1v1h-1zm1 1h1v1h-1zm1 1h1v1h-1zm1 1h1v1h-1zm4 3h1v1h-1zm1 1h1v1h-1zm3 2h1v1h-1zm3 2h1v1h-1zm2 1h1v1h-1zm2 1h1v1h-1zm4 2h1v1h-1zm2 1h1v1h-1zm2 1h1v1h-1zm3 1h1v1h-1zm2 1h2v1h-2zm4 1h1v1h-1zm3 1h2v1h-2zm5 1h2v1h-2z"/><path fill="#b02bf4" fill-rule="evenodd" d="M18 8h1v4h-1zm1 9h1v2h-1zm1 5h1v1h-1zm1 4h1v1h-1zm1 3h1v1h-1zm1 3h1v1h-1zm1 2h1v1h-1zm5 10h1v1h-1zm2 3h1v1h-1zm2 3h1v1h-1zm3 4h1v1h-1zm1 1h1v1h-1zm1 1h1v1h-1zm6 6h1v1h-1zm1 1h1v1h-1zm1 1h1v1h-1zm4 3h1v1h-1zm3 2h1v1h-1zm3 2h1v1h-1zm2 1h1v1h-1zm6 3h1v1h-1zm2 1h1v1h-1zm9 3h1v1h-1zm3 1h1v1h-1z"/><path fill="#bf20f0" fill-rule="evenodd" d="M29 8h1v7h-1zm1 8h1v4h-1zm1 5h1v3h-1zm1 3h1v3h-1zm1 3h1v2h-1zm1 3h1v2h-1zm1 2h1v2h-1zm1 2h1v2h-1zm1 2h1v2h-1zm1 2h1v1h-1zm1 2h1v1h-1zm1 1h1v1h-1zm1 2h1v1h-1zm1 1h1v1h-1zm1 1h1v2h-1zm1 2h1v1h-1zm1 1h1v1h-1zm1 1h1v1h-1zm1 1h1v1h-1zm1 1h1v1h-1zm1 1h1v1h-1zm1 1h1v1h-1zm1 1h1v1h-1zm1 1h1v1h-1zm1 1h1v1h-1zm2 1h1v1h-1zm1 1h1v1h-1zm1 1h1v1h-1z"/><path fill="#ce14ed" fill-rule="evenodd" d="M40 8h1v6h-1zm1 7h1v3h-1zm1 4h1v3h-1zm1 4h1v2h-1zm1 2h1v2h-1zm1 3h1v1h-1zm1 2h1v1h-1zm1 1h1v2h-1zm1 2h1v2h-1zm1 2h1v1h-1zm1 1h1v2h-1zm1 2h1v1h-1zm1 1h1v1h-1zm1 1h1v1h-1zm1 1h1v1h-1z"/><path fill="#d013ed" fill-rule="evenodd" d="M41 8h1v3h-1zm1 7h1v1h-1zm1 4h1v1h-1zm2 6h1v1h-1zm1 2h1v1h-1zm1 2h1v1h-1zm1 2h1v1h-1zm4 6h1v1h-1z"/><path fill="#d414e3" fill-rule="evenodd" d="M46 8h1v3h-1zm1 7h1v1h-1zm1 4h1v1h-1zm1 3h1v1h-1zm1 2h1v1h-1zm1 2h1v1h-1zm1 2h1v1h-1zm1 2h1v1h-1zm2 3h1v1h-1zm1 1h1v1h-1zm3 4h1v1h-1z"/><path fill="#d415e0" fill-rule="evenodd" d="M47 8h1v3h-1zm1 7h1v1h-1zm3 9h1v1h-1zm1 2h1v1h-1zm1 2h1v1h-1zm2 3h1v1h-1zm2 3h1v1h-1zm1 1h1v1h-1z"/><path fill="#d619d8" fill-rule="evenodd" d="M50 8h1v1h-1zm4 15h1v1h-1zm1 2h1v1h-1zm3 5h1v1h-1z"/><path fill="#d91eca" fill-rule="evenodd" d="M55 8h1v2h-1zm1 6h1v1h-1zm1 3h1v1h-1zm1 3h1v1h-1zm1 2h1v1h-1zm1 2h1v1h-1zm2 3h1v1h-1zm3 4h1v1h-1z"/><path fill="#db22bf" fill-rule="evenodd" d="M59 8h1v2h-1zm1 6h1v1h-1zm1 3h1v1h-1zm1 2h1v1h-1zm1 2h1v1h-1zm1 2h1v1h-1zm2 3h1v1h-1z"/><path fill="#dc25b6" fill-rule="evenodd" d="M62 8h1v1h-1zm1 5h1v1h-1zm1 3h1v1h-1zm3 6h1v1h-1zm3 4h1v1h-1z"/><path fill="#de27b1" fill-rule="evenodd" d="M64 8h1v1h-1zm3 10h1v1h-1z"/><path fill="#e02ba6" fill-rule="evenodd" d="M68 8h1v2h-1zm1 5h1v1h-1zm1 2h1v1h-1zm1 2h1v1h-1zm1 2h1v1h-1zm2 3h1v1h-1z"/><path fill="#e22f9b" fill-rule="evenodd" d="M72 8h1v2h-1zm1 4h1v1h-1zm2 4h1v1h-1zm1 2h1v1h-1zm1 1h1v1h-1z"/><path fill="#e33292" fill-rule="evenodd" d="M75 8h1v1h-1z"/><path fill="#e43390" fill-rule="evenodd" d="M76 8h1v2h-1zm1 4h1v1h-1zm1 2h1v1h-1zm1 1h1v1h-1z"/><path fill="#e4348d" fill-rule="evenodd" d="M77 8h1v1h-1zm3 7h1v1h-1z"/><path fill="#e63688" fill-rule="evenodd" d="M79 8h1v1h-1zm1 3h1v1h-1z"/><path fill="#e63785" fill-rule="evenodd" d="M80 8h1v1h-1zm1 3h1v1h-1zm2 3h1v1h-1z"/><path fill="#e83a7d" fill-rule="evenodd" d="M83 8h1v1h-1zm2 4h1v1h-1z"/><path fill="#e83b7a" fill-rule="evenodd" d="M84 8h1v1h-1zm1 2h1v1h-1z"/><path fill="#eb406a" fill-rule="evenodd" d="M90 8h1v1h-1z"/><path fill="#983ff9" fill-rule="evenodd" d="M0 9h1v4h-1zm1 10h1v2h-1zm1 5h1v2h-1zm1 4h1v2h-1zm1 4h1v1h-1zm1 3h1v1h-1zm1 3h1v1h-1zm1 2h1v1h-1zm1 3h1v1h-1zm1 2h1v1h-1zm1 2h1v1h-1zm1 2h1v1h-1zm1 2h1v1h-1zm2 3h1v1h-1zm2 3h1v1h-1zm2 3h1v1h-1zm2 3h1v1h-1zm1 1h1v1h-1zm6 7h1v1h-1zm1 1h1v1h-1zm1 1h1v1h-1zm6 5h1v1h-1zm1 1h1v1h-1zm4 3h1v1h-1zm3 2h1v1h-1zm3 2h1v1h-1zm7 4h1v1h-1zm7 3h1v1h-1zm5 2h1v1h-1zm3 1h1v1h-1zm4 1h1v1h-1zm4 1h2v1h-2zm5 1h2v1h-2z"/><path fill="#a534f6" fill-rule="evenodd" d="M10 9h1v7h-1zm1 9h1v4h-1zm1 5h1v3h-1zm1 4h1v2h-1zm1 4h1v2h-1zm1 3h1v1h-1zm1 2h1v2h-1zm1 3h1v1h-1zm1 2h1v1h-1zm1 2h1v1h-1zm1 2h1v1h-1zm1 2h1v1h-1zm1 1h1v1h-1zm1 2h1v1h-1zm1 1h1v2h-1zm1 2h1v1h-1zm1 1h1v1h-1zm1 2h1v1h-1zm1 1h1v1h-1zm1 1h1v1h-1zm1 2h1v1h-1zm1 1h1v1h-1zm1 1h1v1h-1zm1 1h1v1h-1zm1 1h1v1h-1zm1 1h1v1h-1zm1 1h1v1h-1zm1 1h1v1h-1zm1 1h1v1h-1zm1 1h1v1h-1zm3 2h1v1h-1zm1 1h1v1h-1zm1 1h1v1h-1zm2 1h1v1h-1zm1 1h1v1h-1zm2 1h1v1h-1zm1 1h1v1h-1zm2 1h1v1h-1zm1 1h2v1h-2zm2 1h1v1h-1zm2 1h1v1h-1zm2 1h1v1h-1zm2 1h2v1h-2zm3 1h1v1h-1zm2 1h2v1h-2zm3 1h2v1h-2zm3 1h2v1h-2zm4 1h2v1h-2zm4 1h4v1h-4zm7 1h3v1h-3z"/><path fill="#ac2ff5" fill-rule="evenodd" d="M15 9h1v6h-1zm1 9h1v3h-1zm1 5h1v2h-1zm1 4h1v2h-1zm1 3h1v2h-1zm1 3h1v1h-1zm1 2h1v2h-1zm1 2h1v2h-1zm1 3h1v1h-1zm1 2h1v1h-1zm1 1h1v2h-1zm1 2h1v1h-1zm1 2h1v1h-1zm1 1h1v2h-1zm1 2h1v1h-1zm1 1h1v1h-1zm1 2h1v1h-1zm1 1h1v1h-1zm1 1h1v1h-1zm2 3h1v1h-1zm1 1h1v1h-1zm1 1h1v1h-1zm1 1h1v1h-1zm1 1h1v1h-1zm1 1h1v1h-1zm1 1h1v1h-1zm1 1h1v1h-1zm3 2h1v1h-1zm1 1h1v1h-1zm1 1h1v1h-1zm2 1h1v1h-1zm1 1h1v1h-1zm2 1h1v1h-1zm1 1h1v1h-1zm2 1h1v1h-1zm1 1h2v1h-2zm2 1h2v1h-2zm2 1h2v1h-2zm2 1h2v1h-2zm3 1h1v1h-1zm2 1h2v1h-2zm3 1h2v1h-2zm3 1h2v1h-2zm3 1h3v1h-3zm5 1h2v1h-2z"/><path fill="#b428f3" fill-rule="evenodd" d="M21 9h1v4h-1zm1 8h1v2h-1zm1 5h1v2h-1zm1 4h1v1h-1zm1 3h1v1h-1zm1 3h1v1h-1zm1 2h1v1h-1zm1 2h1v1h-1zm1 2h1v1h-1zm1 2h1v1h-1zm1 2h1v1h-1zm2 3h1v1h-1zm2 3h1v1h-1zm1 1h1v1h-1zm2 3h1v1h-1zm1 1h1v1h-1zm1 1h1v1h-1zm1 1h1v1h-1zm1 1h1v1h-1zm1 1h1v1h-1zm1 1h1v1h-1zm1 1h1v1h-1zm1 1h1v1h-1zm1 1h1v1h-1zm1 1h1v1h-1zm3 2h1v1h-1zm1 1h1v1h-1zm3 2h1v1h-1zm2 1h1v1h-1zm3 2h1v1h-1zm2 1h1v1h-1zm2 1h1v1h-1zm2 1h1v1h-1zm3 1h1v1h-1zm2 1h2v1h-2zm3 1h1v1h-1z"/><path fill="#ba24f2" fill-rule="evenodd" d="M25 9h1v4h-1zm1 8h1v2h-1zm1 5h1v1h-1zm1 3h1v1h-1zm1 3h1v1h-1zm1 3h1v1h-1zm1 2h1v1h-1zm1 2h1v1h-1zm1 2h1v1h-1zm1 2h1v1h-1zm2 3h1v1h-1zm1 2h1v1h-1zm1 1h1v1h-1zm2 3h1v1h-1zm1 1h1v1h-1zm9 9h1v1h-1zm1 1h1v1h-1zm1 1h1v1h-1zm3 2h1v1h-1zm3 2h1v1h-1zm3 2h1v1h-1zm2 1h1v1h-1zm2 1h1v1h-1zm2 1h1v1h-1z"/><path fill="#c11ff0" fill-rule="evenodd" d="M30 9h1v2h-1zm1 8h1v1h-1zm1 4h1v1h-1zm1 3h1v1h-1zm1 3h1v1h-1zm2 5h1v1h-1zm1 2h1v1h-1zm3 5h1v1h-1zm2 3h1v1h-1zm3 4h1v1h-1z"/><path fill="#c31cef" fill-rule="evenodd" d="M32 9h1v1h-1zm1 7h1v1h-1zm2 8h1v1h-1zm2 5h1v1h-1zm3 6h1v1h-1zm3 5h1v1h-1zm3 4h1v1h-1z"/><path fill="#d313e6" fill-rule="evenodd" d="M45 9h1v3h-1zm1 6h1v2h-1zm1 4h1v1h-1zm1 3h1v1h-1zm1 2h1v1h-1zm3 6h1v1h-1zm1 2h1v1h-1zm1 1h1v1h-1zm2 3h1v1h-1zm1 1h1v1h-1z"/><path fill="#d516dd" fill-rule="evenodd" d="M48 9h1v1h-1zm3 12h1v1h-1z"/><path fill="#d517db" fill-rule="evenodd" d="M49 9h1v3h-1zm1 6h1v2h-1zm1 4h1v1h-1zm1 2h1v1h-1zm1 3h1v1h-1zm1 2h1v1h-1zm2 3h1v1h-1zm1 2h1v1h-1zm1 1h1v1h-1z"/><path fill="#d618d8" fill-rule="evenodd" d="M50 9h1v2h-1zm1 6h1v1h-1zm1 3h1v1h-1zm1 3h1v1h-1zm3 6h1v1h-1zm1 2h1v1h-1zm3 4h1v1h-1zm1 1h1v1h-1zm1 1h1v1h-1z"/><path fill="#d619d5" fill-rule="evenodd" d="M51 9h1v2h-1zm1 6h1v1h-1zm1 3h1v1h-1zm1 3h1v1h-1zm1 2h1v1h-1zm1 2h1v1h-1zm1 2h1v1h-1zm2 3h1v1h-1z"/><path fill="#d71ad2" fill-rule="evenodd" d="M52 9h1v1h-1zm2 9h1v1h-1zm7 13h1v1h-1z"/><path fill="#d81dcd" fill-rule="evenodd" d="M54 9h1v1h-1zm1 5h1v1h-1zm2 6h1v1h-1zm3 6h1v1h-1z"/><path fill="#da21c2" fill-rule="evenodd" d="M58 9h1v1h-1zm1 5h1v1h-1zm1 3h1v1h-1zm4 8h1v1h-1z"/><path fill="#dc25b7" fill-rule="evenodd" d="M62 9h1v2h-1zm1 5h1v1h-1zm2 5h1v1h-1zm3 5h1v1h-1zm1 1h1v1h-1z"/><path fill="#dd26b4" fill-rule="evenodd" d="M63 9h1v2h-1zm1 4h1v2h-1zm1 3h1v1h-1zm3 6h1v1h-1zm2 3h1v1h-1zm1 1h1v1h-1z"/><path fill="#dd27b1" fill-rule="evenodd" d="M64 9h1v1h-1zm1 4h1v1h-1zm1 3h1v1h-1zm2 4h1v1h-1zm2 3h1v1h-1z"/><path fill="#df29ac" fill-rule="evenodd" d="M66 9h1v1h-1zm1 4h1v1h-1z"/><path fill="#df2aa9" fill-rule="evenodd" d="M67 9h1v2h-1zm1 4h1v1h-1zm1 3h1v1h-1zm1 2h1v1h-1zm2 3h1v1h-1zm1 1h1v1h-1z"/><path fill="#e12da1" fill-rule="evenodd" d="M70 9h1v2h-1zm1 4h1v1h-1zm1 2h1v1h-1zm1 2h1v1h-1zm1 2h1v1h-1zm1 1h1v1h-1z"/><path fill="#e12e9e" fill-rule="evenodd" d="M71 9h1v1h-1zm1 4h1v1h-1zm1 2h1v1h-1zm1 2h1v1h-1zm1 1h1v1h-1z"/><path fill="#e33196" fill-rule="evenodd" d="M74 9h1v2h-1zm1 3h1v1h-1zm2 4h1v1h-1z"/><path fill="#e33293" fill-rule="evenodd" d="M75 9h1v1h-1zm1 3h1v1h-1zm1 2h1v1h-1zm1 2h1v1h-1zm1 1h1v1h-1z"/><path fill="#e5358b" fill-rule="evenodd" d="M78 9h1v1h-1zm1 3h1v1h-1zm2 3h1v1h-1z"/><path fill="#e53688" fill-rule="evenodd" d="M79 9h1v1h-1zm2 4h1v1h-1z"/><path fill="#e93c76" fill-rule="evenodd" d="M86 9h1v1h-1z"/><path fill="#e93e6e" fill-rule="evenodd" d="M89 9h1v1h-1z"/><path fill="#993ef9" fill-rule="evenodd" d="M1 10h1v6h-1zm1 9h1v3h-1zm1 5h1v3h-1zm1 5h1v1h-1zm1 3h1v2h-1zm1 3h1v2h-1zm1 3h1v1h-1zm1 2h1v2h-1zm1 3h1v1h-1zm1 2h1v1h-1zm1 2h1v1h-1zm1 2h1v1h-1zm1 2h1v1h-1zm2 3h1v1h-1zm1 2h1v1h-1zm1 1h1v1h-1zm1 2h1v1h-1zm1 1h1v1h-1zm1 1h1v1h-1zm1 2h1v1h-1zm1 1h1v1h-1zm1 1h1v1h-1zm1 1h1v1h-1zm4 5h1v1h-1zm1 1h1v1h-1zm5 4h1v1h-1zm1 1h1v1h-1zm1 1h1v1h-1zm1 1h1v1h-1zm2 1h1v1h-1zm1 1h1v1h-1zm1 1h1v1h-1zm2 1h1v1h-1zm1 1h1v1h-1zm2 1h1v1h-1zm2 1h1v1h-1zm1 1h1v1h-1zm2 1h1v1h-1zm2 1h1v1h-1zm2 1h1v1h-1zm2 1h1v1h-1zm3 1h1v1h-1zm2 1h1v1h-1zm3 1h1v1h-1zm3 1h1v1h-1zm3 1h2v1h-2zm4 1h2v1h-2zm5 1h3v1h-3zm7 1h12v1h-12z"/><path fill="#a435f7" fill-rule="evenodd" d="M9 10h1v5h-1zm1 8h1v3h-1zm1 5h1v2h-1zm1 4h1v2h-1zm1 4h1v1h-1zm1 3h1v1h-1zm1 2h1v2h-1zm1 3h1v1h-1zm1 2h1v1h-1zm1 2h1v1h-1zm1 2h1v1h-1zm1 2h1v1h-1zm2 3h1v1h-1zm1 2h1v1h-1zm1 1h1v1h-1zm1 2h1v1h-1zm1 1h1v1h-1zm1 1h1v1h-1zm2 3h1v1h-1zm1 1h1v1h-1zm1 1h1v1h-1zm1 1h1v1h-1zm1 1h1v1h-1zm1 1h1v1h-1zm1 1h1v1h-1zm1 1h1v1h-1zm1 1h1v1h-1zm1 1h1v1h-1zm1 1h1v1h-1zm1 1h1v1h-1zm3 2h1v1h-1zm1 1h1v1h-1zm3 2h1v1h-1zm1 1h1v1h-1zm2 1h1v1h-1zm2 1h1v1h-1zm1 1h1v1h-1zm2 1h1v1h-1zm2 1h1v1h-1zm2 1h1v1h-1zm2 1h2v1h-2zm3 1h1v1h-1zm2 1h2v1h-2zm3 1h2v1h-2zm3 1h2v1h-2zm4 1h2v1h-2zm5 1h3v1h-3zm7 1h3v1h-3z"/><path fill="#a931f5" fill-rule="evenodd" d="M13 10h1v7h-1zm1 8h1v4h-1zm1 5h1v3h-1zm1 4h1v3h-1zm1 3h1v3h-1zm1 3h1v2h-1zm1 3h1v2h-1zm1 2h1v2h-1zm1 2h1v2h-1zm1 2h1v2h-1zm1 2h1v2h-1zm1 2h1v1h-1zm1 2h1v1h-1zm1 1h1v2h-1zm1 2h1v1h-1zm1 1h1v1h-1zm1 2h1v1h-1zm1 1h1v1h-1zm1 1h1v1h-1zm1 1h1v2h-1zm1 2h1v1h-1zm1 1h1v1h-1zm1 1h1v1h-1zm1 1h1v1h-1zm1 1h1v1h-1zm1 1h1v1h-1zm1 1h1v1h-1zm1 1h1v1h-1zm1 1h1v1h-1zm2 1h1v1h-1zm1 1h1v1h-1zm1 1h1v1h-1zm1 1h2v1h-2zm2 1h1v1h-1zm1 1h1v1h-1zm2 1h1v1h-1zm1 1h2v1h-2zm2 1h1v1h-1zm2 1h1v1h-1zm1 1h2v1h-2zm2 1h2v1h-2zm2 1h2v1h-2zm3 1h2v1h-2zm2 1h2v1h-2zm3 1h2v1h-2zm3 1h2v1h-2zm3 1h3v1h-3zm5 1h4v1h-4zm5 1h1v1h-1z"/><path fill="#ae2ef4" fill-rule="evenodd" d="M16 10h1v1h-1zm1 8h1v1h-1zm6 19h1v1h-1zm2 4h1v1h-1zm1 2h1v1h-1zm10 14h1v1h-1zm7 7h1v1h-1zm5 4h1v1h-1zm23 12h1v1h-1zm7 2h1v1h-1z"/><path fill="#b825f2" fill-rule="evenodd" d="M24 10h1v4h-1zm1 7h1v3h-1zm1 5h1v2h-1zm1 4h1v1h-1zm1 3h1v1h-1zm1 2h1v1h-1zm1 3h1v1h-1zm1 2h1v1h-1zm1 2h1v1h-1zm1 2h1v1h-1zm1 1h1v1h-1zm1 2h1v1h-1zm1 1h1v1h-1zm1 2h1v1h-1zm1 1h1v1h-1zm2 3h1v1h-1zm1 1h1v1h-1zm1 1h1v1h-1zm1 1h1v1h-1zm1 1h1v1h-1zm1 1h1v1h-1zm1 1h1v1h-1zm1 1h1v1h-1zm1 1h1v1h-1zm1 1h1v1h-1zm1 1h1v1h-1zm2 1h1v1h-1zm1 1h1v1h-1zm1 1h1v1h-1zm2 1h1v1h-1zm1 1h1v1h-1zm2 1h1v1h-1zm2 1h1v1h-1zm1 1h2v1h-2zm2 1h2v1h-2zm3 1h1v1h-1zm2 1h1v1h-1z"/><path fill="#c21ef0" fill-rule="evenodd" d="M31 10h1v3h-1zm1 7h1v2h-1zm1 4h1v2h-1zm1 3h1v2h-1zm1 3h1v1h-1zm1 3h1v1h-1zm1 2h1v1h-1zm1 2h1v1h-1zm1 2h1v1h-1zm2 3h1v1h-1zm2 3h1v1h-1zm3 4h1v1h-1zm1 1h1v1h-1zm1 1h1v1h-1z"/><path fill="#c31def" fill-rule="evenodd" d="M32 10h1v4h-1zm1 7h1v2h-1zm1 4h1v2h-1zm1 4h1v1h-1zm1 2h1v1h-1zm1 3h1v1h-1zm1 2h1v1h-1zm1 2h1v1h-1zm1 2h1v1h-1zm1 1h1v1h-1zm1 2h1v1h-1zm2 3h1v1h-1zm1 1h1v1h-1zm2 3h1v1h-1zm1 1h1v1h-1z"/><path fill="#c719ee" fill-rule="evenodd" d="M35 10h1v2h-1zm1 6h1v2h-1zm1 5h1v1h-1zm1 3h1v1h-1zm2 5h1v1h-1zm1 2h1v1h-1zm1 2h1v1h-1zm3 5h1v1h-1zm3 4h1v1h-1zm1 1h1v1h-1z"/><path fill="#cb16ed" fill-rule="evenodd" d="M38 10h1v1h-1zm1 6h1v1h-1zm1 4h1v1h-1zm3 8h1v1h-1zm2 4h1v1h-1z"/><path fill="#d211ec" fill-rule="evenodd" d="M43 10h1v4h-1zm1 6h1v2h-1zm1 4h1v2h-1zm1 3h1v1h-1zm1 2h1v2h-1zm1 2h1v2h-1zm1 2h1v2h-1zm1 2h1v1h-1zm1 2h1v1h-1zm1 1h1v1h-1zm1 2h1v1h-1zm1 1h1v1h-1zm1 1h1v1h-1z"/><path fill="#d312e9" fill-rule="evenodd" d="M44 10h1v2h-1zm1 6h1v1h-1zm1 3h1v2h-1zm1 3h1v1h-1zm1 3h1v1h-1zm1 2h1v1h-1zm1 2h1v1h-1zm2 3h1v1h-1zm1 2h1v1h-1zm1 1h1v1h-1zm3 4h1v1h-1z"/><path fill="#d516de" fill-rule="evenodd" d="M48 10h1v2h-1zm1 5h1v2h-1zm1 4h1v1h-1zm1 3h1v1h-1zm1 2h1v1h-1zm1 2h1v1h-1zm1 2h1v1h-1zm2 3h1v1h-1zm2 3h1v1h-1zm1 1h1v1h-1zm1 1h1v1h-1z"/><path fill="#d71ad3" fill-rule="evenodd" d="M52 10h1v2h-1zm1 5h1v2h-1zm1 4h1v1h-1zm1 2h1v1h-1zm1 2h1v1h-1zm1 2h1v1h-1zm1 2h1v1h-1zm2 3h1v1h-1z"/><path fill="#d71bd0" fill-rule="evenodd" d="M53 10h1v2h-1zm1 5h1v1h-1zm1 3h1v1h-1zm1 3h1v1h-1zm1 2h1v1h-1zm1 2h1v1h-1zm2 3h1v1h-1zm2 3h1v1h-1zm1 1h1v1h-1z"/><path fill="#d81ccd" fill-rule="evenodd" d="M54 10h1v1h-1zm1 5h1v1h-1zm1 3h1v1h-1zm6 11h1v1h-1z"/><path fill="#d91dca" fill-rule="evenodd" d="M55 10h1v1h-1zm6 16h1v1h-1zm3 4h1v1h-1z"/><path fill="#d91ec8" fill-rule="evenodd" d="M56 10h1v2h-1zm1 5h1v1h-1zm1 3h1v1h-1zm3 6h1v1h-1zm1 2h1v1h-1zm2 3h1v1h-1zm1 1h1v1h-1z"/><path fill="#da1fc5" fill-rule="evenodd" d="M57 10h1v2h-1zm1 5h1v1h-1zm1 3h1v1h-1zm1 2h1v1h-1zm1 2h1v1h-1zm1 2h1v1h-1zm2 3h1v1h-1z"/><path fill="#da20c2" fill-rule="evenodd" d="M58 10h1v1h-1zm3 10h1v1h-1zm1 2h1v1h-1zm4 6h1v1h-1zm1 1h1v1h-1z"/><path fill="#db21bf" fill-rule="evenodd" d="M59 10h1v1h-1z"/><path fill="#db23bd" fill-rule="evenodd" d="M60 10h1v1h-1zm2 7h1v1h-1zm3 6h1v1h-1z"/><path fill="#dc24ba" fill-rule="evenodd" d="M61 10h1v1h-1zm1 4h1v1h-1zm2 5h1v1h-1zm1 2h1v1h-1z"/><path fill="#dd27b2" fill-rule="evenodd" d="M64 10h1v1h-1zm5 12h1v1h-1z"/><path fill="#de28af" fill-rule="evenodd" d="M65 10h1v1h-1zm2 6h1v1h-1zm2 4h1v1h-1zm2 3h1v1h-1z"/><path fill="#de29ac" fill-rule="evenodd" d="M66 10h1v1h-1zm2 6h1v1h-1zm1 2h1v1h-1zm1 2h1v1h-1zm3 4h1v1h-1z"/><path fill="#df2ba7" fill-rule="evenodd" d="M68 10h1v1h-1zm2 6h1v1h-1z"/><path fill="#e02ca4" fill-rule="evenodd" d="M69 10h1v1h-1zm1 3h1v1h-1zm3 6h1v1h-1z"/><path fill="#e12e9f" fill-rule="evenodd" d="M71 10h1v1h-1zm5 10h1v1h-1z"/><path fill="#e22f9c" fill-rule="evenodd" d="M72 10h1v1h-1zm1 3h1v1h-1zm1 2h1v1h-1zm1 2h1v1h-1z"/><path fill="#e23099" fill-rule="evenodd" d="M73 10h1v1h-1zm1 3h1v1h-1zm1 2h1v1h-1zm2 3h1v1h-1zm1 1h1v1h-1z"/><path fill="#e33294" fill-rule="evenodd" d="M75 10h1v1h-1z"/><path fill="#e93e72" fill-rule="evenodd" d="M88 10h1v1h-1z"/><path fill="#9a3df9" fill-rule="evenodd" d="M2 11h1v7h-1zm1 9h1v3h-1zm1 5h1v3h-1zm1 4h1v2h-1zm1 3h1v2h-1zm1 3h1v2h-1zm1 3h1v2h-1zm1 2h1v2h-1zm1 3h1v1h-1zm1 2h1v1h-1zm1 2h1v1h-1zm1 2h1v1h-1zm1 2h1v1h-1zm1 1h1v2h-1zm1 2h1v1h-1zm1 2h1v1h-1zm1 1h1v1h-1zm1 2h1v1h-1zm1 1h1v1h-1zm1 1h1v1h-1zm1 2h1v1h-1zm1 1h1v1h-1zm1 1h1v1h-1zm1 1h1v1h-1zm1 1h1v1h-1zm1 1h1v1h-1zm1 1h1v1h-1zm1 1h1v1h-1zm1 1h1v1h-1zm1 1h1v1h-1zm1 1h1v1h-1zm1 1h1v1h-1zm1 1h1v1h-1zm1 1h1v1h-1zm1 1h1v1h-1zm1 1h1v1h-1zm2 1h1v1h-1zm1 1h1v1h-1zm1 1h2v1h-2zm2 1h1v1h-1zm1 1h2v1h-2zm2 1h1v1h-1zm1 1h2v1h-2zm2 1h2v1h-2zm2 1h1v1h-1zm2 1h1v1h-1zm2 1h1v1h-1zm2 1h2v1h-2zm2 1h2v1h-2zm2 1h2v1h-2zm3 1h2v1h-2zm3 1h2v1h-2zm3 1h3v1h-3zm4 1h3v1h-3zm5 1h4v1h-4zm6 1h9v1h-9z"/><path fill="#9e39f8" fill-rule="evenodd" d="M5 11h1v2h-1zm1 8h1v1h-1zm1 5h1v1h-1zm1 4h1v1h-1zm3 9h1v1h-1zm2 5h1v1h-1zm1 2h1v1h-1zm1 2h1v1h-1zm4 7h1v1h-1zm5 7h1v1h-1zm7 8h1v1h-1zm1 1h1v1h-1zm17 13h1v1h-1zm14 7h1v1h-1zm3 1h1v1h-1zm3 1h1v1h-1zm13 3h1v1h-1zm8 1h3v1h-3z"/><path fill="#ad2ef4" fill-rule="evenodd" d="M16 11h1v4h-1zm1 8h1v2h-1zm1 4h1v2h-1zm1 4h1v2h-1zm1 3h1v1h-1zm1 3h1v1h-1zm1 2h1v2h-1zm1 3h1v1h-1zm1 2h1v1h-1zm1 2h1v1h-1zm2 3h1v1h-1zm1 2h1v1h-1zm1 1h1v1h-1zm1 2h1v1h-1zm1 1h1v1h-1zm2 3h1v1h-1zm1 1h1v1h-1zm1 1h1v1h-1zm9 9h1v1h-1zm1 1h1v1h-1zm1 1h1v1h-1zm3 2h1v1h-1zm1 1h1v1h-1zm2 1h1v1h-1zm1 1h1v1h-1zm2 1h1v1h-1zm2 1h1v1h-1zm2 1h1v1h-1zm1 1h2v1h-2zm3 1h1v1h-1zm2 1h1v1h-1zm2 1h2v1h-2zm3 1h1v1h-1zm3 1h2v1h-2zm4 1h1v1h-1zm4 1h1v1h-1z"/><path fill="#af2df4" fill-rule="evenodd" d="M17 11h1v3h-1zm1 7h1v2h-1zm1 5h1v1h-1zm1 4h1v1h-1zm1 3h1v1h-1zm2 5h1v1h-1zm1 2h1v1h-1zm1 2h1v1h-1zm1 2h1v1h-1zm1 2h1v1h-1zm3 5h1v1h-1zm3 4h1v1h-1zm4 5h1v1h-1zm1 1h1v1h-1zm1 1h1v1h-1zm1 1h1v1h-1zm1 1h1v1h-1zm1 1h1v1h-1zm1 1h1v1h-1zm5 4h1v1h-1zm3 2h1v1h-1zm3 2h1v1h-1zm3 2h1v1h-1zm2 1h1v1h-1zm2 1h1v1h-1zm2 1h1v1h-1zm2 1h1v1h-1zm3 1h1v1h-1zm3 1h1v1h-1zm3 1h1v1h-1zm3 1h2v1h-2z"/><path fill="#b627f3" fill-rule="evenodd" d="M22 11h1v1h-1zm1 7h1v1h-1zm6 18h1v1h-1zm1 2h1v1h-1zm7 11h1v1h-1z"/><path fill="#bc22f1" fill-rule="evenodd" d="M27 11h1v4h-1zm1 7h1v2h-1zm1 4h1v2h-1zm1 3h1v2h-1zm1 3h1v2h-1zm1 3h1v1h-1zm1 2h1v1h-1zm1 2h1v1h-1zm1 2h1v1h-1zm1 2h1v1h-1zm1 2h1v1h-1zm1 1h1v1h-1zm1 2h1v1h-1zm1 1h1v1h-1zm1 1h1v1h-1zm1 2h1v1h-1zm1 1h1v1h-1zm1 1h1v1h-1zm1 1h1v1h-1zm1 1h1v1h-1zm1 1h1v1h-1zm1 1h1v1h-1zm1 1h1v1h-1zm1 1h1v1h-1zm1 1h1v1h-1zm1 1h1v1h-1zm2 1h1v1h-1zm1 1h1v1h-1zm1 1h2v1h-2zm2 1h1v1h-1zm1 1h2v1h-2zm2 1h1v1h-1zm2 1h1v1h-1z"/><path fill="#c51cef" fill-rule="evenodd" d="M33 11h1v1h-1zm1 6h1v1h-1zm1 4h1v1h-1zm9 19h1v1h-1z"/><path fill="#cb16ee" fill-rule="evenodd" d="M38 11h1v2h-1zm1 6h1v1h-1zm1 4h1v1h-1zm1 3h1v1h-1zm1 2h1v1h-1zm4 8h1v1h-1zm2 3h1v1h-1zm2 3h1v1h-1zm1 1h1v1h-1zm1 1h1v1h-1zm1 2h1v1h-1z"/><path fill="#cf13ed" fill-rule="evenodd" d="M41 11h1v3h-1zm1 5h1v3h-1zm1 4h1v2h-1zm1 3h1v2h-1zm1 3h1v1h-1zm1 2h1v1h-1zm1 2h1v1h-1zm1 2h1v1h-1zm1 1h1v1h-1zm1 2h1v1h-1zm1 1h1v1h-1zm1 2h1v1h-1zm1 1h1v1h-1zm1 1h1v1h-1zm1 1h1v1h-1z"/><path fill="#d414e4" fill-rule="evenodd" d="M46 11h1v2h-1zm1 5h1v1h-1zm1 4h1v1h-1zm2 5h1v1h-1zm1 2h1v1h-1zm1 2h1v1h-1zm2 3h1v1h-1zm3 4h1v1h-1zm1 1h1v1h-1z"/><path fill="#d415e1" fill-rule="evenodd" d="M47 11h1v2h-1zm1 5h1v1h-1zm1 3h1v2h-1zm1 3h1v1h-1zm4 8h1v1h-1zm2 3h1v1h-1z"/><path fill="#d618d9" fill-rule="evenodd" d="M50 11h1v2h-1zm1 5h1v1h-1zm1 3h1v1h-1zm1 3h1v1h-1zm1 2h1v1h-1zm1 2h1v1h-1zm1 2h1v1h-1zm2 3h1v1h-1zm1 1h1v1h-1z"/><path fill="#d619d6" fill-rule="evenodd" d="M51 11h1v2h-1zm1 5h1v1h-1zm1 3h1v1h-1zm1 3h1v1h-1zm1 2h1v1h-1zm1 2h1v1h-1zm2 3h1v1h-1zm2 3h1v1h-1zm1 1h1v1h-1zm1 1h1v1h-1z"/><path fill="#d81cce" fill-rule="evenodd" d="M54 11h1v2h-1zm1 5h1v1h-1zm1 3h1v1h-1zm1 2h1v1h-1zm1 2h1v1h-1zm1 2h1v1h-1zm1 2h1v1h-1zm1 1h1v1h-1zm2 3h1v1h-1zm1 1h1v1h-1z"/><path fill="#d81dcb" fill-rule="evenodd" d="M55 11h1v2h-1zm1 4h1v2h-1zm2 6h1v1h-1zm1 2h1v1h-1zm1 2h1v1h-1zm2 3h1v1h-1zm1 1h1v1h-1z"/><path fill="#db21c0" fill-rule="evenodd" d="M59 11h1v1h-1zm1 4h1v1h-1zm1 3h1v1h-1zm1 2h1v1h-1zm1 2h1v1h-1zm2 3h1v1h-1zm2 3h1v1h-1z"/><path fill="#db22bd" fill-rule="evenodd" d="M60 11h1v1h-1zm1 4h1v1h-1zm2 5h1v1h-1zm3 5h1v1h-1zm1 1h1v1h-1z"/><path fill="#dc23ba" fill-rule="evenodd" d="M61 11h1v1h-1zm2 6h1v1h-1zm3 6h1v1h-1zm3 4h1v1h-1z"/><path fill="#dd26b2" fill-rule="evenodd" d="M64 11h1v1h-1zm1 3h1v1h-1zm1 3h1v1h-1zm1 2h1v1h-1zm1 2h1v1h-1zm3 4h1v1h-1z"/><path fill="#de27af" fill-rule="evenodd" d="M65 11h1v1h-1zm1 3h1v1h-1zm4 8h1v1h-1z"/><path fill="#9c3cf8" fill-rule="evenodd" d="M3 12h1v2h-1zm1 8h1v1h-1zm1 5h1v1h-1zm2 7h1v1h-1zm1 3h1v1h-1zm2 5h1v1h-1zm6 12h1v1h-1zm2 3h1v1h-1zm2 3h1v1h-1zm3 4h1v1h-1zm15 15h1v1h-1zm4 3h1v1h-1zm3 2h1v1h-1zm5 3h1v1h-1zm8 4h1v1h-1zm2 1h1v1h-1zm12 4h1v1h-1zm4 1h1v1h-1zm5 1h1v1h-1zm8 1h3v1h-3z"/><path fill="#a038f8" fill-rule="evenodd" d="M6 12h1v2h-1zm1 8h1v1h-1zm5 17h1v1h-1zm3 7h1v1h-1zm1 2h1v1h-1zm3 5h1v1h-1zm4 6h1v1h-1zm3 4h1v1h-1zm12 12h1v1h-1zm1 1h1v1h-1zm4 3h1v1h-1zm3 2h1v1h-1zm3 2h1v1h-1zm14 7h1v1h-1zm3 1h1v1h-1zm3 1h1v1h-1zm3 1h1v1h-1zm4 1h1v1h-1zm5 1h1v1h-1zm8 1h2v1h-2z"/><path fill="#a236f7" fill-rule="evenodd" d="M8 12h1v3h-1zm1 8h1v1h-1zm1 4h1v2h-1zm1 4h1v1h-1zm2 6h1v1h-1zm1 3h1v1h-1zm1 2h1v1h-1zm5 10h1v1h-1zm2 3h1v1h-1zm2 3h1v1h-1zm2 3h1v1h-1zm1 1h1v1h-1zm5 6h1v1h-1zm1 1h1v1h-1zm1 1h1v1h-1zm1 1h1v1h-1zm6 5h1v1h-1zm4 3h1v1h-1zm3 2h1v1h-1zm3 2h1v1h-1zm2 1h1v1h-1zm2 1h1v1h-1zm4 2h1v1h-1zm2 1h1v1h-1zm2 1h1v1h-1zm3 1h1v1h-1zm3 1h1v1h-1zm3 1h1v1h-1zm4 1h1v1h-1zm5 1h1v1h-1zm7 1h3v1h-3z"/><path fill="#b02cf4" fill-rule="evenodd" d="M18 12h1v4h-1zm1 7h1v2h-1zm1 4h1v2h-1zm1 4h1v1h-1zm1 3h1v1h-1zm1 3h1v1h-1zm1 2h1v1h-1zm1 2h1v1h-1zm1 2h1v1h-1zm1 2h1v1h-1zm1 2h1v1h-1zm1 2h1v1h-1zm1 1h1v1h-1zm1 2h1v1h-1zm1 1h1v1h-1zm1 2h1v1h-1zm1 1h1v1h-1zm1 1h1v1h-1zm3 4h1v1h-1zm1 1h1v1h-1zm1 1h1v1h-1zm1 1h1v1h-1zm1 1h1v1h-1zm1 1h1v1h-1zm4 3h1v1h-1zm1 1h1v1h-1zm3 2h1v1h-1zm1 1h1v1h-1zm2 1h1v1h-1zm1 1h1v1h-1zm2 1h1v1h-1zm2 1h1v1h-1zm2 1h1v1h-1zm2 1h1v1h-1zm2 1h1v1h-1zm2 1h2v1h-2zm3 1h2v1h-2zm3 1h2v1h-2zm3 1h2v1h-2z"/><path fill="#b12bf3" fill-rule="evenodd" d="M19 12h1v1h-1zm1 7h1v1h-1zm1 4h1v1h-1zm5 14h1v1h-1zm1 2h1v1h-1zm10 15h1v1h-1zm1 1h1v1h-1zm7 7h1v1h-1zm5 4h1v1h-1zm6 4h1v1h-1zm12 6h1v1h-1zm6 2h1v1h-1z"/><path fill="#b527f3" fill-rule="evenodd" d="M22 12h1v2h-1zm1 7h1v1h-1zm1 4h1v1h-1zm1 3h1v1h-1zm1 3h1v1h-1zm1 3h1v1h-1zm1 2h1v1h-1zm3 6h1v1h-1zm1 2h1v1h-1zm2 3h1v1h-1zm2 3h1v1h-1zm5 6h1v1h-1zm1 1h1v1h-1zm1 1h1v1h-1zm1 1h1v1h-1zm1 1h1v1h-1zm1 1h1v1h-1zm5 4h1v1h-1zm4 3h1v1h-1zm5 3h1v1h-1zm2 1h1v1h-1zm2 1h1v1h-1zm2 1h1v1h-1zm5 2h1v1h-1z"/><path fill="#c61bef" fill-rule="evenodd" d="M34 12h1v2h-1zm1 5h1v2h-1zm1 4h1v1h-1zm2 6h1v1h-1zm5 10h1v1h-1zm2 3h1v1h-1zm3 4h1v1h-1zm1 1h1v1h-1zm1 1h1v1h-1z"/><path fill="#c71aef" fill-rule="evenodd" d="M35 12h1v3h-1zm1 6h1v2h-1zm1 4h1v1h-1zm1 3h1v1h-1zm1 2h1v1h-1zm1 3h1v1h-1zm1 2h1v1h-1zm1 2h1v1h-1zm1 1h1v1h-1zm1 2h1v1h-1zm2 3h1v1h-1zm1 1h1v1h-1zm2 3h1v1h-1zm1 1h1v1h-1z"/><path fill="#cc15ed" fill-rule="evenodd" d="M39 12h1v1h-1zm2 9h1v1h-1zm1 3h1v1h-1zm5 10h1v1h-1zm2 3h1v1h-1zm3 4h1v1h-1zm1 1h1v1h-1z"/><path fill="#d313e7" fill-rule="evenodd" d="M45 12h1v2h-1zm1 5h1v1h-1zm1 3h1v1h-1zm1 3h1v1h-1zm1 2h1v1h-1zm1 2h1v1h-1zm1 2h1v1h-1zm1 2h1v1h-1zm2 3h1v1h-1zm1 1h1v1h-1z"/><path fill="#d516df" fill-rule="evenodd" d="M48 12h1v2h-1zm1 5h1v1h-1zm1 3h1v1h-1zm2 5h1v1h-1zm1 2h1v1h-1zm2 3h1v1h-1zm2 3h1v1h-1z"/><path fill="#d517dc" fill-rule="evenodd" d="M49 12h1v2h-1zm1 5h1v1h-1zm1 3h1v1h-1zm1 2h1v1h-1zm3 6h1v1h-1zm1 2h1v1h-1zm3 4h1v1h-1zm1 1h1v1h-1z"/><path fill="#da21c0" fill-rule="evenodd" d="M59 12h1v1h-1zm5 12h1v1h-1z"/><path fill="#e73a7a" fill-rule="evenodd" d="M86 12h1v1h-1z"/><path fill="#973ff9" fill-rule="evenodd" d="M0 13h1v3h-1zm1 8h1v2h-1zm1 5h1v1h-1zm1 4h1v1h-1zm1 3h1v1h-1zm1 3h1v1h-1zm1 3h1v1h-1zm1 2h1v1h-1zm2 5h1v1h-1zm1 2h1v1h-1zm3 5h1v1h-1zm1 2h1v1h-1zm1 1h1v1h-1zm1 2h1v1h-1zm1 1h1v1h-1zm2 3h1v1h-1zm3 4h1v1h-1zm1 1h1v1h-1zm1 1h1v1h-1zm1 1h1v1h-1zm1 1h1v1h-1zm4 4h1v1h-1zm1 1h1v1h-1zm1 1h1v1h-1zm1 1h1v1h-1zm4 3h1v1h-1zm1 1h1v1h-1zm3 2h1v1h-1zm1 1h1v1h-1zm2 1h1v1h-1zm3 2h1v1h-1zm2 1h1v1h-1zm2 1h1v1h-1zm4 2h1v1h-1zm2 1h1v1h-1zm2 1h1v1h-1zm3 1h1v1h-1zm2 1h1v1h-1zm3 1h1v1h-1zm4 1h1v1h-1zm4 1h1v1h-1zm4 1h2v1h-2z"/><path fill="#9d3bf8" fill-rule="evenodd" d="M4 13h1v3h-1zm1 7h1v2h-1zm1 5h1v2h-1zm1 4h1v1h-1zm1 3h1v1h-1zm1 3h1v1h-1zm1 3h1v1h-1zm1 2h1v1h-1zm1 3h1v1h-1zm1 2h1v1h-1zm1 2h1v1h-1zm2 3h1v1h-1zm1 2h1v1h-1zm2 3h1v1h-1zm2 3h1v1h-1zm1 1h1v1h-1zm2 3h1v1h-1zm1 1h1v1h-1zm1 1h1v1h-1zm10 10h1v1h-1zm1 1h1v1h-1zm1 1h1v1h-1zm3 2h1v1h-1zm1 1h1v1h-1zm3 2h1v1h-1zm3 2h1v1h-1zm2 1h1v1h-1zm2 1h1v1h-1zm6 3h1v1h-1zm2 1h1v1h-1zm2 1h1v1h-1zm3 1h1v1h-1zm3 1h1v1h-1zm3 1h2v1h-2zm4 1h2v1h-2zm5 1h2v1h-2zm7 1h4v1h-4z"/><path fill="#a633f6" fill-rule="evenodd" d="M11 13h1v3h-1zm1 7h1v2h-1zm1 4h1v2h-1zm1 4h1v2h-1zm1 3h1v2h-1zm1 3h1v1h-1zm1 3h1v1h-1zm1 2h1v1h-1zm1 2h1v1h-1zm1 2h1v1h-1zm1 2h1v1h-1zm1 2h1v1h-1zm2 3h1v1h-1zm2 3h1v1h-1zm2 3h1v1h-1zm1 1h1v1h-1zm1 1h1v1h-1zm4 5h1v1h-1zm1 1h1v1h-1zm1 1h1v1h-1zm1 1h1v1h-1zm5 4h1v1h-1zm1 1h1v1h-1zm3 2h1v1h-1zm1 1h1v1h-1zm3 2h1v1h-1zm2 1h1v1h-1zm1 1h1v1h-1zm2 1h1v1h-1zm2 1h1v1h-1zm2 1h1v1h-1zm2 1h1v1h-1zm3 1h1v1h-1zm2 1h1v1h-1zm3 1h1v1h-1zm3 1h1v1h-1zm4 1h1v1h-1zm4 1h2v1h-2zm6 1h3v1h-3z"/><path fill="#b32af3" fill-rule="evenodd" d="M20 13h1v1h-1zm1 6h1v1h-1zm1 4h1v1h-1zm9 21h1v1h-1zm4 6h1v1h-1zm6 7h1v1h-1zm1 1h1v1h-1zm1 1h1v1h-1zm10 8h1v1h-1zm3 2h1v1h-1zm12 6h1v1h-1zm6 2h1v1h-1z"/><path fill="#b429f3" fill-rule="evenodd" d="M21 13h1v3h-1zm1 6h1v2h-1zm1 5h1v1h-1zm1 3h1v1h-1zm1 3h1v1h-1zm2 5h1v1h-1zm1 2h1v1h-1zm1 2h1v1h-1zm1 2h1v1h-1zm2 3h1v1h-1zm2 3h1v1h-1zm2 3h1v1h-1zm1 1h1v1h-1zm5 6h1v1h-1zm1 1h1v1h-1zm6 5h1v1h-1zm1 1h1v1h-1zm3 2h1v1h-1zm3 2h1v1h-1zm2 1h1v1h-1zm3 2h1v1h-1zm2 1h1v1h-1zm2 1h1v1h-1zm3 1h1v1h-1zm2 1h1v1h-1zm3 1h1v1h-1z"/><path fill="#b924f2" fill-rule="evenodd" d="M25 13h1v2h-1zm1 6h1v1h-1zm1 4h1v1h-1zm1 3h1v1h-1zm1 3h1v1h-1zm2 5h1v1h-1zm1 2h1v1h-1zm1 2h1v1h-1zm2 3h1v1h-1zm1 2h1v1h-1zm3 4h1v1h-1zm4 5h1v1h-1zm1 1h1v1h-1zm1 1h1v1h-1zm1 1h1v1h-1zm1 1h1v1h-1zm1 1h1v1h-1zm5 4h1v1h-1zm3 2h1v1h-1zm3 2h1v1h-1z"/><path fill="#bd21f1" fill-rule="evenodd" d="M28 13h1v3h-1zm1 6h1v2h-1zm1 4h1v1h-1zm1 3h1v1h-1zm1 3h1v1h-1zm1 2h1v1h-1zm1 2h1v1h-1zm1 2h1v1h-1zm1 2h1v1h-1zm1 2h1v1h-1zm1 2h1v1h-1zm1 1h1v1h-1zm2 3h1v1h-1zm1 1h1v1h-1zm2 3h1v1h-1zm1 1h1v1h-1zm1 1h1v1h-1zm1 1h1v1h-1zm1 1h1v1h-1zm1 1h1v1h-1zm1 1h1v1h-1zm4 3h1v1h-1zm1 1h1v1h-1zm3 2h1v1h-1zm3 2h1v1h-1z"/><path fill="#ca18ee" fill-rule="evenodd" d="M37 13h1v1h-1zm1 5h1v1h-1zm3 9h1v1h-1zm1 2h1v1h-1zm1 2h1v1h-1zm1 2h1v1h-1zm7 10h1v1h-1zm1 1h1v1h-1z"/><path fill="#d012ec" fill-rule="evenodd" d="M42 13h1v1h-1zm1 4h1v2h-1zm1 4h1v1h-1zm1 3h1v1h-1zm1 2h1v1h-1zm1 2h1v1h-1zm1 2h1v1h-1zm1 2h1v1h-1zm2 3h1v1h-1zm3 4h1v1h-1zm1 1h1v1h-1z"/><path fill="#e7387e" fill-rule="evenodd" d="M85 13h1v1h-1z"/><path fill="#a138f7" fill-rule="evenodd" d="M7 14h1v2h-1zm1 7h1v1h-1zm1 4h1v2h-1zm1 4h1v1h-1zm1 3h1v1h-1zm1 3h1v1h-1zm1 3h1v1h-1zm1 2h1v1h-1zm1 2h1v1h-1zm1 2h1v1h-1zm1 2h1v1h-1zm1 2h1v1h-1zm3 5h1v1h-1zm2 3h1v1h-1zm1 1h1v1h-1zm3 4h1v1h-1zm1 1h1v1h-1zm10 10h1v1h-1zm1 1h1v1h-1zm4 3h1v1h-1zm6 4h1v1h-1zm3 2h1v1h-1zm2 1h1v1h-1zm2 1h1v1h-1zm2 1h1v1h-1zm2 1h1v1h-1zm5 2h1v1h-1zm3 1h1v1h-1zm3 1h1v1h-1zm4 1h1v1h-1zm5 1h1v1h-1zm6 1h3v1h-3z"/><path fill="#b826f2" fill-rule="evenodd" d="M24 14h1v2h-1zm1 6h1v1h-1zm1 4h1v1h-1zm1 3h1v1h-1zm1 3h1v1h-1zm1 2h1v1h-1zm5 10h1v1h-1zm2 3h1v1h-1zm3 4h1v1h-1zm12 12h1v1h-1zm4 3h1v1h-1zm3 2h1v1h-1zm2 1h1v1h-1zm6 3h1v1h-1zm2 1h1v1h-1z"/><path fill="#c31df0" fill-rule="evenodd" d="M32 14h1v1h-1zm1 5h1v1h-1zm3 9h1v1h-1zm5 10h1v1h-1zm2 3h1v1h-1zm3 4h1v1h-1z"/><path fill="#e53883" fill-rule="evenodd" d="M84 14h1v1h-1z"/><path fill="#a732f6" fill-rule="evenodd" d="M12 15h1v1h-1zm1 6h1v1h-1zm1 4h1v1h-1zm1 4h1v1h-1zm1 3h1v1h-1zm2 5h1v1h-1zm1 2h1v1h-1zm3 6h1v1h-1zm1 2h1v1h-1zm2 3h1v1h-1zm2 3h1v1h-1zm3 4h1v1h-1zm1 1h1v1h-1zm11 11h1v1h-1zm1 1h1v1h-1zm4 3h1v1h-1zm3 2h1v1h-1zm5 3h1v1h-1zm2 1h1v1h-1zm2 1h1v1h-1zm2 1h1v1h-1zm5 2h1v1h-1zm6 2h1v1h-1zm3 1h1v1h-1zm5 1h1v1h-1zm6 1h1v1h-1z"/><path fill="#973ffa" fill-rule="evenodd" d="M0 16h1v3h-1zm1 7h1v1h-1zm1 4h1v1h-1zm1 4h1v1h-1zm1 3h1v1h-1zm1 3h1v1h-1zm1 3h1v1h-1zm1 2h1v1h-1zm1 2h1v1h-1zm3 6h1v1h-1zm1 2h1v1h-1zm3 5h1v1h-1zm2 3h1v1h-1zm1 1h1v1h-1zm2 3h1v1h-1zm1 1h1v1h-1zm13 13h1v1h-1zm1 1h1v1h-1zm4 3h1v1h-1zm4 3h1v1h-1zm2 1h1v1h-1zm3 2h1v1h-1zm2 1h1v1h-1zm2 1h1v1h-1zm2 1h1v1h-1zm2 1h1v1h-1zm2 1h1v1h-1zm3 1h1v1h-1zm2 1h1v1h-1zm3 1h1v1h-1zm4 1h1v1h-1zm3 1h2v1h-2zm5 1h1v1h-1z"/><path fill="#a535f6" fill-rule="evenodd" d="M10 16h1v1h-1zm3 13h1v1h-1zm2 6h1v1h-1zm7 14h1v1h-1zm4 6h1v1h-1zm3 4h1v1h-1zm11 11h1v1h-1zm5 4h1v1h-1zm3 2h1v1h-1zm3 2h1v1h-1zm12 6h1v1h-1zm12 4h1v1h-1zm11 2h1v1h-1z"/><path fill="#e02ba4" fill-rule="evenodd" d="M71 16h1v1h-1zm4 6h1v1h-1z"/><path fill="#e4348a" fill-rule="evenodd" d="M82 16h1v1h-1z"/><path fill="#d314e4" fill-rule="evenodd" d="M47 17h1v1h-1zm2 6h1v1h-1zm7 12h1v1h-1z"/><path fill="#dc24b7" fill-rule="evenodd" d="M64 17h1v1h-1zm2 4h1v1h-1z"/><path fill="#e3338f" fill-rule="evenodd" d="M81 17h1v1h-1z"/><path fill="#d91dcb" fill-rule="evenodd" d="M57 18h1v1h-1z"/><path fill="#e33291" fill-rule="evenodd" d="M80 18h1v1h-1z"/><path fill="#9640fa" fill-rule="evenodd" d="M0 19h1v4h-1zm1 6h1v3h-1zm1 4h1v2h-1zm1 3h1v3h-1zm1 3h1v3h-1zm1 3h1v2h-1zm1 3h1v2h-1zm1 2h1v2h-1zm1 2h1v2h-1zm1 2h1v2h-1zm1 2h1v2h-1zm1 2h1v2h-1zm1 2h1v1h-1zm1 2h1v1h-1zm1 1h1v2h-1zm1 2h1v1h-1zm1 1h1v2h-1zm1 2h1v1h-1zm1 1h1v1h-1zm1 1h1v2h-1zm1 2h1v1h-1zm1 1h1v1h-1zm1 1h1v1h-1zm1 1h1v1h-1zm1 1h1v2h-1zm1 2h1v1h-1zm1 1h1v1h-1zm1 1h1v1h-1zm1 1h1v1h-1zm1 1h2v1h-2zm2 1h1v1h-1zm1 1h1v1h-1zm1 1h1v1h-1zm1 1h1v1h-1zm1 1h1v1h-1zm1 1h2v1h-2zm2 1h1v1h-1zm1 1h1v1h-1zm2 1h1v1h-1zm1 1h1v1h-1zm1 1h2v1h-2zm2 1h1v1h-1zm2 1h1v1h-1zm1 1h2v1h-2zm2 1h2v1h-2zm2 1h2v1h-2zm2 1h2v1h-2zm2 1h2v1h-2zm3 1h2v1h-2zm2 1h2v1h-2zm3 1h2v1h-2zm3 1h2v1h-2zm3 1h3v1h-3zm4 1h3v1h-3z"/><path fill="#9a3cf9" fill-rule="evenodd" d="M3 19h1v1h-1zm16 39h1v1h-1zm19 20h1v1h-1zm25 14h1v1h-1zm31 6h1v1h-1z"/><path fill="#e33095" fill-rule="evenodd" d="M79 19h1v1h-1z"/><path fill="#d91ec7" fill-rule="evenodd" d="M59 20h1v1h-1z"/><path fill="#e12e99" fill-rule="evenodd" d="M78 20h1v1h-1z"/><path fill="#c818ee" fill-rule="evenodd" d="M38 21h1v1h-1zm1 3h1v1h-1zm2 5h1v1h-1zm1 2h1v1h-1zm8 12h1v1h-1z"/><path fill="#df2ca1" fill-rule="evenodd" d="M76 22h1v1h-1z"/><path fill="#9540fa" fill-rule="evenodd" d="M0 23h1v1h-1zm2 8h1v1h-1zm3 9h1v1h-1zm7 14h1v1h-1zm6 9h1v1h-1zm5 6h1v1h-1zm7 7h1v1h-1zm1 1h1v1h-1zm9 7h1v1h-1zm6 4h1v1h-1zm12 6h1v1h-1zm5 2h1v1h-1zm3 1h1v1h-1zm7 2h1v1h-1z"/><path fill="#e02aa6" fill-rule="evenodd" d="M75 23h1v1h-1z"/><path fill="#9541fa" fill-rule="evenodd" d="M0 24h1v3h-1zm1 4h1v3h-1zm1 4h1v2h-1zm1 3h1v2h-1zm1 3h1v2h-1zm1 3h1v1h-1zm1 2h1v1h-1zm1 2h1v2h-1zm1 2h1v2h-1zm1 2h1v2h-1zm1 2h1v1h-1zm1 2h1v1h-1zm1 2h1v1h-1zm1 1h1v1h-1zm1 2h1v1h-1zm1 1h1v1h-1zm1 2h1v1h-1zm1 1h1v1h-1zm1 2h1v1h-1zm1 1h1v1h-1zm1 1h1v1h-1zm1 1h1v1h-1zm1 1h1v1h-1zm2 3h1v1h-1zm1 1h1v1h-1zm1 1h1v1h-1zm1 1h1v1h-1zm1 1h1v1h-1zm1 1h1v1h-1zm3 2h1v1h-1zm1 1h1v1h-1zm1 1h1v1h-1zm1 1h1v1h-1zm2 1h1v1h-1zm1 1h1v1h-1zm1 1h1v1h-1zm2 1h1v1h-1zm1 1h1v1h-1zm2 1h1v1h-1zm1 1h1v1h-1zm2 1h1v1h-1zm2 1h1v1h-1zm2 1h1v1h-1zm2 1h1v1h-1zm2 1h1v1h-1zm2 1h1v1h-1zm2 1h2v1h-2zm3 1h1v1h-1zm2 1h2v1h-2zm3 1h3v1h-3zm4 1h2v1h-2z"/><path fill="#9740fa" fill-rule="evenodd" d="M1 24h1v1h-1zm1 4h1v1h-1zm11 26h1v1h-1zm12 16h1v1h-1zm1 1h1v1h-1zm1 1h1v1h-1zm1 1h1v1h-1zm1 1h1v1h-1zm7 6h1v1h-1zm4 3h1v1h-1zm6 4h1v1h-1zm23 10h1v1h-1zm8 2h1v1h-1z"/><path fill="#df28aa" fill-rule="evenodd" d="M74 24h1v1h-1z"/><path fill="#a039f8" fill-rule="evenodd" d="M8 25h1v1h-1zm2 7h1v1h-1zm4 10h1v1h-1z"/><path fill="#a335f7" fill-rule="evenodd" d="M11 25h1v1h-1zm10 24h1v1h-1zm7 10h1v1h-1zm13 13h1v1h-1zm4 3h1v1h-1zm42 16h1v1h-1z"/><path fill="#dd28ae" fill-rule="evenodd" d="M73 25h1v1h-1z"/><path fill="#dc26b2" fill-rule="evenodd" d="M72 26h1v1h-1z"/><path fill="#9441fa" fill-rule="evenodd" d="M0 27h1v1h-1zm1 4h1v1h-1zm1 3h1v1h-1zm1 3h1v1h-1zm1 3h1v1h-1zm1 2h1v1h-1zm1 2h1v1h-1zm4 8h1v1h-1zm1 2h1v1h-1zm2 3h1v1h-1zm1 2h1v1h-1zm1 1h1v1h-1zm2 3h1v1h-1zm3 4h1v1h-1zm1 1h1v1h-1zm1 1h1v1h-1zm1 1h1v1h-1zm7 7h1v1h-1zm1 1h1v1h-1zm1 1h1v1h-1zm4 3h1v1h-1zm1 1h1v1h-1zm3 2h1v1h-1zm3 2h1v1h-1zm3 2h1v1h-1zm2 1h1v1h-1zm2 1h1v1h-1zm2 1h1v1h-1zm2 1h1v1h-1zm2 1h1v1h-1zm2 1h1v1h-1zm3 1h1v1h-1zm2 1h1v1h-1zm3 1h1v1h-1zm4 1h1v1h-1z"/><path fill="#9442fa" fill-rule="evenodd" d="M0 28h1v2h-1zm1 4h1v1h-1zm1 3h1v1h-1zm1 3h1v1h-1zm1 3h1v1h-1zm1 2h1v1h-1zm1 2h1v1h-1zm1 2h1v1h-1zm1 2h1v1h-1zm1 2h1v1h-1zm1 2h1v1h-1zm1 2h1v1h-1zm1 1h1v1h-1zm1 2h1v1h-1zm2 3h1v1h-1zm1 1h1v1h-1zm2 3h1v1h-1zm1 1h1v1h-1zm4 5h1v1h-1zm1 1h1v1h-1zm1 1h1v1h-1zm1 1h1v1h-1zm1 1h1v1h-1zm1 1h1v1h-1zm1 1h1v1h-1zm4 3h1v1h-1zm1 1h1v1h-1zm1 1h1v1h-1zm3 2h1v1h-1zm1 1h1v1h-1zm2 1h1v1h-1zm1 1h1v1h-1zm2 1h1v1h-1zm3 2h1v1h-1zm2 1h1v1h-1zm2 1h1v1h-1zm2 1h1v1h-1zm2 1h1v1h-1zm2 1h1v1h-1zm3 1h1v1h-1zm2 1h1v1h-1zm3 1h1v1h-1zm3 1h2v1h-2z"/><path fill="#da20c5" fill-rule="evenodd" d="M65 28h1v1h-1z"/><path fill="#9b3cf8" fill-rule="evenodd" d="M6 29h1v1h-1zm3 9h1v1h-1zm21 32h1v1h-1zm18 14h1v1h-1zm17 8h1v1h-1zm3 1h1v1h-1zm20 4h1v1h-1z"/><path fill="#be20f0" fill-rule="evenodd" d="M33 29h1v1h-1zm5 10h1v1h-1zm2 3h1v1h-1zm14 15h1v1h-1zm4 3h1v1h-1zm4 3h1v1h-1z"/><path fill="#da21bf" fill-rule="evenodd" d="M68 29h1v1h-1z"/><path fill="#9342fa" fill-rule="evenodd" d="M0 30h1v2h-1zm1 3h1v2h-1zm1 3h1v2h-1zm1 3h1v2h-1zm1 3h1v1h-1zm1 2h1v1h-1zm1 2h1v1h-1zm1 2h1v1h-1zm1 2h1v1h-1zm1 2h1v1h-1zm1 2h1v1h-1zm1 2h1v1h-1zm1 1h1v1h-1zm1 2h1v1h-1zm1 1h1v1h-1zm1 2h1v1h-1zm1 1h1v1h-1zm1 1h1v1h-1zm1 2h1v1h-1zm1 1h1v1h-1zm1 1h1v1h-1zm1 1h1v1h-1zm1 1h1v1h-1zm8 8h1v1h-1zm1 1h1v1h-1zm1 1h1v1h-1zm1 1h1v1h-1zm3 2h1v1h-1zm1 1h1v1h-1zm1 1h1v1h-1zm2 1h1v1h-1zm1 1h1v1h-1zm2 1h1v1h-1zm2 1h1v1h-1zm1 1h1v1h-1zm2 1h1v1h-1zm2 1h1v1h-1zm2 1h1v1h-1zm2 1h1v1h-1zm2 1h1v1h-1zm2 1h2v1h-2zm3 1h1v1h-1zm2 1h2v1h-2zm3 1h2v1h-2z"/><path fill="#d920c3" fill-rule="evenodd" d="M67 30h1v1h-1z"/><path fill="#d81ec8" fill-rule="evenodd" d="M66 31h1v1h-1z"/><path fill="#9243fb" fill-rule="evenodd" d="M0 32h1v3h-1zm1 4h1v2h-1zm1 3h1v2h-1zm1 2h1v2h-1zm1 3h1v1h-1zm1 2h1v2h-1zm1 2h1v2h-1zm1 2h1v2h-1zm1 2h1v1h-1zm1 2h1v1h-1zm1 1h1v2h-1zm1 2h1v1h-1zm1 2h1v1h-1zm1 1h1v1h-1zm1 2h1v1h-1zm1 1h1v1h-1zm1 1h1v2h-1zm1 2h1v1h-1zm1 1h1v1h-1zm1 1h1v1h-1zm1 1h1v1h-1zm1 1h1v2h-1zm1 2h1v1h-1zm1 1h1v1h-1zm1 1h1v1h-1zm1 1h1v1h-1zm1 1h1v1h-1zm1 1h1v1h-1zm1 1h1v1h-1zm1 1h2v1h-2zm2 1h1v1h-1zm1 1h1v1h-1zm1 1h1v1h-1zm1 1h1v1h-1zm2 1h1v1h-1zm1 1h1v1h-1zm1 1h2v1h-2zm2 1h1v1h-1zm1 1h2v1h-2zm2 1h1v1h-1zm1 1h2v1h-2zm2 1h2v1h-2zm2 1h1v1h-1zm2 1h1v1h-1zm2 1h1v1h-1zm2 1h1v1h-1zm2 1h2v1h-2zm2 1h2v1h-2zm3 1h2v1h-2zm3 1h2v1h-2z"/><path fill="#b12af3" fill-rule="evenodd" d="M24 32h1v1h-1zm10 18h1v1h-1zm5 6h1v1h-1zm5 5h1v1h-1zm27 16h1v1h-1z"/><path fill="#b727f2" fill-rule="evenodd" d="M28 32h1v1h-1zm7 13h1v1h-1zm25 23h1v1h-1z"/><path fill="#d71dcc" fill-rule="evenodd" d="M65 32h1v1h-1z"/><path fill="#d81acf" fill-rule="evenodd" d="M64 33h1v1h-1z"/><path fill="#ba23f1" fill-rule="evenodd" d="M32 34h1v1h-1zm1 2h1v1h-1zm7 11h1v1h-1zm13 13h1v1h-1z"/><path fill="#d719d3" fill-rule="evenodd" d="M63 34h1v1h-1z"/><path fill="#9144fb" fill-rule="evenodd" d="M0 35h1v2h-1zm1 3h1v2h-1zm1 3h1v2h-1zm1 2h1v2h-1zm1 2h1v2h-1zm1 3h1v1h-1zm1 2h1v1h-1zm1 2h1v1h-1zm1 1h1v2h-1zm1 2h1v2h-1zm1 2h1v1h-1zm1 1h1v2h-1zm1 2h1v1h-1zm1 1h1v2h-1zm1 2h1v1h-1zm1 1h1v1h-1zm1 2h1v1h-1zm1 1h1v1h-1zm1 1h1v1h-1zm1 1h1v1h-1zm1 1h1v2h-1zm1 2h1v1h-1zm1 1h1v1h-1zm1 1h1v1h-1zm1 1h1v1h-1zm1 1h1v1h-1zm1 1h1v1h-1zm1 1h1v1h-1zm1 1h1v1h-1zm1 1h2v1h-2zm2 1h1v1h-1zm1 1h1v1h-1zm1 1h1v1h-1zm1 1h2v1h-2zm2 1h1v1h-1zm1 1h1v1h-1zm1 1h2v1h-2zm2 1h1v1h-1zm1 1h2v1h-2zm2 1h1v1h-1zm2 1h1v1h-1zm1 1h2v1h-2zm2 1h2v1h-2zm2 1h2v1h-2zm2 1h2v1h-2zm2 1h2v1h-2zm2 1h2v1h-2zm3 1h2v1h-2zm2 1h2v1h-2z"/><path fill="#9343fb" fill-rule="evenodd" d="M1 35h1v1h-1zm1 3h1v1h-1zm2 5h1v1h-1zm5 10h1v1h-1zm3 5h1v1h-1zm2 3h1v1h-1zm3 4h1v1h-1zm5 6h1v1h-1zm1 1h1v1h-1zm5 5h1v1h-1zm1 1h1v1h-1zm6 5h1v1h-1zm14 9h1v1h-1zm2 1h1v1h-1zm2 1h1v1h-1zm2 1h1v1h-1zm5 2h1v1h-1z"/><path fill="#d516dc" fill-rule="evenodd" d="M61 36h1v1h-1z"/><path fill="#9044fb" fill-rule="evenodd" d="M0 37h1v1h-1zm1 3h1v1h-1zm3 7h1v1h-1zm1 2h1v1h-1zm1 2h1v1h-1zm4 7h1v1h-1zm2 3h1v1h-1zm3 4h1v1h-1zm3 4h1v1h-1zm1 1h1v1h-1zm11 11h1v1h-1zm5 4h1v1h-1zm9 6h1v1h-1zm14 7h1v1h-1z"/><path fill="#9045fb" fill-rule="evenodd" d="M0 38h1v1h-1zm1 3h1v1h-1zm1 2h1v1h-1zm1 2h1v2h-1zm1 3h1v1h-1zm1 2h1v1h-1zm1 2h1v1h-1zm1 1h1v2h-1zm1 2h1v1h-1zm1 2h1v1h-1zm1 2h1v1h-1zm1 1h1v1h-1zm1 2h1v1h-1zm1 1h1v1h-1zm1 1h1v1h-1zm1 2h1v1h-1zm1 1h1v1h-1zm1 1h1v1h-1zm2 3h1v1h-1zm1 1h1v1h-1zm1 1h1v1h-1zm1 1h1v1h-1zm1 1h1v1h-1zm1 1h1v1h-1zm1 1h1v1h-1zm1 1h1v1h-1zm1 1h1v1h-1zm1 1h1v1h-1zm3 2h1v1h-1zm1 1h1v1h-1zm1 1h1v1h-1zm1 1h1v1h-1zm2 1h1v1h-1zm1 1h1v1h-1zm2 1h1v1h-1zm1 1h1v1h-1zm2 1h1v1h-1zm1 1h1v1h-1zm2 1h1v1h-1zm2 1h1v1h-1zm1 1h2v1h-2zm2 1h2v1h-2zm2 1h2v1h-2zm3 1h1v1h-1zm2 1h1v1h-1zm2 1h2v1h-2z"/><path fill="#8f45fb" fill-rule="evenodd" d="M0 39h1v2h-1zm1 3h1v1h-1zm1 2h1v1h-1zm1 3h1v1h-1zm1 2h1v1h-1zm1 2h1v1h-1zm1 2h1v1h-1zm2 3h1v1h-1zm1 2h1v1h-1zm2 3h1v1h-1zm2 3h1v1h-1zm1 1h1v1h-1zm2 3h1v1h-1zm1 1h1v1h-1zm1 1h1v1h-1zm11 11h1v1h-1zm1 1h1v1h-1zm1 1h1v1h-1zm4 3h1v1h-1zm1 1h1v1h-1zm2 1h1v1h-1zm1 1h1v1h-1zm2 1h1v1h-1zm1 1h1v1h-1zm2 1h1v1h-1zm2 1h1v1h-1zm3 2h1v1h-1zm2 1h1v1h-1zm3 1h1v1h-1zm2 1h1v1h-1zm2 1h1v1h-1z"/><path fill="#d312e6" fill-rule="evenodd" d="M58 39h1v1h-1z"/><path fill="#d110eb" fill-rule="evenodd" d="M57 40h1v1h-1z"/><path fill="#8f46fb" fill-rule="evenodd" d="M0 41h1v1h-1zm1 2h1v1h-1zm1 2h1v1h-1zm2 5h1v1h-1zm3 5h1v1h-1zm1 2h1v1h-1zm2 3h1v1h-1zm2 3h1v1h-1zm2 3h1v1h-1zm1 1h1v1h-1zm4 5h1v1h-1zm1 1h1v1h-1zm1 1h1v1h-1zm1 1h1v1h-1zm1 1h1v1h-1zm1 1h1v1h-1zm1 1h1v1h-1zm1 1h1v1h-1zm1 1h1v1h-1zm1 1h1v1h-1zm4 3h1v1h-1zm1 1h1v1h-1zm4 3h1v1h-1zm3 2h1v1h-1zm3 2h1v1h-1zm2 1h1v1h-1zm2 1h1v1h-1zm6 3h1v1h-1zm2 1h1v1h-1zm2 1h1v1h-1z"/><path fill="#d012eb" fill-rule="evenodd" d="M56 41h1v1h-1z"/><path fill="#8e46fc" fill-rule="evenodd" d="M0 42h1v1h-1zm1 2h1v2h-1zm1 3h1v1h-1zm1 2h1v1h-1zm1 2h1v1h-1zm1 2h1v1h-1zm1 2h1v1h-1zm1 1h1v1h-1zm1 2h1v1h-1zm2 3h1v1h-1zm2 3h1v1h-1zm1 1h1v1h-1zm1 2h1v1h-1zm1 1h1v1h-1zm1 1h1v1h-1zm3 4h1v1h-1zm1 1h1v1h-1zm1 1h1v1h-1zm1 1h1v1h-1zm1 1h1v1h-1zm1 1h1v1h-1zm1 1h1v1h-1zm1 1h1v1h-1zm4 3h1v1h-1zm1 1h1v1h-1zm1 1h1v1h-1zm3 2h1v1h-1zm1 1h1v1h-1zm3 2h1v1h-1zm3 2h1v1h-1zm2 1h1v1h-1zm2 1h1v1h-1zm1 1h1v1h-1zm2 1h1v1h-1zm2 1h1v1h-1zm2 1h2v1h-2zm3 1h1v1h-1z"/><path fill="#cd13ec" fill-rule="evenodd" d="M55 42h1v1h-1z"/><path fill="#8e47fc" fill-rule="evenodd" d="M0 43h1v1h-1zm9 17h1v1h-1zm2 3h1v1h-1zm7 9h1v1h-1zm9 9h1v1h-1zm1 1h1v1h-1zm5 4h1v1h-1zm4 3h1v1h-1zm3 2h1v1h-1zm5 3h1v1h-1zm10 5h1v1h-1z"/><path fill="#8d47fc" fill-rule="evenodd" d="M0 44h1v1h-1zm1 2h1v2h-1zm1 2h1v2h-1zm1 2h1v2h-1zm1 2h1v2h-1zm1 2h1v2h-1zm1 2h1v1h-1zm1 1h1v2h-1zm1 2h1v1h-1zm1 2h1v1h-1zm1 1h1v2h-1zm1 2h1v1h-1zm1 1h1v1h-1zm1 1h1v2h-1zm1 2h1v1h-1zm1 1h1v1h-1zm1 1h1v1h-1zm1 1h1v2h-1zm1 2h1v1h-1zm1 1h1v1h-1zm1 1h1v1h-1zm1 1h1v1h-1zm1 1h1v1h-1zm1 1h1v1h-1zm1 1h1v1h-1zm1 1h1v1h-1zm1 1h1v1h-1zm1 1h1v1h-1zm1 1h2v1h-2zm2 1h1v1h-1zm1 1h1v1h-1zm1 1h1v1h-1zm1 1h2v1h-2zm2 1h1v1h-1zm1 1h1v1h-1zm2 1h1v1h-1zm1 1h1v1h-1zm2 1h1v1h-1zm1 1h2v1h-2zm2 1h1v1h-1zm2 1h1v1h-1zm1 1h2v1h-2zm2 1h2v1h-2zm2 1h2v1h-2zm3 1h1v1h-1z"/><path fill="#8c47fc" fill-rule="evenodd" d="M0 45h1v1h-1zm8 15h1v1h-1zm29 30h1v1h-1zm3 2h1v1h-1zm13 7h1v1h-1z"/><path fill="#9343fa" fill-rule="evenodd" d="M5 45h1v1h-1zm1 2h1v1h-1zm1 2h1v1h-1zm1 2h1v1h-1zm16 22h1v1h-1zm1 1h1v1h-1zm1 1h1v1h-1zm1 1h1v1h-1zm7 6h1v1h-1zm10 7h1v1h-1z"/><path fill="#c917ed" fill-rule="evenodd" d="M52 45h1v1h-1z"/><path fill="#8c48fc" fill-rule="evenodd" d="M0 46h1v1h-1zm1 2h1v1h-1zm1 2h1v1h-1zm1 2h1v1h-1zm1 2h1v1h-1zm1 2h1v1h-1zm1 1h1v2h-1zm1 2h1v1h-1zm1 2h1v1h-1zm1 1h1v1h-1zm1 2h1v1h-1zm1 1h1v1h-1zm1 1h1v2h-1zm1 2h1v1h-1zm1 1h1v1h-1zm1 1h1v1h-1zm1 1h1v2h-1zm1 2h1v1h-1zm1 1h1v1h-1zm1 1h1v1h-1zm1 1h1v1h-1zm1 1h1v1h-1zm1 1h1v1h-1zm1 1h1v1h-1zm1 1h1v1h-1zm1 1h1v1h-1zm1 1h1v1h-1zm1 1h1v1h-1zm2 1h1v1h-1zm1 1h1v1h-1zm1 1h1v1h-1zm1 1h1v1h-1zm2 1h1v1h-1zm1 1h1v1h-1zm1 1h1v1h-1zm2 1h1v1h-1zm1 1h1v1h-1zm2 1h1v1h-1zm1 1h2v1h-2zm2 1h2v1h-2zm2 1h1v1h-1zm2 1h1v1h-1zm2 1h1v1h-1zm2 1h1v1h-1z"/><path fill="#8e46fb" fill-rule="evenodd" d="M2 46h1v1h-1zm1 2h1v1h-1zm2 4h1v1h-1zm1 2h1v1h-1zm3 5h1v1h-1zm2 3h1v1h-1zm6 8h1v1h-1zm1 1h1v1h-1zm11 11h1v1h-1zm5 4h1v1h-1zm4 3h1v1h-1zm3 2h1v1h-1zm7 4h1v1h-1zm2 1h1v1h-1zm2 1h1v1h-1z"/><path fill="#c61aee" fill-rule="evenodd" d="M51 46h1v1h-1z"/><path fill="#8b48fc" fill-rule="evenodd" d="M0 47h1v1h-1zm1 2h1v1h-1zm1 2h1v1h-1zm1 2h1v1h-1zm1 2h1v1h-1zm1 2h1v1h-1zm2 3h1v1h-1zm2 3h1v1h-1zm2 3h1v1h-1zm3 4h1v1h-1zm1 1h1v1h-1zm13 13h1v1h-1zm1 1h1v1h-1zm4 3h1v1h-1zm1 1h1v1h-1zm3 2h1v1h-1zm3 2h1v1h-1zm5 3h1v1h-1zm2 1h1v1h-1zm2 1h1v1h-1zm2 1h1v1h-1z"/><path fill="#8b49fc" fill-rule="evenodd" d="M0 48h1v1h-1zm1 2h1v1h-1zm1 2h1v1h-1zm1 2h1v1h-1zm1 2h1v1h-1zm2 3h1v1h-1zm1 2h1v1h-1zm1 1h1v1h-1zm1 2h1v1h-1zm1 1h1v1h-1zm2 3h1v1h-1zm1 1h1v1h-1zm3 4h1v1h-1zm1 1h1v1h-1zm1 1h1v1h-1zm1 1h1v1h-1zm1 1h1v1h-1zm1 1h1v1h-1zm1 1h1v1h-1zm1 1h1v1h-1zm1 1h1v1h-1zm1 1h1v1h-1zm1 1h1v1h-1zm1 1h1v1h-1zm3 2h1v1h-1zm1 1h1v1h-1zm1 1h1v1h-1zm3 2h1v1h-1zm1 1h1v1h-1zm2 1h1v1h-1zm1 1h1v1h-1zm2 1h1v1h-1zm2 1h1v1h-1zm1 1h1v1h-1zm2 1h1v1h-1zm2 1h1v1h-1zm2 1h1v1h-1z"/><path fill="#c21dee" fill-rule="evenodd" d="M49 48h1v1h-1z"/><path fill="#8a49fc" fill-rule="evenodd" d="M0 49h1v1h-1zm1 2h1v1h-1zm1 2h1v1h-1zm1 2h1v1h-1zm1 2h1v1h-1zm1 1h1v1h-1zm1 2h1v1h-1zm2 3h1v1h-1zm2 3h1v1h-1zm1 1h1v1h-1zm2 3h1v1h-1zm1 1h1v1h-1zm1 1h1v1h-1zm3 4h1v1h-1zm1 1h1v1h-1zm1 1h1v1h-1zm1 1h1v1h-1zm1 1h1v1h-1zm1 1h1v1h-1zm5 4h1v1h-1zm1 1h1v1h-1zm1 1h1v1h-1zm3 2h1v1h-1zm1 1h1v1h-1zm3 2h1v1h-1zm3 2h1v1h-1zm2 1h1v1h-1zm3 2h1v1h-1zm2 1h1v1h-1zm2 1h1v1h-1z"/><path fill="#8a4afd" fill-rule="evenodd" d="M0 50h1v1h-1zm1 2h1v1h-1zm1 2h1v1h-1zm3 5h1v1h-1zm4 6h1v1h-1zm2 3h1v1h-1zm4 5h1v1h-1zm1 1h1v1h-1zm1 1h1v1h-1zm8 8h1v1h-1zm1 1h1v1h-1zm1 1h1v1h-1zm4 3h1v1h-1zm1 1h1v1h-1zm3 2h1v1h-1zm3 2h1v1h-1zm3 2h1v1h-1z"/><path fill="#c01ef0" fill-rule="evenodd" d="M49 50h1v1h-1zm1 1h1v1h-1zm1 1h1v1h-1zm1 1h1v1h-1z"/><path fill="#894afd" fill-rule="evenodd" d="M0 51h1v1h-1zm1 2h1v1h-1zm1 2h1v1h-1zm1 1h1v2h-1zm1 2h1v2h-1zm1 2h1v1h-1zm1 1h1v2h-1zm1 2h1v1h-1zm1 1h1v2h-1zm1 2h1v1h-1zm1 1h1v1h-1zm1 2h1v1h-1zm1 1h1v1h-1zm1 1h1v1h-1zm1 1h1v1h-1zm1 2h1v1h-1zm1 1h1v1h-1zm1 1h1v1h-1zm1 1h1v1h-1zm1 1h1v1h-1zm1 1h1v1h-1zm1 1h1v1h-1zm1 1h1v1h-1zm1 1h1v1h-1zm1 1h1v1h-1zm1 1h1v1h-1zm1 1h1v1h-1zm2 1h1v1h-1zm1 1h1v1h-1zm1 1h1v1h-1zm1 1h1v1h-1zm2 1h1v1h-1zm1 1h1v1h-1zm1 1h2v1h-2zm2 1h1v1h-1zm1 1h2v1h-2zm2 1h1v1h-1zm2 1h1v1h-1zm1 1h2v1h-2zm2 1h2v1h-2zm2 1h2v1h-2z"/><path fill="#884bfd" fill-rule="evenodd" d="M0 52h1v2h-1zm1 2h1v2h-1zm1 2h1v2h-1zm1 2h1v1h-1zm1 2h1v1h-1zm1 1h1v2h-1zm1 2h1v1h-1zm1 1h1v2h-1zm1 2h1v1h-1zm1 1h1v1h-1zm1 2h1v1h-1zm1 1h1v1h-1zm1 1h1v1h-1zm1 1h1v2h-1zm1 2h1v1h-1zm1 1h1v1h-1zm1 1h1v1h-1zm1 1h1v1h-1zm1 1h1v1h-1zm1 1h1v1h-1zm1 1h1v1h-1zm1 1h1v1h-1zm1 1h1v1h-1zm1 1h1v1h-1zm1 1h1v1h-1zm1 1h1v1h-1zm1 1h1v1h-1zm2 1h1v1h-1zm1 1h1v1h-1zm1 1h1v1h-1zm1 1h2v1h-2zm2 1h1v1h-1zm1 1h1v1h-1zm1 1h2v1h-2zm2 1h1v1h-1zm2 1h1v1h-1zm1 1h2v1h-2zm2 1h1v1h-1zm2 1h1v1h-1zm1 1h2v1h-2z"/><path fill="#874cfd" fill-rule="evenodd" d="M0 54h1v2h-1zm1 2h1v1h-1zm1 2h1v1h-1zm1 2h1v1h-1zm1 1h1v1h-1zm1 2h1v1h-1zm1 1h1v1h-1zm1 2h1v1h-1zm1 1h1v1h-1zm1 2h1v1h-1zm1 1h1v1h-1zm1 1h1v1h-1zm2 3h1v1h-1zm1 1h1v1h-1zm1 1h1v1h-1zm1 1h1v1h-1zm1 1h1v1h-1zm1 1h1v1h-1zm1 1h1v1h-1zm1 1h1v1h-1zm1 1h1v1h-1zm1 1h1v1h-1zm1 1h1v1h-1zm1 1h1v1h-1zm1 1h1v1h-1zm1 1h1v1h-1zm2 1h1v1h-1zm1 1h1v1h-1zm1 1h1v1h-1zm1 1h1v1h-1zm2 1h1v1h-1zm1 1h1v1h-1zm2 1h1v1h-1zm1 1h1v1h-1zm2 1h1v1h-1zm1 1h1v1h-1zm2 1h1v1h-1zm2 1h1v1h-1z"/><path fill="#864dfd" fill-rule="evenodd" d="M0 56h1v1h-1zm1 2h1v1h-1zm2 3h1v1h-1zm1 2h1v1h-1zm2 3h1v1h-1zm3 4h1v1h-1zm3 4h1v1h-1zm1 1h1v1h-1zm1 1h1v1h-1zm1 1h1v1h-1zm8 8h1v1h-1zm1 1h1v1h-1zm1 1h1v1h-1zm1 1h1v1h-1zm3 2h1v1h-1zm1 1h1v1h-1zm3 2h1v1h-1zm1 1h1v1h-1zm2 1h1v1h-1zm1 1h1v1h-1zm2 1h1v1h-1zm3 2h1v1h-1z"/><path fill="#c01eef" fill-rule="evenodd" d="M55 56h1v1h-1zm1 1h1v1h-1z"/><path fill="#854dfe" fill-rule="evenodd" d="M0 57h1v1h-1zm1 2h1v1h-1zm1 2h1v1h-1zm1 1h1v1h-1zm1 2h1v1h-1zm1 1h1v1h-1zm1 2h1v1h-1zm1 1h1v1h-1zm2 3h1v1h-1zm1 1h1v1h-1zm1 1h1v1h-1zm2 3h1v1h-1zm1 1h1v1h-1zm1 1h1v1h-1zm1 1h1v1h-1zm1 1h1v1h-1zm1 1h1v1h-1zm1 1h1v1h-1zm1 1h1v1h-1zm1 1h1v1h-1zm1 1h1v1h-1zm1 1h1v1h-1zm1 1h1v1h-1zm3 2h1v1h-1zm1 1h1v1h-1zm1 1h1v1h-1zm2 1h1v1h-1zm1 1h1v1h-1zm1 1h1v1h-1zm2 1h1v1h-1zm1 1h1v1h-1zm2 1h1v1h-1zm2 1h1v1h-1zm1 1h1v1h-1z"/><path fill="#864cfd" fill-rule="evenodd" d="M1 57h1v1h-1zm1 2h1v1h-1zm2 3h1v1h-1zm1 2h1v1h-1zm1 1h1v1h-1zm1 2h1v1h-1zm1 1h1v1h-1zm2 3h1v1h-1zm1 1h1v1h-1zm1 1h1v1h-1zm4 5h1v1h-1zm1 1h1v1h-1zm1 1h1v1h-1zm1 1h1v1h-1zm1 1h1v1h-1zm1 1h1v1h-1zm1 1h1v1h-1zm5 4h1v1h-1zm1 1h1v1h-1zm4 3h1v1h-1zm3 2h1v1h-1zm3 2h1v1h-1zm3 2h1v1h-1zm2 1h1v1h-1z"/><path fill="#854efe" fill-rule="evenodd" d="M0 58h1v1h-1zm3 5h1v1h-1zm2 3h1v1h-1zm3 4h1v1h-1zm3 4h1v1h-1zm1 1h1v1h-1zm13 13h1v1h-1zm1 1h1v1h-1zm4 3h1v1h-1zm9 6h1v1h-1z"/><path fill="#bf1eef" fill-rule="evenodd" d="M57 58h1v1h-1zm1 1h1v1h-1z"/><path fill="#844efe" fill-rule="evenodd" d="M0 59h1v1h-1zm1 1h1v2h-1zm1 2h1v1h-1zm1 2h1v1h-1zm1 1h1v1h-1zm1 2h1v1h-1zm1 1h1v1h-1zm1 1h1v2h-1zm1 2h1v1h-1zm1 1h1v1h-1zm1 1h1v1h-1zm1 2h1v1h-1zm1 1h1v1h-1zm1 1h1v1h-1zm1 1h1v1h-1zm1 1h1v1h-1zm1 1h1v1h-1zm1 1h1v1h-1zm1 1h1v1h-1zm1 1h1v1h-1zm1 1h1v1h-1zm1 1h1v1h-1zm1 1h1v1h-1zm1 1h1v1h-1zm1 1h1v1h-1zm1 1h1v1h-1zm2 1h1v1h-1zm1 1h1v1h-1zm1 1h1v1h-1zm1 1h2v1h-2zm2 1h1v1h-1zm1 1h2v1h-2zm2 1h1v1h-1zm1 1h2v1h-2zm2 1h1v1h-1zm1 1h2v1h-2z"/><path fill="#874bfd" fill-rule="evenodd" d="M3 59h1v1h-1zm6 9h1v1h-1zm3 4h1v1h-1zm15 15h1v1h-1zm5 4h1v1h-1zm6 4h1v1h-1zm3 2h1v1h-1zm2 1h1v1h-1z"/><path fill="#834ffe" fill-rule="evenodd" d="M0 60h1v1h-1zm1 2h1v1h-1zm1 1h1v2h-1zm1 2h1v1h-1zm1 1h1v2h-1zm1 2h1v1h-1zm1 1h1v2h-1zm1 2h1v1h-1zm1 1h1v1h-1zm1 1h1v1h-1zm1 2h1v1h-1zm1 1h1v1h-1zm1 1h1v1h-1zm1 1h1v1h-1zm1 1h1v1h-1zm1 1h1v1h-1zm1 1h1v1h-1zm1 1h1v1h-1zm1 1h1v1h-1zm1 1h1v1h-1zm1 1h1v1h-1zm1 1h1v1h-1zm1 1h1v1h-1zm1 1h1v1h-1zm1 1h1v1h-1zm1 1h2v1h-2zm2 1h1v1h-1zm1 1h1v1h-1zm1 1h1v1h-1zm2 1h1v1h-1zm1 1h1v1h-1zm1 1h2v1h-2zm2 1h1v1h-1zm1 1h2v1h-2zm2 1h1v1h-1z"/><path fill="#864dfe" fill-rule="evenodd" d="M2 60h1v1h-1zm6 9h1v1h-1z"/><path fill="#bf1fef" fill-rule="evenodd" d="M59 60h1v1h-1zm1 1h1v1h-1z"/><path fill="#824ffe" fill-rule="evenodd" d="M0 61h1v1h-1zm1 2h1v1h-1zm2 3h1v1h-1zm2 3h1v1h-1zm3 4h1v1h-1zm1 1h1v1h-1zm5 6h1v1h-1zm1 1h1v1h-1zm1 1h1v1h-1zm1 1h1v1h-1zm1 1h1v1h-1zm1 1h1v1h-1zm1 1h1v1h-1zm6 5h1v1h-1zm4 3h1v1h-1zm4 3h1v1h-1z"/><path fill="#8250fe" fill-rule="evenodd" d="M0 62h1v1h-1zm1 2h1v1h-1zm1 1h1v1h-1zm1 2h1v1h-1zm1 1h1v1h-1zm2 3h1v1h-1zm1 1h1v1h-1zm2 3h1v1h-1zm1 1h1v1h-1zm1 1h1v1h-1zm1 1h1v1h-1zm1 1h1v1h-1zm8 8h1v1h-1zm1 1h1v1h-1zm1 1h1v1h-1zm1 1h1v1h-1zm1 1h1v1h-1zm2 1h1v1h-1zm1 1h1v1h-1zm1 1h1v1h-1zm2 1h1v1h-1zm1 1h1v1h-1zm3 2h1v1h-1zm2 1h1v1h-1z"/><path fill="#8a49fd" fill-rule="evenodd" d="M7 62h1v1h-1zm5 7h1v1h-1zm12 13h1v1h-1zm19 14h1v1h-1z"/><path fill="#be1ff0" fill-rule="evenodd" d="M61 62h1v1h-1z"/><path fill="#8150ff" fill-rule="evenodd" d="M0 63h1v1h-1zm2 3h1v1h-1zm2 3h1v1h-1zm3 4h1v1h-1zm4 5h1v1h-1zm1 1h1v1h-1zm9 9h1v1h-1zm1 1h1v1h-1zm5 4h1v1h-1zm4 3h1v1h-1zm3 2h1v1h-1z"/><path fill="#8051ff" fill-rule="evenodd" d="M0 64h1v1h-1zm1 2h1v1h-1zm1 1h1v2h-1zm1 2h1v1h-1zm1 1h1v1h-1zm1 2h1v1h-1zm1 1h1v1h-1zm1 1h1v1h-1zm1 2h1v1h-1zm1 1h1v1h-1zm1 1h1v1h-1zm1 1h1v1h-1zm1 1h1v1h-1zm1 1h1v1h-1zm1 1h1v1h-1zm1 1h1v1h-1zm1 1h1v1h-1zm1 1h1v1h-1zm1 1h1v1h-1zm1 1h1v1h-1zm1 1h1v1h-1zm1 1h1v1h-1zm1 1h1v1h-1zm1 1h1v1h-1zm2 1h1v1h-1zm1 1h1v1h-1zm1 1h1v1h-1zm1 1h1v1h-1zm2 1h1v1h-1zm1 1h1v1h-1zm2 1h1v1h-1zm1 1h1v1h-1z"/><path fill="#bd20f0" fill-rule="evenodd" d="M63 64h1v1h-1z"/><path fill="#8052ff" fill-rule="evenodd" d="M0 65h1v1h-1zm4 6h1v1h-1zm20 21h1v1h-1zm8 6h1v1h-1z"/><path fill="#8151ff" fill-rule="evenodd" d="M1 65h1v1h-1zm2 3h1v1h-1zm2 3h1v1h-1zm1 1h1v1h-1zm2 3h1v1h-1zm1 1h1v1h-1zm1 1h1v1h-1zm13 13h1v1h-1zm1 1h1v1h-1zm4 3h1v1h-1zm1 1h1v1h-1zm3 2h1v1h-1zm3 2h1v1h-1z"/><path fill="#bc21f0" fill-rule="evenodd" d="M64 65h1v1h-1z"/><path fill="#7f52ff" fill-rule="evenodd" d="M0 66h1v1h1v2h1v1h1v2h1v1h1v1h1v1h1v2h1v1h1v1h1v1h1v1h1v1h1v1h1v1h1v1h1v1h1v1h1v1h1v1h1v1h1v1h1v1h1v1h2v1h1v1h1v1h2v1h1v1h1v1h2v1h-34z"/><path fill="#bb21f0" fill-rule="evenodd" d="M65 66h1v1h-1z"/><path fill="#bc23f0" fill-rule="evenodd" d="M66 67h1v1h-1z"/><path fill="#894bfd" fill-rule="evenodd" d="M10 68h1v1h-1zm4 5h1v1h-1zm13 13h1v1h-1z"/><path fill="#bb23f0" fill-rule="evenodd" d="M67 68h1v1h-1z"/><path fill="#ba24f0" fill-rule="evenodd" d="M68 69h1v1h-1z"/><path fill="#8150fe" fill-rule="evenodd" d="M5 70h1v1h-1zm3 4h1v1h-1zm5 6h1v1h-1zm1 1h1v1h-1zm1 1h1v1h-1zm1 1h1v1h-1zm1 1h1v1h-1zm1 1h1v1h-1zm1 1h1v1h-1zm1 1h1v1h-1zm6 5h1v1h-1zm4 3h1v1h-1zm3 2h1v1h-1zm3 2h1v1h-1z"/><path fill="#b924f1" fill-rule="evenodd" d="M69 70h1v1h-1z"/><path fill="#b925f1" fill-rule="evenodd" d="M70 71h1v1h-1z"/><path fill="#b825f1" fill-rule="evenodd" d="M71 72h1v1h-1z"/><path fill="#b726f1" fill-rule="evenodd" d="M72 73h1v1h-1z"/><path fill="#834efe" fill-rule="evenodd" d="M10 74h1v1h-1z"/><path fill="#b627f1" fill-rule="evenodd" d="M73 74h1v1h-1z"/><path fill="#b527f2" fill-rule="evenodd" d="M74 75h1v1h-1z"/><path fill="#b428f2" fill-rule="evenodd" d="M75 76h1v1h-1z"/><path fill="#b329f2" fill-rule="evenodd" d="M76 77h1v1h-1z"/><path fill="#b12af2" fill-rule="evenodd" d="M77 78h1v1h-1z"/><path fill="#b02af2" fill-rule="evenodd" d="M78 79h1v1h-1z"/><path fill="#af2bf3" fill-rule="evenodd" d="M79 80h1v1h-1z"/><path fill="#ae2cf3" fill-rule="evenodd" d="M80 81h1v1h-1z"/><path fill="#ad2df3" fill-rule="evenodd" d="M81 82h1v1h-1z"/><path fill="#ac2ef3" fill-rule="evenodd" d="M82 83h1v1h-1z"/><path fill="#ab2ff4" fill-rule="evenodd" d="M83 84h1v1h-1z"/><path fill="#aa30f4" fill-rule="evenodd" d="M84 85h1v1h-1z"/><path fill="#a930f4" fill-rule="evenodd" d="M85 86h1v1h-1z"/><path fill="#a831f4" fill-rule="evenodd" d="M86 87h1v1h-1z"/><path fill="#a632f5" fill-rule="evenodd" d="M87 88h1v1h-1z"/><path fill="#9244fb" fill-rule="evenodd" d="M63 99h1v1h-1z"/></svg>