<svg xmlns="http://www.w3.org/2000/svg" viewBox="0 0 100 100" width="1em" height="1em"><path fill="#1c3c3c" d="M20 25h1v1h-1zM25 25h50v1h-50zM17 26h1v1h-1zM19 26h62v1h-62zM82 26h1v1h-1zM16 27h68v1h-68zM14 28h72v1h-72zM12 29h76v1h-76zM11 30h78v1h-78zM8 31h83v1h-83zM8 32h16v1h-16zM25 32h68v1h-68zM6 33h15v1h-15zM29 33h64v1h-64zM6 34h15v1h-15zM30 34h45v1h-45zM78 34h16v1h-16zM5 35h16v1h-16zM31 35h41v1h-41zM80 35h14v1h-14zM5 36h14v1h-14zM32 36h39v1h-39zM83 36h12v1h-12zM4 37h14v1h-14zM31 37h38v1h-38zM83 37h14v1h-14zM4 38h14v1h-14zM32 38h36v1h-36zM84 38h12v1h-12zM2 39h16v1h-16zM33 39h34v1h-34zM75 39h3v1h-3zM79 39h1v1h-1zM85 39h12v1h-12zM3 40h15v1h-15zM34 40h32v1h-32zM73 40h7v1h-7zM85 40h12v1h-12zM2 41h16v1h-16zM35 41h31v1h-31zM72 41h8v1h-8zM86 41h12v1h-12zM2 42h16v1h-16zM19 42h5v1h-5zM35 42h30v1h-30zM71 42h10v1h-10zM86 42h13v1h-13zM1 43h23v1h-23zM36 43h28v1h-28zM70 43h11v1h-11zM86 43h13v1h-13zM1 44h23v1h-23zM37 44h25v1h-25zM72 44h9v1h-9zM86 44h13v1h-13zM1 45h24v1h-24zM38 45h24v1h-24zM73 45h8v1h-8zM86 45h14v1h-14zM1 46h23v1h-23zM40 46h20v1h-20zM74 46h6v1h-6zM85 46h14v1h-14zM1 47h24v1h-24zM41 47h18v1h-18zM75 47h4v1h-4zM85 47h14v1h-14zM0 48h25v1h-25zM41 48h17v1h-17zM68 48h1v1h-1zM75 48h3v1h-3zM84 48h15v1h-15zM1 49h24v1h-24zM42 49h15v1h-15zM63 49h2v1h-2zM69 49h1v1h-1zM76 49h1v1h-1zM83 49h16v1h-16zM1 50h25v1h-25zM43 50h13v1h-13zM63 50h1v1h-1zM70 50h1v1h-1zM83 50h16v1h-16zM0 51h26v1h-26zM44 51h12v1h-12zM62 51h3v1h-3zM82 51h17v1h-17zM1 52h25v1h-25zM44 52h11v1h-11zM61 52h5v1h-5zM80 52h19v1h-19zM1 53h25v1h-25zM45 53h10v1h-10zM60 53h7v1h-7zM71 53h1v1h-1zM79 53h20v1h-20zM1 54h26v1h-26zM45 54h9v1h-9zM59 54h8v1h-8zM68 54h1v1h-1zM70 54h2v1h-2zM77 54h23v1h-23zM1 55h27v1h-27zM46 55h8v1h-8zM59 55h10v1h-10zM75 55h24v1h-24zM1 56h28v1h-28zM46 56h8v1h-8zM59 56h10v1h-10zM75 56h24v1h-24zM2 57h28v1h-28zM47 57h8v1h-8zM59 57h9v1h-9zM75 57h23v1h-23zM2 58h29v1h-29zM47 58h8v1h-8zM60 58h7v1h-7zM74 58h24v1h-24zM3 59h28v1h-28zM47 59h8v1h-8zM61 59h5v1h-5zM73 59h24v1h-24zM3 60h28v1h-28zM47 60h8v1h-8zM72 60h25v1h-25zM4 61h28v1h-28zM40 61h1v1h-1zM49 61h7v1h-7zM71 61h25v1h-25zM3 62h29v1h-29zM35 62h1v1h-1zM39 62h4v1h-4zM49 62h8v1h-8zM69 62h27v1h-27zM5 63h21v1h-21zM28 63h1v1h-1zM34 63h3v1h-3zM39 63h6v1h-6zM51 63h8v1h-8zM69 63h26v1h-26zM6 64h19v1h-19zM40 64h1v1h-1zM42 64h3v1h-3zM50 64h11v1h-11zM62 64h1v1h-1zM67 64h27v1h-27zM6 65h20v1h-20zM43 65h51v1h-51zM6 66h29v1h-29zM37 66h56v1h-56zM8 67h84v1h-84zM8 68h83v1h-83zM11 69h78v1h-78zM12 70h76v1h-76zM14 71h72v1h-72zM16 72h68v1h-68zM19 73h62v1h-62zM24 74h52v1h-52zM77 74h2v1h-2z" /><path fill="#1c3b3b" d="M21 25h1v1h-1zM24 25h1v1h-1zM75 25h1v1h-1zM78 25h2v1h-2zM18 26h1v1h-1zM81 26h1v1h-1zM84 27h2v1h-2zM10 30h1v1h-1zM77 34h1v1h-1zM94 35h1v1h-1zM82 36h1v1h-1zM95 36h1v1h-1zM3 38h1v1h-1zM96 38h1v1h-1zM84 39h1v1h-1zM2 40h1v1h-1zM19 41h2v1h-2zM34 41h1v1h-1zM80 41h1v1h-1zM85 42h1v1h-1zM81 43h1v1h-1zM85 43h1v1h-1zM69 44h1v1h-1zM24 46h1v1h-1zM68 46h1v1h-1zM40 47h1v1h-1zM59 47h1v1h-1zM99 47h1v1h-1zM69 48h1v1h-1zM99 48h1v1h-1zM70 49h1v1h-1zM42 50h1v1h-1zM62 50h1v1h-1zM69 50h1v1h-1zM82 50h1v1h-1zM81 51h1v1h-1zM99 51h1v1h-1zM71 52h1v1h-1zM99 52h1v1h-1zM59 53h1v1h-1zM0 54h1v1h-1zM67 54h1v1h-1zM54 55h1v1h-1zM69 55h1v1h-1zM54 56h1v1h-1zM68 57h1v1h-1zM74 57h1v1h-1zM98 57h1v1h-1zM67 58h1v1h-1zM62 60h1v1h-1zM3 61h1v1h-1zM35 61h1v1h-1zM42 61h1v1h-1zM48 61h1v1h-1zM56 61h1v1h-1zM70 61h1v1h-1zM96 61h1v1h-1zM57 62h1v1h-1zM26 63h1v1h-1zM30 63h1v1h-1zM68 63h1v1h-1zM95 63h1v1h-1zM5 64h1v1h-1zM47 64h1v1h-1zM61 64h1v1h-1zM64 64h2v1h-2zM94 64h1v1h-1zM92 67h1v1h-1zM88 70h1v1h-1zM13 71h1v1h-1zM84 72h2v1h-2zM17 73h2v1h-2zM21 74h2v1h-2z" /><path fill="#1b3b3b" d="M22 25h1v1h-1zM77 25h1v1h-1zM15 27h1v1h-1zM13 28h1v1h-1zM91 31h1v1h-1zM93 33h1v1h-1zM19 36h1v1h-1zM31 36h1v1h-1zM3 37h1v1h-1zM68 38h1v1h-1zM32 39h1v1h-1zM74 39h1v1h-1zM80 40h1v1h-1zM22 41h1v1h-1zM85 41h1v1h-1zM64 43h1v1h-1zM62 44h2v1h-2zM0 45h1v1h-1zM72 45h1v1h-1zM85 45h1v1h-1zM60 46h1v1h-1zM99 46h1v1h-1zM84 47h1v1h-1zM25 49h1v1h-1zM57 49h1v1h-1zM75 49h1v1h-1zM99 49h1v1h-1zM64 50h1v1h-1zM99 50h1v1h-1zM71 51h1v1h-1zM26 52h1v1h-1zM43 52h1v1h-1zM55 52h1v1h-1zM60 52h1v1h-1zM78 53h1v1h-1zM99 53h1v1h-1zM27 54h1v1h-1zM45 55h1v1h-1zM70 55h1v1h-1zM45 56h1v1h-1zM1 57h1v1h-1zM46 58h1v1h-1zM73 58h1v1h-1zM72 59h1v1h-1zM2 60h1v1h-1zM55 60h1v1h-1zM64 60h1v1h-1zM41 61h1v1h-1zM34 62h1v1h-1zM43 62h1v1h-1zM31 63h1v1h-1zM50 63h1v1h-1zM67 63h1v1h-1zM39 64h1v1h-1zM46 64h1v1h-1zM48 64h2v1h-2zM26 65h1v1h-1zM30 65h1v1h-1zM42 65h1v1h-1zM15 72h1v1h-1zM20 74h1v1h-1zM23 74h1v1h-1zM76 74h1v1h-1z" /><path fill="#1b3c3c" d="M23 25h1v1h-1zM76 25h1v1h-1zM86 28h1v1h-1zM11 29h1v1h-1zM88 29h1v1h-1zM89 30h1v1h-1zM7 32h1v1h-1zM24 32h1v1h-1zM21 33h1v1h-1zM27 33h2v1h-2zM29 34h1v1h-1zM75 34h2v1h-2zM30 35h1v1h-1zM72 35h1v1h-1zM4 36h1v1h-1zM18 37h1v1h-1zM69 37h1v1h-1zM67 39h1v1h-1zM78 39h1v1h-1zM97 39h1v1h-1zM33 40h1v1h-1zM66 40h1v1h-1zM97 40h1v1h-1zM1 42h1v1h-1zM18 42h1v1h-1zM65 42h1v1h-1zM24 44h1v1h-1zM71 44h1v1h-1zM85 44h1v1h-1zM68 45h1v1h-1zM0 46h1v1h-1zM39 46h1v1h-1zM0 47h1v1h-1zM68 47h1v1h-1zM74 47h1v1h-1zM58 48h1v1h-1zM0 49h1v1h-1zM41 49h1v1h-1zM0 50h1v1h-1zM56 50h1v1h-1zM71 50h1v1h-1zM43 51h1v1h-1zM61 51h1v1h-1zM0 52h1v1h-1zM0 53h1v1h-1zM26 53h1v1h-1zM44 53h1v1h-1zM54 54h1v1h-1zM69 56h1v1h-1zM30 57h1v1h-1zM46 57h1v1h-1zM59 58h1v1h-1zM2 59h1v1h-1zM55 59h1v1h-1zM60 59h1v1h-1zM66 59h1v1h-1zM97 59h1v1h-1zM63 60h1v1h-1zM71 60h1v1h-1zM97 60h1v1h-1zM39 61h1v1h-1zM36 62h1v1h-1zM96 62h1v1h-1zM4 63h1v1h-1zM27 63h1v1h-1zM29 63h1v1h-1zM33 63h1v1h-1zM25 64h1v1h-1zM35 64h1v1h-1zM41 64h1v1h-1zM45 64h1v1h-1zM66 64h1v1h-1zM31 65h2v1h-2zM35 65h1v1h-1zM93 66h1v1h-1zM7 67h1v1h-1zM91 68h1v1h-1zM10 69h1v1h-1zM89 69h1v1h-1zM11 70h1v1h-1zM86 71h1v1h-1zM81 73h2v1h-2zM79 74h1v1h-1z" /></svg>