<svg xmlns="http://www.w3.org/2000/svg" viewBox="0 0 100 100" width="1em" height="1em"><path fill="#000000" d="M60 17h14v1h-14zM57 18h20v1h-20zM25 19h14v1h-14zM55 19h5v1h-5zM74 19h6v1h-6zM22 20h20v1h-20zM53 20h4v1h-4zM77 20h5v1h-5zM19 21h6v1h-6zM39 21h5v1h-5zM51 21h4v1h-4zM79 21h4v1h-4zM18 22h4v1h-4zM42 22h4v1h-4zM50 22h3v1h-3zM81 22h4v1h-4zM16 23h4v1h-4zM44 23h8v1h-8zM83 23h3v1h-3zM95 23h4v1h-4zM1 24h4v1h-4zM15 24h3v1h-3zM46 24h4v1h-4zM84 24h3v1h-3zM94 24h6v1h-6zM0 25h6v1h-6zM14 25h3v1h-3zM47 25h2v1h-2zM85 25h3v1h-3zM92 25h4v1h-4zM98 25h2v1h-2zM0 26h2v1h-2zM4 26h3v1h-3zM13 26h2v1h-2zM46 26h2v1h-2zM86 26h3v1h-3zM90 26h4v1h-4zM98 26h2v1h-2zM0 27h2v1h-2zM5 27h4v1h-4zM12 27h2v1h-2zM45 27h2v1h-2zM87 27h6v1h-6zM98 27h2v1h-2zM0 28h2v1h-2zM7 28h3v1h-3zM11 28h2v1h-2zM43 28h2v1h-2zM87 28h4v1h-4zM98 28h2v1h-2zM0 29h2v1h-2zM8 29h4v1h-4zM42 29h2v1h-2zM85 29h4v1h-4zM98 29h2v1h-2zM0 30h2v1h-2zM10 30h2v1h-2zM40 30h3v1h-3zM83 30h3v1h-3zM98 30h2v1h-2zM0 31h2v1h-2zM9 31h2v1h-2zM39 31h2v1h-2zM81 31h4v1h-4zM98 31h2v1h-2zM0 32h2v1h-2zM9 32h1v1h-1zM37 32h2v1h-2zM62 32h6v1h-6zM76 32h6v1h-6zM98 32h2v1h-2zM0 33h2v1h-2zM8 33h2v1h-2zM35 33h3v1h-3zM59 33h20v1h-20zM98 33h2v1h-2zM0 34h2v1h-2zM8 34h1v1h-1zM33 34h3v1h-3zM57 34h3v1h-3zM98 34h2v1h-2zM0 35h2v1h-2zM7 35h2v1h-2zM30 35h4v1h-4zM55 35h2v1h-2zM98 35h2v1h-2zM0 36h2v1h-2zM7 36h1v1h-1zM28 36h3v1h-3zM54 36h2v1h-2zM98 36h2v1h-2zM0 37h2v1h-2zM6 37h2v1h-2zM27 37h2v1h-2zM53 37h2v1h-2zM98 37h2v1h-2zM1 38h2v1h-2zM6 38h2v1h-2zM26 38h2v1h-2zM52 38h1v1h-1zM98 38h2v1h-2zM1 39h3v1h-3zM6 39h1v1h-1zM25 39h1v1h-1zM51 39h1v1h-1zM97 39h3v1h-3zM2 40h5v1h-5zM24 40h1v1h-1zM50 40h2v1h-2zM95 40h4v1h-4zM3 41h4v1h-4zM23 41h2v1h-2zM48 41h4v1h-4zM93 41h4v1h-4zM4 42h3v1h-3zM22 42h2v1h-2zM47 42h7v1h-7zM90 42h5v1h-5zM5 43h2v1h-2zM22 43h1v1h-1zM45 43h4v1h-4zM51 43h5v1h-5zM87 43h5v1h-5zM93 43h2v1h-2zM4 44h2v1h-2zM21 44h2v1h-2zM43 44h4v1h-4zM53 44h6v1h-6zM83 44h6v1h-6zM94 44h2v1h-2zM4 45h2v1h-2zM21 45h2v1h-2zM39 45h7v1h-7zM55 45h13v1h-13zM76 45h10v1h-10zM94 45h2v1h-2zM4 46h2v1h-2zM20 46h23v1h-23zM59 46h22v1h-22zM94 46h2v1h-2zM4 47h2v1h-2zM20 47h19v1h-19zM67 47h10v1h-10zM78 47h2v1h-2zM94 47h2v1h-2zM4 48h2v1h-2zM20 48h2v1h-2zM78 48h2v1h-2zM94 48h2v1h-2zM4 49h2v1h-2zM20 49h2v1h-2zM78 49h2v1h-2zM94 49h2v1h-2zM4 50h2v1h-2zM20 50h2v1h-2zM78 50h2v1h-2zM94 50h2v1h-2zM4 51h2v1h-2zM20 51h2v1h-2zM78 51h2v1h-2zM94 51h2v1h-2zM4 52h2v1h-2zM20 52h2v1h-2zM60 52h20v1h-20zM94 52h2v1h-2zM4 53h2v1h-2zM20 53h20v1h-20zM56 53h26v1h-26zM94 53h2v1h-2zM4 54h2v1h-2zM20 54h24v1h-24zM54 54h6v1h-6zM79 54h7v1h-7zM94 54h2v1h-2zM4 55h2v1h-2zM20 55h1v1h-1zM40 55h6v1h-6zM53 55h4v1h-4zM83 55h5v1h-5zM94 55h2v1h-2zM4 56h2v1h-2zM20 56h1v1h-1zM44 56h4v1h-4zM51 56h4v1h-4zM86 56h4v1h-4zM93 56h2v1h-2zM5 57h2v1h-2zM20 57h2v1h-2zM46 57h7v1h-7zM89 57h6v1h-6zM3 58h4v1h-4zM20 58h2v1h-2zM48 58h4v1h-4zM91 58h4v1h-4zM1 59h6v1h-6zM21 59h1v1h-1zM49 59h3v1h-3zM93 59h4v1h-4zM0 60h3v1h-3zM6 60h1v1h-1zM22 60h1v1h-1zM51 60h2v1h-2zM95 60h3v1h-3zM0 61h2v1h-2zM6 61h2v1h-2zM22 61h2v1h-2zM52 61h2v1h-2zM96 61h3v1h-3zM0 62h2v1h-2zM6 62h2v1h-2zM23 62h2v1h-2zM53 62h3v1h-3zM98 62h2v1h-2zM0 63h2v1h-2zM7 63h1v1h-1zM24 63h2v1h-2zM55 63h3v1h-3zM69 63h6v1h-6zM98 63h2v1h-2zM0 64h2v1h-2zM7 64h2v1h-2zM25 64h3v1h-3zM56 64h24v1h-24zM98 64h2v1h-2zM0 65h2v1h-2zM7 65h2v1h-2zM27 65h3v1h-3zM59 65h9v1h-9zM77 65h6v1h-6zM98 65h2v1h-2zM0 66h2v1h-2zM8 66h1v1h-1zM29 66h5v1h-5zM81 66h4v1h-4zM98 66h2v1h-2zM0 67h2v1h-2zM8 67h2v1h-2zM32 67h6v1h-6zM84 67h3v1h-3zM98 67h2v1h-2zM0 68h2v1h-2zM9 68h1v1h-1zM35 68h6v1h-6zM86 68h2v1h-2zM98 68h2v1h-2zM0 69h2v1h-2zM9 69h2v1h-2zM39 69h5v1h-5zM87 69h3v1h-3zM98 69h2v1h-2zM0 70h2v1h-2zM10 70h2v1h-2zM42 70h4v1h-4zM88 70h4v1h-4zM98 70h2v1h-2zM0 71h2v1h-2zM9 71h3v1h-3zM45 71h3v1h-3zM87 71h6v1h-6zM98 71h2v1h-2zM0 72h2v1h-2zM7 72h6v1h-6zM47 72h3v1h-3zM86 72h3v1h-3zM91 72h4v1h-4zM98 72h2v1h-2zM0 73h2v1h-2zM6 73h3v1h-3zM11 73h3v1h-3zM49 73h2v1h-2zM85 73h3v1h-3zM93 73h3v1h-3zM98 73h2v1h-2zM0 74h2v1h-2zM4 74h4v1h-4zM12 74h3v1h-3zM50 74h3v1h-3zM84 74h3v1h-3zM94 74h6v1h-6zM0 75h6v1h-6zM13 75h3v1h-3zM50 75h4v1h-4zM83 75h3v1h-3zM95 75h4v1h-4zM1 76h4v1h-4zM14 76h3v1h-3zM48 76h7v1h-7zM81 76h3v1h-3zM16 77h3v1h-3zM47 77h3v1h-3zM53 77h4v1h-4zM79 77h4v1h-4zM17 78h4v1h-4zM45 78h4v1h-4zM55 78h5v1h-5zM77 78h4v1h-4zM19 79h4v1h-4zM43 79h4v1h-4zM57 79h7v1h-7zM73 79h6v1h-6zM21 80h5v1h-5zM39 80h6v1h-6zM60 80h17v1h-17zM23 81h20v1h-20zM64 81h9v1h-9zM26 82h13v1h-13z" /><path fill="#000101" d="M60 19h1v1h-1zM26 39h1v1h-1zM55 76h1v1h-1z" /><path fill="#021323" d="M61 19h1v1h-1zM48 26h1v1h-1z" /><path fill="#042545" d="M62 19h1v1h-1z" /><path fill="#053463" d="M63 19h1v1h-1zM5 28h1v1h-1z" /><path fill="#074079" d="M64 19h1v1h-1zM42 31h1v1h-1zM63 31h1v1h-1zM51 37h1v1h-1zM8 69h1v1h-1z" /><path fill="#074785" d="M65 19h1v1h-1zM5 62h1v1h-1z" /><path fill="#084d91" d="M66 19h2v1h-2zM56 33h1v1h-1zM91 44h1v1h-1zM23 55h1v1h-1zM31 55h1v1h-1z" /><path fill="#074887" d="M68 19h1v1h-1zM62 31h1v1h-1z" /><path fill="#074581" d="M69 19h1v1h-1z" /><path fill="#06386a" d="M70 19h1v1h-1zM65 31h1v1h-1zM48 40h1v1h-1zM25 41h1v1h-1z" /><path fill="#042b50" d="M71 19h1v1h-1zM5 61h1v1h-1zM79 66h1v1h-1zM84 68h1v1h-1z" /><path fill="#031b33" d="M72 19h1v1h-1zM36 45h1v1h-1zM80 50h1v1h-1zM62 66h1v1h-1z" /><path fill="#01050a" d="M73 19h1v1h-1zM75 32h1v1h-1zM6 63h1v1h-1zM58 65h1v1h-1zM51 73h1v1h-1z" /><path fill="#000204" d="M57 20h1v1h-1zM6 28h1v1h-1zM9 30h1v1h-1zM51 38h1v1h-1zM50 39h1v1h-1zM81 46h1v1h-1zM43 56h1v1h-1zM3 60h1v1h-1zM54 63h1v1h-1zM82 75h1v1h-1z" /><path fill="#031f3b" d="M58 20h1v1h-1zM32 36h1v1h-1z" /><path fill="#073f77" d="M59 20h1v1h-1zM35 35h1v1h-1z" /><path fill="#0959a8" d="M60 20h1v1h-1zM44 30h1v1h-1zM24 43h1v1h-1zM88 54h1v1h-1zM43 57h1v1h-1zM83 68h1v1h-1zM83 73h1v1h-1z" /><path fill="#0a60b5" d="M61 20h12v1h-12zM58 21h18v1h-18zM56 22h23v1h-23zM54 23h27v1h-27zM52 24h30v1h-30zM51 25h32v1h-32zM50 26h34v1h-34zM49 27h36v1h-36zM3 28h1v1h-1zM48 28h37v1h-37zM3 29h3v1h-3zM46 29h37v1h-37zM3 30h4v1h-4zM45 30h35v1h-35zM3 31h5v1h-5zM43 31h18v1h-18zM69 31h7v1h-7zM3 32h4v1h-4zM42 32h16v1h-16zM3 33h4v1h-4zM40 33h16v1h-16zM3 34h3v1h-3zM38 34h16v1h-16zM3 35h3v1h-3zM37 35h16v1h-16zM3 36h3v1h-3zM34 36h18v1h-18zM4 37h1v1h-1zM32 37h19v1h-19zM30 38h20v1h-20zM28 39h21v1h-21zM27 40h21v1h-21zM26 41h20v1h-20zM25 42h20v1h-20zM25 43h18v1h-18zM24 44h15v1h-15zM92 44h1v1h-1zM90 45h3v1h-3zM86 46h7v1h-7zM82 47h11v1h-11zM81 48h12v1h-12zM81 49h12v1h-12zM81 50h12v1h-12zM81 51h12v1h-12zM82 52h11v1h-11zM86 53h7v1h-7zM89 54h4v1h-4zM91 55h2v1h-2zM23 56h16v1h-16zM23 57h20v1h-20zM23 58h22v1h-22zM24 59h23v1h-23zM25 60h24v1h-24zM4 61h1v1h-1zM26 61h24v1h-24zM3 62h2v1h-2zM27 62h24v1h-24zM3 63h2v1h-2zM29 63h23v1h-23zM3 64h3v1h-3zM31 64h23v1h-23zM3 65h3v1h-3zM35 65h21v1h-21zM3 66h3v1h-3zM39 66h19v1h-19zM68 66h9v1h-9zM3 67h4v1h-4zM42 67h39v1h-39zM3 68h4v1h-4zM44 68h39v1h-39zM3 69h5v1h-5zM47 69h38v1h-38zM3 70h5v1h-5zM49 70h37v1h-37zM3 71h3v1h-3zM51 71h34v1h-34zM3 72h2v1h-2zM52 72h32v1h-32zM53 73h30v1h-30zM55 74h27v1h-27zM56 75h24v1h-24zM58 76h20v1h-20zM61 77h15v1h-15zM64 78h9v1h-9z" /><path fill="#0a5eb2" d="M73 20h1v1h-1zM7 30h1v1h-1z" /><path fill="#084b8d" d="M74 20h1v1h-1zM83 29h1v1h-1zM67 31h1v1h-1zM32 55h1v1h-1zM50 61h1v1h-1z" /><path fill="#052f59" d="M75 20h1v1h-1z" /><path fill="#010c16" d="M76 20h1v1h-1zM49 25h1v1h-1zM46 42h1v1h-1zM5 60h1v1h-1z" /><path fill="#1b0202" d="M25 21h1v1h-1zM73 34h1v1h-1zM73 45h1v1h-1zM76 63h1v1h-1z" /><path fill="#520707" d="M26 21h1v1h-1zM75 54h1v1h-1z" /><path fill="#820b0a" d="M27 21h1v1h-1zM7 58h1v1h-1z" /><path fill="#a00d0d" d="M28 21h1v1h-1zM63 34h1v1h-1z" /><path fill="#bc100f" d="M29 21h1v1h-1zM24 22h1v1h-1zM78 44h1v1h-1zM83 56h1v1h-1zM11 68h1v1h-1z" /><path fill="#d01211" d="M30 21h1v1h-1zM63 63h1v1h-1z" /><path fill="#d21211" d="M31 21h2v1h-2zM34 32h1v1h-1zM9 36h1v1h-1zM21 41h1v1h-1zM53 58h1v1h-1zM23 64h1v1h-1zM48 74h1v1h-1z" /><path fill="#c61110" d="M33 21h1v1h-1zM79 55h1v1h-1zM39 79h1v1h-1z" /><path fill="#b40f0e" d="M34 21h1v1h-1zM45 25h1v1h-1zM59 55h1v1h-1zM71 62h2v1h-2z" /><path fill="#980d0c" d="M35 21h1v1h-1zM31 80h1v1h-1z" /><path fill="#730a09" d="M36 21h1v1h-1zM6 48h1v1h-1z" /><path fill="#430605" d="M37 21h1v1h-1zM7 40h1v1h-1zM77 63h1v1h-1z" /><path fill="#0f0101" d="M38 21h1v1h-1zM71 34h2v1h-2zM20 45h1v1h-1zM69 45h4v1h-4z" /><path fill="#010810" d="M55 21h1v1h-1zM41 31h1v1h-1zM69 32h1v1h-1zM89 44h1v1h-1z" /><path fill="#053462" d="M56 21h1v1h-1zM8 30h1v1h-1zM4 73h1v1h-1z" /><path fill="#0958a7" d="M57 21h1v1h-1zM63 78h1v1h-1z" /><path fill="#0a5fb4" d="M76 21h1v1h-1zM36 35h1v1h-1zM6 71h1v1h-1zM60 77h1v1h-1z" /><path fill="#074683" d="M77 21h1v1h-1zM22 55h1v1h-1z" /><path fill="#031b34" d="M78 21h1v1h-1zM2 26h1v1h-1zM2 74h1v1h-1z" /><path fill="#1c0202" d="M22 22h1v1h-1z" /><path fill="#6d0909" d="M23 22h1v1h-1zM6 52h1v1h-1zM52 59h1v1h-1zM78 63h1v1h-1zM97 64h1v1h-1zM97 65h1v1h-1zM97 66h1v1h-1zM97 67h1v1h-1zM89 68h1v1h-1zM97 68h1v1h-1zM97 69h1v1h-1zM97 70h1v1h-1zM97 71h1v1h-1zM97 72h1v1h-1zM36 80h1v1h-1z" /><path fill="#e11312" d="M25 22h13v1h-13zM23 23h18v1h-18zM21 24h22v1h-22zM19 25h26v1h-26zM18 26h26v1h-26zM16 27h26v1h-26zM95 27h2v1h-2zM15 28h26v1h-26zM93 28h4v1h-4zM14 29h25v1h-25zM92 29h5v1h-5zM13 30h25v1h-25zM89 30h8v1h-8zM13 31h23v1h-23zM87 31h10v1h-10zM12 32h22v1h-22zM85 32h12v1h-12zM11 33h21v1h-21zM83 33h14v1h-14zM11 34h19v1h-19zM80 34h17v1h-17zM10 35h17v1h-17zM60 35h37v1h-37zM10 36h16v1h-16zM58 36h39v1h-39zM9 37h16v1h-16zM57 37h40v1h-40zM9 38h15v1h-15zM55 38h41v1h-41zM9 39h14v1h-14zM54 39h40v1h-40zM8 40h14v1h-14zM53 40h39v1h-39zM8 41h13v1h-13zM54 41h36v1h-36zM8 42h13v1h-13zM56 42h31v1h-31zM8 43h12v1h-12zM60 43h23v1h-23zM8 44h12v1h-12zM68 44h8v1h-8zM7 45h12v1h-12zM7 46h12v1h-12zM7 47h12v1h-12zM7 48h12v1h-12zM7 49h12v1h-12zM7 50h12v1h-12zM7 51h12v1h-12zM7 52h12v1h-12zM7 53h12v1h-12zM7 54h12v1h-12zM7 55h12v1h-12zM61 55h18v1h-18zM8 56h11v1h-11zM57 56h26v1h-26zM8 57h11v1h-11zM55 57h31v1h-31zM8 58h11v1h-11zM54 58h34v1h-34zM8 59h12v1h-12zM54 59h36v1h-36zM8 60h12v1h-12zM55 60h38v1h-38zM9 61h12v1h-12zM57 61h37v1h-37zM9 62h12v1h-12zM59 62h10v1h-10zM76 62h20v1h-20zM9 63h13v1h-13zM81 63h16v1h-16zM10 64h13v1h-13zM84 64h13v1h-13zM10 65h14v1h-14zM86 65h11v1h-11zM11 66h15v1h-15zM88 66h9v1h-9zM11 67h17v1h-17zM89 67h8v1h-8zM12 68h19v1h-19zM91 68h6v1h-6zM12 69h23v1h-23zM92 69h5v1h-5zM13 70h25v1h-25zM94 70h3v1h-3zM14 71h27v1h-27zM95 71h2v1h-2zM15 72h29v1h-29zM16 73h30v1h-30zM17 74h31v1h-31zM18 75h30v1h-30zM20 76h26v1h-26zM22 77h22v1h-22zM24 78h18v1h-18zM27 79h12v1h-12z" /><path fill="#dd1312" d="M38 22h1v1h-1zM42 27h1v1h-1zM12 31h1v1h-1zM59 43h1v1h-1zM7 44h1v1h-1zM76 44h1v1h-1zM60 55h1v1h-1zM58 62h1v1h-1zM87 66h1v1h-1zM21 77h1v1h-1z" /><path fill="#a90e0e" d="M39 22h1v1h-1zM22 40h1v1h-1z" /><path fill="#580707" d="M40 22h1v1h-1z" /><path fill="#0a0101" d="M41 22h1v1h-1zM8 36h1v1h-1zM68 63h1v1h-1z" /><path fill="#000509" d="M53 22h1v1h-1zM53 36h1v1h-1zM29 37h1v1h-1zM9 70h1v1h-1z" /><path fill="#053461" d="M54 22h1v1h-1zM93 49h1v1h-1z" /><path fill="#0a5cae" d="M55 22h1v1h-1zM24 60h1v1h-1zM28 63h1v1h-1z" /><path fill="#08498a" d="M79 22h1v1h-1zM85 28h1v1h-1zM77 31h1v1h-1zM33 36h1v1h-1zM59 66h1v1h-1zM81 67h1v1h-1z" /><path fill="#02172b" d="M80 22h1v1h-1zM86 28h1v1h-1zM38 33h1v1h-1zM84 73h1v1h-1z" /><path fill="#280303" d="M20 23h1v1h-1zM77 54h1v1h-1z" /><path fill="#920c0c" d="M21 23h1v1h-1zM30 80h1v1h-1z" /><path fill="#de1312" d="M22 23h1v1h-1zM20 24h1v1h-1zM39 29h1v1h-1zM56 37h1v1h-1zM75 62h1v1h-1zM83 64h1v1h-1z" /><path fill="#d41211" d="M41 23h1v1h-1z" /><path fill="#810b0a" d="M42 23h1v1h-1zM24 38h1v1h-1z" /><path fill="#1f0302" d="M43 23h1v1h-1zM19 49h1v1h-1zM13 72h1v1h-1z" /><path fill="#031e39" d="M52 23h1v1h-1zM93 45h1v1h-1zM66 79h1v1h-1zM70 79h1v1h-1z" /><path fill="#0955a1" d="M53 23h1v1h-1zM31 37h1v1h-1z" /><path fill="#063c71" d="M81 23h1v1h-1z" /><path fill="#000408" d="M82 23h1v1h-1zM39 55h1v1h-1zM34 66h1v1h-1zM8 71h1v1h-1z" /><path fill="#100101" d="M18 24h1v1h-1zM45 24h1v1h-1zM45 26h1v1h-1zM54 61h1v1h-1zM16 75h1v1h-1z" /><path fill="#840b0b" d="M19 24h1v1h-1zM25 65h1v1h-1zM29 67h1v1h-1zM35 80h1v1h-1z" /><path fill="#dc1312" d="M43 24h1v1h-1zM79 34h1v1h-1zM8 39h1v1h-1zM7 56h1v1h-1zM96 72h1v1h-1z" /><path fill="#7e0b0a" d="M44 24h1v1h-1zM6 50h1v1h-1z" /><path fill="#000407" d="M50 24h1v1h-1zM26 63h1v1h-1zM83 67h1v1h-1z" /><path fill="#063a6d" d="M51 24h1v1h-1zM49 60h1v1h-1z" /><path fill="#084f95" d="M82 24h1v1h-1z" /><path fill="#010e1a" d="M83 24h1v1h-1zM80 48h1v1h-1zM80 66h1v1h-1zM83 74h1v1h-1zM80 76h1v1h-1z" /><path fill="#3f0505" d="M17 25h1v1h-1zM85 31h1v1h-1zM75 34h1v1h-1zM24 64h1v1h-1z" /><path fill="#ce1110" d="M18 25h1v1h-1zM94 61h1v1h-1zM15 73h1v1h-1z" /><path fill="#040000" d="M46 25h1v1h-1zM14 27h1v1h-1zM32 34h1v1h-1zM21 43h1v1h-1zM10 68h1v1h-1zM88 68h1v1h-1zM44 71h1v1h-1z" /><path fill="#084f94" d="M50 25h1v1h-1zM43 68h1v1h-1z" /><path fill="#095aa9" d="M83 25h1v1h-1zM3 27h1v1h-1zM41 32h1v1h-1z" /><path fill="#021527" d="M84 25h1v1h-1z" /><path fill="#3b0505" d="M96 25h1v1h-1z" /><path fill="#480606" d="M97 25h1v1h-1z" /><path fill="#020f1c" d="M3 26h1v1h-1zM92 43h1v1h-1z" /><path fill="#010000" d="M15 26h1v1h-1zM44 27h1v1h-1zM12 29h1v1h-1zM86 30h1v1h-1zM38 31h1v1h-1zM24 39h1v1h-1zM21 60h1v1h-1zM31 67h1v1h-1zM17 76h1v1h-1z" /><path fill="#740a09" d="M16 26h1v1h-1zM84 56h1v1h-1zM29 80h1v1h-1z" /><path fill="#e01312" d="M17 26h1v1h-1zM96 26h1v1h-1zM91 29h1v1h-1zM27 35h1v1h-1zM53 59h1v1h-1zM90 59h1v1h-1zM56 61h1v1h-1z" /><path fill="#9e0d0d" d="M44 26h1v1h-1zM34 80h1v1h-1z" /><path fill="#0957a3" d="M49 26h1v1h-1z" /><path fill="#095aaa" d="M84 26h1v1h-1zM85 27h1v1h-1zM46 41h1v1h-1zM22 56h1v1h-1z" /><path fill="#021426" d="M85 26h1v1h-1zM44 69h1v1h-1zM3 74h1v1h-1z" /><path fill="#0e0101" d="M94 26h1v1h-1zM34 33h1v1h-1zM46 77h1v1h-1z" /><path fill="#8a0c0b" d="M95 26h1v1h-1zM23 39h1v1h-1zM36 69h1v1h-1zM40 79h1v1h-1z" /><path fill="#6c0909" d="M97 26h1v1h-1zM97 27h1v1h-1zM97 28h1v1h-1zM97 29h1v1h-1zM97 30h1v1h-1zM97 31h1v1h-1zM97 32h1v1h-1zM97 33h1v1h-1zM97 34h1v1h-1zM97 35h1v1h-1zM97 36h1v1h-1zM97 37h1v1h-1z" /><path fill="#052c54" d="M2 27h1v1h-1zM2 28h1v1h-1zM2 29h1v1h-1zM2 30h1v1h-1zM2 31h1v1h-1zM2 32h1v1h-1zM2 33h1v1h-1zM2 34h1v1h-1zM2 35h1v1h-1zM31 45h1v1h-1z" /><path fill="#031d36" d="M4 27h1v1h-1zM48 59h1v1h-1zM85 72h1v1h-1z" /><path fill="#900c0c" d="M15 27h1v1h-1zM81 33h1v1h-1zM53 39h1v1h-1zM55 61h1v1h-1z" /><path fill="#670908" d="M43 27h1v1h-1zM19 47h1v1h-1zM47 73h1v1h-1z" /><path fill="#031d37" d="M47 27h1v1h-1zM42 56h1v1h-1zM91 56h1v1h-1zM64 66h1v1h-1z" /><path fill="#0a5bac" d="M48 27h1v1h-1zM80 30h1v1h-1zM61 31h1v1h-1zM86 70h1v1h-1zM76 77h1v1h-1z" /><path fill="#02101e" d="M86 27h1v1h-1zM7 66h1v1h-1zM50 72h1v1h-1z" /><path fill="#470606" d="M93 27h1v1h-1zM62 54h1v1h-1zM95 61h1v1h-1z" /><path fill="#ca1110" d="M94 27h1v1h-1zM36 31h1v1h-1zM32 33h1v1h-1zM54 60h1v1h-1zM10 66h1v1h-1z" /><path fill="#0a60b4" d="M4 28h1v1h-1zM47 28h1v1h-1zM6 66h1v1h-1zM38 66h1v1h-1zM78 76h1v1h-1z" /><path fill="#030000" d="M13 28h1v1h-1zM57 35h1v1h-1zM53 38h1v1h-1zM23 40h1v1h-1zM19 51h1v1h-1zM42 79h1v1h-1z" /><path fill="#9a0d0c" d="M14 28h1v1h-1zM28 35h1v1h-1zM63 44h1v1h-1zM93 60h1v1h-1zM82 64h1v1h-1z" /><path fill="#bd100f" d="M41 28h1v1h-1zM11 32h1v1h-1zM87 42h1v1h-1zM64 63h1v1h-1zM13 71h1v1h-1z" /><path fill="#300404" d="M42 28h1v1h-1z" /><path fill="#000102" d="M45 28h1v1h-1zM39 32h1v1h-1zM56 34h1v1h-1zM31 36h1v1h-1zM52 37h1v1h-1zM49 40h1v1h-1zM30 65h1v1h-1z" /><path fill="#05325e" d="M46 28h1v1h-1zM78 31h1v1h-1zM7 33h1v1h-1zM5 38h1v1h-1zM27 63h1v1h-1z" /><path fill="#2f0404" d="M91 28h1v1h-1zM6 55h1v1h-1z" /><path fill="#a70e0d" d="M92 28h1v1h-1zM39 70h1v1h-1z" /><path fill="#084c8f" d="M6 29h1v1h-1zM82 74h1v1h-1z" /><path fill="#021221" d="M7 29h1v1h-1zM36 34h1v1h-1zM82 46h1v1h-1z" /><path fill="#890c0b" d="M13 29h1v1h-1zM20 77h1v1h-1z" /><path fill="#7c0a0a" d="M40 29h1v1h-1zM45 77h1v1h-1z" /><path fill="#070101" d="M41 29h1v1h-1zM79 33h1v1h-1zM92 41h1v1h-1zM19 52h1v1h-1zM46 72h1v1h-1z" /><path fill="#010911" d="M44 29h1v1h-1zM68 65h1v1h-1z" /><path fill="#074786" d="M45 29h1v1h-1z" /><path fill="#031c35" d="M84 29h1v1h-1zM83 53h1v1h-1zM24 61h1v1h-1zM55 64h1v1h-1z" /><path fill="#320404" d="M89 29h1v1h-1zM97 38h1v1h-1zM92 59h1v1h-1z" /><path fill="#9b0d0c" d="M90 29h1v1h-1zM25 37h1v1h-1zM79 44h1v1h-1zM54 57h1v1h-1z" /><path fill="#650808" d="M12 30h1v1h-1z" /><path fill="#b00f0e" d="M38 30h1v1h-1zM78 34h1v1h-1zM64 44h1v1h-1z" /><path fill="#2c0404" d="M39 30h1v1h-1zM22 62h1v1h-1zM56 62h1v1h-1z" /><path fill="#03213e" d="M43 30h1v1h-1zM47 41h1v1h-1zM93 53h1v1h-1zM4 60h1v1h-1z" /><path fill="#063e75" d="M81 30h1v1h-1z" /><path fill="#03182e" d="M82 30h1v1h-1z" /><path fill="#440605" d="M87 30h1v1h-1z" /><path fill="#ac0f0e" d="M88 30h1v1h-1zM7 57h1v1h-1z" /><path fill="#074480" d="M8 31h1v1h-1zM22 57h1v1h-1z" /><path fill="#310404" d="M11 31h1v1h-1zM29 35h1v1h-1zM89 42h1v1h-1zM96 73h1v1h-1z" /><path fill="#560707" d="M37 31h1v1h-1zM61 34h1v1h-1zM91 41h1v1h-1zM9 65h1v1h-1zM40 70h1v1h-1z" /><path fill="#063a6e" d="M64 31h1v1h-1zM84 46h1v1h-1z" /><path fill="#063d74" d="M66 31h1v1h-1zM26 40h1v1h-1z" /><path fill="#0a5daf" d="M68 31h1v1h-1zM7 32h1v1h-1zM45 58h1v1h-1zM85 71h1v1h-1z" /><path fill="#0958a6" d="M76 31h1v1h-1z" /><path fill="#031a30" d="M79 31h1v1h-1zM25 45h1v1h-1zM35 66h1v1h-1zM63 66h1v1h-1z" /><path fill="#000306" d="M80 31h1v1h-1zM50 60h1v1h-1zM5 73h1v1h-1zM76 78h1v1h-1z" /><path fill="#b10f0e" d="M86 31h1v1h-1z" /><path fill="#010c17" d="M8 32h1v1h-1zM87 70h1v1h-1z" /><path fill="#060100" d="M10 32h1v1h-1z" /><path fill="#6a0908" d="M35 32h1v1h-1z" /><path fill="#090101" d="M36 32h1v1h-1zM6 44h1v1h-1zM19 50h1v1h-1zM23 79h1v1h-1z" /><path fill="#04284c" d="M40 32h1v1h-1z" /><path fill="#09549f" d="M58 32h1v1h-1z" /><path fill="#052e56" d="M59 32h1v1h-1z" /><path fill="#021425" d="M60 32h1v1h-1zM25 62h1v1h-1zM54 75h1v1h-1z" /><path fill="#000203" d="M61 32h1v1h-1zM58 33h1v1h-1zM25 40h1v1h-1zM22 59h1v1h-1zM57 77h1v1h-1z" /><path fill="#000001" d="M68 32h1v1h-1zM21 56h1v1h-1zM90 56h1v1h-1z" /><path fill="#02101f" d="M70 32h1v1h-1zM5 39h1v1h-1zM80 47h1v1h-1zM78 77h1v1h-1z" /><path fill="#03182d" d="M71 32h2v1h-2zM44 43h1v1h-1z" /><path fill="#021324" d="M73 32h1v1h-1zM34 35h1v1h-1z" /><path fill="#021121" d="M74 32h1v1h-1z" /><path fill="#0d0101" d="M82 32h1v1h-1zM94 40h1v1h-1zM75 45h1v1h-1zM41 70h1v1h-1zM12 71h1v1h-1z" /><path fill="#5b0807" d="M83 32h1v1h-1zM76 34h1v1h-1z" /><path fill="#b60f0f" d="M84 32h1v1h-1z" /><path fill="#6f0909" d="M10 33h1v1h-1zM80 44h1v1h-1z" /><path fill="#6b0909" d="M33 33h1v1h-1zM97 63h1v1h-1z" /><path fill="#084e92" d="M39 33h1v1h-1zM53 35h1v1h-1zM30 55h1v1h-1zM90 55h1v1h-1zM37 66h1v1h-1zM55 75h1v1h-1z" /><path fill="#03203c" d="M57 33h1v1h-1zM26 45h1v1h-1zM35 45h1v1h-1zM22 58h1v1h-1zM70 65h1v1h-1zM86 69h1v1h-1zM58 77h1v1h-1zM75 78h1v1h-1z" /><path fill="#400505" d="M80 33h1v1h-1zM76 54h1v1h-1zM53 60h1v1h-1z" /><path fill="#d91211" d="M82 33h1v1h-1zM19 45h1v1h-1z" /><path fill="#0a5cad" d="M6 34h1v1h-1zM50 71h1v1h-1z" /><path fill="#01080e" d="M7 34h1v1h-1z" /><path fill="#130202" d="M9 34h1v1h-1zM94 60h1v1h-1zM85 66h1v1h-1z" /><path fill="#d61211" d="M10 34h1v1h-1zM21 62h1v1h-1zM69 62h1v1h-1zM85 65h1v1h-1zM19 76h1v1h-1z" /><path fill="#ad0f0e" d="M30 34h1v1h-1z" /><path fill="#490606" d="M31 34h1v1h-1zM52 58h1v1h-1z" /><path fill="#07437f" d="M37 34h1v1h-1zM52 36h1v1h-1zM50 38h1v1h-1z" /><path fill="#095bab" d="M54 34h1v1h-1z" /><path fill="#04294d" d="M55 34h1v1h-1zM93 52h1v1h-1zM65 66h1v1h-1z" /><path fill="#1d0202" d="M60 34h1v1h-1zM19 54h1v1h-1z" /><path fill="#830b0a" d="M62 34h1v1h-1z" /><path fill="#a50e0d" d="M64 34h1v1h-1zM32 80h2v1h-2z" /><path fill="#a20e0d" d="M65 34h1v1h-1zM7 42h1v1h-1zM19 46h1v1h-1zM79 63h1v1h-1z" /><path fill="#8d0c0b" d="M66 34h1v1h-1z" /><path fill="#640808" d="M67 34h1v1h-1z" /><path fill="#410605" d="M68 34h1v1h-1z" /><path fill="#290303" d="M69 34h1v1h-1zM61 54h1v1h-1z" /><path fill="#1e0302" d="M70 34h1v1h-1zM86 43h1v1h-1z" /><path fill="#230303" d="M74 34h1v1h-1z" /><path fill="#800b0a" d="M77 34h1v1h-1zM86 66h1v1h-1z" /><path fill="#063768" d="M6 35h1v1h-1zM27 39h1v1h-1zM66 66h1v1h-1z" /><path fill="#790a0a" d="M9 35h1v1h-1zM7 41h1v1h-1zM6 51h1v1h-1z" /><path fill="#010b14" d="M54 35h1v1h-1zM3 38h1v1h-1zM45 57h1v1h-1zM46 70h1v1h-1z" /><path fill="#4f0706" d="M58 35h1v1h-1zM6 46h1v1h-1zM97 73h1v1h-1z" /><path fill="#af0f0e" d="M59 35h1v1h-1z" /><path fill="#052c53" d="M2 36h1v1h-1z" /><path fill="#021120" d="M6 36h1v1h-1z" /><path fill="#c51110" d="M26 36h1v1h-1zM93 70h1v1h-1z" /><path fill="#3e0505" d="M27 36h1v1h-1z" /><path fill="#370504" d="M56 36h1v1h-1zM6 45h1v1h-1z" /><path fill="#bb100f" d="M57 36h1v1h-1z" /><path fill="#010b15" d="M2 37h1v1h-1zM93 44h1v1h-1zM86 45h1v1h-1zM60 78h1v1h-1z" /><path fill="#09539d" d="M3 37h1v1h-1zM25 55h5v1h-5z" /><path fill="#085199" d="M5 37h1v1h-1zM85 46h1v1h-1zM5 72h1v1h-1zM51 72h1v1h-1zM73 78h1v1h-1z" /><path fill="#550707" d="M8 37h1v1h-1zM85 43h1v1h-1zM59 63h1v1h-1z" /><path fill="#0b0101" d="M26 37h1v1h-1zM7 39h1v1h-1zM59 44h1v1h-1zM97 62h1v1h-1zM80 64h1v1h-1zM28 66h1v1h-1zM93 71h1v1h-1zM48 73h1v1h-1z" /><path fill="#052d55" d="M30 37h1v1h-1z" /><path fill="#660908" d="M55 37h1v1h-1zM6 47h1v1h-1zM87 57h1v1h-1z" /><path fill="#09529a" d="M4 38h1v1h-1zM81 52h1v1h-1z" /><path fill="#a10e0d" d="M8 38h1v1h-1z" /><path fill="#020000" d="M25 38h1v1h-1zM52 39h1v1h-1zM75 63h1v1h-1zM26 80h1v1h-1z" /><path fill="#031e38" d="M28 38h1v1h-1z" /><path fill="#0958a5" d="M29 38h1v1h-1z" /><path fill="#8b0c0b" d="M54 38h1v1h-1zM60 63h1v1h-1z" /><path fill="#c1100f" d="M96 38h1v1h-1zM20 43h1v1h-1zM83 43h1v1h-1z" /><path fill="#010912" d="M4 39h1v1h-1zM93 55h1v1h-1zM76 65h1v1h-1z" /><path fill="#07417a" d="M49 39h1v1h-1z" /><path fill="#cf1211" d="M94 39h1v1h-1zM46 76h1v1h-1z" /><path fill="#610808" d="M95 39h1v1h-1z" /><path fill="#050000" d="M96 39h1v1h-1zM68 45h1v1h-1zM60 54h1v1h-1zM9 66h1v1h-1z" /><path fill="#850b0b" d="M52 40h1v1h-1z" /><path fill="#ce1111" d="M92 40h1v1h-1zM14 72h1v1h-1z" /><path fill="#720a09" d="M93 40h1v1h-1zM43 78h1v1h-1z" /><path fill="#1a0202" d="M22 41h1v1h-1zM7 60h1v1h-1zM83 65h1v1h-1zM19 77h1v1h-1zM38 80h1v1h-1z" /><path fill="#250303" d="M52 41h1v1h-1zM56 43h1v1h-1z" /><path fill="#9d0d0d" d="M53 41h1v1h-1z" /><path fill="#b70f0f" d="M90 41h1v1h-1z" /><path fill="#600808" d="M21 42h1v1h-1zM20 44h1v1h-1z" /><path fill="#042443" d="M24 42h1v1h-1zM82 67h1v1h-1z" /><path fill="#07417b" d="M45 42h1v1h-1z" /><path fill="#330404" d="M54 42h1v1h-1z" /><path fill="#a90e0d" d="M55 42h1v1h-1zM58 43h1v1h-1z" /><path fill="#780a0a" d="M88 42h1v1h-1zM62 44h1v1h-1zM6 49h1v1h-1zM65 54h2v1h-2zM71 54h1v1h-1zM66 63h1v1h-1z" /><path fill="#c21010" d="M7 43h1v1h-1zM8 61h1v1h-1zM16 74h1v1h-1z" /><path fill="#01080f" d="M23 43h1v1h-1z" /><path fill="#084888" d="M43 43h1v1h-1zM59 77h1v1h-1z" /><path fill="#680908" d="M57 43h1v1h-1z" /><path fill="#8c0c0b" d="M84 43h1v1h-1zM96 62h1v1h-1z" /><path fill="#063869" d="M23 44h1v1h-1zM84 53h1v1h-1zM44 57h1v1h-1z" /><path fill="#0955a0" d="M39 44h1v1h-1zM85 53h1v1h-1zM51 62h1v1h-1z" /><path fill="#074582" d="M40 44h1v1h-1z" /><path fill="#052e57" d="M41 44h1v1h-1zM93 51h1v1h-1zM53 63h1v1h-1z" /><path fill="#020f1d" d="M42 44h1v1h-1z" /><path fill="#360504" d="M60 44h1v1h-1zM30 67h1v1h-1z" /><path fill="#570707" d="M61 44h1v1h-1zM33 68h1v1h-1z" /><path fill="#be100f" d="M65 44h1v1h-1z" /><path fill="#cc1110" d="M66 44h1v1h-1zM46 73h1v1h-1zM42 78h1v1h-1z" /><path fill="#da1211" d="M67 44h1v1h-1zM41 71h1v1h-1z" /><path fill="#cd1110" d="M77 44h1v1h-1zM22 63h1v1h-1z" /><path fill="#420605" d="M81 44h1v1h-1zM92 70h1v1h-1z" /><path fill="#150202" d="M82 44h1v1h-1z" /><path fill="#04294e" d="M90 44h1v1h-1zM42 68h1v1h-1zM61 78h1v1h-1z" /><path fill="#010d19" d="M23 45h1v1h-1z" /><path fill="#021528" d="M24 45h1v1h-1zM37 45h1v1h-1zM93 54h1v1h-1zM38 55h1v1h-1zM23 60h1v1h-1zM52 62h1v1h-1zM75 65h1v1h-1z" /><path fill="#042341" d="M27 45h1v1h-1z" /><path fill="#042648" d="M28 45h3v1h-3zM34 45h1v1h-1zM93 46h1v1h-1zM71 65h3v1h-3zM68 79h2v1h-2z" /><path fill="#052d54" d="M32 45h1v1h-1zM36 55h1v1h-1zM2 62h1v1h-1zM2 63h1v1h-1zM2 64h1v1h-1zM2 65h1v1h-1zM2 66h1v1h-1zM2 67h1v1h-1zM2 68h1v1h-1zM2 69h1v1h-1zM2 70h1v1h-1zM2 71h1v1h-1zM2 72h1v1h-1zM2 73h1v1h-1z" /><path fill="#042a4f" d="M33 45h1v1h-1z" /><path fill="#01060b" d="M38 45h1v1h-1zM72 79h1v1h-1z" /><path fill="#140202" d="M74 45h1v1h-1z" /><path fill="#04284b" d="M87 45h1v1h-1z" /><path fill="#074583" d="M88 45h1v1h-1z" /><path fill="#0a5eb1" d="M89 45h1v1h-1zM81 47h1v1h-1zM5 63h1v1h-1zM52 63h1v1h-1zM34 65h1v1h-1zM41 67h1v1h-1zM46 69h1v1h-1zM80 75h1v1h-1z" /><path fill="#042343" d="M83 46h1v1h-1z" /><path fill="#052b52" d="M93 47h1v1h-1z" /><path fill="#3d0505" d="M19 48h1v1h-1zM11 69h1v1h-1zM41 79h1v1h-1z" /><path fill="#05315c" d="M93 48h1v1h-1zM81 75h1v1h-1z" /><path fill="#02111f" d="M80 49h1v1h-1z" /><path fill="#053360" d="M93 50h1v1h-1zM32 65h1v1h-1zM60 66h1v1h-1z" /><path fill="#042546" d="M80 51h1v1h-1zM57 65h1v1h-1z" /><path fill="#03223f" d="M80 52h1v1h-1zM6 64h1v1h-1z" /><path fill="#620808" d="M6 53h1v1h-1zM10 67h1v1h-1z" /><path fill="#130201" d="M19 53h1v1h-1zM78 54h1v1h-1zM88 57h1v1h-1zM58 63h1v1h-1zM44 78h1v1h-1z" /><path fill="#01070d" d="M82 53h1v1h-1zM47 58h1v1h-1zM41 68h1v1h-1z" /><path fill="#4c0606" d="M6 54h1v1h-1zM81 64h1v1h-1z" /><path fill="#5e0807" d="M63 54h1v1h-1zM74 54h1v1h-1z" /><path fill="#710a09" d="M64 54h1v1h-1z" /><path fill="#830b0b" d="M67 54h1v1h-1z" /><path fill="#870b0b" d="M68 54h2v1h-2z" /><path fill="#7c0b0a" d="M70 54h1v1h-1z" /><path fill="#6e0909" d="M72 54h1v1h-1zM27 66h1v1h-1z" /><path fill="#690908" d="M73 54h1v1h-1z" /><path fill="#021223" d="M86 54h1v1h-1zM71 79h1v1h-1z" /><path fill="#063565" d="M87 54h1v1h-1z" /><path fill="#2a0403" d="M19 55h1v1h-1zM8 63h1v1h-1zM87 67h1v1h-1z" /><path fill="#01060c" d="M21 55h1v1h-1zM48 71h1v1h-1z" /><path fill="#09539c" d="M24 55h1v1h-1zM26 62h1v1h-1zM8 70h1v1h-1z" /><path fill="#074684" d="M33 55h1v1h-1zM92 56h1v1h-1zM6 65h1v1h-1zM40 67h1v1h-1z" /><path fill="#063e74" d="M34 55h1v1h-1z" /><path fill="#063665" d="M35 55h1v1h-1z" /><path fill="#042444" d="M37 55h1v1h-1z" /><path fill="#2b0403" d="M57 55h1v1h-1zM90 58h1v1h-1zM27 80h1v1h-1z" /><path fill="#770a0a" d="M58 55h1v1h-1zM8 62h1v1h-1zM84 65h1v1h-1z" /><path fill="#8f0c0b" d="M80 55h1v1h-1z" /><path fill="#590807" d="M81 55h1v1h-1z" /><path fill="#210303" d="M82 55h1v1h-1zM21 78h1v1h-1z" /><path fill="#000305" d="M88 55h1v1h-1zM85 68h1v1h-1z" /><path fill="#042240" d="M89 55h1v1h-1z" /><path fill="#110101" d="M6 56h1v1h-1zM49 75h1v1h-1z" /><path fill="#4a0606" d="M19 56h1v1h-1z" /><path fill="#0a5fb3" d="M39 56h1v1h-1zM3 73h1v1h-1zM54 74h1v1h-1z" /><path fill="#085198" d="M40 56h1v1h-1zM23 59h1v1h-1z" /><path fill="#063d72" d="M41 56h1v1h-1z" /><path fill="#3a0505" d="M55 56h1v1h-1z" /><path fill="#ae0f0e" d="M56 56h1v1h-1z" /><path fill="#2d0404" d="M85 56h1v1h-1z" /><path fill="#7b0a0a" d="M19 57h1v1h-1z" /><path fill="#160202" d="M53 57h1v1h-1z" /><path fill="#bf100f" d="M86 57h1v1h-1zM19 58h1v1h-1z" /><path fill="#063564" d="M46 58h1v1h-1zM47 70h1v1h-1z" /><path fill="#db1212" d="M88 58h1v1h-1zM80 63h1v1h-1z" /><path fill="#930c0c" d="M89 58h1v1h-1zM12 70h1v1h-1z" /><path fill="#4e0706" d="M7 59h1v1h-1zM37 80h1v1h-1z" /><path fill="#380505" d="M20 59h1v1h-1z" /><path fill="#0957a5" d="M47 59h1v1h-1zM30 64h1v1h-1z" /><path fill="#9f0d0d" d="M91 59h1v1h-1z" /><path fill="#a80e0d" d="M20 60h1v1h-1z" /><path fill="#031a31" d="M2 61h1v1h-1z" /><path fill="#0956a2" d="M3 61h1v1h-1z" /><path fill="#5a0807" d="M21 61h1v1h-1z" /><path fill="#0a5db0" d="M25 61h1v1h-1zM58 66h1v1h-1zM7 68h1v1h-1zM84 72h1v1h-1z" /><path fill="#010910" d="M51 61h1v1h-1zM28 64h1v1h-1zM38 67h1v1h-1zM64 79h1v1h-1z" /><path fill="#940d0c" d="M57 62h1v1h-1zM94 71h1v1h-1z" /><path fill="#c41110" d="M70 62h1v1h-1zM44 72h1v1h-1z" /><path fill="#b80f0f" d="M73 62h1v1h-1z" /><path fill="#cb1110" d="M74 62h1v1h-1z" /><path fill="#220303" d="M23 63h1v1h-1zM34 68h1v1h-1z" /><path fill="#b30f0e" d="M61 63h1v1h-1z" /><path fill="#c31010" d="M62 63h1v1h-1z" /><path fill="#a40e0d" d="M65 63h1v1h-1z" /><path fill="#3c0505" d="M67 63h1v1h-1z" /><path fill="#ba100f" d="M9 64h1v1h-1z" /><path fill="#05325f" d="M29 64h1v1h-1z" /><path fill="#084f96" d="M54 64h1v1h-1z" /><path fill="#df1312" d="M24 65h1v1h-1zM38 70h1v1h-1z" /><path fill="#120101" d="M26 65h1v1h-1zM38 69h1v1h-1z" /><path fill="#03192f" d="M31 65h1v1h-1z" /><path fill="#084a8c" d="M33 65h1v1h-1z" /><path fill="#084c90" d="M56 65h1v1h-1z" /><path fill="#02172c" d="M69 65h1v1h-1zM65 79h1v1h-1z" /><path fill="#03203d" d="M74 65h1v1h-1z" /><path fill="#d51211" d="M26 66h1v1h-1zM23 78h1v1h-1z" /><path fill="#053361" d="M36 66h1v1h-1z" /><path fill="#042647" d="M61 66h1v1h-1zM67 79h1v1h-1z" /><path fill="#085096" d="M67 66h1v1h-1z" /><path fill="#0957a4" d="M77 66h1v1h-1z" /><path fill="#07427c" d="M78 66h1v1h-1zM52 73h1v1h-1zM79 76h1v1h-1z" /><path fill="#06396c" d="M7 67h1v1h-1z" /><path fill="#d11211" d="M28 67h1v1h-1zM26 79h1v1h-1z" /><path fill="#042749" d="M39 67h1v1h-1z" /><path fill="#b50f0e" d="M88 67h1v1h-1z" /><path fill="#010d18" d="M8 68h1v1h-1z" /><path fill="#c81110" d="M31 68h1v1h-1z" /><path fill="#8e0c0b" d="M32 68h1v1h-1z" /><path fill="#d71211" d="M90 68h1v1h-1z" /><path fill="#c71110" d="M35 69h1v1h-1z" /><path fill="#4d0606" d="M37 69h1v1h-1z" /><path fill="#063c72" d="M45 69h1v1h-1z" /><path fill="#09549e" d="M85 69h1v1h-1zM57 76h1v1h-1z" /><path fill="#180202" d="M90 69h1v1h-1z" /><path fill="#970d0c" d="M91 69h1v1h-1zM42 71h1v1h-1zM48 75h1v1h-1z" /><path fill="#095bac" d="M48 70h1v1h-1z" /><path fill="#063666" d="M7 71h1v1h-1z" /><path fill="#460606" d="M43 71h1v1h-1z" /><path fill="#05315d" d="M49 71h1v1h-1z" /><path fill="#031a32" d="M86 71h1v1h-1z" /><path fill="#02162a" d="M6 72h1v1h-1z" /><path fill="#5c0807" d="M45 72h1v1h-1z" /><path fill="#5f0808" d="M95 72h1v1h-1z" /><path fill="#270303" d="M14 73h1v1h-1z" /><path fill="#240303" d="M15 74h1v1h-1z" /><path fill="#450606" d="M49 74h1v1h-1z" /><path fill="#042b51" d="M53 74h1v1h-1z" /><path fill="#a30e0d" d="M17 75h1v1h-1z" /><path fill="#5e0808" d="M18 76h1v1h-1z" /><path fill="#530707" d="M47 76h1v1h-1zM28 80h1v1h-1z" /><path fill="#042342" d="M56 76h1v1h-1z" /><path fill="#d81211" d="M44 77h1v1h-1z" /><path fill="#063b6f" d="M77 77h1v1h-1z" /><path fill="#860b0b" d="M22 78h1v1h-1z" /><path fill="#07427d" d="M62 78h1v1h-1z" /><path fill="#063b70" d="M74 78h1v1h-1z" /><path fill="#540707" d="M24 79h1v1h-1z" /><path fill="#990d0c" d="M25 79h1v1h-1z" /></svg>