<svg xmlns="http://www.w3.org/2000/svg" viewBox="0 0 100 100" width="1em" height="1em"><path fill="#2f80ed" d="M28 13h8v1h-8zM26 14h12v1h-12zM25 15h16v1h-16zM23 16h19v1h-19zM20 17h1v1h-1zM22 17h21v1h-21zM20 18h26v1h-26zM18 19h29v1h-29zM16 20h33v1h-33zM15 21h35v1h-35zM13 22h39v1h-39zM11 23h19v1h-19zM35 23h19v1h-19zM10 24h18v1h-18zM37 24h19v1h-19zM8 25h18v1h-18zM39 25h18v1h-18zM6 26h19v1h-19zM40 26h19v1h-19zM5 27h18v1h-18zM42 27h19v1h-19zM4 28h17v1h-17zM44 28h17v1h-17zM3 29h16v1h-16zM20 29h1v1h-1zM46 29h16v1h-16zM2 30h16v1h-16zM47 30h16v1h-16zM2 31h15v1h-15zM49 31h14v1h-14zM1 32h13v1h-13zM50 32h14v1h-14zM1 33h11v1h-11zM53 33h11v1h-11zM1 34h10v1h-10zM53 34h11v1h-11zM1 35h9v1h-9zM54 35h10v1h-10zM1 36h9v1h-9zM55 36h9v1h-9zM1 37h9v1h-9zM55 37h9v1h-9zM1 38h9v1h-9zM55 38h9v1h-9zM1 39h10v1h-10zM55 39h9v1h-9zM1 40h9v1h-9zM55 40h9v1h-9zM0 41h10v1h-10zM55 41h9v1h-9zM0 42h10v1h-10zM55 42h9v1h-9zM0 43h10v1h-10zM55 43h9v1h-9zM0 44h10v1h-10zM55 44h9v1h-9zM0 45h10v1h-10zM55 45h9v1h-9zM0 46h10v1h-10zM55 46h9v1h-9zM0 47h10v1h-10zM55 47h9v1h-9zM0 48h10v1h-10zM55 48h9v1h-9zM0 49h10v1h-10zM55 49h9v1h-9zM0 50h10v1h-10zM55 50h9v1h-9zM0 51h10v1h-10zM55 51h9v1h-9zM0 52h10v1h-10zM55 52h9v1h-9zM0 53h10v1h-10zM55 53h9v1h-9zM0 54h10v1h-10zM55 54h9v1h-9zM1 55h9v1h-9zM55 55h9v1h-9zM1 56h10v1h-10zM55 56h9v1h-9zM1 57h9v1h-9zM55 57h9v1h-9zM1 58h9v1h-9zM55 58h9v1h-9zM1 59h9v1h-9zM54 59h10v1h-10zM0 60h10v1h-10zM54 60h10v1h-10zM1 61h10v1h-10zM53 61h11v1h-11zM1 62h12v1h-12zM53 62h11v1h-11zM1 63h13v1h-13zM51 63h13v1h-13zM2 64h14v1h-14zM49 64h14v1h-14zM2 65h16v1h-16zM47 65h16v1h-16zM3 66h16v1h-16zM45 66h9v1h-9zM55 66h7v1h-7zM4 67h17v1h-17zM44 67h17v1h-17zM5 68h19v1h-19zM42 68h18v1h-18zM6 69h19v1h-19zM39 69h20v1h-20zM8 70h19v1h-19zM39 70h19v1h-19zM8 71h1v1h-1zM10 71h18v1h-18zM37 71h18v1h-18zM11 72h19v1h-19zM35 72h19v1h-19zM13 73h39v1h-39zM14 74h37v1h-37zM17 75h32v1h-32zM18 76h30v1h-30zM19 77h26v1h-26zM21 78h22v1h-22zM44 78h1v1h-1zM22 79h20v1h-20zM25 80h15v1h-15zM27 81h11v1h-11zM30 82h5v1h-5z" /><path fill="#2e80ed" d="M36 13h1v1h-1zM17 19h1v1h-1zM47 19h1v1h-1zM30 23h1v1h-1zM4 27h1v1h-1zM1 31h1v1h-1zM0 34h1v1h-1zM0 35h1v1h-1zM0 37h1v1h-1zM0 38h1v1h-1zM54 38h1v1h-1zM54 57h1v1h-1zM0 58h1v1h-1zM11 61h1v1h-1zM64 61h1v1h-1zM64 62h1v1h-1zM14 63h1v1h-1zM61 67h1v1h-1zM4 68h1v1h-1zM52 73h1v1h-1zM40 80h1v1h-1z" /><path fill="#2d9cdb" d="M63 13h8v1h-8zM62 14h12v1h-12zM60 15h15v1h-15zM58 16h19v1h-19zM55 17h1v1h-1zM57 17h21v1h-21zM55 18h25v1h-25zM53 19h29v1h-29zM51 20h33v1h-33zM53 21h32v1h-32zM55 22h32v1h-32zM56 23h10v1h-10zM70 23h19v1h-19zM58 24h5v1h-5zM72 24h20v1h-20zM59 25h2v1h-2zM73 25h19v1h-19zM75 26h19v1h-19zM77 27h18v1h-18zM39 28h3v1h-3zM79 28h17v1h-17zM38 29h5v1h-5zM81 29h16v1h-16zM37 30h8v1h-8zM82 30h16v1h-16zM37 31h10v1h-10zM84 31h14v1h-14zM36 32h12v1h-12zM86 32h13v1h-13zM36 33h11v1h-11zM48 33h1v1h-1zM88 33h11v1h-11zM36 34h10v1h-10zM88 34h11v1h-11zM36 35h9v1h-9zM89 35h10v1h-10zM36 36h9v1h-9zM89 36h10v1h-10zM36 37h9v1h-9zM90 37h9v1h-9zM35 38h10v1h-10zM90 38h9v1h-9zM36 39h9v1h-9zM90 39h10v1h-10zM36 40h9v1h-9zM90 40h9v1h-9zM36 41h9v1h-9zM89 41h11v1h-11zM36 42h10v1h-10zM90 42h10v1h-10zM36 43h10v1h-10zM90 43h10v1h-10zM36 44h10v1h-10zM90 44h10v1h-10zM36 45h10v1h-10zM90 45h10v1h-10zM36 46h10v1h-10zM90 46h10v1h-10zM36 47h10v1h-10zM90 47h10v1h-10zM36 48h10v1h-10zM90 48h10v1h-10zM36 49h10v1h-10zM90 49h10v1h-10zM36 50h10v1h-10zM90 50h10v1h-10zM36 51h10v1h-10zM90 51h10v1h-10zM36 52h10v1h-10zM90 52h10v1h-10zM36 53h10v1h-10zM90 53h10v1h-10zM36 54h9v1h-9zM90 54h10v1h-10zM36 55h9v1h-9zM90 55h9v1h-9zM36 56h9v1h-9zM90 56h10v1h-10zM36 57h9v1h-9zM90 57h9v1h-9zM36 58h9v1h-9zM90 58h9v1h-9zM36 59h9v1h-9zM89 59h10v1h-10zM35 60h10v1h-10zM89 60h10v1h-10zM35 61h12v1h-12zM88 61h11v1h-11zM36 62h13v1h-13zM88 62h11v1h-11zM36 63h12v1h-12zM85 63h14v1h-14zM37 64h10v1h-10zM84 64h14v1h-14zM37 65h8v1h-8zM81 65h17v1h-17zM37 66h6v1h-6zM81 66h16v1h-16zM39 67h2v1h-2zM78 67h19v1h-19zM77 68h18v1h-18zM74 69h21v1h-21zM60 70h2v1h-2zM74 70h18v1h-18zM58 71h6v1h-6zM72 71h18v1h-18zM56 72h10v1h-10zM70 72h19v1h-19zM55 73h32v1h-32zM53 74h32v1h-32zM52 75h33v1h-33zM53 76h29v1h-29zM55 77h25v1h-25zM57 78h21v1h-21zM79 78h1v1h-1zM59 79h18v1h-18zM60 80h15v1h-15zM62 81h11v1h-11zM65 82h5v1h-5z" /><path fill="#2d9bdb" d="M71 13h1v1h-1zM63 24h1v1h-1zM92 25h1v1h-1zM79 29h2v1h-2zM81 30h1v1h-1zM85 32h1v1h-1zM35 33h1v1h-1zM99 36h1v1h-1zM45 39h1v1h-1zM45 56h1v1h-1zM35 57h1v1h-1zM99 59h1v1h-1zM99 61h1v1h-1zM83 64h1v1h-1zM97 66h1v1h-1zM73 70h1v1h-1zM54 73h1v1h-1zM86 74h1v1h-1zM80 77h1v1h-1zM63 82h1v1h-1z" /><path fill="#2f80ec" d="M38 14h1v1h-1zM43 17h1v1h-1zM49 20h1v1h-1zM14 21h1v1h-1zM50 21h1v1h-1zM18 30h1v1h-1zM10 36h1v1h-1zM54 37h1v1h-1zM54 40h1v1h-1zM54 55h1v1h-1zM54 58h1v1h-1zM10 59h1v1h-1zM13 62h1v1h-1zM48 64h1v1h-1zM63 64h1v1h-1zM18 65h1v1h-1zM43 67h1v1h-1zM41 68h1v1h-1zM25 69h1v1h-1zM37 70h2v1h-2z" /><path fill="#2c9cda" d="M61 14h1v1h-1zM75 15h1v1h-1zM54 18h1v1h-1zM52 19h1v1h-1zM84 20h1v1h-1zM78 28h1v1h-1zM83 31h1v1h-1zM35 34h1v1h-1zM46 34h1v1h-1zM35 35h1v1h-1zM89 37h1v1h-1zM99 37h1v1h-1zM99 58h1v1h-1zM92 70h1v1h-1zM71 71h1v1h-1zM69 72h1v1h-1z" /><path fill="#2e7fec" d="M24 15h1v1h-1zM22 16h1v1h-1zM21 17h1v1h-1zM19 18h1v1h-1zM13 21h1v1h-1zM12 22h1v1h-1zM5 26h1v1h-1zM21 28h1v1h-1zM19 29h1v1h-1zM14 32h1v1h-1zM0 33h1v1h-1zM64 33h1v1h-1zM0 36h1v1h-1zM64 36h1v1h-1zM0 40h1v1h-1zM64 40h1v1h-1zM54 41h1v1h-1zM54 54h1v1h-1zM0 55h1v1h-1zM64 55h1v1h-1zM10 57h1v1h-1zM0 59h1v1h-1zM64 59h1v1h-1zM19 66h1v1h-1zM27 70h1v1h-1zM28 71h1v1h-1zM36 71h1v1h-1zM10 72h1v1h-1zM17 76h1v1h-1zM43 78h1v1h-1zM24 80h1v1h-1zM38 81h1v1h-1zM29 82h1v1h-1zM35 82h1v1h-1z" /><path fill="#2c9bda" d="M59 15h1v1h-1zM56 17h1v1h-1zM89 23h1v1h-1zM94 26h1v1h-1zM97 29h1v1h-1zM99 35h1v1h-1zM45 36h1v1h-1zM35 37h1v1h-1zM35 39h1v1h-1zM45 40h1v1h-1zM99 40h1v1h-1zM45 55h1v1h-1zM99 55h1v1h-1zM35 56h1v1h-1zM35 58h1v1h-1zM45 59h1v1h-1zM99 62h1v1h-1zM98 64h1v1h-1zM39 68h1v1h-1zM76 68h1v1h-1zM85 74h1v1h-1zM82 76h1v1h-1zM59 80h1v1h-1zM64 82h1v1h-1zM70 82h1v1h-1z" /><path fill="#2e7fed" d="M42 16h1v1h-1zM26 25h2v1h-2zM25 26h1v1h-1zM61 28h1v1h-1zM2 29h1v1h-1zM54 36h1v1h-1zM64 39h1v1h-1zM64 56h1v1h-1zM64 60h1v1h-1zM16 64h1v1h-1zM30 72h1v1h-1zM34 72h1v1h-1zM45 77h1v1h-1z" /><path fill="#2d9cda" d="M57 16h1v1h-1zM77 16h1v1h-1zM78 17h1v1h-1zM82 19h1v1h-1zM86 21h1v1h-1zM87 22h1v1h-1zM71 24h1v1h-1zM62 25h1v1h-1zM76 27h1v1h-1zM95 27h1v1h-1zM98 31h1v1h-1zM35 41h1v1h-1zM35 42h1v1h-1zM89 42h1v1h-1zM35 43h1v1h-1zM89 43h1v1h-1zM35 44h1v1h-1zM89 44h1v1h-1zM35 45h1v1h-1zM89 45h1v1h-1zM35 46h1v1h-1zM89 46h1v1h-1zM35 47h1v1h-1zM89 47h1v1h-1zM35 48h1v1h-1zM89 48h1v1h-1zM35 49h1v1h-1zM89 49h1v1h-1zM35 50h1v1h-1zM89 50h1v1h-1zM35 51h1v1h-1zM89 51h1v1h-1zM35 52h1v1h-1zM89 52h1v1h-1zM35 53h1v1h-1zM89 53h1v1h-1zM35 54h1v1h-1zM89 54h1v1h-1zM89 56h1v1h-1zM89 58h1v1h-1zM79 66h1v1h-1zM72 70h1v1h-1zM90 71h1v1h-1zM89 72h1v1h-1zM51 75h1v1h-1zM52 76h1v1h-1zM54 77h1v1h-1z" /><path fill="#2f7fed" d="M44 17h1v1h-1zM34 23h1v1h-1zM8 24h1v1h-1zM36 24h1v1h-1zM7 25h1v1h-1zM63 31h1v1h-1zM13 33h1v1h-1zM51 33h1v1h-1zM64 34h1v1h-1zM64 35h1v1h-1zM64 38h1v1h-1zM54 39h1v1h-1zM10 40h1v1h-1zM10 55h1v1h-1zM54 56h1v1h-1zM0 57h1v1h-1zM64 57h1v1h-1zM0 61h1v1h-1zM0 62h1v1h-1zM51 62h1v1h-1zM20 66h1v1h-1zM54 66h1v1h-1zM62 66h1v1h-1zM7 70h1v1h-1zM55 71h1v1h-1zM15 75h1v1h-1zM42 79h1v1h-1z" /><path fill="#2d9bda" d="M79 17h1v1h-1zM61 25h1v1h-1zM74 26h1v1h-1zM38 28h1v1h-1zM37 29h1v1h-1zM47 33h1v1h-1zM86 33h2v1h-2zM99 34h1v1h-1zM45 38h1v1h-1zM89 39h1v1h-1zM45 57h1v1h-1zM86 62h2v1h-2zM91 71h1v1h-1zM56 78h1v1h-1zM58 79h1v1h-1zM77 79h1v1h-1zM75 80h1v1h-1zM73 81h1v1h-1z" /><path fill="#2c9bdb" d="M80 18h1v1h-1zM69 23h1v1h-1zM39 27h1v1h-1zM96 28h1v1h-1zM36 31h1v1h-1zM99 33h1v1h-1zM35 36h1v1h-1zM45 37h1v1h-1zM89 38h1v1h-1zM99 38h1v1h-1zM89 40h1v1h-1zM45 41h1v1h-1zM45 54h1v1h-1zM89 57h1v1h-1zM99 57h1v1h-1zM45 58h1v1h-1zM35 59h1v1h-1zM45 60h1v1h-1zM99 60h1v1h-1zM35 62h1v1h-1zM95 68h1v1h-1zM87 73h1v1h-1z" /><path fill="#2e80ec" d="M15 20h1v1h-1zM28 24h1v1h-1zM37 25h1v1h-1zM3 28h1v1h-1zM62 29h1v1h-1zM10 35h1v1h-1zM10 38h1v1h-1zM54 42h1v1h-1zM54 43h1v1h-1zM54 44h1v1h-1zM54 45h1v1h-1zM54 46h1v1h-1zM54 47h1v1h-1zM54 48h1v1h-1zM54 49h1v1h-1zM54 50h1v1h-1zM54 51h1v1h-1zM54 52h1v1h-1zM54 53h1v1h-1zM50 63h1v1h-1zM1 64h1v1h-1zM3 67h1v1h-1zM21 67h1v1h-1zM60 68h1v1h-1zM9 71h1v1h-1zM12 73h1v1h-1zM26 81h1v1h-1z" /><path fill="#2c96e0" d="M50 20h1v1h-1z" /><path fill="#2e8be6" d="M51 21h1v1h-1z" /><path fill="#2d9add" d="M52 21h1v1h-1zM52 74h1v1h-1z" /><path fill="#2c9cdb" d="M85 21h1v1h-1zM72 25h1v1h-1zM45 35h1v1h-1zM35 40h1v1h-1zM35 55h1v1h-1zM89 55h1v1h-1zM36 64h1v1h-1zM80 66h1v1h-1zM38 67h1v1h-1zM62 70h1v1h-1zM78 78h1v1h-1zM57 79h1v1h-1zM61 81h1v1h-1zM71 82h1v1h-1z" /><path fill="#2f81ec" d="M52 22h1v1h-1zM45 29h1v1h-1zM54 72h1v1h-1z" /><path fill="#2d90e3" d="M53 22h1v1h-1z" /><path fill="#2d9cdc" d="M54 22h1v1h-1z" /><path fill="#2f7fec" d="M10 23h1v1h-1zM9 24h1v1h-1zM38 25h1v1h-1zM23 27h1v1h-1zM12 33h1v1h-1zM52 33h1v1h-1zM11 34h1v1h-1zM10 37h1v1h-1zM64 37h1v1h-1zM0 39h1v1h-1zM64 41h1v1h-1zM64 42h1v1h-1zM64 43h1v1h-1zM64 44h1v1h-1zM64 45h1v1h-1zM64 46h1v1h-1zM64 47h1v1h-1zM64 48h1v1h-1zM64 49h1v1h-1zM64 50h1v1h-1zM64 51h1v1h-1zM64 52h1v1h-1zM64 53h1v1h-1zM64 54h1v1h-1zM0 56h1v1h-1zM10 58h1v1h-1zM64 58h1v1h-1zM10 60h1v1h-1zM52 62h1v1h-1zM2 66h1v1h-1zM5 69h1v1h-1zM16 75h1v1h-1zM28 82h1v1h-1zM36 82h1v1h-1z" /><path fill="#2f85ea" d="M54 23h1v1h-1zM41 27h1v1h-1zM44 66h1v1h-1z" /><path fill="#2d95e0" d="M55 23h1v1h-1z" /><path fill="#2e88e7" d="M56 24h1v1h-1z" /><path fill="#2d99dd" d="M57 24h1v1h-1z" /><path fill="#2e82ec" d="M57 25h1v1h-1zM59 69h1v1h-1z" /><path fill="#2e8fe3" d="M58 25h1v1h-1z" /><path fill="#2f82ec" d="M39 26h1v1h-1zM43 28h1v1h-1zM46 65h1v1h-1z" /><path fill="#2f86e8" d="M59 26h1v1h-1z" /><path fill="#2d98dd" d="M60 26h1v1h-1z" /><path fill="#2e95df" d="M40 27h1v1h-1z" /><path fill="#2d91e1" d="M42 28h1v1h-1z" /><path fill="#2d9bdc" d="M43 29h1v1h-1zM48 32h1v1h-1zM48 63h1v1h-1z" /><path fill="#2e8de4" d="M44 29h1v1h-1z" /><path fill="#2e97de" d="M45 30h1v1h-1z" /><path fill="#2e88e8" d="M46 30h1v1h-1zM49 63h1v1h-1z" /><path fill="#2e94e0" d="M47 31h1v1h-1z" /><path fill="#2e85ea" d="M48 31h1v1h-1z" /><path fill="#2e8ee4" d="M49 32h1v1h-1z" /><path fill="#2d8ee5" d="M47 64h1v1h-1z" /><path fill="#2d93e0" d="M45 65h1v1h-1z" /><path fill="#2d99de" d="M43 66h1v1h-1z" /><path fill="#2d9cdd" d="M41 67h1v1h-1z" /><path fill="#2f89e7" d="M42 67h1v1h-1z" /><path fill="#2d8fe2" d="M40 68h1v1h-1z" /><path fill="#2d98de" d="M60 69h1v1h-1z" /><path fill="#2e8ae6" d="M58 70h1v1h-1z" /><path fill="#2d9adb" d="M59 70h1v1h-1z" /><path fill="#2e83eb" d="M56 71h1v1h-1z" /><path fill="#2d97df" d="M57 71h1v1h-1z" /><path fill="#2e92e2" d="M55 72h1v1h-1z" /><path fill="#2d8ae6" d="M53 73h1v1h-1z" /><path fill="#2f86e9" d="M51 74h1v1h-1z" /><path fill="#2d81eb" d="M49 75h1v1h-1z" /><path fill="#2f91e1" d="M50 75h1v1h-1z" /></svg>