<svg xmlns="http://www.w3.org/2000/svg" viewBox="0 0 100 100"><path fill="#626262" fill-rule="evenodd" d="M11 27h1v1h-1zm88 23h1v1h-1z"/><path fill="#616163" fill-rule="evenodd" d="M12 27h1v1h-1z"/><path fill="#5e6165" fill-rule="evenodd" d="M13 27h1v1h-1z"/><path fill="#5b6166" fill-rule="evenodd" d="M14 27h1v1h-1z"/><path fill="#5c6066" fill-rule="evenodd" d="M15 27h1v1h-1zm70 0h1v1h-1z"/><path fill="#4d5868" fill-rule="evenodd" d="M16 27h1v1h-1z"/><path fill="#5d6065" fill-rule="evenodd" d="M86 27h1v1h-1z"/><path fill="#606163" fill-rule="evenodd" d="M87 27h1v1h-1z"/><path fill="#616161" fill-rule="evenodd" d="M88 27h1v1h-1zm-82 41h1v1h-1zm1 1h1v1h-1zm85 0h1v1h-1z"/><path fill="#717171" fill-rule="evenodd" d="M9 28h1v1h-1zm81 0h1v1h-1zm-85 14h1v1h-1z"/><path fill="#c4c4c5" fill-rule="evenodd" d="M10 28h1v1h-1z"/><path fill="#eee" fill-rule="evenodd" d="M11 28h1v1h-1zm77 0h1v1h-1zm-85 19h1v1h-1z"/><path fill="#f6f6f6" fill-rule="evenodd" d="M12 28h4v3h-4v2h-1v11h-1v2h-1v1h-1v1h-2v1h-1v1h1v1h2v1h1v1h1v2h1v11h1v2h2v3h-2v-1h-3v-1h-1v-1h-1v-3h-1v-12h-1v-1h-1v-1h-2v-1h-1v-1h1v-1h2v-1h1v-1h1v-12h1v-3h1v-1h2v-1h2zm6 0h4v1h1v2h1v26h1v1h2v3h-2v1h-3v-1h-3v-2h-1zm68 0h2v1h2v1h2v1h1v3h1v12h1v1h1v1h2v1h1v1h-1v1h-2v1h-1v1h-1v13h-1v2h-1v1h-1v1h-3v1h-2v-3h2v-2h1v-11h1v-2h1v-1h1v-1h2v-1h1v-1h-2v-1h-1v-1h-1v-1h-1v-2h-1v-12h-1v-1h-2zm-50 13h5v1h2v1h1v1h1v1h1v3h1v4h-1v1h-11v3h1v1h1v1h6v-1h2v1h1v2h-1v1h-2v1h-8v-1h-2v-1h-1v-1h-1v-2h-1v-10h1v-2h1v-1h1v-1h1v-1h2zm19 0h8v1h2v3h-1v1h-2v-1h-6v3h1v1h3v1h2v1h2v1h1v2h1v3h-1v2h-1v1h-1v1h-2v1h-8v-1h-2v-1h-1v-1h1v-2h2v1h7v-3h-1v-1h-2v-1h-3v-1h-1v-1h-1v-1h-1v-6h1v-1h1v-1h2zm19 0h7v1h2v1h1v2h-1v1h-2v-1h-6v3h1v1h3v1h2v1h1v1h1v1h1v6h-1v1h-1v1h-2v1h-8v-1h-3v-3h1v-1h1v1h7v-1h1v-1h-1v-2h-3v-1h-2v-1h-2v-1h-1v-2h-1v-3h1v-2h1v-1h1v-1h2zm-37 4h-1v2h-1v3h7v-3h-1v-2z"/><path fill="#566272" fill-rule="evenodd" d="M16 28h1v3h-1z"/><path fill="#8c9fbb" fill-rule="evenodd" d="M17 28h1v2h-1zm0 12h1v2h-1z"/><path fill="#f0f1f3" fill-rule="evenodd" d="M22 28h1v1h-1zm18 17h1v1h-1z"/><path fill="#637ea4" fill-rule="evenodd" d="M23 28h1v1h-1z"/><path fill="#2a4f84" fill-rule="evenodd" d="M24 28h60v4h2v1h1v2h1v2h-63v-7h-1zm-10 4h3v5h-5v-2h1v-2h1z"/><path fill="#3d5373" fill-rule="evenodd" d="M84 28h1v3h-1z"/><path fill="#d6d6d6" fill-rule="evenodd" d="M85 28h1v2h-1zm0 41h1v2h-1z"/><path fill="#c4c5c5" fill-rule="evenodd" d="M89 28h1v1h-1z"/><path fill="#5f5f5f" fill-rule="evenodd" d="M7 29h1v1h-1zm91 18h1v1h-1zm1 1h1v1h-1z"/><path fill="#a2a2a2" fill-rule="evenodd" d="M8 29h1v1h-1z"/><path fill="#f5f5f5" fill-rule="evenodd" d="M9 29h1v1h-1zm81 0h1v1h-1zm-2 3h1v1h-1zm6 13h1v1h-1zm-64 1h1v1h-1zm-24 2h1v1h-1zm50 5h1v1h-1zm-35 8h1v1h-1z"/><path fill="#cdd4df" fill-rule="evenodd" d="M23 29h1v1h-1z"/><path fill="#9fa0a0" fill-rule="evenodd" d="M91 29h1v1h-1z"/><path fill="#b7b7b7" fill-rule="evenodd" d="M7 30h1v1h-1z"/><path fill="#8da0bb" fill-rule="evenodd" d="M17 30h1v10h-1z"/><path fill="#f4f5f5" fill-rule="evenodd" d="M23 30h1v1h-1zm46 15h1v1h-1z"/><path fill="#315588" fill-rule="evenodd" d="M24 30h1v1h-1z"/><path fill="#d5d5d5" fill-rule="evenodd" d="M85 30h1v1h-1zm-78 38h1v1h-1zm85 0h1v1h-1z"/><path fill="#aaabab" fill-rule="evenodd" d="M92 30h1v1h-1z"/><path fill="#838383" fill-rule="evenodd" d="M6 31h1v1h-1zm91 20h1v1h-1z"/><path fill="#f0f0f0" fill-rule="evenodd" d="M12 31h1v1h-1zm-2 13h1v1h-1z"/><path fill="#8b8f95" fill-rule="evenodd" d="M13 31h1v1h-1z"/><path fill="#5a6472" fill-rule="evenodd" d="M14 31h1v1h-1z"/><path fill="#4f5c6e" fill-rule="evenodd" d="M15 31h1v1h-1z"/><path fill="#3e5474" fill-rule="evenodd" d="M16 31h1v1h-1z"/><path fill="#3c5e8e" fill-rule="evenodd" d="M24 31h1v1h-1zm0 9h1v2h-1z"/><path fill="#2f4e7b" fill-rule="evenodd" d="M84 31h1v1h-1z"/><path fill="#545f70" fill-rule="evenodd" d="M85 31h1v1h-1z"/><path fill="#7f848b" fill-rule="evenodd" d="M86 31h1v1h-1z"/><path fill="#efefef" fill-rule="evenodd" d="M87 31h1v1h-1zm-84 20h1v1h-1zm6 1h1v1h-1zm81 0h1v1h-1z"/><path fill="#787878" fill-rule="evenodd" d="M93 31h1v1h-1z"/><path fill="#d2d2d2" fill-rule="evenodd" d="M6 32h1v1h-1z"/><path fill="#6a7179" fill-rule="evenodd" d="M12 32h1v1h-1z"/><path fill="#2f4e7c" fill-rule="evenodd" d="M13 32h1v1h-1z"/><path fill="#3d5f8f" fill-rule="evenodd" d="M24 32h1v5h-1z"/><path fill="#2e4f7c" fill-rule="evenodd" d="M86 32h1v1h-1z"/><path fill="#6a7078" fill-rule="evenodd" d="M87 32h1v1h-1z"/><path fill="#c9caca" fill-rule="evenodd" d="M93 32h1v1h-1z"/><path fill="#636363" fill-rule="evenodd" d="M5 33h1v1h-1zm93 18h1v1h-1zm-93 14h1v1h-1zm88 3h1v1h-1z"/><path fill="#f4f4f4" fill-rule="evenodd" d="M6 33h1v1h-1zm87 0h1v1h-1zm-88 12h1v1h-1zm-4 5h1v1h-1zm93 3h1v1h-1zm-84 1h1v1h-1zm1 16h1v1h-1zm77 0h1v1h-1z"/><path fill="#c8c9ca" fill-rule="evenodd" d="M11 33h1v1h-1z"/><path fill="#3b5272" fill-rule="evenodd" d="M12 33h1v1h-1z"/><path fill="#395275" fill-rule="evenodd" d="M87 33h1v1h-1z"/><path fill="#b8babc" fill-rule="evenodd" d="M88 33h1v1h-1z"/><path fill="#666" fill-rule="evenodd" d="M94 33h1v1h-1zm-91 13h1v1h-1z"/><path fill="#686868" fill-rule="evenodd" d="M5 34h1v1h-1zm-2 18h1v1h-1zm2 12h1v1h-1z"/><path fill="#888c92" fill-rule="evenodd" d="M11 34h1v1h-1z"/><path fill="#2b4e80" fill-rule="evenodd" d="M12 34h1v1h-1z"/><path fill="#2b4f83" fill-rule="evenodd" d="M87 34h1v1h-1z"/><path fill="#767c84" fill-rule="evenodd" d="M88 34h1v1h-1z"/><path fill="#727474" fill-rule="evenodd" d="M94 34h1v1h-1z"/><path fill="#6a6a6a" fill-rule="evenodd" d="M5 35h1v6h-1zm-4 16h1v1h-1zm3 2h1v1h-1z"/><path fill="#777d84" fill-rule="evenodd" d="M11 35h1v1h-1z"/><path fill="#6a727d" fill-rule="evenodd" d="M88 35h1v1h-1z"/><path fill="#757679" fill-rule="evenodd" d="M94 35h1v1h-1z"/><path fill="#757b83" fill-rule="evenodd" d="M11 36h1v5h-1z"/><path fill="#666e7b" fill-rule="evenodd" d="M88 36h1v1h-1z"/><path fill="#747679" fill-rule="evenodd" d="M94 36h1v1h-1z"/><path fill="#2a4f83" fill-rule="evenodd" d="M12 37h5v3h-5zm13 0h63v3h-63zm27 4h1v1h-1z"/><path fill="#3d5f8e" fill-rule="evenodd" d="M24 37h1v3h-1z"/><path fill="#666e7a" fill-rule="evenodd" d="M88 37h1v3h-1zm-77 6h1v1h-1z"/><path fill="#747579" fill-rule="evenodd" d="M94 37h1v4h-1z"/><path fill="#294e83" fill-rule="evenodd" d="M12 40h5v2h-5zm13 0h10v1h-2v1h-8zm17 0h12v1h-2v1h-8v-1h-2zm22 0h9v1h-2v1h-5v-1h-2zm18 0h6v2h-4v-1h-2z"/><path fill="#416291" fill-rule="evenodd" d="M35 40h1v1h-1z"/><path fill="#8fa1bc" fill-rule="evenodd" d="M36 40h1v1h-1z"/><path fill="#c1cad8" fill-rule="evenodd" d="M37 40h1v1h-1z"/><path fill="#d0d7e1" fill-rule="evenodd" d="M38 40h1v1h-1z"/><path fill="#b8c4d4" fill-rule="evenodd" d="M39 40h1v1h-1z"/><path fill="#7990b0" fill-rule="evenodd" d="M40 40h1v1h-1zm40 0h1v1h-1z"/><path fill="#325688" fill-rule="evenodd" d="M41 40h1v1h-1z"/><path fill="#35588a" fill-rule="evenodd" d="M54 40h1v1h-1z"/><path fill="#778eaf" fill-rule="evenodd" d="M55 40h1v1h-1z"/><path fill="#afbcce" fill-rule="evenodd" d="M56 40h1v1h-1zm4 0h1v1h-1z"/><path fill="#c7d0dc" fill-rule="evenodd" d="M57 40h1v1h-1z"/><path fill="#d2d9e2" fill-rule="evenodd" d="M58 40h1v1h-1zm18 0h1v1h-1z"/><path fill="#c5ceda" fill-rule="evenodd" d="M59 40h1v1h-1z"/><path fill="#899db9" fill-rule="evenodd" d="M61 40h1v1h-1z"/><path fill="#5c78a0" fill-rule="evenodd" d="M62 40h1v1h-1z"/><path fill="#2c5084" fill-rule="evenodd" d="M63 40h1v1h-1z"/><path fill="#4d6b97" fill-rule="evenodd" d="M73 40h1v1h-1z"/><path fill="#91a3bd" fill-rule="evenodd" d="M74 40h1v1h-1zm-32 1h1v1h-1z"/><path fill="#bcc6d5" fill-rule="evenodd" d="M75 40h1v1h-1zm4 5h1v1h-1zm4 0h1v1h-1z"/><path fill="#cdd5df" fill-rule="evenodd" d="M77 40h1v1h-1z"/><path fill="#bdc8d6" fill-rule="evenodd" d="M78 40h1v1h-1z"/><path fill="#9faec5" fill-rule="evenodd" d="M79 40h1v1h-1z"/><path fill="#426391" fill-rule="evenodd" d="M81 40h1v1h-1z"/><path fill="#656e7a" fill-rule="evenodd" d="M88 40h1v2h-1z"/><path fill="#6b6b6b" fill-rule="evenodd" d="M5 41h1v1h-1zm0 16h1v7h-1z"/><path fill="#737a82" fill-rule="evenodd" d="M11 41h1v1h-1z"/><path fill="#456593" fill-rule="evenodd" d="M33 41h1v1h-1z"/><path fill="#b0bdcf" fill-rule="evenodd" d="M34 41h1v1h-1z"/><path fill="#f3f3f4" fill-rule="evenodd" d="M35 41h1v1h-1zm22 7h1v1h-1z"/><path fill="#eaecef" fill-rule="evenodd" d="M41 41h1v1h-1z"/><path fill="#355789" fill-rule="evenodd" d="M43 41h1v1h-1z"/><path fill="#8297b5" fill-rule="evenodd" d="M53 41h1v1h-1z"/><path fill="#e7eaee" fill-rule="evenodd" d="M54 41h1v1h-1z"/><path fill="#dfe3e9" fill-rule="evenodd" d="M63 41h1v1h-1zm13 7h1v1h-1z"/><path fill="#8095b4" fill-rule="evenodd" d="M64 41h1v1h-1z"/><path fill="#2e5286" fill-rule="evenodd" d="M65 41h1v1h-1z"/><path fill="#406190" fill-rule="evenodd" d="M71 41h1v1h-1z"/><path fill="#b5c1d2" fill-rule="evenodd" d="M72 41h1v1h-1z"/><path fill="#f5f5f6" fill-rule="evenodd" d="M73 41h1v1h-1zm8 0h1v1h-1zm2 1h1v1h-1zm-51 1h1v1h-1z"/><path fill="#bbc6d5" fill-rule="evenodd" d="M82 41h1v1h-1zm-30 1h1v1h-1z"/><path fill="#526f9a" fill-rule="evenodd" d="M83 41h1v1h-1z"/><path fill="#737578" fill-rule="evenodd" d="M94 41h1v1h-1z"/><path fill="#6d747e" fill-rule="evenodd" d="M11 42h1v1h-1z"/><path fill="#294e82" fill-rule="evenodd" d="M12 42h5v3h-5zm13 0h7v1h-1v1h-1v1h-5zm20 0h6v2h-1v1h-3v-1h-1v-1h-1zm21 0h4v1h-1v2h-3zm19 0h3v3h-3z"/><path fill="#8c9fba" fill-rule="evenodd" d="M17 42h1v4h-1z"/><path fill="#3c5e8d" fill-rule="evenodd" d="M24 42h1v3h-1z"/><path fill="#7d93b1" fill-rule="evenodd" d="M32 42h1v1h-1z"/><path fill="#eef0f2" fill-rule="evenodd" d="M33 42h1v1h-1z"/><path fill="#e1e5ea" fill-rule="evenodd" d="M43 42h1v1h-1zm18 3h1v1h-1z"/><path fill="#53719a" fill-rule="evenodd" d="M44 42h1v1h-1z"/><path fill="#315587" fill-rule="evenodd" d="M51 42h1v1h-1z"/><path fill="#ccd3de" fill-rule="evenodd" d="M65 42h1v1h-1z"/><path fill="#5c789f" fill-rule="evenodd" d="M70 42h1v1h-1z"/><path fill="#e8ebee" fill-rule="evenodd" d="M71 42h1v1h-1z"/><path fill="#768dae" fill-rule="evenodd" d="M84 42h1v1h-1z"/><path fill="#636c79" fill-rule="evenodd" d="M88 42h1v1h-1z"/><path fill="#797a7d" fill-rule="evenodd" d="M94 42h1v1h-1z"/><path fill="#7d7d7d" fill-rule="evenodd" d="M5 43h1v1h-1z"/><path fill="#8096b3" fill-rule="evenodd" d="M31 43h1v1h-1z"/><path fill="#edeef1" fill-rule="evenodd" d="M44 43h1v1h-1z"/><path fill="#4e6c97" fill-rule="evenodd" d="M45 43h1v1h-1zm-15 1h1v1h-1z"/><path fill="#b8c3d3" fill-rule="evenodd" d="M51 43h1v1h-1z"/><path fill="#d1d8e1" fill-rule="evenodd" d="M65 43h1v1h-1z"/><path fill="#4b6a95" fill-rule="evenodd" d="M69 43h1v1h-1z"/><path fill="#eceef0" fill-rule="evenodd" d="M70 43h1v1h-1z"/><path fill="#798faf" fill-rule="evenodd" d="M84 43h1v1h-1z"/><path fill="#5f6976" fill-rule="evenodd" d="M88 43h1v1h-1z"/><path fill="#868788" fill-rule="evenodd" d="M94 43h1v1h-1z"/><path fill="#b2b2b2" fill-rule="evenodd" d="M5 44h1v1h-1z"/><path fill="#505d6f" fill-rule="evenodd" d="M11 44h1v1h-1z"/><path fill="#f2f3f4" fill-rule="evenodd" d="M31 44h1v1h-1zm49 1h1v1h-1z"/><path fill="#d6dce4" fill-rule="evenodd" d="M45 44h1v1h-1z"/><path fill="#2d5184" fill-rule="evenodd" d="M46 44h1v1h-1z"/><path fill="#6680a4" fill-rule="evenodd" d="M50 44h1v1h-1z"/><path fill="#9dadc4" fill-rule="evenodd" d="M65 44h1v1h-1z"/><path fill="#bdc7d6" fill-rule="evenodd" d="M69 44h1v1h-1z"/><path fill="#466693" fill-rule="evenodd" d="M84 44h1v1h-1z"/><path fill="#525e6f" fill-rule="evenodd" d="M88 44h1v1h-1z"/><path fill="#f3f3f3" fill-rule="evenodd" d="M89 44h1v1h-1z"/><path fill="#c1c2c2" fill-rule="evenodd" d="M94 44h1v1h-1z"/><path fill="#6c6c6c" fill-rule="evenodd" d="M4 45h1v1h-1z"/><path fill="#aeb0b3" fill-rule="evenodd" d="M10 45h1v1h-1z"/><path fill="#354e74" fill-rule="evenodd" d="M11 45h1v1h-1z"/><path fill="#294d81" fill-rule="evenodd" d="M12 45h5v1h-5zm13 0h5v1h-5zm22 0h3v1h-3zm19 0h2v1h-2zm18 0h4v1h-4z"/><path fill="#3c5d8c" fill-rule="evenodd" d="M24 45h1v1h-1zm44 0h1v1h-1z"/><path fill="#bfc9d6" fill-rule="evenodd" d="M30 45h1v1h-1z"/><path fill="#eaedf0" fill-rule="evenodd" d="M36 45h1v1h-1zm20 0h1v1h-1z"/><path fill="#8094b2" fill-rule="evenodd" d="M37 45h1v1h-1z"/><path fill="#5f7aa0" fill-rule="evenodd" d="M38 45h1v1h-1z"/><path fill="#8b9db9" fill-rule="evenodd" d="M39 45h1v1h-1z"/><path fill="#778dad" fill-rule="evenodd" d="M46 45h1v1h-1z"/><path fill="#b0bcce" fill-rule="evenodd" d="M50 45h1v1h-1z"/><path fill="#8196b3" fill-rule="evenodd" d="M57 45h1v1h-1z"/><path fill="#6a83a6" fill-rule="evenodd" d="M58 45h1v1h-1z"/><path fill="#7b90af" fill-rule="evenodd" d="M59 45h1v1h-1z"/><path fill="#a5b3c8" fill-rule="evenodd" d="M60 45h1v1h-1z"/><path fill="#f3f4f5" fill-rule="evenodd" d="M64 45h1v1h-1z"/><path fill="#496793" fill-rule="evenodd" d="M65 45h1v1h-1z"/><path fill="#c1cad7" fill-rule="evenodd" d="M75 45h1v1h-1z"/><path fill="#6c85a8" fill-rule="evenodd" d="M76 45h1v1h-1z"/><path fill="#7087a9" fill-rule="evenodd" d="M77 45h1v1h-1z"/><path fill="#8b9eb9" fill-rule="evenodd" d="M78 45h1v1h-1z"/><path fill="#364f74" fill-rule="evenodd" d="M88 45h1v1h-1z"/><path fill="#b1b3b6" fill-rule="evenodd" d="M89 45h1v1h-1z"/><path fill="#6e6e6e" fill-rule="evenodd" d="M95 45h1v1h-1zm-90 11h1v1h-1z"/><path fill="#ddd" fill-rule="evenodd" d="M4 46h1v1h-1z"/><path fill="#e8e8e8" fill-rule="evenodd" d="M9 46h1v1h-1zm87 1h1v1h-1z"/><path fill="#565f6d" fill-rule="evenodd" d="M10 46h1v1h-1z"/><path fill="#284c7f" fill-rule="evenodd" d="M11 46h6v1h-6zm14 0h4v1h-4zm12 0h3v1h-3zm10 0h3v1h-3zm10 0h4v1h-4zm8 0h3v1h-3zm11 0h4v1h-4zm8 0h5v1h-5z"/><path fill="#8c9eb9" fill-rule="evenodd" d="M17 46h1v1h-1z"/><path fill="#3b5c8a" fill-rule="evenodd" d="M24 46h1v1h-1z"/><path fill="#44638f" fill-rule="evenodd" d="M29 46h1v1h-1z"/><path fill="#667fa3" fill-rule="evenodd" d="M36 46h1v1h-1z"/><path fill="#7d92b0" fill-rule="evenodd" d="M40 46h1v1h-1z"/><path fill="#bfc8d6" fill-rule="evenodd" d="M46 46h1v1h-1z"/><path fill="#d7dce4" fill-rule="evenodd" d="M50 46h1v1h-1z"/><path fill="#9faec4" fill-rule="evenodd" d="M56 46h1v1h-1z"/><path fill="#2b4e81" fill-rule="evenodd" d="M61 46h1v1h-1z"/><path fill="#617ba0" fill-rule="evenodd" d="M62 46h1v1h-1zm6 0h1v1h-1z"/><path fill="#acb9cb" fill-rule="evenodd" d="M63 46h1v1h-1z"/><path fill="#8397b4" fill-rule="evenodd" d="M64 46h1v1h-1z"/><path fill="#476691" fill-rule="evenodd" d="M75 46h1v1h-1z"/><path fill="#395a89" fill-rule="evenodd" d="M80 46h1v1h-1z"/><path fill="#8195b2" fill-rule="evenodd" d="M81 46h1v1h-1z"/><path fill="#bec8d5" fill-rule="evenodd" d="M82 46h1v1h-1z"/><path fill="#43628f" fill-rule="evenodd" d="M83 46h1v1h-1z"/><path fill="#57616e" fill-rule="evenodd" d="M89 46h1v1h-1z"/><path fill="#e9e9e9" fill-rule="evenodd" d="M90 46h1v1h-1z"/><path fill="#dedede" fill-rule="evenodd" d="M95 46h1v1h-1zm-91 6h1v1h-1zm91 0h1v1h-1z"/><path fill="#656565" fill-rule="evenodd" d="M96 46h1v1h-1z"/><path fill="#676767" fill-rule="evenodd" d="M1 47h1v1h-1z"/><path fill="#929292" fill-rule="evenodd" d="M2 47h1v1h-1z"/><path fill="#e7e7e7" fill-rule="evenodd" d="M8 47h1v1h-1zm83 0h1v1h-1z"/><path fill="#5f666f" fill-rule="evenodd" d="M9 47h1v1h-1z"/><path fill="#294a79" fill-rule="evenodd" d="M10 47h1v1h-1z"/><path fill="#274b7d" fill-rule="evenodd" d="M11 47h6v1h-6zm14 0h4v1h-4zm12 0h3v1h-3zm11 0h2v1h-2zm10 0h10v1h-10zm19 0h12v1h-12z"/><path fill="#8b9eb8" fill-rule="evenodd" d="M17 47h1v1h-1z"/><path fill="#3a5b88" fill-rule="evenodd" d="M24 47h1v1h-1z"/><path fill="#8497b3" fill-rule="evenodd" d="M29 47h1v1h-1z"/><path fill="#eeeff1" fill-rule="evenodd" d="M35 47h1v1h-1zm29 12h1v1h-1z"/><path fill="#2b4f80" fill-rule="evenodd" d="M36 47h1v1h-1z"/><path fill="#335584" fill-rule="evenodd" d="M40 47h1v1h-1z"/><path fill="#f3f4f4" fill-rule="evenodd" d="M41 47h1v1h-1zm36 7h1v1h-1zm-42 1h1v1h-1zm30 2h1v1h-1z"/><path fill="#eff0f2" fill-rule="evenodd" d="M46 47h1v1h-1z"/><path fill="#2a4e7f" fill-rule="evenodd" d="M47 47h1v1h-1z"/><path fill="#e4e7ec" fill-rule="evenodd" d="M50 47h1v1h-1z"/><path fill="#dadfe6" fill-rule="evenodd" d="M56 47h1v1h-1z"/><path fill="#496791" fill-rule="evenodd" d="M57 47h1v1h-1z"/><path fill="#6e85a6" fill-rule="evenodd" d="M68 47h1v1h-1z"/><path fill="#9faec3" fill-rule="evenodd" d="M75 47h1v1h-1z"/><path fill="#2f5182" fill-rule="evenodd" d="M76 47h1v1h-1z"/><path fill="#284a79" fill-rule="evenodd" d="M89 47h1v1h-1z"/><path fill="#606770" fill-rule="evenodd" d="M90 47h1v1h-1z"/><path fill="#7f7f7f" fill-rule="evenodd" d="M97 47h1v1h-1z"/><path fill="#727272" fill-rule="evenodd" d="M0 48h1v1h-1z"/><path fill="#f1f1f1" fill-rule="evenodd" d="M1 48h1v1h-1zm88 6h1v1h-1z"/><path fill="#b4b5b7" fill-rule="evenodd" d="M7 48h1v1h-1z"/><path fill="#545e6c" fill-rule="evenodd" d="M8 48h1v1h-1zm83 0h1v1h-1z"/><path fill="#294a78" fill-rule="evenodd" d="M9 48h1v1h-1zm60 3h1v1h-1z"/><path fill="#274a7b" fill-rule="evenodd" d="M10 48h7v1h-7zm15 0h4v1h-4zm11 0h5v1h-5zm12 0h2v1h-2zm13 0h7v1h-7zm18 0h11v1h-11z"/><path fill="#8b9db7" fill-rule="evenodd" d="M17 48h1v1h-1z"/><path fill="#3a5a86" fill-rule="evenodd" d="M24 48h1v1h-1zm23 0h1v1h-1z"/><path fill="#afbbcc" fill-rule="evenodd" d="M29 48h1v1h-1z"/><path fill="#d4d9e2" fill-rule="evenodd" d="M35 48h1v1h-1z"/><path fill="#e2e5ea" fill-rule="evenodd" d="M41 48h1v1h-1z"/><path fill="#d3d9e1" fill-rule="evenodd" d="M50 48h1v1h-1z"/><path fill="#b2bdce" fill-rule="evenodd" d="M58 48h1v1h-1z"/><path fill="#6880a1" fill-rule="evenodd" d="M59 48h1v1h-1z"/><path fill="#2d4f7f" fill-rule="evenodd" d="M60 48h1v1h-1z"/><path fill="#5d779b" fill-rule="evenodd" d="M68 48h1v1h-1z"/><path fill="#92a3ba" fill-rule="evenodd" d="M77 48h1v1h-1z"/><path fill="#4a6790" fill-rule="evenodd" d="M78 48h1v1h-1z"/><path fill="#294977" fill-rule="evenodd" d="M90 48h1v1h-1z"/><path fill="#b5b6b8" fill-rule="evenodd" d="M92 48h1v1h-1z"/><path fill="#e1e1e1" fill-rule="evenodd" d="M98 48h1v1h-1z"/><path fill="#878787" fill-rule="evenodd" d="M0 49h1v1h-1z"/><path fill="#ececec" fill-rule="evenodd" d="M5 49h1v1h-1zm89 0h1v1h-1zm0 1v1h-1v-1z"/><path fill="#636568" fill-rule="evenodd" d="M6 49h1v1h-1z"/><path fill="#394b64" fill-rule="evenodd" d="M7 49h1v1h-1z"/><path fill="#264879" fill-rule="evenodd" d="M8 49h9v1h-9zm17 0h4v1h-4zm23 0h2v1h-2zm15 0h5v1h-5zm19 0h10v1h-10z"/><path fill="#8b9cb6" fill-rule="evenodd" d="M17 49h1v1h-1z"/><path fill="#395885" fill-rule="evenodd" d="M24 49h1v1h-1z"/><path fill="#d0d6df" fill-rule="evenodd" d="M29 49h1v1h-1z"/><path fill="#d1d7e0" fill-rule="evenodd" d="M35 49h1v1h-1z"/><path fill="#6b82a3" fill-rule="evenodd" d="M36 49h5v1h-5z"/><path fill="#dee2e8" fill-rule="evenodd" d="M41 49h1v1h-1zm-12 1h1v1h-1z"/><path fill="#47648d" fill-rule="evenodd" d="M47 49h1v1h-1z"/><path fill="#9cabc0" fill-rule="evenodd" d="M50 49h1v1h-1z"/><path fill="#e9ebee" fill-rule="evenodd" d="M60 49h1v1h-1z"/><path fill="#9dacc1" fill-rule="evenodd" d="M61 49h1v1h-1z"/><path fill="#405e89" fill-rule="evenodd" d="M62 49h1v1h-1z"/><path fill="#30517f" fill-rule="evenodd" d="M68 49h1v1h-1z"/><path fill="#ebedef" fill-rule="evenodd" d="M69 49h1v1h-1zm3 3h1v1h-1zm-22 8h1v1h-1z"/><path fill="#cdd3dd" fill-rule="evenodd" d="M79 49h1v1h-1z"/><path fill="#778caa" fill-rule="evenodd" d="M80 49h1v1h-1z"/><path fill="#2a4c7c" fill-rule="evenodd" d="M81 49h1v1h-1z"/><path fill="#3a4b64" fill-rule="evenodd" d="M92 49h1v1h-1z"/><path fill="#656769" fill-rule="evenodd" d="M93 49h1v1h-1z"/><path fill="#646464" fill-rule="evenodd" d="M99 49h1v1h-1zm-3 3h1v1h-1z"/><path fill="#7a7a7a" fill-rule="evenodd" d="M0 50h1v1h-1z"/><path fill="#ebebeb" fill-rule="evenodd" d="M6 50h1v1h-1zm8 18h1v1h-1z"/><path fill="#909398" fill-rule="evenodd" d="M7 50h1v1h-1zm85 0h1v1h-1z"/><path fill="#4f5a6a" fill-rule="evenodd" d="M8 50h1v1h-1z"/><path fill="#274774" fill-rule="evenodd" d="M9 50h1v1h-1zm81 0h1v1h-1z"/><path fill="#254777" fill-rule="evenodd" d="M10 50h7v1h-7zm15 0h4v1h-4zm23 0h2v1h-2zm17 0h4v1h-4zm18 0h7v1h-7z"/><path fill="#8a9cb5" fill-rule="evenodd" d="M17 50h1v1h-1z"/><path fill="#395783" fill-rule="evenodd" d="M24 50h1v1h-1z"/><path fill="#3b5984" fill-rule="evenodd" d="M47 50h1v1h-1z"/><path fill="#3f5d87" fill-rule="evenodd" d="M50 50h1v1h-1z"/><path fill="#ecedf0" fill-rule="evenodd" d="M51 50h1v1h-1z"/><path fill="#f0f1f2" fill-rule="evenodd" d="M62 50h1v1h-1zm-1 11h1v1h-1z"/><path fill="#8b9cb5" fill-rule="evenodd" d="M63 50h1v1h-1z"/><path fill="#274878" fill-rule="evenodd" d="M64 50h1v1h-1z"/><path fill="#8e9fb7" fill-rule="evenodd" d="M69 50h1v1h-1z"/><path fill="#d5dae2" fill-rule="evenodd" d="M81 50h1v1h-1z"/><path fill="#4f6a90" fill-rule="evenodd" d="M82 50h1v1h-1z"/><path fill="#4e5a6a" fill-rule="evenodd" d="M91 50h1v1h-1z"/><path fill="#eaeaea" fill-rule="evenodd" d="M98 50h1v1h-1zm-2 1h1v1h-1z"/><path fill="#949494" fill-rule="evenodd" d="M2 51h1v1h-1z"/><path fill="#e5e5e5" fill-rule="evenodd" d="M8 51h1v1h-1z"/><path fill="#646a72" fill-rule="evenodd" d="M9 51h1v1h-1z"/><path fill="#294670" fill-rule="evenodd" d="M10 51h1v1h-1z"/><path fill="#254675" fill-rule="evenodd" d="M11 51h6v1h-6zm14 0h4v1h-4zm23 0h3v1h-3zm18 0h3v1h-3zm18 0h5v1h-5z"/><path fill="#8a9bb4" fill-rule="evenodd" d="M17 51h1v1h-1z"/><path fill="#395681" fill-rule="evenodd" d="M24 51h1v1h-1z"/><path fill="#e8eaed" fill-rule="evenodd" d="M29 51h1v1h-1z"/><path fill="#2f4f7b" fill-rule="evenodd" d="M47 51h1v1h-1z"/><path fill="#667c9d" fill-rule="evenodd" d="M51 51h1v1h-1z"/><path fill="#f1f2f3" fill-rule="evenodd" d="M52 51h1v1h-1z"/><path fill="#a9b5c6" fill-rule="evenodd" d="M64 51h1v1h-1z"/><path fill="#264776" fill-rule="evenodd" d="M65 51h1v1h-1z"/><path fill="#b6c0cf" fill-rule="evenodd" d="M70 51h1v1h-1z"/><path fill="#edeff1" fill-rule="evenodd" d="M82 51h1v1h-1z"/><path fill="#5a7296" fill-rule="evenodd" d="M83 51h1v1h-1z"/><path fill="#2a4670" fill-rule="evenodd" d="M89 51h1v1h-1z"/><path fill="#656b73" fill-rule="evenodd" d="M90 51h1v1h-1z"/><path fill="#e6e6e6" fill-rule="evenodd" d="M91 51h1v1h-1z"/><path fill="#5e646e" fill-rule="evenodd" d="M10 52h1v1h-1z"/><path fill="#244472" fill-rule="evenodd" d="M11 52h1v1h-1zm77 0h1v1h-1z"/><path fill="#244573" fill-rule="evenodd" d="M12 52h5v1h-5zm13 0h4v1h-4zm22 0h5v1h-5zm19 0h4v1h-4zm19 0h3v1h-3z"/><path fill="#8a9bb3" fill-rule="evenodd" d="M17 52h1v1h-1zm54 0h1v1h-1z"/><path fill="#38567f" fill-rule="evenodd" d="M24 52h1v1h-1z"/><path fill="#e0e3e8" fill-rule="evenodd" d="M29 52h1v1h-1zm17 0h1v1h-1z"/><path fill="#516b8f" fill-rule="evenodd" d="M52 52h1v1h-1z"/><path fill="#ced4dd" fill-rule="evenodd" d="M53 52h1v1h-1z"/><path fill="#778ba6" fill-rule="evenodd" d="M65 52h1v1h-1z"/><path fill="#274775" fill-rule="evenodd" d="M70 52h1v1h-1z"/><path fill="#e3e6ea" fill-rule="evenodd" d="M83 52h1v1h-1z"/><path fill="#32507b" fill-rule="evenodd" d="M84 52h1v1h-1z"/><path fill="#5e656e" fill-rule="evenodd" d="M89 52h1v1h-1z"/><path fill="#f2f2f2" fill-rule="evenodd" d="M5 53h1v1h-1zm1 12h1v1h-1zm6 2h1v1h-1zm75 0h1v1h-1zm-73 2h1v2h-1z"/><path fill="#bfc0c1" fill-rule="evenodd" d="M10 53h1v1h-1z"/><path fill="#354b68" fill-rule="evenodd" d="M11 53h1v1h-1z"/><path fill="#234471" fill-rule="evenodd" d="M12 53h5v1h-5zm13 0h4v1h-4zm22 0h6v1h-6zm20 0h5v1h-5zm18 0h3v1h-3z"/><path fill="#899ab1" fill-rule="evenodd" d="M17 53h1v1h-1z"/><path fill="#37557d" fill-rule="evenodd" d="M24 53h1v1h-1z"/><path fill="#d4d9e0" fill-rule="evenodd" d="M29 53h1v1h-1zm55 2h1v1h-1z"/><path fill="#ebecef" fill-rule="evenodd" d="M35 53h1v1h-1z"/><path fill="#ccd3dc" fill-rule="evenodd" d="M36 53h10v1h-10z"/><path fill="#9caabd" fill-rule="evenodd" d="M46 53h1v1h-1z"/><path fill="#244572" fill-rule="evenodd" d="M53 53h1v1h-1zm13 0h1v1h-1z"/><path fill="#607797" fill-rule="evenodd" d="M54 53h1v1h-1z"/><path fill="#c1c9d4" fill-rule="evenodd" d="M55 53h1v1h-1z"/><path fill="#dce0e6" fill-rule="evenodd" d="M65 53h1v1h-1z"/><path fill="#314f79" fill-rule="evenodd" d="M72 53h1v1h-1z"/><path fill="#8d9db4" fill-rule="evenodd" d="M73 53h1v1h-1z"/><path fill="#e1e5e9" fill-rule="evenodd" d="M74 53h1v1h-1z"/><path fill="#8496ae" fill-rule="evenodd" d="M84 53h1v1h-1z"/><path fill="#334a68" fill-rule="evenodd" d="M88 53h1v1h-1z"/><path fill="#bdbebf" fill-rule="evenodd" d="M89 53h1v1h-1z"/><path fill="#6d6d6d" fill-rule="evenodd" d="M95 53h1v1h-1zm-1 12h1v1h-1z"/><path fill="#a6a6a6" fill-rule="evenodd" d="M5 54h1v1h-1z"/><path fill="#535c6a" fill-rule="evenodd" d="M11 54h1v1h-1z"/><path fill="#22426f" fill-rule="evenodd" d="M12 54h5v1h-5zm13 0h4v1h-4zm11 0h20v1h-20zm31 0h7v1h-7zm18 0h3v1h-3z"/><path fill="#8999b0" fill-rule="evenodd" d="M17 54h1v1h-1z"/><path fill="#36537c" fill-rule="evenodd" d="M24 54h1v1h-1z"/><path fill="#b9c2cf" fill-rule="evenodd" d="M29 54h1v1h-1z"/><path fill="#d5dae1" fill-rule="evenodd" d="M35 54h1v1h-1z"/><path fill="#3e5a81" fill-rule="evenodd" d="M56 54h1v1h-1z"/><path fill="#8e9db3" fill-rule="evenodd" d="M57 54h1v1h-1z"/><path fill="#e2e5e9" fill-rule="evenodd" d="M58 54h1v1h-1z"/><path fill="#445f85" fill-rule="evenodd" d="M66 54h1v1h-1z"/><path fill="#254471" fill-rule="evenodd" d="M74 54h1v1h-1z"/><path fill="#607796" fill-rule="evenodd" d="M75 54h1v1h-1z"/><path fill="#b3bdcb" fill-rule="evenodd" d="M76 54h1v1h-1z"/><path fill="#bdc6d2" fill-rule="evenodd" d="M84 54h1v1h-1z"/><path fill="#4e5969" fill-rule="evenodd" d="M88 54h1v1h-1z"/><path fill="#b6b6b6" fill-rule="evenodd" d="M94 54h1v1h-1z"/><path fill="#777" fill-rule="evenodd" d="M5 55h1v1h-1z"/><path fill="#616873" fill-rule="evenodd" d="M11 55h1v1h-1z"/><path fill="#22416d" fill-rule="evenodd" d="M12 55h5v1h-5zm13 0h4v1h-4zm12 0h21v1h-21zm30 0h10v1h-10zm18 0h3v1h-3z"/><path fill="#8999af" fill-rule="evenodd" d="M17 55h1v1h-1zm27 1h1v1h-1z"/><path fill="#3d587e" fill-rule="evenodd" d="M24 55h1v1h-1z"/><path fill="#95a4b8" fill-rule="evenodd" d="M29 55h1v1h-1z"/><path fill="#3a567d" fill-rule="evenodd" d="M36 55h1v1h-1z"/><path fill="#2e4b75" fill-rule="evenodd" d="M58 55h1v1h-1z"/><path fill="#ced3dc" fill-rule="evenodd" d="M59 55h1v1h-1z"/><path fill="#5b7292" fill-rule="evenodd" d="M66 55h1v1h-1z"/><path fill="#607695" fill-rule="evenodd" d="M77 55h1v1h-1z"/><path fill="#57616d" fill-rule="evenodd" d="M88 55h1v1h-1z"/><path fill="#7e7f80" fill-rule="evenodd" d="M94 55h1v1h-1z"/><path fill="#6b717a" fill-rule="evenodd" d="M11 56h1v1h-1z"/><path fill="#21406b" fill-rule="evenodd" d="M12 56h5v1h-5zm13 0h4v1h-4zm13 0h5v1h-5zm8 0h4v1h-4zm8 0h5v1h-5zm13 0h2v1h-2zm5 0h5v1h-5zm13 0h3v1h-3z"/><path fill="#8596ad" fill-rule="evenodd" d="M17 56h1v1h-1z"/><path fill="#7e8fa7" fill-rule="evenodd" d="M24 56h1v1h-1z"/><path fill="#5c7291" fill-rule="evenodd" d="M29 56h1v1h-1z"/><path fill="#b4becb" fill-rule="evenodd" d="M36 56h1v1h-1z"/><path fill="#24436d" fill-rule="evenodd" d="M37 56h1v1h-1z"/><path fill="#496285" fill-rule="evenodd" d="M43 56h1v1h-1z"/><path fill="#38547a" fill-rule="evenodd" d="M45 56h1v1h-1z"/><path fill="#355178" fill-rule="evenodd" d="M50 56h1v1h-1z"/><path fill="#b6bfcc" fill-rule="evenodd" d="M51 56h1v1h-1z"/><path fill="#617795" fill-rule="evenodd" d="M52 56h1v1h-1z"/><path fill="#23416c" fill-rule="evenodd" d="M53 56h1v1h-1z"/><path fill="#909fb3" fill-rule="evenodd" d="M59 56h1v1h-1zm-19 1h1v1h-1z"/><path fill="#51698a" fill-rule="evenodd" d="M66 56h1v1h-1z"/><path fill="#788aa3" fill-rule="evenodd" d="M69 56h1v1h-1z"/><path fill="#9aa8ba" fill-rule="evenodd" d="M70 56h1v1h-1z"/><path fill="#3b567c" fill-rule="evenodd" d="M71 56h1v1h-1z"/><path fill="#22416c" fill-rule="evenodd" d="M77 56h1v1h-1z"/><path fill="#eaecee" fill-rule="evenodd" d="M78 56h1v1h-1z"/><path fill="#ccd2da" fill-rule="evenodd" d="M84 56h1v1h-1z"/><path fill="#5d6671" fill-rule="evenodd" d="M88 56h1v1h-1z"/><path fill="#757779" fill-rule="evenodd" d="M94 56h1v1h-1z"/><path fill="#72777e" fill-rule="evenodd" d="M11 57h1v1h-1z"/><path fill="#203f69" fill-rule="evenodd" d="M12 57h5v1h-5zm16 0h1v1h-1zm18 0h4v1h-4zm21 0h1v1h-1zm18 0h3v1h-3z"/><path fill="#798ba3" fill-rule="evenodd" d="M17 57h1v1h-1z"/><path fill="#dbdfe4" fill-rule="evenodd" d="M25 57h1v1h-1z"/><path fill="#cad0d9" fill-rule="evenodd" d="M26 57h1v1h-1z"/><path fill="#29476f" fill-rule="evenodd" d="M27 57h1v1h-1z"/><path fill="#24436c" fill-rule="evenodd" d="M29 57h1v1h-1z"/><path fill="#e6e9ec" fill-rule="evenodd" d="M30 57h1v1h-1z"/><path fill="#d3d8df" fill-rule="evenodd" d="M37 57h1v1h-1z"/><path fill="#9ca9ba" fill-rule="evenodd" d="M38 57h1v1h-1z"/><path fill="#8091a8" fill-rule="evenodd" d="M39 57h1v1h-1z"/><path fill="#aab5c4" fill-rule="evenodd" d="M41 57h1v1h-1z"/><path fill="#dde0e5" fill-rule="evenodd" d="M42 57h1v1h-1z"/><path fill="#bcc4cf" fill-rule="evenodd" d="M45 57h1v1h-1z"/><path fill="#a6b1c1" fill-rule="evenodd" d="M50 57h1v1h-1z"/><path fill="#dfe2e7" fill-rule="evenodd" d="M53 57h1v1h-1z"/><path fill="#97a5b8" fill-rule="evenodd" d="M54 57h1v1h-1z"/><path fill="#637895" fill-rule="evenodd" d="M55 57h1v1h-1z"/><path fill="#455f81" fill-rule="evenodd" d="M56 57h1v1h-1z"/><path fill="#445e81" fill-rule="evenodd" d="M57 57h1v1h-1z"/><path fill="#6e829d" fill-rule="evenodd" d="M58 57h1v1h-1z"/><path fill="#e6e8eb" fill-rule="evenodd" d="M59 57h1v1h-1z"/><path fill="#304c73" fill-rule="evenodd" d="M66 57h1v1h-1z"/><path fill="#334f76" fill-rule="evenodd" d="M68 57h1v1h-1z"/><path fill="#edeef0" fill-rule="evenodd" d="M69 57h1v1h-1zm2 4h1v1h-1z"/><path fill="#f4f4f5" fill-rule="evenodd" d="M71 57h1v1h-1z"/><path fill="#bfc7d2" fill-rule="evenodd" d="M72 57h1v1h-1z"/><path fill="#7f90a7" fill-rule="evenodd" d="M73 57h1v1h-1z"/><path fill="#536b8b" fill-rule="evenodd" d="M74 57h1v1h-1z"/><path fill="#405b7e" fill-rule="evenodd" d="M75 57h1v1h-1z"/><path fill="#4e6687" fill-rule="evenodd" d="M76 57h1v1h-1z"/><path fill="#a2aebf" fill-rule="evenodd" d="M77 57h1v1h-1z"/><path fill="#a9b4c3" fill-rule="evenodd" d="M84 57h1v1h-1z"/><path fill="#636b75" fill-rule="evenodd" d="M88 57h1v1h-1z"/><path fill="#737476" fill-rule="evenodd" d="M94 57h1v6h-1z"/><path fill="#73787f" fill-rule="evenodd" d="M11 58h1v2h-1z"/><path fill="#203e67" fill-rule="evenodd" d="M12 58h5v1h-5zm16 0h2v1h-2zm19 0h2v1h-2zm19 0h2v1h-2zm19 0h3v1h-3z"/><path fill="#576d8c" fill-rule="evenodd" d="M17 58h1v1h-1z"/><path fill="#596f8d" fill-rule="evenodd" d="M27 58h1v1h-1z"/><path fill="#7e8fa6" fill-rule="evenodd" d="M30 58h1v1h-1z"/><path fill="#4a6283" fill-rule="evenodd" d="M46 58h1v1h-1z"/><path fill="#304c72" fill-rule="evenodd" d="M49 58h1v1h-1z"/><path fill="#f2f2f3" fill-rule="evenodd" d="M50 58h1v1h-1z"/><path fill="#b9c2cd" fill-rule="evenodd" d="M65 58h1v1h-1z"/><path fill="#8898ad" fill-rule="evenodd" d="M68 58h1v1h-1z"/><path fill="#5f7491" fill-rule="evenodd" d="M84 58h1v1h-1z"/><path fill="#636a74" fill-rule="evenodd" d="M88 58h1v2h-1z"/><path fill="#1f3c66" fill-rule="evenodd" d="M12 59h5v1h-5zm16 0h2v1h-2zm19 0h2v1h-2zm19 0h2v1h-2zm18 0h4v1h-4z"/><path fill="#25416a" fill-rule="evenodd" d="M17 59h1v1h-1z"/><path fill="#e5e8eb" fill-rule="evenodd" d="M18 59h1v1h-1z"/><path fill="#71839d" fill-rule="evenodd" d="M27 59h1v2h-1z"/><path fill="#234069" fill-rule="evenodd" d="M30 59h1v1h-1z"/><path fill="#c5ccd5" fill-rule="evenodd" d="M31 59h1v1h-1z"/><path fill="#8796ac" fill-rule="evenodd" d="M46 59h1v1h-1z"/><path fill="#6d7f9a" fill-rule="evenodd" d="M49 59h1v1h-1z"/><path fill="#435b7e" fill-rule="evenodd" d="M65 59h1v1h-1z"/><path fill="#c8ced7" fill-rule="evenodd" d="M68 59h1v1h-1z"/><path fill="#b7c0cc" fill-rule="evenodd" d="M83 59h1v1h-1z"/><path fill="#73787e" fill-rule="evenodd" d="M11 60h1v2h-1z"/><path fill="#1e3b64" fill-rule="evenodd" d="M12 60h6v1h-6zm16 0h3v1h-3zm19 0h2v1h-2zm18 0h3v1h-3zm19 0h4v1h-4z"/><path fill="#73859d" fill-rule="evenodd" d="M18 60h1v1h-1z"/><path fill="#2b466d" fill-rule="evenodd" d="M31 60h1v1h-1z"/><path fill="#c6ccd5" fill-rule="evenodd" d="M32 60h1v1h-1z"/><path fill="#d5d9df" fill-rule="evenodd" d="M45 60h1v1h-1z"/><path fill="#526887" fill-rule="evenodd" d="M46 60h1v1h-1z"/><path fill="#647893" fill-rule="evenodd" d="M49 60h1v1h-1z"/><path fill="#eaebed" fill-rule="evenodd" d="M63 60h1v1h-1z"/><path fill="#586d8b" fill-rule="evenodd" d="M64 60h1v1h-1z"/><path fill="#b7bfcb" fill-rule="evenodd" d="M68 60h1v1h-1z"/><path fill="#bdc4cf" fill-rule="evenodd" d="M82 60h1v1h-1z"/><path fill="#29446b" fill-rule="evenodd" d="M83 60h1v1h-1z"/><path fill="#636a73" fill-rule="evenodd" d="M88 60h1v2h-1z"/><path fill="#1e3a62" fill-rule="evenodd" d="M12 61h7v1h-7zm16 0h4v1h-4zm18 0h4v1h-4zm18 0h5v1h-5zm19 0h5v1h-5z"/><path fill="#687a95" fill-rule="evenodd" d="M19 61h1v1h-1z"/><path fill="#cfd4db" fill-rule="evenodd" d="M20 61h1v1h-1z"/><path fill="#eff0f1" fill-rule="evenodd" d="M25 61h1v1h-1z"/><path fill="#d3d7de" fill-rule="evenodd" d="M26 61h1v1h-1z"/><path fill="#526786" fill-rule="evenodd" d="M27 61h1v1h-1z"/><path fill="#213c64" fill-rule="evenodd" d="M32 61h1v1h-1z"/><path fill="#7d8da3" fill-rule="evenodd" d="M33 61h1v1h-1z"/><path fill="#e2e4e8" fill-rule="evenodd" d="M34 61h1v1h-1z"/><path fill="#cbd1d9" fill-rule="evenodd" d="M43 61h1v1h-1z"/><path fill="#72839c" fill-rule="evenodd" d="M44 61h1v1h-1z"/><path fill="#233f66" fill-rule="evenodd" d="M45 61h1v1h-1z"/><path fill="#2f486d" fill-rule="evenodd" d="M50 61h1v1h-1z"/><path fill="#8997ac" fill-rule="evenodd" d="M51 61h1v1h-1z"/><path fill="#d6dae0" fill-rule="evenodd" d="M52 61h1v1h-1z"/><path fill="#a8b2c0" fill-rule="evenodd" d="M62 61h1v1h-1zm-4 1h1v1h-1z"/><path fill="#364f72" fill-rule="evenodd" d="M63 61h1v1h-1z"/><path fill="#536886" fill-rule="evenodd" d="M69 61h1v1h-1z"/><path fill="#aab4c2" fill-rule="evenodd" d="M70 61h1v1h-1zm-14 1h1v1h-1z"/><path fill="#dadee3" fill-rule="evenodd" d="M80 61h1v1h-1z"/><path fill="#77879f" fill-rule="evenodd" d="M81 61h1v1h-1z"/><path fill="#203c63" fill-rule="evenodd" d="M82 61h1v1h-1z"/><path fill="#73777e" fill-rule="evenodd" d="M11 62h1v1h-1z"/><path fill="#1d3960" fill-rule="evenodd" d="M12 62h9v1h-9zm13 0h9v1h-9zm18 0h10v1h-10zm19 0h9v1h-9zm19 0h7v1h-7z"/><path fill="#274267" fill-rule="evenodd" d="M21 62h1v1h-1zm50 0h1v1h-1z"/><path fill="#395274" fill-rule="evenodd" d="M22 62h1v1h-1z"/><path fill="#385173" fill-rule="evenodd" d="M23 62h1v1h-1z"/><path fill="#2b456a" fill-rule="evenodd" d="M24 62h1v1h-1z"/><path fill="#203b62" fill-rule="evenodd" d="M34 62h1v1h-1z"/><path fill="#576c88" fill-rule="evenodd" d="M35 62h1v1h-1z"/><path fill="#8f9caf" fill-rule="evenodd" d="M36 62h1v1h-1z"/><path fill="#acb5c3" fill-rule="evenodd" d="M37 62h1v1h-1z"/><path fill="#b5bdc9" fill-rule="evenodd" d="M38 62h1v1h-1z"/><path fill="#a7b1bf" fill-rule="evenodd" d="M39 62h1v1h-1z"/><path fill="#96a2b4" fill-rule="evenodd" d="M40 62h1v1h-1z"/><path fill="#6d7f98" fill-rule="evenodd" d="M41 62h1v1h-1z"/><path fill="#3b5375" fill-rule="evenodd" d="M42 62h1v1h-1z"/><path fill="#425979" fill-rule="evenodd" d="M53 62h1v1h-1z"/><path fill="#72839a" fill-rule="evenodd" d="M54 62h1v1h-1z"/><path fill="#9aa6b7" fill-rule="evenodd" d="M55 62h1v1h-1z"/><path fill="#b6beca" fill-rule="evenodd" d="M57 62h1v1h-1z"/><path fill="#94a1b2" fill-rule="evenodd" d="M59 62h1v1h-1z"/><path fill="#667993" fill-rule="evenodd" d="M60 62h1v1h-1z"/><path fill="#2e486b" fill-rule="evenodd" d="M61 62h1v1h-1z"/><path fill="#586d89" fill-rule="evenodd" d="M72 62h1v1h-1z"/><path fill="#8695a9" fill-rule="evenodd" d="M73 62h1v1h-1z"/><path fill="#a1acbb" fill-rule="evenodd" d="M74 62h1v1h-1zm3 0h1v1h-1z"/><path fill="#b2bbc7" fill-rule="evenodd" d="M75 62h1v1h-1z"/><path fill="#b1bac6" fill-rule="evenodd" d="M76 62h1v1h-1z"/><path fill="#8291a6" fill-rule="evenodd" d="M78 62h1v1h-1z"/><path fill="#506683" fill-rule="evenodd" d="M79 62h1v1h-1z"/><path fill="#1f3b61" fill-rule="evenodd" d="M80 62h1v1h-1z"/><path fill="#626972" fill-rule="evenodd" d="M88 62h1v1h-1z"/><path fill="#75797e" fill-rule="evenodd" d="M11 63h1v1h-1zm77 1h1v1h-1z"/><path fill="#1c385e" fill-rule="evenodd" d="M12 63h76v1h-76z"/><path fill="#666c74" fill-rule="evenodd" d="M88 63h1v1h-1z"/><path fill="#747576" fill-rule="evenodd" d="M94 63h1v1h-1z"/><path fill="#898b8f" fill-rule="evenodd" d="M11 64h1v1h-1z"/><path fill="#1f385b" fill-rule="evenodd" d="M12 64h1v1h-1z"/><path fill="#1c375c" fill-rule="evenodd" d="M13 64h74v1h-74z"/><path fill="#1c375b" fill-rule="evenodd" d="M87 64h1v1h-1z"/><path fill="#747476" fill-rule="evenodd" d="M94 64h1v1h-1z"/><path fill="#cfd0d0" fill-rule="evenodd" d="M11 65h1v1h-1z"/><path fill="#38475b" fill-rule="evenodd" d="M12 65h1v1h-1z"/><path fill="#1b355a" fill-rule="evenodd" d="M13 65h74v1h-74z"/><path fill="#34445a" fill-rule="evenodd" d="M87 65h1v1h-1z"/><path fill="#c0c1c2" fill-rule="evenodd" d="M88 65h1v1h-1z"/><path fill="#cfcfcf" fill-rule="evenodd" d="M6 66h1v1h-1z"/><path fill="#73777c" fill-rule="evenodd" d="M12 66h1v1h-1z"/><path fill="#243957" fill-rule="evenodd" d="M13 66h1v1h-1z"/><path fill="#1a3458" fill-rule="evenodd" d="M14 66h72v1h-72z"/><path fill="#233856" fill-rule="evenodd" d="M86 66h1v1h-1z"/><path fill="#73767b" fill-rule="evenodd" d="M87 66h1v1h-1z"/><path fill="#e3e3e3" fill-rule="evenodd" d="M93 66h1v1h-1z"/><path fill="#606060" fill-rule="evenodd" d="M94 66h1v1h-1z"/><path fill="#8c8c8c" fill-rule="evenodd" d="M6 67h1v1h-1z"/><path fill="#86898d" fill-rule="evenodd" d="M13 67h1v1h-1z"/><path fill="#4c5460" fill-rule="evenodd" d="M14 67h1v1h-1z"/><path fill="#223754" fill-rule="evenodd" d="M15 67h1v1h-1z"/><path fill="#1a3356" fill-rule="evenodd" d="M16 67h68v1h-68z"/><path fill="#1e3454" fill-rule="evenodd" d="M84 67h1v1h-1z"/><path fill="#47505d" fill-rule="evenodd" d="M85 67h1v1h-1z"/><path fill="#818489" fill-rule="evenodd" d="M86 67h1v1h-1z"/><path fill="#999" fill-rule="evenodd" d="M93 67h1v1h-1z"/><path fill="#48525e" fill-rule="evenodd" d="M15 68h1v1h-1z"/><path fill="#193254" fill-rule="evenodd" d="M16 68h68v1h-68z"/><path fill="#334256" fill-rule="evenodd" d="M84 68h1v1h-1z"/><path fill="#cecece" fill-rule="evenodd" d="M85 68h1v1h-1z"/><path fill="#c4c4c4" fill-rule="evenodd" d="M8 69h1v1h-1z"/><path fill="#48515d" fill-rule="evenodd" d="M15 69h1v1h-1z"/><path fill="#183152" fill-rule="evenodd" d="M16 69h68v1h-68z"/><path fill="#334255" fill-rule="evenodd" d="M84 69h1v1h-1z"/><path fill="#c0c1c1" fill-rule="evenodd" d="M91 69h1v1h-1z"/><path fill="#797a7a" fill-rule="evenodd" d="M9 70h1v1h-1z"/><path fill="#c6c7c7" fill-rule="evenodd" d="M10 70h1v1h-1z"/><path fill="#48505c" fill-rule="evenodd" d="M15 70h1v1h-1z"/><path fill="#182f50" fill-rule="evenodd" d="M16 70h68v1h-68z"/><path fill="#334054" fill-rule="evenodd" d="M84 70h1v1h-1z"/><path fill="#c4c5c6" fill-rule="evenodd" d="M89 70h1v1h-1z"/><path fill="#767779" fill-rule="evenodd" d="M90 70h1v1h-1z"/><path fill="#646666" fill-rule="evenodd" d="M11 71h1v1h-1z"/><path fill="#6e7073" fill-rule="evenodd" d="M12 71h1v1h-1z"/><path fill="#75777a" fill-rule="evenodd" d="M13 71h1v1h-1z"/><path fill="#73757a" fill-rule="evenodd" d="M14 71h1v1h-1zm72 0h1v1h-1z"/><path fill="#424a56" fill-rule="evenodd" d="M15 71h1v1h-1z"/><path fill="#162e4e" fill-rule="evenodd" d="M16 71h68v1h-68z"/><path fill="#313e50" fill-rule="evenodd" d="M84 71h1v1h-1z"/><path fill="#6b6d71" fill-rule="evenodd" d="M85 71h1v1h-1z"/><path fill="#6c6f72" fill-rule="evenodd" d="M87 71h1v1h-1z"/><path fill="#626263" fill-rule="evenodd" d="M88 71h1v1h-1z"/></svg>