<svg xmlns="http://www.w3.org/2000/svg" viewBox="0 0 100 100" width="1em" height="1em"><path fill="#001e36" d="M14 1h1v1h-1zM17 1h66v1h-66zM85 1h1v1h-1zM11 2h78v1h-78zM10 3h80v1h-80zM8 4h84v1h-84zM7 5h86v1h-86zM6 6h88v1h-88zM5 7h90v1h-90zM3 8h93v1h-93zM3 9h94v1h-94zM3 10h95v1h-95zM2 11h96v1h-96zM1 12h97v1h-97zM1 13h98v1h-98zM1 14h98v1h-98zM1 15h98v1h-98zM1 16h98v1h-98zM1 17h98v1h-98zM1 18h98v1h-98zM0 19h100v1h-100zM0 20h100v1h-100zM0 21h100v1h-100zM0 22h100v1h-100zM0 23h100v1h-100zM0 24h100v1h-100zM0 25h100v1h-100zM0 26h25v1h-25zM35 26h65v1h-65zM0 27h25v1h-25zM35 27h65v1h-65zM0 28h25v1h-25zM35 28h65v1h-65zM0 29h25v1h-25zM35 29h65v1h-65zM0 30h25v1h-25zM35 30h65v1h-65zM0 31h25v1h-25zM35 31h65v1h-65zM0 32h25v1h-25zM35 32h65v1h-65zM0 33h25v1h-25zM35 33h65v1h-65zM0 34h25v1h-25zM35 34h65v1h-65zM0 35h25v1h-25zM35 35h41v1h-41zM79 35h21v1h-21zM0 36h25v1h-25zM35 36h23v1h-23zM68 36h5v1h-5zM80 36h20v1h-20zM0 37h25v1h-25zM35 37h23v1h-23zM68 37h3v1h-3zM80 37h20v1h-20zM0 38h25v1h-25zM35 38h23v1h-23zM68 38h2v1h-2zM80 38h20v1h-20zM0 39h25v1h-25zM35 39h23v1h-23zM68 39h1v1h-1zM80 39h20v1h-20zM0 40h25v1h-25zM35 40h23v1h-23zM80 40h20v1h-20zM0 41h25v1h-25zM35 41h23v1h-23zM80 41h20v1h-20zM0 42h25v1h-25zM35 42h23v1h-23zM80 42h20v1h-20zM0 43h25v1h-25zM35 43h24v1h-24zM80 43h20v1h-20zM0 44h25v1h-25zM35 44h24v1h-24zM80 44h20v1h-20zM0 45h25v1h-25zM35 45h24v1h-24zM79 45h21v1h-21zM0 46h25v1h-25zM35 46h24v1h-24zM73 46h27v1h-27zM0 47h25v1h-25zM35 47h24v1h-24zM70 47h30v1h-30zM0 48h25v1h-25zM35 48h24v1h-24zM69 48h31v1h-31zM0 49h25v1h-25zM35 49h24v1h-24zM69 49h31v1h-31zM0 50h25v1h-25zM35 50h24v1h-24zM69 50h31v1h-31zM0 51h25v1h-25zM35 51h24v1h-24zM69 51h31v1h-31zM0 52h25v1h-25zM35 52h24v1h-24zM69 52h31v1h-31zM0 53h25v1h-25zM35 53h24v1h-24zM69 53h31v1h-31zM0 54h25v1h-25zM35 54h24v1h-24zM69 54h31v1h-31zM0 55h25v1h-25zM35 55h24v1h-24zM69 55h31v1h-31zM0 56h25v1h-25zM35 56h24v1h-24zM69 56h31v1h-31zM0 57h25v1h-25zM35 57h24v1h-24zM69 57h31v1h-31zM0 58h25v1h-25zM35 58h24v1h-24zM69 58h31v1h-31zM0 59h25v1h-25zM35 59h24v1h-24zM69 59h31v1h-31zM0 60h25v1h-25zM35 60h24v1h-24zM69 60h31v1h-31zM0 61h25v1h-25zM55 61h4v1h-4zM69 61h31v1h-31zM0 62h25v1h-25zM55 62h4v1h-4zM69 62h31v1h-31zM0 63h25v1h-25zM55 63h4v1h-4zM69 63h31v1h-31zM0 64h25v1h-25zM55 64h4v1h-4zM69 64h31v1h-31zM0 65h25v1h-25zM54 65h5v1h-5zM69 65h31v1h-31zM0 66h25v1h-25zM54 66h5v1h-5zM69 66h31v1h-31zM0 67h25v1h-25zM54 67h5v1h-5zM69 67h31v1h-31zM0 68h25v1h-25zM54 68h5v1h-5zM69 68h31v1h-31zM0 69h25v1h-25zM54 69h5v1h-5zM69 69h31v1h-31zM0 70h100v1h-100zM0 71h100v1h-100zM0 72h100v1h-100zM0 73h100v1h-100zM0 74h100v1h-100zM0 75h100v1h-100zM0 76h100v1h-100zM0 77h100v1h-100zM0 78h100v1h-100zM0 79h100v1h-100zM0 80h100v1h-100zM1 81h98v1h-98zM1 82h98v1h-98zM1 83h98v1h-98zM1 84h98v1h-98zM1 85h98v1h-98zM2 86h96v1h-96zM2 87h97v1h-97zM2 88h96v1h-96zM3 89h94v1h-94zM3 90h94v1h-94zM4 91h92v1h-92zM5 92h90v1h-90zM6 93h88v1h-88zM7 94h85v1h-85zM8 95h84v1h-84zM10 96h79v1h-79zM13 97h74v1h-74zM18 98h64v1h-64z" /><path fill="#001e35" d="M15 1h2v1h-2zM83 1h2v1h-2zM9 3h1v1h-1zM90 3h1v1h-1zM7 4h1v1h-1zM6 5h1v1h-1zM5 6h1v1h-1zM94 6h1v1h-1zM4 7h1v1h-1zM95 7h1v1h-1zM2 10h1v1h-1zM98 12h1v1h-1zM99 15h1v1h-1zM0 16h1v1h-1zM0 18h1v1h-1zM99 18h1v1h-1zM99 81h1v1h-1zM99 84h1v1h-1zM97 89h1v1h-1zM95 92h1v1h-1zM94 93h1v1h-1zM92 94h1v1h-1z" /><path fill="#001d35" d="M92 4h1v1h-1zM96 8h1v1h-1zM0 17h1v1h-1zM0 81h1v1h-1zM0 82h1v1h-1zM0 83h1v1h-1zM1 87h1v1h-1zM2 89h1v1h-1zM89 96h1v1h-1zM12 97h1v1h-1zM87 97h1v1h-1z" /><path fill="#001d36" d="M93 5h1v1h-1zM0 15h1v1h-1zM99 16h1v1h-1zM99 17h1v1h-1zM99 82h1v1h-1zM99 83h1v1h-1zM0 84h1v1h-1zM1 86h1v1h-1zM98 86h1v1h-1zM4 92h1v1h-1zM5 93h1v1h-1z" /><path fill="#186299" d="M25 26h1v1h-1z" /><path fill="#31a8ff" d="M26 26h8v1h-8zM26 27h8v1h-8zM26 28h8v1h-8zM26 29h8v1h-8zM26 30h8v1h-8zM26 31h8v1h-8zM26 32h8v1h-8zM26 33h8v1h-8zM26 34h8v1h-8zM26 35h8v1h-8zM26 36h8v1h-8zM77 36h2v1h-2zM26 37h8v1h-8zM59 37h8v1h-8zM74 37h5v1h-5zM26 38h8v1h-8zM59 38h8v1h-8zM72 38h7v1h-7zM26 39h8v1h-8zM59 39h8v1h-8zM70 39h9v1h-9zM26 40h8v1h-8zM59 40h8v1h-8zM69 40h10v1h-10zM26 41h8v1h-8zM59 41h20v1h-20zM26 42h8v1h-8zM59 42h20v1h-20zM26 43h8v1h-8zM60 43h19v1h-19zM26 44h8v1h-8zM60 44h19v1h-19zM26 45h8v1h-8zM60 45h12v1h-12zM26 46h8v1h-8zM60 46h9v1h-9zM26 47h8v1h-8zM60 47h8v1h-8zM26 48h8v1h-8zM60 48h8v1h-8zM26 49h8v1h-8zM60 49h8v1h-8zM26 50h8v1h-8zM60 50h8v1h-8zM26 51h8v1h-8zM60 51h8v1h-8zM26 52h8v1h-8zM60 52h8v1h-8zM26 53h8v1h-8zM60 53h8v1h-8zM26 54h8v1h-8zM60 54h8v1h-8zM26 55h8v1h-8zM60 55h8v1h-8zM26 56h8v1h-8zM60 56h8v1h-8zM26 57h8v1h-8zM60 57h8v1h-8zM26 58h8v1h-8zM60 58h8v1h-8zM26 59h8v1h-8zM60 59h8v1h-8zM26 60h8v1h-8zM60 60h8v1h-8zM26 61h8v1h-8zM60 61h8v1h-8zM26 62h28v1h-28zM60 62h8v1h-8zM26 63h28v1h-28zM60 63h8v1h-8zM26 64h27v1h-27zM60 64h8v1h-8zM26 65h27v1h-27zM60 65h8v1h-8zM26 66h27v1h-27zM60 66h8v1h-8zM26 67h27v1h-27zM60 67h8v1h-8zM26 68h27v1h-27zM60 68h8v1h-8z" /><path fill="#1f74b4" d="M34 26h1v1h-1zM73 45h1v1h-1z" /><path fill="#1c6da8" d="M25 27h1v1h-1zM25 28h1v1h-1zM25 29h1v1h-1zM25 30h1v1h-1zM25 31h1v1h-1zM25 32h1v1h-1zM25 33h1v1h-1zM25 34h1v1h-1zM25 35h1v1h-1zM25 36h1v1h-1zM25 37h1v1h-1zM25 38h1v1h-1zM25 39h1v1h-1zM25 40h1v1h-1zM25 41h1v1h-1zM25 42h1v1h-1zM25 43h1v1h-1zM25 44h1v1h-1zM25 45h1v1h-1zM25 46h1v1h-1zM25 47h1v1h-1zM25 48h1v1h-1zM25 49h1v1h-1zM25 50h1v1h-1zM25 51h1v1h-1zM25 52h1v1h-1zM25 53h1v1h-1zM25 54h1v1h-1zM25 55h1v1h-1zM25 56h1v1h-1zM25 57h1v1h-1zM25 58h1v1h-1zM25 59h1v1h-1zM25 60h1v1h-1zM25 61h1v1h-1zM25 62h1v1h-1zM25 63h1v1h-1zM25 64h1v1h-1zM25 65h1v1h-1zM25 66h1v1h-1zM25 67h1v1h-1zM25 68h1v1h-1z" /><path fill="#217bbd" d="M34 27h1v1h-1zM34 28h1v1h-1zM34 29h1v1h-1zM34 30h1v1h-1zM34 31h1v1h-1zM34 32h1v1h-1zM34 33h1v1h-1zM34 34h1v1h-1zM34 35h1v1h-1zM34 36h1v1h-1zM34 37h1v1h-1zM34 38h1v1h-1zM34 39h1v1h-1zM34 40h1v1h-1zM34 41h1v1h-1zM34 42h1v1h-1zM34 43h1v1h-1zM34 44h1v1h-1zM34 45h1v1h-1zM34 46h1v1h-1zM34 47h1v1h-1zM34 48h1v1h-1zM34 49h1v1h-1zM34 50h1v1h-1zM34 51h1v1h-1zM34 52h1v1h-1zM34 53h1v1h-1zM34 54h1v1h-1zM34 55h1v1h-1zM34 56h1v1h-1zM34 57h1v1h-1zM34 58h1v1h-1zM34 59h1v1h-1zM34 60h1v1h-1z" /><path fill="#001f38" d="M76 35h1v1h-1zM58 42h1v1h-1z" /><path fill="#032743" d="M77 35h1v1h-1z" /><path fill="#032541" d="M78 35h1v1h-1zM58 40h1v1h-1z" /><path fill="#042a47" d="M58 36h1v1h-1z" /><path fill="#145586" d="M59 36h7v1h-7z" /><path fill="#12507f" d="M66 36h1v1h-1z" /><path fill="#01203a" d="M67 36h1v1h-1zM54 64h1v1h-1z" /><path fill="#073354" d="M73 36h1v1h-1zM79 44h1v1h-1z" /><path fill="#19649c" d="M74 36h1v1h-1z" /><path fill="#278ad4" d="M75 36h1v1h-1z" /><path fill="#2fa2f7" d="M76 36h1v1h-1zM59 45h1v1h-1z" /><path fill="#073051" d="M79 36h1v1h-1zM77 45h1v1h-1z" /><path fill="#0d436c" d="M58 37h1v1h-1zM75 45h1v1h-1z" /><path fill="#145687" d="M67 37h1v1h-1zM74 45h1v1h-1z" /><path fill="#052b49" d="M71 37h1v1h-1z" /><path fill="#2077b9" d="M72 37h1v1h-1z" /><path fill="#31a7fd" d="M73 37h1v1h-1zM69 46h1v1h-1z" /><path fill="#083659" d="M79 37h1v1h-1zM79 38h1v1h-1zM79 39h1v1h-1zM79 40h1v1h-1zM79 41h1v1h-1zM79 42h1v1h-1zM79 43h1v1h-1z" /><path fill="#09375b" d="M58 38h1v1h-1z" /><path fill="#2380c4" d="M67 38h1v1h-1z" /><path fill="#114f7c" d="M70 38h1v1h-1z" /><path fill="#2d9df0" d="M71 38h1v1h-1z" /><path fill="#052b4a" d="M58 39h1v1h-1z" /><path fill="#2a93e1" d="M67 39h1v1h-1z" /><path fill="#1a67a0" d="M69 39h1v1h-1z" /><path fill="#2d9cee" d="M67 40h1v1h-1z" /><path fill="#1b6ba7" d="M68 40h1v1h-1z" /><path fill="#02223c" d="M58 41h1v1h-1z" /><path fill="#30a6fd" d="M59 43h1v1h-1z" /><path fill="#30a4f9" d="M59 44h1v1h-1z" /><path fill="#2b98e7" d="M72 45h1v1h-1z" /><path fill="#083356" d="M76 45h1v1h-1z" /><path fill="#062e4e" d="M78 45h1v1h-1z" /><path fill="#2fa1f6" d="M59 46h1v1h-1zM59 47h1v1h-1zM59 48h1v1h-1zM59 49h1v1h-1zM59 50h1v1h-1zM59 51h1v1h-1zM59 52h1v1h-1zM59 53h1v1h-1zM59 54h1v1h-1zM59 55h1v1h-1zM59 56h1v1h-1zM59 57h1v1h-1zM59 58h1v1h-1zM59 59h1v1h-1zM59 60h1v1h-1zM59 61h1v1h-1zM59 62h1v1h-1zM59 63h1v1h-1zM59 64h1v1h-1zM59 65h1v1h-1zM59 66h1v1h-1zM59 67h1v1h-1zM59 68h1v1h-1z" /><path fill="#1f76b6" d="M70 46h1v1h-1z" /><path fill="#0c3f65" d="M71 46h1v1h-1z" /><path fill="#001f37" d="M72 46h1v1h-1z" /><path fill="#2c99ea" d="M68 47h1v1h-1z" /><path fill="#0a3c61" d="M69 47h1v1h-1z" /><path fill="#125282" d="M68 48h1v1h-1z" /><path fill="#125281" d="M68 49h1v1h-1zM68 50h1v1h-1zM68 51h1v1h-1zM68 52h1v1h-1zM68 53h1v1h-1zM68 54h1v1h-1zM68 55h1v1h-1zM68 56h1v1h-1zM68 57h1v1h-1zM68 58h1v1h-1zM68 59h1v1h-1zM68 60h1v1h-1zM68 61h1v1h-1zM68 62h1v1h-1zM68 63h1v1h-1zM68 64h1v1h-1zM68 65h1v1h-1zM68 66h1v1h-1zM68 67h1v1h-1zM68 68h1v1h-1z" /><path fill="#2a93e0" d="M34 61h1v1h-1z" /><path fill="#1a68a1" d="M35 61h19v1h-19z" /><path fill="#093759" d="M54 61h1v1h-1z" /><path fill="#104b78" d="M54 62h1v1h-1zM53 68h1v1h-1z" /><path fill="#083456" d="M54 63h1v1h-1z" /><path fill="#30a6fb" d="M53 64h1v1h-1z" /><path fill="#2990dc" d="M53 65h1v1h-1z" /><path fill="#2079bb" d="M53 66h1v1h-1z" /><path fill="#18639a" d="M53 67h1v1h-1z" /><path fill="#145788" d="M25 69h1v1h-1z" /><path fill="#2e9ef1" d="M26 69h1v1h-1z" /><path fill="#2e9ff2" d="M27 69h25v1h-25zM60 69h8v1h-8z" /><path fill="#2c99e9" d="M52 69h1v1h-1z" /><path fill="#052d4b" d="M53 69h1v1h-1z" /><path fill="#288ed9" d="M59 69h1v1h-1z" /><path fill="#0e4570" d="M68 69h1v1h-1z" /></svg>