<svg xmlns="http://www.w3.org/2000/svg" viewBox="0 0 100 100" width="1em" height="1em"><path fill="#f6dcd9" d="M18 0h1v1h-1zM18 1h1v1h-1zM22 1h1v1h-1zM19 2h1v1h-1zM22 2h3v1h-3zM19 3h2v1h-2zM22 3h4v1h-4zM19 4h8v1h-8zM19 5h9v1h-9zM19 6h9v1h-9zM19 7h8v1h-8zM16 8h1v1h-1zM18 8h8v1h-8zM13 9h12v1h-12zM12 10h12v1h-12zM11 11h13v1h-13zM10 12h13v1h-13zM11 13h11v1h-11zM13 14h8v1h-8zM14 15h6v1h-6zM17 16h2v1h-2z" /><path fill="#f5dbd8" d="M22 0h1v1h-1zM18 2h1v1h-1zM25 2h1v1h-1zM17 8h1v1h-1zM12 14h1v1h-1zM15 16h1v1h-1z" /><path fill="#f5dcd8" d="M19 1h1v1h-1z" /><path fill="#f6dcd8" d="M23 1h1v1h-1z" /><path fill="#f5dcd9" d="M20 2h1v1h-1zM21 3h1v1h-1zM27 4h1v1h-1zM18 6h1v1h-1zM18 7h1v1h-1zM11 10h1v1h-1zM18 17h1v1h-1z" /><path fill="#f5dbd9" d="M18 3h1v1h-1zM26 3h1v1h-1z" /><path fill="#f6dbd8" d="M18 4h1v1h-1zM18 5h1v1h-1zM28 5h1v1h-1zM16 16h1v1h-1z" /><path fill="#f6dad9" d="M28 6h1v1h-1zM23 12h1v1h-1z" /><path fill="#f6dbd9" d="M27 7h1v1h-1zM26 8h1v1h-1zM12 9h1v1h-1zM25 9h1v1h-1zM24 10h1v1h-1zM22 13h1v1h-1zM21 14h1v1h-1zM13 15h1v1h-1zM20 15h1v1h-1zM19 16h1v1h-1z" /><path fill="#f6d9da" d="M28 7h1v1h-1zM27 8h1v1h-1zM24 12h1v1h-1zM23 13h1v1h-1zM22 14h1v1h-1zM19 18h1v1h-1zM18 19h1v1h-1z" /><path fill="#f7d7d9" d="M29 7h1v1h-1z" /><path fill="#f7d8da" d="M28 8h1v1h-1zM27 9h1v1h-1zM25 12h1v1h-1zM24 13h1v1h-1zM23 14h1v1h-1zM22 15h1v1h-1zM21 16h1v1h-1zM20 18h1v1h-1zM19 19h1v1h-1zM18 20h1v1h-1z" /><path fill="#f7d7db" d="M29 8h1v1h-1zM28 9h1v1h-1zM27 10h1v1h-1zM24 14h1v1h-1zM23 15h1v1h-1zM22 16h1v1h-1zM19 20h1v1h-1zM18 21h1v1h-1zM17 22h1v1h-1z" /><path fill="#f6dada" d="M26 9h1v1h-1zM25 10h1v1h-1zM24 11h1v1h-1zM21 15h1v1h-1zM20 16h1v1h-1zM19 17h1v1h-1zM18 18h1v1h-1z" /><path fill="#f7d5db" d="M29 9h1v1h-1zM27 12h1v1h-1zM26 13h1v1h-1zM25 14h1v1h-1zM24 15h1v1h-1zM22 18h1v1h-1zM21 19h1v1h-1zM20 20h1v1h-1zM19 21h1v1h-1zM17 24h1v1h-1z" /><path fill="#f7d3da" d="M30 9h1v1h-1z" /><path fill="#f7d9da" d="M26 10h1v1h-1zM25 11h1v1h-1zM20 17h1v1h-1z" /><path fill="#f7d6db" d="M28 10h1v1h-1zM27 11h1v1h-1zM26 12h1v1h-1zM25 13h1v1h-1zM23 16h1v1h-1zM22 17h1v1h-1zM21 18h1v1h-1zM20 19h1v1h-1zM18 22h1v1h-1zM17 23h1v1h-1z" /><path fill="#f7d4db" d="M29 10h1v1h-1zM28 11h1v1h-1zM25 15h1v1h-1zM24 16h1v1h-1zM23 17h1v1h-1zM20 21h1v1h-1zM19 22h1v1h-1zM18 23h1v1h-1z" /><path fill="#f8d3dc" d="M30 10h1v1h-1zM26 15h1v1h-1zM25 16h1v1h-1zM21 21h1v1h-1zM20 22h1v1h-1z" /><path fill="#f7d7da" d="M26 11h1v1h-1zM21 17h1v1h-1z" /><path fill="#f7d3dc" d="M29 11h1v1h-1zM28 12h1v1h-1zM24 17h1v1h-1zM23 18h1v1h-1zM22 19h1v1h-1zM19 23h1v1h-1zM18 24h1v1h-1zM17 25h1v1h-1zM16 26h1v1h-1z" /><path fill="#f8d2dc" d="M30 11h1v1h-1zM29 12h1v1h-1zM28 13h1v1h-1zM27 14h1v1h-1zM25 17h1v1h-1zM24 18h1v1h-1zM23 19h1v1h-1zM22 20h1v1h-1zM20 23h1v1h-1zM19 24h1v1h-1zM18 25h1v1h-1zM17 26h1v1h-1z" /><path fill="#f7cfdd" d="M31 11h1v1h-1z" /><path fill="#f8d0dd" d="M30 12h1v1h-1zM28 15h1v1h-1zM27 16h1v1h-1zM26 17h1v1h-1zM25 18h1v1h-1zM23 21h1v1h-1zM22 22h1v1h-1zM21 23h1v1h-1zM20 24h1v1h-1zM18 27h1v1h-1zM17 28h1v1h-1z" /><path fill="#f7cfdc" d="M31 12h1v1h-1z" /><path fill="#f7d4dc" d="M27 13h1v1h-1zM26 14h1v1h-1zM21 20h1v1h-1z" /><path fill="#f8d1dd" d="M29 13h1v1h-1zM24 19h1v1h-1zM19 25h1v1h-1z" /><path fill="#f8cfdd" d="M30 13h1v1h-1zM29 14h1v1h-1zM28 16h1v1h-1zM27 17h1v1h-1zM26 18h1v1h-1zM25 19h1v1h-1zM24 20h1v1h-1zM22 23h1v1h-1zM21 24h1v1h-1zM20 25h1v1h-1zM19 26h1v1h-1zM17 29h1v1h-1z" /><path fill="#f7cedc" d="M31 13h1v1h-1z" /><path fill="#f8d1dc" d="M28 14h1v1h-1zM27 15h1v1h-1zM26 16h1v1h-1zM23 20h1v1h-1zM22 21h1v1h-1zM21 22h1v1h-1zM18 26h1v1h-1zM17 27h1v1h-1z" /><path fill="#f8cedd" d="M30 14h1v1h-1zM29 15h1v1h-1zM27 18h1v1h-1zM26 19h1v1h-1zM25 20h1v1h-1zM24 21h1v1h-1zM23 22h1v1h-1zM21 25h1v1h-1zM20 26h1v1h-1zM19 27h1v1h-1zM18 28h1v1h-1zM16 30h1v1h-1z" /><path fill="#f9cdde" d="M31 14h1v1h-1zM26 20h1v1h-1zM21 26h1v1h-1z" /><path fill="#f8cdde" d="M30 15h1v1h-1zM29 16h1v1h-1zM28 17h1v1h-1zM25 21h1v1h-1zM24 22h1v1h-1zM23 23h1v1h-1zM20 27h1v1h-1zM19 28h1v1h-1zM18 29h1v1h-1z" /><path fill="#f9cbde" d="M31 15h1v1h-1zM29 18h1v1h-1zM28 19h1v1h-1zM27 20h1v1h-1zM26 21h1v1h-1zM24 24h1v1h-1zM23 25h1v1h-1zM22 26h1v1h-1zM21 27h1v1h-1zM19 30h1v1h-1zM18 31h1v1h-1zM17 32h1v1h-1z" /><path fill="#f9ccde" d="M30 16h1v1h-1zM29 17h1v1h-1zM28 18h1v1h-1zM27 19h1v1h-1zM25 22h1v1h-1zM24 23h1v1h-1zM23 24h1v1h-1zM22 25h1v1h-1zM20 28h1v1h-1zM19 29h1v1h-1zM18 30h1v1h-1zM17 31h1v1h-1z" /><path fill="#f9cade" d="M31 16h1v1h-1zM30 17h1v1h-1zM25 23h1v1h-1zM20 29h1v1h-1z" /><path fill="#f9c8df" d="M32 16h1v1h-1zM31 18h1v1h-1zM30 19h1v1h-1zM29 20h1v1h-1zM27 23h1v1h-1zM26 24h1v1h-1zM25 25h1v1h-1zM24 26h1v1h-1zM23 27h1v1h-1zM22 29h1v1h-1zM21 30h1v1h-1zM20 31h1v1h-1zM19 32h1v1h-1zM18 33h1v1h-1z" /><path fill="#f9c9df" d="M31 17h1v1h-1zM30 18h1v1h-1zM29 19h1v1h-1zM28 21h1v1h-1zM27 22h1v1h-1zM26 23h1v1h-1zM25 24h1v1h-1zM24 25h1v1h-1zM22 28h1v1h-1zM21 29h1v1h-1zM20 30h1v1h-1zM19 31h1v1h-1z" /><path fill="#f9c7de" d="M32 17h1v1h-1z" /><path fill="#fac6e0" d="M32 18h1v1h-1zM30 21h1v1h-1zM29 22h1v1h-1zM28 23h1v1h-1zM27 24h1v1h-1zM25 27h1v1h-1zM24 28h1v1h-1zM23 29h1v1h-1zM22 30h1v1h-1zM20 33h1v1h-1zM19 34h1v1h-1zM18 35h1v1h-1z" /><path fill="#f9c7e0" d="M31 19h1v1h-1zM30 20h1v1h-1zM25 26h1v1h-1zM20 32h1v1h-1z" /><path fill="#f9c5df" d="M32 19h1v1h-1z" /><path fill="#f9cadf" d="M28 20h1v1h-1zM27 21h1v1h-1zM26 22h1v1h-1zM23 26h1v1h-1zM22 27h1v1h-1zM21 28h1v1h-1zM18 32h1v1h-1zM17 33h1v1h-1z" /><path fill="#fac5e0" d="M31 20h1v1h-1zM29 23h1v1h-1zM28 24h1v1h-1zM27 25h1v1h-1zM26 26h1v1h-1zM24 29h1v1h-1zM23 30h1v1h-1zM22 31h1v1h-1zM21 32h1v1h-1zM19 35h1v1h-1zM18 36h1v1h-1z" /><path fill="#fac4e0" d="M32 20h1v1h-1zM31 21h1v1h-1zM30 22h1v1h-1zM28 25h1v1h-1zM27 26h1v1h-1zM26 27h1v1h-1zM25 28h1v1h-1zM22 32h1v1h-1zM21 33h1v1h-1zM20 34h1v1h-1z" /><path fill="#f6d8da" d="M17 21h1v1h-1z" /><path fill="#f9c7df" d="M29 21h1v1h-1zM28 22h1v1h-1zM24 27h1v1h-1zM23 28h1v1h-1zM19 33h1v1h-1zM18 34h1v1h-1zM17 35h1v1h-1z" /><path fill="#fac3e1" d="M32 21h1v1h-1zM31 22h1v1h-1zM30 23h1v1h-1zM28 26h1v1h-1zM27 27h1v1h-1zM26 28h1v1h-1zM25 29h1v1h-1zM24 30h1v1h-1zM23 32h1v1h-1zM22 33h1v1h-1zM21 34h1v1h-1zM20 35h1v1h-1zM19 36h1v1h-1z" /><path fill="#fac2e1" d="M32 22h1v1h-1zM31 23h1v1h-1zM30 24h1v1h-1zM29 25h1v1h-1zM27 28h1v1h-1zM26 29h1v1h-1zM25 30h1v1h-1zM24 31h1v1h-1zM22 34h1v1h-1zM21 35h1v1h-1zM20 36h1v1h-1zM19 37h1v1h-1zM18 38h1v1h-1z" /><path fill="#fbc0e2" d="M32 23h1v1h-1zM30 26h1v1h-1zM29 27h1v1h-1zM28 28h1v1h-1zM27 29h1v1h-1zM25 32h1v1h-1zM24 33h1v1h-1zM23 34h1v1h-1zM22 35h1v1h-1zM20 38h1v1h-1zM19 39h1v1h-1zM18 40h1v1h-1z" /><path fill="#f6d5db" d="M16 24h1v1h-1z" /><path fill="#f8cddd" d="M22 24h1v1h-1zM17 30h1v1h-1z" /><path fill="#fac4e1" d="M29 24h1v1h-1zM23 31h1v1h-1zM18 37h1v1h-1z" /><path fill="#fac1e1" d="M31 24h1v1h-1zM30 25h1v1h-1zM29 26h1v1h-1zM28 27h1v1h-1zM26 30h1v1h-1zM25 31h1v1h-1zM24 32h1v1h-1zM23 33h1v1h-1zM21 36h1v1h-1zM20 37h1v1h-1zM19 38h1v1h-1zM18 39h1v1h-1z" /><path fill="#fbbfe2" d="M32 24h1v1h-1zM31 25h1v1h-1zM30 27h1v1h-1zM29 28h1v1h-1zM28 29h1v1h-1zM27 30h1v1h-1zM26 31h1v1h-1zM24 34h1v1h-1zM23 35h1v1h-1zM22 36h1v1h-1zM21 37h1v1h-1zM19 40h1v1h-1zM17 41h2v1h-2z" /><path fill="#fbbee1" d="M33 24h1v1h-1z" /><path fill="#f6d4da" d="M16 25h1v1h-1z" /><path fill="#fac7e0" d="M26 25h1v1h-1zM21 31h1v1h-1z" /><path fill="#fbbee2" d="M32 25h1v1h-1zM31 26h1v1h-1zM29 29h1v1h-1zM28 30h1v1h-1zM27 31h1v1h-1zM26 32h1v1h-1zM25 33h1v1h-1zM23 36h1v1h-1zM22 37h1v1h-1zM21 38h1v1h-1zM20 39h1v1h-1zM18 42h1v1h-1z" /><path fill="#fabde3" d="M33 25h1v1h-1z" /><path fill="#fbbde3" d="M32 26h1v1h-1zM31 27h1v1h-1zM28 31h1v1h-1zM27 32h1v1h-1zM26 33h1v1h-1zM23 37h1v1h-1zM22 38h1v1h-1zM21 39h1v1h-1zM20 40h1v1h-1z" /><path fill="#fbbae2" d="M33 26h1v1h-1z" /><path fill="#f7d1db" d="M16 27h1v1h-1zM16 28h1v1h-1z" /><path fill="#fbbce3" d="M32 27h1v1h-1zM31 28h1v1h-1zM30 29h1v1h-1zM29 30h1v1h-1zM27 33h1v1h-1zM26 34h1v1h-1zM25 35h1v1h-1zM24 36h1v1h-1zM22 39h1v1h-1zM21 40h1v1h-1zM20 41h1v1h-1zM19 42h1v1h-1zM18 43h1v1h-1z" /><path fill="#fbb9e2" d="M33 27h1v1h-1zM18 45h1v1h-1z" /><path fill="#fbbde2" d="M30 28h1v1h-1zM25 34h1v1h-1zM24 35h1v1h-1zM19 41h1v1h-1z" /><path fill="#fbbae3" d="M32 28h1v1h-1zM27 34h1v1h-1z" /><path fill="#fbb8e4" d="M33 28h1v1h-1z" /><path fill="#f7d0dc" d="M16 29h1v1h-1z" /><path fill="#fbbbe3" d="M31 29h1v1h-1zM30 30h1v1h-1zM29 31h1v1h-1zM28 32h1v1h-1zM26 35h1v1h-1zM25 36h1v1h-1zM24 37h1v1h-1zM23 38h1v1h-1zM21 41h1v1h-1zM20 42h1v1h-1zM19 43h1v1h-1zM18 44h1v1h-1z" /><path fill="#fcb9e4" d="M32 29h1v1h-1zM31 30h1v1h-1zM30 32h1v1h-1zM29 33h1v1h-1zM28 34h1v1h-1zM27 35h1v1h-1zM26 36h1v1h-1zM24 39h1v1h-1zM23 40h1v1h-1zM22 41h1v1h-1zM21 42h1v1h-1zM19 45h1v1h-1z" /><path fill="#fcb8e4" d="M33 29h1v1h-1zM32 30h1v1h-1zM31 31h1v1h-1zM29 34h1v1h-1zM28 35h1v1h-1zM27 36h1v1h-1zM26 37h1v1h-1zM25 38h1v1h-1zM24 40h1v1h-1zM23 41h1v1h-1zM22 42h1v1h-1zM21 43h1v1h-1zM20 44h1v1h-1z" /><path fill="#fcb7e5" d="M33 30h1v1h-1zM28 36h1v1h-1zM23 42h1v1h-1zM22 43h1v1h-1z" /><path fill="#f7cddc" d="M16 31h1v1h-1z" /><path fill="#fcbae4" d="M30 31h1v1h-1zM29 32h1v1h-1zM25 37h1v1h-1zM24 38h1v1h-1zM20 43h1v1h-1zM19 44h1v1h-1z" /><path fill="#fcb7e4" d="M32 31h1v1h-1zM31 32h1v1h-1zM30 33h1v1h-1zM27 37h1v1h-1zM26 38h1v1h-1zM25 39h1v1h-1zM21 44h1v1h-1zM20 45h1v1h-1zM19 46h1v1h-1z" /><path fill="#fcb5e5" d="M33 31h1v1h-1zM31 34h1v1h-1zM30 35h1v1h-1zM29 36h1v1h-1zM28 37h1v1h-1zM26 40h1v1h-1zM25 41h1v1h-1zM24 42h1v1h-1zM23 43h1v1h-1zM21 46h1v1h-1zM20 47h1v1h-1z" /><path fill="#fcb6e5" d="M32 32h1v1h-1zM31 33h1v1h-1zM30 34h1v1h-1zM29 35h1v1h-1zM27 38h1v1h-1zM26 39h1v1h-1zM25 40h1v1h-1zM24 41h1v1h-1zM22 44h1v1h-1zM21 45h1v1h-1zM20 46h1v1h-1z" /><path fill="#fdb4e5" d="M33 32h1v1h-1zM30 36h1v1h-1zM29 37h1v1h-1zM28 38h1v1h-1zM25 42h1v1h-1zM24 43h1v1h-1zM23 44h1v1h-1zM20 48h1v1h-1z" /><path fill="#fcbae3" d="M28 33h1v1h-1zM23 39h1v1h-1zM22 40h1v1h-1z" /><path fill="#fcb4e5" d="M32 33h1v1h-1zM27 39h1v1h-1zM22 45h1v1h-1z" /><path fill="#fdb3e6" d="M33 33h1v1h-1zM32 34h1v1h-1zM30 37h1v1h-1zM29 38h1v1h-1zM28 39h1v1h-1zM27 40h1v1h-1zM26 41h1v1h-1zM25 43h1v1h-1zM24 44h1v1h-1zM23 45h1v1h-1zM22 46h1v1h-1zM21 47h1v1h-1z" /><path fill="#f8c8de" d="M17 34h1v1h-1z" /><path fill="#fdb2e6" d="M33 34h1v1h-1zM32 35h1v1h-1zM31 36h1v1h-1zM29 39h1v1h-1zM28 40h1v1h-1zM27 41h1v1h-1zM26 42h1v1h-1zM24 45h1v1h-1zM23 46h1v1h-1zM22 47h1v1h-1zM21 48h1v1h-1zM20 49h1v1h-1z" /><path fill="#fdb4e6" d="M31 35h1v1h-1z" /><path fill="#fdb1e6" d="M33 35h1v1h-1zM32 36h1v1h-1zM31 37h1v1h-1zM30 38h1v1h-1zM28 41h1v1h-1zM27 42h1v1h-1zM26 43h1v1h-1zM25 44h1v1h-1zM23 47h1v1h-1zM22 48h1v1h-1zM21 49h1v1h-1zM20 50h1v1h-1z" /><path fill="#fdafe7" d="M34 35h1v1h-1zM33 36h1v1h-1zM32 38h1v1h-1zM31 39h1v1h-1zM30 40h1v1h-1zM29 41h1v1h-1zM28 42h1v1h-1zM26 45h1v1h-1zM25 46h1v1h-1zM24 47h1v1h-1zM23 48h1v1h-1zM21 51h1v1h-1zM20 52h1v1h-1z" /><path fill="#fac6df" d="M17 36h1v1h-1z" /><path fill="#fdade7" d="M34 36h1v1h-1z" /><path fill="#fdace8" d="M35 36h1v1h-1zM19 55h1v1h-1z" /><path fill="#fdabe8" d="M36 36h1v1h-1z" /><path fill="#feaae9" d="M37 36h1v1h-1zM32 42h1v1h-1zM27 48h1v1h-1zM22 54h1v1h-1z" /><path fill="#fea8e9" d="M38 36h1v1h-1zM34 41h1v1h-1zM33 42h1v1h-1zM28 48h1v1h-1zM27 49h1v1h-1zM23 54h1v1h-1zM22 55h1v1h-1z" /><path fill="#ffa7e9" d="M39 36h1v1h-1zM38 37h1v1h-1zM37 38h1v1h-1zM35 41h1v1h-1zM34 42h1v1h-1zM33 43h1v1h-1zM32 44h1v1h-1zM29 48h1v1h-1zM28 49h1v1h-1zM27 50h1v1h-1zM24 54h1v1h-1zM23 55h1v1h-1zM22 56h1v1h-1zM21 57h1v1h-1zM20 58h1v1h-1z" /><path fill="#ffa5ea" d="M40 36h1v1h-1zM37 40h1v1h-1zM36 41h1v1h-1zM35 42h1v1h-1zM32 46h1v1h-1zM31 47h1v1h-1zM30 48h1v1h-1zM27 52h1v1h-1zM26 53h1v1h-1zM25 54h1v1h-1zM22 58h1v1h-1z" /><path fill="#fca6ea" d="M41 36h1v1h-1zM36 42h1v1h-1zM35 43h1v1h-1zM31 48h1v1h-1zM30 49h1v1h-1zM25 55h1v1h-1z" /><path fill="#f7a8eb" d="M42 36h1v1h-1zM37 42h1v1h-1zM32 48h1v1h-1zM27 54h1v1h-1z" /><path fill="#f2a9eb" d="M43 36h1v1h-1zM38 42h1v1h-1zM33 48h1v1h-1zM28 54h1v1h-1zM27 55h1v1h-1zM23 60h1v1h-1z" /><path fill="#edabeb" d="M44 36h1v1h-1zM39 42h1v1h-1zM34 48h1v1h-1zM29 54h1v1h-1zM24 60h1v1h-1z" /><path fill="#e8acec" d="M45 36h1v1h-1zM41 41h1v1h-1zM40 42h1v1h-1zM35 48h1v1h-1zM30 54h1v1h-1zM25 60h1v1h-1z" /><path fill="#e4aeec" d="M46 36h1v1h-1z" /><path fill="#dfafec" d="M47 36h1v1h-1zM42 42h1v1h-1zM41 43h1v1h-1zM36 49h1v1h-1zM31 55h1v1h-1zM26 61h1v1h-1z" /><path fill="#dab1ed" d="M48 36h1v1h-1zM43 42h1v1h-1zM38 48h1v1h-1z" /><path fill="#d5b2ed" d="M49 36h1v1h-1zM44 42h1v1h-1zM39 48h1v1h-1zM34 54h1v1h-1zM33 55h1v1h-1zM29 60h1v1h-1zM28 61h1v1h-1z" /><path fill="#d0b4ee" d="M50 36h1v1h-1zM45 42h1v1h-1zM40 48h1v1h-1zM35 54h1v1h-1zM30 60h1v1h-1zM29 61h1v1h-1z" /><path fill="#cbb5ee" d="M51 36h1v1h-1zM46 42h1v1h-1zM41 48h1v1h-1zM36 54h1v1h-1zM31 60h1v1h-1z" /><path fill="#c7b7ee" d="M52 36h1v1h-1zM31 61h1v1h-1z" /><path fill="#c2b8ef" d="M53 36h1v1h-1zM52 37h1v1h-1zM48 42h1v1h-1zM47 43h1v1h-1zM42 49h1v1h-1zM37 55h1v1h-1zM32 61h1v1h-1z" /><path fill="#bdbaee" d="M54 36h1v1h-1z" /><path fill="#b7bbef" d="M55 36h1v1h-1zM51 41h1v1h-1zM46 47h1v1h-1zM35 60h1v1h-1zM30 66h1v1h-1z" /><path fill="#b2bcef" d="M56 36h1v1h-1z" /><path fill="#aebdef" d="M57 36h1v1h-1z" /><path fill="#f9c5e0" d="M17 37h1v1h-1z" /><path fill="#fdb0e7" d="M32 37h1v1h-1zM31 38h1v1h-1zM30 39h1v1h-1zM27 43h1v1h-1zM26 44h1v1h-1zM25 45h1v1h-1zM22 49h1v1h-1zM21 50h1v1h-1zM20 51h1v1h-1z" /><path fill="#fdaee7" d="M33 37h1v1h-1zM28 43h1v1h-1zM27 44h1v1h-1zM23 49h1v1h-1zM22 50h1v1h-1z" /><path fill="#feade8" d="M34 37h1v1h-1zM33 38h1v1h-1zM30 42h1v1h-1zM29 43h1v1h-1zM28 44h1v1h-1zM25 48h1v1h-1zM24 49h1v1h-1zM23 50h1v1h-1z" /><path fill="#feabe8" d="M35 37h1v1h-1zM33 40h1v1h-1zM32 41h1v1h-1zM31 42h1v1h-1zM30 43h1v1h-1zM28 46h1v1h-1zM27 47h1v1h-1zM26 48h1v1h-1zM25 49h1v1h-1zM23 52h1v1h-1zM22 53h1v1h-1zM21 54h1v1h-1zM20 55h1v1h-1z" /><path fill="#feaae8" d="M36 37h1v1h-1zM35 38h1v1h-1zM34 39h1v1h-1zM31 43h1v1h-1zM30 44h1v1h-1zM29 45h1v1h-1zM26 49h1v1h-1zM25 50h1v1h-1zM24 51h1v1h-1zM21 55h1v1h-1zM20 56h1v1h-1z" /><path fill="#fea9e9" d="M37 37h1v1h-1zM36 38h1v1h-1zM35 39h1v1h-1zM34 40h1v1h-1zM33 41h1v1h-1zM32 43h1v1h-1zM31 44h1v1h-1zM30 45h1v1h-1zM29 46h1v1h-1zM28 47h1v1h-1zM26 50h1v1h-1zM25 51h1v1h-1zM24 52h1v1h-1zM23 53h1v1h-1zM21 56h1v1h-1z" /><path fill="#ffa6ea" d="M39 37h1v1h-1zM38 38h1v1h-1zM37 39h1v1h-1zM36 40h1v1h-1zM34 43h1v1h-1zM33 44h1v1h-1zM32 45h1v1h-1zM31 46h1v1h-1zM29 49h1v1h-1zM28 50h1v1h-1zM27 51h1v1h-1zM26 52h1v1h-1zM24 55h1v1h-1zM23 56h1v1h-1zM22 57h1v1h-1zM21 58h1v1h-1z" /><path fill="#fda6ea" d="M40 37h1v1h-1zM39 38h1v1h-1zM34 44h1v1h-1zM29 50h1v1h-1zM24 56h1v1h-1z" /><path fill="#f8a7eb" d="M41 37h1v1h-1zM36 43h1v1h-1zM30 50h1v1h-1zM25 56h1v1h-1z" /><path fill="#f3a9eb" d="M42 37h1v1h-1zM37 43h1v1h-1zM32 49h1v1h-1zM31 50h1v1h-1zM26 56h1v1h-1z" /><path fill="#eeaaeb" d="M43 37h1v1h-1zM38 43h1v1h-1zM33 49h1v1h-1zM28 55h1v1h-1zM27 56h1v1h-1z" /><path fill="#e9acec" d="M44 37h1v1h-1zM39 43h1v1h-1zM34 49h1v1h-1zM29 55h1v1h-1zM24 61h1v1h-1z" /><path fill="#e4adec" d="M45 37h1v1h-1zM40 43h1v1h-1zM35 49h1v1h-1zM30 55h1v1h-1zM25 61h1v1h-1z" /><path fill="#e0afec" d="M46 37h1v1h-1zM45 38h1v1h-1zM40 44h1v1h-1zM35 50h1v1h-1zM30 56h1v1h-1zM25 62h1v1h-1z" /><path fill="#dbb0ed" d="M47 37h1v1h-1zM46 38h1v1h-1zM42 43h1v1h-1zM41 44h1v1h-1zM36 50h1v1h-1zM31 56h1v1h-1zM26 62h1v1h-1z" /><path fill="#d6b2ed" d="M48 37h1v1h-1zM43 43h1v1h-1zM42 44h1v1h-1zM38 49h1v1h-1zM37 50h1v1h-1zM32 56h1v1h-1zM27 62h1v1h-1z" /><path fill="#d1b3ed" d="M49 37h1v1h-1zM44 43h1v1h-1zM39 49h1v1h-1zM34 55h1v1h-1zM33 56h1v1h-1zM28 62h1v1h-1z" /><path fill="#ccb5ee" d="M50 37h1v1h-1zM45 43h1v1h-1zM40 49h1v1h-1zM35 55h1v1h-1zM30 61h1v1h-1zM29 62h1v1h-1z" /><path fill="#c7b6ee" d="M51 37h1v1h-1zM46 43h1v1h-1zM41 49h1v1h-1zM36 55h1v1h-1z" /><path fill="#beb9ef" d="M53 37h1v1h-1zM52 38h1v1h-1zM47 44h1v1h-1zM42 50h1v1h-1zM37 56h1v1h-1zM32 62h1v1h-1z" /><path fill="#b9bbef" d="M54 37h1v1h-1zM49 43h1v1h-1zM48 44h1v1h-1zM44 49h1v1h-1zM43 50h1v1h-1zM38 56h1v1h-1zM33 62h1v1h-1z" /><path fill="#b4bcf0" d="M55 37h1v1h-1zM50 43h1v1h-1zM45 49h1v1h-1zM44 50h1v1h-1zM39 56h1v1h-1zM34 62h1v1h-1z" /><path fill="#afbef0" d="M56 37h1v1h-1zM51 43h1v1h-1zM46 49h1v1h-1zM41 55h1v1h-1zM40 56h1v1h-1zM36 61h1v1h-1zM35 62h1v1h-1z" /><path fill="#aabff0" d="M57 37h1v1h-1zM52 43h1v1h-1zM31 68h1v1h-1z" /><path fill="#a5c1f1" d="M58 37h1v1h-1zM54 42h1v1h-1zM53 43h1v1h-1zM48 49h1v1h-1zM43 55h1v1h-1zM38 61h1v1h-1zM33 67h1v1h-1z" /><path fill="#a1c2f1" d="M59 37h1v1h-1zM58 38h1v1h-1zM53 44h1v1h-1zM48 50h1v1h-1zM43 56h1v1h-1zM38 62h1v1h-1zM33 68h1v1h-1zM32 69h1v1h-1z" /><path fill="#9cc4f1" d="M60 37h1v1h-1zM55 43h1v1h-1zM54 44h1v1h-1zM49 50h1v1h-1zM44 56h1v1h-1zM39 62h1v1h-1zM34 68h1v1h-1z" /><path fill="#96c5f2" d="M61 37h1v1h-1z" /><path fill="#92c7f2" d="M62 37h1v1h-1zM57 43h1v1h-1zM52 49h1v1h-1zM47 55h1v1h-1zM46 56h1v1h-1zM42 61h1v1h-1zM41 62h1v1h-1zM36 68h1v1h-1zM31 74h1v1h-1zM30 75h1v1h-1z" /><path fill="#f9c4df" d="M17 38h1v1h-1z" /><path fill="#feace8" d="M34 38h1v1h-1zM33 39h1v1h-1zM32 40h1v1h-1zM31 41h1v1h-1zM29 44h1v1h-1zM28 45h1v1h-1zM27 46h1v1h-1zM26 47h1v1h-1zM24 50h1v1h-1zM23 51h1v1h-1zM22 52h1v1h-1zM21 53h1v1h-1zM20 54h1v1h-1z" /><path fill="#f9a7ea" d="M40 38h1v1h-1zM39 39h1v1h-1zM34 45h1v1h-1zM29 51h1v1h-1zM24 57h1v1h-1z" /><path fill="#f4a9eb" d="M41 38h1v1h-1zM36 44h1v1h-1z" /><path fill="#efaaeb" d="M42 38h1v1h-1zM37 44h1v1h-1zM36 45h1v1h-1zM32 50h1v1h-1zM31 51h1v1h-1zM26 57h1v1h-1z" /><path fill="#eaacec" d="M43 38h1v1h-1zM38 44h1v1h-1zM33 50h1v1h-1zM28 56h1v1h-1z" /><path fill="#e5adec" d="M44 38h1v1h-1zM39 44h1v1h-1zM34 50h1v1h-1zM29 56h1v1h-1zM24 62h1v1h-1z" /><path fill="#d7b2ed" d="M47 38h1v1h-1zM26 63h1v1h-1z" /><path fill="#d2b3ed" d="M48 38h1v1h-1zM43 44h1v1h-1zM42 45h1v1h-1zM38 50h1v1h-1zM37 51h1v1h-1zM32 57h1v1h-1zM27 63h1v1h-1z" /><path fill="#cdb5ee" d="M49 38h1v1h-1zM44 44h1v1h-1zM39 50h1v1h-1zM34 56h1v1h-1zM28 63h1v1h-1z" /><path fill="#c8b6ee" d="M50 38h1v1h-1zM45 44h1v1h-1zM40 50h1v1h-1zM35 56h1v1h-1zM34 57h1v1h-1zM30 62h1v1h-1zM29 63h1v1h-1z" /><path fill="#c3b8ee" d="M51 38h1v1h-1zM30 63h1v1h-1z" /><path fill="#babbef" d="M53 38h1v1h-1zM37 57h1v1h-1zM32 63h1v1h-1z" /><path fill="#b5bcf0" d="M54 38h1v1h-1zM49 44h1v1h-1zM48 45h1v1h-1zM43 51h1v1h-1zM38 57h1v1h-1zM33 63h1v1h-1z" /><path fill="#b0bef0" d="M55 38h1v1h-1zM50 44h1v1h-1zM45 50h1v1h-1zM44 51h1v1h-1zM39 57h1v1h-1zM34 63h1v1h-1z" /><path fill="#abbff0" d="M56 38h1v1h-1zM51 44h1v1h-1zM46 50h1v1h-1zM41 56h1v1h-1zM40 57h1v1h-1zM36 62h1v1h-1zM35 63h1v1h-1z" /><path fill="#a6c1f1" d="M57 38h1v1h-1zM52 44h1v1h-1zM47 50h1v1h-1zM42 56h1v1h-1zM37 62h1v1h-1zM36 63h1v1h-1zM32 68h1v1h-1zM31 69h1v1h-1z" /><path fill="#9dc4f1" d="M59 38h1v1h-1zM53 45h1v1h-1zM48 51h1v1h-1zM43 57h1v1h-1zM38 63h1v1h-1zM33 69h1v1h-1z" /><path fill="#98c5f2" d="M60 38h1v1h-1zM59 39h1v1h-1zM55 44h1v1h-1zM54 45h1v1h-1zM49 51h1v1h-1zM44 57h1v1h-1zM39 63h1v1h-1zM34 69h1v1h-1z" /><path fill="#93c7f2" d="M61 38h1v1h-1zM56 44h1v1h-1zM55 45h1v1h-1zM51 50h1v1h-1zM50 51h1v1h-1zM45 57h1v1h-1zM40 63h1v1h-1zM35 69h1v1h-1z" /><path fill="#8ec8f3" d="M62 38h1v1h-1zM57 44h1v1h-1zM52 50h1v1h-1zM47 56h1v1h-1zM31 75h1v1h-1z" /><path fill="#89caf3" d="M63 38h1v1h-1zM58 44h1v1h-1zM53 50h1v1h-1zM48 56h1v1h-1zM43 62h1v1h-1zM42 63h1v1h-1zM37 69h1v1h-1zM32 75h1v1h-1z" /><path fill="#84caf2" d="M64 38h1v1h-1z" /><path fill="#7fccf4" d="M65 38h1v1h-1z" /><path fill="#f9c2e1" d="M17 39h1v1h-1z" /><path fill="#feade7" d="M32 39h1v1h-1zM27 45h1v1h-1zM26 46h1v1h-1zM22 51h1v1h-1zM21 52h1v1h-1z" /><path fill="#ffa8e9" d="M36 39h1v1h-1zM35 40h1v1h-1zM31 45h1v1h-1zM30 46h1v1h-1zM29 47h1v1h-1zM26 51h1v1h-1zM25 52h1v1h-1zM24 53h1v1h-1z" /><path fill="#fea5ea" d="M38 39h1v1h-1zM33 45h1v1h-1zM28 51h1v1h-1zM23 57h1v1h-1z" /><path fill="#f4a8eb" d="M40 39h1v1h-1zM35 45h1v1h-1zM30 51h1v1h-1zM25 57h1v1h-1z" /><path fill="#f0aaeb" d="M41 39h1v1h-1zM40 40h1v1h-1zM35 46h1v1h-1zM30 52h1v1h-1zM25 58h1v1h-1z" /><path fill="#ebabec" d="M42 39h1v1h-1zM37 45h1v1h-1z" /><path fill="#e6adec" d="M43 39h1v1h-1zM38 45h1v1h-1zM33 51h1v1h-1zM32 52h1v1h-1zM28 57h1v1h-1zM27 58h1v1h-1z" /><path fill="#e1aeec" d="M44 39h1v1h-1zM39 45h1v1h-1zM34 51h1v1h-1zM29 57h1v1h-1zM28 58h1v1h-1z" /><path fill="#dcb0ed" d="M45 39h1v1h-1zM40 45h1v1h-1zM35 51h1v1h-1zM30 57h1v1h-1zM25 63h1v1h-1z" /><path fill="#d7b1ed" d="M46 39h1v1h-1zM41 45h1v1h-1zM36 51h1v1h-1zM31 57h1v1h-1z" /><path fill="#d3b3ed" d="M47 39h1v1h-1zM46 40h1v1h-1zM41 46h1v1h-1zM36 52h1v1h-1zM31 58h1v1h-1zM26 64h1v1h-1z" /><path fill="#ceb4ee" d="M48 39h1v1h-1zM43 45h1v1h-1zM42 46h1v1h-1zM37 52h1v1h-1zM32 58h1v1h-1zM27 64h1v1h-1z" /><path fill="#c9b6ee" d="M49 39h1v1h-1zM44 45h1v1h-1zM39 51h1v1h-1zM38 52h1v1h-1zM33 58h1v1h-1zM28 64h1v1h-1z" /><path fill="#c4b7ee" d="M50 39h1v1h-1zM45 45h1v1h-1zM40 51h1v1h-1zM34 58h1v1h-1zM29 64h1v1h-1z" /><path fill="#bfb9ef" d="M51 39h1v1h-1zM46 45h1v1h-1zM41 51h1v1h-1zM36 57h1v1h-1zM31 63h1v1h-1zM30 64h1v1h-1z" /><path fill="#babaef" d="M52 39h1v1h-1zM47 45h1v1h-1zM42 51h1v1h-1z" /><path fill="#b6bcf0" d="M53 39h1v1h-1zM37 58h1v1h-1zM32 64h1v1h-1z" /><path fill="#b1bdf0" d="M54 39h1v1h-1zM53 40h1v1h-1zM49 45h1v1h-1zM48 46h1v1h-1zM43 52h1v1h-1zM38 58h1v1h-1zM33 64h1v1h-1z" /><path fill="#acbff0" d="M55 39h1v1h-1zM50 45h1v1h-1zM49 46h1v1h-1zM45 51h1v1h-1zM44 52h1v1h-1zM39 58h1v1h-1zM34 64h1v1h-1z" /><path fill="#a7c0f1" d="M56 39h1v1h-1zM51 45h1v1h-1zM45 52h1v1h-1zM40 58h1v1h-1zM35 64h1v1h-1z" /><path fill="#a2c2f1" d="M57 39h1v1h-1zM52 45h1v1h-1zM47 51h1v1h-1zM42 57h1v1h-1zM37 63h1v1h-1zM36 64h1v1h-1zM31 70h1v1h-1zM30 71h1v1h-1z" /><path fill="#9dc3f1" d="M58 39h1v1h-1zM32 70h1v1h-1z" /><path fill="#94c6f2" d="M60 39h1v1h-1zM59 40h1v1h-1zM54 46h1v1h-1zM49 52h1v1h-1zM44 58h1v1h-1zM39 64h1v1h-1zM34 70h1v1h-1z" /><path fill="#8fc8f2" d="M61 39h1v1h-1zM56 45h1v1h-1zM55 46h1v1h-1zM51 51h1v1h-1zM50 52h1v1h-1zM45 58h1v1h-1zM40 64h1v1h-1zM35 70h1v1h-1zM30 76h1v1h-1z" /><path fill="#8acaf3" d="M62 39h1v1h-1zM57 45h1v1h-1zM52 51h1v1h-1zM47 57h1v1h-1zM31 76h1v1h-1z" /><path fill="#85cbf3" d="M63 39h1v1h-1zM58 45h1v1h-1zM53 51h1v1h-1zM48 57h1v1h-1zM47 58h1v1h-1zM43 63h1v1h-1zM42 64h1v1h-1zM37 70h1v1h-1zM32 76h1v1h-1z" /><path fill="#80cdf4" d="M64 39h1v1h-1zM59 45h1v1h-1zM54 51h1v1h-1zM49 57h1v1h-1zM44 63h1v1h-1zM39 69h1v1h-1zM33 76h1v1h-1z" /><path fill="#7bcef4" d="M65 39h1v1h-1zM60 45h1v1h-1zM55 51h1v1h-1zM50 57h1v1h-1zM45 63h1v1h-1zM40 69h1v1h-1zM35 75h1v1h-1zM34 76h1v1h-1z" /><path fill="#77d0f4" d="M66 39h1v1h-1zM40 70h1v1h-1zM35 76h1v1h-1z" /><path fill="#71d1f4" d="M67 39h1v1h-1zM31 82h1v1h-1z" /><path fill="#f9c2e0" d="M17 40h1v1h-1z" /><path fill="#fdb0e6" d="M29 40h1v1h-1zM24 46h1v1h-1z" /><path fill="#feaee7" d="M31 40h1v1h-1zM30 41h1v1h-1zM29 42h1v1h-1zM25 47h1v1h-1zM24 48h1v1h-1zM20 53h1v1h-1z" /><path fill="#faa7ea" d="M38 40h1v1h-1zM33 46h1v1h-1zM28 52h1v1h-1zM23 58h1v1h-1z" /><path fill="#f5a8eb" d="M39 40h1v1h-1zM34 46h1v1h-1zM29 52h1v1h-1zM24 58h1v1h-1z" /><path fill="#ecabeb" d="M41 40h1v1h-1zM40 41h1v1h-1zM35 47h1v1h-1zM30 53h1v1h-1zM25 59h1v1h-1z" /><path fill="#e7adec" d="M42 40h1v1h-1zM37 46h1v1h-1z" /><path fill="#e2aeec" d="M43 40h1v1h-1zM38 46h1v1h-1zM33 52h1v1h-1zM32 53h1v1h-1zM27 59h1v1h-1z" /><path fill="#ddb0ed" d="M44 40h1v1h-1zM39 46h1v1h-1zM34 52h1v1h-1zM29 58h1v1h-1z" /><path fill="#d8b1ed" d="M45 40h1v1h-1zM40 46h1v1h-1zM35 52h1v1h-1zM30 58h1v1h-1z" /><path fill="#cfb4ee" d="M47 40h1v1h-1zM46 41h1v1h-1zM41 47h1v1h-1zM36 53h1v1h-1zM31 59h1v1h-1z" /><path fill="#cab6ee" d="M48 40h1v1h-1zM43 46h1v1h-1zM32 59h1v1h-1zM27 65h1v1h-1z" /><path fill="#c5b7ee" d="M49 40h1v1h-1zM44 46h1v1h-1zM43 47h1v1h-1zM39 52h1v1h-1zM38 53h1v1h-1zM33 59h1v1h-1zM28 65h1v1h-1z" /><path fill="#c0b9ef" d="M50 40h1v1h-1zM45 46h1v1h-1zM40 52h1v1h-1zM35 58h1v1h-1zM34 59h1v1h-1zM29 65h1v1h-1z" /><path fill="#bbbaef" d="M51 40h1v1h-1zM46 46h1v1h-1zM41 52h1v1h-1zM36 58h1v1h-1zM31 64h1v1h-1zM30 65h1v1h-1z" /><path fill="#b6bcef" d="M52 40h1v1h-1zM47 46h1v1h-1zM42 52h1v1h-1z" /><path fill="#adbff0" d="M54 40h1v1h-1zM43 53h1v1h-1zM38 59h1v1h-1zM33 65h1v1h-1z" /><path fill="#a8c0f1" d="M55 40h1v1h-1zM50 46h1v1h-1zM49 47h1v1h-1zM44 53h1v1h-1zM39 59h1v1h-1zM34 65h1v1h-1z" /><path fill="#a3c2f1" d="M56 40h1v1h-1zM51 46h1v1h-1zM46 52h1v1h-1zM45 53h1v1h-1zM41 58h1v1h-1zM40 59h1v1h-1zM35 65h1v1h-1z" /><path fill="#9ec3f1" d="M57 40h1v1h-1zM52 46h1v1h-1zM47 52h1v1h-1zM42 58h1v1h-1zM41 59h1v1h-1zM37 64h1v1h-1zM36 65h1v1h-1zM31 71h1v1h-1z" /><path fill="#99c5f2" d="M58 40h1v1h-1zM53 46h1v1h-1zM48 52h1v1h-1zM43 58h1v1h-1zM38 64h1v1h-1zM37 65h1v1h-1zM33 70h1v1h-1zM32 71h1v1h-1z" /><path fill="#90c8f2" d="M60 40h1v1h-1zM59 41h1v1h-1zM54 47h1v1h-1zM49 53h1v1h-1zM44 59h1v1h-1zM39 65h1v1h-1zM34 71h1v1h-1z" /><path fill="#8bc9f3" d="M61 40h1v1h-1zM56 46h1v1h-1zM55 47h1v1h-1zM50 53h1v1h-1zM45 59h1v1h-1zM40 65h1v1h-1zM35 71h1v1h-1z" /><path fill="#86cbf3" d="M62 40h1v1h-1zM57 46h1v1h-1zM52 52h1v1h-1zM51 53h1v1h-1zM46 59h1v1h-1zM41 65h1v1h-1zM36 71h1v1h-1zM31 77h1v1h-1zM30 78h1v1h-1z" /><path fill="#81ccf3" d="M63 40h1v1h-1zM58 46h1v1h-1zM47 59h1v1h-1zM42 65h1v1h-1zM37 71h1v1h-1zM32 77h1v1h-1z" /><path fill="#7ccef4" d="M64 40h1v1h-1zM59 46h1v1h-1zM54 52h1v1h-1zM49 58h1v1h-1zM44 64h1v1h-1zM43 65h1v1h-1zM39 70h1v1h-1zM38 71h1v1h-1zM33 77h1v1h-1z" /><path fill="#77cff4" d="M65 40h1v1h-1zM60 46h1v1h-1zM55 52h1v1h-1zM50 58h1v1h-1zM45 64h1v1h-1zM39 71h1v1h-1zM34 77h1v1h-1z" /><path fill="#73d1f5" d="M66 40h1v1h-1zM65 41h1v1h-1zM60 47h1v1h-1zM55 53h1v1h-1zM50 59h1v1h-1zM45 65h1v1h-1zM40 71h1v1h-1zM39 72h1v1h-1zM34 78h1v1h-1z" /><path fill="#6ed2f5" d="M67 40h1v1h-1zM66 41h1v1h-1zM62 46h1v1h-1zM61 47h1v1h-1zM56 53h1v1h-1zM51 59h1v1h-1zM46 65h1v1h-1zM41 71h1v1h-1zM36 77h1v1h-1zM35 78h1v1h-1z" /><path fill="#69d4f5" d="M68 40h1v1h-1zM63 46h1v1h-1zM62 47h1v1h-1zM58 52h1v1h-1zM57 53h1v1h-1zM52 59h1v1h-1zM47 65h1v1h-1zM42 71h1v1h-1zM37 77h1v1h-1zM32 83h1v1h-1z" /><path fill="#63d4f6" d="M69 40h1v1h-1z" /><path fill="#5fd6f6" d="M70 40h1v1h-1z" /><path fill="#fba6ea" d="M37 41h1v1h-1zM32 47h1v1h-1zM27 53h1v1h-1zM26 54h1v1h-1z" /><path fill="#f6a8eb" d="M38 41h1v1h-1zM33 47h1v1h-1zM28 53h1v1h-1zM23 59h1v1h-1zM22 60h1v1h-1z" /><path fill="#f1a9eb" d="M39 41h1v1h-1zM34 47h1v1h-1zM29 53h1v1h-1zM24 59h1v1h-1z" /><path fill="#e3aeec" d="M42 41h1v1h-1zM41 42h1v1h-1zM37 47h1v1h-1zM36 48h1v1h-1zM31 54h1v1h-1zM26 60h1v1h-1z" /><path fill="#deafec" d="M43 41h1v1h-1zM37 48h1v1h-1zM32 54h1v1h-1zM27 60h1v1h-1z" /><path fill="#d9b1ed" d="M44 41h1v1h-1zM39 47h1v1h-1zM34 53h1v1h-1zM33 54h1v1h-1zM29 59h1v1h-1zM28 60h1v1h-1z" /><path fill="#d4b2ed" d="M45 41h1v1h-1zM40 47h1v1h-1zM35 53h1v1h-1zM30 59h1v1h-1z" /><path fill="#cab5ee" d="M47 41h1v1h-1zM42 47h1v1h-1zM37 53h1v1h-1z" /><path fill="#c6b7ee" d="M48 41h1v1h-1zM47 42h1v1h-1zM42 48h1v1h-1zM37 54h1v1h-1zM32 60h1v1h-1z" /><path fill="#c1b8ef" d="M49 41h1v1h-1zM44 47h1v1h-1zM43 48h1v1h-1zM38 54h1v1h-1zM33 60h1v1h-1z" /><path fill="#bcbaef" d="M50 41h1v1h-1zM45 47h1v1h-1zM40 53h1v1h-1zM39 54h1v1h-1zM35 59h1v1h-1zM34 60h1v1h-1zM29 66h1v1h-1z" /><path fill="#b2bdf0" d="M52 41h1v1h-1zM47 47h1v1h-1zM42 53h1v1h-1zM37 59h1v1h-1zM32 65h1v1h-1zM31 66h1v1h-1z" /><path fill="#adbef0" d="M53 41h1v1h-1zM48 47h1v1h-1z" /><path fill="#a9c0f1" d="M54 41h1v1h-1z" /><path fill="#a4c1f1" d="M55 41h1v1h-1zM49 48h1v1h-1zM44 54h1v1h-1zM39 60h1v1h-1zM34 66h1v1h-1z" /><path fill="#9fc3f1" d="M56 41h1v1h-1zM51 47h1v1h-1zM46 53h1v1h-1zM45 54h1v1h-1zM40 60h1v1h-1zM35 66h1v1h-1z" /><path fill="#9ac4f2" d="M57 41h1v1h-1zM41 60h1v1h-1zM36 66h1v1h-1zM31 72h1v1h-1z" /><path fill="#95c6f2" d="M58 41h1v1h-1zM53 47h1v1h-1zM48 53h1v1h-1zM43 59h1v1h-1zM38 65h1v1h-1zM37 66h1v1h-1zM33 71h1v1h-1zM32 72h1v1h-1z" /><path fill="#8cc9f3" d="M60 41h1v1h-1zM59 42h1v1h-1zM54 48h1v1h-1zM49 54h1v1h-1zM44 60h1v1h-1zM39 66h1v1h-1zM34 72h1v1h-1zM33 73h1v1h-1z" /><path fill="#87cbf3" d="M61 41h1v1h-1zM56 47h1v1h-1z" /><path fill="#82ccf3" d="M62 41h1v1h-1zM57 47h1v1h-1zM56 48h1v1h-1zM52 53h1v1h-1zM51 54h1v1h-1zM46 60h1v1h-1zM41 66h1v1h-1zM36 72h1v1h-1zM31 78h1v1h-1z" /><path fill="#7dcef4" d="M63 41h1v1h-1zM58 47h1v1h-1zM53 53h1v1h-1zM48 59h1v1h-1zM37 72h1v1h-1zM32 78h1v1h-1z" /><path fill="#78cff4" d="M64 41h1v1h-1zM59 47h1v1h-1zM54 53h1v1h-1zM49 59h1v1h-1zM44 65h1v1h-1zM43 66h1v1h-1zM38 72h1v1h-1zM33 78h1v1h-1z" /><path fill="#6ad4f5" d="M67 41h1v1h-1zM46 66h1v1h-1zM41 72h1v1h-1zM36 78h1v1h-1z" /><path fill="#65d5f6" d="M68 41h1v1h-1zM63 47h1v1h-1zM62 48h1v1h-1zM57 54h1v1h-1zM52 60h1v1h-1zM47 66h1v1h-1zM42 72h1v1h-1zM37 78h1v1h-1zM32 84h1v1h-1zM31 85h1v1h-1z" /><path fill="#60d7f6" d="M69 41h1v1h-1zM64 47h1v1h-1zM59 53h1v1h-1zM54 59h1v1h-1zM48 66h1v1h-1zM43 72h1v1h-1zM38 78h1v1h-1zM33 84h1v1h-1z" /><path fill="#5bd8f6" d="M70 41h1v1h-1zM65 47h1v1h-1zM60 53h1v1h-1zM55 59h1v1h-1zM54 60h1v1h-1zM50 65h1v1h-1zM49 66h1v1h-1zM44 72h1v1h-1zM39 78h1v1h-1zM34 84h1v1h-1z" /><path fill="#56d9f6" d="M71 41h1v1h-1z" /><path fill="#50dbf6" d="M72 41h1v1h-1z" /><path fill="#4fd8f7" d="M80 41h1v1h-1zM79 42h1v1h-1zM78 43h1v1h-1zM77 44h1v1h-1zM73 49h1v1h-1zM72 50h1v1h-1zM71 51h1v1h-1zM68 55h1v1h-1zM67 56h1v1h-1zM66 57h1v1h-1zM63 61h1v1h-1zM62 62h1v1h-1zM61 63h1v1h-1zM58 67h1v1h-1zM57 68h1v1h-1zM56 69h1v1h-1zM41 87h1v1h-1zM40 88h1v1h-1z" /><path fill="#51d5f7" d="M81 41h1v1h-1z" /><path fill="#54d5f6" d="M82 41h1v1h-1zM78 46h1v1h-1zM77 47h1v1h-1zM73 52h1v1h-1zM72 53h1v1h-1zM71 54h1v1h-1zM68 58h1v1h-1zM67 59h1v1h-1zM66 60h1v1h-1zM62 65h1v1h-1zM61 66h1v1h-1zM57 71h1v1h-1zM56 72h1v1h-1zM41 90h1v1h-1zM40 91h1v1h-1z" /><path fill="#56d3f6" d="M83 41h1v1h-1zM80 45h1v1h-1zM79 46h1v1h-1zM78 47h1v1h-1zM75 51h1v1h-1zM74 52h1v1h-1zM73 53h1v1h-1zM69 58h1v1h-1zM68 59h1v1h-1zM64 64h1v1h-1zM63 65h1v1h-1zM59 70h1v1h-1zM58 71h1v1h-1zM38 95h1v1h-1z" /><path fill="#58d2f5" d="M84 41h1v1h-1z" /><path fill="#fabfe2" d="M17 42h1v1h-1z" /><path fill="#bdbaef" d="M49 42h1v1h-1zM44 48h1v1h-1zM38 55h1v1h-1zM33 61h1v1h-1z" /><path fill="#b8bbef" d="M50 42h1v1h-1zM45 48h1v1h-1zM40 54h1v1h-1zM39 55h1v1h-1zM34 61h1v1h-1zM29 67h1v1h-1z" /><path fill="#b3bdf0" d="M51 42h1v1h-1zM46 48h1v1h-1zM41 54h1v1h-1zM36 60h1v1h-1zM35 61h1v1h-1zM30 67h1v1h-1z" /><path fill="#aebef0" d="M52 42h1v1h-1zM47 48h1v1h-1zM42 54h1v1h-1zM37 60h1v1h-1zM32 66h1v1h-1zM31 67h1v1h-1z" /><path fill="#a9c0f0" d="M53 42h1v1h-1zM48 48h1v1h-1zM43 54h1v1h-1zM38 60h1v1h-1zM33 66h1v1h-1z" /><path fill="#a0c3f1" d="M55 42h1v1h-1zM50 48h1v1h-1zM49 49h1v1h-1zM44 55h1v1h-1zM39 61h1v1h-1zM34 67h1v1h-1z" /><path fill="#9bc4f2" d="M56 42h1v1h-1zM51 48h1v1h-1zM46 54h1v1h-1zM45 55h1v1h-1zM40 61h1v1h-1zM35 67h1v1h-1z" /><path fill="#96c6f2" d="M57 42h1v1h-1zM52 48h1v1h-1zM47 54h1v1h-1zM46 55h1v1h-1zM42 60h1v1h-1zM41 61h1v1h-1zM36 67h1v1h-1zM31 73h1v1h-1z" /><path fill="#91c7f2" d="M58 42h1v1h-1zM53 48h1v1h-1zM48 54h1v1h-1zM43 60h1v1h-1zM38 66h1v1h-1zM37 67h1v1h-1zM32 73h1v1h-1z" /><path fill="#87caf3" d="M60 42h1v1h-1zM55 48h1v1h-1zM50 54h1v1h-1zM45 60h1v1h-1zM40 66h1v1h-1zM35 72h1v1h-1z" /><path fill="#83ccf3" d="M61 42h1v1h-1zM60 43h1v1h-1zM55 49h1v1h-1zM50 55h1v1h-1zM45 61h1v1h-1zM40 67h1v1h-1zM35 73h1v1h-1zM34 74h1v1h-1z" /><path fill="#7ecdf4" d="M62 42h1v1h-1zM57 48h1v1h-1zM56 49h1v1h-1zM51 55h1v1h-1zM46 61h1v1h-1zM41 67h1v1h-1zM36 73h1v1h-1zM31 79h1v1h-1z" /><path fill="#79cff4" d="M63 42h1v1h-1zM58 48h1v1h-1zM53 54h1v1h-1zM52 55h1v1h-1zM48 60h1v1h-1zM47 61h1v1h-1zM42 67h1v1h-1zM37 73h1v1h-1zM32 79h1v1h-1z" /><path fill="#74d0f4" d="M64 42h1v1h-1zM59 48h1v1h-1zM54 54h1v1h-1zM49 60h1v1h-1zM48 61h1v1h-1zM44 66h1v1h-1zM43 67h1v1h-1zM38 73h1v1h-1zM33 79h1v1h-1z" /><path fill="#6fd2f5" d="M65 42h1v1h-1zM60 48h1v1h-1zM55 54h1v1h-1zM50 60h1v1h-1zM45 66h1v1h-1zM44 67h1v1h-1zM40 72h1v1h-1zM39 73h1v1h-1zM34 79h1v1h-1z" /><path fill="#6ad3f5" d="M66 42h1v1h-1zM61 48h1v1h-1zM56 54h1v1h-1zM51 60h1v1h-1zM35 79h1v1h-1z" /><path fill="#66d5f6" d="M67 42h1v1h-1zM61 49h1v1h-1zM56 55h1v1h-1zM51 61h1v1h-1zM46 67h1v1h-1zM41 73h1v1h-1zM36 79h1v1h-1z" /><path fill="#61d6f6" d="M68 42h1v1h-1zM63 48h1v1h-1zM62 49h1v1h-1zM57 55h1v1h-1zM52 61h1v1h-1zM47 67h1v1h-1zM42 73h1v1h-1zM37 79h1v1h-1zM36 80h1v1h-1zM32 85h1v1h-1z" /><path fill="#5cd8f6" d="M69 42h1v1h-1zM64 48h1v1h-1zM59 54h1v1h-1zM58 55h1v1h-1zM53 61h1v1h-1zM48 67h1v1h-1zM43 73h1v1h-1zM38 79h1v1h-1zM33 85h1v1h-1zM32 86h1v1h-1z" /><path fill="#57d9f7" d="M70 42h1v1h-1zM65 48h1v1h-1zM60 54h1v1h-1zM54 61h1v1h-1zM49 67h1v1h-1zM39 79h1v1h-1zM34 85h1v1h-1z" /><path fill="#52dbf7" d="M71 42h1v1h-1zM66 48h1v1h-1zM61 54h1v1h-1zM56 60h1v1h-1zM51 66h1v1h-1zM50 67h1v1h-1zM40 79h1v1h-1zM35 85h1v1h-1z" /><path fill="#4ddcf7" d="M72 42h1v1h-1zM67 48h1v1h-1zM62 54h1v1h-1zM41 79h1v1h-1zM31 91h1v1h-1z" /><path fill="#49def8" d="M73 42h1v1h-1zM72 43h1v1h-1zM67 49h1v1h-1zM62 55h1v1h-1zM57 61h1v1h-1zM52 67h1v1h-1zM41 80h1v1h-1zM31 92h1v1h-1z" /><path fill="#46dff8" d="M74 42h1v1h-1zM71 45h1v1h-1zM69 48h1v1h-1zM66 51h1v1h-1zM64 54h1v1h-1zM61 57h1v1h-1zM59 60h1v1h-1zM56 63h1v1h-1zM55 64h1v1h-1zM50 70h1v1h-1zM43 79h1v1h-1zM40 82h1v1h-1zM38 85h1v1h-1zM33 91h1v1h-1zM30 94h1v1h-1z" /><path fill="#48ddf7" d="M75 42h1v1h-1z" /><path fill="#4adbf7" d="M76 42h1v1h-1zM73 46h1v1h-1zM68 52h1v1h-1zM63 58h1v1h-1zM58 64h1v1h-1zM53 70h1v1h-1zM52 71h1v1h-1zM42 83h1v1h-1z" /><path fill="#4bdbf7" d="M77 42h1v1h-1zM76 43h1v1h-1zM75 44h1v1h-1zM74 45h1v1h-1zM71 49h1v1h-1zM70 50h1v1h-1zM69 51h1v1h-1zM66 55h1v1h-1zM65 56h1v1h-1zM64 57h1v1h-1zM61 61h1v1h-1zM60 62h1v1h-1zM59 63h1v1h-1zM56 67h1v1h-1zM55 68h1v1h-1zM54 69h1v1h-1zM40 86h1v1h-1zM39 87h1v1h-1zM38 88h1v1h-1z" /><path fill="#4dd9f7" d="M78 42h1v1h-1zM77 43h1v1h-1zM72 49h1v1h-1zM67 55h1v1h-1zM62 61h1v1h-1zM61 62h1v1h-1zM57 67h1v1h-1zM56 68h1v1h-1zM42 85h1v1h-1zM41 86h1v1h-1z" /><path fill="#51d6f7" d="M80 42h1v1h-1zM75 48h1v1h-1zM59 67h1v1h-1z" /><path fill="#53d5f6" d="M81 42h1v1h-1zM80 43h1v1h-1zM76 48h1v1h-1zM75 49h1v1h-1zM74 50h1v1h-1zM70 55h1v1h-1zM69 56h1v1h-1zM65 61h1v1h-1zM64 62h1v1h-1zM60 67h1v1h-1zM59 68h1v1h-1zM55 73h1v1h-1zM39 92h1v1h-1zM38 93h1v1h-1z" /><path fill="#55d4f6" d="M82 42h1v1h-1zM81 43h1v1h-1zM80 44h1v1h-1zM77 48h1v1h-1zM76 49h1v1h-1zM75 50h1v1h-1zM74 51h1v1h-1zM71 55h1v1h-1zM70 56h1v1h-1zM69 57h1v1h-1zM66 61h1v1h-1zM65 62h1v1h-1zM64 63h1v1h-1zM61 67h1v1h-1zM60 68h1v1h-1zM59 69h1v1h-1zM40 92h1v1h-1zM39 93h1v1h-1zM38 94h1v1h-1z" /><path fill="#57d2f6" d="M83 42h1v1h-1zM78 48h1v1h-1zM72 55h1v1h-1zM67 61h1v1h-1zM62 67h1v1h-1zM41 92h1v1h-1zM36 98h1v1h-1z" /><path fill="#59d1f6" d="M84 42h1v1h-1zM83 43h1v1h-1zM82 44h1v1h-1zM79 48h1v1h-1zM78 49h1v1h-1zM77 50h1v1h-1zM74 54h1v1h-1zM73 55h1v1h-1zM72 56h1v1h-1zM68 61h1v1h-1zM67 62h1v1h-1zM63 67h1v1h-1zM62 68h1v1h-1zM61 69h1v1h-1zM41 93h1v1h-1zM37 98h1v1h-1zM36 99h1v1h-1z" /><path fill="#5bd0f6" d="M85 42h1v1h-1zM84 43h1v1h-1zM83 44h1v1h-1zM80 48h1v1h-1zM79 49h1v1h-1zM78 50h1v1h-1zM75 54h1v1h-1zM74 55h1v1h-1zM73 56h1v1h-1zM72 57h1v1h-1zM69 61h1v1h-1zM68 62h1v1h-1zM67 63h1v1h-1zM64 67h1v1h-1zM63 68h1v1h-1zM62 69h1v1h-1zM41 94h1v1h-1zM38 98h1v1h-1zM37 99h1v1h-1z" /><path fill="#5ccdf4" d="M86 42h1v1h-1z" /><path fill="#bdb9ef" d="M48 43h1v1h-1zM43 49h1v1h-1z" /><path fill="#a0c2f1" d="M54 43h1v1h-1z" /><path fill="#97c6f2" d="M56 43h1v1h-1zM51 49h1v1h-1z" /><path fill="#8dc9f3" d="M58 43h1v1h-1zM53 49h1v1h-1zM48 55h1v1h-1zM43 61h1v1h-1zM38 67h1v1h-1z" /><path fill="#88caf3" d="M59 43h1v1h-1zM54 49h1v1h-1zM49 55h1v1h-1zM44 61h1v1h-1zM39 67h1v1h-1zM38 68h1v1h-1zM34 73h1v1h-1zM33 74h1v1h-1z" /><path fill="#7fcdf4" d="M61 43h1v1h-1zM60 44h1v1h-1zM55 50h1v1h-1zM50 56h1v1h-1zM45 62h1v1h-1zM40 68h1v1h-1zM35 74h1v1h-1zM34 75h1v1h-1z" /><path fill="#7acff4" d="M62 43h1v1h-1zM57 49h1v1h-1zM36 74h1v1h-1zM31 80h1v1h-1z" /><path fill="#75d0f4" d="M63 43h1v1h-1zM58 49h1v1h-1zM53 55h1v1h-1zM52 56h1v1h-1zM47 62h1v1h-1zM42 68h1v1h-1zM37 74h1v1h-1zM32 80h1v1h-1z" /><path fill="#70d2f5" d="M64 43h1v1h-1zM59 49h1v1h-1zM54 55h1v1h-1zM49 61h1v1h-1zM43 68h1v1h-1zM38 74h1v1h-1zM33 80h1v1h-1z" /><path fill="#6bd3f5" d="M65 43h1v1h-1zM60 49h1v1h-1zM55 55h1v1h-1zM50 61h1v1h-1zM45 67h1v1h-1zM44 68h1v1h-1zM40 73h1v1h-1zM39 74h1v1h-1zM34 80h1v1h-1z" /><path fill="#66d5f5" d="M66 43h1v1h-1zM40 74h1v1h-1zM35 80h1v1h-1z" /><path fill="#62d6f6" d="M67 43h1v1h-1zM66 44h1v1h-1zM61 50h1v1h-1zM56 56h1v1h-1zM51 62h1v1h-1zM46 68h1v1h-1zM41 74h1v1h-1zM40 75h1v1h-1zM35 81h1v1h-1z" /><path fill="#5dd8f6" d="M68 43h1v1h-1zM63 49h1v1h-1zM52 62h1v1h-1zM47 68h1v1h-1zM42 74h1v1h-1zM37 80h1v1h-1z" /><path fill="#58d9f7" d="M69 43h1v1h-1zM64 49h1v1h-1zM63 50h1v1h-1zM59 55h1v1h-1zM58 56h1v1h-1zM53 62h1v1h-1zM48 68h1v1h-1zM43 74h1v1h-1zM38 80h1v1h-1zM33 86h1v1h-1zM32 87h1v1h-1z" /><path fill="#53dbf7" d="M70 43h1v1h-1zM65 49h1v1h-1zM60 55h1v1h-1zM55 61h1v1h-1zM54 62h1v1h-1zM49 68h1v1h-1zM39 80h1v1h-1zM34 86h1v1h-1z" /><path fill="#4edcf7" d="M71 43h1v1h-1zM66 49h1v1h-1zM61 55h1v1h-1zM56 61h1v1h-1zM51 67h1v1h-1zM50 68h1v1h-1zM40 80h1v1h-1zM35 86h1v1h-1z" /><path fill="#45dff8" d="M73 43h1v1h-1zM72 44h1v1h-1zM68 49h1v1h-1zM67 50h1v1h-1zM63 55h1v1h-1zM62 56h1v1h-1zM58 61h1v1h-1zM57 62h1v1h-1zM53 67h1v1h-1zM52 68h1v1h-1zM51 69h1v1h-1zM42 80h1v1h-1zM41 81h1v1h-1zM32 92h1v1h-1zM31 93h1v1h-1zM29 95h1v1h-1z" /><path fill="#47ddf8" d="M74 43h1v1h-1zM69 49h1v1h-1zM64 55h1v1h-1zM59 61h1v1h-1zM54 67h1v1h-1zM38 86h1v1h-1zM37 87h1v1h-1zM33 92h1v1h-1z" /><path fill="#49dcf8" d="M75 43h1v1h-1zM74 44h1v1h-1zM70 49h1v1h-1zM69 50h1v1h-1zM65 55h1v1h-1zM64 56h1v1h-1zM63 57h1v1h-1zM60 61h1v1h-1zM59 62h1v1h-1zM58 63h1v1h-1zM55 67h1v1h-1zM54 68h1v1h-1zM53 69h1v1h-1zM50 73h1v1h-1zM39 86h1v1h-1zM38 87h1v1h-1zM32 94h1v1h-1z" /><path fill="#51d7f7" d="M79 43h1v1h-1zM78 44h1v1h-1zM74 49h1v1h-1zM73 50h1v1h-1zM72 51h1v1h-1zM69 55h1v1h-1zM68 56h1v1h-1zM67 57h1v1h-1zM64 61h1v1h-1zM63 62h1v1h-1zM62 63h1v1h-1zM58 68h1v1h-1zM57 69h1v1h-1zM41 88h1v1h-1zM38 92h1v1h-1z" /><path fill="#57d3f6" d="M82 43h1v1h-1zM81 44h1v1h-1zM77 49h1v1h-1zM76 50h1v1h-1zM71 56h1v1h-1zM70 57h1v1h-1zM66 62h1v1h-1zM65 63h1v1h-1zM61 68h1v1h-1zM60 69h1v1h-1zM40 93h1v1h-1zM39 94h1v1h-1zM35 99h1v1h-1z" /><path fill="#5dcef5" d="M85 43h1v1h-1zM81 48h1v1h-1zM80 49h1v1h-1zM76 54h1v1h-1zM75 55h1v1h-1zM70 61h1v1h-1zM65 67h1v1h-1zM39 98h1v1h-1z" /><path fill="#5fcdf5" d="M86 43h1v1h-1zM85 44h1v1h-1zM82 48h1v1h-1zM81 49h1v1h-1zM80 50h1v1h-1zM77 54h1v1h-1zM76 55h1v1h-1zM75 56h1v1h-1zM72 60h1v1h-1zM71 61h1v1h-1zM70 62h1v1h-1zM69 63h1v1h-1zM66 67h1v1h-1zM65 68h1v1h-1zM64 69h1v1h-1z" /><path fill="#f8a7ea" d="M35 44h1v1h-1z" /><path fill="#c3b8ef" d="M46 44h1v1h-1zM41 50h1v1h-1zM36 56h1v1h-1zM31 62h1v1h-1z" /><path fill="#84cbf3" d="M59 44h1v1h-1zM54 50h1v1h-1zM49 56h1v1h-1zM44 62h1v1h-1zM39 68h1v1h-1zM38 69h1v1h-1zM33 75h1v1h-1z" /><path fill="#7acef4" d="M61 44h1v1h-1zM56 50h1v1h-1zM51 56h1v1h-1zM46 62h1v1h-1zM41 68h1v1h-1z" /><path fill="#76d0f4" d="M62 44h1v1h-1zM61 45h1v1h-1zM57 50h1v1h-1zM56 51h1v1h-1zM51 57h1v1h-1zM46 63h1v1h-1zM41 69h1v1h-1zM36 75h1v1h-1zM31 81h1v1h-1z" /><path fill="#71d1f5" d="M63 44h1v1h-1zM58 50h1v1h-1zM57 51h1v1h-1zM53 56h1v1h-1zM52 57h1v1h-1zM47 63h1v1h-1zM42 69h1v1h-1zM37 75h1v1h-1zM32 81h1v1h-1z" /><path fill="#6cd3f5" d="M64 44h1v1h-1zM59 50h1v1h-1zM54 56h1v1h-1zM53 57h1v1h-1zM49 62h1v1h-1zM48 63h1v1h-1zM43 69h1v1h-1zM38 75h1v1h-1zM33 81h1v1h-1z" /><path fill="#67d4f5" d="M65 44h1v1h-1zM60 50h1v1h-1zM55 56h1v1h-1zM50 62h1v1h-1zM49 63h1v1h-1zM44 69h1v1h-1zM39 75h1v1h-1zM34 81h1v1h-1z" /><path fill="#5dd7f6" d="M67 44h1v1h-1zM62 50h1v1h-1zM57 56h1v1h-1zM36 81h1v1h-1z" /><path fill="#59d9f7" d="M68 44h1v1h-1zM47 69h1v1h-1zM42 75h1v1h-1zM37 81h1v1h-1z" /><path fill="#54daf7" d="M69 44h1v1h-1zM64 50h1v1h-1zM63 51h1v1h-1zM58 57h1v1h-1zM53 63h1v1h-1zM48 69h1v1h-1zM43 75h1v1h-1zM38 81h1v1h-1zM33 87h1v1h-1zM32 88h1v1h-1z" /><path fill="#4fdcf7" d="M70 44h1v1h-1zM65 50h1v1h-1zM60 56h1v1h-1zM59 57h1v1h-1zM55 62h1v1h-1zM54 63h1v1h-1zM49 69h1v1h-1zM39 81h1v1h-1zM34 87h1v1h-1z" /><path fill="#4addf8" d="M71 44h1v1h-1zM66 50h1v1h-1zM55 63h1v1h-1zM50 69h1v1h-1zM40 81h1v1h-1zM35 87h1v1h-1z" /><path fill="#47def8" d="M73 44h1v1h-1zM72 45h1v1h-1zM70 46h1v1h-1zM68 50h1v1h-1zM67 51h1v1h-1zM65 52h1v1h-1zM64 53h1v1h-1zM63 56h1v1h-1zM62 57h1v1h-1zM59 59h1v1h-1zM58 62h1v1h-1zM57 63h1v1h-1zM54 65h1v1h-1zM53 68h1v1h-1zM52 69h1v1h-1zM49 71h1v1h-1zM42 81h1v1h-1zM41 82h1v1h-1zM39 83h1v1h-1zM34 89h1v1h-1zM33 90h1v1h-1zM32 93h1v1h-1zM31 94h1v1h-1zM28 96h1v1h-1z" /><path fill="#4ddaf7" d="M76 44h1v1h-1zM75 45h1v1h-1zM71 50h1v1h-1zM70 51h1v1h-1zM66 56h1v1h-1zM65 57h1v1h-1zM60 63h1v1h-1zM55 69h1v1h-1zM40 87h1v1h-1zM39 88h1v1h-1z" /><path fill="#53d6f6" d="M79 44h1v1h-1z" /><path fill="#5dcff5" d="M84 44h1v1h-1zM79 50h1v1h-1zM74 56h1v1h-1zM69 62h1v1h-1zM68 63h1v1h-1zM64 68h1v1h-1zM63 69h1v1h-1zM38 99h1v1h-1z" /><path fill="#61ccf5" d="M86 44h1v1h-1zM82 49h1v1h-1zM81 50h1v1h-1zM77 55h1v1h-1zM76 56h1v1h-1zM72 61h1v1h-1zM71 62h1v1h-1zM70 63h1v1h-1zM67 67h1v1h-1zM66 68h1v1h-1zM65 69h1v1h-1z" /><path fill="#63cbf5" d="M87 44h1v1h-1zM82 50h1v1h-1zM66 69h1v1h-1z" /><path fill="#72d1f5" d="M62 45h1v1h-1zM61 46h1v1h-1zM56 52h1v1h-1zM51 58h1v1h-1zM46 64h1v1h-1zM41 70h1v1h-1zM36 76h1v1h-1zM35 77h1v1h-1z" /><path fill="#6dd3f5" d="M63 45h1v1h-1zM58 51h1v1h-1zM42 70h1v1h-1zM37 76h1v1h-1zM32 82h1v1h-1z" /><path fill="#68d4f5" d="M64 45h1v1h-1zM59 51h1v1h-1zM54 57h1v1h-1zM53 58h1v1h-1zM48 64h1v1h-1zM43 70h1v1h-1zM38 76h1v1h-1zM33 82h1v1h-1z" /><path fill="#63d6f6" d="M65 45h1v1h-1zM60 51h1v1h-1zM55 57h1v1h-1zM50 63h1v1h-1zM49 64h1v1h-1zM45 69h1v1h-1zM44 70h1v1h-1zM39 76h1v1h-1zM34 82h1v1h-1z" /><path fill="#5ed7f6" d="M66 45h1v1h-1zM61 51h1v1h-1zM56 57h1v1h-1zM51 63h1v1h-1zM46 69h1v1h-1zM45 70h1v1h-1zM41 75h1v1h-1zM40 76h1v1h-1zM35 82h1v1h-1z" /><path fill="#59d9f6" d="M67 45h1v1h-1zM62 51h1v1h-1zM57 57h1v1h-1zM52 63h1v1h-1zM41 76h1v1h-1zM36 82h1v1h-1z" /><path fill="#55daf7" d="M68 45h1v1h-1zM67 46h1v1h-1zM62 52h1v1h-1zM57 58h1v1h-1zM52 64h1v1h-1zM47 70h1v1h-1zM42 76h1v1h-1zM41 77h1v1h-1zM37 82h1v1h-1zM36 83h1v1h-1zM31 89h1v1h-1z" /><path fill="#50dcf7" d="M69 45h1v1h-1zM64 51h1v1h-1zM58 58h1v1h-1zM53 64h1v1h-1zM48 70h1v1h-1zM43 76h1v1h-1zM38 82h1v1h-1zM33 88h1v1h-1z" /><path fill="#4bddf8" d="M70 45h1v1h-1zM65 51h1v1h-1zM64 52h1v1h-1zM60 57h1v1h-1zM59 58h1v1h-1zM54 64h1v1h-1zM49 70h1v1h-1zM39 82h1v1h-1zM34 88h1v1h-1zM33 89h1v1h-1z" /><path fill="#49ddf8" d="M73 45h1v1h-1zM68 51h1v1h-1zM42 82h1v1h-1z" /><path fill="#4ed8f7" d="M76 45h1v1h-1z" /><path fill="#50d7f7" d="M77 45h1v1h-1zM76 46h1v1h-1zM71 52h1v1h-1zM70 53h1v1h-1zM66 58h1v1h-1zM65 59h1v1h-1zM61 64h1v1h-1zM60 65h1v1h-1zM56 70h1v1h-1zM55 71h1v1h-1zM40 89h1v1h-1zM39 90h1v1h-1z" /><path fill="#52d6f7" d="M78 45h1v1h-1zM77 46h1v1h-1zM76 47h1v1h-1zM72 52h1v1h-1zM71 53h1v1h-1zM70 54h1v1h-1zM67 58h1v1h-1zM66 59h1v1h-1zM65 60h1v1h-1zM62 64h1v1h-1zM61 65h1v1h-1zM60 66h1v1h-1zM57 70h1v1h-1zM56 71h1v1h-1zM55 72h1v1h-1zM41 89h1v1h-1zM40 90h1v1h-1zM39 91h1v1h-1z" /><path fill="#54d4f6" d="M79 45h1v1h-1zM63 64h1v1h-1zM58 70h1v1h-1z" /><path fill="#58d2f6" d="M81 45h1v1h-1zM80 46h1v1h-1zM79 47h1v1h-1zM76 51h1v1h-1zM75 52h1v1h-1zM74 53h1v1h-1zM73 54h1v1h-1zM70 58h1v1h-1zM69 59h1v1h-1zM68 60h1v1h-1zM65 64h1v1h-1zM64 65h1v1h-1zM63 66h1v1h-1zM60 70h1v1h-1zM59 71h1v1h-1zM58 72h1v1h-1zM39 95h1v1h-1zM38 96h1v1h-1zM37 97h1v1h-1z" /><path fill="#5ad0f6" d="M82 45h1v1h-1zM81 46h1v1h-1zM77 51h1v1h-1zM76 52h1v1h-1zM71 58h1v1h-1zM66 64h1v1h-1zM61 70h1v1h-1zM40 95h1v1h-1z" /><path fill="#5ccff5" d="M83 45h1v1h-1zM82 46h1v1h-1zM78 51h1v1h-1zM77 52h1v1h-1zM73 57h1v1h-1zM72 58h1v1h-1zM67 64h1v1h-1zM66 65h1v1h-1zM62 70h1v1h-1zM61 71h1v1h-1z" /><path fill="#5ecef5" d="M84 45h1v1h-1zM83 46h1v1h-1zM82 47h1v1h-1zM78 52h1v1h-1zM77 53h1v1h-1zM73 58h1v1h-1zM72 59h1v1h-1zM71 60h1v1h-1zM68 64h1v1h-1zM67 65h1v1h-1zM66 66h1v1h-1zM63 70h1v1h-1zM62 71h1v1h-1zM40 97h1v1h-1z" /><path fill="#60ccf5" d="M85 45h1v1h-1zM84 46h1v1h-1zM80 51h1v1h-1zM79 52h1v1h-1zM75 57h1v1h-1zM74 58h1v1h-1zM69 64h1v1h-1zM68 65h1v1h-1zM64 70h1v1h-1zM63 71h1v1h-1z" /><path fill="#62cbf5" d="M86 45h1v1h-1zM85 46h1v1h-1zM84 47h1v1h-1zM81 51h1v1h-1zM80 52h1v1h-1zM79 53h1v1h-1zM76 57h1v1h-1zM75 58h1v1h-1zM74 59h1v1h-1zM71 63h1v1h-1zM70 64h1v1h-1zM69 65h1v1h-1zM68 66h1v1h-1zM65 70h1v1h-1z" /><path fill="#64c9f5" d="M87 45h1v1h-1zM82 51h1v1h-1zM77 57h1v1h-1zM72 63h1v1h-1zM66 70h1v1h-1z" /><path fill="#66c8f3" d="M88 45h1v1h-1z" /><path fill="#ebabeb" d="M36 46h1v1h-1zM31 52h1v1h-1zM26 58h1v1h-1z" /><path fill="#64d5f6" d="M64 46h1v1h-1zM59 52h1v1h-1zM58 53h1v1h-1zM54 58h1v1h-1zM53 59h1v1h-1zM48 65h1v1h-1zM43 71h1v1h-1zM38 77h1v1h-1zM33 83h1v1h-1z" /><path fill="#5fd7f6" d="M65 46h1v1h-1zM60 52h1v1h-1zM55 58h1v1h-1zM50 64h1v1h-1zM49 65h1v1h-1zM44 71h1v1h-1zM39 77h1v1h-1zM34 83h1v1h-1z" /><path fill="#5ad8f6" d="M66 46h1v1h-1zM61 52h1v1h-1zM56 58h1v1h-1zM45 71h1v1h-1zM40 77h1v1h-1zM35 83h1v1h-1z" /><path fill="#50dbf7" d="M68 46h1v1h-1zM63 52h1v1h-1zM37 83h1v1h-1zM32 89h1v1h-1z" /><path fill="#4cddf8" d="M69 46h1v1h-1zM38 83h1v1h-1z" /><path fill="#46def8" d="M71 46h1v1h-1zM70 47h1v1h-1zM66 52h1v1h-1zM65 53h1v1h-1zM61 58h1v1h-1zM60 59h1v1h-1zM56 64h1v1h-1zM55 65h1v1h-1zM54 66h1v1h-1zM51 70h1v1h-1zM50 71h1v1h-1zM49 72h1v1h-1zM40 83h1v1h-1zM39 84h1v1h-1zM35 88h1v1h-1zM30 95h1v1h-1zM29 96h1v1h-1zM28 97h1v1h-1z" /><path fill="#48ddf8" d="M72 46h1v1h-1zM71 47h1v1h-1zM70 48h1v1h-1zM67 52h1v1h-1zM66 53h1v1h-1zM65 54h1v1h-1zM62 58h1v1h-1zM61 59h1v1h-1zM60 60h1v1h-1zM57 64h1v1h-1zM56 65h1v1h-1zM55 66h1v1h-1zM52 70h1v1h-1zM51 71h1v1h-1zM50 72h1v1h-1zM41 83h1v1h-1zM40 84h1v1h-1zM39 85h1v1h-1zM31 95h1v1h-1zM30 96h1v1h-1zM29 97h1v1h-1z" /><path fill="#4cdaf7" d="M74 46h1v1h-1zM73 47h1v1h-1zM72 48h1v1h-1zM69 52h1v1h-1zM68 53h1v1h-1zM67 54h1v1h-1zM64 58h1v1h-1zM63 59h1v1h-1zM62 60h1v1h-1zM59 64h1v1h-1zM58 65h1v1h-1zM57 66h1v1h-1zM54 70h1v1h-1zM53 71h1v1h-1zM52 72h1v1h-1zM42 84h1v1h-1zM41 85h1v1h-1zM38 89h1v1h-1z" /><path fill="#4ed9f7" d="M75 46h1v1h-1zM74 47h1v1h-1zM73 48h1v1h-1zM70 52h1v1h-1zM69 53h1v1h-1zM68 54h1v1h-1zM65 58h1v1h-1zM64 59h1v1h-1zM63 60h1v1h-1zM60 64h1v1h-1zM59 65h1v1h-1zM58 66h1v1h-1zM55 70h1v1h-1zM54 71h1v1h-1zM53 72h1v1h-1zM39 89h1v1h-1zM38 90h1v1h-1z" /><path fill="#64caf5" d="M86 46h1v1h-1zM85 47h1v1h-1zM81 52h1v1h-1zM80 53h1v1h-1zM76 58h1v1h-1zM75 59h1v1h-1zM71 64h1v1h-1zM70 65h1v1h-1zM69 66h1v1h-1z" /><path fill="#66c8f4" d="M87 46h1v1h-1zM83 51h1v1h-1zM82 52h1v1h-1zM81 53h1v1h-1zM78 57h1v1h-1zM77 58h1v1h-1zM76 59h1v1h-1zM73 63h1v1h-1zM72 64h1v1h-1zM71 65h1v1h-1zM67 70h1v1h-1z" /><path fill="#67c7f3" d="M88 46h1v1h-1z" /><path fill="#fbb5e4" d="M19 47h1v1h-1z" /><path fill="#ffa7ea" d="M30 47h1v1h-1zM25 53h1v1h-1z" /><path fill="#e7acec" d="M36 47h1v1h-1zM31 53h1v1h-1zM26 59h1v1h-1z" /><path fill="#deafed" d="M38 47h1v1h-1zM33 53h1v1h-1z" /><path fill="#a4c2f1" d="M50 47h1v1h-1z" /><path fill="#9ac5f2" d="M52 47h1v1h-1zM47 53h1v1h-1zM42 59h1v1h-1z" /><path fill="#56daf7" d="M66 47h1v1h-1zM61 53h1v1h-1zM56 59h1v1h-1zM51 65h1v1h-1zM50 66h1v1h-1zM46 71h1v1h-1zM40 78h1v1h-1zM35 84h1v1h-1z" /><path fill="#51dbf7" d="M67 47h1v1h-1zM62 53h1v1h-1zM57 59h1v1h-1zM52 65h1v1h-1zM47 71h1v1h-1zM42 77h1v1h-1zM41 78h1v1h-1zM31 90h1v1h-1zM30 91h1v1h-1z" /><path fill="#4cddf7" d="M68 47h1v1h-1zM63 53h1v1h-1zM58 59h1v1h-1zM53 65h1v1h-1zM48 71h1v1h-1zM43 77h1v1h-1zM37 84h1v1h-1zM32 90h1v1h-1z" /><path fill="#48def8" d="M69 47h1v1h-1zM68 48h1v1h-1zM63 54h1v1h-1zM58 60h1v1h-1zM53 66h1v1h-1zM48 72h1v1h-1zM43 78h1v1h-1zM42 79h1v1h-1zM38 84h1v1h-1zM32 91h1v1h-1zM27 97h1v1h-1z" /><path fill="#4adcf7" d="M72 47h1v1h-1zM67 53h1v1h-1zM66 54h1v1h-1zM62 59h1v1h-1zM61 60h1v1h-1zM57 65h1v1h-1zM56 66h1v1h-1zM51 72h1v1h-1zM41 84h1v1h-1zM40 85h1v1h-1zM31 96h1v1h-1zM30 97h1v1h-1z" /><path fill="#50d8f7" d="M75 47h1v1h-1zM74 48h1v1h-1zM69 54h1v1h-1zM64 60h1v1h-1zM59 66h1v1h-1zM54 72h1v1h-1zM38 91h1v1h-1z" /><path fill="#5ad1f6" d="M80 47h1v1h-1zM75 53h1v1h-1zM70 59h1v1h-1zM69 60h1v1h-1zM65 65h1v1h-1zM64 66h1v1h-1zM60 71h1v1h-1zM59 72h1v1h-1zM39 96h1v1h-1zM38 97h1v1h-1z" /><path fill="#5ccff6" d="M81 47h1v1h-1zM76 53h1v1h-1zM71 59h1v1h-1zM70 60h1v1h-1zM65 66h1v1h-1zM40 96h1v1h-1zM39 97h1v1h-1z" /><path fill="#60cdf5" d="M83 47h1v1h-1zM78 53h1v1h-1zM73 59h1v1h-1zM67 66h1v1h-1z" /><path fill="#66c9f4" d="M86 47h1v1h-1z" /><path fill="#68c7f4" d="M87 47h1v1h-1zM84 51h1v1h-1zM83 52h1v1h-1zM82 53h1v1h-1zM79 57h1v1h-1zM78 58h1v1h-1zM77 59h1v1h-1zM74 63h1v1h-1zM73 64h1v1h-1zM72 65h1v1h-1zM69 69h1v1h-1zM68 70h1v1h-1zM67 71h1v1h-1zM66 72h1v1h-1z" /><path fill="#6ac6f4" d="M88 47h1v1h-1zM84 52h1v1h-1zM83 53h1v1h-1zM78 59h1v1h-1zM73 65h1v1h-1zM68 71h1v1h-1zM67 72h1v1h-1z" /><path fill="#fcb5e4" d="M19 48h1v1h-1z" /><path fill="#4adcf8" d="M71 48h1v1h-1z" /><path fill="#61cbf5" d="M83 48h1v1h-1zM78 54h1v1h-1zM73 60h1v1h-1z" /><path fill="#63caf5" d="M84 48h1v1h-1zM83 49h1v1h-1zM79 54h1v1h-1zM78 55h1v1h-1zM77 56h1v1h-1zM74 60h1v1h-1zM73 61h1v1h-1zM72 62h1v1h-1zM68 67h1v1h-1zM67 68h1v1h-1z" /><path fill="#65c9f4" d="M85 48h1v1h-1zM80 54h1v1h-1zM79 55h1v1h-1zM75 60h1v1h-1zM74 61h1v1h-1zM70 66h1v1h-1zM69 67h1v1h-1z" /><path fill="#67c7f4" d="M86 48h1v1h-1zM81 54h1v1h-1zM76 60h1v1h-1zM71 66h1v1h-1zM70 67h1v1h-1z" /><path fill="#69c6f4" d="M87 48h1v1h-1zM86 49h1v1h-1zM85 50h1v1h-1zM82 54h1v1h-1zM81 55h1v1h-1zM80 56h1v1h-1zM77 60h1v1h-1zM76 61h1v1h-1zM75 62h1v1h-1zM72 66h1v1h-1zM71 67h1v1h-1zM70 68h1v1h-1zM66 73h1v1h-1z" /><path fill="#6bc5f4" d="M88 48h1v1h-1zM87 49h1v1h-1zM86 50h1v1h-1zM83 54h1v1h-1zM82 55h1v1h-1zM81 56h1v1h-1zM78 60h1v1h-1zM77 61h1v1h-1zM76 62h1v1h-1zM73 66h1v1h-1zM72 67h1v1h-1zM71 68h1v1h-1zM67 73h1v1h-1zM66 74h1v1h-1z" /><path fill="#fcb4e4" d="M19 49h1v1h-1z" /><path fill="#f7a7eb" d="M31 49h1v1h-1zM26 55h1v1h-1z" /><path fill="#dab0ed" d="M37 49h1v1h-1zM32 55h1v1h-1zM27 61h1v1h-1z" /><path fill="#aac0f0" d="M47 49h1v1h-1zM42 55h1v1h-1zM37 61h1v1h-1zM32 67h1v1h-1z" /><path fill="#9bc4f1" d="M50 49h1v1h-1z" /><path fill="#65c9f5" d="M84 49h1v1h-1zM83 50h1v1h-1zM78 56h1v1h-1zM73 62h1v1h-1zM68 68h1v1h-1zM67 69h1v1h-1z" /><path fill="#67c8f4" d="M85 49h1v1h-1zM84 50h1v1h-1zM80 55h1v1h-1zM79 56h1v1h-1zM75 61h1v1h-1zM74 62h1v1h-1zM69 68h1v1h-1zM68 69h1v1h-1z" /><path fill="#6dc3f4" d="M88 49h1v1h-1zM84 54h1v1h-1zM83 55h1v1h-1zM79 60h1v1h-1zM78 61h1v1h-1zM74 66h1v1h-1zM73 67h1v1h-1zM69 72h1v1h-1zM68 73h1v1h-1z" /><path fill="#6ec2f2" d="M89 49h1v1h-1z" /><path fill="#fcb3e6" d="M19 50h1v1h-1z" /><path fill="#97c5f2" d="M50 50h1v1h-1zM45 56h1v1h-1zM40 62h1v1h-1zM35 68h1v1h-1z" /><path fill="#6dc4f4" d="M87 50h1v1h-1zM82 56h1v1h-1zM77 62h1v1h-1zM72 68h1v1h-1zM67 74h1v1h-1z" /><path fill="#6fc2f3" d="M88 50h1v1h-1zM85 54h1v1h-1zM84 55h1v1h-1zM83 56h1v1h-1zM80 60h1v1h-1zM79 61h1v1h-1zM78 62h1v1h-1zM75 66h1v1h-1zM74 67h1v1h-1zM73 68h1v1h-1zM70 72h1v1h-1zM69 73h1v1h-1zM68 74h1v1h-1z" /><path fill="#71c1f2" d="M89 50h1v1h-1z" /><path fill="#fcb1e6" d="M19 51h1v1h-1z" /><path fill="#eaabec" d="M32 51h1v1h-1zM27 57h1v1h-1z" /><path fill="#cdb4ee" d="M38 51h1v1h-1zM33 57h1v1h-1z" /><path fill="#a7c1f1" d="M46 51h1v1h-1zM41 57h1v1h-1z" /><path fill="#53d6f7" d="M73 51h1v1h-1zM68 57h1v1h-1zM63 63h1v1h-1zM58 69h1v1h-1z" /><path fill="#5ecdf5" d="M79 51h1v1h-1zM74 57h1v1h-1z" /><path fill="#6ac5f4" d="M85 51h1v1h-1zM80 57h1v1h-1zM79 58h1v1h-1zM75 63h1v1h-1zM74 64h1v1h-1zM70 69h1v1h-1zM69 70h1v1h-1z" /><path fill="#6cc4f4" d="M86 51h1v1h-1zM85 52h1v1h-1zM84 53h1v1h-1zM81 57h1v1h-1zM80 58h1v1h-1zM79 59h1v1h-1zM76 63h1v1h-1zM75 64h1v1h-1zM74 65h1v1h-1zM71 69h1v1h-1zM70 70h1v1h-1zM69 71h1v1h-1z" /><path fill="#6ec3f3" d="M87 51h1v1h-1zM82 57h1v1h-1zM66 76h1v1h-1z" /><path fill="#70c1f3" d="M88 51h1v1h-1zM87 52h1v1h-1zM83 57h1v1h-1zM82 58h1v1h-1zM78 63h1v1h-1zM77 64h1v1h-1zM73 69h1v1h-1zM72 70h1v1h-1zM68 75h1v1h-1zM67 76h1v1h-1z" /><path fill="#71c0f3" d="M89 51h1v1h-1zM86 54h1v1h-1zM81 60h1v1h-1zM76 66h1v1h-1zM71 72h1v1h-1z" /><path fill="#fcafe7" d="M19 52h1v1h-1z" /><path fill="#8ac9f3" d="M51 52h1v1h-1zM46 58h1v1h-1zM41 64h1v1h-1zM36 70h1v1h-1zM30 77h1v1h-1z" /><path fill="#81ccf4" d="M53 52h1v1h-1zM48 58h1v1h-1z" /><path fill="#6dd2f5" d="M57 52h1v1h-1zM52 58h1v1h-1zM47 64h1v1h-1z" /><path fill="#6ec3f4" d="M86 52h1v1h-1zM85 53h1v1h-1zM81 58h1v1h-1zM80 59h1v1h-1zM76 64h1v1h-1zM75 65h1v1h-1zM71 70h1v1h-1zM70 71h1v1h-1z" /><path fill="#72c0f3" d="M88 52h1v1h-1zM87 53h1v1h-1zM84 57h1v1h-1zM83 58h1v1h-1zM82 59h1v1h-1zM79 63h1v1h-1zM78 64h1v1h-1zM77 65h1v1h-1zM74 69h1v1h-1zM73 70h1v1h-1zM72 71h1v1h-1zM69 75h1v1h-1zM68 76h1v1h-1z" /><path fill="#74bef3" d="M89 52h1v1h-1zM85 57h1v1h-1zM80 63h1v1h-1zM75 69h1v1h-1zM70 75h1v1h-1z" /><path fill="#fcaee7" d="M19 53h1v1h-1z" /><path fill="#c0b8ef" d="M39 53h1v1h-1z" /><path fill="#b7bcef" d="M41 53h1v1h-1zM36 59h1v1h-1zM31 65h1v1h-1z" /><path fill="#70c2f3" d="M86 53h1v1h-1zM81 59h1v1h-1zM76 65h1v1h-1zM71 71h1v1h-1z" /><path fill="#74bff3" d="M88 53h1v1h-1zM84 58h1v1h-1zM83 59h1v1h-1zM79 64h1v1h-1zM78 65h1v1h-1zM74 70h1v1h-1zM73 71h1v1h-1zM69 76h1v1h-1zM68 77h1v1h-1z" /><path fill="#75bef2" d="M89 53h1v1h-1z" /><path fill="#fdaee6" d="M19 54h1v1h-1z" /><path fill="#7dcdf4" d="M52 54h1v1h-1zM47 60h1v1h-1zM42 66h1v1h-1z" /><path fill="#60d6f6" d="M58 54h1v1h-1zM53 60h1v1h-1zM31 86h1v1h-1z" /><path fill="#56d4f6" d="M72 54h1v1h-1zM67 60h1v1h-1zM62 66h1v1h-1zM57 72h1v1h-1zM41 91h1v1h-1z" /><path fill="#73bff3" d="M87 54h1v1h-1zM86 55h1v1h-1zM82 60h1v1h-1zM81 61h1v1h-1zM77 66h1v1h-1zM76 67h1v1h-1zM75 68h1v1h-1zM72 72h1v1h-1zM71 73h1v1h-1zM70 74h1v1h-1z" /><path fill="#75bef3" d="M88 54h1v1h-1zM87 55h1v1h-1zM86 56h1v1h-1zM83 60h1v1h-1zM82 61h1v1h-1zM81 62h1v1h-1zM78 66h1v1h-1zM77 67h1v1h-1zM76 68h1v1h-1zM73 72h1v1h-1zM72 73h1v1h-1zM71 74h1v1h-1zM68 78h1v1h-1z" /><path fill="#77bcf2" d="M89 54h1v1h-1zM74 72h1v1h-1zM69 78h1v1h-1z" /><path fill="#b4bdf0" d="M40 55h1v1h-1z" /><path fill="#71c1f3" d="M85 55h1v1h-1zM84 56h1v1h-1zM80 61h1v1h-1zM79 62h1v1h-1zM75 67h1v1h-1zM74 68h1v1h-1zM70 73h1v1h-1zM69 74h1v1h-1z" /><path fill="#77bdf3" d="M88 55h1v1h-1zM87 56h1v1h-1zM83 61h1v1h-1zM82 62h1v1h-1zM78 67h1v1h-1zM77 68h1v1h-1zM73 73h1v1h-1zM72 74h1v1h-1z" /><path fill="#53daf7" d="M59 56h1v1h-1z" /><path fill="#4adef8" d="M61 56h1v1h-1zM56 62h1v1h-1zM51 68h1v1h-1zM30 93h1v1h-1z" /><path fill="#73c0f3" d="M85 56h1v1h-1zM80 62h1v1h-1z" /><path fill="#78bbf1" d="M88 56h1v1h-1z" /><path fill="#fda9e8" d="M20 57h1v1h-1z" /><path fill="#c4b8ee" d="M35 57h1v1h-1z" /><path fill="#8ec8f2" d="M46 57h1v1h-1zM41 63h1v1h-1zM36 69h1v1h-1z" /><path fill="#59d2f6" d="M71 57h1v1h-1zM66 63h1v1h-1zM40 94h1v1h-1z" /><path fill="#75bcf2" d="M86 57h1v1h-1z" /><path fill="#47dff8" d="M60 58h1v1h-1z" /><path fill="#75bdf3" d="M85 58h1v1h-1z" /><path fill="#ffa4e9" d="M21 59h1v1h-1z" /><path fill="#faa6ea" d="M22 59h1v1h-1z" /><path fill="#ddafed" d="M28 59h1v1h-1z" /><path fill="#76bdf3" d="M84 59h1v1h-1zM81 63h1v1h-1zM80 64h1v1h-1zM79 65h1v1h-1zM76 69h1v1h-1zM75 70h1v1h-1zM74 71h1v1h-1zM71 75h1v1h-1zM70 76h1v1h-1zM69 77h1v1h-1z" /><path fill="#fba5e9" d="M21 60h1v1h-1z" /><path fill="#57daf7" d="M55 60h1v1h-1z" /><path fill="#4dddf7" d="M57 60h1v1h-1zM52 66h1v1h-1zM47 72h1v1h-1zM42 78h1v1h-1z" /><path fill="#77bcf3" d="M84 60h1v1h-1zM79 66h1v1h-1z" /><path fill="#f2a8eb" d="M22 61h1v1h-1z" /><path fill="#edaaeb" d="M23 61h1v1h-1z" /><path fill="#79bbf2" d="M84 61h1v1h-1zM83 62h1v1h-1zM80 66h1v1h-1zM79 67h1v1h-1zM78 68h1v1h-1zM75 72h1v1h-1zM74 73h1v1h-1zM73 74h1v1h-1zM70 78h1v1h-1zM69 79h1v1h-1z" /><path fill="#e8aceb" d="M23 62h1v1h-1z" /><path fill="#8dc8f3" d="M42 62h1v1h-1zM37 68h1v1h-1zM32 74h1v1h-1z" /><path fill="#70d1f5" d="M48 62h1v1h-1z" /><path fill="#7bbaf2" d="M84 62h1v1h-1zM81 66h1v1h-1zM80 67h1v1h-1zM79 68h1v1h-1zM76 72h1v1h-1zM75 73h1v1h-1zM74 74h1v1h-1zM71 78h1v1h-1zM70 79h1v1h-1z" /><path fill="#e0adec" d="M24 63h1v1h-1z" /><path fill="#6ec2f3" d="M77 63h1v1h-1zM72 69h1v1h-1zM67 75h1v1h-1z" /><path fill="#78bcf2" d="M82 63h1v1h-1zM81 64h1v1h-1zM80 65h1v1h-1zM77 69h1v1h-1zM76 70h1v1h-1zM75 71h1v1h-1zM72 75h1v1h-1zM71 76h1v1h-1zM70 77h1v1h-1z" /><path fill="#7abaf2" d="M83 63h1v1h-1zM78 69h1v1h-1zM77 70h1v1h-1zM73 75h1v1h-1zM72 76h1v1h-1z" /><path fill="#7cb9f2" d="M84 63h1v1h-1zM83 64h1v1h-1zM82 65h1v1h-1zM79 69h1v1h-1zM78 70h1v1h-1zM77 71h1v1h-1zM74 75h1v1h-1zM73 76h1v1h-1zM72 77h1v1h-1z" /><path fill="#d7b0ec" d="M25 64h1v1h-1z" /><path fill="#80ccf4" d="M43 64h1v1h-1zM38 70h1v1h-1z" /><path fill="#5ad9f6" d="M51 64h1v1h-1zM46 70h1v1h-1z" /><path fill="#7abbf2" d="M82 64h1v1h-1zM81 65h1v1h-1zM76 71h1v1h-1zM71 77h1v1h-1z" /><path fill="#7eb8f2" d="M84 64h1v1h-1zM83 65h1v1h-1zM80 69h1v1h-1zM79 70h1v1h-1zM78 71h1v1h-1zM74 76h1v1h-1zM73 77h1v1h-1z" /><path fill="#cfb3ed" d="M26 65h1v1h-1z" /><path fill="#80b7f2" d="M84 65h1v1h-1zM79 71h1v1h-1zM74 77h1v1h-1z" /><path fill="#c5b7ed" d="M27 66h1v1h-1z" /><path fill="#c0b7ee" d="M28 66h1v1h-1z" /><path fill="#7db8f2" d="M82 66h1v1h-1zM81 67h1v1h-1zM77 72h1v1h-1zM76 73h1v1h-1zM72 78h1v1h-1zM71 79h1v1h-1z" /><path fill="#7fb7f2" d="M83 66h1v1h-1zM82 67h1v1h-1zM81 68h1v1h-1zM78 72h1v1h-1zM77 73h1v1h-1zM76 74h1v1h-1zM73 78h1v1h-1zM72 79h1v1h-1zM71 80h1v1h-1z" /><path fill="#81b5f1" d="M84 66h1v1h-1zM79 72h1v1h-1zM74 78h1v1h-1z" /><path fill="#81b6f1" d="M83 67h1v1h-1zM82 68h1v1h-1zM78 73h1v1h-1zM77 74h1v1h-1zM73 79h1v1h-1zM72 80h1v1h-1z" /><path fill="#83b4f1" d="M84 67h1v1h-1zM80 72h1v1h-1zM79 73h1v1h-1zM75 78h1v1h-1zM74 79h1v1h-1zM73 80h1v1h-1z" /><path fill="#84b3f1" d="M85 67h1v1h-1zM83 69h1v1h-1zM78 75h1v1h-1zM73 81h1v1h-1z" /><path fill="#aebdf0" d="M30 68h1v1h-1z" /><path fill="#67d5f5" d="M45 68h1v1h-1z" /><path fill="#7db9f2" d="M80 68h1v1h-1zM75 74h1v1h-1zM70 80h1v1h-1z" /><path fill="#83b5f1" d="M83 68h1v1h-1zM78 74h1v1h-1z" /><path fill="#85b3f1" d="M84 68h1v1h-1zM81 72h1v1h-1zM80 73h1v1h-1zM79 74h1v1h-1zM76 78h1v1h-1zM75 79h1v1h-1zM74 80h1v1h-1z" /><path fill="#87b2f0" d="M85 68h1v1h-1z" /><path fill="#aabeef" d="M30 69h1v1h-1z" /><path fill="#80b6f2" d="M81 69h1v1h-1zM80 70h1v1h-1zM76 75h1v1h-1zM75 76h1v1h-1zM71 81h1v1h-1z" /><path fill="#82b5f1" d="M82 69h1v1h-1zM81 70h1v1h-1zM80 71h1v1h-1zM77 75h1v1h-1zM76 76h1v1h-1zM75 77h1v1h-1zM72 81h1v1h-1zM71 82h1v1h-1z" /><path fill="#86b2f1" d="M84 69h1v1h-1zM83 70h1v1h-1zM82 71h1v1h-1zM79 75h1v1h-1zM78 76h1v1h-1zM77 77h1v1h-1zM74 81h1v1h-1zM73 82h1v1h-1zM72 83h1v1h-1z" /><path fill="#88b1f1" d="M85 69h1v1h-1zM84 70h1v1h-1zM83 71h1v1h-1zM80 75h1v1h-1zM79 76h1v1h-1zM78 77h1v1h-1zM75 81h1v1h-1zM74 82h1v1h-1zM73 83h1v1h-1z" /><path fill="#a6bff1" d="M30 70h1v1h-1z" /><path fill="#84b4f1" d="M82 70h1v1h-1zM81 71h1v1h-1zM77 76h1v1h-1zM76 77h1v1h-1zM72 82h1v1h-1z" /><path fill="#8ab0f0" d="M85 70h1v1h-1zM80 76h1v1h-1zM74 83h1v1h-1z" /><path fill="#8baeef" d="M86 70h1v1h-1z" /><path fill="#61caf4" d="M64 71h1v1h-1z" /><path fill="#63caf4" d="M65 71h1v1h-1z" /><path fill="#65c7f3" d="M66 71h1v1h-1z" /><path fill="#8ab0f1" d="M84 71h1v1h-1zM79 77h1v1h-1z" /><path fill="#8caef0" d="M85 71h1v1h-1zM82 75h1v1h-1zM81 76h1v1h-1zM80 77h1v1h-1zM75 83h1v1h-1zM72 87h1v1h-1z" /><path fill="#8eacf0" d="M86 71h1v1h-1zM86 72h1v1h-1zM73 87h1v1h-1z" /><path fill="#9fc2f1" d="M30 72h1v1h-1z" /><path fill="#90c7f2" d="M33 72h1v1h-1z" /><path fill="#56daf6" d="M45 72h1v1h-1z" /><path fill="#51dbf6" d="M46 72h1v1h-1zM36 84h1v1h-1z" /><path fill="#5ccef5" d="M60 72h1v1h-1z" /><path fill="#5dcdf5" d="M61 72h1v1h-1z" /><path fill="#5fccf4" d="M62 72h1v1h-1zM40 98h1v1h-1zM39 99h1v1h-1z" /><path fill="#6bc4f4" d="M68 72h1v1h-1z" /><path fill="#87b1f1" d="M82 72h1v1h-1zM77 78h1v1h-1zM72 84h1v1h-1zM71 85h1v1h-1z" /><path fill="#89b0f1" d="M83 72h1v1h-1zM82 73h1v1h-1zM81 74h1v1h-1zM78 78h1v1h-1zM77 79h1v1h-1zM73 84h1v1h-1zM72 85h1v1h-1z" /><path fill="#8baff0" d="M84 72h1v1h-1zM83 73h1v1h-1zM82 74h1v1h-1zM79 78h1v1h-1zM78 79h1v1h-1zM74 84h1v1h-1zM73 85h1v1h-1zM72 86h1v1h-1z" /><path fill="#8dadf0" d="M85 72h1v1h-1zM84 73h1v1h-1zM80 78h1v1h-1zM79 79h1v1h-1zM76 83h1v1h-1zM75 84h1v1h-1zM74 85h1v1h-1z" /><path fill="#9bc3f2" d="M30 73h1v1h-1z" /><path fill="#4adaf7" d="M51 73h1v1h-1z" /><path fill="#4dd9f6" d="M52 73h1v1h-1z" /><path fill="#4fd7f6" d="M53 73h1v1h-1z" /><path fill="#50d6f6" d="M54 73h1v1h-1z" /><path fill="#55d3f5" d="M56 73h1v1h-1zM35 98h1v1h-1z" /><path fill="#56d2f5" d="M57 73h1v1h-1z" /><path fill="#87b2f1" d="M81 73h1v1h-1zM80 74h1v1h-1zM76 79h1v1h-1zM75 80h1v1h-1z" /><path fill="#8facf0" d="M85 73h1v1h-1zM84 74h1v1h-1zM81 78h1v1h-1zM80 79h1v1h-1zM79 80h1v1h-1zM75 85h1v1h-1zM74 86h1v1h-1zM71 90h1v1h-1z" /><path fill="#91abf0" d="M86 73h1v1h-1zM85 74h1v1h-1zM81 79h1v1h-1zM80 80h1v1h-1zM71 91h1v1h-1z" /><path fill="#97c4f2" d="M30 74h1v1h-1z" /><path fill="#8daef0" d="M83 74h1v1h-1zM78 80h1v1h-1zM73 86h1v1h-1z" /><path fill="#91a9f0" d="M86 74h1v1h-1zM69 94h1v1h-1z" /><path fill="#6cc4f3" d="M66 75h1v1h-1z" /><path fill="#7eb7f2" d="M75 75h1v1h-1z" /><path fill="#8aaff0" d="M81 75h1v1h-1zM75 82h1v1h-1z" /><path fill="#8eadf0" d="M83 75h1v1h-1zM82 76h1v1h-1zM81 77h1v1h-1zM78 81h1v1h-1zM72 88h1v1h-1z" /><path fill="#90abf0" d="M84 75h1v1h-1zM83 76h1v1h-1zM79 81h1v1h-1zM75 86h1v1h-1zM74 87h1v1h-1zM73 88h1v1h-1z" /><path fill="#92aaf0" d="M85 75h1v1h-1zM84 76h1v1h-1zM83 77h1v1h-1zM80 81h1v1h-1zM79 82h1v1h-1zM74 88h1v1h-1zM73 89h1v1h-1zM70 93h1v1h-1zM68 95h1v1h-1z" /><path fill="#94a8ee" d="M86 75h1v1h-1zM74 89h1v1h-1zM67 98h1v1h-1z" /><path fill="#94a9ef" d="M85 76h1v1h-1zM84 77h1v1h-1zM80 82h1v1h-1zM70 94h1v1h-1zM69 95h1v1h-1z" /><path fill="#96a6ee" d="M86 76h1v1h-1z" /><path fill="#72bff2" d="M67 77h1v1h-1z" /><path fill="#90acf0" d="M82 77h1v1h-1zM72 89h1v1h-1z" /><path fill="#96a8ef" d="M85 77h1v1h-1z" /><path fill="#97a6ee" d="M86 77h1v1h-1zM68 98h1v1h-1z" /><path fill="#91aaf0" d="M82 78h1v1h-1zM72 90h1v1h-1zM67 96h1v1h-1z" /><path fill="#93a9ef" d="M83 78h1v1h-1zM82 79h1v1h-1zM73 90h1v1h-1zM72 91h1v1h-1zM68 96h1v1h-1zM67 97h1v1h-1z" /><path fill="#95a8ef" d="M84 78h1v1h-1zM83 79h1v1h-1zM82 80h1v1h-1zM69 96h1v1h-1zM68 97h1v1h-1z" /><path fill="#97a6ef" d="M85 78h1v1h-1zM70 96h1v1h-1zM69 97h1v1h-1z" /><path fill="#99a5ee" d="M86 78h1v1h-1zM69 98h1v1h-1z" /><path fill="#77bbf3" d="M68 79h1v1h-1z" /><path fill="#97a7ef" d="M84 79h1v1h-1zM83 80h1v1h-1z" /><path fill="#99a5ef" d="M85 79h1v1h-1zM84 80h1v1h-1zM81 84h1v1h-1zM70 97h1v1h-1z" /><path fill="#9ba4ef" d="M86 79h1v1h-1zM82 84h1v1h-1zM81 85h1v1h-1z" /><path fill="#46ddf7" d="M43 80h1v1h-1z" /><path fill="#7bbaf1" d="M69 80h1v1h-1z" /><path fill="#88aff0" d="M76 80h1v1h-1z" /><path fill="#8aafef" d="M77 80h1v1h-1zM71 87h1v1h-1z" /><path fill="#93aaf0" d="M81 80h1v1h-1z" /><path fill="#9aa4ef" d="M85 80h1v1h-1zM84 81h1v1h-1z" /><path fill="#9ca3ee" d="M86 80h1v1h-1zM85 81h1v1h-1z" /><path fill="#9da0ee" d="M87 80h1v1h-1z" /><path fill="#49dbf8" d="M43 81h1v1h-1z" /><path fill="#7db6f1" d="M70 81h1v1h-1z" /><path fill="#8aaef0" d="M76 81h1v1h-1z" /><path fill="#8badf0" d="M77 81h1v1h-1z" /><path fill="#94a8ef" d="M81 81h1v1h-1z" /><path fill="#96a7ef" d="M82 81h1v1h-1zM81 82h1v1h-1zM80 83h1v1h-1zM70 95h1v1h-1z" /><path fill="#98a6ef" d="M83 81h1v1h-1zM82 82h1v1h-1zM81 83h1v1h-1z" /><path fill="#9ea2ee" d="M86 81h1v1h-1zM85 82h1v1h-1z" /><path fill="#9f9fed" d="M87 81h1v1h-1z" /><path fill="#4bdbf6" d="M43 82h1v1h-1z" /><path fill="#80b5f1" d="M70 82h1v1h-1z" /><path fill="#8badef" d="M76 82h1v1h-1z" /><path fill="#8faaf0" d="M78 82h1v1h-1z" /><path fill="#9aa5ef" d="M83 82h1v1h-1zM82 83h1v1h-1z" /><path fill="#9ca3ef" d="M84 82h1v1h-1zM83 83h1v1h-1z" /><path fill="#a0a0ee" d="M86 82h1v1h-1zM83 86h1v1h-1z" /><path fill="#a29eee" d="M87 82h1v1h-1z" /><path fill="#6dd1f5" d="M31 83h1v1h-1z" /><path fill="#83b3f0" d="M71 83h1v1h-1z" /><path fill="#93a8ef" d="M79 83h1v1h-1z" /><path fill="#9da2ee" d="M84 83h1v1h-1zM83 84h1v1h-1zM82 85h1v1h-1z" /><path fill="#9fa1ee" d="M85 83h1v1h-1zM84 84h1v1h-1zM83 85h1v1h-1z" /><path fill="#a19fee" d="M86 83h1v1h-1z" /><path fill="#a39eee" d="M87 83h1v1h-1zM86 84h1v1h-1zM85 85h1v1h-1z" /><path fill="#69d3f4" d="M31 84h1v1h-1z" /><path fill="#84b2f0" d="M71 84h1v1h-1z" /><path fill="#96a5ee" d="M80 84h1v1h-1z" /><path fill="#a1a0ee" d="M85 84h1v1h-1zM84 85h1v1h-1z" /><path fill="#a49ced" d="M87 84h1v1h-1z" /><path fill="#4ddbf6" d="M36 85h1v1h-1z" /><path fill="#47ddf7" d="M37 85h1v1h-1zM28 98h1v1h-1z" /><path fill="#a59dee" d="M86 85h1v1h-1z" /><path fill="#a69bec" d="M87 85h1v1h-1z" /><path fill="#45def7" d="M37 86h1v1h-1z" /><path fill="#89aff1" d="M71 86h1v1h-1z" /><path fill="#9fa0ed" d="M82 86h1v1h-1z" /><path fill="#a29fee" d="M84 86h1v1h-1zM83 87h1v1h-1z" /><path fill="#a49dee" d="M85 86h1v1h-1zM84 87h1v1h-1z" /><path fill="#a69ced" d="M86 86h1v1h-1zM85 87h1v1h-1zM84 88h1v1h-1z" /><path fill="#a79aed" d="M87 86h1v1h-1z" /><path fill="#5dd7f5" d="M31 87h1v1h-1z" /><path fill="#91aaef" d="M75 87h1v1h-1z" /><path fill="#a89bed" d="M86 87h1v1h-1zM85 88h1v1h-1z" /><path fill="#59d9f5" d="M31 88h1v1h-1z" /><path fill="#8cadf0" d="M71 88h1v1h-1z" /><path fill="#a49eee" d="M83 88h1v1h-1z" /><path fill="#aa99ed" d="M86 88h1v1h-1zM83 92h1v1h-1z" /><path fill="#8dacef" d="M71 89h1v1h-1z" /><path fill="#a59ded" d="M83 89h1v1h-1z" /><path fill="#a79bed" d="M84 89h1v1h-1zM83 90h1v1h-1z" /><path fill="#a99aed" d="M85 89h1v1h-1zM84 90h1v1h-1zM83 91h1v1h-1z" /><path fill="#aa97ed" d="M86 89h1v1h-1z" /><path fill="#45ddf7" d="M34 90h1v1h-1z" /><path fill="#ab99ed" d="M85 90h1v1h-1zM84 91h1v1h-1z" /><path fill="#ac96ed" d="M86 90h1v1h-1z" /><path fill="#47dcf8" d="M34 91h1v1h-1z" /><path fill="#8fabef" d="M70 91h1v1h-1z" /><path fill="#94a7ee" d="M73 91h1v1h-1zM71 93h1v1h-1z" /><path fill="#ad98ed" d="M85 91h1v1h-1z" /><path fill="#af96ec" d="M86 91h1v1h-1zM83 95h1v1h-1z" /><path fill="#4edbf6" d="M30 92h1v1h-1z" /><path fill="#91abef" d="M70 92h1v1h-1z" /><path fill="#93a9f0" d="M71 92h1v1h-1z" /><path fill="#94a7ef" d="M72 92h1v1h-1z" /><path fill="#ac98ed" d="M84 92h1v1h-1zM83 93h1v1h-1z" /><path fill="#ae96ec" d="M85 92h1v1h-1z" /><path fill="#b094ec" d="M86 92h1v1h-1zM82 97h1v1h-1z" /><path fill="#48dcf8" d="M33 93h1v1h-1z" /><path fill="#90abef" d="M69 93h1v1h-1z" /><path fill="#ae97ed" d="M84 93h1v1h-1zM83 94h1v1h-1z" /><path fill="#b095ec" d="M85 93h1v1h-1zM84 94h1v1h-1z" /><path fill="#b293ec" d="M86 93h1v1h-1z" /><path fill="#4bddf7" d="M29 94h1v1h-1z" /><path fill="#b294ec" d="M85 94h1v1h-1zM82 98h1v1h-1z" /><path fill="#b492eb" d="M86 94h1v1h-1z" /><path fill="#49dbf7" d="M32 95h1v1h-1z" /><path fill="#5bcef4" d="M41 95h1v1h-1z" /><path fill="#b194ec" d="M84 95h1v1h-1z" /><path fill="#b393ec" d="M85 95h1v1h-1zM84 96h1v1h-1zM83 97h1v1h-1z" /><path fill="#b491ec" d="M86 95h1v1h-1z" /><path fill="#55d2f5" d="M37 96h1v1h-1z" /><path fill="#5ecef4" d="M41 96h1v1h-1z" /><path fill="#b195ec" d="M83 96h1v1h-1z" /><path fill="#b592ec" d="M85 96h1v1h-1zM84 97h1v1h-1z" /><path fill="#4cd9f7" d="M31 97h1v1h-1z" /><path fill="#56d3f5" d="M36 97h1v1h-1z" /><path fill="#90aaef" d="M66 97h1v1h-1z" /><path fill="#b791ec" d="M85 97h1v1h-1z" /><path fill="#45def8" d="M27 98h1v1h-1z" /><path fill="#48dcf7" d="M29 98h1v1h-1z" /><path fill="#4bdaf7" d="M30 98h1v1h-1z" /><path fill="#92a8f0" d="M66 98h1v1h-1z" /><path fill="#9ba3ee" d="M70 98h1v1h-1z" /><path fill="#af95ec" d="M81 98h1v1h-1z" /><path fill="#b492ec" d="M83 98h1v1h-1zM82 99h1v1h-1z" /><path fill="#b691ec" d="M84 98h1v1h-1zM83 99h1v1h-1z" /><path fill="#b88eea" d="M85 98h1v1h-1z" /><path fill="#b193ec" d="M81 99h1v1h-1z" /><path fill="#b78feb" d="M84 99h1v1h-1z" /><path fill="#b98dea" d="M85 99h1v1h-1z" /></svg>