<svg xmlns="http://www.w3.org/2000/svg" viewBox="0 0 100 100" width="1em" height="1em"><path fill="#7549bc" d="M49 0h1v1h-1zM43 6h1v1h-1zM40 9h1v1h-1zM64 17h1v1h-1zM66 21h1v1h-1zM66 22h1v1h-1zM45 24h1v1h-1zM48 28h1v1h-1zM47 29h1v1h-1zM53 34h1v1h-1zM52 35h1v1h-1zM76 50h1v1h-1zM22 51h1v1h-1zM18 58h1v1h-1zM81 58h1v1h-1zM19 67h1v1h-1zM61 71h1v1h-1zM46 75h1v1h-1zM66 75h1v1h-1zM68 77h1v1h-1zM77 79h1v1h-1zM41 81h1v1h-1zM61 81h1v1h-1zM52 96h1v1h-1z" /><path fill="#7449bb" d="M50 0h1v1h-1zM58 8h1v1h-1zM60 11h1v1h-1zM35 17h1v1h-1zM58 36h1v1h-1zM43 38h1v1h-1zM24 49h1v1h-1zM75 49h1v1h-1zM81 57h1v1h-1zM18 61h1v1h-1zM18 63h1v1h-1zM59 72h1v1h-1zM38 81h1v1h-1zM42 91h1v1h-1z" /><path fill="#744abc" d="M48 1h1v1h-1zM37 14h1v1h-1zM62 14h1v1h-1zM63 15h1v1h-1zM54 24h1v1h-1zM57 26h1v1h-1zM41 28h1v1h-1zM51 28h1v1h-1zM40 32h1v1h-1zM29 35h1v1h-1zM70 35h1v1h-1zM29 36h1v1h-1zM70 36h1v1h-1zM42 37h1v1h-1zM44 39h1v1h-1zM46 40h1v1h-1zM28 46h1v1h-1zM71 46h1v1h-1zM26 48h1v1h-1zM78 52h1v1h-1zM18 59h1v1h-1zM20 71h1v1h-1zM35 74h1v1h-1zM56 74h1v1h-1zM53 75h1v1h-1zM21 76h1v1h-1zM67 76h1v1h-1zM27 80h1v1h-1zM45 82h1v1h-1zM54 82h1v1h-1zM44 91h1v1h-1zM40 93h1v1h-1zM45 93h1v1h-1zM59 93h1v1h-1z" /><path fill="#754abc" d="M49 1h2v1h-2zM48 2h4v1h-4zM47 3h6v1h-6zM46 4h9v1h-9zM44 5h12v1h-12zM44 6h12v1h-12zM43 7h14v1h-14zM41 8h17v1h-17zM41 9h18v1h-18zM40 10h20v1h-20zM40 11h20v1h-20zM39 12h22v1h-22zM38 13h24v1h-24zM38 14h24v1h-24zM36 15h27v1h-27zM37 16h26v1h-26zM36 17h28v1h-28zM35 18h30v1h-30zM35 19h31v1h-31zM35 20h31v1h-31zM34 21h32v1h-32zM34 22h32v1h-32zM33 23h14v1h-14zM51 23h16v1h-16zM33 24h12v1h-12zM56 24h11v1h-11zM32 25h11v1h-11zM57 25h11v1h-11zM32 26h10v1h-10zM58 26h10v1h-10zM32 27h10v1h-10zM58 27h10v1h-10zM31 28h10v1h-10zM49 28h1v1h-1zM59 28h10v1h-10zM31 29h10v1h-10zM48 29h4v1h-4zM59 29h10v1h-10zM30 30h11v1h-11zM46 30h7v1h-7zM60 30h9v1h-9zM31 31h9v1h-9zM46 31h8v1h-8zM60 31h9v1h-9zM30 32h10v1h-10zM46 32h8v1h-8zM60 32h10v1h-10zM30 33h10v1h-10zM46 33h8v1h-8zM59 33h11v1h-11zM30 34h11v1h-11zM47 34h6v1h-6zM59 34h11v1h-11zM30 35h11v1h-11zM48 35h4v1h-4zM59 35h11v1h-11zM30 36h11v1h-11zM59 36h11v1h-11zM30 37h12v1h-12zM58 37h12v1h-12zM29 38h14v1h-14zM56 38h14v1h-14zM29 39h15v1h-15zM56 39h15v1h-15zM29 40h16v1h-16zM55 40h16v1h-16zM29 41h42v1h-42zM29 42h42v1h-42zM29 43h42v1h-42zM29 44h42v1h-42zM29 45h42v1h-42zM29 46h42v1h-42zM28 47h44v1h-44zM27 48h46v1h-46zM26 49h49v1h-49zM24 50h52v1h-52zM23 51h54v1h-54zM22 52h56v1h-56zM21 53h58v1h-58zM20 54h60v1h-60zM20 55h60v1h-60zM19 56h62v1h-62zM19 57h62v1h-62zM19 58h62v1h-62zM19 59h63v1h-63zM19 60h63v1h-63zM19 61h63v1h-63zM19 62h63v1h-63zM19 63h62v1h-62zM19 64h62v1h-62zM19 65h62v1h-62zM19 66h62v1h-62zM20 67h60v1h-60zM20 68h60v1h-60zM20 69h60v1h-60zM21 70h59v1h-59zM21 71h17v1h-17zM40 71h20v1h-20zM62 71h18v1h-18zM21 72h16v1h-16zM41 72h18v1h-18zM63 72h16v1h-16zM21 73h15v1h-15zM42 73h16v1h-16zM65 73h15v1h-15zM22 74h12v1h-12zM44 74h12v1h-12zM66 74h13v1h-13zM21 75h13v1h-13zM47 75h6v1h-6zM67 75h12v1h-12zM22 76h10v1h-10zM68 76h11v1h-11zM22 77h9v1h-9zM69 77h9v1h-9zM23 78h7v1h-7zM71 78h7v1h-7zM23 79h6v1h-6zM72 79h5v1h-5zM23 80h1v1h-1zM25 80h2v1h-2zM73 80h3v1h-3zM39 81h2v1h-2zM59 81h2v1h-2zM38 82h6v1h-6zM56 82h6v1h-6zM38 83h24v1h-24zM38 84h24v1h-24zM38 85h24v1h-24zM38 86h24v1h-24zM38 87h24v1h-24zM38 88h24v1h-24zM38 89h24v1h-24zM38 90h5v1h-5zM44 90h12v1h-12zM57 90h5v1h-5zM38 91h4v1h-4zM45 91h10v1h-10zM57 91h5v1h-5zM39 92h3v1h-3zM45 92h10v1h-10zM59 92h2v1h-2zM46 93h8v1h-8zM47 94h6v1h-6zM47 95h6v1h-6zM48 96h4v1h-4zM48 97h4v1h-4zM49 98h2v1h-2z" /><path fill="#744abb" d="M51 1h1v1h-1zM46 3h1v1h-1zM57 7h1v1h-1zM59 9h1v1h-1zM36 16h1v1h-1zM34 19h1v1h-1zM33 21h1v1h-1zM33 22h1v1h-1zM48 23h1v1h-1zM31 27h1v1h-1zM50 28h1v1h-1zM53 30h1v1h-1zM59 32h1v1h-1zM46 34h1v1h-1zM73 48h1v1h-1zM23 50h1v1h-1zM21 52h1v1h-1zM81 63h1v1h-1zM80 68h1v1h-1zM38 71h1v1h-1zM37 72h1v1h-1zM40 72h1v1h-1zM36 73h1v1h-1zM58 73h1v1h-1zM65 74h1v1h-1zM22 78h1v1h-1zM78 78h1v1h-1zM24 80h1v1h-1zM42 81h1v1h-1zM57 81h2v1h-2zM46 82h1v1h-1zM53 82h1v1h-1zM39 93h1v1h-1zM47 96h1v1h-1zM47 97h1v1h-1zM52 97h1v1h-1zM49 99h1v1h-1z" /><path fill="#7449bc" d="M47 2h1v1h-1zM38 12h1v1h-1zM55 24h1v1h-1zM56 25h1v1h-1zM42 26h1v1h-1zM59 30h1v1h-1zM69 30h1v1h-1zM59 31h1v1h-1zM69 31h1v1h-1zM49 36h2v1h-2zM57 37h1v1h-1zM70 37h1v1h-1zM70 38h1v1h-1zM53 40h2v1h-2zM80 54h1v1h-1zM19 55h1v1h-1zM80 55h1v1h-1zM18 57h1v1h-1zM20 70h1v1h-1zM60 71h1v1h-1zM79 74h1v1h-1zM31 77h1v1h-1zM78 77h1v1h-1zM44 82h1v1h-1zM55 82h1v1h-1zM58 92h1v1h-1zM61 92h1v1h-1zM60 93h1v1h-1zM46 94h1v1h-1zM51 98h1v1h-1z" /><path fill="#7549bb" d="M52 2h1v1h-1zM42 7h1v1h-1zM39 11h1v1h-1zM47 23h1v1h-1zM67 23h1v1h-1zM43 25h1v1h-1zM31 26h1v1h-1zM68 26h1v1h-1zM68 27h1v1h-1zM52 29h1v1h-1zM30 31h1v1h-1zM40 31h1v1h-1zM47 35h1v1h-1zM58 35h1v1h-1zM41 36h1v1h-1zM29 37h1v1h-1zM72 47h1v1h-1zM77 51h1v1h-1zM20 53h1v1h-1zM81 64h1v1h-1zM80 69h1v1h-1zM20 72h1v1h-1zM62 72h1v1h-1zM32 76h1v1h-1zM22 79h1v1h-1zM29 79h1v1h-1zM71 79h1v1h-1zM76 80h1v1h-1zM55 91h1v1h-1zM38 92h1v1h-1zM46 95h1v1h-1zM53 95h1v1h-1zM48 98h1v1h-1zM50 99h1v1h-1z" /><path fill="#754abb" d="M53 3h1v1h-1zM45 4h1v1h-1zM56 6h1v1h-1zM61 12h1v1h-1zM63 16h1v1h-1zM34 20h1v1h-1zM32 24h1v1h-1zM67 24h1v1h-1zM58 28h1v1h-1zM40 33h1v1h-1zM41 35h1v1h-1zM55 39h1v1h-1zM45 40h1v1h-1zM27 47h1v1h-1zM25 49h1v1h-1zM79 53h1v1h-1zM18 60h1v1h-1zM18 62h1v1h-1zM80 67h1v1h-1zM39 71h1v1h-1zM79 72h1v1h-1zM41 73h1v1h-1zM64 73h1v1h-1zM21 74h1v1h-1zM34 74h1v1h-1zM43 74h1v1h-1zM30 78h1v1h-1zM70 78h1v1h-1zM72 80h1v1h-1zM43 90h1v1h-1zM56 90h1v1h-1zM54 93h1v1h-1zM53 94h1v1h-1z" /></svg>