<svg xmlns="http://www.w3.org/2000/svg" viewBox="0 0 100 100" width="1em" height="1em"><path fill="#808080" d="M44 1h1v1h-1zM46 1h2v1h-2zM52 1h4v1h-4zM38 2h1v1h-1zM61 2h1v1h-1zM63 3h2v1h-2zM30 4h1v1h-1zM28 5h3v1h-3zM69 5h1v1h-1zM21 9h1v1h-1zM20 10h1v1h-1zM15 14h2v1h-2zM15 15h1v1h-1zM14 16h1v1h-1zM10 20h1v1h-1zM9 21h1v1h-1zM5 28h1v1h-1zM94 29h1v1h-1zM5 30h1v1h-1zM96 37h1v1h-1zM2 38h1v1h-1zM1 43h1v1h-1zM1 44h1v1h-1zM98 47h1v1h-1zM1 52h1v1h-1zM98 53h1v1h-1zM1 54h1v1h-1zM98 55h1v1h-1zM2 61h1v1h-1zM96 61h2v1h-2zM2 62h1v1h-1zM96 62h1v1h-1zM96 63h1v1h-1zM4 68h1v1h-1zM5 69h1v1h-1zM5 70h1v1h-1zM93 70h1v1h-1zM6 71h1v1h-1zM93 71h1v1h-1zM8 76h1v1h-1zM10 78h1v1h-1zM88 78h2v1h-2zM13 82h1v1h-1zM14 83h1v1h-1zM83 84h1v1h-1zM83 85h1v1h-1zM27 92h1v1h-1zM27 93h3v1h-3zM70 93h2v1h-2zM30 94h1v1h-1zM68 94h2v1h-2zM37 96h1v1h-1zM62 96h2v1h-2zM60 97h2v1h-2zM43 98h4v1h-4zM53 98h1v1h-1z" /><path fill="#7f7f7f" d="M45 1h1v1h-1zM36 2h2v1h-2zM62 2h2v1h-2zM70 5h1v1h-1zM28 6h1v1h-1zM71 6h2v1h-2zM23 8h1v1h-1zM22 9h1v1h-1zM21 10h1v1h-1zM16 13h1v1h-1zM14 15h1v1h-1zM10 21h1v1h-1zM9 22h1v1h-1zM6 27h1v1h-1zM6 28h1v1h-1zM93 28h1v1h-1zM5 29h1v1h-1zM93 29h1v1h-1zM94 30h1v1h-1zM3 35h1v1h-1zM96 35h1v1h-1zM2 36h1v1h-1zM96 36h1v1h-1zM2 37h1v1h-1zM97 38h1v1h-1zM97 39h1v1h-1zM98 44h1v1h-1zM1 45h1v1h-1zM98 45h1v1h-1zM1 46h1v1h-1zM98 46h1v1h-1zM98 52h1v1h-1zM1 53h1v1h-1zM98 54h1v1h-1zM1 55h1v1h-1zM2 60h1v1h-1zM2 63h2v1h-2zM96 64h1v1h-1zM94 69h1v1h-1zM9 76h1v1h-1zM90 76h1v1h-1zM9 77h1v1h-1zM89 77h1v1h-1zM88 79h1v1h-1zM84 83h1v1h-1zM15 84h1v1h-1zM84 84h1v1h-1zM82 85h1v1h-1zM20 88h1v1h-1zM78 88h1v1h-1zM21 89h2v1h-2zM77 89h2v1h-2zM22 90h1v1h-1zM76 90h1v1h-1zM29 94h1v1h-1zM35 96h2v1h-2zM61 96h1v1h-1zM38 97h1v1h-1zM52 98h1v1h-1zM54 98h1v1h-1z" /><path fill="#00007f" d="M84 1h2v1h-2zM87 1h1v1h-1zM89 1h2v1h-2zM82 2h1v1h-1zM93 3h1v1h-1zM95 5h1v1h-1zM77 7h1v1h-1zM77 8h1v1h-1zM97 8h1v1h-1zM44 12h4v1h-4zM49 12h1v1h-1zM76 12h1v1h-1zM40 13h1v1h-1zM37 14h1v1h-1zM61 14h1v1h-1zM77 16h1v1h-1zM30 17h2v1h-2zM78 17h1v1h-1zM95 18h1v1h-1zM71 19h1v1h-1zM95 19h1v1h-1zM26 20h1v1h-1zM80 20h1v1h-1zM93 20h1v1h-1zM25 21h1v1h-1zM92 21h1v1h-1zM24 22h1v1h-1zM84 22h1v1h-1zM86 22h1v1h-1zM88 22h1v1h-1zM23 23h1v1h-1zM77 24h1v1h-1zM21 25h1v1h-1zM78 25h1v1h-1zM20 26h1v1h-1zM79 27h1v1h-1zM80 28h1v1h-1zM18 29h1v1h-1zM81 30h1v1h-1zM82 31h1v1h-1zM16 32h1v1h-1zM83 33h1v1h-1zM84 35h1v1h-1zM84 36h1v1h-1zM14 37h1v1h-1zM13 41h1v1h-1zM86 43h1v1h-1zM12 48h1v1h-1zM12 50h1v1h-1zM86 55h1v1h-1zM13 58h1v1h-1zM13 59h1v1h-1zM14 61h1v1h-1zM85 61h1v1h-1zM14 62h1v1h-1zM84 63h1v1h-1zM16 66h1v1h-1zM82 67h1v1h-1zM19 71h1v1h-1zM20 72h1v1h-1zM79 72h1v1h-1zM21 74h1v1h-1zM77 74h1v1h-1zM76 75h1v1h-1zM24 77h1v1h-1zM74 77h1v1h-1zM25 78h1v1h-1zM27 79h1v1h-1zM72 79h1v1h-1zM28 80h1v1h-1zM69 81h1v1h-1zM31 82h1v1h-1zM67 82h1v1h-1zM34 83h1v1h-1zM35 84h2v1h-2zM61 85h1v1h-1zM42 86h2v1h-2zM55 86h2v1h-2z" /><path fill="#000080" d="M86 1h1v1h-1zM88 1h1v1h-1zM83 2h10v1h-10zM81 3h12v1h-12zM79 4h16v1h-16zM79 5h16v1h-16zM78 6h19v1h-19zM78 7h19v1h-19zM78 8h19v1h-19zM77 9h21v1h-21zM77 10h21v1h-21zM76 11h22v1h-22zM48 12h1v1h-1zM50 12h5v1h-5zM77 12h21v1h-21zM39 13h1v1h-1zM41 13h19v1h-19zM77 13h21v1h-21zM38 14h23v1h-23zM62 14h1v1h-1zM77 14h21v1h-21zM34 15h31v1h-31zM77 15h21v1h-21zM32 16h36v1h-36zM78 16h19v1h-19zM32 17h37v1h-37zM79 17h18v1h-18zM29 18h42v1h-42zM79 18h16v1h-16zM27 19h44v1h-44zM79 19h16v1h-16zM27 20h47v1h-47zM81 20h12v1h-12zM26 21h49v1h-49zM82 21h10v1h-10zM25 22h51v1h-51zM85 22h1v1h-1zM87 22h1v1h-1zM89 22h2v1h-2zM24 23h37v1h-37zM70 23h7v1h-7zM22 24h37v1h-37zM72 24h5v1h-5zM22 25h35v1h-35zM73 25h5v1h-5zM21 26h36v1h-36zM74 26h5v1h-5zM19 27h37v1h-37zM75 27h4v1h-4zM19 28h36v1h-36zM76 28h4v1h-4zM19 29h36v1h-36zM76 29h5v1h-5zM17 30h37v1h-37zM76 30h5v1h-5zM17 31h37v1h-37zM77 31h5v1h-5zM17 32h37v1h-37zM77 32h6v1h-6zM16 33h38v1h-38zM77 33h6v1h-6zM15 34h39v1h-39zM77 34h7v1h-7zM15 35h39v1h-39zM77 35h7v1h-7zM14 36h40v1h-40zM77 36h7v1h-7zM15 37h39v1h-39zM76 37h9v1h-9zM14 38h41v1h-41zM76 38h10v1h-10zM13 39h42v1h-42zM76 39h10v1h-10zM13 40h43v1h-43zM75 40h11v1h-11zM14 41h42v1h-42zM74 41h12v1h-12zM13 42h44v1h-44zM73 42h14v1h-14zM13 43h11v1h-11zM28 43h30v1h-30zM72 43h14v1h-14zM12 44h12v1h-12zM28 44h32v1h-32zM71 44h16v1h-16zM12 45h12v1h-12zM28 45h36v1h-36zM67 45h20v1h-20zM12 46h12v1h-12zM28 46h59v1h-59zM12 47h12v1h-12zM28 47h59v1h-59zM13 48h11v1h-11zM28 48h59v1h-59zM12 49h12v1h-12zM28 49h59v1h-59zM13 50h11v1h-11zM28 50h14v1h-14zM46 50h7v1h-7zM57 50h7v1h-7zM73 50h14v1h-14zM12 51h12v1h-12zM28 51h14v1h-14zM46 51h7v1h-7zM57 51h5v1h-5zM74 51h13v1h-13zM12 52h12v1h-12zM28 52h14v1h-14zM46 52h7v1h-7zM57 52h5v1h-5zM75 52h12v1h-12zM12 53h12v1h-12zM28 53h14v1h-14zM46 53h7v1h-7zM57 53h4v1h-4zM68 53h1v1h-1zM75 53h12v1h-12zM12 54h12v1h-12zM28 54h14v1h-14zM46 54h7v1h-7zM57 54h4v1h-4zM65 54h6v1h-6zM75 54h12v1h-12zM13 55h11v1h-11zM28 55h14v1h-14zM46 55h7v1h-7zM57 55h4v1h-4zM65 55h7v1h-7zM76 55h10v1h-10zM13 56h11v1h-11zM28 56h14v1h-14zM46 56h7v1h-7zM57 56h4v1h-4zM65 56h7v1h-7zM76 56h11v1h-11zM13 57h11v1h-11zM28 57h14v1h-14zM46 57h7v1h-7zM57 57h13v1h-13zM76 57h11v1h-11zM14 58h10v1h-10zM28 58h14v1h-14zM46 58h7v1h-7zM57 58h7v1h-7zM76 58h10v1h-10zM14 59h10v1h-10zM28 59h14v1h-14zM46 59h7v1h-7zM57 59h5v1h-5zM76 59h10v1h-10zM14 60h10v1h-10zM28 60h14v1h-14zM46 60h7v1h-7zM57 60h4v1h-4zM76 60h10v1h-10zM15 61h9v1h-9zM28 61h14v1h-14zM46 61h7v1h-7zM57 61h3v1h-3zM67 61h5v1h-5zM76 61h9v1h-9zM15 62h9v1h-9zM28 62h14v1h-14zM46 62h7v1h-7zM57 62h3v1h-3zM65 62h7v1h-7zM76 62h9v1h-9zM15 63h9v1h-9zM28 63h14v1h-14zM46 63h6v1h-6zM57 63h3v1h-3zM64 63h7v1h-7zM76 63h8v1h-8zM15 64h9v1h-9zM28 64h14v1h-14zM46 64h6v1h-6zM57 64h3v1h-3zM64 64h7v1h-7zM76 64h8v1h-8zM16 65h8v1h-8zM40 65h2v1h-2zM47 65h4v1h-4zM57 65h3v1h-3zM65 65h4v1h-4zM76 65h8v1h-8zM17 66h7v1h-7zM40 66h2v1h-2zM57 66h3v1h-3zM78 66h5v1h-5zM16 67h8v1h-8zM40 67h3v1h-3zM57 67h4v1h-4zM78 67h4v1h-4zM17 68h7v1h-7zM40 68h4v1h-4zM52 68h1v1h-1zM57 68h5v1h-5zM71 68h2v1h-2zM78 68h4v1h-4zM18 69h29v1h-29zM49 69h16v1h-16zM67 69h15v1h-15zM18 70h63v1h-63zM20 71h60v1h-60zM21 72h58v1h-58zM20 73h59v1h-59zM22 74h55v1h-55zM22 75h54v1h-54zM23 76h53v1h-53zM25 77h49v1h-49zM26 78h48v1h-48zM28 79h44v1h-44zM29 80h42v1h-42zM30 81h39v1h-39zM32 82h35v1h-35zM33 83h1v1h-1zM35 83h31v1h-31zM37 84h27v1h-27zM38 85h23v1h-23zM44 86h11v1h-11zM57 86h1v1h-1z" /><path fill="#323299" d="M61 23h1v1h-1z" /><path fill="#8181c0" d="M62 23h1v1h-1z" /><path fill="#bcbcde" d="M63 23h1v1h-1z" /><path fill="#d5d5ea" d="M64 23h1v1h-1zM72 56h1v1h-1z" /><path fill="#e3e3f1" d="M65 23h1v1h-1zM64 68h1v1h-1z" /><path fill="#cecee7" d="M66 23h1v1h-1zM72 62h1v1h-1z" /><path fill="#b0b0d8" d="M67 23h1v1h-1zM58 42h1v1h-1z" /><path fill="#6868b4" d="M68 23h1v1h-1zM71 57h1v1h-1z" /><path fill="#1a1a8d" d="M69 23h1v1h-1zM39 65h1v1h-1z" /><path fill="#38389c" d="M59 24h1v1h-1zM64 55h1v1h-1z" /><path fill="#c1c1e0" d="M60 24h1v1h-1z" /><path fill="#ffffff" d="M61 24h8v1h-8zM60 25h11v1h-11zM58 26h14v1h-14zM57 27h16v1h-16zM57 28h17v1h-17zM56 29h19v1h-19zM56 30h19v1h-19zM55 31h20v1h-20zM55 32h21v1h-21zM55 33h21v1h-21zM55 34h21v1h-21zM55 35h21v1h-21zM55 36h20v1h-20zM56 37h19v1h-19zM56 38h19v1h-19zM56 39h18v1h-18zM57 40h16v1h-16zM58 41h15v1h-15zM59 42h12v1h-12zM61 43h9v1h-9zM25 44h2v1h-2zM64 44h3v1h-3zM25 45h2v1h-2zM25 46h2v1h-2zM25 47h2v1h-2zM25 48h2v1h-2zM25 49h2v1h-2zM25 50h2v1h-2zM25 51h2v1h-2zM43 51h2v1h-2zM54 51h2v1h-2zM65 51h7v1h-7zM25 52h2v1h-2zM43 52h2v1h-2zM54 52h2v1h-2zM63 52h4v1h-4zM69 52h4v1h-4zM25 53h2v1h-2zM43 53h2v1h-2zM54 53h2v1h-2zM63 53h1v1h-1zM72 53h2v1h-2zM25 54h2v1h-2zM43 54h2v1h-2zM54 54h2v1h-2zM62 54h2v1h-2zM73 54h1v1h-1zM25 55h2v1h-2zM43 55h2v1h-2zM54 55h2v1h-2zM62 55h2v1h-2zM73 55h2v1h-2zM25 56h2v1h-2zM43 56h2v1h-2zM54 56h2v1h-2zM73 56h2v1h-2zM25 57h2v1h-2zM43 57h2v1h-2zM54 57h2v1h-2zM73 57h2v1h-2zM25 58h2v1h-2zM43 58h2v1h-2zM54 58h2v1h-2zM71 58h4v1h-4zM25 59h2v1h-2zM43 59h2v1h-2zM54 59h2v1h-2zM65 59h6v1h-6zM73 59h2v1h-2zM25 60h2v1h-2zM43 60h2v1h-2zM54 60h2v1h-2zM63 60h3v1h-3zM73 60h2v1h-2zM25 61h2v1h-2zM43 61h2v1h-2zM54 61h2v1h-2zM62 61h2v1h-2zM73 61h2v1h-2zM25 62h2v1h-2zM43 62h2v1h-2zM54 62h2v1h-2zM61 62h2v1h-2zM73 62h2v1h-2zM25 63h2v1h-2zM43 63h2v1h-2zM54 63h2v1h-2zM61 63h2v1h-2zM73 63h2v1h-2zM25 64h2v1h-2zM43 64h2v1h-2zM53 64h3v1h-3zM61 64h2v1h-2zM72 64h3v1h-3zM25 65h2v1h-2zM43 65h2v1h-2zM54 65h2v1h-2zM61 65h2v1h-2zM72 65h3v1h-3zM25 66h14v1h-14zM44 66h2v1h-2zM52 66h1v1h-1zM54 66h2v1h-2zM62 66h2v1h-2zM70 66h1v1h-1zM73 66h2v1h-2zM25 67h14v1h-14zM45 67h6v1h-6zM54 67h2v1h-2zM63 67h7v1h-7zM74 67h3v1h-3zM47 68h2v1h-2zM65 68h2v1h-2z" /><path fill="#fbfbfd" d="M69 24h1v1h-1zM73 52h1v1h-1zM72 54h1v1h-1zM66 60h1v1h-1zM44 67h1v1h-1z" /><path fill="#9797cb" d="M70 24h1v1h-1z" /><path fill="#18188c" d="M71 24h1v1h-1zM62 59h1v1h-1z" /><path fill="#010180" d="M57 25h1v1h-1zM67 53h1v1h-1zM64 56h1v1h-1zM52 63h1v1h-1z" /><path fill="#7777bb" d="M58 25h1v1h-1z" /><path fill="#fdfdfe" d="M59 25h1v1h-1zM72 57h1v1h-1z" /><path fill="#ececf6" d="M71 25h1v1h-1zM67 44h1v1h-1z" /><path fill="#4242a1" d="M72 25h1v1h-1z" /><path fill="#9999cc" d="M57 26h1v1h-1zM68 66h1v1h-1zM54 68h2v1h-2z" /><path fill="#fafafd" d="M72 26h1v1h-1zM75 31h1v1h-1zM67 52h1v1h-1zM51 67h1v1h-1z" /><path fill="#4f4fa7" d="M73 26h1v1h-1zM39 68h1v1h-1z" /><path fill="#7272b9" d="M56 27h1v1h-1z" /><path fill="#f3f3f9" d="M73 27h1v1h-1zM70 58h1v1h-1z" /><path fill="#2e2e97" d="M74 27h1v1h-1z" /><path fill="#212190" d="M55 28h1v1h-1zM62 68h1v1h-1z" /><path fill="#f9f9fc" d="M56 28h1v1h-1zM55 30h1v1h-1zM64 51h1v1h-1zM43 66h1v1h-1z" /><path fill="#cfcfe7" d="M74 28h1v1h-1z" /><path fill="#020281" d="M75 28h1v1h-1zM70 44h1v1h-1zM64 58h1v1h-1z" /><path fill="#a6a6d3" d="M55 29h1v1h-1zM54 34h1v1h-1zM68 44h1v1h-1zM69 50h1v1h-1zM68 60h1v1h-1z" /><path fill="#5757ab" d="M75 29h1v1h-1zM53 60h1v1h-1z" /><path fill="#0f0f87" d="M54 30h1v1h-1zM71 60h1v1h-1z" /><path fill="#bbbbdd" d="M75 30h1v1h-1z" /><path fill="#5959ac" d="M54 31h1v1h-1zM76 34h1v1h-1z" /><path fill="#101088" d="M76 31h1v1h-1zM64 65h1v1h-1zM53 67h1v1h-1z" /><path fill="#8989c4" d="M54 32h1v1h-1z" /><path fill="#3a3a9d" d="M76 32h1v1h-1zM73 68h1v1h-1z" /><path fill="#a2a2d1" d="M54 33h1v1h-1z" /><path fill="#5454aa" d="M76 33h1v1h-1z" /><path fill="#8e8ec7" d="M54 35h1v1h-1zM65 66h1v1h-1z" /><path fill="#3f3f9f" d="M76 35h1v1h-1zM74 52h1v1h-1zM61 67h1v1h-1z" /><path fill="#6969b4" d="M54 36h1v1h-1z" /><path fill="#fefefe" d="M75 36h1v1h-1zM55 37h1v1h-1zM73 40h1v1h-1zM71 42h1v1h-1zM62 53h1v1h-1zM64 53h1v1h-1zM71 65h1v1h-1zM51 66h1v1h-1z" /><path fill="#1b1b8d" d="M76 36h1v1h-1zM54 37h1v1h-1z" /><path fill="#cccce6" d="M75 37h1v1h-1z" /><path fill="#c2c2e1" d="M55 38h1v1h-1z" /><path fill="#7373b9" d="M75 38h1v1h-1zM27 65h1v1h-1z" /><path fill="#3d3d9e" d="M55 39h1v1h-1z" /><path fill="#e4e4f2" d="M74 39h1v1h-1zM72 51h1v1h-1z" /><path fill="#0a0a85" d="M75 39h1v1h-1zM69 53h1v1h-1zM66 61h1v1h-1zM53 68h1v1h-1zM48 69h1v1h-1z" /><path fill="#9f9fcf" d="M56 40h1v1h-1z" /><path fill="#5050a8" d="M74 40h1v1h-1zM27 44h1v1h-1zM27 45h1v1h-1zM27 46h1v1h-1zM27 47h1v1h-1zM27 48h1v1h-1zM27 49h1v1h-1zM27 50h1v1h-1zM27 51h1v1h-1zM27 52h1v1h-1zM27 53h1v1h-1zM27 54h1v1h-1zM27 55h1v1h-1zM27 56h1v1h-1zM27 57h1v1h-1zM27 58h1v1h-1zM27 59h1v1h-1zM27 60h1v1h-1zM27 61h1v1h-1zM27 62h1v1h-1zM27 63h1v1h-1zM27 64h1v1h-1z" /><path fill="#080884" d="M56 41h1v1h-1zM45 50h1v1h-1zM60 61h1v1h-1z" /><path fill="#c7c7e3" d="M57 41h1v1h-1z" /><path fill="#7f7fbf" d="M73 41h1v1h-1z" /><path fill="#0d0d86" d="M57 42h1v1h-1zM61 56h1v1h-1z" /><path fill="#8080c0" d="M72 42h1v1h-1zM60 63h1v1h-1zM63 64h1v1h-1zM70 65h1v1h-1z" /><path fill="#202090" d="M24 43h1v1h-1z" /><path fill="#262693" d="M25 43h2v1h-2zM45 51h1v1h-1zM45 52h1v1h-1zM45 53h1v1h-1zM45 54h1v1h-1zM45 55h1v1h-1zM45 56h1v1h-1zM45 57h1v1h-1zM45 58h1v1h-1zM45 59h1v1h-1zM45 60h1v1h-1zM45 61h1v1h-1zM45 62h1v1h-1zM46 65h1v1h-1z" /><path fill="#0b0b85" d="M27 43h1v1h-1zM66 45h1v1h-1z" /><path fill="#030381" d="M58 43h1v1h-1zM62 51h1v1h-1zM64 62h1v1h-1z" /><path fill="#7171b8" d="M59 43h1v1h-1z" /><path fill="#ededf6" d="M60 43h1v1h-1zM45 65h1v1h-1z" /><path fill="#d0d0e8" d="M70 43h1v1h-1z" /><path fill="#4141a0" d="M71 43h1v1h-1z" /><path fill="#d8d8ec" d="M24 44h1v1h-1zM24 45h1v1h-1zM24 46h1v1h-1zM24 47h1v1h-1zM24 48h1v1h-1zM24 49h1v1h-1zM24 50h1v1h-1zM24 51h1v1h-1zM24 52h1v1h-1zM24 53h1v1h-1zM71 53h1v1h-1zM24 54h1v1h-1zM24 55h1v1h-1zM24 56h1v1h-1zM24 57h1v1h-1zM24 58h1v1h-1zM24 59h1v1h-1zM24 60h1v1h-1zM24 61h1v1h-1zM24 62h1v1h-1zM24 63h1v1h-1zM24 64h1v1h-1zM24 65h1v1h-1zM24 66h1v1h-1zM24 67h1v1h-1z" /><path fill="#111188" d="M60 44h1v1h-1zM53 50h1v1h-1zM62 56h2v1h-2z" /><path fill="#6f6fb7" d="M61 44h1v1h-1zM52 67h1v1h-1z" /><path fill="#bebedf" d="M62 44h1v1h-1z" /><path fill="#f8f8fc" d="M63 44h1v1h-1zM71 59h1v1h-1zM73 67h1v1h-1z" /><path fill="#5252a9" d="M69 44h1v1h-1z" /><path fill="#15158a" d="M64 45h1v1h-1z" /><path fill="#222291" d="M65 45h1v1h-1zM42 50h1v1h-1zM75 65h1v1h-1zM42 66h1v1h-1z" /><path fill="#333399" d="M43 50h2v1h-2zM54 50h2v1h-2zM28 65h11v1h-11z" /><path fill="#19198c" d="M56 50h1v1h-1zM77 66h1v1h-1z" /><path fill="#131389" d="M64 50h1v1h-1z" /><path fill="#6161b0" d="M65 50h1v1h-1z" /><path fill="#9292c9" d="M66 50h1v1h-1z" /><path fill="#aaaad5" d="M67 50h1v1h-1zM45 68h1v1h-1z" /><path fill="#acacd6" d="M68 50h1v1h-1z" /><path fill="#8585c2" d="M70 50h1v1h-1z" /><path fill="#4b4ba5" d="M71 50h1v1h-1z" /><path fill="#070783" d="M72 50h1v1h-1zM75 55h1v1h-1zM75 56h1v1h-1zM75 57h1v1h-1zM75 58h1v1h-1zM75 59h1v1h-1zM75 60h1v1h-1zM75 61h1v1h-1zM75 62h1v1h-1zM75 63h1v1h-1zM75 64h1v1h-1zM69 65h1v1h-1z" /><path fill="#a9a9d4" d="M42 51h1v1h-1zM42 52h1v1h-1zM42 53h1v1h-1zM42 54h1v1h-1zM42 55h1v1h-1zM42 56h1v1h-1zM42 57h1v1h-1zM42 58h1v1h-1zM42 59h1v1h-1zM42 60h1v1h-1zM42 61h1v1h-1zM42 62h1v1h-1zM42 63h1v1h-1z" /><path fill="#5656ab" d="M53 51h1v1h-1zM53 52h1v1h-1zM53 53h1v1h-1zM53 54h1v1h-1zM53 55h1v1h-1zM53 56h1v1h-1zM53 57h1v1h-1zM53 58h1v1h-1zM53 59h1v1h-1z" /><path fill="#7b7bbd" d="M56 51h1v1h-1zM56 52h1v1h-1zM56 53h1v1h-1zM56 54h1v1h-1zM56 55h1v1h-1zM56 56h1v1h-1zM56 57h1v1h-1zM56 58h1v1h-1zM56 59h1v1h-1zM56 60h1v1h-1zM56 61h1v1h-1zM56 62h1v1h-1zM56 63h1v1h-1zM56 64h1v1h-1zM56 65h1v1h-1zM56 66h1v1h-1zM56 67h1v1h-1z" /><path fill="#8383c1" d="M63 51h1v1h-1z" /><path fill="#4c4ca6" d="M73 51h1v1h-1zM65 61h1v1h-1z" /><path fill="#9898cc" d="M62 52h1v1h-1zM63 68h1v1h-1z" /><path fill="#f1f1f8" d="M68 52h1v1h-1z" /><path fill="#34349a" d="M61 53h1v1h-1zM44 68h1v1h-1zM51 68h1v1h-1z" /><path fill="#9191c8" d="M65 53h1v1h-1zM64 54h1v1h-1z" /><path fill="#242492" d="M66 53h1v1h-1z" /><path fill="#5151a8" d="M70 53h1v1h-1z" /><path fill="#bdbdde" d="M74 53h1v1h-1zM68 68h1v1h-1z" /><path fill="#8b8bc5" d="M61 54h1v1h-1z" /><path fill="#1c1c8e" d="M71 54h1v1h-1z" /><path fill="#f5f5fa" d="M74 54h1v1h-1z" /><path fill="#b5b5da" d="M61 55h1v1h-1z" /><path fill="#d2d2e9" d="M72 55h1v1h-1zM72 66h1v1h-1z" /><path fill="#050582" d="M70 57h1v1h-1z" /><path fill="#2f2f97" d="M65 58h1v1h-1z" /><path fill="#5555aa" d="M66 58h1v1h-1z" /><path fill="#7a7abd" d="M67 58h1v1h-1z" /><path fill="#9e9ecf" d="M68 58h1v1h-1z" /><path fill="#c6c6e3" d="M69 58h1v1h-1z" /><path fill="#9595ca" d="M63 59h1v1h-1z" /><path fill="#eaeaf5" d="M64 59h1v1h-1z" /><path fill="#f6f6fb" d="M72 59h1v1h-1zM71 66h1v1h-1zM67 68h1v1h-1z" /><path fill="#35359a" d="M61 60h1v1h-1z" /><path fill="#f0f0f8" d="M62 60h1v1h-1z" /><path fill="#d1d1e8" d="M67 60h1v1h-1z" /><path fill="#7d7dbe" d="M69 60h1v1h-1zM71 64h1v1h-1zM42 65h1v1h-1z" /><path fill="#5353a9" d="M70 60h1v1h-1z" /><path fill="#c9c9e4" d="M72 60h1v1h-1zM72 61h1v1h-1z" /><path fill="#6565b2" d="M53 61h1v1h-1z" /><path fill="#e5e5f2" d="M61 61h1v1h-1z" /><path fill="#c5c5e2" d="M64 61h1v1h-1zM75 68h1v1h-1z" /><path fill="#8f8fc7" d="M53 62h1v1h-1z" /><path fill="#5858ac" d="M60 62h1v1h-1zM60 65h1v1h-1z" /><path fill="#c4c4e2" d="M63 62h1v1h-1z" /><path fill="#37379b" d="M45 63h1v1h-1zM71 67h1v1h-1z" /><path fill="#d9d9ec" d="M53 63h1v1h-1z" /><path fill="#7878bc" d="M63 63h1v1h-1z" /><path fill="#090984" d="M71 63h1v1h-1zM65 69h1v1h-1z" /><path fill="#f2f2f9" d="M72 63h1v1h-1zM52 65h1v1h-1zM62 67h1v1h-1z" /><path fill="#a3a3d1" d="M42 64h1v1h-1z" /><path fill="#7070b8" d="M45 64h1v1h-1zM48 66h1v1h-1zM53 66h1v1h-1z" /><path fill="#5a5aad" d="M52 64h1v1h-1z" /><path fill="#8484c2" d="M60 64h1v1h-1z" /><path fill="#4545a2" d="M51 65h1v1h-1z" /><path fill="#fcfcfe" d="M53 65h1v1h-1z" /><path fill="#dbdbed" d="M63 65h1v1h-1zM70 67h1v1h-1z" /><path fill="#8787c3" d="M39 66h1v1h-1zM39 67h1v1h-1z" /><path fill="#f7f7fb" d="M46 66h1v1h-1z" /><path fill="#9d9dce" d="M47 66h1v1h-1zM76 68h1v1h-1z" /><path fill="#7474ba" d="M49 66h1v1h-1z" /><path fill="#b6b6db" d="M50 66h1v1h-1z" /><path fill="#0c0c86" d="M60 66h1v1h-1z" /><path fill="#e6e6f3" d="M61 66h1v1h-1z" /><path fill="#e7e7f3" d="M64 66h1v1h-1z" /><path fill="#6d6db6" d="M66 66h1v1h-1z" /><path fill="#6e6eb7" d="M67 66h1v1h-1z" /><path fill="#e8e8f4" d="M69 66h1v1h-1z" /><path fill="#dcdcee" d="M75 66h1v1h-1z" /><path fill="#9696cb" d="M76 66h1v1h-1zM25 68h14v1h-14z" /><path fill="#6262b1" d="M43 67h1v1h-1z" /><path fill="#36369b" d="M72 67h1v1h-1z" /><path fill="#2a2a95" d="M77 67h1v1h-1z" /><path fill="#7e7ebf" d="M24 68h1v1h-1z" /><path fill="#efeff7" d="M46 68h1v1h-1zM49 68h1v1h-1z" /><path fill="#a4a4d2" d="M50 68h1v1h-1z" /><path fill="#4a4aa5" d="M56 68h1v1h-1z" /><path fill="#6767b3" d="M69 68h1v1h-1z" /><path fill="#060683" d="M70 68h1v1h-1z" /><path fill="#adadd6" d="M74 68h1v1h-1z" /><path fill="#16168b" d="M77 68h1v1h-1z" /><path fill="#0e0e87" d="M47 69h1v1h-1zM66 69h1v1h-1z" /></svg>