<svg xmlns="http://www.w3.org/2000/svg" viewBox="0 0 100 100" width="1em" height="1em"><path fill="#179de3" d="M22 0h2v1h-2zM33 0h34v1h-34zM76 0h2v1h-2zM17 1h1v1h-1zM19 1h62v1h-62zM14 2h1v1h-1zM16 2h68v1h-68zM85 2h1v1h-1zM14 3h72v1h-72zM12 4h76v1h-76zM10 5h80v1h-80zM8 6h83v1h-83zM8 7h84v1h-84zM7 8h86v1h-86zM6 9h88v1h-88zM5 10h90v1h-90zM5 11h90v1h-90zM4 12h92v1h-92zM4 13h92v1h-92zM2 14h95v1h-95zM3 15h94v1h-94zM2 16h96v1h-96zM2 17h97v1h-97zM2 18h96v1h-96zM1 19h98v1h-98zM1 20h98v1h-98zM1 21h98v1h-98zM0 22h99v1h-99zM0 23h100v1h-100zM1 24h66v1h-66zM68 24h32v1h-32zM1 25h24v1h-24zM51 25h16v1h-16zM69 25h30v1h-30zM1 26h24v1h-24zM51 26h15v1h-15zM69 26h30v1h-30zM1 27h24v1h-24zM51 27h14v1h-14zM70 27h29v1h-29zM1 28h24v1h-24zM51 28h14v1h-14zM70 28h29v1h-29zM1 29h24v1h-24zM51 29h13v1h-13zM71 29h28v1h-28zM1 30h24v1h-24zM51 30h12v1h-12zM72 30h27v1h-27zM1 31h24v1h-24zM51 31h11v1h-11zM73 31h26v1h-26zM1 32h24v1h-24zM51 32h10v1h-10zM75 32h24v1h-24zM1 33h24v1h-24zM51 33h8v1h-8zM76 33h23v1h-23zM0 34h25v1h-25zM51 34h6v1h-6zM78 34h21v1h-21zM1 35h24v1h-24zM51 35h7v1h-7zM77 35h23v1h-23zM1 36h24v1h-24zM51 36h9v1h-9zM75 36h24v1h-24zM1 37h24v1h-24zM51 37h11v1h-11zM74 37h25v1h-25zM1 38h24v1h-24zM51 38h12v1h-12zM72 38h27v1h-27zM0 39h25v1h-25zM51 39h13v1h-13zM71 39h28v1h-28zM0 40h25v1h-25zM51 40h14v1h-14zM71 40h29v1h-29zM0 41h25v1h-25zM51 41h14v1h-14zM70 41h30v1h-30zM0 42h25v1h-25zM51 42h15v1h-15zM69 42h31v1h-31zM0 43h25v1h-25zM51 43h15v1h-15zM69 43h31v1h-31zM0 44h25v1h-25zM51 44h16v1h-16zM68 44h32v1h-32zM0 45h25v1h-25zM51 45h49v1h-49zM0 46h25v1h-25zM51 46h49v1h-49zM0 47h25v1h-25zM51 47h49v1h-49zM0 48h25v1h-25zM51 48h49v1h-49zM0 49h25v1h-25zM51 49h49v1h-49zM0 50h25v1h-25zM51 50h23v1h-23zM76 50h24v1h-24zM0 51h25v1h-25zM51 51h22v1h-22zM76 51h24v1h-24zM0 52h25v1h-25zM51 52h21v1h-21zM76 52h24v1h-24zM0 53h25v1h-25zM51 53h20v1h-20zM76 53h24v1h-24zM0 54h25v1h-25zM51 54h19v1h-19zM76 54h24v1h-24zM0 55h25v1h-25zM51 55h18v1h-18zM76 55h24v1h-24zM0 56h25v1h-25zM51 56h17v1h-17zM76 56h24v1h-24zM0 57h25v1h-25zM51 57h16v1h-16zM76 57h24v1h-24zM0 58h25v1h-25zM51 58h15v1h-15zM76 58h24v1h-24zM0 59h25v1h-25zM51 59h14v1h-14zM76 59h24v1h-24zM0 60h25v1h-25zM51 60h13v1h-13zM76 60h23v1h-23zM1 61h24v1h-24zM51 61h12v1h-12zM76 61h23v1h-23zM1 62h24v1h-24zM51 62h11v1h-11zM76 62h23v1h-23zM1 63h24v1h-24zM51 63h10v1h-10zM76 63h23v1h-23zM1 64h24v1h-24zM51 64h9v1h-9zM76 64h24v1h-24zM0 65h25v1h-25zM51 65h8v1h-8zM76 65h23v1h-23zM1 66h24v1h-24zM51 66h7v1h-7zM76 66h23v1h-23zM1 67h24v1h-24zM51 67h6v1h-6zM76 67h23v1h-23zM1 68h24v1h-24zM51 68h5v1h-5zM76 68h23v1h-23zM1 69h24v1h-24zM51 69h4v1h-4zM76 69h23v1h-23zM1 70h24v1h-24zM51 70h3v1h-3zM76 70h23v1h-23zM1 71h24v1h-24zM51 71h2v1h-2zM76 71h23v1h-23zM1 72h24v1h-24zM51 72h1v1h-1zM76 72h23v1h-23zM1 73h24v1h-24zM76 73h23v1h-23zM1 74h24v1h-24zM76 74h23v1h-23zM1 75h99v1h-99zM0 76h99v1h-99zM1 77h98v1h-98zM1 78h98v1h-98zM1 79h98v1h-98zM1 80h98v1h-98zM2 81h96v1h-96zM1 82h97v1h-97zM2 83h96v1h-96zM3 84h94v1h-94zM3 85h94v1h-94zM4 86h92v1h-92zM4 87h92v1h-92zM5 88h90v1h-90zM5 89h90v1h-90zM6 90h88v1h-88zM7 91h87v1h-87zM8 92h84v1h-84zM8 93h83v1h-83zM10 94h80v1h-80zM12 95h76v1h-76zM14 96h72v1h-72zM16 97h68v1h-68zM17 98h1v1h-1zM19 98h62v1h-62zM23 99h2v1h-2zM29 99h1v1h-1zM33 99h34v1h-34zM70 99h1v1h-1zM76 99h1v1h-1z" /><path fill="#169de2" d="M24 0h1v1h-1zM75 0h1v1h-1zM91 6h1v1h-1zM6 8h1v1h-1zM96 12h1v1h-1zM1 17h1v1h-1zM0 25h1v1h-1zM99 31h1v1h-1zM99 68h1v1h-1zM0 74h1v1h-1zM91 93h1v1h-1zM9 94h1v1h-1zM12 96h1v1h-1zM87 96h1v1h-1z" /><path fill="#179ce2" d="M25 0h1v1h-1zM32 0h1v1h-1zM74 0h1v1h-1zM87 3h1v1h-1zM90 5h1v1h-1zM3 12h1v1h-1zM97 14h1v1h-1zM0 36h1v1h-1zM99 37h1v1h-1zM0 38h1v1h-1zM99 39h1v1h-1zM99 60h1v1h-1zM0 61h1v1h-1zM99 62h1v1h-1zM0 63h1v1h-1zM99 76h1v1h-1zM2 85h1v1h-1zM97 85h1v1h-1zM3 87h1v1h-1zM90 94h1v1h-1zM14 97h1v1h-1zM25 99h1v1h-1zM27 99h1v1h-1zM72 99h1v1h-1zM74 99h1v1h-1z" /><path fill="#169ce3" d="M26 0h1v1h-1zM73 0h1v1h-1zM15 2h1v1h-1zM84 2h1v1h-1zM2 15h1v1h-1zM99 22h1v1h-1zM0 31h1v1h-1zM99 32h1v1h-1zM0 33h1v1h-1zM99 33h1v1h-1zM0 66h1v1h-1zM99 66h1v1h-1zM99 67h1v1h-1zM0 68h1v1h-1zM2 84h1v1h-1zM96 87h1v1h-1zM22 99h1v1h-1zM77 99h1v1h-1z" /><path fill="#179de2" d="M27 0h1v1h-1zM67 0h1v1h-1zM72 0h1v1h-1zM12 3h2v1h-2zM86 3h1v1h-1zM93 8h1v1h-1zM5 9h1v1h-1zM3 13h1v1h-1zM96 13h1v1h-1zM99 25h1v1h-1zM99 26h1v1h-1zM99 27h1v1h-1zM0 30h1v1h-1zM0 35h1v1h-1zM99 36h1v1h-1zM0 37h1v1h-1zM99 38h1v1h-1zM99 61h1v1h-1zM0 62h1v1h-1zM99 63h1v1h-1zM0 64h1v1h-1zM0 69h1v1h-1zM99 72h1v1h-1zM99 73h1v1h-1zM99 74h1v1h-1zM98 82h1v1h-1zM3 86h1v1h-1zM96 86h1v1h-1zM6 91h1v1h-1zM92 92h1v1h-1zM13 96h1v1h-1zM86 96h1v1h-1zM85 97h1v1h-1z" /><path fill="#179ce3" d="M28 0h1v1h-1zM71 0h1v1h-1zM18 1h1v1h-1zM81 1h2v1h-2zM94 9h1v1h-1zM1 18h1v1h-1zM99 28h1v1h-1zM99 29h1v1h-1zM99 30h1v1h-1zM99 69h1v1h-1zM99 70h1v1h-1zM99 71h1v1h-1zM5 90h1v1h-1zM82 98h1v1h-1zM28 99h1v1h-1zM32 99h1v1h-1zM67 99h1v1h-1zM71 99h1v1h-1zM75 99h1v1h-1z" /><path fill="#169ce2" d="M29 0h1v1h-1zM70 0h1v1h-1zM9 5h1v1h-1zM92 7h1v1h-1zM95 11h1v1h-1zM0 24h1v1h-1zM0 26h1v1h-1zM0 29h1v1h-1zM0 70h1v1h-1zM0 73h1v1h-1zM0 75h1v1h-1zM99 77h1v1h-1zM95 88h1v1h-1zM7 92h1v1h-1zM11 95h1v1h-1zM88 95h1v1h-1zM73 99h1v1h-1z" /><path fill="#169de3" d="M30 0h2v1h-2zM68 0h2v1h-2zM11 4h1v1h-1zM88 4h1v1h-1zM7 7h1v1h-1zM4 11h1v1h-1zM97 15h1v1h-1zM98 18h1v1h-1zM0 27h1v1h-1zM0 28h1v1h-1zM0 32h1v1h-1zM99 34h1v1h-1zM99 65h1v1h-1zM0 67h1v1h-1zM0 71h1v1h-1zM0 72h1v1h-1zM0 77h1v1h-1zM1 81h1v1h-1zM98 81h1v1h-1zM97 84h1v1h-1zM4 88h1v1h-1zM94 90h1v1h-1zM15 97h1v1h-1zM84 97h1v1h-1zM18 98h1v1h-1zM81 98h1v1h-1zM26 99h1v1h-1zM30 99h2v1h-2zM68 99h2v1h-2z" /><path fill="#1ea0e4" d="M67 24h1v1h-1z" /><path fill="#e3f3fc" d="M25 25h1v1h-1zM25 26h1v1h-1zM25 27h1v1h-1zM25 28h1v1h-1zM25 29h1v1h-1zM25 30h1v1h-1zM25 31h1v1h-1zM25 32h1v1h-1zM25 33h1v1h-1zM25 34h1v1h-1zM25 35h1v1h-1zM25 36h1v1h-1zM25 37h1v1h-1zM25 38h1v1h-1zM25 39h1v1h-1zM25 40h1v1h-1zM25 41h1v1h-1zM25 42h1v1h-1zM25 43h1v1h-1zM25 44h1v1h-1zM25 45h1v1h-1zM25 46h1v1h-1zM25 47h1v1h-1zM25 48h1v1h-1zM25 49h1v1h-1zM25 50h1v1h-1zM25 51h1v1h-1zM25 52h1v1h-1zM25 53h1v1h-1zM25 54h1v1h-1zM25 55h1v1h-1zM25 56h1v1h-1zM25 57h1v1h-1zM25 58h1v1h-1zM25 59h1v1h-1zM25 60h1v1h-1zM25 61h1v1h-1zM25 62h1v1h-1zM25 63h1v1h-1zM25 64h1v1h-1zM25 65h1v1h-1zM25 66h1v1h-1zM25 67h1v1h-1zM25 68h1v1h-1zM25 69h1v1h-1zM25 70h1v1h-1zM25 71h1v1h-1zM25 72h1v1h-1zM25 73h1v1h-1zM25 74h1v1h-1z" /><path fill="#ffffff" d="M26 25h24v1h-24zM26 26h24v1h-24zM67 26h1v1h-1zM26 27h24v1h-24zM67 27h1v1h-1zM26 28h24v1h-24zM66 28h3v1h-3zM26 29h24v1h-24zM66 29h4v1h-4zM26 30h24v1h-24zM65 30h5v1h-5zM26 31h24v1h-24zM64 31h7v1h-7zM26 32h24v1h-24zM63 32h9v1h-9zM26 33h24v1h-24zM61 33h13v1h-13zM26 34h24v1h-24zM60 34h16v1h-16zM26 35h24v1h-24zM61 35h13v1h-13zM26 36h24v1h-24zM62 36h11v1h-11zM26 37h24v1h-24zM64 37h8v1h-8zM26 38h24v1h-24zM65 38h6v1h-6zM26 39h24v1h-24zM65 39h5v1h-5zM26 40h24v1h-24zM66 40h3v1h-3zM26 41h24v1h-24zM67 41h1v1h-1zM26 42h24v1h-24zM67 42h1v1h-1zM26 43h24v1h-24zM26 44h24v1h-24zM26 45h24v1h-24zM26 46h24v1h-24zM26 47h24v1h-24zM26 48h24v1h-24zM26 49h24v1h-24zM26 50h24v1h-24zM26 51h24v1h-24zM26 52h24v1h-24zM74 52h1v1h-1zM26 53h24v1h-24zM73 53h2v1h-2zM26 54h24v1h-24zM72 54h3v1h-3zM26 55h24v1h-24zM71 55h4v1h-4zM26 56h24v1h-24zM70 56h5v1h-5zM26 57h24v1h-24zM69 57h6v1h-6zM26 58h24v1h-24zM68 58h7v1h-7zM26 59h24v1h-24zM67 59h8v1h-8zM26 60h24v1h-24zM66 60h9v1h-9zM26 61h24v1h-24zM65 61h10v1h-10zM26 62h24v1h-24zM64 62h11v1h-11zM26 63h24v1h-24zM63 63h12v1h-12zM26 64h24v1h-24zM62 64h13v1h-13zM26 65h24v1h-24zM61 65h14v1h-14zM26 66h24v1h-24zM60 66h15v1h-15zM26 67h24v1h-24zM59 67h16v1h-16zM26 68h24v1h-24zM58 68h17v1h-17zM26 69h24v1h-24zM57 69h18v1h-18zM26 70h24v1h-24zM56 70h19v1h-19zM26 71h24v1h-24zM55 71h20v1h-20zM26 72h24v1h-24zM54 72h21v1h-21zM26 73h24v1h-24zM53 73h22v1h-22zM26 74h24v1h-24zM52 74h23v1h-23z" /><path fill="#33a9e6" d="M50 25h1v1h-1zM50 26h1v1h-1zM50 27h1v1h-1zM50 28h1v1h-1zM50 29h1v1h-1zM50 30h1v1h-1zM50 31h1v1h-1zM50 32h1v1h-1zM50 33h1v1h-1zM50 34h1v1h-1zM50 35h1v1h-1zM50 36h1v1h-1zM74 36h1v1h-1zM50 37h1v1h-1zM50 38h1v1h-1zM50 39h1v1h-1zM50 40h1v1h-1zM50 41h1v1h-1zM50 42h1v1h-1zM50 43h1v1h-1zM50 44h1v1h-1zM50 45h1v1h-1zM50 46h1v1h-1zM50 47h1v1h-1zM50 48h1v1h-1zM50 49h1v1h-1zM50 50h1v1h-1zM50 51h1v1h-1zM50 52h1v1h-1zM50 53h1v1h-1zM50 54h1v1h-1zM50 55h1v1h-1zM50 56h1v1h-1zM50 57h1v1h-1zM50 58h1v1h-1zM50 59h1v1h-1zM50 60h1v1h-1zM50 61h1v1h-1zM50 62h1v1h-1zM50 63h1v1h-1zM50 64h1v1h-1zM50 65h1v1h-1zM50 66h1v1h-1zM50 67h1v1h-1zM50 68h1v1h-1zM50 69h1v1h-1zM50 70h1v1h-1zM50 71h1v1h-1zM50 72h1v1h-1zM50 73h1v1h-1z" /><path fill="#afddf5" d="M67 25h1v1h-1z" /><path fill="#1c9fe4" d="M68 25h1v1h-1zM74 32h1v1h-1z" /><path fill="#48b2e9" d="M66 26h1v1h-1z" /><path fill="#6fc2ee" d="M68 26h1v1h-1z" /><path fill="#189de3" d="M65 27h1v1h-1zM66 43h1v1h-1z" /><path fill="#c8e8f8" d="M66 27h1v1h-1z" /><path fill="#e6f5fc" d="M68 27h1v1h-1z" /><path fill="#21a1e4" d="M69 27h1v1h-1z" /><path fill="#79c7ef" d="M65 28h1v1h-1z" /><path fill="#9fd7f3" d="M69 28h1v1h-1z" /><path fill="#46b1e9" d="M64 29h1v1h-1zM62 31h1v1h-1z" /><path fill="#f8fcfe" d="M65 29h1v1h-1zM71 31h1v1h-1z" /><path fill="#67bfed" d="M70 29h1v1h-1z" /><path fill="#39abe7" d="M63 30h1v1h-1z" /><path fill="#ebf7fd" d="M64 30h1v1h-1z" /><path fill="#f9fcfe" d="M70 30h1v1h-1z" /><path fill="#53b6ea" d="M71 30h1v1h-1z" /><path fill="#eaf6fc" d="M63 31h1v1h-1z" /><path fill="#62bdec" d="M72 31h1v1h-1z" /><path fill="#6dc1ed" d="M61 32h1v1h-1z" /><path fill="#f6fbfe" d="M62 32h1v1h-1zM68 41h1v1h-1z" /><path fill="#feffff" d="M72 32h1v1h-1zM59 34h1v1h-1zM51 74h1v1h-1z" /><path fill="#9bd5f3" d="M73 32h1v1h-1z" /><path fill="#45b1e9" d="M59 33h1v1h-1z" /><path fill="#c7e7f8" d="M60 33h1v1h-1zM69 40h1v1h-1z" /><path fill="#daeffa" d="M74 33h1v1h-1z" /><path fill="#5ab9eb" d="M75 33h1v1h-1z" /><path fill="#20a1e4" d="M57 34h1v1h-1zM58 35h1v1h-1z" /><path fill="#b1def6" d="M58 34h1v1h-1z" /><path fill="#cae9f9" d="M76 34h1v1h-1z" /><path fill="#2ea7e6" d="M77 34h1v1h-1z" /><path fill="#7ac7ef" d="M59 35h1v1h-1z" /><path fill="#edf7fd" d="M60 35h1v1h-1z" /><path fill="#f7fcfe" d="M74 35h1v1h-1z" /><path fill="#8fd0f1" d="M75 35h1v1h-1zM50 74h1v1h-1z" /><path fill="#28a4e5" d="M76 35h1v1h-1z" /><path fill="#26a4e5" d="M60 36h1v1h-1z" /><path fill="#acdcf5" d="M61 36h1v1h-1z" /><path fill="#c6e7f8" d="M73 36h1v1h-1z" /><path fill="#73c4ee" d="M62 37h1v1h-1z" /><path fill="#fbfdff" d="M63 37h1v1h-1z" /><path fill="#95d2f2" d="M72 37h1v1h-1z" /><path fill="#1a9ee3" d="M73 37h1v1h-1zM70 40h1v1h-1z" /><path fill="#5fbbec" d="M63 38h1v1h-1z" /><path fill="#fafdfe" d="M64 38h1v1h-1z" /><path fill="#82caf0" d="M71 38h1v1h-1z" /><path fill="#6dc2ed" d="M64 39h1v1h-1z" /><path fill="#94d2f2" d="M70 39h1v1h-1z" /><path fill="#a0d7f4" d="M65 40h1v1h-1z" /><path fill="#1fa0e4" d="M65 41h1v1h-1z" /><path fill="#e1f2fb" d="M66 41h1v1h-1z" /><path fill="#32a9e6" d="M69 41h1v1h-1z" /><path fill="#64beec" d="M66 42h1v1h-1z" /><path fill="#8bcef1" d="M68 42h1v1h-1z" /><path fill="#d1ebf9" d="M67 43h1v1h-1z" /><path fill="#27a4e5" d="M68 43h1v1h-1z" /><path fill="#31a8e6" d="M67 44h1v1h-1zM75 51h1v1h-1zM75 52h1v1h-1zM75 53h1v1h-1zM75 54h1v1h-1zM75 55h1v1h-1zM75 56h1v1h-1zM75 57h1v1h-1zM75 58h1v1h-1zM75 59h1v1h-1zM75 60h1v1h-1zM75 61h1v1h-1zM75 62h1v1h-1zM75 63h1v1h-1zM75 64h1v1h-1zM75 65h1v1h-1zM75 66h1v1h-1zM75 67h1v1h-1zM75 68h1v1h-1zM75 69h1v1h-1zM75 70h1v1h-1zM75 71h1v1h-1zM75 72h1v1h-1zM75 73h1v1h-1zM75 74h1v1h-1z" /><path fill="#70c3ee" d="M74 50h1v1h-1zM73 51h1v1h-1zM72 52h1v1h-1zM71 53h1v1h-1zM70 54h1v1h-1zM69 55h1v1h-1zM68 56h1v1h-1zM67 57h1v1h-1zM66 58h1v1h-1zM65 59h1v1h-1zM64 60h1v1h-1zM63 61h1v1h-1z" /><path fill="#30a7e6" d="M75 50h1v1h-1z" /><path fill="#fdfeff" d="M74 51h1v1h-1zM73 52h1v1h-1zM72 53h1v1h-1zM71 54h1v1h-1zM70 55h1v1h-1zM69 56h1v1h-1zM68 57h1v1h-1zM67 58h1v1h-1zM66 59h1v1h-1zM65 60h1v1h-1zM64 61h1v1h-1zM63 62h1v1h-1zM62 63h1v1h-1zM61 64h1v1h-1zM60 65h1v1h-1zM59 66h1v1h-1zM58 67h1v1h-1zM57 68h1v1h-1zM56 69h1v1h-1zM55 70h1v1h-1zM54 71h1v1h-1zM53 72h1v1h-1zM52 73h1v1h-1z" /><path fill="#71c3ee" d="M62 62h1v1h-1zM61 63h1v1h-1zM60 64h1v1h-1zM59 65h1v1h-1zM58 66h1v1h-1zM57 67h1v1h-1zM56 68h1v1h-1zM55 69h1v1h-1zM54 70h1v1h-1zM53 71h1v1h-1zM52 72h1v1h-1zM51 73h1v1h-1z" /></svg>