<svg xmlns="http://www.w3.org/2000/svg" viewBox="0 0 100 100" width="1em" height="1em"><path fill="#7a24ce" d="M55 15h1v1h-1z" /><path fill="#7823ce" d="M56 15h2v1h-2z" /><path fill="#b02ce8" d="M29 16h1v1h-1zM33 16h1v1h-1zM46 23h1v1h-1zM48 26h1v1h-1z" /><path fill="#b02de9" d="M30 16h2v1h-2zM29 17h5v1h-5zM35 17h1v1h-1zM31 18h5v1h-5zM37 18h1v1h-1zM33 19h5v1h-5zM39 19h1v1h-1zM34 20h6v1h-6zM41 20h1v1h-1zM36 21h6v1h-6zM43 21h1v1h-1zM38 22h6v1h-6zM40 23h6v1h-6zM47 23h1v1h-1zM42 24h6v1h-6zM44 25h5v1h-5zM46 26h2v1h-2zM47 27h2v1h-2zM42 81h1v1h-1z" /><path fill="#af2de8" d="M32 16h1v1h-1zM34 17h1v1h-1zM36 18h1v1h-1zM38 19h1v1h-1zM45 22h1v1h-1zM42 79h1v1h-1zM43 80h1v1h-1zM44 81h1v1h-1zM44 82h1v1h-1z" /><path fill="#7c25d0" d="M54 16h1v1h-1zM55 17h1v1h-1zM56 18h1v1h-1zM57 19h1v1h-1zM58 20h1v1h-1zM59 21h1v1h-1zM60 22h1v1h-1zM61 23h1v1h-1zM62 24h1v1h-1zM63 25h1v1h-1zM64 26h1v1h-1zM65 27h1v1h-1zM66 28h1v1h-1zM67 29h1v1h-1zM68 30h1v1h-1zM69 31h1v1h-1zM70 32h1v1h-1zM71 33h1v1h-1z" /><path fill="#7b25d0" d="M55 16h1v1h-1zM56 17h1v1h-1zM57 18h1v1h-1zM58 19h1v1h-1zM59 20h1v1h-1zM60 21h1v1h-1zM61 22h1v1h-1zM62 23h1v1h-1zM63 24h1v1h-1zM64 25h1v1h-1zM65 26h1v1h-1zM66 27h1v1h-1zM67 28h1v1h-1zM68 29h1v1h-1zM69 30h1v1h-1zM70 31h1v1h-1zM71 32h1v1h-1z" /><path fill="#7a24cf" d="M56 16h1v1h-1zM57 17h1v1h-1zM58 18h1v1h-1zM59 19h1v1h-1zM60 20h1v1h-1zM61 21h1v1h-1zM62 22h1v1h-1zM63 23h1v1h-1zM64 24h1v1h-1zM65 25h1v1h-1zM66 26h1v1h-1zM67 27h1v1h-1zM68 28h1v1h-1zM69 29h1v1h-1zM70 30h1v1h-1zM71 31h1v1h-1z" /><path fill="#7924cf" d="M57 16h1v1h-1zM58 17h1v1h-1zM59 18h1v1h-1zM60 19h1v1h-1zM61 20h1v1h-1zM62 21h1v1h-1zM63 22h1v1h-1zM64 23h1v1h-1zM65 24h1v1h-1zM66 25h1v1h-1zM67 26h1v1h-1zM68 27h1v1h-1zM69 28h1v1h-1zM70 29h1v1h-1zM71 30h1v1h-1zM72 31h1v1h-1zM72 32h1v1h-1z" /><path fill="#7824ce" d="M58 16h1v1h-1zM59 17h1v1h-1zM60 18h1v1h-1zM61 19h1v1h-1zM62 20h1v1h-1zM63 21h1v1h-1zM64 22h1v1h-1zM65 23h1v1h-1zM66 24h1v1h-1zM67 25h1v1h-1zM68 26h1v1h-1zM69 27h1v1h-1zM70 28h1v1h-1zM71 29h1v1h-1zM72 30h1v1h-1z" /><path fill="#7724ce" d="M59 16h1v1h-1zM60 17h1v1h-1zM61 18h1v1h-1zM62 19h1v1h-1zM63 20h1v1h-1zM64 21h1v1h-1zM65 22h1v1h-1zM66 23h1v1h-1zM67 24h1v1h-1zM68 25h1v1h-1zM69 26h1v1h-1zM70 27h1v1h-1zM71 28h1v1h-1zM72 29h1v1h-1z" /><path fill="#7623ce" d="M60 16h1v1h-1z" /><path fill="#7624cd" d="M61 16h1v1h-1zM62 17h1v1h-1zM63 18h1v1h-1zM64 19h1v1h-1zM65 20h1v1h-1zM66 21h1v1h-1zM67 22h1v1h-1zM68 23h1v1h-1zM69 24h1v1h-1zM70 25h1v1h-1zM71 26h1v1h-1zM72 27h1v1h-1z" /><path fill="#7524cd" d="M62 16h1v1h-1zM63 17h1v1h-1zM64 18h1v1h-1zM65 19h1v1h-1zM66 20h1v1h-1zM67 21h1v1h-1zM68 22h1v1h-1zM69 23h1v1h-1zM70 24h1v1h-1zM71 25h1v1h-1zM72 26h1v1h-1z" /><path fill="#6c00cc" d="M79 16h1v1h-1zM78 17h1v1h-1z" /><path fill="#6d00cc" d="M80 16h17v1h-17zM79 17h20v1h-20zM78 18h22v1h-22zM78 19h22v1h-22zM79 20h21v1h-21zM80 21h20v1h-20zM81 22h19v1h-19zM82 23h18v1h-18zM83 24h17v1h-17zM84 25h16v1h-16zM85 26h15v1h-15zM86 27h14v1h-14zM87 28h13v1h-13zM88 29h12v1h-12zM89 30h11v1h-11zM90 31h10v1h-10zM91 32h9v1h-9zM92 33h8v1h-8zM93 34h7v1h-7zM94 35h6v1h-6zM95 36h5v1h-5zM96 37h4v1h-4zM97 38h3v1h-3zM98 39h2v1h-2zM99 40h1v1h-1z" /><path fill="#6d00cb" d="M97 16h1v1h-1z" /><path fill="#6c00cb" d="M98 16h1v1h-1zM99 17h1v1h-1z" /><path fill="#7d25d1" d="M53 17h2v1h-2zM54 18h2v1h-2zM55 19h2v1h-2zM56 20h2v1h-2zM57 21h2v1h-2zM58 22h2v1h-2zM59 23h2v1h-2zM60 24h2v1h-2zM61 25h2v1h-2zM62 26h2v1h-2zM63 27h2v1h-2zM64 28h2v1h-2zM65 29h2v1h-2zM66 30h2v1h-2zM67 31h2v1h-2zM68 32h2v1h-2zM69 33h2v1h-2zM70 34h2v1h-2zM71 35h1v1h-1z" /><path fill="#7624ce" d="M61 17h1v1h-1zM62 18h1v1h-1zM63 19h1v1h-1zM64 20h1v1h-1zM65 21h1v1h-1zM66 22h1v1h-1zM67 23h1v1h-1zM68 24h1v1h-1zM69 25h1v1h-1zM70 26h1v1h-1zM71 27h1v1h-1zM72 28h1v1h-1z" /><path fill="#7424cc" d="M64 17h1v1h-1zM65 18h1v1h-1zM66 19h1v1h-1zM67 20h1v1h-1zM68 21h1v1h-1zM69 22h1v1h-1zM70 23h1v1h-1zM71 24h1v1h-1zM72 25h1v1h-1zM73 26h1v1h-1z" /><path fill="#7223cc" d="M65 17h1v1h-1zM67 18h1v1h-1zM68 19h1v1h-1zM69 20h1v1h-1zM70 21h1v1h-1zM71 22h1v1h-1zM72 23h1v1h-1zM73 24h1v1h-1z" /><path fill="#7122cb" d="M66 17h2v1h-2z" /><path fill="#b02be9" d="M28 18h1v1h-1z" /><path fill="#b12ce9" d="M29 18h1v1h-1zM30 19h2v1h-2zM32 20h2v1h-2zM34 21h2v1h-2zM36 22h1v1h-1zM38 23h1v1h-1zM39 24h2v1h-2zM41 25h2v1h-2zM43 26h2v1h-2zM45 27h2v1h-2zM47 29h1v1h-1z" /><path fill="#b12de9" d="M30 18h1v1h-1zM32 19h1v1h-1zM37 22h1v1h-1zM39 23h1v1h-1zM41 24h1v1h-1zM43 25h1v1h-1zM45 26h1v1h-1z" /><path fill="#7d24d1" d="M53 18h1v1h-1z" /><path fill="#7324cc" d="M66 18h1v1h-1zM67 19h1v1h-1zM68 20h1v1h-1zM69 21h1v1h-1zM70 22h1v1h-1zM71 23h1v1h-1zM72 24h1v1h-1zM73 25h1v1h-1z" /><path fill="#7123cb" d="M68 18h1v1h-1zM69 19h1v1h-1zM70 20h1v1h-1zM71 21h1v1h-1zM72 22h1v1h-1zM73 23h1v1h-1zM74 24h1v1h-1z" /><path fill="#7023cb" d="M69 18h1v1h-1zM70 19h1v1h-1zM71 20h1v1h-1zM72 21h1v1h-1zM73 22h1v1h-1z" /><path fill="#6f23ca" d="M70 18h1v1h-1zM72 19h1v1h-1zM73 20h1v1h-1zM74 21h1v1h-1zM74 23h1v1h-1z" /><path fill="#6e22c9" d="M71 18h2v1h-2z" /><path fill="#b22cea" d="M28 19h1v1h-1zM30 20h1v1h-1zM32 21h1v1h-1zM34 22h1v1h-1zM37 24h1v1h-1zM39 25h1v1h-1zM41 26h1v1h-1zM43 27h1v1h-1zM45 28h1v1h-1z" /><path fill="#b22ce9" d="M29 19h1v1h-1zM31 20h1v1h-1zM33 21h1v1h-1zM35 22h1v1h-1zM36 23h2v1h-2zM38 24h1v1h-1zM40 25h1v1h-1zM42 26h1v1h-1zM44 27h1v1h-1zM46 28h1v1h-1z" /><path fill="#7f25d2" d="M53 19h1v1h-1zM54 20h1v1h-1zM55 21h1v1h-1zM56 22h1v1h-1zM57 23h1v1h-1zM58 24h1v1h-1zM59 25h1v1h-1zM60 26h1v1h-1zM61 27h1v1h-1zM62 28h1v1h-1zM63 29h1v1h-1zM64 30h1v1h-1zM65 31h1v1h-1zM66 32h1v1h-1zM67 33h1v1h-1zM68 34h1v1h-1zM69 35h1v1h-1zM70 36h1v1h-1zM71 38h1v1h-1z" /><path fill="#7e25d1" d="M54 19h1v1h-1zM55 20h1v1h-1zM56 21h1v1h-1zM57 22h1v1h-1zM58 23h1v1h-1zM59 24h1v1h-1zM60 25h1v1h-1zM61 26h1v1h-1zM62 27h1v1h-1zM63 28h1v1h-1zM64 29h1v1h-1zM65 30h1v1h-1zM66 31h1v1h-1zM67 32h1v1h-1zM68 33h1v1h-1zM69 34h1v1h-1zM70 35h1v1h-1zM71 36h1v1h-1z" /><path fill="#7023ca" d="M71 19h1v1h-1zM72 20h1v1h-1zM73 21h1v1h-1z" /><path fill="#6e23ca" d="M73 19h1v1h-1zM74 20h1v1h-1z" /><path fill="#6c22c9" d="M74 19h1v1h-1z" /><path fill="#b22bea" d="M27 20h1v1h-1zM33 22h1v1h-1zM35 23h1v1h-1zM46 29h1v1h-1z" /><path fill="#b32bea" d="M28 20h2v1h-2zM29 21h3v1h-3zM31 22h2v1h-2zM33 23h2v1h-2zM35 24h2v1h-2zM37 25h2v1h-2zM39 26h2v1h-2zM40 27h3v1h-3zM42 28h3v1h-3zM44 29h2v1h-2z" /><path fill="#b02de8" d="M40 20h1v1h-1zM42 21h1v1h-1zM44 22h1v1h-1z" /><path fill="#8025d2" d="M53 20h1v1h-1zM54 21h1v1h-1zM55 22h1v1h-1zM56 23h1v1h-1zM57 24h1v1h-1zM58 25h1v1h-1zM59 26h1v1h-1zM60 27h1v1h-1zM61 28h1v1h-1zM62 29h1v1h-1zM63 30h1v1h-1zM64 31h1v1h-1zM65 32h1v1h-1zM66 33h1v1h-1zM67 34h1v1h-1zM68 35h1v1h-1zM69 36h1v1h-1zM70 37h1v1h-1z" /><path fill="#6e01cc" d="M78 20h1v1h-1zM79 21h1v1h-1zM80 22h1v1h-1zM81 23h1v1h-1zM82 24h1v1h-1zM83 25h1v1h-1zM84 26h1v1h-1zM85 27h1v1h-1zM86 28h1v1h-1zM87 29h1v1h-1zM88 30h1v1h-1zM89 31h1v1h-1zM90 32h1v1h-1zM91 33h1v1h-1zM92 34h1v1h-1zM93 35h1v1h-1zM94 36h1v1h-1zM95 37h1v1h-1zM96 38h1v1h-1zM97 39h1v1h-1zM98 40h1v1h-1zM99 41h1v1h-1z" /><path fill="#b42aea" d="M27 21h1v1h-1zM29 22h1v1h-1zM31 23h1v1h-1zM33 24h1v1h-1zM34 25h2v1h-2zM36 26h1v1h-1zM38 27h1v1h-1zM40 28h1v1h-1zM42 29h1v1h-1zM44 30h1v1h-1z" /><path fill="#b42bea" d="M28 21h1v1h-1zM30 22h1v1h-1zM32 23h1v1h-1zM34 24h1v1h-1zM36 25h1v1h-1zM37 26h2v1h-2zM39 27h1v1h-1zM41 28h1v1h-1zM43 29h1v1h-1zM45 30h1v1h-1z" /><path fill="#8125d3" d="M53 21h1v1h-1zM54 22h1v1h-1zM55 23h1v1h-1zM56 24h1v1h-1zM57 25h1v1h-1zM58 26h1v1h-1zM59 27h1v1h-1zM60 28h1v1h-1zM61 29h1v1h-1zM62 30h1v1h-1zM63 31h1v1h-1zM64 32h1v1h-1zM65 33h1v1h-1zM66 34h1v1h-1zM67 35h1v1h-1zM68 36h1v1h-1zM69 37h1v1h-1zM70 38h1v1h-1z" /><path fill="#6e01cd" d="M78 21h1v1h-1zM79 22h1v1h-1zM80 23h1v1h-1zM81 24h1v1h-1zM82 25h1v1h-1zM83 26h1v1h-1zM84 27h1v1h-1zM85 28h1v1h-1zM86 29h1v1h-1zM87 30h1v1h-1zM88 31h1v1h-1zM89 32h1v1h-1zM90 33h1v1h-1zM91 34h1v1h-1zM92 35h1v1h-1zM93 36h1v1h-1zM94 37h1v1h-1zM95 38h1v1h-1zM96 39h1v1h-1zM97 40h1v1h-1zM98 41h1v1h-1zM99 42h1v1h-1z" /><path fill="#b629e9" d="M26 22h1v1h-1z" /><path fill="#b52aea" d="M27 22h2v1h-2zM28 23h3v1h-3zM30 24h3v1h-3zM32 25h2v1h-2zM34 26h2v1h-2zM36 27h2v1h-2zM38 28h2v1h-2zM40 29h2v1h-2zM41 30h3v1h-3zM43 31h3v1h-3z" /><path fill="#8225d3" d="M52 22h2v1h-2zM54 23h1v1h-1zM55 24h1v1h-1zM56 25h1v1h-1zM57 26h1v1h-1zM58 27h1v1h-1zM59 28h1v1h-1zM60 29h1v1h-1zM61 30h1v1h-1zM62 31h1v1h-1zM63 32h1v1h-1zM64 33h1v1h-1zM65 34h1v1h-1zM66 35h1v1h-1zM67 36h1v1h-1zM68 37h1v1h-1zM69 38h1v1h-1zM70 39h1v1h-1z" /><path fill="#7022c9" d="M74 22h1v1h-1z" /><path fill="#6f01cd" d="M78 22h1v1h-1zM78 23h2v1h-2zM79 24h2v1h-2zM80 25h2v1h-2zM81 26h2v1h-2zM82 27h2v1h-2zM83 28h2v1h-2zM84 29h2v1h-2zM85 30h2v1h-2zM86 31h2v1h-2zM87 32h2v1h-2zM88 33h2v1h-2zM89 34h2v1h-2zM90 35h2v1h-2zM91 36h2v1h-2zM92 37h2v1h-2zM93 38h2v1h-2zM94 39h2v1h-2zM95 40h2v1h-2zM96 41h2v1h-2zM97 42h2v1h-2zM98 43h2v1h-2zM99 44h1v1h-1z" /><path fill="#b629eb" d="M26 23h1v1h-1zM28 24h1v1h-1zM30 25h1v1h-1zM32 26h1v1h-1zM34 27h1v1h-1zM35 28h2v1h-2zM37 29h1v1h-1zM39 30h1v1h-1zM41 31h1v1h-1zM43 32h1v1h-1z" /><path fill="#b629ea" d="M27 23h1v1h-1zM29 24h1v1h-1zM31 25h1v1h-1zM33 26h1v1h-1zM35 27h1v1h-1zM38 29h1v1h-1zM40 30h1v1h-1zM42 31h1v1h-1zM44 32h1v1h-1z" /><path fill="#8226d4" d="M52 23h1v1h-1z" /><path fill="#8326d3" d="M53 23h1v1h-1zM54 24h1v1h-1zM55 25h1v1h-1zM56 26h1v1h-1zM57 27h1v1h-1zM58 28h1v1h-1zM59 29h1v1h-1zM60 30h1v1h-1zM61 31h1v1h-1zM62 32h1v1h-1zM63 33h1v1h-1zM64 34h1v1h-1zM65 35h1v1h-1zM66 36h1v1h-1zM67 37h1v1h-1zM68 38h1v1h-1zM69 39h1v1h-1zM70 40h1v1h-1z" /><path fill="#b728ea" d="M25 24h1v1h-1z" /><path fill="#b729eb" d="M26 24h2v1h-2zM28 25h2v1h-2zM30 26h2v1h-2zM32 27h2v1h-2zM34 28h1v1h-1zM36 29h1v1h-1zM37 30h2v1h-2zM39 31h2v1h-2zM41 32h2v1h-2zM43 33h2v1h-2z" /><path fill="#b02ce9" d="M48 24h1v1h-1z" /><path fill="#8426d4" d="M52 24h1v1h-1zM53 25h1v1h-1zM54 26h1v1h-1zM55 27h1v1h-1zM56 28h1v1h-1zM57 29h1v1h-1zM58 30h1v1h-1zM59 31h1v1h-1zM60 32h1v1h-1zM61 33h1v1h-1zM62 34h1v1h-1zM63 35h1v1h-1zM64 36h1v1h-1zM65 37h1v1h-1zM66 38h1v1h-1zM67 39h1v1h-1zM68 40h1v1h-1zM69 41h1v1h-1z" /><path fill="#8326d4" d="M53 24h1v1h-1zM54 25h1v1h-1zM55 26h1v1h-1zM56 27h1v1h-1zM57 28h1v1h-1zM58 29h1v1h-1zM59 30h1v1h-1zM60 31h1v1h-1zM61 32h1v1h-1zM62 33h1v1h-1zM63 34h1v1h-1zM64 35h1v1h-1zM65 36h1v1h-1zM66 37h1v1h-1zM67 38h1v1h-1zM68 39h1v1h-1zM69 40h1v1h-1zM70 41h1v1h-1z" /><path fill="#7002cd" d="M78 24h1v1h-1zM78 25h2v1h-2zM78 26h3v1h-3zM79 27h3v1h-3zM80 28h3v1h-3zM81 29h3v1h-3zM82 30h3v1h-3zM83 31h3v1h-3zM84 32h3v1h-3zM85 33h3v1h-3zM86 34h3v1h-3zM87 35h3v1h-3zM88 36h3v1h-3zM89 37h3v1h-3zM90 38h3v1h-3zM91 39h3v1h-3zM92 40h3v1h-3zM93 41h3v1h-3zM94 42h3v1h-3zM95 43h3v1h-3zM96 44h3v1h-3zM97 45h3v1h-3zM98 46h2v1h-2zM99 47h1v1h-1z" /><path fill="#b828eb" d="M25 25h2v1h-2zM27 26h2v1h-2zM29 27h2v1h-2zM31 28h2v1h-2zM33 29h2v1h-2zM34 30h3v1h-3zM36 31h3v1h-3zM38 32h2v1h-2zM40 33h2v1h-2zM42 34h2v1h-2z" /><path fill="#b728eb" d="M27 25h1v1h-1zM29 26h1v1h-1zM31 27h1v1h-1zM33 28h1v1h-1zM35 29h1v1h-1zM40 32h1v1h-1zM42 33h1v1h-1z" /><path fill="#8526d5" d="M52 25h1v1h-1zM53 26h1v1h-1zM54 27h1v1h-1zM55 28h1v1h-1zM56 29h1v1h-1zM57 30h1v1h-1zM58 31h1v1h-1zM59 32h1v1h-1zM60 33h1v1h-1zM61 34h1v1h-1zM62 35h1v1h-1zM63 36h1v1h-1zM64 37h1v1h-1zM65 38h1v1h-1zM66 39h1v1h-1zM67 40h1v1h-1zM68 41h1v1h-1zM69 42h1v1h-1z" /><path fill="#b926ea" d="M24 26h1v1h-1z" /><path fill="#b927eb" d="M25 26h1v1h-1zM27 27h1v1h-1zM28 28h2v1h-2zM30 29h2v1h-2zM32 30h2v1h-2zM34 31h2v1h-2zM36 32h1v1h-1zM38 33h1v1h-1zM40 34h1v1h-1zM41 35h2v1h-2z" /><path fill="#b928eb" d="M26 26h1v1h-1zM28 27h1v1h-1zM30 28h1v1h-1zM32 29h1v1h-1zM37 32h1v1h-1zM39 33h1v1h-1zM41 34h1v1h-1zM43 35h1v1h-1z" /><path fill="#8626d5" d="M52 26h1v1h-1zM51 27h1v1h-1zM53 27h1v1h-1zM54 28h1v1h-1zM55 29h1v1h-1zM56 30h1v1h-1zM57 31h1v1h-1zM58 32h1v1h-1zM59 33h1v1h-1zM60 34h1v1h-1zM61 35h1v1h-1zM62 36h1v1h-1zM63 37h1v1h-1zM64 38h1v1h-1zM65 39h1v1h-1zM66 40h1v1h-1zM67 41h1v1h-1zM68 42h1v1h-1zM69 43h1v1h-1z" /><path fill="#ba27ec" d="M24 27h1v1h-1zM26 28h1v1h-1zM28 29h1v1h-1zM30 30h1v1h-1zM32 31h1v1h-1zM34 32h1v1h-1zM36 33h1v1h-1zM37 34h1v1h-1zM39 35h1v1h-1zM41 36h1v1h-1z" /><path fill="#ba27eb" d="M25 27h2v1h-2zM27 28h1v1h-1zM29 29h1v1h-1zM31 30h1v1h-1zM33 31h1v1h-1zM35 32h1v1h-1zM37 33h1v1h-1zM38 34h2v1h-2zM40 35h1v1h-1zM42 36h1v1h-1z" /><path fill="#8726d5" d="M52 27h1v1h-1zM53 28h1v1h-1zM54 29h1v1h-1zM55 30h1v1h-1zM56 31h1v1h-1zM57 32h1v1h-1zM58 33h1v1h-1zM59 34h1v1h-1zM60 35h1v1h-1zM61 36h1v1h-1zM62 37h1v1h-1zM63 38h1v1h-1zM64 39h1v1h-1zM65 40h1v1h-1zM66 41h1v1h-1zM67 42h1v1h-1zM68 43h1v1h-1zM69 44h1v1h-1z" /><path fill="#7424cd" d="M73 27h1v1h-1z" /><path fill="#7103ce" d="M78 27h1v1h-1zM78 28h2v1h-2zM79 29h2v1h-2zM80 30h2v1h-2zM81 31h2v1h-2zM82 32h2v1h-2zM83 33h2v1h-2zM84 34h2v1h-2zM85 35h2v1h-2zM86 36h2v1h-2zM87 37h2v1h-2zM88 38h2v1h-2zM89 39h2v1h-2zM90 40h2v1h-2zM91 41h2v1h-2zM92 42h2v1h-2zM93 43h2v1h-2zM94 44h2v1h-2zM95 45h2v1h-2zM96 46h2v1h-2zM97 47h2v1h-2zM98 48h2v1h-2zM99 49h1v1h-1z" /><path fill="#bc26ec" d="M23 28h1v1h-1zM25 29h1v1h-1zM26 30h2v1h-2zM28 31h1v1h-1zM30 32h1v1h-1zM32 33h1v1h-1zM34 34h1v1h-1zM36 35h1v1h-1zM38 36h1v1h-1zM39 37h2v1h-2zM41 38h1v1h-1z" /><path fill="#bb26ec" d="M24 28h2v1h-2zM26 29h2v1h-2zM28 30h2v1h-2zM29 31h3v1h-3zM31 32h3v1h-3zM33 33h2v1h-2zM35 34h2v1h-2zM37 35h2v1h-2zM39 36h2v1h-2zM41 37h2v1h-2z" /><path fill="#b62aea" d="M37 28h1v1h-1zM39 29h1v1h-1z" /><path fill="#b12be8" d="M47 28h1v1h-1z" /><path fill="#8825d5" d="M51 28h1v1h-1z" /><path fill="#8726d6" d="M52 28h1v1h-1zM53 29h1v1h-1zM54 30h1v1h-1zM55 31h1v1h-1zM56 32h1v1h-1zM57 33h1v1h-1zM58 34h1v1h-1zM59 35h1v1h-1zM60 36h1v1h-1zM61 37h1v1h-1zM62 38h1v1h-1zM63 39h1v1h-1zM64 40h1v1h-1zM65 41h1v1h-1zM66 42h1v1h-1zM67 43h1v1h-1zM68 44h1v1h-1zM69 45h1v1h-1z" /><path fill="#7524cc" d="M73 28h1v1h-1z" /><path fill="#bc25ec" d="M23 29h2v1h-2zM25 30h1v1h-1zM27 31h1v1h-1zM29 32h1v1h-1zM31 33h1v1h-1zM33 34h1v1h-1zM34 35h2v1h-2zM36 36h2v1h-2zM38 37h1v1h-1zM40 38h1v1h-1zM42 39h1v1h-1z" /><path fill="#8826d5" d="M51 29h1v1h-1zM69 47h1v1h-1z" /><path fill="#8826d6" d="M52 29h1v1h-1zM53 30h1v1h-1zM54 31h1v1h-1zM55 32h1v1h-1zM56 33h1v1h-1zM57 34h1v1h-1zM58 35h1v1h-1zM59 36h1v1h-1zM60 37h1v1h-1zM61 38h1v1h-1zM62 39h1v1h-1zM63 40h1v1h-1zM64 41h1v1h-1zM65 42h1v1h-1zM66 43h1v1h-1zM67 44h1v1h-1zM68 45h1v1h-1zM69 46h1v1h-1z" /><path fill="#7524ce" d="M73 29h1v1h-1z" /><path fill="#7203ce" d="M78 29h1v1h-1zM78 30h2v1h-2zM79 31h2v1h-2zM80 32h2v1h-2zM81 33h2v1h-2zM82 34h2v1h-2zM83 35h2v1h-2zM84 36h2v1h-2zM85 37h2v1h-2zM86 38h2v1h-2zM87 39h2v1h-2zM88 40h2v1h-2zM89 41h2v1h-2zM90 42h2v1h-2zM91 43h2v1h-2zM92 44h2v1h-2zM93 45h2v1h-2zM94 46h2v1h-2zM95 47h2v1h-2zM96 48h2v1h-2zM97 49h2v1h-2zM98 50h2v1h-2zM99 51h1v1h-1z" /><path fill="#bd23ec" d="M22 30h1v1h-1z" /><path fill="#bd25ec" d="M23 30h2v1h-2zM25 31h2v1h-2zM27 32h2v1h-2zM28 33h3v1h-3zM30 34h3v1h-3zM32 35h2v1h-2zM34 36h2v1h-2zM36 37h2v1h-2zM38 38h2v1h-2zM40 39h2v1h-2zM41 40h1v1h-1z" /><path fill="#b22ae9" d="M46 30h1v1h-1z" /><path fill="#8a27d7" d="M51 30h1v1h-1zM51 31h2v1h-2zM52 32h2v1h-2zM53 33h2v1h-2zM54 34h2v1h-2zM55 35h2v1h-2zM56 36h2v1h-2zM57 37h2v1h-2zM58 38h2v1h-2zM59 39h2v1h-2zM60 40h2v1h-2zM61 41h2v1h-2zM62 42h2v1h-2zM63 43h2v1h-2zM64 44h2v1h-2zM65 45h2v1h-2zM66 46h2v1h-2zM67 47h2v1h-2zM68 48h1v1h-1z" /><path fill="#8926d6" d="M52 30h1v1h-1zM53 31h1v1h-1zM54 32h1v1h-1zM55 33h1v1h-1zM56 34h1v1h-1zM57 35h1v1h-1zM58 36h1v1h-1zM59 37h1v1h-1zM60 38h1v1h-1zM61 39h1v1h-1zM62 40h1v1h-1zM63 41h1v1h-1zM64 42h1v1h-1zM65 43h1v1h-1zM66 44h1v1h-1zM67 45h1v1h-1zM68 46h1v1h-1z" /><path fill="#be24ed" d="M22 31h2v1h-2zM24 32h1v1h-1zM26 33h1v1h-1zM28 34h1v1h-1zM30 35h1v1h-1zM32 36h1v1h-1zM34 37h1v1h-1zM35 38h2v1h-2zM37 39h1v1h-1zM39 40h1v1h-1zM41 41h1v1h-1z" /><path fill="#be24ec" d="M24 31h1v1h-1zM25 32h1v1h-1zM27 33h1v1h-1zM29 34h1v1h-1zM31 35h1v1h-1zM33 36h1v1h-1zM35 37h1v1h-1zM37 38h1v1h-1zM38 39h1v1h-1zM40 40h1v1h-1z" /><path fill="#b429e9" d="M46 31h1v1h-1zM45 32h1v1h-1z" /><path fill="#7304ce" d="M78 31h1v1h-1zM79 32h1v1h-1zM80 33h1v1h-1zM81 34h1v1h-1zM82 35h1v1h-1zM83 36h1v1h-1zM84 37h1v1h-1zM85 38h1v1h-1zM86 39h1v1h-1zM87 40h1v1h-1zM88 41h1v1h-1zM89 42h1v1h-1zM90 43h1v1h-1zM91 44h1v1h-1zM92 45h1v1h-1zM93 46h1v1h-1zM94 47h1v1h-1zM95 48h1v1h-1zM96 49h1v1h-1zM97 50h1v1h-1zM98 51h1v1h-1zM99 52h1v1h-1z" /><path fill="#bf22ec" d="M21 32h1v1h-1z" /><path fill="#bf23ed" d="M22 32h1v1h-1zM24 33h1v1h-1zM29 36h1v1h-1zM31 37h1v1h-1zM33 38h1v1h-1zM35 39h1v1h-1zM37 40h1v1h-1z" /><path fill="#bf24ed" d="M23 32h1v1h-1zM25 33h1v1h-1zM26 34h2v1h-2zM28 35h2v1h-2zM30 36h2v1h-2zM32 37h2v1h-2zM34 38h1v1h-1zM36 39h1v1h-1zM38 40h1v1h-1zM39 41h2v1h-2z" /><path fill="#be25ec" d="M26 32h1v1h-1zM39 39h1v1h-1z" /><path fill="#8c27d7" d="M50 32h1v1h-1zM50 33h1v1h-1zM50 34h1v1h-1z" /><path fill="#8b27d7" d="M51 32h1v1h-1zM52 33h1v1h-1zM53 34h1v1h-1zM54 35h1v1h-1zM55 36h1v1h-1zM56 37h1v1h-1zM57 38h1v1h-1zM58 39h1v1h-1zM59 40h1v1h-1zM60 41h1v1h-1zM61 42h1v1h-1zM62 43h1v1h-1zM63 44h1v1h-1zM64 45h1v1h-1zM65 46h1v1h-1zM66 47h1v1h-1zM67 48h1v1h-1zM68 49h1v1h-1z" /><path fill="#7304cf" d="M78 32h1v1h-1zM78 33h2v1h-2zM79 34h2v1h-2zM80 35h2v1h-2zM81 36h2v1h-2zM82 37h2v1h-2zM83 38h2v1h-2zM84 39h2v1h-2zM85 40h2v1h-2zM86 41h2v1h-2zM87 42h2v1h-2zM88 43h2v1h-2zM89 44h2v1h-2zM90 45h2v1h-2zM91 46h2v1h-2zM92 47h2v1h-2zM93 48h2v1h-2zM94 49h2v1h-2zM95 50h2v1h-2zM96 51h2v1h-2zM97 52h2v1h-2zM98 53h2v1h-2zM99 54h1v1h-1z" /><path fill="#c123ed" d="M21 33h1v1h-1zM23 34h1v1h-1zM25 35h1v1h-1zM30 38h1v1h-1zM32 39h1v1h-1zM34 40h1v1h-1zM36 41h1v1h-1zM38 42h1v1h-1z" /><path fill="#c023ed" d="M22 33h2v1h-2zM24 34h2v1h-2zM26 35h2v1h-2zM27 36h2v1h-2zM29 37h2v1h-2zM31 38h2v1h-2zM33 39h2v1h-2zM35 40h2v1h-2zM37 41h2v1h-2zM39 42h1v1h-1z" /><path fill="#ba26ec" d="M35 33h1v1h-1z" /><path fill="#b528ea" d="M45 33h1v1h-1z" /><path fill="#8c27d8" d="M51 33h1v1h-1zM51 34h2v1h-2zM52 35h2v1h-2zM53 36h2v1h-2zM54 37h2v1h-2zM55 38h2v1h-2zM56 39h2v1h-2zM57 40h2v1h-2zM58 41h2v1h-2zM59 42h2v1h-2zM60 43h2v1h-2zM61 44h2v1h-2zM62 45h2v1h-2zM63 46h2v1h-2zM64 47h2v1h-2zM65 48h2v1h-2zM66 49h2v1h-2zM67 50h2v1h-2zM68 51h1v1h-1z" /><path fill="#7b24d0" d="M72 33h1v1h-1z" /><path fill="#c222ed" d="M20 34h1v1h-1zM23 35h1v1h-1zM25 36h1v1h-1zM36 42h1v1h-1zM38 43h1v1h-1z" /><path fill="#c222ee" d="M21 34h1v1h-1zM22 35h1v1h-1zM24 36h1v1h-1zM26 37h1v1h-1zM28 38h1v1h-1zM29 39h2v1h-2zM31 40h2v1h-2zM33 41h2v1h-2zM35 42h1v1h-1zM37 43h1v1h-1zM39 44h1v1h-1z" /><path fill="#c122ed" d="M22 34h1v1h-1zM24 35h1v1h-1zM26 36h1v1h-1zM27 37h2v1h-2zM29 38h1v1h-1zM31 39h1v1h-1zM33 40h1v1h-1zM35 41h1v1h-1zM37 42h1v1h-1zM39 43h1v1h-1z" /><path fill="#b627ea" d="M44 34h1v1h-1z" /><path fill="#7c25cf" d="M72 34h1v1h-1z" /><path fill="#7405cf" d="M78 34h1v1h-1zM78 35h2v1h-2zM79 36h2v1h-2zM80 37h2v1h-2zM81 38h2v1h-2zM82 39h2v1h-2zM83 40h2v1h-2zM84 41h2v1h-2zM85 42h2v1h-2zM86 43h2v1h-2zM87 44h2v1h-2zM88 45h2v1h-2zM89 46h2v1h-2zM90 47h2v1h-2zM91 48h2v1h-2zM92 49h2v1h-2zM93 50h2v1h-2zM94 51h2v1h-2zM95 52h2v1h-2zM96 53h2v1h-2zM97 54h2v1h-2zM98 55h2v1h-2zM99 56h1v1h-1z" /><path fill="#c321ee" d="M20 35h2v1h-2zM22 36h2v1h-2zM24 37h1v1h-1zM26 38h1v1h-1zM28 39h1v1h-1zM30 40h1v1h-1zM31 41h2v1h-2zM33 42h2v1h-2zM35 43h2v1h-2zM37 44h1v1h-1z" /><path fill="#b828ea" d="M44 35h1v1h-1z" /><path fill="#8e27d9" d="M50 35h1v1h-1zM51 36h1v1h-1zM52 37h1v1h-1zM53 38h1v1h-1zM54 39h1v1h-1zM55 40h1v1h-1zM56 41h1v1h-1zM57 42h1v1h-1zM58 43h1v1h-1zM59 44h1v1h-1zM60 45h1v1h-1zM61 46h1v1h-1zM62 47h1v1h-1zM63 48h1v1h-1zM64 49h1v1h-1zM65 50h1v1h-1zM66 51h1v1h-1zM67 52h1v1h-1zM68 53h1v1h-1z" /><path fill="#8d27d8" d="M51 35h1v1h-1zM52 36h1v1h-1zM53 37h1v1h-1zM54 38h1v1h-1zM55 39h1v1h-1zM56 40h1v1h-1zM57 41h1v1h-1zM58 42h1v1h-1zM59 43h1v1h-1zM60 44h1v1h-1zM61 45h1v1h-1zM62 46h1v1h-1zM63 47h1v1h-1zM64 48h1v1h-1zM65 49h1v1h-1zM66 50h1v1h-1zM67 51h1v1h-1z" /><path fill="#c51fed" d="M19 36h1v1h-1z" /><path fill="#c421ee" d="M20 36h2v1h-2zM22 37h2v1h-2zM24 38h2v1h-2zM26 39h2v1h-2zM28 40h2v1h-2zM30 41h1v1h-1zM32 42h1v1h-1zM33 43h2v1h-2zM35 44h2v1h-2zM37 45h2v1h-2z" /><path fill="#b826ea" d="M43 36h1v1h-1z" /><path fill="#8f27d9" d="M50 36h1v1h-1zM51 37h1v1h-1zM52 38h1v1h-1zM53 39h1v1h-1zM54 40h1v1h-1zM55 41h1v1h-1zM56 42h1v1h-1zM57 43h1v1h-1zM58 44h1v1h-1zM59 45h1v1h-1zM60 46h1v1h-1zM61 47h1v1h-1zM62 48h1v1h-1zM63 49h1v1h-1zM64 50h1v1h-1zM65 51h1v1h-1zM66 52h1v1h-1zM67 53h1v1h-1z" /><path fill="#7505cf" d="M78 36h1v1h-1zM79 37h1v1h-1zM80 38h1v1h-1zM81 39h1v1h-1zM82 40h1v1h-1zM83 41h1v1h-1zM84 42h1v1h-1zM85 43h1v1h-1zM86 44h1v1h-1zM87 45h1v1h-1zM88 46h1v1h-1zM89 47h1v1h-1zM90 48h1v1h-1zM91 49h1v1h-1zM92 50h1v1h-1zM93 51h1v1h-1zM94 52h1v1h-1zM95 53h1v1h-1zM96 54h1v1h-1zM97 55h1v1h-1zM98 56h1v1h-1zM99 57h1v1h-1z" /><path fill="#c620ef" d="M19 37h1v1h-1zM21 38h1v1h-1zM23 39h1v1h-1zM25 40h1v1h-1zM27 41h1v1h-1zM28 42h2v1h-2zM30 43h2v1h-2zM32 44h1v1h-1zM34 45h1v1h-1zM36 46h1v1h-1z" /><path fill="#c520ef" d="M20 37h1v1h-1zM22 38h1v1h-1zM24 39h1v1h-1zM26 40h1v1h-1zM28 41h1v1h-1zM33 44h1v1h-1zM35 45h1v1h-1zM37 46h1v1h-1z" /><path fill="#c520ee" d="M21 37h1v1h-1zM23 38h1v1h-1zM25 39h1v1h-1zM27 40h1v1h-1zM29 41h1v1h-1zM30 42h1v1h-1zM32 43h1v1h-1zM34 44h1v1h-1zM36 45h1v1h-1zM38 46h1v1h-1zM38 47h1v1h-1z" /><path fill="#c322ee" d="M25 37h1v1h-1zM27 38h1v1h-1zM38 44h1v1h-1z" /><path fill="#b927ec" d="M43 37h1v1h-1z" /><path fill="#9027da" d="M49 37h1v1h-1z" /><path fill="#8f28d9" d="M50 37h1v1h-1zM51 38h1v1h-1zM52 39h1v1h-1zM53 40h1v1h-1zM54 41h1v1h-1zM55 42h1v1h-1zM56 43h1v1h-1zM57 44h1v1h-1zM58 45h1v1h-1zM59 46h1v1h-1zM60 47h1v1h-1zM61 48h1v1h-1zM62 49h1v1h-1zM63 50h1v1h-1zM64 51h1v1h-1zM65 52h1v1h-1zM66 53h1v1h-1zM67 54h1v1h-1z" /><path fill="#7e24d1" d="M71 37h1v1h-1z" /><path fill="#7505d0" d="M78 37h1v1h-1zM79 38h1v1h-1zM80 39h1v1h-1zM81 40h1v1h-1zM82 41h1v1h-1zM83 42h1v1h-1zM84 43h1v1h-1zM85 44h1v1h-1zM86 45h1v1h-1zM87 46h1v1h-1zM88 47h1v1h-1zM89 48h1v1h-1zM90 49h1v1h-1zM91 50h1v1h-1zM92 51h1v1h-1zM93 52h1v1h-1zM94 53h1v1h-1zM95 54h1v1h-1zM96 55h1v1h-1zM97 56h1v1h-1zM98 57h1v1h-1zM99 58h1v1h-1z" /><path fill="#c81fef" d="M18 38h1v1h-1zM20 39h1v1h-1zM22 40h1v1h-1zM23 41h1v1h-1zM25 42h1v1h-1zM27 43h1v1h-1zM29 44h1v1h-1zM31 45h1v1h-1zM33 46h1v1h-1zM35 47h1v1h-1zM36 48h1v1h-1z" /><path fill="#c71fef" d="M19 38h2v1h-2zM21 39h1v1h-1zM23 40h1v1h-1zM24 41h2v1h-2zM26 42h2v1h-2zM28 43h2v1h-2zM30 44h2v1h-2zM32 45h2v1h-2zM34 46h1v1h-1zM36 47h1v1h-1z" /><path fill="#bb25eb" d="M42 38h1v1h-1z" /><path fill="#9128da" d="M49 38h1v1h-1zM50 39h1v1h-1zM50 40h2v1h-2zM51 41h2v1h-2zM52 42h2v1h-2zM53 43h2v1h-2zM54 44h2v1h-2zM55 45h2v1h-2zM56 46h2v1h-2zM57 47h2v1h-2zM58 48h2v1h-2zM59 49h2v1h-2zM60 50h2v1h-2zM61 51h2v1h-2zM62 52h2v1h-2zM63 53h2v1h-2zM64 54h2v1h-2zM65 55h2v1h-2zM66 56h2v1h-2z" /><path fill="#9028da" d="M50 38h1v1h-1zM51 39h1v1h-1zM52 40h1v1h-1zM53 41h1v1h-1zM54 42h1v1h-1zM55 43h1v1h-1zM56 44h1v1h-1zM57 45h1v1h-1zM58 46h1v1h-1zM59 47h1v1h-1zM60 48h1v1h-1zM61 49h1v1h-1zM62 50h1v1h-1zM63 51h1v1h-1zM64 52h1v1h-1zM65 53h1v1h-1zM66 54h1v1h-1zM67 55h1v1h-1z" /><path fill="#7606d0" d="M78 38h1v1h-1zM78 39h2v1h-2zM78 40h3v1h-3zM79 41h3v1h-3zM80 42h3v1h-3zM81 43h3v1h-3zM82 44h3v1h-3zM83 45h3v1h-3zM84 46h3v1h-3zM85 47h3v1h-3zM86 48h3v1h-3zM87 49h3v1h-3zM88 50h3v1h-3zM89 51h3v1h-3zM90 52h3v1h-3zM91 53h3v1h-3zM92 54h3v1h-3zM93 55h3v1h-3zM94 56h3v1h-3zM95 57h3v1h-3zM96 58h3v1h-3zM97 59h3v1h-3zM98 60h2v1h-2zM99 61h1v1h-1z" /><path fill="#c91ef0" d="M18 39h1v1h-1zM19 40h2v1h-2zM21 41h2v1h-2zM23 42h1v1h-1zM25 43h1v1h-1zM26 44h2v1h-2zM28 45h2v1h-2zM30 46h2v1h-2zM32 47h2v1h-2zM34 48h2v1h-2zM36 49h1v1h-1z" /><path fill="#c81eef" d="M19 39h1v1h-1zM21 40h1v1h-1zM24 42h1v1h-1zM26 43h1v1h-1zM28 44h1v1h-1zM30 45h1v1h-1zM32 46h1v1h-1zM34 47h1v1h-1z" /><path fill="#c61fef" d="M22 39h1v1h-1zM24 40h1v1h-1zM26 41h1v1h-1zM35 46h1v1h-1zM37 47h1v1h-1z" /><path fill="#9128d9" d="M49 39h1v1h-1z" /><path fill="#8124d2" d="M71 39h1v1h-1z" /><path fill="#c91def" d="M17 40h1v1h-1z" /><path fill="#ca1ef0" d="M18 40h1v1h-1zM20 41h1v1h-1zM22 42h1v1h-1zM24 43h1v1h-1zM31 47h1v1h-1zM33 48h1v1h-1zM35 49h1v1h-1z" /><path fill="#9228db" d="M49 40h1v1h-1zM50 41h1v1h-1zM51 42h1v1h-1zM52 43h1v1h-1zM53 44h1v1h-1zM54 45h1v1h-1zM55 46h1v1h-1zM56 47h1v1h-1zM57 48h1v1h-1zM58 49h1v1h-1zM59 50h1v1h-1zM60 51h1v1h-1zM61 52h1v1h-1zM62 53h1v1h-1zM63 54h1v1h-1zM64 55h1v1h-1zM65 56h1v1h-1zM66 57h1v1h-1z" /><path fill="#cb1df0" d="M17 41h2v1h-2zM19 42h2v1h-2zM21 43h2v1h-2zM23 44h2v1h-2zM25 45h2v1h-2zM27 46h1v1h-1zM28 47h2v1h-2zM30 48h2v1h-2zM32 49h2v1h-2zM34 50h2v1h-2z" /><path fill="#ca1df0" d="M19 41h1v1h-1zM21 42h1v1h-1zM23 43h1v1h-1zM25 44h1v1h-1zM27 45h1v1h-1zM28 46h2v1h-2zM30 47h1v1h-1zM32 48h1v1h-1zM34 49h1v1h-1z" /><path fill="#9328db" d="M49 41h1v1h-1zM50 42h1v1h-1zM51 43h1v1h-1zM52 44h1v1h-1zM53 45h1v1h-1zM54 46h1v1h-1zM55 47h1v1h-1zM56 48h1v1h-1zM57 49h1v1h-1zM58 50h1v1h-1zM59 51h1v1h-1zM60 52h1v1h-1zM61 53h1v1h-1zM62 54h1v1h-1zM63 55h1v1h-1zM64 56h1v1h-1zM65 57h1v1h-1zM66 58h1v1h-1z" /><path fill="#7707d0" d="M78 41h1v1h-1zM78 42h2v1h-2zM79 43h2v1h-2zM80 44h2v1h-2zM81 45h2v1h-2zM82 46h2v1h-2zM83 47h2v1h-2zM84 48h2v1h-2zM85 49h2v1h-2zM86 50h2v1h-2zM87 51h2v1h-2zM88 52h2v1h-2zM89 53h2v1h-2zM90 54h2v1h-2zM91 55h2v1h-2zM92 56h2v1h-2zM93 57h2v1h-2zM94 58h2v1h-2zM95 59h2v1h-2zM96 60h2v1h-2zM97 61h2v1h-2zM98 62h2v1h-2zM99 63h1v1h-1z" /><path fill="#cd1cf0" d="M16 42h1v1h-1z" /><path fill="#cc1cf1" d="M17 42h1v1h-1zM19 43h1v1h-1zM21 44h1v1h-1zM23 45h1v1h-1zM25 46h1v1h-1zM27 47h1v1h-1zM29 48h1v1h-1zM30 49h1v1h-1zM32 50h1v1h-1zM34 51h1v1h-1z" /><path fill="#cc1cf0" d="M18 42h1v1h-1zM20 43h1v1h-1zM22 44h1v1h-1zM24 45h1v1h-1zM31 49h1v1h-1zM33 50h1v1h-1zM35 51h1v1h-1z" /><path fill="#c420ee" d="M31 42h1v1h-1z" /><path fill="#c022ec" d="M40 42h1v1h-1z" /><path fill="#9327dc" d="M48 42h1v1h-1z" /><path fill="#9428db" d="M49 42h1v1h-1zM50 43h1v1h-1zM51 44h1v1h-1zM52 45h1v1h-1zM53 46h1v1h-1zM54 47h1v1h-1zM55 48h1v1h-1zM56 49h1v1h-1zM57 50h1v1h-1zM58 51h1v1h-1zM59 52h1v1h-1zM60 53h1v1h-1zM61 54h1v1h-1zM62 55h1v1h-1zM63 56h1v1h-1zM64 57h1v1h-1zM65 58h1v1h-1zM66 59h1v1h-1z" /><path fill="#8425d4" d="M70 42h1v1h-1z" /><path fill="#ce1bf1" d="M16 43h2v1h-2zM18 44h1v1h-1zM20 45h1v1h-1zM21 46h2v1h-2zM23 47h2v1h-2zM25 48h2v1h-2zM27 49h2v1h-2zM29 50h2v1h-2zM31 51h1v1h-1zM33 52h1v1h-1zM34 53h1v1h-1z" /><path fill="#cd1cf1" d="M18 43h1v1h-1zM20 44h1v1h-1zM21 45h2v1h-2zM23 46h2v1h-2zM25 47h2v1h-2zM27 48h2v1h-2zM29 49h1v1h-1zM31 50h1v1h-1zM33 51h1v1h-1zM34 52h1v1h-1z" /><path fill="#c022ed" d="M40 43h1v1h-1z" /><path fill="#9428dc" d="M48 43h2v1h-2zM50 44h1v1h-1zM51 45h1v1h-1zM52 46h1v1h-1zM53 47h1v1h-1zM54 48h1v1h-1zM55 49h1v1h-1zM56 50h1v1h-1zM57 51h1v1h-1zM58 52h1v1h-1zM59 53h1v1h-1zM60 54h1v1h-1zM61 55h1v1h-1zM62 56h1v1h-1zM63 57h1v1h-1zM64 58h1v1h-1zM65 59h1v1h-1zM66 60h1v1h-1z" /><path fill="#8426d5" d="M70 43h1v1h-1z" /><path fill="#7807d1" d="M78 43h1v1h-1zM79 44h1v1h-1zM80 45h1v1h-1zM81 46h1v1h-1zM82 47h1v1h-1zM83 48h1v1h-1zM84 49h1v1h-1zM85 50h1v1h-1zM86 51h1v1h-1zM87 52h1v1h-1zM88 53h1v1h-1zM89 54h1v1h-1zM90 55h1v1h-1zM91 56h1v1h-1zM92 57h1v1h-1zM93 58h1v1h-1zM94 59h1v1h-1zM95 60h1v1h-1zM96 61h1v1h-1zM97 62h1v1h-1zM98 63h1v1h-1zM99 64h1v1h-1z" /><path fill="#d019f2" d="M15 44h1v1h-1zM34 55h1v1h-1z" /><path fill="#cf1bf1" d="M16 44h2v1h-2zM18 45h2v1h-2zM20 46h1v1h-1zM22 47h1v1h-1zM24 48h1v1h-1zM26 49h1v1h-1zM28 50h1v1h-1zM29 51h2v1h-2zM31 52h2v1h-2zM33 53h1v1h-1z" /><path fill="#cd1bf1" d="M19 44h1v1h-1zM32 51h1v1h-1z" /><path fill="#9529db" d="M48 44h1v1h-1zM66 62h1v1h-1z" /><path fill="#9529dc" d="M49 44h1v1h-1zM50 45h1v1h-1zM51 46h1v1h-1zM52 47h1v1h-1zM53 48h1v1h-1zM54 49h1v1h-1zM55 50h1v1h-1zM56 51h1v1h-1zM57 52h1v1h-1zM58 53h1v1h-1zM59 54h1v1h-1zM60 55h1v1h-1zM61 56h1v1h-1zM62 57h1v1h-1zM63 58h1v1h-1zM64 59h1v1h-1zM65 60h1v1h-1zM66 61h1v1h-1z" /><path fill="#8625d4" d="M70 44h1v1h-1z" /><path fill="#7808d1" d="M78 44h1v1h-1zM79 45h1v1h-1zM80 46h1v1h-1zM81 47h1v1h-1zM82 48h1v1h-1zM83 49h1v1h-1zM84 50h1v1h-1zM85 51h1v1h-1zM86 52h1v1h-1zM87 53h1v1h-1zM88 54h1v1h-1zM89 55h1v1h-1zM90 56h1v1h-1zM91 57h1v1h-1zM92 58h1v1h-1zM93 59h1v1h-1zM94 60h1v1h-1zM95 61h1v1h-1zM96 62h1v1h-1zM97 63h1v1h-1zM98 64h1v1h-1zM99 65h1v1h-1z" /><path fill="#d11af2" d="M15 45h1v1h-1zM17 46h1v1h-1zM19 47h1v1h-1zM21 48h1v1h-1zM26 51h1v1h-1zM28 52h1v1h-1zM30 53h1v1h-1zM32 54h1v1h-1z" /><path fill="#d01af2" d="M16 45h2v1h-2zM18 46h2v1h-2zM20 47h1v1h-1zM22 48h1v1h-1zM23 49h2v1h-2zM25 50h2v1h-2zM27 51h2v1h-2zM29 52h2v1h-2zM31 53h2v1h-2zM33 54h1v1h-1z" /><path fill="#c321ed" d="M39 45h1v1h-1z" /><path fill="#9629dd" d="M48 45h1v1h-1zM49 46h1v1h-1zM50 47h1v1h-1zM51 48h1v1h-1zM52 49h1v1h-1zM53 50h1v1h-1zM54 51h1v1h-1zM55 52h1v1h-1zM56 53h1v1h-1zM57 54h1v1h-1zM58 55h1v1h-1zM59 56h1v1h-1zM60 57h1v1h-1zM61 58h1v1h-1zM62 59h1v1h-1zM63 60h1v1h-1zM64 61h1v1h-1zM65 62h1v1h-1zM66 63h1v1h-1z" /><path fill="#9629dc" d="M49 45h1v1h-1zM50 46h1v1h-1zM51 47h1v1h-1zM52 48h1v1h-1zM53 49h1v1h-1zM54 50h1v1h-1zM55 51h1v1h-1zM56 52h1v1h-1zM57 53h1v1h-1zM58 54h1v1h-1zM59 55h1v1h-1zM60 56h1v1h-1zM61 57h1v1h-1zM62 58h1v1h-1zM63 59h1v1h-1zM64 60h1v1h-1zM65 61h1v1h-1z" /><path fill="#7908d1" d="M78 45h1v1h-1zM78 46h2v1h-2zM78 47h3v1h-3zM79 48h3v1h-3zM80 49h3v1h-3zM81 50h3v1h-3zM82 51h3v1h-3zM83 52h3v1h-3zM84 53h3v1h-3zM85 54h3v1h-3zM86 55h3v1h-3zM87 56h3v1h-3zM88 57h3v1h-3zM89 58h3v1h-3zM90 59h3v1h-3zM91 60h3v1h-3zM92 61h3v1h-3zM93 62h3v1h-3zM94 63h3v1h-3zM95 64h3v1h-3zM96 65h3v1h-3zM97 66h3v1h-3zM98 67h2v1h-2zM99 68h1v1h-1z" /><path fill="#d119f2" d="M14 46h1v1h-1zM16 46h1v1h-1zM18 47h1v1h-1zM20 48h1v1h-1zM22 49h1v1h-1zM24 50h1v1h-1zM25 51h1v1h-1zM27 52h1v1h-1zM29 53h1v1h-1zM31 54h1v1h-1zM33 55h1v1h-1z" /><path fill="#d219f2" d="M15 46h1v1h-1zM16 47h2v1h-2zM18 48h2v1h-2zM20 49h2v1h-2zM22 50h2v1h-2zM24 51h1v1h-1zM25 52h2v1h-2zM27 53h2v1h-2zM29 54h2v1h-2zM31 55h2v1h-2zM33 56h1v1h-1z" /><path fill="#cc1df0" d="M26 46h1v1h-1z" /><path fill="#9729dd" d="M48 46h1v1h-1zM49 47h1v1h-1zM50 48h1v1h-1zM51 49h1v1h-1zM52 50h1v1h-1zM53 51h1v1h-1zM54 52h1v1h-1zM55 53h1v1h-1zM56 54h1v1h-1zM57 55h1v1h-1zM58 56h1v1h-1zM59 57h1v1h-1zM60 58h1v1h-1zM61 59h1v1h-1zM62 60h1v1h-1zM63 61h1v1h-1zM64 62h1v1h-1zM65 63h1v1h-1z" /><path fill="#d318f3" d="M14 47h2v1h-2zM16 48h2v1h-2zM18 49h1v1h-1zM20 50h1v1h-1zM22 51h1v1h-1zM24 52h1v1h-1zM26 53h1v1h-1zM27 54h2v1h-2zM29 55h2v1h-2zM31 56h1v1h-1z" /><path fill="#cf1af2" d="M21 47h1v1h-1zM23 48h1v1h-1z" /><path fill="#9829dd" d="M47 47h2v1h-2zM49 48h1v1h-1zM50 49h1v1h-1zM51 50h1v1h-1zM52 51h1v1h-1zM53 52h1v1h-1zM54 53h1v1h-1zM55 54h1v1h-1zM56 55h1v1h-1zM57 56h1v1h-1zM58 57h1v1h-1zM59 58h1v1h-1zM60 59h1v1h-1zM61 60h1v1h-1zM62 61h1v1h-1zM63 62h1v1h-1zM64 63h1v1h-1zM65 64h1v1h-1z" /><path fill="#d516f2" d="M13 48h1v1h-1z" /><path fill="#d517f3" d="M14 48h1v1h-1zM15 49h1v1h-1zM16 50h2v1h-2zM18 51h2v1h-2zM20 52h2v1h-2zM22 53h2v1h-2zM24 54h2v1h-2zM26 55h2v1h-2zM28 56h1v1h-1zM29 57h2v1h-2zM31 58h1v1h-1z" /><path fill="#d418f3" d="M15 48h1v1h-1zM16 49h2v1h-2zM18 50h2v1h-2zM20 51h2v1h-2zM22 52h2v1h-2zM24 53h2v1h-2zM26 54h1v1h-1zM28 55h1v1h-1zM29 56h2v1h-2zM31 57h2v1h-2z" /><path fill="#c71eef" d="M37 48h1v1h-1z" /><path fill="#9829de" d="M47 48h1v1h-1z" /><path fill="#9929de" d="M48 48h1v1h-1zM48 49h2v1h-2zM49 50h2v1h-2zM50 51h2v1h-2zM51 52h2v1h-2zM52 53h2v1h-2zM53 54h2v1h-2zM54 55h2v1h-2zM55 56h2v1h-2zM56 57h2v1h-2zM57 58h2v1h-2zM58 59h2v1h-2zM59 60h2v1h-2zM60 61h2v1h-2zM61 62h2v1h-2zM62 63h2v1h-2zM63 64h2v1h-2zM64 65h2v1h-2zM65 66h1v1h-1z" /><path fill="#8926d7" d="M69 48h1v1h-1z" /><path fill="#7a09d2" d="M78 48h1v1h-1zM78 49h2v1h-2zM79 50h2v1h-2zM80 51h2v1h-2zM81 52h2v1h-2zM82 53h2v1h-2zM83 54h2v1h-2zM84 55h2v1h-2zM85 56h2v1h-2zM86 57h2v1h-2zM87 58h2v1h-2zM88 59h2v1h-2zM89 60h2v1h-2zM90 61h2v1h-2zM91 62h2v1h-2zM92 63h2v1h-2zM93 64h2v1h-2zM94 65h2v1h-2zM95 66h2v1h-2zM96 67h2v1h-2zM97 68h2v1h-2zM98 69h2v1h-2zM99 70h1v1h-1z" /><path fill="#d617f3" d="M13 49h2v1h-2zM15 50h1v1h-1zM17 51h1v1h-1zM19 52h1v1h-1zM21 53h1v1h-1zM23 54h1v1h-1zM25 55h1v1h-1zM26 56h2v1h-2zM28 57h1v1h-1zM30 58h1v1h-1z" /><path fill="#d318f2" d="M19 49h1v1h-1zM32 56h1v1h-1z" /><path fill="#cf1af1" d="M25 49h1v1h-1zM27 50h1v1h-1z" /><path fill="#c71eee" d="M37 49h1v1h-1z" /><path fill="#9a28de" d="M47 49h1v1h-1z" /><path fill="#8927d7" d="M69 49h1v1h-1z" /><path fill="#d816f3" d="M12 50h1v1h-1z" /><path fill="#d716f4" d="M13 50h2v1h-2zM15 51h2v1h-2zM17 52h1v1h-1zM19 53h1v1h-1zM20 54h2v1h-2zM22 55h2v1h-2zM24 56h2v1h-2zM26 57h2v1h-2zM28 58h2v1h-2zM30 59h1v1h-1z" /><path fill="#d319f2" d="M21 50h1v1h-1zM23 51h1v1h-1z" /><path fill="#ca1cef" d="M36 50h1v1h-1z" /><path fill="#9b29df" d="M47 50h1v1h-1zM48 51h1v1h-1zM49 52h1v1h-1zM50 53h1v1h-1zM51 54h1v1h-1zM52 55h1v1h-1zM53 56h1v1h-1zM54 57h1v1h-1zM55 58h1v1h-1zM56 59h1v1h-1zM57 60h1v1h-1zM58 61h1v1h-1zM59 62h1v1h-1zM60 63h1v1h-1zM61 64h1v1h-1zM62 65h1v1h-1zM63 66h1v1h-1zM64 67h1v1h-1z" /><path fill="#9a29de" d="M48 50h1v1h-1zM49 51h1v1h-1zM50 52h1v1h-1zM51 53h1v1h-1zM52 54h1v1h-1zM53 55h1v1h-1zM54 56h1v1h-1zM55 57h1v1h-1zM56 58h1v1h-1zM57 59h1v1h-1zM58 60h1v1h-1zM59 61h1v1h-1zM60 62h1v1h-1zM61 63h1v1h-1zM62 64h1v1h-1zM63 65h1v1h-1zM64 66h1v1h-1zM65 67h1v1h-1z" /><path fill="#7b09d2" d="M78 50h1v1h-1zM79 51h1v1h-1zM80 52h1v1h-1zM81 53h1v1h-1zM82 54h1v1h-1zM83 55h1v1h-1zM84 56h1v1h-1zM85 57h1v1h-1zM86 58h1v1h-1zM87 59h1v1h-1zM88 60h1v1h-1zM89 61h1v1h-1zM90 62h1v1h-1zM91 63h1v1h-1zM92 64h1v1h-1zM93 65h1v1h-1zM94 66h1v1h-1zM95 67h1v1h-1zM96 68h1v1h-1zM97 69h1v1h-1zM98 70h1v1h-1zM99 71h1v1h-1z" /><path fill="#d915f4" d="M12 51h1v1h-1zM13 52h2v1h-2zM15 53h2v1h-2zM17 54h2v1h-2zM19 55h2v1h-2zM21 56h1v1h-1zM22 57h2v1h-2zM24 58h2v1h-2zM26 59h2v1h-2zM28 60h2v1h-2zM30 61h1v1h-1z" /><path fill="#d815f4" d="M13 51h1v1h-1zM15 52h1v1h-1zM17 53h1v1h-1zM22 56h1v1h-1zM24 57h1v1h-1zM26 58h1v1h-1zM28 59h1v1h-1zM30 60h1v1h-1z" /><path fill="#d816f4" d="M14 51h1v1h-1zM16 52h1v1h-1zM18 53h1v1h-1zM19 54h1v1h-1zM21 55h1v1h-1zM23 56h1v1h-1zM25 57h1v1h-1zM27 58h1v1h-1zM29 59h1v1h-1z" /><path fill="#ca1cf0" d="M36 51h1v1h-1z" /><path fill="#9b2adf" d="M47 51h1v1h-1zM48 52h1v1h-1zM49 53h1v1h-1zM50 54h1v1h-1zM51 55h1v1h-1zM52 56h1v1h-1zM53 57h1v1h-1zM54 58h1v1h-1zM55 59h1v1h-1zM56 60h1v1h-1zM57 61h1v1h-1zM58 62h1v1h-1zM59 63h1v1h-1zM60 64h1v1h-1zM61 65h1v1h-1zM62 66h1v1h-1zM63 67h1v1h-1zM64 68h1v1h-1z" /><path fill="#7b0ad2" d="M78 51h1v1h-1zM79 52h1v1h-1zM80 53h1v1h-1zM81 54h1v1h-1zM82 55h1v1h-1zM83 56h1v1h-1zM84 57h1v1h-1zM85 58h1v1h-1zM86 59h1v1h-1zM87 60h1v1h-1zM88 61h1v1h-1zM89 62h1v1h-1zM90 63h1v1h-1zM91 64h1v1h-1zM92 65h1v1h-1zM93 66h1v1h-1zM94 67h1v1h-1zM95 68h1v1h-1zM96 69h1v1h-1zM97 70h1v1h-1zM98 71h1v1h-1zM99 72h1v1h-1z" /><path fill="#da13f5" d="M11 52h1v1h-1zM30 63h1v1h-1z" /><path fill="#da14f5" d="M12 52h1v1h-1zM13 53h1v1h-1zM15 54h1v1h-1zM17 55h1v1h-1zM19 56h1v1h-1zM21 57h1v1h-1zM23 58h1v1h-1zM24 59h2v1h-2zM26 60h1v1h-1zM28 61h1v1h-1z" /><path fill="#d616f4" d="M18 52h1v1h-1zM20 53h1v1h-1zM22 54h1v1h-1zM31 59h1v1h-1z" /><path fill="#cd1bf0" d="M35 52h1v1h-1zM35 53h1v1h-1z" /><path fill="#9c2adf" d="M46 52h2v1h-2zM48 53h1v1h-1zM49 54h1v1h-1zM50 55h1v1h-1zM51 56h1v1h-1zM52 57h1v1h-1zM53 58h1v1h-1zM54 59h1v1h-1zM55 60h1v1h-1zM56 61h1v1h-1zM57 62h1v1h-1zM58 63h1v1h-1zM59 64h1v1h-1zM60 65h1v1h-1zM61 66h1v1h-1zM62 67h1v1h-1zM63 68h1v1h-1zM64 69h1v1h-1z" /><path fill="#8d27d7" d="M68 52h1v1h-1z" /><path fill="#7c0ad2" d="M78 52h1v1h-1zM79 53h1v1h-1zM80 54h1v1h-1zM81 55h1v1h-1zM82 56h1v1h-1zM83 57h1v1h-1zM84 58h1v1h-1zM85 59h1v1h-1zM86 60h1v1h-1zM87 61h1v1h-1zM88 62h1v1h-1zM89 63h1v1h-1zM90 64h1v1h-1zM91 65h1v1h-1zM92 66h1v1h-1zM93 67h1v1h-1zM94 68h1v1h-1zM95 69h1v1h-1zM96 70h1v1h-1zM97 71h1v1h-1zM98 72h1v1h-1zM99 73h1v1h-1z" /><path fill="#dc14f5" d="M11 53h1v1h-1zM22 59h1v1h-1zM24 60h1v1h-1z" /><path fill="#db14f5" d="M12 53h1v1h-1zM13 54h2v1h-2zM15 55h2v1h-2zM17 56h2v1h-2zM19 57h2v1h-2zM21 58h2v1h-2zM23 59h1v1h-1zM25 60h1v1h-1zM26 61h2v1h-2zM28 62h2v1h-2z" /><path fill="#da15f5" d="M14 53h1v1h-1zM16 54h1v1h-1zM18 55h1v1h-1zM27 60h1v1h-1zM29 61h1v1h-1z" /><path fill="#9e2ae0" d="M46 53h1v1h-1zM47 54h1v1h-1zM47 55h2v1h-2zM48 56h2v1h-2zM49 57h2v1h-2zM50 58h2v1h-2zM51 59h2v1h-2zM52 60h2v1h-2zM53 61h2v1h-2zM54 62h2v1h-2zM55 63h2v1h-2zM56 64h2v1h-2zM57 65h2v1h-2zM58 66h2v1h-2zM59 67h2v1h-2zM60 68h2v1h-2zM61 69h2v1h-2zM62 70h2v1h-2zM63 71h2v1h-2zM64 72h1v1h-1zM64 73h1v1h-1z" /><path fill="#9d2ae0" d="M47 53h1v1h-1zM48 54h1v1h-1zM49 55h1v1h-1zM50 56h1v1h-1zM51 57h1v1h-1zM52 58h1v1h-1zM53 59h1v1h-1zM54 60h1v1h-1zM55 61h1v1h-1zM56 62h1v1h-1zM57 63h1v1h-1zM58 64h1v1h-1zM59 65h1v1h-1zM60 66h1v1h-1zM61 67h1v1h-1zM62 68h1v1h-1zM63 69h1v1h-1zM64 70h1v1h-1z" /><path fill="#7c0ad3" d="M78 53h1v1h-1zM78 54h2v1h-2zM79 55h2v1h-2zM80 56h2v1h-2zM81 57h2v1h-2zM82 58h2v1h-2zM83 59h2v1h-2zM84 60h2v1h-2zM85 61h2v1h-2zM86 62h2v1h-2zM87 63h2v1h-2zM88 64h2v1h-2zM89 65h2v1h-2zM90 66h2v1h-2zM91 67h2v1h-2zM92 68h2v1h-2zM93 69h2v1h-2zM94 70h2v1h-2zM95 71h2v1h-2zM96 72h2v1h-2zM97 73h2v1h-2zM98 74h2v1h-2zM99 75h1v1h-1z" /><path fill="#dc12f6" d="M10 54h1v1h-1z" /><path fill="#dd13f5" d="M11 54h1v1h-1zM14 56h1v1h-1zM16 57h1v1h-1zM18 58h1v1h-1zM20 59h1v1h-1zM22 60h1v1h-1zM24 61h1v1h-1zM27 63h1v1h-1z" /><path fill="#dc13f5" d="M12 54h1v1h-1zM13 55h2v1h-2zM15 56h2v1h-2zM17 57h2v1h-2zM19 58h2v1h-2zM21 59h1v1h-1zM23 60h1v1h-1zM25 61h1v1h-1zM26 62h2v1h-2zM28 63h2v1h-2z" /><path fill="#ce1af2" d="M34 54h1v1h-1z" /><path fill="#9d29e0" d="M46 54h1v1h-1z" /><path fill="#8f26d9" d="M68 54h1v1h-1z" /><path fill="#de12f6" d="M10 55h2v1h-2zM12 56h2v1h-2zM14 57h1v1h-1zM16 58h1v1h-1zM17 59h2v1h-2zM19 60h2v1h-2zM21 61h2v1h-2zM23 62h2v1h-2zM25 63h2v1h-2zM27 64h1v1h-1z" /><path fill="#dd13f6" d="M12 55h1v1h-1zM17 58h1v1h-1zM19 59h1v1h-1zM21 60h1v1h-1zM23 61h1v1h-1zM25 62h1v1h-1z" /><path fill="#d617f4" d="M24 55h1v1h-1z" /><path fill="#9f2ae1" d="M46 55h1v1h-1zM47 56h1v1h-1zM48 57h1v1h-1zM49 58h1v1h-1zM50 59h1v1h-1zM51 60h1v1h-1zM52 61h1v1h-1zM53 62h1v1h-1zM54 63h1v1h-1zM55 64h1v1h-1zM56 65h1v1h-1zM57 66h1v1h-1zM58 67h1v1h-1zM59 68h1v1h-1zM60 69h1v1h-1zM61 70h1v1h-1zM62 71h1v1h-1zM63 72h1v1h-1z" /><path fill="#7d0bd3" d="M78 55h1v1h-1zM78 56h2v1h-2zM79 57h2v1h-2zM80 58h2v1h-2zM81 59h2v1h-2zM82 60h2v1h-2zM83 61h2v1h-2zM84 62h2v1h-2zM85 63h2v1h-2zM86 64h2v1h-2zM87 65h2v1h-2zM88 66h2v1h-2zM89 67h2v1h-2zM90 68h2v1h-2zM91 69h2v1h-2zM92 70h2v1h-2zM93 71h2v1h-2zM94 72h2v1h-2zM95 73h2v1h-2zM96 74h2v1h-2zM97 75h2v1h-2zM98 76h2v1h-2zM99 77h1v1h-1z" /><path fill="#e011f6" d="M9 56h1v1h-1zM10 57h2v1h-2zM12 58h2v1h-2zM14 59h2v1h-2zM16 60h1v1h-1zM18 61h1v1h-1zM20 62h1v1h-1zM21 63h2v1h-2zM23 64h2v1h-2zM25 65h2v1h-2zM27 66h1v1h-1z" /><path fill="#df11f6" d="M10 56h1v1h-1zM17 60h1v1h-1zM19 61h1v1h-1zM21 62h1v1h-1zM23 63h1v1h-1z" /><path fill="#df12f6" d="M11 56h1v1h-1zM12 57h2v1h-2zM14 58h2v1h-2zM16 59h1v1h-1zM18 60h1v1h-1zM20 61h1v1h-1zM22 62h1v1h-1zM24 63h1v1h-1zM25 64h2v1h-2zM27 65h2v1h-2z" /><path fill="#da15f4" d="M20 56h1v1h-1z" /><path fill="#a02ae1" d="M46 56h1v1h-1zM46 57h2v1h-2zM47 58h2v1h-2zM48 59h2v1h-2zM49 60h2v1h-2zM50 61h2v1h-2zM51 62h2v1h-2zM52 63h2v1h-2zM53 64h2v1h-2zM54 65h2v1h-2zM55 66h2v1h-2zM56 67h2v1h-2zM57 68h2v1h-2zM58 69h2v1h-2zM59 70h2v1h-2zM60 71h2v1h-2zM61 72h2v1h-2zM62 73h2v1h-2zM63 74h1v1h-1z" /><path fill="#e111f7" d="M9 57h1v1h-1zM11 58h1v1h-1zM13 59h1v1h-1zM15 60h1v1h-1zM17 61h1v1h-1zM20 63h1v1h-1zM22 64h1v1h-1zM24 65h1v1h-1zM26 66h1v1h-1zM28 67h1v1h-1z" /><path fill="#dd12f6" d="M15 57h1v1h-1zM28 64h1v1h-1z" /><path fill="#d218f3" d="M33 57h1v1h-1z" /><path fill="#a12be2" d="M45 57h1v1h-1zM46 58h1v1h-1zM47 59h1v1h-1zM48 60h1v1h-1zM49 61h1v1h-1zM50 62h1v1h-1zM51 63h1v1h-1zM52 64h1v1h-1zM53 65h1v1h-1zM54 66h1v1h-1zM55 67h1v1h-1zM56 68h1v1h-1zM57 69h1v1h-1zM58 70h1v1h-1zM59 71h1v1h-1zM60 72h1v1h-1zM61 73h1v1h-1zM62 74h1v1h-1zM63 75h1v1h-1z" /><path fill="#9028d9" d="M67 57h1v1h-1z" /><path fill="#7e0bd3" d="M78 57h1v1h-1zM79 58h1v1h-1zM80 59h1v1h-1zM81 60h1v1h-1zM82 61h1v1h-1zM83 62h1v1h-1zM84 63h1v1h-1zM85 64h1v1h-1zM86 65h1v1h-1zM87 66h1v1h-1zM88 67h1v1h-1zM89 68h1v1h-1zM90 69h1v1h-1zM91 70h1v1h-1zM92 71h1v1h-1zM93 72h1v1h-1zM94 73h1v1h-1zM95 74h1v1h-1zM96 75h1v1h-1zM97 76h1v1h-1zM98 77h1v1h-1zM99 78h1v1h-1z" /><path fill="#e20ff6" d="M8 58h1v1h-1zM27 68h1v1h-1z" /><path fill="#e210f7" d="M9 58h1v1h-1zM10 59h2v1h-2zM12 60h2v1h-2zM14 61h2v1h-2zM16 62h2v1h-2zM18 63h2v1h-2zM20 64h1v1h-1zM22 65h1v1h-1zM23 66h2v1h-2zM25 67h2v1h-2z" /><path fill="#e110f7" d="M10 58h1v1h-1zM12 59h1v1h-1zM14 60h1v1h-1zM16 61h1v1h-1zM18 62h1v1h-1zM21 64h1v1h-1zM23 65h1v1h-1zM25 66h1v1h-1zM27 67h1v1h-1z" /><path fill="#d516f3" d="M32 58h1v1h-1zM32 59h1v1h-1z" /><path fill="#a12ae1" d="M45 58h1v1h-1z" /><path fill="#9227da" d="M67 58h1v1h-1zM67 59h1v1h-1z" /><path fill="#7e0cd3" d="M78 58h1v1h-1zM79 59h1v1h-1zM80 60h1v1h-1zM81 61h1v1h-1zM82 62h1v1h-1zM83 63h1v1h-1zM84 64h1v1h-1zM85 65h1v1h-1zM86 66h1v1h-1zM87 67h1v1h-1zM88 68h1v1h-1zM89 69h1v1h-1zM90 70h1v1h-1zM91 71h1v1h-1zM92 72h1v1h-1zM93 73h1v1h-1zM94 74h1v1h-1zM95 75h1v1h-1zM96 76h1v1h-1zM97 77h1v1h-1zM98 78h1v1h-1zM99 79h1v1h-1z" /><path fill="#e40ff7" d="M8 59h1v1h-1zM15 63h1v1h-1zM17 64h1v1h-1zM19 65h1v1h-1zM21 66h1v1h-1z" /><path fill="#e30ff7" d="M9 59h1v1h-1zM10 60h2v1h-2zM12 61h2v1h-2zM14 62h1v1h-1zM16 63h1v1h-1zM18 64h1v1h-1zM20 65h1v1h-1zM22 66h1v1h-1zM23 67h2v1h-2zM25 68h2v1h-2zM27 69h1v1h-1z" /><path fill="#a32be2" d="M45 59h1v1h-1zM46 60h1v1h-1zM47 61h1v1h-1zM48 62h1v1h-1zM49 63h1v1h-1zM50 64h1v1h-1zM51 65h1v1h-1zM52 66h1v1h-1zM53 67h1v1h-1zM54 68h1v1h-1zM55 69h1v1h-1zM56 70h1v1h-1zM57 71h1v1h-1zM58 72h1v1h-1zM59 73h1v1h-1zM60 74h1v1h-1zM61 75h1v1h-1zM62 76h1v1h-1zM63 77h1v1h-1zM63 79h1v1h-1z" /><path fill="#a22be2" d="M46 59h1v1h-1zM47 60h1v1h-1zM48 61h1v1h-1zM49 62h1v1h-1zM50 63h1v1h-1zM51 64h1v1h-1zM52 65h1v1h-1zM53 66h1v1h-1zM54 67h1v1h-1zM55 68h1v1h-1zM56 69h1v1h-1zM57 70h1v1h-1zM58 71h1v1h-1zM59 72h1v1h-1zM60 73h1v1h-1zM61 74h1v1h-1zM62 75h1v1h-1zM63 76h1v1h-1z" /><path fill="#7f0cd4" d="M78 59h1v1h-1zM78 60h2v1h-2zM78 61h3v1h-3zM79 62h3v1h-3zM80 63h3v1h-3zM81 64h3v1h-3zM82 65h3v1h-3zM83 66h3v1h-3zM84 67h3v1h-3zM85 68h3v1h-3zM86 69h3v1h-3zM87 70h3v1h-3zM88 71h3v1h-3zM89 72h3v1h-3zM90 73h3v1h-3zM91 74h3v1h-3zM92 75h3v1h-3zM93 76h3v1h-3zM94 77h3v1h-3zM95 78h3v1h-3zM96 79h3v1h-3zM97 80h3v1h-3zM98 81h2v1h-2zM99 82h1v1h-1z" /><path fill="#e50df7" d="M7 60h1v1h-1zM26 70h1v1h-1z" /><path fill="#e50ef8" d="M8 60h1v1h-1zM9 61h1v1h-1zM11 62h1v1h-1zM13 63h1v1h-1zM14 64h2v1h-2zM16 65h2v1h-2zM18 66h2v1h-2zM20 67h2v1h-2zM22 68h1v1h-1zM24 69h1v1h-1z" /><path fill="#e40ff8" d="M9 60h1v1h-1zM11 61h1v1h-1zM12 62h2v1h-2zM14 63h1v1h-1zM16 64h1v1h-1zM18 65h1v1h-1zM20 66h1v1h-1zM22 67h1v1h-1zM24 68h1v1h-1zM25 69h2v1h-2z" /><path fill="#d815f3" d="M31 60h1v1h-1z" /><path fill="#a32be3" d="M45 60h1v1h-1zM46 61h1v1h-1zM47 62h1v1h-1zM48 63h1v1h-1zM49 64h1v1h-1zM50 65h1v1h-1zM51 66h1v1h-1zM52 67h1v1h-1zM53 68h1v1h-1zM54 69h1v1h-1zM55 70h1v1h-1zM56 71h1v1h-1zM57 72h1v1h-1zM58 73h1v1h-1zM59 74h1v1h-1zM60 75h1v1h-1zM61 76h1v1h-1zM62 77h1v1h-1z" /><path fill="#e60ef8" d="M7 61h2v1h-2zM9 62h2v1h-2zM11 63h2v1h-2zM13 64h1v1h-1zM15 65h1v1h-1zM17 66h1v1h-1zM19 67h1v1h-1zM20 68h2v1h-2zM22 69h2v1h-2zM24 70h2v1h-2z" /><path fill="#e50ff8" d="M10 61h1v1h-1zM23 68h1v1h-1z" /><path fill="#d814f3" d="M31 61h1v1h-1z" /><path fill="#a42be3" d="M45 61h1v1h-1zM46 62h1v1h-1zM47 63h1v1h-1zM48 64h1v1h-1zM49 65h1v1h-1zM50 66h1v1h-1zM51 67h1v1h-1zM52 68h1v1h-1zM53 69h1v1h-1zM54 70h1v1h-1zM55 71h1v1h-1zM56 72h1v1h-1zM57 73h1v1h-1zM58 74h1v1h-1zM59 75h1v1h-1zM60 76h1v1h-1zM61 77h1v1h-1zM62 78h1v1h-1z" /><path fill="#e70df8" d="M6 62h1v1h-1zM8 62h1v1h-1zM9 63h2v1h-2zM11 64h2v1h-2zM13 65h1v1h-1zM15 66h1v1h-1zM17 67h1v1h-1zM19 68h1v1h-1zM21 69h1v1h-1zM22 70h2v1h-2zM24 71h2v1h-2z" /><path fill="#e70df9" d="M7 62h1v1h-1zM16 67h1v1h-1zM18 68h1v1h-1zM20 69h1v1h-1z" /><path fill="#e310f7" d="M15 62h1v1h-1zM17 63h1v1h-1zM19 64h1v1h-1zM21 65h1v1h-1z" /><path fill="#e011f7" d="M19 62h1v1h-1z" /><path fill="#da13f4" d="M30 62h1v1h-1z" /><path fill="#a42ae3" d="M44 62h1v1h-1zM63 80h1v1h-1z" /><path fill="#a52be3" d="M45 62h1v1h-1zM46 63h1v1h-1zM46 64h2v1h-2zM48 65h1v1h-1zM49 66h1v1h-1zM49 67h2v1h-2zM51 68h1v1h-1zM51 69h2v1h-2zM53 70h1v1h-1zM54 71h1v1h-1zM54 72h2v1h-2zM56 73h1v1h-1zM56 74h2v1h-2zM58 75h1v1h-1zM59 76h1v1h-1zM59 77h2v1h-2zM61 78h1v1h-1zM62 79h1v1h-1zM62 80h1v1h-1z" /><path fill="#800dd4" d="M78 62h1v1h-1zM78 63h2v1h-2zM79 64h2v1h-2zM80 65h2v1h-2zM81 66h2v1h-2zM82 67h2v1h-2zM83 68h2v1h-2zM84 69h2v1h-2zM85 70h2v1h-2zM86 71h2v1h-2zM87 72h2v1h-2zM88 73h2v1h-2zM89 74h2v1h-2zM90 75h2v1h-2zM91 76h2v1h-2zM92 77h2v1h-2zM93 78h2v1h-2zM94 79h2v1h-2zM95 80h2v1h-2zM96 81h2v1h-2zM97 82h2v1h-2zM98 83h1v1h-1zM98 84h1v1h-1z" /><path fill="#e90cf9" d="M6 63h1v1h-1zM7 64h2v1h-2zM9 65h2v1h-2zM11 66h2v1h-2zM13 67h2v1h-2zM15 68h2v1h-2zM17 69h1v1h-1zM19 70h1v1h-1zM20 71h2v1h-2zM22 72h2v1h-2zM24 73h1v1h-1z" /><path fill="#e80cf9" d="M7 63h1v1h-1zM9 64h1v1h-1zM11 65h1v1h-1zM13 66h1v1h-1zM18 69h1v1h-1zM20 70h1v1h-1zM22 71h1v1h-1zM24 72h1v1h-1z" /><path fill="#e80df9" d="M8 63h1v1h-1zM10 64h1v1h-1zM12 65h1v1h-1zM14 66h1v1h-1zM15 67h1v1h-1zM17 68h1v1h-1zM19 69h1v1h-1zM21 70h1v1h-1zM23 71h1v1h-1z" /><path fill="#a62be4" d="M44 63h1v1h-1zM45 64h1v1h-1zM45 65h2v1h-2zM46 66h2v1h-2zM46 67h3v1h-3zM48 68h2v1h-2zM48 69h3v1h-3zM50 70h2v1h-2zM51 71h2v1h-2zM51 72h3v1h-3zM53 73h2v1h-2zM53 74h3v1h-3zM55 75h2v1h-2zM56 76h2v1h-2zM56 77h3v1h-3zM58 78h2v1h-2zM59 79h2v1h-2zM59 80h3v1h-3zM61 81h2v1h-2zM62 82h1v1h-1z" /><path fill="#a52be4" d="M45 63h1v1h-1zM47 65h1v1h-1zM48 66h1v1h-1zM50 68h1v1h-1zM52 70h1v1h-1zM53 71h1v1h-1zM55 73h1v1h-1zM57 75h1v1h-1zM58 76h1v1h-1zM60 78h1v1h-1zM61 79h1v1h-1z" /><path fill="#ea0af8" d="M5 64h1v1h-1zM24 74h1v1h-1z" /><path fill="#ea0bf9" d="M6 64h1v1h-1zM8 65h1v1h-1zM10 66h1v1h-1zM13 68h1v1h-1zM15 69h1v1h-1zM17 70h1v1h-1zM19 71h1v1h-1zM21 72h1v1h-1zM23 73h1v1h-1z" /><path fill="#dd12f4" d="M29 64h1v1h-1z" /><path fill="#a52ae3" d="M44 64h1v1h-1z" /><path fill="#9628dc" d="M66 64h1v1h-1z" /><path fill="#810dd5" d="M78 64h1v1h-1zM79 65h1v1h-1zM80 66h1v1h-1zM81 67h1v1h-1zM82 68h1v1h-1zM83 69h1v1h-1zM84 70h1v1h-1zM85 71h1v1h-1zM86 72h1v1h-1zM87 73h1v1h-1zM88 74h1v1h-1zM89 75h1v1h-1zM90 76h1v1h-1zM91 77h1v1h-1zM92 78h1v1h-1zM93 79h1v1h-1zM94 80h1v1h-1zM95 81h1v1h-1zM96 82h1v1h-1zM97 83h1v1h-1z" /><path fill="#ec0afa" d="M5 65h1v1h-1zM7 66h1v1h-1zM9 67h1v1h-1zM10 68h2v1h-2zM12 69h1v1h-1zM14 70h1v1h-1zM16 71h1v1h-1zM18 72h1v1h-1zM20 73h1v1h-1zM22 74h1v1h-1zM23 75h1v1h-1z" /><path fill="#eb0bfa" d="M6 65h1v1h-1zM8 66h1v1h-1zM10 67h1v1h-1zM12 68h1v1h-1zM14 69h1v1h-1zM16 70h1v1h-1zM17 71h1v1h-1zM19 72h1v1h-1zM21 73h1v1h-1zM23 74h1v1h-1z" /><path fill="#eb0bf9" d="M7 65h1v1h-1zM9 66h1v1h-1zM11 67h1v1h-1zM18 71h1v1h-1zM20 72h1v1h-1zM22 73h1v1h-1z" /><path fill="#e60df8" d="M14 65h1v1h-1zM16 66h1v1h-1zM18 67h1v1h-1z" /><path fill="#de11f5" d="M29 65h1v1h-1z" /><path fill="#a72be4" d="M44 65h1v1h-1zM45 66h1v1h-1zM47 68h1v1h-1zM49 70h1v1h-1zM50 71h1v1h-1zM52 73h1v1h-1zM54 75h1v1h-1zM55 76h1v1h-1zM57 78h1v1h-1zM58 79h1v1h-1zM60 81h1v1h-1zM61 82h1v1h-1z" /><path fill="#810ed5" d="M78 65h1v1h-1zM79 66h1v1h-1zM80 67h1v1h-1zM81 68h1v1h-1zM82 69h1v1h-1zM83 70h1v1h-1zM84 71h1v1h-1zM85 72h1v1h-1zM86 73h1v1h-1zM87 74h1v1h-1zM88 75h1v1h-1zM89 76h1v1h-1zM90 77h1v1h-1zM91 78h1v1h-1zM92 79h1v1h-1zM93 80h1v1h-1zM94 81h1v1h-1zM95 82h1v1h-1zM96 83h1v1h-1zM97 84h1v1h-1z" /><path fill="#ee09fa" d="M4 66h1v1h-1zM6 67h1v1h-1zM7 68h2v1h-2zM9 69h2v1h-2zM11 70h1v1h-1zM13 71h1v1h-1zM15 72h1v1h-1zM17 73h1v1h-1zM19 74h1v1h-1zM20 75h2v1h-2zM22 76h1v1h-1z" /><path fill="#ed0afa" d="M5 66h2v1h-2zM7 67h2v1h-2zM9 68h1v1h-1zM11 69h1v1h-1zM13 70h1v1h-1zM14 71h2v1h-2zM16 72h2v1h-2zM18 73h2v1h-2zM20 74h2v1h-2zM22 75h1v1h-1z" /><path fill="#e010f5" d="M28 66h1v1h-1z" /><path fill="#a72ce5" d="M44 66h1v1h-1zM45 67h1v1h-1zM46 68h1v1h-1zM47 69h1v1h-1zM48 70h1v1h-1zM49 71h1v1h-1zM50 72h1v1h-1zM51 73h1v1h-1zM52 74h1v1h-1zM53 75h1v1h-1zM54 76h1v1h-1zM55 77h1v1h-1zM56 78h1v1h-1zM57 79h1v1h-1zM58 80h1v1h-1zM59 81h1v1h-1zM60 82h1v1h-1zM61 83h1v1h-1zM61 85h1v1h-1z" /><path fill="#820ed5" d="M78 66h1v1h-1zM78 67h2v1h-2zM78 68h3v1h-3zM79 69h3v1h-3zM80 70h3v1h-3zM81 71h3v1h-3zM82 72h3v1h-3zM83 73h3v1h-3zM84 74h3v1h-3zM85 75h3v1h-3zM86 76h3v1h-3zM87 77h3v1h-3zM88 78h3v1h-3zM89 79h3v1h-3zM90 80h3v1h-3zM91 81h3v1h-3zM92 82h3v1h-3zM93 83h3v1h-3zM94 84h3v1h-3z" /><path fill="#ef09fb" d="M4 67h2v1h-2zM6 68h1v1h-1zM8 69h1v1h-1zM10 70h1v1h-1zM12 71h1v1h-1zM13 72h2v1h-2zM15 73h2v1h-2zM17 74h2v1h-2zM19 75h1v1h-1zM21 76h1v1h-1z" /><path fill="#ea0cf9" d="M12 67h1v1h-1zM14 68h1v1h-1zM16 69h1v1h-1zM18 70h1v1h-1z" /><path fill="#a82be4" d="M43 67h1v1h-1zM60 85h1v1h-1z" /><path fill="#a82ce5" d="M44 67h1v1h-1zM44 68h2v1h-2zM43 69h1v1h-1zM45 69h2v1h-2zM46 70h2v1h-2zM47 71h2v1h-2zM48 72h2v1h-2zM49 73h2v1h-2zM50 74h2v1h-2zM51 75h2v1h-2zM52 76h2v1h-2zM53 77h2v1h-2zM54 78h2v1h-2zM55 79h2v1h-2zM56 80h2v1h-2zM57 81h2v1h-2zM58 82h2v1h-2zM59 83h2v1h-2zM60 84h2v1h-2z" /><path fill="#f008fb" d="M3 68h3v1h-3zM6 69h2v1h-2zM8 70h2v1h-2zM10 71h1v1h-1zM12 72h1v1h-1zM14 73h1v1h-1zM16 74h1v1h-1zM17 75h2v1h-2zM19 76h2v1h-2zM21 77h2v1h-2z" /><path fill="#a92ce4" d="M43 68h1v1h-1z" /><path fill="#9b28df" d="M65 68h1v1h-1z" /><path fill="#f207fc" d="M3 69h1v1h-1zM5 70h1v1h-1zM14 75h1v1h-1zM16 76h1v1h-1zM18 77h1v1h-1z" /><path fill="#f207fb" d="M4 69h1v1h-1zM6 70h1v1h-1zM7 71h1v1h-1zM9 72h1v1h-1zM11 73h1v1h-1zM13 74h1v1h-1zM15 75h1v1h-1zM17 76h1v1h-1zM19 77h1v1h-1zM20 78h1v1h-1z" /><path fill="#f108fb" d="M5 69h1v1h-1zM7 70h1v1h-1zM9 71h1v1h-1zM11 72h1v1h-1zM13 73h1v1h-1zM14 74h2v1h-2zM16 75h1v1h-1zM18 76h1v1h-1zM20 77h1v1h-1z" /><path fill="#ec0bfa" d="M13 69h1v1h-1zM15 70h1v1h-1z" /><path fill="#a92ce5" d="M44 69h1v1h-1zM45 70h1v1h-1zM46 71h1v1h-1zM47 72h1v1h-1zM48 73h1v1h-1zM49 74h1v1h-1zM50 75h1v1h-1zM51 76h1v1h-1zM52 77h1v1h-1zM53 78h1v1h-1zM54 79h1v1h-1zM55 80h1v1h-1zM56 81h1v1h-1zM57 82h1v1h-1zM58 83h1v1h-1zM59 84h1v1h-1z" /><path fill="#9b2ade" d="M65 69h1v1h-1z" /><path fill="#830fd5" d="M78 69h1v1h-1zM79 70h1v1h-1zM80 71h1v1h-1zM81 72h1v1h-1zM82 73h1v1h-1zM83 74h1v1h-1zM84 75h1v1h-1zM85 76h1v1h-1zM86 77h1v1h-1zM87 78h1v1h-1zM88 79h1v1h-1zM89 80h1v1h-1zM90 81h1v1h-1zM91 82h1v1h-1zM92 83h1v1h-1zM93 84h1v1h-1z" /><path fill="#f405fb" d="M2 70h1v1h-1z" /><path fill="#f406fc" d="M3 70h1v1h-1zM4 71h1v1h-1zM6 72h1v1h-1zM8 73h1v1h-1zM10 74h1v1h-1zM11 75h2v1h-2zM13 76h2v1h-2zM15 77h2v1h-2zM17 78h1v1h-1zM19 79h1v1h-1z" /><path fill="#f307fc" d="M4 70h1v1h-1zM6 71h1v1h-1zM8 72h1v1h-1zM10 73h1v1h-1zM12 74h1v1h-1zM15 76h1v1h-1zM17 77h1v1h-1zM19 78h1v1h-1zM21 79h1v1h-1z" /><path fill="#ee0afa" d="M12 70h1v1h-1z" /><path fill="#aa2ce6" d="M43 70h1v1h-1zM43 71h2v1h-2zM44 72h1v1h-1zM45 73h2v1h-2zM46 74h1v1h-1zM47 75h2v1h-2zM48 76h2v1h-2zM49 77h1v1h-1zM50 78h2v1h-2zM51 79h2v1h-2zM52 80h1v1h-1zM53 81h2v1h-2zM54 82h2v1h-2zM55 83h2v1h-2zM54 84h1v1h-1zM56 84h2v1h-2z" /><path fill="#a92ce6" d="M44 70h1v1h-1zM45 71h1v1h-1zM45 72h2v1h-2zM47 73h1v1h-1zM47 74h2v1h-2zM49 75h1v1h-1zM50 76h1v1h-1zM50 77h2v1h-2zM52 78h1v1h-1zM53 79h1v1h-1zM53 80h2v1h-2zM55 81h1v1h-1zM56 82h1v1h-1zM57 83h1v1h-1zM58 84h1v1h-1z" /><path fill="#830fd6" d="M78 70h1v1h-1zM79 71h1v1h-1zM80 72h1v1h-1zM81 73h1v1h-1zM82 74h1v1h-1zM83 75h1v1h-1zM84 76h1v1h-1zM85 77h1v1h-1zM86 78h1v1h-1zM87 79h1v1h-1zM88 80h1v1h-1zM89 81h1v1h-1zM90 82h1v1h-1zM91 83h1v1h-1zM92 84h1v1h-1z" /><path fill="#f505fc" d="M2 71h1v1h-1zM4 72h1v1h-1zM6 73h1v1h-1zM8 74h1v1h-1zM10 75h1v1h-1zM12 76h1v1h-1zM15 78h1v1h-1zM17 79h1v1h-1zM19 80h1v1h-1z" /><path fill="#f506fc" d="M3 71h1v1h-1zM5 72h1v1h-1zM7 73h1v1h-1zM9 74h1v1h-1zM14 77h1v1h-1zM16 78h1v1h-1zM18 79h1v1h-1zM20 80h1v1h-1z" /><path fill="#f306fc" d="M5 71h1v1h-1zM7 72h1v1h-1zM9 73h1v1h-1zM11 74h1v1h-1zM13 75h1v1h-1zM18 78h1v1h-1zM20 79h1v1h-1z" /><path fill="#f107fb" d="M8 71h1v1h-1zM10 72h1v1h-1zM12 73h1v1h-1zM21 78h1v1h-1z" /><path fill="#ef08fb" d="M11 71h1v1h-1z" /><path fill="#840fd6" d="M78 71h1v1h-1zM79 72h1v1h-1zM80 73h1v1h-1zM81 74h1v1h-1zM82 75h1v1h-1zM83 76h1v1h-1zM84 77h1v1h-1zM85 78h1v1h-1zM86 79h1v1h-1zM87 80h1v1h-1zM88 81h1v1h-1zM89 82h1v1h-1zM90 83h1v1h-1zM91 84h1v1h-1z" /><path fill="#f603fc" d="M1 72h1v1h-1z" /><path fill="#f705fd" d="M2 72h1v1h-1zM4 73h1v1h-1zM6 74h1v1h-1zM15 79h1v1h-1zM17 80h1v1h-1zM19 81h1v1h-1z" /><path fill="#f605fd" d="M3 72h1v1h-1zM5 73h1v1h-1zM7 74h1v1h-1zM8 75h1v1h-1zM10 76h1v1h-1zM12 77h1v1h-1zM14 78h1v1h-1zM16 79h1v1h-1zM18 80h1v1h-1zM20 81h1v1h-1z" /><path fill="#e70cf8" d="M25 72h1v1h-1z" /><path fill="#aa2ce5" d="M42 72h1v1h-1z" /><path fill="#ab2ce6" d="M43 72h1v1h-1zM44 73h1v1h-1zM44 74h2v1h-2zM46 75h1v1h-1zM47 76h1v1h-1zM47 77h2v1h-2zM49 78h1v1h-1zM50 79h1v1h-1zM50 80h2v1h-2zM52 81h1v1h-1zM53 82h1v1h-1zM54 83h1v1h-1z" /><path fill="#8410d6" d="M78 72h1v1h-1zM79 73h1v1h-1zM80 74h1v1h-1zM81 75h1v1h-1zM82 76h1v1h-1zM83 77h1v1h-1zM84 78h1v1h-1zM85 79h1v1h-1zM86 80h1v1h-1zM87 81h1v1h-1zM88 82h1v1h-1zM89 83h1v1h-1zM90 84h1v1h-1z" /><path fill="#f903fd" d="M1 73h1v1h-1zM2 74h1v1h-1zM4 75h1v1h-1zM6 76h1v1h-1zM8 77h1v1h-1zM9 78h2v1h-2zM11 79h2v1h-2zM13 80h2v1h-2zM15 81h1v1h-1zM17 82h1v1h-1zM19 83h1v1h-1z" /><path fill="#f804fd" d="M2 73h1v1h-1zM3 74h2v1h-2zM5 75h2v1h-2zM7 76h2v1h-2zM9 77h2v1h-2zM11 78h1v1h-1zM13 79h1v1h-1zM15 80h1v1h-1zM16 81h2v1h-2zM18 82h2v1h-2z" /><path fill="#f704fd" d="M3 73h1v1h-1zM5 74h1v1h-1zM7 75h1v1h-1zM9 76h1v1h-1zM11 77h1v1h-1zM12 78h2v1h-2zM14 79h1v1h-1zM16 80h1v1h-1zM18 81h1v1h-1z" /><path fill="#ac2be7" d="M42 73h1v1h-1zM50 83h1v1h-1z" /><path fill="#ab2ce7" d="M43 73h1v1h-1zM45 75h1v1h-1zM46 76h1v1h-1zM48 78h1v1h-1zM49 79h1v1h-1zM51 81h1v1h-1zM52 82h1v1h-1zM53 83h1v1h-1z" /><path fill="#8510d6" d="M78 73h1v1h-1zM78 74h2v1h-2zM79 75h2v1h-2zM80 76h2v1h-2zM81 77h2v1h-2zM82 78h2v1h-2zM83 79h2v1h-2zM84 80h2v1h-2zM85 81h2v1h-2zM86 82h2v1h-2zM87 83h2v1h-2zM88 84h2v1h-2z" /><path fill="#fa02fd" d="M0 74h1v1h-1z" /><path fill="#fa03fe" d="M1 74h1v1h-1zM2 75h2v1h-2zM4 76h2v1h-2zM6 77h2v1h-2zM8 78h1v1h-1zM10 79h1v1h-1zM12 80h1v1h-1zM14 81h1v1h-1zM15 82h2v1h-2zM17 83h2v1h-2z" /><path fill="#ac2be6" d="M42 74h1v1h-1zM53 84h1v1h-1z" /><path fill="#ac2ce7" d="M43 74h1v1h-1zM43 75h2v1h-2zM44 76h2v1h-2zM44 77h3v1h-3zM46 78h2v1h-2zM47 79h2v1h-2zM47 80h3v1h-3zM49 81h2v1h-2zM50 82h2v1h-2zM51 83h2v1h-2z" /><path fill="#a029e0" d="M64 74h1v1h-1z" /><path fill="#fb02fd" d="M0 75h1v1h-1zM16 84h1v1h-1z" /><path fill="#fb02fe" d="M1 75h1v1h-1zM3 76h1v1h-1zM5 77h1v1h-1zM6 78h2v1h-2zM8 79h2v1h-2zM10 80h2v1h-2zM12 81h1v1h-1zM14 82h1v1h-1zM16 83h1v1h-1zM18 84h1v1h-1z" /><path fill="#f605fc" d="M9 75h1v1h-1zM11 76h1v1h-1zM13 77h1v1h-1z" /><path fill="#ad2ce7" d="M42 75h1v1h-1zM43 76h1v1h-1zM45 78h1v1h-1zM46 79h1v1h-1zM48 81h1v1h-1zM49 82h1v1h-1z" /><path fill="#8510d7" d="M78 75h1v1h-1zM79 76h1v1h-1zM80 77h1v1h-1zM81 78h1v1h-1zM82 79h1v1h-1zM83 80h1v1h-1zM84 81h1v1h-1zM85 82h1v1h-1zM86 83h1v1h-1zM87 84h1v1h-1z" /><path fill="#fd01fd" d="M0 76h1v1h-1zM9 81h1v1h-1zM11 82h1v1h-1zM13 83h1v1h-1zM15 84h1v1h-1z" /><path fill="#fc01fe" d="M1 76h1v1h-1z" /><path fill="#fc02fe" d="M2 76h1v1h-1zM3 77h2v1h-2zM5 78h1v1h-1zM7 79h1v1h-1zM9 80h1v1h-1zM11 81h1v1h-1zM13 82h1v1h-1zM15 83h1v1h-1zM17 84h1v1h-1z" /><path fill="#ed08f9" d="M23 76h1v1h-1z" /><path fill="#ad2de8" d="M42 76h1v1h-1zM43 77h1v1h-1zM44 78h1v1h-1zM45 79h1v1h-1zM46 80h1v1h-1zM47 81h1v1h-1zM48 82h1v1h-1z" /><path fill="#8611d7" d="M78 76h1v1h-1zM78 77h2v1h-2zM79 78h2v1h-2zM80 79h2v1h-2zM81 80h2v1h-2zM82 81h2v1h-2zM83 82h2v1h-2zM84 83h2v1h-2zM85 84h2v1h-2z" /><path fill="#fd01ff" d="M1 77h1v1h-1zM3 78h1v1h-1zM5 79h1v1h-1zM7 80h1v1h-1z" /><path fill="#fc01fd" d="M2 77h1v1h-1zM4 78h1v1h-1zM6 79h1v1h-1zM8 80h1v1h-1z" /><path fill="#ad2ce8" d="M41 77h1v1h-1z" /><path fill="#ae2de8" d="M42 77h1v1h-1zM42 78h2v1h-2zM43 79h2v1h-2zM44 80h2v1h-2zM45 81h2v1h-2zM46 82h2v1h-2z" /><path fill="#f107fa" d="M22 78h1v1h-1z" /><path fill="#af2ce8" d="M41 78h1v1h-1z" /><path fill="#a22ae3" d="M63 78h1v1h-1z" /><path fill="#8711d7" d="M78 78h1v1h-1zM79 79h1v1h-1zM80 80h1v1h-1zM81 81h1v1h-1zM82 82h1v1h-1zM83 83h1v1h-1zM84 84h1v1h-1z" /><path fill="#af2ce9" d="M41 79h1v1h-1zM41 80h1v1h-1z" /><path fill="#8712d7" d="M78 79h1v1h-1zM79 80h1v1h-1zM80 81h1v1h-1zM81 82h1v1h-1zM82 83h1v1h-1zM83 84h1v1h-1z" /><path fill="#f406fb" d="M21 80h1v1h-1z" /><path fill="#af2de9" d="M42 80h1v1h-1zM43 81h1v1h-1zM43 82h1v1h-1z" /><path fill="#8812d8" d="M78 80h1v1h-1zM78 81h2v1h-2zM78 82h3v1h-3zM79 83h3v1h-3zM80 84h3v1h-3z" /><path fill="#fb01fd" d="M10 81h1v1h-1zM12 82h1v1h-1zM14 83h1v1h-1z" /><path fill="#fa02fe" d="M13 81h1v1h-1z" /><path fill="#f704fc" d="M20 82h1v1h-1z" /><path fill="#ae2de7" d="M45 82h1v1h-1z" /><path fill="#ac2de8" d="M49 83h1v1h-1z" /><path fill="#a72be3" d="M62 83h1v1h-1z" /><path fill="#8912d8" d="M78 83h1v1h-1z" /><path fill="#7f0cd3" d="M99 83h1v1h-1z" /><path fill="#fa03fd" d="M19 84h1v1h-1z" /><path fill="#aa2be6" d="M55 84h1v1h-1z" /><path fill="#a72ce4" d="M62 84h1v1h-1z" /><path fill="#8813d7" d="M79 84h1v1h-1z" /><path fill="#a82be6" d="M58 85h1v1h-1z" /><path fill="#a92be5" d="M59 85h1v1h-1z" /></svg>