<svg xmlns="http://www.w3.org/2000/svg" viewBox="0 0 100 100" width="1em" height="1em"><path fill="#1f2f5f" d="M96 17h1v1h-1zM99 18h1v1h-1zM82 20h1v1h-1zM92 29h1v1h-1zM89 32h1v1h-1zM88 34h1v1h-1zM87 37h1v1h-1zM86 43h1v1h-1zM81 66h1v1h-1zM14 70h1v1h-1zM29 71h1v1h-1zM26 72h1v1h-1zM51 72h1v1h-1zM84 72h1v1h-1zM2 79h1v1h-1zM60 80h1v1h-1zM57 81h1v1h-1z" /><path fill="#1e2f5f" d="M97 17h1v1h-1zM86 19h1v1h-1zM98 24h1v1h-1zM60 45h1v1h-1zM85 48h1v1h-1zM82 58h1v1h-1zM81 62h1v1h-1zM81 64h1v1h-1zM81 65h1v1h-1zM42 71h1v1h-1zM72 71h1v1h-1zM50 72h1v1h-1zM24 73h1v1h-1zM52 80h1v1h-1zM51 81h1v1h-1zM55 82h1v1h-1z" /><path fill="#1f305f" d="M98 17h1v1h-1zM96 18h3v1h-3zM97 19h2v1h-2zM99 20h1v1h-1zM99 22h1v1h-1zM85 23h3v1h-3zM84 24h3v1h-3zM88 33h1v1h-1zM87 35h1v1h-1zM87 36h1v1h-1zM86 38h1v1h-1zM86 39h1v1h-1zM85 40h2v1h-2zM85 41h2v1h-2zM85 42h1v1h-1zM84 43h2v1h-2zM84 44h2v1h-2zM84 45h2v1h-2zM58 46h1v1h-1zM83 46h3v1h-3zM83 47h3v1h-3zM83 48h2v1h-2zM83 49h2v1h-2zM47 50h1v1h-1zM82 50h3v1h-3zM82 51h2v1h-2zM82 52h2v1h-2zM81 53h3v1h-3zM81 54h3v1h-3zM81 55h2v1h-2zM80 56h3v1h-3zM80 57h3v1h-3zM79 58h3v1h-3zM79 59h3v1h-3zM78 60h3v1h-3zM77 61h4v1h-4zM77 62h4v1h-4zM76 63h5v1h-5zM75 64h6v1h-6zM59 65h1v1h-1zM74 65h7v1h-7zM59 66h1v1h-1zM71 66h1v1h-1zM73 66h8v1h-8zM58 67h1v1h-1zM71 67h11v1h-11zM35 68h11v1h-11zM58 68h1v1h-1zM70 68h12v1h-12zM30 69h29v1h-29zM70 69h12v1h-12zM27 70h32v1h-32zM69 70h2v1h-2zM72 70h11v1h-11zM25 71h4v1h-4zM44 71h14v1h-14zM69 71h1v1h-1zM73 71h10v1h-10zM24 72h2v1h-2zM52 72h6v1h-6zM68 72h1v1h-1zM74 72h10v1h-10zM22 73h2v1h-2zM67 73h1v1h-1zM76 73h7v1h-7zM0 74h1v1h-1zM20 74h2v1h-2zM66 74h1v1h-1zM79 74h2v1h-2zM19 75h1v1h-1zM65 75h1v1h-1zM17 76h1v1h-1zM64 76h1v1h-1zM15 77h2v1h-2zM63 77h1v1h-1zM62 78h2v1h-2zM4 79h4v1h-4zM10 79h1v1h-1zM53 79h1v1h-1zM60 79h2v1h-2zM58 80h2v1h-2zM56 81h1v1h-1zM51 82h3v1h-3z" /><path fill="#1e305f" d="M94 18h1v1h-1zM99 21h1v1h-1zM90 31h1v1h-1zM87 38h1v1h-1zM87 39h1v1h-1zM84 52h1v1h-1zM17 69h1v1h-1zM71 70h1v1h-1zM43 71h1v1h-1zM70 71h1v1h-1zM69 72h1v1h-1zM67 74h1v1h-1zM78 74h1v1h-1zM14 78h1v1h-1zM3 79h1v1h-1z" /><path fill="#23325e" d="M95 18h1v1h-1z" /><path fill="#2c345e" d="M87 19h1v1h-1z" /><path fill="#383b5e" d="M88 19h1v1h-1zM84 42h1v1h-1zM56 75h1v1h-1z" /><path fill="#403f5d" d="M89 19h1v1h-1z" /><path fill="#3f3e5d" d="M90 19h1v1h-1z" /><path fill="#46415e" d="M91 19h1v1h-1zM90 30h1v1h-1zM87 34h1v1h-1zM82 48h1v1h-1zM58 71h1v1h-1zM59 79h1v1h-1z" /><path fill="#53465d" d="M92 19h1v1h-1zM32 68h1v1h-1z" /><path fill="#684f5d" d="M93 19h1v1h-1zM97 24h1v1h-1zM5 76h1v1h-1z" /><path fill="#8d605c" d="M94 19h1v1h-1z" /><path fill="#93635c" d="M95 19h1v1h-1z" /><path fill="#20305f" d="M96 19h1v1h-1zM97 25h1v1h-1zM64 42h1v1h-1zM72 66h1v1h-1zM68 71h1v1h-1zM23 72h1v1h-1zM4 76h1v1h-1z" /><path fill="#1e2f5e" d="M99 19h1v1h-1zM80 21h1v1h-1zM95 27h1v1h-1zM91 30h1v1h-1zM86 44h1v1h-1zM82 68h1v1h-1zM83 71h1v1h-1zM48 72h1v1h-1zM83 73h1v1h-1zM56 74h1v1h-1zM55 76h1v1h-1zM64 77h1v1h-1zM13 78h1v1h-1zM58 81h1v1h-1z" /><path fill="#33385e" d="M83 20h1v1h-1zM25 60h1v1h-1z" /><path fill="#664e5d" d="M84 20h1v1h-1z" /><path fill="#94625b" d="M85 20h1v1h-1z" /><path fill="#af6f5b" d="M86 20h1v1h-1zM12 77h1v1h-1z" /><path fill="#c0765a" d="M87 20h6v1h-6zM84 21h8v1h-8zM97 21h1v1h-1zM82 22h2v1h-2zM89 22h2v1h-2zM96 22h2v1h-2zM80 23h4v1h-4zM89 23h2v1h-2zM96 23h1v1h-1zM79 24h4v1h-4zM89 24h1v1h-1zM95 24h2v1h-2zM78 25h5v1h-5zM88 25h2v1h-2zM95 25h1v1h-1zM77 26h13v1h-13zM92 26h1v1h-1zM77 27h16v1h-16zM76 28h16v1h-16zM75 29h15v1h-15zM75 30h14v1h-14zM74 31h14v1h-14zM73 32h15v1h-15zM73 33h14v1h-14zM72 34h15v1h-15zM72 35h14v1h-14zM71 36h15v1h-15zM70 37h15v1h-15zM70 38h15v1h-15zM69 39h16v1h-16zM68 40h16v1h-16zM67 41h17v1h-17zM66 42h18v1h-18zM65 43h18v1h-18zM64 44h19v1h-19zM63 45h20v1h-20zM61 46h21v1h-21zM59 47h23v1h-23zM57 48h25v1h-25zM55 49h26v1h-26zM52 50h29v1h-29zM48 51h33v1h-33zM44 52h36v1h-36zM41 53h39v1h-39zM38 54h42v1h-42zM35 55h44v1h-44zM33 56h46v1h-46zM31 57h47v1h-47zM30 58h48v1h-48zM28 59h49v1h-49zM27 60h49v1h-49zM26 61h50v1h-50zM25 62h34v1h-34zM61 62h11v1h-11zM73 62h2v1h-2zM24 63h35v1h-35zM61 63h10v1h-10zM73 63h1v1h-1zM23 64h35v1h-35zM61 64h10v1h-10zM23 65h35v1h-35zM61 65h9v1h-9zM22 66h35v1h-35zM61 66h9v1h-9zM21 67h13v1h-13zM47 67h10v1h-10zM61 67h8v1h-8zM21 68h8v1h-8zM60 68h9v1h-9zM20 69h6v1h-6zM60 69h8v1h-8zM19 70h5v1h-5zM60 70h8v1h-8zM16 71h7v1h-7zM59 71h8v1h-8zM6 72h15v1h-15zM59 72h7v1h-7zM3 73h17v1h-17zM59 73h6v1h-6zM7 74h11v1h-11zM58 74h7v1h-7zM7 75h9v1h-9zM58 75h6v1h-6zM7 76h7v1h-7zM57 76h5v1h-5zM5 77h7v1h-7zM56 77h5v1h-5zM4 78h3v1h-3zM56 78h4v1h-4zM55 79h3v1h-3zM54 80h1v1h-1z" /><path fill="#a86b5b" d="M93 20h1v1h-1zM91 26h1v1h-1zM71 63h1v1h-1zM73 64h1v1h-1z" /><path fill="#79575d" d="M94 20h1v1h-1z" /><path fill="#ad6d5b" d="M95 20h1v1h-1z" /><path fill="#8e605c" d="M96 20h1v1h-1zM38 67h1v1h-1zM27 69h1v1h-1z" /><path fill="#4e445d" d="M97 20h1v1h-1zM81 51h1v1h-1zM49 68h1v1h-1z" /><path fill="#31385e" d="M98 20h1v1h-1zM67 72h1v1h-1zM16 76h1v1h-1z" /><path fill="#3c3d5d" d="M81 21h1v1h-1z" /><path fill="#8b5f5b" d="M82 21h1v1h-1zM91 23h2v1h-2z" /><path fill="#be755a" d="M83 21h1v1h-1zM91 22h1v1h-1zM71 35h1v1h-1zM59 62h1v1h-1zM57 66h1v1h-1zM34 67h1v1h-1zM46 67h1v1h-1zM65 73h1v1h-1zM14 76h1v1h-1z" /><path fill="#b4715b" d="M92 21h1v1h-1zM62 45h1v1h-1zM81 49h1v1h-1zM80 52h1v1h-1z" /><path fill="#805a5c" d="M93 21h1v1h-1z" /><path fill="#825b5d" d="M94 21h1v1h-1z" /><path fill="#74555c" d="M95 21h1v1h-1zM36 54h1v1h-1zM6 75h1v1h-1zM13 77h1v1h-1z" /><path fill="#bd755a" d="M96 21h1v1h-1zM81 22h1v1h-1zM76 27h1v1h-1zM74 30h1v1h-1zM60 67h1v1h-1zM26 69h1v1h-1zM24 70h1v1h-1zM58 73h1v1h-1zM57 75h1v1h-1zM6 76h1v1h-1z" /><path fill="#a36a5b" d="M98 21h1v1h-1zM44 67h1v1h-1zM14 71h1v1h-1z" /><path fill="#22305e" d="M79 22h1v1h-1zM56 47h1v1h-1z" /><path fill="#71545d" d="M80 22h1v1h-1zM31 68h1v1h-1z" /><path fill="#bf765a" d="M84 22h1v1h-1zM69 38h1v1h-1zM76 60h1v1h-1zM20 68h1v1h-1zM5 72h1v1h-1zM62 76h1v1h-1z" /><path fill="#96635c" d="M85 22h1v1h-1z" /><path fill="#664f5d" d="M86 22h1v1h-1zM65 74h1v1h-1zM63 76h1v1h-1z" /><path fill="#604c5d" d="M87 22h1v1h-1z" /><path fill="#99655b" d="M88 22h1v1h-1zM83 24h1v1h-1zM73 31h1v1h-1zM67 40h1v1h-1zM53 68h1v1h-1z" /><path fill="#7d595c" d="M92 22h1v1h-1z" /><path fill="#835c5c" d="M93 22h1v1h-1z" /><path fill="#825b5c" d="M94 22h1v1h-1zM42 52h1v1h-1zM23 63h1v1h-1zM60 65h1v1h-1zM12 71h1v1h-1zM57 74h1v1h-1z" /><path fill="#865d5c" d="M95 22h1v1h-1zM52 68h1v1h-1z" /><path fill="#79575c" d="M98 22h1v1h-1zM82 47h1v1h-1zM57 67h1v1h-1zM11 71h1v1h-1z" /><path fill="#28345d" d="M78 23h1v1h-1zM23 62h1v1h-1z" /><path fill="#94635b" d="M79 23h1v1h-1zM6 74h1v1h-1z" /><path fill="#57485d" d="M84 23h1v1h-1zM52 49h1v1h-1z" /><path fill="#835b5c" d="M88 23h1v1h-1zM46 51h1v1h-1z" /><path fill="#9b665b" d="M93 23h1v1h-1zM93 26h1v1h-1zM60 46h1v1h-1zM23 71h1v1h-1zM58 79h1v1h-1z" /><path fill="#835c5b" d="M94 23h1v1h-1z" /><path fill="#aa6c5b" d="M95 23h1v1h-1zM87 25h1v1h-1zM43 52h1v1h-1zM72 62h1v1h-1z" /><path fill="#b9735a" d="M97 23h1v1h-1zM88 31h1v1h-1z" /><path fill="#34385f" d="M98 23h1v1h-1z" /><path fill="#28335e" d="M77 24h1v1h-1zM74 28h1v1h-1z" /><path fill="#9e675b" d="M78 24h1v1h-1zM63 44h1v1h-1zM72 64h1v1h-1zM43 67h1v1h-1z" /><path fill="#2e365e" d="M87 24h1v1h-1zM54 78h1v1h-1zM61 78h1v1h-1z" /><path fill="#b3705b" d="M88 24h1v1h-1zM61 77h1v1h-1z" /><path fill="#b7725b" d="M90 24h1v1h-1z" /><path fill="#8d605b" d="M91 24h1v1h-1z" /><path fill="#895e5c" d="M92 24h3v1h-3zM94 25h1v1h-1zM58 72h1v1h-1z" /><path fill="#22315e" d="M76 25h1v1h-1z" /><path fill="#92625b" d="M77 25h1v1h-1zM39 53h1v1h-1zM40 67h1v1h-1z" /><path fill="#a56b5b" d="M83 25h1v1h-1z" /><path fill="#54475e" d="M84 25h1v1h-1z" /><path fill="#3f3e5e" d="M85 25h1v1h-1zM57 80h1v1h-1z" /><path fill="#5c4b5d" d="M86 25h1v1h-1zM53 81h1v1h-1z" /><path fill="#885e5c" d="M90 25h1v1h-1zM66 41h1v1h-1zM58 65h1v1h-1z" /><path fill="#9f675b" d="M91 25h1v1h-1z" /><path fill="#a76b5b" d="M92 25h1v1h-1zM84 40h1v1h-1zM4 72h1v1h-1z" /><path fill="#895e5b" d="M93 25h1v1h-1z" /><path fill="#79585c" d="M96 25h1v1h-1zM76 61h1v1h-1zM56 68h1v1h-1z" /><path fill="#6b515d" d="M76 26h1v1h-1zM55 48h1v1h-1zM69 68h1v1h-1z" /><path fill="#b2705a" d="M90 26h1v1h-1z" /><path fill="#9a665c" d="M94 26h1v1h-1z" /><path fill="#6d525c" d="M95 26h1v1h-1zM83 44h1v1h-1z" /><path fill="#1f305e" d="M96 26h1v1h-1zM84 51h1v1h-1zM49 72h1v1h-1zM68 73h1v1h-1zM3 75h1v1h-1zM66 75h1v1h-1zM65 76h1v1h-1z" /><path fill="#433f5d" d="M75 27h1v1h-1zM70 35h1v1h-1z" /><path fill="#b1705b" d="M93 27h1v1h-1zM45 67h1v1h-1z" /><path fill="#49435d" d="M94 27h1v1h-1zM11 78h1v1h-1z" /><path fill="#ac6d5b" d="M75 28h1v1h-1zM56 48h1v1h-1z" /><path fill="#90615b" d="M92 28h1v1h-1zM13 71h1v1h-1z" /><path fill="#2d355d" d="M93 28h1v1h-1z" /><path fill="#76565d" d="M74 29h1v1h-1zM17 70h1v1h-1z" /><path fill="#bb745a" d="M90 29h1v1h-1zM51 50h1v1h-1zM19 69h1v1h-1zM18 70h1v1h-1z" /><path fill="#634e5d" d="M91 29h1v1h-1z" /><path fill="#3b3c5e" d="M73 30h1v1h-1zM35 54h1v1h-1z" /><path fill="#b6725a" d="M89 30h1v1h-1zM22 65h1v1h-1z" /><path fill="#20305e" d="M72 31h1v1h-1zM15 70h1v1h-1z" /><path fill="#3e3e5e" d="M89 31h1v1h-1z" /><path fill="#5b495c" d="M72 32h1v1h-1z" /><path fill="#59495d" d="M88 32h1v1h-1z" /><path fill="#2a355d" d="M71 33h1v1h-1z" /><path fill="#b06f5a" d="M72 33h1v1h-1z" /><path fill="#97645b" d="M87 33h1v1h-1zM21 66h1v1h-1zM30 68h1v1h-1zM67 71h1v1h-1z" /><path fill="#7e595c" d="M71 34h1v1h-1z" /><path fill="#98645b" d="M86 35h1v1h-1zM9 78h1v1h-1z" /><path fill="#1e305e" d="M88 35h1v1h-1zM86 42h1v1h-1zM43 51h1v1h-1zM83 55h1v1h-1zM81 60h1v1h-1zM81 61h1v1h-1zM81 63h1v1h-1zM82 69h1v1h-1zM41 71h1v1h-1zM73 72h1v1h-1zM75 73h1v1h-1zM22 74h1v1h-1zM5 75h1v1h-1zM20 75h1v1h-1zM55 75h1v1h-1zM18 76h1v1h-1zM8 79h1v1h-1z" /><path fill="#25335f" d="M69 36h1v1h-1z" /><path fill="#a56a5b" d="M70 36h1v1h-1z" /><path fill="#56485d" d="M86 36h1v1h-1zM55 77h1v1h-1z" /><path fill="#7b595d" d="M69 37h1v1h-1zM56 80h1v1h-1z" /><path fill="#b4715a" d="M85 37h1v1h-1zM78 57h1v1h-1zM69 67h1v1h-1zM3 78h1v1h-1z" /><path fill="#24325f" d="M86 37h1v1h-1z" /><path fill="#4a435e" d="M68 38h1v1h-1z" /><path fill="#7a575c" d="M85 38h1v1h-1zM59 69h1v1h-1z" /><path fill="#30385d" d="M67 39h1v1h-1z" /><path fill="#ae6e5a" d="M68 39h1v1h-1z" /><path fill="#3c3d5e" d="M85 39h1v1h-1zM54 81h1v1h-1z" /><path fill="#24305f" d="M66 40h1v1h-1z" /><path fill="#21315f" d="M65 41h1v1h-1zM55 81h1v1h-1z" /><path fill="#6f525c" d="M84 41h1v1h-1zM28 58h1v1h-1zM60 64h1v1h-1z" /><path fill="#7f5a5c" d="M65 42h1v1h-1zM59 63h1v1h-1zM4 74h2v1h-2z" /><path fill="#24315d" d="M63 43h1v1h-1z" /><path fill="#875d5c" d="M64 43h1v1h-1z" /><path fill="#a2695b" d="M83 43h1v1h-1zM60 66h1v1h-1zM55 68h1v1h-1z" /><path fill="#32385e" d="M62 44h1v1h-1zM26 70h1v1h-1zM57 73h1v1h-1zM1 74h1v1h-1zM2 78h1v1h-1z" /><path fill="#55475d" d="M61 45h1v1h-1z" /><path fill="#3a3c5e" d="M83 45h1v1h-1z" /><path fill="#46405e" d="M59 46h1v1h-1z" /><path fill="#aa6d5b" d="M82 46h1v1h-1zM77 59h1v1h-1z" /><path fill="#50465c" d="M57 47h1v1h-1z" /><path fill="#94635c" d="M58 47h1v1h-1zM56 76h1v1h-1z" /><path fill="#30375d" d="M54 48h1v1h-1z" /><path fill="#2b345e" d="M51 49h1v1h-1z" /><path fill="#8c5f5c" d="M53 49h1v1h-1z" /><path fill="#bc745a" d="M54 49h1v1h-1zM29 68h1v1h-1zM2 73h1v1h-1z" /><path fill="#22315f" d="M82 49h1v1h-1zM81 52h1v1h-1zM76 62h1v1h-1zM34 68h1v1h-1zM57 68h1v1h-1zM12 78h1v1h-1zM52 81h1v1h-1z" /><path fill="#373a5e" d="M48 50h1v1h-1zM2 72h1v1h-1z" /><path fill="#5f4c5d" d="M49 50h1v1h-1z" /><path fill="#8f605c" d="M50 50h1v1h-1zM4 77h1v1h-1z" /><path fill="#845c5b" d="M81 50h1v1h-1z" /><path fill="#35385e" d="M44 51h1v1h-1z" /><path fill="#5a495d" d="M45 51h1v1h-1z" /><path fill="#ad6e5b" d="M47 51h1v1h-1zM25 61h1v1h-1zM18 74h1v1h-1zM8 78h1v1h-1z" /><path fill="#29345e" d="M40 52h1v1h-1z" /><path fill="#53465c" d="M41 52h1v1h-1zM1 73h1v1h-1z" /><path fill="#29355e" d="M37 53h1v1h-1z" /><path fill="#5e4b5d" d="M38 53h1v1h-1zM60 63h1v1h-1z" /><path fill="#bc745b" d="M40 53h1v1h-1z" /><path fill="#815b5c" d="M80 53h1v1h-1zM25 70h1v1h-1z" /><path fill="#1f2f5e" d="M34 54h1v1h-1zM30 71h1v1h-1zM56 73h1v1h-1zM81 74h1v1h-1zM54 77h1v1h-1zM9 79h1v1h-1zM11 79h1v1h-1zM62 79h1v1h-1zM54 82h1v1h-1z" /><path fill="#b5715a" d="M37 54h1v1h-1zM70 65h1v1h-1zM66 72h1v1h-1z" /><path fill="#49425e" d="M80 54h1v1h-1z" /><path fill="#24315e" d="M32 55h1v1h-1z" /><path fill="#5e4b5c" d="M33 55h1v1h-1z" /><path fill="#9f685b" d="M34 55h1v1h-1zM30 57h1v1h-1zM36 67h1v1h-1z" /><path fill="#ab6d5a" d="M79 55h1v1h-1zM32 56h1v1h-1zM59 70h1v1h-1z" /><path fill="#21305f" d="M80 55h1v1h-1zM46 68h1v1h-1z" /><path fill="#5d4b5d" d="M31 56h1v1h-1zM22 72h1v1h-1z" /><path fill="#67505d" d="M79 56h1v1h-1z" /><path fill="#423f5e" d="M29 57h1v1h-1zM6 71h1v1h-1z" /><path fill="#28345e" d="M79 57h1v1h-1z" /><path fill="#be765a" d="M29 58h1v1h-1zM58 64h1v1h-1z" /><path fill="#6a515d" d="M78 58h1v1h-1z" /><path fill="#2b3460" d="M26 59h1v1h-1z" /><path fill="#8f605b" d="M27 59h1v1h-1zM60 78h1v1h-1z" /><path fill="#25325f" d="M78 59h1v1h-1zM59 67h1v1h-1z" /><path fill="#a3695b" d="M26 60h1v1h-1zM54 68h1v1h-1z" /><path fill="#4a425e" d="M77 60h1v1h-1z" /><path fill="#34395e" d="M24 61h1v1h-1z" /><path fill="#a46a5a" d="M24 62h1v1h-1z" /><path fill="#8c605c" d="M60 62h1v1h-1z" /><path fill="#9b665c" d="M75 62h1v1h-1z" /><path fill="#7a585c" d="M72 63h1v1h-1z" /><path fill="#a66b5b" d="M74 63h1v1h-1z" /><path fill="#2c355f" d="M75 63h1v1h-1z" /><path fill="#59485d" d="M22 64h1v1h-1z" /><path fill="#35395e" d="M59 64h1v1h-1zM21 65h1v1h-1zM33 68h1v1h-1z" /><path fill="#624d5d" d="M71 64h1v1h-1zM9 71h1v1h-1z" /><path fill="#31385f" d="M74 64h1v1h-1z" /><path fill="#26335f" d="M71 65h1v1h-1zM29 69h1v1h-1zM69 69h1v1h-1z" /><path fill="#845c5c" d="M72 65h1v1h-1zM15 76h1v1h-1z" /><path fill="#2c365e" d="M73 65h1v1h-1z" /><path fill="#223060" d="M20 66h1v1h-1z" /><path fill="#3a3b5e" d="M58 66h1v1h-1z" /><path fill="#6e525c" d="M70 66h1v1h-1zM10 71h1v1h-1z" /><path fill="#6d525d" d="M20 67h1v1h-1z" /><path fill="#af6f5a" d="M35 67h1v1h-1zM68 69h1v1h-1z" /><path fill="#95645b" d="M37 67h1v1h-1zM41 67h2v1h-2z" /><path fill="#8a5f5c" d="M39 67h1v1h-1z" /><path fill="#28335f" d="M70 67h1v1h-1z" /><path fill="#56485e" d="M19 68h1v1h-1z" /><path fill="#2f375f" d="M47 68h1v1h-1z" /><path fill="#3d3d5e" d="M48 68h1v1h-1z" /><path fill="#604d5d" d="M50 68h1v1h-1z" /><path fill="#73555c" d="M51 68h1v1h-1zM64 75h1v1h-1z" /><path fill="#47425e" d="M59 68h1v1h-1z" /><path fill="#45405d" d="M18 69h1v1h-1z" /><path fill="#50465e" d="M28 69h1v1h-1z" /><path fill="#423e5d" d="M16 70h1v1h-1z" /><path fill="#58495d" d="M68 70h1v1h-1z" /><path fill="#2e365f" d="M5 71h1v1h-1z" /><path fill="#4c435d" d="M7 71h1v1h-1zM19 74h1v1h-1z" /><path fill="#57475c" d="M8 71h1v1h-1z" /><path fill="#b8725a" d="M15 71h1v1h-1zM7 78h1v1h-1z" /><path fill="#3c3c5e" d="M24 71h1v1h-1z" /><path fill="#78565c" d="M3 72h1v1h-1z" /><path fill="#b3715a" d="M21 72h1v1h-1zM55 78h1v1h-1zM55 80h1v1h-1z" /><path fill="#855d5c" d="M20 73h1v1h-1z" /><path fill="#2b355f" d="M21 73h1v1h-1z" /><path fill="#52465e" d="M66 73h1v1h-1z" /><path fill="#614d5d" d="M2 74h1v1h-1zM53 80h1v1h-1z" /><path fill="#77575c" d="M3 74h1v1h-1z" /><path fill="#ba745a" d="M16 75h1v1h-1z" /><path fill="#75555d" d="M17 75h1v1h-1z" /><path fill="#27345f" d="M18 75h1v1h-1z" /><path fill="#33385f" d="M3 77h1v1h-1z" /><path fill="#363a5f" d="M14 77h1v1h-1z" /><path fill="#51455e" d="M62 77h1v1h-1z" /><path fill="#70545d" d="M10 78h1v1h-1z" /><path fill="#91625c" d="M54 79h1v1h-1z" /></svg>