<svg xmlns="http://www.w3.org/2000/svg" viewBox="0 0 100 100" width="1em" height="1em"><path fill="#00afff" d="M0 10h1v1h-1zM9 15h1v1h-1zM10 16h1v1h-1zM12 17h1v1h-1zM13 18h2v1h-2zM15 19h1v1h-1zM26 25h1v1h-1zM28 26h1v1h-1zM31 28h1v1h-1zM12 31h2v1h-2zM16 33h1v1h-1zM18 34h1v1h-1zM19 35h1v1h-1zM21 36h1v1h-1zM28 40h1v1h-1zM31 42h1v1h-1zM0 53h1v1h-1zM2 54h1v1h-1zM6 56h1v1h-1zM9 58h1v1h-1zM43 64h1v1h-1zM56 71h1v1h-1zM57 72h1v1h-1zM59 73h1v1h-1zM60 74h2v1h-2zM39 75h1v1h-1zM47 80h1v1h-1zM49 81h1v1h-1zM52 83h1v1h-1zM54 84h1v1h-1zM56 85h1v1h-1zM58 86h1v1h-1zM60 87h1v1h-1z" /><path fill="#0081ca" d="M74 10h1v1h-1zM99 10h1v1h-1zM72 11h1v1h-1zM97 11h1v1h-1zM61 18h1v1h-1zM52 23h1v1h-1zM48 25h1v1h-1zM93 27h1v1h-1zM43 28h1v1h-1zM92 28h1v1h-1zM40 30h1v1h-1zM88 30h2v1h-2zM62 31h1v1h-1zM60 32h1v1h-1zM58 33h1v1h-1zM48 39h1v1h-1zM99 39h1v1h-1zM46 40h1v1h-1zM97 40h1v1h-1zM38 45h1v1h-1zM51 52h2v1h-2zM50 53h1v1h-1zM48 54h1v1h-1zM72 54h1v1h-1zM68 56h1v1h-1zM43 57h1v1h-1zM67 57h1v1h-1zM40 59h1v1h-1zM63 59h1v1h-1zM62 60h1v1h-1zM87 60h1v1h-1zM60 61h1v1h-1zM81 64h1v1h-1zM77 66h1v1h-1zM75 67h1v1h-1zM99 67h1v1h-1zM97 68h1v1h-1zM92 71h1v1h-1zM91 72h1v1h-1zM63 74h1v1h-1zM84 76h1v1h-1zM82 77h1v1h-1zM75 81h1v1h-1zM71 83h1v1h-1zM70 84h1v1h-1zM66 86h2v1h-2zM65 87h1v1h-1zM63 88h1v1h-1z" /><path fill="#00b0ff" d="M0 11h3v1h-3zM0 12h4v1h-4zM0 13h6v1h-6zM0 14h8v1h-8zM0 15h9v1h-9zM0 16h10v1h-10zM0 17h12v1h-12zM0 18h13v1h-13zM0 19h15v1h-15zM0 20h18v1h-18zM0 21h20v1h-20zM0 22h22v1h-22zM0 23h23v1h-23zM0 24h25v1h-25zM0 25h26v1h-26zM0 26h28v1h-28zM0 27h30v1h-30zM0 28h31v1h-31zM0 29h34v1h-34zM0 30h36v1h-36zM0 31h12v1h-12zM14 31h23v1h-23zM0 32h12v1h-12zM14 32h23v1h-23zM0 33h12v1h-12zM17 33h20v1h-20zM0 34h12v1h-12zM19 34h18v1h-18zM0 35h12v1h-12zM20 35h17v1h-17zM0 36h12v1h-12zM22 36h15v1h-15zM0 37h12v1h-12zM23 37h14v1h-14zM0 38h12v1h-12zM24 38h13v1h-13zM0 39h12v1h-12zM26 39h11v1h-11zM0 40h12v1h-12zM29 40h8v1h-8zM0 41h12v1h-12zM30 41h7v1h-7zM0 42h12v1h-12zM32 42h5v1h-5zM0 43h12v1h-12zM33 43h4v1h-4zM0 44h12v1h-12zM35 44h2v1h-2zM0 45h12v1h-12zM0 46h12v1h-12zM0 47h12v1h-12zM0 48h12v1h-12zM0 49h12v1h-12zM0 50h12v1h-12zM0 51h12v1h-12zM0 52h12v1h-12zM1 53h11v1h-11zM3 54h9v1h-9zM4 55h8v1h-8zM7 56h5v1h-5zM7 57h5v1h-5zM10 58h2v1h-2zM11 59h1v1h-1zM38 62h2v1h-2zM38 63h4v1h-4zM38 64h5v1h-5zM38 65h7v1h-7zM38 66h9v1h-9zM38 67h11v1h-11zM38 68h13v1h-13zM38 69h15v1h-15zM38 70h17v1h-17zM38 71h18v1h-18zM38 72h19v1h-19zM38 73h21v1h-21zM38 74h22v1h-22zM40 75h22v1h-22zM40 76h22v1h-22zM42 77h20v1h-20zM44 78h18v1h-18zM45 79h17v1h-17zM48 80h14v1h-14zM50 81h12v1h-12zM51 82h11v1h-11zM53 83h9v1h-9zM55 84h7v1h-7zM57 85h5v1h-5zM59 86h3v1h-3zM59 87h1v1h-1zM61 87h1v1h-1zM61 88h1v1h-1z" /><path fill="#0080ca" d="M73 11h1v1h-1zM98 11h1v1h-1zM68 14h1v1h-1zM93 14h1v1h-1zM64 16h1v1h-1zM89 16h1v1h-1zM62 17h1v1h-1zM53 22h1v1h-1zM99 24h1v1h-1zM47 26h1v1h-1zM95 26h1v1h-1zM42 29h1v1h-1zM61 31h1v1h-1zM56 34h2v1h-2zM51 37h1v1h-1zM44 41h1v1h-1zM42 42h1v1h-1zM91 44h1v1h-1zM58 48h1v1h-1zM57 49h1v1h-1zM53 51h1v1h-1zM74 53h1v1h-1zM66 57h1v1h-1zM40 61h1v1h-1zM58 62h1v1h-1zM84 62h1v1h-1zM82 63h1v1h-1zM54 64h1v1h-1zM76 67h1v1h-1zM71 70h1v1h-1zM67 72h1v1h-1zM90 72h1v1h-1zM65 73h1v1h-1zM89 73h1v1h-1zM64 74h1v1h-1zM87 74h1v1h-1zM85 75h2v1h-2zM73 82h1v1h-1z" /><path fill="#0081cb" d="M74 11h1v1h-1zM99 11h1v1h-1zM72 12h3v1h-3zM97 12h3v1h-3zM69 13h6v1h-6zM95 13h5v1h-5zM67 14h1v1h-1zM69 14h6v1h-6zM92 14h1v1h-1zM94 14h6v1h-6zM67 15h8v1h-8zM91 15h9v1h-9zM65 16h10v1h-10zM90 16h10v1h-10zM63 17h12v1h-12zM88 17h12v1h-12zM62 18h13v1h-13zM88 18h12v1h-12zM59 19h16v1h-16zM88 19h12v1h-12zM57 20h18v1h-18zM88 20h12v1h-12zM55 21h20v1h-20zM88 21h12v1h-12zM54 22h21v1h-21zM88 22h12v1h-12zM53 23h22v1h-22zM88 23h12v1h-12zM50 24h25v1h-25zM88 24h11v1h-11zM49 25h26v1h-26zM88 25h9v1h-9zM48 26h27v1h-27zM88 26h7v1h-7zM46 27h29v1h-29zM88 27h5v1h-5zM94 27h1v1h-1zM44 28h31v1h-31zM88 28h4v1h-4zM41 29h1v1h-1zM43 29h32v1h-32zM88 29h3v1h-3zM41 30h34v1h-34zM38 31h23v1h-23zM63 31h12v1h-12zM38 32h22v1h-22zM63 32h12v1h-12zM38 33h20v1h-20zM63 33h12v1h-12zM38 34h18v1h-18zM63 34h12v1h-12zM38 35h18v1h-18zM63 35h12v1h-12zM38 36h15v1h-15zM63 36h12v1h-12zM38 37h13v1h-13zM63 37h12v1h-12zM38 38h12v1h-12zM63 38h12v1h-12zM38 39h10v1h-10zM63 39h12v1h-12zM38 40h8v1h-8zM63 40h12v1h-12zM98 40h2v1h-2zM38 41h6v1h-6zM63 41h12v1h-12zM96 41h4v1h-4zM38 42h4v1h-4zM43 42h1v1h-1zM63 42h12v1h-12zM94 42h6v1h-6zM38 43h3v1h-3zM63 43h12v1h-12zM93 43h7v1h-7zM38 44h1v1h-1zM63 44h12v1h-12zM90 44h1v1h-1zM92 44h8v1h-8zM63 45h12v1h-12zM90 45h10v1h-10zM63 46h12v1h-12zM88 46h12v1h-12zM60 47h15v1h-15zM88 47h12v1h-12zM60 48h15v1h-15zM88 48h12v1h-12zM58 49h17v1h-17zM88 49h12v1h-12zM55 50h20v1h-20zM88 50h12v1h-12zM54 51h21v1h-21zM88 51h12v1h-12zM53 52h22v1h-22zM88 52h12v1h-12zM51 53h22v1h-22zM88 53h12v1h-12zM49 54h23v1h-23zM88 54h12v1h-12zM46 55h24v1h-24zM88 55h12v1h-12zM45 56h23v1h-23zM88 56h12v1h-12zM44 57h22v1h-22zM88 57h12v1h-12zM41 58h25v1h-25zM88 58h12v1h-12zM41 59h22v1h-22zM88 59h12v1h-12zM39 60h23v1h-23zM88 60h12v1h-12zM41 61h19v1h-19zM87 61h13v1h-13zM42 62h16v1h-16zM85 62h15v1h-15zM44 63h13v1h-13zM84 63h16v1h-16zM46 64h8v1h-8zM82 64h18v1h-18zM47 65h7v1h-7zM80 65h20v1h-20zM49 66h2v1h-2zM78 66h22v1h-22zM77 67h22v1h-22zM75 68h22v1h-22zM98 68h1v1h-1zM72 69h24v1h-24zM70 70h1v1h-1zM72 70h23v1h-23zM70 71h22v1h-22zM68 72h22v1h-22zM66 73h23v1h-23zM65 74h22v1h-22zM63 75h22v1h-22zM63 76h21v1h-21zM63 77h19v1h-19zM63 78h18v1h-18zM63 79h16v1h-16zM63 80h14v1h-14zM63 81h12v1h-12zM63 82h10v1h-10zM63 83h8v1h-8zM72 83h1v1h-1zM63 84h7v1h-7zM63 85h5v1h-5zM63 86h3v1h-3zM63 87h2v1h-2z" /><path fill="#0080cb" d="M71 12h1v1h-1zM96 12h1v1h-1zM94 13h1v1h-1zM66 15h1v1h-1zM60 18h1v1h-1zM97 25h1v1h-1zM45 27h1v1h-1zM53 36h1v1h-1zM50 38h1v1h-1zM41 43h1v1h-1zM92 43h1v1h-1zM39 44h1v1h-1zM89 45h1v1h-1zM62 46h1v1h-1zM59 48h1v1h-1zM73 53h1v1h-1zM70 55h1v1h-1zM39 59h1v1h-1zM86 61h1v1h-1zM83 63h1v1h-1zM55 64h1v1h-1zM79 65h1v1h-1zM51 66h1v1h-1zM74 68h1v1h-1zM96 69h1v1h-1zM69 71h1v1h-1zM79 79h1v1h-1zM77 80h1v1h-1zM68 85h1v1h-1z" /><path fill="#0090dc" d="M37 32h1v1h-1zM37 33h1v1h-1zM37 34h1v1h-1zM37 35h1v1h-1zM37 36h1v1h-1zM37 37h1v1h-1zM37 38h1v1h-1zM37 39h1v1h-1zM37 40h1v1h-1zM37 41h1v1h-1zM37 42h1v1h-1zM37 43h1v1h-1zM37 44h1v1h-1zM62 75h1v1h-1zM62 76h1v1h-1zM62 77h1v1h-1zM62 78h1v1h-1zM62 79h1v1h-1zM62 80h1v1h-1zM62 81h1v1h-1zM62 82h1v1h-1zM62 83h1v1h-1zM62 84h1v1h-1zM62 85h1v1h-1zM62 86h1v1h-1zM62 87h1v1h-1zM62 88h1v1h-1z" /><path fill="#0090dd" d="M37 45h1v1h-1z" /><path fill="#0082cc" d="M38 60h1v1h-1zM45 64h1v1h-1z" /><path fill="#00b0fd" d="M38 61h1v1h-1z" /><path fill="#0098e3" d="M39 61h1v1h-1z" /><path fill="#00acfa" d="M40 62h1v1h-1z" /><path fill="#008bd6" d="M41 62h1v1h-1z" /><path fill="#00a9f5" d="M42 63h1v1h-1z" /><path fill="#0084d0" d="M43 63h1v1h-1z" /><path fill="#009eeb" d="M44 64h1v1h-1z" /><path fill="#00aefd" d="M45 65h1v1h-1z" /><path fill="#0096e1" d="M46 65h1v1h-1z" /><path fill="#00abfa" d="M47 66h1v1h-1z" /><path fill="#008ad5" d="M48 66h1v1h-1z" /><path fill="#00a5f2" d="M49 67h1v1h-1z" /></svg>