<svg xmlns="http://www.w3.org/2000/svg" viewBox="0 0 100 100" width="1em" height="1em"><path fill="#0064df" d="M23 17h1v1h-1zM26 17h3v1h-3zM22 18h6v1h-6zM20 19h8v1h-8zM38 19h1v1h-1zM18 20h11v1h-11zM17 21h11v1h-11zM41 21h1v1h-1zM16 22h12v1h-12zM43 22h1v1h-1zM15 23h13v1h-13zM14 24h14v1h-14zM13 25h16v1h-16zM46 25h1v1h-1zM12 26h16v1h-16zM47 26h1v1h-1zM11 27h15v1h-15zM10 28h13v1h-13zM24 28h1v1h-1zM34 28h1v1h-1zM9 29h13v1h-13zM49 29h1v1h-1zM8 30h1v1h-1zM10 30h11v1h-11zM36 30h1v1h-1zM8 31h2v1h-2zM13 31h7v1h-7zM8 32h4v1h-4zM14 32h5v1h-5zM6 33h9v1h-9zM16 33h2v1h-2zM7 34h9v1h-9zM6 35h11v1h-11zM6 36h10v1h-10zM42 36h1v1h-1zM4 37h12v1h-12zM5 38h10v1h-10zM4 39h11v1h-11zM44 39h1v1h-1zM3 40h11v1h-11zM4 41h10v1h-10zM3 42h10v1h-10zM2 43h11v1h-11zM3 44h10v1h-10zM48 44h1v1h-1zM2 45h10v1h-10zM2 46h10v1h-10zM1 47h11v1h-11zM3 48h9v1h-9zM50 48h1v1h-1zM7 49h4v1h-4z" /><path fill="#0063df" d="M24 17h1v1h-1zM32 17h1v1h-1zM28 18h1v1h-1zM36 18h1v1h-1zM17 20h1v1h-1zM40 20h1v1h-1zM15 22h1v1h-1zM28 24h1v1h-1zM45 24h1v1h-1zM11 26h1v1h-1zM26 27h2v1h-2zM29 27h1v1h-1zM23 28h1v1h-1zM33 28h1v1h-1zM50 30h1v1h-1zM38 31h1v1h-1zM17 34h1v1h-1zM41 35h1v1h-1zM55 37h1v1h-1zM4 38h1v1h-1zM3 41h1v1h-1zM58 41h1v1h-1zM13 42h1v1h-1zM59 43h1v1h-1zM2 44h1v1h-1zM12 46h1v1h-1zM12 47h1v1h-1zM52 51h1v1h-1zM53 53h1v1h-1z" /><path fill="#0064de" d="M25 17h1v1h-1zM21 18h1v1h-1zM16 21h1v1h-1zM28 23h1v1h-1zM13 24h1v1h-1zM12 25h1v1h-1zM28 26h1v1h-1zM9 28h1v1h-1zM22 29h1v1h-1zM10 31h1v1h-1zM12 31h1v1h-1zM20 31h1v1h-1zM6 34h1v1h-1zM16 34h1v1h-1zM5 35h1v1h-1zM5 36h1v1h-1zM14 40h1v1h-1zM13 43h1v1h-1zM11 49h1v1h-1z" /><path fill="#0064e0" d="M29 17h3v1h-3zM33 17h2v1h-2zM29 18h7v1h-7zM28 19h10v1h-10zM29 20h11v1h-11zM29 21h12v1h-12zM28 22h15v1h-15zM29 23h15v1h-15zM29 24h16v1h-16zM29 25h17v1h-17zM29 26h18v1h-18zM30 27h19v1h-19zM35 28h14v1h-14zM35 29h14v1h-14zM37 30h13v1h-13zM39 31h12v1h-12zM40 32h12v1h-12zM40 33h13v1h-13zM40 34h14v1h-14zM42 35h12v1h-12zM43 36h12v1h-12zM43 37h12v1h-12zM44 38h12v1h-12zM45 39h13v1h-13zM46 40h11v1h-11zM47 41h11v1h-11zM47 42h12v1h-12zM48 43h11v1h-11zM49 44h11v1h-11zM49 45h11v1h-11zM50 46h9v1h-9zM50 47h8v1h-8zM51 48h7v1h-7zM52 49h5v1h-5zM11 50h1v1h-1zM51 50h5v1h-5zM53 51h3v1h-3zM53 52h2v1h-2z" /><path fill="#0082fa" d="M67 17h2v1h-2zM75 17h1v1h-1zM78 18h2v1h-2zM63 19h1v1h-1zM82 20h1v1h-1zM60 21h1v1h-1zM59 22h1v1h-1zM85 22h1v1h-1zM57 25h1v1h-1zM84 25h1v1h-1zM76 26h1v1h-1zM83 26h1v1h-1zM78 27h1v1h-1zM82 27h1v1h-1zM82 28h1v1h-1zM90 28h1v1h-1zM83 32h1v1h-1zM93 33h1v1h-1zM94 35h1v1h-1zM87 40h1v1h-1zM87 41h1v1h-1zM88 44h1v1h-1zM97 44h1v1h-1zM89 47h1v1h-1zM98 47h1v1h-1zM98 48h1v1h-1zM38 50h1v1h-1zM48 50h1v1h-1zM47 51h1v1h-1zM37 52h1v1h-1zM46 53h1v1h-1zM90 53h1v1h-1zM99 53h1v1h-1zM90 56h1v1h-1zM99 57h1v1h-1zM42 60h1v1h-1zM28 65h1v1h-1zM26 68h1v1h-1zM35 71h1v1h-1zM9 74h1v1h-1zM31 76h1v1h-1zM30 77h1v1h-1zM27 80h1v1h-1zM10 81h2v1h-2zM21 82h1v1h-1z" /><path fill="#0082fb" d="M69 17h6v1h-6zM64 18h1v1h-1zM66 18h12v1h-12zM64 19h16v1h-16zM81 19h1v1h-1zM61 20h21v1h-21zM61 21h23v1h-23zM60 22h25v1h-25zM58 23h28v1h-28zM57 24h29v1h-29zM58 25h9v1h-9zM75 25h9v1h-9zM86 25h2v1h-2zM58 26h7v1h-7zM77 26h6v1h-6zM85 26h4v1h-4zM59 27h5v1h-5zM79 27h3v1h-3zM83 27h6v1h-6zM61 28h3v1h-3zM79 28h2v1h-2zM83 28h7v1h-7zM82 29h9v1h-9zM81 30h11v1h-11zM83 31h10v1h-10zM84 32h9v1h-9zM83 33h10v1h-10zM84 34h10v1h-10zM85 35h9v1h-9zM86 36h9v1h-9zM86 37h9v1h-9zM86 38h10v1h-10zM87 39h9v1h-9zM88 40h8v1h-8zM44 41h1v1h-1zM88 41h9v1h-9zM44 42h2v1h-2zM88 42h10v1h-10zM44 43h2v1h-2zM89 43h8v1h-8zM42 44h5v1h-5zM89 44h8v1h-8zM42 45h6v1h-6zM89 45h9v1h-9zM42 46h6v1h-6zM89 46h10v1h-10zM41 47h8v1h-8zM90 47h8v1h-8zM40 48h10v1h-10zM90 48h8v1h-8zM40 49h9v1h-9zM89 49h10v1h-10zM39 50h9v1h-9zM90 50h9v1h-9zM38 51h9v1h-9zM90 51h9v1h-9zM38 52h10v1h-10zM90 52h10v1h-10zM36 53h10v1h-10zM91 53h8v1h-8zM37 54h9v1h-9zM91 54h8v1h-8zM36 55h10v1h-10zM90 55h9v1h-9zM35 56h10v1h-10zM91 56h8v1h-8zM35 57h9v1h-9zM91 57h8v1h-8zM34 58h9v1h-9zM90 58h1v1h-1zM33 59h10v1h-10zM33 60h9v1h-9zM31 61h11v1h-11zM31 62h10v1h-10zM31 63h10v1h-10zM30 64h10v1h-10zM29 65h10v1h-10zM28 66h11v1h-11zM28 67h11v1h-11zM27 68h10v1h-10zM25 69h12v1h-12zM25 70h12v1h-12zM13 71h2v1h-2zM24 71h11v1h-11zM12 72h4v1h-4zM19 72h2v1h-2zM22 72h13v1h-13zM11 73h23v1h-23zM10 74h24v1h-24zM9 75h23v1h-23zM8 76h23v1h-23zM6 77h24v1h-24zM7 78h22v1h-22zM7 79h21v1h-21zM10 80h17v1h-17zM12 81h13v1h-13zM15 82h6v1h-6zM22 82h2v1h-2z" /><path fill="#0081fa" d="M76 17h1v1h-1zM65 18h1v1h-1zM80 19h1v1h-1zM56 25h1v1h-1zM67 25h2v1h-2zM88 25h1v1h-1zM56 26h1v1h-1zM65 26h1v1h-1zM84 26h1v1h-1zM55 27h3v1h-3zM64 27h1v1h-1zM89 27h1v1h-1zM53 28h6v1h-6zM81 28h1v1h-1zM52 29h9v1h-9zM80 29h2v1h-2zM91 29h1v1h-1zM52 30h9v1h-9zM53 31h7v1h-7zM54 32h6v1h-6zM54 33h4v1h-4zM55 34h3v1h-3zM56 35h2v1h-2zM56 36h1v1h-1zM43 43h1v1h-1zM88 43h1v1h-1zM41 46h1v1h-1zM48 46h1v1h-1zM40 47h1v1h-1zM89 48h1v1h-1zM39 49h1v1h-1zM36 54h1v1h-1zM99 54h1v1h-1zM34 57h1v1h-1zM44 57h1v1h-1zM90 57h1v1h-1zM43 58h1v1h-1zM91 58h9v1h-9zM91 59h8v1h-8zM32 60h1v1h-1zM91 60h8v1h-8zM91 61h8v1h-8zM90 62h10v1h-10zM30 63h1v1h-1zM90 63h9v1h-9zM40 64h1v1h-1zM90 64h9v1h-9zM39 65h1v1h-1zM91 65h9v1h-9zM90 66h9v1h-9zM27 67h1v1h-1zM90 67h9v1h-9zM37 68h1v1h-1zM90 68h9v1h-9zM90 69h8v1h-8zM24 70h1v1h-1zM91 70h8v1h-8zM12 71h1v1h-1zM23 71h1v1h-1zM92 71h6v1h-6zM11 72h1v1h-1zM21 72h1v1h-1zM93 72h4v1h-4zM34 73h1v1h-1zM94 73h3v1h-3zM95 74h1v1h-1zM8 75h1v1h-1zM32 75h1v1h-1zM7 76h1v1h-1zM29 78h1v1h-1zM9 80h1v1h-1zM14 82h1v1h-1z" /><path fill="#0063de" d="M19 19h1v1h-1zM28 21h1v1h-1zM14 23h1v1h-1zM10 27h1v1h-1zM9 30h1v1h-1zM21 30h1v1h-1zM7 31h1v1h-1zM7 32h1v1h-1zM12 32h2v1h-2zM19 32h1v1h-1zM18 33h1v1h-1zM17 35h1v1h-1zM16 36h1v1h-1zM15 38h1v1h-1zM12 45h1v1h-1z" /><path fill="#0081fb" d="M84 21h1v1h-1zM86 23h1v1h-1zM87 24h1v1h-1zM73 25h2v1h-2zM85 25h1v1h-1zM60 28h1v1h-1zM82 31h1v1h-1zM85 36h1v1h-1zM95 37h1v1h-1zM96 39h1v1h-1zM96 40h1v1h-1zM43 42h1v1h-1zM97 43h1v1h-1zM90 54h1v1h-1zM35 55h1v1h-1zM99 55h1v1h-1zM34 56h1v1h-1zM99 56h1v1h-1zM33 58h1v1h-1zM32 59h1v1h-1zM43 59h1v1h-1zM30 62h1v1h-1zM41 62h1v1h-1zM29 64h1v1h-1zM22 71h1v1h-1zM16 72h3v1h-3zM10 73h1v1h-1zM6 78h1v1h-1zM28 79h1v1h-1zM8 80h1v1h-1zM25 81h1v1h-1zM13 82h1v1h-1z" /><path fill="#0063e0" d="M44 23h1v1h-1zM39 32h1v1h-1zM56 38h1v1h-1zM57 40h1v1h-1zM51 49h1v1h-1z" /><path fill="#0080fb" d="M86 24h1v1h-1zM61 29h1v1h-1z" /><path fill="#0081f9" d="M55 26h1v1h-1zM57 26h1v1h-1zM54 27h1v1h-1zM61 30h1v1h-1zM60 31h1v1h-1zM55 35h1v1h-1zM46 43h1v1h-1zM90 60h1v1h-1zM89 67h1v1h-1zM89 68h1v1h-1zM96 74h1v1h-1z" /><path fill="#0064e1" d="M28 27h1v1h-1zM2 48h1v1h-1z" /><path fill="#0080f9" d="M58 27h1v1h-1zM59 28h1v1h-1zM52 31h1v1h-1zM53 32h1v1h-1zM58 33h1v1h-1zM54 34h1v1h-1zM90 59h1v1h-1zM99 59h1v1h-1zM99 60h1v1h-1zM90 61h1v1h-1zM99 61h1v1h-1zM99 64h1v1h-1zM90 65h1v1h-1zM97 72h1v1h-1zM97 73h1v1h-1zM5 77h1v1h-1z" /><path fill="#007af5" d="M51 30h1v1h-1zM10 61h1v1h-1z" /><path fill="#0064dd" d="M11 31h1v1h-1z" /><path fill="#0068e2" d="M51 31h1v1h-1z" /><path fill="#006fe9" d="M52 32h1v1h-1z" /><path fill="#0065df" d="M15 33h1v1h-1zM46 41h1v1h-1z" /><path fill="#007af3" d="M53 33h1v1h-1z" /><path fill="#006ae4" d="M54 35h1v1h-1z" /><path fill="#0076f1" d="M55 36h1v1h-1z" /><path fill="#0068e3" d="M45 40h1v1h-1zM1 48h1v1h-1z" /><path fill="#0080f8" d="M45 41h1v1h-1zM9 73h1v1h-1z" /><path fill="#0072ed" d="M46 42h1v1h-1zM48 45h1v1h-1z" /><path fill="#0067e3" d="M47 43h1v1h-1z" /><path fill="#007ff8" d="M47 44h1v1h-1zM10 65h1v1h-1zM1 67h1v1h-1zM11 71h1v1h-1zM2 72h1v1h-1zM4 76h1v1h-1z" /><path fill="#0163df" d="M60 44h1v1h-1z" /><path fill="#0766de" d="M60 45h1v1h-1zM62 47h1v1h-1zM58 48h1v1h-1zM54 54h1v1h-1zM54 55h1v1h-1zM67 56h1v1h-1zM71 62h1v1h-1zM75 68h1v1h-1zM64 71h1v1h-1zM70 74h1v1h-1z" /><path fill="#0066e3" d="M49 46h1v1h-1z" /><path fill="#0365df" d="M59 46h1v1h-1z" /><path fill="#0867df" d="M60 46h1v1h-1zM60 47h2v1h-2zM59 48h4v1h-4zM58 49h6v1h-6zM58 50h6v1h-6zM57 51h7v1h-7zM56 52h9v1h-9zM56 53h9v1h-9zM55 54h11v1h-11zM55 55h12v1h-12zM56 56h11v1h-11zM56 57h12v1h-12zM57 58h11v1h-11zM57 59h13v1h-13zM58 60h12v1h-12zM59 61h12v1h-12zM59 62h12v1h-12zM60 63h12v1h-12zM61 64h11v1h-11zM61 65h12v1h-12zM62 66h12v1h-12zM63 67h11v1h-11zM63 68h12v1h-12zM64 69h11v1h-11zM65 70h9v1h-9zM65 71h8v1h-8zM66 72h6v1h-6zM67 73h4v1h-4zM68 74h2v1h-2zM68 75h1v1h-1z" /><path fill="#0766df" d="M61 46h1v1h-1z" /><path fill="#007df5" d="M49 47h1v1h-1z" /><path fill="#0164e0" d="M58 47h1v1h-1z" /><path fill="#0767df" d="M59 47h1v1h-1zM57 50h1v1h-1zM56 51h1v1h-1zM64 51h1v1h-1zM65 52h1v1h-1zM55 53h1v1h-1zM73 65h1v1h-1zM63 69h1v1h-1zM73 71h1v1h-1zM65 72h1v1h-1zM71 73h1v1h-1z" /><path fill="#0072eb" d="M1 49h1v1h-1zM11 52h1v1h-1zM0 53h1v1h-1zM0 55h1v1h-1zM10 56h1v1h-1zM10 58h1v1h-1z" /><path fill="#0072ec" d="M2 49h1v1h-1zM1 50h6v1h-6zM1 51h10v1h-10zM1 52h10v1h-10zM1 53h10v1h-10zM1 54h10v1h-10zM1 55h10v1h-10zM0 56h10v1h-10zM0 57h11v1h-11zM1 58h9v1h-9zM0 59h10v1h-10zM8 60h2v1h-2z" /><path fill="#0071ec" d="M3 49h1v1h-1zM7 50h1v1h-1zM0 54h1v1h-1zM0 58h1v1h-1zM10 60h1v1h-1z" /><path fill="#006ee9" d="M4 49h1v1h-1z" /><path fill="#006be5" d="M5 49h1v1h-1z" /><path fill="#0066e1" d="M6 49h1v1h-1z" /><path fill="#0364de" d="M57 49h1v1h-1z" /><path fill="#0070eb" d="M8 50h1v1h-1zM11 51h1v1h-1z" /><path fill="#006ce7" d="M9 50h1v1h-1z" /><path fill="#0066e2" d="M10 50h1v1h-1z" /><path fill="#0165e0" d="M56 50h1v1h-1zM54 53h1v1h-1z" /><path fill="#0366e0" d="M55 52h1v1h-1z" /><path fill="#0866df" d="M65 53h1v1h-1zM68 57h1v1h-1zM56 58h1v1h-1zM60 64h1v1h-1zM62 68h1v1h-1zM72 72h1v1h-1zM66 73h1v1h-1z" /><path fill="#0866de" d="M66 54h1v1h-1zM55 56h1v1h-1zM59 63h1v1h-1zM61 66h1v1h-1zM74 67h1v1h-1z" /><path fill="#0867de" d="M68 58h1v1h-1zM72 64h1v1h-1zM62 67h1v1h-1zM64 70h1v1h-1zM67 74h1v1h-1z" /><path fill="#0071eb" d="M10 59h1v1h-1z" /><path fill="#0079f3" d="M0 60h1v1h-1z" /><path fill="#0078f2" d="M1 60h2v1h-2z" /><path fill="#0077f1" d="M3 60h1v1h-1z" /><path fill="#0075ee" d="M4 60h1v1h-1z" /><path fill="#0074ee" d="M5 60h1v1h-1z" /><path fill="#0073ec" d="M6 60h1v1h-1z" /><path fill="#0073ed" d="M7 60h1v1h-1z" /><path fill="#0767de" d="M57 60h1v1h-1zM58 61h1v1h-1zM60 65h1v1h-1z" /><path fill="#007bf5" d="M0 61h1v1h-1zM0 64h1v1h-1zM10 64h1v1h-1z" /><path fill="#007cf6" d="M1 61h7v1h-7zM0 62h10v1h-10zM1 63h10v1h-10zM1 64h9v1h-9zM1 65h6v1h-6zM1 66h1v1h-1z" /><path fill="#007cf5" d="M8 61h1v1h-1zM0 63h1v1h-1zM0 65h1v1h-1z" /><path fill="#007bf4" d="M9 61h1v1h-1z" /><path fill="#007bf6" d="M10 62h1v1h-1z" /><path fill="#0080fa" d="M99 63h1v1h-1zM98 69h1v1h-1zM7 75h1v1h-1zM6 76h1v1h-1z" /><path fill="#007df7" d="M7 65h2v1h-2zM3 66h1v1h-1zM91 71h1v1h-1z" /><path fill="#007ef9" d="M9 65h1v1h-1zM11 67h1v1h-1zM12 69h1v1h-1z" /><path fill="#007cf7" d="M2 66h1v1h-1z" /><path fill="#007ef7" d="M4 66h1v1h-1zM93 73h1v1h-1zM94 74h1v1h-1zM95 75h1v1h-1z" /><path fill="#007ef8" d="M5 66h1v1h-1zM10 72h1v1h-1z" /><path fill="#007ff9" d="M6 66h6v1h-6zM2 67h9v1h-9zM1 68h11v1h-11zM1 69h11v1h-11zM1 70h12v1h-12zM2 71h9v1h-9zM3 72h7v1h-7zM3 73h6v1h-6zM3 74h6v1h-6zM4 75h3v1h-3zM5 76h1v1h-1z" /><path fill="#0768e0" d="M75 69h1v1h-1z" /><path fill="#0370e8" d="M76 69h1v1h-1zM77 70h1v1h-1z" /><path fill="#017cf6" d="M89 69h1v1h-1z" /><path fill="#0081f8" d="M13 70h1v1h-1z" /><path fill="#0767e0" d="M74 70h1v1h-1z" /><path fill="#0471e8" d="M75 70h1v1h-1zM69 77h1v1h-1zM72 79h1v1h-1zM76 81h1v1h-1z" /><path fill="#0471e9" d="M76 70h1v1h-1zM75 71h4v1h-4zM74 72h6v1h-6zM73 73h6v1h-6zM72 74h7v1h-7zM71 75h7v1h-7zM70 76h8v1h-8zM70 77h8v1h-8zM71 78h6v1h-6zM73 79h4v1h-4zM74 80h3v1h-3z" /><path fill="#017cf4" d="M88 70h1v1h-1zM92 73h1v1h-1zM93 74h1v1h-1zM94 75h1v1h-1zM92 79h1v1h-1z" /><path fill="#017cf5" d="M89 70h1v1h-1zM88 71h3v1h-3zM86 72h6v1h-6zM86 73h6v1h-6zM86 74h7v1h-7zM87 75h7v1h-7zM87 76h8v1h-8zM87 77h7v1h-7zM88 78h5v1h-5zM88 79h4v1h-4zM88 80h3v1h-3zM89 81h1v1h-1z" /><path fill="#017df7" d="M90 70h1v1h-1z" /><path fill="#0470e7" d="M74 71h1v1h-1z" /><path fill="#017bf4" d="M87 71h1v1h-1zM94 77h1v1h-1zM93 78h1v1h-1z" /><path fill="#056fe8" d="M73 72h1v1h-1z" /><path fill="#0377ee" d="M80 72h1v1h-1zM79 75h1v1h-1zM87 81h1v1h-1zM79 82h1v1h-1z" /><path fill="#0277ee" d="M81 72h1v1h-1zM87 80h1v1h-1z" /><path fill="#0376ef" d="M82 72h2v1h-2zM86 82h1v1h-1z" /><path fill="#0277ef" d="M84 72h1v1h-1zM78 82h1v1h-1z" /><path fill="#027bf3" d="M85 72h1v1h-1z" /><path fill="#007ef6" d="M92 72h1v1h-1z" /><path fill="#0570e8" d="M72 73h1v1h-1z" /><path fill="#0372e9" d="M79 73h1v1h-1z" /><path fill="#0377ef" d="M80 73h5v1h-5zM80 74h5v1h-5zM80 75h6v1h-6zM79 76h7v1h-7zM79 77h7v1h-7zM79 78h8v1h-8zM78 79h9v1h-9zM78 80h9v1h-9zM78 81h9v1h-9zM77 82h1v1h-1zM80 82h6v1h-6zM87 82h1v1h-1z" /><path fill="#0278f1" d="M85 73h1v1h-1zM86 76h1v1h-1z" /><path fill="#0570e7" d="M71 74h1v1h-1z" /><path fill="#0274ec" d="M79 74h1v1h-1z" /><path fill="#0376ee" d="M85 74h1v1h-1zM78 78h1v1h-1z" /><path fill="#0766e0" d="M69 75h1v1h-1z" /><path fill="#046ee8" d="M70 75h1v1h-1z" /><path fill="#0470e8" d="M78 75h1v1h-1z" /><path fill="#027af3" d="M86 75h1v1h-1z" /><path fill="#0668de" d="M68 76h1v1h-1z" /><path fill="#046fe7" d="M69 76h1v1h-1z" /><path fill="#0373eb" d="M78 76h1v1h-1z" /><path fill="#017bf5" d="M95 76h1v1h-1zM91 80h1v1h-1z" /><path fill="#0274ed" d="M78 77h1v1h-1z" /><path fill="#0377f0" d="M86 77h1v1h-1z" /><path fill="#0371e9" d="M70 78h1v1h-1z" /><path fill="#0470e9" d="M77 78h1v1h-1zM75 81h1v1h-1z" /><path fill="#017bf3" d="M87 78h1v1h-1zM88 81h1v1h-1z" /><path fill="#0371ea" d="M77 79h1v1h-1z" /><path fill="#0279f1" d="M87 79h1v1h-1z" /><path fill="#0370e9" d="M73 80h1v1h-1z" /><path fill="#0374ec" d="M77 80h1v1h-1z" /><path fill="#0375ee" d="M77 81h1v1h-1z" /></svg>