<svg xmlns="http://www.w3.org/2000/svg" viewBox="0 0 100 100" width="1em" height="1em"><path fill="#0063e0" d="M24 17h1v1h-1zM22 18h1v1h-1zM35 18h1v1h-1zM19 19h1v1h-1zM38 19h1v1h-1zM16 21h1v1h-1zM41 21h1v1h-1zM11 26h1v1h-1zM10 27h1v1h-1zM29 27h1v1h-1zM8 30h1v1h-1zM36 30h1v1h-1zM20 31h1v1h-1zM19 32h1v1h-1zM38 32h1v1h-1zM5 35h1v1h-1zM17 35h1v1h-1zM5 36h1v1h-1zM43 37h1v1h-1zM44 39h1v1h-1zM14 41h1v1h-1zM11 50h1v1h-1zM51 50h1v1h-1zM63 50h1v1h-1zM64 51h1v1h-1zM65 53h1v1h-1zM0 55h1v1h-1zM10 57h1v1h-1zM0 58h1v1h-1zM68 58h1v1h-1zM0 59h1v1h-1zM10 59h1v1h-1zM69 59h1v1h-1zM71 62h1v1h-1zM72 64h1v1h-1zM60 65h1v1h-1zM76 69h1v1h-1zM77 70h1v1h-1zM64 71h1v1h-1zM66 73h1v1h-1zM68 76h1v1h-1zM74 81h2v1h-2zM77 82h1v1h-1z" /><path fill="#0064df" d="M25 17h1v1h-1zM13 24h1v1h-1zM27 27h2v1h-2zM16 36h1v1h-1zM3 40h1v1h-1zM14 40h1v1h-1zM12 47h1v1h-1zM11 49h1v1h-1zM11 51h1v1h-1zM0 53h1v1h-1zM0 56h1v1h-1zM10 56h1v1h-1zM0 60h1v1h-1z" /><path fill="#0064e0" d="M26 17h1v1h-1zM28 17h1v1h-1zM30 17h2v1h-2zM21 18h1v1h-1zM23 18h5v1h-5zM20 19h9v1h-9zM37 19h1v1h-1zM19 20h9v1h-9zM17 21h12v1h-12zM16 22h12v1h-12zM14 23h15v1h-15zM43 23h1v1h-1zM14 24h14v1h-14zM45 24h1v1h-1zM13 25h16v1h-16zM12 26h16v1h-16zM11 27h16v1h-16zM30 27h1v1h-1zM9 28h15v1h-15zM32 28h1v1h-1zM48 28h1v1h-1zM9 29h14v1h-14zM49 29h1v1h-1zM9 30h12v1h-12zM8 31h12v1h-12zM7 32h12v1h-12zM6 33h13v1h-13zM7 34h11v1h-11zM40 34h1v1h-1zM6 35h11v1h-11zM6 36h10v1h-10zM5 37h11v1h-11zM4 38h12v1h-12zM56 38h1v1h-1zM4 39h11v1h-11zM4 40h10v1h-10zM57 40h1v1h-1zM4 41h10v1h-10zM3 42h11v1h-11zM2 43h12v1h-12zM3 44h10v1h-10zM2 45h11v1h-11zM60 45h1v1h-1zM2 46h11v1h-11zM2 47h10v1h-10zM1 48h11v1h-11zM62 48h1v1h-1zM2 49h9v1h-9zM51 49h1v1h-1zM1 50h10v1h-10zM1 51h10v1h-10zM1 52h10v1h-10zM1 53h10v1h-10zM0 54h11v1h-11zM54 54h1v1h-1zM66 54h1v1h-1zM1 55h10v1h-10zM1 56h9v1h-9zM67 56h1v1h-1zM1 57h9v1h-9zM1 58h10v1h-10zM1 59h9v1h-9zM57 59h1v1h-1zM1 60h9v1h-9zM1 61h9v1h-9zM1 62h9v1h-9zM1 63h9v1h-9zM59 63h1v1h-1zM1 64h10v1h-10zM60 64h1v1h-1zM1 65h10v1h-10zM73 65h1v1h-1zM1 66h10v1h-10zM61 66h1v1h-1zM1 67h10v1h-10zM1 68h11v1h-11zM62 68h1v1h-1zM75 68h1v1h-1zM2 69h9v1h-9zM2 70h8v1h-8zM2 71h6v1h-6zM3 72h4v1h-4zM81 72h1v1h-1zM3 73h2v1h-2zM73 80h1v1h-1z" /><path fill="#0063df" d="M27 17h1v1h-1zM17 20h1v1h-1zM12 25h1v1h-1zM21 30h1v1h-1zM6 34h1v1h-1zM3 41h1v1h-1zM2 44h1v1h-1zM1 47h1v1h-1zM1 49h1v1h-1zM0 57h1v1h-1z" /><path fill="#0063e1" d="M29 17h1v1h-1zM32 17h1v1h-1zM40 20h1v1h-1zM33 28h1v1h-1zM23 29h1v1h-1zM37 31h1v1h-1zM43 38h1v1h-1zM63 49h1v1h-1zM55 56h1v1h-1zM57 60h1v1h-1zM58 61h1v1h-1zM70 61h1v1h-1zM63 69h1v1h-1zM78 71h1v1h-1zM65 72h1v1h-1zM67 75h1v1h-1zM71 79h1v1h-1z" /><path fill="#0080fa" d="M68 17h1v1h-1zM70 17h3v1h-3zM65 18h2v1h-2zM77 18h2v1h-2zM62 20h1v1h-1zM60 21h1v1h-1zM83 21h1v1h-1zM59 22h1v1h-1zM58 23h1v1h-1zM76 26h1v1h-1zM89 27h1v1h-1zM79 28h1v1h-1zM62 29h1v1h-1zM52 30h1v1h-1zM61 30h1v1h-1zM81 30h1v1h-1zM91 30h1v1h-1zM82 31h1v1h-1zM92 31h1v1h-1zM58 33h1v1h-1zM83 33h1v1h-1zM95 37h1v1h-1zM86 38h1v1h-1zM95 38h1v1h-1zM87 40h1v1h-1zM43 43h1v1h-1zM88 43h1v1h-1zM42 44h1v1h-1zM89 47h1v1h-1zM98 47h1v1h-1zM98 48h1v1h-1zM39 49h1v1h-1zM38 51h1v1h-1zM47 51h1v1h-1zM47 52h1v1h-1zM36 54h1v1h-1zM35 55h1v1h-1zM90 56h1v1h-1zM99 56h1v1h-1zM34 57h1v1h-1zM99 57h1v1h-1zM33 58h1v1h-1zM43 58h1v1h-1zM99 58h1v1h-1zM43 59h1v1h-1zM99 59h1v1h-1zM42 60h1v1h-1zM31 61h1v1h-1zM28 66h1v1h-1zM27 67h1v1h-1zM36 70h1v1h-1zM15 72h1v1h-1zM21 72h1v1h-1zM4 76h1v1h-1zM31 76h1v1h-1zM5 77h1v1h-1zM30 77h1v1h-1zM7 79h1v1h-1z" /><path fill="#0081fb" d="M69 17h1v1h-1zM75 17h1v1h-1zM67 18h10v1h-10zM64 19h16v1h-16zM63 20h19v1h-19zM61 21h22v1h-22zM60 22h24v1h-24zM59 23h27v1h-27zM58 24h30v1h-30zM57 25h11v1h-11zM71 25h1v1h-1zM73 25h15v1h-15zM56 26h10v1h-10zM77 26h11v1h-11zM54 27h10v1h-10zM79 27h10v1h-10zM54 28h9v1h-9zM80 28h11v1h-11zM53 29h9v1h-9zM81 29h10v1h-10zM53 30h8v1h-8zM82 30h9v1h-9zM53 31h8v1h-8zM83 31h9v1h-9zM53 32h6v1h-6zM83 32h10v1h-10zM54 33h4v1h-4zM84 33h9v1h-9zM55 34h3v1h-3zM85 34h9v1h-9zM55 35h3v1h-3zM85 35h10v1h-10zM86 36h9v1h-9zM86 37h9v1h-9zM87 38h8v1h-8zM87 39h9v1h-9zM88 40h8v1h-8zM88 41h9v1h-9zM44 42h2v1h-2zM88 42h9v1h-9zM44 43h2v1h-2zM89 43h9v1h-9zM43 44h4v1h-4zM89 44h8v1h-8zM42 45h6v1h-6zM89 45h9v1h-9zM42 46h6v1h-6zM89 46h9v1h-9zM41 47h8v1h-8zM90 47h8v1h-8zM40 48h9v1h-9zM89 48h9v1h-9zM40 49h9v1h-9zM89 49h10v1h-10zM38 50h10v1h-10zM90 50h9v1h-9zM39 51h8v1h-8zM90 51h9v1h-9zM38 52h9v1h-9zM90 52h10v1h-10zM37 53h9v1h-9zM91 53h9v1h-9zM37 54h10v1h-10zM91 54h8v1h-8zM36 55h9v1h-9zM91 55h9v1h-9zM35 56h10v1h-10zM91 56h8v1h-8zM35 57h10v1h-10zM90 57h9v1h-9zM34 58h9v1h-9zM90 58h9v1h-9zM33 59h10v1h-10zM91 59h8v1h-8zM33 60h9v1h-9zM32 61h10v1h-10zM31 62h10v1h-10zM31 63h10v1h-10zM30 64h10v1h-10zM29 65h10v1h-10zM29 66h10v1h-10zM28 67h10v1h-10zM26 68h12v1h-12zM26 69h11v1h-11zM12 70h1v1h-1zM24 70h12v1h-12zM11 71h3v1h-3zM24 71h11v1h-11zM9 72h6v1h-6zM20 72h1v1h-1zM22 72h13v1h-13zM7 73h27v1h-27zM6 74h27v1h-27zM5 75h27v1h-27zM5 76h26v1h-26zM6 77h24v1h-24zM7 78h22v1h-22zM8 79h20v1h-20zM9 80h18v1h-18zM10 81h16v1h-16zM12 82h2v1h-2zM15 82h7v1h-7z" /><path fill="#0081fa" d="M73 17h1v1h-1zM82 20h1v1h-1zM84 22h1v1h-1zM57 24h1v1h-1zM56 25h1v1h-1zM68 25h2v1h-2zM72 25h1v1h-1zM55 26h1v1h-1zM66 26h1v1h-1zM88 26h1v1h-1zM64 27h1v1h-1zM78 27h1v1h-1zM53 28h1v1h-1zM80 29h1v1h-1zM59 32h1v1h-1zM84 34h1v1h-1zM56 36h1v1h-1zM44 41h1v1h-1zM87 41h1v1h-1zM97 44h1v1h-1zM41 46h1v1h-1zM40 47h1v1h-1zM46 53h1v1h-1zM90 53h1v1h-1zM99 54h1v1h-1zM45 55h1v1h-1zM32 60h1v1h-1zM30 63h1v1h-1zM29 64h1v1h-1zM40 64h1v1h-1zM39 65h1v1h-1zM38 67h1v1h-1zM37 69h1v1h-1zM13 70h1v1h-1zM14 71h1v1h-1zM23 71h1v1h-1zM35 71h1v1h-1zM16 72h1v1h-1zM33 74h1v1h-1zM32 75h1v1h-1zM6 78h1v1h-1zM29 78h1v1h-1zM28 79h1v1h-1zM8 80h1v1h-1zM27 80h1v1h-1zM14 82h1v1h-1zM22 82h2v1h-2z" /><path fill="#0080fb" d="M74 17h1v1h-1zM63 19h1v1h-1zM80 19h1v1h-1zM86 23h1v1h-1zM70 25h1v1h-1zM77 27h1v1h-1zM63 28h1v1h-1zM52 31h1v1h-1zM93 33h1v1h-1zM85 36h1v1h-1zM96 40h1v1h-1zM88 44h1v1h-1zM48 50h1v1h-1zM37 52h1v1h-1zM90 54h1v1h-1zM90 55h1v1h-1zM90 59h1v1h-1zM41 62h1v1h-1zM39 66h1v1h-1zM25 69h1v1h-1zM10 71h1v1h-1zM35 72h1v1h-1zM34 73h1v1h-1zM4 75h1v1h-1z" /><path fill="#0064e1" d="M28 18h7v1h-7zM36 18h1v1h-1zM29 19h8v1h-8zM28 20h12v1h-12zM29 21h12v1h-12zM28 22h15v1h-15zM29 23h14v1h-14zM28 24h17v1h-17zM29 25h18v1h-18zM28 26h20v1h-20zM31 27h17v1h-17zM34 28h14v1h-14zM35 29h14v1h-14zM37 30h14v1h-14zM38 31h13v1h-13zM39 32h13v1h-13zM39 33h14v1h-14zM41 34h12v1h-12zM41 35h13v1h-13zM42 36h13v1h-13zM44 37h11v1h-11zM44 38h12v1h-12zM45 39h12v1h-12zM46 40h11v1h-11zM46 41h13v1h-13zM47 42h12v1h-12zM48 43h12v1h-12zM48 44h13v1h-13zM49 45h11v1h-11zM50 46h12v1h-12zM50 47h12v1h-12zM50 48h12v1h-12zM52 49h11v1h-11zM52 50h11v1h-11zM52 51h12v1h-12zM53 52h12v1h-12zM53 53h12v1h-12zM55 54h11v1h-11zM54 55h13v1h-13zM56 56h11v1h-11zM56 57h13v1h-13zM56 58h12v1h-12zM58 59h11v1h-11zM10 60h1v1h-1zM58 60h12v1h-12zM59 61h11v1h-11zM91 61h8v1h-8zM59 62h12v1h-12zM91 62h8v1h-8zM60 63h12v1h-12zM91 63h8v1h-8zM61 64h11v1h-11zM91 64h8v1h-8zM61 65h12v1h-12zM91 65h8v1h-8zM62 66h12v1h-12zM90 66h9v1h-9zM62 67h13v1h-13zM90 67h9v1h-9zM63 68h12v1h-12zM90 68h9v1h-9zM64 69h12v1h-12zM89 69h9v1h-9zM64 70h13v1h-13zM89 70h9v1h-9zM65 71h13v1h-13zM88 71h10v1h-10zM66 72h15v1h-15zM86 72h11v1h-11zM67 73h30v1h-30zM67 74h29v1h-29zM68 75h28v1h-28zM69 76h26v1h-26zM69 77h26v1h-26zM70 78h24v1h-24zM72 79h20v1h-20zM74 80h17v1h-17zM76 81h13v1h-13zM78 82h8v1h-8z" /><path fill="#0064de" d="M18 20h1v1h-1z" /><path fill="#0062df" d="M15 22h1v1h-1zM24 28h1v1h-1z" /><path fill="#0065e0" d="M25 28h1v1h-1zM10 63h1v1h-1z" /><path fill="#006be7" d="M51 31h1v1h-1zM99 65h1v1h-1z" /><path fill="#0073ef" d="M52 32h1v1h-1zM49 47h1v1h-1zM12 69h1v1h-1z" /><path fill="#007bf5" d="M53 33h1v1h-1z" /><path fill="#0065e1" d="M18 34h1v1h-1zM0 61h1v1h-1zM11 69h1v1h-1zM8 71h1v1h-1zM92 79h1v1h-1z" /><path fill="#0068e4" d="M53 34h1v1h-1zM10 61h1v1h-1zM90 64h1v1h-1z" /><path fill="#007ff9" d="M54 34h1v1h-1zM49 48h1v1h-1z" /><path fill="#006eeb" d="M54 35h1v1h-1zM98 71h1v1h-1zM92 80h1v1h-1zM83 83h1v1h-1z" /><path fill="#0076f1" d="M55 36h1v1h-1zM47 44h1v1h-1z" /><path fill="#0066e3" d="M55 37h1v1h-1zM2 72h1v1h-1zM85 72h1v1h-1z" /><path fill="#0079f3" d="M56 37h1v1h-1z" /><path fill="#0065e2" d="M45 40h1v1h-1zM99 61h1v1h-1zM90 65h1v1h-1zM88 70h1v1h-1zM87 71h1v1h-1zM97 72h1v1h-1zM96 74h1v1h-1zM95 76h1v1h-1zM89 81h1v1h-1z" /><path fill="#0076f2" d="M45 41h1v1h-1z" /><path fill="#006dea" d="M46 42h1v1h-1zM0 67h1v1h-1z" /><path fill="#007ef9" d="M46 43h1v1h-1z" /><path fill="#0066e4" d="M47 43h1v1h-1zM99 62h1v1h-1z" /><path fill="#006ce9" d="M48 45h1v1h-1zM90 62h1v1h-1zM99 66h1v1h-1zM98 70h1v1h-1zM84 72h1v1h-1zM96 75h1v1h-1zM90 81h1v1h-1z" /><path fill="#007ef8" d="M48 46h1v1h-1z" /><path fill="#0066e2" d="M49 46h1v1h-1zM98 69h1v1h-1z" /><path fill="#0076ef" d="M90 60h1v1h-1z" /><path fill="#0074ef" d="M91 60h1v1h-1zM9 71h1v1h-1z" /><path fill="#0072ed" d="M92 60h1v1h-1z" /><path fill="#0071ed" d="M93 60h1v1h-1z" /><path fill="#0070eb" d="M94 60h2v1h-2zM84 83h1v1h-1z" /><path fill="#006feb" d="M96 60h1v1h-1zM86 71h1v1h-1z" /><path fill="#006eea" d="M97 60h1v1h-1z" /><path fill="#006de9" d="M98 60h1v1h-1zM0 66h1v1h-1zM2 73h1v1h-1zM97 73h1v1h-1z" /><path fill="#006ce7" d="M99 60h1v1h-1zM11 66h1v1h-1z" /><path fill="#006ce8" d="M90 61h1v1h-1z" /><path fill="#0067e2" d="M0 62h1v1h-1zM10 62h1v1h-1z" /><path fill="#0067e3" d="M0 63h1v1h-1zM11 67h1v1h-1zM89 68h1v1h-1z" /><path fill="#006ae7" d="M90 63h1v1h-1z" /><path fill="#0067e4" d="M99 63h1v1h-1z" /><path fill="#0069e4" d="M0 64h1v1h-1zM87 82h1v1h-1z" /><path fill="#0068e5" d="M99 64h1v1h-1z" /><path fill="#006be6" d="M0 65h1v1h-1zM7 72h1v1h-1z" /><path fill="#0070ed" d="M11 65h1v1h-1zM95 77h1v1h-1z" /><path fill="#006ee9" d="M89 67h1v1h-1zM83 72h1v1h-1zM94 78h1v1h-1zM93 79h1v1h-1zM88 82h1v1h-1z" /><path fill="#006fea" d="M99 67h1v1h-1zM12 68h1v1h-1zM88 69h1v1h-1z" /><path fill="#0068e2" d="M1 69h1v1h-1z" /><path fill="#006de8" d="M1 70h1v1h-1z" /><path fill="#0069e5" d="M10 70h1v1h-1z" /><path fill="#007cf6" d="M11 70h1v1h-1z" /><path fill="#007df7" d="M8 72h1v1h-1zM5 74h1v1h-1z" /><path fill="#0066e1" d="M5 73h1v1h-1zM3 74h1v1h-1zM91 80h1v1h-1z" /><path fill="#0075f0" d="M6 73h1v1h-1z" /><path fill="#006ae6" d="M4 74h1v1h-1z" /><path fill="#0064e2" d="M86 82h1v1h-1z" /></svg>