<svg xmlns="http://www.w3.org/2000/svg" viewBox="0 0 100 100" width="1em" height="1em"><path fill="#f15022" d="M9 8h38v1h-38zM8 9h1v1h-1zM8 10h1v1h-1zM8 11h1v1h-1zM8 12h1v1h-1zM8 13h1v1h-1zM8 14h1v1h-1zM8 15h1v1h-1zM8 16h1v1h-1zM8 17h1v1h-1zM8 18h1v1h-1zM8 19h1v1h-1zM8 20h1v1h-1zM8 21h1v1h-1zM8 22h1v1h-1zM8 23h1v1h-1zM8 24h1v1h-1zM8 25h1v1h-1zM8 26h1v1h-1zM8 27h1v1h-1zM8 28h1v1h-1zM8 29h1v1h-1zM8 30h1v1h-1zM8 31h1v1h-1zM8 32h1v1h-1zM8 33h1v1h-1zM8 34h1v1h-1zM8 35h1v1h-1zM8 36h1v1h-1zM8 37h1v1h-1zM8 38h1v1h-1zM8 39h1v1h-1zM8 40h1v1h-1zM8 41h1v1h-1zM8 42h1v1h-1zM8 43h1v1h-1zM8 44h1v1h-1zM8 45h1v1h-1zM8 46h1v1h-1z" /><path fill="#f14f22" d="M47 8h1v1h-1zM8 47h1v1h-1z" /><path fill="#7fb900" d="M52 8h1v1h-1zM91 47h1v1h-1z" /><path fill="#7eba00" d="M53 8h38v1h-38zM91 9h1v1h-1zM91 10h1v1h-1zM91 11h1v1h-1zM91 12h1v1h-1zM91 13h1v1h-1zM91 14h1v1h-1zM91 15h1v1h-1zM91 16h1v1h-1zM91 17h1v1h-1zM91 18h1v1h-1zM91 19h1v1h-1zM91 20h1v1h-1zM91 21h1v1h-1zM91 22h1v1h-1zM91 23h1v1h-1zM91 24h1v1h-1zM91 25h1v1h-1zM91 26h1v1h-1zM91 27h1v1h-1zM91 28h1v1h-1zM91 29h1v1h-1zM91 30h1v1h-1zM91 31h1v1h-1zM91 32h1v1h-1zM91 33h1v1h-1zM91 34h1v1h-1zM91 35h1v1h-1zM91 36h1v1h-1zM91 37h1v1h-1zM91 38h1v1h-1zM91 39h1v1h-1zM91 40h1v1h-1zM91 41h1v1h-1zM91 42h1v1h-1zM91 43h1v1h-1zM91 44h1v1h-1zM91 45h1v1h-1zM91 46h1v1h-1z" /><path fill="#f25022" d="M9 9h38v1h-38zM9 10h38v1h-38zM9 11h38v1h-38zM9 12h38v1h-38zM9 13h38v1h-38zM9 14h38v1h-38zM9 15h38v1h-38zM9 16h38v1h-38zM9 17h38v1h-38zM9 18h38v1h-38zM9 19h38v1h-38zM9 20h38v1h-38zM9 21h38v1h-38zM9 22h38v1h-38zM9 23h38v1h-38zM9 24h38v1h-38zM9 25h38v1h-38zM9 26h38v1h-38zM9 27h38v1h-38zM9 28h38v1h-38zM9 29h38v1h-38zM9 30h38v1h-38zM9 31h38v1h-38zM9 32h38v1h-38zM9 33h38v1h-38zM9 34h38v1h-38zM9 35h38v1h-38zM9 36h38v1h-38zM9 37h38v1h-38zM9 38h38v1h-38zM9 39h38v1h-38zM9 40h38v1h-38zM9 41h38v1h-38zM9 42h38v1h-38zM9 43h38v1h-38zM9 44h38v1h-38zM9 45h38v1h-38zM9 46h38v1h-38z" /><path fill="#f15021" d="M47 9h1v1h-1zM47 10h1v1h-1zM47 11h1v1h-1zM47 12h1v1h-1zM47 13h1v1h-1zM47 14h1v1h-1zM47 15h1v1h-1zM47 16h1v1h-1zM47 17h1v1h-1zM47 18h1v1h-1zM47 19h1v1h-1zM47 20h1v1h-1zM47 21h1v1h-1zM47 22h1v1h-1zM47 23h1v1h-1zM47 24h1v1h-1zM47 25h1v1h-1zM47 26h1v1h-1zM47 27h1v1h-1zM47 28h1v1h-1zM47 29h1v1h-1zM47 30h1v1h-1zM47 31h1v1h-1zM47 32h1v1h-1zM47 33h1v1h-1zM47 34h1v1h-1zM47 35h1v1h-1zM47 36h1v1h-1zM47 37h1v1h-1zM47 38h1v1h-1zM47 39h1v1h-1zM47 40h1v1h-1zM47 41h1v1h-1zM47 42h1v1h-1zM47 43h1v1h-1zM47 44h1v1h-1zM47 45h1v1h-1zM47 46h1v1h-1zM9 47h38v1h-38z" /><path fill="#7fba00" d="M52 9h39v1h-39zM52 10h39v1h-39zM52 11h39v1h-39zM52 12h39v1h-39zM52 13h39v1h-39zM52 14h39v1h-39zM52 15h39v1h-39zM52 16h39v1h-39zM52 17h39v1h-39zM52 18h39v1h-39zM52 19h39v1h-39zM52 20h39v1h-39zM52 21h39v1h-39zM52 22h39v1h-39zM52 23h39v1h-39zM52 24h39v1h-39zM52 25h39v1h-39zM52 26h39v1h-39zM52 27h39v1h-39zM52 28h39v1h-39zM52 29h39v1h-39zM52 30h39v1h-39zM52 31h39v1h-39zM52 32h39v1h-39zM52 33h39v1h-39zM52 34h39v1h-39zM52 35h39v1h-39zM52 36h39v1h-39zM52 37h39v1h-39zM52 38h39v1h-39zM52 39h39v1h-39zM52 40h39v1h-39zM52 41h39v1h-39zM52 42h39v1h-39zM52 43h39v1h-39zM52 44h39v1h-39zM52 45h39v1h-39zM52 46h39v1h-39zM53 47h38v1h-38z" /><path fill="#f24f22" d="M47 47h1v1h-1z" /><path fill="#7eb900" d="M52 47h1v1h-1z" /><path fill="#00a3ef" d="M8 52h39v1h-39zM47 53h1v1h-1zM47 54h1v1h-1zM47 55h1v1h-1zM47 56h1v1h-1zM47 57h1v1h-1zM47 58h1v1h-1zM47 59h1v1h-1zM47 60h1v1h-1zM47 61h1v1h-1zM47 62h1v1h-1zM47 63h1v1h-1zM47 64h1v1h-1zM47 65h1v1h-1zM47 66h1v1h-1zM47 67h1v1h-1zM47 68h1v1h-1zM47 69h1v1h-1zM47 70h1v1h-1zM47 71h1v1h-1zM47 72h1v1h-1zM47 73h1v1h-1zM47 74h1v1h-1zM47 75h1v1h-1zM47 76h1v1h-1zM47 77h1v1h-1zM47 78h1v1h-1zM47 79h1v1h-1zM47 80h1v1h-1zM47 81h1v1h-1zM47 82h1v1h-1zM47 83h1v1h-1zM47 84h1v1h-1zM47 85h1v1h-1zM47 86h1v1h-1zM47 87h1v1h-1zM47 88h1v1h-1zM47 89h1v1h-1zM47 90h1v1h-1zM47 91h1v1h-1z" /><path fill="#00a4ef" d="M47 52h1v1h-1zM9 53h38v1h-38zM9 54h38v1h-38zM9 55h38v1h-38zM9 56h38v1h-38zM9 57h38v1h-38zM9 58h38v1h-38zM9 59h38v1h-38zM9 60h38v1h-38zM9 61h38v1h-38zM9 62h38v1h-38zM9 63h38v1h-38zM9 64h38v1h-38zM9 65h38v1h-38zM9 66h38v1h-38zM9 67h38v1h-38zM9 68h38v1h-38zM9 69h38v1h-38zM9 70h38v1h-38zM9 71h38v1h-38zM9 72h38v1h-38zM9 73h38v1h-38zM9 74h38v1h-38zM9 75h38v1h-38zM9 76h38v1h-38zM9 77h38v1h-38zM9 78h38v1h-38zM9 79h38v1h-38zM9 80h38v1h-38zM9 81h38v1h-38zM9 82h38v1h-38zM9 83h38v1h-38zM9 84h38v1h-38zM9 85h38v1h-38zM9 86h38v1h-38zM9 87h38v1h-38zM9 88h38v1h-38zM9 89h38v1h-38zM9 90h38v1h-38z" /><path fill="#ffb800" d="M52 52h1v1h-1zM91 53h1v1h-1zM91 54h1v1h-1zM91 55h1v1h-1zM91 56h1v1h-1zM91 57h1v1h-1zM91 58h1v1h-1zM91 59h1v1h-1zM91 60h1v1h-1zM91 61h1v1h-1zM91 62h1v1h-1zM91 63h1v1h-1zM91 64h1v1h-1zM91 65h1v1h-1zM91 66h1v1h-1zM91 67h1v1h-1zM91 68h1v1h-1zM91 69h1v1h-1zM91 70h1v1h-1zM91 71h1v1h-1zM91 72h1v1h-1zM91 73h1v1h-1zM91 74h1v1h-1zM91 75h1v1h-1zM91 76h1v1h-1zM91 77h1v1h-1zM91 78h1v1h-1zM91 79h1v1h-1zM91 80h1v1h-1zM91 81h1v1h-1zM91 82h1v1h-1zM91 83h1v1h-1zM91 84h1v1h-1zM91 85h1v1h-1zM91 86h1v1h-1zM91 87h1v1h-1zM91 88h1v1h-1zM91 89h1v1h-1zM91 90h1v1h-1zM53 91h38v1h-38z" /><path fill="#ffb900" d="M53 52h39v1h-39zM52 53h39v1h-39zM52 54h39v1h-39zM52 55h39v1h-39zM52 56h39v1h-39zM52 57h39v1h-39zM52 58h39v1h-39zM52 59h39v1h-39zM52 60h39v1h-39zM52 61h39v1h-39zM52 62h39v1h-39zM52 63h39v1h-39zM52 64h39v1h-39zM52 65h39v1h-39zM52 66h39v1h-39zM52 67h39v1h-39zM52 68h39v1h-39zM52 69h39v1h-39zM52 70h39v1h-39zM52 71h39v1h-39zM52 72h39v1h-39zM52 73h39v1h-39zM52 74h39v1h-39zM52 75h39v1h-39zM52 76h39v1h-39zM52 77h39v1h-39zM52 78h39v1h-39zM52 79h39v1h-39zM52 80h39v1h-39zM52 81h39v1h-39zM52 82h39v1h-39zM52 83h39v1h-39zM52 84h39v1h-39zM52 85h39v1h-39zM52 86h39v1h-39zM52 87h39v1h-39zM52 88h39v1h-39zM52 89h39v1h-39zM52 90h39v1h-39zM52 91h1v1h-1z" /><path fill="#00a4ee" d="M8 53h1v1h-1zM8 54h1v1h-1zM8 55h1v1h-1zM8 56h1v1h-1zM8 57h1v1h-1zM8 58h1v1h-1zM8 59h1v1h-1zM8 60h1v1h-1zM8 61h1v1h-1zM8 62h1v1h-1zM8 63h1v1h-1zM8 64h1v1h-1zM8 65h1v1h-1zM8 66h1v1h-1zM8 67h1v1h-1zM8 68h1v1h-1zM8 69h1v1h-1zM8 70h1v1h-1zM8 71h1v1h-1zM8 72h1v1h-1zM8 73h1v1h-1zM8 74h1v1h-1zM8 75h1v1h-1zM8 76h1v1h-1zM8 77h1v1h-1zM8 78h1v1h-1zM8 79h1v1h-1zM8 80h1v1h-1zM8 81h1v1h-1zM8 82h1v1h-1zM8 83h1v1h-1zM8 84h1v1h-1zM8 85h1v1h-1zM8 86h1v1h-1zM8 87h1v1h-1zM8 88h1v1h-1zM8 89h1v1h-1zM8 90h1v1h-1z" /><path fill="#00a3ee" d="M9 91h38v1h-38z" /></svg>