<svg xmlns="http://www.w3.org/2000/svg" viewBox="0 0 100 100"><path fill="#f15022" fill-rule="evenodd" d="M9 8h38v1h-38zm0 1v38h-1v-38z"/><path fill="#f14f22" fill-rule="evenodd" d="M47 8h1v1h-1zm-39 39h1v1h-1z"/><path fill="#7fb900" fill-rule="evenodd" d="M52 8h1v1h-1zm39 39h1v1h-1z"/><path fill="#7eba00" fill-rule="evenodd" d="M53 8h38v1h-38zm38 1h1v38h-1z"/><path fill="#f25022" fill-rule="evenodd" d="M9 9h38v38h-38z"/><path fill="#f15021" fill-rule="evenodd" d="M47 9h1v38h-1zm0 38v1h-38v-1z"/><path fill="#7fba00" fill-rule="evenodd" d="M52 9h39v39h-38v-1h-1z"/><path fill="#f24f22" fill-rule="evenodd" d="M47 47h1v1h-1z"/><path fill="#7eb900" fill-rule="evenodd" d="M52 47h1v1h-1z"/><path fill="#00a3ef" fill-rule="evenodd" d="M8 52h39v1h-39zm39 1h1v39h-1z"/><path fill="#00a4ef" fill-rule="evenodd" d="M47 52h1v1h-1zm0 1v38h-38v-38z"/><path fill="#ffb800" fill-rule="evenodd" d="M52 52h1v1h-1zm39 1h1v38h-1zm0 38v1h-38v-1z"/><path fill="#ffb900" fill-rule="evenodd" d="M53 52h39v1h-1v38h-38v1h-1v-39h1z"/><path fill="#00a4ee" fill-rule="evenodd" d="M8 53h1v38h-1z"/><path fill="#00a3ee" fill-rule="evenodd" d="M9 91h38v1h-38z"/></svg>