<svg xmlns="http://www.w3.org/2000/svg" viewBox="0 0 100 100" width="1em" height="1em"><path fill="#e2157e" d="M43 8h1v1h-1zM40 9h1v1h-1zM50 11h1v1h-1zM20 29h2v1h-2zM2 59h1v1h-1zM14 59h1v1h-1zM50 67h1v1h-1zM51 73h1v1h-1zM40 75h1v1h-1zM32 78h1v1h-1zM36 82h1v1h-1zM52 90h1v1h-1zM59 90h1v1h-1z" /><path fill="#e2167d" d="M44 8h1v1h-1zM67 8h1v1h-1zM67 13h1v1h-1zM41 14h1v1h-1zM47 15h1v1h-1zM47 16h1v1h-1zM71 16h1v1h-1zM19 34h1v1h-1zM28 35h1v1h-1zM94 37h1v1h-1zM2 45h1v1h-1zM5 54h1v1h-1zM5 55h1v1h-1zM99 66h1v1h-1zM77 71h1v1h-1zM72 72h1v1h-1zM52 74h1v1h-1zM52 75h1v1h-1zM38 80h1v1h-1zM37 81h1v1h-1zM59 83h1v1h-1zM50 89h1v1h-1z" /><path fill="#e1167d" d="M45 8h1v1h-1zM66 8h1v1h-1zM42 13h1v1h-1zM75 13h1v1h-1zM59 16h1v1h-1zM64 29h1v1h-1zM17 30h1v1h-1zM24 30h1v1h-1zM64 30h1v1h-1zM94 30h1v1h-1zM64 31h1v1h-1zM64 33h1v1h-1zM84 33h1v1h-1zM21 34h1v1h-1zM64 34h1v1h-1zM90 34h1v1h-1zM64 35h1v1h-1zM64 36h1v1h-1zM99 36h1v1h-1zM64 37h1v1h-1zM99 37h1v1h-1zM64 45h1v1h-1zM4 46h1v1h-1zM64 46h1v1h-1zM16 55h1v1h-1zM13 60h1v1h-1zM10 61h1v1h-1zM76 69h1v1h-1zM84 75h1v1h-1zM29 77h1v1h-1zM24 78h1v1h-1zM53 85h1v1h-1zM58 85h1v1h-1z" /><path fill="#e1177d" d="M68 8h1v1h-1zM88 30h1v1h-1zM83 35h1v1h-1zM87 70h1v1h-1zM81 71h1v1h-1z" /><path fill="#e2167e" d="M41 9h6v1h-6zM65 9h3v1h-3zM71 9h1v1h-1zM39 10h11v1h-11zM62 10h6v1h-6zM37 11h13v1h-13zM62 11h6v1h-6zM37 12h14v1h-14zM61 12h7v1h-7zM37 13h5v1h-5zM46 13h5v1h-5zM61 13h6v1h-6zM36 14h5v1h-5zM47 14h5v1h-5zM60 14h5v1h-5zM36 15h5v1h-5zM48 15h4v1h-4zM60 15h4v1h-4zM36 16h4v1h-4zM48 16h4v1h-4zM60 16h4v1h-4zM36 17h4v1h-4zM47 17h6v1h-6zM60 17h4v1h-4zM36 18h4v1h-4zM47 18h6v1h-6zM60 18h4v1h-4zM36 19h4v1h-4zM47 19h6v1h-6zM60 19h4v1h-4zM36 20h4v1h-4zM47 20h6v1h-6zM60 20h4v1h-4zM36 21h4v1h-4zM47 21h6v1h-6zM60 21h4v1h-4zM36 22h4v1h-4zM47 22h6v1h-6zM60 22h4v1h-4zM36 23h4v1h-4zM47 23h6v1h-6zM60 23h4v1h-4zM36 24h4v1h-4zM47 24h6v1h-6zM60 24h4v1h-4zM36 25h4v1h-4zM47 25h6v1h-6zM60 25h4v1h-4zM36 26h4v1h-4zM47 26h6v1h-6zM60 26h4v1h-4zM36 27h4v1h-4zM47 27h6v1h-6zM60 27h4v1h-4zM36 28h4v1h-4zM47 28h6v1h-6zM60 28h4v1h-4zM36 29h4v1h-4zM47 29h6v1h-6zM60 29h4v1h-4zM18 30h5v1h-5zM36 30h4v1h-4zM47 30h6v1h-6zM60 30h4v1h-4zM16 31h9v1h-9zM36 31h4v1h-4zM47 31h6v1h-6zM60 31h4v1h-4zM15 32h11v1h-11zM36 32h4v1h-4zM47 32h6v1h-6zM60 32h4v1h-4zM14 33h13v1h-13zM36 33h4v1h-4zM47 33h6v1h-6zM60 33h4v1h-4zM13 34h6v1h-6zM20 34h1v1h-1zM22 34h6v1h-6zM36 34h4v1h-4zM47 34h6v1h-6zM60 34h4v1h-4zM13 35h5v1h-5zM23 35h5v1h-5zM36 35h4v1h-4zM47 35h6v1h-6zM60 35h4v1h-4zM13 36h5v1h-5zM23 36h5v1h-5zM36 36h4v1h-4zM47 36h6v1h-6zM60 36h4v1h-4zM12 37h5v1h-5zM24 37h4v1h-4zM36 37h4v1h-4zM47 37h6v1h-6zM60 37h4v1h-4zM12 38h5v1h-5zM24 38h5v1h-5zM36 38h4v1h-4zM47 38h6v1h-6zM60 38h4v1h-4zM12 39h5v1h-5zM24 39h5v1h-5zM36 39h4v1h-4zM47 39h6v1h-6zM60 39h4v1h-4zM12 40h5v1h-5zM24 40h5v1h-5zM36 40h4v1h-4zM47 40h6v1h-6zM60 40h4v1h-4zM12 41h5v1h-5zM24 41h5v1h-5zM36 41h4v1h-4zM47 41h6v1h-6zM60 41h4v1h-4zM12 42h5v1h-5zM24 42h5v1h-5zM36 42h4v1h-4zM47 42h6v1h-6zM60 42h4v1h-4zM12 43h5v1h-5zM24 43h5v1h-5zM36 43h4v1h-4zM47 43h6v1h-6zM60 43h4v1h-4zM12 44h5v1h-5zM24 44h5v1h-5zM36 44h4v1h-4zM47 44h6v1h-6zM60 44h4v1h-4zM12 45h5v1h-5zM24 45h5v1h-5zM36 45h4v1h-4zM47 45h6v1h-6zM60 45h4v1h-4zM1 46h3v1h-3zM12 46h5v1h-5zM24 46h5v1h-5zM36 46h4v1h-4zM47 46h6v1h-6zM60 46h4v1h-4zM0 47h5v1h-5zM12 47h5v1h-5zM24 47h5v1h-5zM36 47h4v1h-4zM47 47h6v1h-6zM60 47h4v1h-4zM0 48h5v1h-5zM12 48h5v1h-5zM24 48h5v1h-5zM36 48h4v1h-4zM47 48h6v1h-6zM60 48h4v1h-4zM0 49h5v1h-5zM12 49h5v1h-5zM24 49h5v1h-5zM36 49h4v1h-4zM47 49h6v1h-6zM60 49h4v1h-4zM0 50h5v1h-5zM12 50h5v1h-5zM24 50h5v1h-5zM36 50h4v1h-4zM47 50h6v1h-6zM60 50h4v1h-4zM0 51h5v1h-5zM12 51h5v1h-5zM24 51h5v1h-5zM36 51h4v1h-4zM47 51h6v1h-6zM60 51h4v1h-4zM0 52h5v1h-5zM12 52h5v1h-5zM24 52h5v1h-5zM36 52h4v1h-4zM47 52h6v1h-6zM60 52h4v1h-4zM1 53h4v1h-4zM12 53h5v1h-5zM24 53h5v1h-5zM36 53h4v1h-4zM47 53h6v1h-6zM60 53h4v1h-4zM1 54h4v1h-4zM12 54h5v1h-5zM24 54h5v1h-5zM36 54h4v1h-4zM47 54h6v1h-6zM60 54h4v1h-4zM1 55h4v1h-4zM12 55h4v1h-4zM24 55h5v1h-5zM36 55h4v1h-4zM47 55h6v1h-6zM60 55h4v1h-4zM1 56h5v1h-5zM10 56h6v1h-6zM24 56h5v1h-5zM36 56h4v1h-4zM47 56h6v1h-6zM60 56h4v1h-4zM2 57h14v1h-14zM24 57h5v1h-5zM36 57h4v1h-4zM47 57h6v1h-6zM60 57h4v1h-4zM2 58h13v1h-13zM24 58h5v1h-5zM36 58h4v1h-4zM47 58h6v1h-6zM60 58h4v1h-4zM3 59h11v1h-11zM24 59h5v1h-5zM36 59h4v1h-4zM47 59h6v1h-6zM60 59h4v1h-4zM5 60h8v1h-8zM24 60h5v1h-5zM36 60h4v1h-4zM47 60h6v1h-6zM60 60h4v1h-4zM7 61h3v1h-3zM24 61h5v1h-5zM36 61h4v1h-4zM47 61h6v1h-6zM60 61h4v1h-4zM24 62h5v1h-5zM36 62h4v1h-4zM47 62h6v1h-6zM60 62h4v1h-4zM24 63h5v1h-5zM36 63h4v1h-4zM47 63h6v1h-6zM60 63h4v1h-4zM24 64h5v1h-5zM36 64h4v1h-4zM47 64h6v1h-6zM60 64h4v1h-4zM24 65h5v1h-5zM36 65h4v1h-4zM48 65h4v1h-4zM60 65h4v1h-4zM24 66h5v1h-5zM36 66h4v1h-4zM48 66h3v1h-3zM60 66h4v1h-4zM24 67h5v1h-5zM36 67h4v1h-4zM60 67h4v1h-4zM24 68h5v1h-5zM36 68h4v1h-4zM60 68h4v1h-4zM24 69h5v1h-5zM36 69h4v1h-4zM60 69h4v1h-4zM71 69h1v1h-1zM24 70h5v1h-5zM36 70h4v1h-4zM60 70h4v1h-4zM24 71h5v1h-5zM36 71h4v1h-4zM60 71h4v1h-4zM24 72h5v1h-5zM36 72h4v1h-4zM60 72h4v1h-4zM24 73h5v1h-5zM36 73h4v1h-4zM49 73h2v1h-2zM60 73h4v1h-4zM24 74h5v1h-5zM36 74h4v1h-4zM48 74h4v1h-4zM60 74h4v1h-4zM24 75h5v1h-5zM36 75h4v1h-4zM47 75h5v1h-5zM60 75h4v1h-4zM24 76h5v1h-5zM36 76h5v1h-5zM47 76h6v1h-6zM60 76h4v1h-4zM25 77h4v1h-4zM35 77h5v1h-5zM47 77h6v1h-6zM60 77h4v1h-4zM25 78h5v1h-5zM33 78h7v1h-7zM47 78h6v1h-6zM60 78h4v1h-4zM26 79h13v1h-13zM47 79h6v1h-6zM60 79h4v1h-4zM26 80h12v1h-12zM47 80h6v1h-6zM60 80h4v1h-4zM27 81h10v1h-10zM47 81h6v1h-6zM60 81h4v1h-4zM29 82h7v1h-7zM47 82h6v1h-6zM60 82h4v1h-4zM31 83h1v1h-1zM33 83h1v1h-1zM48 83h5v1h-5zM60 83h4v1h-4zM48 84h5v1h-5zM59 84h5v1h-5zM48 85h5v1h-5zM59 85h5v1h-5zM49 86h5v1h-5zM58 86h5v1h-5zM49 87h14v1h-14zM50 88h13v1h-13zM51 89h11v1h-11zM53 90h6v1h-6zM55 91h2v1h-2z" /><path fill="#e1167e" d="M47 9h1v1h-1zM64 9h1v1h-1zM38 10h1v1h-1zM60 12h1v1h-1zM51 13h1v1h-1zM60 13h1v1h-1zM52 16h1v1h-1zM35 17h1v1h-1zM40 17h1v1h-1zM59 17h1v1h-1zM64 17h1v1h-1zM71 17h1v1h-1zM35 18h1v1h-1zM40 18h1v1h-1zM59 18h1v1h-1zM64 18h1v1h-1zM71 18h1v1h-1zM35 19h1v1h-1zM40 19h1v1h-1zM59 19h1v1h-1zM64 19h1v1h-1zM71 19h1v1h-1zM35 20h1v1h-1zM40 20h1v1h-1zM59 20h1v1h-1zM64 20h1v1h-1zM71 20h1v1h-1zM35 21h1v1h-1zM40 21h1v1h-1zM59 21h1v1h-1zM64 21h1v1h-1zM71 21h1v1h-1zM35 22h1v1h-1zM40 22h1v1h-1zM59 22h1v1h-1zM64 22h1v1h-1zM71 22h1v1h-1zM35 23h1v1h-1zM40 23h1v1h-1zM59 23h1v1h-1zM64 23h1v1h-1zM71 23h1v1h-1zM35 24h1v1h-1zM40 24h1v1h-1zM59 24h1v1h-1zM64 24h1v1h-1zM71 24h1v1h-1zM35 25h1v1h-1zM40 25h1v1h-1zM59 25h1v1h-1zM64 25h1v1h-1zM71 25h1v1h-1zM35 26h1v1h-1zM40 26h1v1h-1zM59 26h1v1h-1zM64 26h1v1h-1zM71 26h1v1h-1zM35 27h1v1h-1zM40 27h1v1h-1zM59 27h1v1h-1zM64 27h1v1h-1zM71 27h1v1h-1zM35 28h1v1h-1zM40 28h1v1h-1zM59 28h1v1h-1zM64 28h1v1h-1zM71 28h1v1h-1zM19 29h1v1h-1zM35 29h1v1h-1zM40 29h1v1h-1zM59 29h1v1h-1zM71 29h1v1h-1zM35 30h1v1h-1zM40 30h1v1h-1zM59 30h1v1h-1zM71 30h1v1h-1zM35 31h1v1h-1zM40 31h1v1h-1zM59 31h1v1h-1zM71 31h1v1h-1zM35 32h1v1h-1zM40 32h1v1h-1zM59 32h1v1h-1zM64 32h1v1h-1zM71 32h1v1h-1zM35 33h1v1h-1zM40 33h1v1h-1zM59 33h1v1h-1zM71 33h1v1h-1zM35 34h1v1h-1zM40 34h1v1h-1zM59 34h1v1h-1zM71 34h1v1h-1zM22 35h1v1h-1zM35 35h1v1h-1zM40 35h1v1h-1zM59 35h1v1h-1zM71 35h1v1h-1zM12 36h1v1h-1zM35 36h1v1h-1zM40 36h1v1h-1zM59 36h1v1h-1zM71 36h1v1h-1zM28 37h1v1h-1zM35 37h1v1h-1zM40 37h1v1h-1zM59 37h1v1h-1zM71 37h1v1h-1zM35 38h1v1h-1zM40 38h1v1h-1zM59 38h1v1h-1zM64 38h1v1h-1zM71 38h1v1h-1zM35 39h1v1h-1zM40 39h1v1h-1zM59 39h1v1h-1zM64 39h1v1h-1zM71 39h1v1h-1zM35 40h1v1h-1zM40 40h1v1h-1zM59 40h1v1h-1zM64 40h1v1h-1zM71 40h1v1h-1zM35 41h1v1h-1zM40 41h1v1h-1zM59 41h1v1h-1zM64 41h1v1h-1zM71 41h1v1h-1zM35 42h1v1h-1zM40 42h1v1h-1zM59 42h1v1h-1zM64 42h1v1h-1zM71 42h1v1h-1zM35 43h1v1h-1zM40 43h1v1h-1zM59 43h1v1h-1zM64 43h1v1h-1zM71 43h1v1h-1zM35 44h1v1h-1zM40 44h1v1h-1zM59 44h1v1h-1zM64 44h1v1h-1zM71 44h1v1h-1zM35 45h1v1h-1zM40 45h1v1h-1zM59 45h1v1h-1zM71 45h1v1h-1zM35 46h1v1h-1zM40 46h1v1h-1zM59 46h1v1h-1zM71 46h1v1h-1zM35 47h1v1h-1zM40 47h1v1h-1zM59 47h1v1h-1zM64 47h1v1h-1zM71 47h1v1h-1zM35 48h1v1h-1zM40 48h1v1h-1zM59 48h1v1h-1zM64 48h1v1h-1zM71 48h1v1h-1zM35 49h1v1h-1zM40 49h1v1h-1zM59 49h1v1h-1zM64 49h1v1h-1zM71 49h1v1h-1zM35 50h1v1h-1zM40 50h1v1h-1zM59 50h1v1h-1zM64 50h1v1h-1zM71 50h1v1h-1zM35 51h1v1h-1zM40 51h1v1h-1zM59 51h1v1h-1zM64 51h1v1h-1zM71 51h1v1h-1zM35 52h1v1h-1zM40 52h1v1h-1zM59 52h1v1h-1zM64 52h1v1h-1zM71 52h1v1h-1zM0 53h1v1h-1zM35 53h1v1h-1zM40 53h1v1h-1zM59 53h1v1h-1zM64 53h1v1h-1zM71 53h1v1h-1zM35 54h1v1h-1zM40 54h1v1h-1zM59 54h1v1h-1zM64 54h1v1h-1zM71 54h1v1h-1zM35 55h1v1h-1zM40 55h1v1h-1zM59 55h1v1h-1zM64 55h1v1h-1zM71 55h1v1h-1zM35 56h1v1h-1zM40 56h1v1h-1zM59 56h1v1h-1zM64 56h1v1h-1zM71 56h1v1h-1zM35 57h1v1h-1zM40 57h1v1h-1zM59 57h1v1h-1zM64 57h1v1h-1zM71 57h1v1h-1zM35 58h1v1h-1zM40 58h1v1h-1zM59 58h1v1h-1zM64 58h1v1h-1zM71 58h1v1h-1zM35 59h1v1h-1zM40 59h1v1h-1zM59 59h1v1h-1zM64 59h1v1h-1zM71 59h1v1h-1zM3 60h2v1h-2zM35 60h1v1h-1zM40 60h1v1h-1zM59 60h1v1h-1zM64 60h1v1h-1zM71 60h1v1h-1zM35 61h1v1h-1zM40 61h1v1h-1zM59 61h1v1h-1zM64 61h1v1h-1zM71 61h1v1h-1zM35 62h1v1h-1zM40 62h1v1h-1zM59 62h1v1h-1zM64 62h1v1h-1zM71 62h1v1h-1zM35 63h1v1h-1zM40 63h1v1h-1zM59 63h1v1h-1zM64 63h1v1h-1zM71 63h1v1h-1zM35 64h1v1h-1zM40 64h1v1h-1zM59 64h1v1h-1zM64 64h1v1h-1zM71 64h1v1h-1zM35 65h1v1h-1zM40 65h1v1h-1zM59 65h1v1h-1zM64 65h1v1h-1zM71 65h1v1h-1zM35 66h1v1h-1zM40 66h1v1h-1zM51 66h1v1h-1zM59 66h1v1h-1zM64 66h1v1h-1zM71 66h1v1h-1zM35 67h1v1h-1zM40 67h1v1h-1zM59 67h1v1h-1zM64 67h1v1h-1zM71 67h1v1h-1zM35 68h1v1h-1zM40 68h1v1h-1zM59 68h1v1h-1zM64 68h1v1h-1zM71 68h1v1h-1zM35 69h1v1h-1zM40 69h1v1h-1zM59 69h1v1h-1zM64 69h1v1h-1zM35 70h1v1h-1zM40 70h1v1h-1zM59 70h1v1h-1zM64 70h1v1h-1zM35 71h1v1h-1zM40 71h1v1h-1zM59 71h1v1h-1zM64 71h1v1h-1zM35 72h1v1h-1zM40 72h1v1h-1zM59 72h1v1h-1zM64 72h1v1h-1zM35 73h1v1h-1zM40 73h1v1h-1zM59 73h1v1h-1zM64 73h1v1h-1zM35 74h1v1h-1zM40 74h1v1h-1zM59 74h1v1h-1zM64 74h1v1h-1zM73 74h1v1h-1zM35 75h1v1h-1zM59 75h1v1h-1zM64 75h1v1h-1zM35 76h1v1h-1zM59 76h1v1h-1zM64 76h1v1h-1zM59 77h1v1h-1zM64 77h1v1h-1zM59 78h1v1h-1zM64 78h1v1h-1zM25 79h1v1h-1zM39 79h1v1h-1zM59 79h1v1h-1zM64 79h1v1h-1zM59 80h1v1h-1zM64 80h1v1h-1zM59 81h1v1h-1zM64 81h1v1h-1zM59 82h1v1h-1zM64 82h1v1h-1zM30 83h1v1h-1zM32 83h1v1h-1zM54 86h1v1h-1zM57 86h1v1h-1z" /><path fill="#e2177e" d="M68 9h3v1h-3zM68 10h5v1h-5zM68 11h7v1h-7zM68 12h7v1h-7zM69 13h6v1h-6zM71 14h5v1h-5zM71 15h5v1h-5zM72 16h4v1h-4zM72 17h4v1h-4zM72 18h4v1h-4zM72 19h4v1h-4zM72 20h4v1h-4zM72 21h4v1h-4zM72 22h4v1h-4zM72 23h4v1h-4zM72 24h4v1h-4zM72 25h4v1h-4zM72 26h4v1h-4zM72 27h4v1h-4zM72 28h4v1h-4zM72 29h4v1h-4zM72 30h4v1h-4zM72 31h4v1h-4zM72 32h4v1h-4zM72 33h4v1h-4zM72 34h4v1h-4zM72 35h4v1h-4zM72 36h4v1h-4zM72 37h4v1h-4zM72 38h4v1h-4zM72 39h4v1h-4zM72 40h4v1h-4zM72 41h4v1h-4zM72 42h4v1h-4zM72 43h4v1h-4zM72 44h4v1h-4zM72 45h4v1h-4zM72 46h4v1h-4zM72 47h4v1h-4zM72 48h4v1h-4zM72 49h4v1h-4zM72 50h4v1h-4zM72 51h4v1h-4zM72 52h4v1h-4zM72 53h4v1h-4zM72 54h4v1h-4zM72 55h4v1h-4zM72 56h4v1h-4zM72 57h4v1h-4zM72 58h4v1h-4zM72 59h4v1h-4zM72 60h4v1h-4zM72 61h4v1h-4zM72 62h4v1h-4zM72 63h4v1h-4zM72 64h4v1h-4zM72 65h4v1h-4zM72 66h4v1h-4zM72 67h4v1h-4zM72 68h4v1h-4zM72 69h4v1h-4zM71 70h5v1h-5zM72 71h4v1h-4zM73 72h3v1h-3zM72 73h4v1h-4zM74 74h2v1h-2zM74 75h2v1h-2z" /><path fill="#e1177e" d="M73 10h1v1h-1zM68 13h1v1h-1z" /><path fill="#e1157e" d="M61 11h1v1h-1zM36 13h1v1h-1zM44 13h2v1h-2zM59 15h1v1h-1zM15 31h1v1h-1zM25 31h1v1h-1zM12 35h1v1h-1zM28 36h1v1h-1zM3 45h1v1h-1zM0 55h1v1h-1zM11 61h1v1h-1zM52 65h1v1h-1zM64 83h1v1h-1zM48 86h1v1h-1z" /><path fill="#e1157d" d="M51 12h1v1h-1zM65 14h1v1h-1zM52 15h1v1h-1zM64 15h1v1h-1zM64 16h1v1h-1zM16 30h1v1h-1zM14 32h1v1h-1zM26 32h1v1h-1zM27 33h1v1h-1zM0 54h1v1h-1zM11 55h1v1h-1zM6 56h1v1h-1zM16 56h1v1h-1zM1 57h1v1h-1zM15 58h1v1h-1zM5 61h2v1h-2zM48 73h1v1h-1zM30 78h2v1h-2zM26 81h1v1h-1zM28 82h1v1h-1zM34 83h1v1h-1zM55 86h2v1h-2zM63 86h1v1h-1zM54 91h1v1h-1zM57 91h1v1h-1z" /><path fill="#e2157d" d="M43 13h1v1h-1zM46 14h1v1h-1zM40 16h1v1h-1zM23 30h1v1h-1zM13 33h1v1h-1zM49 67h1v1h-1zM24 77h1v1h-1zM40 77h1v1h-1zM25 80h1v1h-1zM49 88h1v1h-1z" /><path fill="#e2177d" d="M70 14h1v1h-1zM91 29h2v1h-2zM89 30h5v1h-5zM87 31h9v1h-9zM86 32h11v1h-11zM85 33h13v1h-13zM84 34h6v1h-6zM91 34h1v1h-1zM93 34h6v1h-6zM84 35h4v1h-4zM94 35h6v1h-6zM83 36h5v1h-5zM95 36h4v1h-4zM83 37h5v1h-5zM95 37h4v1h-4zM83 38h5v1h-5zM95 38h5v1h-5zM83 39h5v1h-5zM95 39h5v1h-5zM83 40h5v1h-5zM95 40h5v1h-5zM83 41h5v1h-5zM95 41h5v1h-5zM83 42h5v1h-5zM95 42h5v1h-5zM83 43h5v1h-5zM95 43h5v1h-5zM83 44h5v1h-5zM95 44h5v1h-5zM83 45h5v1h-5zM95 45h5v1h-5zM83 46h5v1h-5zM95 46h5v1h-5zM83 47h5v1h-5zM95 47h5v1h-5zM83 48h5v1h-5zM95 48h5v1h-5zM83 49h5v1h-5zM95 49h5v1h-5zM83 50h5v1h-5zM95 50h5v1h-5zM83 51h5v1h-5zM95 51h5v1h-5zM83 52h5v1h-5zM95 52h5v1h-5zM83 53h5v1h-5zM95 53h5v1h-5zM83 54h5v1h-5zM95 54h5v1h-5zM83 55h5v1h-5zM95 55h5v1h-5zM83 56h5v1h-5zM95 56h5v1h-5zM83 57h5v1h-5zM95 57h5v1h-5zM83 58h5v1h-5zM95 58h5v1h-5zM83 59h5v1h-5zM95 59h5v1h-5zM83 60h5v1h-5zM95 60h5v1h-5zM83 61h5v1h-5zM95 61h5v1h-5zM83 62h5v1h-5zM95 62h5v1h-5zM83 63h5v1h-5zM95 63h5v1h-5zM83 64h5v1h-5zM95 64h5v1h-5zM83 65h5v1h-5zM95 65h5v1h-5zM83 66h5v1h-5zM96 66h3v1h-3zM83 67h5v1h-5zM98 67h1v1h-1zM83 68h5v1h-5zM83 69h5v1h-5zM83 70h4v1h-4zM76 71h1v1h-1zM82 71h5v1h-5zM76 72h11v1h-11zM76 73h10v1h-10zM76 74h10v1h-10zM76 75h8v1h-8zM77 76h5v1h-5z" /><path fill="#e1177c" d="M76 17h1v1h-1zM76 18h1v1h-1zM76 19h1v1h-1zM76 20h1v1h-1zM76 21h1v1h-1zM76 22h1v1h-1zM76 23h1v1h-1zM76 24h1v1h-1zM76 25h1v1h-1zM76 26h1v1h-1zM76 27h1v1h-1zM76 28h1v1h-1zM76 29h1v1h-1zM76 30h1v1h-1zM87 30h1v1h-1zM95 30h1v1h-1zM76 31h1v1h-1zM86 31h1v1h-1zM96 31h1v1h-1zM76 32h1v1h-1zM76 33h1v1h-1zM76 34h1v1h-1zM76 35h1v1h-1zM88 35h1v1h-1zM76 36h1v1h-1zM76 37h1v1h-1zM76 38h1v1h-1zM76 39h1v1h-1zM76 40h1v1h-1zM76 41h1v1h-1zM76 42h1v1h-1zM76 43h1v1h-1zM76 44h1v1h-1zM76 45h1v1h-1zM76 46h1v1h-1zM76 47h1v1h-1zM76 48h1v1h-1zM76 49h1v1h-1zM76 50h1v1h-1zM76 51h1v1h-1zM76 52h1v1h-1zM76 53h1v1h-1zM76 54h1v1h-1zM76 55h1v1h-1zM76 56h1v1h-1zM76 57h1v1h-1zM76 58h1v1h-1zM76 59h1v1h-1zM76 60h1v1h-1zM76 61h1v1h-1zM76 62h1v1h-1zM76 63h1v1h-1zM76 64h1v1h-1zM76 65h1v1h-1zM76 66h1v1h-1zM95 66h1v1h-1zM76 67h1v1h-1zM96 67h1v1h-1zM76 68h1v1h-1zM82 76h2v1h-2z" /><path fill="#e2177c" d="M90 29h1v1h-1zM97 32h1v1h-1zM93 35h1v1h-1zM76 70h1v1h-1z" /><path fill="#e2167c" d="M85 32h1v1h-1zM87 71h1v1h-1zM86 73h1v1h-1zM76 76h1v1h-1z" /><path fill="#e1167c" d="M98 33h1v1h-1zM92 34h1v1h-1zM88 36h1v1h-1zM94 36h1v1h-1zM97 67h1v1h-1zM82 70h1v1h-1z" /></svg>