<svg xmlns="http://www.w3.org/2000/svg" viewBox="0 0 100 100" width="1em" height="1em"><path fill="#ffcf2f" d="M17 0h1v1h-1zM19 0h2v1h-2zM79 0h2v1h-2zM82 0h1v1h-1zM15 1h1v1h-1zM84 1h2v1h-2zM12 2h1v1h-1zM87 2h1v1h-1zM89 3h1v1h-1zM8 4h2v1h-2zM90 4h2v1h-2zM7 5h1v1h-1zM92 5h1v1h-1zM5 7h1v1h-1zM4 8h1v1h-1zM95 8h1v1h-1zM4 9h1v1h-1zM95 9h1v1h-1zM3 10h1v1h-1zM2 12h1v1h-1zM97 12h1v1h-1zM98 14h1v1h-1zM1 15h1v1h-1zM98 15h1v1h-1zM0 17h1v1h-1zM99 18h1v1h-1zM99 81h1v1h-1zM0 82h1v1h-1zM1 84h1v1h-1zM98 84h1v1h-1zM1 85h1v1h-1zM97 87h1v1h-1zM3 89h1v1h-1zM96 89h1v1h-1zM4 90h1v1h-1zM94 92h1v1h-1zM93 93h1v1h-1zM7 94h1v1h-1zM8 95h2v1h-2zM10 96h1v1h-1zM12 97h1v1h-1zM14 98h2v1h-2zM84 98h1v1h-1zM18 99h1v1h-1zM20 99h2v1h-2zM78 99h4v1h-4z" /><path fill="#ffd02e" d="M18 0h1v1h-1zM81 0h1v1h-1zM14 1h1v1h-1zM10 3h1v1h-1zM6 6h1v1h-1zM93 6h1v1h-1zM94 7h1v1h-1zM96 10h1v1h-1zM1 14h1v1h-1zM99 17h1v1h-1zM0 18h1v1h-1zM0 19h1v1h-1zM99 19h1v1h-1zM0 20h1v1h-1zM99 20h1v1h-1zM0 21h1v1h-1zM99 21h1v1h-1zM0 78h1v1h-1zM99 78h1v1h-1zM0 79h1v1h-1zM99 79h1v1h-1zM0 80h1v1h-1zM99 80h1v1h-1zM0 81h1v1h-1zM99 82h1v1h-1zM98 85h1v1h-1zM2 87h1v1h-1zM95 90h1v1h-1zM4 91h1v1h-1zM5 92h1v1h-1zM6 93h1v1h-1zM92 94h1v1h-1zM90 95h1v1h-1zM89 96h1v1h-1zM87 97h1v1h-1zM85 98h1v1h-1zM17 99h1v1h-1zM19 99h1v1h-1zM82 99h1v1h-1z" /><path fill="#ffd02f" d="M21 0h58v1h-58zM16 1h68v1h-68zM13 2h74v1h-74zM11 3h78v1h-78zM10 4h80v1h-80zM8 5h84v1h-84zM7 6h86v1h-86zM6 7h88v1h-88zM5 8h90v1h-90zM5 9h90v1h-90zM4 10h92v1h-92zM3 11h94v1h-94zM3 12h11v1h-11zM27 12h9v1h-9zM49 12h9v1h-9zM71 12h26v1h-26zM2 13h12v1h-12zM28 13h8v1h-8zM50 13h8v1h-8zM72 13h26v1h-26zM2 14h13v1h-13zM29 14h8v1h-8zM51 14h8v1h-8zM74 14h24v1h-24zM2 15h13v1h-13zM30 15h7v1h-7zM52 15h7v1h-7zM76 15h22v1h-22zM1 16h15v1h-15zM31 16h7v1h-7zM54 16h6v1h-6zM77 16h22v1h-22zM1 17h15v1h-15zM32 17h6v1h-6zM55 17h6v1h-6zM79 17h20v1h-20zM1 18h16v1h-16zM33 18h6v1h-6zM56 18h5v1h-5zM80 18h19v1h-19zM1 19h16v1h-16zM34 19h5v1h-5zM57 19h5v1h-5zM82 19h17v1h-17zM1 20h16v1h-16zM35 20h5v1h-5zM59 20h3v1h-3zM84 20h15v1h-15zM1 21h17v1h-17zM36 21h4v1h-4zM60 21h3v1h-3zM85 21h14v1h-14zM0 22h18v1h-18zM37 22h4v1h-4zM61 22h2v1h-2zM87 22h13v1h-13zM0 23h19v1h-19zM38 23h3v1h-3zM62 23h2v1h-2zM88 23h12v1h-12zM0 24h19v1h-19zM39 24h3v1h-3zM64 24h1v1h-1zM90 24h10v1h-10zM0 25h20v1h-20zM40 25h3v1h-3zM90 25h10v1h-10zM0 26h20v1h-20zM42 26h1v1h-1zM90 26h10v1h-10zM0 27h21v1h-21zM43 27h1v1h-1zM89 27h11v1h-11zM0 28h21v1h-21zM89 28h11v1h-11zM0 29h21v1h-21zM89 29h11v1h-11zM0 30h22v1h-22zM88 30h12v1h-12zM0 31h22v1h-22zM88 31h12v1h-12zM0 32h23v1h-23zM88 32h12v1h-12zM0 33h23v1h-23zM87 33h13v1h-13zM0 34h24v1h-24zM87 34h13v1h-13zM0 35h24v1h-24zM87 35h13v1h-13zM0 36h24v1h-24zM87 36h13v1h-13zM0 37h25v1h-25zM86 37h14v1h-14zM0 38h25v1h-25zM65 38h1v1h-1zM86 38h14v1h-14zM0 39h25v1h-25zM65 39h1v1h-1zM86 39h14v1h-14zM0 40h24v1h-24zM85 40h15v1h-15zM0 41h24v1h-24zM44 41h1v1h-1zM64 41h1v1h-1zM85 41h15v1h-15zM0 42h24v1h-24zM64 42h1v1h-1zM85 42h15v1h-15zM0 43h24v1h-24zM64 43h1v1h-1zM84 43h16v1h-16zM0 44h23v1h-23zM43 44h1v1h-1zM63 44h2v1h-2zM84 44h16v1h-16zM0 45h23v1h-23zM43 45h1v1h-1zM63 45h2v1h-2zM84 45h16v1h-16zM0 46h23v1h-23zM42 46h2v1h-2zM63 46h2v1h-2zM83 46h17v1h-17zM0 47h23v1h-23zM42 47h1v1h-1zM62 47h2v1h-2zM83 47h17v1h-17zM0 48h23v1h-23zM42 48h1v1h-1zM62 48h2v1h-2zM83 48h17v1h-17zM0 49h22v1h-22zM41 49h2v1h-2zM62 49h2v1h-2zM82 49h18v1h-18zM0 50h22v1h-22zM41 50h2v1h-2zM61 50h3v1h-3zM82 50h18v1h-18zM0 51h22v1h-22zM40 51h3v1h-3zM61 51h3v1h-3zM82 51h18v1h-18zM0 52h22v1h-22zM40 52h3v1h-3zM61 52h3v1h-3zM81 52h19v1h-19zM0 53h21v1h-21zM40 53h2v1h-2zM60 53h3v1h-3zM81 53h19v1h-19zM0 54h21v1h-21zM39 54h3v1h-3zM60 54h3v1h-3zM81 54h19v1h-19zM0 55h21v1h-21zM39 55h3v1h-3zM59 55h4v1h-4zM80 55h20v1h-20zM0 56h21v1h-21zM38 56h4v1h-4zM59 56h4v1h-4zM80 56h20v1h-20zM0 57h21v1h-21zM38 57h4v1h-4zM59 57h4v1h-4zM80 57h20v1h-20zM0 58h20v1h-20zM38 58h3v1h-3zM58 58h5v1h-5zM79 58h21v1h-21zM0 59h20v1h-20zM37 59h4v1h-4zM58 59h4v1h-4zM79 59h21v1h-21zM0 60h20v1h-20zM37 60h4v1h-4zM58 60h4v1h-4zM79 60h21v1h-21zM0 61h20v1h-20zM36 61h5v1h-5zM57 61h5v1h-5zM78 61h22v1h-22zM0 62h19v1h-19zM36 62h5v1h-5zM57 62h5v1h-5zM78 62h22v1h-22zM0 63h19v1h-19zM36 63h4v1h-4zM57 63h5v1h-5zM78 63h22v1h-22zM0 64h19v1h-19zM35 64h5v1h-5zM56 64h6v1h-6zM78 64h22v1h-22zM0 65h19v1h-19zM35 65h5v1h-5zM56 65h5v1h-5zM77 65h23v1h-23zM0 66h19v1h-19zM34 66h6v1h-6zM56 66h5v1h-5zM77 66h23v1h-23zM0 67h18v1h-18zM34 67h6v1h-6zM55 67h6v1h-6zM77 67h23v1h-23zM0 68h18v1h-18zM34 68h6v1h-6zM55 68h6v1h-6zM76 68h24v1h-24zM0 69h18v1h-18zM33 69h6v1h-6zM55 69h6v1h-6zM76 69h24v1h-24zM0 70h18v1h-18zM33 70h6v1h-6zM54 70h7v1h-7zM76 70h24v1h-24zM0 71h18v1h-18zM33 71h6v1h-6zM54 71h7v1h-7zM75 71h25v1h-25zM0 72h17v1h-17zM32 72h7v1h-7zM53 72h7v1h-7zM75 72h25v1h-25zM0 73h17v1h-17zM32 73h7v1h-7zM53 73h7v1h-7zM75 73h25v1h-25zM0 74h17v1h-17zM31 74h7v1h-7zM53 74h7v1h-7zM74 74h26v1h-26zM0 75h17v1h-17zM31 75h7v1h-7zM52 75h8v1h-8zM74 75h26v1h-26zM0 76h16v1h-16zM31 76h7v1h-7zM52 76h8v1h-8zM74 76h26v1h-26zM0 77h16v1h-16zM30 77h8v1h-8zM52 77h8v1h-8zM73 77h27v1h-27zM1 78h15v1h-15zM30 78h8v1h-8zM51 78h8v1h-8zM73 78h26v1h-26zM1 79h15v1h-15zM29 79h8v1h-8zM51 79h8v1h-8zM73 79h26v1h-26zM1 80h15v1h-15zM29 80h8v1h-8zM51 80h8v1h-8zM72 80h27v1h-27zM1 81h14v1h-14zM29 81h8v1h-8zM50 81h9v1h-9zM72 81h27v1h-27zM1 82h14v1h-14zM28 82h9v1h-9zM50 82h9v1h-9zM72 82h27v1h-27zM1 83h14v1h-14zM28 83h9v1h-9zM50 83h9v1h-9zM71 83h28v1h-28zM2 84h13v1h-13zM27 84h10v1h-10zM49 84h9v1h-9zM71 84h27v1h-27zM2 85h12v1h-12zM27 85h9v1h-9zM49 85h9v1h-9zM71 85h27v1h-27zM2 86h12v1h-12zM27 86h9v1h-9zM49 86h9v1h-9zM70 86h28v1h-28zM3 87h11v1h-11zM26 87h10v1h-10zM48 87h10v1h-10zM70 87h27v1h-27zM3 88h94v1h-94zM4 89h92v1h-92zM5 90h90v1h-90zM5 91h90v1h-90zM6 92h88v1h-88zM7 93h86v1h-86zM8 94h84v1h-84zM10 95h80v1h-80zM11 96h78v1h-78zM13 97h74v1h-74zM16 98h68v1h-68zM22 99h56v1h-56z" /><path fill="#d7af30" d="M14 12h1v1h-1z" /><path fill="#7a6134" d="M15 12h10v1h-10zM37 12h10v1h-10zM59 12h10v1h-10zM39 25h1v1h-1zM63 56h1v1h-1zM77 62h1v1h-1zM59 81h1v1h-1zM27 82h1v1h-1zM15 83h1v1h-1zM15 87h10v1h-10zM37 87h10v1h-10zM59 87h10v1h-10z" /><path fill="#917533" d="M25 12h1v1h-1zM69 12h1v1h-1zM45 39h1v1h-1z" /><path fill="#fdce2f" d="M26 12h1v1h-1zM40 21h1v1h-1zM41 26h1v1h-1zM86 36h1v1h-1zM65 40h1v1h-1zM61 65h1v1h-1z" /><path fill="#d4ac31" d="M36 12h1v1h-1zM62 60h1v1h-1zM58 85h1v1h-1z" /><path fill="#927533" d="M47 12h1v1h-1zM74 15h1v1h-1zM64 39h1v1h-1zM16 78h1v1h-1z" /><path fill="#fcce2f" d="M48 12h1v1h-1zM75 15h1v1h-1zM39 19h1v1h-1zM17 20h1v1h-1zM83 20h1v1h-1zM23 44h1v1h-1zM41 48h1v1h-1zM61 49h1v1h-1zM30 76h1v1h-1zM14 85h1v1h-1z" /><path fill="#d0a931" d="M58 12h1v1h-1zM14 87h1v1h-1z" /><path fill="#f7c930" d="M70 12h1v1h-1zM36 13h1v1h-1zM58 13h1v1h-1zM84 42h1v1h-1zM37 58h1v1h-1z" /><path fill="#f6c92f" d="M14 13h1v1h-1zM28 14h1v1h-1zM62 20h1v1h-1zM62 46h1v1h-1zM56 63h1v1h-1zM18 67h1v1h-1z" /><path fill="#180f37" d="M15 13h1v1h-1zM84 39h1v1h-1zM65 46h1v1h-1zM61 71h1v1h-1z" /><path fill="#050038" d="M16 13h10v1h-10zM38 13h10v1h-10zM60 13h10v1h-10zM16 14h11v1h-11zM38 14h11v1h-11zM60 14h12v1h-12zM17 15h11v1h-11zM39 15h11v1h-11zM61 15h12v1h-12zM17 16h12v1h-12zM39 16h13v1h-13zM62 16h13v1h-13zM17 17h13v1h-13zM40 17h13v1h-13zM62 17h14v1h-14zM18 18h13v1h-13zM40 18h14v1h-14zM63 18h15v1h-15zM18 19h14v1h-14zM41 19h14v1h-14zM63 19h17v1h-17zM19 20h14v1h-14zM41 20h16v1h-16zM64 20h17v1h-17zM19 21h15v1h-15zM42 21h16v1h-16zM64 21h19v1h-19zM20 22h15v1h-15zM42 22h17v1h-17zM65 22h19v1h-19zM20 23h16v1h-16zM43 23h17v1h-17zM66 23h20v1h-20zM21 24h16v1h-16zM43 24h19v1h-19zM66 24h22v1h-22zM21 25h18v1h-18zM44 25h19v1h-19zM67 25h22v1h-22zM21 26h19v1h-19zM44 26h20v1h-20zM67 26h22v1h-22zM22 27h19v1h-19zM45 27h20v1h-20zM68 27h20v1h-20zM22 28h20v1h-20zM45 28h22v1h-22zM68 28h20v1h-20zM23 29h20v1h-20zM46 29h42v1h-42zM23 30h21v1h-21zM46 30h21v1h-21zM68 30h19v1h-19zM24 31h21v1h-21zM47 31h20v1h-20zM68 31h19v1h-19zM24 32h22v1h-22zM47 32h19v1h-19zM68 32h19v1h-19zM24 33h42v1h-42zM68 33h18v1h-18zM25 34h21v1h-21zM47 34h19v1h-19zM68 34h18v1h-18zM25 35h20v1h-20zM47 35h18v1h-18zM67 35h19v1h-19zM26 36h19v1h-19zM47 36h18v1h-18zM67 36h18v1h-18zM26 37h19v1h-19zM47 37h18v1h-18zM67 37h18v1h-18zM26 38h18v1h-18zM46 38h18v1h-18zM67 38h18v1h-18zM26 39h18v1h-18zM46 39h18v1h-18zM67 39h17v1h-17zM25 40h18v1h-18zM46 40h17v1h-17zM67 40h17v1h-17zM25 41h18v1h-18zM46 41h17v1h-17zM66 41h18v1h-18zM25 42h18v1h-18zM46 42h17v1h-17zM66 42h17v1h-17zM25 43h17v1h-17zM45 43h17v1h-17zM66 43h17v1h-17zM25 44h17v1h-17zM45 44h17v1h-17zM66 44h17v1h-17zM24 45h17v1h-17zM45 45h17v1h-17zM66 45h16v1h-16zM24 46h17v1h-17zM45 46h16v1h-16zM66 46h16v1h-16zM24 47h17v1h-17zM45 47h16v1h-16zM65 47h17v1h-17zM24 48h16v1h-16zM44 48h17v1h-17zM65 48h16v1h-16zM24 49h16v1h-16zM44 49h16v1h-16zM65 49h16v1h-16zM23 50h16v1h-16zM44 50h16v1h-16zM65 50h16v1h-16zM23 51h16v1h-16zM44 51h16v1h-16zM65 51h15v1h-15zM23 52h16v1h-16zM44 52h15v1h-15zM65 52h15v1h-15zM23 53h15v1h-15zM44 53h15v1h-15zM65 53h15v1h-15zM22 54h16v1h-16zM43 54h16v1h-16zM64 54h15v1h-15zM22 55h15v1h-15zM43 55h15v1h-15zM64 55h15v1h-15zM22 56h15v1h-15zM43 56h15v1h-15zM64 56h15v1h-15zM22 57h15v1h-15zM43 57h14v1h-14zM64 57h15v1h-15zM22 58h14v1h-14zM43 58h14v1h-14zM64 58h14v1h-14zM21 59h15v1h-15zM42 59h15v1h-15zM64 59h14v1h-14zM21 60h15v1h-15zM42 60h14v1h-14zM63 60h15v1h-15zM21 61h14v1h-14zM42 61h14v1h-14zM63 61h14v1h-14zM21 62h14v1h-14zM42 62h14v1h-14zM63 62h14v1h-14zM20 63h14v1h-14zM42 63h13v1h-13zM63 63h14v1h-14zM20 64h14v1h-14zM41 64h14v1h-14zM63 64h13v1h-13zM20 65h14v1h-14zM41 65h14v1h-14zM63 65h13v1h-13zM20 66h13v1h-13zM41 66h13v1h-13zM62 66h14v1h-14zM20 67h13v1h-13zM41 67h13v1h-13zM62 67h13v1h-13zM19 68h13v1h-13zM41 68h13v1h-13zM62 68h13v1h-13zM19 69h13v1h-13zM40 69h13v1h-13zM62 69h13v1h-13zM19 70h13v1h-13zM40 70h13v1h-13zM62 70h12v1h-12zM19 71h12v1h-12zM40 71h13v1h-13zM62 71h12v1h-12zM18 72h13v1h-13zM40 72h12v1h-12zM61 72h13v1h-13zM18 73h12v1h-12zM40 73h12v1h-12zM61 73h12v1h-12zM18 74h12v1h-12zM40 74h11v1h-11zM61 74h12v1h-12zM18 75h12v1h-12zM39 75h12v1h-12zM61 75h12v1h-12zM18 76h11v1h-11zM39 76h12v1h-12zM61 76h11v1h-11zM17 77h12v1h-12zM39 77h11v1h-11zM61 77h11v1h-11zM17 78h11v1h-11zM39 78h11v1h-11zM61 78h11v1h-11zM17 79h11v1h-11zM39 79h11v1h-11zM60 79h11v1h-11zM17 80h11v1h-11zM38 80h11v1h-11zM60 80h11v1h-11zM16 81h11v1h-11zM38 81h11v1h-11zM60 81h11v1h-11zM16 82h11v1h-11zM38 82h11v1h-11zM60 82h10v1h-10zM16 83h11v1h-11zM38 83h10v1h-10zM60 83h10v1h-10zM16 84h10v1h-10zM38 84h10v1h-10zM60 84h10v1h-10zM16 85h10v1h-10zM37 85h11v1h-11zM59 85h11v1h-11zM15 86h10v1h-10zM37 86h10v1h-10zM59 86h10v1h-10z" /><path fill="#5d4935" d="M26 13h1v1h-1zM16 16h1v1h-1zM83 43h1v1h-1z" /><path fill="#facc2f" d="M27 13h1v1h-1zM38 17h1v1h-1zM58 20h1v1h-1zM63 24h1v1h-1zM39 53h1v1h-1zM28 81h1v1h-1zM49 83h1v1h-1z" /><path fill="#201737" d="M37 13h1v1h-1zM64 26h1v1h-1zM66 32h1v1h-1zM29 76h1v1h-1z" /><path fill="#443436" d="M48 13h1v1h-1zM43 29h1v1h-1zM26 84h1v1h-1z" /><path fill="#e9be30" d="M49 13h1v1h-1zM54 17h1v1h-1zM59 21h1v1h-1zM22 31h1v1h-1zM24 40h1v1h-1zM42 45h1v1h-1zM15 81h1v1h-1z" /><path fill="#231937" d="M59 13h1v1h-1zM43 52h1v1h-1z" /><path fill="#271d36" d="M70 13h1v1h-1zM39 17h1v1h-1zM59 52h1v1h-1zM31 71h1v1h-1z" /><path fill="#b99632" d="M71 13h1v1h-1zM41 47h1v1h-1zM55 65h1v1h-1z" /><path fill="#7c6333" d="M15 14h1v1h-1z" /><path fill="#503e35" d="M27 14h1v1h-1zM72 14h1v1h-1zM80 19h1v1h-1zM20 61h1v1h-1z" /><path fill="#967932" d="M37 14h1v1h-1zM44 39h1v1h-1zM71 81h1v1h-1z" /><path fill="#211837" d="M49 14h1v1h-1zM54 18h1v1h-1zM59 22h1v1h-1zM40 48h1v1h-1zM37 84h1v1h-1z" /><path fill="#cda631" d="M50 14h1v1h-1zM16 17h1v1h-1zM38 75h1v1h-1z" /><path fill="#a88733" d="M59 14h1v1h-1zM40 20h1v1h-1zM73 75h1v1h-1zM50 79h1v1h-1z" /><path fill="#e5ba30" d="M73 14h1v1h-1zM61 18h1v1h-1zM58 57h1v1h-1z" /><path fill="#e6bb30" d="M15 15h1v1h-1zM64 40h1v1h-1z" /><path fill="#0b0538" d="M16 15h1v1h-1zM35 22h1v1h-1zM45 42h1v1h-1zM41 45h1v1h-1zM42 58h1v1h-1zM56 60h1v1h-1z" /><path fill="#433336" d="M28 15h1v1h-1zM53 17h1v1h-1zM44 27h1v1h-1zM24 43h1v1h-1zM44 46h1v1h-1zM80 52h1v1h-1zM51 75h1v1h-1zM15 84h1v1h-1z" /><path fill="#f1c52f" d="M29 15h1v1h-1zM18 22h1v1h-1zM44 29h1v1h-1zM63 53h1v1h-1zM73 76h1v1h-1zM59 78h1v1h-1z" /><path fill="#f9cb2f" d="M37 15h1v1h-1zM44 42h1v1h-1zM41 58h1v1h-1zM62 59h1v1h-1zM75 70h1v1h-1zM16 76h1v1h-1zM58 84h1v1h-1z" /><path fill="#251b37" d="M38 15h1v1h-1zM18 20h1v1h-1zM86 33h1v1h-1z" /><path fill="#0d0737" d="M50 15h1v1h-1zM55 19h1v1h-1zM60 23h1v1h-1zM65 27h1v1h-1zM23 31h1v1h-1zM62 43h1v1h-1zM32 68h1v1h-1zM17 76h1v1h-1z" /><path fill="#a38333" d="M51 15h1v1h-1zM87 23h1v1h-1z" /><path fill="#fecf2f" d="M59 15h1v1h-1zM63 22h1v1h-1zM41 23h1v1h-1zM24 36h1v1h-1zM43 43h1v1h-1zM43 47h1v1h-1zM60 52h1v1h-1zM21 53h1v1h-1zM19 62h1v1h-1zM40 63h1v1h-1zM77 64h1v1h-1zM54 69h1v1h-1zM32 71h1v1h-1zM37 79h1v1h-1zM48 86h1v1h-1z" /><path fill="#403136" d="M60 15h1v1h-1z" /><path fill="#150d37" d="M73 15h1v1h-1zM33 20h1v1h-1zM41 63h1v1h-1zM74 70h1v1h-1zM25 86h1v1h-1z" /><path fill="#372a36" d="M29 16h1v1h-1zM75 16h1v1h-1zM19 66h1v1h-1z" /><path fill="#ebc02f" d="M30 16h1v1h-1z" /><path fill="#9c7e32" d="M38 16h1v1h-1zM81 50h1v1h-1z" /><path fill="#695335" d="M52 16h1v1h-1zM57 20h1v1h-1zM62 24h1v1h-1zM75 68h1v1h-1z" /><path fill="#fbcd2f" d="M53 16h1v1h-1zM42 27h1v1h-1zM85 39h1v1h-1zM55 66h1v1h-1zM76 67h1v1h-1z" /><path fill="#cea731" d="M60 16h1v1h-1zM41 59h1v1h-1z" /><path fill="#070238" d="M61 16h1v1h-1zM84 22h1v1h-1zM20 24h1v1h-1zM63 40h1v1h-1zM39 50h1v1h-1zM80 51h1v1h-1zM57 57h1v1h-1zM28 78h1v1h-1z" /><path fill="#cca630" d="M76 16h1v1h-1zM55 18h1v1h-1z" /><path fill="#2d2137" d="M30 17h1v1h-1zM45 31h1v1h-1z" /><path fill="#e4b930" d="M31 17h1v1h-1zM65 25h1v1h-1zM71 82h1v1h-1z" /><path fill="#5f4b35" d="M61 17h1v1h-1zM32 69h1v1h-1z" /><path fill="#090338" d="M76 17h1v1h-1zM67 34h1v1h-1zM63 59h1v1h-1zM30 73h1v1h-1zM59 84h1v1h-1z" /><path fill="#715a34" d="M77 17h1v1h-1zM41 61h1v1h-1zM76 65h1v1h-1z" /><path fill="#f2c530" d="M78 17h1v1h-1zM20 58h1v1h-1zM35 63h1v1h-1z" /><path fill="#3f3036" d="M17 18h1v1h-1z" /><path fill="#241a37" d="M31 18h1v1h-1zM46 36h1v1h-1zM25 39h1v1h-1zM16 80h1v1h-1z" /><path fill="#dbb230" d="M32 18h1v1h-1zM38 55h1v1h-1z" /><path fill="#a28332" d="M39 18h1v1h-1zM56 19h1v1h-1zM63 55h1v1h-1zM59 80h1v1h-1z" /><path fill="#100938" d="M62 18h1v1h-1zM34 21h1v1h-1zM49 80h1v1h-1z" /><path fill="#1f1637" d="M78 18h1v1h-1zM67 28h1v1h-1zM85 36h1v1h-1zM64 52h1v1h-1zM76 64h1v1h-1zM18 71h1v1h-1zM60 77h1v1h-1z" /><path fill="#ae8c32" d="M79 18h1v1h-1zM41 22h1v1h-1zM83 44h1v1h-1zM37 81h1v1h-1zM47 87h1v1h-1z" /><path fill="#ac8b32" d="M17 19h1v1h-1zM56 62h1v1h-1zM58 86h1v1h-1z" /><path fill="#1d1437" d="M32 19h1v1h-1zM86 23h1v1h-1zM22 29h1v1h-1z" /><path fill="#d1aa30" d="M33 19h1v1h-1zM23 33h1v1h-1zM36 60h1v1h-1z" /><path fill="#2c2136" d="M40 19h1v1h-1zM65 35h1v1h-1z" /><path fill="#826833" d="M62 19h1v1h-1zM22 30h1v1h-1zM43 50h1v1h-1zM59 53h1v1h-1zM78 59h1v1h-1zM29 77h1v1h-1z" /><path fill="#e2b830" d="M81 19h1v1h-1zM40 50h1v1h-1zM80 54h1v1h-1zM17 72h1v1h-1z" /><path fill="#c6a131" d="M34 20h1v1h-1z" /><path fill="#221837" d="M63 20h1v1h-1zM46 34h1v1h-1zM40 68h1v1h-1zM47 86h1v1h-1z" /><path fill="#0f0838" d="M81 20h1v1h-1zM66 25h1v1h-1zM67 30h1v1h-1zM66 40h1v1h-1zM62 65h1v1h-1zM73 73h1v1h-1z" /><path fill="#8a6f33" d="M82 20h1v1h-1zM79 56h1v1h-1z" /><path fill="#8d7133" d="M18 21h1v1h-1zM42 44h1v1h-1zM70 84h1v1h-1z" /><path fill="#ba9731" d="M35 21h1v1h-1zM43 26h1v1h-1z" /><path fill="#322636" d="M41 21h1v1h-1zM44 38h1v1h-1zM42 57h1v1h-1zM78 58h1v1h-1z" /><path fill="#423335" d="M58 21h1v1h-1zM63 25h1v1h-1zM41 62h1v1h-1z" /><path fill="#a48432" d="M63 21h1v1h-1zM19 64h1v1h-1z" /><path fill="#332637" d="M83 21h1v1h-1zM45 41h1v1h-1z" /><path fill="#c8a231" d="M84 21h1v1h-1zM54 68h1v1h-1z" /><path fill="#130b38" d="M19 22h1v1h-1zM61 46h1v1h-1z" /><path fill="#ad8b32" d="M36 22h1v1h-1zM66 36h1v1h-1zM62 61h1v1h-1z" /><path fill="#cba531" d="M60 22h1v1h-1zM65 26h1v1h-1zM60 51h1v1h-1z" /><path fill="#3a2c36" d="M64 22h1v1h-1z" /><path fill="#604c35" d="M85 22h1v1h-1zM74 71h1v1h-1zM39 72h1v1h-1z" /><path fill="#edc130" d="M86 22h1v1h-1zM22 49h1v1h-1zM57 60h1v1h-1zM33 68h1v1h-1zM39 69h1v1h-1z" /><path fill="#705934" d="M19 23h1v1h-1zM64 50h1v1h-1zM54 67h1v1h-1zM60 75h1v1h-1zM38 77h1v1h-1z" /><path fill="#080238" d="M36 23h1v1h-1zM21 58h1v1h-1zM71 79h1v1h-1z" /><path fill="#9e7f33" d="M37 23h1v1h-1zM21 55h1v1h-1zM35 62h1v1h-1zM38 76h1v1h-1z" /><path fill="#392b36" d="M42 23h1v1h-1z" /><path fill="#a18232" d="M61 23h1v1h-1zM63 42h1v1h-1z" /><path fill="#c7a231" d="M64 23h1v1h-1zM86 35h1v1h-1z" /><path fill="#060138" d="M65 23h1v1h-1zM37 24h1v1h-1zM46 32h1v1h-1zM46 37h1v1h-1zM23 49h1v1h-1zM43 53h1v1h-1zM64 53h1v1h-1zM79 54h1v1h-1zM37 55h1v1h-1zM51 74h1v1h-1zM60 78h1v1h-1zM70 82h1v1h-1z" /><path fill="#dcb330" d="M19 24h1v1h-1zM65 37h1v1h-1zM19 63h1v1h-1z" /><path fill="#8e7233" d="M38 24h1v1h-1zM65 43h1v1h-1zM61 68h1v1h-1z" /><path fill="#b49132" d="M42 24h1v1h-1zM69 87h1v1h-1z" /><path fill="#5b4835" d="M65 24h1v1h-1zM25 38h1v1h-1zM16 79h1v1h-1z" /><path fill="#453536" d="M88 24h1v1h-1zM24 34h1v1h-1zM37 56h1v1h-1z" /><path fill="#d9b031" d="M89 24h1v1h-1zM59 54h1v1h-1zM79 57h1v1h-1z" /><path fill="#503f35" d="M20 25h1v1h-1zM67 32h1v1h-1zM50 78h1v1h-1zM37 83h1v1h-1z" /><path fill="#3c2e36" d="M43 25h1v1h-1zM35 61h1v1h-1z" /><path fill="#e8bd30" d="M64 25h1v1h-1zM64 47h1v1h-1zM60 72h1v1h-1z" /><path fill="#907433" d="M89 25h1v1h-1zM42 55h1v1h-1z" /><path fill="#be9a31" d="M20 26h1v1h-1zM85 38h1v1h-1zM39 70h1v1h-1z" /><path fill="#6e5734" d="M40 26h1v1h-1zM19 65h1v1h-1z" /><path fill="#7e6434" d="M66 26h1v1h-1z" /><path fill="#dfb530" d="M89 26h1v1h-1zM65 41h1v1h-1zM43 48h1v1h-1zM61 66h1v1h-1z" /><path fill="#342736" d="M21 27h1v1h-1zM66 39h1v1h-1zM62 64h1v1h-1zM52 72h1v1h-1zM69 86h1v1h-1z" /><path fill="#5e4a35" d="M41 27h1v1h-1zM49 81h1v1h-1z" /><path fill="#947733" d="M66 27h1v1h-1zM33 67h1v1h-1z" /><path fill="#1e1537" d="M67 27h1v1h-1z" /><path fill="#382a37" d="M88 27h1v1h-1zM58 55h1v1h-1z" /><path fill="#a08132" d="M21 28h1v1h-1zM44 44h1v1h-1z" /><path fill="#534135" d="M42 28h1v1h-1zM56 61h1v1h-1z" /><path fill="#f8ca30" d="M43 28h1v1h-1zM21 29h1v1h-1zM38 74h1v1h-1z" /><path fill="#c09c31" d="M44 28h1v1h-1zM45 38h1v1h-1zM64 48h1v1h-1zM60 73h1v1h-1z" /><path fill="#876c34" d="M88 28h1v1h-1z" /><path fill="#463636" d="M45 29h1v1h-1zM57 58h1v1h-1zM71 80h1v1h-1z" /><path fill="#d8af31" d="M88 29h1v1h-1zM27 83h1v1h-1z" /><path fill="#3b2d36" d="M44 30h1v1h-1zM67 31h1v1h-1zM64 38h1v1h-1zM79 55h1v1h-1z" /><path fill="#b49232" d="M45 30h1v1h-1z" /><path fill="#2e2237" d="M87 30h1v1h-1z" /><path fill="#312536" d="M46 31h1v1h-1zM21 57h1v1h-1zM33 66h1v1h-1zM39 73h1v1h-1z" /><path fill="#806634" d="M87 31h1v1h-1zM25 37h1v1h-1zM37 82h1v1h-1z" /><path fill="#634e35" d="M23 32h1v1h-1z" /><path fill="#cfa831" d="M87 32h1v1h-1zM44 43h1v1h-1zM23 45h1v1h-1zM14 86h1v1h-1z" /><path fill="#775f34" d="M66 33h1v1h-1zM86 34h1v1h-1z" /><path fill="#2a1f37" d="M67 33h1v1h-1zM42 43h1v1h-1zM23 48h1v1h-1z" /><path fill="#c9a331" d="M66 34h1v1h-1zM16 77h1v1h-1zM36 87h1v1h-1z" /><path fill="#b39032" d="M24 35h1v1h-1z" /><path fill="#110a37" d="M45 35h1v1h-1zM24 44h1v1h-1zM34 63h1v1h-1zM15 85h1v1h-1z" /><path fill="#473735" d="M46 35h1v1h-1z" /><path fill="#d5ad30" d="M66 35h1v1h-1zM21 54h1v1h-1zM53 71h1v1h-1z" /><path fill="#2b2036" d="M25 36h1v1h-1z" /><path fill="#6a5434" d="M45 36h1v1h-1z" /><path fill="#846a33" d="M65 36h1v1h-1zM66 37h1v1h-1zM62 62h1v1h-1z" /><path fill="#bc9931" d="M45 37h1v1h-1zM20 59h1v1h-1z" /><path fill="#6d5635" d="M85 37h1v1h-1zM48 84h1v1h-1z" /><path fill="#5c4934" d="M66 38h1v1h-1zM62 63h1v1h-1z" /><path fill="#0e0738" d="M43 40h1v1h-1zM82 45h1v1h-1z" /><path fill="#eec230" d="M44 40h1v1h-1zM82 48h1v1h-1z" /><path fill="#624d35" d="M45 40h1v1h-1zM23 47h1v1h-1zM55 64h1v1h-1z" /><path fill="#665134" d="M84 40h1v1h-1zM65 44h1v1h-1zM61 69h1v1h-1z" /><path fill="#b18f32" d="M24 41h1v1h-1zM39 52h1v1h-1zM15 82h1v1h-1z" /><path fill="#614d34" d="M43 41h1v1h-1zM42 56h1v1h-1z" /><path fill="#493836" d="M63 41h1v1h-1z" /><path fill="#b59331" d="M84 41h1v1h-1z" /><path fill="#7b6234" d="M24 42h1v1h-1zM38 54h1v1h-1z" /><path fill="#c39e31" d="M43 42h1v1h-1zM18 68h1v1h-1z" /><path fill="#b69431" d="M65 42h1v1h-1zM22 50h1v1h-1zM61 67h1v1h-1zM49 82h1v1h-1z" /><path fill="#120b37" d="M83 42h1v1h-1zM55 63h1v1h-1z" /><path fill="#f0c42f" d="M63 43h1v1h-1z" /><path fill="#574535" d="M62 44h1v1h-1zM41 46h1v1h-1zM73 74h1v1h-1z" /><path fill="#725b34" d="M44 45h1v1h-1zM36 59h1v1h-1z" /><path fill="#af8d32" d="M62 45h1v1h-1zM40 65h1v1h-1zM28 80h1v1h-1z" /><path fill="#3e2f36" d="M65 45h1v1h-1zM61 70h1v1h-1z" /><path fill="#f4c72f" d="M83 45h1v1h-1zM74 73h1v1h-1z" /><path fill="#987a33" d="M23 46h1v1h-1zM64 49h1v1h-1zM60 74h1v1h-1z" /><path fill="#544235" d="M82 46h1v1h-1z" /><path fill="#160e37" d="M44 47h1v1h-1zM22 53h1v1h-1z" /><path fill="#655034" d="M61 47h1v1h-1z" /><path fill="#a58532" d="M82 47h1v1h-1z" /><path fill="#bd9932" d="M61 48h1v1h-1zM36 86h1v1h-1z" /><path fill="#0a0438" d="M81 48h1v1h-1zM19 67h1v1h-1zM39 74h1v1h-1zM50 77h1v1h-1z" /><path fill="#836934" d="M40 49h1v1h-1z" /><path fill="#b08e32" d="M43 49h1v1h-1zM74 72h1v1h-1z" /><path fill="#1e1438" d="M60 49h1v1h-1z" /><path fill="#4c3b35" d="M81 49h1v1h-1z" /><path fill="#745c34" d="M60 50h1v1h-1zM17 74h1v1h-1z" /><path fill="#816733" d="M22 51h1v1h-1zM40 66h1v1h-1z" /><path fill="#4f3d36" d="M39 51h1v1h-1zM72 77h1v1h-1z" /><path fill="#524036" d="M43 51h1v1h-1z" /><path fill="#483736" d="M64 51h1v1h-1zM60 76h1v1h-1z" /><path fill="#e7bc30" d="M81 51h1v1h-1z" /><path fill="#4a3936" d="M22 52h1v1h-1z" /><path fill="#1c1337" d="M38 53h1v1h-1zM27 81h1v1h-1z" /><path fill="#efc330" d="M42 53h1v1h-1z" /><path fill="#937633" d="M80 53h1v1h-1z" /><path fill="#bf9b31" d="M42 54h1v1h-1z" /><path fill="#caa431" d="M63 54h1v1h-1zM77 63h1v1h-1zM34 65h1v1h-1zM59 79h1v1h-1z" /><path fill="#685235" d="M21 56h1v1h-1zM34 64h1v1h-1z" /><path fill="#8f7333" d="M58 56h1v1h-1zM39 71h1v1h-1z" /><path fill="#a78732" d="M37 57h1v1h-1z" /><path fill="#514035" d="M63 57h1v1h-1zM40 67h1v1h-1zM59 82h1v1h-1z" /><path fill="#170f37" d="M36 58h1v1h-1z" /><path fill="#291e37" d="M63 58h1v1h-1zM59 83h1v1h-1z" /><path fill="#9d7e33" d="M57 59h1v1h-1z" /><path fill="#856b33" d="M20 60h1v1h-1z" /><path fill="#9f8033" d="M41 60h1v1h-1zM72 78h1v1h-1z" /><path fill="#d3ab31" d="M78 60h1v1h-1z" /><path fill="#281d37" d="M77 61h1v1h-1z" /><path fill="#1a1137" d="M20 62h1v1h-1zM54 66h1v1h-1z" /><path fill="#deb430" d="M40 64h1v1h-1z" /><path fill="#c19d31" d="M76 66h1v1h-1zM32 70h1v1h-1z" /><path fill="#191038" d="M75 67h1v1h-1zM48 83h1v1h-1z" /><path fill="#8b7033" d="M18 69h1v1h-1zM31 72h1v1h-1zM52 73h1v1h-1z" /><path fill="#261c37" d="M53 69h1v1h-1z" /><path fill="#b89532" d="M75 69h1v1h-1z" /><path fill="#554335" d="M18 70h1v1h-1zM30 74h1v1h-1z" /><path fill="#7f6534" d="M53 70h1v1h-1z" /><path fill="#ab8a32" d="M17 73h1v1h-1z" /><path fill="#e6bc2f" d="M31 73h1v1h-1z" /><path fill="#e0b630" d="M52 74h1v1h-1z" /><path fill="#3d2e36" d="M17 75h1v1h-1zM70 83h1v1h-1z" /><path fill="#b79432" d="M30 75h1v1h-1z" /><path fill="#9a7c33" d="M51 76h1v1h-1z" /><path fill="#0c0637" d="M72 76h1v1h-1z" /><path fill="#ecc02f" d="M51 77h1v1h-1zM36 85h1v1h-1z" /><path fill="#e1b730" d="M29 78h1v1h-1z" /><path fill="#413236" d="M38 78h1v1h-1z" /><path fill="#4d3c35" d="M28 79h1v1h-1z" /><path fill="#140c38" d="M38 79h1v1h-1z" /><path fill="#eabf30" d="M72 79h1v1h-1z" /><path fill="#ddb331" d="M37 80h1v1h-1zM70 85h1v1h-1z" /><path fill="#f3c630" d="M50 80h1v1h-1z" /><path fill="#a68632" d="M26 85h1v1h-1zM25 87h1v1h-1z" /><path fill="#c49f31" d="M48 85h1v1h-1z" /><path fill="#f5c82f" d="M26 86h1v1h-1z" /><path fill="#c29d32" d="M58 87h1v1h-1z" /></svg>