<svg xmlns="http://www.w3.org/2000/svg" viewBox="0 0 100 100" width="1em" height="1em"><path fill="#ffd700" d="M14 14h14v1h-14zM72 14h13v1h-13zM15 15h13v1h-13zM71 15h14v1h-14zM15 16h13v1h-13zM71 16h14v1h-14zM15 17h13v1h-13zM71 17h14v1h-14zM15 18h13v1h-13zM71 18h14v1h-14zM15 19h13v1h-13zM71 19h14v1h-14zM15 20h13v1h-13zM71 20h14v1h-14zM15 21h13v1h-13zM71 21h14v1h-14zM15 22h13v1h-13zM71 22h14v1h-14zM15 23h13v1h-13zM71 23h14v1h-14zM15 24h13v1h-13zM71 24h14v1h-14zM15 25h13v1h-13zM71 25h14v1h-14zM15 26h13v1h-13zM71 26h14v1h-14zM15 27h13v1h-13zM71 27h14v1h-14z" /><path fill="#ffd600" d="M85 14h1v1h-1zM14 15h1v1h-1zM28 15h1v1h-1zM85 15h1v1h-1zM14 16h1v1h-1zM28 16h1v1h-1zM85 16h1v1h-1zM14 17h1v1h-1zM28 17h1v1h-1zM85 17h1v1h-1zM14 18h1v1h-1zM28 18h1v1h-1zM85 18h1v1h-1zM14 19h1v1h-1zM28 19h1v1h-1zM85 19h1v1h-1zM14 20h1v1h-1zM28 20h1v1h-1zM85 20h1v1h-1zM14 21h1v1h-1zM28 21h1v1h-1zM85 21h1v1h-1zM14 22h1v1h-1zM28 22h1v1h-1zM85 22h1v1h-1zM14 23h1v1h-1zM28 23h1v1h-1zM85 23h1v1h-1zM14 24h1v1h-1zM28 24h1v1h-1zM85 24h1v1h-1zM14 25h1v1h-1zM28 25h1v1h-1zM85 25h1v1h-1zM14 26h1v1h-1zM28 26h1v1h-1zM85 26h1v1h-1zM14 27h1v1h-1zM28 27h1v1h-1zM85 27h1v1h-1z" /><path fill="#ffbc00" d="M14 28h1v1h-1z" /><path fill="#ffba00" d="M15 28h13v1h-13zM72 28h13v1h-13z" /><path fill="#ffb500" d="M28 28h1v1h-1zM71 28h1v1h-1z" /><path fill="#ffae00" d="M29 28h13v1h-13zM58 28h13v1h-13zM57 29h1v1h-1zM85 29h1v1h-1zM57 30h1v1h-1zM85 30h1v1h-1zM57 31h1v1h-1zM85 31h1v1h-1zM57 32h1v1h-1zM85 32h1v1h-1zM57 33h1v1h-1zM85 33h1v1h-1zM57 34h1v1h-1zM85 34h1v1h-1zM57 35h1v1h-1zM85 35h1v1h-1zM57 36h1v1h-1zM85 36h1v1h-1zM57 37h1v1h-1zM85 37h1v1h-1zM57 38h1v1h-1zM85 38h1v1h-1zM57 39h1v1h-1zM85 39h1v1h-1zM57 40h1v1h-1zM85 40h1v1h-1zM57 41h1v1h-1zM85 41h1v1h-1z" /><path fill="#ffbd00" d="M85 28h1v1h-1z" /><path fill="#ffaf00" d="M14 29h29v1h-29zM58 29h27v1h-27zM14 30h29v1h-29zM58 30h27v1h-27zM14 31h29v1h-29zM58 31h27v1h-27zM14 32h29v1h-29zM58 32h27v1h-27zM14 33h29v1h-29zM58 33h27v1h-27zM14 34h29v1h-29zM58 34h27v1h-27zM14 35h29v1h-29zM58 35h27v1h-27zM14 36h29v1h-29zM58 36h27v1h-27zM14 37h29v1h-29zM58 37h27v1h-27zM14 38h29v1h-29zM58 38h27v1h-27zM14 39h29v1h-29zM58 39h27v1h-27zM14 40h29v1h-29zM58 40h27v1h-27zM14 41h29v1h-29zM58 41h27v1h-27z" /><path fill="#ffa101" d="M14 42h1v1h-1zM85 42h1v1h-1z" /><path fill="#ffa001" d="M15 42h27v1h-27zM58 42h27v1h-27z" /><path fill="#ff9f01" d="M42 42h1v1h-1zM57 42h1v1h-1z" /><path fill="#ff8205" d="M14 43h71v1h-71zM14 44h71v1h-71zM14 45h71v1h-71zM14 46h71v1h-71zM14 47h71v1h-71zM14 48h71v1h-71zM14 49h71v1h-71zM14 50h71v1h-71zM14 51h71v1h-71zM14 52h71v1h-71zM14 53h71v1h-71zM14 54h71v1h-71zM14 55h71v1h-71zM14 56h71v1h-71z" /><path fill="#ff8105" d="M85 43h1v1h-1zM85 44h1v1h-1zM85 45h1v1h-1zM85 46h1v1h-1zM85 47h1v1h-1zM85 48h1v1h-1zM85 49h1v1h-1zM85 50h1v1h-1zM85 51h1v1h-1zM85 52h1v1h-1zM85 53h1v1h-1zM85 54h1v1h-1zM85 55h1v1h-1zM85 56h1v1h-1z" /><path fill="#f9500f" d="M14 57h1v1h-1zM14 58h1v1h-1zM28 58h1v1h-1zM14 59h1v1h-1zM28 59h1v1h-1zM14 60h1v1h-1zM28 60h1v1h-1zM14 61h1v1h-1zM28 61h1v1h-1zM14 62h1v1h-1zM28 62h1v1h-1zM14 63h1v1h-1zM28 63h1v1h-1zM14 64h1v1h-1zM28 64h1v1h-1zM14 65h1v1h-1zM28 65h1v1h-1zM14 66h1v1h-1zM28 66h1v1h-1zM14 67h1v1h-1zM28 67h1v1h-1zM14 68h1v1h-1zM28 68h1v1h-1zM14 69h1v1h-1zM28 69h1v1h-1zM14 70h1v1h-1zM28 70h1v1h-1z" /><path fill="#f94f0f" d="M15 57h13v1h-13zM43 57h14v1h-14zM72 57h13v1h-13zM71 58h1v1h-1zM85 58h1v1h-1zM71 59h1v1h-1zM85 59h1v1h-1zM71 60h1v1h-1zM85 60h1v1h-1zM71 61h1v1h-1zM85 61h1v1h-1zM71 62h1v1h-1zM85 62h1v1h-1zM71 63h1v1h-1zM85 63h1v1h-1zM71 64h1v1h-1zM85 64h1v1h-1zM71 65h1v1h-1zM85 65h1v1h-1zM71 66h1v1h-1zM85 66h1v1h-1zM71 67h1v1h-1zM85 67h1v1h-1zM71 68h1v1h-1zM85 68h1v1h-1zM71 69h1v1h-1zM85 69h1v1h-1zM71 70h1v1h-1zM85 70h1v1h-1z" /><path fill="#f9500e" d="M28 57h1v1h-1z" /><path fill="#f9500d" d="M71 57h1v1h-1z" /><path fill="#fa510e" d="M85 57h1v1h-1z" /><path fill="#fa500f" d="M15 58h13v1h-13zM43 58h14v1h-14zM72 58h13v1h-13zM15 59h13v1h-13zM43 59h14v1h-14zM72 59h13v1h-13zM15 60h13v1h-13zM43 60h14v1h-14zM72 60h13v1h-13zM15 61h13v1h-13zM43 61h14v1h-14zM72 61h13v1h-13zM15 62h13v1h-13zM43 62h14v1h-14zM72 62h13v1h-13zM15 63h13v1h-13zM43 63h14v1h-14zM72 63h13v1h-13zM15 64h13v1h-13zM43 64h14v1h-14zM72 64h13v1h-13zM15 65h13v1h-13zM43 65h14v1h-14zM72 65h13v1h-13zM15 66h13v1h-13zM43 66h14v1h-14zM72 66h13v1h-13zM15 67h13v1h-13zM43 67h14v1h-14zM72 67h13v1h-13zM15 68h13v1h-13zM43 68h14v1h-14zM72 68h13v1h-13zM15 69h13v1h-13zM43 69h14v1h-14zM72 69h13v1h-13zM15 70h13v1h-13zM43 70h14v1h-14zM72 70h13v1h-13z" /><path fill="#e00400" d="M0 71h14v1h-14zM29 71h13v1h-13zM58 71h13v1h-13zM86 71h14v1h-14zM42 72h1v1h-1zM57 72h1v1h-1zM42 73h1v1h-1zM57 73h1v1h-1zM42 74h1v1h-1zM57 74h1v1h-1zM42 75h1v1h-1zM57 75h1v1h-1zM42 76h1v1h-1zM57 76h1v1h-1zM42 77h1v1h-1zM57 77h1v1h-1zM42 78h1v1h-1zM57 78h1v1h-1zM42 79h1v1h-1zM57 79h1v1h-1zM42 80h1v1h-1zM57 80h1v1h-1zM42 81h1v1h-1zM57 81h1v1h-1zM42 82h1v1h-1zM57 82h1v1h-1zM42 83h1v1h-1zM57 83h1v1h-1zM42 84h1v1h-1zM57 84h1v1h-1z" /><path fill="#e30b01" d="M14 71h1v1h-1z" /><path fill="#e30c02" d="M15 71h13v1h-13zM72 71h13v1h-13z" /><path fill="#e20901" d="M28 71h1v1h-1zM71 71h1v1h-1z" /><path fill="#e10600" d="M42 71h1v1h-1zM57 71h1v1h-1z" /><path fill="#e30a01" d="M85 71h1v1h-1z" /><path fill="#e10500" d="M0 72h42v1h-42zM58 72h42v1h-42zM0 73h42v1h-42zM58 73h42v1h-42zM0 74h42v1h-42zM58 74h42v1h-42zM0 75h42v1h-42zM58 75h42v1h-42zM0 76h42v1h-42zM58 76h42v1h-42zM0 77h42v1h-42zM58 77h42v1h-42zM0 78h42v1h-42zM58 78h42v1h-42zM0 79h42v1h-42zM58 79h42v1h-42zM0 80h42v1h-42zM58 80h42v1h-42zM0 81h42v1h-42zM58 81h42v1h-42zM0 82h42v1h-42zM58 82h42v1h-42zM0 83h42v1h-42zM58 83h42v1h-42zM0 84h42v1h-42zM58 84h42v1h-42zM0 85h43v1h-43zM57 85h43v1h-43z" /></svg>