<svg xmlns="http://www.w3.org/2000/svg" viewBox="0 0 100 100"><path fill="gold" fill-rule="evenodd" stroke="gold" stroke-width=".1" d="M14 14h14v14h-13v-13h-1zm58 0h13v14h-14v-13h1z"/><path fill="#ffd600" fill-rule="evenodd" stroke="#ffd600" stroke-width=".1" d="M85 14h1v14h-1zm-71 1h1v13h-1zm14 0h1v13h-1z"/><path fill="#ffbc00" fill-rule="evenodd" stroke="#ffbc00" stroke-width=".1" d="M14 28h1v1h-1z"/><path fill="#ffba00" fill-rule="evenodd" stroke="#ffba00" stroke-width=".1" d="M15 28h13v1h-13zm57 0h13v1h-13z"/><path fill="#ffb500" fill-rule="evenodd" stroke="#ffb500" stroke-width=".1" d="M28 28h1v1h-1zm43 0h1v1h-1z"/><path fill="#ffae00" fill-rule="evenodd" stroke="#ffae00" stroke-width=".1" d="M29 28h13v1h-13zm29 0h13v1h-13zm0 1v13h-1v-13zm27 0h1v13h-1z"/><path fill="#ffbd00" fill-rule="evenodd" stroke="#ffbd00" stroke-width=".1" d="M85 28h1v1h-1z"/><path fill="#ffaf00" fill-rule="evenodd" stroke="#ffaf00" stroke-width=".1" d="M14 29h29v13h-29zm44 0h27v13h-27z"/><path fill="#ffa101" fill-rule="evenodd" stroke="#ffa101" stroke-width=".1" d="M14 42h1v1h-1zm71 0h1v1h-1z"/><path fill="#ffa001" fill-rule="evenodd" stroke="#ffa001" stroke-width=".1" d="M15 42h27v1h-27zm43 0h27v1h-27z"/><path fill="#ff9f01" fill-rule="evenodd" stroke="#ff9f01" stroke-width=".1" d="M42 42h1v1h-1zm15 0h1v1h-1z"/><path fill="#ff8205" fill-rule="evenodd" stroke="#ff8205" stroke-width=".1" d="M14 43h71v14h-71z"/><path fill="#ff8105" fill-rule="evenodd" stroke="#ff8105" stroke-width=".1" d="M85 43h1v14h-1z"/><path fill="#f9500f" fill-rule="evenodd" stroke="#f9500f" stroke-width=".1" d="M14 57h1v14h-1zm14 1h1v13h-1z"/><path fill="#f94f0f" fill-rule="evenodd" stroke="#f94f0f" stroke-width=".1" d="M15 57h13v1h-13zm28 0h14v1h-14zm29 0h13v1h-13zm0 1v13h-1v-13zm13 0h1v13h-1z"/><path fill="#f9500e" fill-rule="evenodd" stroke="#f9500e" stroke-width=".1" d="M28 57h1v1h-1z"/><path fill="#f9500d" fill-rule="evenodd" stroke="#f9500d" stroke-width=".1" d="M71 57h1v1h-1z"/><path fill="#fa510e" fill-rule="evenodd" stroke="#fa510e" stroke-width=".1" d="M85 57h1v1h-1z"/><path fill="#fa500f" fill-rule="evenodd" stroke="#fa500f" stroke-width=".1" d="M15 58h13v13h-13zm28 0h14v13h-14zm29 0h13v13h-13z"/><path fill="#e00400" fill-rule="evenodd" stroke="#e00400" stroke-width=".1" d="M0 71h14v1h-14zm29 0h13v1h-13zm13 1h1v13h-1zm16-1h13v1h-13zm0 1v13h-1v-13zm28-1h14v1h-14z"/><path fill="#e30b01" fill-rule="evenodd" stroke="#e30b01" stroke-width=".1" d="M14 71h1v1h-1z"/><path fill="#e30c02" fill-rule="evenodd" stroke="#e30c02" stroke-width=".1" d="M15 71h13v1h-13zm57 0h13v1h-13z"/><path fill="#e20901" fill-rule="evenodd" stroke="#e20901" stroke-width=".1" d="M28 71h1v1h-1zm43 0h1v1h-1z"/><path fill="#e10600" fill-rule="evenodd" stroke="#e10600" stroke-width=".1" d="M42 71h1v1h-1zm15 0h1v1h-1z"/><path fill="#e30a01" fill-rule="evenodd" stroke="#e30a01" stroke-width=".1" d="M85 71h1v1h-1z"/><path fill="#e10500" fill-rule="evenodd" stroke="#e10500" stroke-width=".1" d="M0 72h42v13h1v1h-43zm58 0h42v14h-43v-1h1z"/></svg>