<svg xmlns="http://www.w3.org/2000/svg" viewBox="0 0 100 100" width="1em" height="1em"><path fill="#6249ff" d="M11 22h1v1h-1zM88 22h1v1h-1zM11 55h1v1h-1zM88 55h1v1h-1zM44 56h1v1h-1zM55 56h1v1h-1zM44 57h1v1h-1zM55 57h1v1h-1zM44 58h1v1h-1zM55 58h1v1h-1zM44 59h1v1h-1zM55 59h1v1h-1zM44 60h1v1h-1zM55 60h1v1h-1zM44 61h1v1h-1zM55 61h1v1h-1zM44 62h1v1h-1zM55 62h1v1h-1zM44 63h1v1h-1zM55 63h1v1h-1zM44 64h1v1h-1zM55 64h1v1h-1zM44 65h1v1h-1zM55 65h1v1h-1zM45 66h10v1h-10zM12 77h21v1h-21zM67 77h21v1h-21z" /><path fill="#6149ff" d="M12 22h21v1h-21zM67 22h21v1h-21z" /><path fill="#614aff" d="M11 23h1v1h-1zM88 23h1v1h-1zM11 24h1v1h-1zM88 24h1v1h-1zM11 25h1v1h-1zM88 25h1v1h-1zM11 26h1v1h-1zM88 26h1v1h-1zM11 27h1v1h-1zM88 27h1v1h-1zM11 28h1v1h-1zM88 28h1v1h-1zM11 29h1v1h-1zM88 29h1v1h-1zM11 30h1v1h-1zM88 30h1v1h-1zM11 31h1v1h-1zM88 31h1v1h-1zM11 32h1v1h-1zM88 32h1v1h-1zM11 56h1v1h-1zM88 56h1v1h-1zM11 57h1v1h-1zM88 57h1v1h-1zM11 58h1v1h-1zM88 58h1v1h-1zM11 59h1v1h-1zM88 59h1v1h-1zM11 60h1v1h-1zM88 60h1v1h-1zM11 61h1v1h-1zM88 61h1v1h-1zM11 62h1v1h-1zM88 62h1v1h-1zM11 63h1v1h-1zM88 63h1v1h-1zM11 64h1v1h-1zM88 64h1v1h-1zM11 65h1v1h-1zM88 65h1v1h-1zM11 66h1v1h-1zM22 66h1v1h-1zM88 66h1v1h-1zM11 67h1v1h-1zM88 67h1v1h-1zM11 68h1v1h-1zM88 68h1v1h-1zM11 69h1v1h-1zM88 69h1v1h-1zM11 70h1v1h-1zM88 70h1v1h-1zM11 71h1v1h-1zM88 71h1v1h-1zM11 72h1v1h-1zM88 72h1v1h-1zM11 73h1v1h-1zM88 73h1v1h-1zM11 74h1v1h-1zM88 74h1v1h-1zM11 75h1v1h-1zM88 75h1v1h-1zM11 76h1v1h-1zM88 76h1v1h-1zM11 77h1v1h-1zM88 77h1v1h-1z" /><path fill="#624aff" d="M12 23h21v1h-21zM67 23h21v1h-21zM12 24h21v1h-21zM67 24h21v1h-21zM12 25h21v1h-21zM67 25h21v1h-21zM12 26h21v1h-21zM67 26h21v1h-21zM12 27h21v1h-21zM67 27h21v1h-21zM12 28h21v1h-21zM67 28h21v1h-21zM12 29h21v1h-21zM67 29h21v1h-21zM12 30h21v1h-21zM67 30h21v1h-21zM12 31h21v1h-21zM67 31h21v1h-21zM12 32h21v1h-21zM67 32h21v1h-21zM12 33h10v1h-10zM78 33h10v1h-10zM12 34h10v1h-10zM78 34h10v1h-10zM12 35h10v1h-10zM78 35h10v1h-10zM12 36h10v1h-10zM78 36h10v1h-10zM12 37h10v1h-10zM78 37h10v1h-10zM12 38h10v1h-10zM78 38h10v1h-10zM12 39h10v1h-10zM78 39h10v1h-10zM12 40h10v1h-10zM78 40h10v1h-10zM12 41h10v1h-10zM78 41h10v1h-10zM12 42h10v1h-10zM78 42h10v1h-10zM12 43h10v1h-10zM78 43h10v1h-10zM0 45h11v1h-11zM89 45h11v1h-11zM0 46h11v1h-11zM89 46h11v1h-11zM0 47h11v1h-11zM89 47h11v1h-11zM0 48h11v1h-11zM89 48h11v1h-11zM0 49h11v1h-11zM89 49h11v1h-11zM0 50h11v1h-11zM89 50h11v1h-11zM0 51h11v1h-11zM89 51h11v1h-11zM0 52h11v1h-11zM89 52h11v1h-11zM0 53h11v1h-11zM89 53h11v1h-11zM0 54h11v1h-11zM89 54h11v1h-11zM12 55h10v1h-10zM45 55h10v1h-10zM78 55h10v1h-10zM12 56h10v1h-10zM45 56h10v1h-10zM78 56h10v1h-10zM12 57h10v1h-10zM45 57h10v1h-10zM78 57h10v1h-10zM12 58h10v1h-10zM45 58h10v1h-10zM78 58h10v1h-10zM12 59h10v1h-10zM45 59h10v1h-10zM78 59h10v1h-10zM12 60h10v1h-10zM45 60h10v1h-10zM78 60h10v1h-10zM12 61h10v1h-10zM45 61h10v1h-10zM78 61h10v1h-10zM12 62h10v1h-10zM45 62h10v1h-10zM78 62h10v1h-10zM12 63h10v1h-10zM45 63h10v1h-10zM78 63h10v1h-10zM12 64h10v1h-10zM45 64h10v1h-10zM78 64h10v1h-10zM12 65h10v1h-10zM45 65h10v1h-10zM78 65h10v1h-10zM12 66h10v1h-10zM77 66h11v1h-11zM12 67h21v1h-21zM67 67h21v1h-21zM12 68h21v1h-21zM67 68h21v1h-21zM12 69h21v1h-21zM67 69h21v1h-21zM12 70h21v1h-21zM67 70h21v1h-21zM12 71h21v1h-21zM67 71h21v1h-21zM12 72h21v1h-21zM67 72h21v1h-21zM12 73h21v1h-21zM67 73h21v1h-21zM12 74h21v1h-21zM67 74h21v1h-21zM12 75h21v1h-21zM67 75h21v1h-21zM12 76h21v1h-21zM67 76h21v1h-21z" /><path fill="#36cdcf" d="M0 33h11v1h-11zM89 33h11v1h-11z" /><path fill="#614bfd" d="M11 33h1v1h-1zM88 33h1v1h-1z" /><path fill="#36ced0" d="M0 34h11v1h-11zM89 34h11v1h-11zM0 35h11v1h-11zM89 35h11v1h-11zM0 36h11v1h-11zM89 36h11v1h-11zM0 37h11v1h-11zM89 37h11v1h-11zM0 38h11v1h-11zM89 38h11v1h-11zM0 39h11v1h-11zM89 39h11v1h-11zM0 40h11v1h-11zM89 40h11v1h-11zM0 41h11v1h-11zM89 41h11v1h-11zM0 42h11v1h-11zM89 42h11v1h-11zM0 43h11v1h-11zM89 43h11v1h-11zM34 45h10v1h-10zM56 45h10v1h-10zM34 46h10v1h-10zM56 46h10v1h-10zM34 47h10v1h-10zM56 47h10v1h-10zM34 48h10v1h-10zM56 48h10v1h-10zM34 49h10v1h-10zM56 49h10v1h-10zM34 50h10v1h-10zM56 50h10v1h-10zM34 51h10v1h-10zM56 51h10v1h-10zM34 52h10v1h-10zM56 52h10v1h-10zM34 53h10v1h-10zM56 53h10v1h-10zM34 54h10v1h-10zM56 54h10v1h-10z" /><path fill="#614cff" d="M11 34h1v1h-1zM88 34h1v1h-1zM11 35h1v1h-1zM88 35h1v1h-1zM11 36h1v1h-1zM88 36h1v1h-1zM11 37h1v1h-1zM88 37h1v1h-1zM11 38h1v1h-1zM88 38h1v1h-1zM11 39h1v1h-1zM88 39h1v1h-1zM11 40h1v1h-1zM88 40h1v1h-1zM11 41h1v1h-1zM88 41h1v1h-1zM11 42h1v1h-1zM88 42h1v1h-1zM11 43h1v1h-1zM88 43h1v1h-1z" /><path fill="#5c59f8" d="M0 44h11v1h-11zM89 44h11v1h-11z" /><path fill="#36cecf" d="M34 44h10v1h-10zM56 44h10v1h-10z" /><path fill="#35cdcf" d="M33 45h1v1h-1zM66 45h1v1h-1zM33 46h1v1h-1zM66 46h1v1h-1zM33 47h1v1h-1zM66 47h1v1h-1zM33 48h1v1h-1zM66 48h1v1h-1zM33 49h1v1h-1zM66 49h1v1h-1zM33 50h1v1h-1zM66 50h1v1h-1zM33 51h1v1h-1zM66 51h1v1h-1zM33 52h1v1h-1zM66 52h1v1h-1zM33 53h1v1h-1zM66 53h1v1h-1zM33 54h1v1h-1zM66 54h1v1h-1z" /></svg>