<svg xmlns="http://www.w3.org/2000/svg" viewBox="0 0 100 100" width="1em" height="1em"><path fill="#585bf9" d="M43 0h1v1h-1z" /><path fill="#575df9" d="M44 0h1v1h-1zM44 1h1v1h-1zM44 2h1v1h-1zM44 3h1v1h-1zM44 4h1v1h-1zM44 5h1v1h-1zM44 6h1v1h-1zM44 7h1v1h-1zM44 8h1v1h-1zM44 9h1v1h-1zM44 10h1v1h-1zM44 11h1v1h-1zM44 12h1v1h-1zM44 13h1v1h-1zM44 14h1v1h-1zM44 85h1v1h-1zM44 86h1v1h-1zM44 87h1v1h-1zM44 88h1v1h-1zM44 89h1v1h-1zM44 90h1v1h-1zM44 91h1v1h-1zM44 92h1v1h-1zM44 93h1v1h-1zM44 94h1v1h-1zM44 95h1v1h-1zM44 96h1v1h-1zM44 97h1v1h-1zM44 98h1v1h-1z" /><path fill="#545df9" d="M45 0h1v1h-1z" /><path fill="#525dfa" d="M46 0h1v1h-1z" /><path fill="#505efb" d="M47 0h1v1h-1zM47 99h1v1h-1z" /><path fill="#5060fa" d="M48 0h1v1h-1z" /><path fill="#4f62f9" d="M49 0h1v1h-1zM49 99h1v1h-1z" /><path fill="#4e64f8" d="M50 0h2v1h-2zM50 99h1v1h-1z" /><path fill="#4e66f8" d="M52 0h1v1h-1zM52 99h1v1h-1z" /><path fill="#4c68f7" d="M53 0h1v1h-1z" /><path fill="#4b6af7" d="M54 0h1v1h-1z" /><path fill="#4a6cf7" d="M55 0h1v1h-1z" /><path fill="#4b6cf5" d="M56 0h1v1h-1z" /><path fill="#6258f6" d="M38 1h1v1h-1zM38 98h1v1h-1z" /><path fill="#6058f5" d="M39 1h1v1h-1z" /><path fill="#5e5af7" d="M40 1h1v1h-1zM40 2h1v1h-1zM40 3h1v1h-1zM40 4h1v1h-1zM40 5h1v1h-1zM40 6h1v1h-1zM40 7h1v1h-1zM40 8h1v1h-1zM40 9h1v1h-1zM40 10h1v1h-1zM40 11h1v1h-1zM40 12h1v1h-1zM40 13h1v1h-1zM40 14h1v1h-1zM40 85h1v1h-1zM40 86h1v1h-1zM40 87h1v1h-1zM40 88h1v1h-1zM40 89h1v1h-1zM40 90h1v1h-1zM40 91h1v1h-1zM40 92h1v1h-1zM40 93h1v1h-1zM40 94h1v1h-1zM40 95h1v1h-1zM40 96h1v1h-1zM40 97h1v1h-1zM40 98h1v1h-1z" /><path fill="#5c5bf7" d="M41 1h1v1h-1zM41 2h1v1h-1zM41 3h1v1h-1zM41 4h1v1h-1zM41 5h1v1h-1zM41 6h1v1h-1zM41 7h1v1h-1zM41 8h1v1h-1zM41 9h1v1h-1zM41 10h1v1h-1zM41 11h1v1h-1zM41 12h1v1h-1zM41 13h1v1h-1zM41 14h1v1h-1zM41 85h1v1h-1zM41 86h1v1h-1zM41 87h1v1h-1zM41 88h1v1h-1zM41 89h1v1h-1zM41 90h1v1h-1zM41 91h1v1h-1zM41 92h1v1h-1zM41 93h1v1h-1zM41 94h1v1h-1zM41 95h1v1h-1zM41 96h1v1h-1zM41 97h1v1h-1zM41 98h1v1h-1z" /><path fill="#5a5cf8" d="M42 1h1v1h-1zM42 2h1v1h-1zM42 3h1v1h-1zM42 4h1v1h-1zM42 5h1v1h-1zM42 6h1v1h-1zM42 7h1v1h-1zM42 8h1v1h-1zM42 9h1v1h-1zM42 10h1v1h-1zM42 11h1v1h-1zM42 12h1v1h-1zM42 13h1v1h-1zM42 14h1v1h-1zM42 85h1v1h-1zM42 86h1v1h-1zM42 87h1v1h-1zM42 88h1v1h-1zM42 89h1v1h-1zM42 90h1v1h-1zM42 91h1v1h-1zM42 92h1v1h-1zM42 93h1v1h-1zM42 94h1v1h-1zM42 95h1v1h-1zM42 96h1v1h-1zM42 97h1v1h-1zM42 98h1v1h-1z" /><path fill="#595cf9" d="M43 1h1v1h-1zM43 2h1v1h-1zM43 3h1v1h-1zM43 4h1v1h-1zM43 5h1v1h-1zM43 6h1v1h-1zM43 7h1v1h-1zM43 8h1v1h-1zM43 9h1v1h-1zM43 10h1v1h-1zM43 11h1v1h-1zM43 12h1v1h-1zM43 13h1v1h-1zM43 14h1v1h-1zM43 85h1v1h-1zM43 86h1v1h-1zM43 87h1v1h-1zM43 88h1v1h-1zM43 89h1v1h-1zM43 90h1v1h-1zM43 91h1v1h-1zM43 92h1v1h-1zM43 93h1v1h-1zM43 94h1v1h-1zM43 95h1v1h-1zM43 96h1v1h-1zM43 97h1v1h-1zM43 98h1v1h-1z" /><path fill="#555efa" d="M45 1h1v1h-1zM45 2h1v1h-1zM45 3h1v1h-1zM45 4h1v1h-1zM45 5h1v1h-1zM45 6h1v1h-1zM45 7h1v1h-1zM45 8h1v1h-1zM45 9h1v1h-1zM45 10h1v1h-1zM45 11h1v1h-1zM45 12h1v1h-1zM45 13h1v1h-1zM45 14h1v1h-1zM45 85h1v1h-1zM45 86h1v1h-1zM45 87h1v1h-1zM45 88h1v1h-1zM45 89h1v1h-1zM45 90h1v1h-1zM45 91h1v1h-1zM45 92h1v1h-1zM45 93h1v1h-1zM45 94h1v1h-1zM45 95h1v1h-1zM45 96h1v1h-1zM45 97h1v1h-1zM45 98h1v1h-1z" /><path fill="#535efa" d="M46 1h1v1h-1zM46 2h1v1h-1zM46 3h1v1h-1zM46 4h1v1h-1zM46 5h1v1h-1zM46 6h1v1h-1zM46 7h1v1h-1zM46 8h1v1h-1zM46 9h1v1h-1zM46 10h1v1h-1zM46 11h1v1h-1zM46 12h1v1h-1zM46 13h1v1h-1zM46 14h1v1h-1zM46 85h1v1h-1zM46 86h1v1h-1zM46 87h1v1h-1zM46 88h1v1h-1zM46 89h1v1h-1zM46 90h1v1h-1zM46 91h1v1h-1zM46 92h1v1h-1zM46 93h1v1h-1zM46 94h1v1h-1zM46 95h1v1h-1zM46 96h1v1h-1zM46 97h1v1h-1zM46 98h1v1h-1zM46 99h1v1h-1z" /><path fill="#515ffb" d="M47 1h1v1h-1zM47 2h1v1h-1zM47 3h1v1h-1zM47 4h1v1h-1zM47 5h1v1h-1zM47 6h1v1h-1zM47 7h1v1h-1zM47 8h1v1h-1zM47 9h1v1h-1zM47 10h1v1h-1zM47 11h1v1h-1zM47 12h1v1h-1zM47 13h1v1h-1zM47 86h1v1h-1zM47 87h1v1h-1zM47 88h1v1h-1zM47 89h1v1h-1zM47 90h1v1h-1zM47 91h1v1h-1zM47 92h1v1h-1zM47 93h1v1h-1zM47 94h1v1h-1zM47 95h1v1h-1zM47 96h1v1h-1zM47 97h1v1h-1zM47 98h1v1h-1z" /><path fill="#5060fb" d="M48 1h1v1h-1zM48 2h1v1h-1zM48 3h1v1h-1zM48 4h1v1h-1zM48 5h1v1h-1zM48 6h1v1h-1zM48 7h1v1h-1zM48 8h1v1h-1zM48 9h1v1h-1zM48 10h1v1h-1zM48 11h1v1h-1zM48 12h1v1h-1zM48 13h1v1h-1zM48 86h1v1h-1zM48 87h1v1h-1zM48 88h1v1h-1zM48 89h1v1h-1zM48 90h1v1h-1zM48 91h1v1h-1zM48 92h1v1h-1zM48 93h1v1h-1zM48 94h1v1h-1zM48 95h1v1h-1zM48 96h1v1h-1zM48 97h1v1h-1zM48 98h1v1h-1z" /><path fill="#5062fa" d="M49 1h1v1h-1zM49 2h1v1h-1zM49 3h1v1h-1zM49 4h1v1h-1zM49 5h1v1h-1zM49 6h1v1h-1zM49 7h1v1h-1zM49 8h1v1h-1zM49 9h1v1h-1zM49 10h1v1h-1zM49 11h1v1h-1zM49 12h1v1h-1zM49 13h1v1h-1zM49 86h1v1h-1zM49 87h1v1h-1zM49 88h1v1h-1zM49 89h1v1h-1zM49 90h1v1h-1zM49 91h1v1h-1zM49 92h1v1h-1zM49 93h1v1h-1zM49 94h1v1h-1zM49 95h1v1h-1zM49 96h1v1h-1zM49 97h1v1h-1zM49 98h1v1h-1z" /><path fill="#4f64f9" d="M50 1h1v1h-1zM50 2h1v1h-1zM50 3h1v1h-1zM50 4h1v1h-1zM50 5h1v1h-1zM50 6h1v1h-1zM50 7h1v1h-1zM50 8h1v1h-1zM50 9h1v1h-1zM50 10h1v1h-1zM50 11h1v1h-1zM50 12h1v1h-1zM50 13h1v1h-1zM50 86h1v1h-1zM50 87h1v1h-1zM50 88h1v1h-1zM50 89h1v1h-1zM50 90h1v1h-1zM50 91h1v1h-1zM50 92h1v1h-1zM50 93h1v1h-1zM50 94h1v1h-1zM50 95h1v1h-1zM50 96h1v1h-1zM50 97h1v1h-1zM50 98h1v1h-1z" /><path fill="#4e65f9" d="M51 1h1v1h-1zM51 2h1v1h-1zM51 3h1v1h-1zM51 4h1v1h-1zM51 5h1v1h-1zM51 6h1v1h-1zM51 7h1v1h-1zM51 8h1v1h-1zM51 9h1v1h-1zM51 10h1v1h-1zM51 11h1v1h-1zM51 12h1v1h-1zM51 13h1v1h-1zM51 86h1v1h-1zM51 87h1v1h-1zM51 88h1v1h-1zM51 89h1v1h-1zM51 90h1v1h-1zM51 91h1v1h-1zM51 92h1v1h-1zM51 93h1v1h-1zM51 94h1v1h-1zM51 95h1v1h-1zM51 96h1v1h-1zM51 97h1v1h-1zM51 98h1v1h-1z" /><path fill="#4e67f8" d="M52 1h1v1h-1zM52 2h1v1h-1zM52 3h1v1h-1zM52 4h1v1h-1zM52 5h1v1h-1zM52 6h1v1h-1zM52 7h1v1h-1zM52 8h1v1h-1zM52 9h1v1h-1zM52 10h1v1h-1zM52 11h1v1h-1zM52 12h1v1h-1zM52 13h1v1h-1zM52 86h1v1h-1zM52 87h1v1h-1zM52 88h1v1h-1zM52 89h1v1h-1zM52 90h1v1h-1zM52 91h1v1h-1zM52 92h1v1h-1zM52 93h1v1h-1zM52 94h1v1h-1zM52 95h1v1h-1zM52 96h1v1h-1zM52 97h1v1h-1zM52 98h1v1h-1z" /><path fill="#4d69f8" d="M53 1h1v1h-1zM53 2h1v1h-1zM53 3h1v1h-1zM53 4h1v1h-1zM53 5h1v1h-1zM53 6h1v1h-1zM53 7h1v1h-1zM53 8h1v1h-1zM53 9h1v1h-1zM53 10h1v1h-1zM53 11h1v1h-1zM53 12h1v1h-1zM53 13h1v1h-1zM53 14h1v1h-1zM53 85h1v1h-1zM53 86h1v1h-1zM53 87h1v1h-1zM53 88h1v1h-1zM53 89h1v1h-1zM53 90h1v1h-1zM53 91h1v1h-1zM53 92h1v1h-1zM53 93h1v1h-1zM53 94h1v1h-1zM53 95h1v1h-1zM53 96h1v1h-1zM53 97h1v1h-1zM53 98h1v1h-1z" /><path fill="#4c6af7" d="M54 1h1v1h-1zM54 2h1v1h-1zM54 3h1v1h-1zM54 4h1v1h-1zM54 5h1v1h-1zM54 6h1v1h-1zM54 7h1v1h-1zM54 8h1v1h-1zM54 9h1v1h-1zM54 10h1v1h-1zM54 11h1v1h-1zM54 12h1v1h-1zM54 13h1v1h-1zM54 14h1v1h-1zM54 85h1v1h-1zM54 86h1v1h-1zM54 87h1v1h-1zM54 88h1v1h-1zM54 89h1v1h-1zM54 90h1v1h-1zM54 91h1v1h-1zM54 92h1v1h-1zM54 93h1v1h-1zM54 94h1v1h-1zM54 95h1v1h-1zM54 96h1v1h-1zM54 97h1v1h-1zM54 98h1v1h-1z" /><path fill="#4b6cf7" d="M55 1h1v1h-1zM55 2h1v1h-1zM55 3h1v1h-1zM55 4h1v1h-1zM55 5h1v1h-1zM55 6h1v1h-1zM55 7h1v1h-1zM55 8h1v1h-1zM55 9h1v1h-1zM55 10h1v1h-1zM55 11h1v1h-1zM55 12h1v1h-1zM55 13h1v1h-1zM55 14h1v1h-1zM55 85h1v1h-1zM55 86h1v1h-1zM55 87h1v1h-1zM55 88h1v1h-1zM55 89h1v1h-1zM55 90h1v1h-1zM55 91h1v1h-1zM55 92h1v1h-1zM55 93h1v1h-1zM55 94h1v1h-1zM55 95h1v1h-1zM55 96h1v1h-1zM55 97h1v1h-1zM55 98h1v1h-1z" /><path fill="#4b6df6" d="M56 1h1v1h-1zM56 2h1v1h-1zM56 3h1v1h-1zM56 4h1v1h-1zM56 5h1v1h-1zM56 6h1v1h-1zM56 7h1v1h-1zM56 8h1v1h-1zM56 9h1v1h-1zM56 10h1v1h-1zM56 11h1v1h-1zM56 12h1v1h-1zM56 13h1v1h-1zM56 14h1v1h-1zM56 85h1v1h-1zM56 86h1v1h-1zM56 87h1v1h-1zM56 88h1v1h-1zM56 89h1v1h-1zM56 90h1v1h-1zM56 91h1v1h-1zM56 92h1v1h-1zM56 93h1v1h-1zM56 94h1v1h-1zM56 95h1v1h-1zM56 96h1v1h-1zM56 97h1v1h-1zM56 98h1v1h-1z" /><path fill="#4a6ff5" d="M57 1h1v1h-1zM57 2h1v1h-1zM57 3h1v1h-1zM57 4h1v1h-1zM57 5h1v1h-1zM57 6h1v1h-1zM57 7h1v1h-1zM57 8h1v1h-1zM57 9h1v1h-1zM57 10h1v1h-1zM57 11h1v1h-1zM57 12h1v1h-1zM57 13h1v1h-1zM57 14h1v1h-1zM57 85h1v1h-1zM57 86h1v1h-1zM57 87h1v1h-1zM57 88h1v1h-1zM57 89h1v1h-1zM57 90h1v1h-1zM57 91h1v1h-1zM57 92h1v1h-1zM57 93h1v1h-1zM57 94h1v1h-1zM57 95h1v1h-1zM57 96h1v1h-1zM57 97h1v1h-1zM57 98h1v1h-1z" /><path fill="#4971f5" d="M58 1h1v1h-1zM58 2h1v1h-1zM58 3h1v1h-1zM58 4h1v1h-1zM58 5h1v1h-1zM58 6h1v1h-1zM58 7h1v1h-1zM58 8h1v1h-1zM58 9h1v1h-1zM58 10h1v1h-1zM58 11h1v1h-1zM58 12h1v1h-1zM58 13h1v1h-1zM58 14h1v1h-1zM58 85h1v1h-1zM58 86h1v1h-1zM58 87h1v1h-1zM58 88h1v1h-1zM58 89h1v1h-1zM58 90h1v1h-1zM58 91h1v1h-1zM58 92h1v1h-1zM58 93h1v1h-1zM58 94h1v1h-1zM58 95h1v1h-1zM58 96h1v1h-1zM58 97h1v1h-1zM58 98h1v1h-1z" /><path fill="#4872f4" d="M59 1h1v1h-1zM59 2h1v1h-1zM59 3h1v1h-1zM59 4h1v1h-1zM59 5h1v1h-1zM59 6h1v1h-1zM59 7h1v1h-1zM59 8h1v1h-1zM59 9h1v1h-1zM59 10h1v1h-1zM59 11h1v1h-1zM59 12h1v1h-1zM59 13h1v1h-1zM59 14h1v1h-1zM59 85h1v1h-1zM59 86h1v1h-1zM59 87h1v1h-1zM59 88h1v1h-1zM59 89h1v1h-1zM59 90h1v1h-1zM59 91h1v1h-1zM59 92h1v1h-1zM59 93h1v1h-1zM59 94h1v1h-1zM59 95h1v1h-1zM59 96h1v1h-1zM59 97h1v1h-1zM59 98h1v1h-1z" /><path fill="#4874f3" d="M60 1h1v1h-1zM60 98h1v1h-1z" /><path fill="#4676f3" d="M61 1h1v1h-1zM61 98h1v1h-1z" /><path fill="#6956f3" d="M34 2h1v1h-1z" /><path fill="#6656f4" d="M35 2h1v1h-1zM35 97h1v1h-1z" /><path fill="#6557f5" d="M36 2h1v1h-1zM36 3h1v1h-1zM36 4h1v1h-1zM36 5h1v1h-1zM36 6h1v1h-1zM36 7h1v1h-1zM36 8h1v1h-1zM36 9h1v1h-1zM36 10h1v1h-1zM36 11h1v1h-1zM36 12h1v1h-1zM36 13h1v1h-1zM36 14h1v1h-1zM36 15h1v1h-1zM36 84h1v1h-1zM36 85h1v1h-1zM36 86h1v1h-1zM36 87h1v1h-1zM36 88h1v1h-1zM36 89h1v1h-1zM36 90h1v1h-1zM36 91h1v1h-1zM36 92h1v1h-1zM36 93h1v1h-1zM36 94h1v1h-1zM36 95h1v1h-1zM36 96h1v1h-1zM36 97h1v1h-1z" /><path fill="#6458f5" d="M37 2h1v1h-1zM37 3h1v1h-1zM37 4h1v1h-1zM37 5h1v1h-1zM37 6h1v1h-1zM37 7h1v1h-1zM37 8h1v1h-1zM37 9h1v1h-1zM37 10h1v1h-1zM37 11h1v1h-1zM37 12h1v1h-1zM37 13h1v1h-1zM37 14h1v1h-1zM37 15h1v1h-1zM37 84h1v1h-1zM37 85h1v1h-1zM37 86h1v1h-1zM37 87h1v1h-1zM37 88h1v1h-1zM37 89h1v1h-1zM37 90h1v1h-1zM37 91h1v1h-1zM37 92h1v1h-1zM37 93h1v1h-1zM37 94h1v1h-1zM37 95h1v1h-1zM37 96h1v1h-1zM37 97h1v1h-1z" /><path fill="#6259f6" d="M38 2h1v1h-1zM38 3h1v1h-1zM38 4h1v1h-1zM38 5h1v1h-1zM38 6h1v1h-1zM38 7h1v1h-1zM38 8h1v1h-1zM38 9h1v1h-1zM38 10h1v1h-1zM38 11h1v1h-1zM38 12h1v1h-1zM38 13h1v1h-1zM38 14h1v1h-1zM38 15h1v1h-1zM38 84h1v1h-1zM38 85h1v1h-1zM38 86h1v1h-1zM38 87h1v1h-1zM38 88h1v1h-1zM38 89h1v1h-1zM38 90h1v1h-1zM38 91h1v1h-1zM38 92h1v1h-1zM38 93h1v1h-1zM38 94h1v1h-1zM38 95h1v1h-1zM38 96h1v1h-1zM38 97h1v1h-1z" /><path fill="#6059f6" d="M39 2h1v1h-1zM39 3h1v1h-1zM39 4h1v1h-1zM39 5h1v1h-1zM39 6h1v1h-1zM39 7h1v1h-1zM39 8h1v1h-1zM39 9h1v1h-1zM39 10h1v1h-1zM39 11h1v1h-1zM39 12h1v1h-1zM39 13h1v1h-1zM39 14h1v1h-1zM39 84h1v1h-1zM39 85h1v1h-1zM39 86h1v1h-1zM39 87h1v1h-1zM39 88h1v1h-1zM39 89h1v1h-1zM39 90h1v1h-1zM39 91h1v1h-1zM39 92h1v1h-1zM39 93h1v1h-1zM39 94h1v1h-1zM39 95h1v1h-1zM39 96h1v1h-1zM39 97h1v1h-1z" /><path fill="#4874f4" d="M60 2h1v1h-1zM60 3h1v1h-1zM60 4h1v1h-1zM60 5h1v1h-1zM60 6h1v1h-1zM60 7h1v1h-1zM60 8h1v1h-1zM60 9h1v1h-1zM60 10h1v1h-1zM60 11h1v1h-1zM60 12h1v1h-1zM60 13h1v1h-1zM60 14h1v1h-1zM60 84h1v1h-1zM60 85h1v1h-1zM60 86h1v1h-1zM60 87h1v1h-1zM60 88h1v1h-1zM60 89h1v1h-1zM60 90h1v1h-1zM60 91h1v1h-1zM60 92h1v1h-1zM60 93h1v1h-1zM60 94h1v1h-1zM60 95h1v1h-1zM60 96h1v1h-1zM60 97h1v1h-1z" /><path fill="#4776f3" d="M61 2h1v1h-1zM61 3h1v1h-1zM61 4h1v1h-1zM61 5h1v1h-1zM61 6h1v1h-1zM61 7h1v1h-1zM61 8h1v1h-1zM61 9h1v1h-1zM61 10h1v1h-1zM61 11h1v1h-1zM61 12h1v1h-1zM61 13h1v1h-1zM61 14h1v1h-1zM61 15h1v1h-1zM61 84h1v1h-1zM61 85h1v1h-1zM61 86h1v1h-1zM61 87h1v1h-1zM61 88h1v1h-1zM61 89h1v1h-1zM61 90h1v1h-1zM61 91h1v1h-1zM61 92h1v1h-1zM61 93h1v1h-1zM61 94h1v1h-1zM61 95h1v1h-1zM61 96h1v1h-1zM61 97h1v1h-1z" /><path fill="#4677f3" d="M62 2h1v1h-1zM62 3h1v1h-1zM62 4h1v1h-1zM62 5h1v1h-1zM62 6h1v1h-1zM62 7h1v1h-1zM62 8h1v1h-1zM62 9h1v1h-1zM62 10h1v1h-1zM62 11h1v1h-1zM62 12h1v1h-1zM62 13h1v1h-1zM62 14h1v1h-1zM62 15h1v1h-1zM62 84h1v1h-1zM62 85h1v1h-1zM62 86h1v1h-1zM62 87h1v1h-1zM62 88h1v1h-1zM62 89h1v1h-1zM62 90h1v1h-1zM62 91h1v1h-1zM62 92h1v1h-1zM62 93h1v1h-1zM62 94h1v1h-1zM62 95h1v1h-1zM62 96h1v1h-1zM62 97h1v1h-1z" /><path fill="#4679f2" d="M63 2h1v1h-1zM63 3h1v1h-1zM63 4h1v1h-1zM63 5h1v1h-1zM63 6h1v1h-1zM63 7h1v1h-1zM63 8h1v1h-1zM63 9h1v1h-1zM63 10h1v1h-1zM63 11h1v1h-1zM63 12h1v1h-1zM63 13h1v1h-1zM63 14h1v1h-1zM63 15h1v1h-1zM63 84h1v1h-1zM63 85h1v1h-1zM63 86h1v1h-1zM63 87h1v1h-1zM63 88h1v1h-1zM63 89h1v1h-1zM63 90h1v1h-1zM63 91h1v1h-1zM63 92h1v1h-1zM63 93h1v1h-1zM63 94h1v1h-1zM63 95h1v1h-1zM63 96h1v1h-1zM63 97h1v1h-1z" /><path fill="#457bf0" d="M64 2h1v1h-1zM64 97h1v1h-1z" /><path fill="#437cf1" d="M65 2h1v1h-1zM65 97h1v1h-1z" /><path fill="#6d55f2" d="M32 3h1v1h-1zM32 4h1v1h-1zM32 5h1v1h-1zM32 6h1v1h-1zM32 7h1v1h-1zM32 8h1v1h-1zM32 9h1v1h-1zM32 10h1v1h-1zM32 11h1v1h-1zM32 12h1v1h-1zM32 13h1v1h-1zM32 14h1v1h-1zM32 15h1v1h-1zM32 16h1v1h-1zM32 17h1v1h-1zM32 82h1v1h-1zM32 83h1v1h-1zM32 84h1v1h-1zM32 85h1v1h-1zM32 86h1v1h-1zM32 87h1v1h-1zM32 88h1v1h-1zM32 89h1v1h-1zM32 90h1v1h-1zM32 91h1v1h-1zM32 92h1v1h-1zM32 93h1v1h-1zM32 94h1v1h-1zM32 95h1v1h-1z" /><path fill="#6b55f3" d="M33 3h1v1h-1zM33 4h1v1h-1zM33 5h1v1h-1zM33 6h1v1h-1zM33 7h1v1h-1zM33 8h1v1h-1zM33 9h1v1h-1zM33 10h1v1h-1zM33 11h1v1h-1zM33 12h1v1h-1zM33 13h1v1h-1zM33 14h1v1h-1zM33 15h1v1h-1zM33 16h1v1h-1zM33 83h1v1h-1zM33 84h1v1h-1zM33 85h1v1h-1zM33 86h1v1h-1zM33 87h1v1h-1zM33 88h1v1h-1zM33 89h1v1h-1zM33 90h1v1h-1zM33 91h1v1h-1zM33 92h1v1h-1zM33 93h1v1h-1zM33 94h1v1h-1zM33 95h1v1h-1zM33 96h1v1h-1z" /><path fill="#6956f4" d="M34 3h1v1h-1zM34 4h1v1h-1zM34 5h1v1h-1zM34 6h1v1h-1zM34 7h1v1h-1zM34 8h1v1h-1zM34 9h1v1h-1zM34 10h1v1h-1zM34 11h1v1h-1zM34 12h1v1h-1zM34 13h1v1h-1zM34 14h1v1h-1zM34 15h1v1h-1zM34 16h1v1h-1zM34 83h1v1h-1zM34 84h1v1h-1zM34 85h1v1h-1zM34 86h1v1h-1zM34 87h1v1h-1zM34 88h1v1h-1zM34 89h1v1h-1zM34 90h1v1h-1zM34 91h1v1h-1zM34 92h1v1h-1zM34 93h1v1h-1zM34 94h1v1h-1zM34 95h1v1h-1zM34 96h1v1h-1z" /><path fill="#6757f4" d="M35 3h1v1h-1zM35 4h1v1h-1zM35 5h1v1h-1zM35 6h1v1h-1zM35 7h1v1h-1zM35 8h1v1h-1zM35 9h1v1h-1zM35 10h1v1h-1zM35 11h1v1h-1zM35 12h1v1h-1zM35 13h1v1h-1zM35 14h1v1h-1zM35 15h1v1h-1zM35 16h1v1h-1zM35 83h1v1h-1zM35 84h1v1h-1zM35 85h1v1h-1zM35 86h1v1h-1zM35 87h1v1h-1zM35 88h1v1h-1zM35 89h1v1h-1zM35 90h1v1h-1zM35 91h1v1h-1zM35 92h1v1h-1zM35 93h1v1h-1zM35 94h1v1h-1zM35 95h1v1h-1zM35 96h1v1h-1z" /><path fill="#457bf1" d="M64 3h1v1h-1zM64 4h1v1h-1zM64 5h1v1h-1zM64 6h1v1h-1zM64 7h1v1h-1zM64 8h1v1h-1zM64 9h1v1h-1zM64 10h1v1h-1zM64 11h1v1h-1zM64 12h1v1h-1zM64 13h1v1h-1zM64 14h1v1h-1zM64 15h1v1h-1zM64 16h1v1h-1zM64 83h1v1h-1zM64 84h1v1h-1zM64 85h1v1h-1zM64 86h1v1h-1zM64 87h1v1h-1zM64 88h1v1h-1zM64 89h1v1h-1zM64 90h1v1h-1zM64 91h1v1h-1zM64 92h1v1h-1zM64 93h1v1h-1zM64 94h1v1h-1zM64 95h1v1h-1zM64 96h1v1h-1z" /><path fill="#447cf1" d="M65 3h1v1h-1zM65 4h1v1h-1zM65 5h1v1h-1zM65 6h1v1h-1zM65 7h1v1h-1zM65 8h1v1h-1zM65 9h1v1h-1zM65 10h1v1h-1zM65 11h1v1h-1zM65 12h1v1h-1zM65 13h1v1h-1zM65 14h1v1h-1zM65 15h1v1h-1zM65 16h1v1h-1zM65 83h1v1h-1zM65 84h1v1h-1zM65 85h1v1h-1zM65 86h1v1h-1zM65 87h1v1h-1zM65 88h1v1h-1zM65 89h1v1h-1zM65 90h1v1h-1zM65 91h1v1h-1zM65 92h1v1h-1zM65 93h1v1h-1zM65 94h1v1h-1zM65 95h1v1h-1zM65 96h1v1h-1z" /><path fill="#437ef0" d="M66 3h1v1h-1zM66 4h1v1h-1zM66 5h1v1h-1zM66 6h1v1h-1zM66 7h1v1h-1zM66 8h1v1h-1zM66 9h1v1h-1zM66 10h1v1h-1zM66 11h1v1h-1zM66 12h1v1h-1zM66 13h1v1h-1zM66 14h1v1h-1zM66 15h1v1h-1zM66 16h1v1h-1zM66 83h1v1h-1zM66 84h1v1h-1zM66 85h1v1h-1zM66 86h1v1h-1zM66 87h1v1h-1zM66 88h1v1h-1zM66 89h1v1h-1zM66 90h1v1h-1zM66 91h1v1h-1zM66 92h1v1h-1zM66 93h1v1h-1zM66 94h1v1h-1zM66 95h1v1h-1zM66 96h1v1h-1z" /><path fill="#4380ef" d="M67 3h1v1h-1z" /><path fill="#7252f0" d="M29 4h1v1h-1z" /><path fill="#7053f1" d="M30 4h1v1h-1zM30 5h1v1h-1zM30 6h1v1h-1zM30 7h1v1h-1zM30 8h1v1h-1zM30 9h1v1h-1zM30 10h1v1h-1zM30 11h1v1h-1zM30 12h1v1h-1zM30 13h1v1h-1zM30 14h1v1h-1zM30 15h1v1h-1zM30 16h1v1h-1zM30 17h1v1h-1zM30 81h1v1h-1zM30 82h1v1h-1zM30 83h1v1h-1zM30 84h1v1h-1zM30 85h1v1h-1zM30 86h1v1h-1zM30 87h1v1h-1zM30 88h1v1h-1zM30 89h1v1h-1zM30 90h1v1h-1zM30 91h1v1h-1zM30 92h1v1h-1zM30 93h1v1h-1zM30 94h1v1h-1zM30 95h1v1h-1z" /><path fill="#6f54f2" d="M31 4h1v1h-1zM31 5h1v1h-1zM31 6h1v1h-1zM31 7h1v1h-1zM31 8h1v1h-1zM31 9h1v1h-1zM31 10h1v1h-1zM31 11h1v1h-1zM31 12h1v1h-1zM31 13h1v1h-1zM31 14h1v1h-1zM31 15h1v1h-1zM31 16h1v1h-1zM31 17h1v1h-1zM31 82h1v1h-1zM31 83h1v1h-1zM31 84h1v1h-1zM31 85h1v1h-1zM31 86h1v1h-1zM31 87h1v1h-1zM31 88h1v1h-1zM31 89h1v1h-1zM31 90h1v1h-1zM31 91h1v1h-1zM31 92h1v1h-1zM31 93h1v1h-1zM31 94h1v1h-1zM31 95h1v1h-1z" /><path fill="#4380f0" d="M67 4h1v1h-1zM67 5h1v1h-1zM67 6h1v1h-1zM67 7h1v1h-1zM67 8h1v1h-1zM67 9h1v1h-1zM67 10h1v1h-1zM67 11h1v1h-1zM67 12h1v1h-1zM67 13h1v1h-1zM67 14h1v1h-1zM67 15h1v1h-1zM67 16h1v1h-1zM67 17h1v1h-1zM67 82h1v1h-1zM67 83h1v1h-1zM67 84h1v1h-1zM67 85h1v1h-1zM67 86h1v1h-1zM67 87h1v1h-1zM67 88h1v1h-1zM67 89h1v1h-1zM67 90h1v1h-1zM67 91h1v1h-1zM67 92h1v1h-1zM67 93h1v1h-1zM67 94h1v1h-1zM67 95h1v1h-1z" /><path fill="#4281ef" d="M68 4h1v1h-1zM68 5h1v1h-1zM68 6h1v1h-1zM68 7h1v1h-1zM68 8h1v1h-1zM68 9h1v1h-1zM68 10h1v1h-1zM68 11h1v1h-1zM68 12h1v1h-1zM68 13h1v1h-1zM68 14h1v1h-1zM68 15h1v1h-1zM68 16h1v1h-1zM68 17h1v1h-1zM68 82h1v1h-1zM68 83h1v1h-1zM68 84h1v1h-1zM68 85h1v1h-1zM68 86h1v1h-1zM68 87h1v1h-1zM68 88h1v1h-1zM68 89h1v1h-1zM68 90h1v1h-1zM68 91h1v1h-1zM68 92h1v1h-1zM68 93h1v1h-1zM68 94h1v1h-1zM68 95h1v1h-1z" /><path fill="#4082ed" d="M69 4h1v1h-1zM69 95h1v1h-1z" /><path fill="#3f83ee" d="M70 4h1v1h-1zM70 95h1v1h-1z" /><path fill="#7550ef" d="M27 5h1v1h-1zM27 94h1v1h-1z" /><path fill="#7351ef" d="M28 5h1v1h-1zM28 94h1v1h-1z" /><path fill="#7253f1" d="M29 5h1v1h-1zM29 6h1v1h-1zM29 7h1v1h-1zM29 8h1v1h-1zM29 9h1v1h-1zM29 10h1v1h-1zM29 11h1v1h-1zM29 12h1v1h-1zM29 13h1v1h-1zM29 14h1v1h-1zM29 15h1v1h-1zM29 16h1v1h-1zM29 17h1v1h-1zM29 18h1v1h-1zM29 81h1v1h-1zM29 82h1v1h-1zM29 83h1v1h-1zM29 84h1v1h-1zM29 85h1v1h-1zM29 86h1v1h-1zM29 87h1v1h-1zM29 88h1v1h-1zM29 89h1v1h-1zM29 90h1v1h-1zM29 91h1v1h-1zM29 92h1v1h-1zM29 93h1v1h-1zM29 94h1v1h-1z" /><path fill="#4183ee" d="M69 5h1v1h-1zM69 6h1v1h-1zM69 7h1v1h-1zM69 8h1v1h-1zM69 9h1v1h-1zM69 10h1v1h-1zM69 11h1v1h-1zM69 12h1v1h-1zM69 13h1v1h-1zM69 14h1v1h-1zM69 15h1v1h-1zM69 16h1v1h-1zM69 17h1v1h-1zM69 82h1v1h-1zM69 83h1v1h-1zM69 84h1v1h-1zM69 85h1v1h-1zM69 86h1v1h-1zM69 87h1v1h-1zM69 88h1v1h-1zM69 89h1v1h-1zM69 90h1v1h-1zM69 91h1v1h-1zM69 92h1v1h-1zM69 93h1v1h-1zM69 94h1v1h-1z" /><path fill="#4084ee" d="M70 5h1v1h-1zM70 6h1v1h-1zM70 7h1v1h-1zM70 8h1v1h-1zM70 9h1v1h-1zM70 10h1v1h-1zM70 11h1v1h-1zM70 12h1v1h-1zM70 13h1v1h-1zM70 14h1v1h-1zM70 15h1v1h-1zM70 16h1v1h-1zM70 17h1v1h-1zM70 18h1v1h-1zM70 81h1v1h-1zM70 82h1v1h-1zM70 83h1v1h-1zM70 84h1v1h-1zM70 85h1v1h-1zM70 86h1v1h-1zM70 87h1v1h-1zM70 88h1v1h-1zM70 89h1v1h-1zM70 90h1v1h-1zM70 91h1v1h-1zM70 92h1v1h-1zM70 93h1v1h-1zM70 94h1v1h-1z" /><path fill="#4085ec" d="M71 5h1v1h-1z" /><path fill="#3e87ed" d="M72 5h1v1h-1zM72 94h1v1h-1z" /><path fill="#7950ee" d="M25 6h1v1h-1zM25 7h1v1h-1zM25 8h1v1h-1zM25 9h1v1h-1zM25 10h1v1h-1zM25 11h1v1h-1zM25 12h1v1h-1zM25 13h1v1h-1zM25 14h1v1h-1zM25 15h1v1h-1zM25 16h1v1h-1zM25 17h1v1h-1zM25 18h1v1h-1zM25 19h1v1h-1zM25 20h1v1h-1zM25 79h1v1h-1zM25 80h1v1h-1zM25 81h1v1h-1zM25 82h1v1h-1zM25 83h1v1h-1zM25 84h1v1h-1zM25 85h1v1h-1zM25 86h1v1h-1zM25 87h1v1h-1zM25 88h1v1h-1zM25 89h1v1h-1zM25 90h1v1h-1zM25 91h1v1h-1zM25 92h1v1h-1z" /><path fill="#7751ee" d="M26 6h1v1h-1zM26 93h1v1h-1z" /><path fill="#7651f0" d="M27 6h1v1h-1zM27 7h1v1h-1zM27 8h1v1h-1zM27 9h1v1h-1zM27 10h1v1h-1zM27 11h1v1h-1zM27 12h1v1h-1zM27 13h1v1h-1zM27 14h1v1h-1zM27 15h1v1h-1zM27 16h1v1h-1zM27 17h1v1h-1zM27 18h1v1h-1zM27 19h1v1h-1zM27 80h1v1h-1zM27 81h1v1h-1zM27 82h1v1h-1zM27 83h1v1h-1zM27 84h1v1h-1zM27 85h1v1h-1zM27 86h1v1h-1zM27 87h1v1h-1zM27 88h1v1h-1zM27 89h1v1h-1zM27 90h1v1h-1zM27 91h1v1h-1zM27 92h1v1h-1zM27 93h1v1h-1z" /><path fill="#7452f0" d="M28 6h1v1h-1zM28 7h1v1h-1zM28 8h1v1h-1zM28 9h1v1h-1zM28 10h1v1h-1zM28 11h1v1h-1zM28 12h1v1h-1zM28 13h1v1h-1zM28 14h1v1h-1zM28 15h1v1h-1zM28 16h1v1h-1zM28 17h1v1h-1zM28 18h1v1h-1zM28 81h1v1h-1zM28 82h1v1h-1zM28 83h1v1h-1zM28 84h1v1h-1zM28 85h1v1h-1zM28 86h1v1h-1zM28 87h1v1h-1zM28 88h1v1h-1zM28 89h1v1h-1zM28 90h1v1h-1zM28 91h1v1h-1zM28 92h1v1h-1zM28 93h1v1h-1z" /><path fill="#4086ed" d="M71 6h1v1h-1zM71 7h1v1h-1zM71 8h1v1h-1zM71 9h1v1h-1zM71 10h1v1h-1zM71 11h1v1h-1zM71 12h1v1h-1zM71 13h1v1h-1zM71 14h1v1h-1zM71 15h1v1h-1zM71 16h1v1h-1zM71 17h1v1h-1zM71 18h1v1h-1zM71 80h1v1h-1zM71 81h1v1h-1zM71 82h1v1h-1zM71 83h1v1h-1zM71 84h1v1h-1zM71 85h1v1h-1zM71 86h1v1h-1zM71 87h1v1h-1zM71 88h1v1h-1zM71 89h1v1h-1zM71 90h1v1h-1zM71 91h1v1h-1zM71 92h1v1h-1zM71 93h1v1h-1z" /><path fill="#3f88ed" d="M72 6h1v1h-1zM72 7h1v1h-1zM72 8h1v1h-1zM72 9h1v1h-1zM72 10h1v1h-1zM72 11h1v1h-1zM72 12h1v1h-1zM72 13h1v1h-1zM72 14h1v1h-1zM72 15h1v1h-1zM72 16h1v1h-1zM72 17h1v1h-1zM72 18h1v1h-1zM72 19h1v1h-1zM72 80h1v1h-1zM72 81h1v1h-1zM72 82h1v1h-1zM72 83h1v1h-1zM72 84h1v1h-1zM72 85h1v1h-1zM72 86h1v1h-1zM72 87h1v1h-1zM72 88h1v1h-1zM72 89h1v1h-1zM72 90h1v1h-1zM72 91h1v1h-1zM72 92h1v1h-1zM72 93h1v1h-1z" /><path fill="#3d89eb" d="M73 6h1v1h-1z" /><path fill="#3d8aeb" d="M74 6h1v1h-1z" /><path fill="#7a4eee" d="M24 7h1v1h-1zM24 92h1v1h-1z" /><path fill="#7851ef" d="M26 7h1v1h-1zM26 8h1v1h-1zM26 9h1v1h-1zM26 10h1v1h-1zM26 11h1v1h-1zM26 12h1v1h-1zM26 13h1v1h-1zM26 14h1v1h-1zM26 15h1v1h-1zM26 16h1v1h-1zM26 17h1v1h-1zM26 18h1v1h-1zM26 19h1v1h-1zM26 20h1v1h-1zM26 79h1v1h-1zM26 80h1v1h-1zM26 81h1v1h-1zM26 82h1v1h-1zM26 83h1v1h-1zM26 84h1v1h-1zM26 85h1v1h-1zM26 86h1v1h-1zM26 87h1v1h-1zM26 88h1v1h-1zM26 89h1v1h-1zM26 90h1v1h-1zM26 91h1v1h-1zM26 92h1v1h-1z" /><path fill="#3e89ec" d="M73 7h1v1h-1zM73 8h1v1h-1zM73 9h1v1h-1zM73 10h1v1h-1zM73 11h1v1h-1zM73 12h1v1h-1zM73 13h1v1h-1zM73 14h1v1h-1zM73 15h1v1h-1zM73 16h1v1h-1zM73 17h1v1h-1zM73 18h1v1h-1zM73 19h1v1h-1zM73 20h1v1h-1zM73 79h1v1h-1zM73 80h1v1h-1zM73 81h1v1h-1zM73 82h1v1h-1zM73 83h1v1h-1zM73 84h1v1h-1zM73 85h1v1h-1zM73 86h1v1h-1zM73 87h1v1h-1zM73 88h1v1h-1zM73 89h1v1h-1zM73 90h1v1h-1zM73 91h1v1h-1zM73 92h1v1h-1z" /><path fill="#3e8bec" d="M74 7h1v1h-1zM74 8h1v1h-1zM74 9h1v1h-1zM74 10h1v1h-1zM74 11h1v1h-1zM74 12h1v1h-1zM74 13h1v1h-1zM74 14h1v1h-1zM74 15h1v1h-1zM74 16h1v1h-1zM74 17h1v1h-1zM74 18h1v1h-1zM74 19h1v1h-1zM74 20h1v1h-1zM74 79h1v1h-1zM74 80h1v1h-1zM74 81h1v1h-1zM74 82h1v1h-1zM74 83h1v1h-1zM74 84h1v1h-1zM74 85h1v1h-1zM74 86h1v1h-1zM74 87h1v1h-1zM74 88h1v1h-1zM74 89h1v1h-1zM74 90h1v1h-1zM74 91h1v1h-1zM74 92h1v1h-1z" /><path fill="#3c8ceb" d="M75 7h1v1h-1z" /><path fill="#7f4ded" d="M22 8h1v1h-1z" /><path fill="#7d4fed" d="M23 8h1v1h-1zM23 9h1v1h-1zM23 10h1v1h-1zM23 11h1v1h-1zM23 12h1v1h-1zM23 13h1v1h-1zM23 14h1v1h-1zM23 15h1v1h-1zM23 16h1v1h-1zM23 17h1v1h-1zM23 18h1v1h-1zM23 19h1v1h-1zM23 20h1v1h-1zM23 21h1v1h-1zM23 22h1v1h-1zM23 77h1v1h-1zM23 78h1v1h-1zM23 79h1v1h-1zM23 80h1v1h-1zM23 81h1v1h-1zM23 82h1v1h-1zM23 83h1v1h-1zM23 84h1v1h-1zM23 85h1v1h-1zM23 86h1v1h-1zM23 87h1v1h-1zM23 88h1v1h-1zM23 89h1v1h-1zM23 90h1v1h-1zM23 91h1v1h-1z" /><path fill="#7b4fee" d="M24 8h1v1h-1zM24 9h1v1h-1zM24 10h1v1h-1zM24 11h1v1h-1zM24 12h1v1h-1zM24 13h1v1h-1zM24 14h1v1h-1zM24 15h1v1h-1zM24 16h1v1h-1zM24 17h1v1h-1zM24 18h1v1h-1zM24 19h1v1h-1zM24 20h1v1h-1zM24 21h1v1h-1zM24 78h1v1h-1zM24 79h1v1h-1zM24 80h1v1h-1zM24 81h1v1h-1zM24 82h1v1h-1zM24 83h1v1h-1zM24 84h1v1h-1zM24 85h1v1h-1zM24 86h1v1h-1zM24 87h1v1h-1zM24 88h1v1h-1zM24 89h1v1h-1zM24 90h1v1h-1zM24 91h1v1h-1z" /><path fill="#3d8deb" d="M75 8h1v1h-1zM75 9h1v1h-1zM75 10h1v1h-1zM75 11h1v1h-1zM75 12h1v1h-1zM75 13h1v1h-1zM75 14h1v1h-1zM75 15h1v1h-1zM75 16h1v1h-1zM75 17h1v1h-1zM75 18h1v1h-1zM75 19h1v1h-1zM75 20h1v1h-1zM75 21h1v1h-1zM75 78h1v1h-1zM75 79h1v1h-1zM75 80h1v1h-1zM75 81h1v1h-1zM75 82h1v1h-1zM75 83h1v1h-1zM75 84h1v1h-1zM75 85h1v1h-1zM75 86h1v1h-1zM75 87h1v1h-1zM75 88h1v1h-1zM75 89h1v1h-1zM75 90h1v1h-1zM75 91h1v1h-1z" /><path fill="#3c8eea" d="M76 8h1v1h-1zM76 9h1v1h-1zM76 10h1v1h-1zM76 11h1v1h-1zM76 12h1v1h-1zM76 13h1v1h-1zM76 14h1v1h-1zM76 15h1v1h-1zM76 16h1v1h-1zM76 17h1v1h-1zM76 18h1v1h-1zM76 19h1v1h-1zM76 20h1v1h-1zM76 21h1v1h-1zM76 22h1v1h-1zM76 77h1v1h-1zM76 78h1v1h-1zM76 79h1v1h-1zM76 80h1v1h-1zM76 81h1v1h-1zM76 82h1v1h-1zM76 83h1v1h-1zM76 84h1v1h-1zM76 85h1v1h-1zM76 86h1v1h-1zM76 87h1v1h-1zM76 88h1v1h-1zM76 89h1v1h-1zM76 90h1v1h-1zM76 91h1v1h-1z" /><path fill="#3a8fea" d="M77 8h1v1h-1z" /><path fill="#804deb" d="M21 9h1v1h-1z" /><path fill="#7f4eed" d="M22 9h1v1h-1zM22 10h1v1h-1zM22 11h1v1h-1zM22 12h1v1h-1zM22 13h1v1h-1zM22 14h1v1h-1zM22 15h1v1h-1zM22 16h1v1h-1zM22 17h1v1h-1zM22 18h1v1h-1zM22 19h1v1h-1zM22 20h1v1h-1zM22 21h1v1h-1zM22 22h1v1h-1zM22 77h1v1h-1zM22 78h1v1h-1zM22 79h1v1h-1zM22 80h1v1h-1zM22 81h1v1h-1zM22 82h1v1h-1zM22 83h1v1h-1zM22 84h1v1h-1zM22 85h1v1h-1zM22 86h1v1h-1zM22 87h1v1h-1zM22 88h1v1h-1zM22 89h1v1h-1zM22 90h1v1h-1z" /><path fill="#3b90ea" d="M77 9h1v1h-1zM77 10h1v1h-1zM77 11h1v1h-1zM77 12h1v1h-1zM77 13h1v1h-1zM77 14h1v1h-1zM77 15h1v1h-1zM77 16h1v1h-1zM77 17h1v1h-1zM77 18h1v1h-1zM77 19h1v1h-1zM77 20h1v1h-1zM77 21h1v1h-1zM77 22h1v1h-1zM77 77h1v1h-1zM77 78h1v1h-1zM77 79h1v1h-1zM77 80h1v1h-1zM77 81h1v1h-1zM77 82h1v1h-1zM77 83h1v1h-1zM77 84h1v1h-1zM77 85h1v1h-1zM77 86h1v1h-1zM77 87h1v1h-1zM77 88h1v1h-1zM77 89h1v1h-1zM77 90h1v1h-1z" /><path fill="#3b91e8" d="M78 9h1v1h-1zM78 90h1v1h-1z" /><path fill="#834cea" d="M19 10h1v1h-1z" /><path fill="#824deb" d="M20 10h1v1h-1z" /><path fill="#814dec" d="M21 10h1v1h-1zM21 11h1v1h-1zM21 12h1v1h-1zM21 13h1v1h-1zM21 14h1v1h-1zM21 15h1v1h-1zM21 16h1v1h-1zM21 17h1v1h-1zM21 18h1v1h-1zM21 19h1v1h-1zM21 20h1v1h-1zM21 21h1v1h-1zM21 22h1v1h-1zM21 23h1v1h-1zM21 76h1v1h-1zM21 77h1v1h-1zM21 78h1v1h-1zM21 79h1v1h-1zM21 80h1v1h-1zM21 81h1v1h-1zM21 82h1v1h-1zM21 83h1v1h-1zM21 84h1v1h-1zM21 85h1v1h-1zM21 86h1v1h-1zM21 87h1v1h-1zM21 88h1v1h-1zM21 89h1v1h-1z" /><path fill="#3b92e9" d="M78 10h1v1h-1zM78 11h1v1h-1zM78 12h1v1h-1zM78 13h1v1h-1zM78 14h1v1h-1zM78 15h1v1h-1zM78 16h1v1h-1zM78 17h1v1h-1zM78 18h1v1h-1zM78 19h1v1h-1zM78 20h1v1h-1zM78 21h1v1h-1zM78 22h1v1h-1zM78 23h1v1h-1zM78 76h1v1h-1zM78 77h1v1h-1zM78 78h1v1h-1zM78 79h1v1h-1zM78 80h1v1h-1zM78 81h1v1h-1zM78 82h1v1h-1zM78 83h1v1h-1zM78 84h1v1h-1zM78 85h1v1h-1zM78 86h1v1h-1zM78 87h1v1h-1zM78 88h1v1h-1zM78 89h1v1h-1z" /><path fill="#3a92e8" d="M79 10h1v1h-1zM79 89h1v1h-1z" /><path fill="#3895e8" d="M80 10h1v1h-1zM80 89h1v1h-1z" /><path fill="#864be9" d="M18 11h1v1h-1z" /><path fill="#844ceb" d="M19 11h1v1h-1zM19 12h1v1h-1zM19 13h1v1h-1zM19 14h1v1h-1zM19 15h1v1h-1zM19 16h1v1h-1zM19 17h1v1h-1zM19 18h1v1h-1zM19 19h1v1h-1zM19 20h1v1h-1zM19 21h1v1h-1zM19 22h1v1h-1zM19 23h1v1h-1zM19 24h1v1h-1zM19 25h1v1h-1zM19 74h1v1h-1zM19 75h1v1h-1zM19 76h1v1h-1zM19 77h1v1h-1zM19 78h1v1h-1zM19 79h1v1h-1zM19 80h1v1h-1zM19 81h1v1h-1zM19 82h1v1h-1zM19 83h1v1h-1zM19 84h1v1h-1zM19 85h1v1h-1zM19 86h1v1h-1zM19 87h1v1h-1zM19 88h1v1h-1z" /><path fill="#834dec" d="M20 11h1v1h-1zM20 12h1v1h-1zM20 13h1v1h-1zM20 14h1v1h-1zM20 15h1v1h-1zM20 16h1v1h-1zM20 17h1v1h-1zM20 18h1v1h-1zM20 19h1v1h-1zM20 20h1v1h-1zM20 21h1v1h-1zM20 22h1v1h-1zM20 23h1v1h-1zM20 24h1v1h-1zM20 75h1v1h-1zM20 76h1v1h-1zM20 77h1v1h-1zM20 78h1v1h-1zM20 79h1v1h-1zM20 80h1v1h-1zM20 81h1v1h-1zM20 82h1v1h-1zM20 83h1v1h-1zM20 84h1v1h-1zM20 85h1v1h-1zM20 86h1v1h-1zM20 87h1v1h-1zM20 88h1v1h-1z" /><path fill="#3a93e9" d="M79 11h1v1h-1zM79 12h1v1h-1zM79 13h1v1h-1zM79 14h1v1h-1zM79 15h1v1h-1zM79 16h1v1h-1zM79 17h1v1h-1zM79 18h1v1h-1zM79 19h1v1h-1zM79 20h1v1h-1zM79 21h1v1h-1zM79 22h1v1h-1zM79 23h1v1h-1zM79 24h1v1h-1zM79 75h1v1h-1zM79 76h1v1h-1zM79 77h1v1h-1zM79 78h1v1h-1zM79 79h1v1h-1zM79 80h1v1h-1zM79 81h1v1h-1zM79 82h1v1h-1zM79 83h1v1h-1zM79 84h1v1h-1zM79 85h1v1h-1zM79 86h1v1h-1zM79 87h1v1h-1zM79 88h1v1h-1z" /><path fill="#3995e8" d="M80 11h1v1h-1zM80 12h1v1h-1zM80 13h1v1h-1zM80 14h1v1h-1zM80 15h1v1h-1zM80 16h1v1h-1zM80 17h1v1h-1zM80 18h1v1h-1zM80 19h1v1h-1zM80 20h1v1h-1zM80 21h1v1h-1zM80 22h1v1h-1zM80 23h1v1h-1zM80 24h1v1h-1zM80 25h1v1h-1zM80 74h1v1h-1zM80 75h1v1h-1zM80 76h1v1h-1zM80 77h1v1h-1zM80 78h1v1h-1zM80 79h1v1h-1zM80 80h1v1h-1zM80 81h1v1h-1zM80 82h1v1h-1zM80 83h1v1h-1zM80 84h1v1h-1zM80 85h1v1h-1zM80 86h1v1h-1zM80 87h1v1h-1zM80 88h1v1h-1z" /><path fill="#3896e8" d="M81 11h1v1h-1z" /><path fill="#874ae9" d="M17 12h1v1h-1z" /><path fill="#864bea" d="M18 12h1v1h-1zM18 13h1v1h-1zM18 14h1v1h-1zM18 15h1v1h-1zM18 16h1v1h-1zM18 17h1v1h-1zM18 18h1v1h-1zM18 19h1v1h-1zM18 20h1v1h-1zM18 21h1v1h-1zM18 22h1v1h-1zM18 23h1v1h-1zM18 24h1v1h-1zM18 25h1v1h-1zM18 26h1v1h-1zM18 73h1v1h-1zM18 74h1v1h-1zM18 75h1v1h-1zM18 76h1v1h-1zM18 77h1v1h-1zM18 78h1v1h-1zM18 79h1v1h-1zM18 80h1v1h-1zM18 81h1v1h-1zM18 82h1v1h-1zM18 83h1v1h-1zM18 84h1v1h-1zM18 85h1v1h-1zM18 86h1v1h-1zM18 87h1v1h-1z" /><path fill="#3897e8" d="M81 12h1v1h-1zM81 13h1v1h-1zM81 14h1v1h-1zM81 15h1v1h-1zM81 16h1v1h-1zM81 17h1v1h-1zM81 18h1v1h-1zM81 19h1v1h-1zM81 20h1v1h-1zM81 21h1v1h-1zM81 22h1v1h-1zM81 23h1v1h-1zM81 24h1v1h-1zM81 25h1v1h-1zM81 26h1v1h-1zM81 73h1v1h-1zM81 74h1v1h-1zM81 75h1v1h-1zM81 76h1v1h-1zM81 77h1v1h-1zM81 78h1v1h-1zM81 79h1v1h-1zM81 80h1v1h-1zM81 81h1v1h-1zM81 82h1v1h-1zM81 83h1v1h-1zM81 84h1v1h-1zM81 85h1v1h-1zM81 86h1v1h-1zM81 87h1v1h-1z" /><path fill="#3897e6" d="M82 12h1v1h-1z" /><path fill="#8a49e8" d="M16 13h1v1h-1z" /><path fill="#884bea" d="M17 13h1v1h-1zM17 14h1v1h-1zM17 15h1v1h-1zM17 16h1v1h-1zM17 17h1v1h-1zM17 18h1v1h-1zM17 19h1v1h-1zM17 20h1v1h-1zM17 21h1v1h-1zM17 22h1v1h-1zM17 23h1v1h-1zM17 24h1v1h-1zM17 25h1v1h-1zM17 26h1v1h-1zM17 27h1v1h-1zM17 72h1v1h-1zM17 73h1v1h-1zM17 74h1v1h-1zM17 75h1v1h-1zM17 76h1v1h-1zM17 77h1v1h-1zM17 78h1v1h-1zM17 79h1v1h-1zM17 80h1v1h-1zM17 81h1v1h-1zM17 82h1v1h-1zM17 83h1v1h-1zM17 84h1v1h-1zM17 85h1v1h-1zM17 86h1v1h-1z" /><path fill="#3898e7" d="M82 13h1v1h-1zM82 14h1v1h-1zM82 15h1v1h-1zM82 16h1v1h-1zM82 17h1v1h-1zM82 18h1v1h-1zM82 19h1v1h-1zM82 20h1v1h-1zM82 21h1v1h-1zM82 22h1v1h-1zM82 23h1v1h-1zM82 24h1v1h-1zM82 25h1v1h-1zM82 26h1v1h-1zM82 27h1v1h-1zM82 72h1v1h-1zM82 73h1v1h-1zM82 74h1v1h-1zM82 75h1v1h-1zM82 76h1v1h-1zM82 77h1v1h-1zM82 78h1v1h-1zM82 79h1v1h-1zM82 80h1v1h-1zM82 81h1v1h-1zM82 82h1v1h-1zM82 83h1v1h-1zM82 84h1v1h-1zM82 85h1v1h-1zM82 86h1v1h-1z" /><path fill="#3699e5" d="M83 13h1v1h-1z" /><path fill="#8b49e8" d="M15 14h1v1h-1z" /><path fill="#8a4ae9" d="M16 14h1v1h-1zM16 15h1v1h-1zM16 16h1v1h-1zM16 17h1v1h-1zM16 18h1v1h-1zM16 19h1v1h-1zM16 20h1v1h-1zM16 21h1v1h-1zM16 22h1v1h-1zM16 23h1v1h-1zM16 24h1v1h-1zM16 25h1v1h-1zM16 26h1v1h-1zM16 27h1v1h-1zM16 28h1v1h-1zM16 71h1v1h-1zM16 72h1v1h-1zM16 73h1v1h-1zM16 74h1v1h-1zM16 75h1v1h-1zM16 76h1v1h-1zM16 77h1v1h-1zM16 78h1v1h-1zM16 79h1v1h-1zM16 80h1v1h-1zM16 81h1v1h-1zM16 82h1v1h-1zM16 83h1v1h-1zM16 84h1v1h-1zM16 85h1v1h-1z" /><path fill="#5d6afb" d="M47 14h1v1h-1z" /><path fill="#606ffb" d="M48 14h1v1h-1z" /><path fill="#6777fb" d="M49 14h1v1h-1zM49 85h1v1h-1z" /><path fill="#6679fa" d="M50 14h1v1h-1zM50 85h1v1h-1z" /><path fill="#5f73fa" d="M51 14h1v1h-1z" /><path fill="#5a71f8" d="M52 14h1v1h-1z" /><path fill="#379ae6" d="M83 14h1v1h-1zM83 15h1v1h-1zM83 16h1v1h-1zM83 17h1v1h-1zM83 18h1v1h-1zM83 19h1v1h-1zM83 20h1v1h-1zM83 21h1v1h-1zM83 22h1v1h-1zM83 23h1v1h-1zM83 24h1v1h-1zM83 25h1v1h-1zM83 26h1v1h-1zM83 27h1v1h-1zM83 28h1v1h-1zM83 71h1v1h-1zM83 72h1v1h-1zM83 73h1v1h-1zM83 74h1v1h-1zM83 75h1v1h-1zM83 76h1v1h-1zM83 77h1v1h-1zM83 78h1v1h-1zM83 79h1v1h-1zM83 80h1v1h-1zM83 81h1v1h-1zM83 82h1v1h-1zM83 83h1v1h-1zM83 84h1v1h-1zM83 85h1v1h-1z" /><path fill="#359be5" d="M84 14h1v1h-1z" /><path fill="#8d48e7" d="M14 15h1v1h-1zM14 84h1v1h-1z" /><path fill="#8c49e9" d="M15 15h1v1h-1zM15 16h1v1h-1zM15 17h1v1h-1zM15 18h1v1h-1zM15 19h1v1h-1zM15 20h1v1h-1zM15 21h1v1h-1zM15 22h1v1h-1zM15 23h1v1h-1zM15 24h1v1h-1zM15 25h1v1h-1zM15 26h1v1h-1zM15 27h1v1h-1zM15 28h1v1h-1zM15 29h1v1h-1zM15 70h1v1h-1zM15 71h1v1h-1zM15 72h1v1h-1zM15 73h1v1h-1zM15 74h1v1h-1zM15 75h1v1h-1zM15 76h1v1h-1zM15 77h1v1h-1zM15 78h1v1h-1zM15 79h1v1h-1zM15 80h1v1h-1zM15 81h1v1h-1zM15 82h1v1h-1zM15 83h1v1h-1zM15 84h1v1h-1z" /><path fill="#615af6" d="M39 15h1v1h-1z" /><path fill="#7975f8" d="M40 15h1v1h-1z" /><path fill="#9b9afa" d="M41 15h1v1h-1z" /><path fill="#b4b5fc" d="M42 15h1v1h-1z" /><path fill="#c9cafd" d="M43 15h1v1h-1z" /><path fill="#dfe0fe" d="M44 15h1v1h-1z" /><path fill="#f4f5ff" d="M45 15h1v1h-1z" /><path fill="#ffffff" d="M46 15h8v1h-8zM40 16h20v1h-20zM36 17h28v1h-28zM34 18h32v1h-32zM31 19h38v1h-38zM29 20h42v1h-42zM27 21h46v1h-46zM26 22h48v1h-48zM24 23h52v1h-52zM23 24h54v1h-54zM22 25h56v1h-56zM21 26h58v1h-58zM20 27h60v1h-60zM19 28h62v1h-62zM18 29h64v1h-64zM17 30h66v1h-66zM16 31h68v1h-68zM16 32h68v1h-68zM15 33h70v1h-70zM14 34h72v1h-72zM14 35h72v1h-72zM13 36h74v1h-74zM13 37h74v1h-74zM12 38h76v1h-76zM12 39h76v1h-76zM12 40h76v1h-76zM11 41h18v1h-18zM35 41h33v1h-33zM73 41h16v1h-16zM11 42h16v1h-16zM37 42h30v1h-30zM74 42h15v1h-15zM11 43h16v1h-16zM38 43h28v1h-28zM75 43h14v1h-14zM10 44h16v1h-16zM38 44h27v1h-27zM75 44h15v1h-15zM10 45h16v1h-16zM38 45h26v1h-26zM75 45h15v1h-15zM10 46h15v1h-15zM39 46h24v1h-24zM75 46h15v1h-15zM10 47h15v1h-15zM39 47h23v1h-23zM74 47h16v1h-16zM10 48h15v1h-15zM39 48h22v1h-22zM74 48h16v1h-16zM10 49h15v1h-15zM39 49h21v1h-21zM73 49h17v1h-17zM10 50h15v1h-15zM39 50h20v1h-20zM72 50h18v1h-18zM10 51h15v1h-15zM39 51h19v1h-19zM71 51h19v1h-19zM10 52h15v1h-15zM39 52h19v1h-19zM70 52h20v1h-20zM10 53h15v1h-15zM39 53h19v1h-19zM71 53h19v1h-19zM10 54h15v1h-15zM39 54h19v1h-19zM73 54h17v1h-17zM10 55h15v1h-15zM39 55h19v1h-19zM75 55h15v1h-15zM11 56h14v1h-14zM39 56h19v1h-19zM76 56h13v1h-13zM11 57h14v1h-14zM39 57h21v1h-21zM77 57h12v1h-12zM11 58h14v1h-14zM39 58h22v1h-22zM77 58h12v1h-12zM12 59h14v1h-14zM38 59h25v1h-25zM77 59h11v1h-11zM12 60h14v1h-14zM38 60h27v1h-27zM77 60h11v1h-11zM12 61h15v1h-15zM37 61h29v1h-29zM77 61h11v1h-11zM13 62h15v1h-15zM36 62h32v1h-32zM77 62h10v1h-10zM13 63h17v1h-17zM34 63h36v1h-36zM76 63h11v1h-11zM14 64h72v1h-72zM14 65h72v1h-72zM15 66h70v1h-70zM16 67h68v1h-68zM16 68h68v1h-68zM17 69h66v1h-66zM18 70h64v1h-64zM19 71h62v1h-62zM20 72h60v1h-60zM21 73h58v1h-58zM22 74h56v1h-56zM23 75h54v1h-54zM24 76h52v1h-52zM26 77h48v1h-48zM27 78h46v1h-46zM29 79h42v1h-42zM31 80h38v1h-38zM34 81h32v1h-32zM36 82h28v1h-28zM40 83h20v1h-20zM46 84h8v1h-8z" /><path fill="#f4f6fe" d="M54 15h1v1h-1zM60 16h1v1h-1z" /><path fill="#dce3fd" d="M55 15h1v1h-1z" /><path fill="#c4cffc" d="M56 15h1v1h-1z" /><path fill="#adbdfa" d="M57 15h1v1h-1z" /><path fill="#8ea7f9" d="M58 15h1v1h-1z" /><path fill="#6589f6" d="M59 15h1v1h-1z" /><path fill="#4975f4" d="M60 15h1v1h-1z" /><path fill="#369ce6" d="M84 15h1v1h-1zM84 16h1v1h-1zM84 17h1v1h-1zM84 18h1v1h-1zM84 19h1v1h-1zM84 20h1v1h-1zM84 21h1v1h-1zM84 22h1v1h-1zM84 23h1v1h-1zM84 24h1v1h-1zM84 25h1v1h-1zM84 26h1v1h-1zM84 27h1v1h-1zM84 28h1v1h-1zM84 29h1v1h-1zM84 70h1v1h-1zM84 71h1v1h-1zM84 72h1v1h-1zM84 73h1v1h-1zM84 74h1v1h-1zM84 75h1v1h-1zM84 76h1v1h-1zM84 77h1v1h-1zM84 78h1v1h-1zM84 79h1v1h-1zM84 80h1v1h-1zM84 81h1v1h-1zM84 82h1v1h-1zM84 83h1v1h-1zM84 84h1v1h-1z" /><path fill="#359ce4" d="M85 15h1v1h-1zM85 84h1v1h-1z" /><path fill="#8f47e7" d="M13 16h1v1h-1z" /><path fill="#8e49e8" d="M14 16h1v1h-1zM14 17h1v1h-1zM14 18h1v1h-1zM14 19h1v1h-1zM14 20h1v1h-1zM14 21h1v1h-1zM14 22h1v1h-1zM14 23h1v1h-1zM14 24h1v1h-1zM14 25h1v1h-1zM14 26h1v1h-1zM14 27h1v1h-1zM14 28h1v1h-1zM14 29h1v1h-1zM14 30h1v1h-1zM14 31h1v1h-1zM14 68h1v1h-1zM14 69h1v1h-1zM14 70h1v1h-1zM14 71h1v1h-1zM14 72h1v1h-1zM14 73h1v1h-1zM14 74h1v1h-1zM14 75h1v1h-1zM14 76h1v1h-1zM14 77h1v1h-1zM14 78h1v1h-1zM14 79h1v1h-1zM14 80h1v1h-1zM14 81h1v1h-1zM14 82h1v1h-1zM14 83h1v1h-1z" /><path fill="#7b6ff6" d="M36 16h1v1h-1z" /><path fill="#aba5fa" d="M37 16h1v1h-1z" /><path fill="#d3d0fc" d="M38 16h1v1h-1z" /><path fill="#f5f5fe" d="M39 16h1v1h-1z" /><path fill="#cbd8fc" d="M61 16h1v1h-1z" /><path fill="#9ab5f8" d="M62 16h1v1h-1z" /><path fill="#5f8bf4" d="M63 16h1v1h-1z" /><path fill="#369de5" d="M85 16h1v1h-1zM85 17h1v1h-1zM85 18h1v1h-1zM85 19h1v1h-1zM85 20h1v1h-1zM85 21h1v1h-1zM85 22h1v1h-1zM85 23h1v1h-1zM85 24h1v1h-1zM85 25h1v1h-1zM85 26h1v1h-1zM85 27h1v1h-1zM85 28h1v1h-1zM85 29h1v1h-1zM85 30h1v1h-1zM85 31h1v1h-1zM85 68h1v1h-1zM85 69h1v1h-1zM85 70h1v1h-1zM85 71h1v1h-1zM85 72h1v1h-1zM85 73h1v1h-1zM85 74h1v1h-1zM85 75h1v1h-1zM85 76h1v1h-1zM85 77h1v1h-1zM85 78h1v1h-1zM85 79h1v1h-1zM85 80h1v1h-1zM85 81h1v1h-1zM85 82h1v1h-1zM85 83h1v1h-1z" /><path fill="#359fe4" d="M86 16h1v1h-1z" /><path fill="#9147e6" d="M12 17h1v1h-1z" /><path fill="#8f48e8" d="M13 17h1v1h-1zM13 18h1v1h-1zM13 19h1v1h-1zM13 20h1v1h-1zM13 21h1v1h-1zM13 22h1v1h-1zM13 23h1v1h-1zM13 24h1v1h-1zM13 25h1v1h-1zM13 26h1v1h-1zM13 27h1v1h-1zM13 28h1v1h-1zM13 29h1v1h-1zM13 30h1v1h-1zM13 31h1v1h-1zM13 32h1v1h-1zM13 67h1v1h-1zM13 68h1v1h-1zM13 69h1v1h-1zM13 70h1v1h-1zM13 71h1v1h-1zM13 72h1v1h-1zM13 73h1v1h-1zM13 74h1v1h-1zM13 75h1v1h-1zM13 76h1v1h-1zM13 77h1v1h-1zM13 78h1v1h-1zM13 79h1v1h-1zM13 80h1v1h-1zM13 81h1v1h-1zM13 82h1v1h-1z" /><path fill="#7e6bf5" d="M33 17h1v1h-1z" /><path fill="#b4abfa" d="M34 17h1v1h-1z" /><path fill="#e4e1fd" d="M35 17h1v1h-1z" /><path fill="#dde7fc" d="M64 17h1v1h-1z" /><path fill="#a2bef8" d="M65 17h1v1h-1z" /><path fill="#5b8ef2" d="M66 17h1v1h-1z" /><path fill="#359fe5" d="M86 17h1v1h-1zM86 18h1v1h-1zM86 19h1v1h-1zM86 20h1v1h-1zM86 21h1v1h-1zM86 22h1v1h-1zM86 23h1v1h-1zM86 24h1v1h-1zM86 25h1v1h-1zM86 26h1v1h-1zM86 27h1v1h-1zM86 28h1v1h-1zM86 29h1v1h-1zM86 30h1v1h-1zM86 31h1v1h-1zM86 32h1v1h-1zM86 67h1v1h-1zM86 68h1v1h-1zM86 69h1v1h-1zM86 70h1v1h-1zM86 71h1v1h-1zM86 72h1v1h-1zM86 73h1v1h-1zM86 74h1v1h-1zM86 75h1v1h-1zM86 76h1v1h-1zM86 77h1v1h-1zM86 78h1v1h-1zM86 79h1v1h-1zM86 80h1v1h-1zM86 81h1v1h-1zM86 82h1v1h-1z" /><path fill="#33a0e4" d="M87 17h1v1h-1z" /><path fill="#9247e7" d="M11 18h1v1h-1z" /><path fill="#9147e7" d="M12 18h1v1h-1zM12 19h1v1h-1zM12 20h1v1h-1zM12 21h1v1h-1zM12 22h1v1h-1zM12 23h1v1h-1zM12 24h1v1h-1zM12 25h1v1h-1zM12 26h1v1h-1zM12 27h1v1h-1zM12 28h1v1h-1zM12 29h1v1h-1zM12 30h1v1h-1zM12 31h1v1h-1zM12 32h1v1h-1zM12 33h1v1h-1zM12 34h1v1h-1zM12 65h1v1h-1zM12 66h1v1h-1zM12 67h1v1h-1zM12 68h1v1h-1zM12 69h1v1h-1zM12 70h1v1h-1zM12 71h1v1h-1zM12 72h1v1h-1zM12 73h1v1h-1zM12 74h1v1h-1zM12 75h1v1h-1zM12 76h1v1h-1zM12 77h1v1h-1zM12 78h1v1h-1zM12 79h1v1h-1zM12 80h1v1h-1zM12 81h1v1h-1z" /><path fill="#7154f1" d="M30 18h1v1h-1z" /><path fill="#9582f5" d="M31 18h1v1h-1z" /><path fill="#cec6fb" d="M32 18h1v1h-1zM32 81h1v1h-1z" /><path fill="#fdfcff" d="M33 18h1v1h-1zM33 81h1v1h-1z" /><path fill="#fefeff" d="M66 18h1v1h-1zM11 59h1v1h-1zM66 81h1v1h-1z" /><path fill="#cdddfb" d="M67 18h1v1h-1zM67 81h1v1h-1z" /><path fill="#81abf4" d="M68 18h1v1h-1z" /><path fill="#4384ee" d="M69 18h1v1h-1z" /><path fill="#34a0e4" d="M87 18h1v1h-1zM87 19h1v1h-1zM87 20h1v1h-1zM87 21h1v1h-1zM87 22h1v1h-1zM87 23h1v1h-1zM87 24h1v1h-1zM87 25h1v1h-1zM87 26h1v1h-1zM87 27h1v1h-1zM87 28h1v1h-1zM87 29h1v1h-1zM87 30h1v1h-1zM87 31h1v1h-1zM87 32h1v1h-1zM87 33h1v1h-1zM87 34h1v1h-1zM87 65h1v1h-1zM87 66h1v1h-1zM87 67h1v1h-1zM87 68h1v1h-1zM87 69h1v1h-1zM87 70h1v1h-1zM87 71h1v1h-1zM87 72h1v1h-1zM87 73h1v1h-1zM87 74h1v1h-1zM87 75h1v1h-1zM87 76h1v1h-1zM87 77h1v1h-1zM87 78h1v1h-1zM87 79h1v1h-1zM87 80h1v1h-1zM87 81h1v1h-1z" /><path fill="#33a1e4" d="M88 18h1v1h-1z" /><path fill="#9445e6" d="M10 19h1v1h-1z" /><path fill="#9347e7" d="M11 19h1v1h-1zM11 20h1v1h-1zM11 21h1v1h-1zM11 22h1v1h-1zM11 23h1v1h-1zM11 24h1v1h-1zM11 25h1v1h-1zM11 26h1v1h-1zM11 27h1v1h-1zM11 28h1v1h-1zM11 29h1v1h-1zM11 30h1v1h-1zM11 31h1v1h-1zM11 32h1v1h-1zM11 33h1v1h-1zM11 34h1v1h-1zM11 35h1v1h-1zM11 36h1v1h-1zM11 63h1v1h-1zM11 64h1v1h-1zM11 65h1v1h-1zM11 66h1v1h-1zM11 67h1v1h-1zM11 68h1v1h-1zM11 69h1v1h-1zM11 70h1v1h-1zM11 71h1v1h-1zM11 72h1v1h-1zM11 73h1v1h-1zM11 74h1v1h-1zM11 75h1v1h-1zM11 76h1v1h-1zM11 77h1v1h-1zM11 78h1v1h-1zM11 79h1v1h-1zM11 80h1v1h-1z" /><path fill="#7553f0" d="M28 19h1v1h-1zM28 80h1v1h-1z" /><path fill="#a18cf6" d="M29 19h1v1h-1z" /><path fill="#e9e4fd" d="M30 19h1v1h-1z" /><path fill="#e0ebfc" d="M69 19h1v1h-1z" /><path fill="#7eacf4" d="M70 19h1v1h-1z" /><path fill="#4186ed" d="M71 19h1v1h-1z" /><path fill="#33a2e4" d="M88 19h1v1h-1zM88 20h1v1h-1zM88 21h1v1h-1zM88 22h1v1h-1zM88 23h1v1h-1zM88 24h1v1h-1zM88 25h1v1h-1zM88 26h1v1h-1zM88 27h1v1h-1zM88 28h1v1h-1zM88 29h1v1h-1zM88 30h1v1h-1zM88 31h1v1h-1zM88 32h1v1h-1zM88 33h1v1h-1zM88 34h1v1h-1zM88 35h1v1h-1zM88 36h1v1h-1zM88 63h1v1h-1zM88 64h1v1h-1zM88 65h1v1h-1zM88 66h1v1h-1zM88 67h1v1h-1zM88 68h1v1h-1zM88 69h1v1h-1zM88 70h1v1h-1zM88 71h1v1h-1zM88 72h1v1h-1zM88 73h1v1h-1zM88 74h1v1h-1zM88 75h1v1h-1zM88 76h1v1h-1zM88 77h1v1h-1zM88 78h1v1h-1zM88 79h1v1h-1zM88 80h1v1h-1z" /><path fill="#32a4e3" d="M89 19h1v1h-1z" /><path fill="#9446e5" d="M10 20h1v1h-1zM10 79h1v1h-1z" /><path fill="#9c81f4" d="M27 20h1v1h-1z" /><path fill="#e3dcfc" d="M28 20h1v1h-1z" /><path fill="#d8e6fb" d="M71 20h1v1h-1z" /><path fill="#73a8f2" d="M72 20h1v1h-1z" /><path fill="#33a3e2" d="M89 20h1v1h-1zM89 79h1v1h-1z" /><path fill="#9644e5" d="M9 21h1v1h-1z" /><path fill="#9546e6" d="M10 21h1v1h-1zM10 22h1v1h-1zM10 23h1v1h-1zM10 24h1v1h-1zM10 25h1v1h-1zM10 26h1v1h-1zM10 27h1v1h-1zM10 28h1v1h-1zM10 29h1v1h-1zM10 30h1v1h-1zM10 31h1v1h-1zM10 32h1v1h-1zM10 33h1v1h-1zM10 34h1v1h-1zM10 35h1v1h-1zM10 36h1v1h-1zM10 37h1v1h-1zM10 38h1v1h-1zM10 39h1v1h-1zM10 60h1v1h-1zM10 61h1v1h-1zM10 62h1v1h-1zM10 63h1v1h-1zM10 64h1v1h-1zM10 65h1v1h-1zM10 66h1v1h-1zM10 67h1v1h-1zM10 68h1v1h-1zM10 69h1v1h-1zM10 70h1v1h-1zM10 71h1v1h-1zM10 72h1v1h-1zM10 73h1v1h-1zM10 74h1v1h-1zM10 75h1v1h-1zM10 76h1v1h-1zM10 77h1v1h-1zM10 78h1v1h-1z" /><path fill="#855fef" d="M25 21h1v1h-1z" /><path fill="#cec0f9" d="M26 21h1v1h-1z" /><path fill="#bfd8f9" d="M73 21h1v1h-1zM73 78h1v1h-1z" /><path fill="#4f95ee" d="M74 21h1v1h-1z" /><path fill="#33a4e3" d="M89 21h1v1h-1zM89 22h1v1h-1zM89 23h1v1h-1zM89 24h1v1h-1zM89 25h1v1h-1zM89 26h1v1h-1zM89 27h1v1h-1zM89 28h1v1h-1zM89 29h1v1h-1zM89 30h1v1h-1zM89 31h1v1h-1zM89 32h1v1h-1zM89 33h1v1h-1zM89 34h1v1h-1zM89 35h1v1h-1zM89 36h1v1h-1zM89 37h1v1h-1zM89 38h1v1h-1zM89 39h1v1h-1zM89 60h1v1h-1zM89 61h1v1h-1zM89 62h1v1h-1zM89 63h1v1h-1zM89 64h1v1h-1zM89 65h1v1h-1zM89 66h1v1h-1zM89 67h1v1h-1zM89 68h1v1h-1zM89 69h1v1h-1zM89 70h1v1h-1zM89 71h1v1h-1zM89 72h1v1h-1zM89 73h1v1h-1zM89 74h1v1h-1zM89 75h1v1h-1zM89 76h1v1h-1zM89 77h1v1h-1zM89 78h1v1h-1zM89 80h1v1h-1z" /><path fill="#32a5e2" d="M90 21h1v1h-1zM90 22h1v1h-1zM90 23h1v1h-1zM90 24h1v1h-1zM90 25h1v1h-1zM90 26h1v1h-1zM90 27h1v1h-1zM90 28h1v1h-1zM90 29h1v1h-1zM90 30h1v1h-1zM90 31h1v1h-1zM90 32h1v1h-1zM90 33h1v1h-1zM90 34h1v1h-1zM90 35h1v1h-1zM90 36h1v1h-1zM90 37h1v1h-1zM90 38h1v1h-1zM90 39h1v1h-1zM90 40h1v1h-1zM90 41h1v1h-1zM90 42h1v1h-1zM90 43h1v1h-1zM90 56h1v1h-1zM90 57h1v1h-1zM90 58h1v1h-1zM90 59h1v1h-1zM90 60h1v1h-1zM90 61h1v1h-1zM90 62h1v1h-1zM90 63h1v1h-1zM90 64h1v1h-1zM90 65h1v1h-1zM90 66h1v1h-1zM90 67h1v1h-1zM90 68h1v1h-1zM90 69h1v1h-1zM90 70h1v1h-1zM90 71h1v1h-1zM90 72h1v1h-1zM90 73h1v1h-1zM90 74h1v1h-1zM90 75h1v1h-1zM90 76h1v1h-1zM90 77h1v1h-1zM90 78h1v1h-1z" /><path fill="#9744e5" d="M8 22h1v1h-1z" /><path fill="#9745e5" d="M9 22h1v1h-1zM9 23h1v1h-1zM9 24h1v1h-1zM9 25h1v1h-1zM9 26h1v1h-1zM9 27h1v1h-1zM9 28h1v1h-1zM9 29h1v1h-1zM9 30h1v1h-1zM9 31h1v1h-1zM9 32h1v1h-1zM9 33h1v1h-1zM9 34h1v1h-1zM9 35h1v1h-1zM9 36h1v1h-1zM9 37h1v1h-1zM9 38h1v1h-1zM9 39h1v1h-1zM9 40h1v1h-1zM9 41h1v1h-1zM9 42h1v1h-1zM9 43h1v1h-1zM9 56h1v1h-1zM9 57h1v1h-1zM9 58h1v1h-1zM9 59h1v1h-1zM9 60h1v1h-1zM9 61h1v1h-1zM9 62h1v1h-1zM9 63h1v1h-1zM9 64h1v1h-1zM9 65h1v1h-1zM9 66h1v1h-1zM9 67h1v1h-1zM9 68h1v1h-1zM9 69h1v1h-1zM9 70h1v1h-1zM9 71h1v1h-1zM9 72h1v1h-1zM9 73h1v1h-1zM9 74h1v1h-1zM9 75h1v1h-1zM9 76h1v1h-1zM8 77h2v1h-2zM9 78h1v1h-1z" /><path fill="#ab8ff4" d="M24 22h1v1h-1z" /><path fill="#f5f2fe" d="M25 22h1v1h-1z" /><path fill="#f0f6fe" d="M74 22h1v1h-1z" /><path fill="#82b6f2" d="M75 22h1v1h-1z" /><path fill="#31a6e2" d="M91 22h1v1h-1zM91 77h1v1h-1z" /><path fill="#9845e5" d="M8 23h1v1h-1zM8 26h1v1h-1zM8 27h1v1h-1zM8 28h1v1h-1zM8 29h1v1h-1zM8 33h1v1h-1zM8 34h1v1h-1zM8 35h1v1h-1zM8 36h1v1h-1zM8 37h1v1h-1zM8 38h1v1h-1zM8 39h1v1h-1zM8 60h1v1h-1zM8 61h1v1h-1zM8 62h1v1h-1zM8 63h1v1h-1zM8 64h1v1h-1zM8 65h1v1h-1zM8 66h1v1h-1zM8 70h1v1h-1zM8 71h1v1h-1zM8 72h1v1h-1zM8 73h1v1h-1zM8 76h1v1h-1z" /><path fill="#8353ed" d="M22 23h1v1h-1zM22 76h1v1h-1z" /><path fill="#cdbbf8" d="M23 23h1v1h-1z" /><path fill="#b9d6f7" d="M76 23h1v1h-1z" /><path fill="#4394eb" d="M77 23h1v1h-1z" /><path fill="#31a7e2" d="M91 23h1v1h-1zM91 24h1v1h-1zM91 25h1v1h-1zM91 26h1v1h-1zM91 27h1v1h-1zM91 28h1v1h-1zM91 29h1v1h-1zM91 30h1v1h-1zM91 31h1v1h-1zM91 32h1v1h-1zM91 33h1v1h-1zM91 34h1v1h-1zM91 35h1v1h-1zM91 36h1v1h-1zM91 37h1v1h-1zM91 38h1v1h-1zM91 39h1v1h-1zM91 40h1v1h-1zM91 41h1v1h-1zM91 42h1v1h-1zM91 43h1v1h-1zM91 44h1v1h-1zM91 45h1v1h-1zM91 46h1v1h-1zM91 47h1v1h-1zM91 48h1v1h-1zM91 49h1v1h-1zM91 50h1v1h-1zM91 51h1v1h-1zM91 52h1v1h-1zM91 53h1v1h-1zM91 54h1v1h-1zM91 55h1v1h-1zM91 56h1v1h-1zM91 57h1v1h-1zM91 58h1v1h-1zM91 59h1v1h-1zM91 60h1v1h-1zM91 61h1v1h-1zM91 62h1v1h-1zM91 63h1v1h-1zM91 64h1v1h-1zM91 65h1v1h-1zM91 66h1v1h-1zM91 67h1v1h-1zM91 68h1v1h-1zM91 69h1v1h-1zM91 70h1v1h-1zM91 71h1v1h-1zM91 72h1v1h-1zM91 73h1v1h-1zM91 74h1v1h-1zM91 75h1v1h-1zM91 76h1v1h-1z" /><path fill="#9943e4" d="M7 24h1v1h-1z" /><path fill="#9945e5" d="M8 24h1v1h-1zM8 25h1v1h-1zM8 30h1v1h-1zM8 31h1v1h-1zM8 32h1v1h-1zM8 40h1v1h-1zM8 41h1v1h-1zM8 42h1v1h-1zM8 43h1v1h-1zM8 44h1v1h-1zM8 45h1v1h-1zM8 46h1v1h-1zM8 47h1v1h-1zM8 48h1v1h-1zM8 49h1v1h-1zM8 50h1v1h-1zM8 51h1v1h-1zM8 52h1v1h-1zM8 53h1v1h-1zM8 54h1v1h-1zM8 55h1v1h-1zM8 56h1v1h-1zM8 57h1v1h-1zM8 58h1v1h-1zM8 59h1v1h-1zM8 67h1v1h-1zM8 68h1v1h-1zM8 69h1v1h-1zM8 74h1v1h-1zM8 75h1v1h-1z" /><path fill="#8f61ee" d="M21 24h1v1h-1zM21 75h1v1h-1z" /><path fill="#e4dafb" d="M22 24h1v1h-1z" /><path fill="#d9eafb" d="M77 24h1v1h-1z" /><path fill="#54a0ec" d="M78 24h1v1h-1zM78 75h1v1h-1z" /><path fill="#2fa8e1" d="M92 24h1v1h-1zM92 75h1v1h-1z" /><path fill="#9b42e4" d="M6 25h1v1h-1z" /><path fill="#9a44e4" d="M7 25h1v1h-1zM7 26h1v1h-1zM7 27h1v1h-1zM7 28h1v1h-1zM7 29h1v1h-1zM7 30h1v1h-1zM7 31h1v1h-1zM7 32h1v1h-1zM7 33h1v1h-1zM7 34h1v1h-1zM7 35h1v1h-1zM7 36h1v1h-1zM7 37h1v1h-1zM7 38h1v1h-1zM7 39h1v1h-1zM7 40h1v1h-1zM7 41h1v1h-1zM7 42h1v1h-1zM7 43h1v1h-1zM7 44h1v1h-1zM7 45h1v1h-1zM7 46h1v1h-1zM7 47h1v1h-1zM7 48h1v1h-1zM7 49h1v1h-1zM7 50h1v1h-1zM7 51h1v1h-1zM7 52h1v1h-1zM7 53h1v1h-1zM7 54h1v1h-1zM7 55h1v1h-1zM7 56h1v1h-1zM7 57h1v1h-1zM7 58h1v1h-1zM7 59h1v1h-1zM7 60h1v1h-1zM7 61h1v1h-1zM7 62h1v1h-1zM7 63h1v1h-1zM7 64h1v1h-1zM7 65h1v1h-1zM7 66h1v1h-1zM7 67h1v1h-1zM7 68h1v1h-1zM7 69h1v1h-1zM7 70h1v1h-1zM7 71h1v1h-1zM7 72h1v1h-1zM7 73h1v1h-1zM7 74h1v1h-1zM7 75h1v1h-1z" /><path fill="#9b6ff0" d="M20 25h1v1h-1z" /><path fill="#f4f0fd" d="M21 25h1v1h-1zM21 74h1v1h-1z" /><path fill="#eef6fd" d="M78 25h1v1h-1z" /><path fill="#60a8ed" d="M79 25h1v1h-1z" /><path fill="#30a9e1" d="M92 25h1v1h-1zM92 26h1v1h-1zM92 27h1v1h-1zM92 28h1v1h-1zM92 29h1v1h-1zM92 30h1v1h-1zM92 31h1v1h-1zM92 32h1v1h-1zM92 33h1v1h-1zM92 34h1v1h-1zM92 35h1v1h-1zM92 36h1v1h-1zM92 37h1v1h-1zM92 38h1v1h-1zM92 39h1v1h-1zM92 40h1v1h-1zM92 41h1v1h-1zM92 42h1v1h-1zM92 43h1v1h-1zM92 44h1v1h-1zM92 45h1v1h-1zM92 46h1v1h-1zM92 47h1v1h-1zM92 48h1v1h-1zM92 49h1v1h-1zM92 50h1v1h-1zM92 51h1v1h-1zM92 52h1v1h-1zM92 53h1v1h-1zM92 54h1v1h-1zM92 55h1v1h-1zM92 56h1v1h-1zM92 57h1v1h-1zM92 58h1v1h-1zM92 59h1v1h-1zM92 60h1v1h-1zM92 61h1v1h-1zM92 62h1v1h-1zM92 63h1v1h-1zM92 64h1v1h-1zM92 65h1v1h-1zM92 66h1v1h-1zM92 67h1v1h-1zM92 68h1v1h-1zM92 69h1v1h-1zM92 70h1v1h-1zM92 71h1v1h-1zM92 72h1v1h-1zM92 73h1v1h-1zM92 74h1v1h-1z" /><path fill="#30aae0" d="M93 25h1v1h-1z" /><path fill="#9b42e3" d="M6 26h1v1h-1z" /><path fill="#9e71ef" d="M19 26h1v1h-1z" /><path fill="#f6f2fe" d="M20 26h1v1h-1zM18 71h1v1h-1zM20 73h1v1h-1z" /><path fill="#f3f8fe" d="M79 26h1v1h-1zM79 73h1v1h-1z" /><path fill="#66aded" d="M80 26h1v1h-1z" /><path fill="#2fa9e0" d="M93 26h1v1h-1z" /><path fill="#9d42e3" d="M5 27h1v1h-1zM5 28h1v1h-1zM5 71h1v1h-1z" /><path fill="#9c43e4" d="M6 27h1v1h-1zM6 28h1v1h-1zM6 29h1v1h-1zM6 30h1v1h-1zM6 31h1v1h-1zM6 32h1v1h-1zM6 33h1v1h-1zM6 34h1v1h-1zM6 35h1v1h-1zM6 36h1v1h-1zM6 37h1v1h-1zM6 38h1v1h-1zM6 39h1v1h-1zM6 40h1v1h-1zM6 41h1v1h-1zM6 42h1v1h-1zM6 43h1v1h-1zM6 44h1v1h-1zM6 45h1v1h-1zM6 46h1v1h-1zM6 47h1v1h-1zM6 48h1v1h-1zM6 49h1v1h-1zM6 50h1v1h-1zM6 51h1v1h-1zM6 52h1v1h-1zM6 53h1v1h-1zM6 54h1v1h-1zM6 55h1v1h-1zM6 56h1v1h-1zM6 57h1v1h-1zM6 58h1v1h-1zM6 59h1v1h-1zM6 60h1v1h-1zM6 61h1v1h-1zM6 62h1v1h-1zM6 63h1v1h-1zM6 64h1v1h-1zM6 65h1v1h-1zM6 66h1v1h-1zM6 67h1v1h-1zM6 68h1v1h-1zM6 69h1v1h-1zM6 70h1v1h-1zM6 71h1v1h-1zM6 72h1v1h-1z" /><path fill="#a477ef" d="M18 27h1v1h-1z" /><path fill="#f9f7fe" d="M19 27h1v1h-1z" /><path fill="#f6fafe" d="M80 27h1v1h-1z" /><path fill="#68b0ee" d="M81 27h1v1h-1z" /><path fill="#30aae1" d="M93 27h1v1h-1zM93 28h1v1h-1zM93 29h1v1h-1zM93 30h1v1h-1zM93 31h1v1h-1zM93 32h1v1h-1zM93 33h1v1h-1zM93 34h1v1h-1zM93 35h1v1h-1zM93 36h1v1h-1zM93 37h1v1h-1zM93 38h1v1h-1zM93 39h1v1h-1zM93 40h1v1h-1zM93 41h1v1h-1zM93 42h1v1h-1zM93 43h1v1h-1zM93 44h1v1h-1zM93 45h1v1h-1zM93 46h1v1h-1zM93 47h1v1h-1zM93 48h1v1h-1zM93 49h1v1h-1zM93 50h1v1h-1zM93 51h1v1h-1zM93 52h1v1h-1zM93 53h1v1h-1zM93 54h1v1h-1zM93 55h1v1h-1zM93 56h1v1h-1zM93 57h1v1h-1zM93 58h1v1h-1zM93 59h1v1h-1zM93 60h1v1h-1zM93 61h1v1h-1zM93 62h1v1h-1zM93 63h1v1h-1zM93 64h1v1h-1zM93 65h1v1h-1zM93 66h1v1h-1zM93 67h1v1h-1zM93 68h1v1h-1zM93 69h1v1h-1zM93 70h1v1h-1zM93 71h1v1h-1zM93 72h1v1h-1z" /><path fill="#2eacdf" d="M94 27h1v1h-1z" /><path fill="#9b68ed" d="M17 28h1v1h-1z" /><path fill="#f7f3fe" d="M18 28h1v1h-1z" /><path fill="#f4f9fe" d="M81 28h1v1h-1zM80 72h1v1h-1z" /><path fill="#5baaeb" d="M82 28h1v1h-1z" /><path fill="#2eace0" d="M94 28h1v1h-1z" /><path fill="#a041e3" d="M4 29h1v1h-1z" /><path fill="#9e43e3" d="M5 29h1v1h-1zM5 30h1v1h-1zM5 31h1v1h-1zM5 32h1v1h-1zM5 33h1v1h-1zM5 34h1v1h-1zM5 35h1v1h-1zM5 36h1v1h-1zM5 37h1v1h-1zM5 38h1v1h-1zM5 39h1v1h-1zM5 40h1v1h-1zM5 41h1v1h-1zM5 42h1v1h-1zM5 43h1v1h-1zM5 44h1v1h-1zM5 45h1v1h-1zM5 46h1v1h-1zM5 47h1v1h-1zM5 48h1v1h-1zM5 49h1v1h-1zM5 50h1v1h-1zM5 51h1v1h-1zM5 52h1v1h-1zM5 53h1v1h-1zM5 54h1v1h-1zM5 55h1v1h-1zM5 56h1v1h-1zM5 57h1v1h-1zM5 58h1v1h-1zM5 59h1v1h-1zM5 60h1v1h-1zM5 61h1v1h-1zM5 62h1v1h-1zM5 63h1v1h-1zM5 64h1v1h-1zM5 65h1v1h-1zM5 66h1v1h-1zM5 67h1v1h-1zM5 68h1v1h-1zM5 69h1v1h-1zM5 70h1v1h-1z" /><path fill="#9459eb" d="M16 29h1v1h-1z" /><path fill="#efe6fc" d="M17 29h1v1h-1z" /><path fill="#e6f2fc" d="M82 29h1v1h-1z" /><path fill="#49a3e8" d="M83 29h1v1h-1zM83 70h1v1h-1z" /><path fill="#2face0" d="M94 29h1v1h-1zM94 30h1v1h-1zM94 31h1v1h-1zM94 32h1v1h-1zM94 33h1v1h-1zM94 34h1v1h-1zM94 35h1v1h-1zM94 36h1v1h-1zM94 37h1v1h-1zM94 38h1v1h-1zM94 39h1v1h-1zM94 40h1v1h-1zM94 41h1v1h-1zM94 42h1v1h-1zM94 43h1v1h-1zM94 44h1v1h-1zM94 45h1v1h-1zM94 46h1v1h-1zM94 47h1v1h-1zM94 48h1v1h-1zM94 49h1v1h-1zM94 50h1v1h-1zM94 51h1v1h-1zM94 52h1v1h-1zM94 53h1v1h-1zM94 54h1v1h-1zM94 55h1v1h-1zM94 56h1v1h-1zM94 57h1v1h-1zM94 58h1v1h-1zM94 59h1v1h-1zM94 60h1v1h-1zM94 61h1v1h-1zM94 62h1v1h-1zM94 63h1v1h-1zM94 64h1v1h-1zM94 65h1v1h-1zM94 66h1v1h-1zM94 67h1v1h-1zM94 68h1v1h-1zM94 69h1v1h-1zM94 70h1v1h-1zM94 72h1v1h-1z" /><path fill="#2daedf" d="M95 29h1v1h-1zM95 30h1v1h-1zM96 32h1v1h-1z" /><path fill="#9f42e3" d="M4 30h1v1h-1zM4 69h1v1h-1z" /><path fill="#8e4ce9" d="M15 30h1v1h-1zM15 69h1v1h-1z" /><path fill="#e5d7fa" d="M16 30h1v1h-1z" /><path fill="#d2e8f9" d="M83 30h1v1h-1z" /><path fill="#399ee6" d="M84 30h1v1h-1z" /><path fill="#a042e3" d="M4 31h1v1h-1zM4 32h1v1h-1zM4 33h1v1h-1zM4 34h1v1h-1zM4 35h1v1h-1zM4 36h1v1h-1zM4 37h1v1h-1zM4 38h1v1h-1zM4 39h1v1h-1zM4 40h1v1h-1zM4 41h1v1h-1zM4 42h1v1h-1zM4 43h1v1h-1zM4 44h1v1h-1zM4 45h1v1h-1zM4 46h1v1h-1zM4 47h1v1h-1zM4 48h1v1h-1zM4 49h1v1h-1zM4 50h1v1h-1zM4 51h1v1h-1zM4 52h1v1h-1zM4 53h1v1h-1zM4 54h1v1h-1zM4 55h1v1h-1zM4 56h1v1h-1zM4 57h1v1h-1zM4 58h1v1h-1zM4 59h1v1h-1zM4 60h1v1h-1zM4 61h1v1h-1zM4 62h1v1h-1zM4 63h1v1h-1zM4 64h1v1h-1zM4 65h1v1h-1zM4 66h1v1h-1zM4 67h1v1h-1zM4 68h1v1h-1zM4 70h1v1h-1z" /><path fill="#c7a6f4" d="M15 31h1v1h-1z" /><path fill="#9bcef3" d="M84 31h1v1h-1z" /><path fill="#2eaee0" d="M95 31h1v1h-1zM95 32h1v1h-1zM95 33h1v1h-1zM95 34h1v1h-1zM95 35h1v1h-1zM95 36h1v1h-1zM95 37h1v1h-1zM95 38h1v1h-1zM95 39h1v1h-1zM95 40h1v1h-1zM95 41h1v1h-1zM95 42h1v1h-1zM95 43h1v1h-1zM95 44h1v1h-1zM95 45h1v1h-1zM95 46h1v1h-1zM95 47h1v1h-1zM95 48h1v1h-1zM95 49h1v1h-1zM95 50h1v1h-1zM95 51h1v1h-1zM95 52h1v1h-1zM95 53h1v1h-1zM95 54h1v1h-1zM95 55h1v1h-1zM95 56h1v1h-1zM95 57h1v1h-1zM95 58h1v1h-1zM95 59h1v1h-1zM95 60h1v1h-1zM95 61h1v1h-1zM95 62h1v1h-1zM95 63h1v1h-1zM95 64h1v1h-1zM95 65h1v1h-1zM95 66h1v1h-1zM95 67h1v1h-1zM95 68h1v1h-1zM95 70h1v1h-1z" /><path fill="#a241e2" d="M3 32h1v1h-1zM3 33h1v1h-1zM3 34h1v1h-1zM3 35h1v1h-1zM3 36h1v1h-1zM3 37h1v1h-1zM3 38h1v1h-1zM3 39h1v1h-1zM3 40h1v1h-1zM3 41h1v1h-1zM3 42h1v1h-1zM3 43h1v1h-1zM3 44h1v1h-1zM3 45h1v1h-1zM3 46h1v1h-1zM3 47h1v1h-1zM3 48h1v1h-1zM3 49h1v1h-1zM3 50h1v1h-1zM3 51h1v1h-1zM3 52h1v1h-1zM3 53h1v1h-1zM3 54h1v1h-1zM3 55h1v1h-1zM3 56h1v1h-1zM3 57h1v1h-1zM3 58h1v1h-1zM3 59h1v1h-1zM3 60h1v1h-1zM3 61h1v1h-1zM3 62h1v1h-1zM3 63h1v1h-1zM3 64h1v1h-1zM3 65h1v1h-1zM3 66h1v1h-1z" /><path fill="#a872ed" d="M14 32h1v1h-1z" /><path fill="#fefdff" d="M15 32h1v1h-1z" /><path fill="#fcfdff" d="M84 32h1v1h-1zM84 67h1v1h-1z" /><path fill="#63b3eb" d="M85 32h1v1h-1z" /><path fill="#914ce8" d="M13 33h1v1h-1zM13 66h1v1h-1z" /><path fill="#eee4fc" d="M14 33h1v1h-1z" /><path fill="#dff0fb" d="M85 33h1v1h-1z" /><path fill="#39a1e6" d="M86 33h1v1h-1z" /><path fill="#2eafdf" d="M96 33h1v1h-1zM96 34h1v1h-1zM96 35h1v1h-1zM96 36h1v1h-1zM96 37h1v1h-1zM96 38h1v1h-1zM96 39h1v1h-1zM96 40h1v1h-1zM96 41h1v1h-1zM96 42h1v1h-1zM96 43h1v1h-1zM96 44h1v1h-1zM96 45h1v1h-1zM96 46h1v1h-1zM96 47h1v1h-1zM96 48h1v1h-1zM96 49h1v1h-1zM96 50h1v1h-1zM96 51h1v1h-1zM96 52h1v1h-1zM96 53h1v1h-1zM96 54h1v1h-1zM96 55h1v1h-1zM96 56h1v1h-1zM96 57h1v1h-1zM96 58h1v1h-1zM96 59h1v1h-1zM96 60h1v1h-1zM96 61h1v1h-1zM96 62h1v1h-1zM96 63h1v1h-1zM96 64h1v1h-1zM96 65h1v1h-1zM96 66h1v1h-1z" /><path fill="#a240e0" d="M2 34h1v1h-1z" /><path fill="#c098f2" d="M13 34h1v1h-1z" /><path fill="#8bc8f0" d="M86 34h1v1h-1z" /><path fill="#2db0dd" d="M97 34h1v1h-1zM97 63h1v1h-1z" /><path fill="#a241e0" d="M2 35h1v1h-1z" /><path fill="#9853e9" d="M12 35h1v1h-1z" /><path fill="#f6f1fd" d="M13 35h1v1h-1z" /><path fill="#f1f8fd" d="M86 35h1v1h-1zM81 71h1v1h-1z" /><path fill="#42a7e6" d="M87 35h1v1h-1z" /><path fill="#2db1dd" d="M97 35h1v1h-1zM97 64h1v1h-1zM97 65h1v1h-1z" /><path fill="#a341e1" d="M2 36h1v1h-1zM2 37h1v1h-1zM2 38h1v1h-1zM2 39h1v1h-1zM2 40h1v1h-1zM2 41h1v1h-1zM2 42h1v1h-1zM2 43h1v1h-1zM2 44h1v1h-1zM2 45h1v1h-1zM2 46h1v1h-1zM2 47h1v1h-1zM2 48h1v1h-1zM2 49h1v1h-1zM2 50h1v1h-1zM2 51h1v1h-1zM2 52h1v1h-1zM2 53h1v1h-1zM2 54h1v1h-1zM2 55h1v1h-1zM2 56h1v1h-1zM2 57h1v1h-1zM2 58h1v1h-1zM2 59h1v1h-1zM2 60h1v1h-1zM2 61h1v1h-1zM2 62h1v1h-1zM2 63h1v1h-1z" /><path fill="#c9a5f3" d="M12 36h1v1h-1z" /><path fill="#9bd0f2" d="M87 36h1v1h-1z" /><path fill="#2db1de" d="M97 36h1v1h-1zM97 37h1v1h-1zM97 38h1v1h-1zM97 39h1v1h-1zM97 40h1v1h-1zM97 41h1v1h-1zM97 42h1v1h-1zM97 43h1v1h-1zM97 44h1v1h-1zM97 45h1v1h-1zM97 46h1v1h-1zM97 47h1v1h-1zM97 48h1v1h-1zM97 49h1v1h-1zM97 50h1v1h-1zM97 51h1v1h-1zM97 52h1v1h-1zM97 53h1v1h-1zM97 54h1v1h-1zM97 55h1v1h-1zM97 56h1v1h-1zM97 57h1v1h-1zM97 58h1v1h-1zM97 59h1v1h-1zM97 60h1v1h-1zM97 61h1v1h-1zM97 62h1v1h-1z" /><path fill="#964ce8" d="M11 37h1v1h-1z" /><path fill="#f5eefd" d="M12 37h1v1h-1zM10 56h1v1h-1zM12 62h1v1h-1zM13 64h1v1h-1z" /><path fill="#eef7fd" d="M87 37h1v1h-1zM86 64h1v1h-1z" /><path fill="#39a5e5" d="M88 37h1v1h-1z" /><path fill="#a540e0" d="M1 38h1v1h-1zM1 61h1v1h-1z" /><path fill="#bb8bf0" d="M11 38h1v1h-1z" /><path fill="#7cc3ee" d="M88 38h1v1h-1z" /><path fill="#2cb3de" d="M98 38h1v1h-1zM98 40h1v1h-1zM98 41h1v1h-1zM98 42h1v1h-1zM98 43h1v1h-1zM98 44h1v1h-1zM98 45h1v1h-1zM98 46h1v1h-1zM98 47h1v1h-1zM98 48h1v1h-1zM98 49h1v1h-1zM98 50h1v1h-1zM98 51h1v1h-1zM98 52h1v1h-1zM98 53h1v1h-1zM98 54h1v1h-1zM98 55h1v1h-1zM98 56h1v1h-1zM98 57h1v1h-1zM98 58h1v1h-1zM98 59h1v1h-1zM98 61h1v1h-1z" /><path fill="#a53fe1" d="M1 39h1v1h-1zM1 60h1v1h-1z" /><path fill="#e7d6fa" d="M11 39h1v1h-1z" /><path fill="#cfe9f9" d="M88 39h1v1h-1z" /><path fill="#2bb3dd" d="M98 39h1v1h-1zM99 49h1v1h-1zM99 50h1v1h-1zM98 60h1v1h-1z" /><path fill="#a540e1" d="M1 40h1v1h-1zM1 41h1v1h-1zM1 42h1v1h-1zM1 43h1v1h-1zM1 44h1v1h-1zM1 45h1v1h-1zM1 46h1v1h-1zM1 47h1v1h-1zM1 48h1v1h-1zM1 49h1v1h-1zM1 50h1v1h-1zM1 51h1v1h-1zM1 52h1v1h-1zM1 53h1v1h-1zM1 54h1v1h-1zM1 55h1v1h-1zM1 56h1v1h-1zM1 57h1v1h-1zM1 58h1v1h-1zM1 59h1v1h-1z" /><path fill="#9f58e8" d="M10 40h1v1h-1z" /><path fill="#fffeff" d="M11 40h1v1h-1z" /><path fill="#fdfeff" d="M88 40h1v1h-1zM88 59h1v1h-1z" /><path fill="#46ade6" d="M89 40h1v1h-1z" /><path fill="#bf8ff0" d="M10 41h1v1h-1z" /><path fill="#ededed" d="M29 41h1v1h-1zM74 43h1v1h-1zM33 63h1v1h-1z" /><path fill="#a9a9a9" d="M30 41h1v1h-1z" /><path fill="#838383" d="M31 41h1v1h-1z" /><path fill="#828282" d="M32 41h1v1h-1z" /><path fill="#a6a6a6" d="M33 41h1v1h-1zM37 44h1v1h-1z" /><path fill="#eaeaea" d="M34 41h1v1h-1z" /><path fill="#c7c7c7" d="M68 41h1v1h-1z" /><path fill="#6d6d6d" d="M69 41h1v1h-1z" /><path fill="#565656" d="M70 41h1v1h-1z" /><path fill="#747474" d="M71 41h1v1h-1z" /><path fill="#d2d2d2" d="M72 41h1v1h-1zM25 47h1v1h-1z" /><path fill="#81c7ee" d="M89 41h1v1h-1z" /><path fill="#ddc4f7" d="M10 42h1v1h-1zM10 57h1v1h-1z" /><path fill="#fefefe" d="M27 42h1v1h-1zM37 43h1v1h-1zM74 55h1v1h-1z" /><path fill="#959595" d="M28 42h1v1h-1z" /><path fill="#282828" d="M29 42h1v1h-1z" /><path fill="#1e1e1e" d="M30 42h4v1h-4zM69 42h3v1h-3zM28 43h8v1h-8zM67 43h6v1h-6zM27 44h10v1h-10zM66 44h8v1h-8zM27 45h10v1h-10zM65 45h9v1h-9zM26 46h12v1h-12zM64 46h10v1h-10zM26 47h12v1h-12zM63 47h10v1h-10zM26 48h12v1h-12zM62 48h10v1h-10zM26 49h12v1h-12zM61 49h10v1h-10zM26 50h12v1h-12zM60 50h10v1h-10zM26 51h12v1h-12zM59 51h10v1h-10zM26 52h12v1h-12zM59 52h9v1h-9zM26 53h12v1h-12zM59 53h10v1h-10zM26 54h12v1h-12zM59 54h11v1h-11zM26 55h12v1h-12zM59 55h13v1h-13zM26 56h12v1h-12zM60 56h14v1h-14zM26 57h12v1h-12zM62 57h13v1h-13zM27 58h10v1h-10zM64 58h12v1h-12zM27 59h10v1h-10zM65 59h11v1h-11zM28 60h8v1h-8zM67 60h9v1h-9zM29 61h6v1h-6zM69 61h7v1h-7zM31 62h2v1h-2zM71 62h4v1h-4z" /><path fill="#252525" d="M34 42h1v1h-1zM70 54h1v1h-1zM63 58h1v1h-1zM28 61h1v1h-1z" /><path fill="#8b8b8b" d="M35 42h1v1h-1zM76 58h1v1h-1z" /><path fill="#fcfcfc" d="M36 42h1v1h-1zM58 56h1v1h-1zM66 61h1v1h-1z" /><path fill="#939393" d="M67 42h1v1h-1z" /><path fill="#1f1f1f" d="M68 42h1v1h-1z" /><path fill="#222222" d="M72 42h1v1h-1zM36 60h1v1h-1zM35 61h1v1h-1zM70 62h1v1h-1z" /><path fill="#b0b0b0" d="M73 42h1v1h-1zM74 44h1v1h-1z" /><path fill="#bde1f6" d="M89 42h1v1h-1z" /><path fill="#a73fdf" d="M0 43h1v1h-1z" /><path fill="#f6effd" d="M10 43h1v1h-1z" /><path fill="#797979" d="M27 43h1v1h-1zM71 63h1v1h-1z" /><path fill="#6b6b6b" d="M36 43h1v1h-1z" /><path fill="#909090" d="M66 43h1v1h-1zM65 44h1v1h-1zM64 45h1v1h-1zM63 46h1v1h-1zM62 47h1v1h-1zM61 48h1v1h-1z" /><path fill="#292929" d="M73 43h1v1h-1z" /><path fill="#ebf6fc" d="M89 43h1v1h-1zM87 62h1v1h-1z" /><path fill="#2bb4dc" d="M99 43h1v1h-1z" /><path fill="#a73ee0" d="M0 44h1v1h-1zM0 47h1v1h-1zM0 52h1v1h-1zM0 55h1v1h-1z" /><path fill="#a054e7" d="M9 44h1v1h-1z" /><path fill="#b3b3b3" d="M26 44h1v1h-1z" /><path fill="#43ace4" d="M90 44h1v1h-1z" /><path fill="#2ab3dd" d="M99 44h1v1h-1zM99 45h1v1h-1zM99 54h1v1h-1zM99 55h1v1h-1z" /><path fill="#a63ee0" d="M0 45h1v1h-1zM0 54h1v1h-1z" /><path fill="#b276ec" d="M9 45h1v1h-1z" /><path fill="#484848" d="M26 45h1v1h-1z" /><path fill="#3c3c3c" d="M37 45h1v1h-1z" /><path fill="#a3a3a3" d="M74 45h1v1h-1zM67 61h1v1h-1z" /><path fill="#65bce9" d="M90 45h1v1h-1z" /><path fill="#a63edf" d="M0 46h1v1h-1zM0 53h1v1h-1z" /><path fill="#c292f0" d="M9 46h1v1h-1zM9 53h1v1h-1z" /><path fill="#ebebeb" d="M25 46h1v1h-1z" /><path fill="#dedede" d="M38 46h1v1h-1zM75 56h1v1h-1z" /><path fill="#d0d0d0" d="M74 46h1v1h-1zM35 62h1v1h-1z" /><path fill="#86caee" d="M90 46h1v1h-1z" /><path fill="#2ab4dc" d="M99 46h1v1h-1zM99 47h1v1h-1zM99 52h1v1h-1zM99 53h1v1h-1zM99 56h1v1h-1z" /><path fill="#c99ff2" d="M9 47h1v1h-1zM9 52h1v1h-1z" /><path fill="#c5c5c5" d="M38 47h1v1h-1z" /><path fill="#646464" d="M73 47h1v1h-1z" /><path fill="#94d0f0" d="M90 47h1v1h-1z" /><path fill="#a63fdf" d="M0 48h1v1h-1zM0 51h1v1h-1zM0 56h1v1h-1z" /><path fill="#cfaaf3" d="M9 48h1v1h-1zM9 51h1v1h-1z" /><path fill="#cecece" d="M25 48h1v1h-1zM25 49h1v1h-1zM25 50h1v1h-1zM25 51h1v1h-1zM25 52h1v1h-1zM25 53h1v1h-1zM25 54h1v1h-1zM25 55h1v1h-1zM25 56h1v1h-1z" /><path fill="#bfbfbf" d="M38 48h1v1h-1zM38 49h1v1h-1zM38 50h1v1h-1zM38 51h1v1h-1zM38 52h1v1h-1zM38 53h1v1h-1zM38 54h1v1h-1zM38 55h1v1h-1zM38 56h1v1h-1z" /><path fill="#525252" d="M72 48h1v1h-1zM70 50h1v1h-1zM69 51h1v1h-1z" /><path fill="#f4f4f4" d="M73 48h1v1h-1zM72 49h1v1h-1zM71 50h1v1h-1zM70 51h1v1h-1zM69 52h1v1h-1zM72 54h1v1h-1zM25 58h1v1h-1zM61 58h1v1h-1z" /><path fill="#a0d5f2" d="M90 48h1v1h-1z" /><path fill="#2bb4dd" d="M99 48h1v1h-1zM99 51h1v1h-1z" /><path fill="#a63fe0" d="M0 49h1v1h-1zM0 50h1v1h-1z" /><path fill="#d5b5f5" d="M9 49h1v1h-1z" /><path fill="#969696" d="M60 49h1v1h-1z" /><path fill="#515151" d="M71 49h1v1h-1z" /><path fill="#acdbf3" d="M90 49h1v1h-1z" /><path fill="#d5b4f4" d="M9 50h1v1h-1z" /><path fill="#929292" d="M59 50h1v1h-1z" /><path fill="#abdaf3" d="M90 50h1v1h-1z" /><path fill="#b9b9b9" d="M58 51h1v1h-1z" /><path fill="#9fd5f1" d="M90 51h1v1h-1z" /><path fill="#545454" d="M58 52h1v1h-1z" /><path fill="#434343" d="M68 52h1v1h-1z" /><path fill="#92cff0" d="M90 52h1v1h-1z" /><path fill="#303030" d="M58 53h1v1h-1zM68 61h1v1h-1z" /><path fill="#676767" d="M69 53h1v1h-1zM64 59h1v1h-1z" /><path fill="#e2e2e2" d="M70 53h1v1h-1zM63 59h1v1h-1z" /><path fill="#85c9ee" d="M90 53h1v1h-1z" /><path fill="#b275ec" d="M9 54h1v1h-1z" /><path fill="#454545" d="M58 54h1v1h-1z" /><path fill="#8a8a8a" d="M71 54h1v1h-1zM62 58h1v1h-1z" /><path fill="#65bbe9" d="M90 54h1v1h-1z" /><path fill="#9f54e7" d="M9 55h1v1h-1z" /><path fill="#9a9a9a" d="M58 55h1v1h-1z" /><path fill="#353535" d="M72 55h1v1h-1zM61 57h1v1h-1z" /><path fill="#adadad" d="M73 55h1v1h-1z" /><path fill="#41ace4" d="M90 55h1v1h-1z" /><path fill="#6c6c6c" d="M59 56h1v1h-1z" /><path fill="#505050" d="M74 56h1v1h-1z" /><path fill="#eaf6fc" d="M89 56h1v1h-1z" /><path fill="#d8d8d8" d="M25 57h1v1h-1z" /><path fill="#cbcbcb" d="M38 57h1v1h-1zM32 63h1v1h-1z" /><path fill="#afafaf" d="M60 57h1v1h-1z" /><path fill="#343434" d="M75 57h1v1h-1z" /><path fill="#ececec" d="M76 57h1v1h-1zM38 58h1v1h-1z" /><path fill="#bce1f6" d="M89 57h1v1h-1z" /><path fill="#be8df0" d="M10 58h1v1h-1z" /><path fill="#242424" d="M26 58h1v1h-1z" /><path fill="#202020" d="M37 58h1v1h-1zM33 62h1v1h-1z" /><path fill="#7ec6ed" d="M89 58h1v1h-1z" /><path fill="#9e56e8" d="M10 59h1v1h-1z" /><path fill="#656565" d="M26 59h1v1h-1zM76 60h1v1h-1z" /><path fill="#585858" d="M37 59h1v1h-1z" /><path fill="#5b5b5b" d="M76 59h1v1h-1z" /><path fill="#45ace5" d="M89 59h1v1h-1z" /><path fill="#e6d4f9" d="M11 60h1v1h-1z" /><path fill="#d9d9d9" d="M26 60h1v1h-1z" /><path fill="#262626" d="M27 60h1v1h-1z" /><path fill="#cfcfcf" d="M37 60h1v1h-1z" /><path fill="#c6c6c6" d="M65 60h1v1h-1z" /><path fill="#474747" d="M66 60h1v1h-1z" /><path fill="#cde8f8" d="M88 60h1v1h-1z" /><path fill="#ba89f0" d="M11 61h1v1h-1z" /><path fill="#b8b8b8" d="M27 61h1v1h-1z" /><path fill="#acacac" d="M36 61h1v1h-1z" /><path fill="#aaaaaa" d="M76 61h1v1h-1z" /><path fill="#79c2ed" d="M88 61h1v1h-1z" /><path fill="#964be8" d="M11 62h1v1h-1z" /><path fill="#d6d6d6" d="M28 62h1v1h-1z" /><path fill="#5f5f5f" d="M29 62h1v1h-1z" /><path fill="#212121" d="M30 62h1v1h-1z" /><path fill="#595959" d="M34 62h1v1h-1zM73 63h1v1h-1z" /><path fill="#f1f1f1" d="M68 62h1v1h-1z" /><path fill="#818181" d="M69 62h1v1h-1z" /><path fill="#636363" d="M75 62h1v1h-1z" /><path fill="#fdfdfd" d="M76 62h1v1h-1z" /><path fill="#38a4e5" d="M88 62h1v1h-1z" /><path fill="#c8a3f3" d="M12 63h1v1h-1z" /><path fill="#f0f0f0" d="M30 63h1v1h-1z" /><path fill="#cccccc" d="M31 63h1v1h-1z" /><path fill="#dddddd" d="M70 63h1v1h-1z" /><path fill="#4d4d4d" d="M72 63h1v1h-1z" /><path fill="#a4a4a4" d="M74 63h1v1h-1z" /><path fill="#fbfbfb" d="M75 63h1v1h-1z" /><path fill="#99cff1" d="M87 63h1v1h-1z" /><path fill="#a240e1" d="M2 64h1v1h-1z" /><path fill="#9750e8" d="M12 64h1v1h-1z" /><path fill="#40a6e6" d="M87 64h1v1h-1z" /><path fill="#a340e0" d="M2 65h1v1h-1z" /><path fill="#be95f2" d="M13 65h1v1h-1z" /><path fill="#87c6f0" d="M86 65h1v1h-1z" /><path fill="#ede2fb" d="M14 66h1v1h-1z" /><path fill="#deeffb" d="M85 66h1v1h-1z" /><path fill="#38a1e5" d="M86 66h1v1h-1z" /><path fill="#a140e1" d="M3 67h1v1h-1z" /><path fill="#a56ded" d="M14 67h1v1h-1z" /><path fill="#fdfbff" d="M15 67h1v1h-1z" /><path fill="#61b2eb" d="M85 67h1v1h-1z" /><path fill="#2eafde" d="M96 67h1v1h-1z" /><path fill="#c5a4f4" d="M15 68h1v1h-1z" /><path fill="#98ccf2" d="M84 68h1v1h-1z" /><path fill="#e4d6fa" d="M16 69h1v1h-1z" /><path fill="#d0e7f9" d="M83 69h1v1h-1z" /><path fill="#389de6" d="M84 69h1v1h-1z" /><path fill="#2daddf" d="M95 69h1v1h-1z" /><path fill="#9358eb" d="M16 70h1v1h-1z" /><path fill="#eee6fc" d="M17 70h1v1h-1z" /><path fill="#e5f2fc" d="M82 70h1v1h-1z" /><path fill="#9b67ed" d="M17 71h1v1h-1z" /><path fill="#56a8eb" d="M82 71h1v1h-1z" /><path fill="#2fabe0" d="M94 71h1v1h-1z" /><path fill="#9d43e3" d="M5 72h1v1h-1z" /><path fill="#a275ef" d="M18 72h1v1h-1z" /><path fill="#f9f6fe" d="M19 72h1v1h-1z" /><path fill="#66afed" d="M81 72h1v1h-1z" /><path fill="#9c43e3" d="M6 73h1v1h-1z" /><path fill="#9d70ef" d="M19 73h1v1h-1z" /><path fill="#64aced" d="M80 73h1v1h-1z" /><path fill="#2faae1" d="M93 73h1v1h-1zM93 74h1v1h-1z" /><path fill="#9b43e4" d="M6 74h1v1h-1z" /><path fill="#9a6eef" d="M20 74h1v1h-1z" /><path fill="#edf5fd" d="M78 74h1v1h-1z" /><path fill="#5ea7ed" d="M79 74h1v1h-1z" /><path fill="#e3d8fb" d="M22 75h1v1h-1z" /><path fill="#d9e9fb" d="M77 75h1v1h-1z" /><path fill="#c7b3f7" d="M23 76h1v1h-1z" /><path fill="#b8d6f7" d="M76 76h1v1h-1z" /><path fill="#4294eb" d="M77 76h1v1h-1z" /><path fill="#a98cf4" d="M24 77h1v1h-1z" /><path fill="#f3f0fe" d="M25 77h1v1h-1z" /><path fill="#eef5fd" d="M74 77h1v1h-1z" /><path fill="#7eb3f2" d="M75 77h1v1h-1z" /><path fill="#825cef" d="M25 78h1v1h-1z" /><path fill="#c9b9f9" d="M26 78h1v1h-1z" /><path fill="#4d94ed" d="M74 78h1v1h-1z" /><path fill="#997df4" d="M27 79h1v1h-1z" /><path fill="#e1dafc" d="M28 79h1v1h-1z" /><path fill="#d5e4fb" d="M71 79h1v1h-1z" /><path fill="#6fa6f2" d="M72 79h1v1h-1z" /><path fill="#9545e6" d="M10 80h1v1h-1z" /><path fill="#9e88f5" d="M29 80h1v1h-1z" /><path fill="#e6e1fd" d="M30 80h1v1h-1z" /><path fill="#dde9fc" d="M69 80h1v1h-1z" /><path fill="#7aaaf3" d="M70 80h1v1h-1z" /><path fill="#9247e6" d="M11 81h1v1h-1z" /><path fill="#917cf5" d="M31 81h1v1h-1z" /><path fill="#7ba7f4" d="M68 81h1v1h-1z" /><path fill="#4283ee" d="M69 81h1v1h-1z" /><path fill="#32a1e3" d="M88 81h1v1h-1z" /><path fill="#9146e7" d="M12 82h1v1h-1z" /><path fill="#7c69f4" d="M33 82h1v1h-1z" /><path fill="#b3a9f9" d="M34 82h1v1h-1z" /><path fill="#e2dffd" d="M35 82h1v1h-1z" /><path fill="#dbe5fc" d="M64 82h1v1h-1z" /><path fill="#9fbcf8" d="M65 82h1v1h-1z" /><path fill="#598df2" d="M66 82h1v1h-1z" /><path fill="#349fe4" d="M87 82h1v1h-1z" /><path fill="#8f48e7" d="M13 83h1v1h-1z" /><path fill="#786cf6" d="M36 83h1v1h-1z" /><path fill="#a8a1f9" d="M37 83h1v1h-1z" /><path fill="#d0cefc" d="M38 83h1v1h-1z" /><path fill="#f3f2fe" d="M39 83h1v1h-1z" /><path fill="#f1f4fe" d="M60 83h1v1h-1z" /><path fill="#c7d6fb" d="M61 83h1v1h-1z" /><path fill="#97b2f8" d="M62 83h1v1h-1z" /><path fill="#5c89f4" d="M63 83h1v1h-1z" /><path fill="#359ee5" d="M86 83h1v1h-1z" /><path fill="#7673f8" d="M40 84h1v1h-1z" /><path fill="#9998fa" d="M41 84h1v1h-1z" /><path fill="#b2b3fc" d="M42 84h1v1h-1z" /><path fill="#c7c8fd" d="M43 84h1v1h-1z" /><path fill="#dddefe" d="M44 84h1v1h-1z" /><path fill="#f2f3ff" d="M45 84h1v1h-1z" /><path fill="#f2f4fe" d="M54 84h1v1h-1z" /><path fill="#dae1fd" d="M55 84h1v1h-1z" /><path fill="#c2cefc" d="M56 84h1v1h-1z" /><path fill="#abbcfa" d="M57 84h1v1h-1z" /><path fill="#8da6f9" d="M58 84h1v1h-1z" /><path fill="#6387f6" d="M59 84h1v1h-1z" /><path fill="#8c49e8" d="M15 85h1v1h-1z" /><path fill="#5a67fb" d="M47 85h1v1h-1z" /><path fill="#5f6efb" d="M48 85h1v1h-1z" /><path fill="#5d72fa" d="M51 85h1v1h-1z" /><path fill="#576ff8" d="M52 85h1v1h-1z" /><path fill="#369ce5" d="M84 85h1v1h-1z" /><path fill="#8949e8" d="M16 86h1v1h-1z" /><path fill="#379ae5" d="M83 86h1v1h-1z" /><path fill="#884be9" d="M17 87h1v1h-1z" /><path fill="#3898e6" d="M82 87h1v1h-1z" /><path fill="#854bea" d="M18 88h1v1h-1z" /><path fill="#3797e7" d="M81 88h1v1h-1z" /><path fill="#834ceb" d="M20 89h1v1h-1z" /><path fill="#814deb" d="M21 90h1v1h-1z" /><path fill="#7e4ded" d="M22 91h1v1h-1z" /><path fill="#3b8fea" d="M77 91h1v1h-1z" /><path fill="#3d8dea" d="M75 92h1v1h-1z" /><path fill="#7850ee" d="M25 93h1v1h-1z" /><path fill="#3e88eb" d="M73 93h1v1h-1z" /><path fill="#3d8aec" d="M74 93h1v1h-1z" /><path fill="#3f86ec" d="M71 94h1v1h-1z" /><path fill="#7252f1" d="M29 95h1v1h-1z" /><path fill="#6c55f2" d="M32 96h1v1h-1z" /><path fill="#4280ef" d="M67 96h1v1h-1z" /><path fill="#6955f3" d="M34 97h1v1h-1z" /><path fill="#5f58f5" d="M39 98h1v1h-1z" /><path fill="#585cf9" d="M43 99h1v1h-1z" /><path fill="#565cf9" d="M44 99h1v1h-1z" /><path fill="#555ef9" d="M45 99h1v1h-1z" /><path fill="#4f5ffa" d="M48 99h1v1h-1z" /><path fill="#4d65f8" d="M51 99h1v1h-1z" /><path fill="#4d69f7" d="M53 99h1v1h-1z" /><path fill="#4b69f7" d="M54 99h1v1h-1z" /><path fill="#4b6bf7" d="M55 99h1v1h-1z" /><path fill="#4a6cf5" d="M56 99h1v1h-1z" /></svg>