<svg xmlns="http://www.w3.org/2000/svg" viewBox="0 0 100 100" width="1em" height="1em"><path fill="#3e39dd" d="M20 17h1v1h-1zM18 56h2v1h-2z" /><path fill="#3e38dd" d="M21 17h1v1h-1z" /><path fill="#4039de" d="M22 17h2v1h-2zM22 18h2v1h-2zM22 19h2v1h-2zM22 20h2v1h-2zM22 21h2v1h-2zM22 22h2v1h-2zM22 23h2v1h-2zM22 24h2v1h-2zM22 25h2v1h-2zM22 26h2v1h-2zM22 27h2v1h-2zM22 28h2v1h-2zM22 29h2v1h-2zM22 30h2v1h-2zM22 31h1v1h-1zM22 32h1v1h-1zM22 33h1v1h-1zM22 34h1v1h-1zM22 35h1v1h-1zM22 36h1v1h-1zM22 37h1v1h-1zM22 38h1v1h-1zM82 38h1v1h-1zM22 39h1v1h-1zM82 39h1v1h-1zM22 40h1v1h-1zM82 40h1v1h-1zM22 41h1v1h-1zM82 41h1v1h-1zM22 42h1v1h-1zM82 42h1v1h-1zM22 43h1v1h-1zM82 43h1v1h-1zM22 44h1v1h-1zM82 44h1v1h-1zM21 45h2v1h-2zM82 45h1v1h-1zM21 46h2v1h-2zM82 46h1v1h-1zM21 47h2v1h-2zM82 47h1v1h-1zM21 48h2v1h-2zM82 48h1v1h-1zM21 49h2v1h-2zM82 49h1v1h-1zM21 50h2v1h-2zM82 50h1v1h-1zM21 51h2v1h-2zM82 51h1v1h-1zM21 52h2v1h-2zM82 52h1v1h-1zM21 53h2v1h-2zM82 53h1v1h-1zM21 54h2v1h-2zM82 54h1v1h-1zM21 55h2v1h-2zM82 55h1v1h-1z" /><path fill="#4139de" d="M24 17h1v1h-1zM26 17h1v1h-1zM24 18h1v1h-1zM24 19h1v1h-1zM24 20h1v1h-1zM24 21h1v1h-1zM24 22h1v1h-1zM24 23h1v1h-1zM24 24h1v1h-1zM24 25h1v1h-1zM24 26h1v1h-1zM24 27h1v1h-1zM24 28h1v1h-1zM24 29h1v1h-1zM24 30h1v1h-1zM23 31h2v1h-2zM83 31h1v1h-1zM23 32h2v1h-2zM83 32h1v1h-1zM23 33h2v1h-2zM83 33h1v1h-1zM23 34h2v1h-2zM83 34h1v1h-1zM23 35h2v1h-2zM83 35h1v1h-1zM23 36h2v1h-2zM83 36h1v1h-1zM23 37h2v1h-2zM83 37h1v1h-1zM23 38h2v1h-2zM83 38h1v1h-1zM23 39h2v1h-2zM83 39h1v1h-1zM23 40h2v1h-2zM83 40h1v1h-1zM23 41h2v1h-2zM83 41h1v1h-1zM23 42h2v1h-2zM83 42h1v1h-1zM23 43h2v1h-2zM83 43h1v1h-1zM23 44h2v1h-2zM83 44h1v1h-1zM23 45h2v1h-2zM83 45h1v1h-1zM23 46h2v1h-2zM83 46h1v1h-1zM23 47h2v1h-2zM83 47h1v1h-1zM23 48h2v1h-2zM83 48h1v1h-1zM23 49h2v1h-2zM83 49h1v1h-1zM23 50h2v1h-2zM83 50h1v1h-1zM23 51h1v1h-1zM83 51h1v1h-1zM23 52h1v1h-1zM83 52h1v1h-1zM23 53h1v1h-1zM23 54h1v1h-1zM23 55h1v1h-1z" /><path fill="#4239de" d="M25 17h1v1h-1zM25 18h2v1h-2zM25 19h2v1h-2zM25 20h2v1h-2zM25 21h2v1h-2zM25 22h2v1h-2zM25 23h2v1h-2zM25 24h2v1h-2zM25 25h2v1h-2zM25 26h2v1h-2zM25 27h2v1h-2zM25 28h2v1h-2zM25 29h2v1h-2zM25 30h2v1h-2zM25 31h2v1h-2zM84 31h1v1h-1zM25 32h2v1h-2zM84 32h1v1h-1zM25 33h2v1h-2zM84 33h1v1h-1zM25 34h2v1h-2zM84 34h1v1h-1zM25 35h2v1h-2zM84 35h1v1h-1zM25 36h2v1h-2zM84 36h1v1h-1zM25 37h1v1h-1zM84 37h1v1h-1zM25 38h1v1h-1zM25 39h1v1h-1zM25 40h1v1h-1zM25 41h1v1h-1zM25 42h1v1h-1zM25 43h1v1h-1zM25 44h1v1h-1zM25 45h1v1h-1zM25 46h1v1h-1zM25 47h1v1h-1zM25 48h1v1h-1zM25 49h1v1h-1zM25 50h1v1h-1zM24 51h2v1h-2zM24 52h2v1h-2zM24 53h2v1h-2zM83 53h1v1h-1zM24 54h2v1h-2zM83 54h1v1h-1zM24 55h2v1h-2zM83 55h1v1h-1z" /><path fill="#4338de" d="M27 17h1v1h-1z" /><path fill="#3c39dd" d="M18 18h1v1h-1zM16 20h1v1h-1zM16 21h1v1h-1zM16 22h1v1h-1zM16 23h1v1h-1zM16 24h1v1h-1zM16 25h1v1h-1zM16 26h1v1h-1zM15 34h1v1h-1zM15 35h1v1h-1zM15 36h1v1h-1zM15 37h1v1h-1zM15 38h1v1h-1zM15 39h1v1h-1zM15 40h1v1h-1zM15 41h1v1h-1zM15 42h1v1h-1zM15 43h1v1h-1zM15 44h1v1h-1zM15 45h1v1h-1zM15 46h1v1h-1zM15 47h1v1h-1zM15 48h1v1h-1zM15 49h1v1h-1zM15 50h1v1h-1zM15 51h1v1h-1zM15 52h1v1h-1zM79 52h1v1h-1zM15 53h1v1h-1zM79 53h1v1h-1zM15 54h1v1h-1zM79 54h1v1h-1zM15 55h1v1h-1zM79 55h1v1h-1zM15 56h1v1h-1z" /><path fill="#3e39de" d="M19 18h2v1h-2zM19 19h2v1h-2zM19 20h2v1h-2zM19 21h2v1h-2zM19 22h2v1h-2zM19 23h2v1h-2zM19 24h2v1h-2zM19 25h2v1h-2zM19 26h1v1h-1zM19 27h1v1h-1zM19 28h1v1h-1zM19 29h1v1h-1zM19 30h1v1h-1zM19 31h1v1h-1zM81 31h1v1h-1zM19 32h1v1h-1zM81 32h1v1h-1zM19 33h1v1h-1zM81 33h1v1h-1zM19 34h1v1h-1zM81 34h1v1h-1zM19 35h1v1h-1zM81 35h1v1h-1zM19 36h1v1h-1zM81 36h1v1h-1zM19 37h1v1h-1zM81 37h1v1h-1zM19 38h1v1h-1zM81 38h1v1h-1zM18 39h2v1h-2zM81 39h1v1h-1zM18 40h2v1h-2zM81 40h1v1h-1zM18 41h2v1h-2zM81 41h1v1h-1zM18 42h2v1h-2zM81 42h1v1h-1zM18 43h2v1h-2zM81 43h1v1h-1zM18 44h2v1h-2zM81 44h1v1h-1zM18 45h2v1h-2zM81 45h1v1h-1zM18 46h2v1h-2zM81 46h1v1h-1zM18 47h2v1h-2zM81 47h1v1h-1zM18 48h2v1h-2zM81 48h1v1h-1zM18 49h2v1h-2zM81 49h1v1h-1zM18 50h2v1h-2zM81 50h1v1h-1zM18 51h2v1h-2zM81 51h1v1h-1zM18 52h2v1h-2zM81 52h1v1h-1zM18 53h2v1h-2zM18 54h2v1h-2zM18 55h2v1h-2z" /><path fill="#3f39de" d="M21 18h1v1h-1zM21 19h1v1h-1zM21 20h1v1h-1zM21 21h1v1h-1zM21 22h1v1h-1zM21 23h1v1h-1zM21 24h1v1h-1zM21 25h1v1h-1zM20 26h2v1h-2zM20 27h2v1h-2zM20 28h2v1h-2zM20 29h2v1h-2zM20 30h2v1h-2zM20 31h2v1h-2zM82 31h1v1h-1zM20 32h2v1h-2zM82 32h1v1h-1zM20 33h2v1h-2zM82 33h1v1h-1zM20 34h2v1h-2zM82 34h1v1h-1zM20 35h2v1h-2zM82 35h1v1h-1zM20 36h2v1h-2zM82 36h1v1h-1zM20 37h2v1h-2zM82 37h1v1h-1zM20 38h2v1h-2zM20 39h2v1h-2zM20 40h2v1h-2zM20 41h2v1h-2zM20 42h2v1h-2zM20 43h2v1h-2zM20 44h2v1h-2zM20 45h1v1h-1zM20 46h1v1h-1zM20 47h1v1h-1zM20 48h1v1h-1zM20 49h1v1h-1zM20 50h1v1h-1zM20 51h1v1h-1zM20 52h1v1h-1zM20 53h1v1h-1zM81 53h1v1h-1zM20 54h1v1h-1zM81 54h1v1h-1zM20 55h1v1h-1zM81 55h1v1h-1z" /><path fill="#4339df" d="M27 18h1v1h-1zM27 19h2v1h-2zM27 20h2v1h-2zM27 21h2v1h-2zM27 22h2v1h-2zM27 23h1v1h-1zM27 24h1v1h-1zM27 25h1v1h-1zM27 26h1v1h-1zM27 27h1v1h-1zM27 28h1v1h-1zM27 29h1v1h-1zM27 30h1v1h-1zM27 31h1v1h-1zM27 32h1v1h-1zM27 33h1v1h-1zM27 34h1v1h-1zM27 35h1v1h-1zM27 36h1v1h-1zM27 37h1v1h-1zM27 38h1v1h-1zM27 39h1v1h-1zM27 40h1v1h-1zM27 41h1v1h-1zM27 42h1v1h-1zM27 43h1v1h-1zM84 43h1v1h-1zM27 44h1v1h-1zM84 44h1v1h-1zM27 45h1v1h-1zM84 45h1v1h-1zM26 46h2v1h-2zM84 46h1v1h-1zM26 47h2v1h-2zM84 47h1v1h-1zM26 48h2v1h-2zM84 48h1v1h-1zM26 49h2v1h-2zM84 49h1v1h-1zM26 50h2v1h-2zM84 50h1v1h-1zM26 51h2v1h-2zM84 51h1v1h-1zM26 52h2v1h-2zM84 52h1v1h-1zM26 53h2v1h-2zM84 53h1v1h-1zM26 54h2v1h-2zM84 54h1v1h-1zM26 55h2v1h-2zM84 55h1v1h-1zM26 56h2v1h-2z" /><path fill="#4338df" d="M28 18h1v1h-1z" /><path fill="#3b38dd" d="M17 19h1v1h-1z" /><path fill="#3d39de" d="M18 19h1v1h-1zM17 20h2v1h-2zM17 21h2v1h-2zM17 22h2v1h-2zM17 23h2v1h-2zM17 24h2v1h-2zM17 25h2v1h-2zM17 26h2v1h-2zM17 27h2v1h-2zM17 28h2v1h-2zM17 29h2v1h-2zM17 30h2v1h-2zM17 31h2v1h-2zM17 32h2v1h-2zM17 33h2v1h-2zM17 34h2v1h-2zM17 35h2v1h-2zM17 36h2v1h-2zM17 37h2v1h-2zM17 38h2v1h-2zM80 38h1v1h-1zM17 39h1v1h-1zM80 39h1v1h-1zM17 40h1v1h-1zM80 40h1v1h-1zM17 41h1v1h-1zM80 41h1v1h-1zM17 42h1v1h-1zM80 42h1v1h-1zM17 43h1v1h-1zM80 43h1v1h-1zM17 44h1v1h-1zM80 44h1v1h-1zM17 45h1v1h-1zM80 45h1v1h-1zM17 46h1v1h-1zM80 46h1v1h-1zM17 47h1v1h-1zM80 47h1v1h-1zM17 48h1v1h-1zM80 48h1v1h-1zM17 49h1v1h-1zM80 49h1v1h-1zM17 50h1v1h-1zM80 50h1v1h-1zM17 51h1v1h-1zM80 51h1v1h-1zM17 52h1v1h-1zM80 52h1v1h-1zM16 53h2v1h-2zM80 53h1v1h-1zM16 54h2v1h-2zM80 54h1v1h-1zM16 55h2v1h-2zM80 55h1v1h-1zM16 56h2v1h-2z" /><path fill="#4439df" d="M29 19h1v1h-1zM29 20h1v1h-1zM31 20h1v1h-1zM29 21h1v1h-1zM29 22h1v1h-1zM28 23h2v1h-2zM28 24h2v1h-2zM28 25h2v1h-2zM28 26h2v1h-2zM28 27h2v1h-2zM28 28h2v1h-2zM28 29h2v1h-2zM28 30h2v1h-2zM28 31h2v1h-2zM85 31h1v1h-1zM28 32h2v1h-2zM85 32h1v1h-1zM28 33h2v1h-2zM85 33h1v1h-1zM28 34h2v1h-2zM85 34h1v1h-1zM28 35h2v1h-2zM85 35h1v1h-1zM28 36h2v1h-2zM85 36h1v1h-1zM28 37h2v1h-2zM85 37h1v1h-1zM28 38h2v1h-2zM85 38h1v1h-1zM28 39h2v1h-2zM85 39h1v1h-1zM28 40h2v1h-2zM85 40h1v1h-1zM28 41h2v1h-2zM85 41h1v1h-1zM28 42h2v1h-2zM85 42h1v1h-1zM28 43h1v1h-1zM85 43h1v1h-1zM28 44h1v1h-1zM85 44h1v1h-1zM28 45h1v1h-1zM85 45h1v1h-1zM28 46h1v1h-1zM85 46h1v1h-1zM28 47h1v1h-1zM85 47h1v1h-1zM28 48h1v1h-1zM85 48h1v1h-1zM28 49h1v1h-1zM85 49h1v1h-1zM28 50h1v1h-1zM85 50h1v1h-1zM28 51h1v1h-1zM85 51h1v1h-1zM28 52h1v1h-1zM85 52h1v1h-1zM28 53h1v1h-1zM28 54h1v1h-1zM28 55h1v1h-1zM28 56h1v1h-1z" /><path fill="#4438de" d="M30 19h1v1h-1zM30 57h1v1h-1z" /><path fill="#3a38dc" d="M15 20h1v1h-1z" /><path fill="#4539df" d="M30 20h1v1h-1zM30 21h2v1h-2zM30 22h2v1h-2zM30 23h2v1h-2zM30 24h2v1h-2zM30 25h2v1h-2zM30 26h2v1h-2zM30 27h2v1h-2zM30 28h2v1h-2zM30 29h1v1h-1zM30 30h1v1h-1zM30 31h1v1h-1zM30 32h1v1h-1zM86 32h1v1h-1zM30 33h1v1h-1zM86 33h1v1h-1zM30 34h1v1h-1zM86 34h1v1h-1zM30 35h1v1h-1zM86 35h1v1h-1zM30 36h1v1h-1zM86 36h1v1h-1zM30 37h1v1h-1zM86 37h1v1h-1zM30 38h1v1h-1zM86 38h1v1h-1zM30 39h1v1h-1zM30 40h1v1h-1zM30 41h1v1h-1zM30 42h1v1h-1zM29 43h2v1h-2zM29 44h2v1h-2zM29 45h2v1h-2zM29 46h2v1h-2zM29 47h2v1h-2zM29 48h2v1h-2zM29 49h2v1h-2zM29 50h2v1h-2zM29 51h2v1h-2zM29 52h2v1h-2zM29 53h2v1h-2zM85 53h1v1h-1zM29 54h2v1h-2zM85 54h1v1h-1zM29 55h2v1h-2zM85 55h1v1h-1zM29 56h2v1h-2z" /><path fill="#3b39dd" d="M15 21h1v1h-1zM15 22h1v1h-1zM14 23h2v1h-2zM14 24h2v1h-2zM14 25h2v1h-2zM14 26h2v1h-2zM14 27h2v1h-2zM14 28h2v1h-2zM14 29h2v1h-2zM14 30h2v1h-2zM14 31h2v1h-2zM14 32h2v1h-2zM14 33h2v1h-2zM79 33h1v1h-1zM14 34h1v1h-1zM79 34h1v1h-1zM14 35h1v1h-1zM79 35h1v1h-1zM14 36h1v1h-1zM79 36h1v1h-1zM14 37h1v1h-1zM79 37h1v1h-1zM14 38h1v1h-1zM79 38h1v1h-1zM14 39h1v1h-1zM79 39h1v1h-1zM14 40h1v1h-1zM79 40h1v1h-1zM14 41h1v1h-1zM79 41h1v1h-1zM14 42h1v1h-1zM79 42h1v1h-1zM14 43h1v1h-1zM79 43h1v1h-1zM14 44h1v1h-1zM79 44h1v1h-1zM14 45h1v1h-1zM79 45h1v1h-1zM14 46h1v1h-1zM79 46h1v1h-1zM14 47h1v1h-1zM79 47h1v1h-1zM13 48h2v1h-2zM79 48h1v1h-1zM13 49h2v1h-2zM79 49h1v1h-1zM13 50h2v1h-2zM79 50h1v1h-1zM13 51h2v1h-2zM79 51h1v1h-1zM13 52h2v1h-2zM13 53h2v1h-2zM13 54h2v1h-2zM13 55h2v1h-2zM13 56h2v1h-2zM13 57h2v1h-2z" /><path fill="#4639de" d="M32 21h1v1h-1z" /><path fill="#3b39dc" d="M14 22h1v1h-1z" /><path fill="#4638df" d="M32 22h1v1h-1zM32 23h1v1h-1zM32 24h1v1h-1zM32 25h1v1h-1zM32 26h1v1h-1zM32 27h1v1h-1zM32 28h1v1h-1zM32 29h1v1h-1zM32 30h1v1h-1zM32 31h1v1h-1zM32 32h1v1h-1zM32 33h1v1h-1zM32 34h1v1h-1zM32 35h1v1h-1zM32 36h1v1h-1zM32 37h1v1h-1zM32 38h1v1h-1zM32 39h1v1h-1zM32 40h1v1h-1zM32 41h1v1h-1zM32 42h1v1h-1zM32 43h1v1h-1zM32 44h1v1h-1zM32 45h1v1h-1zM32 46h1v1h-1zM32 47h1v1h-1zM86 54h1v1h-1zM31 55h1v1h-1zM86 55h1v1h-1zM31 56h1v1h-1zM86 56h1v1h-1z" /><path fill="#3938dc" d="M13 23h1v1h-1z" /><path fill="#4637de" d="M33 23h1v1h-1z" /><path fill="#3838dd" d="M12 24h1v1h-1zM11 25h1v1h-1zM77 55h1v1h-1z" /><path fill="#3a39dd" d="M13 24h1v1h-1zM13 25h1v1h-1zM13 26h1v1h-1zM13 27h1v1h-1zM12 28h2v1h-2zM12 29h2v1h-2zM12 30h2v1h-2zM12 31h2v1h-2zM12 32h2v1h-2zM12 33h2v1h-2zM12 34h2v1h-2zM12 35h2v1h-2zM12 36h2v1h-2zM12 37h2v1h-2zM78 37h1v1h-1zM12 38h2v1h-2zM78 38h1v1h-1zM12 39h2v1h-2zM78 39h1v1h-1zM12 40h2v1h-2zM78 40h1v1h-1zM12 41h2v1h-2zM78 41h1v1h-1zM12 42h2v1h-2zM78 42h1v1h-1zM12 43h2v1h-2zM78 43h1v1h-1zM12 44h2v1h-2zM78 44h1v1h-1zM12 45h2v1h-2zM78 45h1v1h-1zM12 46h2v1h-2zM78 46h1v1h-1zM12 47h2v1h-2zM78 47h1v1h-1zM12 48h1v1h-1zM78 48h1v1h-1zM12 49h1v1h-1zM78 49h1v1h-1zM12 50h1v1h-1zM78 50h1v1h-1zM12 51h1v1h-1zM78 51h1v1h-1zM12 52h1v1h-1zM78 52h1v1h-1zM12 53h1v1h-1zM78 53h1v1h-1zM12 54h1v1h-1zM78 54h1v1h-1zM12 55h1v1h-1zM12 56h1v1h-1zM12 57h1v1h-1zM12 58h1v1h-1z" /><path fill="#4738df" d="M33 24h1v1h-1zM33 25h2v1h-2zM33 26h2v1h-2zM33 27h2v1h-2zM33 28h2v1h-2zM33 29h2v1h-2zM33 30h2v1h-2zM33 31h2v1h-2zM33 32h2v1h-2zM33 33h2v1h-2zM87 33h1v1h-1zM33 34h2v1h-2zM87 34h1v1h-1zM33 35h1v1h-1zM87 35h1v1h-1zM33 36h1v1h-1zM87 36h1v1h-1zM33 37h1v1h-1zM87 37h1v1h-1zM33 38h1v1h-1zM87 38h1v1h-1zM33 39h1v1h-1zM87 39h1v1h-1zM33 40h1v1h-1zM87 40h1v1h-1zM33 41h1v1h-1zM87 41h1v1h-1zM33 42h1v1h-1zM87 42h1v1h-1zM33 43h1v1h-1zM87 43h1v1h-1zM33 44h1v1h-1zM87 44h1v1h-1zM33 45h1v1h-1zM87 45h1v1h-1zM33 46h1v1h-1zM87 46h1v1h-1zM33 47h1v1h-1zM87 47h1v1h-1zM32 48h2v1h-2zM87 48h1v1h-1zM32 49h2v1h-2zM87 49h1v1h-1zM32 50h2v1h-2zM87 50h1v1h-1zM32 51h2v1h-2zM87 51h1v1h-1zM32 52h2v1h-2zM87 52h1v1h-1zM32 53h2v1h-2zM87 53h1v1h-1zM32 54h2v1h-2zM32 55h2v1h-2zM32 56h2v1h-2zM32 57h2v1h-2z" /><path fill="#4638de" d="M34 24h1v1h-1zM87 32h1v1h-1z" /><path fill="#3939dd" d="M12 25h1v1h-1zM11 26h2v1h-2zM11 27h2v1h-2zM11 28h1v1h-1zM11 29h1v1h-1zM11 30h1v1h-1zM11 31h1v1h-1zM11 32h1v1h-1zM11 33h1v1h-1zM11 34h1v1h-1zM78 34h1v1h-1zM11 35h1v1h-1zM78 35h1v1h-1zM11 36h1v1h-1zM78 36h1v1h-1zM11 37h1v1h-1zM11 38h1v1h-1zM11 39h1v1h-1zM11 40h1v1h-1zM11 41h1v1h-1zM10 42h2v1h-2zM10 43h2v1h-2zM10 44h2v1h-2zM10 45h2v1h-2zM10 46h2v1h-2zM10 47h2v1h-2zM10 48h2v1h-2zM10 49h2v1h-2zM10 50h2v1h-2zM10 51h2v1h-2zM10 52h2v1h-2zM77 52h1v1h-1zM10 53h2v1h-2zM77 53h1v1h-1zM10 54h2v1h-2zM77 54h1v1h-1zM10 55h2v1h-2zM10 56h2v1h-2zM10 57h2v1h-2zM10 58h2v1h-2zM10 59h2v1h-2z" /><path fill="#4737de" d="M35 25h1v1h-1zM33 58h1v1h-1z" /><path fill="#4738de" d="M35 26h1v1h-1zM88 33h1v1h-1z" /><path fill="#3738dd" d="M10 27h1v1h-1zM9 60h1v1h-1z" /><path fill="#3c39de" d="M16 27h1v1h-1zM16 28h1v1h-1zM16 29h1v1h-1zM16 30h1v1h-1zM16 31h1v1h-1zM16 32h1v1h-1zM80 32h1v1h-1zM16 33h1v1h-1zM80 33h1v1h-1zM16 34h1v1h-1zM80 34h1v1h-1zM16 35h1v1h-1zM80 35h1v1h-1zM16 36h1v1h-1zM80 36h1v1h-1zM16 37h1v1h-1zM80 37h1v1h-1zM16 38h1v1h-1zM16 39h1v1h-1zM16 40h1v1h-1zM16 41h1v1h-1zM16 42h1v1h-1zM16 43h1v1h-1zM16 44h1v1h-1zM16 45h1v1h-1zM16 46h1v1h-1zM16 47h1v1h-1zM16 48h1v1h-1zM16 49h1v1h-1zM16 50h1v1h-1zM16 51h1v1h-1zM16 52h1v1h-1z" /><path fill="#4838df" d="M35 27h1v1h-1zM35 28h1v1h-1zM35 29h1v1h-1zM35 30h1v1h-1zM35 31h1v1h-1zM35 32h1v1h-1zM35 33h1v1h-1zM35 34h1v1h-1zM88 34h1v1h-1zM34 35h2v1h-2zM88 35h1v1h-1zM34 36h2v1h-2zM88 36h1v1h-1zM34 37h2v1h-2zM88 37h1v1h-1zM34 38h2v1h-2zM88 38h1v1h-1zM34 39h2v1h-2zM34 40h2v1h-2zM34 41h2v1h-2zM34 42h2v1h-2zM34 43h2v1h-2zM34 44h2v1h-2zM34 45h2v1h-2zM34 46h2v1h-2zM34 47h2v1h-2zM34 48h2v1h-2zM34 49h2v1h-2zM34 50h2v1h-2zM34 51h2v1h-2zM34 52h2v1h-2zM34 53h2v1h-2zM34 54h1v1h-1zM87 54h1v1h-1zM34 55h1v1h-1zM87 55h1v1h-1zM34 56h1v1h-1zM87 56h1v1h-1zM34 57h1v1h-1zM34 58h1v1h-1z" /><path fill="#4937de" d="M36 27h1v1h-1z" /><path fill="#3839dc" d="M10 28h1v1h-1zM9 30h1v1h-1zM76 39h1v1h-1z" /><path fill="#4938df" d="M36 28h1v1h-1zM36 29h2v1h-2zM36 30h2v1h-2zM36 31h2v1h-2zM36 32h1v1h-1zM36 33h1v1h-1zM36 34h1v1h-1zM36 35h1v1h-1zM36 36h1v1h-1zM36 37h1v1h-1zM36 38h1v1h-1zM36 39h1v1h-1zM88 39h1v1h-1zM36 40h1v1h-1zM88 40h1v1h-1zM36 41h1v1h-1zM88 41h1v1h-1zM36 42h1v1h-1zM88 42h1v1h-1zM36 43h1v1h-1zM88 43h1v1h-1zM36 44h1v1h-1zM88 44h1v1h-1zM36 45h1v1h-1zM88 45h1v1h-1zM36 46h1v1h-1zM88 46h1v1h-1zM36 47h1v1h-1zM88 47h1v1h-1zM36 48h1v1h-1zM88 48h1v1h-1zM36 49h1v1h-1zM88 49h1v1h-1zM36 50h1v1h-1zM88 50h1v1h-1zM36 51h1v1h-1zM88 51h1v1h-1zM36 52h1v1h-1zM88 52h1v1h-1zM36 53h1v1h-1zM88 53h1v1h-1zM35 54h2v1h-2zM88 54h1v1h-1zM35 55h2v1h-2zM88 55h1v1h-1zM35 56h2v1h-2zM88 56h1v1h-1zM35 57h2v1h-2zM35 58h2v1h-2zM36 59h1v1h-1z" /><path fill="#3738dc" d="M9 29h1v1h-1z" /><path fill="#3839dd" d="M10 29h1v1h-1zM10 30h1v1h-1zM9 31h2v1h-2zM9 32h2v1h-2zM9 33h2v1h-2zM9 34h2v1h-2zM9 35h2v1h-2zM9 36h2v1h-2zM9 37h2v1h-2zM77 37h1v1h-1zM9 38h2v1h-2zM77 38h1v1h-1zM9 39h2v1h-2zM77 39h1v1h-1zM9 40h2v1h-2zM77 40h1v1h-1zM9 41h2v1h-2zM77 41h1v1h-1zM9 42h1v1h-1zM77 42h1v1h-1zM9 43h1v1h-1zM77 43h1v1h-1zM9 44h1v1h-1zM77 44h1v1h-1zM9 45h1v1h-1zM77 45h1v1h-1zM9 46h1v1h-1zM77 46h1v1h-1zM9 47h1v1h-1zM77 47h1v1h-1zM9 48h1v1h-1zM77 48h1v1h-1zM9 49h1v1h-1zM77 49h1v1h-1zM9 50h1v1h-1zM77 50h1v1h-1zM9 51h1v1h-1zM77 51h1v1h-1zM9 52h1v1h-1zM9 53h1v1h-1zM9 54h1v1h-1zM9 55h1v1h-1zM8 56h2v1h-2zM8 57h2v1h-2zM8 58h2v1h-2zM8 59h2v1h-2zM8 60h1v1h-1z" /><path fill="#4639df" d="M31 29h1v1h-1zM31 30h1v1h-1zM31 31h1v1h-1zM31 32h1v1h-1zM31 33h1v1h-1zM31 34h1v1h-1zM31 35h1v1h-1zM31 36h1v1h-1zM31 37h1v1h-1zM31 38h1v1h-1zM31 39h1v1h-1zM86 39h1v1h-1zM31 40h1v1h-1zM86 40h1v1h-1zM31 41h1v1h-1zM86 41h1v1h-1zM31 42h1v1h-1zM86 42h1v1h-1zM31 43h1v1h-1zM86 43h1v1h-1zM31 44h1v1h-1zM86 44h1v1h-1zM31 45h1v1h-1zM86 45h1v1h-1zM31 46h1v1h-1zM86 46h1v1h-1zM31 47h1v1h-1zM86 47h1v1h-1zM31 48h1v1h-1zM86 48h1v1h-1zM31 49h1v1h-1zM86 49h1v1h-1zM31 50h1v1h-1zM86 50h1v1h-1zM31 51h1v1h-1zM86 51h1v1h-1zM31 52h1v1h-1zM86 52h1v1h-1zM31 53h1v1h-1zM86 53h1v1h-1zM31 54h1v1h-1z" /><path fill="#4742df" d="M81 30h1v1h-1z" /><path fill="#4139dd" d="M82 30h1v1h-1zM83 56h1v1h-1z" /><path fill="#4039dd" d="M83 30h1v1h-1z" /><path fill="#4138dd" d="M84 30h1v1h-1zM24 56h1v1h-1z" /><path fill="#3739dd" d="M8 31h1v1h-1zM8 33h1v1h-1zM8 34h1v1h-1zM8 35h1v1h-1zM7 36h2v1h-2zM7 37h2v1h-2zM7 38h2v1h-2zM7 39h2v1h-2zM7 40h2v1h-2zM76 40h1v1h-1zM7 41h2v1h-2zM76 41h1v1h-1zM7 42h2v1h-2zM76 42h1v1h-1zM7 43h2v1h-2zM76 43h1v1h-1zM7 44h2v1h-2zM76 44h1v1h-1zM7 45h2v1h-2zM76 45h1v1h-1zM7 46h2v1h-2zM76 46h1v1h-1zM7 47h2v1h-2zM76 47h1v1h-1zM7 48h2v1h-2zM76 48h1v1h-1zM7 49h2v1h-2zM76 49h1v1h-1zM7 50h2v1h-2zM76 50h1v1h-1zM7 51h2v1h-2zM76 51h1v1h-1zM7 52h2v1h-2zM76 52h1v1h-1zM7 53h2v1h-2zM76 53h1v1h-1zM7 54h2v1h-2zM76 54h1v1h-1zM7 55h2v1h-2zM7 56h1v1h-1zM7 57h1v1h-1zM7 58h1v1h-1zM7 59h1v1h-1zM7 60h1v1h-1z" /><path fill="#4a38e0" d="M38 31h1v1h-1zM38 32h1v1h-1zM38 33h1v1h-1zM38 34h1v1h-1zM38 35h1v1h-1zM89 35h2v1h-2zM38 36h1v1h-1zM89 36h1v1h-1zM38 37h1v1h-1zM89 37h1v1h-1zM38 38h1v1h-1zM89 38h1v1h-1zM38 39h1v1h-1zM89 39h1v1h-1zM37 40h2v1h-2zM89 40h1v1h-1zM37 41h2v1h-2zM89 41h1v1h-1zM37 42h2v1h-2zM89 42h1v1h-1zM37 43h2v1h-2zM89 43h1v1h-1zM37 44h2v1h-2zM89 44h1v1h-1zM37 45h2v1h-2zM89 45h1v1h-1zM37 46h2v1h-2zM89 46h1v1h-1zM37 47h2v1h-2zM89 47h1v1h-1zM37 48h2v1h-2zM89 48h1v1h-1zM37 49h2v1h-2zM89 49h1v1h-1zM37 50h2v1h-2zM89 50h1v1h-1zM37 51h2v1h-2zM89 51h1v1h-1zM37 52h2v1h-2zM89 52h1v1h-1zM37 53h2v1h-2zM89 53h1v1h-1zM37 54h2v1h-2zM37 55h2v1h-2zM37 56h2v1h-2zM37 57h2v1h-2zM37 58h2v1h-2zM37 59h2v1h-2z" /><path fill="#a88af3" d="M79 31h1v1h-1z" /><path fill="#3e3add" d="M80 31h1v1h-1z" /><path fill="#4439de" d="M86 31h1v1h-1z" /><path fill="#3739dc" d="M8 32h1v1h-1z" /><path fill="#4938e0" d="M37 32h1v1h-1zM37 33h1v1h-1zM37 34h1v1h-1zM37 35h1v1h-1zM37 36h1v1h-1zM37 37h1v1h-1zM37 38h1v1h-1zM37 39h1v1h-1z" /><path fill="#cea6fc" d="M78 32h1v1h-1z" /><path fill="#3c39dc" d="M79 32h1v1h-1z" /><path fill="#4b38df" d="M39 33h1v1h-1zM90 58h1v1h-1zM38 61h1v1h-1zM39 62h1v1h-1z" /><path fill="#dcb1ff" d="M77 33h1v1h-1zM75 35h1v1h-1zM70 42h1v1h-1zM68 45h1v1h-1zM68 46h1v1h-1zM48 54h1v1h-1zM49 57h1v1h-1zM72 57h1v1h-1zM71 66h1v1h-1zM70 70h1v1h-1zM68 77h1v1h-1z" /><path fill="#544de2" d="M78 33h1v1h-1z" /><path fill="#3539dc" d="M7 34h1v1h-1zM75 44h1v1h-1zM4 45h1v1h-1zM75 45h1v1h-1zM4 46h1v1h-1zM75 46h1v1h-1zM4 47h1v1h-1zM4 48h1v1h-1zM4 49h1v1h-1zM4 50h1v1h-1zM4 51h1v1h-1zM4 52h1v1h-1zM4 53h1v1h-1zM4 54h1v1h-1zM4 55h1v1h-1zM4 56h1v1h-1zM4 57h1v1h-1zM4 58h1v1h-1zM4 59h1v1h-1zM4 60h1v1h-1zM4 61h1v1h-1zM4 62h1v1h-1zM5 63h1v1h-1z" /><path fill="#4b38e0" d="M39 34h1v1h-1zM39 35h2v1h-2zM39 36h2v1h-2zM90 36h1v1h-1zM39 37h2v1h-2zM90 37h1v1h-1zM39 38h2v1h-2zM90 38h1v1h-1zM39 39h2v1h-2zM90 39h1v1h-1zM39 40h2v1h-2zM39 41h2v1h-2zM39 42h2v1h-2zM39 43h2v1h-2zM39 44h2v1h-2zM39 45h2v1h-2zM39 46h1v1h-1zM39 47h1v1h-1zM39 48h1v1h-1zM39 49h1v1h-1zM39 50h1v1h-1zM39 51h1v1h-1zM39 52h1v1h-1zM39 53h1v1h-1zM39 54h1v1h-1zM89 54h1v1h-1zM39 55h1v1h-1zM89 55h1v1h-1zM39 56h1v1h-1zM89 56h1v1h-1zM39 57h1v1h-1zM89 57h1v1h-1zM39 58h1v1h-1zM39 59h1v1h-1zM38 60h2v1h-2zM39 61h1v1h-1z" /><path fill="#ddb0ff" d="M76 34h1v1h-1zM69 44h1v1h-1zM67 47h1v1h-1zM48 50h1v1h-1zM72 58h1v1h-1zM71 65h1v1h-1zM71 67h1v1h-1zM69 74h1v1h-1zM68 76h1v1h-1zM63 81h1v1h-1z" /><path fill="#bd9af8" d="M77 34h1v1h-1z" /><path fill="#4a37e0" d="M89 34h1v1h-1z" /><path fill="#3639dd" d="M7 35h1v1h-1zM6 38h1v1h-1zM6 39h1v1h-1zM6 40h1v1h-1zM6 41h1v1h-1zM6 42h1v1h-1zM6 43h1v1h-1zM6 44h1v1h-1zM6 45h1v1h-1zM6 46h1v1h-1zM6 47h1v1h-1zM6 48h1v1h-1zM6 49h1v1h-1zM5 50h2v1h-2zM5 51h2v1h-2zM5 52h2v1h-2zM75 52h1v1h-1zM5 53h2v1h-2zM75 53h1v1h-1zM5 54h2v1h-2zM75 54h1v1h-1zM5 55h2v1h-2zM76 55h1v1h-1zM5 56h2v1h-2zM5 57h2v1h-2zM5 58h2v1h-2zM5 59h2v1h-2zM5 60h2v1h-2zM5 61h2v1h-2zM5 62h1v1h-1z" /><path fill="#ddb1ff" d="M76 35h1v1h-1zM75 36h1v1h-1zM74 37h2v1h-2zM74 38h2v1h-2zM73 39h2v1h-2zM72 40h3v1h-3zM71 41h4v1h-4zM71 42h4v1h-4zM71 43h4v1h-4zM70 44h4v1h-4zM69 45h5v1h-5zM69 46h5v1h-5zM68 47h6v1h-6zM46 48h1v1h-1zM67 48h7v1h-7zM66 49h8v1h-8zM47 50h1v1h-1zM65 50h8v1h-8zM47 51h2v1h-2zM65 51h8v1h-8zM48 52h2v1h-2zM64 52h9v1h-9zM48 53h3v1h-3zM62 53h11v1h-11zM49 54h4v1h-4zM60 54h13v1h-13zM49 55h6v1h-6zM56 55h17v1h-17zM49 56h24v1h-24zM50 57h22v1h-22zM50 58h22v1h-22zM50 59h22v1h-22zM51 60h21v1h-21zM51 61h21v1h-21zM51 62h21v1h-21zM52 63h20v1h-20zM52 64h19v1h-19zM52 65h19v1h-19zM53 66h18v1h-18zM53 67h18v1h-18zM54 68h17v1h-17zM54 69h17v1h-17zM55 70h15v1h-15zM55 71h16v1h-16zM56 72h14v1h-14zM56 73h14v1h-14zM56 74h13v1h-13zM57 75h12v1h-12zM58 76h10v1h-10zM58 77h10v1h-10zM59 78h9v1h-9zM60 79h6v1h-6zM62 80h4v1h-4zM64 81h1v1h-1z" /><path fill="#6359e6" d="M77 35h1v1h-1z" /><path fill="#3639dc" d="M6 36h1v1h-1zM7 61h1v1h-1z" /><path fill="#dcb0ff" d="M74 36h1v1h-1zM73 38h1v1h-1zM72 39h1v1h-1zM75 39h1v1h-1zM70 43h1v1h-1zM46 47h1v1h-1zM66 48h1v1h-1zM47 49h1v1h-1zM73 50h1v1h-1zM49 51h1v1h-1zM64 51h1v1h-1zM50 52h1v1h-1zM63 52h1v1h-1zM51 53h1v1h-1zM53 54h1v1h-1zM55 55h1v1h-1zM72 59h1v1h-1zM72 60h1v1h-1zM71 64h1v1h-1zM55 72h1v1h-1zM66 79h1v1h-1zM61 80h1v1h-1z" /><path fill="#d9aefd" d="M76 36h1v1h-1z" /><path fill="#393adc" d="M77 36h1v1h-1z" /><path fill="#3638dc" d="M6 37h1v1h-1z" /><path fill="#4339de" d="M26 37h1v1h-1zM26 38h1v1h-1zM84 38h1v1h-1zM26 39h1v1h-1zM84 39h1v1h-1zM26 40h1v1h-1zM84 40h1v1h-1zM26 41h1v1h-1zM84 41h1v1h-1zM26 42h1v1h-1zM84 42h1v1h-1zM26 43h1v1h-1zM26 44h1v1h-1zM26 45h1v1h-1z" /><path fill="#4b37df" d="M41 37h1v1h-1zM41 38h1v1h-1zM41 63h1v1h-1z" /><path fill="#a589f4" d="M76 37h1v1h-1z" /><path fill="#4c37e0" d="M91 37h1v1h-1z" /><path fill="#5e55e5" d="M76 38h1v1h-1z" /><path fill="#4d38e0" d="M91 38h1v1h-1zM91 39h1v1h-1zM91 40h1v1h-1zM42 41h1v1h-1zM91 41h1v1h-1zM42 42h1v1h-1zM91 42h1v1h-1zM42 43h1v1h-1zM91 43h1v1h-1zM42 44h2v1h-2zM91 44h1v1h-1zM42 45h2v1h-2zM91 45h1v1h-1zM42 46h2v1h-2zM91 46h1v1h-1zM42 47h2v1h-2zM91 47h1v1h-1zM42 48h2v1h-2zM91 48h1v1h-1zM42 49h2v1h-2zM91 49h1v1h-1zM42 50h2v1h-2zM91 50h1v1h-1zM42 51h2v1h-2zM91 51h1v1h-1zM42 52h1v1h-1zM91 52h1v1h-1zM42 53h1v1h-1zM91 53h1v1h-1zM42 54h1v1h-1zM42 55h1v1h-1zM42 56h1v1h-1zM42 57h1v1h-1zM42 58h1v1h-1zM42 59h1v1h-1zM42 60h1v1h-1zM42 61h1v1h-1zM42 62h1v1h-1zM42 63h1v1h-1zM42 64h1v1h-1z" /><path fill="#4d38df" d="M92 38h1v1h-1z" /><path fill="#3539db" d="M5 39h1v1h-1zM4 63h1v1h-1z" /><path fill="#4c38e0" d="M41 39h1v1h-1zM41 40h2v1h-2zM90 40h1v1h-1zM41 41h1v1h-1zM90 41h1v1h-1zM41 42h1v1h-1zM43 42h1v1h-1zM90 42h1v1h-1zM41 43h1v1h-1zM90 43h1v1h-1zM41 44h1v1h-1zM90 44h1v1h-1zM41 45h1v1h-1zM90 45h1v1h-1zM40 46h2v1h-2zM90 46h1v1h-1zM40 47h2v1h-2zM90 47h1v1h-1zM40 48h2v1h-2zM90 48h1v1h-1zM40 49h2v1h-2zM90 49h1v1h-1zM40 50h2v1h-2zM90 50h1v1h-1zM40 51h2v1h-2zM90 51h1v1h-1zM40 52h2v1h-2zM90 52h1v1h-1zM40 53h2v1h-2zM90 53h1v1h-1zM40 54h2v1h-2zM90 54h1v1h-1zM40 55h2v1h-2zM90 55h1v1h-1zM40 56h2v1h-2zM90 56h1v1h-1zM40 57h2v1h-2zM90 57h1v1h-1zM40 58h2v1h-2zM40 59h2v1h-2zM40 60h2v1h-2zM40 61h2v1h-2zM40 62h2v1h-2z" /><path fill="#4e38df" d="M92 39h1v1h-1zM91 59h1v1h-1zM43 65h1v1h-1z" /><path fill="#3439db" d="M5 40h1v1h-1zM3 64h1v1h-1z" /><path fill="#c9a2fb" d="M75 40h1v1h-1z" /><path fill="#4f38e0" d="M92 40h1v1h-1zM92 41h1v1h-1zM92 42h1v1h-1zM92 43h1v1h-1zM92 44h1v1h-1zM92 45h1v1h-1zM92 46h1v1h-1zM92 47h1v1h-1zM92 48h1v1h-1zM92 49h1v1h-1zM45 50h1v1h-1zM92 50h1v1h-1zM45 51h1v1h-1zM92 51h1v1h-1zM45 52h2v1h-2zM92 52h1v1h-1zM45 53h2v1h-2zM92 53h1v1h-1zM45 54h2v1h-2zM92 54h1v1h-1zM45 55h2v1h-2zM92 55h1v1h-1zM45 56h2v1h-2zM92 56h1v1h-1zM45 57h1v1h-1zM92 57h1v1h-1zM45 58h1v1h-1zM92 58h1v1h-1zM45 59h1v1h-1zM45 60h1v1h-1zM45 61h1v1h-1zM45 62h1v1h-1zM45 63h1v1h-1zM45 64h1v1h-1zM45 65h1v1h-1zM45 66h1v1h-1zM45 67h1v1h-1z" /><path fill="#3539dd" d="M5 41h1v1h-1zM5 42h1v1h-1zM5 43h1v1h-1zM5 44h1v1h-1zM5 45h1v1h-1zM5 46h1v1h-1zM5 47h1v1h-1zM75 47h1v1h-1zM5 48h1v1h-1zM75 48h1v1h-1zM5 49h1v1h-1zM75 49h1v1h-1zM75 50h1v1h-1zM75 51h1v1h-1zM75 55h1v1h-1z" /><path fill="#9b82f1" d="M75 41h1v1h-1z" /><path fill="#5038e1" d="M93 41h1v1h-1zM93 42h1v1h-1zM93 43h1v1h-1zM93 44h1v1h-1zM93 45h1v1h-1zM93 46h1v1h-1zM93 47h1v1h-1zM93 48h1v1h-1zM93 49h1v1h-1zM93 50h1v1h-1zM93 51h1v1h-1zM93 52h1v1h-1zM93 53h1v1h-1zM93 54h1v1h-1zM47 55h1v1h-1zM47 56h1v1h-1zM47 57h1v1h-1zM47 58h1v1h-1zM47 59h1v1h-1zM47 60h1v1h-1zM47 61h1v1h-1zM47 62h1v1h-1zM47 63h1v1h-1zM47 64h1v1h-1zM47 65h1v1h-1zM47 66h1v1h-1zM47 67h1v1h-1zM47 68h1v1h-1zM47 69h1v1h-1zM48 70h1v1h-1z" /><path fill="#665de6" d="M75 42h1v1h-1z" /><path fill="#3438db" d="M4 43h1v1h-1zM3 47h1v1h-1z" /><path fill="#5039e1" d="M43 43h1v1h-1z" /><path fill="#4141dd" d="M75 43h1v1h-1z" /><path fill="#5238e1" d="M94 43h1v1h-1zM94 45h1v1h-1zM94 46h1v1h-1zM94 47h1v1h-1zM94 48h1v1h-1zM94 49h1v1h-1zM94 50h1v1h-1zM94 51h1v1h-1zM94 52h1v1h-1zM94 53h1v1h-1zM94 54h1v1h-1zM94 55h1v1h-1zM94 56h1v1h-1zM94 57h1v1h-1zM94 58h1v1h-1zM94 59h1v1h-1zM94 60h1v1h-1zM49 63h1v1h-1zM49 64h2v1h-2zM49 65h2v1h-2zM49 66h2v1h-2zM49 67h2v1h-2zM49 68h2v1h-2zM49 69h2v1h-2zM49 70h2v1h-2zM50 71h1v1h-1zM51 73h1v1h-1z" /><path fill="#3538dc" d="M4 44h1v1h-1z" /><path fill="#a884f4" d="M44 44h1v1h-1z" /><path fill="#daaefd" d="M74 44h1v1h-1zM46 49h1v1h-1z" /><path fill="#5137e0" d="M94 44h1v1h-1zM93 60h1v1h-1z" /><path fill="#8969eb" d="M44 45h1v1h-1z" /><path fill="#c9a3fb" d="M74 45h1v1h-1z" /><path fill="#513be1" d="M44 46h1v1h-1z" /><path fill="#daafff" d="M45 46h1v1h-1z" /><path fill="#ab8ef5" d="M74 46h1v1h-1z" /><path fill="#5337e0" d="M95 46h1v1h-1z" /><path fill="#4e38e0" d="M44 47h1v1h-1zM44 48h1v1h-1zM44 49h1v1h-1zM44 50h1v1h-1zM44 51h1v1h-1zM43 52h2v1h-2zM43 53h2v1h-2zM43 54h2v1h-2zM91 54h1v1h-1zM43 55h2v1h-2zM91 55h1v1h-1zM43 56h2v1h-2zM91 56h1v1h-1zM43 57h2v1h-2zM91 57h1v1h-1zM43 58h2v1h-2zM91 58h1v1h-1zM43 59h2v1h-2zM92 59h1v1h-1zM43 60h2v1h-2zM43 61h2v1h-2zM43 62h2v1h-2zM43 63h2v1h-2zM43 64h2v1h-2zM44 65h1v1h-1z" /><path fill="#bf98f9" d="M45 47h1v1h-1z" /><path fill="#8b76ed" d="M74 47h1v1h-1z" /><path fill="#5337e1" d="M95 47h1v1h-1z" /><path fill="#3438dc" d="M3 48h1v1h-1z" /><path fill="#7a5dea" d="M45 48h1v1h-1z" /><path fill="#685ee7" d="M74 48h1v1h-1z" /><path fill="#5338e1" d="M95 48h1v1h-1zM95 49h1v1h-1zM95 50h1v1h-1zM95 51h1v1h-1zM95 52h1v1h-1zM95 53h1v1h-1zM95 54h1v1h-1zM51 66h1v1h-1zM51 67h1v1h-1zM51 68h1v1h-1zM51 69h1v1h-1zM51 70h1v1h-1zM51 71h1v1h-1zM51 72h1v1h-1z" /><path fill="#3439dc" d="M3 49h1v1h-1zM3 50h1v1h-1zM3 51h1v1h-1zM74 51h1v1h-1zM2 52h2v1h-2zM74 52h1v1h-1zM2 53h2v1h-2zM74 53h1v1h-1zM2 54h2v1h-2zM74 54h1v1h-1zM2 55h2v1h-2zM74 55h1v1h-1zM2 56h2v1h-2zM2 57h2v1h-2zM2 58h2v1h-2zM2 59h2v1h-2zM2 60h2v1h-2zM2 61h2v1h-2zM2 62h2v1h-2zM2 63h2v1h-2zM2 64h1v1h-1z" /><path fill="#5039df" d="M45 49h1v1h-1z" /><path fill="#4a49e0" d="M74 49h1v1h-1z" /><path fill="#5538e0" d="M96 49h1v1h-1zM96 63h1v1h-1zM54 76h1v1h-1z" /><path fill="#b28df5" d="M46 50h1v1h-1z" /><path fill="#363adb" d="M74 50h1v1h-1z" /><path fill="#5537e0" d="M96 50h1v1h-1z" /><path fill="#3338dc" d="M2 51h1v1h-1zM1 56h1v1h-1zM1 57h1v1h-1zM1 66h1v1h-1z" /><path fill="#6b51e6" d="M46 51h1v1h-1z" /><path fill="#d6adfd" d="M73 51h1v1h-1z" /><path fill="#5538e1" d="M96 51h1v1h-1zM96 52h1v1h-1zM96 53h2v1h-2zM96 54h1v1h-1zM96 55h1v1h-1zM96 56h1v1h-1zM96 57h1v1h-1zM96 58h1v1h-1zM96 59h1v1h-1zM96 60h1v1h-1zM96 61h1v1h-1zM96 62h1v1h-1zM54 73h1v1h-1zM54 74h1v1h-1zM54 75h1v1h-1z" /><path fill="#d7abfd" d="M47 52h1v1h-1z" /><path fill="#c8a2fb" d="M73 52h1v1h-1z" /><path fill="#a682f4" d="M47 53h1v1h-1zM51 64h1v1h-1z" /><path fill="#b292f5" d="M73 53h1v1h-1z" /><path fill="#6046e4" d="M47 54h1v1h-1z" /><path fill="#927cef" d="M73 54h1v1h-1z" /><path fill="#5638e0" d="M97 54h1v1h-1z" /><path fill="#d1a7fc" d="M48 55h1v1h-1z" /><path fill="#7d6eec" d="M73 55h1v1h-1z" /><path fill="#3a39dc" d="M78 55h1v1h-1zM13 58h1v1h-1z" /><path fill="#5138e1" d="M93 55h1v1h-1zM93 56h1v1h-1zM93 57h1v1h-1zM48 58h1v1h-1zM93 58h1v1h-1zM48 59h1v1h-1zM93 59h1v1h-1zM48 60h1v1h-1zM48 61h2v1h-2zM48 62h2v1h-2zM48 63h1v1h-1zM48 64h1v1h-1zM48 65h1v1h-1zM48 66h1v1h-1zM48 67h1v1h-1zM48 68h1v1h-1zM48 69h1v1h-1zM49 71h1v1h-1zM50 72h1v1h-1z" /><path fill="#5438e1" d="M95 55h1v1h-1zM95 56h1v1h-1zM95 57h1v1h-1zM95 58h1v1h-1zM95 59h1v1h-1zM95 60h1v1h-1zM95 61h1v1h-1zM52 69h1v1h-1zM52 70h1v1h-1zM52 71h2v1h-2zM52 72h2v1h-2zM52 73h2v1h-2zM53 74h1v1h-1zM53 75h1v1h-1z" /><path fill="#5638e1" d="M97 55h1v1h-1zM55 75h1v1h-1zM55 76h1v1h-1zM56 77h1v1h-1z" /><path fill="#3e38de" d="M20 56h1v1h-1z" /><path fill="#3f39dd" d="M21 56h1v1h-1z" /><path fill="#3f38dd" d="M22 56h1v1h-1z" /><path fill="#4238dd" d="M25 56h1v1h-1z" /><path fill="#9775f0" d="M48 56h1v1h-1z" /><path fill="#4238de" d="M84 56h1v1h-1z" /><path fill="#4538df" d="M85 56h1v1h-1zM31 57h1v1h-1z" /><path fill="#5738e1" d="M97 56h1v1h-1zM97 57h1v1h-1zM97 58h1v1h-1zM97 59h1v1h-1z" /><path fill="#3c38dd" d="M15 57h1v1h-1z" /><path fill="#3d38dd" d="M16 57h1v1h-1z" /><path fill="#5038e0" d="M46 57h1v1h-1zM46 58h1v1h-1zM46 59h1v1h-1zM46 60h1v1h-1zM46 61h1v1h-1zM46 62h1v1h-1zM46 63h1v1h-1zM46 64h1v1h-1zM46 65h1v1h-1zM46 66h1v1h-1zM46 67h1v1h-1z" /><path fill="#593fe2" d="M48 57h1v1h-1z" /><path fill="#4837df" d="M87 57h1v1h-1z" /><path fill="#4837de" d="M88 57h1v1h-1z" /><path fill="#5737e2" d="M98 57h1v1h-1z" /><path fill="#3339dc" d="M1 58h1v1h-1zM1 59h1v1h-1zM1 60h1v1h-1zM1 61h1v1h-1zM0 62h2v1h-2zM0 63h2v1h-2zM1 64h1v1h-1zM1 65h1v1h-1z" /><path fill="#c79efb" d="M49 58h1v1h-1z" /><path fill="#5738e2" d="M98 58h1v1h-1zM97 60h1v1h-1zM97 61h1v1h-1zM97 62h1v1h-1zM97 63h1v1h-1z" /><path fill="#4937df" d="M35 59h1v1h-1z" /><path fill="#8866ed" d="M49 59h1v1h-1z" /><path fill="#5838e2" d="M98 59h1v1h-1zM98 60h1v1h-1zM98 61h1v1h-1zM98 62h1v1h-1zM98 63h1v1h-1zM98 64h1v1h-1z" /><path fill="#4838de" d="M36 60h1v1h-1z" /><path fill="#4a38df" d="M37 60h1v1h-1z" /><path fill="#523ae2" d="M49 60h1v1h-1z" /><path fill="#dcaffd" d="M50 60h1v1h-1z" /><path fill="#bc95f8" d="M50 61h1v1h-1z" /><path fill="#5138e0" d="M94 61h1v1h-1z" /><path fill="#3638dd" d="M6 62h1v1h-1z" /><path fill="#7759e9" d="M50 62h1v1h-1z" /><path fill="#5437e1" d="M95 62h1v1h-1zM52 74h1v1h-1z" /><path fill="#5937e2" d="M99 62h1v1h-1zM99 63h1v1h-1z" /><path fill="#5339e0" d="M50 63h1v1h-1z" /><path fill="#d9adfd" d="M51 63h1v1h-1z" /><path fill="#3238db" d="M0 64h1v1h-1z" /><path fill="#5737e1" d="M97 64h1v1h-1z" /><path fill="#5a38e2" d="M99 64h1v1h-1z" /><path fill="#3239db" d="M0 65h1v1h-1z" /><path fill="#3339db" d="M2 65h1v1h-1z" /><path fill="#5f43e3" d="M51 65h1v1h-1z" /><path fill="#5837e1" d="M98 65h1v1h-1z" /><path fill="#5a38e1" d="M99 65h1v1h-1z" /><path fill="#3239dc" d="M0 66h1v1h-1z" /><path fill="#4e37df" d="M44 66h1v1h-1z" /><path fill="#c99ff9" d="M52 66h1v1h-1z" /><path fill="#8362ec" d="M52 67h1v1h-1z" /><path fill="#4f38df" d="M46 68h1v1h-1z" /><path fill="#5439e0" d="M52 68h1v1h-1z" /><path fill="#dbafff" d="M53 68h1v1h-1zM57 76h1v1h-1z" /><path fill="#a782f4" d="M53 69h1v1h-1z" /><path fill="#5b3fe2" d="M53 70h1v1h-1z" /><path fill="#dbb0ff" d="M54 70h1v1h-1z" /><path fill="#b78ef7" d="M54 71h1v1h-1z" /><path fill="#6243e4" d="M54 72h1v1h-1z" /><path fill="#c199f8" d="M55 73h1v1h-1z" /><path fill="#6a4ae6" d="M55 74h1v1h-1z" /><path fill="#ba91f7" d="M56 75h1v1h-1z" /><path fill="#6040e3" d="M56 76h1v1h-1z" /><path fill="#5637e0" d="M55 77h1v1h-1z" /><path fill="#8a66ed" d="M57 77h1v1h-1z" /><path fill="#5638e2" d="M57 78h1v1h-1z" /><path fill="#be95f8" d="M58 78h1v1h-1z" /><path fill="#593ae2" d="M58 79h1v1h-1z" /><path fill="#cfa4fb" d="M59 79h1v1h-1z" /><path fill="#5d3ae4" d="M59 80h1v1h-1z" /><path fill="#c399f9" d="M60 80h1v1h-1z" /><path fill="#d6aafd" d="M62 81h1v1h-1z" /></svg>