<svg xmlns="http://www.w3.org/2000/svg" viewBox="0 0 100 100" width="1em" height="1em"><path fill="#df224d" d="M57 0h1v1h-1zM58 1h1v1h-1zM59 4h1v1h-1zM66 4h1v1h-1zM58 8h1v1h-1zM58 9h1v1h-1zM31 12h1v1h-1zM47 12h1v1h-1zM53 13h1v1h-1zM78 13h1v1h-1zM3 27h1v1h-1zM2 28h1v1h-1zM94 33h1v1h-1zM0 34h1v1h-1zM67 34h1v1h-1zM65 36h2v1h-2zM4 38h1v1h-1zM6 41h1v1h-1zM18 43h1v1h-1zM10 44h1v1h-1zM99 52h1v1h-1zM44 53h1v1h-1zM26 64h1v1h-1zM90 67h1v1h-1zM97 67h1v1h-1zM23 68h1v1h-1zM59 68h1v1h-1zM41 70h1v1h-1zM58 70h1v1h-1zM61 70h1v1h-1zM41 71h1v1h-1zM23 73h1v1h-1zM34 73h1v1h-1zM24 75h1v1h-1zM60 76h1v1h-1zM26 78h1v1h-1zM51 79h1v1h-1zM59 79h1v1h-1zM42 83h1v1h-1zM77 87h1v1h-1zM71 88h1v1h-1zM68 91h1v1h-1zM59 96h1v1h-1zM51 97h1v1h-1z" /><path fill="#df234d" d="M58 0h1v1h-1zM68 2h1v1h-1zM59 7h1v1h-1zM75 7h1v1h-1zM25 14h1v1h-1zM23 15h1v1h-1zM20 17h1v1h-1zM17 20h1v1h-1zM86 20h1v1h-1zM16 21h1v1h-1zM78 21h1v1h-1zM87 22h1v1h-1zM85 24h1v1h-1zM10 25h1v1h-1zM77 25h1v1h-1zM71 32h1v1h-1zM0 33h1v1h-1zM77 34h1v1h-1zM74 35h2v1h-2zM3 37h1v1h-1zM96 38h1v1h-1zM11 46h1v1h-1zM35 46h1v1h-1zM99 60h1v1h-1zM31 64h1v1h-1zM60 64h1v1h-1zM98 64h1v1h-1zM91 69h1v1h-1zM91 71h1v1h-1zM93 76h1v1h-1zM53 77h1v1h-1zM92 77h1v1h-1zM79 79h1v1h-1zM78 80h1v1h-1zM77 81h1v1h-1zM57 83h1v1h-1zM78 84h1v1h-1zM82 85h1v1h-1zM77 88h1v1h-1zM51 89h1v1h-1zM63 94h1v1h-1zM54 95h1v1h-1z" /><path fill="#df224e" d="M59 0h1v1h-1zM59 5h1v1h-1zM66 5h1v1h-1zM76 9h1v1h-1zM60 11h1v1h-1zM33 12h1v1h-1zM14 23h1v1h-1zM83 28h1v1h-1zM73 30h1v1h-1zM0 32h1v1h-1zM79 32h1v1h-1zM67 36h1v1h-1zM69 36h1v1h-1zM71 36h1v1h-1zM5 40h1v1h-1zM11 43h1v1h-1zM31 44h1v1h-1zM98 44h1v1h-1zM9 45h1v1h-1zM11 47h1v1h-1zM40 49h1v1h-1zM41 50h1v1h-1zM99 51h1v1h-1zM48 59h1v1h-1zM98 63h1v1h-1zM50 65h1v1h-1zM24 66h1v1h-1zM61 67h1v1h-1zM31 68h1v1h-1zM45 68h1v1h-1zM51 68h1v1h-1zM51 69h1v1h-1zM31 70h1v1h-1zM40 70h1v1h-1zM51 70h1v1h-1zM96 70h1v1h-1zM32 71h1v1h-1zM23 72h1v1h-1zM35 73h1v1h-1zM87 77h1v1h-1zM27 79h1v1h-1zM84 83h1v1h-1zM38 84h1v1h-1zM62 87h1v1h-1zM76 89h1v1h-1zM76 90h1v1h-1zM75 91h1v1h-1zM56 93h1v1h-1zM65 93h1v1h-1zM58 96h1v1h-1z" /><path fill="#e0224e" d="M60 0h1v1h-1zM63 2h1v1h-1zM63 5h1v1h-1zM74 6h1v1h-1zM46 12h1v1h-1zM48 12h1v1h-1zM55 14h1v1h-1zM58 15h1v1h-1zM60 15h1v1h-1zM85 23h1v1h-1zM9 25h1v1h-1zM7 26h1v1h-1zM91 27h1v1h-1zM92 29h1v1h-1zM8 42h1v1h-1zM99 48h1v1h-1zM99 53h1v1h-1zM49 61h1v1h-1zM60 63h1v1h-1zM61 64h1v1h-1zM50 69h1v1h-1zM23 71h1v1h-1zM40 71h1v1h-1zM89 71h1v1h-1zM33 72h1v1h-1zM42 72h1v1h-1zM89 72h1v1h-1zM95 72h1v1h-1zM61 73h1v1h-1zM88 75h1v1h-1zM54 76h1v1h-1zM60 77h1v1h-1zM92 78h1v1h-1zM47 81h1v1h-1zM30 83h1v1h-1zM76 83h1v1h-1zM61 88h1v1h-1zM59 90h1v1h-1zM58 91h1v1h-1zM49 98h1v1h-1z" /><path fill="#e0234e" d="M59 1h4v1h-4zM59 2h4v1h-4zM59 3h5v1h-5zM67 3h3v1h-3zM60 4h4v1h-4zM67 4h4v1h-4zM60 5h3v1h-3zM67 5h6v1h-6zM60 6h2v1h-2zM66 6h8v1h-8zM65 7h10v1h-10zM59 8h1v1h-1zM63 8h13v1h-13zM62 9h14v1h-14zM58 10h1v1h-1zM61 10h16v1h-16zM61 11h16v1h-16zM35 12h11v1h-11zM60 12h18v1h-18zM28 13h24v1h-24zM60 13h18v1h-18zM27 14h28v1h-28zM61 14h17v1h-17zM24 15h34v1h-34zM61 15h18v1h-18zM23 16h56v1h-56zM21 17h58v1h-58zM19 18h60v1h-60zM19 19h60v1h-60zM18 20h61v1h-61zM17 21h61v1h-61zM86 21h1v1h-1zM16 22h62v1h-62zM86 22h1v1h-1zM15 23h63v1h-63zM86 23h2v1h-2zM12 24h65v1h-65zM86 24h3v1h-3zM11 25h66v1h-66zM85 25h5v1h-5zM8 26h68v1h-68zM85 26h5v1h-5zM4 27h73v1h-73zM84 27h7v1h-7zM3 28h72v1h-72zM84 28h8v1h-8zM2 29h72v1h-72zM82 29h10v1h-10zM1 30h72v1h-72zM82 30h11v1h-11zM1 31h71v1h-71zM81 31h12v1h-12zM1 32h70v1h-70zM80 32h14v1h-14zM1 33h68v1h-68zM79 33h15v1h-15zM1 34h66v1h-66zM78 34h17v1h-17zM1 35h62v1h-62zM76 35h19v1h-19zM3 36h61v1h-61zM72 36h24v1h-24zM4 37h92v1h-92zM5 38h91v1h-91zM5 39h92v1h-92zM6 40h91v1h-91zM7 41h90v1h-90zM9 42h89v1h-89zM9 43h2v1h-2zM12 43h5v1h-5zM28 43h71v1h-71zM9 44h1v1h-1zM11 44h3v1h-3zM32 44h66v1h-66zM12 45h1v1h-1zM34 45h64v1h-64zM36 46h63v1h-63zM37 47h62v1h-62zM40 48h59v1h-59zM41 49h58v1h-58zM42 50h57v1h-57zM43 51h56v1h-56zM44 52h55v1h-55zM45 53h54v1h-54zM46 54h53v1h-53zM46 55h53v1h-53zM46 56h53v1h-53zM48 57h51v1h-51zM48 58h51v1h-51zM49 59h50v1h-50zM49 60h50v1h-50zM50 61h49v1h-49zM50 62h49v1h-49zM50 63h10v1h-10zM61 63h37v1h-37zM27 64h4v1h-4zM51 64h9v1h-9zM62 64h36v1h-36zM25 65h7v1h-7zM51 65h9v1h-9zM62 65h36v1h-36zM25 66h7v1h-7zM51 66h9v1h-9zM62 66h36v1h-36zM24 67h8v1h-8zM46 67h3v1h-3zM51 67h8v1h-8zM62 67h28v1h-28zM91 67h6v1h-6zM24 68h7v1h-7zM46 68h4v1h-4zM52 68h7v1h-7zM62 68h29v1h-29zM92 68h6v1h-6zM24 69h8v1h-8zM45 69h5v1h-5zM52 69h7v1h-7zM62 69h28v1h-28zM92 69h5v1h-5zM23 70h8v1h-8zM45 70h6v1h-6zM52 70h6v1h-6zM62 70h28v1h-28zM92 70h4v1h-4zM24 71h8v1h-8zM43 71h15v1h-15zM62 71h27v1h-27zM92 71h4v1h-4zM24 72h9v1h-9zM40 72h1v1h-1zM43 72h14v1h-14zM62 72h27v1h-27zM92 72h3v1h-3zM24 73h10v1h-10zM39 73h17v1h-17zM62 73h27v1h-27zM92 73h3v1h-3zM24 74h32v1h-32zM61 74h27v1h-27zM92 74h3v1h-3zM25 75h30v1h-30zM61 75h27v1h-27zM92 75h2v1h-2zM25 76h29v1h-29zM61 76h27v1h-27zM92 76h1v1h-1zM26 77h27v1h-27zM61 77h26v1h-26zM27 78h25v1h-25zM60 78h27v1h-27zM28 79h23v1h-23zM60 79h19v1h-19zM80 79h7v1h-7zM27 80h23v1h-23zM59 80h19v1h-19zM80 80h6v1h-6zM26 81h21v1h-21zM58 81h19v1h-19zM80 81h5v1h-5zM28 82h17v1h-17zM46 82h1v1h-1zM58 82h19v1h-19zM80 82h5v1h-5zM31 83h11v1h-11zM58 83h18v1h-18zM79 83h5v1h-5zM56 84h20v1h-20zM79 84h5v1h-5zM56 85h18v1h-18zM78 85h4v1h-4zM55 86h6v1h-6zM62 86h11v1h-11zM78 86h4v1h-4zM54 87h4v1h-4zM63 87h9v1h-9zM78 87h3v1h-3zM52 88h3v1h-3zM62 88h9v1h-9zM78 88h2v1h-2zM61 89h10v1h-10zM77 89h3v1h-3zM60 90h9v1h-9zM77 90h1v1h-1zM59 91h9v1h-9zM76 91h1v1h-1zM58 92h8v1h-8zM57 93h7v1h-7zM56 94h7v1h-7zM55 95h6v1h-6zM52 96h6v1h-6zM52 97h3v1h-3zM50 98h1v1h-1zM53 98h1v1h-1z" /><path fill="#e0224d" d="M67 2h1v1h-1zM70 3h1v1h-1zM71 4h1v1h-1zM62 6h1v1h-1zM60 7h1v1h-1zM58 11h1v1h-1zM32 12h1v1h-1zM34 12h1v1h-1zM58 12h1v1h-1zM52 13h1v1h-1zM56 14h1v1h-1zM60 14h1v1h-1zM22 16h1v1h-1zM90 26h1v1h-1zM74 29h1v1h-1zM93 30h1v1h-1zM94 32h1v1h-1zM63 35h1v1h-1zM97 41h1v1h-1zM24 43h1v1h-1zM26 43h2v1h-2zM30 44h1v1h-1zM98 45h1v1h-1zM42 51h1v1h-1zM99 58h1v1h-1zM49 62h1v1h-1zM50 64h1v1h-1zM61 65h1v1h-1zM41 68h1v1h-1zM91 68h1v1h-1zM44 70h1v1h-1zM61 71h1v1h-1zM57 72h1v1h-1zM61 72h1v1h-1zM88 74h1v1h-1zM48 81h1v1h-1zM57 82h1v1h-1zM55 85h1v1h-1zM53 87h1v1h-1zM72 87h1v1h-1zM56 88h1v1h-1zM69 90h1v1h-1zM57 92h1v1h-1zM74 93h1v1h-1zM61 95h1v1h-1zM51 98h2v1h-2z" /><path fill="#df234e" d="M73 5h1v1h-1zM59 6h1v1h-1zM64 7h1v1h-1zM59 9h1v1h-1zM49 12h1v1h-1zM27 13h1v1h-1zM26 14h1v1h-1zM78 14h1v1h-1zM18 19h1v1h-1zM15 22h1v1h-1zM88 23h1v1h-1zM77 24h1v1h-1zM89 24h1v1h-1zM6 26h1v1h-1zM76 26h1v1h-1zM1 29h1v1h-1zM81 30h1v1h-1zM0 31h1v1h-1zM93 31h1v1h-1zM69 33h1v1h-1zM78 33h1v1h-1zM2 36h1v1h-1zM64 36h1v1h-1zM68 36h1v1h-1zM4 39h1v1h-1zM97 40h1v1h-1zM17 43h1v1h-1zM19 43h1v1h-1zM23 43h1v1h-1zM13 45h1v1h-1zM38 48h2v1h-2zM99 50h1v1h-1zM43 52h1v1h-1zM45 54h1v1h-1zM99 55h1v1h-1zM47 57h1v1h-1zM99 57h1v1h-1zM98 65h1v1h-1zM23 67h1v1h-1zM23 69h1v1h-1zM41 69h1v1h-1zM61 69h1v1h-1zM39 72h1v1h-1zM56 73h1v1h-1zM25 77h1v1h-1zM52 78h1v1h-1zM27 82h1v1h-1zM45 82h1v1h-1zM35 84h3v1h-3zM54 86h1v1h-1zM61 86h1v1h-1zM73 86h1v1h-1zM58 87h2v1h-2zM81 87h1v1h-1zM55 88h1v1h-1zM80 88h1v1h-1zM78 90h1v1h-1zM66 92h1v1h-1zM75 92h1v1h-1zM64 93h1v1h-1zM55 94h1v1h-1zM55 97h2v1h-2z" /><path fill="#e0234d" d="M65 6h1v1h-1zM63 7h1v1h-1zM62 8h1v1h-1zM61 9h1v1h-1zM77 10h1v1h-1zM77 11h1v1h-1zM78 22h1v1h-1zM5 26h1v1h-1zM84 26h1v1h-1zM75 28h1v1h-1zM72 31h1v1h-1zM76 34h1v1h-1zM95 35h1v1h-1zM70 36h1v1h-1zM96 37h1v1h-1zM7 42h1v1h-1zM25 43h1v1h-1zM11 45h1v1h-1zM33 45h1v1h-1zM12 46h1v1h-1zM99 49h1v1h-1zM99 54h1v1h-1zM99 56h1v1h-1zM99 59h1v1h-1zM61 66h1v1h-1zM59 67h1v1h-1zM61 68h1v1h-1zM91 70h1v1h-1zM41 72h1v1h-1zM55 75h1v1h-1zM26 80h1v1h-1zM25 81h1v1h-1zM79 81h1v1h-1zM85 81h1v1h-1zM79 82h1v1h-1zM43 83h1v1h-1zM74 85h1v1h-1zM52 89h1v1h-1zM60 89h1v1h-1zM77 91h1v1h-1zM76 92h1v1h-1z" /></svg>