<svg xmlns="http://www.w3.org/2000/svg" viewBox="0 0 100 100" width="1em" height="1em"><path fill="#05bdb9" d="M46 6h1v1h-1zM47 27h7v1h-7zM46 72h7v1h-7z" /><path fill="#05bdba" d="M47 6h6v1h-6zM47 7h7v1h-7zM47 8h7v1h-7zM47 9h7v1h-7zM47 10h7v1h-7zM47 11h7v1h-7zM47 12h7v1h-7zM47 13h7v1h-7zM47 14h7v1h-7zM47 15h7v1h-7zM47 16h7v1h-7zM47 17h7v1h-7zM47 18h7v1h-7zM47 19h7v1h-7zM47 20h7v1h-7zM26 21h1v1h-1zM47 21h7v1h-7zM25 22h3v1h-3zM47 22h7v1h-7zM24 23h5v1h-5zM47 23h7v1h-7zM23 24h7v1h-7zM47 24h7v1h-7zM22 25h9v1h-9zM47 25h7v1h-7zM23 26h9v1h-9zM47 26h7v1h-7zM24 27h9v1h-9zM24 28h10v1h-10zM25 29h9v1h-9zM26 30h8v1h-8zM27 31h7v1h-7zM29 32h4v1h-4zM1 46h27v1h-27zM72 46h27v1h-27zM0 47h28v1h-28zM72 47h28v1h-28zM0 48h28v1h-28zM72 48h28v1h-28zM0 49h28v1h-28zM72 49h28v1h-28zM0 50h28v1h-28zM72 50h28v1h-28zM0 51h28v1h-28zM72 51h28v1h-28zM0 52h28v1h-28zM72 52h28v1h-28zM1 53h27v1h-27zM72 53h27v1h-27zM29 67h5v1h-5zM28 68h6v1h-6zM27 69h7v1h-7zM26 70h8v1h-8zM25 71h9v1h-9zM24 72h9v1h-9zM23 73h9v1h-9zM47 73h7v1h-7zM22 74h9v1h-9zM47 74h7v1h-7zM23 75h7v1h-7zM47 75h7v1h-7zM24 76h5v1h-5zM47 76h7v1h-7zM25 77h3v1h-3zM47 77h7v1h-7zM26 78h1v1h-1zM47 78h7v1h-7zM47 79h7v1h-7zM47 80h7v1h-7zM47 81h7v1h-7zM47 82h7v1h-7zM47 83h7v1h-7zM47 84h7v1h-7zM47 85h7v1h-7zM47 86h7v1h-7zM47 87h7v1h-7zM47 88h7v1h-7zM47 89h7v1h-7zM47 90h7v1h-7zM47 91h7v1h-7zM47 92h7v1h-7zM47 93h6v1h-6z" /><path fill="#04bdba" d="M53 6h1v1h-1zM27 21h1v1h-1zM28 22h1v1h-1zM29 23h1v1h-1zM30 24h1v1h-1zM33 72h1v1h-1zM32 73h1v1h-1zM31 74h1v1h-1z" /><path fill="#05bcb9" d="M46 7h1v1h-1zM46 8h1v1h-1zM46 9h1v1h-1zM46 10h1v1h-1zM46 11h1v1h-1zM46 12h1v1h-1zM46 13h1v1h-1zM46 14h1v1h-1zM46 15h1v1h-1zM46 16h1v1h-1zM46 17h1v1h-1zM46 18h1v1h-1zM46 19h1v1h-1zM46 20h1v1h-1zM46 21h1v1h-1zM46 22h1v1h-1zM46 23h1v1h-1zM46 24h1v1h-1zM46 25h1v1h-1zM22 26h1v1h-1zM46 26h1v1h-1zM23 27h1v1h-1zM28 32h1v1h-1zM33 32h1v1h-1zM28 67h1v1h-1zM27 68h1v1h-1zM26 69h1v1h-1zM25 70h1v1h-1zM24 71h1v1h-1zM23 72h1v1h-1zM22 73h1v1h-1zM46 73h1v1h-1zM46 74h1v1h-1zM22 75h1v1h-1zM46 75h1v1h-1zM23 76h1v1h-1zM46 76h1v1h-1zM46 77h1v1h-1zM46 78h1v1h-1zM46 79h1v1h-1zM46 80h1v1h-1zM46 81h1v1h-1zM46 82h1v1h-1zM46 83h1v1h-1zM46 84h1v1h-1zM46 85h1v1h-1zM46 86h1v1h-1zM46 87h1v1h-1zM46 88h1v1h-1zM46 89h1v1h-1zM46 90h1v1h-1zM46 91h1v1h-1zM46 92h1v1h-1zM46 93h1v1h-1z" /><path fill="#04bdb9" d="M25 21h1v1h-1zM24 22h1v1h-1zM23 23h1v1h-1zM22 24h1v1h-1zM21 25h1v1h-1zM31 25h1v1h-1zM32 26h1v1h-1zM33 27h1v1h-1zM0 53h1v1h-1zM99 53h1v1h-1zM30 75h1v1h-1zM29 76h1v1h-1zM28 77h1v1h-1zM27 78h1v1h-1z" /><path fill="#05bcba" d="M46 27h1v1h-1zM28 47h1v1h-1zM71 47h1v1h-1zM28 48h1v1h-1zM71 48h1v1h-1zM28 49h1v1h-1zM71 49h1v1h-1zM28 50h1v1h-1zM71 50h1v1h-1zM28 51h1v1h-1zM71 51h1v1h-1zM28 52h1v1h-1zM71 52h1v1h-1zM53 72h1v1h-1zM24 77h1v1h-1zM25 78h1v1h-1z" /><path fill="#014847" d="M37 36h18v1h-18zM37 37h20v1h-20zM37 38h23v1h-23zM37 39h23v1h-23zM37 40h24v1h-24zM37 41h25v1h-25zM37 42h7v1h-7zM53 42h9v1h-9zM37 43h7v1h-7zM55 43h7v1h-7zM37 44h7v1h-7zM55 44h8v1h-8zM37 45h7v1h-7zM56 45h7v1h-7zM37 46h7v1h-7zM56 46h7v1h-7zM37 47h7v1h-7zM56 47h7v1h-7zM37 48h7v1h-7zM56 48h7v1h-7zM37 49h7v1h-7zM56 49h7v1h-7zM37 50h7v1h-7zM56 50h7v1h-7zM37 51h7v1h-7zM56 51h7v1h-7zM37 52h7v1h-7zM56 52h7v1h-7zM37 53h7v1h-7zM56 53h7v1h-7zM37 54h7v1h-7zM56 54h7v1h-7zM37 55h7v1h-7zM56 55h7v1h-7zM37 56h7v1h-7zM56 56h7v1h-7zM37 57h7v1h-7zM56 57h7v1h-7zM37 58h7v1h-7zM56 58h7v1h-7zM37 59h7v1h-7zM56 59h7v1h-7zM37 60h7v1h-7zM56 60h7v1h-7zM37 61h7v1h-7zM56 61h7v1h-7zM37 62h7v1h-7zM56 62h7v1h-7zM37 63h7v1h-7zM56 63h7v1h-7z" /><path fill="#014846" d="M55 36h1v1h-1zM60 39h1v1h-1zM61 40h1v1h-1zM46 42h1v1h-1zM62 42h1v1h-1zM44 43h1v1h-1zM44 44h1v1h-1zM44 45h1v1h-1zM55 45h1v1h-1zM44 46h1v1h-1zM55 46h1v1h-1zM44 47h1v1h-1zM44 48h1v1h-1zM44 49h1v1h-1zM44 50h1v1h-1zM44 51h1v1h-1zM44 52h1v1h-1zM44 53h1v1h-1zM44 54h1v1h-1zM44 55h1v1h-1zM44 56h1v1h-1zM44 57h1v1h-1zM44 58h1v1h-1zM44 59h1v1h-1zM44 60h1v1h-1zM44 61h1v1h-1zM44 62h1v1h-1zM44 63h1v1h-1z" /><path fill="#014747" d="M56 36h1v1h-1zM45 42h1v1h-1zM47 42h5v1h-5zM55 47h1v1h-1zM55 48h1v1h-1zM55 49h1v1h-1zM55 50h1v1h-1zM55 51h1v1h-1zM55 52h1v1h-1zM55 53h1v1h-1zM55 54h1v1h-1zM55 55h1v1h-1zM55 56h1v1h-1zM55 57h1v1h-1zM55 58h1v1h-1zM55 59h1v1h-1zM55 60h1v1h-1zM55 61h1v1h-1zM55 62h1v1h-1zM55 63h1v1h-1z" /><path fill="#014746" d="M57 37h1v1h-1zM44 42h1v1h-1zM52 42h1v1h-1zM54 43h1v1h-1zM62 43h1v1h-1z" /><path fill="#04bcba" d="M0 46h1v1h-1zM99 46h1v1h-1z" /><path fill="#04bcb9" d="M21 74h1v1h-1zM53 93h1v1h-1z" /></svg>