<svg xmlns="http://www.w3.org/2000/svg" viewBox="0 0 100 100" width="1em" height="1em"><path fill="#25c6b7" d="M50 0h1v1h-1zM51 1h1v1h-1zM52 2h1v1h-1zM53 3h1v1h-1zM54 4h1v1h-1zM55 5h1v1h-1zM56 6h1v1h-1zM57 7h1v1h-1zM61 11h1v1h-1zM55 12h1v1h-1zM62 12h1v1h-1zM63 13h1v1h-1zM64 14h1v1h-1zM65 15h1v1h-1zM66 16h1v1h-1zM67 17h1v1h-1zM68 18h1v1h-1zM69 19h1v1h-1zM50 20h1v1h-1zM55 20h1v1h-1zM73 23h1v1h-1zM41 24h1v1h-1zM48 24h1v1h-1zM35 26h2v1h-2zM76 26h1v1h-1zM77 27h1v1h-1zM51 28h1v1h-1zM68 28h1v1h-1zM56 31h1v1h-1zM52 33h1v1h-1zM63 34h1v1h-1zM56 35h1v1h-1zM39 37h1v1h-1zM87 37h1v1h-1zM39 38h1v1h-1zM21 39h1v1h-1zM90 40h1v1h-1zM22 41h1v1h-1zM37 41h1v1h-1zM58 41h1v1h-1zM51 44h1v1h-1zM94 44h1v1h-1zM20 45h1v1h-1zM79 45h1v1h-1zM95 45h1v1h-1zM96 46h1v1h-1zM55 47h1v1h-1zM97 47h1v1h-1zM32 48h1v1h-1zM86 48h1v1h-1zM98 48h1v1h-1zM3 49h1v1h-1zM9 50h1v1h-1zM36 50h1v1h-1zM92 50h1v1h-1zM13 51h1v1h-1zM36 51h1v1h-1zM19 52h1v1h-1zM13 55h1v1h-1zM36 56h1v1h-1zM42 57h1v1h-1zM61 59h2v1h-2zM67 59h1v1h-1zM18 63h1v1h-1zM27 63h1v1h-1zM71 63h2v1h-2zM22 64h1v1h-1zM33 64h1v1h-1zM75 64h1v1h-1zM60 66h1v1h-1zM20 67h1v1h-1zM70 67h1v1h-1zM76 68h1v1h-1zM41 69h1v1h-1zM42 70h1v1h-1zM61 70h1v1h-1zM22 71h1v1h-1zM43 79h1v1h-1zM63 82h1v1h-1zM51 83h1v1h-1zM50 89h1v1h-1zM56 91h1v1h-1z" /><path fill="#25c7b7" d="M49 1h2v1h-2zM48 2h4v1h-4zM47 3h6v1h-6zM46 4h8v1h-8zM45 5h10v1h-10zM44 6h12v1h-12zM43 7h14v1h-14zM42 8h16v1h-16zM41 9h17v1h-17zM40 10h17v1h-17zM39 11h17v1h-17zM38 12h17v1h-17zM61 12h1v1h-1zM37 13h18v1h-18zM60 13h3v1h-3zM36 14h18v1h-18zM59 14h5v1h-5zM35 15h19v1h-19zM59 15h6v1h-6zM34 16h19v1h-19zM58 16h8v1h-8zM33 17h19v1h-19zM58 17h9v1h-9zM32 18h20v1h-20zM57 18h11v1h-11zM31 19h20v1h-20zM56 19h13v1h-13zM32 20h18v1h-18zM56 20h13v1h-13zM33 21h17v1h-17zM55 21h14v1h-14zM35 22h1v1h-1zM37 22h12v1h-12zM54 22h15v1h-15zM27 23h1v1h-1zM39 23h9v1h-9zM54 23h15v1h-15zM26 24h4v1h-4zM31 24h1v1h-1zM42 24h3v1h-3zM53 24h16v1h-16zM73 24h1v1h-1zM25 25h8v1h-8zM53 25h16v1h-16zM73 25h2v1h-2zM24 26h11v1h-11zM52 26h16v1h-16zM73 26h3v1h-3zM23 27h14v1h-14zM38 27h1v1h-1zM52 27h16v1h-16zM73 27h4v1h-4zM22 28h18v1h-18zM52 28h16v1h-16zM73 28h5v1h-5zM21 29h20v1h-20zM53 29h15v1h-15zM72 29h7v1h-7zM20 30h21v1h-21zM55 30h13v1h-13zM72 30h8v1h-8zM19 31h22v1h-22zM58 31h10v1h-10zM72 31h9v1h-9zM18 32h24v1h-24zM60 32h8v1h-8zM72 32h7v1h-7zM17 33h25v1h-25zM63 33h4v1h-4zM72 33h5v1h-5zM17 34h24v1h-24zM50 34h4v1h-4zM65 34h2v1h-2zM72 34h3v1h-3zM19 35h22v1h-22zM46 35h10v1h-10zM73 35h1v1h-1zM82 35h1v1h-1zM84 35h1v1h-1zM19 36h21v1h-21zM45 36h13v1h-13zM80 36h6v1h-6zM13 37h2v1h-2zM20 37h19v1h-19zM44 37h17v1h-17zM79 37h8v1h-8zM12 38h3v1h-3zM21 38h18v1h-18zM44 38h19v1h-19zM77 38h11v1h-11zM11 39h5v1h-5zM22 39h16v1h-16zM43 39h20v1h-20zM77 39h12v1h-12zM10 40h8v1h-8zM22 40h16v1h-16zM43 40h18v1h-18zM79 40h11v1h-11zM9 41h8v1h-8zM23 41h14v1h-14zM42 41h16v1h-16zM81 41h10v1h-10zM8 42h10v1h-10zM24 42h13v1h-13zM41 42h16v1h-16zM84 42h8v1h-8zM7 43h12v1h-12zM24 43h12v1h-12zM41 43h13v1h-13zM65 43h1v1h-1zM71 43h4v1h-4zM84 43h1v1h-1zM86 43h7v1h-7zM6 44h13v1h-13zM25 44h11v1h-11zM40 44h11v1h-11zM62 44h4v1h-4zM69 44h9v1h-9zM88 44h6v1h-6zM5 45h15v1h-15zM25 45h10v1h-10zM39 45h10v1h-10zM60 45h5v1h-5zM70 45h9v1h-9zM91 45h4v1h-4zM4 46h17v1h-17zM26 46h8v1h-8zM38 46h9v1h-9zM58 46h7v1h-7zM70 46h12v1h-12zM93 46h3v1h-3zM3 47h19v1h-19zM27 47h6v1h-6zM38 47h6v1h-6zM56 47h10v1h-10zM70 47h14v1h-14zM95 47h2v1h-2zM2 48h21v1h-21zM27 48h5v1h-5zM38 48h4v1h-4zM54 48h11v1h-11zM69 48h17v1h-17zM97 48h1v1h-1zM6 49h17v1h-17zM28 49h5v1h-5zM37 49h3v1h-3zM51 49h14v1h-14zM69 49h20v1h-20zM10 50h14v1h-14zM48 50h17v1h-17zM69 50h22v1h-22zM14 51h11v1h-11zM46 51h19v1h-19zM69 51h25v1h-25zM17 52h1v1h-1zM20 52h5v1h-5zM44 52h21v1h-21zM69 52h27v1h-27zM24 53h1v1h-1zM42 53h22v1h-22zM69 53h27v1h-27zM5 54h4v1h-4zM40 54h24v1h-24zM68 54h27v1h-27zM6 55h7v1h-7zM36 55h28v1h-28zM68 55h26v1h-26zM7 56h11v1h-11zM39 56h25v1h-25zM68 56h25v1h-25zM8 57h13v1h-13zM22 57h1v1h-1zM44 57h20v1h-20zM68 57h24v1h-24zM9 58h10v1h-10zM49 58h14v1h-14zM68 58h23v1h-23zM10 59h7v1h-7zM53 59h8v1h-8zM68 59h22v1h-22zM11 60h4v1h-4zM36 60h2v1h-2zM58 60h2v1h-2zM68 60h21v1h-21zM23 61h1v1h-1zM36 61h6v1h-6zM69 61h19v1h-19zM20 62h3v1h-3zM37 62h9v1h-9zM48 62h1v1h-1zM69 62h18v1h-18zM19 63h5v1h-5zM28 63h4v1h-4zM38 63h13v1h-13zM52 63h1v1h-1zM73 63h13v1h-13zM16 64h6v1h-6zM28 64h5v1h-5zM39 64h17v1h-17zM77 64h8v1h-8zM16 65h6v1h-6zM27 65h8v1h-8zM39 65h21v1h-21zM79 65h1v1h-1zM82 65h2v1h-2zM17 66h5v1h-5zM26 66h9v1h-9zM40 66h20v1h-20zM18 67h2v1h-2zM26 67h9v1h-9zM40 67h21v1h-21zM67 67h3v1h-3zM19 68h1v1h-1zM25 68h12v1h-12zM41 68h21v1h-21zM66 68h9v1h-9zM24 69h13v1h-13zM42 69h20v1h-20zM66 69h14v1h-14zM24 70h13v1h-13zM43 70h18v1h-18zM66 70h13v1h-13zM23 71h15v1h-15zM43 71h19v1h-19zM66 71h12v1h-12zM23 72h16v1h-16zM43 72h19v1h-19zM65 72h12v1h-12zM24 73h16v1h-16zM44 73h17v1h-17zM65 73h11v1h-11zM25 74h16v1h-16zM45 74h16v1h-16zM65 74h10v1h-10zM26 75h15v1h-15zM45 75h16v1h-16zM65 75h9v1h-9zM27 76h14v1h-14zM47 76h13v1h-13zM65 76h8v1h-8zM28 77h14v1h-14zM48 77h12v1h-12zM65 77h7v1h-7zM29 78h15v1h-15zM48 78h12v1h-12zM64 78h7v1h-7zM30 79h13v1h-13zM49 79h11v1h-11zM64 79h6v1h-6zM31 80h13v1h-13zM49 80h11v1h-11zM64 80h5v1h-5zM32 81h14v1h-14zM50 81h10v1h-10zM63 81h5v1h-5zM33 82h13v1h-13zM51 82h8v1h-8zM64 82h3v1h-3zM34 83h13v1h-13zM52 83h7v1h-7zM64 83h2v1h-2zM35 84h12v1h-12zM52 84h7v1h-7zM63 84h2v1h-2zM36 85h12v1h-12zM53 85h6v1h-6zM63 85h1v1h-1zM37 86h11v1h-11zM54 86h5v1h-5zM38 87h11v1h-11zM54 87h5v1h-5zM39 88h11v1h-11zM54 88h5v1h-5zM40 89h10v1h-10zM56 89h2v1h-2zM41 90h10v1h-10zM57 90h2v1h-2zM42 91h10v1h-10zM57 91h1v1h-1zM43 92h10v1h-10zM44 93h9v1h-9zM45 94h9v1h-9zM46 95h8v1h-8zM47 96h6v1h-6zM48 97h4v1h-4zM49 98h2v1h-2z" /><path fill="#24c7b7" d="M56 11h1v1h-1zM54 21h1v1h-1zM38 23h1v1h-1zM53 23h1v1h-1zM51 27h1v1h-1zM72 27h1v1h-1zM40 28h1v1h-1zM52 29h1v1h-1zM50 33h1v1h-1zM14 36h1v1h-1zM38 39h1v1h-1zM78 40h1v1h-1zM87 44h1v1h-1zM49 45h1v1h-1zM69 46h1v1h-1zM82 46h1v1h-1zM33 47h1v1h-1zM8 50h1v1h-1zM68 51h1v1h-1zM18 52h1v1h-1zM96 52h1v1h-1zM23 53h1v1h-1zM41 57h1v1h-1zM47 58h1v1h-1zM67 58h1v1h-1zM15 60h1v1h-1zM70 63h1v1h-1zM76 64h1v1h-1zM26 65h1v1h-1zM61 67h1v1h-1zM66 67h1v1h-1zM72 67h1v1h-1zM65 70h1v1h-1zM59 83h1v1h-1zM47 84h1v1h-1z" /><path fill="#25c6b6" d="M60 12h1v1h-1zM55 13h1v1h-1zM58 15h1v1h-1zM51 19h1v1h-1zM36 22h1v1h-1zM49 22h1v1h-1zM69 22h1v1h-1zM40 24h1v1h-1zM46 24h1v1h-1zM52 25h1v1h-1zM68 26h1v1h-1zM68 29h1v1h-1zM41 31h1v1h-1zM61 33h1v1h-1zM71 34h1v1h-1zM45 35h1v1h-1zM63 38h1v1h-1zM59 41h1v1h-1zM19 43h1v1h-1zM40 43h1v1h-1zM75 43h1v1h-1zM85 43h1v1h-1zM19 44h1v1h-1zM21 46h1v1h-1zM92 46h1v1h-1zM26 47h1v1h-1zM44 47h1v1h-1zM69 47h1v1h-1zM84 47h1v1h-1zM37 48h1v1h-1zM53 48h1v1h-1zM5 49h1v1h-1zM28 50h1v1h-1zM37 50h2v1h-2zM45 51h1v1h-1zM5 53h1v1h-1zM39 54h1v1h-1zM14 55h1v1h-1zM18 56h1v1h-1zM38 56h1v1h-1zM43 61h1v1h-1zM23 62h1v1h-1zM46 62h1v1h-1zM17 63h1v1h-1zM32 63h1v1h-1zM77 68h1v1h-1zM38 71h1v1h-1zM50 82h1v1h-1zM59 82h1v1h-1zM63 83h1v1h-1zM48 86h1v1h-1zM55 89h1v1h-1zM56 90h1v1h-1zM53 93h1v1h-1z" /><path fill="#24c6b6" d="M59 13h1v1h-1zM52 17h1v1h-1zM28 23h1v1h-1zM42 25h1v1h-1zM54 30h1v1h-1zM57 31h1v1h-1zM59 32h1v1h-1zM71 32h1v1h-1zM79 32h1v1h-1zM78 33h1v1h-1zM49 34h1v1h-1zM18 35h1v1h-1zM71 35h1v1h-1zM20 38h1v1h-1zM43 38h1v1h-1zM76 38h1v1h-1zM76 39h1v1h-1zM21 40h1v1h-1zM23 42h1v1h-1zM57 42h1v1h-1zM72 42h1v1h-1zM83 42h1v1h-1zM64 43h1v1h-1zM78 44h1v1h-1zM85 47h1v1h-1zM23 49h1v1h-1zM36 49h1v1h-1zM89 49h1v1h-1zM31 50h1v1h-1zM91 50h1v1h-1zM12 51h1v1h-1zM94 51h1v1h-1zM43 52h1v1h-1zM22 53h1v1h-1zM40 53h2v1h-2zM68 53h1v1h-1zM10 54h1v1h-1zM19 58h1v1h-1zM46 58h1v1h-1zM52 59h1v1h-1zM35 60h1v1h-1zM56 60h1v1h-1zM68 61h1v1h-1zM19 62h1v1h-1zM51 63h1v1h-1zM27 64h1v1h-1zM38 64h1v1h-1zM56 64h3v1h-3zM25 67h1v1h-1zM60 76h1v1h-1zM47 77h1v1h-1zM60 78h1v1h-1zM44 80h1v1h-1zM52 85h1v1h-1zM59 85h1v1h-1z" /><path fill="#25c7b6" d="M54 14h1v1h-1zM53 16h1v1h-1zM57 17h1v1h-1zM30 24h1v1h-1zM45 24h1v1h-1zM43 25h1v1h-1zM68 27h1v1h-1zM72 28h1v1h-1zM77 33h1v1h-1zM75 34h1v1h-1zM59 36h1v1h-1zM61 37h1v1h-1zM15 38h1v1h-1zM16 39h1v1h-1zM42 40h1v1h-1zM69 45h1v1h-1zM80 45h1v1h-1zM90 45h1v1h-1zM47 46h1v1h-1zM57 46h1v1h-1zM65 46h1v1h-1zM87 48h1v1h-1zM40 49h1v1h-1zM50 49h1v1h-1zM64 53h1v1h-1zM15 55h1v1h-1zM19 56h1v1h-1zM21 57h1v1h-1zM43 57h1v1h-1zM67 57h1v1h-1zM24 60h1v1h-1zM57 60h1v1h-1zM60 60h1v1h-1zM67 60h1v1h-1zM24 61h1v1h-1zM68 62h1v1h-1zM37 63h1v1h-1zM15 64h1v1h-1zM39 66h1v1h-1zM24 68h1v1h-1zM23 70h1v1h-1zM46 76h1v1h-1zM64 76h1v1h-1zM59 84h1v1h-1zM53 86h1v1h-1zM49 87h1v1h-1zM58 89h1v1h-1zM51 90h1v1h-1z" /><path fill="#24c6b7" d="M56 18h1v1h-1zM33 25h1v1h-1zM51 26h1v1h-1zM72 26h1v1h-1zM37 27h1v1h-1zM42 33h1v1h-1zM51 33h1v1h-1zM67 33h1v1h-1zM71 33h1v1h-1zM41 34h1v1h-1zM54 34h1v1h-1zM64 34h1v1h-1zM67 34h1v1h-1zM40 36h1v1h-1zM58 36h1v1h-1zM75 38h1v1h-1zM75 39h1v1h-1zM61 40h1v1h-1zM80 41h1v1h-1zM73 42h1v1h-1zM54 43h1v1h-1zM24 44h1v1h-1zM61 44h1v1h-1zM50 45h1v1h-1zM65 45h1v1h-1zM89 45h1v1h-1zM54 47h1v1h-1zM43 48h1v1h-1zM96 48h1v1h-1zM47 50h1v1h-1zM25 52h1v1h-1zM4 53h1v1h-1zM37 56h1v1h-1zM48 58h1v1h-1zM17 59h1v1h-1zM51 59h1v1h-1zM22 61h1v1h-1zM47 62h1v1h-1zM80 65h2v1h-2zM35 67h1v1h-1zM71 67h1v1h-1zM64 77h1v1h-1zM60 79h1v1h-1z" /><path fill="#24c7b6" d="M31 20h1v1h-1zM69 20h1v1h-1zM69 21h1v1h-1zM48 23h1v1h-1zM69 23h1v1h-1zM47 24h1v1h-1zM52 24h1v1h-1zM80 32h1v1h-1zM62 33h1v1h-1zM72 35h1v1h-1zM83 35h1v1h-1zM19 37h1v1h-1zM78 37h1v1h-1zM63 39h1v1h-1zM17 41h1v1h-1zM18 42h1v1h-1zM82 42h1v1h-1zM70 43h1v1h-1zM52 44h1v1h-1zM59 45h1v1h-1zM45 47h1v1h-1zM94 47h1v1h-1zM42 48h1v1h-1zM52 48h1v1h-1zM4 49h1v1h-1zM29 50h2v1h-2zM68 50h1v1h-1zM35 51h1v1h-1zM68 52h1v1h-1zM9 54h1v1h-1zM38 54h1v1h-1zM64 54h1v1h-1zM63 58h1v1h-1zM38 60h2v1h-2zM12 61h1v1h-1zM42 61h1v1h-1zM53 63h1v1h-1zM75 68h1v1h-1zM65 69h1v1h-1zM37 70h1v1h-1zM65 71h1v1h-1zM64 75h1v1h-1zM41 76h1v1h-1zM42 77h1v1h-1zM60 77h1v1h-1zM48 79h1v1h-1zM54 94h1v1h-1z" /></svg>