<svg xmlns="http://www.w3.org/2000/svg" viewBox="0 0 100 100"><path fill="#05bdb9" fill-rule="evenodd" d="M46 6h1v1h-1zm1 21h7v1h-7zm-1 45h7v1h-7z"/><path fill="#05bdba" fill-rule="evenodd" d="M47 6h6v1h1v20h-7zm-21 15h1v1h1v1h1v1h1v1h1v1h1v1h1v1h1v4h-1v1h-4v-1h-2v-1h-1v-1h-1v-1h-1v-2h-1v-1h-1v-1h1v-1h1v-1h1v-1h1zm-25 25h27v8h-27v-1h-1v-6h1zm71 0h27v1h1v6h-1v1h-27zm-43 21h5v5h-1v1h-1v1h-1v1h-1v1h-1v1h-1v1h-1v1h-1v-1h-1v-1h-1v-1h-1v-1h-1v-1h1v-1h1v-1h1v-1h1v-1h1v-1h1v-1h1zm18 6h7v20h-1v1h-6z"/><path fill="#04bdba" fill-rule="evenodd" d="M53 6h1v1h-1zm-26 15h1v1h-1zm1 1h1v1h-1zm1 1h1v1h-1zm1 1h1v1h-1zm3 48h1v1h-1zm0 1v1h-1v-1zm-1 1v1h-1v-1z"/><path fill="#05bcb9" fill-rule="evenodd" d="M46 7h1v20h-1zm-24 19h1v1h-1zm1 1h1v1h-1zm5 5h1v1h-1zm5 0h1v1h-1zm-5 35h1v1h-1zm0 1v1h-1v-1zm-1 1v1h-1v-1zm-1 1v1h-1v-1zm-1 1v1h-1v-1zm-1 1v1h-1v-1zm-1 1v1h-1v-1zm23 0h1v21h-1zm-24 2h1v1h-1zm1 1h1v1h-1z"/><path fill="#04bdb9" fill-rule="evenodd" d="M25 21h1v1h-1zm0 1v1h-1v-1zm-1 1v1h-1v-1zm-1 1v1h-1v-1zm-1 1v1h-1v-1zm9 0h1v1h-1zm1 1h1v1h-1zm1 1h1v1h-1zm-33 26h1v1h-1zm99 0h1v1h-1zm-69 22h1v1h-1zm0 1v1h-1v-1zm-1 1v1h-1v-1zm-1 1v1h-1v-1z"/><path fill="#05bcba" fill-rule="evenodd" d="M46 27h1v1h-1zm-18 20h1v6h-1zm43 0h1v6h-1zm-18 25h1v1h-1zm-29 5h1v1h-1zm1 1h1v1h-1z"/><path fill="#014847" fill-rule="evenodd" d="M37 36h18v1h2v1h3v2h1v1h1v3h1v20h-7v-19h-1v-2h-2v-1h-9v22h-7z"/><path fill="#014846" fill-rule="evenodd" d="M55 36h1v1h-1zm5 3h1v1h-1zm1 1h1v1h-1zm-15 2h1v1h-1zm16 0h1v1h-1zm-18 1h1v21h-1zm11 2h1v2h-1z"/><path fill="#014747" fill-rule="evenodd" d="M56 36h1v1h-1zm-11 6h1v1h-1zm2 0h5v1h-5zm8 5h1v17h-1z"/><path fill="#014746" fill-rule="evenodd" d="M57 37h1v1h-1zm-13 5h1v1h-1zm8 0h1v1h-1zm2 1h1v1h-1zm8 0h1v1h-1z"/><path fill="#04bcba" fill-rule="evenodd" d="M0 46h1v1h-1zm99 0h1v1h-1z"/><path fill="#04bcb9" fill-rule="evenodd" d="M21 74h1v1h-1zm32 19h1v1h-1z"/></svg>