<svg xmlns="http://www.w3.org/2000/svg" viewBox="0 0 100 100" width="1em" height="1em"><path fill="#f3d400" d="M50 16h1v1h-1zM50 17h1v1h-1zM48 18h4v1h-4zM47 19h6v1h-6zM19 20h1v1h-1zM46 20h9v1h-9zM79 20h3v1h-3zM18 21h3v1h-3zM43 21h13v1h-13zM78 21h4v1h-4zM18 22h5v1h-5zM35 22h1v1h-1zM39 22h18v1h-18zM76 22h1v1h-1zM78 22h5v1h-5zM16 23h9v1h-9zM32 23h37v1h-37zM76 23h8v1h-8zM17 24h9v1h-9zM28 24h46v1h-46zM75 24h9v1h-9zM15 25h69v1h-69zM15 26h71v1h-71zM15 27h71v1h-71zM12 28h75v1h-75zM12 29h76v1h-76zM10 30h80v1h-80zM1 31h1v1h-1zM9 31h82v1h-82zM98 31h1v1h-1zM1 32h4v1h-4zM7 32h86v1h-86zM94 32h4v1h-4zM2 33h96v1h-96zM3 34h95v1h-95zM3 35h94v1h-94zM4 36h93v1h-93zM4 37h34v1h-34zM41 37h3v1h-3zM57 37h1v1h-1zM60 37h36v1h-36zM5 38h27v1h-27zM63 38h2v1h-2zM66 38h30v1h-30zM5 39h23v1h-23zM70 39h25v1h-25zM6 40h19v1h-19zM74 40h22v1h-22zM7 41h17v1h-17zM76 41h19v1h-19zM7 42h14v1h-14zM79 42h15v1h-15zM8 43h11v1h-11zM81 43h12v1h-12zM9 44h9v1h-9zM82 44h11v1h-11zM9 45h7v1h-7zM84 45h7v1h-7zM10 46h5v1h-5zM85 46h5v1h-5zM11 47h3v1h-3zM85 47h4v1h-4zM87 48h2v1h-2z" /><path fill="#f2d300" d="M49 17h1v1h-1zM51 17h1v1h-1zM46 19h1v1h-1zM81 19h1v1h-1zM45 20h1v1h-1zM55 20h1v1h-1zM56 21h1v1h-1zM17 22h1v1h-1zM36 22h1v1h-1zM38 22h1v1h-1zM58 22h5v1h-5zM16 24h1v1h-1zM84 25h1v1h-1zM10 29h2v1h-2zM88 29h2v1h-2zM9 30h1v1h-1zM8 31h1v1h-1zM97 31h1v1h-1zM6 32h1v1h-1zM93 32h1v1h-1zM98 33h1v1h-1zM2 34h1v1h-1zM38 37h1v1h-1zM55 37h1v1h-1zM96 37h1v1h-1zM4 38h1v1h-1zM33 38h2v1h-2zM96 38h1v1h-1zM28 39h1v1h-1zM30 39h1v1h-1zM69 39h1v1h-1zM26 40h1v1h-1zM72 40h2v1h-2zM6 41h1v1h-1zM21 42h1v1h-1zM7 43h1v1h-1zM80 43h1v1h-1zM83 45h1v1h-1zM9 46h1v1h-1zM84 46h1v1h-1zM90 46h1v1h-1zM10 47h1v1h-1zM13 48h1v1h-1zM86 48h1v1h-1z" /><path fill="#f2d400" d="M47 18h1v1h-1zM19 19h1v1h-1zM53 19h1v1h-1zM18 20h1v1h-1zM20 20h1v1h-1zM82 21h1v1h-1zM37 22h1v1h-1zM63 22h1v1h-1zM77 22h1v1h-1zM30 23h2v1h-2zM27 24h1v1h-1zM74 24h1v1h-1zM84 24h1v1h-1zM14 27h1v1h-1zM2 31h1v1h-1zM91 31h1v1h-1zM96 31h1v1h-1zM98 32h1v1h-1zM97 35h1v1h-1zM3 36h1v1h-1zM39 37h1v1h-1zM56 37h1v1h-1zM58 37h2v1h-2zM32 38h1v1h-1zM29 39h1v1h-1zM68 39h1v1h-1zM95 39h1v1h-1zM5 40h1v1h-1zM25 40h1v1h-1zM77 42h2v1h-2zM19 43h1v1h-1zM79 43h1v1h-1zM8 44h1v1h-1zM18 44h1v1h-1zM16 45h1v1h-1zM91 45h1v1h-1zM12 48h1v1h-1z" /><path fill="#f3d300" d="M52 18h1v1h-1zM21 21h1v1h-1zM23 22h1v1h-1zM57 22h1v1h-1zM69 23h2v1h-2zM75 23h1v1h-1zM26 24h1v1h-1zM86 27h1v1h-1zM87 28h1v1h-1zM0 30h1v1h-1zM90 30h1v1h-1zM3 31h1v1h-1zM5 32h1v1h-1zM97 36h1v1h-1zM40 37h1v1h-1zM54 37h1v1h-1zM65 38h1v1h-1zM75 41h1v1h-1zM6 42h1v1h-1zM93 43h1v1h-1zM81 44h1v1h-1zM15 46h1v1h-1zM14 47h1v1h-1zM89 47h1v1h-1z" /><path fill="#ffe852" d="M5 48h1v1h-1zM6 49h1v1h-1zM7 50h1v1h-1zM48 53h1v1h-1zM51 53h1v1h-1zM93 53h1v1h-1zM44 55h1v1h-1zM55 55h1v1h-1zM92 55h1v1h-1zM8 56h1v1h-1zM57 56h1v1h-1zM15 57h1v1h-1zM41 57h1v1h-1zM84 57h1v1h-1zM91 57h1v1h-1zM9 58h1v1h-1zM37 59h1v1h-1zM90 59h1v1h-1zM21 60h1v1h-1zM79 60h1v1h-1zM33 61h1v1h-1zM66 61h1v1h-1zM28 62h1v1h-1zM30 62h1v1h-1zM71 62h2v1h-2zM11 63h1v1h-1zM88 64h1v1h-1zM12 65h1v1h-1zM85 69h1v1h-1zM84 70h1v1h-1zM16 71h1v1h-1zM82 72h1v1h-1zM30 80h1v1h-1zM70 80h1v1h-1zM32 81h1v1h-1zM66 81h1v1h-1zM36 82h1v1h-1zM41 83h1v1h-1zM59 83h1v1h-1zM49 84h1v1h-1z" /><path fill="#ffe953" d="M95 48h1v1h-1zM6 50h1v1h-1zM93 50h1v1h-1zM7 51h1v1h-1zM92 51h2v1h-2zM7 52h2v1h-2zM91 52h2v1h-2zM7 53h4v1h-4zM50 53h1v1h-1zM91 53h2v1h-2zM8 54h4v1h-4zM46 54h1v1h-1zM48 54h4v1h-4zM90 54h2v1h-2zM8 55h5v1h-5zM45 55h9v1h-9zM88 55h4v1h-4zM9 56h5v1h-5zM44 56h12v1h-12zM86 56h6v1h-6zM9 57h6v1h-6zM42 57h16v1h-16zM85 57h6v1h-6zM10 58h6v1h-6zM17 58h1v1h-1zM38 58h1v1h-1zM40 58h21v1h-21zM83 58h8v1h-8zM10 59h8v1h-8zM38 59h24v1h-24zM82 59h8v1h-8zM11 60h9v1h-9zM36 60h28v1h-28zM80 60h10v1h-10zM10 61h13v1h-13zM34 61h32v1h-32zM76 61h1v1h-1zM78 61h12v1h-12zM11 62h17v1h-17zM32 62h36v1h-36zM74 62h15v1h-15zM12 63h77v1h-77zM11 64h77v1h-77zM13 65h75v1h-75zM12 66h75v1h-75zM13 67h74v1h-74zM13 68h73v1h-73zM15 69h70v1h-70zM16 70h68v1h-68zM17 71h66v1h-66zM18 72h64v1h-64zM18 73h63v1h-63zM19 74h62v1h-62zM22 75h58v1h-58zM23 76h54v1h-54zM25 77h50v1h-50zM27 78h47v1h-47zM28 79h45v1h-45zM31 80h39v1h-39zM33 81h33v1h-33zM35 82h1v1h-1zM38 82h25v1h-25zM43 83h14v1h-14zM58 83h1v1h-1z" /><path fill="#ffe952" d="M5 49h1v1h-1zM94 49h1v1h-1zM94 50h1v1h-1zM93 52h1v1h-1zM49 53h1v1h-1zM90 53h1v1h-1zM47 54h1v1h-1zM53 54h1v1h-1zM87 55h1v1h-1zM43 56h1v1h-1zM58 57h1v1h-1zM36 59h1v1h-1zM20 60h1v1h-1zM64 60h1v1h-1zM23 61h1v1h-1zM25 61h1v1h-1zM77 61h1v1h-1zM29 62h1v1h-1zM31 62h1v1h-1zM68 62h1v1h-1zM73 62h1v1h-1zM87 66h1v1h-1zM15 70h1v1h-1zM17 72h1v1h-1zM81 73h1v1h-1zM24 77h1v1h-1zM76 77h1v1h-1zM26 78h1v1h-1zM74 78h1v1h-1zM64 82h1v1h-1z" /><path fill="#ffe853" d="M6 51h1v1h-1zM8 51h1v1h-1zM9 52h1v1h-1zM7 54h1v1h-1zM52 54h1v1h-1zM89 54h1v1h-1zM92 54h1v1h-1zM54 55h1v1h-1zM14 56h1v1h-1zM42 56h1v1h-1zM56 56h1v1h-1zM40 57h1v1h-1zM59 57h1v1h-1zM16 58h1v1h-1zM39 58h1v1h-1zM61 58h1v1h-1zM9 59h1v1h-1zM18 59h1v1h-1zM62 59h1v1h-1zM81 59h1v1h-1zM10 60h1v1h-1zM35 60h1v1h-1zM24 61h1v1h-1zM89 62h1v1h-1zM86 68h1v1h-1zM14 69h1v1h-1zM83 71h1v1h-1zM21 75h1v1h-1zM22 76h1v1h-1zM77 76h1v1h-1zM75 77h1v1h-1zM25 78h1v1h-1zM27 79h1v1h-1zM67 81h1v1h-1zM37 82h1v1h-1zM63 82h1v1h-1zM40 83h1v1h-1zM42 83h1v1h-1zM57 83h1v1h-1zM60 83h1v1h-1z" /></svg>