<svg xmlns="http://www.w3.org/2000/svg" viewBox="0 0 100 100" width="1em" height="1em"><path fill="#43d4ea" d="M37 0h1v1h-1z" /><path fill="#45d2ea" d="M38 0h1v1h-1zM17 20h1v1h-1z" /><path fill="#44d1eb" d="M39 0h1v1h-1zM31 7h1v1h-1z" /><path fill="#43d5e8" d="M35 1h1v1h-1z" /><path fill="#45d4e9" d="M36 1h1v1h-1z" /><path fill="#45d3eb" d="M37 1h1v1h-1z" /><path fill="#45d1eb" d="M38 1h1v1h-1zM37 2h1v1h-1zM36 3h1v1h-1zM26 12h1v1h-1z" /><path fill="#45cfec" d="M39 1h1v1h-1zM38 2h1v1h-1zM37 3h1v1h-1zM17 22h1v1h-1z" /><path fill="#45cded" d="M40 1h1v1h-1zM39 2h1v1h-1zM16 24h1v1h-1z" /><path fill="#44d6e9" d="M34 2h1v1h-1zM33 3h1v1h-1zM32 4h1v1h-1zM31 5h1v1h-1zM30 6h1v1h-1zM29 7h1v1h-1zM16 19h1v1h-1zM15 20h1v1h-1zM14 21h1v1h-1z" /><path fill="#45d4ea" d="M35 2h1v1h-1zM34 3h1v1h-1zM33 4h1v1h-1zM32 5h1v1h-1zM31 6h1v1h-1zM30 7h1v1h-1zM29 8h1v1h-1zM28 9h1v1h-1zM16 20h1v1h-1zM15 21h1v1h-1z" /><path fill="#45d2eb" d="M36 2h1v1h-1zM35 3h1v1h-1zM34 4h1v1h-1zM33 5h1v1h-1zM32 6h1v1h-1zM28 10h1v1h-1zM27 11h1v1h-1zM16 21h1v1h-1zM15 22h1v1h-1z" /><path fill="#45cbed" d="M40 2h1v1h-1zM39 3h1v1h-1zM17 24h1v1h-1zM14 26h1v1h-1zM4 36h1v1h-1zM3 37h1v1h-1z" /><path fill="#46c9ee" d="M41 2h1v1h-1zM40 3h1v1h-1zM39 4h1v1h-1zM16 26h1v1h-1zM15 27h1v1h-1zM5 36h1v1h-1zM4 37h1v1h-1zM3 38h1v1h-1z" /><path fill="#46c7ee" d="M42 2h1v1h-1zM10 32h1v1h-1zM9 33h1v1h-1z" /><path fill="#43d8e8" d="M32 3h1v1h-1z" /><path fill="#45cdec" d="M38 3h1v1h-1z" /><path fill="#46c8ef" d="M41 3h1v1h-1zM28 15h1v1h-1zM27 16h1v1h-1zM26 17h1v1h-1zM8 34h1v1h-1zM7 35h1v1h-1zM6 36h1v1h-1zM5 37h1v1h-1z" /><path fill="#46c6f0" d="M42 3h1v1h-1zM41 4h1v1h-1zM27 17h1v1h-1zM26 18h1v1h-1zM9 34h1v1h-1zM8 35h1v1h-1zM7 36h1v1h-1zM6 37h1v1h-1zM5 38h1v1h-1z" /><path fill="#45c3f0" d="M43 3h1v1h-1zM2 42h1v1h-1z" /><path fill="#44d8e7" d="M31 4h1v1h-1z" /><path fill="#45d0eb" d="M35 4h1v1h-1zM34 5h1v1h-1zM16 22h1v1h-1zM15 23h1v1h-1z" /><path fill="#45ceeb" d="M36 4h1v1h-1z" /><path fill="#46c6ee" d="M40 4h1v1h-1z" /><path fill="#46c4f0" d="M42 4h1v1h-1zM28 17h1v1h-1zM27 18h1v1h-1zM26 19h1v1h-1zM12 32h1v1h-1zM11 33h1v1h-1zM10 34h1v1h-1zM9 35h1v1h-1zM8 36h1v1h-1zM5 39h1v1h-1zM4 40h1v1h-1z" /><path fill="#46c2f1" d="M43 4h1v1h-1zM42 5h1v1h-1zM28 18h1v1h-1zM27 19h1v1h-1zM26 20h1v1h-1zM11 34h1v1h-1zM10 35h1v1h-1zM4 41h1v1h-1zM3 42h1v1h-1z" /><path fill="#47c0f2" d="M44 4h1v1h-1zM43 5h1v1h-1zM28 19h1v1h-1zM27 20h1v1h-1zM26 21h1v1h-1zM5 41h1v1h-1zM4 42h1v1h-1zM3 43h1v1h-1z" /><path fill="#46bdf2" d="M45 4h1v1h-1z" /><path fill="#43d9e8" d="M29 5h1v1h-1z" /><path fill="#44d8e9" d="M30 5h1v1h-1z" /><path fill="#45cfeb" d="M35 5h1v1h-1zM33 6h1v1h-1zM32 7h1v1h-1z" /><path fill="#45c4ef" d="M41 5h1v1h-1zM7 37h1v1h-1z" /><path fill="#47bef3" d="M44 5h1v1h-1zM28 20h1v1h-1zM27 21h1v1h-1zM26 22h1v1h-1zM5 42h1v1h-1zM4 43h1v1h-1zM3 44h1v1h-1z" /><path fill="#47bcf3" d="M45 5h1v1h-1zM44 6h1v1h-1zM27 22h1v1h-1z" /><path fill="#47baf3" d="M46 5h1v1h-1z" /><path fill="#46b9f5" d="M47 5h1v1h-1z" /><path fill="#44dbe6" d="M27 6h1v1h-1z" /><path fill="#43d8e7" d="M28 6h1v1h-1zM17 17h1v1h-1z" /><path fill="#44d7e9" d="M29 6h1v1h-1zM28 7h1v1h-1zM27 8h1v1h-1zM26 9h1v1h-1zM25 10h1v1h-1zM24 11h1v1h-1zM22 13h1v1h-1z" /><path fill="#47bdf2" d="M43 6h1v1h-1z" /><path fill="#47bbf4" d="M45 6h1v1h-1zM28 22h1v1h-1zM18 31h1v1h-1zM17 32h1v1h-1z" /><path fill="#47b9f5" d="M46 6h1v1h-1zM45 7h1v1h-1z" /><path fill="#48b7f6" d="M47 6h1v1h-1zM46 7h1v1h-1z" /><path fill="#48b5f6" d="M48 6h1v1h-1zM47 7h1v1h-1zM5 46h1v1h-1z" /><path fill="#727cfd" d="M76 6h1v1h-1z" /><path fill="#7479fc" d="M77 6h1v1h-1zM75 8h1v1h-1z" /><path fill="#44dae6" d="M26 7h1v1h-1z" /><path fill="#44d9e8" d="M27 7h1v1h-1zM26 8h1v1h-1zM25 9h1v1h-1zM24 10h1v1h-1zM23 11h1v1h-1zM22 12h1v1h-1zM21 13h1v1h-1zM14 19h1v1h-1z" /><path fill="#47baf4" d="M44 7h1v1h-1zM18 32h1v1h-1zM4 45h1v1h-1zM3 46h1v1h-1z" /><path fill="#48b3f7" d="M48 7h1v1h-1zM47 8h1v1h-1zM7 46h1v1h-1zM6 47h1v1h-1z" /><path fill="#48b1f8" d="M49 7h1v1h-1zM48 8h1v1h-1zM9 45h1v1h-1zM8 46h1v1h-1zM7 47h1v1h-1zM6 48h1v1h-1zM5 49h1v1h-1z" /><path fill="#47b0f8" d="M50 7h1v1h-1zM47 9h1v1h-1zM2 52h1v1h-1z" /><path fill="#7579fd" d="M76 7h1v1h-1z" /><path fill="#7877fd" d="M77 7h1v1h-1zM76 8h1v1h-1zM75 9h1v1h-1z" /><path fill="#43dde6" d="M24 8h1v1h-1z" /><path fill="#44dbe7" d="M25 8h1v1h-1zM24 9h1v1h-1zM23 10h1v1h-1zM22 11h1v1h-1z" /><path fill="#44d5e9" d="M28 8h1v1h-1zM27 9h1v1h-1zM26 10h1v1h-1z" /><path fill="#44d2ea" d="M30 8h1v1h-1z" /><path fill="#47b4f6" d="M46 8h1v1h-1zM6 46h1v1h-1z" /><path fill="#48aff8" d="M49 8h1v1h-1z" /><path fill="#48aef9" d="M50 8h1v1h-1zM22 34h1v1h-1zM21 35h1v1h-1zM4 51h1v1h-1zM3 52h1v1h-1z" /><path fill="#49abf9" d="M51 8h1v1h-1z" /><path fill="#7a75fd" d="M77 8h1v1h-1zM76 9h1v1h-1z" /><path fill="#7c72fc" d="M78 8h1v1h-1zM30 53h1v1h-1z" /><path fill="#44dce7" d="M23 9h1v1h-1zM21 11h1v1h-1zM20 12h1v1h-1zM19 13h1v1h-1zM18 14h1v1h-1zM17 15h1v1h-1zM16 16h1v1h-1zM15 17h1v1h-1zM14 18h1v1h-1z" /><path fill="#48aef8" d="M48 9h1v1h-1z" /><path fill="#49aef9" d="M49 9h1v1h-1zM13 43h1v1h-1z" /><path fill="#49acfa" d="M50 9h1v1h-1zM49 10h1v1h-1zM38 20h1v1h-1zM14 43h1v1h-1zM13 44h1v1h-1zM12 45h1v1h-1zM3 53h1v1h-1z" /><path fill="#49aafb" d="M51 9h1v1h-1zM50 10h1v1h-1zM49 11h1v1h-1zM14 44h1v1h-1zM13 45h1v1h-1z" /><path fill="#7478fd" d="M74 9h1v1h-1z" /><path fill="#7d72fd" d="M77 9h1v1h-1zM76 10h1v1h-1zM75 11h1v1h-1zM74 12h1v1h-1z" /><path fill="#8070fd" d="M78 9h1v1h-1zM77 10h1v1h-1zM75 12h1v1h-1zM74 13h1v1h-1zM21 63h1v1h-1zM20 64h1v1h-1z" /><path fill="#826efd" d="M79 9h1v1h-1zM78 10h1v1h-1zM24 61h1v1h-1zM23 62h1v1h-1z" /><path fill="#42dee6" d="M21 10h1v1h-1z" /><path fill="#44dde7" d="M22 10h1v1h-1z" /><path fill="#45d3ea" d="M27 10h1v1h-1zM26 11h1v1h-1z" /><path fill="#49a8fb" d="M51 10h1v1h-1zM50 11h1v1h-1z" /><path fill="#7877fc" d="M74 10h1v1h-1zM73 11h1v1h-1z" /><path fill="#7b74fd" d="M75 10h1v1h-1zM74 11h1v1h-1zM73 12h1v1h-1zM71 14h1v1h-1zM16 66h1v1h-1z" /><path fill="#856bfd" d="M79 10h1v1h-1zM78 11h1v1h-1zM24 62h1v1h-1zM23 63h1v1h-1zM22 64h1v1h-1zM21 65h1v1h-1zM18 68h1v1h-1z" /><path fill="#43dfe4" d="M19 11h1v1h-1zM18 12h1v1h-1z" /><path fill="#43dee6" d="M20 11h1v1h-1z" /><path fill="#44d5e8" d="M25 11h1v1h-1z" /><path fill="#45d0ec" d="M28 11h1v1h-1zM27 12h1v1h-1zM26 13h1v1h-1z" /><path fill="#49a6fc" d="M51 11h1v1h-1zM50 12h1v1h-1zM49 13h1v1h-1zM40 21h1v1h-1z" /><path fill="#7f70fc" d="M76 11h1v1h-1z" /><path fill="#826efc" d="M77 11h1v1h-1z" /><path fill="#8869fc" d="M79 11h1v1h-1zM78 12h1v1h-1zM25 62h1v1h-1zM24 63h1v1h-1zM23 64h1v1h-1z" /><path fill="#8a66fb" d="M80 11h1v1h-1z" /><path fill="#44dee6" d="M19 12h1v1h-1zM18 13h1v1h-1zM17 14h1v1h-1zM16 15h1v1h-1zM15 16h1v1h-1z" /><path fill="#44dae7" d="M21 12h1v1h-1zM20 13h1v1h-1zM19 14h1v1h-1z" /><path fill="#43d7e9" d="M23 12h1v1h-1z" /><path fill="#45d2e9" d="M25 12h1v1h-1z" /><path fill="#45ceec" d="M28 12h1v1h-1zM27 13h1v1h-1zM16 23h1v1h-1zM15 24h1v1h-1z" /><path fill="#49a8fc" d="M49 12h1v1h-1z" /><path fill="#49a4fd" d="M51 12h1v1h-1zM50 13h1v1h-1zM49 14h1v1h-1z" /><path fill="#836cfd" d="M76 12h1v1h-1zM66 22h1v1h-1zM34 52h1v1h-1z" /><path fill="#8a67fc" d="M79 12h1v1h-1zM26 62h1v1h-1zM25 63h1v1h-1z" /><path fill="#8d65fc" d="M80 12h1v1h-1z" /><path fill="#8e61fb" d="M81 12h1v1h-1z" /><path fill="#43e2e5" d="M16 13h1v1h-1zM15 14h1v1h-1z" /><path fill="#43e0e5" d="M17 13h1v1h-1zM16 14h1v1h-1zM15 15h1v1h-1z" /><path fill="#45cced" d="M28 13h1v1h-1zM27 14h1v1h-1zM26 15h1v1h-1zM17 23h1v1h-1zM15 25h1v1h-1zM2 37h1v1h-1z" /><path fill="#4aa2fe" d="M51 13h1v1h-1zM50 14h1v1h-1zM49 15h1v1h-1zM26 37h1v1h-1z" /><path fill="#7a74fc" d="M72 13h1v1h-1zM17 65h1v1h-1z" /><path fill="#7e72fd" d="M73 13h1v1h-1zM72 14h1v1h-1zM71 15h1v1h-1zM18 65h1v1h-1zM17 66h1v1h-1z" /><path fill="#836cfc" d="M75 13h1v1h-1z" /><path fill="#8966fc" d="M78 13h1v1h-1z" /><path fill="#8d64fc" d="M79 13h1v1h-1z" /><path fill="#9062fc" d="M80 13h1v1h-1z" /><path fill="#925ffb" d="M81 13h1v1h-1zM74 20h1v1h-1z" /><path fill="#44d7e8" d="M20 14h1v1h-1zM14 20h1v1h-1z" /><path fill="#45ceed" d="M26 14h1v1h-1z" /><path fill="#46caee" d="M28 14h1v1h-1zM27 15h1v1h-1zM26 16h1v1h-1zM6 35h1v1h-1z" /><path fill="#4aa0fe" d="M51 14h1v1h-1z" /><path fill="#806ffd" d="M73 14h1v1h-1zM72 15h1v1h-1zM19 65h1v1h-1zM18 66h1v1h-1z" /><path fill="#836dfd" d="M74 14h1v1h-1zM73 15h1v1h-1zM72 16h1v1h-1zM71 17h1v1h-1zM22 63h1v1h-1zM21 64h1v1h-1zM20 65h1v1h-1zM19 66h1v1h-1zM18 67h1v1h-1zM16 69h1v1h-1z" /><path fill="#8f62fb" d="M79 14h1v1h-1z" /><path fill="#9260fc" d="M80 14h1v1h-1z" /><path fill="#955efc" d="M81 14h1v1h-1zM45 48h1v1h-1z" /><path fill="#965bfc" d="M82 14h1v1h-1z" /><path fill="#42e1e5" d="M14 15h1v1h-1z" /><path fill="#43d9e7" d="M18 15h1v1h-1z" /><path fill="#43d7e7" d="M19 15h1v1h-1z" /><path fill="#4aa0ff" d="M50 15h1v1h-1zM49 16h1v1h-1zM30 34h1v1h-1zM29 35h1v1h-1zM28 36h1v1h-1zM27 37h1v1h-1zM26 38h1v1h-1z" /><path fill="#4b9eff" d="M51 15h1v1h-1zM50 16h1v1h-1zM49 17h1v1h-1zM33 32h1v1h-1zM31 34h1v1h-1zM30 35h1v1h-1zM29 36h1v1h-1z" /><path fill="#856afd" d="M74 15h1v1h-1z" /><path fill="#9160fb" d="M79 15h1v1h-1zM70 23h1v1h-1z" /><path fill="#955dfc" d="M80 15h1v1h-1z" /><path fill="#985bfc" d="M81 15h1v1h-1zM45 49h1v1h-1z" /><path fill="#9a59fc" d="M82 15h1v1h-1zM81 16h1v1h-1zM47 48h1v1h-1zM46 49h1v1h-1zM45 50h1v1h-1z" /><path fill="#43dee4" d="M14 16h1v1h-1z" /><path fill="#43dae8" d="M17 16h1v1h-1z" /><path fill="#46c6ef" d="M28 16h1v1h-1zM17 26h1v1h-1zM13 30h1v1h-1zM11 32h1v1h-1zM10 33h1v1h-1z" /><path fill="#4e9cff" d="M51 16h1v1h-1zM50 17h1v1h-1zM49 18h1v1h-1zM33 33h1v1h-1zM32 34h1v1h-1zM31 35h1v1h-1zM30 36h1v1h-1z" /><path fill="#7d71fc" d="M70 16h1v1h-1z" /><path fill="#816ffd" d="M71 16h1v1h-1zM70 17h1v1h-1zM51 35h1v1h-1zM50 36h1v1h-1zM49 37h1v1h-1zM32 53h1v1h-1zM17 67h1v1h-1zM16 68h1v1h-1zM15 69h1v1h-1z" /><path fill="#856afc" d="M73 16h1v1h-1zM19 67h1v1h-1zM17 69h1v1h-1z" /><path fill="#975afb" d="M80 16h1v1h-1z" /><path fill="#9d57fc" d="M82 16h1v1h-1zM47 49h1v1h-1zM46 50h1v1h-1z" /><path fill="#9f54fa" d="M83 16h1v1h-1z" /><path fill="#44dde5" d="M14 17h1v1h-1z" /><path fill="#44dae8" d="M16 17h1v1h-1zM15 18h1v1h-1z" /><path fill="#509aff" d="M51 17h1v1h-1zM36 31h1v1h-1zM35 32h1v1h-1zM34 33h1v1h-1zM33 34h1v1h-1z" /><path fill="#7e71fd" d="M69 17h1v1h-1zM51 34h1v1h-1zM50 35h1v1h-1zM32 52h1v1h-1zM16 67h1v1h-1zM15 68h1v1h-1z" /><path fill="#866bfd" d="M72 17h1v1h-1zM20 66h1v1h-1z" /><path fill="#9d56fc" d="M81 17h1v1h-1z" /><path fill="#9f54fb" d="M82 17h1v1h-1zM79 20h1v1h-1zM48 49h1v1h-1zM47 50h1v1h-1z" /><path fill="#a252fb" d="M83 17h1v1h-1zM82 18h1v1h-1zM50 48h1v1h-1zM49 49h1v1h-1zM48 50h1v1h-1z" /><path fill="#a54ffa" d="M84 17h1v1h-1zM60 40h1v1h-1z" /><path fill="#44d8e8" d="M16 18h1v1h-1zM15 19h1v1h-1z" /><path fill="#43d6e9" d="M17 18h1v1h-1z" /><path fill="#5099ff" d="M50 18h1v1h-1zM32 35h1v1h-1z" /><path fill="#5397ff" d="M51 18h1v1h-1zM50 19h1v1h-1zM49 20h1v1h-1zM35 33h1v1h-1zM34 34h1v1h-1zM33 35h1v1h-1z" /><path fill="#806ffc" d="M69 18h1v1h-1zM33 52h1v1h-1z" /><path fill="#846dfd" d="M70 18h1v1h-1zM69 19h1v1h-1zM51 36h1v1h-1zM33 53h1v1h-1zM15 70h1v1h-1z" /><path fill="#866afc" d="M71 18h1v1h-1zM70 19h1v1h-1zM69 20h1v1h-1zM51 37h1v1h-1zM34 53h1v1h-1zM33 54h1v1h-1zM16 70h1v1h-1zM15 71h1v1h-1z" /><path fill="#8867fb" d="M72 18h1v1h-1zM33 55h1v1h-1z" /><path fill="#9f53fa" d="M81 18h1v1h-1z" /><path fill="#a550fb" d="M83 18h1v1h-1z" /><path fill="#a74dfb" d="M84 18h1v1h-1zM83 19h1v1h-1zM78 24h1v1h-1z" /><path fill="#45d3e9" d="M17 19h1v1h-1zM14 22h1v1h-1z" /><path fill="#5199ff" d="M49 19h1v1h-1zM31 36h1v1h-1zM30 37h1v1h-1zM28 39h1v1h-1zM27 40h1v1h-1zM26 41h1v1h-1z" /><path fill="#5695ff" d="M51 19h1v1h-1zM50 20h1v1h-1zM49 21h1v1h-1z" /><path fill="#816ffc" d="M68 19h1v1h-1zM14 70h1v1h-1z" /><path fill="#8868fb" d="M71 19h1v1h-1zM14 73h1v1h-1z" /><path fill="#a44efa" d="M82 19h1v1h-1z" /><path fill="#aa4bfb" d="M84 19h1v1h-1zM83 20h1v1h-1zM82 21h1v1h-1zM64 38h1v1h-1zM51 50h1v1h-1zM30 70h1v1h-1zM28 72h1v1h-1zM15 84h1v1h-1z" /><path fill="#ac4bf8" d="M85 19h1v1h-1zM53 49h1v1h-1zM52 50h1v1h-1zM16 84h1v1h-1z" /><path fill="#47aef9" d="M37 20h1v1h-1z" /><path fill="#49abfa" d="M39 20h1v1h-1zM24 34h1v1h-1zM23 35h1v1h-1zM22 36h1v1h-1zM11 46h1v1h-1zM4 53h1v1h-1zM3 54h1v1h-1z" /><path fill="#49a9fa" d="M40 20h1v1h-1z" /><path fill="#5892fe" d="M51 20h1v1h-1z" /><path fill="#846cfd" d="M68 20h1v1h-1zM50 37h1v1h-1zM49 38h1v1h-1zM32 54h1v1h-1z" /><path fill="#8968fc" d="M70 20h1v1h-1zM69 21h1v1h-1zM68 22h1v1h-1zM51 38h1v1h-1zM50 39h1v1h-1zM49 40h1v1h-1zM16 71h1v1h-1zM15 72h1v1h-1z" /><path fill="#8a65fb" d="M71 20h1v1h-1z" /><path fill="#8e63fb" d="M72 20h1v1h-1zM14 75h1v1h-1z" /><path fill="#9061fb" d="M73 20h1v1h-1z" /><path fill="#965dfb" d="M75 20h1v1h-1z" /><path fill="#975bfb" d="M76 20h1v1h-1z" /><path fill="#9b58fb" d="M77 20h1v1h-1z" /><path fill="#9d56fb" d="M78 20h1v1h-1z" /><path fill="#a152fb" d="M80 20h1v1h-1zM75 24h1v1h-1z" /><path fill="#a54efb" d="M81 20h1v1h-1z" /><path fill="#a84cfb" d="M82 20h1v1h-1zM77 25h1v1h-1zM76 26h1v1h-1z" /><path fill="#ac4bf7" d="M84 20h1v1h-1zM83 21h1v1h-1zM65 38h1v1h-1zM63 40h1v1h-1zM30 71h1v1h-1zM29 72h1v1h-1zM15 85h1v1h-1z" /><path fill="#ae4cf4" d="M85 20h1v1h-1zM33 69h1v1h-1zM32 70h1v1h-1zM31 71h1v1h-1zM16 85h1v1h-1z" /><path fill="#b14bef" d="M86 20h1v1h-1zM29 74h1v1h-1z" /><path fill="#45cfea" d="M17 21h1v1h-1z" /><path fill="#47bdf3" d="M28 21h1v1h-1zM17 31h1v1h-1zM16 32h1v1h-1z" /><path fill="#48abfa" d="M37 21h1v1h-1zM5 52h1v1h-1z" /><path fill="#49aafa" d="M38 21h1v1h-1zM9 48h1v1h-1z" /><path fill="#49a9fb" d="M39 21h1v1h-1zM38 22h1v1h-1zM24 35h1v1h-1zM23 36h1v1h-1zM12 46h1v1h-1zM4 54h1v1h-1zM3 55h1v1h-1z" /><path fill="#5992fe" d="M50 21h1v1h-1zM49 22h1v1h-1zM28 42h1v1h-1zM27 43h1v1h-1zM26 44h1v1h-1z" /><path fill="#5b90fe" d="M51 21h1v1h-1zM50 22h1v1h-1zM49 23h1v1h-1z" /><path fill="#846bfc" d="M67 21h1v1h-1z" /><path fill="#876afc" d="M68 21h1v1h-1zM67 22h1v1h-1zM50 38h1v1h-1zM49 39h1v1h-1z" /><path fill="#8c66fc" d="M70 21h1v1h-1zM16 72h1v1h-1z" /><path fill="#8e63fc" d="M71 21h1v1h-1zM70 22h1v1h-1zM51 40h1v1h-1zM17 72h1v1h-1zM16 73h1v1h-1zM15 74h1v1h-1z" /><path fill="#9161fc" d="M72 21h1v1h-1zM71 22h1v1h-1zM51 41h1v1h-1zM50 42h1v1h-1zM16 74h1v1h-1zM15 75h1v1h-1z" /><path fill="#935ffc" d="M73 21h1v1h-1zM72 22h1v1h-1z" /><path fill="#965dfc" d="M74 21h1v1h-1zM73 22h1v1h-1zM56 38h1v1h-1z" /><path fill="#985afc" d="M75 21h1v1h-1zM57 38h1v1h-1z" /><path fill="#9b58fc" d="M76 21h1v1h-1zM75 22h1v1h-1zM58 38h1v1h-1zM57 39h1v1h-1z" /><path fill="#9e56fc" d="M77 21h1v1h-1zM76 22h1v1h-1zM59 38h1v1h-1zM58 39h1v1h-1z" /><path fill="#a054fb" d="M78 21h1v1h-1zM77 22h1v1h-1zM60 38h1v1h-1zM59 39h1v1h-1z" /><path fill="#a351fb" d="M79 21h1v1h-1zM78 22h1v1h-1zM77 23h1v1h-1zM76 24h1v1h-1zM61 38h1v1h-1zM60 39h1v1h-1z" /><path fill="#a54ffb" d="M80 21h1v1h-1zM79 22h1v1h-1zM62 38h1v1h-1zM61 39h1v1h-1z" /><path fill="#a84dfb" d="M81 21h1v1h-1zM80 22h1v1h-1zM79 23h1v1h-1zM63 38h1v1h-1zM62 39h1v1h-1z" /><path fill="#af4cf4" d="M84 21h1v1h-1zM66 38h1v1h-1zM30 72h1v1h-1z" /><path fill="#b14cf0" d="M85 21h1v1h-1zM84 22h1v1h-1zM67 38h1v1h-1zM66 39h1v1h-1zM49 55h1v1h-1zM32 71h1v1h-1zM31 72h1v1h-1zM30 73h1v1h-1z" /><path fill="#b34cec" d="M86 21h1v1h-1z" /><path fill="#48a9fa" d="M37 22h1v1h-1z" /><path fill="#49a7fc" d="M39 22h1v1h-1zM38 23h1v1h-1zM24 36h1v1h-1zM4 55h1v1h-1zM3 56h1v1h-1z" /><path fill="#49a5fd" d="M40 22h1v1h-1zM39 23h1v1h-1zM38 24h1v1h-1zM25 36h1v1h-1zM24 37h1v1h-1zM4 56h1v1h-1zM3 57h1v1h-1z" /><path fill="#5e8efe" d="M51 22h1v1h-1zM50 23h1v1h-1z" /><path fill="#8c65fc" d="M69 22h1v1h-1zM51 39h1v1h-1zM50 40h1v1h-1zM49 41h1v1h-1zM26 63h1v1h-1zM15 73h1v1h-1z" /><path fill="#995afc" d="M74 22h1v1h-1zM56 39h1v1h-1zM16 77h1v1h-1zM15 78h1v1h-1z" /><path fill="#aa4bfa" d="M81 22h1v1h-1zM80 23h1v1h-1zM63 39h1v1h-1zM27 73h1v1h-1z" /><path fill="#ad4bf7" d="M82 22h1v1h-1zM64 39h1v1h-1zM28 73h1v1h-1zM27 74h1v1h-1z" /><path fill="#af4cf3" d="M83 22h1v1h-1zM82 23h1v1h-1zM65 39h1v1h-1zM29 73h1v1h-1zM28 74h1v1h-1zM27 75h1v1h-1z" /><path fill="#b34dec" d="M85 22h1v1h-1zM67 39h1v1h-1zM49 56h1v1h-1zM30 74h1v1h-1z" /><path fill="#b54de9" d="M86 22h1v1h-1zM85 23h1v1h-1zM69 38h1v1h-1zM68 39h1v1h-1zM51 55h1v1h-1zM50 56h1v1h-1zM49 57h1v1h-1z" /><path fill="#b74ce5" d="M87 22h1v1h-1zM20 85h1v1h-1z" /><path fill="#45d1ea" d="M14 23h1v1h-1z" /><path fill="#48a8fb" d="M37 23h1v1h-1z" /><path fill="#49a3fd" d="M40 23h1v1h-1z" /><path fill="#608bfe" d="M51 23h1v1h-1z" /><path fill="#876afb" d="M66 23h1v1h-1zM14 72h1v1h-1z" /><path fill="#8967fb" d="M67 23h1v1h-1zM24 64h1v1h-1z" /><path fill="#8b65fb" d="M68 23h1v1h-1z" /><path fill="#8d63fb" d="M69 23h1v1h-1z" /><path fill="#935efb" d="M71 23h1v1h-1z" /><path fill="#965cfb" d="M72 23h1v1h-1zM14 78h1v1h-1z" /><path fill="#995afb" d="M73 23h1v1h-1z" /><path fill="#9a57fb" d="M74 23h1v1h-1z" /><path fill="#9e56fb" d="M75 23h1v1h-1z" /><path fill="#a053fb" d="M76 23h1v1h-1z" /><path fill="#a44ffa" d="M78 23h1v1h-1z" /><path fill="#ad4bf6" d="M81 23h1v1h-1z" /><path fill="#b04cf0" d="M83 23h1v1h-1zM65 40h1v1h-1z" /><path fill="#b24dec" d="M84 23h1v1h-1zM31 73h1v1h-1z" /><path fill="#b74de4" d="M86 23h1v1h-1z" /><path fill="#b94ee2" d="M87 23h1v1h-1z" /><path fill="#45d0ea" d="M14 24h1v1h-1z" /><path fill="#48a7fb" d="M37 24h1v1h-1z" /><path fill="#4aa3fd" d="M39 24h1v1h-1zM38 25h1v1h-1zM25 37h1v1h-1zM24 38h1v1h-1zM5 56h1v1h-1zM4 57h1v1h-1zM3 58h1v1h-1z" /><path fill="#49a0fd" d="M40 24h1v1h-1z" /><path fill="#5e8dfe" d="M49 24h1v1h-1z" /><path fill="#618bfe" d="M50 24h1v1h-1zM49 25h1v1h-1zM28 45h1v1h-1zM27 46h1v1h-1zM9 63h1v1h-1z" /><path fill="#6389fe" d="M51 24h1v1h-1zM50 25h1v1h-1zM49 26h1v1h-1z" /><path fill="#a64ffb" d="M77 24h1v1h-1zM76 25h1v1h-1zM75 26h1v1h-1z" /><path fill="#45cdeb" d="M14 25h1v1h-1z" /><path fill="#46cbee" d="M16 25h1v1h-1zM15 26h1v1h-1z" /><path fill="#46c9ed" d="M17 25h1v1h-1z" /><path fill="#48a5fc" d="M37 25h1v1h-1z" /><path fill="#4aa1fe" d="M39 25h1v1h-1zM38 26h1v1h-1zM25 38h1v1h-1zM4 58h1v1h-1zM3 59h1v1h-1z" /><path fill="#499fff" d="M40 25h1v1h-1zM37 28h1v1h-1z" /><path fill="#6687fe" d="M51 25h1v1h-1z" /><path fill="#a350fb" d="M75 25h1v1h-1z" /><path fill="#ab4af9" d="M78 25h1v1h-1z" /><path fill="#49a2fd" d="M37 26h1v1h-1zM27 36h1v1h-1z" /><path fill="#4a9fff" d="M39 26h1v1h-1zM38 27h1v1h-1zM5 58h1v1h-1zM4 59h1v1h-1zM3 60h1v1h-1z" /><path fill="#4c9dff" d="M40 26h1v1h-1zM27 38h1v1h-1zM26 39h1v1h-1zM4 60h1v1h-1zM2 62h1v1h-1z" /><path fill="#6686fe" d="M50 26h1v1h-1zM49 27h1v1h-1z" /><path fill="#6984fe" d="M51 26h1v1h-1zM50 27h1v1h-1zM49 28h1v1h-1zM28 48h1v1h-1zM10 65h1v1h-1z" /><path fill="#ab4bfa" d="M77 26h1v1h-1z" /><path fill="#ac4cf6" d="M78 26h1v1h-1z" /><path fill="#45caee" d="M14 27h1v1h-1z" /><path fill="#46c7ef" d="M16 27h1v1h-1zM15 28h1v1h-1zM4 38h1v1h-1zM3 39h1v1h-1z" /><path fill="#46c5f0" d="M17 27h1v1h-1zM16 28h1v1h-1zM15 29h1v1h-1zM13 31h1v1h-1zM4 39h1v1h-1zM3 40h1v1h-1z" /><path fill="#49a1fd" d="M37 27h1v1h-1z" /><path fill="#4d9dff" d="M39 27h1v1h-1zM38 28h1v1h-1zM3 61h1v1h-1z" /><path fill="#4f9aff" d="M40 27h1v1h-1zM39 28h1v1h-1zM38 29h1v1h-1zM4 61h1v1h-1zM3 62h1v1h-1z" /><path fill="#6b82fe" d="M51 27h1v1h-1zM50 28h1v1h-1z" /><path fill="#a94bfb" d="M75 27h1v1h-1z" /><path fill="#ab4bf9" d="M76 27h1v1h-1zM62 40h1v1h-1zM26 74h1v1h-1z" /><path fill="#ad4cf6" d="M77 27h1v1h-1zM76 28h1v1h-1z" /><path fill="#af4cf2" d="M78 27h1v1h-1z" /><path fill="#45c7ef" d="M14 28h1v1h-1z" /><path fill="#46c2f0" d="M17 28h1v1h-1z" /><path fill="#5297ff" d="M40 28h1v1h-1z" /><path fill="#6e7ffd" d="M51 28h1v1h-1zM50 29h1v1h-1zM49 30h1v1h-1zM12 65h1v1h-1z" /><path fill="#ab4af8" d="M75 28h1v1h-1z" /><path fill="#b04cf2" d="M77 28h1v1h-1zM76 29h1v1h-1zM56 48h1v1h-1z" /><path fill="#b14cee" d="M78 28h1v1h-1z" /><path fill="#45c6ef" d="M14 29h1v1h-1z" /><path fill="#46c3f1" d="M16 29h1v1h-1zM15 30h1v1h-1zM14 31h1v1h-1zM13 32h1v1h-1zM12 33h1v1h-1zM3 41h1v1h-1z" /><path fill="#46c1f0" d="M17 29h1v1h-1z" /><path fill="#4d9bff" d="M37 29h1v1h-1zM35 31h1v1h-1z" /><path fill="#5298ff" d="M39 29h1v1h-1zM38 30h1v1h-1zM37 31h1v1h-1zM36 32h1v1h-1zM5 61h1v1h-1zM4 62h1v1h-1z" /><path fill="#5596ff" d="M40 29h1v1h-1zM39 30h1v1h-1zM4 63h1v1h-1z" /><path fill="#6c82fe" d="M49 29h1v1h-1z" /><path fill="#717dfd" d="M51 29h1v1h-1zM50 30h1v1h-1zM49 31h1v1h-1zM29 50h1v1h-1zM12 66h1v1h-1z" /><path fill="#ac4bf5" d="M75 29h1v1h-1z" /><path fill="#b24cee" d="M77 29h1v1h-1zM76 30h1v1h-1zM57 48h1v1h-1zM56 49h1v1h-1zM55 50h1v1h-1zM38 66h1v1h-1zM37 67h1v1h-1z" /><path fill="#b44dea" d="M78 29h1v1h-1zM75 32h1v1h-1zM57 49h1v1h-1zM39 66h1v1h-1z" /><path fill="#45c5ef" d="M14 30h1v1h-1zM2 41h1v1h-1z" /><path fill="#46c1f1" d="M16 30h1v1h-1zM8 37h1v1h-1z" /><path fill="#46bef2" d="M17 30h1v1h-1z" /><path fill="#4d9cff" d="M36 30h1v1h-1zM34 32h1v1h-1z" /><path fill="#4f99ff" d="M37 30h1v1h-1z" /><path fill="#5793fd" d="M40 30h1v1h-1z" /><path fill="#737bfd" d="M51 30h1v1h-1z" /><path fill="#af4bf2" d="M75 30h1v1h-1z" /><path fill="#b44deb" d="M77 30h1v1h-1zM76 31h1v1h-1zM58 48h1v1h-1zM41 64h1v1h-1zM40 65h1v1h-1z" /><path fill="#b54de6" d="M78 30h1v1h-1z" /><path fill="#46c5ee" d="M12 31h1v1h-1z" /><path fill="#47c1f2" d="M15 31h1v1h-1zM14 32h1v1h-1zM13 33h1v1h-1z" /><path fill="#47bff2" d="M16 31h1v1h-1zM15 32h1v1h-1z" /><path fill="#46baf4" d="M19 31h1v1h-1zM2 47h1v1h-1z" /><path fill="#5595ff" d="M38 31h1v1h-1zM37 32h1v1h-1zM36 33h1v1h-1zM35 34h1v1h-1zM33 36h1v1h-1z" /><path fill="#5793fe" d="M39 31h1v1h-1zM5 63h1v1h-1z" /><path fill="#5991fd" d="M40 31h1v1h-1z" /><path fill="#747bfd" d="M50 31h1v1h-1zM49 32h1v1h-1zM13 66h1v1h-1z" /><path fill="#7678fd" d="M51 31h1v1h-1zM50 32h1v1h-1zM49 33h1v1h-1zM31 50h1v1h-1zM14 66h1v1h-1zM13 67h1v1h-1z" /><path fill="#b14bed" d="M75 31h1v1h-1zM40 64h1v1h-1zM19 84h1v1h-1z" /><path fill="#b64de7" d="M77 31h1v1h-1zM59 48h1v1h-1zM42 64h1v1h-1zM41 65h1v1h-1z" /><path fill="#b94de4" d="M78 31h1v1h-1zM60 48h1v1h-1zM42 65h1v1h-1z" /><path fill="#47b8f5" d="M19 32h1v1h-1zM18 33h1v1h-1zM4 46h1v1h-1zM3 47h1v1h-1z" /><path fill="#48b5f5" d="M20 32h1v1h-1z" /><path fill="#5893fe" d="M38 32h1v1h-1z" /><path fill="#5990fd" d="M39 32h1v1h-1z" /><path fill="#7976fd" d="M51 32h1v1h-1zM50 33h1v1h-1zM49 34h1v1h-1zM31 51h1v1h-1zM30 52h1v1h-1zM14 67h1v1h-1z" /><path fill="#b74de7" d="M76 32h1v1h-1zM58 49h1v1h-1zM57 50h1v1h-1zM40 66h1v1h-1zM39 67h1v1h-1z" /><path fill="#b94ee3" d="M77 32h1v1h-1zM76 33h1v1h-1zM59 49h1v1h-1zM58 50h1v1h-1zM41 66h1v1h-1zM40 67h1v1h-1zM20 86h1v1h-1zM19 87h1v1h-1z" /><path fill="#ba4de0" d="M78 32h1v1h-1z" /><path fill="#45c9ed" d="M8 33h1v1h-1z" /><path fill="#46bef1" d="M14 33h1v1h-1z" /><path fill="#47bbf3" d="M16 33h1v1h-1zM5 43h1v1h-1z" /><path fill="#47b8f3" d="M17 33h1v1h-1z" /><path fill="#48b6f6" d="M19 33h1v1h-1zM4 47h1v1h-1zM3 48h1v1h-1z" /><path fill="#48b4f7" d="M20 33h1v1h-1zM19 34h1v1h-1zM5 47h1v1h-1zM4 48h1v1h-1zM3 49h1v1h-1z" /><path fill="#48b2f7" d="M21 33h1v1h-1zM20 34h1v1h-1zM5 48h1v1h-1zM4 49h1v1h-1zM3 50h1v1h-1z" /><path fill="#48b0f7" d="M22 33h1v1h-1z" /><path fill="#4a9dff" d="M32 33h1v1h-1z" /><path fill="#5892fd" d="M37 33h1v1h-1zM36 34h1v1h-1z" /><path fill="#7c74fd" d="M51 33h1v1h-1zM50 34h1v1h-1zM15 67h1v1h-1zM14 68h1v1h-1z" /><path fill="#b64de6" d="M75 33h1v1h-1zM35 71h1v1h-1z" /><path fill="#bb4ee0" d="M77 33h1v1h-1zM76 34h1v1h-1zM61 48h1v1h-1zM60 49h1v1h-1zM59 50h1v1h-1zM44 64h1v1h-1zM43 65h1v1h-1zM42 66h1v1h-1z" /><path fill="#bd4ddb" d="M78 33h1v1h-1zM20 88h1v1h-1z" /><path fill="#46caed" d="M7 34h1v1h-1z" /><path fill="#47c1f1" d="M12 34h1v1h-1z" /><path fill="#46bff2" d="M13 34h1v1h-1z" /><path fill="#47b6f6" d="M18 34h1v1h-1z" /><path fill="#48b0f8" d="M21 34h1v1h-1zM11 43h1v1h-1zM4 50h1v1h-1zM3 51h1v1h-1z" /><path fill="#48adf9" d="M23 34h1v1h-1z" /><path fill="#b94de3" d="M75 34h1v1h-1zM39 68h1v1h-1z" /><path fill="#bd4edc" d="M77 34h1v1h-1zM61 49h1v1h-1zM60 50h1v1h-1zM44 65h1v1h-1z" /><path fill="#bf4ed8" d="M78 34h1v1h-1z" /><path fill="#45caec" d="M5 35h1v1h-1z" /><path fill="#46c0f1" d="M11 35h1v1h-1z" /><path fill="#48aff7" d="M20 35h1v1h-1z" /><path fill="#49adfa" d="M22 35h1v1h-1zM4 52h1v1h-1z" /><path fill="#49a6fb" d="M25 35h1v1h-1zM23 37h1v1h-1zM2 57h1v1h-1z" /><path fill="#5495ff" d="M34 35h1v1h-1z" /><path fill="#7c73fd" d="M49 35h1v1h-1zM31 52h1v1h-1z" /><path fill="#bb4dde" d="M75 35h1v1h-1z" /><path fill="#be4edc" d="M76 35h1v1h-1zM21 87h1v1h-1z" /><path fill="#c04fd8" d="M77 35h1v1h-1zM76 36h1v1h-1zM75 37h1v1h-1zM74 38h1v1h-1zM73 39h1v1h-1zM22 87h1v1h-1zM21 88h1v1h-1z" /><path fill="#c24ed5" d="M78 35h1v1h-1z" /><path fill="#44ccec" d="M3 36h1v1h-1z" /><path fill="#45c2f1" d="M9 36h1v1h-1z" /><path fill="#48abf9" d="M21 36h1v1h-1z" /><path fill="#4aa2fc" d="M26 36h1v1h-1z" /><path fill="#5296ff" d="M32 36h1v1h-1z" /><path fill="#7f71fd" d="M49 36h1v1h-1zM31 53h1v1h-1z" /><path fill="#be4ddb" d="M75 36h1v1h-1z" /><path fill="#c24fd5" d="M77 36h1v1h-1zM62 50h1v1h-1z" /><path fill="#c34ed1" d="M78 36h1v1h-1z" /><path fill="#4c9eff" d="M28 37h1v1h-1z" /><path fill="#4e9bff" d="M29 37h1v1h-1zM28 38h1v1h-1zM27 39h1v1h-1z" /><path fill="#5396ff" d="M31 37h1v1h-1z" /><path fill="#c24fd4" d="M76 37h1v1h-1zM75 38h1v1h-1zM74 39h1v1h-1zM22 88h1v1h-1z" /><path fill="#c44fd1" d="M77 37h1v1h-1zM23 88h1v1h-1z" /><path fill="#c54fcd" d="M78 37h1v1h-1z" /><path fill="#44caed" d="M2 38h1v1h-1z" /><path fill="#46c3ef" d="M6 38h1v1h-1z" /><path fill="#5198ff" d="M29 38h1v1h-1z" /><path fill="#b34ded" d="M68 38h1v1h-1zM50 55h1v1h-1zM33 71h1v1h-1zM32 72h1v1h-1z" /><path fill="#b74de6" d="M70 38h1v1h-1zM38 68h1v1h-1zM37 69h1v1h-1zM19 86h1v1h-1z" /><path fill="#ba4ee2" d="M71 38h1v1h-1zM70 39h1v1h-1zM69 40h1v1h-1zM51 57h1v1h-1zM50 58h1v1h-1z" /><path fill="#bc4edf" d="M72 38h1v1h-1z" /><path fill="#be4edb" d="M73 38h1v1h-1zM72 39h1v1h-1z" /><path fill="#c450d1" d="M76 38h1v1h-1zM22 89h1v1h-1z" /><path fill="#c750cd" d="M77 38h1v1h-1zM76 39h1v1h-1zM56 58h1v1h-1zM24 88h1v1h-1zM23 89h1v1h-1z" /><path fill="#c84fc9" d="M78 38h1v1h-1z" /><path fill="#45c8ed" d="M2 39h1v1h-1z" /><path fill="#b74de5" d="M69 39h1v1h-1zM51 56h1v1h-1z" /><path fill="#bc4ede" d="M71 39h1v1h-1zM51 58h1v1h-1zM50 59h1v1h-1zM49 60h1v1h-1z" /><path fill="#c550d1" d="M75 39h1v1h-1z" /><path fill="#c950ca" d="M77 39h1v1h-1zM24 89h1v1h-1z" /><path fill="#ca51c5" d="M78 39h1v1h-1z" /><path fill="#45c7ee" d="M2 40h1v1h-1z" /><path fill="#45c1f0" d="M5 40h1v1h-1z" /><path fill="#4f9bff" d="M26 40h1v1h-1zM5 60h1v1h-1z" /><path fill="#5497ff" d="M28 40h1v1h-1z" /><path fill="#9b57fb" d="M56 40h1v1h-1zM14 80h1v1h-1z" /><path fill="#9d55fb" d="M57 40h1v1h-1z" /><path fill="#9f52fa" d="M58 40h1v1h-1z" /><path fill="#a251fa" d="M59 40h1v1h-1z" /><path fill="#a84dfa" d="M61 40h1v1h-1z" /><path fill="#ae4cf3" d="M64 40h1v1h-1z" /><path fill="#b24deb" d="M66 40h1v1h-1z" /><path fill="#b54de8" d="M67 40h1v1h-1zM44 62h1v1h-1z" /><path fill="#b84de5" d="M68 40h1v1h-1zM50 57h1v1h-1zM49 58h1v1h-1zM48 59h1v1h-1zM47 60h1v1h-1z" /><path fill="#bb4edd" d="M70 40h1v1h-1z" /><path fill="#bd4eda" d="M71 40h1v1h-1z" /><path fill="#bf4fd7" d="M72 40h1v1h-1z" /><path fill="#c34fd4" d="M73 40h1v1h-1z" /><path fill="#c550cf" d="M74 40h1v1h-1zM51 62h1v1h-1zM50 63h1v1h-1z" /><path fill="#c750cc" d="M75 40h1v1h-1z" /><path fill="#c950c9" d="M76 40h1v1h-1zM57 58h1v1h-1zM56 59h1v1h-1z" /><path fill="#ca51c6" d="M77 40h1v1h-1z" /><path fill="#cc51c1" d="M78 40h1v1h-1z" /><path fill="#dd54aa" d="M85 40h1v1h-1zM84 41h1v1h-1zM83 42h1v1h-1zM66 58h1v1h-1zM65 59h1v1h-1zM50 73h1v1h-1zM49 74h1v1h-1zM30 92h1v1h-1zM29 93h1v1h-1z" /><path fill="#df54a6" d="M86 40h1v1h-1zM85 41h1v1h-1zM84 42h1v1h-1zM83 43h1v1h-1zM82 44h1v1h-1zM67 58h1v1h-1zM66 59h1v1h-1zM65 60h1v1h-1zM50 74h1v1h-1zM49 75h1v1h-1zM30 93h1v1h-1z" /><path fill="#e053a3" d="M87 40h1v1h-1z" /><path fill="#e3549f" d="M88 40h1v1h-1z" /><path fill="#e5559c" d="M89 40h1v1h-1z" /><path fill="#e85698" d="M90 40h1v1h-1zM89 41h1v1h-1zM88 42h1v1h-1zM71 58h1v1h-1zM70 59h1v1h-1zM69 60h1v1h-1zM51 77h1v1h-1zM50 78h1v1h-1zM49 79h1v1h-1zM33 94h1v1h-1zM32 95h1v1h-1z" /><path fill="#5496ff" d="M27 41h1v1h-1zM26 42h1v1h-1zM5 62h1v1h-1z" /><path fill="#5694fe" d="M28 41h1v1h-1z" /><path fill="#8f63fc" d="M50 41h1v1h-1zM49 42h1v1h-1z" /><path fill="#da52ad" d="M83 41h1v1h-1zM34 87h1v1h-1z" /><path fill="#e154a3" d="M86 41h1v1h-1zM85 42h1v1h-1zM68 58h1v1h-1zM67 59h1v1h-1zM51 74h1v1h-1zM50 75h1v1h-1zM49 76h1v1h-1zM31 93h1v1h-1z" /><path fill="#e3559f" d="M87 41h1v1h-1zM69 58h1v1h-1zM51 75h1v1h-1z" /><path fill="#e6559c" d="M88 41h1v1h-1zM87 42h1v1h-1zM70 58h1v1h-1zM69 59h1v1h-1zM51 76h1v1h-1z" /><path fill="#ea5695" d="M90 41h1v1h-1zM89 42h1v1h-1zM72 58h1v1h-1zM71 59h1v1h-1z" /><path fill="#ec5691" d="M91 41h1v1h-1zM90 42h1v1h-1zM89 43h1v1h-1zM73 58h1v1h-1zM72 59h1v1h-1zM71 60h1v1h-1z" /><path fill="#ee578e" d="M92 41h1v1h-1zM91 42h1v1h-1zM74 58h1v1h-1zM73 59h1v1h-1z" /><path fill="#47aff8" d="M13 42h1v1h-1zM5 50h1v1h-1z" /><path fill="#47aef8" d="M14 42h1v1h-1zM2 53h1v1h-1z" /><path fill="#5794fe" d="M27 42h1v1h-1zM26 43h1v1h-1zM6 62h1v1h-1z" /><path fill="#945efc" d="M51 42h1v1h-1zM50 43h1v1h-1zM16 75h1v1h-1zM15 76h1v1h-1z" /><path fill="#db52ad" d="M82 42h1v1h-1zM30 91h1v1h-1zM28 93h1v1h-1z" /><path fill="#e4559f" d="M86 42h1v1h-1zM85 43h1v1h-1zM68 59h1v1h-1zM67 60h1v1h-1zM50 76h1v1h-1zM49 77h1v1h-1zM32 93h1v1h-1zM31 94h1v1h-1z" /><path fill="#f1578a" d="M92 42h1v1h-1zM91 43h1v1h-1zM74 59h1v1h-1zM73 60h1v1h-1zM36 95h1v1h-1zM35 96h1v1h-1z" /><path fill="#f25786" d="M93 42h1v1h-1z" /><path fill="#45c0f0" d="M2 43h1v1h-1z" /><path fill="#48aff9" d="M12 43h1v1h-1zM11 44h1v1h-1zM10 45h1v1h-1zM9 46h1v1h-1zM8 47h1v1h-1zM7 48h1v1h-1zM6 49h1v1h-1z" /><path fill="#48aafb" d="M15 43h1v1h-1z" /><path fill="#5c8ffe" d="M28 43h1v1h-1zM27 44h1v1h-1zM26 45h1v1h-1zM7 63h1v1h-1z" /><path fill="#9160fc" d="M49 43h1v1h-1zM17 73h1v1h-1z" /><path fill="#975cfc" d="M51 43h1v1h-1zM15 77h1v1h-1z" /><path fill="#da52ac" d="M81 43h1v1h-1z" /><path fill="#dd54a9" d="M82 43h1v1h-1zM81 44h1v1h-1zM80 45h1v1h-1zM79 46h1v1h-1zM64 60h1v1h-1z" /><path fill="#e154a2" d="M84 43h1v1h-1zM66 60h1v1h-1zM30 94h1v1h-1z" /><path fill="#e5559a" d="M86 43h1v1h-1z" /><path fill="#e75597" d="M87 43h1v1h-1z" /><path fill="#e95694" d="M88 43h1v1h-1z" /><path fill="#ee568d" d="M90 43h1v1h-1z" /><path fill="#f35786" d="M92 43h1v1h-1zM74 60h1v1h-1zM36 96h1v1h-1z" /><path fill="#f55883" d="M93 43h1v1h-1zM92 44h1v1h-1zM77 58h1v1h-1zM76 59h1v1h-1zM75 60h1v1h-1zM37 96h1v1h-1z" /><path fill="#f75880" d="M94 43h1v1h-1zM77 59h1v1h-1z" /><path fill="#46bff1" d="M2 44h1v1h-1z" /><path fill="#47bcf4" d="M4 44h1v1h-1zM3 45h1v1h-1z" /><path fill="#47b9f3" d="M5 44h1v1h-1z" /><path fill="#47b1f7" d="M10 44h1v1h-1zM2 51h1v1h-1z" /><path fill="#49adf9" d="M12 44h1v1h-1zM11 45h1v1h-1zM10 46h1v1h-1zM9 47h1v1h-1zM8 48h1v1h-1z" /><path fill="#48a7fa" d="M15 44h1v1h-1z" /><path fill="#5f8dfe" d="M28 44h1v1h-1zM27 45h1v1h-1zM26 46h1v1h-1zM8 63h1v1h-1zM7 64h1v1h-1z" /><path fill="#db53ac" d="M80 44h1v1h-1z" /><path fill="#e254a2" d="M83 44h1v1h-1z" /><path fill="#e3549e" d="M84 44h1v1h-1z" /><path fill="#f35686" d="M91 44h1v1h-1z" /><path fill="#f7587f" d="M93 44h1v1h-1zM92 45h1v1h-1zM78 58h1v1h-1zM76 60h1v1h-1zM75 61h1v1h-1z" /><path fill="#fa597c" d="M94 44h1v1h-1zM93 45h1v1h-1zM76 61h1v1h-1zM39 96h1v1h-1z" /><path fill="#fb5977" d="M95 44h1v1h-1z" /><path fill="#46bdf3" d="M2 45h1v1h-1z" /><path fill="#47b7f5" d="M5 45h1v1h-1z" /><path fill="#47b2f6" d="M8 45h1v1h-1z" /><path fill="#48a8fa" d="M14 45h1v1h-1z" /><path fill="#e054a5" d="M81 45h1v1h-1zM80 46h1v1h-1zM78 48h1v1h-1zM77 49h1v1h-1z" /><path fill="#e255a2" d="M82 45h1v1h-1zM81 46h1v1h-1zM80 47h1v1h-1z" /><path fill="#e3559d" d="M83 45h1v1h-1z" /><path fill="#fc5978" d="M94 45h1v1h-1zM77 61h1v1h-1zM76 62h1v1h-1zM41 95h1v1h-1zM40 96h1v1h-1zM39 97h1v1h-1zM38 98h1v1h-1zM37 99h1v1h-1z" /><path fill="#fc5a76" d="M95 45h1v1h-1zM94 46h1v1h-1zM77 62h1v1h-1zM76 63h1v1h-1zM41 96h1v1h-1zM40 97h1v1h-1zM39 98h1v1h-1z" /><path fill="#fb5974" d="M96 45h1v1h-1zM83 57h1v1h-1z" /><path fill="#46bcf4" d="M2 46h1v1h-1z" /><path fill="#6488fe" d="M28 46h1v1h-1zM27 47h1v1h-1zM26 48h1v1h-1zM25 49h1v1h-1zM9 64h1v1h-1zM8 65h1v1h-1z" /><path fill="#e4559d" d="M82 46h1v1h-1z" /><path fill="#fc5977" d="M93 46h1v1h-1zM84 55h1v1h-1zM83 56h1v1h-1zM51 86h1v1h-1zM50 87h1v1h-1zM49 88h1v1h-1zM45 92h1v1h-1zM44 93h1v1h-1z" /><path fill="#fc5a74" d="M95 46h1v1h-1zM94 47h1v1h-1zM77 63h1v1h-1zM76 64h1v1h-1zM43 95h1v1h-1zM42 96h1v1h-1zM41 97h1v1h-1z" /><path fill="#fb5b71" d="M96 46h1v1h-1zM94 48h1v1h-1zM75 66h1v1h-1z" /><path fill="#48aaf9" d="M10 47h1v1h-1z" /><path fill="#628afe" d="M26 47h1v1h-1zM22 51h1v1h-1zM21 52h1v1h-1zM20 53h1v1h-1zM8 64h1v1h-1z" /><path fill="#6786fe" d="M28 47h1v1h-1zM27 48h1v1h-1zM26 49h1v1h-1zM25 50h1v1h-1zM10 64h1v1h-1zM9 65h1v1h-1z" /><path fill="#df54a5" d="M79 47h1v1h-1zM31 92h1v1h-1z" /><path fill="#e4559e" d="M81 47h1v1h-1zM80 48h1v1h-1zM79 49h1v1h-1z" /><path fill="#e6559b" d="M82 47h1v1h-1zM68 60h1v1h-1zM50 77h1v1h-1zM49 78h1v1h-1zM33 93h1v1h-1zM32 94h1v1h-1z" /><path fill="#fc5b72" d="M95 47h1v1h-1zM77 64h1v1h-1zM76 65h1v1h-1z" /><path fill="#fc5b70" d="M96 47h1v1h-1zM95 48h1v1h-1zM77 65h1v1h-1zM76 66h1v1h-1z" /><path fill="#46b8f5" d="M2 48h1v1h-1z" /><path fill="#628afd" d="M25 48h1v1h-1z" /><path fill="#975bfc" d="M46 48h1v1h-1z" /><path fill="#9c57fc" d="M48 48h1v1h-1zM16 78h1v1h-1zM15 79h1v1h-1z" /><path fill="#9f55fb" d="M49 48h1v1h-1zM16 79h1v1h-1zM15 80h1v1h-1zM14 81h1v1h-1z" /><path fill="#a450fb" d="M51 48h1v1h-1zM50 49h1v1h-1zM49 50h1v1h-1zM16 81h1v1h-1zM15 82h1v1h-1zM14 83h1v1h-1z" /><path fill="#a74efb" d="M52 48h1v1h-1zM51 49h1v1h-1zM50 50h1v1h-1zM16 82h1v1h-1zM15 83h1v1h-1zM14 84h1v1h-1z" /><path fill="#a94cfb" d="M53 48h1v1h-1zM52 49h1v1h-1zM16 83h1v1h-1z" /><path fill="#ac4bf9" d="M54 48h1v1h-1z" /><path fill="#ae4cf5" d="M55 48h1v1h-1zM54 49h1v1h-1zM53 50h1v1h-1zM17 84h1v1h-1z" /><path fill="#bd4edd" d="M62 48h1v1h-1zM47 62h1v1h-1zM46 63h1v1h-1zM45 64h1v1h-1z" /><path fill="#bf4fd9" d="M63 48h1v1h-1zM62 49h1v1h-1zM61 50h1v1h-1z" /><path fill="#c14fd6" d="M64 48h1v1h-1zM49 62h1v1h-1z" /><path fill="#c44fd2" d="M65 48h1v1h-1zM64 49h1v1h-1zM63 50h1v1h-1z" /><path fill="#c650cf" d="M66 48h1v1h-1zM49 64h1v1h-1z" /><path fill="#c850cb" d="M67 48h1v1h-1zM66 49h1v1h-1zM65 50h1v1h-1zM50 64h1v1h-1zM49 65h1v1h-1z" /><path fill="#ca50c8" d="M68 48h1v1h-1zM51 64h1v1h-1zM50 65h1v1h-1z" /><path fill="#cc51c4" d="M69 48h1v1h-1zM68 49h1v1h-1zM51 65h1v1h-1zM50 66h1v1h-1z" /><path fill="#ce51c1" d="M70 48h1v1h-1z" /><path fill="#d152bd" d="M71 48h1v1h-1zM70 49h1v1h-1zM69 50h1v1h-1zM51 67h1v1h-1zM50 68h1v1h-1zM32 85h1v1h-1z" /><path fill="#d352ba" d="M72 48h1v1h-1zM71 49h1v1h-1z" /><path fill="#d552b6" d="M73 48h1v1h-1zM72 49h1v1h-1zM71 50h1v1h-1zM36 83h1v1h-1zM35 84h1v1h-1zM34 85h1v1h-1z" /><path fill="#d753b3" d="M74 48h1v1h-1zM73 49h1v1h-1z" /><path fill="#d953af" d="M75 48h1v1h-1z" /><path fill="#dc53ac" d="M76 48h1v1h-1zM75 49h1v1h-1z" /><path fill="#de54a8" d="M77 48h1v1h-1zM76 49h1v1h-1zM75 50h1v1h-1z" /><path fill="#e255a1" d="M79 48h1v1h-1zM78 49h1v1h-1zM77 50h1v1h-1z" /><path fill="#e6559a" d="M81 48h1v1h-1zM31 95h1v1h-1z" /><path fill="#fc5c6e" d="M96 48h1v1h-1zM95 49h1v1h-1zM88 56h1v1h-1zM77 66h1v1h-1zM76 67h1v1h-1z" /><path fill="#47b5f6" d="M2 49h1v1h-1z" /><path fill="#49acf9" d="M7 49h1v1h-1zM2 54h1v1h-1z" /><path fill="#6289fd" d="M24 49h1v1h-1z" /><path fill="#6983fe" d="M27 49h1v1h-1z" /><path fill="#6c81fe" d="M28 49h1v1h-1zM27 50h1v1h-1zM11 65h1v1h-1zM10 66h1v1h-1z" /><path fill="#6f7efc" d="M29 49h1v1h-1z" /><path fill="#b04cf1" d="M55 49h1v1h-1zM54 50h1v1h-1zM35 68h1v1h-1zM34 69h1v1h-1zM18 84h1v1h-1zM17 85h1v1h-1z" /><path fill="#c14fd5" d="M63 49h1v1h-1z" /><path fill="#c650ce" d="M65 49h1v1h-1zM64 50h1v1h-1z" /><path fill="#ca51c8" d="M67 49h1v1h-1zM49 66h1v1h-1z" /><path fill="#cf51c1" d="M69 49h1v1h-1zM51 66h1v1h-1z" /><path fill="#da53af" d="M74 49h1v1h-1zM73 50h1v1h-1zM37 84h1v1h-1zM36 85h1v1h-1z" /><path fill="#e7559a" d="M80 49h1v1h-1zM79 50h1v1h-1z" /><path fill="#e95697" d="M81 49h1v1h-1z" /><path fill="#fb5a6f" d="M94 49h1v1h-1z" /><path fill="#fc5c6c" d="M96 49h1v1h-1zM95 50h1v1h-1zM78 66h1v1h-1zM77 67h1v1h-1z" /><path fill="#fd5c6b" d="M97 49h1v1h-1z" /><path fill="#47b3f7" d="M2 50h1v1h-1z" /><path fill="#618afd" d="M23 50h1v1h-1zM7 65h1v1h-1z" /><path fill="#6588fe" d="M24 50h1v1h-1zM23 51h1v1h-1zM22 52h1v1h-1z" /><path fill="#6a83fe" d="M26 50h1v1h-1zM25 51h1v1h-1zM24 52h1v1h-1z" /><path fill="#6f7ffd" d="M28 50h1v1h-1zM11 66h1v1h-1z" /><path fill="#747afd" d="M30 50h1v1h-1zM29 51h1v1h-1zM12 67h1v1h-1z" /><path fill="#b54dea" d="M56 50h1v1h-1zM38 67h1v1h-1zM37 68h1v1h-1zM36 69h1v1h-1zM35 70h1v1h-1zM19 85h1v1h-1zM18 86h1v1h-1z" /><path fill="#ca51c7" d="M66 50h1v1h-1z" /><path fill="#cd51c4" d="M67 50h1v1h-1zM49 67h1v1h-1z" /><path fill="#cf51c0" d="M68 50h1v1h-1zM50 67h1v1h-1zM49 68h1v1h-1zM29 87h1v1h-1zM28 88h1v1h-1z" /><path fill="#d352b9" d="M70 50h1v1h-1zM51 68h1v1h-1zM50 69h1v1h-1zM49 70h1v1h-1zM34 84h1v1h-1zM33 85h1v1h-1zM32 86h1v1h-1zM31 87h1v1h-1z" /><path fill="#d753b2" d="M72 50h1v1h-1zM36 84h1v1h-1z" /><path fill="#dc54ab" d="M74 50h1v1h-1z" /><path fill="#e054a4" d="M76 50h1v1h-1z" /><path fill="#e5559d" d="M78 50h1v1h-1z" /><path fill="#e95696" d="M80 50h1v1h-1z" /><path fill="#eb5693" d="M81 50h1v1h-1zM80 51h1v1h-1zM79 52h1v1h-1z" /><path fill="#fb5b6e" d="M94 50h1v1h-1zM75 68h1v1h-1z" /><path fill="#fd5d6a" d="M96 50h1v1h-1zM95 51h1v1h-1zM94 52h1v1h-1zM93 53h1v1h-1zM91 55h1v1h-1zM90 56h1v1h-1zM89 57h1v1h-1zM77 68h1v1h-1zM76 69h1v1h-1zM70 75h1v1h-1z" /><path fill="#48acfa" d="M5 51h1v1h-1z" /><path fill="#608cfd" d="M21 51h1v1h-1zM20 52h1v1h-1z" /><path fill="#6785fe" d="M24 51h1v1h-1zM23 52h1v1h-1z" /><path fill="#6c80fd" d="M26 51h1v1h-1z" /><path fill="#6e7ffc" d="M27 51h1v1h-1z" /><path fill="#717cfd" d="M28 51h1v1h-1z" /><path fill="#7778fd" d="M30 51h1v1h-1zM29 52h1v1h-1z" /><path fill="#7c74fc" d="M32 51h1v1h-1z" /><path fill="#e85695" d="M79 51h1v1h-1z" /><path fill="#ed578f" d="M81 51h1v1h-1z" /><path fill="#f0568c" d="M82 51h1v1h-1z" /><path fill="#fd5c6c" d="M94 51h1v1h-1zM93 52h1v1h-1zM91 54h1v1h-1zM76 68h1v1h-1z" /><path fill="#fd5d68" d="M96 51h1v1h-1zM95 52h1v1h-1zM94 53h1v1h-1zM77 69h1v1h-1zM76 70h1v1h-1z" /><path fill="#6d80fd" d="M25 52h1v1h-1z" /><path fill="#7479fd" d="M28 52h1v1h-1z" /><path fill="#ee578f" d="M80 52h1v1h-1z" /><path fill="#f0578c" d="M81 52h1v1h-1z" /><path fill="#f25787" d="M82 52h1v1h-1z" /><path fill="#fc5e67" d="M96 52h1v1h-1z" /><path fill="#48a9fb" d="M5 53h1v1h-1z" /><path fill="#608cfe" d="M19 53h1v1h-1z" /><path fill="#6587fe" d="M21 53h1v1h-1zM20 54h1v1h-1z" /><path fill="#6885fe" d="M22 53h1v1h-1zM21 54h1v1h-1z" /><path fill="#6a82fd" d="M23 53h1v1h-1z" /><path fill="#6d81fd" d="M24 53h1v1h-1z" /><path fill="#f0578b" d="M80 53h1v1h-1z" /><path fill="#f25788" d="M81 53h1v1h-1zM80 54h1v1h-1z" /><path fill="#f45884" d="M82 53h1v1h-1zM81 54h1v1h-1z" /><path fill="#f65880" d="M83 53h1v1h-1zM81 55h1v1h-1z" /><path fill="#fd5e66" d="M95 53h1v1h-1zM94 54h1v1h-1zM93 55h1v1h-1zM92 56h1v1h-1zM77 70h1v1h-1zM76 71h1v1h-1zM75 72h1v1h-1zM72 75h1v1h-1zM71 76h1v1h-1zM70 77h1v1h-1zM69 78h1v1h-1z" /><path fill="#fd5e65" d="M96 53h1v1h-1z" /><path fill="#48a6fb" d="M5 54h1v1h-1z" /><path fill="#6388fd" d="M19 54h1v1h-1z" /><path fill="#6982fd" d="M22 54h1v1h-1z" /><path fill="#816efd" d="M31 54h1v1h-1z" /><path fill="#8967fc" d="M34 54h1v1h-1z" /><path fill="#f75881" d="M82 54h1v1h-1z" /><path fill="#f9587d" d="M83 54h1v1h-1zM82 55h1v1h-1z" /><path fill="#fa597a" d="M84 54h1v1h-1z" /><path fill="#fc5c69" d="M92 54h1v1h-1zM88 58h1v1h-1z" /><path fill="#fd5e68" d="M93 54h1v1h-1zM92 55h1v1h-1zM91 56h1v1h-1zM90 57h1v1h-1zM75 71h1v1h-1zM71 75h1v1h-1zM70 76h1v1h-1zM69 77h1v1h-1z" /><path fill="#fc5e64" d="M95 54h1v1h-1zM78 70h1v1h-1z" /><path fill="#49aaf9" d="M2 55h1v1h-1z" /><path fill="#48a4fd" d="M5 55h1v1h-1z" /><path fill="#6885fd" d="M20 55h1v1h-1z" /><path fill="#6a83fd" d="M21 55h1v1h-1z" /><path fill="#fb597a" d="M83 55h1v1h-1zM51 85h1v1h-1zM50 86h1v1h-1zM49 87h1v1h-1z" /><path fill="#fb5a74" d="M85 55h1v1h-1zM40 98h1v1h-1z" /><path fill="#fc5972" d="M86 55h1v1h-1z" /><path fill="#fb5a71" d="M87 55h1v1h-1zM44 96h1v1h-1z" /><path fill="#fb5b6d" d="M89 55h1v1h-1z" /><path fill="#fc5b6b" d="M90 55h1v1h-1z" /><path fill="#fc5f63" d="M94 55h1v1h-1z" /><path fill="#49a8fa" d="M2 56h1v1h-1z" /><path fill="#fb5979" d="M82 56h1v1h-1z" /><path fill="#fc5a75" d="M84 56h1v1h-1zM51 87h1v1h-1zM50 88h1v1h-1zM49 89h1v1h-1zM47 91h1v1h-1zM46 92h1v1h-1zM45 93h1v1h-1zM44 94h1v1h-1z" /><path fill="#fc5a73" d="M85 56h1v1h-1zM51 88h1v1h-1zM50 89h1v1h-1zM49 90h1v1h-1zM48 91h1v1h-1zM47 92h1v1h-1zM46 93h1v1h-1z" /><path fill="#fc5b71" d="M86 56h1v1h-1zM85 57h1v1h-1zM51 89h1v1h-1zM50 90h1v1h-1zM49 91h1v1h-1zM48 92h1v1h-1zM47 93h1v1h-1zM46 94h1v1h-1zM42 97h1v1h-1z" /><path fill="#fc5b6f" d="M87 56h1v1h-1zM86 57h1v1h-1zM51 90h1v1h-1zM50 91h1v1h-1z" /><path fill="#fd5d6c" d="M89 56h1v1h-1zM88 57h1v1h-1z" /><path fill="#fc5e63" d="M93 56h1v1h-1z" /><path fill="#4aa1fd" d="M5 57h1v1h-1zM2 60h1v1h-1z" /><path fill="#fb5a73" d="M84 57h1v1h-1zM39 99h1v1h-1z" /><path fill="#fc5c6d" d="M87 57h1v1h-1zM78 65h1v1h-1z" /><path fill="#fc5e66" d="M91 57h1v1h-1z" /><path fill="#fd5e64" d="M92 57h1v1h-1z" /><path fill="#49a4fc" d="M2 58h1v1h-1z" /><path fill="#cb51c6" d="M58 58h1v1h-1zM25 89h1v1h-1zM24 90h1v1h-1z" /><path fill="#ce51c2" d="M59 58h1v1h-1zM58 59h1v1h-1zM57 60h1v1h-1z" /><path fill="#d051bf" d="M60 58h1v1h-1zM25 91h1v1h-1z" /><path fill="#d252bb" d="M61 58h1v1h-1zM60 59h1v1h-1zM59 60h1v1h-1zM26 91h1v1h-1z" /><path fill="#d452b8" d="M62 58h1v1h-1zM61 59h1v1h-1zM29 89h1v1h-1zM28 90h1v1h-1zM27 91h1v1h-1z" /><path fill="#d653b4" d="M63 58h1v1h-1zM62 59h1v1h-1zM28 91h1v1h-1zM27 92h1v1h-1z" /><path fill="#d853b1" d="M64 58h1v1h-1zM49 72h1v1h-1zM31 89h1v1h-1zM29 91h1v1h-1zM28 92h1v1h-1z" /><path fill="#db53ad" d="M65 58h1v1h-1zM64 59h1v1h-1zM63 60h1v1h-1zM29 92h1v1h-1z" /><path fill="#f0578a" d="M75 58h1v1h-1z" /><path fill="#f35787" d="M76 58h1v1h-1zM75 59h1v1h-1z" /><path fill="#fb5c6c" d="M86 58h1v1h-1zM51 91h1v1h-1zM50 92h1v1h-1z" /><path fill="#fd5c6a" d="M87 58h1v1h-1z" /><path fill="#fd5d67" d="M89 58h1v1h-1z" /><path fill="#4aa3fc" d="M2 59h1v1h-1z" /><path fill="#4b9cff" d="M5 59h1v1h-1z" /><path fill="#ba4ee1" d="M49 59h1v1h-1zM48 60h1v1h-1zM47 61h1v1h-1zM46 62h1v1h-1z" /><path fill="#be4eda" d="M51 59h1v1h-1z" /><path fill="#cc51c5" d="M57 59h1v1h-1zM56 60h1v1h-1z" /><path fill="#d051be" d="M59 59h1v1h-1zM58 60h1v1h-1z" /><path fill="#d953b1" d="M63 59h1v1h-1z" /><path fill="#f8597b" d="M78 59h1v1h-1zM41 94h1v1h-1z" /><path fill="#816efc" d="M25 60h1v1h-1z" /><path fill="#bf4fda" d="M50 60h1v1h-1zM49 61h1v1h-1zM48 62h1v1h-1z" /><path fill="#c14fd7" d="M51 60h1v1h-1zM50 61h1v1h-1z" /><path fill="#d452b7" d="M60 60h1v1h-1z" /><path fill="#d753b4" d="M61 60h1v1h-1z" /><path fill="#d953b0" d="M62 60h1v1h-1z" /><path fill="#ea5694" d="M70 60h1v1h-1zM51 78h1v1h-1zM50 79h1v1h-1zM34 94h1v1h-1zM33 95h1v1h-1z" /><path fill="#ef578d" d="M72 60h1v1h-1zM51 80h1v1h-1zM50 81h1v1h-1zM35 95h1v1h-1zM34 96h1v1h-1z" /><path fill="#f9597c" d="M77 60h1v1h-1z" /><path fill="#fc5979" d="M78 60h1v1h-1zM42 94h1v1h-1z" /><path fill="#499eff" d="M2 61h1v1h-1z" /><path fill="#5395ff" d="M6 61h1v1h-1z" /><path fill="#7f70fd" d="M23 61h1v1h-1z" /><path fill="#856cfd" d="M25 61h1v1h-1z" /><path fill="#8768fc" d="M26 61h1v1h-1z" /><path fill="#b64ce7" d="M45 61h1v1h-1z" /><path fill="#b84de4" d="M46 61h1v1h-1zM45 62h1v1h-1zM44 63h1v1h-1zM43 64h1v1h-1z" /><path fill="#bc4edd" d="M48 61h1v1h-1z" /><path fill="#c34fd3" d="M51 61h1v1h-1zM50 62h1v1h-1zM49 63h1v1h-1z" /><path fill="#fc5975" d="M78 61h1v1h-1z" /><path fill="#5a91fe" d="M7 62h1v1h-1zM6 63h1v1h-1z" /><path fill="#5c8efd" d="M8 62h1v1h-1z" /><path fill="#8070fc" d="M22 62h1v1h-1z" /><path fill="#fa587b" d="M75 62h1v1h-1z" /><path fill="#fc5974" d="M78 62h1v1h-1z" /><path fill="#6488fd" d="M10 63h1v1h-1z" /><path fill="#7d72fc" d="M20 63h1v1h-1z" /><path fill="#b34ceb" d="M42 63h1v1h-1z" /><path fill="#b64de8" d="M43 63h1v1h-1z" /><path fill="#bb4ee1" d="M45 63h1v1h-1z" /><path fill="#be4fd9" d="M47 63h1v1h-1z" /><path fill="#c04fd5" d="M48 63h1v1h-1z" /><path fill="#c850cc" d="M51 63h1v1h-1z" /><path fill="#fb5878" d="M75 63h1v1h-1zM43 93h1v1h-1z" /><path fill="#fc5a71" d="M78 63h1v1h-1z" /><path fill="#5c8ffd" d="M6 64h1v1h-1z" /><path fill="#6983fd" d="M11 64h1v1h-1z" /><path fill="#6b80fd" d="M12 64h1v1h-1z" /><path fill="#7a74fd" d="M18 64h1v1h-1z" /><path fill="#7e72fc" d="M19 64h1v1h-1z" /><path fill="#bf4ed9" d="M46 64h1v1h-1z" /><path fill="#fb5976" d="M75 64h1v1h-1zM46 91h1v1h-1z" /><path fill="#fc5a70" d="M78 64h1v1h-1z" /><path fill="#717dfc" d="M13 65h1v1h-1zM11 67h1v1h-1z" /><path fill="#8768fb" d="M22 65h1v1h-1z" /><path fill="#b24bee" d="M39 65h1v1h-1z" /><path fill="#fb5973" d="M75 65h1v1h-1z" /><path fill="#6883fd" d="M9 66h1v1h-1z" /><path fill="#7976fc" d="M15 66h1v1h-1z" /><path fill="#8769fc" d="M21 66h1v1h-1z" /><path fill="#af4bf0" d="M37 66h1v1h-1z" /><path fill="#bc4edb" d="M43 66h1v1h-1z" /><path fill="#ae4bf5" d="M35 67h1v1h-1z" /><path fill="#af4cf0" d="M36 67h1v1h-1z" /><path fill="#ba4ddf" d="M41 67h1v1h-1z" /><path fill="#fb5b70" d="M75 67h1v1h-1z" /><path fill="#fc5d6a" d="M78 67h1v1h-1z" /><path fill="#7777fd" d="M12 68h1v1h-1z" /><path fill="#7875fc" d="M13 68h1v1h-1z" /><path fill="#826dfc" d="M17 68h1v1h-1z" /><path fill="#ad4bf4" d="M34 68h1v1h-1z" /><path fill="#b24ced" d="M36 68h1v1h-1zM18 85h1v1h-1z" /><path fill="#bb4edf" d="M40 68h1v1h-1zM21 86h1v1h-1zM20 87h1v1h-1z" /><path fill="#fc5d67" d="M78 68h1v1h-1zM78 69h1v1h-1z" /><path fill="#7e71fc" d="M14 69h1v1h-1z" /><path fill="#ab4af7" d="M32 69h1v1h-1z" /><path fill="#b34ced" d="M35 69h1v1h-1zM34 70h1v1h-1zM17 86h1v1h-1z" /><path fill="#b84ee2" d="M38 69h1v1h-1z" /><path fill="#d152bc" d="M49 69h1v1h-1zM31 86h1v1h-1zM30 87h1v1h-1zM29 88h1v1h-1z" /><path fill="#d652b5" d="M51 69h1v1h-1zM50 70h1v1h-1zM49 71h1v1h-1zM33 86h1v1h-1zM32 87h1v1h-1zM31 88h1v1h-1z" /><path fill="#fd5b6b" d="M75 69h1v1h-1z" /><path fill="#8867fc" d="M17 70h1v1h-1z" /><path fill="#ac4af7" d="M31 70h1v1h-1z" /><path fill="#b14cf1" d="M33 70h1v1h-1z" /><path fill="#b64ce6" d="M36 70h1v1h-1zM18 87h1v1h-1z" /><path fill="#d853b2" d="M51 70h1v1h-1zM50 71h1v1h-1zM35 85h1v1h-1zM34 86h1v1h-1zM33 87h1v1h-1zM32 88h1v1h-1z" /><path fill="#fd5d69" d="M75 70h1v1h-1zM69 76h1v1h-1z" /><path fill="#836bfc" d="M14 71h1v1h-1z" /><path fill="#8a66fc" d="M17 71h1v1h-1z" /><path fill="#a94bfa" d="M29 71h1v1h-1z" /><path fill="#b44ce8" d="M34 71h1v1h-1z" /><path fill="#da53ae" d="M51 71h1v1h-1zM50 72h1v1h-1zM49 73h1v1h-1z" /><path fill="#fd5f64" d="M77 71h1v1h-1zM76 72h1v1h-1zM73 75h1v1h-1zM72 76h1v1h-1zM71 77h1v1h-1zM70 78h1v1h-1zM69 79h1v1h-1z" /><path fill="#fc5e62" d="M78 71h1v1h-1z" /><path fill="#a74cfb" d="M27 72h1v1h-1z" /><path fill="#b54ce8" d="M33 72h1v1h-1z" /><path fill="#dc54aa" d="M51 72h1v1h-1zM37 85h1v1h-1z" /><path fill="#fd5f62" d="M77 72h1v1h-1zM76 73h1v1h-1zM74 75h1v1h-1zM73 76h1v1h-1zM72 77h1v1h-1zM70 79h1v1h-1zM69 80h1v1h-1z" /><path fill="#fc5f61" d="M78 72h1v1h-1zM71 78h1v1h-1z" /><path fill="#a74dfa" d="M26 73h1v1h-1zM17 81h1v1h-1z" /><path fill="#df54a7" d="M51 73h1v1h-1z" /><path fill="#fd5e63" d="M75 73h1v1h-1z" /><path fill="#fd6060" d="M77 73h1v1h-1zM76 74h1v1h-1zM75 75h1v1h-1zM74 76h1v1h-1zM73 77h1v1h-1zM70 80h1v1h-1zM69 81h1v1h-1z" /><path fill="#fc5f5e" d="M78 73h1v1h-1z" /><path fill="#8c64fb" d="M14 74h1v1h-1z" /><path fill="#945ffc" d="M17 74h1v1h-1z" /><path fill="#fd5e61" d="M75 74h1v1h-1z" /><path fill="#fd605f" d="M77 74h1v1h-1z" /><path fill="#fc615d" d="M78 74h1v1h-1z" /><path fill="#955cfc" d="M17 75h1v1h-1z" /><path fill="#ac4af5" d="M26 75h1v1h-1z" /><path fill="#b04bf0" d="M28 75h1v1h-1zM16 86h1v1h-1z" /><path fill="#fd5d6b" d="M69 75h1v1h-1z" /><path fill="#fd605e" d="M76 75h1v1h-1zM75 76h1v1h-1zM74 77h1v1h-1zM70 81h1v1h-1z" /><path fill="#fd615d" d="M77 75h1v1h-1z" /><path fill="#fd615b" d="M78 75h1v1h-1zM77 76h1v1h-1z" /><path fill="#fd6259" d="M79 75h1v1h-1zM78 76h1v1h-1zM77 77h1v1h-1z" /><path fill="#fd6257" d="M80 75h1v1h-1zM79 76h1v1h-1z" /><path fill="#fd6355" d="M81 75h1v1h-1z" /><path fill="#fe6453" d="M82 75h1v1h-1zM81 76h1v1h-1zM80 77h1v1h-1z" /><path fill="#fe6451" d="M83 75h1v1h-1zM82 76h1v1h-1zM81 77h1v1h-1z" /><path fill="#fe6550" d="M84 75h1v1h-1z" /><path fill="#fd654e" d="M85 75h1v1h-1z" /><path fill="#9060fb" d="M14 76h1v1h-1z" /><path fill="#965cfc" d="M16 76h1v1h-1z" /><path fill="#9859fc" d="M17 76h1v1h-1z" /><path fill="#fd615c" d="M76 76h1v1h-1zM75 77h1v1h-1zM70 82h1v1h-1zM69 83h1v1h-1z" /><path fill="#fe6355" d="M80 76h1v1h-1zM79 77h1v1h-1z" /><path fill="#fe654f" d="M83 76h1v1h-1zM82 77h1v1h-1z" /><path fill="#fe654e" d="M84 76h1v1h-1zM70 89h1v1h-1zM69 90h1v1h-1z" /><path fill="#fd654b" d="M85 76h1v1h-1zM82 79h1v1h-1z" /><path fill="#945efb" d="M14 77h1v1h-1z" /><path fill="#9b57fc" d="M17 77h1v1h-1z" /><path fill="#fd615a" d="M76 77h1v1h-1z" /><path fill="#fd6357" d="M78 77h1v1h-1z" /><path fill="#fe654d" d="M83 77h1v1h-1z" /><path fill="#fe664c" d="M84 77h1v1h-1zM71 89h1v1h-1zM70 90h1v1h-1zM69 91h1v1h-1z" /><path fill="#fd6549" d="M85 77h1v1h-1zM82 80h1v1h-1z" /><path fill="#9e55fa" d="M17 78h1v1h-1z" /><path fill="#fd654c" d="M82 78h1v1h-1z" /><path fill="#fe664b" d="M83 78h1v1h-1z" /><path fill="#fe664a" d="M84 78h1v1h-1zM72 89h1v1h-1zM71 90h1v1h-1zM70 91h1v1h-1z" /><path fill="#fd6647" d="M85 78h1v1h-1z" /><path fill="#9958fb" d="M14 79h1v1h-1z" /><path fill="#a153fa" d="M17 79h1v1h-1z" /><path fill="#ed5691" d="M51 79h1v1h-1zM34 95h1v1h-1zM33 96h1v1h-1z" /><path fill="#fc5f5f" d="M71 79h1v1h-1z" /><path fill="#fe6649" d="M83 79h1v1h-1z" /><path fill="#fe6748" d="M84 79h1v1h-1zM83 80h1v1h-1zM73 89h1v1h-1zM72 90h1v1h-1zM71 91h1v1h-1z" /><path fill="#fd6646" d="M85 79h1v1h-1zM82 81h1v1h-1z" /><path fill="#a153fb" d="M16 80h1v1h-1zM15 81h1v1h-1z" /><path fill="#a450fa" d="M17 80h1v1h-1z" /><path fill="#eb5694" d="M49 80h1v1h-1z" /><path fill="#ed5690" d="M50 80h1v1h-1zM49 81h1v1h-1z" /><path fill="#fc5f5d" d="M71 80h1v1h-1z" /><path fill="#fe6746" d="M84 80h1v1h-1zM83 81h1v1h-1zM73 90h1v1h-1zM72 91h1v1h-1z" /><path fill="#fd6844" d="M85 80h1v1h-1z" /><path fill="#f15789" d="M51 81h1v1h-1zM50 82h1v1h-1z" /><path fill="#fc605b" d="M71 81h1v1h-1z" /><path fill="#fe6844" d="M84 81h1v1h-1zM83 82h1v1h-1zM73 91h1v1h-1z" /><path fill="#fd6841" d="M85 81h1v1h-1z" /><path fill="#a151fb" d="M14 82h1v1h-1z" /><path fill="#a84cfa" d="M17 82h1v1h-1z" /><path fill="#d252ba" d="M36 82h1v1h-1z" /><path fill="#ef578c" d="M49 82h1v1h-1z" /><path fill="#f45885" d="M51 82h1v1h-1zM50 83h1v1h-1zM49 84h1v1h-1z" /><path fill="#fd615e" d="M69 82h1v1h-1z" /><path fill="#fc615a" d="M71 82h1v1h-1z" /><path fill="#fd6645" d="M82 82h1v1h-1z" /><path fill="#fe6942" d="M84 82h1v1h-1zM83 83h1v1h-1z" /><path fill="#fd683f" d="M85 82h1v1h-1z" /><path fill="#ab4bf8" d="M17 83h1v1h-1z" /><path fill="#d351ba" d="M35 83h1v1h-1z" /><path fill="#d652b3" d="M37 83h1v1h-1z" /><path fill="#f25789" d="M49 83h1v1h-1z" /><path fill="#f65882" d="M51 83h1v1h-1zM50 84h1v1h-1z" /><path fill="#fd625a" d="M70 83h1v1h-1zM69 84h1v1h-1z" /><path fill="#fc6158" d="M71 83h1v1h-1z" /><path fill="#fd6742" d="M82 83h1v1h-1z" /><path fill="#fe6940" d="M84 83h1v1h-1zM83 84h1v1h-1z" /><path fill="#fd6a3e" d="M85 83h1v1h-1z" /><path fill="#d052bd" d="M33 84h1v1h-1z" /><path fill="#f8587e" d="M51 84h1v1h-1zM50 85h1v1h-1zM49 86h1v1h-1z" /><path fill="#fd6258" d="M70 84h1v1h-1zM69 85h1v1h-1z" /><path fill="#fc6256" d="M71 84h1v1h-1z" /><path fill="#fd6941" d="M82 84h1v1h-1z" /><path fill="#fe6a3e" d="M84 84h1v1h-1z" /><path fill="#ff6a3c" d="M85 84h1v1h-1zM84 85h1v1h-1zM83 86h1v1h-1z" /><path fill="#cf50c0" d="M31 85h1v1h-1z" /><path fill="#f65881" d="M49 85h1v1h-1z" /><path fill="#fd6356" d="M70 85h1v1h-1zM69 86h1v1h-1z" /><path fill="#fd6254" d="M71 85h1v1h-1z" /><path fill="#fd6940" d="M82 85h1v1h-1z" /><path fill="#ff6a3e" d="M83 85h1v1h-1z" /><path fill="#ff6a39" d="M85 85h1v1h-1z" /><path fill="#bd4ddc" d="M22 86h1v1h-1z" /><path fill="#cf51bf" d="M30 86h1v1h-1zM27 89h1v1h-1zM26 90h1v1h-1z" /><path fill="#da52ae" d="M35 86h1v1h-1z" /><path fill="#db54aa" d="M36 86h1v1h-1z" /><path fill="#fe6354" d="M70 86h1v1h-1zM69 87h1v1h-1z" /><path fill="#fd6352" d="M71 86h1v1h-1z" /><path fill="#ff6a3d" d="M82 86h1v1h-1zM79 89h1v1h-1zM78 90h1v1h-1zM77 91h1v1h-1z" /><path fill="#ff6b3a" d="M84 86h1v1h-1zM83 87h1v1h-1zM82 88h1v1h-1z" /><path fill="#ff6a37" d="M85 86h1v1h-1z" /><path fill="#c14ed4" d="M23 87h1v1h-1z" /><path fill="#c44ed0" d="M24 87h1v1h-1z" /><path fill="#cd51c3" d="M28 87h1v1h-1zM26 89h1v1h-1zM25 90h1v1h-1z" /><path fill="#fe6452" d="M70 87h1v1h-1zM69 88h1v1h-1z" /><path fill="#fd6350" d="M71 87h1v1h-1z" /><path fill="#ff6a3b" d="M82 87h1v1h-1zM80 89h1v1h-1zM79 90h1v1h-1zM78 91h1v1h-1z" /><path fill="#ff6b38" d="M84 87h1v1h-1zM83 88h1v1h-1zM82 89h1v1h-1z" /><path fill="#ff6b35" d="M85 87h1v1h-1z" /><path fill="#bc4dde" d="M19 88h1v1h-1z" /><path fill="#c850c9" d="M25 88h1v1h-1zM23 90h1v1h-1z" /><path fill="#ca50c6" d="M26 88h1v1h-1z" /><path fill="#cc51c2" d="M27 88h1v1h-1z" /><path fill="#d452b9" d="M30 88h1v1h-1z" /><path fill="#fe6450" d="M70 88h1v1h-1zM69 89h1v1h-1z" /><path fill="#fd644d" d="M71 88h1v1h-1z" /><path fill="#ff6c36" d="M84 88h1v1h-1zM83 89h1v1h-1zM82 90h1v1h-1zM81 91h1v1h-1z" /><path fill="#ff6b34" d="M85 88h1v1h-1z" /><path fill="#c24ed4" d="M21 89h1v1h-1z" /><path fill="#d252bc" d="M28 89h1v1h-1zM27 90h1v1h-1z" /><path fill="#d552b4" d="M30 89h1v1h-1z" /><path fill="#fe6747" d="M74 89h1v1h-1z" /><path fill="#fe6845" d="M75 89h1v1h-1zM74 90h1v1h-1z" /><path fill="#fe6843" d="M76 89h1v1h-1zM75 90h1v1h-1zM74 91h1v1h-1z" /><path fill="#fe6941" d="M77 89h1v1h-1zM76 90h1v1h-1zM75 91h1v1h-1z" /><path fill="#fe693f" d="M78 89h1v1h-1zM77 90h1v1h-1zM76 91h1v1h-1z" /><path fill="#ff6b39" d="M81 89h1v1h-1zM80 90h1v1h-1zM79 91h1v1h-1z" /><path fill="#ff6c34" d="M84 89h1v1h-1zM83 90h1v1h-1z" /><path fill="#ff6d32" d="M85 89h1v1h-1zM84 90h2v1h-2zM83 91h3v1h-3z" /><path fill="#d653b5" d="M29 90h1v1h-1z" /><path fill="#fb5a75" d="M48 90h1v1h-1z" /><path fill="#ff6b37" d="M81 90h1v1h-1zM80 91h1v1h-1z" /><path fill="#cc50c2" d="M24 91h1v1h-1z" /><path fill="#ff6d34" d="M82 91h1v1h-1z" /><path fill="#d352b8" d="M26 92h1v1h-1z" /><path fill="#e153a2" d="M32 92h1v1h-1z" /><path fill="#fa5878" d="M44 92h1v1h-1z" /><path fill="#fc5c6f" d="M49 92h1v1h-1zM47 94h1v1h-1z" /><path fill="#fb5c6e" d="M48 93h1v1h-1z" /><path fill="#de53a6" d="M29 94h1v1h-1z" /><path fill="#ec5591" d="M35 94h1v1h-1z" /><path fill="#fc5976" d="M43 94h1v1h-1zM42 95h1v1h-1z" /><path fill="#fc5b73" d="M45 94h1v1h-1zM44 95h1v1h-1z" /><path fill="#f6577e" d="M39 95h1v1h-1z" /><path fill="#f9587b" d="M40 95h1v1h-1z" /><path fill="#fb5a70" d="M45 95h1v1h-1z" /><path fill="#ea5693" d="M32 96h1v1h-1z" /><path fill="#f7577f" d="M38 96h1v1h-1z" /><path fill="#fb5a72" d="M43 96h1v1h-1z" /><path fill="#f15689" d="M34 97h1v1h-1z" /><path fill="#f35886" d="M35 97h1v1h-1z" /><path fill="#f55882" d="M36 97h1v1h-1z" /><path fill="#f8587f" d="M37 97h1v1h-1z" /><path fill="#fa597b" d="M38 97h1v1h-1zM37 98h1v1h-1z" /><path fill="#f7587e" d="M36 98h1v1h-1z" /><path fill="#fb5a76" d="M38 99h1v1h-1z" /></svg>