<svg xmlns="http://www.w3.org/2000/svg" viewBox="0 0 100 100" width="1em" height="1em"><path fill="#cc0000" d="M0 0h100v1h-100zM0 1h100v1h-100zM0 2h100v1h-100zM0 3h100v1h-100zM0 4h100v1h-100zM0 5h100v1h-100zM0 6h100v1h-100zM0 7h100v1h-100zM0 8h100v1h-100zM0 9h100v1h-100zM0 10h10v1h-10zM90 10h10v1h-10zM0 11h10v1h-10zM90 11h10v1h-10zM0 12h10v1h-10zM90 12h10v1h-10zM0 13h10v1h-10zM90 13h10v1h-10zM0 14h10v1h-10zM90 14h10v1h-10zM0 15h10v1h-10zM90 15h10v1h-10zM0 16h10v1h-10zM90 16h10v1h-10zM0 17h10v1h-10zM90 17h10v1h-10zM0 18h10v1h-10zM90 18h10v1h-10zM0 19h10v1h-10zM90 19h10v1h-10zM0 20h10v1h-10zM90 20h10v1h-10zM0 21h10v1h-10zM90 21h10v1h-10zM0 22h10v1h-10zM90 22h10v1h-10zM0 23h10v1h-10zM90 23h10v1h-10zM0 24h10v1h-10zM90 24h10v1h-10zM0 25h10v1h-10zM90 25h10v1h-10zM0 26h10v1h-10zM90 26h10v1h-10zM0 27h10v1h-10zM90 27h10v1h-10zM0 28h10v1h-10zM90 28h10v1h-10zM0 29h10v1h-10zM90 29h10v1h-10zM0 30h10v1h-10zM90 30h10v1h-10zM0 31h10v1h-10zM50 31h19v1h-19zM90 31h10v1h-10zM0 32h10v1h-10zM50 32h19v1h-19zM90 32h10v1h-10zM0 33h10v1h-10zM50 33h19v1h-19zM90 33h10v1h-10zM0 34h10v1h-10zM50 34h19v1h-19zM90 34h10v1h-10zM0 35h10v1h-10zM50 35h19v1h-19zM90 35h10v1h-10zM0 36h10v1h-10zM50 36h19v1h-19zM90 36h10v1h-10zM0 37h10v1h-10zM50 37h19v1h-19zM90 37h10v1h-10zM0 38h10v1h-10zM50 38h19v1h-19zM90 38h10v1h-10zM0 39h10v1h-10zM50 39h19v1h-19zM90 39h10v1h-10zM0 40h10v1h-10zM50 40h19v1h-19zM90 40h10v1h-10zM0 41h10v1h-10zM50 41h19v1h-19zM90 41h10v1h-10zM0 42h10v1h-10zM50 42h19v1h-19zM90 42h10v1h-10zM0 43h10v1h-10zM50 43h19v1h-19zM90 43h10v1h-10zM0 44h10v1h-10zM50 44h19v1h-19zM90 44h10v1h-10zM0 45h10v1h-10zM50 45h19v1h-19zM90 45h10v1h-10zM0 46h10v1h-10zM50 46h19v1h-19zM90 46h10v1h-10zM0 47h10v1h-10zM50 47h19v1h-19zM90 47h10v1h-10zM0 48h10v1h-10zM50 48h19v1h-19zM90 48h10v1h-10zM0 49h10v1h-10zM50 49h19v1h-19zM90 49h10v1h-10zM0 50h10v1h-10zM50 50h19v1h-19zM90 50h10v1h-10zM0 51h10v1h-10zM50 51h19v1h-19zM90 51h10v1h-10zM0 52h10v1h-10zM50 52h19v1h-19zM90 52h10v1h-10zM0 53h10v1h-10zM50 53h19v1h-19zM90 53h10v1h-10zM0 54h10v1h-10zM50 54h19v1h-19zM90 54h10v1h-10zM0 55h10v1h-10zM50 55h19v1h-19zM90 55h10v1h-10zM0 56h10v1h-10zM50 56h19v1h-19zM90 56h10v1h-10zM0 57h10v1h-10zM50 57h19v1h-19zM90 57h10v1h-10zM0 58h10v1h-10zM50 58h19v1h-19zM90 58h10v1h-10zM0 59h10v1h-10zM50 59h19v1h-19zM90 59h10v1h-10zM0 60h10v1h-10zM50 60h19v1h-19zM90 60h10v1h-10zM0 61h10v1h-10zM50 61h19v1h-19zM90 61h10v1h-10zM0 62h10v1h-10zM50 62h19v1h-19zM90 62h10v1h-10zM0 63h10v1h-10zM50 63h19v1h-19zM90 63h10v1h-10zM0 64h10v1h-10zM50 64h19v1h-19zM90 64h10v1h-10zM0 65h10v1h-10zM50 65h19v1h-19zM90 65h10v1h-10zM0 66h10v1h-10zM50 66h19v1h-19zM90 66h10v1h-10zM0 67h10v1h-10zM50 67h19v1h-19zM90 67h10v1h-10zM0 68h10v1h-10zM50 68h19v1h-19zM90 68h10v1h-10zM0 69h10v1h-10zM50 69h19v1h-19zM90 69h10v1h-10zM0 70h10v1h-10zM50 70h19v1h-19zM90 70h10v1h-10zM0 71h10v1h-10zM50 71h19v1h-19zM90 71h10v1h-10zM0 72h10v1h-10zM50 72h19v1h-19zM90 72h10v1h-10zM0 73h10v1h-10zM50 73h19v1h-19zM90 73h10v1h-10zM0 74h10v1h-10zM50 74h19v1h-19zM90 74h10v1h-10zM0 75h10v1h-10zM50 75h19v1h-19zM90 75h10v1h-10zM0 76h10v1h-10zM50 76h19v1h-19zM90 76h10v1h-10zM0 77h10v1h-10zM50 77h19v1h-19zM90 77h10v1h-10zM0 78h10v1h-10zM50 78h19v1h-19zM90 78h10v1h-10zM0 79h10v1h-10zM50 79h19v1h-19zM90 79h10v1h-10zM0 80h10v1h-10zM50 80h19v1h-19zM90 80h10v1h-10zM0 81h10v1h-10zM50 81h19v1h-19zM90 81h10v1h-10zM0 82h10v1h-10zM50 82h19v1h-19zM90 82h10v1h-10zM0 83h10v1h-10zM50 83h19v1h-19zM90 83h10v1h-10zM0 84h10v1h-10zM50 84h19v1h-19zM90 84h10v1h-10zM0 85h10v1h-10zM50 85h19v1h-19zM90 85h10v1h-10zM0 86h10v1h-10zM50 86h19v1h-19zM90 86h10v1h-10zM0 87h10v1h-10zM50 87h19v1h-19zM90 87h10v1h-10zM0 88h10v1h-10zM50 88h19v1h-19zM90 88h10v1h-10zM0 89h10v1h-10zM50 89h19v1h-19zM90 89h10v1h-10zM0 90h100v1h-100zM0 91h100v1h-100zM0 92h100v1h-100zM0 93h100v1h-100zM0 94h100v1h-100zM0 95h100v1h-100zM0 96h100v1h-100zM0 97h100v1h-100zM0 98h100v1h-100zM0 99h100v1h-100z" /><path fill="#cf1111" d="M10 10h1v1h-1zM89 10h1v1h-1zM10 89h1v1h-1zM89 89h1v1h-1z" /><path fill="#d94343" d="M11 10h78v1h-78zM10 11h1v1h-1zM10 12h1v1h-1zM10 13h1v1h-1zM10 14h1v1h-1zM10 15h1v1h-1zM10 16h1v1h-1zM10 17h1v1h-1zM10 18h1v1h-1zM10 19h1v1h-1zM10 20h1v1h-1zM10 21h1v1h-1zM10 22h1v1h-1zM10 23h1v1h-1zM10 24h1v1h-1zM10 25h1v1h-1zM10 26h1v1h-1zM10 27h1v1h-1zM10 28h1v1h-1zM10 29h1v1h-1zM10 30h1v1h-1zM10 31h1v1h-1zM10 32h1v1h-1zM10 33h1v1h-1zM10 34h1v1h-1zM10 35h1v1h-1zM10 36h1v1h-1zM10 37h1v1h-1zM10 38h1v1h-1zM10 39h1v1h-1zM10 40h1v1h-1zM10 41h1v1h-1zM10 42h1v1h-1zM10 43h1v1h-1zM10 44h1v1h-1zM10 45h1v1h-1zM10 46h1v1h-1zM10 47h1v1h-1zM10 48h1v1h-1zM10 49h1v1h-1zM10 50h1v1h-1zM10 51h1v1h-1zM10 52h1v1h-1zM10 53h1v1h-1zM10 54h1v1h-1zM10 55h1v1h-1zM10 56h1v1h-1zM10 57h1v1h-1zM10 58h1v1h-1zM10 59h1v1h-1zM10 60h1v1h-1zM10 61h1v1h-1zM10 62h1v1h-1zM10 63h1v1h-1zM10 64h1v1h-1zM10 65h1v1h-1zM10 66h1v1h-1zM10 67h1v1h-1zM10 68h1v1h-1zM10 69h1v1h-1zM10 70h1v1h-1zM10 71h1v1h-1zM10 72h1v1h-1zM10 73h1v1h-1zM10 74h1v1h-1zM10 75h1v1h-1zM10 76h1v1h-1zM10 77h1v1h-1zM10 78h1v1h-1zM10 79h1v1h-1zM10 80h1v1h-1zM10 81h1v1h-1zM10 82h1v1h-1zM10 83h1v1h-1zM10 84h1v1h-1zM10 85h1v1h-1zM10 86h1v1h-1zM10 87h1v1h-1zM10 88h1v1h-1z" /><path fill="#ffffff" d="M11 11h78v1h-78zM11 12h78v1h-78zM11 13h78v1h-78zM11 14h78v1h-78zM11 15h78v1h-78zM11 16h78v1h-78zM11 17h78v1h-78zM11 18h78v1h-78zM11 19h78v1h-78zM11 20h78v1h-78zM11 21h78v1h-78zM11 22h78v1h-78zM11 23h78v1h-78zM11 24h78v1h-78zM11 25h78v1h-78zM11 26h78v1h-78zM11 27h78v1h-78zM11 28h78v1h-78zM11 29h78v1h-78zM11 30h38v1h-38zM70 30h19v1h-19zM11 31h38v1h-38zM70 31h19v1h-19zM11 32h38v1h-38zM70 32h19v1h-19zM11 33h38v1h-38zM70 33h19v1h-19zM11 34h38v1h-38zM70 34h19v1h-19zM11 35h38v1h-38zM70 35h19v1h-19zM11 36h38v1h-38zM70 36h19v1h-19zM11 37h38v1h-38zM70 37h19v1h-19zM11 38h38v1h-38zM70 38h19v1h-19zM11 39h38v1h-38zM70 39h19v1h-19zM11 40h38v1h-38zM70 40h19v1h-19zM11 41h38v1h-38zM70 41h19v1h-19zM11 42h38v1h-38zM70 42h19v1h-19zM11 43h38v1h-38zM70 43h19v1h-19zM11 44h38v1h-38zM70 44h19v1h-19zM11 45h38v1h-38zM70 45h19v1h-19zM11 46h38v1h-38zM70 46h19v1h-19zM11 47h38v1h-38zM70 47h19v1h-19zM11 48h38v1h-38zM70 48h19v1h-19zM11 49h38v1h-38zM70 49h19v1h-19zM11 50h38v1h-38zM70 50h19v1h-19zM11 51h38v1h-38zM70 51h19v1h-19zM11 52h38v1h-38zM70 52h19v1h-19zM11 53h38v1h-38zM70 53h19v1h-19zM11 54h38v1h-38zM70 54h19v1h-19zM11 55h38v1h-38zM70 55h19v1h-19zM11 56h38v1h-38zM70 56h19v1h-19zM11 57h38v1h-38zM70 57h19v1h-19zM11 58h38v1h-38zM70 58h19v1h-19zM11 59h38v1h-38zM70 59h19v1h-19zM11 60h38v1h-38zM70 60h19v1h-19zM11 61h38v1h-38zM70 61h19v1h-19zM11 62h38v1h-38zM70 62h19v1h-19zM11 63h38v1h-38zM70 63h19v1h-19zM11 64h38v1h-38zM70 64h19v1h-19zM11 65h38v1h-38zM70 65h19v1h-19zM11 66h38v1h-38zM70 66h19v1h-19zM11 67h38v1h-38zM70 67h19v1h-19zM11 68h38v1h-38zM70 68h19v1h-19zM11 69h38v1h-38zM70 69h19v1h-19zM11 70h38v1h-38zM70 70h19v1h-19zM11 71h38v1h-38zM70 71h19v1h-19zM11 72h38v1h-38zM70 72h19v1h-19zM11 73h38v1h-38zM70 73h19v1h-19zM11 74h38v1h-38zM70 74h19v1h-19zM11 75h38v1h-38zM70 75h19v1h-19zM11 76h38v1h-38zM70 76h19v1h-19zM11 77h38v1h-38zM70 77h19v1h-19zM11 78h38v1h-38zM70 78h19v1h-19zM11 79h38v1h-38zM70 79h19v1h-19zM11 80h38v1h-38zM70 80h19v1h-19zM11 81h38v1h-38zM70 81h19v1h-19zM11 82h38v1h-38zM70 82h19v1h-19zM11 83h38v1h-38zM70 83h19v1h-19zM11 84h38v1h-38zM70 84h19v1h-19zM11 85h38v1h-38zM70 85h19v1h-19zM11 86h38v1h-38zM70 86h19v1h-19zM11 87h38v1h-38zM70 87h19v1h-19zM11 88h38v1h-38zM70 88h19v1h-19z" /><path fill="#d94242" d="M89 11h1v1h-1zM89 12h1v1h-1zM89 13h1v1h-1zM89 14h1v1h-1zM89 15h1v1h-1zM89 16h1v1h-1zM89 17h1v1h-1zM89 18h1v1h-1zM89 19h1v1h-1zM89 20h1v1h-1zM89 21h1v1h-1zM89 22h1v1h-1zM89 23h1v1h-1zM89 24h1v1h-1zM89 25h1v1h-1zM89 26h1v1h-1zM89 27h1v1h-1zM89 28h1v1h-1zM89 29h1v1h-1zM89 30h1v1h-1zM89 31h1v1h-1zM89 32h1v1h-1zM89 33h1v1h-1zM89 34h1v1h-1zM89 35h1v1h-1zM89 36h1v1h-1zM89 37h1v1h-1zM89 38h1v1h-1zM89 39h1v1h-1zM89 40h1v1h-1zM89 41h1v1h-1zM89 42h1v1h-1zM89 43h1v1h-1zM89 44h1v1h-1zM89 45h1v1h-1zM89 46h1v1h-1zM89 47h1v1h-1zM89 48h1v1h-1zM89 49h1v1h-1zM89 50h1v1h-1zM89 51h1v1h-1zM89 52h1v1h-1zM89 53h1v1h-1zM89 54h1v1h-1zM89 55h1v1h-1zM89 56h1v1h-1zM89 57h1v1h-1zM89 58h1v1h-1zM89 59h1v1h-1zM89 60h1v1h-1zM89 61h1v1h-1zM89 62h1v1h-1zM89 63h1v1h-1zM89 64h1v1h-1zM89 65h1v1h-1zM89 66h1v1h-1zM89 67h1v1h-1zM89 68h1v1h-1zM89 69h1v1h-1zM89 70h1v1h-1zM89 71h1v1h-1zM89 72h1v1h-1zM89 73h1v1h-1zM89 74h1v1h-1zM89 75h1v1h-1zM89 76h1v1h-1zM89 77h1v1h-1zM89 78h1v1h-1zM89 79h1v1h-1zM89 80h1v1h-1zM89 81h1v1h-1zM89 82h1v1h-1zM89 83h1v1h-1zM89 84h1v1h-1zM89 85h1v1h-1zM89 86h1v1h-1zM89 87h1v1h-1zM89 88h1v1h-1zM11 89h38v1h-38zM70 89h19v1h-19z" /><path fill="#f7d7d7" d="M49 30h1v1h-1z" /><path fill="#e88a8a" d="M50 30h19v1h-19z" /><path fill="#f4caca" d="M69 30h1v1h-1z" /><path fill="#eea8a8" d="M49 31h1v1h-1zM49 32h1v1h-1zM49 33h1v1h-1zM49 34h1v1h-1zM49 35h1v1h-1zM49 36h1v1h-1zM49 37h1v1h-1zM49 38h1v1h-1zM49 39h1v1h-1zM49 40h1v1h-1zM49 41h1v1h-1zM49 42h1v1h-1zM49 43h1v1h-1zM49 44h1v1h-1zM49 45h1v1h-1zM49 46h1v1h-1zM49 47h1v1h-1zM49 48h1v1h-1zM49 49h1v1h-1zM49 50h1v1h-1zM49 51h1v1h-1zM49 52h1v1h-1zM49 53h1v1h-1zM49 54h1v1h-1zM49 55h1v1h-1zM49 56h1v1h-1zM49 57h1v1h-1zM49 58h1v1h-1zM49 59h1v1h-1zM49 60h1v1h-1zM49 61h1v1h-1zM49 62h1v1h-1zM49 63h1v1h-1zM49 64h1v1h-1zM49 65h1v1h-1zM49 66h1v1h-1zM49 67h1v1h-1zM49 68h1v1h-1zM49 69h1v1h-1zM49 70h1v1h-1zM49 71h1v1h-1zM49 72h1v1h-1zM49 73h1v1h-1zM49 74h1v1h-1zM49 75h1v1h-1zM49 76h1v1h-1zM49 77h1v1h-1zM49 78h1v1h-1zM49 79h1v1h-1zM49 80h1v1h-1zM49 81h1v1h-1zM49 82h1v1h-1zM49 83h1v1h-1zM49 84h1v1h-1zM49 85h1v1h-1zM49 86h1v1h-1zM49 87h1v1h-1zM49 88h1v1h-1z" /><path fill="#e88b8b" d="M69 31h1v1h-1zM69 32h1v1h-1zM69 33h1v1h-1zM69 34h1v1h-1zM69 35h1v1h-1zM69 36h1v1h-1zM69 37h1v1h-1zM69 38h1v1h-1zM69 39h1v1h-1zM69 40h1v1h-1zM69 41h1v1h-1zM69 42h1v1h-1zM69 43h1v1h-1zM69 44h1v1h-1zM69 45h1v1h-1zM69 46h1v1h-1zM69 47h1v1h-1zM69 48h1v1h-1zM69 49h1v1h-1zM69 50h1v1h-1zM69 51h1v1h-1zM69 52h1v1h-1zM69 53h1v1h-1zM69 54h1v1h-1zM69 55h1v1h-1zM69 56h1v1h-1zM69 57h1v1h-1zM69 58h1v1h-1zM69 59h1v1h-1zM69 60h1v1h-1zM69 61h1v1h-1zM69 62h1v1h-1zM69 63h1v1h-1zM69 64h1v1h-1zM69 65h1v1h-1zM69 66h1v1h-1zM69 67h1v1h-1zM69 68h1v1h-1zM69 69h1v1h-1zM69 70h1v1h-1zM69 71h1v1h-1zM69 72h1v1h-1zM69 73h1v1h-1zM69 74h1v1h-1zM69 75h1v1h-1zM69 76h1v1h-1zM69 77h1v1h-1zM69 78h1v1h-1zM69 79h1v1h-1zM69 80h1v1h-1zM69 81h1v1h-1zM69 82h1v1h-1zM69 83h1v1h-1zM69 84h1v1h-1zM69 85h1v1h-1zM69 86h1v1h-1zM69 87h1v1h-1zM69 88h1v1h-1z" /><path fill="#d52b2b" d="M49 89h1v1h-1z" /><path fill="#d32323" d="M69 89h1v1h-1z" /></svg>