<svg xmlns="http://www.w3.org/2000/svg" viewBox="0 0 100 100"><path fill="#cb3837" fill-rule="evenodd" stroke="#cb3837" stroke-width=".1" d="M0 29h100v35h-50v6h-22v-6h-28zm6 5h-1v25h12v-18h5v18h6v-25zm28 0h-1v31h12v-6h11v-25zm28 0h-1v25h12v-18h4v18h7v-18h4v18h7v-25zm-17 7h5v11h-5z"/><path fill="#ca3837" fill-rule="evenodd" stroke="#ca3837" stroke-width=".1" d="M5 34h1v1h-1zm39 30h1v1h-1z"/><path fill="#ca3836" fill-rule="evenodd" stroke="#ca3836" stroke-width=".1" d="M6 34h21v1h-21zm28 0h21v1h-21zm27 0h33v1h-33zm33 1h1v23h-1zm-17 6h1v17h-1zm-43 23h10v1h-10z"/><path fill="#ca3736" fill-rule="evenodd" stroke="#ca3736" stroke-width=".1" d="M27 34h1v1h-1zm6 0h1v1h-1zm22 0h1v1h-1zm39 0h1v1h-1zm-6 7h1v17h-1zm-83 17h1v1h-1zm11 0h1v1h-1zm61 0h1v1h-1zm17 0h1v1h-1zm-61 6h1v1h-1z"/><path fill="#ca3737" fill-rule="evenodd" stroke="#ca3737" stroke-width=".1" d="M5 35h1v23h-1zm39 6h1v11h-1zm-38 17h10v1h-10zm17 0h4v1h-4zm22 0h10v1h-10zm0 1v5h-1v-5zm16-1h11v1h-11zm17 0h5v1h-5zm11 0h5v1h-5z"/><path fill="#cb3737" fill-rule="evenodd" stroke="#cb3737" stroke-width=".1" d="M72 41h1v17h-1zm-50 17h1v1h-1zm33 0h1v1h-1z"/><path fill="#cb3736" fill-rule="evenodd" stroke="#cb3736" stroke-width=".1" d="M83 41h1v18h-1zm-56 17h1v1h-1zm45 0h1v1h-1zm16 0h1v1h-1z"/></svg>