<svg xmlns="http://www.w3.org/2000/svg" viewBox="0 0 100 100" width="1em" height="1em"><path fill="#00dc81" d="M35 17h2v1h-2zM39 17h1v1h-1zM44 22h1v1h-1zM45 24h1v1h-1zM37 31h1v1h-1zM25 32h1v1h-1zM36 32h1v1h-1zM61 33h1v1h-1zM35 34h1v1h-1zM34 36h1v1h-1zM52 36h1v1h-1zM77 37h1v1h-1zM57 40h1v1h-1zM55 41h1v1h-1zM68 41h1v1h-1zM67 42h1v1h-1zM30 43h1v1h-1zM81 43h1v1h-1zM17 45h1v1h-1zM65 45h1v1h-1zM70 45h1v1h-1zM28 46h1v1h-1zM65 46h1v1h-1zM47 47h1v1h-1zM83 47h1v1h-1zM48 49h1v1h-1zM14 50h1v1h-1zM26 50h1v1h-1zM49 53h1v1h-1zM75 53h1v1h-1zM60 54h1v1h-1zM87 54h1v1h-1zM11 55h1v1h-1zM23 55h1v1h-1zM77 56h1v1h-1zM88 56h1v1h-1zM10 57h1v1h-1zM47 57h1v1h-1zM20 60h1v1h-1zM8 61h1v1h-1zM56 61h1v1h-1zM18 63h1v1h-1zM43 64h1v1h-1zM42 65h1v1h-1zM41 67h1v1h-1zM84 68h1v1h-1zM3 69h1v1h-1zM96 69h1v1h-1zM50 71h1v1h-1zM1 73h1v1h-1zM31 73h1v1h-1zM98 73h1v1h-1zM48 74h1v1h-1zM61 74h1v1h-1zM47 75h1v1h-1zM60 76h1v1h-1zM45 77h1v1h-1zM58 80h1v1h-1zM98 80h1v1h-1zM57 81h1v1h-1zM3 82h1v1h-1z" /><path fill="#00db81" d="M37 17h2v1h-2zM43 20h1v1h-1zM29 25h1v1h-1zM46 26h1v1h-1zM47 27h1v1h-1zM65 28h1v1h-1zM48 29h1v1h-1zM64 29h1v1h-1zM26 30h1v1h-1zM62 31h1v1h-1zM50 32h1v1h-1zM75 33h1v1h-1zM23 35h1v1h-1zM60 35h1v1h-1zM59 36h1v1h-1zM22 37h1v1h-1zM21 38h1v1h-1zM20 40h1v1h-1zM44 42h1v1h-1zM46 45h1v1h-1zM48 48h1v1h-1zM62 50h1v1h-1zM14 51h1v1h-1zM13 52h1v1h-1zM86 52h1v1h-1zM59 56h1v1h-1zM77 57h1v1h-1zM21 58h1v1h-1zM9 59h1v1h-1zM46 59h1v1h-1zM45 60h1v1h-1zM79 60h1v1h-1zM91 61h1v1h-1zM7 62h1v1h-1zM19 62h1v1h-1zM55 62h1v1h-1zM7 63h1v1h-1zM81 63h1v1h-1zM82 65h1v1h-1zM4 67h1v1h-1zM95 68h1v1h-1zM15 69h1v1h-1zM39 69h1v1h-1zM84 69h1v1h-1zM38 70h1v1h-1zM2 71h1v1h-1zM97 71h1v1h-1zM13 72h1v1h-1zM86 72h1v1h-1zM30 73h1v1h-1zM32 73h1v1h-1zM99 75h1v1h-1zM0 76h1v1h-1zM99 76h1v1h-1zM99 77h1v1h-1zM0 78h1v1h-1zM59 78h1v1h-1zM99 78h1v1h-1zM57 82h1v1h-1zM31 83h2v1h-2z" /><path fill="#00db82" d="M34 18h1v1h-1zM42 19h1v1h-1zM32 20h1v1h-1zM31 21h1v1h-1zM30 23h1v1h-1zM46 25h1v1h-1zM28 26h1v1h-1zM28 27h1v1h-1zM70 28h2v1h-2zM72 29h1v1h-1zM49 30h1v1h-1zM63 30h1v1h-1zM73 30h1v1h-1zM25 31h1v1h-1zM38 31h1v1h-1zM74 31h1v1h-1zM24 33h1v1h-1zM36 33h1v1h-1zM39 33h1v1h-1zM40 35h1v1h-1zM33 37h1v1h-1zM53 38h1v1h-1zM21 39h1v1h-1zM32 39h1v1h-1zM78 39h1v1h-1zM43 40h1v1h-1zM80 42h1v1h-1zM18 43h1v1h-1zM45 43h1v1h-1zM18 44h1v1h-1zM45 44h1v1h-1zM66 44h1v1h-1zM70 44h1v1h-1zM71 46h1v1h-1zM16 47h1v1h-1zM64 47h1v1h-1zM72 48h1v1h-1zM15 49h1v1h-1zM26 49h1v1h-1zM73 49h1v1h-1zM49 50h1v1h-1zM74 51h1v1h-1zM85 51h1v1h-1zM24 53h1v1h-1zM12 54h1v1h-1zM48 55h1v1h-1zM88 55h1v1h-1zM11 56h1v1h-1zM22 57h1v1h-1zM89 57h1v1h-1zM57 59h1v1h-1zM19 61h1v1h-1zM80 61h1v1h-1zM80 62h1v1h-1zM92 62h1v1h-1zM55 63h1v1h-1zM92 63h1v1h-1zM54 64h1v1h-1zM93 64h1v1h-1zM5 66h1v1h-1zM94 66h1v1h-1zM16 67h1v1h-1zM83 67h1v1h-1zM95 67h1v1h-1zM4 68h1v1h-1zM52 68h1v1h-1zM14 70h1v1h-1zM51 70h1v1h-1zM85 70h1v1h-1zM35 72h1v1h-1zM62 73h1v1h-1zM0 75h1v1h-1zM0 77h1v1h-1zM44 78h1v1h-1zM43 79h1v1h-1zM41 80h1v1h-1zM39 81h1v1h-1zM36 82h1v1h-1zM5 83h1v1h-1zM30 83h1v1h-1zM94 83h1v1h-1z" /><path fill="#00dc82" d="M35 18h7v1h-7zM33 19h9v1h-9zM33 20h10v1h-10zM32 21h12v1h-12zM31 22h13v1h-13zM31 23h14v1h-14zM30 24h15v1h-15zM30 25h16v1h-16zM29 26h17v1h-17zM29 27h18v1h-18zM27 28h21v1h-21zM66 28h4v1h-4zM27 29h21v1h-21zM65 29h7v1h-7zM27 30h22v1h-22zM64 30h9v1h-9zM26 31h11v1h-11zM39 31h11v1h-11zM63 31h11v1h-11zM26 32h10v1h-10zM39 32h11v1h-11zM62 32h13v1h-13zM25 33h11v1h-11zM40 33h11v1h-11zM62 33h13v1h-13zM24 34h11v1h-11zM40 34h12v1h-12zM60 34h16v1h-16zM24 35h11v1h-11zM41 35h11v1h-11zM61 35h16v1h-16zM23 36h11v1h-11zM41 36h11v1h-11zM60 36h17v1h-17zM23 37h10v1h-10zM41 37h13v1h-13zM59 37h18v1h-18zM22 38h12v1h-12zM42 38h11v1h-11zM58 38h21v1h-21zM22 39h10v1h-10zM43 39h12v1h-12zM57 39h21v1h-21zM21 40h11v1h-11zM44 40h11v1h-11zM58 40h22v1h-22zM20 41h12v1h-12zM44 41h11v1h-11zM56 41h12v1h-12zM69 41h11v1h-11zM19 42h12v1h-12zM45 42h22v1h-22zM69 42h11v1h-11zM19 43h11v1h-11zM46 43h21v1h-21zM69 43h12v1h-12zM19 44h11v1h-11zM46 44h20v1h-20zM71 44h11v1h-11zM18 45h12v1h-12zM47 45h18v1h-18zM71 45h12v1h-12zM17 46h11v1h-11zM47 46h18v1h-18zM72 46h11v1h-11zM17 47h11v1h-11zM48 47h16v1h-16zM72 47h11v1h-11zM16 48h12v1h-12zM49 48h15v1h-15zM73 48h11v1h-11zM16 49h10v1h-10zM49 49h15v1h-15zM74 49h11v1h-11zM15 50h11v1h-11zM50 50h12v1h-12zM73 50h13v1h-13zM15 51h11v1h-11zM50 51h13v1h-13zM75 51h10v1h-10zM14 52h11v1h-11zM50 52h12v1h-12zM75 52h11v1h-11zM13 53h11v1h-11zM50 53h11v1h-11zM76 53h11v1h-11zM13 54h11v1h-11zM49 54h11v1h-11zM76 54h11v1h-11zM12 55h11v1h-11zM49 55h11v1h-11zM76 55h12v1h-12zM12 56h11v1h-11zM48 56h11v1h-11zM78 56h10v1h-10zM11 57h11v1h-11zM48 57h11v1h-11zM78 57h11v1h-11zM10 58h11v1h-11zM46 58h13v1h-13zM78 58h12v1h-12zM10 59h11v1h-11zM47 59h10v1h-10zM79 59h12v1h-12zM9 60h11v1h-11zM46 60h11v1h-11zM80 60h11v1h-11zM9 61h10v1h-10zM45 61h11v1h-11zM81 61h10v1h-10zM8 62h11v1h-11zM44 62h11v1h-11zM81 62h11v1h-11zM8 63h10v1h-10zM43 63h12v1h-12zM82 63h10v1h-10zM6 64h12v1h-12zM44 64h10v1h-10zM82 64h11v1h-11zM6 65h12v1h-12zM43 65h11v1h-11zM83 65h11v1h-11zM6 66h11v1h-11zM42 66h12v1h-12zM83 66h11v1h-11zM5 67h11v1h-11zM42 67h11v1h-11zM84 67h11v1h-11zM5 68h11v1h-11zM40 68h12v1h-12zM85 68h10v1h-10zM4 69h11v1h-11zM40 69h12v1h-12zM85 69h11v1h-11zM3 70h11v1h-11zM39 70h12v1h-12zM86 70h11v1h-11zM3 71h11v1h-11zM37 71h13v1h-13zM86 71h11v1h-11zM2 72h11v1h-11zM36 72h14v1h-14zM87 72h11v1h-11zM2 73h28v1h-28zM33 73h17v1h-17zM63 73h35v1h-35zM1 74h47v1h-47zM62 74h37v1h-37zM1 75h46v1h-46zM61 75h38v1h-38zM1 76h46v1h-46zM61 76h38v1h-38zM1 77h44v1h-44zM60 77h39v1h-39zM1 78h43v1h-43zM60 78h39v1h-39zM1 79h42v1h-42zM59 79h40v1h-40zM1 80h40v1h-40zM59 80h39v1h-39zM2 81h37v1h-37zM58 81h40v1h-40zM4 82h32v1h-32zM37 82h1v1h-1zM58 82h39v1h-39zM6 83h24v1h-24zM57 83h37v1h-37z" /></svg>