<svg xmlns="http://www.w3.org/2000/svg" viewBox="0 0 100 100" width="1em" height="1em"><path fill="#74b71b" d="M43 19h57v1h-57zM43 20h57v1h-57zM43 21h57v1h-57zM43 22h57v1h-57zM43 23h57v1h-57zM43 24h57v1h-57zM43 25h57v1h-57zM43 26h57v1h-57zM41 27h1v1h-1zM54 27h46v1h-46zM38 28h4v1h-4zM57 28h43v1h-43zM33 29h9v1h-9zM60 29h40v1h-40zM31 30h11v1h-11zM62 30h38v1h-38zM29 31h11v1h-11zM64 31h36v1h-36zM27 32h8v1h-8zM43 32h6v1h-6zM66 32h34v1h-34zM25 33h8v1h-8zM43 33h9v1h-9zM67 33h33v1h-33zM23 34h7v1h-7zM43 34h12v1h-12zM69 34h31v1h-31zM21 35h7v1h-7zM43 35h14v1h-14zM70 35h30v1h-30zM20 36h7v1h-7zM43 36h17v1h-17zM70 36h30v1h-30zM17 37h8v1h-8zM51 37h9v1h-9zM72 37h28v1h-28zM17 38h7v1h-7zM40 38h2v1h-2zM54 38h8v1h-8zM74 38h26v1h-26zM15 39h8v1h-8zM36 39h6v1h-6zM54 39h1v1h-1zM56 39h7v1h-7zM75 39h25v1h-25zM14 40h7v1h-7zM34 40h8v1h-8zM57 40h8v1h-8zM76 40h24v1h-24zM13 41h8v1h-8zM32 41h10v1h-10zM57 41h8v1h-8zM77 41h23v1h-23zM12 42h7v1h-7zM30 42h8v1h-8zM39 42h1v1h-1zM60 42h6v1h-6zM77 42h23v1h-23zM10 43h9v1h-9zM28 43h7v1h-7zM43 43h2v1h-2zM61 43h6v1h-6zM78 43h22v1h-22zM10 44h8v1h-8zM28 44h7v1h-7zM43 44h4v1h-4zM61 44h7v1h-7zM79 44h21v1h-21zM9 45h8v1h-8zM26 45h7v1h-7zM43 45h5v1h-5zM61 45h7v1h-7zM79 45h21v1h-21zM10 46h7v1h-7zM25 46h7v1h-7zM43 46h6v1h-6zM60 46h7v1h-7zM78 46h22v1h-22zM10 47h8v1h-8zM26 47h6v1h-6zM43 47h7v1h-7zM59 47h8v1h-8zM76 47h24v1h-24zM11 48h7v1h-7zM26 48h6v1h-6zM43 48h7v1h-7zM58 48h7v1h-7zM76 48h24v1h-24zM11 49h8v1h-8zM26 49h7v1h-7zM43 49h8v1h-8zM56 49h8v1h-8zM75 49h25v1h-25zM12 50h7v1h-7zM27 50h6v1h-6zM43 50h9v1h-9zM55 50h8v1h-8zM74 50h26v1h-26zM12 51h8v1h-8zM27 51h6v1h-6zM43 51h9v1h-9zM54 51h8v1h-8zM73 51h9v1h-9zM83 51h17v1h-17zM13 52h8v1h-8zM27 52h7v1h-7zM43 52h18v1h-18zM72 52h9v1h-9zM85 52h15v1h-15zM13 53h8v1h-8zM29 53h5v1h-5zM43 53h17v1h-17zM71 53h10v1h-10zM86 53h14v1h-14zM14 54h7v1h-7zM29 54h6v1h-6zM43 54h16v1h-16zM70 54h9v1h-9zM87 54h13v1h-13zM15 55h7v1h-7zM30 55h6v1h-6zM43 55h15v1h-15zM68 55h9v1h-9zM89 55h11v1h-11zM15 56h7v1h-7zM31 56h7v1h-7zM43 56h13v1h-13zM67 56h9v1h-9zM90 56h1v1h-1zM92 56h8v1h-8zM15 57h8v1h-8zM31 57h7v1h-7zM43 57h11v1h-11zM66 57h10v1h-10zM93 57h7v1h-7zM16 58h8v1h-8zM33 58h6v1h-6zM43 58h11v1h-11zM64 58h10v1h-10zM94 58h6v1h-6zM18 59h7v1h-7zM34 59h7v1h-7zM45 59h3v1h-3zM50 59h1v1h-1zM62 59h11v1h-11zM92 59h8v1h-8zM18 60h8v1h-8zM36 60h6v1h-6zM60 60h12v1h-12zM92 60h8v1h-8zM20 61h7v1h-7zM37 61h5v1h-5zM59 61h10v1h-10zM90 61h10v1h-10zM21 62h7v1h-7zM40 62h2v1h-2zM57 62h11v1h-11zM88 62h12v1h-12zM22 63h7v1h-7zM54 63h12v1h-12zM87 63h13v1h-13zM23 64h7v1h-7zM50 64h14v1h-14zM85 64h15v1h-15zM23 65h8v1h-8zM43 65h20v1h-20zM83 65h17v1h-17zM25 66h8v1h-8zM43 66h16v1h-16zM60 66h1v1h-1zM79 66h21v1h-21zM27 67h9v1h-9zM43 67h13v1h-13zM78 67h22v1h-22zM28 68h11v1h-11zM43 68h8v1h-8zM52 68h1v1h-1zM76 68h24v1h-24zM30 69h12v1h-12zM73 69h27v1h-27zM32 70h10v1h-10zM69 70h31v1h-31zM34 71h8v1h-8zM64 71h1v1h-1zM66 71h34v1h-34zM38 72h4v1h-4zM62 72h38v1h-38zM56 73h44v1h-44zM43 74h1v1h-1zM48 74h52v1h-52zM43 75h57v1h-57zM43 76h57v1h-57zM43 77h57v1h-57zM43 78h57v1h-57zM43 79h57v1h-57zM43 80h57v1h-57z" /><path fill="#74b71a" d="M40 27h1v1h-1zM36 28h1v1h-1zM50 32h1v1h-1zM24 33h1v1h-1zM33 33h1v1h-1zM68 34h1v1h-1zM50 37h1v1h-1zM71 37h1v1h-1zM63 39h1v1h-1zM74 39h1v1h-1zM33 40h1v1h-1zM11 42h1v1h-1zM29 42h1v1h-1zM46 43h1v1h-1zM67 43h1v1h-1zM18 44h1v1h-1zM65 48h1v1h-1zM64 49h1v1h-1zM63 50h1v1h-1zM73 50h1v1h-1zM62 51h1v1h-1zM72 51h1v1h-1zM60 53h1v1h-1zM36 55h1v1h-1zM30 56h1v1h-1zM39 58h1v1h-1zM17 59h1v1h-1zM35 60h1v1h-1zM52 63h1v1h-1zM22 64h1v1h-1zM45 64h1v1h-1zM47 64h1v1h-1zM32 65h1v1h-1zM81 65h2v1h-2zM24 66h1v1h-1zM36 67h1v1h-1zM39 68h1v1h-1zM68 70h1v1h-1zM61 72h1v1h-1zM41 73h1v1h-1zM44 74h1v1h-1zM46 74h1v1h-1z" /><path fill="#74b61b" d="M51 27h1v1h-1zM53 27h1v1h-1zM55 28h1v1h-1zM61 30h1v1h-1zM28 31h1v1h-1zM40 31h1v1h-1zM42 31h1v1h-1zM35 32h1v1h-1zM52 33h1v1h-1zM20 35h1v1h-1zM57 35h1v1h-1zM19 36h1v1h-1zM62 38h1v1h-1zM14 39h1v1h-1zM13 40h1v1h-1zM35 43h1v1h-1zM60 43h1v1h-1zM9 44h1v1h-1zM9 46h1v1h-1zM17 46h1v1h-1zM32 46h1v1h-1zM59 46h1v1h-1zM58 47h1v1h-1zM10 49h1v1h-1zM51 49h1v1h-1zM74 49h1v1h-1zM19 50h1v1h-1zM12 52h1v1h-1zM71 52h1v1h-1zM59 54h1v1h-1zM79 54h1v1h-1zM14 55h1v1h-1zM77 55h1v1h-1zM56 56h1v1h-1zM91 56h1v1h-1zM92 57h1v1h-1zM40 58h1v1h-1zM74 58h1v1h-1zM93 58h1v1h-1zM91 60h1v1h-1zM36 61h1v1h-1zM89 61h1v1h-1zM20 62h1v1h-1zM21 63h1v1h-1zM29 63h1v1h-1zM66 63h1v1h-1zM30 64h1v1h-1zM59 66h1v1h-1zM25 67h1v1h-1zM75 68h1v1h-1zM31 70h1v1h-1zM42 70h1v1h-1zM33 71h1v1h-1zM42 71h1v1h-1zM65 71h1v1h-1zM42 72h1v1h-1zM54 73h2v1h-2z" /><path fill="#73b61a" d="M52 27h1v1h-1zM36 32h1v1h-1zM23 33h1v1h-1zM30 34h1v1h-1zM49 37h1v1h-1zM60 37h1v1h-1zM73 38h1v1h-1zM45 43h1v1h-1zM48 45h1v1h-1zM49 46h1v1h-1zM77 46h1v1h-1zM10 48h1v1h-1zM18 48h1v1h-1zM26 50h1v1h-1zM34 52h1v1h-1zM81 52h1v1h-1zM84 52h1v1h-1zM13 54h1v1h-1zM35 54h1v1h-1zM69 54h1v1h-1zM76 56h1v1h-1zM65 57h1v1h-1zM32 58h1v1h-1zM33 59h1v1h-1zM41 59h1v1h-1zM49 59h1v1h-1zM90 60h1v1h-1zM68 62h1v1h-1zM53 63h1v1h-1zM86 63h1v1h-1zM48 64h2v1h-2zM77 67h1v1h-1zM27 68h1v1h-1zM53 68h1v1h-1zM60 72h1v1h-1z" /><path fill="#73b71b" d="M35 28h1v1h-1zM32 29h1v1h-1zM59 29h1v1h-1zM63 31h1v1h-1zM25 32h1v1h-1zM64 32h1v1h-1zM28 35h1v1h-1zM48 37h1v1h-1zM39 38h1v1h-1zM53 38h1v1h-1zM55 39h1v1h-1zM21 40h1v1h-1zM75 40h1v1h-1zM76 41h1v1h-1zM19 42h1v1h-1zM59 42h1v1h-1zM78 44h1v1h-1zM68 45h1v1h-1zM78 45h1v1h-1zM32 48h1v1h-1zM50 48h1v1h-1zM57 48h1v1h-1zM82 51h1v1h-1zM61 52h1v1h-1zM22 55h1v1h-1zM22 56h1v1h-1zM66 56h1v1h-1zM25 59h1v1h-1zM42 59h1v1h-1zM48 59h1v1h-1zM19 61h1v1h-1zM69 61h1v1h-1zM39 62h1v1h-1zM55 62h1v1h-1zM41 63h1v1h-1zM43 64h1v1h-1zM83 64h2v1h-2zM31 65h1v1h-1zM26 67h1v1h-1zM74 68h1v1h-1zM47 74h1v1h-1z" /><path fill="#74b61a" d="M37 28h1v1h-1zM56 28h1v1h-1zM58 29h1v1h-1zM27 31h1v1h-1zM26 32h1v1h-1zM49 32h1v1h-1zM66 33h1v1h-1zM69 35h1v1h-1zM27 36h1v1h-1zM25 37h1v1h-1zM23 39h1v1h-1zM65 41h1v1h-1zM36 43h1v1h-1zM17 45h1v1h-1zM33 45h1v1h-1zM25 47h1v1h-1zM54 50h1v1h-1zM33 51h1v1h-1zM52 51h1v1h-1zM85 53h1v1h-1zM67 55h1v1h-1zM24 58h1v1h-1zM63 58h1v1h-1zM43 59h1v1h-1zM38 62h1v1h-1zM57 67h1v1h-1zM42 69h1v1h-1z" /><path fill="#73b61b" d="M42 28h1v1h-1zM42 29h1v1h-1zM30 30h1v1h-1zM42 30h1v1h-1zM37 32h1v1h-1zM53 33h1v1h-1zM22 34h1v1h-1zM55 34h1v1h-1zM16 38h1v1h-1zM37 38h2v1h-2zM42 38h1v1h-1zM52 38h1v1h-1zM35 39h1v1h-1zM42 39h1v1h-1zM42 40h1v1h-1zM42 41h1v1h-1zM38 42h1v1h-1zM43 42h1v1h-1zM66 42h1v1h-1zM27 44h1v1h-1zM75 48h1v1h-1zM53 51h1v1h-1zM28 53h1v1h-1zM34 53h1v1h-1zM58 55h1v1h-1zM38 57h1v1h-1zM44 59h1v1h-1zM42 60h1v1h-1zM42 61h1v1h-1zM58 61h1v1h-1zM42 62h1v1h-1zM85 63h1v1h-1zM64 64h1v1h-1zM56 67h1v1h-1zM51 68h1v1h-1zM29 69h1v1h-1zM71 69h1v1h-1zM36 72h1v1h-1zM40 73h1v1h-1zM45 74h1v1h-1z" /><path fill="#73b71a" d="M41 31h1v1h-1zM65 32h1v1h-1zM31 34h1v1h-1zM29 35h1v1h-1zM24 38h1v1h-1zM56 40h1v1h-1zM12 41h1v1h-1zM31 41h1v1h-1zM47 44h1v1h-1zM68 44h1v1h-1zM60 45h1v1h-1zM67 46h1v1h-1zM50 47h1v1h-1zM25 48h1v1h-1zM11 50h1v1h-1zM70 53h1v1h-1zM21 54h1v1h-1zM29 55h1v1h-1zM23 57h1v1h-1zM54 57h2v1h-2zM28 62h1v1h-1zM56 62h1v1h-1zM87 62h1v1h-1zM44 64h1v1h-1zM46 64h1v1h-1zM33 66h1v1h-1zM72 69h1v1h-1zM37 72h1v1h-1z" /></svg>