<svg xmlns="http://www.w3.org/2000/svg" viewBox="0 0 100 100" width="1em" height="1em"><path fill="#6594f1" d="M44 0h1v1h-1zM46 0h1v1h-1zM59 1h1v1h-1zM63 2h1v1h-1zM28 6h1v1h-1zM61 16h1v1h-1zM15 18h1v1h-1zM12 24h1v1h-1zM27 32h1v1h-1zM9 33h1v1h-1zM23 33h1v1h-1zM13 35h1v1h-1zM12 37h1v1h-1zM78 39h1v1h-1zM62 41h1v1h-1zM65 41h1v1h-1zM4 54h1v1h-1zM95 54h1v1h-1zM95 55h1v1h-1zM4 56h1v1h-1zM5 64h1v1h-1zM9 73h1v1h-1zM80 85h1v1h-1zM16 90h1v1h-1zM50 96h2v1h-2zM23 99h1v1h-1z" /><path fill="#6595f0" d="M45 0h1v1h-1zM47 0h1v1h-1zM53 0h1v1h-1zM39 1h1v1h-1zM36 2h1v1h-1zM70 7h1v1h-1zM16 17h1v1h-1zM14 20h1v1h-1zM31 31h1v1h-1zM9 34h1v1h-1zM17 38h1v1h-1zM85 38h1v1h-1zM71 40h1v1h-1zM64 41h1v1h-1zM66 41h1v1h-1zM93 43h1v1h-1zM95 51h1v1h-1zM4 59h1v1h-1zM6 67h1v1h-1zM93 67h1v1h-1zM92 69h1v1h-1zM89 75h1v1h-1zM86 79h1v1h-1zM17 88h1v1h-1zM69 92h1v1h-1zM13 95h1v1h-1zM37 95h1v1h-1zM40 95h1v1h-1zM58 95h1v1h-1zM24 99h1v1h-1z" /><path fill="#6494f1" d="M48 0h1v1h-1zM56 0h1v1h-1zM20 12h1v1h-1zM56 19h1v1h-1zM48 24h1v1h-1zM39 28h1v1h-1zM37 29h1v1h-1zM10 30h1v1h-1zM28 32h1v1h-1zM18 34h2v1h-2zM12 35h1v1h-1zM84 38h1v1h-1zM28 40h2v1h-2zM73 40h1v1h-1zM94 47h1v1h-1zM95 57h1v1h-1zM79 86h1v1h-1zM14 93h1v1h-1zM63 94h1v1h-1zM35 96h1v1h-1zM19 99h2v1h-2z" /><path fill="#6595f1" d="M49 0h3v1h-3zM42 1h17v1h-17zM38 2h25v1h-25zM34 3h31v1h-31zM33 4h34v1h-34zM31 5h38v1h-38zM29 6h41v1h-41zM27 7h43v1h-43zM26 8h44v1h-44zM25 9h44v1h-44zM23 10h45v1h-45zM21 11h46v1h-46zM21 12h44v1h-44zM19 13h46v1h-46zM19 14h45v1h-45zM18 15h44v1h-44zM18 16h42v1h-42zM17 17h42v1h-42zM16 18h42v1h-42zM15 19h41v1h-41zM15 20h41v1h-41zM14 21h39v1h-39zM14 22h37v1h-37zM13 23h38v1h-38zM13 24h35v1h-35zM12 25h34v1h-34zM12 26h32v1h-32zM12 27h29v1h-29zM11 28h28v1h-28zM11 29h25v1h-25zM11 30h23v1h-23zM10 31h20v1h-20zM10 32h17v1h-17zM10 33h13v1h-13zM10 34h8v1h-8zM10 35h2v1h-2zM9 37h3v1h-3zM9 38h7v1h-7zM8 39h14v1h-14zM80 39h9v1h-9zM8 40h18v1h-18zM75 40h16v1h-16zM7 41h26v1h-26zM36 41h1v1h-1zM63 41h1v1h-1zM68 41h24v1h-24zM6 42h87v1h-87zM7 43h86v1h-86zM6 44h88v1h-88zM6 45h88v1h-88zM6 46h88v1h-88zM6 47h88v1h-88zM5 48h90v1h-90zM5 49h90v1h-90zM5 50h91v1h-91zM5 51h90v1h-90zM4 52h92v1h-92zM5 53h90v1h-90zM5 54h90v1h-90zM5 55h90v1h-90zM5 56h90v1h-90zM4 57h91v1h-91zM5 58h90v1h-90zM5 59h90v1h-90zM5 60h90v1h-90zM5 61h90v1h-90zM6 62h88v1h-88zM6 63h88v1h-88zM6 64h88v1h-88zM6 65h88v1h-88zM6 66h87v1h-87zM7 67h86v1h-86zM7 68h86v1h-86zM7 69h85v1h-85zM8 70h84v1h-84zM9 71h82v1h-82zM9 72h82v1h-82zM10 73h80v1h-80zM10 74h80v1h-80zM11 75h78v1h-78zM12 76h76v1h-76zM12 77h77v1h-77zM13 78h74v1h-74zM14 79h72v1h-72zM15 80h71v1h-71zM16 81h68v1h-68zM17 82h66v1h-66zM17 83h65v1h-65zM18 84h63v1h-63zM18 85h62v1h-62zM18 86h61v1h-61zM18 87h59v1h-59zM18 88h58v1h-58zM17 89h57v1h-57zM75 89h1v1h-1zM17 90h55v1h-55zM73 90h1v1h-1zM16 91h54v1h-54zM16 92h52v1h-52zM15 93h50v1h-50zM14 94h48v1h-48zM14 95h23v1h-23zM43 95h14v1h-14zM13 96h22v1h-22zM14 97h19v1h-19zM15 98h15v1h-15zM17 99h1v1h-1zM21 99h1v1h-1zM26 99h1v1h-1z" /><path fill="#6495f0" d="M52 0h1v1h-1zM37 2h1v1h-1zM65 3h2v1h-2zM67 4h2v1h-2zM30 5h1v1h-1zM69 5h1v1h-1zM69 9h1v1h-1zM22 10h1v1h-1zM18 14h1v1h-1zM51 22h2v1h-2zM44 26h1v1h-1zM41 27h1v1h-1zM40 28h1v1h-1zM36 29h1v1h-1zM20 34h1v1h-1zM14 35h1v1h-1zM13 37h1v1h-1zM8 38h1v1h-1zM26 40h1v1h-1zM74 40h1v1h-1zM91 40h1v1h-1zM33 41h3v1h-3zM38 41h1v1h-1zM67 41h1v1h-1zM92 41h1v1h-1zM94 45h1v1h-1zM5 46h1v1h-1zM94 46h1v1h-1zM5 47h1v1h-1zM4 51h1v1h-1zM4 53h1v1h-1zM95 56h1v1h-1zM4 58h1v1h-1zM95 59h1v1h-1zM5 62h1v1h-1zM94 63h1v1h-1zM93 66h1v1h-1zM8 72h1v1h-1zM11 77h1v1h-1zM12 78h1v1h-1zM14 80h1v1h-1zM15 81h1v1h-1zM84 81h1v1h-1zM16 82h1v1h-1zM17 84h1v1h-1zM17 87h1v1h-1zM15 92h1v1h-1zM68 92h1v1h-1zM57 95h1v1h-1zM33 97h1v1h-1zM18 99h1v1h-1zM25 99h1v1h-1z" /><path fill="#6494f0" d="M54 0h1v1h-1zM60 1h1v1h-1zM32 4h1v1h-1zM29 5h1v1h-1zM25 8h1v1h-1zM59 17h1v1h-1zM53 21h1v1h-1zM11 26h1v1h-1zM42 27h1v1h-1zM16 38h1v1h-1zM79 39h1v1h-1zM6 43h1v1h-1zM5 45h1v1h-1zM95 53h1v1h-1zM10 75h1v1h-1zM87 78h1v1h-1zM13 79h1v1h-1zM71 91h1v1h-1zM31 98h1v1h-1z" /><path fill="#6594f0" d="M55 0h1v1h-1zM40 1h2v1h-2zM31 4h1v1h-1zM26 7h1v1h-1zM24 9h1v1h-1zM68 10h1v1h-1zM65 12h1v1h-1zM62 15h1v1h-1zM17 16h1v1h-1zM60 16h1v1h-1zM46 25h1v1h-1zM11 27h1v1h-1zM10 29h1v1h-1zM34 30h1v1h-1zM30 31h1v1h-1zM9 35h1v1h-1zM83 38h1v1h-1zM86 38h1v1h-1zM89 39h1v1h-1zM7 40h1v1h-1zM37 41h1v1h-1zM94 62h1v1h-1zM5 63h1v1h-1zM94 64h1v1h-1zM8 71h1v1h-1zM91 71h1v1h-1zM91 72h1v1h-1zM11 76h1v1h-1zM88 76h1v1h-1zM83 82h1v1h-1zM82 83h1v1h-1zM77 87h1v1h-1zM74 89h1v1h-1zM72 90h1v1h-1zM70 91h1v1h-1zM65 93h2v1h-2zM62 94h1v1h-1zM41 95h2v1h-2zM14 98h1v1h-1zM30 98h1v1h-1z" /><path fill="#6495f1" d="M67 11h1v1h-1zM58 18h1v1h-1zM13 21h1v1h-1zM13 22h1v1h-1zM12 23h1v1h-1zM24 33h1v1h-1zM9 36h1v1h-1zM22 39h1v1h-1zM27 40h1v1h-1zM72 40h1v1h-1zM4 55h1v1h-1zM95 58h1v1h-1zM90 73h1v1h-1zM81 84h1v1h-1zM78 87h1v1h-1zM76 88h1v1h-1zM59 95h1v1h-1zM22 99h1v1h-1z" /></svg>