<svg xmlns="http://www.w3.org/2000/svg" viewBox="0 0 100 100" width="1em" height="1em"><path fill="#183618" d="M40 0h1v1h-1zM53 1h1v1h-1zM55 2h1v1h-1zM43 6h1v1h-1zM45 6h1v1h-1zM47 6h1v1h-1zM26 8h1v1h-1zM63 8h2v1h-2zM54 12h1v1h-1zM30 13h1v1h-1zM66 14h1v1h-1zM21 16h1v1h-1zM20 17h1v1h-1zM58 17h1v1h-1zM88 17h1v1h-1zM56 18h1v1h-1zM89 18h1v1h-1zM42 19h1v1h-1zM26 23h1v1h-1zM19 24h1v1h-1zM35 24h1v1h-1zM62 25h1v1h-1zM6 26h1v1h-1zM42 26h1v1h-1zM87 28h1v1h-1zM63 29h1v1h-1zM87 29h1v1h-1zM68 32h1v1h-1zM56 33h1v1h-1zM71 34h1v1h-1zM75 36h1v1h-1zM1 37h1v1h-1zM93 38h1v1h-1zM7 39h1v1h-1zM67 42h1v1h-1zM69 43h1v1h-1zM7 44h1v1h-1zM87 44h1v1h-1zM1 45h1v1h-1zM96 46h1v1h-1zM27 49h1v1h-1zM20 50h1v1h-1zM91 51h1v1h-1zM3 52h1v1h-1zM92 56h1v1h-1zM7 58h1v1h-1zM92 58h1v1h-1zM7 59h1v1h-1zM19 60h1v1h-1zM59 62h1v1h-1zM6 63h1v1h-1zM14 64h1v1h-1zM52 66h1v1h-1zM31 67h1v1h-1zM6 68h1v1h-1zM48 68h1v1h-1zM83 73h1v1h-1zM81 74h1v1h-1zM73 79h1v1h-1zM10 80h1v1h-1zM57 80h1v1h-1zM19 81h1v1h-1zM12 83h1v1h-1zM52 83h1v1h-1zM13 84h1v1h-1zM78 84h1v1h-1zM49 85h1v1h-1zM45 87h1v1h-1zM69 87h1v1h-1zM25 91h1v1h-1zM61 92h1v1h-1zM56 93h1v1h-1zM41 95h1v1h-1zM44 97h1v1h-1zM50 99h1v1h-1zM59 99h1v1h-1z" /><path fill="#193617" d="M41 0h1v1h-1zM36 1h1v1h-1zM24 10h1v1h-1zM56 10h1v1h-1zM71 14h1v1h-1zM47 16h1v1h-1zM79 17h1v1h-1zM27 18h1v1h-1zM13 20h1v1h-1zM91 21h1v1h-1zM26 22h1v1h-1zM26 24h1v1h-1zM63 24h1v1h-1zM44 25h1v1h-1zM71 27h1v1h-1zM66 31h1v1h-1zM57 32h1v1h-1zM80 32h1v1h-1zM82 33h1v1h-1zM46 34h1v1h-1zM54 34h1v1h-1zM43 36h1v1h-1zM7 41h1v1h-1zM83 41h1v1h-1zM7 42h1v1h-1zM89 47h1v1h-1zM26 48h1v1h-1zM69 48h1v1h-1zM97 49h1v1h-1zM23 52h1v1h-1zM35 59h1v1h-1zM54 60h1v1h-1zM21 61h1v1h-1zM42 63h1v1h-1zM30 66h1v1h-1zM90 66h1v1h-1zM12 67h1v1h-1zM20 67h1v1h-1zM12 69h1v1h-1zM88 69h1v1h-1zM65 74h1v1h-1zM33 75h1v1h-1zM52 76h1v1h-1zM9 79h1v1h-1zM18 80h1v1h-1zM83 81h1v1h-1zM54 82h1v1h-1zM80 82h1v1h-1zM38 84h1v1h-1zM29 85h1v1h-1zM43 88h1v1h-1zM75 89h1v1h-1zM22 90h1v1h-1zM35 91h1v1h-1zM53 93h1v1h-1zM55 93h1v1h-1zM51 99h1v1h-1z" /><path fill="#193717" d="M42 0h1v1h-1zM61 6h1v1h-1zM50 7h1v1h-1zM80 10h1v1h-1zM72 14h1v1h-1zM62 15h1v1h-1zM17 18h1v1h-1zM15 19h1v1h-1zM10 22h1v1h-1zM46 24h1v1h-1zM92 24h1v1h-1zM14 27h1v1h-1zM58 27h1v1h-1zM93 27h1v1h-1zM73 28h1v1h-1zM75 29h1v1h-1zM51 31h1v1h-1zM2 33h1v1h-1zM9 33h1v1h-1zM44 35h1v1h-1zM55 35h1v1h-1zM39 38h1v1h-1zM66 46h1v1h-1zM65 47h1v1h-1zM65 48h1v1h-1zM65 49h1v1h-1zM65 50h1v1h-1zM65 51h1v1h-1zM65 52h1v1h-1zM34 53h1v1h-1zM65 53h1v1h-1zM65 54h1v1h-1zM92 54h1v1h-1zM65 55h1v1h-1zM65 56h1v1h-1zM65 57h1v1h-1zM65 58h1v1h-1zM65 59h1v1h-1zM92 59h1v1h-1zM37 60h1v1h-1zM65 60h1v1h-1zM92 60h1v1h-1zM65 61h1v1h-1zM65 62h1v1h-1zM65 63h1v1h-1zM91 63h1v1h-1zM6 64h1v1h-1zM65 64h1v1h-1zM28 65h1v1h-1zM65 65h1v1h-1zM65 66h1v1h-1zM97 66h1v1h-1zM42 67h1v1h-1zM65 67h1v1h-1zM65 68h1v1h-1zM38 69h1v1h-1zM65 69h1v1h-1zM65 70h1v1h-1zM65 71h1v1h-1zM86 71h1v1h-1zM28 72h1v1h-1zM65 72h1v1h-1zM57 73h1v1h-1zM65 73h1v1h-1zM64 76h1v1h-1zM8 77h1v1h-1zM50 77h1v1h-1zM61 78h1v1h-1zM85 80h1v1h-1zM72 82h1v1h-1zM24 84h1v1h-1zM34 85h1v1h-1zM15 86h1v1h-1zM77 86h1v1h-1zM73 92h1v1h-1zM52 93h1v1h-1zM54 93h1v1h-1zM57 99h1v1h-1z" /><path fill="#193618" d="M43 0h2v1h-2zM48 0h1v1h-1zM58 4h1v1h-1zM46 6h1v1h-1zM36 8h1v1h-1zM66 8h1v1h-1zM25 9h1v1h-1zM57 10h1v1h-1zM24 11h1v1h-1zM55 12h1v1h-1zM73 14h1v1h-1zM61 15h1v1h-1zM86 15h1v1h-1zM28 16h1v1h-1zM46 17h1v1h-1zM80 17h1v1h-1zM18 18h1v1h-1zM81 18h1v1h-1zM83 20h1v1h-1zM90 20h1v1h-1zM26 21h1v1h-1zM51 21h1v1h-1zM84 21h1v1h-1zM49 22h1v1h-1zM36 23h1v1h-1zM7 25h1v1h-1zM15 26h1v1h-1zM60 26h1v1h-1zM40 27h1v1h-1zM5 28h1v1h-1zM57 28h1v1h-1zM4 29h1v1h-1zM74 29h1v1h-1zM53 30h1v1h-1zM52 31h1v1h-1zM59 31h1v1h-1zM55 33h1v1h-1zM83 34h1v1h-1zM87 36h1v1h-1zM52 38h1v1h-1zM54 39h1v1h-1zM62 39h1v1h-1zM1 41h1v1h-1zM1 42h1v1h-1zM59 42h1v1h-1zM94 43h1v1h-1zM70 44h1v1h-1zM7 45h1v1h-1zM96 47h1v1h-1zM70 48h1v1h-1zM90 48h1v1h-1zM28 50h1v1h-1zM24 52h1v1h-1zM4 53h1v1h-1zM27 54h1v1h-1zM29 55h1v1h-1zM98 55h1v1h-1zM13 56h1v1h-1zM30 56h1v1h-1zM59 57h1v1h-1zM52 61h1v1h-1zM92 61h1v1h-1zM41 62h1v1h-1zM13 63h1v1h-1zM12 65h1v1h-1zM6 66h1v1h-1zM44 66h1v1h-1zM51 66h1v1h-1zM22 68h1v1h-1zM6 69h1v1h-1zM35 69h1v1h-1zM36 70h1v1h-1zM27 71h1v1h-1zM13 73h1v1h-1zM58 73h1v1h-1zM82 74h1v1h-1zM34 75h1v1h-1zM62 77h1v1h-1zM47 79h1v1h-1zM46 80h1v1h-1zM84 80h1v1h-1zM11 81h1v1h-1zM82 81h1v1h-1zM20 82h1v1h-1zM43 89h1v1h-1zM67 89h1v1h-1zM23 90h1v1h-1zM74 90h1v1h-1zM26 91h2v1h-2zM48 92h1v1h-1zM62 92h1v1h-1zM39 93h1v1h-1zM51 93h1v1h-1zM58 93h1v1h-1zM70 94h1v1h-1zM69 95h1v1h-1z" /><path fill="#193718" d="M45 0h1v1h-1zM38 1h15v1h-15zM35 2h20v1h-20zM33 3h24v1h-24zM32 4h26v1h-26zM30 5h30v1h-30zM29 6h12v1h-12zM44 6h1v1h-1zM48 6h13v1h-13zM28 7h11v1h-11zM52 7h11v1h-11zM27 8h9v1h-9zM53 8h10v1h-10zM67 8h5v1h-5zM26 9h9v1h-9zM56 9h21v1h-21zM25 10h8v1h-8zM58 10h21v1h-21zM25 11h8v1h-8zM57 11h24v1h-24zM24 12h7v1h-7zM56 12h28v1h-28zM23 13h7v1h-7zM54 13h30v1h-30zM22 14h7v1h-7zM52 14h12v1h-12zM74 14h12v1h-12zM22 15h7v1h-7zM49 15h12v1h-12zM77 15h9v1h-9zM22 16h6v1h-6zM49 16h11v1h-11zM79 16h8v1h-8zM21 17h7v1h-7zM47 17h10v1h-10zM81 17h7v1h-7zM19 18h8v1h-8zM44 18h12v1h-12zM82 18h7v1h-7zM16 19h11v1h-11zM43 19h11v1h-11zM83 19h7v1h-7zM14 20h13v1h-13zM42 20h11v1h-11zM84 20h6v1h-6zM12 21h14v1h-14zM40 21h11v1h-11zM85 21h6v1h-6zM11 22h15v1h-15zM38 22h11v1h-11zM85 22h6v1h-6zM9 23h17v1h-17zM37 23h11v1h-11zM86 23h6v1h-6zM9 24h10v1h-10zM20 24h6v1h-6zM36 24h9v1h-9zM86 24h6v1h-6zM8 25h10v1h-10zM20 25h6v1h-6zM35 25h9v1h-9zM63 25h5v1h-5zM87 25h6v1h-6zM7 26h8v1h-8zM20 26h6v1h-6zM35 26h7v1h-7zM61 26h9v1h-9zM87 26h6v1h-6zM6 27h8v1h-8zM20 27h6v1h-6zM35 27h5v1h-5zM59 27h12v1h-12zM88 27h5v1h-5zM6 28h7v1h-7zM20 28h6v1h-6zM35 28h4v1h-4zM58 28h15v1h-15zM88 28h5v1h-5zM5 29h7v1h-7zM20 29h6v1h-6zM35 29h4v1h-4zM55 29h7v1h-7zM64 29h10v1h-10zM88 29h6v1h-6zM4 30h7v1h-7zM20 30h6v1h-6zM35 30h4v1h-4zM54 30h7v1h-7zM66 30h10v1h-10zM88 30h6v1h-6zM4 31h7v1h-7zM20 31h6v1h-6zM35 31h4v1h-4zM53 31h6v1h-6zM67 31h11v1h-11zM88 31h6v1h-6zM3 32h6v1h-6zM20 32h6v1h-6zM35 32h4v1h-4zM51 32h6v1h-6zM69 32h11v1h-11zM88 32h6v1h-6zM3 33h6v1h-6zM20 33h6v1h-6zM35 33h4v1h-4zM49 33h6v1h-6zM71 33h11v1h-11zM88 33h6v1h-6zM3 34h6v1h-6zM20 34h6v1h-6zM35 34h4v1h-4zM47 34h7v1h-7zM72 34h11v1h-11zM88 34h6v1h-6zM2 35h7v1h-7zM20 35h6v1h-6zM35 35h4v1h-4zM45 35h10v1h-10zM74 35h11v1h-11zM88 35h6v1h-6zM2 36h6v1h-6zM20 36h6v1h-6zM35 36h4v1h-4zM44 36h13v1h-13zM76 36h11v1h-11zM88 36h6v1h-6zM2 37h6v1h-6zM20 37h6v1h-6zM35 37h4v1h-4zM42 37h7v1h-7zM51 37h7v1h-7zM77 37h16v1h-16zM2 38h6v1h-6zM20 38h6v1h-6zM35 38h4v1h-4zM40 38h7v1h-7zM53 38h7v1h-7zM79 38h14v1h-14zM1 39h6v1h-6zM20 39h6v1h-6zM35 39h12v1h-12zM55 39h7v1h-7zM81 39h12v1h-12zM2 40h5v1h-5zM20 40h6v1h-6zM35 40h10v1h-10zM57 40h7v1h-7zM83 40h10v1h-10zM2 41h5v1h-5zM20 41h6v1h-6zM35 41h7v1h-7zM58 41h8v1h-8zM84 41h9v1h-9zM2 42h5v1h-5zM20 42h6v1h-6zM35 42h5v1h-5zM60 42h7v1h-7zM86 42h8v1h-8zM1 43h6v1h-6zM20 43h6v1h-6zM35 43h4v1h-4zM61 43h8v1h-8zM87 43h7v1h-7zM2 44h5v1h-5zM20 44h6v1h-6zM35 44h4v1h-4zM62 44h8v1h-8zM88 44h7v1h-7zM2 45h5v1h-5zM20 45h6v1h-6zM35 45h4v1h-4zM62 45h10v1h-10zM88 45h7v1h-7zM2 46h6v1h-6zM20 46h6v1h-6zM35 46h4v1h-4zM62 46h3v1h-3zM67 46h8v1h-8zM90 46h6v1h-6zM2 47h6v1h-6zM20 47h6v1h-6zM35 47h4v1h-4zM62 47h3v1h-3zM69 47h7v1h-7zM90 47h6v1h-6zM2 48h6v1h-6zM20 48h6v1h-6zM35 48h4v1h-4zM62 48h3v1h-3zM71 48h6v1h-6zM91 48h6v1h-6zM2 49h6v1h-6zM20 49h7v1h-7zM35 49h4v1h-4zM62 49h3v1h-3zM72 49h7v1h-7zM91 49h6v1h-6zM3 50h6v1h-6zM21 50h7v1h-7zM35 50h4v1h-4zM62 50h3v1h-3zM73 50h7v1h-7zM91 50h7v1h-7zM4 51h5v1h-5zM23 51h7v1h-7zM35 51h4v1h-4zM62 51h3v1h-3zM74 51h6v1h-6zM92 51h6v1h-6zM4 52h6v1h-6zM25 52h7v1h-7zM35 52h4v1h-4zM62 52h3v1h-3zM74 52h6v1h-6zM92 52h6v1h-6zM5 53h6v1h-6zM25 53h8v1h-8zM35 53h4v1h-4zM62 53h3v1h-3zM74 53h6v1h-6zM93 53h6v1h-6zM5 54h6v1h-6zM28 54h11v1h-11zM62 54h3v1h-3zM74 54h6v1h-6zM93 54h5v1h-5zM6 55h6v1h-6zM30 55h9v1h-9zM62 55h3v1h-3zM74 55h6v1h-6zM93 55h5v1h-5zM6 56h7v1h-7zM31 56h8v1h-8zM61 56h4v1h-4zM74 56h6v1h-6zM93 56h6v1h-6zM6 57h8v1h-8zM33 57h7v1h-7zM60 57h5v1h-5zM74 57h6v1h-6zM93 57h6v1h-6zM8 58h8v1h-8zM35 58h7v1h-7zM58 58h7v1h-7zM74 58h6v1h-6zM93 58h6v1h-6zM8 59h10v1h-10zM37 59h8v1h-8zM57 59h8v1h-8zM74 59h6v1h-6zM93 59h6v1h-6zM8 60h11v1h-11zM38 60h9v1h-9zM55 60h10v1h-10zM74 60h6v1h-6zM93 60h6v1h-6zM7 61h14v1h-14zM40 61h7v1h-7zM53 61h8v1h-8zM62 61h3v1h-3zM74 61h6v1h-6zM93 61h5v1h-5zM7 62h16v1h-16zM42 62h7v1h-7zM51 62h7v1h-7zM62 62h3v1h-3zM74 62h6v1h-6zM92 62h7v1h-7zM7 63h6v1h-6zM14 63h10v1h-10zM44 63h13v1h-13zM62 63h3v1h-3zM74 63h6v1h-6zM92 63h6v1h-6zM7 64h5v1h-5zM16 64h10v1h-10zM44 64h12v1h-12zM62 64h3v1h-3zM74 64h6v1h-6zM92 64h6v1h-6zM7 65h5v1h-5zM17 65h11v1h-11zM46 65h7v1h-7zM62 65h3v1h-3zM74 65h6v1h-6zM91 65h7v1h-7zM7 66h5v1h-5zM18 66h11v1h-11zM45 66h6v1h-6zM62 66h3v1h-3zM74 66h6v1h-6zM91 66h6v1h-6zM6 67h6v1h-6zM21 67h10v1h-10zM43 67h7v1h-7zM62 67h3v1h-3zM74 67h6v1h-6zM90 67h7v1h-7zM7 68h5v1h-5zM21 68h1v1h-1zM23 68h10v1h-10zM41 68h7v1h-7zM62 68h3v1h-3zM74 68h6v1h-6zM90 68h6v1h-6zM7 69h5v1h-5zM24 69h11v1h-11zM40 69h7v1h-7zM62 69h3v1h-3zM74 69h6v1h-6zM89 69h7v1h-7zM7 70h6v1h-6zM25 70h11v1h-11zM38 70h7v1h-7zM62 70h3v1h-3zM74 70h6v1h-6zM88 70h7v1h-7zM7 71h6v1h-6zM28 71h15v1h-15zM61 71h4v1h-4zM74 71h6v1h-6zM87 71h8v1h-8zM7 72h6v1h-6zM29 72h12v1h-12zM60 72h5v1h-5zM74 72h6v1h-6zM85 72h10v1h-10zM8 73h5v1h-5zM30 73h9v1h-9zM59 73h6v1h-6zM74 73h6v1h-6zM84 73h10v1h-10zM7 74h7v1h-7zM33 74h5v1h-5zM57 74h8v1h-8zM74 74h6v1h-6zM83 74h9v1h-9zM8 75h7v1h-7zM36 75h1v1h-1zM54 75h11v1h-11zM74 75h17v1h-17zM8 76h7v1h-7zM53 76h11v1h-11zM74 76h16v1h-16zM9 77h7v1h-7zM52 77h10v1h-10zM74 77h16v1h-16zM9 78h7v1h-7zM50 78h11v1h-11zM74 78h14v1h-14zM10 79h7v1h-7zM48 79h12v1h-12zM74 79h12v1h-12zM11 80h7v1h-7zM45 80h1v1h-1zM47 80h10v1h-10zM74 80h10v1h-10zM12 81h7v1h-7zM45 81h10v1h-10zM73 81h9v1h-9zM12 82h8v1h-8zM43 82h11v1h-11zM73 82h6v1h-6zM13 83h9v1h-9zM41 83h11v1h-11zM73 83h6v1h-6zM14 84h10v1h-10zM39 84h11v1h-11zM72 84h6v1h-6zM15 85h12v1h-12zM36 85h13v1h-13zM71 85h7v1h-7zM16 86h31v1h-31zM71 86h6v1h-6zM18 87h27v1h-27zM70 87h7v1h-7zM18 88h25v1h-25zM69 88h8v1h-8zM21 89h22v1h-22zM68 89h7v1h-7zM24 90h20v1h-20zM67 90h7v1h-7zM28 91h6v1h-6zM36 91h11v1h-11zM64 91h10v1h-10zM38 92h10v1h-10zM63 92h10v1h-10zM40 93h11v1h-11zM60 93h12v1h-12zM41 94h29v1h-29zM42 95h27v1h-27zM44 96h23v1h-23zM46 97h20v1h-20zM47 98h15v1h-15zM55 99h2v1h-2z" /><path fill="#183617" d="M46 0h2v1h-2zM49 0h1v1h-1zM31 4h1v1h-1zM60 5h1v1h-1zM41 6h1v1h-1zM73 8h2v1h-2zM55 9h1v1h-1zM79 10h1v1h-1zM81 11h1v1h-1zM23 12h1v1h-1zM84 13h1v1h-1zM51 14h1v1h-1zM65 14h1v1h-1zM87 16h1v1h-1zM57 17h1v1h-1zM37 22h1v1h-1zM91 22h1v1h-1zM8 24h1v1h-1zM64 24h2v1h-2zM87 27h1v1h-1zM93 28h1v1h-1zM62 29h1v1h-1zM65 30h1v1h-1zM3 31h1v1h-1zM85 35h1v1h-1zM1 38h1v1h-1zM1 40h1v1h-1zM95 45h1v1h-1zM89 46h1v1h-1zM77 48h1v1h-1zM8 49h1v1h-1zM71 49h1v1h-1zM22 51h1v1h-1zM33 53h1v1h-1zM5 55h1v1h-1zM36 59h1v1h-1zM39 61h1v1h-1zM61 61h1v1h-1zM98 61h1v1h-1zM58 62h1v1h-1zM12 64h1v1h-1zM15 64h1v1h-1zM29 66h1v1h-1zM96 68h1v1h-1zM39 69h1v1h-1zM6 70h1v1h-1zM95 70h1v1h-1zM59 72h1v1h-1zM32 74h1v1h-1zM56 74h1v1h-1zM35 75h1v1h-1zM90 76h1v1h-1zM51 77h1v1h-1zM16 78h1v1h-1zM88 78h1v1h-1zM86 79h1v1h-1zM55 81h1v1h-1zM79 82h1v1h-1zM72 83h1v1h-1zM68 88h1v1h-1zM20 89h1v1h-1zM44 90h1v1h-1zM34 91h1v1h-1zM43 96h1v1h-1zM45 97h1v1h-1zM52 99h1v1h-1zM54 99h1v1h-1z" /><path fill="#183717" d="M37 1h1v1h-1zM34 2h1v1h-1zM32 3h1v1h-1zM57 3h1v1h-1zM29 5h1v1h-1zM28 6h1v1h-1zM42 6h1v1h-1zM27 7h1v1h-1zM51 7h1v1h-1zM65 8h1v1h-1zM72 8h1v1h-1zM33 10h1v1h-1zM56 11h1v1h-1zM53 13h1v1h-1zM29 14h1v1h-1zM64 14h1v1h-1zM76 15h1v1h-1zM48 16h1v1h-1zM78 16h1v1h-1zM54 19h1v1h-1zM82 19h1v1h-1zM41 20h1v1h-1zM39 21h1v1h-1zM45 24h1v1h-1zM66 24h1v1h-1zM86 25h1v1h-1zM39 28h1v1h-1zM76 30h1v1h-1zM78 31h1v1h-1zM9 32h1v1h-1zM50 32h1v1h-1zM48 33h1v1h-1zM70 33h1v1h-1zM2 34h1v1h-1zM73 35h1v1h-1zM49 37h2v1h-2zM58 37h1v1h-1zM93 37h1v1h-1zM47 38h1v1h-1zM60 38h1v1h-1zM80 39h1v1h-1zM7 40h1v1h-1zM56 40h1v1h-1zM82 40h1v1h-1zM42 41h1v1h-1zM40 42h1v1h-1zM85 42h1v1h-1zM7 43h1v1h-1zM86 43h1v1h-1zM72 45h1v1h-1zM65 46h1v1h-1zM68 47h1v1h-1zM79 49h1v1h-1zM3 51h1v1h-1zM9 51h1v1h-1zM30 51h1v1h-1zM92 53h1v1h-1zM11 54h1v1h-1zM98 54h1v1h-1zM12 55h1v1h-1zM92 55h1v1h-1zM14 57h1v1h-1zM40 57h1v1h-1zM92 57h1v1h-1zM34 58h1v1h-1zM42 58h1v1h-1zM56 59h1v1h-1zM7 60h1v1h-1zM47 61h1v1h-1zM23 62h1v1h-1zM49 62h2v1h-2zM24 63h1v1h-1zM43 63h1v1h-1zM57 63h1v1h-1zM91 64h1v1h-1zM6 65h1v1h-1zM53 65h1v1h-1zM12 66h1v1h-1zM12 68h1v1h-1zM89 68h1v1h-1zM37 70h1v1h-1zM87 70h1v1h-1zM43 71h1v1h-1zM41 72h1v1h-1zM7 73h1v1h-1zM39 73h1v1h-1zM92 74h1v1h-1zM91 75h1v1h-1zM49 78h1v1h-1zM73 80h1v1h-1zM44 81h1v1h-1zM22 83h1v1h-1zM50 84h1v1h-1zM14 85h1v1h-1zM27 85h1v1h-1zM47 86h1v1h-1zM70 86h1v1h-1zM17 87h1v1h-1zM66 90h1v1h-1zM59 93h1v1h-1zM40 94h1v1h-1zM67 96h1v1h-1zM62 98h2v1h-2zM53 99h1v1h-1zM58 99h1v1h-1z" /><path fill="#183718" d="M77 9h1v1h-1zM31 12h1v1h-1zM11 21h1v1h-1zM85 23h1v1h-1zM68 25h1v1h-1zM11 30h1v1h-1zM61 30h1v1h-1zM64 30h1v1h-1zM57 36h1v1h-1zM41 37h1v1h-1zM78 38h1v1h-1zM64 40h1v1h-1zM57 41h1v1h-1zM39 43h1v1h-1zM1 44h1v1h-1zM61 44h1v1h-1zM71 44h1v1h-1zM95 44h1v1h-1zM61 45h1v1h-1zM61 46h1v1h-1zM61 47h1v1h-1zM76 47h1v1h-1zM8 48h1v1h-1zM61 48h1v1h-1zM78 48h1v1h-1zM61 49h1v1h-1zM61 50h1v1h-1zM61 51h1v1h-1zM10 52h1v1h-1zM32 52h1v1h-1zM61 52h1v1h-1zM61 53h1v1h-1zM4 54h1v1h-1zM61 54h1v1h-1zM61 55h1v1h-1zM39 56h1v1h-1zM32 57h1v1h-1zM16 58h1v1h-1zM57 58h1v1h-1zM61 62h1v1h-1zM61 63h1v1h-1zM98 63h1v1h-1zM26 64h1v1h-1zM61 64h1v1h-1zM16 65h1v1h-1zM45 65h1v1h-1zM61 65h1v1h-1zM61 66h1v1h-1zM50 67h1v1h-1zM61 67h1v1h-1zM33 68h1v1h-1zM40 68h1v1h-1zM61 68h1v1h-1zM23 69h1v1h-1zM61 69h1v1h-1zM45 70h1v1h-1zM61 70h1v1h-1zM13 72h1v1h-1zM38 74h1v1h-1zM17 79h1v1h-1zM56 81h1v1h-1zM42 82h1v1h-1zM40 83h1v1h-1zM71 84h1v1h-1zM28 85h1v1h-1zM35 85h1v1h-1zM57 93h1v1h-1z" /></svg>