<svg xmlns="http://www.w3.org/2000/svg" viewBox="0 0 100 100" width="1em" height="1em"><path fill="#f97a16" d="M23 6h1v1h-1zM39 10h1v1h-1zM46 16h1v1h-1z" /><path fill="#fa7b16" d="M24 6h1v1h-1zM26 6h2v1h-2zM17 12h1v1h-1zM18 13h1v1h-1zM21 16h1v1h-1zM23 18h1v1h-1zM25 20h1v1h-1zM27 22h1v1h-1zM29 24h1v1h-1zM30 25h1v1h-1zM31 26h1v1h-1z" /><path fill="#f97b17" d="M25 6h1v1h-1zM36 8h1v1h-1zM42 12h1v1h-1zM48 19h1v1h-1z" /><path fill="#fa7b17" d="M28 6h1v1h-1zM20 7h12v1h-12zM33 7h1v1h-1zM17 8h18v1h-18zM16 9h21v1h-21zM16 10h23v1h-23zM17 11h24v1h-24zM18 12h24v1h-24zM19 13h24v1h-24zM20 14h25v1h-25zM21 15h24v1h-24zM22 16h24v1h-24zM23 17h24v1h-24zM24 18h24v1h-24zM25 19h23v1h-23zM26 20h23v1h-23zM27 21h23v1h-23zM28 22h22v1h-22zM29 23h21v1h-21zM30 24h21v1h-21zM31 25h20v1h-20zM32 26h19v1h-19zM33 27h19v1h-19zM35 28h17v1h-17zM37 29h15v1h-15zM39 30h13v1h-13zM41 31h11v1h-11zM42 32h10v1h-10zM43 33h9v1h-9zM44 34h8v1h-8zM45 35h7v1h-7zM46 36h6v1h-6zM47 37h5v1h-5zM47 38h5v1h-5zM48 39h4v1h-4zM49 40h2v1h-2zM49 41h2v1h-2zM49 42h2v1h-2z" /><path fill="#ff8acb" d="M71 6h1v1h-1zM75 6h1v1h-1zM67 7h1v1h-1zM63 8h1v1h-1zM53 16h1v1h-1zM52 17h1v1h-1zM51 18h1v1h-1z" /><path fill="#ff8bca" d="M72 6h2v1h-2zM66 7h1v1h-1zM62 9h1v1h-1zM57 12h1v1h-1zM80 14h1v1h-1zM54 15h1v1h-1zM79 15h1v1h-1zM77 17h1v1h-1zM75 19h1v1h-1zM50 20h1v1h-1zM73 21h1v1h-1zM71 23h1v1h-1z" /><path fill="#ff8aca" d="M74 6h1v1h-1zM76 6h1v1h-1zM81 7h1v1h-1zM58 11h1v1h-1zM56 13h1v1h-1zM51 19h1v1h-1z" /><path fill="#fa7a17" d="M18 7h1v1h-1zM16 8h1v1h-1zM38 9h1v1h-1zM41 11h1v1h-1zM47 17h1v1h-1z" /><path fill="#f97a17" d="M19 7h1v1h-1zM37 9h1v1h-1zM43 13h1v1h-1zM45 15h1v1h-1z" /><path fill="#f97b16" d="M32 7h1v1h-1zM35 8h1v1h-1zM16 11h1v1h-1zM48 18h1v1h-1zM49 20h1v1h-1z" /><path fill="#ff8bcb" d="M68 7h13v1h-13zM64 8h20v1h-20zM61 9h1v1h-1zM63 9h21v1h-21zM60 10h24v1h-24zM59 11h25v1h-25zM58 12h25v1h-25zM57 13h25v1h-25zM55 14h25v1h-25zM55 15h24v1h-24zM54 16h25v1h-25zM53 17h24v1h-24zM52 18h25v1h-25zM52 19h23v1h-23zM51 20h24v1h-24zM51 21h22v1h-22zM51 22h22v1h-22zM52 23h19v1h-19zM52 24h19v1h-19zM52 25h18v1h-18zM53 26h16v1h-16zM53 27h14v1h-14zM53 28h13v1h-13zM53 29h12v1h-12zM53 30h11v1h-11zM53 31h10v1h-10zM53 32h9v1h-9zM53 33h8v1h-8zM53 34h7v1h-7zM53 35h6v1h-6zM53 36h5v1h-5zM53 37h4v1h-4zM53 38h3v1h-3zM53 39h2v1h-2zM52 40h2v1h-2zM52 41h1v1h-1z" /><path fill="#fa7a16" d="M19 14h1v1h-1zM20 15h1v1h-1zM22 17h1v1h-1zM24 19h1v1h-1zM26 21h1v1h-1zM28 23h1v1h-1z" /><path fill="#fe879b" d="M50 21h1v1h-1z" /><path fill="#fb7f4a" d="M50 22h1v1h-1z" /><path fill="#fa7c18" d="M50 23h1v1h-1z" /><path fill="#fe89b5" d="M51 23h1v1h-1z" /><path fill="#fd8376" d="M51 24h1v1h-1z" /><path fill="#fb7e3d" d="M51 25h1v1h-1z" /><path fill="#fa7c19" d="M51 26h1v1h-1z" /><path fill="#ff8abf" d="M52 26h1v1h-1z" /><path fill="#4185f3" d="M18 27h1v1h-1zM28 27h1v1h-1zM6 34h1v1h-1z" /><path fill="#4285f4" d="M19 27h1v1h-1zM21 27h6v1h-6zM15 28h1v1h-1zM17 28h15v1h-15zM14 29h21v1h-21zM12 30h25v1h-25zM10 31h28v1h-28zM9 32h31v1h-31zM8 33h33v1h-33zM7 34h35v1h-35zM6 35h37v1h-37zM5 36h39v1h-39zM4 37h41v1h-41zM3 38h43v1h-43zM2 39h44v1h-44zM2 40h45v1h-45zM1 41h47v1h-47zM1 42h47v1h-47zM0 43h49v1h-49zM2 44h47v1h-47z" /><path fill="#4184f4" d="M20 27h1v1h-1zM3 37h1v1h-1zM1 40h1v1h-1zM0 42h1v1h-1z" /><path fill="#4284f3" d="M27 27h1v1h-1zM29 27h1v1h-1zM8 32h1v1h-1zM5 35h1v1h-1z" /><path fill="#f97b1a" d="M32 27h1v1h-1z" /><path fill="#fe8696" d="M52 27h1v1h-1z" /><path fill="#fd8aca" d="M67 27h1v1h-1z" /><path fill="#af5cf7" d="M69 27h1v1h-1zM73 27h6v1h-6zM81 27h1v1h-1zM68 28h15v1h-15zM84 28h1v1h-1zM67 29h19v1h-19zM66 30h22v1h-22zM65 31h25v1h-25zM64 32h27v1h-27zM63 33h29v1h-29zM62 34h31v1h-31zM61 35h33v1h-33zM60 36h35v1h-35zM59 37h37v1h-37zM58 38h40v1h-40zM57 39h41v1h-41zM56 40h42v1h-42zM55 41h44v1h-44zM54 42h45v1h-45zM53 43h46v1h-46zM52 44h46v1h-46z" /><path fill="#ae5bf6" d="M70 27h1v1h-1zM79 27h1v1h-1zM99 41h1v1h-1zM99 42h1v1h-1zM99 43h1v1h-1z" /><path fill="#ae5bf7" d="M71 27h1v1h-1zM91 32h1v1h-1z" /><path fill="#ae5cf6" d="M72 27h1v1h-1zM80 27h1v1h-1zM92 33h1v1h-1zM94 35h1v1h-1zM95 36h1v1h-1zM98 40h1v1h-1zM98 44h1v1h-1z" /><path fill="#4184f3" d="M16 28h1v1h-1zM7 33h1v1h-1zM4 36h1v1h-1zM2 38h1v1h-1z" /><path fill="#4385f3" d="M32 28h1v1h-1z" /><path fill="#8381a5" d="M33 28h1v1h-1z" /><path fill="#d27d47" d="M34 28h1v1h-1zM43 34h1v1h-1z" /><path fill="#fd8373" d="M52 28h1v1h-1z" /><path fill="#f686cf" d="M66 28h1v1h-1z" /><path fill="#b661f2" d="M67 28h1v1h-1z" /><path fill="#af5bf6" d="M83 28h1v1h-1zM90 31h1v1h-1zM93 34h1v1h-1z" /><path fill="#4285f3" d="M13 29h1v1h-1zM0 41h1v1h-1zM1 44h1v1h-1z" /><path fill="#6c83c1" d="M35 29h1v1h-1z" /><path fill="#c37e59" d="M36 29h1v1h-1z" /><path fill="#fc8157" d="M52 29h1v1h-1z" /><path fill="#f284d2" d="M65 29h1v1h-1zM63 31h1v1h-1zM61 33h1v1h-1zM59 35h1v1h-1zM57 37h1v1h-1zM55 39h1v1h-1zM53 41h1v1h-1z" /><path fill="#b760f3" d="M66 29h1v1h-1zM64 31h1v1h-1zM62 33h1v1h-1zM60 35h1v1h-1zM58 37h1v1h-1zM56 39h1v1h-1zM54 41h1v1h-1zM52 43h1v1h-1z" /><path fill="#ae5cf7" d="M86 29h1v1h-1zM96 37h1v1h-1z" /><path fill="#4284f4" d="M11 30h1v1h-1zM9 31h1v1h-1z" /><path fill="#7083bd" d="M37 30h1v1h-1z" /><path fill="#d97d3f" d="M38 30h1v1h-1z" /><path fill="#fb7f44" d="M52 30h1v1h-1z" /><path fill="#f384d2" d="M64 30h1v1h-1zM62 32h1v1h-1zM60 34h1v1h-1zM58 36h1v1h-1zM56 38h1v1h-1zM54 40h1v1h-1zM52 42h1v1h-1z" /><path fill="#b761f3" d="M65 30h1v1h-1zM63 32h1v1h-1zM61 34h1v1h-1zM59 36h1v1h-1zM57 38h1v1h-1zM55 40h1v1h-1zM53 42h1v1h-1zM51 44h1v1h-1z" /><path fill="#af5cf6" d="M88 30h1v1h-1z" /><path fill="#4585f0" d="M38 31h1v1h-1zM46 39h1v1h-1z" /><path fill="#98808d" d="M39 31h1v1h-1z" /><path fill="#f67b1c" d="M40 31h1v1h-1z" /><path fill="#fb7d35" d="M52 31h1v1h-1z" /><path fill="#6d82c1" d="M40 32h1v1h-1zM45 37h1v1h-1z" /><path fill="#e87c2c" d="M41 32h1v1h-1z" /><path fill="#fb7d30" d="M52 32h1v1h-1z" /><path fill="#5584dc" d="M41 33h1v1h-1zM44 36h1v1h-1z" /><path fill="#da7c3e" d="M42 33h1v1h-1zM44 35h1v1h-1z" /><path fill="#fb7d2d" d="M52 33h1v1h-1z" /><path fill="#4f84e6" d="M42 34h1v1h-1zM43 35h1v1h-1z" /><path fill="#fb7e34" d="M52 34h1v1h-1z" /><path fill="#fb7f3f" d="M52 35h1v1h-1z" /><path fill="#e77c2d" d="M45 36h1v1h-1z" /><path fill="#fc8153" d="M52 36h1v1h-1z" /><path fill="#f67c1c" d="M46 37h1v1h-1z" /><path fill="#fc826a" d="M52 37h1v1h-1z" /><path fill="#9c8088" d="M46 38h1v1h-1z" /><path fill="#fd868e" d="M52 38h1v1h-1z" /><path fill="#d67d42" d="M47 39h1v1h-1z" /><path fill="#fe89b2" d="M52 39h1v1h-1z" /><path fill="#6b82c2" d="M47 40h1v1h-1z" /><path fill="#f97c18" d="M48 40h1v1h-1z" /><path fill="#fb7d2e" d="M51 40h1v1h-1z" /><path fill="#be7e5f" d="M48 41h1v1h-1z" /><path fill="#fc8162" d="M51 41h1v1h-1z" /><path fill="#6683c9" d="M48 42h1v1h-1z" /><path fill="#fe87a2" d="M51 42h1v1h-1z" /><path fill="#ca7d50" d="M49 43h1v1h-1z" /><path fill="#fb7d31" d="M50 43h1v1h-1z" /><path fill="#f283d1" d="M51 43h1v1h-1z" /><path fill="#8384aa" d="M49 44h1v1h-1z" /><path fill="#f8827d" d="M50 44h1v1h-1z" /><path fill="#308eda" d="M28 45h1v1h-1z" /><path fill="#2992d1" d="M29 45h1v1h-1z" /><path fill="#2992cf" d="M30 45h19v1h-19z" /><path fill="#6593a3" d="M49 45h1v1h-1z" /><path fill="#af8d92" d="M50 45h1v1h-1z" /><path fill="#838eb1" d="M51 45h19v1h-19z" /><path fill="#848cb3" d="M70 45h1v1h-1z" /><path fill="#907fc6" d="M71 45h1v1h-1z" /><path fill="#119eae" d="M27 46h1v1h-1zM23 49h1v1h-1zM41 53h1v1h-1zM40 54h1v1h-1zM38 56h1v1h-1zM37 57h1v1h-1zM35 59h1v1h-1zM34 60h1v1h-1zM32 62h1v1h-1zM31 63h1v1h-1zM29 65h1v1h-1zM15 66h1v1h-1zM28 66h1v1h-1zM27 67h1v1h-1zM26 68h1v1h-1zM25 69h1v1h-1zM24 70h1v1h-1zM15 71h1v1h-1zM22 72h1v1h-1zM21 73h1v1h-1zM16 74h1v1h-1z" /><path fill="#129eaf" d="M28 46h20v1h-20zM26 47h21v1h-21zM25 48h21v1h-21zM24 49h21v1h-21zM23 50h21v1h-21zM22 51h21v1h-21zM21 52h21v1h-21zM20 53h21v1h-21zM19 54h21v1h-21zM18 55h21v1h-21zM18 56h20v1h-20zM18 57h19v1h-19zM17 58h19v1h-19zM17 59h18v1h-18zM17 60h17v1h-17zM16 61h17v1h-17zM16 62h16v1h-16zM15 63h16v1h-16zM16 64h14v1h-14zM16 65h13v1h-13zM16 66h12v1h-12zM16 67h11v1h-11zM16 68h10v1h-10zM16 69h9v1h-9zM16 70h8v1h-8zM16 71h7v1h-7zM16 72h6v1h-6zM16 73h5v1h-5zM17 74h3v1h-3zM18 75h1v1h-1z" /><path fill="#35a094" d="M48 46h1v1h-1zM46 48h1v1h-1zM45 49h1v1h-1zM44 50h1v1h-1zM43 51h1v1h-1z" /><path fill="#e2aa12" d="M49 46h1v1h-1zM47 48h1v1h-1zM46 49h1v1h-1zM45 50h1v1h-1zM44 51h1v1h-1z" /><path fill="#ecac0a" d="M50 46h1v1h-1zM52 48h1v1h-1zM53 49h1v1h-1zM54 50h1v1h-1zM55 51h1v1h-1z" /><path fill="#76b760" d="M51 46h1v1h-1zM53 48h1v1h-1zM54 49h1v1h-1zM55 50h1v1h-1zM56 51h1v1h-1z" /><path fill="#5bb974" d="M52 46h21v1h-21zM53 47h21v1h-21zM54 48h21v1h-21zM55 49h21v1h-21zM56 50h22v1h-22zM57 51h21v1h-21zM58 52h21v1h-21zM59 53h21v1h-21zM60 54h21v1h-21zM61 55h20v1h-20zM62 56h20v1h-20zM63 57h19v1h-19zM64 58h19v1h-19zM65 59h18v1h-18zM66 60h17v1h-17zM67 61h17v1h-17zM68 62h16v1h-16zM69 63h15v1h-15zM69 64h15v1h-15zM71 65h13v1h-13zM72 66h12v1h-12zM73 67h11v1h-11zM74 68h10v1h-10zM75 69h9v1h-9zM76 70h8v1h-8zM76 71h8v1h-8zM78 72h6v1h-6zM79 73h4v1h-4zM79 74h4v1h-4zM81 75h1v1h-1z" /><path fill="#119dae" d="M25 47h1v1h-1zM21 51h1v1h-1zM17 57h1v1h-1zM16 60h1v1h-1zM15 67h1v1h-1z" /><path fill="#37a093" d="M47 47h1v1h-1z" /><path fill="#e4aa10" d="M48 47h1v1h-1z" /><path fill="#f9ab00" d="M49 47h2v1h-2zM48 48h4v1h-4zM47 49h6v1h-6zM46 50h8v1h-8zM45 51h10v1h-10zM44 52h12v1h-12zM44 53h12v1h-12zM44 54h12v1h-12zM44 55h12v1h-12zM44 56h12v1h-12zM44 57h12v1h-12zM44 58h12v1h-12zM44 59h12v1h-12zM44 60h12v1h-12zM44 61h12v1h-12zM44 62h12v1h-12zM44 63h12v1h-12zM44 64h12v1h-12zM44 65h12v1h-12zM44 66h12v1h-12zM44 67h12v1h-12zM44 68h12v1h-12zM44 69h12v1h-12zM44 70h12v1h-12zM44 71h12v1h-12zM44 72h12v1h-12zM44 73h12v1h-12zM44 74h12v1h-12zM44 75h12v1h-12zM44 76h12v1h-12zM44 77h12v1h-12zM44 78h12v1h-12zM44 79h12v1h-12zM44 80h12v1h-12zM44 81h12v1h-12zM44 82h12v1h-12zM44 83h12v1h-12zM44 84h12v1h-12zM44 85h12v1h-12zM44 86h12v1h-12zM44 87h12v1h-12zM44 88h12v1h-12zM43 89h14v1h-14zM43 90h14v1h-14zM44 91h12v1h-12zM44 92h12v1h-12zM46 93h8v1h-8zM46 94h1v1h-1zM48 94h4v1h-4zM53 94h1v1h-1z" /><path fill="#ebac0b" d="M51 47h1v1h-1z" /><path fill="#74b661" d="M52 47h1v1h-1z" /><path fill="#5bb973" d="M74 47h1v1h-1zM58 53h1v1h-1zM80 53h1v1h-1zM59 54h1v1h-1zM61 56h1v1h-1zM62 57h1v1h-1zM64 59h1v1h-1zM65 60h1v1h-1zM67 62h1v1h-1zM68 63h1v1h-1zM70 65h1v1h-1zM71 66h1v1h-1zM72 67h1v1h-1zM84 67h1v1h-1zM73 68h1v1h-1zM74 69h1v1h-1zM84 69h1v1h-1zM75 70h1v1h-1zM84 71h1v1h-1zM77 72h1v1h-1zM78 73h1v1h-1z" /><path fill="#129dae" d="M24 48h1v1h-1zM15 65h1v1h-1zM15 70h1v1h-1z" /><path fill="#5ab974" d="M75 48h1v1h-1zM84 65h1v1h-1zM83 74h1v1h-1z" /><path fill="#5ab874" d="M76 49h1v1h-1zM81 55h1v1h-1zM82 75h1v1h-1z" /><path fill="#129eae" d="M22 50h1v1h-1zM15 64h1v1h-1zM19 75h1v1h-1z" /><path fill="#5bb874" d="M78 51h1v1h-1zM83 60h1v1h-1zM83 73h1v1h-1z" /><path fill="#119daf" d="M20 52h1v1h-1zM19 53h1v1h-1zM16 59h1v1h-1zM30 64h1v1h-1zM15 69h1v1h-1zM23 71h1v1h-1zM20 74h1v1h-1z" /><path fill="#119eaf" d="M42 52h1v1h-1zM39 55h1v1h-1zM36 58h1v1h-1zM33 61h1v1h-1zM15 68h1v1h-1z" /><path fill="#e3a910" d="M43 52h1v1h-1z" /><path fill="#eaab0b" d="M56 52h1v1h-1z" /><path fill="#5ab873" d="M57 52h1v1h-1zM60 55h1v1h-1zM63 58h1v1h-1zM66 61h1v1h-1zM84 64h1v1h-1zM84 70h1v1h-1z" /><path fill="#5ab973" d="M79 52h1v1h-1zM82 57h1v1h-1zM84 63h1v1h-1zM84 68h1v1h-1z" /><path fill="#f8aa00" d="M43 53h1v1h-1zM56 53h1v1h-1zM43 54h1v1h-1zM56 54h1v1h-1zM43 55h1v1h-1zM56 55h1v1h-1zM43 56h1v1h-1zM56 56h1v1h-1zM43 57h1v1h-1zM56 57h1v1h-1zM43 58h1v1h-1zM56 58h1v1h-1zM43 59h1v1h-1zM56 59h1v1h-1zM43 60h1v1h-1zM56 60h1v1h-1zM43 61h1v1h-1zM56 61h1v1h-1zM43 62h1v1h-1zM56 62h1v1h-1zM43 63h1v1h-1zM56 63h1v1h-1zM43 64h1v1h-1zM56 64h1v1h-1zM43 65h1v1h-1zM56 65h1v1h-1zM43 66h1v1h-1zM56 66h1v1h-1zM43 67h1v1h-1zM56 67h1v1h-1zM43 68h1v1h-1zM56 68h1v1h-1zM43 69h1v1h-1zM56 69h1v1h-1zM43 70h1v1h-1zM56 70h1v1h-1zM43 71h1v1h-1zM56 71h1v1h-1zM43 72h1v1h-1zM56 72h1v1h-1zM43 73h1v1h-1zM56 73h1v1h-1zM43 74h1v1h-1zM56 74h1v1h-1zM43 75h1v1h-1zM56 75h1v1h-1zM43 76h1v1h-1zM56 76h1v1h-1zM43 77h1v1h-1zM56 77h1v1h-1zM43 78h1v1h-1zM56 78h1v1h-1zM43 79h1v1h-1zM56 79h1v1h-1zM43 80h1v1h-1zM56 80h1v1h-1zM43 81h1v1h-1zM56 81h1v1h-1zM43 82h1v1h-1zM56 82h1v1h-1zM43 83h1v1h-1zM56 83h1v1h-1zM43 84h1v1h-1zM56 84h1v1h-1zM43 85h1v1h-1zM56 85h1v1h-1zM43 86h1v1h-1zM56 86h1v1h-1zM43 87h1v1h-1zM56 87h1v1h-1zM43 88h1v1h-1zM56 88h1v1h-1zM45 93h1v1h-1zM54 93h1v1h-1zM47 94h1v1h-1z" /><path fill="#5bb873" d="M83 59h1v1h-1zM84 66h1v1h-1zM80 75h1v1h-1z" /><path fill="#129daf" d="M17 75h1v1h-1z" /><path fill="#f8ab00" d="M52 94h1v1h-1z" /></svg>