<svg xmlns="http://www.w3.org/2000/svg" viewBox="0 0 100 100" width="1em" height="1em"><path fill="#22b8cc" d="M18 1h1v1h-1zM18 2h1v1h-1zM18 3h1v1h-1zM18 4h1v1h-1zM22 4h1v1h-1zM78 4h1v1h-1zM18 5h1v1h-1zM18 6h1v1h-1zM18 7h1v1h-1zM18 8h1v1h-1zM18 9h1v1h-1zM18 10h1v1h-1zM71 10h1v1h-1zM18 11h1v1h-1zM18 12h1v1h-1zM25 12h1v1h-1zM18 13h1v1h-1zM18 14h1v1h-1zM27 14h1v1h-1zM33 14h1v1h-1zM18 15h1v1h-1zM66 15h1v1h-1zM18 16h1v1h-1zM18 17h1v1h-1zM18 18h1v1h-1zM68 18h1v1h-1zM18 19h1v1h-1zM18 20h1v1h-1zM18 21h1v1h-1zM18 22h1v1h-1zM18 23h1v1h-1zM18 24h1v1h-1zM18 25h1v1h-1zM18 26h1v1h-1zM18 27h1v1h-1zM18 28h1v1h-1zM43 28h1v1h-1zM57 28h1v1h-1zM18 29h1v1h-1zM10 35h1v1h-1zM56 35h1v1h-1zM10 36h1v1h-1zM10 37h1v1h-1zM10 38h1v1h-1zM10 39h1v1h-1zM10 40h1v1h-1zM43 40h1v1h-1zM10 41h1v1h-1zM10 42h1v1h-1zM10 43h1v1h-1zM10 44h1v1h-1zM10 45h1v1h-1zM38 45h1v1h-1zM10 46h1v1h-1zM10 47h1v1h-1zM10 48h1v1h-1zM29 48h1v1h-1zM10 49h1v1h-1zM10 50h1v1h-1zM10 51h1v1h-1zM31 51h1v1h-1zM10 52h1v1h-1zM10 53h1v1h-1zM10 54h1v1h-1zM10 55h1v1h-1zM10 56h1v1h-1zM79 56h1v1h-1zM10 57h1v1h-1zM24 57h1v1h-1zM10 58h1v1h-1zM10 59h1v1h-1zM10 60h1v1h-1zM10 61h1v1h-1zM10 62h1v1h-1zM10 63h1v1h-1zM10 64h1v1h-1zM10 65h1v1h-1zM10 66h1v1h-1zM10 67h1v1h-1zM10 68h1v1h-1zM81 68h1v1h-1zM42 73h1v1h-1zM40 74h1v1h-1zM52 74h1v1h-1zM61 76h1v1h-1zM56 77h1v1h-1zM37 82h1v1h-1zM34 85h1v1h-1zM71 85h1v1h-1zM25 88h1v1h-1zM75 89h1v1h-1zM78 96h1v1h-1z" /><path fill="#21b7cd" d="M19 1h1v1h-1zM79 3h1v1h-1zM22 10h1v1h-1zM77 10h1v1h-1zM70 11h1v1h-1zM31 17h1v1h-1zM41 21h1v1h-1zM44 24h1v1h-1zM54 26h1v1h-1zM52 27h1v1h-1zM57 34h32v1h-32zM40 38h1v1h-1zM59 43h1v1h-1zM66 44h1v1h-1zM67 45h1v1h-1zM68 46h1v1h-1zM34 48h1v1h-1zM70 53h1v1h-1zM76 53h1v1h-1zM78 55h1v1h-1zM73 56h1v1h-1zM58 74h1v1h-1zM45 75h1v1h-1zM44 76h1v1h-1zM62 77h1v1h-1zM57 78h1v1h-1zM63 78h1v1h-1zM34 80h1v1h-1zM62 82h1v1h-1zM33 86h1v1h-1zM30 88h1v1h-1zM19 98h1v1h-1zM48 99h4v1h-4z" /><path fill="#22b8cd" d="M48 1h4v1h-4zM19 2h1v1h-1zM48 2h4v1h-4zM80 2h2v1h-2zM19 3h3v1h-3zM48 3h4v1h-4zM80 3h2v1h-2zM19 4h3v1h-3zM48 4h4v1h-4zM79 4h3v1h-3zM19 5h5v1h-5zM48 5h4v1h-4zM77 5h5v1h-5zM19 6h5v1h-5zM48 6h4v1h-4zM76 6h6v1h-6zM19 7h6v1h-6zM48 7h4v1h-4zM75 7h7v1h-7zM19 8h8v1h-8zM48 8h4v1h-4zM74 8h8v1h-8zM19 9h10v1h-10zM48 9h4v1h-4zM72 9h10v1h-10zM19 10h3v1h-3zM24 10h5v1h-5zM48 10h4v1h-4zM72 10h5v1h-5zM78 10h4v1h-4zM19 11h3v1h-3zM25 11h5v1h-5zM48 11h4v1h-4zM71 11h5v1h-5zM78 11h4v1h-4zM19 12h3v1h-3zM26 12h5v1h-5zM48 12h4v1h-4zM70 12h5v1h-5zM78 12h4v1h-4zM19 13h3v1h-3zM27 13h5v1h-5zM48 13h4v1h-4zM69 13h4v1h-4zM78 13h4v1h-4zM19 14h3v1h-3zM28 14h5v1h-5zM48 14h4v1h-4zM68 14h5v1h-5zM78 14h4v1h-4zM19 15h3v1h-3zM29 15h5v1h-5zM48 15h4v1h-4zM67 15h4v1h-4zM78 15h4v1h-4zM19 16h3v1h-3zM31 16h4v1h-4zM48 16h4v1h-4zM65 16h5v1h-5zM78 16h4v1h-4zM19 17h3v1h-3zM32 17h4v1h-4zM48 17h4v1h-4zM64 17h5v1h-5zM78 17h4v1h-4zM19 18h3v1h-3zM33 18h5v1h-5zM48 18h4v1h-4zM63 18h5v1h-5zM78 18h4v1h-4zM19 19h3v1h-3zM34 19h4v1h-4zM48 19h4v1h-4zM62 19h5v1h-5zM78 19h4v1h-4zM19 20h3v1h-3zM35 20h5v1h-5zM48 20h4v1h-4zM60 20h6v1h-6zM78 20h4v1h-4zM19 21h3v1h-3zM36 21h5v1h-5zM48 21h4v1h-4zM60 21h6v1h-6zM78 21h4v1h-4zM19 22h3v1h-3zM36 22h6v1h-6zM48 22h4v1h-4zM59 22h5v1h-5zM78 22h4v1h-4zM19 23h3v1h-3zM38 23h5v1h-5zM48 23h4v1h-4zM58 23h6v1h-6zM78 23h4v1h-4zM19 24h3v1h-3zM38 24h6v1h-6zM48 24h4v1h-4zM57 24h5v1h-5zM78 24h4v1h-4zM19 25h3v1h-3zM39 25h6v1h-6zM48 25h4v1h-4zM55 25h5v1h-5zM78 25h4v1h-4zM19 26h3v1h-3zM41 26h11v1h-11zM55 26h4v1h-4zM78 26h4v1h-4zM19 27h3v1h-3zM41 27h11v1h-11zM54 27h4v1h-4zM78 27h4v1h-4zM19 28h3v1h-3zM44 28h13v1h-13zM78 28h4v1h-4zM19 29h4v1h-4zM45 29h11v1h-11zM78 29h4v1h-4zM7 30h75v1h-75zM83 30h10v1h-10zM7 31h86v1h-86zM7 32h86v1h-86zM7 33h86v1h-86zM7 34h3v1h-3zM44 34h12v1h-12zM89 34h4v1h-4zM7 35h3v1h-3zM44 35h12v1h-12zM90 35h3v1h-3zM7 36h3v1h-3zM43 36h14v1h-14zM90 36h3v1h-3zM7 37h3v1h-3zM42 37h4v1h-4zM48 37h4v1h-4zM53 37h5v1h-5zM90 37h3v1h-3zM7 38h3v1h-3zM41 38h5v1h-5zM48 38h4v1h-4zM54 38h5v1h-5zM90 38h3v1h-3zM7 39h3v1h-3zM39 39h6v1h-6zM48 39h4v1h-4zM55 39h5v1h-5zM90 39h3v1h-3zM7 40h3v1h-3zM38 40h5v1h-5zM48 40h4v1h-4zM56 40h6v1h-6zM90 40h3v1h-3zM7 41h3v1h-3zM37 41h5v1h-5zM48 41h4v1h-4zM57 41h6v1h-6zM90 41h3v1h-3zM7 42h3v1h-3zM36 42h5v1h-5zM48 42h4v1h-4zM58 42h7v1h-7zM90 42h3v1h-3zM7 43h3v1h-3zM35 43h5v1h-5zM48 43h4v1h-4zM60 43h5v1h-5zM90 43h3v1h-3zM7 44h3v1h-3zM34 44h5v1h-5zM48 44h4v1h-4zM60 44h6v1h-6zM90 44h3v1h-3zM7 45h3v1h-3zM33 45h5v1h-5zM48 45h4v1h-4zM62 45h5v1h-5zM90 45h3v1h-3zM7 46h3v1h-3zM32 46h5v1h-5zM48 46h4v1h-4zM63 46h5v1h-5zM90 46h3v1h-3zM7 47h3v1h-3zM31 47h4v1h-4zM48 47h4v1h-4zM63 47h7v1h-7zM90 47h3v1h-3zM7 48h3v1h-3zM30 48h4v1h-4zM48 48h4v1h-4zM65 48h5v1h-5zM90 48h3v1h-3zM7 49h3v1h-3zM28 49h5v1h-5zM48 49h4v1h-4zM66 49h5v1h-5zM90 49h3v1h-3zM7 50h3v1h-3zM27 50h5v1h-5zM48 50h4v1h-4zM67 50h6v1h-6zM90 50h3v1h-3zM7 51h3v1h-3zM25 51h6v1h-6zM48 51h4v1h-4zM68 51h6v1h-6zM90 51h3v1h-3zM7 52h3v1h-3zM25 52h5v1h-5zM48 52h4v1h-4zM70 52h5v1h-5zM90 52h3v1h-3zM7 53h3v1h-3zM24 53h5v1h-5zM48 53h4v1h-4zM71 53h5v1h-5zM90 53h3v1h-3zM7 54h3v1h-3zM23 54h5v1h-5zM48 54h4v1h-4zM71 54h6v1h-6zM90 54h3v1h-3zM7 55h3v1h-3zM22 55h5v1h-5zM48 55h4v1h-4zM73 55h5v1h-5zM90 55h3v1h-3zM7 56h3v1h-3zM21 56h5v1h-5zM48 56h4v1h-4zM74 56h5v1h-5zM90 56h3v1h-3zM7 57h3v1h-3zM20 57h4v1h-4zM48 57h4v1h-4zM75 57h5v1h-5zM90 57h3v1h-3zM7 58h3v1h-3zM18 58h5v1h-5zM48 58h4v1h-4zM76 58h5v1h-5zM90 58h3v1h-3zM7 59h3v1h-3zM18 59h5v1h-5zM48 59h4v1h-4zM77 59h4v1h-4zM90 59h3v1h-3zM7 60h3v1h-3zM18 60h4v1h-4zM48 60h4v1h-4zM77 60h4v1h-4zM90 60h3v1h-3zM7 61h3v1h-3zM18 61h4v1h-4zM48 61h4v1h-4zM77 61h4v1h-4zM90 61h3v1h-3zM7 62h3v1h-3zM18 62h4v1h-4zM48 62h4v1h-4zM77 62h4v1h-4zM90 62h3v1h-3zM7 63h3v1h-3zM18 63h4v1h-4zM48 63h4v1h-4zM77 63h4v1h-4zM90 63h3v1h-3zM7 64h3v1h-3zM18 64h4v1h-4zM48 64h4v1h-4zM77 64h4v1h-4zM90 64h3v1h-3zM7 65h3v1h-3zM18 65h4v1h-4zM48 65h4v1h-4zM77 65h4v1h-4zM90 65h3v1h-3zM7 66h3v1h-3zM18 66h4v1h-4zM48 66h4v1h-4zM77 66h4v1h-4zM90 66h3v1h-3zM7 67h3v1h-3zM18 67h4v1h-4zM48 67h4v1h-4zM77 67h4v1h-4zM90 67h3v1h-3zM7 68h3v1h-3zM18 68h4v1h-4zM48 68h4v1h-4zM77 68h4v1h-4zM90 68h3v1h-3zM7 69h15v1h-15zM47 69h6v1h-6zM77 69h16v1h-16zM7 70h15v1h-15zM46 70h9v1h-9zM77 70h16v1h-16zM7 71h15v1h-15zM45 71h10v1h-10zM77 71h16v1h-16zM7 72h15v1h-15zM43 72h14v1h-14zM77 72h16v1h-16zM19 73h3v1h-3zM43 73h14v1h-14zM77 73h4v1h-4zM19 74h3v1h-3zM41 74h6v1h-6zM48 74h4v1h-4zM54 74h4v1h-4zM77 74h4v1h-4zM19 75h3v1h-3zM40 75h5v1h-5zM48 75h4v1h-4zM54 75h6v1h-6zM77 75h4v1h-4zM19 76h3v1h-3zM39 76h5v1h-5zM48 76h4v1h-4zM56 76h5v1h-5zM77 76h4v1h-4zM19 77h3v1h-3zM38 77h5v1h-5zM48 77h4v1h-4zM57 77h5v1h-5zM77 77h4v1h-4zM19 78h3v1h-3zM37 78h5v1h-5zM48 78h4v1h-4zM58 78h5v1h-5zM77 78h4v1h-4zM19 79h3v1h-3zM36 79h6v1h-6zM48 79h4v1h-4zM58 79h6v1h-6zM77 79h4v1h-4zM19 80h3v1h-3zM35 80h4v1h-4zM48 80h4v1h-4zM60 80h5v1h-5zM77 80h4v1h-4zM19 81h3v1h-3zM33 81h5v1h-5zM48 81h4v1h-4zM62 81h4v1h-4zM77 81h4v1h-4zM19 82h3v1h-3zM32 82h5v1h-5zM48 82h4v1h-4zM63 82h4v1h-4zM77 82h4v1h-4zM19 83h3v1h-3zM31 83h5v1h-5zM48 83h4v1h-4zM64 83h5v1h-5zM77 83h4v1h-4zM19 84h3v1h-3zM30 84h6v1h-6zM48 84h4v1h-4zM65 84h5v1h-5zM77 84h4v1h-4zM19 85h3v1h-3zM29 85h5v1h-5zM48 85h4v1h-4zM66 85h5v1h-5zM77 85h4v1h-4zM19 86h3v1h-3zM28 86h5v1h-5zM48 86h4v1h-4zM67 86h5v1h-5zM77 86h4v1h-4zM19 87h3v1h-3zM27 87h5v1h-5zM48 87h4v1h-4zM68 87h5v1h-5zM77 87h4v1h-4zM19 88h3v1h-3zM26 88h4v1h-4zM48 88h4v1h-4zM69 88h5v1h-5zM77 88h4v1h-4zM19 89h3v1h-3zM24 89h5v1h-5zM48 89h4v1h-4zM70 89h5v1h-5zM77 89h4v1h-4zM19 90h10v1h-10zM48 90h4v1h-4zM71 90h10v1h-10zM19 91h8v1h-8zM48 91h4v1h-4zM73 91h8v1h-8zM19 92h7v1h-7zM48 92h4v1h-4zM73 92h8v1h-8zM19 93h6v1h-6zM48 93h4v1h-4zM74 93h7v1h-7zM19 94h5v1h-5zM48 94h4v1h-4zM75 94h6v1h-6zM19 95h4v1h-4zM48 95h4v1h-4zM77 95h4v1h-4zM19 96h2v1h-2zM48 96h4v1h-4zM79 96h2v1h-2zM19 97h1v1h-1zM48 97h4v1h-4zM80 97h1v1h-1zM48 98h4v1h-4z" /><path fill="#22b7cd" d="M81 1h1v1h-1zM75 6h1v1h-1zM73 8h1v1h-1zM29 10h1v1h-1zM31 12h1v1h-1zM67 14h1v1h-1zM34 15h1v1h-1zM63 17h1v1h-1zM69 17h1v1h-1zM32 18h1v1h-1zM66 20h1v1h-1zM35 21h1v1h-1zM64 22h1v1h-1zM56 24h1v1h-1zM45 25h1v1h-1zM42 36h1v1h-1zM41 37h1v1h-1zM54 39h1v1h-1zM37 40h1v1h-1zM35 42h1v1h-1zM40 43h1v1h-1zM39 44h1v1h-1zM61 45h1v1h-1zM31 46h1v1h-1zM30 47h1v1h-1zM32 50h1v1h-1zM67 51h1v1h-1zM24 52h1v1h-1zM29 53h1v1h-1zM74 57h1v1h-1zM22 60h1v1h-1zM22 61h1v1h-1zM22 62h1v1h-1zM22 63h1v1h-1zM22 64h1v1h-1zM22 65h1v1h-1zM22 66h1v1h-1zM22 67h1v1h-1zM22 68h1v1h-1zM22 69h1v1h-1zM22 70h1v1h-1zM22 71h1v1h-1zM22 72h1v1h-1zM22 73h1v1h-1zM22 74h1v1h-1zM47 74h1v1h-1zM22 75h1v1h-1zM22 76h1v1h-1zM22 77h1v1h-1zM43 77h1v1h-1zM22 78h1v1h-1zM22 79h1v1h-1zM22 80h1v1h-1zM22 81h1v1h-1zM22 82h1v1h-1zM31 82h1v1h-1zM22 83h1v1h-1zM63 83h1v1h-1zM22 84h1v1h-1zM70 84h1v1h-1zM22 85h1v1h-1zM28 85h1v1h-1zM22 86h1v1h-1zM22 87h1v1h-1zM26 87h1v1h-1zM67 87h1v1h-1zM73 87h1v1h-1zM22 88h1v1h-1zM23 89h1v1h-1zM20 97h1v1h-1zM79 97h1v1h-1z" /><path fill="#22b7cc" d="M20 2h1v1h-1zM25 7h1v1h-1zM74 7h1v1h-1zM22 11h1v1h-1zM22 12h1v1h-1zM22 13h1v1h-1zM26 13h1v1h-1zM73 13h1v1h-1zM22 14h1v1h-1zM22 15h1v1h-1zM22 16h1v1h-1zM30 16h1v1h-1zM70 16h1v1h-1zM22 17h1v1h-1zM22 18h1v1h-1zM22 19h1v1h-1zM38 19h1v1h-1zM22 20h1v1h-1zM22 21h1v1h-1zM59 21h1v1h-1zM22 22h1v1h-1zM22 23h1v1h-1zM57 23h1v1h-1zM22 24h1v1h-1zM22 25h1v1h-1zM60 25h1v1h-1zM22 26h1v1h-1zM22 27h1v1h-1zM53 27h1v1h-1zM58 27h1v1h-1zM22 28h1v1h-1zM44 29h1v1h-1zM82 30h1v1h-1zM56 34h1v1h-1zM46 37h1v1h-1zM59 38h1v1h-1zM42 41h1v1h-1zM56 41h1v1h-1zM41 42h1v1h-1zM32 45h1v1h-1zM35 47h1v1h-1zM33 49h1v1h-1zM69 52h1v1h-1zM23 53h1v1h-1zM28 54h1v1h-1zM81 58h1v1h-1zM81 59h1v1h-1zM81 60h1v1h-1zM81 61h1v1h-1zM81 62h1v1h-1zM81 63h1v1h-1zM81 64h1v1h-1zM81 65h1v1h-1zM81 66h1v1h-1zM81 67h1v1h-1zM89 68h1v1h-1zM18 74h1v1h-1zM53 74h1v1h-1zM81 74h1v1h-1zM18 75h1v1h-1zM81 75h1v1h-1zM18 76h1v1h-1zM38 76h1v1h-1zM81 76h1v1h-1zM18 77h1v1h-1zM37 77h1v1h-1zM81 77h1v1h-1zM18 78h1v1h-1zM81 78h1v1h-1zM18 79h1v1h-1zM64 79h1v1h-1zM81 79h1v1h-1zM18 80h1v1h-1zM39 80h1v1h-1zM81 80h1v1h-1zM18 81h1v1h-1zM61 81h1v1h-1zM81 81h1v1h-1zM18 82h1v1h-1zM67 82h1v1h-1zM81 82h1v1h-1zM18 83h1v1h-1zM69 83h1v1h-1zM81 83h1v1h-1zM18 84h1v1h-1zM81 84h1v1h-1zM18 85h1v1h-1zM65 85h1v1h-1zM81 85h1v1h-1zM18 86h1v1h-1zM27 86h1v1h-1zM72 86h1v1h-1zM81 86h1v1h-1zM18 87h1v1h-1zM81 87h1v1h-1zM18 88h1v1h-1zM81 88h1v1h-1zM18 89h1v1h-1zM81 89h1v1h-1zM18 90h1v1h-1zM81 90h1v1h-1zM18 91h1v1h-1zM81 91h1v1h-1zM18 92h1v1h-1zM81 92h1v1h-1zM18 93h1v1h-1zM25 93h1v1h-1zM81 93h1v1h-1zM18 94h1v1h-1zM81 94h1v1h-1zM18 95h1v1h-1zM76 95h1v1h-1zM81 95h1v1h-1zM18 96h1v1h-1zM81 96h1v1h-1zM18 97h1v1h-1zM81 97h1v1h-1zM18 98h1v1h-1zM81 98h1v1h-1z" /><path fill="#21b8cc" d="M24 6h1v1h-1zM30 11h1v1h-1zM32 13h1v1h-1zM71 15h1v1h-1zM36 17h1v1h-1zM67 19h1v1h-1zM34 20h1v1h-1zM42 22h1v1h-1zM37 23h1v1h-1zM40 26h1v1h-1zM59 26h1v1h-1zM10 34h1v1h-1zM43 34h1v1h-1zM43 35h1v1h-1zM58 37h1v1h-1zM60 39h1v1h-1zM62 46h1v1h-1zM64 48h1v1h-1zM71 49h1v1h-1zM26 50h1v1h-1zM66 50h1v1h-1zM30 52h1v1h-1zM19 57h1v1h-1zM23 58h1v1h-1zM44 71h1v1h-1zM36 78h1v1h-1zM42 78h1v1h-1zM59 80h1v1h-1zM38 81h1v1h-1zM66 81h1v1h-1zM36 83h1v1h-1zM64 84h1v1h-1zM74 88h1v1h-1zM27 91h1v1h-1zM26 92h1v1h-1zM21 96h1v1h-1z" /><path fill="#21b7cc" d="M27 8h1v1h-1zM23 10h1v1h-1zM75 12h1v1h-1zM35 16h1v1h-1zM62 18h1v1h-1zM58 22h1v1h-1zM62 24h1v1h-1zM89 35h1v1h-1zM89 36h1v1h-1zM47 37h1v1h-1zM89 37h1v1h-1zM89 38h1v1h-1zM89 39h1v1h-1zM55 40h1v1h-1zM89 40h1v1h-1zM36 41h1v1h-1zM63 41h1v1h-1zM89 41h1v1h-1zM89 42h1v1h-1zM89 43h1v1h-1zM33 44h1v1h-1zM89 44h1v1h-1zM89 45h1v1h-1zM89 46h1v1h-1zM89 47h1v1h-1zM70 48h1v1h-1zM89 48h1v1h-1zM65 49h1v1h-1zM89 49h1v1h-1zM89 50h1v1h-1zM74 51h1v1h-1zM89 51h1v1h-1zM75 52h1v1h-1zM89 52h1v1h-1zM89 53h1v1h-1zM22 54h1v1h-1zM89 54h1v1h-1zM21 55h1v1h-1zM27 55h1v1h-1zM89 55h1v1h-1zM89 56h1v1h-1zM80 57h1v1h-1zM89 57h1v1h-1zM75 58h1v1h-1zM89 58h1v1h-1zM76 59h1v1h-1zM89 59h1v1h-1zM89 60h1v1h-1zM89 61h1v1h-1zM89 62h1v1h-1zM89 63h1v1h-1zM89 64h1v1h-1zM89 65h1v1h-1zM89 66h1v1h-1zM89 67h1v1h-1zM47 68h1v1h-1zM52 68h1v1h-1zM46 69h1v1h-1zM45 70h1v1h-1zM55 71h1v1h-1zM18 73h1v1h-1zM57 73h1v1h-1zM39 75h1v1h-1zM30 83h1v1h-1zM32 87h1v1h-1zM22 89h1v1h-1zM72 91h1v1h-1z" /><path fill="#21b8cd" d="M24 11h1v1h-1zM76 11h1v1h-1zM69 12h1v1h-1zM68 13h1v1h-1zM28 15h1v1h-1zM33 19h1v1h-1zM61 19h1v1h-1zM40 20h1v1h-1zM43 23h1v1h-1zM56 29h1v1h-1zM6 30h1v1h-1zM6 31h1v1h-1zM93 31h1v1h-1zM6 32h1v1h-1zM93 32h1v1h-1zM6 33h1v1h-1zM93 33h1v1h-1zM6 34h1v1h-1zM93 34h1v1h-1zM6 35h1v1h-1zM93 35h1v1h-1zM6 36h1v1h-1zM57 36h1v1h-1zM93 36h1v1h-1zM6 37h1v1h-1zM52 37h1v1h-1zM93 37h1v1h-1zM6 38h1v1h-1zM53 38h1v1h-1zM93 38h1v1h-1zM6 39h1v1h-1zM93 39h1v1h-1zM6 40h1v1h-1zM93 40h1v1h-1zM6 41h1v1h-1zM93 41h1v1h-1zM6 42h1v1h-1zM93 42h1v1h-1zM6 43h1v1h-1zM34 43h1v1h-1zM65 43h1v1h-1zM93 43h1v1h-1zM6 44h1v1h-1zM93 44h1v1h-1zM6 45h1v1h-1zM93 45h1v1h-1zM6 46h1v1h-1zM37 46h1v1h-1zM93 46h1v1h-1zM6 47h1v1h-1zM93 47h1v1h-1zM6 48h1v1h-1zM93 48h1v1h-1zM6 49h1v1h-1zM93 49h1v1h-1zM6 50h1v1h-1zM93 50h1v1h-1zM6 51h1v1h-1zM93 51h1v1h-1zM6 52h1v1h-1zM93 52h1v1h-1zM6 53h1v1h-1zM93 53h1v1h-1zM6 54h1v1h-1zM77 54h1v1h-1zM93 54h1v1h-1zM6 55h1v1h-1zM72 55h1v1h-1zM93 55h1v1h-1zM6 56h1v1h-1zM20 56h1v1h-1zM26 56h1v1h-1zM93 56h1v1h-1zM6 57h1v1h-1zM93 57h1v1h-1zM6 58h1v1h-1zM93 58h1v1h-1zM6 59h1v1h-1zM93 59h1v1h-1zM6 60h1v1h-1zM93 60h1v1h-1zM6 61h1v1h-1zM93 61h1v1h-1zM6 62h1v1h-1zM93 62h1v1h-1zM6 63h1v1h-1zM93 63h1v1h-1zM6 64h1v1h-1zM93 64h1v1h-1zM6 65h1v1h-1zM93 65h1v1h-1zM6 66h1v1h-1zM93 66h1v1h-1zM6 67h1v1h-1zM93 67h1v1h-1zM6 68h1v1h-1zM93 68h1v1h-1zM6 69h1v1h-1zM53 69h1v1h-1zM93 69h1v1h-1zM6 70h1v1h-1zM93 70h1v1h-1zM6 71h1v1h-1zM93 71h1v1h-1zM6 72h1v1h-1zM93 72h1v1h-1zM81 73h1v1h-1zM60 75h1v1h-1zM55 76h1v1h-1zM35 79h1v1h-1zM65 80h1v1h-1zM29 84h1v1h-1zM66 86h1v1h-1zM29 89h1v1h-1zM24 94h1v1h-1zM80 98h1v1h-1z" /></svg>