<svg xmlns="http://www.w3.org/2000/svg" viewBox="0 0 100 100" width="1em" height="1em"><path fill="#ff3f17" d="M27 8h5v1h-5zM68 8h5v1h-5zM20 9h1v1h-1zM85 12h1v1h-1zM86 13h1v1h-1zM90 19h1v1h-1zM9 20h1v1h-1zM8 27h1v1h-1zM91 28h1v1h-1zM8 30h1v1h-1zM8 32h1v1h-1zM8 33h1v1h-1zM91 34h1v1h-1zM79 61h1v1h-1zM80 62h1v1h-1zM80 63h1v1h-1zM73 65h1v1h-1zM8 66h1v1h-1zM73 66h1v1h-1zM80 66h1v1h-1zM73 68h1v1h-1zM91 68h1v1h-1zM91 71h1v1h-1zM67 73h1v1h-1zM69 73h1v1h-1zM9 79h1v1h-1zM62 80h1v1h-1zM69 80h1v1h-1zM90 80h1v1h-1zM13 86h1v1h-1zM86 86h1v1h-1zM85 87h1v1h-1zM19 90h1v1h-1zM80 90h1v1h-1zM28 91h3v1h-3zM69 91h3v1h-3z" /><path fill="#ff4016" d="M32 8h36v1h-36zM19 9h1v1h-1zM80 9h1v1h-1zM14 12h1v1h-1zM12 14h1v1h-1zM89 17h1v1h-1zM9 19h1v1h-1zM90 20h1v1h-1zM90 21h1v1h-1zM91 30h1v1h-1zM8 37h1v1h-1zM91 37h1v1h-1zM8 38h1v1h-1zM91 38h1v1h-1zM8 39h1v1h-1zM91 39h1v1h-1zM8 40h1v1h-1zM91 40h1v1h-1zM8 41h1v1h-1zM91 41h1v1h-1zM8 42h1v1h-1zM91 42h1v1h-1zM8 43h1v1h-1zM91 43h1v1h-1zM8 44h1v1h-1zM91 44h1v1h-1zM8 45h1v1h-1zM91 45h1v1h-1zM8 46h1v1h-1zM91 46h1v1h-1zM8 47h1v1h-1zM91 47h1v1h-1zM8 48h1v1h-1zM91 48h1v1h-1zM8 49h1v1h-1zM91 49h1v1h-1zM8 50h1v1h-1zM91 50h1v1h-1zM8 51h1v1h-1zM91 51h1v1h-1zM8 52h1v1h-1zM91 52h1v1h-1zM8 53h1v1h-1zM91 53h1v1h-1zM8 54h1v1h-1zM91 54h1v1h-1zM8 55h1v1h-1zM91 55h1v1h-1zM8 56h1v1h-1zM91 56h1v1h-1zM8 57h1v1h-1zM91 57h1v1h-1zM8 58h1v1h-1zM91 58h1v1h-1zM8 59h1v1h-1zM91 59h1v1h-1zM8 60h1v1h-1zM91 60h1v1h-1zM8 61h1v1h-1zM74 61h1v1h-1zM91 61h1v1h-1zM8 62h1v1h-1zM91 62h1v1h-1zM73 64h1v1h-1zM80 64h1v1h-1zM91 69h1v1h-1zM59 73h1v1h-1zM57 74h1v1h-1zM56 75h1v1h-1zM56 77h1v1h-1zM74 78h1v1h-1zM90 78h1v1h-1zM72 79h1v1h-1zM90 79h1v1h-1zM9 80h1v1h-1zM60 80h1v1h-1zM89 82h1v1h-1zM12 85h1v1h-1zM14 87h1v1h-1zM17 89h1v1h-1zM82 89h1v1h-1zM21 90h1v1h-1zM78 90h2v1h-2zM32 91h36v1h-36z" /><path fill="#ff3f16" d="M21 9h1v1h-1zM78 9h1v1h-1zM82 10h1v1h-1zM15 11h1v1h-1zM84 11h1v1h-1zM11 15h1v1h-1zM88 15h1v1h-1zM9 21h1v1h-1zM91 31h1v1h-1zM8 35h1v1h-1zM8 36h1v1h-1zM91 36h1v1h-1zM75 60h1v1h-1zM8 63h1v1h-1zM73 63h1v1h-1zM91 63h1v1h-1zM8 64h1v1h-1zM8 69h1v1h-1zM71 71h1v1h-1zM68 73h1v1h-1zM76 76h1v1h-1zM75 77h1v1h-1zM9 78h1v1h-1zM56 78h1v1h-1zM57 79h1v1h-1zM58 80h2v1h-2zM61 80h1v1h-1zM10 82h1v1h-1zM11 84h1v1h-1zM88 84h1v1h-1zM15 88h1v1h-1zM84 88h1v1h-1z" /><path fill="#ff4017" d="M22 9h56v1h-56zM79 9h1v1h-1zM17 10h65v1h-65zM16 11h68v1h-68zM15 12h70v1h-70zM13 13h73v1h-73zM13 14h75v1h-75zM12 15h76v1h-76zM11 16h78v1h-78zM10 17h79v1h-79zM10 18h80v1h-80zM10 19h80v1h-80zM10 20h80v1h-80zM10 21h80v1h-80zM9 22h82v1h-82zM9 23h82v1h-82zM9 24h82v1h-82zM9 25h82v1h-82zM9 26h82v1h-82zM9 27h82v1h-82zM8 28h83v1h-83zM8 29h84v1h-84zM9 30h82v1h-82zM8 31h83v1h-83zM9 32h83v1h-83zM9 33h83v1h-83zM8 34h83v1h-83zM9 35h83v1h-83zM9 36h82v1h-82zM9 37h82v1h-82zM9 38h82v1h-82zM9 39h82v1h-82zM9 40h82v1h-82zM9 41h82v1h-82zM9 42h82v1h-82zM9 43h82v1h-82zM9 44h82v1h-82zM9 45h82v1h-82zM9 46h82v1h-82zM9 47h82v1h-82zM9 48h82v1h-82zM9 49h82v1h-82zM9 50h82v1h-82zM9 51h82v1h-82zM9 52h82v1h-82zM9 53h82v1h-82zM9 54h82v1h-82zM9 55h82v1h-82zM9 56h82v1h-82zM9 57h82v1h-82zM9 58h82v1h-82zM9 59h82v1h-82zM9 60h66v1h-66zM78 60h13v1h-13zM9 61h65v1h-65zM80 61h11v1h-11zM9 62h65v1h-65zM81 62h10v1h-10zM9 63h64v1h-64zM81 63h10v1h-10zM9 64h64v1h-64zM81 64h11v1h-11zM8 65h65v1h-65zM80 65h12v1h-12zM9 66h64v1h-64zM81 66h11v1h-11zM8 67h66v1h-66zM80 67h12v1h-12zM8 68h65v1h-65zM80 68h11v1h-11zM9 69h64v1h-64zM80 69h11v1h-11zM8 70h65v1h-65zM79 70h13v1h-13zM8 71h63v1h-63zM79 71h12v1h-12zM9 72h62v1h-62zM79 72h12v1h-12zM9 73h50v1h-50zM60 73h7v1h-7zM78 73h13v1h-13zM9 74h48v1h-48zM78 74h13v1h-13zM9 75h47v1h-47zM77 75h14v1h-14zM9 76h48v1h-48zM77 76h14v1h-14zM9 77h47v1h-47zM76 77h15v1h-15zM10 78h46v1h-46zM75 78h15v1h-15zM10 79h47v1h-47zM73 79h17v1h-17zM10 80h48v1h-48zM67 80h2v1h-2zM70 80h20v1h-20zM10 81h80v1h-80zM11 82h78v1h-78zM11 83h78v1h-78zM12 84h76v1h-76zM13 85h75v1h-75zM14 86h72v1h-72zM15 87h70v1h-70zM16 88h68v1h-68zM18 89h64v1h-64zM20 90h1v1h-1zM22 90h56v1h-56zM31 91h1v1h-1zM68 91h1v1h-1z" /></svg>