<svg xmlns="http://www.w3.org/2000/svg" viewBox="0 0 100 100" width="1em" height="1em"><path fill="#6e81b5" d="M40 25h1v1h-1zM51 25h1v1h-1zM59 25h1v1h-1zM35 26h1v1h-1zM64 26h1v1h-1zM29 27h2v1h-2zM71 27h1v1h-1zM86 33h1v1h-1zM90 35h1v1h-1zM92 37h1v1h-1zM6 38h1v1h-1zM94 39h1v1h-1zM99 49h1v1h-1zM0 52h1v1h-1zM99 52h1v1h-1zM0 53h1v1h-1zM1 55h1v1h-1zM92 63h1v1h-1zM87 66h1v1h-1zM84 68h1v1h-1zM18 69h1v1h-1zM20 70h1v1h-1zM38 74h1v1h-1zM61 74h1v1h-1z" /><path fill="#6d81b5" d="M41 25h1v1h-1zM43 25h1v1h-1zM46 25h1v1h-1zM53 25h1v1h-1zM56 25h1v1h-1zM58 25h1v1h-1zM34 26h1v1h-1zM69 27h1v1h-1zM26 28h1v1h-1zM73 28h1v1h-1zM84 32h1v1h-1zM89 35h1v1h-1zM91 36h1v1h-1zM7 37h1v1h-1zM1 45h1v1h-1zM0 47h1v1h-1zM5 61h1v1h-1zM93 62h1v1h-1zM7 63h1v1h-1zM89 65h1v1h-1zM16 68h1v1h-1zM83 68h1v1h-1zM72 72h2v1h-2zM30 73h1v1h-1zM36 74h1v1h-1zM63 74h1v1h-1zM49 75h2v1h-2z" /><path fill="#6e80b6" d="M42 25h1v1h-1zM47 25h1v1h-1zM52 25h1v1h-1zM57 25h1v1h-1zM65 26h1v1h-1zM70 27h1v1h-1zM25 28h1v1h-1zM22 29h1v1h-1zM20 30h1v1h-1zM79 30h2v1h-2zM15 32h1v1h-1zM98 44h1v1h-1zM0 48h1v1h-1zM99 51h1v1h-1zM95 60h1v1h-1zM10 65h1v1h-1zM14 67h1v1h-1zM79 70h1v1h-1zM27 72h1v1h-1zM69 73h1v1h-1z" /><path fill="#6d80b6" d="M44 25h1v1h-1zM55 25h1v1h-1zM93 38h1v1h-1zM3 41h1v1h-1zM2 42h1v1h-1zM98 55h1v1h-1zM97 57h1v1h-1zM94 61h1v1h-1zM15 68h1v1h-1zM81 69h1v1h-1zM37 74h1v1h-1zM62 74h1v1h-1zM64 74h1v1h-1zM45 75h1v1h-1zM54 75h1v1h-1z" /><path fill="#6d81b6" d="M45 25h1v1h-1zM54 25h1v1h-1zM33 26h1v1h-1zM17 31h1v1h-1zM10 35h1v1h-1zM5 39h1v1h-1zM95 40h1v1h-1zM2 43h1v1h-1zM1 44h1v1h-1zM99 47h1v1h-1zM0 49h1v1h-1zM96 59h1v1h-1zM9 64h1v1h-1zM85 67h1v1h-1zM44 75h1v1h-1z" /><path fill="#6d80b5" d="M48 25h1v1h-1zM82 31h1v1h-1zM13 33h1v1h-1zM0 51h1v1h-1zM2 57h1v1h-1zM12 66h1v1h-1zM76 71h1v1h-1zM48 75h1v1h-1zM51 75h1v1h-1z" /><path fill="#6e81b6" d="M49 25h2v1h-2zM36 26h28v1h-28zM31 27h38v1h-38zM27 28h46v1h-46zM74 28h1v1h-1zM23 29h54v1h-54zM19 30h1v1h-1zM21 30h22v1h-22zM51 30h28v1h-28zM18 31h25v1h-25zM51 31h31v1h-31zM16 32h26v1h-26zM51 32h33v1h-33zM14 33h28v1h-28zM51 33h35v1h-35zM12 34h30v1h-30zM51 34h37v1h-37zM11 35h31v1h-31zM50 35h39v1h-39zM8 36h34v1h-34zM50 36h41v1h-41zM8 37h10v1h-10zM35 37h6v1h-6zM59 37h5v1h-5zM81 37h11v1h-11zM7 38h11v1h-11zM37 38h4v1h-4zM61 38h3v1h-3zM84 38h9v1h-9zM6 39h11v1h-11zM39 39h2v1h-2zM62 39h2v1h-2zM85 39h9v1h-9zM5 40h12v1h-12zM40 40h1v1h-1zM63 40h1v1h-1zM86 40h9v1h-9zM4 41h13v1h-13zM40 41h1v1h-1zM87 41h10v1h-10zM3 42h14v1h-14zM87 42h11v1h-11zM3 43h14v1h-14zM87 43h10v1h-10zM2 44h15v1h-15zM25 44h6v1h-6zM49 44h5v1h-5zM72 44h6v1h-6zM87 44h11v1h-11zM2 45h14v1h-14zM25 45h7v1h-7zM49 45h5v1h-5zM72 45h7v1h-7zM87 45h11v1h-11zM1 46h15v1h-15zM25 46h7v1h-7zM48 46h6v1h-6zM72 46h7v1h-7zM87 46h12v1h-12zM1 47h15v1h-15zM25 47h7v1h-7zM48 47h6v1h-6zM71 47h8v1h-8zM87 47h12v1h-12zM1 48h15v1h-15zM25 48h7v1h-7zM48 48h6v1h-6zM71 48h8v1h-8zM87 48h12v1h-12zM1 49h15v1h-15zM24 49h8v1h-8zM48 49h6v1h-6zM71 49h7v1h-7zM87 49h12v1h-12zM1 50h14v1h-14zM24 50h7v1h-7zM48 50h5v1h-5zM71 50h7v1h-7zM87 50h12v1h-12zM1 51h14v1h-14zM24 51h6v1h-6zM47 51h6v1h-6zM71 51h6v1h-6zM87 51h12v1h-12zM1 52h14v1h-14zM24 52h4v1h-4zM47 52h6v1h-6zM70 52h5v1h-5zM86 52h13v1h-13zM1 53h14v1h-14zM47 53h6v1h-6zM86 53h13v1h-13zM1 54h14v1h-14zM47 54h6v1h-6zM85 54h14v1h-14zM2 55h12v1h-12zM47 55h5v1h-5zM84 55h14v1h-14zM2 56h12v1h-12zM37 56h1v1h-1zM46 56h6v1h-6zM83 56h15v1h-15zM3 57h11v1h-11zM35 57h2v1h-2zM46 57h6v1h-6zM82 57h15v1h-15zM4 58h10v1h-10zM33 58h4v1h-4zM46 58h6v1h-6zM80 58h16v1h-16zM3 59h11v1h-11zM29 59h9v1h-9zM45 59h7v1h-7zM76 59h20v1h-20zM5 60h8v1h-8zM22 60h38v1h-38zM68 60h27v1h-27zM6 61h7v1h-7zM22 61h38v1h-38zM68 61h26v1h-26zM6 62h7v1h-7zM22 62h37v1h-37zM68 62h25v1h-25zM8 63h5v1h-5zM22 63h37v1h-37zM68 63h24v1h-24zM10 64h3v1h-3zM21 64h38v1h-38zM68 64h22v1h-22zM11 65h2v1h-2zM21 65h38v1h-38zM68 65h21v1h-21zM21 66h38v1h-38zM67 66h20v1h-20zM15 67h70v1h-70zM86 67h1v1h-1zM17 68h66v1h-66zM19 69h62v1h-62zM22 70h57v1h-57zM23 71h1v1h-1zM25 71h50v1h-50zM28 72h44v1h-44zM33 73h34v1h-34zM35 74h1v1h-1zM39 74h22v1h-22z" /><path fill="#6e80b5" d="M66 26h1v1h-1zM77 29h1v1h-1zM11 34h1v1h-1zM88 34h1v1h-1zM4 40h1v1h-1zM97 43h1v1h-1zM98 45h1v1h-1zM99 48h1v1h-1zM0 50h1v1h-1zM99 50h1v1h-1zM99 53h1v1h-1zM3 58h1v1h-1zM96 58h1v1h-1zM4 60h1v1h-1zM90 64h1v1h-1zM13 67h1v1h-1zM17 69h1v1h-1zM82 69h1v1h-1zM21 70h1v1h-1zM24 71h1v1h-1zM75 71h1v1h-1zM26 72h1v1h-1zM31 73h2v1h-2zM67 73h2v1h-2zM46 75h2v1h-2zM52 75h2v1h-2zM55 75h1v1h-1z" /><path fill="#b8c1d9" d="M43 30h1v1h-1z" /><path fill="#dcdee5" d="M44 30h5v1h-5z" /><path fill="#e0e2e9" d="M49 30h1v1h-1z" /><path fill="#b6c0da" d="M50 30h1v1h-1zM55 37h1v1h-1zM59 64h1v1h-1z" /><path fill="#b2b3b6" d="M43 31h1v1h-1z" /><path fill="#000000" d="M44 31h5v1h-5zM44 32h5v1h-5zM44 33h5v1h-5zM44 34h5v1h-5zM44 35h4v1h-4zM43 36h5v1h-5zM43 37h5v1h-5zM43 38h5v1h-5zM19 39h16v1h-16zM43 39h15v1h-15zM66 39h15v1h-15zM19 40h17v1h-17zM43 40h17v1h-17zM66 40h17v1h-17zM19 41h19v1h-19zM42 41h19v1h-19zM66 41h18v1h-18zM19 42h5v1h-5zM32 42h6v1h-6zM42 42h5v1h-5zM55 42h6v1h-6zM65 42h5v1h-5zM78 42h7v1h-7zM19 43h4v1h-4zM33 43h6v1h-6zM42 43h5v1h-5zM56 43h5v1h-5zM65 43h5v1h-5zM80 43h5v1h-5zM18 44h5v1h-5zM34 44h5v1h-5zM42 44h5v1h-5zM56 44h5v1h-5zM65 44h5v1h-5zM80 44h6v1h-6zM18 45h5v1h-5zM34 45h5v1h-5zM42 45h4v1h-4zM56 45h5v1h-5zM65 45h5v1h-5zM81 45h5v1h-5zM18 46h5v1h-5zM34 46h5v1h-5zM41 46h5v1h-5zM56 46h5v1h-5zM65 46h4v1h-4zM81 46h5v1h-5zM18 47h5v1h-5zM34 47h5v1h-5zM41 47h5v1h-5zM56 47h5v1h-5zM64 47h5v1h-5zM81 47h5v1h-5zM18 48h4v1h-4zM34 48h5v1h-5zM41 48h5v1h-5zM56 48h5v1h-5zM64 48h5v1h-5zM80 48h6v1h-6zM17 49h5v1h-5zM34 49h5v1h-5zM41 49h5v1h-5zM55 49h5v1h-5zM64 49h5v1h-5zM80 49h5v1h-5zM17 50h5v1h-5zM33 50h5v1h-5zM41 50h4v1h-4zM55 50h5v1h-5zM64 50h5v1h-5zM80 50h5v1h-5zM17 51h5v1h-5zM33 51h5v1h-5zM40 51h5v1h-5zM55 51h5v1h-5zM64 51h4v1h-4zM79 51h5v1h-5zM17 52h5v1h-5zM32 52h5v1h-5zM40 52h5v1h-5zM55 52h5v1h-5zM63 52h5v1h-5zM79 52h5v1h-5zM17 53h4v1h-4zM31 53h5v1h-5zM40 53h5v1h-5zM55 53h5v1h-5zM63 53h5v1h-5zM77 53h6v1h-6zM16 54h5v1h-5zM26 54h10v1h-10zM40 54h5v1h-5zM54 54h5v1h-5zM63 54h5v1h-5zM73 54h9v1h-9zM16 55h18v1h-18zM40 55h4v1h-4zM54 55h5v1h-5zM63 55h18v1h-18zM16 56h17v1h-17zM39 56h5v1h-5zM54 56h5v1h-5zM63 56h16v1h-16zM16 57h14v1h-14zM39 57h5v1h-5zM54 57h5v1h-5zM62 57h14v1h-14zM16 58h4v1h-4zM62 58h5v1h-5zM15 59h5v1h-5zM62 59h5v1h-5zM15 60h5v1h-5zM62 60h5v1h-5zM15 61h5v1h-5zM62 61h4v1h-4zM15 62h5v1h-5zM61 62h5v1h-5zM15 63h4v1h-4zM61 63h5v1h-5zM14 64h5v1h-5zM61 64h5v1h-5z" /><path fill="#575757" d="M49 31h1v1h-1zM43 33h1v1h-1z" /><path fill="#ced4e6" d="M50 31h1v1h-1zM59 38h1v1h-1z" /><path fill="#8090bf" d="M42 32h1v1h-1zM38 59h1v1h-1z" /><path fill="#888888" d="M43 32h1v1h-1zM49 32h1v1h-1z" /><path fill="#b1bbd8" d="M50 32h1v1h-1zM78 37h1v1h-1zM61 52h1v1h-1zM61 53h1v1h-1zM60 57h1v1h-1zM19 66h1v1h-1z" /><path fill="#9ca9cd" d="M42 33h1v1h-1zM61 39h1v1h-1z" /><path fill="#bababa" d="M49 33h1v1h-1zM74 58h1v1h-1z" /><path fill="#95a3c9" d="M50 33h1v1h-1z" /><path fill="#b8c1db" d="M42 34h1v1h-1zM61 51h1v1h-1z" /><path fill="#252525" d="M43 34h1v1h-1zM77 42h1v1h-1zM81 55h1v1h-1z" /><path fill="#ebebeb" d="M49 34h1v1h-1z" /><path fill="#798bbc" d="M50 34h1v1h-1zM64 37h1v1h-1zM28 52h1v1h-1z" /><path fill="#c8cedd" d="M42 35h1v1h-1z" /><path fill="#020202" d="M43 35h1v1h-1zM58 39h1v1h-1zM36 53h1v1h-1zM21 54h1v1h-1zM79 56h1v1h-1z" /><path fill="#1f1f1f" d="M48 35h1v1h-1z" /><path fill="#edf0f6" d="M49 35h1v1h-1z" /><path fill="#b6b8bc" d="M42 36h1v1h-1z" /><path fill="#505050" d="M48 36h1v1h-1zM39 46h1v1h-1zM53 57h1v1h-1z" /><path fill="#d1d7e8" d="M49 36h1v1h-1zM37 54h1v1h-1z" /><path fill="#8e9dc6" d="M18 37h1v1h-1zM31 50h1v1h-1zM86 50h1v1h-1zM21 62h1v1h-1z" /><path fill="#c4cce1" d="M19 37h1v1h-1zM40 43h1v1h-1zM54 48h1v1h-1zM13 63h1v1h-1z" /><path fill="#c5cde2" d="M20 37h10v1h-10zM50 37h4v1h-4zM66 37h11v1h-11zM35 56h1v1h-1z" /><path fill="#c3cbe1" d="M30 37h1v1h-1zM53 43h1v1h-1zM70 48h1v1h-1zM38 55h1v1h-1z" /><path fill="#b8c2db" d="M31 37h1v1h-1zM17 42h1v1h-1z" /><path fill="#aeb9d6" d="M32 37h1v1h-1z" /><path fill="#9ba9cd" d="M33 37h1v1h-1z" /><path fill="#798abb" d="M34 37h1v1h-1zM54 44h1v1h-1zM37 58h1v1h-1z" /><path fill="#7b8cbd" d="M41 37h1v1h-1zM54 45h1v1h-1z" /><path fill="#8f8f8f" d="M42 37h1v1h-1zM33 38h1v1h-1zM60 65h1v1h-1z" /><path fill="#818181" d="M48 37h1v1h-1z" /><path fill="#e5e8f2" d="M49 37h1v1h-1z" /><path fill="#bcc5dd" d="M54 37h1v1h-1zM77 37h1v1h-1z" /><path fill="#aab5d4" d="M56 37h1v1h-1zM63 43h1v1h-1z" /><path fill="#919fc7" d="M57 37h1v1h-1zM14 56h1v1h-1z" /><path fill="#7587ba" d="M58 37h1v1h-1zM14 55h1v1h-1z" /><path fill="#bfc7df" d="M65 37h1v1h-1zM23 50h1v1h-1z" /><path fill="#a3afd1" d="M79 37h1v1h-1zM71 44h1v1h-1zM23 51h1v1h-1zM45 58h1v1h-1z" /><path fill="#8293c0" d="M80 37h1v1h-1z" /><path fill="#c8cdd9" d="M18 38h1v1h-1z" /><path fill="#444444" d="M19 38h12v1h-12zM49 38h6v1h-6zM66 38h12v1h-12z" /><path fill="#4f4f4f" d="M31 38h1v1h-1zM52 42h1v1h-1z" /><path fill="#616161" d="M32 38h1v1h-1z" /><path fill="#cdcdcd" d="M34 38h1v1h-1zM63 47h1v1h-1z" /><path fill="#dee2ee" d="M35 38h1v1h-1zM62 50h1v1h-1zM46 51h1v1h-1z" /><path fill="#99a7cc" d="M36 38h1v1h-1z" /><path fill="#98a5cb" d="M41 38h1v1h-1z" /><path fill="#5f5f5f" d="M42 38h1v1h-1zM82 39h1v1h-1zM29 42h1v1h-1z" /><path fill="#2b2b2b" d="M48 38h1v1h-1zM65 40h1v1h-1zM61 43h1v1h-1zM85 49h1v1h-1z" /><path fill="#555555" d="M55 38h1v1h-1zM18 41h1v1h-1zM48 42h4v1h-4zM66 63h1v1h-1zM14 65h5v1h-5zM61 65h5v1h-5z" /><path fill="#717171" d="M56 38h1v1h-1zM14 61h1v1h-1z" /><path fill="#9d9d9d" d="M57 38h1v1h-1zM63 48h1v1h-1zM45 53h1v1h-1z" /><path fill="#e0e0e2" d="M58 38h1v1h-1z" /><path fill="#8595c1" d="M60 38h1v1h-1zM52 56h1v1h-1z" /><path fill="#aeb8d6" d="M64 38h1v1h-1zM29 43h1v1h-1zM60 58h1v1h-1z" /><path fill="#a8a8a8" d="M65 38h1v1h-1zM39 43h1v1h-1z" /><path fill="#565656" d="M78 38h1v1h-1zM39 45h1v1h-1z" /><path fill="#6e6e6e" d="M79 38h1v1h-1zM39 47h1v1h-1zM40 48h1v1h-1z" /><path fill="#a6a6a6" d="M80 38h1v1h-1zM39 52h1v1h-1z" /><path fill="#d8d9df" d="M81 38h1v1h-1z" /><path fill="#afb9d7" d="M82 38h1v1h-1z" /><path fill="#7486b9" d="M83 38h1v1h-1zM39 40h1v1h-1zM63 41h1v1h-1zM21 63h1v1h-1z" /><path fill="#6f81b6" d="M17 39h1v1h-1zM48 45h1v1h-1zM24 48h1v1h-1zM86 51h1v1h-1zM85 53h1v1h-1zM67 65h1v1h-1z" /><path fill="#b1b2b4" d="M18 39h1v1h-1z" /><path fill="#323232" d="M35 39h1v1h-1zM64 45h1v1h-1zM16 52h1v1h-1zM44 56h1v1h-1z" /><path fill="#b5b5b5" d="M36 39h1v1h-1z" /><path fill="#d4d9e9" d="M37 39h1v1h-1z" /><path fill="#7587b9" d="M38 39h1v1h-1z" /><path fill="#b4bed9" d="M41 39h1v1h-1z" /><path fill="#2d2d2d" d="M42 39h1v1h-1z" /><path fill="#525252" d="M59 39h1v1h-1z" /><path fill="#e1e2e3" d="M60 39h1v1h-1z" /><path fill="#cad1e4" d="M64 39h1v1h-1zM77 58h1v1h-1z" /><path fill="#5d5d5d" d="M65 39h1v1h-1zM80 56h1v1h-1z" /><path fill="#040404" d="M81 39h1v1h-1zM42 40h1v1h-1zM65 41h1v1h-1zM80 47h1v1h-1zM84 51h1v1h-1z" /><path fill="#d0d3d8" d="M83 39h1v1h-1z" /><path fill="#8797c3" d="M84 39h1v1h-1zM26 59h1v1h-1z" /><path fill="#8091bf" d="M17 40h1v1h-1zM40 42h1v1h-1z" /><path fill="#878787" d="M18 40h1v1h-1zM61 41h1v1h-1zM61 46h1v1h-1z" /><path fill="#010101" d="M36 40h1v1h-1zM18 43h1v1h-1zM33 49h1v1h-1zM76 57h1v1h-1zM66 61h1v1h-1z" /><path fill="#808080" d="M37 40h1v1h-1z" /><path fill="#e0e4ef" d="M38 40h1v1h-1zM30 58h1v1h-1z" /><path fill="#c9cfe0" d="M41 40h1v1h-1z" /><path fill="#242424" d="M60 40h1v1h-1zM18 42h1v1h-1zM33 44h1v1h-1zM83 53h1v1h-1z" /><path fill="#e9eaec" d="M61 40h1v1h-1z" /><path fill="#7f90bf" d="M62 40h1v1h-1zM27 59h1v1h-1z" /><path fill="#e6e9f2" d="M64 40h1v1h-1z" /><path fill="#161616" d="M83 40h1v1h-1zM80 46h1v1h-1zM82 54h1v1h-1z" /><path fill="#c0c1c3" d="M84 40h1v1h-1z" /><path fill="#8897c3" d="M85 40h1v1h-1zM75 52h1v1h-1z" /><path fill="#9daacd" d="M17 41h1v1h-1z" /><path fill="#9e9e9e" d="M38 41h1v1h-1zM40 47h1v1h-1z" /><path fill="#bfc8df" d="M39 41h1v1h-1z" /><path fill="#b9bbc1" d="M41 41h1v1h-1zM86 47h1v1h-1z" /><path fill="#b7c0db" d="M62 41h1v1h-1zM86 49h1v1h-1z" /><path fill="#f3f3f4" d="M64 41h1v1h-1z" /><path fill="#131313" d="M84 41h1v1h-1z" /><path fill="#ced1da" d="M85 41h1v1h-1z" /><path fill="#7083b7" d="M86 41h1v1h-1zM37 57h1v1h-1z" /><path fill="#707070" d="M24 42h1v1h-1zM70 43h1v1h-1zM22 50h1v1h-1z" /><path fill="#777777" d="M25 42h3v1h-3zM71 42h3v1h-3zM85 50h1v1h-1z" /><path fill="#696969" d="M28 42h1v1h-1zM69 48h1v1h-1z" /><path fill="#393939" d="M30 42h1v1h-1zM63 50h1v1h-1zM15 57h1v1h-1z" /><path fill="#060606" d="M31 42h1v1h-1zM78 52h1v1h-1zM16 53h1v1h-1zM72 54h1v1h-1z" /><path fill="#101010" d="M38 42h1v1h-1zM46 45h1v1h-1zM55 48h1v1h-1zM62 56h1v1h-1zM14 63h1v1h-1z" /><path fill="#efeff0" d="M39 42h1v1h-1zM38 52h1v1h-1z" /><path fill="#979898" d="M41 42h1v1h-1z" /><path fill="#2e2e2e" d="M47 42h1v1h-1zM33 48h1v1h-1z" /><path fill="#373737" d="M53 42h1v1h-1z" /><path fill="#0c0c0c" d="M54 42h1v1h-1zM80 45h1v1h-1zM25 54h1v1h-1z" /><path fill="#404040" d="M61 42h1v1h-1zM55 47h1v1h-1z" /><path fill="#d8ddeb" d="M62 42h1v1h-1z" /><path fill="#8d9cc6" d="M63 42h1v1h-1z" /><path fill="#c7c7c7" d="M64 42h1v1h-1z" /><path fill="#232323" d="M70 42h1v1h-1zM66 62h1v1h-1z" /><path fill="#747474" d="M74 42h1v1h-1zM46 47h1v1h-1z" /><path fill="#666666" d="M75 42h1v1h-1zM41 43h1v1h-1z" /><path fill="#545454" d="M76 42h1v1h-1z" /><path fill="#606060" d="M85 42h1v1h-1z" /><path fill="#9eabce" d="M86 42h1v1h-1zM24 46h1v1h-1zM67 63h1v1h-1zM13 66h1v1h-1z" /><path fill="#c8cddc" d="M17 43h1v1h-1z" /><path fill="#151515" d="M23 43h1v1h-1zM59 54h1v1h-1zM30 57h1v1h-1z" /><path fill="#f4f6fa" d="M24 43h1v1h-1z" /><path fill="#a8b3d3" d="M25 43h4v1h-4zM72 43h4v1h-4zM29 52h1v1h-1zM38 54h1v1h-1z" /><path fill="#c1c9e0" d="M30 43h1v1h-1zM31 58h1v1h-1z" /><path fill="#d7d9e0" d="M31 43h1v1h-1z" /><path fill="#5a5a5a" d="M32 43h1v1h-1z" /><path fill="#ababab" d="M47 43h1v1h-1zM53 58h1v1h-1zM61 58h1v1h-1z" /><path fill="#c7cfe3" d="M48 43h1v1h-1z" /><path fill="#b2bcd8" d="M49 43h3v1h-3zM62 47h1v1h-1zM62 48h1v1h-1zM14 66h5v1h-5zM60 66h6v1h-6z" /><path fill="#b5bed9" d="M52 43h1v1h-1zM32 48h1v1h-1z" /><path fill="#dadde6" d="M54 43h1v1h-1z" /><path fill="#3d3d3d" d="M55 43h1v1h-1z" /><path fill="#e3e7f1" d="M62 43h1v1h-1z" /><path fill="#959595" d="M64 43h1v1h-1zM16 50h1v1h-1z" /><path fill="#d5daea" d="M71 43h1v1h-1z" /><path fill="#b3bdd9" d="M76 43h1v1h-1zM80 57h1v1h-1z" /><path fill="#ccd3e6" d="M77 43h1v1h-1z" /><path fill="#c1c1c4" d="M78 43h1v1h-1z" /><path fill="#222222" d="M79 43h1v1h-1z" /><path fill="#0d0d0d" d="M85 43h1v1h-1zM40 50h1v1h-1z" /><path fill="#c7cddf" d="M86 43h1v1h-1z" /><path fill="#b5b7bb" d="M17 44h1v1h-1zM67 60h1v1h-1z" /><path fill="#464646" d="M23 44h1v1h-1z" /><path fill="#d7dceb" d="M24 44h1v1h-1zM60 55h1v1h-1z" /><path fill="#6f82b7" d="M31 44h1v1h-1zM52 55h1v1h-1z" /><path fill="#cad0e1" d="M32 44h1v1h-1z" /><path fill="#6a6a6a" d="M39 44h1v1h-1zM78 57h1v1h-1z" /><path fill="#fbfcfd" d="M40 44h1v1h-1z" /><path fill="#353535" d="M41 44h1v1h-1z" /><path fill="#dddddd" d="M47 44h1v1h-1z" /><path fill="#8192c0" d="M48 44h1v1h-1zM73 59h1v1h-1z" /><path fill="#969696" d="M55 44h1v1h-1zM35 55h1v1h-1z" /><path fill="#3a3a3a" d="M61 44h1v1h-1zM45 51h1v1h-1z" /><path fill="#dbe0ed" d="M62 44h1v1h-1zM23 49h1v1h-1z" /><path fill="#c6cee2" d="M63 44h1v1h-1z" /><path fill="#646464" d="M64 44h1v1h-1zM16 51h1v1h-1zM44 57h1v1h-1z" /><path fill="#a2a2a2" d="M70 44h1v1h-1zM22 51h1v1h-1z" /><path fill="#7d8ebe" d="M78 44h1v1h-1zM84 54h1v1h-1zM59 62h1v1h-1z" /><path fill="#b9b9bc" d="M79 44h1v1h-1z" /><path fill="#b6b8be" d="M86 44h1v1h-1z" /><path fill="#7c8dbd" d="M16 45h1v1h-1z" /><path fill="#8e8e8e" d="M17 45h1v1h-1zM39 48h1v1h-1z" /><path fill="#787878" d="M23 45h1v1h-1zM59 56h1v1h-1z" /><path fill="#bbc4dd" d="M24 45h1v1h-1z" /><path fill="#92a1c8" d="M32 45h1v1h-1z" /><path fill="#676767" d="M33 45h1v1h-1z" /><path fill="#fafafa" d="M40 45h1v1h-1z" /><path fill="#080808" d="M41 45h1v1h-1zM68 54h1v1h-1z" /><path fill="#f4f6f9" d="M47 45h1v1h-1zM61 56h1v1h-1z" /><path fill="#8d8d8d" d="M55 45h1v1h-1zM67 59h1v1h-1z" /><path fill="#595959" d="M61 45h1v1h-1z" /><path fill="#cbd2e5" d="M62 45h1v1h-1zM20 65h1v1h-1z" /><path fill="#e2e6f0" d="M63 45h1v1h-1zM24 53h2v1h-2zM70 53h3v1h-3z" /><path fill="#d3d3d3" d="M70 45h1v1h-1zM22 52h1v1h-1z" /><path fill="#8696c2" d="M71 45h1v1h-1zM23 52h1v1h-1zM44 59h1v1h-1z" /><path fill="#c5cce1" d="M79 45h1v1h-1z" /><path fill="#acacaf" d="M86 45h1v1h-1z" /><path fill="#99a6cb" d="M16 46h1v1h-1zM77 51h1v1h-1z" /><path fill="#5c5c5c" d="M17 46h1v1h-1z" /><path fill="#a9a9a9" d="M23 46h1v1h-1z" /><path fill="#8a99c4" d="M32 46h1v1h-1zM72 59h1v1h-1zM59 66h1v1h-1z" /><path fill="#737373" d="M33 46h1v1h-1z" /><path fill="#d1d1d1" d="M40 46h1v1h-1z" /><path fill="#414141" d="M46 46h1v1h-1zM76 53h1v1h-1zM62 55h1v1h-1z" /><path fill="#d9deec" d="M47 46h1v1h-1zM36 55h1v1h-1zM61 55h1v1h-1z" /><path fill="#8d9cc5" d="M54 46h1v1h-1zM13 61h1v1h-1z" /><path fill="#727272" d="M55 46h1v1h-1zM62 54h1v1h-1z" /><path fill="#b6bfda" d="M62 46h1v1h-1zM16 47h1v1h-1z" /><path fill="#f5f6f7" d="M63 46h1v1h-1zM45 55h1v1h-1z" /><path fill="#070707" d="M64 46h1v1h-1zM34 55h1v1h-1zM44 55h1v1h-1z" /><path fill="#090909" d="M69 46h1v1h-1zM30 53h1v1h-1z" /><path fill="#f5f6f8" d="M70 46h1v1h-1z" /><path fill="#7082b7" d="M71 46h1v1h-1zM47 50h1v1h-1zM52 59h1v1h-1zM75 59h1v1h-1z" /><path fill="#bec7de" d="M79 46h1v1h-1z" /><path fill="#a9aaab" d="M86 46h1v1h-1z" /><path fill="#2a2a2a" d="M17 47h1v1h-1zM31 52h1v1h-1zM33 56h1v1h-1zM19 64h1v1h-1z" /><path fill="#dcdcdc" d="M23 47h1v1h-1zM61 57h1v1h-1z" /><path fill="#8292c0" d="M24 47h1v1h-1zM67 64h1v1h-1z" /><path fill="#98a6cb" d="M32 47h1v1h-1z" /><path fill="#5b5b5b" d="M33 47h1v1h-1z" /><path fill="#bdc6de" d="M47 47h1v1h-1z" /><path fill="#a9b4d4" d="M54 47h1v1h-1zM13 62h1v1h-1z" /><path fill="#b9b9b9" d="M61 47h1v1h-1zM37 53h1v1h-1z" /><path fill="#383838" d="M69 47h1v1h-1z" /><path fill="#dfe3ef" d="M70 47h1v1h-1z" /><path fill="#c9d0e1" d="M79 47h1v1h-1z" /><path fill="#c9cfdf" d="M16 48h1v1h-1z" /><path fill="#030303" d="M17 48h1v1h-1zM19 63h1v1h-1z" /><path fill="#0e0e0e" d="M22 48h1v1h-1z" /><path fill="#f5f7fa" d="M23 48h1v1h-1z" /><path fill="#a4a4a4" d="M46 48h1v1h-1zM62 53h1v1h-1z" /><path fill="#a1add0" d="M47 48h1v1h-1zM85 52h1v1h-1z" /><path fill="#eaeaea" d="M61 48h1v1h-1z" /><path fill="#bfc1c8" d="M79 48h1v1h-1z" /><path fill="#c7ccd9" d="M86 48h1v1h-1z" /><path fill="#b9bbc0" d="M16 49h1v1h-1z" /><path fill="#3f3f3f" d="M22 49h1v1h-1zM14 62h1v1h-1z" /><path fill="#caced8" d="M32 49h1v1h-1z" /><path fill="#cecece" d="M39 49h1v1h-1zM45 54h1v1h-1z" /><path fill="#3c3c3c" d="M40 49h1v1h-1zM67 58h1v1h-1z" /><path fill="#d5d5d5" d="M46 49h1v1h-1zM62 52h1v1h-1z" /><path fill="#8595c2" d="M47 49h1v1h-1z" /><path fill="#c3c6d0" d="M54 49h1v1h-1z" /><path fill="#1c1c1c" d="M60 49h1v1h-1zM38 50h1v1h-1zM37 52h1v1h-1z" /><path fill="#eff1f7" d="M61 49h1v1h-1z" /><path fill="#c2cae0" d="M62 49h1v1h-1zM78 50h1v1h-1zM46 52h1v1h-1z" /><path fill="#6b6b6b" d="M63 49h1v1h-1zM45 52h1v1h-1zM84 52h1v1h-1zM15 56h1v1h-1z" /><path fill="#9a9a9a" d="M69 49h1v1h-1zM72 58h1v1h-1z" /><path fill="#a7b2d3" d="M70 49h1v1h-1z" /><path fill="#8393c1" d="M78 49h1v1h-1z" /><path fill="#8b8b8b" d="M79 49h1v1h-1z" /><path fill="#788abb" d="M15 50h1v1h-1zM74 59h1v1h-1z" /><path fill="#848484" d="M32 50h1v1h-1z" /><path fill="#fbfbfb" d="M39 50h1v1h-1zM22 53h1v1h-1z" /><path fill="#0b0b0b" d="M45 50h1v1h-1zM63 51h1v1h-1zM15 58h1v1h-1z" /><path fill="#f6f7f9" d="M46 50h1v1h-1zM62 51h1v1h-1z" /><path fill="#7183b7" d="M53 50h1v1h-1zM81 57h1v1h-1z" /><path fill="#a9a9ab" d="M54 50h1v1h-1z" /><path fill="#4e4e4e" d="M60 50h1v1h-1z" /><path fill="#d3d8e9" d="M61 50h1v1h-1z" /><path fill="#cccccc" d="M69 50h1v1h-1z" /><path fill="#8b9ac5" d="M70 50h1v1h-1zM22 59h4v1h-4zM39 59h5v1h-5zM54 59h5v1h-5zM69 59h3v1h-3z" /><path fill="#292929" d="M79 50h1v1h-1z" /><path fill="#94a2c9" d="M15 51h1v1h-1zM66 66h1v1h-1z" /><path fill="#7a8bbc" d="M30 51h1v1h-1z" /><path fill="#cfd1d9" d="M31 51h1v1h-1z" /><path fill="#0f0f0f" d="M32 51h1v1h-1z" /><path fill="#898989" d="M38 51h1v1h-1z" /><path fill="#d8d8d8" d="M39 51h1v1h-1z" /><path fill="#8898c3" d="M53 51h1v1h-1z" /><path fill="#7a7a7a" d="M54 51h1v1h-1z" /><path fill="#7f7f7f" d="M60 51h1v1h-1zM60 64h1v1h-1z" /><path fill="#050505" d="M68 51h1v1h-1zM20 58h1v1h-1z" /><path fill="#f5f5f6" d="M69 51h1v1h-1z" /><path fill="#7284b8" d="M70 51h1v1h-1z" /><path fill="#949494" d="M78 51h1v1h-1zM20 61h1v1h-1z" /><path fill="#cacdd6" d="M85 51h1v1h-1z" /><path fill="#b1bbd7" d="M15 52h1v1h-1z" /><path fill="#d1d3d8" d="M30 52h1v1h-1z" /><path fill="#a5b0d1" d="M53 52h1v1h-1z" /><path fill="#494949" d="M54 52h1v1h-1z" /><path fill="#b1b1b1" d="M60 52h1v1h-1zM32 57h1v1h-1zM60 63h1v1h-1z" /><path fill="#303030" d="M68 52h1v1h-1z" /><path fill="#e4e7f1" d="M69 52h1v1h-1zM23 53h1v1h-1z" /><path fill="#c0c8df" d="M76 52h1v1h-1z" /><path fill="#a5a6a6" d="M77 52h1v1h-1z" /><path fill="#c8cfe1" d="M15 53h1v1h-1z" /><path fill="#0a0a0a" d="M21 53h1v1h-1z" /><path fill="#e2e5f0" d="M26 53h1v1h-1z" /><path fill="#d7d9de" d="M27 53h1v1h-1z" /><path fill="#b8b8b8" d="M28 53h1v1h-1z" /><path fill="#686868" d="M29 53h1v1h-1z" /><path fill="#c8d0e4" d="M38 53h1v1h-1z" /><path fill="#757575" d="M39 53h1v1h-1z" /><path fill="#a6b1d2" d="M46 53h1v1h-1zM78 58h1v1h-1z" /><path fill="#c0c9e0" d="M53 53h1v1h-1z" /><path fill="#171717" d="M54 53h1v1h-1zM61 61h1v1h-1z" /><path fill="#e3e3e3" d="M60 53h1v1h-1zM60 62h1v1h-1z" /><path fill="#626262" d="M68 53h1v1h-1z" /><path fill="#f6f7fa" d="M69 53h1v1h-1z" /><path fill="#e0e3eb" d="M73 53h1v1h-1z" /><path fill="#d0d1d3" d="M74 53h1v1h-1z" /><path fill="#9f9f9f" d="M75 53h1v1h-1z" /><path fill="#cdd2e0" d="M84 53h1v1h-1z" /><path fill="#bcbfc5" d="M15 54h1v1h-1z" /><path fill="#111111" d="M22 54h3v1h-3zM69 54h3v1h-3z" /><path fill="#939393" d="M36 54h1v1h-1z" /><path fill="#434343" d="M39 54h1v1h-1z" /><path fill="#8999c4" d="M46 54h1v1h-1z" /><path fill="#c6cad6" d="M53 54h1v1h-1z" /><path fill="#f2f4f9" d="M60 54h1v1h-1z" /><path fill="#bec6de" d="M61 54h1v1h-1z" /><path fill="#cbcdd2" d="M83 54h1v1h-1z" /><path fill="#9b9b9b" d="M15 55h1v1h-1z" /><path fill="#7385b8" d="M37 55h1v1h-1zM13 60h1v1h-1z" /><path fill="#121212" d="M39 55h1v1h-1z" /><path fill="#7184b8" d="M46 55h1v1h-1zM36 56h1v1h-1z" /><path fill="#aeafb0" d="M53 55h1v1h-1z" /><path fill="#474747" d="M59 55h1v1h-1zM61 60h1v1h-1z" /><path fill="#c8cace" d="M82 55h1v1h-1z" /><path fill="#8494c1" d="M83 55h1v1h-1z" /><path fill="#cacaca" d="M34 56h1v1h-1z" /><path fill="#c4c7d2" d="M38 56h1v1h-1z" /><path fill="#e1e5f0" d="M45 56h1v1h-1z" /><path fill="#828282" d="M53 56h1v1h-1z" /><path fill="#bac3dc" d="M60 56h1v1h-1zM67 62h1v1h-1z" /><path fill="#d5d8e3" d="M81 56h1v1h-1z" /><path fill="#8191bf" d="M82 56h1v1h-1zM20 66h1v1h-1z" /><path fill="#adb7d5" d="M14 57h1v1h-1z" /><path fill="#4d4d4d" d="M31 57h1v1h-1z" /><path fill="#e2e5ef" d="M33 57h1v1h-1z" /><path fill="#9aa7cc" d="M34 57h1v1h-1zM59 63h1v1h-1z" /><path fill="#ababac" d="M38 57h1v1h-1z" /><path fill="#c6cde2" d="M45 57h1v1h-1z" /><path fill="#a0accf" d="M52 57h1v1h-1z" /><path fill="#aaaaaa" d="M59 57h1v1h-1zM73 58h1v1h-1z" /><path fill="#282828" d="M77 57h1v1h-1z" /><path fill="#cfd0d4" d="M79 57h1v1h-1z" /><path fill="#c6cee1" d="M14 58h1v1h-1z" /><path fill="#999999" d="M21 58h5v1h-5zM39 58h5v1h-5zM54 58h5v1h-5zM68 58h4v1h-4z" /><path fill="#a5a5a5" d="M26 58h1v1h-1z" /><path fill="#b4b4b4" d="M27 58h1v1h-1z" /><path fill="#c3c3c3" d="M28 58h1v1h-1z" /><path fill="#dadadb" d="M29 58h1v1h-1z" /><path fill="#95a3ca" d="M32 58h1v1h-1z" /><path fill="#cfcfd0" d="M38 58h1v1h-1z" /><path fill="#cfcfcf" d="M44 58h1v1h-1z" /><path fill="#abb6d5" d="M52 58h1v1h-1zM21 61h1v1h-1z" /><path fill="#e8e9ea" d="M59 58h1v1h-1z" /><path fill="#c8c9c9" d="M75 58h1v1h-1z" /><path fill="#dadde5" d="M76 58h1v1h-1z" /><path fill="#7385b9" d="M79 58h1v1h-1z" /><path fill="#bec1c9" d="M14 59h1v1h-1z" /><path fill="#313131" d="M20 59h1v1h-1z" /><path fill="#e7eaf3" d="M21 59h1v1h-1zM20 64h1v1h-1z" /><path fill="#7788ba" d="M28 59h1v1h-1z" /><path fill="#8998c3" d="M53 59h1v1h-1z" /><path fill="#7e8fbe" d="M59 59h1v1h-1z" /><path fill="#b9c2dc" d="M60 59h1v1h-1z" /><path fill="#797979" d="M61 59h1v1h-1z" /><path fill="#96a4ca" d="M68 59h1v1h-1z" /><path fill="#a0a1a1" d="M14 60h1v1h-1z" /><path fill="#636363" d="M20 60h1v1h-1z" /><path fill="#c7cee3" d="M21 60h1v1h-1z" /><path fill="#d6dbea" d="M60 60h1v1h-1z" /><path fill="#f2f4f8" d="M60 61h1v1h-1z" /><path fill="#c9cddb" d="M67 61h1v1h-1z" /><path fill="#c6c6c6" d="M20 62h1v1h-1z" /><path fill="#f2f3f3" d="M20 63h1v1h-1z" /><path fill="#c1c5ce" d="M13 64h1v1h-1z" /><path fill="#868686" d="M66 64h1v1h-1z" /><path fill="#c7c8ca" d="M13 65h1v1h-1z" /><path fill="#8c8c8c" d="M19 65h1v1h-1z" /><path fill="#cdd4e6" d="M59 65h1v1h-1z" /><path fill="#c2c4c6" d="M66 65h1v1h-1z" /></svg>