<svg xmlns="http://www.w3.org/2000/svg" viewBox="0 0 100 100" width="1em" height="1em"><path fill="#8ae89b" d="M52 1h1v1h-1zM44 10h1v1h-1zM41 16h1v1h-1z" /><path fill="#8ae89c" d="M51 2h1v1h-1zM56 6h1v1h-1zM58 11h1v1h-1zM58 12h1v1h-1zM42 13h1v1h-1zM59 15h1v1h-1zM59 16h1v1h-1z" /><path fill="#8ae99c" d="M52 2h2v1h-2zM50 3h4v1h-4zM49 4h7v1h-7zM48 5h8v1h-8zM48 6h8v1h-8zM47 7h10v1h-10zM46 8h11v1h-11zM45 9h12v1h-12zM45 10h13v1h-13zM43 11h15v1h-15zM43 12h15v1h-15zM43 13h16v1h-16zM43 14h16v1h-16zM42 15h17v1h-17zM42 16h17v1h-17zM41 17h19v1h-19zM41 18h19v1h-19zM40 19h20v1h-20zM40 20h20v1h-20zM40 21h21v1h-21zM40 22h20v1h-20zM40 23h20v1h-20zM40 24h20v1h-20zM40 25h20v1h-20zM39 26h21v1h-21zM39 27h21v1h-21zM39 28h21v1h-21zM39 29h20v1h-20zM39 30h20v1h-20zM52 31h7v1h-7zM55 32h4v1h-4zM57 33h2v1h-2z" /><path fill="#89e99c" d="M49 3h1v1h-1zM48 4h1v1h-1zM45 8h1v1h-1z" /><path fill="#89e89c" d="M54 3h1v1h-1z" /><path fill="#89e89b" d="M47 5h1v1h-1zM47 6h1v1h-1zM57 9h1v1h-1zM42 14h1v1h-1z" /><path fill="#8ae99b" d="M46 7h1v1h-1zM57 8h1v1h-1zM59 14h1v1h-1zM60 22h1v1h-1z" /><path fill="#51c760" d="M23 14h1v1h-1zM26 14h2v1h-2zM21 18h1v1h-1zM35 18h1v1h-1zM79 26h1v1h-1zM79 27h1v1h-1z" /><path fill="#52c761" d="M24 14h1v1h-1zM23 15h6v1h-6zM22 16h10v1h-10zM22 17h13v1h-13zM22 18h13v1h-13zM22 19h15v1h-15zM21 20h17v1h-17zM21 21h18v1h-18zM69 21h9v1h-9zM21 22h18v1h-18zM66 22h13v1h-13zM21 23h18v1h-18zM63 23h17v1h-17zM21 24h18v1h-18zM62 24h18v1h-18zM21 25h18v1h-18zM61 25h19v1h-19zM22 26h16v1h-16zM61 26h18v1h-18zM22 27h16v1h-16zM61 27h18v1h-18zM22 28h16v1h-16zM61 28h18v1h-18zM22 29h16v1h-16zM61 29h18v1h-18zM22 30h16v1h-16zM60 30h18v1h-18zM22 31h16v1h-16zM60 31h19v1h-19zM23 32h12v1h-12zM60 32h18v1h-18zM22 33h11v1h-11zM60 33h17v1h-17zM23 34h9v1h-9zM60 34h17v1h-17zM23 35h7v1h-7zM61 35h16v1h-16zM23 36h6v1h-6zM62 36h14v1h-14zM24 37h4v1h-4zM63 37h13v1h-13zM25 38h2v1h-2zM64 38h11v1h-11zM24 39h2v1h-2zM65 39h10v1h-10zM66 40h8v1h-8zM67 41h7v1h-7zM68 42h5v1h-5zM68 43h5v1h-5zM69 44h2v1h-2zM70 45h1v1h-1z" /><path fill="#51c660" d="M25 14h1v1h-1zM29 15h1v1h-1zM32 16h1v1h-1zM21 19h1v1h-1zM37 19h1v1h-1zM72 20h1v1h-1zM67 21h1v1h-1zM61 24h1v1h-1zM21 27h1v1h-1zM21 29h1v1h-1zM78 30h1v1h-1z" /><path fill="#52c661" d="M22 15h1v1h-1zM73 20h4v1h-4zM77 33h1v1h-1zM76 36h1v1h-1zM75 38h1v1h-1z" /><path fill="#51c761" d="M30 15h1v1h-1zM21 17h1v1h-1zM79 22h1v1h-1zM24 38h1v1h-1z" /><path fill="#51c661" d="M38 20h1v1h-1zM21 28h1v1h-1zM22 32h1v1h-1zM77 34h1v1h-1z" /><path fill="#52c760" d="M71 20h1v1h-1zM78 21h1v1h-1zM65 22h1v1h-1zM21 26h1v1h-1zM73 42h1v1h-1zM71 44h1v1h-1z" /><path fill="#69d478" d="M39 21h1v1h-1z" /><path fill="#52c660" d="M68 21h1v1h-1zM64 22h1v1h-1zM62 23h1v1h-1zM79 28h1v1h-1zM74 40h1v1h-1z" /><path fill="#71da82" d="M39 22h1v1h-1z" /><path fill="#7adf8b" d="M39 23h1v1h-1z" /><path fill="#89e99b" d="M60 23h1v1h-1z" /><path fill="#82e493" d="M39 24h1v1h-1z" /><path fill="#76dc88" d="M60 24h1v1h-1z" /><path fill="#88e79a" d="M39 25h1v1h-1z" /><path fill="#6bd77c" d="M60 25h1v1h-1z" /><path fill="#54c963" d="M38 26h1v1h-1z" /><path fill="#67d477" d="M60 26h1v1h-1z" /><path fill="#5acc6a" d="M38 27h1v1h-1z" /><path fill="#60cf70" d="M60 27h1v1h-1z" /><path fill="#5fcf6f" d="M38 28h1v1h-1z" /><path fill="#58cb68" d="M60 28h1v1h-1z" /><path fill="#61d171" d="M38 29h1v1h-1z" /><path fill="#88e899" d="M59 29h1v1h-1z" /><path fill="#53c762" d="M60 29h1v1h-1z" /><path fill="#63d172" d="M38 30h1v1h-1z" /><path fill="#7fe290" d="M59 30h1v1h-1z" /><path fill="#69d374" d="M38 31h1v1h-1z" /><path fill="#a9e88f" d="M39 31h1v1h-1z" /><path fill="#c1e786" d="M40 31h1v1h-1z" /><path fill="#d9e67c" d="M41 31h1v1h-1z" /><path fill="#eae675" d="M42 31h1v1h-1z" /><path fill="#f2e671" d="M43 31h1v1h-1z" /><path fill="#fae56e" d="M44 31h1v1h-1z" /><path fill="#ffe56c" d="M45 31h1v1h-1zM39 32h13v1h-13zM36 33h19v1h-19zM34 34h23v1h-23zM32 35h26v1h-26zM31 36h29v1h-29zM30 37h31v1h-31zM28 38h10v1h-10zM41 38h9v1h-9zM53 38h9v1h-9zM27 39h11v1h-11zM42 39h7v1h-7zM53 39h10v1h-10zM26 40h12v1h-12zM43 40h5v1h-5zM53 40h11v1h-11zM25 41h14v1h-14zM44 41h3v1h-3zM52 41h13v1h-13zM25 42h15v1h-15zM45 42h1v1h-1zM51 42h15v1h-15zM24 43h17v1h-17zM50 43h17v1h-17zM22 44h20v1h-20zM49 44h19v1h-19zM22 45h21v1h-21zM48 45h20v1h-20zM22 46h20v1h-20zM49 46h20v1h-20zM21 47h20v1h-20zM50 47h19v1h-19zM21 48h19v1h-19zM45 48h1v1h-1zM51 48h20v1h-20zM20 49h20v1h-20zM44 49h3v1h-3zM51 49h20v1h-20zM20 50h20v1h-20zM43 50h5v1h-5zM51 50h20v1h-20zM19 51h53v1h-53zM19 52h53v1h-53zM18 53h10v1h-10zM34 53h39v1h-39zM18 54h9v1h-9zM36 54h19v1h-19zM61 54h12v1h-12zM18 55h8v1h-8zM36 55h18v1h-18zM62 55h12v1h-12zM17 56h8v1h-8zM37 56h16v1h-16zM63 56h11v1h-11zM17 57h8v1h-8zM37 57h16v1h-16zM64 57h10v1h-10zM17 58h8v1h-8zM37 58h15v1h-15zM64 58h10v1h-10zM16 59h9v1h-9zM37 59h15v1h-15zM64 59h10v1h-10zM15 60h10v1h-10zM37 60h15v1h-15zM64 60h11v1h-11zM16 61h10v1h-10zM36 61h16v1h-16zM64 61h11v1h-11zM16 62h8v1h-8zM36 62h17v1h-17zM63 62h13v1h-13zM15 63h8v1h-8zM34 63h5v1h-5zM41 63h12v1h-12zM64 63h11v1h-11zM15 64h8v1h-8zM33 64h6v1h-6zM42 64h4v1h-4zM49 64h5v1h-5zM66 64h9v1h-9zM15 65h9v1h-9zM33 65h6v1h-6zM49 65h7v1h-7zM66 65h10v1h-10zM14 66h12v1h-12zM32 66h8v1h-8zM48 66h8v1h-8zM66 66h10v1h-10zM15 67h42v1h-42zM65 67h11v1h-11zM15 68h61v1h-61zM15 69h61v1h-61zM15 70h61v1h-61zM15 71h61v1h-61zM15 72h61v1h-61zM14 73h6v1h-6zM23 73h44v1h-44zM70 73h6v1h-6zM15 74h5v1h-5zM24 74h42v1h-42zM70 74h6v1h-6zM15 75h5v1h-5zM25 75h8v1h-8zM37 75h17v1h-17zM57 75h8v1h-8zM70 75h6v1h-6zM15 76h6v1h-6zM26 76h6v1h-6zM37 76h17v1h-17zM58 76h6v1h-6zM69 76h7v1h-7zM14 77h8v1h-8zM27 77h4v1h-4zM36 77h18v1h-18zM59 77h4v1h-4zM68 77h8v1h-8zM15 78h8v1h-8zM28 78h2v1h-2zM35 78h20v1h-20zM60 78h2v1h-2zM67 78h9v1h-9zM15 79h9v1h-9zM29 79h1v1h-1zM34 79h22v1h-22zM66 79h9v1h-9zM15 80h10v1h-10zM33 80h24v1h-24zM65 80h10v1h-10zM16 81h10v1h-10zM33 81h25v1h-25zM64 81h11v1h-11zM16 82h11v1h-11zM32 82h27v1h-27zM64 82h11v1h-11zM16 83h10v1h-10zM33 83h25v1h-25zM65 83h10v1h-10zM17 84h8v1h-8zM34 84h23v1h-23zM66 84h8v1h-8zM16 85h8v1h-8zM29 85h1v1h-1zM35 85h21v1h-21zM61 85h1v1h-1zM67 85h7v1h-7zM17 86h7v1h-7zM28 86h3v1h-3zM36 86h19v1h-19zM60 86h3v1h-3zM67 86h7v1h-7zM17 87h7v1h-7zM27 87h5v1h-5zM37 87h17v1h-17zM59 87h5v1h-5zM67 87h6v1h-6zM19 88h14v1h-14zM38 88h15v1h-15zM58 88h14v1h-14zM19 89h15v1h-15zM39 89h13v1h-13zM57 89h14v1h-14zM19 90h16v1h-16zM39 90h13v1h-13zM56 90h16v1h-16zM21 91h15v1h-15zM38 91h14v1h-14zM55 91h15v1h-15zM22 92h47v1h-47zM22 93h46v1h-46zM24 94h42v1h-42zM26 95h40v1h-40zM26 96h1v1h-1zM28 96h35v1h-35zM30 97h32v1h-32zM34 98h22v1h-22zM37 99h1v1h-1zM43 99h1v1h-1zM45 99h2v1h-2zM49 99h1v1h-1zM53 99h1v1h-1z" /><path fill="#f7e66f" d="M46 31h1v1h-1z" /><path fill="#efe573" d="M47 31h1v1h-1zM52 32h1v1h-1z" /><path fill="#e5e676" d="M48 31h1v1h-1z" /><path fill="#d0e67f" d="M49 31h1v1h-1z" /><path fill="#b8e889" d="M50 31h1v1h-1z" /><path fill="#a0e893" d="M51 31h1v1h-1z" /><path fill="#76dd87" d="M59 31h1v1h-1z" /><path fill="#55c761" d="M35 32h1v1h-1zM33 33h1v1h-1z" /><path fill="#88d064" d="M36 32h1v1h-1z" /><path fill="#c3da68" d="M37 32h1v1h-1z" /><path fill="#f8e46d" d="M38 32h1v1h-1z" /><path fill="#c8e782" d="M53 32h1v1h-1z" /><path fill="#9fe893" d="M54 32h1v1h-1z" /><path fill="#6ad579" d="M59 32h1v1h-1z" /><path fill="#92d265" d="M34 33h1v1h-1z" /><path fill="#e6e16a" d="M35 33h1v1h-1z" /><path fill="#e4e677" d="M55 33h1v1h-1z" /><path fill="#a8e890" d="M56 33h1v1h-1z" /><path fill="#5ece6d" d="M59 33h1v1h-1z" /><path fill="#89d164" d="M32 34h1v1h-1z" /><path fill="#ebe16a" d="M33 34h1v1h-1z" /><path fill="#dee67a" d="M57 34h1v1h-1z" /><path fill="#98e893" d="M58 34h1v1h-1z" /><path fill="#53c862" d="M59 34h1v1h-1z" /><path fill="#62ca62" d="M30 35h1v1h-1zM69 45h1v1h-1z" /><path fill="#c0da68" d="M31 35h1v1h-1z" /><path fill="#fae56d" d="M58 35h1v1h-1z" /><path fill="#a3d566" d="M59 35h1v1h-1z" /><path fill="#54c861" d="M60 35h1v1h-1z" /><path fill="#7bce64" d="M29 36h1v1h-1zM63 38h1v1h-1z" /><path fill="#f0e26b" d="M30 36h1v1h-1z" /><path fill="#d6de69" d="M60 36h1v1h-1z" /><path fill="#61ca62" d="M61 36h1v1h-1z" /><path fill="#97d365" d="M28 37h1v1h-1z" /><path fill="#fce56c" d="M29 37h1v1h-1z" /><path fill="#ebe26b" d="M61 37h1v1h-1z" /><path fill="#75cd64" d="M62 37h1v1h-1z" /><path fill="#b1d867" d="M27 38h1v1h-1z" /><path fill="#ffd654" d="M38 38h1v1h-1z" /><path fill="#ffca40" d="M39 38h1v1h-1z" /><path fill="#ffdc5f" d="M40 38h1v1h-1z" /><path fill="#ffda59" d="M50 38h1v1h-1z" /><path fill="#ffca3f" d="M51 38h1v1h-1z" /><path fill="#ffd959" d="M52 38h1v1h-1zM49 39h1v1h-1zM48 40h1v1h-1zM47 41h1v1h-1zM46 42h1v1h-1zM42 46h1v1h-1zM41 47h1v1h-1z" /><path fill="#f7e36c" d="M62 38h1v1h-1zM64 40h1v1h-1z" /><path fill="#add667" d="M26 39h1v1h-1z" /><path fill="#ffcf49" d="M38 39h1v1h-1z" /><path fill="#ffc73b" d="M39 39h1v1h-1zM51 39h1v1h-1zM40 40h1v1h-1zM50 40h1v1h-1zM41 41h1v1h-1zM49 41h1v1h-1zM42 42h1v1h-1zM48 42h1v1h-1zM43 43h1v1h-1zM47 43h1v1h-1zM44 44h3v1h-3zM45 45h1v1h-1zM44 46h1v1h-1zM46 46h1v1h-1zM43 47h1v1h-1zM47 47h1v1h-1zM42 48h1v1h-1zM48 48h1v1h-1zM41 49h1v1h-1zM49 49h1v1h-1z" /><path fill="#ffc83c" d="M40 39h1v1h-1zM49 48h1v1h-1z" /><path fill="#ffdc5e" d="M41 39h1v1h-1z" /><path fill="#ffc73c" d="M50 39h1v1h-1zM49 40h1v1h-1zM48 41h1v1h-1zM47 42h1v1h-1zM46 43h1v1h-1zM44 45h1v1h-1zM46 45h1v1h-1zM43 46h1v1h-1zM42 47h1v1h-1zM41 48h1v1h-1z" /><path fill="#ffd34f" d="M52 39h1v1h-1z" /><path fill="#f8e46c" d="M63 39h1v1h-1z" /><path fill="#7ece64" d="M64 39h1v1h-1z" /><path fill="#afd767" d="M25 40h1v1h-1z" /><path fill="#ffe268" d="M38 40h1v1h-1zM39 41h1v1h-1zM40 42h1v1h-1zM41 43h1v1h-1zM42 44h1v1h-1z" /><path fill="#ffcc43" d="M39 40h1v1h-1zM40 41h1v1h-1zM41 42h1v1h-1zM42 43h1v1h-1zM43 44h1v1h-1zM46 47h1v1h-1z" /><path fill="#ffc73d" d="M41 40h1v1h-1zM42 41h1v1h-1zM43 42h1v1h-1zM44 43h1v1h-1zM47 46h1v1h-1zM48 47h1v1h-1z" /><path fill="#ffdc5d" d="M42 40h1v1h-1zM43 41h1v1h-1zM44 42h1v1h-1zM48 46h1v1h-1zM49 47h1v1h-1z" /><path fill="#ffcd45" d="M51 40h1v1h-1zM50 41h1v1h-1zM49 42h1v1h-1zM48 43h1v1h-1zM47 44h1v1h-1zM44 47h1v1h-1z" /><path fill="#ffe369" d="M52 40h1v1h-1zM51 41h1v1h-1zM50 42h1v1h-1zM49 43h1v1h-1zM48 44h1v1h-1zM44 48h1v1h-1zM43 49h1v1h-1zM42 50h1v1h-1z" /><path fill="#78cd64" d="M65 40h1v1h-1z" /><path fill="#efe26b" d="M65 41h1v1h-1z" /><path fill="#66cb63" d="M66 41h1v1h-1z" /><path fill="#ffe56b" d="M24 42h1v1h-1zM23 43h1v1h-1zM20 47h1v1h-1zM20 48h1v1h-1zM17 54h1v1h-1zM16 58h1v1h-1zM15 61h1v1h-1zM15 62h1v1h-1zM75 63h1v1h-1zM76 72h1v1h-1zM14 74h1v1h-1zM14 75h1v1h-1zM61 79h1v1h-1zM16 84h1v1h-1zM74 84h1v1h-1zM59 86h1v1h-1zM18 89h1v1h-1zM20 91h1v1h-1zM70 91h1v1h-1zM69 92h1v1h-1zM23 94h1v1h-1zM67 94h1v1h-1zM58 98h1v1h-1zM38 99h2v1h-2zM44 99h1v1h-1zM50 99h1v1h-1zM52 99h1v1h-1z" /><path fill="#dedf6a" d="M66 42h1v1h-1z" /><path fill="#59c862" d="M67 42h1v1h-1z" /><path fill="#ffd350" d="M45 43h1v1h-1z" /><path fill="#bfda68" d="M67 43h1v1h-1zM69 46h1v1h-1z" /><path fill="#8bd065" d="M68 44h1v1h-1z" /><path fill="#ffd857" d="M43 45h1v1h-1zM49 50h1v1h-1z" /><path fill="#ffda5b" d="M47 45h1v1h-1zM40 48h1v1h-1z" /><path fill="#f1e36c" d="M68 45h1v1h-1z" /><path fill="#ffe46c" d="M21 46h1v1h-1zM69 47h1v1h-1zM18 51h1v1h-1zM72 52h1v1h-1zM17 55h1v1h-1zM74 58h1v1h-1zM14 67h1v1h-1zM14 70h1v1h-1zM14 76h1v1h-1zM30 78h1v1h-1zM18 88h1v1h-1zM72 88h1v1h-1zM21 92h1v1h-1zM68 93h1v1h-1zM27 96h1v1h-1zM29 97h1v1h-1zM33 98h1v1h-1zM41 99h1v1h-1zM47 99h2v1h-2z" /><path fill="#ffc83d" d="M45 46h1v1h-1z" /><path fill="#ffe165" d="M45 47h1v1h-1z" /><path fill="#ffcd46" d="M43 48h1v1h-1zM42 49h1v1h-1z" /><path fill="#ffe267" d="M46 48h1v1h-1zM47 49h1v1h-1zM48 50h1v1h-1z" /><path fill="#ffcb42" d="M47 48h1v1h-1zM48 49h1v1h-1z" /><path fill="#ffdd60" d="M50 48h1v1h-1z" /><path fill="#ffe46b" d="M19 49h1v1h-1zM19 50h1v1h-1zM71 50h1v1h-1zM18 52h1v1h-1zM16 57h1v1h-1zM74 59h1v1h-1zM75 64h1v1h-1zM14 68h1v1h-1zM14 69h1v1h-1zM14 71h1v1h-1zM14 72h1v1h-1zM36 75h1v1h-1zM75 79h1v1h-1zM75 80h1v1h-1zM15 81h1v1h-1zM32 81h1v1h-1zM75 81h1v1h-1zM15 82h1v1h-1zM60 85h1v1h-1zM66 85h1v1h-1zM38 89h1v1h-1zM71 89h1v1h-1zM66 94h1v1h-1zM25 95h1v1h-1zM63 96h1v1h-1zM32 98h1v1h-1zM56 98h2v1h-2zM40 99h1v1h-1zM42 99h1v1h-1zM51 99h1v1h-1z" /><path fill="#ffd14b" d="M40 49h1v1h-1z" /><path fill="#ffd451" d="M50 49h1v1h-1z" /><path fill="#ffe166" d="M40 50h1v1h-1z" /><path fill="#ffd958" d="M41 50h1v1h-1z" /><path fill="#ffe368" d="M50 50h1v1h-1z" /><path fill="#ffea88" d="M28 53h1v1h-1zM25 57h1v1h-1zM25 59h1v1h-1z" /><path fill="#fff7d2" d="M29 53h1v1h-1z" /><path fill="#fffae3" d="M30 53h1v1h-1zM56 64h1v1h-1z" /><path fill="#fffae4" d="M31 53h1v1h-1z" /><path fill="#fff8d9" d="M32 53h1v1h-1z" /><path fill="#ffec94" d="M33 53h1v1h-1z" /><path fill="#fff3bb" d="M27 54h1v1h-1zM56 54h1v1h-1z" /><path fill="#fcfaf1" d="M28 54h1v1h-1z" /><path fill="#fcfcfb" d="M29 54h1v1h-1z" /><path fill="#e8e8e6" d="M30 54h1v1h-1z" /><path fill="#e7e7e5" d="M31 54h1v1h-1z" /><path fill="#f9f9f7" d="M32 54h1v1h-1z" /><path fill="#fcfaf4" d="M33 54h1v1h-1z" /><path fill="#fff6cd" d="M34 54h1v1h-1z" /><path fill="#ffe56d" d="M35 54h1v1h-1zM25 56h1v1h-1zM54 64h1v1h-1z" /><path fill="#ffe77a" d="M55 54h1v1h-1z" /><path fill="#fff9dc" d="M57 54h2v1h-2z" /><path fill="#fff5c5" d="M59 54h1v1h-1z" /><path fill="#ffe980" d="M60 54h1v1h-1z" /><path fill="#ffefa7" d="M26 55h1v1h-1zM54 55h1v1h-1z" /><path fill="#fcfbf5" d="M27 55h1v1h-1z" /><path fill="#e6e6e5" d="M28 55h1v1h-1z" /><path fill="#7c7c7c" d="M29 55h1v1h-1zM34 58h1v1h-1z" /><path fill="#131313" d="M30 55h1v1h-1zM60 61h1v1h-1z" /><path fill="#0e0e0e" d="M31 55h1v1h-1zM58 59h1v1h-1z" /><path fill="#666666" d="M32 55h1v1h-1z" /><path fill="#dfdfdf" d="M33 55h1v1h-1z" /><path fill="#fcfcf9" d="M34 55h1v1h-1z" /><path fill="#fff4c1" d="M35 55h1v1h-1z" /><path fill="#fdfbed" d="M55 55h1v1h-1z" /><path fill="#ffffff" d="M56 55h1v1h-1zM29 57h1v1h-1zM29 58h1v1h-1zM35 58h1v1h-1zM56 58h1v1h-1zM56 59h1v1h-1zM62 59h1v1h-1z" /><path fill="#f4f3f2" d="M57 55h1v1h-1z" /><path fill="#f2f2f0" d="M58 55h1v1h-1z" /><path fill="#fefefe" d="M59 55h1v1h-1zM61 62h1v1h-1z" /><path fill="#fcfaef" d="M60 55h1v1h-1zM62 61h1v1h-1z" /><path fill="#fff3ba" d="M61 55h1v1h-1z" /><path fill="#fffbe9" d="M26 56h1v1h-1z" /><path fill="#efefee" d="M27 56h1v1h-1z" /><path fill="#5f5f5f" d="M28 56h1v1h-1z" /><path fill="#888888" d="M29 56h1v1h-1z" /><path fill="#4d4d4d" d="M30 56h1v1h-1z" /><path fill="#000000" d="M31 56h2v1h-2zM32 57h2v1h-2zM58 57h2v1h-2zM32 58h2v1h-2zM59 58h2v1h-2zM31 59h3v1h-3zM59 59h2v1h-2zM29 60h4v1h-4zM58 60h3v1h-3zM56 61h4v1h-4zM57 62h2v1h-2z" /><path fill="#2b2b2b" d="M33 56h1v1h-1zM59 62h1v1h-1z" /><path fill="#e5e5e4" d="M34 56h1v1h-1zM60 56h1v1h-1z" /><path fill="#fdfaed" d="M35 56h1v1h-1z" /><path fill="#ffe776" d="M36 56h1v1h-1z" /><path fill="#ffed98" d="M53 56h1v1h-1z" /><path fill="#fcfaf2" d="M54 56h1v1h-1z" /><path fill="#edeceb" d="M55 56h1v1h-1z" /><path fill="#a3a3a3" d="M56 56h1v1h-1z" /><path fill="#343434" d="M57 56h1v1h-1z" /><path fill="#2f2f2f" d="M58 56h1v1h-1z" /><path fill="#8f8f8f" d="M59 56h1v1h-1z" /><path fill="#fbfaf5" d="M61 56h1v1h-1zM53 60h1v1h-1z" /><path fill="#fff1b1" d="M62 56h1v1h-1z" /><path fill="#fbfaf3" d="M26 57h1v1h-1z" /><path fill="#c9c9c9" d="M27 57h1v1h-1z" /><path fill="#a5a5a5" d="M28 57h1v1h-1z" /><path fill="#fbfbfb" d="M30 57h1v1h-1z" /><path fill="#141414" d="M31 57h1v1h-1z" /><path fill="#adadad" d="M34 57h1v1h-1z" /><path fill="#fefefd" d="M35 57h1v1h-1zM35 59h1v1h-1z" /><path fill="#ffeea2" d="M36 57h1v1h-1z" /><path fill="#fffae7" d="M53 57h1v1h-1z" /><path fill="#f5f4f3" d="M54 57h1v1h-1z" /><path fill="#717171" d="M55 57h1v1h-1z" /><path fill="#676767" d="M56 57h1v1h-1z" /><path fill="#323232" d="M57 57h1v1h-1z" /><path fill="#414141" d="M60 57h1v1h-1z" /><path fill="#eaeae9" d="M61 57h1v1h-1z" /><path fill="#fefaeb" d="M62 57h1v1h-1zM53 61h1v1h-1z" /><path fill="#ffe672" d="M63 57h1v1h-1z" /><path fill="#ffec96" d="M25 58h1v1h-1zM52 59h1v1h-1z" /><path fill="#fefdfc" d="M26 58h1v1h-1zM53 59h1v1h-1z" /><path fill="#b1b1b1" d="M27 58h1v1h-1z" /><path fill="#868686" d="M28 58h1v1h-1z" /><path fill="#e6e6e6" d="M30 58h1v1h-1z" /><path fill="#0a0a0a" d="M31 58h1v1h-1zM55 60h1v1h-1z" /><path fill="#fff2b8" d="M36 58h1v1h-1z" /><path fill="#ffe984" d="M52 58h1v1h-1z" /><path fill="#fbf9f1" d="M53 58h1v1h-1z" /><path fill="#cfcfcf" d="M54 58h1v1h-1z" /><path fill="#9b9b9b" d="M55 58h1v1h-1z" /><path fill="#f4f4f4" d="M57 58h1v1h-1z" /><path fill="#0f0f0f" d="M58 58h1v1h-1z" /><path fill="#b6b6b6" d="M61 58h1v1h-1z" /><path fill="#fdfdfb" d="M62 58h1v1h-1zM34 61h1v1h-1z" /><path fill="#ffee9b" d="M63 58h1v1h-1z" /><path fill="#fbf9f3" d="M26 59h1v1h-1z" /><path fill="#c7c7c7" d="M27 59h1v1h-1z" /><path fill="#020202" d="M28 59h1v1h-1z" /><path fill="#3c3c3c" d="M29 59h1v1h-1z" /><path fill="#151515" d="M30 59h1v1h-1z" /><path fill="#a8a8a8" d="M34 59h1v1h-1z" /><path fill="#ffefa4" d="M36 59h1v1h-1z" /><path fill="#b0b0b0" d="M54 59h1v1h-1z" /><path fill="#979797" d="M55 59h1v1h-1z" /><path fill="#f2f2f2" d="M57 59h1v1h-1z" /><path fill="#7f7f7f" d="M61 59h1v1h-1z" /><path fill="#fff2b7" d="M63 59h1v1h-1z" /><path fill="#ffe56e" d="M25 60h1v1h-1zM53 63h1v1h-1z" /><path fill="#fefbe9" d="M26 60h1v1h-1z" /><path fill="#ecebea" d="M27 60h1v1h-1z" /><path fill="#464646" d="M28 60h1v1h-1zM56 62h1v1h-1z" /><path fill="#1f1f1f" d="M33 60h1v1h-1z" /><path fill="#e3e3e2" d="M34 60h1v1h-1z" /><path fill="#fcfaed" d="M35 60h1v1h-1z" /><path fill="#ffe779" d="M36 60h1v1h-1z" /><path fill="#ffeb8c" d="M52 60h1v1h-1z" /><path fill="#c3c3c3" d="M54 60h1v1h-1z" /><path fill="#5d5d5d" d="M56 60h1v1h-1z" /><path fill="#2a2a2a" d="M57 60h1v1h-1z" /><path fill="#9f9f9f" d="M61 60h1v1h-1z" /><path fill="#fffffe" d="M62 60h1v1h-1z" /><path fill="#fff0a8" d="M63 60h1v1h-1zM55 64h1v1h-1z" /><path fill="#fff0ac" d="M26 61h1v1h-1z" /><path fill="#fbfaf6" d="M27 61h1v1h-1z" /><path fill="#e2e2e1" d="M28 61h1v1h-1zM31 62h1v1h-1z" /><path fill="#707070" d="M29 61h1v1h-1z" /><path fill="#080808" d="M30 61h1v1h-1z" /><path fill="#030303" d="M31 61h1v1h-1z" /><path fill="#505050" d="M32 61h1v1h-1z" /><path fill="#dcdcdc" d="M33 61h1v1h-1zM55 62h1v1h-1z" /><path fill="#fff5c6" d="M35 61h1v1h-1z" /><path fill="#ffe66f" d="M52 61h1v1h-1zM35 62h1v1h-1z" /><path fill="#e7e6e5" d="M54 61h1v1h-1z" /><path fill="#2e2e2e" d="M55 61h1v1h-1z" /><path fill="#dedede" d="M61 61h1v1h-1z" /><path fill="#ffe87d" d="M63 61h1v1h-1z" /><path fill="#fde174" d="M24 62h1v1h-1z" /><path fill="#f5ca9a" d="M25 62h1v1h-1zM65 65h1v1h-1z" /><path fill="#f1bfad" d="M26 62h1v1h-1z" /><path fill="#f9e3df" d="M27 62h1v1h-1z" /><path fill="#fbf7f7" d="M28 62h1v1h-1z" /><path fill="#f8f8f8" d="M29 62h1v1h-1z" /><path fill="#e4e4e2" d="M30 62h1v1h-1z" /><path fill="#f6f5f3" d="M32 62h1v1h-1z" /><path fill="#fcfaf6" d="M33 62h1v1h-1z" /><path fill="#fff8d5" d="M34 62h1v1h-1z" /><path fill="#fff3bc" d="M53 62h1v1h-1z" /><path fill="#fcfcfa" d="M54 62h1v1h-1z" /><path fill="#d2d2d2" d="M60 62h1v1h-1z" /><path fill="#fff7d0" d="M62 62h1v1h-1z" /><path fill="#ffe46e" d="M23 63h1v1h-1z" /><path fill="#ecb2c3" d="M24 63h1v1h-1z" /><path fill="#eaadcc" d="M25 63h3v1h-3zM25 64h7v1h-7zM62 64h1v1h-1zM27 65h4v1h-4zM57 65h1v1h-1zM59 65h6v1h-6zM58 66h6v1h-6z" /><path fill="#efc2d9" d="M28 63h1v1h-1z" /><path fill="#fae9f2" d="M29 63h1v1h-1z" /><path fill="#fbf1f6" d="M30 63h1v1h-1z" /><path fill="#fcf4f3" d="M31 63h1v1h-1z" /><path fill="#fff7de" d="M32 63h1v1h-1z" /><path fill="#ffee9e" d="M33 63h1v1h-1z" /><path fill="#827537" d="M39 63h1v1h-1z" /><path fill="#e4cd61" d="M40 63h1v1h-1z" /><path fill="#fff7d4" d="M54 63h1v1h-1z" /><path fill="#fcfbf8" d="M55 63h1v1h-1z" /><path fill="#f1f0ee" d="M56 63h1v1h-1z" /><path fill="#d7d7d7" d="M57 63h1v1h-1z" /><path fill="#d4d4d4" d="M58 63h1v1h-1z" /><path fill="#ebebea" d="M59 63h1v1h-1z" /><path fill="#fdfcfb" d="M60 63h1v1h-1z" /><path fill="#fdf4ea" d="M61 63h1v1h-1z" /><path fill="#f8d493" d="M62 63h1v1h-1z" /><path fill="#fddf77" d="M63 63h1v1h-1z" /><path fill="#ffe46d" d="M23 64h1v1h-1zM57 67h1v1h-1z" /><path fill="#edb6be" d="M24 64h1v1h-1z" /><path fill="#f1c0ad" d="M32 64h1v1h-1zM64 64h1v1h-1z" /><path fill="#443d1d" d="M39 64h1v1h-1z" /><path fill="#2d2813" d="M40 64h1v1h-1z" /><path fill="#dec75e" d="M41 64h1v1h-1z" /><path fill="#fde36b" d="M46 64h1v1h-1z" /><path fill="#93843e" d="M47 64h1v1h-1z" /><path fill="#7e7135" d="M48 64h1v1h-1z" /><path fill="#fcf7f3" d="M57 64h1v1h-1z" /><path fill="#faf4f7" d="M58 64h1v1h-1z" /><path fill="#fbf0f6" d="M59 64h1v1h-1z" /><path fill="#f5d7e6" d="M60 64h1v1h-1z" /><path fill="#eaafcd" d="M61 64h1v1h-1zM58 65h1v1h-1z" /><path fill="#eaadcb" d="M63 64h1v1h-1z" /><path fill="#fee273" d="M65 64h1v1h-1zM26 66h1v1h-1z" /><path fill="#fde075" d="M24 65h1v1h-1z" /><path fill="#f2c2a9" d="M25 65h1v1h-1z" /><path fill="#eaaeca" d="M26 65h1v1h-1z" /><path fill="#ebafc9" d="M31 65h1v1h-1z" /><path fill="#f7cf91" d="M32 65h1v1h-1z" /><path fill="#eed665" d="M39 65h1v1h-1z" /><path fill="#47401e" d="M40 65h1v1h-1z" /><path fill="#070603" d="M41 65h1v1h-1z" /><path fill="#544b24" d="M42 65h1v1h-1z" /><path fill="#8c7e3b" d="M43 65h1v1h-1z" /><path fill="#988840" d="M44 65h1v1h-1z" /><path fill="#786c33" d="M45 65h1v1h-1z" /><path fill="#262210" d="M46 65h1v1h-1z" /><path fill="#0f0d06" d="M47 65h1v1h-1z" /><path fill="#a69546" d="M48 65h1v1h-1z" /><path fill="#f8d48a" d="M56 65h1v1h-1z" /><path fill="#f9d588" d="M27 66h1v1h-1zM63 67h1v1h-1z" /><path fill="#f7ce92" d="M28 66h1v1h-1z" /><path fill="#f5cb98" d="M29 66h1v1h-1z" /><path fill="#f8d38c" d="M30 66h1v1h-1z" /><path fill="#fddf75" d="M31 66h1v1h-1z" /><path fill="#fee46c" d="M40 66h1v1h-1z" /><path fill="#b8a54e" d="M41 66h1v1h-1z" /><path fill="#62582a" d="M42 66h1v1h-1z" /><path fill="#373117" d="M43 66h1v1h-1z" /><path fill="#292511" d="M44 66h1v1h-1z" /><path fill="#453e1d" d="M45 66h1v1h-1z" /><path fill="#867839" d="M46 66h1v1h-1z" /><path fill="#e8d062" d="M47 66h1v1h-1z" /><path fill="#fee272" d="M56 66h1v1h-1z" /><path fill="#efbbb4" d="M57 66h1v1h-1z" /><path fill="#edb6bc" d="M64 66h1v1h-1z" /><path fill="#fcdd7a" d="M65 66h1v1h-1z" /><path fill="#fad784" d="M58 67h1v1h-1z" /><path fill="#f4c99c" d="M59 67h1v1h-1z" /><path fill="#f2c2a8" d="M60 67h1v1h-1z" /><path fill="#f2c1a9" d="M61 67h1v1h-1z" /><path fill="#f4c79f" d="M62 67h1v1h-1z" /><path fill="#fee46f" d="M64 67h1v1h-1z" /><path fill="#fde166" d="M20 73h1v1h-1zM67 73h1v1h-1zM34 85h1v1h-1z" /><path fill="#f2c746" d="M21 73h1v1h-1z" /><path fill="#f8d457" d="M22 73h1v1h-1zM69 73h1v1h-1zM26 83h1v1h-1zM53 88h1v1h-1zM34 89h1v1h-1z" /><path fill="#f3c747" d="M68 73h1v1h-1z" /><path fill="#f8d456" d="M20 74h1v1h-1zM23 74h1v1h-1z" /><path fill="#ecb732" d="M21 74h2v1h-2zM68 74h1v1h-1zM22 75h1v1h-1zM67 75h1v1h-1zM23 76h1v1h-1zM34 76h1v1h-1zM55 76h1v1h-1zM66 76h1v1h-1zM24 77h1v1h-1zM33 77h2v1h-2zM56 77h1v1h-1zM65 77h2v1h-2zM25 78h1v1h-1zM32 78h2v1h-2zM57 78h1v1h-1zM64 78h2v1h-2zM26 79h1v1h-1zM31 79h2v1h-2zM58 79h1v1h-1zM63 79h2v1h-2zM27 80h1v1h-1zM30 80h2v1h-2zM59 80h1v1h-1zM62 80h2v1h-2zM28 81h3v1h-3zM60 81h3v1h-3zM28 82h2v1h-2zM60 82h2v1h-2zM27 83h2v1h-2zM30 83h1v1h-1zM59 83h4v1h-4zM27 84h1v1h-1zM31 84h1v1h-1zM58 84h2v1h-2zM63 84h1v1h-1zM26 85h1v1h-1zM32 85h1v1h-1zM57 85h2v1h-2zM63 85h2v1h-2zM25 86h1v1h-1zM33 86h1v1h-1zM56 86h2v1h-2zM64 86h2v1h-2zM34 87h1v1h-1zM55 87h2v1h-2zM35 88h1v1h-1zM55 88h1v1h-1zM36 89h1v1h-1zM54 89h1v1h-1zM36 90h2v1h-2zM53 90h1v1h-1z" /><path fill="#fde167" d="M66 74h1v1h-1zM23 78h1v1h-1zM63 82h1v1h-1zM27 86h1v1h-1zM35 86h1v1h-1z" /><path fill="#efbf3c" d="M67 74h1v1h-1zM69 74h1v1h-1zM55 75h1v1h-1zM24 78h1v1h-1z" /><path fill="#fee36a" d="M20 75h1v1h-1zM63 77h1v1h-1z" /><path fill="#f0c140" d="M21 75h1v1h-1zM64 84h1v1h-1z" /><path fill="#ecb832" d="M23 75h1v1h-1zM24 76h1v1h-1zM67 76h1v1h-1zM26 84h1v1h-1zM62 84h1v1h-1zM53 89h1v1h-1z" /><path fill="#f8d557" d="M24 75h1v1h-1z" /><path fill="#fee268" d="M33 75h1v1h-1zM65 75h1v1h-1zM22 77h1v1h-1zM64 83h1v1h-1zM36 87h1v1h-1zM54 91h1v1h-1z" /><path fill="#f2c443" d="M34 75h1v1h-1zM65 85h1v1h-1z" /><path fill="#f2c645" d="M35 75h1v1h-1zM31 78h1v1h-1zM59 85h1v1h-1zM65 87h1v1h-1zM52 90h1v1h-1z" /><path fill="#f9d85b" d="M54 75h1v1h-1zM69 75h1v1h-1zM26 77h1v1h-1zM36 91h1v1h-1z" /><path fill="#f9d659" d="M56 75h1v1h-1zM25 76h1v1h-1zM25 84h1v1h-1zM33 88h1v1h-1zM37 91h1v1h-1z" /><path fill="#f0c03d" d="M66 75h1v1h-1zM23 77h1v1h-1zM63 83h1v1h-1zM27 85h1v1h-1z" /><path fill="#ecb733" d="M68 75h1v1h-1zM56 76h1v1h-1zM25 85h1v1h-1z" /><path fill="#fee369" d="M21 76h1v1h-1zM32 76h1v1h-1zM65 84h1v1h-1zM28 85h1v1h-1zM57 88h1v1h-1zM56 89h1v1h-1zM55 90h1v1h-1z" /><path fill="#f0c13e" d="M22 76h1v1h-1zM36 88h1v1h-1z" /><path fill="#f0c23f" d="M33 76h1v1h-1zM56 88h1v1h-1z" /><path fill="#ecb834" d="M35 76h1v1h-1zM25 77h1v1h-1z" /><path fill="#fee269" d="M36 76h1v1h-1zM64 76h1v1h-1zM37 88h1v1h-1z" /><path fill="#f4cb4b" d="M54 76h1v1h-1z" /><path fill="#f9d85c" d="M57 76h1v1h-1z" /><path fill="#f0c03e" d="M65 76h1v1h-1zM54 90h1v1h-1z" /><path fill="#f8d558" d="M68 76h1v1h-1z" /><path fill="#ffe46a" d="M31 77h1v1h-1zM62 78h1v1h-1z" /><path fill="#f1c442" d="M32 77h1v1h-1z" /><path fill="#f8d355" d="M35 77h1v1h-1zM67 77h1v1h-1zM54 87h1v1h-1z" /><path fill="#fee168" d="M54 77h1v1h-1zM66 87h1v1h-1z" /><path fill="#efbf3b" d="M55 77h1v1h-1zM26 86h1v1h-1z" /><path fill="#edb934" d="M57 77h1v1h-1zM26 78h1v1h-1zM27 79h1v1h-1z" /><path fill="#fad95d" d="M58 77h1v1h-1z" /><path fill="#f1c341" d="M64 77h1v1h-1zM57 87h1v1h-1z" /><path fill="#fada5d" d="M27 78h1v1h-1z" /><path fill="#f6d052" d="M34 78h1v1h-1zM65 79h1v1h-1z" /><path fill="#fde066" d="M55 78h1v1h-1zM24 79h1v1h-1z" /><path fill="#eebd3a" d="M56 78h1v1h-1zM26 80h1v1h-1z" /><path fill="#edba35" d="M58 78h1v1h-1zM28 80h1v1h-1zM59 81h1v1h-1zM30 84h1v1h-1z" /><path fill="#fbdb60" d="M59 78h1v1h-1z" /><path fill="#f1c543" d="M63 78h1v1h-1z" /><path fill="#f7d354" d="M66 78h1v1h-1zM62 85h1v1h-1zM35 90h1v1h-1z" /><path fill="#efbe39" d="M25 79h1v1h-1z" /><path fill="#fad95e" d="M28 79h1v1h-1z" /><path fill="#f3c949" d="M30 79h1v1h-1z" /><path fill="#f5ce4f" d="M33 79h1v1h-1z" /><path fill="#fcdf64" d="M56 79h1v1h-1zM26 81h1v1h-1z" /><path fill="#eebb38" d="M57 79h1v1h-1zM60 80h1v1h-1zM27 81h1v1h-1z" /><path fill="#edbb36" d="M59 79h1v1h-1z" /><path fill="#fcdd62" d="M60 79h1v1h-1zM57 80h1v1h-1z" /><path fill="#f2c544" d="M62 79h1v1h-1zM59 82h1v1h-1zM58 86h1v1h-1z" /><path fill="#fde065" d="M25 80h1v1h-1zM26 87h1v1h-1z" /><path fill="#f3c746" d="M29 80h1v1h-1z" /><path fill="#f4ca4b" d="M32 80h1v1h-1z" /><path fill="#edba36" d="M58 80h1v1h-1zM62 82h1v1h-1z" /><path fill="#f2c444" d="M61 80h1v1h-1z" /><path fill="#f6cf51" d="M64 80h1v1h-1zM63 86h1v1h-1z" /><path fill="#f3c848" d="M31 81h1v1h-1z" /><path fill="#fbdc60" d="M58 81h1v1h-1z" /><path fill="#f5ce4e" d="M63 81h1v1h-1z" /><path fill="#f5cd4e" d="M27 82h1v1h-1z" /><path fill="#edb933" d="M30 82h1v1h-1z" /><path fill="#fcdd61" d="M31 82h1v1h-1z" /><path fill="#ecb833" d="M29 83h1v1h-1zM34 88h1v1h-1zM54 88h1v1h-1zM35 89h1v1h-1z" /><path fill="#eebc38" d="M31 83h1v1h-1z" /><path fill="#fcde65" d="M32 83h1v1h-1z" /><path fill="#f5cc4c" d="M58 83h1v1h-1z" /><path fill="#f0c13f" d="M28 84h1v1h-1zM55 89h1v1h-1z" /><path fill="#fada5e" d="M29 84h1v1h-1z" /><path fill="#eebc39" d="M32 84h1v1h-1z" /><path fill="#fddf64" d="M33 84h1v1h-1zM52 91h1v1h-1z" /><path fill="#f5cd4d" d="M57 84h1v1h-1z" /><path fill="#f3c847" d="M60 84h1v1h-1z" /><path fill="#f9d658" d="M61 84h1v1h-1z" /><path fill="#fad75b" d="M24 85h1v1h-1z" /><path fill="#fbda5f" d="M30 85h1v1h-1z" /><path fill="#edb935" d="M31 85h1v1h-1z" /><path fill="#efbd3a" d="M33 85h1v1h-1z" /><path fill="#f6ce50" d="M56 85h1v1h-1z" /><path fill="#efbe3b" d="M24 86h1v1h-1zM34 86h1v1h-1z" /><path fill="#fad95c" d="M31 86h1v1h-1z" /><path fill="#edb833" d="M32 86h1v1h-1z" /><path fill="#f7d153" d="M55 86h1v1h-1z" /><path fill="#f9d75a" d="M66 86h1v1h-1z" /><path fill="#f7d254" d="M24 87h1v1h-1z" /><path fill="#f2c644" d="M25 87h1v1h-1z" /><path fill="#fad85c" d="M32 87h1v1h-1z" /><path fill="#edb834" d="M33 87h1v1h-1z" /><path fill="#efbf3d" d="M35 87h1v1h-1z" /><path fill="#fee46b" d="M58 87h1v1h-1z" /><path fill="#f7d152" d="M64 87h1v1h-1zM53 91h1v1h-1z" /><path fill="#f1c240" d="M37 89h1v1h-1z" /><path fill="#f9d65a" d="M52 89h1v1h-1z" /><path fill="#fddf65" d="M38 90h1v1h-1z" /></svg>