<svg xmlns="http://www.w3.org/2000/svg" viewBox="0 0 100 100" width="1em" height="1em"><path fill="#e72163" d="M44 0h1v1h-1zM59 1h1v1h-1zM62 2h1v1h-1zM77 12h1v1h-1zM15 24h1v1h-1zM49 25h1v1h-1zM86 29h1v1h-1zM13 31h1v1h-1zM13 33h1v1h-1zM57 46h1v1h-1zM81 56h1v1h-1z" /><path fill="#e72264" d="M45 0h1v1h-1zM40 1h1v1h-1zM42 1h16v1h-16zM60 1h1v1h-1zM39 2h23v1h-23zM36 3h29v1h-29zM33 4h34v1h-34zM31 5h37v1h-37zM69 5h1v1h-1zM30 6h41v1h-41zM29 7h44v1h-44zM28 8h45v1h-45zM26 9h48v1h-48zM25 10h51v1h-51zM24 11h52v1h-52zM23 12h54v1h-54zM22 13h56v1h-56zM22 14h57v1h-57zM21 15h59v1h-59zM20 16h60v1h-60zM19 17h62v1h-62zM19 18h63v1h-63zM18 19h64v1h-64zM18 20h65v1h-65zM17 21h66v1h-66zM17 22h67v1h-67zM16 23h68v1h-68zM16 24h69v1h-69zM16 25h32v1h-32zM51 25h34v1h-34zM15 26h30v1h-30zM56 26h29v1h-29zM14 27h29v1h-29zM57 27h29v1h-29zM15 28h27v1h-27zM59 28h27v1h-27zM14 29h27v1h-27zM60 29h26v1h-26zM14 30h26v1h-26zM59 30h27v1h-27zM14 31h26v1h-26zM60 31h27v1h-27zM13 32h26v1h-26zM61 32h26v1h-26zM14 33h25v1h-25zM61 33h26v1h-26zM14 34h25v1h-25zM61 34h26v1h-26zM14 35h25v1h-25zM62 35h25v1h-25zM14 36h24v1h-24zM62 36h25v1h-25zM14 37h24v1h-24zM62 37h25v1h-25zM14 38h24v1h-24zM62 38h25v1h-25zM14 39h24v1h-24zM62 39h25v1h-25zM14 40h24v1h-24zM62 40h25v1h-25zM14 41h24v1h-24zM62 41h25v1h-25zM14 42h24v1h-24zM61 42h26v1h-26zM14 43h22v1h-22zM61 43h26v1h-26zM14 44h18v1h-18zM60 44h26v1h-26zM14 45h15v1h-15zM59 45h27v1h-27zM14 46h13v1h-13zM58 46h28v1h-28zM14 47h11v1h-11zM56 47h29v1h-29zM14 48h9v1h-9zM54 48h31v1h-31zM14 49h8v1h-8zM34 49h51v1h-51zM14 50h6v1h-6zM31 50h53v1h-53zM14 51h5v1h-5zM28 51h56v1h-56zM14 52h4v1h-4zM26 52h58v1h-58zM14 53h3v1h-3zM25 53h58v1h-58zM14 54h2v1h-2zM23 54h60v1h-60zM14 55h1v1h-1zM22 55h60v1h-60zM21 56h60v1h-60zM20 57h61v1h-61zM19 58h61v1h-61zM18 59h62v1h-62zM18 60h60v1h-60zM17 61h61v1h-61zM16 62h61v1h-61zM16 63h60v1h-60zM15 64h60v1h-60zM15 65h58v1h-58zM15 66h57v1h-57zM14 67h57v1h-57zM14 68h56v1h-56zM14 69h53v1h-53zM14 70h51v1h-51zM66 70h1v1h-1zM14 71h51v1h-51zM14 72h46v1h-46zM14 73h41v1h-41zM56 73h1v1h-1zM14 74h8v1h-8zM14 75h5v1h-5zM14 76h4v1h-4zM14 77h3v1h-3zM14 78h2v1h-2zM14 79h1v1h-1z" /><path fill="#e72164" d="M46 0h1v1h-1zM48 0h1v1h-1zM52 0h1v1h-1zM55 0h1v1h-1zM41 1h1v1h-1zM37 2h1v1h-1zM65 3h1v1h-1zM67 4h1v1h-1zM21 14h1v1h-1zM50 25h1v1h-1zM43 27h1v1h-1zM14 28h1v1h-1zM38 36h1v1h-1zM87 36h1v1h-1zM60 42h1v1h-1zM86 45h1v1h-1zM53 48h1v1h-1zM85 48h1v1h-1zM80 58h1v1h-1zM65 70h1v1h-1zM61 72h1v1h-1zM13 78h1v1h-1zM13 79h1v1h-1zM13 80h1v1h-1zM13 81h1v1h-1z" /><path fill="#e62164" d="M47 0h1v1h-1zM54 0h1v1h-1zM28 7h1v1h-1zM24 10h1v1h-1zM22 12h1v1h-1zM79 14h1v1h-1zM18 18h1v1h-1zM82 19h1v1h-1zM83 21h1v1h-1zM39 32h1v1h-1zM59 44h1v1h-1zM83 53h1v1h-1zM75 64h1v1h-1z" /><path fill="#e72263" d="M49 0h1v1h-1zM51 0h1v1h-1zM53 0h1v1h-1zM29 6h1v1h-1zM76 11h1v1h-1zM19 16h1v1h-1zM17 20h1v1h-1zM84 23h1v1h-1zM54 26h1v1h-1zM85 26h1v1h-1zM56 27h1v1h-1zM13 36h1v1h-1zM38 37h1v1h-1zM38 38h1v1h-1zM38 39h1v1h-1zM38 40h1v1h-1zM38 41h1v1h-1zM38 42h1v1h-1zM68 69h1v1h-1z" /><path fill="#e62264" d="M50 0h1v1h-1zM35 3h1v1h-1zM68 5h1v1h-1zM73 8h1v1h-1zM80 16h1v1h-1zM83 20h1v1h-1zM85 25h1v1h-1zM41 29h1v1h-1zM59 29h1v1h-1zM40 30h1v1h-1zM86 30h1v1h-1zM36 43h1v1h-1zM32 44h1v1h-1zM29 45h1v1h-1zM85 47h1v1h-1zM23 48h1v1h-1zM20 50h1v1h-1zM82 55h1v1h-1zM78 60h1v1h-1zM77 62h1v1h-1zM76 63h1v1h-1zM73 65h1v1h-1zM57 73h1v1h-1z" /><path fill="#e62263" d="M58 1h1v1h-1zM74 9h1v1h-1zM23 11h1v1h-1zM78 13h1v1h-1zM20 15h1v1h-1zM81 17h1v1h-1zM42 28h1v1h-1zM13 37h1v1h-1zM61 40h1v1h-1zM61 41h1v1h-1zM86 44h1v1h-1zM58 45h1v1h-1zM55 47h1v1h-1zM84 51h1v1h-1zM60 72h1v1h-1z" /><path fill="#e62163" d="M38 2h1v1h-1zM63 2h1v1h-1zM27 8h1v1h-1zM16 22h1v1h-1zM15 25h1v1h-1zM48 25h1v1h-1zM45 26h1v1h-1zM55 26h1v1h-1zM58 28h1v1h-1zM13 34h1v1h-1zM13 35h1v1h-1zM87 37h1v1h-1zM13 38h1v1h-1zM13 39h1v1h-1zM13 40h1v1h-1zM13 41h1v1h-1zM13 42h1v1h-1zM13 43h1v1h-1zM60 43h1v1h-1zM13 44h1v1h-1zM13 45h1v1h-1zM13 46h1v1h-1zM13 47h1v1h-1zM13 48h1v1h-1zM51 48h2v1h-2zM13 49h1v1h-1zM13 50h1v1h-1zM84 50h1v1h-1zM13 51h1v1h-1zM13 52h1v1h-1zM13 53h1v1h-1zM13 54h1v1h-1zM13 55h1v1h-1zM13 56h1v1h-1zM72 66h1v1h-1zM71 67h1v1h-1zM67 69h1v1h-1zM13 73h1v1h-1zM55 73h1v1h-1zM13 74h1v1h-1zM13 75h1v1h-1zM13 76h1v1h-1zM13 77h1v1h-1z" /><path fill="#e52263" d="M37 43h1v1h-1zM27 46h1v1h-1zM25 47h1v1h-1zM19 51h1v1h-1zM14 56h1v1h-1z" /><path fill="#e62262" d="M38 43h1v1h-1z" /><path fill="#e42263" d="M33 44h1v1h-1z" /><path fill="#e02161" d="M34 44h1v1h-1zM28 46h1v1h-1zM26 47h1v1h-1zM24 48h1v1h-1zM21 50h1v1h-1z" /><path fill="#df2161" d="M35 44h1v1h-1zM31 45h1v1h-1z" /><path fill="#dd2060" d="M36 44h1v1h-1zM20 51h1v1h-1zM14 57h1v1h-1z" /><path fill="#dc205f" d="M37 44h1v1h-1zM32 45h1v1h-1zM29 46h1v1h-1zM23 49h1v1h-1zM19 52h1v1h-1zM15 56h1v1h-1z" /><path fill="#db205e" d="M38 44h1v1h-1z" /><path fill="#e32263" d="M30 45h1v1h-1zM22 49h1v1h-1zM18 52h1v1h-1zM17 53h1v1h-1zM16 54h1v1h-1zM15 55h1v1h-1z" /><path fill="#d91f5e" d="M33 45h1v1h-1zM22 50h1v1h-1z" /><path fill="#d61f5d" d="M34 45h1v1h-1zM14 58h1v1h-1z" /><path fill="#d41f5d" d="M35 45h1v1h-1zM31 46h1v1h-1zM26 48h1v1h-1zM15 57h1v1h-1z" /><path fill="#d21e5b" d="M36 45h1v1h-1zM32 46h1v1h-1zM29 47h1v1h-1zM23 50h1v1h-1zM19 53h1v1h-1zM18 54h1v1h-1zM17 55h1v1h-1zM16 56h1v1h-1z" /><path fill="#d11e5b" d="M37 45h1v1h-1z" /><path fill="#cf205a" d="M38 45h1v1h-1z" /><path fill="#d81f5d" d="M30 46h1v1h-1z" /><path fill="#ce1e5a" d="M33 46h1v1h-1zM22 51h1v1h-1z" /><path fill="#cb1d59" d="M34 46h1v1h-1zM24 50h1v1h-1z" /><path fill="#c91d58" d="M35 46h1v1h-1zM26 49h1v1h-1zM20 53h1v1h-1z" /><path fill="#c81c57" d="M36 46h1v1h-1zM31 47h1v1h-1zM19 54h1v1h-1zM18 55h1v1h-1zM17 56h1v1h-1zM14 60h1v1h-1z" /><path fill="#c61c57" d="M37 46h1v1h-1z" /><path fill="#c41f57" d="M38 46h1v1h-1z" /><path fill="#da205f" d="M27 47h1v1h-1zM17 54h1v1h-1z" /><path fill="#d51f5d" d="M28 47h1v1h-1zM24 49h1v1h-1zM21 51h1v1h-1z" /><path fill="#cd1d59" d="M30 47h1v1h-1zM15 58h1v1h-1z" /><path fill="#c51c57" d="M32 47h1v1h-1zM29 48h1v1h-1zM15 59h1v1h-1z" /><path fill="#c31b55" d="M33 47h1v1h-1zM27 49h1v1h-1zM16 58h1v1h-1z" /><path fill="#c01b55" d="M34 47h1v1h-1zM30 48h1v1h-1zM24 51h1v1h-1zM20 54h1v1h-1zM18 56h1v1h-1zM17 57h1v1h-1z" /><path fill="#be1a53" d="M35 47h1v1h-1zM31 48h1v1h-1zM28 49h1v1h-1zM26 50h1v1h-1zM15 60h1v1h-1z" /><path fill="#bd1a53" d="M36 47h1v1h-1zM14 62h1v1h-1z" /><path fill="#bc1a53" d="M37 47h1v1h-1zM23 52h1v1h-1zM16 59h1v1h-1z" /><path fill="#bc1f54" d="M38 47h1v1h-1z" /><path fill="#db205f" d="M25 48h1v1h-1zM18 53h1v1h-1zM16 55h1v1h-1z" /><path fill="#cf1e5b" d="M27 48h1v1h-1zM25 49h1v1h-1zM14 59h1v1h-1z" /><path fill="#ca1d59" d="M28 48h1v1h-1zM16 57h1v1h-1z" /><path fill="#bb1952" d="M32 48h3v1h-3zM29 49h2v1h-2zM27 50h1v1h-1zM25 51h1v1h-1zM24 52h1v1h-1zM22 53h1v1h-1zM21 54h1v1h-1zM20 55h1v1h-1zM19 56h1v1h-1zM18 57h1v1h-1zM17 58h1v1h-1zM16 60h1v1h-1zM15 61h1v1h-1zM15 62h1v1h-1zM14 63h1v1h-1zM14 64h1v1h-1z" /><path fill="#c21952" d="M35 48h1v1h-1zM28 50h1v1h-1zM26 51h1v1h-1zM23 53h1v1h-1zM17 59h1v1h-1z" /><path fill="#ca1f58" d="M36 48h2v1h-2zM31 49h1v1h-1zM22 54h1v1h-1zM18 58h1v1h-1zM14 65h1v1h-1z" /><path fill="#d12159" d="M38 48h1v1h-1z" /><path fill="#ce225b" d="M32 49h1v1h-1zM29 50h1v1h-1zM25 52h1v1h-1zM21 55h1v1h-1zM20 56h1v1h-1zM19 57h1v1h-1zM16 61h1v1h-1zM15 63h1v1h-1zM37 92h1v1h-1z" /><path fill="#de2264" d="M33 49h1v1h-1zM30 50h1v1h-1zM24 53h1v1h-1zM17 60h1v1h-1z" /><path fill="#c41c56" d="M25 50h1v1h-1zM22 52h1v1h-1z" /><path fill="#c71c57" d="M23 51h1v1h-1z" /><path fill="#d5225b" d="M27 51h1v1h-1zM14 66h1v1h-1z" /><path fill="#d31f5c" d="M20 52h1v1h-1z" /><path fill="#cc1d59" d="M21 52h1v1h-1z" /><path fill="#c11b55" d="M21 53h1v1h-1z" /><path fill="#bf1b54" d="M19 55h1v1h-1z" /><path fill="#e52163" d="M13 57h1v1h-1z" /><path fill="#de2060" d="M13 58h1v1h-1z" /><path fill="#d81f5e" d="M13 59h1v1h-1z" /><path fill="#d11d5a" d="M13 60h1v1h-1z" /><path fill="#ca1c58" d="M13 61h1v1h-1z" /><path fill="#c21b55" d="M14 61h1v1h-1z" /><path fill="#c41b56" d="M13 62h1v1h-1z" /><path fill="#be1a54" d="M13 63h1v1h-1z" /><path fill="#bc1952" d="M13 64h1v1h-1z" /><path fill="#ba1851" d="M13 65h1v1h-1zM13 66h1v1h-1zM13 67h1v1h-1z" /><path fill="#c91f58" d="M13 68h1v1h-1z" /><path fill="#cf215a" d="M13 69h1v1h-1z" /><path fill="#d4215a" d="M13 70h1v1h-1z" /><path fill="#dd2163" d="M13 71h1v1h-1zM13 72h1v1h-1z" /><path fill="#ce2259" d="M22 74h1v1h-1z" /><path fill="#b5194d" d="M23 74h1v1h-1z" /><path fill="#a6194a" d="M24 74h1v1h-1z" /><path fill="#9f1946" d="M25 74h13v1h-13z" /><path fill="#a41746" d="M38 74h1v1h-1z" /><path fill="#dd2264" d="M19 75h1v1h-1z" /><path fill="#af194d" d="M20 75h1v1h-1z" /><path fill="#8a183d" d="M21 75h1v1h-1zM19 76h1v1h-1z" /><path fill="#83173a" d="M22 75h16v1h-16zM20 76h3v1h-3zM18 77h1v1h-1zM17 78h1v1h-1z" /><path fill="#88143d" d="M38 75h1v1h-1z" /><path fill="#c21f56" d="M18 76h1v1h-1z" /><path fill="#84173b" d="M23 76h1v1h-1zM19 77h1v1h-1z" /><path fill="#85173b" d="M24 76h14v1h-14zM16 79h1v1h-1z" /><path fill="#8a153e" d="M38 76h1v1h-1z" /><path fill="#aa184b" d="M17 77h1v1h-1z" /><path fill="#86183c" d="M20 77h1v1h-1z" /><path fill="#89183d" d="M21 77h1v1h-1zM15 80h1v1h-1z" /><path fill="#8c183e" d="M22 77h1v1h-1zM17 79h1v1h-1z" /><path fill="#8d183e" d="M23 77h1v1h-1zM19 78h1v1h-1z" /><path fill="#8d193f" d="M24 77h14v1h-14z" /><path fill="#901641" d="M38 77h1v1h-1z" /><path fill="#a6184b" d="M16 78h1v1h-1z" /><path fill="#88183c" d="M18 78h1v1h-1z" /><path fill="#901940" d="M20 78h1v1h-1z" /><path fill="#931941" d="M21 78h1v1h-1z" /><path fill="#951a42" d="M22 78h2v1h-2z" /><path fill="#961a42" d="M24 78h14v1h-14z" /><path fill="#9a1846" d="M38 78h1v1h-1z" /><path fill="#b7194e" d="M15 79h1v1h-1z" /><path fill="#921941" d="M18 79h1v1h-1z" /><path fill="#971a42" d="M19 79h1v1h-1z" /><path fill="#9a1a44" d="M20 79h1v1h-1z" /><path fill="#9d1b45" d="M21 79h1v1h-1zM16 81h1v1h-1z" /><path fill="#9e1b46" d="M22 79h1v1h-1z" /><path fill="#a01b46" d="M23 79h1v1h-1z" /><path fill="#a11b47" d="M24 79h14v1h-14z" /><path fill="#a4194a" d="M38 79h1v1h-1z" /><path fill="#d4225c" d="M14 80h1v1h-1z" /><path fill="#911940" d="M16 80h1v1h-1z" /><path fill="#971a44" d="M17 80h1v1h-1z" /><path fill="#9e1b45" d="M18 80h1v1h-1z" /><path fill="#a21b47" d="M19 80h1v1h-1z" /><path fill="#a41c49" d="M20 80h1v1h-1z" /><path fill="#a91c4b" d="M21 80h2v1h-2z" /><path fill="#aa1c4b" d="M23 80h15v1h-15zM18 81h1v1h-1zM16 82h1v1h-1z" /><path fill="#ad1c4d" d="M38 80h1v1h-1z" /><path fill="#a41a48" d="M14 81h1v1h-1z" /><path fill="#941942" d="M15 81h1v1h-1z" /><path fill="#a31b49" d="M17 81h1v1h-1z" /><path fill="#ad1d4d" d="M19 81h1v1h-1z" /><path fill="#b21d4f" d="M20 81h1v1h-1z" /><path fill="#b31d4f" d="M21 81h1v1h-1z" /><path fill="#b41e50" d="M22 81h1v1h-1z" /><path fill="#b51e50" d="M23 81h1v1h-1z" /><path fill="#b61e50" d="M24 81h14v1h-14z" /><path fill="#b71e51" d="M38 81h1v1h-1zM18 82h1v1h-1zM14 84h1v1h-1z" /><path fill="#dd2162" d="M13 82h1v1h-1z" /><path fill="#951a43" d="M14 82h1v1h-1z" /><path fill="#a11b48" d="M15 82h1v1h-1z" /><path fill="#b11d4f" d="M17 82h1v1h-1zM15 83h1v1h-1z" /><path fill="#bb1e53" d="M19 82h1v1h-1z" /><path fill="#bd1f54" d="M20 82h1v1h-1z" /><path fill="#be2054" d="M21 82h1v1h-1zM17 83h1v1h-1z" /><path fill="#c02056" d="M22 82h1v1h-1z" /><path fill="#c22056" d="M23 82h15v1h-15z" /><path fill="#c31f56" d="M38 82h1v1h-1z" /><path fill="#c21d55" d="M13 83h1v1h-1z" /><path fill="#a61c49" d="M14 83h1v1h-1z" /><path fill="#b91e52" d="M16 83h1v1h-1z" /><path fill="#c32057" d="M18 83h1v1h-1z" /><path fill="#c62058" d="M19 83h1v1h-1zM16 84h1v1h-1zM13 86h1v1h-1z" /><path fill="#c82159" d="M20 83h1v1h-1zM15 93h1v1h-1zM16 95h1v1h-1z" /><path fill="#c92159" d="M21 83h17v1h-17zM17 84h21v1h-21zM15 85h23v1h-23zM14 86h24v1h-24zM13 87h25v1h-25zM14 88h24v1h-24zM14 89h24v1h-24zM13 90h25v1h-25zM14 91h23v1h-23zM15 92h22v1h-22zM16 93h20v1h-20zM16 94h20v1h-20zM17 95h18v1h-18zM18 96h16v1h-16zM19 97h13v1h-13zM20 98h10v1h-10zM25 99h1v1h-1z" /><path fill="#ca2159" d="M38 83h1v1h-1zM38 84h1v1h-1zM38 85h1v1h-1zM38 86h1v1h-1z" /><path fill="#bc1d52" d="M13 84h1v1h-1z" /><path fill="#c02055" d="M15 84h1v1h-1z" /><path fill="#c01f56" d="M13 85h1v1h-1z" /><path fill="#c52057" d="M14 85h1v1h-1z" /><path fill="#cc2059" d="M38 87h1v1h-1z" /><path fill="#c9215a" d="M13 88h1v1h-1z" /><path fill="#cc205a" d="M38 88h1v1h-1z" /><path fill="#c92158" d="M13 89h1v1h-1zM24 99h1v1h-1z" /><path fill="#cf225b" d="M38 89h1v1h-1z" /><path fill="#cb2159" d="M37 91h1v1h-1z" /><path fill="#c72158" d="M14 92h1v1h-1z" /><path fill="#ca225a" d="M36 93h1v1h-1zM15 94h1v1h-1z" /><path fill="#cd1f5a" d="M35 95h1v1h-1z" /><path fill="#ca2258" d="M17 96h1v1h-1zM22 99h1v1h-1z" /><path fill="#ce215a" d="M34 96h1v1h-1z" /><path fill="#ca215a" d="M18 97h1v1h-1zM28 99h1v1h-1z" /><path fill="#c82059" d="M32 97h1v1h-1z" /><path fill="#c82158" d="M30 98h1v1h-1z" /><path fill="#cb225a" d="M31 98h1v1h-1z" /><path fill="#c82058" d="M23 99h1v1h-1z" /><path fill="#c92259" d="M26 99h1v1h-1z" /><path fill="#ca2059" d="M27 99h1v1h-1z" /></svg>