<svg xmlns="http://www.w3.org/2000/svg" viewBox="0 0 100 100" width="1em" height="1em"><path fill="#229628" d="M43 18h1v1h-1z" /><path fill="#1e8e22" d="M44 18h1v1h-1zM47 20h1v1h-1zM48 21h1v1h-1zM58 44h1v1h-1zM55 57h1v1h-1zM59 57h1v1h-1zM50 63h1v1h-1zM46 75h1v1h-1z" /><path fill="#229527" d="M45 18h1v1h-1z" /><path fill="#1d8d22" d="M43 19h3v1h-3zM43 20h4v1h-4zM43 21h5v1h-5zM42 22h8v1h-8zM42 23h9v1h-9zM41 24h12v1h-12zM41 25h13v1h-13zM41 26h15v1h-15zM40 27h18v1h-18zM40 28h20v1h-20zM40 29h23v1h-23zM39 30h27v1h-27zM39 31h27v1h-27zM39 32h27v1h-27zM39 33h27v1h-27zM38 34h27v1h-27zM38 35h27v1h-27zM38 36h27v1h-27zM38 37h27v1h-27zM37 38h10v1h-10zM53 38h11v1h-11zM37 39h8v1h-8zM55 39h9v1h-9zM37 40h7v1h-7zM56 40h8v1h-8zM37 41h6v1h-6zM57 41h7v1h-7zM37 42h6v1h-6zM58 42h5v1h-5zM37 43h8v1h-8zM58 43h5v1h-5zM37 44h12v1h-12zM59 44h4v1h-4zM37 45h15v1h-15zM59 45h4v1h-4zM36 46h20v1h-20zM59 46h3v1h-3zM36 47h26v1h-26zM36 48h26v1h-26zM36 49h25v1h-25zM36 50h25v1h-25zM36 51h25v1h-25zM36 52h25v1h-25zM36 53h24v1h-24zM36 54h24v1h-24zM37 55h8v1h-8zM49 55h11v1h-11zM37 56h8v1h-8zM52 56h8v1h-8zM37 57h9v1h-9zM56 57h3v1h-3zM37 58h9v1h-9zM37 59h10v1h-10zM37 60h10v1h-10zM38 61h10v1h-10zM38 62h11v1h-11zM38 63h12v1h-12zM39 64h13v1h-13zM39 65h15v1h-15zM39 66h17v1h-17zM40 67h17v1h-17zM41 68h16v1h-16zM41 69h15v1h-15zM42 70h14v1h-14zM42 71h14v1h-14zM43 72h13v1h-13zM44 73h11v1h-11zM45 74h10v1h-10zM47 75h8v1h-8zM48 76h7v1h-7zM50 77h4v1h-4zM53 78h1v1h-1z" /><path fill="#1f9023" d="M46 19h1v1h-1zM56 26h1v1h-1z" /><path fill="#229326" d="M42 20h1v1h-1z" /><path fill="#2a5b47" d="M41 21h1v1h-1z" /><path fill="#1e8d23" d="M42 21h1v1h-1zM61 49h1v1h-1z" /><path fill="#239929" d="M49 21h1v1h-1z" /><path fill="#2d4551" d="M40 22h1v1h-1zM7 37h1v1h-1zM47 40h1v1h-1zM76 49h1v1h-1zM10 51h1v1h-1zM79 52h1v1h-1zM54 60h1v1h-1zM64 63h1v1h-1zM21 68h1v1h-1zM26 71h1v1h-1zM44 78h1v1h-1zM46 79h1v1h-1zM55 82h1v1h-1z" /><path fill="#248c2b" d="M41 22h1v1h-1z" /><path fill="#219325" d="M50 22h1v1h-1z" /><path fill="#2d4950" d="M40 23h1v1h-1z" /><path fill="#1e9023" d="M41 23h1v1h-1zM51 23h1v1h-1zM64 38h1v1h-1z" /><path fill="#2d4552" d="M39 24h1v1h-1zM39 25h1v1h-1zM38 27h1v1h-1zM7 38h1v1h-1zM47 39h6v1h-6zM50 40h4v1h-4zM8 41h1v1h-1zM52 41h4v1h-4zM8 42h1v1h-1zM54 42h2v1h-2zM8 43h1v1h-1zM55 43h2v1h-2zM26 44h1v1h-1zM55 44h2v1h-2zM56 45h2v1h-2zM9 46h1v1h-1zM72 46h4v1h-4zM70 47h1v1h-1zM73 47h5v1h-5zM76 48h3v1h-3zM10 49h1v1h-1zM77 49h3v1h-3zM78 50h3v1h-3zM78 51h3v1h-3zM11 52h1v1h-1zM80 52h2v1h-2zM12 54h1v1h-1zM35 55h1v1h-1zM12 56h1v1h-1zM34 56h2v1h-2zM46 56h2v1h-2zM13 57h1v1h-1zM34 57h2v1h-2zM47 57h5v1h-5zM34 58h2v1h-2zM49 58h6v1h-6zM34 59h2v1h-2zM52 59h7v1h-7zM15 60h1v1h-1zM56 60h6v1h-6zM15 61h1v1h-1zM59 61h7v1h-7zM16 62h1v1h-1zM63 62h7v1h-7zM16 63h2v1h-2zM66 63h5v1h-5zM19 66h1v1h-1zM22 68h1v1h-1zM23 69h1v1h-1zM25 70h1v1h-1zM27 71h1v1h-1zM40 71h1v1h-1zM31 72h3v1h-3zM39 72h3v1h-3zM39 73h4v1h-4zM41 74h2v1h-2zM42 75h3v1h-3zM43 76h3v1h-3zM44 77h4v1h-4zM45 78h4v1h-4zM47 79h5v1h-5zM67 79h1v1h-1zM49 80h8v1h-8zM64 80h1v1h-1zM53 81h9v1h-9zM59 82h1v1h-1z" /><path fill="#277939" d="M40 24h1v1h-1z" /><path fill="#209526" d="M53 24h1v1h-1zM46 43h1v1h-1z" /><path fill="#219027" d="M40 25h1v1h-1zM51 78h1v1h-1z" /><path fill="#1e8f23" d="M54 25h1v1h-1zM58 27h1v1h-1zM66 30h1v1h-1zM65 34h1v1h-1zM49 62h1v1h-1zM56 66h1v1h-1z" /><path fill="#229927" d="M55 25h1v1h-1z" /><path fill="#2d4451" d="M38 26h1v1h-1zM7 36h1v1h-1zM46 40h1v1h-1zM51 41h1v1h-1zM54 43h1v1h-1zM8 44h1v1h-1zM18 46h1v1h-1zM72 47h1v1h-1zM74 48h1v1h-1zM48 58h1v1h-1zM50 59h1v1h-1zM55 60h1v1h-1zM22 69h1v1h-1zM35 72h1v1h-1zM38 72h1v1h-1zM43 77h1v1h-1zM65 80h1v1h-1zM50 81h1v1h-1zM62 81h1v1h-1zM57 82h1v1h-1z" /><path fill="#2c4c4f" d="M39 26h1v1h-1zM78 47h1v1h-1zM66 61h1v1h-1zM71 77h1v1h-1z" /><path fill="#1e8e23" d="M40 26h1v1h-1zM60 28h1v1h-1zM45 43h1v1h-1zM36 55h1v1h-1zM52 78h1v1h-1z" /><path fill="#229a27" d="M57 26h1v1h-1z" /><path fill="#267b38" d="M39 27h1v1h-1z" /><path fill="#229727" d="M59 27h1v1h-1zM50 44h1v1h-1z" /><path fill="#374652" d="M38 28h1v1h-1z" /><path fill="#348b2c" d="M39 28h1v1h-1z" /><path fill="#219527" d="M61 28h1v1h-1zM43 42h1v1h-1zM60 54h1v1h-1z" /><path fill="#8e4b4a" d="M37 29h1v1h-1z" /><path fill="#c04d43" d="M38 29h1v1h-1z" /><path fill="#2a8a25" d="M39 29h1v1h-1z" /><path fill="#1f8f23" d="M63 29h1v1h-1zM48 61h1v1h-1zM41 70h1v1h-1z" /><path fill="#239725" d="M64 29h1v1h-1z" /><path fill="#e1574c" d="M36 30h1v1h-1zM34 31h1v1h-1z" /><path fill="#c34c42" d="M37 30h1v1h-1zM34 43h1v1h-1zM34 54h1v1h-1zM35 65h1v1h-1z" /><path fill="#b55540" d="M38 30h1v1h-1z" /><path fill="#2dad33" d="M67 30h1v1h-1zM91 43h1v1h-1zM88 52h1v1h-1zM82 64h1v1h-1zM82 65h1v1h-1zM63 67h1v1h-1zM78 70h1v1h-1zM77 71h1v1h-1z" /><path fill="#e2574c" d="M35 31h1v1h-1zM33 32h3v1h-3zM30 33h6v1h-6zM30 34h5v1h-5zM30 35h5v1h-5zM30 36h5v1h-5zM31 37h4v1h-4zM31 38h3v1h-3zM31 39h3v1h-3zM31 40h3v1h-3zM32 41h2v1h-2zM32 42h2v1h-2zM32 43h2v1h-2zM32 44h1v1h-1z" /><path fill="#db554a" d="M36 31h1v1h-1z" /><path fill="#c04b41" d="M37 31h1v1h-1zM37 32h1v1h-1zM36 34h1v1h-1zM36 35h1v1h-1zM36 36h1v1h-1zM36 37h1v1h-1zM35 38h1v1h-1zM35 39h1v1h-1zM35 40h1v1h-1zM35 41h1v1h-1zM35 42h1v1h-1zM35 43h1v1h-1zM34 44h2v1h-2zM34 45h2v1h-2zM34 46h1v1h-1zM34 47h1v1h-1zM34 48h1v1h-1zM34 49h1v1h-1zM34 50h1v1h-1zM34 51h1v1h-1zM34 52h1v1h-1zM34 53h1v1h-1zM35 61h2v1h-2zM35 62h2v1h-2zM35 63h2v1h-2zM35 64h2v1h-2zM36 65h2v1h-2zM36 66h2v1h-2zM36 67h3v1h-3zM37 68h2v1h-2zM37 69h3v1h-3zM38 70h1v1h-1z" /><path fill="#836c38" d="M38 31h1v1h-1z" /><path fill="#219626" d="M66 31h1v1h-1z" /><path fill="#2ead33" d="M67 31h3v1h-3zM89 31h4v1h-4zM67 32h26v1h-26zM67 33h26v1h-26zM66 34h27v1h-27zM66 35h26v1h-26zM66 36h26v1h-26zM66 37h26v1h-26zM65 38h27v1h-27zM65 39h27v1h-27zM65 40h27v1h-27zM65 41h26v1h-26zM64 42h27v1h-27zM64 43h27v1h-27zM64 44h27v1h-27zM64 45h7v1h-7zM77 45h13v1h-13zM63 46h6v1h-6zM79 46h11v1h-11zM63 47h5v1h-5zM80 47h10v1h-10zM63 48h4v1h-4zM81 48h9v1h-9zM63 49h3v1h-3zM82 49h8v1h-8zM62 50h6v1h-6zM69 50h1v1h-1zM82 50h7v1h-7zM62 51h10v1h-10zM82 51h7v1h-7zM62 52h13v1h-13zM83 52h5v1h-5zM62 53h17v1h-17zM83 53h5v1h-5zM61 54h26v1h-26zM61 55h26v1h-26zM61 56h26v1h-26zM60 57h26v1h-26zM60 58h26v1h-26zM63 59h22v1h-22zM66 60h19v1h-19zM70 61h14v1h-14zM73 62h11v1h-11zM73 63h10v1h-10zM72 64h10v1h-10zM70 65h12v1h-12zM67 66h14v1h-14zM58 67h3v1h-3zM64 67h16v1h-16zM58 68h22v1h-22zM57 69h22v1h-22zM57 70h21v1h-21zM57 71h20v1h-20zM57 72h19v1h-19zM56 73h19v1h-19zM56 74h18v1h-18zM56 75h17v1h-17zM56 76h15v1h-15zM55 77h14v1h-14zM55 78h12v1h-12zM57 79h6v1h-6z" /><path fill="#2dac32" d="M70 31h1v1h-1zM71 45h1v1h-1zM90 45h1v1h-1zM90 46h1v1h-1zM68 50h1v1h-1zM75 52h1v1h-1zM61 53h1v1h-1zM84 61h1v1h-1zM81 66h1v1h-1zM79 69h1v1h-1zM75 73h1v1h-1zM56 79h1v1h-1zM63 79h1v1h-1z" /><path fill="#2ead32" d="M71 31h1v1h-1zM73 31h1v1h-1zM86 31h1v1h-1zM92 37h1v1h-1zM91 42h1v1h-1zM87 55h1v1h-1z" /><path fill="#2dad32" d="M72 31h1v1h-1zM91 41h1v1h-1zM85 59h1v1h-1z" /><path fill="#2dac33" d="M87 31h2v1h-2zM69 46h1v1h-1zM81 49h1v1h-1zM89 50h1v1h-1zM72 51h2v1h-2zM76 52h1v1h-1zM79 53h1v1h-1zM62 59h1v1h-1zM83 63h1v1h-1zM76 72h1v1h-1z" /><path fill="#e1574b" d="M31 32h1v1h-1z" /><path fill="#e2564c" d="M32 32h1v1h-1z" /><path fill="#d15147" d="M36 32h1v1h-1z" /><path fill="#43832b" d="M38 32h1v1h-1z" /><path fill="#269e2a" d="M66 32h1v1h-1z" /><path fill="#db5449" d="M27 33h1v1h-1zM29 35h1v1h-1z" /><path fill="#d95349" d="M28 33h1v1h-1zM8 34h1v1h-1zM22 34h1v1h-1zM34 39h1v1h-1z" /><path fill="#e1584c" d="M29 33h1v1h-1z" /><path fill="#c64d43" d="M36 33h1v1h-1zM35 37h1v1h-1z" /><path fill="#c14d41" d="M37 33h1v1h-1z" /><path fill="#208d24" d="M38 33h1v1h-1z" /><path fill="#2aa62f" d="M66 33h1v1h-1zM60 56h1v1h-1z" /><path fill="#d65348" d="M9 34h3v1h-3zM25 34h4v1h-4zM8 35h21v1h-21zM9 36h20v1h-20zM9 37h21v1h-21zM9 38h21v1h-21zM9 39h21v1h-21zM9 40h21v1h-21zM9 41h22v1h-22zM10 42h21v1h-21zM10 43h15v1h-15zM29 43h2v1h-2zM10 44h12v1h-12zM29 44h3v1h-3zM10 45h8v1h-8zM28 45h4v1h-4zM11 46h5v1h-5zM28 46h4v1h-4zM11 47h6v1h-6zM27 47h5v1h-5zM11 48h7v1h-7zM26 48h7v1h-7zM12 49h21v1h-21zM12 50h21v1h-21zM12 51h21v1h-21zM13 52h20v1h-20zM13 53h20v1h-20zM13 54h20v1h-20zM14 55h18v1h-18zM15 56h16v1h-16zM15 57h14v1h-14zM16 58h12v1h-12zM16 59h11v1h-11zM17 60h10v1h-10zM18 61h8v1h-8zM18 62h8v1h-8zM32 62h2v1h-2zM19 63h7v1h-7zM28 63h6v1h-6zM20 64h14v1h-14zM21 65h14v1h-14zM22 66h13v1h-13zM23 67h12v1h-12zM24 68h12v1h-12zM26 69h10v1h-10zM28 70h9v1h-9zM33 71h1v1h-1zM35 71h1v1h-1z" /><path fill="#d85348" d="M12 34h1v1h-1zM24 34h1v1h-1zM17 47h1v1h-1zM28 58h1v1h-1z" /><path fill="#d95448" d="M13 34h1v1h-1zM33 61h1v1h-1z" /><path fill="#da5449" d="M14 34h1v1h-1zM30 39h1v1h-1z" /><path fill="#da5349" d="M15 34h1v1h-1z" /><path fill="#d95449" d="M16 34h1v1h-1zM31 43h1v1h-1zM33 46h1v1h-1z" /><path fill="#da5549" d="M17 34h1v1h-1z" /><path fill="#da534a" d="M20 34h1v1h-1zM24 48h1v1h-1z" /><path fill="#db5349" d="M21 34h1v1h-1z" /><path fill="#d85349" d="M23 34h1v1h-1zM32 47h1v1h-1zM26 63h1v1h-1z" /><path fill="#de564a" d="M29 34h1v1h-1z" /><path fill="#df554b" d="M35 34h1v1h-1z" /><path fill="#b0583f" d="M37 34h1v1h-1z" /><path fill="#2c4551" d="M7 35h1v1h-1zM7 39h1v1h-1zM22 45h1v1h-1zM71 47h1v1h-1zM11 54h1v1h-1zM51 59h1v1h-1zM28 72h1v1h-1zM63 80h1v1h-1zM66 80h1v1h-1z" /><path fill="#d65248" d="M35 35h1v1h-1z" /><path fill="#886a38" d="M37 35h1v1h-1z" /><path fill="#229627" d="M65 35h1v1h-1zM59 58h1v1h-1z" /><path fill="#2eac33" d="M92 35h1v1h-1zM92 38h1v1h-1zM66 49h1v1h-1zM87 54h1v1h-1zM86 57h1v1h-1zM62 67h1v1h-1zM80 67h1v1h-1z" /><path fill="#d25349" d="M8 36h1v1h-1zM9 42h1v1h-1z" /><path fill="#d75449" d="M29 36h1v1h-1z" /><path fill="#cd5046" d="M35 36h1v1h-1z" /><path fill="#537f2e" d="M37 36h1v1h-1z" /><path fill="#279f2c" d="M65 36h1v1h-1z" /><path fill="#2eac32" d="M92 36h1v1h-1zM76 45h1v1h-1zM61 67h1v1h-1zM69 77h1v1h-1z" /><path fill="#c7534a" d="M8 37h1v1h-1z" /><path fill="#e1564c" d="M30 37h1v1h-1z" /><path fill="#278c25" d="M37 37h1v1h-1z" /><path fill="#2ba730" d="M65 37h1v1h-1z" /><path fill="#b4504b" d="M8 38h1v1h-1z" /><path fill="#dd564a" d="M30 38h1v1h-1z" /><path fill="#e0574b" d="M34 38h1v1h-1zM31 41h1v1h-1z" /><path fill="#be4e42" d="M36 38h1v1h-1z" /><path fill="#209125" d="M47 38h1v1h-1zM45 39h1v1h-1zM47 55h1v1h-1zM45 56h1v1h-1zM58 58h1v1h-1z" /><path fill="#248c2d" d="M48 38h1v1h-1z" /><path fill="#258334" d="M49 38h1v1h-1zM57 43h1v1h-1z" /><path fill="#268034" d="M50 38h1v1h-1zM36 59h1v1h-1z" /><path fill="#238d2d" d="M51 38h1v1h-1z" /><path fill="#209226" d="M52 38h1v1h-1z" /><path fill="#934e4d" d="M8 39h1v1h-1z" /><path fill="#b0573f" d="M36 39h1v1h-1z" /><path fill="#296b3f" d="M46 39h1v1h-1z" /><path fill="#286444" d="M53 39h1v1h-1z" /><path fill="#229126" d="M54 39h1v1h-1zM58 45h1v1h-1z" /><path fill="#239827" d="M64 39h1v1h-1z" /><path fill="#2c4552" d="M7 40h1v1h-1zM48 40h1v1h-1zM75 48h1v1h-1zM10 50h1v1h-1zM77 50h1v1h-1zM11 53h1v1h-1zM17 64h1v1h-1zM20 67h1v1h-1zM41 75h1v1h-1zM42 76h1v1h-1zM52 81h1v1h-1zM63 81h1v1h-1zM58 82h1v1h-1z" /><path fill="#57484f" d="M8 40h1v1h-1z" /><path fill="#d75349" d="M30 40h1v1h-1zM30 62h1v1h-1z" /><path fill="#d35248" d="M34 40h1v1h-1z" /><path fill="#95633b" d="M36 40h1v1h-1z" /><path fill="#239029" d="M44 40h1v1h-1z" /><path fill="#2c4850" d="M45 40h1v1h-1zM68 48h1v1h-1z" /><path fill="#2d4452" d="M49 40h1v1h-1zM53 42h1v1h-1zM27 44h1v1h-1zM9 48h1v1h-1zM14 59h1v1h-1zM57 61h1v1h-1zM69 64h1v1h-1zM34 72h1v1h-1zM48 80h1v1h-1zM51 81h1v1h-1z" /><path fill="#2d4752" d="M54 40h1v1h-1zM47 58h1v1h-1zM43 74h1v1h-1zM49 78h1v1h-1z" /><path fill="#248b2d" d="M55 40h1v1h-1z" /><path fill="#28a02d" d="M64 40h1v1h-1z" /><path fill="#cd5045" d="M34 41h1v1h-1z" /><path fill="#767136" d="M36 41h1v1h-1z" /><path fill="#229229" d="M43 41h1v1h-1z" /><path fill="#238f2a" d="M56 41h1v1h-1zM50 56h1v1h-1zM36 58h1v1h-1z" /><path fill="#2ca831" d="M64 41h1v1h-1z" /><path fill="#dd554b" d="M31 42h1v1h-1z" /><path fill="#c84e43" d="M34 42h1v1h-1zM34 62h1v1h-1z" /><path fill="#587c30" d="M36 42h1v1h-1z" /><path fill="#2d4a50" d="M56 42h1v1h-1z" /><path fill="#1e9124" d="M57 42h1v1h-1z" /><path fill="#1f9124" d="M63 42h1v1h-1zM56 46h1v1h-1zM36 56h1v1h-1z" /><path fill="#b7514b" d="M9 43h1v1h-1z" /><path fill="#d75348" d="M25 43h1v1h-1zM16 46h1v1h-1zM33 47h1v1h-1zM25 48h1v1h-1zM14 56h1v1h-1zM15 58h1v1h-1zM26 61h1v1h-1zM31 62h1v1h-1zM27 63h1v1h-1z" /><path fill="#d05349" d="M26 43h1v1h-1zM12 52h1v1h-1zM27 70h1v1h-1z" /><path fill="#ab504c" d="M27 43h1v1h-1z" /><path fill="#cd5249" d="M28 43h1v1h-1zM36 71h1v1h-1z" /><path fill="#41832a" d="M36 43h1v1h-1z" /><path fill="#239927" d="M47 43h1v1h-1z" /><path fill="#249929" d="M63 43h1v1h-1zM51 63h1v1h-1z" /><path fill="#7b4c4e" d="M9 44h1v1h-1z" /><path fill="#d45349" d="M22 44h1v1h-1zM10 46h1v1h-1zM32 55h1v1h-1z" /><path fill="#ba524b" d="M23 44h1v1h-1z" /><path fill="#744b4e" d="M24 44h1v1h-1z" /><path fill="#2f4551" d="M25 44h1v1h-1z" /><path fill="#d55348" d="M28 44h1v1h-1zM27 59h1v1h-1z" /><path fill="#e0564b" d="M33 44h1v1h-1z" /><path fill="#318826" d="M36 44h1v1h-1z" /><path fill="#209225" d="M49 44h1v1h-1zM46 58h1v1h-1zM56 69h1v1h-1z" /><path fill="#2c4451" d="M54 44h1v1h-1zM12 55h1v1h-1zM14 60h1v1h-1zM34 60h1v1h-1zM65 63h1v1h-1zM29 72h1v1h-1z" /><path fill="#2b4b4f" d="M57 44h1v1h-1zM52 79h1v1h-1z" /><path fill="#28a12d" d="M63 44h1v1h-1z" /><path fill="#354451" d="M9 45h1v1h-1z" /><path fill="#d65349" d="M18 45h1v1h-1zM27 46h1v1h-1zM11 49h1v1h-1zM29 57h1v1h-1zM34 71h1v1h-1z" /><path fill="#c1524b" d="M19 45h1v1h-1z" /><path fill="#804c4e" d="M20 45h1v1h-1zM15 59h1v1h-1z" /><path fill="#334450" d="M21 45h1v1h-1z" /><path fill="#744a4e" d="M27 45h1v1h-1z" /><path fill="#df564b" d="M32 45h1v1h-1z" /><path fill="#dd554a" d="M33 45h1v1h-1z" /><path fill="#238b23" d="M36 45h1v1h-1z" /><path fill="#1d8e23" d="M52 45h1v1h-1zM47 60h1v1h-1z" /><path fill="#219525" d="M53 45h1v1h-1z" /><path fill="#219727" d="M54 45h1v1h-1z" /><path fill="#2a5a48" d="M55 45h1v1h-1z" /><path fill="#2caa31" d="M63 45h1v1h-1z" /><path fill="#2c9e37" d="M72 45h1v1h-1z" /><path fill="#2d933a" d="M73 45h1v1h-1z" /><path fill="#2e923b" d="M74 45h1v1h-1z" /><path fill="#2ea235" d="M75 45h1v1h-1z" /><path fill="#4c4852" d="M17 46h1v1h-1z" /><path fill="#db5549" d="M32 46h1v1h-1z" /><path fill="#c04c41" d="M35 46h1v1h-1z" /><path fill="#228e2c" d="M57 46h1v1h-1z" /><path fill="#219227" d="M58 46h1v1h-1zM36 57h1v1h-1z" /><path fill="#209224" d="M62 46h1v1h-1z" /><path fill="#2c7841" d="M70 46h1v1h-1z" /><path fill="#2d4750" d="M71 46h1v1h-1z" /><path fill="#2c4950" d="M76 46h1v1h-1z" /><path fill="#2d7842" d="M77 46h1v1h-1z" /><path fill="#2eab32" d="M78 46h1v1h-1z" /><path fill="#2c4452" d="M9 47h1v1h-1zM13 58h1v1h-1zM58 61h1v1h-1zM61 62h2v1h-2zM68 64h1v1h-1zM18 65h1v1h-1zM24 70h1v1h-1zM30 72h1v1h-1zM36 72h1v1h-1zM40 74h1v1h-1zM68 79h1v1h-1zM56 82h1v1h-1z" /><path fill="#b4514a" d="M10 47h1v1h-1z" /><path fill="#d55448" d="M26 47h1v1h-1z" /><path fill="#be4e41" d="M35 47h1v1h-1z" /><path fill="#259b29" d="M62 47h1v1h-1z" /><path fill="#2da436" d="M68 47h1v1h-1zM67 48h1v1h-1z" /><path fill="#2c4d4f" d="M69 47h1v1h-1z" /><path fill="#2da036" d="M79 47h1v1h-1z" /><path fill="#554950" d="M10 48h1v1h-1z" /><path fill="#d65247" d="M18 48h1v1h-1z" /><path fill="#d9554a" d="M19 48h1v1h-1z" /><path fill="#d35247" d="M33 48h1v1h-1z" /><path fill="#ba5141" d="M35 48h1v1h-1z" /><path fill="#29a32e" d="M62 48h1v1h-1z" /><path fill="#2d4650" d="M79 48h1v1h-1z" /><path fill="#2ea535" d="M80 48h1v1h-1zM72 63h1v1h-1z" /><path fill="#cf5046" d="M33 49h1v1h-1zM36 69h1v1h-1z" /><path fill="#ba5241" d="M35 49h1v1h-1zM35 50h1v1h-1z" /><path fill="#2daa32" d="M62 49h1v1h-1z" /><path fill="#2e504f" d="M80 49h1v1h-1z" /><path fill="#ba504b" d="M11 50h1v1h-1z" /><path fill="#cd5044" d="M33 50h1v1h-1z" /><path fill="#219426" d="M61 50h1v1h-1zM54 77h1v1h-1z" /><path fill="#2d8c3d" d="M81 50h1v1h-1z" /><path fill="#4a4850" d="M11 51h1v1h-1z" /><path fill="#cb4f45" d="M33 51h1v1h-1z" /><path fill="#ba5341" d="M35 51h1v1h-1z" /><path fill="#249c2a" d="M61 51h1v1h-1z" /><path fill="#2d504e" d="M81 51h1v1h-1zM57 80h1v1h-1z" /><path fill="#ca4e44" d="M33 52h1v1h-1z" /><path fill="#bd5041" d="M35 52h1v1h-1z" /><path fill="#2aa42e" d="M61 52h1v1h-1z" /><path fill="#2ea834" d="M82 52h1v1h-1z" /><path fill="#814c4c" d="M12 53h1v1h-1z" /><path fill="#ca4f44" d="M33 53h1v1h-1zM33 54h1v1h-1zM35 66h1v1h-1z" /><path fill="#c04e42" d="M35 53h1v1h-1z" /><path fill="#1d8e22" d="M60 53h1v1h-1zM48 55h1v1h-1z" /><path fill="#2d9a39" d="M80 53h1v1h-1z" /><path fill="#2e7244" d="M81 53h1v1h-1z" /><path fill="#2e9c37" d="M82 53h1v1h-1z" /><path fill="#a15046" d="M35 54h1v1h-1z" /><path fill="#a7504d" d="M13 55h1v1h-1z" /><path fill="#8b4c4b" d="M33 55h1v1h-1z" /><path fill="#324552" d="M34 55h1v1h-1zM39 71h1v1h-1z" /><path fill="#238f29" d="M45 55h1v1h-1z" /><path fill="#24892f" d="M46 55h1v1h-1z" /><path fill="#259e2b" d="M60 55h1v1h-1z" /><path fill="#314552" d="M13 56h1v1h-1z" /><path fill="#a5504c" d="M31 56h1v1h-1z" /><path fill="#2b4c4e" d="M48 56h1v1h-1z" /><path fill="#27763a" d="M49 56h1v1h-1z" /><path fill="#1f9024" d="M51 56h1v1h-1z" /><path fill="#a64f4c" d="M14 57h1v1h-1z" /><path fill="#286d3f" d="M46 57h1v1h-1z" /><path fill="#2b5d48" d="M52 57h1v1h-1z" /><path fill="#258432" d="M53 57h1v1h-1z" /><path fill="#219126" d="M54 57h1v1h-1z" /><path fill="#314451" d="M14 58h1v1h-1z" /><path fill="#2c494f" d="M55 58h1v1h-1z" /><path fill="#286f3d" d="M56 58h1v1h-1z" /><path fill="#238d2c" d="M57 58h1v1h-1z" /><path fill="#239928" d="M47 59h1v1h-1z" /><path fill="#2c514e" d="M59 59h1v1h-1z" /><path fill="#2d7544" d="M60 59h1v1h-1z" /><path fill="#2d9b38" d="M61 59h1v1h-1z" /><path fill="#cd534a" d="M16 60h1v1h-1z" /><path fill="#d95549" d="M27 60h1v1h-1z" /><path fill="#63494e" d="M35 60h1v1h-1z" /><path fill="#8a5942" d="M36 60h1v1h-1z" /><path fill="#2d4450" d="M62 60h1v1h-1z" /><path fill="#2d5e4b" d="M63 60h1v1h-1z" /><path fill="#2d863e" d="M64 60h1v1h-1zM70 77h1v1h-1z" /><path fill="#2ea435" d="M65 60h1v1h-1z" /><path fill="#414650" d="M16 61h1v1h-1z" /><path fill="#d75248" d="M17 61h1v1h-1zM32 71h1v1h-1z" /><path fill="#c54e43" d="M34 61h1v1h-1z" /><path fill="#2e8926" d="M37 61h1v1h-1z" /><path fill="#2c7045" d="M67 61h1v1h-1z" /><path fill="#2e9739" d="M68 61h1v1h-1z" /><path fill="#2eab33" d="M69 61h1v1h-1z" /><path fill="#814c4e" d="M17 62h1v1h-1z" /><path fill="#da554a" d="M26 62h1v1h-1z" /><path fill="#db5448" d="M29 62h1v1h-1z" /><path fill="#667832" d="M37 62h1v1h-1z" /><path fill="#2e584b" d="M70 62h1v1h-1z" /><path fill="#2e823f" d="M71 62h1v1h-1z" /><path fill="#2ea434" d="M72 62h1v1h-1z" /><path fill="#ba514a" d="M18 63h1v1h-1z" /><path fill="#cc5046" d="M34 63h1v1h-1z" /><path fill="#a75c3e" d="M37 63h1v1h-1z" /><path fill="#2d4d4f" d="M71 63h1v1h-1z" /><path fill="#2f4552" d="M18 64h1v1h-1z" /><path fill="#ce5349" d="M19 64h1v1h-1z" /><path fill="#d35147" d="M34 64h1v1h-1z" /><path fill="#c14c41" d="M37 64h1v1h-1z" /><path fill="#258b24" d="M38 64h1v1h-1z" /><path fill="#209425" d="M52 64h1v1h-1z" /><path fill="#2d6547" d="M70 64h1v1h-1z" /><path fill="#2dab33" d="M71 64h1v1h-1zM69 65h1v1h-1z" /><path fill="#304552" d="M19 65h1v1h-1z" /><path fill="#d15249" d="M20 65h1v1h-1z" /><path fill="#697633" d="M38 65h1v1h-1z" /><path fill="#219526" d="M54 65h1v1h-1z" /><path fill="#394751" d="M20 66h1v1h-1zM28 71h1v1h-1z" /><path fill="#d35348" d="M21 66h1v1h-1zM31 71h1v1h-1z" /><path fill="#b85341" d="M38 66h1v1h-1z" /><path fill="#249c29" d="M57 66h1v1h-1z" /><path fill="#304451" d="M21 67h1v1h-1z" /><path fill="#cb5249" d="M22 67h1v1h-1z" /><path fill="#d25146" d="M35 67h1v1h-1z" /><path fill="#527e2e" d="M39 67h1v1h-1z" /><path fill="#28a22d" d="M57 67h1v1h-1z" /><path fill="#a1504c" d="M23 68h1v1h-1z" /><path fill="#c54d43" d="M36 68h1v1h-1z" /><path fill="#b45540" d="M39 68h1v1h-1z" /><path fill="#1e8c22" d="M40 68h1v1h-1z" /><path fill="#2ca931" d="M57 68h1v1h-1z" /><path fill="#554851" d="M24 69h1v1h-1z" /><path fill="#d15349" d="M25 69h1v1h-1z" /><path fill="#6b7532" d="M40 69h1v1h-1z" /><path fill="#6c4a4f" d="M26 70h1v1h-1z" /><path fill="#c44c42" d="M37 70h1v1h-1z" /><path fill="#c14c42" d="M39 70h1v1h-1z" /><path fill="#9f5245" d="M40 70h1v1h-1z" /><path fill="#249a29" d="M56 70h1v1h-1z" /><path fill="#984d4d" d="M29 71h1v1h-1z" /><path fill="#c6534a" d="M30 71h1v1h-1z" /><path fill="#b04f48" d="M37 71h1v1h-1z" /><path fill="#844b4c" d="M38 71h1v1h-1z" /><path fill="#277938" d="M41 71h1v1h-1z" /><path fill="#29a22d" d="M56 71h1v1h-1z" /><path fill="#268533" d="M42 72h1v1h-1z" /><path fill="#2caa32" d="M56 72h1v1h-1z" /><path fill="#228d2c" d="M43 73h1v1h-1z" /><path fill="#209325" d="M55 73h1v1h-1z" /><path fill="#248d2d" d="M44 74h1v1h-1z" /><path fill="#259b2a" d="M55 74h1v1h-1z" /><path fill="#2da834" d="M74 74h1v1h-1z" /><path fill="#267e36" d="M45 75h1v1h-1z" /><path fill="#29a42e" d="M55 75h1v1h-1z" /><path fill="#2d9838" d="M73 75h1v1h-1z" /><path fill="#2b5e47" d="M46 76h1v1h-1z" /><path fill="#209227" d="M47 76h1v1h-1z" /><path fill="#2dab32" d="M55 76h1v1h-1z" /><path fill="#2eaa33" d="M71 76h1v1h-1zM67 78h1v1h-1z" /><path fill="#2d6c45" d="M72 76h1v1h-1z" /><path fill="#267a39" d="M48 77h1v1h-1z" /><path fill="#1f9025" d="M49 77h1v1h-1z" /><path fill="#28723b" d="M50 78h1v1h-1z" /><path fill="#269d2a" d="M54 78h1v1h-1z" /><path fill="#2e883d" d="M68 78h1v1h-1z" /><path fill="#2d4b4f" d="M69 78h1v1h-1z" /><path fill="#267938" d="M53 79h1v1h-1z" /><path fill="#2a9135" d="M54 79h1v1h-1z" /><path fill="#2da734" d="M55 79h1v1h-1z" /><path fill="#2da635" d="M64 79h1v1h-1z" /><path fill="#2d8d3d" d="M65 79h1v1h-1z" /><path fill="#2d5d4b" d="M66 79h1v1h-1z" /><path fill="#2d5c49" d="M58 80h1v1h-1z" /><path fill="#2d6448" d="M59 80h1v1h-1z" /><path fill="#2c6647" d="M60 80h1v1h-1z" /><path fill="#2d5d4a" d="M61 80h1v1h-1z" /><path fill="#2d514e" d="M62 80h1v1h-1z" /></svg>