<svg xmlns="http://www.w3.org/2000/svg" viewBox="0 0 100 100" width="1em" height="1em"><path fill="#000000" d="M65 0h12v1h-12zM21 1h7v1h-7zM48 1h10v1h-10zM61 1h21v1h-21zM16 2h18v1h-18zM44 2h22v1h-22zM76 2h9v1h-9zM14 3h9v1h-9zM26 3h12v1h-12zM42 3h6v1h-6zM56 3h5v1h-5zM81 3h6v1h-6zM12 4h5v1h-5zM34 4h10v1h-10zM84 4h4v1h-4zM10 5h4v1h-4zM38 5h4v1h-4zM86 5h4v1h-4zM9 6h3v1h-3zM88 6h3v1h-3zM8 7h3v1h-3zM89 7h3v1h-3zM7 8h3v1h-3zM90 8h3v1h-3zM6 9h3v1h-3zM91 9h3v1h-3zM6 10h2v1h-2zM92 10h3v1h-3zM5 11h2v1h-2zM93 11h3v1h-3zM5 12h2v1h-2zM94 12h3v1h-3zM4 13h2v1h-2zM95 13h2v1h-2zM4 14h2v1h-2zM95 14h2v1h-2zM3 15h3v1h-3zM95 15h3v1h-3zM3 16h2v1h-2zM96 16h2v1h-2zM3 17h2v1h-2zM96 17h2v1h-2zM3 18h2v1h-2zM96 18h2v1h-2zM2 19h3v1h-3zM96 19h2v1h-2zM2 20h2v1h-2zM96 20h2v1h-2zM2 21h2v1h-2zM96 21h2v1h-2zM2 22h2v1h-2zM96 22h2v1h-2zM2 23h2v1h-2zM96 23h2v1h-2zM2 24h2v1h-2zM96 24h2v1h-2zM2 25h2v1h-2zM95 25h3v1h-3zM2 26h2v1h-2zM95 26h3v1h-3zM2 27h2v1h-2zM95 27h3v1h-3zM2 28h2v1h-2zM95 28h2v1h-2zM2 29h2v1h-2zM95 29h2v1h-2zM2 30h3v1h-3zM95 30h2v1h-2zM3 31h2v1h-2zM94 31h3v1h-3zM3 32h2v1h-2zM94 32h2v1h-2zM3 33h2v1h-2zM94 33h2v1h-2zM3 34h2v1h-2zM94 34h2v1h-2zM3 35h2v1h-2zM93 35h3v1h-3zM3 36h3v1h-3zM93 36h2v1h-2zM4 37h2v1h-2zM93 37h2v1h-2zM4 38h2v1h-2zM92 38h3v1h-3zM4 39h2v1h-2zM92 39h2v1h-2zM4 40h3v1h-3zM92 40h2v1h-2zM5 41h2v1h-2zM91 41h3v1h-3zM5 42h2v1h-2zM91 42h2v1h-2zM5 43h2v1h-2zM90 43h3v1h-3zM5 44h2v1h-2zM90 44h3v1h-3zM6 45h2v1h-2zM90 45h2v1h-2zM6 46h2v1h-2zM89 46h3v1h-3zM6 47h2v1h-2zM89 47h2v1h-2zM6 48h3v1h-3zM88 48h3v1h-3zM7 49h2v1h-2zM88 49h2v1h-2zM7 50h2v1h-2zM87 50h3v1h-3zM7 51h2v1h-2zM87 51h2v1h-2zM8 52h2v1h-2zM86 52h3v1h-3zM8 53h2v1h-2zM86 53h2v1h-2zM8 54h2v1h-2zM85 54h3v1h-3zM8 55h3v1h-3zM85 55h2v1h-2zM9 56h2v1h-2zM84 56h3v1h-3zM9 57h3v1h-3zM83 57h14v1h-14zM10 58h2v1h-2zM83 58h15v1h-15zM10 59h2v1h-2zM84 59h3v1h-3zM96 59h2v1h-2zM10 60h3v1h-3zM96 60h3v1h-3zM11 61h2v1h-2zM36 61h4v1h-4zM96 61h3v1h-3zM11 62h3v1h-3zM35 62h6v1h-6zM96 62h3v1h-3zM12 63h2v1h-2zM34 63h6v1h-6zM96 63h2v1h-2zM12 64h3v1h-3zM33 64h4v1h-4zM95 64h3v1h-3zM13 65h2v1h-2zM94 65h3v1h-3zM13 66h3v1h-3zM92 66h4v1h-4zM14 67h3v1h-3zM90 67h5v1h-5zM15 68h2v1h-2zM30 68h1v1h-1zM88 68h5v1h-5zM15 69h3v1h-3zM29 69h2v1h-2zM77 69h14v1h-14zM16 70h3v1h-3zM28 70h3v1h-3zM77 70h12v1h-12zM17 71h4v1h-4zM26 71h6v1h-6zM47 71h1v1h-1zM77 71h8v1h-8zM18 72h11v1h-11zM30 72h4v1h-4zM45 72h3v1h-3zM77 72h2v1h-2zM20 73h8v1h-8zM31 73h17v1h-17zM76 73h2v1h-2zM33 74h15v1h-15zM76 74h2v1h-2zM37 75h6v1h-6zM47 75h1v1h-1zM76 75h2v1h-2zM47 76h1v1h-1zM76 76h2v1h-2zM47 77h1v1h-1zM76 77h2v1h-2zM47 78h1v1h-1zM76 78h2v1h-2zM47 79h1v1h-1zM76 79h2v1h-2zM47 80h1v1h-1zM76 80h2v1h-2zM47 81h1v1h-1zM75 81h3v1h-3zM47 82h1v1h-1zM75 82h3v1h-3zM47 83h2v1h-2zM75 83h2v1h-2zM47 84h2v1h-2zM75 84h2v1h-2zM47 85h2v1h-2zM75 85h2v1h-2zM47 86h2v1h-2zM75 86h2v1h-2zM47 87h2v1h-2zM74 87h3v1h-3zM48 88h1v1h-1zM74 88h2v1h-2zM48 89h1v1h-1zM74 89h2v1h-2zM48 90h2v1h-2zM74 90h1v1h-1zM49 91h1v1h-1zM73 91h2v1h-2zM49 92h2v1h-2zM72 92h2v1h-2zM49 93h2v1h-2zM72 93h2v1h-2zM50 94h2v1h-2zM70 94h3v1h-3zM51 95h2v1h-2zM69 95h3v1h-3zM51 96h3v1h-3zM67 96h4v1h-4zM52 97h5v1h-5zM64 97h5v1h-5zM54 98h13v1h-13zM56 99h7v1h-7z" /><path fill="#010101" d="M66 2h1v1h-1zM93 65h1v1h-1zM48 82h1v1h-1zM73 90h1v1h-1zM63 97h1v1h-1z" /><path fill="#1b1b1b" d="M67 2h1v1h-1zM75 2h1v1h-1zM74 86h1v1h-1zM68 95h1v1h-1z" /><path fill="#2d2d2d" d="M68 2h1v1h-1zM50 3h1v1h-1zM46 71h1v1h-1zM76 71h1v1h-1z" /><path fill="#373737" d="M69 2h1v1h-1z" /><path fill="#444444" d="M70 2h1v1h-1zM52 3h1v1h-1zM58 97h1v1h-1z" /><path fill="#525252" d="M71 2h1v1h-1zM89 44h1v1h-1z" /><path fill="#505050" d="M72 2h1v1h-1zM10 8h1v1h-1zM95 21h1v1h-1zM75 78h1v1h-1z" /><path fill="#414141" d="M73 2h1v1h-1zM95 22h1v1h-1zM48 72h1v1h-1z" /><path fill="#333333" d="M74 2h1v1h-1zM7 43h1v1h-1z" /><path fill="#060606" d="M23 3h1v1h-1zM61 3h1v1h-1zM5 35h1v1h-1zM32 65h1v1h-1z" /><path fill="#111111" d="M24 3h1v1h-1zM40 6h1v1h-1zM94 13h1v1h-1zM87 49h1v1h-1zM85 53h1v1h-1zM12 59h1v1h-1zM95 59h1v1h-1z" /><path fill="#0a0a0a" d="M25 3h1v1h-1zM95 16h1v1h-1zM92 37h1v1h-1zM37 60h1v1h-1zM75 80h1v1h-1zM48 81h1v1h-1z" /><path fill="#040404" d="M48 3h1v1h-1zM37 5h1v1h-1zM7 11h1v1h-1zM4 29h1v1h-1zM91 40h1v1h-1zM84 55h1v1h-1zM95 63h1v1h-1z" /><path fill="#202020" d="M49 3h1v1h-1zM62 97h1v1h-1z" /><path fill="#383838" d="M51 3h1v1h-1zM4 27h1v1h-1zM52 94h1v1h-1z" /><path fill="#353535" d="M53 3h1v1h-1zM11 56h1v1h-1z" /><path fill="#212121" d="M54 3h1v1h-1zM90 42h1v1h-1z" /><path fill="#0e0e0e" d="M55 3h1v1h-1zM95 24h1v1h-1zM76 72h1v1h-1z" /><path fill="#3a3a3a" d="M62 3h1v1h-1zM29 68h1v1h-1z" /><path fill="#777777" d="M63 3h1v1h-1zM74 84h1v1h-1z" /><path fill="#a7a7a7" d="M64 3h1v1h-1zM64 96h1v1h-1z" /><path fill="#cecece" d="M65 3h1v1h-1zM5 19h1v1h-1z" /><path fill="#f4f4f4" d="M66 3h1v1h-1zM14 6h1v1h-1zM13 59h1v1h-1zM28 68h1v1h-1zM27 69h1v1h-1zM68 94h1v1h-1z" /><path fill="#ffffff" d="M67 3h9v1h-9zM23 4h3v1h-3zM49 4h7v1h-7zM62 4h18v1h-18zM17 5h16v1h-16zM45 5h20v1h-20zM78 5h5v1h-5zM15 6h6v1h-6zM28 6h9v1h-9zM43 6h4v1h-4zM57 6h7v1h-7zM81 6h4v1h-4zM13 7h3v1h-3zM34 7h6v1h-6zM41 7h3v1h-3zM61 7h4v1h-4zM84 7h3v1h-3zM12 8h2v1h-2zM38 8h4v1h-4zM64 8h3v1h-3zM86 8h2v1h-2zM11 9h2v1h-2zM38 9h3v1h-3zM66 9h3v1h-3zM87 9h2v1h-2zM10 10h2v1h-2zM38 10h2v1h-2zM67 10h3v1h-3zM88 10h3v1h-3zM9 11h2v1h-2zM37 11h2v1h-2zM69 11h2v1h-2zM90 11h2v1h-2zM8 12h2v1h-2zM36 12h2v1h-2zM70 12h2v1h-2zM91 12h1v1h-1zM8 13h1v1h-1zM35 13h2v1h-2zM71 13h2v1h-2zM91 13h2v1h-2zM7 14h2v1h-2zM35 14h2v1h-2zM72 14h2v1h-2zM92 14h2v1h-2zM7 15h2v1h-2zM34 15h2v1h-2zM73 15h2v1h-2zM93 15h1v1h-1zM6 16h2v1h-2zM34 16h1v1h-1zM74 16h2v1h-2zM93 16h1v1h-1zM6 17h2v1h-2zM33 17h2v1h-2zM75 17h2v1h-2zM93 17h2v1h-2zM6 18h2v1h-2zM33 18h2v1h-2zM76 18h1v1h-1zM93 18h2v1h-2zM6 19h1v1h-1zM33 19h1v1h-1zM76 19h2v1h-2zM93 19h2v1h-2zM6 20h1v1h-1zM32 20h2v1h-2zM77 20h1v1h-1zM93 20h2v1h-2zM5 21h2v1h-2zM32 21h2v1h-2zM77 21h2v1h-2zM93 21h2v1h-2zM5 22h2v1h-2zM32 22h1v1h-1zM78 22h2v1h-2zM93 22h2v1h-2zM5 23h2v1h-2zM31 23h2v1h-2zM78 23h2v1h-2zM93 23h2v1h-2zM5 24h2v1h-2zM31 24h2v1h-2zM79 24h1v1h-1zM93 24h2v1h-2zM5 25h2v1h-2zM31 25h2v1h-2zM79 25h2v1h-2zM93 25h1v1h-1zM5 26h2v1h-2zM31 26h2v1h-2zM75 26h2v1h-2zM79 26h2v1h-2zM92 26h2v1h-2zM5 27h2v1h-2zM31 27h2v1h-2zM38 27h7v1h-7zM71 27h10v1h-10zM92 27h2v1h-2zM5 28h2v1h-2zM31 28h1v1h-1zM35 28h11v1h-11zM70 28h3v1h-3zM80 28h1v1h-1zM92 28h2v1h-2zM6 29h1v1h-1zM31 29h6v1h-6zM45 29h2v1h-2zM69 29h2v1h-2zM80 29h1v1h-1zM92 29h2v1h-2zM6 30h1v1h-1zM31 30h4v1h-4zM46 30h2v1h-2zM68 30h2v1h-2zM79 30h2v1h-2zM92 30h1v1h-1zM6 31h2v1h-2zM31 31h2v1h-2zM41 31h2v1h-2zM47 31h1v1h-1zM68 31h1v1h-1zM72 31h3v1h-3zM79 31h2v1h-2zM91 31h2v1h-2zM6 32h2v1h-2zM31 32h1v1h-1zM41 32h4v1h-4zM47 32h2v1h-2zM68 32h1v1h-1zM79 32h2v1h-2zM91 32h2v1h-2zM6 33h2v1h-2zM31 33h1v1h-1zM47 33h2v1h-2zM67 33h2v1h-2zM79 33h2v1h-2zM91 33h2v1h-2zM6 34h2v1h-2zM31 34h1v1h-1zM47 34h2v1h-2zM67 34h2v1h-2zM79 34h2v1h-2zM91 34h1v1h-1zM7 35h1v1h-1zM31 35h1v1h-1zM48 35h1v1h-1zM68 35h1v1h-1zM79 35h2v1h-2zM90 35h2v1h-2zM7 36h1v1h-1zM31 36h1v1h-1zM48 36h1v1h-1zM68 36h1v1h-1zM79 36h1v1h-1zM90 36h2v1h-2zM7 37h2v1h-2zM31 37h2v1h-2zM48 37h2v1h-2zM68 37h2v1h-2zM79 37h1v1h-1zM90 37h1v1h-1zM7 38h2v1h-2zM31 38h2v1h-2zM48 38h2v1h-2zM68 38h2v1h-2zM79 38h1v1h-1zM89 38h2v1h-2zM7 39h2v1h-2zM31 39h2v1h-2zM48 39h2v1h-2zM69 39h1v1h-1zM79 39h1v1h-1zM89 39h2v1h-2zM8 40h1v1h-1zM31 40h1v1h-1zM48 40h2v1h-2zM69 40h2v1h-2zM79 40h2v1h-2zM89 40h1v1h-1zM8 41h2v1h-2zM31 41h1v1h-1zM48 41h2v1h-2zM69 41h2v1h-2zM79 41h2v1h-2zM88 41h2v1h-2zM8 42h2v1h-2zM31 42h1v1h-1zM48 42h2v1h-2zM70 42h1v1h-1zM79 42h2v1h-2zM88 42h1v1h-1zM8 43h2v1h-2zM30 43h2v1h-2zM48 43h2v1h-2zM70 43h2v1h-2zM79 43h2v1h-2zM87 43h2v1h-2zM9 44h1v1h-1zM30 44h2v1h-2zM48 44h2v1h-2zM71 44h1v1h-1zM79 44h2v1h-2zM87 44h2v1h-2zM9 45h2v1h-2zM30 45h2v1h-2zM48 45h2v1h-2zM71 45h2v1h-2zM79 45h2v1h-2zM87 45h1v1h-1zM9 46h2v1h-2zM30 46h2v1h-2zM48 46h1v1h-1zM72 46h1v1h-1zM79 46h2v1h-2zM86 46h2v1h-2zM10 47h1v1h-1zM30 47h2v1h-2zM47 47h2v1h-2zM72 47h2v1h-2zM79 47h2v1h-2zM86 47h1v1h-1zM10 48h1v1h-1zM30 48h2v1h-2zM47 48h2v1h-2zM73 48h1v1h-1zM79 48h2v1h-2zM85 48h2v1h-2zM10 49h2v1h-2zM30 49h2v1h-2zM47 49h1v1h-1zM73 49h2v1h-2zM79 49h2v1h-2zM85 49h1v1h-1zM10 50h2v1h-2zM31 50h1v1h-1zM46 50h2v1h-2zM74 50h1v1h-1zM79 50h2v1h-2zM84 50h2v1h-2zM11 51h1v1h-1zM31 51h2v1h-2zM46 51h2v1h-2zM74 51h2v1h-2zM79 51h2v1h-2zM84 51h1v1h-1zM11 52h2v1h-2zM31 52h2v1h-2zM46 52h1v1h-1zM75 52h2v1h-2zM79 52h1v1h-1zM83 52h2v1h-2zM11 53h2v1h-2zM32 53h2v1h-2zM45 53h2v1h-2zM75 53h2v1h-2zM78 53h2v1h-2zM83 53h1v1h-1zM12 54h1v1h-1zM32 54h2v1h-2zM45 54h1v1h-1zM76 54h4v1h-4zM82 54h2v1h-2zM12 55h2v1h-2zM33 55h2v1h-2zM44 55h2v1h-2zM76 55h3v1h-3zM81 55h2v1h-2zM12 56h2v1h-2zM34 56h2v1h-2zM44 56h2v1h-2zM77 56h2v1h-2zM81 56h2v1h-2zM13 57h2v1h-2zM35 57h3v1h-3zM44 57h1v1h-1zM78 57h4v1h-4zM13 58h2v1h-2zM35 58h5v1h-5zM43 58h2v1h-2zM79 58h2v1h-2zM14 59h1v1h-1zM34 59h2v1h-2zM38 59h7v1h-7zM46 59h1v1h-1zM78 59h3v1h-3zM14 60h2v1h-2zM33 60h2v1h-2zM41 60h8v1h-8zM76 60h8v1h-8zM88 60h7v1h-7zM15 61h1v1h-1zM32 61h2v1h-2zM43 61h2v1h-2zM48 61h2v1h-2zM75 61h3v1h-3zM81 61h14v1h-14zM15 62h2v1h-2zM32 62h2v1h-2zM42 62h2v1h-2zM49 62h1v1h-1zM75 62h2v1h-2zM93 62h2v1h-2zM16 63h1v1h-1zM31 63h2v1h-2zM42 63h2v1h-2zM49 63h2v1h-2zM75 63h1v1h-1zM92 63h2v1h-2zM16 64h2v1h-2zM30 64h2v1h-2zM41 64h2v1h-2zM49 64h2v1h-2zM75 64h1v1h-1zM90 64h3v1h-3zM17 65h2v1h-2zM29 65h2v1h-2zM38 65h4v1h-4zM49 65h2v1h-2zM75 65h1v1h-1zM88 65h3v1h-3zM17 66h2v1h-2zM28 66h2v1h-2zM34 66h6v1h-6zM49 66h2v1h-2zM74 66h4v1h-4zM83 66h6v1h-6zM18 67h2v1h-2zM27 67h2v1h-2zM32 67h5v1h-5zM48 67h3v1h-3zM74 67h13v1h-13zM19 68h2v1h-2zM26 68h2v1h-2zM32 68h2v1h-2zM47 68h4v1h-4zM74 68h2v1h-2zM20 69h7v1h-7zM32 69h2v1h-2zM45 69h3v1h-3zM49 69h2v1h-2zM74 69h2v1h-2zM22 70h4v1h-4zM33 70h5v1h-5zM42 70h4v1h-4zM49 70h2v1h-2zM74 70h2v1h-2zM35 71h9v1h-9zM49 71h2v1h-2zM74 71h2v1h-2zM49 72h2v1h-2zM74 72h2v1h-2zM49 73h2v1h-2zM74 73h1v1h-1zM49 74h2v1h-2zM74 74h1v1h-1zM49 75h2v1h-2zM73 75h2v1h-2zM49 76h2v1h-2zM73 76h2v1h-2zM49 77h2v1h-2zM73 77h2v1h-2zM49 78h2v1h-2zM73 78h2v1h-2zM49 79h2v1h-2zM73 79h2v1h-2zM49 80h2v1h-2zM73 80h1v1h-1zM49 81h2v1h-2zM73 81h1v1h-1zM50 82h1v1h-1zM72 82h2v1h-2zM50 83h1v1h-1zM72 83h2v1h-2zM50 84h1v1h-1zM72 84h2v1h-2zM50 85h2v1h-2zM72 85h2v1h-2zM50 86h2v1h-2zM72 86h2v1h-2zM50 87h2v1h-2zM72 87h1v1h-1zM50 88h2v1h-2zM71 88h2v1h-2zM51 89h1v1h-1zM71 89h2v1h-2zM51 90h2v1h-2zM70 90h2v1h-2zM51 91h2v1h-2zM70 91h1v1h-1zM52 92h2v1h-2zM69 92h2v1h-2zM53 93h2v1h-2zM67 93h3v1h-3zM54 94h2v1h-2zM64 94h4v1h-4zM55 95h11v1h-11zM57 96h6v1h-6z" /><path fill="#f3f3f3" d="M76 3h1v1h-1zM83 5h1v1h-1zM11 8h1v1h-1zM9 10h1v1h-1zM66 95h1v1h-1z" /><path fill="#cbcbcb" d="M77 3h1v1h-1zM49 84h1v1h-1z" /><path fill="#9e9e9e" d="M78 3h1v1h-1zM38 6h1v1h-1zM95 60h1v1h-1z" /><path fill="#5b5b5b" d="M79 3h1v1h-1zM35 72h1v1h-1z" /><path fill="#171717" d="M80 3h1v1h-1zM4 21h1v1h-1zM82 58h1v1h-1zM21 71h1v1h-1z" /><path fill="#2c2c2c" d="M17 4h1v1h-1zM95 23h1v1h-1zM75 79h1v1h-1z" /><path fill="#6c6c6c" d="M18 4h1v1h-1z" /><path fill="#9f9f9f" d="M19 4h1v1h-1z" /><path fill="#cacaca" d="M20 4h1v1h-1zM81 4h1v1h-1z" /><path fill="#e6e6e6" d="M21 4h1v1h-1zM7 40h1v1h-1zM90 40h1v1h-1zM52 93h1v1h-1z" /><path fill="#fdfdfd" d="M22 4h1v1h-1zM92 12h1v1h-1zM94 16h1v1h-1zM89 42h1v1h-1zM14 61h1v1h-1zM34 61h1v1h-1zM44 71h1v1h-1z" /><path fill="#fafafa" d="M26 4h1v1h-1z" /><path fill="#ebebeb" d="M27 4h1v1h-1zM93 13h1v1h-1zM29 67h1v1h-1z" /><path fill="#d0d0d0" d="M28 4h1v1h-1zM87 7h1v1h-1zM8 11h1v1h-1zM9 48h1v1h-1zM75 74h1v1h-1z" /><path fill="#afafaf" d="M29 4h1v1h-1z" /><path fill="#8d8d8d" d="M30 4h1v1h-1zM5 32h1v1h-1zM94 59h1v1h-1zM36 72h1v1h-1z" /><path fill="#616161" d="M31 4h1v1h-1zM89 8h1v1h-1z" /><path fill="#2f2f2f" d="M32 4h1v1h-1zM11 7h1v1h-1zM8 10h1v1h-1zM5 34h1v1h-1zM50 91h1v1h-1z" /><path fill="#050505" d="M33 4h1v1h-1zM44 4h1v1h-1zM94 30h1v1h-1zM89 45h1v1h-1zM10 54h1v1h-1zM19 70h1v1h-1z" /><path fill="#4c4c4c" d="M45 4h1v1h-1z" /><path fill="#959595" d="M46 4h1v1h-1zM11 55h1v1h-1zM91 59h1v1h-1zM13 60h1v1h-1zM88 67h1v1h-1zM73 88h1v1h-1z" /><path fill="#c7c7c7" d="M47 4h1v1h-1zM94 26h1v1h-1z" /><path fill="#f6f6f6" d="M48 4h1v1h-1zM61 4h1v1h-1zM88 8h1v1h-1z" /><path fill="#f1f1f1" d="M56 4h1v1h-1zM85 6h1v1h-1zM86 49h1v1h-1zM40 60h1v1h-1zM84 60h1v1h-1zM37 65h1v1h-1z" /><path fill="#c2c2c2" d="M57 4h1v1h-1zM93 59h1v1h-1z" /><path fill="#929292" d="M58 4h1v1h-1z" /><path fill="#6f6f6f" d="M59 4h1v1h-1zM90 59h1v1h-1zM69 94h1v1h-1z" /><path fill="#b0b0b0" d="M60 4h1v1h-1z" /><path fill="#fefefe" d="M80 4h1v1h-1zM40 7h1v1h-1zM89 9h1v1h-1zM9 47h1v1h-1zM40 64h1v1h-1zM89 66h1v1h-1zM74 80h1v1h-1zM71 91h1v1h-1zM68 92h1v1h-1z" /><path fill="#676767" d="M82 4h1v1h-1z" /><path fill="#0d0d0d" d="M83 4h1v1h-1zM66 96h1v1h-1z" /><path fill="#121212" d="M14 5h1v1h-1zM31 66h1v1h-1zM18 69h1v1h-1z" /><path fill="#7b7b7b" d="M15 5h1v1h-1z" /><path fill="#d8d8d8" d="M16 5h1v1h-1zM30 66h1v1h-1z" /><path fill="#f8f8f8" d="M33 5h1v1h-1zM35 60h1v1h-1zM34 71h1v1h-1zM49 82h1v1h-1zM50 89h1v1h-1z" /><path fill="#c3c3c3" d="M34 5h1v1h-1zM42 61h1v1h-1z" /><path fill="#818181" d="M35 5h1v1h-1zM93 32h1v1h-1z" /><path fill="#3f3f3f" d="M36 5h1v1h-1zM9 50h1v1h-1zM28 69h1v1h-1z" /><path fill="#1d1d1d" d="M42 5h1v1h-1zM5 16h1v1h-1zM48 79h1v1h-1z" /><path fill="#919191" d="M43 5h1v1h-1zM84 5h1v1h-1z" /><path fill="#eaeaea" d="M44 5h1v1h-1zM37 59h1v1h-1zM16 65h1v1h-1zM32 70h1v1h-1z" /><path fill="#fdfefe" d="M65 5h1v1h-1zM77 5h1v1h-1zM9 13h1v1h-1zM92 15h1v1h-1zM78 20h1v1h-1zM32 28h1v1h-1zM79 29h1v1h-1zM75 31h1v1h-1zM8 36h1v1h-1zM32 36h1v1h-1zM80 36h1v1h-1zM11 48h1v1h-1zM82 53h1v1h-1zM31 62h1v1h-1zM91 63h1v1h-1z" /><path fill="#e5ebf1" d="M66 5h1v1h-1zM47 36h1v1h-1zM46 49h1v1h-1zM34 57h1v1h-1z" /><path fill="#c5d4e0" d="M67 5h1v1h-1zM36 8h1v1h-1zM41 33h1v1h-1z" /><path fill="#b0c4d4" d="M68 5h1v1h-1zM81 48h1v1h-1z" /><path fill="#9eb7cb" d="M69 5h1v1h-1zM7 25h1v1h-1zM11 46h1v1h-1zM43 64h1v1h-1zM71 85h1v1h-1z" /><path fill="#92aec4" d="M70 5h2v1h-2zM8 33h1v1h-1zM78 33h1v1h-1zM59 94h1v1h-1z" /><path fill="#94afc5" d="M72 5h1v1h-1zM81 44h1v1h-1zM79 61h1v1h-1z" /><path fill="#a1b9cd" d="M73 5h1v1h-1zM7 26h1v1h-1zM72 43h1v1h-1zM32 48h1v1h-1zM91 62h1v1h-1z" /><path fill="#afc3d4" d="M74 5h1v1h-1zM53 6h1v1h-1zM92 17h1v1h-1zM75 19h1v1h-1zM78 34h1v1h-1zM51 64h1v1h-1zM51 65h1v1h-1z" /><path fill="#c2d2de" d="M75 5h1v1h-1zM7 21h1v1h-1zM88 39h1v1h-1z" /><path fill="#e3eaf0" d="M76 5h1v1h-1zM35 30h1v1h-1zM78 37h1v1h-1zM31 53h1v1h-1z" /><path fill="#151515" d="M85 5h1v1h-1zM15 65h1v1h-1z" /><path fill="#080808" d="M12 6h1v1h-1z" /><path fill="#828282" d="M13 6h1v1h-1zM33 63h1v1h-1z" /><path fill="#f8fafb" d="M21 6h1v1h-1zM74 26h1v1h-1zM43 33h1v1h-1zM12 51h1v1h-1zM45 57h1v1h-1zM30 63h1v1h-1zM74 64h1v1h-1z" /><path fill="#e1e8ef" d="M22 6h1v1h-1zM7 20h1v1h-1zM25 68h1v1h-1z" /><path fill="#d2dee7" d="M23 6h1v1h-1zM73 30h1v1h-1zM30 39h1v1h-1zM81 54h1v1h-1z" /><path fill="#d6e1e9" d="M24 6h2v1h-2zM64 6h1v1h-1zM13 9h1v1h-1zM81 28h1v1h-1zM30 36h1v1h-1zM87 62h1v1h-1z" /><path fill="#d9e2ea" d="M26 6h1v1h-1zM30 28h1v1h-1zM78 39h1v1h-1zM79 56h1v1h-1zM46 61h1v1h-1zM55 93h1v1h-1z" /><path fill="#edf1f5" d="M27 6h1v1h-1zM34 19h1v1h-1zM44 54h1v1h-1zM36 56h1v1h-1zM29 64h1v1h-1z" /><path fill="#ececec" d="M37 6h1v1h-1zM92 34h1v1h-1zM84 53h1v1h-1zM87 67h1v1h-1z" /><path fill="#4a4a4a" d="M39 6h1v1h-1zM9 9h1v1h-1zM95 18h1v1h-1zM49 88h1v1h-1z" /><path fill="#808080" d="M41 6h1v1h-1zM87 48h1v1h-1zM47 70h1v1h-1z" /><path fill="#f5f5f5" d="M42 6h1v1h-1zM93 30h1v1h-1zM91 37h1v1h-1zM21 70h1v1h-1z" /><path fill="#fdfdfe" d="M47 6h1v1h-1zM67 32h1v1h-1zM86 45h1v1h-1zM45 52h1v1h-1zM47 61h1v1h-1zM74 65h1v1h-1z" /><path fill="#dde5ec" d="M48 6h1v1h-1zM69 35h1v1h-1zM87 42h1v1h-1z" /><path fill="#c1d1dd" d="M49 6h1v1h-1zM32 49h1v1h-1zM45 51h1v1h-1z" /><path fill="#a8bed0" d="M50 6h1v1h-1zM48 30h1v1h-1zM32 45h1v1h-1zM61 94h1v1h-1z" /><path fill="#a0b8cc" d="M51 6h2v1h-2zM69 43h1v1h-1zM84 48h1v1h-1zM73 70h1v1h-1z" /><path fill="#bfcfdc" d="M54 6h1v1h-1zM69 9h1v1h-1zM7 28h1v1h-1zM46 55h1v1h-1zM86 65h1v1h-1zM26 67h1v1h-1z" /><path fill="#cedbe5" d="M55 6h1v1h-1zM45 27h1v1h-1zM73 72h1v1h-1z" /><path fill="#e7edf2" d="M56 6h1v1h-1zM91 30h1v1h-1z" /><path fill="#5580a3" d="M65 6h1v1h-1zM34 8h1v1h-1zM44 26h1v1h-1zM41 30h1v1h-1z" /><path fill="#336791" d="M66 6h11v1h-11zM21 7h7v1h-7zM48 7h9v1h-9zM68 7h13v1h-13zM17 8h17v1h-17zM45 8h16v1h-16zM69 8h14v1h-14zM15 9h22v1h-22zM43 9h20v1h-20zM71 9h14v1h-14zM14 10h22v1h-22zM42 10h23v1h-23zM72 10h14v1h-14zM13 11h22v1h-22zM41 11h26v1h-26zM73 11h15v1h-15zM12 12h22v1h-22zM40 12h28v1h-28zM74 12h15v1h-15zM11 13h23v1h-23zM39 13h30v1h-30zM75 13h15v1h-15zM10 14h23v1h-23zM38 14h32v1h-32zM76 14h14v1h-14zM10 15h23v1h-23zM37 15h34v1h-34zM77 15h14v1h-14zM9 16h23v1h-23zM37 16h35v1h-35zM78 16h14v1h-14zM9 17h23v1h-23zM36 17h37v1h-37zM78 17h14v1h-14zM9 18h23v1h-23zM36 18h38v1h-38zM79 18h13v1h-13zM9 19h22v1h-22zM36 19h39v1h-39zM79 19h13v1h-13zM8 20h23v1h-23zM35 20h40v1h-40zM80 20h12v1h-12zM8 21h23v1h-23zM35 21h41v1h-41zM80 21h12v1h-12zM8 22h23v1h-23zM35 22h41v1h-41zM81 22h11v1h-11zM8 23h22v1h-22zM34 23h43v1h-43zM81 23h11v1h-11zM8 24h22v1h-22zM34 24h43v1h-43zM82 24h10v1h-10zM8 25h22v1h-22zM34 25h44v1h-44zM82 25h10v1h-10zM8 26h22v1h-22zM34 26h3v1h-3zM45 26h25v1h-25zM82 26h9v1h-9zM8 27h22v1h-22zM34 27h1v1h-1zM47 27h22v1h-22zM82 27h9v1h-9zM8 28h22v1h-22zM48 28h20v1h-20zM82 28h9v1h-9zM8 29h22v1h-22zM49 29h18v1h-18zM74 29h4v1h-4zM82 29h9v1h-9zM8 30h22v1h-22zM38 30h3v1h-3zM49 30h18v1h-18zM77 30h1v1h-1zM82 30h9v1h-9zM9 31h21v1h-21zM36 31h4v1h-4zM50 31h17v1h-17zM77 31h1v1h-1zM82 31h8v1h-8zM9 32h21v1h-21zM34 32h6v1h-6zM50 32h16v1h-16zM70 32h2v1h-2zM76 32h2v1h-2zM82 32h8v1h-8zM9 33h21v1h-21zM33 33h7v1h-7zM45 33h1v1h-1zM50 33h16v1h-16zM70 33h8v1h-8zM82 33h8v1h-8zM9 34h21v1h-21zM33 34h9v1h-9zM44 34h2v1h-2zM50 34h16v1h-16zM70 34h8v1h-8zM82 34h7v1h-7zM9 35h21v1h-21zM33 35h13v1h-13zM50 35h17v1h-17zM70 35h8v1h-8zM82 35h7v1h-7zM10 36h20v1h-20zM33 36h14v1h-14zM50 36h17v1h-17zM71 36h7v1h-7zM82 36h7v1h-7zM10 37h20v1h-20zM34 37h13v1h-13zM51 37h16v1h-16zM71 37h7v1h-7zM81 37h7v1h-7zM10 38h20v1h-20zM34 38h13v1h-13zM51 38h16v1h-16zM71 38h7v1h-7zM81 38h7v1h-7zM10 39h20v1h-20zM34 39h13v1h-13zM51 39h16v1h-16zM72 39h6v1h-6zM81 39h7v1h-7zM11 40h19v1h-19zM33 40h14v1h-14zM51 40h17v1h-17zM72 40h6v1h-6zM82 40h5v1h-5zM11 41h19v1h-19zM33 41h14v1h-14zM51 41h17v1h-17zM72 41h6v1h-6zM82 41h5v1h-5zM11 42h19v1h-19zM33 42h14v1h-14zM51 42h17v1h-17zM73 42h5v1h-5zM82 42h5v1h-5zM11 43h18v1h-18zM33 43h14v1h-14zM51 43h18v1h-18zM73 43h5v1h-5zM82 43h4v1h-4zM12 44h17v1h-17zM33 44h14v1h-14zM51 44h18v1h-18zM74 44h4v1h-4zM82 44h4v1h-4zM12 45h17v1h-17zM33 45h14v1h-14zM51 45h19v1h-19zM74 45h4v1h-4zM82 45h3v1h-3zM12 46h17v1h-17zM33 46h13v1h-13zM50 46h20v1h-20zM75 46h3v1h-3zM82 46h3v1h-3zM12 47h17v1h-17zM33 47h13v1h-13zM50 47h21v1h-21zM75 47h3v1h-3zM82 47h2v1h-2zM13 48h16v1h-16zM33 48h13v1h-13zM50 48h21v1h-21zM76 48h2v1h-2zM82 48h2v1h-2zM13 49h16v1h-16zM33 49h12v1h-12zM50 49h22v1h-22zM76 49h2v1h-2zM82 49h1v1h-1zM13 50h16v1h-16zM34 50h11v1h-11zM49 50h23v1h-23zM77 50h1v1h-1zM82 50h1v1h-1zM14 51h16v1h-16zM34 51h11v1h-11zM49 51h24v1h-24zM77 51h1v1h-1zM14 52h16v1h-16zM34 52h10v1h-10zM49 52h24v1h-24zM14 53h16v1h-16zM35 53h9v1h-9zM48 53h26v1h-26zM15 54h16v1h-16zM36 54h7v1h-7zM48 54h26v1h-26zM15 55h17v1h-17zM37 55h6v1h-6zM47 55h28v1h-28zM15 56h17v1h-17zM38 56h5v1h-5zM47 56h29v1h-29zM16 57h17v1h-17zM41 57h1v1h-1zM47 57h29v1h-29zM16 58h17v1h-17zM47 58h30v1h-30zM17 59h15v1h-15zM50 59h25v1h-25zM17 60h15v1h-15zM51 60h24v1h-24zM18 61h13v1h-13zM51 61h23v1h-23zM18 62h12v1h-12zM46 62h1v1h-1zM52 62h22v1h-22zM78 62h2v1h-2zM19 63h10v1h-10zM45 63h3v1h-3zM52 63h22v1h-22zM78 63h11v1h-11zM19 64h9v1h-9zM44 64h4v1h-4zM52 64h22v1h-22zM77 64h10v1h-10zM20 65h7v1h-7zM44 65h4v1h-4zM52 65h21v1h-21zM79 65h4v1h-4zM21 66h5v1h-5zM43 66h4v1h-4zM52 66h21v1h-21zM22 67h3v1h-3zM41 67h5v1h-5zM52 67h21v1h-21zM37 68h7v1h-7zM52 68h21v1h-21zM38 69h3v1h-3zM52 69h21v1h-21zM52 70h21v1h-21zM52 71h21v1h-21zM52 72h21v1h-21zM52 73h21v1h-21zM52 74h20v1h-20zM52 75h20v1h-20zM52 76h20v1h-20zM52 77h20v1h-20zM52 78h20v1h-20zM52 79h20v1h-20zM52 80h20v1h-20zM52 81h20v1h-20zM52 82h19v1h-19zM52 83h19v1h-19zM53 84h18v1h-18zM53 85h18v1h-18zM53 86h18v1h-18zM53 87h17v1h-17zM53 88h17v1h-17zM54 89h15v1h-15zM54 90h15v1h-15zM55 91h13v1h-13zM56 92h10v1h-10zM57 93h6v1h-6z" /><path fill="#3a6c95" d="M77 6h1v1h-1zM13 10h1v1h-1zM73 29h1v1h-1zM70 36h1v1h-1zM81 52h1v1h-1zM25 67h1v1h-1zM41 69h1v1h-1z" /><path fill="#658cac" d="M78 6h1v1h-1zM50 39h1v1h-1zM71 40h1v1h-1zM80 54h1v1h-1z" /><path fill="#9db6ca" d="M79 6h1v1h-1zM59 7h1v1h-1zM67 30h1v1h-1zM43 69h1v1h-1zM58 94h1v1h-1z" /><path fill="#d7e1e9" d="M80 6h1v1h-1zM8 16h1v1h-1zM73 16h1v1h-1zM7 29h1v1h-1zM11 47h1v1h-1zM72 80h1v1h-1z" /><path fill="#7c7c7c" d="M86 6h1v1h-1zM90 9h1v1h-1zM88 46h1v1h-1zM35 65h1v1h-1z" /><path fill="#070707" d="M87 6h1v1h-1zM17 68h1v1h-1zM54 96h1v1h-1z" /><path fill="#dadada" d="M12 7h1v1h-1zM40 72h1v1h-1z" /><path fill="#fefeff" d="M16 7h1v1h-1zM89 11h1v1h-1zM90 12h1v1h-1zM35 16h1v1h-1zM75 18h1v1h-1zM79 28h1v1h-1zM42 33h1v1h-1zM47 35h1v1h-1zM48 49h1v1h-1zM75 50h1v1h-1zM50 62h1v1h-1zM41 70h1v1h-1zM56 94h1v1h-1z" /><path fill="#d0dce6" d="M17 7h1v1h-1zM92 24h1v1h-1zM30 37h1v1h-1zM47 45h1v1h-1z" /><path fill="#91adc4" d="M18 7h1v1h-1zM39 29h1v1h-1z" /><path fill="#628aaa" d="M19 7h1v1h-1zM69 27h1v1h-1z" /><path fill="#417299" d="M20 7h1v1h-1zM76 15h1v1h-1zM31 19h1v1h-1zM33 32h1v1h-1zM40 33h1v1h-1z" /><path fill="#396c94" d="M28 7h1v1h-1zM86 10h1v1h-1zM69 13h1v1h-1zM49 59h1v1h-1zM40 67h1v1h-1z" /><path fill="#517da1" d="M29 7h1v1h-1zM33 27h1v1h-1zM50 38h1v1h-1z" /><path fill="#6d93b0" d="M30 7h1v1h-1zM68 28h1v1h-1zM45 50h1v1h-1zM33 51h1v1h-1zM36 69h1v1h-1z" /><path fill="#95b0c6" d="M31 7h1v1h-1zM47 42h1v1h-1z" /><path fill="#bccddb" d="M32 7h1v1h-1zM91 14h1v1h-1zM69 33h1v1h-1zM86 44h1v1h-1zM72 79h1v1h-1z" /><path fill="#e9eff3" d="M33 7h1v1h-1zM73 32h1v1h-1zM32 33h1v1h-1z" /><path fill="#f9fafc" d="M44 7h1v1h-1zM42 8h1v1h-1zM73 13h1v1h-1zM37 29h1v1h-1zM70 44h1v1h-1zM83 51h1v1h-1zM13 54h1v1h-1zM44 62h1v1h-1zM82 66h1v1h-1zM38 70h1v1h-1z" /><path fill="#b4c7d6" d="M45 7h1v1h-1zM78 19h1v1h-1zM82 52h1v1h-1z" /><path fill="#7195b3" d="M46 7h1v1h-1zM73 68h1v1h-1z" /><path fill="#3d6e96" d="M47 7h1v1h-1zM44 30h1v1h-1zM89 34h1v1h-1zM29 43h1v1h-1zM70 87h1v1h-1z" /><path fill="#45759b" d="M57 7h1v1h-1zM65 10h1v1h-1zM42 34h1v1h-1zM69 44h1v1h-1z" /><path fill="#7094b2" d="M58 7h1v1h-1zM40 29h1v1h-1zM50 42h1v1h-1z" /><path fill="#e0e8ee" d="M60 7h1v1h-1zM74 32h1v1h-1z" /><path fill="#fafbfc" d="M65 7h1v1h-1zM37 10h1v1h-1zM72 12h1v1h-1zM69 28h1v1h-1zM43 31h1v1h-1zM80 39h1v1h-1zM32 40h1v1h-1zM71 46h1v1h-1zM46 54h1v1h-1zM78 58h1v1h-1zM92 62h1v1h-1zM48 66h1v1h-1zM78 66h1v1h-1zM21 68h1v1h-1zM73 74h1v1h-1z" /><path fill="#aac0d1" d="M66 7h1v1h-1zM82 7h1v1h-1z" /><path fill="#47769c" d="M67 7h1v1h-1zM81 24h1v1h-1zM72 42h1v1h-1z" /><path fill="#5782a4" d="M81 7h1v1h-1zM14 9h1v1h-1zM71 10h1v1h-1zM38 26h1v1h-1zM15 57h1v1h-1zM20 66h1v1h-1z" /><path fill="#f5f7f9" d="M83 7h1v1h-1zM67 8h1v1h-1zM74 14h1v1h-1zM30 31h1v1h-1zM30 42h1v1h-1zM72 48h1v1h-1zM84 49h1v1h-1z" /><path fill="#2b2b2b" d="M88 7h1v1h-1zM31 70h1v1h-1z" /><path fill="#fbfcfd" d="M14 8h1v1h-1zM85 8h1v1h-1zM80 24h1v1h-1zM73 28h1v1h-1zM69 31h1v1h-1zM68 39h1v1h-1zM71 42h1v1h-1zM74 48h1v1h-1zM45 61h1v1h-1z" /><path fill="#acc1d2" d="M15 8h1v1h-1z" /><path fill="#507ca1" d="M16 8h1v1h-1zM42 9h1v1h-1zM75 48h1v1h-1zM29 49h1v1h-1z" /><path fill="#8daac2" d="M35 8h1v1h-1zM92 19h1v1h-1zM90 32h1v1h-1zM48 65h1v1h-1z" /><path fill="#f7f9fb" d="M37 8h1v1h-1zM32 35h1v1h-1zM85 47h1v1h-1zM80 52h1v1h-1zM15 59h1v1h-1zM87 65h1v1h-1z" /><path fill="#9fb7cb" d="M43 8h1v1h-1zM72 78h1v1h-1z" /><path fill="#43739a" d="M44 8h1v1h-1zM67 29h1v1h-1zM81 35h1v1h-1zM73 44h1v1h-1zM73 66h1v1h-1zM71 82h1v1h-1z" /><path fill="#5984a6" d="M61 8h1v1h-1zM77 58h1v1h-1z" /><path fill="#a3bacd" d="M62 8h1v1h-1zM42 26h1v1h-1z" /><path fill="#f4f7f9" d="M63 8h1v1h-1zM30 32h1v1h-1zM49 36h1v1h-1zM80 38h1v1h-1zM9 40h1v1h-1zM76 63h1v1h-1z" /><path fill="#81a1bb" d="M68 8h1v1h-1zM34 13h1v1h-1z" /><path fill="#45749a" d="M83 8h1v1h-1zM84 47h1v1h-1zM12 48h1v1h-1zM71 48h1v1h-1z" /><path fill="#a9bfd1" d="M84 8h1v1h-1zM87 10h1v1h-1zM33 24h1v1h-1zM51 67h1v1h-1z" /><path fill="#fbfbfb" d="M10 9h1v1h-1zM5 29h1v1h-1zM15 63h1v1h-1z" /><path fill="#82a2bc" d="M37 9h1v1h-1zM76 21h1v1h-1zM80 55h1v1h-1zM76 59h1v1h-1z" /><path fill="#d5dfe8" d="M41 9h1v1h-1z" /><path fill="#417198" d="M63 9h1v1h-1zM38 13h1v1h-1zM16 59h1v1h-1zM52 85h1v1h-1zM66 92h1v1h-1z" /><path fill="#99b3c8" d="M64 9h1v1h-1zM90 13h1v1h-1zM8 17h1v1h-1zM9 38h1v1h-1z" /><path fill="#f2f5f8" d="M65 9h1v1h-1zM48 31h1v1h-1z" /><path fill="#44749a" d="M70 9h1v1h-1zM66 33h1v1h-1z" /><path fill="#5681a4" d="M85 9h1v1h-1zM71 31h1v1h-1z" /><path fill="#dae4eb" d="M86 9h1v1h-1z" /><path fill="#baccda" d="M12 10h1v1h-1zM46 32h1v1h-1zM18 64h1v1h-1z" /><path fill="#6a90af" d="M36 10h1v1h-1zM30 24h1v1h-1z" /><path fill="#b5c8d7" d="M40 10h1v1h-1zM9 14h1v1h-1zM47 44h1v1h-1zM78 51h1v1h-1zM33 59h1v1h-1zM50 61h1v1h-1zM42 65h1v1h-1z" /><path fill="#386b94" d="M41 10h1v1h-1zM33 37h1v1h-1zM26 66h1v1h-1z" /><path fill="#b8cad9" d="M66 10h1v1h-1zM71 14h1v1h-1zM8 34h1v1h-1zM76 56h1v1h-1z" /><path fill="#e8eef2" d="M70 10h1v1h-1zM78 24h1v1h-1zM79 66h1v1h-1zM81 66h1v1h-1z" /><path fill="#8e8e8e" d="M91 10h1v1h-1z" /><path fill="#becfdc" d="M11 11h1v1h-1zM92 23h1v1h-1zM81 26h1v1h-1zM91 29h1v1h-1zM12 50h1v1h-1zM45 58h1v1h-1z" /><path fill="#356892" d="M12 11h1v1h-1zM76 22h1v1h-1zM81 36h1v1h-1zM45 49h1v1h-1zM29 50h1v1h-1zM78 65h1v1h-1zM72 74h1v1h-1zM52 84h1v1h-1z" /><path fill="#4a789e" d="M35 11h1v1h-1zM45 31h1v1h-1zM49 49h1v1h-1z" /><path fill="#f1f4f7" d="M36 11h1v1h-1zM7 30h1v1h-1zM80 37h1v1h-1zM30 50h1v1h-1zM32 50h1v1h-1zM16 61h1v1h-1zM40 66h1v1h-1zM53 91h1v1h-1z" /><path fill="#b1c5d5" d="M39 11h1v1h-1zM72 26h1v1h-1z" /><path fill="#346891" d="M40 11h1v1h-1zM34 12h1v1h-1zM90 14h1v1h-1zM77 16h1v1h-1zM37 26h1v1h-1zM71 39h1v1h-1zM32 59h1v1h-1zM75 59h1v1h-1zM43 65h1v1h-1zM73 65h1v1h-1zM42 66h1v1h-1zM69 89h1v1h-1z" /><path fill="#6e93b1" d="M67 11h1v1h-1zM32 17h1v1h-1zM35 18h1v1h-1zM34 21h1v1h-1zM91 27h1v1h-1zM42 29h1v1h-1zM50 40h1v1h-1z" /><path fill="#eff3f6" d="M68 11h1v1h-1zM76 20h1v1h-1zM30 30h1v1h-1zM69 42h1v1h-1zM80 56h1v1h-1zM89 64h1v1h-1zM20 67h1v1h-1z" /><path fill="#f3f6f9" d="M71 11h1v1h-1zM74 17h1v1h-1zM77 26h1v1h-1zM32 41h1v1h-1zM48 62h1v1h-1zM34 69h1v1h-1z" /><path fill="#698fae" d="M72 11h1v1h-1z" /><path fill="#90acc3" d="M88 11h1v1h-1zM87 41h1v1h-1zM31 61h1v1h-1z" /><path fill="#747474" d="M92 11h1v1h-1zM95 62h1v1h-1zM75 77h1v1h-1z" /><path fill="#767676" d="M7 12h1v1h-1zM55 96h1v1h-1z" /><path fill="#dbe4ec" d="M10 12h1v1h-1z" /><path fill="#3c6e96" d="M11 12h1v1h-1zM33 14h1v1h-1zM34 22h1v1h-1zM43 30h1v1h-1zM13 51h1v1h-1z" /><path fill="#cdd9e4" d="M35 12h1v1h-1zM75 28h1v1h-1zM30 38h1v1h-1zM78 40h1v1h-1z" /><path fill="#cad8e3" d="M38 12h1v1h-1z" /><path fill="#376a93" d="M39 12h1v1h-1zM70 14h1v1h-1zM49 31h1v1h-1zM30 53h1v1h-1zM33 58h1v1h-1zM46 58h1v1h-1z" /><path fill="#4b799e" d="M68 12h1v1h-1zM82 51h1v1h-1zM72 75h1v1h-1z" /><path fill="#d4dfe8" d="M69 12h1v1h-1zM77 28h1v1h-1zM34 68h1v1h-1z" /><path fill="#7195b2" d="M73 12h1v1h-1zM71 26h1v1h-1zM81 62h1v1h-1z" /><path fill="#84a3bd" d="M89 12h1v1h-1z" /><path fill="#545454" d="M93 12h1v1h-1zM92 36h1v1h-1z" /><path fill="#0b0b0b" d="M6 13h1v1h-1zM94 64h1v1h-1z" /><path fill="#ededed" d="M7 13h1v1h-1zM94 25h1v1h-1zM11 54h1v1h-1z" /><path fill="#6189aa" d="M10 13h1v1h-1z" /><path fill="#e9eef3" d="M37 13h1v1h-1zM78 28h1v1h-1zM30 29h1v1h-1zM75 54h1v1h-1zM76 65h1v1h-1z" /><path fill="#c1d1de" d="M70 13h1v1h-1zM36 15h1v1h-1zM38 29h1v1h-1zM10 43h1v1h-1zM42 58h1v1h-1z" /><path fill="#668dad" d="M74 13h1v1h-1zM80 22h1v1h-1zM11 45h1v1h-1zM45 62h1v1h-1z" /><path fill="#696969" d="M6 14h1v1h-1z" /><path fill="#edf2f6" d="M34 14h1v1h-1zM77 53h1v1h-1zM34 54h1v1h-1z" /><path fill="#7397b4" d="M37 14h1v1h-1zM34 53h1v1h-1z" /><path fill="#5983a5" d="M75 14h1v1h-1zM46 27h1v1h-1zM78 31h1v1h-1zM10 41h1v1h-1zM78 48h1v1h-1z" /><path fill="#7a7a7a" d="M94 14h1v1h-1zM31 67h1v1h-1zM24 71h1v1h-1z" /><path fill="#cfcfcf" d="M6 15h1v1h-1zM6 36h1v1h-1z" /><path fill="#5d86a7" d="M9 15h1v1h-1zM56 93h1v1h-1z" /><path fill="#91adc3" d="M33 15h1v1h-1zM44 33h1v1h-1zM77 62h1v1h-1z" /><path fill="#366993" d="M71 15h1v1h-1zM35 19h1v1h-1zM70 26h1v1h-1zM33 50h1v1h-1zM48 52h1v1h-1zM43 54h1v1h-1zM42 57h1v1h-1zM77 63h1v1h-1zM63 93h1v1h-1z" /><path fill="#c3d2df" d="M72 15h1v1h-1zM76 16h1v1h-1zM32 55h1v1h-1z" /><path fill="#e4ebf0" d="M75 15h1v1h-1zM44 29h1v1h-1zM30 34h1v1h-1zM85 62h1v1h-1zM80 66h1v1h-1z" /><path fill="#4c799e" d="M91 15h1v1h-1zM35 54h1v1h-1z" /><path fill="#cdcdcd" d="M94 15h1v1h-1z" /><path fill="#356992" d="M32 16h1v1h-1zM77 24h1v1h-1zM78 29h1v1h-1zM35 31h1v1h-1zM33 39h1v1h-1zM10 40h1v1h-1zM46 46h1v1h-1zM40 57h1v1h-1zM80 62h1v1h-1z" /><path fill="#eaeff4" d="M33 16h1v1h-1zM92 25h1v1h-1zM37 27h1v1h-1zM47 52h1v1h-1z" /><path fill="#5a84a6" d="M36 16h1v1h-1zM42 30h1v1h-1zM78 46h1v1h-1zM76 50h1v1h-1zM77 65h1v1h-1zM73 67h1v1h-1z" /><path fill="#3b6d95" d="M72 16h1v1h-1zM33 38h1v1h-1zM44 68h1v1h-1zM53 89h1v1h-1z" /><path fill="#d5e0e9" d="M92 16h1v1h-1zM67 36h1v1h-1zM78 36h1v1h-1z" /><path fill="#686868" d="M5 17h1v1h-1z" /><path fill="#c4d3df" d="M35 17h1v1h-1z" /><path fill="#4f7ca0" d="M73 17h1v1h-1zM45 32h1v1h-1z" /><path fill="#85a4bd" d="M77 17h1v1h-1zM33 25h1v1h-1zM46 33h1v1h-1zM74 53h1v1h-1zM14 55h1v1h-1zM90 62h1v1h-1z" /><path fill="#303030" d="M95 17h1v1h-1zM86 68h1v1h-1zM48 77h1v1h-1zM53 95h1v1h-1z" /><path fill="#a2a2a2" d="M5 18h1v1h-1zM39 64h1v1h-1z" /><path fill="#6088a9" d="M8 18h1v1h-1zM41 29h1v1h-1zM76 31h1v1h-1z" /><path fill="#bbccda" d="M32 18h1v1h-1zM80 23h1v1h-1zM13 53h1v1h-1z" /><path fill="#7598b4" d="M74 18h1v1h-1zM33 28h1v1h-1zM48 51h1v1h-1z" /><path fill="#f5f8fa" d="M77 18h1v1h-1zM78 26h1v1h-1zM17 63h1v1h-1zM19 66h1v1h-1zM63 94h1v1h-1z" /><path fill="#49789d" d="M78 18h1v1h-1zM18 63h1v1h-1zM54 91h1v1h-1z" /><path fill="#96b1c6" d="M92 18h1v1h-1zM91 28h1v1h-1zM47 41h1v1h-1zM16 60h1v1h-1zM17 62h1v1h-1zM48 63h1v1h-1zM45 68h1v1h-1z" /><path fill="#fcfdfd" d="M7 19h1v1h-1zM69 36h1v1h-1zM88 40h1v1h-1zM45 59h1v1h-1zM46 68h1v1h-1zM51 84h1v1h-1z" /><path fill="#396b94" d="M8 19h1v1h-1zM66 32h1v1h-1zM43 34h1v1h-1zM88 37h1v1h-1zM68 42h1v1h-1zM11 44h1v1h-1zM73 52h1v1h-1zM74 54h1v1h-1z" /><path fill="#f9fbfc" d="M32 19h1v1h-1zM33 22h1v1h-1zM90 34h1v1h-1z" /><path fill="#535353" d="M95 19h1v1h-1z" /><path fill="#030303" d="M4 20h1v1h-1zM93 34h1v1h-1zM9 51h1v1h-1zM87 59h1v1h-1zM37 64h1v1h-1zM87 68h1v1h-1z" /><path fill="#f7f7f7" d="M5 20h1v1h-1zM91 65h1v1h-1z" /><path fill="#799bb7" d="M31 20h1v1h-1z" /><path fill="#a9bfd0" d="M34 20h1v1h-1zM7 27h1v1h-1z" /><path fill="#427299" d="M75 20h1v1h-1zM78 30h1v1h-1zM83 49h1v1h-1zM32 56h1v1h-1zM83 65h1v1h-1z" /><path fill="#5c85a7" d="M79 20h1v1h-1zM81 53h1v1h-1zM21 67h1v1h-1z" /><path fill="#8ca9c1" d="M92 20h1v1h-1zM81 50h1v1h-1z" /><path fill="#5a5a5a" d="M95 20h1v1h-1z" /><path fill="#adc2d3" d="M31 21h1v1h-1zM92 22h1v1h-1zM49 34h1v1h-1zM89 36h1v1h-1zM70 45h1v1h-1zM81 46h1v1h-1zM15 58h1v1h-1zM51 66h1v1h-1z" /><path fill="#cddae4" d="M79 21h1v1h-1zM40 31h1v1h-1zM32 43h1v1h-1z" /><path fill="#9ab4c9" d="M92 21h1v1h-1zM78 25h1v1h-1zM32 47h1v1h-1zM46 48h1v1h-1zM72 49h1v1h-1z" /><path fill="#292929" d="M4 22h1v1h-1z" /><path fill="#b3c6d6" d="M7 22h1v1h-1z" /><path fill="#e1e9ef" d="M31 22h1v1h-1zM30 41h1v1h-1zM32 42h1v1h-1zM33 56h1v1h-1zM77 57h1v1h-1zM76 64h1v1h-1z" /><path fill="#dfe7ee" d="M77 22h1v1h-1zM70 27h1v1h-1zM78 38h1v1h-1zM35 55h1v1h-1z" /><path fill="#3c3c3c" d="M4 23h1v1h-1zM73 89h1v1h-1z" /><path fill="#a5bccf" d="M7 23h1v1h-1zM89 62h1v1h-1zM90 63h1v1h-1z" /><path fill="#46759b" d="M30 23h1v1h-1zM91 26h1v1h-1zM87 40h1v1h-1zM74 46h1v1h-1zM47 54h1v1h-1zM37 69h1v1h-1z" /><path fill="#d3dee7" d="M33 23h1v1h-1zM69 32h1v1h-1zM49 60h1v1h-1z" /><path fill="#7d9eb9" d="M77 23h1v1h-1zM12 49h1v1h-1zM44 63h1v1h-1z" /><path fill="#454545" d="M4 24h1v1h-1zM83 56h1v1h-1z" /><path fill="#9cb5ca" d="M7 24h1v1h-1zM73 45h1v1h-1z" /><path fill="#424242" d="M4 25h1v1h-1zM48 71h1v1h-1z" /><path fill="#8daac1" d="M30 25h1v1h-1zM72 32h1v1h-1zM73 51h1v1h-1zM41 66h1v1h-1zM60 94h1v1h-1z" /><path fill="#8ba9c0" d="M81 25h1v1h-1zM78 43h1v1h-1zM88 64h1v1h-1zM85 65h1v1h-1zM35 68h1v1h-1z" /><path fill="#3e3e3e" d="M4 26h1v1h-1zM38 64h1v1h-1zM34 65h1v1h-1zM48 74h1v1h-1zM48 75h1v1h-1z" /><path fill="#aec3d3" d="M30 26h1v1h-1zM67 37h1v1h-1zM81 47h1v1h-1z" /><path fill="#6b91af" d="M33 26h1v1h-1zM9 37h1v1h-1z" /><path fill="#7c9db8" d="M39 26h1v1h-1zM81 33h1v1h-1zM71 84h1v1h-1z" /><path fill="#9bb4c9" d="M40 26h1v1h-1z" /><path fill="#a5bcce" d="M41 26h1v1h-1zM81 49h1v1h-1zM51 69h1v1h-1zM67 92h1v1h-1z" /><path fill="#89a7bf" d="M43 26h1v1h-1zM73 69h1v1h-1z" /><path fill="#dde6ed" d="M73 26h1v1h-1zM67 31h1v1h-1zM8 35h1v1h-1zM30 35h1v1h-1zM86 62h1v1h-1zM28 65h1v1h-1z" /><path fill="#c5d3e0" d="M30 27h1v1h-1zM70 30h1v1h-1zM76 51h1v1h-1zM83 62h1v1h-1z" /><path fill="#5882a5" d="M35 27h1v1h-1z" /><path fill="#abc0d2" d="M36 27h1v1h-1zM44 31h1v1h-1zM74 47h1v1h-1zM65 93h1v1h-1z" /><path fill="#dee7ed" d="M81 27h1v1h-1zM74 28h1v1h-1zM77 59h1v1h-1zM80 61h1v1h-1zM84 62h1v1h-1z" /><path fill="#999999" d="M94 27h1v1h-1zM10 52h1v1h-1zM67 95h1v1h-1z" /><path fill="#1e1e1e" d="M4 28h1v1h-1z" /><path fill="#ccd9e3" d="M34 28h1v1h-1zM47 37h1v1h-1zM41 58h1v1h-1z" /><path fill="#f6f8fa" d="M46 28h1v1h-1zM46 31h1v1h-1zM10 44h1v1h-1zM72 44h1v1h-1zM47 46h1v1h-1zM73 46h1v1h-1z" /><path fill="#6990ae" d="M47 28h1v1h-1zM81 42h1v1h-1zM29 48h1v1h-1zM37 56h1v1h-1z" /><path fill="#c9d6e2" d="M76 28h1v1h-1z" /><path fill="#6a6a6a" d="M94 28h1v1h-1zM32 66h1v1h-1zM76 69h1v1h-1zM22 71h1v1h-1z" /><path fill="#93afc5" d="M43 29h1v1h-1zM48 59h1v1h-1zM51 63h1v1h-1z" /><path fill="#f0f4f7" d="M47 29h1v1h-1zM32 34h1v1h-1zM67 35h1v1h-1zM89 37h1v1h-1zM78 52h1v1h-1z" /><path fill="#48769c" d="M48 29h1v1h-1zM8 31h1v1h-1zM70 31h1v1h-1z" /><path fill="#f1f5f8" d="M68 29h1v1h-1zM43 57h1v1h-1zM47 67h1v1h-1zM39 70h2v1h-2z" /><path fill="#d9e3eb" d="M71 29h1v1h-1zM30 40h1v1h-1z" /><path fill="#7a9cb7" d="M72 29h1v1h-1zM34 31h1v1h-1zM75 32h1v1h-1zM46 56h1v1h-1z" /><path fill="#cfdbe5" d="M81 29h1v1h-1zM78 61h1v1h-1z" /><path fill="#363636" d="M94 29h1v1h-1z" /><path fill="#e1e1e1" d="M5 30h1v1h-1zM33 66h1v1h-1zM48 69h1v1h-1z" /><path fill="#88a6bf" d="M36 30h1v1h-1zM72 30h1v1h-1z" /><path fill="#3d6f97" d="M37 30h1v1h-1zM46 35h1v1h-1zM50 37h1v1h-1zM81 40h1v1h-1zM72 50h1v1h-1zM46 57h1v1h-1zM76 57h1v1h-1zM87 64h1v1h-1zM55 92h1v1h-1z" /><path fill="#c8d6e1" d="M45 30h1v1h-1zM90 33h1v1h-1zM9 39h1v1h-1zM48 50h1v1h-1zM79 55h1v1h-1z" /><path fill="#3a6c94" d="M71 30h1v1h-1z" /><path fill="#eef2f6" d="M74 30h1v1h-1zM73 50h1v1h-1zM40 58h1v1h-1z" /><path fill="#dce5ec" d="M75 30h1v1h-1z" /><path fill="#5d87a8" d="M76 30h1v1h-1zM46 47h1v1h-1z" /><path fill="#c7d5e1" d="M81 30h1v1h-1zM62 94h1v1h-1z" /><path fill="#bcbcbc" d="M5 31h1v1h-1zM37 72h1v1h-1z" /><path fill="#ecf1f5" d="M33 31h1v1h-1zM32 32h1v1h-1zM37 67h1v1h-1z" /><path fill="#b2c6d6" d="M81 31h1v1h-1z" /><path fill="#527ea2" d="M90 31h1v1h-1zM36 68h1v1h-1z" /><path fill="#c0c0c0" d="M93 31h1v1h-1zM76 68h1v1h-1z" /><path fill="#6d92b0" d="M8 32h1v1h-1z" /><path fill="#c6d5e0" d="M40 32h1v1h-1zM78 35h1v1h-1zM68 40h1v1h-1zM34 58h1v1h-1zM88 62h1v1h-1z" /><path fill="#638bab" d="M49 32h1v1h-1zM70 37h1v1h-1zM29 45h1v1h-1zM78 45h1v1h-1zM81 51h1v1h-1z" /><path fill="#7598b5" d="M78 32h1v1h-1zM67 38h1v1h-1zM78 44h1v1h-1zM30 62h1v1h-1z" /><path fill="#97b2c7" d="M81 32h1v1h-1z" /><path fill="#5e5e5e" d="M5 33h1v1h-1zM8 46h1v1h-1zM59 97h1v1h-1z" /><path fill="#ebf0f4" d="M30 33h1v1h-1zM44 69h1v1h-1z" /><path fill="#8aa8c0" d="M49 33h1v1h-1zM69 90h1v1h-1z" /><path fill="#393939" d="M93 33h1v1h-1zM25 71h1v1h-1zM48 76h1v1h-1z" /><path fill="#618aaa" d="M46 34h1v1h-1zM86 43h1v1h-1zM47 62h1v1h-1zM48 64h1v1h-1z" /><path fill="#3e6f97" d="M66 34h1v1h-1zM9 36h1v1h-1zM17 61h1v1h-1z" /><path fill="#c0d0dd" d="M69 34h1v1h-1zM38 57h1v1h-1z" /><path fill="#5e87a8" d="M81 34h1v1h-1zM42 69h1v1h-1z" /><path fill="#f9f9f9" d="M6 35h1v1h-1zM87 60h1v1h-1z" /><path fill="#d1dde6" d="M49 35h1v1h-1zM54 92h1v1h-1zM57 94h1v1h-1z" /><path fill="#7296b3" d="M89 35h1v1h-1z" /><path fill="#a6a6a6" d="M92 35h1v1h-1zM77 68h1v1h-1zM42 72h1v1h-1zM51 92h1v1h-1z" /><path fill="#969696" d="M6 37h1v1h-1z" /><path fill="#5c5c5c" d="M6 38h1v1h-1zM60 97h1v1h-1z" /><path fill="#b7c9d8" d="M47 38h1v1h-1zM78 41h1v1h-1zM43 56h1v1h-1zM73 71h1v1h-1z" /><path fill="#a4bbce" d="M70 38h1v1h-1zM32 60h1v1h-1z" /><path fill="#7699b5" d="M88 38h1v1h-1z" /><path fill="#ababab" d="M91 38h1v1h-1z" /><path fill="#222222" d="M6 39h1v1h-1z" /><path fill="#a2bacd" d="M47 39h1v1h-1zM47 43h1v1h-1zM83 50h1v1h-1zM51 70h1v1h-1z" /><path fill="#3f7097" d="M67 39h1v1h-1zM50 45h1v1h-1zM50 60h1v1h-1z" /><path fill="#e6edf2" d="M70 39h1v1h-1zM49 46h1v1h-1zM74 52h1v1h-1zM73 73h1v1h-1z" /><path fill="#515151" d="M91 39h1v1h-1zM74 85h1v1h-1z" /><path fill="#98b2c7" d="M47 40h1v1h-1zM47 53h1v1h-1z" /><path fill="#adadad" d="M7 41h1v1h-1z" /><path fill="#6f94b1" d="M50 41h1v1h-1zM78 49h1v1h-1zM43 55h1v1h-1z" /><path fill="#779ab6" d="M68 41h1v1h-1zM13 52h1v1h-1z" /><path fill="#b9cbd9" d="M71 41h1v1h-1zM32 44h1v1h-1zM75 49h1v1h-1zM74 62h1v1h-1zM38 67h1v1h-1z" /><path fill="#547fa3" d="M81 41h1v1h-1z" /><path fill="#848484" d="M90 41h1v1h-1zM86 50h1v1h-1z" /><path fill="#727272" d="M7 42h1v1h-1z" /><path fill="#89a7c0" d="M10 42h1v1h-1z" /><path fill="#a1b9cc" d="M78 42h1v1h-1zM32 46h1v1h-1zM44 53h1v1h-1z" /><path fill="#678ead" d="M50 43h1v1h-1zM39 57h1v1h-1zM46 67h1v1h-1zM72 76h1v1h-1z" /><path fill="#7e9fba" d="M81 43h1v1h-1zM39 67h1v1h-1z" /><path fill="#b8b8b8" d="M89 43h1v1h-1zM39 60h1v1h-1zM31 69h1v1h-1z" /><path fill="#020202" d="M7 44h1v1h-1zM40 61h1v1h-1zM33 65h1v1h-1zM71 93h1v1h-1z" /><path fill="#e9e9e9" d="M8 44h1v1h-1zM10 51h1v1h-1zM63 96h1v1h-1z" /><path fill="#517ea1" d="M29 44h1v1h-1zM51 62h1v1h-1z" /><path fill="#537fa2" d="M50 44h1v1h-1zM78 47h1v1h-1z" /><path fill="#a5a5a5" d="M8 45h1v1h-1zM82 57h1v1h-1z" /><path fill="#a7bdd0" d="M81 45h1v1h-1zM71 47h1v1h-1zM82 62h1v1h-1zM51 68h1v1h-1zM35 69h1v1h-1z" /><path fill="#4d7a9f" d="M85 45h1v1h-1zM44 52h1v1h-1zM28 64h1v1h-1z" /><path fill="#e7e7e7" d="M88 45h1v1h-1z" /><path fill="#7497b4" d="M29 46h1v1h-1zM29 47h1v1h-1zM30 52h1v1h-1zM68 91h1v1h-1z" /><path fill="#4d7b9f" d="M70 46h1v1h-1zM36 55h1v1h-1z" /><path fill="#a6bdcf" d="M85 46h1v1h-1zM75 60h1v1h-1zM22 68h1v1h-1z" /><path fill="#191919" d="M8 47h1v1h-1z" /><path fill="#bdcedb" d="M49 47h1v1h-1zM30 51h1v1h-1z" /><path fill="#efefef" d="M87 47h1v1h-1zM75 73h1v1h-1z" /><path fill="#0f0f0f" d="M88 47h1v1h-1z" /><path fill="#86a5be" d="M49 48h1v1h-1z" /><path fill="#898989" d="M9 49h1v1h-1z" /><path fill="#87a6be" d="M78 50h1v1h-1z" /><path fill="#f2f2f2" d="M85 51h1v1h-1zM36 59h1v1h-1z" /><path fill="#131313" d="M86 51h1v1h-1zM34 72h1v1h-1zM48 80h1v1h-1z" /><path fill="#c9d7e2" d="M33 52h1v1h-1zM27 66h1v1h-1z" /><path fill="#658dac" d="M77 52h1v1h-1zM47 66h1v1h-1z" /><path fill="#888888" d="M85 52h1v1h-1z" /><path fill="#474747" d="M10 53h1v1h-1z" /><path fill="#b6c9d8" d="M80 53h1v1h-1z" /><path fill="#407198" d="M14 54h1v1h-1zM89 63h1v1h-1zM27 65h1v1h-1z" /><path fill="#7b9db8" d="M31 54h1v1h-1zM19 65h1v1h-1zM52 87h1v1h-1zM70 88h1v1h-1z" /><path fill="#6d6d6d" d="M84 54h1v1h-1zM85 68h1v1h-1z" /><path fill="#789ab6" d="M75 55h1v1h-1z" /><path fill="#d6d6d6" d="M83 55h1v1h-1z" /><path fill="#d1dce6" d="M14 56h1v1h-1z" /><path fill="#d4d4d4" d="M12 57h1v1h-1z" /><path fill="#4e7ba0" d="M33 57h1v1h-1z" /><path fill="#737373" d="M12 58h1v1h-1z" /><path fill="#eeeeee" d="M81 58h1v1h-1zM85 60h2v1h-2zM80 68h1v1h-1z" /><path fill="#e2eaef" d="M47 59h1v1h-1z" /><path fill="#dedede" d="M81 59h1v1h-1z" /><path fill="#565656" d="M82 59h1v1h-1zM35 61h1v1h-1z" /><path fill="#1a1a1a" d="M83 59h1v1h-1zM41 61h1v1h-1zM32 71h1v1h-1z" /><path fill="#232323" d="M88 59h1v1h-1z" /><path fill="#494949" d="M89 59h1v1h-1z" /><path fill="#b5b5b5" d="M92 59h1v1h-1z" /><path fill="#434343" d="M36 60h1v1h-1z" /><path fill="#636363" d="M38 60h1v1h-1z" /><path fill="#262626" d="M13 61h1v1h-1zM14 63h1v1h-1zM48 78h1v1h-1z" /><path fill="#688ead" d="M74 61h1v1h-1z" /><path fill="#c4c4c4" d="M95 61h1v1h-1zM18 68h1v1h-1z" /><path fill="#a8a8a8" d="M14 62h1v1h-1zM45 71h1v1h-1z" /><path fill="#6b6b6b" d="M34 62h1v1h-1zM92 65h1v1h-1z" /><path fill="#717171" d="M41 62h1v1h-1z" /><path fill="#5f88a9" d="M29 63h1v1h-1zM71 83h1v1h-1z" /><path fill="#555555" d="M40 63h1v1h-1z" /><path fill="#fcfcfc" d="M41 63h1v1h-1zM46 70h1v1h-1z" /><path fill="#e5ecf1" d="M74 63h1v1h-1z" /><path fill="#bebebe" d="M94 63h1v1h-1zM19 69h1v1h-1z" /><path fill="#9a9a9a" d="M15 64h1v1h-1zM74 83h1v1h-1z" /><path fill="#a0a0a0" d="M32 64h1v1h-1zM50 90h1v1h-1z" /><path fill="#b1b1b1" d="M93 64h1v1h-1z" /><path fill="#bfbfbf" d="M31 65h1v1h-1zM74 82h1v1h-1z" /><path fill="#b7b7b7" d="M36 65h1v1h-1z" /><path fill="#648bab" d="M84 65h1v1h-1zM64 93h1v1h-1z" /><path fill="#585858" d="M16 66h1v1h-1z" /><path fill="#aaaaaa" d="M90 66h1v1h-1z" /><path fill="#242424" d="M91 66h1v1h-1zM30 67h1v1h-1zM57 97h1v1h-1z" /><path fill="#a3a3a3" d="M17 67h1v1h-1z" /><path fill="#323232" d="M89 67h1v1h-1z" /><path fill="#6c91b0" d="M23 68h1v1h-1z" /><path fill="#83a3bc" d="M24 68h1v1h-1zM72 77h1v1h-1z" /><path fill="#d7d7d7" d="M31 68h1v1h-1zM82 68h1v1h-1z" /><path fill="#d3d3d3" d="M78 68h1v1h-1zM38 72h1v1h-1z" /><path fill="#e2e2e2" d="M79 68h1v1h-1zM49 83h1v1h-1z" /><path fill="#e3e3e3" d="M81 68h1v1h-1zM74 81h1v1h-1z" /><path fill="#bbbbbb" d="M83 68h1v1h-1z" /><path fill="#979797" d="M84 68h1v1h-1z" /><path fill="#878787" d="M20 70h1v1h-1zM71 92h1v1h-1z" /><path fill="#c6c6c6" d="M26 70h1v1h-1z" /><path fill="#282828" d="M27 70h1v1h-1z" /><path fill="#464646" d="M48 70h1v1h-1z" /><path fill="#4b4b4b" d="M76 70h1v1h-1z" /><path fill="#8b8b8b" d="M23 71h1v1h-1z" /><path fill="#9c9c9c" d="M33 71h1v1h-1zM49 86h1v1h-1z" /><path fill="#9fb7ca" d="M51 71h1v1h-1z" /><path fill="#e4e4e4" d="M39 72h1v1h-1z" /><path fill="#c5c5c5" d="M41 72h1v1h-1z" /><path fill="#626262" d="M43 72h1v1h-1z" /><path fill="#1c1c1c" d="M44 72h1v1h-1z" /><path fill="#99afc1" d="M51 72h1v1h-1z" /><path fill="#404040" d="M48 73h1v1h-1zM72 91h1v1h-1z" /><path fill="#99acbb" d="M51 73h1v1h-1z" /><path fill="#9cabb7" d="M51 74h1v1h-1z" /><path fill="#9fadb8" d="M51 75h1v1h-1z" /><path fill="#b2b2b2" d="M75 75h1v1h-1z" /><path fill="#a5b1bb" d="M51 76h1v1h-1z" /><path fill="#939393" d="M75 76h1v1h-1z" /><path fill="#aab5be" d="M51 77h1v1h-1z" /><path fill="#aeb8c1" d="M51 78h1v1h-1z" /><path fill="#b3bdc4" d="M51 79h1v1h-1z" /><path fill="#bdc6cd" d="M51 80h1v1h-1z" /><path fill="#ced4d9" d="M51 81h1v1h-1z" /><path fill="#f3f6f8" d="M72 81h1v1h-1z" /><path fill="#dde2e6" d="M51 82h1v1h-1z" /><path fill="#edf0f2" d="M51 83h1v1h-1z" /><path fill="#b3b3b3" d="M49 85h1v1h-1z" /><path fill="#5b85a7" d="M52 86h1v1h-1z" /><path fill="#cbd8e3" d="M71 86h1v1h-1z" /><path fill="#787878" d="M49 87h1v1h-1z" /><path fill="#f8f9fb" d="M71 87h1v1h-1z" /><path fill="#e0e0e0" d="M73 87h1v1h-1z" /><path fill="#abbfcf" d="M52 88h1v1h-1z" /><path fill="#0c0c0c" d="M49 89h1v1h-1z" /><path fill="#eff2f3" d="M52 89h1v1h-1z" /><path fill="#d8e2ea" d="M70 89h1v1h-1z" /><path fill="#8facc3" d="M53 90h1v1h-1z" /><path fill="#c9c9c9" d="M72 90h1v1h-1z" /><path fill="#fbfbfc" d="M69 91h1v1h-1z" /><path fill="#181818" d="M51 93h1v1h-1z" /><path fill="#f2f5f7" d="M66 93h1v1h-1z" /><path fill="#9d9d9d" d="M70 93h1v1h-1z" /><path fill="#f0f0f0" d="M53 94h1v1h-1z" /><path fill="#dbdbdb" d="M54 95h1v1h-1z" /><path fill="#d5d5d5" d="M56 96h1v1h-1z" /><path fill="#606060" d="M65 96h1v1h-1z" /><path fill="#484848" d="M61 97h1v1h-1z" /></svg>