<svg xmlns="http://www.w3.org/2000/svg" viewBox="0 0 100 100"><path fill="#31dafb" fill-rule="evenodd" stroke="#31dafb" stroke-width=".1" d="M29 9h1v1h-1zm10 13h1v1h-1zm6 1h1v1h-1zm-2 6h1v1h-1zm7 11h1v1h-1zm1 1h1v1h-1zm16 4h1v1h-1zm-6 6h1v1h-1zm23 13h1v1h-1z"/><path fill="#5d87d6" fill-rule="evenodd" stroke="#5d87d6" stroke-width=".1" d="M52 9h1v1h-1zm3 0h1v1h-1zm3 4h1v1h-1zm6 8h1v1h-1zm3 9h1v1h-1zm7 5h1v1h-1zm9 0h1v1h-1zm-8 6h1v1h-1zm3 2h1v1h-1zm10 2h1v1h-1zm8 2h1v1h-1zm-51 27h1v1h-1zm-7 2h1v1h-1zm-20 2h1v1h-1zm25 0h1v1h-1zm-11 7h1v1h-1zm20 5h1v1h-1z"/><path fill="#5d88d6" fill-rule="evenodd" stroke="#5d88d6" stroke-width=".1" d="M53 9h2v1h2v1h1v5h-1v1h-5v-1h-1v-2h-1v-1h1v-3h2zm13 12h2v1h2v1h1v5h-1v2h-5v-1h-2v-2h-1v-3h1v-1h1v-1h2zm12 12h3v1h1v1h1v1h1v1h1v1h-1v2h-1v2h-2v1h-4v-1h-1v-1h-1v-1h-1v-3h1v-2h1v-1h2zm11 12h5v1h1v1h1v1h1v4h-1v2h-1v1h-2v1h-3v-1h-2v-1h-1v-2h-1v-3h1v-3h2zm-60 14h1v1h2v1h1v4h-1v1h-4v-1h-1v-1h-1v-3h1v-1h2zm13 12h1v1h1v1h1v4h-1v1h-1v1h-2v-1h-2v-6h3zm-28 1h5v1h1v1h1v2h-1v2h-2v1h-2v-1h-1v-1h-1zm-11 12h3v1h2v5h-1v1h-4v-1h-1v-2h-1v-1h1v-2h1zm25 0h3v1h1v1h1v3h-1v1h-1v1h-3v-1h-1v-1h-1v-3h1v-1h1zm25 0h3v1h1v1h1v3h-1v1h-1v1h-1v1h-1v-1h-1v-1h-1v-1h-1v-3h1v-1h1z"/><path fill="#5c87d6" fill-rule="evenodd" stroke="#5c87d6" stroke-width=".1" d="M56 9h1v1h-1zm-6 2h1v1h-1zm4 6h1v1h-1zm8 6h1v1h-1zm19 10h1v1h-1zm1 1h1v1h-1zm4 13h1v1h-1zm0 6h1v1h-1zm-58 6h1v1h-1zm2 0h1v1h-1zm-4 5h1v1h-1zm2 2h1v1h-1zm2 0h1v1h-1zm14 6h1v1h-1zm1 1h1v1h-1zm-25 0h1v1h-1zm18 1h1v1h-1zm-18 2h1v1h-1zm-18 8h1v1h-1zm4 0h1v1h-1zm21 0h1v1h-1zm-19 4h1v1h-1zm24 1h1v1h-1zm25 0h1v1h-1zm-30 1h1v1h-1z"/><path fill-rule="evenodd" stroke="#000" stroke-width=".1" d="M3 10h4v1h1v5h-2v1h-2v-1h-2v-5h1zm12 12h5v1h1v5h-1v1h-2v1h-2v-1h-2v-2h-1v-2h1v-2h1zm12 12h5v1h1v1h1v4h-1v2h-2v1h-2v-1h-2v-1h-1v-1h-1v-3h1v-2h1zm12 12h6v1h1v1h1v5h-1v1h-1v1h-6v-1h-1v-2h-1v-4h1v-1h1zm14 11h3v1h2v1h1v2h1v4h-1v1h-1v1h-1v1h-5v-1h-2v-2h-1v-5h1v-1h1v-1h2zm12 12h4v1h1v1h1v1h1v2h1v3h-1v2h-1v1h-1v1h-6v-1h-1v-1h-1v-1h-1v-6h1v-1h1v-1h2z"/><path fill="#31dbfb" fill-rule="evenodd" stroke="#31dbfb" stroke-width=".1" d="M27 10h1v1h-1zm6 2h1v2h-1zm-1 3h1v1h-1zm26 20h1v1h-1zm-3 7h1v1h-1zm16 10h1v1h-1zm-5 3h1v1h-1zm10 2h1v1h-1zm5 0h1v1h-1zm2 2h1v1h-1zm1 1h1v1h-1zm-11 4h1v1h-1zm1 2h1v1h-1zm1 1h1v1h-1zm2 1h1v1h-1z"/><path fill="#32dbfc" fill-rule="evenodd" stroke="#32dbfc" stroke-width=".1" d="M28 10h3v1h1v1h1v3h-1v1h-1v1h-3v-1h-2v-4h1v-1h1zm12 12h4v1h1v1h1v3h-1v2h-2v1h-2v-1h-2v-2h-1v-3h1v-1h1zm12 12h5v1h1v2h1v3h-1v1h-1v1h-2v1h-1v-1h-2v-1h-1v-1h-1v-4h1v-1h1zm16 11h1v1h1v1h1v2h1v3h-1v2h-2v1h-6v-2h-1v-6h2v-1h4zm10 12h2v1h2v1h1v1h1v2h1v2h-1v2h-1v1h-1v1h-2v1h-1v-1h-2v-1h-2v-2h-1v-2h-1v-2h1v-1h1v-1h1v-1h2z"/><path fill="#32dafb" fill-rule="evenodd" stroke="#32dafb" stroke-width=".1" d="M31 10h1v1h-1zm1 1h1v1h-1zm13 16h1v1h-1zm13 9h1v1h-1zm6 9h3v1h-3zm0 1v1h-1v-1zm7 2h1v1h-1zm-2 6h1v1h-1zm0 1v1h-1v-1zm5 10h1v1h-1zm2 2h1v1h-1zm4 1h1v1h-1z"/><path fill="#5d87d5" fill-rule="evenodd" stroke="#5d87d5" stroke-width=".1" d="M57 10h1v1h-1zm-7 4h1v1h-1zm18 7h1v1h-1zm-5 1h1v1h-1zm-1 5h1v1h-1zm2 2h1v1h-1zm13 4h1v1h-1zm-3 7h1v1h-1zm9 0h1v1h-1zm-7 2h1v1h-1zm10 6h1v1h-1zm10 4h1v1h-1zm-79 19h1v1h-1zm28 5h1v1h-1zm-14 8h1v1h-1zm25 0h1v1h-1zm-30 1h1v1h-1zm-25 1h1v1h-1zm7 1h1v1h-1zm-7 1h1v1h-1zm55 2h1v1h-1zm-52 1h1v1h-1z"/><path fill="#32dbfb" fill-rule="evenodd" stroke="#32dbfb" stroke-width=".1" d="M26 11h1v1h-1zm5 5h1v1h-1zm13 6h1v1h-1zm2 3h1v1h-1zm-8 2h1v1h-1zm7 1h1v1h-1zm-5 1h1v1h-1zm14 4h1v1h-1zm-3 1h1v1h-1zm-2 3h1v2h-1zm8 4h1v1h-1zm0 1v1h-1v-1zm-4 0h1v1h-1zm17 4h1v1h-1zm-9 3h1v1h-1zm6 6h1v1h-1zm10 2h1v1h-1zm3 0h1v1h-1zm2 1h1v1h-1zm2 3h1v1h-1z"/><path fill="#5c87d5" fill-rule="evenodd" stroke="#5c87d5" stroke-width=".1" d="M50 12h1v1h-1zm8 0h1v1h-1zm-7 4h1v1h-1zm6 0h1v1h-1zm-4 1h1v1h-1zm2 0h1v1h-1zm15 5h1v1h-1zm1 3h1v1h-1zm23 20h1v1h-1zm-6 10h1v1h-1zm-57 4h1v1h-1zm-4 6h1v1h-1zm-9 6h1v1h-1zm23 0h1v1h-1zm-26 7h1v1h-1zm42 7h1v1h-1zm-24 1h1v1h-1zm-7 3h1v1h-1zm5 1h1v1h-1z"/><path fill="#5c88d6" fill-rule="evenodd" stroke="#5c88d6" stroke-width=".1" d="M58 14h1v1h-1zm23 28h1v1h-1zm-2 1h1v1h-1zm17 10h1v1h-1zm-2 2h1v1h-1zm-61 8h1v1h-1zm-14 9h1v1h-1zm-6 3h1v1h-1zm7 2h1v1h-1zm32 7h1v1h-1zm-2 3h1v1h-1zm-17 1h1v1h-1zm18 1h1v1h-1zm-49 1h1v1h-1z"/><path fill="#5d88d5" fill-rule="evenodd" stroke="#5d88d5" stroke-width=".1" d="M50 15h1v1h-1zm21 9h1v1h-1zm0 2h1v1h-1zm-1 2h1v1h-1zm-4 2h1v1h-1zm9 4h1v1h-1zm9 4h1v1h-1zm3 16h1v1h-1zm-54 8h1v1h-1zm-1 3h1v1h-1zm-16 6h1v1h-1zm22 2h1v1h-1zm-25 1h1v1h-1zm20 13h1v1h-1zm-32 2h1v1h-1zm6 1h1v1h-1z"/><path fill="#32dafc" fill-rule="evenodd" stroke="#32dafc" stroke-width=".1" d="M27 16h1v1h-1zm15 5h1v1h-1zm11 12h1v1h-1zm4 1h1v1h-1zm-5 8h1v1h-1zm10 11h1v1h-1zm20 14h1v1h-1zm-4 1h1v1h-1z"/><path fill="#31dafc" fill-rule="evenodd" stroke="#31dafc" stroke-width=".1" d="M41 21h1v1h-1zm-3 2h1v1h-1zm12 12h1v1h-1zm25 23h1v1h-1zm8 8h1v1h-1z"/><path fill="#5c88d5" fill-rule="evenodd" stroke="#5c88d5" stroke-width=".1" d="M65 21h1v1h-1zm0 9h1v1h-1zm11 3h1v1h-1zm-2 3h1v1h-1zm17 8h1v1h-1zm4 2h1v1h-1zm-9 6h1v1h-1zm9 2h1v1h-1zm-6 1h1v1h-1zm4 0h1v1h-1zm-67 5h1v1h-1zm6 0h1v1h-1zm-3 6h1v1h-1zm9 9h1v1h-1zm7 0h1v1h-1zm-31 2h1v1h-1zm30 0h1v1h-1zm-25 1h1v1h-1zm21 0h1v1h-1zm11 7h1v1h-1zm-43 1h1v1h-1zm-3 5h1v1h-1zm24 0h1v1h-1z"/><path fill="#31dbfc" fill-rule="evenodd" stroke="#31dbfc" stroke-width=".1" d="M55 33h1v1h-1zm3 7h1v1h-1zm3 10h1v1h-1zm4 5h1v1h-1zm9 4h1v1h-1zm-1 4h1v1h-1z"/></svg>