<svg xmlns="http://www.w3.org/2000/svg" viewBox="0 0 100 100" width="1em" height="1em"><path fill="#31dafb" d="M29 9h1v1h-1zM39 22h1v1h-1zM45 23h1v1h-1zM43 29h1v1h-1zM50 40h1v1h-1zM51 41h1v1h-1zM67 45h1v1h-1zM61 51h1v1h-1zM84 64h1v1h-1z" /><path fill="#5d87d6" d="M52 9h1v1h-1zM55 9h1v1h-1zM58 13h1v1h-1zM64 21h1v1h-1zM67 30h1v1h-1zM74 35h1v1h-1zM83 35h1v1h-1zM75 41h1v1h-1zM78 43h1v1h-1zM88 45h1v1h-1zM96 47h1v1h-1zM45 74h1v1h-1zM38 76h1v1h-1zM18 78h1v1h-1zM43 78h1v1h-1zM32 85h1v1h-1zM52 90h1v1h-1z" /><path fill="#5d88d6" d="M53 9h2v1h-2zM51 10h6v1h-6zM51 11h7v1h-7zM51 12h7v1h-7zM50 13h8v1h-8zM51 14h7v1h-7zM51 15h7v1h-7zM52 16h5v1h-5zM66 21h2v1h-2zM64 22h6v1h-6zM63 23h8v1h-8zM62 24h9v1h-9zM62 25h9v1h-9zM62 26h9v1h-9zM63 27h8v1h-8zM63 28h7v1h-7zM65 29h5v1h-5zM78 33h3v1h-3zM76 34h6v1h-6zM75 35h8v1h-8zM75 36h9v1h-9zM74 37h11v1h-11zM74 38h10v1h-10zM74 39h10v1h-10zM75 40h8v1h-8zM76 41h7v1h-7zM77 42h4v1h-4zM89 45h5v1h-5zM87 46h8v1h-8zM87 47h9v1h-9zM87 48h10v1h-10zM86 49h11v1h-11zM86 50h11v1h-11zM86 51h11v1h-11zM87 52h9v1h-9zM87 53h9v1h-9zM88 54h7v1h-7zM90 55h3v1h-3zM29 59h1v1h-1zM27 60h5v1h-5zM26 61h7v1h-7zM26 62h7v1h-7zM26 63h7v1h-7zM27 64h6v1h-6zM28 65h4v1h-4zM42 71h1v1h-1zM14 72h5v1h-5zM39 72h5v1h-5zM14 73h6v1h-6zM39 73h6v1h-6zM14 74h7v1h-7zM39 74h6v1h-6zM14 75h7v1h-7zM39 75h6v1h-6zM14 76h6v1h-6zM39 76h6v1h-6zM15 77h5v1h-5zM39 77h5v1h-5zM16 78h2v1h-2zM41 78h2v1h-2zM3 84h3v1h-3zM28 84h3v1h-3zM53 84h3v1h-3zM2 85h6v1h-6zM27 85h5v1h-5zM52 85h5v1h-5zM2 86h6v1h-6zM26 86h7v1h-7zM51 86h7v1h-7zM1 87h7v1h-7zM26 87h7v1h-7zM51 87h7v1h-7zM2 88h6v1h-6zM26 88h7v1h-7zM51 88h7v1h-7zM2 89h6v1h-6zM27 89h5v1h-5zM52 89h5v1h-5zM3 90h4v1h-4zM28 90h3v1h-3zM53 90h3v1h-3zM54 91h1v1h-1z" /><path fill="#5c87d6" d="M56 9h1v1h-1zM50 11h1v1h-1zM54 17h1v1h-1zM62 23h1v1h-1zM81 33h1v1h-1zM82 34h1v1h-1zM86 47h1v1h-1zM86 53h1v1h-1zM28 59h1v1h-1zM30 59h1v1h-1zM26 64h1v1h-1zM28 66h1v1h-1zM30 66h1v1h-1zM44 72h1v1h-1zM20 73h1v1h-1zM45 73h1v1h-1zM38 74h1v1h-1zM20 76h1v1h-1zM2 84h1v1h-1zM6 84h1v1h-1zM27 84h1v1h-1zM8 88h1v1h-1zM32 89h1v1h-1zM57 89h1v1h-1zM27 90h1v1h-1z" /><path fill="#000000" d="M3 10h4v1h-4zM2 11h6v1h-6zM2 12h6v1h-6zM2 13h6v1h-6zM2 14h6v1h-6zM2 15h6v1h-6zM4 16h2v1h-2zM15 22h5v1h-5zM14 23h7v1h-7zM14 24h7v1h-7zM13 25h8v1h-8zM13 26h8v1h-8zM14 27h7v1h-7zM14 28h6v1h-6zM16 29h2v1h-2zM27 34h5v1h-5zM26 35h7v1h-7zM26 36h8v1h-8zM25 37h9v1h-9zM25 38h9v1h-9zM25 39h9v1h-9zM26 40h7v1h-7zM27 41h6v1h-6zM29 42h2v1h-2zM39 46h6v1h-6zM38 47h8v1h-8zM37 48h10v1h-10zM37 49h10v1h-10zM37 50h10v1h-10zM37 51h10v1h-10zM38 52h9v1h-9zM38 53h8v1h-8zM39 54h6v1h-6zM53 57h3v1h-3zM51 58h7v1h-7zM50 59h9v1h-9zM49 60h10v1h-10zM49 61h11v1h-11zM49 62h11v1h-11zM49 63h11v1h-11zM49 64h11v1h-11zM50 65h9v1h-9zM50 66h8v1h-8zM52 67h5v1h-5zM65 69h4v1h-4zM63 70h7v1h-7zM62 71h9v1h-9zM61 72h11v1h-11zM61 73h11v1h-11zM61 74h12v1h-12zM61 75h12v1h-12zM61 76h12v1h-12zM61 77h11v1h-11zM62 78h10v1h-10zM63 79h8v1h-8zM64 80h6v1h-6z" /><path fill="#31dbfb" d="M27 10h1v1h-1zM33 12h1v1h-1zM33 13h1v1h-1zM32 15h1v1h-1zM58 35h1v1h-1zM55 42h1v1h-1zM71 52h1v1h-1zM66 55h1v1h-1zM76 57h1v1h-1zM81 57h1v1h-1zM83 59h1v1h-1zM84 60h1v1h-1zM73 64h1v1h-1zM74 66h1v1h-1zM75 67h1v1h-1zM77 68h1v1h-1z" /><path fill="#32dbfc" d="M28 10h3v1h-3zM27 11h5v1h-5zM26 12h7v1h-7zM26 13h7v1h-7zM26 14h7v1h-7zM26 15h6v1h-6zM28 16h3v1h-3zM40 22h4v1h-4zM39 23h6v1h-6zM38 24h8v1h-8zM38 25h8v1h-8zM38 26h8v1h-8zM39 27h6v1h-6zM39 28h6v1h-6zM41 29h2v1h-2zM52 34h5v1h-5zM51 35h7v1h-7zM50 36h8v1h-8zM50 37h9v1h-9zM50 38h9v1h-9zM50 39h9v1h-9zM51 40h7v1h-7zM52 41h5v1h-5zM54 42h1v1h-1zM68 45h1v1h-1zM64 46h6v1h-6zM62 47h9v1h-9zM62 48h9v1h-9zM62 49h10v1h-10zM62 50h10v1h-10zM62 51h10v1h-10zM62 52h9v1h-9zM63 53h8v1h-8zM63 54h6v1h-6zM78 57h2v1h-2zM76 58h6v1h-6zM75 59h8v1h-8zM74 60h10v1h-10zM73 61h11v1h-11zM73 62h12v1h-12zM74 63h11v1h-11zM74 64h10v1h-10zM75 65h9v1h-9zM75 66h8v1h-8zM77 67h5v1h-5zM79 68h1v1h-1z" /><path fill="#32dafb" d="M31 10h1v1h-1zM32 11h1v1h-1zM45 27h1v1h-1zM58 36h1v1h-1zM64 45h3v1h-3zM63 46h1v1h-1zM71 48h1v1h-1zM69 54h1v1h-1zM68 55h1v1h-1zM74 65h1v1h-1zM76 67h1v1h-1zM80 68h1v1h-1z" /><path fill="#5d87d5" d="M57 10h1v1h-1zM50 14h1v1h-1zM68 21h1v1h-1zM63 22h1v1h-1zM62 27h1v1h-1zM64 29h1v1h-1zM77 33h1v1h-1zM74 40h1v1h-1zM83 40h1v1h-1zM76 42h1v1h-1zM86 48h1v1h-1zM96 52h1v1h-1zM17 71h1v1h-1zM45 76h1v1h-1zM31 84h1v1h-1zM56 84h1v1h-1zM26 85h1v1h-1zM1 86h1v1h-1zM8 87h1v1h-1zM1 88h1v1h-1zM56 90h1v1h-1zM4 91h1v1h-1z" /><path fill="#32dbfb" d="M26 11h1v1h-1zM31 16h1v1h-1zM44 22h1v1h-1zM46 25h1v1h-1zM38 27h1v1h-1zM45 28h1v1h-1zM40 29h1v1h-1zM54 33h1v1h-1zM51 34h1v1h-1zM49 37h1v1h-1zM49 38h1v1h-1zM57 41h1v1h-1zM53 42h1v1h-1zM56 42h1v1h-1zM70 46h1v1h-1zM61 49h1v1h-1zM67 55h1v1h-1zM77 57h1v1h-1zM80 57h1v1h-1zM82 58h1v1h-1zM84 61h1v1h-1z" /><path fill="#5c87d5" d="M50 12h1v1h-1zM58 12h1v1h-1zM51 16h1v1h-1zM57 16h1v1h-1zM53 17h1v1h-1zM55 17h1v1h-1zM70 22h1v1h-1zM71 25h1v1h-1zM94 45h1v1h-1zM88 55h1v1h-1zM31 59h1v1h-1zM27 65h1v1h-1zM18 71h1v1h-1zM41 71h1v1h-1zM15 78h1v1h-1zM57 85h1v1h-1zM33 86h1v1h-1zM26 89h1v1h-1zM31 90h1v1h-1z" /><path fill="#5c88d6" d="M58 14h1v1h-1zM81 42h1v1h-1zM79 43h1v1h-1zM96 53h1v1h-1zM94 55h1v1h-1zM33 63h1v1h-1zM19 72h1v1h-1zM13 75h1v1h-1zM20 77h1v1h-1zM52 84h1v1h-1zM50 87h1v1h-1zM33 88h1v1h-1zM51 89h1v1h-1zM2 90h1v1h-1z" /><path fill="#5d88d5" d="M50 15h1v1h-1zM71 24h1v1h-1zM71 26h1v1h-1zM70 28h1v1h-1zM66 30h1v1h-1zM75 34h1v1h-1zM84 38h1v1h-1zM87 54h1v1h-1zM33 62h1v1h-1zM32 65h1v1h-1zM16 71h1v1h-1zM38 73h1v1h-1zM13 74h1v1h-1zM33 87h1v1h-1zM1 89h1v1h-1zM7 90h1v1h-1z" /><path fill="#32dafc" d="M27 16h1v1h-1zM42 21h1v1h-1zM53 33h1v1h-1zM57 34h1v1h-1zM52 42h1v1h-1zM62 53h1v1h-1zM82 67h1v1h-1zM78 68h1v1h-1z" /><path fill="#31dafc" d="M41 21h1v1h-1zM38 23h1v1h-1zM50 35h1v1h-1zM75 58h1v1h-1zM83 66h1v1h-1z" /><path fill="#5c88d5" d="M65 21h1v1h-1zM65 30h1v1h-1zM76 33h1v1h-1zM74 36h1v1h-1zM91 44h1v1h-1zM95 46h1v1h-1zM86 52h1v1h-1zM95 54h1v1h-1zM89 55h1v1h-1zM93 55h1v1h-1zM26 60h1v1h-1zM32 60h1v1h-1zM29 66h1v1h-1zM38 75h1v1h-1zM45 75h1v1h-1zM14 77h1v1h-1zM44 77h1v1h-1zM19 78h1v1h-1zM40 78h1v1h-1zM51 85h1v1h-1zM8 86h1v1h-1zM5 91h1v1h-1zM29 91h1v1h-1z" /><path fill="#31dbfc" d="M55 33h1v1h-1zM58 40h1v1h-1zM61 50h1v1h-1zM65 55h1v1h-1zM74 59h1v1h-1zM73 63h1v1h-1z" /></svg>