<svg xmlns="http://www.w3.org/2000/svg" viewBox="0 0 100 100" width="1em" height="1em"><path fill="#55b2b3" d="M1 0h1v1h-1zM59 0h1v1h-1zM0 1h1v1h-1zM37 20h1v1h-1zM37 22h1v1h-1zM35 23h1v1h-1zM78 23h1v1h-1zM39 48h1v1h-1zM80 50h1v1h-1zM39 51h1v1h-1zM23 59h1v1h-1z" /><path fill="#56b2b3" d="M2 0h1v1h-1zM79 19h1v1h-1zM80 21h1v1h-1zM20 29h1v1h-1zM38 49h1v1h-1zM79 51h1v1h-1zM1 57h1v1h-1zM1 86h1v1h-1z" /><path fill="#56b3b4" d="M3 0h56v1h-56zM1 1h60v1h-60zM0 2h61v1h-61zM1 3h60v1h-60zM2 19h1v1h-1zM0 20h37v1h-37zM72 20h8v1h-8zM0 21h38v1h-38zM72 21h8v1h-8zM1 22h36v1h-36zM72 22h8v1h-8zM21 29h6v1h-6zM20 30h8v1h-8zM19 31h9v1h-9zM20 32h7v1h-7zM40 48h40v1h-40zM39 49h41v1h-41zM39 50h41v1h-41zM40 51h39v1h-39zM22 57h1v1h-1zM1 58h22v1h-22zM0 59h23v1h-23zM1 60h22v1h-22zM21 61h1v1h-1zM2 86h12v1h-12zM0 87h14v1h-14zM1 88h13v1h-13zM1 89h13v1h-13z" /><path fill="#55b3b4" d="M60 0h1v1h-1zM61 1h1v1h-1zM1 19h1v1h-1zM73 19h1v1h-1zM78 19h1v1h-1zM36 23h1v1h-1zM27 29h1v1h-1zM2 61h1v1h-1zM0 88h1v1h-1z" /><path fill="#56b2b4" d="M61 2h1v1h-1zM0 3h1v1h-1zM71 21h1v1h-1zM0 22h1v1h-1zM1 23h34v1h-34zM74 23h4v1h-4zM79 23h1v1h-1zM19 30h1v1h-1zM80 49h1v1h-1zM3 57h18v1h-18zM23 58h1v1h-1zM1 61h1v1h-1z" /><path fill="#56b3b3" d="M61 3h1v1h-1zM1 4h2v1h-2zM72 19h1v1h-1zM73 23h1v1h-1zM27 32h1v1h-1zM2 57h1v1h-1zM0 60h1v1h-1zM23 60h1v1h-1z" /><path fill="#55b2b4" d="M3 4h57v1h-57zM3 19h33v1h-33zM74 19h4v1h-4zM80 22h1v1h-1zM21 57h1v1h-1zM0 58h1v1h-1zM3 61h18v1h-18z" /><path fill="#ea5e5e" d="M1 10h18v1h-18zM0 11h19v1h-19zM0 12h18v1h-18zM2 13h15v1h-15zM59 29h26v1h-26zM58 30h28v1h-28zM58 31h27v1h-27zM58 32h27v1h-27zM2 48h7v1h-7zM1 49h8v1h-8zM1 50h8v1h-8zM2 51h6v1h-6zM30 58h21v1h-21zM29 59h23v1h-23zM30 60h21v1h-21zM30 61h1v1h-1zM2 95h25v1h-25zM1 96h26v1h-26zM1 97h27v1h-27zM1 98h27v1h-27zM3 99h23v1h-23z" /><path fill="#f7b93d" d="M24 10h1v1h-1zM13 32h1v1h-1zM57 40h1v1h-1zM85 40h1v1h-1zM61 68h1v1h-1z" /><path fill="#f7ba3e" d="M25 10h50v1h-50zM24 11h52v1h-52zM25 12h50v1h-50zM26 13h48v1h-48zM1 29h12v1h-12zM0 30h14v1h-14zM1 31h13v1h-13zM2 32h11v1h-11zM58 38h1v1h-1zM60 38h23v1h-23zM58 39h27v1h-27zM58 40h27v1h-27zM58 41h27v1h-27zM16 48h16v1h-16zM15 49h18v1h-18zM15 50h18v1h-18zM16 51h16v1h-16zM15 67h45v1h-45zM15 68h46v1h-46zM14 69h47v1h-47zM16 70h44v1h-44zM21 86h6v1h-6zM20 87h8v1h-8zM20 88h8v1h-8zM20 89h8v1h-8z" /><path fill="#f7b93e" d="M75 10h1v1h-1z" /><path fill="#ea5d5d" d="M18 12h1v1h-1zM1 13h1v1h-1zM57 30h1v1h-1zM30 57h20v1h-20zM51 58h1v1h-1zM1 95h1v1h-1zM0 96h1v1h-1zM0 98h1v1h-1zM1 99h1v1h-1z" /><path fill="#f6ba3e" d="M24 12h1v1h-1zM75 12h1v1h-1zM83 38h1v1h-1zM83 42h1v1h-1zM32 48h1v1h-1zM61 69h1v1h-1z" /><path fill="#e95d5d" d="M17 13h1v1h-1zM57 31h1v1h-1zM85 31h1v1h-1zM1 48h1v1h-1zM1 51h1v1h-1zM8 51h1v1h-1zM50 57h1v1h-1zM0 97h1v1h-1zM26 99h1v1h-1z" /><path fill="#f6b93e" d="M25 13h1v1h-1zM74 13h1v1h-1zM13 29h1v1h-1zM59 42h24v1h-24zM60 67h1v1h-1zM14 68h1v1h-1zM20 86h1v1h-1zM27 86h1v1h-1zM19 87h1v1h-1z" /><path fill="#55b3b3" d="M36 19h1v1h-1zM80 20h1v1h-1zM38 50h1v1h-1zM22 61h1v1h-1z" /><path fill="#be84be" d="M44 19h20v1h-20zM65 19h1v1h-1zM44 23h1v1h-1zM3 38h23v1h-23zM0 39h1v1h-1zM0 41h1v1h-1zM1 42h1v1h-1zM26 42h1v1h-1zM57 59h1v1h-1zM58 61h15v1h-15zM1 70h1v1h-1zM26 76h1v1h-1zM0 79h1v1h-1zM3 80h23v1h-23z" /><path fill="#bf84bf" d="M64 19h1v1h-1zM43 22h1v1h-1zM45 23h20v1h-20zM2 38h1v1h-1zM28 40h1v1h-1zM3 42h23v1h-23zM59 57h14v1h-14zM57 60h1v1h-1zM74 61h1v1h-1zM0 69h1v1h-1zM8 70h1v1h-1zM1 76h1v1h-1zM3 76h23v1h-23zM2 80h1v1h-1zM26 80h2v1h-2z" /><path fill="#be85be" d="M43 20h1v1h-1zM0 40h1v1h-1zM58 57h1v1h-1zM57 58h1v1h-1zM75 58h1v1h-1zM75 60h1v1h-1zM73 61h1v1h-1zM1 67h1v1h-1zM8 67h1v1h-1zM0 77h1v1h-1zM0 78h1v1h-1zM1 80h1v1h-1z" /><path fill="#bf85bf" d="M44 20h22v1h-22zM43 21h24v1h-24zM44 22h22v1h-22zM1 38h1v1h-1zM26 38h1v1h-1zM1 39h27v1h-27zM1 40h27v1h-27zM1 41h27v1h-27zM2 42h1v1h-1zM73 57h2v1h-2zM58 58h17v1h-17zM58 59h18v1h-18zM58 60h17v1h-17zM2 67h6v1h-6zM0 68h9v1h-9zM1 69h8v1h-8zM2 70h6v1h-6zM2 76h1v1h-1zM1 77h27v1h-27zM1 78h28v1h-28zM1 79h27v1h-27z" /><path fill="#e95e5e" d="M58 29h1v1h-1zM0 49h1v1h-1zM0 50h1v1h-1zM29 58h1v1h-1zM29 60h1v1h-1zM51 60h1v1h-1zM31 61h20v1h-20zM27 96h1v1h-1zM28 97h1v1h-1zM2 99h1v1h-1zM27 99h1v1h-1z" /><path fill="#f7ba3d" d="M0 31h1v1h-1zM59 38h1v1h-1zM84 38h1v1h-1z" /><path fill="#f6b93d" d="M1 32h1v1h-1zM57 41h1v1h-1zM15 48h1v1h-1zM14 49h1v1h-1zM15 51h1v1h-1zM32 51h1v1h-1z" /><path fill="#f6ba3d" d="M57 39h1v1h-1zM58 42h1v1h-1zM14 50h1v1h-1zM15 70h1v1h-1zM60 70h1v1h-1zM19 88h1v1h-1z" /></svg>