<svg xmlns="http://www.w3.org/2000/svg" viewBox="0 0 100 100" width="1em" height="1em"><path fill="#001e36" d="M14 1h1v1h-1zM17 1h66v1h-66zM85 1h1v1h-1zM11 2h78v1h-78zM10 3h80v1h-80zM8 4h84v1h-84zM7 5h86v1h-86zM6 6h88v1h-88zM5 7h90v1h-90zM3 8h93v1h-93zM3 9h94v1h-94zM3 10h95v1h-95zM2 11h96v1h-96zM1 12h97v1h-97zM1 13h98v1h-98zM1 14h98v1h-98zM1 15h98v1h-98zM1 16h98v1h-98zM1 17h98v1h-98zM1 18h98v1h-98zM0 19h100v1h-100zM0 20h100v1h-100zM0 21h100v1h-100zM0 22h100v1h-100zM0 23h100v1h-100zM0 24h100v1h-100zM0 25h26v1h-26zM40 25h60v1h-60zM0 26h22v1h-22zM45 26h55v1h-55zM0 27h22v1h-22zM47 27h53v1h-53zM0 28h22v1h-22zM49 28h51v1h-51zM0 29h22v1h-22zM50 29h50v1h-50zM0 30h22v1h-22zM51 30h49v1h-49zM0 31h22v1h-22zM52 31h48v1h-48zM0 32h22v1h-22zM52 32h48v1h-48zM0 33h22v1h-22zM53 33h47v1h-47zM0 34h22v1h-22zM34 34h2v1h-2zM53 34h47v1h-47zM0 35h22v1h-22zM32 35h9v1h-9zM54 35h46v1h-46zM0 36h22v1h-22zM32 36h10v1h-10zM54 36h11v1h-11zM79 36h21v1h-21zM0 37h22v1h-22zM32 37h11v1h-11zM54 37h9v1h-9zM81 37h19v1h-19zM0 38h22v1h-22zM32 38h12v1h-12zM54 38h8v1h-8zM81 38h19v1h-19zM0 39h22v1h-22zM32 39h12v1h-12zM54 39h7v1h-7zM81 39h19v1h-19zM0 40h22v1h-22zM32 40h12v1h-12zM54 40h6v1h-6zM81 40h19v1h-19zM0 41h22v1h-22zM32 41h12v1h-12zM54 41h5v1h-5zM81 41h19v1h-19zM0 42h22v1h-22zM32 42h12v1h-12zM54 42h5v1h-5zM81 42h19v1h-19zM0 43h22v1h-22zM32 43h12v1h-12zM54 43h4v1h-4zM81 43h19v1h-19zM0 44h22v1h-22zM32 44h11v1h-11zM54 44h4v1h-4zM69 44h6v1h-6zM81 44h19v1h-19zM0 45h22v1h-22zM32 45h10v1h-10zM54 45h4v1h-4zM68 45h10v1h-10zM81 45h19v1h-19zM0 46h22v1h-22zM32 46h9v1h-9zM54 46h4v1h-4zM68 46h32v1h-32zM0 47h22v1h-22zM32 47h5v1h-5zM53 47h5v1h-5zM69 47h31v1h-31zM0 48h22v1h-22zM53 48h5v1h-5zM72 48h28v1h-28zM0 49h22v1h-22zM52 49h6v1h-6zM74 49h26v1h-26zM0 50h22v1h-22zM52 50h7v1h-7zM76 50h24v1h-24zM0 51h22v1h-22zM51 51h8v1h-8zM78 51h22v1h-22zM0 52h22v1h-22zM50 52h10v1h-10zM80 52h20v1h-20zM0 53h22v1h-22zM48 53h13v1h-13zM81 53h19v1h-19zM0 54h22v1h-22zM47 54h15v1h-15zM82 54h18v1h-18zM0 55h22v1h-22zM44 55h20v1h-20zM82 55h18v1h-18zM0 56h22v1h-22zM32 56h2v1h-2zM36 56h29v1h-29zM83 56h17v1h-17zM0 57h22v1h-22zM32 57h36v1h-36zM83 57h17v1h-17zM0 58h22v1h-22zM32 58h38v1h-38zM83 58h17v1h-17zM0 59h22v1h-22zM32 59h40v1h-40zM83 59h17v1h-17zM0 60h22v1h-22zM32 60h26v1h-26zM60 60h13v1h-13zM83 60h17v1h-17zM0 61h22v1h-22zM32 61h26v1h-26zM63 61h10v1h-10zM83 61h17v1h-17zM0 62h22v1h-22zM32 62h26v1h-26zM67 62h4v1h-4zM83 62h17v1h-17zM0 63h22v1h-22zM32 63h26v1h-26zM83 63h17v1h-17zM0 64h22v1h-22zM32 64h26v1h-26zM82 64h18v1h-18zM0 65h22v1h-22zM32 65h26v1h-26zM82 65h18v1h-18zM0 66h22v1h-22zM32 66h26v1h-26zM81 66h19v1h-19zM0 67h22v1h-22zM32 67h26v1h-26zM80 67h20v1h-20zM0 68h22v1h-22zM32 68h26v1h-26zM79 68h21v1h-21zM0 69h22v1h-22zM32 69h27v1h-27zM78 69h22v1h-22zM0 70h62v1h-62zM75 70h25v1h-25zM0 71h100v1h-100zM0 72h100v1h-100zM0 73h100v1h-100zM0 74h100v1h-100zM0 75h100v1h-100zM0 76h100v1h-100zM0 77h100v1h-100zM0 78h100v1h-100zM0 79h100v1h-100zM0 80h100v1h-100zM1 81h99v1h-99zM1 82h98v1h-98zM1 83h98v1h-98zM1 84h99v1h-99zM1 85h98v1h-98zM2 86h96v1h-96zM2 87h97v1h-97zM2 88h96v1h-96zM3 89h94v1h-94zM3 90h94v1h-94zM4 91h92v1h-92zM5 92h91v1h-91zM6 93h88v1h-88zM8 94h84v1h-84zM8 95h83v1h-83zM10 96h79v1h-79zM14 97h72v1h-72zM18 98h64v1h-64z" /><path fill="#001e35" d="M15 1h2v1h-2zM83 1h2v1h-2zM9 3h1v1h-1zM90 3h1v1h-1zM7 4h1v1h-1zM6 5h1v1h-1zM5 6h1v1h-1zM94 6h1v1h-1zM4 7h1v1h-1zM95 7h1v1h-1zM2 10h1v1h-1zM98 12h1v1h-1zM99 15h1v1h-1zM0 16h1v1h-1zM0 18h1v1h-1zM99 18h1v1h-1zM97 89h1v1h-1zM4 92h1v1h-1zM5 93h1v1h-1zM94 93h1v1h-1zM7 94h1v1h-1zM92 94h1v1h-1zM91 95h1v1h-1zM13 97h1v1h-1zM86 97h1v1h-1z" /><path fill="#001d35" d="M92 4h1v1h-1zM96 8h1v1h-1zM0 17h1v1h-1zM0 81h1v1h-1zM0 82h1v1h-1zM0 83h1v1h-1zM1 87h1v1h-1zM2 89h1v1h-1zM89 96h1v1h-1zM12 97h1v1h-1z" /><path fill="#001d36" d="M93 5h1v1h-1zM0 15h1v1h-1zM99 16h1v1h-1zM99 17h1v1h-1zM99 82h1v1h-1zM99 83h1v1h-1zM0 84h1v1h-1zM1 86h1v1h-1zM98 86h1v1h-1zM87 97h1v1h-1z" /><path fill="#02223c" d="M26 25h1v1h-1zM43 37h1v1h-1zM58 43h1v1h-1z" /><path fill="#032743" d="M27 25h2v1h-2zM32 34h2v1h-2z" /><path fill="#062e4e" d="M29 25h1v1h-1zM44 41h1v1h-1z" /><path fill="#073051" d="M30 25h2v1h-2z" /><path fill="#0a3a5e" d="M32 25h5v1h-5z" /><path fill="#073253" d="M37 25h1v1h-1zM41 46h1v1h-1z" /><path fill="#052d4b" d="M38 25h1v1h-1z" /><path fill="#012139" d="M39 25h1v1h-1zM49 52h1v1h-1z" /><path fill="#15598d" d="M22 26h1v1h-1z" /><path fill="#2fa4f9" d="M23 26h1v1h-1zM31 48h1v1h-1zM61 52h1v1h-1zM43 54h1v1h-1zM66 63h1v1h-1z" /><path fill="#31a8ff" d="M24 26h15v1h-15zM23 27h21v1h-21zM23 28h23v1h-23zM23 29h25v1h-25zM23 30h26v1h-26zM23 31h27v1h-27zM23 32h28v1h-28zM23 33h28v1h-28zM23 34h8v1h-8zM42 34h10v1h-10zM23 35h8v1h-8zM43 35h9v1h-9zM23 36h8v1h-8zM44 36h9v1h-9zM23 37h8v1h-8zM45 37h8v1h-8zM66 37h13v1h-13zM23 38h8v1h-8zM45 38h8v1h-8zM64 38h16v1h-16zM23 39h8v1h-8zM45 39h8v1h-8zM63 39h17v1h-17zM23 40h8v1h-8zM45 40h8v1h-8zM61 40h19v1h-19zM23 41h8v1h-8zM45 41h8v1h-8zM61 41h19v1h-19zM23 42h8v1h-8zM45 42h8v1h-8zM60 42h20v1h-20zM23 43h8v1h-8zM45 43h8v1h-8zM60 43h8v1h-8zM76 43h4v1h-4zM23 44h8v1h-8zM45 44h8v1h-8zM59 44h8v1h-8zM79 44h1v1h-1zM23 45h8v1h-8zM44 45h9v1h-9zM59 45h8v1h-8zM23 46h8v1h-8zM43 46h9v1h-9zM59 46h8v1h-8zM23 47h8v1h-8zM42 47h10v1h-10zM59 47h8v1h-8zM23 48h8v1h-8zM38 48h13v1h-13zM59 48h10v1h-10zM23 49h28v1h-28zM60 49h11v1h-11zM23 50h27v1h-27zM60 50h13v1h-13zM23 51h26v1h-26zM61 51h14v1h-14zM23 52h24v1h-24zM62 52h15v1h-15zM23 53h23v1h-23zM63 53h16v1h-16zM23 54h20v1h-20zM64 54h16v1h-16zM23 55h8v1h-8zM32 55h5v1h-5zM66 55h15v1h-15zM23 56h8v1h-8zM68 56h13v1h-13zM23 57h8v1h-8zM71 57h11v1h-11zM23 58h8v1h-8zM73 58h9v1h-9zM23 59h8v1h-8zM74 59h8v1h-8zM23 60h8v1h-8zM74 60h8v1h-8zM23 61h8v1h-8zM59 61h1v1h-1zM74 61h8v1h-8zM23 62h8v1h-8zM59 62h3v1h-3zM74 62h8v1h-8zM23 63h8v1h-8zM59 63h7v1h-7zM72 63h9v1h-9zM23 64h8v1h-8zM59 64h22v1h-22zM23 65h8v1h-8zM59 65h21v1h-21zM23 66h8v1h-8zM59 66h21v1h-21zM23 67h8v1h-8zM59 67h19v1h-19zM23 68h8v1h-8zM60 68h17v1h-17zM62 69h12v1h-12z" /><path fill="#30a6fd" d="M39 26h1v1h-1zM37 48h1v1h-1zM71 63h1v1h-1z" /><path fill="#2b98e8" d="M40 26h1v1h-1zM53 42h1v1h-1zM65 55h1v1h-1z" /><path fill="#227fc3" d="M41 26h1v1h-1z" /><path fill="#18639a" d="M42 26h1v1h-1zM51 49h1v1h-1zM82 58h1v1h-1z" /><path fill="#0a3a5f" d="M43 26h1v1h-1z" /><path fill="#001f37" d="M44 26h1v1h-1zM42 36h1v1h-1zM71 48h1v1h-1zM79 52h1v1h-1zM46 54h1v1h-1zM34 56h1v1h-1z" /><path fill="#19639b" d="M22 27h1v1h-1zM22 28h1v1h-1zM22 29h1v1h-1zM22 30h1v1h-1zM22 31h1v1h-1zM22 32h1v1h-1zM22 33h1v1h-1zM22 34h1v1h-1zM22 35h1v1h-1zM22 36h1v1h-1zM22 37h1v1h-1zM22 38h1v1h-1zM22 39h1v1h-1zM22 40h1v1h-1zM22 41h1v1h-1zM22 42h1v1h-1zM22 43h1v1h-1zM22 44h1v1h-1zM22 45h1v1h-1zM22 46h1v1h-1zM22 47h1v1h-1zM22 48h1v1h-1zM22 49h1v1h-1zM22 50h1v1h-1zM22 51h1v1h-1zM22 52h1v1h-1zM22 53h1v1h-1zM22 54h1v1h-1zM22 55h1v1h-1zM22 56h1v1h-1zM22 57h1v1h-1zM22 58h1v1h-1zM22 59h1v1h-1zM22 60h1v1h-1zM22 61h1v1h-1zM22 62h1v1h-1zM22 63h1v1h-1zM22 64h1v1h-1zM22 65h1v1h-1zM22 66h1v1h-1zM22 67h1v1h-1zM22 68h1v1h-1z" /><path fill="#2b97e6" d="M44 27h1v1h-1zM60 51h1v1h-1zM77 68h1v1h-1z" /><path fill="#186197" d="M45 27h1v1h-1zM64 37h1v1h-1zM73 61h1v1h-1z" /><path fill="#032844" d="M46 27h1v1h-1z" /><path fill="#2e9ff2" d="M46 28h1v1h-1zM73 50h1v1h-1zM23 69h8v1h-8z" /><path fill="#165b8e" d="M47 28h1v1h-1z" /><path fill="#001f38" d="M48 28h1v1h-1zM37 47h1v1h-1zM81 54h1v1h-1z" /><path fill="#2586cd" d="M48 29h1v1h-1z" /><path fill="#042946" d="M49 29h1v1h-1z" /><path fill="#2a94e3" d="M49 30h1v1h-1zM72 36h1v1h-1z" /><path fill="#052d4c" d="M50 30h1v1h-1zM53 35h1v1h-1z" /><path fill="#2991dd" d="M50 31h1v1h-1zM68 63h1v1h-1z" /><path fill="#02253f" d="M51 31h1v1h-1zM75 44h1v1h-1zM35 56h1v1h-1z" /><path fill="#1e73b2" d="M51 32h1v1h-1z" /><path fill="#31a7fe" d="M51 33h1v1h-1zM52 35h1v1h-1zM62 39h1v1h-1zM75 43h1v1h-1zM47 52h1v1h-1zM78 67h1v1h-1zM59 68h1v1h-1zM74 69h1v1h-1z" /><path fill="#0b3d63" d="M52 33h1v1h-1z" /><path fill="#1e73b1" d="M31 34h1v1h-1z" /><path fill="#01213b" d="M36 34h1v1h-1zM65 56h1v1h-1zM77 69h1v1h-1z" /><path fill="#042a48" d="M37 34h1v1h-1zM62 70h1v1h-1zM74 70h1v1h-1z" /><path fill="#083557" d="M38 34h1v1h-1zM72 59h1v1h-1z" /><path fill="#145687" d="M39 34h1v1h-1z" /><path fill="#217dbf" d="M40 34h1v1h-1zM40 55h1v1h-1z" /><path fill="#2fa3f8" d="M41 34h1v1h-1zM52 46h1v1h-1z" /><path fill="#2381c5" d="M52 34h1v1h-1z" /><path fill="#1c6fab" d="M31 35h1v1h-1zM31 36h1v1h-1zM31 37h1v1h-1zM31 38h1v1h-1zM31 39h1v1h-1zM31 40h1v1h-1zM31 41h1v1h-1zM31 42h1v1h-1zM31 43h1v1h-1zM31 44h1v1h-1zM31 45h1v1h-1zM31 46h1v1h-1zM31 47h1v1h-1zM82 61h1v1h-1z" /><path fill="#042947" d="M41 35h1v1h-1z" /><path fill="#217abc" d="M42 35h1v1h-1z" /><path fill="#1f76b6" d="M43 36h1v1h-1zM52 47h1v1h-1zM76 51h1v1h-1zM69 57h1v1h-1zM71 70h1v1h-1z" /><path fill="#125282" d="M53 36h1v1h-1zM77 36h1v1h-1z" /><path fill="#012038" d="M65 36h1v1h-1zM78 45h1v1h-1zM51 50h1v1h-1zM82 56h1v1h-1zM62 61h1v1h-1zM66 62h1v1h-1z" /><path fill="#0b3d64" d="M66 36h1v1h-1zM44 42h1v1h-1zM58 60h1v1h-1z" /><path fill="#176096" d="M67 36h1v1h-1z" /><path fill="#2077b7" d="M68 36h1v1h-1zM53 37h1v1h-1z" /><path fill="#2689d1" d="M69 36h1v1h-1z" /><path fill="#288fdc" d="M70 36h1v1h-1zM69 63h1v1h-1z" /><path fill="#2a96e4" d="M71 36h1v1h-1zM79 37h1v1h-1zM74 43h1v1h-1zM32 48h1v1h-1z" /><path fill="#278cd7" d="M73 36h1v1h-1zM34 48h1v1h-1z" /><path fill="#2587cf" d="M74 36h1v1h-1z" /><path fill="#2078b8" d="M75 36h1v1h-1zM82 60h1v1h-1z" /><path fill="#1b69a3" d="M76 36h1v1h-1zM31 56h1v1h-1zM31 57h1v1h-1zM31 58h1v1h-1zM31 59h1v1h-1zM31 60h1v1h-1zM31 61h1v1h-1zM58 61h1v1h-1zM31 62h1v1h-1zM58 62h1v1h-1zM31 63h1v1h-1zM58 63h1v1h-1zM31 64h1v1h-1zM58 64h1v1h-1zM31 65h1v1h-1zM58 65h1v1h-1zM31 66h1v1h-1zM58 66h1v1h-1zM31 67h1v1h-1zM58 67h1v1h-1zM31 68h1v1h-1z" /><path fill="#083558" d="M78 36h1v1h-1z" /><path fill="#2c9beb" d="M44 37h1v1h-1zM81 56h1v1h-1z" /><path fill="#022540" d="M63 37h1v1h-1z" /><path fill="#2c99e9" d="M65 37h1v1h-1z" /><path fill="#155a8d" d="M80 37h1v1h-1zM58 46h1v1h-1zM81 55h1v1h-1z" /><path fill="#19649c" d="M44 38h1v1h-1zM72 70h1v1h-1z" /><path fill="#288ed8" d="M53 38h1v1h-1zM39 55h1v1h-1z" /><path fill="#0f4873" d="M62 38h1v1h-1zM45 54h1v1h-1z" /><path fill="#2d9ced" d="M63 38h1v1h-1z" /><path fill="#2ea1f5" d="M80 38h1v1h-1z" /><path fill="#0c4067" d="M44 39h1v1h-1zM58 48h1v1h-1z" /><path fill="#2c9aeb" d="M53 39h1v1h-1zM70 63h1v1h-1z" /><path fill="#165c91" d="M61 39h1v1h-1zM78 52h1v1h-1z" /><path fill="#2fa2f6" d="M80 39h1v1h-1zM80 40h1v1h-1zM80 41h1v1h-1zM80 42h1v1h-1zM68 43h1v1h-1zM80 43h1v1h-1zM80 44h1v1h-1z" /><path fill="#063050" d="M44 40h1v1h-1z" /><path fill="#30a5fa" d="M53 40h1v1h-1z" /><path fill="#125281" d="M60 40h1v1h-1z" /><path fill="#2ea1f4" d="M53 41h1v1h-1z" /><path fill="#062e4d" d="M59 41h1v1h-1z" /><path fill="#2fa1f6" d="M60 41h1v1h-1zM77 52h1v1h-1zM73 62h1v1h-1z" /><path fill="#1d6fac" d="M59 42h1v1h-1z" /><path fill="#176095" d="M44 43h1v1h-1z" /><path fill="#268ad4" d="M53 43h1v1h-1z" /><path fill="#2ea0f3" d="M59 43h1v1h-1z" /><path fill="#2585cc" d="M69 43h1v1h-1zM67 44h1v1h-1zM69 48h1v1h-1z" /><path fill="#1e71af" d="M70 43h1v1h-1z" /><path fill="#1d71af" d="M71 43h1v1h-1z" /><path fill="#2078ba" d="M72 43h1v1h-1z" /><path fill="#2381c7" d="M73 43h1v1h-1z" /><path fill="#02243f" d="M43 44h1v1h-1zM50 51h1v1h-1zM43 55h1v1h-1z" /><path fill="#2b98e7" d="M44 44h1v1h-1z" /><path fill="#1d6eab" d="M53 44h1v1h-1z" /><path fill="#0c3f65" d="M58 44h1v1h-1z" /><path fill="#032642" d="M68 44h1v1h-1zM53 46h1v1h-1zM59 51h1v1h-1z" /><path fill="#0d426b" d="M76 44h1v1h-1zM61 61h1v1h-1z" /><path fill="#1a68a2" d="M77 44h1v1h-1z" /><path fill="#2b96e5" d="M78 44h1v1h-1z" /><path fill="#02233d" d="M42 45h1v1h-1z" /><path fill="#227cc0" d="M43 45h1v1h-1z" /><path fill="#125180" d="M53 45h1v1h-1z" /><path fill="#135485" d="M58 45h1v1h-1zM22 69h1v1h-1z" /><path fill="#0d436c" d="M67 45h1v1h-1zM82 57h1v1h-1zM78 68h1v1h-1z" /><path fill="#104b77" d="M79 45h1v1h-1z" /><path fill="#175f95" d="M80 45h1v1h-1z" /><path fill="#268ad3" d="M42 46h1v1h-1zM68 70h1v1h-1z" /><path fill="#14588a" d="M67 46h1v1h-1zM39 47h1v1h-1z" /><path fill="#083659" d="M38 47h1v1h-1z" /><path fill="#227ec2" d="M40 47h1v1h-1z" /><path fill="#30a6fb" d="M41 47h1v1h-1z" /><path fill="#114f7e" d="M58 47h1v1h-1zM64 62h1v1h-1z" /><path fill="#2fa2f7" d="M67 47h1v1h-1z" /><path fill="#104a77" d="M68 47h1v1h-1zM73 70h1v1h-1z" /><path fill="#288ed9" d="M33 48h1v1h-1zM71 49h1v1h-1z" /><path fill="#2992df" d="M35 48h1v1h-1z" /><path fill="#2d9dee" d="M36 48h1v1h-1z" /><path fill="#30a4f9" d="M51 48h1v1h-1zM31 55h1v1h-1zM70 57h1v1h-1zM72 58h1v1h-1z" /><path fill="#073152" d="M52 48h1v1h-1z" /><path fill="#0e456e" d="M70 48h1v1h-1z" /><path fill="#01203a" d="M58 49h1v1h-1z" /><path fill="#2d9cee" d="M59 49h1v1h-1zM73 59h1v1h-1z" /><path fill="#135382" d="M72 49h1v1h-1zM58 68h1v1h-1z" /><path fill="#02243e" d="M73 49h1v1h-1zM80 53h1v1h-1z" /><path fill="#2380c4" d="M50 50h1v1h-1zM80 54h1v1h-1z" /><path fill="#1b6ba7" d="M59 50h1v1h-1z" /><path fill="#1c6eaa" d="M74 50h1v1h-1zM48 52h1v1h-1z" /><path fill="#073355" d="M75 50h1v1h-1z" /><path fill="#2380c5" d="M49 51h1v1h-1zM44 54h1v1h-1z" /><path fill="#31a7fd" d="M75 51h1v1h-1zM37 55h1v1h-1zM81 63h1v1h-1z" /><path fill="#052b4a" d="M77 51h1v1h-1z" /><path fill="#0b3e65" d="M60 52h1v1h-1z" /><path fill="#2991de" d="M46 53h1v1h-1z" /><path fill="#0c4068" d="M47 53h1v1h-1z" /><path fill="#0b3c62" d="M61 53h1v1h-1z" /><path fill="#2d9def" d="M62 53h1v1h-1zM62 62h1v1h-1z" /><path fill="#2079bb" d="M79 53h1v1h-1z" /><path fill="#073354" d="M62 54h1v1h-1zM59 69h1v1h-1z" /><path fill="#2485cb" d="M63 54h1v1h-1z" /><path fill="#2c9bec" d="M38 55h1v1h-1z" /><path fill="#186299" d="M41 55h1v1h-1z" /><path fill="#0f4772" d="M42 55h1v1h-1z" /><path fill="#114d7a" d="M64 55h1v1h-1z" /><path fill="#104c79" d="M66 56h1v1h-1z" /><path fill="#2688d0" d="M67 56h1v1h-1z" /><path fill="#0a3c61" d="M68 57h1v1h-1z" /><path fill="#042a47" d="M70 58h1v1h-1z" /><path fill="#1a68a1" d="M71 58h1v1h-1zM60 69h1v1h-1z" /><path fill="#1d70ae" d="M82 59h1v1h-1z" /><path fill="#0b3c61" d="M59 60h1v1h-1z" /><path fill="#165c90" d="M73 60h1v1h-1zM64 70h1v1h-1z" /><path fill="#2482c8" d="M60 61h1v1h-1z" /><path fill="#1f74b3" d="M63 62h1v1h-1z" /><path fill="#083456" d="M65 62h1v1h-1z" /><path fill="#042945" d="M71 62h1v1h-1z" /><path fill="#145586" d="M72 62h1v1h-1zM82 62h1v1h-1z" /><path fill="#2c99ea" d="M67 63h1v1h-1z" /><path fill="#062f4f" d="M82 63h1v1h-1z" /><path fill="#2381c6" d="M81 64h1v1h-1z" /><path fill="#30a5fc" d="M80 65h1v1h-1z" /><path fill="#09385c" d="M81 65h1v1h-1z" /><path fill="#15588b" d="M80 66h1v1h-1z" /><path fill="#165d92" d="M79 67h1v1h-1z" /><path fill="#15578a" d="M31 69h1v1h-1z" /><path fill="#2993df" d="M61 69h1v1h-1z" /><path fill="#2587d0" d="M75 69h1v1h-1zM69 70h1v1h-1z" /><path fill="#135384" d="M76 69h1v1h-1z" /><path fill="#0e4671" d="M63 70h1v1h-1z" /><path fill="#1d6fad" d="M65 70h1v1h-1z" /><path fill="#217cbe" d="M66 70h1v1h-1z" /><path fill="#2483c9" d="M67 70h1v1h-1zM70 70h1v1h-1z" /></svg>