<svg xmlns="http://www.w3.org/2000/svg" viewBox="0 0 100 100" width="1em" height="1em"><path fill="#efcba2" d="M40 19h1v1h-1zM42 19h1v1h-1z" /><path fill="#eecba3" d="M41 19h1v1h-1zM51 19h1v1h-1zM35 20h1v1h-1zM66 20h1v1h-1zM73 26h1v1h-1zM33 30h1v1h-1zM66 30h1v1h-1zM23 31h1v1h-1zM23 33h1v1h-1zM62 33h1v1h-1zM76 33h1v1h-1zM62 36h1v1h-1zM45 39h1v1h-1zM55 39h1v1h-1zM40 40h1v1h-1zM20 49h1v1h-1zM29 52h1v1h-1zM31 52h1v1h-1zM71 56h1v1h-1zM81 58h1v1h-1z" /><path fill="#eecca3" d="M43 19h1v1h-1zM49 19h1v1h-1zM60 19h1v1h-1zM28 24h1v1h-1zM45 31h1v1h-1zM26 33h1v1h-1zM61 41h1v1h-1zM39 43h1v1h-1zM74 53h1v1h-1zM81 53h1v1h-1zM71 55h1v1h-1zM73 55h1v1h-1zM72 56h1v1h-1zM27 59h1v1h-1z" /><path fill="#eecca2" d="M44 19h2v1h-2zM55 19h2v1h-2zM67 20h1v1h-1zM31 21h1v1h-1zM75 29h1v1h-1zM56 36h1v1h-1zM39 42h1v1h-1zM61 42h1v1h-1zM39 46h1v1h-1zM64 48h1v1h-1zM80 48h1v1h-1zM23 52h1v1h-1zM71 53h1v1h-1zM21 62h1v1h-1zM74 65h1v1h-1z" /><path fill="#efcca2" d="M46 19h1v1h-1zM54 19h1v1h-1zM59 19h1v1h-1zM34 20h1v1h-1zM65 20h1v1h-1z" /><path fill="#eecba2" d="M47 19h2v1h-2zM52 19h2v1h-2zM57 19h1v1h-1zM33 20h1v1h-1zM36 20h1v1h-1zM25 28h1v1h-1zM77 32h1v1h-1zM43 43h1v1h-1zM59 45h1v1h-1zM64 46h1v1h-1zM34 49h1v1h-1z" /><path fill="#efcca3" d="M50 19h1v1h-1zM58 19h1v1h-1zM37 20h28v1h-28zM32 21h37v1h-37zM30 22h40v1h-40zM29 23h42v1h-42zM29 24h43v1h-43zM28 25h45v1h-45zM27 26h46v1h-46zM26 27h48v1h-48zM26 28h22v1h-22zM53 28h22v1h-22zM25 29h22v1h-22zM55 29h20v1h-20zM24 30h9v1h-9zM43 30h3v1h-3zM48 30h5v1h-5zM56 30h3v1h-3zM67 30h9v1h-9zM24 31h1v1h-1zM26 31h15v1h-15zM44 31h1v1h-1zM46 31h9v1h-9zM56 31h2v1h-2zM62 31h12v1h-12zM75 31h2v1h-2zM23 32h1v1h-1zM26 32h16v1h-16zM44 32h13v1h-13zM60 32h14v1h-14zM76 32h1v1h-1zM22 33h1v1h-1zM38 33h4v1h-4zM44 33h1v1h-1zM56 33h1v1h-1zM60 33h2v1h-2zM77 33h1v1h-1zM22 34h1v1h-1zM38 34h4v1h-4zM59 34h3v1h-3zM77 34h2v1h-2zM21 35h1v1h-1zM38 35h4v1h-4zM45 35h10v1h-10zM59 35h3v1h-3zM78 35h1v1h-1zM38 36h4v1h-4zM44 36h5v1h-5zM52 36h4v1h-4zM59 36h3v1h-3zM38 37h7v1h-7zM56 37h7v1h-7zM37 38h6v1h-6zM58 38h5v1h-5zM37 39h5v1h-5zM46 39h9v1h-9zM59 39h4v1h-4zM37 40h3v1h-3zM43 40h15v1h-15zM61 40h2v1h-2zM37 41h3v1h-3zM42 41h5v1h-5zM54 41h6v1h-6zM62 41h1v1h-1zM37 42h2v1h-2zM40 42h5v1h-5zM56 42h5v1h-5zM62 42h1v1h-1zM40 43h3v1h-3zM57 43h4v1h-4zM38 44h4v1h-4zM58 44h4v1h-4zM37 45h4v1h-4zM60 45h3v1h-3zM36 46h3v1h-3zM61 46h3v1h-3zM35 47h3v1h-3zM62 47h4v1h-4zM19 48h1v1h-1zM34 48h2v1h-2zM65 48h2v1h-2zM19 49h1v1h-1zM32 49h2v1h-2zM66 49h2v1h-2zM80 49h1v1h-1zM19 50h2v1h-2zM31 50h2v1h-2zM67 50h2v1h-2zM79 50h2v1h-2zM20 51h2v1h-2zM31 51h1v1h-1zM68 51h2v1h-2zM78 51h3v1h-3zM20 52h3v1h-3zM30 52h1v1h-1zM69 52h2v1h-2zM77 52h3v1h-3zM21 53h5v1h-5zM29 53h2v1h-2zM70 53h1v1h-1zM75 53h4v1h-4zM19 54h1v1h-1zM23 54h7v1h-7zM70 54h8v1h-8zM81 54h1v1h-1zM19 55h2v1h-2zM25 55h2v1h-2zM74 55h2v1h-2zM80 55h2v1h-2zM19 56h3v1h-3zM28 56h1v1h-1zM79 56h3v1h-3zM19 57h9v1h-9zM72 57h10v1h-10zM19 58h9v1h-9zM73 58h8v1h-8zM19 59h8v1h-8zM73 59h8v1h-8zM19 60h8v1h-8zM73 60h8v1h-8zM20 61h7v1h-7zM73 61h7v1h-7zM22 62h5v1h-5zM73 62h6v1h-6zM23 63h4v1h-4zM73 63h4v1h-4zM24 64h3v1h-3zM73 64h3v1h-3zM26 65h1v1h-1zM73 65h1v1h-1z" /><path fill="#56332a" d="M23 21h1v1h-1zM76 21h1v1h-1zM15 24h1v1h-1zM9 29h1v1h-1zM91 30h1v1h-1zM95 34h1v1h-1zM1 41h1v1h-1zM97 42h1v1h-1zM3 43h1v1h-1zM37 52h1v1h-1zM42 52h1v1h-1zM57 52h1v1h-1zM62 52h1v1h-1zM66 68h1v1h-1z" /><path fill="#56332b" d="M24 21h1v1h-1zM26 21h3v1h-3zM71 21h3v1h-3zM22 22h6v1h-6zM72 22h6v1h-6zM19 23h8v1h-8zM73 23h8v1h-8zM17 24h9v1h-9zM74 24h10v1h-10zM15 25h7v1h-7zM23 25h2v1h-2zM75 25h2v1h-2zM78 25h7v1h-7zM14 26h7v1h-7zM23 26h1v1h-1zM76 26h1v1h-1zM79 26h7v1h-7zM12 27h8v1h-8zM22 27h1v1h-1zM77 27h1v1h-1zM80 27h8v1h-8zM10 28h9v1h-9zM21 28h2v1h-2zM77 28h2v1h-2zM81 28h8v1h-8zM10 29h8v1h-8zM21 29h1v1h-1zM78 29h1v1h-1zM82 29h8v1h-8zM9 30h9v1h-9zM20 30h1v1h-1zM79 30h1v1h-1zM82 30h9v1h-9zM8 31h9v1h-9zM20 31h1v1h-1zM79 31h1v1h-1zM83 31h9v1h-9zM7 32h9v1h-9zM19 32h1v1h-1zM80 32h1v1h-1zM84 32h9v1h-9zM6 33h9v1h-9zM19 33h1v1h-1zM80 33h1v1h-1zM85 33h9v1h-9zM5 34h9v1h-9zM18 34h1v1h-1zM81 34h1v1h-1zM86 34h9v1h-9zM4 35h10v1h-10zM18 35h1v1h-1zM81 35h1v1h-1zM86 35h10v1h-10zM3 36h10v1h-10zM17 36h1v1h-1zM82 36h1v1h-1zM87 36h10v1h-10zM3 37h9v1h-9zM17 37h1v1h-1zM82 37h1v1h-1zM88 37h9v1h-9zM2 38h10v1h-10zM16 38h2v1h-2zM82 38h2v1h-2zM88 38h10v1h-10zM1 39h10v1h-10zM16 39h2v1h-2zM82 39h2v1h-2zM89 39h10v1h-10zM0 40h11v1h-11zM15 40h2v1h-2zM83 40h2v1h-2zM89 40h11v1h-11zM2 41h8v1h-8zM15 41h2v1h-2zM83 41h2v1h-2zM90 41h8v1h-8zM3 42h7v1h-7zM15 42h2v1h-2zM83 42h2v1h-2zM90 42h7v1h-7zM4 43h5v1h-5zM15 43h2v1h-2zM83 43h2v1h-2zM91 43h5v1h-5zM5 44h4v1h-4zM14 44h3v1h-3zM47 44h1v1h-1zM52 44h3v1h-3zM83 44h3v1h-3zM91 44h4v1h-4zM7 45h1v1h-1zM14 45h3v1h-3zM45 45h3v1h-3zM50 45h1v1h-1zM53 45h3v1h-3zM83 45h3v1h-3zM92 45h1v1h-1zM14 46h2v1h-2zM45 46h2v1h-2zM50 46h1v1h-1zM53 46h4v1h-4zM84 46h2v1h-2zM13 47h3v1h-3zM42 47h5v1h-5zM49 47h1v1h-1zM53 47h6v1h-6zM84 47h3v1h-3zM13 48h3v1h-3zM40 48h6v1h-6zM55 48h6v1h-6zM84 48h3v1h-3zM13 49h3v1h-3zM38 49h11v1h-11zM52 49h10v1h-10zM84 49h3v1h-3zM13 50h3v1h-3zM37 50h12v1h-12zM51 50h13v1h-13zM84 50h3v1h-3zM13 51h3v1h-3zM36 51h13v1h-13zM51 51h14v1h-14zM84 51h3v1h-3zM13 52h3v1h-3zM35 52h2v1h-2zM38 52h4v1h-4zM43 52h6v1h-6zM51 52h6v1h-6zM58 52h4v1h-4zM63 52h3v1h-3zM84 52h3v1h-3zM13 53h3v1h-3zM34 53h3v1h-3zM39 53h2v1h-2zM43 53h6v1h-6zM52 53h5v1h-5zM59 53h2v1h-2zM63 53h4v1h-4zM84 53h3v1h-3zM13 54h3v1h-3zM33 54h4v1h-4zM38 54h4v1h-4zM43 54h6v1h-6zM52 54h5v1h-5zM58 54h4v1h-4zM63 54h5v1h-5zM84 54h3v1h-3zM13 55h3v1h-3zM32 55h17v1h-17zM52 55h17v1h-17zM84 55h3v1h-3zM13 56h2v1h-2zM31 56h7v1h-7zM40 56h9v1h-9zM52 56h8v1h-8zM62 56h8v1h-8zM85 56h2v1h-2zM13 57h2v1h-2zM31 57h7v1h-7zM40 57h8v1h-8zM53 57h7v1h-7zM62 57h8v1h-8zM85 57h1v1h-1zM30 58h17v1h-17zM54 58h17v1h-17zM30 59h15v1h-15zM56 59h15v1h-15zM30 60h14v1h-14zM50 60h2v1h-2zM57 60h14v1h-14zM29 61h15v1h-15zM47 61h7v1h-7zM58 61h14v1h-14zM29 62h14v1h-14zM45 62h11v1h-11zM58 62h14v1h-14zM29 63h13v1h-13zM44 63h13v1h-13zM59 63h13v1h-13zM30 64h12v1h-12zM44 64h13v1h-13zM59 64h12v1h-12zM30 65h12v1h-12zM43 65h15v1h-15zM59 65h11v1h-11zM31 66h10v1h-10zM43 66h15v1h-15zM60 66h9v1h-9zM32 67h9v1h-9zM43 67h15v1h-15zM60 67h8v1h-8zM34 68h7v1h-7zM42 68h17v1h-17zM60 68h6v1h-6zM36 69h5v1h-5zM42 69h17v1h-17zM60 69h5v1h-5zM38 70h2v1h-2zM42 70h17v1h-17zM61 70h1v1h-1zM42 71h15v1h-15zM46 72h9v1h-9z" /><path fill="#56322b" d="M25 21h1v1h-1zM74 21h1v1h-1zM20 22h1v1h-1zM92 31h1v1h-1zM93 32h1v1h-1zM98 38h1v1h-1zM98 41h1v1h-1z" /><path fill="#6d4b3d" d="M29 21h1v1h-1z" /><path fill="#ddba95" d="M30 21h1v1h-1z" /><path fill="#e2c199" d="M69 21h1v1h-1z" /><path fill="#704e40" d="M70 21h1v1h-1z" /><path fill="#55332b" d="M75 21h1v1h-1zM21 22h1v1h-1zM78 22h2v1h-2zM17 23h1v1h-1zM82 23h1v1h-1zM14 25h1v1h-1zM8 30h1v1h-1zM80 31h1v1h-1zM5 33h1v1h-1zM94 33h1v1h-1zM4 34h1v1h-1zM12 37h1v1h-1zM87 37h1v1h-1zM1 38h1v1h-1zM57 61h1v1h-1zM37 70h1v1h-1z" /><path fill="#755346" d="M28 22h1v1h-1zM83 49h1v1h-1z" /><path fill="#dfbd99" d="M29 22h1v1h-1zM49 28h1v1h-1z" /><path fill="#e8c59e" d="M70 22h1v1h-1z" /><path fill="#765446" d="M71 22h1v1h-1z" /><path fill="#56322a" d="M18 23h1v1h-1zM81 23h1v1h-1zM16 24h1v1h-1zM84 24h1v1h-1zM22 25h1v1h-1zM77 25h1v1h-1zM85 25h1v1h-1zM2 37h1v1h-1zM6 45h1v1h-1zM93 45h1v1h-1zM92 46h1v1h-1zM49 50h1v1h-1zM15 56h1v1h-1zM52 57h1v1h-1zM29 64h1v1h-1zM62 70h1v1h-1zM57 71h1v1h-1z" /><path fill="#724f42" d="M27 23h1v1h-1z" /><path fill="#d7b693" d="M28 23h1v1h-1zM47 37h1v1h-1z" /><path fill="#e3c19b" d="M71 23h1v1h-1zM25 32h1v1h-1zM37 36h1v1h-1zM41 40h1v1h-1zM63 42h1v1h-1zM27 53h1v1h-1z" /><path fill="#714e41" d="M72 23h1v1h-1zM19 34h1v1h-1z" /><path fill="#6c493e" d="M26 24h1v1h-1z" /><path fill="#cdab8b" d="M27 24h1v1h-1z" /><path fill="#dcb994" d="M72 24h1v1h-1z" /><path fill="#6e4c3f" d="M73 24h1v1h-1z" /><path fill="#6b483c" d="M25 25h1v1h-1zM59 47h1v1h-1z" /><path fill="#c6a587" d="M26 25h1v1h-1z" /><path fill="#ecc9a1" d="M27 25h1v1h-1zM55 31h1v1h-1zM59 33h1v1h-1zM50 34h1v1h-1zM51 36h1v1h-1zM37 37h1v1h-1zM55 42h1v1h-1zM36 48h1v1h-1zM33 50h1v1h-1zM32 51h1v1h-1zM76 52h1v1h-1zM79 53h1v1h-1z" /><path fill="#cfaf8d" d="M73 25h1v1h-1z" /><path fill="#6a483c" d="M74 25h1v1h-1zM79 32h1v1h-1zM16 48h1v1h-1z" /><path fill="#55332a" d="M13 26h1v1h-1zM7 31h1v1h-1zM6 32h1v1h-1zM97 37h1v1h-1zM0 39h1v1h-1zM2 42h1v1h-1zM7 46h1v1h-1zM39 56h1v1h-1zM60 56h1v1h-1zM84 56h1v1h-1z" /><path fill="#54312a" d="M21 26h1v1h-1zM19 28h1v1h-1zM16 37h1v1h-1zM12 55h1v1h-1zM87 55h1v1h-1zM48 57h1v1h-1z" /><path fill="#55322a" d="M22 26h1v1h-1zM77 26h1v1h-1zM90 29h1v1h-1zM81 33h1v1h-1zM14 34h1v1h-1zM82 35h1v1h-1zM85 43h1v1h-1zM96 43h1v1h-1zM47 47h1v1h-1zM37 54h1v1h-1zM42 54h1v1h-1zM57 54h1v1h-1zM62 54h1v1h-1zM42 67h1v1h-1zM58 67h1v1h-1zM45 72h1v1h-1z" /><path fill="#603e34" d="M24 26h1v1h-1z" /><path fill="#bf9f82" d="M25 26h1v1h-1zM33 52h1v1h-1z" /><path fill="#e6c39d" d="M26 26h1v1h-1zM45 42h1v1h-1zM67 51h1v1h-1zM70 55h1v1h-1z" /><path fill="#c3a284" d="M74 26h1v1h-1z" /><path fill="#613e33" d="M75 26h1v1h-1zM66 52h1v1h-1zM33 53h1v1h-1z" /><path fill="#53312a" d="M78 26h1v1h-1zM20 27h1v1h-1zM79 29h1v1h-1zM84 33h1v1h-1zM60 70h1v1h-1z" /><path fill="#55322b" d="M86 26h1v1h-1zM89 28h1v1h-1zM19 31h1v1h-1zM18 33h1v1h-1zM85 34h1v1h-1zM17 35h1v1h-1zM99 39h1v1h-1zM14 43h1v1h-1zM12 56h1v1h-1zM86 57h1v1h-1zM35 69h1v1h-1z" /><path fill="#513028" d="M21 27h1v1h-1zM14 42h1v1h-1zM9 43h1v1h-1zM47 48h1v1h-1zM56 60h1v1h-1zM59 66h1v1h-1zM68 67h1v1h-1zM44 72h1v1h-1z" /><path fill="#59362d" d="M23 27h1v1h-1z" /><path fill="#b19076" d="M24 27h1v1h-1z" /><path fill="#dcbb97" d="M25 27h1v1h-1zM44 38h1v1h-1zM75 52h1v1h-1zM77 55h1v1h-1zM23 56h1v1h-1z" /><path fill="#e9c69f" d="M74 27h1v1h-1zM52 28h1v1h-1zM35 30h1v1h-1zM76 30h1v1h-1zM42 33h1v1h-1zM51 34h1v1h-1zM63 40h1v1h-1zM63 41h1v1h-1zM68 52h1v1h-1zM80 54h1v1h-1zM28 57h1v1h-1z" /><path fill="#b08f75" d="M75 27h1v1h-1zM58 46h1v1h-1z" /><path fill="#58352d" d="M76 27h1v1h-1zM71 60h1v1h-1z" /><path fill="#503029" d="M78 27h1v1h-1z" /><path fill="#533129" d="M79 27h1v1h-1zM20 29h1v1h-1zM49 45h1v1h-1zM13 46h1v1h-1zM86 46h1v1h-1zM54 48h1v1h-1zM55 59h1v1h-1zM57 64h1v1h-1zM69 66h1v1h-1z" /><path fill="#4b2c26" d="M20 28h1v1h-1zM85 41h1v1h-1zM12 49h1v1h-1zM51 56h1v1h-1zM38 57h1v1h-1zM61 57h1v1h-1zM41 67h1v1h-1zM59 67h1v1h-1zM56 72h1v1h-1zM44 80h5v1h-5zM52 80h4v1h-4z" /><path fill="#9a7964" d="M23 28h1v1h-1z" /><path fill="#d2b190" d="M24 28h1v1h-1zM50 41h1v1h-1zM19 42h1v1h-1zM18 49h1v1h-1zM33 51h1v1h-1z" /><path fill="#eccaa1" d="M48 28h1v1h-1zM65 30h1v1h-1z" /><path fill="#d8b794" d="M50 28h1v1h-1zM43 39h1v1h-1zM29 51h1v1h-1z" /><path fill="#dcbb98" d="M51 28h1v1h-1zM53 33h1v1h-1zM77 35h1v1h-1z" /><path fill="#debc98" d="M75 28h1v1h-1zM38 30h1v1h-1zM57 33h1v1h-1zM57 36h1v1h-1zM18 52h1v1h-1z" /><path fill="#987763" d="M76 28h1v1h-1z" /><path fill="#4b2d27" d="M79 28h1v1h-1zM14 41h1v1h-1zM31 67h1v1h-1zM47 73h1v1h-1zM49 80h1v1h-1z" /><path fill="#54322a" d="M80 28h1v1h-1zM83 37h1v1h-1zM46 48h1v1h-1zM49 51h1v1h-1zM38 53h1v1h-1zM41 53h1v1h-1zM58 53h1v1h-1zM61 53h1v1h-1zM87 56h1v1h-1zM45 59h1v1h-1zM40 70h1v1h-1zM39 71h1v1h-1z" /><path fill="#54322b" d="M18 29h1v1h-1zM81 29h1v1h-1zM51 53h1v1h-1zM33 68h1v1h-1z" /><path fill="#482a25" d="M19 29h1v1h-1zM89 42h1v1h-1z" /><path fill="#775547" d="M22 29h1v1h-1z" /><path fill="#cbac8c" d="M23 29h1v1h-1z" /><path fill="#e7c49e" d="M24 29h1v1h-1zM54 33h1v1h-1zM62 35h1v1h-1zM42 40h1v1h-1zM41 45h1v1h-1zM35 46h1v1h-1zM18 56h1v1h-1z" /><path fill="#e5c39c" d="M47 29h1v1h-1zM58 36h1v1h-1zM56 43h1v1h-1z" /><path fill="#ddbc98" d="M48 29h1v1h-1zM60 30h1v1h-1zM20 48h1v1h-1zM21 55h1v1h-1z" /><path fill="#e5c29c" d="M49 29h1v1h-1zM63 39h1v1h-1zM47 41h1v1h-1z" /><path fill="#eac7a0" d="M50 29h1v1h-1zM49 38h1v1h-1zM40 41h1v1h-1zM61 43h1v1h-1zM60 46h1v1h-1zM76 55h1v1h-1z" /><path fill="#e5c39d" d="M51 29h1v1h-1zM72 33h1v1h-1zM44 35h1v1h-1zM36 45h1v1h-1zM79 49h1v1h-1zM30 54h1v1h-1zM79 55h1v1h-1z" /><path fill="#dcba97" d="M52 29h2v1h-2zM39 30h1v1h-1zM36 41h1v1h-1zM71 52h1v1h-1zM78 63h1v1h-1z" /><path fill="#eecaa2" d="M54 29h1v1h-1zM53 30h1v1h-1zM45 33h1v1h-1zM19 53h1v1h-1zM24 55h1v1h-1zM72 58h1v1h-1zM22 63h1v1h-1z" /><path fill="#d3b191" d="M76 29h1v1h-1z" /><path fill="#765445" d="M77 29h1v1h-1zM16 49h1v1h-1z" /><path fill="#472a25" d="M80 29h1v1h-1zM10 52h1v1h-1zM46 73h1v1h-1z" /><path fill="#492b25" d="M18 30h1v1h-1zM88 40h1v1h-1zM32 68h1v1h-1zM41 69h1v1h-1zM41 70h1v1h-1zM59 70h1v1h-1zM64 70h1v1h-1zM41 71h1v1h-1z" /><path fill="#4c2d27" d="M19 30h1v1h-1zM17 31h1v1h-1zM14 35h1v1h-1zM83 36h1v1h-1zM87 38h1v1h-1zM29 65h1v1h-1zM67 68h1v1h-1zM38 71h1v1h-1zM43 72h1v1h-1zM52 73h1v1h-1zM43 80h1v1h-1z" /><path fill="#5f3c33" d="M21 30h1v1h-1zM78 30h1v1h-1zM16 47h1v1h-1zM30 57h1v1h-1z" /><path fill="#c0a083" d="M22 30h1v1h-1z" /><path fill="#ddbb97" d="M23 30h1v1h-1zM24 65h1v1h-1z" /><path fill="#edcaa2" d="M34 30h1v1h-1zM47 30h1v1h-1zM43 38h1v1h-1zM27 55h2v1h-2zM25 65h1v1h-1z" /><path fill="#e6c49d" d="M36 30h1v1h-1zM34 47h1v1h-1zM72 59h1v1h-1z" /><path fill="#e2c09b" d="M37 30h1v1h-1zM56 34h1v1h-1zM22 35h1v1h-1zM24 52h1v1h-1z" /><path fill="#d8b795" d="M40 30h1v1h-1zM80 46h1v1h-1z" /><path fill="#debd99" d="M41 30h1v1h-1zM71 33h1v1h-1zM23 34h1v1h-1zM42 35h1v1h-1zM47 38h1v1h-1zM21 54h1v1h-1zM25 56h1v1h-1zM27 62h1v1h-1z" /><path fill="#edc9a1" d="M42 30h1v1h-1zM49 34h1v1h-1zM60 40h1v1h-1zM28 53h1v1h-1z" /><path fill="#eac8a0" d="M46 30h1v1h-1zM79 36h1v1h-1zM50 38h1v1h-1zM22 51h1v1h-1zM78 54h1v1h-1z" /><path fill="#e3c19c" d="M54 30h1v1h-1zM62 30h1v1h-1zM42 32h1v1h-1zM44 39h1v1h-1zM81 50h1v1h-1zM26 56h1v1h-1z" /><path fill="#edcba2" d="M55 30h1v1h-1zM45 37h1v1h-1zM19 51h1v1h-1zM69 53h1v1h-1z" /><path fill="#e9c7a0" d="M59 30h1v1h-1zM19 52h1v1h-1zM27 60h1v1h-1zM23 64h1v1h-1z" /><path fill="#dbba97" d="M61 30h1v1h-1zM36 40h1v1h-1zM44 43h1v1h-1zM81 48h1v1h-1zM75 56h1v1h-1zM27 63h1v1h-1zM26 66h1v1h-1z" /><path fill="#e7c59e" d="M63 30h1v1h-1zM41 31h1v1h-1zM74 33h1v1h-1zM47 34h1v1h-1zM55 35h1v1h-1zM80 52h1v1h-1zM73 53h1v1h-1z" /><path fill="#eac79f" d="M64 30h1v1h-1zM60 41h1v1h-1zM21 50h1v1h-1z" /><path fill="#c1a083" d="M77 30h1v1h-1z" /><path fill="#4d2d27" d="M80 30h1v1h-1zM12 38h1v1h-1zM87 50h1v1h-1z" /><path fill="#482b25" d="M81 30h1v1h-1zM9 44h1v1h-1zM12 48h1v1h-1zM42 72h1v1h-1zM60 79h1v1h-1z" /><path fill="#462923" d="M18 31h1v1h-1zM16 35h1v1h-1zM90 50h1v1h-1zM89 52h1v1h-1zM70 66h1v1h-1z" /><path fill="#9f7e68" d="M21 31h1v1h-1zM19 35h1v1h-1zM81 38h1v1h-1zM30 56h1v1h-1zM71 58h1v1h-1z" /><path fill="#d1b291" d="M22 31h1v1h-1zM46 42h1v1h-1z" /><path fill="#e7c69e" d="M25 31h1v1h-1zM74 31h1v1h-1zM25 33h1v1h-1z" /><path fill="#d3b491" d="M42 31h1v1h-1zM23 51h1v1h-1z" /><path fill="#ebc8a0" d="M43 31h1v1h-1zM43 36h1v1h-1zM26 53h1v1h-1z" /><path fill="#e1bf9a" d="M58 31h1v1h-1zM28 33h1v1h-1zM79 35h1v1h-1zM46 37h1v1h-1zM74 56h1v1h-1zM80 61h1v1h-1z" /><path fill="#cdad8e" d="M59 31h1v1h-1zM65 33h1v1h-1zM75 34h1v1h-1zM52 37h1v1h-1zM79 38h1v1h-1zM19 39h1v1h-1zM82 54h1v1h-1zM82 55h1v1h-1zM82 56h1v1h-1zM82 57h1v1h-1zM23 65h1v1h-1zM72 75h1v1h-1z" /><path fill="#e0be99" d="M60 31h1v1h-1zM20 37h1v1h-1zM77 56h1v1h-1z" /><path fill="#efcba3" d="M61 31h1v1h-1zM55 33h1v1h-1zM41 41h1v1h-1zM30 51h1v1h-1zM22 54h1v1h-1zM77 63h1v1h-1z" /><path fill="#dfbc98" d="M77 31h1v1h-1zM53 38h1v1h-1z" /><path fill="#9d7c66" d="M78 31h1v1h-1z" /><path fill="#452924" d="M81 31h1v1h-1zM16 33h1v1h-1zM83 33h1v1h-1zM42 53h1v1h-1zM57 53h1v1h-1zM71 65h1v1h-1zM71 70h1v1h-1zM57 72h1v1h-1z" /><path fill="#4c2d26" d="M82 31h1v1h-1zM85 35h1v1h-1zM89 53h1v1h-1zM59 68h1v1h-1z" /><path fill="#4f2f28" d="M16 32h1v1h-1zM83 32h1v1h-1zM12 51h1v1h-1zM87 51h1v1h-1zM40 71h1v1h-1zM49 73h2v1h-2z" /><path fill="#442823" d="M17 32h1v1h-1zM82 32h1v1h-1zM16 34h1v1h-1zM83 34h1v1h-1zM15 35h1v1h-1zM84 35h1v1h-1zM14 36h2v1h-2zM84 36h2v1h-2zM14 37h2v1h-2zM84 37h2v1h-2zM13 38h2v1h-2zM85 38h2v1h-2zM12 39h3v1h-3zM85 39h3v1h-3zM12 40h2v1h-2zM86 40h2v1h-2zM11 41h3v1h-3zM86 41h3v1h-3zM11 42h3v1h-3zM86 42h3v1h-3zM10 43h3v1h-3zM87 43h3v1h-3zM10 44h3v1h-3zM87 44h3v1h-3zM9 45h4v1h-4zM87 45h4v1h-4zM9 46h4v1h-4zM87 46h4v1h-4zM9 47h3v1h-3zM88 47h4v1h-4zM9 48h3v1h-3zM88 48h3v1h-3zM9 49h3v1h-3zM88 49h3v1h-3zM10 50h2v1h-2zM88 50h2v1h-2zM10 51h2v1h-2zM88 51h2v1h-2zM11 52h1v1h-1zM88 52h1v1h-1zM11 53h1v1h-1zM88 53h1v1h-1zM29 66h1v1h-1zM71 66h1v1h-1zM29 67h2v1h-2zM70 67h2v1h-2zM29 68h3v1h-3zM68 68h4v1h-4zM29 69h4v1h-4zM67 69h5v1h-5zM30 70h5v1h-5zM65 70h6v1h-6zM30 71h7v1h-7zM63 71h8v1h-8zM30 72h10v1h-10zM41 72h1v1h-1zM58 72h13v1h-13zM30 73h16v1h-16zM55 73h16v1h-16zM30 74h41v1h-41zM31 75h39v1h-39zM32 76h37v1h-37zM34 77h34v1h-34zM39 78h23v1h-23zM41 79h19v1h-19z" /><path fill="#4e2f27" d="M18 32h1v1h-1z" /><path fill="#6c4a3d" d="M20 32h1v1h-1z" /><path fill="#cbab8c" d="M21 32h1v1h-1zM72 36h1v1h-1zM48 42h1v1h-1zM44 44h1v1h-1z" /><path fill="#e5c49e" d="M22 32h1v1h-1z" /><path fill="#e3c29b" d="M24 32h1v1h-1zM42 39h1v1h-1zM80 47h1v1h-1z" /><path fill="#d9b895" d="M43 32h1v1h-1zM37 35h1v1h-1zM24 56h1v1h-1z" /><path fill="#eac69f" d="M57 32h1v1h-1zM50 36h1v1h-1zM51 38h1v1h-1z" /><path fill="#cdac8d" d="M58 32h1v1h-1zM81 44h1v1h-1zM82 53h1v1h-1zM25 73h1v1h-1z" /><path fill="#dbba96" d="M59 32h1v1h-1zM63 33h1v1h-1z" /><path fill="#e3c09b" d="M74 32h1v1h-1zM77 51h1v1h-1zM20 53h1v1h-1zM23 55h1v1h-1z" /><path fill="#e4c19c" d="M75 32h1v1h-1zM52 38h1v1h-1zM18 55h1v1h-1zM27 61h1v1h-1z" /><path fill="#d0b08f" d="M78 32h1v1h-1zM78 55h1v1h-1zM27 66h1v1h-1zM74 66h1v1h-1zM76 71h1v1h-1z" /><path fill="#4e2e27" d="M81 32h1v1h-1zM49 54h1v1h-1zM51 55h1v1h-1zM58 63h1v1h-1zM34 69h1v1h-1zM51 73h1v1h-1z" /><path fill="#52312a" d="M15 33h1v1h-1zM8 45h1v1h-1zM12 53h1v1h-1zM87 53h1v1h-1zM70 65h1v1h-1z" /><path fill="#462a24" d="M17 33h1v1h-1zM69 76h1v1h-1z" /><path fill="#ac8b73" d="M20 33h1v1h-1z" /><path fill="#d7b594" d="M21 33h1v1h-1zM77 69h1v1h-1z" /><path fill="#d1b191" d="M24 33h1v1h-1zM31 33h1v1h-1zM51 33h1v1h-1zM55 34h1v1h-1zM80 38h1v1h-1zM19 41h1v1h-1z" /><path fill="#e8c59f" d="M27 33h1v1h-1zM21 34h1v1h-1zM63 48h1v1h-1zM81 59h1v1h-1z" /><path fill="#dbb996" d="M29 33h1v1h-1zM78 36h1v1h-1zM31 53h1v1h-1z" /><path fill="#d5b493" d="M30 33h1v1h-1zM37 43h1v1h-1zM43 44h1v1h-1z" /><path fill="#d0ae8f" d="M32 33h1v1h-1z" /><path fill="#cdad8d" d="M33 33h1v1h-1zM58 33h1v1h-1zM57 35h1v1h-1zM80 44h1v1h-1zM30 55h1v1h-1zM82 58h1v1h-1zM80 62h1v1h-1zM24 72h1v1h-1zM26 74h1v1h-1z" /><path fill="#ccad8d" d="M34 33h1v1h-1z" /><path fill="#cfaf8f" d="M35 33h1v1h-1zM43 35h1v1h-1zM20 47h1v1h-1zM22 50h1v1h-1z" /><path fill="#d6b693" d="M36 33h1v1h-1zM63 37h1v1h-1zM81 60h1v1h-1z" /><path fill="#e8c69f" d="M37 33h1v1h-1zM58 40h1v1h-1z" /><path fill="#d1b190" d="M43 33h1v1h-1zM43 34h1v1h-1zM20 38h1v1h-1zM21 49h1v1h-1zM83 57h1v1h-1zM77 68h1v1h-1z" /><path fill="#e2c19b" d="M46 33h1v1h-1zM70 51h1v1h-1z" /><path fill="#dab996" d="M47 33h1v1h-1zM56 38h1v1h-1zM52 41h1v1h-1zM18 51h1v1h-1zM20 62h1v1h-1zM73 66h1v1h-1z" /><path fill="#d4b492" d="M48 33h1v1h-1zM58 34h1v1h-1z" /><path fill="#d1b090" d="M49 33h2v1h-2zM64 33h1v1h-1zM68 33h1v1h-1zM36 38h1v1h-1zM80 45h1v1h-1zM79 48h1v1h-1z" /><path fill="#d6b593" d="M52 33h1v1h-1zM45 34h1v1h-1zM36 42h1v1h-1zM27 65h1v1h-1z" /><path fill="#cdac8e" d="M66 33h1v1h-1zM73 34h1v1h-1z" /><path fill="#ceaf8f" d="M67 33h1v1h-1zM26 34h1v1h-1zM63 44h1v1h-1zM23 71h1v1h-1z" /><path fill="#d3b391" d="M69 33h1v1h-1zM80 40h1v1h-1zM79 64h1v1h-1z" /><path fill="#d8b895" d="M70 33h1v1h-1zM27 64h1v1h-1z" /><path fill="#edcaa1" d="M73 33h1v1h-1z" /><path fill="#d2b090" d="M75 33h1v1h-1zM51 41h1v1h-1z" /><path fill="#e4c29c" d="M78 33h1v1h-1zM52 34h1v1h-1zM21 36h1v1h-1zM48 38h1v1h-1zM18 58h1v1h-1z" /><path fill="#aa8971" d="M79 33h1v1h-1z" /><path fill="#462924" d="M82 33h1v1h-1zM13 37h1v1h-1zM86 37h1v1h-1zM37 53h1v1h-1zM62 53h1v1h-1zM11 54h1v1h-1zM66 69h1v1h-1zM37 71h1v1h-1zM62 71h1v1h-1zM31 76h1v1h-1zM40 79h1v1h-1z" /><path fill="#472a24" d="M15 34h1v1h-1zM49 56h1v1h-1zM55 61h1v1h-1zM35 70h1v1h-1z" /><path fill="#4e2e28" d="M17 34h1v1h-1z" /><path fill="#ccac8d" d="M20 34h1v1h-1zM27 34h10v1h-10zM63 34h10v1h-10zM23 35h14v1h-14zM63 35h14v1h-14zM22 36h6v1h-6zM29 36h8v1h-8zM64 36h7v1h-7zM73 36h5v1h-5zM19 37h1v1h-1zM22 37h3v1h-3zM33 37h4v1h-4zM49 37h3v1h-3zM64 37h4v1h-4zM76 37h3v1h-3zM19 38h1v1h-1zM21 38h3v1h-3zM34 38h2v1h-2zM64 38h3v1h-3zM77 38h2v1h-2zM21 39h2v1h-2zM35 39h1v1h-1zM64 39h2v1h-2zM78 39h2v1h-2zM18 40h1v1h-1zM20 40h2v1h-2zM64 40h1v1h-1zM79 40h1v1h-1zM81 40h1v1h-1zM18 41h1v1h-1zM20 41h2v1h-2zM64 41h1v1h-1zM79 41h1v1h-1zM81 41h1v1h-1zM18 42h1v1h-1zM20 42h2v1h-2zM47 42h1v1h-1zM53 42h1v1h-1zM64 42h1v1h-1zM79 42h1v1h-1zM81 42h1v1h-1zM18 43h1v1h-1zM20 43h2v1h-2zM36 43h1v1h-1zM45 43h1v1h-1zM64 43h1v1h-1zM79 43h3v1h-3zM18 44h1v1h-1zM20 44h2v1h-2zM36 44h1v1h-1zM64 44h1v1h-1zM79 44h1v1h-1zM18 45h1v1h-1zM20 45h2v1h-2zM43 45h1v1h-1zM57 45h1v1h-1zM79 45h1v1h-1zM18 46h1v1h-1zM20 46h2v1h-2zM79 46h1v1h-1zM17 47h2v1h-2zM21 47h1v1h-1zM78 47h2v1h-2zM82 47h1v1h-1zM17 48h1v1h-1zM21 48h2v1h-2zM78 48h1v1h-1zM82 48h1v1h-1zM17 49h1v1h-1zM22 49h2v1h-2zM77 49h2v1h-2zM82 49h1v1h-1zM17 50h1v1h-1zM23 50h3v1h-3zM75 50h3v1h-3zM82 50h1v1h-1zM17 51h1v1h-1zM24 51h5v1h-5zM71 51h5v1h-5zM82 51h1v1h-1zM17 52h1v1h-1zM26 52h2v1h-2zM72 52h2v1h-2zM82 52h1v1h-1zM17 53h1v1h-1zM17 54h1v1h-1zM17 55h1v1h-1zM17 56h1v1h-1zM17 57h1v1h-1zM81 61h1v1h-1zM20 63h1v1h-1zM79 63h1v1h-1zM21 64h1v1h-1zM78 64h1v1h-1zM22 65h1v1h-1zM77 65h1v1h-1zM22 66h3v1h-3zM75 66h3v1h-3zM23 67h5v1h-5zM73 67h5v1h-5zM23 68h5v1h-5zM73 68h4v1h-4zM23 69h5v1h-5zM73 69h4v1h-4zM24 70h4v1h-4zM72 70h5v1h-5zM24 71h5v1h-5zM72 71h4v1h-4zM25 72h4v1h-4zM72 72h4v1h-4zM26 73h3v1h-3zM72 73h3v1h-3zM27 74h2v1h-2zM72 74h2v1h-2zM28 75h2v1h-2zM71 75h1v1h-1z" /><path fill="#cead8e" d="M24 34h1v1h-1zM48 37h1v1h-1zM28 59h1v1h-1zM19 62h1v1h-1z" /><path fill="#d6b794" d="M25 34h1v1h-1z" /><path fill="#d4b392" d="M37 34h1v1h-1zM74 34h1v1h-1zM20 35h1v1h-1zM56 35h1v1h-1zM64 45h1v1h-1zM81 46h1v1h-1zM32 52h1v1h-1zM22 55h1v1h-1z" /><path fill="#e5c49d" d="M42 34h1v1h-1z" /><path fill="#dab896" d="M44 34h1v1h-1zM57 34h1v1h-1zM80 53h1v1h-1z" /><path fill="#e1be9a" d="M46 34h1v1h-1zM62 34h1v1h-1z" /><path fill="#ecc9a2" d="M48 34h1v1h-1zM55 37h1v1h-1zM76 64h1v1h-1z" /><path fill="#dcbc98" d="M53 34h1v1h-1z" /><path fill="#d2b291" d="M54 34h1v1h-1zM79 34h1v1h-1zM19 43h1v1h-1zM28 52h1v1h-1zM22 64h1v1h-1z" /><path fill="#ddbb98" d="M76 34h1v1h-1zM20 36h1v1h-1zM40 46h1v1h-1z" /><path fill="#6f4c40" d="M80 34h1v1h-1zM64 50h1v1h-1z" /><path fill="#4f2e27" d="M82 34h1v1h-1zM86 45h1v1h-1z" /><path fill="#472924" d="M84 34h1v1h-1z" /><path fill="#daba96" d="M58 35h1v1h-1z" /><path fill="#9e7d67" d="M80 35h1v1h-1z" /><path fill="#452923" d="M83 35h1v1h-1zM14 40h1v1h-1zM13 43h1v1h-1zM8 47h1v1h-1zM87 47h1v1h-1zM69 67h1v1h-1zM62 78h1v1h-1z" /><path fill="#513129" d="M13 36h1v1h-1zM51 54h1v1h-1z" /><path fill="#4c2e27" d="M16 36h1v1h-1z" /><path fill="#5c3930" d="M18 36h1v1h-1z" /><path fill="#c6a688" d="M19 36h1v1h-1zM80 36h1v1h-1z" /><path fill="#c9a98b" d="M28 36h1v1h-1zM71 36h1v1h-1z" /><path fill="#e1c09b" d="M42 36h1v1h-1zM38 43h1v1h-1zM19 46h1v1h-1z" /><path fill="#eccaa2" d="M49 36h1v1h-1zM42 44h1v1h-1zM78 56h1v1h-1z" /><path fill="#ceae8e" d="M63 36h1v1h-1zM18 48h1v1h-1zM76 51h1v1h-1zM18 60h1v1h-1zM21 65h1v1h-1zM25 66h1v1h-1z" /><path fill="#5c3931" d="M81 36h1v1h-1z" /><path fill="#523029" d="M86 36h1v1h-1zM49 52h1v1h-1zM58 71h1v1h-1z" /><path fill="#815f4f" d="M18 37h1v1h-1zM81 37h1v1h-1zM37 49h1v1h-1zM83 50h1v1h-1z" /><path fill="#ccac8e" d="M21 37h1v1h-1zM23 70h1v1h-1z" /><path fill="#ae9278" d="M25 37h1v1h-1zM74 50h1v1h-1z" /><path fill="#524539" d="M26 37h1v1h-1z" /><path fill="#181411" d="M27 37h1v1h-1zM70 37h1v1h-1z" /><path fill="#010101" d="M28 37h1v1h-1zM71 37h1v1h-1zM77 46h1v1h-1zM67 47h1v1h-1z" /><path fill="#040303" d="M29 37h1v1h-1zM72 37h1v1h-1zM25 38h1v1h-1zM68 38h1v1h-1z" /><path fill="#221d18" d="M30 37h1v1h-1zM22 42h1v1h-1z" /><path fill="#655546" d="M31 37h1v1h-1zM70 50h1v1h-1z" /><path fill="#bea184" d="M32 37h1v1h-1z" /><path fill="#d6b493" d="M53 37h1v1h-1z" /><path fill="#dfbe99" d="M54 37h1v1h-1zM81 49h1v1h-1z" /><path fill="#ae9379" d="M68 37h1v1h-1z" /><path fill="#53463a" d="M69 37h1v1h-1z" /><path fill="#221c17" d="M73 37h1v1h-1z" /><path fill="#645445" d="M74 37h1v1h-1z" /><path fill="#bea083" d="M75 37h1v1h-1z" /><path fill="#e0be9a" d="M79 37h1v1h-1zM79 62h1v1h-1z" /><path fill="#cfaf8e" d="M80 37h1v1h-1zM55 38h1v1h-1zM20 39h1v1h-1zM55 43h1v1h-1zM22 67h1v1h-1z" /><path fill="#4a2b26" d="M15 38h1v1h-1zM86 44h1v1h-1zM8 46h1v1h-1z" /><path fill="#a07f68" d="M18 38h1v1h-1z" /><path fill="#746250" d="M24 38h1v1h-1z" /><path fill="#000000" d="M26 38h6v1h-6zM69 38h6v1h-6zM24 39h5v1h-5zM67 39h1v1h-1zM72 39h4v1h-4zM24 40h4v1h-4zM33 40h1v1h-1zM67 40h1v1h-1zM72 40h5v1h-5zM23 41h5v1h-5zM33 41h2v1h-2zM66 41h2v1h-2zM72 41h6v1h-6zM23 42h6v1h-6zM32 42h3v1h-3zM66 42h2v1h-2zM72 42h6v1h-6zM23 43h12v1h-12zM66 43h12v1h-12zM23 44h12v1h-12zM66 44h12v1h-12zM23 45h12v1h-12zM66 45h12v1h-12zM23 46h11v1h-11zM66 46h11v1h-11zM24 47h9v1h-9zM68 47h9v1h-9zM25 48h7v1h-7zM69 48h7v1h-7zM26 49h5v1h-5zM70 49h4v1h-4z" /><path fill="#100d0b" d="M32 38h1v1h-1z" /><path fill="#977f69" d="M33 38h1v1h-1zM76 38h1v1h-1z" /><path fill="#d0af90" d="M45 38h1v1h-1zM49 41h1v1h-1z" /><path fill="#d7b694" d="M46 38h1v1h-1zM54 42h1v1h-1zM37 48h1v1h-1z" /><path fill="#d6b694" d="M54 38h1v1h-1zM21 63h1v1h-1z" /><path fill="#ecc9a0" d="M57 38h1v1h-1zM72 55h1v1h-1z" /><path fill="#debd98" d="M63 38h1v1h-1zM18 53h1v1h-1z" /><path fill="#756251" d="M67 38h1v1h-1z" /><path fill="#0f0d0b" d="M75 38h1v1h-1zM24 48h1v1h-1z" /><path fill="#4a2c26" d="M84 38h1v1h-1zM87 49h1v1h-1z" /><path fill="#543129" d="M11 39h1v1h-1zM88 39h1v1h-1zM47 46h1v1h-1zM12 54h1v1h-1z" /><path fill="#513029" d="M15 39h1v1h-1zM84 39h1v1h-1zM10 41h1v1h-1zM89 41h1v1h-1zM91 45h1v1h-1zM51 49h1v1h-1zM12 52h1v1h-1zM87 52h1v1h-1zM39 57h1v1h-1zM60 57h1v1h-1zM65 69h1v1h-1zM55 72h1v1h-1z" /><path fill="#bd9d81" d="M18 39h1v1h-1z" /><path fill="#766351" d="M23 39h1v1h-1z" /><path fill="#7e7e7e" d="M29 39h1v1h-1z" /><path fill="#f6f6f6" d="M30 39h1v1h-1z" /><path fill="#c3c3c3" d="M31 39h1v1h-1z" /><path fill="#0f0f0f" d="M32 39h1v1h-1z" /><path fill="#060504" d="M33 39h1v1h-1zM76 39h1v1h-1zM23 40h1v1h-1zM66 40h1v1h-1z" /><path fill="#9f866e" d="M34 39h1v1h-1zM77 39h1v1h-1z" /><path fill="#d7b794" d="M36 39h1v1h-1zM48 41h1v1h-1zM80 63h1v1h-1z" /><path fill="#e3c29c" d="M56 39h1v1h-1z" /><path fill="#d8b695" d="M57 39h1v1h-1zM81 47h1v1h-1z" /><path fill="#e0bf9a" d="M58 39h1v1h-1z" /><path fill="#766452" d="M66 39h1v1h-1z" /><path fill="#2e2e2e" d="M68 39h1v1h-1z" /><path fill="#dddddd" d="M69 39h1v1h-1z" /><path fill="#ececec" d="M70 39h1v1h-1z" /><path fill="#4f4f4f" d="M71 39h1v1h-1zM31 42h1v1h-1z" /><path fill="#d5b593" d="M80 39h1v1h-1zM18 50h1v1h-1z" /><path fill="#bd9c80" d="M81 39h1v1h-1zM82 45h1v1h-1z" /><path fill="#492b26" d="M11 40h1v1h-1zM91 46h1v1h-1z" /><path fill="#654237" d="M17 40h1v1h-1z" /><path fill="#d0b090" d="M19 40h1v1h-1zM80 41h1v1h-1zM42 45h1v1h-1zM59 46h1v1h-1z" /><path fill="#b2967b" d="M22 40h1v1h-1zM65 40h1v1h-1z" /><path fill="#0e0e0e" d="M28 40h1v1h-1z" /><path fill="#fefefe" d="M29 40h1v1h-1z" /><path fill="#ffffff" d="M30 40h2v1h-2zM69 40h2v1h-2zM30 41h2v1h-2zM69 41h2v1h-2z" /><path fill="#686868" d="M32 40h1v1h-1z" /><path fill="#1e1a15" d="M34 40h1v1h-1zM77 40h1v1h-1z" /><path fill="#c8a98a" d="M35 40h1v1h-1zM78 40h1v1h-1z" /><path fill="#e1c09a" d="M59 40h1v1h-1z" /><path fill="#a2a2a2" d="M68 40h1v1h-1z" /><path fill="#d3d3d3" d="M71 40h1v1h-1z" /><path fill="#644137" d="M82 40h1v1h-1z" /><path fill="#452824" d="M85 40h1v1h-1zM33 69h1v1h-1zM40 72h1v1h-1z" /><path fill="#7a584a" d="M17 41h1v1h-1z" /><path fill="#5b4d3f" d="M22 41h1v1h-1z" /><path fill="#030303" d="M28 41h1v1h-1z" /><path fill="#e3e3e3" d="M29 41h1v1h-1z" /><path fill="#434343" d="M32 41h1v1h-1z" /><path fill="#8a7560" d="M35 41h1v1h-1z" /><path fill="#e9c79f" d="M53 41h1v1h-1zM62 44h1v1h-1z" /><path fill="#5c4e40" d="M65 41h1v1h-1z" /><path fill="#7d7d7d" d="M68 41h1v1h-1z" /><path fill="#adadad" d="M71 41h1v1h-1z" /><path fill="#8a745f" d="M78 41h1v1h-1z" /><path fill="#7a5849" d="M82 41h1v1h-1z" /><path fill="#482a24" d="M10 42h1v1h-1zM90 44h1v1h-1zM87 48h1v1h-1zM59 71h1v1h-1z" /><path fill="#8f6d59" d="M17 42h1v1h-1zM16 51h1v1h-1z" /><path fill="#242424" d="M29 42h1v1h-1z" /><path fill="#838383" d="M30 42h1v1h-1z" /><path fill="#524538" d="M35 42h1v1h-1z" /><path fill="#c1a184" d="M49 42h1v1h-1zM34 51h1v1h-1z" /><path fill="#bb9b7f" d="M50 42h1v1h-1z" /><path fill="#be9e81" d="M51 42h1v1h-1zM17 45h1v1h-1z" /><path fill="#caaa8b" d="M52 42h1v1h-1z" /><path fill="#231e18" d="M65 42h1v1h-1z" /><path fill="#050505" d="M68 42h1v1h-1z" /><path fill="#696969" d="M69 42h1v1h-1z" /><path fill="#797979" d="M70 42h1v1h-1z" /><path fill="#101010" d="M71 42h1v1h-1z" /><path fill="#514438" d="M78 42h1v1h-1z" /><path fill="#ccad8e" d="M80 42h1v1h-1z" /><path fill="#8e6c59" d="M82 42h1v1h-1zM83 51h1v1h-1z" /><path fill="#502f29" d="M85 42h1v1h-1zM90 43h1v1h-1z" /><path fill="#a1806a" d="M17 43h1v1h-1zM82 43h1v1h-1z" /><path fill="#0b0908" d="M22 43h1v1h-1z" /><path fill="#393027" d="M35 43h1v1h-1z" /><path fill="#b6967a" d="M46 43h1v1h-1z" /><path fill="#836150" d="M47 43h1v1h-1z" /><path fill="#654035" d="M48 43h1v1h-1z" /><path fill="#5c362e" d="M49 43h3v1h-3z" /><path fill="#5d3930" d="M52 43h1v1h-1z" /><path fill="#775546" d="M53 43h1v1h-1z" /><path fill="#a7866e" d="M54 43h1v1h-1z" /><path fill="#d8b694" d="M62 43h1v1h-1z" /><path fill="#ceae8f" d="M63 43h1v1h-1zM18 61h1v1h-1z" /><path fill="#0c0a08" d="M65 43h1v1h-1z" /><path fill="#382f27" d="M78 43h1v1h-1z" /><path fill="#452823" d="M86 43h1v1h-1zM12 47h1v1h-1zM54 73h1v1h-1z" /><path fill="#4a2c25" d="M13 44h1v1h-1zM49 55h1v1h-1z" /><path fill="#b19177" d="M17 44h1v1h-1zM72 68h1v1h-1z" /><path fill="#d4b493" d="M19 44h1v1h-1z" /><path fill="#120f0c" d="M22 44h1v1h-1z" /><path fill="#41372d" d="M35 44h1v1h-1z" /><path fill="#dfbd98" d="M37 44h1v1h-1z" /><path fill="#8f6d5a" d="M45 44h1v1h-1z" /><path fill="#57342c" d="M46 44h1v1h-1zM16 46h1v1h-1zM83 46h1v1h-1zM62 49h1v1h-1zM29 60h1v1h-1z" /><path fill="#5a352d" d="M48 44h1v1h-1z" /><path fill="#693d35" d="M49 44h1v1h-1z" /><path fill="#714239" d="M50 44h1v1h-1z" /><path fill="#623a31" d="M51 44h1v1h-1z" /><path fill="#795748" d="M55 44h1v1h-1z" /><path fill="#c8a789" d="M56 44h1v1h-1z" /><path fill="#e0bf99" d="M57 44h1v1h-1z" /><path fill="#12100d" d="M65 44h1v1h-1z" /><path fill="#40362c" d="M78 44h1v1h-1z" /><path fill="#b29177" d="M82 44h1v1h-1z" /><path fill="#4f2e28" d="M13 45h1v1h-1z" /><path fill="#d9b896" d="M19 45h1v1h-1z" /><path fill="#342c24" d="M22 45h1v1h-1z" /><path fill="#6d5c4c" d="M35 45h1v1h-1z" /><path fill="#93725f" d="M44 45h1v1h-1z" /><path fill="#472720" d="M48 45h1v1h-1zM48 47h1v1h-1z" /><path fill="#482720" d="M51 45h1v1h-1z" /><path fill="#523028" d="M52 45h1v1h-1z" /><path fill="#7c5a4a" d="M56 45h1v1h-1zM31 55h1v1h-1z" /><path fill="#dab895" d="M58 45h1v1h-1zM76 56h1v1h-1z" /><path fill="#ebc8a1" d="M63 45h1v1h-1z" /><path fill="#352d24" d="M65 45h1v1h-1z" /><path fill="#625243" d="M78 45h1v1h-1z" /><path fill="#cfb08f" d="M81 45h1v1h-1z" /><path fill="#c8a88a" d="M17 46h1v1h-1zM82 46h1v1h-1zM28 60h1v1h-1z" /><path fill="#786553" d="M22 46h1v1h-1z" /><path fill="#2b251e" d="M34 46h1v1h-1z" /><path fill="#ccab8c" d="M41 46h1v1h-1z" /><path fill="#ad8c73" d="M42 46h1v1h-1zM28 63h1v1h-1z" /><path fill="#846353" d="M43 46h1v1h-1z" /><path fill="#56342b" d="M44 46h1v1h-1z" /><path fill="#331813" d="M48 46h1v1h-1z" /><path fill="#522f27" d="M49 46h1v1h-1z" /><path fill="#3f201b" d="M51 46h1v1h-1z" /><path fill="#45251e" d="M52 46h1v1h-1z" /><path fill="#836151" d="M57 46h1v1h-1z" /><path fill="#a68d72" d="M65 46h1v1h-1z" /><path fill="#a68c72" d="M78 46h1v1h-1z" /><path fill="#ebc9a1" d="M19 47h1v1h-1z" /><path fill="#c6a789" d="M22 47h1v1h-1z" /><path fill="#1e1914" d="M23 47h1v1h-1z" /><path fill="#43392d" d="M33 47h1v1h-1z" /><path fill="#e8c6a0" d="M38 47h1v1h-1z" /><path fill="#cfae8e" d="M39 47h1v1h-1zM76 65h1v1h-1z" /><path fill="#a18069" d="M40 47h1v1h-1zM60 47h1v1h-1z" /><path fill="#69473b" d="M41 47h1v1h-1z" /><path fill="#492b24" d="M50 47h1v1h-1z" /><path fill="#502d26" d="M51 47h1v1h-1z" /><path fill="#4c2b24" d="M52 47h1v1h-1z" /><path fill="#dbb997" d="M61 47h1v1h-1z" /><path fill="#8c7760" d="M66 47h1v1h-1z" /><path fill="#483d32" d="M77 47h1v1h-1z" /><path fill="#5e3b32" d="M83 47h1v1h-1z" /><path fill="#472a23" d="M8 48h1v1h-1z" /><path fill="#aa8f75" d="M23 48h1v1h-1z" /><path fill="#615242" d="M32 48h1v1h-1z" /><path fill="#eccaa0" d="M33 48h1v1h-1z" /><path fill="#af8e75" d="M38 48h1v1h-1zM28 62h1v1h-1z" /><path fill="#69463a" d="M39 48h1v1h-1z" /><path fill="#462a23" d="M48 48h1v1h-1zM53 48h1v1h-1z" /><path fill="#2f1c17" d="M49 48h1v1h-1z" /><path fill="#0a0605" d="M50 48h1v1h-1z" /><path fill="#351f1a" d="M51 48h1v1h-1z" /><path fill="#3f2520" d="M52 48h1v1h-1z" /><path fill="#67453a" d="M61 48h1v1h-1zM32 54h1v1h-1z" /><path fill="#af8f74" d="M62 48h1v1h-1z" /><path fill="#a38b70" d="M67 48h1v1h-1z" /><path fill="#070605" d="M68 48h1v1h-1z" /><path fill="#26201b" d="M76 48h1v1h-1z" /><path fill="#c1a385" d="M77 48h1v1h-1z" /><path fill="#69473c" d="M83 48h1v1h-1zM36 50h1v1h-1z" /><path fill="#472923" d="M91 48h1v1h-1zM88 54h1v1h-1z" /><path fill="#b0947a" d="M24 49h1v1h-1z" /><path fill="#322a22" d="M25 49h1v1h-1z" /><path fill="#6d5d4b" d="M31 49h1v1h-1z" /><path fill="#debc99" d="M35 49h1v1h-1z" /><path fill="#c7a989" d="M36 49h1v1h-1z" /><path fill="#4f2f27" d="M49 49h1v1h-1z" /><path fill="#231512" d="M50 49h1v1h-1z" /><path fill="#886654" d="M63 49h1v1h-1z" /><path fill="#d2b192" d="M64 49h1v1h-1z" /><path fill="#e9c8a0" d="M65 49h1v1h-1z" /><path fill="#bba080" d="M68 49h1v1h-1z" /><path fill="#080706" d="M69 49h1v1h-1z" /><path fill="#020101" d="M74 49h1v1h-1z" /><path fill="#4e4136" d="M75 49h1v1h-1z" /><path fill="#c2a486" d="M76 49h1v1h-1z" /><path fill="#472925" d="M9 50h1v1h-1z" /><path fill="#4d2e28" d="M12 50h1v1h-1zM61 71h1v1h-1z" /><path fill="#826050" d="M16 50h1v1h-1z" /><path fill="#9d846c" d="M26 50h1v1h-1z" /><path fill="#625344" d="M27 50h1v1h-1z" /><path fill="#493d32" d="M28 50h1v1h-1zM71 50h1v1h-1z" /><path fill="#4c4035" d="M29 50h1v1h-1zM72 50h1v1h-1z" /><path fill="#a78e73" d="M30 50h1v1h-1z" /><path fill="#d3b291" d="M34 50h1v1h-1zM25 52h1v1h-1zM82 59h1v1h-1z" /><path fill="#bf9e82" d="M35 50h1v1h-1z" /><path fill="#241612" d="M50 50h1v1h-1zM50 56h1v1h-1z" /><path fill="#c1a084" d="M65 50h1v1h-1z" /><path fill="#e6c49e" d="M66 50h1v1h-1zM22 56h1v1h-1zM18 57h1v1h-1z" /><path fill="#d8b894" d="M69 50h1v1h-1z" /><path fill="#6e5c4c" d="M73 50h1v1h-1z" /><path fill="#debe99" d="M78 50h1v1h-1z" /><path fill="#603d33" d="M35 51h1v1h-1z" /><path fill="#1d110f" d="M50 51h1v1h-1zM50 54h1v1h-1zM47 59h1v1h-1z" /><path fill="#623f35" d="M65 51h1v1h-1z" /><path fill="#b9987c" d="M66 51h1v1h-1z" /><path fill="#e4c19d" d="M81 51h1v1h-1z" /><path fill="#4a2d25" d="M90 51h1v1h-1z" /><path fill="#9b7964" d="M16 52h1v1h-1z" /><path fill="#5e3b31" d="M34 52h1v1h-1z" /><path fill="#1d110e" d="M50 52h1v1h-1zM50 53h1v1h-1z" /><path fill="#b99a7d" d="M67 52h1v1h-1z" /><path fill="#cfae8f" d="M74 52h1v1h-1zM83 56h1v1h-1zM78 65h1v1h-1z" /><path fill="#e5c59e" d="M81 52h1v1h-1z" /><path fill="#9a7863" d="M83 52h1v1h-1z" /><path fill="#4b2d26" d="M10 53h1v1h-1z" /><path fill="#a5846d" d="M16 53h1v1h-1z" /><path fill="#be9d81" d="M32 53h1v1h-1z" /><path fill="#502f28" d="M49 53h1v1h-1zM71 64h1v1h-1z" /><path fill="#634035" d="M67 53h1v1h-1z" /><path fill="#c2a184" d="M68 53h1v1h-1z" /><path fill="#e4c29d" d="M72 53h1v1h-1z" /><path fill="#a6856e" d="M83 53h1v1h-1z" /><path fill="#b09074" d="M16 54h1v1h-1z" /><path fill="#e0c09a" d="M18 54h1v1h-1z" /><path fill="#e4c39c" d="M20 54h1v1h-1z" /><path fill="#c5a588" d="M31 54h1v1h-1z" /><path fill="#6c4a3e" d="M68 54h1v1h-1z" /><path fill="#d4b390" d="M69 54h1v1h-1z" /><path fill="#d3b392" d="M79 54h1v1h-1z" /><path fill="#b29076" d="M83 54h1v1h-1z" /><path fill="#53322a" d="M87 54h1v1h-1z" /><path fill="#4c2c25" d="M11 55h1v1h-1zM41 68h1v1h-1z" /><path fill="#bb9a81" d="M16 55h1v1h-1z" /><path fill="#eecaa1" d="M29 55h1v1h-1z" /><path fill="#1e1210" d="M50 55h1v1h-1z" /><path fill="#856352" d="M69 55h1v1h-1z" /><path fill="#c3a385" d="M83 55h1v1h-1z" /><path fill="#4a2c27" d="M88 55h1v1h-1z" /><path fill="#ebc9a0" d="M27 56h1v1h-1z" /><path fill="#d7b793" d="M29 56h1v1h-1z" /><path fill="#523129" d="M38 56h1v1h-1zM61 56h1v1h-1zM44 60h1v1h-1zM43 64h1v1h-1z" /><path fill="#aa8970" d="M70 56h1v1h-1z" /><path fill="#e7c49d" d="M73 56h1v1h-1z" /><path fill="#c6a687" d="M29 57h1v1h-1z" /><path fill="#402621" d="M49 57h1v1h-1z" /><path fill="#271714" d="M50 57h1v1h-1z" /><path fill="#422622" d="M51 57h1v1h-1z" /><path fill="#654338" d="M70 57h1v1h-1z" /><path fill="#dbba95" d="M71 57h1v1h-1z" /><path fill="#d0b08e" d="M17 58h1v1h-1z" /><path fill="#d6b492" d="M28 58h1v1h-1z" /><path fill="#967460" d="M29 58h1v1h-1z" /><path fill="#3f2620" d="M47 58h1v1h-1z" /><path fill="#180e0c" d="M48 58h1v1h-1zM52 58h1v1h-1zM45 60h1v1h-1z" /><path fill="#211311" d="M49 58h1v1h-1z" /><path fill="#39211c" d="M50 58h1v1h-1z" /><path fill="#231412" d="M51 58h1v1h-1z" /><path fill="#3e251f" d="M53 58h1v1h-1z" /><path fill="#d5b494" d="M17 59h1v1h-1z" /><path fill="#ddbc97" d="M18 59h1v1h-1z" /><path fill="#6b493c" d="M29 59h1v1h-1z" /><path fill="#221411" d="M46 59h1v1h-1z" /><path fill="#693d36" d="M48 59h1v1h-1z" /><path fill="#7e4a41" d="M49 59h1v1h-1z" /><path fill="#79473e" d="M50 59h1v1h-1z" /><path fill="#7c493f" d="M51 59h1v1h-1z" /><path fill="#6d4038" d="M52 59h1v1h-1z" /><path fill="#1f1210" d="M53 59h1v1h-1z" /><path fill="#201310" d="M54 59h1v1h-1z" /><path fill="#735043" d="M71 59h1v1h-1z" /><path fill="#3e241f" d="M46 60h1v1h-1z" /><path fill="#73433a" d="M47 60h1v1h-1z" /><path fill="#633a32" d="M48 60h1v1h-1z" /><path fill="#57342b" d="M49 60h1v1h-1z" /><path fill="#5d372f" d="M52 60h1v1h-1z" /><path fill="#6d3f37" d="M53 60h1v1h-1z" /><path fill="#412622" d="M54 60h1v1h-1z" /><path fill="#160d0b" d="M55 60h1v1h-1z" /><path fill="#dcba96" d="M72 60h1v1h-1z" /><path fill="#d5b291" d="M82 60h1v1h-1z" /><path fill="#d5b594" d="M19 61h1v1h-1z" /><path fill="#bb9a7e" d="M28 61h1v1h-1z" /><path fill="#1e120f" d="M44 61h1v1h-1z" /><path fill="#482b24" d="M45 61h1v1h-1z" /><path fill="#5e3730" d="M46 61h1v1h-1z" /><path fill="#59352d" d="M54 61h1v1h-1z" /><path fill="#1c100e" d="M56 61h1v1h-1z" /><path fill="#c7a586" d="M72 61h1v1h-1z" /><path fill="#311d19" d="M43 62h1v1h-1z" /><path fill="#3b231d" d="M44 62h1v1h-1z" /><path fill="#3a221d" d="M56 62h1v1h-1z" /><path fill="#2f1c18" d="M57 62h1v1h-1z" /><path fill="#ba9a7d" d="M72 62h1v1h-1z" /><path fill="#503028" d="M42 63h1v1h-1zM36 70h1v1h-1zM63 70h1v1h-1z" /><path fill="#2b1a16" d="M43 63h1v1h-1z" /><path fill="#291915" d="M57 63h1v1h-1z" /><path fill="#b09175" d="M72 63h1v1h-1z" /><path fill="#d1af8e" d="M20 64h1v1h-1z" /><path fill="#a4836b" d="M28 64h1v1h-1z" /><path fill="#37211b" d="M42 64h1v1h-1z" /><path fill="#36201b" d="M58 64h1v1h-1z" /><path fill="#9b7c66" d="M72 64h1v1h-1z" /><path fill="#d6b594" d="M77 64h1v1h-1z" /><path fill="#92725f" d="M28 65h1v1h-1z" /><path fill="#3c241e" d="M42 65h1v1h-1z" /><path fill="#3c231e" d="M58 65h1v1h-1z" /><path fill="#9f7e69" d="M72 65h1v1h-1z" /><path fill="#e1bf9b" d="M75 65h1v1h-1z" /><path fill="#9b7b66" d="M28 66h1v1h-1z" /><path fill="#4d2e27" d="M30 66h1v1h-1zM60 71h1v1h-1zM48 73h1v1h-1z" /><path fill="#512f29" d="M41 66h1v1h-1z" /><path fill="#4a2b25" d="M42 66h1v1h-1z" /><path fill="#4b2c25" d="M58 66h1v1h-1zM51 80h1v1h-1z" /><path fill="#a3836c" d="M72 66h1v1h-1z" /><path fill="#dab995" d="M78 66h1v1h-1z" /><path fill="#a5866e" d="M28 67h1v1h-1z" /><path fill="#a88970" d="M72 67h1v1h-1z" /><path fill="#d0b290" d="M22 68h1v1h-1z" /><path fill="#b09176" d="M28 68h1v1h-1z" /><path fill="#bc9c7f" d="M28 69h1v1h-1z" /><path fill="#492c25" d="M59 69h1v1h-1z" /><path fill="#c5a487" d="M72 69h1v1h-1z" /><path fill="#c8a88b" d="M28 70h1v1h-1z" /><path fill="#442924" d="M29 70h1v1h-1zM33 77h1v1h-1zM38 78h1v1h-1z" /><path fill="#dcb996" d="M77 70h1v1h-1z" /><path fill="#492c26" d="M29 71h1v1h-1z" /><path fill="#4c2f28" d="M71 71h1v1h-1zM37 78h1v1h-1z" /><path fill="#53362d" d="M29 72h1v1h-1z" /><path fill="#5a3b32" d="M71 72h1v1h-1z" /><path fill="#705043" d="M29 73h1v1h-1z" /><path fill="#492a25" d="M53 73h1v1h-1z" /><path fill="#79594a" d="M71 73h1v1h-1z" /><path fill="#d1b392" d="M75 73h1v1h-1z" /><path fill="#a7886f" d="M29 74h1v1h-1z" /><path fill="#af8f76" d="M71 74h1v1h-1z" /><path fill="#d2b091" d="M74 74h1v1h-1z" /><path fill="#cbad8d" d="M27 75h1v1h-1zM29 76h1v1h-1z" /><path fill="#52342d" d="M30 75h1v1h-1z" /><path fill="#563830" d="M70 75h1v1h-1z" /><path fill="#a8886f" d="M30 76h1v1h-1z" /><path fill="#ab8b73" d="M70 76h1v1h-1z" /><path fill="#8c6c5a" d="M31 77h1v1h-1z" /><path fill="#4f322a" d="M32 77h1v1h-1z" /><path fill="#4e3029" d="M68 77h1v1h-1z" /><path fill="#67473c" d="M34 78h1v1h-1z" /><path fill="#64453a" d="M35 78h1v1h-1z" /><path fill="#5e3e35" d="M36 78h1v1h-1z" /><path fill="#51342b" d="M63 78h1v1h-1z" /><path fill="#624238" d="M64 78h1v1h-1z" /><path fill="#624539" d="M65 78h1v1h-1z" /><path fill="#614036" d="M66 78h1v1h-1z" /><path fill="#4c2d28" d="M39 79h1v1h-1z" /><path fill="#4b2d28" d="M61 79h1v1h-1z" /><path fill="#4c2c27" d="M50 80h1v1h-1z" /><path fill="#4b2b25" d="M56 80h1v1h-1z" /><path fill="#4c2e26" d="M57 80h1v1h-1z" /></svg>