<svg xmlns="http://www.w3.org/2000/svg" viewBox="0 0 100 100"><path fill="#e41fe9" fill-rule="evenodd" stroke="#e41fe9" stroke-width=".1" d="M21 2h1v1h-1zm60 2h1v1h-1zm-64 2h1v1h-1zm6 4h1v9h-1zm49 0h1v1h-1zm4 6h1v7h-1zm-14 1h1v1h-1zm-18 3h1v1h-1zm1 1h1v1h-1zm-8 0h1v1h-1zm17 0h1v1h-1zm-1 2h1v1h-1zm23 1h1v1h-1zm-18 3h1v1h-1zm-1 2h1v1h-1zm-34 11h1v2h-1zm24 2h1v1h-1zm5 0h1v1h-1zm21 0h2v1h-2zm-37 4h1v1h-1zm28 0h1v1h-1zm-35 2h1v1h-1zm-9 1h1v1h-1zm54 0h1v1h-1zm5 0h1v1h-1z"/><path fill="#e520e8" fill-rule="evenodd" stroke="#e520e8" stroke-width=".1" d="M22 2h1v1h-1zm53 0h1v1h-1zm3 0h1v1h-1zm-6 1h1v1h-1zm10 3h1v1h-1zm-58 3h1v1h-1zm51 0h1v1h-1zm-14 6h1v1h-1zm-17 4h2v1h-2zm10 0h2v1h-2zm-31 3h1v3h-1zm16 2h1v1h-1zm17 6h1v1h-1zm20 9h1v1h-1zm-53 3h1v1h-1zm2 0h1v1h-1zm10 4h1v1h-1zm-10 3h1v1h-1z"/><path fill="#e520e9" fill-rule="evenodd" stroke="#e520e9" stroke-width=".1" d="M23 2h1v1h3v1h2v1h3v1h4v1h3v1h3v1h1v-1h1v1h1v1h3v1h-3v1h-3v1h-2v1h-3v-1h-3v-1h-3v-1h-3v-1h-3v-1h-2v17h-1v1h-1v1h-1v2h-1v1h-1v2h-1v-26h1v-2h1v-1h1v-1h3zm51 1h7v2h1v2h1v25h-1v-1h-1v-1h-1v-2h-1v-1h-1v-1h-1v-17h-2v1h-3v1h-3v1h-3v1h-4v1h-2v-1h-2v-1h-3v-1h-3v-1h1v-1h1v1h1v-1h3v-1h3v-1h4v-1h3v-1h3v-1h3zm-36 12h2v1h3v1h3v1h1v1h-3v2h1v1h1v1h1v2h1v2h1v2h-1v1h-1v2h-1v1h-1v-2h-1v-1h-1v-2h-1v-1h-1v-1h-1v-2h-1v-1h-1v-2h-1v-3h1zm22 0h1v1h1v2h1v3h-1v3h-2v2h-1v1h-1v2h-1v1h-1v1h-1v2h-1v-1h-1v-2h-1v-1h-1v-2h1v-2h1v-1h1v-1h1v-2h1v-2h-3v-1h1v-1h3v-1h3zm-9 3h1v1h-1zm-6 17h1v1h1v2h1v1h1v3h-2v1h-2v-1h-1v-1h-1v-1h-1v-2h2v-1h1zm9 0h1v1h1v1h1v1h1v2h-1v1h-1v1h-1v1h-2v-1h-1v-1h-1v-2h1v-1h1v-1h1zm-32 5h1v3h4v-1h4v-1h2v1h1v1h1v1h1v2h-1v1h-3v1h-4v1h-3v1h-4v-1h-2v-1h-1v-2h1v-2h1v-1h1v-2h1zm55 0h1v1h1v2h1v1h1v2h1v3h-3v1h-4v-1h-4v-1h-2v-1h-4v-1h-1v-2h1v-1h1v-1h1v-1h3v1h3v1h4z"/><path fill="#e420e9" fill-rule="evenodd" stroke="#e420e9" stroke-width=".1" d="M24 2h1v1h-1zm12 4h1v1h-1zm3 1h1v1h-1zm3 1h1v1h-1zm14 0h1v1h-1zm-11 1h1v1h-1zm9 0h1v1h-1zm15 2h1v1h-1zm-3 1h1v1h-1zm-29 5h1v1h-1zm11 1h1v1h-1zm28 5h1v1h-1zm-16 1h1v1h-1zm-3 13h1v1h-1zm-6 4h1v1h-1zm19 0h1v1h-1zm6 1h1v1h-1zm-22 1h1v1h-1zm-22 4h1v1h-1zm-6 2h1v1h-1z"/><path fill="#e51fe9" fill-rule="evenodd" stroke="#e51fe9" stroke-width=".1" d="M76 2h1v1h-1zm-49 1h1v1h-1zm46 0h1v1h-1zm-4 1h1v1h-1zm-52 1h1v1h-1zm6 4h1v1h-1zm53 0h1v1h-1zm-13 4h1v1h-1zm-16 11h1v1h-1zm5 0h1v1h-1zm-12 2h1v1h-1zm8 0h1v1h-1zm11 0h1v1h-1zm-16 4h1v1h-1zm1 1h1v1h-1zm-2 6h1v1h-1zm-10 3h1v1h-1zm-14 8h1v1h-1zm10 0h1v1h-1z"/><path fill="#e420e8" fill-rule="evenodd" stroke="#e420e8" stroke-width=".1" d="M77 2h1v1h-1zm-58 1h1v1h-1zm0 1v1h-1v-1zm13 1h1v1h-1zm35 0h1v1h-1zm-4 1h2v1h-2zm-3 1h1v1h-1zm-30 4h1v1h-1zm3 1h1v1h-1zm29 1h1v1h-1zm-39 6h1v3h-1zm31 3h1v1h-1zm-12 6h1v1h-1zm25 12h1v1h-1zm-38 1h2v1h-2zm42 0h1v1h-1zm-4 6h2v1h-2zm3 1h1v1h-1z"/><path fill="#e51fe8" fill-rule="evenodd" stroke="#e51fe8" stroke-width=".1" d="M29 4h1v1h-1zm28 4h1v1h-1zm-11 1h1v1h-1zm-19 1h1v1h-1zm49 0h1v6h-1zm-21 10h1v1h-1zm7 1h1v1h-1zm-21 6h1v1h-1zm-18 12h1v1h-1zm53 1h1v2h-1zm-50 2h1v1h-1zm19 1h1v1h-1zm28 6h1v1h-1z"/><path fill="#e41fe8" fill-rule="evenodd" stroke="#e41fe8" stroke-width=".1" d="M30 4h1v1h-1zm40 0h1v1h-1zm-37 1h1v1h-1zm33 0h1v1h-1zm16 0h1v1h-1zm-9 5h1v1h-1zm-3 1h1v1h-1zm-34 2h1v1h-1zm11 5h1v1h-1zm5 0h1v1h-1zm-14 5h1v1h-1zm13 3h1v1h-1zm-9 3h1v1h-1zm13 2h1v1h-1zm-11 5h1v1h-1zm0 1v1h-1v-1zm14 0h1v1h-1zm5 9h1v1h-1zm-30 1h1v1h-1z"/><path fill="#e521e8" fill-rule="evenodd" stroke="#e521e8" stroke-width=".1" d="M48 10h1v1h-1zm33 35h1v1h-1z"/><path fill="#ed45e0" fill-rule="evenodd" stroke="#ed45e0" stroke-width=".1" d="M49 10h1v1h-1z"/><path fill="#ec45e1" fill-rule="evenodd" stroke="#ec45e1" stroke-width=".1" d="M50 10h1v1h-1z"/><path fill="#e522e8" fill-rule="evenodd" stroke="#e522e8" stroke-width=".1" d="M51 10h1v1h-1zm-6 1h1v1h-1z"/><path fill="#eb3be3" fill-rule="evenodd" stroke="#eb3be3" stroke-width=".1" d="M46 11h1v1h-1z"/><path fill="#f463dc" fill-rule="evenodd" stroke="#f463dc" stroke-width=".1" d="M47 11h1v1h-1z"/><path fill="#fc8ad4" fill-rule="evenodd" stroke="#fc8ad4" stroke-width=".1" d="M48 11h1v1h-1zm0 26h1v1h-1z"/><path fill="#ff96d1" fill-rule="evenodd" stroke="#ff96d1" stroke-width=".1" d="M49 11h2v1h3v1h3v1h2v1h-3v1h-3v1h-6v-1h-3v-1h-3v-1h2v-1h3v-1h3zm-27 17h1v10h-1v1h-1v2h-1v1h-1v1h-1v2h-1v-10h1v-2h1v-1h1v-1h1v-2h1zm55 0h1v1h1v2h1v1h1v1h1v2h1v10h-1v-2h-1v-1h-1v-1h-1v-2h-1v-1h-1zm-28 2h2v1h1v1h1v4h-1v1h-1v2h-1v-1h-1v-1h-1v-1h-1v-3h1v-2h1zm-12 9h4v1h1v2h1v1h1v1h-3v1h-4v-1h-1v-2h-1v-1h-1v-1h3zm22 0h4v1h3v1h-1v1h-1v2h-1v1h-4v-1h-3v-1h1v-1h1v-2h1zm-15 12h2v6h-1v1h-3v1h-2v-6h1v-1h3zm10 0h2v1h3v1h1v6h-2v-1h-3v-1h-1zm-30 14h1v1h-1zm1 1h3v1h3v1h3v2h1v1h1v2h1v1h1v1h1v1h-3v-1h-3v-1h-3v-1h-1v-1h-1v-2h-1v-1h-1v-2h-1zm50-1h1v1h-1zm0 1v1h-1v2h-1v1h-1v2h-1v1h-1v1h-3v1h-3v1h-3v-1h1v-1h1v-1h1v-2h1v-1h1v-2h3v-1h3v-1z"/><path fill="#fd8dd2" fill-rule="evenodd" stroke="#fd8dd2" stroke-width=".1" d="M51 11h1v1h-1z"/><path fill="#f66bda" fill-rule="evenodd" stroke="#f66bda" stroke-width=".1" d="M52 11h1v1h-1zm3 1h1v1h-1zm-7 5h1v1h-1z"/><path fill="#ed43e2" fill-rule="evenodd" stroke="#ed43e2" stroke-width=".1" d="M53 11h1v1h-1zm-10 1h1v1h-1z"/><path fill="#e623e9" fill-rule="evenodd" stroke="#e623e9" stroke-width=".1" d="M54 11h1v1h-1z"/><path fill="#e624e9" fill-rule="evenodd" stroke="#e624e9" stroke-width=".1" d="M42 12h1v1h-1zm16 26h1v1h-1zm18 0h1v1h-1zm-21 4h1v1h-1z"/><path fill="#f567da" fill-rule="evenodd" stroke="#f567da" stroke-width=".1" d="M44 12h1v1h-1zm14 27h1v1h-1z"/><path fill="#fd8dd3" fill-rule="evenodd" stroke="#fd8dd3" stroke-width=".1" d="M45 12h1v1h-1zm6 25h1v1h-1z"/><path fill="#fd8ed3" fill-rule="evenodd" stroke="#fd8ed3" stroke-width=".1" d="M54 12h1v1h-1zm23 15h1v1h-1zm-24 6h1v1h-1z"/><path fill="#ee47e1" fill-rule="evenodd" stroke="#ee47e1" stroke-width=".1" d="M56 12h1v1h-1zm-9 5h1v1h-1z"/><path fill="#e625e8" fill-rule="evenodd" stroke="#e625e8" stroke-width=".1" d="M57 12h1v1h-1zm-10 18h1v1h-1z"/><path fill="#ec40e3" fill-rule="evenodd" stroke="#ec40e3" stroke-width=".1" d="M40 13h1v1h-1zm8 25h1v1h-1z"/><path fill="#f66eda" fill-rule="evenodd" stroke="#f66eda" stroke-width=".1" d="M41 13h1v1h-1zm6 23h1v1h-1z"/><path fill="#fe91d2" fill-rule="evenodd" stroke="#fe91d2" stroke-width=".1" d="M42 13h1v1h-1zm7 4h1v1h-1zm4 17h1v1h-1zm10 5h1v1h-1z"/><path fill="#fe90d2" fill-rule="evenodd" stroke="#fe90d2" stroke-width=".1" d="M57 13h1v1h-1z"/><path fill="#f66dd9" fill-rule="evenodd" stroke="#f66dd9" stroke-width=".1" d="M58 13h1v1h-1z"/><path fill="#ec3fe3" fill-rule="evenodd" stroke="#ec3fe3" stroke-width=".1" d="M59 13h1v1h-1zm21 17h1v1h-1z"/><path fill="#f15add" fill-rule="evenodd" stroke="#f15add" stroke-width=".1" d="M39 14h1v1h-1z"/><path fill="#ff95d1" fill-rule="evenodd" stroke="#ff95d1" stroke-width=".1" d="M40 14h1v1h-1zm19 0h1v1h-1zm-9 15h1v1h-1zm29 1h1v1h-1zm-32 2h1v1h-1zm2 6h1v1h-1zm-24 29h1v1h-1zm49 0h1v1h-1z"/><path fill="#f159dd" fill-rule="evenodd" stroke="#f159dd" stroke-width=".1" d="M60 14h1v1h-1z"/><path fill="#e729e7" fill-rule="evenodd" stroke="#e729e7" stroke-width=".1" d="M40 15h1v1h-1zm7 22h1v1h-1z"/><path fill="#ef4be0" fill-rule="evenodd" stroke="#ef4be0" stroke-width=".1" d="M41 15h1v1h-1zm3 1h1v1h-1zm8 1h1v1h-1z"/><path fill="#f773d8" fill-rule="evenodd" stroke="#f773d8" stroke-width=".1" d="M42 15h1v1h-1zm3 1h1v1h-1zm6 1h1v1h-1z"/><path fill="#fe94d2" fill-rule="evenodd" stroke="#fe94d2" stroke-width=".1" d="M43 15h1v1h-1zm6 14h1v1h-1z"/><path fill="#ff94d2" fill-rule="evenodd" stroke="#ff94d2" stroke-width=".1" d="M56 15h1v1h-1zm-3 1h1v1h-1zm28 27h1v1h-1zm-23 1h1v1h-1z"/><path fill="#f97ad7" fill-rule="evenodd" stroke="#f97ad7" stroke-width=".1" d="M57 15h1v1h-1zm-3 1h1v1h-1z"/><path fill="#f053df" fill-rule="evenodd" stroke="#f053df" stroke-width=".1" d="M58 15h1v1h-1zm-3 1h1v1h-1z"/><path fill="#e82ce6" fill-rule="evenodd" stroke="#e82ce6" stroke-width=".1" d="M59 15h1v1h-1z"/><path fill="#e729e8" fill-rule="evenodd" stroke="#e729e8" stroke-width=".1" d="M43 16h1v1h-1zm38 15h1v1h-1zm-15 10h1v1h-1z"/><path fill="#fe93d1" fill-rule="evenodd" stroke="#fe93d1" stroke-width=".1" d="M46 16h1v1h-1zm18 26h1v1h-1z"/><path fill="#e72be7" fill-rule="evenodd" stroke="#e72be7" stroke-width=".1" d="M56 16h1v1h-1zm-4 21h1v1h-1z"/><path fill="#e727e7" fill-rule="evenodd" stroke="#e727e7" stroke-width=".1" d="M46 17h1v1h-1zm7 0h1v1h-1z"/><path fill="#fe92d1" fill-rule="evenodd" stroke="#fe92d1" stroke-width=".1" d="M50 17h1v1h-1z"/><path fill="#e82fda" fill-rule="evenodd" stroke="#e82fda" stroke-width=".1" d="M23 25h1v1h-1z"/><path fill="#e723a0" fill-rule="evenodd" stroke="#e723a0" stroke-width=".1" d="M24 25h1v1h1v-1h3v1h2v1h1v2h1v1h2v1h1v1h-1v1h2v2h1v1h1v2h-3v1h-3v-1h-1v-1h-1v-1h-1v-2h-1v-1h-2v-1h-1v3h-2zm47 0h3v1h2v9h-1v-1h-1v-2h-2v1h-1v1h-1v2h-1v1h-1v1h-1v1h-3v-1h-3v-2h1v-2h1v-1h2v-1h-1v-1h1v-1h2v-1h1v-2h1v-1h2zm-56 11h1v10h1v1h-1v1h-1v1h-1v1h-1v2h-1v1h-1v1h-1v3h-2v2h-1v1h2v1h4v1h3v1h3v1h3v1h1v2h1v1h1v2h1v1h1v1h-3v-1h-3v-1h-3v-1h-3v-1h-1v1h-1v-1h-1v-1h-1v1h-1v-1h-3v-1h-2v-1h-2v-1h-1v-1h-1v-2h-1v-1h1v-3h1v-2h1v-1h1v-1h1v-2h1v-1h1v-1h1v-2h1v-1h1v-2h1v-1h1v-1h1v-2h1v-1h1zm69 1h1v2h2v3h1v1h2v3h1v1h1v2h1v1h1v1h1v2h1v1h1v1h1v1h1v7h-1v1h-1v1h-2v1h-3v1h-3v1h-3v1h-4v1h-3v1h-1v1h-1v-1h-1v1h-3v-1h1v-1h1v-2h1v-1h1v-2h1v-1h3v-1h2v-1h4v-1h4v-1h2v-1h-1v-2h-2v-3h-1v-1h-1v-1h-1v-1h-1v-1h-1v-2h-1zm-42 8h3v1h1v4h-3v1h-3v-3h-1v-2h3zm13 0h3v1h3v2h-1v3h-3v-1h-3v-4h1zm-12 14h3v4h1v1h-1v9h-1v1h-1v1h-1v2h-1v-1h-2v-2h-1v-1h-1v-1h-1v-2h-1v-1h1v1h3v-4h-1v-1h1v-5h3zm11 0h3v1h3v5h1v1h-1v4h3v-1h1v-1h1v1h-1v1h-1v2h-1v1h-1v1h-1v2h-1v1h-1v-1h-1v-1h-1v-1h-2v-7h-1v-1h1v-2h-1v-1h1zm-27 13h1v1h-1zm46 0v1h-1v-1z"/><path fill="#e623a0" fill-rule="evenodd" stroke="#e623a0" stroke-width=".1" d="M25 25h1v1h-1zm50 0h1v1h-1zm-44 1h1v1h-1zm1 1h1v1h-1zm36-1h1v1h-1zm0 1v1h-1v-1zm-40 6h1v1h-1zm9 1h1v1h-1zm37 0h1v1h-1zm-5 2h1v1h-1zm-9 1h1v1h-1zm-47 2h1v1h-1zm-2 3h1v1h-1zm73 6h1v1h-1zm-78 1h1v1h-1zm0 1v1h-1v-1zm5 3h1v1h-1zm0 1v1h-1v-1zm78 0h1v2h-1zm-88 2h1v1h-1zm0 1v1h-1v-1zm98 0h1v2h-1zm-53 1h1v1h-1zm7 0h1v1h-1zm-14 3h1v1h-1zm21 0h1v1h-1zm-43 1h1v1h-1zm2 1h2v1h-2zm41 3h1v1h-1zm-14 1h1v1h-1zm-32 1h1v1h-1zm46 0h1v2h-1zm-21 1h1v1h-1zm-20 1h1v1h-1zm61 0h1v1h-1zm-35 3h1v1h-1z"/><path fill="#e622a0" fill-rule="evenodd" stroke="#e622a0" stroke-width=".1" d="M29 25h1v1h-1zm9 10h1v1h-1zm23 0h1v1h-1zm6 3h1v1h-1zm-55 3h1v1h-1zm3 7h1v1h-1zm79 2h1v1h-1zm-7 2h1v1h-1zm9 1h1v1h-1zm-88 4h1v1h-1zm83 0h1v1h-1zm-45 3h1v1h-1zm7 0h1v1h-1zm-37 2h1v1h-1zm37 5h1v1h-1zm-37 2h1v1h-1z"/><path fill="#e7229f" fill-rule="evenodd" stroke="#e7229f" stroke-width=".1" d="M70 25h1v1h-1zm-4 4h1v1h-1zm5 4h1v1h-1zm-42 1h1v1h-1zm46 1h1v1h-1zm-61 3h1v1h-1zm25 10h1v1h-1zm7 0h1v1h-1zm7 0h1v1h-1zm7 0h1v1h-1zm-56 4h1v1h-1zm-2 2h1v1h-1zm97 6h1v2h-1zm-99 1h1v1h-1zm86 0h1v1h-1zm-26 1h1v1h-1zm38 1h1v1h-1zm-96 1h1v1h-1zm37 0h1v1h-1zm21 0h1v1h-1zm-21 3h1v1h-1zm14 1h1v1h-1zm30 1h1v1h-1z"/><path fill="#e6239f" fill-rule="evenodd" stroke="#e6239f" stroke-width=".1" d="M74 25h1v1h-1zm-42 3h1v1h-1zm35 0h1v1h-1zm-32 4h1v1h-1zm29 0h1v1h-1zm-54 11h1v1h-1zm-3 4h1v2h-1zm46 0h1v1h-1zm39 0h1v2h-1zm-4 6h1v1h-1zm-78 2h1v1h-1zm-1 5h2v1h-2zm81 0h1v1h-1zm-89 3h1v1h-1zm38 0h1v1h-1zm21 0h1v1h-1zm-21 3h1v1h-1zm-28 1h1v1h-1zm24 1h1v1h-1zm-18 1h1v1h-1zm29 0h1v1h-1zm7 0h1v1h-1zm29 0h1v1h-1zm-60 2h1v1h-1zm54 0h1v1h-1zm-32 3h1v1h-1zm0 1v1h-1v-1zm11-1h1v1h-1z"/><path fill="#e72de5" fill-rule="evenodd" stroke="#e72de5" stroke-width=".1" d="M76 25h1v1h-1z"/><path fill="#ec3ed6" fill-rule="evenodd" stroke="#ec3ed6" stroke-width=".1" d="M22 26h1v1h-1z"/><path fill="#fb85cb" fill-rule="evenodd" stroke="#fb85cb" stroke-width=".1" d="M23 26h1v1h-1z"/><path fill="#fa82d3" fill-rule="evenodd" stroke="#fa82d3" stroke-width=".1" d="M76 26h1v1h-1z"/><path fill="#eb3de3" fill-rule="evenodd" stroke="#eb3de3" stroke-width=".1" d="M77 26h1v1h-1zm-26 3h1v1h-1z"/><path fill="#e82fde" fill-rule="evenodd" stroke="#e82fde" stroke-width=".1" d="M21 27h1v1h-1z"/><path fill="#fd8fce" fill-rule="evenodd" stroke="#fd8fce" stroke-width=".1" d="M22 27h1v1h-1zm34 24h1v1h-1z"/><path fill="#fd8bcc" fill-rule="evenodd" stroke="#fd8bcc" stroke-width=".1" d="M23 27h1v1h-1zm13 12h1v1h-1zm4 13h1v1h-1zm19 0h1v1h-1zm-22 21h1v1h-1zm-2 2h1v1h-1z"/><path fill="#e522e7" fill-rule="evenodd" stroke="#e522e7" stroke-width=".1" d="M49 27h1v1h-1z"/><path fill="#e523e8" fill-rule="evenodd" stroke="#e523e8" stroke-width=".1" d="M50 27h1v1h-1z"/><path fill="#fc87d3" fill-rule="evenodd" stroke="#fc87d3" stroke-width=".1" d="M76 27h1v7h-1z"/><path fill="#e82ee6" fill-rule="evenodd" stroke="#e82ee6" stroke-width=".1" d="M78 27h1v1h-1z"/><path fill="#e521e7" fill-rule="evenodd" stroke="#e521e7" stroke-width=".1" d="M20 28h1v1h-1zm-2 17h1v1h-1z"/><path fill="#f97cc9" fill-rule="evenodd" stroke="#f97cc9" stroke-width=".1" d="M21 28h1v1h-1zm-4 17h1v1h-1z"/><path fill="#fc8acc" fill-rule="evenodd" stroke="#fc8acc" stroke-width=".1" d="M23 28h1v7h-1z"/><path fill="#f25bdd" fill-rule="evenodd" stroke="#f25bdd" stroke-width=".1" d="M49 28h1v1h-1z"/><path fill="#f35edd" fill-rule="evenodd" stroke="#f35edd" stroke-width=".1" d="M50 28h1v1h-1z"/><path fill="#f97dd6" fill-rule="evenodd" stroke="#f97dd6" stroke-width=".1" d="M78 28h1v1h-1z"/><path fill="#e622e8" fill-rule="evenodd" stroke="#e622e8" stroke-width=".1" d="M79 28h1v1h-1z"/><path fill="#f35eca" fill-rule="evenodd" stroke="#f35eca" stroke-width=".1" d="M20 29h1v1h-1zm-2 15h1v1h-1z"/><path fill="#e7239f" fill-rule="evenodd" stroke="#e7239f" stroke-width=".1" d="M33 29h1v1h-1zm39 3h1v1h-1zm-48 3h1v1h-1zm6 1h1v1h-1zm54 0h1v1h-1zm-16 1h1v1h-1zm17 1h1v1h-1zm-39 8h1v1h-1zm7 0h1v1h-1zm-50 7h1v1h-1zm43 8h1v1h-1zm7 0h1v1h-1zm27 2h1v1h-1zm-34 1h1v1h-1zm7 0h1v1h-1zm-7 2h1v1h-1zm-20 6h1v1h-1zm47 0h1v1h-1z"/><path fill="#ea38e4" fill-rule="evenodd" stroke="#ea38e4" stroke-width=".1" d="M48 29h1v1h-1zm17 13h1v1h-1z"/><path fill="#f25cdd" fill-rule="evenodd" stroke="#f25cdd" stroke-width=".1" d="M79 29h1v1h-1z"/><path fill="#eb3cd6" fill-rule="evenodd" stroke="#eb3cd6" stroke-width=".1" d="M19 30h1v1h-1z"/><path fill="#ff94d1" fill-rule="evenodd" stroke="#ff94d1" stroke-width=".1" d="M20 30h1v1h-1zm21 14h1v1h-1zm22 28h1v1h-1z"/><path fill="#fb84d5" fill-rule="evenodd" stroke="#fb84d5" stroke-width=".1" d="M48 30h1v1h-1z"/><path fill="#fc87d4" fill-rule="evenodd" stroke="#fc87d4" stroke-width=".1" d="M51 30h1v1h-1z"/><path fill="#e626e7" fill-rule="evenodd" stroke="#e626e7" stroke-width=".1" d="M52 30h1v1h-1z"/><path fill="#e728e3" fill-rule="evenodd" stroke="#e728e3" stroke-width=".1" d="M18 31h1v1h-1z"/><path fill="#fc88cc" fill-rule="evenodd" stroke="#fc88cc" stroke-width=".1" d="M19 31h1v1h-1z"/><path fill="#f466db" fill-rule="evenodd" stroke="#f466db" stroke-width=".1" d="M47 31h1v1h-1z"/><path fill="#f56ada" fill-rule="evenodd" stroke="#f56ada" stroke-width=".1" d="M52 31h1v1h-1z"/><path fill="#fc89d4" fill-rule="evenodd" stroke="#fc89d4" stroke-width=".1" d="M80 31h1v1h-1z"/><path fill="#f873c9" fill-rule="evenodd" stroke="#f873c9" stroke-width=".1" d="M18 32h1v1h-1z"/><path fill="#e6229f" fill-rule="evenodd" stroke="#e6229f" stroke-width=".1" d="M26 32h1v1h-1zm47 0h1v1h-1zm-3 2h1v1h-1zm-39 3h1v1h-1zm8 0h1v1h-1zm48 4h1v1h-1zm-78 4h1v1h-1zm36 0h1v1h-1zm9 0h1v1h-1zm36 0h1v1h-1zm-44 2h1v1h-1zm-32 2h1v1h-1zm81 3h1v1h-1zm2 2h1v1h-1zm-97 5h1v1h-1zm7 0h1v1h-1zm85 0h1v1h-1zm7 0h1v1h-1zm-10 1h1v1h-1zm-43 2h1v1h-1zm7 0h1v1h-1zm26 1h1v1h-1zm18 1h1v1h-1zm-93 1h1v1h-1zm42 0h1v1h-1zm7 0h1v1h-1zm42 0h1v1h-1zm-56 3h1v1h-1zm0 1v1h-2v-1zm22 0h2v1h-2zm-41 1h1v1h-1zm59 0h1v1h-1zm-23 5h1v1h-1zm-15 1h1v1h-1z"/><path fill="#ec41e2" fill-rule="evenodd" stroke="#ec41e2" stroke-width=".1" d="M46 32h1v1h-1z"/><path fill="#ee48e0" fill-rule="evenodd" stroke="#ee48e0" stroke-width=".1" d="M53 32h1v1h-1z"/><path fill="#f773d9" fill-rule="evenodd" stroke="#f773d9" stroke-width=".1" d="M81 32h1v1h-1z"/><path fill="#e521e9" fill-rule="evenodd" stroke="#e521e9" stroke-width=".1" d="M82 32h1v1h-1zm-29 4h1v1h-1z"/><path fill="#f053ce" fill-rule="evenodd" stroke="#f053ce" stroke-width=".1" d="M17 33h1v1h-1z"/><path fill="#e72ce4" fill-rule="evenodd" stroke="#e72ce4" stroke-width=".1" d="M45 33h1v1h-1z"/><path fill="#fd8bd3" fill-rule="evenodd" stroke="#fd8bd3" stroke-width=".1" d="M46 33h1v1h-1z"/><path fill="#e830e4" fill-rule="evenodd" stroke="#e830e4" stroke-width=".1" d="M54 33h1v1h-1z"/><path fill="#f051df" fill-rule="evenodd" stroke="#f051df" stroke-width=".1" d="M82 33h1v1h-1zm-18 10h1v1h-1z"/><path fill="#ed42cd" fill-rule="evenodd" stroke="#ed42cd" stroke-width=".1" d="M16 34h1v1h-1z"/><path fill="#fe92cf" fill-rule="evenodd" stroke="#fe92cf" stroke-width=".1" d="M17 34h1v1h-1zm4 5h1v1h-1zm36 19h1v1h-1zm15 12h1v1h-1z"/><path fill="#ea32e5" fill-rule="evenodd" stroke="#ea32e5" stroke-width=".1" d="M45 34h1v1h-1z"/><path fill="#fe90d3" fill-rule="evenodd" stroke="#fe90d3" stroke-width=".1" d="M46 34h1v1h-1zm11 7h1v1h-1zm4 4h1v1h-1z"/><path fill="#e935e4" fill-rule="evenodd" stroke="#e935e4" stroke-width=".1" d="M54 34h1v1h-1z"/><path fill="#fc86d3" fill-rule="evenodd" stroke="#fc86d3" stroke-width=".1" d="M76 34h1v3h-1z"/><path fill="#fe92d2" fill-rule="evenodd" stroke="#fe92d2" stroke-width=".1" d="M82 34h1v1h-1zm-4 5h1v1h-1z"/><path fill="#ec43d3" fill-rule="evenodd" stroke="#ec43d3" stroke-width=".1" d="M83 34h1v1h-1z"/><path fill="#ef4cb4" fill-rule="evenodd" stroke="#ef4cb4" stroke-width=".1" d="M16 35h1v1h-1z"/><path fill="#fc89cb" fill-rule="evenodd" stroke="#fc89cb" stroke-width=".1" d="M23 35h1v2h-1z"/><path fill="#ef4ce0" fill-rule="evenodd" stroke="#ef4ce0" stroke-width=".1" d="M46 35h1v1h-1z"/><path fill="#f050df" fill-rule="evenodd" stroke="#f050df" stroke-width=".1" d="M53 35h1v1h-1z"/><path fill="#ee4dc3" fill-rule="evenodd" stroke="#ee4dc3" stroke-width=".1" d="M83 35h1v1h-1z"/><path fill="#ef49b0" fill-rule="evenodd" stroke="#ef49b0" stroke-width=".1" d="M16 36h1v5h-1z"/><path fill="#f875d8" fill-rule="evenodd" stroke="#f875d8" stroke-width=".1" d="M52 36h1v1h-1z"/><path fill="#ef4ac1" fill-rule="evenodd" stroke="#ef4ac1" stroke-width=".1" d="M83 36h1v1h-1zm0 2h1v2h-1z"/><path fill="#f466c7" fill-rule="evenodd" stroke="#f466c7" stroke-width=".1" d="M23 37h1v1h-1z"/><path fill="#f467d8" fill-rule="evenodd" stroke="#f467d8" stroke-width=".1" d="M76 37h1v1h-1z"/><path fill="#ef4bc2" fill-rule="evenodd" stroke="#ef4bc2" stroke-width=".1" d="M83 37h1v1h-1zm0 3h1v4h-1z"/><path fill="#fb83cb" fill-rule="evenodd" stroke="#fb83cb" stroke-width=".1" d="M22 38h1v1h-1zm21 4h1v1h-1zm-6 3h1v1h-1z"/><path fill="#e623e5" fill-rule="evenodd" stroke="#e623e5" stroke-width=".1" d="M23 38h1v1h-1z"/><path fill="#e722a0" fill-rule="evenodd" stroke="#e722a0" stroke-width=".1" d="M32 38h1v1h-1zm56 4h1v1h-1zm-80 4h1v1h-1zm83 0h1v1h-1zm2 3h1v1h-1zm-80 1h1v1h-1zm-1 2h1v1h-1zm-12 6h1v1h-1zm46 1h1v1h-1zm7 0h1v1h-1zm-40 2h1v1h-1zm26 1h1v1h-1zm53 4h1v1h-1zm-32 1h1v1h-1zm29 0h1v1h-1zm-43 1h1v1h-1zm40 0h1v1h-1zm-40 2h1v1h-1zm7 0h1v1h-1zm-30 1h1v1h-1zm2 1h1v1h-1zm49 0h1v1h-1zm-17 4h1v1h-1z"/><path fill="#e725a0" fill-rule="evenodd" stroke="#e725a0" stroke-width=".1" d="M36 38h1v1h-1zm17 11h1v1h-1zm-10 1h1v1h-1z"/><path fill="#ed3eab" fill-rule="evenodd" stroke="#ed3eab" stroke-width=".1" d="M37 38h1v1h-1zm4 13h1v1h-1z"/><path fill="#f460ba" fill-rule="evenodd" stroke="#f460ba" stroke-width=".1" d="M38 38h1v1h-1zm25 33h1v1h-1z"/><path fill="#fb84c9" fill-rule="evenodd" stroke="#fb84c9" stroke-width=".1" d="M39 38h1v1h-1z"/><path fill="#fb82cb" fill-rule="evenodd" stroke="#fb82cb" stroke-width=".1" d="M40 38h1v1h-1z"/><path fill="#e625e6" fill-rule="evenodd" stroke="#e625e6" stroke-width=".1" d="M41 38h1v1h-1z"/><path fill="#ee46e1" fill-rule="evenodd" stroke="#ee46e1" stroke-width=".1" d="M51 38h1v1h-1z"/><path fill="#fa7fd6" fill-rule="evenodd" stroke="#fa7fd6" stroke-width=".1" d="M59 38h1v1h-1z"/><path fill="#fc88d3" fill-rule="evenodd" stroke="#fc88d3" stroke-width=".1" d="M60 38h1v1h-1zm20 4h1v1h-1z"/><path fill="#f567cf" fill-rule="evenodd" stroke="#f567cf" stroke-width=".1" d="M61 38h1v1h-1z"/><path fill="#ee45be" fill-rule="evenodd" stroke="#ee45be" stroke-width=".1" d="M62 38h1v1h-1z"/><path fill="#e826a2" fill-rule="evenodd" stroke="#e826a2" stroke-width=".1" d="M63 38h1v1h-1zm-38 31h1v1h-1z"/><path fill="#fa81d5" fill-rule="evenodd" stroke="#fa81d5" stroke-width=".1" d="M77 38h1v1h-1z"/><path fill="#eb35da" fill-rule="evenodd" stroke="#eb35da" stroke-width=".1" d="M22 39h1v1h-1zm12 3h1v1h-1z"/><path fill="#e828a2" fill-rule="evenodd" stroke="#e828a2" stroke-width=".1" d="M33 39h1v1h-1zm12 19h1v1h-1zm12 1h1v1h-1z"/><path fill="#ee45af" fill-rule="evenodd" stroke="#ee45af" stroke-width=".1" d="M34 39h1v1h-1zm24 12h1v1h-1zm-3 7h1v1h-1zm20 9h1v1h-1z"/><path fill="#f568bd" fill-rule="evenodd" stroke="#f568bd" stroke-width=".1" d="M35 39h1v1h-1z"/><path fill="#f568c9" fill-rule="evenodd" stroke="#f568c9" stroke-width=".1" d="M41 39h1v1h-1z"/><path fill="#f465db" fill-rule="evenodd" stroke="#f465db" stroke-width=".1" d="M49 39h1v1h-1z"/><path fill="#f568da" fill-rule="evenodd" stroke="#f568da" stroke-width=".1" d="M50 39h1v1h-1z"/><path fill="#f873d2" fill-rule="evenodd" stroke="#f873d2" stroke-width=".1" d="M64 39h1v1h-1z"/><path fill="#f04cc4" fill-rule="evenodd" stroke="#f04cc4" stroke-width=".1" d="M65 39h1v1h-1z"/><path fill="#e92ba9" fill-rule="evenodd" stroke="#e92ba9" stroke-width=".1" d="M66 39h1v1h-1z"/><path fill="#e934e5" fill-rule="evenodd" stroke="#e934e5" stroke-width=".1" d="M77 39h1v1h-1z"/><path fill="#f051cd" fill-rule="evenodd" stroke="#f051cd" stroke-width=".1" d="M21 40h1v1h-1zm14 3h1v1h-1z"/><path fill="#f66cc7" fill-rule="evenodd" stroke="#f66cc7" stroke-width=".1" d="M33 40h1v1h-1z"/><path fill="#ee4bcf" fill-rule="evenodd" stroke="#ee4bcf" stroke-width=".1" d="M42 40h1v1h-1z"/><path fill="#e525e8" fill-rule="evenodd" stroke="#e525e8" stroke-width=".1" d="M49 40h1v1h-1z"/><path fill="#e628e7" fill-rule="evenodd" stroke="#e628e7" stroke-width=".1" d="M50 40h1v1h-1z"/><path fill="#ee4ae1" fill-rule="evenodd" stroke="#ee4ae1" stroke-width=".1" d="M57 40h1v1h-1z"/><path fill="#f66ed9" fill-rule="evenodd" stroke="#f66ed9" stroke-width=".1" d="M66 40h1v1h-1zm-3 4h1v1h-1z"/><path fill="#f052df" fill-rule="evenodd" stroke="#f052df" stroke-width=".1" d="M78 40h1v1h-1z"/><path fill="#ef48b0" fill-rule="evenodd" stroke="#ef48b0" stroke-width=".1" d="M16 41h1v3h-1z"/><path fill="#f771c9" fill-rule="evenodd" stroke="#f771c9" stroke-width=".1" d="M20 41h1v1h-1z"/><path fill="#e625e4" fill-rule="evenodd" stroke="#e625e4" stroke-width=".1" d="M33 41h1v1h-1zm3 4h1v1h-1z"/><path fill="#fb84cb" fill-rule="evenodd" stroke="#fb84cb" stroke-width=".1" d="M34 41h1v1h-1z"/><path fill="#fe91cf" fill-rule="evenodd" stroke="#fe91cf" stroke-width=".1" d="M42 41h1v1h-1zm-4 4h1v1h-1zm16 12h1v1h-1zm-27 13h1v1h-1zm40 4h1v1h-1z"/><path fill="#e935db" fill-rule="evenodd" stroke="#e935db" stroke-width=".1" d="M43 41h1v1h-1z"/><path fill="#e931e5" fill-rule="evenodd" stroke="#e931e5" stroke-width=".1" d="M56 41h1v1h-1z"/><path fill="#fc88d4" fill-rule="evenodd" stroke="#fc88d4" stroke-width=".1" d="M65 41h1v1h-1z"/><path fill="#f772d8" fill-rule="evenodd" stroke="#f772d8" stroke-width=".1" d="M79 41h1v1h-1z"/><path fill="#fc8acd" fill-rule="evenodd" stroke="#fc8acd" stroke-width=".1" d="M19 42h1v1h-1z"/><path fill="#e72ae3" fill-rule="evenodd" stroke="#e72ae3" stroke-width=".1" d="M20 42h1v1h-1z"/><path fill="#fe92d0" fill-rule="evenodd" stroke="#fe92d0" stroke-width=".1" d="M35 42h1v1h-1z"/><path fill="#e625e5" fill-rule="evenodd" stroke="#e625e5" stroke-width=".1" d="M44 42h1v1h-1z"/><path fill="#fa80d6" fill-rule="evenodd" stroke="#fa80d6" stroke-width=".1" d="M56 42h1v1h-1z"/><path fill="#e728e7" fill-rule="evenodd" stroke="#e728e7" stroke-width=".1" d="M79 42h1v1h-1z"/><path fill="#ff95d0" fill-rule="evenodd" stroke="#ff95d0" stroke-width=".1" d="M18 43h1v1h-1zm18 29h1v1h-1z"/><path fill="#ec3fd5" fill-rule="evenodd" stroke="#ec3fd5" stroke-width=".1" d="M19 43h1v1h-1z"/><path fill="#f56ac9" fill-rule="evenodd" stroke="#f56ac9" stroke-width=".1" d="M44 43h1v1h-1z"/><path fill="#f569da" fill-rule="evenodd" stroke="#f569da" stroke-width=".1" d="M55 43h1v1h-1z"/><path fill="#eb3ce3" fill-rule="evenodd" stroke="#eb3ce3" stroke-width=".1" d="M80 43h1v1h-1z"/><path fill="#ee45ae" fill-rule="evenodd" stroke="#ee45ae" stroke-width=".1" d="M16 44h1v1h-1z"/><path fill="#f66dc8" fill-rule="evenodd" stroke="#f66dc8" stroke-width=".1" d="M36 44h1v1h-1z"/><path fill="#f97bc6" fill-rule="evenodd" stroke="#f97bc6" stroke-width=".1" d="M42 44h1v1h-1zm-2 15h1v1h-1z"/><path fill="#f258b7" fill-rule="evenodd" stroke="#f258b7" stroke-width=".1" d="M43 44h1v1h-1z"/><path fill="#eb35a8" fill-rule="evenodd" stroke="#eb35a8" stroke-width=".1" d="M44 44h1v1h-1zm29 26h1v1h-1z"/><path fill="#ea32b0" fill-rule="evenodd" stroke="#ea32b0" stroke-width=".1" d="M55 44h1v1h-1z"/><path fill="#f155c7" fill-rule="evenodd" stroke="#f155c7" stroke-width=".1" d="M56 44h1v1h-1z"/><path fill="#f978d3" fill-rule="evenodd" stroke="#f978d3" stroke-width=".1" d="M57 44h1v1h-1z"/><path fill="#f35ddc" fill-rule="evenodd" stroke="#f35ddc" stroke-width=".1" d="M81 44h1v1h-1z"/><path fill="#ee47be" fill-rule="evenodd" stroke="#ee47be" stroke-width=".1" d="M83 44h1v1h-1z"/><path fill="#eb36a8" fill-rule="evenodd" stroke="#eb36a8" stroke-width=".1" d="M16 45h1v1h-1zm10 25h1v1h-1z"/><path fill="#f771c1" fill-rule="evenodd" stroke="#f771c1" stroke-width=".1" d="M39 45h1v1h-1z"/><path fill="#f04eb2" fill-rule="evenodd" stroke="#f04eb2" stroke-width=".1" d="M40 45h1v1h-1z"/><path fill="#e92ca3" fill-rule="evenodd" stroke="#e92ca3" stroke-width=".1" d="M41 45h1v1h-1zm-3 28h1v1h-1z"/><path fill="#e92ca8" fill-rule="evenodd" stroke="#e92ca8" stroke-width=".1" d="M58 45h1v1h-1z"/><path fill="#f04cc2" fill-rule="evenodd" stroke="#f04cc2" stroke-width=".1" d="M59 45h1v1h-1z"/><path fill="#f76fd0" fill-rule="evenodd" stroke="#f76fd0" stroke-width=".1" d="M60 45h1v1h-1z"/><path fill="#fb85d5" fill-rule="evenodd" stroke="#fb85d5" stroke-width=".1" d="M62 45h1v1h-1z"/><path fill="#e626e8" fill-rule="evenodd" stroke="#e626e8" stroke-width=".1" d="M63 45h1v1h-1z"/><path fill="#f97cd6" fill-rule="evenodd" stroke="#f97cd6" stroke-width=".1" d="M82 45h1v1h-1z"/><path fill="#eb36b2" fill-rule="evenodd" stroke="#eb36b2" stroke-width=".1" d="M83 45h1v1h-1z"/><path fill="#e62ddb" fill-rule="evenodd" stroke="#e62ddb" stroke-width=".1" d="M17 46h1v1h-1z"/><path fill="#e827a1" fill-rule="evenodd" stroke="#e827a1" stroke-width=".1" d="M38 46h1v1h-1zm36 23h1v1h-1z"/><path fill="#e826a1" fill-rule="evenodd" stroke="#e826a1" stroke-width=".1" d="M61 46h1v1h-1zm-5 4h1v1h-1z"/><path fill="#e82ee3" fill-rule="evenodd" stroke="#e82ee3" stroke-width=".1" d="M82 46h1v1h-1z"/><path fill="#e624a0" fill-rule="evenodd" stroke="#e624a0" stroke-width=".1" d="M83 46h1v1h-1z"/><path fill="#e625a1" fill-rule="evenodd" stroke="#e625a1" stroke-width=".1" d="M46 49h1v1h-1z"/><path fill="#e72464" fill-rule="evenodd" stroke="#e72464" stroke-width=".1" d="M48 49h1v1h-1zm-17 6h1v1h-1zm17 1h1v1h-1zm3 0h1v1h-1zm20 0h1v1h-1zm-48 4h1v1h-1zm53 0h1v1h-1zm-11 1h1v1h-1zm-33 5h1v1h-1zm35 0h1v1h-1zm-15 21h1v1h-1zm0 1v1h-1v-1zm6 2h1v1h-1z"/><path fill="#e62463" fill-rule="evenodd" stroke="#e62463" stroke-width=".1" d="M49 49h1v1h-1zm2 0h1v1h-1zm14 5h1v1h-1zm-39 3h1v1h-1zm42 5h1v1h-1zm-35 17h1v1h-1zm9 1h1v1h-1zm23 0h1v1h-1zm-10 2h1v1h-1zm-18 2h1v1h-1zm1 1h1v1h-1zm16-1h1v1h-1zm7 1h1v1h-1zm-22 2h1v1h-1zm8 0h1v1h-1zm2 10h2v1h-2z"/><path fill="#e62563" fill-rule="evenodd" stroke="#e62563" stroke-width=".1" d="M50 49h1v1h-1zm16 5h1v1h-1zm-38 2h1v1h-1zm8 4h1v1h-1zm27 0h1v1h-1zm-7 21h1v1h-1zm-12 2h1v1h-1zm1 1h1v1h-1zm10-1h1v1h-1zm8 0h1v1h-1zm-10 2h1v1h-1zm-12 5h1v1h-1zm14 4h1v1h-1z"/><path fill="#ed42ad" fill-rule="evenodd" stroke="#ed42ad" stroke-width=".1" d="M44 50h1v1h-1zm-7 22h1v1h-1z"/><path fill="#f66cbf" fill-rule="evenodd" stroke="#f66cbf" stroke-width=".1" d="M45 50h1v1h-1zm12 1h1v1h-1zm-1 7h1v1h-1z"/><path fill="#fb82c7" fill-rule="evenodd" stroke="#fb82c7" stroke-width=".1" d="M46 50h1v1h-1zm7 3h1v1h-1z"/><path fill="#e72564" fill-rule="evenodd" stroke="#e72564" stroke-width=".1" d="M47 50h6v7h-1v-1h-4v1h-1zm-9 3h1v7h-3v1h-1v1h-4v1h-1v1h1v1h1v1h-3v-1h-3v-1h-3v-3h1v-2h1v-1h2v-1h3v-1h2v-1h3v-1h3zm23 0h2v1h2v1h4v1h1v1h3v1h2v1h1v2h1v3h-3v1h-3v1h-2v-2h1v-1h-1v-1h-2v-1h-3v-1h-3zm-30 22h1v1h-1zm1 1h3v1h4v1h2v1h1v2h1v1h1v2h1v1h2v3h1v1h1v1h1v-1h2v-1h1v-2h1v-1h1v-1h1v-2h1v-1h1v-2h1v-1h2v-1h4v-1h3v-1h1v1h-1v2h-2v1h1v1h-2v1h-1v2h-1v1h-1v1h-1v2h-1v2h-2v3h-2v2h-1v2h-1v1h-5v1h-1v-1h-1v-1h-1v-1h-1v-1h-1v-2h-2v-3h-1v-1h-1v-1h-1v-2h-1v-1h-1v-1h-1v-2h-2v-3h-1v-1h-1z"/><path fill="#fb83c8" fill-rule="evenodd" stroke="#fb83c8" stroke-width=".1" d="M53 50h1v1h-1z"/><path fill="#f873c3" fill-rule="evenodd" stroke="#f873c3" stroke-width=".1" d="M54 50h1v1h-1zm-11 8h1v1h-1zm16 1h1v1h-1z"/><path fill="#ef49b1" fill-rule="evenodd" stroke="#ef49b1" stroke-width=".1" d="M55 50h1v1h-1zm3 9h1v1h-1z"/><path fill="#e724a1" fill-rule="evenodd" stroke="#e724a1" stroke-width=".1" d="M40 51h1v1h-1z"/><path fill="#f564bc" fill-rule="evenodd" stroke="#f564bc" stroke-width=".1" d="M42 51h1v1h-1zm32 17h1v1h-1z"/><path fill="#fd8dcd" fill-rule="evenodd" stroke="#fd8dcd" stroke-width=".1" d="M43 51h1v1h-1zm-12 16h1v1h-1z"/><path fill="#fc86c8" fill-rule="evenodd" stroke="#fc86c8" stroke-width=".1" d="M46 51h1v1h-1z"/><path fill="#fc86c9" fill-rule="evenodd" stroke="#fc86c9" stroke-width=".1" d="M53 51h1v1h-1z"/><path fill="#e724a0" fill-rule="evenodd" stroke="#e724a0" stroke-width=".1" d="M59 51h1v1h-1zm4 19h1v1h-1zm-24 4h1v1h-1zm21 0h1v1h-1z"/><path fill="#ee499b" fill-rule="evenodd" stroke="#ee499b" stroke-width=".1" d="M39 52h1v1h-1z"/><path fill="#fb84c8" fill-rule="evenodd" stroke="#fb84c8" stroke-width=".1" d="M46 52h1v1h-1zm7 0h1v1h-1z"/><path fill="#ee4799" fill-rule="evenodd" stroke="#ee4799" stroke-width=".1" d="M60 52h1v1h-1z"/><path fill="#e62564" fill-rule="evenodd" stroke="#e62564" stroke-width=".1" d="M37 53h1v1h-1zm-8 3h1v1h-1zm41 0h1v1h-1zm-46 2h1v1h-1zm51 0h1v1h-1zm-38 2h1v1h-1zm25 0h1v1h-1zm4 1h1v1h-1zm-36 2h1v1h-1zm3 15h1v1h-1zm8 0h1v1h-1zm25 0h1v1h-1zm-9 2h1v1h-1zm-13 2h1v1h-1zm-8 1h1v1h-1zm24 4h1v1h-1zm-20 1h1v1h-1zm1 1h1v1h-1zm7-1h1v1h-1zm10 1h1v1h-1z"/><path fill="#f0509c" fill-rule="evenodd" stroke="#f0509c" stroke-width=".1" d="M39 53h1v1h-1z"/><path fill="#fb82c6" fill-rule="evenodd" stroke="#fb82c6" stroke-width=".1" d="M46 53h1v1h-1z"/><path fill="#f04f9b" fill-rule="evenodd" stroke="#f04f9b" stroke-width=".1" d="M60 53h1v1h-1z"/><path fill="#e62464" fill-rule="evenodd" stroke="#e62464" stroke-width=".1" d="M63 53h1v1h-1zm-13 3h1v1h-1zm23 1h1v1h-1zm-42 5h1v1h-1zm0 14h1v1h-1zm4 5h1v1h-1zm29 0h1v1h-1zm-2 3h1v1h-1zm-19 8h1v1h-1zm13 0h1v1h-1zm-10 4h1v1h-1z"/><path fill="#e72463" fill-rule="evenodd" stroke="#e72463" stroke-width=".1" d="M34 54h1v1h-1zm15 2h1v1h-1zm20 7h1v1h-1zm-37 14h1v1h-1zm26 1h1v1h-1zm-15 3h1v1h-1zm6 8h1v1h-1zm-4 6h1v1h-1zm6 2h1v1h-1z"/><path fill="#f1529f" fill-rule="evenodd" stroke="#f1529f" stroke-width=".1" d="M39 54h1v1h-1z"/><path fill="#fa80c5" fill-rule="evenodd" stroke="#fa80c5" stroke-width=".1" d="M46 54h1v1h-1z"/><path fill="#fa81c6" fill-rule="evenodd" stroke="#fa81c6" stroke-width=".1" d="M53 54h1v1h-1z"/><path fill="#f1529e" fill-rule="evenodd" stroke="#f1529e" stroke-width=".1" d="M60 54h1v1h-1z"/><path fill="#f155a2" fill-rule="evenodd" stroke="#f155a2" stroke-width=".1" d="M39 55h1v1h-1zm21 1h1v1h-1z"/><path fill="#fa7ec4" fill-rule="evenodd" stroke="#fa7ec4" stroke-width=".1" d="M46 55h1v1h-1z"/><path fill="#fa7ec5" fill-rule="evenodd" stroke="#fa7ec5" stroke-width=".1" d="M53 55h1v1h-1z"/><path fill="#f154a1" fill-rule="evenodd" stroke="#f154a1" stroke-width=".1" d="M60 55h1v1h-1z"/><path fill="#f256a3" fill-rule="evenodd" stroke="#f256a3" stroke-width=".1" d="M39 56h1v1h-1z"/><path fill="#fa7cc2" fill-rule="evenodd" stroke="#fa7cc2" stroke-width=".1" d="M46 56h1v1h-1z"/><path fill="#fa7cc3" fill-rule="evenodd" stroke="#fa7cc3" stroke-width=".1" d="M53 56h1v1h-1z"/><path fill="#f258a5" fill-rule="evenodd" stroke="#f258a5" stroke-width=".1" d="M39 57h1v1h-1zm21 0h1v1h-1z"/><path fill="#fe90ce" fill-rule="evenodd" stroke="#fe90ce" stroke-width=".1" d="M45 57h1v1h-1z"/><path fill="#f461b5" fill-rule="evenodd" stroke="#f461b5" stroke-width=".1" d="M46 57h1v1h-1zm7 0h1v1h-1z"/><path fill="#f25ba7" fill-rule="evenodd" stroke="#f25ba7" stroke-width=".1" d="M39 58h1v1h-1z"/><path fill="#fe93cf" fill-rule="evenodd" stroke="#fe93cf" stroke-width=".1" d="M42 58h1v1h-1zm-3 18h1v1h-1zm21 0h1v1h-1z"/><path fill="#f04db2" fill-rule="evenodd" stroke="#f04db2" stroke-width=".1" d="M44 58h1v1h-1z"/><path fill="#e827a2" fill-rule="evenodd" stroke="#e827a2" stroke-width=".1" d="M54 58h1v1h-1z"/><path fill="#f25aa7" fill-rule="evenodd" stroke="#f25aa7" stroke-width=".1" d="M60 58h1v2h-1z"/><path fill="#f25ba9" fill-rule="evenodd" stroke="#f25ba9" stroke-width=".1" d="M39 59h1v1h-1z"/><path fill="#f151b4" fill-rule="evenodd" stroke="#f151b4" stroke-width=".1" d="M41 59h1v1h-1zm-14 12h1v1h-1z"/><path fill="#e829a2" fill-rule="evenodd" stroke="#e829a2" stroke-width=".1" d="M42 59h1v1h-1z"/><path fill="#e8249d" fill-rule="evenodd" stroke="#e8249d" stroke-width=".1" d="M39 60h1v1h-1z"/><path fill="#e7249e" fill-rule="evenodd" stroke="#e7249e" stroke-width=".1" d="M60 60h1v1h-1z"/><path fill="#e825a0" fill-rule="evenodd" stroke="#e825a0" stroke-width=".1" d="M22 64h1v1h-1z"/><path fill="#f35fad" fill-rule="evenodd" stroke="#f35fad" stroke-width=".1" d="M23 64h1v1h-1z"/><path fill="#ec3f87" fill-rule="evenodd" stroke="#ec3f87" stroke-width=".1" d="M24 64h1v1h-1z"/><path fill="#e72665" fill-rule="evenodd" stroke="#e72665" stroke-width=".1" d="M25 64h1v1h-1z"/><path fill="#e72666" fill-rule="evenodd" stroke="#e72666" stroke-width=".1" d="M74 64h1v1h-1zm-3 1h1v1h-1zm-3 1h1v1h-1zm-33 10h1v1h-1z"/><path fill="#ec3e87" fill-rule="evenodd" stroke="#ec3e87" stroke-width=".1" d="M75 64h1v1h-1z"/><path fill="#f25dac" fill-rule="evenodd" stroke="#f25dac" stroke-width=".1" d="M76 64h1v1h-1z"/><path fill="#e8249e" fill-rule="evenodd" stroke="#e8249e" stroke-width=".1" d="M77 64h1v1h-1z"/><path fill="#f66abe" fill-rule="evenodd" stroke="#f66abe" stroke-width=".1" d="M23 65h1v1h-1z"/><path fill="#fc8acb" fill-rule="evenodd" stroke="#fc8acb" stroke-width=".1" d="M25 65h1v1h-1zm49 0h1v1h-1zm-36 11h1v1h-1z"/><path fill="#f565b1" fill-rule="evenodd" stroke="#f565b1" stroke-width=".1" d="M26 65h1v1h-1zm47 0h1v1h-1zm-39 10h1v1h-1z"/><path fill="#ed428a" fill-rule="evenodd" stroke="#ed428a" stroke-width=".1" d="M27 65h1v1h-1z"/><path fill="#e72766" fill-rule="evenodd" stroke="#e72766" stroke-width=".1" d="M28 65h1v1h-1zm4 10h1v1h-1z"/><path fill="#e72563" fill-rule="evenodd" stroke="#e72563" stroke-width=".1" d="M68 65h1v1h-1zm0 11h1v1h-1zm-24 18h1v1h-1z"/><path fill="#ed408a" fill-rule="evenodd" stroke="#ed408a" stroke-width=".1" d="M72 65h1v1h-1z"/><path fill="#f669be" fill-rule="evenodd" stroke="#f669be" stroke-width=".1" d="M76 65h1v1h-1z"/><path fill="#e92ea5" fill-rule="evenodd" stroke="#e92ea5" stroke-width=".1" d="M23 66h1v1h-1zm53 0h1v1h-1z"/><path fill="#fd8ecd" fill-rule="evenodd" stroke="#fd8ecd" stroke-width=".1" d="M24 66h1v1h-1zm44 1h1v1h-1zm-4 8h1v1h-1z"/><path fill="#fd8ccc" fill-rule="evenodd" stroke="#fd8ccc" stroke-width=".1" d="M28 66h1v1h-1z"/><path fill="#f568b4" fill-rule="evenodd" stroke="#f568b4" stroke-width=".1" d="M29 66h1v1h-1zm8 10h1v1h-1z"/><path fill="#ed448f" fill-rule="evenodd" stroke="#ed448f" stroke-width=".1" d="M30 66h1v1h-1z"/><path fill="#e72667" fill-rule="evenodd" stroke="#e72667" stroke-width=".1" d="M31 66h1v1h-1z"/><path fill="#ed428c" fill-rule="evenodd" stroke="#ed428c" stroke-width=".1" d="M69 66h1v1h-1z"/><path fill="#f568b3" fill-rule="evenodd" stroke="#f568b3" stroke-width=".1" d="M70 66h1v1h-1z"/><path fill="#fd8bcb" fill-rule="evenodd" stroke="#fd8bcb" stroke-width=".1" d="M71 66h1v1h-1z"/><path fill="#fd8dce" fill-rule="evenodd" stroke="#fd8dce" stroke-width=".1" d="M75 66h1v1h-1z"/><path fill="#ee46af" fill-rule="evenodd" stroke="#ee46af" stroke-width=".1" d="M24 67h1v1h-1z"/><path fill="#f66ab5" fill-rule="evenodd" stroke="#f66ab5" stroke-width=".1" d="M32 67h1v1h-1z"/><path fill="#f04b9a" fill-rule="evenodd" stroke="#f04b9a" stroke-width=".1" d="M33 67h1v1h-1z"/><path fill="#ee4d96" fill-rule="evenodd" stroke="#ee4d96" stroke-width=".1" d="M66 67h1v1h-1z"/><path fill="#f66ab4" fill-rule="evenodd" stroke="#f66ab4" stroke-width=".1" d="M67 67h1v1h-1z"/><path fill="#f566bc" fill-rule="evenodd" stroke="#f566bc" stroke-width=".1" d="M25 68h1v1h-1z"/><path fill="#ef4cb1" fill-rule="evenodd" stroke="#ef4cb1" stroke-width=".1" d="M34 68h1v1h-1z"/><path fill="#ee4ab0" fill-rule="evenodd" stroke="#ee4ab0" stroke-width=".1" d="M65 68h1v1h-1z"/><path fill="#fa81c8" fill-rule="evenodd" stroke="#fa81c8" stroke-width=".1" d="M26 69h1v1h-1z"/><path fill="#fe8fce" fill-rule="evenodd" stroke="#fe8fce" stroke-width=".1" d="M34 69h1v1h-1zm31 0h1v1h-1zm-33 5h1v1h-1z"/><path fill="#ea31a6" fill-rule="evenodd" stroke="#ea31a6" stroke-width=".1" d="M35 69h1v1h-1z"/><path fill="#ea32a7" fill-rule="evenodd" stroke="#ea32a7" stroke-width=".1" d="M64 69h1v1h-1z"/><path fill="#fb82c9" fill-rule="evenodd" stroke="#fb82c9" stroke-width=".1" d="M73 69h1v1h-1z"/><path fill="#fa7dc7" fill-rule="evenodd" stroke="#fa7dc7" stroke-width=".1" d="M35 70h1v1h-1z"/><path fill="#e725a1" fill-rule="evenodd" stroke="#e725a1" stroke-width=".1" d="M36 70h1v1h-1z"/><path fill="#fa7cc6" fill-rule="evenodd" stroke="#fa7cc6" stroke-width=".1" d="M64 70h1v1h-1z"/><path fill="#f35fb9" fill-rule="evenodd" stroke="#f35fb9" stroke-width=".1" d="M36 71h1v1h-1z"/><path fill="#f050b3" fill-rule="evenodd" stroke="#f050b3" stroke-width=".1" d="M72 71h1v1h-1z"/><path fill="#f76ec0" fill-rule="evenodd" stroke="#f76ec0" stroke-width=".1" d="M28 72h1v1h-1z"/><path fill="#ed40ac" fill-rule="evenodd" stroke="#ed40ac" stroke-width=".1" d="M62 72h1v1h-1z"/><path fill="#f770c0" fill-rule="evenodd" stroke="#f770c0" stroke-width=".1" d="M71 72h1v1h-1z"/><path fill="#e92ca2" fill-rule="evenodd" stroke="#e92ca2" stroke-width=".1" d="M28 73h1v1h-1z"/><path fill="#fc87cb" fill-rule="evenodd" stroke="#fc87cb" stroke-width=".1" d="M29 73h1v1h-1z"/><path fill="#e92da4" fill-rule="evenodd" stroke="#e92da4" stroke-width=".1" d="M61 73h1v1h-1z"/><path fill="#fd8acd" fill-rule="evenodd" stroke="#fd8acd" stroke-width=".1" d="M62 73h1v1h-1z"/><path fill="#fc87ca" fill-rule="evenodd" stroke="#fc87ca" stroke-width=".1" d="M70 73h1v1h-1z"/><path fill="#e82da2" fill-rule="evenodd" stroke="#e82da2" stroke-width=".1" d="M71 73h1v1h-1z"/><path fill="#ed4691" fill-rule="evenodd" stroke="#ed4691" stroke-width=".1" d="M30 74h1v1h-1z"/><path fill="#f66cb7" fill-rule="evenodd" stroke="#f66cb7" stroke-width=".1" d="M31 74h1v1h-1zm34 1h1v1h-1z"/><path fill="#f875c3" fill-rule="evenodd" stroke="#f875c3" stroke-width=".1" d="M38 74h1v1h-1z"/><path fill="#f874c2" fill-rule="evenodd" stroke="#f874c2" stroke-width=".1" d="M61 74h1v1h-1z"/><path fill="#f874bd" fill-rule="evenodd" stroke="#f874bd" stroke-width=".1" d="M68 74h1v1h-1z"/><path fill="#ef4e9a" fill-rule="evenodd" stroke="#ef4e9a" stroke-width=".1" d="M69 74h1v1h-1z"/><path fill="#ed3f88" fill-rule="evenodd" stroke="#ed3f88" stroke-width=".1" d="M33 75h1v1h-1z"/><path fill="#f155b5" fill-rule="evenodd" stroke="#f155b5" stroke-width=".1" d="M39 75h1v1h-1z"/><path fill="#f256b5" fill-rule="evenodd" stroke="#f256b5" stroke-width=".1" d="M60 75h1v1h-1z"/><path fill="#ef4b95" fill-rule="evenodd" stroke="#ef4b95" stroke-width=".1" d="M66 75h1v1h-1z"/><path fill="#e8296a" fill-rule="evenodd" stroke="#e8296a" stroke-width=".1" d="M67 75h1v1h-1z"/><path fill="#ed438e" fill-rule="evenodd" stroke="#ed438e" stroke-width=".1" d="M36 76h1v1h-1z"/><path fill="#ec38a9" fill-rule="evenodd" stroke="#ec38a9" stroke-width=".1" d="M40 76h1v1h-1z"/><path fill="#ec39aa" fill-rule="evenodd" stroke="#ec39aa" stroke-width=".1" d="M59 76h1v1h-1z"/><path fill="#fd8acc" fill-rule="evenodd" stroke="#fd8acc" stroke-width=".1" d="M61 76h1v1h-1z"/><path fill="#f569b4" fill-rule="evenodd" stroke="#f569b4" stroke-width=".1" d="M62 76h1v1h-1z"/><path fill="#ee458e" fill-rule="evenodd" stroke="#ee458e" stroke-width=".1" d="M63 76h1v1h-1z"/><path fill="#e72767" fill-rule="evenodd" stroke="#e72767" stroke-width=".1" d="M64 76h1v1h-1z"/><path fill="#e93073" fill-rule="evenodd" stroke="#e93073" stroke-width=".1" d="M39 77h1v1h-1zm21 0h1v1h-1z"/><path fill="#e82e74" fill-rule="evenodd" stroke="#e82e74" stroke-width=".1" d="M40 77h1v1h-1zm19 0h1v1h-1z"/></svg>