<svg xmlns="http://www.w3.org/2000/svg" viewBox="0 0 100 100" width="1em" height="1em"><path fill="#3778ae" d="M41 0h1v1h-1zM43 0h1v1h-1zM43 1h3v1h-3zM42 2h3v1h-3zM41 3h3v1h-3zM40 4h3v1h-3zM39 5h3v1h-3zM38 6h3v1h-3zM38 7h2v1h-2zM31 13h1v1h-1zM30 14h2v1h-2zM29 15h3v1h-3zM28 16h3v1h-3zM27 17h3v1h-3zM26 18h3v1h-3zM26 19h2v1h-2zM26 20h1v1h-1zM18 26h3v1h-3zM17 27h3v1h-3zM16 28h3v1h-3zM15 29h3v1h-3zM14 30h3v1h-3zM13 31h3v1h-3zM12 32h3v1h-3zM11 33h3v1h-3zM10 34h3v1h-3zM9 35h3v1h-3zM8 36h3v1h-3zM7 37h3v1h-3zM6 38h3v1h-3zM5 39h3v1h-3zM4 40h3v1h-3zM3 41h3v1h-3zM2 42h3v1h-3zM1 43h3v1h-3zM1 44h2v1h-2zM1 45h1v1h-1z" /><path fill="#3879ae" d="M42 0h1v1h-1zM32 9h1v1h-1z" /><path fill="#3677ae" d="M44 0h1v1h-1zM32 14h1v1h-1z" /><path fill="#3777ad" d="M45 0h1v1h-1zM47 1h1v1h-1zM46 2h1v1h-1zM45 3h1v1h-1zM44 4h1v1h-1zM43 5h1v1h-1zM42 6h1v1h-1zM41 7h1v1h-1zM40 8h1v1h-1zM33 15h1v1h-1zM31 18h1v1h-1zM30 19h1v1h-1zM29 20h1v1h-1zM28 21h1v1h-1zM23 26h1v1h-1zM22 27h1v1h-1zM21 28h1v1h-1zM20 29h1v1h-1zM19 30h1v1h-1zM18 31h1v1h-1zM17 32h1v1h-1zM16 33h1v1h-1zM15 34h1v1h-1zM14 35h1v1h-1zM13 36h1v1h-1zM12 37h1v1h-1zM11 38h1v1h-1zM10 39h1v1h-1zM9 40h1v1h-1zM8 41h1v1h-1zM7 42h1v1h-1zM6 43h1v1h-1zM0 44h1v1h-1zM5 44h1v1h-1zM0 45h1v1h-1zM4 45h1v1h-1zM3 46h1v1h-1zM2 47h1v1h-1zM1 48h1v1h-1z" /><path fill="#3678ad" d="M46 0h1v1h-1zM37 7h1v1h-1zM0 46h1v1h-1z" /><path fill="#3678ac" d="M47 0h1v1h-1zM0 47h1v1h-1z" /><path fill="#3677ac" d="M48 0h1v1h-1zM40 9h1v1h-1zM40 10h1v1h-1z" /><path fill="#3777ac" d="M49 0h2v1h-2zM48 1h3v1h-3zM47 2h3v1h-3zM46 3h3v1h-3zM45 4h3v1h-3zM44 5h3v1h-3zM43 6h3v1h-3zM42 7h3v1h-3zM39 8h1v1h-1zM41 8h3v1h-3zM41 9h2v1h-2zM41 10h1v1h-1zM33 16h1v1h-1zM32 17h3v1h-3zM32 18h2v1h-2zM31 19h2v1h-2zM30 20h2v1h-2zM29 21h2v1h-2zM24 26h2v1h-2zM23 27h2v1h-2zM22 28h2v1h-2zM21 29h2v1h-2zM20 30h2v1h-2zM19 31h2v1h-2zM18 32h2v1h-2zM17 33h2v1h-2zM16 34h2v1h-2zM15 35h2v1h-2zM14 36h2v1h-2zM13 37h2v1h-2zM12 38h2v1h-2zM11 39h2v1h-2zM10 40h2v1h-2zM9 41h2v1h-2zM8 42h2v1h-2zM7 43h2v1h-2zM6 44h2v1h-2zM5 45h2v1h-2zM4 46h3v1h-3zM3 47h3v1h-3zM2 48h3v1h-3zM1 49h3v1h-3zM1 50h2v1h-2zM1 51h1v1h-1z" /><path fill="#3676ac" d="M51 0h1v1h-1zM34 16h1v1h-1zM0 50h1v1h-1zM0 51h1v1h-1z" /><path fill="#3776aa" d="M52 0h1v1h-1zM54 1h3v1h-3zM53 2h3v1h-3zM52 3h3v1h-3zM51 4h3v1h-3zM50 5h3v1h-3zM49 6h3v1h-3zM48 7h3v1h-3zM47 8h3v1h-3zM46 9h3v1h-3zM45 10h3v1h-3zM44 11h3v1h-3zM43 12h3v1h-3zM42 13h3v1h-3zM41 14h3v1h-3zM40 15h3v1h-3zM39 16h3v1h-3zM38 17h3v1h-3zM37 18h3v1h-3zM36 19h3v1h-3zM35 20h3v1h-3zM34 21h3v1h-3zM29 26h3v1h-3zM28 27h3v1h-3zM27 28h3v1h-3zM26 29h3v1h-3zM25 30h3v1h-3zM24 31h3v1h-3zM23 32h3v1h-3zM22 33h3v1h-3zM21 34h3v1h-3zM20 35h3v1h-3zM19 36h3v1h-3zM18 37h3v1h-3zM17 38h3v1h-3zM16 39h3v1h-3zM15 40h3v1h-3zM14 41h3v1h-3zM13 42h3v1h-3zM12 43h3v1h-3zM11 44h3v1h-3zM10 45h3v1h-3zM9 46h3v1h-3zM8 47h3v1h-3zM7 48h3v1h-3zM6 49h3v1h-3zM5 50h3v1h-3zM4 51h3v1h-3zM3 52h3v1h-3zM0 53h1v1h-1zM2 53h3v1h-3zM0 54h4v1h-4zM0 55h3v1h-3zM1 56h1v1h-1z" /><path fill="#3775aa" d="M53 0h2v1h-2zM56 0h1v1h-1zM39 15h1v1h-1z" /><path fill="#3776a9" d="M55 0h1v1h-1z" /><path fill="#3676a9" d="M57 0h1v1h-1z" /><path fill="#3779b1" d="M36 1h1v1h-1zM31 3h1v1h-1zM9 27h1v1h-1z" /><path fill="#377aaf" d="M37 1h1v1h-1z" /><path fill="#3879b0" d="M38 1h2v1h-2zM37 2h2v1h-2zM36 3h2v1h-2zM35 4h2v1h-2zM34 5h2v1h-2zM33 6h2v1h-2zM32 7h2v1h-2zM31 8h2v1h-2zM30 9h2v1h-2zM29 10h2v1h-2zM28 11h2v1h-2zM27 12h2v1h-2zM26 13h2v1h-2zM26 14h1v1h-1zM14 26h1v1h-1zM12 27h2v1h-2zM11 28h2v1h-2zM10 29h2v1h-2zM9 30h2v1h-2zM8 31h2v1h-2zM7 32h2v1h-2zM6 33h2v1h-2zM5 34h2v1h-2zM4 35h2v1h-2zM3 36h3v1h-3zM2 37h3v1h-3zM2 38h2v1h-2zM2 39h1v1h-1zM1 40h1v1h-1z" /><path fill="#3879af" d="M40 1h2v1h-2zM39 2h2v1h-2zM38 3h2v1h-2zM37 4h2v1h-2zM36 5h2v1h-2zM35 6h2v1h-2zM33 8h1v1h-1zM31 10h1v1h-1zM30 11h1v1h-1zM29 12h2v1h-2zM28 13h2v1h-2zM27 14h2v1h-2zM26 15h2v1h-2zM26 16h1v1h-1zM15 26h2v1h-2zM14 27h2v1h-2zM13 28h2v1h-2zM12 29h2v1h-2zM11 30h2v1h-2zM10 31h2v1h-2zM9 32h2v1h-2zM8 33h2v1h-2zM7 34h2v1h-2zM6 35h2v1h-2zM6 36h1v1h-1zM5 37h1v1h-1zM4 38h1v1h-1zM3 39h1v1h-1zM2 40h1v1h-1zM1 41h1v1h-1z" /><path fill="#3779af" d="M42 1h1v1h-1zM41 2h1v1h-1zM40 3h1v1h-1zM39 4h1v1h-1zM38 5h1v1h-1zM37 6h1v1h-1zM30 13h1v1h-1zM29 14h1v1h-1zM28 15h1v1h-1zM27 16h1v1h-1zM26 17h1v1h-1zM17 26h1v1h-1zM16 27h1v1h-1zM15 28h1v1h-1zM14 29h1v1h-1zM13 30h1v1h-1zM12 31h1v1h-1zM11 32h1v1h-1zM10 33h1v1h-1zM9 34h1v1h-1zM8 35h1v1h-1zM7 36h1v1h-1zM6 37h1v1h-1zM5 38h1v1h-1zM4 39h1v1h-1zM3 40h1v1h-1zM2 41h1v1h-1zM1 42h1v1h-1z" /><path fill="#3778ad" d="M46 1h1v1h-1zM45 2h1v1h-1zM44 3h1v1h-1zM43 4h1v1h-1zM42 5h1v1h-1zM41 6h1v1h-1zM40 7h1v1h-1zM32 15h1v1h-1zM31 16h2v1h-2zM30 17h2v1h-2zM29 18h2v1h-2zM28 19h2v1h-2zM27 20h2v1h-2zM26 21h2v1h-2zM21 26h2v1h-2zM20 27h2v1h-2zM19 28h2v1h-2zM18 29h2v1h-2zM17 30h2v1h-2zM16 31h2v1h-2zM15 32h2v1h-2zM14 33h2v1h-2zM13 34h2v1h-2zM12 35h2v1h-2zM11 36h2v1h-2zM10 37h2v1h-2zM9 38h2v1h-2zM8 39h2v1h-2zM7 40h2v1h-2zM6 41h2v1h-2zM5 42h2v1h-2zM4 43h2v1h-2zM3 44h2v1h-2zM2 45h2v1h-2zM1 46h2v1h-2zM1 47h1v1h-1zM0 48h1v1h-1z" /><path fill="#3777ab" d="M51 1h1v1h-1zM50 2h1v1h-1zM49 3h1v1h-1zM48 4h1v1h-1zM47 5h1v1h-1zM46 6h1v1h-1zM45 7h1v1h-1zM44 8h1v1h-1zM43 9h1v1h-1zM42 10h1v1h-1zM41 11h1v1h-1zM35 17h1v1h-1zM34 18h1v1h-1zM33 19h1v1h-1zM32 20h1v1h-1zM31 21h1v1h-1zM26 26h1v1h-1zM25 27h1v1h-1zM24 28h1v1h-1zM23 29h1v1h-1zM22 30h1v1h-1zM21 31h1v1h-1zM20 32h1v1h-1zM19 33h1v1h-1zM18 34h1v1h-1zM17 35h1v1h-1zM16 36h1v1h-1zM15 37h1v1h-1zM14 38h1v1h-1zM13 39h1v1h-1zM12 40h1v1h-1zM11 41h1v1h-1zM10 42h1v1h-1zM9 43h1v1h-1zM8 44h1v1h-1zM7 45h1v1h-1zM4 49h1v1h-1zM3 50h1v1h-1zM2 51h1v1h-1zM1 52h1v1h-1z" /><path fill="#3776ab" d="M52 1h2v1h-2zM51 2h2v1h-2zM50 3h2v1h-2zM49 4h2v1h-2zM48 5h2v1h-2zM47 6h2v1h-2zM46 7h2v1h-2zM45 8h2v1h-2zM44 9h2v1h-2zM43 10h2v1h-2zM42 11h2v1h-2zM41 12h2v1h-2zM41 13h1v1h-1zM40 14h1v1h-1zM37 16h2v1h-2zM36 17h2v1h-2zM35 18h2v1h-2zM34 19h2v1h-2zM33 20h2v1h-2zM32 21h2v1h-2zM27 26h2v1h-2zM26 27h2v1h-2zM25 28h2v1h-2zM24 29h2v1h-2zM23 30h2v1h-2zM22 31h2v1h-2zM21 32h2v1h-2zM20 33h2v1h-2zM19 34h2v1h-2zM18 35h2v1h-2zM17 36h2v1h-2zM16 37h2v1h-2zM15 38h2v1h-2zM14 39h2v1h-2zM13 40h2v1h-2zM12 41h2v1h-2zM11 42h2v1h-2zM10 43h2v1h-2zM9 44h2v1h-2zM8 45h2v1h-2zM7 46h2v1h-2zM6 47h2v1h-2zM5 48h2v1h-2zM5 49h1v1h-1zM4 50h1v1h-1zM3 51h1v1h-1zM2 52h1v1h-1zM1 53h1v1h-1z" /><path fill="#3775a9" d="M57 1h2v1h-2zM56 2h2v1h-2zM55 3h2v1h-2zM54 4h2v1h-2zM53 5h2v1h-2zM52 6h2v1h-2zM51 7h2v1h-2zM50 8h2v1h-2zM49 9h2v1h-2zM48 10h2v1h-2zM47 11h2v1h-2zM46 12h2v1h-2zM45 13h2v1h-2zM44 14h2v1h-2zM43 15h2v1h-2zM42 16h2v1h-2zM41 17h2v1h-2zM40 18h2v1h-2zM39 19h2v1h-2zM38 20h2v1h-2zM37 21h2v1h-2zM32 26h2v1h-2zM31 27h2v1h-2zM30 28h3v1h-3zM29 29h3v1h-3zM28 30h3v1h-3zM27 31h3v1h-3zM26 32h3v1h-3zM25 33h3v1h-3zM24 34h3v1h-3zM23 35h3v1h-3zM22 36h3v1h-3zM21 37h3v1h-3zM20 38h3v1h-3zM19 39h3v1h-3zM18 40h3v1h-3zM17 41h3v1h-3zM16 42h3v1h-3zM15 43h3v1h-3zM14 44h3v1h-3zM13 45h3v1h-3zM12 46h3v1h-3zM11 47h3v1h-3zM10 48h3v1h-3zM9 49h3v1h-3zM8 50h3v1h-3zM7 51h3v1h-3zM6 52h3v1h-3zM5 53h3v1h-3zM4 54h3v1h-3zM3 55h3v1h-3zM2 56h3v1h-3zM1 57h3v1h-3zM1 58h2v1h-2zM1 59h1v1h-1z" /><path fill="#3775a8" d="M59 1h1v1h-1zM58 2h2v1h-2zM57 3h2v1h-2zM56 4h2v1h-2zM55 5h2v1h-2zM54 6h2v1h-2zM53 7h2v1h-2zM52 8h2v1h-2zM51 9h2v1h-2zM50 10h2v1h-2zM49 11h2v1h-2zM48 12h2v1h-2zM47 13h2v1h-2zM46 14h3v1h-3zM45 15h3v1h-3zM44 16h3v1h-3zM43 17h3v1h-3zM42 18h3v1h-3zM41 19h3v1h-3zM40 20h3v1h-3zM39 21h3v1h-3zM34 26h3v1h-3zM33 27h3v1h-3zM33 28h2v1h-2zM32 29h2v1h-2zM31 30h2v1h-2zM30 31h2v1h-2zM29 32h2v1h-2zM28 33h2v1h-2zM27 34h2v1h-2zM26 35h2v1h-2zM25 36h2v1h-2zM24 37h2v1h-2zM23 38h2v1h-2zM22 39h2v1h-2zM21 40h2v1h-2zM20 41h2v1h-2zM19 42h2v1h-2zM18 43h2v1h-2zM17 44h2v1h-2zM16 45h2v1h-2zM15 46h2v1h-2zM14 47h2v1h-2zM13 48h2v1h-2zM12 49h2v1h-2zM11 50h2v1h-2zM10 51h2v1h-2zM9 52h2v1h-2zM8 53h2v1h-2zM7 54h2v1h-2zM6 55h2v1h-2zM5 56h2v1h-2zM4 57h2v1h-2zM3 58h2v1h-2zM2 59h2v1h-2zM2 60h1v1h-1z" /><path fill="#3674a7" d="M60 1h1v1h-1z" /><path fill="#3774a7" d="M61 1h1v1h-1zM61 2h3v1h-3zM60 3h3v1h-3zM59 4h3v1h-3zM58 5h3v1h-3zM57 6h3v1h-3zM56 7h3v1h-3zM55 8h3v1h-3zM54 9h3v1h-3zM53 10h3v1h-3zM52 11h3v1h-3zM51 12h3v1h-3zM50 13h3v1h-3zM49 14h3v1h-3zM48 15h3v1h-3zM47 16h3v1h-3zM46 17h3v1h-3zM45 18h3v1h-3zM44 19h3v1h-3zM43 20h3v1h-3zM42 21h3v1h-3zM37 26h3v1h-3zM36 27h3v1h-3zM35 28h3v1h-3zM34 29h3v1h-3zM33 30h3v1h-3zM32 31h3v1h-3zM31 32h3v1h-3zM30 33h3v1h-3zM29 34h3v1h-3zM28 35h3v1h-3zM27 36h3v1h-3zM26 37h3v1h-3zM25 38h3v1h-3zM24 39h3v1h-3zM23 40h3v1h-3zM22 41h3v1h-3zM21 42h3v1h-3zM20 43h3v1h-3zM19 44h3v1h-3zM18 45h3v1h-3zM17 46h3v1h-3zM16 47h3v1h-3zM15 48h3v1h-3zM14 49h3v1h-3zM13 50h3v1h-3zM12 51h3v1h-3zM11 52h3v1h-3zM10 53h3v1h-3zM9 54h3v1h-3zM9 55h2v1h-2zM8 56h2v1h-2zM7 57h2v1h-2zM6 58h2v1h-2zM5 59h2v1h-2zM1 60h1v1h-1zM4 60h2v1h-2zM3 61h2v1h-2zM2 62h2v1h-2z" /><path fill="#3773a7" d="M62 1h1v1h-1z" /><path fill="#387ab2" d="M33 2h1v1h-1zM32 3h1v1h-1zM31 4h1v1h-1zM29 5h2v1h-2zM28 6h2v1h-2zM27 7h2v1h-2zM27 8h1v1h-1zM5 30h1v1h-1z" /><path fill="#3779b0" d="M34 2h1v1h-1zM8 28h1v1h-1z" /><path fill="#387ab1" d="M35 2h1v1h-1zM33 3h2v1h-2zM32 4h2v1h-2zM31 5h2v1h-2zM30 6h2v1h-2zM29 7h2v1h-2zM26 8h1v1h-1zM28 8h2v1h-2zM27 9h3v1h-3zM26 10h3v1h-3zM26 11h2v1h-2zM26 12h1v1h-1zM11 27h1v1h-1zM9 28h2v1h-2zM7 29h3v1h-3zM6 30h3v1h-3zM5 31h3v1h-3zM4 32h3v1h-3zM4 33h2v1h-2zM4 34h1v1h-1zM2 35h2v1h-2z" /><path fill="#387ab0" d="M36 2h1v1h-1zM35 3h1v1h-1zM34 4h1v1h-1zM33 5h1v1h-1zM32 6h1v1h-1zM31 7h1v1h-1zM30 8h1v1h-1zM3 33h1v1h-1z" /><path fill="#3774a8" d="M60 2h1v1h-1zM59 3h1v1h-1zM58 4h1v1h-1zM57 5h1v1h-1zM56 6h1v1h-1zM55 7h1v1h-1zM54 8h1v1h-1zM53 9h1v1h-1zM52 10h1v1h-1zM51 11h1v1h-1zM50 12h1v1h-1zM49 13h1v1h-1zM8 55h1v1h-1zM7 56h1v1h-1zM6 57h1v1h-1zM5 58h1v1h-1zM4 59h1v1h-1zM3 60h1v1h-1zM2 61h1v1h-1z" /><path fill="#3773a5" d="M64 2h2v1h-2zM65 3h2v1h-2zM64 4h3v1h-3zM63 5h3v1h-3zM62 6h3v1h-3zM61 7h3v1h-3zM60 8h3v1h-3zM59 9h3v1h-3zM59 10h2v1h-2zM58 11h2v1h-2zM57 12h2v1h-2zM56 13h2v1h-2zM55 14h2v1h-2zM54 15h2v1h-2zM53 16h2v1h-2zM52 17h2v1h-2zM51 18h2v1h-2zM50 19h2v1h-2zM49 20h2v1h-2zM48 21h2v1h-2zM43 26h2v1h-2zM42 27h2v1h-2zM41 28h2v1h-2zM40 29h2v1h-2zM39 30h2v1h-2zM38 31h2v1h-2zM37 32h2v1h-2zM36 33h2v1h-2zM35 34h2v1h-2zM34 35h2v1h-2zM33 36h2v1h-2zM32 37h2v1h-2zM31 38h3v1h-3zM30 39h3v1h-3zM29 40h3v1h-3zM28 41h3v1h-3zM27 42h3v1h-3zM26 43h3v1h-3zM25 44h3v1h-3zM24 45h3v1h-3zM23 46h3v1h-3zM22 47h3v1h-3zM21 48h3v1h-3zM20 49h3v1h-3zM19 50h3v1h-3zM18 51h3v1h-3zM17 52h3v1h-3zM16 53h3v1h-3zM15 54h3v1h-3zM14 55h3v1h-3zM13 56h3v1h-3zM12 57h3v1h-3zM11 58h3v1h-3zM10 59h3v1h-3zM9 60h3v1h-3zM8 61h3v1h-3zM7 62h3v1h-3zM6 63h3v1h-3zM2 64h1v1h-1zM5 64h3v1h-3zM4 65h3v1h-3zM4 66h2v1h-2z" /><path fill="#3774a6" d="M63 3h1v1h-1zM62 4h1v1h-1zM61 5h1v1h-1zM60 6h1v1h-1zM59 7h1v1h-1zM58 8h1v1h-1zM57 9h1v1h-1zM56 10h1v1h-1zM55 11h1v1h-1zM54 12h1v1h-1zM53 13h1v1h-1zM52 14h1v1h-1zM51 15h1v1h-1zM50 16h1v1h-1zM49 17h1v1h-1zM48 18h1v1h-1zM47 19h1v1h-1zM46 20h1v1h-1zM45 21h1v1h-1zM40 26h1v1h-1zM39 27h1v1h-1zM38 28h1v1h-1zM37 29h1v1h-1zM36 30h1v1h-1zM35 31h1v1h-1zM34 32h1v1h-1zM33 33h1v1h-1zM32 34h1v1h-1zM31 35h1v1h-1zM30 36h1v1h-1zM29 37h1v1h-1zM28 38h1v1h-1zM27 39h1v1h-1zM26 40h1v1h-1zM25 41h1v1h-1zM24 42h1v1h-1zM23 43h1v1h-1zM22 44h1v1h-1zM21 45h1v1h-1zM20 46h1v1h-1zM19 47h2v1h-2zM18 48h2v1h-2zM17 49h2v1h-2zM16 50h2v1h-2zM15 51h2v1h-2zM14 52h2v1h-2zM13 53h2v1h-2zM12 54h2v1h-2zM11 55h2v1h-2zM10 56h2v1h-2zM9 57h2v1h-2zM8 58h2v1h-2zM7 59h2v1h-2zM6 60h2v1h-2zM5 61h2v1h-2zM4 62h2v1h-2zM3 63h2v1h-2zM3 64h1v1h-1z" /><path fill="#3773a6" d="M64 3h1v1h-1zM63 4h1v1h-1zM62 5h1v1h-1zM61 6h1v1h-1zM60 7h1v1h-1zM59 8h1v1h-1zM58 9h1v1h-1zM57 10h2v1h-2zM56 11h2v1h-2zM55 12h2v1h-2zM54 13h2v1h-2zM53 14h2v1h-2zM52 15h2v1h-2zM51 16h2v1h-2zM50 17h2v1h-2zM49 18h2v1h-2zM48 19h2v1h-2zM47 20h2v1h-2zM46 21h2v1h-2zM41 26h2v1h-2zM40 27h2v1h-2zM39 28h2v1h-2zM38 29h2v1h-2zM37 30h2v1h-2zM36 31h2v1h-2zM35 32h2v1h-2zM34 33h2v1h-2zM33 34h2v1h-2zM32 35h2v1h-2zM31 36h2v1h-2zM30 37h2v1h-2zM29 38h2v1h-2zM28 39h2v1h-2zM27 40h2v1h-2zM26 41h2v1h-2zM25 42h2v1h-2zM24 43h2v1h-2zM23 44h2v1h-2zM22 45h2v1h-2zM21 46h2v1h-2zM21 47h1v1h-1zM20 48h1v1h-1zM19 49h1v1h-1zM18 50h1v1h-1zM17 51h1v1h-1zM16 52h1v1h-1zM15 53h1v1h-1zM14 54h1v1h-1zM13 55h1v1h-1zM12 56h1v1h-1zM11 57h1v1h-1zM10 58h1v1h-1zM9 59h1v1h-1zM8 60h1v1h-1zM7 61h1v1h-1zM6 62h1v1h-1zM2 63h1v1h-1zM5 63h1v1h-1zM4 64h1v1h-1zM3 65h1v1h-1z" /><path fill="#3772a5" d="M67 3h1v1h-1zM3 66h1v1h-1z" /><path fill="#387bb1" d="M29 4h1v1h-1z" /><path fill="#3879b2" d="M30 4h1v1h-1z" /><path fill="#3773a4" d="M67 4h1v1h-1zM66 5h1v1h-1zM65 6h1v1h-1zM64 7h1v1h-1zM63 8h1v1h-1zM62 9h1v1h-1zM61 10h1v1h-1zM60 11h1v1h-1zM59 12h1v1h-1zM58 13h1v1h-1zM57 14h1v1h-1zM56 15h1v1h-1zM55 16h1v1h-1zM54 17h1v1h-1zM53 18h1v1h-1zM52 19h1v1h-1zM51 20h1v1h-1zM50 21h1v1h-1zM45 26h1v1h-1zM44 27h1v1h-1zM43 28h1v1h-1zM42 29h1v1h-1zM41 30h1v1h-1zM40 31h1v1h-1zM39 32h1v1h-1zM38 33h1v1h-1zM37 34h1v1h-1zM36 35h1v1h-1zM35 36h1v1h-1zM34 37h1v1h-1zM4 67h1v1h-1z" /><path fill="#3771a3" d="M68 4h1v1h-1zM70 6h1v1h-1zM69 7h1v1h-1zM68 8h1v1h-1zM67 9h1v1h-1zM66 10h1v1h-1zM65 11h1v1h-1zM50 24h1v1h-1z" /><path fill="#377ab2" d="M28 5h1v1h-1zM26 9h1v1h-1zM6 29h1v1h-1z" /><path fill="#3772a4" d="M67 5h2v1h-2zM66 6h2v1h-2zM65 7h2v1h-2zM64 8h2v1h-2zM63 9h2v1h-2zM62 10h2v1h-2zM61 11h2v1h-2zM60 12h2v1h-2zM59 13h2v1h-2zM58 14h2v1h-2zM57 15h2v1h-2zM56 16h2v1h-2zM55 17h2v1h-2zM54 18h2v1h-2zM53 19h2v1h-2zM52 20h2v1h-2zM51 21h2v1h-2zM50 22h2v1h-2zM46 26h2v1h-2zM45 27h2v1h-2zM44 28h2v1h-2zM43 29h2v1h-2zM42 30h2v1h-2zM41 31h2v1h-2zM40 32h2v1h-2zM39 33h2v1h-2zM38 34h2v1h-2zM37 35h2v1h-2zM36 36h2v1h-2zM35 37h2v1h-2zM34 38h2v1h-2zM33 39h2v1h-2zM32 40h2v1h-2zM31 41h2v1h-2zM30 42h2v1h-2zM29 43h2v1h-2zM28 44h2v1h-2zM27 45h2v1h-2zM26 46h2v1h-2zM25 47h2v1h-2zM24 48h2v1h-2zM23 49h2v1h-2zM22 50h2v1h-2zM21 51h2v1h-2zM20 52h2v1h-2zM19 53h2v1h-2zM18 54h2v1h-2zM17 55h2v1h-2zM16 56h2v1h-2zM15 57h2v1h-2zM14 58h2v1h-2zM13 59h2v1h-2zM12 60h2v1h-2zM11 61h2v1h-2zM10 62h2v1h-2zM9 63h2v1h-2zM8 64h2v1h-2zM7 65h3v1h-3zM6 66h3v1h-3zM5 67h3v1h-3zM5 68h2v1h-2z" /><path fill="#3772a3" d="M69 5h1v1h-1zM68 6h2v1h-2zM67 7h2v1h-2zM66 8h2v1h-2zM65 9h2v1h-2zM64 10h2v1h-2zM63 11h2v1h-2zM62 12h3v1h-3zM61 13h3v1h-3zM60 14h3v1h-3zM59 15h3v1h-3zM58 16h3v1h-3zM57 17h3v1h-3zM56 18h3v1h-3zM55 19h3v1h-3zM54 20h3v1h-3zM53 21h3v1h-3zM52 22h3v1h-3zM51 23h3v1h-3zM51 24h2v1h-2zM51 25h1v1h-1zM48 26h3v1h-3zM47 27h3v1h-3zM46 28h3v1h-3zM45 29h3v1h-3zM44 30h3v1h-3zM43 31h3v1h-3zM42 32h3v1h-3zM41 33h3v1h-3zM40 34h3v1h-3zM39 35h3v1h-3zM38 36h3v1h-3zM37 37h3v1h-3zM36 38h3v1h-3zM35 39h3v1h-3zM34 40h3v1h-3zM33 41h3v1h-3zM32 42h3v1h-3zM31 43h3v1h-3zM30 44h3v1h-3zM29 45h3v1h-3zM28 46h3v1h-3zM27 47h3v1h-3zM26 48h3v1h-3zM25 49h3v1h-3zM24 50h3v1h-3zM23 51h3v1h-3zM22 52h3v1h-3zM21 53h3v1h-3zM20 54h3v1h-3zM19 55h3v1h-3zM18 56h3v1h-3zM17 57h3v1h-3zM16 58h3v1h-3zM15 59h3v1h-3zM14 60h3v1h-3zM13 61h3v1h-3zM12 62h3v1h-3zM11 63h3v1h-3zM10 64h3v1h-3zM10 65h2v1h-2zM9 66h2v1h-2zM8 67h2v1h-2zM7 68h2v1h-2zM6 69h2v1h-2zM6 70h1v1h-1z" /><path fill="#3771a2" d="M70 5h1v1h-1zM70 7h2v1h-2zM69 8h2v1h-2zM68 9h2v1h-2zM67 10h2v1h-2zM66 11h2v1h-2zM65 12h2v1h-2zM64 13h2v1h-2zM63 14h2v1h-2zM62 15h2v1h-2zM61 16h2v1h-2zM60 17h2v1h-2zM59 18h2v1h-2zM58 19h2v1h-2zM57 20h3v1h-3zM56 21h3v1h-3zM55 22h3v1h-3zM54 23h3v1h-3zM53 24h3v1h-3zM52 25h3v1h-3zM51 26h3v1h-3zM50 27h3v1h-3zM49 28h3v1h-3zM48 29h3v1h-3zM47 30h3v1h-3zM46 31h3v1h-3zM45 32h3v1h-3zM44 33h3v1h-3zM43 34h3v1h-3zM42 35h3v1h-3zM41 36h3v1h-3zM40 37h3v1h-3zM39 38h3v1h-3zM38 39h3v1h-3zM37 40h3v1h-3zM36 41h3v1h-3zM35 42h3v1h-3zM34 43h3v1h-3zM33 44h3v1h-3zM32 45h3v1h-3zM31 46h3v1h-3zM30 47h3v1h-3zM29 48h2v1h-2zM28 49h1v1h-1zM26 51h1v1h-1zM23 54h1v1h-1zM22 55h2v1h-2zM21 56h2v1h-2zM20 57h3v1h-3zM19 58h3v1h-3zM18 59h3v1h-3zM17 60h3v1h-3zM16 61h3v1h-3zM15 62h3v1h-3zM14 63h3v1h-3zM13 64h3v1h-3zM12 65h3v1h-3zM11 66h3v1h-3zM10 67h3v1h-3zM9 68h3v1h-3zM8 69h3v1h-3zM7 70h3v1h-3zM7 71h2v1h-2z" /><path fill="#387bb2" d="M27 6h1v1h-1z" /><path fill="#3670a1" d="M71 6h1v1h-1zM22 59h1v1h-1z" /><path fill="#3878af" d="M34 7h1v1h-1zM1 38h1v1h-1z" /><path fill="#3778af" d="M35 7h1v1h-1zM31 11h1v1h-1zM13 26h1v1h-1zM1 39h1v1h-1z" /><path fill="#3679ae" d="M36 7h1v1h-1zM0 43h1v1h-1z" /><path fill="#3771a1" d="M71 8h2v1h-2zM70 9h2v1h-2zM69 10h2v1h-2zM68 11h2v1h-2zM67 12h2v1h-2zM66 13h2v1h-2zM65 14h2v1h-2zM64 15h2v1h-2zM63 16h2v1h-2zM62 17h2v1h-2zM61 18h2v1h-2zM60 19h2v1h-2zM60 20h1v1h-1zM59 21h1v1h-1zM58 22h1v1h-1zM57 23h1v1h-1zM56 24h1v1h-1zM55 25h1v1h-1zM54 26h1v1h-1zM53 27h1v1h-1zM52 28h1v1h-1zM51 29h1v1h-1zM50 30h1v1h-1zM49 31h1v1h-1zM48 32h1v1h-1zM47 33h1v1h-1zM46 34h1v1h-1zM45 35h1v1h-1zM44 36h1v1h-1zM43 37h1v1h-1zM42 38h1v1h-1zM41 39h1v1h-1zM40 40h1v1h-1zM39 41h1v1h-1zM38 42h1v1h-1zM37 43h1v1h-1zM36 44h1v1h-1zM35 45h2v1h-2zM34 46h2v1h-2zM33 47h2v1h-2zM32 48h2v1h-2zM24 53h1v1h-1zM22 58h1v1h-1zM21 59h1v1h-1zM20 60h2v1h-2zM19 61h2v1h-2zM18 62h2v1h-2zM17 63h2v1h-2zM16 64h2v1h-2zM15 65h2v1h-2zM14 66h2v1h-2zM13 67h2v1h-2zM12 68h2v1h-2zM11 69h2v1h-2zM10 70h2v1h-2zM9 71h2v1h-2z" /><path fill="#3770a1" d="M72 9h1v1h-1zM71 10h1v1h-1zM70 11h1v1h-1zM69 12h1v1h-1zM68 13h1v1h-1zM67 14h1v1h-1zM66 15h1v1h-1zM65 16h1v1h-1zM64 17h1v1h-1zM63 18h1v1h-1zM62 19h1v1h-1zM61 20h1v1h-1zM60 21h1v1h-1zM59 22h1v1h-1zM58 23h1v1h-1zM57 24h1v1h-1zM56 25h1v1h-1zM55 26h1v1h-1zM54 27h1v1h-1zM53 28h1v1h-1zM52 29h1v1h-1zM51 30h1v1h-1zM50 31h1v1h-1zM49 32h1v1h-1zM48 33h1v1h-1zM47 34h1v1h-1zM46 35h1v1h-1zM45 36h1v1h-1zM44 37h1v1h-1zM43 38h1v1h-1zM42 39h1v1h-1zM41 40h1v1h-1zM40 41h1v1h-1zM39 42h1v1h-1zM38 43h1v1h-1zM37 44h1v1h-1zM35 47h1v1h-1zM23 56h1v1h-1zM21 61h1v1h-1zM20 62h1v1h-1zM19 63h1v1h-1zM18 64h1v1h-1zM17 65h1v1h-1zM16 66h1v1h-1zM15 67h1v1h-1zM14 68h1v1h-1zM13 69h1v1h-1zM12 70h1v1h-1zM11 71h1v1h-1zM10 72h1v1h-1z" /><path fill="#376f9f" d="M73 9h1v1h-1zM73 10h1v1h-1zM73 13h1v1h-1zM72 14h2v1h-2zM71 15h2v1h-2zM70 16h2v1h-2zM69 17h2v1h-2zM68 18h2v1h-2zM67 19h2v1h-2zM66 20h2v1h-2zM65 21h2v1h-2zM64 22h2v1h-2zM63 23h2v1h-2zM62 24h2v1h-2zM61 25h2v1h-2zM60 26h2v1h-2zM59 27h2v1h-2zM58 28h2v1h-2zM57 29h2v1h-2zM56 30h2v1h-2zM55 31h2v1h-2zM54 32h2v1h-2zM53 33h2v1h-2zM52 34h2v1h-2zM51 35h2v1h-2zM50 36h2v1h-2zM49 37h2v1h-2zM48 38h2v1h-2zM47 39h2v1h-2zM46 40h2v1h-2zM45 41h2v1h-2zM44 42h2v1h-2zM43 43h2v1h-2zM42 44h2v1h-2zM41 45h2v1h-2zM40 46h2v1h-2zM39 47h2v1h-2zM21 65h1v1h-1zM20 66h2v1h-2zM19 67h2v1h-2zM18 68h2v1h-2zM17 69h2v1h-2zM16 70h2v1h-2zM15 71h2v1h-2zM14 72h2v1h-2zM13 73h2v1h-2z" /><path fill="#3770a0" d="M72 10h1v1h-1zM71 11h3v1h-3zM70 12h3v1h-3zM69 13h3v1h-3zM68 14h3v1h-3zM67 15h3v1h-3zM66 16h3v1h-3zM65 17h3v1h-3zM64 18h3v1h-3zM63 19h3v1h-3zM62 20h3v1h-3zM61 21h3v1h-3zM60 22h3v1h-3zM59 23h3v1h-3zM58 24h3v1h-3zM57 25h3v1h-3zM56 26h3v1h-3zM55 27h3v1h-3zM54 28h3v1h-3zM53 29h3v1h-3zM52 30h3v1h-3zM51 31h3v1h-3zM50 32h3v1h-3zM49 33h3v1h-3zM48 34h3v1h-3zM47 35h3v1h-3zM46 36h3v1h-3zM45 37h3v1h-3zM44 38h3v1h-3zM43 39h3v1h-3zM42 40h3v1h-3zM41 41h3v1h-3zM40 42h3v1h-3zM39 43h3v1h-3zM38 44h3v1h-3zM37 45h3v1h-3zM36 46h3v1h-3zM36 47h2v1h-2zM21 62h1v1h-1zM20 63h2v1h-2zM19 64h2v1h-2zM18 65h2v1h-2zM17 66h2v1h-2zM16 67h2v1h-2zM15 68h2v1h-2zM14 69h2v1h-2zM13 70h2v1h-2zM12 71h2v1h-2zM11 72h2v1h-2z" /><path fill="#3679af" d="M31 12h1v1h-1z" /><path fill="#37709f" d="M73 12h1v1h-1zM72 13h1v1h-1zM71 14h1v1h-1zM70 15h1v1h-1zM69 16h1v1h-1zM68 17h1v1h-1zM67 18h1v1h-1zM66 19h1v1h-1zM65 20h1v1h-1zM64 21h1v1h-1zM63 22h1v1h-1zM62 23h1v1h-1zM61 24h1v1h-1zM60 25h1v1h-1zM59 26h1v1h-1zM58 27h1v1h-1zM57 28h1v1h-1zM56 29h1v1h-1zM55 30h1v1h-1zM54 31h1v1h-1zM53 32h1v1h-1zM52 33h1v1h-1zM51 34h1v1h-1zM50 35h1v1h-1zM49 36h1v1h-1zM48 37h1v1h-1zM47 38h1v1h-1zM46 39h1v1h-1zM45 40h1v1h-1zM44 41h1v1h-1zM43 42h1v1h-1zM42 43h1v1h-1zM41 44h1v1h-1zM40 45h1v1h-1zM39 46h1v1h-1zM38 47h1v1h-1zM22 61h1v1h-1zM21 64h1v1h-1zM20 65h1v1h-1zM19 66h1v1h-1zM18 67h1v1h-1zM17 68h1v1h-1zM16 69h1v1h-1zM15 70h1v1h-1zM14 71h1v1h-1zM13 72h1v1h-1zM12 73h1v1h-1z" /><path fill="#3676ab" d="M40 13h1v1h-1zM35 16h1v1h-1z" /><path fill="#376f9e" d="M73 15h1v1h-1zM72 16h2v1h-2zM71 17h2v1h-2zM70 18h2v1h-2zM69 19h2v1h-2zM68 20h2v1h-2zM67 21h2v1h-2zM66 22h2v1h-2zM65 23h2v1h-2zM64 24h2v1h-2zM63 25h2v1h-2zM62 26h2v1h-2zM61 27h2v1h-2zM60 28h2v1h-2zM59 29h2v1h-2zM58 30h3v1h-3zM57 31h3v1h-3zM56 32h3v1h-3zM55 33h3v1h-3zM54 34h3v1h-3zM53 35h3v1h-3zM52 36h3v1h-3zM51 37h3v1h-3zM50 38h3v1h-3zM49 39h3v1h-3zM48 40h3v1h-3zM47 41h3v1h-3zM46 42h3v1h-3zM45 43h3v1h-3zM44 44h3v1h-3zM43 45h3v1h-3zM42 46h3v1h-3zM41 47h3v1h-3zM21 67h1v1h-1zM20 68h2v1h-2zM19 69h3v1h-3zM18 70h3v1h-3zM17 71h3v1h-3zM16 72h3v1h-3zM15 73h3v1h-3z" /><path fill="#3676aa" d="M36 16h1v1h-1z" /><path fill="#376f9d" d="M73 17h1v1h-1zM72 18h1v1h-1zM71 19h1v1h-1zM70 20h1v1h-1zM69 21h1v1h-1zM68 22h1v1h-1zM67 23h1v1h-1zM66 24h1v1h-1zM65 25h1v1h-1zM64 26h1v1h-1zM63 27h1v1h-1zM62 28h1v1h-1zM61 29h1v1h-1z" /><path fill="#376e9d" d="M73 18h1v1h-1zM72 19h1v1h-1zM71 20h1v1h-1zM70 21h1v1h-1zM69 22h1v1h-1zM68 23h1v1h-1zM67 24h1v1h-1zM66 25h1v1h-1zM65 26h1v1h-1zM64 27h1v1h-1zM63 28h1v1h-1zM62 29h1v1h-1zM61 30h1v1h-1zM60 31h1v1h-1zM59 32h1v1h-1zM58 33h1v1h-1zM57 34h1v1h-1zM56 35h1v1h-1zM55 36h1v1h-1zM54 37h1v1h-1zM53 38h1v1h-1zM52 39h1v1h-1zM51 40h1v1h-1zM50 41h1v1h-1zM49 42h1v1h-1zM48 43h1v1h-1zM47 44h1v1h-1zM46 45h1v1h-1zM45 46h1v1h-1zM44 47h1v1h-1zM21 70h1v1h-1zM20 71h1v1h-1zM19 72h1v1h-1zM18 73h1v1h-1z" /><path fill="#366e9d" d="M73 19h1v1h-1zM72 20h1v1h-1zM71 21h1v1h-1zM70 22h1v1h-1zM69 23h1v1h-1zM68 24h1v1h-1zM67 25h1v1h-1zM66 26h1v1h-1zM65 27h1v1h-1zM64 28h1v1h-1zM63 29h1v1h-1zM62 30h1v1h-1zM61 31h1v1h-1zM60 32h1v1h-1zM59 33h1v1h-1zM58 34h1v1h-1zM57 35h1v1h-1zM56 36h1v1h-1zM55 37h1v1h-1zM54 38h1v1h-1zM53 39h1v1h-1zM52 40h1v1h-1zM51 41h1v1h-1zM50 42h1v1h-1zM49 43h1v1h-1zM48 44h1v1h-1zM47 45h1v1h-1zM46 46h1v1h-1zM45 47h1v1h-1zM21 71h1v1h-1zM20 72h2v1h-2zM19 73h2v1h-2z" /><path fill="#366e9c" d="M73 20h1v1h-1zM72 21h2v1h-2zM71 22h2v1h-2zM70 23h2v1h-2zM69 24h2v1h-2zM68 25h2v1h-2zM67 26h2v1h-2zM66 27h2v1h-2zM65 28h2v1h-2zM64 29h2v1h-2zM63 30h2v1h-2zM62 31h2v1h-2zM61 32h2v1h-2zM60 33h2v1h-2zM59 34h2v1h-2zM58 35h2v1h-2zM57 36h2v1h-2zM56 37h2v1h-2zM55 38h2v1h-2zM54 39h2v1h-2zM53 40h2v1h-2zM52 41h2v1h-2zM51 42h2v1h-2zM50 43h3v1h-3zM49 44h3v1h-3zM48 45h3v1h-3zM47 46h3v1h-3zM46 47h3v1h-3zM21 73h1v1h-1z" /><path fill="#366d9c" d="M73 22h1v1h-1zM72 23h1v1h-1zM71 24h1v1h-1zM70 25h1v1h-1zM69 26h1v1h-1zM68 27h1v1h-1zM67 28h1v1h-1zM66 29h1v1h-1zM65 30h1v1h-1zM64 31h1v1h-1zM63 32h1v1h-1zM62 33h1v1h-1zM61 34h1v1h-1zM60 35h1v1h-1zM59 36h1v1h-1zM58 37h1v1h-1zM57 38h1v1h-1zM56 39h1v1h-1zM55 40h1v1h-1zM54 41h1v1h-1zM53 42h1v1h-1zM22 69h1v1h-1zM22 70h1v1h-1zM22 71h1v1h-1zM22 72h1v1h-1zM22 73h1v1h-1z" /><path fill="#3771a4" d="M50 23h1v1h-1zM4 68h1v1h-1z" /><path fill="#366d9b" d="M73 23h1v1h-1zM72 24h2v1h-2zM71 25h3v1h-3zM70 26h3v1h-3zM69 27h3v1h-3zM68 28h3v1h-3zM67 29h3v1h-3zM66 30h3v1h-3zM65 31h3v1h-3zM64 32h3v1h-3zM63 33h3v1h-3zM62 34h3v1h-3zM61 35h3v1h-3zM60 36h3v1h-3zM59 37h3v1h-3zM58 38h3v1h-3zM57 39h3v1h-3zM56 40h3v1h-3zM55 41h3v1h-3zM54 42h3v1h-3zM53 43h3v1h-3zM52 44h3v1h-3zM51 45h3v1h-3zM50 46h3v1h-3zM49 47h3v1h-3z" /><path fill="#3672a3" d="M50 25h1v1h-1z" /><path fill="#ffd949" d="M77 25h1v1h-1zM77 26h1v1h-1zM77 27h1v1h-1zM52 51h4v1h-4zM40 67h1v1h-1zM39 68h1v1h-1z" /><path fill="#ffd849" d="M78 25h2v1h-2zM79 26h3v1h-3zM78 27h3v1h-3zM78 28h2v1h-2zM78 29h1v1h-1zM55 52h3v1h-3zM54 53h3v1h-3zM53 54h3v1h-3zM52 55h3v1h-3zM51 56h3v1h-3zM50 57h3v1h-3zM49 58h3v1h-3zM48 59h3v1h-3zM47 60h3v1h-3zM46 61h3v1h-3zM45 62h3v1h-3zM44 63h3v1h-3zM43 64h3v1h-3zM42 65h3v1h-3zM41 66h3v1h-3zM41 67h2v1h-2zM40 68h3v1h-3zM39 69h3v1h-3zM38 70h3v1h-3zM37 71h3v1h-3zM36 72h3v1h-3zM35 73h3v1h-3zM34 74h3v1h-3zM33 75h3v1h-3zM32 76h3v1h-3zM31 77h3v1h-3zM30 78h3v1h-3zM29 79h3v1h-3zM28 80h3v1h-3zM27 81h3v1h-3zM26 82h3v1h-3zM26 83h2v1h-2zM26 84h1v1h-1z" /><path fill="#ffd748" d="M80 25h3v1h-3zM83 26h2v1h-2zM82 27h2v1h-2zM81 28h2v1h-2zM80 29h2v1h-2zM79 30h3v1h-3zM78 31h3v1h-3zM78 32h2v1h-2zM78 33h1v1h-1zM59 51h3v1h-3zM58 52h3v1h-3zM57 53h3v1h-3zM56 54h3v1h-3zM55 55h3v1h-3zM54 56h3v1h-3zM53 57h3v1h-3zM53 58h2v1h-2zM52 59h2v1h-2zM51 60h2v1h-2zM50 61h2v1h-2zM49 62h2v1h-2zM48 63h2v1h-2zM47 64h2v1h-2zM46 65h2v1h-2zM45 66h2v1h-2zM44 67h3v1h-3zM43 68h3v1h-3zM42 69h3v1h-3zM41 70h3v1h-3zM40 71h3v1h-3zM39 72h3v1h-3zM38 73h3v1h-3zM37 74h3v1h-3zM36 75h3v1h-3zM35 76h3v1h-3zM35 77h2v1h-2zM34 78h2v1h-2zM33 79h2v1h-2zM32 80h2v1h-2zM31 81h2v1h-2zM30 82h2v1h-2zM29 83h2v1h-2zM28 84h2v1h-2zM27 85h3v1h-3zM26 86h3v1h-3zM26 87h2v1h-2z" /><path fill="#ffd747" d="M83 25h1v1h-1zM86 25h1v1h-1zM85 26h1v1h-1zM84 27h1v1h-1zM83 28h1v1h-1zM82 29h1v1h-1zM81 31h1v1h-1zM80 32h1v1h-1zM79 33h1v1h-1zM78 34h1v1h-1zM62 51h1v1h-1zM61 52h1v1h-1zM60 53h1v1h-1zM59 54h1v1h-1zM58 55h1v1h-1zM57 56h1v1h-1zM56 57h1v1h-1zM55 58h1v1h-1zM54 59h1v1h-1zM53 60h1v1h-1zM52 61h1v1h-1zM51 62h1v1h-1zM50 63h1v1h-1zM49 64h1v1h-1zM48 65h1v1h-1zM47 66h1v1h-1zM46 68h1v1h-1zM45 69h1v1h-1zM44 70h1v1h-1zM43 71h1v1h-1zM42 72h1v1h-1zM41 73h1v1h-1zM40 74h1v1h-1zM39 75h1v1h-1zM38 76h1v1h-1zM37 77h1v1h-1zM36 78h1v1h-1zM35 79h1v1h-1zM34 80h1v1h-1zM33 81h1v1h-1zM32 82h1v1h-1zM31 83h1v1h-1zM30 84h1v1h-1zM29 86h1v1h-1zM28 87h1v1h-1zM26 88h2v1h-2z" /><path fill="#ffd647" d="M84 25h2v1h-2zM86 26h2v1h-2zM85 27h2v1h-2zM84 28h2v1h-2zM83 29h3v1h-3zM82 30h3v1h-3zM82 31h2v1h-2zM77 32h1v1h-1zM81 32h2v1h-2zM77 33h1v1h-1zM80 33h2v1h-2zM77 34h1v1h-1zM79 34h2v1h-2zM78 35h2v1h-2zM78 36h1v1h-1zM62 52h2v1h-2zM61 53h2v1h-2zM60 54h2v1h-2zM59 55h2v1h-2zM58 56h2v1h-2zM57 57h2v1h-2zM56 58h2v1h-2zM55 59h2v1h-2zM54 60h2v1h-2zM53 61h2v1h-2zM52 62h2v1h-2zM51 63h2v1h-2zM50 64h2v1h-2zM49 65h2v1h-2zM48 66h3v1h-3zM47 67h3v1h-3zM47 68h2v1h-2zM46 69h2v1h-2zM45 70h2v1h-2zM44 71h2v1h-2zM43 72h2v1h-2zM42 73h2v1h-2zM41 74h2v1h-2zM40 75h2v1h-2zM39 76h2v1h-2zM38 77h2v1h-2zM37 78h2v1h-2zM36 79h2v1h-2zM35 80h2v1h-2zM34 81h2v1h-2zM33 82h2v1h-2zM32 83h2v1h-2zM31 84h3v1h-3zM30 85h3v1h-3zM30 86h2v1h-2zM29 87h2v1h-2zM28 88h2v1h-2zM27 89h2v1h-2zM27 90h1v1h-1z" /><path fill="#ffd646" d="M87 25h1v1h-1zM88 26h2v1h-2zM87 27h2v1h-2zM86 28h2v1h-2zM86 29h1v1h-1zM85 30h1v1h-1zM84 31h1v1h-1zM83 32h1v1h-1zM82 33h1v1h-1zM81 34h1v1h-1zM77 35h1v1h-1zM80 35h1v1h-1zM77 36h1v1h-1zM79 36h1v1h-1zM78 37h1v1h-1zM65 51h1v1h-1zM64 52h1v1h-1zM63 53h1v1h-1zM62 54h1v1h-1zM61 55h1v1h-1zM60 56h1v1h-1zM59 57h1v1h-1zM58 58h1v1h-1zM57 59h2v1h-2zM56 60h2v1h-2zM55 61h2v1h-2zM54 62h2v1h-2zM53 63h2v1h-2zM52 64h2v1h-2zM51 65h2v1h-2zM51 66h1v1h-1zM50 67h1v1h-1zM49 68h1v1h-1zM48 69h1v1h-1zM47 70h1v1h-1zM46 71h1v1h-1zM45 72h1v1h-1zM44 73h1v1h-1zM43 74h1v1h-1zM42 75h1v1h-1zM41 76h1v1h-1zM40 77h1v1h-1zM39 78h2v1h-2zM38 79h2v1h-2zM37 80h2v1h-2zM36 81h2v1h-2zM35 82h2v1h-2zM34 83h2v1h-2zM34 84h1v1h-1zM33 85h1v1h-1zM32 86h1v1h-1zM31 87h1v1h-1zM30 88h1v1h-1zM29 89h1v1h-1zM28 90h1v1h-1z" /><path fill="#3879b1" d="M12 26h1v1h-1zM10 27h1v1h-1z" /><path fill="#366d9a" d="M73 26h1v1h-1zM72 27h1v1h-1zM71 28h1v1h-1zM70 29h1v1h-1zM69 30h1v1h-1zM68 31h1v1h-1zM67 32h1v1h-1zM66 33h1v1h-1zM65 34h1v1h-1zM64 35h1v1h-1zM63 36h1v1h-1zM62 37h1v1h-1zM61 38h1v1h-1zM60 39h1v1h-1zM59 40h1v1h-1zM58 41h1v1h-1zM57 42h1v1h-1zM56 43h1v1h-1zM55 44h1v1h-1zM54 45h1v1h-1zM53 46h1v1h-1zM52 47h1v1h-1z" /><path fill="#ffd94a" d="M78 26h1v1h-1zM52 52h3v1h-3zM51 53h3v1h-3zM50 54h3v1h-3zM49 55h3v1h-3zM48 56h3v1h-3zM47 57h3v1h-3zM46 58h3v1h-3zM45 59h3v1h-3zM44 60h3v1h-3zM43 61h3v1h-3zM42 62h3v1h-3zM41 63h3v1h-3zM40 64h3v1h-3zM39 65h3v1h-3zM38 66h3v1h-3zM37 67h3v1h-3zM36 68h3v1h-3zM35 69h4v1h-4zM35 70h3v1h-3zM34 71h3v1h-3zM33 72h3v1h-3zM32 73h3v1h-3zM31 74h3v1h-3zM30 75h3v1h-3zM29 76h3v1h-3zM28 77h3v1h-3zM27 78h3v1h-3zM26 79h3v1h-3zM26 80h2v1h-2zM26 81h1v1h-1z" /><path fill="#ffd848" d="M82 26h1v1h-1zM81 27h1v1h-1zM80 28h1v1h-1zM79 29h1v1h-1zM78 30h1v1h-1zM56 51h3v1h-3zM52 58h1v1h-1zM51 59h1v1h-1zM50 60h1v1h-1zM49 61h1v1h-1zM48 62h1v1h-1zM47 63h1v1h-1zM46 64h1v1h-1zM45 65h1v1h-1zM44 66h1v1h-1zM43 67h1v1h-1zM34 77h1v1h-1zM33 78h1v1h-1zM32 79h1v1h-1zM31 80h1v1h-1zM30 81h1v1h-1zM29 82h1v1h-1zM28 83h1v1h-1zM27 84h1v1h-1zM26 85h1v1h-1z" /><path fill="#ffd445" d="M90 26h1v1h-1zM91 28h2v1h-2zM90 29h2v1h-2zM89 30h2v1h-2zM88 31h2v1h-2zM88 32h1v1h-1zM87 33h1v1h-1zM86 34h1v1h-1zM85 35h1v1h-1zM84 36h1v1h-1zM83 37h1v1h-1zM82 38h1v1h-1zM81 39h1v1h-1zM77 40h1v1h-1zM80 40h1v1h-1zM79 41h1v1h-1zM78 42h1v1h-1zM76 43h2v1h-2zM76 44h1v1h-1zM75 46h1v1h-1zM74 47h1v1h-1zM72 48h2v1h-2zM72 49h1v1h-1zM70 50h2v1h-2zM70 51h1v1h-1zM69 52h1v1h-1zM68 53h1v1h-1zM67 54h1v1h-1zM66 55h1v1h-1zM65 56h1v1h-1zM64 57h1v1h-1zM63 58h1v1h-1zM62 59h1v1h-1zM61 60h1v1h-1zM60 61h1v1h-1zM59 62h1v1h-1zM58 63h1v1h-1zM57 64h2v1h-2zM56 65h2v1h-2zM55 66h2v1h-2zM54 67h2v1h-2zM53 68h2v1h-2zM53 69h1v1h-1zM52 70h1v1h-1zM51 71h1v1h-1zM50 72h1v1h-1zM48 74h1v1h-1zM47 75h1v1h-1zM46 76h1v1h-1zM45 77h1v1h-1zM44 78h1v1h-1zM43 79h1v1h-1zM42 80h1v1h-1zM41 81h1v1h-1zM40 82h2v1h-2zM39 83h2v1h-2zM38 84h2v1h-2zM37 85h2v1h-2zM36 86h2v1h-2zM36 87h1v1h-1zM35 88h1v1h-1zM34 89h1v1h-1zM33 90h1v1h-1zM32 91h1v1h-1zM31 92h1v1h-1zM30 93h1v1h-1z" /><path fill="#366c9a" d="M73 27h1v1h-1zM72 28h1v1h-1zM71 29h1v1h-1zM70 30h1v1h-1zM69 31h1v1h-1zM68 32h1v1h-1zM67 33h1v1h-1zM66 34h1v1h-1zM65 35h1v1h-1zM64 36h1v1h-1zM63 37h1v1h-1zM62 38h1v1h-1zM61 39h2v1h-2zM60 40h2v1h-2zM59 41h2v1h-2zM58 42h2v1h-2zM57 43h2v1h-2zM56 44h2v1h-2zM55 45h2v1h-2zM54 46h2v1h-2zM53 47h2v1h-2z" /><path fill="#ffd546" d="M89 27h1v1h-1zM88 28h2v1h-2zM87 29h2v1h-2zM86 30h2v1h-2zM85 31h2v1h-2zM84 32h2v1h-2zM83 33h2v1h-2zM82 34h2v1h-2zM81 35h2v1h-2zM80 36h2v1h-2zM79 37h2v1h-2zM78 38h2v1h-2zM78 39h1v1h-1zM67 51h1v1h-1zM65 52h2v1h-2zM64 53h2v1h-2zM63 54h2v1h-2zM62 55h2v1h-2zM61 56h2v1h-2zM60 57h2v1h-2zM59 58h2v1h-2zM59 59h1v1h-1zM58 60h1v1h-1zM57 61h1v1h-1zM56 62h1v1h-1zM55 63h1v1h-1zM54 64h1v1h-1zM53 65h2v1h-2zM52 66h2v1h-2zM51 67h2v1h-2zM50 68h2v1h-2zM49 69h2v1h-2zM48 70h2v1h-2zM47 71h2v1h-2zM46 72h2v1h-2zM45 73h2v1h-2zM44 74h2v1h-2zM43 75h2v1h-2zM42 76h2v1h-2zM41 77h2v1h-2zM41 78h1v1h-1zM40 79h1v1h-1zM39 80h1v1h-1zM38 81h1v1h-1zM37 82h1v1h-1zM36 83h2v1h-2zM35 84h2v1h-2zM34 85h2v1h-2zM33 86h2v1h-2zM32 87h2v1h-2zM31 88h2v1h-2zM30 89h2v1h-2zM29 90h2v1h-2zM28 91h2v1h-2z" /><path fill="#ffd545" d="M90 27h1v1h-1zM90 28h1v1h-1zM89 29h1v1h-1zM88 30h1v1h-1zM87 31h1v1h-1zM86 32h2v1h-2zM85 33h2v1h-2zM84 34h2v1h-2zM83 35h2v1h-2zM82 36h2v1h-2zM81 37h2v1h-2zM77 38h1v1h-1zM80 38h2v1h-2zM79 39h2v1h-2zM78 40h2v1h-2zM77 41h2v1h-2zM76 42h2v1h-2zM69 50h1v1h-1zM68 51h2v1h-2zM67 52h2v1h-2zM66 53h2v1h-2zM65 54h2v1h-2zM64 55h2v1h-2zM63 56h2v1h-2zM62 57h2v1h-2zM61 58h2v1h-2zM60 59h2v1h-2zM59 60h2v1h-2zM58 61h2v1h-2zM57 62h2v1h-2zM56 63h2v1h-2zM55 64h2v1h-2zM55 65h1v1h-1zM54 66h1v1h-1zM53 67h1v1h-1zM52 68h1v1h-1zM51 69h2v1h-2zM50 70h2v1h-2zM49 71h2v1h-2zM48 72h2v1h-2zM47 73h2v1h-2zM46 74h2v1h-2zM45 75h2v1h-2zM44 76h2v1h-2zM43 77h2v1h-2zM42 78h2v1h-2zM41 79h2v1h-2zM40 80h2v1h-2zM39 81h2v1h-2zM38 82h2v1h-2zM38 83h1v1h-1zM37 84h1v1h-1zM36 85h1v1h-1zM35 86h1v1h-1zM34 87h2v1h-2zM33 88h2v1h-2zM32 89h2v1h-2zM31 90h2v1h-2zM27 91h1v1h-1zM30 91h2v1h-2zM29 92h2v1h-2z" /><path fill="#ffd544" d="M91 27h1v1h-1z" /><path fill="#366c99" d="M73 28h1v1h-1zM72 29h2v1h-2zM71 30h3v1h-3zM70 31h3v1h-3zM69 32h3v1h-3zM68 33h3v1h-3zM67 34h3v1h-3zM66 35h3v1h-3zM65 36h3v1h-3zM64 37h3v1h-3zM63 38h3v1h-3zM63 39h2v1h-2zM62 40h2v1h-2zM61 41h2v1h-2zM60 42h2v1h-2zM59 43h2v1h-2zM58 44h2v1h-2zM57 45h2v1h-2zM56 46h2v1h-2zM55 47h2v1h-2z" /><path fill="#ffd749" d="M77 28h1v1h-1zM77 29h1v1h-1zM77 30h1v1h-1zM77 31h1v1h-1z" /><path fill="#ffd343" d="M93 28h1v1h-1zM93 31h2v1h-2zM92 32h2v1h-2zM91 33h3v1h-3zM90 34h3v1h-3zM89 35h3v1h-3zM88 36h3v1h-3zM87 37h3v1h-3zM86 38h3v1h-3zM85 39h3v1h-3zM84 40h3v1h-3zM83 41h3v1h-3zM82 42h3v1h-3zM81 43h3v1h-3zM80 44h3v1h-3zM80 45h2v1h-2zM79 46h2v1h-2zM78 47h2v1h-2zM77 48h2v1h-2zM76 49h2v1h-2zM75 50h2v1h-2zM74 51h3v1h-3zM73 52h3v1h-3zM72 53h3v1h-3zM71 54h3v1h-3zM70 55h3v1h-3zM69 56h3v1h-3zM68 57h3v1h-3zM67 58h3v1h-3zM66 59h3v1h-3zM65 60h3v1h-3zM64 61h3v1h-3zM63 62h3v1h-3zM63 63h2v1h-2zM62 64h2v1h-2zM61 65h2v1h-2zM60 66h2v1h-2zM59 67h2v1h-2zM58 68h2v1h-2zM57 69h2v1h-2zM56 70h3v1h-3zM55 71h3v1h-3zM54 72h3v1h-3zM50 73h6v1h-6zM50 77h2v1h-2zM48 78h3v1h-3zM47 79h3v1h-3zM46 80h3v1h-3zM46 81h2v1h-2zM45 82h2v1h-2zM44 83h2v1h-2zM43 84h2v1h-2zM42 85h2v1h-2zM41 86h2v1h-2zM40 87h2v1h-2zM39 88h3v1h-3zM38 89h3v1h-3zM37 90h3v1h-3zM36 91h3v1h-3zM35 92h3v1h-3zM34 93h3v1h-3zM33 94h3v1h-3zM32 95h3v1h-3z" /><path fill="#ffd444" d="M92 29h2v1h-2zM91 30h2v1h-2zM90 31h2v1h-2zM89 32h2v1h-2zM88 33h2v1h-2zM87 34h2v1h-2zM86 35h2v1h-2zM85 36h2v1h-2zM84 37h2v1h-2zM83 38h2v1h-2zM82 39h2v1h-2zM81 40h2v1h-2zM80 41h2v1h-2zM79 42h3v1h-3zM78 43h3v1h-3zM77 44h3v1h-3zM75 45h4v1h-4zM76 46h2v1h-2zM75 47h2v1h-2zM74 48h2v1h-2zM73 49h2v1h-2zM72 50h2v1h-2zM71 51h2v1h-2zM70 52h2v1h-2zM69 53h2v1h-2zM68 54h2v1h-2zM67 55h2v1h-2zM66 56h2v1h-2zM65 57h2v1h-2zM64 58h2v1h-2zM63 59h2v1h-2zM62 60h3v1h-3zM61 61h3v1h-3zM60 62h3v1h-3zM59 63h3v1h-3zM59 64h2v1h-2zM58 65h2v1h-2zM57 66h2v1h-2zM56 67h2v1h-2zM55 68h2v1h-2zM54 69h2v1h-2zM53 70h2v1h-2zM52 71h2v1h-2zM51 72h2v1h-2zM48 75h1v1h-1zM47 76h2v1h-2zM46 77h2v1h-2zM45 78h3v1h-3zM44 79h3v1h-3zM43 80h3v1h-3zM42 81h3v1h-3zM42 82h2v1h-2zM41 83h2v1h-2zM40 84h2v1h-2zM39 85h2v1h-2zM38 86h2v1h-2zM37 87h2v1h-2zM36 88h2v1h-2zM35 89h2v1h-2zM34 90h2v1h-2zM33 91h2v1h-2zM32 92h2v1h-2zM29 93h1v1h-1zM31 93h2v1h-2zM30 94h2v1h-2z" /><path fill="#ffd344" d="M93 30h1v1h-1zM92 31h1v1h-1zM91 32h1v1h-1zM90 33h1v1h-1zM89 34h1v1h-1zM88 35h1v1h-1zM87 36h1v1h-1zM86 37h1v1h-1zM85 38h1v1h-1zM84 39h1v1h-1zM83 40h1v1h-1zM82 41h1v1h-1zM79 45h1v1h-1zM78 46h1v1h-1zM77 47h1v1h-1zM76 48h1v1h-1zM71 49h1v1h-1zM75 49h1v1h-1zM74 50h1v1h-1zM73 51h1v1h-1zM72 52h1v1h-1zM71 53h1v1h-1zM70 54h1v1h-1zM69 55h1v1h-1zM68 56h1v1h-1zM67 57h1v1h-1zM66 58h1v1h-1zM65 59h1v1h-1zM62 63h1v1h-1zM61 64h1v1h-1zM60 65h1v1h-1zM59 66h1v1h-1zM58 67h1v1h-1zM57 68h1v1h-1zM56 69h1v1h-1zM55 70h1v1h-1zM54 71h1v1h-1zM53 72h1v1h-1zM49 74h1v1h-1zM49 75h1v1h-1zM48 77h1v1h-1zM45 81h1v1h-1zM44 82h1v1h-1zM43 83h1v1h-1zM42 84h1v1h-1zM41 85h1v1h-1zM40 86h1v1h-1zM39 87h1v1h-1zM38 88h1v1h-1zM37 89h1v1h-1zM36 90h1v1h-1zM35 91h1v1h-1zM34 92h1v1h-1zM33 93h1v1h-1zM32 94h1v1h-1z" /><path fill="#ffd242" d="M94 30h1v1h-1zM95 32h1v1h-1zM94 33h2v1h-2zM93 34h3v1h-3zM92 35h3v1h-3zM91 36h3v1h-3zM90 37h3v1h-3zM89 38h3v1h-3zM88 39h3v1h-3zM87 40h3v1h-3zM86 41h3v1h-3zM85 42h3v1h-3zM84 43h4v1h-4zM84 44h3v1h-3zM83 45h3v1h-3zM82 46h3v1h-3zM81 47h3v1h-3zM80 48h3v1h-3zM79 49h3v1h-3zM78 50h3v1h-3zM77 51h3v1h-3zM76 52h3v1h-3zM75 53h3v1h-3zM74 54h3v1h-3zM73 55h3v1h-3zM72 56h3v1h-3zM71 57h3v1h-3zM70 58h3v1h-3zM69 59h3v1h-3zM68 60h3v1h-3zM67 61h4v1h-4zM67 62h3v1h-3zM66 63h3v1h-3zM65 64h3v1h-3zM64 65h3v1h-3zM63 66h3v1h-3zM62 67h3v1h-3zM61 68h3v1h-3zM60 69h3v1h-3zM59 70h3v1h-3zM58 71h3v1h-3zM57 72h3v1h-3zM56 73h3v1h-3zM49 77h1v1h-1zM52 77h3v1h-3zM51 78h3v1h-3zM50 79h4v1h-4zM50 80h3v1h-3zM49 81h3v1h-3zM48 82h3v1h-3zM47 83h3v1h-3zM46 84h3v1h-3zM45 85h3v1h-3zM44 86h3v1h-3zM43 87h3v1h-3zM42 88h3v1h-3zM41 89h3v1h-3zM40 90h3v1h-3zM39 91h3v1h-3zM38 92h3v1h-3zM37 93h3v1h-3zM36 94h3v1h-3zM35 95h3v1h-3zM35 96h2v1h-2z" /><path fill="#366c98" d="M73 31h1v1h-1zM72 32h1v1h-1zM71 33h1v1h-1zM70 34h1v1h-1zM69 35h1v1h-1zM68 36h1v1h-1zM67 37h1v1h-1zM66 38h1v1h-1zM65 39h1v1h-1zM64 40h1v1h-1zM63 41h1v1h-1zM62 42h1v1h-1zM61 43h1v1h-1zM60 44h1v1h-1zM59 45h1v1h-1zM58 46h1v1h-1zM57 47h1v1h-1z" /><path fill="#ffd243" d="M95 31h1v1h-1zM94 32h1v1h-1zM83 44h1v1h-1zM82 45h1v1h-1zM81 46h1v1h-1zM80 47h1v1h-1zM79 48h1v1h-1zM78 49h1v1h-1zM77 50h1v1h-1zM66 62h1v1h-1zM65 63h1v1h-1zM64 64h1v1h-1zM63 65h1v1h-1zM62 66h1v1h-1zM61 67h1v1h-1zM60 68h1v1h-1zM59 69h1v1h-1zM49 80h1v1h-1zM48 81h1v1h-1zM47 82h1v1h-1zM46 83h1v1h-1zM45 84h1v1h-1zM44 85h1v1h-1zM43 86h1v1h-1zM42 87h1v1h-1zM33 96h1v1h-1z" /><path fill="#366b98" d="M73 32h1v1h-1zM72 33h2v1h-2zM71 34h2v1h-2zM70 35h2v1h-2zM69 36h2v1h-2zM68 37h2v1h-2zM67 38h2v1h-2zM66 39h2v1h-2zM65 40h2v1h-2zM64 41h2v1h-2zM63 42h2v1h-2zM62 43h2v1h-2zM61 44h2v1h-2zM60 45h2v1h-2zM59 46h2v1h-2zM58 47h2v1h-2z" /><path fill="#ffd241" d="M96 32h1v1h-1zM96 33h1v1h-1z" /><path fill="#377ab1" d="M3 34h1v1h-1zM2 36h1v1h-1z" /><path fill="#366b97" d="M73 34h1v1h-1zM72 35h2v1h-2zM71 36h2v1h-2zM70 37h2v1h-2zM69 38h2v1h-2zM68 39h2v1h-2zM67 40h2v1h-2zM66 41h3v1h-3zM65 42h3v1h-3zM64 43h3v1h-3zM63 44h3v1h-3zM62 45h3v1h-3zM61 46h3v1h-3zM60 47h3v1h-3z" /><path fill="#ffd141" d="M96 34h1v1h-1zM95 35h3v1h-3zM94 36h3v1h-3zM93 37h3v1h-3zM92 38h3v1h-3zM91 39h3v1h-3zM90 40h3v1h-3zM89 41h3v1h-3zM88 42h4v1h-4zM88 43h3v1h-3zM87 44h3v1h-3zM86 45h3v1h-3zM85 46h3v1h-3zM84 47h3v1h-3zM83 48h3v1h-3zM82 49h3v1h-3zM81 50h3v1h-3zM80 51h3v1h-3zM79 52h3v1h-3zM78 53h3v1h-3zM77 54h3v1h-3zM76 55h3v1h-3zM75 56h3v1h-3zM74 57h3v1h-3zM73 58h3v1h-3zM72 59h3v1h-3zM71 60h4v1h-4zM71 61h3v1h-3zM70 62h3v1h-3zM69 63h3v1h-3zM68 64h3v1h-3zM67 65h3v1h-3zM66 66h3v1h-3zM65 67h3v1h-3zM64 68h3v1h-3zM63 69h3v1h-3zM62 70h3v1h-3zM61 71h3v1h-3zM60 72h3v1h-3zM54 78h4v1h-4zM54 79h3v1h-3zM53 80h3v1h-3zM52 81h3v1h-3zM51 82h3v1h-3zM50 83h3v1h-3zM49 84h3v1h-3zM48 85h3v1h-3zM47 86h3v1h-3zM46 87h3v1h-3zM45 88h3v1h-3zM44 89h3v1h-3zM43 90h3v1h-3zM42 91h3v1h-3zM41 92h3v1h-3zM40 93h3v1h-3zM39 94h3v1h-3zM38 95h3v1h-3zM34 96h1v1h-1zM37 96h3v1h-3zM38 97h2v1h-2z" /><path fill="#366a97" d="M73 36h1v1h-1zM72 37h1v1h-1zM71 38h1v1h-1zM70 39h1v1h-1zM69 40h1v1h-1z" /><path fill="#ffd140" d="M97 36h1v1h-1zM96 37h1v1h-1zM95 38h1v1h-1zM94 39h1v1h-1zM93 40h1v1h-1zM92 41h1v1h-1zM82 52h1v1h-1zM81 53h1v1h-1zM80 54h1v1h-1zM79 55h1v1h-1zM78 56h1v1h-1zM77 57h1v1h-1zM76 58h1v1h-1zM75 59h1v1h-1zM64 71h1v1h-1zM63 72h1v1h-1zM47 89h1v1h-1zM46 90h1v1h-1zM45 91h1v1h-1zM44 92h1v1h-1zM43 93h1v1h-1zM42 94h1v1h-1zM41 95h1v1h-1zM40 96h1v1h-1z" /><path fill="#356996" d="M73 37h1v1h-1z" /><path fill="#ffd547" d="M77 37h1v1h-1zM63 51h2v1h-2z" /><path fill="#ffd040" d="M97 37h1v1h-1zM96 38h2v1h-2zM95 39h2v1h-2zM94 40h2v1h-2zM93 41h3v1h-3zM92 42h3v1h-3zM91 43h3v1h-3zM90 44h3v1h-3zM89 45h3v1h-3zM88 46h3v1h-3zM87 47h3v1h-3zM86 48h3v1h-3zM85 49h3v1h-3zM84 50h3v1h-3zM83 51h3v1h-3zM83 52h2v1h-2zM82 53h2v1h-2zM81 54h2v1h-2zM80 55h2v1h-2zM79 56h2v1h-2zM78 57h2v1h-2zM77 58h2v1h-2zM76 59h3v1h-3zM75 60h3v1h-3zM74 61h3v1h-3zM73 62h3v1h-3zM72 63h3v1h-3zM71 64h3v1h-3zM70 65h3v1h-3zM69 66h3v1h-3zM68 67h3v1h-3zM67 68h3v1h-3zM66 69h3v1h-3zM65 70h3v1h-3zM65 71h2v1h-2zM64 72h2v1h-2zM59 73h6v1h-6zM58 77h1v1h-1zM58 78h3v1h-3zM57 79h3v1h-3zM56 80h3v1h-3zM55 81h3v1h-3zM54 82h3v1h-3zM53 83h3v1h-3zM52 84h3v1h-3zM51 85h3v1h-3zM50 86h3v1h-3zM49 87h3v1h-3zM48 88h3v1h-3zM48 89h2v1h-2zM47 90h2v1h-2zM46 91h2v1h-2zM45 92h2v1h-2zM44 93h2v1h-2zM43 94h2v1h-2zM42 95h2v1h-2zM41 96h3v1h-3zM37 97h1v1h-1zM40 97h3v1h-3z" /><path fill="#ffcf40" d="M98 37h1v1h-1zM59 77h3v1h-3zM41 98h1v1h-1z" /><path fill="#366a96" d="M72 38h1v1h-1zM71 39h2v1h-2zM70 40h2v1h-2zM69 41h2v1h-2zM68 42h2v1h-2zM67 43h2v1h-2zM66 44h2v1h-2zM65 45h2v1h-2zM64 46h2v1h-2z" /><path fill="#356a95" d="M73 38h1v1h-1zM63 47h1v1h-1z" /><path fill="#ffd03f" d="M98 38h1v1h-1zM97 39h1v1h-1zM96 40h1v1h-1zM93 44h1v1h-1zM92 45h1v1h-1zM91 46h1v1h-1zM90 47h1v1h-1zM89 48h1v1h-1zM88 49h1v1h-1zM87 50h1v1h-1zM86 51h1v1h-1zM85 52h1v1h-1zM84 53h1v1h-1zM83 54h1v1h-1zM82 55h1v1h-1zM81 56h1v1h-1zM80 57h1v1h-1zM79 58h1v1h-1zM76 62h1v1h-1zM75 63h1v1h-1zM74 64h1v1h-1zM73 65h1v1h-1zM72 66h1v1h-1zM71 67h1v1h-1zM70 68h1v1h-1zM69 69h1v1h-1zM68 70h1v1h-1zM67 71h1v1h-1zM66 72h1v1h-1zM65 73h1v1h-1zM59 80h1v1h-1zM58 81h1v1h-1zM57 82h1v1h-1zM56 83h1v1h-1zM55 84h1v1h-1zM54 85h1v1h-1zM53 86h1v1h-1zM52 87h1v1h-1zM51 88h1v1h-1zM50 89h1v1h-1zM49 90h1v1h-1zM48 91h1v1h-1zM47 92h1v1h-1zM46 93h1v1h-1zM45 94h1v1h-1zM44 95h1v1h-1z" /><path fill="#356a94" d="M73 39h1v1h-1zM67 46h1v1h-1z" /><path fill="#ffd446" d="M77 39h1v1h-1zM68 50h1v1h-1zM66 51h1v1h-1zM28 92h1v1h-1z" /><path fill="#ffcf3f" d="M98 39h1v1h-1zM97 40h2v1h-2zM96 41h3v1h-3zM95 42h3v1h-3zM94 43h3v1h-3zM94 44h2v1h-2zM93 45h2v1h-2zM92 46h2v1h-2zM91 47h2v1h-2zM90 48h2v1h-2zM89 49h2v1h-2zM88 50h2v1h-2zM87 51h2v1h-2zM86 52h2v1h-2zM85 53h2v1h-2zM84 54h2v1h-2zM83 55h2v1h-2zM82 56h2v1h-2zM81 57h2v1h-2zM80 58h3v1h-3zM79 59h3v1h-3zM78 60h3v1h-3zM77 61h3v1h-3zM77 62h2v1h-2zM76 63h2v1h-2zM75 64h2v1h-2zM74 65h2v1h-2zM73 66h2v1h-2zM72 67h2v1h-2zM71 68h2v1h-2zM70 69h2v1h-2zM69 70h2v1h-2zM68 71h2v1h-2zM67 72h2v1h-2zM66 73h2v1h-2zM61 78h3v1h-3zM60 79h3v1h-3zM60 80h2v1h-2zM59 81h2v1h-2zM58 82h2v1h-2zM57 83h2v1h-2zM56 84h2v1h-2zM55 85h2v1h-2zM54 86h2v1h-2zM53 87h2v1h-2zM52 88h2v1h-2zM51 89h2v1h-2zM50 90h2v1h-2zM49 91h2v1h-2zM48 92h2v1h-2zM47 93h2v1h-2zM46 94h2v1h-2zM45 95h3v1h-3zM44 96h3v1h-3zM43 97h3v1h-3zM40 98h1v1h-1zM43 98h2v1h-2z" /><path fill="#366a95" d="M72 40h1v1h-1zM71 41h1v1h-1zM70 42h1v1h-1zM69 43h2v1h-2zM68 44h2v1h-2zM67 45h1v1h-1z" /><path fill="#356995" d="M72 41h1v1h-1zM66 46h1v1h-1z" /><path fill="#366995" d="M71 42h1v1h-1zM68 45h1v1h-1zM64 47h1v1h-1z" /><path fill="#ffcf3e" d="M98 42h1v1h-1zM97 43h1v1h-1zM96 44h1v1h-1zM95 45h1v1h-1zM94 46h1v1h-1zM93 47h1v1h-1zM92 48h1v1h-1zM91 49h1v1h-1zM90 50h1v1h-1zM89 51h1v1h-1zM88 52h1v1h-1zM87 53h2v1h-2zM86 54h2v1h-2zM85 55h2v1h-2zM84 56h2v1h-2zM83 57h2v1h-2zM83 58h1v1h-1zM82 59h1v1h-1zM81 60h1v1h-1zM80 61h1v1h-1zM79 62h1v1h-1zM78 63h1v1h-1zM77 64h1v1h-1zM76 65h1v1h-1zM75 66h1v1h-1zM74 67h1v1h-1zM73 68h1v1h-1zM72 69h1v1h-1zM71 70h1v1h-1zM70 71h1v1h-1zM69 72h2v1h-2zM64 78h1v1h-1zM63 79h1v1h-1zM62 80h1v1h-1zM61 81h1v1h-1zM60 82h1v1h-1zM59 83h1v1h-1zM58 84h1v1h-1zM57 85h1v1h-1zM56 86h1v1h-1zM55 87h1v1h-1zM54 88h1v1h-1zM53 89h1v1h-1zM52 90h2v1h-2zM51 91h2v1h-2zM50 92h2v1h-2zM49 93h2v1h-2zM48 94h2v1h-2zM48 95h1v1h-1zM47 96h1v1h-1zM46 97h1v1h-1zM42 98h1v1h-1zM45 98h1v1h-1z" /><path fill="#ffcd3d" d="M99 42h1v1h-1zM99 45h1v1h-1zM98 47h1v1h-1zM97 48h1v1h-1zM96 49h1v1h-1zM95 50h1v1h-1zM94 51h1v1h-1zM93 52h1v1h-1zM92 53h1v1h-1zM91 54h1v1h-1zM90 55h1v1h-1zM89 56h2v1h-2zM88 57h2v1h-2zM87 58h2v1h-2zM86 59h2v1h-2zM85 60h2v1h-2zM84 61h2v1h-2zM83 62h2v1h-2zM83 63h1v1h-1zM82 64h1v1h-1zM81 65h1v1h-1zM80 66h1v1h-1zM79 67h1v1h-1zM78 68h1v1h-1zM77 69h1v1h-1zM76 70h1v1h-1zM75 71h1v1h-1zM74 72h1v1h-1zM70 73h4v1h-4zM68 77h1v1h-1zM68 78h2v1h-2zM67 79h2v1h-2zM66 80h2v1h-2zM66 81h1v1h-1zM65 82h1v1h-1zM58 89h1v1h-1zM57 90h1v1h-1zM56 91h1v1h-1zM55 92h1v1h-1zM54 93h2v1h-2zM53 94h2v1h-2zM52 95h2v1h-2zM51 96h2v1h-2zM50 97h2v1h-2zM49 98h2v1h-2z" /><path fill="#ffce3e" d="M98 43h1v1h-1zM97 44h2v1h-2zM96 45h2v1h-2zM95 46h2v1h-2zM94 47h2v1h-2zM93 48h2v1h-2zM92 49h2v1h-2zM91 50h2v1h-2zM90 51h2v1h-2zM89 52h2v1h-2zM89 53h1v1h-1zM88 54h1v1h-1zM87 55h1v1h-1zM86 56h1v1h-1zM85 57h2v1h-2zM84 58h2v1h-2zM83 59h2v1h-2zM82 60h2v1h-2zM81 61h2v1h-2zM80 62h2v1h-2zM79 63h2v1h-2zM78 64h2v1h-2zM77 65h2v1h-2zM76 66h2v1h-2zM75 67h2v1h-2zM74 68h2v1h-2zM73 69h2v1h-2zM72 70h2v1h-2zM71 71h2v1h-2zM71 72h1v1h-1zM65 77h1v1h-1zM65 78h2v1h-2zM64 79h2v1h-2zM63 80h2v1h-2zM62 81h2v1h-2zM61 82h2v1h-2zM60 83h1v1h-1zM59 84h1v1h-1zM58 85h1v1h-1zM57 86h2v1h-2zM56 87h2v1h-2zM55 88h2v1h-2zM54 89h2v1h-2zM54 90h1v1h-1zM53 91h1v1h-1zM52 92h1v1h-1zM51 93h1v1h-1zM50 94h2v1h-2zM49 95h2v1h-2zM48 96h2v1h-2zM47 97h2v1h-2zM46 98h2v1h-2z" /><path fill="#ffcd3e" d="M99 43h1v1h-1zM66 77h2v1h-2zM61 83h1v1h-1zM59 85h1v1h-1z" /><path fill="#356895" d="M70 44h1v1h-1z" /><path fill="#ffce3d" d="M99 44h1v1h-1zM98 45h1v1h-1zM97 46h2v1h-2zM96 47h2v1h-2zM95 48h2v1h-2zM94 49h2v1h-2zM93 50h2v1h-2zM92 51h2v1h-2zM91 52h2v1h-2zM90 53h2v1h-2zM89 54h2v1h-2zM88 55h2v1h-2zM87 56h2v1h-2zM87 57h1v1h-1zM86 58h1v1h-1zM85 59h1v1h-1zM84 60h1v1h-1zM83 61h1v1h-1zM82 62h1v1h-1zM81 63h2v1h-2zM80 64h2v1h-2zM79 65h2v1h-2zM78 66h2v1h-2zM77 67h2v1h-2zM76 68h2v1h-2zM75 69h2v1h-2zM74 70h2v1h-2zM73 71h2v1h-2zM72 72h2v1h-2zM67 78h1v1h-1zM66 79h1v1h-1zM65 80h1v1h-1zM64 81h2v1h-2zM63 82h2v1h-2zM60 84h1v1h-1zM58 87h1v1h-1zM57 88h2v1h-2zM56 89h2v1h-2zM55 90h2v1h-2zM54 91h2v1h-2zM53 92h2v1h-2zM52 93h2v1h-2zM52 94h1v1h-1zM51 95h1v1h-1zM50 96h1v1h-1zM49 97h1v1h-1zM48 98h1v1h-1z" /><path fill="#ffd345" d="M74 46h1v1h-1zM73 47h1v1h-1zM49 73h1v1h-1z" /><path fill="#ffcc3d" d="M99 46h1v1h-1zM69 77h2v1h-2z" /><path fill="#ffcc3c" d="M99 47h1v1h-1zM98 50h1v1h-1zM97 51h1v1h-1zM96 52h1v1h-1zM95 53h1v1h-1zM94 55h1v1h-1zM93 56h1v1h-1zM92 57h1v1h-1zM91 58h1v1h-1zM90 59h1v1h-1zM89 60h1v1h-1zM88 61h1v1h-1zM87 62h1v1h-1zM86 63h1v1h-1zM85 64h1v1h-1zM84 65h1v1h-1zM83 66h1v1h-1zM82 67h1v1h-1zM81 68h1v1h-1zM80 69h1v1h-1zM79 70h1v1h-1zM78 71h1v1h-1zM77 72h1v1h-1zM77 73h1v1h-1zM71 77h2v1h-2zM72 78h1v1h-1zM71 79h1v1h-1zM70 80h1v1h-1zM69 81h1v1h-1zM68 82h1v1h-1zM67 83h1v1h-1zM59 92h1v1h-1zM58 93h1v1h-1zM57 94h1v1h-1zM56 95h1v1h-1zM55 96h1v1h-1zM54 97h1v1h-1zM53 98h1v1h-1z" /><path fill="#3671a1" d="M31 48h1v1h-1zM27 50h1v1h-1z" /><path fill="#ffcd3c" d="M98 48h2v1h-2zM97 49h2v1h-2zM96 50h2v1h-2zM95 51h2v1h-2zM94 52h2v1h-2zM93 53h2v1h-2zM92 54h3v1h-3zM91 55h3v1h-3zM91 56h2v1h-2zM90 57h2v1h-2zM89 58h2v1h-2zM88 59h2v1h-2zM87 60h2v1h-2zM86 61h2v1h-2zM85 62h2v1h-2zM84 63h2v1h-2zM83 64h2v1h-2zM82 65h2v1h-2zM81 66h2v1h-2zM80 67h2v1h-2zM79 68h2v1h-2zM78 69h2v1h-2zM77 70h2v1h-2zM76 71h2v1h-2zM75 72h2v1h-2zM74 73h3v1h-3zM70 78h2v1h-2zM69 79h2v1h-2zM68 80h2v1h-2zM67 81h2v1h-2zM66 82h2v1h-2zM59 88h1v1h-1zM58 90h2v1h-2zM57 91h3v1h-3zM56 92h3v1h-3zM56 93h2v1h-2zM55 94h2v1h-2zM54 95h2v1h-2zM53 96h2v1h-2zM52 97h2v1h-2zM51 98h2v1h-2z" /><path fill="#3677ad" d="M0 49h1v1h-1z" /><path fill="#3770a2" d="M29 49h1v1h-1zM24 54h1v1h-1z" /><path fill="#ffcc3b" d="M99 49h1v1h-1zM98 51h1v1h-1zM97 52h3v1h-3zM96 53h3v1h-3zM95 54h3v1h-3zM95 55h2v1h-2zM94 56h2v1h-2zM93 57h2v1h-2zM92 58h2v1h-2zM91 59h2v1h-2zM90 60h2v1h-2zM89 61h2v1h-2zM88 62h2v1h-2zM87 63h2v1h-2zM86 64h3v1h-3zM85 65h3v1h-3zM84 66h3v1h-3zM83 67h3v1h-3zM82 68h3v1h-3zM81 69h3v1h-3zM80 70h3v1h-3zM79 71h3v1h-3zM78 72h3v1h-3zM73 78h1v1h-1zM72 79h2v1h-2zM71 80h2v1h-2zM70 81h2v1h-2zM69 82h3v1h-3zM66 83h1v1h-1zM68 83h3v1h-3zM68 84h2v1h-2zM68 85h1v1h-1zM59 89h1v1h-1zM60 90h1v1h-1zM60 91h2v1h-2zM60 92h2v1h-2zM59 93h2v1h-2zM58 94h2v1h-2zM57 95h2v1h-2zM56 96h2v1h-2zM55 97h2v1h-2zM54 98h2v1h-2z" /><path fill="#ffcb3a" d="M99 50h1v1h-1zM99 51h1v1h-1zM98 55h1v1h-1zM97 56h2v1h-2zM96 57h3v1h-3zM95 58h3v1h-3zM94 59h3v1h-3zM93 60h3v1h-3zM92 61h3v1h-3zM91 62h3v1h-3zM90 63h3v1h-3zM89 64h3v1h-3zM88 65h3v1h-3zM87 66h3v1h-3zM86 67h3v1h-3zM85 68h3v1h-3zM84 69h3v1h-3zM83 70h3v1h-3zM82 71h3v1h-3zM81 72h3v1h-3zM73 81h1v1h-1zM72 82h2v1h-2zM71 83h3v1h-3zM67 84h1v1h-1zM70 84h3v1h-3zM69 85h3v1h-3zM69 86h2v1h-2zM69 87h1v1h-1zM65 91h1v1h-1zM63 92h3v1h-3zM62 93h3v1h-3zM61 94h3v1h-3zM60 95h3v1h-3zM59 96h3v1h-3zM58 97h3v1h-3zM57 98h1v1h-1z" /><path fill="#ffde4f" d="M37 51h1v1h-1zM33 52h1v1h-1zM36 52h1v1h-1zM32 53h1v1h-1zM35 53h1v1h-1zM34 54h1v1h-1zM33 55h1v1h-1zM32 56h2v1h-2zM32 57h1v1h-1zM31 58h1v1h-1zM30 59h1v1h-1zM29 60h1v1h-1zM28 61h1v1h-1zM27 62h1v1h-1zM26 63h1v1h-1z" /><path fill="#ffdc4e" d="M38 51h1v1h-1zM41 52h1v1h-1zM40 53h1v1h-1zM39 54h1v1h-1zM38 55h2v1h-2zM37 56h2v1h-2zM36 57h2v1h-2zM35 58h2v1h-2zM34 59h2v1h-2zM33 60h2v1h-2zM32 61h2v1h-2zM31 62h2v1h-2zM30 63h2v1h-2zM29 64h2v1h-2zM29 65h1v1h-1zM28 66h1v1h-1zM27 67h1v1h-1zM26 68h1v1h-1z" /><path fill="#ffdc4f" d="M39 51h1v1h-1z" /><path fill="#ffdd4d" d="M40 51h2v1h-2z" /><path fill="#ffdc4d" d="M42 51h3v1h-3zM42 52h2v1h-2zM41 53h2v1h-2zM40 54h2v1h-2zM40 55h1v1h-1zM39 56h1v1h-1zM38 57h2v1h-2zM37 58h2v1h-2zM36 59h2v1h-2zM35 60h2v1h-2zM34 61h2v1h-2zM33 62h2v1h-2zM32 63h2v1h-2zM31 64h2v1h-2zM30 65h2v1h-2zM29 66h2v1h-2zM28 67h2v1h-2zM27 68h2v1h-2zM26 69h2v1h-2zM26 70h1v1h-1z" /><path fill="#ffda4d" d="M45 51h1v1h-1z" /><path fill="#ffda4c" d="M46 51h3v1h-3zM47 53h1v1h-1zM46 54h1v1h-1zM45 55h1v1h-1zM44 56h1v1h-1zM43 57h1v1h-1zM42 58h1v1h-1zM41 59h1v1h-1zM40 60h1v1h-1zM39 61h1v1h-1zM38 62h1v1h-1zM37 63h1v1h-1zM36 64h1v1h-1zM35 65h1v1h-1zM30 71h1v1h-1zM29 72h1v1h-1zM28 73h1v1h-1zM27 74h1v1h-1zM26 75h1v1h-1z" /><path fill="#ffd94b" d="M49 51h3v1h-3zM51 52h1v1h-1zM50 53h1v1h-1zM49 54h1v1h-1zM48 55h1v1h-1zM47 56h1v1h-1zM34 70h1v1h-1zM33 71h1v1h-1zM32 72h1v1h-1zM31 73h1v1h-1zM30 74h1v1h-1zM29 75h1v1h-1z" /><path fill="#3677ab" d="M0 52h1v1h-1z" /><path fill="#3671a2" d="M25 52h1v1h-1z" /><path fill="#ffdd4f" d="M34 52h1v1h-1zM37 52h2v1h-2zM36 53h2v1h-2zM35 54h2v1h-2zM34 55h2v1h-2zM34 56h2v1h-2zM33 57h2v1h-2zM32 58h2v1h-2zM31 59h2v1h-2zM30 60h2v1h-2zM29 61h2v1h-2zM28 62h2v1h-2zM27 63h2v1h-2zM26 64h2v1h-2zM26 65h1v1h-1z" /><path fill="#ffde50" d="M35 52h1v1h-1zM33 53h2v1h-2zM32 54h2v1h-2zM31 55h2v1h-2zM30 56h2v1h-2zM29 57h3v1h-3zM28 58h3v1h-3zM27 59h3v1h-3zM26 60h3v1h-3zM26 61h2v1h-2z" /><path fill="#ffdd4e" d="M39 52h2v1h-2zM38 53h2v1h-2zM37 54h2v1h-2zM36 55h2v1h-2zM36 56h1v1h-1zM35 57h1v1h-1zM34 58h1v1h-1zM33 59h1v1h-1zM32 60h1v1h-1zM31 61h1v1h-1zM30 62h1v1h-1zM29 63h1v1h-1zM28 64h1v1h-1zM27 65h2v1h-2zM26 66h2v1h-2zM26 67h1v1h-1z" /><path fill="#ffdb4d" d="M44 52h1v1h-1zM43 53h1v1h-1zM42 54h2v1h-2zM41 55h2v1h-2zM40 56h2v1h-2zM40 57h1v1h-1zM39 58h1v1h-1zM38 59h1v1h-1zM37 60h1v1h-1zM36 61h1v1h-1zM35 62h1v1h-1zM34 63h1v1h-1zM33 64h1v1h-1zM32 65h1v1h-1zM31 66h1v1h-1zM30 67h1v1h-1zM29 68h1v1h-1zM28 69h1v1h-1zM27 70h1v1h-1zM26 71h1v1h-1zM26 72h1v1h-1z" /><path fill="#ffdb4c" d="M45 52h3v1h-3zM44 53h3v1h-3zM44 54h2v1h-2zM43 55h2v1h-2zM42 56h2v1h-2zM41 57h2v1h-2zM40 58h2v1h-2zM39 59h2v1h-2zM38 60h2v1h-2zM37 61h2v1h-2zM36 62h2v1h-2zM35 63h2v1h-2zM34 64h2v1h-2zM33 65h2v1h-2zM32 66h3v1h-3zM31 67h3v1h-3zM30 68h3v1h-3zM29 69h3v1h-3zM28 70h3v1h-3zM27 71h3v1h-3zM27 72h2v1h-2zM26 73h2v1h-2zM26 74h1v1h-1z" /><path fill="#ffda4b" d="M48 52h3v1h-3zM48 53h2v1h-2zM47 54h2v1h-2zM46 55h2v1h-2zM45 56h2v1h-2zM44 57h3v1h-3zM43 58h3v1h-3zM42 59h3v1h-3zM41 60h3v1h-3zM40 61h3v1h-3zM39 62h3v1h-3zM38 63h3v1h-3zM37 64h3v1h-3zM36 65h3v1h-3zM35 66h3v1h-3zM34 67h3v1h-3zM33 68h3v1h-3zM32 69h3v1h-3zM31 70h3v1h-3zM31 71h2v1h-2zM30 72h2v1h-2zM29 73h2v1h-2zM28 74h2v1h-2zM27 75h2v1h-2zM26 76h3v1h-3zM26 77h2v1h-2zM26 78h1v1h-1z" /><path fill="#ffde51" d="M31 53h1v1h-1zM29 55h1v1h-1zM27 58h1v1h-1z" /><path fill="#ffcb39" d="M99 53h1v1h-1zM99 55h1v1h-1zM68 87h1v1h-1z" /><path fill="#ffdf50" d="M30 54h2v1h-2zM30 55h1v1h-1zM29 56h1v1h-1zM28 57h1v1h-1z" /><path fill="#ffcb3b" d="M98 54h1v1h-1zM97 55h1v1h-1zM96 56h1v1h-1zM95 57h1v1h-1zM94 58h1v1h-1zM93 59h1v1h-1zM92 60h1v1h-1zM91 61h1v1h-1zM90 62h1v1h-1zM89 63h1v1h-1zM73 80h1v1h-1zM72 81h1v1h-1zM62 92h1v1h-1zM61 93h1v1h-1zM60 94h1v1h-1zM59 95h1v1h-1zM58 96h1v1h-1zM57 97h1v1h-1zM56 98h1v1h-1z" /><path fill="#ffca3a" d="M99 54h1v1h-1zM99 56h1v1h-1zM84 72h1v1h-1zM80 73h4v1h-4zM68 86h1v1h-1zM68 88h1v1h-1zM67 90h1v1h-1zM58 98h1v1h-1z" /><path fill="#3675aa" d="M0 56h1v1h-1z" /><path fill="#ffdf51" d="M28 56h1v1h-1zM27 57h1v1h-1z" /><path fill="#ffca39" d="M98 58h1v1h-1zM97 59h1v1h-1zM96 60h2v1h-2zM95 61h3v1h-3zM94 62h3v1h-3zM93 63h3v1h-3zM92 64h3v1h-3zM91 65h3v1h-3zM90 66h3v1h-3zM89 67h3v1h-3zM88 68h3v1h-3zM87 69h3v1h-3zM86 70h3v1h-3zM85 71h4v1h-4zM85 72h3v1h-3zM73 84h1v1h-1zM72 85h2v1h-2zM71 86h3v1h-3zM70 87h3v1h-3zM69 88h3v1h-3zM68 89h4v1h-4zM68 90h3v1h-3zM67 91h3v1h-3zM66 92h3v1h-3zM65 93h3v1h-3zM64 94h3v1h-3zM63 95h3v1h-3zM62 96h3v1h-3zM61 97h2v1h-2zM59 98h1v1h-1z" /><path fill="#ffca38" d="M98 59h1v1h-1zM94 65h1v1h-1zM93 66h1v1h-1zM92 67h1v1h-1zM91 68h1v1h-1zM90 69h1v1h-1zM89 70h1v1h-1zM73 87h1v1h-1zM72 88h1v1h-1zM61 98h1v1h-1z" /><path fill="#3670a0" d="M22 60h1v1h-1zM9 72h1v1h-1z" /><path fill="#ffc939" d="M98 60h1v1h-1zM84 73h1v1h-1zM63 97h1v1h-1zM60 98h1v1h-1z" /><path fill="#3674a8" d="M1 61h1v1h-1z" /><path fill="#376fa0" d="M22 62h1v1h-1zM10 73h2v1h-2z" /><path fill="#ffdd50" d="M26 62h1v1h-1z" /><path fill="#ffc938" d="M97 62h1v1h-1zM96 63h2v1h-2zM95 64h2v1h-2zM95 65h2v1h-2zM94 66h2v1h-2zM93 67h2v1h-2zM92 68h2v1h-2zM91 69h2v1h-2zM90 70h2v1h-2zM89 71h1v1h-1zM85 73h1v1h-1zM73 88h1v1h-1zM72 89h2v1h-2zM71 90h2v1h-2zM70 91h3v1h-3zM69 92h3v1h-3zM68 93h3v1h-3zM67 94h3v1h-3zM66 95h3v1h-3zM65 96h2v1h-2zM64 97h1v1h-1z" /><path fill="#36709f" d="M22 63h1v1h-1z" /><path fill="#366f9f" d="M22 64h1v1h-1zM22 65h1v1h-1z" /><path fill="#366f9e" d="M22 66h1v1h-1zM22 67h1v1h-1zM22 68h1v1h-1z" /><path fill="#ffc836" d="M95 67h1v1h-1zM72 92h1v1h-1z" /><path fill="#ffc937" d="M94 68h1v1h-1zM92 70h1v1h-1zM90 71h2v1h-2zM73 90h1v1h-1z" /><path fill="#3671a3" d="M5 69h1v1h-1z" /><path fill="#ffc936" d="M93 69h1v1h-1zM71 93h1v1h-1zM69 95h1v1h-1z" /><path fill="#3671a0" d="M8 72h1v1h-1z" /><path fill="#ffc838" d="M88 72h1v1h-1z" /><path fill="#ffc837" d="M89 72h1v1h-1zM70 94h1v1h-1zM67 96h1v1h-1z" /><path fill="#ffcf3d" d="M68 73h2v1h-2z" /><path fill="#ffcc3a" d="M78 73h2v1h-2z" /><path fill="#ffd244" d="M49 76h1v1h-1zM31 95h1v1h-1z" /><path fill="#ffd041" d="M55 77h3v1h-3zM36 97h1v1h-1z" /><path fill="#ffce3f" d="M62 77h3v1h-3z" /><path fill="#ffcb3c" d="M73 77h1v1h-1z" /><path fill="#ffd746" d="M26 89h1v1h-1z" /><path fill="#ffc93a" d="M66 91h1v1h-1z" /></svg>