<svg xmlns="http://www.w3.org/2000/svg" viewBox="0 0 100 100" width="1em" height="1em"><path fill="#05adee" d="M4 19h1v1h-1zM5 22h1v1h-1zM94 22h1v1h-1zM10 23h1v1h-1zM6 24h1v1h-1zM93 24h1v1h-1zM86 26h1v1h-1zM91 28h1v1h-1zM9 29h1v1h-1zM26 30h1v1h-1zM19 31h1v1h-1zM31 32h1v1h-1zM88 32h1v1h-1zM23 33h1v1h-1zM69 36h1v1h-1zM66 37h1v1h-1zM42 39h1v1h-1zM19 40h1v1h-1zM80 40h1v1h-1zM28 46h1v1h-1zM38 49h1v1h-1zM37 53h1v1h-1zM65 56h1v1h-1zM30 61h1v1h-1zM62 62h1v1h-1zM59 70h1v1h-1zM58 71h1v1h-1zM69 74h1v1h-1z" /><path fill="#06adee" d="M93 19h1v1h-1zM7 21h1v1h-1zM12 25h1v1h-1zM26 28h1v1h-1zM84 28h1v1h-1zM77 32h1v1h-1zM13 34h1v1h-1zM25 34h1v1h-1zM86 34h1v1h-1zM14 35h1v1h-1zM84 36h1v1h-1zM41 39h1v1h-1zM72 45h1v1h-1zM36 49h1v1h-1zM62 49h1v1h-1zM43 50h2v1h-2zM55 50h1v1h-1zM68 54h1v1h-1zM66 55h1v1h-1zM38 57h1v1h-1zM38 58h1v1h-1zM30 60h1v1h-1zM39 61h1v1h-1zM71 63h1v1h-1zM40 64h1v1h-1zM71 66h1v1h-1zM34 77h1v1h-1z" /><path fill="#06adef" d="M94 19h1v1h-1zM91 21h1v1h-1zM7 26h1v1h-1zM28 26h1v1h-1zM92 26h1v1h-1zM85 27h1v1h-1zM16 29h1v1h-1zM17 30h1v1h-1zM81 30h1v1h-1zM12 33h1v1h-1zM76 33h1v1h-1zM74 34h1v1h-1zM43 39h1v1h-1zM56 39h1v1h-1zM42 50h1v1h-1zM29 52h1v1h-1zM37 54h1v1h-1zM61 66h1v1h-1zM41 67h1v1h-1zM70 71h1v1h-1zM32 73h1v1h-1zM33 75h1v1h-1zM68 76h1v1h-1zM66 78h1v1h-1zM41 80h1v1h-1zM60 80h1v1h-1z" /><path fill="#06aeee" d="M95 19h1v1h-1zM8 22h1v1h-1zM8 27h1v1h-1zM29 27h1v1h-1zM91 27h1v1h-1zM26 29h1v1h-1zM30 29h1v1h-1zM82 29h1v1h-1zM10 30h1v1h-1zM89 30h1v1h-1zM79 31h1v1h-1zM78 32h1v1h-1zM72 35h1v1h-1zM85 35h1v1h-1zM62 38h2v1h-2zM18 39h1v1h-1zM55 39h1v1h-1zM58 39h1v1h-1zM81 39h1v1h-1zM21 41h1v1h-1zM78 41h1v1h-1zM22 42h1v1h-1zM24 43h1v1h-1zM75 43h1v1h-1zM25 44h1v1h-1zM27 45h1v1h-1zM67 47h1v1h-1zM64 48h1v1h-1zM29 55h1v1h-1zM39 60h1v1h-1zM30 63h1v1h-1zM40 65h1v1h-1zM31 68h1v1h-1zM37 79h1v1h-1zM64 79h1v1h-1zM42 80h18v1h-18z" /><path fill="#05aeef" d="M4 20h1v1h-1zM95 20h1v1h-1zM90 22h1v1h-1zM13 26h1v1h-1zM15 28h1v1h-1zM90 29h1v1h-1zM11 32h1v1h-1zM17 38h1v1h-1zM82 38h1v1h-1zM61 49h1v1h-1zM36 50h1v1h-1zM29 53h1v1h-1zM62 61h1v1h-1zM41 68h1v1h-1zM31 71h1v1h-1zM70 72h1v1h-1zM32 74h1v1h-1zM67 77h1v1h-1zM61 80h1v1h-1z" /><path fill="#06aeef" d="M5 20h1v1h-1zM92 20h3v1h-3zM5 21h2v1h-2zM92 21h3v1h-3zM6 22h2v1h-2zM91 22h3v1h-3zM6 23h4v1h-4zM90 23h4v1h-4zM7 24h5v1h-5zM89 24h4v1h-4zM7 25h5v1h-5zM87 25h6v1h-6zM8 26h5v1h-5zM26 26h2v1h-2zM87 26h5v1h-5zM9 27h5v1h-5zM26 27h3v1h-3zM86 27h5v1h-5zM9 28h6v1h-6zM27 28h3v1h-3zM85 28h6v1h-6zM10 29h6v1h-6zM27 29h3v1h-3zM83 29h7v1h-7zM11 30h6v1h-6zM27 30h4v1h-4zM82 30h7v1h-7zM11 31h8v1h-8zM27 31h5v1h-5zM80 31h9v1h-9zM12 32h10v1h-10zM27 32h4v1h-4zM79 32h9v1h-9zM13 33h10v1h-10zM27 33h5v1h-5zM77 33h10v1h-10zM14 34h11v1h-11zM26 34h6v1h-6zM75 34h11v1h-11zM15 35h17v1h-17zM73 35h12v1h-12zM15 36h18v1h-18zM70 36h14v1h-14zM16 37h18v1h-18zM67 37h17v1h-17zM18 38h20v1h-20zM64 38h18v1h-18zM19 39h22v1h-22zM44 39h1v1h-1zM59 39h22v1h-22zM20 40h60v1h-60zM22 41h56v1h-56zM23 42h55v1h-55zM25 43h50v1h-50zM26 44h48v1h-48zM28 45h44v1h-44zM29 46h41v1h-41zM28 47h39v1h-39zM68 47h1v1h-1zM29 48h35v1h-35zM65 48h1v1h-1zM29 49h7v1h-7zM37 49h1v1h-1zM39 49h22v1h-22zM29 50h7v1h-7zM45 50h10v1h-10zM56 50h2v1h-2zM29 51h8v1h-8zM30 52h7v1h-7zM30 53h7v1h-7zM30 54h7v1h-7zM69 54h4v1h-4zM30 55h8v1h-8zM67 55h6v1h-6zM30 56h8v1h-8zM66 56h7v1h-7zM30 57h8v1h-8zM64 57h8v1h-8zM30 58h8v1h-8zM64 58h8v1h-8zM30 59h9v1h-9zM64 59h8v1h-8zM31 60h8v1h-8zM63 60h9v1h-9zM31 61h8v1h-8zM63 61h9v1h-9zM31 62h9v1h-9zM63 62h9v1h-9zM31 63h9v1h-9zM62 63h9v1h-9zM31 64h9v1h-9zM62 64h9v1h-9zM31 65h9v1h-9zM62 65h9v1h-9zM31 66h10v1h-10zM62 66h9v1h-9zM31 67h10v1h-10zM61 67h10v1h-10zM32 68h9v1h-9zM61 68h10v1h-10zM32 69h10v1h-10zM61 69h10v1h-10zM32 70h10v1h-10zM60 70h11v1h-11zM32 71h11v1h-11zM59 71h11v1h-11zM32 72h38v1h-38zM33 73h37v1h-37zM33 74h36v1h-36zM34 75h35v1h-35zM34 76h34v1h-34zM35 77h32v1h-32zM36 78h30v1h-30zM38 79h26v1h-26z" /><path fill="#05adef" d="M6 20h1v1h-1zM89 23h1v1h-1zM14 27h1v1h-1zM8 28h1v1h-1zM83 28h1v1h-1zM10 31h1v1h-1zM87 33h1v1h-1zM71 35h1v1h-1zM54 39h1v1h-1zM23 43h1v1h-1zM76 43h1v1h-1zM41 50h1v1h-1zM70 53h1v1h-1zM72 57h1v1h-1zM72 58h1v1h-1zM63 59h1v1h-1zM61 65h1v1h-1zM42 70h1v1h-1zM35 78h1v1h-1z" /><path fill="#05aeee" d="M88 24h1v1h-1zM30 28h1v1h-1zM26 31h1v1h-1zM75 33h1v1h-1zM73 34h1v1h-1zM32 35h1v1h-1zM68 36h1v1h-1zM34 37h1v1h-1zM65 37h1v1h-1zM38 38h1v1h-1zM61 38h1v1h-1zM45 39h1v1h-1zM57 39h1v1h-1zM74 44h1v1h-1zM70 46h1v1h-1zM71 53h2v1h-2zM29 54h1v1h-1zM38 56h1v1h-1zM30 62h1v1h-1zM71 64h1v1h-1zM71 65h1v1h-1zM60 68h1v1h-1zM31 69h1v1h-1zM60 69h1v1h-1zM31 70h1v1h-1zM43 71h1v1h-1zM40 80h1v1h-1z" /></svg>