<svg xmlns="http://www.w3.org/2000/svg" viewBox="0 0 100 100" width="1em" height="1em"><path fill="#00065f" d="M38 4h7v1h-7zM52 6h1v1h-1zM53 8h1v1h-1zM42 13h1v1h-1zM42 21h1v1h-1zM41 23h1v1h-1zM37 43h1v1h-1zM41 50h1v1h-1zM42 52h1v1h-1zM53 59h1v1h-1zM48 63h1v1h-1zM51 63h1v1h-1zM50 64h1v1h-1zM43 82h1v1h-1zM42 84h1v1h-1zM44 84h1v1h-1zM45 89h1v1h-1zM47 89h1v1h-1zM48 91h1v1h-1zM49 92h1v1h-1zM49 95h1v1h-1z" /><path fill="#000660" d="M45 4h1v1h-1zM43 19h1v1h-1zM40 49h1v1h-1zM52 89h1v1h-1z" /><path fill="#00055f" d="M46 4h4v1h-4zM37 5h15v1h-15zM37 6h15v1h-15zM39 7h14v1h-14zM39 8h14v1h-14zM40 9h14v1h-14zM41 10h12v1h-12zM41 11h12v1h-12zM32 12h1v1h-1zM41 12h12v1h-12zM43 13h10v1h-10zM43 14h10v1h-10zM43 15h10v1h-10zM44 16h9v1h-9zM45 17h9v1h-9zM44 18h10v1h-10zM28 19h1v1h-1zM44 19h10v1h-10zM43 20h11v1h-11zM43 21h10v1h-10zM42 22h11v1h-11zM42 23h11v1h-11zM41 24h12v1h-12zM27 25h1v1h-1zM40 25h13v1h-13zM12 26h1v1h-1zM39 26h14v1h-14zM39 27h14v1h-14zM9 30h1v1h-1zM7 33h1v1h-1zM15 33h1v1h-1zM5 37h1v1h-1zM19 40h1v1h-1zM37 41h16v1h-16zM37 42h16v1h-16zM38 43h15v1h-15zM6 44h1v1h-1zM38 44h15v1h-15zM39 45h14v1h-14zM39 46h15v1h-15zM8 47h1v1h-1zM23 47h1v1h-1zM39 47h15v1h-15zM40 48h14v1h-14zM41 49h13v1h-13zM42 50h11v1h-11zM42 51h11v1h-11zM43 52h10v1h-10zM43 53h10v1h-10zM27 54h1v1h-1zM43 54h10v1h-10zM44 55h9v1h-9zM45 56h8v1h-8zM46 57h8v1h-8zM46 58h8v1h-8zM47 59h6v1h-6zM47 60h6v1h-6zM31 61h1v1h-1zM48 61h4v1h-4zM48 62h4v1h-4zM49 63h2v1h-2zM13 66h1v1h-1zM35 68h1v1h-1zM11 69h1v1h-1zM25 71h1v1h-1zM24 72h1v1h-1zM11 73h1v1h-1zM22 75h1v1h-1zM14 78h1v1h-1zM19 82h1v1h-1zM37 82h6v1h-6zM37 83h7v1h-7zM37 84h5v1h-5zM43 84h1v1h-1zM43 85h2v1h-2zM44 86h2v1h-2zM45 87h2v1h-2zM45 88h2v1h-2zM46 89h1v1h-1zM46 90h2v1h-2zM52 90h1v1h-1zM46 91h2v1h-2zM51 91h2v1h-2zM47 92h2v1h-2zM51 92h2v1h-2zM47 93h7v1h-7zM49 94h5v1h-5zM50 95h4v1h-4z" /><path fill="#000560" d="M50 4h1v1h-1zM37 7h1v1h-1zM33 14h1v1h-1zM44 17h1v1h-1zM31 18h1v1h-1zM29 21h1v1h-1zM40 24h1v1h-1zM15 62h1v1h-1zM44 83h1v1h-1zM48 90h1v1h-1z" /><path fill="#00045f" d="M36 5h1v1h-1zM36 6h1v1h-1zM35 7h2v1h-2zM35 8h2v1h-2zM34 9h3v1h-3zM33 10h3v1h-3zM33 11h2v1h-2zM33 12h2v1h-2zM32 13h2v1h-2zM31 14h2v1h-2zM31 15h2v1h-2zM30 16h3v1h-3zM29 17h3v1h-3zM29 18h2v1h-2zM29 19h2v1h-2zM28 20h2v1h-2zM28 21h1v1h-1zM27 22h2v1h-2zM26 23h3v1h-3zM25 24h3v1h-3zM25 25h2v1h-2zM13 26h14v1h-14zM11 27h15v1h-15zM11 28h2v1h-2zM10 29h3v1h-3zM10 30h4v1h-4zM9 31h5v1h-5zM9 32h6v1h-6zM8 33h7v1h-7zM7 34h9v1h-9zM7 35h10v1h-10zM6 36h12v1h-12zM6 37h12v1h-12zM5 38h13v1h-13zM4 39h15v1h-15zM4 40h15v1h-15zM5 41h15v1h-15zM36 41h1v1h-1zM5 42h16v1h-16zM6 43h16v1h-16zM7 44h15v1h-15zM7 45h16v1h-16zM8 46h15v1h-15zM9 47h14v1h-14zM9 48h15v1h-15zM10 49h15v1h-15zM10 50h15v1h-15zM11 51h15v1h-15zM11 52h16v1h-16zM12 53h15v1h-15zM13 54h14v1h-14zM13 55h15v1h-15zM14 56h15v1h-15zM14 57h15v1h-15zM15 58h15v1h-15zM15 59h15v1h-15zM16 60h15v1h-15zM16 61h15v1h-15zM16 62h16v1h-16zM15 63h18v1h-18zM15 64h18v1h-18zM14 65h20v1h-20zM14 66h21v1h-21zM13 67h22v1h-22zM12 68h23v1h-23zM12 69h24v1h-24zM11 70h26v1h-26zM11 71h14v1h-14zM11 72h13v1h-13zM12 73h11v1h-11zM12 74h11v1h-11zM13 75h9v1h-9zM13 76h9v1h-9zM14 77h7v1h-7zM15 78h6v1h-6zM15 79h5v1h-5zM15 80h5v1h-5zM16 81h3v1h-3zM17 82h2v1h-2zM20 82h17v1h-17zM18 83h19v1h-19zM19 84h18v1h-18z" /><path fill="#00055e" d="M34 8h1v1h-1zM35 11h1v1h-1zM30 15h1v1h-1zM26 22h1v1h-1zM10 51h1v1h-1zM12 54h1v1h-1zM14 58h1v1h-1zM47 61h1v1h-1zM52 61h1v1h-1zM20 79h1v1h-1zM18 84h1v1h-1z" /><path fill="#01065e" d="M54 9h1v1h-1z" /><path fill="#00065e" d="M40 10h1v1h-1zM38 45h1v1h-1zM44 56h1v1h-1zM45 57h1v1h-1zM46 59h1v1h-1zM49 64h1v1h-1zM45 85h1v1h-1zM43 86h1v1h-1zM44 87h1v1h-1zM48 94h1v1h-1z" /><path fill="#01055f" d="M53 10h2v1h-2zM53 11h2v1h-2zM53 12h2v1h-2zM53 13h2v1h-2zM53 14h2v1h-2zM53 15h2v1h-2zM82 15h1v1h-1zM53 16h2v1h-2zM54 17h1v1h-1zM83 17h1v1h-1zM54 18h1v1h-1zM54 19h1v1h-1zM54 20h1v1h-1zM53 21h2v1h-2zM53 22h2v1h-2zM53 23h2v1h-2zM53 24h2v1h-2zM53 25h2v1h-2zM53 26h2v1h-2zM53 27h2v1h-2zM81 40h1v1h-1zM53 41h2v1h-2zM53 42h2v1h-2zM63 42h1v1h-1zM53 43h2v1h-2zM53 44h2v1h-2zM86 44h1v1h-1zM53 45h2v1h-2zM54 46h1v1h-1zM87 46h1v1h-1zM54 47h1v1h-1zM54 48h1v1h-1zM54 49h1v1h-1zM53 50h2v1h-2zM53 51h2v1h-2zM53 52h2v1h-2zM73 52h1v1h-1zM53 53h2v1h-2zM91 53h1v1h-1zM53 54h2v1h-2zM53 55h2v1h-2zM53 56h2v1h-2zM91 57h1v1h-1zM76 74h1v1h-1zM54 87h1v1h-1zM54 88h1v1h-1zM68 88h1v1h-1zM53 89h2v1h-2zM53 90h2v1h-2zM53 91h2v1h-2zM53 92h2v1h-2zM54 93h1v1h-1zM54 94h1v1h-1zM54 95h1v1h-1z" /><path fill="#010561" d="M55 11h1v1h-1zM60 47h1v1h-1zM76 53h1v1h-1zM71 56h1v1h-1zM69 59h1v1h-1zM80 60h1v1h-1zM92 61h1v1h-1zM67 63h1v1h-1zM65 66h1v1h-1zM63 70h1v1h-1zM88 73h1v1h-1zM59 77h1v1h-1zM55 84h1v1h-1zM67 90h1v1h-1z" /><path fill="#010560" d="M55 12h1v1h-1zM55 13h1v1h-1zM55 14h2v1h-2zM55 15h27v1h-27zM55 16h28v1h-28zM55 17h28v1h-28zM55 18h29v1h-29zM55 19h29v1h-29zM55 20h31v1h-31zM55 21h30v1h-30zM55 22h31v1h-31zM55 23h32v1h-32zM55 24h33v1h-33zM55 25h33v1h-33zM55 26h33v1h-33zM55 27h34v1h-34zM86 28h3v1h-3zM87 29h2v1h-2zM87 30h1v1h-1zM86 31h2v1h-2zM85 32h3v1h-3zM84 33h3v1h-3zM84 34h3v1h-3zM84 35h1v1h-1zM83 36h2v1h-2zM83 37h1v1h-1zM81 38h3v1h-3zM82 39h1v1h-1zM82 40h2v1h-2zM55 41h9v1h-9zM83 41h2v1h-2zM55 42h8v1h-8zM83 42h2v1h-2zM55 43h7v1h-7zM83 43h2v1h-2zM55 44h7v1h-7zM84 44h2v1h-2zM55 45h6v1h-6zM85 45h2v1h-2zM55 46h6v1h-6zM85 46h2v1h-2zM55 47h5v1h-5zM85 47h3v1h-3zM55 48h5v1h-5zM87 48h1v1h-1zM55 49h5v1h-5zM87 49h2v1h-2zM55 50h3v1h-3zM87 50h2v1h-2zM55 51h3v1h-3zM88 51h3v1h-3zM55 52h2v1h-2zM74 52h1v1h-1zM89 52h2v1h-2zM55 53h2v1h-2zM74 53h2v1h-2zM89 53h2v1h-2zM55 54h2v1h-2zM73 54h4v1h-4zM89 54h3v1h-3zM55 55h1v1h-1zM72 55h6v1h-6zM91 55h1v1h-1zM72 56h6v1h-6zM91 56h2v1h-2zM71 57h8v1h-8zM92 57h1v1h-1zM71 58h8v1h-8zM92 58h3v1h-3zM70 59h9v1h-9zM93 59h2v1h-2zM70 60h10v1h-10zM93 60h3v1h-3zM69 61h23v1h-23zM93 61h2v1h-2zM68 62h27v1h-27zM68 63h27v1h-27zM67 64h27v1h-27zM67 65h26v1h-26zM66 66h27v1h-27zM66 67h27v1h-27zM65 68h26v1h-26zM64 69h27v1h-27zM64 70h27v1h-27zM63 71h27v1h-27zM63 72h26v1h-26zM61 73h27v1h-27zM62 74h14v1h-14zM61 75h15v1h-15zM60 76h16v1h-16zM60 77h14v1h-14zM59 78h15v1h-15zM59 79h14v1h-14zM57 80h16v1h-16zM58 81h15v1h-15zM57 82h15v1h-15zM56 83h16v1h-16zM56 84h14v1h-14zM55 85h15v1h-15zM55 86h14v1h-14zM55 87h14v1h-14zM55 88h13v1h-13zM55 89h13v1h-13zM55 90h12v1h-12zM55 91h11v1h-11zM55 92h11v1h-11zM55 93h10v1h-10zM55 94h10v1h-10zM55 95h8v1h-8z" /><path fill="#010660" d="M56 13h1v1h-1zM84 19h1v1h-1zM85 21h1v1h-1zM88 26h1v1h-1zM88 30h1v1h-1zM85 31h1v1h-1zM83 35h1v1h-1zM85 35h1v1h-1zM82 37h1v1h-1zM84 37h1v1h-1zM81 39h1v1h-1zM83 39h1v1h-1zM62 43h1v1h-1zM85 43h1v1h-1zM61 45h1v1h-1zM84 45h1v1h-1zM88 48h1v1h-1zM58 50h1v1h-1zM89 50h1v1h-1zM57 52h1v1h-1zM88 52h1v1h-1zM73 53h1v1h-1zM72 54h1v1h-1zM92 55h1v1h-1zM55 56h1v1h-1zM93 57h1v1h-1zM92 59h1v1h-1zM69 60h1v1h-1zM68 61h1v1h-1zM95 61h1v1h-1zM65 67h1v1h-1zM64 68h1v1h-1zM91 68h1v1h-1zM62 72h1v1h-1zM61 74h1v1h-1zM60 75h1v1h-1zM74 77h1v1h-1zM73 79h1v1h-1zM57 81h1v1h-1zM56 82h1v1h-1zM70 84h1v1h-1zM69 86h1v1h-1zM66 91h1v1h-1zM65 93h1v1h-1zM63 95h1v1h-1z" /><path fill="#01065f" d="M57 14h1v1h-1zM86 30h1v1h-1zM75 52h1v1h-1zM54 57h1v1h-1zM54 86h1v1h-1zM53 88h1v1h-1z" /><path fill="#00045e" d="M27 21h1v1h-1zM10 28h1v1h-1zM13 29h1v1h-1zM14 31h1v1h-1zM8 32h1v1h-1zM6 35h1v1h-1zM18 38h1v1h-1zM25 50h1v1h-1zM13 56h1v1h-1zM29 57h1v1h-1zM30 59h1v1h-1zM14 64h1v1h-1zM23 73h1v1h-1zM21 77h1v1h-1zM16 82h1v1h-1zM17 83h1v1h-1z" /><path fill="#010661" d="M86 22h1v1h-1zM89 28h1v1h-1zM82 41h1v1h-1zM86 48h1v1h-1zM74 51h1v1h-1zM90 55h1v1h-1zM70 58h1v1h-1zM79 59h1v1h-1zM66 65h1v1h-1zM93 65h1v1h-1zM89 72h1v1h-1zM58 79h1v1h-1z" /><path fill="#000460" d="M13 28h1v1h-1zM36 42h1v1h-1zM9 49h1v1h-1zM33 64h1v1h-1zM12 75h1v1h-1z" /><path fill="#000360" d="M13 77h1v1h-1z" /><path fill="#01055e" d="M53 87h1v1h-1z" /></svg>