<svg xmlns="http://www.w3.org/2000/svg" viewBox="0 0 100 100" width="1em" height="1em"><path fill="#ac7df3" d="M31 0h1v1h-1zM67 0h1v1h-1zM70 0h1v1h-1zM27 1h1v1h-1zM79 7h1v1h-1zM82 13h1v1h-1zM83 14h1v1h-1zM20 18h1v1h-1zM13 22h1v1h-1zM88 23h1v1h-1zM96 38h1v1h-1zM96 44h1v1h-1zM95 48h1v1h-1zM94 49h1v1h-1zM93 50h1v1h-1zM90 56h1v1h-1zM88 59h1v1h-1zM81 89h1v1h-1z" /><path fill="#ac7ef4" d="M32 0h4v1h-4zM64 0h2v1h-2zM68 0h1v1h-1zM28 1h44v1h-44zM27 2h47v1h-47zM25 3h7v1h-7zM34 3h42v1h-42zM24 4h8v1h-8zM35 4h42v1h-42zM23 5h8v1h-8zM36 5h42v1h-42zM21 6h9v1h-9zM37 6h41v1h-41zM21 7h8v1h-8zM38 7h41v1h-41zM20 8h8v1h-8zM39 8h41v1h-41zM20 9h8v1h-8zM40 9h40v1h-40zM20 10h7v1h-7zM41 10h40v1h-40zM19 11h7v1h-7zM42 11h39v1h-39zM18 12h7v1h-7zM43 12h39v1h-39zM18 13h6v1h-6zM43 13h39v1h-39zM18 14h6v1h-6zM44 14h39v1h-39zM17 15h6v1h-6zM45 15h39v1h-39zM17 16h5v1h-5zM46 16h38v1h-38zM16 17h5v1h-5zM47 17h38v1h-38zM16 18h4v1h-4zM48 18h37v1h-37zM15 19h5v1h-5zM49 19h37v1h-37zM15 20h4v1h-4zM50 20h37v1h-37zM14 21h4v1h-4zM51 21h36v1h-36zM14 22h3v1h-3zM52 22h36v1h-36zM13 23h3v1h-3zM53 23h35v1h-35zM13 24h2v1h-2zM54 24h35v1h-35zM12 25h3v1h-3zM54 25h35v1h-35zM12 26h2v1h-2zM55 26h35v1h-35zM11 27h2v1h-2zM56 27h35v1h-35zM11 28h1v1h-1zM57 28h35v1h-35zM10 29h1v1h-1zM58 29h34v1h-34zM10 30h1v1h-1zM59 30h33v1h-33zM9 31h1v1h-1zM60 31h33v1h-33zM61 32h32v1h-32zM62 33h32v1h-32zM63 34h31v1h-31zM64 35h31v1h-31zM65 36h30v1h-30zM65 37h31v1h-31zM66 38h30v1h-30zM67 39h29v1h-29zM68 40h29v1h-29zM69 41h28v1h-28zM70 42h27v1h-27zM71 43h26v1h-26zM71 44h25v1h-25zM70 45h26v1h-26zM69 46h27v1h-27zM68 47h27v1h-27zM67 48h28v1h-28zM66 49h28v1h-28zM65 50h28v1h-28zM65 51h28v1h-28zM65 52h27v1h-27zM65 53h27v1h-27zM65 54h26v1h-26zM65 55h26v1h-26zM65 56h25v1h-25zM65 57h24v1h-24zM65 58h24v1h-24zM66 59h22v1h-22zM66 60h22v1h-22zM66 61h21v1h-21zM66 62h21v1h-21zM66 63h20v1h-20zM66 64h20v1h-20zM66 65h20v1h-20zM66 66h19v1h-19zM66 67h18v1h-18zM67 68h17v1h-17zM67 69h16v1h-16zM67 70h15v1h-15zM67 71h15v1h-15zM67 72h14v1h-14zM67 73h14v1h-14zM67 74h14v1h-14zM67 75h13v1h-13zM67 76h12v1h-12zM68 77h11v1h-11zM68 78h10v1h-10zM68 79h10v1h-10zM68 80h10v1h-10zM68 81h9v1h-9zM69 82h9v1h-9zM70 83h8v1h-8zM71 84h8v1h-8zM72 85h7v1h-7zM73 86h7v1h-7zM74 87h6v1h-6zM75 88h6v1h-6zM76 89h5v1h-5zM77 90h5v1h-5zM78 91h4v1h-4zM79 92h4v1h-4zM80 93h3v1h-3zM81 94h3v1h-3zM82 95h3v1h-3zM83 96h2v1h-2zM84 97h1v1h-1zM85 98h1v1h-1z" /><path fill="#ab7ef4" d="M36 0h1v1h-1zM73 1h1v1h-1zM76 3h1v1h-1zM77 4h1v1h-1zM22 5h1v1h-1zM80 9h1v1h-1zM81 11h1v1h-1zM12 28h1v1h-1zM9 30h1v1h-1zM95 35h1v1h-1zM88 60h1v1h-1zM87 61h1v1h-1zM77 81h1v1h-1zM83 93h1v1h-1z" /><path fill="#ab7df4" d="M37 0h22v1h-22zM24 3h1v1h-1zM19 10h1v1h-1zM92 30h1v1h-1zM8 32h1v1h-1zM96 45h1v1h-1z" /><path fill="#ac7ef3" d="M59 0h2v1h-2zM63 0h1v1h-1zM72 1h1v1h-1zM25 2h2v1h-2zM28 8h1v1h-1zM82 12h1v1h-1zM24 13h1v1h-1zM16 16h1v1h-1zM85 18h1v1h-1zM87 21h1v1h-1zM90 26h1v1h-1zM94 34h1v1h-1zM95 36h1v1h-1zM95 47h1v1h-1zM84 67h1v1h-1zM83 69h1v1h-1zM82 70h1v1h-1zM82 71h1v1h-1zM81 72h1v1h-1zM86 98h1v1h-1z" /><path fill="#ac7df4" d="M61 0h1v1h-1zM69 0h1v1h-1zM74 2h1v1h-1zM86 19h1v1h-1zM12 24h1v1h-1zM89 24h1v1h-1zM11 26h1v1h-1zM10 28h1v1h-1zM93 32h1v1h-1zM94 33h1v1h-1zM89 58h1v1h-1zM78 78h1v1h-1zM82 91h1v1h-1zM85 97h1v1h-1z" /><path fill="#ab7df3" d="M62 0h1v1h-1zM32 3h1v1h-1zM23 4h1v1h-1zM78 6h1v1h-1zM17 14h1v1h-1zM84 16h1v1h-1zM16 23h1v1h-1zM92 52h1v1h-1zM81 73h1v1h-1zM86 99h1v1h-1z" /><path fill="#ab7ef3" d="M66 0h1v1h-1zM15 18h1v1h-1zM14 20h1v1h-1zM15 24h1v1h-1zM89 25h1v1h-1zM11 29h1v1h-1zM8 33h1v1h-1zM96 37h1v1h-1zM96 39h1v1h-1zM70 44h1v1h-1zM91 54h1v1h-1zM89 57h1v1h-1zM86 63h1v1h-1zM79 76h1v1h-1zM78 83h1v1h-1zM79 85h1v1h-1zM80 87h1v1h-1z" /><path fill="#b292f4" d="M33 3h1v1h-1z" /><path fill="#6f95f4" d="M32 4h1v1h-1z" /><path fill="#b7e7fa" d="M33 4h1v1h-1z" /><path fill="#cfb4f8" d="M34 4h1v1h-1z" /><path fill="#9287f3" d="M31 5h1v1h-1z" /><path fill="#18b6f6" d="M32 5h1v1h-1zM32 6h1v1h-1zM31 7h2v1h-2zM30 8h4v1h-4zM29 9h5v1h-5zM28 10h6v1h-6zM28 11h6v1h-6zM27 12h7v1h-7zM26 13h8v1h-8zM25 14h10v1h-10zM24 15h11v1h-11zM24 16h11v1h-11zM23 17h12v1h-12zM22 18h13v1h-13zM21 19h14v1h-14zM20 20h16v1h-16zM20 21h16v1h-16zM19 22h17v1h-17zM18 23h18v1h-18zM17 24h19v1h-19zM16 25h20v1h-20zM16 26h21v1h-21zM15 27h22v1h-22zM14 28h23v1h-23zM13 29h24v1h-24zM12 30h25v1h-25zM12 31h25v1h-25zM11 32h27v1h-27zM10 33h28v1h-28zM9 34h29v1h-29zM8 35h29v1h-29zM8 36h28v1h-28zM7 37h28v1h-28zM6 38h28v1h-28zM5 39h28v1h-28zM5 40h27v1h-27zM4 41h27v1h-27zM4 42h26v1h-26zM4 43h25v1h-25zM4 44h25v1h-25zM4 45h26v1h-26zM4 46h27v1h-27zM4 47h28v1h-28zM4 48h29v1h-29zM4 49h30v1h-30zM4 50h31v1h-31zM5 51h31v1h-31zM5 52h32v1h-32zM6 53h32v1h-32zM6 54h33v1h-33zM7 55h33v1h-33zM8 56h33v1h-33zM8 57h34v1h-34zM9 58h34v1h-34zM9 59h35v1h-35zM10 60h35v1h-35zM11 61h35v1h-35zM11 62h36v1h-36zM12 63h36v1h-36zM13 64h36v1h-36zM13 65h37v1h-37zM14 66h37v1h-37zM14 67h38v1h-38zM15 68h38v1h-38zM16 69h38v1h-38zM16 70h39v1h-39zM17 71h39v1h-39zM17 72h40v1h-40zM18 73h40v1h-40zM19 74h40v1h-40zM19 75h41v1h-41zM20 76h41v1h-41zM20 77h42v1h-42zM20 78h43v1h-43zM22 79h42v1h-42zM21 80h44v1h-44zM23 81h43v1h-43zM24 82h43v1h-43zM25 83h43v1h-43zM26 84h43v1h-43zM28 85h42v1h-42zM33 86h7v1h-7zM42 86h29v1h-29zM43 87h1v1h-1zM45 87h27v1h-27zM49 88h24v1h-24zM52 89h22v1h-22zM56 90h19v1h-19zM59 91h17v1h-17zM62 92h15v1h-15zM64 93h1v1h-1zM66 93h12v1h-12zM69 94h10v1h-10zM73 95h7v1h-7zM76 96h5v1h-5zM79 97h3v1h-3zM81 98h1v1h-1z" /><path fill="#80d7fa" d="M33 5h1v1h-1z" /><path fill="#ffffff" d="M34 5h1v1h-1zM34 6h1v1h-1zM34 7h2v1h-2zM35 8h2v1h-2zM35 9h3v1h-3zM35 10h4v1h-4zM35 11h5v1h-5zM35 12h6v1h-6zM35 13h7v1h-7zM36 14h7v1h-7zM36 15h8v1h-8zM36 16h9v1h-9zM36 17h10v1h-10zM36 18h11v1h-11zM36 19h11v1h-11zM37 20h11v1h-11zM37 21h12v1h-12zM37 22h13v1h-13zM37 23h14v1h-14zM37 24h15v1h-15zM38 25h15v1h-15zM38 26h16v1h-16zM38 27h17v1h-17zM38 28h18v1h-18zM38 29h19v1h-19zM38 30h20v1h-20zM39 31h19v1h-19zM39 32h20v1h-20zM39 33h21v1h-21zM39 34h22v1h-22zM39 35h23v1h-23zM38 36h25v1h-25zM37 37h27v1h-27zM36 38h29v1h-29zM35 39h31v1h-31zM34 40h33v1h-33zM33 41h34v1h-34zM32 42h36v1h-36zM31 43h38v1h-38zM30 44h39v1h-39zM31 45h37v1h-37zM32 46h35v1h-35zM33 47h33v1h-33zM34 48h31v1h-31zM35 49h29v1h-29zM36 50h28v1h-28zM37 51h27v1h-27zM38 52h26v1h-26zM39 53h25v1h-25zM40 54h24v1h-24zM41 55h23v1h-23zM42 56h22v1h-22zM43 57h21v1h-21zM44 58h20v1h-20zM45 59h19v1h-19zM46 60h19v1h-19zM47 61h18v1h-18zM48 62h17v1h-17zM49 63h16v1h-16zM50 64h15v1h-15zM52 65h13v1h-13zM53 66h12v1h-12zM54 67h11v1h-11zM55 68h10v1h-10zM56 69h10v1h-10zM57 70h9v1h-9zM58 71h8v1h-8zM59 72h7v1h-7zM60 73h6v1h-6zM61 74h5v1h-5zM62 75h4v1h-4zM63 76h3v1h-3zM64 77h3v1h-3zM65 78h2v1h-2zM66 79h1v1h-1z" /><path fill="#c7a8f7" d="M35 5h1v1h-1z" /><path fill="#a580f4" d="M30 6h1v1h-1zM76 90h1v1h-1z" /><path fill="#1db4f6" d="M31 6h1v1h-1z" /><path fill="#47c5f7" d="M33 6h1v1h-1zM30 42h1v1h-1z" /><path fill="#fdfdff" d="M35 6h1v1h-1zM36 7h1v1h-1zM47 19h1v1h-1zM38 31h1v1h-1zM58 31h1v1h-1zM67 41h1v1h-1zM68 42h1v1h-1zM53 67h1v1h-1zM54 68h1v1h-1zM65 68h1v1h-1z" /><path fill="#be9bf6" d="M36 6h1v1h-1zM47 18h1v1h-1z" /><path fill="#aa7df4" d="M29 7h1v1h-1z" /><path fill="#2baff6" d="M30 7h1v1h-1z" /><path fill="#1db8f5" d="M33 7h1v1h-1z" /><path fill="#b993f5" d="M37 7h1v1h-1zM48 19h1v1h-1zM59 31h1v1h-1z" /><path fill="#44a4f5" d="M29 8h1v1h-1z" /><path fill="#fafdff" d="M34 8h1v1h-1z" /><path fill="#fdfcff" d="M37 8h1v1h-1zM69 43h1v1h-1zM66 76h1v1h-1z" /><path fill="#b58cf5" d="M38 8h1v1h-1zM65 60h1v1h-1z" /><path fill="#6797f4" d="M28 9h1v1h-1z" /><path fill="#e0f5fd" d="M34 9h1v1h-1z" /><path fill="#fbfafd" d="M38 9h1v1h-1z" /><path fill="#b388f5" d="M39 9h1v1h-1z" /><path fill="#9089f4" d="M27 10h1v1h-1z" /><path fill="#b4e7fc" d="M34 10h1v1h-1z" /><path fill="#f9f6fd" d="M39 10h1v1h-1z" /><path fill="#b084f4" d="M40 10h1v1h-1z" /><path fill="#a280f2" d="M26 11h1v1h-1z" /><path fill="#1bb4f5" d="M27 11h1v1h-1zM23 16h1v1h-1z" /><path fill="#7cd6f9" d="M34 11h1v1h-1z" /><path fill="#f4effd" d="M40 11h1v1h-1zM64 57h1v1h-1z" /><path fill="#ad81f3" d="M41 11h1v1h-1zM52 23h1v1h-1z" /><path fill="#aa7ef4" d="M25 12h1v1h-1zM7 34h1v1h-1z" /><path fill="#29aef6" d="M26 12h1v1h-1z" /><path fill="#45c3f7" d="M34 12h1v1h-1z" /><path fill="#efe7fc" d="M41 12h1v1h-1z" /><path fill="#ac7ff3" d="M42 12h1v1h-1z" /><path fill="#41a6f4" d="M25 13h1v1h-1z" /><path fill="#1cb8f5" d="M34 13h1v1h-1z" /><path fill="#e9ddfc" d="M42 13h1v1h-1z" /><path fill="#6499f5" d="M24 14h1v1h-1z" /><path fill="#f8fcff" d="M35 14h1v1h-1z" /><path fill="#dfcdfb" d="M43 14h1v1h-1z" /><path fill="#888bf5" d="M23 15h1v1h-1z" /><path fill="#ddf4fd" d="M35 15h1v1h-1z" /><path fill="#d7bff9" d="M44 15h1v1h-1z" /><path fill="#a082f5" d="M22 16h1v1h-1z" /><path fill="#b0e6fb" d="M35 16h1v1h-1z" /><path fill="#cdb2f8" d="M45 16h1v1h-1z" /><path fill="#a87ff3" d="M21 17h1v1h-1zM71 85h1v1h-1z" /><path fill="#25b1f5" d="M22 17h1v1h-1z" /><path fill="#79d5f9" d="M35 17h1v1h-1z" /><path fill="#c6a8f6" d="M46 17h1v1h-1z" /><path fill="#3ca8f6" d="M21 18h1v1h-1z" /><path fill="#43c3f7" d="M35 18h1v1h-1z" /><path fill="#5e9bf4" d="M20 19h1v1h-1z" /><path fill="#1db6f5" d="M35 19h1v1h-1z" /><path fill="#808df4" d="M19 20h1v1h-1z" /><path fill="#f5fbff" d="M36 20h1v1h-1z" /><path fill="#fcfbff" d="M48 20h1v1h-1zM59 32h1v1h-1z" /><path fill="#b68df5" d="M49 20h1v1h-1z" /><path fill="#9e82f3" d="M18 21h1v1h-1z" /><path fill="#1bb5f5" d="M19 21h1v1h-1z" /><path fill="#d9f3fd" d="M36 21h1v1h-1z" /><path fill="#fbfaff" d="M49 21h1v1h-1z" /><path fill="#b187f4" d="M50 21h1v1h-1z" /><path fill="#a77ff3" d="M17 22h1v1h-1z" /><path fill="#23b2f6" d="M18 22h1v1h-1z" /><path fill="#abe5fc" d="M36 22h1v1h-1z" /><path fill="#f9f5ff" d="M50 22h1v1h-1z" /><path fill="#af84f4" d="M51 22h1v1h-1zM62 34h1v1h-1z" /><path fill="#36aaf4" d="M17 23h1v1h-1z" /><path fill="#75d3fa" d="M36 23h1v1h-1z" /><path fill="#f5effd" d="M51 23h1v1h-1zM67 46h1v1h-1z" /><path fill="#559df5" d="M16 24h1v1h-1z" /><path fill="#41c3f7" d="M36 24h1v1h-1z" /><path fill="#eee5fd" d="M52 24h1v1h-1z" /><path fill="#ad7ff4" d="M53 24h1v1h-1zM64 36h1v1h-1zM66 68h1v1h-1z" /><path fill="#7c8ff3" d="M15 25h1v1h-1z" /><path fill="#1db7f6" d="M36 25h1v1h-1zM37 31h1v1h-1z" /><path fill="#fdfdfd" d="M37 25h1v1h-1zM51 65h1v1h-1zM52 66h1v1h-1z" /><path fill="#e7dbfc" d="M53 25h1v1h-1z" /><path fill="#9c83f3" d="M14 26h1v1h-1z" /><path fill="#1ab4f5" d="M15 26h1v1h-1z" /><path fill="#f3fbff" d="M37 26h1v1h-1z" /><path fill="#ddccfb" d="M54 26h1v1h-1z" /><path fill="#a87ef4" d="M13 27h1v1h-1z" /><path fill="#22b2f4" d="M14 27h1v1h-1z" /><path fill="#d5f1fc" d="M37 27h1v1h-1z" /><path fill="#d7c0fa" d="M55 27h1v1h-1z" /><path fill="#33abf4" d="M13 28h1v1h-1z" /><path fill="#a7e3fc" d="M37 28h1v1h-1z" /><path fill="#cbb0f8" d="M56 28h1v1h-1z" /><path fill="#549ff5" d="M12 29h1v1h-1z" /><path fill="#73d2f9" d="M37 29h1v1h-1z" /><path fill="#c6a6f8" d="M57 29h1v1h-1z" /><path fill="#7792f5" d="M11 30h1v1h-1z" /><path fill="#40c2f7" d="M37 30h1v1h-1z" /><path fill="#c09df6" d="M58 30h1v1h-1z" /><path fill="#9885f3" d="M10 31h1v1h-1z" /><path fill="#19b6f6" d="M11 31h1v1h-1z" /><path fill="#a67ef3" d="M9 32h1v1h-1z" /><path fill="#21b2f4" d="M10 32h1v1h-1z" /><path fill="#f1fafd" d="M38 32h1v1h-1zM35 38h1v1h-1z" /><path fill="#b78ef5" d="M60 32h1v1h-1zM65 49h1v1h-1z" /><path fill="#2facf5" d="M9 33h1v1h-1z" /><path fill="#d3f1fd" d="M38 33h1v1h-1z" /><path fill="#faf8ff" d="M60 33h1v1h-1z" /><path fill="#b188f4" d="M61 33h1v1h-1z" /><path fill="#4da1f5" d="M8 34h1v1h-1z" /><path fill="#a4e1fb" d="M38 34h1v1h-1z" /><path fill="#f8f4fd" d="M61 34h1v1h-1z" /><path fill="#7093f4" d="M7 35h1v1h-1z" /><path fill="#2dbdf7" d="M37 35h1v1h-1z" /><path fill="#ebf8fd" d="M38 35h1v1h-1z" /><path fill="#f3ecfc" d="M62 35h1v1h-1z" /><path fill="#ae82f4" d="M63 35h1v1h-1z" /><path fill="#858cf5" d="M6 36h1v1h-1z" /><path fill="#19b5f6" d="M7 36h1v1h-1z" /><path fill="#2fbcf6" d="M36 36h1v1h-1z" /><path fill="#edf9ff" d="M37 36h1v1h-1z" /><path fill="#ece2fc" d="M63 36h1v1h-1zM69 44h1v1h-1z" /><path fill="#1eb2f6" d="M6 37h1v1h-1z" /><path fill="#33bff6" d="M35 37h1v1h-1z" /><path fill="#f0faff" d="M36 37h1v1h-1z" /><path fill="#e5d7fb" d="M64 37h1v1h-1z" /><path fill="#1ab5f6" d="M5 38h1v1h-1z" /><path fill="#35bff7" d="M34 38h1v1h-1z" /><path fill="#dbc8fa" d="M65 38h1v1h-1z" /><path fill="#3bc1f6" d="M33 39h1v1h-1z" /><path fill="#f6fcff" d="M34 39h1v1h-1z" /><path fill="#d6befa" d="M66 39h1v1h-1z" /><path fill="#17b5f5" d="M4 40h1v1h-1zM3 43h1v1h-1zM3 47h1v1h-1zM3 48h1v1h-1zM12 65h1v1h-1zM15 70h1v1h-1zM41 86h1v1h-1zM78 97h1v1h-1z" /><path fill="#3dc1f6" d="M32 40h1v1h-1z" /><path fill="#f7fcff" d="M33 40h1v1h-1z" /><path fill="#ccaff8" d="M67 40h1v1h-1z" /><path fill="#45c4f7" d="M31 41h1v1h-1z" /><path fill="#f9fcff" d="M32 41h1v1h-1z" /><path fill="#c4a6f7" d="M68 41h1v1h-1z" /><path fill="#17b5f6" d="M3 42h1v1h-1zM17 73h1v1h-1zM23 82h1v1h-1zM27 85h1v1h-1zM50 89h1v1h-1zM67 94h1v1h-1z" /><path fill="#f9fdff" d="M31 42h1v1h-1z" /><path fill="#c09df7" d="M69 42h1v1h-1z" /><path fill="#50c7f7" d="M29 43h1v1h-1z" /><path fill="#fafdfd" d="M30 43h1v1h-1z" /><path fill="#b38af4" d="M70 43h1v1h-1z" /><path fill="#18b5f6" d="M3 44h1v1h-1zM11 63h1v1h-1zM13 66h1v1h-1zM14 68h1v1h-1zM25 84h1v1h-1zM31 86h1v1h-1zM51 89h1v1h-1zM57 91h1v1h-1zM68 94h1v1h-1zM74 96h2v1h-2z" /><path fill="#95ddfb" d="M29 44h1v1h-1z" /><path fill="#18b5f5" d="M3 45h1v1h-1zM7 56h1v1h-1zM10 61h1v1h-1zM12 64h1v1h-1zM15 69h1v1h-1zM18 75h1v1h-1zM29 86h2v1h-2zM32 86h1v1h-1zM44 87h1v1h-1zM47 88h1v1h-1zM55 90h1v1h-1zM58 91h1v1h-1zM60 92h1v1h-1zM72 95h1v1h-1zM77 97h1v1h-1z" /><path fill="#9be0fc" d="M30 45h1v1h-1z" /><path fill="#f1ebfc" d="M68 45h1v1h-1z" /><path fill="#ac80f3" d="M69 45h1v1h-1z" /><path fill="#17b6f5" d="M3 46h1v1h-1zM8 58h1v1h-1zM22 81h1v1h-1zM24 83h1v1h-1zM48 88h1v1h-1zM54 90h1v1h-1zM61 92h1v1h-1zM65 93h1v1h-1zM71 95h1v1h-1zM82 98h1v1h-1z" /><path fill="#99defb" d="M31 46h1v1h-1z" /><path fill="#ad82f3" d="M68 46h1v1h-1z" /><path fill="#8fdbfb" d="M32 47h1v1h-1z" /><path fill="#f6f3fd" d="M66 47h1v1h-1z" /><path fill="#b085f4" d="M67 47h1v1h-1z" /><path fill="#8edaf9" d="M33 48h1v1h-1z" /><path fill="#f9f7fd" d="M65 48h1v1h-1z" /><path fill="#b48af4" d="M66 48h1v1h-1zM66 69h1v1h-1z" /><path fill="#18b6f5" d="M3 49h1v1h-1zM4 51h1v1h-1zM5 53h1v1h-1zM9 60h1v1h-1zM18 74h1v1h-1zM21 79h1v1h-1zM40 86h1v1h-1z" /><path fill="#8cdaf9" d="M34 49h1v1h-1z" /><path fill="#fbf9fd" d="M64 49h1v1h-1zM65 67h1v1h-1z" /><path fill="#8edcfb" d="M35 50h1v1h-1z" /><path fill="#bc96f5" d="M64 50h1v1h-1z" /><path fill="#8adaf9" d="M36 51h1v1h-1z" /><path fill="#b68ef5" d="M64 51h1v1h-1z" /><path fill="#88d9fb" d="M37 52h1v1h-1z" /><path fill="#c09cf7" d="M64 52h1v1h-1z" /><path fill="#86d8fa" d="M38 53h1v1h-1z" /><path fill="#c9abf7" d="M64 53h1v1h-1z" /><path fill="#83d7fb" d="M39 54h1v1h-1z" /><path fill="#d4bcf8" d="M64 54h1v1h-1z" /><path fill="#17b6f6" d="M6 55h1v1h-1zM16 71h1v1h-1zM19 76h1v1h-1z" /><path fill="#7bd6fb" d="M40 55h1v1h-1z" /><path fill="#e0cefa" d="M64 55h1v1h-1z" /><path fill="#79d5fa" d="M41 56h1v1h-1z" /><path fill="#ebe0fb" d="M64 56h1v1h-1z" /><path fill="#78d4fa" d="M42 57h1v1h-1z" /><path fill="#76d3fa" d="M43 58h1v1h-1z" /><path fill="#faf8fd" d="M64 58h1v1h-1z" /><path fill="#74d2f9" d="M44 59h1v1h-1z" /><path fill="#fffdff" d="M64 59h1v1h-1z" /><path fill="#ad80f4" d="M65 59h1v1h-1z" /><path fill="#73d2fa" d="M45 60h1v1h-1z" /><path fill="#71d3fa" d="M46 61h1v1h-1z" /><path fill="#be9bf5" d="M65 61h1v1h-1zM67 79h1v1h-1z" /><path fill="#72d3f9" d="M47 62h1v1h-1z" /><path fill="#c8abf7" d="M65 62h1v1h-1z" /><path fill="#6fd1f9" d="M48 63h1v1h-1z" /><path fill="#d5bff9" d="M65 63h1v1h-1z" /><path fill="#66cff9" d="M49 64h1v1h-1z" /><path fill="#e2d1fb" d="M65 64h1v1h-1z" /><path fill="#66cef9" d="M50 65h1v1h-1z" /><path fill="#ece3fc" d="M65 65h1v1h-1z" /><path fill="#64cef9" d="M51 66h1v1h-1zM52 67h1v1h-1zM53 68h1v1h-1z" /><path fill="#f6f2fd" d="M65 66h1v1h-1z" /><path fill="#61cdf8" d="M54 69h1v1h-1z" /><path fill="#fdffff" d="M55 69h1v1h-1zM56 70h1v1h-1zM57 71h1v1h-1zM58 72h1v1h-1zM59 73h1v1h-1z" /><path fill="#5fccf8" d="M55 70h1v1h-1zM56 71h1v1h-1z" /><path fill="#be9af6" d="M66 70h1v1h-1z" /><path fill="#caaef7" d="M66 71h1v1h-1z" /><path fill="#5fccf9" d="M57 72h1v1h-1z" /><path fill="#d8c2f9" d="M66 72h1v1h-1z" /><path fill="#58caf8" d="M58 73h1v1h-1z" /><path fill="#e3d5fb" d="M66 73h1v1h-1z" /><path fill="#56c8f8" d="M59 74h1v1h-1z" /><path fill="#fcfdfd" d="M60 74h1v1h-1z" /><path fill="#efe6fc" d="M66 74h1v1h-1z" /><path fill="#55caf8" d="M60 75h1v1h-1z" /><path fill="#fcfdff" d="M61 75h1v1h-1zM62 76h1v1h-1zM63 77h1v1h-1zM64 78h1v1h-1z" /><path fill="#f7f4fd" d="M66 75h1v1h-1z" /><path fill="#54c9f8" d="M61 76h1v1h-1z" /><path fill="#53c9f8" d="M62 77h1v1h-1z" /><path fill="#ab7ff3" d="M67 77h1v1h-1z" /><path fill="#52c8f8" d="M63 78h1v1h-1z" /><path fill="#b389f5" d="M67 78h1v1h-1z" /><path fill="#51c8f7" d="M64 79h1v1h-1z" /><path fill="#fcffff" d="M65 79h1v1h-1zM66 80h1v1h-1z" /><path fill="#51c7f8" d="M65 80h1v1h-1z" /><path fill="#ccb1f8" d="M67 80h1v1h-1z" /><path fill="#4fc6f7" d="M66 81h1v1h-1z" /><path fill="#cabff9" d="M67 81h1v1h-1z" /><path fill="#39abf6" d="M67 82h1v1h-1z" /><path fill="#a97ff3" d="M68 82h1v1h-1z" /><path fill="#36aaf5" d="M68 83h1v1h-1z" /><path fill="#a87ef3" d="M69 83h1v1h-1z" /><path fill="#35aaf5" d="M69 84h1v1h-1z" /><path fill="#a880f4" d="M70 84h1v1h-1zM72 86h1v1h-1z" /><path fill="#31acf4" d="M70 85h1v1h-1z" /><path fill="#2eacf4" d="M71 86h1v1h-1z" /><path fill="#2baef5" d="M72 87h1v1h-1z" /><path fill="#a680f3" d="M73 87h1v1h-1zM74 88h1v1h-1z" /><path fill="#2aaff5" d="M73 88h1v1h-1z" /><path fill="#29aff5" d="M74 89h1v1h-1z" /><path fill="#a580f3" d="M75 89h1v1h-1z" /><path fill="#26b0f5" d="M75 90h1v1h-1z" /><path fill="#25b0f4" d="M76 91h1v1h-1z" /><path fill="#a381f3" d="M77 91h1v1h-1z" /><path fill="#24b1f4" d="M77 92h1v1h-1z" /><path fill="#a382f4" d="M78 92h1v1h-1z" /><path fill="#20b2f5" d="M78 93h1v1h-1z" /><path fill="#a081f3" d="M79 93h1v1h-1zM81 95h1v1h-1z" /><path fill="#21b3f5" d="M79 94h1v1h-1zM80 95h1v1h-1z" /><path fill="#a082f4" d="M80 94h1v1h-1z" /><path fill="#20b3f5" d="M81 96h1v1h-1z" /><path fill="#a082f3" d="M82 96h1v1h-1z" /><path fill="#1db3f6" d="M82 97h1v1h-1zM83 98h1v1h-1z" /><path fill="#9d82f5" d="M83 97h1v1h-1z" /><path fill="#9d84f5" d="M84 98h1v1h-1z" /><path fill="#20b0f6" d="M84 99h1v1h-1z" /><path fill="#9f82f3" d="M85 99h1v1h-1z" /></svg>