<svg xmlns="http://www.w3.org/2000/svg" viewBox="0 0 100 100" width="1em" height="1em"><path fill="#000000" d="M43 0h14v1h-14zM38 1h24v1h-24zM34 2h32v1h-32zM32 3h36v1h-36zM29 4h42v1h-42zM27 5h46v1h-46zM25 6h50v1h-50zM24 7h52v1h-52zM22 8h56v1h-56zM21 9h58v1h-58zM19 10h62v1h-62zM18 11h64v1h-64zM17 12h66v1h-66zM16 13h68v1h-68zM15 14h70v1h-70zM14 15h72v1h-72zM13 16h74v1h-74zM12 17h76v1h-76zM11 18h78v1h-78zM10 19h80v1h-80zM10 20h80v1h-80zM9 21h82v1h-82zM8 22h84v1h-84zM8 23h84v1h-84zM7 24h86v1h-86zM41 25h53v1h-53zM56 26h38v1h-38zM60 27h35v1h-35zM63 28h32v1h-32zM65 29h31v1h-31zM4 30h36v1h-36zM67 30h29v1h-29zM3 31h53v1h-53zM68 31h28v1h-28zM3 32h56v1h-56zM69 32h28v1h-28zM3 33h58v1h-58zM70 33h27v1h-27zM2 34h61v1h-61zM71 34h27v1h-27zM2 35h62v1h-62zM72 35h26v1h-26zM2 36h64v1h-64zM73 36h25v1h-25zM2 37h65v1h-65zM74 37h24v1h-24zM40 38h28v1h-28zM75 38h24v1h-24zM40 39h29v1h-29zM76 39h23v1h-23zM40 40h30v1h-30zM77 40h22v1h-22zM40 41h31v1h-31zM78 41h21v1h-21zM40 42h32v1h-32zM78 42h21v1h-21zM0 43h73v1h-73zM79 43h21v1h-21zM0 44h73v1h-73zM80 44h20v1h-20zM0 45h74v1h-74zM80 45h20v1h-20zM0 46h75v1h-75zM81 46h19v1h-19zM0 47h76v1h-76zM81 47h19v1h-19zM81 48h19v1h-19zM82 49h18v1h-18zM82 50h18v1h-18zM82 51h18v1h-18zM82 52h18v1h-18zM0 53h76v1h-76zM82 53h18v1h-18zM0 54h76v1h-76zM81 54h19v1h-19zM0 55h75v1h-75zM81 55h19v1h-19zM0 56h73v1h-73zM81 56h19v1h-19zM80 57h19v1h-19zM79 58h20v1h-20zM78 59h21v1h-21zM77 60h22v1h-22zM75 61h24v1h-24zM2 62h96v1h-96zM2 63h96v1h-96zM2 64h96v1h-96zM3 65h94v1h-94zM5 71h90v1h-90zM5 72h90v1h-90zM6 73h88v1h-88zM6 74h87v1h-87zM7 75h86v1h-86zM8 76h84v1h-84zM8 77h84v1h-84zM9 78h82v1h-82zM10 79h80v1h-80zM10 80h79v1h-79zM11 81h78v1h-78zM12 82h76v1h-76zM13 83h74v1h-74zM14 84h72v1h-72zM15 85h70v1h-70zM16 86h68v1h-68zM17 87h66v1h-66zM18 88h64v1h-64zM19 89h62v1h-62zM21 90h58v1h-58zM22 91h56v1h-56zM24 92h52v1h-52zM25 93h50v1h-50zM27 94h46v1h-46zM29 95h42v1h-42zM32 96h36v1h-36zM35 97h30v1h-30zM38 98h24v1h-24zM43 99h14v1h-14z" /></svg>