<svg xmlns="http://www.w3.org/2000/svg" viewBox="0 0 100 100" width="1em" height="1em"><path fill="#60dafb" d="M26 6h1v1h-1zM34 6h1v1h-1zM31 10h1v1h-1zM20 13h1v1h-1zM47 14h1v1h-1zM24 15h1v1h-1zM56 16h1v1h-1zM19 17h1v1h-1zM45 18h1v1h-1zM54 21h1v1h-1zM75 24h1v1h-1zM24 25h1v1h-1zM41 25h1v1h-1zM58 26h1v1h-1zM49 29h2v1h-2zM20 30h1v1h-1zM26 31h1v1h-1zM43 31h1v1h-1zM78 32h1v1h-1zM59 35h1v1h-1zM8 38h1v1h-1zM18 38h1v1h-1zM30 42h1v1h-1zM54 42h1v1h-1zM56 44h1v1h-1zM74 44h1v1h-1zM1 45h1v1h-1zM33 46h1v1h-1zM66 47h1v1h-1zM94 49h1v1h-1zM41 50h1v1h-1zM66 51h1v1h-1zM73 51h1v1h-1zM42 53h1v1h-1zM74 54h1v1h-1zM24 55h1v1h-1zM69 55h1v1h-1zM46 57h1v1h-1zM52 57h1v1h-1zM71 59h1v1h-1zM83 59h1v1h-1zM27 60h1v1h-1zM11 62h1v1h-1zM87 62h1v1h-1zM69 63h1v1h-1zM32 68h1v1h-1zM65 68h1v1h-1zM67 68h1v1h-1zM38 69h1v1h-1zM49 69h2v1h-2zM54 70h1v1h-1zM79 71h1v1h-1zM24 73h1v1h-1zM75 74h1v1h-1zM56 75h1v1h-1zM45 80h1v1h-1zM54 80h1v1h-1zM50 82h1v1h-1zM47 84h1v1h-1zM37 86h1v1h-1zM35 87h1v1h-1zM32 88h1v1h-1zM70 88h1v1h-1zM60 90h1v1h-1zM76 90h1v1h-1zM62 91h1v1h-1zM26 92h1v1h-1zM73 92h1v1h-1z" /><path fill="#61dafb" d="M27 6h7v1h-7zM35 6h1v1h-1zM66 6h6v1h-6zM73 6h1v1h-1zM25 7h11v1h-11zM63 7h11v1h-11zM24 8h15v1h-15zM61 8h15v1h-15zM23 9h17v1h-17zM59 9h18v1h-18zM22 10h5v1h-5zM29 10h1v1h-1zM34 10h9v1h-9zM58 10h8v1h-8zM70 10h1v1h-1zM72 10h5v1h-5zM22 11h4v1h-4zM36 11h7v1h-7zM56 11h7v1h-7zM74 11h5v1h-5zM21 12h4v1h-4zM38 12h7v1h-7zM55 12h6v1h-6zM73 12h5v1h-5zM21 13h4v1h-4zM40 13h6v1h-6zM54 13h6v1h-6zM75 13h4v1h-4zM21 14h3v1h-3zM41 14h6v1h-6zM53 14h5v1h-5zM59 14h1v1h-1zM75 14h4v1h-4zM20 15h4v1h-4zM41 15h1v1h-1zM43 15h5v1h-5zM51 15h6v1h-6zM75 15h4v1h-4zM20 16h4v1h-4zM44 16h5v1h-5zM50 16h6v1h-6zM76 16h3v1h-3zM20 17h4v1h-4zM45 17h10v1h-10zM76 17h4v1h-4zM20 18h4v1h-4zM46 18h8v1h-8zM76 18h4v1h-4zM20 19h4v1h-4zM47 19h6v1h-6zM76 19h4v1h-4zM20 20h4v1h-4zM47 20h6v1h-6zM76 20h4v1h-4zM20 21h4v1h-4zM46 21h8v1h-8zM76 21h4v1h-4zM20 22h4v1h-4zM45 22h10v1h-10zM76 22h4v1h-4zM20 23h4v1h-4zM43 23h7v1h-7zM51 23h5v1h-5zM76 23h4v1h-4zM20 24h4v1h-4zM43 24h5v1h-5zM52 24h5v1h-5zM76 24h4v1h-4zM20 25h4v1h-4zM42 25h5v1h-5zM53 25h4v1h-4zM76 25h3v1h-3zM20 26h4v1h-4zM42 26h4v1h-4zM53 26h5v1h-5zM75 26h4v1h-4zM20 27h4v1h-4zM41 27h4v1h-4zM53 27h6v1h-6zM75 27h4v1h-4zM21 28h4v1h-4zM40 28h5v1h-5zM54 28h6v1h-6zM75 28h4v1h-4zM21 29h4v1h-4zM39 29h5v1h-5zM51 29h1v1h-1zM56 29h4v1h-4zM75 29h4v1h-4zM21 30h4v1h-4zM32 30h1v1h-1zM36 30h28v1h-28zM67 30h1v1h-1zM75 30h4v1h-4zM21 31h5v1h-5zM29 31h14v1h-14zM44 31h26v1h-26zM74 31h4v1h-4zM21 32h57v1h-57zM21 33h58v1h-58zM80 33h1v1h-1zM18 34h17v1h-17zM36 34h4v1h-4zM59 34h5v1h-5zM65 34h17v1h-17zM15 35h14v1h-14zM31 35h1v1h-1zM34 35h6v1h-6zM60 35h4v1h-4zM71 35h14v1h-14zM13 36h14v1h-14zM35 36h4v1h-4zM61 36h4v1h-4zM73 36h15v1h-15zM11 37h16v1h-16zM34 37h4v1h-4zM61 37h5v1h-5zM73 37h4v1h-4zM79 37h10v1h-10zM9 38h9v1h-9zM23 38h5v1h-5zM33 38h5v1h-5zM61 38h5v1h-5zM72 38h4v1h-4zM82 38h8v1h-8zM8 39h7v1h-7zM24 39h4v1h-4zM33 39h4v1h-4zM63 39h4v1h-4zM71 39h5v1h-5zM84 39h8v1h-8zM6 40h7v1h-7zM24 40h4v1h-4zM32 40h4v1h-4zM63 40h4v1h-4zM72 40h4v1h-4zM87 40h6v1h-6zM5 41h6v1h-6zM24 41h4v1h-4zM32 41h4v1h-4zM46 41h1v1h-1zM48 41h3v1h-3zM52 41h1v1h-1zM64 41h4v1h-4zM71 41h4v1h-4zM88 41h6v1h-6zM4 42h6v1h-6zM25 42h4v1h-4zM31 42h4v1h-4zM46 42h8v1h-8zM64 42h4v1h-4zM71 42h4v1h-4zM90 42h5v1h-5zM3 43h5v1h-5zM25 43h4v1h-4zM31 43h5v1h-5zM44 43h11v1h-11zM65 43h5v1h-5zM71 43h4v1h-4zM91 43h5v1h-5zM3 44h4v1h-4zM25 44h4v1h-4zM30 44h4v1h-4zM44 44h12v1h-12zM65 44h9v1h-9zM92 44h5v1h-5zM2 45h4v1h-4zM26 45h8v1h-8zM43 45h15v1h-15zM66 45h8v1h-8zM93 45h5v1h-5zM2 46h4v1h-4zM26 46h7v1h-7zM42 46h15v1h-15zM66 46h7v1h-7zM94 46h5v1h-5zM1 47h4v1h-4zM27 47h6v1h-6zM42 47h16v1h-16zM67 47h7v1h-7zM94 47h5v1h-5zM1 48h4v1h-4zM26 48h6v1h-6zM42 48h16v1h-16zM67 48h5v1h-5zM95 48h3v1h-3zM1 49h4v1h-4zM27 49h5v1h-5zM42 49h16v1h-16zM68 49h4v1h-4zM95 49h4v1h-4zM1 50h4v1h-4zM26 50h6v1h-6zM42 50h16v1h-16zM67 50h5v1h-5zM95 50h3v1h-3zM1 51h4v1h-4zM27 51h6v1h-6zM42 51h16v1h-16zM67 51h6v1h-6zM94 51h5v1h-5zM2 52h4v1h-4zM26 52h7v1h-7zM42 52h15v1h-15zM66 52h7v1h-7zM94 52h5v1h-5zM2 53h4v1h-4zM25 53h9v1h-9zM43 53h14v1h-14zM66 53h8v1h-8zM93 53h5v1h-5zM3 54h4v1h-4zM25 54h4v1h-4zM31 54h3v1h-3zM44 54h12v1h-12zM65 54h9v1h-9zM91 54h6v1h-6zM3 55h5v1h-5zM25 55h4v1h-4zM31 55h5v1h-5zM44 55h11v1h-11zM65 55h4v1h-4zM71 55h4v1h-4zM91 55h5v1h-5zM4 56h6v1h-6zM25 56h4v1h-4zM30 56h5v1h-5zM46 56h8v1h-8zM64 56h4v1h-4zM71 56h4v1h-4zM90 56h5v1h-5zM5 57h6v1h-6zM24 57h4v1h-4zM32 57h4v1h-4zM48 57h3v1h-3zM64 57h4v1h-4zM71 57h4v1h-4zM88 57h6v1h-6zM6 58h7v1h-7zM24 58h4v1h-4zM32 58h4v1h-4zM63 58h4v1h-4zM72 58h4v1h-4zM87 58h6v1h-6zM8 59h7v1h-7zM24 59h4v1h-4zM33 59h4v1h-4zM63 59h4v1h-4zM72 59h4v1h-4zM84 59h8v1h-8zM9 60h10v1h-10zM23 60h4v1h-4zM33 60h5v1h-5zM62 60h4v1h-4zM72 60h4v1h-4zM82 60h8v1h-8zM11 61h10v1h-10zM23 61h4v1h-4zM34 61h4v1h-4zM61 61h5v1h-5zM73 61h4v1h-4zM79 61h11v1h-11zM13 62h14v1h-14zM35 62h4v1h-4zM61 62h4v1h-4zM73 62h14v1h-14zM15 63h14v1h-14zM35 63h5v1h-5zM60 63h4v1h-4zM71 63h13v1h-13zM18 64h17v1h-17zM36 64h4v1h-4zM59 64h23v1h-23zM21 65h58v1h-58zM21 66h57v1h-57zM21 67h5v1h-5zM29 67h41v1h-41zM71 67h1v1h-1zM74 67h4v1h-4zM21 68h4v1h-4zM36 68h28v1h-28zM75 68h4v1h-4zM21 69h4v1h-4zM39 69h5v1h-5zM56 69h4v1h-4zM75 69h4v1h-4zM21 70h4v1h-4zM40 70h5v1h-5zM55 70h5v1h-5zM75 70h5v1h-5zM20 71h4v1h-4zM41 71h4v1h-4zM53 71h6v1h-6zM75 71h4v1h-4zM20 72h4v1h-4zM42 72h4v1h-4zM53 72h5v1h-5zM75 72h4v1h-4zM20 73h4v1h-4zM42 73h5v1h-5zM53 73h4v1h-4zM76 73h3v1h-3zM20 74h4v1h-4zM43 74h5v1h-5zM52 74h4v1h-4zM76 74h4v1h-4zM20 75h4v1h-4zM43 75h6v1h-6zM51 75h5v1h-5zM76 75h4v1h-4zM20 76h4v1h-4zM45 76h10v1h-10zM76 76h4v1h-4zM20 77h4v1h-4zM46 77h8v1h-8zM76 77h4v1h-4zM20 78h4v1h-4zM47 78h6v1h-6zM76 78h4v1h-4zM20 79h4v1h-4zM47 79h6v1h-6zM76 79h4v1h-4zM20 80h4v1h-4zM46 80h8v1h-8zM76 80h4v1h-4zM19 81h5v1h-5zM45 81h10v1h-10zM75 81h5v1h-5zM20 82h4v1h-4zM44 82h5v1h-5zM51 82h6v1h-6zM76 82h3v1h-3zM20 83h4v1h-4zM43 83h5v1h-5zM51 83h6v1h-6zM75 83h4v1h-4zM21 84h3v1h-3zM41 84h6v1h-6zM53 84h5v1h-5zM59 84h1v1h-1zM75 84h4v1h-4zM20 85h5v1h-5zM40 85h6v1h-6zM54 85h6v1h-6zM75 85h4v1h-4zM21 86h4v1h-4zM38 86h7v1h-7zM55 86h6v1h-6zM74 86h4v1h-4zM22 87h4v1h-4zM36 87h7v1h-7zM56 87h7v1h-7zM74 87h5v1h-5zM22 88h5v1h-5zM29 88h1v1h-1zM34 88h9v1h-9zM58 88h8v1h-8zM68 88h1v1h-1zM72 88h5v1h-5zM23 89h17v1h-17zM59 89h18v1h-18zM24 90h14v1h-14zM61 90h15v1h-15zM25 91h11v1h-11zM63 91h11v1h-11zM27 92h6v1h-6zM35 92h1v1h-1zM66 92h6v1h-6z" /><path fill="#60d9fa" d="M64 6h1v1h-1zM36 7h1v1h-1zM62 7h1v1h-1zM74 7h1v1h-1zM39 8h1v1h-1zM57 10h1v1h-1zM55 11h1v1h-1zM25 12h1v1h-1zM61 12h1v1h-1zM53 13h1v1h-1zM24 14h1v1h-1zM79 15h1v1h-1zM49 16h1v1h-1zM19 22h1v1h-1zM44 22h1v1h-1zM55 22h1v1h-1zM50 23h1v1h-1zM34 30h1v1h-1zM72 31h1v1h-1zM20 33h1v1h-1zM29 35h1v1h-1zM70 35h1v1h-1zM34 36h1v1h-1zM33 37h1v1h-1zM15 39h1v1h-1zM76 39h1v1h-1zM92 39h1v1h-1zM93 40h1v1h-1zM63 41h1v1h-1zM68 41h1v1h-1zM10 42h1v1h-1zM68 42h1v1h-1zM64 43h1v1h-1zM70 43h1v1h-1zM90 43h1v1h-1zM96 43h1v1h-1zM2 44h1v1h-1zM34 44h1v1h-1zM32 48h1v1h-1zM72 48h1v1h-1zM98 48h1v1h-1zM72 49h1v1h-1zM32 50h1v1h-1zM98 50h1v1h-1zM41 51h1v1h-1zM2 54h1v1h-1zM29 54h1v1h-1zM34 54h1v1h-1zM97 54h1v1h-1zM96 55h1v1h-1zM24 56h1v1h-1zM68 56h1v1h-1zM11 57h1v1h-1zM31 57h1v1h-1zM47 57h1v1h-1zM63 57h1v1h-1zM23 58h1v1h-1zM71 58h1v1h-1zM7 59h1v1h-1zM80 60h1v1h-1zM12 62h1v1h-1zM14 63h1v1h-1zM64 63h1v1h-1zM16 64h2v1h-2zM35 64h1v1h-1zM70 67h1v1h-1zM34 68h2v1h-2zM64 68h1v1h-1zM74 69h1v1h-1zM41 72h1v1h-1zM46 72h1v1h-1zM79 73h1v1h-1zM19 76h1v1h-1zM55 76h1v1h-1zM45 77h1v1h-1zM46 78h1v1h-1zM44 81h1v1h-1zM43 82h1v1h-1zM57 83h1v1h-1zM79 83h1v1h-1zM58 84h1v1h-1zM53 85h1v1h-1zM25 86h1v1h-1zM61 86h1v1h-1zM43 87h1v1h-1zM66 88h1v1h-1zM22 89h1v1h-1zM36 91h1v1h-1zM74 91h1v1h-1z" /><path fill="#60dafa" d="M65 6h1v1h-1zM40 9h1v1h-1zM58 9h1v1h-1zM66 10h1v1h-1zM64 11h1v1h-1zM20 14h1v1h-1zM52 14h1v1h-1zM75 16h1v1h-1zM19 20h1v1h-1zM75 21h1v1h-1zM52 25h1v1h-1zM24 26h1v1h-1zM20 28h1v1h-1zM78 31h1v1h-1zM19 33h1v1h-1zM16 34h2v1h-2zM82 34h1v1h-1zM14 35h1v1h-1zM30 35h1v1h-1zM39 36h1v1h-1zM65 36h1v1h-1zM38 37h1v1h-1zM23 39h1v1h-1zM13 40h1v1h-1zM3 42h1v1h-1zM89 42h1v1h-1zM8 43h1v1h-1zM30 43h1v1h-1zM1 46h1v1h-1zM73 46h1v1h-1zM26 47h1v1h-1zM32 49h1v1h-1zM67 49h1v1h-1zM72 50h1v1h-1zM26 51h1v1h-1zM1 52h1v1h-1zM73 52h1v1h-1zM92 53h1v1h-1zM8 55h1v1h-1zM30 55h1v1h-1zM45 56h1v1h-1zM70 56h1v1h-1zM13 58h1v1h-1zM81 60h1v1h-1zM10 61h1v1h-1zM38 61h1v1h-1zM78 61h1v1h-1zM65 62h1v1h-1zM29 63h1v1h-1zM70 63h1v1h-1zM19 65h1v1h-1zM27 67h2v1h-2zM78 67h1v1h-1zM66 68h1v1h-1zM55 69h1v1h-1zM20 70h1v1h-1zM45 71h1v1h-1zM59 71h1v1h-1zM52 73h1v1h-1zM57 73h1v1h-1zM42 74h1v1h-1zM51 74h1v1h-1zM50 75h1v1h-1zM75 77h1v1h-1zM19 78h1v1h-1zM75 79h1v1h-1zM75 82h1v1h-1zM48 83h1v1h-1zM20 84h1v1h-1zM52 84h1v1h-1zM74 85h1v1h-1zM21 87h1v1h-1zM63 87h1v1h-1zM40 89h1v1h-1zM37 91h1v1h-1zM65 92h1v1h-1zM72 92h1v1h-1z" /><path fill="#61dafa" d="M72 6h1v1h-1zM60 8h1v1h-1zM67 10h1v1h-1zM71 10h1v1h-1zM21 11h1v1h-1zM63 11h1v1h-1zM39 13h1v1h-1zM74 13h1v1h-1zM79 14h1v1h-1zM43 16h1v1h-1zM55 17h1v1h-1zM19 18h1v1h-1zM45 21h1v1h-1zM75 22h1v1h-1zM75 23h1v1h-1zM48 24h1v1h-1zM57 25h1v1h-1zM45 27h1v1h-1zM44 29h1v1h-1zM55 29h1v1h-1zM64 35h1v1h-1zM10 37h1v1h-1zM66 38h1v1h-1zM80 38h1v1h-1zM91 38h1v1h-1zM4 41h1v1h-1zM11 41h1v1h-1zM28 41h1v1h-1zM87 41h1v1h-1zM24 42h1v1h-1zM45 42h1v1h-1zM70 42h1v1h-1zM55 43h1v1h-1zM7 44h1v1h-1zM97 44h1v1h-1zM6 45h1v1h-1zM41 49h1v1h-1zM33 52h1v1h-1zM6 53h1v1h-1zM7 54h1v1h-1zM30 54h1v1h-1zM55 55h1v1h-1zM4 57h1v1h-1zM28 57h1v1h-1zM85 58h1v1h-1zM76 59h1v1h-1zM66 60h1v1h-1zM39 62h1v1h-1zM30 63h1v1h-1zM68 63h1v1h-1zM85 63h1v1h-1zM82 64h1v1h-1zM72 67h1v1h-1zM33 68h1v1h-1zM24 72h1v1h-1zM75 75h1v1h-1zM75 76h1v1h-1zM19 80h1v1h-1zM55 81h1v1h-1zM79 84h1v1h-1zM39 85h1v1h-1zM28 88h1v1h-1zM33 88h1v1h-1zM57 88h1v1h-1zM71 88h1v1h-1zM39 90h1v1h-1zM64 92h1v1h-1z" /><path fill="#61d9fa" d="M24 7h1v1h-1zM37 7h1v1h-1zM22 9h1v1h-1zM27 10h2v1h-2zM33 10h1v1h-1zM77 10h1v1h-1zM26 11h1v1h-1zM43 11h1v1h-1zM73 11h1v1h-1zM62 12h1v1h-1zM78 12h1v1h-1zM58 14h1v1h-1zM42 15h1v1h-1zM48 15h1v1h-1zM57 15h1v1h-1zM79 16h1v1h-1zM44 17h1v1h-1zM75 18h1v1h-1zM19 19h1v1h-1zM75 19h1v1h-1zM46 20h1v1h-1zM19 21h1v1h-1zM42 24h1v1h-1zM51 24h1v1h-1zM75 25h1v1h-1zM79 25h1v1h-1zM41 26h1v1h-1zM46 26h1v1h-1zM79 26h1v1h-1zM24 27h1v1h-1zM40 27h1v1h-1zM59 27h1v1h-1zM74 29h1v1h-1zM33 30h1v1h-1zM35 30h1v1h-1zM64 30h1v1h-1zM66 30h1v1h-1zM74 30h1v1h-1zM27 31h2v1h-2zM70 31h1v1h-1zM79 33h1v1h-1zM35 34h1v1h-1zM40 34h1v1h-1zM58 34h1v1h-1zM64 34h1v1h-1zM85 35h1v1h-1zM12 36h1v1h-1zM60 36h1v1h-1zM78 37h1v1h-1zM76 38h1v1h-1zM81 38h1v1h-1zM90 38h1v1h-1zM7 39h1v1h-1zM32 39h1v1h-1zM62 39h1v1h-1zM5 40h1v1h-1zM23 40h1v1h-1zM36 40h1v1h-1zM62 40h1v1h-1zM67 40h1v1h-1zM71 40h1v1h-1zM85 40h2v1h-2zM31 41h1v1h-1zM36 41h1v1h-1zM47 41h1v1h-1zM51 41h1v1h-1zM75 41h1v1h-1zM94 41h1v1h-1zM35 42h1v1h-1zM95 42h1v1h-1zM29 44h1v1h-1zM43 44h1v1h-1zM42 45h1v1h-1zM57 46h1v1h-1zM5 47h1v1h-1zM41 47h1v1h-1zM94 48h1v1h-1zM94 50h1v1h-1zM5 51h1v1h-1zM57 52h1v1h-1zM43 54h1v1h-1zM64 55h1v1h-1zM70 55h1v1h-1zM90 55h1v1h-1zM3 56h1v1h-1zM10 56h1v1h-1zM35 56h1v1h-1zM89 56h1v1h-1zM95 56h1v1h-1zM36 57h1v1h-1zM51 57h1v1h-1zM68 57h1v1h-1zM75 57h1v1h-1zM87 57h1v1h-1zM94 57h1v1h-1zM5 58h1v1h-1zM36 58h1v1h-1zM62 58h1v1h-1zM67 58h1v1h-1zM86 58h1v1h-1zM93 58h1v1h-1zM15 59h1v1h-1zM23 59h1v1h-1zM32 59h1v1h-1zM62 59h1v1h-1zM92 59h1v1h-1zM76 60h1v1h-1zM90 60h1v1h-1zM22 61h1v1h-1zM33 61h1v1h-1zM34 62h1v1h-1zM60 62h1v1h-1zM84 63h1v1h-1zM40 64h1v1h-1zM58 64h1v1h-1zM20 65h1v1h-1zM79 65h1v1h-1zM74 68h1v1h-1zM60 69h1v1h-1zM39 70h1v1h-1zM24 71h1v1h-1zM40 71h1v1h-1zM79 72h1v1h-1zM75 73h1v1h-1zM48 74h1v1h-1zM56 74h1v1h-1zM44 76h1v1h-1zM19 77h1v1h-1zM19 79h1v1h-1zM75 80h1v1h-1zM49 82h1v1h-1zM79 82h1v1h-1zM42 83h1v1h-1zM24 84h1v1h-1zM62 86h1v1h-1zM78 86h1v1h-1zM26 87h1v1h-1zM55 87h1v1h-1zM64 87h1v1h-1zM73 87h1v1h-1zM27 88h1v1h-1zM67 88h1v1h-1zM77 88h1v1h-1zM58 89h1v1h-1zM38 90h1v1h-1zM24 91h1v1h-1zM33 92h1v1h-1z" /><path fill="#61d9fb" d="M23 8h1v1h-1zM41 9h1v1h-1zM35 11h1v1h-1zM37 12h1v1h-1zM60 13h1v1h-1zM24 16h1v1h-1zM53 20h1v1h-1zM19 23h1v1h-1zM39 28h1v1h-1zM79 28h1v1h-1zM20 29h1v1h-1zM45 29h3v1h-3zM52 29h2v1h-2zM71 31h1v1h-1zM83 34h1v1h-1zM69 35h1v1h-1zM72 37h1v1h-1zM77 37h1v1h-1zM67 39h1v1h-1zM28 40h1v1h-1zM24 43h1v1h-1zM65 45h1v1h-1zM93 46h1v1h-1zM93 52h1v1h-1zM1 53h1v1h-1zM56 54h1v1h-1zM28 58h1v1h-1zM37 59h1v1h-1zM67 59h1v1h-1zM72 61h1v1h-1zM59 63h1v1h-1zM20 68h1v1h-1zM20 69h1v1h-1zM46 69h3v1h-3zM51 69h3v1h-3zM19 75h1v1h-1zM54 77h1v1h-1zM53 78h1v1h-1zM24 82h1v1h-1zM24 83h1v1h-1zM40 84h1v1h-1zM25 85h1v1h-1zM46 85h1v1h-1zM54 86h1v1h-1zM73 86h1v1h-1zM41 89h1v1h-1zM34 92h1v1h-1z" /><path fill="#60d9fb" d="M76 8h1v1h-1zM32 10h1v1h-1zM45 12h1v1h-1zM54 12h1v1h-1zM25 13h1v1h-1zM46 13h1v1h-1zM40 14h1v1h-1zM75 17h1v1h-1zM54 18h1v1h-1zM75 20h1v1h-1zM56 23h1v1h-1zM19 24h1v1h-1zM47 25h1v1h-1zM79 27h1v1h-1zM48 29h1v1h-1zM65 30h1v1h-1zM68 35h1v1h-1zM11 36h1v1h-1zM89 37h1v1h-1zM16 39h1v1h-1zM37 39h1v1h-1zM83 39h1v1h-1zM75 42h1v1h-1zM91 44h1v1h-1zM25 45h1v1h-1zM92 45h1v1h-1zM5 48h1v1h-1zM41 48h1v1h-1zM58 49h1v1h-1zM5 50h1v1h-1zM57 53h1v1h-1zM65 53h1v1h-1zM54 56h1v1h-1zM75 56h1v1h-1zM16 59h1v1h-1zM8 60h1v1h-1zM19 60h1v1h-1zM61 60h1v1h-1zM91 60h1v1h-1zM21 61h1v1h-1zM31 63h1v1h-1zM83 64h1v1h-1zM80 65h1v1h-1zM26 67h1v1h-1zM45 69h1v1h-1zM58 72h1v1h-1zM47 73h1v1h-1zM19 74h1v1h-1zM75 78h1v1h-1zM41 83h1v1h-1zM60 85h1v1h-1zM45 86h1v1h-1zM31 88h1v1h-1zM23 90h1v1h-1z" /><path fill="#61d8fa" d="M46 19h1v1h-1z" /><path fill="#61daf9" d="M53 19h1v1h-1z" /><path fill="#61d9fc" d="M38 29h1v1h-1z" /><path fill="#60dafc" d="M54 29h1v1h-1z" /><path fill="#61dbfa" d="M60 29h1v1h-1z" /><path fill="#61d8f9" d="M73 31h1v1h-1zM29 43h1v1h-1z" /><path fill="#5fd9fa" d="M72 36h1v1h-1z" /><path fill="#60daf9" d="M29 55h1v1h-1z" /><path fill="#62dafb" d="M77 61h1v1h-1z" /><path fill="#5fdafa" d="M72 62h1v1h-1z" /><path fill="#60dcfb" d="M34 63h1v1h-1z" /><path fill="#61d9f9" d="M78 66h1v1h-1z" /><path fill="#62d9f9" d="M73 67h1v1h-1z" /><path fill="#60d9f9" d="M44 69h1v1h-1z" /><path fill="#60dbfc" d="M54 69h1v1h-1z" /><path fill="#60d9fc" d="M49 75h1v1h-1z" /><path fill="#61dbfb" d="M46 79h1v1h-1z" /><path fill="#5fd8f9" d="M53 79h1v1h-1z" /></svg>