<svg xmlns="http://www.w3.org/2000/svg" viewBox="0 0 100 100" width="1em" height="1em"><path fill="#ed0000" d="M49 12h5v1h-5zM32 13h1v1h-1zM48 13h1v1h-1zM56 13h1v1h-1zM38 14h1v1h-1zM58 14h2v1h-2zM29 15h1v1h-1zM39 15h2v1h-2zM45 15h2v1h-2zM61 15h1v1h-1zM63 16h2v1h-2zM68 18h1v1h-1zM74 21h1v1h-1zM77 24h1v1h-1zM77 25h1v1h-1zM24 28h1v1h-1zM23 30h1v1h-1zM79 33h1v1h-1zM80 35h1v1h-1zM80 36h1v1h-1zM13 39h3v1h-3zM8 40h2v1h-2zM6 41h1v1h-1zM4 42h1v1h-1zM3 43h1v1h-1zM2 44h1v1h-1zM1 45h1v1h-1zM1 46h1v1h-1zM0 49h1v1h-1zM0 50h1v1h-1zM85 50h1v1h-1zM88 52h1v1h-1zM0 53h1v1h-1zM90 53h1v1h-1zM91 54h1v1h-1zM1 55h1v1h-1zM92 55h1v1h-1zM1 56h1v1h-1zM2 57h1v1h-1zM95 58h1v1h-1zM96 59h1v1h-1zM6 62h1v1h-1zM7 63h1v1h-1zM9 65h1v1h-1zM99 66h1v1h-1zM13 68h1v1h-1zM99 68h1v1h-1zM16 70h1v1h-1zM99 70h1v1h-1zM17 71h1v1h-1zM18 72h2v1h-2zM22 74h1v1h-1zM98 74h1v1h-1zM24 75h1v1h-1zM30 78h2v1h-2zM33 79h1v1h-1zM95 79h1v1h-1zM36 80h1v1h-1zM38 81h1v1h-1zM41 82h2v1h-2zM47 84h1v1h-1zM49 84h1v1h-1zM87 84h1v1h-1zM52 85h2v1h-2zM84 85h2v1h-2zM58 86h3v1h-3zM80 86h2v1h-2zM74 87h1v1h-1z" /><path fill="#ee0000" d="M33 13h3v1h-3zM49 13h7v1h-7zM30 14h8v1h-8zM47 14h11v1h-11zM30 15h9v1h-9zM47 15h14v1h-14zM62 15h1v1h-1zM29 16h34v1h-34zM28 17h39v1h-39zM28 18h40v1h-40zM69 18h1v1h-1zM27 19h44v1h-44zM27 20h46v1h-46zM27 21h47v1h-47zM26 22h50v1h-50zM26 23h51v1h-51zM25 24h52v1h-52zM25 25h52v1h-52zM25 26h53v1h-53zM24 27h55v1h-55zM25 28h54v1h-54zM24 29h55v1h-55zM24 30h55v1h-55zM23 31h57v1h-57zM23 32h57v1h-57zM23 33h56v1h-56zM23 34h57v1h-57zM23 35h57v1h-57zM23 36h57v1h-57zM24 37h57v1h-57zM25 38h56v1h-56zM12 39h1v1h-1zM16 39h3v1h-3zM26 39h55v1h-55zM10 40h9v1h-9zM27 40h55v1h-55zM7 41h12v1h-12zM28 41h54v1h-54zM5 42h14v1h-14zM29 42h53v1h-53zM4 43h15v1h-15zM31 43h51v1h-51zM3 44h16v1h-16zM32 44h50v1h-50zM2 45h18v1h-18zM34 45h48v1h-48zM2 46h18v1h-18zM35 46h47v1h-47zM0 47h20v1h-20zM37 47h45v1h-45zM0 48h21v1h-21zM39 48h43v1h-43zM1 49h21v1h-21zM41 49h40v1h-40zM1 50h22v1h-22zM44 50h37v1h-37zM0 51h24v1h-24zM46 51h34v1h-34zM85 51h3v1h-3zM0 52h25v1h-25zM49 52h30v1h-30zM85 52h3v1h-3zM1 53h25v1h-25zM53 53h24v1h-24zM85 53h5v1h-5zM1 54h26v1h-26zM59 54h14v1h-14zM85 54h6v1h-6zM2 55h26v1h-26zM85 55h7v1h-7zM2 56h28v1h-28zM85 56h9v1h-9zM3 57h28v1h-28zM85 57h10v1h-10zM3 58h30v1h-30zM85 58h10v1h-10zM3 59h32v1h-32zM84 59h12v1h-12zM4 60h33v1h-33zM84 60h13v1h-13zM5 61h34v1h-34zM83 61h15v1h-15zM7 62h35v1h-35zM82 62h17v1h-17zM8 63h37v1h-37zM80 63h19v1h-19zM8 64h40v1h-40zM78 64h21v1h-21zM10 65h42v1h-42zM76 65h24v1h-24zM10 66h49v1h-49zM71 66h28v1h-28zM11 67h89v1h-89zM14 68h85v1h-85zM14 69h86v1h-86zM15 70h1v1h-1zM17 70h82v1h-82zM18 71h82v1h-82zM20 72h79v1h-79zM20 73h79v1h-79zM23 74h75v1h-75zM25 75h73v1h-73zM26 76h72v1h-72zM28 77h69v1h-69zM32 78h65v1h-65zM32 79h1v1h-1zM34 79h61v1h-61zM35 80h1v1h-1zM37 80h58v1h-58zM39 81h55v1h-55zM43 82h49v1h-49zM44 83h47v1h-47zM48 84h1v1h-1zM50 84h37v1h-37zM54 85h30v1h-30zM57 86h1v1h-1zM61 86h19v1h-19zM67 87h7v1h-7z" /><path fill="#ec0000" d="M22 33h1v1h-1zM30 43h1v1h-1zM33 45h1v1h-1zM43 50h1v1h-1zM83 60h1v1h-1z" /><path fill="#d20000" d="M22 34h1v1h-1z" /><path fill="#ae0000" d="M22 35h1v1h-1z" /><path fill="#000000" d="M21 36h1v1h-1zM21 37h2v1h-2zM21 38h2v1h-2zM20 39h4v1h-4zM20 40h5v1h-5zM20 41h6v1h-6zM20 42h7v1h-7zM20 43h9v1h-9zM20 44h10v1h-10zM21 45h10v1h-10zM21 46h12v1h-12zM22 47h13v1h-13zM22 48h15v1h-15zM83 48h1v1h-1zM23 49h16v1h-16zM24 50h17v1h-17zM82 50h2v1h-2zM25 51h18v1h-18zM82 51h2v1h-2zM26 52h20v1h-20zM81 52h3v1h-3zM28 53h21v1h-21zM79 53h5v1h-5zM29 54h24v1h-24zM77 54h7v1h-7zM30 55h29v1h-29zM73 55h11v1h-11zM32 56h52v1h-52zM33 57h51v1h-51zM35 58h48v1h-48zM37 59h46v1h-46zM40 60h42v1h-42zM42 61h39v1h-39zM45 62h35v1h-35zM48 63h30v1h-30zM52 64h23v1h-23zM59 65h12v1h-12z" /><path fill="#2d0000" d="M22 36h1v1h-1z" /><path fill="#a80000" d="M23 37h1v1h-1zM74 54h1v1h-1z" /><path fill="#090000" d="M20 38h1v1h-1zM24 39h1v1h-1zM20 45h1v1h-1z" /><path fill="#030000" d="M23 38h1v1h-1zM83 49h1v1h-1zM59 55h1v1h-1zM44 62h1v1h-1z" /><path fill="#d60000" d="M24 38h1v1h-1zM48 64h1v1h-1z" /><path fill="#e40000" d="M19 39h1v1h-1z" /><path fill="#dd0000" d="M25 39h1v1h-1z" /><path fill="#950000" d="M19 40h1v1h-1z" /><path fill="#0d0000" d="M25 40h1v1h-1zM21 47h1v1h-1zM46 52h1v1h-1z" /><path fill="#db0000" d="M26 40h1v1h-1zM38 48h1v1h-1z" /><path fill="#680000" d="M19 41h1v1h-1zM40 61h1v1h-1z" /><path fill="#060000" d="M26 41h1v1h-1zM82 49h1v1h-1zM49 53h1v1h-1zM76 54h1v1h-1zM72 55h1v1h-1zM31 56h1v1h-1z" /><path fill="#ce0000" d="M27 41h1v1h-1zM40 49h1v1h-1zM57 54h1v1h-1z" /><path fill="#520000" d="M19 42h1v1h-1zM73 65h1v1h-1z" /><path fill="#020000" d="M27 42h1v1h-1zM83 58h1v1h-1zM75 64h1v1h-1z" /><path fill="#a50000" d="M28 42h1v1h-1z" /><path fill="#770000" d="M19 43h1v1h-1zM81 50h1v1h-1z" /><path fill="#600000" d="M29 43h1v1h-1z" /><path fill="#b90000" d="M19 44h1v1h-1z" /><path fill="#150000" d="M30 44h1v1h-1z" /><path fill="#d10000" d="M31 44h1v1h-1zM45 51h1v1h-1z" /><path fill="#e80000" d="M82 44h1v1h-1zM84 58h1v1h-1zM70 66h1v1h-1z" /><path fill="#010000" d="M31 45h1v1h-1zM81 51h1v1h-1zM80 52h1v1h-1zM27 53h1v1h-1zM39 60h1v1h-1zM58 65h1v1h-1z" /><path fill="#740000" d="M32 45h1v1h-1z" /><path fill="#c30000" d="M82 45h1v1h-1z" /><path fill="#780000" d="M20 46h1v1h-1z" /><path fill="#0f0000" d="M33 46h1v1h-1zM60 55h1v1h-1z" /><path fill="#bc0000" d="M34 46h1v1h-1zM21 48h1v1h-1z" /><path fill="#aa0000" d="M82 46h1v1h-1zM77 53h1v1h-1z" /><path fill="#eb0000" d="M20 47h1v1h-1zM81 49h1v1h-1zM84 50h1v1h-1zM75 65h1v1h-1z" /><path fill="#310000" d="M35 47h1v1h-1zM62 55h1v1h-1z" /><path fill="#d30000" d="M36 47h1v1h-1z" /><path fill="#900000" d="M82 47h1v1h-1z" /><path fill="#480000" d="M37 48h1v1h-1z" /><path fill="#4e0000" d="M82 48h1v1h-1zM46 63h1v1h-1z" /><path fill="#840000" d="M22 49h1v1h-1z" /><path fill="#3b0000" d="M39 49h1v1h-1zM50 64h1v1h-1z" /><path fill="#550000" d="M23 50h1v1h-1z" /><path fill="#250000" d="M41 50h1v1h-1z" /><path fill="#a20000" d="M42 50h1v1h-1z" /><path fill="#500000" d="M24 51h1v1h-1z" /><path fill="#050000" d="M43 51h1v1h-1zM53 54h1v1h-1zM71 65h1v1h-1z" /><path fill="#5a0000" d="M44 51h1v1h-1zM65 55h1v1h-1zM68 55h1v1h-1z" /><path fill="#b00000" d="M80 51h1v1h-1z" /><path fill="#c00000" d="M84 51h1v1h-1zM27 54h1v1h-1zM77 64h1v1h-1z" /><path fill="#5e0000" d="M25 52h1v1h-1zM47 52h1v1h-1z" /><path fill="#cb0000" d="M48 52h1v1h-1z" /><path fill="#850000" d="M79 52h1v1h-1z" /><path fill="#7e0000" d="M84 52h1v1h-1z" /><path fill="#910000" d="M26 53h1v1h-1zM84 57h1v1h-1z" /><path fill="#340000" d="M50 53h1v1h-1z" /><path fill="#880000" d="M51 53h1v1h-1zM65 66h1v1h-1z" /><path fill="#d80000" d="M52 53h1v1h-1z" /><path fill="#100000" d="M78 53h1v1h-1z" /><path fill="#3f0000" d="M84 53h1v1h-1zM43 62h1v1h-1z" /><path fill="#080000" d="M28 54h1v1h-1zM57 65h1v1h-1z" /><path fill="#220000" d="M54 54h1v1h-1zM84 54h1v1h-1z" /><path fill="#560000" d="M55 54h1v1h-1z" /><path fill="#960000" d="M56 54h1v1h-1z" /><path fill="#ea0000" d="M58 54h1v1h-1z" /><path fill="#e00000" d="M73 54h1v1h-1zM39 61h1v1h-1z" /><path fill="#460000" d="M75 54h1v1h-1z" /><path fill="#e70000" d="M28 55h1v1h-1zM31 57h1v1h-1zM52 65h1v1h-1zM59 66h1v1h-1z" /><path fill="#3a0000" d="M29 55h1v1h-1z" /><path fill="#240000" d="M61 55h1v1h-1zM84 55h1v1h-1z" /><path fill="#450000" d="M63 55h1v1h-1z" /><path fill="#4a0000" d="M64 55h1v1h-1z" /><path fill="#670000" d="M66 55h1v1h-1z" /><path fill="#5f0000" d="M67 55h1v1h-1z" /><path fill="#4b0000" d="M69 55h1v1h-1z" /><path fill="#2e0000" d="M70 55h1v1h-1z" /><path fill="#1a0000" d="M71 55h1v1h-1zM56 65h1v1h-1z" /><path fill="#a00000" d="M30 56h1v1h-1z" /><path fill="#420000" d="M84 56h1v1h-1zM80 62h1v1h-1z" /><path fill="#540000" d="M32 57h1v1h-1z" /><path fill="#d00000" d="M33 58h1v1h-1z" /><path fill="#300000" d="M34 58h1v1h-1zM76 64h1v1h-1z" /><path fill="#c60000" d="M35 59h1v1h-1z" /><path fill="#260000" d="M36 59h1v1h-1z" /><path fill="#6f0000" d="M83 59h1v1h-1z" /><path fill="#cd0000" d="M37 60h1v1h-1z" /><path fill="#3e0000" d="M38 60h1v1h-1z" /><path fill="#1e0000" d="M82 60h1v1h-1z" /><path fill="#0b0000" d="M41 61h1v1h-1zM51 64h1v1h-1z" /><path fill="#160000" d="M81 61h1v1h-1z" /><path fill="#e60000" d="M82 61h1v1h-1z" /><path fill="#bd0000" d="M42 62h1v1h-1z" /><path fill="#e90000" d="M81 62h1v1h-1z" /><path fill="#b60000" d="M45 63h1v1h-1zM53 65h1v1h-1z" /><path fill="#0a0000" d="M47 63h1v1h-1z" /><path fill="#190000" d="M78 63h1v1h-1z" /><path fill="#b20000" d="M79 63h1v1h-1z" /><path fill="#8b0000" d="M49 64h1v1h-1z" /><path fill="#7b0000" d="M54 65h1v1h-1z" /><path fill="#430000" d="M55 65h1v1h-1z" /><path fill="#1b0000" d="M72 65h1v1h-1z" /><path fill="#b30000" d="M74 65h1v1h-1z" /><path fill="#c80000" d="M60 66h1v1h-1z" /><path fill="#b50000" d="M61 66h1v1h-1zM68 66h1v1h-1z" /><path fill="#a30000" d="M62 66h1v1h-1z" /><path fill="#9f0000" d="M63 66h1v1h-1zM67 66h1v1h-1z" /><path fill="#890000" d="M64 66h1v1h-1z" /><path fill="#8e0000" d="M66 66h1v1h-1z" /><path fill="#c50000" d="M69 66h1v1h-1z" /></svg>