<svg xmlns="http://www.w3.org/2000/svg" viewBox="0 0 100 100" width="1em" height="1em"><path fill="#7649bc" d="M44 3h2v1h-2zM36 6h1v1h-1zM32 9h1v1h-1zM44 9h1v1h-1zM53 9h2v1h-2zM60 13h1v1h-1zM74 28h1v1h-1zM21 29h1v1h-1zM20 35h1v1h-1zM20 36h1v1h-1zM55 36h1v1h-1zM62 37h1v1h-1zM64 37h1v1h-1zM36 39h1v1h-1zM71 39h1v1h-1zM73 40h1v1h-1zM75 41h1v1h-1zM61 42h1v1h-1zM38 44h1v1h-1zM70 45h1v1h-1zM21 50h1v1h-1zM15 51h1v1h-1zM14 54h1v1h-1zM22 54h1v1h-1zM69 55h1v1h-1zM5 57h1v1h-1zM30 59h1v1h-1zM74 59h1v1h-1zM95 59h1v1h-1zM89 60h1v1h-1zM61 61h1v1h-1zM90 61h1v1h-1zM61 62h1v1h-1zM97 63h1v1h-1zM33 64h1v1h-1zM74 65h1v1h-1zM98 65h1v1h-1zM27 66h1v1h-1zM63 67h1v1h-1zM5 68h1v1h-1zM40 69h1v1h-1zM99 69h1v1h-1zM5 72h1v1h-1zM94 74h1v1h-1zM5 75h1v1h-1zM5 76h1v1h-1zM6 79h1v1h-1zM1 81h1v1h-1zM92 82h1v1h-1zM98 82h1v1h-1zM90 84h1v1h-1zM40 88h1v1h-1zM87 88h1v1h-1zM93 89h1v1h-1zM24 91h1v1h-1zM28 91h1v1h-1zM13 94h1v1h-1zM40 94h1v1h-1zM68 97h1v1h-1zM76 97h1v1h-1z" /><path fill="#754abc" d="M46 3h1v1h-1zM56 4h1v1h-1zM63 8h1v1h-1zM64 9h1v1h-1zM30 11h1v1h-1zM66 11h1v1h-1zM35 14h1v1h-1zM61 14h1v1h-1zM34 15h1v1h-1zM62 15h1v1h-1zM25 18h1v1h-1zM27 28h1v1h-1zM26 34h1v1h-1zM38 34h1v1h-1zM58 36h1v1h-1zM67 38h2v1h-2zM36 40h1v1h-1zM20 42h1v1h-1zM47 44h1v1h-1zM26 45h1v1h-1zM82 45h1v1h-1zM83 46h1v1h-1zM12 49h1v1h-1zM79 50h1v1h-1zM89 51h1v1h-1zM84 54h1v1h-1zM66 55h2v1h-2zM63 57h1v1h-1zM73 57h1v1h-1zM87 57h1v1h-1zM4 58h1v1h-1zM88 58h1v1h-1zM31 61h1v1h-1zM8 62h1v1h-1zM32 63h1v1h-1zM7 64h1v1h-1zM0 71h1v1h-1zM27 71h1v1h-1zM27 72h1v1h-1zM27 73h1v1h-1zM66 73h1v1h-1zM94 73h1v1h-1zM0 76h1v1h-1zM38 76h1v1h-1zM51 81h1v1h-1zM60 81h1v1h-1zM8 83h1v1h-1zM9 84h1v1h-1zM56 85h1v1h-1zM44 86h1v1h-1zM4 87h1v1h-1zM13 88h1v1h-1zM85 89h1v1h-1zM7 90h1v1h-1zM18 90h1v1h-1zM92 90h1v1h-1zM29 91h1v1h-1zM81 91h1v1h-1zM88 93h1v1h-1zM15 95h1v1h-1zM81 96h1v1h-1zM70 97h1v1h-1z" /><path fill="#7549bb" d="M47 3h1v1h-1zM58 5h1v1h-1zM45 9h1v1h-1zM31 10h1v1h-1zM42 10h1v1h-1zM39 11h1v1h-1zM29 12h1v1h-1zM69 15h1v1h-1zM30 20h1v1h-1zM73 24h1v1h-1zM22 25h1v1h-1zM28 25h1v1h-1zM21 28h1v1h-1zM74 29h1v1h-1zM26 32h1v1h-1zM42 32h2v1h-2zM46 33h1v1h-1zM73 33h1v1h-1zM37 35h1v1h-1zM53 36h1v1h-1zM56 36h1v1h-1zM58 42h1v1h-1zM20 46h1v1h-1zM13 48h1v1h-1zM78 49h1v1h-1zM15 50h1v1h-1zM81 51h1v1h-1zM91 53h1v1h-1zM28 54h1v1h-1zM6 55h1v1h-1zM68 55h1v1h-1zM10 59h1v1h-1zM7 63h1v1h-1zM93 68h1v1h-1zM99 71h1v1h-1zM60 72h1v1h-1zM29 76h1v1h-1zM64 76h1v1h-1zM63 78h1v1h-1zM93 79h1v1h-1zM91 83h1v1h-1zM47 84h1v1h-1zM86 88h1v1h-1zM47 91h1v1h-1zM91 91h1v1h-1zM9 92h1v1h-1zM43 93h1v1h-1zM19 96h1v1h-1zM33 96h1v1h-1zM73 97h1v1h-1z" /><path fill="#764abb" d="M48 3h2v1h-2zM52 3h2v1h-2zM41 4h1v1h-1zM38 5h1v1h-1zM58 11h1v1h-1zM33 16h1v1h-1zM63 16h1v1h-1zM31 19h1v1h-1zM73 25h1v1h-1zM70 32h1v1h-1zM20 33h1v1h-1zM47 34h1v1h-1zM72 40h1v1h-1zM77 42h1v1h-1zM79 43h1v1h-1zM84 47h2v1h-2zM26 48h1v1h-1zM21 49h1v1h-1zM9 52h1v1h-1zM5 56h1v1h-1zM11 57h1v1h-1zM23 57h1v1h-1zM29 58h1v1h-1zM62 58h1v1h-1zM74 58h1v1h-1zM89 59h1v1h-1zM75 61h1v1h-1zM91 63h1v1h-1zM6 65h1v1h-1zM39 67h1v1h-1zM93 67h1v1h-1zM70 68h1v1h-1zM68 69h1v1h-1zM0 70h1v1h-1zM99 72h1v1h-1zM0 73h1v1h-1zM5 73h1v1h-1zM5 74h1v1h-1zM63 77h1v1h-1zM99 77h1v1h-1zM61 80h1v1h-1zM93 80h1v1h-1zM2 84h1v1h-1zM9 85h1v1h-1zM90 85h1v1h-1zM96 86h1v1h-1zM52 88h1v1h-1zM15 89h1v1h-1zM33 90h1v1h-1zM27 91h1v1h-1zM45 92h1v1h-1zM89 92h1v1h-1zM59 94h1v1h-1zM86 94h1v1h-1zM60 95h1v1h-1zM18 96h1v1h-1zM80 96h1v1h-1zM75 97h1v1h-1z" /><path fill="#764abc" d="M50 3h1v1h-1zM43 4h12v1h-12zM40 5h18v1h-18zM37 6h23v1h-23zM35 7h26v1h-26zM35 8h28v1h-28zM33 9h11v1h-11zM55 9h9v1h-9zM32 10h9v1h-9zM57 10h9v1h-9zM31 11h8v1h-8zM59 11h7v1h-7zM30 12h8v1h-8zM59 12h9v1h-9zM29 13h7v1h-7zM61 13h7v1h-7zM28 14h7v1h-7zM62 14h7v1h-7zM28 15h6v1h-6zM63 15h6v1h-6zM26 16h7v1h-7zM64 16h6v1h-6zM26 17h6v1h-6zM64 17h6v1h-6zM26 18h5v1h-5zM65 18h6v1h-6zM25 19h6v1h-6zM65 19h6v1h-6zM25 20h5v1h-5zM66 20h6v1h-6zM24 21h6v1h-6zM67 21h5v1h-5zM24 22h5v1h-5zM67 22h5v1h-5zM23 23h6v1h-6zM68 23h5v1h-5zM23 24h5v1h-5zM68 24h5v1h-5zM23 25h5v1h-5zM68 25h5v1h-5zM22 26h6v1h-6zM69 26h5v1h-5zM22 27h6v1h-6zM69 27h5v1h-5zM22 28h5v1h-5zM69 28h5v1h-5zM22 29h5v1h-5zM69 29h5v1h-5zM21 30h6v1h-6zM69 30h6v1h-6zM21 31h5v1h-5zM70 31h5v1h-5zM21 32h5v1h-5zM41 32h1v1h-1zM72 32h3v1h-3zM21 33h5v1h-5zM39 33h7v1h-7zM74 33h1v1h-1zM21 34h5v1h-5zM39 34h8v1h-8zM21 35h5v1h-5zM38 35h10v1h-10zM21 36h5v1h-5zM37 36h16v1h-16zM20 37h6v1h-6zM37 37h25v1h-25zM20 38h6v1h-6zM37 38h29v1h-29zM20 39h6v1h-6zM37 39h34v1h-34zM20 40h6v1h-6zM37 40h35v1h-35zM21 41h5v1h-5zM37 41h38v1h-38zM21 42h5v1h-5zM38 42h11v1h-11zM59 42h1v1h-1zM62 42h15v1h-15zM21 43h5v1h-5zM38 43h11v1h-11zM64 43h1v1h-1zM66 43h13v1h-13zM21 44h5v1h-5zM39 44h8v1h-8zM68 44h12v1h-12zM21 45h5v1h-5zM41 45h4v1h-4zM71 45h11v1h-11zM21 46h5v1h-5zM72 46h1v1h-1zM74 46h9v1h-9zM21 47h5v1h-5zM74 47h1v1h-1zM76 47h8v1h-8zM14 48h1v1h-1zM21 48h5v1h-5zM77 48h9v1h-9zM13 49h2v1h-2zM22 49h5v1h-5zM79 49h8v1h-8zM12 50h3v1h-3zM22 50h5v1h-5zM80 50h8v1h-8zM10 51h5v1h-5zM22 51h6v1h-6zM82 51h7v1h-7zM10 52h6v1h-6zM22 52h5v1h-5zM83 52h8v1h-8zM8 53h8v1h-8zM23 53h5v1h-5zM84 53h7v1h-7zM8 54h6v1h-6zM23 54h5v1h-5zM85 54h7v1h-7zM7 55h6v1h-6zM23 55h5v1h-5zM70 55h1v1h-1zM85 55h7v1h-7zM6 56h6v1h-6zM23 56h6v1h-6zM65 56h8v1h-8zM87 56h6v1h-6zM6 57h5v1h-5zM24 57h6v1h-6zM64 57h9v1h-9zM88 57h6v1h-6zM5 58h6v1h-6zM24 58h5v1h-5zM63 58h11v1h-11zM89 58h6v1h-6zM4 59h6v1h-6zM25 59h5v1h-5zM62 59h12v1h-12zM90 59h5v1h-5zM4 60h5v1h-5zM25 60h5v1h-5zM62 60h13v1h-13zM90 60h6v1h-6zM3 61h5v1h-5zM25 61h6v1h-6zM62 61h13v1h-13zM91 61h6v1h-6zM3 62h5v1h-5zM26 62h5v1h-5zM62 62h14v1h-14zM91 62h6v1h-6zM2 63h5v1h-5zM26 63h6v1h-6zM62 63h13v1h-13zM92 63h5v1h-5zM2 64h5v1h-5zM27 64h5v1h-5zM34 64h1v1h-1zM62 64h13v1h-13zM92 64h6v1h-6zM2 65h4v1h-4zM27 65h11v1h-11zM63 65h11v1h-11zM93 65h5v1h-5zM1 66h6v1h-6zM28 66h11v1h-11zM64 66h9v1h-9zM93 66h5v1h-5zM1 67h5v1h-5zM28 67h11v1h-11zM64 67h9v1h-9zM94 67h5v1h-5zM1 68h4v1h-4zM28 68h12v1h-12zM63 68h7v1h-7zM94 68h5v1h-5zM1 69h4v1h-4zM27 69h13v1h-13zM63 69h5v1h-5zM94 69h5v1h-5zM1 70h4v1h-4zM28 70h13v1h-13zM62 70h6v1h-6zM94 70h5v1h-5zM1 71h4v1h-4zM28 71h13v1h-13zM62 71h5v1h-5zM94 71h5v1h-5zM1 72h4v1h-4zM28 72h13v1h-13zM61 72h6v1h-6zM95 72h4v1h-4zM1 73h4v1h-4zM28 73h13v1h-13zM60 73h6v1h-6zM95 73h4v1h-4zM1 74h4v1h-4zM29 74h11v1h-11zM59 74h7v1h-7zM95 74h5v1h-5zM1 75h4v1h-4zM29 75h11v1h-11zM58 75h7v1h-7zM95 75h4v1h-4zM1 76h4v1h-4zM30 76h8v1h-8zM58 76h6v1h-6zM94 76h5v1h-5zM0 77h6v1h-6zM32 77h4v1h-4zM56 77h7v1h-7zM94 77h5v1h-5zM1 78h5v1h-5zM56 78h7v1h-7zM94 78h5v1h-5zM1 79h5v1h-5zM55 79h7v1h-7zM94 79h5v1h-5zM1 80h6v1h-6zM54 80h7v1h-7zM94 80h5v1h-5zM2 81h5v1h-5zM52 81h8v1h-8zM93 81h5v1h-5zM2 82h6v1h-6zM51 82h8v1h-8zM93 82h5v1h-5zM3 83h5v1h-5zM50 83h9v1h-9zM92 83h6v1h-6zM3 84h6v1h-6zM48 84h9v1h-9zM91 84h7v1h-7zM3 85h6v1h-6zM46 85h10v1h-10zM91 85h5v1h-5zM4 86h6v1h-6zM45 86h10v1h-10zM90 86h6v1h-6zM5 87h7v1h-7zM43 87h11v1h-11zM89 87h6v1h-6zM6 88h7v1h-7zM41 88h11v1h-11zM88 88h6v1h-6zM6 89h9v1h-9zM38 89h13v1h-13zM86 89h7v1h-7zM8 90h9v1h-9zM34 90h1v1h-1zM36 90h13v1h-13zM62 90h2v1h-2zM84 90h8v1h-8zM9 91h12v1h-12zM25 91h1v1h-1zM30 91h17v1h-17zM60 91h7v1h-7zM68 91h1v1h-1zM80 91h1v1h-1zM82 91h9v1h-9zM10 92h35v1h-35zM60 92h15v1h-15zM76 92h13v1h-13zM12 93h31v1h-31zM58 93h30v1h-30zM14 94h25v1h-25zM60 94h26v1h-26zM16 95h20v1h-20zM62 95h21v1h-21zM84 95h1v1h-1zM21 96h10v1h-10zM32 96h1v1h-1zM66 96h14v1h-14zM69 97h1v1h-1z" /><path fill="#7549bc" d="M51 3h1v1h-1zM42 4h1v1h-1zM55 4h1v1h-1zM34 8h1v1h-1zM56 10h1v1h-1zM36 13h1v1h-1zM27 15h1v1h-1zM32 17h1v1h-1zM31 18h1v1h-1zM72 22h1v1h-1zM44 32h1v1h-1zM36 37h1v1h-1zM66 38h1v1h-1zM20 41h1v1h-1zM37 42h1v1h-1zM60 42h1v1h-1zM45 45h1v1h-1zM75 47h1v1h-1zM76 48h1v1h-1zM11 50h1v1h-1zM22 53h1v1h-1zM83 53h1v1h-1zM92 55h1v1h-1zM86 56h1v1h-1zM94 57h1v1h-1zM8 61h1v1h-1zM1 64h1v1h-1zM32 64h1v1h-1zM1 65h1v1h-1zM73 66h1v1h-1zM71 68h1v1h-1zM62 69h1v1h-1zM68 70h1v1h-1zM5 71h1v1h-1zM61 71h1v1h-1zM59 73h1v1h-1zM28 74h1v1h-1zM94 75h1v1h-1zM57 76h1v1h-1zM99 76h1v1h-1zM99 78h1v1h-1zM62 79h1v1h-1zM53 80h1v1h-1zM96 85h1v1h-1zM10 86h1v1h-1zM55 86h1v1h-1zM42 87h1v1h-1zM94 88h1v1h-1zM17 90h1v1h-1zM35 90h1v1h-1zM8 91h1v1h-1zM21 91h2v1h-2zM11 93h1v1h-1zM57 93h1v1h-1zM61 95h1v1h-1zM83 95h1v1h-1zM74 97h1v1h-1z" /><path fill="#7649bb" d="M39 5h1v1h-1zM60 6h1v1h-1zM33 8h1v1h-1zM41 10h1v1h-1zM64 18h1v1h-1zM71 19h1v1h-1zM24 20h1v1h-1zM23 22h1v1h-1zM29 22h1v1h-1zM67 24h1v1h-1zM68 27h1v1h-1zM74 27h1v1h-1zM26 31h1v1h-1zM26 33h1v1h-1zM48 35h1v1h-1zM54 36h1v1h-1zM20 43h1v1h-1zM20 44h1v1h-1zM67 44h1v1h-1zM80 44h1v1h-1zM20 45h1v1h-1zM14 47h1v1h-1zM86 48h1v1h-1zM87 49h1v1h-1zM88 50h1v1h-1zM21 51h1v1h-1zM7 54h1v1h-1zM28 55h1v1h-1zM64 56h1v1h-1zM93 56h1v1h-1zM3 60h1v1h-1zM9 60h1v1h-1zM24 60h1v1h-1zM30 60h1v1h-1zM25 62h1v1h-1zM31 62h1v1h-1zM75 63h1v1h-1zM26 64h1v1h-1zM35 64h1v1h-1zM92 65h1v1h-1zM63 66h1v1h-1zM98 66h1v1h-1zM93 69h1v1h-1zM27 70h1v1h-1zM99 73h1v1h-1zM0 74h1v1h-1zM99 75h1v1h-1zM31 77h1v1h-1zM36 77h1v1h-1zM55 78h1v1h-1zM54 79h1v1h-1zM7 81h1v1h-1zM92 81h1v1h-1zM98 81h1v1h-1zM50 82h1v1h-1zM59 82h1v1h-1zM2 83h1v1h-1zM57 84h1v1h-1zM88 87h1v1h-1zM95 87h1v1h-1zM5 88h1v1h-1zM37 89h1v1h-1zM61 90h1v1h-1zM64 90h1v1h-1zM23 91h1v1h-1zM26 91h1v1h-1zM36 95h1v1h-1zM20 96h1v1h-1zM31 96h1v1h-1zM64 96h1v1h-1zM72 97h1v1h-1z" /><path fill="#754abb" d="M61 7h1v1h-1zM28 13h1v1h-1zM70 17h1v1h-1zM66 21h1v1h-1zM72 21h1v1h-1zM67 23h1v1h-1zM28 24h1v1h-1zM68 26h1v1h-1zM69 31h1v1h-1zM71 32h1v1h-1zM20 34h1v1h-1zM57 36h1v1h-1zM63 37h1v1h-1zM36 38h1v1h-1zM36 41h1v1h-1zM65 43h1v1h-1zM40 45h1v1h-1zM26 46h1v1h-1zM73 46h1v1h-1zM26 47h1v1h-1zM27 52h1v1h-1zM82 52h1v1h-1zM13 55h1v1h-1zM12 56h1v1h-1zM24 59h1v1h-1zM2 62h1v1h-1zM62 65h1v1h-1zM0 68h1v1h-1zM40 68h1v1h-1zM0 69h1v1h-1zM5 69h1v1h-1zM5 70h1v1h-1zM99 70h1v1h-1zM67 71h1v1h-1zM0 72h1v1h-1zM67 72h1v1h-1zM94 72h1v1h-1zM0 75h1v1h-1zM65 75h1v1h-1zM49 83h1v1h-1zM45 85h1v1h-1zM89 86h1v1h-1zM12 87h1v1h-1zM49 90h1v1h-1zM83 90h1v1h-1zM67 91h1v1h-1zM59 92h1v1h-1zM75 92h1v1h-1zM39 94h1v1h-1zM58 94h1v1h-1zM37 95h1v1h-1zM65 96h1v1h-1zM71 97h1v1h-1zM77 97h1v1h-1z" /></svg>