<svg xmlns="http://www.w3.org/2000/svg" viewBox="0 0 100 100" width="1em" height="1em"><path fill="#000000" d="M70 0h10v1h-10zM66 1h17v1h-17zM64 2h21v1h-21zM62 3h25v1h-25zM60 4h29v1h-29zM59 5h31v1h-31zM58 6h33v1h-33zM57 7h35v1h-35zM56 8h37v1h-37zM55 9h39v1h-39zM54 10h41v1h-41zM54 11h42v1h-42zM53 12h43v1h-43zM53 13h44v1h-44zM52 14h45v1h-45zM52 15h46v1h-46zM51 16h47v1h-47zM51 17h47v1h-47zM51 18h48v1h-48zM50 19h49v1h-49zM50 20h49v1h-49zM50 21h49v1h-49zM50 22h49v1h-49zM50 23h50v1h-50zM49 24h51v1h-51zM49 25h51v1h-51zM49 26h51v1h-51zM49 27h50v1h-50zM48 28h51v1h-51zM48 29h51v1h-51zM47 30h52v1h-52zM47 31h52v1h-52zM46 32h52v1h-52zM46 33h52v1h-52zM45 34h53v1h-53zM45 35h52v1h-52zM44 36h53v1h-53zM43 37h53v1h-53zM42 38h54v1h-54zM41 39h54v1h-54zM40 40h54v1h-54zM39 41h54v1h-54zM38 42h54v1h-54zM37 43h54v1h-54zM35 44h55v1h-55zM34 45h55v1h-55zM0 46h2v1h-2zM32 46h55v1h-55zM0 47h5v1h-5zM30 47h55v1h-55zM0 48h7v1h-7zM27 48h56v1h-56zM0 49h12v1h-12zM23 49h57v1h-57zM0 50h59v1h-59zM0 51h56v1h-56zM0 52h55v1h-55zM0 53h54v1h-54zM0 54h53v1h-53zM0 55h52v1h-52zM0 56h51v1h-51zM0 57h51v1h-51zM0 58h50v1h-50zM0 59h50v1h-50zM0 60h50v1h-50zM0 61h50v1h-50zM0 62h50v1h-50zM0 63h50v1h-50zM0 64h50v1h-50zM0 65h50v1h-50zM0 66h50v1h-50zM0 67h50v1h-50zM0 68h50v1h-50zM0 69h50v1h-50zM0 70h50v1h-50zM0 71h50v1h-50zM0 72h50v1h-50zM0 73h50v1h-50zM0 74h50v1h-50zM0 75h50v1h-50zM0 76h50v1h-50zM0 77h50v1h-50zM0 78h50v1h-50zM0 79h50v1h-50zM0 80h50v1h-50zM0 81h50v1h-50zM0 82h50v1h-50zM0 83h50v1h-50zM0 84h50v1h-50zM0 85h50v1h-50zM0 86h50v1h-50zM0 87h50v1h-50zM0 88h50v1h-50zM0 89h50v1h-50zM0 90h50v1h-50zM0 91h50v1h-50zM0 92h50v1h-50zM0 93h50v1h-50zM0 94h50v1h-50zM0 95h50v1h-50zM0 96h50v1h-50zM0 97h50v1h-50zM0 98h50v1h-50zM0 99h50v1h-50z" /></svg>