<svg xmlns="http://www.w3.org/2000/svg" viewBox="0 0 100 100"><path fill="#fd5301" fill-rule="evenodd" d="M12 0h1v1h-1zm33 0h1v1h-1zm-37 5h1v1h-1zm0 22h1v1h-1zm79 5h2v1h-2zm5 3h1v1h-1zm1 3h1v24h-1zm-1 26h1v1h-1zm-2 2h1v1h-1zm-3 1h1v1h-1zm-79 5h1v1h-1zm0 22h1v1h-1zm4 5h1v1h-1z"/><path fill="#fc5302" fill-rule="evenodd" d="M13 0h2v1h-2zm30 0h2v1h-2zm4 2h1v1h-1zm-38 1h1v1h-1zm3 28h1v1h-1zm79 3h1v1h-1zm1 2h1v1h-1zm0 27h1v1h-1zm-3 3h1v1h-1zm-79 3h1v1h-1zm-1 27h1v1h-1zm5 3h1v1h-1zm29 0h2v1h-2z"/><path fill="#fd5402" fill-rule="evenodd" d="M15 0h28v1h3v1h1v1h1v1h1v28h-36v-1h-2v-1h-1v-1h-1v-25h1v-2h2v-1h3zm35 33h40v1h1v1h1v2h1v26h-1v2h-1v1h-2v1h-39zm-37 35h36v28h-1v1h-1v1h-1v1h-3v1h-28v-1h-3v-1h-2v-2h-1v-25h1v-1h1v-1h2z"/><path fill="#fd5401" fill-rule="evenodd" d="M10 1h1v1h-1zm-2 5h1v21h-1zm1 23h1v1h-1zm2 2h1v1h-1zm38 1h38v1h-38zm41 1h1v1h-1zm1 32h1v1h-1zm-41 2h37v1h-37zm-39 1h1v1h-1zm-2 2h1v1h-1zm-1 3h1v21h-1zm37 26h1v1h-1z"/><path fill="#fc5402" fill-rule="evenodd" d="M11 1h1v1h-1zm35 0h1v1h-1zm2 2h1v1h-1zm-38 27h1v1h-1zm2 38h1v1h-1zm36 28h1v1h-1zm0 1v1h-1v-1zm-1 1v1h-1v-1zm-36 0h1v1h-1zm2 1h1v1h-1z"/></svg>