<svg xmlns="http://www.w3.org/2000/svg" viewBox="0 0 100 100" width="1em" height="1em"><path fill="#000000" d="M0 40h11v1h-11zM96 40h4v1h-4zM0 41h13v1h-13zM96 41h4v1h-4zM0 42h14v1h-14zM96 42h4v1h-4zM0 43h15v1h-15zM96 43h4v1h-4zM0 44h4v1h-4zM10 44h6v1h-6zM96 44h4v1h-4zM0 45h4v1h-4zM11 45h5v1h-5zM23 45h4v1h-4zM39 45h4v1h-4zM56 45h3v1h-3zM68 45h3v1h-3zM75 45h3v1h-3zM90 45h3v1h-3zM96 45h4v1h-4zM0 46h4v1h-4zM11 46h5v1h-5zM21 46h8v1h-8zM36 46h10v1h-10zM53 46h9v1h-9zM68 46h3v1h-3zM72 46h8v1h-8zM87 46h8v1h-8zM96 46h4v1h-4zM0 47h4v1h-4zM11 47h5v1h-5zM19 47h12v1h-12zM35 47h12v1h-12zM52 47h11v1h-11zM68 47h13v1h-13zM86 47h14v1h-14zM0 48h4v1h-4zM11 48h5v1h-5zM18 48h6v1h-6zM26 48h5v1h-5zM35 48h4v1h-4zM43 48h5v1h-5zM51 48h6v1h-6zM58 48h6v1h-6zM68 48h14v1h-14zM85 48h15v1h-15zM0 49h4v1h-4zM10 49h5v1h-5zM18 49h4v1h-4zM28 49h4v1h-4zM35 49h3v1h-3zM44 49h4v1h-4zM51 49h4v1h-4zM60 49h5v1h-5zM68 49h5v1h-5zM77 49h5v1h-5zM85 49h5v1h-5zM94 49h6v1h-6zM0 50h15v1h-15zM18 50h4v1h-4zM28 50h4v1h-4zM34 50h5v1h-5zM50 50h4v1h-4zM61 50h4v1h-4zM68 50h4v1h-4zM78 50h4v1h-4zM85 50h4v1h-4zM95 50h5v1h-5zM0 51h14v1h-14zM17 51h16v1h-16zM35 51h8v1h-8zM50 51h15v1h-15zM68 51h4v1h-4zM78 51h4v1h-4zM84 51h5v1h-5zM96 51h4v1h-4zM0 52h13v1h-13zM17 52h16v1h-16zM35 52h11v1h-11zM50 52h15v1h-15zM68 52h4v1h-4zM78 52h4v1h-4zM84 52h5v1h-5zM96 52h4v1h-4zM0 53h13v1h-13zM17 53h16v1h-16zM36 53h11v1h-11zM50 53h15v1h-15zM68 53h4v1h-4zM78 53h4v1h-4zM84 53h5v1h-5zM96 53h4v1h-4zM0 54h4v1h-4zM9 54h4v1h-4zM17 54h5v1h-5zM40 54h8v1h-8zM50 54h4v1h-4zM68 54h4v1h-4zM78 54h4v1h-4zM84 54h5v1h-5zM96 54h4v1h-4zM0 55h4v1h-4zM9 55h5v1h-5zM18 55h4v1h-4zM29 55h3v1h-3zM44 55h4v1h-4zM50 55h4v1h-4zM61 55h4v1h-4zM68 55h4v1h-4zM78 55h4v1h-4zM85 55h4v1h-4zM95 55h5v1h-5zM0 56h4v1h-4zM10 56h4v1h-4zM18 56h4v1h-4zM28 56h4v1h-4zM34 56h4v1h-4zM44 56h4v1h-4zM51 56h4v1h-4zM60 56h5v1h-5zM68 56h4v1h-4zM78 56h4v1h-4zM85 56h5v1h-5zM95 56h5v1h-5zM0 57h4v1h-4zM10 57h5v1h-5zM18 57h6v1h-6zM26 57h6v1h-6zM35 57h5v1h-5zM43 57h5v1h-5zM51 57h6v1h-6zM59 57h5v1h-5zM68 57h4v1h-4zM78 57h4v1h-4zM85 57h15v1h-15zM0 58h4v1h-4zM11 58h4v1h-4zM19 58h12v1h-12zM35 58h12v1h-12zM52 58h12v1h-12zM68 58h4v1h-4zM78 58h4v1h-4zM86 58h14v1h-14zM0 59h4v1h-4zM11 59h5v1h-5zM20 59h10v1h-10zM36 59h10v1h-10zM53 59h9v1h-9zM68 59h4v1h-4zM78 59h4v1h-4zM87 59h8v1h-8zM96 59h4v1h-4zM0 60h4v1h-4zM12 60h4v1h-4zM23 60h4v1h-4zM39 60h5v1h-5zM56 60h4v1h-4zM68 60h3v1h-3zM78 60h4v1h-4zM89 60h4v1h-4zM97 60h3v1h-3z" /></svg>