<svg xmlns="http://www.w3.org/2000/svg" viewBox="0 0 100 100" width="1em" height="1em"><path fill="#ff3333" d="M15 0h42v1h-42zM60 0h1v1h-1zM14 1h50v1h-50zM14 2h54v1h-54zM14 3h55v1h-55zM14 4h58v1h-58zM14 5h59v1h-59zM14 6h60v1h-60zM14 7h47v1h-47zM71 7h4v1h-4zM14 8h44v1h-44zM74 8h3v1h-3zM14 9h42v1h-42zM77 9h1v1h-1zM14 10h40v1h-40zM14 11h39v1h-39zM14 12h38v1h-38zM14 13h37v1h-37zM14 14h37v1h-37zM14 15h36v1h-36zM14 16h35v1h-35zM14 17h34v1h-34zM14 18h34v1h-34zM14 19h33v1h-33zM14 20h32v1h-32zM14 21h32v1h-32zM14 22h31v1h-31zM14 23h30v1h-30zM14 24h30v1h-30zM14 25h29v1h-29zM14 26h29v1h-29zM14 27h28v1h-28zM14 28h27v1h-27zM14 29h27v1h-27zM14 30h26v1h-26zM14 31h26v1h-26zM14 32h25v1h-25zM14 33h25v1h-25zM14 34h24v1h-24zM14 35h23v1h-23zM14 36h17v1h-17zM14 37h2v1h-2zM14 38h1v1h-1zM14 39h1v1h-1zM80 85h2v1h-2zM80 86h3v1h-3zM79 87h4v1h-4zM78 88h5v1h-5zM77 89h7v1h-7zM77 90h7v1h-7zM76 91h9v1h-9zM75 92h11v1h-11zM74 93h12v1h-12zM74 94h13v1h-13zM73 95h14v1h-14zM72 96h16v1h-16zM71 97h17v1h-17zM70 98h17v1h-17z" /><path fill="#ff3232" d="M57 0h3v1h-3zM64 1h1v1h-1zM69 3h1v1h-1zM73 5h1v1h-1zM74 6h1v1h-1zM75 7h1v1h-1zM81 84h1v1h-1zM83 88h1v1h-1zM84 90h1v1h-1zM87 98h1v1h-1z" /><path fill="#ff4b3c" d="M61 7h1v1h-1z" /><path fill="#fd6e4c" d="M62 7h1v1h-1z" /><path fill="#fd8454" d="M63 7h1v1h-1z" /><path fill="#fc955c" d="M64 7h3v1h-3z" /><path fill="#fc8b58" d="M67 7h1v1h-1z" /><path fill="#fd7d51" d="M68 7h1v1h-1z" /><path fill="#fd5d44" d="M69 7h1v1h-1z" /><path fill="#ff3b37" d="M70 7h1v1h-1z" /><path fill="#fd6146" d="M58 8h1v1h-1z" /><path fill="#fcac68" d="M59 8h1v1h-1z" /><path fill="#fbc676" d="M60 8h1v1h-1z" /><path fill="#fcc879" d="M61 8h9v1h-9zM58 9h4v1h-4zM57 10h2v1h-2zM55 11h3v1h-3zM54 12h2v1h-2zM53 13h2v1h-2z" /><path fill="#fbc578" d="M70 8h1v1h-1z" /><path fill="#fbbe73" d="M71 8h1v1h-1z" /><path fill="#fd9e64" d="M72 8h1v1h-1z" /><path fill="#fd5f46" d="M73 8h1v1h-1z" /><path fill="#fd5842" d="M56 9h1v1h-1zM45 22h1v1h-1z" /><path fill="#fcbc6f" d="M57 9h1v1h-1z" /><path fill="#fcc778" d="M62 9h1v1h-1zM59 10h1v1h-1zM52 14h2v1h-2z" /><path fill="#fcc36e" d="M63 9h1v1h-1zM48 22h1v1h-1zM41 32h1v1h-1zM40 33h2v1h-2zM39 34h2v1h-2z" /><path fill="#fcbf65" d="M64 9h1v1h-1zM47 24h1v1h-1zM38 39h1v1h-1zM34 46h1v1h-1zM31 49h2v1h-2zM31 50h1v1h-1zM30 51h2v1h-2z" /><path fill="#fcbd5f" d="M65 9h1v1h-1zM44 29h1v1h-1zM32 50h1v1h-1zM28 57h1v1h-1zM25 60h2v1h-2zM25 61h1v1h-1zM24 62h2v1h-2z" /><path fill="#fcbb5a" d="M66 9h3v1h-3zM40 36h1v1h-1zM36 43h1v1h-1zM31 52h1v1h-1zM20 70h2v1h-2zM20 71h1v1h-1z" /><path fill="#fcbb5d" d="M69 9h1v1h-1z" /><path fill="#fcbb62" d="M70 9h1v1h-1z" /><path fill="#fcbc69" d="M71 9h1v1h-1z" /><path fill="#fcbf74" d="M72 9h1v1h-1z" /><path fill="#fcbf79" d="M73 9h1v1h-1z" /><path fill="#fcb874" d="M74 9h1v1h-1z" /><path fill="#fc855a" d="M75 9h1v1h-1z" /><path fill="#ff3836" d="M76 9h1v1h-1zM52 12h1v1h-1z" /><path fill="#ff3433" d="M54 10h1v1h-1zM78 10h1v1h-1zM51 13h1v1h-1zM69 33h1v1h-1zM68 34h2v1h-2zM31 36h6v1h-6zM16 37h20v1h-20zM15 38h18v1h-18zM15 39h4v1h-4zM14 40h1v1h-1zM14 41h1v1h-1z" /><path fill="#fc915a" d="M55 10h1v1h-1z" /><path fill="#fbc777" d="M56 10h1v1h-1z" /><path fill="#fcc067" d="M60 10h1v1h-1zM42 32h1v1h-1zM35 44h1v1h-1zM33 46h1v1h-1zM32 47h2v1h-2z" /><path fill="#fbb751" d="M61 10h1v1h-1zM50 20h1v1h-1zM13 85h1v1h-1zM13 88h1v1h-1z" /><path fill="#fbb141" d="M62 10h1v1h-1zM46 27h1v1h-1zM39 39h1v1h-1zM34 48h1v1h-1zM28 59h1v1h-1z" /><path fill="#fbb040" d="M63 10h1v1h-1zM60 11h1v1h-1zM58 12h2v1h-2zM57 13h2v1h-2zM56 14h2v1h-2zM55 15h2v1h-2zM54 16h3v1h-3zM53 17h3v1h-3zM53 18h3v1h-3zM52 19h4v1h-4zM51 20h5v1h-5zM50 21h6v1h-6zM50 22h6v1h-6zM49 23h7v1h-7zM48 24h8v1h-8zM48 25h9v1h-9zM47 26h10v1h-10zM47 27h10v1h-10zM46 28h10v1h-10zM45 29h11v1h-11zM45 30h10v1h-10zM44 31h10v1h-10zM44 32h10v1h-10zM43 33h10v1h-10zM42 34h10v1h-10zM42 35h10v1h-10zM41 36h10v1h-10zM41 37h9v1h-9zM40 38h10v1h-10zM40 39h9v1h-9zM39 40h9v1h-9zM38 41h10v1h-10zM38 42h9v1h-9zM37 43h9v1h-9zM37 44h9v1h-9zM36 45h9v1h-9zM36 46h8v1h-8zM35 47h8v1h-8zM35 48h8v1h-8zM34 49h8v1h-8zM33 50h8v1h-8zM33 51h8v1h-8zM32 52h8v1h-8zM32 53h7v1h-7zM31 54h8v1h-8zM31 55h7v1h-7zM30 56h7v1h-7zM30 57h7v1h-7zM29 58h7v1h-7zM29 59h6v1h-6zM28 60h7v1h-7zM28 61h6v1h-6zM27 62h6v1h-6zM27 63h6v1h-6zM26 64h6v1h-6zM25 65h6v1h-6zM25 66h6v1h-6zM24 67h6v1h-6zM24 68h5v1h-5zM23 69h6v1h-6zM23 70h5v1h-5zM22 71h5v1h-5zM22 72h4v1h-4zM21 73h5v1h-5zM21 74h4v1h-4zM21 75h3v1h-3zM20 76h4v1h-4zM20 77h3v1h-3zM19 78h3v1h-3zM19 79h3v1h-3zM18 80h3v1h-3zM18 81h2v1h-2zM18 82h2v1h-2zM17 83h2v1h-2zM17 84h1v1h-1zM16 85h2v1h-2zM16 86h1v1h-1zM15 88h1v1h-1z" /><path fill="#faae3f" d="M64 10h1v1h-1zM56 17h1v1h-1zM57 27h1v1h-1z" /><path fill="#f6a33f" d="M65 10h1v1h-1z" /><path fill="#f2923d" d="M66 10h1v1h-1z" /><path fill="#ee823c" d="M67 10h1v1h-1z" /><path fill="#ed813c" d="M68 10h1v1h-1z" /><path fill="#ed803c" d="M69 10h1v1h-1z" /><path fill="#f38a3c" d="M70 10h1v1h-1z" /><path fill="#f6953d" d="M71 10h1v1h-1z" /><path fill="#f9a23f" d="M72 10h1v1h-1z" /><path fill="#fba647" d="M73 10h1v1h-1z" /><path fill="#fbab57" d="M74 10h1v1h-1z" /><path fill="#fcb36a" d="M75 10h1v1h-1z" /><path fill="#fbb575" d="M76 10h1v1h-1z" /><path fill="#ff7954" d="M77 10h1v1h-1z" /><path fill="#ff3533" d="M53 11h1v1h-1zM41 28h1v1h-1zM69 32h2v1h-2zM68 33h1v1h-1zM67 34h1v1h-1zM37 35h1v1h-1zM33 38h3v1h-3zM19 39h16v1h-16zM15 40h20v1h-20zM15 41h6v1h-6z" /><path fill="#fcb26b" d="M54 11h1v1h-1zM52 13h1v1h-1z" /><path fill="#fcc169" d="M58 11h1v1h-1zM35 42h2v1h-2zM35 43h1v1h-1z" /><path fill="#fbb44a" d="M59 11h1v1h-1zM32 51h1v1h-1zM25 64h1v1h-1zM19 76h1v1h-1zM16 83h1v1h-1z" /><path fill="#fab040" d="M61 11h1v1h-1z" /><path fill="#f2943d" d="M62 11h1v1h-1z" /><path fill="#db5838" d="M63 11h1v1h-1z" /><path fill="#c53738" d="M64 11h1v1h-1z" /><path fill="#c33338" d="M65 11h1v1h-1zM64 12h2v1h-2zM64 13h1v1h-1zM63 14h1v1h-1zM62 15h1v1h-1zM61 16h2v1h-2zM61 17h1v1h-1zM60 18h1v1h-1zM59 19h1v1h-1zM58 20h1v1h-1zM58 21h1v1h-1zM57 22h1v1h-1z" /><path fill="#c43338" d="M66 11h2v1h-2zM66 12h1v1h-1zM65 13h1v1h-1zM64 14h1v1h-1zM63 15h2v1h-2zM63 16h1v1h-1zM62 17h1v1h-1zM61 18h1v1h-1zM60 19h1v1h-1zM59 20h2v1h-2zM59 21h1v1h-1zM58 22h1v1h-1zM57 23h1v1h-1z" /><path fill="#c53338" d="M68 11h1v1h-1zM67 12h1v1h-1zM66 13h1v1h-1zM65 14h1v1h-1zM65 15h1v1h-1zM64 16h1v1h-1zM63 17h1v1h-1zM62 18h1v1h-1zM61 19h2v1h-2zM61 20h1v1h-1zM60 21h1v1h-1zM59 22h1v1h-1zM58 23h1v1h-1zM58 24h1v1h-1z" /><path fill="#c63337" d="M69 11h1v1h-1zM68 12h1v1h-1zM67 13h2v1h-2zM67 14h1v1h-1zM66 15h1v1h-1zM65 16h1v1h-1zM64 17h1v1h-1zM63 18h2v1h-2zM63 19h1v1h-1zM62 20h1v1h-1zM61 21h1v1h-1zM60 22h2v1h-2zM60 23h1v1h-1zM59 24h1v1h-1zM58 25h1v1h-1z" /><path fill="#c73337" d="M70 11h1v1h-1zM69 12h2v1h-2zM69 13h1v1h-1zM68 14h1v1h-1zM67 15h1v1h-1zM66 16h1v1h-1zM65 17h2v1h-2zM65 18h1v1h-1zM64 19h1v1h-1zM63 20h1v1h-1zM62 21h2v1h-2zM62 22h1v1h-1zM61 23h1v1h-1zM60 24h1v1h-1zM59 25h1v1h-1zM58 26h2v1h-2z" /><path fill="#c83337" d="M71 11h2v1h-2zM71 12h1v1h-1zM70 13h1v1h-1zM69 14h1v1h-1zM68 15h1v1h-1zM67 16h2v1h-2zM67 17h1v1h-1zM66 18h1v1h-1zM65 19h1v1h-1zM64 20h2v1h-2zM64 21h1v1h-1zM63 22h1v1h-1zM62 23h1v1h-1zM61 24h1v1h-1zM60 25h2v1h-2zM60 26h1v1h-1zM59 27h1v1h-1z" /><path fill="#d23d38" d="M73 11h1v1h-1z" /><path fill="#e65d3a" d="M74 11h1v1h-1z" /><path fill="#f3823d" d="M75 11h1v1h-1z" /><path fill="#fb9b47" d="M76 11h1v1h-1z" /><path fill="#fca65f" d="M77 11h1v1h-1z" /><path fill="#fca66d" d="M78 11h1v1h-1z" /><path fill="#ff463c" d="M79 11h1v1h-1z" /><path fill="#fcb76d" d="M53 12h1v1h-1z" /><path fill="#fcc777" d="M56 12h1v1h-1zM51 15h2v1h-2zM51 16h2v1h-2zM50 17h2v1h-2z" /><path fill="#fcba59" d="M57 12h1v1h-1zM19 73h1v1h-1z" /><path fill="#f69f3e" d="M60 12h1v1h-1z" /><path fill="#d04938" d="M61 12h1v1h-1z" /><path fill="#c13338" d="M62 12h1v1h-1zM61 13h2v1h-2zM61 14h1v1h-1zM60 15h1v1h-1zM59 16h1v1h-1zM58 17h1v1h-1zM57 18h2v1h-2zM57 19h1v1h-1z" /><path fill="#c23338" d="M63 12h1v1h-1zM63 13h1v1h-1zM62 14h1v1h-1zM61 15h1v1h-1zM60 16h1v1h-1zM59 17h2v1h-2zM59 18h1v1h-1zM58 19h1v1h-1zM57 20h1v1h-1zM57 21h1v1h-1z" /><path fill="#c93337" d="M72 12h1v1h-1zM71 13h1v1h-1zM70 14h1v1h-1zM69 15h2v1h-2zM69 16h1v1h-1zM68 17h1v1h-1zM67 18h1v1h-1zM66 19h2v1h-2zM66 20h1v1h-1zM65 21h1v1h-1zM64 22h1v1h-1zM63 23h1v1h-1zM62 24h2v1h-2zM62 25h1v1h-1zM61 26h1v1h-1zM60 27h1v1h-1zM60 28h1v1h-1z" /><path fill="#ca3337" d="M73 12h1v1h-1zM72 13h1v1h-1zM71 14h2v1h-2zM71 15h1v1h-1zM70 16h1v1h-1zM69 17h1v1h-1zM68 18h2v1h-2zM68 19h1v1h-1zM65 22h1v1h-1zM64 23h1v1h-1zM63 25h1v1h-1zM62 26h1v1h-1zM61 27h1v1h-1zM60 29h1v1h-1z" /><path fill="#cb3337" d="M74 12h1v1h-1zM73 13h2v1h-2zM73 14h1v1h-1zM72 15h1v1h-1zM71 16h1v1h-1zM70 17h1v1h-1zM70 18h1v1h-1zM69 19h1v1h-1zM68 20h1v1h-1z" /><path fill="#cc3337" d="M75 12h1v1h-1zM75 13h1v1h-1zM74 14h1v1h-1zM73 15h1v1h-1zM72 16h1v1h-1zM71 17h2v1h-2zM71 18h1v1h-1zM70 19h1v1h-1zM69 20h1v1h-1zM69 21h1v1h-1z" /><path fill="#d03736" d="M76 12h1v1h-1z" /><path fill="#e85c39" d="M77 12h1v1h-1z" /><path fill="#fa9044" d="M78 12h1v1h-1z" /><path fill="#fa9f5f" d="M79 12h1v1h-1z" /><path fill="#fd5f4a" d="M80 12h1v1h-1z" /><path fill="#fcc676" d="M55 13h1v1h-1zM53 15h1v1h-1zM49 18h2v1h-2zM49 19h1v1h-1z" /><path fill="#fbb64e" d="M56 13h1v1h-1zM38 40h1v1h-1z" /><path fill="#ed873d" d="M59 13h1v1h-1z" /><path fill="#c13538" d="M60 13h1v1h-1z" /><path fill="#cd3337" d="M76 13h1v1h-1zM75 14h1v1h-1zM74 15h1v1h-1zM73 16h2v1h-2zM73 17h1v1h-1zM72 18h1v1h-1zM71 19h1v1h-1zM70 20h2v1h-2zM70 21h1v1h-1zM69 22h1v1h-1z" /><path fill="#ce3337" d="M77 13h1v1h-1zM76 14h1v1h-1zM75 15h2v1h-2zM75 16h1v1h-1zM74 17h1v1h-1zM73 18h1v1h-1zM72 19h2v1h-2zM72 20h1v1h-1zM71 21h1v1h-1zM70 22h1v1h-1z" /><path fill="#d03438" d="M78 13h1v1h-1z" /><path fill="#e9573a" d="M79 13h1v1h-1z" /><path fill="#f98f4d" d="M80 13h1v1h-1z" /><path fill="#fd724f" d="M81 13h1v1h-1z" /><path fill="#fc9e60" d="M51 14h1v1h-1z" /><path fill="#fcc674" d="M54 14h1v1h-1zM47 21h2v1h-2z" /><path fill="#fbb54c" d="M55 14h1v1h-1z" /><path fill="#f1903d" d="M58 14h1v1h-1z" /><path fill="#c03338" d="M59 14h2v1h-2zM59 15h1v1h-1zM58 16h1v1h-1z" /><path fill="#c53337" d="M66 14h1v1h-1zM59 23h1v1h-1z" /><path fill="#cf3337" d="M77 14h2v1h-2zM77 15h1v1h-1zM76 16h1v1h-1zM75 17h1v1h-1zM74 18h2v1h-2zM74 19h1v1h-1zM73 20h1v1h-1zM72 21h1v1h-1zM71 22h1v1h-1zM70 23h2v1h-2zM70 24h1v1h-1z" /><path fill="#d03337" d="M79 14h1v1h-1zM78 15h1v1h-1zM77 16h1v1h-1zM76 17h2v1h-2zM76 18h1v1h-1zM75 19h1v1h-1zM74 20h1v1h-1zM73 21h1v1h-1zM72 22h2v1h-2zM72 23h1v1h-1zM71 24h1v1h-1z" /><path fill="#d53738" d="M80 14h1v1h-1z" /><path fill="#f5733f" d="M81 14h1v1h-1z" /><path fill="#fd7b51" d="M50 15h1v1h-1z" /><path fill="#fbb64d" d="M54 15h1v1h-1zM42 33h1v1h-1zM33 49h1v1h-1zM27 60h1v1h-1zM14 88h1v1h-1z" /><path fill="#f9ac3f" d="M57 15h1v1h-1z" /><path fill="#c33837" d="M58 15h1v1h-1z" /><path fill="#d13337" d="M79 15h1v1h-1zM78 16h2v1h-2zM78 17h1v1h-1zM77 18h1v1h-1zM76 19h1v1h-1zM75 20h1v1h-1zM74 21h2v1h-2zM74 22h1v1h-1zM73 23h1v1h-1zM72 24h1v1h-1zM71 25h2v1h-2zM71 26h1v1h-1z" /><path fill="#d23337" d="M80 15h1v1h-1zM79 17h1v1h-1zM78 18h1v1h-1zM77 19h1v1h-1zM76 20h1v1h-1zM76 21h1v1h-1zM75 22h1v1h-1zM74 23h1v1h-1zM73 24h1v1h-1zM72 26h1v1h-1z" /><path fill="#d23336" d="M81 15h1v1h-1zM80 16h1v1h-1zM77 20h1v1h-1zM74 24h1v1h-1zM73 25h1v1h-1z" /><path fill="#ea5238" d="M82 15h1v1h-1z" /><path fill="#fd503f" d="M49 16h1v1h-1z" /><path fill="#fbc575" d="M50 16h1v1h-1z" /><path fill="#fbb854" d="M53 16h1v1h-1zM43 31h1v1h-1zM39 38h1v1h-1zM15 82h1v1h-1z" /><path fill="#e16a3a" d="M57 16h1v1h-1z" /><path fill="#d33336" d="M81 16h1v1h-1zM80 17h1v1h-1zM79 18h1v1h-1zM78 19h2v1h-2zM78 20h1v1h-1zM77 21h1v1h-1zM76 22h1v1h-1zM75 23h2v1h-2zM75 24h1v1h-1zM74 25h1v1h-1zM73 26h1v1h-1zM72 27h1v1h-1zM72 28h1v1h-1z" /><path fill="#d43336" d="M82 16h1v1h-1zM81 17h1v1h-1zM80 18h2v1h-2zM80 19h1v1h-1zM79 20h1v1h-1zM78 21h1v1h-1zM77 22h2v1h-2zM77 23h1v1h-1zM76 24h1v1h-1zM75 25h1v1h-1zM74 26h1v1h-1zM73 27h2v1h-2zM73 28h1v1h-1zM53 54h1v1h-1zM50 58h1v1h-1zM49 59h1v1h-1zM46 63h1v1h-1zM43 67h1v1h-1z" /><path fill="#e13f37" d="M83 16h1v1h-1z" /><path fill="#ff3934" d="M48 17h1v1h-1z" /><path fill="#fcc271" d="M49 17h1v1h-1z" /><path fill="#fcbc5d" d="M52 17h1v1h-1zM23 65h1v1h-1z" /><path fill="#c43839" d="M57 17h1v1h-1z" /><path fill="#d53336" d="M82 17h2v1h-2zM82 18h1v1h-1zM81 19h1v1h-1zM80 20h1v1h-1zM79 21h1v1h-1zM79 22h1v1h-1zM78 23h1v1h-1zM77 24h1v1h-1zM76 25h1v1h-1zM75 26h2v1h-2zM75 27h1v1h-1zM74 28h1v1h-1zM73 29h1v1h-1zM73 30h1v1h-1zM59 48h1v1h-1zM58 49h1v1h-1zM57 50h1v1h-1zM56 51h1v1h-1zM55 52h1v1h-1zM54 53h2v1h-2zM54 54h1v1h-1zM53 55h1v1h-1zM52 56h1v1h-1zM51 57h2v1h-2zM51 58h1v1h-1zM50 59h1v1h-1zM49 60h1v1h-1zM48 61h1v1h-1zM47 62h2v1h-2zM47 63h1v1h-1zM46 64h1v1h-1zM45 65h1v1h-1zM44 66h2v1h-2zM44 67h1v1h-1zM43 68h1v1h-1zM42 69h1v1h-1zM41 70h2v1h-2zM41 71h1v1h-1zM40 72h1v1h-1zM39 73h1v1h-1zM38 75h1v1h-1zM37 76h1v1h-1z" /><path fill="#e63334" d="M84 17h1v1h-1z" /><path fill="#fca664" d="M48 18h1v1h-1z" /><path fill="#fcc16a" d="M51 18h1v1h-1zM45 27h1v1h-1zM39 37h1v1h-1zM35 41h2v1h-2z" /><path fill="#fbb041" d="M52 18h1v1h-1zM43 32h1v1h-1zM27 61h1v1h-1zM26 63h1v1h-1zM20 75h1v1h-1zM19 77h1v1h-1zM17 82h1v1h-1z" /><path fill="#f3993d" d="M56 18h1v1h-1z" /><path fill="#d63336" d="M83 18h1v1h-1zM82 19h1v1h-1zM81 20h1v1h-1zM80 21h2v1h-2zM80 22h1v1h-1zM79 23h1v1h-1zM78 24h1v1h-1zM77 25h2v1h-2zM77 26h1v1h-1zM76 27h1v1h-1zM75 28h1v1h-1zM74 29h2v1h-2zM74 30h1v1h-1zM73 31h1v1h-1zM62 45h1v1h-1zM61 46h1v1h-1zM60 47h2v1h-2zM60 48h1v1h-1zM59 49h1v1h-1zM58 50h1v1h-1zM57 51h1v1h-1zM56 52h2v1h-2zM56 53h1v1h-1zM55 54h1v1h-1zM54 55h1v1h-1zM53 56h2v1h-2zM53 57h1v1h-1zM52 58h1v1h-1zM51 59h1v1h-1zM50 60h1v1h-1zM49 61h2v1h-2zM49 62h1v1h-1zM48 63h1v1h-1zM47 64h1v1h-1zM46 65h2v1h-2zM46 66h1v1h-1zM45 67h1v1h-1zM44 68h1v1h-1zM43 69h1v1h-1zM43 70h1v1h-1zM42 71h1v1h-1zM41 72h1v1h-1zM40 73h1v1h-1zM39 74h2v1h-2zM39 75h1v1h-1zM38 76h1v1h-1zM37 77h1v1h-1zM36 78h2v1h-2zM36 79h1v1h-1zM35 80h1v1h-1zM34 81h1v1h-1zM33 83h1v1h-1zM32 84h1v1h-1z" /><path fill="#dc3336" d="M84 18h1v1h-1zM85 24h2v1h-2zM85 25h1v1h-1zM84 26h1v1h-1zM83 27h1v1h-1zM82 28h2v1h-2zM82 29h1v1h-1zM81 30h1v1h-1zM80 31h1v1h-1zM79 32h1v1h-1zM78 33h2v1h-2zM78 34h1v1h-1zM77 35h1v1h-1zM76 36h1v1h-1zM75 37h2v1h-2zM75 38h1v1h-1zM74 39h1v1h-1zM73 40h1v1h-1zM72 41h1v1h-1zM71 42h2v1h-2zM71 43h1v1h-1zM70 44h1v1h-1zM69 45h1v1h-1zM68 46h2v1h-2zM68 47h1v1h-1zM67 48h1v1h-1zM66 49h1v1h-1zM65 50h1v1h-1zM64 51h2v1h-2zM64 52h1v1h-1zM63 53h1v1h-1zM62 54h1v1h-1zM61 55h2v1h-2zM61 56h1v1h-1zM60 57h1v1h-1zM59 58h1v1h-1zM58 59h2v1h-2zM58 60h1v1h-1zM57 61h1v1h-1zM56 62h1v1h-1zM55 63h1v1h-1zM54 64h2v1h-2zM54 65h1v1h-1zM53 66h1v1h-1zM52 67h1v1h-1zM51 68h2v1h-2zM51 69h1v1h-1zM50 70h1v1h-1zM49 71h1v1h-1zM48 72h1v1h-1zM47 73h2v1h-2zM47 74h1v1h-1zM46 75h1v1h-1zM45 76h1v1h-1zM44 77h2v1h-2zM44 78h1v1h-1zM43 79h1v1h-1zM42 80h1v1h-1zM41 81h1v1h-1zM40 82h2v1h-2zM40 83h1v1h-1zM39 84h1v1h-1zM38 85h1v1h-1zM37 86h2v1h-2zM37 87h1v1h-1zM36 88h1v1h-1zM35 89h1v1h-1zM34 90h1v1h-1zM33 91h2v1h-2zM33 92h1v1h-1zM32 93h1v1h-1zM31 94h1v1h-1zM30 95h2v1h-2zM30 96h1v1h-1zM29 97h1v1h-1zM28 98h1v1h-1z" /><path fill="#fd6548" d="M47 19h1v1h-1z" /><path fill="#fbc574" d="M48 19h1v1h-1z" /><path fill="#fcc471" d="M50 19h1v1h-1zM46 25h1v1h-1zM44 26h2v1h-2zM44 27h1v1h-1zM43 28h2v1h-2z" /><path fill="#fbb245" d="M51 19h1v1h-1zM44 30h1v1h-1zM36 44h1v1h-1z" /><path fill="#eb7f3c" d="M56 19h1v1h-1z" /><path fill="#d73336" d="M83 19h1v1h-1zM82 20h2v1h-2zM82 21h1v1h-1zM81 22h1v1h-1zM80 23h1v1h-1zM79 24h2v1h-2zM79 25h1v1h-1zM78 26h1v1h-1zM77 27h1v1h-1zM76 28h1v1h-1zM76 29h1v1h-1zM75 30h1v1h-1zM74 31h1v1h-1zM73 32h1v1h-1zM73 33h1v1h-1zM66 42h1v1h-1zM65 43h1v1h-1zM64 44h1v1h-1zM63 45h1v1h-1zM62 46h2v1h-2zM62 47h1v1h-1zM61 48h1v1h-1zM60 49h1v1h-1zM59 50h1v1h-1zM58 51h2v1h-2zM58 52h1v1h-1zM57 53h1v1h-1zM56 54h1v1h-1zM55 55h2v1h-2zM55 56h1v1h-1zM54 57h1v1h-1zM53 58h1v1h-1zM52 59h1v1h-1zM51 60h2v1h-2zM51 61h1v1h-1zM50 62h1v1h-1zM49 63h1v1h-1zM48 64h2v1h-2zM48 65h1v1h-1zM47 66h1v1h-1zM46 67h1v1h-1zM45 68h1v1h-1zM44 69h2v1h-2zM44 70h1v1h-1zM43 71h1v1h-1zM42 72h1v1h-1zM41 73h2v1h-2zM41 74h1v1h-1zM40 75h1v1h-1zM39 76h1v1h-1zM38 77h1v1h-1zM38 78h1v1h-1zM37 79h1v1h-1zM36 80h1v1h-1zM35 81h1v1h-1zM34 82h2v1h-2zM34 83h1v1h-1zM33 84h1v1h-1zM32 85h1v1h-1zM31 86h2v1h-2zM31 87h1v1h-1zM30 88h1v1h-1zM29 89h1v1h-1zM28 91h1v1h-1z" /><path fill="#d83336" d="M84 19h1v1h-1zM84 20h1v1h-1zM83 21h1v1h-1zM82 22h1v1h-1zM81 23h2v1h-2zM81 24h1v1h-1zM80 25h1v1h-1zM79 26h1v1h-1zM78 27h1v1h-1zM77 28h2v1h-2zM77 29h1v1h-1zM76 30h1v1h-1zM75 31h1v1h-1zM74 32h2v1h-2zM74 33h1v1h-1zM73 34h1v1h-1zM70 38h1v1h-1zM69 39h1v1h-1zM68 40h1v1h-1zM67 41h2v1h-2zM67 42h1v1h-1zM66 43h1v1h-1zM65 44h1v1h-1zM64 45h2v1h-2zM64 46h1v1h-1zM63 47h1v1h-1zM62 48h1v1h-1zM61 49h1v1h-1zM60 50h2v1h-2zM60 51h1v1h-1zM59 52h1v1h-1zM58 53h1v1h-1zM57 54h2v1h-2zM57 55h1v1h-1zM56 56h1v1h-1zM55 57h1v1h-1zM54 58h1v1h-1zM53 59h2v1h-2zM53 60h1v1h-1zM52 61h1v1h-1zM51 62h1v1h-1zM50 63h2v1h-2zM50 64h1v1h-1zM49 65h1v1h-1zM48 66h1v1h-1zM47 67h1v1h-1zM46 68h2v1h-2zM46 69h1v1h-1zM45 70h1v1h-1zM44 71h1v1h-1zM43 72h2v1h-2zM43 73h1v1h-1zM42 74h1v1h-1zM41 75h1v1h-1zM40 76h1v1h-1zM39 77h2v1h-2zM39 78h1v1h-1zM38 79h1v1h-1zM37 80h1v1h-1zM36 81h2v1h-2zM36 82h1v1h-1zM35 83h1v1h-1zM34 84h1v1h-1zM33 85h2v1h-2zM33 86h1v1h-1zM32 87h1v1h-1zM31 88h1v1h-1zM30 89h1v1h-1zM29 90h2v1h-2zM29 91h1v1h-1zM28 92h1v1h-1zM27 93h1v1h-1zM26 94h2v1h-2zM26 95h1v1h-1zM25 96h1v1h-1zM24 97h1v1h-1z" /><path fill="#e83436" d="M85 19h1v1h-1z" /><path fill="#ff3c36" d="M46 20h1v1h-1z" /><path fill="#fbc171" d="M47 20h1v1h-1z" /><path fill="#fcc675" d="M48 20h2v1h-2z" /><path fill="#e56f3a" d="M56 20h1v1h-1z" /><path fill="#cb3437" d="M67 20h1v1h-1zM61 28h1v1h-1z" /><path fill="#de3235" d="M85 20h1v1h-1z" /><path fill="#fca662" d="M46 21h1v1h-1z" /><path fill="#fcbe61" d="M49 21h1v1h-1zM37 41h1v1h-1zM29 55h1v1h-1zM27 57h1v1h-1zM26 58h2v1h-2z" /><path fill="#e5703b" d="M56 21h1v1h-1z" /><path fill="#cc3537" d="M66 21h1v1h-1z" /><path fill="#f25934" d="M67 21h1v1h-1z" /><path fill="#d03737" d="M68 21h1v1h-1z" /><path fill="#d93336" d="M84 21h1v1h-1zM83 22h2v1h-2zM83 23h1v1h-1zM82 24h1v1h-1zM81 25h1v1h-1zM80 26h1v1h-1zM79 27h2v1h-2zM79 28h1v1h-1zM78 29h1v1h-1zM77 30h1v1h-1zM76 31h2v1h-2zM76 32h1v1h-1zM75 33h1v1h-1zM74 34h1v1h-1zM73 35h1v1h-1zM72 36h2v1h-2zM72 37h1v1h-1zM71 38h1v1h-1zM70 39h1v1h-1zM69 40h2v1h-2zM69 41h1v1h-1zM68 42h1v1h-1zM67 43h1v1h-1zM66 44h2v1h-2zM66 45h1v1h-1zM65 46h1v1h-1zM64 47h1v1h-1zM63 48h1v1h-1zM62 49h2v1h-2zM62 50h1v1h-1zM61 51h1v1h-1zM60 52h1v1h-1zM59 53h2v1h-2zM59 54h1v1h-1zM58 55h1v1h-1zM57 56h1v1h-1zM56 57h1v1h-1zM55 58h2v1h-2zM55 59h1v1h-1zM54 60h1v1h-1zM53 61h1v1h-1zM52 62h2v1h-2zM52 63h1v1h-1zM51 64h1v1h-1zM50 65h1v1h-1zM49 66h1v1h-1zM48 67h2v1h-2zM48 68h1v1h-1zM47 69h1v1h-1zM46 70h1v1h-1zM45 71h2v1h-2zM45 72h1v1h-1zM44 73h1v1h-1zM43 74h1v1h-1zM42 75h1v1h-1zM41 76h2v1h-2zM41 77h1v1h-1zM40 78h1v1h-1zM39 79h1v1h-1zM38 80h2v1h-2zM38 81h1v1h-1zM37 82h1v1h-1zM36 83h1v1h-1zM35 84h1v1h-1zM35 85h1v1h-1zM34 86h1v1h-1zM33 87h1v1h-1zM32 88h1v1h-1zM31 89h2v1h-2zM31 90h1v1h-1zM30 91h1v1h-1zM29 92h1v1h-1zM28 93h2v1h-2zM28 94h1v1h-1zM27 95h1v1h-1zM26 96h1v1h-1zM25 97h1v1h-1zM24 98h2v1h-2z" /><path fill="#da3336" d="M85 21h1v1h-1zM85 22h1v1h-1zM84 23h1v1h-1zM83 24h1v1h-1zM82 25h1v1h-1zM81 26h2v1h-2zM81 27h1v1h-1zM80 28h1v1h-1zM79 29h1v1h-1zM78 30h2v1h-2zM78 31h1v1h-1zM77 32h1v1h-1zM76 33h1v1h-1zM75 34h1v1h-1zM74 35h2v1h-2zM74 36h1v1h-1zM73 37h1v1h-1zM72 38h1v1h-1zM71 39h2v1h-2zM71 40h1v1h-1zM70 41h1v1h-1zM69 42h1v1h-1zM68 43h1v1h-1zM68 44h1v1h-1zM67 45h1v1h-1zM66 46h1v1h-1zM65 47h1v1h-1zM64 48h2v1h-2zM64 49h1v1h-1zM63 50h1v1h-1zM62 51h1v1h-1zM61 52h2v1h-2zM61 53h1v1h-1zM60 54h1v1h-1zM59 55h1v1h-1zM58 56h1v1h-1zM57 57h2v1h-2zM57 58h1v1h-1zM56 59h1v1h-1zM55 60h1v1h-1zM54 61h2v1h-2zM54 62h1v1h-1zM53 63h1v1h-1zM52 64h1v1h-1zM51 65h1v1h-1zM50 66h2v1h-2zM50 67h1v1h-1zM49 68h1v1h-1zM48 69h1v1h-1zM47 70h2v1h-2zM47 71h1v1h-1zM46 72h1v1h-1zM45 73h1v1h-1zM44 74h1v1h-1zM43 75h2v1h-2zM43 76h1v1h-1zM42 77h1v1h-1zM41 78h1v1h-1zM40 79h2v1h-2zM40 80h1v1h-1zM39 81h1v1h-1zM38 82h1v1h-1zM37 83h1v1h-1zM36 84h2v1h-2zM36 85h1v1h-1zM35 86h1v1h-1zM34 87h1v1h-1zM33 88h2v1h-2zM33 89h1v1h-1zM32 90h1v1h-1zM31 91h1v1h-1zM30 92h1v1h-1zM30 93h1v1h-1zM29 94h1v1h-1zM28 95h1v1h-1zM27 96h1v1h-1zM26 97h2v1h-2zM26 98h1v1h-1z" /><path fill="#fbc573" d="M46 22h1v1h-1z" /><path fill="#fcc574" d="M47 22h1v1h-1zM46 23h2v1h-2z" /><path fill="#fbb244" d="M49 22h1v1h-1zM40 37h1v1h-1zM30 55h1v1h-1zM18 79h1v1h-1z" /><path fill="#eb7d3c" d="M56 22h1v1h-1z" /><path fill="#ea5134" d="M66 22h1v1h-1z" /><path fill="#ff6533" d="M67 22h1v1h-1zM66 23h1v1h-1zM17 66h4v1h-4zM14 67h6v1h-6zM14 68h6v1h-6zM14 69h5v1h-5zM14 70h5v1h-5zM14 71h4v1h-4zM14 72h4v1h-4zM14 73h3v1h-3zM14 74h3v1h-3zM14 75h2v1h-2zM14 76h2v1h-2zM14 77h2v1h-2zM14 78h1v1h-1zM14 79h1v1h-1z" /><path fill="#e85136" d="M68 22h1v1h-1z" /><path fill="#e73335" d="M86 22h1v1h-1zM87 26h1v1h-1zM87 37h1v1h-1zM86 40h1v1h-1zM86 41h1v1h-1zM85 42h1v1h-1zM84 43h1v1h-1zM83 44h1v1h-1zM82 45h2v1h-2zM82 46h1v1h-1zM81 47h1v1h-1zM80 48h1v1h-1zM79 49h2v1h-2zM79 50h1v1h-1zM78 51h1v1h-1zM77 52h1v1h-1zM76 53h1v1h-1zM75 54h2v1h-2zM75 55h1v1h-1zM74 56h1v1h-1zM73 57h1v1h-1zM72 58h2v1h-2zM72 59h1v1h-1zM71 60h1v1h-1zM70 61h1v1h-1zM69 62h1v1h-1zM69 63h1v1h-1zM68 64h1v1h-1zM67 65h1v1h-1zM66 66h1v1h-1zM65 67h2v1h-2zM65 68h1v1h-1zM64 69h1v1h-1zM63 70h1v1h-1zM62 71h2v1h-2zM62 72h1v1h-1zM61 73h1v1h-1zM60 74h1v1h-1zM59 75h1v1h-1zM58 76h2v1h-2zM58 77h1v1h-1zM57 78h1v1h-1zM56 79h1v1h-1zM55 80h2v1h-2zM55 81h1v1h-1zM54 82h1v1h-1zM53 83h1v1h-1zM52 84h1v1h-1zM51 85h2v1h-2zM51 86h1v1h-1zM50 87h1v1h-1zM49 88h1v1h-1zM48 89h2v1h-2zM48 90h1v1h-1zM47 91h1v1h-1zM46 92h1v1h-1zM45 93h1v1h-1zM44 94h2v1h-2zM44 95h1v1h-1zM43 96h1v1h-1zM42 97h1v1h-1zM41 98h2v1h-2z" /><path fill="#ff3535" d="M44 23h1v1h-1z" /><path fill="#fcbd6c" d="M45 23h1v1h-1z" /><path fill="#fbb750" d="M48 23h1v1h-1zM28 58h1v1h-1zM17 80h1v1h-1zM13 89h1v1h-1zM13 90h1v1h-1zM12 91h2v1h-2z" /><path fill="#f4963e" d="M56 23h1v1h-1z" /><path fill="#d94235" d="M65 23h1v1h-1z" /><path fill="#ff6033" d="M67 23h1v1h-1zM66 24h1v1h-1zM65 25h1v1h-1zM14 65h1v1h-1z" /><path fill="#fb6035" d="M68 23h1v1h-1z" /><path fill="#d63c37" d="M69 23h1v1h-1z" /><path fill="#db3336" d="M85 23h1v1h-1zM84 24h1v1h-1zM83 25h2v1h-2zM83 26h1v1h-1zM82 27h1v1h-1zM81 28h1v1h-1zM80 29h2v1h-2zM80 30h1v1h-1zM79 31h1v1h-1zM78 32h1v1h-1zM77 33h1v1h-1zM76 34h2v1h-2zM76 35h1v1h-1zM75 36h1v1h-1zM74 37h1v1h-1zM73 38h2v1h-2zM73 39h1v1h-1zM72 40h1v1h-1zM71 41h1v1h-1zM70 42h1v1h-1zM69 43h2v1h-2zM69 44h1v1h-1zM68 45h1v1h-1zM67 46h1v1h-1zM66 47h2v1h-2zM66 48h1v1h-1zM65 49h1v1h-1zM64 50h1v1h-1zM63 51h1v1h-1zM63 52h1v1h-1zM62 53h1v1h-1zM61 54h1v1h-1zM60 55h1v1h-1zM59 56h2v1h-2zM59 57h1v1h-1zM58 58h1v1h-1zM57 59h1v1h-1zM56 60h2v1h-2zM56 61h1v1h-1zM55 62h1v1h-1zM54 63h1v1h-1zM53 64h1v1h-1zM52 65h2v1h-2zM52 66h1v1h-1zM51 67h1v1h-1zM50 68h1v1h-1zM49 69h2v1h-2zM49 70h1v1h-1zM48 71h1v1h-1zM47 72h1v1h-1zM46 73h1v1h-1zM45 74h2v1h-2zM45 75h1v1h-1zM44 76h1v1h-1zM43 77h1v1h-1zM42 78h2v1h-2zM42 79h1v1h-1zM41 80h1v1h-1zM40 81h1v1h-1zM39 82h1v1h-1zM38 83h2v1h-2zM38 84h1v1h-1zM37 85h1v1h-1zM36 86h1v1h-1zM35 87h2v1h-2zM35 88h1v1h-1zM34 89h1v1h-1zM33 90h1v1h-1zM32 91h1v1h-1zM31 92h2v1h-2zM31 93h1v1h-1zM30 94h1v1h-1zM29 95h1v1h-1zM28 96h2v1h-2zM28 97h1v1h-1zM27 98h1v1h-1z" /><path fill="#e13335" d="M86 23h1v1h-1zM87 28h1v1h-1zM87 30h1v1h-1zM86 31h1v1h-1zM85 32h1v1h-1zM85 33h1v1h-1zM84 34h1v1h-1zM83 35h1v1h-1zM82 36h1v1h-1zM81 37h2v1h-2zM81 38h1v1h-1zM80 39h1v1h-1zM79 40h1v1h-1zM78 41h2v1h-2zM78 42h1v1h-1zM77 43h1v1h-1zM76 44h1v1h-1zM75 45h1v1h-1zM74 46h2v1h-2zM74 47h1v1h-1zM73 48h1v1h-1zM72 49h1v1h-1zM71 50h2v1h-2zM71 51h1v1h-1zM70 52h1v1h-1zM69 53h1v1h-1zM68 54h1v1h-1zM67 55h2v1h-2zM67 56h1v1h-1zM66 57h1v1h-1zM65 58h1v1h-1zM64 59h2v1h-2zM64 60h1v1h-1zM63 61h1v1h-1zM62 62h1v1h-1zM61 63h1v1h-1zM60 64h2v1h-2zM60 65h1v1h-1zM59 66h1v1h-1zM58 67h1v1h-1zM57 68h2v1h-2zM57 69h1v1h-1zM56 70h1v1h-1zM55 71h1v1h-1zM54 72h1v1h-1zM53 73h2v1h-2zM53 74h1v1h-1zM52 75h1v1h-1zM51 76h1v1h-1zM50 77h2v1h-2zM50 78h1v1h-1zM49 79h1v1h-1zM48 80h1v1h-1zM47 81h1v1h-1zM47 82h1v1h-1zM46 83h1v1h-1zM45 84h1v1h-1zM44 85h1v1h-1zM43 86h2v1h-2zM43 87h1v1h-1zM42 88h1v1h-1zM41 89h1v1h-1zM40 90h2v1h-2zM40 91h1v1h-1zM39 92h1v1h-1zM38 93h1v1h-1zM37 94h1v1h-1zM36 95h2v1h-2zM36 96h1v1h-1zM35 97h1v1h-1zM34 98h1v1h-1z" /><path fill="#fc8955" d="M44 24h1v1h-1z" /><path fill="#fcc573" d="M45 24h2v1h-2z" /><path fill="#f9ad40" d="M56 24h1v1h-1z" /><path fill="#c53438" d="M57 24h1v1h-1z" /><path fill="#ce3736" d="M64 24h1v1h-1z" /><path fill="#fa6033" d="M65 24h1v1h-1z" /><path fill="#ff5933" d="M67 24h1v1h-1zM66 25h1v1h-1zM65 26h1v1h-1zM64 27h1v1h-1zM20 62h3v1h-3zM14 63h1v1h-1z" /><path fill="#ff5433" d="M68 24h1v1h-1zM67 25h1v1h-1zM21 60h3v1h-3z" /><path fill="#f25d37" d="M69 24h1v1h-1z" /><path fill="#ff4137" d="M43 25h1v1h-1z" /><path fill="#fbc370" d="M44 25h1v1h-1z" /><path fill="#fcc572" d="M45 25h1v1h-1z" /><path fill="#fbb347" d="M47 25h1v1h-1zM31 53h1v1h-1zM24 66h1v1h-1zM23 68h1v1h-1zM22 70h1v1h-1zM17 81h1v1h-1z" /><path fill="#da5539" d="M57 25h1v1h-1z" /><path fill="#f05634" d="M64 25h1v1h-1z" /><path fill="#ff4f33" d="M68 25h1v1h-1zM67 26h1v1h-1zM18 58h7v1h-7z" /><path fill="#fc6338" d="M69 25h1v1h-1z" /><path fill="#db3c38" d="M70 25h1v1h-1z" /><path fill="#dd3336" d="M86 25h1v1h-1zM85 26h1v1h-1zM84 27h2v1h-2zM84 28h1v1h-1zM83 29h1v1h-1zM82 30h1v1h-1zM81 31h1v1h-1zM80 32h2v1h-2zM80 33h1v1h-1zM79 34h1v1h-1zM78 35h1v1h-1zM77 36h2v1h-2zM77 37h1v1h-1zM76 38h1v1h-1zM75 39h1v1h-1zM74 40h1v1h-1zM73 41h2v1h-2zM73 42h1v1h-1zM72 43h1v1h-1zM71 44h1v1h-1zM70 45h2v1h-2zM70 46h1v1h-1zM69 47h1v1h-1zM68 48h1v1h-1zM67 49h1v1h-1zM66 50h2v1h-2zM66 51h1v1h-1zM65 52h1v1h-1zM64 53h1v1h-1zM63 54h2v1h-2zM63 55h1v1h-1zM62 56h1v1h-1zM61 57h1v1h-1zM60 58h1v1h-1zM60 59h1v1h-1zM59 60h1v1h-1zM58 61h1v1h-1zM57 62h1v1h-1zM56 63h2v1h-2zM56 64h1v1h-1zM55 65h1v1h-1zM54 66h1v1h-1zM53 67h2v1h-2zM53 68h1v1h-1zM52 69h1v1h-1zM51 70h1v1h-1zM50 71h1v1h-1zM49 72h2v1h-2zM49 73h1v1h-1zM48 74h1v1h-1zM47 75h1v1h-1zM46 76h2v1h-2zM46 77h1v1h-1zM45 78h1v1h-1zM44 79h1v1h-1zM43 80h1v1h-1zM42 81h2v1h-2zM42 82h1v1h-1zM41 83h1v1h-1zM40 84h1v1h-1zM39 85h2v1h-2zM39 86h1v1h-1zM38 87h1v1h-1zM37 88h1v1h-1zM36 89h1v1h-1zM35 90h2v1h-2zM35 91h1v1h-1zM34 92h1v1h-1zM33 93h1v1h-1zM32 94h2v1h-2zM32 95h1v1h-1zM31 96h1v1h-1zM30 97h1v1h-1zM29 98h1v1h-1z" /><path fill="#ea3234" d="M87 25h1v1h-1z" /><path fill="#fbae64" d="M43 26h1v1h-1z" /><path fill="#fcba58" d="M46 26h1v1h-1zM18 74h2v1h-2zM18 75h1v1h-1z" /><path fill="#f4953d" d="M57 26h1v1h-1z" /><path fill="#e14835" d="M63 26h1v1h-1z" /><path fill="#ff5f33" d="M64 26h1v1h-1zM18 64h4v1h-4z" /><path fill="#ff5333" d="M66 26h1v1h-1zM65 27h1v1h-1zM64 28h1v1h-1zM63 29h1v1h-1zM15 60h6v1h-6z" /><path fill="#ff4a33" d="M68 26h1v1h-1zM67 27h1v1h-1zM66 28h1v1h-1zM15 56h7v1h-7z" /><path fill="#ff4c34" d="M69 26h1v1h-1zM26 55h1v1h-1z" /><path fill="#f86b3b" d="M70 26h1v1h-1z" /><path fill="#de3336" d="M86 26h1v1h-1zM86 27h1v1h-1zM85 28h1v1h-1zM84 29h1v1h-1zM83 30h1v1h-1zM82 31h2v1h-2zM82 32h1v1h-1zM81 33h1v1h-1zM80 34h1v1h-1zM79 35h2v1h-2zM79 36h1v1h-1zM78 37h1v1h-1zM77 38h1v1h-1zM76 39h1v1h-1zM75 40h2v1h-2zM75 41h1v1h-1zM74 42h1v1h-1zM73 43h1v1h-1zM72 44h2v1h-2zM72 45h1v1h-1zM71 46h1v1h-1zM70 47h1v1h-1zM69 48h1v1h-1zM68 49h2v1h-2zM68 50h1v1h-1zM67 51h1v1h-1zM66 52h1v1h-1zM65 53h2v1h-2zM65 54h1v1h-1zM64 55h1v1h-1zM63 56h1v1h-1zM62 57h1v1h-1zM61 58h2v1h-2zM61 59h1v1h-1zM60 60h1v1h-1zM59 61h1v1h-1zM58 62h2v1h-2zM58 63h1v1h-1zM57 64h1v1h-1zM56 65h1v1h-1zM55 66h1v1h-1zM55 67h1v1h-1zM54 68h1v1h-1zM53 69h1v1h-1zM52 70h1v1h-1zM51 71h2v1h-2zM51 72h1v1h-1zM50 73h1v1h-1zM49 74h1v1h-1zM48 75h2v1h-2zM48 76h1v1h-1zM47 77h1v1h-1zM46 78h1v1h-1zM45 79h1v1h-1zM44 80h2v1h-2zM44 81h1v1h-1zM43 82h1v1h-1zM42 83h1v1h-1zM41 84h2v1h-2zM41 85h1v1h-1zM40 86h1v1h-1zM39 87h1v1h-1zM38 88h1v1h-1zM37 89h2v1h-2zM37 90h1v1h-1zM36 91h1v1h-1zM35 92h1v1h-1zM34 93h2v1h-2zM34 94h1v1h-1zM33 95h1v1h-1zM32 96h1v1h-1zM31 97h1v1h-1zM30 98h2v1h-2z" /><path fill="#fd6445" d="M42 27h1v1h-1z" /><path fill="#fbc371" d="M43 27h1v1h-1z" /><path fill="#d64a38" d="M58 27h1v1h-1z" /><path fill="#d23b36" d="M62 27h1v1h-1z" /><path fill="#fd5d33" d="M63 27h1v1h-1z" /><path fill="#ff4e33" d="M66 27h1v1h-1zM65 28h1v1h-1zM64 29h1v1h-1zM63 30h1v1h-1zM62 31h1v1h-1zM15 58h3v1h-3z" /><path fill="#ff4533" d="M68 27h1v1h-1zM67 28h1v1h-1zM66 29h1v1h-1zM15 54h4v1h-4z" /><path fill="#ff4133" d="M69 27h1v1h-1zM68 28h1v1h-1zM67 29h1v1h-1zM66 30h1v1h-1zM65 31h1v1h-1zM64 32h1v1h-1zM21 51h8v1h-8zM15 52h1v1h-1z" /><path fill="#fb743c" d="M70 27h1v1h-1z" /><path fill="#da3938" d="M71 27h1v1h-1z" /><path fill="#e53334" d="M87 27h1v1h-1z" /><path fill="#fcbe6c" d="M42 28h1v1h-1z" /><path fill="#fbb54d" d="M45 28h1v1h-1zM18 78h1v1h-1z" /><path fill="#fbaf40" d="M56 28h1v1h-1zM54 31h1v1h-1zM52 34h1v1h-1zM50 37h1v1h-1zM48 40h1v1h-1zM46 43h1v1h-1zM44 46h1v1h-1zM43 47h1v1h-1zM41 50h1v1h-1zM39 53h1v1h-1zM37 56h1v1h-1zM35 59h1v1h-1zM33 62h1v1h-1zM31 65h1v1h-1zM29 68h1v1h-1zM27 71h1v1h-1zM26 72h1v1h-1zM24 75h1v1h-1zM22 78h1v1h-1zM20 81h1v1h-1zM18 84h1v1h-1zM16 87h1v1h-1z" /><path fill="#fbac40" d="M57 28h1v1h-1zM55 31h1v1h-1zM53 34h1v1h-1zM51 37h1v1h-1zM49 40h1v1h-1zM47 43h1v1h-1zM45 46h1v1h-1zM43 49h1v1h-1zM41 52h1v1h-1zM40 53h1v1h-1zM38 56h1v1h-1zM36 59h1v1h-1zM34 62h1v1h-1zM32 65h1v1h-1zM30 68h1v1h-1zM28 71h1v1h-1zM26 74h1v1h-1zM24 77h1v1h-1zM23 78h1v1h-1zM21 81h1v1h-1zM19 84h1v1h-1zM17 87h1v1h-1zM15 90h1v1h-1z" /><path fill="#f5993e" d="M58 28h1v1h-1z" /><path fill="#c93437" d="M59 28h1v1h-1z" /><path fill="#f55634" d="M62 28h1v1h-1z" /><path fill="#ff5833" d="M63 28h1v1h-1zM62 29h1v1h-1zM15 62h5v1h-5z" /><path fill="#ff3e33" d="M69 28h1v1h-1zM68 29h1v1h-1zM67 30h1v1h-1zM66 31h1v1h-1zM65 32h1v1h-1zM64 33h1v1h-1zM19 49h10v1h-10z" /><path fill="#fd6139" d="M70 28h1v1h-1z" /><path fill="#f66039" d="M71 28h1v1h-1z" /><path fill="#df3336" d="M86 28h1v1h-1zM85 29h1v1h-1zM84 30h1v1h-1zM82 33h1v1h-1zM81 34h1v1h-1zM79 37h1v1h-1zM78 38h1v1h-1zM77 39h1v1h-1zM75 42h1v1h-1zM74 43h1v1h-1zM72 46h1v1h-1zM71 47h1v1h-1zM70 48h1v1h-1zM69 50h1v1h-1zM68 51h1v1h-1zM67 52h1v1h-1zM65 55h1v1h-1zM64 56h1v1h-1zM63 57h1v1h-1zM62 59h1v1h-1zM61 60h1v1h-1zM60 61h1v1h-1zM58 64h1v1h-1zM57 65h1v1h-1zM56 66h1v1h-1zM55 68h1v1h-1zM54 69h1v1h-1zM53 70h1v1h-1zM51 73h1v1h-1zM50 74h1v1h-1zM48 77h1v1h-1zM47 78h1v1h-1zM46 79h1v1h-1zM44 82h1v1h-1zM43 83h1v1h-1zM41 86h1v1h-1zM40 87h1v1h-1zM39 88h1v1h-1zM37 91h1v1h-1zM36 92h1v1h-1zM34 95h1v1h-1zM33 96h1v1h-1zM32 97h1v1h-1z" /><path fill="#fc9057" d="M41 29h1v1h-1z" /><path fill="#fcc470" d="M42 29h2v1h-2z" /><path fill="#fbad40" d="M56 29h1v1h-1zM54 32h1v1h-1zM52 35h1v1h-1zM50 38h1v1h-1zM48 41h1v1h-1zM46 44h1v1h-1zM44 47h1v1h-1zM42 50h1v1h-1zM41 51h1v1h-1zM39 54h1v1h-1zM37 57h1v1h-1zM35 60h1v1h-1zM33 63h1v1h-1zM31 66h1v1h-1zM29 69h1v1h-1zM27 72h1v1h-1zM25 75h1v1h-1zM24 76h1v1h-1zM22 79h1v1h-1zM20 82h1v1h-1zM18 85h1v1h-1zM16 88h1v1h-1z" /><path fill="#fbab40" d="M57 29h1v1h-1zM56 30h1v1h-1zM55 32h1v1h-1zM54 33h1v1h-1zM52 36h1v1h-1zM50 39h1v1h-1zM48 42h1v1h-1zM46 45h1v1h-1zM44 48h1v1h-1zM42 51h1v1h-1zM40 54h1v1h-1zM39 55h1v1h-1zM38 57h1v1h-1zM37 58h1v1h-1zM35 61h1v1h-1zM33 64h1v1h-1zM31 67h1v1h-1zM29 70h1v1h-1zM27 73h1v1h-1zM25 76h1v1h-1zM23 79h1v1h-1zM22 80h1v1h-1zM21 82h1v1h-1zM20 83h1v1h-1zM18 86h1v1h-1zM16 89h1v1h-1zM14 92h1v1h-1z" /><path fill="#fba840" d="M58 29h1v1h-1zM56 32h1v1h-1zM54 35h1v1h-1zM52 38h1v1h-1zM51 39h1v1h-1zM49 42h1v1h-1zM47 45h1v1h-1zM45 48h1v1h-1zM43 51h1v1h-1zM41 54h1v1h-1zM39 57h1v1h-1zM37 60h1v1h-1zM35 63h1v1h-1zM34 64h1v1h-1zM32 67h1v1h-1zM30 70h1v1h-1zM28 73h1v1h-1zM26 76h1v1h-1zM24 79h1v1h-1zM22 82h1v1h-1zM20 85h1v1h-1zM18 88h1v1h-1zM17 89h1v1h-1zM15 92h1v1h-1z" /><path fill="#e7673a" d="M59 29h1v1h-1z" /><path fill="#e64a35" d="M61 29h1v1h-1z" /><path fill="#ff4933" d="M65 29h1v1h-1zM64 30h1v1h-1zM63 31h1v1h-1zM23 55h3v1h-3zM14 56h1v1h-1z" /><path fill="#ff3b33" d="M69 29h1v1h-1zM68 30h1v1h-1zM67 31h1v1h-1zM66 32h1v1h-1zM65 33h1v1h-1zM17 47h10v1h-10z" /><path fill="#fe4e37" d="M70 29h1v1h-1z" /><path fill="#fa813e" d="M71 29h1v1h-1z" /><path fill="#d73636" d="M72 29h1v1h-1z" /><path fill="#e03335" d="M86 29h2v1h-2zM86 30h1v1h-1zM85 31h1v1h-1zM84 32h1v1h-1zM83 33h2v1h-2zM83 34h1v1h-1zM82 35h1v1h-1zM81 36h1v1h-1zM80 37h1v1h-1zM79 38h2v1h-2zM79 39h1v1h-1zM78 40h1v1h-1zM77 41h1v1h-1zM76 42h2v1h-2zM76 43h1v1h-1zM75 44h1v1h-1zM74 45h1v1h-1zM73 46h1v1h-1zM72 47h2v1h-2zM72 48h1v1h-1zM71 49h1v1h-1zM70 50h1v1h-1zM69 51h2v1h-2zM69 52h1v1h-1zM68 53h1v1h-1zM67 54h1v1h-1zM66 55h1v1h-1zM65 56h2v1h-2zM65 57h1v1h-1zM64 58h1v1h-1zM63 59h1v1h-1zM62 60h2v1h-2zM62 61h1v1h-1zM61 62h1v1h-1zM60 63h1v1h-1zM59 64h1v1h-1zM58 65h2v1h-2zM58 66h1v1h-1zM57 67h1v1h-1zM56 68h1v1h-1zM55 69h2v1h-2zM55 70h1v1h-1zM54 71h1v1h-1zM53 72h1v1h-1zM52 73h1v1h-1zM52 74h1v1h-1zM51 75h1v1h-1zM50 76h1v1h-1zM49 77h1v1h-1zM48 78h2v1h-2zM48 79h1v1h-1zM47 80h1v1h-1zM46 81h1v1h-1zM45 82h2v1h-2zM45 83h1v1h-1zM44 84h1v1h-1zM43 85h1v1h-1zM42 86h1v1h-1zM41 87h2v1h-2zM41 88h1v1h-1zM40 89h1v1h-1zM39 90h1v1h-1zM38 91h2v1h-2zM38 92h1v1h-1zM37 93h1v1h-1zM36 94h1v1h-1zM35 95h1v1h-1zM34 96h2v1h-2zM34 97h1v1h-1zM33 98h1v1h-1z" /><path fill="#ff4138" d="M40 30h1v1h-1z" /><path fill="#fbc36e" d="M41 30h1v1h-1zM40 32h1v1h-1z" /><path fill="#fcc46f" d="M42 30h1v1h-1zM41 31h2v1h-2z" /><path fill="#fcc36d" d="M43 30h1v1h-1zM39 35h2v1h-2z" /><path fill="#fbae40" d="M55 30h1v1h-1zM53 33h1v1h-1zM51 36h1v1h-1zM49 39h1v1h-1zM47 42h1v1h-1zM45 45h1v1h-1zM43 48h1v1h-1zM42 49h1v1h-1zM40 52h1v1h-1zM38 55h1v1h-1zM36 58h1v1h-1zM34 61h1v1h-1zM32 64h1v1h-1zM30 67h1v1h-1zM28 70h1v1h-1zM26 73h1v1h-1zM25 74h1v1h-1zM23 77h1v1h-1zM21 80h1v1h-1zM19 83h1v1h-1zM17 86h1v1h-1zM15 89h1v1h-1z" /><path fill="#fba940" d="M57 30h1v1h-1zM55 33h1v1h-1zM53 36h1v1h-1zM52 37h1v1h-1zM50 40h1v1h-1zM48 43h1v1h-1zM46 46h1v1h-1zM44 49h1v1h-1zM42 52h1v1h-1zM40 55h1v1h-1zM38 58h1v1h-1zM36 61h1v1h-1zM35 62h1v1h-1zM33 65h1v1h-1zM31 68h1v1h-1zM29 71h1v1h-1zM27 74h1v1h-1zM25 77h1v1h-1zM23 80h1v1h-1zM21 83h1v1h-1zM19 86h1v1h-1zM18 87h1v1h-1zM16 90h1v1h-1zM14 93h1v1h-1z" /><path fill="#fba640" d="M58 30h1v1h-1zM56 33h1v1h-1zM54 36h1v1h-1zM52 39h1v1h-1zM50 42h1v1h-1zM49 43h1v1h-1zM47 46h1v1h-1zM45 49h1v1h-1zM43 52h1v1h-1zM41 55h1v1h-1zM39 58h1v1h-1zM37 61h1v1h-1zM35 64h1v1h-1zM33 67h1v1h-1zM32 68h1v1h-1zM30 71h1v1h-1zM28 74h1v1h-1zM26 77h1v1h-1zM24 80h1v1h-1zM22 83h1v1h-1zM20 86h1v1h-1zM18 89h1v1h-1zM16 92h1v1h-1zM15 93h1v1h-1z" /><path fill="#faa240" d="M59 30h1v1h-1z" /><path fill="#e45337" d="M60 30h1v1h-1z" /><path fill="#fe5833" d="M61 30h1v1h-1z" /><path fill="#ff5233" d="M62 30h1v1h-1zM23 59h1v1h-1zM14 60h1v1h-1z" /><path fill="#ff4433" d="M65 30h1v1h-1zM64 31h1v1h-1zM63 32h1v1h-1zM20 53h7v1h-7zM14 54h1v1h-1z" /><path fill="#ff3833" d="M69 30h1v1h-1zM68 31h1v1h-1zM67 32h1v1h-1zM66 33h1v1h-1zM30 44h2v1h-2zM15 45h11v1h-11z" /><path fill="#ff3d34" d="M70 30h1v1h-1z" /><path fill="#fb8840" d="M71 30h1v1h-1zM71 33h1v1h-1zM71 34h1v1h-1zM65 35h1v1h-1zM70 35h1v1h-1zM65 36h6v1h-6zM64 37h6v1h-6zM64 38h4v1h-4zM63 39h4v1h-4zM62 40h4v1h-4zM62 41h3v1h-3zM61 42h3v1h-3zM60 43h3v1h-3zM60 44h2v1h-2zM59 45h1v1h-1zM58 46h1v1h-1z" /><path fill="#f25437" d="M72 30h1v1h-1z" /><path fill="#df3335" d="M85 30h1v1h-1zM84 31h1v1h-1zM83 32h1v1h-1zM82 34h1v1h-1zM81 35h1v1h-1zM80 36h1v1h-1zM78 39h1v1h-1zM77 40h1v1h-1zM76 41h1v1h-1zM75 43h1v1h-1zM74 44h1v1h-1zM73 45h1v1h-1zM71 48h1v1h-1zM70 49h1v1h-1zM68 52h1v1h-1zM67 53h1v1h-1zM66 54h1v1h-1zM64 57h1v1h-1zM63 58h1v1h-1zM61 61h1v1h-1zM60 62h1v1h-1zM59 63h1v1h-1zM57 66h1v1h-1zM56 67h1v1h-1zM54 70h1v1h-1zM53 71h1v1h-1zM52 72h1v1h-1zM51 74h1v1h-1zM50 75h1v1h-1zM49 76h1v1h-1zM47 79h1v1h-1zM46 80h1v1h-1zM45 81h1v1h-1zM44 83h1v1h-1zM43 84h1v1h-1zM42 85h1v1h-1zM40 88h1v1h-1zM39 89h1v1h-1zM38 90h1v1h-1zM37 92h1v1h-1zM36 93h1v1h-1zM35 94h1v1h-1zM33 97h1v1h-1zM32 98h1v1h-1z" /><path fill="#fcaa61" d="M40 31h1v1h-1z" /><path fill="#fbaa40" d="M56 31h1v1h-1zM54 34h1v1h-1zM53 35h1v1h-1zM51 38h1v1h-1zM49 41h1v1h-1zM47 44h1v1h-1zM45 47h1v1h-1zM43 50h1v1h-1zM41 53h1v1h-1zM39 56h1v1h-1zM37 59h1v1h-1zM36 60h1v1h-1zM34 63h1v1h-1zM32 66h1v1h-1zM30 69h1v1h-1zM28 72h1v1h-1zM26 75h1v1h-1zM24 78h1v1h-1zM22 81h1v1h-1zM20 84h1v1h-1zM19 85h1v1h-1zM17 88h1v1h-1zM15 91h1v1h-1z" /><path fill="#fba740" d="M57 31h1v1h-1zM55 34h1v1h-1zM53 37h1v1h-1zM51 40h1v1h-1zM50 41h1v1h-1zM48 44h1v1h-1zM46 47h1v1h-1zM44 50h1v1h-1zM42 53h1v1h-1zM40 56h1v1h-1zM38 59h1v1h-1zM36 62h1v1h-1zM34 65h1v1h-1zM33 66h1v1h-1zM31 69h1v1h-1zM29 72h1v1h-1zM27 75h1v1h-1zM25 78h1v1h-1zM23 81h1v1h-1zM21 84h1v1h-1zM19 87h1v1h-1zM17 90h1v1h-1zM16 91h1v1h-1zM14 94h1v1h-1z" /><path fill="#fba440" d="M58 31h1v1h-1zM56 34h1v1h-1zM54 37h1v1h-1zM52 40h1v1h-1zM50 43h1v1h-1zM48 46h1v1h-1zM47 47h1v1h-1zM45 50h1v1h-1zM43 53h1v1h-1zM41 56h1v1h-1zM39 59h1v1h-1zM37 62h1v1h-1zM35 65h1v1h-1zM33 68h1v1h-1zM31 71h1v1h-1zM30 72h1v1h-1zM28 75h1v1h-1zM26 78h1v1h-1zM24 81h1v1h-1zM22 84h1v1h-1zM20 87h1v1h-1zM18 90h1v1h-1zM16 93h1v1h-1zM14 96h1v1h-1z" /><path fill="#fba140" d="M59 31h1v1h-1zM57 34h1v1h-1zM55 37h1v1h-1zM53 40h1v1h-1zM51 43h1v1h-1zM49 46h1v1h-1zM47 49h1v1h-1zM45 52h1v1h-1zM44 53h1v1h-1zM43 55h1v1h-1zM42 56h1v1h-1zM40 59h1v1h-1zM38 62h1v1h-1zM36 65h1v1h-1zM34 68h1v1h-1zM32 71h1v1h-1zM30 74h1v1h-1zM28 77h1v1h-1zM27 78h1v1h-1zM26 80h1v1h-1zM25 81h1v1h-1zM23 84h1v1h-1zM21 87h1v1h-1zM19 90h1v1h-1zM17 93h1v1h-1zM15 96h1v1h-1z" /><path fill="#fa983d" d="M60 31h1v1h-1z" /><path fill="#fe5c35" d="M61 31h1v1h-1z" /><path fill="#ff3633" d="M69 31h2v1h-2zM68 32h1v1h-1zM67 33h1v1h-1zM66 34h1v1h-1zM21 41h13v1h-13zM14 42h20v1h-20zM14 43h10v1h-10z" /><path fill="#fb8640" d="M71 31h1v1h-1z" /><path fill="#f96f3b" d="M72 31h1v1h-1z" /><path fill="#e23335" d="M87 31h1v1h-1zM86 32h2v1h-2zM86 33h1v1h-1zM85 34h1v1h-1zM84 35h1v1h-1zM83 36h2v1h-2zM83 37h1v1h-1zM82 38h1v1h-1zM81 39h1v1h-1zM80 40h1v1h-1zM80 41h1v1h-1zM79 42h1v1h-1zM78 43h1v1h-1zM77 44h1v1h-1zM76 45h2v1h-2zM76 46h1v1h-1zM75 47h1v1h-1zM74 48h1v1h-1zM73 49h2v1h-2zM73 50h1v1h-1zM72 51h1v1h-1zM71 52h1v1h-1zM70 53h1v1h-1zM69 54h2v1h-2zM69 55h1v1h-1zM68 56h1v1h-1zM67 57h1v1h-1zM66 58h2v1h-2zM66 59h1v1h-1zM65 60h1v1h-1zM64 61h1v1h-1zM63 62h1v1h-1zM62 63h2v1h-2zM62 64h1v1h-1zM61 65h1v1h-1zM60 66h1v1h-1zM59 67h2v1h-2zM59 68h1v1h-1zM58 69h1v1h-1zM57 70h1v1h-1zM56 71h1v1h-1zM55 72h2v1h-2zM55 73h1v1h-1zM54 74h1v1h-1zM53 75h1v1h-1zM52 76h2v1h-2zM52 77h1v1h-1zM51 78h1v1h-1zM50 79h1v1h-1zM49 80h1v1h-1zM48 81h2v1h-2zM48 82h1v1h-1zM47 83h1v1h-1zM46 84h1v1h-1zM45 85h2v1h-2zM45 86h1v1h-1zM44 87h1v1h-1zM43 88h1v1h-1zM42 89h2v1h-2zM42 90h1v1h-1zM41 91h1v1h-1zM40 92h1v1h-1zM39 93h1v1h-1zM38 94h2v1h-2zM38 95h1v1h-1zM37 96h1v1h-1zM36 97h1v1h-1zM35 98h2v1h-2z" /><path fill="#fd533f" d="M39 32h1v1h-1z" /><path fill="#fba540" d="M57 32h1v1h-1zM55 35h1v1h-1zM53 38h1v1h-1zM51 41h1v1h-1zM49 44h1v1h-1zM48 45h1v1h-1zM46 48h1v1h-1zM44 51h1v1h-1zM42 54h1v1h-1zM40 57h1v1h-1zM38 60h1v1h-1zM36 63h1v1h-1zM34 66h1v1h-1zM32 69h1v1h-1zM31 70h1v1h-1zM29 73h1v1h-1zM27 76h1v1h-1zM25 79h1v1h-1zM23 82h1v1h-1zM21 85h1v1h-1zM19 88h1v1h-1zM17 91h1v1h-1zM15 94h1v1h-1zM14 95h1v1h-1z" /><path fill="#fba240" d="M58 32h1v1h-1zM56 35h1v1h-1zM54 38h1v1h-1zM52 41h1v1h-1zM50 44h1v1h-1zM48 47h1v1h-1zM46 50h1v1h-1zM45 51h1v1h-1zM43 54h1v1h-1zM41 57h1v1h-1zM39 60h1v1h-1zM37 63h1v1h-1zM35 66h1v1h-1zM33 69h1v1h-1zM31 72h1v1h-1zM29 75h1v1h-1zM28 76h1v1h-1zM26 79h1v1h-1zM24 82h1v1h-1zM22 85h1v1h-1zM20 88h1v1h-1zM18 91h1v1h-1zM16 94h1v1h-1z" /><path fill="#fba040" d="M59 32h1v1h-1zM58 33h1v1h-1zM56 36h1v1h-1zM54 39h1v1h-1zM52 42h1v1h-1zM50 45h1v1h-1zM48 48h1v1h-1zM46 51h1v1h-1zM44 54h1v1h-1zM42 57h1v1h-1zM41 58h1v1h-1zM39 61h1v1h-1zM37 64h1v1h-1zM35 67h1v1h-1zM33 70h1v1h-1zM31 73h1v1h-1zM29 76h1v1h-1zM27 79h1v1h-1zM25 82h1v1h-1zM24 83h1v1h-1zM22 86h1v1h-1zM20 89h1v1h-1zM18 92h1v1h-1zM16 95h1v1h-1z" /><path fill="#fb9d40" d="M60 32h1v1h-1zM58 35h1v1h-1zM56 38h1v1h-1zM55 39h1v1h-1zM53 42h1v1h-1zM51 45h1v1h-1zM49 48h1v1h-1zM47 51h1v1h-1zM45 54h1v1h-1zM43 57h1v1h-1zM41 60h1v1h-1zM39 63h1v1h-1zM38 64h1v1h-1zM36 67h1v1h-1zM34 70h1v1h-1zM32 73h1v1h-1zM30 76h1v1h-1zM28 79h1v1h-1zM26 82h1v1h-1zM24 85h1v1h-1zM22 88h1v1h-1zM21 89h1v1h-1zM19 92h1v1h-1zM17 95h1v1h-1zM15 98h1v1h-1z" /><path fill="#fb913f" d="M61 32h1v1h-1z" /><path fill="#fe5836" d="M62 32h1v1h-1z" /><path fill="#fb873f" d="M71 32h1v1h-1zM71 35h1v1h-1zM54 51h1v1h-1z" /><path fill="#fb7c3d" d="M72 32h1v1h-1zM65 41h1v1h-1zM50 56h1v1h-1z" /><path fill="#fbb565" d="M39 33h1v1h-1z" /><path fill="#fba340" d="M57 33h1v1h-1zM55 36h1v1h-1zM53 39h1v1h-1zM51 42h1v1h-1zM49 45h1v1h-1zM47 48h1v1h-1zM46 49h1v1h-1zM44 52h1v1h-1zM42 55h1v1h-1zM40 58h1v1h-1zM38 61h1v1h-1zM36 64h1v1h-1zM34 67h1v1h-1zM32 70h1v1h-1zM30 73h1v1h-1zM29 74h1v1h-1zM27 77h1v1h-1zM25 80h1v1h-1zM23 83h1v1h-1zM21 86h1v1h-1zM19 89h1v1h-1zM17 92h1v1h-1zM15 95h1v1h-1z" /><path fill="#fb9e40" d="M59 33h1v1h-1zM57 36h1v1h-1zM56 37h1v1h-1zM54 40h1v1h-1zM52 43h1v1h-1zM50 46h1v1h-1zM48 49h1v1h-1zM46 52h1v1h-1zM44 55h1v1h-1zM42 58h1v1h-1zM40 61h1v1h-1zM39 62h1v1h-1zM37 65h1v1h-1zM35 68h1v1h-1zM33 71h1v1h-1zM31 74h1v1h-1zM29 77h1v1h-1zM27 80h1v1h-1zM25 83h1v1h-1zM23 86h1v1h-1zM22 87h1v1h-1zM20 90h1v1h-1zM18 93h1v1h-1zM16 96h1v1h-1z" /><path fill="#fb9b40" d="M60 33h1v1h-1zM58 36h1v1h-1zM56 39h1v1h-1zM54 42h1v1h-1zM53 43h1v1h-1zM51 46h1v1h-1zM49 49h1v1h-1zM47 52h1v1h-1zM45 55h1v1h-1zM43 58h1v1h-1zM41 61h1v1h-1zM39 64h1v1h-1zM37 67h1v1h-1zM36 68h1v1h-1zM34 71h1v1h-1zM32 74h1v1h-1zM30 77h1v1h-1zM28 80h1v1h-1zM26 83h1v1h-1zM24 86h1v1h-1zM22 89h1v1h-1zM20 92h1v1h-1zM19 93h1v1h-1zM17 96h1v1h-1z" /><path fill="#fb9840" d="M61 33h1v1h-1zM59 36h1v1h-1zM57 39h1v1h-1zM55 42h1v1h-1zM53 45h1v1h-1zM51 48h1v1h-1zM50 49h1v1h-1zM48 52h1v1h-1zM46 55h1v1h-1zM44 58h1v1h-1zM42 61h1v1h-1zM40 64h1v1h-1zM38 67h1v1h-1zM36 70h1v1h-1zM34 73h1v1h-1zM33 74h1v1h-1zM31 77h1v1h-1zM29 80h1v1h-1zM27 83h1v1h-1zM25 86h1v1h-1zM23 89h1v1h-1zM21 92h1v1h-1zM19 95h1v1h-1zM17 98h1v1h-1z" /><path fill="#fb9240" d="M62 33h1v1h-1zM62 35h1v1h-1zM60 38h1v1h-1zM59 39h1v1h-1zM57 42h1v1h-1zM55 45h1v1h-1zM53 48h1v1h-1zM51 51h1v1h-1zM49 54h1v1h-1zM47 57h1v1h-1zM45 60h1v1h-1zM43 63h1v1h-1zM42 64h1v1h-1zM40 67h1v1h-1zM38 70h1v1h-1zM36 73h1v1h-1zM34 76h1v1h-1zM32 79h1v1h-1zM30 82h1v1h-1zM28 85h1v1h-1zM26 88h1v1h-1zM25 89h1v1h-1zM23 92h1v1h-1zM21 95h1v1h-1zM19 98h1v1h-1z" /><path fill="#fe6038" d="M63 33h1v1h-1z" /><path fill="#fe4135" d="M70 33h1v1h-1z" /><path fill="#fa7f3e" d="M72 33h1v1h-1z" /><path fill="#e33335" d="M87 33h1v1h-1zM86 34h1v1h-1zM85 35h2v1h-2zM85 36h1v1h-1zM84 37h1v1h-1zM83 38h1v1h-1zM82 39h1v1h-1zM81 40h2v1h-2zM81 41h1v1h-1zM80 42h1v1h-1zM79 43h1v1h-1zM78 44h2v1h-2zM78 45h1v1h-1zM77 46h1v1h-1zM76 47h1v1h-1zM75 48h2v1h-2zM75 49h1v1h-1zM74 50h1v1h-1zM73 51h1v1h-1zM72 52h1v1h-1zM71 53h2v1h-2zM71 54h1v1h-1zM70 55h1v1h-1zM69 56h1v1h-1zM68 57h2v1h-2zM68 58h1v1h-1zM67 59h1v1h-1zM66 60h1v1h-1zM65 61h1v1h-1zM64 62h2v1h-2zM64 63h1v1h-1zM63 64h1v1h-1zM62 65h1v1h-1zM61 66h2v1h-2zM61 67h1v1h-1zM60 68h1v1h-1zM59 69h1v1h-1zM58 70h1v1h-1zM57 71h2v1h-2zM57 72h1v1h-1zM56 73h1v1h-1zM55 74h1v1h-1zM54 75h2v1h-2zM54 76h1v1h-1zM53 77h1v1h-1zM52 78h1v1h-1zM51 79h1v1h-1zM50 80h2v1h-2zM50 81h1v1h-1zM49 82h1v1h-1zM48 83h1v1h-1zM47 84h2v1h-2zM47 85h1v1h-1zM46 86h1v1h-1zM45 87h1v1h-1zM44 88h1v1h-1zM44 89h1v1h-1zM43 90h1v1h-1zM42 91h1v1h-1zM41 92h1v1h-1zM40 93h2v1h-2zM40 94h1v1h-1zM39 95h1v1h-1zM38 96h1v1h-1zM37 97h2v1h-2zM37 98h1v1h-1z" /><path fill="#fd6e49" d="M38 34h1v1h-1z" /><path fill="#fcbe62" d="M41 34h1v1h-1zM33 48h1v1h-1zM28 54h2v1h-2zM28 55h1v1h-1zM27 56h2v1h-2z" /><path fill="#fb9f40" d="M58 34h1v1h-1zM57 35h1v1h-1zM55 38h1v1h-1zM53 41h1v1h-1zM51 44h1v1h-1zM49 47h1v1h-1zM47 50h1v1h-1zM45 53h1v1h-1zM43 56h1v1h-1zM41 59h1v1h-1zM40 60h1v1h-1zM38 63h1v1h-1zM36 66h1v1h-1zM34 69h1v1h-1zM32 72h1v1h-1zM30 75h1v1h-1zM28 78h1v1h-1zM26 81h1v1h-1zM24 84h1v1h-1zM23 85h1v1h-1zM21 88h1v1h-1zM19 91h1v1h-1zM17 94h1v1h-1zM15 97h1v1h-1z" /><path fill="#fb9c40" d="M59 34h1v1h-1zM57 37h1v1h-1zM55 40h1v1h-1zM54 41h1v1h-1zM52 44h1v1h-1zM50 47h1v1h-1zM48 50h1v1h-1zM46 53h1v1h-1zM44 56h1v1h-1zM42 59h1v1h-1zM40 62h1v1h-1zM38 65h1v1h-1zM37 66h1v1h-1zM35 69h1v1h-1zM33 72h1v1h-1zM31 75h1v1h-1zM29 78h1v1h-1zM27 81h1v1h-1zM25 84h1v1h-1zM23 87h1v1h-1zM21 90h1v1h-1zM20 91h1v1h-1zM18 94h1v1h-1zM16 97h1v1h-1z" /><path fill="#fb9940" d="M60 34h1v1h-1zM58 37h1v1h-1zM56 40h1v1h-1zM54 43h1v1h-1zM52 46h1v1h-1zM51 47h1v1h-1zM49 50h1v1h-1zM47 53h1v1h-1zM45 56h1v1h-1zM43 59h1v1h-1zM41 62h1v1h-1zM39 65h1v1h-1zM37 68h1v1h-1zM35 71h1v1h-1zM34 72h1v1h-1zM32 75h1v1h-1zM30 78h1v1h-1zM28 81h1v1h-1zM26 84h1v1h-1zM24 87h1v1h-1zM22 90h1v1h-1zM20 93h1v1h-1zM18 96h1v1h-1zM17 97h1v1h-1z" /><path fill="#fb9640" d="M61 34h1v1h-1zM59 37h1v1h-1zM57 40h1v1h-1zM55 43h1v1h-1zM53 46h1v1h-1zM51 49h1v1h-1zM49 52h1v1h-1zM47 55h1v1h-1zM46 56h1v1h-1zM44 59h1v1h-1zM42 62h1v1h-1zM40 65h1v1h-1zM38 68h1v1h-1zM36 71h1v1h-1zM34 74h1v1h-1zM32 77h1v1h-1zM30 80h1v1h-1zM29 81h1v1h-1zM27 84h1v1h-1zM25 87h1v1h-1zM23 90h1v1h-1zM21 93h1v1h-1zM19 96h1v1h-1z" /><path fill="#fb9440" d="M62 34h1v1h-1zM61 35h1v1h-1zM59 38h1v1h-1zM57 41h1v1h-1zM55 44h1v1h-1zM53 47h1v1h-1zM51 50h1v1h-1zM49 53h1v1h-1zM47 56h1v1h-1zM45 59h1v1h-1zM44 60h1v1h-1zM42 63h1v1h-1zM40 66h1v1h-1zM38 69h1v1h-1zM36 72h1v1h-1zM34 75h1v1h-1zM32 78h1v1h-1zM30 81h1v1h-1zM28 84h1v1h-1zM27 85h1v1h-1zM25 88h1v1h-1zM23 91h1v1h-1zM21 94h1v1h-1zM19 97h1v1h-1z" /><path fill="#fb9140" d="M63 34h1v1h-1zM61 37h1v1h-1zM59 40h1v1h-1zM58 41h1v1h-1zM56 44h1v1h-1zM54 47h1v1h-1zM52 50h1v1h-1zM50 53h1v1h-1zM48 56h1v1h-1zM46 59h1v1h-1zM44 62h1v1h-1zM42 65h1v1h-1zM41 66h1v1h-1zM39 69h1v1h-1zM37 72h1v1h-1zM35 75h1v1h-1zM33 78h1v1h-1zM31 81h1v1h-1zM29 84h1v1h-1zM27 87h1v1h-1zM25 90h1v1h-1zM24 91h1v1h-1zM22 94h1v1h-1zM20 97h1v1h-1z" /><path fill="#fc713b" d="M64 34h1v1h-1z" /><path fill="#ff4135" d="M65 34h1v1h-1z" /><path fill="#fc6b3c" d="M70 34h1v1h-1z" /><path fill="#fa703b" d="M72 34h1v1h-1z" /><path fill="#e43335" d="M87 34h1v1h-1zM87 35h1v1h-1zM86 36h1v1h-1zM85 37h1v1h-1zM84 38h1v1h-1zM83 39h2v1h-2zM83 40h1v1h-1zM82 41h1v1h-1zM81 42h1v1h-1zM80 43h2v1h-2zM80 44h1v1h-1zM79 45h1v1h-1zM78 46h1v1h-1zM77 47h1v1h-1zM77 48h1v1h-1zM76 49h1v1h-1zM75 50h1v1h-1zM74 51h1v1h-1zM73 52h2v1h-2zM73 53h1v1h-1zM72 54h1v1h-1zM71 55h1v1h-1zM70 56h2v1h-2zM70 57h1v1h-1zM69 58h1v1h-1zM68 59h1v1h-1zM67 60h1v1h-1zM66 61h2v1h-2zM66 62h1v1h-1zM65 63h1v1h-1zM64 64h1v1h-1zM63 65h2v1h-2zM63 66h1v1h-1zM62 67h1v1h-1zM61 68h1v1h-1zM60 69h1v1h-1zM59 70h2v1h-2zM59 71h1v1h-1zM58 72h1v1h-1zM57 73h1v1h-1zM56 74h2v1h-2zM56 75h1v1h-1zM55 76h1v1h-1zM54 77h1v1h-1zM53 78h1v1h-1zM52 79h2v1h-2zM52 80h1v1h-1zM51 81h1v1h-1zM50 82h1v1h-1zM49 83h2v1h-2zM49 84h1v1h-1zM48 85h1v1h-1zM47 86h1v1h-1zM46 87h1v1h-1zM45 88h2v1h-2zM45 89h1v1h-1zM44 90h1v1h-1zM43 91h1v1h-1zM42 92h2v1h-2zM42 93h1v1h-1zM41 94h1v1h-1zM40 95h1v1h-1zM39 96h1v1h-1zM39 97h1v1h-1zM38 98h1v1h-1z" /><path fill="#fbbe69" d="M38 35h1v1h-1z" /><path fill="#fbb348" d="M41 35h1v1h-1zM37 42h1v1h-1zM21 72h1v1h-1z" /><path fill="#fb9a40" d="M59 35h1v1h-1zM57 38h1v1h-1zM55 41h1v1h-1zM53 44h1v1h-1zM52 45h1v1h-1zM50 48h1v1h-1zM48 51h1v1h-1zM46 54h1v1h-1zM44 57h1v1h-1zM42 60h1v1h-1zM40 63h1v1h-1zM38 66h1v1h-1zM36 69h1v1h-1zM35 70h1v1h-1zM33 73h1v1h-1zM31 76h1v1h-1zM29 79h1v1h-1zM27 82h1v1h-1zM25 85h1v1h-1zM23 88h1v1h-1zM21 91h1v1h-1zM19 94h1v1h-1zM18 95h1v1h-1zM16 98h1v1h-1z" /><path fill="#fb9740" d="M60 35h1v1h-1zM58 38h1v1h-1zM56 41h1v1h-1zM54 44h1v1h-1zM52 47h1v1h-1zM50 50h1v1h-1zM49 51h1v1h-1zM48 53h1v1h-1zM47 54h1v1h-1zM45 57h1v1h-1zM43 60h1v1h-1zM41 63h1v1h-1zM39 66h1v1h-1zM37 69h1v1h-1zM35 72h1v1h-1zM33 75h1v1h-1zM32 76h1v1h-1zM31 78h1v1h-1zM30 79h1v1h-1zM28 82h1v1h-1zM26 85h1v1h-1zM24 88h1v1h-1zM22 91h1v1h-1zM20 94h1v1h-1zM18 97h1v1h-1z" /><path fill="#fb8f40" d="M63 35h1v1h-1zM61 38h1v1h-1zM59 41h1v1h-1zM57 44h1v1h-1zM56 45h1v1h-1zM54 48h1v1h-1zM52 51h1v1h-1zM50 54h1v1h-1zM48 57h1v1h-1zM46 60h1v1h-1zM44 63h1v1h-1zM42 66h1v1h-1zM39 70h1v1h-1zM37 73h1v1h-1zM35 76h1v1h-1zM33 79h1v1h-1zM31 82h1v1h-1zM29 85h1v1h-1zM27 88h1v1h-1zM25 91h1v1h-1zM23 94h1v1h-1zM22 95h1v1h-1zM20 98h1v1h-1z" /><path fill="#fb8c40" d="M64 35h1v1h-1zM62 38h1v1h-1zM60 41h1v1h-1zM58 44h1v1h-1zM56 47h1v1h-1zM54 50h1v1h-1zM52 53h1v1h-1zM51 54h1v1h-1zM48 58h1v1h-1zM45 62h1v1h-1zM28 88h1v1h-1zM26 91h1v1h-1zM24 94h1v1h-1zM22 97h1v1h-1z" /><path fill="#fc6f3c" d="M66 35h1v1h-1z" /><path fill="#fd5a39" d="M67 35h1v1h-1z" /><path fill="#fd5839" d="M68 35h1v1h-1z" /><path fill="#fc733d" d="M69 35h1v1h-1z" /><path fill="#ec4737" d="M72 35h1v1h-1z" /><path fill="#fc8953" d="M37 36h1v1h-1z" /><path fill="#fcc26c" d="M38 36h2v1h-2zM38 37h1v1h-1z" /><path fill="#fb9540" d="M60 36h1v1h-1zM58 39h1v1h-1zM56 42h1v1h-1zM54 45h1v1h-1zM52 48h1v1h-1zM50 51h1v1h-1zM48 54h1v1h-1zM46 57h1v1h-1zM45 58h1v1h-1zM43 61h1v1h-1zM41 64h1v1h-1zM39 67h1v1h-1zM37 70h1v1h-1zM35 73h1v1h-1zM33 76h1v1h-1zM31 79h1v1h-1zM29 82h1v1h-1zM28 83h1v1h-1zM26 86h1v1h-1zM24 89h1v1h-1zM22 92h1v1h-1zM20 95h1v1h-1zM18 98h1v1h-1z" /><path fill="#fb9340" d="M61 36h1v1h-1zM60 37h1v1h-1zM58 40h1v1h-1zM56 43h1v1h-1zM54 46h1v1h-1zM52 49h1v1h-1zM50 52h1v1h-1zM48 55h1v1h-1zM46 58h1v1h-1zM44 61h1v1h-1zM43 62h1v1h-1zM41 65h1v1h-1zM39 68h1v1h-1zM37 71h1v1h-1zM35 74h1v1h-1zM33 77h1v1h-1zM31 80h1v1h-1zM29 83h1v1h-1zM27 86h1v1h-1zM26 87h1v1h-1zM24 90h1v1h-1zM22 93h1v1h-1zM20 96h1v1h-1z" /><path fill="#fb9040" d="M62 36h1v1h-1zM60 39h1v1h-1zM58 42h1v1h-1zM57 43h1v1h-1zM55 46h1v1h-1zM53 49h1v1h-1zM51 52h1v1h-1zM49 55h1v1h-1zM47 58h1v1h-1zM45 61h1v1h-1zM43 64h1v1h-1zM41 67h1v1h-1zM40 68h1v1h-1zM38 71h1v1h-1zM36 74h1v1h-1zM34 77h1v1h-1zM32 80h1v1h-1zM30 83h1v1h-1zM28 86h1v1h-1zM26 89h1v1h-1zM24 92h1v1h-1zM23 93h1v1h-1zM21 96h1v1h-1z" /><path fill="#fb8d40" d="M63 36h1v1h-1zM61 39h1v1h-1zM59 42h1v1h-1zM57 45h1v1h-1zM55 48h1v1h-1zM54 49h1v1h-1zM53 51h1v1h-1zM52 52h1v1h-1zM50 55h1v1h-1zM31 83h1v1h-1zM29 86h1v1h-1zM27 89h1v1h-1zM25 92h1v1h-1zM23 95h1v1h-1zM21 98h1v1h-1z" /><path fill="#fb8a40" d="M64 36h1v1h-1zM62 39h1v1h-1zM60 42h1v1h-1zM58 45h1v1h-1zM56 48h1v1h-1zM53 52h1v1h-1zM25 93h1v1h-1z" /><path fill="#f8613a" d="M71 36h1v1h-1z" /><path fill="#e53335" d="M87 36h1v1h-1zM86 37h1v1h-1zM85 38h2v1h-2zM85 39h1v1h-1zM84 40h1v1h-1zM83 41h1v1h-1zM82 42h2v1h-2zM82 43h1v1h-1zM81 44h1v1h-1zM80 45h1v1h-1zM79 46h1v1h-1zM78 47h2v1h-2zM78 48h1v1h-1zM77 49h1v1h-1zM76 50h1v1h-1zM75 51h2v1h-2zM75 52h1v1h-1zM74 53h1v1h-1zM73 54h1v1h-1zM72 55h1v1h-1zM72 56h1v1h-1zM71 57h1v1h-1zM70 58h1v1h-1zM69 59h1v1h-1zM68 60h2v1h-2zM68 61h1v1h-1zM67 62h1v1h-1zM66 63h1v1h-1zM65 64h2v1h-2zM65 65h1v1h-1zM64 66h1v1h-1zM63 67h1v1h-1zM62 68h1v1h-1zM61 69h2v1h-2zM61 70h1v1h-1zM60 71h1v1h-1zM59 72h1v1h-1zM58 73h2v1h-2zM58 74h1v1h-1zM57 75h1v1h-1zM56 76h1v1h-1zM55 77h1v1h-1zM54 78h2v1h-2zM54 79h1v1h-1zM53 80h1v1h-1zM52 81h1v1h-1zM51 82h2v1h-2zM51 83h1v1h-1zM50 84h1v1h-1zM49 85h1v1h-1zM48 86h1v1h-1zM47 87h2v1h-2zM47 88h1v1h-1zM46 89h1v1h-1zM45 90h1v1h-1zM44 91h2v1h-2zM44 92h1v1h-1zM43 93h1v1h-1zM42 94h1v1h-1zM41 95h1v1h-1zM40 96h2v1h-2zM40 97h1v1h-1zM39 98h1v1h-1z" /><path fill="#ff3f37" d="M36 37h1v1h-1z" /><path fill="#fbc06a" d="M37 37h1v1h-1z" /><path fill="#fb8e40" d="M62 37h1v1h-1zM60 40h1v1h-1zM58 43h1v1h-1zM56 46h1v1h-1zM55 47h1v1h-1zM53 50h1v1h-1zM51 53h1v1h-1zM49 56h1v1h-1zM47 59h1v1h-1zM40 69h1v1h-1zM38 72h1v1h-1zM36 75h1v1h-1zM34 78h1v1h-1zM32 81h1v1h-1zM30 84h1v1h-1zM28 87h1v1h-1zM26 90h1v1h-1zM24 93h1v1h-1zM22 96h1v1h-1zM21 97h1v1h-1z" /><path fill="#fb8b40" d="M63 37h1v1h-1zM61 40h1v1h-1zM59 43h1v1h-1zM57 46h1v1h-1zM55 49h1v1h-1zM33 80h1v1h-1zM23 96h1v1h-1z" /><path fill="#f8663a" d="M70 37h1v1h-1zM62 44h1v1h-1z" /><path fill="#d83436" d="M71 37h1v1h-1z" /><path fill="#fca05b" d="M36 38h1v1h-1z" /><path fill="#fcc26b" d="M37 38h2v1h-2zM37 39h1v1h-1zM36 40h2v1h-2z" /><path fill="#fb8940" d="M63 38h1v1h-1zM61 41h1v1h-1zM59 44h1v1h-1zM57 47h1v1h-1zM30 85h1v1h-1z" /><path fill="#fb8740" d="M68 38h1v1h-1zM60 45h1v1h-1zM59 46h1v1h-1z" /><path fill="#f75f3a" d="M69 38h1v1h-1z" /><path fill="#eb3334" d="M87 38h1v1h-1z" /><path fill="#fd503c" d="M35 39h1v1h-1z" /><path fill="#fbc16a" d="M36 39h1v1h-1z" /><path fill="#fb863f" d="M67 39h1v1h-1z" /><path fill="#f35339" d="M68 39h1v1h-1z" /><path fill="#e63335" d="M86 39h1v1h-1zM85 40h1v1h-1zM84 41h2v1h-2zM84 42h1v1h-1zM83 43h1v1h-1zM82 44h1v1h-1zM81 45h1v1h-1zM80 46h2v1h-2zM80 47h1v1h-1zM79 48h1v1h-1zM78 49h1v1h-1zM77 50h2v1h-2zM77 51h1v1h-1zM76 52h1v1h-1zM75 53h1v1h-1zM74 54h1v1h-1zM73 55h2v1h-2zM73 56h1v1h-1zM72 57h1v1h-1zM71 58h1v1h-1zM70 59h2v1h-2zM70 60h1v1h-1zM69 61h1v1h-1zM68 62h1v1h-1zM67 63h2v1h-2zM67 64h1v1h-1zM66 65h1v1h-1zM65 66h1v1h-1zM64 67h1v1h-1zM63 68h2v1h-2zM63 69h1v1h-1zM62 70h1v1h-1zM61 71h1v1h-1zM60 72h2v1h-2zM60 73h1v1h-1zM59 74h1v1h-1zM58 75h1v1h-1zM57 76h1v1h-1zM56 77h2v1h-2zM56 78h1v1h-1zM55 79h1v1h-1zM54 80h1v1h-1zM53 81h2v1h-2zM53 82h1v1h-1zM52 83h1v1h-1zM51 84h1v1h-1zM50 85h1v1h-1zM49 86h2v1h-2zM49 87h1v1h-1zM48 88h1v1h-1zM47 89h1v1h-1zM46 90h2v1h-2zM46 91h1v1h-1zM45 92h1v1h-1zM44 93h1v1h-1zM43 94h1v1h-1zM42 95h2v1h-2zM42 96h1v1h-1zM41 97h1v1h-1zM40 98h1v1h-1z" /><path fill="#ee3335" d="M87 39h1v1h-1z" /><path fill="#fcb062" d="M35 40h1v1h-1z" /><path fill="#fa823f" d="M66 40h1v1h-1zM57 48h1v1h-1z" /><path fill="#ed4938" d="M67 40h1v1h-1z" /><path fill="#f13333" d="M87 40h1v1h-1z" /><path fill="#fd6343" d="M34 41h1v1h-1z" /><path fill="#e44037" d="M66 41h1v1h-1z" /><path fill="#fbb964" d="M34 42h1v1h-1z" /><path fill="#fa753c" d="M64 42h1v1h-1zM47 60h1v1h-1zM31 84h1v1h-1z" /><path fill="#df3a37" d="M65 42h1v1h-1z" /><path fill="#ec3234" d="M86 42h1v1h-1z" /><path fill="#ff3733" d="M24 43h9v1h-9zM14 44h16v1h-16zM14 45h1v1h-1z" /><path fill="#fd774a" d="M33 43h1v1h-1z" /><path fill="#fcc168" d="M34 43h1v1h-1zM34 44h1v1h-1z" /><path fill="#fa6b3b" d="M63 43h1v1h-1z" /><path fill="#d93536" d="M64 43h1v1h-1z" /><path fill="#e83335" d="M85 43h1v1h-1zM84 44h2v1h-2zM84 45h1v1h-1zM83 46h1v1h-1zM82 47h1v1h-1zM81 48h2v1h-2zM81 49h1v1h-1zM80 50h1v1h-1zM79 51h1v1h-1zM78 52h1v1h-1zM77 53h2v1h-2zM77 54h1v1h-1zM76 55h1v1h-1zM75 56h1v1h-1zM74 57h2v1h-2zM74 58h1v1h-1zM73 59h1v1h-1zM70 62h1v1h-1zM70 63h1v1h-1zM69 64h1v1h-1zM68 65h1v1h-1zM67 66h2v1h-2zM67 67h1v1h-1zM66 68h1v1h-1zM65 69h1v1h-1zM64 70h1v1h-1zM64 71h1v1h-1zM63 72h1v1h-1zM62 73h1v1h-1zM61 74h1v1h-1zM60 75h2v1h-2zM60 76h1v1h-1zM59 77h1v1h-1zM58 78h1v1h-1zM57 79h2v1h-2zM57 80h1v1h-1zM56 81h1v1h-1zM55 82h1v1h-1zM54 83h1v1h-1zM53 84h2v1h-2zM53 85h1v1h-1zM52 86h1v1h-1zM51 87h1v1h-1zM50 88h2v1h-2zM50 89h1v1h-1zM49 90h1v1h-1zM48 91h1v1h-1zM47 92h1v1h-1zM46 93h2v1h-2zM46 94h1v1h-1zM45 95h1v1h-1zM44 96h1v1h-1zM43 97h2v1h-2zM43 98h1v1h-1z" /><path fill="#f03434" d="M86 43h1v1h-1z" /><path fill="#ff3b34" d="M32 44h1v1h-1z" /><path fill="#fbbd66" d="M33 44h1v1h-1z" /><path fill="#d63436" d="M63 44h1v1h-1z" /><path fill="#ff3933" d="M26 45h6v1h-6zM14 46h7v1h-7z" /><path fill="#fc8b50" d="M32 45h1v1h-1z" /><path fill="#fcc068" d="M33 45h2v1h-2z" /><path fill="#fbb956" d="M35 45h1v1h-1zM30 54h1v1h-1zM20 73h1v1h-1zM17 77h2v1h-2zM16 78h2v1h-2zM16 79h2v1h-2z" /><path fill="#f65c39" d="M61 45h1v1h-1z" /><path fill="#ed3334" d="M85 45h1v1h-1zM84 47h1v1h-1zM81 52h1v1h-1zM71 61h1v1h-1zM72 68h1v1h-1zM71 69h1v1h-1zM70 70h2v1h-2zM70 71h1v1h-1zM69 72h1v1h-1zM68 73h1v1h-1zM67 74h1v1h-1zM66 75h2v1h-2zM66 76h1v1h-1zM65 77h1v1h-1zM64 78h1v1h-1zM63 79h2v1h-2zM63 80h1v1h-1zM62 81h1v1h-1zM61 82h1v1h-1zM60 83h1v1h-1zM59 84h2v1h-2zM59 85h1v1h-1zM58 86h1v1h-1zM57 87h1v1h-1zM56 88h2v1h-2zM56 89h1v1h-1zM55 90h1v1h-1zM54 91h1v1h-1zM53 92h1v1h-1zM52 93h2v1h-2zM52 94h1v1h-1zM51 95h1v1h-1zM50 96h1v1h-1zM49 97h2v1h-2zM49 98h1v1h-1z" /><path fill="#ff3a33" d="M21 46h10v1h-10zM14 47h3v1h-3z" /><path fill="#ff4235" d="M31 46h1v1h-1z" /><path fill="#fbbe64" d="M32 46h1v1h-1z" /><path fill="#fbb143" d="M35 46h1v1h-1zM16 84h1v1h-1zM15 87h1v1h-1z" /><path fill="#f2563a" d="M60 46h1v1h-1z" /><path fill="#e93335" d="M84 46h1v1h-1zM83 47h1v1h-1zM83 48h1v1h-1zM82 49h1v1h-1zM81 50h1v1h-1zM80 51h1v1h-1zM79 52h2v1h-2zM79 53h1v1h-1zM78 54h1v1h-1zM77 55h1v1h-1zM76 56h1v1h-1zM70 64h1v1h-1zM69 65h2v1h-2zM69 66h1v1h-1zM68 67h1v1h-1zM67 68h1v1h-1zM66 69h1v1h-1zM65 70h2v1h-2zM65 71h1v1h-1zM64 72h1v1h-1zM63 73h1v1h-1zM62 74h2v1h-2zM62 75h1v1h-1zM61 76h1v1h-1zM60 77h1v1h-1zM59 78h2v1h-2zM59 79h1v1h-1zM58 80h1v1h-1zM57 81h1v1h-1zM56 82h1v1h-1zM55 83h2v1h-2zM55 84h1v1h-1zM54 85h1v1h-1zM53 86h1v1h-1zM52 87h2v1h-2zM52 88h1v1h-1zM51 89h1v1h-1zM50 90h1v1h-1zM49 91h1v1h-1zM48 92h2v1h-2zM48 93h1v1h-1zM47 94h1v1h-1zM46 95h1v1h-1zM45 96h2v1h-2zM45 97h1v1h-1zM44 98h1v1h-1z" /><path fill="#ff3c33" d="M27 47h4v1h-4zM14 48h9v1h-9z" /><path fill="#fc9b56" d="M31 47h1v1h-1z" /><path fill="#fbb752" d="M34 47h1v1h-1zM29 56h1v1h-1zM16 82h1v1h-1zM14 86h1v1h-1zM13 87h2v1h-2z" /><path fill="#fb843f" d="M58 47h1v1h-1z" /><path fill="#ef4e38" d="M59 47h1v1h-1z" /><path fill="#ff3d33" d="M23 48h7v1h-7zM14 49h5v1h-5zM14 50h1v1h-1z" /><path fill="#ff4e39" d="M30 48h1v1h-1z" /><path fill="#fbc065" d="M31 48h1v1h-1z" /><path fill="#fcc066" d="M32 48h1v1h-1z" /><path fill="#ea4637" d="M58 48h1v1h-1z" /><path fill="#ff3f33" d="M29 49h1v1h-1zM15 50h10v1h-10z" /><path fill="#fdaa5b" d="M30 49h1v1h-1z" /><path fill="#fa843f" d="M56 49h1v1h-1z" /><path fill="#e94737" d="M57 49h1v1h-1z" /><path fill="#ee3334" d="M83 49h1v1h-1zM74 59h1v1h-1zM72 69h2v1h-2zM72 70h1v1h-1zM71 71h1v1h-1zM70 72h1v1h-1zM69 73h1v1h-1zM68 74h2v1h-2zM68 75h1v1h-1zM67 76h1v1h-1zM66 77h1v1h-1zM65 78h2v1h-2zM65 79h1v1h-1zM64 80h1v1h-1zM63 81h1v1h-1zM62 82h1v1h-1zM61 83h2v1h-2zM61 84h1v1h-1zM60 85h1v1h-1zM59 86h1v1h-1zM58 87h2v1h-2zM58 88h1v1h-1zM57 89h1v1h-1zM56 90h1v1h-1zM55 91h1v1h-1zM54 92h2v1h-2zM54 93h1v1h-1zM53 94h1v1h-1zM52 95h1v1h-1zM51 96h2v1h-2zM51 97h1v1h-1zM50 98h1v1h-1z" /><path fill="#ff4033" d="M25 50h4v1h-4zM14 51h7v1h-7zM14 52h1v1h-1z" /><path fill="#fd5a3c" d="M29 50h1v1h-1z" /><path fill="#fbbf65" d="M30 50h1v1h-1z" /><path fill="#fb853f" d="M55 50h1v1h-1z" /><path fill="#eb4937" d="M56 50h1v1h-1z" /><path fill="#eb3335" d="M82 50h1v1h-1zM78 55h1v1h-1zM75 58h1v1h-1zM71 66h1v1h-1zM70 67h1v1h-1zM69 68h2v1h-2zM69 69h1v1h-1zM68 70h1v1h-1zM67 71h1v1h-1zM66 72h2v1h-2zM66 73h1v1h-1zM65 74h1v1h-1zM64 75h1v1h-1zM63 76h1v1h-1zM62 77h2v1h-2zM62 78h1v1h-1zM61 79h1v1h-1zM60 80h1v1h-1zM59 81h2v1h-2zM59 82h1v1h-1zM58 83h1v1h-1zM57 84h1v1h-1zM56 85h1v1h-1zM56 86h1v1h-1zM55 87h1v1h-1zM54 88h1v1h-1zM53 89h1v1h-1zM52 90h2v1h-2zM52 91h1v1h-1zM51 92h1v1h-1zM50 93h1v1h-1zM49 94h2v1h-2zM49 95h1v1h-1zM48 96h1v1h-1zM47 97h1v1h-1zM46 98h1v1h-1z" /><path fill="#fbb35c" d="M29 51h1v1h-1z" /><path fill="#ea4836" d="M55 51h1v1h-1z" /><path fill="#ea3335" d="M81 51h1v1h-1zM79 54h1v1h-1zM77 56h1v1h-1zM76 57h1v1h-1zM71 65h1v1h-1zM70 66h1v1h-1zM69 67h1v1h-1zM68 68h1v1h-1zM67 69h2v1h-2zM67 70h1v1h-1zM66 71h1v1h-1zM65 72h1v1h-1zM64 73h2v1h-2zM64 74h1v1h-1zM63 75h1v1h-1zM62 76h1v1h-1zM61 77h1v1h-1zM61 78h1v1h-1zM60 79h1v1h-1zM59 80h1v1h-1zM58 81h1v1h-1zM57 82h2v1h-2zM57 83h1v1h-1zM56 84h1v1h-1zM55 85h1v1h-1zM54 86h2v1h-2zM54 87h1v1h-1zM53 88h1v1h-1zM52 89h1v1h-1zM51 90h1v1h-1zM50 91h2v1h-2zM50 92h1v1h-1zM49 93h1v1h-1zM48 94h1v1h-1zM47 95h2v1h-2zM47 96h1v1h-1zM46 97h1v1h-1zM45 98h1v1h-1z" /><path fill="#f13335" d="M82 51h1v1h-1z" /><path fill="#ff4233" d="M16 52h11v1h-11z" /><path fill="#ff4333" d="M27 52h1v1h-1zM14 53h6v1h-6z" /><path fill="#fd6c42" d="M28 52h1v1h-1z" /><path fill="#fcbf64" d="M29 52h2v1h-2z" /><path fill="#ef5038" d="M54 52h1v1h-1z" /><path fill="#ff4633" d="M27 53h1v1h-1zM19 54h6v1h-6zM14 55h1v1h-1z" /><path fill="#fcb960" d="M28 53h1v1h-1z" /><path fill="#fcbf63" d="M29 53h2v1h-2z" /><path fill="#f45b39" d="M53 53h1v1h-1z" /><path fill="#eb3234" d="M80 53h1v1h-1z" /><path fill="#ff4733" d="M25 54h2v1h-2zM15 55h2v1h-2z" /><path fill="#fd8047" d="M27 54h1v1h-1z" /><path fill="#f7643a" d="M52 54h1v1h-1z" /><path fill="#ff4833" d="M17 55h6v1h-6z" /><path fill="#fbbb60" d="M27 55h1v1h-1z" /><path fill="#f9713c" d="M51 55h1v1h-1z" /><path fill="#d43436" d="M52 55h1v1h-1z" /><path fill="#ff4b33" d="M22 56h4v1h-4z" /><path fill="#fd8d4c" d="M26 56h1v1h-1z" /><path fill="#d93836" d="M51 56h1v1h-1z" /><path fill="#f33434" d="M78 56h1v1h-1zM74 70h1v1h-1z" /><path fill="#ff4c33" d="M14 57h6v1h-6z" /><path fill="#ff4d33" d="M20 57h5v1h-5zM14 58h1v1h-1z" /><path fill="#ff5133" d="M25 57h1v1h-1zM17 59h6v1h-6z" /><path fill="#fbbc60" d="M26 57h1v1h-1z" /><path fill="#fbb142" d="M29 57h1v1h-1z" /><path fill="#fa853e" d="M49 57h1v1h-1z" /><path fill="#e14037" d="M50 57h1v1h-1z" /><path fill="#fc9550" d="M25 58h1v1h-1z" /><path fill="#eb4d37" d="M49 58h1v1h-1z" /><path fill="#ff5033" d="M14 59h3v1h-3z" /><path fill="#ff5736" d="M24 59h1v1h-1z" /><path fill="#fbbc5e" d="M25 59h1v1h-1zM24 61h1v1h-1z" /><path fill="#fcbd60" d="M26 59h1v1h-1z" /><path fill="#fcbc5e" d="M27 59h1v1h-1zM24 63h1v1h-1zM23 64h2v1h-2z" /><path fill="#f55e39" d="M48 59h1v1h-1z" /><path fill="#fc9e50" d="M24 60h1v1h-1z" /><path fill="#d43536" d="M48 60h1v1h-1z" /><path fill="#e93234" d="M72 60h1v1h-1z" /><path fill="#f13334" d="M73 60h1v1h-1zM72 66h1v1h-1zM74 71h1v1h-1zM74 72h1v1h-1zM73 73h1v1h-1zM72 74h1v1h-1zM71 75h2v1h-2zM71 76h1v1h-1zM70 77h1v1h-1zM69 78h1v1h-1zM68 79h1v1h-1zM67 80h2v1h-2zM67 81h1v1h-1zM66 82h1v1h-1zM65 83h1v1h-1zM64 84h2v1h-2zM64 85h1v1h-1zM63 86h1v1h-1zM62 87h1v1h-1zM61 88h1v1h-1zM60 89h2v1h-2zM60 90h1v1h-1zM59 91h1v1h-1zM58 92h1v1h-1zM57 93h2v1h-2zM57 94h1v1h-1zM56 95h1v1h-1zM55 96h1v1h-1zM54 97h1v1h-1zM53 98h2v1h-2z" /><path fill="#ff5533" d="M14 61h6v1h-6z" /><path fill="#ff5633" d="M20 61h3v1h-3zM14 62h1v1h-1z" /><path fill="#ff5f36" d="M23 61h1v1h-1z" /><path fill="#fcbb5c" d="M26 61h1v1h-1zM21 68h2v1h-2z" /><path fill="#fa833e" d="M46 61h1v1h-1z" /><path fill="#dc3b37" d="M47 61h1v1h-1z" /><path fill="#fca453" d="M23 62h1v1h-1z" /><path fill="#fbb54b" d="M26 62h1v1h-1z" /><path fill="#e94a37" d="M46 62h1v1h-1z" /><path fill="#ff5b33" d="M15 63h4v1h-4z" /><path fill="#ff5c33" d="M19 63h3v1h-3z" /><path fill="#ff6837" d="M22 63h1v1h-1z" /><path fill="#fabb5d" d="M23 63h1v1h-1z" /><path fill="#fcbb59" d="M25 63h1v1h-1zM19 72h2v1h-2z" /><path fill="#f66139" d="M45 63h1v1h-1z" /><path fill="#ff5d33" d="M14 64h1v1h-1z" /><path fill="#ff5e33" d="M15 64h3v1h-3z" /><path fill="#fca954" d="M22 64h1v1h-1z" /><path fill="#fb7a3c" d="M44 64h1v1h-1z" /><path fill="#d53436" d="M45 64h1v1h-1zM35 79h1v1h-1z" /><path fill="#ef3334" d="M71 64h1v1h-1zM73 70h1v1h-1zM72 71h1v1h-1zM71 72h1v1h-1zM70 73h2v1h-2zM70 74h1v1h-1zM69 75h1v1h-1zM68 76h1v1h-1zM67 77h2v1h-2zM67 78h1v1h-1zM66 79h1v1h-1zM65 80h1v1h-1zM64 81h1v1h-1zM63 82h2v1h-2zM63 83h1v1h-1zM62 84h1v1h-1zM61 85h1v1h-1zM60 86h2v1h-2zM60 87h1v1h-1zM59 88h1v1h-1zM58 89h1v1h-1zM57 90h1v1h-1zM56 91h2v1h-2zM56 92h1v1h-1zM55 93h1v1h-1zM54 94h1v1h-1zM53 95h2v1h-2zM53 96h1v1h-1zM52 97h1v1h-1zM51 98h1v1h-1z" /><path fill="#ff6133" d="M15 65h3v1h-3z" /><path fill="#ff6233" d="M18 65h3v1h-3z" /><path fill="#fd6e38" d="M21 65h1v1h-1z" /><path fill="#fabb5c" d="M22 65h1v1h-1z" /><path fill="#fbba57" d="M24 65h1v1h-1zM17 76h2v1h-2z" /><path fill="#fb8a3f" d="M43 65h1v1h-1z" /><path fill="#e14135" d="M44 65h1v1h-1z" /><path fill="#ff6333" d="M14 66h1v1h-1z" /><path fill="#ff6433" d="M15 66h2v1h-2z" /><path fill="#fcad54" d="M21 66h1v1h-1z" /><path fill="#fcbc5c" d="M22 66h2v1h-2zM22 67h1v1h-1z" /><path fill="#f25938" d="M43 66h1v1h-1z" /><path fill="#fd763a" d="M20 67h1v1h-1z" /><path fill="#fbbc5c" d="M21 67h1v1h-1z" /><path fill="#fbb955" d="M23 67h1v1h-1zM22 69h1v1h-1zM21 71h1v1h-1zM19 75h1v1h-1zM16 80h1v1h-1zM15 81h2v1h-2z" /><path fill="#fa743c" d="M42 67h1v1h-1z" /><path fill="#ec3335" d="M71 67h1v1h-1zM68 71h1v1h-1zM65 75h1v1h-1zM64 76h1v1h-1zM62 79h1v1h-1zM61 80h1v1h-1zM58 84h1v1h-1zM57 85h1v1h-1zM55 88h1v1h-1zM54 89h1v1h-1zM51 93h1v1h-1zM48 97h1v1h-1zM47 98h1v1h-1z" /><path fill="#ec3334" d="M72 67h1v1h-1zM71 68h1v1h-1zM70 69h1v1h-1zM69 70h1v1h-1zM69 71h1v1h-1zM68 72h1v1h-1zM67 73h1v1h-1zM66 74h1v1h-1zM65 76h1v1h-1zM64 77h1v1h-1zM63 78h1v1h-1zM62 80h1v1h-1zM61 81h1v1h-1zM60 82h1v1h-1zM59 83h1v1h-1zM58 85h1v1h-1zM57 86h1v1h-1zM56 87h1v1h-1zM55 89h1v1h-1zM54 90h1v1h-1zM53 91h1v1h-1zM52 92h1v1h-1zM51 94h1v1h-1zM50 95h1v1h-1zM49 96h1v1h-1zM48 98h1v1h-1z" /><path fill="#fcab52" d="M20 68h1v1h-1z" /><path fill="#fa873e" d="M41 68h1v1h-1z" /><path fill="#de3d36" d="M42 68h1v1h-1z" /><path fill="#f23334" d="M73 68h1v1h-1zM74 73h1v1h-1zM73 74h1v1h-1zM73 75h1v1h-1zM72 76h1v1h-1zM71 77h1v1h-1zM70 78h1v1h-1zM69 79h2v1h-2zM69 80h1v1h-1zM68 81h1v1h-1zM67 82h1v1h-1zM66 83h2v1h-2zM66 84h1v1h-1zM65 85h1v1h-1zM64 86h1v1h-1zM63 87h1v1h-1zM62 88h2v1h-2zM62 89h1v1h-1zM61 90h1v1h-1zM60 91h1v1h-1zM59 92h2v1h-2zM59 93h1v1h-1zM58 94h1v1h-1zM57 95h1v1h-1zM56 96h1v1h-1zM55 97h2v1h-2zM55 98h1v1h-1z" /><path fill="#ff6f36" d="M19 69h1v1h-1z" /><path fill="#fbbb5a" d="M20 69h1v1h-1z" /><path fill="#fcbb5b" d="M21 69h1v1h-1z" /><path fill="#ee5237" d="M41 69h1v1h-1z" /><path fill="#fca650" d="M19 70h1v1h-1z" /><path fill="#f96c3b" d="M40 70h1v1h-1z" /><path fill="#ff6a36" d="M18 71h1v1h-1z" /><path fill="#faba58" d="M19 71h1v1h-1z" /><path fill="#fb833e" d="M39 71h1v1h-1z" /><path fill="#d93a36" d="M40 71h1v1h-1z" /><path fill="#f03334" d="M73 71h1v1h-1zM72 72h2v1h-2zM72 73h1v1h-1zM71 74h1v1h-1zM70 75h1v1h-1zM69 76h2v1h-2zM69 77h1v1h-1zM68 78h1v1h-1zM67 79h1v1h-1zM66 80h1v1h-1zM65 81h2v1h-2zM65 82h1v1h-1zM64 83h1v1h-1zM63 84h1v1h-1zM62 85h2v1h-2zM62 86h1v1h-1zM61 87h1v1h-1zM60 88h1v1h-1zM59 89h1v1h-1zM58 90h2v1h-2zM58 91h1v1h-1zM57 92h1v1h-1zM56 93h1v1h-1zM55 94h2v1h-2zM55 95h1v1h-1zM54 96h1v1h-1zM53 97h1v1h-1zM52 98h1v1h-1z" /><path fill="#fc9f4b" d="M18 72h1v1h-1z" /><path fill="#ed5138" d="M39 72h1v1h-1z" /><path fill="#f43233" d="M75 72h1v1h-1z" /><path fill="#ff6934" d="M17 73h1v1h-1z" /><path fill="#fab857" d="M18 73h1v1h-1z" /><path fill="#f9703b" d="M38 73h1v1h-1z" /><path fill="#f33334" d="M75 73h1v1h-1zM74 74h2v1h-2zM74 75h1v1h-1zM73 76h1v1h-1zM72 77h1v1h-1zM71 78h2v1h-2zM71 79h1v1h-1zM70 80h1v1h-1zM69 81h1v1h-1zM68 82h1v1h-1zM68 83h1v1h-1zM67 84h1v1h-1zM66 85h1v1h-1zM65 86h1v1h-1zM64 87h2v1h-2zM64 88h1v1h-1zM63 89h1v1h-1zM62 90h1v1h-1zM61 91h2v1h-2zM61 92h1v1h-1zM60 93h1v1h-1zM59 94h1v1h-1zM58 95h1v1h-1zM57 96h2v1h-2zM57 97h1v1h-1zM56 98h1v1h-1z" /><path fill="#fd9648" d="M17 74h1v1h-1z" /><path fill="#fbb449" d="M20 74h1v1h-1zM15 86h1v1h-1zM14 89h1v1h-1z" /><path fill="#fa863f" d="M37 74h1v1h-1zM27 90h1v1h-1z" /><path fill="#dd3d37" d="M38 74h1v1h-1z" /><path fill="#f63333" d="M76 74h1v1h-1z" /><path fill="#ff6632" d="M16 75h1v1h-1z" /><path fill="#fbb856" d="M17 75h1v1h-1z" /><path fill="#f05638" d="M37 75h1v1h-1z" /><path fill="#f43334" d="M75 75h1v1h-1zM74 76h1v1h-1zM73 77h2v1h-2zM73 78h1v1h-1zM72 79h1v1h-1zM71 80h1v1h-1zM70 81h1v1h-1zM69 82h2v1h-2zM69 83h1v1h-1zM68 84h1v1h-1zM67 85h1v1h-1zM66 86h2v1h-2zM66 87h1v1h-1zM65 88h1v1h-1zM64 89h1v1h-1zM63 90h2v1h-2zM63 91h1v1h-1zM62 92h1v1h-1zM61 93h1v1h-1zM60 94h1v1h-1zM59 95h2v1h-2zM59 96h1v1h-1zM58 97h1v1h-1zM57 98h1v1h-1z" /><path fill="#f53334" d="M76 75h1v1h-1zM75 76h2v1h-2zM75 77h1v1h-1zM74 78h1v1h-1zM73 79h1v1h-1zM72 80h1v1h-1zM71 81h2v1h-2zM71 82h1v1h-1zM70 83h1v1h-1zM69 84h1v1h-1zM68 85h2v1h-2zM68 86h1v1h-1zM67 87h1v1h-1zM66 88h1v1h-1zM65 89h1v1h-1zM65 90h1v1h-1zM64 91h1v1h-1zM63 92h1v1h-1zM62 93h1v1h-1zM61 94h2v1h-2zM61 95h1v1h-1zM60 96h1v1h-1zM59 97h1v1h-1zM58 98h2v1h-2z" /><path fill="#fd8c43" d="M16 76h1v1h-1z" /><path fill="#f9753b" d="M36 76h1v1h-1z" /><path fill="#f83233" d="M77 76h1v1h-1z" /><path fill="#fbb455" d="M16 77h1v1h-1z" /><path fill="#fa883f" d="M35 77h1v1h-1z" /><path fill="#e13f36" d="M36 77h1v1h-1z" /><path fill="#f63334" d="M76 77h1v1h-1zM75 78h1v1h-1zM74 79h1v1h-1zM73 80h2v1h-2zM73 81h1v1h-1zM72 82h1v1h-1zM71 83h1v1h-1zM70 84h2v1h-2zM70 85h1v1h-1zM69 86h1v1h-1zM68 87h1v1h-1zM67 88h1v1h-1zM66 89h2v1h-2zM66 90h1v1h-1zM65 91h1v1h-1zM64 92h1v1h-1zM63 93h2v1h-2zM63 94h1v1h-1zM62 95h1v1h-1zM61 96h1v1h-1zM60 97h1v1h-1zM60 98h1v1h-1z" /><path fill="#f73334" d="M77 77h1v1h-1zM76 78h1v1h-1zM75 79h2v1h-2zM75 80h1v1h-1zM74 81h1v1h-1zM73 82h1v1h-1zM72 83h2v1h-2zM72 84h1v1h-1zM71 85h1v1h-1zM70 86h1v1h-1zM69 87h1v1h-1zM68 88h2v1h-2zM68 89h1v1h-1zM67 90h1v1h-1zM66 91h1v1h-1zM65 92h2v1h-2zM65 93h1v1h-1zM64 94h1v1h-1zM63 95h1v1h-1zM62 96h1v1h-1zM61 97h2v1h-2zM61 98h1v1h-1z" /><path fill="#fd793b" d="M15 78h1v1h-1z" /><path fill="#f35c39" d="M35 78h1v1h-1z" /><path fill="#f83334" d="M77 78h1v1h-1zM77 79h1v1h-1zM76 80h1v1h-1zM75 81h1v1h-1zM74 82h2v1h-2zM74 83h1v1h-1zM73 84h1v1h-1zM72 85h1v1h-1zM71 86h1v1h-1zM70 87h2v1h-2zM70 88h1v1h-1zM69 89h1v1h-1zM68 90h1v1h-1zM67 91h2v1h-2zM67 92h1v1h-1zM66 93h1v1h-1zM65 94h1v1h-1zM64 95h1v1h-1zM63 96h2v1h-2zM63 97h1v1h-1zM62 98h1v1h-1z" /><path fill="#f93334" d="M78 78h1v1h-1zM72 86h1v1h-1zM65 95h1v1h-1z" /><path fill="#fca74f" d="M15 79h1v1h-1z" /><path fill="#fa793c" d="M34 79h1v1h-1z" /><path fill="#f93333" d="M78 79h1v1h-1zM77 80h1v1h-1zM76 81h2v1h-2zM76 82h1v1h-1zM75 83h1v1h-1zM74 84h1v1h-1zM73 85h1v1h-1zM73 86h1v1h-1zM72 87h1v1h-1zM71 88h1v1h-1zM70 89h1v1h-1zM69 90h2v1h-2zM69 91h1v1h-1zM68 92h1v1h-1zM67 93h1v1h-1zM66 94h1v1h-1zM66 95h1v1h-1zM65 96h1v1h-1zM64 97h1v1h-1zM63 98h1v1h-1z" /><path fill="#ff6b36" d="M14 80h1v1h-1z" /><path fill="#fab755" d="M15 80h1v1h-1z" /><path fill="#e64736" d="M34 80h1v1h-1z" /><path fill="#fa3333" d="M78 80h1v1h-1zM78 81h1v1h-1zM77 82h1v1h-1zM76 83h1v1h-1zM75 84h1v1h-1zM74 85h2v1h-2zM74 86h1v1h-1zM73 87h1v1h-1zM72 88h1v1h-1zM71 89h2v1h-2zM71 90h1v1h-1zM70 91h1v1h-1zM69 92h1v1h-1zM68 93h1v1h-1zM67 94h2v1h-2zM67 95h1v1h-1zM66 96h1v1h-1zM65 97h1v1h-1zM64 98h2v1h-2z" /><path fill="#fa3232" d="M79 80h1v1h-1z" /><path fill="#fba14a" d="M14 81h1v1h-1z" /><path fill="#f8693a" d="M33 81h1v1h-1z" /><path fill="#fb3333" d="M79 81h1v1h-1zM78 82h1v1h-1zM77 83h1v1h-1zM76 84h2v1h-2zM76 85h1v1h-1zM75 86h1v1h-1zM74 87h1v1h-1zM73 88h2v1h-2zM73 89h1v1h-1zM72 90h1v1h-1zM71 91h1v1h-1zM70 92h1v1h-1zM69 93h2v1h-2zM69 94h1v1h-1zM68 95h1v1h-1zM67 96h1v1h-1zM66 97h2v1h-2zM66 98h1v1h-1z" /><path fill="#fbb753" d="M14 82h1v1h-1zM14 83h1v1h-1z" /><path fill="#fa823e" d="M32 82h1v1h-1z" /><path fill="#db3936" d="M33 82h1v1h-1z" /><path fill="#fc3333" d="M79 82h1v1h-1zM78 83h2v1h-2zM78 84h1v1h-1zM77 85h1v1h-1zM76 86h1v1h-1zM75 87h2v1h-2zM75 88h1v1h-1zM74 89h1v1h-1zM73 90h1v1h-1zM72 91h1v1h-1zM71 92h2v1h-2zM71 93h1v1h-1zM70 94h1v1h-1zM69 95h1v1h-1zM68 96h2v1h-2zM68 97h1v1h-1zM67 98h1v1h-1z" /><path fill="#fd3333" d="M80 82h1v1h-1zM80 83h1v1h-1zM79 84h1v1h-1zM78 85h1v1h-1zM77 86h1v1h-1zM77 87h1v1h-1zM76 88h1v1h-1zM75 89h1v1h-1zM74 90h1v1h-1zM73 91h2v1h-2zM73 92h1v1h-1zM72 93h1v1h-1zM71 94h1v1h-1zM70 95h2v1h-2zM70 96h1v1h-1zM69 97h1v1h-1zM68 98h1v1h-1z" /><path fill="#fbb853" d="M15 83h1v1h-1zM14 84h2v1h-2zM14 85h1v1h-1z" /><path fill="#f05538" d="M32 83h1v1h-1z" /><path fill="#fe3333" d="M80 84h1v1h-1zM79 85h1v1h-1zM78 86h2v1h-2zM78 87h1v1h-1zM77 88h1v1h-1zM76 89h1v1h-1zM75 90h2v1h-2zM75 91h1v1h-1zM74 92h1v1h-1zM73 93h1v1h-1zM72 94h2v1h-2zM72 95h1v1h-1zM71 96h1v1h-1zM70 97h1v1h-1zM69 98h1v1h-1z" /><path fill="#fbb64f" d="M15 85h1v1h-1zM12 92h1v1h-1z" /><path fill="#e24337" d="M31 85h1v1h-1z" /><path fill="#fbb851" d="M13 86h1v1h-1z" /><path fill="#f6633a" d="M30 86h1v1h-1z" /><path fill="#fb803e" d="M29 87h1v1h-1z" /><path fill="#d93636" d="M30 87h1v1h-1z" /><path fill="#fdb750" d="M12 88h1v1h-1z" /><path fill="#ed5038" d="M29 88h1v1h-1z" /><path fill="#fbb74f" d="M12 89h1v1h-1z" /><path fill="#f96f3c" d="M28 89h1v1h-1z" /><path fill="#fbb650" d="M12 90h1v1h-1z" /><path fill="#fbb145" d="M14 90h1v1h-1z" /><path fill="#e23e37" d="M28 90h1v1h-1z" /><path fill="#fbae41" d="M14 91h1v1h-1z" /><path fill="#f45e39" d="M27 91h1v1h-1z" /><path fill="#fbb44d" d="M13 92h1v1h-1z" /><path fill="#fb7a3d" d="M26 92h1v1h-1z" /><path fill="#d73436" d="M27 92h1v1h-1z" /><path fill="#fbb54e" d="M12 93h1v1h-1z" /><path fill="#fbb14b" d="M13 93h1v1h-1z" /><path fill="#e84937" d="M26 93h1v1h-1z" /><path fill="#fbb34d" d="M12 94h1v1h-1z" /><path fill="#fbaf4a" d="M13 94h1v1h-1z" /><path fill="#f9683a" d="M25 94h1v1h-1z" /><path fill="#fbb04d" d="M12 95h1v1h-1z" /><path fill="#fbac4a" d="M13 95h1v1h-1z" /><path fill="#fa803e" d="M24 95h1v1h-1z" /><path fill="#dc3936" d="M25 95h1v1h-1z" /><path fill="#fbaf4b" d="M12 96h1v1h-1z" /><path fill="#fbab4a" d="M13 96h1v1h-1z" /><path fill="#f05138" d="M24 96h1v1h-1z" /><path fill="#fba94a" d="M13 97h1v1h-1z" /><path fill="#fba241" d="M14 97h1v1h-1z" /><path fill="#f96b3b" d="M23 97h1v1h-1z" /><path fill="#fba143" d="M14 98h1v1h-1z" /><path fill="#fa7b3d" d="M22 98h1v1h-1z" /><path fill="#de3937" d="M23 98h1v1h-1z" /><path fill="#fb973f" d="M16 99h1v1h-1z" /><path fill="#fa953f" d="M17 99h1v1h-1z" /><path fill="#fa933f" d="M18 99h1v1h-1z" /><path fill="#fa8f40" d="M19 99h1v1h-1z" /><path fill="#fa8d40" d="M20 99h1v1h-1z" /></svg>