<svg xmlns="http://www.w3.org/2000/svg" viewBox="0 0 100 100" width="1em" height="1em"><path fill="#de3423" d="M80 1h1v1h-1zM80 2h1v1h-1zM78 3h3v1h-3zM76 4h5v1h-5zM73 5h8v1h-8zM68 6h1v1h-1zM70 6h11v1h-11zM64 7h1v1h-1zM66 7h15v1h-15zM61 8h20v1h-20zM57 9h24v1h-24zM48 10h1v1h-1zM50 10h31v1h-31zM40 11h1v1h-1zM43 11h38v1h-38zM26 12h1v1h-1zM33 12h48v1h-48zM19 13h62v1h-62zM19 14h62v1h-62zM19 15h62v1h-62zM19 16h62v1h-62zM19 17h62v1h-62zM19 18h62v1h-62zM19 19h62v1h-62zM19 20h62v1h-62zM19 21h62v1h-62zM19 22h62v1h-62zM19 23h62v1h-62zM19 24h61v1h-61zM19 25h61v1h-61zM19 26h59v1h-59zM19 27h56v1h-56zM19 28h53v1h-53zM19 29h50v1h-50zM19 30h46v1h-46zM19 31h41v1h-41zM19 32h36v1h-36zM19 33h31v1h-31zM19 34h24v1h-24zM79 34h2v1h-2zM19 35h15v1h-15zM77 35h4v1h-4zM19 36h4v1h-4zM74 36h7v1h-7zM71 37h10v1h-10zM67 38h14v1h-14zM63 39h18v1h-18zM58 40h23v1h-23zM53 41h28v1h-28zM46 42h35v1h-35zM33 43h2v1h-2zM38 43h43v1h-43zM23 44h58v1h-58zM19 45h62v1h-62zM19 46h62v1h-62zM19 47h62v1h-62zM19 48h62v1h-62zM19 49h62v1h-62zM19 50h62v1h-62zM19 51h62v1h-62zM19 52h62v1h-62zM19 53h62v1h-62zM19 54h62v1h-62zM19 55h62v1h-62zM19 56h61v1h-61zM19 57h60v1h-60zM19 58h57v1h-57zM19 59h55v1h-55zM19 60h51v1h-51zM19 61h48v1h-48zM19 62h43v1h-43zM19 63h39v1h-39zM19 64h33v1h-33zM19 65h26v1h-26zM80 65h1v1h-1zM19 66h19v1h-19zM78 66h3v1h-3zM19 67h9v1h-9zM75 67h6v1h-6zM72 68h9v1h-9zM69 69h12v1h-12zM65 70h16v1h-16zM61 71h20v1h-20zM55 72h26v1h-26zM49 73h32v1h-32zM41 74h40v1h-40zM21 75h1v1h-1zM31 75h50v1h-50zM19 76h62v1h-62zM19 77h62v1h-62zM19 78h62v1h-62zM19 79h62v1h-62zM19 80h62v1h-62zM19 81h62v1h-62zM19 82h62v1h-62zM19 83h62v1h-62zM19 84h62v1h-62zM19 85h62v1h-62zM19 86h62v1h-62zM19 87h61v1h-61zM19 88h60v1h-60zM19 89h58v1h-58zM78 89h1v1h-1zM19 90h56v1h-56zM19 91h53v1h-53zM19 92h49v1h-49zM19 93h45v1h-45zM65 93h1v1h-1zM19 94h40v1h-40zM19 95h35v1h-35zM19 96h29v1h-29zM19 97h22v1h-22zM19 98h13v1h-13zM34 98h1v1h-1zM23 99h1v1h-1z" /><path fill="#dd3423" d="M79 2h1v1h-1zM67 6h1v1h-1zM63 7h1v1h-1zM60 8h1v1h-1zM53 9h1v1h-1zM56 9h1v1h-1zM47 10h1v1h-1zM38 11h2v1h-2zM72 28h1v1h-1zM80 33h1v1h-1zM32 43h1v1h-1zM21 44h2v1h-2zM22 75h2v1h-2zM18 76h1v1h-1zM18 77h1v1h-1zM18 78h1v1h-1zM18 79h1v1h-1zM18 80h1v1h-1zM18 81h1v1h-1zM18 82h1v1h-1zM18 83h1v1h-1zM18 84h1v1h-1zM18 85h1v1h-1zM18 86h1v1h-1zM18 87h1v1h-1zM80 87h1v1h-1zM18 88h1v1h-1zM18 89h1v1h-1zM18 90h1v1h-1zM18 91h1v1h-1zM18 92h1v1h-1zM18 93h1v1h-1zM64 93h1v1h-1zM66 93h1v1h-1zM18 94h1v1h-1zM18 95h1v1h-1zM18 96h1v1h-1zM18 97h1v1h-1zM18 98h1v1h-1zM33 98h1v1h-1zM18 99h3v1h-3z" /><path fill="#dd3323" d="M77 3h1v1h-1zM69 6h1v1h-1zM49 10h1v1h-1zM35 43h1v1h-1zM24 75h1v1h-1zM30 75h1v1h-1zM77 89h1v1h-1zM59 94h1v1h-1zM44 97h1v1h-1zM32 98h1v1h-1zM36 98h1v1h-1zM25 99h1v1h-1z" /><path fill="#dd3422" d="M74 4h1v1h-1zM37 43h1v1h-1zM56 95h1v1h-1z" /><path fill="#de3422" d="M75 4h1v1h-1zM65 7h1v1h-1zM31 12h1v1h-1zM18 13h1v1h-1zM18 14h1v1h-1zM18 15h1v1h-1zM18 16h1v1h-1zM18 17h1v1h-1zM18 18h1v1h-1zM18 19h1v1h-1zM18 20h1v1h-1zM18 21h1v1h-1zM18 22h1v1h-1zM18 23h1v1h-1zM18 24h1v1h-1zM80 24h1v1h-1zM18 25h1v1h-1zM18 26h1v1h-1zM78 26h1v1h-1zM18 27h1v1h-1zM18 28h1v1h-1zM18 29h1v1h-1zM18 30h1v1h-1zM18 31h1v1h-1zM18 32h1v1h-1zM18 33h1v1h-1zM18 34h1v1h-1zM18 45h1v1h-1zM18 46h1v1h-1zM18 47h1v1h-1zM18 48h1v1h-1zM18 49h1v1h-1zM18 50h1v1h-1zM18 51h1v1h-1zM18 52h1v1h-1zM18 53h1v1h-1zM18 54h1v1h-1zM18 55h1v1h-1zM18 56h1v1h-1zM18 57h1v1h-1zM18 58h1v1h-1zM18 59h1v1h-1zM18 60h1v1h-1zM18 61h1v1h-1zM18 62h1v1h-1zM18 63h1v1h-1zM18 64h1v1h-1zM18 65h1v1h-1zM18 66h1v1h-1zM79 88h1v1h-1zM73 91h1v1h-1zM68 92h1v1h-1zM54 95h1v1h-1zM48 96h1v1h-1zM50 96h1v1h-1zM41 97h1v1h-1zM26 99h1v1h-1z" /><path fill="#dd3322" d="M71 5h1v1h-1zM55 9h1v1h-1zM41 11h1v1h-1zM28 12h1v1h-1zM30 12h1v1h-1zM36 43h1v1h-1zM18 44h3v1h-3zM25 75h1v1h-1zM27 75h1v1h-1zM75 90h1v1h-1zM72 91h1v1h-1zM69 92h1v1h-1zM60 94h1v1h-1zM55 95h1v1h-1zM49 96h1v1h-1zM42 97h1v1h-1zM21 99h1v1h-1zM24 99h1v1h-1z" /><path fill="#de3322" d="M72 5h1v1h-1zM42 11h1v1h-1zM27 12h1v1h-1zM29 12h1v1h-1zM32 12h1v1h-1zM28 75h1v1h-1zM61 94h1v1h-1zM22 99h1v1h-1z" /><path fill="#de3323" d="M59 8h1v1h-1zM54 9h1v1h-1zM80 56h1v1h-1zM79 57h1v1h-1zM26 75h1v1h-1zM29 75h1v1h-1zM43 97h1v1h-1zM35 98h1v1h-1z" /><path fill="#dc3322" d="M75 27h1v1h-1zM18 35h1v1h-1zM45 65h1v1h-1zM18 67h1v1h-1zM28 67h1v1h-1z" /><path fill="#ad291c" d="M76 27h1v1h-1z" /><path fill="#721a11" d="M77 27h1v1h-1z" /><path fill="#bd2d1e" d="M73 28h1v1h-1zM51 41h1v1h-1zM30 67h1v1h-1z" /><path fill="#831e15" d="M74 28h1v1h-1z" /><path fill="#48110b" d="M75 28h1v1h-1z" /><path fill="#380d09" d="M76 28h4v1h-4zM73 29h7v1h-7zM70 30h10v1h-10zM66 31h14v1h-14zM61 32h19v1h-19zM56 33h22v1h-22zM50 34h26v1h-26zM43 35h30v1h-30zM35 36h35v1h-35zM23 37h44v1h-44zM22 38h41v1h-41zM25 39h33v1h-33zM29 40h23v1h-23zM33 41h13v1h-13zM36 42h1v1h-1zM77 59h1v1h-1zM74 60h6v1h-6zM71 61h9v1h-9zM67 62h14v1h-14zM63 63h17v1h-17zM58 64h21v1h-21zM52 65h25v1h-25zM46 66h28v1h-28zM38 67h34v1h-34zM29 68h39v1h-39zM21 69h43v1h-43zM24 70h36v1h-36zM27 71h28v1h-28zM31 72h17v1h-17zM33 73h1v1h-1zM36 73h5v1h-5z" /><path fill="#d63221" d="M69 29h1v1h-1zM70 37h1v1h-1z" /><path fill="#a9271b" d="M70 29h1v1h-1z" /><path fill="#791c13" d="M71 29h1v1h-1zM68 37h1v1h-1z" /><path fill="#49110b" d="M72 29h1v1h-1zM21 37h1v1h-1zM66 62h1v1h-1z" /><path fill="#370d09" d="M80 29h1v1h-1zM27 40h1v1h-1zM25 71h1v1h-1zM34 73h2v1h-2z" /><path fill="#d73321" d="M65 30h1v1h-1z" /><path fill="#b2291c" d="M66 30h1v1h-1zM51 33h1v1h-1z" /><path fill="#8b2016" d="M67 30h1v1h-1zM49 41h1v1h-1zM75 59h1v1h-1zM60 63h1v1h-1z" /><path fill="#641810" d="M68 30h1v1h-1zM74 35h1v1h-1z" /><path fill="#3c0e0a" d="M69 30h1v1h-1zM34 36h1v1h-1zM70 36h1v1h-1z" /><path fill="#370c08" d="M80 30h1v1h-1zM28 40h1v1h-1zM31 41h1v1h-1z" /><path fill="#dc3423" d="M60 31h1v1h-1zM55 32h1v1h-1zM34 35h1v1h-1zM76 58h1v1h-1zM70 60h1v1h-1zM62 62h1v1h-1zM60 71h1v1h-1z" /><path fill="#c52e1f" d="M61 31h1v1h-1zM74 59h1v1h-1z" /><path fill="#a4271a" d="M62 31h1v1h-1zM76 66h1v1h-1z" /><path fill="#801d14" d="M63 31h1v1h-1z" /><path fill="#57150d" d="M64 31h1v1h-1z" /><path fill="#3a0d09" d="M65 31h1v1h-1zM73 35h1v1h-1zM74 66h1v1h-1z" /><path fill="#3b0e0a" d="M80 31h1v1h-1zM45 66h1v1h-1zM68 68h1v1h-1z" /><path fill="#c42e1f" d="M56 32h1v1h-1z" /><path fill="#a3261a" d="M57 32h1v1h-1z" /><path fill="#811e15" d="M58 32h1v1h-1zM22 68h1v1h-1z" /><path fill="#601710" d="M59 32h1v1h-1z" /><path fill="#400f0b" d="M60 32h1v1h-1zM22 37h1v1h-1z" /><path fill="#8b2015" d="M80 32h1v1h-1z" /><path fill="#cd3021" d="M50 33h1v1h-1zM73 36h1v1h-1zM58 63h1v1h-1zM54 72h1v1h-1z" /><path fill="#962418" d="M52 33h1v1h-1zM42 42h1v1h-1zM41 66h1v1h-1z" /><path fill="#7b1d13" d="M53 33h1v1h-1zM34 67h1v1h-1z" /><path fill="#5f160f" d="M54 33h1v1h-1zM56 64h1v1h-1zM56 71h1v1h-1z" /><path fill="#400e0b" d="M55 33h1v1h-1z" /><path fill="#3f0e0b" d="M78 33h1v1h-1zM57 64h1v1h-1zM37 67h1v1h-1z" /><path fill="#982418" d="M79 33h1v1h-1zM52 72h1v1h-1z" /><path fill="#cc2f20" d="M43 34h1v1h-1zM57 40h1v1h-1z" /><path fill="#b52a1c" d="M44 34h1v1h-1z" /><path fill="#9e2518" d="M45 34h1v1h-1zM32 67h1v1h-1z" /><path fill="#862016" d="M46 34h1v1h-1zM60 39h1v1h-1z" /><path fill="#6f1a12" d="M47 34h1v1h-1zM48 41h1v1h-1z" /><path fill="#57150e" d="M48 34h1v1h-1zM72 67h1v1h-1z" /><path fill="#3d0f0a" d="M49 34h1v1h-1z" /><path fill="#45100b" d="M76 34h1v1h-1zM51 65h1v1h-1z" /><path fill="#851f15" d="M77 34h1v1h-1z" /><path fill="#d13121" d="M78 34h1v1h-1zM52 64h1v1h-1zM40 74h1v1h-1z" /><path fill="#cd3020" d="M35 35h1v1h-1zM62 39h1v1h-1zM29 67h1v1h-1z" /><path fill="#b92b1d" d="M36 35h1v1h-1zM36 74h1v1h-1z" /><path fill="#a5261a" d="M37 35h1v1h-1z" /><path fill="#922217" d="M38 35h1v1h-1zM19 68h1v1h-1z" /><path fill="#7f1d14" d="M39 35h1v1h-1zM42 66h1v1h-1z" /><path fill="#6a1911" d="M40 35h1v1h-1zM61 63h1v1h-1zM24 68h1v1h-1z" /><path fill="#56140d" d="M41 35h1v1h-1z" /><path fill="#3f0e0a" d="M42 35h1v1h-1zM41 73h1v1h-1z" /><path fill="#a12619" d="M75 35h1v1h-1zM58 71h1v1h-1z" /><path fill="#d83222" d="M76 35h1v1h-1z" /><path fill="#db3322" d="M18 36h1v1h-1zM23 36h1v1h-1zM79 65h1v1h-1z" /><path fill="#cf3021" d="M24 36h1v1h-1z" /><path fill="#c32e1e" d="M25 36h1v1h-1z" /><path fill="#b82b1d" d="M26 36h1v1h-1z" /><path fill="#ac281b" d="M27 36h1v1h-1zM40 66h1v1h-1z" /><path fill="#9c2419" d="M28 36h1v1h-1z" /><path fill="#8c2016" d="M29 36h1v1h-1zM73 67h1v1h-1z" /><path fill="#7d1e14" d="M30 36h1v1h-1zM55 64h1v1h-1zM51 72h1v1h-1z" /><path fill="#6c1911" d="M31 36h1v1h-1zM54 40h1v1h-1z" /><path fill="#5d160f" d="M32 36h1v1h-1z" /><path fill="#4b110c" d="M33 36h1v1h-1z" /><path fill="#681810" d="M71 36h1v1h-1zM43 66h1v1h-1zM35 67h1v1h-1z" /><path fill="#9b2419" d="M72 36h1v1h-1zM65 38h1v1h-1z" /><path fill="#6c1b10" d="M18 37h1v1h-1z" /><path fill="#54140e" d="M19 37h1v1h-1z" /><path fill="#4f120d" d="M20 37h1v1h-1zM63 38h1v1h-1z" /><path fill="#50130d" d="M67 37h1v1h-1zM44 66h1v1h-1z" /><path fill="#a7271a" d="M69 37h1v1h-1zM61 39h1v1h-1zM50 41h1v1h-1z" /><path fill="#380c09" d="M21 38h1v1h-1zM23 39h2v1h-2zM29 72h2v1h-2z" /><path fill="#751b13" d="M64 38h1v1h-1zM69 61h1v1h-1z" /><path fill="#ca3020" d="M66 38h1v1h-1z" /><path fill="#46100b" d="M58 39h1v1h-1zM70 61h1v1h-1z" /><path fill="#671810" d="M59 39h1v1h-1z" /><path fill="#3a0e09" d="M52 40h1v1h-1z" /><path fill="#4e120d" d="M53 40h1v1h-1zM76 59h1v1h-1z" /><path fill="#8c2116" d="M55 40h1v1h-1zM33 67h1v1h-1z" /><path fill="#ad281c" d="M56 40h1v1h-1zM59 63h1v1h-1zM31 67h1v1h-1zM67 69h1v1h-1z" /><path fill="#380c08" d="M32 41h1v1h-1zM22 70h1v1h-1zM26 71h1v1h-1z" /><path fill="#430f0a" d="M46 41h1v1h-1zM55 71h1v1h-1z" /><path fill="#59140e" d="M47 41h1v1h-1zM73 60h1v1h-1zM65 69h1v1h-1z" /><path fill="#d73322" d="M52 41h1v1h-1zM48 73h1v1h-1z" /><path fill="#380d08" d="M35 42h1v1h-1zM78 59h1v1h-1zM80 61h1v1h-1zM20 69h1v1h-1z" /><path fill="#390d09" d="M37 42h1v1h-1zM28 68h1v1h-1zM48 72h1v1h-1z" /><path fill="#49110c" d="M38 42h1v1h-1z" /><path fill="#5d150f" d="M39 42h1v1h-1z" /><path fill="#701b12" d="M40 42h1v1h-1z" /><path fill="#841f15" d="M41 42h1v1h-1z" /><path fill="#ab281b" d="M43 42h1v1h-1z" /><path fill="#bf2c1e" d="M44 42h1v1h-1zM47 73h1v1h-1z" /><path fill="#d23122" d="M45 42h1v1h-1z" /><path fill="#c12d1e" d="M77 58h1v1h-1z" /><path fill="#bb2c1e" d="M71 60h1v1h-1z" /><path fill="#8a2016" d="M72 60h1v1h-1z" /><path fill="#c62e1f" d="M67 61h1v1h-1z" /><path fill="#9f2519" d="M68 61h1v1h-1z" /><path fill="#c22d1f" d="M63 62h1v1h-1z" /><path fill="#992318" d="M64 62h1v1h-1z" /><path fill="#721b12" d="M65 62h1v1h-1z" /><path fill="#44100a" d="M62 63h1v1h-1z" /><path fill="#5b160d" d="M80 63h1v1h-1z" /><path fill="#b42a1c" d="M53 64h1v1h-1zM38 74h1v1h-1z" /><path fill="#9a2419" d="M54 64h1v1h-1z" /><path fill="#58140e" d="M79 64h1v1h-1z" /><path fill="#d03021" d="M80 64h1v1h-1z" /><path fill="#c82f1f" d="M46 65h1v1h-1z" /><path fill="#b02a1c" d="M47 65h1v1h-1zM37 74h1v1h-1z" /><path fill="#982318" d="M48 65h1v1h-1z" /><path fill="#7c1d13" d="M49 65h1v1h-1z" /><path fill="#621710" d="M50 65h1v1h-1z" /><path fill="#47110b" d="M77 65h1v1h-1zM27 68h1v1h-1z" /><path fill="#952318" d="M78 65h1v1h-1zM70 68h1v1h-1z" /><path fill="#d33222" d="M38 66h1v1h-1z" /><path fill="#bf2c1f" d="M39 66h1v1h-1z" /><path fill="#631810" d="M75 66h1v1h-1z" /><path fill="#d93222" d="M77 66h1v1h-1z" /><path fill="#54140d" d="M36 67h1v1h-1z" /><path fill="#c92f20" d="M74 67h1v1h-1zM71 68h1v1h-1z" /><path fill="#a4261a" d="M18 68h1v1h-1z" /><path fill="#902217" d="M20 68h1v1h-1z" /><path fill="#872016" d="M21 68h1v1h-1z" /><path fill="#761b13" d="M23 68h1v1h-1z" /><path fill="#5e160f" d="M25 68h1v1h-1z" /><path fill="#53130e" d="M26 68h1v1h-1zM42 73h1v1h-1z" /><path fill="#631710" d="M69 68h1v1h-1zM61 70h1v1h-1z" /><path fill="#3a0e0a" d="M64 69h1v1h-1z" /><path fill="#861f15" d="M66 69h1v1h-1z" /><path fill="#d43222" d="M68 69h1v1h-1z" /><path fill="#370d08" d="M23 70h1v1h-1z" /><path fill="#420f0a" d="M60 70h1v1h-1z" /><path fill="#882016" d="M62 70h1v1h-1z" /><path fill="#b12a1c" d="M63 70h1v1h-1z" /><path fill="#d63321" d="M64 70h1v1h-1z" /><path fill="#811e14" d="M57 71h1v1h-1z" /><path fill="#c22d1e" d="M59 71h1v1h-1z" /><path fill="#4c110c" d="M49 72h1v1h-1z" /><path fill="#651710" d="M50 72h1v1h-1z" /><path fill="#b02a1b" d="M53 72h1v1h-1z" /><path fill="#661710" d="M43 73h1v1h-1z" /><path fill="#7a1d13" d="M44 73h1v1h-1z" /><path fill="#8e2116" d="M45 73h1v1h-1z" /><path fill="#a6261a" d="M46 73h1v1h-1z" /><path fill="#be2c1e" d="M39 74h1v1h-1z" /></svg>