<svg xmlns="http://www.w3.org/2000/svg" viewBox="0 0 100 100"><path fill="#de3423" fill-rule="evenodd" d="M80 1h1v23h-1v2h-2v1h-3v1h-3v1h-3v1h-4v1h-5v1h-5v1h-5v1h-7v1h-9v1h-11v1h-4v-24h7v-1h1v1h6v-1h7v-1h1v1h2v-1h5v-1h1v1h1v-1h7v-1h4v-1h3v-1h1v1h1v-1h2v-1h1v1h1v-1h3v-1h3v-1h2v-1h2zm-1 33h2v22h-1v1h-1v1h-3v1h-2v1h-4v1h-3v1h-5v1h-4v1h-6v1h-7v1h-7v1h-10v1h-9v-23h4v-1h10v-1h2v1h3v-1h8v-1h7v-1h5v-1h5v-1h4v-1h4v-1h3v-1h3v-1h2zm1 31h1v22h-1v1h-1v2h-1v-1h-1v1h-2v1h-3v1h-4v1h-2v1h-1v-1h-1v1h-5v1h-5v1h-6v1h-7v1h-6v1h-1v-1h-2v1h-8v1h-1v-1h-4v-23h2v-1h1v1h9v-1h10v-1h8v-1h6v-1h6v-1h4v-1h4v-1h3v-1h3v-1h3v-1h2z"/><path fill="#dd3423" fill-rule="evenodd" d="M79 2h1v1h-1zm-12 4h1v1h-1zm-4 1h1v1h-1zm-3 1h1v1h-1zm-7 1h1v1h-1zm3 0h1v1h-1zm-9 1h1v1h-1zm-9 1h2v1h-2zm34 17h1v1h-1zm8 5h1v1h-1zm-48 10h1v1h-1zm-11 1h2v1h-2zm1 31h2v1h-2zm-4 1h1v23h2v1h-3zm62 11h1v1h-1zm-16 6h1v1h-1zm2 0h1v1h-1zm-33 5h1v1h-1z"/><path fill="#dd3323" fill-rule="evenodd" d="M77 3h1v1h-1zm-8 3h1v1h-1zm-20 4h1v1h-1zm-14 33h1v1h-1zm-11 32h1v1h-1zm6 0h1v1h-1zm47 14h1v1h-1zm-18 5h1v1h-1zm-15 3h1v1h-1zm-12 1h1v1h-1zm4 0h1v1h-1zm-11 1h1v1h-1z"/><path fill="#dd3422" fill-rule="evenodd" d="M74 4h1v1h-1zm-37 39h1v1h-1zm19 52h1v1h-1z"/><path fill="#de3422" fill-rule="evenodd" d="M75 4h1v1h-1zm-10 3h1v1h-1zm-34 5h1v1h-1zm-13 1h1v22h-1zm62 11h1v1h-1zm-2 2h1v1h-1zm-60 19h1v22h-1zm61 43h1v1h-1zm-6 3h1v1h-1zm-5 1h1v1h-1zm-14 3h1v1h-1zm-6 1h1v1h-1zm2 0h1v1h-1zm-9 1h1v1h-1zm-15 2h1v1h-1z"/><path fill="#d32" fill-rule="evenodd" d="M71 5h1v1h-1zm-16 4h1v1h-1zm-14 2h1v1h-1zm-13 1h1v1h-1zm2 0h1v1h-1zm6 31h1v1h-1zm-18 1h3v1h-3zm7 31h1v1h-1zm2 0h1v1h-1zm48 15h1v1h-1zm-3 1h1v1h-1zm-3 1h1v1h-1zm-9 2h1v1h-1zm-5 1h1v1h-1zm-6 1h1v1h-1zm-7 1h1v1h-1zm-21 2h1v1h-1zm3 0h1v1h-1z"/><path fill="#de3322" fill-rule="evenodd" d="M72 5h1v1h-1zm-30 6h1v1h-1zm-15 1h1v1h-1zm2 0h1v1h-1zm3 0h1v1h-1zm-4 63h1v1h-1zm33 19h1v1h-1zm-39 5h1v1h-1z"/><path fill="#de3323" fill-rule="evenodd" d="M59 8h1v1h-1zm-5 1h1v1h-1zm26 47h1v1h-1zm0 1v1h-1v-1zm-54 18h1v1h-1zm3 0h1v1h-1zm14 22h1v1h-1zm-8 1h1v1h-1z"/><path fill="#dc3322" fill-rule="evenodd" d="M75 27h1v1h-1zm-57 8h1v1h-1zm27 30h1v1h-1zm-27 2h1v1h-1zm10 0h1v1h-1z"/><path fill="#ad291c" fill-rule="evenodd" d="M76 27h1v1h-1z"/><path fill="#721a11" fill-rule="evenodd" d="M77 27h1v1h-1z"/><path fill="#bd2d1e" fill-rule="evenodd" d="M73 28h1v1h-1zm-22 13h1v1h-1zm-21 26h1v1h-1z"/><path fill="#831e15" fill-rule="evenodd" d="M74 28h1v1h-1z"/><path fill="#48110b" fill-rule="evenodd" d="M75 28h1v1h-1z"/><path fill="#380d09" fill-rule="evenodd" d="M76 28h4v5h-2v1h-2v1h-3v1h-3v1h-3v1h-4v1h-5v1h-6v1h-6v1h-9v1h-1v-1h-3v-1h-4v-1h-4v-1h-3v-1h1v-1h12v-1h8v-1h7v-1h6v-1h5v-1h5v-1h4v-1h3v-1h3zm1 31h1v1h2v2h1v1h-1v1h-1v1h-2v1h-3v1h-2v1h-4v1h-4v1h-4v1h-5v1h-7v1h-7v1h-5v-1h-2v1h-1v-1h-2v-1h-4v-1h-3v-1h-3v-1h8v-1h9v-1h8v-1h6v-1h6v-1h5v-1h4v-1h4v-1h3v-1h3z"/><path fill="#d63221" fill-rule="evenodd" d="M69 29h1v1h-1zm1 8h1v1h-1z"/><path fill="#a9271b" fill-rule="evenodd" d="M70 29h1v1h-1z"/><path fill="#791c13" fill-rule="evenodd" d="M71 29h1v1h-1zm-3 8h1v1h-1z"/><path fill="#49110b" fill-rule="evenodd" d="M72 29h1v1h-1zm-51 8h1v1h-1zm45 25h1v1h-1z"/><path fill="#370d09" fill-rule="evenodd" d="M80 29h1v1h-1zm-53 11h1v1h-1zm-2 31h1v1h-1zm9 2h2v1h-2z"/><path fill="#d73321" fill-rule="evenodd" d="M65 30h1v1h-1z"/><path fill="#b2291c" fill-rule="evenodd" d="M66 30h1v1h-1zm-15 3h1v1h-1z"/><path fill="#8b2016" fill-rule="evenodd" d="M67 30h1v1h-1zm-18 11h1v1h-1zm26 18h1v1h-1zm-15 4h1v1h-1z"/><path fill="#641810" fill-rule="evenodd" d="M68 30h1v1h-1zm6 5h1v1h-1z"/><path fill="#3c0e0a" fill-rule="evenodd" d="M69 30h1v1h-1zm-35 6h1v1h-1zm36 0h1v1h-1z"/><path fill="#370c08" fill-rule="evenodd" d="M80 30h1v1h-1zm-52 10h1v1h-1zm3 1h1v1h-1z"/><path fill="#dc3423" fill-rule="evenodd" d="M60 31h1v1h-1zm-5 1h1v1h-1zm-21 3h1v1h-1zm42 23h1v1h-1zm-6 2h1v1h-1zm-8 2h1v1h-1zm-2 9h1v1h-1z"/><path fill="#c52e1f" fill-rule="evenodd" d="M61 31h1v1h-1zm13 28h1v1h-1z"/><path fill="#a4271a" fill-rule="evenodd" d="M62 31h1v1h-1zm14 35h1v1h-1z"/><path fill="#801d14" fill-rule="evenodd" d="M63 31h1v1h-1z"/><path fill="#57150d" fill-rule="evenodd" d="M64 31h1v1h-1z"/><path fill="#3a0d09" fill-rule="evenodd" d="M65 31h1v1h-1zm8 4h1v1h-1zm1 31h1v1h-1z"/><path fill="#3b0e0a" fill-rule="evenodd" d="M80 31h1v1h-1zm-35 35h1v1h-1zm23 2h1v1h-1z"/><path fill="#c42e1f" fill-rule="evenodd" d="M56 32h1v1h-1z"/><path fill="#a3261a" fill-rule="evenodd" d="M57 32h1v1h-1z"/><path fill="#811e15" fill-rule="evenodd" d="M58 32h1v1h-1zm-36 36h1v1h-1z"/><path fill="#601710" fill-rule="evenodd" d="M59 32h1v1h-1z"/><path fill="#400f0b" fill-rule="evenodd" d="M60 32h1v1h-1zm-38 5h1v1h-1z"/><path fill="#8b2015" fill-rule="evenodd" d="M80 32h1v1h-1z"/><path fill="#cd3021" fill-rule="evenodd" d="M50 33h1v1h-1zm23 3h1v1h-1zm-15 27h1v1h-1zm-4 9h1v1h-1z"/><path fill="#962418" fill-rule="evenodd" d="M52 33h1v1h-1zm-10 9h1v1h-1zm-1 24h1v1h-1z"/><path fill="#7b1d13" fill-rule="evenodd" d="M53 33h1v1h-1zm-19 34h1v1h-1z"/><path fill="#5f160f" fill-rule="evenodd" d="M54 33h1v1h-1zm2 31h1v1h-1zm0 7h1v1h-1z"/><path fill="#400e0b" fill-rule="evenodd" d="M55 33h1v1h-1z"/><path fill="#3f0e0b" fill-rule="evenodd" d="M78 33h1v1h-1zm-21 31h1v1h-1zm-20 3h1v1h-1z"/><path fill="#982418" fill-rule="evenodd" d="M79 33h1v1h-1zm-27 39h1v1h-1z"/><path fill="#cc2f20" fill-rule="evenodd" d="M43 34h1v1h-1zm14 6h1v1h-1z"/><path fill="#b52a1c" fill-rule="evenodd" d="M44 34h1v1h-1z"/><path fill="#9e2518" fill-rule="evenodd" d="M45 34h1v1h-1zm-13 33h1v1h-1z"/><path fill="#862016" fill-rule="evenodd" d="M46 34h1v1h-1zm14 5h1v1h-1z"/><path fill="#6f1a12" fill-rule="evenodd" d="M47 34h1v1h-1zm1 7h1v1h-1z"/><path fill="#57150e" fill-rule="evenodd" d="M48 34h1v1h-1zm24 33h1v1h-1z"/><path fill="#3d0f0a" fill-rule="evenodd" d="M49 34h1v1h-1z"/><path fill="#45100b" fill-rule="evenodd" d="M76 34h1v1h-1zm-25 31h1v1h-1z"/><path fill="#851f15" fill-rule="evenodd" d="M77 34h1v1h-1z"/><path fill="#d13121" fill-rule="evenodd" d="M78 34h1v1h-1zm-26 30h1v1h-1zm-12 10h1v1h-1z"/><path fill="#cd3020" fill-rule="evenodd" d="M35 35h1v1h-1zm27 4h1v1h-1zm-33 28h1v1h-1z"/><path fill="#b92b1d" fill-rule="evenodd" d="M36 35h1v1h-1zm0 39h1v1h-1z"/><path fill="#a5261a" fill-rule="evenodd" d="M37 35h1v1h-1z"/><path fill="#922217" fill-rule="evenodd" d="M38 35h1v1h-1zm-19 33h1v1h-1z"/><path fill="#7f1d14" fill-rule="evenodd" d="M39 35h1v1h-1zm3 31h1v1h-1z"/><path fill="#6a1911" fill-rule="evenodd" d="M40 35h1v1h-1zm21 28h1v1h-1zm-37 5h1v1h-1z"/><path fill="#56140d" fill-rule="evenodd" d="M41 35h1v1h-1z"/><path fill="#3f0e0a" fill-rule="evenodd" d="M42 35h1v1h-1zm-1 38h1v1h-1z"/><path fill="#a12619" fill-rule="evenodd" d="M75 35h1v1h-1zm-17 36h1v1h-1z"/><path fill="#d83222" fill-rule="evenodd" d="M76 35h1v1h-1z"/><path fill="#db3322" fill-rule="evenodd" d="M18 36h1v1h-1zm5 0h1v1h-1zm56 29h1v1h-1z"/><path fill="#cf3021" fill-rule="evenodd" d="M24 36h1v1h-1z"/><path fill="#c32e1e" fill-rule="evenodd" d="M25 36h1v1h-1z"/><path fill="#b82b1d" fill-rule="evenodd" d="M26 36h1v1h-1z"/><path fill="#ac281b" fill-rule="evenodd" d="M27 36h1v1h-1zm13 30h1v1h-1z"/><path fill="#9c2419" fill-rule="evenodd" d="M28 36h1v1h-1z"/><path fill="#8c2016" fill-rule="evenodd" d="M29 36h1v1h-1zm44 31h1v1h-1z"/><path fill="#7d1e14" fill-rule="evenodd" d="M30 36h1v1h-1zm25 28h1v1h-1zm-4 8h1v1h-1z"/><path fill="#6c1911" fill-rule="evenodd" d="M31 36h1v1h-1zm23 4h1v1h-1z"/><path fill="#5d160f" fill-rule="evenodd" d="M32 36h1v1h-1z"/><path fill="#4b110c" fill-rule="evenodd" d="M33 36h1v1h-1z"/><path fill="#681810" fill-rule="evenodd" d="M71 36h1v1h-1zm-28 30h1v1h-1zm-8 1h1v1h-1z"/><path fill="#9b2419" fill-rule="evenodd" d="M72 36h1v1h-1zm-7 2h1v1h-1z"/><path fill="#6c1b10" fill-rule="evenodd" d="M18 37h1v1h-1z"/><path fill="#54140e" fill-rule="evenodd" d="M19 37h1v1h-1z"/><path fill="#4f120d" fill-rule="evenodd" d="M20 37h1v1h-1zm43 1h1v1h-1z"/><path fill="#50130d" fill-rule="evenodd" d="M67 37h1v1h-1zm-23 29h1v1h-1z"/><path fill="#a7271a" fill-rule="evenodd" d="M69 37h1v1h-1zm-8 2h1v1h-1zm-11 2h1v1h-1z"/><path fill="#380c09" fill-rule="evenodd" d="M21 38h1v1h-1zm2 1h2v1h-2zm6 33h2v1h-2z"/><path fill="#751b13" fill-rule="evenodd" d="M64 38h1v1h-1zm5 23h1v1h-1z"/><path fill="#ca3020" fill-rule="evenodd" d="M66 38h1v1h-1z"/><path fill="#46100b" fill-rule="evenodd" d="M58 39h1v1h-1zm12 22h1v1h-1z"/><path fill="#671810" fill-rule="evenodd" d="M59 39h1v1h-1z"/><path fill="#3a0e09" fill-rule="evenodd" d="M52 40h1v1h-1z"/><path fill="#4e120d" fill-rule="evenodd" d="M53 40h1v1h-1zm23 19h1v1h-1z"/><path fill="#8c2116" fill-rule="evenodd" d="M55 40h1v1h-1zm-22 27h1v1h-1z"/><path fill="#ad281c" fill-rule="evenodd" d="M56 40h1v1h-1zm3 23h1v1h-1zm-28 4h1v1h-1zm36 2h1v1h-1z"/><path fill="#380c08" fill-rule="evenodd" d="M32 41h1v1h-1zm-10 29h1v1h-1zm4 1h1v1h-1z"/><path fill="#430f0a" fill-rule="evenodd" d="M46 41h1v1h-1zm9 30h1v1h-1z"/><path fill="#59140e" fill-rule="evenodd" d="M47 41h1v1h-1zm26 19h1v1h-1zm-8 9h1v1h-1z"/><path fill="#d73322" fill-rule="evenodd" d="M52 41h1v1h-1zm-4 32h1v1h-1z"/><path fill="#380d08" fill-rule="evenodd" d="M35 42h1v1h-1zm43 17h1v1h-1zm2 2h1v1h-1zm-60 8h1v1h-1z"/><path fill="#390d09" fill-rule="evenodd" d="M37 42h1v1h-1zm-9 26h1v1h-1zm20 4h1v1h-1z"/><path fill="#49110c" fill-rule="evenodd" d="M38 42h1v1h-1z"/><path fill="#5d150f" fill-rule="evenodd" d="M39 42h1v1h-1z"/><path fill="#701b12" fill-rule="evenodd" d="M40 42h1v1h-1z"/><path fill="#841f15" fill-rule="evenodd" d="M41 42h1v1h-1z"/><path fill="#ab281b" fill-rule="evenodd" d="M43 42h1v1h-1z"/><path fill="#bf2c1e" fill-rule="evenodd" d="M44 42h1v1h-1zm3 31h1v1h-1z"/><path fill="#d23122" fill-rule="evenodd" d="M45 42h1v1h-1z"/><path fill="#c12d1e" fill-rule="evenodd" d="M77 58h1v1h-1z"/><path fill="#bb2c1e" fill-rule="evenodd" d="M71 60h1v1h-1z"/><path fill="#8a2016" fill-rule="evenodd" d="M72 60h1v1h-1z"/><path fill="#c62e1f" fill-rule="evenodd" d="M67 61h1v1h-1z"/><path fill="#9f2519" fill-rule="evenodd" d="M68 61h1v1h-1z"/><path fill="#c22d1f" fill-rule="evenodd" d="M63 62h1v1h-1z"/><path fill="#992318" fill-rule="evenodd" d="M64 62h1v1h-1z"/><path fill="#721b12" fill-rule="evenodd" d="M65 62h1v1h-1z"/><path fill="#44100a" fill-rule="evenodd" d="M62 63h1v1h-1z"/><path fill="#5b160d" fill-rule="evenodd" d="M80 63h1v1h-1z"/><path fill="#b42a1c" fill-rule="evenodd" d="M53 64h1v1h-1zm-15 10h1v1h-1z"/><path fill="#9a2419" fill-rule="evenodd" d="M54 64h1v1h-1z"/><path fill="#58140e" fill-rule="evenodd" d="M79 64h1v1h-1z"/><path fill="#d03021" fill-rule="evenodd" d="M80 64h1v1h-1z"/><path fill="#c82f1f" fill-rule="evenodd" d="M46 65h1v1h-1z"/><path fill="#b02a1c" fill-rule="evenodd" d="M47 65h1v1h-1zm-10 9h1v1h-1z"/><path fill="#982318" fill-rule="evenodd" d="M48 65h1v1h-1z"/><path fill="#7c1d13" fill-rule="evenodd" d="M49 65h1v1h-1z"/><path fill="#621710" fill-rule="evenodd" d="M50 65h1v1h-1z"/><path fill="#47110b" fill-rule="evenodd" d="M77 65h1v1h-1zm-50 3h1v1h-1z"/><path fill="#952318" fill-rule="evenodd" d="M78 65h1v1h-1zm-8 3h1v1h-1z"/><path fill="#d33222" fill-rule="evenodd" d="M38 66h1v1h-1z"/><path fill="#bf2c1f" fill-rule="evenodd" d="M39 66h1v1h-1z"/><path fill="#631810" fill-rule="evenodd" d="M75 66h1v1h-1z"/><path fill="#d93222" fill-rule="evenodd" d="M77 66h1v1h-1z"/><path fill="#54140d" fill-rule="evenodd" d="M36 67h1v1h-1z"/><path fill="#c92f20" fill-rule="evenodd" d="M74 67h1v1h-1zm-3 1h1v1h-1z"/><path fill="#a4261a" fill-rule="evenodd" d="M18 68h1v1h-1z"/><path fill="#902217" fill-rule="evenodd" d="M20 68h1v1h-1z"/><path fill="#872016" fill-rule="evenodd" d="M21 68h1v1h-1z"/><path fill="#761b13" fill-rule="evenodd" d="M23 68h1v1h-1z"/><path fill="#5e160f" fill-rule="evenodd" d="M25 68h1v1h-1z"/><path fill="#53130e" fill-rule="evenodd" d="M26 68h1v1h-1zm16 5h1v1h-1z"/><path fill="#631710" fill-rule="evenodd" d="M69 68h1v1h-1zm-8 2h1v1h-1z"/><path fill="#3a0e0a" fill-rule="evenodd" d="M64 69h1v1h-1z"/><path fill="#861f15" fill-rule="evenodd" d="M66 69h1v1h-1z"/><path fill="#d43222" fill-rule="evenodd" d="M68 69h1v1h-1z"/><path fill="#370d08" fill-rule="evenodd" d="M23 70h1v1h-1z"/><path fill="#420f0a" fill-rule="evenodd" d="M60 70h1v1h-1z"/><path fill="#882016" fill-rule="evenodd" d="M62 70h1v1h-1z"/><path fill="#b12a1c" fill-rule="evenodd" d="M63 70h1v1h-1z"/><path fill="#d63321" fill-rule="evenodd" d="M64 70h1v1h-1z"/><path fill="#811e14" fill-rule="evenodd" d="M57 71h1v1h-1z"/><path fill="#c22d1e" fill-rule="evenodd" d="M59 71h1v1h-1z"/><path fill="#4c110c" fill-rule="evenodd" d="M49 72h1v1h-1z"/><path fill="#651710" fill-rule="evenodd" d="M50 72h1v1h-1z"/><path fill="#b02a1b" fill-rule="evenodd" d="M53 72h1v1h-1z"/><path fill="#661710" fill-rule="evenodd" d="M43 73h1v1h-1z"/><path fill="#7a1d13" fill-rule="evenodd" d="M44 73h1v1h-1z"/><path fill="#8e2116" fill-rule="evenodd" d="M45 73h1v1h-1z"/><path fill="#a6261a" fill-rule="evenodd" d="M46 73h1v1h-1z"/><path fill="#be2c1e" fill-rule="evenodd" d="M39 74h1v1h-1z"/></svg>