<svg xmlns="http://www.w3.org/2000/svg" viewBox="0 0 100 100" width="1em" height="1em"><path fill="#34bdb2" d="M0 0h100v1h-100zM0 1h100v1h-100zM0 2h100v1h-100zM0 3h100v1h-100zM0 4h100v1h-100zM0 5h100v1h-100zM0 6h100v1h-100zM0 7h100v1h-100zM0 8h100v1h-100zM0 9h100v1h-100zM0 10h100v1h-100zM0 11h100v1h-100zM0 12h100v1h-100zM0 13h100v1h-100zM0 14h100v1h-100zM0 15h46v1h-46zM56 15h44v1h-44zM0 16h42v1h-42zM60 16h40v1h-40zM0 17h39v1h-39zM63 17h37v1h-37zM0 18h37v1h-37zM65 18h35v1h-35zM0 19h35v1h-35zM67 19h33v1h-33zM0 20h34v1h-34zM69 20h31v1h-31zM0 21h33v1h-33zM70 21h30v1h-30zM0 22h32v1h-32zM72 22h28v1h-28zM0 23h31v1h-31zM74 23h26v1h-26zM0 24h30v1h-30zM74 24h26v1h-26zM0 25h30v1h-30zM73 25h27v1h-27zM0 26h29v1h-29zM72 26h28v1h-28zM0 27h29v1h-29zM72 27h28v1h-28zM0 28h28v1h-28zM71 28h29v1h-29zM0 29h28v1h-28zM48 29h6v1h-6zM70 29h30v1h-30zM0 30h28v1h-28zM46 30h11v1h-11zM69 30h31v1h-31zM0 31h27v1h-27zM44 31h16v1h-16zM69 31h31v1h-31zM0 32h27v1h-27zM44 32h18v1h-18zM68 32h32v1h-32zM0 33h27v1h-27zM43 33h21v1h-21zM67 33h33v1h-33zM0 34h27v1h-27zM43 34h57v1h-57zM0 35h27v1h-27zM43 35h57v1h-57zM0 36h27v1h-27zM44 36h56v1h-56zM0 37h27v1h-27zM44 37h56v1h-56zM0 38h27v1h-27zM46 38h54v1h-54zM0 39h27v1h-27zM48 39h52v1h-52zM0 40h28v1h-28zM50 40h50v1h-50zM0 41h28v1h-28zM53 41h47v1h-47zM0 42h28v1h-28zM55 42h45v1h-45zM0 43h29v1h-29zM58 43h42v1h-42zM0 44h29v1h-29zM60 44h40v1h-40zM0 45h30v1h-30zM62 45h38v1h-38zM0 46h30v1h-30zM64 46h36v1h-36zM0 47h31v1h-31zM66 47h34v1h-34zM0 48h32v1h-32zM68 48h32v1h-32zM0 49h33v1h-33zM69 49h31v1h-31zM0 50h35v1h-35zM70 50h30v1h-30zM0 51h36v1h-36zM71 51h29v1h-29zM0 52h39v1h-39zM72 52h28v1h-28zM0 53h41v1h-41zM73 53h27v1h-27zM0 54h43v1h-43zM74 54h26v1h-26zM0 55h46v1h-46zM74 55h26v1h-26zM0 56h49v1h-49zM75 56h25v1h-25zM0 57h51v1h-51zM75 57h25v1h-25zM0 58h53v1h-53zM75 58h25v1h-25zM0 59h55v1h-55zM75 59h25v1h-25zM0 60h57v1h-57zM75 60h25v1h-25zM0 61h58v1h-58zM75 61h25v1h-25zM0 62h58v1h-58zM75 62h25v1h-25zM0 63h59v1h-59zM75 63h25v1h-25zM0 64h32v1h-32zM35 64h24v1h-24zM75 64h25v1h-25zM0 65h31v1h-31zM37 65h22v1h-22zM75 65h25v1h-25zM0 66h30v1h-30zM39 66h19v1h-19zM75 66h25v1h-25zM0 67h30v1h-30zM41 67h17v1h-17zM75 67h25v1h-25zM0 68h29v1h-29zM43 68h14v1h-14zM75 68h25v1h-25zM0 69h28v1h-28zM46 69h10v1h-10zM74 69h26v1h-26zM0 70h27v1h-27zM74 70h26v1h-26zM0 71h26v1h-26zM74 71h26v1h-26zM0 72h26v1h-26zM73 72h27v1h-27zM0 73h25v1h-25zM73 73h27v1h-27zM0 74h24v1h-24zM72 74h28v1h-28zM0 75h25v1h-25zM71 75h29v1h-29zM0 76h27v1h-27zM71 76h29v1h-29zM0 77h29v1h-29zM70 77h30v1h-30zM0 78h30v1h-30zM69 78h31v1h-31zM0 79h32v1h-32zM67 79h33v1h-33zM0 80h35v1h-35zM66 80h34v1h-34zM0 81h37v1h-37zM64 81h36v1h-36zM0 82h40v1h-40zM61 82h39v1h-39zM0 83h45v1h-45zM57 83h43v1h-43zM0 84h100v1h-100zM0 85h100v1h-100zM0 86h100v1h-100zM0 87h100v1h-100zM0 88h100v1h-100zM0 89h100v1h-100zM0 90h100v1h-100zM0 91h100v1h-100zM0 92h100v1h-100zM0 93h100v1h-100zM0 94h100v1h-100zM0 95h100v1h-100zM0 96h100v1h-100zM0 97h100v1h-100zM0 98h100v1h-100zM0 99h100v1h-100z" /><path fill="#36beb3" d="M46 15h1v1h-1zM73 23h1v1h-1zM47 29h1v1h-1zM45 30h1v1h-1zM57 30h1v1h-1zM68 31h1v1h-1zM43 36h1v1h-1zM57 43h1v1h-1zM43 54h1v1h-1zM69 77h1v1h-1zM30 78h1v1h-1zM32 79h1v1h-1z" /><path fill="#4ec6bc" d="M47 15h1v1h-1zM54 42h1v1h-1zM60 82h1v1h-1z" /><path fill="#67cec5" d="M48 15h1v1h-1zM33 21h1v1h-1z" /><path fill="#75d2cb" d="M49 15h1v1h-1zM37 51h1v1h-1z" /><path fill="#83d7d0" d="M50 15h1v1h-1zM61 17h1v1h-1zM48 83h1v1h-1z" /><path fill="#85d7d1" d="M51 15h1v1h-1zM50 70h1v1h-1z" /><path fill="#81d6cf" d="M52 15h1v1h-1zM43 16h1v1h-1z" /><path fill="#71d1c9" d="M53 15h1v1h-1zM27 37h1v1h-1zM33 79h1v1h-1z" /><path fill="#5fcbc2" d="M54 15h1v1h-1zM60 31h1v1h-1zM72 53h1v1h-1z" /><path fill="#42c1b7" d="M55 15h1v1h-1zM28 28h1v1h-1zM59 44h1v1h-1z" /><path fill="#4bc5bb" d="M42 16h1v1h-1zM49 40h1v1h-1zM46 55h1v1h-1z" /><path fill="#aee5e0" d="M44 16h1v1h-1zM40 52h1v1h-1zM50 56h1v1h-1zM30 67h1v1h-1z" /><path fill="#daf3f1" d="M45 16h1v1h-1zM32 47h1v1h-1zM30 77h1v1h-1z" /><path fill="#fafdfd" d="M46 16h1v1h-1zM57 59h1v1h-1zM58 60h1v1h-1zM73 68h1v1h-1z" /><path fill="#ffffff" d="M47 16h9v1h-9zM42 17h17v1h-17zM39 18h23v1h-23zM37 19h27v1h-27zM36 20h30v1h-30zM35 21h33v1h-33zM34 22h36v1h-36zM33 23h38v1h-38zM32 24h40v1h-40zM31 25h41v1h-41zM31 26h40v1h-40zM30 27h40v1h-40zM30 28h17v1h-17zM54 28h15v1h-15zM29 29h16v1h-16zM58 29h10v1h-10zM29 30h15v1h-15zM60 30h8v1h-8zM29 31h14v1h-14zM63 31h4v1h-4zM28 32h14v1h-14zM64 32h2v1h-2zM28 33h14v1h-14zM28 34h14v1h-14zM28 35h14v1h-14zM28 36h14v1h-14zM28 37h15v1h-15zM28 38h15v1h-15zM29 39h16v1h-16zM29 40h18v1h-18zM29 41h20v1h-20zM30 42h22v1h-22zM30 43h24v1h-24zM31 44h26v1h-26zM31 45h28v1h-28zM32 46h30v1h-30zM33 47h31v1h-31zM34 48h31v1h-31zM36 49h31v1h-31zM37 50h31v1h-31zM39 51h31v1h-31zM42 52h29v1h-29zM44 53h27v1h-27zM47 54h25v1h-25zM49 55h24v1h-24zM52 56h21v1h-21zM54 57h20v1h-20zM56 58h18v1h-18zM58 59h16v1h-16zM59 60h15v1h-15zM59 61h15v1h-15zM60 62h14v1h-14zM60 63h14v1h-14zM60 64h14v1h-14zM33 65h1v1h-1zM60 65h14v1h-14zM32 66h4v1h-4zM60 66h14v1h-14zM31 67h7v1h-7zM59 67h15v1h-15zM30 68h10v1h-10zM59 68h14v1h-14zM30 69h13v1h-13zM58 69h15v1h-15zM29 70h17v1h-17zM56 70h17v1h-17zM28 71h44v1h-44zM27 72h45v1h-45zM26 73h45v1h-45zM26 74h44v1h-44zM28 75h42v1h-42zM29 76h40v1h-40zM31 77h37v1h-37zM33 78h33v1h-33zM36 79h29v1h-29zM38 80h25v1h-25zM41 81h20v1h-20zM45 82h12v1h-12z" /><path fill="#ebf9f7" d="M56 16h1v1h-1z" /><path fill="#beeae6" d="M57 16h1v1h-1zM51 28h1v1h-1zM29 43h1v1h-1z" /><path fill="#8ad9d3" d="M58 16h1v1h-1zM69 50h1v1h-1zM29 68h1v1h-1z" /><path fill="#49c4ba" d="M59 16h1v1h-1zM29 26h1v1h-1zM43 32h1v1h-1z" /><path fill="#57c8bf" d="M39 17h1v1h-1z" /><path fill="#9fe0db" d="M40 17h1v1h-1zM63 18h1v1h-1zM42 34h1v1h-1z" /><path fill="#def4f2" d="M41 17h1v1h-1z" /><path fill="#fdfefe" d="M59 17h1v1h-1zM68 29h1v1h-1zM62 31h1v1h-1zM28 39h1v1h-1zM49 41h1v1h-1zM29 42h1v1h-1zM54 43h1v1h-1zM30 44h1v1h-1zM46 54h1v1h-1zM27 75h1v1h-1z" /><path fill="#caeeeb" d="M60 17h1v1h-1zM28 30h1v1h-1zM62 46h1v1h-1z" /><path fill="#40c1b7" d="M62 17h1v1h-1zM51 57h1v1h-1zM26 71h1v1h-1z" /><path fill="#65cdc5" d="M37 18h1v1h-1z" /><path fill="#cbeeeb" d="M38 18h1v1h-1zM48 28h1v1h-1z" /><path fill="#f4fbfb" d="M62 18h1v1h-1zM66 20h1v1h-1z" /><path fill="#46c3b9" d="M64 18h1v1h-1zM66 19h1v1h-1zM57 68h1v1h-1zM45 83h1v1h-1z" /><path fill="#44c2b8" d="M35 19h1v1h-1zM67 32h1v1h-1z" /><path fill="#b9e8e4" d="M36 19h1v1h-1z" /><path fill="#f8fdfc" d="M64 19h1v1h-1zM33 22h1v1h-1zM29 28h1v1h-1zM28 31h1v1h-1zM74 62h1v1h-1zM38 67h1v1h-1z" /><path fill="#a7e3de" d="M65 19h1v1h-1z" /><path fill="#60cbc3" d="M34 20h1v1h-1zM66 33h1v1h-1z" /><path fill="#eaf8f7" d="M35 20h1v1h-1zM47 40h1v1h-1zM52 42h1v1h-1zM74 60h1v1h-1zM59 62h1v1h-1zM46 70h1v1h-1z" /><path fill="#92dcd6" d="M67 20h1v1h-1z" /><path fill="#3abfb4" d="M68 20h1v1h-1zM30 24h1v1h-1zM71 27h1v1h-1zM27 31h1v1h-1zM33 49h1v1h-1zM24 74h1v1h-1zM37 81h1v1h-1z" /><path fill="#f5fcfb" d="M34 21h1v1h-1zM74 61h1v1h-1zM74 63h1v1h-1zM32 65h1v1h-1z" /><path fill="#e2f6f4" d="M68 21h1v1h-1z" /><path fill="#72d1ca" d="M69 21h1v1h-1z" /><path fill="#6bcfc7" d="M32 22h1v1h-1zM68 49h1v1h-1z" /><path fill="#c0ebe7" d="M70 22h1v1h-1zM74 65h1v1h-1z" /><path fill="#4ac4ba" d="M71 22h1v1h-1zM40 67h1v1h-1zM56 83h1v1h-1z" /><path fill="#4dc5bb" d="M31 23h1v1h-1z" /><path fill="#f1fafa" d="M32 23h1v1h-1zM69 28h1v1h-1zM28 70h1v1h-1zM40 81h1v1h-1z" /><path fill="#f7fcfc" d="M71 23h1v1h-1zM72 24h1v1h-1z" /><path fill="#93dcd6" d="M72 23h1v1h-1zM67 78h1v1h-1z" /><path fill="#d6f2f0" d="M31 24h1v1h-1zM33 48h1v1h-1zM61 81h1v1h-1z" /><path fill="#53c7be" d="M73 24h1v1h-1zM45 69h1v1h-1z" /><path fill="#9aded9" d="M30 25h1v1h-1z" /><path fill="#7fd5ce" d="M72 25h1v1h-1z" /><path fill="#f6fcfc" d="M30 26h1v1h-1zM51 56h1v1h-1zM36 66h1v1h-1z" /><path fill="#ace4e0" d="M71 26h1v1h-1zM26 75h1v1h-1z" /><path fill="#b0e5e1" d="M29 27h1v1h-1zM68 77h1v1h-1z" /><path fill="#d6f2ef" d="M70 27h1v1h-1zM45 29h1v1h-1zM65 33h1v1h-1z" /><path fill="#f3fbfa" d="M47 28h1v1h-1zM37 80h1v1h-1z" /><path fill="#bbe9e5" d="M49 28h2v1h-2zM61 31h1v1h-1zM43 82h1v1h-1z" /><path fill="#d2f1ee" d="M52 28h1v1h-1zM28 40h1v1h-1z" /><path fill="#eefaf9" d="M53 28h1v1h-1z" /><path fill="#4dc5bc" d="M70 28h1v1h-1z" /><path fill="#8bd9d3" d="M28 29h1v1h-1zM53 70h1v1h-1zM72 72h1v1h-1z" /><path fill="#70d0c9" d="M46 29h1v1h-1zM38 81h1v1h-1zM47 83h1v1h-1z" /><path fill="#47c3b9" d="M54 29h1v1h-1zM41 53h1v1h-1zM38 66h1v1h-1z" /><path fill="#77d3cb" d="M55 29h1v1h-1zM32 64h1v1h-1zM74 67h1v1h-1z" /><path fill="#afe5e0" d="M56 29h1v1h-1zM36 80h1v1h-1z" /><path fill="#effaf9" d="M57 29h1v1h-1zM67 49h1v1h-1zM57 82h1v1h-1z" /><path fill="#6ed0c8" d="M69 29h1v1h-1z" /><path fill="#a4e1dd" d="M44 30h1v1h-1zM37 66h1v1h-1z" /><path fill="#74d2ca" d="M58 30h1v1h-1z" /><path fill="#cfefed" d="M59 30h1v1h-1z" /><path fill="#9bdfd9" d="M68 30h1v1h-1zM44 38h1v1h-1z" /><path fill="#bae8e5" d="M43 31h1v1h-1z" /><path fill="#c7edea" d="M67 31h1v1h-1zM63 32h1v1h-1z" /><path fill="#5ac9c0" d="M27 32h1v1h-1zM61 45h1v1h-1z" /><path fill="#f9fdfd" d="M42 32h1v1h-1zM59 45h1v1h-1zM41 52h1v1h-1zM40 68h1v1h-1z" /><path fill="#59c9c0" d="M62 32h1v1h-1zM35 80h1v1h-1z" /><path fill="#e8f7f6" d="M66 32h1v1h-1zM43 53h1v1h-1zM59 66h1v1h-1zM72 71h1v1h-1zM44 82h1v1h-1z" /><path fill="#6dd0c8" d="M27 33h1v1h-1zM54 58h1v1h-1zM58 67h1v1h-1zM56 69h1v1h-1z" /><path fill="#c6ece9" d="M42 33h1v1h-1zM45 54h1v1h-1zM74 59h1v1h-1z" /><path fill="#6dcfc7" d="M64 33h1v1h-1z" /><path fill="#7ad4cd" d="M27 34h1v1h-1z" /><path fill="#7cd5cd" d="M27 35h1v1h-1z" /><path fill="#a3e1dc" d="M42 35h1v1h-1zM74 66h1v1h-1z" /><path fill="#7ed5ce" d="M27 36h1v1h-1zM31 78h1v1h-1z" /><path fill="#ddf4f2" d="M42 36h1v1h-1zM45 39h1v1h-1zM74 64h1v1h-1z" /><path fill="#91dbd5" d="M43 37h1v1h-1z" /><path fill="#56c8bf" d="M27 38h1v1h-1z" /><path fill="#feffff" d="M43 38h1v1h-1zM65 48h1v1h-1zM35 49h1v1h-1zM35 79h1v1h-1z" /><path fill="#38beb4" d="M45 38h1v1h-1zM47 39h1v1h-1zM52 41h1v1h-1zM30 46h1v1h-1zM40 82h1v1h-1z" /><path fill="#3cc0b5" d="M27 39h1v1h-1zM65 80h1v1h-1zM63 81h1v1h-1z" /><path fill="#7dd5ce" d="M46 39h1v1h-1z" /><path fill="#99ded8" d="M48 40h1v1h-1zM28 41h1v1h-1zM35 65h1v1h-1z" /><path fill="#c9edea" d="M50 41h1v1h-1zM73 69h1v1h-1zM34 79h1v1h-1z" /><path fill="#78d3cc" d="M51 41h1v1h-1zM52 70h1v1h-1z" /><path fill="#55c8be" d="M28 42h1v1h-1z" /><path fill="#9ddfda" d="M53 42h1v1h-1z" /><path fill="#c5ece9" d="M55 43h1v1h-1zM58 82h1v1h-1z" /><path fill="#6fd0c8" d="M56 43h1v1h-1z" /><path fill="#5ccac1" d="M29 44h1v1h-1zM46 83h1v1h-1z" /><path fill="#e3f6f4" d="M57 44h1v1h-1zM32 78h1v1h-1z" /><path fill="#90dbd5" d="M58 44h1v1h-1zM44 69h1v1h-1zM59 82h1v1h-1zM53 83h1v1h-1z" /><path fill="#9fe0da" d="M30 45h1v1h-1zM74 58h1v1h-1z" /><path fill="#b5e7e3" d="M60 45h1v1h-1zM66 48h1v1h-1z" /><path fill="#d4f1ef" d="M31 46h1v1h-1z" /><path fill="#69cec6" d="M63 46h1v1h-1zM65 47h1v1h-1zM35 50h1v1h-1zM57 60h1v1h-1z" /><path fill="#45c2b8" d="M31 47h1v1h-1zM67 48h1v1h-1z" /><path fill="#d3f1ee" d="M64 47h1v1h-1zM28 76h1v1h-1z" /><path fill="#43c2b8" d="M32 48h1v1h-1zM36 65h1v1h-1z" /><path fill="#a5e2dd" d="M34 49h1v1h-1zM59 64h1v1h-1z" /><path fill="#dbf3f1" d="M36 50h1v1h-1z" /><path fill="#fcfefe" d="M68 50h1v1h-1zM71 53h1v1h-1zM29 69h1v1h-1z" /><path fill="#35bdb2" d="M36 51h1v1h-1zM74 56h1v1h-1zM53 58h1v1h-1zM55 59h1v1h-1zM58 66h1v1h-1zM70 76h1v1h-1zM68 78h1v1h-1z" /><path fill="#d9f3f1" d="M38 51h1v1h-1z" /><path fill="#98ded8" d="M70 51h1v1h-1zM49 83h1v1h-1z" /><path fill="#5dcac1" d="M39 52h1v1h-1zM49 56h1v1h-1zM27 76h1v1h-1z" /><path fill="#88d8d2" d="M71 52h1v1h-1zM73 55h1v1h-1zM52 57h1v1h-1zM49 70h1v1h-1z" /><path fill="#97ddd7" d="M42 53h1v1h-1z" /><path fill="#73d1ca" d="M44 54h1v1h-1z" /><path fill="#d8f2f0" d="M72 54h1v1h-1zM43 69h1v1h-1z" /><path fill="#37beb3" d="M73 54h1v1h-1z" /><path fill="#98ddd8" d="M47 55h1v1h-1z" /><path fill="#e5f6f5" d="M48 55h1v1h-1z" /><path fill="#e0f5f3" d="M73 56h1v1h-1zM71 73h1v1h-1z" /><path fill="#dff5f3" d="M53 57h1v1h-1zM55 70h1v1h-1z" /><path fill="#63ccc4" d="M74 57h1v1h-1zM41 82h1v1h-1z" /><path fill="#d0f0ed" d="M55 58h1v1h-1z" /><path fill="#87d8d1" d="M56 59h1v1h-1z" /><path fill="#8cdad4" d="M58 61h1v1h-1z" /><path fill="#39bfb4" d="M58 62h1v1h-1zM30 66h1v1h-1zM73 71h1v1h-1z" /><path fill="#b8e8e4" d="M59 63h1v1h-1zM26 72h1v1h-1z" /><path fill="#8ddad4" d="M33 64h1v1h-1zM62 81h1v1h-1z" /><path fill="#3dc0b5" d="M34 64h1v1h-1z" /><path fill="#51c6bd" d="M31 65h1v1h-1zM27 70h1v1h-1z" /><path fill="#f0faf9" d="M34 65h1v1h-1z" /><path fill="#b4e7e3" d="M59 65h1v1h-1z" /><path fill="#d5f1ef" d="M31 66h1v1h-1z" /><path fill="#a8e3de" d="M39 67h1v1h-1z" /><path fill="#b3e6e2" d="M41 68h1v1h-1z" /><path fill="#5bcac1" d="M42 68h1v1h-1z" /><path fill="#e6f7f6" d="M58 68h1v1h-1zM65 79h1v1h-1z" /><path fill="#3fc1b6" d="M74 68h1v1h-1z" /><path fill="#6acfc7" d="M28 69h1v1h-1zM29 77h1v1h-1z" /><path fill="#e7f7f6" d="M57 69h1v1h-1z" /><path fill="#bfeae7" d="M47 70h1v1h-1z" /><path fill="#a1e0db" d="M48 70h1v1h-1z" /><path fill="#7bd4cd" d="M51 70h1v1h-1z" /><path fill="#a9e3de" d="M54 70h1v1h-1z" /><path fill="#82d6d0" d="M73 70h1v1h-1zM25 73h1v1h-1z" /><path fill="#def4f3" d="M27 71h1v1h-1z" /><path fill="#3bbfb5" d="M72 73h1v1h-1z" /><path fill="#e6f7f5" d="M25 74h1v1h-1z" /><path fill="#fbfefd" d="M70 74h1v1h-1zM66 78h1v1h-1z" /><path fill="#5dcac2" d="M71 74h1v1h-1z" /><path fill="#42c2b7" d="M25 75h1v1h-1z" /><path fill="#96ddd7" d="M70 75h1v1h-1z" /><path fill="#abe4df" d="M69 76h1v1h-1z" /><path fill="#62ccc4" d="M66 79h1v1h-1z" /><path fill="#edf9f8" d="M63 80h1v1h-1z" /><path fill="#8fdbd4" d="M64 80h1v1h-1zM42 82h1v1h-1z" /><path fill="#b2e6e2" d="M39 81h1v1h-1z" /><path fill="#a0e0db" d="M50 83h2v1h-2z" /><path fill="#9cdfda" d="M52 83h1v1h-1z" /><path fill="#80d6cf" d="M54 83h1v1h-1z" /><path fill="#66cdc5" d="M55 83h1v1h-1z" /></svg>