<svg xmlns="http://www.w3.org/2000/svg" viewBox="0 0 100 100" width="1em" height="1em"><path fill="#5a29d8" d="M4 4h1v1h-1zM36 34h1v1h-1zM39 34h1v1h-1zM42 34h1v1h-1zM46 34h1v1h-1zM49 34h1v1h-1zM53 34h1v1h-1zM56 34h1v1h-1zM59 34h1v1h-1zM63 34h1v1h-1zM34 35h1v1h-1zM34 39h1v1h-1zM34 42h1v1h-1zM34 46h1v1h-1zM34 49h1v1h-1zM34 52h1v1h-1zM34 56h1v1h-1zM34 59h1v1h-1zM34 62h1v1h-1zM34 63h1v1h-1zM95 95h1v1h-1z" /><path fill="#5a29d7" d="M5 4h60v1h-60zM4 5h1v1h-1zM4 6h1v1h-1zM4 7h1v1h-1zM4 8h1v1h-1zM4 9h1v1h-1zM4 10h1v1h-1zM4 11h1v1h-1zM4 12h1v1h-1zM4 13h1v1h-1zM4 14h1v1h-1zM4 15h1v1h-1zM4 16h1v1h-1zM4 17h1v1h-1zM4 18h1v1h-1zM4 19h1v1h-1zM4 20h1v1h-1zM4 21h1v1h-1zM4 22h1v1h-1zM4 23h1v1h-1zM4 24h1v1h-1zM4 25h1v1h-1zM4 26h1v1h-1zM4 27h1v1h-1zM4 28h1v1h-1zM4 29h1v1h-1zM4 30h1v1h-1zM4 31h1v1h-1zM4 32h1v1h-1zM4 33h1v1h-1zM4 34h1v1h-1zM4 35h1v1h-1zM4 36h1v1h-1zM4 37h1v1h-1zM4 38h1v1h-1zM4 39h1v1h-1zM4 40h1v1h-1zM4 41h1v1h-1zM4 42h1v1h-1zM4 43h1v1h-1zM4 44h1v1h-1zM4 45h1v1h-1zM4 46h1v1h-1zM4 47h1v1h-1zM4 48h1v1h-1zM4 49h1v1h-1zM4 50h1v1h-1zM4 51h1v1h-1zM4 52h1v1h-1zM4 53h1v1h-1zM4 54h1v1h-1zM4 55h1v1h-1zM4 56h1v1h-1zM4 57h1v1h-1zM4 58h1v1h-1zM4 59h1v1h-1zM4 60h1v1h-1zM4 61h1v1h-1zM4 62h1v1h-1zM4 63h1v1h-1zM4 64h1v1h-1zM95 66h1v1h-1zM95 67h1v1h-1zM95 68h1v1h-1zM95 69h1v1h-1zM95 70h1v1h-1zM95 71h1v1h-1zM95 72h1v1h-1zM95 73h1v1h-1zM95 74h1v1h-1zM95 75h1v1h-1zM95 76h1v1h-1zM95 77h1v1h-1zM95 78h1v1h-1zM95 79h1v1h-1zM95 80h1v1h-1zM95 81h1v1h-1zM95 82h1v1h-1zM95 83h1v1h-1zM95 84h1v1h-1zM95 85h1v1h-1zM95 86h1v1h-1zM95 87h1v1h-1zM95 88h1v1h-1zM95 89h1v1h-1zM95 90h1v1h-1zM95 91h1v1h-1zM95 92h1v1h-1zM95 93h1v1h-1zM95 94h1v1h-1zM66 95h29v1h-29z" /><path fill="#5b2ad8" d="M5 5h60v1h-60zM5 6h60v1h-60zM5 7h60v1h-60zM5 8h60v1h-60zM5 9h60v1h-60zM5 10h60v1h-60zM5 11h60v1h-60zM5 12h60v1h-60zM5 13h60v1h-60zM5 14h60v1h-60zM5 15h60v1h-60zM5 16h60v1h-60zM5 17h60v1h-60zM5 18h13v1h-13zM20 18h1v1h-1zM23 18h1v1h-1zM27 18h1v1h-1zM30 18h1v1h-1zM33 18h1v1h-1zM37 18h1v1h-1zM40 18h1v1h-1zM44 18h1v1h-1zM47 18h1v1h-1zM50 18h1v1h-1zM54 18h1v1h-1zM57 18h1v1h-1zM64 18h1v1h-1zM5 19h13v1h-13zM21 19h1v1h-1zM24 19h1v1h-1zM31 19h1v1h-1zM34 19h1v1h-1zM38 19h1v1h-1zM41 19h1v1h-1zM48 19h1v1h-1zM51 19h1v1h-1zM55 19h1v1h-1zM58 19h1v1h-1zM5 20h14v1h-14zM22 20h1v1h-1zM25 20h1v1h-1zM32 20h1v1h-1zM35 20h1v1h-1zM39 20h1v1h-1zM42 20h1v1h-1zM49 20h1v1h-1zM52 20h1v1h-1zM56 20h1v1h-1zM59 20h1v1h-1zM5 21h13v1h-13zM19 21h1v1h-1zM23 21h1v1h-1zM26 21h1v1h-1zM33 21h1v1h-1zM36 21h1v1h-1zM40 21h1v1h-1zM43 21h1v1h-1zM50 21h1v1h-1zM53 21h1v1h-1zM57 21h1v1h-1zM60 21h1v1h-1zM5 22h13v1h-13zM20 22h1v1h-1zM24 22h1v1h-1zM27 22h1v1h-1zM34 22h1v1h-1zM37 22h1v1h-1zM41 22h1v1h-1zM44 22h1v1h-1zM51 22h1v1h-1zM54 22h1v1h-1zM58 22h1v1h-1zM61 22h1v1h-1zM5 23h14v1h-14zM21 23h1v1h-1zM25 23h1v1h-1zM28 23h1v1h-1zM35 23h1v1h-1zM38 23h1v1h-1zM42 23h1v1h-1zM45 23h1v1h-1zM52 23h1v1h-1zM55 23h1v1h-1zM59 23h1v1h-1zM62 23h1v1h-1zM5 24h13v1h-13zM19 24h1v1h-1zM22 24h1v1h-1zM26 24h1v1h-1zM29 24h1v1h-1zM36 24h1v1h-1zM39 24h1v1h-1zM43 24h1v1h-1zM46 24h1v1h-1zM53 24h1v1h-1zM56 24h1v1h-1zM60 24h1v1h-1zM63 24h1v1h-1zM5 25h13v1h-13zM20 25h1v1h-1zM23 25h1v1h-1zM27 25h1v1h-1zM30 25h1v1h-1zM37 25h1v1h-1zM40 25h1v1h-1zM44 25h1v1h-1zM47 25h1v1h-1zM54 25h1v1h-1zM57 25h1v1h-1zM61 25h1v1h-1zM64 25h1v1h-1zM5 26h14v1h-14zM21 26h1v1h-1zM24 26h1v1h-1zM28 26h1v1h-1zM31 26h1v1h-1zM38 26h1v1h-1zM41 26h1v1h-1zM45 26h1v1h-1zM48 26h1v1h-1zM55 26h1v1h-1zM58 26h1v1h-1zM62 26h1v1h-1zM5 27h13v1h-13zM19 27h1v1h-1zM22 27h1v1h-1zM25 27h1v1h-1zM29 27h1v1h-1zM32 27h1v1h-1zM39 27h1v1h-1zM42 27h1v1h-1zM46 27h1v1h-1zM49 27h1v1h-1zM56 27h1v1h-1zM59 27h1v1h-1zM63 27h1v1h-1zM5 28h13v1h-13zM20 28h1v1h-1zM23 28h1v1h-1zM26 28h1v1h-1zM30 28h1v1h-1zM33 28h1v1h-1zM40 28h1v1h-1zM43 28h1v1h-1zM47 28h1v1h-1zM50 28h1v1h-1zM57 28h1v1h-1zM60 28h1v1h-1zM64 28h1v1h-1zM5 29h13v1h-13zM21 29h1v1h-1zM24 29h1v1h-1zM27 29h1v1h-1zM31 29h1v1h-1zM34 29h1v1h-1zM41 29h1v1h-1zM44 29h1v1h-1zM48 29h1v1h-1zM51 29h1v1h-1zM58 29h1v1h-1zM61 29h1v1h-1zM5 30h14v1h-14zM22 30h1v1h-1zM25 30h1v1h-1zM28 30h1v1h-1zM32 30h1v1h-1zM35 30h1v1h-1zM42 30h1v1h-1zM45 30h1v1h-1zM49 30h1v1h-1zM52 30h1v1h-1zM59 30h1v1h-1zM62 30h1v1h-1zM5 31h13v1h-13zM19 31h1v1h-1zM23 31h1v1h-1zM26 31h1v1h-1zM29 31h1v1h-1zM33 31h1v1h-1zM36 31h1v1h-1zM43 31h1v1h-1zM46 31h1v1h-1zM50 31h1v1h-1zM53 31h1v1h-1zM60 31h1v1h-1zM63 31h1v1h-1zM5 32h13v1h-13zM20 32h1v1h-1zM24 32h1v1h-1zM27 32h1v1h-1zM34 32h1v1h-1zM37 32h1v1h-1zM44 32h1v1h-1zM47 32h1v1h-1zM51 32h1v1h-1zM54 32h1v1h-1zM61 32h1v1h-1zM64 32h1v1h-1zM5 33h14v1h-14zM21 33h1v1h-1zM25 33h1v1h-1zM28 33h1v1h-1zM35 33h1v1h-1zM38 33h1v1h-1zM45 33h1v1h-1zM48 33h1v1h-1zM52 33h1v1h-1zM55 33h1v1h-1zM62 33h1v1h-1zM5 34h13v1h-13zM19 34h1v1h-1zM22 34h1v1h-1zM26 34h1v1h-1zM29 34h1v1h-1zM5 35h13v1h-13zM20 35h1v1h-1zM23 35h1v1h-1zM27 35h1v1h-1zM30 35h1v1h-1zM5 36h13v1h-13zM21 36h1v1h-1zM24 36h1v1h-1zM28 36h1v1h-1zM31 36h1v1h-1zM5 37h14v1h-14zM22 37h1v1h-1zM25 37h1v1h-1zM29 37h1v1h-1zM32 37h1v1h-1zM5 38h13v1h-13zM23 38h1v1h-1zM26 38h1v1h-1zM30 38h1v1h-1zM33 38h1v1h-1zM5 39h13v1h-13zM24 39h1v1h-1zM27 39h1v1h-1zM31 39h1v1h-1zM5 40h14v1h-14zM25 40h1v1h-1zM28 40h1v1h-1zM32 40h1v1h-1zM5 41h13v1h-13zM19 41h1v1h-1zM26 41h1v1h-1zM29 41h1v1h-1zM33 41h1v1h-1zM5 42h13v1h-13zM20 42h1v1h-1zM27 42h1v1h-1zM30 42h1v1h-1zM5 43h14v1h-14zM21 43h1v1h-1zM28 43h1v1h-1zM31 43h1v1h-1zM5 44h13v1h-13zM19 44h1v1h-1zM22 44h1v1h-1zM29 44h1v1h-1zM32 44h1v1h-1zM5 45h13v1h-13zM20 45h1v1h-1zM23 45h1v1h-1zM30 45h1v1h-1zM33 45h1v1h-1zM5 46h13v1h-13zM21 46h1v1h-1zM24 46h1v1h-1zM31 46h1v1h-1zM5 47h14v1h-14zM22 47h1v1h-1zM25 47h1v1h-1zM32 47h1v1h-1zM5 48h13v1h-13zM19 48h1v1h-1zM23 48h1v1h-1zM26 48h1v1h-1zM33 48h1v1h-1zM5 49h13v1h-13zM20 49h1v1h-1zM24 49h1v1h-1zM27 49h1v1h-1zM5 50h14v1h-14zM21 50h1v1h-1zM25 50h1v1h-1zM28 50h1v1h-1zM5 51h13v1h-13zM19 51h1v1h-1zM22 51h1v1h-1zM26 51h1v1h-1zM29 51h1v1h-1zM5 52h13v1h-13zM20 52h1v1h-1zM23 52h1v1h-1zM27 52h1v1h-1zM30 52h1v1h-1zM5 53h13v1h-13zM21 53h1v1h-1zM24 53h1v1h-1zM28 53h1v1h-1zM31 53h1v1h-1zM5 54h13v1h-13zM22 54h1v1h-1zM25 54h1v1h-1zM29 54h1v1h-1zM32 54h1v1h-1zM5 55h13v1h-13zM23 55h1v1h-1zM26 55h1v1h-1zM30 55h1v1h-1zM33 55h1v1h-1zM5 56h13v1h-13zM24 56h1v1h-1zM27 56h1v1h-1zM31 56h1v1h-1zM5 57h14v1h-14zM25 57h1v1h-1zM28 57h1v1h-1zM32 57h1v1h-1zM5 58h13v1h-13zM19 58h1v1h-1zM26 58h1v1h-1zM29 58h1v1h-1zM33 58h1v1h-1zM5 59h13v1h-13zM20 59h1v1h-1zM27 59h1v1h-1zM30 59h1v1h-1zM5 60h14v1h-14zM21 60h1v1h-1zM28 60h1v1h-1zM31 60h1v1h-1zM5 61h13v1h-13zM19 61h1v1h-1zM22 61h1v1h-1zM29 61h1v1h-1zM32 61h1v1h-1zM5 62h13v1h-13zM20 62h1v1h-1zM23 62h1v1h-1zM30 62h1v1h-1zM33 62h1v1h-1zM5 63h13v1h-13zM21 63h1v1h-1zM24 63h1v1h-1zM31 63h1v1h-1zM5 64h14v1h-14zM22 64h1v1h-1zM25 64h1v1h-1zM32 64h1v1h-1zM66 66h29v1h-29zM66 67h29v1h-29zM66 68h29v1h-29zM66 69h29v1h-29zM66 70h29v1h-29zM66 71h29v1h-29zM66 72h29v1h-29zM66 73h29v1h-29zM66 74h29v1h-29zM66 75h29v1h-29zM66 76h29v1h-29zM66 77h29v1h-29zM66 78h29v1h-29zM66 79h29v1h-29zM66 80h29v1h-29zM66 81h29v1h-29zM66 82h29v1h-29zM66 83h29v1h-29zM66 84h29v1h-29zM66 85h29v1h-29zM66 86h29v1h-29zM66 87h29v1h-29zM66 88h29v1h-29zM66 89h29v1h-29zM66 90h29v1h-29zM66 91h29v1h-29zM66 92h29v1h-29zM66 93h29v1h-29zM66 94h29v1h-29z" /><path fill="#2d9bc6" d="M18 18h1v1h-1zM22 39h1v1h-1zM23 40h1v1h-1zM26 43h1v1h-1zM34 44h1v1h-1zM27 47h1v1h-1zM28 48h1v1h-1z" /><path fill="#543cd5" d="M19 18h1v1h-1zM36 18h1v1h-1zM38 20h1v1h-1zM39 21h1v1h-1zM42 24h1v1h-1zM21 32h1v1h-1zM22 33h1v1h-1zM25 36h1v1h-1zM28 39h1v1h-1zM29 40h1v1h-1zM30 41h1v1h-1zM31 42h1v1h-1zM32 43h1v1h-1zM33 44h1v1h-1zM19 62h1v1h-1zM21 64h1v1h-1z" /><path fill="#3e71cd" d="M21 18h1v1h-1zM31 27h1v1h-1zM32 28h1v1h-1zM35 32h1v1h-1zM34 41h1v1h-1z" /><path fill="#406dce" d="M22 18h1v1h-1zM22 36h1v1h-1zM25 39h1v1h-1zM26 40h1v1h-1z" /><path fill="#533fd5" d="M24 18h1v1h-1zM20 19h1v1h-1zM40 22h1v1h-1zM41 23h1v1h-1zM44 26h1v1h-1zM28 27h1v1h-1zM29 28h1v1h-1zM19 30h1v1h-1zM18 34h1v1h-1zM20 63h1v1h-1z" /><path fill="#2c9dc6" d="M25 18h1v1h-1zM63 19h1v1h-1zM64 20h1v1h-1zM62 21h1v1h-1zM19 56h1v1h-1zM22 59h1v1h-1zM23 60h1v1h-1z" /><path fill="#592ed8" d="M26 18h1v1h-1zM43 18h1v1h-1zM44 19h1v1h-1zM45 20h1v1h-1zM46 21h1v1h-1zM47 22h1v1h-1zM49 24h1v1h-1zM50 25h1v1h-1zM18 27h1v1h-1zM35 34h1v1h-1zM52 34h1v1h-1zM18 36h1v1h-1zM19 37h1v1h-1zM20 38h1v1h-1zM23 41h1v1h-1zM24 42h1v1h-1zM26 44h1v1h-1zM34 53h1v1h-1zM20 56h1v1h-1zM23 59h1v1h-1zM24 60h1v1h-1zM25 61h1v1h-1zM26 62h1v1h-1zM27 63h1v1h-1zM28 64h1v1h-1z" /><path fill="#3290c8" d="M28 18h1v1h-1zM63 32h1v1h-1zM64 33h1v1h-1zM27 34h1v1h-1zM28 35h1v1h-1z" /><path fill="#4c50d2" d="M29 18h1v1h-1zM47 19h1v1h-1zM50 22h1v1h-1zM51 23h1v1h-1zM18 24h1v1h-1zM52 24h1v1h-1zM53 25h1v1h-1zM55 27h1v1h-1zM23 56h1v1h-1zM26 59h1v1h-1zM27 60h1v1h-1zM28 61h1v1h-1zM29 62h1v1h-1zM31 64h1v1h-1z" /><path fill="#4957d1" d="M31 18h1v1h-1zM19 25h1v1h-1zM27 31h1v1h-1zM43 32h1v1h-1zM44 33h1v1h-1z" /><path fill="#3589ca" d="M32 18h1v1h-1zM33 19h1v1h-1zM58 27h1v1h-1zM59 28h1v1h-1zM60 29h1v1h-1zM20 50h1v1h-1zM23 53h1v1h-1zM30 60h1v1h-1zM31 61h1v1h-1z" /><path fill="#5830d7" d="M34 18h1v1h-1zM27 19h1v1h-1zM30 22h1v1h-1zM31 23h1v1h-1zM48 23h1v1h-1zM51 26h1v1h-1zM28 29h1v1h-1zM54 29h1v1h-1zM38 30h1v1h-1zM39 31h1v1h-1zM31 32h1v1h-1zM57 32h1v1h-1z" /><path fill="#2c9ec5" d="M35 18h1v1h-1zM43 19h1v1h-1zM46 22h1v1h-1zM18 28h1v1h-1zM18 35h1v1h-1zM32 49h1v1h-1zM33 50h1v1h-1zM26 63h1v1h-1z" /><path fill="#3d74cd" d="M38 18h1v1h-1zM33 29h1v1h-1zM36 32h1v1h-1zM37 33h1v1h-1zM54 33h1v1h-1zM65 66h1v1h-1zM65 67h1v1h-1zM65 68h1v1h-1zM65 69h1v1h-1zM65 70h1v1h-1zM65 71h1v1h-1zM65 72h1v1h-1zM65 73h1v1h-1zM65 74h1v1h-1zM65 75h1v1h-1zM65 76h1v1h-1zM65 77h1v1h-1zM65 78h1v1h-1zM65 79h1v1h-1zM65 80h1v1h-1zM65 81h1v1h-1zM65 82h1v1h-1zM65 83h1v1h-1zM65 84h1v1h-1zM65 85h1v1h-1zM65 86h1v1h-1zM65 87h1v1h-1zM65 88h1v1h-1zM65 89h1v1h-1zM65 90h1v1h-1zM65 91h1v1h-1zM65 92h1v1h-1zM65 93h1v1h-1zM65 94h1v1h-1z" /><path fill="#406ccd" d="M39 18h1v1h-1zM30 44h1v1h-1zM19 59h1v1h-1zM20 60h1v1h-1zM21 61h1v1h-1z" /><path fill="#5340d5" d="M41 18h1v1h-1zM23 22h1v1h-1zM24 23h1v1h-1zM27 26h1v1h-1zM30 29h1v1h-1zM47 29h1v1h-1zM31 30h1v1h-1zM32 31h1v1h-1zM50 32h1v1h-1zM51 33h1v1h-1z" /><path fill="#2d9cc6" d="M42 18h1v1h-1zM61 20h1v1h-1zM31 51h1v1h-1zM32 52h1v1h-1z" /><path fill="#3191c8" d="M45 18h1v1h-1zM18 25h1v1h-1zM22 25h1v1h-1zM20 27h1v1h-1zM24 27h1v1h-1zM21 28h1v1h-1zM26 29h1v1h-1zM43 29h1v1h-1zM46 32h1v1h-1zM47 33h1v1h-1zM18 38h1v1h-1z" /><path fill="#4d4ed3" d="M46 18h1v1h-1zM23 44h1v1h-1zM24 45h1v1h-1zM21 54h1v1h-1zM22 55h1v1h-1z" /><path fill="#485ad1" d="M48 18h1v1h-1zM18 22h1v1h-1zM19 23h1v1h-1zM20 24h1v1h-1zM21 25h1v1h-1z" /><path fill="#3686ca" d="M49 18h1v1h-1zM23 47h1v1h-1zM24 48h1v1h-1zM21 51h1v1h-1zM22 52h1v1h-1z" /><path fill="#5732d7" d="M51 18h1v1h-1zM18 19h1v1h-1zM35 19h1v1h-1zM19 20h1v1h-1zM20 21h1v1h-1zM21 22h1v1h-1zM38 22h1v1h-1zM22 23h1v1h-1zM39 23h1v1h-1zM23 24h1v1h-1zM24 25h1v1h-1zM41 25h1v1h-1zM42 26h1v1h-1zM43 27h1v1h-1zM44 28h1v1h-1zM46 30h1v1h-1zM47 31h1v1h-1zM25 34h1v1h-1zM26 35h1v1h-1zM28 37h1v1h-1zM18 63h1v1h-1z" /><path fill="#2ba0c6" d="M52 18h1v1h-1zM60 19h1v1h-1zM44 20h1v1h-1zM45 21h1v1h-1zM63 22h1v1h-1zM64 23h1v1h-1zM48 24h1v1h-1zM49 25h1v1h-1zM51 27h1v1h-1zM52 28h1v1h-1zM29 29h1v1h-1zM33 33h1v1h-1zM20 37h1v1h-1zM21 38h1v1h-1zM24 41h1v1h-1zM25 42h1v1h-1zM29 49h1v1h-1zM30 50h1v1h-1zM33 53h1v1h-1zM24 61h1v1h-1zM25 62h1v1h-1zM27 64h1v1h-1z" /><path fill="#5538d6" d="M53 18h1v1h-1zM55 20h1v1h-1zM25 51h1v1h-1zM26 52h1v1h-1zM28 54h1v1h-1z" /><path fill="#3b79cc" d="M55 18h1v1h-1zM22 19h1v1h-1zM27 24h1v1h-1zM46 26h1v1h-1zM50 30h1v1h-1zM51 31h1v1h-1zM21 34h1v1h-1zM18 59h1v1h-1zM19 60h1v1h-1z" /><path fill="#4365cf" d="M56 18h1v1h-1zM28 51h1v1h-1z" /><path fill="#5145d4" d="M58 18h1v1h-1zM26 20h1v1h-1zM27 21h1v1h-1zM50 27h1v1h-1zM51 28h1v1h-1zM19 35h1v1h-1zM21 37h1v1h-1z" /><path fill="#2e9ac7" d="M59 18h1v1h-1zM47 20h1v1h-1zM48 21h1v1h-1zM21 41h1v1h-1zM22 42h1v1h-1zM21 55h1v1h-1zM23 57h1v1h-1z" /><path fill="#5a2dd7" d="M60 18h1v1h-1zM62 19h1v1h-1zM62 20h2v1h-2zM63 21h2v1h-2zM21 39h1v1h-1zM22 40h1v1h-1zM25 43h1v1h-1zM27 46h2v1h-2zM31 49h1v1h-1zM32 50h1v1h-1zM32 51h1v1h-1zM33 52h1v1h-1z" /><path fill="#5b2bd8" d="M61 18h1v1h-1zM28 19h1v1h-1zM45 19h1v1h-1zM29 20h1v1h-1zM30 21h1v1h-1zM31 22h1v1h-1zM48 22h1v1h-1zM32 23h1v1h-1zM49 23h1v1h-1zM33 24h1v1h-1zM34 25h1v1h-1zM35 26h1v1h-1zM52 26h1v1h-1zM36 27h1v1h-1zM53 27h1v1h-1zM37 28h1v1h-1zM54 28h1v1h-1zM38 29h1v1h-1zM55 29h1v1h-1zM39 30h1v1h-1zM56 30h1v1h-1zM40 31h1v1h-1zM57 31h1v1h-1zM30 32h1v1h-1zM41 32h1v1h-1zM58 32h1v1h-1zM31 33h1v1h-1zM42 33h1v1h-1zM59 33h1v1h-1zM32 34h1v1h-1zM33 35h1v1h-1zM18 53h1v1h-1zM21 56h1v1h-1zM24 59h1v1h-1zM25 60h1v1h-1zM28 63h1v1h-1zM29 64h1v1h-1z" /><path fill="#2f96c7" d="M62 18h1v1h-1zM32 22h1v1h-1zM33 23h1v1h-1zM34 24h1v1h-1zM35 25h1v1h-1zM56 29h1v1h-1zM59 32h1v1h-1z" /><path fill="#4f49d4" d="M63 18h1v1h-1zM63 23h1v1h-1z" /><path fill="#2aa5c5" d="M19 19h1v1h-1zM36 19h1v1h-1zM54 20h1v1h-1zM55 21h1v1h-1zM22 22h1v1h-1zM39 22h1v1h-1zM23 23h1v1h-1zM40 23h1v1h-1zM58 24h1v1h-1zM59 25h1v1h-1zM43 26h1v1h-1zM61 27h1v1h-1zM62 28h1v1h-1zM46 29h1v1h-1zM64 30h1v1h-1zM20 47h1v1h-1zM21 48h1v1h-1zM24 51h1v1h-1zM25 52h1v1h-1zM27 54h1v1h-1zM28 55h1v1h-1zM30 57h1v1h-1zM31 58h1v1h-1zM19 63h1v1h-1z" /><path fill="#3e73cc" d="M23 19h1v1h-1zM43 22h1v1h-1zM44 23h1v1h-1zM47 26h1v1h-1zM35 31h1v1h-1z" /><path fill="#5143d5" d="M25 19h1v1h-1zM28 22h1v1h-1zM29 23h1v1h-1zM46 23h1v1h-1zM49 26h1v1h-1zM33 27h1v1h-1zM34 28h1v1h-1zM52 29h1v1h-1z" /><path fill="#2aa4c4" d="M26 19h1v1h-1zM29 22h1v1h-1zM30 23h1v1h-1zM47 23h1v1h-1zM24 24h1v1h-1zM41 24h1v1h-1zM25 25h1v1h-1zM33 26h1v1h-1zM50 26h1v1h-1zM27 27h1v1h-1zM44 27h1v1h-1zM28 28h1v1h-1zM45 28h1v1h-1zM36 29h1v1h-1zM53 29h1v1h-1zM20 30h1v1h-1zM47 30h1v1h-1zM21 31h1v1h-1zM48 31h1v1h-1zM56 32h1v1h-1zM40 33h1v1h-1zM57 33h1v1h-1zM24 34h1v1h-1zM25 35h1v1h-1z" /><path fill="#2f97c7" d="M29 19h1v1h-1zM31 21h1v1h-1zM53 26h1v1h-1zM57 30h1v1h-1zM58 31h1v1h-1zM29 63h1v1h-1z" /><path fill="#4a55d2" d="M30 19h1v1h-1zM22 26h1v1h-1zM54 26h1v1h-1zM25 29h1v1h-1zM41 30h1v1h-1zM42 31h1v1h-1zM30 63h1v1h-1z" /><path fill="#465dd0" d="M32 19h1v1h-1zM56 26h1v1h-1zM40 27h1v1h-1zM41 28h1v1h-1zM28 59h1v1h-1zM29 60h1v1h-1zM32 63h1v1h-1z" /><path fill="#533ed5" d="M37 19h1v1h-1zM25 24h1v1h-1zM26 25h1v1h-1zM48 30h1v1h-1zM20 31h1v1h-1zM49 31h1v1h-1zM23 34h1v1h-1z" /><path fill="#3a7bcb" d="M39 19h1v1h-1zM45 25h1v1h-1zM24 37h1v1h-1zM25 38h1v1h-1z" /><path fill="#3e72cc" d="M40 19h1v1h-1zM34 30h1v1h-1zM23 63h1v1h-1z" /><path fill="#5144d4" d="M42 19h1v1h-1zM45 22h1v1h-1zM30 24h1v1h-1zM31 25h1v1h-1zM53 30h1v1h-1zM54 31h1v1h-1zM18 56h1v1h-1zM21 59h1v1h-1zM22 60h1v1h-1zM25 63h1v1h-1z" /><path fill="#3096c7" d="M46 19h1v1h-1zM36 26h1v1h-1zM37 27h1v1h-1zM38 28h1v1h-1zM39 29h1v1h-1zM60 33h1v1h-1zM19 53h1v1h-1zM22 56h1v1h-1z" /><path fill="#465ecf" d="M49 19h1v1h-1zM52 22h1v1h-1zM53 23h1v1h-1zM38 25h1v1h-1zM26 32h1v1h-1zM25 56h1v1h-1z" /><path fill="#3687c9" d="M50 19h1v1h-1zM51 20h1v1h-1zM52 21h1v1h-1zM53 22h1v1h-1zM54 23h1v1h-1zM55 24h1v1h-1zM18 42h1v1h-1zM20 44h1v1h-1zM21 45h1v1h-1zM24 54h1v1h-1zM25 55h1v1h-1z" /><path fill="#5637d6" d="M52 19h1v1h-1zM53 20h1v1h-1zM54 21h1v1h-1zM18 46h1v1h-1zM21 49h1v1h-1zM22 50h1v1h-1zM24 52h1v1h-1zM25 53h1v1h-1zM26 54h1v1h-1zM27 55h1v1h-1z" /><path fill="#29a7c4" d="M53 19h1v1h-1zM19 46h1v1h-1zM22 49h1v1h-1zM23 50h1v1h-1zM26 53h1v1h-1zM29 56h1v1h-1z" /><path fill="#543ad6" d="M54 19h1v1h-1zM57 22h1v1h-1zM58 23h1v1h-1zM60 25h1v1h-1zM62 27h1v1h-1zM63 28h1v1h-1zM24 50h1v1h-1zM27 53h1v1h-1zM30 56h1v1h-1zM32 58h1v1h-1z" /><path fill="#3882ca" d="M56 19h1v1h-1zM57 20h1v1h-1zM58 21h1v1h-1zM59 22h1v1h-1zM29 53h1v1h-1zM32 56h1v1h-1zM33 57h1v1h-1z" /><path fill="#4269ce" d="M57 19h1v1h-1zM27 50h1v1h-1zM30 53h1v1h-1z" /><path fill="#4e4ad3" d="M59 19h1v1h-1zM62 22h1v1h-1zM64 24h1v1h-1zM32 53h1v1h-1z" /><path fill="#5a2dd8" d="M61 19h1v1h-1zM64 22h1v1h-1zM27 45h1v1h-1zM29 47h1v1h-1zM30 48h1v1h-1zM30 49h1v1h-1zM31 50h1v1h-1zM33 51h1v1h-1zM19 55h1v1h-1zM21 57h1v1h-1zM22 58h1v1h-1z" /><path fill="#4d4dd2" d="M64 19h1v1h-1zM26 47h1v1h-1zM27 48h1v1h-1zM19 52h1v1h-1z" /><path fill="#29a5c5" d="M20 20h1v1h-1zM37 20h1v1h-1zM21 21h1v1h-1zM38 21h1v1h-1zM42 25h1v1h-1zM26 26h1v1h-1zM39 32h1v1h-1zM49 32h1v1h-1zM50 33h1v1h-1zM27 37h1v1h-1zM28 38h1v1h-1zM31 41h1v1h-1zM32 42h1v1h-1zM20 64h1v1h-1z" /><path fill="#543dd6" d="M21 20h1v1h-1zM22 21h1v1h-1zM43 25h1v1h-1zM45 27h1v1h-1zM46 28h1v1h-1zM18 29h1v1h-1zM24 35h1v1h-1zM26 37h1v1h-1zM27 38h1v1h-1z" /><path fill="#3a7acc" d="M23 20h1v1h-1zM24 21h1v1h-1zM42 22h1v1h-1zM43 23h1v1h-1zM63 26h1v1h-1zM47 27h1v1h-1zM48 28h1v1h-1zM22 35h1v1h-1zM22 63h1v1h-1z" /><path fill="#3f6ece" d="M24 20h1v1h-1zM45 24h1v1h-1zM46 25h1v1h-1zM18 32h1v1h-1zM19 33h1v1h-1zM23 37h1v1h-1zM24 38h1v1h-1z" /><path fill="#2ba1c5" d="M27 20h1v1h-1zM28 21h1v1h-1zM31 24h1v1h-1zM32 25h1v1h-1zM34 27h1v1h-1zM35 28h1v1h-1zM54 30h1v1h-1zM55 31h1v1h-1zM19 36h1v1h-1zM18 45h1v1h-1zM18 62h1v1h-1z" /><path fill="#592fd7" d="M28 20h1v1h-1zM29 21h1v1h-1zM32 24h1v1h-1zM33 25h1v1h-1zM35 27h1v1h-1zM52 27h1v1h-1zM36 28h1v1h-1zM53 28h1v1h-1zM55 30h1v1h-1zM56 31h1v1h-1zM32 33h1v1h-1z" /><path fill="#2f98c6" d="M30 20h1v1h-1zM54 27h1v1h-1zM55 28h1v1h-1zM30 33h1v1h-1zM19 39h1v1h-1zM20 40h1v1h-1zM23 43h1v1h-1zM18 55h1v1h-1zM27 61h1v1h-1zM28 62h1v1h-1zM30 64h1v1h-1z" /><path fill="#4b51d2" d="M31 20h1v1h-1zM32 21h1v1h-1zM56 28h1v1h-1z" /><path fill="#465fd0" d="M33 20h1v1h-1zM37 24h1v1h-1zM57 27h1v1h-1zM58 28h1v1h-1zM27 33h1v1h-1zM33 64h1v1h-1z" /><path fill="#358ac9" d="M34 20h1v1h-1zM61 30h1v1h-1zM62 31h1v1h-1zM32 62h1v1h-1z" /><path fill="#5733d7" d="M36 20h1v1h-1zM37 21h1v1h-1zM40 24h1v1h-1zM59 26h1v1h-1zM20 29h1v1h-1zM62 29h1v1h-1zM29 38h1v1h-1zM32 41h1v1h-1zM33 42h1v1h-1zM18 44h1v1h-1zM31 59h1v1h-1zM32 60h1v1h-1zM19 64h1v1h-1z" /><path fill="#397dca" d="M40 20h1v1h-1zM19 32h1v1h-1zM20 33h1v1h-1zM30 43h1v1h-1zM31 44h1v1h-1zM32 45h1v1h-1z" /><path fill="#406dcd" d="M41 20h1v1h-1zM42 21h1v1h-1zM27 41h1v1h-1zM28 42h1v1h-1zM22 62h1v1h-1zM24 64h1v1h-1z" /><path fill="#5046d3" d="M43 20h1v1h-1zM44 21h1v1h-1zM20 36h1v1h-1zM25 41h1v1h-1zM26 42h1v1h-1zM18 51h1v1h-1zM23 61h1v1h-1zM24 62h1v1h-1zM26 64h1v1h-1z" /><path fill="#5a2cd7" d="M46 20h1v1h-1zM47 21h1v1h-1zM50 24h1v1h-1zM51 25h1v1h-1zM19 38h1v1h-1zM20 39h1v1h-1zM21 40h1v1h-1zM22 41h1v1h-1zM23 42h1v1h-1zM24 43h1v1h-1zM25 44h1v1h-1zM26 45h1v1h-1zM28 47h1v1h-1zM29 48h1v1h-1zM18 54h2v1h-2zM20 55h1v1h-1zM22 57h1v1h-1zM23 58h1v1h-1zM26 61h1v1h-1zM27 62h1v1h-1z" /><path fill="#4c4fd3" d="M48 20h1v1h-1zM49 21h1v1h-1zM20 41h1v1h-1zM21 42h1v1h-1zM20 53h1v1h-1zM24 57h1v1h-1zM25 58h1v1h-1z" /><path fill="#4562cf" d="M50 20h1v1h-1zM51 21h1v1h-1zM24 55h1v1h-1zM26 57h1v1h-1z" /><path fill="#4366ce" d="M58 20h1v1h-1zM32 46h1v1h-1zM29 52h1v1h-1z" /><path fill="#4e4bd3" d="M60 20h1v1h-1zM61 21h1v1h-1zM18 39h1v1h-1zM19 40h1v1h-1zM22 43h1v1h-1zM25 46h1v1h-1zM28 49h1v1h-1zM29 50h1v1h-1zM33 54h1v1h-1z" /><path fill="#3588c9" d="M18 21h1v1h-1zM56 25h1v1h-1zM57 26h1v1h-1zM19 49h1v1h-1zM26 56h1v1h-1zM27 57h1v1h-1zM28 58h1v1h-1zM29 59h1v1h-1z" /><path fill="#3f6fcd" d="M25 21h1v1h-1zM48 27h1v1h-1zM49 28h1v1h-1zM20 34h1v1h-1zM21 35h1v1h-1z" /><path fill="#465ed0" d="M34 21h1v1h-1zM60 30h1v1h-1zM61 31h1v1h-1zM30 36h1v1h-1zM33 39h1v1h-1z" /><path fill="#348bc9" d="M35 21h1v1h-1z" /><path fill="#397dcb" d="M41 21h1v1h-1zM29 42h1v1h-1zM18 48h1v1h-1zM20 61h1v1h-1zM21 62h1v1h-1z" /><path fill="#5539d6" d="M56 21h1v1h-1zM59 24h1v1h-1zM20 46h1v1h-1zM23 49h1v1h-1zM29 55h1v1h-1zM31 57h1v1h-1z" /><path fill="#4367ce" d="M59 21h1v1h-1zM29 43h1v1h-1zM31 54h1v1h-1zM32 55h1v1h-1z" /><path fill="#3193c7" d="M19 22h1v1h-1zM20 23h1v1h-1zM28 31h1v1h-1z" /><path fill="#3b78cc" d="M25 22h1v1h-1zM26 23h1v1h-1zM28 25h1v1h-1zM49 29h1v1h-1zM52 32h1v1h-1z" /><path fill="#3d73cd" d="M26 22h1v1h-1zM27 23h1v1h-1zM30 26h1v1h-1zM50 29h1v1h-1zM53 32h1v1h-1z" /><path fill="#4955d1" d="M33 22h1v1h-1zM34 23h1v1h-1zM57 29h1v1h-1zM60 32h1v1h-1zM33 37h1v1h-1z" /><path fill="#475cd0" d="M35 22h1v1h-1zM36 23h1v1h-1zM59 29h1v1h-1zM43 30h1v1h-1zM44 31h1v1h-1zM62 32h1v1h-1zM63 33h1v1h-1z" /><path fill="#3291c8" d="M36 22h1v1h-1zM37 23h1v1h-1zM21 24h1v1h-1zM23 26h1v1h-1zM40 26h1v1h-1zM23 30h1v1h-1zM24 31h1v1h-1zM33 63h1v1h-1z" /><path fill="#3095c8" d="M49 22h1v1h-1zM50 23h1v1h-1zM40 30h1v1h-1zM41 31h1v1h-1zM42 32h1v1h-1zM25 59h1v1h-1zM26 60h1v1h-1z" /><path fill="#5636d6" d="M55 22h1v1h-1zM56 23h1v1h-1zM57 24h1v1h-1zM58 25h1v1h-1zM60 27h1v1h-1zM28 56h1v1h-1zM29 57h1v1h-1zM30 58h1v1h-1zM33 61h1v1h-1z" /><path fill="#29a6c5" d="M56 22h1v1h-1zM57 23h1v1h-1zM19 29h1v1h-1zM22 32h1v1h-1zM23 33h1v1h-1zM26 36h1v1h-1zM29 39h1v1h-1zM30 40h1v1h-1zM33 43h1v1h-1z" /><path fill="#416ace" d="M60 22h1v1h-1zM61 23h1v1h-1zM64 26h1v1h-1zM33 47h1v1h-1zM33 56h1v1h-1z" /><path fill="#3782ca" d="M60 23h1v1h-1zM61 24h1v1h-1z" /><path fill="#3f70cd" d="M28 24h1v1h-1zM29 25h1v1h-1zM51 30h1v1h-1zM18 31h1v1h-1zM52 31h1v1h-1zM36 33h1v1h-1z" /><path fill="#4b53d1" d="M35 24h1v1h-1zM36 25h1v1h-1zM32 36h1v1h-1z" /><path fill="#348cc9" d="M38 24h1v1h-1z" /><path fill="#3a7ccb" d="M44 24h1v1h-1zM28 41h1v1h-1zM23 64h1v1h-1z" /><path fill="#5046d4" d="M47 24h1v1h-1zM48 25h1v1h-1zM22 38h1v1h-1z" /><path fill="#2e99c6" d="M51 24h1v1h-1zM52 25h1v1h-1zM33 36h1v1h-1zM18 52h1v1h-1zM24 58h1v1h-1z" /><path fill="#4561cf" d="M54 24h1v1h-1zM27 58h1v1h-1z" /><path fill="#4268ce" d="M62 24h1v1h-1zM63 25h1v1h-1zM20 43h1v1h-1zM23 46h1v1h-1z" /><path fill="#348cc8" d="M39 25h1v1h-1zM41 27h1v1h-1zM22 29h1v1h-1zM33 40h1v1h-1z" /><path fill="#4560cf" d="M55 25h1v1h-1zM30 61h1v1h-1zM31 62h1v1h-1z" /><path fill="#3881ca" d="M62 25h1v1h-1z" /><path fill="#338dc8" d="M19 26h1v1h-1zM42 28h1v1h-1zM44 30h1v1h-1zM29 36h1v1h-1zM32 39h1v1h-1z" /><path fill="#4859d1" d="M20 26h1v1h-1zM23 27h1v1h-1zM24 28h1v1h-1zM23 29h1v1h-1zM24 30h1v1h-1zM25 31h1v1h-1z" /><path fill="#5832d6" d="M25 26h1v1h-1zM26 27h1v1h-1zM19 28h1v1h-1zM27 28h1v1h-1zM45 29h1v1h-1zM21 30h1v1h-1zM29 30h1v1h-1zM22 31h1v1h-1zM30 31h1v1h-1zM48 32h1v1h-1zM49 33h1v1h-1z" /><path fill="#3b78cb" d="M29 26h1v1h-1zM30 27h1v1h-1zM31 28h1v1h-1zM53 33h1v1h-1z" /><path fill="#5242d4" d="M32 26h1v1h-1zM35 29h1v1h-1zM36 30h1v1h-1zM37 31h1v1h-1zM55 32h1v1h-1zM56 33h1v1h-1z" /><path fill="#5831d7" d="M34 26h1v1h-1zM37 29h1v1h-1zM40 32h1v1h-1zM41 33h1v1h-1zM58 33h1v1h-1zM33 34h1v1h-1z" /><path fill="#4956d1" d="M37 26h1v1h-1zM40 29h1v1h-1zM61 33h1v1h-1zM30 34h1v1h-1zM31 35h1v1h-1z" /><path fill="#475bd0" d="M39 26h1v1h-1zM42 29h1v1h-1zM31 37h1v1h-1zM32 38h1v1h-1z" /><path fill="#2aa2c5" d="M60 26h1v1h-1zM63 29h1v1h-1zM37 30h1v1h-1zM38 31h1v1h-1zM32 59h1v1h-1zM33 60h1v1h-1z" /><path fill="#543bd5" d="M61 26h1v1h-1zM64 29h1v1h-1zM33 59h1v1h-1z" /><path fill="#4858d0" d="M21 27h1v1h-1zM22 28h1v1h-1zM26 30h1v1h-1z" /><path fill="#4a54d2" d="M38 27h1v1h-1zM39 28h1v1h-1zM28 32h1v1h-1zM29 33h1v1h-1z" /><path fill="#3880cb" d="M64 27h1v1h-1zM65 65h1v1h-1z" /><path fill="#3192c7" d="M25 28h1v1h-1zM27 30h1v1h-1zM29 32h1v1h-1z" /><path fill="#5635d6" d="M61 28h1v1h-1zM63 30h1v1h-1zM64 31h1v1h-1zM31 40h1v1h-1z" /><path fill="#3c77cc" d="M32 29h1v1h-1zM33 30h1v1h-1zM34 31h1v1h-1z" /><path fill="#2aa3c5" d="M30 30h1v1h-1zM31 31h1v1h-1z" /><path fill="#4b52d1" d="M58 30h1v1h-1zM59 31h1v1h-1z" /><path fill="#338ec9" d="M45 31h1v1h-1zM25 32h1v1h-1zM26 33h1v1h-1zM31 38h1v1h-1z" /><path fill="#5734d7" d="M23 32h1v1h-1zM24 33h1v1h-1zM27 36h1v1h-1zM30 39h1v1h-1z" /><path fill="#2c9fc6" d="M32 32h1v1h-1zM27 44h1v1h-1zM28 45h1v1h-1zM26 46h1v1h-1zM30 47h1v1h-1zM31 48h1v1h-1zM20 57h1v1h-1zM21 58h1v1h-1z" /><path fill="#5241d4" d="M33 32h1v1h-1zM38 32h1v1h-1zM34 33h1v1h-1zM39 33h1v1h-1z" /><path fill="#475ad1" d="M45 32h1v1h-1zM46 33h1v1h-1zM28 34h1v1h-1zM29 35h1v1h-1zM18 41h1v1h-1z" /><path fill="#3094c8" d="M43 33h1v1h-1zM31 34h1v1h-1zM32 35h1v1h-1z" /><path fill="#2e97c6" d="M34 34h1v1h-1z" /><path fill="#3683ca" d="M37 34h1v1h-1z" /><path fill="#4858d1" d="M38 34h1v1h-1z" /><path fill="#4f48d3" d="M40 34h1v1h-1z" /><path fill="#3090c8" d="M41 34h1v1h-1z" /><path fill="#5a2ad8" d="M43 34h1v1h-1zM60 34h1v1h-1zM34 36h1v1h-1z" /><path fill="#2e99c7" d="M44 34h1v1h-1zM34 37h1v1h-1z" /><path fill="#513dd5" d="M45 34h1v1h-1z" /><path fill="#4166ce" d="M47 34h1v1h-1z" /><path fill="#3c74cc" d="M48 34h1v1h-1z" /><path fill="#5733d6" d="M50 34h1v1h-1z" /><path fill="#2c9dc5" d="M51 34h1v1h-1z" /><path fill="#3585c9" d="M54 34h1v1h-1z" /><path fill="#4855d1" d="M55 34h1v1h-1zM34 50h1v1h-1z" /><path fill="#4d49d4" d="M57 34h1v1h-1z" /><path fill="#328ec7" d="M58 34h1v1h-1z" /><path fill="#2d99c6" d="M61 34h1v1h-1z" /><path fill="#533bd5" d="M62 34h1v1h-1zM34 38h1v1h-1z" /><path fill="#406bcd" d="M64 34h1v1h-1z" /><path fill="#05fdb6" d="M65 35h1v1h-1zM65 36h1v1h-1zM65 37h1v1h-1zM65 38h1v1h-1zM65 39h1v1h-1zM65 40h1v1h-1zM65 41h1v1h-1zM65 42h1v1h-1zM65 43h1v1h-1zM65 44h1v1h-1zM65 45h1v1h-1zM65 46h1v1h-1zM65 47h1v1h-1zM65 48h1v1h-1zM65 49h1v1h-1zM65 50h1v1h-1zM65 51h1v1h-1zM65 52h1v1h-1zM65 53h1v1h-1zM65 54h1v1h-1zM65 55h1v1h-1zM65 56h1v1h-1zM65 57h1v1h-1zM65 58h1v1h-1zM65 59h1v1h-1zM65 60h1v1h-1zM65 61h1v1h-1zM65 62h1v1h-1zM65 63h1v1h-1zM65 64h1v1h-1zM35 65h30v1h-30z" /><path fill="#06fdb7" d="M66 35h29v1h-29zM66 36h29v1h-29zM66 37h29v1h-29zM66 38h29v1h-29zM66 39h29v1h-29zM66 40h29v1h-29zM66 41h29v1h-29zM66 42h29v1h-29zM66 43h29v1h-29zM66 44h29v1h-29zM66 45h29v1h-29zM66 46h29v1h-29zM66 47h29v1h-29zM66 48h29v1h-29zM66 49h29v1h-29zM66 50h29v1h-29zM66 51h29v1h-29zM66 52h29v1h-29zM66 53h29v1h-29zM66 54h29v1h-29zM66 55h29v1h-29zM66 56h29v1h-29zM66 57h29v1h-29zM66 58h29v1h-29zM66 59h29v1h-29zM66 60h29v1h-29zM66 61h29v1h-29zM66 62h29v1h-29zM66 63h29v1h-29zM66 64h29v1h-29zM35 66h30v1h-30zM35 67h30v1h-30zM35 68h30v1h-30zM35 69h30v1h-30zM35 70h30v1h-30zM35 71h30v1h-30zM35 72h30v1h-30zM35 73h30v1h-30zM35 74h30v1h-30zM35 75h30v1h-30zM35 76h30v1h-30zM35 77h30v1h-30zM35 78h30v1h-30zM35 79h30v1h-30zM35 80h30v1h-30zM35 81h30v1h-30zM35 82h30v1h-30zM35 83h30v1h-30zM35 84h30v1h-30zM35 85h30v1h-30zM35 86h30v1h-30zM35 87h30v1h-30zM35 88h30v1h-30zM35 89h30v1h-30zM35 90h30v1h-30zM35 91h30v1h-30zM35 92h30v1h-30zM35 93h30v1h-30zM35 94h30v1h-30z" /><path fill="#05fcb7" d="M95 35h1v1h-1zM95 36h1v1h-1zM95 37h1v1h-1zM95 38h1v1h-1zM95 39h1v1h-1zM95 40h1v1h-1zM95 41h1v1h-1zM95 42h1v1h-1zM95 43h1v1h-1zM95 44h1v1h-1zM95 45h1v1h-1zM95 46h1v1h-1zM95 47h1v1h-1zM95 48h1v1h-1zM95 49h1v1h-1zM95 50h1v1h-1zM95 51h1v1h-1zM95 52h1v1h-1zM95 53h1v1h-1zM95 54h1v1h-1zM95 55h1v1h-1zM95 56h1v1h-1zM95 57h1v1h-1zM95 58h1v1h-1zM95 59h1v1h-1zM95 60h1v1h-1zM95 61h1v1h-1zM95 62h1v1h-1zM95 63h1v1h-1zM95 64h1v1h-1zM35 95h30v1h-30z" /><path fill="#397ecb" d="M23 36h1v1h-1zM26 39h1v1h-1zM33 46h1v1h-1z" /><path fill="#328fc9" d="M30 37h1v1h-1z" /><path fill="#5047d3" d="M23 39h1v1h-1zM24 40h1v1h-1zM27 43h1v1h-1zM28 44h1v1h-1zM29 45h1v1h-1zM19 57h1v1h-1zM20 58h1v1h-1z" /><path fill="#387fcb" d="M27 40h1v1h-1z" /><path fill="#406ace" d="M34 40h1v1h-1z" /><path fill="#4463d0" d="M19 42h1v1h-1zM19 50h1v1h-1zM22 53h1v1h-1zM23 54h1v1h-1z" /><path fill="#3784ca" d="M19 43h1v1h-1zM22 46h1v1h-1zM27 51h1v1h-1zM28 52h1v1h-1z" /><path fill="#5537d5" d="M34 43h1v1h-1zM19 45h1v1h-1zM19 47h1v1h-1zM21 47h1v1h-1zM20 48h1v1h-1zM22 48h1v1h-1zM23 51h1v1h-1zM18 61h1v1h-1z" /><path fill="#4463cf" d="M21 44h1v1h-1zM22 45h1v1h-1zM18 49h1v1h-1zM20 51h1v1h-1zM21 52h1v1h-1zM18 58h1v1h-1z" /><path fill="#2d9bc7" d="M24 44h1v1h-1zM25 45h1v1h-1zM29 46h1v1h-1zM20 54h1v1h-1z" /><path fill="#416bce" d="M31 45h1v1h-1z" /><path fill="#592bd7" d="M34 45h1v1h-1z" /><path fill="#4f48d4" d="M30 46h1v1h-1zM31 47h1v1h-1zM32 48h1v1h-1z" /><path fill="#4464cf" d="M24 47h1v1h-1zM25 48h1v1h-1z" /><path fill="#338ac8" d="M34 47h1v1h-1z" /><path fill="#4c4dd3" d="M34 48h1v1h-1z" /><path fill="#3783cb" d="M25 49h1v1h-1zM26 50h1v1h-1zM30 54h1v1h-1zM31 55h1v1h-1z" /><path fill="#4268cf" d="M26 49h1v1h-1z" /><path fill="#4d4cd2" d="M33 49h1v1h-1zM30 51h1v1h-1zM31 52h1v1h-1z" /><path fill="#3587c8" d="M34 51h1v1h-1z" /><path fill="#2c9cc6" d="M34 54h1v1h-1z" /><path fill="#5534d6" d="M34 55h1v1h-1z" /><path fill="#3c75cc" d="M34 57h1v1h-1z" /><path fill="#4364cf" d="M34 58h1v1h-1z" /><path fill="#5140d5" d="M34 60h1v1h-1z" /><path fill="#2f97c6" d="M34 61h1v1h-1z" /><path fill="#3092c8" d="M34 64h1v1h-1z" /><path fill="#533ed4" d="M66 65h29v1h-29z" /><path fill="#4f46d3" d="M95 65h1v1h-1z" /><path fill="#3d70cc" d="M65 95h1v1h-1z" /></svg>