<svg xmlns="http://www.w3.org/2000/svg" viewBox="0 0 100 100"><path fill="#fd5750" fill-rule="evenodd" stroke="#fd5750" stroke-width=".1" d="M0 11h37v3h-1v3h-1v3h-1v3h-1v3h-1v1h1v1h-33zm57 0h43v17h-48v-2h1v-4h1v-3h1v-3h1v-3h1zm-57 30h27v2h-1v3h-1v3h-1v1h1v1h-1v2h-1v3h-1v1h-22zm46 0h54v16h-59v-1h1v-1h-1v-1h1v-1h1v-3h1v-4h1v-1h-1v-1h1v-1h1zm-46 32h16v3h-1v3h-1v4h-1v3h-1v4h-12zm36 0h64v17h-70v-1h1v-3h1v-3h1v-3h1v-3h1v-1h-1v-1h1v-1h1z"/><path fill="#fc5750" fill-rule="evenodd" stroke="#fc5750" stroke-width=".1" d="M37 11h1v1h-1zm-1 3h1v1h-1zm19 1h1v1h-1zm-1 3h1v1h-1zm-20 2h1v1h-1zm18 5h1v1h-1zm-28 24h1v1h-1zm19 0h1v1h-1zm-1 3h1v1h-1zm-19 1h1v1h-1zm18 2h1v1h-1zm-41 2h22v1h-22zm41 0h59v1h-59zm-7 19h1v1h-1zm-21 7h1v1h-1zm18 2h1v1h-1z"/><path fill="#fd574f" fill-rule="evenodd" stroke="#fd574f" stroke-width=".1" d="M56 11h1v1h-1zm-11 30h1v1h-1zm-20 6h1v1h-1zm17 4h1v1h-1zm-27 26h1v1h-1zm17 4h1v1h-1zm-19 3h1v1h-1z"/><path fill="#fc5650" fill-rule="evenodd" stroke="#fc5650" stroke-width=".1" d="M37 12h1v1h-1zm-1 3h1v1h-1zm17 6h1v1h-1zm-2 6h1v1h-1zm-6 15h1v1h-1zm-23 14h1v1h-1zm13 17h1v1h-1z"/><path fill="#fc564f" fill-rule="evenodd" stroke="#fc564f" stroke-width=".1" d="M56 12h1v1h-1zm-21 5h1v1h-1zm-3 9h1v1h-1zm-6 17h1v1h-1zm18 2h1v1h-1zm-29 31h1v1h-1zm18 3h1v1h-1zm-1 3h1v1h-1z"/><path fill="#fd564f" fill-rule="evenodd" stroke="#fd564f" stroke-width=".1" d="M55 14h1v1h-1zm-2 6h1v1h-1zm-19 1h1v1h-1zm-8 23h1v1h-1zm7 34h1v1h-1zm-19 2h1v1h-1zm17 4h1v1h-1z"/><path fill="#fd5650" fill-rule="evenodd" stroke="#fd5650" stroke-width=".1" d="M54 17h1v1h-1zm-19 1h1v1h-1zm-2 6h1v1h-1zm-10 30h1v1h-1zm-1 3h1v1h-1zm-10 30h1v1h-1z"/><path fill="#fc574f" fill-rule="evenodd" stroke="#fc574f" stroke-width=".1" d="M33 23h1v1h-1zm19 1h1v1h-1zm-27 22h1v1h-1zm18 2h1v1h-1zm-27 25h1v1h-1zm-2 6h1v1h-1zm-2 7h1v1h-1zm18 2h1v1h-1z"/></svg>