<svg xmlns="http://www.w3.org/2000/svg" viewBox="0 0 100 100" width="1em" height="1em"><path fill="#000000" d="M73 13h4v1h-4zM72 14h6v1h-6zM71 15h7v1h-7zM70 16h8v1h-8zM69 17h8v1h-8zM68 18h9v1h-9zM67 19h9v1h-9zM66 20h9v1h-9zM65 21h9v1h-9zM64 22h9v1h-9zM63 23h9v1h-9zM62 24h9v1h-9zM61 25h9v1h-9zM60 26h9v1h-9zM59 27h9v1h-9zM58 28h9v1h-9zM57 29h9v1h-9zM56 30h9v1h-9zM55 31h9v1h-9zM54 32h9v1h-9zM53 33h9v1h-9zM52 34h9v1h-9zM51 35h9v1h-9zM50 36h9v1h-9zM49 37h9v1h-9zM48 38h9v1h-9zM47 39h9v1h-9zM46 40h9v1h-9zM45 41h9v1h-9zM44 42h9v1h-9zM43 43h9v1h-9zM42 44h9v1h-9zM41 45h9v1h-9zM40 46h9v1h-9zM39 47h9v1h-9zM79 47h4v1h-4zM38 48h9v1h-9zM78 48h6v1h-6zM37 49h9v1h-9zM77 49h7v1h-7zM36 50h9v1h-9zM76 50h8v1h-8zM35 51h9v1h-9zM75 51h9v1h-9zM34 52h9v1h-9zM74 52h9v1h-9zM33 53h9v1h-9zM73 53h9v1h-9zM32 54h9v1h-9zM72 54h9v1h-9zM31 55h9v1h-9zM71 55h9v1h-9zM30 56h9v1h-9zM70 56h9v1h-9zM29 57h9v1h-9zM69 57h9v1h-9zM28 58h9v1h-9zM68 58h9v1h-9zM27 59h9v1h-9zM67 59h9v1h-9zM26 60h9v1h-9zM66 60h9v1h-9zM25 61h9v1h-9zM65 61h9v1h-9zM24 62h9v1h-9zM64 62h9v1h-9zM23 63h9v1h-9zM63 63h9v1h-9zM22 64h9v1h-9zM62 64h9v1h-9zM21 65h9v1h-9zM61 65h9v1h-9zM20 66h9v1h-9zM60 66h9v1h-9zM19 67h9v1h-9zM59 67h9v1h-9zM18 68h9v1h-9zM58 68h9v1h-9zM17 69h9v1h-9zM57 69h9v1h-9zM16 70h9v1h-9zM56 70h9v1h-9zM15 71h9v1h-9zM55 71h9v1h-9zM14 72h9v1h-9zM54 72h9v1h-9zM13 73h9v1h-9zM53 73h9v1h-9zM13 74h8v1h-8zM52 74h9v1h-9zM13 75h7v1h-7zM51 75h9v1h-9zM13 76h6v1h-6zM50 76h9v1h-9zM14 77h3v1h-3zM49 77h9v1h-9zM48 78h9v1h-9zM47 79h9v1h-9zM47 80h8v1h-8zM47 81h7v1h-7zM47 82h6v1h-6zM48 83h4v1h-4z" /></svg>