<svg xmlns="http://www.w3.org/2000/svg" viewBox="0 0 100 100" width="1em" height="1em"><path fill="#7b3aed" d="M72 0h1v1h-1zM76 0h1v1h-1zM68 1h1v1h-1zM94 4h1v1h-1zM55 7h1v1h-1zM95 15h1v1h-1zM86 21h1v1h-1zM35 40h1v1h-1zM86 42h1v1h-1zM96 52h1v1h-1zM8 55h1v1h-1zM33 60h1v1h-1zM27 63h1v1h-1zM88 63h1v1h-1zM41 64h1v1h-1zM63 71h1v1h-1zM4 73h1v1h-1zM5 77h1v1h-1zM62 77h1v1h-1zM32 78h1v1h-1zM60 83h1v1h-1zM8 85h1v1h-1zM22 97h1v1h-1zM42 98h1v1h-1z" /><path fill="#7b39ed" d="M73 0h1v1h-1zM92 2h1v1h-1zM61 3h1v1h-1zM49 13h1v1h-1zM44 23h1v1h-1zM68 24h1v1h-1zM65 28h1v1h-1zM42 32h1v1h-1zM26 41h1v1h-1zM42 41h1v1h-1zM63 42h1v1h-1zM21 43h1v1h-1zM17 45h1v1h-1zM16 46h1v1h-1zM96 50h1v1h-1zM96 51h1v1h-1zM96 54h1v1h-1zM95 58h1v1h-1zM6 59h1v1h-1zM34 60h1v1h-1zM63 67h1v1h-1zM4 71h1v1h-1zM41 74h1v1h-1zM40 76h1v1h-1zM6 81h1v1h-1zM10 88h1v1h-1zM11 89h1v1h-1zM45 97h1v1h-1zM34 99h1v1h-1z" /><path fill="#7c3aec" d="M74 0h1v1h-1zM88 0h1v1h-1zM65 2h1v1h-1zM62 3h1v1h-1zM93 3h1v1h-1zM56 6h1v1h-1zM52 10h1v1h-1zM94 16h1v1h-1zM93 17h1v1h-1zM91 19h1v1h-1zM89 20h1v1h-1zM45 21h1v1h-1zM76 21h1v1h-1zM44 24h1v1h-1zM63 33h1v1h-1zM42 38h1v1h-1zM42 39h1v1h-1zM42 40h1v1h-1zM87 42h1v1h-1zM10 52h1v1h-1zM9 53h1v1h-1zM7 57h1v1h-1zM93 60h1v1h-1zM5 61h1v1h-1zM28 62h1v1h-1zM5 63h1v1h-1zM42 66h1v1h-1zM63 68h1v1h-1zM4 70h1v1h-1zM26 74h1v1h-1zM39 77h1v1h-1zM37 78h1v1h-1zM61 80h1v1h-1zM60 82h1v1h-1zM12 90h1v1h-1zM53 92h1v1h-1zM16 93h1v1h-1zM51 93h1v1h-1zM19 95h1v1h-1zM48 95h1v1h-1zM44 97h1v1h-1zM26 98h1v1h-1z" /><path fill="#7b39ec" d="M75 0h1v1h-1zM53 9h1v1h-1zM50 12h1v1h-1zM48 15h1v1h-1zM90 20h1v1h-1zM75 21h1v1h-1zM78 21h1v1h-1zM65 27h1v1h-1zM63 32h1v1h-1zM42 34h1v1h-1zM63 34h1v1h-1zM27 41h1v1h-1zM90 43h1v1h-1zM93 45h1v1h-1zM15 47h1v1h-1zM11 51h1v1h-1zM96 55h1v1h-1zM5 62h1v1h-1zM89 63h1v1h-1zM4 66h1v1h-1zM42 72h1v1h-1zM63 72h1v1h-1zM42 73h1v1h-1zM63 73h1v1h-1zM41 75h1v1h-1zM38 77h1v1h-1zM6 80h1v1h-1zM7 83h1v1h-1zM8 84h1v1h-1zM59 84h1v1h-1zM58 86h1v1h-1zM54 91h1v1h-1zM47 96h1v1h-1z" /><path fill="#7c39ec" d="M77 0h1v1h-1zM59 4h1v1h-1zM95 6h1v1h-1zM96 10h1v1h-1zM46 18h1v1h-1zM67 25h1v1h-1zM64 30h1v1h-1zM42 35h1v1h-1zM31 40h1v1h-1zM36 40h1v1h-1zM40 41h2v1h-2zM95 48h1v1h-1zM96 53h1v1h-1zM95 57h1v1h-1zM94 59h1v1h-1zM30 61h1v1h-1zM38 61h1v1h-1zM63 69h1v1h-1zM30 78h1v1h-1zM15 93h1v1h-1zM17 94h1v1h-1zM41 98h1v1h-1zM32 99h2v1h-2zM35 99h1v1h-1zM37 99h2v1h-2z" /><path fill="#7c3aed" d="M78 0h8v1h-8zM67 1h1v1h-1zM69 1h22v1h-22zM66 2h26v1h-26zM63 3h30v1h-30zM61 4h33v1h-33zM58 5h37v1h-37zM57 6h38v1h-38zM56 7h40v1h-40zM55 8h41v1h-41zM54 9h43v1h-43zM53 10h43v1h-43zM52 11h45v1h-45zM51 12h45v1h-45zM50 13h46v1h-46zM48 14h48v1h-48zM49 15h46v1h-46zM48 16h46v1h-46zM47 17h46v1h-46zM47 18h45v1h-45zM46 19h45v1h-45zM45 20h44v1h-44zM46 21h29v1h-29zM45 22h27v1h-27zM45 23h25v1h-25zM45 24h23v1h-23zM44 25h23v1h-23zM43 26h23v1h-23zM44 27h21v1h-21zM44 28h21v1h-21zM43 29h21v1h-21zM43 30h21v1h-21zM43 31h21v1h-21zM43 32h20v1h-20zM42 33h21v1h-21zM43 34h20v1h-20zM43 35h20v1h-20zM42 36h21v1h-21zM43 37h20v1h-20zM43 38h20v1h-20zM43 39h20v1h-20zM32 40h3v1h-3zM43 40h20v1h-20zM28 41h12v1h-12zM43 41h20v1h-20zM25 42h38v1h-38zM64 42h22v1h-22zM22 43h67v1h-67zM20 44h71v1h-71zM18 45h75v1h-75zM17 46h77v1h-77zM16 47h79v1h-79zM14 48h81v1h-81zM13 49h83v1h-83zM12 50h84v1h-84zM12 51h84v1h-84zM11 52h85v1h-85zM10 53h86v1h-86zM9 54h87v1h-87zM9 55h87v1h-87zM7 56h89v1h-89zM8 57h87v1h-87zM7 58h88v1h-88zM7 59h87v1h-87zM6 60h27v1h-27zM35 60h58v1h-58zM6 61h23v1h-23zM39 61h53v1h-53zM6 62h22v1h-22zM39 62h52v1h-52zM6 63h21v1h-21zM41 63h47v1h-47zM5 64h21v1h-21zM42 64h21v1h-21zM5 65h21v1h-21zM42 65h21v1h-21zM5 66h21v1h-21zM43 66h20v1h-20zM5 67h20v1h-20zM43 67h20v1h-20zM5 68h20v1h-20zM43 68h20v1h-20zM5 69h20v1h-20zM43 69h20v1h-20zM5 70h20v1h-20zM43 70h20v1h-20zM5 71h20v1h-20zM43 71h20v1h-20zM5 72h20v1h-20zM43 72h20v1h-20zM5 73h20v1h-20zM43 73h20v1h-20zM5 74h21v1h-21zM42 74h21v1h-21zM5 75h21v1h-21zM42 75h21v1h-21zM5 76h22v1h-22zM41 76h22v1h-22zM6 77h22v1h-22zM29 77h1v1h-1zM40 77h22v1h-22zM6 78h24v1h-24zM38 78h25v1h-25zM6 79h56v1h-56zM7 80h54v1h-54zM7 81h55v1h-55zM8 82h52v1h-52zM8 83h52v1h-52zM9 84h50v1h-50zM9 85h51v1h-51zM9 86h49v1h-49zM11 87h46v1h-46zM11 88h46v1h-46zM12 89h45v1h-45zM13 90h42v1h-42zM14 91h40v1h-40zM15 92h38v1h-38zM17 93h34v1h-34zM18 94h33v1h-33zM20 95h28v1h-28zM49 95h1v1h-1zM20 96h27v1h-27zM24 97h20v1h-20zM25 98h1v1h-1zM27 98h14v1h-14zM29 99h1v1h-1z" /><path fill="#7c39ed" d="M86 0h2v1h-2zM96 12h1v1h-1zM77 21h1v1h-1zM66 26h1v1h-1zM43 28h1v1h-1zM64 29h1v1h-1zM94 46h1v1h-1zM40 63h1v1h-1zM26 64h1v1h-1zM4 68h1v1h-1zM4 72h1v1h-1zM27 76h1v1h-1zM5 78h1v1h-1zM35 78h2v1h-2zM13 91h1v1h-1zM18 95h1v1h-1z" /><path fill="#7b3aec" d="M64 2h1v1h-1zM60 4h1v1h-1zM54 8h1v1h-1zM51 11h1v1h-1zM47 16h1v1h-1zM92 18h1v1h-1zM79 21h7v1h-7zM72 22h1v1h-1zM70 23h1v1h-1zM43 27h1v1h-1zM42 37h1v1h-1zM23 42h2v1h-2zM89 43h1v1h-1zM19 44h1v1h-1zM91 44h2v1h-2zM29 61h1v1h-1zM37 61h1v1h-1zM92 61h1v1h-1zM91 62h1v1h-1zM63 66h1v1h-1zM4 67h1v1h-1zM4 69h1v1h-1zM63 70h1v1h-1zM25 72h1v1h-1zM25 73h1v1h-1zM26 75h1v1h-1zM28 77h1v1h-1zM31 78h1v1h-1zM7 82h1v1h-1zM10 87h1v1h-1zM57 87h1v1h-1zM55 90h1v1h-1zM14 92h1v1h-1zM52 93h1v1h-1zM23 97h1v1h-1zM30 99h2v1h-2zM36 99h1v1h-1z" /></svg>