<svg xmlns="http://www.w3.org/2000/svg" viewBox="0 0 100 100" width="1em" height="1em"><path fill="#fdd230" d="M46 5h1v1h-1zM36 6h1v1h-1zM63 6h1v1h-1zM71 7h1v1h-1z" /><path fill="#fdd130" d="M47 5h1v1h-1zM27 7h1v1h-1zM72 7h1v1h-1z" /><path fill="#fcd230" d="M48 5h1v1h-1zM51 5h1v1h-1zM39 6h2v1h-2z" /><path fill="#ffe489" d="M49 5h1v1h-1z" /><path fill="#ffe385" d="M50 5h1v1h-1z" /><path fill="#fcd131" d="M52 5h1v1h-1zM38 6h1v1h-1zM61 6h1v1h-1zM78 23h1v1h-1z" /><path fill="#fdd231" d="M53 5h1v1h-1zM37 6h1v1h-1zM41 6h7v1h-7zM52 6h8v1h-8zM62 6h1v1h-1zM31 7h16v1h-16zM53 7h16v1h-16zM22 8h24v1h-24zM54 8h24v1h-24zM22 9h23v1h-23zM55 9h23v1h-23zM22 10h22v1h-22zM56 10h22v1h-22zM22 11h21v1h-21zM57 11h21v1h-21zM22 12h20v1h-20zM58 12h20v1h-20zM22 13h19v1h-19zM59 13h19v1h-19zM22 14h18v1h-18zM60 14h18v1h-18zM22 15h17v1h-17zM61 15h17v1h-17zM22 16h16v1h-16zM62 16h16v1h-16zM22 17h16v1h-16zM62 17h16v1h-16zM22 18h15v1h-15zM63 18h15v1h-15zM22 19h14v1h-14zM64 19h14v1h-14zM22 20h13v1h-13zM65 20h13v1h-13zM22 21h12v1h-12zM66 21h12v1h-12zM22 22h11v1h-11zM67 22h11v1h-11zM21 23h11v1h-11zM68 23h10v1h-10zM21 24h10v1h-10zM69 24h10v1h-10zM21 25h9v1h-9zM70 25h9v1h-9zM21 26h8v1h-8zM71 26h8v1h-8zM21 27h7v1h-7zM72 27h7v1h-7zM21 28h6v1h-6zM73 28h6v1h-6zM21 29h5v1h-5zM74 29h5v1h-5zM21 30h4v1h-4zM75 30h4v1h-4zM21 31h4v1h-4zM75 31h4v1h-4zM21 32h3v1h-3zM76 32h3v1h-3zM21 33h2v1h-2zM77 33h2v1h-2zM21 34h1v1h-1zM78 34h1v1h-1z" /><path fill="#fdd131" d="M54 5h1v1h-1zM26 7h1v1h-1zM28 7h1v1h-1zM73 7h1v1h-1z" /><path fill="#ffe071" d="M48 6h1v1h-1z" /><path fill="#fdedb6" d="M49 6h2v1h-2zM45 10h1v1h-1zM36 20h1v1h-1zM63 20h1v1h-1zM35 21h1v1h-1zM68 25h1v1h-1zM76 34h1v1h-1zM22 35h1v1h-1zM77 35h1v1h-1z" /><path fill="#fde076" d="M51 6h1v1h-1z" /><path fill="#fcd231" d="M60 6h1v1h-1zM30 7h1v1h-1zM69 7h1v1h-1z" /><path fill="#fcd130" d="M29 7h1v1h-1zM70 7h1v1h-1z" /><path fill="#fddd67" d="M47 7h1v1h-1z" /><path fill="#fdedb7" d="M48 7h1v1h-1zM51 7h1v1h-1zM47 8h1v1h-1zM52 8h1v1h-1zM64 21h1v1h-1zM65 22h1v1h-1zM23 34h1v1h-1z" /><path fill="#feeeb7" d="M49 7h2v1h-2zM48 8h4v1h-4zM47 9h6v1h-6zM46 10h8v1h-8zM45 11h10v1h-10zM44 12h12v1h-12zM43 13h14v1h-14zM42 14h16v1h-16zM41 15h18v1h-18zM40 16h20v1h-20zM39 17h22v1h-22zM38 18h24v1h-24zM37 19h26v1h-26zM37 20h26v1h-26zM36 21h28v1h-28zM35 22h30v1h-30zM34 23h32v1h-32zM33 24h34v1h-34zM32 25h36v1h-36zM31 26h38v1h-38zM30 27h40v1h-40zM29 28h42v1h-42zM28 29h44v1h-44zM27 30h46v1h-46zM26 31h48v1h-48zM25 32h50v1h-50zM24 33h52v1h-52zM24 34h52v1h-52zM23 35h54v1h-54zM22 36h56v1h-56z" /><path fill="#fddd6b" d="M52 7h1v1h-1z" /><path fill="#fdb60d" d="M21 8h1v1h-1z" /><path fill="#fddb5c" d="M46 8h1v1h-1z" /><path fill="#ffdb60" d="M53 8h1v1h-1z" /><path fill="#fcaf04" d="M21 9h1v1h-1z" /><path fill="#fcd852" d="M45 9h1v1h-1z" /><path fill="#fdedb5" d="M46 9h1v1h-1zM44 11h1v1h-1zM55 11h1v1h-1zM32 24h1v1h-1zM31 25h1v1h-1z" /><path fill="#fdeeb7" d="M53 9h1v1h-1zM78 36h1v1h-1z" /><path fill="#fcd956" d="M54 9h1v1h-1z" /><path fill="#fcaf03" d="M78 9h1v1h-1zM20 27h1v1h-1zM79 27h1v1h-1z" /><path fill="#fcad00" d="M20 10h1v1h-1zM79 10h1v1h-1zM80 11h1v1h-1zM17 14h1v1h-1zM82 14h1v1h-1zM83 15h1v1h-1zM14 18h1v1h-1zM86 19h1v1h-1zM11 22h1v1h-1zM20 23h1v1h-1zM79 23h1v1h-1zM20 24h1v1h-1zM79 24h1v1h-1zM8 26h1v1h-1zM92 27h1v1h-1zM5 30h1v1h-1zM95 31h1v1h-1zM2 34h1v1h-1zM22 40h1v1h-1zM77 40h1v1h-1zM34 63h1v1h-1zM65 63h1v1h-1zM64 65h1v1h-1zM36 67h1v1h-1zM63 67h1v1h-1zM61 71h1v1h-1zM58 77h1v1h-1z" /><path fill="#fdb206" d="M21 10h1v1h-1zM78 10h1v1h-1z" /><path fill="#fcd74c" d="M44 10h1v1h-1z" /><path fill="#fdeeb6" d="M54 10h1v1h-1zM34 22h1v1h-1zM33 23h1v1h-1zM66 23h1v1h-1zM21 36h1v1h-1z" /><path fill="#fcd74e" d="M55 10h1v1h-1z" /><path fill="#fcac00" d="M19 11h1v1h-1zM16 15h1v1h-1zM85 18h1v1h-1zM13 19h1v1h-1zM88 22h1v1h-1zM10 23h1v1h-1zM89 23h1v1h-1zM9 25h1v1h-1zM91 26h1v1h-1zM7 27h1v1h-1zM6 29h1v1h-1zM94 30h1v1h-1zM4 31h1v1h-1zM3 33h1v1h-1zM97 34h1v1h-1zM1 35h1v1h-1zM98 35h1v1h-1zM78 38h1v1h-1zM23 42h1v1h-1zM24 44h1v1h-1zM75 44h1v1h-1zM72 50h1v1h-1zM33 61h1v1h-1zM66 61h1v1h-1zM35 65h1v1h-1zM37 69h1v1h-1zM62 69h1v1h-1zM38 71h1v1h-1zM39 73h1v1h-1zM59 75h1v1h-1zM41 77h1v1h-1zM42 79h1v1h-1zM57 79h1v1h-1zM44 83h1v1h-1zM45 85h1v1h-1z" /><path fill="#fdad00" d="M20 11h1v1h-1zM79 11h1v1h-1zM19 12h2v1h-2zM79 12h2v1h-2zM18 13h3v1h-3zM79 13h3v1h-3zM18 14h3v1h-3zM79 14h3v1h-3zM17 15h4v1h-4zM79 15h4v1h-4zM16 16h5v1h-5zM79 16h6v1h-6zM15 17h6v1h-6zM79 17h6v1h-6zM15 18h6v1h-6zM79 18h6v1h-6zM14 19h7v1h-7zM79 19h7v1h-7zM12 20h9v1h-9zM79 20h8v1h-8zM12 21h9v1h-9zM79 21h9v1h-9zM12 22h9v1h-9zM79 22h9v1h-9zM11 23h9v1h-9zM80 23h9v1h-9zM9 24h11v1h-11zM80 24h10v1h-10zM10 25h10v1h-10zM80 25h11v1h-11zM9 26h11v1h-11zM80 26h11v1h-11zM8 27h12v1h-12zM80 27h12v1h-12zM7 28h13v1h-13zM80 28h13v1h-13zM7 29h13v1h-13zM80 29h14v1h-14zM6 30h14v1h-14zM80 30h14v1h-14zM5 31h15v1h-15zM80 31h15v1h-15zM4 32h16v1h-16zM80 32h17v1h-17zM4 33h16v1h-16zM80 33h17v1h-17zM3 34h17v1h-17zM80 34h17v1h-17zM2 35h18v1h-18zM80 35h18v1h-18zM0 36h20v1h-20zM80 36h19v1h-19zM22 38h56v1h-56zM22 39h56v1h-56zM23 40h54v1h-54zM23 41h54v1h-54zM24 42h52v1h-52zM24 43h52v1h-52zM25 44h50v1h-50zM25 45h50v1h-50zM26 46h48v1h-48zM26 47h48v1h-48zM27 48h46v1h-46zM27 49h46v1h-46zM28 50h44v1h-44zM28 51h44v1h-44zM29 52h42v1h-42zM29 53h42v1h-42zM30 54h40v1h-40zM30 55h40v1h-40zM31 56h38v1h-38zM31 57h38v1h-38zM32 58h36v1h-36zM32 59h36v1h-36zM33 60h34v1h-34zM34 61h32v1h-32zM34 62h32v1h-32zM35 63h30v1h-30zM35 64h30v1h-30zM36 65h28v1h-28zM36 66h28v1h-28zM37 67h26v1h-26zM37 68h26v1h-26zM38 69h24v1h-24zM38 70h24v1h-24zM39 71h22v1h-22zM39 72h22v1h-22zM40 73h20v1h-20zM40 74h20v1h-20zM41 75h18v1h-18zM41 76h18v1h-18zM42 77h16v1h-16zM42 78h16v1h-16zM43 79h14v1h-14zM43 80h14v1h-14zM44 81h12v1h-12zM44 82h12v1h-12zM45 83h10v1h-10zM45 84h10v1h-10zM46 85h8v1h-8zM46 86h8v1h-8zM47 87h6v1h-6zM47 88h6v1h-6zM48 89h4v1h-4zM48 90h4v1h-4zM49 91h2v1h-2zM49 92h2v1h-2z" /><path fill="#fdb409" d="M21 11h1v1h-1z" /><path fill="#fcd643" d="M43 11h1v1h-1z" /><path fill="#fdd644" d="M56 11h1v1h-1z" /><path fill="#fcb409" d="M78 11h1v1h-1z" /><path fill="#fdac00" d="M18 12h1v1h-1zM81 12h1v1h-1zM15 16h1v1h-1zM87 20h1v1h-1zM90 24h1v1h-1zM6 28h1v1h-1zM93 28h1v1h-1zM3 32h1v1h-1zM99 36h1v1h-1z" /><path fill="#fdb50b" d="M21 12h1v1h-1z" /><path fill="#fcd43d" d="M42 12h1v1h-1z" /><path fill="#fdedb3" d="M43 12h1v1h-1z" /><path fill="#fdecb4" d="M56 12h1v1h-1z" /><path fill="#fdd43f" d="M57 12h1v1h-1z" /><path fill="#fcb50b" d="M78 12h1v1h-1z" /><path fill="#fdb910" d="M21 13h1v1h-1z" /><path fill="#fcd339" d="M41 13h1v1h-1z" /><path fill="#fdedb1" d="M42 13h1v1h-1z" /><path fill="#fdedb2" d="M57 13h1v1h-1zM30 26h1v1h-1z" /><path fill="#fcd43a" d="M58 13h1v1h-1z" /><path fill="#fcb90e" d="M78 13h1v1h-1z" /><path fill="#fcbb12" d="M21 14h1v1h-1zM78 14h1v1h-1z" /><path fill="#fcd336" d="M40 14h1v1h-1zM72 28h1v1h-1z" /><path fill="#fdebad" d="M41 14h1v1h-1z" /><path fill="#fdecaf" d="M58 14h1v1h-1z" /><path fill="#fdd337" d="M59 14h1v1h-1z" /><path fill="#fdbe16" d="M21 15h1v1h-1z" /><path fill="#fcd334" d="M39 15h1v1h-1zM27 28h1v1h-1zM26 29h1v1h-1z" /><path fill="#fdeaa9" d="M40 15h1v1h-1z" /><path fill="#fcebaa" d="M59 15h1v1h-1z" /><path fill="#fcd235" d="M60 15h1v1h-1z" /><path fill="#fcbd15" d="M78 15h1v1h-1z" /><path fill="#fdc11b" d="M21 16h1v1h-1z" /><path fill="#fcd132" d="M38 16h1v1h-1zM61 16h1v1h-1zM25 30h1v1h-1zM74 30h1v1h-1z" /><path fill="#fdeaa3" d="M39 16h1v1h-1z" /><path fill="#fde8a1" d="M60 16h1v1h-1z" /><path fill="#fcc01a" d="M78 16h1v1h-1z" /><path fill="#fdc41e" d="M21 17h1v1h-1zM78 17h1v1h-1z" /><path fill="#fde794" d="M38 17h1v1h-1zM25 31h1v1h-1z" /><path fill="#fde799" d="M61 17h1v1h-1z" /><path fill="#fcc622" d="M21 18h1v1h-1z" /><path fill="#fde58e" d="M37 18h1v1h-1z" /><path fill="#fde48c" d="M62 18h1v1h-1zM24 32h1v1h-1z" /><path fill="#fcc521" d="M78 18h1v1h-1z" /><path fill="#fdc925" d="M21 19h1v1h-1z" /><path fill="#fde17c" d="M36 19h1v1h-1z" /><path fill="#fde182" d="M63 19h1v1h-1z" /><path fill="#fdc825" d="M78 19h1v1h-1z" /><path fill="#fccb28" d="M21 20h1v1h-1z" /><path fill="#fdde71" d="M35 20h1v1h-1z" /><path fill="#ffdf74" d="M64 20h1v1h-1z" /><path fill="#fccb29" d="M78 20h1v1h-1z" /><path fill="#fcce2c" d="M21 21h1v1h-1z" /><path fill="#fddc65" d="M34 21h1v1h-1z" /><path fill="#fddd69" d="M65 21h1v1h-1z" /><path fill="#fcce2b" d="M78 21h1v1h-1z" /><path fill="#fcd02f" d="M21 22h1v1h-1zM78 22h1v1h-1z" /><path fill="#fdda5c" d="M33 22h1v1h-1z" /><path fill="#fdda5f" d="M66 22h1v1h-1z" /><path fill="#fcd752" d="M32 23h1v1h-1z" /><path fill="#fcd851" d="M67 23h1v1h-1z" /><path fill="#fdd848" d="M31 24h1v1h-1z" /><path fill="#fdecb5" d="M67 24h1v1h-1z" /><path fill="#fcd648" d="M68 24h1v1h-1z" /><path fill="#fcad01" d="M20 25h1v1h-1zM79 26h1v1h-1z" /><path fill="#fdd541" d="M30 25h1v1h-1z" /><path fill="#fcd644" d="M69 25h1v1h-1z" /><path fill="#fcac01" d="M79 25h1v1h-1z" /><path fill="#fcad02" d="M20 26h1v1h-1z" /><path fill="#fcd43c" d="M29 26h1v1h-1z" /><path fill="#fdecb3" d="M69 26h1v1h-1z" /><path fill="#fcd43f" d="M70 26h1v1h-1z" /><path fill="#fcd237" d="M28 27h1v1h-1z" /><path fill="#fdecb0" d="M29 27h1v1h-1z" /><path fill="#fdecb1" d="M70 27h1v1h-1z" /><path fill="#fcd439" d="M71 27h1v1h-1z" /><path fill="#fdb105" d="M20 28h1v1h-1z" /><path fill="#fdebae" d="M28 28h1v1h-1z" /><path fill="#fdecad" d="M71 28h1v1h-1z" /><path fill="#fdb005" d="M79 28h1v1h-1z" /><path fill="#fdb207" d="M20 29h1v1h-1z" /><path fill="#fdeaa7" d="M27 29h1v1h-1z" /><path fill="#fdeaa8" d="M72 29h1v1h-1z" /><path fill="#fcd332" d="M73 29h1v1h-1z" /><path fill="#fcb206" d="M79 29h1v1h-1z" /><path fill="#fcb50a" d="M20 30h1v1h-1z" /><path fill="#fde79c" d="M26 30h1v1h-1z" /><path fill="#fde8a0" d="M73 30h1v1h-1z" /><path fill="#fcb30a" d="M79 30h1v1h-1z" /><path fill="#fcb70d" d="M20 31h1v1h-1z" /><path fill="#fce797" d="M74 31h1v1h-1z" /><path fill="#fcb50d" d="M79 31h1v1h-1z" /><path fill="#fdb911" d="M20 32h1v1h-1z" /><path fill="#ffe589" d="M75 32h1v1h-1z" /><path fill="#fcb910" d="M79 32h1v1h-1z" /><path fill="#fdbc13" d="M20 33h1v1h-1z" /><path fill="#fde17a" d="M23 33h1v1h-1z" /><path fill="#ffe17f" d="M76 33h1v1h-1z" /><path fill="#fdbb14" d="M79 33h1v1h-1z" /><path fill="#fdbe17" d="M20 34h1v1h-1z" /><path fill="#ffdf6f" d="M22 34h1v1h-1z" /><path fill="#ffe073" d="M77 34h1v1h-1z" /><path fill="#fdbf17" d="M79 34h1v1h-1z" /><path fill="#fdc21c" d="M20 35h1v1h-1z" /><path fill="#fddc63" d="M21 35h1v1h-1z" /><path fill="#fddb63" d="M78 35h1v1h-1z" /><path fill="#fcc11b" d="M79 35h1v1h-1z" /><path fill="#fdcf4c" d="M20 36h1v1h-1z" /><path fill="#fcd050" d="M79 36h1v1h-1z" /><path fill="#ec7200" d="M0 37h1v1h-1zM99 37h1v1h-1zM20 38h1v1h-1zM37 71h1v1h-1z" /><path fill="#ea7100" d="M1 37h19v1h-19zM80 37h19v1h-19z" /><path fill="#f89e0c" d="M20 37h1v1h-1z" /><path fill="#fcb10c" d="M21 37h58v1h-58z" /><path fill="#f99f0c" d="M79 37h1v1h-1z" /><path fill="#ea6c00" d="M1 38h19v1h-19zM80 38h18v1h-18zM3 39h18v1h-18zM79 39h18v1h-18zM4 40h17v1h-17zM79 40h18v1h-18zM4 41h18v1h-18zM78 41h18v1h-18zM6 42h16v1h-16zM78 42h16v1h-16zM6 43h17v1h-17zM77 43h17v1h-17zM6 44h17v1h-17zM77 44h16v1h-16zM8 45h16v1h-16zM76 45h17v1h-17zM8 46h16v1h-16zM76 46h16v1h-16zM10 47h15v1h-15zM75 47h15v1h-15zM11 48h14v1h-14zM75 48h15v1h-15zM12 49h14v1h-14zM74 49h14v1h-14zM12 50h14v1h-14zM74 50h14v1h-14zM13 51h14v1h-14zM73 51h15v1h-15zM14 52h13v1h-13zM73 52h13v1h-13zM14 53h14v1h-14zM72 53h13v1h-13zM15 54h14v1h-14zM72 54h12v1h-12zM17 55h12v1h-12zM71 55h12v1h-12zM18 56h12v1h-12zM70 56h12v1h-12zM19 57h11v1h-11zM70 57h11v1h-11zM19 58h12v1h-12zM69 58h12v1h-12zM20 59h11v1h-11zM69 59h11v1h-11zM20 60h12v1h-12zM68 60h11v1h-11zM22 61h10v1h-10zM68 61h10v1h-10zM23 62h10v1h-10zM67 62h11v1h-11zM23 63h10v1h-10zM67 63h10v1h-10zM25 64h9v1h-9zM66 64h9v1h-9zM25 65h9v1h-9zM66 65h9v1h-9zM25 66h10v1h-10zM65 66h9v1h-9zM27 67h8v1h-8zM65 67h9v1h-9zM27 68h9v1h-9zM64 68h9v1h-9zM29 69h7v1h-7zM64 69h7v1h-7zM30 70h7v1h-7zM63 70h8v1h-8zM31 71h6v1h-6zM63 71h6v1h-6zM31 72h7v1h-7zM62 72h7v1h-7zM32 73h6v1h-6zM62 73h7v1h-7zM33 74h6v1h-6zM61 74h6v1h-6zM33 75h6v1h-6zM61 75h5v1h-5zM34 76h6v1h-6zM60 76h5v1h-5zM36 77h4v1h-4zM60 77h4v1h-4zM37 78h4v1h-4zM59 78h4v1h-4zM38 79h3v1h-3zM59 79h3v1h-3zM38 80h4v1h-4zM58 80h4v1h-4zM39 81h3v1h-3zM58 81h3v1h-3zM39 82h4v1h-4zM57 82h3v1h-3zM41 83h2v1h-2zM57 83h2v1h-2zM42 84h2v1h-2zM56 84h3v1h-3zM42 85h2v1h-2zM56 85h2v1h-2zM44 86h1v1h-1zM55 86h1v1h-1zM44 87h1v1h-1zM55 87h1v1h-1zM44 88h2v1h-2zM54 88h1v1h-1zM54 89h1v1h-1zM46 90h1v1h-1zM53 90h1v1h-1z" /><path fill="#fcab00" d="M21 38h1v1h-1zM25 46h1v1h-1zM40 75h1v1h-1zM43 81h1v1h-1zM54 85h1v1h-1zM53 87h1v1h-1z" /><path fill="#ec7000" d="M79 38h1v1h-1z" /><path fill="#e96c00" d="M98 38h1v1h-1zM94 42h1v1h-1zM93 44h1v1h-1zM9 47h1v1h-1zM90 47h1v1h-1zM10 48h1v1h-1zM74 48h1v1h-1zM88 49h1v1h-1zM86 52h1v1h-1zM85 53h1v1h-1zM16 55h1v1h-1zM82 56h1v1h-1zM18 57h1v1h-1zM81 57h1v1h-1zM18 58h1v1h-1zM80 59h1v1h-1zM79 60h1v1h-1zM75 64h1v1h-1zM74 66h1v1h-1zM28 69h1v1h-1zM71 69h1v1h-1zM29 70h1v1h-1zM69 71h1v1h-1zM67 74h1v1h-1zM66 75h1v1h-1zM35 77h1v1h-1zM63 78h1v1h-1zM37 79h1v1h-1zM62 79h1v1h-1zM37 80h1v1h-1zM61 81h1v1h-1zM55 85h1v1h-1zM56 86h1v1h-1zM55 88h1v1h-1zM53 89h1v1h-1zM47 91h1v1h-1z" /><path fill="#ea6b00" d="M2 39h1v1h-1zM3 40h1v1h-1zM13 52h1v1h-1zM84 54h1v1h-1zM17 56h1v1h-1zM19 59h1v1h-1zM21 61h1v1h-1zM22 62h1v1h-1zM32 74h1v1h-1zM65 76h1v1h-1zM36 78h1v1h-1zM38 81h1v1h-1zM40 83h1v1h-1zM41 84h1v1h-1z" /><path fill="#f69800" d="M21 39h1v1h-1z" /><path fill="#f69600" d="M78 39h1v1h-1zM40 76h1v1h-1zM59 76h1v1h-1z" /><path fill="#e96b00" d="M97 39h1v1h-1zM5 42h1v1h-1zM7 45h1v1h-1zM11 49h1v1h-1zM73 50h1v1h-1zM12 51h1v1h-1zM72 52h1v1h-1zM83 55h1v1h-1zM78 61h1v1h-1zM24 64h1v1h-1zM26 67h1v1h-1zM30 71h1v1h-1zM31 73h1v1h-1zM64 77h1v1h-1zM60 82h1v1h-1zM59 83h1v1h-1zM43 86h1v1h-1zM45 87h1v1h-1zM54 87h1v1h-1zM45 89h1v1h-1z" /><path fill="#ea7000" d="M21 40h1v1h-1zM39 75h1v1h-1z" /><path fill="#ea6e00" d="M78 40h1v1h-1zM58 79h1v1h-1z" /><path fill="#f69500" d="M22 41h1v1h-1z" /><path fill="#f59400" d="M77 41h1v1h-1z" /><path fill="#eb6e00" d="M22 42h1v1h-1zM23 44h1v1h-1zM76 44h1v1h-1zM75 46h1v1h-1zM40 77h1v1h-1zM41 79h1v1h-1zM42 81h1v1h-1z" /><path fill="#fbac00" d="M76 42h1v1h-1zM74 46h1v1h-1zM60 73h1v1h-1zM55 83h1v1h-1z" /><path fill="#eb6f00" d="M77 42h1v1h-1z" /><path fill="#f59300" d="M23 43h1v1h-1z" /><path fill="#f49100" d="M76 43h1v1h-1z" /><path fill="#f49000" d="M24 45h1v1h-1zM43 82h1v1h-1z" /><path fill="#f48e00" d="M75 45h1v1h-1z" /><path fill="#ea6d00" d="M24 46h1v1h-1zM25 48h1v1h-1zM43 83h1v1h-1zM56 83h1v1h-1z" /><path fill="#f38d00" d="M25 47h1v1h-1z" /><path fill="#f38c00" d="M74 47h1v1h-1zM44 84h1v1h-1z" /><path fill="#fbab00" d="M26 48h1v1h-1zM73 48h1v1h-1zM56 81h1v1h-1z" /><path fill="#f38b00" d="M26 49h1v1h-1zM55 84h1v1h-1z" /><path fill="#f18a00" d="M73 49h1v1h-1z" /><path fill="#e96d00" d="M26 50h1v1h-1zM27 52h1v1h-1zM71 54h1v1h-1zM44 85h1v1h-1zM46 89h1v1h-1zM52 91h1v1h-1z" /><path fill="#fbaa00" d="M27 50h1v1h-1zM28 52h1v1h-1zM47 89h1v1h-1zM52 89h1v1h-1zM51 91h1v1h-1z" /><path fill="#f28900" d="M27 51h1v1h-1z" /><path fill="#f08700" d="M72 51h1v1h-1z" /><path fill="#fba900" d="M71 52h1v1h-1zM69 56h1v1h-1zM46 87h1v1h-1zM48 91h1v1h-1zM50 93h1v1h-1z" /><path fill="#f08500" d="M28 53h1v1h-1zM71 53h1v1h-1z" /><path fill="#fca900" d="M29 54h1v1h-1z" /><path fill="#fcaa00" d="M70 54h1v1h-1z" /><path fill="#f18400" d="M29 55h1v1h-1z" /><path fill="#ef8200" d="M70 55h1v1h-1z" /><path fill="#fba700" d="M30 56h1v1h-1zM31 58h1v1h-1z" /><path fill="#ee8000" d="M30 57h1v1h-1z" /><path fill="#ee7f00" d="M69 57h1v1h-1z" /><path fill="#fca800" d="M68 58h1v1h-1z" /><path fill="#f07d00" d="M31 59h1v1h-1z" /><path fill="#ee7e00" d="M68 59h1v1h-1z" /><path fill="#fca500" d="M32 60h1v1h-1z" /><path fill="#fca600" d="M67 60h1v1h-1z" /><path fill="#ef7b00" d="M32 61h1v1h-1zM67 61h1v1h-1z" /><path fill="#fba400" d="M33 62h1v1h-1z" /><path fill="#f9a400" d="M66 62h1v1h-1z" /><path fill="#ee7900" d="M33 63h1v1h-1z" /><path fill="#ee7a00" d="M66 63h1v1h-1z" /><path fill="#fba300" d="M34 64h1v1h-1zM65 64h1v1h-1z" /><path fill="#ec7600" d="M34 65h1v1h-1zM64 67h1v1h-1z" /><path fill="#ed7800" d="M65 65h1v1h-1z" /><path fill="#f9a100" d="M35 66h1v1h-1zM64 66h1v1h-1z" /><path fill="#ec7500" d="M35 67h1v1h-1z" /><path fill="#f99f00" d="M36 68h1v1h-1z" /><path fill="#f99e00" d="M63 68h1v1h-1z" /><path fill="#ec7300" d="M36 69h1v1h-1zM62 71h1v1h-1z" /><path fill="#ec7400" d="M63 69h1v1h-1z" /><path fill="#f89d00" d="M37 70h1v1h-1zM62 70h1v1h-1z" /><path fill="#f89b00" d="M38 72h1v1h-1zM61 72h1v1h-1z" /><path fill="#eb7200" d="M38 73h1v1h-1z" /><path fill="#ec7100" d="M61 73h1v1h-1z" /><path fill="#f89900" d="M39 74h1v1h-1z" /><path fill="#f69700" d="M60 74h1v1h-1z" /><path fill="#eb7000" d="M60 75h1v1h-1z" /><path fill="#ea6f00" d="M59 77h1v1h-1z" /><path fill="#f69400" d="M41 78h1v1h-1z" /><path fill="#f59200" d="M58 78h1v1h-1z" /><path fill="#f49200" d="M42 80h1v1h-1zM57 80h1v1h-1z" /><path fill="#eb6d00" d="M57 81h1v1h-1z" /><path fill="#f48f00" d="M56 82h1v1h-1z" /><path fill="#f38900" d="M45 86h1v1h-1z" /><path fill="#f18800" d="M54 86h1v1h-1z" /><path fill="#f28800" d="M46 88h1v1h-1z" /><path fill="#f28700" d="M53 88h1v1h-1z" /><path fill="#ef8500" d="M47 90h1v1h-1z" /><path fill="#ef8300" d="M52 90h1v1h-1z" /><path fill="#f08300" d="M48 92h1v1h-1z" /><path fill="#ef8100" d="M51 92h1v1h-1z" /><path fill="#faa700" d="M49 93h1v1h-1z" /></svg>