<svg xmlns="http://www.w3.org/2000/svg" viewBox="0 0 100 100"><path fill="#36c4f0" fill-rule="evenodd" stroke="#36c4f0" stroke-width=".1" d="M34 0h1v1h-1zm-4 2h1v1h-1zm1 16h1v1h-1zm-24 9h1v1h-1zm-3 1h1v1h-1zm-3 3h1v1h-1zm-1 8h1v1h-1zm2 3h1v1h-1zm8 4h26v1h-26z"/><path fill="#35c4f0" fill-rule="evenodd" stroke="#35c4f0" stroke-width=".1" d="M35 0h1v1h-1zm-1 19h1v1h-1zm-33 13h1v1h-1zm44 0h1v1h-1zm-45 3h1v1h-1zm46 1h1v1h-1zm-4 8h1v1h-1zm-36 1h1v1h-1z"/><path fill="#36c4ef" fill-rule="evenodd" stroke="#36c4ef" stroke-width=".1" d="M36 0h3v1h-3zm-5 1h2v1h-2zm9 0h1v1h-1zm2 1h1v1h-1zm-14 2h1v1h-1zm-1 3h1v1h-1zm0 5h1v1h-1zm9 7h1v1h-1zm4 8h1v1h-1zm2 2h1v1h-1zm-40 1h1v1h-1zm43 9h1v1h-1zm-42 4h1v1h-1zm40 0h1v1h-1zm-35 3h1v1h-1zm29 0h1v1h-1z"/><path fill="#36c5ef" fill-rule="evenodd" stroke="#36c5ef" stroke-width=".1" d="M39 0h1v1h-1zm2 1h1v1h-1zm4 5h1v1h-1zm0 27h1v1h-1zm-45 3h1v2h-1zm4 8h1v1h-1zm32 2h1v1h-1z"/><path fill="#2db57d" fill-rule="evenodd" stroke="#2db57d" stroke-width=".1" d="M60 0h1v1h-1zm4 0h1v1h-1zm6 3h1v1h-1zm2 4h1v1h-1zm15 20h1v1h-1zm-7 6h1v1h-1zm-9 8h1v1h-1zm25 2h1v1h-1zm-6 3h1v1h-1z"/><path fill="#2db67c" fill-rule="evenodd" stroke="#2db67c" stroke-width=".1" d="M61 0h1v1h-1zm-6 4h1v1h-1zm29 24h1v1h-1zm14 4h1v1h-1zm-45 4h1v1h-1zm4 8h1v1h-1zm5 2h2v1h-2z"/><path fill="#2eb57c" fill-rule="evenodd" stroke="#2eb57c" stroke-width=".1" d="M62 0h2v1h-2zm5 1h1v1h-1zm4 4h1v1h-1zm11 25h1v1h-1zm-29 8h1v1h-1zm45 2h1v1h-1zm-30 4h1v1h-1zm27 0h1v1h-1zm-15 2h10v1h-10z"/><path fill="#2db67d" fill-rule="evenodd" stroke="#2db67d" stroke-width=".1" d="M65 0h1v1h-1zm-12 8h1v1h-1zm43 21h1v1h-1zm1 1h1v1h-1zm-27 12h1v1h-1z"/><path fill="#36c5f0" fill-rule="evenodd" stroke="#36c5f0" stroke-width=".1" d="M33 1h7v1h2v1h1v1h1v1h1v2h1v13h-9v-1h-1v1h-1v-1h-2v-1h-2v-1h-1v-1h-1v-1h-1v-3h-1v-4h1v-3h1v-1h1v-1h1v-1h2zm-27 26h1v1h1v-1h31v1h2v1h1v1h2v2h1v2h1v5h-1v3h-1v1h-1v1h-1v1h-1v1h-31v1h-1v-1h-2v-1h-2v-1h-1v-1h-1v-1h-1v-1h-1v-2h-1v-1h1v-5h1v-2h1v-2h2v-1h1z"/><path fill="#2eb67d" fill-rule="evenodd" stroke="#2eb67d" stroke-width=".1" d="M58 1h9v1h2v1h1v1h1v2h1v2h1v30h-1v3h-1v1h-1v2h-2v2h-1v-1h-1v1h-7v-1h-1v-1h-1v-1h-2v-3h-1v-4h-1v-26h1v-3h1v-2h1v-1h1v-1h1zm30 26h4v1h2v1h2v1h1v1h1v2h1v3h1v1h-1v3h-1v2h-1v1h-1v1h-1v1h-2v1h-13v-12h1v-2h1v-1h1v-1h1v-1h1v-1h3z"/><path fill="#2eb57d" fill-rule="evenodd" stroke="#2eb57d" stroke-width=".1" d="M57 2h1v1h-1zm0 1v1h-1v-1zm12-1h1v1h-1zm-15 3h1v2h-1zm-1 32h1v1h-1zm46 0h1v2h-1z"/><path fill="#35c4ef" fill-rule="evenodd" stroke="#35c4ef" stroke-width=".1" d="M29 3h1v1h-1zm15 1h1v1h-1zm-15 12h1v1h-1zm10 11h1v1h-1zm2 1h1v1h-1zm3 14h1v1h-1z"/><path fill="#35c5f0" fill-rule="evenodd" stroke="#35c5f0" stroke-width=".1" d="M43 3h1v1h-1zm-13 14h1v1h-1zm-30 17h1v1h-1zm5 11h1v1h-1z"/><path fill="#2db57c" fill-rule="evenodd" stroke="#2db57c" stroke-width=".1" d="M71 4h1v1h-1zm21 23h1v1h-1zm-11 4h1v1h-1zm18 4h1v1h-1zm-27 4h1v1h-1zm-18 1h1v1h-1zm43 2h1v1h-1zm-31 3h1v1h-1zm27 0h1v1h-1zm-29 1h1v1h-1z"/><path fill="#35c5ef" fill-rule="evenodd" stroke="#35c5ef" stroke-width=".1" d="M27 6h1v1h-1zm19 3h1v11h-1zm-19 4h1v1h-1zm1 2h1v1h-1zm4 3h1v1h-1zm12 13h1v1h-1zm1 9h1v1h-1zm-44 1h1v1h-1z"/><path fill="#2eb67c" fill-rule="evenodd" stroke="#2eb67c" stroke-width=".1" d="M72 6h1v1h-1zm-19 3h1v1h-1zm33 18h1v1h-1zm7 0h1v1h-1zm1 1h2v1h-2zm-11 1h1v1h-1zm16 5h1v1h-1zm-27 4h1v1h-1zm-16 5h1v1h-1z"/><path fill="#e01e5a" fill-rule="evenodd" stroke="#e01e5a" stroke-width=".1" d="M8 53h1v1h10v13h-1v2h-1v1h-1v1h-2v1h-2v1h-4v-1h-2v-1h-2v-1h-2v-3h-1v-2h-1v-1h1v-3h-1v-1h1v-2h2v-1h1v-1h1v-1h2v-1h1zm25 1h7v1h2v1h2v1h1v3h1v30h1v1h-1v2h-1v2h-1v1h-1v1h-1v1h-2v1h-7v-1h-1v1h-1v-1h-1v-2h-1v-1h-1v-3h-1v-31h1v-2h1v-3h2v-1h2z"/><path fill="#e01e59" fill-rule="evenodd" stroke="#e01e59" stroke-width=".1" d="M9 53h1v1h-1zm26 0h1v1h-1zm-34 15h1v1h-1zm26 25h1v1h-1z"/><path fill="#df1e5a" fill-rule="evenodd" stroke="#df1e5a" stroke-width=".1" d="M10 53h9v1h-9zm9 1h1v9h-1zm13 0h1v1h-1zm-28 1h1v1h-1zm23 5h1v1h-1zm-8 5h1v1h-1zm-2 4h1v1h-1zm0 1v1h-1v-1zm-12 1h1v1h-1zm1 1h1v1h-1zm39 21h1v1h-1zm-1 2h1v1h-1zm-4 3h1v1h-1z"/><path fill="#df1d5a" fill-rule="evenodd" stroke="#df1d5a" stroke-width=".1" d="M19 53h1v1h-1zm17 0h1v1h-1zm-9 6h1v1h-1zm19 5h1v26h-1zm-46 1h1v1h-1zm39 34h1v1h-1z"/><path fill="#df1d59" fill-rule="evenodd" stroke="#df1d59" stroke-width=".1" d="M37 53h1v1h-1zm-32 1h1v1h-1zm25 1h1v1h-1zm16 8h1v1h-1zm-4 34h1v1h-1zm-5 2h1v1h-1z"/><path fill="#ecb12e" fill-rule="evenodd" stroke="#ecb12e" stroke-width=".1" d="M62 53h1v1h-1zm28 0h1v1h-1zm-37 8h1v1h-1zm45 6h1v1h-1zm-40 4h1v1h-1zm1 1h1v1h-1zm35-1h1v1h-1zm-31 9h2v1h-2zm-6 17h1v1h-1zm12 0h1v1h-1zm-6 2h1v1h-1z"/><path fill="#ebb22e" fill-rule="evenodd" stroke="#ebb22e" stroke-width=".1" d="M63 53h27v1h-27zm-6 2h1v1h-1zm42 8h1v1h-1zm-2 6h1v1h-1zm-30 12h1v1h-1zm-14 9h1v1h-1zm19 2h1v1h-1zm-18 2h1v1h-1zm6 5h3v1h-3z"/><path fill="#e01d59" fill-rule="evenodd" stroke="#e01d59" stroke-width=".1" d="M6 54h1v1h-1zm36 1h1v1h-1zm3 4h1v1h-1zm-45 2h1v1h-1zm4 10h1v1h-1zm11 0h1v1h-1zm-8 1h1v1h-1zm5 0h2v1h-2zm16 23h1v1h-1zm15 1h1v1h-1zm-2 2h1v1h-1zm-7 1h1v1h-1zm4 0h1v1h-1z"/><path fill="#e01d5a" fill-rule="evenodd" stroke="#e01d5a" stroke-width=".1" d="M40 54h1v1h-1zm-37 2h1v1h-1zm0 1v1h-1v-1zm25 1h1v1h-1zm-28 5h1v1h-1zm19 0h1v2h-1zm-1 4h1v1h-1zm9 25h1v1h-1zm5 6h1v1h-1zm4 1h1v1h-1z"/><path fill="#ecb12d" fill-rule="evenodd" stroke="#ecb12d" stroke-width=".1" d="M59 54h1v1h-1zm37 2h1v1h-1zm2 3h1v1h-1zm-45 3h1v1h-1zm2 7h1v1h-1zm0 26h1v1h-1z"/><path fill="#ecb22e" fill-rule="evenodd" stroke="#ecb22e" stroke-width=".1" d="M60 54h33v1h2v1h1v1h1v1h1v2h1v5h1v1h-1v1h-1v2h-1v2h-3v1h-2v1h-31v-1h-2v-1h-2v-1h-1v-1h-1v-2h-1v-7h1v-2h1v-2h2v-1h2zm-6 26h9v1h4v1h3v2h1v2h1v2h1v4h-1v2h-1v2h-1v1h-1v1h-2v1h-1v1h-2v-1h-5v-1h-1v-1h-1v-1h-1v-1h-1v-2h-1z"/><path fill="#ebb12d" fill-rule="evenodd" stroke="#ebb12d" stroke-width=".1" d="M93 54h1v1h-1zm-38 3h1v1h-1zm-1 2h1v1h-1zm-1 5h1v1h-1zm46 0h1v1h-1zm-43 6h1v1h-1zm14 13h1v1h-1zm-17 8h1v1h-1zm17 5h1v1h-1zm-12 2h1v1h-1zm9 0h1v1h-1z"/><path fill="#ebb22d" fill-rule="evenodd" stroke="#ebb22d" stroke-width=".1" d="M95 55h1v1h-1zm3 3h1v1h-1zm1 4h1v1h-1zm-45 5h1v1h-1zm18 20h1v1h-1z"/><path fill="#ebb12e" fill-rule="evenodd" stroke="#ebb12e" stroke-width=".1" d="M97 57h1v1h-1zm2 4h1v1h-1zm-46 4h1v1h-1zm0 15h1v10h-1zm19 6h1v1h-1zm-18 7h1v1h-1zm18 0h1v1h-1zm-16 3h1v1h-1z"/><path fill="#df1e59" fill-rule="evenodd" stroke="#df1e59" stroke-width=".1" d="M0 62h1v1h-1zm1 5h1v1h-1zm2 3h1v1h-1zm11 1h1v1h-1zm15 25h1v1h-1zm6 3h1v1h-1z"/><path fill="#ecb22d" fill-rule="evenodd" stroke="#ecb22d" stroke-width=".1" d="M53 63h1v1h-1zm7 9h1v1h-1zm32 0h2v1h-2zm-27 8h1v1h-1zm6 5h1v1h-1zm0 9h1v1h-1z"/></svg>