<svg xmlns="http://www.w3.org/2000/svg" viewBox="0 0 100 100" width="1em" height="1em"><path fill="#36c4f0" d="M34 0h1v1h-1zM30 2h1v1h-1zM31 18h1v1h-1zM7 27h1v1h-1zM4 28h1v1h-1zM1 31h1v1h-1zM0 39h1v1h-1zM2 42h1v1h-1zM10 46h26v1h-26z" /><path fill="#35c4f0" d="M35 0h1v1h-1zM34 19h1v1h-1zM1 32h1v1h-1zM45 32h1v1h-1zM0 35h1v1h-1zM46 36h1v1h-1zM42 44h1v1h-1zM6 45h1v1h-1z" /><path fill="#36c4ef" d="M36 0h3v1h-3zM31 1h2v1h-2zM40 1h1v1h-1zM42 2h1v1h-1zM28 4h1v1h-1zM27 7h1v1h-1zM27 12h1v1h-1zM36 19h1v1h-1zM40 27h1v1h-1zM42 29h1v1h-1zM2 30h1v1h-1zM45 39h1v1h-1zM3 43h1v1h-1zM43 43h1v1h-1zM8 46h1v1h-1zM37 46h1v1h-1z" /><path fill="#36c5ef" d="M39 0h1v1h-1zM41 1h1v1h-1zM45 6h1v1h-1zM45 33h1v1h-1zM0 36h1v1h-1zM0 37h1v1h-1zM4 44h1v1h-1zM36 46h1v1h-1z" /><path fill="#2db57d" d="M60 0h1v1h-1zM64 0h1v1h-1zM70 3h1v1h-1zM72 7h1v1h-1zM87 27h1v1h-1zM80 33h1v1h-1zM71 41h1v1h-1zM96 43h1v1h-1zM90 46h1v1h-1z" /><path fill="#2db67c" d="M61 0h1v1h-1zM55 4h1v1h-1zM84 28h1v1h-1zM98 32h1v1h-1zM53 36h1v1h-1zM57 44h1v1h-1zM62 46h2v1h-2z" /><path fill="#2eb57c" d="M62 0h2v1h-2zM67 1h1v1h-1zM71 5h1v1h-1zM82 30h1v1h-1zM53 38h1v1h-1zM98 40h1v1h-1zM68 44h1v1h-1zM95 44h1v1h-1zM80 46h10v1h-10z" /><path fill="#2db67d" d="M65 0h1v1h-1zM53 8h1v1h-1zM96 29h1v1h-1zM97 30h1v1h-1zM70 42h1v1h-1z" /><path fill="#36c5f0" d="M33 1h7v1h-7zM31 2h11v1h-11zM30 3h13v1h-13zM29 4h15v1h-15zM28 5h17v1h-17zM28 6h17v1h-17zM28 7h18v1h-18zM27 8h19v1h-19zM27 9h19v1h-19zM27 10h19v1h-19zM27 11h19v1h-19zM28 12h18v1h-18zM28 13h18v1h-18zM28 14h18v1h-18zM29 15h17v1h-17zM30 16h16v1h-16zM31 17h15v1h-15zM33 18h13v1h-13zM35 19h1v1h-1zM37 19h9v1h-9zM6 27h1v1h-1zM8 27h31v1h-31zM5 28h36v1h-36zM3 29h39v1h-39zM3 30h41v1h-41zM2 31h42v1h-42zM2 32h43v1h-43zM1 33h44v1h-44zM1 34h45v1h-45zM1 35h45v1h-45zM1 36h45v1h-45zM1 37h45v1h-45zM0 38h46v1h-46zM1 39h44v1h-44zM1 40h44v1h-44zM2 41h43v1h-43zM3 42h41v1h-41zM4 43h39v1h-39zM5 44h37v1h-37zM7 45h34v1h-34zM9 46h1v1h-1z" /><path fill="#2eb67d" d="M58 1h9v1h-9zM58 2h11v1h-11zM57 3h13v1h-13zM56 4h15v1h-15zM55 5h16v1h-16zM55 6h17v1h-17zM54 7h18v1h-18zM54 8h19v1h-19zM54 9h19v1h-19zM53 10h20v1h-20zM53 11h20v1h-20zM53 12h20v1h-20zM53 13h20v1h-20zM53 14h20v1h-20zM53 15h20v1h-20zM53 16h20v1h-20zM53 17h20v1h-20zM53 18h20v1h-20zM53 19h20v1h-20zM53 20h20v1h-20zM53 21h20v1h-20zM53 22h20v1h-20zM53 23h20v1h-20zM53 24h20v1h-20zM53 25h20v1h-20zM53 26h20v1h-20zM53 27h20v1h-20zM88 27h4v1h-4zM53 28h20v1h-20zM85 28h9v1h-9zM53 29h20v1h-20zM84 29h12v1h-12zM53 30h20v1h-20zM83 30h14v1h-14zM53 31h20v1h-20zM82 31h16v1h-16zM53 32h20v1h-20zM81 32h17v1h-17zM53 33h20v1h-20zM81 33h18v1h-18zM53 34h20v1h-20zM80 34h19v1h-19zM53 35h20v1h-20zM80 35h19v1h-19zM54 36h19v1h-19zM80 36h20v1h-20zM54 37h19v1h-19zM80 37h19v1h-19zM54 38h18v1h-18zM80 38h19v1h-19zM54 39h18v1h-18zM80 39h19v1h-19zM55 40h17v1h-17zM80 40h18v1h-18zM55 41h16v1h-16zM80 41h18v1h-18zM55 42h15v1h-15zM80 42h17v1h-17zM57 43h13v1h-13zM80 43h16v1h-16zM58 44h10v1h-10zM80 44h15v1h-15zM59 45h7v1h-7zM67 45h1v1h-1zM80 45h13v1h-13z" /><path fill="#2eb57d" d="M57 2h1v1h-1zM69 2h1v1h-1zM56 3h1v1h-1zM54 5h1v1h-1zM54 6h1v1h-1zM53 37h1v1h-1zM99 37h1v1h-1zM99 38h1v1h-1z" /><path fill="#35c4ef" d="M29 3h1v1h-1zM44 4h1v1h-1zM29 16h1v1h-1zM39 27h1v1h-1zM41 28h1v1h-1zM44 42h1v1h-1z" /><path fill="#35c5f0" d="M43 3h1v1h-1zM30 17h1v1h-1zM0 34h1v1h-1zM5 45h1v1h-1z" /><path fill="#2db57c" d="M71 4h1v1h-1zM92 27h1v1h-1zM81 31h1v1h-1zM99 35h1v1h-1zM72 39h1v1h-1zM54 40h1v1h-1zM97 42h1v1h-1zM66 45h1v1h-1zM93 45h1v1h-1zM64 46h1v1h-1z" /><path fill="#35c5ef" d="M27 6h1v1h-1zM46 9h1v1h-1zM46 10h1v1h-1zM46 11h1v1h-1zM46 12h1v1h-1zM27 13h1v1h-1zM46 13h1v1h-1zM46 14h1v1h-1zM28 15h1v1h-1zM46 15h1v1h-1zM46 16h1v1h-1zM46 17h1v1h-1zM32 18h1v1h-1zM46 18h1v1h-1zM46 19h1v1h-1zM44 31h1v1h-1zM45 40h1v1h-1zM1 41h1v1h-1z" /><path fill="#2eb67c" d="M72 6h1v1h-1zM53 9h1v1h-1zM86 27h1v1h-1zM93 27h1v1h-1zM94 28h2v1h-2zM83 29h1v1h-1zM99 34h1v1h-1zM72 38h1v1h-1zM56 43h1v1h-1z" /><path fill="#e01e5a" d="M8 53h1v1h-1zM7 54h12v1h-12zM33 54h7v1h-7zM5 55h14v1h-14zM31 55h11v1h-11zM4 56h15v1h-15zM29 56h15v1h-15zM3 57h16v1h-16zM29 57h16v1h-16zM1 58h18v1h-18zM29 58h16v1h-16zM1 59h18v1h-18zM28 59h17v1h-17zM0 60h19v1h-19zM28 60h18v1h-18zM1 61h18v1h-18zM27 61h19v1h-19zM1 62h18v1h-18zM27 62h19v1h-19zM1 63h18v1h-18zM27 63h19v1h-19zM0 64h19v1h-19zM27 64h19v1h-19zM1 65h18v1h-18zM27 65h19v1h-19zM1 66h18v1h-18zM27 66h19v1h-19zM2 67h16v1h-16zM27 67h19v1h-19zM2 68h16v1h-16zM27 68h19v1h-19zM2 69h15v1h-15zM27 69h19v1h-19zM4 70h12v1h-12zM27 70h19v1h-19zM6 71h8v1h-8zM27 71h19v1h-19zM8 72h4v1h-4zM27 72h19v1h-19zM27 73h19v1h-19zM27 74h19v1h-19zM27 75h19v1h-19zM27 76h19v1h-19zM27 77h19v1h-19zM27 78h19v1h-19zM27 79h19v1h-19zM27 80h19v1h-19zM27 81h19v1h-19zM27 82h19v1h-19zM27 83h19v1h-19zM27 84h19v1h-19zM27 85h19v1h-19zM27 86h19v1h-19zM27 87h19v1h-19zM27 88h19v1h-19zM27 89h19v1h-19zM27 90h20v1h-20zM27 91h19v1h-19zM28 92h18v1h-18zM28 93h17v1h-17zM28 94h17v1h-17zM29 95h15v1h-15zM30 96h13v1h-13zM30 97h12v1h-12zM31 98h1v1h-1zM33 98h7v1h-7z" /><path fill="#e01e59" d="M9 53h1v1h-1zM35 53h1v1h-1zM1 68h1v1h-1zM27 93h1v1h-1z" /><path fill="#df1e5a" d="M10 53h9v1h-9zM19 54h1v1h-1zM32 54h1v1h-1zM4 55h1v1h-1zM19 55h1v1h-1zM19 56h1v1h-1zM19 57h1v1h-1zM19 58h1v1h-1zM19 59h1v1h-1zM19 60h1v1h-1zM27 60h1v1h-1zM19 61h1v1h-1zM19 62h1v1h-1zM19 65h1v1h-1zM17 69h1v1h-1zM16 70h1v1h-1zM5 71h1v1h-1zM6 72h1v1h-1zM45 93h1v1h-1zM44 95h1v1h-1zM40 98h1v1h-1z" /><path fill="#df1d5a" d="M19 53h1v1h-1zM36 53h1v1h-1zM27 59h1v1h-1zM46 64h1v1h-1zM0 65h1v1h-1zM46 65h1v1h-1zM46 66h1v1h-1zM46 67h1v1h-1zM46 68h1v1h-1zM46 69h1v1h-1zM46 70h1v1h-1zM46 71h1v1h-1zM46 72h1v1h-1zM46 73h1v1h-1zM46 74h1v1h-1zM46 75h1v1h-1zM46 76h1v1h-1zM46 77h1v1h-1zM46 78h1v1h-1zM46 79h1v1h-1zM46 80h1v1h-1zM46 81h1v1h-1zM46 82h1v1h-1zM46 83h1v1h-1zM46 84h1v1h-1zM46 85h1v1h-1zM46 86h1v1h-1zM46 87h1v1h-1zM46 88h1v1h-1zM46 89h1v1h-1zM39 99h1v1h-1z" /><path fill="#df1d59" d="M37 53h1v1h-1zM5 54h1v1h-1zM30 55h1v1h-1zM46 63h1v1h-1zM42 97h1v1h-1zM37 99h1v1h-1z" /><path fill="#ecb12e" d="M62 53h1v1h-1zM90 53h1v1h-1zM53 61h1v1h-1zM98 67h1v1h-1zM58 71h1v1h-1zM94 71h1v1h-1zM59 72h1v1h-1zM63 80h2v1h-2zM57 97h1v1h-1zM69 97h1v1h-1zM63 99h1v1h-1z" /><path fill="#ebb22e" d="M63 53h27v1h-27zM57 55h1v1h-1zM99 63h1v1h-1zM97 69h1v1h-1zM67 81h1v1h-1zM53 90h1v1h-1zM72 92h1v1h-1zM54 94h1v1h-1zM60 99h3v1h-3z" /><path fill="#e01d59" d="M6 54h1v1h-1zM42 55h1v1h-1zM45 59h1v1h-1zM0 61h1v1h-1zM4 71h1v1h-1zM15 71h1v1h-1zM7 72h1v1h-1zM12 72h2v1h-2zM28 95h1v1h-1zM43 96h1v1h-1zM41 98h1v1h-1zM34 99h1v1h-1zM38 99h1v1h-1z" /><path fill="#e01d5a" d="M40 54h1v1h-1zM3 56h1v1h-1zM2 57h1v1h-1zM28 58h1v1h-1zM0 63h1v1h-1zM19 63h1v1h-1zM19 64h1v1h-1zM18 67h1v1h-1zM27 92h1v1h-1zM32 98h1v1h-1zM36 99h1v1h-1z" /><path fill="#ecb12d" d="M59 54h1v1h-1zM96 56h1v1h-1zM98 59h1v1h-1zM53 62h1v1h-1zM55 69h1v1h-1zM55 95h1v1h-1z" /><path fill="#ecb22e" d="M60 54h33v1h-33zM58 55h37v1h-37zM56 56h40v1h-40zM56 57h41v1h-41zM55 58h43v1h-43zM55 59h43v1h-43zM54 60h45v1h-45zM54 61h45v1h-45zM54 62h45v1h-45zM54 63h45v1h-45zM54 64h45v1h-45zM54 65h46v1h-46zM54 66h45v1h-45zM55 67h43v1h-43zM55 68h43v1h-43zM56 69h41v1h-41zM57 70h40v1h-40zM59 71h35v1h-35zM61 72h31v1h-31zM54 80h9v1h-9zM54 81h13v1h-13zM54 82h16v1h-16zM54 83h16v1h-16zM54 84h17v1h-17zM54 85h17v1h-17zM54 86h18v1h-18zM54 87h18v1h-18zM54 88h19v1h-19zM54 89h19v1h-19zM54 90h19v1h-19zM54 91h19v1h-19zM54 92h18v1h-18zM55 93h17v1h-17zM55 94h16v1h-16zM56 95h15v1h-15zM57 96h13v1h-13zM58 97h11v1h-11zM59 98h8v1h-8zM64 99h2v1h-2z" /><path fill="#ebb12d" d="M93 54h1v1h-1zM55 57h1v1h-1zM54 59h1v1h-1zM53 64h1v1h-1zM99 64h1v1h-1zM56 70h1v1h-1zM70 83h1v1h-1zM53 91h1v1h-1zM70 96h1v1h-1zM58 98h1v1h-1zM67 98h1v1h-1z" /><path fill="#ebb22d" d="M95 55h1v1h-1zM98 58h1v1h-1zM99 62h1v1h-1zM54 67h1v1h-1zM72 87h1v1h-1z" /><path fill="#ebb12e" d="M97 57h1v1h-1zM99 61h1v1h-1zM53 65h1v1h-1zM53 80h1v1h-1zM53 81h1v1h-1zM53 82h1v1h-1zM53 83h1v1h-1zM53 84h1v1h-1zM53 85h1v1h-1zM53 86h1v1h-1zM72 86h1v1h-1zM53 87h1v1h-1zM53 88h1v1h-1zM53 89h1v1h-1zM54 93h1v1h-1zM72 93h1v1h-1zM56 96h1v1h-1z" /><path fill="#df1e59" d="M0 62h1v1h-1zM1 67h1v1h-1zM3 70h1v1h-1zM14 71h1v1h-1zM29 96h1v1h-1zM35 99h1v1h-1z" /><path fill="#ecb22d" d="M53 63h1v1h-1zM60 72h1v1h-1zM92 72h2v1h-2zM65 80h1v1h-1zM71 85h1v1h-1zM71 94h1v1h-1z" /></svg>