<svg xmlns="http://www.w3.org/2000/svg" viewBox="0 0 100 100" width="1em" height="1em"><path fill="#239edb" d="M36 0h1v1h-1zM40 0h1v1h-1zM59 0h1v1h-1zM57 1h1v1h-1zM43 2h1v1h-1zM55 4h1v1h-1zM55 5h1v1h-1zM67 6h1v1h-1zM67 7h1v1h-1zM67 8h1v1h-1zM67 9h1v1h-1zM67 10h1v1h-1zM67 11h1v1h-1zM16 12h1v1h-1zM67 12h1v1h-1zM67 13h1v1h-1zM67 14h1v1h-1zM24 15h1v1h-1zM67 15h1v1h-1zM75 15h1v1h-1zM67 16h1v1h-1zM11 17h1v1h-1zM67 17h1v1h-1zM67 18h1v1h-1zM68 19h1v1h-1zM17 25h1v1h-1zM24 29h1v1h-1zM44 30h1v1h-1zM44 32h1v1h-1zM96 32h1v1h-1zM85 35h1v1h-1zM99 35h1v1h-1zM37 36h1v1h-1zM99 38h1v1h-1zM21 39h1v1h-1zM47 39h1v1h-1zM54 41h1v1h-1zM73 42h1v1h-1zM71 43h1v1h-1zM5 44h1v1h-1zM32 46h1v1h-1zM52 47h1v1h-1zM12 48h1v1h-1zM53 48h1v1h-1zM87 48h1v1h-1zM38 49h1v1h-1zM38 50h1v1h-1zM66 50h1v1h-1zM53 51h1v1h-1zM11 52h1v1h-1zM67 53h1v1h-1zM5 55h1v1h-1zM26 57h1v1h-1zM55 57h1v1h-1zM73 57h1v1h-1zM22 59h1v1h-1zM46 59h1v1h-1zM77 59h1v1h-1zM47 60h1v1h-1zM62 63h1v1h-1zM33 65h1v1h-1zM44 67h1v1h-1zM44 70h1v1h-1zM44 71h1v1h-1zM44 72h1v1h-1zM44 73h1v1h-1zM17 74h1v1h-1zM44 74h1v1h-1zM44 75h1v1h-1zM44 76h1v1h-1zM44 77h1v1h-1zM44 78h1v1h-1zM44 79h1v1h-1zM11 80h1v1h-1zM44 80h1v1h-1zM68 80h1v1h-1zM44 81h1v1h-1zM67 81h1v1h-1zM44 82h1v1h-1zM67 82h1v1h-1zM72 82h1v1h-1zM26 83h1v1h-1zM44 83h1v1h-1zM67 83h1v1h-1zM44 84h1v1h-1zM67 84h1v1h-1zM44 85h1v1h-1zM67 85h1v1h-1zM20 86h1v1h-1zM44 86h1v1h-1zM67 86h1v1h-1zM44 87h1v1h-1zM67 87h1v1h-1zM44 88h1v1h-1zM67 88h1v1h-1zM44 89h1v1h-1zM67 89h1v1h-1zM44 90h1v1h-1zM67 90h1v1h-1zM44 91h1v1h-1zM67 91h1v1h-1zM44 92h1v1h-1zM67 92h1v1h-1zM44 93h1v1h-1zM67 93h1v1h-1zM55 94h1v1h-1zM55 95h1v1h-1zM43 97h1v1h-1zM42 98h1v1h-1zM59 99h1v1h-1z" /><path fill="#239edc" d="M37 0h1v1h-1zM62 0h1v1h-1zM35 1h1v1h-1zM64 1h1v1h-1zM44 4h1v1h-1zM44 5h1v1h-1zM32 6h1v1h-1zM32 7h1v1h-1zM32 8h1v1h-1zM32 9h1v1h-1zM32 10h1v1h-1zM32 11h1v1h-1zM32 12h1v1h-1zM81 12h1v1h-1zM32 13h1v1h-1zM85 13h1v1h-1zM32 14h1v1h-1zM32 15h1v1h-1zM87 15h1v1h-1zM25 16h1v1h-1zM32 16h1v1h-1zM74 16h1v1h-1zM32 17h1v1h-1zM32 18h1v1h-1zM70 18h1v1h-1zM85 23h1v1h-1zM16 24h1v1h-1zM73 30h1v1h-1zM8 32h1v1h-1zM69 32h1v1h-1zM91 32h1v1h-1zM2 33h1v1h-1zM31 33h1v1h-1zM43 33h1v1h-1zM97 33h1v1h-1zM12 34h1v1h-1zM33 34h1v1h-1zM64 35h1v1h-1zM62 36h1v1h-1zM84 36h1v1h-1zM82 37h1v1h-1zM20 39h1v1h-1zM53 40h1v1h-1zM4 43h1v1h-1zM27 43h1v1h-1zM72 43h1v1h-1zM95 43h1v1h-1zM6 44h1v1h-1zM42 44h1v1h-1zM93 44h2v1h-2zM41 45h1v1h-1zM49 45h2v1h-2zM40 46h1v1h-1zM67 46h1v1h-1zM32 47h1v1h-1zM39 47h1v1h-1zM60 47h1v1h-1zM67 47h1v1h-1zM86 48h1v1h-1zM13 51h1v1h-1zM86 51h1v1h-1zM39 52h1v1h-1zM60 52h1v1h-1zM9 53h1v1h-1zM40 53h1v1h-1zM48 53h1v1h-1zM41 54h1v1h-1zM50 54h1v1h-1zM68 54h1v1h-1zM6 55h1v1h-1zM29 55h1v1h-1zM70 55h1v1h-1zM93 55h1v1h-1zM4 56h1v1h-1zM71 56h2v1h-2zM97 57h1v1h-1zM24 58h1v1h-1zM54 58h1v1h-1zM75 58h1v1h-1zM98 58h1v1h-1zM53 59h1v1h-1zM20 60h1v1h-1zM79 60h1v1h-1zM19 61h1v1h-1zM80 61h1v1h-1zM64 64h1v1h-1zM2 66h1v1h-1zM10 66h1v1h-1zM43 66h1v1h-1zM89 66h1v1h-1zM23 71h1v1h-1zM21 72h1v1h-1zM19 73h1v1h-1zM83 75h1v1h-1zM70 81h1v1h-1zM88 81h1v1h-1zM27 82h1v1h-1zM25 83h1v1h-1zM74 83h1v1h-1zM75 84h1v1h-1zM87 84h1v1h-1zM22 85h1v1h-1zM85 86h1v1h-1zM33 96h1v1h-1zM35 98h1v1h-1zM60 99h1v1h-1z" /><path fill="#239ddc" d="M38 0h1v1h-1zM61 0h1v1h-1zM63 0h1v1h-1zM14 13h1v1h-1zM20 13h1v1h-1zM79 13h1v1h-1zM12 15h1v1h-1zM26 16h1v1h-1zM73 16h1v1h-1zM86 22h1v1h-1zM21 27h1v1h-1zM23 28h1v1h-1zM76 28h1v1h-1zM30 32h1v1h-1zM35 35h1v1h-1zM15 36h1v1h-1zM99 37h1v1h-1zM52 39h1v1h-1zM29 44h1v1h-1zM87 51h1v1h-1zM49 54h1v1h-1zM27 56h1v1h-1zM95 56h1v1h-1zM52 60h1v1h-1zM99 62h1v1h-1zM39 63h1v1h-1zM60 63h1v1h-1zM35 64h1v1h-1zM66 65h1v1h-1zM97 66h1v1h-1zM69 67h1v1h-1zM44 69h1v1h-1zM76 71h1v1h-1zM16 75h1v1h-1zM12 78h1v1h-1zM14 86h1v1h-1zM61 99h1v1h-1z" /><path fill="#249ddb" d="M39 0h1v1h-1zM60 0h1v1h-1zM56 2h1v1h-1zM66 3h1v1h-1zM44 6h1v1h-1zM55 6h1v1h-1zM55 7h1v1h-1zM55 8h1v1h-1zM55 9h1v1h-1zM55 10h1v1h-1zM55 11h1v1h-1zM55 12h1v1h-1zM55 13h1v1h-1zM55 14h1v1h-1zM86 14h1v1h-1zM55 15h1v1h-1zM55 16h1v1h-1zM27 17h1v1h-1zM55 17h1v1h-1zM72 17h1v1h-1zM55 18h1v1h-1zM31 19h1v1h-1zM55 19h1v1h-1zM55 20h1v1h-1zM12 21h1v1h-1zM55 21h1v1h-1zM55 22h1v1h-1zM55 23h1v1h-1zM55 24h1v1h-1zM83 24h1v1h-1zM18 25h1v1h-1zM55 25h1v1h-1zM55 26h1v1h-1zM80 26h1v1h-1zM55 27h1v1h-1zM55 28h1v1h-1zM25 29h1v1h-1zM55 29h1v1h-1zM55 30h1v1h-1zM28 31h1v1h-1zM55 31h1v1h-1zM3 32h2v1h-2zM95 32h1v1h-1zM32 33h1v1h-1zM56 33h1v1h-1zM67 33h1v1h-1zM89 33h1v1h-1zM1 34h1v1h-1zM41 35h1v1h-1zM58 35h1v1h-1zM99 36h1v1h-1zM0 37h1v1h-1zM19 38h1v1h-1zM79 39h1v1h-1zM99 39h1v1h-1zM22 40h1v1h-1zM46 40h1v1h-1zM98 41h1v1h-1zM2 42h1v1h-1zM55 42h1v1h-1zM97 42h1v1h-1zM43 43h1v1h-1zM56 43h1v1h-1zM70 44h1v1h-1zM7 45h1v1h-1zM58 45h1v1h-1zM92 45h1v1h-1zM59 46h1v1h-1zM11 47h1v1h-1zM88 47h1v1h-1zM13 48h1v1h-1zM14 49h1v1h-1zM45 49h1v1h-1zM54 49h1v1h-1zM66 49h1v1h-1zM85 49h1v1h-1zM33 50h1v1h-1zM45 50h1v1h-1zM54 50h1v1h-1zM32 52h1v1h-1zM88 52h1v1h-1zM51 53h1v1h-1zM59 53h1v1h-1zM7 54h1v1h-1zM42 55h1v1h-1zM56 56h1v1h-1zM45 58h1v1h-1zM0 60h1v1h-1zM99 60h1v1h-1zM0 61h1v1h-1zM99 61h1v1h-1zM0 62h1v1h-1zM17 62h1v1h-1zM99 63h1v1h-1zM13 64h1v1h-1zM41 64h1v1h-1zM58 64h1v1h-1zM86 64h1v1h-1zM1 65h1v1h-1zM32 66h1v1h-1zM56 66h1v1h-1zM67 66h1v1h-1zM4 67h1v1h-1zM95 67h1v1h-1zM55 68h1v1h-1zM55 69h1v1h-1zM55 70h1v1h-1zM74 70h1v1h-1zM55 71h1v1h-1zM55 72h1v1h-1zM55 73h1v1h-1zM18 74h1v1h-1zM55 74h1v1h-1zM55 75h1v1h-1zM55 76h1v1h-1zM13 77h1v1h-1zM55 77h1v1h-1zM55 78h1v1h-1zM87 78h1v1h-1zM55 79h1v1h-1zM55 80h1v1h-1zM55 81h1v1h-1zM55 82h1v1h-1zM55 83h1v1h-1zM24 84h1v1h-1zM55 84h1v1h-1zM55 85h1v1h-1zM77 85h1v1h-1zM86 85h1v1h-1zM55 86h1v1h-1zM79 86h1v1h-1zM55 87h1v1h-1zM81 87h1v1h-1zM55 88h1v1h-1zM55 89h1v1h-1zM55 90h1v1h-1zM55 91h1v1h-1zM55 92h1v1h-1zM55 93h1v1h-1zM44 94h1v1h-1zM44 95h1v1h-1zM64 98h1v1h-1zM38 99h2v1h-2z" /><path fill="#249edc" d="M36 1h7v1h-7zM58 1h6v1h-6zM35 2h8v1h-8zM57 2h8v1h-8zM34 3h10v1h-10zM56 3h10v1h-10zM33 4h11v1h-11zM56 4h11v1h-11zM33 5h11v1h-11zM56 5h11v1h-11zM33 6h11v1h-11zM56 6h11v1h-11zM33 7h11v1h-11zM56 7h11v1h-11zM33 8h11v1h-11zM56 8h11v1h-11zM33 9h11v1h-11zM56 9h11v1h-11zM33 10h11v1h-11zM56 10h11v1h-11zM33 11h11v1h-11zM56 11h11v1h-11zM33 12h11v1h-11zM56 12h11v1h-11zM15 13h5v1h-5zM33 13h11v1h-11zM56 13h11v1h-11zM80 13h5v1h-5zM13 14h10v1h-10zM33 14h11v1h-11zM56 14h11v1h-11zM77 14h9v1h-9zM13 15h11v1h-11zM33 15h11v1h-11zM56 15h11v1h-11zM76 15h11v1h-11zM12 16h13v1h-13zM33 16h11v1h-11zM56 16h11v1h-11zM75 16h13v1h-13zM12 17h15v1h-15zM33 17h11v1h-11zM56 17h11v1h-11zM73 17h15v1h-15zM12 18h17v1h-17zM33 18h11v1h-11zM56 18h11v1h-11zM71 18h18v1h-18zM11 19h20v1h-20zM33 19h11v1h-11zM56 19h11v1h-11zM69 19h19v1h-19zM12 20h32v1h-32zM56 20h32v1h-32zM13 21h31v1h-31zM56 21h31v1h-31zM14 22h30v1h-30zM56 22h30v1h-30zM15 23h29v1h-29zM56 23h29v1h-29zM17 24h27v1h-27zM56 24h27v1h-27zM19 25h25v1h-25zM56 25h25v1h-25zM20 26h24v1h-24zM56 26h24v1h-24zM22 27h22v1h-22zM56 27h23v1h-23zM24 28h20v1h-20zM56 28h20v1h-20zM26 29h18v1h-18zM56 29h18v1h-18zM27 30h17v1h-17zM56 30h17v1h-17zM29 31h15v1h-15zM56 31h15v1h-15zM5 32h3v1h-3zM31 32h13v1h-13zM55 32h14v1h-14zM92 32h3v1h-3zM3 33h7v1h-7zM33 33h10v1h-10zM57 33h10v1h-10zM68 33h1v1h-1zM90 33h7v1h-7zM2 34h10v1h-10zM34 34h9v1h-9zM57 34h10v1h-10zM88 34h10v1h-10zM1 35h12v1h-12zM36 35h5v1h-5zM59 35h5v1h-5zM87 35h12v1h-12zM1 36h14v1h-14zM39 36h1v1h-1zM85 36h14v1h-14zM1 37h17v1h-17zM83 37h16v1h-16zM1 38h18v1h-18zM49 38h2v1h-2zM81 38h18v1h-18zM0 39h20v1h-20zM48 39h4v1h-4zM80 39h19v1h-19zM1 40h21v1h-21zM47 40h6v1h-6zM78 40h21v1h-21zM1 41h23v1h-23zM46 41h8v1h-8zM75 41h23v1h-23zM3 42h23v1h-23zM45 42h10v1h-10zM74 42h23v1h-23zM5 43h22v1h-22zM44 43h12v1h-12zM73 43h22v1h-22zM7 44h22v1h-22zM43 44h14v1h-14zM71 44h22v1h-22zM8 45h23v1h-23zM42 45h7v1h-7zM51 45h7v1h-7zM69 45h23v1h-23zM10 46h22v1h-22zM41 46h7v1h-7zM51 46h8v1h-8zM68 46h22v1h-22zM12 47h20v1h-20zM40 47h7v1h-7zM53 47h7v1h-7zM68 47h20v1h-20zM14 48h19v1h-19zM39 48h7v1h-7zM54 48h8v1h-8zM67 48h19v1h-19zM15 49h18v1h-18zM39 49h6v1h-6zM55 49h6v1h-6zM67 49h18v1h-18zM15 50h18v1h-18zM39 50h6v1h-6zM55 50h6v1h-6zM67 50h18v1h-18zM12 51h1v1h-1zM14 51h19v1h-19zM39 51h8v1h-8zM54 51h8v1h-8zM67 51h19v1h-19zM12 52h20v1h-20zM40 52h8v1h-8zM53 52h7v1h-7zM68 52h20v1h-20zM10 53h22v1h-22zM41 53h7v1h-7zM52 53h7v1h-7zM68 53h22v1h-22zM8 54h24v1h-24zM42 54h7v1h-7zM51 54h7v1h-7zM69 54h23v1h-23zM7 55h22v1h-22zM43 55h14v1h-14zM71 55h22v1h-22zM5 56h22v1h-22zM44 56h12v1h-12zM73 56h22v1h-22zM3 57h23v1h-23zM45 57h10v1h-10zM74 57h23v1h-23zM2 58h22v1h-22zM46 58h8v1h-8zM76 58h22v1h-22zM1 59h21v1h-21zM47 59h6v1h-6zM78 59h21v1h-21zM1 60h19v1h-19zM48 60h4v1h-4zM80 60h19v1h-19zM1 61h18v1h-18zM48 61h3v1h-3zM81 61h18v1h-18zM1 62h16v1h-16zM83 62h16v1h-16zM1 63h14v1h-14zM85 63h14v1h-14zM0 64h13v1h-13zM14 64h1v1h-1zM36 64h5v1h-5zM59 64h5v1h-5zM85 64h1v1h-1zM87 64h12v1h-12zM2 65h10v1h-10zM34 65h9v1h-9zM57 65h9v1h-9zM88 65h10v1h-10zM3 66h7v1h-7zM33 66h10v1h-10zM57 66h10v1h-10zM90 66h7v1h-7zM5 67h3v1h-3zM31 67h13v1h-13zM56 67h13v1h-13zM92 67h3v1h-3zM29 68h15v1h-15zM56 68h15v1h-15zM26 69h18v1h-18zM56 69h17v1h-17zM24 70h1v1h-1zM26 70h18v1h-18zM56 70h18v1h-18zM24 71h20v1h-20zM56 71h20v1h-20zM22 72h22v1h-22zM56 72h22v1h-22zM20 73h24v1h-24zM56 73h24v1h-24zM19 74h25v1h-25zM56 74h25v1h-25zM17 75h27v1h-27zM56 75h27v1h-27zM14 76h30v1h-30zM56 76h29v1h-29zM14 77h30v1h-30zM56 77h30v1h-30zM13 78h31v1h-31zM56 78h31v1h-31zM12 79h32v1h-32zM56 79h32v1h-32zM12 80h19v1h-19zM32 80h12v1h-12zM56 80h11v1h-11zM69 80h19v1h-19zM11 81h18v1h-18zM33 81h11v1h-11zM56 81h11v1h-11zM71 81h17v1h-17zM12 82h15v1h-15zM33 82h11v1h-11zM56 82h11v1h-11zM73 82h16v1h-16zM12 83h13v1h-13zM33 83h11v1h-11zM56 83h11v1h-11zM75 83h13v1h-13zM13 84h11v1h-11zM33 84h11v1h-11zM56 84h11v1h-11zM76 84h11v1h-11zM13 85h9v1h-9zM33 85h11v1h-11zM56 85h11v1h-11zM78 85h8v1h-8zM15 86h5v1h-5zM33 86h11v1h-11zM56 86h11v1h-11zM80 86h5v1h-5zM33 87h11v1h-11zM56 87h11v1h-11zM33 88h11v1h-11zM56 88h11v1h-11zM33 89h11v1h-11zM56 89h11v1h-11zM33 90h11v1h-11zM56 90h11v1h-11zM33 91h11v1h-11zM56 91h11v1h-11zM33 92h11v1h-11zM56 92h11v1h-11zM33 93h11v1h-11zM56 93h11v1h-11zM33 94h11v1h-11zM56 94h11v1h-11zM33 95h11v1h-11zM56 95h11v1h-11zM34 96h10v1h-10zM56 96h10v1h-10zM35 97h8v1h-8zM57 97h8v1h-8zM36 98h6v1h-6zM58 98h6v1h-6zM36 99h2v1h-2zM62 99h1v1h-1z" /><path fill="#249edb" d="M34 2h1v1h-1zM65 2h1v1h-1zM44 7h1v1h-1zM44 8h1v1h-1zM44 9h1v1h-1zM44 10h1v1h-1zM44 11h1v1h-1zM44 12h1v1h-1zM44 13h1v1h-1zM44 14h1v1h-1zM44 15h1v1h-1zM44 16h1v1h-1zM44 17h1v1h-1zM11 18h1v1h-1zM44 18h1v1h-1zM44 19h1v1h-1zM44 20h1v1h-1zM44 21h1v1h-1zM13 22h1v1h-1zM44 22h1v1h-1zM44 23h1v1h-1zM44 24h1v1h-1zM44 25h1v1h-1zM81 25h1v1h-1zM44 26h1v1h-1zM44 27h1v1h-1zM44 28h1v1h-1zM44 29h1v1h-1zM74 29h1v1h-1zM26 30h1v1h-1zM87 34h1v1h-1zM98 34h1v1h-1zM13 35h1v1h-1zM86 35h1v1h-1zM0 38h1v1h-1zM77 40h1v1h-1zM45 41h1v1h-1zM26 42h1v1h-1zM44 42h1v1h-1zM57 44h1v1h-1zM68 45h1v1h-1zM67 52h1v1h-1zM58 54h1v1h-1zM92 54h1v1h-1zM57 55h1v1h-1zM43 56h1v1h-1zM44 57h1v1h-1zM0 63h1v1h-1zM15 63h1v1h-1zM84 63h1v1h-1zM98 65h1v1h-1zM8 67h1v1h-1zM30 67h1v1h-1zM91 67h1v1h-1zM71 68h1v1h-1zM25 70h1v1h-1zM81 74h1v1h-1zM86 77h1v1h-1zM29 81h1v1h-1zM11 82h1v1h-1zM12 84h1v1h-1zM17 87h2v1h-2zM66 96h1v1h-1zM34 97h1v1h-1zM65 97h1v1h-1zM40 99h1v1h-1z" /><path fill="#249ddc" d="M33 3h1v1h-1zM17 12h2v1h-2zM82 12h1v1h-1zM88 17h1v1h-1zM32 19h1v1h-1zM67 19h1v1h-1zM82 25h1v1h-1zM19 26h1v1h-1zM75 29h1v1h-1zM44 31h1v1h-1zM0 35h1v1h-1zM14 35h1v1h-1zM0 36h1v1h-1zM38 36h1v1h-1zM60 36h2v1h-2zM48 38h1v1h-1zM51 38h1v1h-1zM80 38h1v1h-1zM78 39h1v1h-1zM31 45h1v1h-1zM47 47h1v1h-1zM46 48h1v1h-1zM61 49h1v1h-1zM61 50h1v1h-1zM32 53h1v1h-1zM28 56h1v1h-1zM2 57h1v1h-1zM1 58h1v1h-1zM21 60h1v1h-1zM78 60h1v1h-1zM51 61h1v1h-1zM82 62h1v1h-1zM38 63h1v1h-1zM61 63h1v1h-1zM12 65h1v1h-1zM87 65h1v1h-1zM68 66h1v1h-1zM55 67h1v1h-1zM96 67h1v1h-1zM28 68h1v1h-1zM44 68h1v1h-1zM75 70h1v1h-1zM78 72h1v1h-1zM80 73h1v1h-1zM82 74h1v1h-1zM31 80h1v1h-1zM67 80h1v1h-1zM88 80h1v1h-1zM32 81h1v1h-1zM32 82h1v1h-1zM32 83h1v1h-1zM73 83h1v1h-1zM32 84h1v1h-1zM32 85h1v1h-1zM32 86h1v1h-1zM16 87h1v1h-1zM32 87h1v1h-1zM82 87h2v1h-2zM32 88h1v1h-1zM32 89h1v1h-1zM32 90h1v1h-1zM32 91h1v1h-1zM32 92h1v1h-1zM32 93h1v1h-1zM57 98h1v1h-1zM63 99h1v1h-1z" /><path fill="#239ddb" d="M83 12h1v1h-1zM29 18h1v1h-1zM88 19h1v1h-1zM87 21h1v1h-1zM14 23h1v1h-1zM71 31h1v1h-1zM10 33h1v1h-1zM24 41h1v1h-1zM28 43h1v1h-1zM9 46h1v1h-1zM48 46h1v1h-1zM90 46h1v1h-1zM38 48h1v1h-1zM33 49h1v1h-1zM14 50h1v1h-1zM85 50h1v1h-1zM38 51h1v1h-1zM52 52h1v1h-1zM90 53h1v1h-1zM94 55h1v1h-1zM37 63h1v1h-1zM99 64h1v1h-1zM31 66h1v1h-1zM3 67h1v1h-1zM73 69h1v1h-1zM85 76h1v1h-1zM56 97h1v1h-1z" /></svg>