<svg xmlns="http://www.w3.org/2000/svg" viewBox="0 0 100 100" width="1em" height="1em"><path fill="#000000" d="M34 0h32v1h-32zM33 1h34v1h-34zM33 2h34v1h-34zM32 3h36v1h-36zM31 4h37v1h-37zM31 5h38v1h-38zM30 6h40v1h-40zM30 7h40v1h-40zM29 8h42v1h-42zM29 9h42v1h-42zM28 10h44v1h-44zM28 11h44v1h-44zM27 12h46v1h-46zM26 13h47v1h-47zM26 14h48v1h-48zM25 15h50v1h-50zM25 16h50v1h-50zM24 17h52v1h-52zM24 18h52v1h-52zM23 19h54v1h-54zM22 20h55v1h-55zM22 21h56v1h-56zM21 22h58v1h-58zM21 23h58v1h-58zM20 24h60v1h-60zM20 25h60v1h-60zM19 26h62v1h-62zM19 27h62v1h-62zM18 28h32v1h-32zM19 29h30v1h-30zM19 30h30v1h-30zM20 31h28v1h-28zM20 32h28v1h-28zM21 33h26v1h-26zM21 34h26v1h-26zM22 35h24v1h-24zM23 36h23v1h-23zM23 37h22v1h-22zM24 38h20v1h-20zM24 39h20v1h-20zM25 40h18v1h-18zM25 41h18v1h-18zM26 42h16v1h-16zM27 43h15v1h-15zM66 43h1v1h-1zM27 44h14v1h-14zM66 44h1v1h-1zM28 45h12v1h-12zM65 45h3v1h-3zM28 46h12v1h-12zM64 46h4v1h-4zM29 47h10v1h-10zM64 47h5v1h-5zM29 48h10v1h-10zM63 48h6v1h-6zM30 49h8v1h-8zM63 49h7v1h-7zM30 50h8v1h-8zM62 50h9v1h-9zM31 51h6v1h-6zM62 51h9v1h-9zM32 52h5v1h-5zM61 52h11v1h-11zM32 53h4v1h-4zM61 53h11v1h-11zM33 54h2v1h-2zM60 54h13v1h-13zM33 55h2v1h-2zM59 55h14v1h-14zM59 56h15v1h-15zM58 57h16v1h-16zM58 58h17v1h-17zM57 59h19v1h-19zM57 60h19v1h-19zM56 61h21v1h-21zM55 62h22v1h-22zM55 63h23v1h-23zM54 64h24v1h-24zM54 65h25v1h-25zM53 66h27v1h-27zM53 67h27v1h-27zM52 68h29v1h-29zM52 69h29v1h-29zM51 70h31v1h-31zM50 71h32v1h-32zM19 72h63v1h-63zM20 73h61v1h-61zM20 74h61v1h-61zM21 75h59v1h-59zM21 76h59v1h-59zM22 77h57v1h-57zM23 78h55v1h-55zM23 79h55v1h-55zM24 80h53v1h-53zM24 81h53v1h-53zM25 82h51v1h-51zM25 83h51v1h-51zM26 84h49v1h-49zM26 85h49v1h-49zM27 86h47v1h-47zM28 87h45v1h-45zM28 88h45v1h-45zM29 89h43v1h-43zM29 90h43v1h-43zM30 91h41v1h-41zM30 92h41v1h-41zM31 93h39v1h-39zM32 94h37v1h-37zM32 95h37v1h-37zM33 96h35v1h-35zM33 97h35v1h-35zM34 98h33v1h-33zM34 99h33v1h-33z" /></svg>