<svg xmlns="http://www.w3.org/2000/svg" viewBox="0 0 100 100" width="1em" height="1em"><path fill="#9d39ff" d="M21 13h1v1h-1zM24 13h14v1h-14zM41 13h1v1h-1zM20 14h24v1h-24zM17 15h31v1h-31zM49 15h1v1h-1zM15 16h35v1h-35zM13 17h40v1h-40zM12 18h43v1h-43zM10 19h45v1h-45zM10 20h45v1h-45zM9 21h46v1h-46zM8 22h47v1h-47zM7 23h48v1h-48zM7 24h48v1h-48zM7 25h48v1h-48zM5 26h50v1h-50zM5 27h20v1h-20zM38 27h1v1h-1zM42 27h13v1h-13zM5 28h18v1h-18zM45 28h10v1h-10zM5 29h17v1h-17zM49 29h6v1h-6zM5 30h17v1h-17zM52 30h3v1h-3zM5 31h16v1h-16zM54 31h1v1h-1zM4 32h17v1h-17zM54 32h1v1h-1zM5 33h16v1h-16zM5 34h16v1h-16zM5 35h16v1h-16zM5 36h16v1h-16zM5 37h18v1h-18zM5 38h18v1h-18zM5 39h19v1h-19zM6 40h20v1h-20zM6 41h24v1h-24zM6 42h27v1h-27zM34 42h1v1h-1zM7 43h32v1h-32zM7 44h33v1h-33zM41 44h1v1h-1zM8 45h37v1h-37zM9 46h37v1h-37zM47 46h1v1h-1zM10 47h38v1h-38zM10 48h41v1h-41zM12 49h39v1h-39zM13 50h40v1h-40zM16 51h38v1h-38zM17 52h1v1h-1zM19 52h36v1h-36zM22 53h34v1h-34zM25 54h31v1h-31zM29 55h28v1h-28zM31 56h26v1h-26zM36 57h22v1h-22zM38 58h20v1h-20zM39 59h19v1h-19zM41 60h17v1h-17zM41 61h18v1h-18zM41 62h18v1h-18zM42 63h17v1h-17zM42 64h17v1h-17zM4 65h2v1h-2zM41 65h1v1h-1zM4 66h1v1h-1zM41 66h1v1h-1zM4 67h1v1h-1zM4 68h1v1h-1zM10 68h1v1h-1zM40 68h1v1h-1zM58 68h1v1h-1zM4 69h1v1h-1zM4 70h1v1h-1zM15 70h1v1h-1zM4 71h1v1h-1zM4 72h1v1h-1zM4 73h1v1h-1zM4 74h1v1h-1zM4 75h1v1h-1zM4 76h1v1h-1zM4 77h1v1h-1zM4 78h1v1h-1zM4 79h1v1h-1zM48 82h1v1h-1zM44 84h1v1h-1zM14 85h1v1h-1zM18 86h2v1h-2zM37 86h1v1h-1z" /><path fill="#9c38ff" d="M22 13h1v1h-1zM40 13h1v1h-1zM18 14h2v1h-2zM45 14h1v1h-1zM12 17h1v1h-1zM9 20h1v1h-1zM8 21h1v1h-1zM7 22h1v1h-1zM6 24h1v1h-1zM44 28h1v1h-1zM22 29h1v1h-1zM52 31h1v1h-1zM21 32h1v1h-1zM4 33h1v1h-1zM21 33h1v1h-1zM21 35h1v1h-1zM5 41h1v1h-1zM8 46h1v1h-1zM49 47h1v1h-1zM11 49h1v1h-1zM51 49h1v1h-1zM20 53h2v1h-2zM23 54h1v1h-1zM56 54h1v1h-1zM27 55h1v1h-1zM34 57h2v1h-2zM41 63h1v1h-1z" /><path fill="#9c39ff" d="M23 13h1v1h-1zM38 13h1v1h-1zM16 15h1v1h-1zM48 15h1v1h-1zM14 16h1v1h-1zM50 16h1v1h-1zM11 18h1v1h-1zM6 25h1v1h-1zM25 27h1v1h-1zM39 27h1v1h-1zM4 30h1v1h-1zM53 31h1v1h-1zM4 34h1v1h-1zM4 37h1v1h-1zM26 40h1v1h-1zM31 41h1v1h-1zM40 44h1v1h-1zM7 45h1v1h-1zM46 46h1v1h-1zM48 47h1v1h-1zM53 50h1v1h-1zM15 51h1v1h-1zM54 51h1v1h-1zM24 54h1v1h-1zM28 55h1v1h-1zM58 58h1v1h-1zM58 59h1v1h-1zM58 60h1v1h-1zM41 64h1v1h-1zM7 66h1v1h-1zM12 69h1v1h-1zM14 70h1v1h-1zM37 71h1v1h-1zM23 72h3v1h-3zM56 74h1v1h-1zM52 79h1v1h-1zM7 82h1v1h-1zM46 83h1v1h-1zM12 84h1v1h-1zM41 85h1v1h-1zM21 86h1v1h-1z" /><path fill="#9d38ff" d="M39 13h1v1h-1zM44 14h1v1h-1zM46 14h1v1h-1zM51 16h1v1h-1zM53 17h1v1h-1zM40 27h2v1h-2zM23 28h1v1h-1zM48 29h1v1h-1zM22 30h1v1h-1zM50 30h2v1h-2zM4 31h1v1h-1zM21 31h1v1h-1zM4 35h1v1h-1zM4 36h1v1h-1zM21 36h1v1h-1zM23 38h1v1h-1zM24 39h1v1h-1zM5 40h1v1h-1zM27 40h1v1h-1zM30 41h1v1h-1zM33 42h1v1h-1zM6 43h1v1h-1zM9 47h1v1h-1zM18 52h1v1h-1zM57 56h1v1h-1zM37 58h1v1h-1zM40 60h1v1h-1zM4 64h1v1h-1z" /><path fill="#9d3aff" d="M42 65h17v1h-17zM5 66h2v1h-2zM42 66h17v1h-17zM5 67h4v1h-4zM41 67h18v1h-18zM5 68h5v1h-5zM41 68h17v1h-17zM5 69h7v1h-7zM40 69h18v1h-18zM5 70h9v1h-9zM39 70h19v1h-19zM5 71h14v1h-14zM36 71h1v1h-1zM38 71h20v1h-20zM5 72h18v1h-18zM27 72h1v1h-1zM31 72h1v1h-1zM35 72h22v1h-22zM5 73h52v1h-52zM5 74h51v1h-51zM5 75h51v1h-51zM5 76h50v1h-50zM5 77h49v1h-49zM5 78h48v1h-48zM5 79h47v1h-47zM5 80h47v1h-47zM7 81h43v1h-43zM8 82h40v1h-40zM9 83h37v1h-37zM47 83h1v1h-1zM11 84h1v1h-1zM13 84h31v1h-31zM16 85h25v1h-25zM42 85h1v1h-1zM20 86h1v1h-1zM22 86h15v1h-15zM38 86h1v1h-1z" /><path fill="#e70000" d="M83 65h2v1h-2zM80 66h1v1h-1zM77 68h1v1h-1zM92 68h1v1h-1zM93 69h1v1h-1zM74 76h1v1h-1zM95 76h1v1h-1zM74 77h1v1h-1zM74 78h1v1h-1zM93 81h1v1h-1zM76 82h1v1h-1zM91 83h1v1h-1zM90 84h1v1h-1zM80 85h2v1h-2zM87 85h1v1h-1z" /><path fill="#e80000" d="M85 65h2v1h-2zM81 66h9v1h-9zM78 67h14v1h-14zM78 68h14v1h-14zM76 69h17v1h-17zM75 70h19v1h-19zM75 71h20v1h-20zM75 72h20v1h-20zM74 73h22v1h-22zM74 74h22v1h-22zM74 75h22v1h-22zM75 76h20v1h-20zM75 77h21v1h-21zM75 78h20v1h-20zM75 79h20v1h-20zM75 80h20v1h-20zM76 81h17v1h-17zM77 82h16v1h-16zM77 83h14v1h-14zM92 83h1v1h-1zM79 84h11v1h-11zM82 85h5v1h-5zM88 85h1v1h-1z" /><path fill="#9c3aff" d="M58 69h1v1h-1zM38 70h1v1h-1zM19 71h1v1h-1zM26 72h1v1h-1zM32 72h3v1h-3zM57 72h1v1h-1zM55 76h1v1h-1zM54 77h1v1h-1zM53 78h1v1h-1zM6 81h1v1h-1zM50 81h1v1h-1zM45 84h1v1h-1zM15 85h1v1h-1zM39 86h1v1h-1z" /></svg>