<svg xmlns="http://www.w3.org/2000/svg" viewBox="0 0 100 100" width="1em" height="1em"><path fill="#0188ff" d="M92 0h2v1h-2zM92 1h1v1h-1zM87 4h3v1h-3zM86 5h2v1h-2zM85 6h2v1h-2zM84 7h2v1h-2zM75 14h3v1h-3zM74 15h2v1h-2zM73 16h2v1h-2zM72 17h2v1h-2zM70 18h3v1h-3zM69 19h2v1h-2zM68 20h2v1h-2zM67 21h2v1h-2zM66 22h2v1h-2zM64 23h3v1h-3zM63 24h2v1h-2zM62 25h2v1h-2zM61 26h2v1h-2zM59 27h3v1h-3zM58 28h3v1h-3zM57 29h2v1h-2zM56 30h2v1h-2zM55 31h2v1h-2zM53 32h3v1h-3zM41 42h2v1h-2zM40 43h2v1h-2zM39 44h2v1h-2zM38 45h2v1h-2zM37 46h2v1h-2zM35 47h3v1h-3zM34 48h2v1h-2zM33 49h2v1h-2zM32 50h2v1h-2zM30 51h3v1h-3zM29 52h3v1h-3zM28 53h2v1h-2zM27 54h2v1h-2zM26 55h2v1h-2zM24 56h3v1h-3zM24 57h2v1h-2zM11 65h5v1h-5zM12 66h3v1h-3zM11 67h2v1h-2zM10 68h2v1h-2zM9 69h2v1h-2zM8 70h2v1h-2zM6 71h3v1h-3zM5 72h2v1h-2zM4 73h2v1h-2zM3 74h2v1h-2zM1 75h3v1h-3zM0 76h3v1h-3zM0 77h1v1h-1z" /><path fill="#0187ff" d="M94 0h2v1h-2zM93 1h3v1h-3zM92 2h2v1h-2zM92 3h1v1h-1zM90 4h2v1h-2zM88 5h3v1h-3zM87 6h3v1h-3zM86 7h2v1h-2zM78 14h2v1h-2zM76 15h3v1h-3zM75 16h2v1h-2zM74 17h2v1h-2zM73 18h2v1h-2zM71 19h3v1h-3zM70 20h3v1h-3zM69 21h2v1h-2zM68 22h2v1h-2zM67 23h2v1h-2zM65 24h3v1h-3zM64 25h3v1h-3zM63 26h2v1h-2zM62 27h2v1h-2zM61 28h2v1h-2zM59 29h3v1h-3zM58 30h3v1h-3zM57 31h2v1h-2zM56 32h2v1h-2zM42 43h1v1h-1zM41 44h2v1h-2zM40 45h2v1h-2zM39 46h2v1h-2zM38 47h2v1h-2zM36 48h3v1h-3zM35 49h3v1h-3zM34 50h2v1h-2zM33 51h2v1h-2zM32 52h2v1h-2zM30 53h3v1h-3zM29 54h3v1h-3zM28 55h2v1h-2zM27 56h2v1h-2zM23 57h1v1h-1zM26 57h2v1h-2zM23 58h4v1h-4zM23 59h2v1h-2zM23 60h1v1h-1zM16 65h2v1h-2zM15 66h2v1h-2zM13 67h3v1h-3zM12 68h3v1h-3zM11 69h2v1h-2zM10 70h2v1h-2zM9 71h2v1h-2zM7 72h3v1h-3zM6 73h3v1h-3zM5 74h2v1h-2zM4 75h2v1h-2zM3 76h2v1h-2zM1 77h3v1h-3zM0 78h3v1h-3zM0 79h1v1h-1z" /><path fill="#0186ff" d="M94 2h2v1h-2zM93 3h3v1h-3zM92 4h2v1h-2zM91 5h2v1h-2zM90 6h2v1h-2zM80 14h2v1h-2zM79 15h2v1h-2zM77 16h3v1h-3zM76 17h3v1h-3zM75 18h2v1h-2zM74 19h2v1h-2zM73 20h2v1h-2zM71 21h3v1h-3zM70 22h3v1h-3zM69 23h2v1h-2zM68 24h2v1h-2zM67 25h2v1h-2zM65 26h3v1h-3zM64 27h3v1h-3zM63 28h2v1h-2zM62 29h2v1h-2zM61 30h2v1h-2zM59 31h3v1h-3zM58 32h2v1h-2zM42 45h1v1h-1zM41 46h2v1h-2zM40 47h2v1h-2zM39 48h2v1h-2zM38 49h2v1h-2zM36 50h3v1h-3zM35 51h3v1h-3zM34 52h2v1h-2zM33 53h2v1h-2zM32 54h2v1h-2zM30 55h3v1h-3zM29 56h2v1h-2zM28 57h2v1h-2zM27 58h2v1h-2zM25 59h3v1h-3zM24 60h3v1h-3zM24 61h1v1h-1zM17 66h2v1h-2zM16 67h2v1h-2zM15 68h2v1h-2zM13 69h3v1h-3zM12 70h3v1h-3zM11 71h2v1h-2zM10 72h2v1h-2zM9 73h2v1h-2zM7 74h3v1h-3zM6 75h3v1h-3zM5 76h2v1h-2zM4 77h2v1h-2zM3 78h2v1h-2zM1 79h3v1h-3zM0 80h2v1h-2zM0 81h1v1h-1z" /><path fill="#018aff" d="M84 4h1v1h-1zM70 14h3v1h-3zM69 15h3v1h-3zM68 16h2v1h-2zM67 17h2v1h-2zM66 18h2v1h-2zM64 19h3v1h-3zM63 20h3v1h-3zM62 21h2v1h-2zM61 22h2v1h-2zM60 23h2v1h-2zM58 24h3v1h-3zM57 25h3v1h-3zM56 26h2v1h-2zM55 27h2v1h-2zM54 28h2v1h-2zM52 29h3v1h-3zM51 30h3v1h-3zM50 31h2v1h-2zM49 32h2v1h-2zM41 38h2v1h-2zM40 39h3v1h-3zM39 40h2v1h-2zM38 41h2v1h-2zM37 42h2v1h-2zM35 43h3v1h-3zM34 44h3v1h-3zM33 45h2v1h-2zM32 46h2v1h-2zM31 47h2v1h-2zM29 48h3v1h-3zM28 49h3v1h-3zM27 50h2v1h-2zM26 51h2v1h-2zM25 52h2v1h-2zM24 53h2v1h-2zM24 54h1v1h-1zM7 65h4v1h-4zM8 66h2v1h-2zM6 67h3v1h-3zM5 68h3v1h-3zM4 69h2v1h-2zM3 70h2v1h-2zM2 71h2v1h-2zM0 72h3v1h-3zM0 73h2v1h-2z" /><path fill="#0189ff" d="M85 4h2v1h-2zM84 5h2v1h-2zM84 6h1v1h-1zM73 14h2v1h-2zM72 15h2v1h-2zM70 16h3v1h-3zM69 17h3v1h-3zM68 18h2v1h-2zM67 19h2v1h-2zM66 20h2v1h-2zM64 21h3v1h-3zM63 22h3v1h-3zM62 23h2v1h-2zM61 24h2v1h-2zM60 25h2v1h-2zM58 26h3v1h-3zM57 27h2v1h-2zM56 28h2v1h-2zM55 29h2v1h-2zM54 30h2v1h-2zM52 31h3v1h-3zM51 32h2v1h-2zM41 40h2v1h-2zM40 41h3v1h-3zM39 42h2v1h-2zM38 43h2v1h-2zM37 44h2v1h-2zM35 45h3v1h-3zM34 46h3v1h-3zM33 47h2v1h-2zM32 48h2v1h-2zM31 49h2v1h-2zM29 50h3v1h-3zM28 51h2v1h-2zM27 52h2v1h-2zM23 53h1v1h-1zM26 53h2v1h-2zM23 54h1v1h-1zM25 54h2v1h-2zM23 55h3v1h-3zM23 56h1v1h-1zM10 66h2v1h-2zM9 67h2v1h-2zM8 68h2v1h-2zM6 69h3v1h-3zM5 70h3v1h-3zM4 71h2v1h-2zM3 72h2v1h-2zM2 73h2v1h-2zM0 74h3v1h-3zM0 75h1v1h-1z" /><path fill="#0185ff" d="M94 4h3v1h-3zM93 5h2v1h-2zM92 6h2v1h-2zM88 7h3v1h-3zM92 7h1v1h-1zM82 14h3v1h-3zM81 15h2v1h-2zM80 16h2v1h-2zM79 17h2v1h-2zM77 18h3v1h-3zM76 19h3v1h-3zM75 20h2v1h-2zM74 21h2v1h-2zM73 22h2v1h-2zM71 23h3v1h-3zM70 24h2v1h-2zM69 25h2v1h-2zM68 26h2v1h-2zM67 27h2v1h-2zM65 28h3v1h-3zM64 29h2v1h-2zM63 30h2v1h-2zM62 31h2v1h-2zM60 32h3v1h-3zM42 47h1v1h-1zM41 48h2v1h-2zM40 49h2v1h-2zM39 50h2v1h-2zM38 51h2v1h-2zM36 52h3v1h-3zM35 53h2v1h-2zM34 54h2v1h-2zM33 55h2v1h-2zM31 56h3v1h-3zM30 57h3v1h-3zM29 58h2v1h-2zM28 59h2v1h-2zM27 60h2v1h-2zM23 61h1v1h-1zM25 61h3v1h-3zM23 62h4v1h-4zM24 63h1v1h-1zM18 65h5v1h-5zM19 66h3v1h-3zM18 67h3v1h-3zM17 68h2v1h-2zM16 69h2v1h-2zM15 70h2v1h-2zM13 71h3v1h-3zM12 72h2v1h-2zM11 73h2v1h-2zM10 74h2v1h-2zM9 75h2v1h-2zM7 76h3v1h-3zM6 77h2v1h-2zM5 78h2v1h-2zM4 79h2v1h-2zM2 80h3v1h-3zM1 81h3v1h-3zM0 82h2v1h-2zM0 83h1v1h-1z" /><path fill="#0184ff" d="M97 4h2v1h-2zM95 5h3v1h-3zM94 6h3v1h-3zM91 7h1v1h-1zM93 7h2v1h-2zM92 8h2v1h-2zM92 9h1v1h-1zM85 14h2v1h-2zM83 15h3v1h-3zM82 16h2v1h-2zM81 17h2v1h-2zM80 18h2v1h-2zM79 19h2v1h-2zM77 20h3v1h-3zM76 21h2v1h-2zM75 22h2v1h-2zM74 23h2v1h-2zM72 24h3v1h-3zM71 25h3v1h-3zM70 26h2v1h-2zM69 27h2v1h-2zM68 28h2v1h-2zM66 29h3v1h-3zM65 30h3v1h-3zM64 31h2v1h-2zM63 32h2v1h-2zM42 49h1v1h-1zM41 50h2v1h-2zM40 51h2v1h-2zM39 52h2v1h-2zM37 53h3v1h-3zM36 54h3v1h-3zM35 55h2v1h-2zM34 56h2v1h-2zM33 57h2v1h-2zM31 58h3v1h-3zM30 59h3v1h-3zM29 60h2v1h-2zM28 61h2v1h-2zM27 62h2v1h-2zM23 63h1v1h-1zM25 63h3v1h-3zM23 64h3v1h-3zM24 65h1v1h-1zM22 66h2v1h-2zM21 67h2v1h-2zM19 68h3v1h-3zM18 69h2v1h-2zM17 70h2v1h-2zM16 71h2v1h-2zM14 72h3v1h-3zM13 73h3v1h-3zM12 74h2v1h-2zM11 75h2v1h-2zM10 76h2v1h-2zM8 77h3v1h-3zM7 78h3v1h-3zM6 79h2v1h-2zM5 80h2v1h-2zM4 81h2v1h-2zM2 82h3v1h-3zM1 83h3v1h-3z" /><path fill="#0183ff" d="M99 4h1v1h-1zM98 5h2v1h-2zM97 6h2v1h-2zM95 7h1v1h-1zM97 7h1v1h-1zM94 8h2v1h-2zM93 9h2v1h-2zM92 10h2v1h-2zM92 11h1v1h-1zM86 15h1v1h-1zM84 16h3v1h-3zM83 17h3v1h-3zM82 18h2v1h-2zM81 19h2v1h-2zM80 20h2v1h-2zM78 21h3v1h-3zM77 22h3v1h-3zM76 23h2v1h-2zM75 24h2v1h-2zM74 25h2v1h-2zM72 26h3v1h-3zM71 27h3v1h-3zM70 28h2v1h-2zM69 29h2v1h-2zM68 30h2v1h-2zM66 31h3v1h-3zM65 32h2v1h-2zM42 51h1v1h-1zM41 52h2v1h-2zM40 53h2v1h-2zM39 54h2v1h-2zM37 55h3v1h-3zM36 56h2v1h-2zM35 57h2v1h-2zM34 58h2v1h-2zM33 59h2v1h-2zM31 60h3v1h-3zM30 61h2v1h-2zM29 62h2v1h-2zM28 63h2v1h-2zM26 64h3v1h-3zM23 65h1v1h-1zM25 65h3v1h-3zM24 66h2v1h-2zM23 67h2v1h-2zM22 68h2v1h-2zM20 69h3v1h-3zM19 70h3v1h-3zM18 71h2v1h-2zM17 72h2v1h-2zM16 73h2v1h-2zM14 74h3v1h-3zM13 75h3v1h-3zM12 76h2v1h-2zM11 77h2v1h-2zM10 78h2v1h-2zM8 79h3v1h-3zM7 80h2v1h-2zM6 81h2v1h-2zM5 82h2v1h-2zM4 83h2v1h-2z" /><path fill="#0182ff" d="M99 6h1v1h-1zM96 7h1v1h-1zM98 7h2v1h-2zM95 9h1v1h-1zM94 10h2v1h-2zM93 11h2v1h-2zM92 12h2v1h-2zM92 13h1v1h-1zM86 17h1v1h-1zM84 18h2v1h-2zM83 19h3v1h-3zM82 20h2v1h-2zM81 21h2v1h-2zM80 22h2v1h-2zM78 23h3v1h-3zM77 24h3v1h-3zM76 25h2v1h-2zM75 26h2v1h-2zM74 27h2v1h-2zM72 28h3v1h-3zM71 29h2v1h-2zM70 30h2v1h-2zM69 31h2v1h-2zM67 32h3v1h-3zM42 53h1v1h-1zM41 54h2v1h-2zM40 55h2v1h-2zM38 56h3v1h-3zM37 57h3v1h-3zM36 58h2v1h-2zM35 59h2v1h-2zM34 60h2v1h-2zM32 61h3v1h-3zM31 62h3v1h-3zM30 63h2v1h-2zM29 64h2v1h-2zM28 65h2v1h-2zM26 66h3v1h-3zM25 67h3v1h-3zM24 68h2v1h-2zM23 69h2v1h-2zM22 70h2v1h-2zM20 71h3v1h-3zM19 72h3v1h-3zM18 73h2v1h-2zM17 74h2v1h-2zM16 75h2v1h-2zM14 76h3v1h-3zM13 77h2v1h-2zM12 78h2v1h-2zM11 79h2v1h-2zM9 80h3v1h-3zM8 81h3v1h-3zM7 82h2v1h-2zM6 83h2v1h-2z" /><path fill="#01a7ff" d="M11 8h1v1h-1z" /><path fill="#01a6ff" d="M12 8h2v1h-2zM11 9h2v1h-2zM11 10h1v1h-1z" /><path fill="#01a5ff" d="M14 8h1v1h-1zM13 9h2v1h-2zM12 10h2v1h-2zM11 11h2v1h-2zM11 12h1v1h-1z" /><path fill="#01a4ff" d="M14 10h1v1h-1zM13 11h2v1h-2zM12 12h2v1h-2zM11 13h2v1h-2zM11 14h1v1h-1z" /><path fill="#0181ff" d="M95 11h1v1h-1zM94 12h2v1h-2zM93 13h2v1h-2zM92 14h2v1h-2zM92 15h1v1h-1zM86 18h1v1h-1zM84 20h2v1h-2zM83 21h2v1h-2zM82 22h2v1h-2zM81 23h2v1h-2zM80 24h2v1h-2zM78 25h3v1h-3zM77 26h2v1h-2zM76 27h2v1h-2zM75 28h2v1h-2zM73 29h3v1h-3zM72 30h3v1h-3zM71 31h2v1h-2zM70 32h2v1h-2zM42 55h1v1h-1zM41 56h2v1h-2zM40 57h2v1h-2zM38 58h3v1h-3zM37 59h3v1h-3zM36 60h2v1h-2zM35 61h2v1h-2zM34 62h2v1h-2zM32 63h3v1h-3zM31 64h3v1h-3zM30 65h2v1h-2zM29 66h2v1h-2zM28 67h2v1h-2zM26 68h3v1h-3zM25 69h2v1h-2zM24 70h2v1h-2zM23 71h2v1h-2zM22 72h2v1h-2zM20 73h3v1h-3zM19 74h2v1h-2zM18 75h2v1h-2zM17 76h2v1h-2zM15 77h3v1h-3zM14 78h3v1h-3zM13 79h2v1h-2zM12 80h2v1h-2zM11 81h2v1h-2zM9 82h3v1h-3zM8 83h3v1h-3z" /><path fill="#01a3ff" d="M14 12h1v1h-1zM13 13h2v1h-2zM12 14h2v1h-2zM11 15h2v1h-2zM11 16h1v1h-1z" /><path fill="#0180ff" d="M95 13h1v1h-1zM94 14h2v1h-2zM93 15h2v1h-2zM86 19h1v1h-1zM86 20h1v1h-1zM85 21h1v1h-1zM84 22h2v1h-2zM83 23h2v1h-2zM82 24h2v1h-2zM81 25h2v1h-2zM79 26h3v1h-3zM78 27h3v1h-3zM77 28h2v1h-2zM76 29h2v1h-2zM75 30h2v1h-2zM73 31h3v1h-3zM72 32h3v1h-3zM42 57h1v1h-1zM41 58h2v1h-2zM40 59h2v1h-2zM38 60h3v1h-3zM37 61h2v1h-2zM36 62h2v1h-2zM35 63h2v1h-2zM34 64h2v1h-2zM32 65h3v1h-3zM31 66h2v1h-2zM30 67h2v1h-2zM29 68h2v1h-2zM27 69h3v1h-3zM26 70h3v1h-3zM25 71h2v1h-2zM24 72h2v1h-2zM23 73h2v1h-2zM21 74h3v1h-3zM20 75h3v1h-3zM19 76h2v1h-2zM18 77h2v1h-2zM17 78h2v1h-2zM15 79h3v1h-3zM14 80h3v1h-3zM13 81h2v1h-2zM12 82h2v1h-2zM11 83h2v1h-2z" /><path fill="#01a1ff" d="M14 14h1v1h-1zM14 15h1v1h-1zM13 17h1v1h-1zM12 18h2v1h-2zM11 19h2v1h-2zM11 20h1v1h-1z" /><path fill="#019fff" d="M23 14h1v1h-1zM14 18h1v1h-1zM14 19h1v1h-1zM13 21h1v1h-1zM12 22h2v1h-2zM11 23h2v1h-2zM11 24h1v1h-1z" /><path fill="#019eff" d="M24 14h2v1h-2zM24 15h1v1h-1zM14 20h1v1h-1zM14 21h1v1h-1zM14 22h1v1h-1zM13 23h2v1h-2zM12 24h2v1h-2zM11 25h2v1h-2z" /><path fill="#019dff" d="M26 14h2v1h-2zM23 15h1v1h-1zM25 15h2v1h-2zM23 16h3v1h-3zM23 17h2v1h-2zM14 24h1v1h-1zM13 25h2v1h-2zM11 26h3v1h-3zM11 27h2v1h-2z" /><path fill="#019cff" d="M28 14h3v1h-3zM27 15h2v1h-2zM26 16h2v1h-2zM25 17h2v1h-2zM24 18h2v1h-2zM24 19h1v1h-1zM14 26h1v1h-1zM13 27h2v1h-2zM11 28h3v1h-3zM11 29h2v1h-2z" /><path fill="#019bff" d="M31 14h2v1h-2zM29 15h3v1h-3zM28 16h3v1h-3zM27 17h2v1h-2zM23 18h1v1h-1zM26 18h2v1h-2zM23 19h1v1h-1zM25 19h2v1h-2zM24 20h2v1h-2zM24 21h1v1h-1zM14 28h1v1h-1zM13 29h2v1h-2zM11 30h3v1h-3zM11 31h1v1h-1z" /><path fill="#019aff" d="M33 14h2v1h-2zM32 15h2v1h-2zM31 16h2v1h-2zM29 17h3v1h-3zM28 18h2v1h-2zM27 19h2v1h-2zM23 20h1v1h-1zM26 20h2v1h-2zM23 21h1v1h-1zM25 21h2v1h-2zM23 22h3v1h-3zM23 23h1v1h-1zM12 31h2v1h-2zM11 32h3v1h-3zM11 33h1v1h-1z" /><path fill="#0199ff" d="M35 14h3v1h-3zM34 15h2v1h-2zM33 16h2v1h-2zM32 17h2v1h-2zM30 18h3v1h-3zM29 19h3v1h-3zM28 20h2v1h-2zM27 21h2v1h-2zM26 22h2v1h-2zM24 23h3v1h-3zM24 24h2v1h-2zM14 30h1v1h-1zM14 31h1v1h-1zM12 33h2v1h-2zM11 34h3v1h-3zM11 35h1v1h-1z" /><path fill="#0198ff" d="M38 14h2v1h-2zM36 15h3v1h-3zM35 16h3v1h-3zM34 17h2v1h-2zM33 18h2v1h-2zM32 19h2v1h-2zM30 20h3v1h-3zM29 21h3v1h-3zM28 22h2v1h-2zM27 23h2v1h-2zM23 24h1v1h-1zM26 24h2v1h-2zM23 25h4v1h-4zM23 26h3v1h-3zM23 27h1v1h-1zM14 32h1v1h-1zM14 33h1v1h-1zM12 35h2v1h-2zM11 36h2v1h-2zM11 37h1v1h-1z" /><path fill="#0197ff" d="M40 14h2v1h-2zM39 15h2v1h-2zM38 16h2v1h-2zM36 17h3v1h-3zM35 18h3v1h-3zM34 19h2v1h-2zM33 20h2v1h-2zM32 21h2v1h-2zM30 22h3v1h-3zM29 23h2v1h-2zM28 24h2v1h-2zM27 25h2v1h-2zM26 26h2v1h-2zM24 27h3v1h-3zM24 28h1v1h-1zM14 34h1v1h-1zM14 35h1v1h-1zM13 36h1v1h-1zM12 37h2v1h-2zM11 38h2v1h-2zM11 39h1v1h-1z" /><path fill="#0196ff" d="M42 14h3v1h-3zM41 15h2v1h-2zM40 16h2v1h-2zM39 17h2v1h-2zM38 18h2v1h-2zM36 19h3v1h-3zM35 20h2v1h-2zM34 21h2v1h-2zM33 22h2v1h-2zM31 23h3v1h-3zM30 24h3v1h-3zM29 25h2v1h-2zM28 26h2v1h-2zM27 27h2v1h-2zM23 28h1v1h-1zM25 28h3v1h-3zM23 29h4v1h-4zM23 30h2v1h-2zM23 31h1v1h-1zM14 36h1v1h-1zM14 37h1v1h-1zM13 38h2v1h-2zM12 39h2v1h-2zM11 40h2v1h-2zM11 41h1v1h-1z" /><path fill="#0195ff" d="M45 14h2v1h-2zM43 15h3v1h-3zM42 16h3v1h-3zM41 17h2v1h-2zM40 18h2v1h-2zM39 19h2v1h-2zM37 20h3v1h-3zM36 21h3v1h-3zM35 22h2v1h-2zM34 23h2v1h-2zM33 24h2v1h-2zM31 25h3v1h-3zM30 26h3v1h-3zM29 27h2v1h-2zM28 28h2v1h-2zM27 29h2v1h-2zM25 30h3v1h-3zM24 31h3v1h-3zM24 32h1v1h-1zM14 39h1v1h-1zM13 40h2v1h-2zM12 41h2v1h-2zM11 42h2v1h-2zM11 43h1v1h-1z" /><path fill="#0194ff" d="M47 14h2v1h-2zM46 15h2v1h-2zM45 16h2v1h-2zM43 17h3v1h-3zM42 18h3v1h-3zM41 19h2v1h-2zM40 20h2v1h-2zM39 21h2v1h-2zM37 22h3v1h-3zM36 23h3v1h-3zM35 24h2v1h-2zM34 25h2v1h-2zM33 26h2v1h-2zM31 27h3v1h-3zM30 28h2v1h-2zM29 29h2v1h-2zM28 30h2v1h-2zM27 31h2v1h-2zM23 32h1v1h-1zM25 32h3v1h-3zM23 33h3v1h-3zM23 34h2v1h-2zM23 35h1v1h-1zM14 41h1v1h-1zM13 42h2v1h-2zM12 43h2v1h-2zM11 44h2v1h-2zM11 45h1v1h-1z" /><path fill="#0193ff" d="M49 14h3v1h-3zM48 15h3v1h-3zM47 16h2v1h-2zM46 17h2v1h-2zM45 18h2v1h-2zM43 19h3v1h-3zM42 20h2v1h-2zM41 21h2v1h-2zM40 22h2v1h-2zM39 23h2v1h-2zM37 24h3v1h-3zM36 25h2v1h-2zM35 26h2v1h-2zM34 27h2v1h-2zM32 28h3v1h-3zM31 29h3v1h-3zM30 30h2v1h-2zM29 31h2v1h-2zM28 32h2v1h-2zM26 33h3v1h-3zM25 34h3v1h-3zM24 35h2v1h-2zM24 36h1v1h-1zM14 43h1v1h-1zM13 44h2v1h-2zM12 45h2v1h-2zM11 46h2v1h-2zM11 47h1v1h-1z" /><path fill="#0192ff" d="M52 14h2v1h-2zM51 15h2v1h-2zM49 16h3v1h-3zM48 17h2v1h-2zM47 18h2v1h-2zM46 19h2v1h-2zM44 20h3v1h-3zM43 21h3v1h-3zM42 22h2v1h-2zM41 23h2v1h-2zM40 24h2v1h-2zM38 25h3v1h-3zM37 26h3v1h-3zM36 27h2v1h-2zM35 28h2v1h-2zM34 29h2v1h-2zM32 30h3v1h-3zM31 31h3v1h-3zM30 32h2v1h-2zM29 33h2v1h-2zM28 34h2v1h-2zM26 35h3v1h-3zM23 36h1v1h-1zM25 36h2v1h-2zM23 37h3v1h-3zM23 38h2v1h-2zM23 39h1v1h-1zM13 46h1v1h-1zM12 47h2v1h-2zM11 48h2v1h-2zM11 49h1v1h-1z" /><path fill="#0191ff" d="M54 14h2v1h-2zM53 15h2v1h-2zM52 16h2v1h-2zM50 17h3v1h-3zM49 18h3v1h-3zM48 19h2v1h-2zM47 20h2v1h-2zM46 21h2v1h-2zM44 22h3v1h-3zM43 23h3v1h-3zM42 24h2v1h-2zM41 25h2v1h-2zM40 26h2v1h-2zM38 27h3v1h-3zM37 28h3v1h-3zM36 29h2v1h-2zM35 30h2v1h-2zM34 31h2v1h-2zM32 32h3v1h-3zM31 33h2v1h-2zM30 34h2v1h-2zM29 35h2v1h-2zM27 36h3v1h-3zM26 37h3v1h-3zM25 38h2v1h-2zM24 39h2v1h-2zM24 40h1v1h-1zM14 45h1v1h-1zM14 46h1v1h-1zM13 48h1v1h-1zM12 49h2v1h-2zM11 50h2v1h-2z" /><path fill="#0190ff" d="M56 14h3v1h-3zM55 15h3v1h-3zM54 16h2v1h-2zM53 17h2v1h-2zM52 18h2v1h-2zM50 19h3v1h-3zM49 20h3v1h-3zM48 21h2v1h-2zM47 22h2v1h-2zM46 23h2v1h-2zM44 24h3v1h-3zM43 25h2v1h-2zM42 26h2v1h-2zM41 27h2v1h-2zM40 28h2v1h-2zM38 29h3v1h-3zM37 30h2v1h-2zM36 31h2v1h-2zM35 32h2v1h-2zM33 33h3v1h-3zM32 34h3v1h-3zM31 35h2v1h-2zM30 36h2v1h-2zM29 37h2v1h-2zM27 38h3v1h-3zM26 39h3v1h-3zM23 40h1v1h-1zM25 40h2v1h-2zM23 41h3v1h-3zM24 42h1v1h-1zM14 47h1v1h-1zM14 48h1v1h-1zM13 50h1v1h-1zM11 51h3v1h-3z" /><path fill="#018fff" d="M59 14h2v1h-2zM58 15h2v1h-2zM56 16h3v1h-3zM55 17h2v1h-2zM54 18h2v1h-2zM53 19h2v1h-2zM52 20h2v1h-2zM50 21h3v1h-3zM49 22h2v1h-2zM48 23h2v1h-2zM47 24h2v1h-2zM45 25h3v1h-3zM44 26h3v1h-3zM43 27h2v1h-2zM42 28h2v1h-2zM41 29h2v1h-2zM39 30h3v1h-3zM38 31h3v1h-3zM37 32h2v1h-2zM36 33h2v1h-2zM35 34h2v1h-2zM33 35h3v1h-3zM32 36h3v1h-3zM31 37h2v1h-2zM30 38h2v1h-2zM29 39h2v1h-2zM27 40h3v1h-3zM26 41h2v1h-2zM23 42h1v1h-1zM25 42h2v1h-2zM23 43h3v1h-3zM23 44h2v1h-2zM23 45h1v1h-1zM14 49h1v1h-1zM14 50h1v1h-1z" /><path fill="#018eff" d="M61 14h2v1h-2zM60 15h2v1h-2zM59 16h2v1h-2zM57 17h3v1h-3zM56 18h3v1h-3zM55 19h2v1h-2zM54 20h2v1h-2zM53 21h2v1h-2zM51 22h3v1h-3zM50 23h3v1h-3zM49 24h2v1h-2zM48 25h2v1h-2zM47 26h2v1h-2zM45 27h3v1h-3zM44 28h3v1h-3zM43 29h2v1h-2zM42 30h2v1h-2zM41 31h2v1h-2zM39 32h3v1h-3zM38 33h3v1h-3zM37 34h2v1h-2zM36 35h2v1h-2zM35 36h2v1h-2zM33 37h3v1h-3zM32 38h2v1h-2zM31 39h2v1h-2zM30 40h2v1h-2zM28 41h3v1h-3zM27 42h3v1h-3zM26 43h2v1h-2zM25 44h2v1h-2zM24 45h2v1h-2zM24 46h1v1h-1zM0 66h1v1h-1z" /><path fill="#018dff" d="M63 14h3v1h-3zM62 15h3v1h-3zM61 16h2v1h-2zM60 17h2v1h-2zM59 18h2v1h-2zM57 19h3v1h-3zM56 20h3v1h-3zM55 21h2v1h-2zM54 22h2v1h-2zM53 23h2v1h-2zM51 24h3v1h-3zM50 25h3v1h-3zM49 26h2v1h-2zM48 27h2v1h-2zM47 28h2v1h-2zM45 29h3v1h-3zM44 30h2v1h-2zM43 31h2v1h-2zM42 32h2v1h-2zM41 33h2v1h-2zM39 34h3v1h-3zM38 35h2v1h-2zM37 36h2v1h-2zM36 37h2v1h-2zM34 38h3v1h-3zM33 39h3v1h-3zM32 40h2v1h-2zM31 41h2v1h-2zM30 42h2v1h-2zM28 43h3v1h-3zM27 44h3v1h-3zM26 45h2v1h-2zM23 46h1v1h-1zM25 46h2v1h-2zM23 47h3v1h-3zM23 48h2v1h-2zM23 49h1v1h-1zM0 65h4v1h-4zM1 66h2v1h-2zM0 67h2v1h-2zM0 68h1v1h-1z" /><path fill="#018cff" d="M66 14h2v1h-2zM65 15h2v1h-2zM63 16h3v1h-3zM62 17h3v1h-3zM61 18h2v1h-2zM60 19h2v1h-2zM59 20h2v1h-2zM57 21h3v1h-3zM56 22h2v1h-2zM55 23h2v1h-2zM54 24h2v1h-2zM53 25h2v1h-2zM51 26h3v1h-3zM50 27h2v1h-2zM49 28h2v1h-2zM48 29h2v1h-2zM46 30h3v1h-3zM45 31h3v1h-3zM44 32h2v1h-2zM43 33h1v1h-1zM42 34h1v1h-1zM40 35h3v1h-3zM39 36h3v1h-3zM38 37h2v1h-2zM37 38h2v1h-2zM36 39h2v1h-2zM34 40h3v1h-3zM33 41h3v1h-3zM32 42h2v1h-2zM31 43h2v1h-2zM30 44h2v1h-2zM28 45h3v1h-3zM27 46h2v1h-2zM26 47h2v1h-2zM25 48h2v1h-2zM24 49h2v1h-2zM24 50h1v1h-1zM4 65h3v1h-3zM3 66h2v1h-2zM2 67h2v1h-2zM1 68h2v1h-2zM0 69h2v1h-2z" /><path fill="#018bff" d="M68 14h2v1h-2zM67 15h2v1h-2zM66 16h2v1h-2zM65 17h2v1h-2zM63 18h3v1h-3zM62 19h2v1h-2zM61 20h2v1h-2zM60 21h2v1h-2zM58 22h3v1h-3zM57 23h3v1h-3zM56 24h2v1h-2zM55 25h2v1h-2zM54 26h2v1h-2zM52 27h3v1h-3zM51 28h3v1h-3zM50 29h2v1h-2zM49 30h2v1h-2zM48 31h2v1h-2zM46 32h3v1h-3zM42 36h1v1h-1zM40 37h3v1h-3zM39 38h2v1h-2zM38 39h2v1h-2zM37 40h2v1h-2zM36 41h2v1h-2zM34 42h3v1h-3zM33 43h2v1h-2zM32 44h2v1h-2zM31 45h2v1h-2zM29 46h3v1h-3zM28 47h3v1h-3zM27 48h2v1h-2zM26 49h2v1h-2zM23 50h1v1h-1zM25 50h2v1h-2zM23 51h3v1h-3zM23 52h2v1h-2zM5 66h3v1h-3zM4 67h2v1h-2zM3 68h2v1h-2zM2 69h2v1h-2zM0 70h3v1h-3zM0 71h2v1h-2z" /><path fill="#01a2ff" d="M13 15h1v1h-1zM12 16h2v1h-2zM11 17h2v1h-2zM11 18h1v1h-1z" /><path fill="#017eff" d="M95 15h1v1h-1zM86 23h1v1h-1zM86 24h1v1h-1zM85 25h1v1h-1zM84 26h2v1h-2zM83 27h2v1h-2zM82 28h2v1h-2zM81 29h2v1h-2zM79 30h3v1h-3zM78 31h2v1h-2zM77 32h2v1h-2zM42 61h1v1h-1zM41 62h2v1h-2zM39 63h3v1h-3zM38 64h3v1h-3zM37 65h2v1h-2zM36 66h2v1h-2zM35 67h2v1h-2zM33 68h3v1h-3zM32 69h3v1h-3zM31 70h2v1h-2zM30 71h2v1h-2zM29 72h2v1h-2zM27 73h3v1h-3zM26 74h2v1h-2zM25 75h2v1h-2zM24 76h2v1h-2zM22 77h3v1h-3zM21 78h3v1h-3zM20 79h2v1h-2zM19 80h2v1h-2zM18 81h2v1h-2zM16 82h3v1h-3zM15 83h3v1h-3z" /><path fill="#01a0ff" d="M14 16h1v1h-1zM14 17h1v1h-1zM13 19h1v1h-1zM12 20h2v1h-2zM11 21h2v1h-2zM11 22h1v1h-1z" /><path fill="#017fff" d="M86 21h1v1h-1zM86 22h1v1h-1zM85 23h1v1h-1zM84 24h2v1h-2zM83 25h2v1h-2zM82 26h2v1h-2zM81 27h2v1h-2zM79 28h3v1h-3zM78 29h3v1h-3zM77 30h2v1h-2zM76 31h2v1h-2zM75 32h2v1h-2zM42 59h1v1h-1zM41 60h2v1h-2zM39 61h3v1h-3zM38 62h3v1h-3zM37 63h2v1h-2zM36 64h2v1h-2zM35 65h2v1h-2zM33 66h3v1h-3zM32 67h3v1h-3zM31 68h2v1h-2zM30 69h2v1h-2zM29 70h2v1h-2zM27 71h3v1h-3zM26 72h3v1h-3zM25 73h2v1h-2zM24 74h2v1h-2zM23 75h2v1h-2zM21 76h3v1h-3zM20 77h2v1h-2zM19 78h2v1h-2zM18 79h2v1h-2zM17 80h2v1h-2zM15 81h3v1h-3zM14 82h2v1h-2zM13 83h2v1h-2z" /><path fill="#017dff" d="M86 25h1v1h-1zM85 27h1v1h-1zM84 28h2v1h-2zM83 29h2v1h-2zM82 30h2v1h-2zM80 31h3v1h-3zM79 32h3v1h-3zM54 54h1v1h-1zM42 63h1v1h-1zM41 64h2v1h-2zM39 65h3v1h-3zM38 66h2v1h-2zM37 67h2v1h-2zM36 68h2v1h-2zM35 69h2v1h-2zM33 70h3v1h-3zM32 71h2v1h-2zM31 72h2v1h-2zM30 73h2v1h-2zM28 74h3v1h-3zM27 75h3v1h-3zM26 76h2v1h-2zM25 77h2v1h-2zM24 78h2v1h-2zM22 79h3v1h-3zM21 80h3v1h-3zM20 81h2v1h-2zM19 82h2v1h-2zM18 83h2v1h-2z" /><path fill="#017cff" d="M86 26h1v1h-1zM86 27h1v1h-1zM86 28h1v1h-1zM85 29h2v1h-2zM84 30h2v1h-2zM83 31h2v1h-2zM82 32h2v1h-2zM55 54h2v1h-2zM55 55h1v1h-1zM42 65h1v1h-1zM40 66h3v1h-3zM39 67h3v1h-3zM38 68h2v1h-2zM37 69h2v1h-2zM36 70h2v1h-2zM34 71h3v1h-3zM33 72h3v1h-3zM32 73h2v1h-2zM31 74h2v1h-2zM30 75h2v1h-2zM28 76h3v1h-3zM27 77h3v1h-3zM26 78h2v1h-2zM25 79h2v1h-2zM24 80h2v1h-2zM22 81h3v1h-3zM21 82h2v1h-2zM20 83h2v1h-2z" /><path fill="#017bff" d="M86 30h1v1h-1zM85 31h2v1h-2zM84 32h2v1h-2zM54 55h1v1h-1zM56 55h2v1h-2zM54 56h3v1h-3zM54 57h2v1h-2zM54 58h1v1h-1zM42 67h1v1h-1zM40 68h3v1h-3zM39 69h3v1h-3zM38 70h2v1h-2zM37 71h2v1h-2zM36 72h2v1h-2zM34 73h3v1h-3zM33 74h3v1h-3zM32 75h2v1h-2zM31 76h2v1h-2zM30 77h2v1h-2zM28 78h3v1h-3zM27 79h2v1h-2zM26 80h2v1h-2zM25 81h2v1h-2zM23 82h3v1h-3zM22 83h3v1h-3z" /><path fill="#017aff" d="M86 32h1v1h-1zM57 54h3v1h-3zM58 55h3v1h-3zM57 56h3v1h-3zM56 57h2v1h-2zM55 58h2v1h-2zM54 59h2v1h-2zM54 60h1v1h-1zM42 69h1v1h-1zM40 70h3v1h-3zM39 71h2v1h-2zM38 72h2v1h-2zM37 73h2v1h-2zM36 74h2v1h-2zM34 75h3v1h-3zM33 76h2v1h-2zM32 77h2v1h-2zM31 78h2v1h-2zM29 79h3v1h-3zM28 80h3v1h-3zM27 81h2v1h-2zM26 82h2v1h-2zM25 83h2v1h-2z" /><path fill="#0179ff" d="M60 54h4v1h-4zM61 55h2v1h-2zM60 56h2v1h-2zM58 57h3v1h-3zM57 58h3v1h-3zM56 59h2v1h-2zM55 60h2v1h-2zM55 61h1v1h-1zM41 71h2v1h-2zM40 72h3v1h-3zM39 73h2v1h-2zM38 74h2v1h-2zM37 75h2v1h-2zM35 76h3v1h-3zM34 77h3v1h-3zM33 78h2v1h-2zM32 79h2v1h-2zM31 80h2v1h-2zM29 81h3v1h-3zM28 82h3v1h-3zM27 83h2v1h-2z" /><path fill="#0178ff" d="M64 54h3v1h-3zM63 55h2v1h-2zM62 56h2v1h-2zM61 57h2v1h-2zM60 58h2v1h-2zM58 59h3v1h-3zM57 60h2v1h-2zM54 61h1v1h-1zM56 61h2v1h-2zM54 62h3v1h-3zM55 63h1v1h-1zM41 73h2v1h-2zM40 74h3v1h-3zM39 75h2v1h-2zM38 76h2v1h-2zM37 77h2v1h-2zM35 78h3v1h-3zM34 79h2v1h-2zM33 80h2v1h-2zM32 81h2v1h-2zM31 82h2v1h-2zM29 83h3v1h-3z" /><path fill="#0176ff" d="M67 54h4v1h-4zM68 55h2v1h-2zM67 56h2v1h-2zM65 57h3v1h-3zM64 58h3v1h-3zM63 59h2v1h-2zM62 60h2v1h-2zM61 61h2v1h-2zM59 62h3v1h-3zM58 63h3v1h-3zM57 64h2v1h-2zM56 65h2v1h-2zM55 66h2v1h-2zM54 67h2v1h-2zM42 76h1v1h-1zM41 77h2v1h-2zM40 78h2v1h-2zM39 79h2v1h-2zM38 80h2v1h-2zM36 81h3v1h-3zM35 82h3v1h-3zM34 83h2v1h-2z" /><path fill="#0175ff" d="M71 54h3v1h-3zM70 55h3v1h-3zM69 56h2v1h-2zM68 57h2v1h-2zM67 58h2v1h-2zM65 59h3v1h-3zM64 60h2v1h-2zM63 61h2v1h-2zM62 62h2v1h-2zM61 63h2v1h-2zM59 64h3v1h-3zM58 65h2v1h-2zM57 66h2v1h-2zM56 67h2v1h-2zM55 68h2v1h-2zM55 69h1v1h-1zM42 78h1v1h-1zM41 79h2v1h-2zM40 80h2v1h-2zM39 81h2v1h-2zM38 82h2v1h-2zM36 83h3v1h-3z" /><path fill="#0173ff" d="M74 54h2v1h-2zM75 55h2v1h-2zM74 56h2v1h-2zM72 57h3v1h-3zM71 58h3v1h-3zM70 59h2v1h-2zM69 60h2v1h-2zM68 61h2v1h-2zM66 62h3v1h-3zM65 63h3v1h-3zM64 64h2v1h-2zM63 65h2v1h-2zM62 66h2v1h-2zM60 67h3v1h-3zM59 68h3v1h-3zM58 69h2v1h-2zM57 70h2v1h-2zM56 71h2v1h-2zM54 72h3v1h-3zM54 73h1v1h-1zM42 82h1v1h-1zM41 83h2v1h-2z" /><path fill="#0172ff" d="M76 54h5v1h-5zM77 55h3v1h-3zM76 56h2v1h-2zM75 57h2v1h-2zM72 59h2v1h-2zM71 60h3v1h-3zM70 61h2v1h-2zM69 62h2v1h-2zM68 63h2v1h-2zM66 64h3v1h-3zM65 65h2v1h-2zM64 66h2v1h-2zM63 67h2v1h-2zM62 68h2v1h-2zM60 69h3v1h-3zM59 70h2v1h-2zM58 71h2v1h-2zM57 72h2v1h-2zM55 73h3v1h-3zM55 74h2v1h-2z" /><path fill="#0171ff" d="M81 54h2v1h-2zM80 55h2v1h-2zM78 56h3v1h-3zM77 57h2v1h-2zM72 61h2v1h-2zM71 62h2v1h-2zM70 63h2v1h-2zM69 64h2v1h-2zM67 65h3v1h-3zM66 66h3v1h-3zM65 67h2v1h-2zM64 68h2v1h-2zM63 69h2v1h-2zM61 70h3v1h-3zM60 71h3v1h-3zM59 72h2v1h-2zM58 73h2v1h-2zM54 74h1v1h-1zM57 74h2v1h-2zM54 75h4v1h-4zM55 76h2v1h-2z" /><path fill="#016fff" d="M83 54h2v1h-2zM84 55h3v1h-3zM83 56h2v1h-2zM82 57h2v1h-2zM73 64h1v1h-1zM72 65h2v1h-2zM71 66h2v1h-2zM70 67h2v1h-2zM69 68h2v1h-2zM67 69h3v1h-3zM66 70h2v1h-2zM65 71h2v1h-2zM64 72h2v1h-2zM62 73h3v1h-3zM61 74h3v1h-3zM60 75h2v1h-2zM59 76h2v1h-2zM58 77h2v1h-2zM56 78h3v1h-3zM55 79h3v1h-3zM54 80h2v1h-2zM54 81h1v1h-1z" /><path fill="#016eff" d="M85 54h5v1h-5zM87 55h2v1h-2zM85 56h3v1h-3zM84 57h3v1h-3zM73 66h1v1h-1zM72 67h2v1h-2zM71 68h2v1h-2zM70 69h2v1h-2zM68 70h3v1h-3zM67 71h3v1h-3zM66 72h2v1h-2zM65 73h2v1h-2zM64 74h2v1h-2zM62 75h3v1h-3zM61 76h3v1h-3zM60 77h2v1h-2zM59 78h2v1h-2zM58 79h2v1h-2zM56 80h3v1h-3zM55 81h3v1h-3zM55 82h1v1h-1z" /><path fill="#016dff" d="M90 54h2v1h-2zM89 55h2v1h-2zM88 56h2v1h-2zM87 57h2v1h-2zM73 68h1v1h-1zM72 69h2v1h-2zM71 70h2v1h-2zM70 71h2v1h-2zM68 72h3v1h-3zM67 73h3v1h-3zM66 74h2v1h-2zM65 75h2v1h-2zM64 76h2v1h-2zM62 77h3v1h-3zM61 78h2v1h-2zM60 79h2v1h-2zM59 80h2v1h-2zM58 81h2v1h-2zM54 82h1v1h-1zM56 82h3v1h-3zM54 83h3v1h-3zM55 84h1v1h-1z" /><path fill="#016bff" d="M92 54h3v1h-3zM94 55h2v1h-2zM92 56h3v1h-3zM91 57h3v1h-3zM73 72h1v1h-1zM72 73h2v1h-2zM71 74h2v1h-2zM69 75h3v1h-3zM68 76h3v1h-3zM67 77h2v1h-2zM66 78h2v1h-2zM65 79h2v1h-2zM63 80h3v1h-3zM62 81h3v1h-3zM61 82h2v1h-2zM60 83h2v1h-2zM59 84h2v1h-2zM57 85h3v1h-3zM56 86h3v1h-3zM55 87h2v1h-2zM54 88h2v1h-2zM54 89h1v1h-1z" /><path fill="#016aff" d="M95 54h4v1h-4zM96 55h2v1h-2zM95 56h2v1h-2zM94 57h2v1h-2zM73 74h1v1h-1zM72 75h2v1h-2zM71 76h2v1h-2zM69 77h3v1h-3zM68 78h3v1h-3zM67 79h2v1h-2zM66 80h2v1h-2zM65 81h2v1h-2zM63 82h3v1h-3zM62 83h2v1h-2zM61 84h2v1h-2zM60 85h2v1h-2zM59 86h2v1h-2zM57 87h3v1h-3zM56 88h2v1h-2zM55 89h2v1h-2zM55 90h1v1h-1z" /><path fill="#0169ff" d="M99 54h1v1h-1zM98 55h1v1h-1zM97 56h2v1h-2zM96 57h2v1h-2zM73 76h1v1h-1zM72 77h2v1h-2zM71 78h2v1h-2zM69 79h3v1h-3zM68 80h2v1h-2zM67 81h2v1h-2zM66 82h2v1h-2zM64 83h3v1h-3zM63 84h3v1h-3zM62 85h2v1h-2zM61 86h2v1h-2zM60 87h2v1h-2zM58 88h3v1h-3zM57 89h3v1h-3zM54 90h1v1h-1zM56 90h2v1h-2zM54 91h3v1h-3zM55 92h1v1h-1z" /><path fill="#0177ff" d="M65 55h3v1h-3zM64 56h3v1h-3zM63 57h2v1h-2zM62 58h2v1h-2zM61 59h2v1h-2zM59 60h3v1h-3zM58 61h3v1h-3zM57 62h2v1h-2zM54 63h1v1h-1zM56 63h2v1h-2zM54 64h3v1h-3zM54 65h2v1h-2zM54 66h1v1h-1zM41 75h2v1h-2zM40 76h2v1h-2zM39 77h2v1h-2zM38 78h2v1h-2zM36 79h3v1h-3zM35 80h3v1h-3zM34 81h2v1h-2zM33 82h2v1h-2zM32 83h2v1h-2z" /><path fill="#0174ff" d="M73 55h2v1h-2zM71 56h3v1h-3zM70 57h2v1h-2zM69 58h2v1h-2zM68 59h2v1h-2zM66 60h3v1h-3zM65 61h3v1h-3zM64 62h2v1h-2zM63 63h2v1h-2zM62 64h2v1h-2zM60 65h3v1h-3zM59 66h3v1h-3zM58 67h2v1h-2zM54 68h1v1h-1zM57 68h2v1h-2zM54 69h1v1h-1zM56 69h2v1h-2zM54 70h3v1h-3zM54 71h2v1h-2zM42 80h1v1h-1zM41 81h2v1h-2zM40 82h2v1h-2zM39 83h2v1h-2z" /><path fill="#0170ff" d="M82 55h2v1h-2zM81 56h2v1h-2zM79 57h3v1h-3zM73 62h1v1h-1zM72 63h2v1h-2zM71 64h2v1h-2zM70 65h2v1h-2zM69 66h2v1h-2zM67 67h3v1h-3zM66 68h3v1h-3zM65 69h2v1h-2zM64 70h2v1h-2zM63 71h2v1h-2zM61 72h3v1h-3zM60 73h2v1h-2zM59 74h2v1h-2zM58 75h2v1h-2zM54 76h1v1h-1zM57 76h2v1h-2zM54 77h4v1h-4zM54 78h2v1h-2zM54 79h1v1h-1z" /><path fill="#016cff" d="M91 55h3v1h-3zM90 56h2v1h-2zM89 57h2v1h-2zM73 70h1v1h-1zM72 71h2v1h-2zM71 72h2v1h-2zM70 73h2v1h-2zM68 74h3v1h-3zM67 75h2v1h-2zM66 76h2v1h-2zM65 77h2v1h-2zM63 78h3v1h-3zM62 79h3v1h-3zM61 80h2v1h-2zM60 81h2v1h-2zM59 82h2v1h-2zM57 83h3v1h-3zM54 84h1v1h-1zM56 84h3v1h-3zM54 85h3v1h-3zM54 86h2v1h-2zM54 87h1v1h-1z" /><path fill="#0168ff" d="M99 55h1v1h-1zM98 57h1v1h-1zM73 78h1v1h-1zM72 79h2v1h-2zM70 80h3v1h-3zM69 81h3v1h-3zM68 82h2v1h-2zM67 83h2v1h-2zM66 84h2v1h-2zM64 85h3v1h-3zM63 86h3v1h-3zM62 87h2v1h-2zM61 88h2v1h-2zM60 89h2v1h-2zM58 90h3v1h-3zM57 91h3v1h-3zM54 92h1v1h-1zM56 92h2v1h-2zM54 93h3v1h-3zM54 94h2v1h-2zM54 95h1v1h-1z" /><path fill="#0167ff" d="M99 56h1v1h-1zM99 57h1v1h-1zM73 80h1v1h-1zM72 81h2v1h-2zM70 82h3v1h-3zM69 83h3v1h-3zM68 84h2v1h-2zM67 85h2v1h-2zM66 86h2v1h-2zM64 87h3v1h-3zM63 88h2v1h-2zM62 89h2v1h-2zM61 90h2v1h-2zM60 91h2v1h-2zM58 92h3v1h-3zM57 93h2v1h-2zM56 94h2v1h-2zM55 95h2v1h-2zM54 96h2v1h-2zM54 97h1v1h-1z" /><path fill="#0166ff" d="M73 82h1v1h-1zM72 83h2v1h-2zM70 84h3v1h-3zM69 85h2v1h-2zM68 86h2v1h-2zM67 87h2v1h-2zM65 88h3v1h-3zM64 89h3v1h-3zM63 90h2v1h-2zM62 91h2v1h-2zM61 92h2v1h-2zM59 93h3v1h-3zM58 94h3v1h-3zM57 95h2v1h-2zM56 96h2v1h-2zM55 97h2v1h-2z" /><path fill="#0165ff" d="M73 84h1v1h-1zM71 85h3v1h-3zM70 86h3v1h-3zM69 87h2v1h-2zM68 88h2v1h-2zM67 89h2v1h-2zM65 90h3v1h-3zM64 91h3v1h-3zM63 92h2v1h-2zM62 93h2v1h-2zM61 94h2v1h-2zM59 95h3v1h-3zM58 96h2v1h-2zM57 97h2v1h-2z" /><path fill="#0164ff" d="M73 86h1v1h-1zM71 87h3v1h-3zM70 88h3v1h-3zM69 89h2v1h-2zM68 90h2v1h-2zM67 91h2v1h-2zM65 92h3v1h-3zM64 93h2v1h-2zM63 94h2v1h-2zM62 95h2v1h-2zM60 96h3v1h-3zM59 97h3v1h-3z" /><path fill="#0163ff" d="M73 88h1v1h-1zM71 89h3v1h-3zM70 90h2v1h-2zM69 91h2v1h-2zM68 92h2v1h-2zM66 93h3v1h-3zM65 94h3v1h-3zM64 95h2v1h-2zM63 96h2v1h-2zM62 97h2v1h-2z" /><path fill="#0162ff" d="M72 90h2v1h-2zM71 91h3v1h-3zM70 92h2v1h-2zM69 93h2v1h-2zM68 94h2v1h-2zM66 95h3v1h-3zM65 96h3v1h-3zM64 97h2v1h-2z" /><path fill="#0161ff" d="M72 92h2v1h-2zM71 93h2v1h-2zM70 94h2v1h-2zM69 95h2v1h-2zM68 96h2v1h-2zM66 97h3v1h-3z" /><path fill="#0160ff" d="M73 93h1v1h-1zM72 94h2v1h-2zM71 95h3v1h-3zM70 96h4v1h-4zM69 97h5v1h-5z" /></svg>