<svg xmlns="http://www.w3.org/2000/svg" viewBox="0 0 100 100" width="1em" height="1em"><path fill="#0ab2ae" d="M10 0h1v1h-1zM12 0h1v1h-1zM8 4h1v1h-1zM92 5h1v1h-1zM92 6h1v1h-1zM92 7h1v1h-1zM92 8h1v1h-1zM92 9h1v1h-1zM92 10h1v1h-1zM92 11h1v1h-1zM92 12h1v1h-1zM92 13h1v1h-1zM92 14h1v1h-1zM92 15h1v1h-1zM92 16h1v1h-1zM92 17h1v1h-1zM92 18h1v1h-1zM92 19h1v1h-1zM92 20h1v1h-1zM92 21h1v1h-1zM92 22h1v1h-1zM92 23h1v1h-1zM92 24h1v1h-1zM92 25h1v1h-1zM92 26h1v1h-1zM92 27h1v1h-1zM92 28h1v1h-1zM92 29h1v1h-1zM92 30h1v1h-1zM92 31h1v1h-1zM92 32h1v1h-1zM92 33h1v1h-1zM92 34h1v1h-1zM92 35h1v1h-1zM92 36h1v1h-1zM92 37h1v1h-1zM92 38h1v1h-1zM92 39h1v1h-1zM92 40h1v1h-1zM92 41h1v1h-1zM92 42h1v1h-1zM92 43h1v1h-1zM92 44h1v1h-1zM92 45h1v1h-1zM92 46h1v1h-1zM92 47h1v1h-1zM92 48h1v1h-1zM92 49h1v1h-1zM92 50h1v1h-1zM92 51h1v1h-1zM92 52h1v1h-1zM92 53h1v1h-1zM92 54h1v1h-1zM92 55h1v1h-1zM92 56h1v1h-1zM92 57h1v1h-1zM92 58h1v1h-1zM92 59h1v1h-1zM92 60h1v1h-1zM92 61h1v1h-1zM92 62h1v1h-1zM92 63h1v1h-1zM92 64h1v1h-1zM92 65h1v1h-1zM92 66h1v1h-1zM92 67h1v1h-1zM92 68h1v1h-1zM92 69h1v1h-1zM92 70h1v1h-1zM92 71h1v1h-1zM92 72h1v1h-1zM92 73h1v1h-1zM92 74h1v1h-1zM92 75h1v1h-1zM92 76h1v1h-1zM92 77h1v1h-1zM92 78h1v1h-1zM92 79h1v1h-1zM92 80h1v1h-1zM32 89h1v1h-1z" /><path fill="#0ab2af" d="M11 0h1v1h-1zM89 0h1v1h-1zM8 2h1v1h-1zM92 2h1v1h-1zM92 82h1v1h-1zM11 84h13v1h-13zM38 84h51v1h-51zM34 87h1v1h-1zM30 92h1v1h-1zM25 97h1v1h-1z" /><path fill="#0ab3af" d="M13 0h76v1h-76zM10 1h81v1h-81zM9 2h83v1h-83zM9 3h83v1h-83zM9 4h83v1h-83zM8 5h84v1h-84zM8 6h84v1h-84zM8 7h84v1h-84zM8 8h84v1h-84zM8 9h84v1h-84zM8 10h84v1h-84zM8 11h84v1h-84zM8 12h84v1h-84zM8 13h84v1h-84zM8 14h84v1h-84zM8 15h15v1h-15zM66 15h26v1h-26zM8 16h15v1h-15zM69 16h23v1h-23zM8 17h15v1h-15zM70 17h22v1h-22zM8 18h15v1h-15zM71 18h21v1h-21zM8 19h15v1h-15zM72 19h20v1h-20zM8 20h15v1h-15zM73 20h19v1h-19zM8 21h15v1h-15zM74 21h18v1h-18zM8 22h15v1h-15zM74 22h18v1h-18zM8 23h15v1h-15zM75 23h17v1h-17zM8 24h15v1h-15zM75 24h17v1h-17zM8 25h15v1h-15zM75 25h17v1h-17zM8 26h15v1h-15zM76 26h16v1h-16zM8 27h15v1h-15zM76 27h16v1h-16zM8 28h15v1h-15zM38 28h19v1h-19zM76 28h16v1h-16zM8 29h15v1h-15zM38 29h20v1h-20zM76 29h16v1h-16zM8 30h15v1h-15zM38 30h21v1h-21zM76 30h16v1h-16zM8 31h15v1h-15zM38 31h21v1h-21zM76 31h16v1h-16zM8 32h15v1h-15zM38 32h21v1h-21zM76 32h16v1h-16zM8 33h15v1h-15zM38 33h20v1h-20zM75 33h17v1h-17zM8 34h15v1h-15zM38 34h19v1h-19zM75 34h17v1h-17zM8 35h15v1h-15zM75 35h17v1h-17zM8 36h15v1h-15zM74 36h18v1h-18zM8 37h15v1h-15zM74 37h18v1h-18zM8 38h15v1h-15zM73 38h19v1h-19zM8 39h15v1h-15zM72 39h20v1h-20zM8 40h15v1h-15zM71 40h21v1h-21zM8 41h15v1h-15zM70 41h22v1h-22zM8 42h15v1h-15zM71 42h21v1h-21zM8 43h15v1h-15zM72 43h20v1h-20zM8 44h15v1h-15zM74 44h18v1h-18zM8 45h15v1h-15zM75 45h17v1h-17zM8 46h15v1h-15zM76 46h16v1h-16zM8 47h15v1h-15zM38 47h21v1h-21zM76 47h16v1h-16zM8 48h15v1h-15zM38 48h22v1h-22zM77 48h15v1h-15zM8 49h15v1h-15zM38 49h22v1h-22zM77 49h15v1h-15zM8 50h15v1h-15zM38 50h22v1h-22zM77 50h15v1h-15zM8 51h15v1h-15zM38 51h23v1h-23zM78 51h14v1h-14zM8 52h15v1h-15zM38 52h22v1h-22zM78 52h14v1h-14zM8 53h15v1h-15zM38 53h22v1h-22zM78 53h14v1h-14zM8 54h15v1h-15zM38 54h20v1h-20zM78 54h14v1h-14zM8 55h15v1h-15zM78 55h14v1h-14zM8 56h15v1h-15zM78 56h14v1h-14zM8 57h15v1h-15zM78 57h14v1h-14zM8 58h15v1h-15zM78 58h14v1h-14zM8 59h15v1h-15zM78 59h14v1h-14zM8 60h15v1h-15zM77 60h15v1h-15zM8 61h15v1h-15zM77 61h15v1h-15zM8 62h15v1h-15zM77 62h15v1h-15zM8 63h15v1h-15zM76 63h16v1h-16zM8 64h15v1h-15zM75 64h17v1h-17zM8 65h15v1h-15zM74 65h18v1h-18zM8 66h15v1h-15zM73 66h19v1h-19zM8 67h15v1h-15zM71 67h21v1h-21zM8 68h15v1h-15zM69 68h23v1h-23zM8 69h15v1h-15zM66 69h26v1h-26zM8 70h15v1h-15zM61 70h31v1h-31zM8 71h84v1h-84zM8 72h84v1h-84zM8 73h84v1h-84zM8 74h84v1h-84zM8 75h84v1h-84zM8 76h84v1h-84zM8 77h84v1h-84zM8 78h84v1h-84zM8 79h84v1h-84zM8 80h84v1h-84zM9 81h83v1h-83zM9 82h83v1h-83zM9 83h82v1h-82zM24 84h13v1h-13zM24 85h12v1h-12zM24 86h11v1h-11zM24 87h10v1h-10zM24 88h10v1h-10zM24 89h8v1h-8zM24 90h8v1h-8zM24 91h7v1h-7zM24 92h6v1h-6zM24 93h6v1h-6zM24 94h4v1h-4zM24 95h4v1h-4zM24 96h2v1h-2zM24 97h1v1h-1z" /><path fill="#09b2af" d="M90 0h1v1h-1zM9 1h1v1h-1zM8 3h1v1h-1zM8 81h1v1h-1zM91 83h1v1h-1z" /><path fill="#0ab3ae" d="M91 1h1v1h-1zM92 81h1v1h-1zM24 98h1v1h-1z" /><path fill="#09b2ae" d="M92 3h1v1h-1zM92 4h1v1h-1zM89 84h2v1h-2zM35 86h1v1h-1zM26 96h1v1h-1z" /><path fill="#2ebebb" d="M23 15h1v1h-1z" /><path fill="#6cd1cf" d="M24 15h39v1h-39z" /><path fill="#68d0ce" d="M63 15h1v1h-1z" /><path fill="#53cac7" d="M64 15h1v1h-1z" /><path fill="#29bdb9" d="M65 15h1v1h-1zM59 70h1v1h-1z" /><path fill="#62cecc" d="M23 16h1v1h-1zM23 17h1v1h-1zM23 18h1v1h-1zM23 19h1v1h-1zM23 20h1v1h-1zM23 21h1v1h-1zM23 22h1v1h-1zM23 23h1v1h-1zM23 24h1v1h-1zM23 25h1v1h-1zM23 26h1v1h-1zM23 27h1v1h-1zM23 28h1v1h-1zM23 29h1v1h-1zM23 30h1v1h-1zM23 31h1v1h-1zM23 32h1v1h-1zM23 33h1v1h-1zM23 34h1v1h-1zM23 35h1v1h-1zM23 36h1v1h-1zM23 37h1v1h-1zM23 38h1v1h-1zM23 39h1v1h-1zM23 40h1v1h-1zM23 41h1v1h-1zM23 42h1v1h-1zM23 43h1v1h-1zM23 44h1v1h-1zM23 45h1v1h-1zM23 46h1v1h-1zM58 46h1v1h-1zM23 47h1v1h-1zM23 48h1v1h-1zM23 49h1v1h-1zM23 50h1v1h-1zM23 51h1v1h-1zM23 52h1v1h-1zM23 53h1v1h-1zM23 54h1v1h-1zM23 55h1v1h-1zM23 56h1v1h-1zM23 57h1v1h-1zM23 58h1v1h-1zM77 58h1v1h-1zM23 59h1v1h-1zM23 60h1v1h-1zM23 61h1v1h-1zM23 62h1v1h-1zM23 63h1v1h-1zM23 64h1v1h-1zM23 65h1v1h-1zM23 66h1v1h-1zM23 67h1v1h-1zM23 68h1v1h-1zM23 69h1v1h-1z" /><path fill="#ffffff" d="M24 16h42v1h-42zM24 17h44v1h-44zM24 18h45v1h-45zM24 19h47v1h-47zM24 20h48v1h-48zM24 21h48v1h-48zM24 22h49v1h-49zM24 23h49v1h-49zM24 24h50v1h-50zM24 25h50v1h-50zM24 26h50v1h-50zM24 27h13v1h-13zM58 27h17v1h-17zM24 28h13v1h-13zM59 28h16v1h-16zM24 29h13v1h-13zM59 29h16v1h-16zM24 30h13v1h-13zM60 30h15v1h-15zM24 31h13v1h-13zM60 31h15v1h-15zM24 32h13v1h-13zM60 32h14v1h-14zM24 33h13v1h-13zM60 33h14v1h-14zM24 34h13v1h-13zM59 34h15v1h-15zM24 35h13v1h-13zM58 35h15v1h-15zM24 36h49v1h-49zM24 37h48v1h-48zM24 38h47v1h-47zM24 39h46v1h-46zM24 40h45v1h-45zM24 41h43v1h-43zM24 42h43v1h-43zM24 43h46v1h-46zM24 44h48v1h-48zM24 45h49v1h-49zM24 46h13v1h-13zM60 46h14v1h-14zM24 47h13v1h-13zM61 47h14v1h-14zM24 48h13v1h-13zM61 48h14v1h-14zM24 49h13v1h-13zM61 49h15v1h-15zM24 50h13v1h-13zM62 50h14v1h-14zM24 51h13v1h-13zM62 51h15v1h-15zM24 52h13v1h-13zM61 52h16v1h-16zM24 53h13v1h-13zM61 53h16v1h-16zM24 54h13v1h-13zM60 54h17v1h-17zM24 55h13v1h-13zM59 55h18v1h-18zM24 56h53v1h-53zM24 57h53v1h-53zM24 58h53v1h-53zM24 59h53v1h-53zM24 60h52v1h-52zM24 61h52v1h-52zM24 62h51v1h-51zM24 63h50v1h-50zM24 64h49v1h-49zM24 65h48v1h-48zM24 66h46v1h-46zM24 67h45v1h-45zM24 68h42v1h-42zM24 69h37v1h-37z" /><path fill="#d9f3f2" d="M66 16h1v1h-1z" /><path fill="#76d4d2" d="M67 16h1v1h-1z" /><path fill="#13b6b2" d="M68 16h1v1h-1z" /><path fill="#dff5f5" d="M68 17h1v1h-1z" /><path fill="#49c7c4" d="M69 17h1v1h-1z" /><path fill="#feffff" d="M69 18h1v1h-1zM70 66h1v1h-1z" /><path fill="#82d8d6" d="M70 18h1v1h-1z" /><path fill="#8fdcda" d="M71 19h1v1h-1z" /><path fill="#6ad1ce" d="M72 20h1v1h-1z" /><path fill="#f4fcfc" d="M72 21h1v1h-1zM71 38h1v1h-1zM75 48h1v1h-1zM61 50h1v1h-1zM61 51h1v1h-1z" /><path fill="#2dbeba" d="M73 21h1v1h-1zM57 46h1v1h-1z" /><path fill="#ace5e4" d="M73 22h1v1h-1zM60 53h1v1h-1z" /><path fill="#fcfefe" d="M73 23h1v1h-1zM57 27h1v1h-1zM59 33h1v1h-1zM74 63h1v1h-1z" /><path fill="#2cbdba" d="M74 23h1v1h-1z" /><path fill="#8edcda" d="M74 24h1v1h-1z" /><path fill="#d0f0f0" d="M74 25h1v1h-1zM59 31h1v1h-1z" /><path fill="#fdfefe" d="M74 26h1v1h-1zM73 64h1v1h-1z" /><path fill="#1bb8b5" d="M75 26h1v1h-1zM23 70h1v1h-1z" /><path fill="#e9f8f8" d="M37 27h1v1h-1z" /><path fill="#ade6e4" d="M38 27h17v1h-17zM38 55h19v1h-19z" /><path fill="#aee6e5" d="M55 27h1v1h-1zM71 66h1v1h-1z" /><path fill="#cff0ef" d="M56 27h1v1h-1z" /><path fill="#3dc3c0" d="M75 27h1v1h-1zM72 38h1v1h-1z" /><path fill="#beebea" d="M37 28h1v1h-1zM37 29h1v1h-1zM37 30h1v1h-1zM37 31h1v1h-1zM37 32h1v1h-1zM37 33h1v1h-1zM37 34h1v1h-1z" /><path fill="#39c2be" d="M57 28h1v1h-1z" /><path fill="#daf3f3" d="M58 28h1v1h-1z" /><path fill="#50c9c6" d="M75 28h1v1h-1z" /><path fill="#41c4c1" d="M58 29h1v1h-1z" /><path fill="#5ecdca" d="M75 29h1v1h-1z" /><path fill="#e8f8f7" d="M59 30h1v1h-1z" /><path fill="#4fc8c6" d="M75 30h1v1h-1zM71 43h1v1h-1z" /><path fill="#37c1be" d="M75 31h1v1h-1z" /><path fill="#dbf4f3" d="M59 32h1v1h-1zM76 50h1v1h-1z" /><path fill="#f7fdfc" d="M74 32h1v1h-1zM70 39h1v1h-1z" /><path fill="#0fb4b1" d="M75 32h1v1h-1zM75 46h1v1h-1z" /><path fill="#1cb9b5" d="M58 33h1v1h-1z" /><path fill="#bfebea" d="M74 33h1v1h-1zM37 47h1v1h-1zM37 48h1v1h-1zM37 49h1v1h-1zM37 50h1v1h-1zM37 51h1v1h-1zM37 52h1v1h-1zM37 53h1v1h-1zM37 54h1v1h-1z" /><path fill="#0bb3af" d="M57 34h1v1h-1zM60 50h1v1h-1z" /><path fill="#9ee1df" d="M58 34h1v1h-1z" /><path fill="#6bd1cf" d="M74 34h1v1h-1zM74 64h1v1h-1z" /><path fill="#c2eceb" d="M37 35h1v1h-1zM74 46h1v1h-1z" /><path fill="#1ab8b4" d="M38 35h17v1h-17z" /><path fill="#22bab7" d="M55 35h1v1h-1zM76 48h1v1h-1z" /><path fill="#55cac7" d="M56 35h1v1h-1z" /><path fill="#c8eeed" d="M57 35h1v1h-1zM62 69h1v1h-1z" /><path fill="#f1fbfa" d="M73 35h1v1h-1z" /><path fill="#18b7b4" d="M74 35h1v1h-1zM76 62h1v1h-1z" /><path fill="#88dad8" d="M73 36h1v1h-1z" /><path fill="#ddf5f4" d="M72 37h1v1h-1z" /><path fill="#16b7b3" d="M73 37h1v1h-1zM69 41h1v1h-1zM74 45h1v1h-1z" /><path fill="#4cc8c5" d="M71 39h1v1h-1z" /><path fill="#e2f6f6" d="M69 40h1v1h-1z" /><path fill="#3fc3c0" d="M70 40h1v1h-1z" /><path fill="#f3fbfb" d="M67 41h1v1h-1z" /><path fill="#84d9d7" d="M68 41h1v1h-1z" /><path fill="#f5fcfc" d="M67 42h1v1h-1z" /><path fill="#a9e4e3" d="M68 42h1v1h-1z" /><path fill="#52c9c7" d="M69 42h1v1h-1z" /><path fill="#0cb4b0" d="M70 42h1v1h-1z" /><path fill="#d1f1f0" d="M70 43h1v1h-1z" /><path fill="#a5e3e2" d="M72 44h1v1h-1z" /><path fill="#14b6b2" d="M73 44h1v1h-1z" /><path fill="#c7eeed" d="M73 45h1v1h-1zM37 46h1v1h-1z" /><path fill="#2bbdba" d="M38 46h19v1h-19z" /><path fill="#e5f7f7" d="M59 46h1v1h-1z" /><path fill="#28bcb9" d="M59 47h1v1h-1z" /><path fill="#edf9f9" d="M60 47h1v1h-1z" /><path fill="#7bd6d4" d="M75 47h1v1h-1z" /><path fill="#7fd7d5" d="M60 48h1v1h-1z" /><path fill="#24bbb7" d="M60 49h1v1h-1zM77 51h1v1h-1z" /><path fill="#7ed7d5" d="M76 49h1v1h-1z" /><path fill="#35c0bd" d="M60 52h1v1h-1z" /><path fill="#56cbc8" d="M77 52h1v1h-1z" /><path fill="#7ad6d4" d="M77 53h1v1h-1z" /><path fill="#21bab7" d="M58 54h1v1h-1z" /><path fill="#aae5e3" d="M59 54h1v1h-1z" /><path fill="#8adbd9" d="M77 54h1v1h-1z" /><path fill="#eaf8f8" d="M37 55h1v1h-1z" /><path fill="#c5edec" d="M57 55h1v1h-1z" /><path fill="#f8fdfd" d="M58 55h1v1h-1z" /><path fill="#99dfde" d="M77 55h1v1h-1z" /><path fill="#96dfdd" d="M77 56h1v1h-1zM63 69h1v1h-1z" /><path fill="#87dad8" d="M77 57h1v1h-1z" /><path fill="#2fbebb" d="M77 59h1v1h-1z" /><path fill="#d8f3f2" d="M76 60h1v1h-1z" /><path fill="#6fd2d0" d="M76 61h1v1h-1z" /><path fill="#e6f7f7" d="M75 62h1v1h-1z" /><path fill="#4ec8c5" d="M75 63h1v1h-1z" /><path fill="#f0fafa" d="M72 65h1v1h-1z" /><path fill="#59cbc9" d="M73 65h1v1h-1z" /><path fill="#27bcb8" d="M72 66h1v1h-1z" /><path fill="#caefee" d="M69 67h1v1h-1z" /><path fill="#45c5c2" d="M70 67h1v1h-1z" /><path fill="#e7f8f7" d="M66 68h1v1h-1z" /><path fill="#a0e1e0" d="M67 68h1v1h-1z" /><path fill="#42c4c1" d="M68 68h1v1h-1z" /><path fill="#eefaf9" d="M61 69h1v1h-1z" /><path fill="#63cfcc" d="M64 69h1v1h-1z" /><path fill="#31bfbc" d="M65 69h1v1h-1z" /><path fill="#3bc2bf" d="M24 70h34v1h-34z" /><path fill="#32c0bc" d="M58 70h1v1h-1z" /><path fill="#15b6b2" d="M60 70h1v1h-1z" /><path fill="#09b3ae" d="M8 82h1v1h-1zM36 85h1v1h-1z" /><path fill="#09b3af" d="M37 84h1v1h-1zM31 91h1v1h-1zM28 94h1v1h-1z" /></svg>