<svg xmlns="http://www.w3.org/2000/svg" viewBox="0 0 100 100" width="1em" height="1em"><path fill="#006bff" d="M49 26h2v1h-2zM52 28h1v1h-1zM46 29h1v1h-1zM53 29h1v1h-1zM45 30h1v1h-1zM54 30h1v1h-1zM55 31h1v1h-1zM48 33h1v1h-1zM52 34h1v1h-1zM58 34h1v1h-1zM40 35h1v1h-1zM53 35h1v1h-1zM59 35h1v1h-1zM54 36h1v1h-1zM60 36h1v1h-1zM38 37h1v1h-1zM44 37h1v1h-1zM61 37h1v1h-1zM2 39h1v1h-1zM57 39h1v1h-1zM0 40h1v1h-1zM10 40h1v1h-1zM13 40h2v1h-2zM16 40h1v1h-1zM41 40h1v1h-1zM58 40h1v1h-1zM82 40h1v1h-1zM86 40h2v1h-2zM89 40h1v1h-1zM98 40h1v1h-1zM0 41h1v1h-1zM25 41h1v1h-1zM27 41h2v1h-2zM35 41h1v1h-1zM67 41h3v1h-3zM71 41h2v1h-2zM0 42h1v1h-1zM99 42h1v1h-1zM1 43h1v1h-1zM1 44h1v1h-1zM2 45h1v1h-1zM10 45h2v1h-2zM19 45h1v1h-1zM23 45h3v1h-3zM62 45h1v1h-1zM75 45h3v1h-3zM80 45h1v1h-1zM88 45h1v1h-1zM97 45h1v1h-1zM3 46h1v1h-1zM13 46h2v1h-2zM63 46h1v1h-1zM69 46h1v1h-1zM96 46h1v1h-1zM9 47h1v1h-1zM17 47h1v1h-1zM64 47h1v1h-1zM88 47h1v1h-1zM90 47h1v1h-1zM10 48h1v1h-1zM15 48h1v1h-1zM19 48h1v1h-1zM28 48h1v1h-1zM34 48h1v1h-1zM65 48h1v1h-1zM80 48h1v1h-1zM95 48h1v1h-1zM5 49h1v1h-1zM11 49h1v1h-1zM18 49h1v1h-1zM22 49h1v1h-1zM66 49h1v1h-1zM77 49h1v1h-1zM81 49h2v1h-2zM88 49h1v1h-1zM6 50h1v1h-1zM25 50h2v1h-2zM67 50h1v1h-1zM88 50h1v1h-1zM93 50h1v1h-1zM12 51h1v1h-1zM25 52h2v1h-2zM31 52h1v1h-1zM73 52h1v1h-1zM86 52h1v1h-1zM92 52h1v1h-1zM8 53h1v1h-1zM28 53h1v1h-1zM34 53h1v1h-1zM71 53h1v1h-1zM9 54h1v1h-1zM14 54h1v1h-1zM36 54h1v1h-1zM63 54h1v1h-1zM85 54h1v1h-1zM15 55h1v1h-1zM33 55h2v1h-2zM38 55h2v1h-2zM60 55h1v1h-1zM16 56h1v1h-1zM37 56h1v1h-1zM41 56h1v1h-1zM58 56h1v1h-1zM63 56h1v1h-1zM83 56h1v1h-1zM11 57h1v1h-1zM39 57h1v1h-1zM60 57h1v1h-1zM88 57h1v1h-1zM12 58h1v1h-1zM41 58h2v1h-2zM47 58h2v1h-2zM52 58h1v1h-1zM58 58h1v1h-1zM18 59h1v1h-1zM45 59h1v1h-1zM81 59h1v1h-1zM46 60h1v1h-1zM86 60h1v1h-1zM14 61h1v1h-1zM19 61h1v1h-1zM45 61h1v1h-1zM80 61h1v1h-1zM15 62h1v1h-1zM41 62h2v1h-2zM46 62h3v1h-3zM53 62h1v1h-1zM15 63h1v1h-1zM21 63h1v1h-1zM39 63h1v1h-1zM43 63h2v1h-2zM55 63h1v1h-1zM60 63h1v1h-1zM78 63h1v1h-1zM16 64h1v1h-1zM36 64h1v1h-1zM41 64h1v1h-1zM63 64h1v1h-1zM22 65h1v1h-1zM34 65h1v1h-1zM38 65h1v1h-1zM61 65h1v1h-1zM65 65h2v1h-2zM77 65h1v1h-1zM23 66h1v1h-1zM31 66h1v1h-1zM35 66h1v1h-1zM63 66h1v1h-1zM76 66h1v1h-1zM82 66h1v1h-1zM28 67h1v1h-1zM33 67h1v1h-1zM71 67h1v1h-1zM25 68h1v1h-1zM30 68h1v1h-1zM80 68h1v1h-1zM27 69h2v1h-2zM71 69h1v1h-1zM79 70h1v1h-1zM21 71h1v1h-1zM78 71h1v1h-1zM77 72h1v1h-1zM23 73h1v1h-1zM25 74h50v1h-50z" /><path fill="#006cff" d="M47 27h5v1h-5zM47 28h5v1h-5zM47 29h6v1h-6zM46 30h8v1h-8zM44 31h11v1h-11zM43 32h14v1h-14zM42 33h6v1h-6zM49 33h9v1h-9zM41 34h7v1h-7zM49 34h2v1h-2zM53 34h5v1h-5zM41 35h6v1h-6zM49 35h2v1h-2zM54 35h5v1h-5zM39 36h7v1h-7zM49 36h2v1h-2zM55 36h5v1h-5zM39 37h5v1h-5zM49 37h2v1h-2zM55 37h6v1h-6zM37 38h7v1h-7zM49 38h2v1h-2zM56 38h7v1h-7zM37 39h6v1h-6zM49 39h2v1h-2zM58 39h5v1h-5zM1 40h9v1h-9zM11 40h2v1h-2zM15 40h1v1h-1zM36 40h5v1h-5zM49 40h2v1h-2zM59 40h5v1h-5zM83 40h3v1h-3zM88 40h1v1h-1zM90 40h8v1h-8zM1 41h24v1h-24zM26 41h1v1h-1zM29 41h3v1h-3zM36 41h5v1h-5zM49 41h2v1h-2zM59 41h6v1h-6zM70 41h1v1h-1zM73 41h27v1h-27zM1 42h39v1h-39zM49 42h2v1h-2zM60 42h39v1h-39zM2 43h37v1h-37zM49 43h2v1h-2zM60 43h39v1h-39zM2 44h37v1h-37zM49 44h2v1h-2zM61 44h38v1h-38zM3 45h7v1h-7zM20 45h3v1h-3zM26 45h12v1h-12zM49 45h2v1h-2zM63 45h12v1h-12zM78 45h2v1h-2zM87 45h1v1h-1zM90 45h7v1h-7zM4 46h9v1h-9zM30 46h7v1h-7zM49 46h2v1h-2zM64 46h5v1h-5zM85 46h11v1h-11zM4 47h5v1h-5zM12 47h5v1h-5zM29 47h7v1h-7zM49 47h2v1h-2zM65 47h6v1h-6zM82 47h6v1h-6zM91 47h5v1h-5zM4 48h6v1h-6zM14 48h1v1h-1zM16 48h3v1h-3zM20 48h1v1h-1zM29 48h5v1h-5zM49 48h2v1h-2zM66 48h6v1h-6zM79 48h1v1h-1zM81 48h5v1h-5zM89 48h6v1h-6zM6 49h5v1h-5zM17 49h1v1h-1zM19 49h3v1h-3zM27 49h7v1h-7zM49 49h2v1h-2zM67 49h6v1h-6zM78 49h3v1h-3zM89 49h6v1h-6zM7 50h5v1h-5zM20 50h5v1h-5zM27 50h6v1h-6zM49 50h2v1h-2zM68 50h12v1h-12zM89 50h4v1h-4zM7 51h5v1h-5zM22 51h10v1h-10zM49 51h2v1h-2zM68 51h10v1h-10zM87 51h6v1h-6zM7 52h7v1h-7zM27 52h4v1h-4zM49 52h2v1h-2zM68 52h5v1h-5zM74 52h1v1h-1zM87 52h5v1h-5zM9 53h5v1h-5zM29 53h5v1h-5zM49 53h2v1h-2zM66 53h5v1h-5zM86 53h6v1h-6zM10 54h4v1h-4zM31 54h5v1h-5zM49 54h2v1h-2zM64 54h6v1h-6zM86 54h5v1h-5zM10 55h5v1h-5zM35 55h3v1h-3zM49 55h2v1h-2zM61 55h6v1h-6zM84 55h7v1h-7zM10 56h6v1h-6zM36 56h1v1h-1zM38 56h3v1h-3zM42 56h1v1h-1zM49 56h2v1h-2zM57 56h1v1h-1zM59 56h4v1h-4zM84 56h6v1h-6zM12 57h5v1h-5zM40 57h6v1h-6zM49 57h2v1h-2zM54 57h6v1h-6zM83 57h5v1h-5zM13 58h5v1h-5zM43 58h4v1h-4zM49 58h3v1h-3zM53 58h5v1h-5zM82 58h6v1h-6zM13 59h5v1h-5zM44 59h1v1h-1zM46 59h10v1h-10zM82 59h6v1h-6zM13 60h6v1h-6zM47 60h7v1h-7zM81 60h5v1h-5zM15 61h4v1h-4zM44 61h1v1h-1zM46 61h10v1h-10zM81 61h5v1h-5zM16 62h5v1h-5zM43 62h3v1h-3zM49 62h2v1h-2zM52 62h1v1h-1zM54 62h5v1h-5zM79 62h6v1h-6zM16 63h5v1h-5zM38 63h1v1h-1zM40 63h3v1h-3zM49 63h2v1h-2zM56 63h4v1h-4zM61 63h1v1h-1zM79 63h6v1h-6zM17 64h5v1h-5zM37 64h4v1h-4zM49 64h2v1h-2zM58 64h5v1h-5zM78 64h6v1h-6zM17 65h5v1h-5zM33 65h1v1h-1zM35 65h3v1h-3zM39 65h1v1h-1zM49 65h2v1h-2zM60 65h1v1h-1zM62 65h3v1h-3zM78 65h5v1h-5zM18 66h5v1h-5zM30 66h1v1h-1zM32 66h3v1h-3zM36 66h1v1h-1zM49 66h2v1h-2zM64 66h6v1h-6zM77 66h5v1h-5zM18 67h6v1h-6zM27 67h1v1h-1zM29 67h4v1h-4zM49 67h2v1h-2zM66 67h5v1h-5zM72 67h1v1h-1zM76 67h6v1h-6zM19 68h6v1h-6zM26 68h4v1h-4zM49 68h2v1h-2zM68 68h12v1h-12zM20 69h7v1h-7zM49 69h2v1h-2zM72 69h8v1h-8zM21 70h58v1h-58zM22 71h56v1h-56zM22 72h55v1h-55zM24 73h53v1h-53zM24 74h1v1h-1zM75 74h1v1h-1z" /></svg>