<svg xmlns="http://www.w3.org/2000/svg" viewBox="0 0 100 100" width="1em" height="1em"><path fill="#bc4043" d="M49 23h1v1h-1zM48 24h1v1h-1zM52 25h1v1h-1zM54 28h1v1h-1zM44 30h1v1h-1zM42 33h1v1h-1zM58 34h1v1h-1zM38 38h1v1h-1zM33 46h1v1h-1zM47 54h1v1h-1zM49 55h1v1h-1zM51 56h1v1h-1zM64 63h1v1h-1zM66 64h1v1h-1zM78 64h1v1h-1zM80 67h1v1h-1zM82 70h1v1h-1zM79 71h1v1h-1z" /><path fill="#bd4043" d="M50 23h2v1h-2zM49 24h3v1h-3zM48 25h4v1h-4zM47 26h7v1h-7zM47 27h7v1h-7zM46 28h8v1h-8zM45 29h10v1h-10zM45 30h11v1h-11zM44 31h12v1h-12zM43 32h15v1h-15zM43 33h15v1h-15zM42 34h16v1h-16zM41 35h18v1h-18zM41 36h19v1h-19zM40 37h20v1h-20zM39 38h23v1h-23zM39 39h23v1h-23zM38 40h24v1h-24zM37 41h26v1h-26zM37 42h27v1h-27zM36 43h28v1h-28zM35 44h30v1h-30zM35 45h31v1h-31zM34 46h32v1h-32zM34 47h33v1h-33zM36 48h32v1h-32zM38 49h30v1h-30zM40 50h29v1h-29zM42 51h28v1h-28zM43 52h27v1h-27zM46 53h25v1h-25zM48 54h24v1h-24zM50 55h22v1h-22zM52 56h21v1h-21zM53 57h21v1h-21zM55 58h19v1h-19zM57 59h18v1h-18zM59 60h17v1h-17zM60 61h16v1h-16zM63 62h14v1h-14zM65 63h13v1h-13zM67 64h11v1h-11zM69 65h10v1h-10zM70 66h10v1h-10zM72 67h8v1h-8zM74 68h7v1h-7zM76 69h6v1h-6zM78 70h4v1h-4zM80 71h3v1h-3zM82 72h2v1h-2z" /><path fill="#bd4042" d="M47 25h1v1h-1zM59 35h1v1h-1zM63 41h1v1h-1zM35 43h1v1h-1zM77 70h1v1h-1z" /><path fill="#bd3f42" d="M46 27h1v1h-1zM56 31h1v1h-1zM40 36h1v1h-1zM60 37h1v1h-1zM38 39h1v1h-1zM62 40h1v1h-1zM36 42h1v1h-1zM64 43h1v1h-1zM34 45h1v1h-1zM66 46h1v1h-1zM68 49h1v1h-1zM70 52h1v1h-1zM45 53h1v1h-1zM72 55h1v1h-1zM74 58h1v1h-1zM76 61h1v1h-1zM62 62h1v1h-1zM68 65h1v1h-1zM81 72h1v1h-1z" /><path fill="#bc3f43" d="M45 28h1v1h-1zM39 37h1v1h-1zM65 44h1v1h-1z" /><path fill="#bd3f43" d="M44 29h1v1h-1zM43 31h1v1h-1zM42 32h1v1h-1zM40 35h1v1h-1zM37 40h1v1h-1z" /><path fill="#bc3f42" d="M55 29h1v1h-1z" /><path fill="#ff4a4a" d="M1 31h2v1h-2zM3 32h1v1h-1zM7 34h1v1h-1zM15 38h1v1h-1zM24 43h1v1h-1zM5 44h1v1h-1zM26 44h1v1h-1zM28 45h1v1h-1zM30 46h1v1h-1zM8 52h1v1h-1zM10 57h1v1h-1zM11 60h1v1h-1zM13 65h1v1h-1zM15 70h1v1h-1zM16 72h1v1h-1zM24 75h1v1h-1zM26 75h2v1h-2zM72 75h1v1h-1zM74 75h2v1h-2zM35 76h2v1h-2zM38 76h1v1h-1zM41 76h1v1h-1zM44 76h1v1h-1zM60 76h2v1h-2zM63 76h1v1h-1z" /><path fill="#7d353a" d="M97 31h1v1h-1zM92 34h1v1h-1zM80 40h1v1h-1z" /><path fill="#7c343b" d="M98 31h1v1h-1zM86 37h1v1h-1zM91 53h1v1h-1zM90 56h1v1h-1z" /><path fill="#ff4b4b" d="M0 32h3v1h-3zM4 32h1v1h-1zM1 33h6v1h-6zM1 34h6v1h-6zM8 34h1v1h-1zM1 35h9v1h-9zM2 36h10v1h-10zM2 37h12v1h-12zM3 38h12v1h-12zM3 39h15v1h-15zM3 40h17v1h-17zM4 41h18v1h-18zM4 42h20v1h-20zM5 43h19v1h-19zM25 43h1v1h-1zM6 44h20v1h-20zM27 44h1v1h-1zM5 45h23v1h-23zM6 46h24v1h-24zM6 47h26v1h-26zM6 48h28v1h-28zM7 49h29v1h-29zM7 50h31v1h-31zM8 51h31v1h-31zM9 52h32v1h-32zM8 53h35v1h-35zM9 54h36v1h-36zM9 55h38v1h-38zM10 56h39v1h-39zM11 57h40v1h-40zM10 58h43v1h-43zM11 59h44v1h-44zM12 60h44v1h-44zM12 61h46v1h-46zM12 62h48v1h-48zM12 63h50v1h-50zM13 64h51v1h-51zM14 65h52v1h-52zM14 66h54v1h-54zM14 67h56v1h-56zM14 68h58v1h-58zM15 69h58v1h-58zM16 70h59v1h-59zM15 71h62v1h-62zM17 72h62v1h-62zM17 73h64v1h-64zM18 74h64v1h-64zM23 75h1v1h-1zM25 75h1v1h-1zM28 75h44v1h-44zM73 75h1v1h-1zM76 75h2v1h-2zM37 76h1v1h-1zM39 76h2v1h-2zM42 76h2v1h-2zM45 76h15v1h-15zM62 76h1v1h-1zM64 76h1v1h-1z" /><path fill="#7c353a" d="M95 32h1v1h-1zM94 33h1v1h-1zM99 33h1v1h-1zM97 38h1v1h-1zM93 48h1v1h-1zM90 55h1v1h-1z" /><path fill="#7d343b" d="M96 32h1v1h-1zM97 37h1v1h-1zM75 43h1v1h-1zM94 45h1v1h-1zM92 50h1v1h-1zM85 68h1v1h-1z" /><path fill="#7d353b" d="M97 32h2v1h-2zM95 33h4v1h-4zM93 34h6v1h-6zM90 35h8v1h-8zM89 36h9v1h-9zM87 37h10v1h-10zM85 38h12v1h-12zM83 39h14v1h-14zM82 40h14v1h-14zM80 41h16v1h-16zM77 42h18v1h-18zM76 43h19v1h-19zM74 44h21v1h-21zM71 45h23v1h-23zM70 46h24v1h-24zM69 47h24v1h-24zM69 48h24v1h-24zM70 49h23v1h-23zM71 50h21v1h-21zM71 51h22v1h-22zM72 52h20v1h-20zM73 53h18v1h-18zM73 54h18v1h-18zM74 55h16v1h-16zM75 56h15v1h-15zM75 57h15v1h-15zM76 58h13v1h-13zM77 59h12v1h-12zM77 60h11v1h-11zM78 61h11v1h-11zM79 62h9v1h-9zM79 63h8v1h-8zM80 64h7v1h-7zM81 65h5v1h-5zM81 66h5v1h-5zM82 67h4v1h-4zM83 68h2v1h-2zM83 69h2v1h-2zM84 70h1v1h-1z" /><path fill="#7c353b" d="M99 32h1v1h-1zM93 47h1v1h-1zM89 58h1v1h-1zM88 60h1v1h-1z" /><path fill="#bc4042" d="M41 34h1v1h-1zM36 41h1v1h-1zM34 44h1v1h-1z" /><path fill="#7c343a" d="M98 35h1v1h-1zM82 39h1v1h-1zM81 40h1v1h-1zM96 40h1v1h-1zM79 41h1v1h-1zM95 42h1v1h-1zM95 43h1v1h-1zM85 69h1v1h-1z" /><path fill="#7d343a" d="M88 36h1v1h-1zM84 38h1v1h-1zM78 41h1v1h-1zM73 44h1v1h-1zM69 46h1v1h-1zM94 46h1v1h-1zM87 63h1v1h-1zM86 65h1v1h-1zM86 66h1v1h-1z" /><path fill="#f64848" d="M32 47h1v1h-1z" /><path fill="#c44043" d="M33 47h1v1h-1z" /><path fill="#b83f42" d="M67 47h1v1h-1z" /><path fill="#7e353b" d="M68 47h1v1h-1z" /><path fill="#ee4747" d="M34 48h1v1h-1z" /><path fill="#c24044" d="M35 48h1v1h-1z" /><path fill="#9f3b3f" d="M68 48h1v1h-1z" /><path fill="#e84648" d="M36 49h1v1h-1zM55 59h1v1h-1zM72 68h1v1h-1z" /><path fill="#bf4042" d="M37 49h1v1h-1zM39 50h1v1h-1z" /><path fill="#87373c" d="M69 49h1v1h-1z" /><path fill="#e54647" d="M38 50h1v1h-1z" /><path fill="#b83f41" d="M69 50h1v1h-1z" /><path fill="#7c353c" d="M70 50h1v1h-1z" /><path fill="#fd494a" d="M39 51h1v1h-1zM56 60h1v1h-1zM73 69h1v1h-1z" /><path fill="#e24546" d="M40 51h1v1h-1zM57 60h1v1h-1zM74 69h1v1h-1z" /><path fill="#be4042" d="M41 51h1v1h-1z" /><path fill="#a23b3f" d="M70 51h1v1h-1z" /><path fill="#fc4a4a" d="M41 52h1v1h-1z" /><path fill="#dc4546" d="M42 52h1v1h-1zM59 61h1v1h-1zM76 70h1v1h-1z" /><path fill="#86363c" d="M71 52h1v1h-1z" /><path fill="#fb4a4a" d="M43 53h1v1h-1zM77 71h1v1h-1z" /><path fill="#d54345" d="M44 53h1v1h-1zM61 62h1v1h-1zM78 71h1v1h-1z" /><path fill="#b84042" d="M71 53h1v1h-1z" /><path fill="#7e343a" d="M72 53h1v1h-1zM74 56h1v1h-1zM82 68h1v1h-1z" /><path fill="#f94a4a" d="M45 54h1v1h-1z" /><path fill="#d04245" d="M46 54h1v1h-1zM63 63h1v1h-1zM80 72h1v1h-1z" /><path fill="#a33b3f" d="M72 54h1v1h-1zM74 57h1v1h-1z" /><path fill="#f64849" d="M47 55h1v1h-1z" /><path fill="#ca4144" d="M48 55h1v1h-1zM65 64h1v1h-1zM67 65h1v1h-1z" /><path fill="#89373c" d="M73 55h1v1h-1z" /><path fill="#f24849" d="M49 56h1v1h-1zM68 66h1v1h-1z" /><path fill="#c54143" d="M50 56h1v1h-1z" /><path fill="#b83e42" d="M73 56h1v1h-1z" /><path fill="#ee4749" d="M51 57h1v1h-1z" /><path fill="#c44144" d="M52 57h1v1h-1z" /><path fill="#ec4848" d="M53 58h1v1h-1zM70 67h1v1h-1z" /><path fill="#c14043" d="M54 58h1v1h-1zM71 67h1v1h-1z" /><path fill="#89363d" d="M75 58h1v1h-1z" /><path fill="#bf4044" d="M56 59h1v1h-1z" /><path fill="#ba3e42" d="M75 59h1v1h-1z" /><path fill="#7f353b" d="M76 59h1v1h-1zM78 62h1v1h-1z" /><path fill="#be3f42" d="M58 60h1v1h-1z" /><path fill="#a53d40" d="M76 60h1v1h-1z" /><path fill="#fd4b4b" d="M58 61h1v1h-1zM75 70h1v1h-1z" /><path fill="#8a363c" d="M77 61h1v1h-1z" /><path fill="#fb4b4b" d="M60 62h1v1h-1z" /><path fill="#ba3f42" d="M77 62h1v1h-1z" /><path fill="#f94b4b" d="M62 63h1v1h-1z" /><path fill="#a63d40" d="M78 63h1v1h-1z" /><path fill="#f74949" d="M64 64h1v1h-1z" /><path fill="#8c383c" d="M79 64h1v1h-1z" /><path fill="#f64a4a" d="M66 65h1v1h-1z" /><path fill="#b93f42" d="M79 65h1v1h-1z" /><path fill="#7d363c" d="M80 65h1v1h-1z" /><path fill="#c64144" d="M69 66h1v1h-1z" /><path fill="#a93c40" d="M80 66h1v1h-1z" /><path fill="#8c373d" d="M81 67h1v1h-1z" /><path fill="#bf4043" d="M73 68h1v1h-1z" /><path fill="#ba3f41" d="M81 68h1v1h-1zM83 71h1v1h-1z" /><path fill="#be4044" d="M75 69h1v1h-1z" /><path fill="#aa3c40" d="M82 69h1v1h-1z" /><path fill="#8d383d" d="M83 70h1v1h-1z" /><path fill="#80353b" d="M84 71h1v1h-1z" /><path fill="#fa4949" d="M79 72h1v1h-1z" /><path fill="#f74a4a" d="M81 73h1v1h-1z" /><path fill="#cb4344" d="M82 73h1v1h-1z" /><path fill="#be3e42" d="M83 73h1v1h-1z" /></svg>