<svg xmlns="http://www.w3.org/2000/svg" viewBox="0 0 100 100" width="1em" height="1em"><path fill="#3ece8d" d="M43 0h1v1h-1zM39 4h1v1h-1zM35 9h1v1h-1zM34 10h1v1h-1zM30 16h1v1h-1zM93 42h1v1h-1zM8 43h1v1h-1zM92 44h1v1h-1zM91 47h1v1h-1zM97 47h1v1h-1zM90 49h1v1h-1zM3 50h1v1h-1zM1 53h1v1h-1zM88 54h1v1h-1zM87 56h1v1h-1zM89 57h1v1h-1zM86 59h1v1h-1zM85 61h1v1h-1zM7 63h1v1h-1zM84 63h1v1h-1z" /><path fill="#3ece8e" d="M44 0h2v1h-2zM47 1h1v1h-1zM41 2h1v1h-1zM36 8h1v1h-1zM19 29h1v1h-1zM18 31h1v1h-1zM16 33h1v1h-1zM94 40h1v1h-1zM9 42h1v1h-1zM92 45h1v1h-1zM94 51h1v1h-1zM89 52h1v1h-1zM93 52h1v1h-1zM1 54h1v1h-1zM91 55h1v1h-1z" /><path fill="#3dcf8e" d="M46 0h1v1h-1zM42 1h1v1h-1zM38 5h1v1h-1zM32 13h1v1h-1zM21 27h1v1h-1zM95 38h1v1h-1zM11 39h1v1h-1zM97 41h1v1h-1zM5 47h1v1h-1zM4 48h1v1h-1zM95 50h1v1h-1zM1 55h1v1h-1zM1 56h1v1h-1zM1 57h1v1h-1zM2 59h1v1h-1zM87 60h1v1h-1zM3 61h1v1h-1zM4 62h1v1h-1z" /><path fill="#3ecf8e" d="M43 1h4v1h-4zM42 2h6v1h-6zM41 3h8v1h-8zM40 4h9v1h-9zM39 5h10v1h-10zM38 6h11v1h-11zM37 7h12v1h-12zM37 8h12v1h-12zM36 9h13v1h-13zM35 10h14v1h-14zM34 11h15v1h-15zM34 12h15v1h-15zM33 13h16v1h-16zM32 14h17v1h-17zM30 15h19v1h-19zM31 16h18v1h-18zM30 17h19v1h-19zM28 18h21v1h-21zM27 19h22v1h-22zM27 20h22v1h-22zM27 21h22v1h-22zM26 22h23v1h-23zM25 23h24v1h-24zM24 24h25v1h-25zM23 25h26v1h-26zM23 26h26v1h-26zM22 27h27v1h-27zM20 28h29v1h-29zM20 29h29v1h-29zM19 30h30v1h-30zM19 31h30v1h-30zM18 32h31v1h-31zM17 33h32v1h-32zM16 34h33v1h-33zM15 35h34v1h-34zM15 36h34v1h-34zM14 37h35v1h-35zM13 38h36v1h-36zM12 39h37v1h-37zM95 39h1v1h-1zM11 40h38v1h-38zM95 40h2v1h-2zM11 41h38v1h-38zM94 41h3v1h-3zM10 42h39v1h-39zM94 42h4v1h-4zM9 43h40v1h-40zM93 43h5v1h-5zM8 44h41v1h-41zM93 44h5v1h-5zM7 45h42v1h-42zM93 45h5v1h-5zM7 46h42v1h-42zM92 46h5v1h-5zM6 47h43v1h-43zM92 47h5v1h-5zM5 48h44v1h-44zM91 48h6v1h-6zM4 49h45v1h-45zM91 49h5v1h-5zM4 50h45v1h-45zM90 50h5v1h-5zM3 51h46v1h-46zM90 51h4v1h-4zM2 52h47v1h-47zM90 52h3v1h-3zM2 53h47v1h-47zM89 53h4v1h-4zM2 54h47v1h-47zM89 54h3v1h-3zM2 55h47v1h-47zM88 55h3v1h-3zM2 56h47v1h-47zM88 56h2v1h-2zM2 57h47v1h-47zM87 57h2v1h-2zM2 58h47v1h-47zM87 58h2v1h-2zM3 59h46v1h-46zM87 59h1v1h-1zM3 60h46v1h-46zM86 60h1v1h-1zM4 61h45v1h-45zM86 61h1v1h-1zM5 62h44v1h-44zM85 62h1v1h-1zM8 63h41v1h-41z" /><path fill="#3dcf8d" d="M48 2h1v1h-1zM31 14h1v1h-1zM26 21h1v1h-1zM22 26h1v1h-1zM97 46h1v1h-1zM3 49h1v1h-1zM96 49h1v1h-1zM89 58h1v1h-1zM88 59h1v1h-1z" /><path fill="#3dce8e" d="M40 3h1v1h-1zM33 12h1v1h-1zM13 37h1v1h-1zM7 44h1v1h-1zM6 46h1v1h-1zM2 51h1v1h-1zM85 63h1v1h-1z" /><path fill="#3ecf8d" d="M29 17h1v1h-1zM17 32h1v1h-1zM15 34h1v1h-1zM12 38h1v1h-1zM10 41h1v1h-1z" /><path fill="#3dce8d" d="M25 22h1v1h-1zM24 23h1v1h-1zM23 24h1v1h-1zM14 36h1v1h-1zM94 39h1v1h-1zM96 39h1v1h-1zM93 41h1v1h-1zM91 46h1v1h-1zM89 51h1v1h-1zM88 53h1v1h-1zM92 54h1v1h-1zM90 56h1v1h-1zM86 58h1v1h-1zM6 63h1v1h-1z" /><path fill="#36bb7e" d="M49 35h1v1h-1z" /><path fill="#2faa73" d="M49 36h1v1h-1zM74 37h1v1h-1zM72 40h1v1h-1zM66 48h1v1h-1z" /><path fill="#208357" d="M50 36h1v1h-1z" /><path fill="#208457" d="M51 36h2v1h-2zM50 37h1v1h-1z" /><path fill="#208557" d="M53 36h1v1h-1zM51 37h1v1h-1zM50 38h1v1h-1z" /><path fill="#218558" d="M54 36h1v1h-1zM52 37h2v1h-2zM51 38h1v1h-1z" /><path fill="#228759" d="M55 36h1v1h-1z" /><path fill="#22885a" d="M56 36h1v1h-1zM55 37h1v1h-1z" /><path fill="#238a5b" d="M57 36h1v1h-1zM56 37h1v1h-1zM52 43h1v1h-1z" /><path fill="#248c5c" d="M58 36h1v1h-1z" /><path fill="#248d5e" d="M59 36h1v1h-1zM58 37h1v1h-1zM53 44h1v1h-1z" /><path fill="#25905f" d="M60 36h1v1h-1z" /><path fill="#259161" d="M61 36h1v1h-1zM58 40h1v1h-1zM55 44h1v1h-1z" /><path fill="#269262" d="M62 36h1v1h-1z" /><path fill="#279563" d="M63 36h1v1h-1zM60 40h1v1h-1z" /><path fill="#279664" d="M64 36h1v1h-1zM63 37h1v1h-1zM61 40h1v1h-1zM60 41h1v1h-1zM59 42h1v1h-1z" /><path fill="#289866" d="M65 36h1v1h-1zM61 41h1v1h-1z" /><path fill="#289a67" d="M66 36h1v1h-1zM61 43h1v1h-1zM60 44h1v1h-1zM56 49h1v1h-1zM53 53h1v1h-1z" /><path fill="#299c68" d="M67 36h1v1h-1zM61 44h1v1h-1zM58 48h1v1h-1zM55 52h1v1h-1z" /><path fill="#2a9d69" d="M68 36h1v1h-1zM67 37h1v1h-1zM64 41h1v1h-1z" /><path fill="#2b9f6b" d="M69 36h1v1h-1zM67 39h1v1h-1z" /><path fill="#2ca16c" d="M70 36h1v1h-1z" /><path fill="#2da26d" d="M71 36h1v1h-1z" /><path fill="#2da56f" d="M72 36h1v1h-1zM71 37h1v1h-1zM71 38h1v1h-1z" /><path fill="#2ea670" d="M73 36h1v1h-1z" /><path fill="#2ea871" d="M74 36h1v1h-1zM73 37h1v1h-1zM72 38h1v1h-1zM70 41h1v1h-1zM69 42h1v1h-1z" /><path fill="#2faa72" d="M75 36h1v1h-1zM71 41h1v1h-1z" /><path fill="#30ac75" d="M76 36h1v1h-1zM74 39h1v1h-1z" /><path fill="#30ae76" d="M77 36h1v1h-1zM73 41h1v1h-1zM64 58h1v1h-1zM61 65h1v1h-1zM59 70h1v1h-1zM56 77h1v1h-1zM51 89h1v1h-1zM50 93h1v1h-1z" /><path fill="#31af77" d="M78 36h1v1h-1zM77 37h1v1h-1zM75 40h1v1h-1z" /><path fill="#32b279" d="M79 36h1v1h-1zM77 39h1v1h-1zM73 44h1v1h-1zM71 48h1v1h-1zM68 55h1v1h-1zM66 60h1v1h-1zM63 67h1v1h-1zM58 79h1v1h-1zM55 86h1v1h-1zM53 91h1v1h-1z" /><path fill="#33b37a" d="M80 36h1v1h-1z" /><path fill="#34b57b" d="M81 36h1v1h-1z" /><path fill="#34b77d" d="M82 36h1v1h-1zM78 41h1v1h-1z" /><path fill="#35b97e" d="M83 36h1v1h-1zM79 41h1v1h-1zM78 43h1v1h-1zM77 45h1v1h-1zM49 49h1v1h-1zM75 50h1v1h-1zM74 52h1v1h-1zM73 55h1v1h-1zM72 57h1v1h-1zM70 62h1v1h-1zM69 64h1v1h-1zM67 69h1v1h-1zM65 74h1v1h-1zM64 76h1v1h-1zM62 81h1v1h-1zM61 83h1v1h-1zM60 86h1v1h-1zM59 88h1v1h-1zM57 93h1v1h-1zM56 95h1v1h-1z" /><path fill="#36bb7f" d="M84 36h1v1h-1zM81 40h1v1h-1zM79 44h1v1h-1zM74 56h1v1h-1zM66 75h1v1h-1zM61 87h1v1h-1zM57 98h1v1h-1z" /><path fill="#36bd80" d="M85 36h1v1h-1zM83 38h1v1h-1zM80 44h1v1h-1zM79 46h1v1h-1zM78 49h1v1h-1zM77 51h1v1h-1zM76 53h1v1h-1zM75 56h1v1h-1zM74 58h1v1h-1zM72 63h1v1h-1zM71 65h1v1h-1zM70 68h1v1h-1zM69 70h1v1h-1zM67 75h1v1h-1zM66 77h1v1h-1zM65 80h1v1h-1zM64 82h1v1h-1zM63 84h1v1h-1zM62 87h1v1h-1zM61 89h1v1h-1zM59 94h1v1h-1zM58 96h1v1h-1z" /><path fill="#38bf82" d="M86 36h1v1h-1zM85 38h1v1h-1z" /><path fill="#38c083" d="M87 36h1v1h-1zM86 37h1v1h-1zM84 40h1v1h-1zM82 45h1v1h-1zM81 47h1v1h-1zM80 50h1v1h-1zM79 52h1v1h-1zM77 57h1v1h-1zM76 59h1v1h-1zM75 62h1v1h-1zM74 64h1v1h-1zM73 66h1v1h-1zM72 69h1v1h-1zM71 71h1v1h-1zM69 76h1v1h-1zM68 78h1v1h-1zM67 81h1v1h-1zM66 83h1v1h-1zM64 88h1v1h-1z" /><path fill="#39c284" d="M88 36h1v1h-1z" /><path fill="#3ac586" d="M89 36h1v1h-1zM88 38h1v1h-1zM86 43h1v1h-1zM84 48h1v1h-1zM83 50h1v1h-1zM81 55h1v1h-1zM79 60h1v1h-1zM78 62h1v1h-1zM49 63h1v1h-1zM76 67h1v1h-1zM75 69h1v1h-1zM73 74h1v1h-1zM71 79h1v1h-1zM71 80h1v1h-1z" /><path fill="#3ac687" d="M90 36h1v1h-1zM89 38h1v1h-1zM88 40h1v1h-1zM87 42h1v1h-1zM87 43h1v1h-1zM86 45h1v1h-1zM85 47h1v1h-1zM84 49h1v1h-1zM84 50h1v1h-1zM83 52h1v1h-1zM82 54h1v1h-1zM82 55h1v1h-1zM81 57h1v1h-1zM80 59h1v1h-1zM79 61h1v1h-1zM79 62h1v1h-1zM78 64h1v1h-1zM77 66h1v1h-1zM77 67h1v1h-1zM76 69h1v1h-1zM75 71h1v1h-1zM74 73h1v1h-1zM74 74h1v1h-1zM73 76h1v1h-1zM72 78h1v1h-1z" /><path fill="#3bc889" d="M91 36h1v1h-1zM91 37h1v1h-1zM90 39h1v1h-1zM89 41h1v1h-1zM89 42h1v1h-1zM88 44h1v1h-1zM87 46h1v1h-1zM86 48h1v1h-1zM86 49h1v1h-1zM85 51h1v1h-1zM84 53h1v1h-1zM84 54h1v1h-1zM83 56h1v1h-1zM82 58h1v1h-1zM81 60h1v1h-1zM81 61h1v1h-1zM80 63h1v1h-1zM79 65h1v1h-1zM78 67h1v1h-1zM78 68h1v1h-1zM77 70h1v1h-1zM76 72h1v1h-1zM76 73h1v1h-1zM76 74h1v1h-1z" /><path fill="#3bc989" d="M92 36h1v1h-1zM91 38h1v1h-1zM90 40h1v1h-1zM88 45h1v1h-1zM87 47h1v1h-1zM86 50h1v1h-1zM85 52h1v1h-1zM83 57h1v1h-1zM82 59h1v1h-1zM81 62h1v1h-1zM80 64h1v1h-1zM79 66h1v1h-1zM78 69h1v1h-1zM77 71h1v1h-1z" /><path fill="#31ac74" d="M49 37h1v1h-1z" /><path fill="#218759" d="M54 37h1v1h-1zM53 39h1v1h-1zM51 40h2v1h-2zM50 41h2v1h-2z" /><path fill="#238b5d" d="M57 37h1v1h-1z" /><path fill="#248f5f" d="M59 37h1v1h-1zM53 45h1v1h-1zM50 49h1v1h-1z" /><path fill="#259060" d="M60 37h1v1h-1zM59 38h1v1h-1z" /><path fill="#269362" d="M61 37h1v1h-1zM61 38h1v1h-1zM60 39h1v1h-1zM58 41h1v1h-1zM58 42h1v1h-1z" /><path fill="#269463" d="M62 37h1v1h-1zM59 41h1v1h-1zM56 45h1v1h-1zM53 49h1v1h-1z" /><path fill="#279865" d="M64 37h1v1h-1zM59 44h1v1h-1zM58 45h1v1h-1zM55 49h1v1h-1zM51 54h1v1h-1z" /><path fill="#289966" d="M65 37h1v1h-1zM63 39h1v1h-1zM61 42h1v1h-1zM60 43h1v1h-1zM58 46h1v1h-1zM57 47h1v1h-1z" /><path fill="#299b68" d="M66 37h1v1h-1zM65 38h1v1h-1zM63 41h1v1h-1zM60 45h1v1h-1zM59 46h1v1h-1z" /><path fill="#2b9f6a" d="M68 37h1v1h-1z" /><path fill="#2ca06c" d="M69 37h1v1h-1z" /><path fill="#2ca26e" d="M70 37h1v1h-1zM68 40h1v1h-1z" /><path fill="#2da670" d="M72 37h1v1h-1zM68 42h1v1h-1zM62 50h1v1h-1z" /><path fill="#2fac74" d="M75 37h1v1h-1zM72 41h1v1h-1zM71 42h1v1h-1zM71 43h1v1h-1zM66 49h1v1h-1zM65 51h1v1h-1zM65 52h1v1h-1zM64 54h1v1h-1zM63 56h1v1h-1zM63 57h1v1h-1zM62 59h1v1h-1zM61 61h1v1h-1zM60 63h1v1h-1zM60 64h1v1h-1zM59 66h1v1h-1zM58 68h1v1h-1zM58 69h1v1h-1zM57 71h1v1h-1zM56 73h1v1h-1zM55 75h1v1h-1zM55 76h1v1h-1zM54 78h1v1h-1zM53 80h1v1h-1zM52 82h1v1h-1zM52 83h1v1h-1zM51 85h1v1h-1zM50 87h1v1h-1zM50 88h1v1h-1z" /><path fill="#30ad75" d="M76 37h1v1h-1zM49 38h1v1h-1zM72 42h1v1h-1zM68 47h1v1h-1z" /><path fill="#32b178" d="M78 37h1v1h-1zM77 38h1v1h-1z" /><path fill="#33b379" d="M79 37h1v1h-1z" /><path fill="#33b57b" d="M80 37h1v1h-1zM49 45h1v1h-1zM73 48h1v1h-1zM72 50h1v1h-1zM71 53h1v1h-1zM70 55h1v1h-1zM68 60h1v1h-1zM67 62h1v1h-1zM66 65h1v1h-1zM65 67h1v1h-1zM64 69h1v1h-1zM63 72h1v1h-1zM62 74h1v1h-1zM60 79h1v1h-1zM59 81h1v1h-1zM58 84h1v1h-1zM57 86h1v1h-1zM55 91h1v1h-1zM54 93h1v1h-1zM53 96h1v1h-1zM52 98h1v1h-1z" /><path fill="#34b67c" d="M81 37h1v1h-1zM80 38h1v1h-1zM77 42h1v1h-1z" /><path fill="#35b97d" d="M82 37h1v1h-1z" /><path fill="#35bb7e" d="M83 37h1v1h-1zM49 50h1v1h-1z" /><path fill="#36bc80" d="M84 37h1v1h-1zM81 41h1v1h-1zM80 43h1v1h-1zM79 45h1v1h-1zM78 47h1v1h-1zM78 48h1v1h-1zM77 50h1v1h-1zM49 52h1v1h-1zM76 52h1v1h-1zM75 54h1v1h-1zM75 55h1v1h-1zM74 57h1v1h-1zM73 59h1v1h-1zM73 60h1v1h-1zM72 62h1v1h-1zM71 64h1v1h-1zM70 66h1v1h-1zM70 67h1v1h-1zM69 69h1v1h-1zM68 71h1v1h-1zM68 72h1v1h-1zM67 74h1v1h-1zM66 76h1v1h-1zM65 78h1v1h-1zM65 79h1v1h-1zM64 81h1v1h-1zM63 83h1v1h-1zM62 85h1v1h-1zM62 86h1v1h-1zM61 88h1v1h-1zM60 90h1v1h-1zM60 91h1v1h-1zM59 93h1v1h-1zM58 95h1v1h-1zM57 97h1v1h-1z" /><path fill="#37be82" d="M85 37h1v1h-1zM82 42h1v1h-1zM79 49h1v1h-1zM74 61h1v1h-1zM71 68h1v1h-1zM69 73h1v1h-1zM66 80h1v1h-1zM61 92h1v1h-1z" /><path fill="#39c385" d="M87 37h1v1h-1zM87 38h1v1h-1zM86 40h1v1h-1zM85 42h1v1h-1zM85 43h1v1h-1zM84 44h1v1h-1zM84 45h1v1h-1zM83 47h1v1h-1zM83 48h1v1h-1zM82 49h1v1h-1zM82 50h1v1h-1zM81 52h1v1h-1zM80 54h1v1h-1zM80 55h1v1h-1zM79 56h1v1h-1zM79 57h1v1h-1zM78 59h1v1h-1zM77 61h1v1h-1zM77 62h1v1h-1zM76 64h1v1h-1zM75 66h1v1h-1zM75 67h1v1h-1zM74 68h1v1h-1zM74 69h1v1h-1zM73 71h1v1h-1zM72 73h1v1h-1zM72 74h1v1h-1zM71 75h1v1h-1zM71 76h1v1h-1zM70 78h1v1h-1zM70 79h1v1h-1zM69 80h1v1h-1zM69 81h1v1h-1zM68 83h1v1h-1z" /><path fill="#39c486" d="M88 37h1v1h-1zM87 39h1v1h-1zM87 40h1v1h-1zM86 42h1v1h-1zM85 44h1v1h-1zM84 46h1v1h-1zM84 47h1v1h-1zM83 49h1v1h-1zM82 51h1v1h-1zM82 52h1v1h-1zM81 54h1v1h-1zM80 56h1v1h-1zM79 58h1v1h-1zM79 59h1v1h-1zM49 61h1v1h-1zM78 61h1v1h-1zM77 63h1v1h-1zM76 65h1v1h-1zM76 66h1v1h-1zM75 68h1v1h-1zM74 70h1v1h-1zM74 71h1v1h-1zM73 73h1v1h-1zM72 75h1v1h-1zM71 77h1v1h-1zM71 78h1v1h-1zM70 80h1v1h-1zM69 82h1v1h-1z" /><path fill="#3ac587" d="M89 37h1v1h-1zM88 39h1v1h-1zM87 41h1v1h-1zM86 44h1v1h-1zM85 46h1v1h-1zM83 51h1v1h-1zM82 53h1v1h-1zM81 56h1v1h-1zM80 58h1v1h-1zM49 62h1v1h-1zM78 63h1v1h-1zM77 65h1v1h-1zM76 68h1v1h-1zM75 70h1v1h-1zM74 72h1v1h-1zM73 75h1v1h-1zM72 77h1v1h-1zM72 79h1v1h-1z" /><path fill="#3ac788" d="M90 37h1v1h-1zM89 39h1v1h-1zM87 44h1v1h-1zM86 46h1v1h-1zM84 51h1v1h-1zM82 56h1v1h-1zM81 58h1v1h-1zM79 63h1v1h-1zM78 65h1v1h-1zM77 68h1v1h-1zM76 70h1v1h-1zM74 75h1v1h-1zM74 76h1v1h-1zM73 77h1v1h-1zM73 78h1v1h-1z" /><path fill="#3cca8a" d="M92 37h1v1h-1zM92 38h1v1h-1zM91 40h1v1h-1zM90 42h1v1h-1zM89 44h1v1h-1zM89 45h1v1h-1zM88 47h1v1h-1zM87 49h1v1h-1zM86 51h1v1h-1zM86 52h1v1h-1zM85 54h1v1h-1zM84 56h1v1h-1zM84 57h1v1h-1zM83 59h1v1h-1zM82 61h1v1h-1zM81 63h1v1h-1zM81 64h1v1h-1zM80 66h1v1h-1zM79 68h1v1h-1zM79 69h1v1h-1z" /><path fill="#3ccb8b" d="M93 37h1v1h-1zM92 39h1v1h-1zM91 41h1v1h-1zM91 42h1v1h-1zM90 44h1v1h-1zM89 46h1v1h-1zM89 47h1v1h-1zM88 48h1v1h-1zM88 49h1v1h-1zM87 51h1v1h-1zM86 53h1v1h-1zM86 54h1v1h-1zM85 55h1v1h-1zM85 56h1v1h-1zM84 58h1v1h-1zM84 59h1v1h-1zM83 60h1v1h-1zM83 61h1v1h-1zM82 63h1v1h-1zM81 65h1v1h-1zM81 66h1v1h-1zM80 67h1v1h-1zM80 68h1v1h-1z" /><path fill="#3ccc8c" d="M94 37h1v1h-1z" /><path fill="#218658" d="M52 38h1v1h-1zM50 39h2v1h-2z" /><path fill="#218659" d="M53 38h1v1h-1zM52 39h1v1h-1zM50 40h1v1h-1z" /><path fill="#22875a" d="M54 38h1v1h-1z" /><path fill="#228a5b" d="M55 38h1v1h-1zM53 41h1v1h-1zM50 45h1v1h-1z" /><path fill="#238b5c" d="M56 38h1v1h-1zM53 42h1v1h-1zM51 45h1v1h-1z" /><path fill="#238d5d" d="M57 38h1v1h-1zM56 39h1v1h-1zM54 42h1v1h-1zM53 43h1v1h-1zM51 46h1v1h-1z" /><path fill="#248f5e" d="M58 38h1v1h-1zM56 41h1v1h-1z" /><path fill="#259261" d="M60 38h1v1h-1zM59 39h1v1h-1zM57 42h1v1h-1zM51 50h1v1h-1z" /><path fill="#269664" d="M62 38h1v1h-1zM57 45h1v1h-1zM56 46h1v1h-1zM54 49h1v1h-1z" /><path fill="#279765" d="M63 38h1v1h-1zM60 42h1v1h-1zM59 43h1v1h-1zM57 46h1v1h-1zM55 48h1v1h-1zM54 50h1v1h-1z" /><path fill="#289967" d="M64 38h1v1h-1zM62 41h1v1h-1z" /><path fill="#2a9c69" d="M66 38h1v1h-1z" /><path fill="#2b9e6a" d="M67 38h1v1h-1z" /><path fill="#2ba06c" d="M68 38h1v1h-1zM66 41h1v1h-1zM63 45h1v1h-1z" /><path fill="#2ca26d" d="M69 38h1v1h-1z" /><path fill="#2ca46e" d="M70 38h1v1h-1zM64 46h1v1h-1zM60 51h1v1h-1zM59 53h1v1h-1zM54 65h1v1h-1zM51 72h1v1h-1z" /><path fill="#2ea972" d="M73 38h1v1h-1zM72 39h1v1h-1zM70 42h1v1h-1zM68 44h1v1h-1zM65 48h1v1h-1zM63 52h1v1h-1zM62 54h1v1h-1zM60 59h1v1h-1zM59 61h1v1h-1zM57 66h1v1h-1zM56 68h1v1h-1zM55 71h1v1h-1zM54 73h1v1h-1zM52 78h1v1h-1zM51 80h1v1h-1zM50 83h1v1h-1z" /><path fill="#2fab73" d="M74 38h1v1h-1zM70 43h1v1h-1zM64 53h1v1h-1zM63 55h1v1h-1zM61 60h1v1h-1zM58 67h1v1h-1zM56 72h1v1h-1zM53 79h1v1h-1zM51 84h1v1h-1zM50 86h1v1h-1z" /><path fill="#31ad75" d="M75 38h1v1h-1z" /><path fill="#31af76" d="M76 38h1v1h-1zM75 39h1v1h-1zM71 44h1v1h-1z" /><path fill="#32b27a" d="M78 38h1v1h-1z" /><path fill="#33b47b" d="M79 38h1v1h-1zM75 43h1v1h-1z" /><path fill="#34b97e" d="M81 38h1v1h-1zM66 71h1v1h-1zM55 99h1v1h-1z" /><path fill="#35ba7e" d="M82 38h1v1h-1zM81 39h1v1h-1zM79 42h1v1h-1zM78 44h1v1h-1zM77 46h1v1h-1zM76 48h1v1h-1zM76 49h1v1h-1zM75 51h1v1h-1zM74 53h1v1h-1zM74 54h1v1h-1zM73 56h1v1h-1zM72 58h1v1h-1zM71 60h1v1h-1zM71 61h1v1h-1zM70 63h1v1h-1zM69 65h1v1h-1zM69 66h1v1h-1zM68 67h1v1h-1zM68 68h1v1h-1zM67 70h1v1h-1zM66 72h1v1h-1zM66 73h1v1h-1zM65 75h1v1h-1zM64 77h1v1h-1zM63 79h1v1h-1zM63 80h1v1h-1zM62 82h1v1h-1zM61 84h1v1h-1zM61 85h1v1h-1zM60 87h1v1h-1zM59 89h1v1h-1zM58 91h1v1h-1zM58 92h1v1h-1zM57 94h1v1h-1zM56 96h1v1h-1zM56 97h1v1h-1zM55 98h1v1h-1z" /><path fill="#37be81" d="M84 38h1v1h-1zM82 41h1v1h-1zM81 44h1v1h-1zM80 46h1v1h-1zM79 48h1v1h-1zM78 51h1v1h-1zM77 53h1v1h-1zM76 55h1v1h-1zM76 56h1v1h-1zM75 58h1v1h-1zM74 60h1v1h-1zM73 63h1v1h-1zM72 65h1v1h-1zM71 67h1v1h-1zM70 70h1v1h-1zM69 72h1v1h-1zM68 75h1v1h-1zM67 77h1v1h-1zM66 79h1v1h-1zM65 82h1v1h-1zM64 84h1v1h-1zM63 86h1v1h-1zM63 87h1v1h-1zM62 89h1v1h-1zM61 91h2v1h-2z" /><path fill="#38c284" d="M86 38h1v1h-1zM85 40h1v1h-1zM85 41h1v1h-1zM84 43h1v1h-1zM83 45h1v1h-1zM83 46h1v1h-1zM82 48h1v1h-1zM81 50h1v1h-1zM80 52h1v1h-1zM80 53h1v1h-1zM79 55h1v1h-1zM78 57h1v1h-1zM77 59h1v1h-1zM77 60h1v1h-1zM76 62h1v1h-1zM75 64h1v1h-1zM75 65h1v1h-1zM74 67h1v1h-1zM73 69h1v1h-1zM72 71h1v1h-1zM72 72h1v1h-1zM71 74h1v1h-1zM70 76h1v1h-1zM70 77h1v1h-1zM69 79h1v1h-1zM68 81h1v1h-1zM67 83h1v1h-1zM67 84h1v1h-1zM67 85h1v1h-1z" /><path fill="#3bc788" d="M90 38h1v1h-1zM89 40h1v1h-1zM88 42h1v1h-1zM87 45h1v1h-1zM86 47h1v1h-1zM85 49h1v1h-1zM84 52h1v1h-1zM83 54h1v1h-1zM82 57h1v1h-1zM81 59h1v1h-1zM80 61h1v1h-1zM79 64h1v1h-1zM78 66h1v1h-1zM77 69h1v1h-1zM76 71h1v1h-1zM75 73h1v1h-1z" /><path fill="#3dcc8c" d="M93 38h1v1h-1zM93 39h1v1h-1zM92 41h1v1h-1zM91 43h1v1h-1zM91 44h1v1h-1zM90 46h1v1h-1zM89 48h1v1h-1zM88 50h1v1h-1zM88 51h1v1h-1zM87 53h1v1h-1zM86 55h1v1h-1zM85 57h1v1h-1zM85 58h1v1h-1zM84 60h1v1h-1zM83 62h1v1h-1zM83 63h1v1h-1zM82 65h1v1h-1zM81 67h1v1h-1z" /><path fill="#3dcd8d" d="M94 38h1v1h-1zM92 43h1v1h-1zM91 45h1v1h-1zM90 48h1v1h-1zM89 50h1v1h-1zM87 55h1v1h-1zM86 57h1v1h-1zM85 60h1v1h-1zM84 62h1v1h-1zM83 64h1v1h-1z" /><path fill="#30ad76" d="M49 39h1v1h-1zM69 46h1v1h-1z" /><path fill="#22895a" d="M54 39h1v1h-1z" /><path fill="#228a5c" d="M55 39h1v1h-1z" /><path fill="#248e5f" d="M57 39h1v1h-1zM55 42h1v1h-1z" /><path fill="#249060" d="M58 39h1v1h-1zM54 45h1v1h-1z" /><path fill="#269563" d="M61 39h1v1h-1zM58 43h1v1h-1zM57 44h1v1h-1z" /><path fill="#289765" d="M62 39h1v1h-1z" /><path fill="#299a67" d="M64 39h1v1h-1z" /><path fill="#2a9d68" d="M65 39h1v1h-1z" /><path fill="#2a9e6a" d="M66 39h1v1h-1zM57 51h1v1h-1z" /><path fill="#2ba26c" d="M68 39h1v1h-1zM59 51h1v1h-1zM57 54h1v1h-1zM55 59h1v1h-1zM54 61h1v1h-1zM52 66h1v1h-1zM50 71h1v1h-1z" /><path fill="#2ca36e" d="M69 39h1v1h-1zM66 43h1v1h-1z" /><path fill="#2da56e" d="M70 39h1v1h-1zM68 41h1v1h-1zM66 44h1v1h-1z" /><path fill="#2da771" d="M71 39h1v1h-1zM67 44h1v1h-1zM65 47h1v1h-1zM63 49h1v1h-1z" /><path fill="#30ab74" d="M73 39h1v1h-1z" /><path fill="#31b078" d="M76 39h1v1h-1z" /><path fill="#33b47a" d="M78 39h1v1h-1z" /><path fill="#33b67c" d="M79 39h1v1h-1zM75 45h1v1h-1zM73 50h1v1h-1zM70 57h1v1h-1zM65 69h1v1h-1zM62 76h1v1h-1zM60 81h1v1h-1zM57 88h1v1h-1z" /><path fill="#34b87d" d="M80 39h1v1h-1zM79 40h1v1h-1zM77 43h1v1h-1zM76 45h1v1h-1zM76 46h1v1h-1zM49 47h1v1h-1zM75 48h1v1h-1zM74 50h1v1h-1zM74 51h1v1h-1zM73 53h1v1h-1zM72 55h1v1h-1zM71 57h1v1h-1zM71 58h1v1h-1zM70 60h1v1h-1zM69 62h1v1h-1zM68 64h1v1h-1zM68 65h1v1h-1zM67 67h1v1h-1zM66 69h1v1h-1zM66 70h1v1h-1zM65 72h1v1h-1zM64 74h1v1h-1zM63 76h1v1h-1zM63 77h1v1h-1zM62 79h1v1h-1zM61 81h1v1h-1zM61 82h1v1h-1zM60 83h1v1h-1zM60 84h1v1h-1zM59 86h1v1h-1zM58 88h1v1h-1zM58 89h1v1h-1zM57 91h1v1h-1zM56 93h1v1h-1zM55 95h1v1h-1zM55 96h1v1h-1zM54 98h1v1h-1zM54 99h1v1h-1z" /><path fill="#36bc7f" d="M82 39h1v1h-1zM80 42h1v1h-1zM77 49h1v1h-1zM72 61h1v1h-1zM69 68h1v1h-1zM67 73h1v1h-1zM64 80h1v1h-1zM59 92h1v1h-1z" /><path fill="#37bd80" d="M83 39h1v1h-1z" /><path fill="#37c082" d="M84 39h1v1h-1zM79 51h1v1h-1zM76 58h1v1h-1zM74 63h1v1h-1zM71 70h1v1h-1zM66 82h1v1h-1zM63 89h1v1h-1z" /><path fill="#38c183" d="M85 39h1v1h-1zM84 41h1v1h-1zM83 43h1v1h-1zM82 46h1v1h-1zM81 48h1v1h-1zM79 53h1v1h-1zM78 55h1v1h-1zM77 58h1v1h-1zM76 60h1v1h-1zM74 65h1v1h-1zM73 67h1v1h-1zM72 70h1v1h-1zM71 72h1v1h-1zM70 74h1v1h-1zM69 77h1v1h-1zM68 79h1v1h-1zM66 84h1v1h-1zM65 86h2v1h-2zM64 89h1v1h-1z" /><path fill="#39c285" d="M86 39h1v1h-1zM81 51h1v1h-1zM78 58h1v1h-1zM76 63h1v1h-1zM73 70h1v1h-1zM68 82h1v1h-1z" /><path fill="#3cc98a" d="M91 39h1v1h-1zM90 41h1v1h-1zM88 46h1v1h-1zM85 53h1v1h-1zM83 58h1v1h-1zM80 65h1v1h-1zM78 70h1v1h-1zM77 72h1v1h-1z" /><path fill="#31ae76" d="M49 40h1v1h-1z" /><path fill="#21885a" d="M53 40h1v1h-1zM52 41h1v1h-1zM50 42h2v1h-2z" /><path fill="#228b5c" d="M54 40h1v1h-1zM54 41h1v1h-1zM50 46h1v1h-1z" /><path fill="#238c5d" d="M55 40h1v1h-1zM52 44h1v1h-1z" /><path fill="#238d5e" d="M56 40h1v1h-1z" /><path fill="#24905f" d="M57 40h1v1h-1zM55 43h1v1h-1zM54 44h1v1h-1zM52 47h1v1h-1z" /><path fill="#259361" d="M59 40h1v1h-1zM55 45h1v1h-1zM53 48h1v1h-1zM52 49h1v1h-1z" /><path fill="#289865" d="M62 40h1v1h-1z" /><path fill="#299a66" d="M63 40h1v1h-1z" /><path fill="#299c69" d="M64 40h1v1h-1z" /><path fill="#2a9d6a" d="M65 40h1v1h-1zM61 45h1v1h-1z" /><path fill="#2aa06b" d="M66 40h1v1h-1zM60 48h1v1h-1zM55 55h1v1h-1zM55 56h1v1h-1zM54 58h1v1h-1zM53 60h1v1h-1zM52 62h1v1h-1zM52 63h1v1h-1zM51 65h1v1h-1zM50 67h1v1h-1z" /><path fill="#2ba16d" d="M67 40h1v1h-1zM58 52h1v1h-1z" /><path fill="#2ca56f" d="M69 40h1v1h-1zM65 45h1v1h-1zM63 48h1v1h-1zM60 52h1v1h-1zM58 57h1v1h-1zM57 59h1v1h-1zM56 62h1v1h-1zM55 64h1v1h-1zM54 66h1v1h-1zM53 69h1v1h-1zM52 71h1v1h-1zM50 76h1v1h-1z" /><path fill="#2ea770" d="M70 40h1v1h-1z" /><path fill="#2ea971" d="M71 40h1v1h-1zM61 56h1v1h-1zM53 75h1v1h-1z" /><path fill="#30ad74" d="M73 40h1v1h-1zM69 45h1v1h-1z" /><path fill="#30af76" d="M74 40h1v1h-1zM73 42h1v1h-1zM72 43h1v1h-1zM69 47h1v1h-1zM68 49h1v1h-1zM68 50h1v1h-1zM67 51h1v1h-1zM67 52h1v1h-1zM66 54h1v1h-1zM65 56h1v1h-1zM65 57h1v1h-1zM64 59h1v1h-1zM63 61h1v1h-1zM63 62h1v1h-1zM62 63h1v1h-1zM62 64h1v1h-1zM61 66h1v1h-1zM60 68h1v1h-1zM60 69h1v1h-1zM59 71h1v1h-1zM58 73h1v1h-1zM58 74h1v1h-1zM57 75h1v1h-1zM57 76h1v1h-1zM56 78h1v1h-1zM55 80h1v1h-1zM55 81h1v1h-1zM54 82h1v1h-1zM54 83h1v1h-1zM53 85h1v1h-1zM52 87h1v1h-1zM52 88h1v1h-1zM51 90h1v1h-1z" /><path fill="#32b278" d="M76 40h1v1h-1zM70 50h1v1h-1zM65 62h1v1h-1zM62 69h1v1h-1zM60 74h1v1h-1zM57 81h1v1h-1zM52 93h1v1h-1z" /><path fill="#32b47a" d="M77 40h1v1h-1zM74 44h1v1h-1zM73 46h1v1h-1zM72 48h1v1h-1zM72 49h1v1h-1zM71 51h1v1h-1zM70 53h1v1h-1zM69 55h1v1h-1zM69 56h1v1h-1zM68 58h1v1h-1zM67 60h1v1h-1zM66 62h1v1h-1zM66 63h1v1h-1zM49 64h1v1h-1zM65 65h1v1h-1zM64 67h1v1h-1zM64 68h1v1h-1zM63 70h1v1h-1zM62 72h1v1h-1zM61 74h1v1h-1zM61 75h1v1h-1zM60 77h1v1h-1zM59 79h1v1h-1zM59 80h1v1h-1zM58 82h1v1h-1zM57 84h1v1h-1zM56 86h1v1h-1zM56 87h1v1h-1zM55 89h1v1h-1zM54 91h1v1h-1zM53 93h1v1h-1zM53 94h1v1h-1zM52 96h1v1h-1z" /><path fill="#33b67b" d="M78 40h1v1h-1zM75 44h1v1h-1zM49 46h1v1h-1zM74 46h1v1h-1zM74 47h1v1h-1zM73 49h1v1h-1zM72 51h1v1h-1zM72 52h1v1h-1zM71 54h1v1h-1zM70 56h1v1h-1zM69 58h1v1h-1zM69 59h1v1h-1zM68 61h1v1h-1zM67 63h1v1h-1zM67 64h1v1h-1zM66 66h1v1h-1zM65 68h1v1h-1zM64 70h1v1h-1zM64 71h1v1h-1zM63 73h1v1h-1zM62 75h1v1h-1zM61 77h1v1h-1zM61 78h1v1h-1zM60 80h1v1h-1zM59 82h1v1h-1zM59 83h1v1h-1zM58 85h1v1h-1zM57 87h1v1h-1zM56 89h1v1h-1zM56 90h1v1h-1zM55 92h1v1h-1zM54 94h1v1h-1zM54 95h1v1h-1zM53 97h1v1h-1z" /><path fill="#35b97f" d="M80 40h1v1h-1z" /><path fill="#36bd81" d="M82 40h1v1h-1zM81 42h1v1h-1zM80 45h1v1h-1zM79 47h1v1h-1zM77 52h1v1h-1zM76 54h1v1h-1zM75 57h1v1h-1zM74 59h1v1h-1zM73 61h1v1h-1zM72 64h1v1h-1zM71 66h1v1h-1zM69 71h1v1h-1zM68 73h1v1h-1zM67 76h1v1h-1zM66 78h1v1h-1zM64 83h1v1h-1zM63 85h1v1h-1zM62 88h1v1h-1zM61 90h1v1h-1zM60 92h1v1h-1zM59 95h1v1h-1z" /><path fill="#37bf82" d="M83 40h1v1h-1zM83 41h1v1h-1zM82 43h1v1h-1zM81 45h1v1h-1zM81 46h1v1h-1zM80 47h1v1h-1zM80 48h1v1h-1zM79 50h1v1h-1zM78 52h1v1h-1zM78 53h1v1h-1zM49 54h1v1h-1zM77 54h1v1h-1zM77 55h1v1h-1zM76 57h1v1h-1zM75 59h1v1h-1zM75 60h1v1h-1zM74 62h1v1h-1zM73 64h1v1h-1zM73 65h1v1h-1zM72 66h1v1h-1zM72 67h1v1h-1zM71 69h1v1h-1zM70 71h1v1h-1zM70 72h1v1h-1zM69 74h1v1h-1zM68 76h1v1h-1zM68 77h1v1h-1zM67 78h1v1h-1zM67 79h1v1h-1zM66 81h1v1h-1zM65 83h1v1h-1zM65 84h1v1h-1zM64 85h1v1h-1zM64 86h1v1h-1zM63 88h1v1h-1zM62 90h1v1h-1z" /><path fill="#3ccc8b" d="M92 40h1v1h-1z" /><path fill="#3dcd8c" d="M93 40h1v1h-1zM92 42h1v1h-1zM90 47h1v1h-1zM89 49h1v1h-1zM88 52h1v1h-1zM87 54h1v1h-1zM86 56h1v1h-1zM85 59h1v1h-1zM84 61h1v1h-1z" /><path fill="#31b076" d="M49 41h1v1h-1z" /><path fill="#238e5d" d="M55 41h1v1h-1zM50 48h1v1h-1z" /><path fill="#259061" d="M57 41h1v1h-1z" /><path fill="#2a9f6b" d="M65 41h1v1h-1zM62 45h1v1h-1zM56 53h1v1h-1z" /><path fill="#2ba36d" d="M67 41h1v1h-1zM63 46h1v1h-1zM61 49h1v1h-1zM60 50h1v1h-1zM58 53h1v1h-1zM57 55h1v1h-1zM57 56h1v1h-1zM56 58h1v1h-1zM55 60h1v1h-1zM55 61h1v1h-1zM54 62h1v1h-1zM54 63h1v1h-1zM53 65h1v1h-1zM52 67h1v1h-1zM52 68h1v1h-1zM51 69h1v1h-1zM51 70h1v1h-1zM50 72h1v1h-1zM50 73h1v1h-1z" /><path fill="#2ea66f" d="M69 41h1v1h-1z" /><path fill="#31b077" d="M74 41h1v1h-1zM72 44h1v1h-1zM71 45h1v1h-1zM70 47h1v1h-1zM69 49h1v1h-1zM68 51h1v1h-1zM67 54h1v1h-1zM66 56h1v1h-1zM65 58h1v1h-1zM65 59h1v1h-1zM64 61h1v1h-1zM63 63h1v1h-1zM62 66h1v1h-1zM61 68h1v1h-1zM60 70h1v1h-1zM59 73h1v1h-1zM58 75h1v1h-1zM57 78h1v1h-1zM56 80h1v1h-1zM55 82h1v1h-1zM54 85h1v1h-1zM53 87h1v1h-1zM52 89h1v1h-1zM52 90h1v1h-1zM51 92h1v1h-1z" /><path fill="#31b178" d="M75 41h1v1h-1zM74 42h1v1h-1zM71 46h1v1h-1zM70 48h1v1h-1zM69 51h1v1h-1zM68 53h1v1h-1zM66 58h1v1h-1zM65 60h1v1h-1zM64 63h1v1h-1zM63 65h1v1h-1zM61 70h1v1h-1zM60 72h1v1h-1zM59 75h1v1h-1zM58 77h1v1h-1zM57 79h1v1h-1zM56 82h1v1h-1zM55 84h1v1h-1zM53 89h1v1h-1zM52 91h1v1h-1zM51 94h1v1h-1z" /><path fill="#32b37a" d="M76 41h1v1h-1zM49 44h1v1h-1z" /><path fill="#34b67b" d="M77 41h1v1h-1z" /><path fill="#35bb7f" d="M80 41h1v1h-1zM79 43h1v1h-1zM78 45h1v1h-1zM78 46h1v1h-1zM77 48h1v1h-1zM76 50h1v1h-1zM76 51h1v1h-1zM75 52h1v1h-1zM75 53h1v1h-1zM74 55h1v1h-1zM73 57h1v1h-1zM73 58h1v1h-1zM72 60h1v1h-1zM71 62h1v1h-1zM71 63h1v1h-1zM70 64h1v1h-1zM70 65h1v1h-1zM69 67h1v1h-1zM68 69h1v1h-1zM68 70h1v1h-1zM67 72h1v1h-1zM66 74h1v1h-1zM65 76h1v1h-1zM65 77h1v1h-1zM64 79h1v1h-1zM63 81h1v1h-1zM63 82h1v1h-1zM62 83h1v1h-1zM62 84h1v1h-1zM61 86h1v1h-1zM60 88h1v1h-1zM60 89h1v1h-1zM59 91h1v1h-1zM58 93h1v1h-1zM58 94h1v1h-1zM57 95h1v1h-1zM57 96h1v1h-1zM56 98h1v1h-1z" /><path fill="#39c485" d="M86 41h1v1h-1zM81 53h1v1h-1zM78 60h1v1h-1zM73 72h1v1h-1z" /><path fill="#3ac688" d="M88 41h1v1h-1zM85 48h1v1h-1zM83 53h1v1h-1zM80 60h1v1h-1zM75 72h1v1h-1z" /><path fill="#33b377" d="M49 42h1v1h-1z" /><path fill="#218a5b" d="M52 42h1v1h-1z" /><path fill="#259160" d="M56 42h1v1h-1zM52 48h1v1h-1zM51 49h1v1h-1z" /><path fill="#299b67" d="M62 42h1v1h-1z" /><path fill="#299d69" d="M63 42h1v1h-1zM62 43h1v1h-1zM62 44h1v1h-1zM57 50h1v1h-1zM54 54h1v1h-1zM52 58h1v1h-1z" /><path fill="#2a9f6a" d="M64 42h1v1h-1zM61 46h1v1h-1z" /><path fill="#2aa06c" d="M65 42h1v1h-1z" /><path fill="#2ca36d" d="M66 42h1v1h-1zM65 44h1v1h-1zM64 45h1v1h-1z" /><path fill="#2da46e" d="M67 42h1v1h-1z" /><path fill="#33b479" d="M75 42h1v1h-1z" /><path fill="#33b57a" d="M76 42h1v1h-1zM74 45h1v1h-1zM73 47h1v1h-1zM71 52h1v1h-1zM70 54h1v1h-1zM69 57h1v1h-1zM68 59h1v1h-1zM67 61h1v1h-1zM66 64h1v1h-1zM65 66h1v1h-1zM63 71h1v1h-1zM62 73h1v1h-1zM61 76h1v1h-1zM60 78h1v1h-1zM58 83h1v1h-1zM57 85h1v1h-1zM56 88h1v1h-1zM55 90h1v1h-1zM54 92h1v1h-1zM53 95h1v1h-1zM52 97h1v1h-1z" /><path fill="#34b97d" d="M78 42h1v1h-1zM77 44h1v1h-1zM76 47h1v1h-1zM75 49h1v1h-1zM73 54h1v1h-1zM72 56h1v1h-1zM71 59h1v1h-1zM70 61h1v1h-1zM69 63h1v1h-1zM68 66h1v1h-1zM67 68h1v1h-1zM65 73h1v1h-1zM64 75h1v1h-1zM63 78h1v1h-1zM62 80h1v1h-1zM60 85h1v1h-1zM59 87h1v1h-1zM58 90h1v1h-1zM57 92h1v1h-1zM56 94h1v1h-1zM55 97h1v1h-1z" /><path fill="#37c083" d="M83 42h1v1h-1zM82 44h1v1h-1zM80 49h1v1h-1zM78 54h1v1h-1zM77 56h1v1h-1zM75 61h1v1h-1zM72 68h1v1h-1zM70 73h1v1h-1zM69 75h1v1h-1zM67 80h1v1h-1zM65 85h1v1h-1zM64 87h1v1h-1zM63 90h1v1h-1zM62 92h1v1h-1z" /><path fill="#38c184" d="M84 42h1v1h-1zM83 44h1v1h-1zM82 47h1v1h-1zM81 49h1v1h-1zM80 51h1v1h-1zM79 54h1v1h-1zM49 56h1v1h-1zM78 56h1v1h-1zM76 61h1v1h-1zM75 63h1v1h-1zM74 66h1v1h-1zM73 68h1v1h-1zM71 73h1v1h-1zM70 75h1v1h-1zM69 78h1v1h-1zM68 80h1v1h-1zM67 82h1v1h-1zM66 85h1v1h-1zM65 87h1v1h-1z" /><path fill="#33b279" d="M49 43h1v1h-1z" /><path fill="#21895a" d="M50 43h1v1h-1z" /><path fill="#22895b" d="M51 43h1v1h-1zM50 44h1v1h-1z" /><path fill="#248e5e" d="M54 43h1v1h-1z" /><path fill="#259260" d="M56 43h1v1h-1z" /><path fill="#269462" d="M57 43h1v1h-1z" /><path fill="#299e6a" d="M63 43h1v1h-1zM59 48h1v1h-1zM58 50h1v1h-1zM54 55h1v1h-1zM51 62h1v1h-1z" /><path fill="#2ba16c" d="M64 43h1v1h-1zM64 44h1v1h-1z" /><path fill="#2ca26c" d="M65 43h1v1h-1z" /><path fill="#2da66f" d="M67 43h1v1h-1z" /><path fill="#2da770" d="M68 43h1v1h-1zM66 45h1v1h-1zM64 48h1v1h-1zM62 51h1v1h-1zM61 53h1v1h-1zM60 55h1v1h-1zM59 57h1v1h-1zM59 58h1v1h-1zM58 60h1v1h-1zM57 62h1v1h-1zM57 63h1v1h-1zM56 64h1v1h-1zM56 65h1v1h-1zM55 67h1v1h-1zM54 69h1v1h-1zM54 70h1v1h-1zM53 72h1v1h-1zM52 74h1v1h-1zM51 76h1v1h-1zM51 77h1v1h-1zM50 79h1v1h-1z" /><path fill="#2eaa72" d="M69 43h1v1h-1zM67 46h1v1h-1zM66 47h1v1h-1zM64 50h1v1h-1zM64 51h1v1h-1zM63 53h1v1h-1zM62 55h1v1h-1zM61 57h1v1h-1zM61 58h1v1h-1zM60 60h1v1h-1zM59 62h1v1h-1zM59 63h1v1h-1zM58 64h1v1h-1zM58 65h1v1h-1zM57 67h1v1h-1zM56 69h1v1h-1zM56 70h1v1h-1zM55 72h1v1h-1zM54 74h1v1h-1zM53 76h1v1h-1zM53 77h1v1h-1zM52 79h1v1h-1zM51 81h1v1h-1zM51 82h1v1h-1zM50 84h1v1h-1z" /><path fill="#32b177" d="M73 43h1v1h-1z" /><path fill="#32b379" d="M74 43h1v1h-1zM73 45h1v1h-1zM72 46h1v1h-1zM72 47h1v1h-1zM71 49h1v1h-1zM70 51h1v1h-1zM70 52h1v1h-1zM69 53h1v1h-1zM69 54h1v1h-1zM68 56h1v1h-1zM67 58h1v1h-1zM67 59h1v1h-1zM66 61h1v1h-1zM65 63h1v1h-1zM65 64h1v1h-1zM64 65h1v1h-1zM64 66h1v1h-1zM63 68h1v1h-1zM62 70h1v1h-1zM62 71h1v1h-1zM61 72h1v1h-1zM61 73h1v1h-1zM60 75h1v1h-1zM60 76h1v1h-1zM59 77h1v1h-1zM59 78h1v1h-1zM58 80h1v1h-1zM57 82h1v1h-1zM57 83h1v1h-1zM56 84h1v1h-1zM56 85h1v1h-1zM55 87h1v1h-1zM54 89h1v1h-1zM54 90h1v1h-1zM53 92h1v1h-1zM52 94h1v1h-1zM52 95h1v1h-1zM51 96h1v1h-1zM51 97h1v1h-1z" /><path fill="#33b77c" d="M76 43h1v1h-1zM74 48h1v1h-1zM71 55h1v1h-1zM69 60h1v1h-1zM68 62h1v1h-1zM66 67h1v1h-1zM63 74h1v1h-1zM61 79h1v1h-1zM58 86h1v1h-1zM56 91h1v1h-1zM55 93h1v1h-1zM53 98h1v1h-1zM53 99h1v1h-1z" /><path fill="#36be81" d="M81 43h1v1h-1zM78 50h1v1h-1zM49 53h1v1h-1zM73 62h1v1h-1zM70 69h1v1h-1zM68 74h1v1h-1zM65 81h1v1h-1zM60 93h2v1h-2z" /><path fill="#3bc888" d="M88 43h1v1h-1zM85 50h1v1h-1zM83 55h1v1h-1zM80 62h1v1h-1zM75 74h1v1h-1z" /><path fill="#3bc98a" d="M89 43h1v1h-1zM87 48h1v1h-1zM84 55h1v1h-1zM82 60h1v1h-1zM79 67h1v1h-1zM77 73h1v1h-1z" /><path fill="#3cca8b" d="M90 43h1v1h-1zM87 50h1v1h-1zM82 62h1v1h-1z" /><path fill="#228b5b" d="M51 44h1v1h-1z" /><path fill="#259362" d="M56 44h1v1h-1zM50 52h1v1h-1z" /><path fill="#279764" d="M58 44h1v1h-1zM56 47h1v1h-1z" /><path fill="#2ba06b" d="M63 44h1v1h-1zM62 46h1v1h-1z" /><path fill="#2eaa73" d="M69 44h1v1h-1zM68 45h1v1h-1zM62 56h1v1h-1zM57 68h1v1h-1zM54 75h1v1h-1z" /><path fill="#2fad75" d="M70 44h1v1h-1zM67 49h1v1h-1zM66 51h1v1h-1zM65 54h1v1h-1zM64 56h1v1h-1zM63 58h1v1h-1zM62 61h1v1h-1zM61 63h1v1h-1zM59 68h1v1h-1zM58 70h1v1h-1zM57 73h1v1h-1zM56 75h1v1h-1zM54 80h1v1h-1zM53 82h1v1h-1zM52 85h1v1h-1zM51 87h1v1h-1z" /><path fill="#34b77c" d="M76 44h1v1h-1zM75 46h1v1h-1zM74 49h1v1h-1zM73 51h1v1h-1zM72 53h1v1h-1zM72 54h1v1h-1zM71 56h1v1h-1zM70 58h1v1h-1zM69 61h1v1h-1zM68 63h1v1h-1zM67 65h1v1h-1zM67 66h1v1h-1zM66 68h1v1h-1zM65 70h1v1h-1zM64 72h1v1h-1zM64 73h1v1h-1zM63 75h1v1h-1zM62 77h1v1h-1zM61 80h1v1h-1zM60 82h1v1h-1zM59 84h1v1h-1zM59 85h1v1h-1zM58 87h1v1h-1zM57 89h1v1h-1zM56 92h1v1h-1zM55 94h1v1h-1zM54 96h1v1h-1zM54 97h1v1h-1z" /><path fill="#238e5e" d="M52 45h1v1h-1zM52 46h1v1h-1zM51 47h1v1h-1z" /><path fill="#289a66" d="M59 45h1v1h-1z" /><path fill="#2da871" d="M67 45h1v1h-1zM66 46h1v1h-1zM63 50h1v1h-1zM62 52h1v1h-1zM61 54h1v1h-1zM61 55h1v1h-1zM60 57h1v1h-1zM59 59h1v1h-1zM58 61h1v1h-1zM58 62h1v1h-1zM57 64h1v1h-1zM56 66h1v1h-1zM56 67h1v1h-1zM55 69h1v1h-1zM54 71h1v1h-1zM53 73h1v1h-1zM53 74h1v1h-1zM52 76h1v1h-1zM51 78h1v1h-1zM51 79h1v1h-1zM50 80h1v1h-1zM50 81h1v1h-1z" /><path fill="#30ae75" d="M70 45h1v1h-1zM68 48h1v1h-1zM67 50h1v1h-1zM66 52h1v1h-1zM66 53h1v1h-1zM65 55h1v1h-1zM64 57h1v1h-1zM63 59h1v1h-1zM63 60h1v1h-1zM62 62h1v1h-1zM61 64h1v1h-1zM60 67h1v1h-1zM59 69h1v1h-1zM58 71h1v1h-1zM58 72h1v1h-1zM57 74h1v1h-1zM56 76h1v1h-1zM55 78h1v1h-1zM55 79h1v1h-1zM54 81h1v1h-1zM53 83h1v1h-1zM53 84h1v1h-1zM52 86h1v1h-1zM51 88h1v1h-1z" /><path fill="#31b278" d="M72 45h1v1h-1zM71 47h1v1h-1zM70 49h1v1h-1zM69 52h1v1h-1zM68 54h1v1h-1zM67 56h1v1h-1zM67 57h1v1h-1zM66 59h1v1h-1zM65 61h1v1h-1zM64 64h1v1h-1zM63 66h1v1h-1zM62 68h1v1h-1zM61 71h1v1h-1zM60 73h1v1h-1zM59 76h1v1h-1zM58 78h1v1h-1zM57 80h1v1h-1zM56 83h1v1h-1zM55 85h1v1h-1zM54 87h1v1h-1zM54 88h1v1h-1zM53 90h1v1h-1zM52 92h1v1h-1zM51 95h1v1h-1z" /><path fill="#39c586" d="M85 45h1v1h-1zM80 57h1v1h-1zM77 64h1v1h-1zM72 76h1v1h-1z" /><path fill="#3dcc8b" d="M90 45h1v1h-1zM87 52h1v1h-1zM82 64h1v1h-1z" /><path fill="#249160" d="M53 46h1v1h-1zM50 50h1v1h-1z" /><path fill="#259262" d="M54 46h1v1h-1z" /><path fill="#259463" d="M55 46h1v1h-1zM51 52h1v1h-1z" /><path fill="#299e69" d="M60 46h1v1h-1zM58 49h1v1h-1zM55 53h1v1h-1zM53 56h1v1h-1zM53 57h1v1h-1zM52 59h1v1h-1zM51 61h1v1h-1zM50 63h1v1h-1zM50 64h1v1h-1z" /><path fill="#2ca66f" d="M65 46h1v1h-1zM61 51h1v1h-1zM60 53h1v1h-1zM59 55h1v1h-1zM59 56h1v1h-1zM58 58h1v1h-1zM57 60h1v1h-1zM57 61h1v1h-1zM56 63h1v1h-1zM55 65h1v1h-1zM54 67h1v1h-1zM54 68h1v1h-1zM53 70h1v1h-1zM52 72h1v1h-1zM51 74h1v1h-1zM51 75h1v1h-1zM50 77h1v1h-1z" /><path fill="#2fac73" d="M68 46h1v1h-1zM62 58h1v1h-1zM59 65h1v1h-1zM57 70h1v1h-1zM54 77h1v1h-1z" /><path fill="#30b077" d="M70 46h1v1h-1zM67 53h1v1h-1zM62 65h1v1h-1zM59 72h1v1h-1zM57 77h1v1h-1zM54 84h1v1h-1z" /><path fill="#228c5d" d="M50 47h1v1h-1z" /><path fill="#249161" d="M53 47h1v1h-1zM50 51h1v1h-1z" /><path fill="#259462" d="M54 47h1v1h-1zM52 50h1v1h-1zM51 51h1v1h-1z" /><path fill="#279663" d="M55 47h1v1h-1z" /><path fill="#289b67" d="M58 47h1v1h-1zM57 48h1v1h-1zM56 50h1v1h-1zM55 51h1v1h-1zM53 54h1v1h-1zM52 55h1v1h-1zM51 57h1v1h-1zM50 59h1v1h-1z" /><path fill="#299d68" d="M59 47h1v1h-1z" /><path fill="#2a9e69" d="M60 47h1v1h-1z" /><path fill="#2aa16b" d="M61 47h1v1h-1zM58 51h1v1h-1zM56 54h1v1h-1zM54 59h1v1h-1zM53 61h1v1h-1zM52 64h1v1h-1zM51 66h1v1h-1zM50 68h1v1h-1z" /><path fill="#2ba26d" d="M62 47h1v1h-1zM56 57h1v1h-1zM53 64h1v1h-1z" /><path fill="#2ba36e" d="M63 47h1v1h-1z" /><path fill="#2ca670" d="M64 47h1v1h-1zM60 54h1v1h-1zM55 66h1v1h-1zM52 73h1v1h-1zM50 78h1v1h-1z" /><path fill="#2fab74" d="M67 47h1v1h-1z" /><path fill="#34b87c" d="M75 47h1v1h-1zM73 52h1v1h-1zM70 59h1v1h-1zM65 71h1v1h-1zM62 78h1v1h-1zM57 90h1v1h-1z" /><path fill="#35ba7f" d="M77 47h1v1h-1zM72 59h1v1h-1zM67 71h1v1h-1zM64 78h1v1h-1zM59 90h1v1h-1z" /><path fill="#33b87d" d="M49 48h1v1h-1z" /><path fill="#23905f" d="M51 48h1v1h-1z" /><path fill="#269562" d="M54 48h1v1h-1z" /><path fill="#279866" d="M56 48h1v1h-1zM50 56h1v1h-1z" /><path fill="#2aa16c" d="M61 48h1v1h-1zM60 49h1v1h-1zM59 50h1v1h-1zM56 55h1v1h-1zM55 57h1v1h-1zM54 60h1v1h-1zM53 62h1v1h-1zM51 67h1v1h-1zM50 69h1v1h-1z" /><path fill="#2ba46e" d="M62 48h1v1h-1zM59 52h1v1h-1zM58 55h1v1h-1zM57 57h1v1h-1zM56 59h1v1h-1zM56 60h1v1h-1zM55 62h1v1h-1zM54 64h1v1h-1zM53 67h1v1h-1zM52 69h1v1h-1zM51 71h1v1h-1zM50 74h1v1h-1z" /><path fill="#2fad74" d="M67 48h1v1h-1zM66 50h1v1h-1zM65 53h1v1h-1zM64 55h1v1h-1zM62 60h1v1h-1zM61 62h1v1h-1zM60 65h1v1h-1zM59 67h1v1h-1zM57 72h1v1h-1zM56 74h1v1h-1zM55 77h1v1h-1zM54 79h1v1h-1zM53 81h1v1h-1zM52 84h1v1h-1zM51 86h1v1h-1z" /><path fill="#30b076" d="M69 48h1v1h-1zM66 55h1v1h-1zM64 60h1v1h-1zM61 67h1v1h-1zM56 79h1v1h-1zM53 86h1v1h-1zM51 91h1v1h-1z" /><path fill="#289b68" d="M57 49h1v1h-1z" /><path fill="#299f6a" d="M59 49h1v1h-1zM55 54h1v1h-1zM54 56h1v1h-1zM53 58h1v1h-1zM53 59h1v1h-1zM52 60h1v1h-1zM52 61h1v1h-1zM51 63h1v1h-1zM50 65h1v1h-1zM50 66h1v1h-1z" /><path fill="#2ca56e" d="M62 49h1v1h-1zM59 54h1v1h-1zM58 56h1v1h-1zM57 58h1v1h-1zM56 61h1v1h-1zM55 63h1v1h-1zM53 68h1v1h-1zM52 70h1v1h-1zM51 73h1v1h-1zM50 75h1v1h-1z" /><path fill="#2ea872" d="M64 49h1v1h-1z" /><path fill="#2eab73" d="M65 49h1v1h-1zM65 50h1v1h-1zM64 52h1v1h-1zM63 54h1v1h-1zM62 57h1v1h-1zM61 59h1v1h-1zM60 61h1v1h-1zM60 62h1v1h-1zM59 64h1v1h-1zM58 66h1v1h-1zM57 69h1v1h-1zM56 71h1v1h-1zM55 73h1v1h-1zM55 74h1v1h-1zM54 76h1v1h-1zM53 78h1v1h-1zM52 80h1v1h-1zM52 81h1v1h-1zM51 83h1v1h-1zM50 85h1v1h-1z" /><path fill="#269663" d="M53 50h1v1h-1z" /><path fill="#279966" d="M55 50h1v1h-1zM54 51h1v1h-1zM52 54h1v1h-1z" /><path fill="#2ca46f" d="M61 50h1v1h-1z" /><path fill="#31b177" d="M69 50h1v1h-1zM68 52h1v1h-1zM67 55h1v1h-1zM66 57h1v1h-1zM64 62h1v1h-1zM63 64h1v1h-1zM62 67h1v1h-1zM61 69h1v1h-1zM60 71h1v1h-1zM59 74h1v1h-1zM58 76h1v1h-1zM56 81h1v1h-1zM55 83h1v1h-1zM54 86h1v1h-1zM53 88h1v1h-1zM51 93h1v1h-1z" /><path fill="#32b479" d="M71 50h1v1h-1zM68 57h1v1h-1zM63 69h1v1h-1zM58 81h1v1h-1zM55 88h1v1h-1z" /><path fill="#35bc7f" d="M49 51h1v1h-1z" /><path fill="#269564" d="M52 51h1v1h-1z" /><path fill="#269765" d="M53 51h1v1h-1z" /><path fill="#289d68" d="M56 51h1v1h-1zM52 57h1v1h-1zM51 59h1v1h-1zM50 62h1v1h-1z" /><path fill="#2da971" d="M63 51h1v1h-1zM62 53h1v1h-1zM60 58h1v1h-1zM59 60h1v1h-1zM58 63h1v1h-1zM57 65h1v1h-1zM55 70h1v1h-1zM54 72h1v1h-1zM52 77h1v1h-1zM50 82h1v1h-1z" /><path fill="#269764" d="M52 52h1v1h-1zM50 55h1v1h-1z" /><path fill="#279965" d="M53 52h1v1h-1zM51 55h1v1h-1z" /><path fill="#279b66" d="M54 52h1v1h-1z" /><path fill="#299f69" d="M56 52h1v1h-1z" /><path fill="#2aa06a" d="M57 52h1v1h-1z" /><path fill="#2ca770" d="M61 52h1v1h-1zM58 59h1v1h-1zM53 71h1v1h-1z" /><path fill="#259562" d="M50 53h1v1h-1z" /><path fill="#269763" d="M51 53h1v1h-1z" /><path fill="#269865" d="M52 53h1v1h-1z" /><path fill="#289c68" d="M54 53h1v1h-1zM52 56h1v1h-1zM51 58h1v1h-1zM50 60h1v1h-1zM50 61h1v1h-1z" /><path fill="#2aa26c" d="M57 53h1v1h-1zM56 56h1v1h-1zM55 58h1v1h-1zM53 63h1v1h-1zM52 65h1v1h-1zM51 68h1v1h-1zM50 70h1v1h-1z" /><path fill="#259663" d="M50 54h1v1h-1z" /><path fill="#2ba46d" d="M58 54h1v1h-1zM53 66h1v1h-1z" /><path fill="#38bf83" d="M49 55h1v1h-1z" /><path fill="#289c69" d="M53 55h1v1h-1z" /><path fill="#279a67" d="M51 56h1v1h-1z" /><path fill="#2da870" d="M60 56h1v1h-1zM55 68h1v1h-1zM52 75h1v1h-1z" /><path fill="#38c285" d="M49 57h1v1h-1zM49 58h1v1h-1z" /><path fill="#279a66" d="M50 57h1v1h-1z" /><path fill="#29a06a" d="M54 57h1v1h-1zM51 64h1v1h-1z" /><path fill="#279b67" d="M50 58h1v1h-1z" /><path fill="#38c385" d="M49 59h1v1h-1zM49 60h1v1h-1z" /><path fill="#289d69" d="M51 60h1v1h-1z" /><path fill="#3dcd8e" d="M84 64h1v1h-1z" /><path fill="#3cce8d" d="M83 65h1v1h-1z" /><path fill="#2fae75" d="M60 66h1v1h-1zM50 90h1v1h-1z" /><path fill="#3ccd8c" d="M82 66h1v1h-1z" /><path fill="#3ccd8b" d="M81 68h1v1h-1z" /><path fill="#3ccb8c" d="M80 69h1v1h-1z" /><path fill="#3bcb8b" d="M79 70h1v1h-1z" /><path fill="#3cc989" d="M78 71h1v1h-1z" /><path fill="#3bc789" d="M75 75h1v1h-1z" /><path fill="#3ac486" d="M70 81h1v1h-1z" /><path fill="#38c486" d="M69 83h1v1h-1z" /><path fill="#38c384" d="M68 84h1v1h-1z" /><path fill="#37c183" d="M65 88h1v1h-1z" /><path fill="#2fac75" d="M50 89h1v1h-1z" /><path fill="#2fae74" d="M50 91h1v1h-1z" /><path fill="#30af75" d="M50 92h1v1h-1z" /><path fill="#30af77" d="M50 94h1v1h-1z" /><path fill="#36be80" d="M60 94h1v1h-1z" /><path fill="#30b177" d="M50 95h1v1h-1z" /><path fill="#30b078" d="M50 96h1v1h-1z" /><path fill="#35bd80" d="M58 97h1v1h-1z" /><path fill="#31b37a" d="M51 98h1v1h-1z" /></svg>