<svg xmlns="http://www.w3.org/2000/svg" viewBox="0 0 100 100" width="1em" height="1em"><path fill="#e89d3b" d="M17 0h1v1h-1z" /><path fill="#e79b3a" d="M18 0h1v1h-1z" /><path fill="#e59a3a" d="M19 0h1v1h-1z" /><path fill="#e29a39" d="M20 0h1v1h-1zM22 0h2v1h-2zM26 1h4v1h-4zM31 2h5v1h-5zM37 3h4v1h-4zM43 4h2v1h-2z" /><path fill="#e39a39" d="M21 0h1v1h-1zM46 5h1v1h-1z" /><path fill="#e29b39" d="M24 0h5v1h-5zM30 1h5v1h-5zM36 2h4v1h-4zM41 3h3v1h-3z" /><path fill="#e29c39" d="M29 0h1v1h-1zM35 1h1v1h-1zM40 2h2v1h-2z" /><path fill="#e39c39" d="M30 0h1v1h-1zM36 1h1v1h-1zM42 2h1v1h-1zM44 3h1v1h-1z" /><path fill="#e39c3a" d="M31 0h2v1h-2zM37 1h2v1h-2z" /><path fill="#e39d3a" d="M33 0h5v1h-5zM39 1h3v1h-3z" /><path fill="#e39e3a" d="M38 0h3v1h-3z" /><path fill="#e39f3a" d="M41 0h1v1h-1z" /><path fill="#f2a43f" d="M42 0h1v1h-1z" /><path fill="#f9a741" d="M43 0h3v1h-3zM46 1h6v1h-6zM52 2h6v1h-6zM58 3h5v1h-5zM63 4h6v1h-6zM69 5h6v1h-6zM75 6h5v1h-5zM80 7h6v1h-6zM86 8h6v1h-6zM92 9h3v1h-3z" /><path fill="#f9a841" d="M46 0h6v1h-6zM52 1h5v1h-5zM58 2h5v1h-5zM63 3h6v1h-6zM69 4h5v1h-5zM75 5h5v1h-5zM80 6h6v1h-6zM86 7h5v1h-5zM92 8h2v1h-2z" /><path fill="#f9a941" d="M52 0h2v1h-2zM57 1h3v1h-3zM63 2h2v1h-2zM69 3h2v1h-2zM74 4h3v1h-3zM80 5h2v1h-2zM86 6h2v1h-2zM91 7h3v1h-3z" /><path fill="#faa941" d="M54 0h3v1h-3zM60 1h3v1h-3zM65 2h4v1h-4zM71 3h3v1h-3zM77 4h3v1h-3zM82 5h4v1h-4zM88 6h3v1h-3z" /><path fill="#faaa41" d="M57 0h6v1h-6zM63 1h6v1h-6zM69 2h5v1h-5zM74 3h6v1h-6zM80 4h6v1h-6zM86 5h5v1h-5zM91 6h2v1h-2z" /><path fill="#faab41" d="M63 0h1v1h-1zM69 1h1v1h-1zM74 2h1v1h-1zM80 3h1v1h-1zM86 4h1v1h-1z" /><path fill="#faab42" d="M64 0h5v1h-5zM70 1h4v1h-4zM75 2h5v1h-5zM81 3h5v1h-5zM87 4h3v1h-3z" /><path fill="#faac42" d="M69 0h5v1h-5zM74 1h6v1h-6zM80 2h5v1h-5zM86 3h2v1h-2z" /><path fill="#faad42" d="M74 0h4v1h-4zM81 0h1v1h-1zM80 1h4v1h-4zM85 2h2v1h-2z" /><path fill="#f9ad42" d="M78 0h2v1h-2z" /><path fill="#faae41" d="M80 0h1v1h-1z" /><path fill="#e8993a" d="M14 1h1v1h-1z" /><path fill="#e2963a" d="M15 1h1v1h-1z" /><path fill="#e29739" d="M16 1h1v1h-1zM18 2h4v1h-4zM23 3h5v1h-5zM29 4h5v1h-5zM35 5h4v1h-4zM40 6h5v1h-5zM46 7h2v1h-2z" /><path fill="#e29839" d="M17 1h4v1h-4zM22 2h5v1h-5zM28 3h4v1h-4zM34 4h4v1h-4zM39 5h5v1h-5zM45 6h2v1h-2z" /><path fill="#e29939" d="M21 1h5v1h-5zM27 2h4v1h-4zM32 3h5v1h-5zM38 4h5v1h-5zM44 5h2v1h-2z" /><path fill="#e49d3a" d="M42 1h1v1h-1z" /><path fill="#f2a33f" d="M43 1h1v1h-1z" /><path fill="#f9a641" d="M44 1h2v1h-2zM46 2h6v1h-6zM52 3h6v1h-6zM58 4h5v1h-5zM63 5h6v1h-6zM69 6h6v1h-6zM75 7h5v1h-5zM80 8h6v1h-6zM86 9h6v1h-6zM92 10h4v1h-4z" /><path fill="#f9ac42" d="M84 1h1v1h-1z" /><path fill="#faae42" d="M85 1h1v1h-1z" /><path fill="#e49639" d="M12 2h1v1h-1z" /><path fill="#e29638" d="M13 2h3v1h-3zM19 3h2v1h-2zM25 4h2v1h-2zM30 5h3v1h-3zM36 6h2v1h-2zM42 7h2v1h-2zM47 8h2v1h-2z" /><path fill="#e29639" d="M16 2h2v1h-2zM21 3h2v1h-2zM27 4h2v1h-2zM33 5h2v1h-2zM38 6h2v1h-2zM44 7h2v1h-2z" /><path fill="#e49c3b" d="M43 2h1v1h-1z" /><path fill="#f3a23f" d="M44 2h1v1h-1z" /><path fill="#f9a541" d="M45 2h1v1h-1zM46 3h6v1h-6zM52 4h6v1h-6zM58 5h5v1h-5zM63 6h6v1h-6zM69 7h6v1h-6zM75 8h5v1h-5zM80 9h6v1h-6zM86 10h6v1h-6zM92 11h5v1h-5zM97 12h1v1h-1z" /><path fill="#f9ad41" d="M87 2h1v1h-1z" /><path fill="#e59639" d="M10 3h1v1h-1z" /><path fill="#e19438" d="M11 3h3v1h-3zM16 4h4v1h-4zM21 5h5v1h-5zM27 6h4v1h-4zM33 7h4v1h-4zM38 8h5v1h-5zM44 9h5v1h-5zM50 10h1v1h-1z" /><path fill="#e19538" d="M14 3h5v1h-5zM20 4h4v1h-4zM26 5h4v1h-4zM31 6h5v1h-5zM37 7h4v1h-4zM43 8h4v1h-4zM49 9h1v1h-1z" /><path fill="#f3a13f" d="M45 3h1v1h-1z" /><path fill="#f9ab42" d="M88 3h1v1h-1zM90 4h1v1h-1z" /><path fill="#faac41" d="M89 3h1v1h-1z" /><path fill="#e19338" d="M9 4h1v1h-1zM11 4h5v1h-5zM17 5h4v1h-4zM23 6h4v1h-4zM28 7h5v1h-5zM34 8h4v1h-4zM40 9h4v1h-4zM45 10h5v1h-5zM51 11h1v1h-1z" /><path fill="#e19238" d="M10 4h1v1h-1zM12 5h5v1h-5zM18 6h5v1h-5zM24 7h4v1h-4zM29 8h5v1h-5zM35 9h5v1h-5zM41 10h4v1h-4zM46 11h5v1h-5zM52 12h1v1h-1z" /><path fill="#e29538" d="M24 4h1v1h-1zM41 7h1v1h-1z" /><path fill="#e39a3a" d="M45 4h1v1h-1z" /><path fill="#f2a13e" d="M46 4h1v1h-1z" /><path fill="#f9a440" d="M47 4h3v1h-3zM52 5h4v1h-4zM58 6h3v1h-3zM63 7h4v1h-4zM69 8h4v1h-4zM75 9h3v1h-3zM80 10h4v1h-4zM86 11h4v1h-4zM92 12h3v1h-3z" /><path fill="#f9a441" d="M50 4h2v1h-2zM56 5h2v1h-2zM61 6h2v1h-2zM67 7h2v1h-2zM73 8h2v1h-2zM78 9h2v1h-2zM84 10h2v1h-2zM90 11h2v1h-2zM95 12h2v1h-2z" /><path fill="#e8943a" d="M7 5h1v1h-1z" /><path fill="#e19138" d="M8 5h4v1h-4zM14 6h4v1h-4zM19 7h5v1h-5zM25 8h4v1h-4zM31 9h4v1h-4zM36 10h5v1h-5zM42 11h4v1h-4zM48 12h4v1h-4zM53 13h1v1h-1z" /><path fill="#f3a13e" d="M47 5h1v1h-1z" /><path fill="#f9a340" d="M48 5h4v1h-4zM52 6h6v1h-6zM58 7h5v1h-5zM64 8h5v1h-5zM69 9h6v1h-6zM75 10h5v1h-5zM81 11h5v1h-5zM86 12h6v1h-6zM92 13h6v1h-6z" /><path fill="#f9aa41" d="M91 5h1v1h-1z" /><path fill="#e69138" d="M6 6h1v1h-1z" /><path fill="#e18f37" d="M7 6h2v1h-2zM13 7h2v1h-2zM18 8h2v1h-2zM24 9h2v1h-2zM30 10h2v1h-2zM35 11h2v1h-2zM41 12h2v1h-2zM47 13h2v1h-2zM52 14h2v1h-2z" /><path fill="#e19037" d="M9 6h2v1h-2zM15 7h2v1h-2zM20 8h3v1h-3zM26 9h2v1h-2zM32 10h2v1h-2zM37 11h3v1h-3zM43 12h2v1h-2zM49 13h2v1h-2zM54 14h1v1h-1z" /><path fill="#e19038" d="M11 6h3v1h-3zM17 7h2v1h-2zM23 8h2v1h-2zM28 9h3v1h-3zM34 10h2v1h-2zM40 11h2v1h-2zM45 12h3v1h-3zM51 13h2v1h-2z" /><path fill="#e3983a" d="M47 6h1v1h-1z" /><path fill="#f4a03f" d="M48 6h1v1h-1z" /><path fill="#f9a240" d="M49 6h3v1h-3zM52 7h6v1h-6zM58 8h6v1h-6zM64 9h5v1h-5zM69 10h6v1h-6zM75 11h6v1h-6zM81 12h5v1h-5zM86 13h6v1h-6zM92 14h6v1h-6z" /><path fill="#e78f39" d="M5 7h1v1h-1z" /><path fill="#e08e37" d="M6 7h4v1h-4zM11 8h5v1h-5zM17 9h5v1h-5zM23 10h4v1h-4zM28 11h5v1h-5zM34 12h5v1h-5zM40 13h4v1h-4zM45 14h5v1h-5zM51 15h5v1h-5z" /><path fill="#e08f37" d="M10 7h3v1h-3zM16 8h2v1h-2zM22 9h2v1h-2zM27 10h3v1h-3zM33 11h2v1h-2zM39 12h2v1h-2zM44 13h3v1h-3zM50 14h2v1h-2z" /><path fill="#e3973a" d="M48 7h1v1h-1z" /><path fill="#f49f3e" d="M49 7h1v1h-1z" /><path fill="#f9a140" d="M50 7h2v1h-2zM52 8h6v1h-6zM58 9h6v1h-6zM64 10h5v1h-5zM69 11h6v1h-6zM75 12h6v1h-6zM81 13h5v1h-5zM86 14h6v1h-6zM92 15h6v1h-6zM98 16h1v1h-1z" /><path fill="#e08c37" d="M5 8h2v1h-2zM8 9h5v1h-5zM14 10h4v1h-4zM19 11h5v1h-5zM25 12h5v1h-5zM31 13h4v1h-4zM36 14h5v1h-5zM42 15h5v1h-5zM48 16h4v1h-4zM53 17h5v1h-5z" /><path fill="#e08d37" d="M7 8h4v1h-4zM13 9h4v1h-4zM18 10h5v1h-5zM24 11h4v1h-4zM30 12h4v1h-4zM35 13h5v1h-5zM41 14h4v1h-4zM47 15h4v1h-4zM52 16h5v1h-5z" /><path fill="#e39738" d="M49 8h1v1h-1z" /><path fill="#f39e3e" d="M50 8h1v1h-1z" /><path fill="#f9a040" d="M51 8h1v1h-1zM52 9h6v1h-6zM58 10h6v1h-6zM64 11h5v1h-5zM69 12h6v1h-6zM75 13h6v1h-6zM81 14h5v1h-5zM86 15h6v1h-6zM92 16h6v1h-6zM98 17h1v1h-1z" /><path fill="#f8a840" d="M94 8h1v1h-1z" /><path fill="#e08b37" d="M4 9h4v1h-4zM9 10h5v1h-5zM15 11h4v1h-4zM21 12h4v1h-4zM26 13h5v1h-5zM32 14h4v1h-4zM38 15h4v1h-4zM43 16h5v1h-5zM49 17h4v1h-4zM55 18h3v1h-3z" /><path fill="#e39639" d="M50 9h1v1h-1z" /><path fill="#f39d3e" d="M51 9h1v1h-1z" /><path fill="#f9a640" d="M95 9h1v1h-1zM96 10h1v1h-1z" /><path fill="#e58c37" d="M3 10h1v1h-1z" /><path fill="#e08936" d="M4 10h1v1h-1zM7 11h3v1h-3zM12 12h4v1h-4zM18 13h4v1h-4zM24 14h3v1h-3zM29 15h4v1h-4zM35 16h4v1h-4zM41 17h3v1h-3zM46 18h4v1h-4zM52 19h4v1h-4zM58 20h1v1h-1z" /><path fill="#e08a36" d="M5 10h2v1h-2zM10 11h3v1h-3zM16 12h2v1h-2zM22 13h2v1h-2zM27 14h3v1h-3zM33 15h2v1h-2zM39 16h2v1h-2zM44 17h3v1h-3zM50 18h2v1h-2zM56 19h2v1h-2z" /><path fill="#e08a37" d="M7 10h2v1h-2zM13 11h2v1h-2zM18 12h3v1h-3zM24 13h2v1h-2zM30 14h2v1h-2zM35 15h3v1h-3zM41 16h2v1h-2zM47 17h2v1h-2zM52 18h3v1h-3zM58 19h1v1h-1z" /><path fill="#e39439" d="M51 10h1v1h-1z" /><path fill="#f39c3e" d="M52 10h1v1h-1zM53 11h1v1h-1z" /><path fill="#f89f40" d="M53 10h1v1h-1zM58 11h1v1h-1zM64 12h1v1h-1zM70 13h1v1h-1zM75 14h1v1h-1zM81 15h1v1h-1zM87 16h1v1h-1zM92 17h1v1h-1zM98 18h1v1h-1z" /><path fill="#f99f40" d="M54 10h4v1h-4zM59 11h5v1h-5zM65 12h4v1h-4zM71 13h4v1h-4zM76 14h5v1h-5zM82 15h4v1h-4zM88 16h4v1h-4zM93 17h5v1h-5zM99 18h1v1h-1z" /><path fill="#df8836" d="M3 11h3v1h-3zM7 12h5v1h-5zM13 13h4v1h-4zM18 14h5v1h-5zM24 15h5v1h-5zM30 16h4v1h-4zM35 17h5v1h-5zM41 18h5v1h-5zM47 19h4v1h-4zM52 20h5v1h-5zM58 21h2v1h-2z" /><path fill="#df8936" d="M6 11h1v1h-1zM17 13h1v1h-1zM23 14h1v1h-1zM34 16h1v1h-1zM40 17h1v1h-1zM51 19h1v1h-1zM57 20h1v1h-1z" /><path fill="#e39338" d="M52 11h1v1h-1zM53 12h1v1h-1z" /><path fill="#f89e40" d="M54 11h4v1h-4zM58 12h6v1h-6zM64 13h6v1h-6zM70 14h5v1h-5zM75 15h6v1h-6zM81 16h6v1h-6zM87 17h5v1h-5zM92 18h6v1h-6zM98 19h1v1h-1z" /><path fill="#e28938" d="M2 12h1v1h-1z" /><path fill="#df8736" d="M3 12h4v1h-4zM8 13h5v1h-5zM14 14h4v1h-4zM20 15h4v1h-4zM25 16h5v1h-5zM31 17h4v1h-4zM37 18h4v1h-4zM42 19h5v1h-5zM48 20h4v1h-4zM54 21h4v1h-4zM59 22h1v1h-1z" /><path fill="#f39b3d" d="M54 12h1v1h-1z" /><path fill="#f89d3f" d="M55 12h3v1h-3zM58 13h6v1h-6zM64 14h6v1h-6zM70 15h5v1h-5zM75 16h6v1h-6zM81 17h6v1h-6zM87 18h5v1h-5zM92 19h6v1h-6zM98 20h1v1h-1z" /><path fill="#df8536" d="M2 13h2v1h-2zM5 14h4v1h-4zM11 15h4v1h-4zM16 16h5v1h-5zM22 17h4v1h-4zM28 18h4v1h-4zM33 19h5v1h-5zM39 20h4v1h-4zM45 21h4v1h-4zM50 22h5v1h-5zM56 23h4v1h-4z" /><path fill="#df8636" d="M4 13h4v1h-4zM9 14h5v1h-5zM15 15h5v1h-5zM21 16h4v1h-4zM26 17h5v1h-5zM32 18h5v1h-5zM38 19h4v1h-4zM43 20h5v1h-5zM49 21h5v1h-5zM55 22h4v1h-4zM60 23h1v1h-1z" /><path fill="#e29239" d="M54 13h1v1h-1z" /><path fill="#f49a3e" d="M55 13h1v1h-1z" /><path fill="#f89c3f" d="M56 13h2v1h-2zM58 14h6v1h-6zM64 15h6v1h-6zM70 16h5v1h-5zM75 17h6v1h-6zM81 18h6v1h-6zM87 19h5v1h-5zM92 20h6v1h-6zM98 21h1v1h-1z" /><path fill="#e58737" d="M1 14h1v1h-1z" /><path fill="#df8435" d="M2 14h1v1h-1zM6 15h2v1h-2zM12 16h2v1h-2zM17 17h3v1h-3zM23 18h2v1h-2zM29 19h2v1h-2zM34 20h3v1h-3zM40 21h2v1h-2zM46 22h2v1h-2zM51 23h3v1h-3zM57 24h2v1h-2z" /><path fill="#df8436" d="M3 14h2v1h-2zM8 15h3v1h-3zM14 16h2v1h-2zM20 17h2v1h-2zM25 18h3v1h-3zM31 19h2v1h-2zM37 20h2v1h-2zM42 21h3v1h-3zM48 22h2v1h-2zM54 23h2v1h-2zM59 24h2v1h-2z" /><path fill="#e39137" d="M55 14h1v1h-1z" /><path fill="#f49a3f" d="M56 14h1v1h-1z" /><path fill="#f89b3f" d="M57 14h1v1h-1zM59 15h5v1h-5zM64 16h6v1h-6zM70 17h5v1h-5zM76 18h5v1h-5zM81 19h6v1h-6zM87 20h5v1h-5zM93 21h5v1h-5zM98 22h1v1h-1z" /><path fill="#f9a33f" d="M98 14h1v1h-1z" /><path fill="#df8236" d="M1 15h1v1h-1z" /><path fill="#df8335" d="M2 15h4v1h-4zM7 16h5v1h-5zM13 17h4v1h-4zM19 18h4v1h-4zM24 19h5v1h-5zM30 20h4v1h-4zM36 21h4v1h-4zM41 22h5v1h-5zM47 23h4v1h-4zM53 24h4v1h-4zM58 25h4v1h-4z" /><path fill="#e39745" d="M56 15h1v1h-1z" /><path fill="#f5bc83" d="M57 15h1v1h-1z" /><path fill="#f89a40" d="M58 15h1v1h-1z" /><path fill="#f8a23f" d="M98 15h1v1h-1z" /><path fill="#de8135" d="M1 16h2v1h-2zM4 17h4v1h-4zM10 18h4v1h-4zM15 19h5v1h-5zM21 20h4v1h-4zM28 21h3v1h-3zM32 22h5v1h-5zM38 23h4v1h-4zM44 24h4v1h-4zM49 25h5v1h-5zM55 26h4v1h-4zM61 27h1v1h-1z" /><path fill="#de8235" d="M3 16h3v1h-3zM8 17h4v1h-4zM14 18h4v1h-4zM20 19h3v1h-3zM25 20h4v1h-4zM31 21h4v1h-4zM37 22h3v1h-3zM42 23h4v1h-4zM48 24h4v1h-4zM54 25h3v1h-3zM59 26h3v1h-3z" /><path fill="#df8235" d="M6 16h1v1h-1zM12 17h1v1h-1zM18 18h1v1h-1zM23 19h1v1h-1zM29 20h1v1h-1zM35 21h1v1h-1zM40 22h1v1h-1zM46 23h1v1h-1zM52 24h1v1h-1zM57 25h1v1h-1z" /><path fill="#ebb67e" d="M57 16h1v1h-1z" /><path fill="#f9e1c9" d="M58 16h1v1h-1z" /><path fill="#f8a452" d="M59 16h1v1h-1z" /><path fill="#f89a3f" d="M60 16h4v1h-4zM64 17h6v1h-6zM70 18h6v1h-6zM76 19h5v1h-5zM81 20h6v1h-6zM87 21h6v1h-6zM93 22h5v1h-5zM98 23h2v1h-2z" /><path fill="#e48337" d="M0 17h1v1h-1z" /><path fill="#de8035" d="M1 17h3v1h-3zM5 18h5v1h-5zM11 19h4v1h-4zM16 20h5v1h-5zM22 21h4v1h-4zM29 22h3v1h-3zM34 23h4v1h-4zM39 24h5v1h-5zM45 25h4v1h-4zM51 26h4v1h-4zM56 27h5v1h-5zM62 28h1v1h-1z" /><path fill="#f6ddc3" d="M58 17h1v1h-1z" /><path fill="#fdf5ee" d="M59 17h1v1h-1z" /><path fill="#f6b16e" d="M60 17h1v1h-1z" /><path fill="#f8993f" d="M61 17h3v1h-3zM64 18h6v1h-6zM70 19h6v1h-6zM76 20h5v1h-5zM81 21h6v1h-6zM87 22h6v1h-6zM93 23h5v1h-5zM98 24h2v1h-2z" /><path fill="#e28036" d="M0 18h1v1h-1z" /><path fill="#de7f35" d="M1 18h4v1h-4zM6 19h5v1h-5zM12 20h4v1h-4zM18 21h4v1h-4zM23 22h4v1h-4zM30 23h4v1h-4zM35 24h4v1h-4zM40 25h5v1h-5zM46 26h5v1h-5zM52 27h4v1h-4zM57 28h5v1h-5z" /><path fill="#e49a51" d="M58 18h1v1h-1z" /><path fill="#fefcfa" d="M59 18h1v1h-1zM38 36h1v1h-1zM76 37h1v1h-1z" /><path fill="#fffefd" d="M60 18h1v1h-1zM21 29h1v1h-1zM71 29h1v1h-1zM35 32h1v1h-1zM25 34h1v1h-1zM30 40h1v1h-1zM38 49h1v1h-1zM61 50h1v1h-1zM47 58h1v1h-1zM16 65h1v1h-1zM49 65h1v1h-1zM17 66h1v1h-1zM84 79h1v1h-1z" /><path fill="#f7c99e" d="M61 18h1v1h-1z" /><path fill="#f89941" d="M62 18h1v1h-1z" /><path fill="#f8983f" d="M63 18h1v1h-1zM64 19h6v1h-6zM70 20h6v1h-6zM76 21h5v1h-5zM81 22h6v1h-6zM87 23h6v1h-6zM93 24h5v1h-5zM98 25h2v1h-2z" /><path fill="#e17e34" d="M0 19h1v1h-1z" /><path fill="#de7d34" d="M1 19h1v1h-1zM3 20h5v1h-5zM9 21h4v1h-4zM14 22h5v1h-5zM20 23h5v1h-5zM26 24h2v1h-2zM32 25h4v1h-4zM37 26h5v1h-5zM43 27h4v1h-4zM48 28h5v1h-5zM54 29h5v1h-5zM60 30h3v1h-3z" /><path fill="#de7e34" d="M2 19h2v1h-2zM8 20h2v1h-2zM13 21h2v1h-2zM19 22h2v1h-2zM25 23h2v1h-2zM31 24h1v1h-1zM36 25h2v1h-2zM42 26h2v1h-2zM47 27h2v1h-2zM53 28h2v1h-2zM59 29h2v1h-2z" /><path fill="#de7e35" d="M4 19h2v1h-2zM10 20h2v1h-2zM15 21h3v1h-3zM21 22h2v1h-2zM32 24h3v1h-3zM38 25h2v1h-2zM44 26h2v1h-2zM49 27h3v1h-3zM55 28h2v1h-2zM61 29h2v1h-2z" /><path fill="#f1cba6" d="M59 19h1v1h-1z" /><path fill="#ffffff" d="M60 19h2v1h-2zM61 20h2v1h-2zM61 21h3v1h-3zM62 22h3v1h-3zM62 23h4v1h-4zM63 24h4v1h-4zM63 25h5v1h-5zM63 26h6v1h-6zM64 27h6v1h-6zM64 28h7v1h-7zM33 29h2v1h-2zM64 29h7v1h-7zM22 30h1v1h-1zM34 30h2v1h-2zM64 30h8v1h-8zM23 31h1v1h-1zM35 31h2v1h-2zM65 31h8v1h-8zM24 32h1v1h-1zM36 32h2v1h-2zM65 32h9v1h-9zM25 33h1v1h-1zM36 33h3v1h-3zM65 33h9v1h-9zM26 34h2v1h-2zM37 34h4v1h-4zM65 34h10v1h-10zM26 35h3v1h-3zM38 35h4v1h-4zM65 35h10v1h-10zM27 36h3v1h-3zM39 36h4v1h-4zM65 36h11v1h-11zM28 37h3v1h-3zM39 37h5v1h-5zM65 37h11v1h-11zM29 38h4v1h-4zM40 38h6v1h-6zM65 38h12v1h-12zM30 39h4v1h-4zM41 39h6v1h-6zM66 39h11v1h-11zM31 40h4v1h-4zM42 40h6v1h-6zM66 40h12v1h-12zM31 41h6v1h-6zM43 41h6v1h-6zM65 41h13v1h-13zM32 42h6v1h-6zM43 42h8v1h-8zM65 42h13v1h-13zM33 43h7v1h-7zM44 43h8v1h-8zM65 43h14v1h-14zM34 44h7v1h-7zM45 44h8v1h-8zM65 44h14v1h-14zM35 45h8v1h-8zM46 45h9v1h-9zM65 45h14v1h-14zM36 46h8v1h-8zM47 46h9v1h-9zM65 46h14v1h-14zM37 47h9v1h-9zM48 47h9v1h-9zM65 47h15v1h-15zM38 48h21v1h-21zM64 48h16v1h-16zM39 49h21v1h-21zM64 49h16v1h-16zM40 50h21v1h-21zM64 50h16v1h-16zM40 51h40v1h-40zM41 52h39v1h-39zM42 53h38v1h-38zM43 54h37v1h-37zM44 55h36v1h-36zM45 56h35v1h-35zM46 57h33v1h-33zM48 58h31v1h-31zM49 59h30v1h-30zM50 60h29v1h-29zM13 61h1v1h-1zM51 61h27v1h-27zM14 62h2v1h-2zM53 62h25v1h-25zM15 63h3v1h-3zM53 63h26v1h-26zM16 64h5v1h-5zM52 64h28v1h-28zM17 65h6v1h-6zM50 65h31v1h-31zM18 66h9v1h-9zM47 66h34v1h-34zM19 67h13v1h-13zM42 67h40v1h-40zM20 68h62v1h-62zM21 69h62v1h-62zM22 70h61v1h-61zM23 71h61v1h-61zM25 72h59v1h-59zM26 73h58v1h-58zM28 74h56v1h-56zM29 75h41v1h-41zM78 75h7v1h-7zM31 76h37v1h-37zM80 76h5v1h-5zM33 77h33v1h-33zM81 77h4v1h-4zM36 78h28v1h-28zM82 78h3v1h-3zM39 79h23v1h-23zM83 79h1v1h-1zM43 80h15v1h-15z" /><path fill="#f8d9bb" d="M62 19h1v1h-1z" /><path fill="#f89a45" d="M63 19h1v1h-1z" /><path fill="#f79d3f" d="M99 19h1v1h-1z" /><path fill="#df7c34" d="M0 20h1v1h-1z" /><path fill="#de7c34" d="M1 20h2v1h-2zM6 21h3v1h-3zM12 22h2v1h-2zM17 23h3v1h-3zM23 24h3v1h-3zM34 26h3v1h-3zM40 27h3v1h-3zM46 28h2v1h-2zM52 29h2v1h-2zM57 30h3v1h-3zM63 31h1v1h-1z" /><path fill="#e29143" d="M59 20h1v1h-1z" /><path fill="#fdf6f0" d="M60 20h1v1h-1z" /><path fill="#fae6d4" d="M63 20h1v1h-1z" /><path fill="#f79f4e" d="M64 20h1v1h-1z" /><path fill="#f8973e" d="M65 20h2v1h-2zM70 21h3v1h-3zM76 22h2v1h-2zM82 23h2v1h-2zM87 24h3v1h-3zM93 25h2v1h-2zM99 26h1v1h-1z" /><path fill="#f8973f" d="M67 20h3v1h-3zM73 21h3v1h-3zM78 22h3v1h-3zM84 23h3v1h-3zM90 24h3v1h-3zM95 25h3v1h-3z" /><path fill="#f89c3e" d="M99 20h1v1h-1z" /><path fill="#dc7b34" d="M0 21h1v1h-1z" /><path fill="#dd7b34" d="M1 21h3v1h-3zM5 22h5v1h-5zM11 23h5v1h-5zM17 24h4v1h-4zM22 25h5v1h-5zM28 26h2v1h-2zM34 27h4v1h-4zM39 28h5v1h-5zM45 29h5v1h-5zM51 30h4v1h-4zM56 31h5v1h-5zM62 32h2v1h-2z" /><path fill="#dd7c34" d="M4 21h2v1h-2zM10 22h2v1h-2zM16 23h1v1h-1zM21 24h2v1h-2zM27 25h2v1h-2zM33 26h1v1h-1zM38 27h2v1h-2zM44 28h2v1h-2zM50 29h2v1h-2zM55 30h2v1h-2zM61 31h2v1h-2z" /><path fill="#df8239" d="M26 21h1v1h-1z" /><path fill="#e08841" d="M27 21h1v1h-1z" /><path fill="#eec196" d="M60 21h1v1h-1z" /><path fill="#fbefe4" d="M64 21h1v1h-1z" /><path fill="#f7a356" d="M65 21h1v1h-1z" /><path fill="#f8963e" d="M66 21h4v1h-4zM70 22h6v1h-6zM76 23h6v1h-6zM82 24h5v1h-5zM87 25h6v1h-6zM93 26h6v1h-6zM99 27h1v1h-1z" /><path fill="#f79c3f" d="M99 21h1v1h-1z" /><path fill="#dd7934" d="M0 22h1v1h-1zM2 23h5v1h-5zM8 24h4v1h-4zM13 25h4v1h-4zM20 26h4v1h-4zM25 27h4v1h-4zM30 28h1v1h-1zM37 29h4v1h-4zM42 30h4v1h-4zM47 31h5v1h-5zM53 32h5v1h-5zM59 33h4v1h-4z" /><path fill="#dd7a34" d="M1 22h4v1h-4zM7 23h4v1h-4zM12 24h5v1h-5zM19 25h3v1h-3zM24 26h4v1h-4zM29 27h1v1h-1zM35 28h4v1h-4zM41 29h4v1h-4zM46 30h5v1h-5zM52 31h4v1h-4zM58 32h4v1h-4zM63 33h1v1h-1z" /><path fill="#e8a774" d="M27 22h1v1h-1z" /><path fill="#e28e4b" d="M28 22h1v1h-1z" /><path fill="#e18f44" d="M60 22h1v1h-1z" /><path fill="#fefaf6" d="M61 22h1v1h-1z" /><path fill="#fcf4ec" d="M65 22h1v1h-1z" /><path fill="#f7a65f" d="M66 22h1v1h-1z" /><path fill="#f8953e" d="M67 22h3v1h-3zM71 23h5v1h-5zM76 24h6v1h-6zM82 25h5v1h-5zM88 26h5v1h-5zM93 27h6v1h-6zM99 28h1v1h-1z" /><path fill="#f79b3e" d="M99 22h1v1h-1z" /><path fill="#dd7834" d="M0 23h2v1h-2zM5 24h3v1h-3zM11 25h2v1h-2zM22 27h3v1h-3zM28 28h2v1h-2zM39 30h3v1h-3zM45 31h2v1h-2zM51 32h2v1h-2zM56 33h3v1h-3zM62 34h2v1h-2z" /><path fill="#de7f37" d="M27 23h1v1h-1z" /><path fill="#f2ceb2" d="M28 23h1v1h-1z" /><path fill="#e28f4e" d="M29 23h1v1h-1z" /><path fill="#f2cfaf" d="M61 23h1v1h-1z" /><path fill="#fdf6ef" d="M66 23h1v1h-1z" /><path fill="#f6a45e" d="M67 23h1v1h-1z" /><path fill="#f7943e" d="M68 23h2v1h-2zM70 24h6v1h-6zM76 25h6v1h-6zM82 26h5v1h-5zM87 27h6v1h-6zM93 28h6v1h-6zM99 29h1v1h-1z" /><path fill="#f7953e" d="M70 23h1v1h-1zM87 26h1v1h-1z" /><path fill="#dd7733" d="M0 24h3v1h-3zM4 25h5v1h-5zM10 26h5v1h-5zM16 27h2v1h-2zM22 28h4v1h-4zM27 29h5v1h-5zM39 31h4v1h-4zM44 32h5v1h-5zM50 33h4v1h-4zM55 34h5v1h-5zM61 35h3v1h-3z" /><path fill="#dd7833" d="M3 24h2v1h-2zM9 25h2v1h-2zM15 26h2v1h-2zM21 27h1v1h-1zM26 28h2v1h-2zM38 30h1v1h-1zM43 31h2v1h-2zM49 32h2v1h-2zM54 33h2v1h-2zM60 34h2v1h-2z" /><path fill="#e28d4d" d="M28 24h1v1h-1z" /><path fill="#f9e9dc" d="M29 24h1v1h-1z" /><path fill="#e39253" d="M30 24h1v1h-1z" /><path fill="#e49857" d="M61 24h1v1h-1z" /><path fill="#fffffe" d="M62 24h1v1h-1z" /><path fill="#fcf2ea" d="M67 24h1v1h-1zM64 31h1v1h-1z" /><path fill="#f6a055" d="M68 24h1v1h-1z" /><path fill="#f7933e" d="M69 24h1v1h-1zM70 25h6v1h-6zM76 26h6v1h-6zM82 27h5v1h-5zM87 28h6v1h-6zM93 29h6v1h-6zM99 30h1v1h-1z" /><path fill="#dd7633" d="M0 25h4v1h-4zM6 26h4v1h-4zM12 27h4v1h-4zM17 28h2v1h-2zM24 29h3v1h-3zM29 30h3v1h-3zM40 32h4v1h-4zM46 33h4v1h-4zM51 34h4v1h-4zM57 35h4v1h-4zM63 36h1v1h-1z" /><path fill="#e18a4e" d="M17 25h1v1h-1z" /><path fill="#de7e3a" d="M18 25h1v1h-1z" /><path fill="#e9a979" d="M29 25h1v1h-1z" /><path fill="#fcf3ed" d="M30 25h1v1h-1zM20 28h1v1h-1zM74 33h1v1h-1z" /><path fill="#e49459" d="M31 25h1v1h-1z" /><path fill="#f6ddc8" d="M62 25h1v1h-1z" /><path fill="#fbede1" d="M68 25h1v1h-1z" /><path fill="#f79a4e" d="M69 25h1v1h-1z" /><path fill="#dc7433" d="M0 26h1v1h-1zM2 27h5v1h-5zM8 28h4v1h-4zM14 29h4v1h-4zM19 30h2v1h-2zM26 31h3v1h-3zM31 32h3v1h-3zM43 34h3v1h-3zM48 35h4v1h-4zM53 36h5v1h-5zM59 37h4v1h-4z" /><path fill="#dc7533" d="M1 26h5v1h-5zM7 27h4v1h-4zM12 28h5v1h-5zM18 29h2v1h-2zM25 30h3v1h-3zM29 31h4v1h-4zM41 33h4v1h-4zM46 34h5v1h-5zM52 35h5v1h-5zM58 36h4v1h-4zM63 37h1v1h-1z" /><path fill="#dd7935" d="M17 26h1v1h-1z" /><path fill="#edb894" d="M18 26h1v1h-1z" /><path fill="#e08647" d="M19 26h1v1h-1z" /><path fill="#f2ccb1" d="M30 26h1v1h-1z" /><path fill="#fdf6f1" d="M31 26h1v1h-1zM77 39h1v1h-1z" /><path fill="#e59b65" d="M32 26h1v1h-1z" /><path fill="#eaaf7d" d="M62 26h1v1h-1z" /><path fill="#fae7d8" d="M69 26h1v1h-1z" /><path fill="#f69649" d="M70 26h1v1h-1z" /><path fill="#f7923e" d="M71 26h5v1h-5zM76 27h6v1h-6zM82 28h5v1h-5zM88 29h5v1h-5zM93 30h6v1h-6zM99 31h1v1h-1z" /><path fill="#dc7333" d="M0 27h2v1h-2zM3 28h5v1h-5zM9 29h5v1h-5zM15 30h4v1h-4zM20 31h1v1h-1zM27 32h4v1h-4zM32 33h3v1h-3zM44 35h4v1h-4zM49 36h4v1h-4zM54 37h5v1h-5zM60 38h4v1h-4z" /><path fill="#dc7633" d="M11 27h1v1h-1zM28 30h1v1h-1zM45 33h1v1h-1zM62 36h1v1h-1z" /><path fill="#df7f3f" d="M18 27h1v1h-1z" /><path fill="#f6dbc9" d="M19 27h1v1h-1z" /><path fill="#e39159" d="M20 27h1v1h-1z" /><path fill="#de803d" d="M30 27h1v1h-1z" /><path fill="#faebe0" d="M31 27h1v1h-1z" /><path fill="#fefbf9" d="M32 27h1v1h-1zM32 28h1v1h-1zM44 37h1v1h-1zM65 40h1v1h-1zM47 47h1v1h-1z" /><path fill="#e9a97c" d="M33 27h1v1h-1z" /><path fill="#e0873f" d="M62 27h1v1h-1z" /><path fill="#fefbf8" d="M63 27h1v1h-1z" /><path fill="#f9e0cb" d="M70 27h1v1h-1z" /><path fill="#f79341" d="M71 27h1v1h-1z" /><path fill="#f7913e" d="M72 27h4v1h-4zM76 28h6v1h-6zM82 29h6v1h-6zM88 30h5v1h-5zM93 31h6v1h-6zM99 32h1v1h-1z" /><path fill="#dc7232" d="M0 28h1v1h-1zM5 29h2v1h-2zM10 30h3v1h-3zM16 31h2v1h-2zM28 33h2v1h-2zM33 34h2v1h-2zM45 36h2v1h-2zM50 37h2v1h-2zM56 38h2v1h-2zM61 39h3v1h-3z" /><path fill="#dc7233" d="M1 28h2v1h-2zM7 29h2v1h-2zM13 30h2v1h-2zM18 31h2v1h-2zM30 33h2v1h-2zM47 36h2v1h-2zM52 37h2v1h-2zM58 38h2v1h-2zM64 39h1v1h-1z" /><path fill="#e38e56" d="M19 28h1v1h-1z" /><path fill="#e8a274" d="M21 28h1v1h-1z" /><path fill="#e4935b" d="M31 28h1v1h-1z" /><path fill="#fffefe" d="M33 28h1v1h-1zM42 41h1v1h-1zM39 50h1v1h-1zM12 60h1v1h-1zM18 67h1v1h-1zM24 72h1v1h-1z" /><path fill="#edb995" d="M34 28h1v1h-1z" /><path fill="#f5d8c0" d="M63 28h1v1h-1z" /><path fill="#f6c7a2" d="M71 28h1v1h-1z" /><path fill="#f7903d" d="M72 28h3v1h-3zM76 29h5v1h-5zM82 30h5v1h-5zM88 31h4v1h-4zM93 32h5v1h-5zM99 33h1v1h-1z" /><path fill="#f7903e" d="M75 28h1v1h-1zM81 29h1v1h-1zM87 30h1v1h-1zM92 31h1v1h-1zM98 32h1v1h-1z" /><path fill="#dc7132" d="M0 29h5v1h-5zM6 30h4v1h-4zM11 31h5v1h-5zM17 32h5v1h-5zM30 34h3v1h-3zM34 35h2v1h-2zM46 37h4v1h-4zM51 38h5v1h-5zM57 39h4v1h-4zM62 40h3v1h-3z" /><path fill="#e7a174" d="M20 29h1v1h-1z" /><path fill="#eeba99" d="M22 29h1v1h-1z" /><path fill="#dd7734" d="M23 29h1v1h-1zM32 30h1v1h-1z" /><path fill="#ecb48e" d="M32 29h1v1h-1z" /><path fill="#f2ccb2" d="M35 29h1v1h-1z" /><path fill="#de7c38" d="M36 29h1v1h-1z" /><path fill="#ecb489" d="M63 29h1v1h-1z" /><path fill="#f6ac72" d="M72 29h1v1h-1z" /><path fill="#f78f3d" d="M73 29h3v1h-3zM76 30h6v1h-6zM82 31h6v1h-6zM88 32h5v1h-5zM93 33h6v1h-6zM99 34h1v1h-1z" /><path fill="#dc6f32" d="M0 30h1v1h-1zM6 31h1v1h-1zM11 32h2v1h-2zM17 33h1v1h-1zM23 34h1v1h-1zM34 36h1v1h-1zM51 39h1v1h-1zM57 40h1v1h-1zM62 41h2v1h-2z" /><path fill="#dc7032" d="M1 30h5v1h-5zM7 31h4v1h-4zM13 32h4v1h-4zM18 33h5v1h-5zM31 35h3v1h-3zM35 36h2v1h-2zM48 38h3v1h-3zM52 39h5v1h-5zM58 40h4v1h-4z" /><path fill="#efc0a2" d="M21 30h1v1h-1z" /><path fill="#f2cdb5" d="M23 30h1v1h-1z" /><path fill="#dd7939" d="M24 30h1v1h-1zM64 37h1v1h-1z" /><path fill="#f5d8c5" d="M33 30h1v1h-1z" /><path fill="#f6d9c6" d="M36 30h1v1h-1z" /><path fill="#df7f3e" d="M37 30h1v1h-1z" /><path fill="#e38f50" d="M63 30h1v1h-1z" /><path fill="#fcf4ee" d="M72 30h1v1h-1z" /><path fill="#f79951" d="M73 30h1v1h-1z" /><path fill="#f78e3d" d="M74 30h2v1h-2zM77 31h5v1h-5zM82 32h6v1h-6zM88 33h5v1h-5zM94 34h5v1h-5zM99 35h1v1h-1z" /><path fill="#db6e32" d="M0 31h2v1h-2zM4 32h4v1h-4zM9 33h5v1h-5zM15 34h4v1h-4zM21 35h4v1h-4zM34 37h2v1h-2zM38 38h1v1h-1zM50 40h3v1h-3zM55 41h4v1h-4zM60 42h4v1h-4z" /><path fill="#db6f32" d="M2 31h4v1h-4zM8 32h3v1h-3zM14 33h3v1h-3zM19 34h4v1h-4zM32 36h2v1h-2zM36 37h2v1h-2zM49 39h2v1h-2zM53 40h4v1h-4zM59 41h3v1h-3z" /><path fill="#dc7535" d="M21 31h1v1h-1z" /><path fill="#f5d9c7" d="M22 31h1v1h-1z" /><path fill="#f7e0d2" d="M24 31h1v1h-1z" /><path fill="#e08349" d="M25 31h1v1h-1z" /><path fill="#df8145" d="M33 31h1v1h-1z" /><path fill="#fcf2ec" d="M34 31h1v1h-1zM25 32h1v1h-1z" /><path fill="#f9e7db" d="M37 31h1v1h-1z" /><path fill="#e1894d" d="M38 31h1v1h-1z" /><path fill="#f9dfcc" d="M73 31h1v1h-1z" /><path fill="#f78d3e" d="M74 31h1v1h-1z" /><path fill="#f78d3d" d="M75 31h2v1h-2zM77 32h5v1h-5zM82 33h6v1h-6zM88 34h6v1h-6zM94 35h5v1h-5zM99 36h1v1h-1z" /><path fill="#db6d32" d="M0 32h4v1h-4zM5 33h4v1h-4zM10 34h5v1h-5zM16 35h5v1h-5zM22 36h3v1h-3zM35 38h3v1h-3zM52 41h3v1h-3zM56 42h4v1h-4zM61 43h3v1h-3z" /><path fill="#de7b40" d="M22 32h1v1h-1z" /><path fill="#faebe2" d="M23 32h1v1h-1z" /><path fill="#e49463" d="M26 32h1v1h-1z" /><path fill="#e69a6b" d="M34 32h1v1h-1z" /><path fill="#fcf4ef" d="M38 32h1v1h-1z" /><path fill="#e59866" d="M39 32h1v1h-1z" /><path fill="#f5d8c2" d="M64 32h1v1h-1z" /><path fill="#f5b584" d="M74 32h1v1h-1z" /><path fill="#f78c3d" d="M75 32h2v1h-2zM77 33h5v1h-5zM82 34h6v1h-6zM88 35h6v1h-6zM94 36h5v1h-5zM99 37h1v1h-1z" /><path fill="#db6c31" d="M0 33h3v1h-3zM6 34h2v1h-2zM12 35h2v1h-2zM17 36h3v1h-3zM23 37h2v1h-2zM36 39h1v1h-1zM53 42h1v1h-1zM57 43h2v1h-2zM63 44h1v1h-1z" /><path fill="#db6c32" d="M3 33h2v1h-2zM8 34h2v1h-2zM14 35h2v1h-2zM20 36h2v1h-2zM25 37h1v1h-1zM37 39h2v1h-2zM54 42h2v1h-2zM59 43h2v1h-2z" /><path fill="#e18752" d="M23 33h1v1h-1z" /><path fill="#fdf7f3" d="M24 33h1v1h-1z" /><path fill="#fefdfc" d="M26 33h1v1h-1zM39 33h1v1h-1zM65 39h1v1h-1zM35 40h1v1h-1zM57 47h1v1h-1zM37 48h1v1h-1z" /><path fill="#ecb492" d="M27 33h1v1h-1z" /><path fill="#eebb9c" d="M35 33h1v1h-1z" /><path fill="#ecb592" d="M40 33h1v1h-1z" /><path fill="#eebd9a" d="M64 33h1v1h-1z" /><path fill="#f79248" d="M75 33h1v1h-1z" /><path fill="#f78b3d" d="M76 33h1v1h-1zM77 34h5v1h-5zM82 35h6v1h-6zM88 36h6v1h-6zM94 37h5v1h-5zM99 38h1v1h-1z" /><path fill="#db6a31" d="M0 34h1v1h-1zM3 35h4v1h-4zM8 36h5v1h-5zM14 37h4v1h-4zM20 38h4v1h-4zM25 39h3v1h-3zM39 41h2v1h-2zM56 44h2v1h-2zM59 45h5v1h-5z" /><path fill="#db6b31" d="M1 34h5v1h-5zM7 35h5v1h-5zM13 36h4v1h-4zM18 37h5v1h-5zM24 38h3v1h-3zM38 40h2v1h-2zM54 43h3v1h-3zM58 44h5v1h-5z" /><path fill="#e79c72" d="M24 34h1v1h-1z" /><path fill="#f2c9b1" d="M28 34h1v1h-1z" /><path fill="#dd7538" d="M29 34h1v1h-1z" /><path fill="#dc7435" d="M35 34h1v1h-1zM64 38h1v1h-1z" /><path fill="#f6d9c9" d="M36 34h1v1h-1z" /><path fill="#f1c6ac" d="M41 34h1v1h-1z" /><path fill="#dd7737" d="M42 34h1v1h-1z" /><path fill="#e9a77a" d="M64 34h1v1h-1z" /><path fill="#f6c8a7" d="M75 34h1v1h-1z" /><path fill="#f78a3d" d="M76 34h1v1h-1zM87 36h1v1h-1zM93 37h1v1h-1z" /><path fill="#db6931" d="M0 35h3v1h-3zM5 36h3v1h-3zM11 37h3v1h-3zM17 38h3v1h-3zM22 39h3v1h-3zM28 40h1v1h-1zM40 42h2v1h-2zM57 45h2v1h-2zM62 46h2v1h-2z" /><path fill="#edb696" d="M25 35h1v1h-1z" /><path fill="#f8e1d4" d="M29 35h1v1h-1z" /><path fill="#e08049" d="M30 35h1v1h-1z" /><path fill="#df7d43" d="M36 35h1v1h-1z" /><path fill="#fbefe8" d="M37 35h1v1h-1z" /><path fill="#f6dccd" d="M42 35h1v1h-1z" /><path fill="#df7e43" d="M43 35h1v1h-1z" /><path fill="#e59662" d="M64 35h1v1h-1z" /><path fill="#fefcfb" d="M75 35h1v1h-1z" /><path fill="#f59a5b" d="M76 35h1v1h-1z" /><path fill="#f68a3c" d="M77 35h1v1h-1zM83 36h1v1h-1zM88 37h2v1h-2zM94 38h1v1h-1z" /><path fill="#f68a3d" d="M78 35h4v1h-4zM84 36h3v1h-3zM90 37h3v1h-3zM95 38h4v1h-4z" /><path fill="#da6831" d="M0 36h4v1h-4zM5 37h5v1h-5zM11 38h4v1h-4zM16 39h5v1h-5zM22 40h5v1h-5zM28 41h2v1h-2zM58 46h3v1h-3zM62 47h1v1h-1z" /><path fill="#da6931" d="M4 36h1v1h-1zM10 37h1v1h-1zM15 38h2v1h-2zM21 39h1v1h-1zM27 40h1v1h-1zM61 46h1v1h-1z" /><path fill="#db6e33" d="M25 36h1v1h-1z" /><path fill="#f2ccb7" d="M26 36h1v1h-1z" /><path fill="#fcf2ed" d="M30 36h1v1h-1zM48 40h1v1h-1zM60 49h1v1h-1z" /><path fill="#e49568" d="M31 36h1v1h-1z" /><path fill="#e49060" d="M37 36h1v1h-1z" /><path fill="#fbede5" d="M43 36h1v1h-1z" /><path fill="#e38e5a" d="M44 36h1v1h-1z" /><path fill="#e1864b" d="M64 36h1v1h-1z" /><path fill="#f6d0b4" d="M76 36h1v1h-1z" /><path fill="#f6893c" d="M77 36h6v1h-6zM83 37h5v1h-5zM88 38h6v1h-6zM94 39h6v1h-6z" /><path fill="#da6631" d="M0 37h1v1h-1zM4 38h2v1h-2zM10 39h2v1h-2zM15 40h3v1h-3zM21 41h2v1h-2zM27 42h2v1h-2zM61 48h2v1h-2z" /><path fill="#da6731" d="M1 37h4v1h-4zM6 38h5v1h-5zM12 39h4v1h-4zM18 40h4v1h-4zM23 41h5v1h-5zM29 42h2v1h-2zM60 47h2v1h-2z" /><path fill="#dc7138" d="M26 37h1v1h-1z" /><path fill="#f7e0d3" d="M27 37h1v1h-1zM47 39h1v1h-1z" /><path fill="#fffdfd" d="M31 37h1v1h-1zM49 41h1v1h-1zM53 44h1v1h-1zM27 74h1v1h-1zM84 74h1v1h-1z" /><path fill="#edb697" d="M32 37h1v1h-1z" /><path fill="#db6f34" d="M33 37h1v1h-1z" /><path fill="#eaad8a" d="M38 37h1v1h-1z" /><path fill="#e9a780" d="M45 37h1v1h-1z" /><path fill="#f6934f" d="M77 37h1v1h-1z" /><path fill="#f6883c" d="M78 37h5v1h-5zM83 38h5v1h-5zM88 39h6v1h-6zM94 40h6v1h-6z" /><path fill="#da6530" d="M0 38h2v1h-2zM3 39h4v1h-4zM9 40h4v1h-4zM14 41h5v1h-5zM20 42h4v1h-4zM26 43h4v1h-4zM31 44h1v1h-1zM62 49h1v1h-1z" /><path fill="#da6630" d="M2 38h2v1h-2zM7 39h3v1h-3zM13 40h2v1h-2zM19 41h2v1h-2zM24 42h3v1h-3zM30 43h1v1h-1z" /><path fill="#de7944" d="M27 38h1v1h-1z" /><path fill="#fbeee7" d="M28 38h1v1h-1z" /><path fill="#f6dacb" d="M33 38h1v1h-1zM37 41h1v1h-1z" /><path fill="#de7b45" d="M34 38h1v1h-1z" /><path fill="#f2cab4" d="M39 38h1v1h-1zM46 38h1v1h-1z" /><path fill="#dd7539" d="M47 38h1v1h-1zM64 41h1v1h-1z" /><path fill="#f6c3a1" d="M77 38h1v1h-1z" /><path fill="#f6873c" d="M78 38h5v1h-5zM83 39h5v1h-5zM88 40h6v1h-6zM94 41h6v1h-6z" /><path fill="#da6430" d="M0 39h3v1h-3zM4 40h5v1h-5zM10 41h4v1h-4zM15 42h5v1h-5zM21 43h5v1h-5zM27 44h4v1h-4zM32 45h1v1h-1z" /><path fill="#e28658" d="M28 39h1v1h-1z" /><path fill="#fdf8f5" d="M29 39h1v1h-1zM41 40h1v1h-1zM78 42h1v1h-1z" /><path fill="#fbefe9" d="M34 39h1v1h-1zM52 43h1v1h-1z" /><path fill="#e38f61" d="M35 39h1v1h-1z" /><path fill="#dd743c" d="M39 39h1v1h-1z" /><path fill="#f9e8de" d="M40 39h1v1h-1z" /><path fill="#df7f49" d="M48 39h1v1h-1z" /><path fill="#f68a44" d="M78 39h1v1h-1z" /><path fill="#f6863c" d="M79 39h4v1h-4zM83 40h5v1h-5zM88 41h6v1h-6zM94 42h6v1h-6z" /><path fill="#da6330" d="M0 40h4v1h-4zM5 41h5v1h-5zM11 42h4v1h-4zM17 43h4v1h-4zM22 44h5v1h-5zM28 45h4v1h-4z" /><path fill="#e69771" d="M29 40h1v1h-1z" /><path fill="#ecb294" d="M36 40h1v1h-1z" /><path fill="#db6d33" d="M37 40h1v1h-1z" /><path fill="#e18452" d="M40 40h1v1h-1z" /><path fill="#e49366" d="M49 40h1v1h-1z" /><path fill="#f4aa79" d="M78 40h1v1h-1z" /><path fill="#f6853c" d="M79 40h4v1h-4zM83 41h5v1h-5zM89 42h5v1h-5zM94 43h6v1h-6z" /><path fill="#d96130" d="M0 41h1v1h-1zM2 42h4v1h-4zM8 43h4v1h-4zM13 44h5v1h-5zM19 45h4v1h-4zM25 46h4v1h-4zM30 47h5v1h-5z" /><path fill="#d96230" d="M1 41h4v1h-4zM6 42h5v1h-5zM12 43h4v1h-4zM18 44h4v1h-4zM23 45h5v1h-5zM29 46h4v1h-4z" /><path fill="#ebae90" d="M30 41h1v1h-1z" /><path fill="#df7a48" d="M38 41h1v1h-1z" /><path fill="#e79d77" d="M41 41h1v1h-1z" /><path fill="#edb496" d="M50 41h1v1h-1z" /><path fill="#db6e34" d="M51 41h1v1h-1z" /><path fill="#f7d1b9" d="M78 41h1v1h-1z" /><path fill="#f6843c" d="M79 41h4v1h-4zM83 42h6v1h-6zM89 43h5v1h-5zM94 44h6v1h-6z" /><path fill="#d96030" d="M0 42h2v1h-2zM5 43h3v1h-3zM11 44h2v1h-2zM17 45h2v1h-2zM22 46h3v1h-3zM28 47h2v1h-2zM34 48h2v1h-2z" /><path fill="#efbfa8" d="M31 42h1v1h-1z" /><path fill="#fdf6f3" d="M38 42h1v1h-1z" /><path fill="#e79d78" d="M39 42h1v1h-1z" /><path fill="#edb69a" d="M42 42h1v1h-1zM64 45h1v1h-1z" /><path fill="#f6d9ca" d="M51 42h1v1h-1z" /><path fill="#de7a44" d="M52 42h1v1h-1z" /><path fill="#df7e49" d="M64 42h1v1h-1z" /><path fill="#f68741" d="M79 42h1v1h-1z" /><path fill="#f6833b" d="M80 42h1v1h-1zM83 43h4v1h-4zM89 44h3v1h-3zM94 45h4v1h-4z" /><path fill="#f6833c" d="M81 42h2v1h-2zM87 43h2v1h-2zM92 44h2v1h-2zM98 45h2v1h-2z" /><path fill="#d95f2f" d="M0 43h3v1h-3zM4 44h5v1h-5zM10 45h4v1h-4zM16 46h4v1h-4zM21 47h5v1h-5zM27 48h4v1h-4zM33 49h4v1h-4z" /><path fill="#d9602f" d="M3 43h2v1h-2zM9 44h2v1h-2zM14 45h3v1h-3zM20 46h2v1h-2zM26 47h2v1h-2zM31 48h3v1h-3z" /><path fill="#da6230" d="M16 43h1v1h-1zM33 46h1v1h-1z" /><path fill="#da6832" d="M31 43h1v1h-1zM59 47h1v1h-1z" /><path fill="#f4d1c2" d="M32 43h1v1h-1z" /><path fill="#f1c6b1" d="M40 43h1v1h-1z" /><path fill="#dc713e" d="M41 43h1v1h-1z" /><path fill="#da6932" d="M42 43h1v1h-1zM63 47h1v1h-1z" /><path fill="#f2cbb8" d="M43 43h1v1h-1z" /><path fill="#e48e62" d="M53 43h1v1h-1z" /><path fill="#e28859" d="M64 43h1v1h-1z" /><path fill="#f5a271" d="M79 43h1v1h-1z" /><path fill="#f6823b" d="M80 43h3v1h-3zM83 44h6v1h-6zM89 45h5v1h-5zM94 46h6v1h-6z" /><path fill="#d95e2f" d="M0 44h4v1h-4zM5 45h5v1h-5zM11 46h5v1h-5zM17 47h4v1h-4zM22 48h5v1h-5zM28 49h5v1h-5zM34 50h4v1h-4z" /><path fill="#db6a37" d="M32 44h1v1h-1z" /><path fill="#f7ddd1" d="M33 44h1v1h-1z" /><path fill="#fcf1ec" d="M41 44h1v1h-1zM44 46h1v1h-1z" /><path fill="#e69772" d="M42 44h1v1h-1z" /><path fill="#db6c37" d="M43 44h1v1h-1z" /><path fill="#f7dcd0" d="M44 44h1v1h-1z" /><path fill="#edb598" d="M54 44h1v1h-1z" /><path fill="#db6b33" d="M55 44h1v1h-1z" /><path fill="#e79d76" d="M64 44h1v1h-1z" /><path fill="#f5bc9b" d="M79 44h1v1h-1z" /><path fill="#f6813b" d="M80 44h3v1h-3zM83 45h6v1h-6zM89 46h5v1h-5zM95 47h5v1h-5z" /><path fill="#d95c2f" d="M0 45h1v1h-1zM5 46h2v1h-2zM10 47h2v1h-2zM16 48h2v1h-2zM22 49h2v1h-2zM27 50h2v1h-2zM33 51h2v1h-2zM39 52h1v1h-1z" /><path fill="#d95d2f" d="M1 45h4v1h-4zM7 46h4v1h-4zM12 47h5v1h-5zM18 48h4v1h-4zM24 49h4v1h-4zM29 50h5v1h-5zM35 51h4v1h-4z" /><path fill="#dd7142" d="M33 45h1v1h-1z" /><path fill="#faeae3" d="M34 45h1v1h-1z" /><path fill="#f2c8b5" d="M43 45h1v1h-1z" /><path fill="#e07e51" d="M44 45h1v1h-1z" /><path fill="#f9e6dd" d="M45 45h1v1h-1z" /><path fill="#f4d4c4" d="M55 45h1v1h-1z" /><path fill="#de7541" d="M56 45h1v1h-1z" /><path fill="#f7d8c6" d="M79 45h1v1h-1z" /><path fill="#f5803b" d="M80 45h1v1h-1zM83 46h4v1h-4zM89 47h4v1h-4zM95 48h3v1h-3z" /><path fill="#f6803b" d="M81 45h2v1h-2zM87 46h2v1h-2zM93 47h2v1h-2zM98 48h2v1h-2z" /><path fill="#d85b2f" d="M0 46h2v1h-2zM3 47h5v1h-5zM9 48h4v1h-4zM15 49h4v1h-4zM20 50h5v1h-5zM26 51h4v1h-4zM32 52h4v1h-4zM37 53h4v1h-4z" /><path fill="#d85c2f" d="M2 46h3v1h-3zM8 47h2v1h-2zM13 48h3v1h-3zM19 49h3v1h-3zM25 50h2v1h-2zM30 51h3v1h-3zM36 52h3v1h-3z" /><path fill="#e07a4f" d="M34 46h1v1h-1z" /><path fill="#fcf3f0" d="M35 46h1v1h-1z" /><path fill="#e9a586" d="M45 46h1v1h-1z" /><path fill="#f9e5dc" d="M46 46h1v1h-1z" /><path fill="#fbeee8" d="M56 46h1v1h-1z" /><path fill="#e38b61" d="M57 46h1v1h-1z" /><path fill="#f4d1c0" d="M64 46h1v1h-1z" /><path fill="#fdf5f1" d="M79 46h1v1h-1z" /><path fill="#f57f3c" d="M80 46h1v1h-1z" /><path fill="#f57f3b" d="M81 46h2v1h-2zM83 47h6v1h-6zM89 48h6v1h-6zM95 49h5v1h-5z" /><path fill="#dc5d30" d="M0 47h1v1h-1zM1 48h1v1h-1z" /><path fill="#d85a2f" d="M1 47h2v1h-2zM7 48h2v1h-2zM12 49h3v1h-3zM18 50h2v1h-2zM24 51h2v1h-2zM29 52h3v1h-3zM35 53h2v1h-2zM42 55h1v1h-1z" /><path fill="#e2865f" d="M35 47h1v1h-1z" /><path fill="#fef9f8" d="M36 47h1v1h-1zM52 62h1v1h-1zM32 67h1v1h-1z" /><path fill="#f8e2d9" d="M46 47h1v1h-1z" /><path fill="#ebad90" d="M58 47h1v1h-1z" /><path fill="#fbf0ea" d="M64 47h1v1h-1z" /><path fill="#f5884a" d="M80 47h1v1h-1z" /><path fill="#f57e3b" d="M81 47h2v1h-2zM83 48h6v1h-6zM89 49h6v1h-6zM95 50h5v1h-5z" /><path fill="#f26d36" d="M0 48h1v1h-1z" /><path fill="#d8592e" d="M2 48h2v1h-2zM6 49h4v1h-4zM11 50h5v1h-5zM17 51h4v1h-4zM23 52h4v1h-4zM28 53h5v1h-5zM34 54h4v1h-4zM40 55h2v1h-2z" /><path fill="#d85a2e" d="M4 48h3v1h-3zM10 49h2v1h-2zM16 50h2v1h-2zM21 51h3v1h-3zM27 52h2v1h-2zM33 53h2v1h-2zM38 54h3v1h-3z" /><path fill="#e59371" d="M36 48h1v1h-1z" /><path fill="#f4d3c4" d="M59 48h1v1h-1z" /><path fill="#dd7342" d="M60 48h1v1h-1z" /><path fill="#e18458" d="M63 48h1v1h-1z" /><path fill="#f49460" d="M80 48h1v1h-1z" /><path fill="#f57d3b" d="M81 48h2v1h-2zM84 49h5v1h-5zM90 50h5v1h-5zM95 51h5v1h-5z" /><path fill="#f46e37" d="M0 49h1v1h-1z" /><path fill="#f16c37" d="M1 49h1v1h-1z" /><path fill="#dc5a2f" d="M2 49h1v1h-1z" /><path fill="#d8582e" d="M3 49h3v1h-3zM7 50h4v1h-4zM12 51h5v1h-5zM18 52h5v1h-5zM24 53h4v1h-4zM29 54h5v1h-5zM35 55h5v1h-5zM41 56h2v1h-2z" /><path fill="#e7997a" d="M37 49h1v1h-1z" /><path fill="#e5916b" d="M61 49h1v1h-1z" /><path fill="#ecb095" d="M63 49h1v1h-1z" /><path fill="#f4a175" d="M80 49h1v1h-1z" /><path fill="#f57c3a" d="M81 49h3v1h-3zM84 50h5v1h-5zM89 51h6v1h-6zM95 52h5v1h-5z" /><path fill="#f46d37" d="M0 50h1v1h-1z" /><path fill="#f46d38" d="M1 50h1v1h-1zM81 64h4v1h-4zM85 65h5v1h-5zM90 66h6v1h-6zM96 67h4v1h-4z" /><path fill="#f06a36" d="M2 50h1v1h-1z" /><path fill="#da592e" d="M3 50h1v1h-1z" /><path fill="#d8572e" d="M4 50h3v1h-3zM8 51h4v1h-4zM14 52h4v1h-4zM19 53h5v1h-5zM25 54h4v1h-4zM31 55h4v1h-4zM36 56h5v1h-5zM42 57h3v1h-3z" /><path fill="#e9a185" d="M38 50h1v1h-1z" /><path fill="#eeb79f" d="M62 50h1v1h-1z" /><path fill="#f7dfd4" d="M63 50h1v1h-1z" /><path fill="#f4a983" d="M80 50h1v1h-1z" /><path fill="#f57b3a" d="M81 50h3v1h-3zM84 51h5v1h-5zM89 52h6v1h-6zM95 53h5v1h-5z" /><path fill="#f57d3a" d="M89 50h1v1h-1z" /><path fill="#f36b37" d="M0 51h1v1h-1z" /><path fill="#f36c38" d="M1 51h1v1h-1zM85 66h2v1h-2zM90 67h2v1h-2zM96 68h2v1h-2z" /><path fill="#f46c38" d="M2 51h1v1h-1zM82 65h3v1h-3zM87 66h3v1h-3zM92 67h4v1h-4zM98 68h2v1h-2z" /><path fill="#ef6836" d="M3 51h1v1h-1z" /><path fill="#d9582f" d="M4 51h1v1h-1z" /><path fill="#d8562e" d="M5 51h3v1h-3zM10 52h4v1h-4zM16 53h3v1h-3zM21 54h4v1h-4zM27 55h4v1h-4zM33 56h3v1h-3zM38 57h4v1h-4zM44 58h2v1h-2z" /><path fill="#eaa58a" d="M39 51h1v1h-1z" /><path fill="#f3ab85" d="M80 51h1v1h-1z" /><path fill="#f57a3a" d="M81 51h3v1h-3zM84 52h5v1h-5zM89 53h6v1h-6zM95 54h5v1h-5z" /><path fill="#f36a37" d="M0 52h1v1h-1z" /><path fill="#f36b38" d="M1 52h3v1h-3zM83 66h2v1h-2zM85 67h5v1h-5zM91 68h5v1h-5zM96 69h4v1h-4z" /><path fill="#ec6536" d="M4 52h1v1h-1z" /><path fill="#d8552f" d="M5 52h1v1h-1z" /><path fill="#d7552e" d="M6 52h3v1h-3zM10 53h5v1h-5zM16 54h4v1h-4zM22 55h4v1h-4zM27 56h5v1h-5zM33 57h4v1h-4zM39 58h4v1h-4zM44 59h3v1h-3z" /><path fill="#d7562e" d="M9 52h1v1h-1zM15 53h1v1h-1zM20 54h1v1h-1zM26 55h1v1h-1zM32 56h1v1h-1zM37 57h1v1h-1zM43 58h1v1h-1z" /><path fill="#edb09b" d="M40 52h1v1h-1z" /><path fill="#f4ad8a" d="M80 52h1v1h-1z" /><path fill="#f5793a" d="M81 52h3v1h-3zM84 53h5v1h-5zM89 54h6v1h-6zM95 55h5v1h-5z" /><path fill="#f36937" d="M0 53h1v1h-1zM1 54h1v1h-1zM6 55h1v1h-1zM85 69h2v1h-2zM91 70h2v1h-2zM96 71h2v1h-2z" /><path fill="#f36a38" d="M1 53h4v1h-4zM83 67h2v1h-2zM85 68h6v1h-6zM91 69h5v1h-5zM96 70h4v1h-4z" /><path fill="#eb6335" d="M5 53h1v1h-1z" /><path fill="#d8552d" d="M6 53h1v1h-1z" /><path fill="#d7542d" d="M7 53h1v1h-1zM12 54h2v1h-2zM17 55h2v1h-2zM23 56h2v1h-2zM29 57h2v1h-2zM34 58h2v1h-2zM40 59h2v1h-2zM46 60h2v1h-2z" /><path fill="#d7542e" d="M8 53h2v1h-2zM14 54h2v1h-2zM19 55h3v1h-3zM25 56h2v1h-2zM31 57h2v1h-2zM36 58h3v1h-3zM42 59h2v1h-2z" /><path fill="#edb5a1" d="M41 53h1v1h-1z" /><path fill="#f4a985" d="M80 53h1v1h-1z" /><path fill="#f5783a" d="M81 53h3v1h-3zM84 54h5v1h-5zM90 55h5v1h-5zM95 56h5v1h-5z" /><path fill="#f36936" d="M0 54h1v1h-1z" /><path fill="#f36938" d="M2 54h4v1h-4zM84 68h1v1h-1zM87 69h4v1h-4zM93 70h3v1h-3zM98 71h2v1h-2z" /><path fill="#e96234" d="M6 54h1v1h-1z" /><path fill="#d7532d" d="M7 54h5v1h-5zM13 55h4v1h-4zM18 56h5v1h-5zM24 57h5v1h-5zM30 58h4v1h-4zM35 59h5v1h-5zM41 60h5v1h-5zM47 61h2v1h-2z" /><path fill="#d85b30" d="M41 54h1v1h-1z" /><path fill="#f0bfae" d="M42 54h1v1h-1z" /><path fill="#f4a079" d="M80 54h1v1h-1z" /><path fill="#f5773a" d="M81 54h3v1h-3zM84 55h6v1h-6zM90 56h5v1h-5zM95 57h5v1h-5z" /><path fill="#f36836" d="M0 55h1v1h-1z" /><path fill="#f36837" d="M1 55h5v1h-5zM6 56h2v1h-2zM84 69h1v1h-1zM85 70h6v1h-6zM91 71h5v1h-5zM96 72h4v1h-4z" /><path fill="#e65e33" d="M7 55h1v1h-1z" /><path fill="#d7522d" d="M8 55h5v1h-5zM14 56h4v1h-4zM20 57h4v1h-4zM25 58h5v1h-5zM31 59h4v1h-4zM37 60h4v1h-4zM42 61h5v1h-5zM48 62h2v1h-2z" /><path fill="#efbbaa" d="M43 55h1v1h-1z" /><path fill="#f3966a" d="M80 55h1v1h-1z" /><path fill="#f5763a" d="M81 55h3v1h-3zM87 56h3v1h-3zM93 57h2v1h-2zM98 58h2v1h-2z" /><path fill="#f36736" d="M0 56h1v1h-1z" /><path fill="#f36737" d="M1 56h5v1h-5zM6 57h3v1h-3zM85 71h6v1h-6zM91 72h5v1h-5zM97 73h3v1h-3z" /><path fill="#e45c31" d="M8 56h1v1h-1z" /><path fill="#d7512d" d="M9 56h5v1h-5zM15 57h5v1h-5zM21 58h4v1h-4zM26 59h5v1h-5zM32 60h5v1h-5zM38 61h4v1h-4zM43 62h5v1h-5zM49 63h2v1h-2z" /><path fill="#d8592f" d="M43 56h1v1h-1z" /><path fill="#eeb6a3" d="M44 56h1v1h-1z" /><path fill="#f58551" d="M80 56h1v1h-1z" /><path fill="#f47539" d="M81 56h3v1h-3zM84 57h6v1h-6zM90 58h5v1h-5zM95 59h5v1h-5z" /><path fill="#f47639" d="M84 56h3v1h-3zM90 57h3v1h-3zM95 58h3v1h-3z" /><path fill="#f36636" d="M0 57h1v1h-1z" /><path fill="#f36637" d="M1 57h5v1h-5zM6 58h4v1h-4zM85 72h6v1h-6zM91 73h6v1h-6zM97 74h3v1h-3z" /><path fill="#e25931" d="M9 57h1v1h-1z" /><path fill="#d74f2d" d="M10 57h1v1h-1zM15 58h1v1h-1zM21 59h1v1h-1zM27 60h1v1h-1zM32 61h1v1h-1zM38 62h1v1h-1zM44 63h1v1h-1z" /><path fill="#d7502d" d="M11 57h4v1h-4zM16 58h5v1h-5zM22 59h4v1h-4zM28 60h4v1h-4zM33 61h5v1h-5zM39 62h4v1h-4zM45 63h4v1h-4z" /><path fill="#ecaf9b" d="M45 57h1v1h-1z" /><path fill="#fefaf9" d="M79 57h1v1h-1zM77 75h1v1h-1z" /><path fill="#f4763b" d="M80 57h1v1h-1z" /><path fill="#f47439" d="M81 57h3v1h-3zM84 58h6v1h-6zM90 59h5v1h-5zM96 60h4v1h-4z" /><path fill="#f36436" d="M0 58h1v1h-1z" /><path fill="#f36537" d="M1 58h5v1h-5zM6 59h4v1h-4zM85 73h6v1h-6zM91 74h6v1h-6zM97 75h3v1h-3z" /><path fill="#e36e4f" d="M10 58h1v1h-1z" /><path fill="#d75131" d="M11 58h1v1h-1z" /><path fill="#d64f2d" d="M12 58h3v1h-3zM17 59h4v1h-4zM23 60h4v1h-4zM29 61h3v1h-3zM34 62h4v1h-4zM40 63h4v1h-4zM46 64h3v1h-3z" /><path fill="#e99e87" d="M46 58h1v1h-1z" /><path fill="#f8dbd0" d="M79 58h1v1h-1z" /><path fill="#f47339" d="M80 58h4v1h-4zM84 59h6v1h-6zM90 60h6v1h-6zM96 61h4v1h-4z" /><path fill="#f36336" d="M0 59h1v1h-1z" /><path fill="#f36437" d="M1 59h5v1h-5zM6 60h5v1h-5zM86 74h5v1h-5zM91 75h6v1h-6zM97 76h3v1h-3z" /><path fill="#f17149" d="M10 59h1v1h-1z" /><path fill="#f5d4cb" d="M11 59h1v1h-1z" /><path fill="#e07960" d="M12 59h1v1h-1z" /><path fill="#d64e2c" d="M13 59h2v1h-2zM19 60h2v1h-2zM24 61h2v1h-2zM30 62h2v1h-2zM36 63h2v1h-2zM41 64h2v1h-2z" /><path fill="#d64e2d" d="M15 59h2v1h-2zM21 60h2v1h-2zM26 61h3v1h-3zM32 62h2v1h-2zM38 63h2v1h-2zM43 64h3v1h-3z" /><path fill="#e48e74" d="M47 59h1v1h-1z" /><path fill="#fefaf8" d="M48 59h1v1h-1z" /><path fill="#f4b79f" d="M79 59h1v1h-1z" /><path fill="#f47239" d="M80 59h4v1h-4zM84 60h6v1h-6zM90 61h6v1h-6zM96 62h4v1h-4z" /><path fill="#f36236" d="M0 60h1v1h-1zM1 61h4v1h-4zM7 62h3v1h-3zM86 76h4v1h-4zM92 77h3v1h-3zM98 78h1v1h-1z" /><path fill="#f36337" d="M1 60h5v1h-5zM6 61h6v1h-6zM86 75h5v1h-5zM91 76h6v1h-6zM97 77h2v1h-2z" /><path fill="#ef9075" d="M11 60h1v1h-1z" /><path fill="#f0bfb4" d="M13 60h1v1h-1z" /><path fill="#da5e41" d="M14 60h1v1h-1z" /><path fill="#d64d2c" d="M15 60h4v1h-4zM20 61h4v1h-4zM25 62h5v1h-5zM31 63h5v1h-5zM37 64h4v1h-4zM42 65h4v1h-4z" /><path fill="#df7759" d="M48 60h1v1h-1z" /><path fill="#faece7" d="M49 60h1v1h-1z" /><path fill="#f3956f" d="M79 60h1v1h-1z" /><path fill="#f47139" d="M80 60h4v1h-4zM84 61h6v1h-6zM90 62h6v1h-6zM96 63h4v1h-4z" /><path fill="#f16136" d="M0 61h1v1h-1z" /><path fill="#f36237" d="M5 61h1v1h-1zM10 62h2v1h-2zM90 76h1v1h-1zM95 77h2v1h-2z" /><path fill="#f4bdaf" d="M12 61h1v1h-1z" /><path fill="#fdf5f3" d="M14 61h1v1h-1z" /><path fill="#eba696" d="M15 61h1v1h-1z" /><path fill="#d9583a" d="M16 61h1v1h-1z" /><path fill="#d64c2c" d="M17 61h3v1h-3zM21 62h4v1h-4zM27 63h4v1h-4zM32 64h5v1h-5zM38 65h4v1h-4z" /><path fill="#da623f" d="M49 61h1v1h-1z" /><path fill="#f5d4ca" d="M50 61h1v1h-1z" /><path fill="#fdf5f2" d="M78 61h1v1h-1z" /><path fill="#f4743f" d="M79 61h1v1h-1z" /><path fill="#f47039" d="M80 61h4v1h-4zM85 62h5v1h-5zM90 63h6v1h-6zM96 64h4v1h-4z" /><path fill="#f16036" d="M0 62h1v1h-1zM99 79h1v1h-1zM99 80h1v1h-1z" /><path fill="#f26136" d="M1 62h5v1h-5zM6 63h6v1h-6zM12 64h2v1h-2zM86 77h5v1h-5zM91 78h6v1h-6zM97 79h2v1h-2z" /><path fill="#f26236" d="M6 62h1v1h-1zM12 63h1v1h-1zM91 77h1v1h-1zM97 78h1v1h-1z" /><path fill="#f36940" d="M12 62h1v1h-1z" /><path fill="#f8ddd6" d="M13 62h1v1h-1z" /><path fill="#fdf4f3" d="M16 62h1v1h-1zM42 80h1v1h-1z" /><path fill="#eba798" d="M17 62h1v1h-1z" /><path fill="#d9583c" d="M18 62h1v1h-1z" /><path fill="#d64b2c" d="M19 62h2v1h-2zM22 63h5v1h-5zM28 64h4v1h-4zM33 65h5v1h-5zM39 66h2v1h-2z" /><path fill="#d7532f" d="M50 62h1v1h-1z" /><path fill="#e99f8a" d="M51 62h1v1h-1z" /><path fill="#fefbfa" d="M78 62h1v1h-1z" /><path fill="#f28b62" d="M79 62h1v1h-1z" /><path fill="#f46f38" d="M80 62h4v1h-4zM85 63h5v1h-5zM90 64h5v1h-5zM96 65h4v1h-4z" /><path fill="#f46f39" d="M84 62h1v1h-1zM95 64h1v1h-1z" /><path fill="#f15e36" d="M0 63h1v1h-1z" /><path fill="#f26036" d="M1 63h5v1h-5zM6 64h6v1h-6zM12 65h3v1h-3zM74 76h3v1h-3zM86 78h5v1h-5zM91 79h6v1h-6zM97 80h2v1h-2z" /><path fill="#f1704a" d="M13 63h1v1h-1z" /><path fill="#fbece9" d="M14 63h1v1h-1zM21 70h1v1h-1zM68 76h1v1h-1z" /><path fill="#fdf6f4" d="M18 63h1v1h-1zM82 68h1v1h-1z" /><path fill="#edada0" d="M19 63h1v1h-1z" /><path fill="#dc664d" d="M20 63h1v1h-1z" /><path fill="#d64a2c" d="M21 63h1v1h-1zM24 64h4v1h-4zM29 65h4v1h-4zM35 66h4v1h-4z" /><path fill="#da5e3d" d="M51 63h1v1h-1z" /><path fill="#f2c7bb" d="M52 63h1v1h-1z" /><path fill="#fbece7" d="M79 63h1v1h-1z" /><path fill="#f47847" d="M80 63h1v1h-1z" /><path fill="#f46e38" d="M81 63h4v1h-4zM85 64h5v1h-5zM90 65h6v1h-6zM96 66h4v1h-4z" /><path fill="#f15d36" d="M0 64h1v1h-1z" /><path fill="#f25f36" d="M1 64h5v1h-5zM6 65h6v1h-6zM12 66h4v1h-4zM71 76h3v1h-3zM74 77h5v1h-5zM86 79h5v1h-5zM91 80h6v1h-6zM97 81h2v1h-2z" /><path fill="#ee7a5b" d="M14 64h1v1h-1z" /><path fill="#fdf7f6" d="M15 64h1v1h-1zM23 65h1v1h-1z" /><path fill="#f6d5ce" d="M21 64h1v1h-1z" /><path fill="#e58e7b" d="M22 64h1v1h-1z" /><path fill="#d85235" d="M23 64h1v1h-1z" /><path fill="#db6243" d="M49 64h1v1h-1z" /><path fill="#edb0a0" d="M50 64h1v1h-1z" /><path fill="#fdf7f5" d="M51 64h1v1h-1z" /><path fill="#f6cabb" d="M80 64h1v1h-1z" /><path fill="#f15c36" d="M0 65h1v1h-1zM0 66h1v1h-1z" /><path fill="#f25e36" d="M1 65h5v1h-5zM7 66h5v1h-5zM12 67h5v1h-5zM69 77h5v1h-5zM75 78h5v1h-5zM80 79h2v1h-2zM86 80h5v1h-5zM92 81h5v1h-5zM97 82h2v1h-2z" /><path fill="#ef8d73" d="M15 65h1v1h-1z" /><path fill="#f2c7be" d="M24 65h1v1h-1z" /><path fill="#e69381" d="M25 65h1v1h-1z" /><path fill="#db5e45" d="M26 65h1v1h-1z" /><path fill="#d6492c" d="M27 65h2v1h-2zM32 66h3v1h-3z" /><path fill="#d95b3d" d="M46 65h1v1h-1z" /><path fill="#e79682" d="M47 65h1v1h-1z" /><path fill="#f5d3ca" d="M48 65h1v1h-1z" /><path fill="#f29a79" d="M81 65h1v1h-1z" /><path fill="#f25d36" d="M1 66h6v1h-6zM7 67h5v1h-5zM12 68h6v1h-6zM18 69h1v1h-1zM69 78h6v1h-6zM75 79h5v1h-5zM80 80h3v1h-3zM85 80h1v1h-1zM86 81h6v1h-6zM92 82h5v1h-5zM97 83h2v1h-2z" /><path fill="#f09781" d="M16 66h1v1h-1z" /><path fill="#f8e1dc" d="M27 66h1v1h-1z" /><path fill="#efbbb0" d="M28 66h1v1h-1z" /><path fill="#e79889" d="M29 66h1v1h-1z" /><path fill="#df7660" d="M30 66h1v1h-1z" /><path fill="#d8573d" d="M31 66h1v1h-1z" /><path fill="#d74f30" d="M41 66h1v1h-1z" /><path fill="#dc674d" d="M42 66h1v1h-1z" /><path fill="#e38570" d="M43 66h1v1h-1z" /><path fill="#ecad9e" d="M44 66h1v1h-1z" /><path fill="#f6d6cf" d="M45 66h1v1h-1z" /><path fill="#fefcfc" d="M46 66h1v1h-1zM19 68h1v1h-1zM70 75h1v1h-1zM58 80h1v1h-1z" /><path fill="#fbede8" d="M81 66h1v1h-1z" /><path fill="#f37140" d="M82 66h1v1h-1z" /><path fill="#f15b35" d="M0 67h1v1h-1z" /><path fill="#f25c35" d="M1 67h1v1h-1zM12 69h1v1h-1zM18 70h1v1h-1zM69 79h1v1h-1zM75 80h1v1h-1zM80 81h1v1h-1zM86 82h1v1h-1zM92 83h1v1h-1zM97 84h2v1h-2z" /><path fill="#f25c36" d="M2 67h5v1h-5zM7 68h5v1h-5zM13 69h5v1h-5zM19 70h1v1h-1zM67 78h2v1h-2zM70 79h5v1h-5zM76 80h4v1h-4zM81 81h2v1h-2zM85 81h1v1h-1zM87 82h5v1h-5zM93 83h4v1h-4z" /><path fill="#f09885" d="M17 67h1v1h-1z" /><path fill="#fae7e4" d="M33 67h1v1h-1z" /><path fill="#f5d5ce" d="M34 67h1v1h-1z" /><path fill="#f4cec7" d="M35 67h3v1h-3z" /><path fill="#f4d0c8" d="M38 67h1v1h-1z" /><path fill="#f7ddd7" d="M39 67h1v1h-1z" /><path fill="#faeae7" d="M40 67h1v1h-1zM25 73h1v1h-1z" /><path fill="#fefbfb" d="M41 67h1v1h-1z" /><path fill="#f3ad96" d="M82 67h1v1h-1z" /><path fill="#f15a35" d="M0 68h1v1h-1z" /><path fill="#f25b35" d="M1 68h6v1h-6zM7 69h5v1h-5zM12 70h6v1h-6zM18 71h3v1h-3zM65 79h4v1h-4zM69 80h6v1h-6zM75 81h5v1h-5zM80 82h6v1h-6zM86 83h6v1h-6zM92 84h5v1h-5zM97 85h1v1h-1z" /><path fill="#f0947e" d="M18 68h1v1h-1z" /><path fill="#f37245" d="M83 68h1v1h-1z" /><path fill="#f15835" d="M0 69h1v1h-1z" /><path fill="#f25a35" d="M1 69h6v1h-6zM7 70h5v1h-5zM12 71h6v1h-6zM18 72h4v1h-4zM64 80h5v1h-5zM69 81h6v1h-6zM75 82h5v1h-5zM81 83h5v1h-5zM86 84h6v1h-6zM92 85h5v1h-5z" /><path fill="#f08870" d="M19 69h1v1h-1z" /><path fill="#fef8f8" d="M20 69h1v1h-1z" /><path fill="#f2a68d" d="M83 69h1v1h-1z" /><path fill="#f15735" d="M0 70h1v1h-1zM1 72h6v1h-6zM7 73h5v1h-5zM13 74h5v1h-5zM18 75h6v1h-6zM24 76h4v1h-4zM58 82h5v1h-5zM64 83h5v1h-5zM69 84h6v1h-6zM75 85h5v1h-5zM81 86h5v1h-5zM86 87h6v1h-6zM92 88h4v1h-4z" /><path fill="#f25935" d="M1 70h6v1h-6zM7 71h5v1h-5zM13 72h5v1h-5zM18 73h6v1h-6zM24 74h1v1h-1zM62 80h2v1h-2zM64 81h5v1h-5zM69 82h6v1h-6zM75 83h6v1h-6zM81 84h5v1h-5zM86 85h6v1h-6zM92 86h6v1h-6z" /><path fill="#ef7b61" d="M20 70h1v1h-1z" /><path fill="#fae6e1" d="M83 70h1v1h-1z" /><path fill="#f36838" d="M84 70h1v1h-1z" /><path fill="#f05635" d="M0 71h1v1h-1zM0 72h1v1h-1zM96 89h1v1h-1z" /><path fill="#f25835" d="M1 71h6v1h-6zM7 72h6v1h-6zM13 73h5v1h-5zM18 74h6v1h-6zM24 75h3v1h-3zM59 81h5v1h-5zM64 82h5v1h-5zM69 83h6v1h-6zM75 84h6v1h-6zM81 85h5v1h-5zM86 86h6v1h-6zM92 87h6v1h-6z" /><path fill="#f16848" d="M21 71h1v1h-1z" /><path fill="#f7d6d0" d="M22 71h1v1h-1z" /><path fill="#f18a69" d="M84 71h1v1h-1z" /><path fill="#f15f3b" d="M22 72h1v1h-1z" /><path fill="#f2b1a4" d="M23 72h1v1h-1z" /><path fill="#f3b7a7" d="M84 72h1v1h-1z" /><path fill="#f05535" d="M0 73h1v1h-1z" /><path fill="#f15635" d="M1 73h6v1h-6zM7 74h6v1h-6zM13 75h5v1h-5zM18 76h6v1h-6zM24 77h6v1h-6zM30 78h3v1h-3zM52 82h6v1h-6zM58 83h6v1h-6zM64 84h5v1h-5zM69 85h6v1h-6zM75 86h6v1h-6zM81 87h5v1h-5zM86 88h6v1h-6zM92 89h4v1h-4z" /><path fill="#f25735" d="M12 73h1v1h-1zM63 82h1v1h-1zM80 85h1v1h-1z" /><path fill="#f08068" d="M24 73h1v1h-1z" /><path fill="#f9e2dc" d="M84 73h1v1h-1z" /><path fill="#f05434" d="M0 74h1v1h-1z" /><path fill="#f15434" d="M1 74h1v1h-1zM2 75h5v1h-5zM7 76h6v1h-6zM13 77h6v1h-6zM19 78h5v1h-5zM24 79h6v1h-6zM30 80h6v1h-6zM36 81h5v1h-5zM41 82h6v1h-6zM47 83h6v1h-6zM53 84h5v1h-5zM58 85h6v1h-6zM64 86h6v1h-6zM70 87h5v1h-5zM75 88h6v1h-6zM81 89h6v1h-6zM87 90h5v1h-5zM92 91h2v1h-2z" /><path fill="#f15534" d="M2 74h3v1h-3zM7 75h3v1h-3zM13 76h3v1h-3zM19 77h3v1h-3zM24 78h3v1h-3zM30 79h3v1h-3zM36 80h2v1h-2zM41 81h1v1h-1zM47 82h3v1h-3zM53 83h3v1h-3zM58 84h3v1h-3zM64 85h3v1h-3zM70 86h3v1h-3zM75 87h3v1h-3zM81 88h3v1h-3zM87 89h3v1h-3zM92 90h3v1h-3z" /><path fill="#f15535" d="M5 74h2v1h-2zM10 75h3v1h-3zM16 76h2v1h-2zM22 77h2v1h-2zM27 78h3v1h-3zM33 79h2v1h-2zM50 82h2v1h-2zM56 83h2v1h-2zM61 84h3v1h-3zM67 85h2v1h-2zM73 86h2v1h-2zM78 87h3v1h-3zM84 88h2v1h-2zM90 89h2v1h-2z" /><path fill="#f26242" d="M25 74h1v1h-1z" /><path fill="#f3b8ad" d="M26 74h1v1h-1z" /><path fill="#f36a40" d="M85 74h1v1h-1z" /><path fill="#f05334" d="M0 75h1v1h-1z" /><path fill="#f15334" d="M1 75h1v1h-1zM2 76h5v1h-5zM7 77h6v1h-6zM13 78h6v1h-6zM19 79h5v1h-5zM24 80h6v1h-6zM30 81h6v1h-6zM36 82h5v1h-5zM41 83h6v1h-6zM47 84h6v1h-6zM53 85h5v1h-5zM58 86h6v1h-6zM64 87h6v1h-6zM70 88h5v1h-5zM75 89h6v1h-6zM81 90h6v1h-6zM87 91h5v1h-5zM92 92h2v1h-2z" /><path fill="#f0755d" d="M27 75h1v1h-1z" /><path fill="#f7d5d0" d="M28 75h1v1h-1zM62 79h1v1h-1zM53 81h1v1h-1z" /><path fill="#f6cec6" d="M71 75h1v1h-1z" /><path fill="#f3b0a0" d="M72 75h1v1h-1z" /><path fill="#f09d87" d="M73 75h1v1h-1z" /><path fill="#f19c86" d="M74 75h1v1h-1z" /><path fill="#f3ae9d" d="M75 75h1v1h-1z" /><path fill="#f5cac0" d="M76 75h1v1h-1z" /><path fill="#f27a57" d="M85 75h1v1h-1z" /><path fill="#f05134" d="M0 76h1v1h-1z" /><path fill="#f15234" d="M1 76h1v1h-1zM2 77h5v1h-5zM7 78h6v1h-6zM13 79h6v1h-6zM19 80h5v1h-5zM24 81h6v1h-6zM30 82h6v1h-6zM36 83h5v1h-5zM41 84h6v1h-6zM47 85h6v1h-6zM53 86h5v1h-5zM58 87h6v1h-6zM64 88h6v1h-6zM70 89h5v1h-5zM75 90h6v1h-6zM81 91h6v1h-6zM87 92h5v1h-5zM92 93h1v1h-1z" /><path fill="#f15736" d="M28 76h1v1h-1z" /><path fill="#ef8c79" d="M29 76h1v1h-1z" /><path fill="#f9e0dd" d="M30 76h1v1h-1z" /><path fill="#f1a08c" d="M69 76h1v1h-1z" /><path fill="#f16a46" d="M70 76h1v1h-1z" /><path fill="#f26a43" d="M77 76h1v1h-1z" /><path fill="#f1a28d" d="M78 76h1v1h-1z" /><path fill="#fcf3f1" d="M79 76h1v1h-1z" /><path fill="#f18466" d="M85 76h1v1h-1z" /><path fill="#f05034" d="M0 77h1v1h-1z" /><path fill="#f15134" d="M1 77h1v1h-1zM2 78h5v1h-5zM8 79h5v1h-5zM13 80h6v1h-6zM19 81h5v1h-5zM25 82h5v1h-5zM30 83h6v1h-6zM36 84h5v1h-5zM42 85h5v1h-5zM47 86h6v1h-6zM53 87h5v1h-5zM59 88h5v1h-5zM64 89h6v1h-6zM70 90h5v1h-5zM76 91h5v1h-5zM81 92h6v1h-6zM87 93h5v1h-5z" /><path fill="#f05737" d="M30 77h1v1h-1z" /><path fill="#ee8773" d="M31 77h1v1h-1z" /><path fill="#f7d9d5" d="M32 77h1v1h-1zM52 81h1v1h-1z" /><path fill="#fbebe9" d="M66 77h1v1h-1z" /><path fill="#f19c89" d="M67 77h1v1h-1z" /><path fill="#f1613c" d="M68 77h1v1h-1z" /><path fill="#f26a47" d="M79 77h1v1h-1z" /><path fill="#f4c6bc" d="M80 77h1v1h-1z" /><path fill="#f18265" d="M85 77h1v1h-1z" /><path fill="#f26336" d="M99 77h1v1h-1z" /><path fill="#f15033" d="M0 78h1v1h-1z" /><path fill="#f15034" d="M1 78h1v1h-1zM2 79h6v1h-6zM8 80h5v1h-5zM13 81h6v1h-6zM19 82h6v1h-6zM25 83h5v1h-5zM30 84h6v1h-6zM36 85h6v1h-6zM42 86h5v1h-5zM47 87h6v1h-6zM53 88h6v1h-6zM59 89h5v1h-5zM64 90h6v1h-6zM70 91h6v1h-6zM76 92h5v1h-5zM81 93h6v1h-6zM87 94h4v1h-4z" /><path fill="#ef7b65" d="M33 78h1v1h-1z" /><path fill="#f2b9b0" d="M34 78h1v1h-1z" /><path fill="#fdf5f4" d="M35 78h1v1h-1z" /><path fill="#fae8e4" d="M64 78h1v1h-1z" /><path fill="#f19b89" d="M65 78h1v1h-1z" /><path fill="#f1603c" d="M66 78h1v1h-1z" /><path fill="#f26037" d="M80 78h1v1h-1z" /><path fill="#f1a898" d="M81 78h1v1h-1z" /><path fill="#f17a5b" d="M85 78h1v1h-1z" /><path fill="#f36135" d="M99 78h1v1h-1z" /><path fill="#f04e33" d="M0 79h1v1h-1z" /><path fill="#f14f34" d="M1 79h1v1h-1zM2 80h6v1h-6zM8 81h5v1h-5zM13 82h6v1h-6zM19 83h6v1h-6zM25 84h5v1h-5zM30 85h6v1h-6zM36 86h6v1h-6zM42 87h5v1h-5zM47 88h6v1h-6zM53 89h6v1h-6zM59 90h5v1h-5zM64 91h6v1h-6zM70 92h6v1h-6zM76 93h5v1h-5zM81 94h6v1h-6zM87 95h3v1h-3z" /><path fill="#f05a3d" d="M35 79h1v1h-1z" /><path fill="#ee8d7b" d="M36 79h1v1h-1z" /><path fill="#f5c8c2" d="M37 79h1v1h-1z" /><path fill="#fdf6f6" d="M38 79h1v1h-1z" /><path fill="#f08c77" d="M63 79h1v1h-1z" /><path fill="#f25e38" d="M64 79h1v1h-1z" /><path fill="#f0a291" d="M82 79h1v1h-1z" /><path fill="#f3643e" d="M85 79h1v1h-1z" /><path fill="#f14d32" d="M0 80h1v1h-1z" /><path fill="#f14e33" d="M1 80h1v1h-1zM2 81h6v1h-6zM8 82h5v1h-5zM13 83h6v1h-6zM19 84h6v1h-6zM25 85h5v1h-5zM30 86h6v1h-6zM36 87h6v1h-6zM42 88h5v1h-5zM47 89h6v1h-6zM53 90h6v1h-6zM59 91h5v1h-5zM64 92h6v1h-6zM70 93h6v1h-6zM76 94h5v1h-5zM81 95h6v1h-6zM87 96h2v1h-2z" /><path fill="#f05738" d="M38 80h1v1h-1z" /><path fill="#ed7862" d="M39 80h1v1h-1z" /><path fill="#f0a397" d="M40 80h1v1h-1z" /><path fill="#f6d3ce" d="M41 80h1v1h-1z" /><path fill="#f8d9d4" d="M59 80h1v1h-1z" /><path fill="#f1a091" d="M60 80h1v1h-1z" /><path fill="#f16c4d" d="M61 80h1v1h-1z" /><path fill="#f2b6aa" d="M83 80h1v1h-1z" /><path fill="#f8dbd6" d="M84 80h1v1h-1z" /><path fill="#ef4d33" d="M0 81h1v1h-1z" /><path fill="#f14d33" d="M1 81h1v1h-1zM6 82h2v1h-2zM12 83h1v1h-1zM18 84h1v1h-1zM23 85h2v1h-2zM29 86h1v1h-1zM35 87h1v1h-1zM40 88h2v1h-2zM46 89h1v1h-1zM52 90h1v1h-1zM58 91h1v1h-1zM63 92h1v1h-1zM69 93h1v1h-1zM75 94h1v1h-1zM80 95h1v1h-1zM86 96h1v1h-1z" /><path fill="#f05533" d="M42 81h1v1h-1z" /><path fill="#ee6349" d="M43 81h1v1h-1z" /><path fill="#ed7b67" d="M44 81h1v1h-1z" /><path fill="#ef9485" d="M45 81h1v1h-1z" /><path fill="#f2afa5" d="M46 81h1v1h-1z" /><path fill="#f2b8b0" d="M47 81h1v1h-1z" /><path fill="#f3c1b9" d="M48 81h1v1h-1z" /><path fill="#f5ccc6" d="M49 81h1v1h-1z" /><path fill="#f7d6d1" d="M50 81h1v1h-1z" /><path fill="#f8dad6" d="M51 81h1v1h-1z" /><path fill="#f4c6be" d="M54 81h1v1h-1z" /><path fill="#f3b4a9" d="M55 81h1v1h-1z" /><path fill="#f09888" d="M56 81h1v1h-1z" /><path fill="#ee765f" d="M57 81h1v1h-1z" /><path fill="#f15d3c" d="M58 81h1v1h-1z" /><path fill="#f15f3c" d="M83 81h1v1h-1z" /><path fill="#f08c75" d="M84 81h1v1h-1z" /><path fill="#f15f35" d="M99 81h1v1h-1z" /><path fill="#f04c33" d="M1 82h1v1h-1zM2 83h6v1h-6zM8 84h5v1h-5zM14 85h5v1h-5zM19 86h6v1h-6zM25 87h6v1h-6zM31 88h5v1h-5zM36 89h6v1h-6zM42 90h6v1h-6zM48 91h5v1h-5zM53 92h6v1h-6zM59 93h6v1h-6zM65 94h5v1h-5zM70 95h6v1h-6zM76 96h6v1h-6zM82 97h5v1h-5z" /><path fill="#f04d33" d="M2 82h4v1h-4zM8 83h4v1h-4zM13 84h5v1h-5zM19 85h4v1h-4zM25 86h4v1h-4zM31 87h4v1h-4zM36 88h4v1h-4zM42 89h4v1h-4zM48 90h4v1h-4zM53 91h5v1h-5zM59 92h4v1h-4zM65 93h4v1h-4zM70 94h5v1h-5zM76 95h4v1h-4zM82 96h4v1h-4z" /><path fill="#ef4a33" d="M1 83h1v1h-1zM1 84h1v1h-1z" /><path fill="#f04b33" d="M2 84h6v1h-6zM8 85h6v1h-6zM14 86h5v1h-5zM19 87h6v1h-6zM25 88h6v1h-6zM31 89h5v1h-5zM36 90h6v1h-6zM42 91h6v1h-6zM48 92h5v1h-5zM53 93h6v1h-6zM59 94h6v1h-6zM65 95h5v1h-5zM70 96h6v1h-6zM76 97h6v1h-6zM82 98h2v1h-2z" /><path fill="#f04a33" d="M2 85h6v1h-6zM8 86h6v1h-6zM14 87h5v1h-5zM19 88h6v1h-6zM25 89h6v1h-6zM31 90h5v1h-5zM36 91h6v1h-6zM42 92h6v1h-6zM48 93h5v1h-5zM53 94h6v1h-6zM59 95h6v1h-6zM65 96h5v1h-5zM70 97h6v1h-6zM76 98h6v1h-6zM85 98h1v1h-1z" /><path fill="#f25b34" d="M98 85h1v1h-1z" /><path fill="#f04833" d="M2 86h1v1h-1zM5 87h3v1h-3zM10 88h4v1h-4zM16 89h3v1h-3zM22 90h3v1h-3zM27 91h4v1h-4zM33 92h3v1h-3zM39 93h3v1h-3zM44 94h4v1h-4zM50 95h3v1h-3zM56 96h3v1h-3zM61 97h4v1h-4zM67 98h3v1h-3zM73 99h3v1h-3zM78 99h1v1h-1z" /><path fill="#f04933" d="M3 86h5v1h-5zM8 87h6v1h-6zM14 88h5v1h-5zM19 89h6v1h-6zM25 90h6v1h-6zM31 91h5v1h-5zM36 92h6v1h-6zM42 93h6v1h-6zM48 94h5v1h-5zM53 95h6v1h-6zM59 96h6v1h-6zM65 97h5v1h-5zM70 98h6v1h-6zM76 99h2v1h-2z" /><path fill="#f04732" d="M2 87h1v1h-1zM4 88h4v1h-4zM8 89h6v1h-6zM14 90h6v1h-6zM20 91h5v1h-5zM25 92h6v1h-6zM31 93h6v1h-6zM37 94h5v1h-5zM42 95h6v1h-6zM48 96h6v1h-6zM54 97h5v1h-5zM59 98h6v1h-6zM65 99h6v1h-6z" /><path fill="#f04832" d="M3 87h2v1h-2zM8 88h2v1h-2zM14 89h2v1h-2zM20 90h2v1h-2zM25 91h2v1h-2zM31 92h2v1h-2zM37 93h2v1h-2zM42 94h2v1h-2zM48 95h2v1h-2zM54 96h2v1h-2zM59 97h2v1h-2zM65 98h2v1h-2zM71 99h2v1h-2z" /><path fill="#f04631" d="M3 88h1v1h-1z" /><path fill="#f05735" d="M96 88h1v1h-1z" /><path fill="#f04632" d="M4 89h4v1h-4zM8 90h6v1h-6zM14 91h6v1h-6zM20 92h5v1h-5zM25 93h6v1h-6zM31 94h6v1h-6zM37 95h5v1h-5zM42 96h6v1h-6zM48 97h6v1h-6zM54 98h5v1h-5zM59 99h6v1h-6z" /><path fill="#ef4431" d="M4 90h1v1h-1zM5 91h1v1h-1z" /><path fill="#f04532" d="M5 90h3v1h-3zM8 91h6v1h-6zM14 92h6v1h-6zM20 93h5v1h-5zM25 94h6v1h-6zM31 95h6v1h-6zM37 96h5v1h-5zM42 97h6v1h-6zM48 98h6v1h-6zM54 99h5v1h-5z" /><path fill="#f05534" d="M95 90h1v1h-1z" /><path fill="#f04432" d="M6 91h2v1h-2zM9 92h5v1h-5zM14 93h6v1h-6zM20 94h5v1h-5zM26 95h5v1h-5zM31 96h6v1h-6zM37 97h5v1h-5zM43 98h5v1h-5zM48 99h6v1h-6z" /><path fill="#f05333" d="M94 91h1v1h-1z" /><path fill="#ef4232" d="M6 92h1v1h-1zM8 93h1v1h-1zM9 94h5v1h-5zM14 95h6v1h-6zM20 96h6v1h-6zM26 97h5v1h-5zM31 98h6v1h-6zM37 99h6v1h-6z" /><path fill="#f04332" d="M7 92h2v1h-2zM12 93h2v1h-2zM18 94h2v1h-2zM23 95h3v1h-3zM29 96h2v1h-2zM35 97h2v1h-2zM40 98h3v1h-3zM46 99h2v1h-2z" /><path fill="#ef4231" d="M7 93h1v1h-1z" /><path fill="#ef4332" d="M9 93h3v1h-3zM14 94h4v1h-4zM20 95h3v1h-3zM26 96h3v1h-3zM31 97h4v1h-4zM37 98h3v1h-3zM43 99h3v1h-3z" /><path fill="#ef4031" d="M8 94h1v1h-1zM12 96h2v1h-2zM14 97h6v1h-6zM20 98h6v1h-6zM30 99h1v1h-1z" /><path fill="#f04f34" d="M91 94h1v1h-1z" /><path fill="#ef4030" d="M9 95h1v1h-1zM29 99h1v1h-1z" /><path fill="#ef4131" d="M10 95h3v1h-3zM14 96h5v1h-5zM20 97h5v1h-5zM26 98h4v1h-4zM31 99h5v1h-5z" /><path fill="#ef4132" d="M13 95h1v1h-1zM19 96h1v1h-1zM25 97h1v1h-1zM30 98h1v1h-1zM36 99h1v1h-1z" /><path fill="#f04e34" d="M90 95h1v1h-1z" /><path fill="#ee3f30" d="M10 96h1v1h-1z" /><path fill="#ee3f31" d="M11 96h1v1h-1zM21 99h5v1h-5z" /><path fill="#f14e32" d="M89 96h1v1h-1z" /><path fill="#ee3e31" d="M12 97h1v1h-1zM20 99h1v1h-1z" /><path fill="#ee3e30" d="M13 97h1v1h-1z" /><path fill="#ef4c32" d="M87 97h1v1h-1z" /><path fill="#ef3e30" d="M14 98h1v1h-1zM19 99h1v1h-1z" /><path fill="#ef3e31" d="M15 98h1v1h-1zM18 99h1v1h-1z" /><path fill="#ef3f31" d="M16 98h4v1h-4z" /><path fill="#f04a32" d="M84 98h1v1h-1z" /><path fill="#ee4031" d="M26 99h3v1h-3z" /><path fill="#ef4933" d="M79 99h1v1h-1z" /><path fill="#ef4932" d="M80 99h1v1h-1z" /><path fill="#ef4833" d="M81 99h1v1h-1z" /></svg>