<svg xmlns="http://www.w3.org/2000/svg" viewBox="0 0 100 100" width="1em" height="1em"><path fill="#05b6d4" d="M44 20h1v1h-1zM54 20h1v1h-1zM58 21h2v1h-2zM32 26h1v1h-1zM30 28h1v1h-1zM72 30h1v1h-1zM28 31h1v1h-1zM98 33h1v1h-1zM48 35h1v1h-1zM82 37h1v1h-1zM51 38h1v1h-1zM61 46h1v1h-1zM79 49h1v1h-1zM27 50h1v1h-1zM16 51h1v1h-1zM2 63h1v1h-1zM20 63h1v1h-1zM73 63h1v1h-1zM73 64h1v1h-1zM24 66h1v1h-1zM25 67h1v1h-1zM0 68h1v1h-1zM71 68h1v1h-1zM48 79h1v1h-1zM55 79h1v1h-1z" /><path fill="#05b6d3" d="M45 20h1v1h-1zM52 20h1v1h-1zM55 20h1v1h-1zM65 24h1v1h-1zM73 31h1v1h-1zM99 31h1v1h-1zM74 32h1v1h-1zM27 33h1v1h-1zM52 39h1v1h-1zM91 44h1v1h-1zM63 47h1v1h-1zM65 48h2v1h-2zM84 48h1v1h-1zM70 49h1v1h-1zM29 50h1v1h-1zM38 53h1v1h-1zM48 61h1v1h-1zM74 61h1v1h-1zM51 64h1v1h-1zM65 67h1v1h-1zM27 69h1v1h-1zM41 78h1v1h-1zM45 79h1v1h-1z" /><path fill="#06b6d4" d="M46 20h1v1h-1zM49 20h1v1h-1zM53 20h1v1h-1zM42 21h16v1h-16zM39 22h22v1h-22zM37 23h26v1h-26zM36 24h29v1h-29zM34 25h32v1h-32zM33 26h34v1h-34zM32 27h38v1h-38zM31 28h39v1h-39zM30 29h41v1h-41zM29 30h43v1h-43zM29 31h44v1h-44zM28 32h5v1h-5zM44 32h30v1h-30zM98 32h1v1h-1zM28 33h3v1h-3zM46 33h29v1h-29zM27 34h3v1h-3zM48 34h28v1h-28zM97 34h1v1h-1zM27 35h1v1h-1zM49 35h28v1h-28zM95 35h2v1h-2zM27 36h1v1h-1zM50 36h29v1h-29zM93 36h4v1h-4zM51 37h31v1h-31zM91 37h5v1h-5zM52 38h44v1h-44zM53 39h42v1h-42zM54 40h41v1h-41zM55 41h39v1h-39zM56 42h37v1h-37zM58 43h34v1h-34zM58 44h33v1h-33zM60 45h29v1h-29zM62 46h26v1h-26zM64 47h22v1h-22zM67 48h16v1h-16zM74 49h1v1h-1zM76 49h1v1h-1zM24 50h1v1h-1zM28 50h1v1h-1zM17 51h16v1h-16zM14 52h22v1h-22zM12 53h26v1h-26zM11 54h29v1h-29zM9 55h32v1h-32zM8 56h34v1h-34zM7 57h37v1h-37zM6 58h40v1h-40zM5 59h41v1h-41zM4 60h43v1h-43zM4 61h44v1h-44zM3 62h5v1h-5zM19 62h30v1h-30zM73 62h1v1h-1zM3 63h3v1h-3zM21 63h29v1h-29zM2 64h3v1h-3zM22 64h29v1h-29zM72 64h1v1h-1zM1 65h2v1h-2zM24 65h28v1h-28zM69 65h3v1h-3zM25 66h29v1h-29zM68 66h4v1h-4zM26 67h30v1h-30zM67 67h4v1h-4zM27 68h44v1h-44zM28 69h42v1h-42zM29 70h41v1h-41zM30 71h39v1h-39zM31 72h37v1h-37zM33 73h34v1h-34zM33 74h33v1h-33zM35 75h29v1h-29zM37 76h27v1h-27zM39 77h22v1h-22zM42 78h16v1h-16zM46 79h1v1h-1zM51 79h1v1h-1z" /><path fill="#05b5d4" d="M47 20h1v1h-1zM51 20h1v1h-1zM38 22h1v1h-1zM61 22h1v1h-1zM42 32h1v1h-1zM76 34h1v1h-1zM98 34h1v1h-1zM49 36h1v1h-1zM79 36h1v1h-1zM90 37h1v1h-1zM25 38h1v1h-1zM96 38h1v1h-1zM59 45h1v1h-1zM90 45h1v1h-1zM83 48h1v1h-1zM69 49h1v1h-1zM72 49h1v1h-1zM80 49h1v1h-1zM20 50h1v1h-1zM13 52h1v1h-1zM36 52h1v1h-1zM40 54h1v1h-1zM7 56h1v1h-1zM5 58h1v1h-1zM46 59h1v1h-1zM47 60h1v1h-1zM3 61h1v1h-1zM49 62h1v1h-1zM6 63h1v1h-1zM72 66h1v1h-1zM26 68h1v1h-1zM34 75h1v1h-1zM65 75h1v1h-1zM38 77h1v1h-1zM40 78h1v1h-1z" /><path fill="#06b5d4" d="M48 20h1v1h-1zM70 28h1v1h-1zM34 32h1v1h-1zM31 33h1v1h-1zM97 33h1v1h-1zM47 34h1v1h-1zM96 34h1v1h-1zM26 35h1v1h-1zM94 41h1v1h-1zM92 43h1v1h-1zM75 49h1v1h-1zM22 50h2v1h-2zM25 50h1v1h-1zM15 51h1v1h-1zM44 57h1v1h-1zM5 64h1v1h-1zM71 64h1v1h-1zM54 66h1v1h-1zM28 70h1v1h-1zM29 71h1v1h-1zM68 72h1v1h-1zM53 79h1v1h-1z" /><path fill="#06b5d3" d="M50 20h1v1h-1zM36 23h1v1h-1zM33 25h1v1h-1zM66 25h1v1h-1zM31 27h1v1h-1zM33 32h1v1h-1zM43 32h1v1h-1zM75 33h1v1h-1zM30 34h1v1h-1zM28 35h1v1h-1zM77 35h1v1h-1zM94 35h1v1h-1zM97 35h1v1h-1zM26 36h1v1h-1zM26 37h1v1h-1zM96 37h1v1h-1zM54 41h1v1h-1zM55 42h1v1h-1zM93 42h1v1h-1zM89 45h1v1h-1zM88 46h1v1h-1zM78 49h1v1h-1zM21 50h1v1h-1zM8 55h1v1h-1zM41 55h1v1h-1zM42 56h1v1h-1zM18 62h1v1h-1zM50 63h1v1h-1zM72 63h1v1h-1zM3 65h1v1h-1zM23 65h1v1h-1zM72 65h1v1h-1zM1 66h2v1h-2zM1 67h1v1h-1zM56 67h1v1h-1zM66 67h1v1h-1zM71 67h1v1h-1zM70 69h1v1h-1zM69 71h1v1h-1zM30 72h1v1h-1zM67 73h1v1h-1zM64 75h1v1h-1zM61 77h1v1h-1zM49 79h2v1h-2z" /><path fill="#06b6d3" d="M40 21h1v1h-1zM35 24h1v1h-1zM67 26h1v1h-1zM95 39h1v1h-1zM53 40h1v1h-1zM57 43h1v1h-1zM86 47h1v1h-1zM71 49h1v1h-1zM26 50h1v1h-1zM10 54h1v1h-1zM6 57h1v1h-1zM8 62h2v1h-2zM52 65h1v1h-1zM32 73h1v1h-1z" /><path fill="#05b5d3" d="M41 21h1v1h-1zM63 23h1v1h-1zM71 29h1v1h-1zM45 33h1v1h-1zM97 36h1v1h-1zM50 37h1v1h-1zM73 49h1v1h-1zM77 49h1v1h-1zM19 50h1v1h-1zM30 50h1v1h-1zM33 51h2v1h-2zM11 53h1v1h-1zM57 67h1v1h-1zM66 74h1v1h-1zM36 76h1v1h-1zM58 78h2v1h-2zM47 79h1v1h-1zM52 79h1v1h-1zM54 79h1v1h-1z" /></svg>