<svg xmlns="http://www.w3.org/2000/svg" viewBox="0 0 100 100" width="1em" height="1em"><path fill="#68c3ff" d="M16 3h1v1h-1zM19 3h64v1h-64zM14 4h73v1h-73zM13 5h77v1h-77zM11 6h81v1h-81zM10 7h82v1h-82zM9 8h85v1h-85zM7 9h87v1h-87zM6 10h89v1h-89zM7 11h89v1h-89zM6 12h90v1h-90zM5 13h92v1h-92zM5 14h93v1h-93zM5 15h93v1h-93zM4 16h94v1h-94zM3 17h96v1h-96zM3 18h95v1h-95zM3 19h96v1h-96zM4 20h95v1h-95zM4 21h95v1h-95zM4 22h95v1h-95zM4 23h74v1h-74zM80 23h19v1h-19zM4 24h73v1h-73zM80 24h19v1h-19zM4 25h72v1h-72zM80 25h19v1h-19zM4 26h71v1h-71zM80 26h19v1h-19zM4 27h69v1h-69zM80 27h19v1h-19zM4 28h67v1h-67zM80 28h19v1h-19zM4 29h65v1h-65zM80 29h19v1h-19zM4 30h61v1h-61zM80 30h19v1h-19zM4 31h31v1h-31zM80 31h19v1h-19zM4 32h27v1h-27zM80 32h19v1h-19zM4 33h25v1h-25zM80 33h19v1h-19zM4 34h24v1h-24zM80 34h19v1h-19zM4 35h23v1h-23zM79 35h20v1h-20zM4 36h22v1h-22zM79 36h20v1h-20zM4 37h21v1h-21zM79 37h20v1h-20zM4 38h20v1h-20zM79 38h20v1h-20zM4 39h20v1h-20zM78 39h21v1h-21zM4 40h19v1h-19zM77 40h22v1h-22zM4 41h19v1h-19zM77 41h22v1h-22zM4 42h19v1h-19zM76 42h23v1h-23zM4 43h18v1h-18zM75 43h24v1h-24zM4 44h18v1h-18zM74 44h25v1h-25zM4 45h18v1h-18zM73 45h26v1h-26zM4 46h18v1h-18zM71 46h28v1h-28zM4 47h18v1h-18zM69 47h30v1h-30zM4 48h18v1h-18zM65 48h13v1h-13zM80 48h19v1h-19zM4 49h73v1h-73zM80 49h19v1h-19zM4 50h72v1h-72zM80 50h19v1h-19zM4 51h71v1h-71zM80 51h19v1h-19zM4 52h69v1h-69zM80 52h19v1h-19zM4 53h67v1h-67zM80 53h19v1h-19zM4 54h64v1h-64zM80 54h19v1h-19zM4 55h60v1h-60zM80 55h19v1h-19zM4 56h30v1h-30zM80 56h19v1h-19zM4 57h27v1h-27zM80 57h19v1h-19zM4 58h25v1h-25zM80 58h19v1h-19zM4 59h24v1h-24zM79 59h20v1h-20zM4 60h23v1h-23zM79 60h20v1h-20zM4 61h22v1h-22zM79 61h20v1h-20zM4 62h21v1h-21zM79 62h20v1h-20zM4 63h20v1h-20zM78 63h21v1h-21zM4 64h20v1h-20zM78 64h21v1h-21zM4 65h19v1h-19zM77 65h22v1h-22zM4 66h19v1h-19zM77 66h22v1h-22zM4 67h18v1h-18zM76 67h23v1h-23zM4 68h18v1h-18zM75 68h24v1h-24zM4 69h18v1h-18zM74 69h25v1h-25zM4 70h18v1h-18zM73 70h26v1h-26zM4 71h18v1h-18zM71 71h28v1h-28zM4 72h18v1h-18zM69 72h30v1h-30zM4 73h95v1h-95zM4 74h95v1h-95zM4 75h95v1h-95zM4 76h95v1h-95zM4 77h95v1h-95zM4 78h95v1h-95zM4 79h95v1h-95zM4 80h95v1h-95zM4 81h95v1h-95zM3 82h96v1h-96zM4 83h95v1h-95zM4 84h95v1h-95zM4 85h94v1h-94zM4 86h94v1h-94zM5 87h92v1h-92zM6 88h91v1h-91zM6 89h91v1h-91zM7 90h89v1h-89zM8 91h87v1h-87zM8 92h87v1h-87zM9 93h85v1h-85zM11 94h81v1h-81zM11 95h79v1h-79zM14 96h75v1h-75zM15 97h72v1h-72zM18 98h1v1h-1zM20 98h1v1h-1z" /><path fill="#68c2ff" d="M17 3h1v1h-1zM83 3h1v1h-1zM10 6h1v1h-1zM8 8h1v1h-1zM95 10h1v1h-1zM6 11h1v1h-1zM97 13h1v1h-1zM4 14h1v1h-1zM3 81h1v1h-1zM5 88h1v1h-1zM5 89h1v1h-1zM6 90h1v1h-1zM82 98h1v1h-1z" /><path fill="#67c3ff" d="M18 3h1v1h-1zM85 3h1v1h-1zM87 4h1v1h-1zM9 7h1v1h-1zM92 7h1v1h-1zM5 12h1v1h-1zM96 12h1v1h-1zM4 15h1v1h-1zM98 18h1v1h-1zM3 83h1v1h-1zM98 85h1v1h-1zM4 87h1v1h-1zM95 91h1v1h-1zM90 95h1v1h-1zM87 97h1v1h-1zM19 98h1v1h-1zM21 98h60v1h-60zM83 98h1v1h-1z" /><path fill="#67c2ff" d="M84 3h1v1h-1zM88 4h1v1h-1zM12 5h1v1h-1zM90 5h1v1h-1zM94 9h1v1h-1zM96 11h1v1h-1zM98 16h1v1h-1zM3 20h1v1h-1zM3 21h1v1h-1zM3 22h1v1h-1zM3 23h1v1h-1zM3 24h1v1h-1zM3 25h1v1h-1zM3 26h1v1h-1zM3 27h1v1h-1zM3 28h1v1h-1zM3 29h1v1h-1zM3 30h1v1h-1zM3 31h1v1h-1zM3 32h1v1h-1zM3 33h1v1h-1zM3 34h1v1h-1zM3 35h1v1h-1zM3 36h1v1h-1zM3 37h1v1h-1zM3 38h1v1h-1zM3 39h1v1h-1zM3 40h1v1h-1zM3 41h1v1h-1zM3 42h1v1h-1zM3 43h1v1h-1zM3 44h1v1h-1zM3 45h1v1h-1zM3 46h1v1h-1zM3 47h1v1h-1zM3 48h1v1h-1zM3 49h1v1h-1zM3 50h1v1h-1zM3 51h1v1h-1zM3 52h1v1h-1zM3 53h1v1h-1zM3 54h1v1h-1zM3 55h1v1h-1zM3 56h1v1h-1zM3 57h1v1h-1zM3 58h1v1h-1zM3 59h1v1h-1zM3 60h1v1h-1zM3 61h1v1h-1zM3 62h1v1h-1zM3 63h1v1h-1zM3 64h1v1h-1zM3 65h1v1h-1zM3 66h1v1h-1zM3 67h1v1h-1zM3 68h1v1h-1zM3 69h1v1h-1zM3 70h1v1h-1zM3 71h1v1h-1zM3 72h1v1h-1zM3 73h1v1h-1zM3 74h1v1h-1zM3 75h1v1h-1zM3 76h1v1h-1zM3 77h1v1h-1zM3 78h1v1h-1zM3 79h1v1h-1zM3 80h1v1h-1zM97 87h1v1h-1zM7 91h1v1h-1zM8 93h1v1h-1zM10 94h1v1h-1zM92 94h1v1h-1zM91 95h1v1h-1zM12 96h2v1h-2zM89 96h1v1h-1zM81 98h1v1h-1z" /><path fill="#60b1e7" d="M78 23h1v1h-1zM25 37h1v1h-1z" /><path fill="#569ccb" d="M79 23h1v1h-1zM22 44h1v1h-1zM73 44h1v1h-1z" /><path fill="#65bdf7" d="M77 24h1v1h-1zM76 66h1v1h-1z" /><path fill="#2b4051" d="M78 24h1v1h-1zM76 26h1v1h-1z" /><path fill="#4a84ac" d="M79 24h1v1h-1z" /><path fill="#66bef8" d="M76 25h1v1h-1zM64 48h1v1h-1z" /><path fill="#2f495e" d="M77 25h1v1h-1zM66 47h1v1h-1z" /><path fill="#191b20" d="M78 25h1v1h-1zM77 26h2v1h-2zM76 27h3v1h-3zM74 28h5v1h-5zM72 29h7v1h-7zM70 30h9v1h-9zM66 31h13v1h-13zM35 32h44v1h-44zM32 33h47v1h-47zM30 34h48v1h-48zM29 35h49v1h-49zM28 36h50v1h-50zM27 37h51v1h-51zM26 38h51v1h-51zM25 39h52v1h-52zM25 40h51v1h-51zM24 41h51v1h-51zM24 42h50v1h-50zM24 43h49v1h-49zM23 44h49v1h-49zM23 45h48v1h-48zM23 46h45v1h-45zM23 47h42v1h-42zM78 50h1v1h-1zM77 51h2v1h-2zM75 52h4v1h-4zM74 53h5v1h-5zM72 54h7v1h-7zM69 55h10v1h-10zM65 56h14v1h-14zM34 57h45v1h-45zM32 58h46v1h-46zM30 59h48v1h-48zM29 60h49v1h-49zM28 61h50v1h-50zM27 62h50v1h-50zM26 63h51v1h-51zM25 64h51v1h-51zM25 65h51v1h-51zM24 66h51v1h-51zM24 67h50v1h-50zM23 68h50v1h-50zM23 69h49v1h-49zM23 70h47v1h-47zM23 71h45v1h-45zM23 72h41v1h-41z" /><path fill="#4a83aa" d="M79 25h1v1h-1zM22 46h1v1h-1z" /><path fill="#60b4ea" d="M75 26h1v1h-1zM70 71h1v1h-1z" /><path fill="#4a82a9" d="M79 26h1v1h-1z" /><path fill="#68c2fe" d="M73 27h1v1h-1zM29 33h1v1h-1zM78 38h1v1h-1zM22 48h1v1h-1zM64 55h1v1h-1z" /><path fill="#4b85ad" d="M74 27h1v1h-1zM45 56h1v1h-1z" /><path fill="#1f2831" d="M75 27h1v1h-1z" /><path fill="#4a81a8" d="M79 27h1v1h-1zM79 31h1v1h-1zM22 69h1v1h-1z" /><path fill="#67c1fd" d="M71 28h1v1h-1zM31 32h1v1h-1zM68 54h1v1h-1z" /><path fill="#4f8eb9" d="M72 28h1v1h-1z" /><path fill="#293d4d" d="M73 28h1v1h-1zM65 72h1v1h-1z" /><path fill="#4981a7" d="M79 28h1v1h-1z" /><path fill="#65bcf5" d="M69 29h1v1h-1z" /><path fill="#487fa5" d="M70 29h1v1h-1z" /><path fill="#243441" d="M71 29h1v1h-1z" /><path fill="#4880a6" d="M79 29h1v1h-1zM56 31h5v1h-5zM46 56h7v1h-7z" /><path fill="#67bffa" d="M65 30h1v1h-1zM22 43h1v1h-1z" /><path fill="#58a1d2" d="M66 30h1v1h-1zM27 35h1v1h-1z" /><path fill="#467b9f" d="M67 30h1v1h-1z" /><path fill="#304e63" d="M68 30h1v1h-1zM76 40h1v1h-1zM78 60h1v1h-1z" /><path fill="#1b2027" d="M69 30h1v1h-1z" /><path fill="#487ea4" d="M79 30h1v1h-1z" /><path fill="#60b2e8" d="M35 31h1v1h-1zM73 69h1v1h-1z" /><path fill="#5398c6" d="M36 31h1v1h-1zM79 53h1v1h-1zM28 59h1v1h-1z" /><path fill="#5396c4" d="M37 31h3v1h-3zM79 54h1v1h-1zM36 56h1v1h-1z" /><path fill="#4d8bb5" d="M40 31h15v1h-15zM77 39h1v1h-1zM38 56h7v1h-7z" /><path fill="#4e89b3" d="M55 31h1v1h-1z" /><path fill="#437496" d="M61 31h1v1h-1zM71 70h1v1h-1z" /><path fill="#3b6481" d="M62 31h1v1h-1zM30 58h1v1h-1z" /><path fill="#335269" d="M63 31h1v1h-1z" /><path fill="#263745" d="M64 31h1v1h-1zM33 57h1v1h-1z" /><path fill="#1b1e23" d="M65 31h1v1h-1zM68 46h1v1h-1zM28 60h1v1h-1zM76 64h1v1h-1z" /><path fill="#5193bf" d="M32 32h1v1h-1z" /><path fill="#34536a" d="M33 32h1v1h-1zM71 45h1v1h-1z" /><path fill="#202b34" d="M34 32h1v1h-1zM28 35h1v1h-1z" /><path fill="#4e8cb6" d="M79 32h1v1h-1z" /><path fill="#4b87af" d="M30 33h1v1h-1z" /><path fill="#222f3a" d="M31 33h1v1h-1zM78 59h1v1h-1z" /><path fill="#559bc9" d="M79 33h1v1h-1z" /><path fill="#5dade1" d="M28 34h1v1h-1zM24 48h39v1h-39zM79 48h1v1h-1z" /><path fill="#2e4659" d="M29 34h1v1h-1z" /><path fill="#191c21" d="M78 34h1v1h-1zM78 58h1v1h-1zM27 61h1v1h-1zM26 62h1v1h-1z" /><path fill="#63b8f0" d="M79 34h1v1h-1zM72 45h1v1h-1z" /><path fill="#24313e" d="M78 35h1v1h-1z" /><path fill="#559aca" d="M26 36h1v1h-1zM78 37h1v1h-1z" /><path fill="#1d232a" d="M27 36h1v1h-1zM70 70h1v1h-1z" /><path fill="#3b6380" d="M78 36h1v1h-1z" /><path fill="#202a33" d="M26 37h1v1h-1zM75 41h1v1h-1z" /><path fill="#66c0fb" d="M24 38h1v1h-1zM72 70h1v1h-1z" /><path fill="#2b4354" d="M25 38h1v1h-1z" /><path fill="#273a49" d="M77 38h1v1h-1z" /><path fill="#437597" d="M24 39h1v1h-1zM54 56h6v1h-6z" /><path fill="#63baf2" d="M23 40h1v1h-1zM71 53h1v1h-1zM29 58h1v1h-1z" /><path fill="#1e252c" d="M24 40h1v1h-1z" /><path fill="#477ca0" d="M23 41h1v1h-1z" /><path fill="#61b4ec" d="M76 41h1v1h-1zM78 62h1v1h-1z" /><path fill="#2f4a5d" d="M23 42h1v1h-1z" /><path fill="#1c2229" d="M74 42h1v1h-1zM73 43h1v1h-1z" /><path fill="#5499c7" d="M75 42h1v1h-1z" /><path fill="#1c222a" d="M23 43h1v1h-1zM71 54h1v1h-1z" /><path fill="#5497c4" d="M74 43h1v1h-1z" /><path fill="#23303b" d="M72 44h1v1h-1z" /><path fill="#4f8db7" d="M22 45h1v1h-1z" /><path fill="#34546b" d="M69 46h1v1h-1z" /><path fill="#579fcf" d="M70 46h1v1h-1zM79 49h1v1h-1z" /><path fill="#4982a8" d="M22 47h1v1h-1z" /><path fill="#212a35" d="M65 47h1v1h-1zM68 55h1v1h-1z" /><path fill="#45789b" d="M67 47h1v1h-1z" /><path fill="#5eaee4" d="M68 47h1v1h-1zM23 48h1v1h-1z" /><path fill="#5eade2" d="M63 48h1v1h-1z" /><path fill="#569ece" d="M78 48h1v1h-1z" /><path fill="#5dabe0" d="M77 49h1v1h-1zM65 55h1v1h-1z" /><path fill="#212c37" d="M78 49h1v1h-1z" /><path fill="#5ba7da" d="M76 50h1v1h-1zM79 57h1v1h-1z" /><path fill="#212d38" d="M77 50h1v1h-1zM74 67h1v1h-1z" /><path fill="#579dcd" d="M79 50h1v1h-1z" /><path fill="#5190bc" d="M75 51h1v1h-1z" /><path fill="#1e262f" d="M76 51h1v1h-1zM68 71h1v1h-1z" /><path fill="#569bcb" d="M79 51h1v1h-1zM35 56h1v1h-1z" /><path fill="#64baf4" d="M73 52h1v1h-1z" /><path fill="#385c77" d="M74 52h1v1h-1z" /><path fill="#549ac8" d="M79 52h1v1h-1zM69 54h1v1h-1z" /><path fill="#467a9e" d="M72 53h1v1h-1z" /><path fill="#212b36" d="M73 53h1v1h-1zM29 59h1v1h-1zM23 67h1v1h-1z" /><path fill="#39607b" d="M70 54h1v1h-1zM61 56h1v1h-1z" /><path fill="#4d89b2" d="M66 55h1v1h-1z" /><path fill="#3a607c" d="M67 55h1v1h-1z" /><path fill="#5398c5" d="M79 55h1v1h-1z" /><path fill="#62b6ee" d="M34 56h1v1h-1z" /><path fill="#5091bd" d="M37 56h1v1h-1zM67 72h1v1h-1z" /><path fill="#45799c" d="M53 56h1v1h-1z" /><path fill="#406e8e" d="M60 56h1v1h-1z" /><path fill="#325066" d="M62 56h1v1h-1z" /><path fill="#2b4254" d="M63 56h1v1h-1z" /><path fill="#1e252e" d="M64 56h1v1h-1zM64 72h1v1h-1z" /><path fill="#57a0d0" d="M79 56h1v1h-1z" /><path fill="#60b3e9" d="M31 57h1v1h-1zM24 63h1v1h-1z" /><path fill="#416f8f" d="M32 57h1v1h-1z" /><path fill="#1a1f25" d="M31 58h1v1h-1zM77 62h1v1h-1z" /><path fill="#64bbf5" d="M79 58h1v1h-1z" /><path fill="#477ea3" d="M27 60h1v1h-1z" /><path fill="#477da2" d="M26 61h1v1h-1zM78 61h1v1h-1z" /><path fill="#5192be" d="M25 62h1v1h-1z" /><path fill="#202932" d="M25 63h1v1h-1z" /><path fill="#35566f" d="M77 63h1v1h-1z" /><path fill="#375d77" d="M24 64h1v1h-1z" /><path fill="#5ca8dc" d="M77 64h1v1h-1z" /><path fill="#5ca9dd" d="M23 65h1v1h-1z" /><path fill="#1a1d23" d="M24 65h1v1h-1z" /><path fill="#3d6885" d="M76 65h1v1h-1z" /><path fill="#3c6684" d="M23 66h1v1h-1z" /><path fill="#283b4b" d="M75 66h1v1h-1z" /><path fill="#67c1fc" d="M22 67h1v1h-1z" /><path fill="#5eaee3" d="M75 67h1v1h-1z" /><path fill="#5aa6d8" d="M22 68h1v1h-1z" /><path fill="#222e39" d="M73 68h1v1h-1z" /><path fill="#5ba8db" d="M74 68h1v1h-1z" /><path fill="#2b4153" d="M72 69h1v1h-1z" /><path fill="#3e6988" d="M22 70h1v1h-1zM69 71h1v1h-1z" /><path fill="#395e79" d="M22 71h1v1h-1z" /><path fill="#3c6583" d="M22 72h1v1h-1z" /><path fill="#3b627e" d="M66 72h1v1h-1z" /><path fill="#66bff9" d="M68 72h1v1h-1z" /></svg>