<svg xmlns="http://www.w3.org/2000/svg" viewBox="0 0 100 100" width="1em" height="1em"><path fill="#006dff" d="M44 18h1v1h-1zM53 18h2v1h-2zM39 20h1v1h-1zM61 20h1v1h-1zM36 21h1v1h-1zM35 22h1v1h-1zM33 23h1v1h-1zM67 24h1v1h-1zM48 25h2v1h-2zM51 25h1v1h-1zM69 25h1v1h-1zM30 26h1v1h-1zM44 26h1v1h-1zM56 26h1v1h-1zM70 26h1v1h-1zM29 27h1v1h-1zM28 28h1v1h-1zM62 29h1v1h-1zM72 29h1v1h-1zM63 30h1v1h-1zM26 31h1v1h-1zM25 32h1v1h-1zM34 32h1v1h-1zM65 32h1v1h-1zM74 32h1v1h-1zM33 33h1v1h-1zM66 33h1v1h-1zM75 33h1v1h-1zM24 34h1v1h-1zM75 34h1v1h-1zM67 35h1v1h-1zM76 35h1v1h-1zM23 36h1v1h-1zM72 36h1v1h-1zM74 36h2v1h-2zM23 37h1v1h-1zM31 37h1v1h-1zM30 40h1v1h-1z" /><path fill="#006eff" d="M45 18h8v1h-8zM55 18h1v1h-1zM41 19h19v1h-19zM38 20h1v1h-1zM40 20h21v1h-21zM37 21h27v1h-27zM36 22h30v1h-30zM34 23h33v1h-33zM32 24h35v1h-35zM31 25h17v1h-17zM50 25h1v1h-1zM52 25h17v1h-17zM31 26h13v1h-13zM55 26h1v1h-1zM57 26h13v1h-13zM30 27h12v1h-12zM58 27h13v1h-13zM29 28h11v1h-11zM60 28h12v1h-12zM27 29h11v1h-11zM63 29h9v1h-9zM26 30h11v1h-11zM64 30h10v1h-10zM27 31h9v1h-9zM64 31h10v1h-10zM26 32h8v1h-8zM66 32h8v1h-8zM25 33h8v1h-8zM67 33h8v1h-8zM25 34h8v1h-8zM67 34h8v1h-8zM24 35h9v1h-9zM68 35h8v1h-8zM24 36h8v1h-8zM68 36h4v1h-4zM73 36h1v1h-1zM24 37h7v1h-7zM23 38h8v1h-8zM22 39h9v1h-9zM22 40h8v1h-8z" /><path fill="#0093f1" d="M22 41h1v1h-1z" /><path fill="#009fea" d="M23 41h1v1h-1z" /><path fill="#00a8e8" d="M24 41h1v1h-1z" /><path fill="#00b1e4" d="M25 41h1v1h-1z" /><path fill="#00ade6" d="M26 41h1v1h-1z" /><path fill="#00a2e9" d="M27 41h1v1h-1z" /><path fill="#0098ee" d="M28 41h1v1h-1z" /><path fill="#008af5" d="M29 41h1v1h-1z" /><path fill="#00a2ff" d="M71 41h5v1h-5zM77 41h1v1h-1zM68 42h1v1h-1zM81 42h1v1h-1zM65 43h2v1h-2zM83 43h1v1h-1zM64 44h1v1h-1zM85 44h1v1h-1zM62 45h1v1h-1zM60 46h1v1h-1zM89 47h1v1h-1zM73 49h1v1h-1zM56 50h1v1h-1zM68 50h1v1h-1zM78 50h1v1h-1zM91 50h1v1h-1zM92 51h1v1h-1zM65 52h1v1h-1zM82 52h1v1h-1zM53 53h1v1h-1zM64 53h1v1h-1zM51 55h1v1h-1zM62 55h1v1h-1zM85 55h1v1h-1zM94 55h1v1h-1zM50 56h1v1h-1zM61 56h1v1h-1zM86 56h1v1h-1zM49 57h1v1h-1zM60 57h1v1h-1zM47 59h1v1h-1zM58 59h1v1h-1zM57 60h1v1h-1zM87 60h1v1h-1zM95 60h1v1h-1zM95 61h1v1h-1zM44 62h1v1h-1zM53 63h1v1h-1zM87 63h1v1h-1zM95 63h1v1h-1zM42 64h1v1h-1zM87 64h1v1h-1zM51 65h1v1h-1zM95 65h1v1h-1zM38 67h1v1h-1zM86 67h1v1h-1zM37 68h1v1h-1zM48 68h1v1h-1zM36 69h1v1h-1zM47 69h1v1h-1zM85 69h1v1h-1zM94 69h1v1h-1zM35 70h1v1h-1zM46 70h1v1h-1zM93 70h1v1h-1zM45 71h1v1h-1zM33 72h1v1h-1zM92 72h1v1h-1zM92 73h1v1h-1zM42 74h1v1h-1zM78 74h2v1h-2zM42 75h33v1h-33zM90 75h1v1h-1zM89 76h1v1h-1zM85 79h1v1h-1zM83 80h1v1h-1zM81 81h1v1h-1zM76 82h3v1h-3z" /><path fill="#00a3ff" d="M76 41h1v1h-1zM67 42h1v1h-1zM69 42h12v1h-12zM67 43h16v1h-16zM63 44h1v1h-1zM65 44h20v1h-20zM63 45h24v1h-24zM61 46h28v1h-28zM59 47h30v1h-30zM58 48h32v1h-32zM57 49h16v1h-16zM74 49h17v1h-17zM57 50h11v1h-11zM69 50h1v1h-1zM79 50h12v1h-12zM55 51h13v1h-13zM80 51h12v1h-12zM54 52h11v1h-11zM83 52h10v1h-10zM54 53h10v1h-10zM83 53h11v1h-11zM52 54h12v1h-12zM84 54h10v1h-10zM52 55h10v1h-10zM86 55h8v1h-8zM51 56h10v1h-10zM87 56h8v1h-8zM50 57h10v1h-10zM86 57h9v1h-9zM48 58h12v1h-12zM87 58h8v1h-8zM48 59h10v1h-10zM87 59h9v1h-9zM46 60h11v1h-11zM88 60h7v1h-7zM45 61h12v1h-12zM87 61h8v1h-8zM45 62h10v1h-10zM87 62h9v1h-9zM43 63h10v1h-10zM88 63h7v1h-7zM43 64h10v1h-10zM88 64h8v1h-8zM41 65h10v1h-10zM87 65h8v1h-8zM40 66h11v1h-11zM87 66h8v1h-8zM39 67h11v1h-11zM87 67h8v1h-8zM38 68h10v1h-10zM86 68h9v1h-9zM37 69h10v1h-10zM86 69h8v1h-8zM36 70h10v1h-10zM84 70h9v1h-9zM34 71h11v1h-11zM83 71h11v1h-11zM34 72h11v1h-11zM82 72h10v1h-10zM32 73h12v1h-12zM81 73h11v1h-11zM31 74h11v1h-11zM80 74h12v1h-12zM31 75h11v1h-11zM75 75h15v1h-15zM30 76h59v1h-59zM29 77h60v1h-60zM28 78h60v1h-60zM27 79h58v1h-58zM26 80h57v1h-57zM84 80h1v1h-1zM25 81h56v1h-56zM82 81h1v1h-1zM24 82h52v1h-52z" /><path fill="#00c7db" d="M18 42h1v1h-1zM16 43h1v1h-1zM34 43h1v1h-1zM14 44h1v1h-1zM9 49h1v1h-1zM21 49h1v1h-1zM23 49h1v1h-1zM26 49h1v1h-1zM42 49h1v1h-1zM43 50h1v1h-1zM7 51h1v1h-1zM15 53h1v1h-1zM35 53h1v1h-1zM36 54h1v1h-1zM39 57h1v1h-1zM4 61h1v1h-1zM4 63h1v1h-1zM12 64h1v1h-1zM7 73h1v1h-1zM20 74h1v1h-1zM9 75h1v1h-1zM13 79h1v1h-1zM25 79h1v1h-1zM17 81h1v1h-1zM20 82h1v1h-1z" /><path fill="#00c8dc" d="M19 42h12v1h-12zM17 43h16v1h-16zM15 44h20v1h-20zM14 45h24v1h-24zM12 46h27v1h-27zM10 47h30v1h-30zM10 48h32v1h-32zM10 49h11v1h-11zM25 49h1v1h-1zM28 49h14v1h-14zM9 50h10v1h-10zM32 50h11v1h-11zM8 51h9v1h-9zM32 51h12v1h-12zM7 52h9v1h-9zM34 52h11v1h-11zM6 53h9v1h-9zM36 53h10v1h-10zM6 54h8v1h-8zM37 54h8v1h-8zM6 55h8v1h-8zM38 55h7v1h-7zM6 56h7v1h-7zM39 56h4v1h-4zM5 57h8v1h-8zM40 57h2v1h-2zM5 58h8v1h-8zM41 58h1v1h-1zM4 59h8v1h-8zM5 60h8v1h-8zM5 61h8v1h-8zM5 62h7v1h-7zM5 63h7v1h-7zM5 64h7v1h-7zM4 65h8v1h-8zM5 66h8v1h-8zM5 67h9v1h-9zM6 68h8v1h-8zM5 69h9v1h-9zM6 70h10v1h-10zM6 71h10v1h-10zM7 72h10v1h-10zM8 73h10v1h-10zM19 73h1v1h-1zM9 74h11v1h-11zM21 74h1v1h-1zM10 75h15v1h-15zM10 76h19v1h-19zM11 77h16v1h-16zM13 78h13v1h-13zM14 79h11v1h-11zM16 80h9v1h-9zM16 81h1v1h-1zM18 81h5v1h-5zM19 82h1v1h-1z" /><path fill="#00c7dc" d="M31 42h2v1h-2zM33 43h1v1h-1zM35 44h1v1h-1zM40 47h1v1h-1zM27 49h1v1h-1zM30 50h1v1h-1zM17 51h1v1h-1zM14 54h1v1h-1zM45 54h1v1h-1zM5 55h1v1h-1zM37 55h1v1h-1zM12 62h1v1h-1zM12 65h1v1h-1zM8 74h1v1h-1zM29 75h1v1h-1zM27 77h1v1h-1zM12 78h1v1h-1zM26 78h1v1h-1zM15 80h1v1h-1z" /><path fill="#00c8db" d="M36 44h1v1h-1zM13 45h1v1h-1zM11 46h1v1h-1zM22 49h1v1h-1zM24 49h1v1h-1zM8 50h1v1h-1zM19 50h1v1h-1zM31 50h1v1h-1zM44 51h1v1h-1zM16 52h1v1h-1zM33 52h1v1h-1zM45 52h1v1h-1zM46 53h1v1h-1zM5 56h1v1h-1zM13 56h1v1h-1zM38 56h1v1h-1zM43 56h1v1h-1zM42 57h1v1h-1zM12 59h1v1h-1zM4 60h1v1h-1zM4 62h1v1h-1zM12 63h1v1h-1zM4 64h1v1h-1zM5 68h1v1h-1zM14 69h1v1h-1zM16 71h1v1h-1zM17 72h1v1h-1zM18 73h1v1h-1zM25 75h4v1h-4zM10 77h1v1h-1zM21 82h1v1h-1z" /><path fill="#00b2f0" d="M30 75h1v1h-1z" /><path fill="#00b4ef" d="M29 76h1v1h-1z" /><path fill="#00b0f3" d="M28 77h1v1h-1z" /><path fill="#00aef4" d="M27 78h1v1h-1z" /><path fill="#00acf5" d="M26 79h1v1h-1z" /><path fill="#00abf7" d="M25 80h1v1h-1z" /><path fill="#00c6dc" d="M23 81h1v1h-1zM22 82h1v1h-1z" /><path fill="#00a9f9" d="M24 81h1v1h-1z" /><path fill="#00a6fa" d="M23 82h1v1h-1z" /></svg>