<svg xmlns="http://www.w3.org/2000/svg" viewBox="0 0 100 100" width="1em" height="1em"><path fill="#f6d85a" d="M18 4h66v1h-66zM19 5h69v1h-69zM20 6h70v1h-70zM20 7h72v1h-72zM21 8h72v1h-72zM21 9h74v1h-74zM22 10h73v1h-73zM23 11h73v1h-73zM23 12h74v1h-74zM24 13h73v1h-73zM24 14h74v1h-74zM25 15h73v1h-73zM26 16h73v1h-73zM26 17h74v1h-74zM27 18h72v1h-72zM53 19h18v1h-18zM53 20h18v1h-18zM53 21h17v1h-17zM51 22h18v1h-18zM51 23h17v1h-17zM51 24h17v1h-17zM50 25h17v1h-17zM50 26h17v1h-17zM48 27h18v1h-18zM48 28h17v1h-17zM48 29h17v1h-17zM47 30h18v1h-18zM47 31h17v1h-17zM46 32h17v1h-17zM46 33h16v1h-16zM45 34h18v1h-18zM44 35h18v1h-18zM43 36h18v1h-18zM43 37h17v1h-17zM43 38h17v1h-17zM42 39h18v1h-18zM42 40h16v1h-16zM42 41h16v1h-16zM43 42h14v1h-14zM43 43h14v1h-14zM44 44h12v1h-12zM44 45h11v1h-11zM45 46h10v1h-10zM46 47h8v1h-8zM46 48h8v1h-8zM46 49h7v1h-7zM48 50h5v1h-5z" /><path fill="#f6d75a" d="M84 4h1v1h-1zM92 7h1v1h-1zM21 10h1v1h-1zM96 11h1v1h-1zM71 19h1v1h-1zM50 24h1v1h-1zM53 49h1v1h-1zM48 51h1v1h-1z" /><path fill="#f5d859" d="M85 4h1v1h-1zM19 6h1v1h-1zM97 12h1v1h-1zM98 14h1v1h-1zM68 23h1v1h-1zM49 26h1v1h-1zM45 32h1v1h-1zM42 38h1v1h-1zM58 40h1v1h-1zM42 42h1v1h-1zM55 46h1v1h-1zM45 48h1v1h-1z" /><path fill="#f5d75a" d="M86 4h1v1h-1zM18 5h1v1h-1zM89 5h1v1h-1zM90 6h2v1h-2zM20 8h1v1h-1zM95 10h1v1h-1zM22 11h1v1h-1zM97 13h1v1h-1zM98 15h1v1h-1zM27 19h26v1h-26zM72 19h28v1h-28zM52 21h1v1h-1zM67 25h1v1h-1zM45 33h1v1h-1zM49 51h1v1h-1z" /><path fill="#f6d759" d="M88 5h1v1h-1zM25 17h1v1h-1zM44 34h1v1h-1zM42 37h1v1h-1zM54 47h1v1h-1zM47 50h1v1h-1zM51 51h1v1h-1z" /><path fill="#000000" d="M7 7h1v1h-1zM6 8h2v1h-2zM5 9h4v1h-4zM4 10h6v1h-6zM3 11h7v1h-7zM2 12h9v1h-9zM2 13h9v1h-9zM1 14h11v1h-11zM1 15h11v1h-11zM1 16h12v1h-12zM0 17h14v1h-14zM0 18h14v1h-14zM0 19h15v1h-15zM0 20h15v1h-15zM0 21h16v1h-16zM0 22h17v1h-17zM0 23h17v1h-17zM0 24h18v1h-18zM1 25h17v1h-17zM1 26h18v1h-18zM1 27h19v1h-19zM2 28h18v1h-18zM3 29h18v1h-18zM3 30h18v1h-18zM79 30h18v1h-18zM4 31h18v1h-18zM78 31h18v1h-18zM4 32h18v1h-18zM78 32h18v1h-18zM5 33h18v1h-18zM77 33h18v1h-18zM5 34h19v1h-19zM76 34h19v1h-19zM6 35h18v1h-18zM76 35h18v1h-18zM7 36h18v1h-18zM75 36h18v1h-18zM7 37h18v1h-18zM75 37h18v1h-18zM8 38h18v1h-18zM74 38h18v1h-18zM8 39h19v1h-19zM74 39h18v1h-18zM9 40h18v1h-18zM73 40h18v1h-18zM10 41h18v1h-18zM72 41h18v1h-18zM10 42h18v1h-18zM72 42h18v1h-18zM11 43h18v1h-18zM71 43h18v1h-18zM11 44h18v1h-18zM71 44h18v1h-18zM12 45h18v1h-18zM70 45h18v1h-18zM13 46h18v1h-18zM69 46h19v1h-19zM13 47h18v1h-18zM69 47h18v1h-18zM14 48h18v1h-18zM68 48h18v1h-18zM14 49h18v1h-18zM68 49h18v1h-18zM15 50h18v1h-18zM67 50h18v1h-18zM15 51h19v1h-19zM66 51h19v1h-19zM16 52h18v1h-18zM66 52h18v1h-18zM17 53h18v1h-18zM65 53h18v1h-18zM17 54h18v1h-18zM65 54h18v1h-18zM18 55h18v1h-18zM64 55h18v1h-18zM18 56h19v1h-19zM64 56h18v1h-18zM19 57h18v1h-18zM63 57h18v1h-18zM20 58h18v1h-18zM62 58h18v1h-18zM20 59h18v1h-18zM62 59h18v1h-18zM21 60h18v1h-18zM61 60h18v1h-18zM21 61h18v1h-18zM61 61h18v1h-18zM22 62h18v1h-18zM60 62h18v1h-18zM22 63h19v1h-19zM59 63h19v1h-19zM23 64h18v1h-18zM59 64h18v1h-18zM24 65h18v1h-18zM58 65h18v1h-18zM24 66h18v1h-18zM58 66h18v1h-18zM25 67h18v1h-18zM57 67h18v1h-18zM25 68h19v1h-19zM57 68h18v1h-18zM26 69h18v1h-18zM56 69h18v1h-18zM27 70h18v1h-18zM55 70h18v1h-18zM27 71h18v1h-18zM55 71h18v1h-18zM28 72h18v1h-18zM54 72h18v1h-18zM28 73h21v1h-21zM51 73h21v1h-21zM29 74h42v1h-42zM30 75h41v1h-41zM30 76h40v1h-40zM31 77h38v1h-38zM31 78h38v1h-38zM32 79h36v1h-36zM32 80h36v1h-36zM33 81h34v1h-34zM34 82h32v1h-32zM34 83h32v1h-32zM35 84h30v1h-30zM36 85h29v1h-29zM36 86h28v1h-28zM37 87h26v1h-26zM38 88h24v1h-24zM39 89h22v1h-22zM40 90h20v1h-20zM42 91h17v1h-17zM44 92h12v1h-12zM48 93h5v1h-5z" /><path fill="#f5d759" d="M93 8h1v1h-1zM24 15h1v1h-1zM25 16h1v1h-1zM99 18h1v1h-1zM52 20h1v1h-1zM65 29h1v1h-1zM62 33h1v1h-1zM60 37h1v1h-1zM41 40h1v1h-1zM57 42h1v1h-1zM56 44h1v1h-1zM45 47h1v1h-1z" /><path fill="#f5d85a" d="M22 12h1v1h-1zM69 22h1v1h-1zM66 27h1v1h-1zM65 28h1v1h-1zM47 29h1v1h-1zM46 31h1v1h-1zM63 32h1v1h-1zM43 44h1v1h-1zM55 45h1v1h-1z" /><path fill="#f6d859" d="M23 13h1v1h-1zM26 18h1v1h-1zM49 25h1v1h-1zM44 46h1v1h-1zM50 51h1v1h-1z" /></svg>