<svg xmlns="http://www.w3.org/2000/svg" viewBox="0 0 100 100" width="1em" height="1em"><path fill="#c80015" d="M79 0h1v1h-1zM81 0h1v1h-1zM85 1h1v1h-1zM73 4h1v1h-1zM89 4h1v1h-1zM90 6h1v1h-1zM78 18h1v1h-1zM82 53h1v1h-1zM80 59h1v1h-1zM96 62h1v1h-1zM77 64h1v1h-1zM75 67h1v1h-1zM72 69h1v1h-1zM52 73h1v1h-1zM57 74h1v1h-1zM47 75h1v1h-1zM47 76h1v1h-1zM78 76h1v1h-1zM85 76h1v1h-1zM88 76h1v1h-1zM73 78h1v1h-1zM70 81h1v1h-1zM68 84h1v1h-1zM67 87h1v1h-1zM60 90h1v1h-1z" /><path fill="#c80016" d="M80 0h1v1h-1zM75 2h1v1h-1zM87 2h1v1h-1zM74 3h1v1h-1zM88 3h1v1h-1zM89 5h1v1h-1zM72 11h1v1h-1zM73 14h1v1h-1zM74 15h1v1h-1zM75 16h1v1h-1zM87 16h1v1h-1zM86 17h1v1h-1zM98 54h1v1h-1zM81 56h1v1h-1zM81 57h1v1h-1zM80 60h1v1h-1zM79 62h1v1h-1zM93 69h1v1h-1zM67 72h1v1h-1zM63 73h2v1h-2zM89 75h1v1h-1zM77 76h1v1h-1zM74 77h1v1h-1zM87 77h1v1h-1zM45 79h1v1h-1zM44 81h1v1h-1zM67 86h1v1h-1zM43 87h1v1h-1zM50 89h2v1h-2zM66 89h1v1h-1zM58 90h2v1h-2z" /><path fill="#c90016" d="M82 0h2v1h-2zM77 1h8v1h-8zM76 2h11v1h-11zM75 3h13v1h-13zM74 4h15v1h-15zM73 5h16v1h-16zM72 6h18v1h-18zM72 7h18v1h-18zM72 8h19v1h-19zM72 9h19v1h-19zM72 10h19v1h-19zM73 11h18v1h-18zM72 12h18v1h-18zM73 13h17v1h-17zM74 14h15v1h-15zM75 15h14v1h-14zM76 16h11v1h-11zM76 17h10v1h-10zM77 18h1v1h-1zM79 18h5v1h-5zM85 18h1v1h-1zM82 54h16v1h-16zM82 55h16v1h-16zM82 56h16v1h-16zM82 57h16v1h-16zM81 58h16v1h-16zM81 59h17v1h-17zM81 60h16v1h-16zM80 61h17v1h-17zM80 62h16v1h-16zM79 63h17v1h-17zM78 64h18v1h-18zM77 65h18v1h-18zM76 66h19v1h-19zM76 67h18v1h-18zM74 68h20v1h-20zM73 69h20v1h-20zM71 70h22v1h-22zM69 71h23v1h-23zM68 72h24v1h-24zM49 73h3v1h-3zM65 73h26v1h-26zM49 74h8v1h-8zM58 74h33v1h-33zM48 75h41v1h-41zM48 76h29v1h-29zM84 76h1v1h-1zM86 76h2v1h-2zM46 77h28v1h-28zM46 78h27v1h-27zM46 79h27v1h-27zM45 80h27v1h-27zM45 81h25v1h-25zM44 82h25v1h-25zM43 83h26v1h-26zM43 84h25v1h-25zM42 85h26v1h-26zM42 86h25v1h-25zM44 87h23v1h-23zM47 88h21v1h-21zM52 89h13v1h-13zM56 90h1v1h-1z" /><path fill="#c90015" d="M76 1h1v1h-1zM86 1h1v1h-1zM90 7h1v1h-1zM90 12h1v1h-1zM89 14h1v1h-1zM84 18h1v1h-1zM83 53h15v1h-15zM97 58h1v1h-1zM79 61h1v1h-1zM78 63h1v1h-1zM96 63h1v1h-1zM95 65h1v1h-1zM94 67h1v1h-1zM92 71h1v1h-1zM48 74h1v1h-1zM75 77h1v1h-1zM43 82h1v1h-1zM69 82h1v1h-1zM42 84h1v1h-1zM41 86h1v1h-1zM45 88h2v1h-2zM49 89h1v1h-1zM65 89h1v1h-1zM57 90h1v1h-1z" /><path fill="#ff6309" d="M56 9h1v1h-1zM51 10h14v1h-14zM47 11h20v1h-20zM44 12h23v1h-23zM41 13h26v1h-26zM42 14h26v1h-26zM42 15h26v1h-26zM43 16h26v1h-26zM44 17h25v1h-25zM45 18h26v1h-26zM45 19h27v1h-27zM45 20h27v1h-27zM46 21h27v1h-27zM47 22h28v1h-28zM48 23h29v1h-29zM86 23h3v1h-3zM48 24h41v1h-41zM49 25h9v1h-9zM59 25h31v1h-31zM49 26h2v1h-2zM63 26h1v1h-1zM65 26h26v1h-26zM68 27h24v1h-24zM70 28h22v1h-22zM72 29h21v1h-21zM73 30h20v1h-20zM75 31h19v1h-19zM75 32h20v1h-20zM77 33h18v1h-18zM77 34h18v1h-18zM78 35h18v1h-18zM78 36h18v1h-18zM79 37h17v1h-17zM80 38h17v1h-17zM80 39h17v1h-17zM13 40h1v1h-1zM81 40h16v1h-16zM8 41h7v1h-7zM81 41h16v1h-16zM7 42h10v1h-10zM82 42h16v1h-16zM5 43h14v1h-14zM81 43h17v1h-17zM5 44h14v1h-14zM82 44h16v1h-16zM3 45h17v1h-17zM82 45h16v1h-16zM3 46h17v1h-17zM3 47h17v1h-17zM3 48h18v1h-18zM3 49h18v1h-18zM3 50h18v1h-18zM3 51h18v1h-18zM3 52h17v1h-17zM3 53h17v1h-17zM4 54h16v1h-16zM5 55h14v1h-14zM5 56h13v1h-13zM7 57h10v1h-10zM8 58h7v1h-7zM13 59h1v1h-1z" /><path fill="#ff6208" d="M57 9h3v1h-3zM65 10h1v1h-1zM45 11h1v1h-1zM43 12h1v1h-1zM67 12h1v1h-1zM68 15h1v1h-1zM43 17h1v1h-1zM46 22h1v1h-1zM77 23h2v1h-2zM84 23h2v1h-2zM47 24h1v1h-1zM58 25h1v1h-1zM92 28h1v1h-1zM95 34h1v1h-1zM77 35h1v1h-1zM10 40h2v1h-2zM80 40h1v1h-1zM7 41h1v1h-1zM15 41h1v1h-1zM97 41h1v1h-1zM83 46h15v1h-15zM3 54h1v1h-1zM19 55h1v1h-1zM10 59h1v1h-1z" /><path fill="#ff6308" d="M49 10h1v1h-1zM44 18h1v1h-1zM73 21h1v1h-1zM75 22h1v1h-1zM87 22h1v1h-1zM89 24h1v1h-1zM48 25h1v1h-1zM51 26h1v1h-1zM67 27h1v1h-1zM71 29h1v1h-1zM96 36h1v1h-1zM81 42h1v1h-1zM19 44h1v1h-1zM98 45h1v1h-1zM82 46h1v1h-1zM15 58h1v1h-1zM11 59h1v1h-1z" /><path fill="#ff6209" d="M50 10h1v1h-1zM66 10h1v1h-1zM46 11h1v1h-1zM67 11h1v1h-1zM67 13h1v1h-1zM69 17h1v1h-1zM72 20h1v1h-1zM47 23h1v1h-1zM90 25h1v1h-1zM52 26h1v1h-1zM64 26h1v1h-1zM49 27h1v1h-1zM69 28h1v1h-1zM72 30h1v1h-1zM93 30h1v1h-1zM74 31h1v1h-1zM76 33h1v1h-1zM96 37h1v1h-1zM79 38h1v1h-1zM12 40h1v1h-1zM97 40h1v1h-1zM6 42h1v1h-1zM17 42h1v1h-1zM4 44h1v1h-1zM20 46h1v1h-1zM2 47h1v1h-1zM20 47h1v1h-1zM2 48h1v1h-1zM2 49h1v1h-1zM2 50h1v1h-1zM2 51h1v1h-1zM2 52h1v1h-1zM20 52h1v1h-1zM20 53h1v1h-1zM4 55h1v1h-1zM18 56h1v1h-1zM6 57h1v1h-1zM17 57h1v1h-1zM7 58h1v1h-1zM12 59h1v1h-1z" /><path fill="#ffb514" d="M34 17h1v1h-1zM36 19h1v1h-1zM38 23h1v1h-1zM22 31h1v1h-1zM37 37h1v1h-1zM21 39h1v1h-1zM23 42h1v1h-1zM24 43h1v1h-1zM25 46h1v1h-1zM25 52h1v1h-1zM25 53h1v1h-1zM24 56h1v1h-1zM22 59h1v1h-1zM37 62h1v1h-1zM22 68h1v1h-1zM40 73h1v1h-1zM38 76h1v1h-1zM36 80h1v1h-1zM84 81h1v1h-1zM34 82h1v1h-1zM73 85h1v1h-1zM87 97h1v1h-1zM76 98h1v1h-1z" /><path fill="#ffb414" d="M35 17h1v1h-1zM35 18h1v1h-1zM30 20h1v1h-1zM37 21h1v1h-1zM40 26h1v1h-1zM41 28h1v1h-1zM40 33h1v1h-1zM36 39h1v1h-1zM35 41h1v1h-1zM25 47h1v1h-1zM35 58h1v1h-1zM21 60h1v1h-1zM36 60h1v1h-1zM20 61h1v1h-1zM40 66h1v1h-1zM41 71h1v1h-1zM24 72h1v1h-1zM27 76h1v1h-1zM37 78h1v1h-1zM35 81h1v1h-1zM77 81h1v1h-1zM76 82h1v1h-1zM90 87h1v1h-1zM90 92h1v1h-1zM73 95h1v1h-1zM74 96h1v1h-1zM79 99h1v1h-1z" /><path fill="#ffb515" d="M33 18h2v1h-2zM32 19h4v1h-4zM31 20h6v1h-6zM30 21h7v1h-7zM28 22h10v1h-10zM27 23h11v1h-11zM27 24h12v1h-12zM26 25h13v1h-13zM26 26h14v1h-14zM25 27h16v1h-16zM25 28h16v1h-16zM24 29h18v1h-18zM23 30h20v1h-20zM23 31h20v1h-20zM22 32h20v1h-20zM21 33h19v1h-19zM21 34h19v1h-19zM20 35h18v1h-18zM21 36h17v1h-17zM20 37h17v1h-17zM20 38h17v1h-17zM22 39h14v1h-14zM23 40h12v1h-12zM24 41h11v1h-11zM24 42h11v1h-11zM25 43h10v1h-10zM25 44h9v1h-9zM25 45h10v1h-10zM26 46h8v1h-8zM26 47h8v1h-8zM26 48h8v1h-8zM26 49h8v1h-8zM26 50h8v1h-8zM26 51h8v1h-8zM26 52h8v1h-8zM26 53h8v1h-8zM25 54h9v1h-9zM25 55h9v1h-9zM25 56h10v1h-10zM24 57h11v1h-11zM23 58h12v1h-12zM23 59h12v1h-12zM22 60h14v1h-14zM21 61h16v1h-16zM20 62h17v1h-17zM21 63h17v1h-17zM20 64h19v1h-19zM21 65h19v1h-19zM22 66h18v1h-18zM22 67h19v1h-19zM23 68h19v1h-19zM23 69h20v1h-20zM24 70h18v1h-18zM25 71h16v1h-16zM25 72h16v1h-16zM25 73h15v1h-15zM27 74h12v1h-12zM27 75h12v1h-12zM28 76h10v1h-10zM28 77h10v1h-10zM30 78h7v1h-7zM30 79h7v1h-7zM31 80h5v1h-5zM34 81h1v1h-1zM79 81h5v1h-5zM77 82h9v1h-9zM75 83h12v1h-12zM75 84h14v1h-14zM74 85h16v1h-16zM73 86h17v1h-17zM72 87h18v1h-18zM73 88h18v1h-18zM72 89h19v1h-19zM72 90h19v1h-19zM72 91h19v1h-19zM73 92h17v1h-17zM72 93h19v1h-19zM73 94h16v1h-16zM74 95h15v1h-15zM75 96h14v1h-14zM76 97h11v1h-11zM78 98h9v1h-9zM80 99h4v1h-4z" /><path fill="#ffb415" d="M31 19h1v1h-1zM29 21h1v1h-1zM39 24h1v1h-1zM39 25h1v1h-1zM25 26h1v1h-1zM24 27h1v1h-1zM24 28h1v1h-1zM23 29h1v1h-1zM38 35h1v1h-1zM20 36h1v1h-1zM22 40h1v1h-1zM35 40h1v1h-1zM23 41h1v1h-1zM34 44h1v1h-1zM34 54h1v1h-1zM34 55h1v1h-1zM23 57h1v1h-1zM35 59h1v1h-1zM20 63h1v1h-1zM21 66h1v1h-1zM41 67h1v1h-1zM42 68h1v1h-1zM23 70h1v1h-1zM24 71h1v1h-1zM26 74h1v1h-1zM39 74h1v1h-1zM39 75h1v1h-1zM29 78h1v1h-1zM33 81h1v1h-1zM78 81h1v1h-1zM85 81h1v1h-1zM35 82h1v1h-1zM86 82h1v1h-1zM87 83h1v1h-1zM74 84h1v1h-1zM72 88h1v1h-1zM72 92h1v1h-1zM89 94h1v1h-1zM89 95h1v1h-1zM75 97h1v1h-1zM77 98h1v1h-1z" /></svg>