<svg xmlns="http://www.w3.org/2000/svg" viewBox="0 0 100 100" width="1em" height="1em"><path fill="#e2095c" d="M6 4h2v1h-2zM11 4h6v1h-6zM26 4h6v1h-6zM66 4h13v1h-13zM85 4h5v1h-5zM5 29h1v1h-1zM5 31h1v1h-1zM5 32h1v1h-1zM5 33h1v1h-1zM5 34h1v1h-1zM5 35h1v1h-1zM5 36h1v1h-1zM5 37h1v1h-1zM5 41h1v1h-1zM19 56h1v1h-1zM64 64h1v1h-1zM93 64h1v1h-1zM32 69h1v1h-1zM91 71h1v1h-1zM42 79h1v1h-1zM87 79h1v1h-1zM46 83h1v1h-1zM78 88h1v1h-1zM55 92h1v1h-1zM71 92h1v1h-1zM69 93h1v1h-1zM62 95h1v1h-1z" /><path fill="#e30a5c" d="M8 4h2v1h-2zM33 4h1v1h-1zM90 4h4v1h-4zM5 9h1v1h-1zM5 10h1v1h-1zM5 18h1v1h-1zM5 19h1v1h-1zM7 44h1v1h-1zM23 60h1v1h-1zM24 61h1v1h-1zM27 64h1v1h-1zM63 66h1v1h-1zM92 68h1v1h-1zM54 71h2v1h-2zM90 74h1v1h-1zM39 76h1v1h-1zM86 80h1v1h-1zM45 82h1v1h-1zM83 84h1v1h-1zM50 87h1v1h-1zM51 88h1v1h-1zM52 89h1v1h-1zM77 89h1v1h-1zM53 90h1v1h-1zM54 91h1v1h-1zM66 94h1v1h-1z" /><path fill="#e20a5c" d="M10 4h1v1h-1zM5 15h1v1h-1zM5 40h1v1h-1zM65 60h1v1h-1zM65 61h1v1h-1zM15 71h1v1h-1zM36 71h1v1h-1zM38 71h1v1h-1zM51 71h1v1h-1zM89 75h1v1h-1zM82 85h1v1h-1zM58 95h1v1h-1zM61 95h1v1h-1z" /><path fill="#e3095d" d="M17 4h1v1h-1zM79 4h1v1h-1zM5 22h1v1h-1zM5 23h1v1h-1zM5 26h1v1h-1zM5 39h1v1h-1zM14 51h1v1h-1zM15 52h1v1h-1zM16 53h1v1h-1zM17 54h1v1h-1zM93 65h1v1h-1zM92 69h1v1h-1zM58 70h1v1h-1zM33 71h1v1h-1zM52 71h1v1h-1zM40 77h1v1h-1zM41 78h1v1h-1zM43 80h1v1h-1zM44 81h1v1h-1zM85 82h1v1h-1zM74 91h1v1h-1zM56 93h1v1h-1zM67 94h1v1h-1zM63 95h1v1h-1z" /><path fill="#e20a5d" d="M18 4h7v1h-7zM32 4h1v1h-1zM80 4h5v1h-5zM5 11h1v1h-1zM5 12h1v1h-1zM5 13h1v1h-1zM5 14h1v1h-1zM5 16h1v1h-1zM5 17h1v1h-1zM26 63h1v1h-1zM30 67h1v1h-1zM62 67h1v1h-1zM11 71h4v1h-4zM37 71h1v1h-1zM36 73h1v1h-1zM90 73h1v1h-1zM37 74h1v1h-1zM89 76h1v1h-1zM80 87h1v1h-1zM23 88h1v1h-1zM24 89h1v1h-1zM25 90h1v1h-1zM26 91h1v1h-1zM73 91h1v1h-1zM27 92h1v1h-1zM28 93h1v1h-1zM29 94h1v1h-1zM30 95h1v1h-1zM31 96h1v1h-1zM33 98h1v1h-1z" /><path fill="#e30a5d" d="M25 4h1v1h-1zM5 5h29v1h-29zM66 5h28v1h-28zM5 6h29v1h-29zM66 6h28v1h-28zM5 7h29v1h-29zM66 7h28v1h-28zM5 8h29v1h-29zM66 8h28v1h-28zM6 9h28v1h-28zM66 9h28v1h-28zM6 10h28v1h-28zM66 10h28v1h-28zM6 11h28v1h-28zM66 11h28v1h-28zM6 12h28v1h-28zM66 12h28v1h-28zM6 13h28v1h-28zM66 13h28v1h-28zM6 14h28v1h-28zM66 14h28v1h-28zM6 15h28v1h-28zM66 15h28v1h-28zM6 16h28v1h-28zM66 16h28v1h-28zM6 17h28v1h-28zM66 17h28v1h-28zM6 18h28v1h-28zM66 18h28v1h-28zM6 19h28v1h-28zM66 19h28v1h-28zM6 20h28v1h-28zM66 20h28v1h-28zM6 21h28v1h-28zM66 21h28v1h-28zM6 22h28v1h-28zM66 22h28v1h-28zM6 23h28v1h-28zM66 23h28v1h-28zM6 24h28v1h-28zM66 24h28v1h-28zM6 25h28v1h-28zM66 25h28v1h-28zM6 26h28v1h-28zM66 26h28v1h-28zM6 27h28v1h-28zM66 27h28v1h-28zM6 28h28v1h-28zM66 28h28v1h-28zM6 29h28v1h-28zM66 29h28v1h-28zM6 30h28v1h-28zM66 30h28v1h-28zM6 31h28v1h-28zM66 31h28v1h-28zM6 32h28v1h-28zM66 32h28v1h-28zM6 33h28v1h-28zM66 33h28v1h-28zM6 34h28v1h-28zM66 34h28v1h-28zM6 35h28v1h-28zM66 35h28v1h-28zM6 36h28v1h-28zM66 36h28v1h-28zM6 37h28v1h-28zM66 37h28v1h-28zM6 38h28v1h-28zM66 38h28v1h-28zM6 39h28v1h-28zM66 39h28v1h-28zM6 40h28v1h-28zM66 40h28v1h-28zM6 41h28v1h-28zM66 41h28v1h-28zM6 42h28v1h-28zM66 42h28v1h-28zM6 43h28v1h-28zM66 43h28v1h-28zM8 44h26v1h-26zM66 44h28v1h-28zM8 45h26v1h-26zM66 45h28v1h-28zM9 46h25v1h-25zM66 46h28v1h-28zM10 47h24v1h-24zM66 47h28v1h-28zM12 48h22v1h-22zM66 48h28v1h-28zM12 49h22v1h-22zM66 49h28v1h-28zM13 50h21v1h-21zM66 50h28v1h-28zM15 51h19v1h-19zM66 51h28v1h-28zM16 52h18v1h-18zM66 52h28v1h-28zM17 53h17v1h-17zM66 53h28v1h-28zM18 54h16v1h-16zM66 54h28v1h-28zM19 55h15v1h-15zM66 55h28v1h-28zM20 56h14v1h-14zM66 56h28v1h-28zM21 57h13v1h-13zM66 57h28v1h-28zM21 58h13v1h-13zM66 58h28v1h-28zM23 59h11v1h-11zM66 59h28v1h-28zM24 60h10v1h-10zM66 60h28v1h-28zM25 61h9v1h-9zM66 61h28v1h-28zM25 62h9v1h-9zM65 62h29v1h-29zM27 63h7v1h-7zM65 63h29v1h-29zM28 64h6v1h-6zM65 64h28v1h-28zM28 65h6v1h-6zM64 65h29v1h-29zM29 66h5v1h-5zM64 66h29v1h-29zM31 67h3v1h-3zM63 67h30v1h-30zM32 68h2v1h-2zM61 68h31v1h-31zM33 69h1v1h-1zM60 69h32v1h-32zM59 70h33v1h-33zM10 71h1v1h-1zM53 71h1v1h-1zM56 71h35v1h-35zM7 72h27v1h-27zM35 72h56v1h-56zM8 73h26v1h-26zM37 73h53v1h-53zM9 74h25v1h-25zM38 74h52v1h-52zM10 75h24v1h-24zM38 75h51v1h-51zM11 76h23v1h-23zM40 76h49v1h-49zM12 77h22v1h-22zM41 77h48v1h-48zM13 78h21v1h-21zM42 78h46v1h-46zM14 79h20v1h-20zM43 79h44v1h-44zM15 80h19v1h-19zM44 80h42v1h-42zM16 81h18v1h-18zM45 81h41v1h-41zM17 82h17v1h-17zM46 82h39v1h-39zM18 83h16v1h-16zM47 83h37v1h-37zM19 84h15v1h-15zM48 84h35v1h-35zM20 85h14v1h-14zM49 85h33v1h-33zM21 86h13v1h-13zM49 86h33v1h-33zM22 87h12v1h-12zM51 87h29v1h-29zM24 88h10v1h-10zM52 88h26v1h-26zM25 89h9v1h-9zM53 89h24v1h-24zM26 90h8v1h-8zM54 90h21v1h-21zM27 91h7v1h-7zM55 91h18v1h-18zM28 92h6v1h-6zM56 92h15v1h-15zM29 93h5v1h-5zM57 93h12v1h-12zM30 94h4v1h-4zM58 94h8v1h-8zM31 95h3v1h-3zM59 95h2v1h-2zM32 96h2v1h-2zM32 97h2v1h-2z" /><path fill="#e3095c" d="M5 20h1v1h-1zM5 21h1v1h-1zM5 24h1v1h-1zM5 25h1v1h-1zM11 48h1v1h-1zM18 55h1v1h-1zM22 59h1v1h-1zM64 63h1v1h-1zM33 70h1v1h-1zM91 72h1v1h-1zM84 83h1v1h-1zM75 90h1v1h-1zM72 92h1v1h-1z" /><path fill="#e2095d" d="M5 27h1v1h-1zM5 28h1v1h-1zM5 30h1v1h-1zM5 38h1v1h-1zM20 57h1v1h-1zM31 68h1v1h-1zM57 70h1v1h-1zM7 71h3v1h-3zM16 71h17v1h-17zM35 71h1v1h-1zM39 71h12v1h-12zM47 84h1v1h-1zM48 85h1v1h-1zM57 94h1v1h-1z" /></svg>