<svg xmlns="http://www.w3.org/2000/svg" viewBox="0 0 100 100" width="1em" height="1em"><path fill="#efe170" d="M0 0h1v1h-1z" /><path fill="#edde65" d="M1 0h98v1h-98z" /><path fill="#ecdd64" d="M99 0h1v1h-1z" /><path fill="#edde66" d="M0 1h1v1h-1zM0 2h1v1h-1zM0 3h1v1h-1zM0 4h1v1h-1zM0 5h1v1h-1zM0 6h1v1h-1zM0 7h1v1h-1zM0 8h1v1h-1zM0 9h1v1h-1zM0 10h1v1h-1zM0 11h1v1h-1zM0 12h1v1h-1zM0 13h1v1h-1zM0 14h1v1h-1zM0 15h1v1h-1zM0 16h1v1h-1zM0 17h1v1h-1zM0 18h1v1h-1zM0 19h1v1h-1zM0 20h1v1h-1zM0 21h1v1h-1zM0 22h1v1h-1zM0 23h1v1h-1zM0 24h1v1h-1zM0 25h1v1h-1zM0 26h1v1h-1zM0 27h1v1h-1zM0 28h1v1h-1zM0 29h1v1h-1zM0 30h1v1h-1zM0 31h1v1h-1zM0 32h1v1h-1zM0 33h1v1h-1zM0 34h1v1h-1zM0 35h1v1h-1zM0 36h1v1h-1zM0 37h1v1h-1zM0 38h1v1h-1zM0 39h1v1h-1zM0 40h1v1h-1zM0 41h1v1h-1zM0 42h1v1h-1zM0 43h1v1h-1zM0 44h1v1h-1zM0 45h1v1h-1zM0 46h1v1h-1zM0 47h1v1h-1zM0 48h1v1h-1zM0 49h1v1h-1zM0 50h1v1h-1zM0 51h1v1h-1zM0 52h1v1h-1zM0 53h1v1h-1zM0 54h1v1h-1zM0 55h1v1h-1zM0 56h1v1h-1zM0 57h1v1h-1zM0 58h1v1h-1zM0 59h1v1h-1zM0 60h1v1h-1zM0 61h1v1h-1zM0 62h1v1h-1zM0 63h1v1h-1zM0 64h1v1h-1zM0 65h1v1h-1zM0 66h1v1h-1zM0 67h1v1h-1zM0 68h1v1h-1zM0 69h1v1h-1zM0 70h1v1h-1zM0 71h1v1h-1zM0 72h1v1h-1zM0 73h1v1h-1zM0 74h1v1h-1zM0 75h1v1h-1zM0 76h1v1h-1zM0 77h1v1h-1zM0 78h1v1h-1zM0 79h1v1h-1zM0 80h1v1h-1zM0 81h1v1h-1zM0 82h1v1h-1zM0 83h1v1h-1zM0 84h1v1h-1zM0 85h1v1h-1zM0 86h1v1h-1zM0 87h1v1h-1zM0 88h1v1h-1zM0 89h1v1h-1zM0 90h1v1h-1zM0 91h1v1h-1zM0 92h1v1h-1zM0 93h1v1h-1zM0 94h1v1h-1zM0 95h1v1h-1zM0 96h1v1h-1zM0 97h1v1h-1zM0 98h1v1h-1z" /><path fill="#ecdc5a" d="M1 1h99v1h-99zM1 2h99v1h-99zM1 3h99v1h-99zM1 4h99v1h-99zM1 5h99v1h-99zM1 6h99v1h-99zM1 7h99v1h-99zM1 8h99v1h-99zM1 9h99v1h-99zM1 10h99v1h-99zM1 11h99v1h-99zM1 12h99v1h-99zM1 13h99v1h-99zM1 14h99v1h-99zM1 15h99v1h-99zM1 16h99v1h-99zM1 17h99v1h-99zM1 18h99v1h-99zM1 19h99v1h-99zM1 20h99v1h-99zM1 21h99v1h-99zM1 22h99v1h-99zM1 23h99v1h-99zM1 24h99v1h-99zM1 25h99v1h-99zM1 26h99v1h-99zM1 27h99v1h-99zM1 28h99v1h-99zM1 29h99v1h-99zM1 30h99v1h-99zM1 31h99v1h-99zM1 32h99v1h-99zM1 33h99v1h-99zM1 34h99v1h-99zM1 35h99v1h-99zM1 36h99v1h-99zM1 37h99v1h-99zM1 38h99v1h-99zM1 39h99v1h-99zM1 40h99v1h-99zM1 41h99v1h-99zM1 42h99v1h-99zM1 43h99v1h-99zM1 44h99v1h-99zM1 45h99v1h-99zM1 46h99v1h-99zM1 47h99v1h-99zM1 48h99v1h-99zM1 49h99v1h-99zM1 50h99v1h-99zM1 51h99v1h-99zM1 52h99v1h-99zM1 53h99v1h-99zM1 54h99v1h-99zM1 55h99v1h-99zM1 56h99v1h-99zM1 57h99v1h-99zM1 58h99v1h-99zM1 59h99v1h-99zM1 60h99v1h-99zM1 61h99v1h-99zM1 62h73v1h-73zM79 62h21v1h-21zM1 63h41v1h-41zM46 63h10v1h-10zM60 63h5v1h-5zM69 63h2v1h-2zM81 63h19v1h-19zM1 64h40v1h-40zM46 64h10v1h-10zM61 64h4v1h-4zM83 64h17v1h-17zM1 65h40v1h-40zM46 65h10v1h-10zM61 65h4v1h-4zM83 65h17v1h-17zM1 66h40v1h-40zM46 66h10v1h-10zM61 66h4v1h-4zM84 66h16v1h-16zM1 67h40v1h-40zM46 67h10v1h-10zM61 67h4v1h-4zM73 67h5v1h-5zM84 67h16v1h-16zM1 68h40v1h-40zM46 68h10v1h-10zM61 68h4v1h-4zM72 68h7v1h-7zM84 68h16v1h-16zM1 69h40v1h-40zM46 69h10v1h-10zM61 69h4v1h-4zM71 69h9v1h-9zM85 69h15v1h-15zM1 70h40v1h-40zM46 70h10v1h-10zM61 70h4v1h-4zM70 70h10v1h-10zM85 70h15v1h-15zM1 71h40v1h-40zM46 71h10v1h-10zM61 71h4v1h-4zM70 71h10v1h-10zM85 71h15v1h-15zM1 72h40v1h-40zM46 72h10v1h-10zM61 72h4v1h-4zM70 72h10v1h-10zM85 72h15v1h-15zM1 73h40v1h-40zM46 73h10v1h-10zM61 73h4v1h-4zM70 73h10v1h-10zM85 73h15v1h-15zM1 74h40v1h-40zM46 74h10v1h-10zM61 74h4v1h-4zM70 74h10v1h-10zM85 74h15v1h-15zM1 75h40v1h-40zM46 75h10v1h-10zM61 75h4v1h-4zM70 75h10v1h-10zM85 75h15v1h-15zM1 76h40v1h-40zM46 76h10v1h-10zM61 76h4v1h-4zM70 76h10v1h-10zM85 76h15v1h-15zM1 77h40v1h-40zM46 77h10v1h-10zM61 77h4v1h-4zM70 77h10v1h-10zM85 77h15v1h-15zM1 78h40v1h-40zM46 78h10v1h-10zM61 78h4v1h-4zM70 78h10v1h-10zM85 78h15v1h-15zM1 79h41v1h-41zM47 79h8v1h-8zM61 79h4v1h-4zM70 79h10v1h-10zM85 79h15v1h-15zM1 80h41v1h-41zM48 80h7v1h-7zM60 80h5v1h-5zM70 80h10v1h-10zM85 80h15v1h-15zM1 81h41v1h-41zM49 81h4v1h-4zM60 81h5v1h-5zM70 81h10v1h-10zM85 81h15v1h-15zM1 82h42v1h-42zM60 82h5v1h-5zM70 82h10v1h-10zM85 82h15v1h-15zM1 83h42v1h-42zM59 83h6v1h-6zM70 83h10v1h-10zM85 83h15v1h-15zM1 84h43v1h-43zM58 84h7v1h-7zM70 84h10v1h-10zM85 84h15v1h-15zM1 85h45v1h-45zM56 85h9v1h-9zM69 85h12v1h-12zM84 85h16v1h-16zM1 86h99v1h-99zM1 87h99v1h-99zM1 88h99v1h-99zM1 89h99v1h-99zM1 90h99v1h-99zM1 91h99v1h-99zM1 92h99v1h-99zM1 93h99v1h-99zM1 94h99v1h-99zM1 95h99v1h-99zM1 96h99v1h-99zM1 97h99v1h-99zM1 98h99v1h-99zM1 99h99v1h-99z" /><path fill="#d5ca65" d="M74 62h1v1h-1z" /><path fill="#b8b16c" d="M75 62h1v1h-1zM60 65h1v1h-1zM79 68h1v1h-1z" /><path fill="#b6ae6c" d="M76 62h1v1h-1zM69 83h1v1h-1zM83 85h1v1h-1z" /><path fill="#bfb76b" d="M77 62h1v1h-1zM60 72h1v1h-1z" /><path fill="#ded161" d="M78 62h1v1h-1zM84 69h1v1h-1z" /><path fill="#c4bb6a" d="M42 63h1v1h-1zM60 76h1v1h-1z" /><path fill="#696b61" d="M43 63h1v1h-1z" /><path fill="#86866a" d="M44 63h1v1h-1z" /><path fill="#e7d95c" d="M45 63h1v1h-1zM57 84h1v1h-1z" /><path fill="#ebdb5b" d="M56 63h1v1h-1zM65 63h1v1h-1zM47 80h1v1h-1zM59 82h1v1h-1zM65 85h1v1h-1z" /><path fill="#93916d" d="M57 63h1v1h-1z" /><path fill="#64665f" d="M58 63h1v1h-1z" /><path fill="#b5ad6d" d="M59 63h1v1h-1zM84 72h1v1h-1z" /><path fill="#99966e" d="M66 63h1v1h-1zM75 66h1v1h-1z" /><path fill="#686a61" d="M67 63h1v1h-1z" /><path fill="#b9b26c" d="M68 63h1v1h-1z" /><path fill="#dcd061" d="M71 63h1v1h-1z" /><path fill="#807f69" d="M72 63h1v1h-1z" /><path fill="#2c323e" d="M73 63h1v1h-1zM79 67h1v1h-1zM52 85h1v1h-1z" /><path fill="#111827" d="M74 63h4v1h-4zM43 64h2v1h-2zM57 64h2v1h-2zM66 64h2v1h-2zM72 64h9v1h-9zM42 65h3v1h-3zM57 65h3v1h-3zM66 65h3v1h-3zM70 65h12v1h-12zM42 66h3v1h-3zM57 66h3v1h-3zM66 66h6v1h-6zM79 66h3v1h-3zM42 67h3v1h-3zM57 67h3v1h-3zM66 67h5v1h-5zM80 67h3v1h-3zM42 68h3v1h-3zM57 68h3v1h-3zM66 68h4v1h-4zM80 68h3v1h-3zM42 69h3v1h-3zM57 69h3v1h-3zM66 69h3v1h-3zM81 69h2v1h-2zM42 70h3v1h-3zM57 70h3v1h-3zM66 70h3v1h-3zM81 70h3v1h-3zM42 71h3v1h-3zM57 71h3v1h-3zM66 71h3v1h-3zM81 71h3v1h-3zM42 72h3v1h-3zM57 72h3v1h-3zM66 72h3v1h-3zM81 72h3v1h-3zM42 73h3v1h-3zM57 73h3v1h-3zM66 73h3v1h-3zM81 73h3v1h-3zM42 74h3v1h-3zM57 74h3v1h-3zM66 74h3v1h-3zM81 74h3v1h-3zM42 75h3v1h-3zM57 75h3v1h-3zM66 75h3v1h-3zM81 75h3v1h-3zM42 76h3v1h-3zM57 76h3v1h-3zM66 76h3v1h-3zM81 76h3v1h-3zM42 77h3v1h-3zM57 77h3v1h-3zM66 77h3v1h-3zM81 77h3v1h-3zM43 78h2v1h-2zM57 78h3v1h-3zM66 78h3v1h-3zM81 78h3v1h-3zM43 79h2v1h-2zM57 79h2v1h-2zM66 79h3v1h-3zM81 79h3v1h-3zM43 80h3v1h-3zM56 80h3v1h-3zM66 80h3v1h-3zM81 80h3v1h-3zM44 81h3v1h-3zM55 81h4v1h-4zM66 81h3v1h-3zM81 81h3v1h-3zM44 82h4v1h-4zM54 82h4v1h-4zM66 82h3v1h-3zM81 82h3v1h-3zM45 83h12v1h-12zM66 83h3v1h-3zM81 83h3v1h-3zM47 84h8v1h-8zM66 84h2v1h-2zM81 84h2v1h-2z" /><path fill="#121928" d="M78 63h1v1h-1zM83 69h1v1h-1zM42 78h1v1h-1zM45 79h1v1h-1z" /><path fill="#4d5153" d="M79 63h1v1h-1zM71 67h1v1h-1z" /><path fill="#b1aa6d" d="M80 63h1v1h-1z" /><path fill="#e8da5d" d="M41 64h1v1h-1zM41 78h1v1h-1zM43 83h1v1h-1zM44 84h1v1h-1z" /><path fill="#262c39" d="M42 64h1v1h-1z" /><path fill="#908f6c" d="M45 64h1v1h-1z" /><path fill="#a5a16d" d="M56 64h1v1h-1zM69 71h1v1h-1z" /><path fill="#171d2c" d="M59 64h1v1h-1zM55 84h1v1h-1z" /><path fill="#d8ca63" d="M60 64h1v1h-1z" /><path fill="#aca66d" d="M65 64h1v1h-1z" /><path fill="#161d2b" d="M68 64h1v1h-1zM72 66h1v1h-1z" /><path fill="#dbcd64" d="M69 64h1v1h-1zM53 81h1v1h-1zM69 84h1v1h-1z" /><path fill="#a39e6e" d="M70 64h1v1h-1z" /><path fill="#222835" d="M71 64h1v1h-1z" /><path fill="#767666" d="M81 64h1v1h-1zM42 80h1v1h-1z" /><path fill="#e9d95b" d="M82 64h1v1h-1z" /><path fill="#d4c965" d="M41 65h1v1h-1z" /><path fill="#62655e" d="M45 65h1v1h-1z" /><path fill="#807f68" d="M56 65h1v1h-1zM65 66h1v1h-1zM65 67h1v1h-1zM65 68h1v1h-1zM65 69h1v1h-1zM65 70h1v1h-1zM65 71h1v1h-1zM65 72h1v1h-1zM65 73h1v1h-1zM65 74h1v1h-1zM65 75h1v1h-1zM65 76h1v1h-1zM65 77h1v1h-1zM65 78h1v1h-1zM80 78h1v1h-1zM65 79h1v1h-1zM80 79h1v1h-1zM65 80h1v1h-1zM65 81h1v1h-1zM65 82h1v1h-1z" /><path fill="#84836a" d="M65 65h1v1h-1z" /><path fill="#4b4f52" d="M69 65h1v1h-1z" /><path fill="#797a66" d="M82 65h1v1h-1z" /><path fill="#d1c766" d="M41 66h1v1h-1zM41 67h1v1h-1zM41 68h1v1h-1zM41 69h1v1h-1zM41 70h1v1h-1zM41 73h1v1h-1zM41 74h1v1h-1zM41 75h1v1h-1z" /><path fill="#5f625d" d="M45 66h1v1h-1zM45 67h1v1h-1zM45 68h1v1h-1zM45 69h1v1h-1zM45 70h1v1h-1zM45 71h1v1h-1z" /><path fill="#7d7d68" d="M56 66h1v1h-1zM56 67h1v1h-1zM56 68h1v1h-1zM56 69h1v1h-1zM56 70h1v1h-1zM56 71h1v1h-1zM56 72h1v1h-1zM80 72h1v1h-1zM56 73h1v1h-1zM80 73h1v1h-1zM56 74h1v1h-1zM56 75h1v1h-1z" /><path fill="#b9b26d" d="M60 66h1v1h-1zM60 67h1v1h-1z" /><path fill="#585c5a" d="M73 66h1v1h-1z" /><path fill="#8f8d6c" d="M74 66h1v1h-1zM66 85h1v1h-1z" /><path fill="#97956d" d="M76 66h1v1h-1z" /><path fill="#6f7064" d="M77 66h1v1h-1z" /><path fill="#1c2331" d="M78 66h1v1h-1z" /><path fill="#141b2a" d="M82 66h1v1h-1zM48 82h1v1h-1zM53 82h1v1h-1z" /><path fill="#c8be68" d="M83 66h1v1h-1z" /><path fill="#cdc367" d="M72 67h1v1h-1zM42 81h1v1h-1z" /><path fill="#d0c566" d="M78 67h1v1h-1zM46 79h1v1h-1z" /><path fill="#6f7063" d="M83 67h1v1h-1z" /><path fill="#bbb46c" d="M60 68h1v1h-1z" /><path fill="#575b59" d="M70 68h1v1h-1zM44 83h1v1h-1z" /><path fill="#e6d85d" d="M71 68h1v1h-1z" /><path fill="#363b45" d="M83 68h1v1h-1z" /><path fill="#bcb46c" d="M60 69h1v1h-1z" /><path fill="#303540" d="M69 69h1v1h-1z" /><path fill="#e5d55e" d="M70 69h1v1h-1z" /><path fill="#383e46" d="M80 69h1v1h-1zM42 79h1v1h-1z" /><path fill="#bdb56c" d="M60 70h1v1h-1zM84 71h1v1h-1z" /><path fill="#838369" d="M69 70h1v1h-1z" /><path fill="#63665f" d="M80 70h1v1h-1zM51 82h1v1h-1z" /><path fill="#c8be69" d="M84 70h1v1h-1z" /><path fill="#d1c666" d="M41 71h1v1h-1z" /><path fill="#beb66c" d="M60 71h1v1h-1z" /><path fill="#797a67" d="M80 71h1v1h-1z" /><path fill="#d2c766" d="M41 72h1v1h-1zM41 76h1v1h-1z" /><path fill="#5d605c" d="M45 72h1v1h-1zM45 73h1v1h-1zM46 80h1v1h-1zM50 82h1v1h-1z" /><path fill="#b3ad6d" d="M69 72h1v1h-1zM84 73h1v1h-1zM84 74h1v1h-1zM84 75h1v1h-1z" /><path fill="#c1b86b" d="M60 73h1v1h-1z" /><path fill="#b4ae6d" d="M69 73h1v1h-1zM69 74h1v1h-1zM69 75h1v1h-1zM69 78h1v1h-1zM69 79h1v1h-1zM69 80h1v1h-1zM69 81h1v1h-1zM69 82h1v1h-1z" /><path fill="#5c5f5b" d="M45 74h1v1h-1z" /><path fill="#c2b96a" d="M60 74h1v1h-1z" /><path fill="#7e7e68" d="M80 74h1v1h-1zM80 75h1v1h-1z" /><path fill="#5c5e5b" d="M45 75h1v1h-1z" /><path fill="#c3bb6a" d="M60 75h1v1h-1z" /><path fill="#5b5e5b" d="M45 76h1v1h-1zM58 82h1v1h-1z" /><path fill="#7b7c68" d="M56 76h1v1h-1z" /><path fill="#b4ae6e" d="M69 76h1v1h-1zM69 77h1v1h-1z" /><path fill="#7f7f68" d="M80 76h1v1h-1zM80 77h1v1h-1z" /><path fill="#b3ad6e" d="M84 76h1v1h-1zM84 77h1v1h-1zM84 78h1v1h-1z" /><path fill="#dbcf62" d="M41 77h1v1h-1z" /><path fill="#565a58" d="M45 77h1v1h-1z" /><path fill="#6d6e63" d="M56 77h1v1h-1z" /><path fill="#c5bc6a" d="M60 77h1v1h-1z" /><path fill="#3b4149" d="M45 78h1v1h-1z" /><path fill="#555959" d="M56 78h1v1h-1z" /><path fill="#d3c866" d="M60 78h1v1h-1z" /><path fill="#e3d55f" d="M55 79h1v1h-1z" /><path fill="#1d2432" d="M56 79h1v1h-1z" /><path fill="#181f2e" d="M59 79h1v1h-1zM46 84h1v1h-1zM68 84h1v1h-1z" /><path fill="#eada5a" d="M60 79h1v1h-1z" /><path fill="#b2ac6d" d="M84 79h1v1h-1zM84 80h1v1h-1z" /><path fill="#767767" d="M55 80h1v1h-1z" /><path fill="#515456" d="M59 80h1v1h-1z" /><path fill="#818069" d="M80 80h1v1h-1z" /><path fill="#151c2a" d="M43 81h1v1h-1z" /><path fill="#60635e" d="M47 81h1v1h-1z" /><path fill="#d6ca64" d="M48 81h1v1h-1z" /><path fill="#6c6d63" d="M54 81h1v1h-1z" /><path fill="#aba76d" d="M59 81h1v1h-1z" /><path fill="#828169" d="M80 81h1v1h-1zM80 82h1v1h-1zM65 83h1v1h-1z" /><path fill="#b1ab6d" d="M84 81h1v1h-1zM84 82h1v1h-1z" /><path fill="#757665" d="M43 82h1v1h-1z" /><path fill="#3d424a" d="M49 82h1v1h-1z" /><path fill="#42484e" d="M52 82h1v1h-1z" /><path fill="#454a4f" d="M57 83h1v1h-1z" /><path fill="#e1d360" d="M58 83h1v1h-1z" /><path fill="#838269" d="M80 83h1v1h-1z" /><path fill="#b6af6c" d="M84 83h1v1h-1z" /><path fill="#8a886b" d="M45 84h1v1h-1z" /><path fill="#787967" d="M56 84h1v1h-1z" /><path fill="#a6a26e" d="M65 84h1v1h-1z" /><path fill="#a9a56e" d="M80 84h1v1h-1z" /><path fill="#181e2d" d="M83 84h1v1h-1z" /><path fill="#dbd062" d="M84 84h1v1h-1z" /><path fill="#ddd062" d="M46 85h1v1h-1z" /><path fill="#918f6c" d="M47 85h1v1h-1z" /><path fill="#595d5a" d="M48 85h1v1h-1z" /><path fill="#333842" d="M49 85h1v1h-1z" /><path fill="#19202f" d="M50 85h1v1h-1z" /><path fill="#212734" d="M51 85h1v1h-1z" /><path fill="#535657" d="M53 85h1v1h-1z" /><path fill="#87876b" d="M54 85h1v1h-1z" /><path fill="#d9cb64" d="M55 85h1v1h-1z" /><path fill="#656760" d="M67 85h1v1h-1z" /><path fill="#b7b06d" d="M68 85h1v1h-1z" /><path fill="#95926c" d="M81 85h1v1h-1z" /><path fill="#676960" d="M82 85h1v1h-1z" /><path fill="#ecdd65" d="M0 99h1v1h-1z" /></svg>