<svg xmlns="http://www.w3.org/2000/svg" viewBox="0 0 100 100"><path fill="#efe170" fill-rule="evenodd" d="M0 0h1v1h-1z"/><path fill="#edde65" fill-rule="evenodd" d="M1 0h98v1h-98z"/><path fill="#ecdd64" fill-rule="evenodd" d="M99 0h1v1h-1z"/><path fill="#edde66" fill-rule="evenodd" d="M0 1h1v98h-1z"/><path fill="#ecdc5a" fill-rule="evenodd" d="M1 1h99v99h-99zm74 61h-1v1h-3v1h-2v-1h-4v23h4v-1h1v-15h1v-1h1v-1h1v-1h5v1h1v1h1v16h1v1h3v-1h1v-16h-1v-3h-1v-2h-2v-1h-2v-1zm-32 1h-1v1h-1v15h1v3h1v2h1v1h2v1h10v-1h2v-1h1v-1h1v-3h1v-16h-1v-1h-4v16h-1v2h-2v1h-4v-1h-1v-1h-1v-1h-1v-16z"/><path fill="#d5ca65" fill-rule="evenodd" d="M74 62h1v1h-1z"/><path fill="#b8b16c" fill-rule="evenodd" d="M75 62h1v1h-1zm-15 3h1v1h-1zm19 3h1v1h-1z"/><path fill="#b6ae6c" fill-rule="evenodd" d="M76 62h1v1h-1zm-7 21h1v1h-1zm14 2h1v1h-1z"/><path fill="#bfb76b" fill-rule="evenodd" d="M77 62h1v1h-1zm-17 10h1v1h-1z"/><path fill="#ded161" fill-rule="evenodd" d="M78 62h1v1h-1zm6 7h1v1h-1z"/><path fill="#c4bb6a" fill-rule="evenodd" d="M42 63h1v1h-1zm18 13h1v1h-1z"/><path fill="#696b61" fill-rule="evenodd" d="M43 63h1v1h-1z"/><path fill="#86866a" fill-rule="evenodd" d="M44 63h1v1h-1z"/><path fill="#e7d95c" fill-rule="evenodd" d="M45 63h1v1h-1zm12 21h1v1h-1z"/><path fill="#ebdb5b" fill-rule="evenodd" d="M56 63h1v1h-1zm9 0h1v1h-1zm-18 17h1v1h-1zm12 2h1v1h-1zm6 3h1v1h-1z"/><path fill="#93916d" fill-rule="evenodd" d="M57 63h1v1h-1z"/><path fill="#64665f" fill-rule="evenodd" d="M58 63h1v1h-1z"/><path fill="#b5ad6d" fill-rule="evenodd" d="M59 63h1v1h-1zm25 9h1v1h-1z"/><path fill="#99966e" fill-rule="evenodd" d="M66 63h1v1h-1zm9 3h1v1h-1z"/><path fill="#686a61" fill-rule="evenodd" d="M67 63h1v1h-1z"/><path fill="#b9b26c" fill-rule="evenodd" d="M68 63h1v1h-1z"/><path fill="#dcd061" fill-rule="evenodd" d="M71 63h1v1h-1z"/><path fill="#807f69" fill-rule="evenodd" d="M72 63h1v1h-1z"/><path fill="#2c323e" fill-rule="evenodd" d="M73 63h1v1h-1zm6 4h1v1h-1zm-27 18h1v1h-1z"/><path fill="#111827" fill-rule="evenodd" d="M74 63h4v1h3v1h1v2h1v3h1v14h-1v1h-2v-16h-1v-2h-1v-1h-7v1h-1v1h-1v1h-1v15h-1v1h-2v-21h2v1h1v1h1v-1h2v-1h2zm-31 1h2v16h1v1h1v1h1v1h6v-1h1v-1h1v-1h1v-16h2v1h1v14h-1v3h-1v1h-1v1h-2v1h-8v-1h-2v-1h-1v-2h-1v-3h-1v-13h1z"/><path fill="#121928" fill-rule="evenodd" d="M78 63h1v1h-1zm5 6h1v1h-1zm-41 9h1v1h-1zm3 1h1v1h-1z"/><path fill="#4d5153" fill-rule="evenodd" d="M79 63h1v1h-1zm-8 4h1v1h-1z"/><path fill="#b1aa6d" fill-rule="evenodd" d="M80 63h1v1h-1z"/><path fill="#e8da5d" fill-rule="evenodd" d="M41 64h1v1h-1zm0 14h1v1h-1zm2 5h1v1h-1zm1 1h1v1h-1z"/><path fill="#262c39" fill-rule="evenodd" d="M42 64h1v1h-1z"/><path fill="#908f6c" fill-rule="evenodd" d="M45 64h1v1h-1z"/><path fill="#a5a16d" fill-rule="evenodd" d="M56 64h1v1h-1zm13 7h1v1h-1z"/><path fill="#171d2c" fill-rule="evenodd" d="M59 64h1v1h-1zm-4 20h1v1h-1z"/><path fill="#d8ca63" fill-rule="evenodd" d="M60 64h1v1h-1z"/><path fill="#aca66d" fill-rule="evenodd" d="M65 64h1v1h-1z"/><path fill="#161d2b" fill-rule="evenodd" d="M68 64h1v1h-1zm4 2h1v1h-1z"/><path fill="#dbcd64" fill-rule="evenodd" d="M69 64h1v1h-1zm-16 17h1v1h-1zm16 3h1v1h-1z"/><path fill="#a39e6e" fill-rule="evenodd" d="M70 64h1v1h-1z"/><path fill="#222835" fill-rule="evenodd" d="M71 64h1v1h-1z"/><path fill="#767666" fill-rule="evenodd" d="M81 64h1v1h-1zm-39 16h1v1h-1z"/><path fill="#e9d95b" fill-rule="evenodd" d="M82 64h1v1h-1z"/><path fill="#d4c965" fill-rule="evenodd" d="M41 65h1v1h-1z"/><path fill="#62655e" fill-rule="evenodd" d="M45 65h1v1h-1z"/><path fill="#807f68" fill-rule="evenodd" d="M56 65h1v1h-1zm9 1h1v17h-1zm15 12h1v2h-1z"/><path fill="#84836a" fill-rule="evenodd" d="M65 65h1v1h-1z"/><path fill="#4b4f52" fill-rule="evenodd" d="M69 65h1v1h-1z"/><path fill="#797a66" fill-rule="evenodd" d="M82 65h1v1h-1z"/><path fill="#d1c766" fill-rule="evenodd" d="M41 66h1v5h-1zm0 7h1v3h-1z"/><path fill="#5f625d" fill-rule="evenodd" d="M45 66h1v6h-1z"/><path fill="#7d7d68" fill-rule="evenodd" d="M56 66h1v10h-1zm24 6h1v2h-1z"/><path fill="#b9b26d" fill-rule="evenodd" d="M60 66h1v2h-1z"/><path fill="#585c5a" fill-rule="evenodd" d="M73 66h1v1h-1z"/><path fill="#8f8d6c" fill-rule="evenodd" d="M74 66h1v1h-1zm-8 19h1v1h-1z"/><path fill="#97956d" fill-rule="evenodd" d="M76 66h1v1h-1z"/><path fill="#6f7064" fill-rule="evenodd" d="M77 66h1v1h-1z"/><path fill="#1c2331" fill-rule="evenodd" d="M78 66h1v1h-1z"/><path fill="#141b2a" fill-rule="evenodd" d="M82 66h1v1h-1zm-34 16h1v1h-1zm5 0h1v1h-1z"/><path fill="#c8be68" fill-rule="evenodd" d="M83 66h1v1h-1z"/><path fill="#cdc367" fill-rule="evenodd" d="M72 67h1v1h-1zm-30 14h1v1h-1z"/><path fill="#d0c566" fill-rule="evenodd" d="M78 67h1v1h-1zm-32 12h1v1h-1z"/><path fill="#6f7063" fill-rule="evenodd" d="M83 67h1v1h-1z"/><path fill="#bbb46c" fill-rule="evenodd" d="M60 68h1v1h-1z"/><path fill="#575b59" fill-rule="evenodd" d="M70 68h1v1h-1zm-26 15h1v1h-1z"/><path fill="#e6d85d" fill-rule="evenodd" d="M71 68h1v1h-1z"/><path fill="#363b45" fill-rule="evenodd" d="M83 68h1v1h-1z"/><path fill="#bcb46c" fill-rule="evenodd" d="M60 69h1v1h-1z"/><path fill="#303540" fill-rule="evenodd" d="M69 69h1v1h-1z"/><path fill="#e5d55e" fill-rule="evenodd" d="M70 69h1v1h-1z"/><path fill="#383e46" fill-rule="evenodd" d="M80 69h1v1h-1zm-38 10h1v1h-1z"/><path fill="#bdb56c" fill-rule="evenodd" d="M60 70h1v1h-1zm24 1h1v1h-1z"/><path fill="#838369" fill-rule="evenodd" d="M69 70h1v1h-1z"/><path fill="#63665f" fill-rule="evenodd" d="M80 70h1v1h-1zm-29 12h1v1h-1z"/><path fill="#c8be69" fill-rule="evenodd" d="M84 70h1v1h-1z"/><path fill="#d1c666" fill-rule="evenodd" d="M41 71h1v1h-1z"/><path fill="#beb66c" fill-rule="evenodd" d="M60 71h1v1h-1z"/><path fill="#797a67" fill-rule="evenodd" d="M80 71h1v1h-1z"/><path fill="#d2c766" fill-rule="evenodd" d="M41 72h1v1h-1zm0 4h1v1h-1z"/><path fill="#5d605c" fill-rule="evenodd" d="M45 72h1v2h-1zm1 8h1v1h-1zm4 2h1v1h-1z"/><path fill="#b3ad6d" fill-rule="evenodd" d="M69 72h1v1h-1zm15 1h1v3h-1z"/><path fill="#c1b86b" fill-rule="evenodd" d="M60 73h1v1h-1z"/><path fill="#b4ae6d" fill-rule="evenodd" d="M69 73h1v3h-1zm0 5h1v5h-1z"/><path fill="#5c5f5b" fill-rule="evenodd" d="M45 74h1v1h-1z"/><path fill="#c2b96a" fill-rule="evenodd" d="M60 74h1v1h-1z"/><path fill="#7e7e68" fill-rule="evenodd" d="M80 74h1v2h-1z"/><path fill="#5c5e5b" fill-rule="evenodd" d="M45 75h1v1h-1z"/><path fill="#c3bb6a" fill-rule="evenodd" d="M60 75h1v1h-1z"/><path fill="#5b5e5b" fill-rule="evenodd" d="M45 76h1v1h-1zm13 6h1v1h-1z"/><path fill="#7b7c68" fill-rule="evenodd" d="M56 76h1v1h-1z"/><path fill="#b4ae6e" fill-rule="evenodd" d="M69 76h1v2h-1z"/><path fill="#7f7f68" fill-rule="evenodd" d="M80 76h1v2h-1z"/><path fill="#b3ad6e" fill-rule="evenodd" d="M84 76h1v3h-1z"/><path fill="#dbcf62" fill-rule="evenodd" d="M41 77h1v1h-1z"/><path fill="#565a58" fill-rule="evenodd" d="M45 77h1v1h-1z"/><path fill="#6d6e63" fill-rule="evenodd" d="M56 77h1v1h-1z"/><path fill="#c5bc6a" fill-rule="evenodd" d="M60 77h1v1h-1z"/><path fill="#3b4149" fill-rule="evenodd" d="M45 78h1v1h-1z"/><path fill="#555959" fill-rule="evenodd" d="M56 78h1v1h-1z"/><path fill="#d3c866" fill-rule="evenodd" d="M60 78h1v1h-1z"/><path fill="#e3d55f" fill-rule="evenodd" d="M55 79h1v1h-1z"/><path fill="#1d2432" fill-rule="evenodd" d="M56 79h1v1h-1z"/><path fill="#181f2e" fill-rule="evenodd" d="M59 79h1v1h-1zm-13 5h1v1h-1zm22 0h1v1h-1z"/><path fill="#eada5a" fill-rule="evenodd" d="M60 79h1v1h-1z"/><path fill="#b2ac6d" fill-rule="evenodd" d="M84 79h1v2h-1z"/><path fill="#767767" fill-rule="evenodd" d="M55 80h1v1h-1z"/><path fill="#515456" fill-rule="evenodd" d="M59 80h1v1h-1z"/><path fill="#818069" fill-rule="evenodd" d="M80 80h1v1h-1z"/><path fill="#151c2a" fill-rule="evenodd" d="M43 81h1v1h-1z"/><path fill="#60635e" fill-rule="evenodd" d="M47 81h1v1h-1z"/><path fill="#d6ca64" fill-rule="evenodd" d="M48 81h1v1h-1z"/><path fill="#6c6d63" fill-rule="evenodd" d="M54 81h1v1h-1z"/><path fill="#aba76d" fill-rule="evenodd" d="M59 81h1v1h-1z"/><path fill="#828169" fill-rule="evenodd" d="M80 81h1v2h-1zm-15 2h1v1h-1z"/><path fill="#b1ab6d" fill-rule="evenodd" d="M84 81h1v2h-1z"/><path fill="#757665" fill-rule="evenodd" d="M43 82h1v1h-1z"/><path fill="#3d424a" fill-rule="evenodd" d="M49 82h1v1h-1z"/><path fill="#42484e" fill-rule="evenodd" d="M52 82h1v1h-1z"/><path fill="#454a4f" fill-rule="evenodd" d="M57 83h1v1h-1z"/><path fill="#e1d360" fill-rule="evenodd" d="M58 83h1v1h-1z"/><path fill="#838269" fill-rule="evenodd" d="M80 83h1v1h-1z"/><path fill="#b6af6c" fill-rule="evenodd" d="M84 83h1v1h-1z"/><path fill="#8a886b" fill-rule="evenodd" d="M45 84h1v1h-1z"/><path fill="#787967" fill-rule="evenodd" d="M56 84h1v1h-1z"/><path fill="#a6a26e" fill-rule="evenodd" d="M65 84h1v1h-1z"/><path fill="#a9a56e" fill-rule="evenodd" d="M80 84h1v1h-1z"/><path fill="#181e2d" fill-rule="evenodd" d="M83 84h1v1h-1z"/><path fill="#dbd062" fill-rule="evenodd" d="M84 84h1v1h-1z"/><path fill="#ddd062" fill-rule="evenodd" d="M46 85h1v1h-1z"/><path fill="#918f6c" fill-rule="evenodd" d="M47 85h1v1h-1z"/><path fill="#595d5a" fill-rule="evenodd" d="M48 85h1v1h-1z"/><path fill="#333842" fill-rule="evenodd" d="M49 85h1v1h-1z"/><path fill="#19202f" fill-rule="evenodd" d="M50 85h1v1h-1z"/><path fill="#212734" fill-rule="evenodd" d="M51 85h1v1h-1z"/><path fill="#535657" fill-rule="evenodd" d="M53 85h1v1h-1z"/><path fill="#87876b" fill-rule="evenodd" d="M54 85h1v1h-1z"/><path fill="#d9cb64" fill-rule="evenodd" d="M55 85h1v1h-1z"/><path fill="#656760" fill-rule="evenodd" d="M67 85h1v1h-1z"/><path fill="#b7b06d" fill-rule="evenodd" d="M68 85h1v1h-1z"/><path fill="#95926c" fill-rule="evenodd" d="M81 85h1v1h-1z"/><path fill="#676960" fill-rule="evenodd" d="M82 85h1v1h-1z"/><path fill="#ecdd65" fill-rule="evenodd" d="M0 99h1v1h-1z"/></svg>