<svg xmlns="http://www.w3.org/2000/svg" viewBox="0 0 100 100"><path fill="#14acff" fill-rule="evenodd" stroke="#14acff" stroke-width=".1" d="M77 8h1v1h-1zm0 1v2h-1v-2zm-1 2v2h-1v-2zm-1 2v2h-1v-2zm-1 2v3h-1v2h-1v-3h1v-2zm-2 5v2h-1v-2zm-1 2v2h-1v-2zm-1 2v2h-1v-2zm-1 2v2h-1v-2zm-1 2v3h-1v2h-1v-3h1v-2zm-2 5v2h-1v-2zm-1 2v2h-1v-2zm-1 2v2h-1v-2zm-1 2v3h-1v2h-1v2h-1v-3h1v-2h1v-2zm-3 7v2h-1v-2zm-1 2v2h-1v-2zm-1 2v2h-1v-2zm-1 2v3h-1v2h-1v-3h1v-2zm-2 5v2h-1v-2zm-1 2v2h-1v-2zm-1 2v2h-1v-2zm-1 2v2h-1v-2zm-1 2v3h-1v2h-1v-3h1v-2zm-2 5v2h-1v-2zm-1 2v2h-1v-2zm-1 2v2h-1v-2zm-1 2v3h-1v2h-1v2h-1v-3h1v-2h1v-2zm-3 7v2h-1v-2zm-1 2v1h-1v-1zm-1 1v1h-1v-1z"/><path fill="#13aaff" fill-rule="evenodd" stroke="#13aaff" stroke-width=".1" d="M78 8h1v4h-1v2h-1v2h-1v-3h1v-2h1zm-2 8v2h-1v-2zm-1 2v2h-1v-2zm-1 2v2h-1v-2zm-1 2v1h-1v-1zm-3 5h1v1h-1zm-1 2h1v2h-1zm0 2v2h-1v-2zm-1 2v2h-1v-2zm-1 2v3h-1v2h-1v-3h1v-2zm-2 5v2h-1v-2zm-1 2v2h-1v-2zm-1 2v2h-1v-2zm-1 2v3h-1v2h-1v2h-1v-3h1v-2h1v-2zm-3 7v2h-1v-2zm-1 2v2h-1v-2zm-1 2v2h-1v-2zm-1 2v3h-1v2h-1v-3h1v-2zm-2 5v2h-1v-2zm-1 2v2h-1v-2zm-1 2v2h-1v-2zm-1 2v2h-1v-2zm-1 2v3h-1v2h-1v-3h1v-2zm-2 5v2h-1v-2zm-1 2v2h-1v-2zm-1 2v2h-1v-2zm-1 2v1h-1v-1z"/><path fill="#13a9ff" fill-rule="evenodd" stroke="#13a9ff" stroke-width=".1" d="M79 8h1v1h1v1h-1v2h-1zm0 4v2h-1v-2zm-1 2v2h-1v-2zm-1 2v2h-1v-2zm-1 2v2h-1v-2zm-1 2v2h-1v-2zm-4 4h1v1h-1zm-1 4h1v1h-1zm-2 5h1v1h-1zm-1 2h2v1h-1v1h-1zm-1 3h1v2h-1zm0 2v2h-1v-2zm-1 2v2h-1v-2zm-1 2v3h-1v2h-1v-3h1v-2zm-2 5v2h-1v-2zm-1 2v2h-1v-2zm-1 2v2h-1v-2zm-1 2v2h-1v-2zm-1 2v3h-1v2h-1v-3h1v-2zm-2 5v2h-1v-2zm-1 2v2h-1v-2zm-1 2v2h-1v-2zm-1 2v2h-1v-2zm-1 2v3h-1v2h-1v-3h1v-2zm-2 5v2h-1v-2zm-1 2v2h-1v-2zm-1 2v2h-1v-2zm-1 2v2h-1v-2zm-1 2v1h-1v-1zm-1 1v1h-1v-1zm-1 1v1h-1v-1z"/><path fill="#13a8ff" fill-rule="evenodd" stroke="#13a8ff" stroke-width=".1" d="M80 8h1v1h-1zm-10 21h1v1h-1zm-1 2h1v2h-1zm-1 3h1v1h-1z"/><path fill="#11a8ff" fill-rule="evenodd" stroke="#11a8ff" stroke-width=".1" d="M81 8h1v1h-1zm-14 30h1v1h-1z"/><path fill="#15aeff" fill-rule="evenodd" stroke="#15aeff" stroke-width=".1" d="M73 9h1v1h-1zm-27 58h1v1h-1z"/><path fill="#14adff" fill-rule="evenodd" stroke="#14adff" stroke-width=".1" d="M74 9h2v2h-1v-1h-1zm1 2v2h-1v-2zm-1 2v2h-1v-2zm-1 2v2h-1v-2zm-1 2v3h-1v2h-1v-3h1v-2zm-2 5v2h-1v-2zm-1 2v2h-1v-2zm-1 2v2h-1v-2zm-1 2v2h-1v-2zm-1 2v3h-1v2h-1v-3h1v-2zm-2 5v2h-1v-2zm-1 2v2h-1v-2zm-1 2v2h-1v-2zm-1 2v2h-1v-2zm-1 2v3h-1v2h-1v-3h1v-2zm-2 5v2h-1v-2zm-1 2v2h-1v-2zm-1 2v2h-1v-2zm-1 2v3h-1v2h-1v2h-1v-3h1v-2h1v-2zm-3 7v2h-1v-2zm-1 2v2h-1v-2zm-1 2v2h-1v-2zm-1 2v3h-1v2h-1v-3h1v-2zm-2 5v2h-1v-2zm-1 2v2h-1v-2zm-1 2v2h-1v-2zm-1 2v2h-1v-2zm-1 2v3h-1v2h-1v-3h1v-2zm-2 5v1h-1v-1z"/><path fill="#13abff" fill-rule="evenodd" stroke="#13abff" stroke-width=".1" d="M77 9h1v2h-1zm0 2v2h-1v-2zm-1 2v3h-1v2h-1v-3h1v-2zm-2 5v2h-1v-2zm-1 2v2h-1v-2zm-1 2v2h-1v-2zm-1 2v3h-1v2h-1v2h-1v-3h1v-2h1v-2zm-3 7v2h-1v-2zm-1 2v2h-1v-2zm-1 2v2h-1v-2zm-1 2v3h-1v2h-1v-3h1v-2zm-2 5v2h-1v-2zm-1 2v2h-1v-2zm-1 2v2h-1v-2zm-1 2v2h-1v-2zm-1 2v3h-1v2h-1v-3h1v-2zm-2 5v2h-1v-2zm-1 2v2h-1v-2zm-1 2v2h-1v-2zm-1 2v3h-1v2h-1v2h-1v-3h1v-2h1v-2zm-3 7v2h-1v-2zm-1 2v2h-1v-2zm-1 2v2h-1v-2zm-1 2v3h-1v2h-1v-3h1v-2zm-2 5v2h-1v-2zm-1 2v2h-1v-2zm-1 2v2h-1v-2z"/><path fill="#12a8ff" fill-rule="evenodd" stroke="#12a8ff" stroke-width=".1" d="M81 9h1v1h-1zm0 1v2h-1v-2zm-1 2v2h-1v-2zm-1 2v2h-1v-2zm-1 2v2h-1v-2zm-1 2v2h-1v-2zm-10 19h1v1h-1zm-2 5h1v3h-1v2h-1v-3h1zm-1 5v2h-1v-2zm-1 2v2h-1v-2zm-1 2v2h-1v-2zm-1 2v2h-1v-2zm-1 2v3h-1v2h-1v-3h1v-2zm-2 5v2h-1v-2zm-1 2v2h-1v-2zm-1 2v2h-1v-2zm-1 2v3h-1v2h-1v2h-1v-3h1v-2h1v-2zm-3 7v2h-1v-2zm-1 2v2h-1v-2zm-1 2v2h-1v-2zm-1 2v3h-1v1h-1v-2h1v-2zm-2 4v1h-1v-1zm-1 1v1h-1v-1z"/><path fill="#12a7ff" fill-rule="evenodd" stroke="#12a7ff" stroke-width=".1" d="M82 9h1v1h-1zm0 1v2h-1v-2zm-1 2v2h-1v-2zm-1 2v3h-1v2h-1v1h-1v-2h1v-2h1v-2zm-5 6h1v1h-1zm-9 20h1v2h-1zm-2 7h1v1h-1zm-1 2h1v1h-1zm-1 2h1v2h-1zm0 2v3h-1v2h-1v-3h1v-2zm-2 5v2h-1v-2zm-1 2v2h-1v-2zm-1 2v2h-1v-2zm-1 2v3h-1v2h-1v-3h1v-2zm-2 5v2h-1v-2zm-1 2v2h-1v-2zm-1 2v2h-1v-2zm-1 2v2h-1v-2zm-1 2v3h-1v1h-1v-2h1v-2z"/><path fill="#12a6ff" fill-rule="evenodd" stroke="#12a6ff" stroke-width=".1" d="M83 9h1v1h-1zm0 1v2h-1v-2zm-1 2v3h-1v2h-1v-3h1v-2zm-2 5v2h-1v-2zm-1 2v1h-1v-1zm-16 31h1v1h-1zm-2 7h1v1h-1zm0 1v2h-1v-2zm-1 2v2h-1v-2zm-1 2v3h-1v2h-1v-3h1v-2zm-2 5v2h-1v-2zm-1 2v2h-1v-2zm-1 2v2h-1v-2zm-1 2v2h-1v-2zm-1 2v2h-1v-2zm-1 2v2h-1v-2z"/><path fill="#10a5ff" fill-rule="evenodd" stroke="#10a5ff" stroke-width=".1" d="M84 9h1v1h-1zm-29 64h1v1h-1z"/><path fill="#11a4ff" fill-rule="evenodd" stroke="#11a4ff" stroke-width=".1" d="M85 9h1v2h-1v2h-1v-3h1zm-1 4v2h-1v-2zm-1 2v2h-1v-2zm-1 2v2h-1v-2zm-3 2h1v1h-1zm-19 42h1v1h-1zm-3 7h1v2h-1zm0 2v1h-1v-1zm-2 2h1v1h-1zm-1 2h1v1h-1z"/><path fill="#15afff" fill-rule="evenodd" stroke="#15afff" stroke-width=".1" d="M71 10h2v3h-1v2h-1v-3h1v-1h-1zm0 5v2h-1v-2zm-1 2v2h-1v-2zm-1 2v2h-1v-2zm-1 2v2h-1v-2zm-1 2v3h-1v2h-1v-3h1v-2zm-2 5v2h-1v-2zm-1 2v2h-1v-2zm-1 2v2h-1v-2zm-1 2v3h-1v2h-1v2h-1v-3h1v-2h1v-2zm-3 7v2h-1v-2zm-1 2v2h-1v-2zm-1 2v2h-1v-2zm-1 2v3h-1v2h-1v-3h1v-2zm-2 5v2h-1v-2zm-1 2v2h-1v-2zm-1 2v2h-1v-2zm-1 2v2h-1v-2zm-1 2v3h-1v-3zm-1 3v2h-1v-2zm-1 2v2h-1v-2zm-2 3h1v1h-1zm0 1v2h-1v-2zm-1 2v2h-1v-2zm-1 2v3h-1v2h-1v-3h1v-2zm-2 5v2h-1v-2zm-1 2v2h-1v-2zm-1 2v2h-1v-2zm-1 2v3h-2v-1h1v-2z"/><path fill="#14aeff" fill-rule="evenodd" stroke="#14aeff" stroke-width=".1" d="M73 10h2v1h-1v2h-1zm0 3v2h-1v-2zm-1 2v2h-1v-2zm-1 2v2h-1v-2zm-1 2v3h-1v2h-1v2h-1v-3h1v-2h1v-2zm-3 7v2h-1v-2zm-1 2v2h-1v-2zm-1 2v2h-1v-2zm-1 2v3h-1v2h-1v-3h1v-2zm-2 5v2h-1v-2zm-1 2v2h-1v-2zm-1 2v2h-1v-2zm-1 2v2h-1v-2zm-1 2v3h-1v2h-1v-3h1v-2zm-2 5v2h-1v-2zm-1 2v2h-1v-2zm-1 2v2h-1v-2zm-1 2v2h-1v-2zm-1 2v3h-1v2h-1v-3h1v-2zm-4 4h1v1h-1zm1 1h1v2h-1zm0 2v2h-1v-2zm-1 2v2h-1v-2zm-1 2v3h-1v2h-1v2h-1v-3h1v-2h1v-2zm-3 7v2h-1v-2zm-1 2v2h-1v-2zm-1 2v2h-1v-2zm-1 2v3h-1v1h-1v-2h1v-2z"/><path fill="#11a5ff" fill-rule="evenodd" stroke="#11a5ff" stroke-width=".1" d="M83 10h1v3h-1v2h-1v-3h1zm-1 5v2h-1v-2zm-1 2v2h-1v-2zm-21 43h1v1h-1zm-1 2h1v1h-1zm-1 3h1v2h-1zm0 2v1h-1v-1zm-2 2h1v1h-1zm-1 2h1v1h-1zm-1 2h1v1h-1zm-1 2h1v1h-1zm-2 4h1v1h-1z"/><path fill="#11a3ff" fill-rule="evenodd" stroke="#11a3ff" stroke-width=".1" d="M86 10h1v1h-1zm0 1v2h-1v-2zm-1 2v2h-1v-2zm-1 2v2h-1v-2zm-1 2v3h-2v-1h1v-2z"/><path fill="#0fa1fd" fill-rule="evenodd" stroke="#0fa1fd" stroke-width=".1" d="M87 10h1v1h-1z"/><path fill="#10a0fd" fill-rule="evenodd" stroke="#10a0fd" stroke-width=".1" d="M88 10h1v1h-1z"/><path fill="#15b1ff" fill-rule="evenodd" stroke="#15b1ff" stroke-width=".1" d="M69 11h2v1h-1v2h-1v-1h-1v-1h1zm0 3v2h-1v-2zm-1 2v3h-1v2h-1v-3h1v-2zm-2 5v2h-1v-2zm-1 2v2h-1v-2zm-1 2v2h-1v-2zm-1 2v3h-1v2h-1v-3h1v-2zm-2 5v2h-1v-2zm-1 2v2h-1v-2zm-1 2v2h-1v-2zm-1 2v2h-1v-2zm-1 2v3h-1v2h-1v-1h-1v-1h1v-1h1v-2zm-2 5v2h-1v-1h-1v-1zm-1 2v2h-1v-2zm-1 2v2h-1v-2zm-2 3h1v1h-1zm-10 21h1v2h-1v2h-1v-3h1zm-1 4v3h-1v2h-1v-3h1v-2zm-2 5v2h-1v-2zm-1 2v2h-1v-2zm-1 2v1h-1v-1zm-1 1v1h-1v-1z"/><path fill="#15b0ff" fill-rule="evenodd" stroke="#15b0ff" stroke-width=".1" d="M71 11h1v1h-1zm0 1v3h-1v2h-1v2h-1v-3h1v-2h1v-2zm-3 7v2h-1v-2zm-1 2v2h-1v-2zm-1 2v2h-1v-2zm-1 2v3h-1v2h-1v-3h1v-2zm-2 5v2h-1v-2zm-1 2v2h-1v-2zm-1 2v2h-1v-2zm-1 2v2h-1v-2zm-1 2v3h-1v2h-1v-3h1v-2zm-2 5v2h-1v-2zm-1 2v2h-1v-2zm-1 2v2h-1v-2zm-1 2v3h-1v2h-1v2h-1v-3h1v-1h-1v-1h2v-2zm-3 7v2h-1v-2zm-3 5h1v1h-1zm-3 7h1v1h-1zm-2 4h1v1h-1zm0 1v2h-1v-2zm-1 2v3h-1v2h-1v-3h1v-2zm-2 5v2h-1v-2zm-1 2v2h-1v-2zm-1 2v2h-1v-2zm-1 2v1h-1v-1zm-1 1v1h-1v-1z"/><path fill="#10a2fe" fill-rule="evenodd" stroke="#10a2fe" stroke-width=".1" d="M86 11h1v2h-1zm0 2v2h-1v-2zm-1 2v3h-1v2h-1v-3h1v-2z"/><path fill="#10a1fe" fill-rule="evenodd" stroke="#10a1fe" stroke-width=".1" d="M87 11h1v3h-1v2h-1v2h-1v-3h1v-2h1zm-2 7v2h-1v-2z"/><path fill="#10a0fe" fill-rule="evenodd" stroke="#10a0fe" stroke-width=".1" d="M88 11h1v3h-1zm0 3v2h-1v-2zm-1 2v2h-1v-2zm-1 2v2h-1v-2zm-1 2v1h-1v-1z"/><path fill="#0f9ffd" fill-rule="evenodd" stroke="#0f9ffd" stroke-width=".1" d="M89 11h1v1h-1z"/><path fill="#0f9ffe" fill-rule="evenodd" stroke="#0f9ffe" stroke-width=".1" d="M89 12h1v2h-1zm0 2v2h-1v-2zm-1 2v2h-1v-2zm-1 2v2h-1v-2zm-1 2v1h-1v-1z"/><path fill="#0f9efe" fill-rule="evenodd" stroke="#0f9efe" stroke-width=".1" d="M90 12h1v2h-1zm0 2v2h-1v-2zm-1 2v3h-1v2h-1v1h-1v-2h1v-2h1v-2z"/><path fill="#0f9dfd" fill-rule="evenodd" stroke="#0f9dfd" stroke-width=".1" d="M91 12h1v1h-1z"/><path fill="#15b4ff" fill-rule="evenodd" stroke="#15b4ff" stroke-width=".1" d="M66 13h1v1h-1zm-7 14h1v1h-1zm-1 3h1v1h-1zm-26 57h1v1h-1z"/><path fill="#16b3ff" fill-rule="evenodd" stroke="#16b3ff" stroke-width=".1" d="M67 13h1v1h-1zm0 1v2h-1v-2zm-1 2v2h-1v-2zm-1 2v2h-1v-2zm-1 2v3h-1v2h-1v-3h1v-2zm-4 4h1v1h-1zm1 1h1v2h-1zm0 2v2h-1v-2zm-1 2v2h-1v-2zm-1 2v2h-2v-1h1v-1zm-2 3h1v2h-1zm-1 3h1v1h-1zm-18 39h1v1h-1zm0 1v2h-1v-2zm-1 2v2h-1v-2zm-1 2v2h-1v-2zm-1 2v3h-1v1h-1v-2h1v-2z"/><path fill="#16b2ff" fill-rule="evenodd" stroke="#16b2ff" stroke-width=".1" d="M68 13h1v1h-1zm0 1v2h-1v-2zm-1 2v2h-1v-2zm-1 2v3h-1v2h-1v-3h1v-2zm-2 5v2h-1v-2zm-1 2v2h-1v-2zm-1 2v2h-1v-2zm-1 2v3h-1v2h-1v2h-1v-3h1v-2h1v-2zm-3 7v2h-1v-2zm-1 2v2h-1v2h-1v-3h1v-1zm-2 4v1h-1v-1zm-1 2h1v1h-1zm-16 31h2v2h-1v-1h-1zm1 2v2h-1v-2zm-1 2v3h-1v2h-1v2h-1v-3h1v-2h1v-2zm-3 7v1h-1v-1z"/><path fill="#0f9dfe" fill-rule="evenodd" stroke="#0f9dfe" stroke-width=".1" d="M91 13h1v1h-1zm0 1v3h-1v2h-1v-3h1v-2zm-2 5v2h-1v-2zm-1 2v2h-1v-2zm-29 62h1v1h-1zm-1 2h1v1h-1zm0 1v1h-1v-1z"/><path fill="#0e9cfd" fill-rule="evenodd" stroke="#0e9cfd" stroke-width=".1" d="M92 13h1v1h-1zm-29 62h1v1h-1zm-1 2h1v1h-1zm-2 4h1v1h-1zm0 1v1h-1v-1zm-2 5h1v1h-1z"/><path fill="#16b4ff" fill-rule="evenodd" stroke="#16b4ff" stroke-width=".1" d="M65 14h1v2h-1zm0 2v2h-1v2h-1v-3h1v-1zm-2 4v2h-1v-2zm-1 2v3h-1v-3zm-1 3v2h-1v-2zm-2 3h1v1h-1zm0 1v1h-1v-1zm-22 47h1v1h-1zm0 1v2h-1v-2zm-1 2v2h-1v-2zm-1 2v2h-1v-2zm-1 2v2h-1v-2zm-1 2v2h-1v-2zm-1 2v1h-1v-1z"/><path fill="#0e9cfe" fill-rule="evenodd" stroke="#0e9cfe" stroke-width=".1" d="M91 14h2v1h-1v2h-1zm0 3v2h-1v-2zm-1 2v2h-1v-2zm-1 2v2h-1v-2zm-25 54h1v1h-1zm0 1v2h-1v-2zm-1 2v2h-1v-2zm-1 2v2h-1v-2zm-1 2v2h-1v-2zm-1 2v2h-1v-2zm-1 2v1h-1v-1z"/><path fill="#0d9afd" fill-rule="evenodd" stroke="#0d9afd" stroke-width=".1" d="M93 14h1v1h-1zm-5 13h1v1h-1zm-28 61h1v1h-1z"/><path fill="#17b5ff" fill-rule="evenodd" stroke="#17b5ff" stroke-width=".1" d="M64 15h1v1h-1zm-2 4h1v1h-1zm-1 2h1v1h-1zm-27 55h1v1h-1zm1 1h1v2h-1v2h-1v-3h1zm-1 4v2h-1v-2zm-1 2v2h-1v-2zm-1 2v2h-1v-2z"/><path fill="#0e9bfe" fill-rule="evenodd" stroke="#0e9bfe" stroke-width=".1" d="M92 15h1v2h-1zm0 2v2h-1v-2zm-1 2v2h-1v-2zm-1 2v3h-1v1h-1v-2h1v-2zm-25 54h1v1h-1zm0 1v2h-1v-2zm-1 2v2h-1v-2zm-1 2v2h-1v-2zm-1 2v2h-1v-2zm-1 2v3h-1v1h-1v-2h1v-2z"/><path fill="#0e9afe" fill-rule="evenodd" stroke="#0e9afe" stroke-width=".1" d="M93 15h1v2h-1zm0 2v2h-1v-2zm-1 2v3h-1v2h-1v-3h1v-2zm-2 5v2h-1v-2zm-24 51h1v1h-1zm0 1v2h-1v-2zm-1 2v2h-1v-2zm-1 2v3h-1v2h-1v2h-1v-3h1v-2h1v-2zm-3 7v1h-1v-1z"/><path fill="#0c98fd" fill-rule="evenodd" stroke="#0c98fd" stroke-width=".1" d="M94 15h1v1h-1zm1 1h1v1h-1zm-9 20h1v1h-1z"/><path fill="#0d99fe" fill-rule="evenodd" stroke="#0d99fe" stroke-width=".1" d="M94 16h1v1h-1zm0 1v3h-1v2h-1v-3h1v-2zm-2 5v2h-1v-2zm-1 2v2h-1v-2zm-1 2v2h-1v-2zm-23 49h1v1h-1zm0 1v2h-1v-2zm-1 2v3h-1v2h-1v-3h1v-2zm-2 5v2h-1v-2zm-1 2v2h-1v-2zm-1 2v1h-1v-1z"/><path fill="#27d9f6" fill-rule="evenodd" stroke="#27d9f6" stroke-width=".1" d="M16 17h1v1h-1z"/><path fill="#27d9f7" fill-rule="evenodd" stroke="#27d9f7" stroke-width=".1" d="M17 17h1v1h-1z"/><path fill="#26d7f9" fill-rule="evenodd" stroke="#26d7f9" stroke-width=".1" d="M18 17h1v1h-1z"/><path fill="#25d6fa" fill-rule="evenodd" stroke="#25d6fa" stroke-width=".1" d="M19 17h1v1h-1z"/><path fill="#24d5fd" fill-rule="evenodd" stroke="#24d5fd" stroke-width=".1" d="M20 17h1v1h-1z"/><path fill="#22d5ff" fill-rule="evenodd" stroke="#22d5ff" stroke-width=".1" d="M21 17h1v3h-1zm0 3v2h-1v-2zm-1 2v2h-1v-2zm-1 2v2h-1v-2zm-1 2v2h-1v-2zm-1 2v1h-1v-1zm-6 12h1v1h-1zm0 1v3h-1v-3zm-1 3v2h-1v-2zm-1 2v2h-1v-2zm-1 2v2h-1v-2zm-1 2v2h-1v-2zm-1 2v1h-1v-1z"/><path fill="#0d98fe" fill-rule="evenodd" stroke="#0d98fe" stroke-width=".1" d="M94 17h2v1h-1v2h-1zm0 3v2h-1v-2zm-1 2v2h-1v-2zm-1 2v2h-1v-2zm-1 2v3h-1v2h-1v-3h1v-2zm-2 5v2h-1v-2zm-2 3h1v1h-1zm-19 41h1v1h-1zm0 1v3h-1v2h-1v-3h1v-2zm-2 5v2h-1v-2zm-1 2v2h-1v-2zm-1 2v2h-1v-2zm-1 2v1h-1v-1z"/><path fill="#0c96fd" fill-rule="evenodd" stroke="#0c96fd" stroke-width=".1" d="M96 17h1v1h-1zm-11 22h1v1h-1zm-1 3h1v1h-1z"/><path fill="#2fe0ec" fill-rule="evenodd" stroke="#2fe0ec" stroke-width=".1" d="M12 18h1v1h-1z"/><path fill="#2ddeef" fill-rule="evenodd" stroke="#2ddeef" stroke-width=".1" d="M13 18h1v1h-1z"/><path fill="#2cddf2" fill-rule="evenodd" stroke="#2cddf2" stroke-width=".1" d="M14 18h1v1h-1zm-1 2h1v1h-1zm-1 2h1v1h-1zm-1 2h1v1h-1zm-3 7h1v1h-1zm-1 2h1v1h-1zm-1 2h1v1h-1zm-1 2h1v1h-1zm-2 5h1v1h-1zm-1 2h1v1h-1z"/><path fill="#2adbf5" fill-rule="evenodd" stroke="#2adbf5" stroke-width=".1" d="M15 18h1v1h-1zm-1 2h1v1h-1zm-1 2h1v1h-1zm-4 9h1v1h-1zm-1 2h1v1h-1zm-5 11h1v1h-1z"/><path fill="#28daf7" fill-rule="evenodd" stroke="#28daf7" stroke-width=".1" d="M16 18h1v1h-1zm-1 2h1v1h-1zm-1 2h1v1h-1zm-1 2h1v1h-1zm-1 2h1v1h-1zm-1 2h1v1h-1zm-1 3h1v1h-1zm-1 2h1v1h-1zm-1 2h1v1h-1zm-1 2h1v1h-1zm-1 2h1v1h-1zm-1 2h1v2h-1zm-1 3h1v1h-1zm-1 2h1v1h-1z"/><path fill="#27d9f9" fill-rule="evenodd" stroke="#27d9f9" stroke-width=".1" d="M17 18h1v1h-1zm-1 2h1v1h-1zm-1 2h1v1h-1zm-1 2h1v1h-1zm-3 7h1v1h-1zm-1 2h1v1h-1zm-1 2h1v1h-1zm-1 2h1v1h-1zm-3 7h1v1h-1zm-1 2h1v1h-1z"/><path fill="#25d8fb" fill-rule="evenodd" stroke="#25d8fb" stroke-width=".1" d="M18 18h1v1h-1zm-3 7h1v1h-1zm-1 2h1v1h-1zm-1 2h1v1h-1zm-1 2h1v1h-1zm-2 5h1v1h-1zm-1 2h1v1h-1zm-1 2h1v1h-1zm-1 2h1v1h-1zm-3 7h1v1h-1z"/><path fill="#24d7fc" fill-rule="evenodd" stroke="#24d7fc" stroke-width=".1" d="M19 18h1v1h-1zm-1 2h1v1h-1zm-1 2h1v1h-1zm-1 2h1v2h-1zm-1 3h1v1h-1zm-1 2h1v1h-1zm-4 8h1v2h-1zm-1 3h1v1h-1zm-1 2h1v1h-1zm-1 2h1v1h-1zm-1 2h1v1h-1zm-1 2h1v1h-1zm-1 3h1v1h-1z"/><path fill="#23d6fe" fill-rule="evenodd" stroke="#23d6fe" stroke-width=".1" d="M20 18h1v1h-1zm-1 2h1v1h-1zm-1 3h1v1h-1zm-1 2h1v1h-1zm-1 2h1v1h-1zm-6 13h1v1h-1zm-1 2h1v1h-1zm-1 2h1v1h-1zm-1 3h1v1h-1zm-1 2h1v1h-1zm-1 2h1v1h-1z"/><path fill="#22d4ff" fill-rule="evenodd" stroke="#22d4ff" stroke-width=".1" d="M22 18h1v2h-1zm0 2v2h-1v-2zm-1 2v2h-1v-2zm-1 2v3h-1v1h-1v-2h1v-2zm-9 15h1v1h-1zm0 2h1v3h-1zm0 3v2h-1v-2zm-1 2v2h-1v-2zm-1 2v3h-1v2h-1v2h-1v-3h1v-2h1v-2z"/><path fill="#21d3ff" fill-rule="evenodd" stroke="#21d3ff" stroke-width=".1" d="M23 18h1v3h-1v2h-1v-3h1zm-1 5v3h-1v2h-2v-1h1v-2h1v-2zm-3 5v1h-1v-1zm-7 14h1v3h-1v2h-1v-3h1zm-1 5v3h-1v2h-1v2h-1v2h-2v-1h-1v-1h1v1h1v-2h1v-2h1v-2h1v-2z"/><path fill="#21d2ff" fill-rule="evenodd" stroke="#21d2ff" stroke-width=".1" d="M24 18h1v1h1v1h-1v2h-1v2h-1v2h-1v-3h1v-2h1zm-2 8v3h-2v-1h1v-2zm-9 17h1v1h-1zm-1 2h2v1h-1v2h-1v2h-1v-3h1zm-1 5v3h-1v2h-1v2h-1v2h-1v-3h1v-2h1v-2h1v-2z"/><path fill="#16b5ff" fill-rule="evenodd" stroke="#16b5ff" stroke-width=".1" d="M62 18h1v1h-1zm-2 5h1v1h-1zm-25 53h1v1h-1z"/><path fill="#0d97fe" fill-rule="evenodd" stroke="#0d97fe" stroke-width=".1" d="M95 18h1v2h-1zm0 2v2h-1v-2zm-1 2v2h-1v-2zm-1 2v3h-1v2h-1v-3h1v-2zm-2 5v2h-1v-2zm-1 2v2h-1v-2zm-1 2v2h-1v-2zm-1 2v2h-1v-2zm-1 2v3h-1v-3zm-2 4h1v1h-1zm-16 34h1v2h-1v2h-1v-3h1zm-1 4v2h-1v-2zm-1 2v2h-1v-2zm-1 2v2h-1v-2zm-1 2v3h-2v-1h1v-2z"/><path fill="#0c96fe" fill-rule="evenodd" stroke="#0c96fe" stroke-width=".1" d="M96 18h1v2h-1zm0 2v2h-1v-2zm-1 2v3h-1v2h-1v-3h1v-2zm-2 5v2h-1v-2zm-1 2v2h-1v-2zm-1 2v2h-1v-2zm-1 2v3h-1v2h-1v2h-1v-3h1v-2h1v-2zm-3 7v2h-1v-2zm-1 2v2h-1v-2zm-1 2v2h-1v-2zm-2 3h1v2h-1zm-1 3h1v1h-1zm-10 22h1v1h-1zm0 1v2h-1v2h-1v-3h1v-1zm-2 4v2h-1v-2zm-1 2v2h-1v-2zm-1 2v2h-1v-2zm-1 2v3h-1v2h-1v-3h1v-2z"/><path fill="#33e3e8" fill-rule="evenodd" stroke="#33e3e8" stroke-width=".1" d="M10 19h1v1h-1zm-1 2h1v1h-1zm-1 2h1v1h-1zm-1 2h1v1h-1zm-4 9h1v1h-1zm-1 2h1v1h-1z"/><path fill="#31e1eb" fill-rule="evenodd" stroke="#31e1eb" stroke-width=".1" d="M11 19h1v1h-1zm-1 2h1v1h-1zm-1 2h1v1h-1zm-4 9h1v1h-1zm-1 2h1v1h-1z"/><path fill="#2fe0ee" fill-rule="evenodd" stroke="#2fe0ee" stroke-width=".1" d="M12 19h1v1h-1zm-1 2h1v1h-1zm-1 2h1v1h-1zm-4 9h1v1h-1zm-1 2h1v1h-1zm-1 2h1v1h-1z"/><path fill="#2ddef1" fill-rule="evenodd" stroke="#2ddef1" stroke-width=".1" d="M13 19h1v1h-1zm-1 2h1v1h-1zm-4 9h1v1h-1zm-1 2h1v1h-1zm-1 2h1v1h-1zm-4 9h1v1h-1z"/><path fill="#2bdcf4" fill-rule="evenodd" stroke="#2bdcf4" stroke-width=".1" d="M14 19h1v1h-1zm-5 11h1v1h-1zm-6 13h1v1h-1z"/><path fill="#29daf6" fill-rule="evenodd" stroke="#29daf6" stroke-width=".1" d="M15 19h1v1h-1zm-6 13h1v1h-1z"/><path fill="#27d9f8" fill-rule="evenodd" stroke="#27d9f8" stroke-width=".1" d="M16 19h1v1h-1zm-1 2h1v1h-1zm-1 2h1v1h-1zm-1 3h1v1h-1zm-1 2h1v1h-1zm-1 2h1v1h-1zm-1 2h1v1h-1zm-1 2h1v1h-1zm-1 2h1v1h-1zm-1 3h1v1h-1zm-1 2h1v1h-1zm-1 2h1v1h-1zm-1 2h1v1h-1zm-1 2h1v1h-1z"/><path fill="#26d8fa" fill-rule="evenodd" stroke="#26d8fa" stroke-width=".1" d="M17 19h1v1h-1zm-1 2h1v2h-1zm-1 3h1v1h-1zm-1 2h1v1h-1zm-1 2h1v1h-1zm-1 2h1v1h-1zm-1 2h1v1h-1zm-1 2h1v2h-1zm-1 3h1v1h-1zm-1 2h1v1h-1zm-1 2h1v1h-1zm-1 2h1v1h-1zm-1 2h1v1h-1zm-1 2h1v2h-1z"/><path fill="#25d7fb" fill-rule="evenodd" stroke="#25d7fb" stroke-width=".1" d="M18 19h1v1h-1zm-1 2h1v1h-1zm-1 2h1v1h-1zm-2 5h1v1h-1zm-6 13h1v1h-1zm-1 2h1v1h-1zm-1 2h1v1h-1zm-1 2h1v1h-1z"/><path fill="#24d6fd" fill-rule="evenodd" stroke="#24d6fd" stroke-width=".1" d="M19 19h1v1h-1zm-1 2h1v1h-1zm-10 22h1v1h-1zm-1 2h1v1h-1zm-1 2h1v1h-1z"/><path fill="#22d5fe" fill-rule="evenodd" stroke="#22d5fe" stroke-width=".1" d="M20 19h1v1h-1zm-11 24h1v1h-1z"/><path fill="#20d0ff" fill-rule="evenodd" stroke="#20d0ff" stroke-width=".1" d="M26 19h1v1h-1zm1 1h1v2h-1v2h-1v2h-1v2h-1v2h-1v-3h1v-2h1v-2h1v-2h1zm-13 27h1v3h-1v2h-1v2h-1v2h-1v-3h1v-2h1v-2h1zm-3 9v3h-1v2h-2v-1h1v-2h1v-2z"/><path fill="#1fcfff" fill-rule="evenodd" stroke="#1fcfff" stroke-width=".1" d="M27 19h1v1h-1zm-19 42h1v1h-1zm1 2h1v1h-1z"/><path fill="#10a3ff" fill-rule="evenodd" stroke="#10a3ff" stroke-width=".1" d="M80 19h1v1h-1zm-24 52h1v1h-1z"/><path fill="#0c95fd" fill-rule="evenodd" stroke="#0c95fd" stroke-width=".1" d="M97 19h1v1h-1zm-15 29h1v1h-1zm-4 12h1v1h-1zm-4 9h1v1h-1z"/><path fill="#36e5e3" fill-rule="evenodd" stroke="#36e5e3" stroke-width=".1" d="M8 20h1v1h-1z"/><path fill="#33e3e6" fill-rule="evenodd" stroke="#33e3e6" stroke-width=".1" d="M9 20h1v1h-1z"/><path fill="#32e2ea" fill-rule="evenodd" stroke="#32e2ea" stroke-width=".1" d="M10 20h1v1h-1zm-1 2h1v1h-1zm-2 5h1v1h-1zm-1 2h1v1h-1zm-1 2h1v1h-1zm-1 2h1v1h-1zm-1 2h1v1h-1zm-2 5h1v1h-1z"/><path fill="#30e0ed" fill-rule="evenodd" stroke="#30e0ed" stroke-width=".1" d="M11 20h1v1h-1zm-4 9h1v1h-1zm-1 2h1v1h-1zm-1 2h1v1h-1zm-3 7h1v1h-1zm-1 2h1v1h-1z"/><path fill="#2edfef" fill-rule="evenodd" stroke="#2edfef" stroke-width=".1" d="M12 20h1v1h-1zm-1 2h1v1h-1zm-1 2h1v1h-1zm-1 2h1v1h-1zm-2 5h1v1h-1zm-1 2h1v1h-1zm-1 2h1v1h-1zm-1 2h1v1h-1zm-1 2h1v1h-1z"/><path fill="#25d8fa" fill-rule="evenodd" stroke="#25d8fa" stroke-width=".1" d="M17 20h1v1h-1zm-6 13h1v1h-1zm-5 11h1v1h-1zm-1 2h1v1h-1z"/><path fill="#21d1ff" fill-rule="evenodd" stroke="#21d1ff" stroke-width=".1" d="M25 20h1v2h-1zm0 2v2h-1v-2zm-1 2v2h-1v-2zm-1 2v2h-1v-2zm-10 20h1v2h-1zm0 2v2h-1v-2zm-1 2v2h-1v-2zm-2 3h1v1h-1zm-1 2h1v2h-1zm0 2v2h-1v-2z"/><path fill="#20d1ff" fill-rule="evenodd" stroke="#20d1ff" stroke-width=".1" d="M26 20h1v1h-1zm-1 2h1v1h-1zm-1 2h1v1h-1zm-1 2h1v1h-1zm-1 2h1v1h-1zm-9 16h1v1h-1zm0 4h1v1h-1zm-1 2h1v1h-1zm-1 2h1v1h-1zm-1 2h1v2h-1zm-1 3h1v1h-1zm-1 2h1v1h-1z"/><path fill="#20ceff" fill-rule="evenodd" stroke="#20ceff" stroke-width=".1" d="M28 20h1v1h-1zm0 2h1v2h-1zm-1 3h1v1h-1zm-1 2h1v1h-1zm-1 2h1v1h-1zm-10 22h1v1h-1zm-1 2h1v1h-1zm-1 2h1v1h-1zm-1 2h1v1h-1zm-1 2h1v1h-1zm-1 3h1v1h-1zm-1 2h1v1h-1z"/><path fill="#17b4ff" fill-rule="evenodd" stroke="#17b4ff" stroke-width=".1" d="M61 20h1v1h-1zm-25 56h1v1h-1z"/><path fill="#11a7ff" fill-rule="evenodd" stroke="#11a7ff" stroke-width=".1" d="M76 20h1v1h-1zm-28 62h1v1h-1z"/><path fill="#0fa0fd" fill-rule="evenodd" stroke="#0fa0fd" stroke-width=".1" d="M83 20h1v1h-1z"/><path fill="#0c95fe" fill-rule="evenodd" stroke="#0c95fe" stroke-width=".1" d="M96 20h2v1h-1v2h-1v2h-1v-3h1zm-1 5v2h-1v-2zm-1 2v2h-1v-2zm-1 2v2h-1v-2zm-1 2v3h-1v2h-1v-3h1v-2zm-2 5v2h-1v-2zm-1 2v2h-1v-2zm-1 2v2h-1v-2zm-1 2v2h-1v-2zm-1 2v3h-1v2h-1v-3h1v-2zm-2 5v2h-1v-2zm-1 2v2h-1v-2zm-1 2v2h-1v-2zm-2 3h1v2h-1zm-1 3h1v1h-1zm-5 11h1v1h-1zm-1 2h1v1h-1zm0 1v2h-1v-2zm-1 2v2h-1v-2zm-1 2v2h-1v-2zm-1 2v2h-1v-2zm-1 2v3h-1v2h-1v-3h1v-2zm-2 5v2h-1v-2z"/><path fill="#37e5e3" fill-rule="evenodd" stroke="#37e5e3" stroke-width=".1" d="M7 21h1v1h-1z"/><path fill="#35e5e6" fill-rule="evenodd" stroke="#35e5e6" stroke-width=".1" d="M8 21h1v1h-1zm-5 11h1v1h-1zm-1 2h1v1h-1z"/><path fill="#2bdcf3" fill-rule="evenodd" stroke="#2bdcf3" stroke-width=".1" d="M13 21h1v1h-1zm-1 2h1v1h-1zm-4 9h1v1h-1zm-1 2h1v1h-1zm-1 2h1v1h-1z"/><path fill="#29dbf6" fill-rule="evenodd" stroke="#29dbf6" stroke-width=".1" d="M14 21h1v1h-1zm-1 2h1v1h-1zm-1 2h1v1h-1zm-4 9h1v1h-1zm-1 2h1v1h-1zm-1 2h1v1h-1zm-3 7h1v1h-1z"/><path fill="#23d5fe" fill-rule="evenodd" stroke="#23d5fe" stroke-width=".1" d="M19 21h1v1h-1zm-11 24h1v1h-1z"/><path fill="#20cfff" fill-rule="evenodd" stroke="#20cfff" stroke-width=".1" d="M28 21h1v1h-1zm0 1v3h-1v2h-1v2h-1v2h-1v-3h1v-2h1v-2h1v-2zm-14 28h2v1h-1v2h-1v2h-1v2h-1v2h-1v-3h1v-2h1v-2h1zm-3 9v3h-1v1h-1v-2h1v-2z"/><path fill="#1fceff" fill-rule="evenodd" stroke="#1fceff" stroke-width=".1" d="M29 21h1v2h-1zm-1 3h1v1h-1zm-1 2h1v2h-1zm0 2v2h-1v-2zm-1 2v2h-2v-1h-1v-1h1v1h1v-1zm-11 19h1v1h-1zm0 3h1v2h-1zm0 2v2h-1v-2zm-1 2v2h-1v-2zm-1 2v2h-1v-2zm-1 2v2h-1v-2zm-2 3h1v2h-1z"/><path fill="#0f9efd" fill-rule="evenodd" stroke="#0f9efd" stroke-width=".1" d="M85 21h1v1h-1z"/><path fill="#0c94fe" fill-rule="evenodd" stroke="#0c94fe" stroke-width=".1" d="M97 21h1v2h-1zm0 2v2h-1v-2zm-1 2v2h-1v-2zm-1 2v2h-1v-2zm-1 2v3h-1v2h-1v-3h1v-2zm-2 5v2h-1v-2zm-1 2v2h-1v-2zm-1 2v2h-1v-2zm-1 2v2h-1v-2zm-1 2v3h-1v2h-1v-3h1v-2zm-2 5v2h-1v-2zm-1 2v2h-1v-2zm-1 2v2h-1v-2zm-1 2v3h-1v2h-1v-3h1v-2zm-2 5v2h-1v-2zm-1 2v2h-1v-2zm-1 2v2h-1v-2zm-2 3h1v1h-1zm-1 2h1v2h-1zm0 2v2h-1v-2zm-1 2v2h-1v-2zm-1 2v2h-1v-2zm-1 2v2h-1v-2zm-1 2v2h-1v-2zm-1 2v3h-1v2h-1v-3h1v-2zm-2 5v2h-1v-2zm-1 2v2h-1v-2z"/><path fill="#0b92fd" fill-rule="evenodd" stroke="#0b92fd" stroke-width=".1" d="M98 21h1v1h-1zm-29 66h1v1h-1z"/><path fill="#39e7e0" fill-rule="evenodd" stroke="#39e7e0" stroke-width=".1" d="M6 22h1v1h-1z"/><path fill="#36e6e4" fill-rule="evenodd" stroke="#36e6e4" stroke-width=".1" d="M7 22h1v1h-1zm-1 2h1v1h-1zm-4 9h1v1h-1zm-1 2h1v1h-1zm-1 2h1v1h-1z"/><path fill="#34e4e7" fill-rule="evenodd" stroke="#34e4e7" stroke-width=".1" d="M8 22h1v1h-1zm-1 2h1v1h-1zm-3 7h1v1h-1zm-1 2h1v1h-1zm-1 2h1v1h-1zm-1 2h1v1h-1z"/><path fill="#30e1ec" fill-rule="evenodd" stroke="#30e1ec" stroke-width=".1" d="M10 22h1v1h-1zm-1 2h1v1h-1zm-1 2h1v1h-1zm-4 9h1v1h-1zm-1 2h1v1h-1zm-1 2h1v1h-1z"/><path fill="#23d6fd" fill-rule="evenodd" stroke="#23d6fd" stroke-width=".1" d="M18 22h1v1h-1zm-1 2h1v1h-1zm-1 2h1v1h-1zm-1 2h1v1h-1zm-4 9h1v1h-1zm-1 2h1v1h-1zm-1 2h1v1h-1zm-2 5h1v1h-1zm-1 2h1v1h-1zm-1 2h1v1h-1z"/><path fill="#21d4ff" fill-rule="evenodd" stroke="#21d4ff" stroke-width=".1" d="M21 22h1v1h-1zm-1 2h1v1h-1zm-3 4h1v1h-1zm-7 18h1v1h-1zm-1 2h1v1h-1zm-4 5h1v1h-1z"/><path fill="#1fcdff" fill-rule="evenodd" stroke="#1fcdff" stroke-width=".1" d="M30 22h1v2h-1v2h-1v2h-1v-3h1v-2h1zm-2 6v3h-1v2h-1v-3h1v-2zm-12 25h1v1h-1zm0 1v3h-1v2h-1v2h-1v2h-1v2h-1v-3h1v-2h1v-2h1v-2h1v-2zm-5 11v1h-1v-1z"/><path fill="#1eccff" fill-rule="evenodd" stroke="#1eccff" stroke-width=".1" d="M31 22h1v1h-1z"/><path fill="#0e9dfd" fill-rule="evenodd" stroke="#0e9dfd" stroke-width=".1" d="M86 22h1v1h-1zm-29 63h1v1h-1z"/><path fill="#0b93fd" fill-rule="evenodd" stroke="#0b93fd" stroke-width=".1" d="M98 22h1v1h-1zm-22 44h1v1h-1z"/><path fill="#3ae7df" fill-rule="evenodd" stroke="#3ae7df" stroke-width=".1" d="M5 23h1v1h-1z"/><path fill="#37e7e3" fill-rule="evenodd" stroke="#37e7e3" stroke-width=".1" d="M6 23h1v1h-1z"/><path fill="#35e5e5" fill-rule="evenodd" stroke="#35e5e5" stroke-width=".1" d="M7 23h1v1h-1zm-6 13h1v1h-1zm-1 2h1v1h-1z"/><path fill="#2ddef0" fill-rule="evenodd" stroke="#2ddef0" stroke-width=".1" d="M11 23h1v1h-1zm-1 2h1v1h-1zm-1 2h1v1h-1zm-4 9h1v1h-1zm-1 2h1v1h-1zm-1 2h1v1h-1z"/><path fill="#26d8f9" fill-rule="evenodd" stroke="#26d8f9" stroke-width=".1" d="M15 23h1v1h-1zm-6 13h1v1h-1zm-6 13h1v1h-1z"/><path fill="#24d7fd" fill-rule="evenodd" stroke="#24d7fd" stroke-width=".1" d="M17 23h1v1h-1zm-6 13h1v1h-1zm-6 13h1v1h-1z"/><path fill="#1fccff" fill-rule="evenodd" stroke="#1fccff" stroke-width=".1" d="M31 23h1v2h-1v2h-1v2h-1v2h-1v-3h1v-2h1v-2h1zm-3 8v3h-2v-1h1v-2zm-12 20h1v2h-1zm0 3h1v3h-1zm0 3v3h-1v2h-1v2h-1v2h-1v2h-2v-2h1v-1h1v-2h1v-2h1v-2h1v-2z"/><path fill="#12aaff" fill-rule="evenodd" stroke="#12aaff" stroke-width=".1" d="M72 23h1v1h-1zm-1 2h1v1h-1z"/><path fill="#0d9bfd" fill-rule="evenodd" stroke="#0d9bfd" stroke-width=".1" d="M87 23h1v1h-1zm1 2h1v1h-1z"/><path fill="#0b93fe" fill-rule="evenodd" stroke="#0b93fe" stroke-width=".1" d="M97 23h1v2h-1zm0 2v2h-1v-2zm-1 2v3h-1v2h-1v-3h1v-2zm-2 5v2h-1v-2zm-1 2v2h-1v-2zm-1 2v2h-1v-2zm-1 2v3h-1v2h-1v2h-1v-3h1v-2h1v-2zm-3 7v2h-1v-2zm-1 2v2h-1v-2zm-1 2v2h-1v-2zm-1 2v3h-1v2h-1v-3h1v-2zm-2 5v2h-1v-2zm-1 2v2h-1v-2zm-1 2v2h-1v-2zm-1 2v2h-1v-2zm-1 2v3h-1v2h-1v-3h1v-2zm-2 5v2h-1v-2zm-1 2v2h-1v-2zm-1 2v2h-1v-2zm-1 2v3h-1v2h-1v2h-1v-3h1v-2h1v-2zm-3 7v2h-1v-2zm-1 2v2h-1v-2zm-1 2v2h-1v-2z"/><path fill="#0b92fe" fill-rule="evenodd" stroke="#0b92fe" stroke-width=".1" d="M98 23h1v3h-1v2h-1v2h-1v-3h1v-2h1zm-2 7v2h-1v-2zm-1 2v2h-1v-2zm-1 2v2h-1v-2zm-1 2v3h-1v2h-1v-3h1v-2zm-2 5v2h-1v-2zm-1 2v2h-1v-2zm-1 2v2h-1v-2zm-1 2v2h-1v-2zm-1 2v3h-1v2h-1v-3h1v-2zm-2 5v2h-1v-2zm-1 2v2h-1v-2zm-1 2v2h-1v-2zm-1 2v3h-1v2h-1v2h-1v-3h1v-2h1v-2zm-3 7v2h-1v-2zm-1 2v2h-1v-2zm-1 2v2h-1v-2zm-1 2v3h-1v2h-1v-3h1v-2zm-2 5v2h-1v-2zm-1 2v2h-1v-2zm-1 2v2h-1v-2zm-1 2v2h-1v-2zm-1 2v1h-1v-1z"/><path fill="#3ae8de" fill-rule="evenodd" stroke="#3ae8de" stroke-width=".1" d="M4 24h1v1h-1z"/><path fill="#39e8e1" fill-rule="evenodd" stroke="#39e8e1" stroke-width=".1" d="M5 24h1v1h-1zm-1 2h1v1h-1zm-1 2h1v1h-1z"/><path fill="#32e2e9" fill-rule="evenodd" stroke="#32e2e9" stroke-width=".1" d="M8 24h1v1h-1zm-6 13h1v1h-1z"/><path fill="#2adcf4" fill-rule="evenodd" stroke="#2adcf4" stroke-width=".1" d="M12 24h1v1h-1zm-1 2h1v1h-1zm-1 2h1v1h-1zm-4 9h1v1h-1zm-1 2h1v1h-1zm-1 2h1v1h-1z"/><path fill="#1ecaff" fill-rule="evenodd" stroke="#1ecaff" stroke-width=".1" d="M32 24h1v1h-1zm0 2h1v3h-1v2h-1v2h-1v2h-1v2h-1v-3h1v-2h1v-2h1v-2h1zm-15 32h1v3h-1v2h-1v-3h1zm-1 5v3h-1v2h-1v2h-1v1h-1v-2h1v-2h1v-2h1v-2z"/><path fill="#0a90fd" fill-rule="evenodd" stroke="#0a90fd" stroke-width=".1" d="M99 24h1v1h-1zm0 2h1v1h-1z"/><path fill="#3debdc" fill-rule="evenodd" stroke="#3debdc" stroke-width=".1" d="M3 25h1v1h-1z"/><path fill="#3ae9df" fill-rule="evenodd" stroke="#3ae9df" stroke-width=".1" d="M4 25h1v1h-1zm-1 2h1v1h-1z"/><path fill="#38e7e3" fill-rule="evenodd" stroke="#38e7e3" stroke-width=".1" d="M5 25h1v1h-1z"/><path fill="#36e5e5" fill-rule="evenodd" stroke="#36e5e5" stroke-width=".1" d="M6 25h1v1h-1zm-1 2h1v1h-1zm-1 2h1v1h-1zm-1 2h1v1h-1z"/><path fill="#31e2eb" fill-rule="evenodd" stroke="#31e2eb" stroke-width=".1" d="M8 25h1v1h-1zm-5 11h1v1h-1zm-1 2h1v1h-1z"/><path fill="#2fe0ed" fill-rule="evenodd" stroke="#2fe0ed" stroke-width=".1" d="M9 25h1v1h-1zm-1 2h1v1h-1zm-5 11h1v1h-1z"/><path fill="#2bddf3" fill-rule="evenodd" stroke="#2bddf3" stroke-width=".1" d="M11 25h1v1h-1zm-1 2h1v1h-1zm-5 11h1v1h-1zm-1 2h1v1h-1z"/><path fill="#27daf8" fill-rule="evenodd" stroke="#27daf8" stroke-width=".1" d="M13 25h1v1h-1zm-6 13h1v1h-1z"/><path fill="#26d9f9" fill-rule="evenodd" stroke="#26d9f9" stroke-width=".1" d="M14 25h1v1h-1zm-1 2h1v1h-1zm-1 2h1v1h-1zm-4 9h1v1h-1zm-1 2h1v1h-1zm-1 2h1v1h-1z"/><path fill="#1ecbff" fill-rule="evenodd" stroke="#1ecbff" stroke-width=".1" d="M31 25h2v1h-1v2h-1v2h-1v-3h1zm-1 5v2h-1v-2zm-1 2v2h-1v-2zm-1 2v3h-1v-2h-1v-1zm-11 22h1v2h-1zm0 2v2h-1v-2zm-1 2v3h-1v2h-1v2h-1v-3h1v-2h1v-2zm-3 7v2h-1v-2z"/><path fill="#1dc9ff" fill-rule="evenodd" stroke="#1dc9ff" stroke-width=".1" d="M33 25h1v1h-1zm-1 6h1v1h-1zm-1 2h1v1h-1zm-16 35h1v1h-1zm-1 2h1v1h-1z"/><path fill="#0a91fd" fill-rule="evenodd" stroke="#0a91fd" stroke-width=".1" d="M99 25h1v1h-1zm-29 62h1v1h-1z"/><path fill="#3be9de" fill-rule="evenodd" stroke="#3be9de" stroke-width=".1" d="M3 26h1v1h-1zm-3 7h1v1h-1z"/><path fill="#37e6e4" fill-rule="evenodd" stroke="#37e6e4" stroke-width=".1" d="M5 26h1v1h-1zm-1 2h1v1h-1z"/><path fill="#35e4e6" fill-rule="evenodd" stroke="#35e4e6" stroke-width=".1" d="M6 26h1v1h-1zm-1 2h1v1h-1zm-1 2h1v1h-1z"/><path fill="#32e3e9" fill-rule="evenodd" stroke="#32e3e9" stroke-width=".1" d="M7 26h1v1h-1z"/><path fill="#2cddf1" fill-rule="evenodd" stroke="#2cddf1" stroke-width=".1" d="M10 26h1v1h-1z"/><path fill="#25d7fc" fill-rule="evenodd" stroke="#25d7fc" stroke-width=".1" d="M15 26h1v1h-1zm-6 13h1v1h-1z"/><path fill="#1ec9ff" fill-rule="evenodd" stroke="#1ec9ff" stroke-width=".1" d="M33 26h2v1h-1v2h-1zm0 3v2h-1v-2zm-1 2v2h-1v-2zm-1 2v3h-1v2h-1v1h-1v-1h-1v-1h2v-2h1v-2zm-13 24h1v5h-1v2h-1v2h-1v-3h1v-2h1zm-2 9v2h-1v-2zm-1 2v2h-1v-2zm-1 2v3h-1v-1h-1v-1h1v-1z"/><path fill="#15b3ff" fill-rule="evenodd" stroke="#15b3ff" stroke-width=".1" d="M59 26h1v1h-1zm-26 61h1v1h-1z"/><path fill="#0e9afd" fill-rule="evenodd" stroke="#0e9afd" stroke-width=".1" d="M88 26h1v1h-1z"/><path fill="#0b91fe" fill-rule="evenodd" stroke="#0b91fe" stroke-width=".1" d="M98 26h1v2h-1zm0 2v2h-1v-2zm-1 2v2h-1v-2zm-1 2v2h-1v-2zm-1 2v3h-1v2h-1v-3h1v-2zm-2 5v2h-1v-2zm-1 2v2h-1v-2zm-1 2v2h-1v-2zm-1 2v3h-1v2h-1v2h-1v-3h1v-2h1v-2zm-3 7v2h-1v-2zm-1 2v2h-1v-2zm-1 2v2h-1v-2zm-1 2v3h-1v2h-1v-3h1v-2zm-2 5v2h-1v-2zm-1 2v2h-1v-2zm-1 2v2h-1v-2zm-1 2v2h-1v-2zm-1 2v3h-1v2h-1v-3h1v-2zm-2 5v2h-1v-2zm-1 2v2h-1v-2zm-1 2v2h-1v-2zm-1 2v2h-1v-2zm-1 2v3h-2v-1h1v-2z"/><path fill="#3deadb" fill-rule="evenodd" stroke="#3deadb" stroke-width=".1" d="M2 27h1v1h-1z"/><path fill="#38e7e2" fill-rule="evenodd" stroke="#38e7e2" stroke-width=".1" d="M4 27h1v1h-1zm-1 2h1v1h-1zm-1 2h1v1h-1zm-1 2h1v1h-1z"/><path fill="#34e3e8" fill-rule="evenodd" stroke="#34e3e8" stroke-width=".1" d="M6 27h1v1h-1zm-5 11h1v1h-1zm-1 2h1v1h-1z"/><path fill="#29dbf5" fill-rule="evenodd" stroke="#29dbf5" stroke-width=".1" d="M11 27h1v1h-1zm-1 2h1v1h-1zm-5 11h1v1h-1zm-1 2h1v1h-1z"/><path fill="#28daf8" fill-rule="evenodd" stroke="#28daf8" stroke-width=".1" d="M12 27h1v1h-1zm-1 2h1v1h-1zm-5 11h1v1h-1z"/><path fill="#1dc8ff" fill-rule="evenodd" stroke="#1dc8ff" stroke-width=".1" d="M34 27h1v3h-1v2h-1v-3h1zm-1 5v3h-1v2h-1v2h-1v2h-1v-1h-1v-1h1v-1h1v-2h1v-2h1v-2zm-14 27h1v1h-1zm0 2h1v2h-1v2h-1v2h-1v2h-1v-3h1v-2h1v-2h1zm-3 8v3h-1v2h-1v-3h1v-2z"/><path fill="#0a8ffd" fill-rule="evenodd" stroke="#0a8ffd" stroke-width=".1" d="M99 27h1v1h-1zm-27 59h1v1h-1z"/><path fill="#3ceadd" fill-rule="evenodd" stroke="#3ceadd" stroke-width=".1" d="M2 28h1v1h-1z"/><path fill="#33e3e9" fill-rule="evenodd" stroke="#33e3e9" stroke-width=".1" d="M6 28h1v1h-1zm-1 2h1v1h-1zm-1 2h1v1h-1zm-3 7h1v1h-1z"/><path fill="#31e1ec" fill-rule="evenodd" stroke="#31e1ec" stroke-width=".1" d="M7 28h1v1h-1zm-1 2h1v1h-1zm-5 11h1v1h-1z"/><path fill="#2fdfee" fill-rule="evenodd" stroke="#2fdfee" stroke-width=".1" d="M8 28h1v1h-1zm-1 2h1v1h-1zm-5 11h1v1h-1z"/><path fill="#2cdef1" fill-rule="evenodd" stroke="#2cdef1" stroke-width=".1" d="M9 28h1v1h-1zm-5 11h1v1h-1zm-1 2h1v1h-1z"/><path fill="#20d3ff" fill-rule="evenodd" stroke="#20d3ff" stroke-width=".1" d="M19 28h1v1h-1zm-13 28h1v1h-1z"/><path fill="#1cc6ff" fill-rule="evenodd" stroke="#1cc6ff" stroke-width=".1" d="M35 28h1v1h-1zm1 3h1v1h-1zm-1 2h1v1h-1zm-1 2h1v1h-1zm-1 2h1v1h-1zm-1 2h1v2h-1zm-1 3h1v1h-1zm-11 24h1v1h-1zm-1 2h1v1h-1zm-1 2h1v1h-1zm-1 2h1v1h-1zm-1 2h1v1h-1zm-1 2h1v1h-1z"/><path fill="#0d98fd" fill-rule="evenodd" stroke="#0d98fd" stroke-width=".1" d="M88 28h1v2h-1zm-1 4h1v1h-1zm-19 42h1v1h-1z"/><path fill="#0a90fe" fill-rule="evenodd" stroke="#0a90fe" stroke-width=".1" d="M98 28h1v2h-1zm0 2v3h-1v2h-1v2h-1v-3h1v-2h1v-2zm-3 7v2h-1v-2zm-1 2v2h-1v-2zm-1 2v2h-1v-2zm-1 2v3h-1v2h-1v-3h1v-2zm-2 5v2h-1v-2zm-1 2v2h-1v-2zm-1 2v2h-1v-2zm-1 2v2h-1v-2zm-1 2v3h-1v2h-1v-3h1v-2zm-2 5v2h-1v-2zm-1 2v2h-1v-2zm-1 2v2h-1v-2zm-1 2v2h-1v-2zm-1 2v3h-1v2h-1v-3h1v-2zm-2 5v2h-1v-2zm-1 2v2h-1v-2zm-1 2v2h-1v-2zm-1 2v3h-1v2h-1v1h-1v-2h1v-2h1v-2z"/><path fill="#0a8efd" fill-rule="evenodd" stroke="#0a8efd" stroke-width=".1" d="M99 28h1v1h-1zm-24 56h1v1h-1z"/><path fill="#3cebdc" fill-rule="evenodd" stroke="#3cebdc" stroke-width=".1" d="M1 29h1v1h-1z"/><path fill="#3be9df" fill-rule="evenodd" stroke="#3be9df" stroke-width=".1" d="M2 29h1v1h-1zm-1 2h1v1h-1z"/><path fill="#34e4e8" fill-rule="evenodd" stroke="#34e4e8" stroke-width=".1" d="M5 29h1v1h-1z"/><path fill="#2edff0" fill-rule="evenodd" stroke="#2edff0" stroke-width=".1" d="M8 29h1v1h-1zm-6 13h1v1h-1z"/><path fill="#2bddf2" fill-rule="evenodd" stroke="#2bddf2" stroke-width=".1" d="M9 29h1v1h-1z"/><path fill="#22d5fd" fill-rule="evenodd" stroke="#22d5fd" stroke-width=".1" d="M15 29h1v1h-1z"/><path fill="#1fd0ff" fill-rule="evenodd" stroke="#1fd0ff" stroke-width=".1" d="M22 29h1v1h-1z"/><path fill="#1fcbff" fill-rule="evenodd" stroke="#1fcbff" stroke-width=".1" d="M29 29h1v1h-1zm-1 2h1v1h-1zm-2 4h1v1h-1zm-9 19h1v1h-1zm-1 3h1v1h-1zm-4 9h1v1h-1z"/><path fill="#1dc6ff" fill-rule="evenodd" stroke="#1dc6ff" stroke-width=".1" d="M35 29h1v1h-1zm0 2h1v2h-1zm0 2v2h-1v-2zm-1 2v2h-1v-2zm-2 3h1v1h-1zm-1 2h1v2h-1zm0 2v2h-1v-2zm-11 21h1v3h-1zm0 3v2h-1v-2zm-1 2v2h-1v-2zm-1 2v2h-1v-2zm-1 2v2h-1v-2zm-2 3h1v1h-1z"/><path fill="#098efd" fill-rule="evenodd" stroke="#098efd" stroke-width=".1" d="M99 29h1v1h-1zm-25 56h1v1h-1z"/><path fill="#3ceadc" fill-rule="evenodd" stroke="#3ceadc" stroke-width=".1" d="M1 30h1v1h-1z"/><path fill="#39e8e0" fill-rule="evenodd" stroke="#39e8e0" stroke-width=".1" d="M2 30h1v1h-1zm-2 4h1v1h-1z"/><path fill="#37e6e3" fill-rule="evenodd" stroke="#37e6e3" stroke-width=".1" d="M3 30h1v1h-1zm-1 2h1v1h-1zm-1 2h1v1h-1z"/><path fill="#28daf6" fill-rule="evenodd" stroke="#28daf6" stroke-width=".1" d="M10 30h1v1h-1zm-6 13h1v1h-1z"/><path fill="#24d7fa" fill-rule="evenodd" stroke="#24d7fa" stroke-width=".1" d="M13 30h1v1h-1zm-1 2h1v1h-1z"/><path fill="#1dc7ff" fill-rule="evenodd" stroke="#1dc7ff" stroke-width=".1" d="M34 30h2v1h-1v2h-1v2h-1v-3h1zm-1 5v3h-1v2h-1v2h-2v-1h1v-2h1v-2h1v-2zm-14 25h1v1h-1zm1 2h1v1h-1zm0 1v3h-1v2h-1v2h-1v2h-1v-3h1v-2h1v-2h1v-2zm-4 9v3h-1v1h-1v-2h1v-2z"/><path fill="#1cc5ff" fill-rule="evenodd" stroke="#1cc5ff" stroke-width=".1" d="M36 30h1v1h-1zm0 2h1v3h-1v2h-1v2h-1v2h-1v-3h1v-2h1v-2h1zm-3 9v3h-1v2h-1v-3h1v-2zm-13 26h2v1h-1v2h-1v2h-1v2h-1v2h-1v2h-1v-3h1v-2h1v-2h1v-2h1z"/><path fill="#0c99fd" fill-rule="evenodd" stroke="#0c99fd" stroke-width=".1" d="M88 30h1v1h-1zm-27 58h1v1h-1z"/><path fill="#0a8ffe" fill-rule="evenodd" stroke="#0a8ffe" stroke-width=".1" d="M98 30h1v3h-1zm0 3v2h-1v-2zm-1 2v2h-1v-2zm-1 2v2h-1v-2zm-1 2v2h-1v-2zm-1 2v3h-1v2h-1v-3h1v-2zm-2 5v2h-1v-2zm-1 2v2h-1v-2zm-1 2v2h-1v-2zm-1 2v2h-1v-2zm-1 2v3h-1v2h-1v-3h1v-2zm-2 5v2h-1v-2zm-1 2v2h-1v-2zm-1 2v2h-1v-2zm-1 2v3h-1v2h-1v2h-1v-3h1v-2h1v-2zm-3 7v2h-1v-2zm-1 2v2h-1v-2zm-1 2v2h-1v-2zm-1 2v3h-1v2h-1v-3h1v-2zm-2 5v2h-1v-2zm-1 2v1h-1v-1z"/><path fill="#098ffd" fill-rule="evenodd" stroke="#098ffd" stroke-width=".1" d="M99 30h1v1h-1z"/><path fill="#0a8dfd" fill-rule="evenodd" stroke="#0a8dfd" stroke-width=".1" d="M99 31h1v1h-1zm-1 3h1v1h-1z"/><path fill="#3ce9dd" fill-rule="evenodd" stroke="#3ce9dd" stroke-width=".1" d="M0 32h1v1h-1z"/><path fill="#3ae8e0" fill-rule="evenodd" stroke="#3ae8e0" stroke-width=".1" d="M1 32h1v1h-1z"/><path fill="#1ecdff" fill-rule="evenodd" stroke="#1ecdff" stroke-width=".1" d="M25 32h1v1h-1z"/><path fill="#1cc4ff" fill-rule="evenodd" stroke="#1cc4ff" stroke-width=".1" d="M37 33h1v3h-1v2h-1v2h-1v2h-1v2h-1v-3h1v-2h1v-2h1v-2h1zm-4 11v3h-1v1h-1v-2h1v-2zm-12 21h1v2h-1zm1 2h1v1h-1zm0 1v3h-1v2h-1v2h-1v2h-1v2h-2v-1h1v-2h1v-2h1v-2h1v-2h1v-2z"/><path fill="#15b2ff" fill-rule="evenodd" stroke="#15b2ff" stroke-width=".1" d="M57 33h1v1h-1zm-1 2h1v2h-1z"/><path fill="#0d97fd" fill-rule="evenodd" stroke="#0d97fd" stroke-width=".1" d="M87 33h1v1h-1zm-1 2h1v1h-1zm-16 38h1v1h-1zm0 1v1h-1v-1zm-8 14h2v1h-2z"/><path fill="#0a8efe" fill-rule="evenodd" stroke="#0a8efe" stroke-width=".1" d="M98 33h1v1h-1zm-1 2h1v2h-1zm0 2v2h-1v-2zm-1 2v3h-1v2h-1v-3h1v-2zm-2 5v2h-1v-2zm-1 2v2h-1v-2zm-1 2v2h-1v-2zm-1 2v3h-1v2h-1v2h-1v-3h1v-2h1v-2zm-3 7v2h-1v-2zm-1 2v2h-1v-2zm-1 2v2h-1v-2zm-1 2v3h-1v2h-1v-3h1v-2zm-2 5v2h-1v-2zm-1 2v2h-1v-2zm-1 2v2h-1v-2zm-1 2v2h-1v-2zm-1 2v3h-1v2h-1v-3h1v-2zm-2 5v2h-1v-2zm-1 2v1h-1v-1z"/><path fill="#24d6fa" fill-rule="evenodd" stroke="#24d6fa" stroke-width=".1" d="M11 34h1v1h-1z"/><path fill="#38e6e0" fill-rule="evenodd" stroke="#38e6e0" stroke-width=".1" d="M0 35h1v1h-1z"/><path fill="#2adcf5" fill-rule="evenodd" stroke="#2adcf5" stroke-width=".1" d="M7 35h1v1h-1z"/><path fill="#24d6fb" fill-rule="evenodd" stroke="#24d6fb" stroke-width=".1" d="M11 35h1v1h-1z"/><path fill="#098cfd" fill-rule="evenodd" stroke="#098cfd" stroke-width=".1" d="M98 35h1v1h-1zm-4 11h1v1h-1zm-1 3h1v1h-1zm-15 33h1v1h-1z"/><path fill="#37e6e2" fill-rule="evenodd" stroke="#37e6e2" stroke-width=".1" d="M0 36h1v1h-1z"/><path fill="#1cc3ff" fill-rule="evenodd" stroke="#1cc3ff" stroke-width=".1" d="M37 36h1v1h-1zm-1 2h1v1h-1zm-1 2h1v1h-1zm-1 2h1v1h-1zm-1 2h1v2h-1zm-1 3h1v1h-1zm-10 21h1v1h-1zm-1 3h1v1h-1zm-1 2h1v1h-1zm-1 2h1v1h-1zm-1 2h1v1h-1z"/><path fill="#1bc2ff" fill-rule="evenodd" stroke="#1bc2ff" stroke-width=".1" d="M38 36h1v4h-1v2h-1v2h-1v2h-1v2h-1v2h-1v-3h1v-2h1v-2h1v-2h1v-2h1zm-5 14v1h-1v-1zm-11 21h2v1h-1v2h-1zm0 3v3h-1v2h-1v2h-1v-3h1v-2h1v-2z"/><path fill="#1bc3ff" fill-rule="evenodd" stroke="#1bc3ff" stroke-width=".1" d="M37 37h1v2h-1zm0 2v2h-1v-2zm-1 2v2h-1v-2zm-1 2v2h-1v-2zm-2 3h1v1h-1zm-1 2h1v1h-1zm-10 21h1v2h-1zm-1 3h1v2h-1zm0 2v2h-1v-2zm-1 2v2h-1v-2zm-1 2v2h-1v-2z"/><path fill="#098dfd" fill-rule="evenodd" stroke="#098dfd" stroke-width=".1" d="M97 37h1v1h-1z"/><path fill="#22d6fd" fill-rule="evenodd" stroke="#22d6fd" stroke-width=".1" d="M11 38h1v1h-1z"/><path fill="#1ac0ff" fill-rule="evenodd" stroke="#1ac0ff" stroke-width=".1" d="M39 38h1v1h-1zm0 3h1v2h-1zm0 2v3h-1v2h-1v2h-1v2h-1v-3h1v-2h1v-2h1v-2zm-4 9v2h-1v-2zm-10 20h1v2h-1v2h-1v-3h1zm-1 4v2h-1v-2zm-1 2v2h-1v-2zm-1 2v2h-1v-2z"/><path fill="#088cfd" fill-rule="evenodd" stroke="#088cfd" stroke-width=".1" d="M97 38h1v1h-1zm-2 5h1v1h-1zm-2 7h1v1h-1z"/><path fill="#34e4e5" fill-rule="evenodd" stroke="#34e4e5" stroke-width=".1" d="M0 39h1v1h-1z"/><path fill="#1bc0ff" fill-rule="evenodd" stroke="#1bc0ff" stroke-width=".1" d="M39 39h1v2h-1zm-5 12h1v1h-1zm0 1v1h-1v-1zm-11 23h1v1h-1zm-1 2h1v1h-1zm-1 2h1v1h-1z"/><path fill="#098dfe" fill-rule="evenodd" stroke="#098dfe" stroke-width=".1" d="M96 39h1v1h-1zm-1 3h1v1h-1zm-1 2h1v2h-1zm0 2v2h-1v-2zm-1 2v3h-1v2h-1v-3h1v-2zm-2 5v2h-1v-2zm-1 2v2h-1v-2zm-1 2v2h-1v-2zm-1 2v2h-1v-2zm-1 2v3h-1v2h-1v-3h1v-2zm-2 5v2h-1v-2zm-1 2v2h-1v-2zm-1 2v2h-1v-2zm-1 2v3h-1v2h-1v2h-1v-3h1v-2h1v-2zm-3 7v2h-1v-2zm-1 2v2h-1v-2zm-1 2v1h-1v-1z"/><path fill="#1cc7ff" fill-rule="evenodd" stroke="#1cc7ff" stroke-width=".1" d="M28 40h1v1h-1zm1 2h1v1h-1zm-16 31h1v1h-1z"/><path fill="#1bc1ff" fill-rule="evenodd" stroke="#1bc1ff" stroke-width=".1" d="M38 40h1v3h-1v2h-1v2h-1v2h-1v2h-1v1h-1v-2h1v-2h1v-2h1v-2h1v-2h1zm-15 30h1v1h-1zm0 2h2v1h-1v2h-1v2h-1v-3h1zm-1 5v2h-1v-2zm-1 2v3h-1v-3z"/><path fill="#0d96fd" fill-rule="evenodd" stroke="#0d96fd" stroke-width=".1" d="M85 40h1v1h-1zm-1 3h1v1h-1zm-1 2h1v1h-1z"/><path fill="#088dfd" fill-rule="evenodd" stroke="#088dfd" stroke-width=".1" d="M96 40h1v2h-1z"/><path fill="#22d3ff" fill-rule="evenodd" stroke="#22d3ff" stroke-width=".1" d="M12 41h1v1h-1z"/><path fill="#19beff" fill-rule="evenodd" stroke="#19beff" stroke-width=".1" d="M40 41h1v1h-1zm1 2h1v1h-1z"/><path fill="#1abeff" fill-rule="evenodd" stroke="#1abeff" stroke-width=".1" d="M40 42h1v1h-1zm0 2h1v2h-1zm0 2v2h-1v-2zm-1 2v3h-1v2h-1v-3h1v-2zm-2 5v2h-1v-2zm-1 2v2h-1v-2zm-10 19h2v1h-1v2h-1v2h-1v-3h1zm-1 5v2h-1v-2zm-1 2v2h-1v-2zm-1 2v1h-2v-1z"/><path fill="#2edeee" fill-rule="evenodd" stroke="#2edeee" stroke-width=".1" d="M1 43h1v1h-1z"/><path fill="#1abfff" fill-rule="evenodd" stroke="#1abfff" stroke-width=".1" d="M39 43h2v1h-1v2h-1zm0 3v2h-1v-2zm-1 2v2h-1v-2zm-1 2v3h-1v2h-2v-1h1v-2h1v-2zm-12 24h1v2h-1zm0 2v3h-1v2h-1v2h-3v-1h2v-2h1v-2h1v-2z"/><path fill="#1bc5ff" fill-rule="evenodd" stroke="#1bc5ff" stroke-width=".1" d="M30 44h1v2h-1z"/><path fill="#18bdff" fill-rule="evenodd" stroke="#18bdff" stroke-width=".1" d="M41 44h1v1h-1zm-6 14h1v1h-1z"/><path fill="#098bfd" fill-rule="evenodd" stroke="#098bfd" stroke-width=".1" d="M95 44h1v1h-1zm-1 3h1v1h-1zm-2 5h1v1h-1zm-1 3h1v1h-1zm-1 3h1v1h-1zm-13 25h1v1h-1z"/><path fill="#2adcf2" fill-rule="evenodd" stroke="#2adcf2" stroke-width=".1" d="M2 45h1v1h-1z"/><path fill="#19bdff" fill-rule="evenodd" stroke="#19bdff" stroke-width=".1" d="M41 45h1v1h-1zm0 1v3h-1v2h-1v-3h1v-2zm-2 5v2h-1v-2zm-1 2v2h-1v-2zm-1 2v2h-1v-2zm-10 20h1v2h-1zm0 2v2h-1v-2zm-1 2v2h-1v-2zm-1 2v2h-1v-2zm-1 2v1h-1v-1z"/><path fill="#2adaf4" fill-rule="evenodd" stroke="#2adaf4" stroke-width=".1" d="M2 46h1v1h-1z"/><path fill="#1fd1ff" fill-rule="evenodd" stroke="#1fd1ff" stroke-width=".1" d="M14 46h1v1h-1z"/><path fill="#19bcff" fill-rule="evenodd" stroke="#19bcff" stroke-width=".1" d="M41 46h1v3h-1zm0 3v2h-1v-2zm-1 2v2h-1v-2zm-1 2v2h-1v-2zm-1 2v3h-1v2h-1v-3h1v-2zm-10 21h1v1h-1zm0 1v2h-1v-2zm-1 2v2h-1v-2zm-1 2v3h-1v1h-1v-2h1v-2z"/><path fill="#18bbff" fill-rule="evenodd" stroke="#18bbff" stroke-width=".1" d="M42 46h1v1h-1zm-18 39h1v1h-1z"/><path fill="#16b1ff" fill-rule="evenodd" stroke="#16b1ff" stroke-width=".1" d="M53 46h1v1h-1zm-1 2h1v1h-1z"/><path fill="#0b96fd" fill-rule="evenodd" stroke="#0b96fd" stroke-width=".1" d="M83 46h1v1h-1zm-1 3h1v1h-1zm-1 2h1v1h-1zm-1 3h1v1h-1zm-16 34h1v1h-1z"/><path fill="#18baff" fill-rule="evenodd" stroke="#18baff" stroke-width=".1" d="M42 47h1v1h-1zm0 2h1v2h-1zm0 2v3h-1v2h-1v-3h1v-2zm-2 5v2h-1v-2zm-1 2v2h-1v-2zm-1 2v2h-1v-2zm-8 16h1v2h-1v2h-1v-3h1zm-1 4v2h-1v-2zm-1 2v2h-1v-2zm-1 2v2h-1v-2z"/><path fill="#27d8f9" fill-rule="evenodd" stroke="#27d8f9" stroke-width=".1" d="M3 48h1v1h-1z"/><path fill="#19bbff" fill-rule="evenodd" stroke="#19bbff" stroke-width=".1" d="M42 48h1v1h-1zm0 1v2h-1v-2zm-1 2v2h-1v-2zm-1 2v3h-1v2h-1v-3h1v-2zm-2 5v2h-1v-2zm-1 2v1h-1v-1zm-9 15h2v2h-1v-1h-1zm1 2v3h-1v2h-1v2h-1v-3h1v-2h1v-2zm-3 7v1h-1v-1z"/><path fill="#11a6ff" fill-rule="evenodd" stroke="#11a6ff" stroke-width=".1" d="M64 48h1v1h-1zm-1 3h1v1h-1zm-1 2h1v2h-1zm-10 24h1v1h-1zm-3 4h1v1h-1z"/><path fill="#098cfe" fill-rule="evenodd" stroke="#098cfe" stroke-width=".1" d="M93 48h1v1h-1zm-1 3h1v1h-1zm-1 2h1v2h-1zm0 2v2h-1v-2zm-1 2v3h-1v2h-1v2h-1v-3h1v-2h1v-2zm-3 7v2h-1v-2zm-1 2v2h-1v-2zm-1 2v2h-1v-2zm-1 2v3h-1v2h-1v-3h1v-2zm-2 5v2h-1v-2zm-1 2v2h-1v-2zm-1 2v2h-1v-2zm-1 2v1h-1v-1z"/><path fill="#1ac2ff" fill-rule="evenodd" stroke="#1ac2ff" stroke-width=".1" d="M32 49h1v1h-1zm-14 31h1v1h-1z"/><path fill="#17b9ff" fill-rule="evenodd" stroke="#17b9ff" stroke-width=".1" d="M43 49h1v1h-1z"/><path fill="#25d6fb" fill-rule="evenodd" stroke="#25d6fb" stroke-width=".1" d="M4 50h1v1h-1z"/><path fill="#18b9ff" fill-rule="evenodd" stroke="#18b9ff" stroke-width=".1" d="M43 50h1v2h-1v2h-1v-3h1zm-1 4v2h-1v-2zm-1 2v2h-1v-2zm-1 2v2h-1v-2zm-1 2v3h-1v-3zm-8 17h1v1h-1zm0 1v2h-1v-2zm-1 2v2h-1v-2zm-1 2v2h-1v-2zm-1 2v2h-1v-2z"/><path fill="#18b8ff" fill-rule="evenodd" stroke="#18b8ff" stroke-width=".1" d="M43 52h1v1h-1zm-1 2h1v2h-1zm0 2v2h-1v-2zm-1 2v3h-1v2h-1v-3h1v-2zm-4 4h1v1h1v2h-1v-1h-1zm-5 15h1v1h-1zm0 1v2h-1v-2zm-1 2v2h-1v-2zm-1 2v3h-1v1h-1v-2h1v-2zm-2 4v1h-1v-1z"/><path fill="#0b95fd" fill-rule="evenodd" stroke="#0b95fd" stroke-width=".1" d="M81 52h1v1h-1zm-3 9h1v1h-1zm-5 9h1v1h-1z"/><path fill="#1bbfff" fill-rule="evenodd" stroke="#1bbfff" stroke-width=".1" d="M33 53h1v1h-1z"/><path fill="#18b7ff" fill-rule="evenodd" stroke="#18b7ff" stroke-width=".1" d="M43 53h1v1h-1zm-11 23h1v1h-1zm-4 10h1v1h-1z"/><path fill="#088bfd" fill-rule="evenodd" stroke="#088bfd" stroke-width=".1" d="M92 53h1v1h-1z"/><path fill="#16b7ff" fill-rule="evenodd" stroke="#16b7ff" stroke-width=".1" d="M43 54h1v1h-1z"/><path fill="#1fcaff" fill-rule="evenodd" stroke="#1fcaff" stroke-width=".1" d="M17 55h1v1h-1zm-6 13h1v1h-1z"/><path fill="#19bfff" fill-rule="evenodd" stroke="#19bfff" stroke-width=".1" d="M34 55h1v1h-1zm-8 18h1v1h-1z"/><path fill="#14b0ff" fill-rule="evenodd" stroke="#14b0ff" stroke-width=".1" d="M50 55h1v1h-1zm-3 9h1v1h-1zm-3 6h1v1h-1zm0 1v1h-1v-1zm-1 1v1h-1v-1z"/><path fill="#0c94fd" fill-rule="evenodd" stroke="#0c94fd" stroke-width=".1" d="M80 55h1v1h-1zm-3 9h1v1h-1zm0 1v1h-1v-1zm-4 6h1v1h-1zm-8 17h2v1h-2z"/><path fill="#17b6ff" fill-rule="evenodd" stroke="#17b6ff" stroke-width=".1" d="M42 56h1v1h-1zm-2 5h1v1h-1zm-1 2h1v1h-1zm-1 2h1v1h-1zm-4 12h1v1h-1zm0 1v3h-1v2h-1v-3h1v-2zm-2 5v2h-1v-2zm-1 2v2h-1v-2z"/><path fill="#12a5ff" fill-rule="evenodd" stroke="#12a5ff" stroke-width=".1" d="M61 56h1v1h-1zm-11 24h1v1h-1z"/><path fill="#098afd" fill-rule="evenodd" stroke="#098afd" stroke-width=".1" d="M91 56h1v1h-1zm-1 3h1v1h-1zm-1 2h1v1h-1zm-9 19h1v1h-1z"/><path fill="#18bcff" fill-rule="evenodd" stroke="#18bcff" stroke-width=".1" d="M35 57h1v1h-1zm-12 27h1v1h-1z"/><path fill="#17b7ff" fill-rule="evenodd" stroke="#17b7ff" stroke-width=".1" d="M42 57h1v1h-1zm0 1v2h-1v-2zm-9 19h1v1h-1zm0 1v2h-1v-2zm-1 2v3h-1v2h-1v-3h1v-2zm-2 5v2h-1v-2z"/><path fill="#0b94fd" fill-rule="evenodd" stroke="#0b94fd" stroke-width=".1" d="M79 57h1v2h-1zm-2 6h1v1h-1zm-2 4h1v1h-1z"/><path fill="#098bfe" fill-rule="evenodd" stroke="#098bfe" stroke-width=".1" d="M90 57h1v1h-1zm-1 3h1v1h-1zm-1 2h1v2h-1zm0 2v2h-1v-2zm-1 2v2h-1v-2zm-1 2v3h-1v2h-1v-3h1v-2zm-2 5v2h-1v-2zm-1 2v2h-1v-2zm-1 2v2h-1v-2zm-1 2v1h-1v-1z"/><path fill="#14afff" fill-rule="evenodd" stroke="#14afff" stroke-width=".1" d="M49 58h1v2h-1zm-3 8h1v1h-1z"/><path fill="#21d0ff" fill-rule="evenodd" stroke="#21d0ff" stroke-width=".1" d="M7 59h1v1h-1z"/><path fill="#078afd" fill-rule="evenodd" stroke="#078afd" stroke-width=".1" d="M89 62h1v1h-1z"/><path fill="#10a4ff" fill-rule="evenodd" stroke="#10a4ff" stroke-width=".1" d="M59 63h1v1h-1zm-6 13h1v1h-1z"/><path fill="#088afe" fill-rule="evenodd" stroke="#088afe" stroke-width=".1" d="M88 64h1v1h-1zm-1 2h1v1h-1zm-1 2h1v2h-1zm-1 3h1v1h-1zm-1 2h1v1h-1zm-1 2h1v1h-1z"/><path fill="#0889fd" fill-rule="evenodd" stroke="#0889fd" stroke-width=".1" d="M88 65h1v1h-1zm-1 2h1v1h-1zm-2 5h1v2h-1zm0 2v1h-1v-1zm-2 2h1v1h-1zm0 1v1h-1v-1z"/><path fill="#0c93fd" fill-rule="evenodd" stroke="#0c93fd" stroke-width=".1" d="M75 68h1v1h-1z"/><path fill="#0789fd" fill-rule="evenodd" stroke="#0789fd" stroke-width=".1" d="M87 68h1v1h-1zm-1 3h1v1h-1zm-5 8h1v1h-1z"/><path fill="#1dcbff" fill-rule="evenodd" stroke="#1dcbff" stroke-width=".1" d="M11 69h1v1h-1z"/><path fill="#1ac1ff" fill-rule="evenodd" stroke="#1ac1ff" stroke-width=".1" d="M23 69h1v1h-1zm1 2h1v1h-1zm-5 10h1v1h-1z"/><path fill="#088afd" fill-rule="evenodd" stroke="#088afd" stroke-width=".1" d="M86 70h1v1h-1zm-7 11h1v1h-1z"/><path fill="#17b8ff" fill-rule="evenodd" stroke="#17b8ff" stroke-width=".1" d="M31 76h1v1h-1z"/><path fill="#16b6ff" fill-rule="evenodd" stroke="#16b6ff" stroke-width=".1" d="M33 76h1v1h-1z"/><path fill="#1bc6ff" fill-rule="evenodd" stroke="#1bc6ff" stroke-width=".1" d="M15 77h1v1h-1z"/><path fill="#1cc2ff" fill-rule="evenodd" stroke="#1cc2ff" stroke-width=".1" d="M17 79h1v1h-1z"/><path fill="#0f9cfd" fill-rule="evenodd" stroke="#0f9cfd" stroke-width=".1" d="M61 79h1v1h-1zm-3 5h1v1h-1zm-1 3h1v1h-1z"/><path fill="#19baff" fill-rule="evenodd" stroke="#19baff" stroke-width=".1" d="M25 85h1v1h-1z"/><path fill="#12abff" fill-rule="evenodd" stroke="#12abff" stroke-width=".1" d="M42 85h1v1h-1z"/><path fill="#13adff" fill-rule="evenodd" stroke="#13adff" stroke-width=".1" d="M39 86h1v1h-1z"/><path fill="#0e9efd" fill-rule="evenodd" stroke="#0e9efd" stroke-width=".1" d="M56 86h1v1h-1z"/></svg>