<svg xmlns="http://www.w3.org/2000/svg" viewBox="0 0 100 100" width="1em" height="1em"><path fill="#000000" d="M49 0h1v1h-1zM48 1h3v1h-3zM47 2h1v1h-1zM51 2h1v1h-1zM46 3h1v1h-1zM52 3h1v1h-1zM9 4h34v1h-34zM45 4h1v1h-1zM53 4h1v1h-1zM61 4h35v1h-35zM8 5h37v1h-37zM54 5h1v1h-1zM60 5h37v1h-37zM7 6h3v1h-3zM43 6h2v1h-2zM55 6h1v1h-1zM59 6h4v1h-4zM95 6h3v1h-3zM6 7h3v1h-3zM44 7h1v1h-1zM56 7h1v1h-1zM59 7h3v1h-3zM96 7h3v1h-3zM6 8h2v1h-2zM44 8h2v1h-2zM57 8h1v1h-1zM59 8h2v1h-2zM97 8h2v1h-2zM6 9h2v1h-2zM44 9h2v1h-2zM58 9h3v1h-3zM97 9h2v1h-2zM6 10h2v1h-2zM44 10h2v1h-2zM59 10h2v1h-2zM97 10h2v1h-2zM6 11h2v1h-2zM44 11h2v1h-2zM59 11h2v1h-2zM97 11h2v1h-2zM6 12h2v1h-2zM44 12h2v1h-2zM59 12h2v1h-2zM97 12h2v1h-2zM6 13h2v1h-2zM44 13h2v1h-2zM59 13h2v1h-2zM97 13h2v1h-2zM6 14h2v1h-2zM44 14h2v1h-2zM59 14h2v1h-2zM96 14h3v1h-3zM6 15h3v1h-3zM43 15h2v1h-2zM60 15h2v1h-2zM96 15h2v1h-2zM7 16h7v1h-7zM39 16h5v1h-5zM61 16h5v1h-5zM95 16h2v1h-2zM8 17h6v1h-6zM39 17h4v1h-4zM62 17h3v1h-3zM94 17h2v1h-2zM11 18h3v1h-3zM39 18h2v1h-2zM62 18h2v1h-2zM93 18h2v1h-2zM12 19h2v1h-2zM39 19h2v1h-2zM62 19h1v1h-1zM92 19h2v1h-2zM12 20h2v1h-2zM39 20h2v1h-2zM61 20h1v1h-1zM91 20h2v1h-2zM12 21h2v1h-2zM39 21h2v1h-2zM60 21h1v1h-1zM90 21h2v1h-2zM12 22h2v1h-2zM39 22h2v1h-2zM59 22h1v1h-1zM89 22h2v1h-2zM12 23h2v1h-2zM39 23h2v1h-2zM58 23h1v1h-1zM88 23h2v1h-2zM12 24h2v1h-2zM39 24h2v1h-2zM56 24h2v1h-2zM87 24h2v1h-2zM12 25h2v1h-2zM39 25h2v1h-2zM55 25h2v1h-2zM86 25h2v1h-2zM12 26h2v1h-2zM39 26h2v1h-2zM54 26h2v1h-2zM85 26h2v1h-2zM12 27h2v1h-2zM39 27h2v1h-2zM53 27h2v1h-2zM84 27h2v1h-2zM12 28h2v1h-2zM39 28h2v1h-2zM52 28h2v1h-2zM83 28h2v1h-2zM12 29h2v1h-2zM39 29h2v1h-2zM51 29h2v1h-2zM82 29h2v1h-2zM12 30h2v1h-2zM39 30h2v1h-2zM50 30h2v1h-2zM81 30h2v1h-2zM12 31h2v1h-2zM39 31h2v1h-2zM49 31h2v1h-2zM80 31h2v1h-2zM12 32h2v1h-2zM39 32h2v1h-2zM48 32h2v1h-2zM79 32h3v1h-3zM12 33h2v1h-2zM39 33h2v1h-2zM47 33h2v1h-2zM78 33h2v1h-2zM82 33h1v1h-1zM12 34h2v1h-2zM39 34h2v1h-2zM46 34h2v1h-2zM77 34h2v1h-2zM83 34h1v1h-1zM12 35h2v1h-2zM39 35h2v1h-2zM45 35h2v1h-2zM76 35h2v1h-2zM84 35h1v1h-1zM12 36h2v1h-2zM39 36h2v1h-2zM44 36h2v1h-2zM75 36h2v1h-2zM85 36h1v1h-1zM12 37h2v1h-2zM39 37h2v1h-2zM43 37h2v1h-2zM74 37h2v1h-2zM86 37h1v1h-1zM11 38h3v1h-3zM39 38h2v1h-2zM42 38h2v1h-2zM73 38h2v1h-2zM87 38h1v1h-1zM10 39h4v1h-4zM39 39h4v1h-4zM72 39h2v1h-2zM88 39h1v1h-1zM9 40h2v1h-2zM12 40h2v1h-2zM39 40h3v1h-3zM71 40h2v1h-2zM89 40h1v1h-1zM8 41h2v1h-2zM12 41h2v1h-2zM39 41h2v1h-2zM70 41h2v1h-2zM90 41h1v1h-1zM7 42h2v1h-2zM12 42h2v1h-2zM39 42h1v1h-1zM69 42h2v1h-2zM91 42h1v1h-1zM6 43h2v1h-2zM12 43h2v1h-2zM68 43h2v1h-2zM92 43h1v1h-1zM5 44h2v1h-2zM12 44h2v1h-2zM67 44h2v1h-2zM93 44h1v1h-1zM4 45h2v1h-2zM12 45h2v1h-2zM66 45h2v1h-2zM94 45h1v1h-1zM3 46h2v1h-2zM12 46h2v1h-2zM65 46h2v1h-2zM95 46h1v1h-1zM2 47h2v1h-2zM12 47h2v1h-2zM64 47h2v1h-2zM96 47h1v1h-1zM1 48h2v1h-2zM12 48h2v1h-2zM63 48h2v1h-2zM97 48h1v1h-1zM0 49h2v1h-2zM12 49h2v1h-2zM62 49h2v1h-2zM97 49h2v1h-2zM1 50h1v1h-1zM12 50h2v1h-2zM61 50h2v1h-2zM2 51h1v1h-1zM12 51h2v1h-2zM60 51h2v1h-2zM3 52h1v1h-1zM12 52h2v1h-2zM59 52h2v1h-2zM4 53h1v1h-1zM12 53h2v1h-2zM58 53h2v1h-2zM5 54h1v1h-1zM12 54h2v1h-2zM57 54h2v1h-2zM6 55h1v1h-1zM12 55h2v1h-2zM57 55h1v1h-1zM7 56h1v1h-1zM12 56h2v1h-2zM57 56h1v1h-1zM8 57h1v1h-1zM12 57h2v1h-2zM57 57h1v1h-1zM9 58h1v1h-1zM12 58h2v1h-2zM49 58h1v1h-1zM10 59h1v1h-1zM12 59h2v1h-2zM11 60h3v1h-3zM11 61h3v1h-3zM12 62h2v1h-2zM49 62h1v1h-1zM12 63h2v1h-2zM49 63h1v1h-1zM12 64h2v1h-2zM48 64h1v1h-1zM12 65h2v1h-2zM47 65h2v1h-2zM12 66h2v1h-2zM72 66h1v1h-1zM84 66h1v1h-1zM91 66h1v1h-1zM12 67h2v1h-2zM43 67h1v1h-1zM83 67h1v1h-1zM92 67h1v1h-1zM12 68h2v1h-2zM68 68h3v1h-3zM80 68h3v1h-3zM93 68h1v1h-1zM12 69h2v1h-2zM43 69h3v1h-3zM58 69h1v1h-1zM93 69h1v1h-1zM12 70h2v1h-2zM42 70h2v1h-2zM45 70h1v1h-1zM92 70h1v1h-1zM12 71h2v1h-2zM41 71h2v1h-2zM92 71h1v1h-1zM12 72h2v1h-2zM40 72h2v1h-2zM92 72h1v1h-1zM12 73h2v1h-2zM39 73h2v1h-2zM44 73h1v1h-1zM78 73h6v1h-6zM12 74h2v1h-2zM38 74h2v1h-2zM78 74h1v1h-1zM83 74h1v1h-1zM91 74h1v1h-1zM12 75h2v1h-2zM37 75h2v1h-2zM51 75h1v1h-1zM64 75h1v1h-1zM70 75h1v1h-1zM83 75h1v1h-1zM91 75h1v1h-1zM12 76h2v1h-2zM36 76h2v1h-2zM77 76h1v1h-1zM12 77h2v1h-2zM35 77h2v1h-2zM77 77h1v1h-1zM82 77h1v1h-1zM90 77h1v1h-1zM12 78h2v1h-2zM34 78h2v1h-2zM50 78h1v1h-1zM63 78h1v1h-1zM69 78h1v1h-1zM77 78h1v1h-1zM82 78h1v1h-1zM90 78h1v1h-1zM12 79h2v1h-2zM33 79h2v1h-2zM76 79h1v1h-1zM90 79h1v1h-1zM12 80h2v1h-2zM32 80h2v1h-2zM68 80h1v1h-1zM76 80h1v1h-1zM81 80h1v1h-1zM89 80h1v1h-1zM12 81h2v1h-2zM31 81h2v1h-2zM49 81h1v1h-1zM62 81h1v1h-1zM68 81h1v1h-1zM76 81h1v1h-1zM81 81h1v1h-1zM89 81h1v1h-1zM12 82h2v1h-2zM30 82h4v1h-4zM75 82h1v1h-1zM89 82h1v1h-1zM12 83h2v1h-2zM29 83h3v1h-3zM34 83h1v1h-1zM67 83h1v1h-1zM75 83h1v1h-1zM80 83h1v1h-1zM88 83h1v1h-1zM12 84h2v1h-2zM28 84h3v1h-3zM35 84h1v1h-1zM40 84h1v1h-1zM48 84h2v1h-2zM61 84h2v1h-2zM67 84h1v1h-1zM75 84h2v1h-2zM80 84h1v1h-1zM88 84h2v1h-2zM12 85h2v1h-2zM27 85h3v1h-3zM36 85h1v1h-1zM50 85h1v1h-1zM63 85h1v1h-1zM67 85h1v1h-1zM76 85h1v1h-1zM90 85h1v1h-1zM12 86h3v1h-3zM26 86h3v1h-3zM37 86h1v1h-1zM66 86h1v1h-1zM76 86h1v1h-1zM79 86h1v1h-1zM12 87h4v1h-4zM25 87h3v1h-3zM38 87h1v1h-1zM54 87h9v1h-9zM67 87h9v1h-9zM80 87h10v1h-10zM14 88h13v1h-13zM39 88h1v1h-1zM15 89h11v1h-11zM40 89h1v1h-1zM41 90h1v1h-1zM42 91h1v1h-1zM43 92h1v1h-1zM44 93h1v1h-1zM45 94h1v1h-1zM46 95h1v1h-1zM47 96h1v1h-1zM48 97h2v1h-2zM49 98h1v1h-1z" /><path fill="#000100" d="M48 2h1v1h-1zM47 3h1v1h-1zM46 4h1v1h-1zM45 5h1v1h-1zM61 19h1v1h-1zM60 20h1v1h-1zM59 21h1v1h-1zM58 22h1v1h-1zM57 23h1v1h-1zM50 63h1v1h-1zM49 64h1v1h-1zM79 67h2v1h-2zM70 73h1v1h-1zM68 79h1v1h-1zM67 80h1v1h-1zM66 81h1v1h-1zM65 82h1v1h-1zM64 83h1v1h-1zM63 84h1v1h-1zM59 88h1v1h-1zM58 89h1v1h-1zM57 90h1v1h-1zM56 91h1v1h-1zM55 92h1v1h-1zM54 93h1v1h-1zM53 94h1v1h-1zM52 95h1v1h-1z" /><path fill="#164413" d="M49 2h1v1h-1z" /><path fill="#030c00" d="M50 2h1v1h-1zM53 5h1v1h-1zM54 6h1v1h-1zM55 7h1v1h-1zM56 8h1v1h-1zM57 9h1v1h-1z" /><path fill="#3a9156" d="M48 3h1v1h-1z" /><path fill="#32942e" d="M49 3h1v1h-1zM49 4h1v1h-1z" /><path fill="#3ad702" d="M50 3h1v1h-1zM51 4h1v1h-1zM52 5h1v1h-1zM53 6h1v1h-1zM54 7h1v1h-1zM55 8h1v1h-1zM56 9h1v1h-1zM57 10h1v1h-1z" /><path fill="#030d00" d="M51 3h1v1h-1zM52 4h1v1h-1z" /><path fill="#399055" d="M47 4h1v1h-1z" /><path fill="#66fe98" d="M48 4h1v1h-1zM47 5h2v1h-2zM46 6h2v1h-2zM10 42h1v1h-1zM9 43h2v1h-2zM8 44h2v1h-2zM7 45h2v1h-2zM6 46h2v1h-2zM5 47h2v1h-2zM4 48h2v1h-2z" /><path fill="#45fe02" d="M50 4h1v1h-1zM51 5h1v1h-1zM52 6h1v1h-1zM53 7h1v1h-1zM54 8h1v1h-1zM55 9h1v1h-1zM56 10h1v1h-1zM57 11h1v1h-1zM81 35h1v1h-1zM82 36h1v1h-1zM83 37h1v1h-1zM84 38h1v1h-1zM85 39h1v1h-1zM86 40h1v1h-1zM87 41h1v1h-1zM88 42h1v1h-1zM89 43h1v1h-1zM90 44h1v1h-1zM91 45h1v1h-1zM92 46h1v1h-1zM93 47h1v1h-1zM94 48h1v1h-1z" /><path fill="#399257" d="M46 5h1v1h-1z" /><path fill="#24712a" d="M49 5h1v1h-1z" /><path fill="#3bdc02" d="M50 5h1v1h-1z" /><path fill="#393939" d="M10 6h1v1h-1zM63 15h1v1h-1zM84 67h1v1h-1zM63 76h1v1h-1zM40 86h1v1h-1z" /><path fill="#4b4b4b" d="M11 6h30v1h-30zM12 15h2v1h-2zM81 25h1v1h-1zM38 70h1v1h-1zM50 76h1v1h-1zM74 83h1v1h-1z" /><path fill="#474747" d="M41 6h1v1h-1zM87 22h1v1h-1zM67 40h1v1h-1zM37 71h1v1h-1zM49 79h1v1h-1zM61 82h1v1h-1z" /><path fill="#060606" d="M42 6h1v1h-1zM86 24h1v1h-1zM82 79h1v1h-1z" /><path fill="#255c36" d="M45 6h1v1h-1z" /><path fill="#32884e" d="M48 6h1v1h-1z" /><path fill="#028a2e" d="M49 6h1v1h-1zM48 7h1v1h-1z" /><path fill="#0d7a1a" d="M50 6h1v1h-1zM51 7h1v1h-1z" /><path fill="#3bdb03" d="M51 6h1v1h-1zM52 7h1v1h-1z" /><path fill="#282828" d="M63 6h1v1h-1zM61 8h1v1h-1zM59 51h1v1h-1zM58 52h1v1h-1zM57 53h1v1h-1zM91 67h1v1h-1zM67 68h1v1h-1z" /><path fill="#323232" d="M64 6h30v1h-30zM64 73h1v1h-1z" /><path fill="#1f1f1f" d="M94 6h1v1h-1zM56 26h1v1h-1zM55 27h1v1h-1zM54 28h1v1h-1zM53 29h1v1h-1zM52 30h1v1h-1zM51 31h1v1h-1zM64 46h1v1h-1zM63 47h1v1h-1zM56 59h1v1h-1zM45 65h1v1h-1zM44 74h1v1h-1zM75 86h1v1h-1z" /><path fill="#505050" d="M9 7h1v1h-1zM84 25h1v1h-1zM83 26h1v1h-1zM70 37h1v1h-1zM41 67h1v1h-1zM40 70h1v1h-1zM39 71h1v1h-1zM79 72h5v1h-5zM51 73h1v1h-1z" /><path fill="#f9f9f9" d="M10 7h1v1h-1zM9 8h1v1h-1z" /><path fill="#dfdfdf" d="M11 7h1v1h-1z" /><path fill="#dddddd" d="M12 7h29v1h-29z" /><path fill="#fefefe" d="M41 7h1v1h-1zM9 9h1v1h-1zM9 10h1v1h-1zM9 11h1v1h-1zM9 12h1v1h-1zM9 13h1v1h-1zM15 16h1v1h-1zM68 16h1v1h-1zM15 17h1v1h-1zM67 17h2v1h-2zM15 18h1v1h-1zM66 18h2v1h-2zM15 19h1v1h-1zM65 19h2v1h-2zM15 20h1v1h-1zM64 20h2v1h-2zM15 21h1v1h-1zM63 21h2v1h-2zM15 22h1v1h-1zM62 22h2v1h-2zM15 23h1v1h-1zM61 23h2v1h-2zM15 24h1v1h-1zM60 24h2v1h-2zM15 25h1v1h-1zM59 25h2v1h-2zM15 26h1v1h-1zM58 26h2v1h-2zM15 27h1v1h-1zM57 27h2v1h-2zM15 28h1v1h-1zM56 28h2v1h-2zM15 29h1v1h-1zM55 29h2v1h-2zM15 30h1v1h-1zM54 30h2v1h-2zM15 31h1v1h-1zM53 31h2v1h-2zM15 32h1v1h-1zM52 32h2v1h-2zM15 33h1v1h-1zM51 33h2v1h-2zM15 34h1v1h-1zM50 34h2v1h-2zM15 35h1v1h-1zM49 35h2v1h-2zM15 36h1v1h-1zM48 36h2v1h-2zM15 37h1v1h-1zM47 37h2v1h-2zM15 38h1v1h-1zM46 38h2v1h-2zM15 39h1v1h-1zM45 39h2v1h-2zM15 40h1v1h-1zM44 40h2v1h-2zM15 41h1v1h-1zM43 41h2v1h-2zM15 42h1v1h-1zM42 42h2v1h-2zM15 43h1v1h-1zM41 43h2v1h-2zM15 44h1v1h-1zM40 44h2v1h-2zM15 45h1v1h-1zM39 45h2v1h-2zM15 46h1v1h-1zM39 46h1v1h-1zM15 47h1v1h-1zM38 47h1v1h-1zM15 48h1v1h-1zM15 49h1v1h-1zM15 50h1v1h-1zM15 51h1v1h-1zM15 52h1v1h-1zM15 53h1v1h-1zM15 54h1v1h-1zM15 55h1v1h-1zM15 56h1v1h-1zM15 57h1v1h-1zM15 58h1v1h-1zM15 59h1v1h-1zM15 60h1v1h-1zM15 61h1v1h-1zM15 62h1v1h-1zM15 63h1v1h-1zM15 64h1v1h-1zM15 65h1v1h-1zM15 66h1v1h-1zM15 67h1v1h-1zM15 68h1v1h-1zM15 69h1v1h-1zM15 70h1v1h-1zM15 71h1v1h-1zM15 72h1v1h-1zM15 73h1v1h-1zM15 74h1v1h-1zM15 75h1v1h-1zM15 76h1v1h-1zM15 77h1v1h-1zM15 78h1v1h-1zM15 79h1v1h-1zM15 80h1v1h-1zM15 81h1v1h-1zM15 82h1v1h-1zM15 83h1v1h-1zM15 84h1v1h-1z" /><path fill="#838383" d="M42 7h1v1h-1zM18 85h5v1h-5zM74 86h1v1h-1z" /><path fill="#070707" d="M43 7h1v1h-1zM50 62h1v1h-1zM40 87h1v1h-1z" /><path fill="#010302" d="M45 7h1v1h-1z" /><path fill="#62f391" d="M46 7h1v1h-1z" /><path fill="#348c51" d="M47 7h1v1h-1z" /><path fill="#019833" d="M49 7h2v1h-2zM48 8h4v1h-4zM47 9h6v1h-6zM47 10h7v1h-7zM47 11h8v1h-8zM47 12h9v1h-9zM47 13h10v1h-10zM47 14h11v1h-11zM47 15h11v1h-11zM46 16h13v1h-13zM45 17h15v1h-15zM44 18h17v1h-17zM42 19h18v1h-18zM42 20h17v1h-17zM42 21h16v1h-16zM42 22h15v1h-15zM42 23h14v1h-14zM42 24h13v1h-13zM42 25h12v1h-12zM42 26h11v1h-11zM42 27h10v1h-10zM42 28h9v1h-9zM42 29h8v1h-8zM42 30h7v1h-7zM42 31h6v1h-6zM42 32h5v1h-5zM42 33h4v1h-4zM42 34h2v1h-2zM42 35h1v1h-1zM79 36h1v1h-1zM78 37h3v1h-3zM77 38h5v1h-5zM76 39h6v1h-6zM75 40h8v1h-8zM74 41h10v1h-10zM73 42h12v1h-12zM72 43h14v1h-14zM71 44h16v1h-16zM70 45h18v1h-18zM10 46h1v1h-1zM69 46h20v1h-20zM9 47h2v1h-2zM68 47h22v1h-22zM8 48h3v1h-3zM67 48h24v1h-24zM7 49h4v1h-4zM66 49h26v1h-26zM7 50h4v1h-4zM65 50h27v1h-27zM8 51h3v1h-3zM64 51h27v1h-27zM9 52h2v1h-2zM63 52h27v1h-27zM10 53h1v1h-1zM62 53h27v1h-27zM61 54h27v1h-27zM60 55h27v1h-27zM59 56h27v1h-27zM59 57h26v1h-26zM59 58h25v1h-25zM58 59h25v1h-25zM58 60h24v1h-24zM58 61h23v1h-23zM57 62h23v1h-23zM56 63h23v1h-23zM51 64h27v1h-27zM55 65h2v1h-2zM67 65h5v1h-5zM56 66h1v1h-1zM68 66h3v1h-3zM55 68h1v1h-1zM55 69h1v1h-1zM55 70h2v1h-2zM54 71h3v1h-3zM54 72h3v1h-3zM54 73h3v1h-3zM42 74h1v1h-1zM53 74h3v1h-3zM66 74h2v1h-2zM41 75h1v1h-1zM53 75h3v1h-3zM66 75h1v1h-1zM40 76h2v1h-2zM53 76h3v1h-3zM65 76h1v1h-1zM39 77h3v1h-3zM52 77h3v1h-3zM38 78h3v1h-3zM52 78h3v1h-3zM37 79h4v1h-4zM52 79h3v1h-3zM37 80h4v1h-4zM51 80h3v1h-3zM38 81h2v1h-2zM51 81h3v1h-3zM39 82h1v1h-1zM51 82h3v1h-3zM51 83h2v1h-2zM52 84h1v1h-1zM52 85h1v1h-1zM51 87h1v1h-1zM51 88h2v1h-2zM46 89h7v1h-7zM47 90h5v1h-5zM48 91h3v1h-3zM49 92h1v1h-1z" /><path fill="#4c4c4c" d="M62 7h1v1h-1zM94 12h1v1h-1zM69 38h1v1h-1zM55 54h1v1h-1zM39 69h1v1h-1z" /><path fill="#f6f6f6" d="M63 7h1v1h-1zM62 8h1v1h-1z" /><path fill="#b7b7b7" d="M64 7h1v1h-1zM68 19h1v1h-1zM60 68h1v1h-1zM67 69h1v1h-1zM76 75h1v1h-1z" /><path fill="#afafaf" d="M65 7h28v1h-28zM92 13h1v1h-1z" /><path fill="#d8d8d8" d="M93 7h1v1h-1z" /><path fill="#dadada" d="M94 7h1v1h-1z" /><path fill="#313131" d="M95 7h1v1h-1zM61 9h1v1h-1zM61 10h1v1h-1zM61 11h1v1h-1zM61 12h1v1h-1zM61 13h1v1h-1zM68 14h1v1h-1zM71 68h1v1h-1zM83 68h1v1h-1zM90 75h1v1h-1z" /><path fill="#212121" d="M8 8h1v1h-1zM47 35h1v1h-1zM46 36h1v1h-1z" /><path fill="#5b5b5b" d="M10 8h1v1h-1zM74 33h1v1h-1zM45 63h1v1h-1zM69 81h1v1h-1z" /><path fill="#959595" d="M11 8h1v1h-1zM62 24h1v1h-1z" /><path fill="#999999" d="M12 8h28v1h-28zM58 75h1v1h-1zM47 85h1v1h-1z" /><path fill="#979797" d="M40 8h1v1h-1zM69 82h1v1h-1z" /><path fill="#5c5c5c" d="M41 8h1v1h-1zM78 31h1v1h-1zM77 32h1v1h-1zM35 75h1v1h-1zM34 76h1v1h-1zM56 80h1v1h-1zM82 81h1v1h-1z" /><path fill="#808080" d="M42 8h1v1h-1zM94 13h1v1h-1zM93 14h1v1h-1zM36 15h2v1h-2zM93 15h1v1h-1zM36 16h2v1h-2zM92 16h1v1h-1zM36 17h2v1h-2zM91 17h1v1h-1zM36 18h2v1h-2zM90 18h1v1h-1zM36 19h2v1h-2zM89 19h1v1h-1zM36 20h2v1h-2zM88 20h1v1h-1zM36 21h2v1h-2zM87 21h1v1h-1zM36 22h2v1h-2zM86 22h1v1h-1zM36 23h2v1h-2zM85 23h1v1h-1zM36 24h2v1h-2zM84 24h1v1h-1zM36 25h2v1h-2zM83 25h1v1h-1zM36 26h2v1h-2zM82 26h1v1h-1zM36 27h2v1h-2zM81 27h1v1h-1zM36 28h2v1h-2zM80 28h1v1h-1zM36 29h2v1h-2zM79 29h1v1h-1zM36 30h2v1h-2zM78 30h1v1h-1zM36 31h2v1h-2zM77 31h1v1h-1zM36 32h2v1h-2zM76 32h1v1h-1zM36 33h2v1h-2zM75 33h1v1h-1zM36 34h2v1h-2zM74 34h1v1h-1zM36 35h2v1h-2zM73 35h1v1h-1zM36 36h2v1h-2zM72 36h1v1h-1zM36 37h2v1h-2zM71 37h1v1h-1zM36 38h2v1h-2zM70 38h1v1h-1zM36 39h2v1h-2zM69 39h1v1h-1zM36 40h2v1h-2zM68 40h1v1h-1zM36 41h2v1h-2zM67 41h1v1h-1zM36 42h2v1h-2zM66 42h1v1h-1zM36 43h2v1h-2zM65 43h1v1h-1zM36 44h2v1h-2zM64 44h1v1h-1zM36 45h1v1h-1zM36 46h1v1h-1zM47 62h1v1h-1zM46 63h1v1h-1zM45 64h1v1h-1zM41 68h1v1h-1zM40 69h1v1h-1zM39 70h1v1h-1zM38 71h1v1h-1zM37 72h1v1h-1zM36 73h1v1h-1zM35 74h1v1h-1zM34 75h1v1h-1zM81 86h1v1h-1z" /><path fill="#303030" d="M43 8h1v1h-1z" /><path fill="#30854c" d="M46 8h1v1h-1z" /><path fill="#02892e" d="M47 8h1v1h-1z" /><path fill="#0e7c1a" d="M52 8h1v1h-1zM53 9h1v1h-1z" /><path fill="#3cdf03" d="M53 8h1v1h-1zM54 9h1v1h-1z" /><path fill="#7b7b7b" d="M63 8h1v1h-1zM95 9h1v1h-1zM95 10h1v1h-1zM95 11h1v1h-1zM95 12h1v1h-1zM95 13h1v1h-1zM87 20h1v1h-1zM59 50h1v1h-1zM49 56h1v1h-1zM28 81h1v1h-1zM17 85h1v1h-1z" /><path fill="#b9b9b9" d="M64 8h1v1h-1zM66 17h1v1h-1zM41 45h1v1h-1zM31 76h1v1h-1zM73 85h1v1h-1z" /><path fill="#bebebe" d="M65 8h28v1h-28zM53 30h1v1h-1zM52 31h1v1h-1zM53 56h3v1h-3zM50 59h1v1h-1zM51 61h3v1h-3zM59 67h6v1h-6zM86 67h4v1h-4zM85 73h1v1h-1zM41 86h8v1h-8z" /><path fill="#818181" d="M93 8h1v1h-1zM74 82h1v1h-1z" /><path fill="#bdbdbd" d="M94 8h1v1h-1zM69 18h1v1h-1zM64 19h1v1h-1zM63 20h1v1h-1zM62 21h1v1h-1zM58 25h1v1h-1zM57 26h1v1h-1zM56 27h1v1h-1zM55 28h1v1h-1zM54 29h1v1h-1zM77 67h1v1h-1z" /><path fill="#555555" d="M95 8h1v1h-1zM36 14h4v1h-4zM72 35h1v1h-1zM59 71h1v1h-1z" /><path fill="#090909" d="M96 8h1v1h-1zM96 9h1v1h-1zM96 10h1v1h-1zM96 11h1v1h-1zM96 12h1v1h-1zM96 13h1v1h-1zM83 27h1v1h-1zM90 66h1v1h-1zM40 71h1v1h-1zM64 74h1v1h-1zM90 76h1v1h-1z" /><path fill="#262626" d="M8 9h1v1h-1zM8 10h1v1h-1zM8 11h1v1h-1zM8 12h1v1h-1zM8 13h1v1h-1zM43 77h1v1h-1z" /><path fill="#828282" d="M10 9h1v1h-1zM10 10h1v1h-1zM10 11h1v1h-1zM10 12h1v1h-1z" /><path fill="#cccccc" d="M11 9h30v1h-30zM64 9h30v1h-30zM11 10h30v1h-30zM64 10h30v1h-30zM11 11h30v1h-30zM64 11h30v1h-30zM11 12h30v1h-30zM64 12h29v1h-29zM12 13h28v1h-28zM64 13h28v1h-28zM17 14h18v1h-18zM70 14h21v1h-21zM17 15h18v1h-18zM70 15h20v1h-20zM17 16h18v1h-18zM70 16h19v1h-19zM17 17h18v1h-18zM70 17h18v1h-18zM17 18h18v1h-18zM70 18h17v1h-17zM17 19h18v1h-18zM69 19h17v1h-17zM17 20h18v1h-18zM68 20h17v1h-17zM17 21h18v1h-18zM67 21h17v1h-17zM17 22h18v1h-18zM66 22h17v1h-17zM17 23h18v1h-18zM65 23h17v1h-17zM17 24h18v1h-18zM64 24h18v1h-18zM17 25h18v1h-18zM63 25h18v1h-18zM17 26h18v1h-18zM62 26h18v1h-18zM17 27h18v1h-18zM61 27h18v1h-18zM17 28h18v1h-18zM60 28h18v1h-18zM17 29h18v1h-18zM59 29h18v1h-18zM17 30h18v1h-18zM58 30h18v1h-18zM17 31h18v1h-18zM57 31h18v1h-18zM17 32h18v1h-18zM56 32h18v1h-18zM17 33h18v1h-18zM55 33h18v1h-18zM17 34h18v1h-18zM54 34h18v1h-18zM17 35h18v1h-18zM53 35h18v1h-18zM17 36h18v1h-18zM52 36h18v1h-18zM17 37h18v1h-18zM51 37h18v1h-18zM17 38h18v1h-18zM50 38h18v1h-18zM17 39h18v1h-18zM49 39h18v1h-18zM17 40h18v1h-18zM48 40h18v1h-18zM17 41h18v1h-18zM47 41h18v1h-18zM17 42h18v1h-18zM46 42h18v1h-18zM17 43h18v1h-18zM45 43h18v1h-18zM17 44h18v1h-18zM44 44h18v1h-18zM17 45h18v1h-18zM43 45h18v1h-18zM17 46h18v1h-18zM42 46h18v1h-18zM17 47h18v1h-18zM41 47h18v1h-18zM17 48h18v1h-18zM40 48h18v1h-18zM17 49h18v1h-18zM39 49h18v1h-18zM17 50h18v1h-18zM38 50h18v1h-18zM17 51h18v1h-18zM37 51h18v1h-18zM17 52h18v1h-18zM36 52h18v1h-18zM17 53h36v1h-36zM17 54h34v1h-34zM17 55h33v1h-33zM17 56h32v1h-32zM17 57h32v1h-32zM52 57h4v1h-4zM17 58h31v1h-31zM51 58h5v1h-5zM17 59h31v1h-31zM51 59h4v1h-4zM17 60h30v1h-30zM50 60h5v1h-5zM17 61h29v1h-29zM17 62h28v1h-28zM17 63h27v1h-27zM17 64h26v1h-26zM17 65h25v1h-25zM17 66h24v1h-24zM17 67h23v1h-23zM45 67h8v1h-8zM74 67h3v1h-3zM17 68h22v1h-22zM47 68h5v1h-5zM61 68h5v1h-5zM73 68h5v1h-5zM85 68h6v1h-6zM17 69h21v1h-21zM47 69h5v1h-5zM61 69h6v1h-6zM72 69h7v1h-7zM84 69h7v1h-7zM17 70h20v1h-20zM47 70h5v1h-5zM61 70h30v1h-30zM17 71h19v1h-19zM47 71h4v1h-4zM60 71h31v1h-31zM17 72h18v1h-18zM46 72h5v1h-5zM60 72h4v1h-4zM73 72h4v1h-4zM86 72h5v1h-5zM17 73h17v1h-17zM46 73h5v1h-5zM60 73h4v1h-4zM73 73h4v1h-4zM86 73h4v1h-4zM17 74h16v1h-16zM46 74h4v1h-4zM59 74h4v1h-4zM72 74h5v1h-5zM85 74h5v1h-5zM17 75h15v1h-15zM45 75h5v1h-5zM59 75h4v1h-4zM72 75h4v1h-4zM85 75h5v1h-5zM17 76h14v1h-14zM45 76h5v1h-5zM59 76h4v1h-4zM72 76h4v1h-4zM85 76h4v1h-4zM17 77h13v1h-13zM45 77h4v1h-4zM58 77h4v1h-4zM71 77h5v1h-5zM84 77h5v1h-5zM17 78h12v1h-12zM44 78h5v1h-5zM58 78h4v1h-4zM71 78h4v1h-4zM84 78h5v1h-5zM17 79h11v1h-11zM44 79h5v1h-5zM57 79h5v1h-5zM71 79h4v1h-4zM84 79h4v1h-4zM17 80h10v1h-10zM43 80h5v1h-5zM57 80h4v1h-4zM70 80h5v1h-5zM83 80h5v1h-5zM17 81h9v1h-9zM43 81h5v1h-5zM57 81h4v1h-4zM70 81h4v1h-4zM83 81h5v1h-5zM17 82h8v1h-8zM43 82h5v1h-5zM56 82h5v1h-5zM70 82h4v1h-4zM83 82h4v1h-4zM17 83h7v1h-7zM42 83h5v1h-5zM56 83h4v1h-4zM70 83h4v1h-4zM83 83h4v1h-4zM17 84h6v1h-6zM42 84h5v1h-5zM56 84h4v1h-4zM69 84h4v1h-4zM82 84h5v1h-5zM42 85h5v1h-5zM55 85h5v1h-5zM69 85h4v1h-4zM82 85h5v1h-5z" /><path fill="#9e9e9e" d="M41 9h1v1h-1zM41 10h1v1h-1zM41 11h1v1h-1zM41 12h1v1h-1zM50 61h1v1h-1z" /><path fill="#747474" d="M42 9h1v1h-1zM16 15h1v1h-1zM16 16h1v1h-1zM16 17h1v1h-1zM16 18h1v1h-1zM16 19h1v1h-1zM16 20h1v1h-1zM16 21h1v1h-1zM16 22h1v1h-1zM16 23h1v1h-1zM16 24h1v1h-1zM16 25h1v1h-1zM16 26h1v1h-1zM16 27h1v1h-1zM16 28h1v1h-1zM16 29h1v1h-1zM16 30h1v1h-1zM16 31h1v1h-1zM16 32h1v1h-1zM16 67h1v1h-1zM16 68h1v1h-1zM16 69h1v1h-1zM16 70h1v1h-1zM16 71h1v1h-1zM16 72h1v1h-1zM16 73h1v1h-1zM16 74h1v1h-1zM16 75h1v1h-1zM16 76h1v1h-1zM16 77h1v1h-1zM16 78h1v1h-1zM16 79h1v1h-1zM16 80h1v1h-1zM16 81h1v1h-1zM16 82h1v1h-1zM16 83h1v1h-1z" /><path fill="#202020" d="M43 9h1v1h-1zM43 10h1v1h-1zM43 11h1v1h-1zM43 12h1v1h-1zM43 13h1v1h-1zM50 32h1v1h-1zM49 33h1v1h-1zM48 34h1v1h-1zM56 54h1v1h-1z" /><path fill="#03822b" d="M46 9h1v1h-1z" /><path fill="#d0d0d0" d="M62 9h1v1h-1z" /><path fill="#a8a8a8" d="M63 9h1v1h-1zM54 61h1v1h-1zM83 79h1v1h-1zM42 82h1v1h-1zM16 86h1v1h-1z" /><path fill="#484848" d="M94 9h1v1h-1zM66 41h1v1h-1zM51 56h1v1h-1z" /><path fill="#767676" d="M42 10h1v1h-1zM42 11h1v1h-1zM42 12h1v1h-1zM55 53h1v1h-1zM75 79h1v1h-1z" /><path fill="#019030" d="M46 10h1v1h-1zM46 11h1v1h-1zM46 12h1v1h-1zM46 13h1v1h-1zM46 14h1v1h-1zM70 44h1v1h-1zM56 74h1v1h-1z" /><path fill="#0d7d1a" d="M54 10h1v1h-1z" /><path fill="#3de002" d="M55 10h1v1h-1z" /><path fill="#020900" d="M58 10h1v1h-1zM81 33h1v1h-1zM82 34h1v1h-1zM83 35h1v1h-1zM84 36h1v1h-1zM85 37h1v1h-1zM90 42h1v1h-1zM91 43h1v1h-1zM92 44h1v1h-1zM93 45h1v1h-1zM94 46h1v1h-1zM95 47h1v1h-1z" /><path fill="#c8c8c8" d="M62 10h1v1h-1zM62 11h1v1h-1zM62 12h1v1h-1zM46 37h1v1h-1zM45 38h1v1h-1zM44 39h1v1h-1zM43 40h1v1h-1zM42 41h1v1h-1zM40 43h1v1h-1zM39 44h1v1h-1zM91 69h1v1h-1zM87 82h1v1h-1z" /><path fill="#aaaaaa" d="M63 10h1v1h-1zM63 11h1v1h-1zM63 12h1v1h-1zM50 36h1v1h-1z" /><path fill="#494949" d="M94 10h1v1h-1zM35 15h1v1h-1zM67 15h1v1h-1zM86 23h1v1h-1zM56 58h1v1h-1zM88 81h1v1h-1z" /><path fill="#0e7f1a" d="M55 11h1v1h-1z" /><path fill="#3ce102" d="M56 11h1v1h-1zM57 12h1v1h-1z" /><path fill="#2ca101" d="M58 11h1v1h-1z" /><path fill="#4a4a4a" d="M94 11h1v1h-1zM10 15h2v1h-2zM82 24h1v1h-1zM85 24h1v1h-1zM45 72h1v1h-1z" /><path fill="#0f7f1a" d="M56 12h1v1h-1zM57 13h1v1h-1z" /><path fill="#34be01" d="M58 12h1v1h-1z" /><path fill="#ababab" d="M93 12h1v1h-1z" /><path fill="#636363" d="M10 13h1v1h-1zM74 35h1v1h-1zM31 79h1v1h-1z" /><path fill="#cbcbcb" d="M11 13h1v1h-1zM83 22h1v1h-1zM82 23h1v1h-1zM53 53h1v1h-1zM51 57h1v1h-1zM52 68h1v1h-1zM59 73h1v1h-1zM58 76h1v1h-1zM44 77h1v1h-1zM69 83h1v1h-1zM82 83h1v1h-1z" /><path fill="#c7c7c7" d="M40 13h1v1h-1zM86 19h1v1h-1zM41 42h1v1h-1zM56 50h1v1h-1zM26 81h1v1h-1z" /><path fill="#4e4e4e" d="M41 13h1v1h-1zM15 14h1v1h-1zM65 14h3v1h-3zM41 69h1v1h-1zM17 86h1v1h-1z" /><path fill="#7f7f7f" d="M42 13h1v1h-1zM94 14h1v1h-1zM92 15h1v1h-1zM91 16h1v1h-1zM63 45h1v1h-1zM62 46h1v1h-1zM36 47h1v1h-1zM33 76h1v1h-1zM32 77h1v1h-1zM49 78h1v1h-1z" /><path fill="#2da801" d="M58 13h1v1h-1z" /><path fill="#eeeeee" d="M62 13h1v1h-1z" /><path fill="#676767" d="M63 13h1v1h-1zM58 68h1v1h-1zM63 75h1v1h-1z" /><path fill="#414141" d="M93 13h1v1h-1zM84 22h1v1h-1zM34 74h1v1h-1zM24 84h1v1h-1z" /><path fill="#0f0f0f" d="M8 14h1v1h-1zM77 33h1v1h-1zM92 68h1v1h-1z" /><path fill="#aeaeae" d="M9 14h1v1h-1z" /><path fill="#dbdbdb" d="M10 14h1v1h-1z" /><path fill="#4f4f4f" d="M11 14h1v1h-1zM37 46h1v1h-1zM40 68h1v1h-1zM78 72h1v1h-1zM84 72h1v1h-1z" /><path fill="#5a5a5a" d="M12 14h3v1h-3zM57 77h1v1h-1zM43 78h1v1h-1z" /><path fill="#777777" d="M16 14h1v1h-1zM85 22h1v1h-1zM37 45h1v1h-1zM63 46h1v1h-1zM62 47h1v1h-1zM56 57h1v1h-1zM26 83h1v1h-1zM18 86h5v1h-5z" /><path fill="#3d3d3d" d="M35 14h1v1h-1zM76 77h1v1h-1zM30 78h1v1h-1zM89 78h1v1h-1zM28 80h1v1h-1zM26 82h1v1h-1z" /><path fill="#535353" d="M40 14h1v1h-1zM58 67h1v1h-1zM52 70h1v1h-1zM91 71h1v1h-1zM44 75h1v1h-1zM87 84h1v1h-1z" /><path fill="#7e7e7e" d="M41 14h1v1h-1zM90 17h1v1h-1zM61 47h1v1h-1zM60 48h1v1h-1zM46 70h1v1h-1zM31 78h1v1h-1zM68 86h1v1h-1z" /><path fill="#565656" d="M42 14h1v1h-1zM81 28h1v1h-1zM80 29h1v1h-1zM73 34h1v1h-1zM38 72h1v1h-1zM37 73h1v1h-1z" /><path fill="#0a0a0a" d="M43 14h1v1h-1zM82 28h1v1h-1zM52 55h1v1h-1zM85 66h1v1h-1zM39 72h1v1h-1z" /><path fill="#0a5b12" d="M58 14h1v1h-1z" /><path fill="#1c1c1c" d="M61 14h1v1h-1zM92 69h1v1h-1zM88 82h1v1h-1zM62 85h1v1h-1z" /><path fill="#cecece" d="M62 14h1v1h-1z" /><path fill="#c6c6c6" d="M63 14h1v1h-1zM57 49h1v1h-1zM49 77h1v1h-1zM27 80h1v1h-1zM60 83h1v1h-1z" /><path fill="#3e3e3e" d="M64 14h1v1h-1zM91 15h1v1h-1zM89 17h1v1h-1zM86 20h1v1h-1zM61 46h1v1h-1zM60 47h1v1h-1zM56 51h1v1h-1zM84 74h1v1h-1zM31 77h1v1h-1zM54 86h1v1h-1z" /><path fill="#787878" d="M69 14h1v1h-1zM61 85h1v1h-1zM88 85h1v1h-1z" /><path fill="#b6b6b6" d="M91 14h1v1h-1zM66 68h1v1h-1zM71 76h1v1h-1z" /><path fill="#404040" d="M92 14h1v1h-1zM90 19h1v1h-1zM62 45h1v1h-1zM54 53h1v1h-1zM47 63h1v1h-1zM46 69h1v1h-1zM71 74h1v1h-1zM33 75h1v1h-1zM62 79h1v1h-1zM25 83h1v1h-1z" /><path fill="#353535" d="M95 14h1v1h-1zM83 77h1v1h-1zM41 83h1v1h-1z" /><path fill="#141414" d="M9 15h1v1h-1zM73 37h1v1h-1zM72 38h1v1h-1zM74 66h3v1h-3zM62 80h1v1h-1zM30 81h1v1h-1zM29 82h1v1h-1zM48 83h1v1h-1z" /><path fill="#464646" d="M14 15h1v1h-1zM54 54h1v1h-1zM36 72h1v1h-1z" /><path fill="#a1a1a1" d="M15 15h1v1h-1zM46 68h1v1h-1zM56 81h1v1h-1z" /><path fill="#575757" d="M38 15h1v1h-1zM78 28h1v1h-1zM79 30h1v1h-1zM36 48h1v1h-1zM36 74h1v1h-1zM58 74h1v1h-1z" /><path fill="#515151" d="M39 15h2v1h-2zM64 15h3v1h-3zM82 27h1v1h-1zM71 36h1v1h-1zM68 84h1v1h-1z" /><path fill="#454545" d="M41 15h1v1h-1zM65 42h1v1h-1z" /><path fill="#0b0b0b" d="M42 15h1v1h-1zM81 29h1v1h-1zM80 30h1v1h-1zM53 55h3v1h-3zM43 66h1v1h-1zM59 66h6v1h-6zM86 66h4v1h-4zM38 73h1v1h-1zM37 74h1v1h-1zM70 76h1v1h-1zM83 76h1v1h-1zM41 87h8v1h-8z" /><path fill="#003110" d="M45 15h1v1h-1zM57 73h1v1h-1zM38 76h1v1h-1zM50 87h1v1h-1z" /><path fill="#019733" d="M46 15h1v1h-1zM44 34h1v1h-1zM43 35h1v1h-1zM42 36h1v1h-1zM78 36h1v1h-1zM82 39h1v1h-1zM83 40h1v1h-1zM84 41h1v1h-1zM85 42h1v1h-1zM86 43h1v1h-1zM87 44h1v1h-1zM88 45h1v1h-1zM89 46h1v1h-1zM90 47h1v1h-1zM91 48h1v1h-1zM92 49h1v1h-1zM58 58h1v1h-1zM42 73h1v1h-1zM41 74h1v1h-1zM50 82h1v1h-1z" /><path fill="#018e30" d="M58 15h1v1h-1zM55 77h1v1h-1zM41 78h1v1h-1zM54 80h1v1h-1zM50 83h1v1h-1zM51 86h1v1h-1zM50 88h1v1h-1zM53 88h1v1h-1z" /><path fill="#021404" d="M59 15h1v1h-1z" /><path fill="#252525" d="M62 15h1v1h-1zM45 37h1v1h-1zM44 38h1v1h-1zM43 39h1v1h-1zM42 40h1v1h-1zM41 41h1v1h-1zM40 42h1v1h-1zM39 43h1v1h-1zM53 68h1v1h-1zM81 83h1v1h-1zM17 87h7v1h-7z" /><path fill="#989898" d="M68 15h1v1h-1z" /><path fill="#8a8a8a" d="M69 15h1v1h-1zM69 16h1v1h-1zM69 17h1v1h-1z" /><path fill="#bcbcbc" d="M90 15h1v1h-1zM60 23h1v1h-1zM59 24h1v1h-1zM52 56h1v1h-1zM85 67h1v1h-1z" /><path fill="#373737" d="M94 15h1v1h-1z" /><path fill="#010101" d="M95 15h1v1h-1zM94 16h1v1h-1zM50 56h1v1h-1zM56 60h1v1h-1zM57 68h1v1h-1zM59 69h1v1h-1zM52 72h1v1h-1zM80 85h1v1h-1z" /><path fill="#686868" d="M14 16h1v1h-1zM14 17h1v1h-1zM14 18h1v1h-1zM14 19h1v1h-1zM14 20h1v1h-1zM14 21h1v1h-1zM14 22h1v1h-1zM14 23h1v1h-1zM14 24h1v1h-1zM14 25h1v1h-1zM14 26h1v1h-1zM14 27h1v1h-1zM14 28h1v1h-1zM14 29h1v1h-1zM14 30h1v1h-1zM14 31h1v1h-1zM14 32h1v1h-1zM14 33h1v1h-1zM14 34h1v1h-1zM14 35h1v1h-1zM14 36h1v1h-1zM14 37h1v1h-1zM72 37h1v1h-1zM14 38h1v1h-1zM71 38h1v1h-1zM14 39h1v1h-1zM14 40h1v1h-1zM14 41h1v1h-1zM14 42h1v1h-1zM14 43h1v1h-1zM14 44h1v1h-1zM14 45h1v1h-1zM14 46h1v1h-1zM14 47h1v1h-1zM37 47h1v1h-1zM14 48h1v1h-1zM14 49h1v1h-1zM14 50h1v1h-1zM14 51h1v1h-1zM14 52h1v1h-1zM14 53h1v1h-1zM14 54h1v1h-1zM14 55h1v1h-1zM14 56h1v1h-1zM14 57h1v1h-1zM14 58h1v1h-1zM14 59h1v1h-1zM14 60h1v1h-1zM14 61h1v1h-1zM14 62h1v1h-1zM14 63h1v1h-1zM14 64h1v1h-1zM14 65h1v1h-1zM14 66h1v1h-1zM14 67h1v1h-1zM14 68h1v1h-1zM14 69h1v1h-1zM14 70h1v1h-1zM14 71h1v1h-1zM14 72h1v1h-1zM14 73h1v1h-1zM14 74h1v1h-1zM14 75h1v1h-1zM14 76h1v1h-1zM14 77h1v1h-1zM14 78h1v1h-1zM14 79h1v1h-1zM14 80h1v1h-1zM14 81h1v1h-1zM29 81h1v1h-1zM14 82h1v1h-1zM28 82h1v1h-1zM14 83h1v1h-1zM14 84h1v1h-1z" /><path fill="#4b4f4c" d="M35 16h1v1h-1z" /><path fill="#151515" d="M38 16h1v1h-1zM38 17h1v1h-1zM38 18h1v1h-1zM38 19h1v1h-1zM38 20h1v1h-1zM38 21h1v1h-1zM38 22h1v1h-1zM38 23h1v1h-1zM38 24h1v1h-1zM38 25h1v1h-1zM38 26h1v1h-1zM38 27h1v1h-1zM38 28h1v1h-1zM38 29h1v1h-1zM38 30h1v1h-1zM38 31h1v1h-1zM38 32h1v1h-1zM38 33h1v1h-1zM38 34h1v1h-1zM38 35h1v1h-1zM38 36h1v1h-1zM38 37h1v1h-1zM38 38h1v1h-1zM38 39h1v1h-1zM71 39h1v1h-1zM38 40h1v1h-1zM38 41h1v1h-1zM38 42h1v1h-1zM38 43h1v1h-1zM28 83h1v1h-1zM24 87h1v1h-1z" /><path fill="#001c09" d="M44 16h1v1h-1zM68 45h1v1h-1z" /><path fill="#019131" d="M45 16h1v1h-1zM72 42h1v1h-1zM71 43h1v1h-1zM57 61h1v1h-1zM55 67h2v1h-2zM54 70h1v1h-1zM57 71h1v1h-1z" /><path fill="#01882e" d="M59 16h1v1h-1zM66 48h1v1h-1zM53 89h1v1h-1z" /><path fill="#021003" d="M60 16h1v1h-1z" /><path fill="#1d1d1d" d="M66 16h1v1h-1zM65 45h1v1h-1zM74 84h1v1h-1z" /><path fill="#bababa" d="M67 16h1v1h-1zM71 69h1v1h-1z" /><path fill="#bfbfbf" d="M89 16h1v1h-1zM83 69h1v1h-1zM75 78h1v1h-1z" /><path fill="#3f3f3f" d="M90 16h1v1h-1zM87 19h1v1h-1zM72 67h1v1h-1zM32 76h1v1h-1zM14 85h1v1h-1z" /><path fill="#383838" d="M93 16h1v1h-1zM50 57h1v1h-1z" /><path fill="#4e5450" d="M35 17h1v1h-1zM35 18h1v1h-1z" /><path fill="#000b04" d="M43 17h1v1h-1z" /><path fill="#01842c" d="M44 17h1v1h-1zM64 50h1v1h-1zM65 75h1v1h-1zM66 76h1v1h-1z" /><path fill="#01832c" d="M60 17h1v1h-1zM63 51h1v1h-1zM57 70h1v1h-1zM67 75h1v1h-1z" /><path fill="#010b02" d="M61 17h1v1h-1z" /><path fill="#1a1a1a" d="M65 17h1v1h-1zM50 77h1v1h-1zM89 85h1v1h-1z" /><path fill="#c2c2c2" d="M88 17h1v1h-1zM58 48h1v1h-1zM72 68h1v1h-1zM28 79h1v1h-1zM61 80h1v1h-1z" /><path fill="#3a3a3a" d="M92 17h1v1h-1z" /><path fill="#020202" d="M93 17h1v1h-1zM92 18h1v1h-1zM51 55h1v1h-1zM56 55h1v1h-1zM46 65h1v1h-1zM53 69h1v1h-1zM58 72h1v1h-1zM57 75h1v1h-1zM43 76h1v1h-1zM68 82h1v1h-1zM81 82h1v1h-1zM89 86h1v1h-1z" /><path fill="#003d14" d="M41 18h1v1h-1z" /><path fill="#004718" d="M42 18h1v1h-1zM50 65h3v1h-3z" /><path fill="#017628" d="M43 18h1v1h-1z" /><path fill="#004b19" d="M61 18h1v1h-1zM49 30h1v1h-1z" /><path fill="#1e1e1e" d="M64 18h1v1h-1zM63 19h1v1h-1zM62 20h1v1h-1zM61 21h1v1h-1zM60 22h1v1h-1zM59 23h1v1h-1zM58 24h1v1h-1zM57 25h1v1h-1zM49 61h1v1h-1zM45 66h8v1h-8zM51 74h1v1h-1z" /><path fill="#bbbbbb" d="M65 18h1v1h-1zM61 22h1v1h-1zM60 46h1v1h-1zM62 77h1v1h-1z" /><path fill="#8b8b8b" d="M68 18h1v1h-1zM91 70h1v1h-1zM87 83h1v1h-1z" /><path fill="#c4c4c4" d="M87 18h1v1h-1zM49 34h1v1h-1zM48 35h1v1h-1zM48 80h1v1h-1z" /><path fill="#3c3c3c" d="M88 18h1v1h-1zM91 18h1v1h-1zM44 65h1v1h-1zM27 81h1v1h-1z" /><path fill="#7d7d7d" d="M89 18h1v1h-1zM58 51h1v1h-1zM57 52h1v1h-1zM56 53h1v1h-1zM30 79h1v1h-1z" /><path fill="#4a4f4c" d="M35 19h1v1h-1z" /><path fill="#01822c" d="M41 19h1v1h-1zM41 20h1v1h-1zM41 21h1v1h-1zM41 22h1v1h-1zM41 23h1v1h-1zM41 24h1v1h-1zM41 25h1v1h-1zM41 26h1v1h-1zM41 27h1v1h-1zM41 28h1v1h-1zM41 29h1v1h-1zM41 30h1v1h-1zM41 31h1v1h-1zM41 32h1v1h-1zM41 33h1v1h-1zM41 34h1v1h-1zM41 35h1v1h-1zM41 36h1v1h-1z" /><path fill="#015d1f" d="M60 19h1v1h-1zM71 66h1v1h-1z" /><path fill="#909090" d="M67 19h1v1h-1z" /><path fill="#7c7c7c" d="M88 19h1v1h-1zM59 49h1v1h-1zM58 50h1v1h-1zM29 80h1v1h-1zM23 86h1v1h-1z" /><path fill="#030303" d="M91 19h1v1h-1zM48 63h1v1h-1zM56 78h1v1h-1z" /><path fill="#494f4a" d="M35 20h1v1h-1z" /><path fill="#015c1f" d="M59 20h1v1h-1zM65 65h1v1h-1zM70 67h1v1h-1zM41 79h1v1h-1zM54 81h1v1h-1zM49 88h1v1h-1z" /><path fill="#8d8d8d" d="M66 20h1v1h-1zM60 69h1v1h-1zM51 72h1v1h-1zM81 85h1v1h-1z" /><path fill="#b5b7b4" d="M67 20h1v1h-1z" /><path fill="#c9c9c9" d="M85 20h1v1h-1zM73 67h1v1h-1zM45 74h1v1h-1zM50 74h1v1h-1zM73 84h1v1h-1z" /><path fill="#424242" d="M89 20h1v1h-1zM85 21h1v1h-1zM46 64h1v1h-1zM23 85h1v1h-1z" /><path fill="#040404" d="M90 20h1v1h-1zM89 21h1v1h-1zM47 64h1v1h-1zM42 69h1v1h-1zM91 73h1v1h-1zM42 79h1v1h-1zM55 81h1v1h-1z" /><path fill="#49504a" d="M35 21h1v1h-1zM35 22h1v1h-1zM35 23h1v1h-1zM35 24h1v1h-1zM35 25h1v1h-1zM35 26h1v1h-1zM35 27h1v1h-1zM35 28h1v1h-1zM35 29h1v1h-1zM35 30h1v1h-1zM35 31h1v1h-1zM35 32h1v1h-1zM35 33h1v1h-1zM35 34h1v1h-1zM35 35h1v1h-1zM35 36h1v1h-1zM35 37h1v1h-1zM35 38h1v1h-1zM35 39h1v1h-1zM35 40h1v1h-1zM35 41h1v1h-1zM35 42h1v1h-1zM35 43h1v1h-1zM35 44h1v1h-1zM35 45h1v1h-1zM35 46h1v1h-1zM35 47h1v1h-1zM35 48h1v1h-1zM35 49h1v1h-1z" /><path fill="#015b1f" d="M58 21h1v1h-1zM52 63h2v1h-2zM50 64h1v1h-1zM59 65h6v1h-6z" /><path fill="#8e8e8e" d="M65 21h1v1h-1zM38 45h1v1h-1zM44 68h1v1h-1z" /><path fill="#b5b8b4" d="M66 21h1v1h-1z" /><path fill="#cacaca" d="M84 21h1v1h-1zM55 51h1v1h-1zM54 52h1v1h-1zM55 59h1v1h-1zM60 70h1v1h-1zM51 71h1v1h-1zM25 82h1v1h-1zM24 83h1v1h-1zM23 84h1v1h-1z" /><path fill="#797979" d="M86 21h1v1h-1zM56 52h1v1h-1zM88 80h1v1h-1zM27 82h1v1h-1z" /><path fill="#434343" d="M88 21h1v1h-1zM64 43h1v1h-1zM35 73h1v1h-1zM48 82h1v1h-1z" /><path fill="#015a1e" d="M57 22h1v1h-1zM53 84h1v1h-1z" /><path fill="#949494" d="M64 22h1v1h-1zM52 69h1v1h-1z" /><path fill="#b3b6b4" d="M65 22h1v1h-1z" /><path fill="#050505" d="M88 22h1v1h-1zM87 23h1v1h-1zM58 66h1v1h-1zM69 79h1v1h-1zM54 84h1v1h-1zM62 86h1v1h-1zM49 87h1v1h-1z" /><path fill="#01551c" d="M56 23h1v1h-1zM40 82h1v1h-1z" /><path fill="#989998" d="M63 23h1v1h-1z" /><path fill="#b2b4b3" d="M64 23h1v1h-1z" /><path fill="#444444" d="M83 23h1v1h-1zM49 60h1v1h-1zM43 65h1v1h-1zM75 80h1v1h-1zM15 86h1v1h-1z" /><path fill="#757575" d="M84 23h1v1h-1zM64 45h1v1h-1zM25 84h1v1h-1z" /><path fill="#01541c" d="M55 24h1v1h-1zM65 74h1v1h-1z" /><path fill="#adb0ae" d="M63 24h1v1h-1zM62 25h1v1h-1z" /><path fill="#737373" d="M83 24h1v1h-1zM65 44h1v1h-1zM50 58h1v1h-1zM16 66h1v1h-1zM47 84h1v1h-1zM16 85h1v1h-1zM24 85h1v1h-1z" /><path fill="#01531c" d="M54 25h1v1h-1z" /><path fill="#969696" d="M61 25h1v1h-1z" /><path fill="#707070" d="M82 25h1v1h-1zM67 42h1v1h-1zM71 75h1v1h-1z" /><path fill="#080808" d="M85 25h1v1h-1zM84 26h1v1h-1zM54 62h1v1h-1zM65 66h1v1h-1zM41 70h1v1h-1zM41 82h1v1h-1z" /><path fill="#01521c" d="M53 26h1v1h-1z" /><path fill="#979897" d="M60 26h1v1h-1z" /><path fill="#acb0ad" d="M61 26h1v1h-1z" /><path fill="#4d4d4d" d="M80 26h1v1h-1zM68 39h1v1h-1z" /><path fill="#6c6c6c" d="M81 26h1v1h-1zM70 39h1v1h-1zM89 77h1v1h-1zM27 83h1v1h-1z" /><path fill="#01511b" d="M52 27h1v1h-1zM51 28h1v1h-1zM73 65h4v1h-4zM45 88h4v1h-4z" /><path fill="#9e9f9e" d="M59 27h1v1h-1zM56 30h1v1h-1z" /><path fill="#abafad" d="M60 27h1v1h-1z" /><path fill="#545454" d="M79 27h1v1h-1zM36 49h1v1h-1zM56 56h1v1h-1zM81 84h1v1h-1zM49 85h1v1h-1z" /><path fill="#6a6a6a" d="M80 27h1v1h-1zM41 84h1v1h-1z" /><path fill="#9fa09f" d="M58 28h1v1h-1z" /><path fill="#a9adaa" d="M59 28h1v1h-1z" /><path fill="#666666" d="M79 28h1v1h-1zM78 29h1v1h-1zM77 73h1v1h-1z" /><path fill="#004c19" d="M50 29h1v1h-1z" /><path fill="#9c9d9d" d="M57 29h1v1h-1z" /><path fill="#a5a9a7" d="M58 29h1v1h-1z" /><path fill="#5d5d5d" d="M77 29h1v1h-1zM75 32h1v1h-1zM33 77h1v1h-1z" /><path fill="#a4a9a6" d="M57 30h1v1h-1zM56 31h1v1h-1z" /><path fill="#60655f" d="M76 30h1v1h-1z" /><path fill="#626262" d="M77 30h1v1h-1zM75 34h1v1h-1zM32 78h1v1h-1zM42 81h1v1h-1z" /><path fill="#004a19" d="M48 31h1v1h-1z" /><path fill="#a3a5a3" d="M55 31h1v1h-1z" /><path fill="#676967" d="M75 31h1v1h-1z" /><path fill="#606060" d="M76 31h1v1h-1zM76 33h1v1h-1zM47 61h1v1h-1z" /><path fill="#0d0d0d" d="M79 31h1v1h-1zM43 68h1v1h-1zM36 75h1v1h-1z" /><path fill="#004918" d="M47 32h1v1h-1z" /><path fill="#c3c3c3" d="M51 32h1v1h-1zM50 33h1v1h-1z" /><path fill="#a4a6a4" d="M54 32h1v1h-1z" /><path fill="#a2a7a3" d="M55 32h1v1h-1z" /><path fill="#696c6b" d="M74 32h1v1h-1z" /><path fill="#0e0e0e" d="M78 32h1v1h-1zM48 60h1v1h-1zM35 76h1v1h-1zM34 77h1v1h-1zM63 77h1v1h-1z" /><path fill="#727272" d="M16 33h1v1h-1zM16 34h1v1h-1zM66 43h1v1h-1zM16 64h1v1h-1zM16 65h1v1h-1z" /><path fill="#004818" d="M46 33h1v1h-1zM53 65h1v1h-1z" /><path fill="#a2a2a2" d="M53 33h1v1h-1zM60 85h1v1h-1z" /><path fill="#9ca29e" d="M54 33h1v1h-1z" /><path fill="#727573" d="M73 33h1v1h-1zM16 40h1v1h-1zM16 41h1v1h-1zM16 42h1v1h-1zM16 43h1v1h-1zM16 44h1v1h-1zM16 45h1v1h-1zM16 46h1v1h-1zM16 47h1v1h-1zM16 48h1v1h-1zM16 49h1v1h-1zM16 50h1v1h-1zM16 51h1v1h-1zM16 52h1v1h-1zM16 53h1v1h-1zM16 54h1v1h-1zM16 55h1v1h-1zM16 56h1v1h-1zM16 57h1v1h-1zM16 58h1v1h-1zM16 59h1v1h-1z" /><path fill="#195b01" d="M80 33h1v1h-1z" /><path fill="#004216" d="M45 34h1v1h-1zM43 71h1v1h-1zM50 80h1v1h-1z" /><path fill="#a2a3a2" d="M52 34h1v1h-1z" /><path fill="#9ba19e" d="M53 34h1v1h-1z" /><path fill="#747775" d="M72 34h1v1h-1zM16 36h1v1h-1zM16 37h1v1h-1z" /><path fill="#111111" d="M76 34h1v1h-1zM74 36h1v1h-1zM49 59h1v1h-1zM84 73h1v1h-1zM76 78h1v1h-1zM89 79h1v1h-1zM31 80h1v1h-1z" /><path fill="#195d01" d="M79 34h1v1h-1z" /><path fill="#45fd02" d="M80 34h1v1h-1z" /><path fill="#38cf02" d="M81 34h1v1h-1zM82 35h1v1h-1zM83 36h1v1h-1zM84 37h1v1h-1zM85 38h1v1h-1zM86 39h1v1h-1zM87 40h1v1h-1zM88 41h1v1h-1zM89 42h1v1h-1z" /><path fill="#737474" d="M16 35h1v1h-1z" /><path fill="#004116" d="M44 35h1v1h-1z" /><path fill="#a3a5a4" d="M51 35h1v1h-1zM35 72h1v1h-1z" /><path fill="#9ba19d" d="M52 35h1v1h-1zM51 36h1v1h-1z" /><path fill="#7d807e" d="M71 35h1v1h-1z" /><path fill="#101010" d="M75 35h1v1h-1zM77 66h1v1h-1zM33 78h1v1h-1zM32 79h1v1h-1z" /><path fill="#003a13" d="M78 35h1v1h-1zM57 66h1v1h-1zM41 73h1v1h-1z" /><path fill="#137e15" d="M79 35h1v1h-1z" /><path fill="#41ef02" d="M80 35h1v1h-1zM81 36h1v1h-1zM82 37h1v1h-1zM83 38h1v1h-1z" /><path fill="#004016" d="M43 36h1v1h-1z" /><path fill="#c5c5c5" d="M47 36h1v1h-1zM46 71h1v1h-1zM74 81h1v1h-1z" /><path fill="#808482" d="M70 36h1v1h-1z" /><path fill="#656565" d="M73 36h1v1h-1zM70 78h1v1h-1zM83 78h1v1h-1zM30 80h1v1h-1zM88 86h1v1h-1z" /><path fill="#003913" d="M77 36h1v1h-1zM52 74h1v1h-1z" /><path fill="#137f15" d="M80 36h1v1h-1z" /><path fill="#01812b" d="M41 37h1v1h-1zM66 65h1v1h-1z" /><path fill="#003f15" d="M42 37h1v1h-1zM44 71h1v1h-1z" /><path fill="#aaabab" d="M49 37h1v1h-1z" /><path fill="#98a09b" d="M50 37h1v1h-1z" /><path fill="#888b89" d="M69 37h1v1h-1z" /><path fill="#003211" d="M76 37h1v1h-1zM75 38h1v1h-1zM39 75h1v1h-1z" /><path fill="#019632" d="M77 37h1v1h-1zM76 38h1v1h-1zM40 75h1v1h-1zM39 76h1v1h-1zM51 79h1v1h-1z" /><path fill="#137f14" d="M81 37h1v1h-1z" /><path fill="#737574" d="M16 38h1v1h-1z" /><path fill="#00290e" d="M41 38h1v1h-1zM72 41h1v1h-1zM54 82h1v1h-1z" /><path fill="#a9aaaa" d="M48 38h1v1h-1z" /><path fill="#939a96" d="M49 38h1v1h-1zM48 39h1v1h-1z" /><path fill="#8c8f8d" d="M68 38h1v1h-1z" /><path fill="#147f14" d="M82 38h1v1h-1z" /><path fill="#030900" d="M86 38h1v1h-1zM87 39h1v1h-1zM88 40h1v1h-1zM89 41h1v1h-1z" /><path fill="#727473" d="M16 39h1v1h-1z" /><path fill="#a8aaa9" d="M47 39h1v1h-1z" /><path fill="#979a98" d="M67 39h1v1h-1zM37 70h1v1h-1z" /><path fill="#002b0e" d="M74 39h1v1h-1zM37 77h1v1h-1zM55 79h1v1h-1z" /><path fill="#019432" d="M75 39h1v1h-1zM43 72h1v1h-1zM53 73h1v1h-1zM38 77h1v1h-1z" /><path fill="#137a13" d="M83 39h1v1h-1zM84 40h1v1h-1zM85 41h1v1h-1zM86 42h1v1h-1zM87 43h1v1h-1z" /><path fill="#41f002" d="M84 39h1v1h-1zM85 40h1v1h-1zM86 41h1v1h-1zM87 42h1v1h-1z" /><path fill="#1e4c2d" d="M11 40h1v1h-1z" /><path fill="#b2b3b3" d="M46 40h1v1h-1z" /><path fill="#949c96" d="M47 40h1v1h-1z" /><path fill="#989b99" d="M66 40h1v1h-1zM36 71h1v1h-1z" /><path fill="#6d6d6d" d="M69 40h1v1h-1zM76 76h1v1h-1zM26 84h1v1h-1zM25 85h1v1h-1zM61 86h1v1h-1z" /><path fill="#171717" d="M70 40h1v1h-1zM69 41h1v1h-1zM49 80h1v1h-1zM26 85h1v1h-1z" /><path fill="#002a0e" d="M73 40h1v1h-1zM49 65h1v1h-1zM36 78h1v1h-1z" /><path fill="#019331" d="M74 40h1v1h-1zM73 41h1v1h-1zM37 78h1v1h-1zM36 79h1v1h-1zM52 87h1v1h-1z" /><path fill="#34824d" d="M10 41h1v1h-1zM9 42h1v1h-1zM8 43h1v1h-1z" /><path fill="#3d975b" d="M11 41h1v1h-1zM11 42h1v1h-1z" /><path fill="#b4b5b4" d="M45 41h1v1h-1z" /><path fill="#909993" d="M46 41h1v1h-1z" /><path fill="#a3a6a4" d="M65 41h1v1h-1z" /><path fill="#6e6e6e" d="M68 41h1v1h-1zM50 55h1v1h-1z" /><path fill="#b3b4b4" d="M44 42h1v1h-1z" /><path fill="#8a938d" d="M45 42h1v1h-1zM44 43h1v1h-1z" /><path fill="#a5a8a6" d="M64 42h1v1h-1z" /><path fill="#181818" d="M68 42h1v1h-1zM53 66h1v1h-1zM45 71h1v1h-1zM75 81h1v1h-1zM27 84h1v1h-1zM25 86h1v1h-1zM16 87h1v1h-1z" /><path fill="#00230c" d="M71 42h1v1h-1zM70 43h1v1h-1z" /><path fill="#256239" d="M11 43h1v1h-1z" /><path fill="#b4b4b4" d="M43 43h1v1h-1zM41 85h1v1h-1z" /><path fill="#aeb0af" d="M63 43h1v1h-1z" /><path fill="#1b1b1b" d="M67 43h1v1h-1zM66 44h1v1h-1z" /><path fill="#42f202" d="M88 43h1v1h-1z" /><path fill="#38ce02" d="M90 43h1v1h-1zM91 44h1v1h-1zM92 45h1v1h-1zM93 46h1v1h-1zM94 47h1v1h-1z" /><path fill="#33804c" d="M7 44h1v1h-1zM6 45h1v1h-1z" /><path fill="#43ae67" d="M10 44h1v1h-1z" /><path fill="#044d1c" d="M11 44h1v1h-1z" /><path fill="#2b2b2b" d="M38 44h1v1h-1z" /><path fill="#b9bbba" d="M42 44h1v1h-1zM40 46h1v1h-1z" /><path fill="#8c958f" d="M43 44h1v1h-1z" /><path fill="#afb0b0" d="M62 44h1v1h-1z" /><path fill="#404140" d="M63 44h1v1h-1z" /><path fill="#00200b" d="M69 44h1v1h-1zM40 83h1v1h-1z" /><path fill="#137e13" d="M88 44h1v1h-1z" /><path fill="#43f402" d="M89 44h1v1h-1zM90 45h1v1h-1zM91 46h1v1h-1z" /><path fill="#43af67" d="M9 45h1v1h-1z" /><path fill="#07832e" d="M10 45h1v1h-1z" /><path fill="#015b1e" d="M11 45h1v1h-1zM11 46h1v1h-1zM11 47h1v1h-1zM11 48h1v1h-1zM11 49h1v1h-1zM11 50h1v1h-1zM11 51h1v1h-1zM11 52h1v1h-1zM11 53h1v1h-1zM11 54h1v1h-1z" /><path fill="#88928b" d="M42 45h1v1h-1z" /><path fill="#b7b8b7" d="M61 45h1v1h-1z" /><path fill="#018d2f" d="M69 45h1v1h-1zM55 63h1v1h-1z" /><path fill="#147e13" d="M89 45h1v1h-1zM90 46h1v1h-1z" /><path fill="#337e4b" d="M5 46h1v1h-1zM4 47h1v1h-1z" /><path fill="#44b067" d="M8 46h1v1h-1z" /><path fill="#07832f" d="M9 46h1v1h-1z" /><path fill="#fdfdfd" d="M38 46h1v1h-1z" /><path fill="#838d86" d="M41 46h1v1h-1z" /><path fill="#001b09" d="M67 46h1v1h-1z" /><path fill="#018c2f" d="M68 46h1v1h-1z" /><path fill="#42ad66" d="M7 47h1v1h-1z" /><path fill="#077f2e" d="M8 47h1v1h-1zM7 48h1v1h-1z" /><path fill="#babbba" d="M39 47h1v1h-1z" /><path fill="#828c85" d="M40 47h1v1h-1z" /><path fill="#c1c1c1" d="M59 47h1v1h-1zM84 68h1v1h-1zM72 73h1v1h-1zM29 78h1v1h-1zM88 79h1v1h-1z" /><path fill="#001708" d="M66 47h1v1h-1z" /><path fill="#018a2e" d="M67 47h1v1h-1zM55 66h1v1h-1zM51 91h1v1h-1z" /><path fill="#158112" d="M91 47h1v1h-1zM92 48h1v1h-1z" /><path fill="#43f502" d="M92 47h1v1h-1z" /><path fill="#34824e" d="M3 48h1v1h-1z" /><path fill="#42ac65" d="M6 48h1v1h-1z" /><path fill="#e8e8e8" d="M37 48h1v1h-1z" /><path fill="#babcbb" d="M38 48h1v1h-1z" /><path fill="#818b84" d="M39 48h1v1h-1z" /><path fill="#3d3e3e" d="M59 48h1v1h-1z" /><path fill="#7a7a7a" d="M61 48h1v1h-1zM60 49h1v1h-1zM57 51h1v1h-1zM52 54h1v1h-1zM48 81h1v1h-1zM61 81h1v1h-1zM48 85h1v1h-1z" /><path fill="#232323" d="M62 48h1v1h-1zM61 49h1v1h-1zM79 68h1v1h-1zM68 83h1v1h-1z" /><path fill="#001607" d="M65 48h1v1h-1z" /><path fill="#43f602" d="M93 48h1v1h-1z" /><path fill="#37cc02" d="M95 48h1v1h-1z" /><path fill="#020800" d="M96 48h1v1h-1z" /><path fill="#11361b" d="M2 49h1v1h-1z" /><path fill="#2c8346" d="M3 49h2v1h-2z" /><path fill="#28733f" d="M5 49h1v1h-1z" /><path fill="#07812f" d="M6 49h1v1h-1z" /><path fill="#c0c2c1" d="M37 49h1v1h-1z" /><path fill="#828d85" d="M38 49h1v1h-1z" /><path fill="#3d3e3d" d="M58 49h1v1h-1zM57 50h1v1h-1z" /><path fill="#001206" d="M64 49h1v1h-1zM63 79h1v1h-1z" /><path fill="#01862d" d="M65 49h1v1h-1z" /><path fill="#126b0d" d="M93 49h1v1h-1z" /><path fill="#1d7d02" d="M94 49h2v1h-2z" /><path fill="#114d01" d="M96 49h1v1h-1z" /><path fill="#000902" d="M2 50h1v1h-1zM3 51h1v1h-1zM4 52h1v1h-1zM5 53h1v1h-1zM6 54h1v1h-1zM7 55h1v1h-1zM8 56h1v1h-1zM9 57h1v1h-1zM10 58h1v1h-1z" /><path fill="#016d14" d="M3 50h1v1h-1zM6 53h1v1h-1zM7 54h1v1h-1zM8 55h1v1h-1zM9 56h1v1h-1zM10 57h1v1h-1z" /><path fill="#017d17" d="M4 50h1v1h-1zM5 51h1v1h-1zM6 52h1v1h-1zM7 53h1v1h-1zM8 54h1v1h-1zM9 55h1v1h-1zM10 56h1v1h-1zM35 81h1v1h-1zM36 82h1v1h-1zM37 83h1v1h-1zM38 84h1v1h-1zM43 89h1v1h-1zM44 90h1v1h-1zM45 91h1v1h-1zM46 92h1v1h-1zM47 93h1v1h-1zM48 94h1v1h-1z" /><path fill="#016e14" d="M5 50h1v1h-1zM6 51h1v1h-1zM7 52h1v1h-1zM8 53h1v1h-1zM9 54h1v1h-1zM10 55h1v1h-1z" /><path fill="#014714" d="M6 50h1v1h-1zM7 51h1v1h-1zM8 52h1v1h-1zM10 54h1v1h-1z" /><path fill="#3e4440" d="M35 50h1v1h-1z" /><path fill="#858786" d="M36 50h1v1h-1z" /><path fill="#7e8a82" d="M37 50h1v1h-1z" /><path fill="#222222" d="M60 50h1v1h-1zM49 57h1v1h-1zM59 70h1v1h-1zM52 71h1v1h-1z" /><path fill="#001106" d="M63 50h1v1h-1zM49 82h1v1h-1zM53 87h1v1h-1z" /><path fill="#017a27" d="M92 50h1v1h-1zM91 51h1v1h-1z" /><path fill="#003f04" d="M93 50h1v1h-1zM92 51h1v1h-1zM89 54h1v1h-1zM88 55h1v1h-1zM87 56h1v1h-1z" /><path fill="#005d04" d="M94 50h1v1h-1zM93 51h1v1h-1zM92 52h1v1h-1zM91 53h1v1h-1zM90 54h1v1h-1zM89 55h1v1h-1zM88 56h1v1h-1zM87 57h1v1h-1zM86 58h1v1h-1zM85 59h1v1h-1zM84 60h1v1h-1zM83 61h1v1h-1zM82 62h1v1h-1zM81 63h1v1h-1zM80 64h1v1h-1zM79 65h1v1h-1zM68 76h1v1h-1zM67 77h1v1h-1zM66 78h1v1h-1zM65 79h1v1h-1zM64 80h1v1h-1z" /><path fill="#004b03" d="M95 50h1v1h-1zM94 51h1v1h-1zM93 52h1v1h-1zM92 53h1v1h-1zM91 54h1v1h-1zM90 55h1v1h-1zM89 56h1v1h-1zM88 57h1v1h-1zM87 58h1v1h-1z" /><path fill="#000600" d="M96 50h1v1h-1zM95 51h1v1h-1zM94 52h1v1h-1zM93 53h1v1h-1zM92 54h1v1h-1zM91 55h1v1h-1zM90 56h1v1h-1zM89 57h1v1h-1zM88 58h1v1h-1zM87 59h1v1h-1z" /><path fill="#000200" d="M97 50h1v1h-1zM96 51h1v1h-1zM95 52h1v1h-1zM94 53h1v1h-1zM93 54h1v1h-1zM92 55h1v1h-1zM91 56h1v1h-1zM90 57h1v1h-1zM89 58h1v1h-1zM88 59h1v1h-1zM87 60h1v1h-1zM86 61h1v1h-1zM85 62h1v1h-1zM84 63h1v1h-1zM83 64h1v1h-1zM82 65h1v1h-1zM81 66h1v1h-1zM69 77h1v1h-1zM33 81h1v1h-1zM39 87h1v1h-1zM51 96h1v1h-1zM50 97h1v1h-1z" /><path fill="#016c14" d="M4 51h1v1h-1zM5 52h1v1h-1z" /><path fill="#2d312e" d="M35 51h1v1h-1z" /><path fill="#78837c" d="M36 51h1v1h-1z" /><path fill="#001005" d="M62 51h1v1h-1z" /><path fill="#717673" d="M35 52h1v1h-1z" /><path fill="#3f403f" d="M55 52h1v1h-1z" /><path fill="#000d04" d="M61 52h1v1h-1zM60 53h1v1h-1zM44 72h1v1h-1z" /><path fill="#017f2b" d="M62 52h1v1h-1zM51 84h1v1h-1z" /><path fill="#017c28" d="M90 52h1v1h-1zM88 54h1v1h-1z" /><path fill="#004004" d="M91 52h1v1h-1zM90 53h1v1h-1z" /><path fill="#014814" d="M9 53h1v1h-1z" /><path fill="#017e2a" d="M61 53h1v1h-1z" /><path fill="#017b28" d="M89 53h1v1h-1z" /><path fill="#9f9f9f" d="M51 54h1v1h-1zM90 73h1v1h-1z" /><path fill="#2b2c2b" d="M53 54h1v1h-1z" /><path fill="#000a03" d="M59 54h1v1h-1zM55 62h1v1h-1zM66 73h3v1h-3z" /><path fill="#017a29" d="M60 54h1v1h-1zM56 62h1v1h-1z" /><path fill="#01280b" d="M11 55h1v1h-1z" /><path fill="#000903" d="M58 55h1v1h-1zM52 73h1v1h-1z" /><path fill="#017828" d="M59 55h1v1h-1z" /><path fill="#017c29" d="M87 55h1v1h-1zM86 56h1v1h-1zM85 57h1v1h-1zM84 58h1v1h-1zM83 59h1v1h-1z" /><path fill="#01400b" d="M11 56h1v1h-1z" /><path fill="#015e20" d="M58 56h1v1h-1z" /><path fill="#014b0e" d="M11 57h1v1h-1z" /><path fill="#017c2a" d="M58 57h1v1h-1z" /><path fill="#003e04" d="M86 57h1v1h-1z" /><path fill="#01410c" d="M11 58h1v1h-1z" /><path fill="#a6a6a6" d="M48 58h1v1h-1z" /><path fill="#000f05" d="M57 58h1v1h-1z" /><path fill="#003b04" d="M85 58h1v1h-1zM84 59h1v1h-1zM83 60h1v1h-1zM82 61h1v1h-1zM79 64h1v1h-1z" /><path fill="#000501" d="M11 59h1v1h-1z" /><path fill="#272827" d="M48 59h1v1h-1z" /><path fill="#003c14" d="M57 59h1v1h-1zM42 72h1v1h-1z" /><path fill="#004c03" d="M86 59h1v1h-1zM85 60h1v1h-1zM84 61h1v1h-1zM83 62h1v1h-1zM82 63h1v1h-1zM81 64h1v1h-1zM80 65h1v1h-1z" /><path fill="#727372" d="M16 60h1v1h-1z" /><path fill="#606261" d="M47 60h1v1h-1z" /><path fill="#939393" d="M55 60h1v1h-1zM59 72h1v1h-1zM44 76h1v1h-1z" /><path fill="#016723" d="M57 60h1v1h-1z" /><path fill="#017d29" d="M82 60h1v1h-1zM81 61h1v1h-1zM80 62h1v1h-1zM79 63h1v1h-1z" /><path fill="#000700" d="M86 60h1v1h-1zM85 61h1v1h-1zM84 62h1v1h-1zM83 63h1v1h-1zM82 64h1v1h-1zM81 65h1v1h-1zM80 66h1v1h-1zM68 78h1v1h-1zM58 88h1v1h-1z" /><path fill="#727472" d="M16 61h1v1h-1zM16 62h1v1h-1zM16 63h1v1h-1z" /><path fill="#5f615f" d="M46 61h1v1h-1z" /><path fill="#191919" d="M48 61h1v1h-1zM61 83h1v1h-1z" /><path fill="#272727" d="M55 61h1v1h-1zM42 68h1v1h-1zM91 72h1v1h-1zM57 76h1v1h-1z" /><path fill="#000e05" d="M56 61h1v1h-1zM50 79h1v1h-1z" /><path fill="#6a6d6b" d="M45 62h1v1h-1z" /><path fill="#5e5e5e" d="M46 62h1v1h-1zM55 83h1v1h-1z" /><path fill="#333333" d="M48 62h1v1h-1z" /><path fill="#0c0c0c" d="M51 62h3v1h-3zM77 75h1v1h-1zM40 85h1v1h-1z" /><path fill="#003a04" d="M81 62h1v1h-1zM80 63h1v1h-1z" /><path fill="#696b69" d="M44 63h1v1h-1z" /><path fill="#013a14" d="M51 63h1v1h-1z" /><path fill="#016020" d="M54 63h1v1h-1z" /><path fill="#757775" d="M43 64h1v1h-1zM42 65h1v1h-1z" /><path fill="#595959" d="M44 64h1v1h-1zM65 72h6v1h-6z" /><path fill="#017f2a" d="M78 64h1v1h-1z" /><path fill="#016e25" d="M54 65h1v1h-1z" /><path fill="#019231" d="M57 65h1v1h-1zM42 75h1v1h-1z" /><path fill="#016422" d="M58 65h1v1h-1zM68 67h1v1h-1zM54 69h1v1h-1zM57 72h1v1h-1zM42 76h1v1h-1z" /><path fill="#017226" d="M72 65h1v1h-1z" /><path fill="#014417" d="M77 65h1v1h-1z" /><path fill="#002f03" d="M78 65h1v1h-1z" /><path fill="#808381" d="M41 66h1v1h-1zM40 67h1v1h-1z" /><path fill="#525252" d="M42 66h1v1h-1z" /><path fill="#161616" d="M44 66h1v1h-1zM80 86h1v1h-1z" /><path fill="#000201" d="M54 66h1v1h-1zM71 67h1v1h-1zM57 69h1v1h-1zM41 81h1v1h-1zM54 83h1v1h-1zM53 86h1v1h-1z" /><path fill="#000702" d="M66 66h1v1h-1zM53 70h1v1h-1zM58 71h1v1h-1zM43 75h1v1h-1z" /><path fill="#017427" d="M67 66h1v1h-1z" /><path fill="#131313" d="M73 66h1v1h-1zM71 73h1v1h-1zM67 86h1v1h-1z" /><path fill="#000300" d="M78 66h1v1h-1z" /><path fill="#003a02" d="M79 66h1v1h-1z" /><path fill="#616161" d="M42 67h1v1h-1zM74 85h1v1h-1z" /><path fill="#848484" d="M44 67h1v1h-1z" /><path fill="#585858" d="M53 67h1v1h-1zM71 72h1v1h-1zM49 86h1v1h-1z" /><path fill="#000502" d="M54 67h1v1h-1zM57 74h1v1h-1z" /><path fill="#000602" d="M57 67h1v1h-1z" /><path fill="#b1b1b1" d="M65 67h1v1h-1z" /><path fill="#2c2c2c" d="M66 67h1v1h-1zM55 82h1v1h-1z" /><path fill="#000803" d="M67 67h1v1h-1zM69 73h1v1h-1zM50 84h1v1h-1z" /><path fill="#016f25" d="M69 67h1v1h-1z" /><path fill="#2f2f2f" d="M78 67h1v1h-1zM54 85h1v1h-1zM75 85h1v1h-1z" /><path fill="#b5b5b5" d="M90 67h1v1h-1zM84 76h1v1h-1z" /><path fill="#8c8e8c" d="M39 68h1v1h-1z" /><path fill="#9a9a9a" d="M45 68h1v1h-1zM59 68h1v1h-1zM80 69h3v1h-3z" /><path fill="#003010" d="M54 68h1v1h-1z" /><path fill="#016a23" d="M56 68h1v1h-1zM51 85h1v1h-1z" /><path fill="#b3b3b3" d="M78 68h1v1h-1zM89 76h1v1h-1z" /><path fill="#9b9b9b" d="M91 68h1v1h-1zM82 82h1v1h-1z" /><path fill="#8c8e8d" d="M38 69h1v1h-1z" /><path fill="#017929" d="M56 69h1v1h-1z" /><path fill="#858585" d="M68 69h3v1h-3zM64 72h1v1h-1zM60 84h1v1h-1zM55 86h6v1h-6zM69 86h5v1h-5zM82 86h6v1h-6z" /><path fill="#b8b8b8" d="M79 69h1v1h-1z" /><path fill="#00240c" d="M44 70h1v1h-1z" /><path fill="#00210b" d="M58 70h1v1h-1z" /><path fill="#003412" d="M53 71h1v1h-1z" /><path fill="#016823" d="M53 72h1v1h-1z" /><path fill="#a9a9a9" d="M72 72h1v1h-1z" /><path fill="#b0b0b0" d="M77 72h1v1h-1zM63 74h1v1h-1z" /><path fill="#a0a0a0" d="M85 72h1v1h-1zM43 79h1v1h-1z" /><path fill="#a5a7a6" d="M34 73h1v1h-1z" /><path fill="#016c24" d="M43 73h1v1h-1z" /><path fill="#888888" d="M45 73h1v1h-1z" /><path fill="#242424" d="M58 73h1v1h-1z" /><path fill="#000401" d="M65 73h1v1h-1zM56 77h1v1h-1zM42 78h1v1h-1zM55 80h1v1h-1z" /><path fill="#aeafae" d="M33 74h1v1h-1z" /><path fill="#003813" d="M40 74h1v1h-1z" /><path fill="#003612" d="M43 74h1v1h-1z" /><path fill="#01822b" d="M68 74h1v1h-1z" /><path fill="#003605" d="M69 74h1v1h-1zM68 75h1v1h-1z" /><path fill="#000e01" d="M70 74h1v1h-1z" /><path fill="#363636" d="M77 74h1v1h-1zM70 77h1v1h-1z" /><path fill="#5f5f5f" d="M90 74h1v1h-1z" /><path fill="#b0b1b0" d="M32 75h1v1h-1z" /><path fill="#878787" d="M50 75h1v1h-1zM68 85h1v1h-1z" /><path fill="#016d25" d="M52 75h1v1h-1z" /><path fill="#016121" d="M56 75h1v1h-1z" /><path fill="#004d03" d="M69 75h1v1h-1zM63 82h1v1h-1z" /><path fill="#6f6f6f" d="M84 75h1v1h-1zM62 78h1v1h-1zM24 86h1v1h-1z" /><path fill="#000c04" d="M51 76h1v1h-1z" /><path fill="#019532" d="M52 76h1v1h-1z" /><path fill="#002d0f" d="M56 76h1v1h-1z" /><path fill="#001d0a" d="M64 76h1v1h-1z" /><path fill="#003805" d="M67 76h1v1h-1zM65 78h1v1h-1z" /><path fill="#002802" d="M69 76h1v1h-1z" /><path fill="#bbbcbb" d="M30 77h1v1h-1z" /><path fill="#002f10" d="M42 77h1v1h-1z" /><path fill="#003d15" d="M51 77h1v1h-1z" /><path fill="#014d1a" d="M64 77h1v1h-1z" /><path fill="#01852d" d="M65 77h1v1h-1z" /><path fill="#003705" d="M66 77h1v1h-1z" /><path fill="#004e03" d="M68 77h1v1h-1zM67 78h1v1h-1zM66 79h1v1h-1zM65 80h1v1h-1zM64 81h1v1h-1z" /><path fill="#017126" d="M51 78h1v1h-1z" /><path fill="#015f20" d="M55 78h1v1h-1z" /><path fill="#9c9c9c" d="M57 78h1v1h-1z" /><path fill="#016d24" d="M64 78h1v1h-1z" /><path fill="#3b3b3b" d="M29 79h1v1h-1z" /><path fill="#001105" d="M35 79h1v1h-1z" /><path fill="#2a2a2a" d="M56 79h1v1h-1z" /><path fill="#003604" d="M64 79h1v1h-1z" /><path fill="#000800" d="M67 79h1v1h-1zM66 80h1v1h-1zM65 81h1v1h-1zM62 82h1v1h-1zM64 82h1v1h-1zM63 83h1v1h-1zM50 96h1v1h-1z" /><path fill="#a7a7a7" d="M70 79h1v1h-1z" /><path fill="#001d05" d="M34 80h1v1h-1z" /><path fill="#016112" d="M35 80h1v1h-1z" /><path fill="#014c17" d="M36 80h1v1h-1z" /><path fill="#00270d" d="M41 80h1v1h-1zM53 85h1v1h-1z" /><path fill="#2d2d2d" d="M42 80h1v1h-1zM69 80h1v1h-1zM82 80h1v1h-1z" /><path fill="#001702" d="M63 80h1v1h-1z" /><path fill="#016a14" d="M34 81h1v1h-1z" /><path fill="#016713" d="M36 81h1v1h-1zM37 82h1v1h-1z" /><path fill="#014e17" d="M37 81h1v1h-1z" /><path fill="#01892e" d="M40 81h1v1h-1zM52 90h1v1h-1z" /><path fill="#017527" d="M50 81h1v1h-1z" /><path fill="#004803" d="M63 81h1v1h-1z" /><path fill="#000b02" d="M34 82h1v1h-1zM35 83h1v1h-1zM36 84h1v1h-1zM37 85h1v1h-1z" /><path fill="#017015" d="M35 82h1v1h-1zM36 83h1v1h-1zM37 84h1v1h-1zM38 85h1v1h-1zM42 89h1v1h-1zM43 90h1v1h-1zM44 91h1v1h-1zM45 92h1v1h-1zM46 93h1v1h-1zM47 94h1v1h-1zM48 95h1v1h-1z" /><path fill="#015118" d="M38 82h1v1h-1zM39 83h1v1h-1z" /><path fill="#016613" d="M38 83h1v1h-1z" /><path fill="#c0c0c0" d="M47 83h1v1h-1z" /><path fill="#003311" d="M49 83h1v1h-1z" /><path fill="#018b2f" d="M53 83h1v1h-1z" /><path fill="#001c01" d="M62 83h1v1h-1z" /><path fill="#717171" d="M16 84h1v1h-1z" /><path fill="#015710" d="M39 84h1v1h-1z" /><path fill="#a4a4a4" d="M55 84h1v1h-1z" /><path fill="#f3f3f3" d="M15 85h1v1h-1z" /><path fill="#01400c" d="M39 85h1v1h-1z" /><path fill="#8c8c8c" d="M87 85h1v1h-1z" /><path fill="#000c02" d="M38 86h1v1h-1zM41 89h1v1h-1zM42 90h1v1h-1zM43 91h1v1h-1zM44 92h1v1h-1zM45 93h1v1h-1zM46 94h1v1h-1zM47 95h1v1h-1z" /><path fill="#001404" d="M39 86h1v1h-1z" /><path fill="#000301" d="M50 86h1v1h-1z" /><path fill="#018f30" d="M52 86h1v1h-1z" /><path fill="#000701" d="M40 88h1v1h-1z" /><path fill="#013c0b" d="M41 88h1v1h-1z" /><path fill="#01430c" d="M42 88h1v1h-1z" /><path fill="#013309" d="M43 88h1v1h-1z" /><path fill="#01270b" d="M44 88h1v1h-1z" /><path fill="#016522" d="M54 88h1v1h-1z" /><path fill="#002504" d="M55 88h1v1h-1z" /><path fill="#004303" d="M56 88h1v1h-1z" /><path fill="#003902" d="M57 88h1v1h-1z" /><path fill="#016211" d="M44 89h1v1h-1zM45 90h1v1h-1z" /><path fill="#015018" d="M45 89h1v1h-1z" /><path fill="#003505" d="M54 89h1v1h-1zM53 90h1v1h-1zM52 91h1v1h-1zM51 92h1v1h-1z" /><path fill="#005c04" d="M55 89h1v1h-1zM54 90h1v1h-1zM53 91h1v1h-1zM52 92h1v1h-1zM51 93h1v1h-1zM50 94h1v1h-1z" /><path fill="#004f03" d="M56 89h1v1h-1zM55 90h1v1h-1zM54 91h1v1h-1zM53 92h1v1h-1zM52 93h1v1h-1zM51 94h1v1h-1zM50 95h1v1h-1z" /><path fill="#000900" d="M57 89h1v1h-1zM56 90h1v1h-1zM55 91h1v1h-1zM54 92h1v1h-1zM53 93h1v1h-1zM52 94h1v1h-1zM51 95h1v1h-1z" /><path fill="#015019" d="M46 90h1v1h-1zM47 91h1v1h-1z" /><path fill="#016111" d="M46 91h1v1h-1zM47 92h1v1h-1z" /><path fill="#015119" d="M48 92h1v1h-1z" /><path fill="#018b2e" d="M50 92h1v1h-1z" /><path fill="#016311" d="M48 93h1v1h-1z" /><path fill="#014a17" d="M49 93h1v1h-1z" /><path fill="#003405" d="M50 93h1v1h-1z" /><path fill="#013906" d="M49 94h1v1h-1z" /><path fill="#013f07" d="M49 95h1v1h-1z" /><path fill="#000d02" d="M48 96h1v1h-1z" /><path fill="#012d05" d="M49 96h1v1h-1z" /></svg>