<svg xmlns="http://www.w3.org/2000/svg" viewBox="0 0 100 100"><path fill="#ffe875" fill-rule="evenodd" stroke="#ffe875" stroke-width=".1" d="M70 0h1v1h-1z"/><path fill="#ffe673" fill-rule="evenodd" stroke="#ffe673" stroke-width=".1" d="M71 0h1v1h-1zm-6 1h1v1h-1z"/><path fill="#ffe772" fill-rule="evenodd" stroke="#ffe772" stroke-width=".1" d="M72 0h1v1h-1z"/><path fill="#ffe670" fill-rule="evenodd" stroke="#ffe670" stroke-width=".1" d="M66 1h1v1h-1z"/><path fill="#ffe66f" fill-rule="evenodd" stroke="#ffe66f" stroke-width=".1" d="M67 1h1v1h-1z"/><path fill="#ffe66d" fill-rule="evenodd" stroke="#ffe66d" stroke-width=".1" d="M68 1h1v1h-1z"/><path fill="#ffe66b" fill-rule="evenodd" stroke="#ffe66b" stroke-width=".1" d="M69 1h1v1h-1z"/><path fill="#ffe669" fill-rule="evenodd" stroke="#ffe669" stroke-width=".1" d="M70 1h1v1h-1z"/><path fill="#ffe567" fill-rule="evenodd" stroke="#ffe567" stroke-width=".1" d="M71 1h1v1h-1zm-14 2h1v1h-1z"/><path fill="#ffe565" fill-rule="evenodd" stroke="#ffe565" stroke-width=".1" d="M72 1h1v1h-1z"/><path fill="#ffe563" fill-rule="evenodd" stroke="#ffe563" stroke-width=".1" d="M73 1h1v1h-1zm-20 3h1v1h-1z"/><path fill="#ffe76f" fill-rule="evenodd" stroke="#ffe76f" stroke-width=".1" d="M60 2h1v1h-1z"/><path fill="#ffe56c" fill-rule="evenodd" stroke="#ffe56c" stroke-width=".1" d="M61 2h1v1h-1zm-6 1h1v1h-1z"/><path fill="#ffe56a" fill-rule="evenodd" stroke="#ffe56a" stroke-width=".1" d="M62 2h1v1h-1zm-6 1h1v1h-1z"/><path fill="#ffe66a" fill-rule="evenodd" stroke="#ffe66a" stroke-width=".1" d="M63 2h1v1h-1z"/><path fill="#ffe568" fill-rule="evenodd" stroke="#ffe568" stroke-width=".1" d="M64 2h1v1h-1z"/><path fill="#ffe566" fill-rule="evenodd" stroke="#ffe566" stroke-width=".1" d="M65 2h1v1h-1zm-7 1h1v1h-1z"/><path fill="#ffe564" fill-rule="evenodd" stroke="#ffe564" stroke-width=".1" d="M66 2h1v1h-1zm-7 1h1v1h-1z"/><path fill="#ffe462" fill-rule="evenodd" stroke="#ffe462" stroke-width=".1" d="M67 2h1v1h-1z"/><path fill="#ffe460" fill-rule="evenodd" stroke="#ffe460" stroke-width=".1" d="M68 2h1v1h-1zm-7 1h1v1h-1zm-13 2h1v1h-1z"/><path fill="#ffe45e" fill-rule="evenodd" stroke="#ffe45e" stroke-width=".1" d="M69 2h1v1h-1zm-20 3h1v1h-1zm-7 1h1v1h-1z"/><path fill="#ffe45c" fill-rule="evenodd" stroke="#ffe45c" stroke-width=".1" d="M70 2h1v1h-1zm-27 4h1v1h-1z"/><path fill="#ffe35a" fill-rule="evenodd" stroke="#ffe35a" stroke-width=".1" d="M71 2h1v1h-1zm-20 3h1v1h-1zm-7 1h1v1h-1z"/><path fill="#ffe358" fill-rule="evenodd" stroke="#ffe358" stroke-width=".1" d="M72 2h1v1h-1zm-20 3h1v1h-1zm-7 1h1v1h-1z"/><path fill="#ffe562" fill-rule="evenodd" stroke="#ffe562" stroke-width=".1" d="M60 3h1v1h-1z"/><path fill="#ffe45f" fill-rule="evenodd" stroke="#ffe45f" stroke-width=".1" d="M62 3h1v1h-1zm-7 1h1v1h-1z"/><path fill="#ffe45d" fill-rule="evenodd" stroke="#ffe45d" stroke-width=".1" d="M63 3h1v1h-1zm-7 1h1v1h-1z"/><path fill="#ffe35b" fill-rule="evenodd" stroke="#ffe35b" stroke-width=".1" d="M64 3h1v1h-1zm-7 1h1v1h-1zm-20 3h1v1h-1z"/><path fill="#ffe359" fill-rule="evenodd" stroke="#ffe359" stroke-width=".1" d="M65 3h1v1h-1zm-7 1h1v1h-1zm-20 3h1v1h-1z"/><path fill="#ffe357" fill-rule="evenodd" stroke="#ffe357" stroke-width=".1" d="M66 3h1v1h-1zm-7 1h1v1h-1zm-20 3h1v1h-1z"/><path fill="#ffe255" fill-rule="evenodd" stroke="#ffe255" stroke-width=".1" d="M67 3h1v1h-1zm-7 1h1v1h-1zm-13 2h1v1h-1zm-7 1h1v1h-1z"/><path fill="#ffe253" fill-rule="evenodd" stroke="#ffe253" stroke-width=".1" d="M68 3h1v1h-1zm-20 3h1v1h-1zm-7 1h1v1h-1z"/><path fill="#ffe251" fill-rule="evenodd" stroke="#ffe251" stroke-width=".1" d="M69 3h1v1h-1zm-20 3h1v1h-1zm-7 1h1v1h-1z"/><path fill="#ffe14f" fill-rule="evenodd" stroke="#ffe14f" stroke-width=".1" d="M70 3h1v1h-1zm-20 3h1v1h-1zm-7 1h1v1h-1z"/><path fill="#ffe14d" fill-rule="evenodd" stroke="#ffe14d" stroke-width=".1" d="M71 3h1v1h-1zm-20 3h1v1h-1zm-7 1h1v1h-1z"/><path fill="#ffe14a" fill-rule="evenodd" stroke="#ffe14a" stroke-width=".1" d="M72 3h1v1h-1zm-6 1h1v1h-1zm-27 4h1v1h-1z"/><path fill="#ffe569" fill-rule="evenodd" stroke="#ffe569" stroke-width=".1" d="M50 4h1v1h-1z"/><path fill="#ffe466" fill-rule="evenodd" stroke="#ffe466" stroke-width=".1" d="M51 4h1v1h-1z"/><path fill="#ffe465" fill-rule="evenodd" stroke="#ffe465" stroke-width=".1" d="M52 4h1v1h-1z"/><path fill="#ffe461" fill-rule="evenodd" stroke="#ffe461" stroke-width=".1" d="M54 4h1v1h-1zm-14 2h1v1h-1z"/><path fill="#ffe254" fill-rule="evenodd" stroke="#ffe254" stroke-width=".1" d="M61 4h1v1h-1zm-7 1h1v1h-1z"/><path fill="#ffe252" fill-rule="evenodd" stroke="#ffe252" stroke-width=".1" d="M62 4h1v1h-1zm-7 1h1v1h-1z"/><path fill="#ffe150" fill-rule="evenodd" stroke="#ffe150" stroke-width=".1" d="M63 4h1v1h-1z"/><path fill="#ffe14e" fill-rule="evenodd" stroke="#ffe14e" stroke-width=".1" d="M64 4h1v1h-1zm-7 1h1v1h-1zm-20 3h1v1h-1z"/><path fill="#ffe14c" fill-rule="evenodd" stroke="#ffe14c" stroke-width=".1" d="M65 4h1v1h-1zm-7 1h1v1h-1zm-20 3h1v1h-1z"/><path fill="#ffe048" fill-rule="evenodd" stroke="#ffe048" stroke-width=".1" d="M67 4h1v1h-1zm-20 3h1v1h-1zm-7 1h1v1h-1z"/><path fill="#ffe046" fill-rule="evenodd" stroke="#ffe046" stroke-width=".1" d="M68 4h1v1h-1zm-20 3h1v1h-1zm-7 1h1v1h-1z"/><path fill="#ffe044" fill-rule="evenodd" stroke="#ffe044" stroke-width=".1" d="M69 4h1v1h-1zm-27 4h1v1h-1z"/><path fill="#ffdf42" fill-rule="evenodd" stroke="#ffdf42" stroke-width=".1" d="M70 4h1v1h-1zm-20 3h1v1h-1zm-7 1h1v1h-1z"/><path fill="#ffdf40" fill-rule="evenodd" stroke="#ffdf40" stroke-width=".1" d="M71 4h1v1h-1zm-13 2h1v1h-1zm-7 1h1v1h-1z"/><path fill="#ffde3f" fill-rule="evenodd" stroke="#ffde3f" stroke-width=".1" d="M72 4h1v1h-1z"/><path fill="#ffe464" fill-rule="evenodd" stroke="#ffe464" stroke-width=".1" d="M45 5h1v1h-1z"/><path fill="#ffe463" fill-rule="evenodd" stroke="#ffe463" stroke-width=".1" d="M46 5h1v1h-1z"/><path fill="#ffe361" fill-rule="evenodd" stroke="#ffe361" stroke-width=".1" d="M47 5h1v1h-1z"/><path fill="#ffe35c" fill-rule="evenodd" stroke="#ffe35c" stroke-width=".1" d="M50 5h1v1h-1z"/><path fill="#ffe256" fill-rule="evenodd" stroke="#ffe256" stroke-width=".1" d="M53 5h1v1h-1z"/><path fill="#ffe250" fill-rule="evenodd" stroke="#ffe250" stroke-width=".1" d="M56 5h1v1h-1z"/><path fill="#ffe14b" fill-rule="evenodd" stroke="#ffe14b" stroke-width=".1" d="M59 5h1v1h-1zm-7 1h1v1h-1zm-7 1h1v1h-1z"/><path fill="#ffe049" fill-rule="evenodd" stroke="#ffe049" stroke-width=".1" d="M60 5h1v1h-1zm-7 1h1v1h-1z"/><path fill="#ffe047" fill-rule="evenodd" stroke="#ffe047" stroke-width=".1" d="M61 5h1v1h-1zm-7 1h1v1h-1z"/><path fill="#ffe045" fill-rule="evenodd" stroke="#ffe045" stroke-width=".1" d="M62 5h1v1h-1zm-7 1h1v1h-1z"/><path fill="#ffdf43" fill-rule="evenodd" stroke="#ffdf43" stroke-width=".1" d="M63 5h1v1h-1zm-7 1h1v1h-1z"/><path fill="#ffdf41" fill-rule="evenodd" stroke="#ffdf41" stroke-width=".1" d="M64 5h1v1h-1zm-7 1h1v1h-1zm-13 2h1v1h-1zm-7 1h1v1h-1z"/><path fill="#ffdf3f" fill-rule="evenodd" stroke="#ffdf3f" stroke-width=".1" d="M65 5h1v1h-1zm-20 3h1v1h-1zm-7 1h1v1h-1z"/><path fill="#ffde3d" fill-rule="evenodd" stroke="#ffde3d" stroke-width=".1" d="M66 5h1v1h-1zm-20 3h1v1h-1zm-7 1h1v1h-1z"/><path fill="#ffde3b" fill-rule="evenodd" stroke="#ffde3b" stroke-width=".1" d="M67 5h1v1h-1zm-20 3h1v1h-1zm-7 1h1v1h-1z"/><path fill="#ffde39" fill-rule="evenodd" stroke="#ffde39" stroke-width=".1" d="M68 5h1v1h-1zm-20 3h1v1h-1zm-7 1h1v1h-1z"/><path fill="#ffdd37" fill-rule="evenodd" stroke="#ffdd37" stroke-width=".1" d="M69 5h1v1h-1zm-20 3h1v1h-1zm-7 1h1v1h-1z"/><path fill="#ffdd35" fill-rule="evenodd" stroke="#ffdd35" stroke-width=".1" d="M70 5h2v1h-2zm-6 1h4v1h-4zm-7 1h5v1h-5zm-7 1h5v1h-5zm-6 1h4v1h-4zm-7 1h4v1h-4z"/><path fill="#ffe360" fill-rule="evenodd" stroke="#ffe360" stroke-width=".1" d="M41 6h1v1h-1z"/><path fill="#ffe356" fill-rule="evenodd" stroke="#ffe356" stroke-width=".1" d="M46 6h1v1h-1z"/><path fill="#ffde3e" fill-rule="evenodd" stroke="#ffde3e" stroke-width=".1" d="M59 6h1v1h-1z"/><path fill="#ffde3c" fill-rule="evenodd" stroke="#ffde3c" stroke-width=".1" d="M60 6h1v1h-1zm-7 1h1v1h-1z"/><path fill="#ffde3a" fill-rule="evenodd" stroke="#ffde3a" stroke-width=".1" d="M61 6h1v1h-1zm-7 1h1v1h-1z"/><path fill="#ffdd38" fill-rule="evenodd" stroke="#ffdd38" stroke-width=".1" d="M62 6h1v1h-1z"/><path fill="#ffdd36" fill-rule="evenodd" stroke="#ffdd36" stroke-width=".1" d="M63 6h1v1h-1zm-7 1h1v1h-1zm-13 2h1v1h-1z"/><path fill="#ffdc34" fill-rule="evenodd" stroke="#ffdc34" stroke-width=".1" d="M68 6h4v1h-2v1h-7v1h-6v1h-7v1h-7v1h-6v-1h4v-1h7v-1h7v-1h7v-1h6z"/><path fill="#ffe04a" fill-rule="evenodd" stroke="#ffe04a" stroke-width=".1" d="M46 7h1v1h-1z"/><path fill="#ffdf44" fill-rule="evenodd" stroke="#ffdf44" stroke-width=".1" d="M49 7h1v1h-1z"/><path fill="#ffdf3e" fill-rule="evenodd" stroke="#ffdf3e" stroke-width=".1" d="M52 7h1v1h-1z"/><path fill="#ffde38" fill-rule="evenodd" stroke="#ffde38" stroke-width=".1" d="M55 7h1v1h-1z"/><path fill="#ffdb33" fill-rule="evenodd" stroke="#ffdb33" stroke-width=".1" d="M70 7h1v2h-6v1h-7v1h-6v1h-7v1h-7v1h-1v-2h6v-1h7v-1h7v-1h6v-1h7z"/><path fill="#ffdb32" fill-rule="evenodd" stroke="#ffdb32" stroke-width=".1" d="M71 7h1v1h-1z"/><path fill="#ffda33" fill-rule="evenodd" stroke="#ffda33" stroke-width=".1" d="M71 8h1v1h-1z"/><path fill="#ffda32" fill-rule="evenodd" stroke="#ffda32" stroke-width=".1" d="M65 9h6v1h-4v1h-7v1h-7v1h-6v1h-7v1h-3v-1h1v-1h7v-1h7v-1h6v-1h7z"/><path fill="#ffd931" fill-rule="evenodd" stroke="#ffd931" stroke-width=".1" d="M67 10h3v1h-1v1h-7v1h-7v1h-7v1h-6v1h-5v-1h3v-1h7v-1h6v-1h7v-1h7z"/><path fill="#ffd930" fill-rule="evenodd" stroke="#ffd930" stroke-width=".1" d="M70 10h1v1h-1z"/><path fill="#40d0ff" fill-rule="evenodd" stroke="#40d0ff" stroke-width=".1" d="M2 11h1v1h-1zm2 0h1v1h-1zm-3 2h1v1h-1z"/><path fill="#40d1ff" fill-rule="evenodd" stroke="#40d1ff" stroke-width=".1" d="M3 11h1v1h-1zm2 0h1v1h-1zm-4 1h1v1h-1z"/><path fill="#ffd830" fill-rule="evenodd" stroke="#ffd830" stroke-width=".1" d="M69 11h1v2h-6v1h-7v1h-7v1h-7v1h-6v-1h5v-1h6v-1h7v-1h7v-1h7z"/><path fill="#ffd72f" fill-rule="evenodd" stroke="#ffd72f" stroke-width=".1" d="M70 11h1v1h-1zm-6 2h6v1h-5v1h-6v1h-7v1h-7v1h-7v1h-1v-2h6v-1h7v-1h7v-1h7z"/><path fill="#8c71fd" fill-rule="evenodd" stroke="#8c71fd" stroke-width=".1" d="M94 11h1v1h-1z"/><path fill="#8d71fd" fill-rule="evenodd" stroke="#8d71fd" stroke-width=".1" d="M95 11h1v1h-1z"/><path fill="#8e6efd" fill-rule="evenodd" stroke="#8e6efd" stroke-width=".1" d="M96 11h1v1h-1z"/><path fill="#8f6efd" fill-rule="evenodd" stroke="#8f6efd" stroke-width=".1" d="M97 11h1v1h-1z"/><path fill="#41d1ff" fill-rule="evenodd" stroke="#41d1ff" stroke-width=".1" d="M2 12h6v1h-2v1h-1v1h-1v1h-2z"/><path fill="#42d0ff" fill-rule="evenodd" stroke="#42d0ff" stroke-width=".1" d="M8 12h1v1h-1zm-3 2h1v1h-1zm0 1v1h-1v-1z"/><path fill="#43ceff" fill-rule="evenodd" stroke="#43ceff" stroke-width=".1" d="M9 12h1v1h-1zm0 1v1h-1v-1zm-5 3h1v1h-1z"/><path fill="#4cf" fill-rule="evenodd" stroke="#4cf" stroke-width=".1" d="M10 12h2v1h-2zm-7 6h1v1h-1z"/><path fill="#8777fd" fill-rule="evenodd" stroke="#8777fd" stroke-width=".1" d="M88 12h1v1h-1z"/><path fill="#8876fd" fill-rule="evenodd" stroke="#8876fd" stroke-width=".1" d="M89 12h1v1h-1z"/><path fill="#8975fd" fill-rule="evenodd" stroke="#8975fd" stroke-width=".1" d="M90 12h1v1h-1zm-64 47h1v1h-1z"/><path fill="#8b74fe" fill-rule="evenodd" stroke="#8b74fe" stroke-width=".1" d="M91 12h1v1h-1zm-3 2h1v1h-1zm0 1v1h-1v-1zm-4 2h1v1h-1zm0 1v1h-1v-1zm-4 2h1v1h-1zm0 1v1h-1v-1zm-4 2h1v1h-1zm-32 24h1v1h-1zm-4 3h1v1h-1zm-4 3h1v1h-1zm-4 3h1v1h-1zm-4 3h1v1h-1z"/><path fill="#8c72fe" fill-rule="evenodd" stroke="#8c72fe" stroke-width=".1" d="M92 12h1v1h-1zm0 1v1h-1v-1zm-1 1v1h-1v-1zm-3 1h1v1h-1zm0 1v1h-1v-1zm-1 1v1h-1v-1zm-3 1h1v1h-1zm0 1v1h-1v-1zm-1 1v1h-1v-1zm-3 1h1v1h-1zm0 1v1h-1v-1zm-36 26h1v1h-1zm0 1v1h-1v-1zm-1 1v1h-1v-1zm-3 1h1v1h-1zm0 1v1h-1v-1zm-1 1v1h-1v-1zm-3 1h1v1h-1zm0 1v1h-1v-1zm-1 1v1h-1v-1zm-3 1h1v1h-1zm0 1v1h-1v-1zm-1 1v1h-1v-1zm-3 1h1v1h-1z"/><path fill="#8d71fe" fill-rule="evenodd" stroke="#8d71fe" stroke-width=".1" d="M93 12h1v1h-1zm0 1v1h-1v-1zm-1 1v1h-1v-1zm-3 1h1v1h-1zm0 1v1h-1v-1zm-1 1v1h-1v-1zm-3 1h1v1h-1zm0 1v1h-1v-1zm-1 1v1h-1v-1zm-3 1h1v1h-1zm0 1v1h-1v-1zm-36 26h1v1h-1zm0 1v1h-1v-1zm-4 2h1v1h-1zm0 1v1h-1v-1zm-4 2h1v1h-1zm0 1v1h-1v-1zm-4 2h1v1h-1zm0 1v1h-1v-1zm-4 2h1v1h-1zm0 1v1h-1v-1z"/><path fill="#8d70fe" fill-rule="evenodd" stroke="#8d70fe" stroke-width=".1" d="M94 12h1v1h-1zm-4 3h1v1h-1zm-4 3h1v1h-1zm-4 3h1v1h-1zm-39 29h1v1h-1zm-4 3h1v1h-1zm-4 3h1v1h-1zm-4 3h1v1h-1z"/><path fill="#8e6ffe" fill-rule="evenodd" stroke="#8e6ffe" stroke-width=".1" d="M95 12h1v1h-1zm-3 2h1v1h-1zm0 1v1h-1v-1zm-4 2h1v1h-1zm0 1v1h-1v-1zm-4 2h1v1h-1zm0 1v1h-1v-1zm-4 2h1v1h-1zm-36 27h1v1h-1zm0 1v1h-1v-1zm-4 2h1v1h-1zm0 1v1h-1v-1zm-4 2h1v1h-1zm0 1v1h-1v-1zm-4 2h1v1h-1zm0 1v1h-1v-1z"/><path fill="#8f6efe" fill-rule="evenodd" stroke="#8f6efe" stroke-width=".1" d="M96 12h1v1h-1zm-3 2h1v1h-1zm0 1v1h-1v-1zm-4 2h1v1h-1zm0 1v1h-1v-1zm-4 2h1v1h-1zm0 1v1h-1v-1zm-4 2h1v1h-1zm0 1v1h-1v-1zm-36 26h1v1h-1zm0 1v1h-1v-1zm-4 2h1v1h-1zm0 1v1h-1v-1zm-4 2h1v1h-1zm0 1v1h-1v-1zm-4 2h1v1h-1zm0 1v1h-1v-1zm-4 2h1v1h-1z"/><path fill="#906dfe" fill-rule="evenodd" stroke="#906dfe" stroke-width=".1" d="M97 12h1v1h-1zm-3 2h1v1h-1zm0 1v1h-1v-1zm-4 2h1v1h-1zm0 1v1h-1v-1zm-4 2h1v1h-1zm0 1v1h-1v-1zm-4 2h1v1h-1zm0 1v1h-1v-1zm-40 29h1v1h-1zm0 1v1h-1v-1zm-4 2h1v1h-1zm0 1v1h-1v-1zm-4 2h1v1h-1zm0 1v1h-1v-1zm-4 2h1v1h-1zm0 1v1h-1v-1z"/><path fill="#906bfd" fill-rule="evenodd" stroke="#906bfd" stroke-width=".1" d="M98 12h1v1h-1z"/><path fill="#41d0ff" fill-rule="evenodd" stroke="#41d0ff" stroke-width=".1" d="M6 13h1v1h-1zm-5 1h1v1h-1z"/><path fill="#42cfff" fill-rule="evenodd" stroke="#42cfff" stroke-width=".1" d="M7 13h1v1h-1zm-4 3h1v1h-1z"/><path fill="#44cdff" fill-rule="evenodd" stroke="#44cdff" stroke-width=".1" d="M9 13h1v1h-1zm0 1v1h-1v-1zm-3 1h1v1h-1zm0 1v1h-1v-1zm-1 1v1h-1v-1z"/><path fill="#45ccff" fill-rule="evenodd" stroke="#45ccff" stroke-width=".1" d="M10 13h1v1h-1zm0 1v1h-1v-1zm-3 1h1v1h-1zm0 1v1h-1v-1zm-1 1v1h-1v-1z"/><path fill="#46cbff" fill-rule="evenodd" stroke="#46cbff" stroke-width=".1" d="M11 13h1v1h-1zm-3 2h1v1h-1zm0 1v1h-1v-1zm-4 2h1v1h-1z"/><path fill="#47caff" fill-rule="evenodd" stroke="#47caff" stroke-width=".1" d="M12 13h1v1h-1zm-4 3h1v1h-1z"/><path fill="#48c9ff" fill-rule="evenodd" stroke="#48c9ff" stroke-width=".1" d="M13 13h1v1h-1zm-4 3h1v1h-1zm-4 3h1v1h-1z"/><path fill="#49c6ff" fill-rule="evenodd" stroke="#49c6ff" stroke-width=".1" d="M14 13h1v1h-1zm-3 3h1v1h-1zm-4 3h1v1h-1zm-2 2h1v1h-1z"/><path fill="#48c6ff" fill-rule="evenodd" stroke="#48c6ff" stroke-width=".1" d="M15 13h1v1h-1z"/><path fill="#49c4ff" fill-rule="evenodd" stroke="#49c4ff" stroke-width=".1" d="M16 13h1v1h-1z"/><path fill="#847afd" fill-rule="evenodd" stroke="#847afd" stroke-width=".1" d="M83 13h1v1h-1z"/><path fill="#8679fd" fill-rule="evenodd" stroke="#8679fd" stroke-width=".1" d="M84 13h2v1h-2z"/><path fill="#8878fe" fill-rule="evenodd" stroke="#8878fe" stroke-width=".1" d="M86 13h1v1h-1zm-4 3h1v1h-1zm-4 3h1v1h-1zm-4 3h1v1h-1zm-32 24h1v1h-1zm-4 3h1v1h-1zm-4 3h1v1h-1zm-4 3h1v1h-1z"/><path fill="#8876fe" fill-rule="evenodd" stroke="#8876fe" stroke-width=".1" d="M87 13h1v1h-1zm-4 3h1v1h-1zm-4 3h1v1h-1z"/><path fill="#8975fe" fill-rule="evenodd" stroke="#8975fe" stroke-width=".1" d="M88 13h1v1h-1zm-4 3h1v1h-1zm-4 3h1v1h-1zm-4 3h1v1h-1zm-32 24h1v1h-1zm-4 3h1v1h-1zm-4 3h1v1h-1zm-4 3h1v1h-1zm-4 3h1v1h-1z"/><path fill="#8a74fe" fill-rule="evenodd" stroke="#8a74fe" stroke-width=".1" d="M89 13h1v1h-1zm-4 3h1v1h-1zm-4 3h1v1h-1zm-4 3h1v1h-1zm-32 24h1v1h-1zm-4 3h1v1h-1zm-4 3h1v1h-1zm-4 3h1v1h-1zm-4 3h1v1h-1z"/><path fill="#8b73fe" fill-rule="evenodd" stroke="#8b73fe" stroke-width=".1" d="M90 13h1v1h-1zm0 1v1h-1v-1zm-4 2h1v1h-1zm0 1v1h-1v-1zm-4 2h1v1h-1zm0 1v1h-1v-1zm-4 2h1v1h-1zm-33 25h1v1h-1zm-2 1h1v1h-1zm0 1v1h-1v-1zm-1 1v1h-1v-1zm-3 1h1v1h-1zm0 1v1h-1v-1zm-1 1v1h-1v-1zm-3 1h1v1h-1zm0 1v1h-1v-1zm-1 1v1h-1v-1zm-3 1h1v1h-1zm0 1v1h-1v-1zm-1 1v1h-1v-1z"/><path fill="#8e70fe" fill-rule="evenodd" stroke="#8e70fe" stroke-width=".1" d="M93 13h1v1h-1zm-4 3h1v1h-1zm-4 3h1v1h-1zm-4 3h1v1h-1zm-36 27h1v1h-1zm-3 2h1v1h-1zm0 1v1h-1v-1zm-4 2h1v1h-1zm0 1v1h-1v-1zm-4 2h1v1h-1zm0 1v1h-1v-1zm-4 2h1v1h-1zm0 1v1h-1v-1z"/><path fill="#8f6ffe" fill-rule="evenodd" stroke="#8f6ffe" stroke-width=".1" d="M94 13h1v1h-1zm-4 3h1v1h-1zm-4 3h1v1h-1zm-4 3h1v1h-1zm-40 30h1v1h-1zm-4 3h1v1h-1zm-4 3h1v1h-1zm-4 3h1v1h-1z"/><path fill="#906efe" fill-rule="evenodd" stroke="#906efe" stroke-width=".1" d="M95 13h1v1h-1zm-4 3h1v1h-1zm-4 3h1v1h-1zm-4 3h1v1h-1zm-40 30h1v1h-1zm-4 3h1v1h-1zm-4 3h1v1h-1zm-4 3h1v1h-1z"/><path fill="#906cfe" fill-rule="evenodd" stroke="#906cfe" stroke-width=".1" d="M96 13h1v1h-1zm-4 3h1v1h-1zm-4 3h1v1h-1zm-4 3h1v1h-1zm-4 3h1v1h-1zm-36 27h1v1h-1zm-4 3h1v1h-1zm-4 3h1v1h-1zm-4 3h1v1h-1z"/><path fill="#916bfe" fill-rule="evenodd" stroke="#916bfe" stroke-width=".1" d="M97 13h1v1h-1zm-4 3h1v1h-1zm-4 3h1v1h-1zm-4 3h1v1h-1zm-4 3h1v1h-1zm-40 30h1v1h-1zm-4 3h1v1h-1zm-4 3h1v1h-1z"/><path fill="#926afe" fill-rule="evenodd" stroke="#926afe" stroke-width=".1" d="M98 13h1v1h-1zm0 1v1h-1v-1zm-4 2h1v1h-1zm0 1v1h-1v-1zm-4 2h1v1h-1zm0 1v1h-1v-1zm-4 2h1v1h-1zm0 1v1h-1v-1zm-4 2h1v1h-1zm0 1v1h-1v-1zm-40 29h1v1h-1zm0 1v1h-1v-1zm-4 2h1v1h-1zm0 1v1h-1v-1zm-4 2h1v1h-1zm0 1v1h-1v-1zm-4 2h1v1h-1z"/><path fill="#43cfff" fill-rule="evenodd" stroke="#43cfff" stroke-width=".1" d="M6 14h1v1h-1zm0 1v1h-1v-1z"/><path fill="#44ceff" fill-rule="evenodd" stroke="#44ceff" stroke-width=".1" d="M7 14h1v1h-1zm-4 3h1v1h-1z"/><path fill="#46caff" fill-rule="evenodd" stroke="#46caff" stroke-width=".1" d="M10 14h1v1h-1zm0 1v1h-1v-1zm-4 2h1v1h-1zm0 1v1h-1v-1zm-1 1v1h-1v-1z"/><path fill="#47c9ff" fill-rule="evenodd" stroke="#47c9ff" stroke-width=".1" d="M11 14h1v1h-1zm0 1v1h-1v-1zm-4 2h1v1h-1zm0 1v1h-1v-1z"/><path fill="#48c8ff" fill-rule="evenodd" stroke="#48c8ff" stroke-width=".1" d="M12 14h1v1h-1zm0 1v1h-1v-1zm-4 2h1v1h-1zm0 1v1h-1v-1z"/><path fill="#49c7ff" fill-rule="evenodd" stroke="#49c7ff" stroke-width=".1" d="M13 14h1v1h-1zm0 1v1h-1v-1zm-3 1h1v1h-1zm0 1v1h-1v-1zm-1 1v1h-1v-1zm-3 1h1v1h-1zm0 1v1h-1v-1z"/><path fill="#4ac6ff" fill-rule="evenodd" stroke="#4ac6ff" stroke-width=".1" d="M14 14h1v1h-1zm0 1v1h-1v-1zm-4 2h1v1h-1zm0 1v1h-1v-1zm-4 2h1v1h-1z"/><path fill="#4bc5ff" fill-rule="evenodd" stroke="#4bc5ff" stroke-width=".1" d="M15 14h1v1h-1zm0 1v1h-1v-1zm-4 2h1v1h-1zm0 1v1h-1v-1zm-4 2h1v1h-1zm0 1v1h-1v-1z"/><path fill="#4bc4ff" fill-rule="evenodd" stroke="#4bc4ff" stroke-width=".1" d="M16 14h1v1h-1zm-3 2h1v1h-1zm0 1v1h-1v-1zm-4 2h1v1h-1zm0 1v1h-1v-1z"/><path fill="#4cc3ff" fill-rule="evenodd" stroke="#4cc3ff" stroke-width=".1" d="M17 14h1v1h-1zm-2 1h1v1h-1zm0 1v1h-1v-1zm-1 1v1h-1v-1zm-3 1h1v1h-1zm0 1v1h-1v-1zm-1 1v1h-1v-1zm-3 1h1v1h-1zm0 1v1h-1v-1z"/><path fill="#4dc2ff" fill-rule="evenodd" stroke="#4dc2ff" stroke-width=".1" d="M18 14h1v1h-1zm-2 1h1v1h-1zm0 1v1h-1v-1zm-1 1v1h-1v-1zm-3 1h1v1h-1zm0 1v1h-1v-1zm-1 1v1h-1v-1zm-3 1h1v1h-1zm0 1v1h-1v-1z"/><path fill="#4ec0ff" fill-rule="evenodd" stroke="#4ec0ff" stroke-width=".1" d="M19 14h1v1h-1zm0 1v1h-1v-1zm-4 2h1v1h-1zm0 1v1h-1v-1zm-4 2h1v1h-1zm0 1v1h-1v-1zm-4 2h1v1h-1z"/><path fill="#4fbeff" fill-rule="evenodd" stroke="#4fbeff" stroke-width=".1" d="M20 14h2v1h-2zm-13 10h1v1h-1z"/><path fill="#50bdff" fill-rule="evenodd" stroke="#50bdff" stroke-width=".1" d="M22 14h1v1h-1zm-7 5h1v1h-1zm-4 3h1v1h-1zm-4 3h1v1h-1z"/><path fill="#ffd62e" fill-rule="evenodd" stroke="#ffd62e" stroke-width=".1" d="M65 14h5v1h-3v1h-7v1h-6v1h-7v1h-7v1h-3v-1h1v-1h7v-1h7v-1h7v-1h6z"/><path fill="#827ffd" fill-rule="evenodd" stroke="#827ffd" stroke-width=".1" d="M78 14h1v1h-1z"/><path fill="#837efd" fill-rule="evenodd" stroke="#837efd" stroke-width=".1" d="M79 14h1v1h-1z"/><path fill="#847cfd" fill-rule="evenodd" stroke="#847cfd" stroke-width=".1" d="M80 14h1v1h-1z"/><path fill="#847cfe" fill-rule="evenodd" stroke="#847cfe" stroke-width=".1" d="M81 14h1v1h-1zm-2 1h1v1h-1zm0 1v1h-1v-1zm-1 1v1h-1v-1zm-3 1h1v1h-1zm0 1v1h-1v-1zm-1 1v1h-1v-1zm-3 1h1v1h-1zm0 1v1h-1v-1zm-1 1v1h-1v-1zm-31 22h1v1h-1zm0 1v1h-1v-1zm-1 1v1h-1v-1zm-3 1h1v1h-1zm0 1v1h-1v-1zm-1 1v1h-1v-1zm-3 1h1v1h-1zm0 1v1h-1v-1zm-1 1v1h-1v-1zm-3 1h1v1h-1zm0 1v1h-1v-1zm-1 1v1h-1v-1z"/><path fill="#857bfe" fill-rule="evenodd" stroke="#857bfe" stroke-width=".1" d="M82 14h1v1h-1zm-2 1h1v1h-1zm0 1v1h-1v-1zm-1 1v1h-1v-1zm-3 1h1v1h-1zm0 1v1h-1v-1zm-1 1v1h-1v-1zm-3 1h1v1h-1zm0 1v1h-1v-1zm-1 1v1h-1v-1zm-3 1h1v1h-1zm-28 21h1v1h-1zm0 1v1h-1v-1zm-4 2h1v1h-1zm0 1v1h-1v-1zm-4 2h1v1h-1zm0 1v1h-1v-1zm-4 2h1v1h-1zm0 1v1h-1v-1z"/><path fill="#8679fe" fill-rule="evenodd" stroke="#8679fe" stroke-width=".1" d="M83 14h1v1h-1zm0 1v1h-1v-1zm-4 2h1v1h-1zm0 1v1h-1v-1zm-4 2h1v1h-1zm0 1v1h-1v-1zm-4 2h1v1h-1zm0 1v1h-1v-1zm-28 20h1v1h-1zm0 1v1h-1v-1zm-4 2h1v1h-1zm0 1v1h-1v-1zm-4 2h1v1h-1zm-4 3h1v1h-1zm-4 3h1v1h-1z"/><path fill="#8778fe" fill-rule="evenodd" stroke="#8778fe" stroke-width=".1" d="M84 14h1v1h-1zm0 1v1h-1v-1zm-4 2h1v1h-1zm0 1v1h-1v-1zm-4 2h1v1h-1zm0 1v1h-1v-1zm-4 2h1v1h-1zm0 1v1h-1v-1zm-28 20h1v1h-1zm0 1v1h-1v-1zm-4 2h1v1h-1zm0 1v1h-1v-1zm-4 2h1v1h-1zm0 1v1h-1v-1zm-4 2h1v1h-1zm0 1v1h-1v-1zm-4 2h1v1h-1zm0 1v1h-1v-1z"/><path fill="#8877fe" fill-rule="evenodd" stroke="#8877fe" stroke-width=".1" d="M85 14h1v1h-1zm0 1v1h-1v-1zm-4 2h1v1h-1zm0 1v1h-1v-1zm-4 2h1v1h-1zm0 1v1h-1v-1zm-4 2h1v1h-1zm-28 21h1v1h-1zm0 1v1h-1v-1zm-4 2h1v1h-1zm0 1v1h-1v-1zm-4 2h1v1h-1zm0 1v1h-1v-1zm-4 2h1v1h-1zm0 1v1h-1v-1zm-4 2h1v1h-1zm0 1v1h-1v-1z"/><path fill="#8976fe" fill-rule="evenodd" stroke="#8976fe" stroke-width=".1" d="M86 14h1v1h-1zm0 1v1h-1v-1zm-4 2h1v1h-1zm0 1v1h-1v-1zm-4 2h1v1h-1zm0 1v1h-1v-1zm-3 1h1v1h-1zm0 1v1h-1v-1zm-29 21h1v1h-1zm0 1v1h-1v-1zm-3 1h1v1h-1zm0 1v1h-1v-1zm-1 1v1h-1v-1zm-3 1h1v1h-1zm0 1v1h-1v-1zm-1 1v1h-1v-1zm-3 1h1v1h-1zm0 1v1h-1v-1zm-1 1v1h-1v-1zm-3 1h1v1h-1zm0 1v1h-1v-1zm-1 1v1h-1v-1zm-3 1h1v1h-1z"/><path fill="#8a75fe" fill-rule="evenodd" stroke="#8a75fe" stroke-width=".1" d="M87 14h1v1h-1zm0 1v1h-1v-1zm-4 2h1v1h-1zm0 1v1h-1v-1zm-4 2h1v1h-1zm0 1v1h-1v-1zm-4 2h1v1h-1zm-29 22h1v1h-1zm-3 2h1v1h-1zm0 1v1h-1v-1zm-4 2h1v1h-1zm0 1v1h-1v-1zm-4 2h1v1h-1zm0 1v1h-1v-1zm-4 2h1v1h-1zm0 1v1h-1v-1zm-4 2h1v1h-1z"/><path fill="#916cfe" fill-rule="evenodd" stroke="#916cfe" stroke-width=".1" d="M95 14h1v1h-1zm0 1v1h-1v-1zm-4 2h1v1h-1zm0 1v1h-1v-1zm-4 2h1v1h-1zm0 1v1h-1v-1zm-4 2h1v1h-1zm0 1v1h-1v-1zm-40 29h1v1h-1zm0 1v1h-1v-1zm-4 2h1v1h-1zm0 1v1h-1v-1zm-4 2h1v1h-1zm0 1v1h-1v-1zm-4 2h1v1h-1zm0 1v1h-1v-1z"/><path fill="#926bfe" fill-rule="evenodd" stroke="#926bfe" stroke-width=".1" d="M96 14h1v1h-1zm0 1v1h-1v-1zm-4 2h1v1h-1zm0 1v1h-1v-1zm-4 2h1v1h-1zm0 1v1h-1v-1zm-4 2h1v1h-1zm0 1v1h-1v-1zm-4 2h1v1h-1zm-36 27h1v1h-1zm0 1v1h-1v-1zm-4 2h1v1h-1zm0 1v1h-1v-1zm-4 2h1v1h-1zm0 1v1h-1v-1zm-4 2h1v1h-1zm0 1v1h-1v-1z"/><path fill="#9268fd" fill-rule="evenodd" stroke="#9268fd" stroke-width=".1" d="M98 14h1v1h-1z"/><path fill="#4dc1ff" fill-rule="evenodd" stroke="#4dc1ff" stroke-width=".1" d="M17 15h1v1h-1zm-4 3h1v1h-1zm-4 3h1v1h-1z"/><path fill="#4fbfff" fill-rule="evenodd" stroke="#4fbfff" stroke-width=".1" d="M19 15h1v1h-1zm-3 2h1v1h-1zm0 1v1h-1v-1zm-4 2h1v1h-1zm0 1v1h-1v-1zm-4 2h1v1h-1z"/><path fill="#50beff" fill-rule="evenodd" stroke="#50beff" stroke-width=".1" d="M20 15h1v1h-1zm0 1v1h-1v-1zm-3 1h1v1h-1zm0 1v1h-1v-1zm-4 2h1v1h-1zm0 1v1h-1v-1zm-4 2h1v1h-1zm0 1v1h-1v-1z"/><path fill="#51bdff" fill-rule="evenodd" stroke="#51bdff" stroke-width=".1" d="M21 15h1v1h-1zm-3 2h1v1h-1zm0 1v1h-1v-1zm-4 2h1v1h-1zm0 1v1h-1v-1zm-4 2h1v1h-1zm0 1v1h-1v-1z"/><path fill="#52bcff" fill-rule="evenodd" stroke="#52bcff" stroke-width=".1" d="M22 15h1v1h-1zm-3 2h1v1h-1zm0 1v1h-1v-1zm-4 2h1v1h-1zm0 1v1h-1v-1zm-4 2h1v1h-1zm0 1v1h-1v-1z"/><path fill="#53bbff" fill-rule="evenodd" stroke="#53bbff" stroke-width=".1" d="M23 15h1v1h-1zm-4 3h1v1h-1zm-4 3h1v1h-1zm-4 3h1v1h-1z"/><path fill="#54b9ff" fill-rule="evenodd" stroke="#54b9ff" stroke-width=".1" d="M24 15h1v1h-1zm0 1v1h-1v-1zm-1 1v1h-1v-1zm-3 1h1v1h-1zm0 1v1h-1v-1zm-1 1v1h-1v-1zm-3 1h1v1h-1zm0 1v1h-1v-1zm-1 1v1h-1v-1zm-3 1h1v1h-1zm0 1v1h-1v-1zm-1 1v1h-1v-1z"/><path fill="#54b8ff" fill-rule="evenodd" stroke="#54b8ff" stroke-width=".1" d="M25 15h1v1h-1zm-4 3h1v1h-1zm-4 3h1v1h-1zm-4 3h1v1h-1z"/><path fill="#55b6ff" fill-rule="evenodd" stroke="#55b6ff" stroke-width=".1" d="M26 15h2v1h-2z"/><path fill="#56b5ff" fill-rule="evenodd" stroke="#56b5ff" stroke-width=".1" d="M28 15h1v1h-1z"/><path fill="#ffd52d" fill-rule="evenodd" stroke="#ffd52d" stroke-width=".1" d="M67 15h2v2h-7v1h-7v1h-6v1h-7v1h-5v-1h3v-1h7v-1h7v-1h6v-1h7z"/><path fill="#fdd32f" fill-rule="evenodd" stroke="#fdd32f" stroke-width=".1" d="M69 15h1v1h-1z"/><path fill="#7e83ff" fill-rule="evenodd" stroke="#7e83ff" stroke-width=".1" d="M73 15h1v1h-1zm-3 2h1v1h-1zm-40 30h1v1h-1zm-4 3h1v1h-1z"/><path fill="#7f81fd" fill-rule="evenodd" stroke="#7f81fd" stroke-width=".1" d="M74 15h1v1h-1zm-51 38h1v1h-1z"/><path fill="#8081fe" fill-rule="evenodd" stroke="#8081fe" stroke-width=".1" d="M75 15h1v1h-1zm-3 2h1v1h-1zm0 1v1h-1v-1zm-40 29h1v1h-1zm0 1v1h-1v-1zm-4 2h1v1h-1zm0 1v1h-1v-1zm-4 2h1v1h-1z"/><path fill="#8180fe" fill-rule="evenodd" stroke="#8180fe" stroke-width=".1" d="M76 15h1v1h-1zm-2 1h1v1h-1zm0 1v1h-1v-1zm-1 1v1h-1v-1zm-3 1h1v1h-1zm0 1v1h-1v-1zm-36 26h1v1h-1zm0 1v1h-1v-1zm-1 1v1h-1v-1zm-3 1h1v1h-1zm0 1v1h-1v-1zm-1 1v1h-1v-1zm-3 1h1v1h-1zm0 1v1h-1v-1zm-1 1v1h-1v-1z"/><path fill="#827ffe" fill-rule="evenodd" stroke="#827ffe" stroke-width=".1" d="M77 15h1v1h-1zm-3 2h1v1h-1zm0 1v1h-1v-1zm-4 2h1v1h-1zm0 1v1h-1v-1zm-35 25h1v1h-1zm0 1v1h-1v-1zm-1 1v1h-1v-1zm-3 1h1v1h-1zm0 1v1h-1v-1zm-1 1v1h-1v-1zm-3 1h1v1h-1zm0 1v1h-1v-1zm-1 1v1h-1v-1z"/><path fill="#837efe" fill-rule="evenodd" stroke="#837efe" stroke-width=".1" d="M78 15h1v1h-1zm-3 2h1v1h-1zm0 1v1h-1v-1zm-4 2h1v1h-1zm-36 27h1v1h-1zm-4 3h1v1h-1zm-4 3h1v1h-1z"/><path fill="#867afe" fill-rule="evenodd" stroke="#867afe" stroke-width=".1" d="M81 15h1v1h-1zm0 1v1h-1v-1zm-4 2h1v1h-1zm0 1v1h-1v-1zm-4 2h1v1h-1zm0 1v1h-1v-1zm-4 2h1v1h-1zm-28 21h1v1h-1zm0 1v1h-1v-1zm-4 2h1v1h-1zm0 1v1h-1v-1zm-4 2h1v1h-1zm0 1v1h-1v-1zm-4 2h1v1h-1zm0 1v1h-1v-1z"/><path fill="#936afe" fill-rule="evenodd" stroke="#936afe" stroke-width=".1" d="M96 15h1v1h-1zm-4 3h1v1h-1zm-4 3h1v1h-1zm-4 3h1v1h-1zm-4 3h1v1h-1z"/><path fill="#9468fe" fill-rule="evenodd" stroke="#9468fe" stroke-width=".1" d="M97 15h1v1h-1zm0 1v1h-1v-1zm-1 1v1h-1v-1zm-3 1h1v1h-1zm0 1v1h-1v-1zm-1 1v1h-1v-1zm-3 1h1v1h-1zm0 1v1h-1v-1zm-1 1v1h-1v-1zm-3 1h1v1h-1zm0 1v1h-1v-1zm-1 1v1h-1v-1zm-3 1h1v1h-1zm0 1v1h-1v-1zm-1 1v1h-1v-1zm-36 26h1v1h-1zm0 1v1h-1v-1zm-3 1h1v1h-1zm0 1v1h-1v-1zm-1 1v1h-1v-1zm-3 1h1v1h-1zm0 1v1h-1v-1zm-1 1v1h-1v-1zm-3 1h1v1h-1zm0 1v1h-1v-1zm-1 1v1h-1v-1z"/><path fill="#41cfff" fill-rule="evenodd" stroke="#41cfff" stroke-width=".1" d="M2 16h1v1h-1z"/><path fill="#4ac5ff" fill-rule="evenodd" stroke="#4ac5ff" stroke-width=".1" d="M12 16h1v1h-1zm-4 3h1v1h-1z"/><path fill="#4ec1ff" fill-rule="evenodd" stroke="#4ec1ff" stroke-width=".1" d="M16 16h1v1h-1zm-4 3h1v1h-1zm-4 3h1v1h-1z"/><path fill="#4fc0ff" fill-rule="evenodd" stroke="#4fc0ff" stroke-width=".1" d="M17 16h1v1h-1zm-4 3h1v1h-1zm-4 3h1v1h-1z"/><path fill="#50bfff" fill-rule="evenodd" stroke="#50bfff" stroke-width=".1" d="M18 16h1v1h-1zm-4 3h1v1h-1zm-4 3h1v1h-1z"/><path fill="#51bcff" fill-rule="evenodd" stroke="#51bcff" stroke-width=".1" d="M20 16h1v1h-1zm-4 3h1v1h-1zm-4 3h1v1h-1zm-4 3h1v1h-1z"/><path fill="#52bbff" fill-rule="evenodd" stroke="#52bbff" stroke-width=".1" d="M21 16h1v1h-1zm0 1v1h-1v-1zm-4 2h1v1h-1zm0 1v1h-1v-1zm-4 2h1v1h-1zm0 1v1h-1v-1zm-4 2h1v1h-1zm0 1v1h-1v-1z"/><path fill="#53baff" fill-rule="evenodd" stroke="#53baff" stroke-width=".1" d="M22 16h1v1h-1zm0 1v1h-1v-1zm-4 2h1v1h-1zm0 1v1h-1v-1zm-4 2h1v1h-1zm0 1v1h-1v-1zm-4 2h1v1h-1zm0 1v1h-1v-1z"/><path fill="#55b8ff" fill-rule="evenodd" stroke="#55b8ff" stroke-width=".1" d="M24 16h1v1h-1zm0 1v1h-1v-1zm-4 2h1v1h-1zm0 1v1h-1v-1zm-4 2h1v1h-1zm0 1v1h-1v-1zm-4 2h1v1h-1zm0 1v1h-1v-1zm-3 1h1v1h-1z"/><path fill="#56b7ff" fill-rule="evenodd" stroke="#56b7ff" stroke-width=".1" d="M25 16h1v1h-1zm-4 3h1v1h-1zm-4 3h1v1h-1zm-4 3h1v1h-1z"/><path fill="#57b6ff" fill-rule="evenodd" stroke="#57b6ff" stroke-width=".1" d="M26 16h1v1h-1zm-4 3h1v1h-1zm-4 3h1v1h-1zm-4 3h1v1h-1zm-4 3h1v1h-1z"/><path fill="#57b5ff" fill-rule="evenodd" stroke="#57b5ff" stroke-width=".1" d="M27 16h1v1h-1zm-2 1h1v1h-1zm0 1v1h-1v-1zm-1 1v1h-1v-1zm-3 1h1v1h-1zm0 1v1h-1v-1zm-1 1v1h-1v-1zm-3 1h1v1h-1zm0 1v1h-1v-1zm-1 1v1h-1v-1zm-3 1h1v1h-1zm0 1v1h-1v-1zm-1 1v1h-1v-1z"/><path fill="#58b4ff" fill-rule="evenodd" stroke="#58b4ff" stroke-width=".1" d="M28 16h1v1h-1zm-2 1h1v1h-1zm0 1v1h-1v-1zm-1 1v1h-1v-1zm-3 1h1v1h-1zm0 1v1h-1v-1zm-1 1v1h-1v-1zm-3 1h1v1h-1zm0 1v1h-1v-1zm-4 2h1v1h-1zm0 1v1h-1v-1zm-4 2h1v1h-1z"/><path fill="#59b2ff" fill-rule="evenodd" stroke="#59b2ff" stroke-width=".1" d="M29 16h1v1h-1zm0 1v1h-1v-1zm-4 2h1v1h-1zm0 1v1h-1v-1zm-4 2h1v1h-1zm0 1v1h-1v-1zm-4 2h1v1h-1zm0 1v1h-1v-1zm-4 2h1v1h-1zm0 1v1h-1v-1z"/><path fill="#5ab1ff" fill-rule="evenodd" stroke="#5ab1ff" stroke-width=".1" d="M30 16h1v1h-1zm0 1v1h-1v-1zm-4 2h1v1h-1zm0 1v1h-1v-1zm-4 2h1v1h-1zm0 1v1h-1v-1zm-4 2h1v1h-1zm0 1v1h-1v-1zm-4 2h1v1h-1zm0 1v1h-1v-1z"/><path fill="#5aafff" fill-rule="evenodd" stroke="#5aafff" stroke-width=".1" d="M31 16h1v1h-1z"/><path fill="#5cafff" fill-rule="evenodd" stroke="#5cafff" stroke-width=".1" d="M32 16h1v1h-1zm0 1v1h-1v-1zm-3 1h1v1h-1zm0 1v1h-1v-1zm-1 1v1h-1v-1zm-3 1h1v1h-1zm0 1v1h-1v-1zm-1 1v1h-1v-1zm-3 1h1v1h-1zm0 1v1h-1v-1zm-1 1v1h-1v-1zm-3 1h1v1h-1zm0 1v1h-1v-1zm-1 1v1h-1v-1zm-3 1h1v1h-1zm0 1v1h-1v-1z"/><path fill="#5caeff" fill-rule="evenodd" stroke="#5caeff" stroke-width=".1" d="M33 16h1v1h-1zm-3 2h1v1h-1zm-4 3h1v1h-1zm-4 3h1v1h-1zm-4 3h1v1h-1zm-4 3h1v1h-1z"/><path fill="#f4d53d" fill-rule="evenodd" stroke="#f4d53d" stroke-width=".1" d="M36 16h1v1h-1z"/><path fill="#aa9fb6" fill-rule="evenodd" stroke="#aa9fb6" stroke-width=".1" d="M69 16h1v1h-1z"/><path fill="#7d85ff" fill-rule="evenodd" stroke="#7d85ff" stroke-width=".1" d="M70 16h1v1h-1zm-39 29h1v1h-1zm0 1v1h-1v-1zm-4 2h1v1h-1zm0 1v1h-1v-1zm-4 2h1v1h-1z"/><path fill="#7e84ff" fill-rule="evenodd" stroke="#7e84ff" stroke-width=".1" d="M71 16h1v1h-1zm-39 29h1v1h-1zm0 1v1h-1v-1zm-4 2h1v1h-1zm0 1v1h-1v-1zm-4 2h1v1h-1zm0 1v1h-1v-1z"/><path fill="#7f83ff" fill-rule="evenodd" stroke="#7f83ff" stroke-width=".1" d="M72 16h1v1h-1zm-3 2h1v1h-1zm-36 27h1v1h-1zm0 1v1h-1v-1zm-4 2h1v1h-1zm0 1v1h-1v-1zm-4 2h1v1h-1zm0 1v1h-1v-1z"/><path fill="#8082fe" fill-rule="evenodd" stroke="#8082fe" stroke-width=".1" d="M73 16h1v1h-1zm-4 3h1v1h-1zm-36 27h1v1h-1zm-4 3h1v1h-1zm-4 3h1v1h-1z"/><path fill="#817ffe" fill-rule="evenodd" stroke="#817ffe" stroke-width=".1" d="M75 16h1v1h-1zm-4 3h1v1h-1z"/><path fill="#827efe" fill-rule="evenodd" stroke="#827efe" stroke-width=".1" d="M76 16h1v1h-1zm-4 3h1v1h-1zm-4 3h1v1h-1zm-32 24h1v1h-1zm-4 3h1v1h-1zm-4 3h1v1h-1z"/><path fill="#837dfe" fill-rule="evenodd" stroke="#837dfe" stroke-width=".1" d="M77 16h1v1h-1zm-4 3h1v1h-1zm-3 2h1v1h-1zm0 1v1h-1v-1zm-32 23h1v1h-1zm0 1v1h-1v-1zm-4 2h1v1h-1zm0 1v1h-1v-1zm-4 2h1v1h-1zm0 1v1h-1v-1zm-4 2h1v1h-1zm0 1v1h-1v-1z"/><path fill="#8779fe" fill-rule="evenodd" stroke="#8779fe" stroke-width=".1" d="M81 16h1v1h-1zm-4 3h1v1h-1zm-4 3h1v1h-1zm-32 24h1v1h-1zm-4 3h1v1h-1zm-3 2h1v1h-1zm0 1v1h-1v-1zm-4 2h1v1h-1zm0 1v1h-1v-1zm-4 2h1v1h-1z"/><path fill="#9369fe" fill-rule="evenodd" stroke="#9369fe" stroke-width=".1" d="M95 16h1v1h-1zm0 1v1h-1v-1zm-4 2h1v1h-1zm0 1v1h-1v-1zm-4 2h1v1h-1zm0 1v1h-1v-1zm-4 2h1v1h-1zm0 1v1h-1v-1zm-4 2h1v1h-1zm-35 26h1v1h-1zm0 1v1h-1v-1zm-1 1v1h-1v-1zm-3 1h1v1h-1zm0 1v1h-1v-1zm-1 1v1h-1v-1zm-3 1h1v1h-1zm0 1v1h-1v-1zm-1 1v1h-1v-1zm-3 1h1v1h-1zm0 1v1h-1v-1zm-1 1v1h-1v-1z"/><path fill="#9567fd" fill-rule="evenodd" stroke="#9567fd" stroke-width=".1" d="M97 16h1v1h-1z"/><path fill="#56b6ff" fill-rule="evenodd" stroke="#56b6ff" stroke-width=".1" d="M24 17h1v1h-1zm0 1v1h-1v-1zm-4 2h1v1h-1zm0 1v1h-1v-1zm-4 2h1v1h-1zm0 1v1h-1v-1zm-4 2h1v1h-1zm0 1v1h-1v-1z"/><path fill="#59b3ff" fill-rule="evenodd" stroke="#59b3ff" stroke-width=".1" d="M27 17h1v1h-1zm0 1v1h-1v-1zm-4 2h1v1h-1zm0 1v1h-1v-1zm-4 2h1v1h-1zm0 1v1h-1v-1zm-4 2h1v1h-1zm0 1v1h-1v-1zm-4 2h1v1h-1z"/><path fill="#5bb0ff" fill-rule="evenodd" stroke="#5bb0ff" stroke-width=".1" d="M30 17h1v1h-1zm-3 2h1v1h-1zm0 1v1h-1v-1zm-4 2h1v1h-1zm0 1v1h-1v-1zm-4 2h1v1h-1zm0 1v1h-1v-1zm-4 2h1v1h-1zm0 1v1h-1v-1zm-4 2h1v1h-1z"/><path fill="#5daeff" fill-rule="evenodd" stroke="#5daeff" stroke-width=".1" d="M32 17h1v1h-1zm-3 2h1v1h-1zm0 1v1h-1v-1zm-4 2h1v1h-1zm0 1v1h-1v-1zm-4 2h1v1h-1zm0 1v1h-1v-1zm-4 2h1v1h-1zm0 1v1h-1v-1zm-4 2h1v1h-1zm0 1v1h-1v-1z"/><path fill="#5eacff" fill-rule="evenodd" stroke="#5eacff" stroke-width=".1" d="M33 17h1v1h-1zm0 1v1h-1v-1zm-1 1v1h-1v-1zm-3 1h1v1h-1zm0 1v1h-1v-1zm-1 1v1h-1v-1zm-3 1h1v1h-1zm0 1v1h-1v-1zm-1 1v1h-1v-1zm-3 1h1v1h-1zm0 1v1h-1v-1zm-1 1v1h-1v-1zm-3 1h1v1h-1zm0 1v1h-1v-1zm-1 1v1h-1v-1zm-3 1h1v1h-1z"/><path fill="#5fabff" fill-rule="evenodd" stroke="#5fabff" stroke-width=".1" d="M34 17h1v1h-1zm0 1v1h-1v-1zm-1 1v1h-1v-1zm-3 1h1v1h-1zm0 1v1h-1v-1zm-1 1v1h-1v-1zm-3 1h1v1h-1zm0 1v1h-1v-1zm-1 1v1h-1v-1zm-3 1h1v1h-1zm0 1v1h-1v-1zm-1 1v1h-1v-1zm-3 1h1v1h-1zm0 1v1h-1v-1zm-1 1v1h-1v-1zm-3 1h1v1h-1zm0 1v1h-1v-1z"/><path fill="#60aaff" fill-rule="evenodd" stroke="#60aaff" stroke-width=".1" d="M35 17h1v1h-1zm0 1v1h-1v-1zm-1 1v1h-1v-1zm-3 1h1v1h-1zm0 1v1h-1v-1zm-1 1v1h-1v-1zm-3 1h1v1h-1zm0 1v1h-1v-1zm-1 1v1h-1v-1zm-3 1h1v1h-1zm0 1v1h-1v-1zm-1 1v1h-1v-1zm-3 1h1v1h-1zm0 1v1h-1v-1zm-1 1v1h-1v-1zm-3 1h1v1h-1zm0 1v1h-1v-1z"/><path fill="#bcc487" fill-rule="evenodd" stroke="#bcc487" stroke-width=".1" d="M36 17h1v1h-1z"/><path fill="#ffd42c" fill-rule="evenodd" stroke="#ffd42c" stroke-width=".1" d="M62 17h6v1h-4v1h-7v1h-7v1h-6v1h-7v-1h5v-1h7v-1h6v-1h7z"/><path fill="#fdd42e" fill-rule="evenodd" stroke="#fdd42e" stroke-width=".1" d="M68 17h1v1h-1z"/><path fill="#868bf0" fill-rule="evenodd" stroke="#868bf0" stroke-width=".1" d="M69 17h1v1h-1z"/><path fill="#7f82fe" fill-rule="evenodd" stroke="#7f82fe" stroke-width=".1" d="M71 17h1v1h-1zm0 1v1h-1v-1zm-37 27h1v1h-1zm-3 2h1v1h-1zm0 1v1h-1v-1zm-4 2h1v1h-1zm0 1v1h-1v-1z"/><path fill="#847dfe" fill-rule="evenodd" stroke="#847dfe" stroke-width=".1" d="M76 17h1v1h-1zm-4 3h1v1h-1zm-4 3h1v1h-1zm-32 24h1v1h-1zm-4 3h1v1h-1zm-4 3h1v1h-1z"/><path fill="#9567fe" fill-rule="evenodd" stroke="#9567fe" stroke-width=".1" d="M96 17h1v1h-1zm-3 2h1v1h-1zm0 1v1h-1v-1zm-4 2h1v1h-1zm0 1v1h-1v-1zm-4 2h1v1h-1zm0 1v1h-1v-1zm-4 2h1v1h-1zm0 1v1h-1v-1zm-39 28h1v1h-1zm0 1v1h-1v-1zm-4 2h1v1h-1zm0 1v1h-1v-1zm-4 2h1v1h-1zm0 1v1h-1v-1z"/><path fill="#55b7ff" fill-rule="evenodd" stroke="#55b7ff" stroke-width=".1" d="M22 18h1v1h-1zm-4 3h1v1h-1zm-4 3h1v1h-1zm-4 3h1v1h-1zm0 1v1h-1v-1z"/><path fill="#5ab2ff" fill-rule="evenodd" stroke="#5ab2ff" stroke-width=".1" d="M27 18h1v1h-1zm-4 3h1v1h-1zm-4 3h1v1h-1zm-4 3h1v1h-1zm-4 3h1v1h-1z"/><path fill="#5bb1ff" fill-rule="evenodd" stroke="#5bb1ff" stroke-width=".1" d="M28 18h1v1h-1zm-4 3h1v1h-1zm-4 3h1v1h-1zm-4 3h1v1h-1zm-4 3h1v1h-1z"/><path fill="#5dadff" fill-rule="evenodd" stroke="#5dadff" stroke-width=".1" d="M31 18h1v1h-1zm-4 3h1v1h-1zm-4 3h1v1h-1zm-4 3h1v1h-1zm-4 3h1v1h-1z"/><path fill="#61a9ff" fill-rule="evenodd" stroke="#61a9ff" stroke-width=".1" d="M35 18h1v1h-1zm-4 3h1v1h-1zm-4 3h1v1h-1zm-4 3h1v1h-1zm-4 3h1v1h-1zm-4 3h1v1h-1z"/><path fill="#c6c67a" fill-rule="evenodd" stroke="#c6c67a" stroke-width=".1" d="M36 18h1v1h-1z"/><path fill="#ffd32b" fill-rule="evenodd" stroke="#ffd32b" stroke-width=".1" d="M64 18h4v1h-2v1h-7v1h-7v1h-7v1h-6v1h-2v-2h7v-1h6v-1h7v-1h7z"/><path fill="#e1c15c" fill-rule="evenodd" stroke="#e1c15c" stroke-width=".1" d="M68 18h1v1h-1z"/><path fill="#9467fe" fill-rule="evenodd" stroke="#9467fe" stroke-width=".1" d="M94 18h1v1h-1zm-4 3h1v1h-1zm-4 3h1v1h-1zm-4 3h1v1h-1zm-4 3h1v1h-1z"/><path fill="#9566fe" fill-rule="evenodd" stroke="#9566fe" stroke-width=".1" d="M95 18h1v1h-1zm-4 3h1v1h-1zm-4 3h1v1h-1zm-4 3h1v1h-1zm-4 3h1v1h-1zm-36 27h1v1h-1zm-3 2h1v1h-1zm0 1v1h-1v-1zm-4 2h1v1h-1zm0 1v1h-1v-1zm-4 2h1v1h-1zm0 1v1h-1v-1z"/><path fill="#9564fd" fill-rule="evenodd" stroke="#9564fd" stroke-width=".1" d="M96 18h1v1h-1z"/><path fill="#5eadff" fill-rule="evenodd" stroke="#5eadff" stroke-width=".1" d="M30 19h1v1h-1zm-4 3h1v1h-1zm-4 3h1v1h-1zm-4 3h1v1h-1zm-4 3h1v1h-1z"/><path fill="#61a8ff" fill-rule="evenodd" stroke="#61a8ff" stroke-width=".1" d="M34 19h1v1h-1zm0 1v1h-1v-1zm-4 2h1v1h-1zm0 1v1h-1v-1zm-4 2h1v1h-1zm0 1v1h-1v-1zm-4 2h1v1h-1zm0 1v1h-1v-1zm-4 2h1v1h-1zm0 1v1h-1v-1zm-4 2h1v1h-1zm0 1v1h-1v-1z"/><path fill="#62a7ff" fill-rule="evenodd" stroke="#62a7ff" stroke-width=".1" d="M35 19h1v1h-1zm0 1v1h-1v-1zm-4 2h1v1h-1zm0 1v1h-1v-1zm-4 2h1v1h-1zm0 1v1h-1v-1zm-4 2h1v1h-1zm0 1v1h-1v-1zm-4 2h1v1h-1zm0 1v1h-1v-1zm-4 2h1v1h-1zm0 1v1h-1v-1z"/><path fill="#d0c76d" fill-rule="evenodd" stroke="#d0c76d" stroke-width=".1" d="M36 19h1v1h-1z"/><path fill="#ffd22a" fill-rule="evenodd" stroke="#ffd22a" stroke-width=".1" d="M66 19h2v1h-1v1h-6v1h-7v1h-7v1h-7v1h-3v-1h2v-1h6v-1h7v-1h7v-1h7z"/><path fill="#bda997" fill-rule="evenodd" stroke="#bda997" stroke-width=".1" d="M68 19h1v1h-1z"/><path fill="#9666fe" fill-rule="evenodd" stroke="#9666fe" stroke-width=".1" d="M94 19h1v1h-1zm-4 3h1v1h-1zm-4 3h1v1h-1zm-4 3h1v1h-1zm-4 3h1v1h-1zm-36 27h1v1h-1zm-4 3h1v1h-1zm-4 3h1v1h-1z"/><path fill="#9765fe" fill-rule="evenodd" stroke="#9765fe" stroke-width=".1" d="M95 19h1v1h-1zm-4 3h1v1h-1zm-4 3h1v1h-1zm-4 3h1v1h-1zm-4 3h1v1h-1zm-36 27h1v1h-1zm-4 3h1v1h-1zm-4 3h1v1h-1z"/><path fill="#60a9ff" fill-rule="evenodd" stroke="#60a9ff" stroke-width=".1" d="M32 20h1v1h-1zm-4 3h1v1h-1zm-4 3h1v1h-1zm-4 3h1v1h-1zm-4 3h1v1h-1zm-3 2h1v1h-1z"/><path fill="#63a6ff" fill-rule="evenodd" stroke="#63a6ff" stroke-width=".1" d="M35 20h1v1h-1zm-3 2h1v1h-1zm0 1v1h-1v-1zm-4 2h1v1h-1zm0 1v1h-1v-1zm-4 2h1v1h-1zm0 1v1h-1v-1zm-4 2h1v1h-1zm0 1v1h-1v-1zm-4 2h1v1h-1zm0 1v1h-1v-1z"/><path fill="#d9c960" fill-rule="evenodd" stroke="#d9c960" stroke-width=".1" d="M36 20h1v1h-1z"/><path fill="#ffd129" fill-rule="evenodd" stroke="#ffd129" stroke-width=".1" d="M67 20h1v1h-1zm0 1v1h-5v1h-6v1h-7v1h-7v1h-6v-1h4v-1h7v-1h7v-1h7v-1z"/><path fill="#9a92d2" fill-rule="evenodd" stroke="#9a92d2" stroke-width=".1" d="M68 20h1v1h-1z"/><path fill="#9665fe" fill-rule="evenodd" stroke="#9665fe" stroke-width=".1" d="M93 20h1v1h-1zm0 1v1h-1v-1zm-4 2h1v1h-1zm0 1v1h-1v-1zm-4 2h1v1h-1zm0 1v1h-1v-1zm-4 2h1v1h-1zm0 1v1h-1v-1zm-4 2h1v1h-1zm-36 27h1v1h-1zm0 1v1h-1v-1zm-4 2h1v1h-1zm0 1v1h-1v-1zm-4 2h1v1h-1zm0 1v1h-1v-1z"/><path fill="#9764fe" fill-rule="evenodd" stroke="#9764fe" stroke-width=".1" d="M94 20h1v1h-1zm0 1v1h-1v-1zm-1 1v1h-1v-1zm-3 1h1v1h-1zm0 1v1h-1v-1zm-1 1v1h-1v-1zm-3 1h1v1h-1zm0 1v1h-1v-1zm-1 1v1h-1v-1zm-3 1h1v1h-1zm0 1v1h-1v-1zm-1 1v1h-1v-1zm-3 1h1v1h-1zm0 1v1h-1v-1zm-1 1v1h-1v-1zm-35 25h1v1h-1zm0 1v1h-1v-1zm-1 1v1h-1v-1zm-3 1h1v1h-1zm0 1v1h-1v-1zm-1 1v1h-1v-1zm-3 1h1v1h-1zm0 1v1h-1v-1zm-1 1v1h-1v-1z"/><path fill="#9862fd" fill-rule="evenodd" stroke="#9862fd" stroke-width=".1" d="M95 20h1v1h-1z"/><path fill="#62a8ff" fill-rule="evenodd" stroke="#62a8ff" stroke-width=".1" d="M32 21h1v1h-1zm-4 3h1v1h-1zm-4 3h1v1h-1zm-4 3h1v1h-1zm-4 3h1v1h-1z"/><path fill="#63a7ff" fill-rule="evenodd" stroke="#63a7ff" stroke-width=".1" d="M33 21h1v1h-1zm-4 3h1v1h-1zm-4 3h1v1h-1zm-4 3h1v1h-1zm-4 3h1v1h-1z"/><path fill="#63a5ff" fill-rule="evenodd" stroke="#63a5ff" stroke-width=".1" d="M34 21h1v1h-1zm-4 3h1v1h-1zm-4 3h1v1h-1zm-4 3h1v1h-1zm-4 3h1v1h-1zm-4 3h1v1h-1z"/><path fill="#64a4ff" fill-rule="evenodd" stroke="#64a4ff" stroke-width=".1" d="M35 21h1v1h-1zm-4 3h1v1h-1zm-4 3h1v1h-1zm-4 3h1v1h-1zm-4 3h1v1h-1zm-4 3h1v1h-1z"/><path fill="#e3cb53" fill-rule="evenodd" stroke="#e3cb53" stroke-width=".1" d="M36 21h1v1h-1z"/><path fill="#f5cb3b" fill-rule="evenodd" stroke="#f5cb3b" stroke-width=".1" d="M67 21h1v1h-1z"/><path fill="#8281fc" fill-rule="evenodd" stroke="#8281fc" stroke-width=".1" d="M68 21h1v1h-1z"/><path fill="#9763fd" fill-rule="evenodd" stroke="#9763fd" stroke-width=".1" d="M94 21h1v1h-1z"/><path fill="#64a5ff" fill-rule="evenodd" stroke="#64a5ff" stroke-width=".1" d="M33 22h1v1h-1zm0 1v1h-1v-1zm-4 2h1v1h-1zm0 1v1h-1v-1zm-4 2h1v1h-1zm0 1v1h-1v-1zm-4 2h1v1h-1zm0 1v1h-1v-1zm-4 2h1v1h-1zm0 1v1h-1v-1z"/><path fill="#65a4ff" fill-rule="evenodd" stroke="#65a4ff" stroke-width=".1" d="M34 22h1v1h-1zm0 1v1h-1v-1zm-4 2h1v1h-1zm0 1v1h-1v-1zm-4 2h1v1h-1zm0 1v1h-1v-1zm-4 2h1v1h-1zm0 1v1h-1v-1zm-4 2h1v1h-1zm0 1v1h-1v-1z"/><path fill="#65a3ff" fill-rule="evenodd" stroke="#65a3ff" stroke-width=".1" d="M35 22h1v1h-1zm-3 2h1v1h-1zm0 1v1h-1v-1zm-4 2h1v1h-1zm0 1v1h-1v-1zm-4 2h1v1h-1zm0 1v1h-1v-1zm-4 2h1v1h-1zm0 1v1h-1v-1zm-4 2h1v1h-1zm0 1v1h-2v-1z"/><path fill="#eccd46" fill-rule="evenodd" stroke="#eccd46" stroke-width=".1" d="M36 22h1v1h-1z"/><path fill="#ffd028" fill-rule="evenodd" stroke="#ffd028" stroke-width=".1" d="M62 22h5v1h-3v1h-7v1h-6v1h-7v1h-7v1h-1v-2h6v-1h7v-1h7v-1h6z"/><path fill="#d1b276" fill-rule="evenodd" stroke="#d1b276" stroke-width=".1" d="M67 22h1v1h-1z"/><path fill="#9862fe" fill-rule="evenodd" stroke="#9862fe" stroke-width=".1" d="M93 22h1v1h-1zm-4 3h1v1h-1zm-4 3h1v1h-1zm-4 3h1v1h-1zm-4 3h1v1h-1zm-36 27h1v1h-1zm-4 3h1v1h-1zm-4 3h1v1h-1z"/><path fill="#9960fd" fill-rule="evenodd" stroke="#9960fd" stroke-width=".1" d="M94 22h1v1h-1z"/><path fill="#4cc2ff" fill-rule="evenodd" stroke="#4cc2ff" stroke-width=".1" d="M6 23h1v1h-1z"/><path fill="#66a2ff" fill-rule="evenodd" stroke="#66a2ff" stroke-width=".1" d="M34 23h1v1h-1zm0 1v1h-1v-1zm-1 1v1h-1v-1zm-3 1h1v1h-1zm0 1v1h-1v-1zm-1 1v1h-1v-1zm-3 1h1v1h-1zm0 1v1h-1v-1zm-1 1v1h-1v-1zm-3 1h1v1h-1zm0 1v1h-1v-1zm-1 1v1h-1v-1zm-3 1h1v1h-1zm0 1v1h-1v-1zm-1 1v1h-1v-1z"/><path fill="#67a1ff" fill-rule="evenodd" stroke="#67a1ff" stroke-width=".1" d="M35 23h1v1h-1zm0 1v1h-1v-1zm-1 1v1h-1v-1zm-3 1h1v1h-1zm0 1v1h-1v-1zm-1 1v1h-1v-1zm-3 1h1v1h-1zm0 1v1h-1v-1zm-1 1v1h-1v-1zm-3 1h1v1h-1zm0 1v1h-1v-1zm-1 1v1h-1v-1zm-3 1h1v1h-1zm0 1v1h-1v-1zm-1 1v1h-1v-1zm-3 1h1v1h-1z"/><path fill="#f4cf3a" fill-rule="evenodd" stroke="#f4cf3a" stroke-width=".1" d="M36 23h1v1h-1z"/><path fill="#ffcf27" fill-rule="evenodd" stroke="#ffcf27" stroke-width=".1" d="M64 23h3v1h-1v1h-7v1h-6v1h-7v1h-7v1h-3v-1h1v-1h7v-1h7v-1h6v-1h7z"/><path fill="#af9bb2" fill-rule="evenodd" stroke="#af9bb2" stroke-width=".1" d="M67 23h1v1h-1z"/><path fill="#8d75fa" fill-rule="evenodd" stroke="#8d75fa" stroke-width=".1" d="M77 23h1v1h-1z"/><path fill="#9c7ee0" fill-rule="evenodd" stroke="#9c7ee0" stroke-width=".1" d="M78 23h1v1h-1z"/><path fill="#8f73fa" fill-rule="evenodd" stroke="#8f73fa" stroke-width=".1" d="M79 23h1v1h-1z"/><path fill="#9863fe" fill-rule="evenodd" stroke="#9863fe" stroke-width=".1" d="M91 23h1v1h-1zm0 1v1h-1v-1zm-4 2h1v1h-1zm0 1v1h-1v-1zm-4 2h1v1h-1zm0 1v1h-1v-1zm-4 2h1v1h-1zm0 1v1h-1v-1zm-36 26h1v1h-1zm0 1v1h-1v-1zm-4 2h1v1h-1zm0 1v1h-1v-1zm-4 2h1v1h-1zm0 1v1h-1v-1z"/><path fill="#9962fe" fill-rule="evenodd" stroke="#9962fe" stroke-width=".1" d="M92 23h1v1h-1zm0 1v1h-1v-1zm-4 2h1v1h-1zm0 1v1h-1v-1zm-4 2h1v1h-1zm0 1v1h-1v-1zm-4 2h1v1h-1zm0 1v1h-1v-1zm-4 2h1v1h-1zm0 1v1h-1v-1zm-33 24h1v1h-1zm-3 2h1v1h-1zm0 1v1h-1v-1zm-4 2h1v1h-1zm0 1v1h-1v-1zm-4 2h1v1h-1z"/><path fill="#9961fd" fill-rule="evenodd" stroke="#9961fd" stroke-width=".1" d="M93 23h1v1h-1z"/><path fill="#69a0fe" fill-rule="evenodd" stroke="#69a0fe" stroke-width=".1" d="M35 24h1v1h-1z"/><path fill="#fdd12d" fill-rule="evenodd" stroke="#fdd12d" stroke-width=".1" d="M36 24h1v1h-1z"/><path fill="#ffce26" fill-rule="evenodd" stroke="#ffce26" stroke-width=".1" d="M66 24h1v2h-6v1h-7v1h-6v1h-7v1h-5v-1h3v-1h7v-1h7v-1h6v-1h7z"/><path fill="#9a8ad8" fill-rule="evenodd" stroke="#9a8ad8" stroke-width=".1" d="M67 24h1v1h-1z"/><path fill="#8c79f7" fill-rule="evenodd" stroke="#8c79f7" stroke-width=".1" d="M72 24h1v1h-1z"/><path fill="#a289d0" fill-rule="evenodd" stroke="#a289d0" stroke-width=".1" d="M73 24h1v1h-1z"/><path fill="#ba99a5" fill-rule="evenodd" stroke="#ba99a5" stroke-width=".1" d="M74 24h1v1h-1z"/><path fill="#d1aa7b" fill-rule="evenodd" stroke="#d1aa7b" stroke-width=".1" d="M75 24h1v1h-1z"/><path fill="#e8bb51" fill-rule="evenodd" stroke="#e8bb51" stroke-width=".1" d="M76 24h1v1h-1z"/><path fill="#fccb2a" fill-rule="evenodd" stroke="#fccb2a" stroke-width=".1" d="M77 24h1v1h-1z"/><path fill="#ffcd25" fill-rule="evenodd" stroke="#ffcd25" stroke-width=".1" d="M78 24h1v1h-1zm-5 1h3v1h-3zm-12 1h9v1h-7v1h-7v1h-7v1h-6v1h-7v-1h5v-1h7v-1h6v-1h7z"/><path fill="#d9ad6f" fill-rule="evenodd" stroke="#d9ad6f" stroke-width=".1" d="M79 24h1v1h-1z"/><path fill="#9a61fe" fill-rule="evenodd" stroke="#9a61fe" stroke-width=".1" d="M92 24h1v1h-1zm-4 3h1v1h-1zm-4 3h1v1h-1zm-4 3h1v1h-1zm-4 3h1v1h-1zm-32 24h1v1h-1zm-3 2h1v1h-1zm0 1v1h-1v-1zm-4 2h1v1h-1zm0 1v1h-1v-1zm-4 2h1v1h-1z"/><path fill="#9a60fd" fill-rule="evenodd" stroke="#9a60fd" stroke-width=".1" d="M93 24h1v1h-1z"/><path fill="#58b3ff" fill-rule="evenodd" stroke="#58b3ff" stroke-width=".1" d="M16 25h1v1h-1zm-4 3h1v1h-1zm-2 2h1v1h-1z"/><path fill="#68a0ff" fill-rule="evenodd" stroke="#68a0ff" stroke-width=".1" d="M34 25h1v1h-1zm-3 2h1v1h-1zm0 1v1h-1v-1zm-4 2h1v1h-1zm0 1v1h-1v-1zm-3 1h1v1h-1zm0 1v1h-1v-1zm-1 1v1h-1v-1zm-3 1h1v1h-1zm0 1v1h-1v-1zm-1 1v1h-1v-1zm-3 1h1v1h-1z"/><path fill="#6fa0f6" fill-rule="evenodd" stroke="#6fa0f6" stroke-width=".1" d="M35 25h1v1h-1z"/><path fill="#d7b36d" fill-rule="evenodd" stroke="#d7b36d" stroke-width=".1" d="M67 25h1v1h-1z"/><path fill="#a891c1" fill-rule="evenodd" stroke="#a891c1" stroke-width=".1" d="M68 25h1v1h-1z"/><path fill="#ba9da1" fill-rule="evenodd" stroke="#ba9da1" stroke-width=".1" d="M69 25h1v1h-1z"/><path fill="#d2ad77" fill-rule="evenodd" stroke="#d2ad77" stroke-width=".1" d="M70 25h1v1h-1z"/><path fill="#eabd4c" fill-rule="evenodd" stroke="#eabd4c" stroke-width=".1" d="M71 25h1v1h-1z"/><path fill="#fdcc28" fill-rule="evenodd" stroke="#fdcc28" stroke-width=".1" d="M72 25h1v1h-1z"/><path fill="#ffcc24" fill-rule="evenodd" stroke="#ffcc24" stroke-width=".1" d="M76 25h3v1h-1v1h-7v1h-6v1h-7v1h-7v1h-7v1h-6v1h-2v-2h7v-1h6v-1h7v-1h7v-1h7v-1h6z"/><path fill="#e4b558" fill-rule="evenodd" stroke="#e4b558" stroke-width=".1" d="M79 25h1v1h-1z"/><path fill="#9961fe" fill-rule="evenodd" stroke="#9961fe" stroke-width=".1" d="M90 25h1v1h-1zm0 1v1h-1v-1zm-4 2h1v1h-1zm0 1v1h-1v-1zm-4 2h1v1h-1zm0 1v1h-1v-1zm-4 2h1v1h-1zm0 1v1h-1v-1zm-36 26h1v1h-1zm-4 3h1v1h-1zm-4 3h1v1h-1z"/><path fill="#9a60fe" fill-rule="evenodd" stroke="#9a60fe" stroke-width=".1" d="M91 25h1v1h-1zm0 1v1h-1v-1zm-4 2h1v1h-1zm0 1v1h-1v-1zm-4 2h1v1h-1zm0 1v1h-1v-1zm-4 2h1v1h-1zm0 1v1h-1v-1zm-4 2h1v1h-1zm0 1v1h-1v-1zm-32 23h1v1h-1zm0 1v1h-1v-1zm-4 2h1v1h-1zm0 1v1h-1v-1zm-4 2h1v1h-1zm0 1v1h-1v-1z"/><path fill="#9a5efd" fill-rule="evenodd" stroke="#9a5efd" stroke-width=".1" d="M92 25h1v1h-1z"/><path fill="#67a0ff" fill-rule="evenodd" stroke="#67a0ff" stroke-width=".1" d="M32 26h1v1h-1zm-4 3h1v1h-1zm-13 10h1v1h-1z"/><path fill="#689fff" fill-rule="evenodd" stroke="#689fff" stroke-width=".1" d="M33 26h1v1h-1zm-4 3h1v1h-1zm-4 3h1v1h-1zm-4 3h1v1h-1zm-4 3h1v1h-1z"/><path fill="#699eff" fill-rule="evenodd" stroke="#699eff" stroke-width=".1" d="M34 26h1v1h-1zm-3 2h1v1h-1zm0 1v1h-1v-1zm-4 2h1v1h-1zm0 1v1h-1v-1zm-4 2h1v1h-1zm0 1v1h-1v-1zm-4 2h1v1h-1zm0 1v1h-1v-1z"/><path fill="#79a2e9" fill-rule="evenodd" stroke="#79a2e9" stroke-width=".1" d="M35 26h1v1h-1z"/><path fill="#ffcb23" fill-rule="evenodd" stroke="#ffcb23" stroke-width=".1" d="M78 26h1v1h-1zm0 1v1h-5v1h-7v1h-6v1h-7v1h-7v1h-7v1h-3v-1h2v-1h6v-1h7v-1h7v-1h7v-1h6v-1z"/><path fill="#b68cb5" fill-rule="evenodd" stroke="#b68cb5" stroke-width=".1" d="M79 26h1v1h-1z"/><path fill="#9b5ffe" fill-rule="evenodd" stroke="#9b5ffe" stroke-width=".1" d="M91 26h1v1h-1zm-3 2h1v1h-1zm0 1v1h-1v-1zm-4 2h1v1h-1zm0 1v1h-1v-1zm-4 2h1v1h-1zm0 1v1h-1v-1zm-4 2h1v1h-1zm0 1v1h-1v-1zm-32 23h1v1h-1zm0 1v1h-1v-1zm-3 1h1v1h-1zm0 1v1h-1v-1zm-1 1v1h-1v-1zm-3 1h1v1h-1zm0 1v1h-1v-1zm-1 1v1h-1v-1zm-3 1h1v1h-1z"/><path fill="#53b9ff" fill-rule="evenodd" stroke="#53b9ff" stroke-width=".1" d="M8 27h1v1h-1z"/><path fill="#699fff" fill-rule="evenodd" stroke="#699fff" stroke-width=".1" d="M32 27h1v1h-1zm-4 3h1v1h-1zm-4 3h1v1h-1zm-4 3h1v1h-1zm-4 3h1v1h-1z"/><path fill="#6a9eff" fill-rule="evenodd" stroke="#6a9eff" stroke-width=".1" d="M33 27h1v1h-1zm-4 3h1v1h-1zm-4 3h1v1h-1zm-4 3h1v1h-1zm-4 3h1v1h-1z"/><path fill="#6a9dff" fill-rule="evenodd" stroke="#6a9dff" stroke-width=".1" d="M34 27h1v1h-1zm-2 1h1v1h-1zm0 1v1h-1v-1zm-1 1v1h-1v-1zm-3 1h1v1h-1zm0 1v1h-1v-1zm-1 1v1h-1v-1zm-3 1h1v1h-1zm0 1v1h-1v-1zm-1 1v1h-1v-1zm-3 1h1v1h-1zm0 1v1h-1v-1zm-1 1v1h-1v-1zm-3 1h1v1h-1z"/><path fill="#83a3dc" fill-rule="evenodd" stroke="#83a3dc" stroke-width=".1" d="M35 27h1v1h-1z"/><path fill="#edbb46" fill-rule="evenodd" stroke="#edbb46" stroke-width=".1" d="M78 27h1v1h-1z"/><path fill="#936cfc" fill-rule="evenodd" stroke="#936cfc" stroke-width=".1" d="M79 27h1v1h-1z"/><path fill="#9b60fe" fill-rule="evenodd" stroke="#9b60fe" stroke-width=".1" d="M89 27h1v1h-1zm-4 3h1v1h-1zm-4 3h1v1h-1zm-4 3h1v1h-1z"/><path fill="#9c5efe" fill-rule="evenodd" stroke="#9c5efe" stroke-width=".1" d="M90 27h1v1h-1zm0 1v1h-1v-1zm-1 1v1h-1v-1zm-3 1h1v1h-1zm0 1v1h-1v-1zm-1 1v1h-1v-1zm-3 1h1v1h-1zm0 1v1h-1v-1zm-1 1v1h-1v-1zm-3 1h1v1h-1zm0 1v1h-1v-1zm-1 1v1h-1v-1zm-3 1h1v1h-1zm0 1v1h-1v-1zm-29 21h1v1h-1zm0 1v1h-1v-1zm-3 1h1v1h-1zm0 1v1h-1v-1zm-1 1v1h-1v-1zm-3 1h1v1h-1zm0 1v1h-1v-1zm-1 1v1h-1v-1zm-3 1h1v1h-1zm0 1v1h-1v-1z"/><path fill="#9c5cfd" fill-rule="evenodd" stroke="#9c5cfd" stroke-width=".1" d="M91 27h1v1h-1zm-58 44h1v1h-1z"/><path fill="#6b9cff" fill-rule="evenodd" stroke="#6b9cff" stroke-width=".1" d="M33 28h1v1h-1zm0 1v1h-1v-1zm-4 2h1v1h-1zm0 1v1h-1v-1zm-4 2h1v1h-1zm0 1v1h-1v-1zm-4 2h1v1h-1zm0 1v1h-1v-1zm-4 2h1v1h-1z"/><path fill="#6c9bff" fill-rule="evenodd" stroke="#6c9bff" stroke-width=".1" d="M34 28h1v1h-1zm0 1v1h-1v-1zm-4 2h1v1h-1zm0 1v1h-1v-1zm-4 2h1v1h-1zm0 1v1h-1v-1zm-4 2h1v1h-1zm0 1v1h-1v-1zm-4 2h1v1h-1zm0 1v1h-1v-1z"/><path fill="#8ca5d0" fill-rule="evenodd" stroke="#8ca5d0" stroke-width=".1" d="M35 28h1v1h-1z"/><path fill="#ffca22" fill-rule="evenodd" stroke="#ffca22" stroke-width=".1" d="M73 28h5v1h-3v1h-7v1h-7v1h-6v1h-7v1h-7v1h-5v-1h3v-1h7v-1h7v-1h7v-1h6v-1h7z"/><path fill="#b88cb1" fill-rule="evenodd" stroke="#b88cb1" stroke-width=".1" d="M78 28h1v1h-1z"/><path fill="#9d5dfe" fill-rule="evenodd" stroke="#9d5dfe" stroke-width=".1" d="M90 28h1v1h-1zm0 1v1h-1v-1zm-4 2h1v1h-1zm0 1v1h-1v-1zm-4 2h1v1h-1zm0 1v1h-1v-1zm-4 2h1v1h-1zm0 1v1h-1v-1zm-4 2h1v1h-1zm0 1v1h-1v-1zm-28 20h1v1h-1zm0 1v1h-1v-1zm-4 2h1v1h-1zm-4 3h1v1h-1zm-4 3h1v1h-1z"/><path fill="#6d9aff" fill-rule="evenodd" stroke="#6d9aff" stroke-width=".1" d="M34 29h1v1h-1zm-4 3h1v1h-1zm-4 3h1v1h-1zm-4 3h1v1h-1zm-4 3h1v1h-1z"/><path fill="#96a7c3" fill-rule="evenodd" stroke="#96a7c3" stroke-width=".1" d="M35 29h1v1h-1z"/><path fill="#ffc921" fill-rule="evenodd" stroke="#ffc921" stroke-width=".1" d="M75 29h2v2h-7v1h-7v1h-7v1h-6v1h-7v1h-7v-1h5v-1h7v-1h7v-1h6v-1h7v-1h7z"/><path fill="#efbb41" fill-rule="evenodd" stroke="#efbb41" stroke-width=".1" d="M77 29h1v1h-1z"/><path fill="#946afb" fill-rule="evenodd" stroke="#946afb" stroke-width=".1" d="M78 29h1v1h-1z"/><path fill="#9e5bfd" fill-rule="evenodd" stroke="#9e5bfd" stroke-width=".1" d="M90 29h1v1h-1z"/><path fill="#6b9bff" fill-rule="evenodd" stroke="#6b9bff" stroke-width=".1" d="M31 30h1v1h-1zm-4 3h1v1h-1zm-4 3h1v1h-1zm-4 3h1v1h-1z"/><path fill="#6c9aff" fill-rule="evenodd" stroke="#6c9aff" stroke-width=".1" d="M32 30h1v1h-1zm0 1v1h-1v-1zm-4 2h1v1h-1zm0 1v1h-1v-1zm-4 2h1v1h-1zm0 1v1h-1v-1zm-4 2h1v1h-1zm0 1v1h-1v-1z"/><path fill="#6d99ff" fill-rule="evenodd" stroke="#6d99ff" stroke-width=".1" d="M33 30h1v1h-1zm0 1v1h-1v-1zm-4 2h1v1h-1zm0 1v1h-1v-1zm-4 2h1v1h-1zm0 1v1h-1v-1zm-4 2h1v1h-1zm0 1v1h-1v-1zm-4 2h1v1h-1z"/><path fill="#6e98ff" fill-rule="evenodd" stroke="#6e98ff" stroke-width=".1" d="M34 30h1v1h-1zm0 1v1h-1v-1zm-3 1h1v1h-1zm0 1v1h-1v-1zm-1 1v1h-1v-1zm-3 1h1v1h-1zm0 1v1h-1v-1zm-1 1v1h-1v-1zm-3 1h1v1h-1zm0 1v1h-1v-1zm-1 1v1h-1v-1zm-3 1h1v1h-1zm0 1v1h-1v-1z"/><path fill="#a0a9b5" fill-rule="evenodd" stroke="#a0a9b5" stroke-width=".1" d="M35 30h1v1h-1z"/><path fill="#bb8bad" fill-rule="evenodd" stroke="#bb8bad" stroke-width=".1" d="M77 30h1v1h-1z"/><path fill="#9c5dfe" fill-rule="evenodd" stroke="#9c5dfe" stroke-width=".1" d="M87 30h1v1h-1zm-4 3h1v1h-1zm-4 3h1v1h-1zm-4 3h1v1h-1zm-28 21h1v1h-1zm-4 3h1v1h-1zm-4 3h1v1h-1zm-4 3h1v1h-1z"/><path fill="#9d5cfe" fill-rule="evenodd" stroke="#9d5cfe" stroke-width=".1" d="M88 30h1v1h-1zm-4 3h1v1h-1zm-4 3h1v1h-1zm-4 3h1v1h-1zm-4 3h1v1h-1zm-24 18h1v1h-1zm-4 3h1v1h-1zm-3 2h1v1h-1zm0 1v1h-1v-1zm-4 2h1v1h-1zm0 1v1h-1v-1z"/><path fill="#9d5bfd" fill-rule="evenodd" stroke="#9d5bfd" stroke-width=".1" d="M89 30h1v1h-1z"/><path fill="#6f97ff" fill-rule="evenodd" stroke="#6f97ff" stroke-width=".1" d="M34 31h1v1h-1zm-2 1h1v1h-1zm0 1v1h-1v-1zm-1 1v1h-1v-1zm-3 1h1v1h-1zm0 1v1h-1v-1zm-1 1v1h-1v-1zm-3 1h1v1h-1zm0 1v1h-1v-1zm-1 1v1h-1v-1zm-3 1h1v1h-1zm0 1v1h-1v-1zm-1 1v1h-1v-1z"/><path fill="#a9aca9" fill-rule="evenodd" stroke="#a9aca9" stroke-width=".1" d="M35 31h1v1h-1z"/><path fill="#ffc820" fill-rule="evenodd" stroke="#ffc820" stroke-width=".1" d="M70 31h6v1h-4v1h-7v1h-7v1h-7v1h-6v1h-7v1h-2v-2h7v-1h7v-1h6v-1h7v-1h7z"/><path fill="#f0bb3f" fill-rule="evenodd" stroke="#f0bb3f" stroke-width=".1" d="M76 31h1v1h-1z"/><path fill="#9768fb" fill-rule="evenodd" stroke="#9768fb" stroke-width=".1" d="M77 31h1v1h-1z"/><path fill="#9e5cfe" fill-rule="evenodd" stroke="#9e5cfe" stroke-width=".1" d="M87 31h1v1h-1zm-4 3h1v1h-1zm-4 3h1v1h-1zm-4 3h1v1h-1zm-28 21h1v1h-1zm-4 3h1v1h-1zm-4 3h1v1h-1zm-4 3h1v1h-1z"/><path fill="#9e5bfe" fill-rule="evenodd" stroke="#9e5bfe" stroke-width=".1" d="M88 31h1v1h-1zm-2 1h1v1h-1zm0 1v1h-1v-1zm-1 1v1h-1v-1zm-3 1h1v1h-1zm0 1v1h-1v-1zm-1 1v1h-1v-1zm-3 1h1v1h-1zm0 1v1h-1v-1zm-1 1v1h-1v-1zm-3 1h1v1h-1zm0 1v1h-1v-1zm-1 1v1h-1v-1zm-23 16h1v1h-1zm0 1v1h-1v-1zm-1 1v1h-1v-1zm-3 1h1v1h-1zm0 1v1h-1v-1zm-1 1v1h-1v-1zm-3 1h1v1h-1zm0 1v1h-1v-1zm-1 1v1h-1v-1zm-3 1h1v1h-1zm0 1v1h-1v-1zm-1 1v1h-1v-1zm-3 1h1v1h-1z"/><path fill="#9e5afd" fill-rule="evenodd" stroke="#9e5afd" stroke-width=".1" d="M89 31h1v1h-1z"/><path fill="#5baeff" fill-rule="evenodd" stroke="#5baeff" stroke-width=".1" d="M11 32h1v1h-1z"/><path fill="#6f96ff" fill-rule="evenodd" stroke="#6f96ff" stroke-width=".1" d="M33 32h1v1h-1zm-4 3h1v1h-1zm-4 3h1v1h-1zm-4 3h1v1h-1z"/><path fill="#7095ff" fill-rule="evenodd" stroke="#7095ff" stroke-width=".1" d="M34 32h1v1h-1zm-4 3h1v1h-1zm-4 3h1v1h-1zm-4 3h1v1h-1z"/><path fill="#b2ae9b" fill-rule="evenodd" stroke="#b2ae9b" stroke-width=".1" d="M35 32h1v1h-1z"/><path fill="#ffc71f" fill-rule="evenodd" stroke="#ffc71f" stroke-width=".1" d="M72 32h4v1h-3v1h-6v1h-7v1h-7v1h-7v1h-6v1h-4v-1h2v-1h7v-1h6v-1h7v-1h7v-1h7z"/><path fill="#bd8ca9" fill-rule="evenodd" stroke="#bd8ca9" stroke-width=".1" d="M76 32h1v1h-1z"/><path fill="#9f5afe" fill-rule="evenodd" stroke="#9f5afe" stroke-width=".1" d="M87 32h1v1h-1zm0 1v1h-1v-1zm-1 1v1h-1v-1zm-3 1h1v1h-1zm0 1v1h-1v-1zm-1 1v1h-1v-1zm-3 1h1v1h-1zm0 1v1h-1v-1zm-1 1v1h-1v-1zm-3 1h1v1h-1zm0 1v1h-1v-1zm-1 1v1h-1v-1zm-3 1h1v1h-1zm-20 15h1v1h-1zm0 1v1h-1v-1zm-1 1v1h-1v-1zm-3 1h1v1h-1zm0 1v1h-1v-1zm-1 1v1h-1v-1zm-3 1h1v1h-1zm0 1v1h-1v-1zm-1 1v1h-1v-1zm-3 1h1v1h-1zm0 1v1h-1v-1zm-1 1v1h-1v-1zm-3 1h1v1h-1zm0 1v1h-1v-1z"/><path fill="#a058fd" fill-rule="evenodd" stroke="#a058fd" stroke-width=".1" d="M88 32h1v1h-1zm-54 41h1v1h-1z"/><path fill="#5dacff" fill-rule="evenodd" stroke="#5dacff" stroke-width=".1" d="M12 33h1v1h-1z"/><path fill="#7096ff" fill-rule="evenodd" stroke="#7096ff" stroke-width=".1" d="M32 33h1v1h-1zm0 1v1h-1v-1zm-4 2h1v1h-1zm0 1v1h-1v-1zm-4 2h1v1h-1zm0 1v1h-1v-1zm-4 2h1v1h-1zm0 1v1h-1v-1z"/><path fill="#7195ff" fill-rule="evenodd" stroke="#7195ff" stroke-width=".1" d="M33 33h1v1h-1zm-4 3h1v1h-1zm-4 3h1v1h-1zm-4 3h1v1h-1z"/><path fill="#7194ff" fill-rule="evenodd" stroke="#7194ff" stroke-width=".1" d="M34 33h1v1h-1zm-2 1h1v1h-1zm0 1v1h-1v-1zm-1 1v1h-1v-1zm-3 1h1v1h-1zm0 1v1h-1v-1zm-1 1v1h-1v-1zm-3 1h1v1h-1zm0 1v1h-1v-1zm-1 1v1h-1v-1zm-3 1h1v1h-1zm0 1v1h-1v-1z"/><path fill="#baaf8e" fill-rule="evenodd" stroke="#baaf8e" stroke-width=".1" d="M35 33h1v1h-1z"/><path fill="#ffc61e" fill-rule="evenodd" stroke="#ffc61e" stroke-width=".1" d="M73 33h2v2h-7v1h-6v1h-7v1h-7v1h-7v1h-5v-1h4v-1h6v-1h7v-1h7v-1h7v-1h6z"/><path fill="#f2ba39" fill-rule="evenodd" stroke="#f2ba39" stroke-width=".1" d="M75 33h1v1h-1z"/><path fill="#9868f9" fill-rule="evenodd" stroke="#9868f9" stroke-width=".1" d="M76 33h1v1h-1z"/><path fill="#a059fe" fill-rule="evenodd" stroke="#a059fe" stroke-width=".1" d="M87 33h1v1h-1zm-3 2h1v1h-1zm0 1v1h-1v-1zm-4 2h1v1h-1zm0 1v1h-1v-1zm-4 2h1v1h-1zm0 1v1h-1v-1zm-4 2h1v1h-1zm0 1v1h-1v-1zm-20 14h1v1h-1zm0 1v1h-1v-1zm-4 2h1v1h-1zm0 1v1h-1v-1zm-4 2h1v1h-1zm0 1v1h-1v-1zm-4 2h1v1h-1zm0 1v1h-1v-1zm-4 2h1v1h-1zm0 1v1h-1v-1z"/><path fill="#a158fd" fill-rule="evenodd" stroke="#a158fd" stroke-width=".1" d="M88 33h1v1h-1z"/><path fill="#5faaff" fill-rule="evenodd" stroke="#5faaff" stroke-width=".1" d="M12 34h1v1h-1z"/><path fill="#7293ff" fill-rule="evenodd" stroke="#7293ff" stroke-width=".1" d="M33 34h1v1h-1zm0 1v1h-1v-1zm-1 1v1h-1v-1zm-3 1h1v1h-1zm0 1v1h-1v-1zm-1 1v1h-1v-1zm-3 1h1v1h-1zm0 1v1h-1v-1zm-1 1v1h-1v-1zm-3 1h1v1h-1zm0 1v1h-1v-1zm-1 1v1h-1v-1z"/><path fill="#7392ff" fill-rule="evenodd" stroke="#7392ff" stroke-width=".1" d="M34 34h1v1h-1zm0 1v1h-1v-1zm-4 2h1v1h-1zm0 1v1h-1v-1zm-4 2h1v1h-1zm0 1v1h-1v-1zm-4 2h1v1h-1zm0 1v1h-1v-1z"/><path fill="#c3b281" fill-rule="evenodd" stroke="#c3b281" stroke-width=".1" d="M35 34h1v1h-1z"/><path fill="#c08aa5" fill-rule="evenodd" stroke="#c08aa5" stroke-width=".1" d="M75 34h1v1h-1z"/><path fill="#a058fe" fill-rule="evenodd" stroke="#a058fe" stroke-width=".1" d="M86 34h1v1h-1zm0 1v1h-1v-1zm-4 2h1v1h-1zm0 1v1h-1v-1zm-4 2h1v1h-1zm0 1v1h-1v-1zm-4 2h1v1h-1zm0 1v1h-1v-1zm-4 2h1v1h-1zm-20 15h1v1h-1zm-4 3h1v1h-1zm-4 3h1v1h-1zm-4 3h1v1h-1z"/><path fill="#a157fd" fill-rule="evenodd" stroke="#a157fd" stroke-width=".1" d="M87 34h1v1h-1z"/><path fill="#7491ff" fill-rule="evenodd" stroke="#7491ff" stroke-width=".1" d="M34 35h1v1h-1zm-4 3h1v1h-1zm-4 3h1v1h-1zm-4 3h1v1h-1z"/><path fill="#ccb474" fill-rule="evenodd" stroke="#ccb474" stroke-width=".1" d="M35 35h1v1h-1z"/><path fill="#ffc51d" fill-rule="evenodd" stroke="#ffc51d" stroke-width=".1" d="M68 35h6v1h-4v1h-7v1h-6v1h-7v1h-7v1h-7v-1h5v-1h7v-1h7v-1h7v-1h6z"/><path fill="#f3ba38" fill-rule="evenodd" stroke="#f3ba38" stroke-width=".1" d="M74 35h1v1h-1z"/><path fill="#9a66f9" fill-rule="evenodd" stroke="#9a66f9" stroke-width=".1" d="M75 35h1v1h-1z"/><path fill="#a157fe" fill-rule="evenodd" stroke="#a157fe" stroke-width=".1" d="M86 35h1v1h-1zm-3 2h1v1h-1zm0 1v1h-1v-1zm-4 2h1v1h-1zm0 1v1h-1v-1zm-4 2h1v1h-1zm0 1v1h-1v-1zm-4 2h1v1h-1zm0 1v1h-1v-1zm-20 14h1v1h-1zm0 1v1h-1v-1zm-4 2h1v1h-1zm0 1v1h-1v-1zm-4 2h1v1h-1zm0 1v1h-1v-1zm-4 2h1v1h-1zm0 1v1h-1v-1zm-4 2h1v1h-1z"/><path fill="#62a6ff" fill-rule="evenodd" stroke="#62a6ff" stroke-width=".1" d="M13 36h1v1h-1z"/><path fill="#7391ff" fill-rule="evenodd" stroke="#7391ff" stroke-width=".1" d="M32 36h1v1h-1zm0 1v1h-1v-1zm-4 2h1v1h-1zm0 1v1h-1v-1zm-4 2h1v1h-1zm0 1v1h-1v-1zm-4 2h1v1h-1z"/><path fill="#7490ff" fill-rule="evenodd" stroke="#7490ff" stroke-width=".1" d="M33 36h1v1h-1zm0 1v1h-1v-1zm-4 2h1v1h-1zm0 1v1h-1v-1zm-4 2h1v1h-1zm0 1v1h-1v-1zm-4 2h1v1h-1zm0 1v1h-1v-1z"/><path fill="#758fff" fill-rule="evenodd" stroke="#758fff" stroke-width=".1" d="M34 36h1v1h-1zm0 1v1h-1v-1zm-4 2h1v1h-1zm0 1v1h-1v-1zm-4 2h1v1h-1zm0 1v1h-1v-1zm-4 2h1v1h-1zm0 1v1h-1v-1z"/><path fill="#d4b767" fill-rule="evenodd" stroke="#d4b767" stroke-width=".1" d="M35 36h1v1h-1z"/><path fill="#ffc41c" fill-rule="evenodd" stroke="#ffc41c" stroke-width=".1" d="M70 36h4v1h-2v1h-7v1h-7v1h-6v1h-7v1h-7v1h-3v-1h1v-1h7v-1h7v-1h7v-1h6v-1h7z"/><path fill="#c28ba1" fill-rule="evenodd" stroke="#c28ba1" stroke-width=".1" d="M74 36h1v1h-1z"/><path fill="#a158fe" fill-rule="evenodd" stroke="#a158fe" stroke-width=".1" d="M84 36h1v1h-1zm-4 3h1v1h-1zm-4 3h1v1h-1zm-4 3h1v1h-1zm-20 15h1v1h-1zm-3 2h1v1h-1zm0 1v1h-1v-1zm-4 2h1v1h-1zm0 1v1h-1v-1zm-4 2h1v1h-1zm0 1v1h-1v-1zm-4 2h1v1h-1zm0 1v1h-1v-1z"/><path fill="#a257fe" fill-rule="evenodd" stroke="#a257fe" stroke-width=".1" d="M85 36h1v1h-1zm-4 3h1v1h-1zm-4 3h1v1h-1zm-4 3h1v1h-1zm-4 3h1v1h-1zm-20 15h1v1h-1zm-4 3h1v1h-1zm-4 3h1v1h-1zm-4 3h1v1h-1z"/><path fill="#a356fd" fill-rule="evenodd" stroke="#a356fd" stroke-width=".1" d="M86 36h1v1h-1z"/><path fill="#768eff" fill-rule="evenodd" stroke="#768eff" stroke-width=".1" d="M34 37h1v1h-1zm-2 1h1v1h-1zm0 1v1h-1v-1zm-1 1v1h-1v-1zm-3 1h1v1h-1zm0 1v1h-1v-1zm-1 1v1h-1v-1zm-3 1h1v1h-1zm0 1v1h-1v-1zm-1 1v1h-1v-1zm-3 1h1v1h-1z"/><path fill="#dcb959" fill-rule="evenodd" stroke="#dcb959" stroke-width=".1" d="M35 37h1v1h-1z"/><path fill="#ffc31b" fill-rule="evenodd" stroke="#ffc31b" stroke-width=".1" d="M72 37h1v2h-6v1h-7v1h-7v1h-6v1h-7v1h-5v-1h3v-1h7v-1h7v-1h6v-1h7v-1h7z"/><path fill="#f4b934" fill-rule="evenodd" stroke="#f4b934" stroke-width=".1" d="M73 37h1v1h-1z"/><path fill="#9c63f8" fill-rule="evenodd" stroke="#9c63f8" stroke-width=".1" d="M74 37h1v1h-1z"/><path fill="#a256fe" fill-rule="evenodd" stroke="#a256fe" stroke-width=".1" d="M84 37h1v1h-1zm0 1v1h-1v-1zm-4 2h1v1h-1zm0 1v1h-1v-1zm-4 2h1v1h-1zm0 1v1h-1v-1zm-4 2h1v1h-1zm0 1v1h-1v-1zm-20 14h1v1h-1zm0 1v1h-1v-1zm-4 2h1v1h-1zm0 1v1h-1v-1zm-4 2h1v1h-1zm0 1v1h-1v-1zm-4 2h1v1h-1zm0 1v1h-1v-1zm-4 2h1v1h-1z"/><path fill="#a355fe" fill-rule="evenodd" stroke="#a355fe" stroke-width=".1" d="M85 37h1v1h-1zm0 1v1h-1v-1zm-4 2h1v1h-1zm0 1v1h-1v-1zm-4 2h1v1h-1zm0 1v1h-1v-1zm-4 2h1v1h-1zm0 1v1h-1v-1zm-3 1h1v1h-1zm0 1v1h-1v-1zm-1 1v1h-1v-1zm-17 12h1v1h-1zm-2 1h1v1h-1zm0 1v1h-1v-1zm-1 1v1h-1v-1zm-3 1h1v1h-1zm0 1v1h-1v-1zm-1 1v1h-1v-1zm-3 1h1v1h-1zm0 1v1h-1v-1zm-1 1v1h-1v-1zm-3 1h1v1h-1zm0 1v1h-1v-1zm-1 1v1h-1v-1z"/><path fill="#7590ff" fill-rule="evenodd" stroke="#7590ff" stroke-width=".1" d="M31 38h1v1h-1zm-4 3h1v1h-1zm-4 3h1v1h-1z"/><path fill="#768dff" fill-rule="evenodd" stroke="#768dff" stroke-width=".1" d="M33 38h1v1h-1zm-4 3h1v1h-1zm-4 3h1v1h-1zm-4 3h1v1h-1z"/><path fill="#778cff" fill-rule="evenodd" stroke="#778cff" stroke-width=".1" d="M34 38h1v1h-1zm-4 3h1v1h-1zm-4 3h1v1h-1zm-4 3h1v1h-1z"/><path fill="#e5bb4b" fill-rule="evenodd" stroke="#e5bb4b" stroke-width=".1" d="M35 38h1v1h-1z"/><path fill="#c48b9d" fill-rule="evenodd" stroke="#c48b9d" stroke-width=".1" d="M73 38h1v1h-1z"/><path fill="#a454fd" fill-rule="evenodd" stroke="#a454fd" stroke-width=".1" d="M85 38h1v1h-1z"/><path fill="#778dff" fill-rule="evenodd" stroke="#778dff" stroke-width=".1" d="M32 39h1v1h-1zm0 1v1h-1v-1zm-4 2h1v1h-1zm0 1v1h-1v-1zm-4 2h1v1h-1zm0 1v1h-1v-1z"/><path fill="#788cff" fill-rule="evenodd" stroke="#788cff" stroke-width=".1" d="M33 39h1v1h-1zm0 1v1h-1v-1zm-4 2h1v1h-1zm0 1v1h-1v-1zm-4 2h1v1h-1zm0 1v1h-1v-1zm-4 2h1v1h-1z"/><path fill="#788bff" fill-rule="evenodd" stroke="#788bff" stroke-width=".1" d="M34 39h1v1h-1zm-3 2h1v1h-1zm0 1v1h-1v-1zm-4 2h1v1h-1zm0 1v1h-1v-1zm-4 2h1v1h-1zm0 1v1h-1v-1z"/><path fill="#edbe3d" fill-rule="evenodd" stroke="#edbe3d" stroke-width=".1" d="M35 39h1v1h-1z"/><path fill="#ffc21a" fill-rule="evenodd" stroke="#ffc21a" stroke-width=".1" d="M67 39h5v1h-3v1h-7v1h-7v1h-8v-1h6v-1h7v-1h7zm-27 4h2v1h-2zm-4 1h2v1h-2z"/><path fill="#f5b930" fill-rule="evenodd" stroke="#f5b930" stroke-width=".1" d="M72 39h1v1h-1z"/><path fill="#9f64f6" fill-rule="evenodd" stroke="#9f64f6" stroke-width=".1" d="M73 39h1v1h-1z"/><path fill="#a356fe" fill-rule="evenodd" stroke="#a356fe" stroke-width=".1" d="M82 39h1v1h-1zm-4 3h1v1h-1zm-4 3h1v1h-1z"/><path fill="#a354fe" fill-rule="evenodd" stroke="#a354fe" stroke-width=".1" d="M83 39h1v1h-1zm-4 3h1v1h-1zm-4 3h1v1h-1zm-4 3h1v1h-1zm-20 15h1v1h-1zm-4 3h1v1h-1zm-4 3h1v1h-1zm-4 3h1v1h-1z"/><path fill="#a453fe" fill-rule="evenodd" stroke="#a453fe" stroke-width=".1" d="M84 39h1v1h-1zm-4 3h1v1h-1zm-4 3h1v1h-1zm-4 3h1v1h-1zm-4 3h1v1h-1zm-20 15h1v1h-1zm-4 3h1v1h-1zm-4 3h1v1h-1zm-4 3h1v1h-1z"/><path fill="#798aff" fill-rule="evenodd" stroke="#798aff" stroke-width=".1" d="M33 40h1v1h-1zm0 1v1h-1v-1zm-1 1v1h-1v-1zm-3 1h1v1h-1zm0 1v1h-1v-1zm-1 1v1h-1v-1zm-3 1h1v1h-1zm0 1v1h-1v-1zm-1 1v1h-1v-1z"/><path fill="#7a89ff" fill-rule="evenodd" stroke="#7a89ff" stroke-width=".1" d="M34 40h1v1h-1zm0 1v1h-1v-1zm-1 1v1h-1v-1zm-3 1h1v1h-1zm0 1v1h-1v-1zm-1 1v1h-1v-1zm-3 1h1v1h-1zm0 1v1h-1v-1zm-1 1v1h-1v-1zm-3 1h1v1h-1z"/><path fill="#f5c12f" fill-rule="evenodd" stroke="#f5c12f" stroke-width=".1" d="M35 40h1v1h-1z"/><path fill="#ffc119" fill-rule="evenodd" stroke="#ffc119" stroke-width=".1" d="M69 40h3v1h-2v1h-6v1h-7v1h-7v1h-2v-2h7v-1h7v-1h7z"/><path fill="#c78a99" fill-rule="evenodd" stroke="#c78a99" stroke-width=".1" d="M72 40h1v1h-1z"/><path fill="#a454fe" fill-rule="evenodd" stroke="#a454fe" stroke-width=".1" d="M82 40h1v1h-1zm0 1v1h-1v-1zm-4 2h1v1h-1zm0 1v1h-1v-1zm-4 2h1v1h-1zm0 1v1h-1v-1zm-4 2h1v1h-1zm0 1v1h-1v-1zm-20 14h1v1h-1zm0 1v1h-1v-1zm-4 2h1v1h-1zm0 1v1h-1v-1zm-4 2h1v1h-1zm0 1v1h-1v-1zm-4 2h1v1h-1zm0 1v1h-1v-1z"/><path fill="#a553fe" fill-rule="evenodd" stroke="#a553fe" stroke-width=".1" d="M83 40h1v1h-1zm0 1v1h-1v-1zm-4 2h1v1h-1zm0 1v1h-1v-1zm-4 2h1v1h-1zm0 1v1h-1v-1zm-4 2h1v1h-1zm0 1v1h-1v-1zm-4 2h1v1h-1zm-16 12h1v1h-1zm0 1v1h-1v-1zm-4 2h1v1h-1zm0 1v1h-1v-1zm-4 2h1v1h-1zm-4 3h1v1h-1z"/><path fill="#a452fd" fill-rule="evenodd" stroke="#a452fd" stroke-width=".1" d="M84 40h1v1h-1z"/><path fill="#6a9cff" fill-rule="evenodd" stroke="#6a9cff" stroke-width=".1" d="M16 41h1v1h-1z"/><path fill="#7b88ff" fill-rule="evenodd" stroke="#7b88ff" stroke-width=".1" d="M34 41h1v1h-1zm-3 2h1v1h-1zm0 1v1h-1v-1zm-4 2h1v1h-1zm0 1v1h-1v-1zm-4 2h1v1h-1zm0 1v1h-1v-1z"/><path fill="#fcc322" fill-rule="evenodd" stroke="#fcc322" stroke-width=".1" d="M35 41h1v1h-1z"/><path fill="#ffc018" fill-rule="evenodd" stroke="#ffc018" stroke-width=".1" d="M70 41h1v2h-6v1h-6v1h-7v1h-4v-1h2v-1h7v-1h7v-1h6z"/><path fill="#f6b82d" fill-rule="evenodd" stroke="#f6b82d" stroke-width=".1" d="M71 41h1v1h-1z"/><path fill="#a062f5" fill-rule="evenodd" stroke="#a062f5" stroke-width=".1" d="M72 41h1v1h-1z"/><path fill="#a650fd" fill-rule="evenodd" stroke="#a650fd" stroke-width=".1" d="M83 41h1v1h-1zm-47 36h1v1h-1z"/><path fill="#7b87ff" fill-rule="evenodd" stroke="#7b87ff" stroke-width=".1" d="M33 42h1v1h-1zm0 1v1h-1v-1zm-4 2h1v1h-1zm0 1v1h-1v-1zm-4 2h1v1h-1zm0 1v1h-1v-1z"/><path fill="#8188f7" fill-rule="evenodd" stroke="#8188f7" stroke-width=".1" d="M34 42h1v1h-1z"/><path fill="#c98a95" fill-rule="evenodd" stroke="#c98a95" stroke-width=".1" d="M71 42h1v1h-1z"/><path fill="#a552fe" fill-rule="evenodd" stroke="#a552fe" stroke-width=".1" d="M81 42h1v1h-1zm0 1v1h-1v-1zm-4 2h1v1h-1zm0 1v1h-1v-1zm-4 2h1v1h-1zm0 1v1h-1v-1zm-4 2h1v1h-1zm0 1v1h-1v-1zm-20 14h1v1h-1zm0 1v1h-1v-1zm-4 2h1v1h-1zm0 1v1h-1v-1zm-3 1h1v1h-1zm0 1v1h-1v-1zm-4 2h1v1h-1zm0 1v1h-1v-1z"/><path fill="#a651fe" fill-rule="evenodd" stroke="#a651fe" stroke-width=".1" d="M82 42h1v1h-1zm0 1v1h-1v-1zm-3 1h1v1h-1zm0 1v1h-1v-1zm-1 1v1h-1v-1zm-3 1h1v1h-1zm0 1v1h-1v-1zm-1 1v1h-1v-1zm-3 1h1v1h-1zm0 1v1h-1v-1zm-1 1v1h-1v-1zm-3 1h1v1h-1zm0 1v1h-1v-1zm-16 11h1v1h-1zm0 1v1h-1v-1zm-1 1v1h-1v-1zm-3 1h1v1h-1zm0 1v1h-1v-1zm-1 1v1h-1v-1zm-3 1h1v1h-1zm0 1v1h-1v-1zm-1 1v1h-1v-1zm-3 1h1v1h-1zm0 1v1h-1v-1zm-1 1v1h-1v-1z"/><path fill="#a74ffd" fill-rule="evenodd" stroke="#a74ffd" stroke-width=".1" d="M83 42h1v1h-1z"/><path fill="#6e97ff" fill-rule="evenodd" stroke="#6e97ff" stroke-width=".1" d="M17 43h1v1h-1z"/><path fill="#7c86ff" fill-rule="evenodd" stroke="#7c86ff" stroke-width=".1" d="M33 43h1v1h-1zm-3 2h1v1h-1zm0 1v1h-1v-1zm-4 2h1v1h-1zm0 1v1h-1v-1z"/><path fill="#898bea" fill-rule="evenodd" stroke="#898bea" stroke-width=".1" d="M34 43h1v1h-1z"/><path fill="#f9be26" fill-rule="evenodd" stroke="#f9be26" stroke-width=".1" d="M42 43h1v1h-1z"/><path fill="#deaf59" fill-rule="evenodd" stroke="#deaf59" stroke-width=".1" d="M43 43h1v1h-1z"/><path fill="#c29e8d" fill-rule="evenodd" stroke="#c29e8d" stroke-width=".1" d="M44 43h1v1h-1z"/><path fill="#a68bc4" fill-rule="evenodd" stroke="#a68bc4" stroke-width=".1" d="M45 43h1v1h-1z"/><path fill="#a489c7" fill-rule="evenodd" stroke="#a489c7" stroke-width=".1" d="M46 43h1v1h-1z"/><path fill="#f2b934" fill-rule="evenodd" stroke="#f2b934" stroke-width=".1" d="M47 43h1v1h-1z"/><path fill="#ffbf17" fill-rule="evenodd" stroke="#ffbf17" stroke-width=".1" d="M65 43h5v1h-3v1h-6v1h-7v1h-6v-1h4v-1h7v-1h6z"/><path fill="#f7b72a" fill-rule="evenodd" stroke="#f7b72a" stroke-width=".1" d="M70 43h1v1h-1z"/><path fill="#a260f4" fill-rule="evenodd" stroke="#a260f4" stroke-width=".1" d="M71 43h1v1h-1z"/><path fill="#a64ffd" fill-rule="evenodd" stroke="#a64ffd" stroke-width=".1" d="M82 43h1v1h-1z"/><path fill="#6f94ff" fill-rule="evenodd" stroke="#6f94ff" stroke-width=".1" d="M18 44h1v1h-1z"/><path fill="#7c87ff" fill-rule="evenodd" stroke="#7c87ff" stroke-width=".1" d="M31 44h1v1h-1zm-4 3h1v1h-1zm-4 3h1v1h-1z"/><path fill="#7d86ff" fill-rule="evenodd" stroke="#7d86ff" stroke-width=".1" d="M32 44h1v1h-1zm-4 3h1v1h-1zm-4 3h1v1h-1z"/><path fill="#7d84ff" fill-rule="evenodd" stroke="#7d84ff" stroke-width=".1" d="M33 44h1v1h-1zm-4 3h1v1h-1zm-4 3h1v1h-1z"/><path fill="#8587f2" fill-rule="evenodd" stroke="#8587f2" stroke-width=".1" d="M34 44h1v1h-1z"/><path fill="#fac022" fill-rule="evenodd" stroke="#fac022" stroke-width=".1" d="M35 44h1v1h-1z"/><path fill="#f2bb31" fill-rule="evenodd" stroke="#f2bb31" stroke-width=".1" d="M38 44h1v1h-1z"/><path fill="#d5ab67" fill-rule="evenodd" stroke="#d5ab67" stroke-width=".1" d="M39 44h1v1h-1z"/><path fill="#b99b9b" fill-rule="evenodd" stroke="#b99b9b" stroke-width=".1" d="M40 44h1v1h-1z"/><path fill="#9c8ad1" fill-rule="evenodd" stroke="#9c8ad1" stroke-width=".1" d="M41 44h1v1h-1z"/><path fill="#867bfb" fill-rule="evenodd" stroke="#867bfb" stroke-width=".1" d="M42 44h1v1h-1z"/><path fill="#d1a373" fill-rule="evenodd" stroke="#d1a373" stroke-width=".1" d="M47 44h1v1h-1z"/><path fill="#ffbe16" fill-rule="evenodd" stroke="#ffbe16" stroke-width=".1" d="M67 44h3v1h-1v1h-7v1h-6v1h-7v1h-2v-2h7v-1h7v-1h6z"/><path fill="#cc8990" fill-rule="evenodd" stroke="#cc8990" stroke-width=".1" d="M70 44h1v1h-1z"/><path fill="#a750fe" fill-rule="evenodd" stroke="#a750fe" stroke-width=".1" d="M80 44h1v1h-1zm0 1v1h-1v-1zm-1 1v1h-1v-1zm-3 1h1v1h-1zm0 1v1h-1v-1zm-1 1v1h-1v-1zm-3 1h1v1h-1zm0 1v1h-1v-1zm-1 1v1h-1v-1zm-3 1h1v1h-1zm0 1v1h-1v-1zm-1 1v1h-1v-1zm-16 11h1v1h-1zm0 1v1h-1v-1zm-3 1h1v1h-1zm0 1v1h-1v-1zm-1 1v1h-1v-1zm-3 1h1v1h-1zm0 1v1h-1v-1zm-1 1v1h-1v-1zm-3 1h1v1h-1zm0 1v1h-1v-1zm-1 1v1h-1v-1z"/><path fill="#a84ffe" fill-rule="evenodd" stroke="#a84ffe" stroke-width=".1" d="M81 44h1v1h-1zm0 1v1h-1v-1zm-4 2h1v1h-1zm0 1v1h-1v-1zm-4 2h1v1h-1zm0 1v1h-1v-1zm-4 2h1v1h-1zm0 1v1h-1v-1zm-4 2h1v1h-1zm-16 12h1v1h-1zm0 1v1h-1v-1zm-4 2h1v1h-1zm0 1v1h-1v-1zm-4 2h1v1h-1zm0 1v1h-1v-1zm-4 2h1v1h-1z"/><path fill="#a84dfd" fill-rule="evenodd" stroke="#a84dfd" stroke-width=".1" d="M82 44h1v1h-1z"/><path fill="#9a8ecf" fill-rule="evenodd" stroke="#9a8ecf" stroke-width=".1" d="M35 45h1v1h-1z"/><path fill="#ad97ad" fill-rule="evenodd" stroke="#ad97ad" stroke-width=".1" d="M36 45h1v1h-1z"/><path fill="#9388df" fill-rule="evenodd" stroke="#9388df" stroke-width=".1" d="M37 45h1v1h-1z"/><path fill="#e2ad52" fill-rule="evenodd" stroke="#e2ad52" stroke-width=".1" d="M47 45h1v1h-1z"/><path fill="#f8b626" fill-rule="evenodd" stroke="#f8b626" stroke-width=".1" d="M69 45h1v1h-1z"/><path fill="#a45ff2" fill-rule="evenodd" stroke="#a45ff2" stroke-width=".1" d="M70 45h1v1h-1z"/><path fill="#a84efd" fill-rule="evenodd" stroke="#a84efd" stroke-width=".1" d="M81 45h1v1h-1zm-44 33h1v1h-1z"/><path fill="#7390ff" fill-rule="evenodd" stroke="#7390ff" stroke-width=".1" d="M19 46h1v1h-1z"/><path fill="#8c73fc" fill-rule="evenodd" stroke="#8c73fc" stroke-width=".1" d="M46 46h1v1h-1z"/><path fill="#f9bb24" fill-rule="evenodd" stroke="#f9bb24" stroke-width=".1" d="M47 46h1v1h-1z"/><path fill="#ffbd15" fill-rule="evenodd" stroke="#ffbd15" stroke-width=".1" d="M62 46h7v1h-5v1h-7v1h-6v1h-4v-1h2v-1h7v-1h6z"/><path fill="#cd8a8d" fill-rule="evenodd" stroke="#cd8a8d" stroke-width=".1" d="M69 46h1v1h-1z"/><path fill="#a84efe" fill-rule="evenodd" stroke="#a84efe" stroke-width=".1" d="M79 46h1v1h-1zm0 1v1h-1v-1zm-4 2h1v1h-1zm0 1v1h-1v-1zm-4 2h1v1h-1zm0 1v1h-1v-1zm-4 2h1v1h-1zm0 1v1h-1v-1zm-16 11h1v1h-1zm0 1v1h-1v-1zm-4 2h1v1h-1zm0 1v1h-1v-1zm-4 2h1v1h-1zm0 1v1h-1v-1zm-4 2h1v1h-1zm0 1v1h-1v-1z"/><path fill="#a94dfe" fill-rule="evenodd" stroke="#a94dfe" stroke-width=".1" d="M80 46h1v1h-1zm0 1v1h-1v-1zm-4 2h1v1h-1zm0 1v1h-1v-1zm-4 2h1v1h-1zm0 1v1h-1v-1zm-4 2h1v1h-1zm0 1v1h-1v-1zm-4 2h1v1h-1zm-16 12h1v1h-1zm0 1v1h-1v-1zm-4 2h1v1h-1zm0 1v1h-1v-1zm-4 2h1v1h-1zm0 1v1h-1v-1z"/><path fill="#857afe" fill-rule="evenodd" stroke="#857afe" stroke-width=".1" d="M38 47h1v1h-1zm-4 3h1v1h-1zm-4 3h1v1h-1zm-4 3h1v1h-1z"/><path fill="#9e7eda" fill-rule="evenodd" stroke="#9e7eda" stroke-width=".1" d="M46 47h1v1h-1z"/><path fill="#ffbc14" fill-rule="evenodd" stroke="#ffbc14" stroke-width=".1" d="M64 47h4v1h-2v1h-7v1h-7v1h-5v-1h4v-1h6v-1h7z"/><path fill="#f9b622" fill-rule="evenodd" stroke="#f9b622" stroke-width=".1" d="M68 47h1v1h-1z"/><path fill="#a65eef" fill-rule="evenodd" stroke="#a65eef" stroke-width=".1" d="M69 47h1v1h-1z"/><path fill="#aa4cfd" fill-rule="evenodd" stroke="#aa4cfd" stroke-width=".1" d="M80 47h1v1h-1z"/><path fill="#768cff" fill-rule="evenodd" stroke="#768cff" stroke-width=".1" d="M20 48h1v1h-1z"/><path fill="#b68cab" fill-rule="evenodd" stroke="#b68cab" stroke-width=".1" d="M46 48h1v1h-1z"/><path fill="#ffbb13" fill-rule="evenodd" stroke="#ffbb13" stroke-width=".1" d="M66 48h2v1h-1v1h-6v1h-7v1h-7v-1h5v-1h7v-1h7zm-19 4v1h-1v-1z"/><path fill="#d08988" fill-rule="evenodd" stroke="#d08988" stroke-width=".1" d="M68 48h1v1h-1z"/><path fill="#a94efe" fill-rule="evenodd" stroke="#a94efe" stroke-width=".1" d="M77 48h1v1h-1zm-4 3h1v1h-1zm-4 3h1v1h-1zm-4 3h1v1h-1zm-16 12h1v1h-1zm-4 3h1v1h-1zm-4 3h1v1h-1z"/><path fill="#aa4dfe" fill-rule="evenodd" stroke="#aa4dfe" stroke-width=".1" d="M78 48h1v1h-1zm-4 3h1v1h-1zm-4 3h1v1h-1zm-4 3h1v1h-1zm-16 12h1v1h-1zm-4 3h1v1h-1zm-4 3h1v1h-1zm-4 3h1v1h-1z"/><path fill="#aa4cfe" fill-rule="evenodd" stroke="#aa4cfe" stroke-width=".1" d="M79 48h1v1h-1zm-2 1h1v1h-1zm0 1v1h-1v-1zm-1 1v1h-1v-1zm-3 1h1v1h-1zm0 1v1h-1v-1zm-4 2h1v1h-1zm0 1v1h-1v-1zm-4 2h1v1h-1zm0 1v1h-1v-1zm-16 11h1v1h-1zm0 1v1h-1v-1zm-4 2h1v1h-1zm0 1v1h-1v-1zm-4 2h1v1h-1zm0 1v1h-1v-1z"/><path fill="#7989ff" fill-rule="evenodd" stroke="#7989ff" stroke-width=".1" d="M21 49h1v1h-1z"/><path fill="#cd9a7d" fill-rule="evenodd" stroke="#cd9a7d" stroke-width=".1" d="M46 49h1v1h-1z"/><path fill="#fab620" fill-rule="evenodd" stroke="#fab620" stroke-width=".1" d="M67 49h1v1h-1z"/><path fill="#a85cee" fill-rule="evenodd" stroke="#a85cee" stroke-width=".1" d="M68 49h1v1h-1z"/><path fill="#ab4bfe" fill-rule="evenodd" stroke="#ab4bfe" stroke-width=".1" d="M78 49h1v1h-1zm0 1v1h-1v-1zm-4 2h1v1h-1zm0 1v1h-1v-1zm-4 2h1v1h-1zm0 1v1h-1v-1zm-4 2h1v1h-1zm0 1v1h-1v-1zm-16 11h1v1h-1zm0 1v1h-1v-1zm-4 2h1v1h-1zm0 1v1h-1v-1zm-4 2h1v1h-1zm0 1v1h-1v-1zm-4 2h1v1h-1z"/><path fill="#ab4afd" fill-rule="evenodd" stroke="#ab4afd" stroke-width=".1" d="M79 49h1v1h-1z"/><path fill="#7988ff" fill-rule="evenodd" stroke="#7988ff" stroke-width=".1" d="M21 50h1v1h-1z"/><path fill="#e4a94c" fill-rule="evenodd" stroke="#e4a94c" stroke-width=".1" d="M46 50h1v1h-1z"/><path fill="#ffba12" fill-rule="evenodd" stroke="#ffba12" stroke-width=".1" d="M61 50h6v1h-4v1h-7v1h-7v1h-3v-1h1v-1h7v-1h7z"/><path fill="#d18986" fill-rule="evenodd" stroke="#d18986" stroke-width=".1" d="M67 50h1v1h-1z"/><path fill="#ac4afe" fill-rule="evenodd" stroke="#ac4afe" stroke-width=".1" d="M78 50h1v1h-1zm-3 2h1v1h-1zm0 1v1h-1v-1zm-4 2h1v1h-1zm0 1v1h-1v-1zm-4 2h1v1h-1zm0 1v1h-1v-1zm-4 2h1v1h-1zm0 1v1h-1v-1zm-13 9h1v1h-1zm-3 2h1v1h-1zm0 1v1h-1v-1zm-4 2h1v1h-1zm0 1v1h-1v-1zm-4 2h1v1h-1z"/><path fill="#7b86ff" fill-rule="evenodd" stroke="#7b86ff" stroke-width=".1" d="M22 51h1v1h-1z"/><path fill="#916dfc" fill-rule="evenodd" stroke="#916dfc" stroke-width=".1" d="M45 51h1v1h-1z"/><path fill="#f9b71f" fill-rule="evenodd" stroke="#f9b71f" stroke-width=".1" d="M46 51h1v1h-1z"/><path fill="#ffb911" fill-rule="evenodd" stroke="#ffb911" stroke-width=".1" d="M63 51h3v1h-2v1h-6v1h-7v1h-5v-1h3v-1h7v-1h7z"/><path fill="#fbb41c" fill-rule="evenodd" stroke="#fbb41c" stroke-width=".1" d="M66 51h1v1h-1z"/><path fill="#aa5ceb" fill-rule="evenodd" stroke="#aa5ceb" stroke-width=".1" d="M67 51h1v1h-1z"/><path fill="#ab4afe" fill-rule="evenodd" stroke="#ab4afe" stroke-width=".1" d="M76 51h1v1h-1zm-4 3h1v1h-1zm-4 3h1v1h-1zm-4 3h1v1h-1zm-16 12h1v1h-1zm-4 3h1v1h-1zm-4 3h1v1h-1z"/><path fill="#ac49fe" fill-rule="evenodd" stroke="#ac49fe" stroke-width=".1" d="M77 51h1v1h-1zm0 1v1h-1v-1zm-4 2h1v1h-1zm0 1v1h-1v-1zm-4 2h1v1h-1zm0 1v1h-1v-1zm-4 2h1v1h-1zm0 1v1h-1v-1zm-16 11h1v1h-1zm-4 3h1v1h-1zm-4 3h1v1h-1z"/><path fill="#ac47fd" fill-rule="evenodd" stroke="#ac47fd" stroke-width=".1" d="M78 51h1v1h-1z"/><path fill="#7c84ff" fill-rule="evenodd" stroke="#7c84ff" stroke-width=".1" d="M22 52h1v1h-1z"/><path fill="#a378d8" fill-rule="evenodd" stroke="#a378d8" stroke-width=".1" d="M45 52h1v1h-1z"/><path fill="#ffb810" fill-rule="evenodd" stroke="#ffb810" stroke-width=".1" d="M64 52h2v1h-1v1h-6v1h-6v1h-7v-1h5v-1h7v-1h6z"/><path fill="#d48981" fill-rule="evenodd" stroke="#d48981" stroke-width=".1" d="M66 52h1v1h-1z"/><path fill="#ad48fd" fill-rule="evenodd" stroke="#ad48fd" stroke-width=".1" d="M77 52h1v1h-1z"/><path fill="#b987a8" fill-rule="evenodd" stroke="#b987a8" stroke-width=".1" d="M45 53h1v1h-1z"/><path fill="#fbb41a" fill-rule="evenodd" stroke="#fbb41a" stroke-width=".1" d="M65 53h1v1h-1z"/><path fill="#ad5ce9" fill-rule="evenodd" stroke="#ad5ce9" stroke-width=".1" d="M66 53h1v1h-1z"/><path fill="#ad49fe" fill-rule="evenodd" stroke="#ad49fe" stroke-width=".1" d="M75 53h1v1h-1zm-4 3h1v1h-1zm-4 3h1v1h-1zm-4 3h1v1h-1zm-15 11h1v1h-1zm0 1v1h-1v-1zm-4 2h1v1h-1zm-4 3h1v1h-1z"/><path fill="#ae47fe" fill-rule="evenodd" stroke="#ae47fe" stroke-width=".1" d="M76 53h1v1h-1zm0 1v1h-1v-1zm-1 1v1h-1v-1zm-3 1h1v1h-1zm0 1v1h-1v-1zm-1 1v1h-1v-1zm-3 1h1v1h-1zm0 1v1h-1v-1zm-1 1v1h-1v-1zm-3 1h1v1h-1zm0 1v1h-1v-1zm-1 1v1h-1v-1zm-15 10h1v1h-1zm0 1v1h-1v-1zm-1 1v1h-1v-1zm-3 1h1v1h-1zm0 1v1h-1v-1zm-1 1v1h-1v-1zm-3 1h1v1h-1zm0 1v1h-1v-1z"/><path fill="#af46fd" fill-rule="evenodd" stroke="#af46fd" stroke-width=".1" d="M77 53h1v1h-1z"/><path fill="#d0967a" fill-rule="evenodd" stroke="#d0967a" stroke-width=".1" d="M45 54h1v1h-1z"/><path fill="#ffb70f" fill-rule="evenodd" stroke="#ffb70f" stroke-width=".1" d="M59 54h6v1h-4v1h-7v1h-6v1h-3v-1h1v-1h7v-1h6z"/><path fill="#d6897d" fill-rule="evenodd" stroke="#d6897d" stroke-width=".1" d="M65 54h1v1h-1z"/><path fill="#aa4bfe" fill-rule="evenodd" stroke="#aa4bfe" stroke-width=".1" d="M71 54h1v1h-1zm-4 3h1v1h-1zm-4 3h1v1h-1zm-16 12h1v1h-1zm-4 3h1v1h-1zm-4 3h1v1h-1z"/><path fill="#ad48fe" fill-rule="evenodd" stroke="#ad48fe" stroke-width=".1" d="M74 54h1v1h-1zm0 1v1h-1v-1zm-4 2h1v1h-1zm0 1v1h-1v-1zm-4 2h1v1h-1zm0 1v1h-1v-1zm-4 2h1v1h-1zm0 1v1h-1v-1zm-12 8h1v1h-1zm0 1v1h-1v-1zm-4 2h1v1h-1zm0 1v1h-1v-1zm-3 1h1v1h-1zm0 1v1h-1v-1zm-1 1v1h-1v-1zm-3 1h1v1h-1z"/><path fill="#ae45fd" fill-rule="evenodd" stroke="#ae45fd" stroke-width=".1" d="M76 54h1v1h-1z"/><path fill="#817efd" fill-rule="evenodd" stroke="#817efd" stroke-width=".1" d="M24 55h1v1h-1z"/><path fill="#e6a548" fill-rule="evenodd" stroke="#e6a548" stroke-width=".1" d="M45 55h1v1h-1z"/><path fill="#ffb60e" fill-rule="evenodd" stroke="#ffb60e" stroke-width=".1" d="M61 55h3v1h-1v1h-7v1h-7v1h-4v-1h3v-1h6v-1h7z"/><path fill="#fcb316" fill-rule="evenodd" stroke="#fcb316" stroke-width=".1" d="M64 55h1v1h-1z"/><path fill="#af5be6" fill-rule="evenodd" stroke="#af5be6" stroke-width=".1" d="M65 55h1v1h-1z"/><path fill="#af46fe" fill-rule="evenodd" stroke="#af46fe" stroke-width=".1" d="M75 55h1v1h-1zm-2 1h1v1h-1zm0 1v1h-1v-1zm-1 1v1h-1v-1zm-3 1h1v1h-1zm0 1v1h-1v-1zm-1 1v1h-1v-1zm-3 1h1v1h-1zm0 1v1h-1v-1zm-1 1v1h-1v-1zm-3 1h1v1h-1zm0 1v1h-1v-1zm-12 8h1v1h-1zm0 1v1h-1v-1zm-1 1v1h-1v-1zm-3 1h1v1h-1zm0 1v1h-1v-1zm-1 1v1h-1v-1zm-3 1h1v1h-1zm0 1v1h-1v-1z"/><path fill="#9666fc" fill-rule="evenodd" stroke="#9666fc" stroke-width=".1" d="M44 56h1v1h-1z"/><path fill="#fab41c" fill-rule="evenodd" stroke="#fab41c" stroke-width=".1" d="M45 56h1v1h-1z"/><path fill="#ffb50d" fill-rule="evenodd" stroke="#ffb50d" stroke-width=".1" d="M63 56h1v1h-1zm0 1v1h-5v1h-4v-1h2v-1zm-14 1h1v1h-1z"/><path fill="#d88878" fill-rule="evenodd" stroke="#d88878" stroke-width=".1" d="M64 56h1v1h-1z"/><path fill="#af45fe" fill-rule="evenodd" stroke="#af45fe" stroke-width=".1" d="M74 56h1v1h-1zm-4 3h1v1h-1zm-4 3h1v1h-1zm-4 3h1v1h-1zm-16 12h1v1h-1zm-4 3h1v1h-1z"/><path fill="#af44fd" fill-rule="evenodd" stroke="#af44fd" stroke-width=".1" d="M75 56h1v1h-1z"/><path fill="#857afd" fill-rule="evenodd" stroke="#857afd" stroke-width=".1" d="M25 57h1v1h-1z"/><path fill="#a772d6" fill-rule="evenodd" stroke="#a772d6" stroke-width=".1" d="M44 57h1v1h-1z"/><path fill="#fcb215" fill-rule="evenodd" stroke="#fcb215" stroke-width=".1" d="M63 57h1v1h-1z"/><path fill="#b159e5" fill-rule="evenodd" stroke="#b159e5" stroke-width=".1" d="M64 57h1v1h-1z"/><path fill="#b045fe" fill-rule="evenodd" stroke="#b045fe" stroke-width=".1" d="M73 57h1v1h-1zm-4 3h1v1h-1zm-4 3h1v1h-1zm-4 3h1v1h-1zm-12 9h1v1h-1zm-4 3h1v1h-1zm-4 3h1v1h-1z"/><path fill="#b144fe" fill-rule="evenodd" stroke="#b144fe" stroke-width=".1" d="M74 57h1v1h-1zm-4 3h1v1h-1zm-4 3h1v1h-1zm-4 3h1v1h-1zm-16 12h1v1h-1zm-4 3h1v1h-1z"/><path fill="#8778fd" fill-rule="evenodd" stroke="#8778fd" stroke-width=".1" d="M26 58h1v1h-1z"/><path fill="#bc81a9" fill-rule="evenodd" stroke="#bc81a9" stroke-width=".1" d="M44 58h1v1h-1z"/><path fill="#f2a92e" fill-rule="evenodd" stroke="#f2a92e" stroke-width=".1" d="M50 58h1v1h-1z"/><path fill="#d48d79" fill-rule="evenodd" stroke="#d48d79" stroke-width=".1" d="M51 58h1v1h-1z"/><path fill="#c47f9e" fill-rule="evenodd" stroke="#c47f9e" stroke-width=".1" d="M52 58h1v1h-1z"/><path fill="#f1a830" fill-rule="evenodd" stroke="#f1a830" stroke-width=".1" d="M53 58h1v1h-1z"/><path fill="#ffb40c" fill-rule="evenodd" stroke="#ffb40c" stroke-width=".1" d="M58 58h5v1h-3v1h-6v-1h4z"/><path fill="#da8874" fill-rule="evenodd" stroke="#da8874" stroke-width=".1" d="M63 58h1v1h-1z"/><path fill="#b044fe" fill-rule="evenodd" stroke="#b044fe" stroke-width=".1" d="M72 58h1v1h-1zm0 1v1h-1v-1zm-4 2h1v1h-1zm0 1v1h-1v-1zm-4 2h1v1h-1zm0 1v1h-1v-1zm-4 2h1v1h-1zm0 1v1h-1v-1zm-12 8h1v1h-1zm0 1v1h-1v-1zm-4 2h1v1h-1zm0 1v1h-1v-1zm-4 2h1v1h-1z"/><path fill="#b143fe" fill-rule="evenodd" stroke="#b143fe" stroke-width=".1" d="M73 58h1v1h-1zm0 1v1h-1v-1zm-1 1v1h-1v-1zm-3 1h1v1h-1zm0 1v1h-1v-1zm-1 1v1h-1v-1zm-3 1h1v1h-1zm0 1v1h-1v-1zm-1 1v1h-1v-1zm-3 1h1v1h-1zm0 1v1h-1v-1zm-1 1v1h-1v-1zm-11 7h1v1h-1zm0 1v1h-1v-1zm-1 1v1h-1v-1zm-3 1h1v1h-1zm0 1v1h-1v-1zm-1 1v1h-1v-1zm-3 1h1v1h-1z"/><path fill="#b241fd" fill-rule="evenodd" stroke="#b241fd" stroke-width=".1" d="M74 58h1v1h-1zm-34 26h1v1h-1z"/><path fill="#b376c1" fill-rule="evenodd" stroke="#b376c1" stroke-width=".1" d="M44 59h1v1h-1z"/><path fill="#ffb40e" fill-rule="evenodd" stroke="#ffb40e" stroke-width=".1" d="M45 59h2v1h-2z"/><path fill="#eaa33f" fill-rule="evenodd" stroke="#eaa33f" stroke-width=".1" d="M47 59h1v1h-1z"/><path fill="#cb888a" fill-rule="evenodd" stroke="#cb888a" stroke-width=".1" d="M48 59h1v1h-1z"/><path fill="#ae6cd4" fill-rule="evenodd" stroke="#ae6cd4" stroke-width=".1" d="M49 59h1v1h-1z"/><path fill="#c57ca0" fill-rule="evenodd" stroke="#c57ca0" stroke-width=".1" d="M53 59h1v1h-1z"/><path fill="#ffb30b" fill-rule="evenodd" stroke="#ffb30b" stroke-width=".1" d="M60 59h2v1h-1v1h-6v1h-1v-2h6z"/><path fill="#fdb012" fill-rule="evenodd" stroke="#fdb012" stroke-width=".1" d="M62 59h1v1h-1z"/><path fill="#b259e3" fill-rule="evenodd" stroke="#b259e3" stroke-width=".1" d="M63 59h1v1h-1z"/><path fill="#b242fe" fill-rule="evenodd" stroke="#b242fe" stroke-width=".1" d="M73 59h1v1h-1zm-3 2h1v1h-1zm0 1v1h-1v-1zm-4 2h1v1h-1zm0 1v1h-1v-1zm-4 2h1v1h-1zm0 1v1h-1v-1zm-4 2h1v1h-1zm-12 9h1v1h-1zm0 1v1h-1v-1zm-4 2h1v1h-1zm0 1v1h-1v-1z"/><path fill="#8b72fd" fill-rule="evenodd" stroke="#8b72fd" stroke-width=".1" d="M27 60h1v1h-1z"/><path fill="#a96bdd" fill-rule="evenodd" stroke="#a96bdd" stroke-width=".1" d="M45 60h1v1h-1z"/><path fill="#a667e6" fill-rule="evenodd" stroke="#a667e6" stroke-width=".1" d="M46 60h1v1h-1z"/><path fill="#cf8388" fill-rule="evenodd" stroke="#cf8388" stroke-width=".1" d="M53 60h1v1h-1z"/><path fill="#ffb20a" fill-rule="evenodd" stroke="#ffb20a" stroke-width=".1" d="M61 60h1v1h-1zm0 1v1h-5v1h-2v-1h1v-1z"/><path fill="#dc896f" fill-rule="evenodd" stroke="#dc896f" stroke-width=".1" d="M62 60h1v1h-1z"/><path fill="#b241fe" fill-rule="evenodd" stroke="#b241fe" stroke-width=".1" d="M72 60h1v1h-1zm-4 3h1v1h-1zm-4 3h1v1h-1zm-4 3h1v1h-1zm-12 9h1v1h-1zm-4 3h1v1h-1z"/><path fill="#b23ffd" fill-rule="evenodd" stroke="#b23ffd" stroke-width=".1" d="M73 60h1v1h-1z"/><path fill="#e29658" fill-rule="evenodd" stroke="#e29658" stroke-width=".1" d="M53 61h1v1h-1z"/><path fill="#fdb00f" fill-rule="evenodd" stroke="#fdb00f" stroke-width=".1" d="M61 61h1v1h-1z"/><path fill="#b658df" fill-rule="evenodd" stroke="#b658df" stroke-width=".1" d="M62 61h1v1h-1z"/><path fill="#b341fe" fill-rule="evenodd" stroke="#b341fe" stroke-width=".1" d="M71 61h1v1h-1zm0 1v1h-1v-1zm-4 2h1v1h-1zm0 1v1h-1v-1zm-4 2h1v1h-1zm0 1v1h-1v-1zm-4 2h1v1h-1zm0 1v1h-1v-1zm-12 8h1v1h-1zm0 1v1h-1v-1zm-4 2h1v1h-1zm0 1v1h-1v-1z"/><path fill="#b43ffd" fill-rule="evenodd" stroke="#b43ffd" stroke-width=".1" d="M72 61h1v1h-1z"/><path fill="#8d6ffd" fill-rule="evenodd" stroke="#8d6ffd" stroke-width=".1" d="M28 62h1v1h-1z"/><path fill="#f5a725" fill-rule="evenodd" stroke="#f5a725" stroke-width=".1" d="M53 62h1v1h-1z"/><path fill="#ffb109" fill-rule="evenodd" stroke="#ffb109" stroke-width=".1" d="M56 62h5v1h-3v1h-5v-1h3z"/><path fill="#dd886b" fill-rule="evenodd" stroke="#dd886b" stroke-width=".1" d="M61 62h1v1h-1z"/><path fill="#b440fe" fill-rule="evenodd" stroke="#b440fe" stroke-width=".1" d="M71 62h1v1h-1zm-3 2h1v1h-1zm0 1v1h-1v-1zm-4 2h1v1h-1zm0 1v1h-1v-1zm-4 2h1v1h-1zm0 1v1h-1v-1zm-12 8h1v1h-1zm0 1v1h-1v-1zm-4 2h1v1h-1zm0 1v1h-1v-1z"/><path fill="#b53efd" fill-rule="evenodd" stroke="#b53efd" stroke-width=".1" d="M72 62h1v1h-1zm0 1v1h-1v-1z"/><path fill="#ac5ce8" fill-rule="evenodd" stroke="#ac5ce8" stroke-width=".1" d="M52 63h1v1h-1z"/><path fill="#ffb008" fill-rule="evenodd" stroke="#ffb008" stroke-width=".1" d="M58 63h2v2h-7v-1h5z"/><path fill="#fdae0d" fill-rule="evenodd" stroke="#fdae0d" stroke-width=".1" d="M60 63h1v1h-1z"/><path fill="#b757de" fill-rule="evenodd" stroke="#b757de" stroke-width=".1" d="M61 63h1v1h-1z"/><path fill="#b340fe" fill-rule="evenodd" stroke="#b340fe" stroke-width=".1" d="M69 63h1v1h-1zm-4 3h1v1h-1zm-4 3h1v1h-1zm-4 3h1v1h-1zm-12 9h1v1h-1zm-4 3h1v1h-1z"/><path fill="#b43ffe" fill-rule="evenodd" stroke="#b43ffe" stroke-width=".1" d="M70 63h1v1h-1zm0 1v1h-1v-1zm-4 2h1v1h-1zm0 1v1h-1v-1zm-4 2h1v1h-1zm0 1v1h-1v-1zm-4 2h1v1h-1zm0 1v1h-1v-1zm-12 8h1v1h-1zm0 1v1h-1v-1zm-4 2h1v1h-1z"/><path fill="#906afd" fill-rule="evenodd" stroke="#906afd" stroke-width=".1" d="M29 64h1v1h-1z"/><path fill="#c06eb4" fill-rule="evenodd" stroke="#c06eb4" stroke-width=".1" d="M52 64h1v1h-1z"/><path fill="#df8866" fill-rule="evenodd" stroke="#df8866" stroke-width=".1" d="M60 64h1v1h-1z"/><path fill="#b53efe" fill-rule="evenodd" stroke="#b53efe" stroke-width=".1" d="M70 64h1v1h-1zm-3 2h1v1h-1zm0 1v1h-1v-1zm-4 2h1v1h-1zm0 1v1h-1v-1zm-4 2h1v1h-1zm0 1v1h-1v-1zm-12 8h1v1h-1zm0 1v1h-1v-1zm-3 1h1v1h-1zm0 1v1h-1v-1zm-1 1v1h-1v-1z"/><path fill="#b63dfd" fill-rule="evenodd" stroke="#b63dfd" stroke-width=".1" d="M71 64h1v1h-1z"/><path fill="#d38083" fill-rule="evenodd" stroke="#d38083" stroke-width=".1" d="M52 65h1v1h-1z"/><path fill="#ffaf07" fill-rule="evenodd" stroke="#ffaf07" stroke-width=".1" d="M53 65h6v1h-4v1h-2z"/><path fill="#feae0a" fill-rule="evenodd" stroke="#feae0a" stroke-width=".1" d="M59 65h1v1h-1z"/><path fill="#ba56d9" fill-rule="evenodd" stroke="#ba56d9" stroke-width=".1" d="M60 65h1v1h-1z"/><path fill="#b53ffe" fill-rule="evenodd" stroke="#b53ffe" stroke-width=".1" d="M68 65h1v1h-1zm-4 3h1v1h-1zm-4 3h1v1h-1zm-4 3h1v1h-1zm-8 6h1v1h-1z"/><path fill="#b63dfe" fill-rule="evenodd" stroke="#b63dfe" stroke-width=".1" d="M69 65h1v1h-1zm0 1v1h-1v-1zm-1 1v1h-1v-1zm-3 1h1v1h-1zm0 1v1h-1v-1zm-1 1v1h-1v-1zm-3 1h1v1h-1zm0 1v1h-1v-1zm-1 1v1h-1v-1zm-3 1h1v1h-1zm0 1v1h-1v-1zm-1 1v1h-1v-1zm-8 5h1v1h-1zm0 1v1h-1v-1zm-3 1h1v1h-1zm0 1v1h-1v-1zm-1 1v1h-1v-1z"/><path fill="#b63bfd" fill-rule="evenodd" stroke="#b63bfd" stroke-width=".1" d="M70 65h1v1h-1z"/><path fill="#9566fd" fill-rule="evenodd" stroke="#9566fd" stroke-width=".1" d="M30 66h1v1h-1z"/><path fill="#e59351" fill-rule="evenodd" stroke="#e59351" stroke-width=".1" d="M52 66h1v1h-1z"/><path fill="#ffae06" fill-rule="evenodd" stroke="#ffae06" stroke-width=".1" d="M55 66h4v1h-2v1h-4v-1h2z"/><path fill="#e18862" fill-rule="evenodd" stroke="#e18862" stroke-width=".1" d="M59 66h1v1h-1z"/><path fill="#b73cfe" fill-rule="evenodd" stroke="#b73cfe" stroke-width=".1" d="M69 66h1v1h-1zm0 1v1h-1v-1zm-4 2h1v1h-1zm0 1v1h-1v-1zm-4 2h1v1h-1zm0 1v1h-1v-1zm-4 2h1v1h-1zm0 1v1h-1v-1zm-9 6h1v1h-1zm-3 2h1v1h-1zm0 1v1h-1v-1z"/><path fill="#9665fd" fill-rule="evenodd" stroke="#9665fd" stroke-width=".1" d="M31 67h1v1h-1z"/><path fill="#f7a51e" fill-rule="evenodd" stroke="#f7a51e" stroke-width=".1" d="M52 67h1v1h-1z"/><path fill="#ffad05" fill-rule="evenodd" stroke="#ffad05" stroke-width=".1" d="M57 67h1v2h-6v-1h5z"/><path fill="#feac08" fill-rule="evenodd" stroke="#feac08" stroke-width=".1" d="M58 67h1v1h-1z"/><path fill="#bb55d8" fill-rule="evenodd" stroke="#bb55d8" stroke-width=".1" d="M59 67h1v1h-1z"/><path fill="#b739fd" fill-rule="evenodd" stroke="#b739fd" stroke-width=".1" d="M69 67h1v1h-1z"/><path fill="#9762fd" fill-rule="evenodd" stroke="#9762fd" stroke-width=".1" d="M31 68h1v1h-1z"/><path fill="#b258e3" fill-rule="evenodd" stroke="#b258e3" stroke-width=".1" d="M51 68h1v1h-1z"/><path fill="#e3885d" fill-rule="evenodd" stroke="#e3885d" stroke-width=".1" d="M58 68h1v1h-1z"/><path fill="#b63cfe" fill-rule="evenodd" stroke="#b63cfe" stroke-width=".1" d="M66 68h1v1h-1zm-4 3h1v1h-1zm-4 3h1v1h-1zm-12 9h1v1h-1zm-4 3h1v1h-1z"/><path fill="#b73bfe" fill-rule="evenodd" stroke="#b73bfe" stroke-width=".1" d="M67 68h1v1h-1zm-4 3h1v1h-1zm-4 3h1v1h-1zm-4 3h1v1h-1zm-8 6h1v1h-1zm-4 3h1v1h-1z"/><path fill="#b83afe" fill-rule="evenodd" stroke="#b83afe" stroke-width=".1" d="M68 68h1v1h-1zm0 1v1h-1v-1zm-3 1h1v1h-1zm0 1v1h-1v-1zm-1 1v1h-1v-1zm-3 1h1v1h-1zm0 1v1h-1v-1zm-1 1v1h-1v-1zm-3 1h1v1h-1zm0 1v1h-1v-1zm-1 1v1h-1v-1zm-8 5h1v1h-1zm-3 2h1v1h-1zm0 1v1h-1v-1z"/><path fill="#9a61fd" fill-rule="evenodd" stroke="#9a61fd" stroke-width=".1" d="M32 69h1v1h-1z"/><path fill="#c569b0" fill-rule="evenodd" stroke="#c569b0" stroke-width=".1" d="M51 69h1v1h-1z"/><path fill="#ffac04" fill-rule="evenodd" stroke="#ffac04" stroke-width=".1" d="M52 69h5v1h-3v1h-2z"/><path fill="#feac06" fill-rule="evenodd" stroke="#feac06" stroke-width=".1" d="M57 69h1v1h-1z"/><path fill="#be56d3" fill-rule="evenodd" stroke="#be56d3" stroke-width=".1" d="M58 69h1v1h-1z"/><path fill="#b83bfe" fill-rule="evenodd" stroke="#b83bfe" stroke-width=".1" d="M66 69h1v1h-1zm-4 3h1v1h-1zm-4 3h1v1h-1zm-4 3h1v1h-1zm-8 6h1v1h-1z"/><path fill="#b839fd" fill-rule="evenodd" stroke="#b839fd" stroke-width=".1" d="M68 69h1v1h-1z"/><path fill="#d77c7e" fill-rule="evenodd" stroke="#d77c7e" stroke-width=".1" d="M51 70h1v1h-1z"/><path fill="#ffab03" fill-rule="evenodd" stroke="#ffab03" stroke-width=".1" d="M54 70h3v1h-2v1h-3v-1h2z"/><path fill="#e48859" fill-rule="evenodd" stroke="#e48859" stroke-width=".1" d="M57 70h1v1h-1z"/><path fill="#b939fe" fill-rule="evenodd" stroke="#b939fe" stroke-width=".1" d="M66 70h1v1h-1zm0 1v1h-1v-1zm-1 1v1h-1v-1zm-3 1h1v1h-1zm0 1v1h-1v-1zm-1 1v1h-1v-1zm-3 1h1v1h-1zm0 1v1h-1v-1zm-1 1v1h-1v-1zm-3 1h1v1h-1zm0 1v1h-1v-1zm-6 4h1v1h-1zm-2 1h1v1h-1zm0 1v1h-1v-1zm-1 1v1h-1v-1z"/><path fill="#ba38fe" fill-rule="evenodd" stroke="#ba38fe" stroke-width=".1" d="M67 70h1v1h-1zm0 1v1h-1v-1zm-4 2h1v1h-1zm0 1v1h-1v-1zm-4 2h1v1h-1zm0 1v1h-1v-1zm-4 2h1v1h-1zm0 1v1h-1v-1zm-8 5h1v1h-1zm0 1v1h-1v-1zm-4 2h1v1h-1z"/><path fill="#e8904a" fill-rule="evenodd" stroke="#e8904a" stroke-width=".1" d="M51 71h1v1h-1z"/><path fill="#ffaa02" fill-rule="evenodd" stroke="#ffaa02" stroke-width=".1" d="M55 71h1v2h-4v-1h3z"/><path fill="#ffa903" fill-rule="evenodd" stroke="#ffa903" stroke-width=".1" d="M56 71h1v1h-1z"/><path fill="#c055d0" fill-rule="evenodd" stroke="#c055d0" stroke-width=".1" d="M57 71h1v1h-1z"/><path fill="#ba36fd" fill-rule="evenodd" stroke="#ba36fd" stroke-width=".1" d="M67 71h1v1h-1zm0 1v1h-1v-1z"/><path fill="#f8a217" fill-rule="evenodd" stroke="#f8a217" stroke-width=".1" d="M51 72h1v1h-1z"/><path fill="#e68854" fill-rule="evenodd" stroke="#e68854" stroke-width=".1" d="M56 72h1v1h-1z"/><path fill="#ba37fe" fill-rule="evenodd" stroke="#ba37fe" stroke-width=".1" d="M65 72h1v1h-1zm-4 3h1v1h-1zm-4 3h1v1h-1zm-4 3h1v1h-1zm-4 3h1v1h-1zm-4 3h1v1h-1z"/><path fill="#a652fe" fill-rule="evenodd" stroke="#a652fe" stroke-width=".1" d="M40 73h1v1h-1z"/><path fill="#b854dd" fill-rule="evenodd" stroke="#b854dd" stroke-width=".1" d="M50 73h1v1h-1z"/><path fill="#ffa901" fill-rule="evenodd" stroke="#ffa901" stroke-width=".1" d="M51 73h4v1h-3v1h-1z"/><path fill="#ffa802" fill-rule="evenodd" stroke="#ffa802" stroke-width=".1" d="M55 73h1v1h-1z"/><path fill="#c355cb" fill-rule="evenodd" stroke="#c355cb" stroke-width=".1" d="M56 73h1v1h-1z"/><path fill="#bb37fe" fill-rule="evenodd" stroke="#bb37fe" stroke-width=".1" d="M64 73h1v1h-1zm0 1v1h-1v-1zm-4 2h1v1h-1zm0 1v1h-1v-1zm-4 2h1v1h-1zm0 1v1h-1v-1zm-4 2h1v1h-1zm-4 3h1v1h-1zm0 1v1h-1v-1zm-4 2h1v1h-1z"/><path fill="#bb36fe" fill-rule="evenodd" stroke="#bb36fe" stroke-width=".1" d="M65 73h1v1h-1zm-3 2h1v1h-1zm0 1v1h-1v-1zm-4 2h1v1h-1zm0 1v1h-1v-1zm-4 2h1v1h-1zm0 1v1h-1v-1zm-4 2h1v1h-1zm0 1v1h-1v-1zm-4 2h1v1h-1zm0 1v1h-1v-1z"/><path fill="#bb35fd" fill-rule="evenodd" stroke="#bb35fd" stroke-width=".1" d="M66 73h1v1h-1z"/><path fill="#a255fd" fill-rule="evenodd" stroke="#a255fd" stroke-width=".1" d="M35 74h1v1h-1z"/><path fill="#ca66a9" fill-rule="evenodd" stroke="#ca66a9" stroke-width=".1" d="M50 74h1v1h-1z"/><path fill="#ffa800" fill-rule="evenodd" stroke="#ffa800" stroke-width=".1" d="M52 74h3v2h-1v2h-1v2h-1v2h-1v1h-1v-5h1v-3h1z"/><path fill="#e8884f" fill-rule="evenodd" stroke="#e8884f" stroke-width=".1" d="M55 74h1v1h-1z"/><path fill="#bc36fe" fill-rule="evenodd" stroke="#bc36fe" stroke-width=".1" d="M64 74h1v1h-1zm-4 3h1v1h-1zm-4 3h1v1h-1zm-4 3h1v1h-1zm-4 3h1v1h-1zm-4 3h1v1h-1z"/><path fill="#bc34fd" fill-rule="evenodd" stroke="#bc34fd" stroke-width=".1" d="M65 74h1v1h-1zm-5 10h1v1h-1zm0 1v1h-1v-1zm-16 5h1v1h-1zm1 3h1v1h-1zm9 1h1v1h-1zm-3 5h1v1h-1z"/><path fill="#a353fd" fill-rule="evenodd" stroke="#a353fd" stroke-width=".1" d="M35 75h1v1h-1z"/><path fill="#db7a77" fill-rule="evenodd" stroke="#db7a77" stroke-width=".1" d="M50 75h1v1h-1z"/><path fill="#c454c9" fill-rule="evenodd" stroke="#c454c9" stroke-width=".1" d="M55 75h1v1h-1z"/><path fill="#bc35fe" fill-rule="evenodd" stroke="#bc35fe" stroke-width=".1" d="M63 75h1v1h-1zm0 1v1h-1v-1zm-4 2h1v1h-1zm0 1v1h-1v-1zm-4 2h1v1h-1zm0 1v1h-1v-1zm-4 2h1v1h-1zm0 1v1h-1v-1zm-4 2h1v1h-1zm0 1v1h-1v-1z"/><path fill="#bd34fe" fill-rule="evenodd" stroke="#bd34fe" stroke-width=".1" d="M64 75h1v1h-1zm0 1v2h-1v2h-1v1h-1v2h-1v2h-1v2h-1v2h-1v2h-1v1h-1v2h-1v2h-1v2h-1v1h-3v-1h-1v-2h-1v-2h-1v-2h-1v-2h1v-1h1v-1h1v-1h2v-1h1v-1h1v-1h2v-1h1v-1h1v-1h2v-1h1v-1h1v-1h2v-1h1v-1z"/><path fill="#a552fd" fill-rule="evenodd" stroke="#a552fd" stroke-width=".1" d="M36 76h1v1h-1z"/><path fill="#eb8d43" fill-rule="evenodd" stroke="#eb8d43" stroke-width=".1" d="M50 76h1v1h-1z"/><path fill="#e9894b" fill-rule="evenodd" stroke="#e9894b" stroke-width=".1" d="M54 76h1v1h-1z"/><path fill="#bd33fd" fill-rule="evenodd" stroke="#bd33fd" stroke-width=".1" d="M64 76h1v1h-1zm-6 11h1v1h-1zm-2 4h1v1h-1zm-1 2h1v1h-1zm-9 1h1v1h-1zm1 2h1v1h-1zm2 3h1v1h-1z"/><path fill="#b243fd" fill-rule="evenodd" stroke="#b243fd" stroke-width=".1" d="M49 77h1v1h-1z"/><path fill="#faa112" fill-rule="evenodd" stroke="#faa112" stroke-width=".1" d="M50 77h1v1h-1z"/><path fill="#c755c3" fill-rule="evenodd" stroke="#c755c3" stroke-width=".1" d="M54 77h1v1h-1z"/><path fill="#bd35fe" fill-rule="evenodd" stroke="#bd35fe" stroke-width=".1" d="M61 77h1v1h-1zm-4 3h1v1h-1zm-4 3h1v1h-1zm-4 3h1v1h-1zm-4 3h1v1h-1z"/><path fill="#be4fd9" fill-rule="evenodd" stroke="#be4fd9" stroke-width=".1" d="M49 78h1v1h-1z"/><path fill="#eb8a47" fill-rule="evenodd" stroke="#eb8a47" stroke-width=".1" d="M53 78h1v1h-1z"/><path fill="#bd34fd" fill-rule="evenodd" stroke="#bd34fd" stroke-width=".1" d="M63 78h1v1h-1zm-1 2h1v1h-1zm0 1v2h-1v-2zm-5 8h1v1h-1zm-12 3h1v1h-1zm8 4h1v1h-1zm-5 2h1v1h-1z"/><path fill="#ce64a5" fill-rule="evenodd" stroke="#ce64a5" stroke-width=".1" d="M49 79h1v1h-1z"/><path fill="#c954c1" fill-rule="evenodd" stroke="#c954c1" stroke-width=".1" d="M53 79h1v1h-1z"/><path fill="#ac4afd" fill-rule="evenodd" stroke="#ac4afd" stroke-width=".1" d="M38 80h1v1h-1z"/><path fill="#de7873" fill-rule="evenodd" stroke="#de7873" stroke-width=".1" d="M49 80h1v1h-1z"/><path fill="#ec8a44" fill-rule="evenodd" stroke="#ec8a44" stroke-width=".1" d="M52 80h1v1h-1z"/><path fill="#ed8d40" fill-rule="evenodd" stroke="#ed8d40" stroke-width=".1" d="M49 81h1v1h-1z"/><path fill="#ca55bf" fill-rule="evenodd" stroke="#ca55bf" stroke-width=".1" d="M52 81h1v1h-1z"/><path fill="#ae46fd" fill-rule="evenodd" stroke="#ae46fd" stroke-width=".1" d="M39 82h1v1h-1z"/><path fill="#f09036" fill-rule="evenodd" stroke="#f09036" stroke-width=".1" d="M49 82h1v1h-1z"/><path fill="#ea864e" fill-rule="evenodd" stroke="#ea864e" stroke-width=".1" d="M51 82h1v1h-1z"/><path fill="#b043fd" fill-rule="evenodd" stroke="#b043fd" stroke-width=".1" d="M40 83h1v1h-1z"/><path fill="#c246df" fill-rule="evenodd" stroke="#c246df" stroke-width=".1" d="M49 83h1v1h-1z"/><path fill="#d66598" fill-rule="evenodd" stroke="#d66598" stroke-width=".1" d="M50 83h1v1h-1z"/><path fill="#bf3eef" fill-rule="evenodd" stroke="#bf3eef" stroke-width=".1" d="M51 83h1v1h-1z"/><path fill="#bc33fd" fill-rule="evenodd" stroke="#bc33fd" stroke-width=".1" d="M60 83h1v1h-1zm-16 8h1v1h-1zm11 1h1v1h-1zm-3 6h1v1h-1zm-2 1h1v1h-1z"/><path fill="#b93afe" fill-rule="evenodd" stroke="#b93afe" stroke-width=".1" d="M47 84h1v1h-1zm-4 3h1v1h-1z"/><path fill="#b33ffd" fill-rule="evenodd" stroke="#b33ffd" stroke-width=".1" d="M41 85h1v1h-1z"/><path fill="#b83bfd" fill-rule="evenodd" stroke="#b83bfd" stroke-width=".1" d="M42 87h1v1h-1z"/><path fill="#ba37fd" fill-rule="evenodd" stroke="#ba37fd" stroke-width=".1" d="M43 89h1v1h-1z"/></svg>