<svg xmlns="http://www.w3.org/2000/svg" viewBox="0 0 100 100" width="1em" height="1em"><path fill="#006eff" d="M59 0h1v1h-1zM59 1h1v1h-1zM58 2h2v1h-2zM58 3h2v1h-2zM57 4h4v1h-4zM57 5h4v1h-4zM57 6h4v1h-4zM57 7h4v1h-4zM57 8h5v1h-5zM56 9h6v1h-6zM56 10h7v1h-7zM56 11h6v1h-6zM56 12h7v1h-7zM56 13h7v1h-7zM55 14h9v1h-9zM55 15h9v1h-9zM55 16h9v1h-9zM54 17h11v1h-11zM54 18h10v1h-10zM54 19h11v1h-11zM53 20h12v1h-12zM53 21h12v1h-12zM53 22h13v1h-13zM30 23h2v1h-2zM52 23h14v1h-14zM30 24h2v1h-2zM52 24h14v1h-14zM30 25h2v1h-2zM53 25h14v1h-14zM30 26h3v1h-3zM52 26h14v1h-14zM30 27h3v1h-3zM51 27h16v1h-16zM29 28h4v1h-4zM52 28h15v1h-15zM29 29h4v1h-4zM51 29h16v1h-16zM29 30h5v1h-5zM51 30h16v1h-16zM28 31h6v1h-6zM50 31h18v1h-18zM28 32h7v1h-7zM51 32h18v1h-18zM28 33h7v1h-7zM50 33h19v1h-19zM27 34h8v1h-8zM50 34h18v1h-18zM28 35h7v1h-7zM50 35h19v1h-19zM27 36h9v1h-9zM50 36h20v1h-20zM27 37h8v1h-8zM49 37h20v1h-20zM26 38h10v1h-10zM49 38h21v1h-21zM27 39h9v1h-9zM48 39h22v1h-22zM26 40h10v1h-10zM48 40h22v1h-22zM26 41h11v1h-11zM48 41h22v1h-22zM26 42h11v1h-11zM48 42h23v1h-23zM26 43h11v1h-11zM48 43h23v1h-23zM25 44h13v1h-13zM48 44h24v1h-24zM25 45h12v1h-12zM49 45h22v1h-22zM24 46h14v1h-14zM49 46h23v1h-23zM24 47h14v1h-14zM49 47h23v1h-23zM24 48h14v1h-14zM49 48h23v1h-23zM24 49h14v1h-14zM50 49h22v1h-22zM23 50h15v1h-15zM50 50h23v1h-23zM23 51h14v1h-14zM50 51h23v1h-23zM23 52h14v1h-14zM50 52h23v1h-23zM23 53h14v1h-14zM51 53h22v1h-22zM23 54h14v1h-14zM51 54h23v1h-23zM22 55h14v1h-14zM51 55h24v1h-24zM22 56h14v1h-14zM51 56h23v1h-23zM22 57h14v1h-14zM52 57h23v1h-23zM22 58h13v1h-13zM52 58h23v1h-23zM22 59h13v1h-13zM52 59h24v1h-24zM21 60h14v1h-14zM52 60h23v1h-23zM20 61h15v1h-15zM53 61h23v1h-23zM21 62h13v1h-13zM53 62h23v1h-23zM20 63h14v1h-14zM53 63h23v1h-23zM20 64h14v1h-14zM53 64h23v1h-23zM19 65h15v1h-15zM54 65h23v1h-23zM19 66h14v1h-14zM54 66h23v1h-23zM19 67h14v1h-14zM54 67h23v1h-23zM19 68h14v1h-14zM54 68h23v1h-23zM19 69h14v1h-14zM55 69h23v1h-23zM19 70h13v1h-13zM55 70h23v1h-23zM19 71h13v1h-13zM55 71h23v1h-23zM18 72h14v1h-14zM55 72h23v1h-23zM18 73h14v1h-14zM56 73h23v1h-23zM18 74h13v1h-13zM56 74h23v1h-23zM18 75h13v1h-13zM56 75h23v1h-23zM17 76h14v1h-14zM56 76h24v1h-24zM17 77h14v1h-14zM57 77h23v1h-23zM17 78h13v1h-13zM57 78h23v1h-23zM17 79h13v1h-13zM57 79h23v1h-23zM16 80h14v1h-14zM58 80h23v1h-23zM16 81h14v1h-14zM58 81h23v1h-23zM16 82h13v1h-13zM58 82h23v1h-23zM16 83h13v1h-13zM58 83h23v1h-23zM15 84h14v1h-14zM59 84h23v1h-23zM15 85h14v1h-14zM59 85h23v1h-23zM15 86h13v1h-13zM59 86h23v1h-23zM14 87h14v1h-14zM59 87h23v1h-23zM14 88h14v1h-14zM60 88h23v1h-23zM14 89h14v1h-14zM60 89h23v1h-23zM14 90h13v1h-13zM60 90h23v1h-23z" /><path fill="#006dff" d="M58 1h1v1h-1zM60 2h1v1h-1zM60 3h1v1h-1zM61 6h1v1h-1zM61 7h1v1h-1zM56 8h1v1h-1zM62 11h1v1h-1zM55 12h1v1h-1zM55 13h1v1h-1zM63 13h1v1h-1zM54 16h1v1h-1zM64 18h1v1h-1zM65 21h1v1h-1zM30 22h2v1h-2zM32 24h1v1h-1zM32 25h1v1h-1zM52 25h1v1h-1zM29 26h1v1h-1zM66 26h1v1h-1zM29 27h1v1h-1zM33 28h1v1h-1zM51 28h1v1h-1zM33 29h1v1h-1zM67 29h1v1h-1zM28 30h1v1h-1zM67 30h1v1h-1zM50 32h1v1h-1zM68 34h1v1h-1zM27 35h1v1h-1zM49 35h1v1h-1zM49 36h1v1h-1zM35 37h1v1h-1zM69 37h1v1h-1zM26 39h1v1h-1zM36 40h1v1h-1zM70 40h1v1h-1zM70 41h1v1h-1zM25 42h1v1h-1zM25 43h1v1h-1zM37 45h1v1h-1zM71 45h1v1h-1zM72 48h1v1h-1zM72 49h1v1h-1zM73 51h1v1h-1zM73 52h1v1h-1zM22 53h1v1h-1zM73 53h1v1h-1zM22 54h1v1h-1zM74 56h1v1h-1zM21 57h1v1h-1zM21 58h1v1h-1zM21 59h1v1h-1zM75 60h1v1h-1zM20 62h1v1h-1zM25 91h2v1h-2zM60 91h8v1h-8z" /><path fill="#00e5e5" d="M43 32h2v1h-2zM43 33h2v1h-2zM43 34h2v1h-2zM42 35h3v1h-3zM42 36h4v1h-4zM42 37h3v1h-3zM41 38h5v1h-5zM41 39h5v1h-5zM41 40h5v1h-5zM40 41h6v1h-6zM40 42h7v1h-7zM81 42h2v1h-2zM41 43h6v1h-6zM81 43h2v1h-2zM40 44h7v1h-7zM80 44h3v1h-3zM40 45h7v1h-7zM80 45h3v1h-3zM40 46h8v1h-8zM81 46h3v1h-3zM40 47h8v1h-8zM80 47h3v1h-3zM39 48h9v1h-9zM80 48h4v1h-4zM39 49h9v1h-9zM80 49h5v1h-5zM39 50h10v1h-10zM80 50h4v1h-4zM38 51h11v1h-11zM79 51h5v1h-5zM38 52h11v1h-11zM78 52h7v1h-7zM14 53h1v1h-1zM38 53h11v1h-11zM79 53h6v1h-6zM13 54h3v1h-3zM38 54h12v1h-12zM79 54h7v1h-7zM13 55h3v1h-3zM37 55h13v1h-13zM78 55h7v1h-7zM13 56h3v1h-3zM37 56h13v1h-13zM78 56h8v1h-8zM13 57h3v1h-3zM37 57h13v1h-13zM77 57h10v1h-10zM12 58h5v1h-5zM37 58h14v1h-14zM77 58h9v1h-9zM13 59h3v1h-3zM36 59h15v1h-15zM77 59h10v1h-10zM12 60h5v1h-5zM36 60h15v1h-15zM77 60h10v1h-10zM12 61h5v1h-5zM36 61h15v1h-15zM77 61h10v1h-10zM12 62h5v1h-5zM36 62h16v1h-16zM77 62h11v1h-11zM11 63h6v1h-6zM35 63h17v1h-17zM77 63h11v1h-11zM11 64h7v1h-7zM35 64h17v1h-17zM78 64h10v1h-10zM11 65h7v1h-7zM35 65h17v1h-17zM78 65h11v1h-11zM10 66h9v1h-9zM35 66h18v1h-18zM78 66h10v1h-10zM10 67h8v1h-8zM34 67h19v1h-19zM78 67h11v1h-11zM10 68h8v1h-8zM34 68h19v1h-19zM79 68h10v1h-10zM10 69h8v1h-8zM34 69h20v1h-20zM79 69h10v1h-10zM10 70h8v1h-8zM34 70h20v1h-20zM79 70h11v1h-11zM10 71h7v1h-7zM33 71h21v1h-21zM79 71h11v1h-11zM9 72h8v1h-8zM33 72h21v1h-21zM80 72h10v1h-10zM9 73h8v1h-8zM33 73h22v1h-22zM80 73h11v1h-11zM8 74h9v1h-9zM33 74h22v1h-22zM80 74h10v1h-10zM9 75h7v1h-7zM32 75h23v1h-23zM80 75h11v1h-11zM8 76h8v1h-8zM32 76h23v1h-23zM81 76h10v1h-10zM8 77h8v1h-8zM32 77h24v1h-24zM81 77h10v1h-10zM7 78h9v1h-9zM32 78h24v1h-24zM81 78h11v1h-11zM7 79h8v1h-8zM31 79h25v1h-25zM82 79h10v1h-10zM7 80h8v1h-8zM31 80h25v1h-25zM82 80h10v1h-10zM6 81h9v1h-9zM31 81h26v1h-26zM82 81h11v1h-11zM7 82h8v1h-8zM31 82h26v1h-26zM82 82h11v1h-11zM6 83h8v1h-8zM30 83h27v1h-27zM83 83h10v1h-10zM6 84h8v1h-8zM30 84h27v1h-27zM83 84h10v1h-10zM6 85h8v1h-8zM30 85h28v1h-28zM83 85h10v1h-10zM5 86h9v1h-9zM29 86h29v1h-29zM83 86h10v1h-10zM5 87h8v1h-8zM29 87h29v1h-29zM84 87h10v1h-10zM5 88h8v1h-8zM29 88h29v1h-29zM84 88h10v1h-10zM4 89h9v1h-9zM29 89h30v1h-30zM84 89h11v1h-11zM4 90h9v1h-9zM28 90h31v1h-31zM84 90h10v1h-10zM5 91h8v1h-8zM84 91h10v1h-10z" /><path fill="#00e4e4" d="M42 34h1v1h-1zM41 37h1v1h-1zM45 37h1v1h-1zM46 40h1v1h-1zM46 41h1v1h-1zM40 43h1v1h-1zM39 45h1v1h-1zM83 45h1v1h-1zM39 46h1v1h-1zM80 46h1v1h-1zM39 47h1v1h-1zM83 47h1v1h-1zM79 48h1v1h-1zM79 49h1v1h-1zM79 50h1v1h-1zM84 50h1v1h-1zM84 51h1v1h-1zM78 53h1v1h-1zM85 53h1v1h-1zM78 54h1v1h-1zM85 55h1v1h-1zM77 56h1v1h-1zM86 58h1v1h-1zM12 59h1v1h-1zM16 59h1v1h-1zM87 61h1v1h-1zM11 62h1v1h-1zM17 62h1v1h-1zM17 63h1v1h-1zM88 66h1v1h-1zM89 69h1v1h-1zM9 70h1v1h-1zM9 71h1v1h-1zM90 74h1v1h-1zM8 75h1v1h-1zM91 77h1v1h-1zM6 82h1v1h-1zM5 85h1v1h-1zM93 85h1v1h-1zM93 86h1v1h-1zM94 90h1v1h-1z" /><path fill="#008df8" d="M47 42h1v1h-1zM82 86h1v1h-1z" /><path fill="#00a7f2" d="M47 43h1v1h-1zM33 68h1v1h-1zM13 91h1v1h-1z" /><path fill="#00beec" d="M47 44h1v1h-1z" /><path fill="#00dde7" d="M47 45h1v1h-1zM18 67h1v1h-1zM17 71h1v1h-1zM79 72h1v1h-1z" /><path fill="#006fff" d="M48 45h1v1h-1zM35 58h1v1h-1zM34 62h1v1h-1zM18 71h1v1h-1zM17 75h1v1h-1zM16 79h1v1h-1zM57 80h1v1h-1zM15 83h1v1h-1z" /><path fill="#0085fa" d="M48 46h1v1h-1zM34 63h1v1h-1zM18 70h1v1h-1z" /><path fill="#0082fb" d="M38 47h1v1h-1zM16 78h1v1h-1z" /><path fill="#00a3f3" d="M48 47h1v1h-1z" /><path fill="#009ff4" d="M38 48h1v1h-1zM79 74h1v1h-1zM56 78h1v1h-1zM15 81h1v1h-1z" /><path fill="#00c2ed" d="M48 48h1v1h-1z" /><path fill="#00b6ee" d="M38 49h1v1h-1z" /><path fill="#00dfe6" d="M48 49h1v1h-1z" /><path fill="#0070fe" d="M49 49h1v1h-1zM77 68h1v1h-1zM59 88h1v1h-1z" /><path fill="#00d5e9" d="M38 50h1v1h-1z" /><path fill="#0088f9" d="M49 50h1v1h-1zM33 67h1v1h-1z" /><path fill="#007bfc" d="M37 51h1v1h-1z" /><path fill="#00a7f3" d="M49 51h1v1h-1zM83 89h1v1h-1z" /><path fill="#009bf5" d="M37 52h1v1h-1z" /><path fill="#00c5ec" d="M49 52h1v1h-1zM78 69h1v1h-1z" /><path fill="#00baef" d="M37 53h1v1h-1z" /><path fill="#00e0e6" d="M49 53h1v1h-1zM78 68h1v1h-1zM58 88h1v1h-1z" /><path fill="#0071fe" d="M50 53h1v1h-1zM32 70h1v1h-1z" /><path fill="#00d6e8" d="M37 54h1v1h-1z" /><path fill="#008cf9" d="M50 54h1v1h-1z" /><path fill="#007ffb" d="M36 55h1v1h-1zM14 86h1v1h-1z" /><path fill="#00aaf2" d="M50 55h1v1h-1zM32 72h1v1h-1z" /><path fill="#009ef5" d="M36 56h1v1h-1zM14 85h1v1h-1z" /><path fill="#00c8eb" d="M50 56h1v1h-1z" /><path fill="#00bcee" d="M36 57h1v1h-1z" /><path fill="#00e3e6" d="M50 57h1v1h-1zM32 74h1v1h-1z" /><path fill="#0073fe" d="M51 57h1v1h-1zM31 74h1v1h-1z" /><path fill="#00d9e7" d="M36 58h1v1h-1z" /><path fill="#008ff8" d="M51 58h1v1h-1zM31 75h1v1h-1z" /><path fill="#0083fb" d="M35 59h1v1h-1z" /><path fill="#00adf1" d="M51 59h1v1h-1zM31 76h1v1h-1z" /><path fill="#00a1f4" d="M35 60h1v1h-1z" /><path fill="#00cceb" d="M51 60h1v1h-1zM82 84h1v1h-1z" /><path fill="#00e3e4" d="M76 60h1v1h-1z" /><path fill="#00bfed" d="M35 61h1v1h-1zM36 91h12v1h-12z" /><path fill="#00e3e5" d="M51 61h1v1h-1zM77 64h1v1h-1zM31 78h1v1h-1zM82 83h1v1h-1z" /><path fill="#0075fd" d="M52 61h1v1h-1zM30 78h1v1h-1zM81 83h1v1h-1z" /><path fill="#00cde8" d="M76 61h1v1h-1z" /><path fill="#00dce7" d="M35 62h1v1h-1zM16 75h1v1h-1zM56 80h1v1h-1z" /><path fill="#0092f7" d="M52 62h1v1h-1zM76 63h1v1h-1zM30 79h1v1h-1z" /><path fill="#00b1f0" d="M76 62h1v1h-1z" /><path fill="#00b1f1" d="M52 63h1v1h-1z" /><path fill="#00a4f3" d="M34 64h1v1h-1z" /><path fill="#00cfea" d="M52 64h1v1h-1z" /><path fill="#0074fe" d="M76 64h1v1h-1z" /><path fill="#00c3ed" d="M34 65h1v1h-1z" /><path fill="#00e4e5" d="M52 65h1v1h-1zM81 79h1v1h-1zM30 82h1v1h-1z" /><path fill="#0077fd" d="M53 65h1v1h-1zM29 82h1v1h-1z" /><path fill="#00cbeb" d="M77 65h1v1h-1z" /><path fill="#0070ff" d="M33 66h1v1h-1zM78 72h1v1h-1zM58 84h1v1h-1zM68 91h1v1h-1z" /><path fill="#00dee6" d="M34 66h1v1h-1z" /><path fill="#0095f6" d="M53 66h1v1h-1zM29 83h1v1h-1z" /><path fill="#00acf2" d="M77 66h1v1h-1z" /><path fill="#00b4f0" d="M53 67h1v1h-1zM29 84h1v1h-1z" /><path fill="#008cf8" d="M77 67h1v1h-1z" /><path fill="#00c1ed" d="M18 68h1v1h-1zM57 83h1v1h-1zM35 91h1v1h-1z" /><path fill="#00d2e9" d="M53 68h1v1h-1zM81 80h1v1h-1zM29 85h1v1h-1z" /><path fill="#00a2f3" d="M18 69h1v1h-1z" /><path fill="#00c6ec" d="M33 69h1v1h-1zM83 88h1v1h-1zM49 91h1v1h-1z" /><path fill="#007afc" d="M54 69h1v1h-1zM80 79h1v1h-1zM27 90h1v1h-1z" /><path fill="#00e1e6" d="M33 70h1v1h-1zM83 87h1v1h-1z" /><path fill="#0099f6" d="M54 70h1v1h-1zM28 87h1v1h-1z" /><path fill="#00a6f3" d="M78 70h1v1h-1zM58 86h1v1h-1zM59 90h1v1h-1z" /><path fill="#008bf8" d="M32 71h1v1h-1zM14 91h10v1h-10zM59 91h1v1h-1zM70 91h13v1h-13z" /><path fill="#00b7ef" d="M54 71h1v1h-1zM28 88h1v1h-1z" /><path fill="#0087fa" d="M78 71h1v1h-1zM58 85h1v1h-1z" /><path fill="#00c0ed" d="M17 72h1v1h-1zM48 91h1v1h-1z" /><path fill="#00d5e8" d="M54 72h1v1h-1zM28 89h1v1h-1z" /><path fill="#00a2f4" d="M17 73h1v1h-1z" /><path fill="#00c9eb" d="M32 73h1v1h-1z" /><path fill="#007dfc" d="M55 73h1v1h-1z" /><path fill="#00beed" d="M79 73h1v1h-1zM16 76h1v1h-1z" /><path fill="#0083fa" d="M17 74h1v1h-1zM57 81h1v1h-1z" /><path fill="#009cf5" d="M55 74h1v1h-1zM13 89h1v1h-1z" /><path fill="#00baee" d="M55 75h1v1h-1zM13 88h1v1h-1z" /><path fill="#0080fb" d="M79 75h1v1h-1zM56 77h1v1h-1zM24 91h1v1h-1z" /><path fill="#00dae8" d="M55 76h1v1h-1zM14 83h1v1h-1z" /><path fill="#00d8e8" d="M80 76h1v1h-1z" /><path fill="#00a0f4" d="M16 77h1v1h-1z" /><path fill="#00ccea" d="M31 77h1v1h-1z" /><path fill="#00b9ef" d="M80 77h1v1h-1z" /><path fill="#009af6" d="M80 78h1v1h-1z" /><path fill="#00dae7" d="M15 79h1v1h-1z" /><path fill="#00beee" d="M56 79h1v1h-1z" /><path fill="#00bdee" d="M15 80h1v1h-1z" /><path fill="#00b0f0" d="M30 80h1v1h-1z" /><path fill="#00d0ea" d="M30 81h1v1h-1z" /><path fill="#00b3f0" d="M81 81h1v1h-1z" /><path fill="#0081fb" d="M15 82h1v1h-1zM13 90h1v1h-1z" /><path fill="#00a3f4" d="M57 82h1v1h-1z" /><path fill="#0093f7" d="M81 82h1v1h-1z" /><path fill="#00bbee" d="M14 84h1v1h-1z" /><path fill="#00dee7" d="M57 84h1v1h-1z" /><path fill="#00acf1" d="M82 85h1v1h-1z" /><path fill="#0079fc" d="M28 86h1v1h-1z" /><path fill="#00d9e8" d="M13 87h1v1h-1z" /><path fill="#00c4ec" d="M58 87h1v1h-1z" /><path fill="#0072fe" d="M82 87h1v1h-1z" /><path fill="#008af9" d="M59 89h1v1h-1zM83 90h1v1h-1z" /><path fill="#0070fd" d="M27 91h1v1h-1z" /><path fill="#00bded" d="M28 91h1v1h-1z" /><path fill="#00c6eb" d="M29 91h5v1h-5zM50 91h8v1h-8z" /><path fill="#00c7eb" d="M34 91h1v1h-1z" /><path fill="#00c5eb" d="M58 91h1v1h-1z" /><path fill="#0089f9" d="M69 91h1v1h-1z" /><path fill="#00aff2" d="M83 91h1v1h-1z" /></svg>