<svg xmlns="http://www.w3.org/2000/svg" viewBox="0 0 100 100" width="1em" height="1em"><path fill="#012d32" d="M4 0h1v1h-1zM99 0h1v1h-1zM6 3h1v1h-1zM96 4h1v1h-1zM86 5h1v1h-1zM22 6h1v1h-1zM9 9h1v1h-1zM23 10h1v1h-1zM84 12h1v1h-1zM12 15h1v1h-1zM25 15h1v1h-1zM14 19h1v1h-1zM88 22h1v1h-1zM30 26h1v1h-1zM78 26h1v1h-1zM32 31h1v1h-1zM75 33h1v1h-1zM33 34h1v1h-1zM34 36h1v1h-1zM74 36h1v1h-1zM80 40h1v1h-1zM37 42h1v1h-1zM71 42h1v1h-1zM79 42h1v1h-1zM37 43h1v1h-1zM78 44h1v1h-1zM25 45h1v1h-1zM26 46h1v1h-1zM77 47h1v1h-1zM29 54h1v1h-1zM42 54h1v1h-1zM65 56h1v1h-1zM31 58h1v1h-1zM64 59h1v1h-1zM45 61h1v1h-1zM47 65h1v1h-1zM60 69h1v1h-1zM50 73h1v1h-1zM55 80h1v1h-1zM43 85h1v1h-1zM44 88h1v1h-1zM46 93h1v1h-1zM56 94h1v1h-1zM55 96h1v1h-1zM48 97h1v1h-1zM54 99h1v1h-1z" /><path fill="#012e33" d="M5 0h17v1h-17zM87 0h12v1h-12zM6 1h16v1h-16zM87 1h11v1h-11zM6 2h16v1h-16zM87 2h11v1h-11zM7 3h15v1h-15zM87 3h10v1h-10zM7 4h15v1h-15zM86 4h10v1h-10zM8 5h14v1h-14zM87 5h10v1h-10zM9 6h13v1h-13zM86 6h9v1h-9zM8 7h14v1h-14zM86 7h10v1h-10zM9 8h14v1h-14zM86 8h9v1h-9zM10 9h13v1h-13zM85 9h10v1h-10zM11 10h12v1h-12zM85 10h9v1h-9zM11 11h13v1h-13zM84 11h9v1h-9zM11 12h14v1h-14zM85 12h8v1h-8zM12 13h12v1h-12zM84 13h9v1h-9zM12 14h13v1h-13zM83 14h9v1h-9zM13 15h12v1h-12zM83 15h8v1h-8zM13 16h13v1h-13zM82 16h9v1h-9zM13 17h13v1h-13zM83 17h8v1h-8zM14 18h13v1h-13zM82 18h9v1h-9zM15 19h13v1h-13zM82 19h8v1h-8zM15 20h12v1h-12zM81 20h8v1h-8zM15 21h13v1h-13zM81 21h8v1h-8zM15 22h13v1h-13zM80 22h8v1h-8zM16 23h13v1h-13zM79 23h9v1h-9zM17 24h13v1h-13zM80 24h7v1h-7zM17 25h13v1h-13zM79 25h8v1h-8zM17 26h13v1h-13zM79 26h8v1h-8zM18 27h13v1h-13zM78 27h9v1h-9zM19 28h12v1h-12zM78 28h8v1h-8zM19 29h12v1h-12zM77 29h9v1h-9zM20 30h12v1h-12zM77 30h8v1h-8zM20 31h12v1h-12zM77 31h7v1h-7zM20 32h13v1h-13zM76 32h8v1h-8zM21 33h12v1h-12zM76 33h8v1h-8zM21 34h12v1h-12zM75 34h8v1h-8zM22 35h12v1h-12zM74 35h8v1h-8zM22 36h12v1h-12zM75 36h8v1h-8zM23 37h12v1h-12zM74 37h8v1h-8zM22 38h13v1h-13zM74 38h8v1h-8zM23 39h13v1h-13zM73 39h8v1h-8zM24 40h12v1h-12zM72 40h8v1h-8zM24 41h13v1h-13zM72 41h8v1h-8zM25 42h12v1h-12zM72 42h7v1h-7zM25 43h12v1h-12zM71 43h8v1h-8zM26 44h12v1h-12zM71 44h7v1h-7zM26 45h12v1h-12zM71 45h7v1h-7zM27 46h12v1h-12zM70 46h8v1h-8zM27 47h12v1h-12zM69 47h8v1h-8zM27 48h13v1h-13zM69 48h8v1h-8zM27 49h14v1h-14zM68 49h8v1h-8zM28 50h12v1h-12zM69 50h7v1h-7zM29 51h12v1h-12zM68 51h7v1h-7zM29 52h12v1h-12zM68 52h8v1h-8zM30 53h12v1h-12zM67 53h8v1h-8zM30 54h12v1h-12zM67 54h7v1h-7zM30 55h13v1h-13zM66 55h8v1h-8zM30 56h13v1h-13zM66 56h8v1h-8zM31 57h13v1h-13zM65 57h8v1h-8zM32 58h13v1h-13zM65 58h7v1h-7zM32 59h12v1h-12zM65 59h7v1h-7zM32 60h13v1h-13zM64 60h7v1h-7zM32 61h13v1h-13zM64 61h8v1h-8zM33 62h13v1h-13zM63 62h8v1h-8zM34 63h12v1h-12zM62 63h8v1h-8zM34 64h13v1h-13zM62 64h8v1h-8zM34 65h13v1h-13zM62 65h8v1h-8zM35 66h13v1h-13zM61 66h8v1h-8zM36 67h12v1h-12zM61 67h7v1h-7zM36 68h12v1h-12zM61 68h7v1h-7zM37 69h12v1h-12zM61 69h7v1h-7zM37 70h13v1h-13zM60 70h8v1h-8zM37 71h13v1h-13zM60 71h7v1h-7zM38 72h12v1h-12zM59 72h7v1h-7zM38 73h12v1h-12zM58 73h8v1h-8zM39 74h12v1h-12zM58 74h7v1h-7zM39 75h13v1h-13zM57 75h8v1h-8zM40 76h12v1h-12zM57 76h7v1h-7zM39 77h13v1h-13zM57 77h7v1h-7zM40 78h13v1h-13zM57 78h7v1h-7zM40 79h13v1h-13zM56 79h8v1h-8zM41 80h13v1h-13zM56 80h7v1h-7zM42 81h12v1h-12zM55 81h7v1h-7zM42 82h20v1h-20zM43 83h18v1h-18zM43 84h18v1h-18zM44 85h17v1h-17zM43 86h17v1h-17zM44 87h15v1h-15zM45 88h15v1h-15zM45 89h14v1h-14zM46 90h13v1h-13zM46 91h12v1h-12zM47 92h10v1h-10zM47 93h10v1h-10zM47 94h9v1h-9zM47 95h9v1h-9zM48 96h7v1h-7zM49 97h6v1h-6zM49 98h6v1h-6zM49 99h5v1h-5z" /><path fill="#012d33" d="M86 0h1v1h-1zM98 1h1v1h-1zM97 3h1v1h-1zM7 5h1v1h-1zM8 6h1v1h-1zM95 6h1v1h-1zM22 7h1v1h-1zM10 10h1v1h-1zM10 11h1v1h-1zM93 11h1v1h-1zM11 13h1v1h-1zM24 13h1v1h-1zM91 15h1v1h-1zM27 20h1v1h-1zM89 20h1v1h-1zM28 22h1v1h-1zM79 24h1v1h-1zM87 24h1v1h-1zM87 25h1v1h-1zM77 28h1v1h-1zM18 29h1v1h-1zM31 29h1v1h-1zM19 30h1v1h-1zM76 30h1v1h-1zM19 31h1v1h-1zM76 31h1v1h-1zM84 31h1v1h-1zM20 33h1v1h-1zM33 33h1v1h-1zM83 34h1v1h-1zM34 35h1v1h-1zM82 35h1v1h-1zM22 37h1v1h-1zM35 38h1v1h-1zM36 40h1v1h-1zM79 43h1v1h-1zM25 44h1v1h-1zM38 45h1v1h-1zM70 45h1v1h-1zM78 45h1v1h-1zM26 47h1v1h-1zM76 49h1v1h-1zM40 50h1v1h-1zM41 52h1v1h-1zM67 52h1v1h-1zM66 54h1v1h-1zM74 54h1v1h-1zM72 58h1v1h-1zM71 60h1v1h-1zM46 63h1v1h-1zM70 63h1v1h-1zM68 67h1v1h-1zM35 68h1v1h-1zM48 68h1v1h-1zM60 68h1v1h-1zM36 69h1v1h-1zM36 70h1v1h-1zM59 70h1v1h-1zM59 71h1v1h-1zM37 72h1v1h-1zM50 72h1v1h-1zM66 72h1v1h-1zM51 74h1v1h-1zM39 76h1v1h-1zM64 76h1v1h-1zM52 77h1v1h-1zM64 77h1v1h-1zM56 78h1v1h-1zM53 79h1v1h-1zM41 81h1v1h-1zM54 81h1v1h-1zM62 81h1v1h-1zM42 83h1v1h-1zM61 83h1v1h-1zM60 86h1v1h-1zM59 87h1v1h-1zM45 91h1v1h-1zM57 92h1v1h-1zM56 95h1v1h-1zM55 97h1v1h-1z" /><path fill="#012e32" d="M5 1h1v1h-1zM22 5h1v1h-1zM26 17h1v1h-1zM82 17h1v1h-1zM81 19h1v1h-1zM80 21h1v1h-1zM16 24h1v1h-1zM18 28h1v1h-1zM21 35h1v1h-1zM73 37h1v1h-1zM73 38h1v1h-1zM23 40h1v1h-1zM24 42h1v1h-1zM39 47h1v1h-1zM68 50h1v1h-1zM28 51h1v1h-1zM41 51h1v1h-1zM75 51h1v1h-1zM29 53h1v1h-1zM43 56h1v1h-1zM44 59h1v1h-1zM63 61h1v1h-1zM33 63h1v1h-1zM35 67h1v1h-1zM38 74h1v1h-1zM65 74h1v1h-1zM42 84h1v1h-1zM45 90h1v1h-1zM46 92h1v1h-1z" /></svg>