<svg xmlns="http://www.w3.org/2000/svg" viewBox="0 0 100 100" width="1em" height="1em"><path fill="#40b882" d="M0 7h1v1h-1zM4 14h1v1h-1zM15 33h1v1h-1zM78 43h1v1h-1zM22 45h1v1h-1zM75 48h1v1h-1zM33 64h1v1h-1zM38 73h1v1h-1zM40 76h1v1h-1zM44 83h1v1h-1z" /><path fill="#41b883" d="M1 7h18v1h-18zM80 7h19v1h-19zM2 8h18v1h-18zM80 8h18v1h-18zM2 9h18v1h-18zM79 9h19v1h-19zM3 10h18v1h-18zM79 10h18v1h-18zM3 11h19v1h-19zM78 11h19v1h-19zM4 12h18v1h-18zM78 12h18v1h-18zM4 13h19v1h-19zM77 13h19v1h-19zM5 14h18v1h-18zM76 14h20v1h-20zM6 15h18v1h-18zM76 15h18v1h-18zM6 16h19v1h-19zM75 16h19v1h-19zM7 17h18v1h-18zM75 17h18v1h-18zM7 18h19v1h-19zM74 18h19v1h-19zM7 19h19v1h-19zM74 19h19v1h-19zM8 20h19v1h-19zM73 20h19v1h-19zM9 21h18v1h-18zM72 21h19v1h-19zM10 22h18v1h-18zM72 22h18v1h-18zM10 23h19v1h-19zM71 23h19v1h-19zM11 24h18v1h-18zM71 24h19v1h-19zM11 25h19v1h-19zM70 25h19v1h-19zM11 26h19v1h-19zM69 26h19v1h-19zM13 27h18v1h-18zM69 27h18v1h-18zM12 28h20v1h-20zM68 28h19v1h-19zM14 29h18v1h-18zM68 29h18v1h-18zM14 30h19v1h-19zM67 30h19v1h-19zM15 31h18v1h-18zM67 31h18v1h-18zM15 32h19v1h-19zM66 32h19v1h-19zM16 33h18v1h-18zM65 33h19v1h-19zM17 34h18v1h-18zM65 34h18v1h-18zM17 35h19v1h-19zM64 35h19v1h-19zM18 36h18v1h-18zM64 36h18v1h-18zM18 37h19v1h-19zM63 37h19v1h-19zM19 38h18v1h-18zM63 38h18v1h-18zM19 39h19v1h-19zM62 39h19v1h-19zM19 40h20v1h-20zM61 40h19v1h-19zM20 41h19v1h-19zM61 41h18v1h-18zM21 42h19v1h-19zM60 42h19v1h-19zM22 43h18v1h-18zM60 43h18v1h-18zM22 44h19v1h-19zM59 44h19v1h-19zM23 45h18v1h-18zM59 45h18v1h-18zM23 46h19v1h-19zM58 46h18v1h-18zM24 47h19v1h-19zM57 47h19v1h-19zM25 48h18v1h-18zM57 48h18v1h-18zM25 49h19v1h-19zM56 49h19v1h-19zM25 50h19v1h-19zM56 50h18v1h-18zM27 51h18v1h-18zM55 51h18v1h-18zM27 52h18v1h-18zM54 52h19v1h-19zM28 53h18v1h-18zM54 53h18v1h-18zM28 54h19v1h-19zM53 54h19v1h-19zM29 55h18v1h-18zM53 55h19v1h-19zM29 56h19v1h-19zM52 56h19v1h-19zM30 57h18v1h-18zM52 57h18v1h-18zM30 58h19v1h-19zM51 58h19v1h-19zM31 59h38v1h-38zM31 60h37v1h-37zM32 61h36v1h-36zM33 62h34v1h-34zM33 63h34v1h-34zM34 64h32v1h-32zM35 65h30v1h-30zM35 66h30v1h-30zM35 67h29v1h-29zM36 68h28v1h-28zM37 69h26v1h-26zM37 70h25v1h-25zM38 71h24v1h-24zM39 72h22v1h-22zM39 73h22v1h-22zM40 74h20v1h-20zM40 75h20v1h-20zM41 76h18v1h-18zM42 77h16v1h-16zM42 78h16v1h-16zM43 79h14v1h-14zM43 80h14v1h-14zM44 81h12v1h-12zM44 82h12v1h-12zM45 83h11v1h-11zM46 84h8v1h-8zM46 85h8v1h-8zM47 86h6v1h-6zM47 87h6v1h-6zM47 88h6v1h-6zM48 89h4v1h-4zM49 90h2v1h-2z" /><path fill="#41b381" d="M19 7h1v1h-1z" /><path fill="#365462" d="M20 7h1v1h-1zM60 9h1v1h-1zM73 17h1v1h-1zM58 43h1v1h-1zM45 50h1v1h-1z" /><path fill="#35495e" d="M21 7h17v1h-17zM62 7h17v1h-17zM21 8h17v1h-17zM61 8h17v1h-17zM22 9h17v1h-17zM61 9h17v1h-17zM23 10h17v1h-17zM60 10h17v1h-17zM23 11h17v1h-17zM60 11h17v1h-17zM24 12h17v1h-17zM59 12h17v1h-17zM24 13h17v1h-17zM59 13h17v1h-17zM25 14h17v1h-17zM58 14h17v1h-17zM25 15h18v1h-18zM57 15h17v1h-17zM26 16h17v1h-17zM57 16h17v1h-17zM27 17h17v1h-17zM56 17h17v1h-17zM27 18h17v1h-17zM56 18h17v1h-17zM28 19h17v1h-17zM55 19h17v1h-17zM28 20h18v1h-18zM54 20h17v1h-17zM29 21h17v1h-17zM54 21h17v1h-17zM30 22h17v1h-17zM53 22h17v1h-17zM30 23h17v1h-17zM53 23h17v1h-17zM31 24h17v1h-17zM52 24h17v1h-17zM31 25h17v1h-17zM52 25h17v1h-17zM32 26h17v1h-17zM51 26h17v1h-17zM32 27h35v1h-35zM33 28h34v1h-34zM34 29h32v1h-32zM34 30h32v1h-32zM35 31h30v1h-30zM35 32h30v1h-30zM36 33h28v1h-28zM37 34h26v1h-26zM37 35h26v1h-26zM38 36h24v1h-24zM38 37h24v1h-24zM39 38h22v1h-22zM39 39h22v1h-22zM40 40h20v1h-20zM41 41h18v1h-18zM41 42h18v1h-18zM42 43h16v1h-16zM42 44h16v1h-16zM43 45h14v1h-14zM43 46h13v1h-13zM44 47h12v1h-12zM45 48h10v1h-10zM45 49h10v1h-10zM46 50h8v1h-8zM46 51h8v1h-8zM47 52h6v1h-6zM48 53h4v1h-4zM48 54h4v1h-4zM49 55h2v1h-2zM49 56h2v1h-2z" /><path fill="#396d6a" d="M38 7h1v1h-1zM55 17h1v1h-1z" /><path fill="#375c64" d="M61 7h1v1h-1zM42 45h1v1h-1z" /><path fill="#386a69" d="M79 7h1v1h-1zM64 33h1v1h-1z" /><path fill="#41b782" d="M99 7h1v1h-1zM20 9h1v1h-1zM77 12h1v1h-1zM73 19h1v1h-1zM90 22h1v1h-1zM34 33h1v1h-1zM17 36h1v1h-1zM62 38h1v1h-1zM79 41h1v1h-1zM21 43h1v1h-1zM58 45h1v1h-1zM45 52h1v1h-1zM27 53h1v1h-1zM30 59h1v1h-1zM67 62h1v1h-1zM59 76h1v1h-1zM50 91h1v1h-1z" /><path fill="#41b882" d="M1 8h1v1h-1zM1 9h1v1h-1zM96 12h1v1h-1zM5 15h1v1h-1zM94 15h1v1h-1zM93 17h1v1h-1zM88 26h1v1h-1zM12 27h1v1h-1zM76 46h1v1h-1zM24 49h1v1h-1zM72 53h1v1h-1zM65 65h1v1h-1zM41 77h1v1h-1zM41 78h1v1h-1zM56 81h1v1h-1zM45 84h1v1h-1zM54 84h1v1h-1zM53 86h1v1h-1z" /><path fill="#3d8e75" d="M20 8h1v1h-1z" /><path fill="#354b5f" d="M38 8h1v1h-1zM48 25h1v1h-1zM33 29h1v1h-1z" /><path fill="#39756b" d="M60 8h1v1h-1z" /><path fill="#354c5f" d="M78 8h1v1h-1zM26 17h1v1h-1zM51 25h1v1h-1zM63 34h1v1h-1z" /><path fill="#3fa77d" d="M79 8h1v1h-1zM64 34h1v1h-1z" /><path fill="#40b883" d="M98 8h1v1h-1zM27 21h1v1h-1zM87 27h1v1h-1zM86 30h1v1h-1zM16 34h1v1h-1zM80 40h1v1h-1zM20 42h1v1h-1zM74 50h1v1h-1zM26 51h1v1h-1zM73 51h1v1h-1zM27 54h1v1h-1zM28 55h1v1h-1zM34 65h1v1h-1zM64 67h1v1h-1zM62 70h1v1h-1zM61 72h1v1h-1zM39 74h1v1h-1zM58 77h1v1h-1z" /><path fill="#386166" d="M21 9h1v1h-1z" /><path fill="#386066" d="M39 9h1v1h-1z" /><path fill="#3a7a6f" d="M78 9h1v1h-1zM63 35h1v1h-1z" /><path fill="#40b782" d="M98 9h1v1h-1zM94 16h1v1h-1zM9 22h1v1h-1zM9 23h1v1h-1zM14 31h1v1h-1zM83 35h1v1h-1zM18 38h1v1h-1zM81 38h1v1h-1zM23 47h1v1h-1zM66 64h1v1h-1zM34 66h1v1h-1zM36 69h1v1h-1zM63 69h1v1h-1zM62 71h1v1h-1zM58 78h1v1h-1zM54 85h1v1h-1zM49 91h1v1h-1zM49 92h1v1h-1z" /><path fill="#41b783" d="M2 10h1v1h-1zM6 17h1v1h-1zM10 24h1v1h-1zM13 29h1v1h-1zM83 34h1v1h-1zM76 47h1v1h-1zM26 52h1v1h-1zM28 56h1v1h-1zM29 57h1v1h-1zM70 57h1v1h-1zM65 66h1v1h-1zM35 68h1v1h-1zM38 72h1v1h-1zM60 74h1v1h-1zM42 79h1v1h-1zM46 86h1v1h-1z" /><path fill="#3fa27c" d="M21 10h1v1h-1z" /><path fill="#36495e" d="M22 10h1v1h-1zM47 53h1v1h-1z" /><path fill="#39756e" d="M40 10h1v1h-1z" /><path fill="#376d6a" d="M59 10h1v1h-1z" /><path fill="#365261" d="M77 10h1v1h-1zM56 16h1v1h-1zM62 36h1v1h-1zM41 43h1v1h-1z" /><path fill="#40b181" d="M78 10h1v1h-1zM63 36h1v1h-1z" /><path fill="#40b783" d="M97 10h1v1h-1zM3 12h1v1h-1zM5 16h1v1h-1zM86 29h1v1h-1zM85 31h1v1h-1zM16 35h1v1h-1zM82 36h1v1h-1zM77 45h1v1h-1zM73 52h1v1h-1zM68 60h1v1h-1zM32 62h1v1h-1zM57 79h1v1h-1zM43 81h1v1h-1zM45 85h1v1h-1z" /><path fill="#3fb781" d="M2 11h1v1h-1zM42 80h1v1h-1z" /><path fill="#39726b" d="M22 11h1v1h-1zM44 17h1v1h-1zM71 21h1v1h-1zM56 47h1v1h-1z" /><path fill="#365561" d="M40 11h1v1h-1z" /><path fill="#354d5f" d="M59 11h1v1h-1zM41 13h1v1h-1zM74 15h1v1h-1zM59 41h1v1h-1zM44 48h1v1h-1z" /><path fill="#3c8b75" d="M77 11h1v1h-1zM62 37h1v1h-1z" /><path fill="#3fb582" d="M97 11h1v1h-1zM57 80h1v1h-1z" /><path fill="#40ae7f" d="M22 12h1v1h-1z" /><path fill="#364f60" d="M23 12h1v1h-1zM70 22h1v1h-1zM55 48h1v1h-1z" /><path fill="#396e6a" d="M41 12h1v1h-1zM36 35h1v1h-1z" /><path fill="#376567" d="M58 12h1v1h-1z" /><path fill="#375e65" d="M76 12h1v1h-1zM35 33h1v1h-1zM61 38h1v1h-1z" /><path fill="#3b8371" d="M23 13h1v1h-1zM70 23h1v1h-1zM55 49h1v1h-1z" /><path fill="#354a5f" d="M58 13h1v1h-1zM71 20h1v1h-1zM29 22h1v1h-1zM67 27h1v1h-1zM36 34h1v1h-1zM40 41h1v1h-1zM56 46h1v1h-1zM52 53h1v1h-1z" /><path fill="#3e9c7a" d="M76 13h1v1h-1zM61 39h1v1h-1z" /><path fill="#40b682" d="M23 14h1v1h-1zM75 49h1v1h-1zM48 57h1v1h-1z" /><path fill="#375964" d="M24 14h1v1h-1z" /><path fill="#386468" d="M42 14h1v1h-1z" /><path fill="#375b64" d="M57 14h1v1h-1zM65 31h1v1h-1zM50 57h1v1h-1z" /><path fill="#396e6b" d="M75 14h1v1h-1zM60 40h1v1h-1z" /><path fill="#3d9678" d="M24 15h1v1h-1z" /><path fill="#39736b" d="M56 15h1v1h-1z" /><path fill="#40aa7f" d="M75 15h1v1h-1zM60 41h1v1h-1z" /><path fill="#386868" d="M25 16h1v1h-1zM32 28h1v1h-1z" /><path fill="#365962" d="M43 16h1v1h-1z" /><path fill="#3b7e70" d="M74 16h1v1h-1zM59 42h1v1h-1z" /><path fill="#40a67d" d="M25 17h1v1h-1z" /><path fill="#40b281" d="M74 17h1v1h-1zM26 19h1v1h-1zM59 43h1v1h-1zM44 50h1v1h-1z" /><path fill="#42b783" d="M6 18h1v1h-1zM46 87h1v1h-1z" /><path fill="#3b7a6f" d="M26 18h1v1h-1z" /><path fill="#354f60" d="M44 18h1v1h-1z" /><path fill="#364c5e" d="M55 18h1v1h-1z" /><path fill="#3d9076" d="M73 18h1v1h-1zM58 44h1v1h-1zM45 51h1v1h-1z" /><path fill="#3fb983" d="M93 18h1v1h-1zM53 87h1v1h-1z" /><path fill="#365361" d="M27 19h1v1h-1z" /><path fill="#376869" d="M45 19h1v1h-1z" /><path fill="#386266" d="M54 19h1v1h-1z" /><path fill="#376166" d="M72 19h1v1h-1zM57 45h1v1h-1z" /><path fill="#3c8c74" d="M27 20h1v1h-1z" /><path fill="#3ea07b" d="M72 20h1v1h-1zM57 46h1v1h-1z" /><path fill="#3fb783" d="M8 21h1v1h-1zM48 90h1v1h-1z" /><path fill="#386065" d="M28 21h1v1h-1z" /><path fill="#365c65" d="M46 21h1v1h-1z" /><path fill="#375963" d="M53 21h1v1h-1z" /><path fill="#40b683" d="M91 21h1v1h-1zM90 23h1v1h-1zM51 90h1v1h-1zM50 92h1v1h-1z" /><path fill="#3e9f7a" d="M28 22h1v1h-1z" /><path fill="#39736c" d="M47 22h1v1h-1z" /><path fill="#39706b" d="M52 22h1v1h-1zM29 23h1v1h-1z" /><path fill="#3fac80" d="M71 22h1v1h-1zM56 48h1v1h-1z" /><path fill="#365260" d="M47 23h1v1h-1z" /><path fill="#365060" d="M52 23h1v1h-1zM66 29h1v1h-1zM48 55h1v1h-1zM51 55h1v1h-1z" /><path fill="#40ad7f" d="M29 24h1v1h-1z" /><path fill="#364e60" d="M30 24h1v1h-1z" /><path fill="#386c69" d="M48 24h1v1h-1z" /><path fill="#386968" d="M51 24h1v1h-1z" /><path fill="#365863" d="M69 24h1v1h-1zM54 50h1v1h-1z" /><path fill="#41b482" d="M70 24h1v1h-1zM55 50h1v1h-1z" /><path fill="#3b8271" d="M30 25h1v1h-1z" /><path fill="#3d9477" d="M69 25h1v1h-1zM31 27h1v1h-1zM54 51h1v1h-1z" /><path fill="#41b581" d="M30 26h1v1h-1zM37 38h1v1h-1z" /><path fill="#365762" d="M31 26h1v1h-1z" /><path fill="#376265" d="M49 26h1v1h-1z" /><path fill="#376066" d="M50 26h1v1h-1z" /><path fill="#386567" d="M68 26h1v1h-1zM53 52h1v1h-1z" /><path fill="#3fa37c" d="M68 27h1v1h-1zM39 41h1v1h-1zM53 53h1v1h-1z" /><path fill="#3a766d" d="M67 28h1v1h-1zM52 54h1v1h-1z" /><path fill="#40b781" d="M87 28h1v1h-1zM69 59h1v1h-1z" /><path fill="#3fa67c" d="M32 29h1v1h-1z" /><path fill="#40af80" d="M67 29h1v1h-1zM52 55h1v1h-1z" /><path fill="#3fb782" d="M13 30h1v1h-1z" /><path fill="#3a776e" d="M33 30h1v1h-1z" /><path fill="#3b8772" d="M66 30h1v1h-1zM51 56h1v1h-1z" /><path fill="#41b180" d="M33 31h1v1h-1z" /><path fill="#365161" d="M34 31h1v1h-1z" /><path fill="#41b582" d="M66 31h1v1h-1zM51 57h1v1h-1z" /><path fill="#3c8974" d="M34 32h1v1h-1z" /><path fill="#3d9878" d="M65 32h1v1h-1zM49 58h2v1h-2z" /><path fill="#40b884" d="M84 33h1v1h-1zM72 54h1v1h-1z" /><path fill="#3e9e7a" d="M35 34h1v1h-1z" /><path fill="#40ab7f" d="M36 36h1v1h-1z" /><path fill="#364d5f" d="M37 36h1v1h-1z" /><path fill="#41b785" d="M17 37h1v1h-1z" /><path fill="#3b8071" d="M37 37h1v1h-1z" /><path fill="#40b982" d="M82 37h1v1h-1z" /><path fill="#375663" d="M38 38h1v1h-1z" /><path fill="#3d9176" d="M38 39h1v1h-1z" /><path fill="#386467" d="M39 40h1v1h-1z" /><path fill="#3a766c" d="M40 42h1v1h-1z" /><path fill="#41b682" d="M79 42h1v1h-1zM41 45h1v1h-1z" /><path fill="#40b081" d="M40 43h1v1h-1z" /><path fill="#3c8873" d="M41 44h1v1h-1z" /><path fill="#3e9b7a" d="M42 46h1v1h-1z" /><path fill="#396b6a" d="M43 47h1v1h-1z" /><path fill="#41b784" d="M24 48h1v1h-1z" /><path fill="#3fa97f" d="M43 48h1v1h-1z" /><path fill="#3b7d6f" d="M44 49h1v1h-1z" /><path fill="#386367" d="M46 52h1v1h-1z" /><path fill="#3ea27b" d="M46 53h1v1h-1z" /><path fill="#3a736c" d="M47 54h1v1h-1z" /><path fill="#40ae80" d="M47 55h1v1h-1z" /><path fill="#3b8572" d="M48 56h1v1h-1z" /><path fill="#42b884" d="M71 56h1v1h-1z" /><path fill="#375a64" d="M49 57h1v1h-1z" /><path fill="#42b681" d="M31 61h1v1h-1z" /><path fill="#3fb784" d="M68 61h1v1h-1z" /><path fill="#3eb581" d="M64 68h1v1h-1z" /><path fill="#42b883" d="M37 71h1v1h-1z" /><path fill="#40b684" d="M61 73h1v1h-1z" /></svg>