<svg xmlns="http://www.w3.org/2000/svg" viewBox="0 0 100 100" width="1em" height="1em"><path fill="#ffffff" d="M49 0h2v1h-2zM48 1h5v1h-5zM46 2h9v1h-9zM44 3h12v1h-12zM42 4h16v1h-16zM41 5h19v1h-19zM39 6h23v1h-23zM37 7h10v1h-10zM49 7h2v1h-2zM54 7h9v1h-9zM35 8h10v1h-10zM49 8h2v1h-2zM56 8h9v1h-9zM33 9h10v1h-10zM49 9h2v1h-2zM57 9h10v1h-10zM32 10h9v1h-9zM49 10h2v1h-2zM59 10h10v1h-10zM30 11h10v1h-10zM49 11h2v1h-2zM61 11h10v1h-10zM28 12h10v1h-10zM49 12h2v1h-2zM63 12h9v1h-9zM26 13h10v1h-10zM49 13h2v1h-2zM65 13h9v1h-9zM25 14h9v1h-9zM49 14h2v1h-2zM66 14h10v1h-10zM23 15h10v1h-10zM49 15h2v1h-2zM68 15h10v1h-10zM21 16h10v1h-10zM49 16h2v1h-2zM70 16h9v1h-9zM19 17h10v1h-10zM49 17h2v1h-2zM72 17h9v1h-9zM18 18h9v1h-9zM49 18h2v1h-2zM73 18h10v1h-10zM16 19h9v1h-9zM49 19h2v1h-2zM75 19h10v1h-10zM14 20h10v1h-10zM49 20h2v1h-2zM77 20h9v1h-9zM12 21h10v1h-10zM49 21h2v1h-2zM79 21h9v1h-9zM11 22h9v1h-9zM49 22h3v1h-3zM80 22h10v1h-10zM9 23h9v1h-9zM47 23h7v1h-7zM82 23h10v1h-10zM7 24h10v1h-10zM45 24h4v1h-4zM52 24h3v1h-3zM84 24h10v1h-10zM6 25h9v1h-9zM43 25h4v1h-4zM53 25h4v1h-4zM86 25h8v1h-8zM6 26h7v1h-7zM42 26h3v1h-3zM55 26h4v1h-4zM87 26h7v1h-7zM6 27h7v1h-7zM40 27h4v1h-4zM57 27h4v1h-4zM88 27h6v1h-6zM6 28h8v1h-8zM38 28h4v1h-4zM59 28h4v1h-4zM87 28h7v1h-7zM6 29h5v1h-5zM12 29h4v1h-4zM36 29h4v1h-4zM61 29h3v1h-3zM85 29h3v1h-3zM89 29h5v1h-5zM6 30h5v1h-5zM14 30h3v1h-3zM34 30h4v1h-4zM63 30h3v1h-3zM83 30h4v1h-4zM90 30h4v1h-4zM6 31h5v1h-5zM16 31h3v1h-3zM32 31h4v1h-4zM64 31h4v1h-4zM81 31h4v1h-4zM90 31h4v1h-4zM6 32h5v1h-5zM17 32h4v1h-4zM31 32h3v1h-3zM66 32h4v1h-4zM80 32h3v1h-3zM90 32h4v1h-4zM6 33h5v1h-5zM19 33h4v1h-4zM29 33h4v1h-4zM68 33h4v1h-4zM78 33h4v1h-4zM90 33h4v1h-4zM6 34h5v1h-5zM21 34h3v1h-3zM27 34h4v1h-4zM70 34h4v1h-4zM76 34h4v1h-4zM90 34h4v1h-4zM6 35h5v1h-5zM22 35h7v1h-7zM72 35h6v1h-6zM90 35h4v1h-4zM6 36h5v1h-5zM24 36h4v1h-4zM72 36h4v1h-4zM90 36h4v1h-4zM6 37h5v1h-5zM25 37h5v1h-5zM71 37h5v1h-5zM90 37h4v1h-4zM6 38h5v1h-5zM25 38h6v1h-6zM69 38h7v1h-7zM90 38h4v1h-4zM6 39h5v1h-5zM25 39h2v1h-2zM29 39h4v1h-4zM68 39h3v1h-3zM74 39h2v1h-2zM90 39h4v1h-4zM6 40h5v1h-5zM25 40h2v1h-2zM31 40h4v1h-4zM66 40h3v1h-3zM74 40h2v1h-2zM90 40h4v1h-4zM6 41h5v1h-5zM25 41h2v1h-2zM33 41h3v1h-3zM64 41h4v1h-4zM74 41h2v1h-2zM90 41h4v1h-4zM6 42h5v1h-5zM25 42h2v1h-2zM35 42h3v1h-3zM62 42h4v1h-4zM74 42h2v1h-2zM90 42h4v1h-4zM6 43h5v1h-5zM25 43h2v1h-2zM36 43h4v1h-4zM61 43h3v1h-3zM74 43h2v1h-2zM90 43h4v1h-4zM6 44h5v1h-5zM25 44h2v1h-2zM38 44h4v1h-4zM59 44h3v1h-3zM74 44h2v1h-2zM90 44h4v1h-4zM6 45h5v1h-5zM25 45h2v1h-2zM40 45h3v1h-3zM57 45h4v1h-4zM74 45h2v1h-2zM90 45h4v1h-4zM6 46h5v1h-5zM25 46h2v1h-2zM42 46h3v1h-3zM55 46h4v1h-4zM74 46h2v1h-2zM90 46h4v1h-4zM6 47h5v1h-5zM25 47h2v1h-2zM43 47h4v1h-4zM54 47h3v1h-3zM74 47h2v1h-2zM90 47h4v1h-4zM6 48h5v1h-5zM25 48h2v1h-2zM45 48h4v1h-4zM52 48h4v1h-4zM74 48h2v1h-2zM90 48h4v1h-4zM6 49h5v1h-5zM25 49h2v1h-2zM47 49h7v1h-7zM74 49h2v1h-2zM90 49h4v1h-4zM6 50h5v1h-5zM25 50h2v1h-2zM48 50h4v1h-4zM74 50h2v1h-2zM90 50h4v1h-4zM6 51h5v1h-5zM25 51h2v1h-2zM49 51h2v1h-2zM74 51h2v1h-2zM90 51h4v1h-4zM6 52h5v1h-5zM25 52h2v1h-2zM49 52h2v1h-2zM74 52h2v1h-2zM90 52h4v1h-4zM6 53h5v1h-5zM25 53h2v1h-2zM49 53h2v1h-2zM74 53h2v1h-2zM90 53h4v1h-4zM6 54h5v1h-5zM25 54h2v1h-2zM49 54h2v1h-2zM74 54h2v1h-2zM90 54h4v1h-4zM6 55h5v1h-5zM25 55h2v1h-2zM49 55h2v1h-2zM74 55h2v1h-2zM90 55h4v1h-4zM6 56h5v1h-5zM25 56h2v1h-2zM49 56h2v1h-2zM74 56h2v1h-2zM90 56h4v1h-4zM6 57h5v1h-5zM25 57h2v1h-2zM49 57h2v1h-2zM74 57h2v1h-2zM90 57h4v1h-4zM6 58h5v1h-5zM25 58h2v1h-2zM49 58h2v1h-2zM74 58h2v1h-2zM90 58h4v1h-4zM6 59h5v1h-5zM25 59h2v1h-2zM49 59h2v1h-2zM74 59h2v1h-2zM90 59h4v1h-4zM6 60h5v1h-5zM25 60h2v1h-2zM49 60h2v1h-2zM74 60h2v1h-2zM90 60h4v1h-4zM6 61h5v1h-5zM25 61h2v1h-2zM49 61h2v1h-2zM74 61h2v1h-2zM90 61h4v1h-4zM6 62h5v1h-5zM25 62h2v1h-2zM49 62h2v1h-2zM74 62h2v1h-2zM90 62h4v1h-4zM6 63h5v1h-5zM25 63h3v1h-3zM49 63h2v1h-2zM72 63h4v1h-4zM90 63h4v1h-4zM6 64h5v1h-5zM24 64h6v1h-6zM49 64h2v1h-2zM71 64h5v1h-5zM90 64h4v1h-4zM6 65h5v1h-5zM22 65h4v1h-4zM28 65h4v1h-4zM49 65h2v1h-2zM69 65h4v1h-4zM74 65h4v1h-4zM90 65h4v1h-4zM6 66h5v1h-5zM21 66h3v1h-3zM30 66h4v1h-4zM49 66h2v1h-2zM67 66h4v1h-4zM76 66h4v1h-4zM90 66h4v1h-4zM6 67h5v1h-5zM19 67h4v1h-4zM32 67h3v1h-3zM49 67h2v1h-2zM65 67h4v1h-4zM78 67h4v1h-4zM90 67h4v1h-4zM6 68h5v1h-5zM17 68h4v1h-4zM33 68h4v1h-4zM49 68h2v1h-2zM63 68h4v1h-4zM80 68h3v1h-3zM90 68h4v1h-4zM6 69h5v1h-5zM16 69h3v1h-3zM35 69h4v1h-4zM49 69h2v1h-2zM62 69h3v1h-3zM81 69h4v1h-4zM90 69h4v1h-4zM6 70h5v1h-5zM14 70h4v1h-4zM37 70h4v1h-4zM49 70h2v1h-2zM60 70h4v1h-4zM83 70h4v1h-4zM90 70h4v1h-4zM6 71h5v1h-5zM12 71h4v1h-4zM39 71h4v1h-4zM49 71h2v1h-2zM58 71h4v1h-4zM85 71h3v1h-3zM89 71h5v1h-5zM6 72h8v1h-8zM41 72h3v1h-3zM49 72h2v1h-2zM56 72h4v1h-4zM87 72h7v1h-7zM6 73h7v1h-7zM42 73h4v1h-4zM49 73h2v1h-2zM54 73h4v1h-4zM87 73h7v1h-7zM6 74h9v1h-9zM44 74h4v1h-4zM49 74h2v1h-2zM52 74h4v1h-4zM86 74h8v1h-8zM7 75h10v1h-10zM46 75h8v1h-8zM84 75h10v1h-10zM9 76h9v1h-9zM48 76h5v1h-5zM82 76h10v1h-10zM11 77h9v1h-9zM49 77h2v1h-2zM80 77h10v1h-10zM12 78h10v1h-10zM49 78h2v1h-2zM79 78h9v1h-9zM14 79h10v1h-10zM49 79h2v1h-2zM77 79h9v1h-9zM16 80h9v1h-9zM49 80h2v1h-2zM75 80h10v1h-10zM18 81h9v1h-9zM49 81h2v1h-2zM73 81h10v1h-10zM19 82h10v1h-10zM49 82h2v1h-2zM72 82h9v1h-9zM21 83h10v1h-10zM49 83h2v1h-2zM70 83h9v1h-9zM23 84h10v1h-10zM49 84h2v1h-2zM68 84h10v1h-10zM25 85h9v1h-9zM49 85h2v1h-2zM66 85h10v1h-10zM26 86h10v1h-10zM49 86h2v1h-2zM65 86h9v1h-9zM28 87h10v1h-10zM49 87h2v1h-2zM63 87h9v1h-9zM30 88h10v1h-10zM49 88h2v1h-2zM61 88h10v1h-10zM32 89h9v1h-9zM49 89h2v1h-2zM59 89h10v1h-10zM33 90h10v1h-10zM49 90h2v1h-2zM57 90h10v1h-10zM35 91h10v1h-10zM49 91h2v1h-2zM56 91h9v1h-9zM37 92h10v1h-10zM49 92h2v1h-2zM54 92h9v1h-9zM39 93h23v1h-23zM41 94h19v1h-19zM42 95h16v1h-16zM44 96h12v1h-12zM46 97h9v1h-9zM48 98h5v1h-5zM49 99h2v1h-2z" /><path fill="#e1f4fe" d="M47 7h1v1h-1zM24 20h1v1h-1zM17 24h1v1h-1zM63 28h1v1h-1zM23 33h1v1h-1zM23 67h1v1h-1zM17 75h1v1h-1zM53 76h1v1h-1zM24 79h1v1h-1z" /><path fill="#c0e8fd" d="M48 7h1v1h-1zM83 29h1v1h-1z" /><path fill="#e8f7fe" d="M51 7h1v1h-1zM61 27h1v1h-1z" /><path fill="#b7e5fc" d="M52 7h1v1h-1zM30 17h1v1h-1zM82 24h1v1h-1zM15 28h1v1h-1zM86 31h1v1h-1zM76 33h1v1h-1zM70 67h1v1h-1zM86 69h1v1h-1zM15 72h1v1h-1zM82 75h1v1h-1zM46 76h1v1h-1zM30 82h1v1h-1z" /><path fill="#f5fbff" d="M53 7h1v1h-1zM77 33h1v1h-1zM51 77h1v1h-1zM76 79h1v1h-1z" /><path fill="#eef9fe" d="M45 8h1v1h-1zM35 29h1v1h-1zM21 32h1v1h-1zM70 32h1v1h-1zM22 78h1v1h-1z" /><path fill="#b0e2fc" d="M46 8h1v1h-1zM66 15h1v1h-1zM17 67h1v1h-1zM66 84h1v1h-1zM46 91h1v1h-1z" /><path fill="#8ed6fb" d="M47 8h1v1h-1zM52 8h1v1h-1zM46 9h2v1h-2zM52 9h3v1h-3zM44 10h4v1h-4zM52 10h5v1h-5zM42 11h6v1h-6zM52 11h7v1h-7zM40 12h8v1h-8zM52 12h8v1h-8zM39 13h9v1h-9zM52 13h10v1h-10zM37 14h11v1h-11zM52 14h12v1h-12zM35 15h13v1h-13zM52 15h14v1h-14zM33 16h15v1h-15zM52 16h15v1h-15zM31 17h17v1h-17zM52 17h17v1h-17zM30 18h18v1h-18zM52 18h19v1h-19zM28 19h20v1h-20zM52 19h21v1h-21zM26 20h22v1h-22zM52 20h22v1h-22zM24 21h24v1h-24zM52 21h24v1h-24zM23 22h23v1h-23zM54 22h24v1h-24zM21 23h24v1h-24zM56 23h24v1h-24zM19 24h24v1h-24zM58 24h23v1h-23zM17 25h24v1h-24zM60 25h23v1h-23zM16 26h23v1h-23zM62 26h23v1h-23zM15 27h22v1h-22zM63 27h23v1h-23zM16 28h19v1h-19zM65 28h19v1h-19zM18 29h16v1h-16zM67 29h15v1h-15zM20 30h12v1h-12zM69 30h12v1h-12zM12 31h1v1h-1zM22 31h8v1h-8zM71 31h8v1h-8zM87 31h2v1h-2zM12 32h3v1h-3zM23 32h5v1h-5zM72 32h5v1h-5zM86 32h3v1h-3zM12 33h5v1h-5zM25 33h1v1h-1zM74 33h1v1h-1zM84 33h5v1h-5zM12 34h6v1h-6zM82 34h7v1h-7zM12 35h8v1h-8zM81 35h8v1h-8zM12 36h10v1h-10zM79 36h10v1h-10zM12 37h11v1h-11zM77 37h12v1h-12zM12 38h12v1h-12zM77 38h12v1h-12zM12 39h12v1h-12zM77 39h12v1h-12zM12 40h12v1h-12zM77 40h12v1h-12zM12 41h12v1h-12zM77 41h12v1h-12zM12 42h12v1h-12zM77 42h12v1h-12zM12 43h12v1h-12zM77 43h12v1h-12zM12 44h12v1h-12zM77 44h12v1h-12zM12 45h12v1h-12zM77 45h12v1h-12zM12 46h12v1h-12zM77 46h12v1h-12zM12 47h12v1h-12zM77 47h12v1h-12zM12 48h12v1h-12zM77 48h12v1h-12zM12 49h12v1h-12zM77 49h12v1h-12zM12 50h12v1h-12zM77 50h12v1h-12zM12 51h12v1h-12zM77 51h12v1h-12zM12 52h12v1h-12zM77 52h12v1h-12zM12 53h12v1h-12zM77 53h12v1h-12zM12 54h12v1h-12zM77 54h12v1h-12zM12 55h12v1h-12zM77 55h12v1h-12zM12 56h12v1h-12zM77 56h12v1h-12zM12 57h12v1h-12zM77 57h12v1h-12zM12 58h12v1h-12zM77 58h12v1h-12zM12 59h12v1h-12zM77 59h12v1h-12zM12 60h12v1h-12zM77 60h12v1h-12zM12 61h12v1h-12zM77 61h12v1h-12zM12 62h12v1h-12zM77 62h12v1h-12zM12 63h11v1h-11zM77 63h12v1h-12zM12 64h10v1h-10zM79 64h10v1h-10zM12 65h8v1h-8zM81 65h8v1h-8zM12 66h6v1h-6zM73 66h1v1h-1zM82 66h7v1h-7zM12 67h5v1h-5zM25 67h4v1h-4zM71 67h4v1h-4zM84 67h5v1h-5zM12 68h3v1h-3zM23 68h8v1h-8zM70 68h7v1h-7zM86 68h3v1h-3zM12 69h1v1h-1zM22 69h11v1h-11zM68 69h11v1h-11zM87 69h2v1h-2zM20 70h15v1h-15zM66 70h15v1h-15zM18 71h18v1h-18zM64 71h18v1h-18zM16 72h22v1h-22zM62 72h22v1h-22zM16 73h24v1h-24zM61 73h24v1h-24zM17 74h25v1h-25zM59 74h24v1h-24zM19 75h25v1h-25zM57 75h24v1h-24zM21 76h24v1h-24zM55 76h25v1h-25zM23 77h24v1h-24zM53 77h25v1h-25zM24 78h24v1h-24zM52 78h24v1h-24zM26 79h22v1h-22zM52 79h22v1h-22zM28 80h20v1h-20zM52 80h21v1h-21zM30 81h18v1h-18zM52 81h19v1h-19zM31 82h17v1h-17zM52 82h17v1h-17zM33 83h15v1h-15zM52 83h15v1h-15zM35 84h13v1h-13zM52 84h14v1h-14zM37 85h11v1h-11zM52 85h12v1h-12zM39 86h9v1h-9zM52 86h10v1h-10zM40 87h8v1h-8zM52 87h8v1h-8zM42 88h6v1h-6zM52 88h7v1h-7zM44 89h4v1h-4zM52 89h5v1h-5zM46 90h2v1h-2zM52 90h3v1h-3zM47 91h1v1h-1zM52 91h1v1h-1z" /><path fill="#ace1fc" d="M48 8h1v1h-1zM48 9h1v1h-1zM48 10h1v1h-1zM48 11h1v1h-1zM48 12h1v1h-1zM48 13h1v1h-1zM48 14h1v1h-1zM48 15h1v1h-1zM48 16h1v1h-1zM48 17h1v1h-1zM48 18h1v1h-1zM48 19h1v1h-1zM73 19h1v1h-1zM48 20h1v1h-1zM43 24h1v1h-1zM81 30h1v1h-1zM76 38h1v1h-1zM76 39h1v1h-1zM76 40h1v1h-1zM76 41h1v1h-1zM76 42h1v1h-1zM76 43h1v1h-1zM76 44h1v1h-1zM76 45h1v1h-1zM76 46h1v1h-1zM76 47h1v1h-1zM76 48h1v1h-1zM76 49h1v1h-1zM76 50h1v1h-1zM76 51h1v1h-1zM76 52h1v1h-1zM76 53h1v1h-1zM76 54h1v1h-1zM76 55h1v1h-1zM76 56h1v1h-1zM76 57h1v1h-1zM76 58h1v1h-1zM76 59h1v1h-1zM76 60h1v1h-1zM76 61h1v1h-1zM76 62h1v1h-1zM81 70h1v1h-1zM44 75h1v1h-1zM48 78h1v1h-1zM48 79h1v1h-1zM48 80h1v1h-1zM73 80h1v1h-1zM48 81h1v1h-1zM48 82h1v1h-1zM48 83h1v1h-1zM48 84h1v1h-1zM48 85h1v1h-1zM48 86h1v1h-1zM48 87h1v1h-1zM48 88h1v1h-1zM48 89h1v1h-1zM48 90h1v1h-1zM48 91h1v1h-1z" /><path fill="#e8f6fe" d="M51 8h1v1h-1zM51 9h1v1h-1zM51 10h1v1h-1zM51 11h1v1h-1zM51 12h1v1h-1zM51 13h1v1h-1zM51 14h1v1h-1zM51 15h1v1h-1zM51 16h1v1h-1zM51 17h1v1h-1zM51 18h1v1h-1zM51 19h1v1h-1zM51 20h1v1h-1zM87 30h1v1h-1zM71 66h1v1h-1zM51 78h1v1h-1zM51 79h1v1h-1zM51 80h1v1h-1zM51 81h1v1h-1zM51 82h1v1h-1zM51 83h1v1h-1zM51 84h1v1h-1zM51 85h1v1h-1zM51 86h1v1h-1zM51 87h1v1h-1zM51 88h1v1h-1zM51 89h1v1h-1zM51 90h1v1h-1zM51 91h1v1h-1z" /><path fill="#93d8fb" d="M53 8h1v1h-1zM83 25h1v1h-1zM77 32h1v1h-1zM18 34h1v1h-1zM27 66h1v1h-1zM85 68h1v1h-1zM83 74h1v1h-1zM47 77h1v1h-1zM53 91h1v1h-1z" /><path fill="#c6eafd" d="M54 8h1v1h-1zM28 18h1v1h-1zM84 25h1v1h-1zM78 32h1v1h-1zM20 69h1v1h-1zM84 74h1v1h-1zM28 81h1v1h-1zM54 91h1v1h-1z" /><path fill="#fbfeff" d="M55 8h1v1h-1zM85 25h1v1h-1zM83 32h1v1h-1zM20 34h1v1h-1zM40 72h1v1h-1zM85 74h1v1h-1zM55 91h1v1h-1z" /><path fill="#f7fcff" d="M43 9h1v1h-1zM20 22h1v1h-1zM57 25h1v1h-1zM78 35h1v1h-1zM26 65h1v1h-1zM67 68h1v1h-1zM38 71h1v1h-1zM20 77h1v1h-1zM43 90h1v1h-1z" /><path fill="#bfe8fd" d="M44 9h1v1h-1zM68 16h1v1h-1zM47 22h1v1h-1zM14 26h1v1h-1zM12 30h1v1h-1zM69 31h1v1h-1zM27 33h1v1h-1zM79 35h1v1h-1zM12 70h1v1h-1zM68 83h1v1h-1zM44 90h1v1h-1z" /><path fill="#90d7fb" d="M45 9h1v1h-1zM74 20h1v1h-1zM35 28h1v1h-1zM82 29h1v1h-1zM70 31h1v1h-1zM75 67h1v1h-1zM22 77h1v1h-1zM74 79h1v1h-1zM45 90h1v1h-1z" /><path fill="#9bdbfb" d="M55 9h1v1h-1zM30 31h1v1h-1zM20 65h1v1h-1zM85 73h1v1h-1zM55 90h1v1h-1z" /><path fill="#d5f0fe" d="M56 9h1v1h-1zM26 19h1v1h-1zM86 26h1v1h-1zM18 30h1v1h-1zM31 31h1v1h-1zM21 35h1v1h-1zM18 70h1v1h-1zM55 75h1v1h-1zM26 80h1v1h-1zM56 90h1v1h-1z" /><path fill="#fdfeff" d="M41 10h1v1h-1zM78 21h1v1h-1zM18 23h1v1h-1zM51 24h1v1h-1zM55 24h1v1h-1zM64 29h1v1h-1zM89 30h1v1h-1zM89 31h1v1h-1zM34 32h1v1h-1zM89 32h1v1h-1zM89 33h1v1h-1zM89 34h1v1h-1zM89 35h1v1h-1zM76 36h1v1h-1zM89 36h1v1h-1zM89 37h1v1h-1zM89 38h1v1h-1zM89 39h1v1h-1zM69 40h1v1h-1zM89 40h1v1h-1zM89 41h1v1h-1zM89 42h1v1h-1zM89 43h1v1h-1zM89 44h1v1h-1zM89 45h1v1h-1zM41 46h1v1h-1zM89 46h1v1h-1zM89 47h1v1h-1zM89 48h1v1h-1zM89 49h1v1h-1zM89 50h1v1h-1zM89 51h1v1h-1zM89 52h1v1h-1zM89 53h1v1h-1zM89 54h1v1h-1zM89 55h1v1h-1zM89 56h1v1h-1zM89 57h1v1h-1zM89 58h1v1h-1zM89 59h1v1h-1zM89 60h1v1h-1zM89 61h1v1h-1zM89 62h1v1h-1zM89 63h1v1h-1zM76 64h1v1h-1zM89 64h1v1h-1zM89 65h1v1h-1zM24 66h1v1h-1zM89 66h1v1h-1zM31 67h1v1h-1zM89 67h1v1h-1zM89 68h1v1h-1zM61 69h1v1h-1zM89 69h1v1h-1zM89 70h1v1h-1zM18 76h1v1h-1zM71 82h1v1h-1zM41 89h1v1h-1z" /><path fill="#ceedfd" d="M42 10h1v1h-1zM70 17h1v1h-1zM85 28h1v1h-1zM77 36h1v1h-1zM77 64h1v1h-1zM30 67h1v1h-1zM14 69h1v1h-1zM66 69h1v1h-1zM85 72h1v1h-1zM70 82h1v1h-1zM42 89h1v1h-1z" /><path fill="#95d9fb" d="M43 10h1v1h-1zM67 69h1v1h-1zM43 89h1v1h-1z" /><path fill="#a7dffc" d="M57 10h1v1h-1zM88 30h1v1h-1zM33 69h1v1h-1zM57 89h1v1h-1z" /><path fill="#e6f6fe" d="M58 10h1v1h-1zM52 22h1v1h-1zM72 33h1v1h-1zM23 64h1v1h-1zM86 73h1v1h-1zM58 89h1v1h-1z" /><path fill="#ddf3fe" d="M40 11h1v1h-1zM82 33h1v1h-1zM82 67h1v1h-1zM40 88h1v1h-1z" /><path fill="#9edcfc" d="M41 11h1v1h-1zM78 22h1v1h-1zM55 23h1v1h-1zM79 31h1v1h-1zM41 88h1v1h-1z" /><path fill="#b4e4fc" d="M59 11h1v1h-1zM45 23h1v1h-1zM71 32h1v1h-1zM17 33h1v1h-1zM22 68h1v1h-1zM35 70h1v1h-1zM61 72h1v1h-1zM23 78h1v1h-1zM59 88h1v1h-1z" /><path fill="#f2faff" d="M60 11h1v1h-1zM29 17h1v1h-1zM59 26h1v1h-1zM14 28h1v1h-1zM26 34h1v1h-1zM69 67h1v1h-1zM29 82h1v1h-1z" /><path fill="#e9f7fe" d="M38 12h1v1h-1zM44 24h1v1h-1zM75 34h1v1h-1zM80 34h1v1h-1zM80 66h1v1h-1zM15 74h1v1h-1zM38 87h1v1h-1zM51 92h1v1h-1z" /><path fill="#aae0fc" d="M39 12h1v1h-1zM62 27h1v1h-1zM72 66h1v1h-1zM16 74h1v1h-1zM39 87h1v1h-1z" /><path fill="#92d8fb" d="M60 12h1v1h-1zM60 87h1v1h-1z" /><path fill="#c3e9fd" d="M61 12h1v1h-1zM21 22h1v1h-1zM58 25h1v1h-1zM20 31h1v1h-1zM19 66h1v1h-1zM28 66h1v1h-1zM68 68h1v1h-1zM83 71h1v1h-1zM61 87h1v1h-1z" /><path fill="#fafdff" d="M62 12h1v1h-1zM27 18h1v1h-1zM20 66h1v1h-1zM19 69h1v1h-1zM56 74h1v1h-1zM27 81h1v1h-1zM62 87h1v1h-1z" /><path fill="#f3fbff" d="M36 13h1v1h-1zM85 31h1v1h-1zM14 72h1v1h-1zM58 73h1v1h-1zM36 86h1v1h-1z" /><path fill="#bbe6fd" d="M37 13h1v1h-1zM75 20h1v1h-1zM60 26h1v1h-1zM36 28h1v1h-1zM76 67h1v1h-1zM75 79h1v1h-1zM37 86h1v1h-1z" /><path fill="#8fd6fb" d="M38 13h1v1h-1zM81 24h1v1h-1zM15 26h1v1h-1zM61 26h1v1h-1zM75 33h1v1h-1zM80 35h1v1h-1zM23 37h1v1h-1zM23 63h1v1h-1zM80 65h1v1h-1zM15 73h1v1h-1zM60 73h1v1h-1zM81 75h1v1h-1zM45 76h1v1h-1zM38 86h1v1h-1z" /><path fill="#9adafb" d="M62 13h1v1h-1zM39 26h1v1h-1zM85 26h1v1h-1zM20 35h1v1h-1zM62 86h1v1h-1z" /><path fill="#d2effd" d="M63 13h1v1h-1zM19 23h1v1h-1zM56 24h1v1h-1zM40 26h1v1h-1zM65 29h1v1h-1zM14 31h1v1h-1zM25 66h1v1h-1zM19 76h1v1h-1zM63 86h1v1h-1z" /><path fill="#feffff" d="M64 13h1v1h-1zM71 17h1v1h-1zM25 19h1v1h-1zM41 26h1v1h-1zM86 28h1v1h-1zM11 29h1v1h-1zM88 29h1v1h-1zM17 30h1v1h-1zM15 31h1v1h-1zM15 69h1v1h-1zM11 71h1v1h-1zM88 71h1v1h-1zM86 72h1v1h-1zM13 73h1v1h-1zM54 75h1v1h-1zM25 80h1v1h-1zM64 86h1v1h-1z" /><path fill="#fbfdff" d="M34 14h1v1h-1zM39 27h1v1h-1zM66 30h1v1h-1zM83 68h1v1h-1zM34 85h1v1h-1z" /><path fill="#caecfd" d="M35 14h1v1h-1zM11 30h1v1h-1zM67 30h1v1h-1zM29 32h1v1h-1zM84 32h1v1h-1zM78 68h1v1h-1zM84 68h1v1h-1zM39 72h1v1h-1zM57 74h1v1h-1zM77 78h1v1h-1zM35 85h1v1h-1z" /><path fill="#94d8fb" d="M36 14h1v1h-1zM37 27h1v1h-1zM68 30h1v1h-1zM85 32h1v1h-1zM58 74h1v1h-1zM36 85h1v1h-1z" /><path fill="#a5defc" d="M64 14h1v1h-1zM15 32h1v1h-1zM63 71h1v1h-1zM42 74h1v1h-1zM64 85h1v1h-1z" /><path fill="#e4f5fe" d="M65 14h1v1h-1zM16 32h1v1h-1zM16 68h1v1h-1zM16 71h1v1h-1zM65 85h1v1h-1z" /><path fill="#d9f1fe" d="M33 15h1v1h-1zM79 22h1v1h-1zM54 23h1v1h-1zM42 25h1v1h-1zM80 31h1v1h-1zM74 34h1v1h-1zM32 68h1v1h-1zM64 70h1v1h-1zM33 84h1v1h-1z" /><path fill="#9cdbfb" d="M34 15h1v1h-1zM83 33h1v1h-1zM83 67h1v1h-1zM34 84h1v1h-1z" /><path fill="#f0fafe" d="M67 15h1v1h-1zM46 23h1v1h-1zM36 70h1v1h-1zM67 84h1v1h-1z" /><path fill="#e7f6fe" d="M31 16h1v1h-1zM23 36h1v1h-1zM24 37h1v1h-1zM24 63h1v1h-1zM87 70h1v1h-1zM31 83h1v1h-1z" /><path fill="#a8dffc" d="M32 16h1v1h-1zM53 22h1v1h-1zM73 33h1v1h-1zM32 83h1v1h-1z" /><path fill="#91d7fb" d="M67 16h1v1h-1zM22 22h1v1h-1zM46 22h1v1h-1zM21 31h1v1h-1zM26 33h1v1h-1zM21 69h1v1h-1zM36 71h1v1h-1zM82 71h1v1h-1zM67 83h1v1h-1z" /><path fill="#f8fdff" d="M69 16h1v1h-1zM13 70h1v1h-1zM69 83h1v1h-1z" /><path fill="#96d9fb" d="M69 17h1v1h-1zM76 21h1v1h-1zM84 28h1v1h-1zM28 32h1v1h-1zM77 68h1v1h-1zM13 69h1v1h-1zM38 72h1v1h-1zM76 78h1v1h-1zM69 82h1v1h-1z" /><path fill="#92d7fb" d="M29 18h1v1h-1zM59 25h1v1h-1zM14 27h1v1h-1zM18 66h1v1h-1zM69 68h1v1h-1zM29 81h1v1h-1z" /><path fill="#a0ddfc" d="M71 18h1v1h-1zM41 25h1v1h-1z" /><path fill="#def3fe" d="M72 18h1v1h-1zM80 69h1v1h-1zM72 81h1v1h-1z" /><path fill="#98dafb" d="M27 19h1v1h-1zM19 30h1v1h-1zM27 80h1v1h-1z" /><path fill="#ebf8fe" d="M74 19h1v1h-1zM82 30h1v1h-1zM75 66h1v1h-1zM45 75h1v1h-1zM74 80h1v1h-1z" /><path fill="#a3defc" d="M25 20h1v1h-1zM86 27h1v1h-1z" /><path fill="#f6fcff" d="M76 20h1v1h-1zM13 26h1v1h-1zM68 31h1v1h-1zM77 67h1v1h-1zM53 92h1v1h-1z" /><path fill="#edf9fe" d="M22 21h1v1h-1zM87 27h1v1h-1zM60 72h1v1h-1zM45 91h1v1h-1z" /><path fill="#afe2fc" d="M23 21h1v1h-1zM22 32h1v1h-1z" /><path fill="#aee2fc" d="M48 21h1v1h-1zM16 25h1v1h-1z" /><path fill="#eaf7fe" d="M51 21h1v1h-1zM81 23h1v1h-1zM81 76h1v1h-1z" /><path fill="#cdedfd" d="M77 21h1v1h-1z" /><path fill="#f8fcff" d="M48 22h1v1h-1zM84 29h1v1h-1zM19 31h1v1h-1zM28 33h1v1h-1z" /><path fill="#97d9fb" d="M20 23h1v1h-1zM57 24h1v1h-1zM26 66h1v1h-1zM29 67h1v1h-1zM84 72h1v1h-1zM20 76h1v1h-1z" /><path fill="#abe0fc" d="M80 23h1v1h-1zM80 76h1v1h-1z" /><path fill="#a1ddfc" d="M18 24h1v1h-1zM24 33h1v1h-1zM18 75h1v1h-1z" /><path fill="#e6f0f8" d="M49 24h1v1h-1zM33 39h1v1h-1zM66 42h1v1h-1z" /><path fill="#b6d4eb" d="M50 24h1v1h-1zM56 48h1v1h-1z" /><path fill="#f4fbff" d="M83 24h1v1h-1zM37 28h1v1h-1zM27 65h1v1h-1zM78 65h1v1h-1zM83 75h1v1h-1zM47 76h1v1h-1z" /><path fill="#ecf8fe" d="M15 25h1v1h-1zM73 65h1v1h-1z" /><path fill="#f4f9fc" d="M47 25h1v1h-1z" /><path fill="#8dbbdf" d="M48 25h1v1h-1zM68 34h1v1h-1zM39 42h1v1h-1zM65 43h1v1h-1zM52 47h1v1h-1zM45 49h1v1h-1z" /><path fill="#247dc2" d="M49 25h1v1h-1zM66 43h1v1h-1zM37 45h1v1h-1z" /><path fill="#1c78c0" d="M50 25h1v1h-1zM48 26h5v1h-5zM46 27h8v1h-8zM44 28h12v1h-12zM43 29h15v1h-15zM41 30h19v1h-19zM39 31h23v1h-23zM37 32h27v1h-27zM35 33h30v1h-30zM33 34h34v1h-34zM32 35h37v1h-37zM30 36h40v1h-40zM32 37h36v1h-36zM34 38h33v1h-33zM36 39h29v1h-29zM28 40h1v1h-1zM37 40h26v1h-26zM72 40h1v1h-1zM28 41h2v1h-2zM39 41h23v1h-23zM70 41h3v1h-3zM28 42h4v1h-4zM41 42h19v1h-19zM69 42h4v1h-4zM28 43h6v1h-6zM42 43h16v1h-16zM67 43h6v1h-6zM28 44h8v1h-8zM44 44h12v1h-12zM65 44h8v1h-8zM28 45h9v1h-9zM46 45h9v1h-9zM63 45h10v1h-10zM28 46h11v1h-11zM48 46h5v1h-5zM62 46h11v1h-11zM28 47h13v1h-13zM49 47h2v1h-2zM60 47h13v1h-13zM28 48h14v1h-14zM58 48h15v1h-15zM28 49h16v1h-16zM56 49h17v1h-17zM28 50h18v1h-18zM55 50h18v1h-18zM28 51h20v1h-20zM53 51h20v1h-20zM28 52h20v1h-20zM52 52h21v1h-21zM28 53h20v1h-20zM52 53h21v1h-21zM28 54h20v1h-20zM52 54h21v1h-21zM28 55h20v1h-20zM52 55h21v1h-21zM28 56h20v1h-20zM52 56h21v1h-21zM28 57h20v1h-20zM52 57h21v1h-21zM28 58h20v1h-20zM52 58h21v1h-21zM28 59h20v1h-20zM52 59h21v1h-21zM28 60h20v1h-20zM52 60h21v1h-21zM28 61h20v1h-20zM52 61h21v1h-21zM29 62h19v1h-19zM52 62h20v1h-20zM31 63h17v1h-17zM52 63h18v1h-18zM33 64h15v1h-15zM52 64h16v1h-16zM34 65h14v1h-14zM52 65h14v1h-14zM36 66h12v1h-12zM52 66h12v1h-12zM38 67h10v1h-10zM52 67h11v1h-11zM40 68h8v1h-8zM52 68h9v1h-9zM42 69h6v1h-6zM52 69h7v1h-7zM43 70h5v1h-5zM52 70h5v1h-5zM45 71h3v1h-3zM52 71h3v1h-3zM47 72h1v1h-1zM52 72h1v1h-1z" /><path fill="#428fcb" d="M51 25h1v1h-1z" /><path fill="#bdd8ed" d="M52 25h1v1h-1z" /><path fill="#fbfcfe" d="M45 26h1v1h-1zM48 74h1v1h-1zM51 74h1v1h-1z" /><path fill="#a4c9e6" d="M46 26h1v1h-1zM70 35h1v1h-1zM44 45h1v1h-1zM40 46h1v1h-1zM36 67h1v1h-1zM60 69h1v1h-1z" /><path fill="#3084c6" d="M47 26h1v1h-1zM71 40h1v1h-1z" /><path fill="#599cd1" d="M53 26h1v1h-1zM29 40h1v1h-1zM48 52h1v1h-1zM48 53h1v1h-1zM48 54h1v1h-1zM48 55h1v1h-1zM48 56h1v1h-1zM48 57h1v1h-1zM48 58h1v1h-1zM48 59h1v1h-1zM48 60h1v1h-1zM48 61h1v1h-1zM48 62h1v1h-1zM48 63h1v1h-1zM48 64h1v1h-1zM48 65h1v1h-1zM48 66h1v1h-1zM48 67h1v1h-1zM63 67h1v1h-1zM48 68h1v1h-1zM48 69h1v1h-1zM48 70h1v1h-1zM48 71h1v1h-1zM48 72h1v1h-1z" /><path fill="#d5e6f3" d="M54 26h1v1h-1z" /><path fill="#c9ecfd" d="M13 27h1v1h-1zM11 70h1v1h-1z" /><path fill="#c8ebfd" d="M38 27h1v1h-1zM19 34h1v1h-1z" /><path fill="#bad6ec" d="M44 27h1v1h-1zM30 37h1v1h-1z" /><path fill="#3d8cc9" d="M45 27h1v1h-1z" /><path fill="#1e79c0" d="M54 27h1v1h-1zM61 46h1v1h-1zM42 48h1v1h-1zM64 66h1v1h-1z" /><path fill="#68a5d5" d="M55 27h1v1h-1zM41 29h1v1h-1zM69 37h1v1h-1zM41 43h1v1h-1zM42 70h1v1h-1zM54 72h1v1h-1z" /><path fill="#e3eff7" d="M56 27h1v1h-1z" /><path fill="#cfe2f2" d="M42 28h1v1h-1z" /><path fill="#5298cf" d="M43 28h1v1h-1z" /><path fill="#257dc2" d="M56 28h1v1h-1zM66 65h1v1h-1z" /><path fill="#86b7dd" d="M57 28h1v1h-1zM39 30h1v1h-1zM38 45h1v1h-1zM29 63h1v1h-1zM67 65h1v1h-1z" /><path fill="#f3f8fc" d="M58 28h1v1h-1zM65 40h1v1h-1zM39 45h1v1h-1zM68 65h1v1h-1z" /><path fill="#a2ddfc" d="M64 28h1v1h-1zM17 29h1v1h-1zM24 67h1v1h-1zM54 76h1v1h-1zM25 79h1v1h-1z" /><path fill="#e2f5fe" d="M16 29h1v1h-1zM43 74h1v1h-1z" /><path fill="#b1e3fc" d="M34 29h1v1h-1z" /><path fill="#deebf6" d="M40 29h1v1h-1z" /><path fill="#1d79c0" d="M42 29h1v1h-1zM68 37h1v1h-1zM35 39h1v1h-1zM68 42h1v1h-1zM32 64h1v1h-1zM53 72h1v1h-1z" /><path fill="#2e83c5" d="M58 29h1v1h-1zM68 64h1v1h-1z" /><path fill="#95c0e2" d="M59 29h1v1h-1zM37 31h1v1h-1zM32 38h1v1h-1zM38 68h1v1h-1zM58 70h1v1h-1z" /><path fill="#fafcfe" d="M60 29h1v1h-1zM57 47h1v1h-1zM46 73h1v1h-1z" /><path fill="#99dafb" d="M66 29h1v1h-1zM13 31h1v1h-1zM19 70h1v1h-1zM56 75h1v1h-1z" /><path fill="#f9fdff" d="M13 30h1v1h-1zM29 66h1v1h-1zM84 71h1v1h-1z" /><path fill="#a5dffc" d="M32 30h1v1h-1z" /><path fill="#e3f5fe" d="M33 30h1v1h-1z" /><path fill="#eef5fa" d="M38 30h1v1h-1z" /><path fill="#227cc2" d="M40 30h1v1h-1zM30 63h1v1h-1z" /><path fill="#3e8cc9" d="M60 30h1v1h-1z" /><path fill="#b3d2ea" d="M61 30h1v1h-1zM35 32h1v1h-1zM63 44h1v1h-1zM54 46h1v1h-1zM71 63h1v1h-1zM45 72h1v1h-1z" /><path fill="#fefeff" d="M62 30h1v1h-1zM67 39h1v1h-1zM36 41h1v1h-1zM62 44h1v1h-1zM44 72h1v1h-1z" /><path fill="#c7ebfd" d="M11 31h1v1h-1zM11 32h1v1h-1zM11 33h1v1h-1zM11 34h1v1h-1zM11 35h1v1h-1zM11 36h1v1h-1zM11 37h1v1h-1zM11 38h1v1h-1zM11 39h1v1h-1zM11 40h1v1h-1zM11 41h1v1h-1zM11 42h1v1h-1zM11 43h1v1h-1zM11 44h1v1h-1zM11 45h1v1h-1zM11 46h1v1h-1zM11 47h1v1h-1zM11 48h1v1h-1zM11 49h1v1h-1zM11 50h1v1h-1zM11 51h1v1h-1zM11 52h1v1h-1zM11 53h1v1h-1zM11 54h1v1h-1zM11 55h1v1h-1zM11 56h1v1h-1zM11 57h1v1h-1zM11 58h1v1h-1zM11 59h1v1h-1zM11 60h1v1h-1zM11 61h1v1h-1zM11 62h1v1h-1zM11 63h1v1h-1zM11 64h1v1h-1zM11 65h1v1h-1zM11 66h1v1h-1zM11 67h1v1h-1zM11 68h1v1h-1zM11 69h1v1h-1z" /><path fill="#f7fafd" d="M36 31h1v1h-1zM69 34h1v1h-1zM31 38h1v1h-1z" /><path fill="#2980c4" d="M38 31h1v1h-1zM28 62h1v1h-1z" /><path fill="#4e96ce" d="M62 31h1v1h-1z" /><path fill="#cadff0" d="M63 31h1v1h-1z" /><path fill="#fcfeff" d="M30 32h1v1h-1zM79 32h1v1h-1zM24 34h1v1h-1zM79 68h1v1h-1zM65 69h1v1h-1zM78 78h1v1h-1z" /><path fill="#3889c8" d="M36 32h1v1h-1z" /><path fill="#60a0d3" d="M64 32h1v1h-1zM32 34h1v1h-1zM62 41h1v1h-1zM36 44h1v1h-1z" /><path fill="#dfecf6" d="M65 32h1v1h-1zM40 43h1v1h-1z" /><path fill="#f1faff" d="M18 33h1v1h-1zM60 88h1v1h-1z" /><path fill="#c2dbee" d="M33 33h1v1h-1zM34 66h1v1h-1z" /><path fill="#4791cc" d="M34 33h1v1h-1zM69 41h1v1h-1z" /><path fill="#207bc1" d="M65 33h1v1h-1zM30 41h1v1h-1zM55 71h1v1h-1z" /><path fill="#77aed9" d="M66 33h1v1h-1zM30 35h1v1h-1zM57 44h1v1h-1zM60 46h1v1h-1zM40 69h1v1h-1zM56 71h1v1h-1z" /><path fill="#ebf3fa" d="M67 33h1v1h-1z" /><path fill="#d3effd" d="M25 34h1v1h-1z" /><path fill="#dae9f5" d="M31 34h1v1h-1zM41 70h1v1h-1z" /><path fill="#277ec3" d="M67 34h1v1h-1z" /><path fill="#a9e0fc" d="M81 34h1v1h-1zM81 66h1v1h-1zM52 77h1v1h-1z" /><path fill="#e7f1f8" d="M29 35h1v1h-1z" /><path fill="#1f7ac1" d="M31 35h1v1h-1zM41 69h1v1h-1z" /><path fill="#3587c7" d="M69 35h1v1h-1z" /><path fill="#fcfdfe" d="M71 35h1v1h-1zM34 42h1v1h-1z" /><path fill="#a6dffc" d="M22 36h1v1h-1zM22 64h1v1h-1zM88 70h1v1h-1z" /><path fill="#f8fbfd" d="M28 36h1v1h-1zM46 49h1v1h-1zM59 70h1v1h-1z" /><path fill="#5b9ed2" d="M29 36h1v1h-1z" /><path fill="#267ec3" d="M70 36h1v1h-1zM51 47h1v1h-1zM44 49h1v1h-1z" /><path fill="#b7d4eb" d="M71 36h1v1h-1z" /><path fill="#95d8fb" d="M78 36h1v1h-1zM78 64h1v1h-1z" /><path fill="#3989c8" d="M31 37h1v1h-1z" /><path fill="#e4eff8" d="M70 37h1v1h-1zM30 64h1v1h-1z" /><path fill="#b2e3fc" d="M76 37h1v1h-1zM76 63h1v1h-1z" /><path fill="#e2f4fe" d="M24 38h1v1h-1zM24 39h1v1h-1zM24 40h1v1h-1zM24 41h1v1h-1zM24 42h1v1h-1zM24 43h1v1h-1zM24 44h1v1h-1zM24 45h1v1h-1zM24 46h1v1h-1zM24 47h1v1h-1zM24 48h1v1h-1zM24 49h1v1h-1zM24 50h1v1h-1zM24 51h1v1h-1zM24 52h1v1h-1zM24 53h1v1h-1zM24 54h1v1h-1zM24 55h1v1h-1zM24 56h1v1h-1zM24 57h1v1h-1zM24 58h1v1h-1zM24 59h1v1h-1zM24 60h1v1h-1zM24 61h1v1h-1zM24 62h1v1h-1zM62 71h1v1h-1z" /><path fill="#287fc3" d="M33 38h1v1h-1zM59 47h1v1h-1zM39 68h1v1h-1z" /><path fill="#4a94cd" d="M67 38h1v1h-1z" /><path fill="#cae0f0" d="M68 38h1v1h-1zM53 73h1v1h-1z" /><path fill="#88b8de" d="M27 39h1v1h-1z" /><path fill="#bfd9ed" d="M28 39h1v1h-1zM61 42h1v1h-1z" /><path fill="#6ba7d6" d="M34 39h1v1h-1z" /><path fill="#3386c6" d="M65 39h1v1h-1zM39 46h1v1h-1z" /><path fill="#abcde8" d="M66 39h1v1h-1zM70 40h1v1h-1zM37 41h1v1h-1zM47 50h1v1h-1z" /><path fill="#f1f7fb" d="M71 39h1v1h-1z" /><path fill="#81b4dc" d="M72 39h1v1h-1z" /><path fill="#d4e6f3" d="M73 39h1v1h-1z" /><path fill="#64a3d4" d="M27 40h1v1h-1zM27 41h1v1h-1zM27 42h1v1h-1zM27 43h1v1h-1zM27 44h1v1h-1zM27 45h1v1h-1zM27 46h1v1h-1zM27 47h1v1h-1zM27 48h1v1h-1zM27 49h1v1h-1zM27 50h1v1h-1zM27 51h1v1h-1zM27 52h1v1h-1zM27 53h1v1h-1zM27 54h1v1h-1zM27 55h1v1h-1zM27 56h1v1h-1zM27 57h1v1h-1zM27 58h1v1h-1zM27 59h1v1h-1zM27 60h1v1h-1zM27 61h1v1h-1z" /><path fill="#d9e8f4" d="M30 40h1v1h-1z" /><path fill="#d0e3f2" d="M35 40h1v1h-1zM73 40h1v1h-1zM73 41h1v1h-1zM73 42h1v1h-1zM73 43h1v1h-1zM73 44h1v1h-1zM73 45h1v1h-1zM73 46h1v1h-1zM73 47h1v1h-1zM73 48h1v1h-1zM73 49h1v1h-1zM73 50h1v1h-1zM73 51h1v1h-1zM51 52h1v1h-1zM73 52h1v1h-1zM51 53h1v1h-1zM73 53h1v1h-1zM51 54h1v1h-1zM73 54h1v1h-1zM51 55h1v1h-1zM73 55h1v1h-1zM51 56h1v1h-1zM73 56h1v1h-1zM51 57h1v1h-1zM73 57h1v1h-1zM51 58h1v1h-1zM73 58h1v1h-1zM51 59h1v1h-1zM73 59h1v1h-1zM51 60h1v1h-1zM73 60h1v1h-1zM51 61h1v1h-1zM73 61h1v1h-1zM51 62h1v1h-1zM51 63h1v1h-1zM51 64h1v1h-1zM32 65h1v1h-1zM51 65h1v1h-1zM51 66h1v1h-1zM51 67h1v1h-1zM51 68h1v1h-1zM51 69h1v1h-1zM51 70h1v1h-1zM51 71h1v1h-1zM51 72h1v1h-1zM51 73h1v1h-1z" /><path fill="#4f96ce" d="M36 40h1v1h-1zM52 73h1v1h-1z" /><path fill="#217bc1" d="M63 40h1v1h-1z" /><path fill="#7eb2db" d="M64 40h1v1h-1zM31 41h1v1h-1zM46 46h1v1h-1zM53 50h1v1h-1z" /><path fill="#f2f7fb" d="M32 41h1v1h-1z" /><path fill="#3185c6" d="M38 41h1v1h-1zM37 67h1v1h-1z" /><path fill="#e1edf7" d="M63 41h1v1h-1z" /><path fill="#c7deef" d="M68 41h1v1h-1z" /><path fill="#2d82c5" d="M32 42h1v1h-1z" /><path fill="#9cc4e4" d="M33 42h1v1h-1zM59 43h1v1h-1zM58 47h1v1h-1zM69 64h1v1h-1zM47 73h1v1h-1z" /><path fill="#f5f9fc" d="M38 42h1v1h-1zM37 68h1v1h-1z" /><path fill="#237cc2" d="M40 42h1v1h-1z" /><path fill="#408dca" d="M60 42h1v1h-1z" /><path fill="#6fa9d7" d="M67 42h1v1h-1zM31 64h1v1h-1zM65 66h1v1h-1z" /><path fill="#4892cc" d="M34 43h1v1h-1z" /><path fill="#c8def0" d="M35 43h1v1h-1z" /><path fill="#2c82c4" d="M58 43h1v1h-1z" /><path fill="#fbfdfe" d="M60 43h1v1h-1zM43 45h1v1h-1zM70 64h1v1h-1zM35 67h1v1h-1z" /><path fill="#f6fafd" d="M64 43h1v1h-1z" /><path fill="#e2eef7" d="M37 44h1v1h-1z" /><path fill="#c4dcef" d="M42 44h1v1h-1z" /><path fill="#4590cb" d="M43 44h1v1h-1z" /><path fill="#207ac1" d="M56 44h1v1h-1zM47 46h1v1h-1zM54 50h1v1h-1z" /><path fill="#edf4fa" d="M58 44h1v1h-1z" /><path fill="#3888c8" d="M64 44h1v1h-1z" /><path fill="#2f83c5" d="M45 45h1v1h-1z" /><path fill="#589bd1" d="M55 45h1v1h-1z" /><path fill="#d8e8f4" d="M56 45h1v1h-1z" /><path fill="#d2e4f2" d="M61 45h1v1h-1z" /><path fill="#5197cf" d="M62 45h1v1h-1z" /><path fill="#f0f6fb" d="M45 46h1v1h-1z" /><path fill="#3c8bc9" d="M53 46h1v1h-1z" /><path fill="#e9f2f9" d="M59 46h1v1h-1zM44 48h1v1h-1zM66 66h1v1h-1z" /><path fill="#4b94cd" d="M41 47h1v1h-1z" /><path fill="#cbe0f1" d="M42 47h1v1h-1z" /><path fill="#dceaf5" d="M47 47h1v1h-1z" /><path fill="#5e9fd2" d="M48 47h1v1h-1z" /><path fill="#f9fbfd" d="M53 47h1v1h-1z" /><path fill="#71abd8" d="M43 48h1v1h-1z" /><path fill="#b8d5eb" d="M49 48h1v1h-1z" /><path fill="#7db2db" d="M50 48h1v1h-1z" /><path fill="#ebf3f9" d="M51 48h1v1h-1zM73 62h1v1h-1z" /><path fill="#3a8ac8" d="M57 48h1v1h-1zM46 72h1v1h-1z" /><path fill="#dbeaf5" d="M54 49h1v1h-1z" /><path fill="#5c9ed2" d="M55 49h1v1h-1z" /><path fill="#3687c7" d="M46 50h1v1h-1zM59 69h1v1h-1z" /><path fill="#eff5fb" d="M52 50h1v1h-1zM28 63h1v1h-1z" /><path fill="#78afd9" d="M48 51h1v1h-1z" /><path fill="#e0ecf6" d="M51 51h1v1h-1zM55 72h1v1h-1z" /><path fill="#2b81c4" d="M52 51h1v1h-1zM57 70h1v1h-1z" /><path fill="#a9cce7" d="M27 62h1v1h-1z" /><path fill="#5399cf" d="M72 62h1v1h-1z" /><path fill="#3f8dca" d="M70 63h1v1h-1z" /><path fill="#d8f1fe" d="M21 65h1v1h-1zM41 73h1v1h-1z" /><path fill="#5499d0" d="M33 65h1v1h-1z" /><path fill="#b9e6fd" d="M79 65h1v1h-1z" /><path fill="#438fcb" d="M35 66h1v1h-1z" /><path fill="#abe1fc" d="M74 66h1v1h-1z" /><path fill="#f1fafe" d="M18 67h1v1h-1z" /><path fill="#d6e7f4" d="M64 67h1v1h-1z" /><path fill="#a4defc" d="M15 68h1v1h-1zM17 71h1v1h-1z" /><path fill="#eff9fe" d="M21 68h1v1h-1z" /><path fill="#a0dcfc" d="M31 68h1v1h-1zM71 81h1v1h-1z" /><path fill="#4993cd" d="M61 68h1v1h-1z" /><path fill="#c5ddef" d="M62 68h1v1h-1z" /><path fill="#e5f6fe" d="M34 69h1v1h-1z" /><path fill="#e8f1f9" d="M39 69h1v1h-1z" /><path fill="#9fdcfc" d="M79 69h1v1h-1zM78 77h1v1h-1z" /><path fill="#f3faff" d="M85 69h1v1h-1z" /><path fill="#9ddbfc" d="M65 70h1v1h-1zM40 73h1v1h-1z" /><path fill="#edf8fe" d="M82 70h1v1h-1z" /><path fill="#c1e9fd" d="M37 71h1v1h-1z" /><path fill="#c3dcee" d="M43 71h1v1h-1z" /><path fill="#4992cc" d="M44 71h1v1h-1z" /><path fill="#ecf4fa" d="M57 71h1v1h-1z" /><path fill="#bde7fd" d="M14 73h1v1h-1zM21 77h1v1h-1zM52 92h1v1h-1z" /><path fill="#67a4d5" d="M48 73h1v1h-1z" /><path fill="#bae6fd" d="M59 73h1v1h-1z" /><path fill="#d0eefd" d="M48 77h1v1h-1z" /><path fill="#dcf2fe" d="M79 77h1v1h-1z" /><path fill="#dff3fe" d="M47 92h1v1h-1z" /><path fill="#bee8fd" d="M48 92h1v1h-1z" /></svg>