<svg xmlns="http://www.w3.org/2000/svg" viewBox="0 0 100 100" width="1em" height="1em"><path fill="#f27f20" d="M58 10h8v1h-8zM14 12h7v1h-7zM9 17h4v1h-4zM22 17h4v1h-4zM41 26h1v1h-1zM50 35h1v1h-1zM74 35h1v1h-1zM95 40h1v1h-1zM76 41h1v1h-1zM95 41h1v1h-1zM95 42h1v1h-1zM95 43h1v1h-1zM95 44h1v1h-1zM95 45h1v1h-1zM95 46h1v1h-1zM95 47h1v1h-1zM69 56h1v1h-1zM4 74h1v1h-1zM4 75h1v1h-1zM4 76h1v1h-1zM4 77h1v1h-1zM4 78h1v1h-1zM4 79h1v1h-1zM4 80h1v1h-1z" /><path fill="#f38020" d="M58 11h8v1h-8zM58 12h9v1h-9zM14 13h7v1h-7zM58 13h8v1h-8zM14 14h7v1h-7zM58 14h8v1h-8zM14 15h7v1h-7zM58 15h8v1h-8zM14 16h7v1h-7zM58 16h8v1h-8zM14 17h8v1h-8zM58 17h9v1h-9zM9 18h17v1h-17zM58 18h8v1h-8zM9 19h17v1h-17zM58 19h8v1h-8zM9 20h17v1h-17zM58 20h8v1h-8zM9 21h17v1h-17zM58 21h8v1h-8zM9 22h17v1h-17zM45 22h1v1h-1zM58 22h8v1h-8zM9 23h17v1h-17zM44 23h3v1h-3zM58 23h8v1h-8zM77 23h2v1h-2zM9 24h17v1h-17zM43 24h5v1h-5zM58 24h8v1h-8zM76 24h4v1h-4zM14 25h7v1h-7zM42 25h7v1h-7zM58 25h8v1h-8zM75 25h6v1h-6zM14 26h7v1h-7zM42 26h8v1h-8zM58 26h8v1h-8zM74 26h8v1h-8zM14 27h7v1h-7zM40 27h11v1h-11zM58 27h8v1h-8zM73 27h10v1h-10zM14 28h7v1h-7zM41 28h11v1h-11zM58 28h8v1h-8zM72 28h11v1h-11zM14 29h7v1h-7zM42 29h11v1h-11zM71 29h11v1h-11zM43 30h11v1h-11zM69 30h12v1h-12zM44 31h10v1h-10zM71 31h9v1h-9zM45 32h8v1h-8zM72 32h7v1h-7zM46 33h7v1h-7zM73 33h5v1h-5zM47 34h4v1h-4zM74 34h3v1h-3zM48 35h2v1h-2zM75 35h1v1h-1zM29 40h19v1h-19zM77 40h18v1h-18zM29 41h19v1h-19zM77 41h18v1h-18zM29 42h19v1h-19zM77 42h18v1h-18zM29 43h19v1h-19zM77 43h18v1h-18zM29 44h19v1h-19zM77 44h18v1h-18zM29 45h19v1h-19zM77 45h18v1h-18zM29 46h19v1h-19zM77 46h18v1h-18zM29 47h19v1h-19zM77 47h18v1h-18zM75 51h1v1h-1zM48 52h2v1h-2zM74 52h3v1h-3zM47 53h4v1h-4zM73 53h5v1h-5zM46 54h6v1h-6zM72 54h7v1h-7zM45 55h8v1h-8zM70 55h10v1h-10zM44 56h10v1h-10zM70 56h10v1h-10zM43 57h11v1h-11zM70 57h11v1h-11zM42 58h11v1h-11zM58 58h8v1h-8zM71 58h12v1h-12zM41 59h11v1h-11zM58 59h8v1h-8zM72 59h11v1h-11zM40 60h11v1h-11zM58 60h8v1h-8zM73 60h10v1h-10zM41 61h9v1h-9zM58 61h8v1h-8zM74 61h8v1h-8zM42 62h7v1h-7zM58 62h8v1h-8zM75 62h6v1h-6zM43 63h5v1h-5zM58 63h8v1h-8zM76 63h4v1h-4zM45 64h2v1h-2zM58 64h8v1h-8zM77 64h3v1h-3zM14 65h7v1h-7zM45 65h1v1h-1zM58 65h8v1h-8zM14 66h7v1h-7zM58 66h8v1h-8zM14 67h7v1h-7zM58 67h8v1h-8zM14 68h7v1h-7zM58 68h8v1h-8zM14 69h7v1h-7zM58 69h8v1h-8zM14 70h7v1h-7zM58 70h8v1h-8zM14 71h7v1h-7zM58 71h8v1h-8zM14 72h7v1h-7zM58 72h8v1h-8zM13 73h8v1h-8zM58 73h8v1h-8zM5 74h25v1h-25zM58 74h8v1h-8zM5 75h25v1h-25zM58 75h8v1h-8zM5 76h25v1h-25zM58 76h8v1h-8zM5 77h25v1h-25zM5 78h25v1h-25zM5 79h25v1h-25zM5 80h25v1h-25zM13 81h8v1h-8zM14 82h7v1h-7zM14 83h7v1h-7zM14 84h7v1h-7zM14 85h7v1h-7zM14 86h7v1h-7zM14 87h7v1h-7zM14 88h7v1h-7zM14 89h7v1h-7z" /><path fill="#f37f20" d="M66 11h1v1h-1zM66 13h1v1h-1zM66 14h1v1h-1zM66 15h1v1h-1zM66 16h1v1h-1zM13 17h1v1h-1zM66 18h1v1h-1zM66 19h1v1h-1zM66 20h1v1h-1zM66 21h1v1h-1zM46 22h1v1h-1zM66 22h1v1h-1zM47 23h1v1h-1zM66 23h1v1h-1zM48 24h1v1h-1zM66 24h1v1h-1zM49 25h1v1h-1zM66 25h1v1h-1zM50 26h1v1h-1zM66 26h1v1h-1zM51 27h1v1h-1zM66 27h1v1h-1zM52 28h1v1h-1zM66 28h1v1h-1zM83 28h1v1h-1zM53 29h1v1h-1zM54 30h1v1h-1zM80 31h1v1h-1zM79 32h1v1h-1zM78 33h1v1h-1zM73 34h1v1h-1zM77 34h1v1h-1zM76 35h1v1h-1zM49 51h1v1h-1zM47 52h1v1h-1zM46 53h1v1h-1zM72 53h1v1h-1zM45 54h1v1h-1zM71 54h1v1h-1zM44 55h1v1h-1zM80 56h1v1h-1zM81 57h1v1h-1zM41 58h1v1h-1zM53 58h1v1h-1zM66 58h1v1h-1zM66 59h1v1h-1zM83 59h1v1h-1zM51 60h1v1h-1zM66 60h1v1h-1zM50 61h1v1h-1zM66 61h1v1h-1zM49 62h1v1h-1zM66 62h1v1h-1zM48 63h1v1h-1zM66 63h1v1h-1zM66 64h1v1h-1zM46 65h1v1h-1zM66 65h1v1h-1zM66 66h1v1h-1zM66 67h1v1h-1zM66 68h1v1h-1zM66 69h1v1h-1zM66 70h1v1h-1zM66 71h1v1h-1zM66 72h1v1h-1zM66 73h1v1h-1zM30 74h1v1h-1zM66 74h1v1h-1zM30 75h1v1h-1zM66 75h1v1h-1zM30 76h1v1h-1zM66 76h1v1h-1zM30 77h1v1h-1zM30 78h1v1h-1zM30 79h1v1h-1zM30 80h1v1h-1z" /><path fill="#f37f1f" d="M13 12h1v1h-1zM13 13h1v1h-1zM13 14h1v1h-1zM13 15h1v1h-1zM13 16h1v1h-1zM8 18h1v1h-1zM8 19h1v1h-1zM8 20h1v1h-1zM8 21h1v1h-1zM8 22h1v1h-1zM8 23h1v1h-1zM8 24h1v1h-1zM21 25h1v1h-1zM13 26h1v1h-1zM13 27h1v1h-1zM13 28h1v1h-1zM13 29h1v1h-1zM82 29h1v1h-1zM81 30h1v1h-1zM53 32h1v1h-1zM74 51h1v1h-1zM14 64h7v1h-7zM44 64h1v1h-1zM13 65h1v1h-1zM13 66h1v1h-1zM13 67h1v1h-1zM13 68h1v1h-1zM13 69h1v1h-1zM13 70h1v1h-1zM13 71h1v1h-1zM13 72h1v1h-1zM5 73h8v1h-8zM22 73h8v1h-8zM5 81h8v1h-8zM22 81h8v1h-8zM13 82h1v1h-1zM13 83h1v1h-1zM13 84h1v1h-1zM13 85h1v1h-1zM13 86h1v1h-1zM13 87h1v1h-1zM13 88h1v1h-1zM13 89h1v1h-1zM14 90h7v1h-7z" /><path fill="#f28020" d="M8 17h1v1h-1zM51 34h1v1h-1zM76 40h1v1h-1zM76 42h1v1h-1zM53 55h1v1h-1zM54 56h1v1h-1z" /><path fill="#f2801f" d="M77 22h1v1h-1zM76 23h1v1h-1zM75 24h1v1h-1zM81 25h1v1h-1zM73 26h1v1h-1zM83 27h1v1h-1zM71 28h1v1h-1zM58 29h8v1h-8zM49 36h1v1h-1zM75 36h1v1h-1zM76 44h1v1h-1zM76 45h1v1h-1zM76 47h1v1h-1zM48 51h1v1h-1zM50 52h1v1h-1zM43 56h1v1h-1zM42 57h1v1h-1zM40 59h1v1h-1z" /><path fill="#f27f1f" d="M78 22h1v1h-1zM79 23h1v1h-1zM80 24h1v1h-1zM74 25h1v1h-1zM82 26h1v1h-1zM72 27h1v1h-1zM70 29h1v1h-1zM76 43h1v1h-1zM76 46h1v1h-1zM51 53h1v1h-1zM52 54h1v1h-1zM83 60h1v1h-1zM82 61h1v1h-1zM81 62h1v1h-1zM80 63h1v1h-1zM78 65h1v1h-1z" /><path fill="#f3801f" d="M13 25h1v1h-1zM54 31h1v1h-1zM70 31h1v1h-1zM71 32h1v1h-1zM72 33h1v1h-1zM29 39h19v1h-19zM77 39h18v1h-18zM73 52h1v1h-1zM54 57h1v1h-1zM52 59h1v1h-1zM47 64h1v1h-1zM21 73h1v1h-1zM21 81h1v1h-1z" /></svg>