<svg xmlns="http://www.w3.org/2000/svg" viewBox="0 0 100 100" width="1em" height="1em"><path fill="#3497da" d="M26 5h1v1h-1zM73 5h1v1h-1zM25 6h1v1h-1zM74 6h1v1h-1zM22 8h1v1h-1zM77 8h1v1h-1zM77 9h1v1h-1zM21 10h1v1h-1zM20 12h1v1h-1zM18 16h1v1h-1zM81 16h1v1h-1zM82 17h1v1h-1zM15 21h1v1h-1zM14 23h1v1h-1zM29 26h1v1h-1zM36 26h1v1h-1zM62 26h2v1h-2zM38 27h1v1h-1zM89 29h1v1h-1zM29 30h1v1h-1zM30 31h1v1h-1zM43 37h1v1h-1zM56 37h1v1h-1zM66 37h1v1h-1zM96 41h1v1h-1zM46 42h1v1h-1zM62 44h1v1h-1zM99 47h1v1h-1zM2 55h1v1h-1zM4 59h1v1h-1zM66 61h1v1h-1zM43 62h1v1h-1zM69 66h1v1h-1zM11 70h1v1h-1zM13 74h1v1h-1zM15 77h1v1h-1zM84 77h1v1h-1z" /><path fill="#3398db" d="M27 5h1v1h-1zM72 5h1v1h-1zM79 12h1v1h-1zM28 26h1v1h-1zM37 26h1v1h-1zM70 26h2v1h-2zM28 28h1v1h-1zM90 31h1v1h-1zM30 32h1v1h-1zM41 33h1v1h-1zM32 35h1v1h-1zM33 37h1v1h-1zM44 39h1v1h-1zM65 39h1v1h-1zM4 40h1v1h-1zM54 40h1v1h-1zM64 41h1v1h-1zM53 42h1v1h-1zM96 42h1v1h-1zM37 44h1v1h-1zM1 45h1v1h-1zM48 45h1v1h-1zM51 45h1v1h-1zM98 45h1v1h-1zM51 46h1v1h-1zM49 47h2v1h-2zM0 50h1v1h-1zM1 53h1v1h-1zM98 53h1v1h-1zM37 54h1v1h-1zM97 55h1v1h-1zM36 56h1v1h-1zM54 58h1v1h-1zM64 58h1v1h-1zM34 60h1v1h-1zM93 62h1v1h-1zM57 63h1v1h-1zM92 64h1v1h-1zM30 67h1v1h-1zM59 67h1v1h-1zM39 69h1v1h-1zM89 69h1v1h-1zM38 70h1v1h-1zM71 70h1v1h-1zM86 74h1v1h-1zM15 78h1v1h-1zM19 85h1v1h-1zM20 86h1v1h-1zM76 91h1v1h-1z" /><path fill="#3498db" d="M28 5h43v1h-43zM26 6h48v1h-48zM75 6h1v1h-1zM24 7h52v1h-52zM23 8h54v1h-54zM23 9h54v1h-54zM22 10h57v1h-57zM21 11h58v1h-58zM21 12h58v1h-58zM20 13h60v1h-60zM20 14h60v1h-60zM18 15h63v1h-63zM19 16h62v1h-62zM17 17h65v1h-65zM17 18h66v1h-66zM17 19h66v1h-66zM16 20h68v1h-68zM16 21h68v1h-68zM14 22h71v1h-71zM15 23h71v1h-71zM14 24h72v1h-72zM13 25h74v1h-74zM13 26h15v1h-15zM38 26h24v1h-24zM72 26h15v1h-15zM11 27h17v1h-17zM39 27h22v1h-22zM72 27h17v1h-17zM11 28h17v1h-17zM39 28h22v1h-22zM72 28h16v1h-16zM11 29h18v1h-18zM39 29h21v1h-21zM71 29h18v1h-18zM10 30h19v1h-19zM40 30h20v1h-20zM71 30h19v1h-19zM10 31h20v1h-20zM41 31h18v1h-18zM70 31h20v1h-20zM9 32h21v1h-21zM41 32h18v1h-18zM70 32h21v1h-21zM9 33h22v1h-22zM42 33h17v1h-17zM69 33h22v1h-22zM8 34h24v1h-24zM42 34h16v1h-16zM68 34h25v1h-25zM8 35h24v1h-24zM43 35h14v1h-14zM68 35h24v1h-24zM7 36h26v1h-26zM44 36h12v1h-12zM67 36h26v1h-26zM6 37h27v1h-27zM44 37h12v1h-12zM67 37h27v1h-27zM6 38h28v1h-28zM45 38h11v1h-11zM66 38h29v1h-29zM5 39h29v1h-29zM45 39h10v1h-10zM66 39h29v1h-29zM5 40h30v1h-30zM46 40h8v1h-8zM64 40h31v1h-31zM4 41h31v1h-31zM46 41h8v1h-8zM65 41h31v1h-31zM4 42h32v1h-32zM47 42h6v1h-6zM64 42h32v1h-32zM3 43h34v1h-34zM47 43h6v1h-6zM63 43h34v1h-34zM2 44h35v1h-35zM48 44h4v1h-4zM63 44h35v1h-35zM2 45h36v1h-36zM49 45h2v1h-2zM62 45h36v1h-36zM1 46h37v1h-37zM49 46h2v1h-2zM62 46h37v1h-37zM1 47h38v1h-38zM61 47h38v1h-38zM1 48h39v1h-39zM61 48h38v1h-38zM0 49h40v1h-40zM60 49h39v1h-39zM1 50h38v1h-38zM61 50h38v1h-38zM1 51h39v1h-39zM60 51h39v1h-39zM1 52h38v1h-38zM49 52h2v1h-2zM62 52h37v1h-37zM2 53h36v1h-36zM48 53h3v1h-3zM62 53h36v1h-36zM2 54h35v1h-35zM47 54h5v1h-5zM63 54h35v1h-35zM3 55h34v1h-34zM48 55h4v1h-4zM63 55h34v1h-34zM3 56h33v1h-33zM47 56h6v1h-6zM64 56h33v1h-33zM4 57h32v1h-32zM46 57h8v1h-8zM64 57h32v1h-32zM4 58h31v1h-31zM46 58h8v1h-8zM65 58h30v1h-30zM5 59h29v1h-29zM45 59h10v1h-10zM66 59h29v1h-29zM6 60h28v1h-28zM45 60h10v1h-10zM66 60h28v1h-28zM6 61h27v1h-27zM44 61h12v1h-12zM67 61h27v1h-27zM7 62h26v1h-26zM44 62h12v1h-12zM67 62h26v1h-26zM7 63h25v1h-25zM43 63h14v1h-14zM68 63h25v1h-25zM8 64h24v1h-24zM43 64h14v1h-14zM68 64h24v1h-24zM9 65h23v1h-23zM41 65h17v1h-17zM69 65h22v1h-22zM9 66h22v1h-22zM41 66h18v1h-18zM70 66h21v1h-21zM10 67h20v1h-20zM41 67h18v1h-18zM70 67h20v1h-20zM10 68h19v1h-19zM40 68h20v1h-20zM70 68h20v1h-20zM11 69h19v1h-19zM40 69h20v1h-20zM71 69h18v1h-18zM12 70h16v1h-16zM39 70h22v1h-22zM72 70h17v1h-17zM12 71h16v1h-16zM39 71h22v1h-22zM72 71h16v1h-16zM13 72h15v1h-15zM38 72h24v1h-24zM72 72h15v1h-15zM13 73h74v1h-74zM14 74h72v1h-72zM14 75h72v1h-72zM15 76h70v1h-70zM16 77h68v1h-68zM16 78h68v1h-68zM17 79h66v1h-66zM17 80h66v1h-66zM18 81h64v1h-64zM18 82h64v1h-64zM18 83h63v1h-63zM20 84h60v1h-60zM20 85h60v1h-60zM21 86h59v1h-59zM21 87h58v1h-58zM22 88h56v1h-56zM22 89h56v1h-56zM23 90h54v1h-54zM24 91h52v1h-52zM25 92h50v1h-50zM28 93h44v1h-44z" /><path fill="#3397db" d="M71 5h1v1h-1zM24 6h1v1h-1zM76 7h1v1h-1zM86 24h1v1h-1zM70 30h1v1h-1zM91 33h1v1h-1zM7 34h1v1h-1zM42 35h1v1h-1zM34 39h1v1h-1zM52 44h1v1h-1zM0 48h1v1h-1zM60 48h1v1h-1zM49 51h2v1h-2zM61 52h1v1h-1zM51 53h1v1h-1zM3 57h1v1h-1zM35 58h1v1h-1zM33 61h1v1h-1zM32 63h1v1h-1zM7 64h1v1h-1zM69 67h1v1h-1zM70 69h1v1h-1zM28 71h1v1h-1zM84 78h1v1h-1zM82 81h1v1h-1zM80 85h1v1h-1zM78 88h1v1h-1zM23 91h1v1h-1zM24 92h1v1h-1zM75 92h1v1h-1z" /><path fill="#3498da" d="M23 7h1v1h-1zM22 9h1v1h-1zM84 20h1v1h-1zM61 27h1v1h-1zM61 28h1v1h-1zM10 29h1v1h-1zM9 31h1v1h-1zM59 31h1v1h-1zM69 31h1v1h-1zM31 33h1v1h-1zM57 35h1v1h-1zM6 36h1v1h-1zM43 36h1v1h-1zM95 40h1v1h-1zM3 41h1v1h-1zM63 42h1v1h-1zM47 44h1v1h-1zM99 48h1v1h-1zM0 51h1v1h-1zM99 51h1v1h-1zM63 56h1v1h-1zM55 60h1v1h-1zM94 60h1v1h-1zM6 62h1v1h-1zM67 63h1v1h-1zM42 64h1v1h-1zM57 64h1v1h-1zM58 65h1v1h-1zM28 70h1v1h-1zM62 72h1v1h-1zM14 76h1v1h-1zM17 81h1v1h-1zM19 84h1v1h-1zM80 84h1v1h-1zM21 88h1v1h-1zM27 93h1v1h-1zM72 93h1v1h-1z" /><path fill="#3497db" d="M19 14h1v1h-1zM81 15h1v1h-1zM16 19h1v1h-1zM85 22h1v1h-1zM30 26h6v1h-6zM64 26h6v1h-6zM71 27h1v1h-1zM71 28h1v1h-1zM88 28h1v1h-1zM60 30h1v1h-1zM40 31h1v1h-1zM69 32h1v1h-1zM8 33h1v1h-1zM7 35h1v1h-1zM92 35h1v1h-1zM93 36h1v1h-1zM44 38h1v1h-1zM35 40h1v1h-1zM45 40h1v1h-1zM3 42h1v1h-1zM36 42h1v1h-1zM38 46h1v1h-1zM48 46h1v1h-1zM46 56h1v1h-1zM95 58h1v1h-1zM65 59h1v1h-1zM65 60h1v1h-1zM43 61h1v1h-1zM56 61h1v1h-1zM42 63h1v1h-1zM91 65h1v1h-1zM8 66h1v1h-1zM9 67h1v1h-1zM29 68h1v1h-1zM60 69h1v1h-1zM61 70h1v1h-1zM38 71h1v1h-1zM71 71h1v1h-1zM37 72h1v1h-1zM71 72h1v1h-1zM12 73h1v1h-1zM87 73h1v1h-1zM85 76h1v1h-1zM16 79h1v1h-1zM22 90h1v1h-1zM77 90h1v1h-1z" /><path fill="#3398da" d="M80 14h1v1h-1zM28 27h1v1h-1zM38 28h1v1h-1zM60 29h1v1h-1zM39 30h1v1h-1zM68 33h1v1h-1zM5 38h1v1h-1zM61 46h1v1h-1zM0 47h1v1h-1zM99 50h1v1h-1zM62 54h1v1h-1zM96 57h1v1h-1zM45 58h1v1h-1zM95 59h1v1h-1zM5 60h1v1h-1zM44 60h1v1h-1zM56 62h1v1h-1zM91 66h1v1h-1zM40 67h1v1h-1zM12 72h1v1h-1zM28 72h1v1h-1zM87 72h1v1h-1zM83 79h1v1h-1z" /><path fill="#3397da" d="M83 19h1v1h-1zM15 20h1v1h-1zM84 21h1v1h-1zM13 24h1v1h-1zM12 26h1v1h-1zM87 26h1v1h-1zM67 35h1v1h-1zM56 36h1v1h-1zM35 41h1v1h-1zM2 43h1v1h-1zM97 43h1v1h-1zM40 49h1v1h-1zM59 49h1v1h-1zM99 49h1v1h-1zM39 50h1v1h-1zM60 50h1v1h-1zM52 54h1v1h-1zM47 55h1v1h-1zM52 55h1v1h-1zM53 56h1v1h-1zM34 59h1v1h-1zM8 65h1v1h-1zM68 65h1v1h-1zM90 67h1v1h-1zM10 69h1v1h-1zM11 71h1v1h-1zM61 71h1v1h-1zM88 71h1v1h-1zM81 83h1v1h-1zM26 93h1v1h-1zM73 93h1v1h-1z" /></svg>