<svg xmlns="http://www.w3.org/2000/svg" viewBox="0 0 100 100" width="1em" height="1em"><path fill="#470136" d="M14 1h2v1h-2zM84 1h2v1h-2zM90 3h1v1h-1zM7 4h1v1h-1zM94 6h1v1h-1zM4 7h1v1h-1zM98 12h1v1h-1zM0 16h1v1h-1zM0 81h1v1h-1zM0 82h1v1h-1zM99 83h1v1h-1zM0 84h1v1h-1zM1 87h1v1h-1zM91 95h1v1h-1zM89 96h1v1h-1zM13 97h1v1h-1zM86 97h1v1h-1zM18 98h64v1h-64z" /><path fill="#460136" d="M16 1h1v1h-1zM83 1h1v1h-1zM88 2h1v1h-1zM9 3h1v1h-1zM92 4h1v1h-1zM5 6h1v1h-1zM95 7h1v1h-1zM3 8h1v1h-1zM2 10h1v1h-1zM1 12h1v1h-1zM99 15h1v1h-1zM0 18h1v1h-1zM99 18h1v1h-1zM98 86h1v1h-1zM4 92h1v1h-1zM95 92h1v1h-1zM7 94h1v1h-1zM92 94h1v1h-1zM10 96h1v1h-1z" /><path fill="#470137" d="M17 1h66v1h-66zM11 2h77v1h-77zM10 3h80v1h-80zM8 4h84v1h-84zM7 5h86v1h-86zM6 6h88v1h-88zM5 7h90v1h-90zM4 8h93v1h-93zM3 9h94v1h-94zM3 10h94v1h-94zM2 11h96v1h-96zM2 12h96v1h-96zM1 13h98v1h-98zM1 14h98v1h-98zM0 15h99v1h-99zM1 16h98v1h-98zM1 17h99v1h-99zM1 18h98v1h-98zM0 19h100v1h-100zM0 20h100v1h-100zM0 21h100v1h-100zM0 22h75v1h-75zM86 22h14v1h-14zM0 23h75v1h-75zM86 23h14v1h-14zM0 24h75v1h-75zM86 24h14v1h-14zM0 25h75v1h-75zM86 25h14v1h-14zM0 26h14v1h-14zM27 26h15v1h-15zM53 26h22v1h-22zM86 26h14v1h-14zM0 27h15v1h-15zM27 27h14v1h-14zM53 27h22v1h-22zM86 27h14v1h-14zM0 28h15v1h-15zM28 28h13v1h-13zM52 28h23v1h-23zM86 28h14v1h-14zM0 29h16v1h-16zM28 29h12v1h-12zM52 29h23v1h-23zM86 29h14v1h-14zM0 30h17v1h-17zM29 30h11v1h-11zM51 30h24v1h-24zM86 30h14v1h-14zM0 31h17v1h-17zM29 31h10v1h-10zM50 31h25v1h-25zM86 31h14v1h-14zM0 32h18v1h-18zM30 32h9v1h-9zM50 32h25v1h-25zM86 32h14v1h-14zM0 33h18v1h-18zM30 33h8v1h-8zM49 33h26v1h-26zM86 33h14v1h-14zM0 34h19v1h-19zM31 34h7v1h-7zM49 34h26v1h-26zM86 34h14v1h-14zM0 35h20v1h-20zM31 35h6v1h-6zM48 35h23v1h-23zM86 35h14v1h-14zM0 36h20v1h-20zM32 36h5v1h-5zM47 36h19v1h-19zM86 36h14v1h-14zM0 37h21v1h-21zM32 37h4v1h-4zM47 37h16v1h-16zM86 37h14v1h-14zM0 38h21v1h-21zM33 38h3v1h-3zM46 38h16v1h-16zM86 38h14v1h-14zM0 39h22v1h-22zM33 39h2v1h-2zM46 39h14v1h-14zM86 39h14v1h-14zM0 40h22v1h-22zM34 40h1v1h-1zM45 40h14v1h-14zM86 40h14v1h-14zM0 41h23v1h-23zM44 41h14v1h-14zM86 41h14v1h-14zM0 42h24v1h-24zM44 42h13v1h-13zM86 42h14v1h-14zM0 43h24v1h-24zM43 43h14v1h-14zM86 43h14v1h-14zM0 44h25v1h-25zM43 44h13v1h-13zM71 44h4v1h-4zM86 44h14v1h-14zM0 45h25v1h-25zM42 45h14v1h-14zM69 45h6v1h-6zM86 45h14v1h-14zM0 46h26v1h-26zM41 46h14v1h-14zM67 46h8v1h-8zM86 46h14v1h-14zM0 47h27v1h-27zM41 47h14v1h-14zM66 47h9v1h-9zM86 47h14v1h-14zM0 48h27v1h-27zM42 48h12v1h-12zM66 48h9v1h-9zM86 48h14v1h-14zM0 49h26v1h-26zM42 49h12v1h-12zM65 49h10v1h-10zM86 49h14v1h-14zM0 50h25v1h-25zM43 50h11v1h-11zM65 50h10v1h-10zM86 50h14v1h-14zM0 51h25v1h-25zM43 51h11v1h-11zM64 51h11v1h-11zM86 51h14v1h-14zM0 52h24v1h-24zM44 52h10v1h-10zM64 52h11v1h-11zM86 52h14v1h-14zM0 53h23v1h-23zM45 53h9v1h-9zM64 53h11v1h-11zM86 53h14v1h-14zM0 54h23v1h-23zM45 54h9v1h-9zM64 54h11v1h-11zM86 54h14v1h-14zM0 55h22v1h-22zM33 55h1v1h-1zM46 55h8v1h-8zM65 55h10v1h-10zM86 55h14v1h-14zM0 56h22v1h-22zM33 56h2v1h-2zM46 56h8v1h-8zM65 56h10v1h-10zM86 56h14v1h-14zM0 57h21v1h-21zM32 57h3v1h-3zM47 57h7v1h-7zM65 57h10v1h-10zM86 57h14v1h-14zM0 58h20v1h-20zM32 58h4v1h-4zM48 58h6v1h-6zM66 58h9v1h-9zM86 58h14v1h-14zM0 59h20v1h-20zM31 59h5v1h-5zM48 59h6v1h-6zM67 59h8v1h-8zM86 59h14v1h-14zM0 60h19v1h-19zM31 60h6v1h-6zM49 60h6v1h-6zM68 60h7v1h-7zM86 60h14v1h-14zM0 61h19v1h-19zM30 61h7v1h-7zM50 61h5v1h-5zM70 61h5v1h-5zM86 61h14v1h-14zM0 62h18v1h-18zM29 62h9v1h-9zM50 62h6v1h-6zM86 62h14v1h-14zM0 63h17v1h-17zM29 63h9v1h-9zM51 63h5v1h-5zM86 63h14v1h-14zM0 64h17v1h-17zM28 64h11v1h-11zM51 64h6v1h-6zM86 64h14v1h-14zM0 65h16v1h-16zM28 65h11v1h-11zM52 65h6v1h-6zM86 65h14v1h-14zM0 66h16v1h-16zM27 66h13v1h-13zM53 66h6v1h-6zM86 66h14v1h-14zM0 67h15v1h-15zM27 67h13v1h-13zM53 67h7v1h-7zM86 67h14v1h-14zM0 68h14v1h-14zM26 68h15v1h-15zM54 68h7v1h-7zM85 68h15v1h-15zM0 69h14v1h-14zM26 69h16v1h-16zM54 69h9v1h-9zM83 69h17v1h-17zM0 70h66v1h-66zM78 70h22v1h-22zM0 71h100v1h-100zM0 72h100v1h-100zM0 73h100v1h-100zM0 74h100v1h-100zM0 75h100v1h-100zM0 76h100v1h-100zM0 77h100v1h-100zM0 78h100v1h-100zM0 79h100v1h-100zM0 80h100v1h-100zM1 81h98v1h-98zM1 82h98v1h-98zM1 83h98v1h-98zM1 84h98v1h-98zM1 85h98v1h-98zM2 86h96v1h-96zM2 87h96v1h-96zM2 88h96v1h-96zM3 89h95v1h-95zM4 90h93v1h-93zM4 91h92v1h-92zM5 92h90v1h-90zM5 93h89v1h-89zM8 94h84v1h-84zM8 95h83v1h-83zM11 96h78v1h-78zM14 97h72v1h-72zM87 97h1v1h-1z" /><path fill="#460137" d="M6 5h1v1h-1zM93 5h1v1h-1zM97 10h1v1h-1zM99 16h1v1h-1zM0 17h1v1h-1zM99 81h1v1h-1zM99 82h1v1h-1zM0 83h1v1h-1zM99 84h1v1h-1zM1 86h1v1h-1zM98 87h1v1h-1zM2 89h1v1h-1zM3 90h1v1h-1zM94 93h1v1h-1zM12 97h1v1h-1z" /><path fill="#4b033c" d="M75 22h1v1h-1zM15 28h1v1h-1zM40 29h1v1h-1zM67 60h1v1h-1z" /><path fill="#b339a8" d="M76 22h1v1h-1zM38 34h1v1h-1z" /><path fill="#b53aaa" d="M77 22h8v1h-8zM24 42h1v1h-1zM54 51h1v1h-1zM66 60h1v1h-1zM50 64h1v1h-1z" /><path fill="#590b4a" d="M85 22h1v1h-1zM49 32h1v1h-1z" /><path fill="#560946" d="M75 23h1v1h-1zM75 24h1v1h-1zM75 25h1v1h-1zM75 26h1v1h-1zM75 27h1v1h-1zM75 28h1v1h-1zM75 29h1v1h-1zM75 30h1v1h-1zM75 31h1v1h-1zM75 32h1v1h-1zM75 33h1v1h-1zM75 34h1v1h-1zM74 35h1v1h-1zM66 36h1v1h-1zM75 44h1v1h-1zM75 45h1v1h-1zM75 46h1v1h-1zM75 47h1v1h-1zM75 48h1v1h-1zM75 49h1v1h-1zM75 50h1v1h-1zM75 51h1v1h-1zM75 52h1v1h-1zM75 53h1v1h-1zM75 54h1v1h-1zM75 55h1v1h-1zM75 56h1v1h-1zM75 57h1v1h-1zM75 58h1v1h-1zM36 59h1v1h-1zM75 59h1v1h-1zM75 60h1v1h-1zM75 61h1v1h-1z" /><path fill="#ff61f6" d="M76 23h9v1h-9zM76 24h9v1h-9zM76 25h9v1h-9zM16 26h9v1h-9zM76 26h9v1h-9zM16 27h10v1h-10zM43 27h8v1h-8zM76 27h9v1h-9zM17 28h9v1h-9zM42 28h9v1h-9zM76 28h9v1h-9zM17 29h10v1h-10zM42 29h8v1h-8zM76 29h9v1h-9zM18 30h9v1h-9zM41 30h8v1h-8zM76 30h9v1h-9zM19 31h9v1h-9zM41 31h8v1h-8zM76 31h9v1h-9zM19 32h9v1h-9zM40 32h8v1h-8zM76 32h9v1h-9zM20 33h9v1h-9zM40 33h8v1h-8zM76 33h9v1h-9zM20 34h9v1h-9zM39 34h8v1h-8zM76 34h9v1h-9zM21 35h9v1h-9zM39 35h7v1h-7zM76 35h9v1h-9zM22 36h8v1h-8zM38 36h8v1h-8zM71 36h14v1h-14zM22 37h9v1h-9zM38 37h7v1h-7zM67 37h18v1h-18zM23 38h8v1h-8zM37 38h8v1h-8zM64 38h21v1h-21zM23 39h9v1h-9zM37 39h7v1h-7zM63 39h22v1h-22zM24 40h9v1h-9zM36 40h7v1h-7zM61 40h24v1h-24zM25 41h8v1h-8zM36 41h7v1h-7zM60 41h25v1h-25zM25 42h9v1h-9zM35 42h7v1h-7zM59 42h26v1h-26zM26 43h16v1h-16zM58 43h12v1h-12zM76 43h9v1h-9zM26 44h15v1h-15zM58 44h10v1h-10zM76 44h9v1h-9zM27 45h13v1h-13zM57 45h9v1h-9zM76 45h9v1h-9zM28 46h12v1h-12zM56 46h9v1h-9zM76 46h9v1h-9zM28 47h12v1h-12zM56 47h9v1h-9zM76 47h9v1h-9zM28 48h12v1h-12zM56 48h8v1h-8zM76 48h9v1h-9zM27 49h14v1h-14zM55 49h9v1h-9zM76 49h9v1h-9zM27 50h14v1h-14zM55 50h8v1h-8zM76 50h9v1h-9zM26 51h16v1h-16zM55 51h8v1h-8zM76 51h9v1h-9zM26 52h17v1h-17zM55 52h8v1h-8zM76 52h9v1h-9zM25 53h8v1h-8zM34 53h9v1h-9zM55 53h8v1h-8zM76 53h9v1h-9zM24 54h8v1h-8zM35 54h9v1h-9zM55 54h8v1h-8zM76 54h9v1h-9zM24 55h8v1h-8zM36 55h8v1h-8zM55 55h8v1h-8zM76 55h9v1h-9zM23 56h8v1h-8zM36 56h9v1h-9zM55 56h9v1h-9zM76 56h9v1h-9zM23 57h8v1h-8zM37 57h9v1h-9zM55 57h9v1h-9zM76 57h9v1h-9zM22 58h8v1h-8zM37 58h9v1h-9zM55 58h9v1h-9zM76 58h9v1h-9zM21 59h9v1h-9zM38 59h9v1h-9zM56 59h9v1h-9zM76 59h9v1h-9zM21 60h8v1h-8zM38 60h9v1h-9zM56 60h10v1h-10zM76 60h9v1h-9zM20 61h9v1h-9zM39 61h9v1h-9zM57 61h10v1h-10zM76 61h9v1h-9zM20 62h8v1h-8zM39 62h10v1h-10zM57 62h12v1h-12zM76 62h9v1h-9zM19 63h8v1h-8zM40 63h9v1h-9zM58 63h27v1h-27zM18 64h9v1h-9zM40 64h10v1h-10zM58 64h27v1h-27zM18 65h8v1h-8zM41 65h9v1h-9zM59 65h26v1h-26zM17 66h9v1h-9zM41 66h10v1h-10zM61 66h24v1h-24zM16 67h9v1h-9zM42 67h10v1h-10zM62 67h23v1h-23zM16 68h9v1h-9zM42 68h10v1h-10zM64 68h18v1h-18zM67 69h11v1h-11z" /><path fill="#6d155f" d="M85 23h1v1h-1zM85 24h1v1h-1zM85 25h1v1h-1zM85 26h1v1h-1zM85 27h1v1h-1zM85 28h1v1h-1zM85 29h1v1h-1zM85 30h1v1h-1zM85 31h1v1h-1zM85 32h1v1h-1zM85 33h1v1h-1zM85 34h1v1h-1zM85 35h1v1h-1zM85 36h1v1h-1zM85 37h1v1h-1zM85 38h1v1h-1zM85 39h1v1h-1zM85 40h1v1h-1zM85 41h1v1h-1zM85 42h1v1h-1zM85 43h1v1h-1zM85 44h1v1h-1zM85 45h1v1h-1zM85 46h1v1h-1zM85 47h1v1h-1zM85 48h1v1h-1zM85 49h1v1h-1zM85 50h1v1h-1zM85 51h1v1h-1zM85 52h1v1h-1zM85 53h1v1h-1zM85 54h1v1h-1zM85 55h1v1h-1zM85 56h1v1h-1zM85 57h1v1h-1zM85 58h1v1h-1zM85 59h1v1h-1zM85 60h1v1h-1zM85 61h1v1h-1z" /><path fill="#4d043e" d="M14 26h1v1h-1zM18 33h1v1h-1zM33 54h1v1h-1zM64 55h1v1h-1zM14 68h1v1h-1z" /><path fill="#f15ae8" d="M15 26h1v1h-1zM25 43h1v1h-1zM69 62h1v1h-1zM49 63h1v1h-1zM63 68h1v1h-1z" /><path fill="#cc46c1" d="M25 26h1v1h-1zM72 43h1v1h-1zM45 56h1v1h-1zM65 59h1v1h-1z" /><path fill="#480138" d="M26 26h1v1h-1zM27 28h1v1h-1zM28 30h1v1h-1zM22 40h1v1h-1zM42 44h1v1h-1zM65 48h1v1h-1zM23 53h1v1h-1zM54 59h1v1h-1zM30 60h1v1h-1zM49 61h1v1h-1zM40 67h1v1h-1z" /><path fill="#7d1e6f" d="M42 26h1v1h-1zM28 31h1v1h-1zM43 52h1v1h-1z" /><path fill="#f25ae9" d="M43 26h1v1h-1z" /><path fill="#f35bea" d="M44 26h8v1h-8zM70 36h1v1h-1zM20 60h1v1h-1zM25 67h1v1h-1zM66 69h1v1h-1zM78 69h1v1h-1z" /><path fill="#a8339c" d="M52 26h1v1h-1z" /><path fill="#9b2e8f" d="M15 27h1v1h-1z" /><path fill="#7f1f71" d="M26 27h1v1h-1zM30 59h1v1h-1z" /><path fill="#490239" d="M41 27h1v1h-1zM48 34h1v1h-1zM25 45h1v1h-1zM66 59h1v1h-1zM66 70h1v1h-1z" /><path fill="#e051d6" d="M42 27h1v1h-1zM50 29h1v1h-1zM71 43h1v1h-1zM68 44h1v1h-1zM40 48h1v1h-1z" /><path fill="#f65cec" d="M51 27h1v1h-1zM39 33h1v1h-1z" /><path fill="#5a0b4b" d="M52 27h1v1h-1z" /><path fill="#e252d8" d="M16 28h1v1h-1zM39 63h1v1h-1z" /><path fill="#dc4ed2" d="M26 28h1v1h-1zM67 61h1v1h-1zM41 67h1v1h-1z" /><path fill="#8c267f" d="M41 28h1v1h-1zM57 64h1v1h-1z" /><path fill="#992c8c" d="M51 28h1v1h-1zM40 30h1v1h-1zM54 50h1v1h-1z" /><path fill="#781b6a" d="M16 29h1v1h-1zM64 56h1v1h-1z" /><path fill="#7e1e70" d="M27 29h1v1h-1z" /><path fill="#e754dd" d="M41 29h1v1h-1z" /><path fill="#4b033b" d="M51 29h1v1h-1zM41 48h1v1h-1zM32 56h1v1h-1z" /><path fill="#c543ba" d="M17 30h1v1h-1zM35 56h1v1h-1z" /><path fill="#db4ed1" d="M27 30h1v1h-1z" /><path fill="#fe61f5" d="M49 30h1v1h-1zM37 37h1v1h-1zM31 38h1v1h-1zM36 39h1v1h-1zM62 39h1v1h-1zM35 41h1v1h-1zM27 46h1v1h-1zM63 50h1v1h-1zM35 55h1v1h-1zM56 61h1v1h-1zM19 62h1v1h-1zM27 63h1v1h-1z" /><path fill="#751967" d="M50 30h1v1h-1zM33 40h1v1h-1z" /><path fill="#5f0e50" d="M17 31h1v1h-1z" /><path fill="#f95eef" d="M18 31h1v1h-1z" /><path fill="#500641" d="M39 31h1v1h-1zM21 38h1v1h-1zM47 58h1v1h-1z" /><path fill="#f059e7" d="M40 31h1v1h-1zM29 34h1v1h-1z" /><path fill="#ba3dae" d="M49 31h1v1h-1z" /><path fill="#a43197" d="M18 32h1v1h-1zM73 70h1v1h-1z" /><path fill="#e151d6" d="M28 32h1v1h-1zM63 38h1v1h-1z" /><path fill="#4a033a" d="M29 32h1v1h-1zM17 63h1v1h-1zM38 63h1v1h-1zM52 66h1v1h-1z" /><path fill="#a53198" d="M39 32h1v1h-1z" /><path fill="#f45beb" d="M48 32h1v1h-1z" /><path fill="#e855de" d="M19 33h1v1h-1zM26 50h1v1h-1z" /><path fill="#912884" d="M29 33h1v1h-1z" /><path fill="#570947" d="M38 33h1v1h-1zM19 60h1v1h-1z" /><path fill="#932985" d="M48 33h1v1h-1z" /><path fill="#832175" d="M19 34h1v1h-1zM40 66h1v1h-1z" /><path fill="#520742" d="M30 34h1v1h-1zM43 42h1v1h-1z" /><path fill="#da4ed0" d="M47 34h1v1h-1zM15 69h9v1h-9z" /><path fill="#cb46c1" d="M20 35h1v1h-1z" /><path fill="#aa349d" d="M30 35h1v1h-1zM25 51h1v1h-1z" /><path fill="#620f53" d="M37 35h1v1h-1z" /><path fill="#fb5ff2" d="M38 35h1v1h-1zM21 36h1v1h-1zM25 52h1v1h-1zM36 57h1v1h-1z" /><path fill="#fe60f4" d="M46 35h1v1h-1zM57 44h1v1h-1zM50 65h1v1h-1zM60 66h1v1h-1z" /><path fill="#6f1661" d="M47 35h1v1h-1z" /><path fill="#480239" d="M71 35h1v1h-1zM63 37h1v1h-1zM45 39h1v1h-1zM20 58h1v1h-1zM31 58h1v1h-1zM69 61h1v1h-1zM39 65h1v1h-1zM82 69h1v1h-1z" /><path fill="#530743" d="M72 35h1v1h-1zM64 50h1v1h-1z" /><path fill="#5d0c4e" d="M73 35h1v1h-1z" /><path fill="#5b0c4c" d="M75 35h1v1h-1z" /><path fill="#651156" d="M20 36h1v1h-1z" /><path fill="#fb5ff1" d="M30 36h1v1h-1zM70 43h1v1h-1zM63 55h1v1h-1zM26 65h1v1h-1z" /><path fill="#610f52" d="M31 36h1v1h-1zM56 63h1v1h-1z" /><path fill="#c241b6" d="M37 36h1v1h-1zM55 47h1v1h-1z" /><path fill="#b53aa9" d="M46 36h1v1h-1z" /><path fill="#8c257f" d="M67 36h1v1h-1zM22 39h1v1h-1z" /><path fill="#b63bab" d="M68 36h1v1h-1zM54 55h1v1h-1z" /><path fill="#d54bcb" d="M69 36h1v1h-1z" /><path fill="#ad36a1" d="M21 37h1v1h-1z" /><path fill="#bf40b4" d="M31 37h1v1h-1zM54 52h1v1h-1z" /><path fill="#6a145b" d="M36 37h1v1h-1zM32 38h1v1h-1zM23 41h1v1h-1zM55 61h1v1h-1zM28 63h1v1h-1zM84 68h1v1h-1z" /><path fill="#f159e7" d="M45 37h1v1h-1z" /><path fill="#540844" d="M46 37h1v1h-1zM24 43h1v1h-1z" /><path fill="#801f72" d="M64 37h1v1h-1z" /><path fill="#d249c7" d="M65 37h1v1h-1zM24 53h1v1h-1z" /><path fill="#fd60f4" d="M66 37h1v1h-1zM43 40h1v1h-1zM24 41h1v1h-1zM22 57h1v1h-1z" /><path fill="#ed57e3" d="M22 38h1v1h-1zM42 42h1v1h-1zM23 55h1v1h-1z" /><path fill="#c743bc" d="M36 38h1v1h-1zM54 53h1v1h-1z" /><path fill="#8e2681" d="M45 38h1v1h-1z" /><path fill="#771a69" d="M62 38h1v1h-1z" /><path fill="#ca45bf" d="M32 39h1v1h-1zM28 62h1v1h-1z" /><path fill="#6b145c" d="M35 39h1v1h-1z" /><path fill="#d84cce" d="M44 39h1v1h-1zM56 45h1v1h-1zM29 60h1v1h-1z" /><path fill="#4e053f" d="M60 39h1v1h-1zM57 42h1v1h-1zM54 48h1v1h-1zM25 50h1v1h-1z" /><path fill="#b83cac" d="M61 39h1v1h-1z" /><path fill="#d34ac8" d="M23 40h1v1h-1zM41 44h1v1h-1z" /><path fill="#c844bd" d="M35 40h1v1h-1zM27 48h1v1h-1zM79 69h1v1h-1z" /><path fill="#6a135b" d="M44 40h1v1h-1z" /><path fill="#550946" d="M59 40h1v1h-1zM58 41h1v1h-1zM50 63h1v1h-1z" /><path fill="#d44bca" d="M60 40h1v1h-1zM33 41h1v1h-1zM64 48h1v1h-1z" /><path fill="#6c145d" d="M34 41h1v1h-1zM21 57h1v1h-1z" /><path fill="#af37a3" d="M43 41h1v1h-1z" /><path fill="#e453d9" d="M59 41h1v1h-1z" /><path fill="#e955df" d="M34 42h1v1h-1z" /><path fill="#d74ccd" d="M58 42h1v1h-1z" /><path fill="#88237b" d="M42 43h1v1h-1zM31 57h1v1h-1z" /><path fill="#b038a5" d="M57 43h1v1h-1z" /><path fill="#bf3fb3" d="M73 43h1v1h-1z" /><path fill="#c643bb" d="M74 43h1v1h-1zM56 62h1v1h-1zM70 62h1v1h-1z" /><path fill="#e352d8" d="M75 43h1v1h-1z" /><path fill="#942a87" d="M25 44h1v1h-1z" /><path fill="#741966" d="M56 44h1v1h-1zM85 63h1v1h-1z" /><path fill="#8a247d" d="M69 44h1v1h-1zM85 67h1v1h-1z" /><path fill="#500640" d="M70 44h1v1h-1zM37 61h1v1h-1z" /><path fill="#dc4fd2" d="M26 45h1v1h-1z" /><path fill="#fc5ff3" d="M40 45h1v1h-1zM66 45h1v1h-1zM47 60h1v1h-1z" /><path fill="#671258" d="M41 45h1v1h-1z" /><path fill="#a9349d" d="M67 45h1v1h-1zM40 46h1v1h-1zM74 62h1v1h-1zM70 70h1v1h-1z" /><path fill="#4c043c" d="M68 45h1v1h-1zM63 69h1v1h-1z" /><path fill="#721763" d="M26 46h1v1h-1z" /><path fill="#7b1c6c" d="M55 46h1v1h-1z" /><path fill="#fa5ef1" d="M65 46h1v1h-1zM44 55h1v1h-1z" /><path fill="#7c1d6d" d="M66 46h1v1h-1z" /><path fill="#be3fb2" d="M27 47h1v1h-1zM27 64h1v1h-1z" /><path fill="#791b6b" d="M40 47h1v1h-1z" /><path fill="#912883" d="M65 47h1v1h-1zM85 66h1v1h-1z" /><path fill="#f75ded" d="M55 48h1v1h-1z" /><path fill="#812074" d="M26 49h1v1h-1z" /><path fill="#9b2d8e" d="M41 49h1v1h-1zM25 68h1v1h-1z" /><path fill="#771a6a" d="M54 49h1v1h-1z" /><path fill="#862279" d="M64 49h1v1h-1zM64 69h1v1h-1z" /><path fill="#f85dee" d="M41 50h1v1h-1zM64 58h1v1h-1z" /><path fill="#5d0d4e" d="M42 50h1v1h-1z" /><path fill="#c241b7" d="M42 51h1v1h-1zM24 69h1v1h-1z" /><path fill="#ec57e2" d="M63 51h1v1h-1zM32 54h1v1h-1zM61 67h1v1h-1zM82 68h1v1h-1z" /><path fill="#651157" d="M24 52h1v1h-1z" /><path fill="#df50d5" d="M63 52h1v1h-1zM63 53h1v1h-1zM30 58h1v1h-1z" /><path fill="#cf48c4" d="M33 53h1v1h-1z" /><path fill="#e553db" d="M43 53h1v1h-1zM31 56h1v1h-1z" /><path fill="#4d043d" d="M44 53h1v1h-1zM25 69h1v1h-1z" /><path fill="#8b257e" d="M23 54h1v1h-1zM75 70h1v1h-1z" /><path fill="#d64bcb" d="M34 54h1v1h-1z" /><path fill="#a33196" d="M44 54h1v1h-1zM58 65h1v1h-1z" /><path fill="#c040b5" d="M54 54h1v1h-1z" /><path fill="#eb56e1" d="M63 54h1v1h-1zM46 58h1v1h-1zM55 59h1v1h-1z" /><path fill="#510642" d="M22 55h1v1h-1z" /><path fill="#8f2781" d="M32 55h1v1h-1z" /><path fill="#701762" d="M34 55h1v1h-1zM51 65h1v1h-1z" /><path fill="#631055" d="M45 55h1v1h-1z" /><path fill="#b339a7" d="M22 56h1v1h-1z" /><path fill="#a7339a" d="M54 56h1v1h-1z" /><path fill="#620f54" d="M35 57h1v1h-1z" /><path fill="#842176" d="M46 57h1v1h-1z" /><path fill="#89247b" d="M54 57h1v1h-1z" /><path fill="#b138a5" d="M64 57h1v1h-1z" /><path fill="#d94dce" d="M21 58h1v1h-1z" /><path fill="#b238a6" d="M36 58h1v1h-1z" /><path fill="#681259" d="M54 58h1v1h-1zM67 70h1v1h-1z" /><path fill="#580a48" d="M65 58h1v1h-1z" /><path fill="#932986" d="M20 59h1v1h-1zM38 62h1v1h-1z" /><path fill="#f55ceb" d="M37 59h1v1h-1zM52 68h1v1h-1z" /><path fill="#ab359f" d="M47 59h1v1h-1zM26 66h1v1h-1zM72 70h1v1h-1z" /><path fill="#a33097" d="M37 60h1v1h-1zM73 62h1v1h-1zM42 69h1v1h-1z" /><path fill="#69135a" d="M48 60h1v1h-1z" /><path fill="#b439a8" d="M55 60h1v1h-1z" /><path fill="#bc3eb0" d="M19 61h1v1h-1z" /><path fill="#761a68" d="M29 61h1v1h-1z" /><path fill="#ee58e4" d="M38 61h1v1h-1z" /><path fill="#d44ac9" d="M48 61h1v1h-1z" /><path fill="#811f73" d="M68 61h1v1h-1z" /><path fill="#731865" d="M18 62h1v1h-1z" /><path fill="#8d2680" d="M49 62h1v1h-1z" /><path fill="#ac35a0" d="M71 62h1v1h-1zM83 68h1v1h-1z" /><path fill="#9e2f92" d="M72 62h1v1h-1z" /><path fill="#c341b8" d="M75 62h1v1h-1z" /><path fill="#6e165f" d="M85 62h1v1h-1z" /><path fill="#de4fd4" d="M18 63h1v1h-1zM40 65h1v1h-1zM51 66h1v1h-1z" /><path fill="#f65ced" d="M57 63h1v1h-1zM17 65h1v1h-1z" /><path fill="#9c2e90" d="M17 64h1v1h-1zM69 70h1v1h-1z" /><path fill="#87237a" d="M39 64h1v1h-1z" /><path fill="#7a1c6c" d="M85 64h1v1h-1zM15 67h1v1h-1zM60 67h1v1h-1zM14 69h1v1h-1z" /><path fill="#5c0c4d" d="M16 65h1v1h-1z" /><path fill="#600e51" d="M27 65h1v1h-1z" /><path fill="#842177" d="M85 65h1v1h-1zM68 70h1v1h-1z" /><path fill="#c542b9" d="M16 66h1v1h-1z" /><path fill="#9f2f93" d="M59 66h1v1h-1z" /><path fill="#550845" d="M26 67h1v1h-1z" /><path fill="#962a88" d="M52 67h1v1h-1z" /><path fill="#e654dc" d="M15 68h1v1h-1z" /><path fill="#7f1e70" d="M41 68h1v1h-1z" /><path fill="#5a0b4a" d="M53 68h1v1h-1zM77 70h1v1h-1z" /><path fill="#4f0540" d="M61 68h1v1h-1z" /><path fill="#a23196" d="M62 68h1v1h-1z" /><path fill="#c944be" d="M43 69h1v1h-1z" /><path fill="#ce47c3" d="M44 69h9v1h-9z" /><path fill="#822074" d="M53 69h1v1h-1z" /><path fill="#c442b9" d="M65 69h1v1h-1z" /><path fill="#9d2e90" d="M80 69h1v1h-1zM74 70h1v1h-1z" /><path fill="#711762" d="M81 69h1v1h-1z" /><path fill="#b037a4" d="M71 70h1v1h-1z" /><path fill="#721864" d="M76 70h1v1h-1z" /></svg>