<svg xmlns="http://www.w3.org/2000/svg" viewBox="0 0 100 100" width="1em" height="1em"><path fill="#f52e77" d="M88 1h1v1h-1z" /><path fill="#f52e76" d="M89 1h1v1h-1z" /><path fill="#f42e76" d="M87 2h1v1h-1z" /><path fill="#f42f76" d="M88 2h1v1h-1z" /><path fill="#f43176" d="M86 3h1v1h-1zM86 4h1v1h-1z" /><path fill="#f53076" d="M87 3h1v1h-1z" /><path fill="#f52f75" d="M88 3h1v1h-1z" /><path fill="#f33275" d="M85 4h1v1h-1z" /><path fill="#f43175" d="M87 4h1v1h-1z" /><path fill="#f43374" d="M83 5h1v1h-1z" /><path fill="#f43375" d="M84 5h1v1h-1zM85 6h2v1h-2z" /><path fill="#f43376" d="M85 5h1v1h-1z" /><path fill="#f43276" d="M86 5h1v1h-1z" /><path fill="#f33176" d="M87 5h1v1h-1z" /><path fill="#f43474" d="M82 6h1v1h-1z" /><path fill="#f43575" d="M83 6h1v1h-1zM83 7h2v1h-2zM84 8h1v1h-1z" /><path fill="#f43475" d="M84 6h1v1h-1zM85 7h1v1h-1z" /><path fill="#f43775" d="M81 7h1v1h-1zM81 8h2v1h-2zM82 9h2v1h-2z" /><path fill="#f43675" d="M82 7h1v1h-1zM83 8h1v1h-1zM84 9h1v1h-1z" /><path fill="#f33475" d="M86 7h1v1h-1z" /><path fill="#f33874" d="M79 8h1v1h-1z" /><path fill="#f33875" d="M80 8h1v1h-1z" /><path fill="#f43574" d="M85 8h1v1h-1z" /><path fill="#f43a73" d="M78 9h1v1h-1z" /><path fill="#f43974" d="M79 9h2v1h-2zM80 10h2v1h-2zM81 11h2v1h-2z" /><path fill="#f43875" d="M81 9h1v1h-1zM82 10h2v1h-2zM83 11h1v1h-1z" /><path fill="#7519f3" d="M20 10h1v1h-1z" /><path fill="#751bf4" d="M21 10h1v1h-1z" /><path fill="#761bf3" d="M22 10h1v1h-1z" /><path fill="#761cf4" d="M23 10h1v1h-1zM20 13h1v1h-1zM18 16h1v1h-1zM17 17h1v1h-1zM15 20h1v1h-1zM14 21h1v1h-1zM13 23h1v1h-1zM12 24h1v1h-1zM10 27h1v1h-1zM9 28h1v1h-1zM7 31h1v1h-1zM5 34h1v1h-1zM4 35h1v1h-1zM2 38h1v1h-1z" /><path fill="#771cf4" d="M24 10h1v1h-1zM22 11h1v1h-1zM21 12h2v1h-2zM21 13h1v1h-1zM20 14h1v1h-1zM19 15h1v1h-1zM19 16h1v1h-1zM18 17h1v1h-1zM17 18h1v1h-1zM16 19h2v1h-2zM16 20h1v1h-1zM15 21h1v1h-1zM14 22h1v1h-1zM14 23h1v1h-1zM13 24h1v1h-1zM12 25h1v1h-1zM11 26h2v1h-2zM11 27h1v1h-1zM10 28h1v1h-1zM9 29h1v1h-1zM8 30h2v1h-2zM8 31h1v1h-1zM7 32h1v1h-1zM6 33h1v1h-1zM6 34h1v1h-1zM5 35h1v1h-1zM4 36h1v1h-1zM3 37h2v1h-2zM3 38h1v1h-1zM2 39h1v1h-1z" /><path fill="#781cf3" d="M25 10h1v1h-1z" /><path fill="#781df4" d="M26 10h1v1h-1zM23 13h1v1h-1zM22 14h1v1h-1zM20 17h1v1h-1zM18 20h1v1h-1zM17 21h1v1h-1zM15 24h1v1h-1zM12 28h1v1h-1zM10 31h1v1h-1zM9 32h1v1h-1zM7 35h1v1h-1zM5 38h1v1h-1zM4 39h1v1h-1z" /><path fill="#781ef3" d="M27 10h2v1h-2z" /><path fill="#791ff2" d="M29 10h1v1h-1z" /><path fill="#f33b73" d="M77 10h1v1h-1zM82 14h1v1h-1z" /><path fill="#f33a74" d="M78 10h2v1h-2zM80 11h1v1h-1zM81 12h1v1h-1zM82 13h1v1h-1z" /><path fill="#f43774" d="M84 10h1v1h-1z" /><path fill="#7318f4" d="M15 11h1v1h-1z" /><path fill="#7418f3" d="M16 11h1v1h-1zM0 32h1v1h-1z" /><path fill="#7519f4" d="M17 11h1v1h-1zM17 12h1v1h-1zM16 13h1v1h-1zM15 14h1v1h-1zM14 15h1v1h-1zM14 16h1v1h-1zM13 17h1v1h-1zM12 18h1v1h-1zM12 19h1v1h-1zM11 20h1v1h-1zM10 21h1v1h-1zM9 22h1v1h-1zM9 23h1v1h-1zM8 24h1v1h-1zM7 25h1v1h-1zM7 26h1v1h-1zM6 27h1v1h-1zM5 28h1v1h-1zM4 29h1v1h-1zM4 30h1v1h-1zM3 31h1v1h-1zM2 32h1v1h-1zM1 33h1v1h-1zM1 34h1v1h-1z" /><path fill="#751af4" d="M18 11h2v1h-2zM18 12h1v1h-1zM17 13h1v1h-1zM16 14h2v1h-2zM15 15h2v1h-2zM15 16h1v1h-1zM14 17h1v1h-1zM13 18h2v1h-2zM13 19h1v1h-1zM12 20h1v1h-1zM11 21h2v1h-2zM10 22h2v1h-2zM10 23h1v1h-1zM9 24h1v1h-1zM8 25h2v1h-2zM8 26h1v1h-1zM7 27h1v1h-1zM6 28h2v1h-2zM5 29h2v1h-2zM5 30h1v1h-1zM4 31h1v1h-1zM3 32h2v1h-2zM2 33h2v1h-2zM2 34h1v1h-1zM1 35h1v1h-1zM1 36h1v1h-1z" /><path fill="#761bf4" d="M20 11h2v1h-2zM19 12h2v1h-2zM19 13h1v1h-1zM18 14h2v1h-2zM17 15h2v1h-2zM16 16h2v1h-2zM16 17h1v1h-1zM15 18h2v1h-2zM14 19h2v1h-2zM14 20h1v1h-1zM13 21h1v1h-1zM12 22h2v1h-2zM11 23h2v1h-2zM11 24h1v1h-1zM10 25h2v1h-2zM9 26h2v1h-2zM8 27h2v1h-2zM8 28h1v1h-1zM7 29h2v1h-2zM6 30h2v1h-2zM6 31h1v1h-1zM5 32h2v1h-2zM4 33h2v1h-2zM3 34h2v1h-2zM3 35h1v1h-1zM2 36h2v1h-2zM2 37h1v1h-1zM1 38h1v1h-1z" /><path fill="#771df4" d="M23 11h2v1h-2zM23 12h1v1h-1zM22 13h1v1h-1zM21 14h1v1h-1zM20 15h2v1h-2zM20 16h1v1h-1zM19 17h1v1h-1zM18 18h2v1h-2zM18 19h1v1h-1zM17 20h1v1h-1zM16 21h1v1h-1zM15 22h2v1h-2zM15 23h1v1h-1zM14 24h1v1h-1zM13 25h2v1h-2zM13 26h1v1h-1zM12 27h1v1h-1zM11 28h1v1h-1zM10 29h2v1h-2zM10 30h1v1h-1zM9 31h1v1h-1zM8 32h1v1h-1zM7 33h2v1h-2zM7 34h1v1h-1zM6 35h1v1h-1zM5 36h2v1h-2zM5 37h1v1h-1zM4 38h1v1h-1zM3 39h1v1h-1zM2 40h2v1h-2zM3 43h1v1h-1z" /><path fill="#781ef4" d="M25 11h2v1h-2zM24 12h2v1h-2zM24 13h1v1h-1zM23 14h2v1h-2zM22 15h2v1h-2zM21 16h2v1h-2zM21 17h1v1h-1zM20 18h2v1h-2zM19 19h2v1h-2zM19 20h1v1h-1zM18 21h2v1h-2zM17 22h2v1h-2zM16 23h2v1h-2zM16 24h1v1h-1zM15 25h2v1h-2zM14 26h2v1h-2zM13 27h2v1h-2zM13 28h1v1h-1zM12 29h2v1h-2zM11 30h2v1h-2zM11 31h1v1h-1zM10 32h2v1h-2zM9 33h2v1h-2zM8 34h2v1h-2zM8 35h1v1h-1zM7 36h2v1h-2zM6 37h2v1h-2zM6 38h1v1h-1zM5 39h2v1h-2zM4 40h2v1h-2zM3 41h2v1h-2zM3 42h1v1h-1z" /><path fill="#791ff4" d="M27 11h1v1h-1zM26 12h1v1h-1zM25 14h1v1h-1zM24 15h1v1h-1zM23 16h1v1h-1zM23 17h1v1h-1zM22 18h1v1h-1zM21 19h1v1h-1zM20 21h1v1h-1zM19 22h1v1h-1zM18 23h1v1h-1zM17 25h1v1h-1zM16 26h1v1h-1zM15 27h1v1h-1zM15 28h1v1h-1zM14 29h1v1h-1zM13 30h1v1h-1zM12 32h1v1h-1zM11 33h1v1h-1zM10 34h1v1h-1zM10 35h1v1h-1zM9 36h1v1h-1zM8 37h1v1h-1zM7 39h1v1h-1zM6 40h1v1h-1zM5 41h1v1h-1zM4 43h1v1h-1z" /><path fill="#7920f3" d="M28 11h1v1h-1zM28 12h1v1h-1zM27 13h1v1h-1zM26 14h1v1h-1zM26 15h1v1h-1zM25 16h1v1h-1zM24 17h1v1h-1zM23 18h1v1h-1zM23 19h1v1h-1zM22 20h1v1h-1zM21 21h1v1h-1zM20 22h2v1h-2zM20 23h1v1h-1zM19 24h1v1h-1zM18 25h1v1h-1zM18 26h1v1h-1zM17 27h1v1h-1zM16 28h1v1h-1zM15 29h1v1h-1zM15 30h1v1h-1zM14 31h1v1h-1zM13 32h1v1h-1zM13 33h1v1h-1zM12 34h1v1h-1zM11 35h1v1h-1zM10 36h1v1h-1zM10 37h1v1h-1zM9 38h1v1h-1zM8 39h1v1h-1zM7 40h2v1h-2zM7 41h1v1h-1zM6 42h1v1h-1zM5 43h1v1h-1zM5 44h1v1h-1zM5 47h1v1h-1z" /><path fill="#7a20f3" d="M29 11h1v1h-1zM28 13h1v1h-1zM27 14h1v1h-1zM25 17h1v1h-1zM24 18h1v1h-1zM23 20h1v1h-1zM22 21h1v1h-1zM20 24h1v1h-1zM19 25h1v1h-1zM18 27h1v1h-1zM17 28h1v1h-1zM16 29h1v1h-1zM15 31h1v1h-1zM14 32h1v1h-1zM12 35h1v1h-1zM11 36h1v1h-1zM10 38h1v1h-1zM9 39h1v1h-1zM7 42h1v1h-1zM6 43h1v1h-1zM5 45h1v1h-1z" /><path fill="#7a21f3" d="M30 11h2v1h-2zM29 12h2v1h-2zM29 13h1v1h-1zM28 14h2v1h-2zM27 15h2v1h-2zM26 16h2v1h-2zM29 16h1v1h-1zM26 17h1v1h-1zM25 18h1v1h-1zM24 19h1v1h-1zM24 20h1v1h-1zM21 23h1v1h-1zM20 25h1v1h-1zM19 26h1v1h-1zM19 27h1v1h-1zM18 28h1v1h-1zM17 29h2v1h-2zM16 30h2v1h-2zM16 31h1v1h-1zM15 32h2v1h-2zM14 33h2v1h-2zM13 34h2v1h-2zM13 35h1v1h-1zM12 36h2v1h-2zM11 37h2v1h-2zM11 38h1v1h-1zM10 39h2v1h-2zM9 40h2v1h-2zM8 41h2v1h-2zM8 42h1v1h-1zM7 43h2v1h-2zM6 44h2v1h-2zM6 45h1v1h-1zM5 46h1v1h-1z" /><path fill="#7b22f3" d="M32 11h1v1h-1zM31 12h2v1h-2zM30 13h2v1h-2zM30 14h1v1h-1zM29 15h2v1h-2zM28 16h1v1h-1zM28 17h1v1h-1zM19 29h1v1h-1zM18 30h2v1h-2zM17 31h2v1h-2zM17 32h1v1h-1zM16 33h2v1h-2zM15 34h2v1h-2zM15 35h1v1h-1zM14 36h1v1h-1zM13 37h2v1h-2zM12 38h2v1h-2zM12 39h1v1h-1zM11 40h2v1h-2zM10 41h2v1h-2zM9 42h2v1h-2zM9 43h1v1h-1zM8 44h2v1h-2zM7 45h2v1h-2zM7 46h1v1h-1zM6 47h1v1h-1zM6 48h1v1h-1z" /><path fill="#7a23f2" d="M33 11h1v1h-1z" /><path fill="#7c22f3" d="M34 11h1v1h-1z" /><path fill="#7b24f2" d="M35 11h1v1h-1z" /><path fill="#f23c74" d="M76 11h1v1h-1z" /><path fill="#f33c74" d="M77 11h1v1h-1zM77 12h2v1h-2zM79 13h1v1h-1zM80 14h2v1h-2zM81 15h1v1h-1zM81 16h1v1h-1z" /><path fill="#f33b74" d="M78 11h2v1h-2zM79 12h2v1h-2zM80 13h2v1h-2z" /><path fill="#7315f3" d="M12 12h1v1h-1zM0 28h1v1h-1z" /><path fill="#7317f3" d="M13 12h1v1h-1z" /><path fill="#7418f4" d="M14 12h2v1h-2zM14 13h1v1h-1zM13 14h1v1h-1zM12 15h2v1h-2zM11 16h2v1h-2zM11 17h1v1h-1zM10 18h2v1h-2zM9 19h2v1h-2zM8 20h2v1h-2zM8 21h1v1h-1zM7 22h2v1h-2zM6 23h2v1h-2zM6 24h1v1h-1zM5 25h2v1h-2zM4 26h2v1h-2zM3 27h2v1h-2zM3 28h1v1h-1zM2 29h2v1h-2zM1 30h2v1h-2zM1 31h1v1h-1zM0 33h1v1h-1z" /><path fill="#7419f4" d="M16 12h1v1h-1zM15 13h1v1h-1zM14 14h1v1h-1zM13 16h1v1h-1zM12 17h1v1h-1zM11 19h1v1h-1zM10 20h1v1h-1zM9 21h1v1h-1zM8 23h1v1h-1zM7 24h1v1h-1zM6 26h1v1h-1zM5 27h1v1h-1zM4 28h1v1h-1zM3 30h1v1h-1zM2 31h1v1h-1zM1 32h1v1h-1zM0 34h1v1h-1z" /><path fill="#791ff3" d="M27 12h1v1h-1zM26 13h1v1h-1zM25 15h1v1h-1zM24 16h1v1h-1zM22 19h1v1h-1zM21 20h1v1h-1zM19 23h1v1h-1zM18 24h1v1h-1zM17 26h1v1h-1zM16 27h1v1h-1zM14 30h1v1h-1zM13 31h1v1h-1zM12 33h1v1h-1zM11 34h1v1h-1zM9 37h1v1h-1zM8 38h1v1h-1zM6 41h1v1h-1zM5 42h1v1h-1zM3 44h2v1h-2z" /><path fill="#7b23f3" d="M33 12h1v1h-1zM32 13h1v1h-1zM31 14h1v1h-1zM19 31h1v1h-1zM18 32h1v1h-1zM17 34h1v1h-1zM16 35h1v1h-1zM15 36h1v1h-1zM15 37h1v1h-1zM14 38h1v1h-1zM13 39h1v1h-1zM12 41h1v1h-1zM11 42h1v1h-1zM10 43h1v1h-1zM9 45h1v1h-1zM8 46h1v1h-1zM7 47h1v1h-1zM7 48h1v1h-1z" /><path fill="#7c24f3" d="M34 12h2v1h-2zM34 13h1v1h-1zM33 14h2v1h-2zM19 33h1v1h-1zM19 34h1v1h-1zM18 35h1v1h-1zM17 36h2v1h-2zM16 37h2v1h-2zM16 38h1v1h-1zM15 39h1v1h-1zM14 40h2v1h-2zM13 41h2v1h-2zM13 42h1v1h-1zM12 43h2v1h-2zM11 44h2v1h-2zM11 45h1v1h-1zM10 46h1v1h-1zM9 47h2v1h-2zM8 48h2v1h-2zM8 49h1v1h-1zM7 50h2v1h-2zM8 52h1v1h-1z" /><path fill="#7d25f3" d="M36 12h2v1h-2zM35 13h2v1h-2zM35 14h1v1h-1zM19 35h1v1h-1zM19 36h1v1h-1zM18 37h2v1h-2zM17 38h2v1h-2zM17 39h1v1h-1zM16 40h2v1h-2zM15 41h2v1h-2zM14 42h2v1h-2zM14 43h1v1h-1zM13 44h2v1h-2zM12 45h2v1h-2zM12 46h1v1h-1zM11 47h1v1h-1zM10 48h2v1h-2zM9 49h2v1h-2zM9 50h1v1h-1zM8 51h2v1h-2z" /><path fill="#7d26f2" d="M38 12h1v1h-1z" /><path fill="#7d27f2" d="M39 12h1v1h-1z" /><path fill="#f33d73" d="M74 12h1v1h-1zM77 13h1v1h-1zM78 14h1v1h-1zM79 15h1v1h-1z" /><path fill="#f33e73" d="M75 12h1v1h-1zM75 13h2v1h-2zM77 14h1v1h-1zM78 15h1v1h-1zM79 16h2v1h-2zM80 17h1v1h-1zM80 18h1v1h-1z" /><path fill="#f33d74" d="M76 12h1v1h-1zM78 13h1v1h-1zM79 14h1v1h-1zM80 15h1v1h-1z" /><path fill="#f43a74" d="M82 12h1v1h-1z" /><path fill="#f43874" d="M83 12h1v1h-1z" /><path fill="#7216f3" d="M10 13h1v1h-1zM0 27h1v1h-1zM0 30h1v1h-1zM0 31h1v1h-1z" /><path fill="#7316f4" d="M11 13h1v1h-1zM10 14h1v1h-1zM9 16h1v1h-1zM8 17h1v1h-1zM7 18h1v1h-1zM7 19h1v1h-1zM6 20h1v1h-1zM5 21h1v1h-1zM4 23h1v1h-1zM3 24h1v1h-1zM2 25h1v1h-1zM1 27h1v1h-1z" /><path fill="#7317f4" d="M12 13h2v1h-2zM11 14h2v1h-2zM10 15h2v1h-2zM10 16h1v1h-1zM9 17h2v1h-2zM8 18h2v1h-2zM8 19h1v1h-1zM7 20h1v1h-1zM6 21h2v1h-2zM5 22h2v1h-2zM5 23h1v1h-1zM4 24h2v1h-2zM3 25h2v1h-2zM2 26h2v1h-2zM2 27h1v1h-1zM1 28h2v1h-2zM1 29h1v1h-1z" /><path fill="#761af4" d="M18 13h1v1h-1zM15 17h1v1h-1zM13 20h1v1h-1zM10 24h1v1h-1zM5 31h1v1h-1zM2 35h1v1h-1z" /><path fill="#781ff4" d="M25 13h1v1h-1zM22 17h1v1h-1zM20 20h1v1h-1zM17 24h1v1h-1zM14 28h1v1h-1zM12 31h1v1h-1zM9 35h1v1h-1zM7 38h1v1h-1zM4 42h1v1h-1z" /><path fill="#7c23f3" d="M33 13h1v1h-1zM32 14h1v1h-1zM31 15h2v1h-2zM19 32h1v1h-1zM18 33h1v1h-1zM18 34h1v1h-1zM17 35h1v1h-1zM16 36h1v1h-1zM15 38h1v1h-1zM14 39h1v1h-1zM13 40h1v1h-1zM12 42h1v1h-1zM11 43h1v1h-1zM10 44h1v1h-1zM10 45h1v1h-1zM9 46h1v1h-1zM8 47h1v1h-1zM7 49h1v1h-1z" /><path fill="#7d26f3" d="M37 13h1v1h-1zM20 36h1v1h-1zM19 38h1v1h-1zM18 39h1v1h-1zM16 42h1v1h-1zM15 43h1v1h-1zM14 45h1v1h-1zM13 46h1v1h-1zM12 47h1v1h-1zM11 49h1v1h-1zM10 50h1v1h-1zM9 52h1v1h-1z" /><path fill="#7e26f3" d="M38 13h1v1h-1zM20 38h1v1h-1zM19 39h1v1h-1zM18 40h1v1h-1zM17 41h1v1h-1zM17 42h1v1h-1zM16 43h1v1h-1zM15 44h1v1h-1zM15 45h1v1h-1zM14 46h1v1h-1zM13 47h1v1h-1zM12 48h1v1h-1zM12 49h1v1h-1zM11 50h1v1h-1zM10 51h1v1h-1zM10 52h1v1h-1zM9 53h1v1h-1z" /><path fill="#7e27f3" d="M39 13h1v1h-1zM20 39h2v1h-2zM19 40h2v1h-2zM18 41h2v1h-2zM18 42h1v1h-1zM17 43h1v1h-1zM16 44h2v1h-2zM16 45h1v1h-1zM15 46h1v1h-1zM14 47h2v1h-2zM13 48h2v1h-2zM13 49h1v1h-1zM12 50h1v1h-1zM11 51h2v1h-2zM11 52h1v1h-1zM10 53h1v1h-1zM10 54h1v1h-1zM10 55h1v1h-1z" /><path fill="#7f28f3" d="M40 13h2v1h-2zM20 41h2v1h-2zM19 42h2v1h-2zM19 43h1v1h-1zM18 44h2v1h-2zM17 45h2v1h-2zM17 46h1v1h-1zM16 47h2v1h-2zM15 48h2v1h-2zM14 49h2v1h-2zM14 50h1v1h-1zM13 51h2v1h-2zM12 52h2v1h-2zM12 53h1v1h-1zM11 54h1v1h-1zM11 55h1v1h-1zM11 56h1v1h-1z" /><path fill="#7e28f2" d="M42 13h1v1h-1zM41 14h1v1h-1zM21 40h1v1h-1z" /><path fill="#8028f2" d="M43 13h1v1h-1z" /><path fill="#f34073" d="M73 13h1v1h-1zM73 14h2v1h-2zM74 15h2v1h-2zM76 16h1v1h-1zM77 17h1v1h-1zM78 18h2v1h-2zM79 19h1v1h-1z" /><path fill="#f33f73" d="M74 13h1v1h-1zM75 14h2v1h-2zM76 15h2v1h-2zM77 16h2v1h-2zM78 17h2v1h-2z" /><path fill="#7215f3" d="M8 14h1v1h-1z" /><path fill="#7216f4" d="M9 14h1v1h-1zM9 15h1v1h-1zM8 16h1v1h-1zM7 17h1v1h-1zM6 19h1v1h-1zM5 20h1v1h-1zM4 21h1v1h-1zM4 22h1v1h-1zM3 23h1v1h-1zM2 24h1v1h-1zM1 26h1v1h-1zM0 29h1v1h-1z" /><path fill="#7c25f2" d="M36 14h1v1h-1z" /><path fill="#7e25f2" d="M37 14h1v1h-1z" /><path fill="#7e26f2" d="M38 14h1v1h-1z" /><path fill="#7f26f3" d="M39 14h1v1h-1z" /><path fill="#7e27f2" d="M40 14h1v1h-1z" /><path fill="#8029f2" d="M42 14h1v1h-1zM22 42h1v1h-1z" /><path fill="#7f2af3" d="M43 14h1v1h-1z" /><path fill="#8129f3" d="M44 14h1v1h-1z" /><path fill="#802af2" d="M45 14h1v1h-1zM12 58h1v1h-1z" /><path fill="#812cf3" d="M46 14h1v1h-1zM23 46h1v1h-1zM20 50h1v1h-1zM15 57h1v1h-1zM14 60h1v1h-1z" /><path fill="#f24172" d="M72 14h1v1h-1zM79 20h1v1h-1z" /><path fill="#7115f3" d="M7 15h1v1h-1z" /><path fill="#7215f4" d="M8 15h1v1h-1zM7 16h1v1h-1zM6 17h1v1h-1zM5 18h2v1h-2zM4 19h2v1h-2zM4 20h1v1h-1zM3 21h1v1h-1zM2 22h2v1h-2zM2 23h1v1h-1zM1 24h1v1h-1zM1 25h1v1h-1zM0 26h1v1h-1z" /><path fill="#7c24f2" d="M33 15h1v1h-1z" /><path fill="#f24272" d="M71 15h1v1h-1zM78 22h1v1h-1z" /><path fill="#f34273" d="M72 15h1v1h-1zM73 16h1v1h-1zM74 17h1v1h-1zM75 18h1v1h-1zM78 20h1v1h-1z" /><path fill="#f34173" d="M73 15h1v1h-1zM74 16h2v1h-2zM75 17h2v1h-2zM76 18h2v1h-2zM77 19h2v1h-2z" /><path fill="#7015f3" d="M6 16h1v1h-1z" /><path fill="#7b22f2" d="M30 16h1v1h-1zM6 49h1v1h-1z" /><path fill="#f14372" d="M69 16h1v1h-1z" /><path fill="#f24372" d="M70 16h1v1h-1zM73 18h1v1h-1zM74 19h1v1h-1zM75 20h1v1h-1z" /><path fill="#f34372" d="M71 16h1v1h-1zM72 17h1v1h-1zM74 18h1v1h-1zM75 19h1v1h-1zM76 20h1v1h-1zM77 21h1v1h-1z" /><path fill="#f34272" d="M72 16h1v1h-1zM73 17h1v1h-1zM76 19h1v1h-1zM77 20h1v1h-1zM78 21h1v1h-1z" /><path fill="#7014f3" d="M5 17h1v1h-1z" /><path fill="#7a21f2" d="M27 17h1v1h-1zM25 19h1v1h-1z" /><path fill="#f14572" d="M68 17h1v1h-1z" /><path fill="#f24572" d="M69 17h1v1h-1zM69 18h2v1h-2zM71 19h1v1h-1zM72 20h2v1h-2zM73 21h2v1h-2zM74 22h2v1h-2zM76 23h1v1h-1z" /><path fill="#f24472" d="M70 17h2v1h-2zM71 18h2v1h-2zM72 19h2v1h-2zM74 20h1v1h-1zM75 21h2v1h-2zM76 22h2v1h-2zM77 23h1v1h-1z" /><path fill="#7113f4" d="M4 18h1v1h-1z" /><path fill="#7920f2" d="M26 18h1v1h-1zM21 24h1v1h-1zM20 26h1v1h-1z" /><path fill="#f24772" d="M67 18h1v1h-1zM68 19h1v1h-1zM69 20h1v1h-1zM72 22h1v1h-1zM73 23h1v1h-1zM74 24h1v1h-1z" /><path fill="#f24672" d="M68 18h1v1h-1zM69 19h2v1h-2zM70 20h2v1h-2zM71 21h2v1h-2zM73 22h1v1h-1zM74 23h2v1h-2zM75 24h2v1h-2zM76 25h1v1h-1z" /><path fill="#7113f3" d="M3 19h1v1h-1z" /><path fill="#f14770" d="M66 19h1v1h-1zM76 26h1v1h-1z" /><path fill="#f24771" d="M67 19h1v1h-1zM68 20h1v1h-1zM70 21h1v1h-1zM71 22h1v1h-1zM72 23h1v1h-1zM73 24h1v1h-1zM75 25h1v1h-1z" /><path fill="#7115f4" d="M3 20h1v1h-1z" /><path fill="#f24a71" d="M64 20h1v1h-1zM65 21h1v1h-1zM66 22h2v1h-2zM67 23h2v1h-2zM68 24h2v1h-2zM69 25h2v1h-2zM71 26h1v1h-1zM72 27h2v1h-2zM73 28h2v1h-2zM74 29h1v1h-1z" /><path fill="#f24971" d="M65 20h2v1h-2zM66 21h2v1h-2zM68 22h1v1h-1zM69 23h1v1h-1zM70 24h2v1h-2zM71 25h2v1h-2zM72 26h2v1h-2zM74 27h1v1h-1z" /><path fill="#f24871" d="M67 20h1v1h-1zM68 21h2v1h-2zM69 22h2v1h-2zM70 23h2v1h-2zM72 24h1v1h-1zM73 25h2v1h-2zM74 26h2v1h-2zM75 27h1v1h-1zM75 28h1v1h-1z" /><path fill="#7013f3" d="M2 21h1v1h-1z" /><path fill="#7921f2" d="M23 21h1v1h-1z" /><path fill="#f24b71" d="M63 21h2v1h-2zM64 22h2v1h-2zM65 23h2v1h-2zM67 24h1v1h-1zM68 25h1v1h-1zM69 26h2v1h-2zM70 27h2v1h-2zM71 28h2v1h-2zM73 29h1v1h-1z" /><path fill="#7a20f2" d="M22 22h1v1h-1z" /><path fill="#f14b70" d="M62 22h1v1h-1z" /><path fill="#f24c70" d="M63 22h1v1h-1zM64 23h1v1h-1zM65 24h1v1h-1zM66 25h1v1h-1zM69 27h1v1h-1zM70 28h1v1h-1zM71 29h1v1h-1z" /><path fill="#7214f4" d="M1 23h1v1h-1z" /><path fill="#f14e70" d="M60 23h2v1h-2zM61 24h2v1h-2zM63 25h1v1h-1zM64 26h2v1h-2zM65 27h2v1h-2zM66 28h2v1h-2zM68 29h1v1h-1zM69 30h1v1h-1zM70 31h2v1h-2zM71 32h2v1h-2zM72 33h1v1h-1z" /><path fill="#f14d70" d="M62 23h2v1h-2zM63 24h2v1h-2zM64 25h2v1h-2zM66 26h1v1h-1zM67 27h2v1h-2zM68 28h2v1h-2zM69 29h2v1h-2zM70 30h2v1h-2zM72 31h1v1h-1z" /><path fill="#f1506f" d="M59 24h1v1h-1z" /><path fill="#f14f70" d="M60 24h1v1h-1zM61 25h2v1h-2zM62 26h2v1h-2zM63 27h2v1h-2zM65 28h1v1h-1zM66 29h2v1h-2zM67 30h2v1h-2zM68 31h2v1h-2zM70 32h1v1h-1zM71 33h1v1h-1z" /><path fill="#f24c71" d="M66 24h1v1h-1zM67 25h1v1h-1zM68 26h1v1h-1zM72 29h1v1h-1zM73 30h1v1h-1z" /><path fill="#f14472" d="M77 24h1v1h-1z" /><path fill="#f0506e" d="M58 25h1v1h-1z" /><path fill="#f15070" d="M59 25h2v1h-2zM60 26h2v1h-2zM62 27h1v1h-1zM63 28h2v1h-2zM64 29h2v1h-2zM65 30h2v1h-2zM67 31h1v1h-1zM68 32h2v1h-2zM69 33h2v1h-2zM70 34h2v1h-2zM71 35h1v1h-1z" /><path fill="#f0516e" d="M57 26h1v1h-1z" /><path fill="#f1526f" d="M58 26h1v1h-1zM58 27h2v1h-2zM60 28h1v1h-1zM61 29h1v1h-1zM62 30h2v1h-2zM63 31h2v1h-2zM64 32h2v1h-2zM66 33h1v1h-1zM67 34h2v1h-2zM68 35h2v1h-2zM69 36h2v1h-2zM70 37h1v1h-1z" /><path fill="#f1516f" d="M59 26h1v1h-1zM60 27h1v1h-1zM61 28h2v1h-2zM62 29h2v1h-2zM64 30h1v1h-1zM65 31h1v1h-1zM66 32h1v1h-1zM67 33h2v1h-2zM69 34h1v1h-1zM70 35h1v1h-1z" /><path fill="#f14c70" d="M67 26h1v1h-1zM72 30h1v1h-1zM73 31h1v1h-1z" /><path fill="#7a22f3" d="M20 27h1v1h-1zM19 28h1v1h-1zM14 35h1v1h-1zM6 46h1v1h-1z" /><path fill="#f0546e" d="M55 27h1v1h-1z" /><path fill="#f1546f" d="M56 27h1v1h-1zM54 28h1v1h-1zM56 28h2v1h-2zM57 29h2v1h-2zM59 30h1v1h-1zM60 31h1v1h-1zM61 32h2v1h-2zM62 33h2v1h-2zM63 34h2v1h-2zM65 35h1v1h-1zM66 36h2v1h-2zM67 37h2v1h-2zM68 38h2v1h-2z" /><path fill="#f1536f" d="M57 27h1v1h-1zM58 28h2v1h-2zM59 29h2v1h-2zM60 30h2v1h-2zM61 31h2v1h-2zM63 32h1v1h-1zM64 33h2v1h-2zM65 34h2v1h-2zM66 35h2v1h-2zM68 36h1v1h-1zM69 37h1v1h-1zM70 38h1v1h-1z" /><path fill="#f15170" d="M61 27h1v1h-1zM66 31h1v1h-1zM67 32h1v1h-1z" /><path fill="#7b21f3" d="M20 28h1v1h-1z" /><path fill="#f1556f" d="M55 28h1v1h-1zM56 29h1v1h-1zM57 30h2v1h-2zM58 31h2v1h-2zM59 32h2v1h-2zM60 33h2v1h-2zM62 34h1v1h-1zM63 35h2v1h-2zM64 36h2v1h-2zM65 37h2v1h-2zM67 38h1v1h-1zM68 39h2v1h-2zM69 40h1v1h-1z" /><path fill="#ef576d" d="M53 29h1v1h-1zM52 30h1v1h-1zM68 42h1v1h-1z" /><path fill="#f0566e" d="M54 29h1v1h-1zM55 30h2v1h-2zM56 31h2v1h-2zM58 32h1v1h-1zM59 33h1v1h-1zM60 34h2v1h-2zM61 35h2v1h-2zM62 36h2v1h-2zM64 37h1v1h-1zM65 38h1v1h-1zM66 39h2v1h-2zM67 40h2v1h-2z" /><path fill="#f0566f" d="M55 29h1v1h-1zM66 38h1v1h-1z" /><path fill="#f0576e" d="M53 30h2v1h-2zM55 31h1v1h-1zM56 32h2v1h-2zM57 33h2v1h-2zM58 34h2v1h-2zM60 35h1v1h-1zM61 36h1v1h-1zM62 37h2v1h-2zM63 38h2v1h-2zM64 39h2v1h-2zM66 40h1v1h-1zM67 41h2v1h-2z" /><path fill="#f14b71" d="M74 30h1v1h-1z" /><path fill="#ef596e" d="M50 31h1v1h-1z" /><path fill="#f0596e" d="M51 31h2v1h-2zM52 32h2v1h-2zM54 33h1v1h-1zM55 34h2v1h-2zM56 35h2v1h-2zM57 36h2v1h-2zM59 37h1v1h-1zM60 38h1v1h-1zM61 39h2v1h-2zM62 40h2v1h-2zM63 41h2v1h-2zM65 42h1v1h-1zM66 43h2v1h-2z" /><path fill="#f0586e" d="M53 31h2v1h-2zM54 32h2v1h-2zM55 33h2v1h-2zM57 34h1v1h-1zM58 35h2v1h-2zM59 36h2v1h-2zM60 37h2v1h-2zM61 38h2v1h-2zM63 39h1v1h-1zM64 40h2v1h-2zM65 41h2v1h-2zM66 42h2v1h-2z" /><path fill="#f05b6c" d="M49 32h1v1h-1z" /><path fill="#f05b6d" d="M50 32h1v1h-1zM50 33h2v1h-2zM51 34h2v1h-2zM53 35h1v1h-1zM54 36h2v1h-2zM55 37h2v1h-2zM56 38h2v1h-2zM58 39h1v1h-1zM59 40h1v1h-1zM60 41h2v1h-2zM61 42h2v1h-2zM62 43h2v1h-2zM64 44h1v1h-1zM65 45h2v1h-2z" /><path fill="#f05a6e" d="M51 32h1v1h-1zM52 33h2v1h-2zM53 34h2v1h-2zM54 35h2v1h-2zM56 36h1v1h-1zM57 37h2v1h-2zM58 38h2v1h-2zM59 39h2v1h-2zM61 40h1v1h-1zM62 41h1v1h-1zM63 42h2v1h-2zM64 43h2v1h-2zM65 44h2v1h-2z" /><path fill="#f04c70" d="M73 32h1v1h-1z" /><path fill="#f05c6c" d="M48 33h1v1h-1z" /><path fill="#f05c6d" d="M49 33h1v1h-1zM50 34h1v1h-1zM51 35h2v1h-2zM52 36h2v1h-2zM53 37h2v1h-2zM55 38h1v1h-1zM56 39h2v1h-2zM57 40h2v1h-2zM58 41h2v1h-2zM60 42h1v1h-1zM61 43h1v1h-1zM62 44h2v1h-2zM63 45h2v1h-2zM64 46h2v1h-2z" /><path fill="#ef5d6c" d="M47 34h1v1h-1z" /><path fill="#f05d6d" d="M48 34h2v1h-2zM49 35h2v1h-2zM51 36h1v1h-1zM52 37h1v1h-1zM53 38h2v1h-2zM54 39h2v1h-2zM55 40h2v1h-2zM57 41h1v1h-1zM58 42h2v1h-2zM59 43h2v1h-2zM60 44h2v1h-2zM61 45h2v1h-2zM63 46h1v1h-1zM64 47h1v1h-1z" /><path fill="#f04f70" d="M72 34h1v1h-1z" /><path fill="#ef5f6d" d="M46 35h1v1h-1zM47 36h1v1h-1zM48 37h2v1h-2zM50 38h1v1h-1zM51 39h1v1h-1zM52 40h1v1h-1zM53 41h1v1h-1zM55 42h1v1h-1zM56 43h1v1h-1zM57 44h1v1h-1zM58 45h1v1h-1zM59 46h2v1h-2zM61 47h1v1h-1zM62 48h1v1h-1zM63 49h1v1h-1z" /><path fill="#f05f6d" d="M47 35h1v1h-1zM48 36h1v1h-1zM53 40h1v1h-1zM54 41h1v1h-1zM58 44h1v1h-1zM59 45h1v1h-1z" /><path fill="#f05e6d" d="M48 35h1v1h-1zM49 36h2v1h-2zM50 37h2v1h-2zM51 38h2v1h-2zM52 39h2v1h-2zM54 40h1v1h-1zM55 41h2v1h-2zM56 42h2v1h-2zM57 43h2v1h-2zM59 44h1v1h-1zM60 45h1v1h-1zM61 46h2v1h-2zM62 47h2v1h-2zM63 48h2v1h-2z" /><path fill="#ef5f6c" d="M45 36h1v1h-1zM54 42h1v1h-1z" /><path fill="#ef606c" d="M46 36h1v1h-1zM47 37h1v1h-1zM48 38h2v1h-2zM49 39h2v1h-2zM50 40h2v1h-2zM51 41h2v1h-2zM53 42h1v1h-1zM54 43h2v1h-2zM55 44h2v1h-2zM56 45h2v1h-2zM58 46h1v1h-1zM59 47h2v1h-2zM60 48h2v1h-2zM61 49h2v1h-2zM62 50h2v1h-2z" /><path fill="#f1516e" d="M71 36h1v1h-1z" /><path fill="#751bf3" d="M1 37h1v1h-1z" /><path fill="#7e25f3" d="M20 37h1v1h-1z" /><path fill="#ef616b" d="M44 37h1v1h-1zM63 51h1v1h-1z" /><path fill="#ef616c" d="M45 37h2v1h-2zM46 38h2v1h-2zM47 39h2v1h-2zM49 40h1v1h-1zM50 41h1v1h-1zM51 42h2v1h-2zM52 43h2v1h-2zM53 44h2v1h-2zM55 45h1v1h-1zM56 46h2v1h-2zM57 47h2v1h-2zM58 48h2v1h-2zM60 49h1v1h-1zM61 50h1v1h-1zM62 51h1v1h-1z" /><path fill="#ef636b" d="M43 38h1v1h-1z" /><path fill="#ef626c" d="M44 38h2v1h-2zM46 39h1v1h-1zM47 40h2v1h-2zM48 41h2v1h-2zM49 42h2v1h-2zM51 43h1v1h-1zM52 44h1v1h-1zM53 45h2v1h-2zM54 46h2v1h-2zM55 47h2v1h-2zM57 48h1v1h-1zM58 49h2v1h-2zM59 50h2v1h-2zM60 51h2v1h-2z" /><path fill="#974bf2" d="M82 38h1v1h-1zM83 39h1v1h-1zM57 71h2v1h-2zM57 72h1v1h-1zM56 73h1v1h-1zM55 74h2v1h-2zM54 75h2v1h-2zM54 76h1v1h-1zM53 77h1v1h-1zM52 78h2v1h-2zM51 79h2v1h-2zM51 80h1v1h-1zM50 81h1v1h-1zM49 82h2v1h-2zM49 83h1v1h-1z" /><path fill="#7d24f3" d="M16 39h1v1h-1zM11 46h1v1h-1z" /><path fill="#ef646b" d="M42 39h1v1h-1zM43 40h1v1h-1zM48 44h1v1h-1zM53 48h1v1h-1zM54 49h1v1h-1zM59 53h1v1h-1zM61 54h1v1h-1z" /><path fill="#ef646c" d="M43 39h1v1h-1zM44 40h1v1h-1zM45 41h1v1h-1zM46 42h2v1h-2zM47 43h2v1h-2zM49 44h1v1h-1zM50 45h1v1h-1zM51 46h1v1h-1zM52 47h2v1h-2zM54 48h1v1h-1zM55 49h1v1h-1zM56 50h1v1h-1zM57 51h2v1h-2zM58 52h2v1h-2zM60 53h1v1h-1z" /><path fill="#ef636c" d="M44 39h2v1h-2zM45 40h2v1h-2zM46 41h2v1h-2zM48 42h1v1h-1zM49 43h2v1h-2zM50 44h2v1h-2zM51 45h2v1h-2zM52 46h2v1h-2zM54 47h1v1h-1zM55 48h2v1h-2zM56 49h2v1h-2zM57 50h2v1h-2zM59 51h1v1h-1zM60 52h2v1h-2zM61 53h1v1h-1z" /><path fill="#ee656b" d="M41 40h1v1h-1z" /><path fill="#ef656b" d="M42 40h1v1h-1zM43 41h2v1h-2zM44 42h2v1h-2zM45 43h2v1h-2zM47 44h1v1h-1zM48 45h2v1h-2zM49 46h2v1h-2zM50 47h2v1h-2zM51 48h2v1h-2zM53 49h1v1h-1zM54 50h2v1h-2zM55 51h2v1h-2zM56 52h2v1h-2zM58 53h1v1h-1zM59 54h2v1h-2zM60 55h1v1h-1z" /><path fill="#f05b6e" d="M60 40h1v1h-1z" /><path fill="#994df2" d="M83 40h2v1h-2zM60 72h2v1h-2zM60 73h1v1h-1zM59 74h1v1h-1zM58 75h1v1h-1zM57 76h2v1h-2zM57 77h1v1h-1zM56 78h1v1h-1zM55 79h2v1h-2zM55 80h1v1h-1zM54 81h1v1h-1zM53 82h1v1h-1zM52 83h2v1h-2zM52 84h1v1h-1zM51 85h1v1h-1z" /><path fill="#761df3" d="M2 41h1v1h-1z" /><path fill="#f0676b" d="M40 41h1v1h-1z" /><path fill="#ef666b" d="M41 41h2v1h-2zM42 42h2v1h-2zM44 43h1v1h-1zM45 44h2v1h-2zM46 45h2v1h-2zM47 46h2v1h-2zM49 47h1v1h-1zM50 48h1v1h-1zM51 49h2v1h-2zM52 50h2v1h-2zM53 51h2v1h-2zM55 52h1v1h-1zM56 53h2v1h-2zM57 54h2v1h-2zM58 55h2v1h-2z" /><path fill="#994ef2" d="M84 41h1v1h-1zM62 72h1v1h-1zM61 73h1v1h-1zM60 74h1v1h-1zM59 75h2v1h-2zM59 76h1v1h-1zM58 77h1v1h-1zM57 78h1v1h-1zM57 79h1v1h-1zM56 80h1v1h-1zM55 81h1v1h-1zM54 82h2v1h-2zM54 83h1v1h-1zM53 84h1v1h-1zM52 85h1v1h-1z" /><path fill="#7f29f3" d="M21 42h1v1h-1zM20 43h1v1h-1zM18 46h1v1h-1zM16 49h1v1h-1zM15 50h1v1h-1zM13 53h1v1h-1zM12 54h1v1h-1z" /><path fill="#f0686c" d="M39 42h1v1h-1z" /><path fill="#ef686b" d="M40 42h1v1h-1zM41 43h1v1h-1zM42 44h1v1h-1zM45 46h1v1h-1zM46 47h1v1h-1zM47 48h1v1h-1zM48 49h1v1h-1zM50 50h1v1h-1zM51 51h1v1h-1zM52 52h1v1h-1zM53 53h1v1h-1zM56 55h1v1h-1zM57 56h1v1h-1zM58 57h1v1h-1z" /><path fill="#ef676b" d="M41 42h1v1h-1zM42 43h2v1h-2zM43 44h2v1h-2zM44 45h2v1h-2zM46 46h1v1h-1zM47 47h2v1h-2zM48 48h2v1h-2zM49 49h2v1h-2zM51 50h1v1h-1zM52 51h1v1h-1zM53 52h2v1h-2zM54 53h2v1h-2zM55 54h2v1h-2zM57 55h1v1h-1zM58 56h1v1h-1z" /><path fill="#9a4ef1" d="M84 42h2v1h-2z" /><path fill="#7f27f3" d="M18 43h1v1h-1zM16 46h1v1h-1zM13 50h1v1h-1zM11 53h1v1h-1z" /><path fill="#8029f3" d="M21 43h1v1h-1zM20 44h1v1h-1zM19 45h2v1h-2zM19 46h1v1h-1zM18 47h1v1h-1zM17 48h1v1h-1zM17 49h1v1h-1zM16 50h1v1h-1zM15 51h1v1h-1zM14 52h2v1h-2zM14 53h1v1h-1zM13 54h1v1h-1zM12 55h1v1h-1zM12 56h1v1h-1z" /><path fill="#7f2af2" d="M22 43h1v1h-1z" /><path fill="#ee696b" d="M39 43h1v1h-1zM40 44h1v1h-1zM42 45h1v1h-1zM43 46h1v1h-1zM44 47h1v1h-1zM45 48h1v1h-1zM46 49h2v1h-2zM48 50h1v1h-1zM49 51h1v1h-1zM50 52h1v1h-1zM51 53h1v1h-1zM53 54h1v1h-1zM54 55h1v1h-1zM55 56h1v1h-1zM56 57h1v1h-1zM57 58h1v1h-1z" /><path fill="#ee686b" d="M40 43h1v1h-1zM41 44h1v1h-1zM43 45h1v1h-1zM44 46h1v1h-1zM45 47h1v1h-1zM46 48h1v1h-1zM49 50h1v1h-1zM50 51h1v1h-1zM51 52h1v1h-1zM52 53h1v1h-1zM54 54h1v1h-1zM55 55h1v1h-1zM56 56h1v1h-1zM57 57h1v1h-1z" /><path fill="#9a4ff2" d="M85 43h1v1h-1zM63 72h2v1h-2zM63 73h1v1h-1zM62 74h1v1h-1zM61 75h2v1h-2zM60 76h2v1h-2zM60 77h1v1h-1zM59 78h2v1h-2zM58 79h2v1h-2zM57 80h2v1h-2zM57 81h1v1h-1zM56 82h2v1h-2zM55 83h2v1h-2zM55 84h1v1h-1zM54 85h2v1h-2z" /><path fill="#9a50f1" d="M86 43h1v1h-1zM85 44h1v1h-1z" /><path fill="#802af3" d="M21 44h2v1h-2zM21 45h1v1h-1zM20 46h1v1h-1zM19 47h1v1h-1zM18 48h2v1h-2zM18 49h1v1h-1zM17 50h1v1h-1zM16 51h2v1h-2zM16 52h1v1h-1zM15 53h1v1h-1zM14 54h1v1h-1zM13 55h2v1h-2zM13 56h1v1h-1zM12 57h1v1h-1z" /><path fill="#812af3" d="M23 44h1v1h-1zM21 46h1v1h-1zM20 47h1v1h-1zM18 50h1v1h-1zM16 53h1v1h-1zM15 54h1v1h-1zM13 57h1v1h-1z" /><path fill="#ee6a6a" d="M38 44h2v1h-2zM39 45h2v1h-2zM41 46h1v1h-1zM42 47h1v1h-1zM43 48h2v1h-2zM44 49h2v1h-2zM45 50h2v1h-2zM47 51h1v1h-1zM48 52h2v1h-2zM49 53h2v1h-2zM50 54h2v1h-2zM52 55h1v1h-1zM53 56h1v1h-1zM54 57h2v1h-2zM55 58h2v1h-2zM56 59h1v1h-1z" /><path fill="#ef586e" d="M67 44h1v1h-1z" /><path fill="#9b50f2" d="M86 44h1v1h-1zM65 72h2v1h-2zM64 73h2v1h-2zM64 74h1v1h-1zM63 75h1v1h-1zM62 76h2v1h-2zM62 77h1v1h-1zM61 78h1v1h-1zM60 79h2v1h-2zM59 80h2v1h-2zM59 81h1v1h-1zM58 82h1v1h-1zM57 83h2v1h-2zM57 84h1v1h-1zM56 85h1v1h-1zM55 86h1v1h-1z" /><path fill="#9a51f2" d="M87 44h1v1h-1z" /><path fill="#781ff2" d="M4 45h1v1h-1z" /><path fill="#812bf3" d="M22 45h1v1h-1zM22 46h1v1h-1zM21 47h2v1h-2zM20 48h2v1h-2zM19 49h2v1h-2zM19 50h1v1h-1zM18 51h2v1h-2zM17 52h2v1h-2zM17 53h1v1h-1zM16 54h2v1h-2zM15 55h2v1h-2zM14 56h2v1h-2zM14 57h1v1h-1zM13 58h2v1h-2zM13 59h1v1h-1z" /><path fill="#812bf2" d="M23 45h1v1h-1z" /><path fill="#ee6c6a" d="M37 45h1v1h-1zM37 46h2v1h-2zM38 47h2v1h-2zM40 48h1v1h-1zM41 49h1v1h-1zM42 50h2v1h-2zM43 51h2v1h-2zM44 52h2v1h-2zM46 53h1v1h-1zM47 54h2v1h-2zM48 55h2v1h-2zM49 56h2v1h-2zM51 57h1v1h-1zM52 58h1v1h-1zM53 59h2v1h-2zM54 60h2v1h-2z" /><path fill="#ee6b6a" d="M38 45h1v1h-1zM39 46h2v1h-2zM40 47h2v1h-2zM41 48h2v1h-2zM42 49h2v1h-2zM44 50h1v1h-1zM45 51h2v1h-2zM46 52h2v1h-2zM47 53h2v1h-2zM49 54h1v1h-1zM50 55h2v1h-2zM51 56h2v1h-2zM52 57h2v1h-2zM53 58h2v1h-2zM55 59h1v1h-1zM56 60h1v1h-1z" /><path fill="#ee696a" d="M41 45h1v1h-1zM42 46h1v1h-1zM43 47h1v1h-1zM47 50h1v1h-1zM48 51h1v1h-1zM52 54h1v1h-1zM53 55h1v1h-1zM54 56h1v1h-1z" /><path fill="#9b51f2" d="M86 45h1v1h-1zM67 72h1v1h-1zM66 73h1v1h-1zM65 74h1v1h-1zM64 75h1v1h-1zM64 76h1v1h-1zM63 77h1v1h-1zM62 78h1v1h-1zM62 79h1v1h-1zM61 80h1v1h-1zM60 81h1v1h-1zM59 82h1v1h-1zM59 83h1v1h-1zM58 84h1v1h-1zM57 85h1v1h-1zM56 86h2v1h-2zM57 87h1v1h-1z" /><path fill="#9c51f2" d="M87 45h1v1h-1zM67 73h1v1h-1zM66 74h1v1h-1zM65 75h1v1h-1zM64 77h1v1h-1zM63 78h1v1h-1zM62 80h1v1h-1zM61 81h1v1h-1zM60 82h1v1h-1zM59 84h1v1h-1zM58 85h1v1h-1z" /><path fill="#9b52f1" d="M88 45h1v1h-1z" /><path fill="#7a1ff2" d="M4 46h1v1h-1z" /><path fill="#822cf3" d="M24 46h1v1h-1zM23 47h1v1h-1zM22 48h2v1h-2zM21 49h2v1h-2zM21 50h1v1h-1zM20 51h1v1h-1zM19 52h2v1h-2zM18 53h2v1h-2zM18 54h1v1h-1zM17 55h1v1h-1zM16 56h2v1h-2zM16 57h1v1h-1zM15 58h1v1h-1zM14 59h2v1h-2z" /><path fill="#ef6d6a" d="M36 46h1v1h-1z" /><path fill="#ef5b6d" d="M66 46h1v1h-1z" /><path fill="#9c51f1" d="M86 46h1v1h-1zM88 46h1v1h-1zM86 47h1v1h-1z" /><path fill="#9c52f2" d="M87 46h1v1h-1zM87 47h1v1h-1zM71 71h1v1h-1zM68 72h2v1h-2zM68 73h1v1h-1zM67 74h2v1h-2zM66 75h2v1h-2zM65 76h2v1h-2zM65 77h1v1h-1zM64 78h2v1h-2zM63 79h2v1h-2zM63 80h1v1h-1zM62 81h1v1h-1zM61 82h2v1h-2zM60 83h2v1h-2zM60 84h1v1h-1zM59 85h2v1h-2zM58 86h2v1h-2zM58 87h1v1h-1z" /><path fill="#822df3" d="M24 47h1v1h-1zM24 48h1v1h-1zM23 49h1v1h-1zM22 50h1v1h-1zM21 51h1v1h-1zM21 52h1v1h-1zM20 53h1v1h-1zM19 54h1v1h-1zM18 55h1v1h-1zM18 56h1v1h-1zM17 57h1v1h-1zM16 58h1v1h-1zM16 59h1v1h-1zM15 60h1v1h-1zM15 61h1v1h-1z" /><path fill="#ee6e6a" d="M36 47h1v1h-1zM37 48h1v1h-1zM38 49h1v1h-1zM39 50h1v1h-1zM40 51h1v1h-1zM42 52h1v1h-1zM43 53h1v1h-1zM44 54h1v1h-1zM45 55h1v1h-1zM47 56h1v1h-1zM48 57h1v1h-1zM49 58h1v1h-1zM50 59h1v1h-1zM51 60h1v1h-1zM53 61h1v1h-1zM54 62h1v1h-1z" /><path fill="#ee6d6a" d="M37 47h1v1h-1zM38 48h2v1h-2zM39 49h2v1h-2zM40 50h2v1h-2zM41 51h2v1h-2zM43 52h1v1h-1zM44 53h2v1h-2zM45 54h2v1h-2zM46 55h2v1h-2zM48 56h1v1h-1zM49 57h2v1h-2zM50 58h2v1h-2zM51 59h2v1h-2zM52 60h2v1h-2zM54 61h1v1h-1z" /><path fill="#ef5c6c" d="M65 47h1v1h-1zM65 48h1v1h-1z" /><path fill="#9d53f2" d="M88 47h1v1h-1zM87 48h2v1h-2zM87 49h1v1h-1zM70 72h2v1h-2zM69 73h2v1h-2zM69 74h1v1h-1zM68 75h1v1h-1zM67 76h2v1h-2zM66 77h2v1h-2zM66 78h1v1h-1zM65 79h2v1h-2zM64 80h2v1h-2zM64 81h1v1h-1zM63 82h1v1h-1zM62 83h2v1h-2zM61 84h2v1h-2zM61 85h1v1h-1zM60 86h2v1h-2zM59 87h2v1h-2z" /><path fill="#9c53f1" d="M89 47h1v1h-1zM72 71h1v1h-1z" /><path fill="#832ef3" d="M25 48h1v1h-1zM24 49h2v1h-2zM24 50h1v1h-1zM23 51h2v1h-2zM22 52h2v1h-2zM22 53h1v1h-1zM21 54h2v1h-2zM20 55h2v1h-2zM19 56h2v1h-2zM19 57h1v1h-1zM18 58h2v1h-2zM17 59h2v1h-2zM17 60h1v1h-1zM16 61h1v1h-1z" /><path fill="#ef6f69" d="M35 48h1v1h-1z" /><path fill="#ee6e69" d="M36 48h1v1h-1zM37 49h1v1h-1zM41 52h1v1h-1zM42 53h1v1h-1zM43 54h1v1h-1zM46 56h1v1h-1zM47 57h1v1h-1zM48 58h1v1h-1zM52 61h1v1h-1zM53 62h1v1h-1z" /><path fill="#9d54f2" d="M89 48h1v1h-1zM88 49h1v1h-1zM87 53h1v1h-1zM71 73h1v1h-1zM70 74h1v1h-1zM69 75h1v1h-1zM69 76h1v1h-1zM68 77h1v1h-1zM67 78h1v1h-1zM66 80h1v1h-1zM65 81h1v1h-1zM64 82h1v1h-1zM64 83h1v1h-1zM63 84h1v1h-1zM62 85h1v1h-1zM61 87h1v1h-1z" /><path fill="#9e53f1" d="M90 48h1v1h-1z" /><path fill="#832ff3" d="M26 49h1v1h-1zM17 61h1v1h-1z" /><path fill="#ee7069" d="M35 49h1v1h-1zM35 50h2v1h-2zM36 51h2v1h-2zM38 52h1v1h-1zM39 53h2v1h-2zM40 54h2v1h-2zM41 55h2v1h-2zM42 56h2v1h-2zM44 57h1v1h-1zM45 58h2v1h-2zM46 59h2v1h-2zM47 60h2v1h-2zM49 61h1v1h-1zM50 62h2v1h-2zM51 63h3v1h-3z" /><path fill="#ee6f69" d="M36 49h1v1h-1zM37 50h2v1h-2zM38 51h2v1h-2zM39 52h2v1h-2zM41 53h1v1h-1zM42 54h1v1h-1zM43 55h2v1h-2zM44 56h2v1h-2zM45 57h2v1h-2zM47 58h1v1h-1zM48 59h2v1h-2zM49 60h2v1h-2zM50 61h2v1h-2zM52 62h1v1h-1z" /><path fill="#f05e6c" d="M64 49h1v1h-1z" /><path fill="#9e54f2" d="M89 49h1v1h-1zM88 50h1v1h-1zM72 72h1v1h-1zM72 73h1v1h-1zM71 74h1v1h-1zM70 75h1v1h-1zM69 77h1v1h-1zM68 78h1v1h-1zM67 79h1v1h-1zM67 80h1v1h-1zM66 81h1v1h-1zM65 82h1v1h-1zM64 84h1v1h-1zM63 85h1v1h-1zM62 86h1v1h-1z" /><path fill="#9e54f1" d="M90 49h1v1h-1zM87 52h1v1h-1zM62 88h1v1h-1z" /><path fill="#832df3" d="M23 50h1v1h-1zM22 51h1v1h-1zM21 53h1v1h-1zM20 54h1v1h-1zM19 55h1v1h-1zM18 57h1v1h-1zM17 58h1v1h-1zM16 60h1v1h-1z" /><path fill="#842ff3" d="M25 50h2v1h-2zM25 51h1v1h-1zM24 52h2v1h-2zM23 53h2v1h-2zM23 54h1v1h-1zM22 55h1v1h-1zM21 56h2v1h-2zM20 57h2v1h-2zM20 58h1v1h-1zM19 59h2v1h-2zM18 60h2v1h-2zM18 61h1v1h-1zM17 62h1v1h-1z" /><path fill="#ee7169" d="M34 50h1v1h-1zM35 51h1v1h-1zM36 52h2v1h-2zM38 53h1v1h-1zM39 54h1v1h-1zM40 55h1v1h-1zM41 56h1v1h-1zM42 57h2v1h-2zM44 58h1v1h-1zM45 59h1v1h-1zM46 60h1v1h-1zM47 61h2v1h-2zM49 62h1v1h-1z" /><path fill="#9d52f1" d="M87 50h1v1h-1z" /><path fill="#9e55f2" d="M89 50h2v1h-2zM88 51h2v1h-2zM88 52h1v1h-1zM88 53h1v1h-1zM74 71h2v1h-2zM73 72h2v1h-2zM73 73h1v1h-1zM72 74h1v1h-1zM71 75h2v1h-2zM70 76h2v1h-2zM70 77h1v1h-1zM69 78h2v1h-2zM68 79h2v1h-2zM68 80h1v1h-1zM67 81h1v1h-1zM66 82h2v1h-2zM65 83h2v1h-2zM65 84h1v1h-1zM64 85h1v1h-1zM63 86h2v1h-2zM62 87h2v1h-2z" /><path fill="#9f56f1" d="M91 50h1v1h-1zM78 69h1v1h-1z" /><path fill="#7b24f3" d="M7 51h1v1h-1z" /><path fill="#8430f3" d="M26 51h1v1h-1zM28 52h1v1h-1zM25 53h1v1h-1zM24 54h1v1h-1zM23 55h1v1h-1zM23 56h1v1h-1zM22 57h1v1h-1zM21 58h1v1h-1zM20 60h1v1h-1zM19 61h1v1h-1zM18 62h1v1h-1zM18 63h1v1h-1z" /><path fill="#8530f3" d="M27 51h1v1h-1zM26 52h1v1h-1zM26 53h1v1h-1zM25 54h1v1h-1zM24 55h1v1h-1zM23 57h1v1h-1zM22 58h1v1h-1zM21 59h1v1h-1zM21 60h1v1h-1zM20 61h1v1h-1zM19 62h1v1h-1z" /><path fill="#ed7269" d="M34 51h1v1h-1zM35 52h1v1h-1zM36 53h1v1h-1zM38 55h2v1h-2zM39 56h2v1h-2zM41 57h1v1h-1zM45 60h1v1h-1z" /><path fill="#9c53f2" d="M87 51h1v1h-1zM63 81h1v1h-1zM60 88h1v1h-1z" /><path fill="#9f56f2" d="M90 51h2v1h-2zM89 52h2v1h-2zM89 53h1v1h-1zM88 54h2v1h-2zM88 55h1v1h-1zM86 60h1v1h-1zM76 70h2v1h-2zM76 71h1v1h-1zM75 72h2v1h-2zM74 73h2v1h-2zM74 74h1v1h-1zM73 75h2v1h-2zM72 76h2v1h-2zM71 77h2v1h-2zM71 78h1v1h-1zM70 79h2v1h-2zM69 80h2v1h-2zM68 81h2v1h-2zM68 82h1v1h-1zM67 83h2v1h-2zM66 84h2v1h-2zM66 85h1v1h-1zM65 86h2v1h-2zM64 87h2v1h-2zM63 88h2v1h-2z" /><path fill="#8531f3" d="M27 52h1v1h-1zM27 53h1v1h-1zM26 54h1v1h-1zM25 55h2v1h-2zM24 56h2v1h-2zM24 57h1v1h-1zM23 58h2v1h-2zM22 59h2v1h-2zM22 60h1v1h-1zM21 61h1v1h-1zM20 62h2v1h-2zM19 63h2v1h-2zM19 64h1v1h-1z" /><path fill="#ee616b" d="M62 52h1v1h-1z" /><path fill="#9f57f2" d="M91 52h1v1h-1zM90 53h1v1h-1zM89 55h1v1h-1zM88 56h1v1h-1zM83 65h1v1h-1zM82 66h1v1h-1zM78 70h1v1h-1zM77 71h1v1h-1zM76 73h1v1h-1zM75 74h1v1h-1zM73 77h1v1h-1zM72 78h1v1h-1zM71 80h1v1h-1zM70 81h1v1h-1zM69 82h1v1h-1zM68 84h1v1h-1zM67 85h1v1h-1zM65 88h1v1h-1zM66 89h1v1h-1z" /><path fill="#a057f2" d="M92 52h1v1h-1zM91 53h1v1h-1zM90 54h1v1h-1zM90 55h1v1h-1zM89 56h1v1h-1zM88 57h1v1h-1zM87 58h1v1h-1zM87 59h1v1h-1zM81 67h1v1h-1zM79 69h2v1h-2zM79 70h1v1h-1zM78 71h1v1h-1zM77 72h1v1h-1zM77 73h1v1h-1zM76 74h1v1h-1zM75 75h1v1h-1zM74 76h1v1h-1zM74 77h1v1h-1zM73 78h1v1h-1zM72 79h1v1h-1zM72 80h1v1h-1zM71 81h1v1h-1zM70 82h1v1h-1zM69 83h1v1h-1zM69 84h1v1h-1zM68 85h1v1h-1zM67 86h1v1h-1zM66 87h2v1h-2zM66 88h1v1h-1z" /><path fill="#8632f3" d="M28 53h1v1h-1zM28 54h1v1h-1zM27 55h2v1h-2zM26 56h2v1h-2zM25 57h2v1h-2zM25 58h1v1h-1zM24 59h2v1h-2zM23 60h2v1h-2zM23 61h1v1h-1zM22 62h1v1h-1zM21 63h2v1h-2zM20 64h2v1h-2zM20 65h1v1h-1z" /><path fill="#8631f2" d="M29 53h1v1h-1z" /><path fill="#ed7169" d="M37 53h1v1h-1zM38 54h1v1h-1zM43 58h1v1h-1zM44 59h1v1h-1z" /><path fill="#a058f2" d="M92 53h1v1h-1zM91 54h1v1h-1zM89 57h1v1h-1zM88 58h1v1h-1zM87 60h1v1h-1zM82 67h1v1h-1zM81 68h1v1h-1zM79 71h1v1h-1zM78 72h1v1h-1zM76 75h1v1h-1zM75 76h1v1h-1zM74 78h1v1h-1zM73 79h1v1h-1zM71 82h1v1h-1zM70 83h1v1h-1zM69 85h1v1h-1zM68 86h1v1h-1z" /><path fill="#a058f0" d="M93 53h1v1h-1zM67 89h1v1h-1z" /><path fill="#7d27f3" d="M9 54h1v1h-1z" /><path fill="#8631f3" d="M27 54h1v1h-1zM22 61h1v1h-1z" /><path fill="#8633f3" d="M29 54h1v1h-1zM27 57h1v1h-1zM26 58h1v1h-1zM25 60h1v1h-1zM24 61h1v1h-1zM23 62h1v1h-1zM22 64h1v1h-1zM21 65h1v1h-1z" /><path fill="#8632f2" d="M30 54h1v1h-1z" /><path fill="#ee7269" d="M37 54h1v1h-1z" /><path fill="#9d55f1" d="M87 54h1v1h-1z" /><path fill="#a058f1" d="M92 54h1v1h-1zM91 55h1v1h-1zM90 56h1v1h-1zM90 57h1v1h-1zM89 58h1v1h-1zM88 59h1v1h-1zM87 61h1v1h-1zM86 62h1v1h-1zM84 65h1v1h-1zM83 66h1v1h-1zM82 68h1v1h-1zM81 69h1v1h-1zM80 70h1v1h-1zM79 72h1v1h-1zM78 73h1v1h-1zM77 74h1v1h-1zM77 75h1v1h-1zM76 76h1v1h-1zM75 77h1v1h-1zM74 79h1v1h-1zM73 80h1v1h-1zM72 81h1v1h-1zM71 83h1v1h-1zM70 84h1v1h-1zM69 86h1v1h-1zM68 87h1v1h-1zM67 88h1v1h-1z" /><path fill="#a159f0" d="M93 54h1v1h-1zM68 89h1v1h-1z" /><path fill="#8733f3" d="M29 55h1v1h-1zM31 55h1v1h-1zM28 56h1v1h-1zM28 57h1v1h-1zM27 58h1v1h-1zM26 59h1v1h-1zM26 60h1v1h-1zM25 61h1v1h-1zM24 62h1v1h-1zM23 63h1v1h-1zM23 64h1v1h-1zM22 65h1v1h-1zM21 66h1v1h-1zM21 67h1v1h-1z" /><path fill="#8734f3" d="M30 55h1v1h-1zM29 56h2v1h-2zM29 57h1v1h-1zM28 58h1v1h-1zM27 59h2v1h-2zM27 60h1v1h-1zM26 61h1v1h-1zM25 62h1v1h-1zM24 63h2v1h-2zM24 64h1v1h-1zM23 65h1v1h-1zM22 66h2v1h-2zM22 67h1v1h-1z" /><path fill="#9f55f2" d="M87 55h1v1h-1zM87 56h1v1h-1zM73 74h1v1h-1zM65 85h1v1h-1z" /><path fill="#a159f1" d="M92 55h2v1h-2zM92 56h1v1h-1zM94 56h1v1h-1zM91 57h2v1h-2zM90 58h2v1h-2zM89 59h2v1h-2zM89 60h1v1h-1zM88 61h2v1h-2zM87 62h2v1h-2zM87 63h1v1h-1zM86 64h1v1h-1zM85 65h2v1h-2zM84 66h2v1h-2zM84 67h1v1h-1zM83 68h2v1h-2zM82 69h2v1h-2zM81 70h2v1h-2zM81 71h1v1h-1zM80 72h2v1h-2zM79 73h2v1h-2zM79 74h1v1h-1zM78 75h2v1h-2zM77 76h2v1h-2zM76 77h2v1h-2zM76 78h1v1h-1zM75 79h2v1h-2zM74 80h2v1h-2zM74 81h1v1h-1zM73 82h1v1h-1zM72 83h2v1h-2zM71 84h2v1h-2zM71 85h1v1h-1zM70 86h2v1h-2zM69 87h2v1h-2zM68 88h2v1h-2z" /><path fill="#a25af0" d="M94 55h1v1h-1z" /><path fill="#8835f3" d="M31 56h1v1h-1zM30 57h2v1h-2zM30 58h1v1h-1zM29 59h2v1h-2zM28 60h2v1h-2zM28 61h1v1h-1zM27 62h2v1h-2zM26 63h2v1h-2zM25 64h2v1h-2zM25 65h1v1h-1zM24 66h2v1h-2zM23 67h2v1h-2zM23 68h1v1h-1z" /><path fill="#8834f2" d="M32 56h1v1h-1z" /><path fill="#ee676b" d="M59 56h1v1h-1z" /><path fill="#a158f1" d="M91 56h1v1h-1zM88 60h1v1h-1zM86 63h1v1h-1zM85 64h1v1h-1zM83 67h1v1h-1zM80 71h1v1h-1zM78 74h1v1h-1zM75 78h1v1h-1zM73 81h1v1h-1zM72 82h1v1h-1zM70 85h1v1h-1z" /><path fill="#a15af1" d="M93 56h1v1h-1zM91 59h1v1h-1zM90 60h1v1h-1zM88 63h1v1h-1zM87 64h1v1h-1zM85 67h1v1h-1zM83 70h1v1h-1zM82 71h1v1h-1zM80 74h1v1h-1zM78 77h1v1h-1zM77 78h1v1h-1zM75 81h1v1h-1zM74 82h1v1h-1zM72 85h1v1h-1zM70 88h1v1h-1zM69 89h1v1h-1z" /><path fill="#8836f3" d="M32 57h1v1h-1zM31 58h1v1h-1zM29 61h1v1h-1zM26 65h1v1h-1zM24 68h1v1h-1z" /><path fill="#8935f2" d="M33 57h1v1h-1z" /><path fill="#ee736a" d="M40 57h1v1h-1z" /><path fill="#9e56f1" d="M87 57h1v1h-1z" /><path fill="#a25af1" d="M93 57h1v1h-1zM92 58h1v1h-1zM92 59h1v1h-1zM91 60h1v1h-1zM90 61h1v1h-1zM89 62h2v1h-2zM89 63h1v1h-1zM88 64h1v1h-1zM87 65h1v1h-1zM86 66h2v1h-2zM86 67h1v1h-1zM85 68h1v1h-1zM84 69h2v1h-2zM84 70h1v1h-1zM83 71h1v1h-1zM82 72h1v1h-1zM81 73h2v1h-2zM81 74h1v1h-1zM80 75h1v1h-1zM79 76h1v1h-1zM79 77h1v1h-1zM78 78h1v1h-1zM77 79h1v1h-1zM76 80h2v1h-2zM76 81h1v1h-1zM75 82h1v1h-1zM74 83h1v1h-1zM73 84h2v1h-2zM73 85h1v1h-1zM72 86h1v1h-1zM71 87h2v1h-2zM71 88h1v1h-1zM70 89h1v1h-1z" /><path fill="#a25bf1" d="M94 57h1v1h-1zM93 58h2v1h-2zM93 59h1v1h-1zM92 60h1v1h-1zM91 61h1v1h-1zM91 62h1v1h-1zM90 63h1v1h-1zM89 64h1v1h-1zM88 65h2v1h-2zM88 66h1v1h-1zM87 67h1v1h-1zM86 68h1v1h-1zM86 69h1v1h-1zM85 70h1v1h-1zM84 71h1v1h-1zM83 72h2v1h-2zM83 73h1v1h-1zM82 74h1v1h-1zM81 75h1v1h-1zM80 76h2v1h-2zM80 77h1v1h-1zM79 78h1v1h-1zM78 79h1v1h-1zM78 80h1v1h-1zM77 81h1v1h-1zM76 82h1v1h-1zM75 83h2v1h-2zM75 84h1v1h-1zM74 85h1v1h-1zM73 86h1v1h-1zM73 87h1v1h-1zM72 88h1v1h-1zM71 89h1v1h-1z" /><path fill="#8834f3" d="M29 58h1v1h-1zM27 61h1v1h-1zM26 62h1v1h-1zM24 65h1v1h-1z" /><path fill="#8936f3" d="M32 58h1v1h-1zM31 59h1v1h-1zM30 60h2v1h-2zM30 61h1v1h-1zM29 62h1v1h-1zM28 63h1v1h-1zM27 64h2v1h-2zM27 65h1v1h-1zM26 66h1v1h-1zM25 67h2v1h-2zM25 68h1v1h-1zM25 70h1v1h-1z" /><path fill="#8937f3" d="M33 58h2v1h-2zM32 59h1v1h-1zM32 60h1v1h-1zM31 61h1v1h-1zM30 62h1v1h-1zM29 63h2v1h-2zM29 64h1v1h-1zM28 65h1v1h-1zM27 66h1v1h-1zM27 67h1v1h-1zM26 68h1v1h-1zM25 69h1v1h-1z" /><path fill="#ee7268" d="M42 58h1v1h-1zM46 61h1v1h-1z" /><path fill="#ef696b" d="M58 58h1v1h-1z" /><path fill="#a25cf0" d="M95 58h1v1h-1z" /><path fill="#8a37f3" d="M33 59h1v1h-1zM35 59h1v1h-1zM32 61h1v1h-1zM31 62h1v1h-1zM29 65h1v1h-1zM28 66h1v1h-1zM27 68h1v1h-1zM26 69h1v1h-1zM26 71h1v1h-1z" /><path fill="#8a38f3" d="M34 59h1v1h-1zM33 60h2v1h-2zM36 60h1v1h-1zM33 61h1v1h-1zM32 62h2v1h-2zM31 63h2v1h-2zM30 64h2v1h-2zM30 65h1v1h-1zM29 66h2v1h-2zM28 67h2v1h-2zM28 68h1v1h-1zM27 69h1v1h-1zM26 70h2v1h-2zM27 72h1v1h-1z" /><path fill="#ed7268" d="M43 59h1v1h-1z" /><path fill="#ef6a6a" d="M57 59h1v1h-1z" /><path fill="#a35cf1" d="M94 59h2v1h-2zM94 60h1v1h-1zM93 61h2v1h-2zM92 62h2v1h-2zM92 63h1v1h-1zM91 64h2v1h-2zM90 65h2v1h-2zM89 66h2v1h-2zM89 67h1v1h-1zM88 68h2v1h-2zM87 69h2v1h-2zM87 70h1v1h-1zM86 71h1v1h-1zM85 72h2v1h-2zM84 73h2v1h-2zM84 74h1v1h-1zM83 75h2v1h-2zM82 76h2v1h-2zM81 77h2v1h-2zM81 78h1v1h-1zM80 79h2v1h-2zM79 80h2v1h-2zM79 81h1v1h-1zM78 82h2v1h-2zM77 83h2v1h-2zM76 84h2v1h-2zM76 85h1v1h-1zM75 86h2v1h-2zM74 87h2v1h-2zM74 88h1v1h-1zM73 89h1v1h-1z" /><path fill="#8b39f3" d="M35 60h1v1h-1zM34 61h2v1h-2zM34 62h1v1h-1zM33 63h2v1h-2zM32 64h2v1h-2zM32 65h1v1h-1zM31 66h1v1h-1zM30 67h2v1h-2zM29 68h2v1h-2zM29 69h1v1h-1zM28 70h1v1h-1zM27 71h2v1h-2z" /><path fill="#a35bf1" d="M93 60h1v1h-1zM92 61h1v1h-1zM91 63h1v1h-1zM90 64h1v1h-1zM88 67h1v1h-1zM87 68h1v1h-1zM86 70h1v1h-1zM85 71h1v1h-1zM83 74h1v1h-1zM82 75h1v1h-1zM80 78h1v1h-1zM79 79h1v1h-1zM78 81h1v1h-1zM77 82h1v1h-1zM75 85h1v1h-1zM74 86h1v1h-1zM73 88h1v1h-1zM72 89h1v1h-1z" /><path fill="#a35df1" d="M95 60h2v1h-2zM90 67h1v1h-1zM87 71h1v1h-1zM85 74h1v1h-1zM82 78h1v1h-1zM77 85h1v1h-1zM74 89h1v1h-1z" /><path fill="#8b3af3" d="M36 61h1v1h-1zM35 62h1v1h-1zM34 64h1v1h-1zM33 65h1v1h-1zM32 66h1v1h-1zM32 67h1v1h-1zM31 68h1v1h-1zM30 69h1v1h-1zM29 70h1v1h-1zM29 71h1v1h-1zM28 72h1v1h-1z" /><path fill="#8b3af2" d="M37 61h1v1h-1z" /><path fill="#8c3bf2" d="M38 61h1v1h-1zM29 73h1v1h-1z" /><path fill="#ef6b6a" d="M55 61h1v1h-1z" /><path fill="#a057f1" d="M86 61h1v1h-1zM84 64h1v1h-1zM65 89h1v1h-1z" /><path fill="#a45df1" d="M95 61h1v1h-1zM94 62h2v1h-2zM93 63h2v1h-2zM93 64h1v1h-1zM92 65h1v1h-1zM91 66h2v1h-2zM91 67h1v1h-1zM90 68h1v1h-1zM89 69h2v1h-2zM88 70h2v1h-2zM88 71h1v1h-1zM87 72h1v1h-1zM86 73h2v1h-2zM86 74h1v1h-1zM85 75h1v1h-1zM84 76h2v1h-2zM83 77h2v1h-2zM83 78h1v1h-1zM82 79h1v1h-1zM81 80h2v1h-2zM80 81h2v1h-2zM80 82h1v1h-1zM79 83h1v1h-1zM78 84h2v1h-2zM78 85h1v1h-1zM77 86h1v1h-1zM76 87h2v1h-2zM75 88h2v1h-2zM75 89h1v1h-1z" /><path fill="#a45ef0" d="M96 61h1v1h-1z" /><path fill="#832ef2" d="M16 62h1v1h-1zM17 63h1v1h-1z" /><path fill="#8c3af3" d="M36 62h1v1h-1zM35 63h1v1h-1zM34 65h1v1h-1zM33 66h1v1h-1zM32 68h1v1h-1zM31 69h1v1h-1zM30 70h1v1h-1zM29 72h1v1h-1z" /><path fill="#8c3bf3" d="M37 62h2v1h-2zM36 63h2v1h-2zM35 64h2v1h-2zM35 65h1v1h-1zM34 66h2v1h-2zM33 67h2v1h-2zM33 68h1v1h-1zM32 69h2v1h-2zM31 70h2v1h-2zM30 71h2v1h-2zM30 72h1v1h-1zM30 73h1v1h-1z" /><path fill="#8d3bf1" d="M39 62h1v1h-1zM30 74h1v1h-1z" /><path fill="#ee716a" d="M48 62h1v1h-1z" /><path fill="#9f57f1" d="M85 62h1v1h-1z" /><path fill="#a45ef1" d="M96 62h1v1h-1zM95 63h1v1h-1zM94 64h1v1h-1zM93 65h1v1h-1zM93 66h1v1h-1zM92 67h1v1h-1zM91 68h1v1h-1zM91 69h1v1h-1zM90 70h1v1h-1zM89 71h1v1h-1zM88 72h1v1h-1zM88 73h1v1h-1zM87 74h1v1h-1zM86 75h1v1h-1zM85 77h1v1h-1zM84 78h1v1h-1zM83 79h1v1h-1zM83 80h1v1h-1zM82 81h1v1h-1zM81 82h1v1h-1zM80 83h1v1h-1zM80 84h1v1h-1zM79 85h1v1h-1zM78 86h1v1h-1zM78 87h1v1h-1zM77 88h1v1h-1zM76 89h1v1h-1z" /><path fill="#8d3cf2" d="M38 63h2v1h-2zM37 64h2v1h-2zM36 65h2v1h-2zM36 66h1v1h-1zM35 67h2v1h-2zM34 68h2v1h-2zM34 69h1v1h-1zM33 70h1v1h-1zM32 71h2v1h-2zM31 72h2v1h-2zM31 73h1v1h-1zM31 74h1v1h-1z" /><path fill="#8d3cf1" d="M40 63h1v1h-1zM32 75h1v1h-1z" /><path fill="#ef726a" d="M50 63h1v1h-1z" /><path fill="#a057f0" d="M85 63h1v1h-1z" /><path fill="#a55ef1" d="M96 63h1v1h-1zM95 64h1v1h-1zM94 65h1v1h-1zM93 67h1v1h-1zM92 68h1v1h-1zM91 70h1v1h-1zM90 71h1v1h-1zM89 72h1v1h-1zM88 74h1v1h-1zM87 75h1v1h-1zM86 76h1v1h-1zM85 78h1v1h-1zM84 79h1v1h-1zM83 81h1v1h-1zM82 82h1v1h-1zM81 83h1v1h-1zM80 85h1v1h-1zM79 86h1v1h-1zM78 88h1v1h-1zM77 89h1v1h-1z" /><path fill="#842ff2" d="M18 64h1v1h-1z" /><path fill="#8d3df2" d="M39 64h1v1h-1zM38 65h1v1h-1zM37 66h1v1h-1zM36 68h1v1h-1zM35 69h1v1h-1zM34 70h1v1h-1zM34 71h1v1h-1zM33 72h1v1h-1zM32 73h1v1h-1z" /><path fill="#8e3ef2" d="M40 64h2v1h-2zM40 65h1v1h-1zM39 66h2v1h-2zM38 67h2v1h-2zM38 68h1v1h-1zM37 69h1v1h-1zM36 70h2v1h-2zM35 71h2v1h-2zM35 72h1v1h-1zM34 73h1v1h-1zM33 74h2v1h-2zM33 75h1v1h-1z" /><path fill="#8f3ef1" d="M42 64h1v1h-1z" /><path fill="#f07069" d="M52 64h1v1h-1z" /><path fill="#a55ff1" d="M96 64h1v1h-1zM95 65h2v1h-2zM94 66h2v1h-2zM94 67h1v1h-1zM93 68h2v1h-2zM92 69h2v1h-2zM92 70h1v1h-1zM91 71h1v1h-1zM90 72h2v1h-2zM89 73h2v1h-2zM89 74h1v1h-1zM88 75h2v1h-2zM87 76h2v1h-2zM86 77h2v1h-2zM86 78h1v1h-1zM85 79h2v1h-2zM84 80h2v1h-2zM84 81h1v1h-1zM83 82h2v1h-2zM82 83h2v1h-2zM81 84h2v1h-2zM81 85h1v1h-1zM80 86h2v1h-2zM79 87h2v1h-2zM79 88h1v1h-1z" /><path fill="#a55ef0" d="M97 64h1v1h-1z" /><path fill="#8530f2" d="M19 65h1v1h-1z" /><path fill="#8a39f3" d="M31 65h1v1h-1zM28 69h1v1h-1z" /><path fill="#8e3df2" d="M39 65h1v1h-1zM38 66h1v1h-1zM37 67h1v1h-1zM37 68h1v1h-1zM36 69h1v1h-1zM35 70h1v1h-1zM34 72h1v1h-1zM33 73h1v1h-1zM32 74h1v1h-1z" /><path fill="#8f3ff2" d="M41 65h2v1h-2zM41 66h1v1h-1zM40 67h2v1h-2zM39 68h2v1h-2zM39 69h1v1h-1zM38 70h2v1h-2zM37 71h2v1h-2zM36 72h2v1h-2zM36 73h1v1h-1zM35 74h2v1h-2zM34 75h2v1h-2zM34 76h1v1h-1z" /><path fill="#8f40f2" d="M43 65h1v1h-1zM42 66h1v1h-1zM41 68h1v1h-1zM40 69h1v1h-1zM38 72h1v1h-1zM37 73h1v1h-1zM35 76h1v1h-1z" /><path fill="#9040f2" d="M44 65h1v1h-1zM43 66h1v1h-1zM42 67h1v1h-1zM42 68h1v1h-1zM41 69h1v1h-1zM40 70h1v1h-1zM39 71h1v1h-1zM39 72h1v1h-1zM38 73h1v1h-1zM37 74h1v1h-1zM36 75h2v1h-2zM36 76h1v1h-1zM36 78h1v1h-1z" /><path fill="#a660f1" d="M97 65h1v1h-1zM96 66h2v1h-2zM95 67h2v1h-2zM95 68h1v1h-1zM94 69h2v1h-2zM93 70h2v1h-2zM93 71h1v1h-1zM92 72h1v1h-1zM91 73h2v1h-2zM90 74h2v1h-2zM90 75h1v1h-1zM89 76h2v1h-2zM88 77h2v1h-2zM87 78h2v1h-2zM87 79h1v1h-1zM86 80h2v1h-2zM85 81h2v1h-2zM85 82h1v1h-1zM84 83h2v1h-2zM83 84h2v1h-2zM82 85h2v1h-2zM82 86h1v1h-1zM81 87h2v1h-2zM80 88h2v1h-2z" /><path fill="#8532f2" d="M20 66h1v1h-1z" /><path fill="#9041f2" d="M44 66h1v1h-1zM46 66h1v1h-1zM43 67h2v1h-2zM43 68h1v1h-1zM42 69h1v1h-1zM41 70h1v1h-1zM40 71h2v1h-2zM40 72h1v1h-1zM39 73h1v1h-1zM38 74h2v1h-2zM38 75h1v1h-1zM37 76h1v1h-1zM36 77h1v1h-1z" /><path fill="#9141f1" d="M45 66h1v1h-1z" /><path fill="#9142f2" d="M45 67h2v1h-2zM44 68h2v1h-2zM44 69h1v1h-1zM43 70h2v1h-2zM42 71h2v1h-2zM41 72h2v1h-2zM41 73h1v1h-1zM40 74h2v1h-2zM39 75h2v1h-2zM39 76h1v1h-1zM38 77h2v1h-2zM37 78h2v1h-2z" /><path fill="#9142f1" d="M47 67h1v1h-1z" /><path fill="#9143f2" d="M48 67h1v1h-1zM45 69h1v1h-1zM42 73h1v1h-1zM40 76h1v1h-1z" /><path fill="#a661f1" d="M97 67h1v1h-1zM96 68h1v1h-1zM95 70h1v1h-1zM94 71h1v1h-1zM93 72h1v1h-1zM93 73h1v1h-1zM92 74h1v1h-1zM91 75h1v1h-1zM90 77h1v1h-1zM89 78h1v1h-1zM88 79h1v1h-1zM87 81h1v1h-1zM86 82h1v1h-1zM85 84h1v1h-1zM84 85h1v1h-1zM83 86h1v1h-1zM82 88h1v1h-1z" /><path fill="#8833f3" d="M22 68h1v1h-1z" /><path fill="#9243f2" d="M46 68h2v1h-2zM46 69h1v1h-1zM45 70h1v1h-1zM44 71h2v1h-2zM43 72h2v1h-2zM43 73h1v1h-1zM42 74h1v1h-1zM41 75h2v1h-2zM41 76h1v1h-1zM40 77h1v1h-1zM39 78h1v1h-1zM39 79h1v1h-1z" /><path fill="#9244f2" d="M48 68h1v1h-1zM47 69h1v1h-1zM46 70h1v1h-1zM46 71h1v1h-1zM45 72h1v1h-1zM44 73h1v1h-1zM43 74h1v1h-1zM43 75h1v1h-1zM42 76h1v1h-1zM41 77h1v1h-1zM40 78h2v1h-2zM40 79h1v1h-1z" /><path fill="#9345f2" d="M49 68h1v1h-1zM49 69h1v1h-1zM48 70h2v1h-2zM47 71h2v1h-2zM46 72h2v1h-2zM46 73h1v1h-1zM45 74h2v1h-2zM44 75h2v1h-2zM44 76h1v1h-1zM43 77h2v1h-2zM42 78h2v1h-2zM41 79h2v1h-2zM41 80h1v1h-1z" /><path fill="#9245f2" d="M50 68h1v1h-1z" /><path fill="#a056f1" d="M80 68h1v1h-1z" /><path fill="#a761f1" d="M97 68h1v1h-1zM96 69h1v1h-1zM96 70h1v1h-1zM95 71h1v1h-1zM94 72h1v1h-1zM93 74h1v1h-1zM92 75h1v1h-1zM91 76h1v1h-1zM91 77h1v1h-1zM90 78h1v1h-1zM89 79h1v1h-1zM88 80h1v1h-1zM88 81h1v1h-1zM87 82h1v1h-1zM86 83h1v1h-1zM85 85h1v1h-1zM84 86h1v1h-1zM83 87h1v1h-1z" /><path fill="#8735f3" d="M23 69h1v1h-1z" /><path fill="#8836f2" d="M24 69h1v1h-1z" /><path fill="#8f3ef2" d="M38 69h1v1h-1zM35 73h1v1h-1z" /><path fill="#9141f2" d="M43 69h1v1h-1zM42 70h1v1h-1zM40 73h1v1h-1zM38 76h1v1h-1zM37 77h1v1h-1z" /><path fill="#9344f2" d="M48 69h1v1h-1zM47 70h1v1h-1zM45 73h1v1h-1zM44 74h1v1h-1zM43 76h1v1h-1zM42 77h1v1h-1z" /><path fill="#9446f2" d="M50 69h2v1h-2zM50 70h1v1h-1zM49 71h2v1h-2zM48 72h2v1h-2zM48 73h1v1h-1zM47 74h1v1h-1zM46 75h2v1h-2zM45 76h2v1h-2zM45 77h1v1h-1zM44 78h1v1h-1zM43 79h2v1h-2zM43 80h1v1h-1zM42 81h1v1h-1z" /><path fill="#9446f1" d="M52 69h1v1h-1z" /><path fill="#9447f1" d="M53 69h1v1h-1z" /><path fill="#a762f1" d="M97 69h1v1h-1zM97 70h1v1h-1zM96 71h1v1h-1zM95 72h2v1h-2zM94 73h2v1h-2zM94 74h1v1h-1zM93 75h1v1h-1zM92 76h2v1h-2zM92 77h1v1h-1zM91 78h1v1h-1zM90 79h2v1h-2zM89 80h2v1h-2zM89 81h1v1h-1zM88 82h1v1h-1zM87 83h2v1h-2zM86 84h2v1h-2zM86 85h1v1h-1zM85 86h2v1h-2zM84 87h2v1h-2z" /><path fill="#9447f2" d="M51 70h1v1h-1zM50 72h1v1h-1zM49 73h1v1h-1zM48 74h1v1h-1zM48 75h1v1h-1zM47 76h1v1h-1zM46 77h1v1h-1zM45 78h1v1h-1zM45 79h1v1h-1zM44 80h1v1h-1zM43 81h1v1h-1z" /><path fill="#9547f2" d="M52 70h1v1h-1zM51 71h1v1h-1zM51 72h1v1h-1zM50 73h1v1h-1zM49 74h1v1h-1zM48 76h1v1h-1zM47 77h1v1h-1zM46 78h1v1h-1zM45 80h1v1h-1zM44 81h1v1h-1z" /><path fill="#9548f2" d="M53 70h2v1h-2zM52 71h2v1h-2zM52 72h1v1h-1zM51 73h1v1h-1zM50 74h2v1h-2zM49 75h2v1h-2zM49 76h1v1h-1zM48 77h2v1h-2zM47 78h2v1h-2zM46 79h2v1h-2zM46 80h1v1h-1zM45 81h2v1h-2zM44 82h2v1h-2z" /><path fill="#9548f1" d="M55 70h1v1h-1z" /><path fill="#9649f1" d="M56 70h1v1h-1z" /><path fill="#9e55f1" d="M75 70h1v1h-1z" /><path fill="#9649f2" d="M54 71h2v1h-2zM53 72h2v1h-2zM52 73h2v1h-2zM52 74h1v1h-1zM51 75h2v1h-2zM50 76h2v1h-2zM50 77h1v1h-1zM49 78h2v1h-2zM48 79h2v1h-2zM47 80h2v1h-2zM47 81h1v1h-1zM46 82h2v1h-2z" /><path fill="#974af2" d="M56 71h1v1h-1zM56 72h1v1h-1zM55 73h1v1h-1zM54 74h1v1h-1zM53 75h1v1h-1zM53 76h1v1h-1zM52 77h1v1h-1zM51 78h1v1h-1zM50 79h1v1h-1zM50 80h1v1h-1zM49 81h1v1h-1zM48 82h1v1h-1zM48 83h1v1h-1z" /><path fill="#974cf1" d="M59 71h1v1h-1z" /><path fill="#984bf2" d="M60 71h1v1h-1zM54 77h1v1h-1zM51 81h1v1h-1z" /><path fill="#994df1" d="M61 71h1v1h-1z" /><path fill="#984df2" d="M62 71h1v1h-1zM59 73h1v1h-1zM58 74h1v1h-1zM56 77h1v1h-1zM54 80h1v1h-1zM53 81h1v1h-1zM51 84h1v1h-1z" /><path fill="#9e53f2" d="M73 71h1v1h-1z" /><path fill="#a560f1" d="M92 71h1v1h-1z" /><path fill="#a862f1" d="M97 71h1v1h-1zM94 75h1v1h-1zM89 82h1v1h-1z" /><path fill="#964af2" d="M55 72h1v1h-1zM54 73h1v1h-1zM53 74h1v1h-1zM52 76h1v1h-1zM51 77h1v1h-1zM49 80h1v1h-1zM48 81h1v1h-1zM47 83h1v1h-1z" /><path fill="#984cf2" d="M58 72h2v1h-2zM57 73h2v1h-2zM57 74h1v1h-1zM56 75h2v1h-2zM55 76h2v1h-2zM55 77h1v1h-1zM54 78h2v1h-2zM53 79h2v1h-2zM52 80h2v1h-2zM52 81h1v1h-1zM51 82h2v1h-2zM50 83h2v1h-2zM50 84h1v1h-1z" /><path fill="#a863f1" d="M97 72h1v1h-1zM96 73h1v1h-1zM95 74h2v1h-2zM95 75h1v1h-1zM94 76h2v1h-2zM93 77h2v1h-2zM92 78h2v1h-2zM92 79h1v1h-1zM91 80h2v1h-2zM90 81h2v1h-2zM90 82h1v1h-1zM89 83h2v1h-2zM88 84h2v1h-2zM91 84h1v1h-1zM87 85h2v1h-2zM87 86h1v1h-1z" /><path fill="#ec8965" d="M22 73h1v1h-1z" /><path fill="#9346f2" d="M47 73h1v1h-1zM42 80h1v1h-1z" /><path fill="#9a4ef2" d="M62 73h1v1h-1zM61 74h1v1h-1zM59 77h1v1h-1zM58 78h1v1h-1zM56 81h1v1h-1zM54 84h1v1h-1zM53 85h1v1h-1z" /><path fill="#a862f0" d="M97 73h1v1h-1zM86 87h1v1h-1z" /><path fill="#ec8b64" d="M21 74h1v1h-1zM29 83h1v1h-1z" /><path fill="#eb8964" d="M22 74h1v1h-1zM23 75h2v1h-2zM24 76h2v1h-2zM25 77h2v1h-2zM27 78h1v1h-1zM28 79h3v1h-3zM29 80h2v1h-2zM30 81h2v1h-2z" /><path fill="#ec8864" d="M23 74h1v1h-1zM31 80h1v1h-1z" /><path fill="#9a50f2" d="M63 74h1v1h-1zM61 77h1v1h-1zM58 81h1v1h-1zM56 84h1v1h-1zM56 87h1v1h-1z" /><path fill="#a864f1" d="M97 74h1v1h-1zM96 75h1v1h-1zM96 77h1v1h-1zM94 78h1v1h-1zM93 79h1v1h-1zM92 81h1v1h-1zM91 82h1v1h-1zM89 85h1v1h-1z" /><path fill="#eb8a64" d="M21 75h2v1h-2zM22 76h2v1h-2zM24 77h1v1h-1zM25 78h2v1h-2zM26 79h2v1h-2zM27 80h2v1h-2zM29 81h1v1h-1z" /><path fill="#8c3cf2" d="M31 75h1v1h-1z" /><path fill="#a963f1" d="M97 75h1v1h-1z" /><path fill="#eb8d64" d="M20 76h1v1h-1z" /><path fill="#eb8b64" d="M21 76h1v1h-1zM22 77h2v1h-2zM23 78h2v1h-2zM24 79h2v1h-2zM26 80h1v1h-1zM27 81h2v1h-2zM28 82h2v1h-2z" /><path fill="#ed8864" d="M26 76h1v1h-1z" /><path fill="#8e3df1" d="M33 76h1v1h-1z" /><path fill="#a964f1" d="M96 76h1v1h-1zM95 77h1v1h-1zM95 78h1v1h-1zM94 79h1v1h-1zM93 80h1v1h-1zM93 81h2v1h-2zM92 82h1v1h-1zM91 83h2v1h-2zM90 84h1v1h-1z" /><path fill="#eb8c63" d="M20 77h2v1h-2zM21 78h2v1h-2zM23 79h1v1h-1zM24 80h2v1h-2zM25 81h2v1h-2zM26 82h2v1h-2zM28 83h1v1h-1z" /><path fill="#ec8964" d="M27 77h1v1h-1z" /><path fill="#8e3ff1" d="M34 77h1v1h-1z" /><path fill="#8f40f1" d="M35 77h1v1h-1z" /><path fill="#ea8e63" d="M19 78h1v1h-1zM19 79h2v1h-2zM20 80h2v1h-2zM22 81h1v1h-1zM23 82h2v1h-2zM24 83h2v1h-2zM25 84h2v1h-2z" /><path fill="#ea8d63" d="M20 78h1v1h-1zM21 79h1v1h-1zM22 80h1v1h-1zM23 81h1v1h-1zM25 82h1v1h-1zM26 83h1v1h-1zM27 84h1v1h-1z" /><path fill="#ec8863" d="M28 78h1v1h-1z" /><path fill="#eb8d63" d="M22 79h1v1h-1zM23 80h1v1h-1zM24 81h1v1h-1zM27 83h1v1h-1z" /><path fill="#9242f2" d="M38 79h1v1h-1z" /><path fill="#a864f0" d="M95 79h1v1h-1zM90 85h1v1h-1z" /><path fill="#ea9064" d="M18 80h1v1h-1z" /><path fill="#ea8f63" d="M19 80h1v1h-1zM20 81h2v1h-2zM21 82h2v1h-2zM22 83h2v1h-2zM24 84h1v1h-1zM25 85h1v1h-1z" /><path fill="#9343f1" d="M40 80h1v1h-1z" /><path fill="#a965f1" d="M94 80h1v1h-1z" /><path fill="#ea9063" d="M18 81h2v1h-2zM20 82h1v1h-1zM21 83h1v1h-1zM22 84h2v1h-2zM23 85h2v1h-2zM25 86h1v1h-1z" /><path fill="#eb9362" d="M17 82h1v1h-1z" /><path fill="#ea9162" d="M18 82h1v1h-1zM19 83h2v1h-2zM20 84h2v1h-2zM21 85h2v1h-2zM23 86h1v1h-1z" /><path fill="#ea9062" d="M19 82h1v1h-1zM24 86h1v1h-1z" /><path fill="#ec8a64" d="M30 82h1v1h-1z" /><path fill="#a965f0" d="M93 82h1v1h-1z" /><path fill="#ea9262" d="M17 83h2v1h-2zM18 84h2v1h-2zM20 85h1v1h-1zM21 86h2v1h-2zM22 87h1v1h-1z" /><path fill="#9549f2" d="M46 83h1v1h-1z" /><path fill="#eb9563" d="M16 84h1v1h-1zM21 89h1v1h-1z" /><path fill="#ea9362" d="M17 84h1v1h-1zM18 85h2v1h-2zM19 86h2v1h-2zM20 87h2v1h-2zM22 88h1v1h-1z" /><path fill="#964af1" d="M48 84h1v1h-1z" /><path fill="#974bf1" d="M49 84h1v1h-1z" /><path fill="#ea9462" d="M16 85h2v1h-2zM18 86h1v1h-1zM19 87h1v1h-1zM20 88h2v1h-2z" /><path fill="#eb9063" d="M26 85h1v1h-1z" /><path fill="#eb9761" d="M15 86h1v1h-1z" /><path fill="#ea9562" d="M16 86h2v1h-2zM17 87h2v1h-2zM19 88h1v1h-1zM20 89h1v1h-1z" /><path fill="#994ff1" d="M53 86h1v1h-1z" /><path fill="#994ef1" d="M54 86h1v1h-1z" /><path fill="#a764f0" d="M88 86h1v1h-1z" /><path fill="#e99661" d="M15 87h1v1h-1zM19 90h1v1h-1z" /><path fill="#ea9661" d="M16 87h1v1h-1zM17 88h1v1h-1zM18 89h1v1h-1zM20 90h1v1h-1z" /><path fill="#ea9261" d="M23 87h1v1h-1z" /><path fill="#ea9960" d="M14 88h1v1h-1z" /><path fill="#e99761" d="M15 88h2v1h-2zM16 89h2v1h-2zM17 90h2v1h-2z" /><path fill="#ea9561" d="M18 88h1v1h-1zM19 89h1v1h-1z" /><path fill="#9d54f1" d="M61 88h1v1h-1z" /><path fill="#a760f0" d="M83 88h1v1h-1z" /><path fill="#a662f0" d="M84 88h1v1h-1z" /><path fill="#e99861" d="M14 89h2v1h-2zM16 90h1v1h-1zM17 91h1v1h-1z" /><path fill="#a55ff0" d="M78 89h1v1h-1z" /><path fill="#a45ff0" d="M79 89h1v1h-1z" /><path fill="#a65ff0" d="M80 89h1v1h-1z" /><path fill="#ea9a61" d="M13 90h1v1h-1zM16 93h1v1h-1z" /><path fill="#e99961" d="M14 90h2v1h-2zM15 91h2v1h-2zM16 92h2v1h-2z" /><path fill="#e99a60" d="M13 91h1v1h-1z" /><path fill="#e99a61" d="M14 91h1v1h-1zM15 92h1v1h-1z" /><path fill="#e99760" d="M18 91h1v1h-1z" /><path fill="#e99d60" d="M12 92h1v1h-1zM12 94h2v1h-2z" /><path fill="#e99b60" d="M13 92h2v1h-2zM14 93h2v1h-2z" /><path fill="#e99c60" d="M12 93h2v1h-2zM14 94h1v1h-1z" /><path fill="#ea9e60" d="M11 94h1v1h-1z" /><path fill="#ea9c60" d="M15 94h1v1h-1z" /><path fill="#e99e60" d="M11 95h2v1h-2z" /><path fill="#ea9d60" d="M13 95h1v1h-1z" /><path fill="#e9a15f" d="M10 96h1v1h-1z" /><path fill="#e99f5f" d="M11 96h1v1h-1z" /><path fill="#e99f61" d="M12 96h1v1h-1z" /><path fill="#e8a05f" d="M10 97h1v1h-1z" /><path fill="#e8a15f" d="M11 97h1v1h-1z" /><path fill="#e8a35f" d="M9 98h1v1h-1z" /></svg>