<svg xmlns="http://www.w3.org/2000/svg" viewBox="0 0 100 100" width="1em" height="1em"><path fill="#000000" d="M14 8h2v1h-2zM12 9h6v1h-6zM11 10h8v1h-8zM11 11h9v1h-9zM71 11h4v1h-4zM10 12h11v1h-11zM69 12h7v1h-7zM10 13h11v1h-11zM68 13h9v1h-9zM11 14h11v1h-11zM68 14h9v1h-9zM11 15h12v1h-12zM67 15h10v1h-10zM12 16h12v1h-12zM66 16h11v1h-11zM13 17h12v1h-12zM65 17h12v1h-12zM13 18h12v1h-12zM64 18h12v1h-12zM14 19h12v1h-12zM63 19h13v1h-13zM15 20h12v1h-12zM63 20h12v1h-12zM16 21h12v1h-12zM62 21h12v1h-12zM17 22h12v1h-12zM61 22h12v1h-12zM17 23h12v1h-12zM60 23h12v1h-12zM18 24h12v1h-12zM59 24h12v1h-12zM19 25h12v1h-12zM58 25h13v1h-13zM20 26h12v1h-12zM58 26h12v1h-12zM21 27h12v1h-12zM57 27h12v1h-12zM22 28h11v1h-11zM56 28h12v1h-12zM22 29h12v1h-12zM55 29h12v1h-12zM23 30h12v1h-12zM54 30h12v1h-12zM24 31h12v1h-12zM53 31h13v1h-13zM25 32h12v1h-12zM53 32h12v1h-12zM26 33h11v1h-11zM52 33h12v1h-12zM26 34h12v1h-12zM51 34h12v1h-12zM27 35h11v1h-11zM50 35h12v1h-12zM28 36h10v1h-10zM49 36h12v1h-12zM29 37h9v1h-9zM48 37h13v1h-13zM30 38h7v1h-7zM48 38h12v1h-12zM31 39h5v1h-5zM47 39h12v1h-12zM46 40h12v1h-12zM45 41h12v1h-12zM44 42h12v1h-12zM43 43h13v1h-13zM43 44h12v1h-12zM42 45h12v1h-12zM42 46h11v1h-11zM42 47h10v1h-10zM42 48h9v1h-9zM42 49h9v1h-9zM42 50h9v1h-9zM42 51h9v1h-9zM42 52h9v1h-9zM42 53h9v1h-9zM42 54h9v1h-9zM42 55h9v1h-9zM42 56h9v1h-9zM42 57h9v1h-9zM42 58h9v1h-9zM76 58h4v1h-4zM42 59h9v1h-9zM74 59h7v1h-7zM42 60h9v1h-9zM74 60h8v1h-8zM42 61h9v1h-9zM73 61h9v1h-9zM42 62h9v1h-9zM73 62h9v1h-9zM42 63h9v1h-9zM73 63h9v1h-9zM42 64h9v1h-9zM73 64h9v1h-9zM42 65h9v1h-9zM73 65h9v1h-9zM42 66h9v1h-9zM73 66h9v1h-9zM42 67h9v1h-9zM73 67h9v1h-9zM42 68h9v1h-9zM73 68h9v1h-9zM42 69h9v1h-9zM73 69h9v1h-9zM42 70h9v1h-9zM73 70h9v1h-9zM42 71h9v1h-9zM73 71h9v1h-9zM42 72h9v1h-9zM73 72h9v1h-9zM42 73h9v1h-9zM73 73h9v1h-9zM42 74h9v1h-9zM73 74h9v1h-9zM42 75h9v1h-9zM73 75h9v1h-9zM42 76h9v1h-9zM73 76h9v1h-9zM42 77h9v1h-9zM73 77h9v1h-9zM42 78h9v1h-9zM73 78h9v1h-9zM42 79h9v1h-9zM73 79h9v1h-9zM42 80h9v1h-9zM73 80h9v1h-9zM42 81h9v1h-9zM73 81h9v1h-9zM42 82h9v1h-9zM73 82h9v1h-9zM42 83h9v1h-9zM73 83h9v1h-9zM42 84h9v1h-9zM73 84h9v1h-9zM42 85h9v1h-9zM73 85h9v1h-9zM42 86h9v1h-9zM73 86h9v1h-9zM42 87h9v1h-9zM73 87h9v1h-9zM43 88h8v1h-8zM73 88h9v1h-9zM43 89h7v1h-7zM74 89h7v1h-7zM44 90h5v1h-5zM75 90h6v1h-6zM76 91h3v1h-3z" /><path fill="#00ff24" d="M81 39h2v1h-2zM86 39h1v1h-1zM78 43h1v1h-1zM78 45h1v1h-1zM79 47h1v1h-1zM88 47h1v1h-1zM80 48h1v1h-1zM87 48h1v1h-1zM85 49h2v1h-2z" /><path fill="#00ff25" d="M83 39h3v1h-3zM80 40h8v1h-8zM79 41h10v1h-10zM79 42h10v1h-10zM79 43h10v1h-10zM78 44h12v1h-12zM79 45h10v1h-10zM79 46h10v1h-10zM80 47h8v1h-8zM81 48h6v1h-6zM81 49h4v1h-4z" /></svg>