<svg xmlns="http://www.w3.org/2000/svg" viewBox="0 0 100 100" width="1em" height="1em"><path fill="#4200ad" d="M0 12h1v1h-1z" /><path fill="#4400ae" d="M1 12h65v1h-65z" /><path fill="#280066" d="M66 12h1v1h-1z" /><path fill="#6300ff" d="M0 13h66v1h-66zM0 14h66v1h-66zM0 15h66v1h-66zM0 16h66v1h-66zM0 17h66v1h-66zM0 18h66v1h-66zM0 19h66v1h-66zM0 20h66v1h-66zM0 21h66v1h-66zM0 22h66v1h-66zM0 23h66v1h-66zM0 24h66v1h-66zM0 25h66v1h-66zM0 26h66v1h-66zM0 27h66v1h-66zM0 28h66v1h-66zM0 29h66v1h-66zM0 30h66v1h-66zM0 31h66v1h-66zM0 32h66v1h-66zM0 33h66v1h-66zM0 34h66v1h-66zM0 35h66v1h-66zM0 36h66v1h-66zM0 37h66v1h-66zM0 38h66v1h-66zM0 39h66v1h-66zM0 40h66v1h-66z" /><path fill="#30007b" d="M66 13h1v1h-1zM66 14h1v1h-1zM66 15h1v1h-1zM66 16h1v1h-1zM66 17h1v1h-1zM66 18h1v1h-1zM66 19h1v1h-1zM66 20h1v1h-1zM66 21h1v1h-1zM66 22h1v1h-1zM66 23h1v1h-1zM66 24h1v1h-1zM66 25h1v1h-1zM66 26h1v1h-1zM66 27h1v1h-1zM66 28h1v1h-1zM66 29h1v1h-1zM66 30h1v1h-1zM66 31h1v1h-1zM66 32h1v1h-1zM66 33h1v1h-1zM66 34h1v1h-1zM66 35h1v1h-1zM66 36h1v1h-1zM66 37h1v1h-1zM66 38h1v1h-1zM66 39h1v1h-1zM66 40h1v1h-1z" /><path fill="#000000" d="M67 13h33v1h-33zM67 14h33v1h-33zM67 15h33v1h-33zM67 16h33v1h-33zM67 17h33v1h-33zM67 18h33v1h-33zM67 19h33v1h-33zM67 20h33v1h-33zM67 21h33v1h-33zM67 22h33v1h-33zM67 23h33v1h-33zM67 24h33v1h-33zM67 25h33v1h-33zM67 26h33v1h-33zM67 27h33v1h-33zM67 28h33v1h-33zM67 29h33v1h-33zM67 30h33v1h-33zM67 31h33v1h-33zM67 32h33v1h-33zM67 33h33v1h-33zM67 34h33v1h-33zM67 35h33v1h-33zM67 36h33v1h-33zM67 37h33v1h-33zM67 38h33v1h-33zM67 39h33v1h-33zM67 40h33v1h-33zM67 41h33v1h-33zM65 42h32v1h-32zM63 43h31v1h-31zM61 44h30v1h-30zM60 45h29v1h-29zM58 46h28v1h-28zM56 47h27v1h-27zM54 48h26v1h-26zM52 49h25v1h-25zM50 50h24v1h-24zM49 51h22v1h-22zM47 52h21v1h-21zM45 53h20v1h-20zM43 54h19v1h-19zM41 55h19v1h-19zM39 56h18v1h-18zM38 57h16v1h-16zM36 58h15v1h-15zM34 59h14v1h-14zM32 60h13v1h-13zM30 61h12v1h-12zM28 62h11v1h-11zM0 63h39v1h-39zM0 64h39v1h-39zM0 65h39v1h-39zM0 66h39v1h-39zM0 67h39v1h-39zM0 68h39v1h-39zM0 69h39v1h-39zM0 70h39v1h-39zM0 71h39v1h-39zM0 72h39v1h-39zM0 73h39v1h-39zM0 74h39v1h-39zM0 75h39v1h-39zM0 76h39v1h-39zM0 77h39v1h-39zM0 78h39v1h-39zM0 79h39v1h-39zM0 80h39v1h-39zM0 81h39v1h-39zM0 82h39v1h-39zM0 83h39v1h-39zM0 84h39v1h-39zM0 85h39v1h-39zM0 86h39v1h-39zM0 87h39v1h-39zM0 88h39v1h-39zM0 89h39v1h-39zM0 90h39v1h-39zM0 91h39v1h-39z" /><path fill="#4400b0" d="M0 41h66v1h-66z" /><path fill="#1e004f" d="M66 41h1v1h-1z" /><path fill="#651b00" d="M39 62h1v1h-1z" /><path fill="#992900" d="M40 62h1v1h-1z" /><path fill="#a12b00" d="M41 62h59v1h-59z" /><path fill="#d53900" d="M39 63h1v1h-1zM39 64h1v1h-1zM39 65h1v1h-1zM39 66h1v1h-1zM39 67h1v1h-1zM39 68h1v1h-1zM39 69h1v1h-1zM39 70h1v1h-1zM39 71h1v1h-1zM39 72h1v1h-1zM39 73h1v1h-1zM39 74h1v1h-1zM39 75h1v1h-1zM39 76h1v1h-1zM39 77h1v1h-1zM39 78h1v1h-1zM39 79h1v1h-1zM39 80h1v1h-1zM39 81h1v1h-1zM39 82h1v1h-1zM39 83h1v1h-1zM39 84h1v1h-1zM39 85h1v1h-1zM39 86h1v1h-1zM39 87h1v1h-1zM39 88h1v1h-1zM39 89h1v1h-1zM39 90h1v1h-1z" /><path fill="#ff4400" d="M40 63h60v1h-60zM40 64h60v1h-60zM40 65h60v1h-60zM40 66h60v1h-60zM40 67h60v1h-60zM40 68h60v1h-60zM40 69h60v1h-60zM40 70h60v1h-60zM40 71h60v1h-60zM40 72h60v1h-60zM40 73h60v1h-60zM40 74h60v1h-60zM40 75h60v1h-60zM40 76h60v1h-60zM40 77h60v1h-60zM40 78h60v1h-60zM40 79h60v1h-60zM40 80h60v1h-60zM40 81h60v1h-60zM40 82h60v1h-60zM40 83h60v1h-60zM40 84h60v1h-60zM40 85h60v1h-60zM40 86h60v1h-60zM40 87h60v1h-60zM40 88h60v1h-60zM40 89h60v1h-60zM40 90h60v1h-60z" /><path fill="#a62c00" d="M39 91h1v1h-1z" /><path fill="#c03300" d="M40 91h60v1h-60z" /></svg>